<?xml version="1.0" encoding="UTF-8" standalone="no"?>
<!-- Created with Inkscape (http://www.inkscape.org/) -->

<svg
   xmlns:dc="http://purl.org/dc/elements/1.1/"
   xmlns:cc="http://creativecommons.org/ns#"
   xmlns:rdf="http://www.w3.org/1999/02/22-rdf-syntax-ns#"
   xmlns:svg="http://www.w3.org/2000/svg"
   xmlns="http://www.w3.org/2000/svg"
   xmlns:sodipodi="http://sodipodi.sourceforge.net/DTD/sodipodi-0.dtd"
   xmlns:inkscape="http://www.inkscape.org/namespaces/inkscape"
   width="16"
   height="16"
   viewBox="0 0 32px 32px"
   version="1.1"
   id="svgMain"
   inkscape:version="0.92.4 (unknown)"
   sodipodi:docname="carved_pumpkin.svg">
  <defs
     id="defs4542">
    <filter
       style="color-interpolation-filters:sRGB;"
       inkscape:label="Color Shift"
       id="filter1175">
      <feColorMatrix
         type="hueRotate"
         values="330"
         result="color1"
         id="feColorMatrix1171" />
      <feColorMatrix
         type="saturate"
         values="0.6"
         result="color2"
         id="feColorMatrix1173" />
    </filter>
  </defs>
  <sodipodi:namedview
     id="base"
     pagecolor="#ffffff"
     bordercolor="#666666"
     borderopacity="1.0"
     inkscape:pageopacity="0.0"
     inkscape:pageshadow="2"
     inkscape:zoom="5.6568542"
     inkscape:cx="-55.413213"
     inkscape:cy="10.667172"
     inkscape:document-units="px"
     inkscape:current-layer="layer1"
     showgrid="true"
     units="px"
     inkscape:window-width="1920"
     inkscape:window-height="1024"
     inkscape:window-x="0"
     inkscape:window-y="30"
     inkscape:window-maximized="1"
     inkscape:snap-bbox="true"
     inkscape:bbox-nodes="true"
     inkscape:snap-nodes="false">
    <inkscape:grid
       type="xygrid"
       id="grid7251"
       empspacing="4" />
  </sodipodi:namedview>
  <metadata
     id="metadata1">
    <rdf:RDF>
      <cc:Work
         rdf:about="">
        <dc:format>image/svg+xml</dc:format>
        <dc:type
           rdf:resource="http://purl.org/dc/dcmitype/StillImage" />
        <dc:title />
      </cc:Work>
    </rdf:RDF>
  </metadata>
  <g
     transform="translate(-32,-48)"
     inkscape:label="Layer 1"
     inkscape:groupmode="layer"
     id="layer1">
    <!-- INSERT MARKER -->
    <g
       id="g1169"
       style="filter:url(#filter1175)">
      <g
         style="fill:#e3901d;stroke:none"
         id="g6352"
         transform="matrix(0.05,0,0,-0.05,16,80)">
        <path
           inkscape:connector-curvature="0"
           id="path6350"
           d="M 0,480 V 0 H 480 960 V 480 960 H 480 0 Z" />
      </g>
      <g
         style="fill:#441300;stroke:none"
         id="g6356"
         transform="matrix(0.05,0,0,-0.05,16,80)">
        <path
           inkscape:connector-curvature="0"
           id="path6354"
           d="M 0,480 V 0 H 480 960 V 480 960 H 480 0 Z m 55,461 c 3,-6 7,-46 10,-90 3,-63 1,-82 -11,-92 -23,-19 -34,5 -23,46 6,20 6,56 1,89 -7,44 -6,56 4,56 7,0 15,-4 19,-9 z m 83,-20 c 3,-20 2,-21 -20,-9 -13,7 -25,14 -28,16 -7,5 24,22 35,19 6,-2 11,-14 13,-26 z m 166,-54 c -3,-92 -3,-97 -14,-97 -5,0 -9,37 -7,89 1,60 5,86 12,80 6,-6 9,-38 9,-72 z m 71,74 c 3,-6 7,-46 10,-90 3,-63 1,-82 -11,-92 -23,-19 -34,5 -23,46 6,20 6,56 1,89 -7,44 -6,56 4,56 7,0 15,-4 19,-9 z m 83,-20 c 3,-20 2,-21 -20,-9 -13,7 -25,14 -28,16 -7,5 24,22 35,19 6,-2 11,-14 13,-26 z m 166,-54 c -3,-92 -3,-97 -14,-97 -5,0 -9,37 -7,89 1,60 5,86 12,80 6,-6 9,-38 9,-72 z m 71,74 c 3,-6 7,-46 10,-90 3,-63 1,-82 -11,-92 -23,-19 -34,5 -23,46 6,20 6,56 1,89 -7,44 -6,56 4,56 7,0 15,-4 19,-9 z m 83,-20 c 3,-20 2,-21 -20,-9 -13,7 -25,14 -28,16 -7,5 24,22 35,19 6,-2 11,-14 13,-26 z m 166,-54 c -3,-92 -3,-97 -14,-97 -5,0 -9,37 -7,89 1,60 5,86 12,80 6,-6 9,-38 9,-72 z m -749,53 c 0,-7 -6,-15 -12,-17 -8,-3 -13,4 -13,17 0,13 5,20 13,18 6,-3 12,-11 12,-18 z m 62,-10 c 6,-16 8,-30 4,-30 -15,0 -43,39 -36,49 11,18 20,12 32,-19 z m 258,10 c 0,-7 -6,-15 -12,-17 -8,-3 -13,4 -13,17 0,13 5,20 13,18 6,-3 12,-11 12,-18 z m 62,-10 c 6,-16 8,-30 4,-30 -15,0 -43,39 -36,49 11,18 20,12 32,-19 z m 258,10 c 0,-7 -6,-15 -12,-17 -8,-3 -13,4 -13,17 0,13 5,20 13,18 6,-3 12,-11 12,-18 z m 62,-10 c 6,-16 8,-30 4,-30 -15,0 -43,39 -36,49 11,18 20,12 32,-19 z M 145,802 c -6,-41 -8,-43 -23,-29 -14,15 -14,18 1,35 9,10 18,32 18,48 1,19 3,23 6,10 3,-10 2,-39 -2,-64 z m 320,0 c -6,-41 -8,-43 -23,-29 -14,15 -14,18 1,35 9,10 18,32 18,48 1,19 3,23 6,10 3,-10 2,-39 -2,-64 z m 320,0 c -6,-41 -8,-43 -23,-29 -14,15 -14,18 1,35 9,10 18,32 18,48 1,19 3,23 6,10 3,-10 2,-39 -2,-64 z M 210,769 c 0,-5 -6,-9 -14,-9 -7,0 -16,14 -19,33 -3,17 -8,41 -12,52 -4,11 5,0 19,-24 14,-23 26,-47 26,-52 z m 320,0 c 0,-5 -6,-9 -14,-9 -7,0 -16,14 -19,33 -3,17 -8,41 -12,52 -4,11 5,0 19,-24 14,-23 26,-47 26,-52 z m 320,0 c 0,-5 -6,-9 -14,-9 -7,0 -16,14 -19,33 -3,17 -8,41 -12,52 -4,11 5,0 19,-24 14,-23 26,-47 26,-52 z m -598,-1 c -9,-9 -12,-7 -12,12 0,19 3,21 12,12 9,-9 9,-15 0,-24 z m 320,0 c -9,-9 -12,-7 -12,12 0,19 3,21 12,12 9,-9 9,-15 0,-24 z m 320,0 c -9,-9 -12,-7 -12,12 0,19 3,21 12,12 9,-9 9,-15 0,-24 z M 60,699 c 0,-10 5,-19 12,-19 8,0 7,-6 -4,-16 -28,-28 -36,-11 -29,59 2,17 21,-5 21,-24 z m 320,0 c 0,-10 5,-19 12,-19 8,0 7,-6 -4,-16 -28,-28 -36,-11 -29,59 2,17 21,-5 21,-24 z m 320,0 c 0,-10 5,-19 12,-19 8,0 7,-6 -4,-16 -28,-28 -36,-11 -29,59 2,17 21,-5 21,-24 z M 130,661 c 0,-11 -3,-11 -15,-1 -8,7 -15,22 -15,33 0,20 0,20 15,1 8,-10 15,-25 15,-33 z m 59,36 c 6,-8 8,-17 4,-20 -7,-8 -33,11 -33,24 0,13 16,11 29,-4 z m 261,-36 c 0,-11 -3,-11 -15,-1 -8,7 -15,22 -15,33 0,20 0,20 15,1 8,-10 15,-25 15,-33 z m 59,36 c 6,-8 8,-17 4,-20 -7,-8 -33,11 -33,24 0,13 16,11 29,-4 z m 261,-36 c 0,-11 -3,-11 -15,-1 -8,7 -15,22 -15,33 0,20 0,20 15,1 8,-10 15,-25 15,-33 z m 59,36 c 6,-8 8,-17 4,-20 -7,-8 -33,11 -33,24 0,13 16,11 29,-4 z M 263,686 c 6,-15 -11,-36 -29,-36 -9,0 -9,6 -1,25 13,28 22,31 30,11 z m 33,-6 c 0,-11 -4,-20 -8,-20 -10,0 -11,24 -1,33 9,9 9,10 9,-13 z m 287,6 c 6,-15 -11,-36 -29,-36 -9,0 -9,6 -1,25 13,28 22,31 30,11 z m 33,-6 c 0,-11 -4,-20 -8,-20 -10,0 -11,24 -1,33 9,9 9,10 9,-13 z m 287,6 c 6,-15 -11,-36 -29,-36 -9,0 -9,6 -1,25 13,28 22,31 30,11 z m 33,-6 c 0,-11 -4,-20 -8,-20 -10,0 -11,24 -1,33 9,9 9,10 9,-13 z M 55,621 c 3,-6 7,-46 10,-90 3,-63 1,-82 -11,-92 -23,-19 -34,5 -23,46 6,20 6,56 1,89 -7,44 -6,56 4,56 7,0 15,-4 19,-9 z m 83,-20 c 3,-20 2,-21 -20,-9 -13,7 -25,14 -28,16 -7,5 24,22 35,19 6,-2 11,-14 13,-26 z m 166,-54 c -3,-92 -3,-97 -14,-97 -5,0 -9,37 -7,89 1,60 5,86 12,80 6,-6 9,-38 9,-72 z m 71,74 c 3,-6 7,-46 10,-90 3,-63 1,-82 -11,-92 -23,-19 -34,5 -23,46 6,20 6,56 1,89 -7,44 -6,56 4,56 7,0 15,-4 19,-9 z m 83,-20 c 3,-20 2,-21 -20,-9 -13,7 -25,14 -28,16 -7,5 24,22 35,19 6,-2 11,-14 13,-26 z m 166,-54 c -3,-92 -3,-97 -14,-97 -5,0 -9,37 -7,89 1,60 5,86 12,80 6,-6 9,-38 9,-72 z m 71,74 c 3,-6 7,-46 10,-90 3,-63 1,-82 -11,-92 -23,-19 -34,5 -23,46 6,20 6,56 1,89 -7,44 -6,56 4,56 7,0 15,-4 19,-9 z m 83,-20 c 3,-20 2,-21 -20,-9 -13,7 -25,14 -28,16 -7,5 24,22 35,19 6,-2 11,-14 13,-26 z m 166,-54 c -3,-92 -3,-97 -14,-97 -5,0 -9,37 -7,89 1,60 5,86 12,80 6,-6 9,-38 9,-72 z m -749,53 c 0,-7 -6,-15 -12,-17 -8,-3 -13,4 -13,17 0,13 5,20 13,18 6,-3 12,-11 12,-18 z m 62,-10 c 6,-16 8,-30 4,-30 -15,0 -43,39 -36,49 11,18 20,12 32,-19 z m 258,10 c 0,-7 -6,-15 -12,-17 -8,-3 -13,4 -13,17 0,13 5,20 13,18 6,-3 12,-11 12,-18 z m 62,-10 c 6,-16 8,-30 4,-30 -15,0 -43,39 -36,49 11,18 20,12 32,-19 z m 258,10 c 0,-7 -6,-15 -12,-17 -8,-3 -13,4 -13,17 0,13 5,20 13,18 6,-3 12,-11 12,-18 z m 62,-10 c 6,-16 8,-30 4,-30 -15,0 -43,39 -36,49 11,18 20,12 32,-19 z M 145,482 c -6,-41 -8,-43 -23,-29 -14,15 -14,18 1,35 9,10 18,32 18,48 1,19 3,23 6,10 3,-10 2,-39 -2,-64 z m 320,0 c -6,-41 -8,-43 -23,-29 -14,15 -14,18 1,35 9,10 18,32 18,48 1,19 3,23 6,10 3,-10 2,-39 -2,-64 z m 320,0 c -6,-41 -8,-43 -23,-29 -14,15 -14,18 1,35 9,10 18,32 18,48 1,19 3,23 6,10 3,-10 2,-39 -2,-64 z M 210,449 c 0,-5 -6,-9 -14,-9 -7,0 -16,14 -19,33 -3,17 -8,41 -12,52 -4,11 5,0 19,-24 14,-23 26,-47 26,-52 z m 320,0 c 0,-5 -6,-9 -14,-9 -7,0 -16,14 -19,33 -3,17 -8,41 -12,52 -4,11 5,0 19,-24 14,-23 26,-47 26,-52 z m 320,0 c 0,-5 -6,-9 -14,-9 -7,0 -16,14 -19,33 -3,17 -8,41 -12,52 -4,11 5,0 19,-24 14,-23 26,-47 26,-52 z m -598,-1 c -9,-9 -12,-7 -12,12 0,19 3,21 12,12 9,-9 9,-15 0,-24 z m 320,0 c -9,-9 -12,-7 -12,12 0,19 3,21 12,12 9,-9 9,-15 0,-24 z m 320,0 c -9,-9 -12,-7 -12,12 0,19 3,21 12,12 9,-9 9,-15 0,-24 z M 60,379 c 0,-10 5,-19 12,-19 8,0 7,-6 -4,-16 -28,-28 -36,-11 -29,59 2,17 21,-5 21,-24 z m 320,0 c 0,-10 5,-19 12,-19 8,0 7,-6 -4,-16 -28,-28 -36,-11 -29,59 2,17 21,-5 21,-24 z m 320,0 c 0,-10 5,-19 12,-19 8,0 7,-6 -4,-16 -28,-28 -36,-11 -29,59 2,17 21,-5 21,-24 z M 130,341 c 0,-11 -3,-11 -15,-1 -8,7 -15,22 -15,33 0,20 0,20 15,1 8,-10 15,-25 15,-33 z m 59,36 c 6,-8 8,-17 4,-20 -7,-8 -33,11 -33,24 0,13 16,11 29,-4 z m 261,-36 c 0,-11 -3,-11 -15,-1 -8,7 -15,22 -15,33 0,20 0,20 15,1 8,-10 15,-25 15,-33 z m 59,36 c 6,-8 8,-17 4,-20 -7,-8 -33,11 -33,24 0,13 16,11 29,-4 z m 261,-36 c 0,-11 -3,-11 -15,-1 -8,7 -15,22 -15,33 0,20 0,20 15,1 8,-10 15,-25 15,-33 z m 59,36 c 6,-8 8,-17 4,-20 -7,-8 -33,11 -33,24 0,13 16,11 29,-4 z M 263,366 c 6,-15 -11,-36 -29,-36 -9,0 -9,6 -1,25 13,28 22,31 30,11 z m 33,-6 c 0,-11 -4,-20 -8,-20 -10,0 -11,24 -1,33 9,9 9,10 9,-13 z m 287,6 c 6,-15 -11,-36 -29,-36 -9,0 -9,6 -1,25 13,28 22,31 30,11 z m 33,-6 c 0,-11 -4,-20 -8,-20 -10,0 -11,24 -1,33 9,9 9,10 9,-13 z m 287,6 c 6,-15 -11,-36 -29,-36 -9,0 -9,6 -1,25 13,28 22,31 30,11 z m 33,-6 c 0,-11 -4,-20 -8,-20 -10,0 -11,24 -1,33 9,9 9,10 9,-13 z M 55,301 c 3,-6 7,-46 10,-90 3,-63 1,-82 -11,-92 -23,-19 -34,5 -23,46 6,20 6,56 1,89 -7,44 -6,56 4,56 7,0 15,-4 19,-9 z m 83,-20 c 3,-20 2,-21 -20,-9 -13,7 -25,14 -28,16 -7,5 24,22 35,19 6,-2 11,-14 13,-26 z m 166,-54 c -3,-92 -3,-97 -14,-97 -5,0 -9,37 -7,89 1,60 5,86 12,80 6,-6 9,-38 9,-72 z m 71,74 c 3,-6 7,-46 10,-90 3,-63 1,-82 -11,-92 -23,-19 -34,5 -23,46 6,20 6,56 1,89 -7,44 -6,56 4,56 7,0 15,-4 19,-9 z m 83,-20 c 3,-20 2,-21 -20,-9 -13,7 -25,14 -28,16 -7,5 24,22 35,19 6,-2 11,-14 13,-26 z m 166,-54 c -3,-92 -3,-97 -14,-97 -5,0 -9,37 -7,89 1,60 5,86 12,80 6,-6 9,-38 9,-72 z m 71,74 c 3,-6 7,-46 10,-90 3,-63 1,-82 -11,-92 -23,-19 -34,5 -23,46 6,20 6,56 1,89 -7,44 -6,56 4,56 7,0 15,-4 19,-9 z m 83,-20 c 3,-20 2,-21 -20,-9 -13,7 -25,14 -28,16 -7,5 24,22 35,19 6,-2 11,-14 13,-26 z m 166,-54 c -3,-92 -3,-97 -14,-97 -5,0 -9,37 -7,89 1,60 5,86 12,80 6,-6 9,-38 9,-72 z m -749,53 c 0,-7 -6,-15 -12,-17 -8,-3 -13,4 -13,17 0,13 5,20 13,18 6,-3 12,-11 12,-18 z m 62,-10 c 6,-16 8,-30 4,-30 -15,0 -43,39 -36,49 11,18 20,12 32,-19 z m 258,10 c 0,-7 -6,-15 -12,-17 -8,-3 -13,4 -13,17 0,13 5,20 13,18 6,-3 12,-11 12,-18 z m 62,-10 c 6,-16 8,-30 4,-30 -15,0 -43,39 -36,49 11,18 20,12 32,-19 z m 258,10 c 0,-7 -6,-15 -12,-17 -8,-3 -13,4 -13,17 0,13 5,20 13,18 6,-3 12,-11 12,-18 z m 62,-10 c 6,-16 8,-30 4,-30 -15,0 -43,39 -36,49 11,18 20,12 32,-19 z M 145,162 c -6,-41 -8,-43 -23,-29 -14,15 -14,18 1,35 9,10 18,32 18,48 1,19 3,23 6,10 3,-10 2,-39 -2,-64 z m 320,0 c -6,-41 -8,-43 -23,-29 -14,15 -14,18 1,35 9,10 18,32 18,48 1,19 3,23 6,10 3,-10 2,-39 -2,-64 z m 320,0 c -6,-41 -8,-43 -23,-29 -14,15 -14,18 1,35 9,10 18,32 18,48 1,19 3,23 6,10 3,-10 2,-39 -2,-64 z M 210,129 c 0,-5 -6,-9 -14,-9 -7,0 -16,14 -19,33 -3,17 -8,41 -12,52 -4,11 5,0 19,-24 14,-23 26,-47 26,-52 z m 320,0 c 0,-5 -6,-9 -14,-9 -7,0 -16,14 -19,33 -3,17 -8,41 -12,52 -4,11 5,0 19,-24 14,-23 26,-47 26,-52 z m 320,0 c 0,-5 -6,-9 -14,-9 -7,0 -16,14 -19,33 -3,17 -8,41 -12,52 -4,11 5,0 19,-24 14,-23 26,-47 26,-52 z m -598,-1 c -9,-9 -12,-7 -12,12 0,19 3,21 12,12 9,-9 9,-15 0,-24 z m 320,0 c -9,-9 -12,-7 -12,12 0,19 3,21 12,12 9,-9 9,-15 0,-24 z m 320,0 c -9,-9 -12,-7 -12,12 0,19 3,21 12,12 9,-9 9,-15 0,-24 z M 60,59 C 60,49 65,40 72,40 80,40 79,34 68,24 40,-4 32,13 39,83 41,100 60,78 60,59 Z m 320,0 c 0,-10 5,-19 12,-19 8,0 7,-6 -4,-16 -28,-28 -36,-11 -29,59 2,17 21,-5 21,-24 z m 320,0 c 0,-10 5,-19 12,-19 8,0 7,-6 -4,-16 -28,-28 -36,-11 -29,59 2,17 21,-5 21,-24 z M 130,21 c 0,-11 -3,-11 -15,-1 -8,7 -15,22 -15,33 0,20 0,20 15,1 8,-10 15,-25 15,-33 z m 59,36 c 6,-8 8,-17 4,-20 -7,-8 -33,11 -33,24 0,13 16,11 29,-4 z M 450,21 c 0,-11 -3,-11 -15,-1 -8,7 -15,22 -15,33 0,20 0,20 15,1 8,-10 15,-25 15,-33 z m 59,36 c 6,-8 8,-17 4,-20 -7,-8 -33,11 -33,24 0,13 16,11 29,-4 z M 770,21 c 0,-11 -3,-11 -15,-1 -8,7 -15,22 -15,33 0,20 0,20 15,1 8,-10 15,-25 15,-33 z m 59,36 c 6,-8 8,-17 4,-20 -7,-8 -33,11 -33,24 0,13 16,11 29,-4 z M 263,46 c 6,-15 -11,-36 -29,-36 -9,0 -9,6 -1,25 13,28 22,31 30,11 z m 33,-6 c 0,-11 -4,-20 -8,-20 -10,0 -11,24 -1,33 9,9 9,10 9,-13 z m 287,6 c 6,-15 -11,-36 -29,-36 -9,0 -9,6 -1,25 13,28 22,31 30,11 z m 33,-6 c 0,-11 -4,-20 -8,-20 -10,0 -11,24 -1,33 9,9 9,10 9,-13 z m 287,6 c 6,-15 -11,-36 -29,-36 -9,0 -9,6 -1,25 13,28 22,31 30,11 z m 33,-6 c 0,-11 -4,-20 -8,-20 -10,0 -11,24 -1,33 9,9 9,10 9,-13 z" />
      </g>
      <g
         style="fill:#d07c14;stroke:none"
         id="g6378"
         transform="matrix(0.05,0,0,-0.05,16,80)">
        <path
           inkscape:connector-curvature="0"
           id="path6358"
           d="M 0,480 V 0 H 480 960 V 480 960 H 480 0 Z m 55,461 c 3,-6 7,-46 10,-90 3,-63 1,-82 -11,-92 -23,-19 -34,5 -23,46 6,20 6,56 1,89 -7,44 -6,56 4,56 7,0 15,-4 19,-9 z m 83,-20 c 3,-20 2,-21 -20,-9 -13,7 -25,14 -28,16 -7,5 24,22 35,19 6,-2 11,-14 13,-26 z m 166,-54 c -3,-93 -3,-97 -14,-97 -5,0 -10,9 -10,20 0,13 -5,18 -14,14 -8,-3 -12,-12 -10,-19 3,-7 1,-16 -5,-20 -7,-3 -11,2 -11,14 0,12 -6,21 -14,21 -8,0 -17,7 -20,16 -8,22 -8,84 1,84 4,0 22,-14 40,-32 28,-27 33,-29 39,-14 4,9 4,35 1,58 -4,31 -3,38 6,29 7,-7 11,-38 11,-74 z m 71,74 c 3,-6 7,-46 10,-90 3,-63 1,-82 -11,-92 -23,-19 -34,5 -23,46 6,20 6,56 1,89 -7,44 -6,56 4,56 7,0 15,-4 19,-9 z m 83,-20 c 3,-20 2,-21 -20,-9 -13,7 -25,14 -28,16 -7,5 24,22 35,19 6,-2 11,-14 13,-26 z m 166,-54 c -3,-93 -3,-97 -14,-97 -5,0 -10,9 -10,20 0,13 -5,18 -14,14 -8,-3 -12,-12 -10,-19 3,-7 1,-16 -5,-20 -7,-3 -11,2 -11,14 0,12 -6,21 -14,21 -8,0 -17,7 -20,16 -8,22 -8,84 1,84 4,0 22,-14 40,-32 28,-27 33,-29 39,-14 4,9 4,35 1,58 -4,31 -3,38 6,29 7,-7 11,-38 11,-74 z m 71,74 c 3,-6 7,-46 10,-90 3,-63 1,-82 -11,-92 -23,-19 -34,5 -23,46 6,20 6,56 1,89 -7,44 -6,56 4,56 7,0 15,-4 19,-9 z m 83,-20 c 3,-20 2,-21 -20,-9 -13,7 -25,14 -28,16 -7,5 24,22 35,19 6,-2 11,-14 13,-26 z m 166,-54 c -3,-93 -3,-97 -14,-97 -5,0 -10,9 -10,20 0,13 -5,18 -14,14 -8,-3 -12,-12 -10,-19 3,-7 1,-16 -5,-20 -7,-3 -11,2 -11,14 0,12 -6,21 -14,21 -8,0 -17,7 -20,16 -8,22 -8,84 1,84 4,0 22,-14 40,-32 28,-27 33,-29 39,-14 4,9 4,35 1,58 -4,31 -3,38 6,29 7,-7 11,-38 11,-74 z m -749,53 c 0,-7 -6,-15 -12,-17 -8,-3 -13,4 -13,17 0,13 5,20 13,18 6,-3 12,-11 12,-18 z m 62,-10 c 6,-16 8,-30 4,-30 -15,0 -43,39 -36,49 11,18 20,12 32,-19 z m 258,10 c 0,-7 -6,-15 -12,-17 -8,-3 -13,4 -13,17 0,13 5,20 13,18 6,-3 12,-11 12,-18 z m 62,-10 c 6,-16 8,-30 4,-30 -15,0 -43,39 -36,49 11,18 20,12 32,-19 z m 258,10 c 0,-7 -6,-15 -12,-17 -8,-3 -13,4 -13,17 0,13 5,20 13,18 6,-3 12,-11 12,-18 z m 62,-10 c 6,-16 8,-30 4,-30 -15,0 -43,39 -36,49 11,18 20,12 32,-19 z M 133,886 c 18,-14 21,-42 11,-95 l -7,-32 -28,28 c -28,27 -36,63 -23,97 7,19 23,20 47,2 z m 320,0 c 18,-14 21,-42 11,-95 l -7,-32 -28,28 c -28,27 -36,63 -23,97 7,19 23,20 47,2 z m 320,0 c 18,-14 21,-42 11,-95 l -7,-32 -28,28 c -28,27 -36,63 -23,97 7,19 23,20 47,2 z M 210,769 c 0,-5 -6,-9 -14,-9 -7,0 -16,14 -19,33 -3,17 -8,41 -12,52 -4,11 5,0 19,-24 14,-23 26,-47 26,-52 z m 320,0 c 0,-5 -6,-9 -14,-9 -7,0 -16,14 -19,33 -3,17 -8,41 -12,52 -4,11 5,0 19,-24 14,-23 26,-47 26,-52 z m 320,0 c 0,-5 -6,-9 -14,-9 -7,0 -16,14 -19,33 -3,17 -8,41 -12,52 -4,11 5,0 19,-24 14,-23 26,-47 26,-52 z M 105,750 c 5,8 11,8 21,-1 11,-9 18,-9 26,-1 8,8 16,7 29,-1 14,-9 21,-9 31,1 8,8 15,9 25,1 9,-8 17,-8 27,0 20,17 37,-9 34,-53 -3,-34 -18,-53 -18,-21 0,8 -5,15 -12,15 -6,0 -8,-3 -5,-7 10,-9 -13,-33 -30,-33 -12,0 -13,3 -4,14 9,11 8,15 -5,20 -9,3 -22,2 -29,-4 -9,-7 -16,-6 -25,5 -15,18 -40,3 -40,-22 0,-13 -3,-13 -15,-3 -8,7 -15,19 -15,26 0,7 -6,11 -14,8 -9,-3 -15,4 -19,23 -6,34 1,47 18,33 10,-8 15,-8 20,0 z m 320,0 c 5,8 11,8 21,-1 11,-9 18,-9 26,-1 8,8 16,7 29,-1 14,-9 21,-9 31,1 8,8 15,9 25,1 9,-8 17,-8 27,0 20,17 37,-9 34,-53 -3,-34 -18,-53 -18,-21 0,8 -5,15 -12,15 -6,0 -8,-3 -5,-7 10,-9 -13,-33 -30,-33 -12,0 -13,3 -4,14 9,11 8,15 -5,20 -9,3 -22,2 -29,-4 -9,-7 -16,-6 -25,5 -15,18 -40,3 -40,-22 0,-13 -3,-13 -15,-3 -8,7 -15,19 -15,26 0,7 -6,11 -14,8 -9,-3 -15,4 -19,23 -6,34 1,47 18,33 10,-8 15,-8 20,0 z m 320,0 c 5,8 11,8 21,-1 11,-9 18,-9 26,-1 8,8 16,7 29,-1 14,-9 21,-9 31,1 8,8 15,9 25,1 9,-8 17,-8 27,0 20,17 37,-9 34,-53 -3,-34 -18,-53 -18,-21 0,8 -5,15 -12,15 -6,0 -8,-3 -5,-7 10,-9 -13,-33 -30,-33 -12,0 -13,3 -4,14 9,11 8,15 -5,20 -9,3 -22,2 -29,-4 -9,-7 -16,-6 -25,5 -15,18 -40,3 -40,-22 0,-13 -3,-13 -15,-3 -8,7 -15,19 -15,26 0,7 -6,11 -14,8 -9,-3 -15,4 -19,23 -6,34 1,47 18,33 10,-8 15,-8 20,0 z M 60,699 c 0,-10 5,-19 12,-19 8,0 7,-6 -4,-16 -28,-28 -36,-11 -29,59 2,17 21,-5 21,-24 z m 320,0 c 0,-10 5,-19 12,-19 8,0 7,-6 -4,-16 -28,-28 -36,-11 -29,59 2,17 21,-5 21,-24 z m 320,0 c 0,-10 5,-19 12,-19 8,0 7,-6 -4,-16 -28,-28 -36,-11 -29,59 2,17 21,-5 21,-24 z M 55,621 c 3,-6 7,-46 10,-90 3,-63 1,-82 -11,-92 -23,-19 -34,5 -23,46 6,20 6,56 1,89 -7,44 -6,56 4,56 7,0 15,-4 19,-9 z m 83,-20 c 3,-20 2,-21 -20,-9 -13,7 -25,14 -28,16 -7,5 24,22 35,19 6,-2 11,-14 13,-26 z m 166,-54 c -3,-93 -3,-97 -14,-97 -5,0 -10,9 -10,20 0,13 -5,18 -14,14 -8,-3 -12,-12 -10,-19 3,-7 1,-16 -5,-20 -7,-3 -11,2 -11,14 0,12 -6,21 -14,21 -8,0 -17,7 -20,16 -8,22 -8,84 1,84 4,0 22,-14 40,-32 28,-27 33,-29 39,-14 4,9 4,35 1,58 -4,31 -3,38 6,29 7,-7 11,-38 11,-74 z m 71,74 c 3,-6 7,-46 10,-90 3,-63 1,-82 -11,-92 -23,-19 -34,5 -23,46 6,20 6,56 1,89 -7,44 -6,56 4,56 7,0 15,-4 19,-9 z m 83,-20 c 3,-20 2,-21 -20,-9 -13,7 -25,14 -28,16 -7,5 24,22 35,19 6,-2 11,-14 13,-26 z m 166,-54 c -3,-93 -3,-97 -14,-97 -5,0 -10,9 -10,20 0,13 -5,18 -14,14 -8,-3 -12,-12 -10,-19 3,-7 1,-16 -5,-20 -7,-3 -11,2 -11,14 0,12 -6,21 -14,21 -8,0 -17,7 -20,16 -8,22 -8,84 1,84 4,0 22,-14 40,-32 28,-27 33,-29 39,-14 4,9 4,35 1,58 -4,31 -3,38 6,29 7,-7 11,-38 11,-74 z m 71,74 c 3,-6 7,-46 10,-90 3,-63 1,-82 -11,-92 -23,-19 -34,5 -23,46 6,20 6,56 1,89 -7,44 -6,56 4,56 7,0 15,-4 19,-9 z m 83,-20 c 3,-20 2,-21 -20,-9 -13,7 -25,14 -28,16 -7,5 24,22 35,19 6,-2 11,-14 13,-26 z m 166,-54 c -3,-93 -3,-97 -14,-97 -5,0 -10,9 -10,20 0,13 -5,18 -14,14 -8,-3 -12,-12 -10,-19 3,-7 1,-16 -5,-20 -7,-3 -11,2 -11,14 0,12 -6,21 -14,21 -8,0 -17,7 -20,16 -8,22 -8,84 1,84 4,0 22,-14 40,-32 28,-27 33,-29 39,-14 4,9 4,35 1,58 -4,31 -3,38 6,29 7,-7 11,-38 11,-74 z m -749,53 c 0,-7 -6,-15 -12,-17 -8,-3 -13,4 -13,17 0,13 5,20 13,18 6,-3 12,-11 12,-18 z m 62,-10 c 6,-16 8,-30 4,-30 -15,0 -43,39 -36,49 11,18 20,12 32,-19 z m 258,10 c 0,-7 -6,-15 -12,-17 -8,-3 -13,4 -13,17 0,13 5,20 13,18 6,-3 12,-11 12,-18 z m 62,-10 c 6,-16 8,-30 4,-30 -15,0 -43,39 -36,49 11,18 20,12 32,-19 z m 258,10 c 0,-7 -6,-15 -12,-17 -8,-3 -13,4 -13,17 0,13 5,20 13,18 6,-3 12,-11 12,-18 z m 62,-10 c 6,-16 8,-30 4,-30 -15,0 -43,39 -36,49 11,18 20,12 32,-19 z M 133,566 c 18,-14 21,-42 11,-95 l -7,-32 -28,28 c -28,27 -36,63 -23,97 7,19 23,20 47,2 z m 320,0 c 18,-14 21,-42 11,-95 l -7,-32 -28,28 c -28,27 -36,63 -23,97 7,19 23,20 47,2 z m 320,0 c 18,-14 21,-42 11,-95 l -7,-32 -28,28 c -28,27 -36,63 -23,97 7,19 23,20 47,2 z M 210,449 c 0,-5 -6,-9 -14,-9 -7,0 -16,14 -19,33 -3,17 -8,41 -12,52 -4,11 5,0 19,-24 14,-23 26,-47 26,-52 z m 320,0 c 0,-5 -6,-9 -14,-9 -7,0 -16,14 -19,33 -3,17 -8,41 -12,52 -4,11 5,0 19,-24 14,-23 26,-47 26,-52 z m 320,0 c 0,-5 -6,-9 -14,-9 -7,0 -16,14 -19,33 -3,17 -8,41 -12,52 -4,11 5,0 19,-24 14,-23 26,-47 26,-52 z M 105,430 c 5,8 11,8 21,-1 11,-9 18,-9 26,-1 8,8 16,7 29,-1 14,-9 21,-9 31,1 8,8 15,9 25,1 9,-8 17,-8 27,0 20,17 37,-9 34,-53 -3,-34 -18,-53 -18,-21 0,8 -5,15 -12,15 -6,0 -8,-3 -5,-7 10,-9 -13,-33 -30,-33 -12,0 -13,3 -4,14 9,11 8,15 -5,20 -9,3 -22,2 -29,-4 -9,-7 -16,-6 -25,5 -15,18 -40,3 -40,-22 0,-13 -3,-13 -15,-3 -8,7 -15,19 -15,26 0,7 -6,11 -14,8 -9,-3 -15,4 -19,23 -6,34 1,47 18,33 10,-8 15,-8 20,0 z m 320,0 c 5,8 11,8 21,-1 11,-9 18,-9 26,-1 8,8 16,7 29,-1 14,-9 21,-9 31,1 8,8 15,9 25,1 9,-8 17,-8 27,0 20,17 37,-9 34,-53 -3,-34 -18,-53 -18,-21 0,8 -5,15 -12,15 -6,0 -8,-3 -5,-7 10,-9 -13,-33 -30,-33 -12,0 -13,3 -4,14 9,11 8,15 -5,20 -9,3 -22,2 -29,-4 -9,-7 -16,-6 -25,5 -15,18 -40,3 -40,-22 0,-13 -3,-13 -15,-3 -8,7 -15,19 -15,26 0,7 -6,11 -14,8 -9,-3 -15,4 -19,23 -6,34 1,47 18,33 10,-8 15,-8 20,0 z m 320,0 c 5,8 11,8 21,-1 11,-9 18,-9 26,-1 8,8 16,7 29,-1 14,-9 21,-9 31,1 8,8 15,9 25,1 9,-8 17,-8 27,0 20,17 37,-9 34,-53 -3,-34 -18,-53 -18,-21 0,8 -5,15 -12,15 -6,0 -8,-3 -5,-7 10,-9 -13,-33 -30,-33 -12,0 -13,3 -4,14 9,11 8,15 -5,20 -9,3 -22,2 -29,-4 -9,-7 -16,-6 -25,5 -15,18 -40,3 -40,-22 0,-13 -3,-13 -15,-3 -8,7 -15,19 -15,26 0,7 -6,11 -14,8 -9,-3 -15,4 -19,23 -6,34 1,47 18,33 10,-8 15,-8 20,0 z M 60,379 c 0,-10 5,-19 12,-19 8,0 7,-6 -4,-16 -28,-28 -36,-11 -29,59 2,17 21,-5 21,-24 z m 320,0 c 0,-10 5,-19 12,-19 8,0 7,-6 -4,-16 -28,-28 -36,-11 -29,59 2,17 21,-5 21,-24 z m 320,0 c 0,-10 5,-19 12,-19 8,0 7,-6 -4,-16 -28,-28 -36,-11 -29,59 2,17 21,-5 21,-24 z M 55,301 c 3,-6 7,-46 10,-90 3,-63 1,-82 -11,-92 -23,-19 -34,5 -23,46 6,20 6,56 1,89 -7,44 -6,56 4,56 7,0 15,-4 19,-9 z m 83,-20 c 3,-20 2,-21 -20,-9 -13,7 -25,14 -28,16 -7,5 24,22 35,19 6,-2 11,-14 13,-26 z m 166,-54 c -3,-93 -3,-97 -14,-97 -5,0 -10,9 -10,20 0,13 -5,18 -14,14 -8,-3 -12,-12 -10,-19 3,-7 1,-16 -5,-20 -7,-3 -11,2 -11,14 0,12 -6,21 -14,21 -8,0 -17,7 -20,16 -8,22 -8,84 1,84 4,0 22,-14 40,-32 28,-27 33,-29 39,-14 4,9 4,35 1,58 -4,31 -3,38 6,29 7,-7 11,-38 11,-74 z m 71,74 c 3,-6 7,-46 10,-90 3,-63 1,-82 -11,-92 -23,-19 -34,5 -23,46 6,20 6,56 1,89 -7,44 -6,56 4,56 7,0 15,-4 19,-9 z m 83,-20 c 3,-20 2,-21 -20,-9 -13,7 -25,14 -28,16 -7,5 24,22 35,19 6,-2 11,-14 13,-26 z m 166,-54 c -3,-93 -3,-97 -14,-97 -5,0 -10,9 -10,20 0,13 -5,18 -14,14 -8,-3 -12,-12 -10,-19 3,-7 1,-16 -5,-20 -7,-3 -11,2 -11,14 0,12 -6,21 -14,21 -8,0 -17,7 -20,16 -8,22 -8,84 1,84 4,0 22,-14 40,-32 28,-27 33,-29 39,-14 4,9 4,35 1,58 -4,31 -3,38 6,29 7,-7 11,-38 11,-74 z m 71,74 c 3,-6 7,-46 10,-90 3,-63 1,-82 -11,-92 -23,-19 -34,5 -23,46 6,20 6,56 1,89 -7,44 -6,56 4,56 7,0 15,-4 19,-9 z m 83,-20 c 3,-20 2,-21 -20,-9 -13,7 -25,14 -28,16 -7,5 24,22 35,19 6,-2 11,-14 13,-26 z m 166,-54 c -3,-93 -3,-97 -14,-97 -5,0 -10,9 -10,20 0,13 -5,18 -14,14 -8,-3 -12,-12 -10,-19 3,-7 1,-16 -5,-20 -7,-3 -11,2 -11,14 0,12 -6,21 -14,21 -8,0 -17,7 -20,16 -8,22 -8,84 1,84 4,0 22,-14 40,-32 28,-27 33,-29 39,-14 4,9 4,35 1,58 -4,31 -3,38 6,29 7,-7 11,-38 11,-74 z m -749,53 c 0,-7 -6,-15 -12,-17 -8,-3 -13,4 -13,17 0,13 5,20 13,18 6,-3 12,-11 12,-18 z m 62,-10 c 6,-16 8,-30 4,-30 -15,0 -43,39 -36,49 11,18 20,12 32,-19 z m 258,10 c 0,-7 -6,-15 -12,-17 -8,-3 -13,4 -13,17 0,13 5,20 13,18 6,-3 12,-11 12,-18 z m 62,-10 c 6,-16 8,-30 4,-30 -15,0 -43,39 -36,49 11,18 20,12 32,-19 z m 258,10 c 0,-7 -6,-15 -12,-17 -8,-3 -13,4 -13,17 0,13 5,20 13,18 6,-3 12,-11 12,-18 z m 62,-10 c 6,-16 8,-30 4,-30 -15,0 -43,39 -36,49 11,18 20,12 32,-19 z M 133,246 c 18,-14 21,-42 11,-95 l -7,-32 -28,28 c -28,27 -36,63 -23,97 7,19 23,20 47,2 z m 320,0 c 18,-14 21,-42 11,-95 l -7,-32 -28,28 c -28,27 -36,63 -23,97 7,19 23,20 47,2 z m 320,0 c 18,-14 21,-42 11,-95 l -7,-32 -28,28 c -28,27 -36,63 -23,97 7,19 23,20 47,2 z M 210,129 c 0,-5 -6,-9 -14,-9 -7,0 -16,14 -19,33 -3,17 -8,41 -12,52 -4,11 5,0 19,-24 14,-23 26,-47 26,-52 z m 320,0 c 0,-5 -6,-9 -14,-9 -7,0 -16,14 -19,33 -3,17 -8,41 -12,52 -4,11 5,0 19,-24 14,-23 26,-47 26,-52 z m 320,0 c 0,-5 -6,-9 -14,-9 -7,0 -16,14 -19,33 -3,17 -8,41 -12,52 -4,11 5,0 19,-24 14,-23 26,-47 26,-52 z M 105,110 c 5,8 11,8 21,-1 11,-9 18,-9 26,-1 8,8 16,7 29,-1 14,-9 21,-9 31,1 8,8 15,9 25,1 9,-8 17,-8 27,0 20,17 37,-9 34,-53 -3,-34 -18,-53 -18,-21 0,8 -5,15 -12,15 -6,0 -8,-3 -5,-7 10,-9 -13,-33 -30,-33 -12,0 -13,3 -4,14 9,11 8,15 -5,20 -9,3 -22,2 -29,-4 -9,-7 -16,-6 -25,5 -15,18 -40,3 -40,-22 0,-13 -3,-13 -15,-3 -8,7 -15,19 -15,26 0,7 -6,11 -14,8 -9,-3 -15,4 -19,23 -6,34 1,47 18,33 10,-8 15,-8 20,0 z m 320,0 c 5,8 11,8 21,-1 11,-9 18,-9 26,-1 8,8 16,7 29,-1 14,-9 21,-9 31,1 8,8 15,9 25,1 9,-8 17,-8 27,0 20,17 37,-9 34,-53 -3,-34 -18,-53 -18,-21 0,8 -5,15 -12,15 -6,0 -8,-3 -5,-7 10,-9 -13,-33 -30,-33 -12,0 -13,3 -4,14 9,11 8,15 -5,20 -9,3 -22,2 -29,-4 -9,-7 -16,-6 -25,5 -15,18 -40,3 -40,-22 0,-13 -3,-13 -15,-3 -8,7 -15,19 -15,26 0,7 -6,11 -14,8 -9,-3 -15,4 -19,23 -6,34 1,47 18,33 10,-8 15,-8 20,0 z m 320,0 c 5,8 11,8 21,-1 11,-9 18,-9 26,-1 8,8 16,7 29,-1 14,-9 21,-9 31,1 8,8 15,9 25,1 9,-8 17,-8 27,0 20,17 37,-9 34,-53 -3,-34 -18,-53 -18,-21 0,8 -5,15 -12,15 -6,0 -8,-3 -5,-7 10,-9 -13,-33 -30,-33 -12,0 -13,3 -4,14 9,11 8,15 -5,20 -9,3 -22,2 -29,-4 -9,-7 -16,-6 -25,5 -15,18 -40,3 -40,-22 0,-13 -3,-13 -15,-3 -8,7 -15,19 -15,26 0,7 -6,11 -14,8 -9,-3 -15,4 -19,23 -6,34 1,47 18,33 10,-8 15,-8 20,0 z M 60,59 C 60,49 65,40 72,40 80,40 79,34 68,24 40,-4 32,13 39,83 41,100 60,78 60,59 Z m 320,0 c 0,-10 5,-19 12,-19 8,0 7,-6 -4,-16 -28,-28 -36,-11 -29,59 2,17 21,-5 21,-24 z m 320,0 c 0,-10 5,-19 12,-19 8,0 7,-6 -4,-16 -28,-28 -36,-11 -29,59 2,17 21,-5 21,-24 z" />
        <path
           inkscape:connector-curvature="0"
           id="path6360"
           d="m 240,705 c 0,-3 2,-5 5,-5 3,0 5,2 5,5 0,3 -2,5 -5,5 -3,0 -5,-2 -5,-5 z" />
        <path
           inkscape:connector-curvature="0"
           id="path6362"
           d="m 560,705 c 0,-3 2,-5 5,-5 3,0 5,2 5,5 0,3 -2,5 -5,5 -3,0 -5,-2 -5,-5 z" />
        <path
           inkscape:connector-curvature="0"
           id="path6364"
           d="m 880,705 c 0,-3 2,-5 5,-5 3,0 5,2 5,5 0,3 -2,5 -5,5 -3,0 -5,-2 -5,-5 z" />
        <path
           inkscape:connector-curvature="0"
           id="path6366"
           d="m 240,385 c 0,-3 2,-5 5,-5 3,0 5,2 5,5 0,3 -2,5 -5,5 -3,0 -5,-2 -5,-5 z" />
        <path
           inkscape:connector-curvature="0"
           id="path6368"
           d="m 560,385 c 0,-3 2,-5 5,-5 3,0 5,2 5,5 0,3 -2,5 -5,5 -3,0 -5,-2 -5,-5 z" />
        <path
           inkscape:connector-curvature="0"
           id="path6370"
           d="m 880,385 c 0,-3 2,-5 5,-5 3,0 5,2 5,5 0,3 -2,5 -5,5 -3,0 -5,-2 -5,-5 z" />
        <path
           inkscape:connector-curvature="0"
           id="path6372"
           d="m 240,65 c 0,-3 2,-5 5,-5 3,0 5,2 5,5 0,3 -2,5 -5,5 -3,0 -5,-2 -5,-5 z" />
        <path
           inkscape:connector-curvature="0"
           id="path6374"
           d="m 560,65 c 0,-3 2,-5 5,-5 3,0 5,2 5,5 0,3 -2,5 -5,5 -3,0 -5,-2 -5,-5 z" />
        <path
           inkscape:connector-curvature="0"
           id="path6376"
           d="m 880,65 c 0,-3 2,-5 5,-5 3,0 5,2 5,5 0,3 -2,5 -5,5 -3,0 -5,-2 -5,-5 z" />
      </g>
      <g
         style="fill:#a05a0b;stroke:none"
         id="g6430"
         transform="matrix(0.05,0,0,-0.05,16,80)">
        <path
           inkscape:connector-curvature="0"
           id="path6380"
           d="M 0,480 C 0,216 4,0 8,0 c 10,0 13,15 16,90 2,30 6,75 10,100 6,33 5,41 -3,30 -8,-11 -11,-2 -10,40 0,122 4,194 13,250 6,33 5,41 -3,30 -8,-11 -11,-2 -10,40 0,122 4,194 13,250 6,35 5,42 -4,30 -9,-12 -11,-6 -7,29 6,46 1,71 -14,71 C 4,960 0,755 0,480 Z m 17,213 c -3,-10 -5,-2 -5,17 0,19 2,27 5,18 2,-10 2,-26 0,-35 z m 0,-320 c -3,-10 -5,-2 -5,17 0,19 2,27 5,18 2,-10 2,-26 0,-35 z M 17,53 c -3,-10 -5,-2 -5,17 0,19 2,27 5,18 2,-10 2,-26 0,-35 z" />
        <path
           inkscape:connector-curvature="0"
           id="path6382"
           d="m 66,895 c -5,-51 -3,-71 9,-88 16,-24 20,-41 6,-33 -4,3 -16,-3 -26,-14 -14,-16 -16,-23 -7,-32 7,-7 12,-20 12,-30 0,-10 4,-18 9,-18 6,0 6,12 1,31 -11,37 -4,55 15,39 10,-8 15,-8 20,0 5,8 11,8 21,-1 11,-9 18,-9 26,-1 8,8 16,7 28,-1 14,-8 22,-8 32,1 11,9 17,9 26,0 8,-8 15,-8 25,1 30,25 41,-14 43,-162 2,-77 0,-145 -3,-150 -3,-5 -14,4 -24,20 -18,26 -19,27 -19,6 0,-29 -18,-30 -29,-1 l -8,22 -5,-22 c -9,-34 -35,-27 -41,11 -3,17 -8,41 -12,52 -4,11 2,5 14,-12 11,-18 22,-33 24,-33 2,0 2,22 -1,50 -2,28 -1,50 4,50 4,0 23,-14 41,-32 29,-28 33,-29 39,-13 4,10 2,31 -3,46 -6,16 -9,48 -7,71 4,40 3,41 -6,13 -6,-16 -7,-50 -4,-75 l 6,-45 -31,30 c -20,18 -30,36 -27,47 2,10 0,21 -5,24 -6,3 -5,12 3,22 12,15 11,15 -4,4 -12,-10 -15,-23 -11,-46 6,-36 -13,-59 -28,-35 -12,19 -11,72 1,64 6,-3 10,1 10,9 0,8 -4,18 -10,21 -5,3 -10,0 -10,-7 0,-9 -3,-9 -10,2 -6,10 -8,1 -5,-30 4,-47 -7,-82 -19,-61 -4,6 -16,11 -27,11 -20,0 -26,24 -9,35 6,3 9,21 9,38 -2,27 -2,28 -6,7 -3,-14 -8,-29 -13,-35 -4,-5 -10,-38 -14,-73 -6,-48 -4,-67 8,-84 17,-24 21,-42 7,-34 -4,3 -16,-3 -26,-14 -14,-16 -16,-23 -7,-32 7,-7 12,-20 12,-30 0,-10 4,-18 9,-18 6,0 6,12 1,31 -11,37 -4,55 15,39 10,-8 15,-8 20,0 5,8 11,8 21,-1 10,-8 18,-8 27,0 10,8 17,7 25,-1 10,-10 17,-10 31,-1 13,8 21,9 29,1 8,-8 15,-8 25,1 30,25 41,-14 43,-162 2,-77 0,-145 -3,-150 -3,-5 -14,4 -24,20 -18,26 -19,27 -19,6 0,-29 -18,-30 -29,-1 l -8,22 -5,-22 c -9,-34 -35,-27 -41,11 -3,17 -8,41 -12,52 -4,11 2,5 14,-12 11,-18 22,-33 24,-33 2,0 2,23 -1,50 -2,28 -1,50 4,50 4,0 23,-14 41,-32 29,-28 33,-29 39,-13 4,10 2,31 -3,46 -6,16 -9,48 -7,71 4,40 3,41 -6,13 -6,-16 -7,-50 -4,-75 l 6,-45 -31,30 c -20,18 -30,36 -27,47 2,10 0,21 -5,24 -6,3 -5,12 3,22 12,15 11,15 -4,4 -12,-10 -15,-23 -11,-46 6,-36 -13,-59 -28,-35 -12,19 -11,72 1,64 6,-3 10,1 10,9 0,8 -4,18 -10,21 -5,3 -10,0 -10,-7 0,-9 -3,-9 -10,2 -6,10 -8,1 -5,-30 4,-47 -7,-82 -19,-61 -4,6 -16,11 -27,11 -20,0 -26,24 -9,35 6,3 9,21 9,38 -2,27 -2,28 -6,7 -3,-14 -8,-29 -13,-35 -4,-5 -10,-38 -14,-73 -6,-48 -4,-67 8,-84 17,-24 21,-42 7,-34 -4,3 -16,-3 -26,-14 C 41,104 39,97 48,88 55,81 60,68 60,58 c 0,-10 4,-18 9,-18 6,0 6,12 1,31 -11,37 -4,55 15,39 10,-8 15,-8 20,0 5,8 11,8 21,-1 11,-9 18,-9 26,-1 8,8 16,7 28,-1 14,-8 22,-8 32,1 11,9 17,9 26,0 8,-8 15,-8 25,1 20,16 33,-3 41,-61 4,-29 12,-48 20,-48 7,0 13,6 14,13 1,6 4,30 6,52 5,40 5,40 -3,5 -7,-28 -9,-30 -10,-10 0,14 6,50 14,80 18,66 20,103 5,80 -7,-11 -10,1 -9,40 0,30 0,62 -1,70 0,8 2,33 4,55 5,40 5,40 -3,5 -7,-28 -9,-30 -10,-10 0,14 6,50 14,80 18,66 20,103 5,80 -7,-11 -10,1 -9,40 0,30 0,62 -1,70 0,8 2,33 4,55 5,40 5,40 -3,5 -7,-28 -9,-30 -10,-10 0,14 6,50 14,80 18,68 20,102 4,80 -8,-11 -9,-4 -6,29 6,52 1,71 -22,71 -14,0 -16,-13 -15,-97 1,-54 -1,-102 -3,-106 -3,-5 -14,4 -24,20 -18,26 -19,27 -19,6 0,-29 -18,-30 -29,-1 l -8,22 -5,-22 c -9,-34 -35,-27 -41,11 -3,17 -8,41 -12,52 -4,11 2,5 14,-12 11,-18 22,-33 24,-33 2,0 2,23 -1,50 -2,28 -1,50 4,50 4,0 23,-14 41,-32 29,-28 33,-29 39,-13 4,9 2,33 -5,51 -7,19 -9,38 -6,44 3,5 1,10 -5,10 -8,0 -9,-15 -4,-47 l 6,-48 -31,30 c -20,18 -30,36 -27,47 2,10 0,18 -4,18 -5,0 -10,-12 -12,-27 -4,-38 -27,-41 -34,-4 -4,17 -11,31 -16,31 -5,0 -6,-5 -3,-10 3,-6 3,-20 0,-31 -5,-15 -10,-18 -18,-10 -6,6 -20,11 -30,11 -14,0 -18,5 -14,20 3,11 2,20 -3,20 -4,0 -10,-29 -14,-65 z m 67,-9 c 13,-10 17,-28 17,-70 0,-52 -10,-70 -25,-46 -4,6 -10,8 -14,5 -11,-6 -31,40 -31,70 0,52 18,67 53,41 z m 0,-320 c 13,-10 17,-28 17,-70 0,-52 -10,-70 -25,-46 -4,6 -10,8 -14,5 -11,-6 -31,40 -31,70 0,52 18,67 53,41 z m 0,-320 c 13,-10 17,-28 17,-70 0,-52 -10,-70 -25,-46 -4,6 -10,8 -14,5 -11,-6 -31,40 -31,70 0,52 18,67 53,41 z" />
        <path
           inkscape:connector-curvature="0"
           id="path6384"
           d="m 386,895 c -5,-51 -3,-71 9,-88 16,-24 20,-41 6,-33 -4,3 -16,-3 -26,-14 -14,-16 -16,-23 -7,-32 7,-7 12,-20 12,-30 0,-10 4,-18 9,-18 6,0 6,12 1,31 -11,37 -4,55 15,39 10,-8 15,-8 20,0 5,8 11,8 21,-1 11,-9 18,-9 26,-1 8,8 16,7 28,-1 14,-8 22,-8 32,1 11,9 17,9 26,0 8,-8 15,-8 25,1 30,25 41,-14 43,-162 2,-77 0,-145 -3,-150 -3,-5 -14,4 -24,20 -18,26 -19,27 -19,6 0,-29 -18,-30 -29,-1 l -8,22 -5,-22 c -9,-34 -35,-27 -41,11 -3,17 -8,41 -12,52 -4,11 2,5 14,-12 11,-18 22,-33 24,-33 2,0 2,22 -1,50 -2,28 -1,50 4,50 4,0 23,-14 41,-32 29,-28 33,-29 39,-13 4,10 2,31 -3,46 -6,16 -9,48 -7,71 4,40 3,41 -6,13 -6,-16 -7,-50 -4,-75 l 6,-45 -31,30 c -20,18 -30,36 -27,47 2,10 0,21 -5,24 -6,3 -5,12 3,22 12,15 11,15 -4,4 -12,-10 -15,-23 -11,-46 6,-36 -13,-59 -28,-35 -12,19 -11,72 1,64 6,-3 10,1 10,9 0,8 -4,18 -10,21 -5,3 -10,0 -10,-7 0,-9 -3,-9 -10,2 -6,10 -8,1 -5,-30 4,-47 -7,-82 -19,-61 -4,6 -16,11 -27,11 -20,0 -26,24 -9,35 6,3 9,21 9,38 -2,27 -2,28 -6,7 -3,-14 -8,-29 -13,-35 -4,-5 -10,-38 -14,-73 -6,-48 -4,-67 8,-84 17,-24 21,-42 7,-34 -4,3 -16,-3 -26,-14 -14,-16 -16,-23 -7,-32 7,-7 12,-20 12,-30 0,-10 4,-18 9,-18 6,0 6,12 1,31 -11,37 -4,55 15,39 10,-8 15,-8 20,0 5,8 11,8 21,-1 10,-8 18,-8 27,0 10,8 17,7 25,-1 10,-10 17,-10 31,-1 13,8 21,9 29,1 8,-8 15,-8 25,1 30,25 41,-14 43,-162 2,-77 0,-145 -3,-150 -3,-5 -14,4 -24,20 -18,26 -19,27 -19,6 0,-29 -18,-30 -29,-1 l -8,22 -5,-22 c -9,-34 -35,-27 -41,11 -3,17 -8,41 -12,52 -4,11 2,5 14,-12 11,-18 22,-33 24,-33 2,0 2,23 -1,50 -2,28 -1,50 4,50 4,0 23,-14 41,-32 29,-28 33,-29 39,-13 4,10 2,31 -3,46 -6,16 -9,48 -7,71 4,40 3,41 -6,13 -6,-16 -7,-50 -4,-75 l 6,-45 -31,30 c -20,18 -30,36 -27,47 2,10 0,21 -5,24 -6,3 -5,12 3,22 12,15 11,15 -4,4 -12,-10 -15,-23 -11,-46 6,-36 -13,-59 -28,-35 -12,19 -11,72 1,64 6,-3 10,1 10,9 0,8 -4,18 -10,21 -5,3 -10,0 -10,-7 0,-9 -3,-9 -10,2 -6,10 -8,1 -5,-30 4,-47 -7,-82 -19,-61 -4,6 -16,11 -27,11 -20,0 -26,24 -9,35 6,3 9,21 9,38 -2,27 -2,28 -6,7 -3,-14 -8,-29 -13,-35 -4,-5 -10,-38 -14,-73 -6,-48 -4,-67 8,-84 17,-24 21,-42 7,-34 -4,3 -16,-3 -26,-14 -14,-16 -16,-23 -7,-32 7,-7 12,-20 12,-30 0,-10 4,-18 9,-18 6,0 6,12 1,31 -11,37 -4,55 15,39 10,-8 15,-8 20,0 5,8 11,8 21,-1 11,-9 18,-9 26,-1 8,8 16,7 28,-1 14,-8 22,-8 32,1 11,9 17,9 26,0 8,-8 15,-8 25,1 20,16 33,-3 41,-61 4,-29 12,-48 20,-48 7,0 13,6 14,13 1,6 4,30 6,52 5,40 5,40 -3,5 -7,-28 -9,-30 -10,-10 0,14 6,50 14,80 18,66 20,103 5,80 -7,-11 -10,1 -9,40 0,30 0,62 -1,70 0,8 2,33 4,55 5,40 5,40 -3,5 -7,-28 -9,-30 -10,-10 0,14 6,50 14,80 18,66 20,103 5,80 -7,-11 -10,1 -9,40 0,30 0,62 -1,70 0,8 2,33 4,55 5,40 5,40 -3,5 -7,-28 -9,-30 -10,-10 0,14 6,50 14,80 18,68 20,102 4,80 -8,-11 -9,-4 -6,29 6,52 1,71 -22,71 -14,0 -16,-13 -15,-97 1,-54 -1,-102 -3,-106 -3,-5 -14,4 -24,20 -18,26 -19,27 -19,6 0,-29 -18,-30 -29,-1 l -8,22 -5,-22 c -9,-34 -35,-27 -41,11 -3,17 -8,41 -12,52 -4,11 2,5 14,-12 11,-18 22,-33 24,-33 2,0 2,23 -1,50 -2,28 -1,50 4,50 4,0 23,-14 41,-32 29,-28 33,-29 39,-13 4,9 2,33 -5,51 -7,19 -9,38 -6,44 3,5 1,10 -5,10 -8,0 -9,-15 -4,-47 l 6,-48 -31,30 c -20,18 -30,36 -27,47 2,10 0,18 -4,18 -5,0 -10,-12 -12,-27 -4,-38 -27,-41 -34,-4 -4,17 -11,31 -16,31 -5,0 -6,-5 -3,-10 3,-6 3,-20 0,-31 -5,-15 -10,-18 -18,-10 -6,6 -20,11 -30,11 -14,0 -18,5 -14,20 3,11 2,20 -3,20 -4,0 -10,-29 -14,-65 z m 67,-9 c 13,-10 17,-28 17,-70 0,-52 -10,-70 -25,-46 -4,6 -10,8 -14,5 -11,-6 -31,40 -31,70 0,52 18,67 53,41 z m 0,-320 c 13,-10 17,-28 17,-70 0,-52 -10,-70 -25,-46 -4,6 -10,8 -14,5 -11,-6 -31,40 -31,70 0,52 18,67 53,41 z m 0,-320 c 13,-10 17,-28 17,-70 0,-52 -10,-70 -25,-46 -4,6 -10,8 -14,5 -11,-6 -31,40 -31,70 0,52 18,67 53,41 z" />
        <path
           inkscape:connector-curvature="0"
           id="path6386"
           d="m 706,895 c -5,-51 -3,-71 9,-88 16,-24 20,-41 6,-33 -4,3 -16,-3 -26,-14 -14,-16 -16,-23 -7,-32 7,-7 12,-20 12,-30 0,-10 4,-18 9,-18 6,0 6,12 1,31 -11,37 -4,55 15,39 10,-8 15,-8 20,0 5,8 11,8 21,-1 11,-9 18,-9 26,-1 8,8 16,7 28,-1 14,-8 22,-8 32,1 11,9 17,9 26,0 8,-8 15,-8 25,1 30,25 41,-14 43,-162 2,-77 0,-145 -3,-150 -3,-5 -14,4 -24,20 -18,26 -19,27 -19,6 0,-29 -18,-30 -29,-1 l -8,22 -5,-22 c -9,-34 -35,-27 -41,11 -3,17 -8,41 -12,52 -4,11 2,5 14,-12 11,-18 22,-33 24,-33 2,0 2,22 -1,50 -2,28 -1,50 4,50 4,0 23,-14 41,-32 29,-28 33,-29 39,-13 4,10 2,31 -3,46 -6,16 -9,48 -7,71 4,40 3,41 -6,13 -6,-16 -7,-50 -4,-75 l 6,-45 -31,30 c -20,18 -30,36 -27,47 2,10 0,21 -5,24 -6,3 -5,12 3,22 12,15 11,15 -4,4 -12,-10 -15,-23 -11,-46 6,-36 -13,-59 -28,-35 -12,19 -11,72 1,64 6,-3 10,1 10,9 0,8 -4,18 -10,21 -5,3 -10,0 -10,-7 0,-9 -3,-9 -10,2 -6,10 -8,1 -5,-30 4,-47 -7,-82 -19,-61 -4,6 -16,11 -27,11 -20,0 -26,24 -9,35 6,3 9,21 9,38 -2,27 -2,28 -6,7 -3,-14 -8,-29 -13,-35 -4,-5 -10,-38 -14,-73 -6,-48 -4,-67 8,-84 17,-24 21,-42 7,-34 -4,3 -16,-3 -26,-14 -14,-16 -16,-23 -7,-32 7,-7 12,-20 12,-30 0,-10 4,-18 9,-18 6,0 6,12 1,31 -11,37 -4,55 15,39 10,-8 15,-8 20,0 5,8 11,8 21,-1 10,-8 18,-8 27,0 10,8 17,7 25,-1 10,-10 17,-10 31,-1 13,8 21,9 29,1 8,-8 15,-8 25,1 30,25 41,-14 43,-162 2,-77 0,-145 -3,-150 -3,-5 -14,4 -24,20 -18,26 -19,27 -19,6 0,-29 -18,-30 -29,-1 l -8,22 -5,-22 c -9,-34 -35,-27 -41,11 -3,17 -8,41 -12,52 -4,11 2,5 14,-12 11,-18 22,-33 24,-33 2,0 2,23 -1,50 -2,28 -1,50 4,50 4,0 23,-14 41,-32 29,-28 33,-29 39,-13 4,10 2,31 -3,46 -6,16 -9,48 -7,71 4,40 3,41 -6,13 -6,-16 -7,-50 -4,-75 l 6,-45 -31,30 c -20,18 -30,36 -27,47 2,10 0,21 -5,24 -6,3 -5,12 3,22 12,15 11,15 -4,4 -12,-10 -15,-23 -11,-46 6,-36 -13,-59 -28,-35 -12,19 -11,72 1,64 6,-3 10,1 10,9 0,8 -4,18 -10,21 -5,3 -10,0 -10,-7 0,-9 -3,-9 -10,2 -6,10 -8,1 -5,-30 4,-47 -7,-82 -19,-61 -4,6 -16,11 -27,11 -20,0 -26,24 -9,35 6,3 9,21 9,38 -2,27 -2,28 -6,7 -3,-14 -8,-29 -13,-35 -4,-5 -10,-38 -14,-73 -6,-48 -4,-67 8,-84 17,-24 21,-42 7,-34 -4,3 -16,-3 -26,-14 -14,-16 -16,-23 -7,-32 7,-7 12,-20 12,-30 0,-10 4,-18 9,-18 6,0 6,12 1,31 -11,37 -4,55 15,39 10,-8 15,-8 20,0 5,8 11,8 21,-1 11,-9 18,-9 26,-1 8,8 16,7 28,-1 14,-8 22,-8 32,1 11,9 17,9 26,0 8,-8 15,-8 25,0 18,15 37,-3 38,-38 1,-14 5,-36 9,-50 4,-14 8,192 9,458 1,265 -2,482 -6,482 -5,0 -7,-44 -7,-97 1,-54 -1,-102 -3,-106 -3,-5 -14,4 -24,20 -18,26 -19,27 -19,6 0,-29 -18,-30 -29,-1 l -8,22 -5,-22 c -9,-34 -35,-27 -41,11 -3,17 -8,41 -12,52 -4,11 2,5 14,-12 11,-18 22,-33 24,-33 2,0 2,23 -1,50 -2,28 -1,50 4,50 4,0 23,-14 41,-32 29,-28 33,-29 39,-13 4,9 2,33 -5,51 -7,19 -9,38 -6,44 3,5 1,10 -5,10 -8,0 -9,-15 -4,-47 l 6,-48 -31,30 c -20,18 -30,36 -27,47 2,10 0,18 -4,18 -5,0 -10,-12 -12,-27 -4,-38 -27,-41 -34,-4 -4,17 -11,31 -16,31 -5,0 -6,-5 -3,-10 3,-6 3,-20 0,-31 -5,-15 -10,-18 -18,-10 -6,6 -20,11 -30,11 -14,0 -18,5 -14,20 3,11 2,20 -3,20 -4,0 -10,-29 -14,-65 z m 67,-9 c 13,-10 17,-28 17,-70 0,-52 -10,-70 -25,-46 -4,6 -10,8 -14,5 -11,-6 -31,40 -31,70 0,52 18,67 53,41 z m 0,-320 c 13,-10 17,-28 17,-70 0,-52 -10,-70 -25,-46 -4,6 -10,8 -14,5 -11,-6 -31,40 -31,70 0,52 18,67 53,41 z m 0,-320 c 13,-10 17,-28 17,-70 0,-52 -10,-70 -25,-46 -4,6 -10,8 -14,5 -11,-6 -31,40 -31,70 0,52 18,67 53,41 z" />
        <path
           inkscape:connector-curvature="0"
           id="path6388"
           d="m 240,705 c 0,-3 2,-5 5,-5 3,0 5,2 5,5 0,3 -2,5 -5,5 -3,0 -5,-2 -5,-5 z" />
        <path
           inkscape:connector-curvature="0"
           id="path6390"
           d="m 560,705 c 0,-3 2,-5 5,-5 3,0 5,2 5,5 0,3 -2,5 -5,5 -3,0 -5,-2 -5,-5 z" />
        <path
           inkscape:connector-curvature="0"
           id="path6392"
           d="m 880,705 c 0,-3 2,-5 5,-5 3,0 5,2 5,5 0,3 -2,5 -5,5 -3,0 -5,-2 -5,-5 z" />
        <path
           inkscape:connector-curvature="0"
           id="path6394"
           d="m 240,385 c 0,-3 2,-5 5,-5 3,0 5,2 5,5 0,3 -2,5 -5,5 -3,0 -5,-2 -5,-5 z" />
        <path
           inkscape:connector-curvature="0"
           id="path6396"
           d="m 560,385 c 0,-3 2,-5 5,-5 3,0 5,2 5,5 0,3 -2,5 -5,5 -3,0 -5,-2 -5,-5 z" />
        <path
           inkscape:connector-curvature="0"
           id="path6398"
           d="m 880,385 c 0,-3 2,-5 5,-5 3,0 5,2 5,5 0,3 -2,5 -5,5 -3,0 -5,-2 -5,-5 z" />
        <path
           inkscape:connector-curvature="0"
           id="path6400"
           d="m 240,65 c 0,-3 2,-5 5,-5 3,0 5,2 5,5 0,3 -2,5 -5,5 -3,0 -5,-2 -5,-5 z" />
        <path
           inkscape:connector-curvature="0"
           id="path6402"
           d="m 560,65 c 0,-3 2,-5 5,-5 3,0 5,2 5,5 0,3 -2,5 -5,5 -3,0 -5,-2 -5,-5 z" />
        <path
           inkscape:connector-curvature="0"
           id="path6404"
           d="m 880,65 c 0,-3 2,-5 5,-5 3,0 5,2 5,5 0,3 -2,5 -5,5 -3,0 -5,-2 -5,-5 z" />
        <path
           inkscape:connector-curvature="0"
           id="path6406"
           d="M 88,30 C 85,13 87,0 92,0 c 4,0 8,13 8,30 0,17 -2,30 -4,30 -2,0 -6,-14 -8,-30 z" />
        <path
           inkscape:connector-curvature="0"
           id="path6408"
           d="m 408,30 c -3,-17 -1,-30 4,-30 4,0 8,13 8,30 0,39 -6,39 -12,0 z" />
        <path
           inkscape:connector-curvature="0"
           id="path6410"
           d="m 728,30 c -3,-17 -1,-30 4,-30 4,0 8,13 8,30 0,17 -2,30 -4,30 -2,0 -6,-14 -8,-30 z" />
        <path
           inkscape:connector-curvature="0"
           id="path6412"
           d="m 143,27 c 2,-25 17,-40 17,-16 0,5 5,7 10,4 6,-3 10,1 10,9 0,8 -4,18 -10,21 -5,3 -10,0 -10,-7 0,-10 -2,-10 -9,1 -7,10 -9,7 -8,-12 z" />
        <path
           inkscape:connector-curvature="0"
           id="path6414"
           d="m 268,25 c -3,-14 -1,-25 3,-25 5,0 9,11 9,25 0,32 -6,32 -12,0 z" />
        <path
           inkscape:connector-curvature="0"
           id="path6416"
           d="m 463,27 c 2,-25 17,-40 17,-16 0,5 5,7 10,4 6,-3 10,1 10,9 0,8 -4,18 -10,21 -5,3 -10,0 -10,-7 0,-10 -2,-10 -9,1 -7,10 -9,7 -8,-12 z" />
        <path
           inkscape:connector-curvature="0"
           id="path6418"
           d="m 588,25 c -3,-14 -1,-25 3,-25 5,0 9,11 9,25 0,32 -6,32 -12,0 z" />
        <path
           inkscape:connector-curvature="0"
           id="path6420"
           d="m 783,27 c 2,-25 17,-40 17,-16 0,5 5,7 10,4 6,-3 10,1 10,9 0,8 -4,18 -10,21 -5,3 -10,0 -10,-7 0,-10 -2,-10 -9,1 -7,10 -9,7 -8,-12 z" />
        <path
           inkscape:connector-curvature="0"
           id="path6422"
           d="m 908,25 c -3,-14 -1,-25 3,-25 5,0 9,11 9,25 0,32 -6,32 -12,0 z" />
        <path
           inkscape:connector-curvature="0"
           id="path6424"
           d="M 202,28 C 187,13 187,0 202,0 c 6,0 8,3 5,7 -4,3 -2,12 4,20 14,16 7,17 -9,1 z" />
        <path
           inkscape:connector-curvature="0"
           id="path6426"
           d="M 522,28 C 507,13 507,0 522,0 c 6,0 8,3 5,7 -4,3 -2,12 4,20 14,16 7,17 -9,1 z" />
        <path
           inkscape:connector-curvature="0"
           id="path6428"
           d="M 842,28 C 827,13 827,0 842,0 c 6,0 8,3 5,7 -4,3 -2,12 4,20 14,16 7,17 -9,1 z" />
      </g>
      <g
         style="fill:#2d0003;stroke:none"
         id="g6558"
         transform="matrix(0.05,0,0,-0.05,16,80)">
        <path
           inkscape:connector-curvature="0"
           id="path6432"
           d="m 10,943 c 0,-4 5,-15 10,-23 8,-13 10,-13 10,2 0,9 -4,20 -10,23 -5,3 -10,3 -10,-2 z" />
        <path
           inkscape:connector-curvature="0"
           id="path6434"
           d="m 330,943 c 0,-4 5,-15 10,-23 8,-13 10,-13 10,2 0,9 -4,20 -10,23 -5,3 -10,3 -10,-2 z" />
        <path
           inkscape:connector-curvature="0"
           id="path6436"
           d="m 650,943 c 0,-4 5,-15 10,-23 8,-13 10,-13 10,2 0,9 -4,20 -10,23 -5,3 -10,3 -10,-2 z" />
        <path
           inkscape:connector-curvature="0"
           id="path6438"
           d="m 70,894 c -14,-35 -12,-70 3,-82 10,-8 12,-3 9,26 -4,50 11,71 38,55 27,-17 30,-16 30,10 0,16 -3,18 -9,8 -6,-9 -11,-10 -15,-2 -13,21 -46,12 -56,-15 z" />
        <path
           inkscape:connector-curvature="0"
           id="path6440"
           d="m 162,851 c 0,-78 -11,-103 -36,-82 -10,9 -16,9 -21,1 -5,-8 -11,-8 -19,-1 -19,16 -55,-24 -38,-41 7,-7 12,-20 12,-30 0,-10 4,-18 9,-18 6,0 6,12 1,31 -11,37 -4,55 15,39 10,-8 15,-8 20,0 5,8 11,8 21,-1 11,-9 18,-9 26,-1 9,9 15,9 26,0 10,-9 18,-9 32,-1 13,9 20,9 29,0 8,-8 14,-8 23,1 9,9 15,9 26,-1 13,-10 14,-9 3,11 -10,19 -15,21 -27,11 -11,-9 -18,-9 -26,-1 -8,8 -16,7 -29,-1 -22,-14 -25,-12 -34,38 l -7,39 20,-24 19,-24 -5,52 c -2,29 0,52 5,52 5,0 22,-13 38,-30 32,-33 46,-31 44,8 -2,25 -2,25 -6,3 -5,-23 -5,-23 -38,9 -30,29 -36,31 -50,20 -14,-12 -18,-12 -25,0 -5,8 -8,-16 -8,-59 z" />
        <path
           inkscape:connector-curvature="0"
           id="path6442"
           d="m 390,894 c -14,-35 -12,-70 3,-82 10,-8 12,-3 9,26 -4,50 11,71 38,55 27,-17 30,-16 30,10 0,16 -3,18 -9,8 -6,-9 -11,-10 -15,-2 -13,21 -46,12 -56,-15 z" />
        <path
           inkscape:connector-curvature="0"
           id="path6444"
           d="m 482,851 c 0,-78 -11,-103 -36,-82 -10,9 -16,9 -21,1 -5,-8 -11,-8 -19,-1 -19,16 -55,-24 -38,-41 7,-7 12,-20 12,-30 0,-10 4,-18 9,-18 6,0 6,12 1,31 -11,37 -4,55 15,39 10,-8 15,-8 20,0 5,8 11,8 21,-1 11,-9 18,-9 26,-1 9,9 15,9 26,0 10,-9 18,-9 32,-1 13,9 20,9 29,0 8,-8 14,-8 23,1 9,9 15,9 26,-1 13,-10 14,-9 3,11 -10,19 -15,21 -27,11 -11,-9 -18,-9 -26,-1 -8,8 -16,7 -29,-1 -22,-14 -25,-12 -34,38 l -7,39 20,-24 19,-24 -5,52 c -2,29 0,52 5,52 5,0 22,-13 38,-30 32,-33 46,-31 44,8 -2,25 -2,25 -6,3 -5,-23 -5,-23 -38,9 -30,29 -36,31 -50,20 -14,-12 -18,-12 -25,0 -5,8 -8,-16 -8,-59 z" />
        <path
           inkscape:connector-curvature="0"
           id="path6446"
           d="m 710,894 c -14,-35 -12,-70 3,-82 10,-8 12,-3 9,26 -4,50 11,71 38,55 27,-17 30,-16 30,10 0,16 -3,18 -9,8 -6,-9 -11,-10 -15,-2 -13,21 -46,12 -56,-15 z" />
        <path
           inkscape:connector-curvature="0"
           id="path6448"
           d="m 802,851 c 0,-78 -11,-103 -36,-82 -10,9 -16,9 -21,1 -5,-8 -11,-8 -19,-1 -19,16 -55,-24 -38,-41 7,-7 12,-20 12,-30 0,-10 4,-18 9,-18 6,0 6,12 1,31 -11,37 -4,55 15,39 10,-8 15,-8 20,0 5,8 11,8 21,-1 11,-9 18,-9 26,-1 9,9 15,9 26,0 10,-9 18,-9 32,-1 13,9 20,9 29,0 8,-8 14,-8 23,1 9,9 15,9 26,-1 13,-10 14,-9 3,11 -10,19 -15,21 -27,11 -11,-9 -18,-9 -26,-1 -8,8 -16,7 -29,-1 -22,-14 -25,-12 -34,38 l -7,39 20,-24 19,-24 -5,52 c -2,29 0,52 5,52 5,0 22,-13 38,-30 32,-33 46,-31 44,8 -2,25 -2,25 -6,3 -5,-23 -5,-23 -38,9 -30,29 -36,31 -50,20 -14,-12 -18,-12 -25,0 -5,8 -8,-16 -8,-59 z" />
        <path
           inkscape:connector-curvature="0"
           id="path6450"
           d="m 27,857 c -4,-10 -7,-33 -6,-50 l 1,-32 9,33 c 12,40 8,79 -4,49 z" />
        <path
           inkscape:connector-curvature="0"
           id="path6452"
           d="m 347,857 c -4,-10 -7,-33 -6,-50 l 1,-32 9,33 c 12,40 8,79 -4,49 z" />
        <path
           inkscape:connector-curvature="0"
           id="path6454"
           d="m 667,857 c -4,-10 -7,-33 -6,-50 l 1,-32 9,33 c 12,40 8,79 -4,49 z" />
        <path
           inkscape:connector-curvature="0"
           id="path6456"
           d="m 302,840 c 0,-14 2,-19 5,-12 2,6 2,18 0,25 -3,6 -5,1 -5,-13 z" />
        <path
           inkscape:connector-curvature="0"
           id="path6458"
           d="m 622,840 c 0,-14 2,-19 5,-12 2,6 2,18 0,25 -3,6 -5,1 -5,-13 z" />
        <path
           inkscape:connector-curvature="0"
           id="path6460"
           d="m 942,840 c 0,-14 2,-19 5,-12 2,6 2,18 0,25 -3,6 -5,1 -5,-13 z" />
        <path
           inkscape:connector-curvature="0"
           id="path6462"
           d="m 240,705 c 0,-3 2,-5 5,-5 3,0 5,2 5,5 0,3 -2,5 -5,5 -3,0 -5,-2 -5,-5 z" />
        <path
           inkscape:connector-curvature="0"
           id="path6464"
           d="m 560,705 c 0,-3 2,-5 5,-5 3,0 5,2 5,5 0,3 -2,5 -5,5 -3,0 -5,-2 -5,-5 z" />
        <path
           inkscape:connector-curvature="0"
           id="path6466"
           d="m 880,705 c 0,-3 2,-5 5,-5 3,0 5,2 5,5 0,3 -2,5 -5,5 -3,0 -5,-2 -5,-5 z" />
        <path
           inkscape:connector-curvature="0"
           id="path6468"
           d="m 160,676 c 0,-8 5,-18 10,-21 6,-3 10,1 10,9 0,8 -4,18 -10,21 -5,3 -10,-1 -10,-9 z" />
        <path
           inkscape:connector-curvature="0"
           id="path6470"
           d="m 480,676 c 0,-8 5,-18 10,-21 6,-3 10,1 10,9 0,8 -4,18 -10,21 -5,3 -10,-1 -10,-9 z" />
        <path
           inkscape:connector-curvature="0"
           id="path6472"
           d="m 800,676 c 0,-8 5,-18 10,-21 6,-3 10,1 10,9 0,8 -4,18 -10,21 -5,3 -10,-1 -10,-9 z" />
        <path
           inkscape:connector-curvature="0"
           id="path6474"
           d="m 10,623 c 0,-4 5,-15 10,-23 8,-13 10,-13 10,2 0,9 -4,20 -10,23 -5,3 -10,3 -10,-2 z" />
        <path
           inkscape:connector-curvature="0"
           id="path6476"
           d="m 330,623 c 0,-4 5,-15 10,-23 8,-13 10,-13 10,2 0,9 -4,20 -10,23 -5,3 -10,3 -10,-2 z" />
        <path
           inkscape:connector-curvature="0"
           id="path6478"
           d="m 650,623 c 0,-4 5,-15 10,-23 8,-13 10,-13 10,2 0,9 -4,20 -10,23 -5,3 -10,3 -10,-2 z" />
        <path
           inkscape:connector-curvature="0"
           id="path6480"
           d="m 70,574 c -14,-35 -12,-70 3,-82 10,-8 12,-3 9,26 -4,50 11,71 38,55 27,-17 30,-16 30,10 0,16 -3,18 -9,8 -6,-9 -11,-10 -15,-2 -13,21 -46,12 -56,-15 z" />
        <path
           inkscape:connector-curvature="0"
           id="path6482"
           d="m 162,531 c 0,-78 -11,-103 -36,-82 -10,9 -16,9 -21,1 -5,-8 -11,-8 -19,-1 -19,16 -55,-24 -38,-41 7,-7 12,-20 12,-30 0,-10 4,-18 9,-18 6,0 6,12 1,31 -11,37 -4,55 15,39 10,-8 15,-8 20,0 5,8 11,8 21,-1 11,-9 18,-9 26,-1 9,9 15,9 26,0 10,-9 18,-9 32,-1 13,9 20,9 29,0 8,-8 14,-8 23,1 9,9 15,9 26,-1 13,-10 14,-9 3,11 -10,19 -15,21 -27,11 -11,-9 -18,-9 -26,-1 -8,8 -16,7 -29,-1 -22,-14 -25,-12 -34,38 l -7,39 20,-24 19,-24 -5,52 c -2,29 0,52 5,52 5,0 22,-13 38,-30 32,-33 46,-31 44,8 -2,25 -2,25 -6,3 -5,-23 -5,-23 -38,9 -30,29 -36,31 -50,20 -14,-12 -18,-12 -25,0 -5,8 -8,-16 -8,-59 z" />
        <path
           inkscape:connector-curvature="0"
           id="path6484"
           d="m 390,574 c -14,-35 -12,-70 3,-82 10,-8 12,-3 9,26 -4,50 11,71 38,55 27,-17 30,-16 30,10 0,16 -3,18 -9,8 -6,-9 -11,-10 -15,-2 -13,21 -46,12 -56,-15 z" />
        <path
           inkscape:connector-curvature="0"
           id="path6486"
           d="m 482,531 c 0,-78 -11,-103 -36,-82 -10,9 -16,9 -21,1 -5,-8 -11,-8 -19,-1 -19,16 -55,-24 -38,-41 7,-7 12,-20 12,-30 0,-10 4,-18 9,-18 6,0 6,12 1,31 -11,37 -4,55 15,39 10,-8 15,-8 20,0 5,8 11,8 21,-1 11,-9 18,-9 26,-1 9,9 15,9 26,0 10,-9 18,-9 32,-1 13,9 20,9 29,0 8,-8 14,-8 23,1 9,9 15,9 26,-1 13,-10 14,-9 3,11 -10,19 -15,21 -27,11 -11,-9 -18,-9 -26,-1 -8,8 -16,7 -29,-1 -22,-14 -25,-12 -34,38 l -7,39 20,-24 19,-24 -5,52 c -2,29 0,52 5,52 5,0 22,-13 38,-30 32,-33 46,-31 44,8 -2,25 -2,25 -6,3 -5,-23 -5,-23 -38,9 -30,29 -36,31 -50,20 -14,-12 -18,-12 -25,0 -5,8 -8,-16 -8,-59 z" />
        <path
           inkscape:connector-curvature="0"
           id="path6488"
           d="m 710,574 c -14,-35 -12,-70 3,-82 10,-8 12,-3 9,26 -4,50 11,71 38,55 27,-17 30,-16 30,10 0,16 -3,18 -9,8 -6,-9 -11,-10 -15,-2 -13,21 -46,12 -56,-15 z" />
        <path
           inkscape:connector-curvature="0"
           id="path6490"
           d="m 802,531 c 0,-78 -11,-103 -36,-82 -10,9 -16,9 -21,1 -5,-8 -11,-8 -19,-1 -19,16 -55,-24 -38,-41 7,-7 12,-20 12,-30 0,-10 4,-18 9,-18 6,0 6,12 1,31 -11,37 -4,55 15,39 10,-8 15,-8 20,0 5,8 11,8 21,-1 11,-9 18,-9 26,-1 9,9 15,9 26,0 10,-9 18,-9 32,-1 13,9 20,9 29,0 8,-8 14,-8 23,1 9,9 15,9 26,-1 13,-10 14,-9 3,11 -10,19 -15,21 -27,11 -11,-9 -18,-9 -26,-1 -8,8 -16,7 -29,-1 -22,-14 -25,-12 -34,38 l -7,39 20,-24 19,-24 -5,52 c -2,29 0,52 5,52 5,0 22,-13 38,-30 32,-33 46,-31 44,8 -2,25 -2,25 -6,3 -5,-23 -5,-23 -38,9 -30,29 -36,31 -50,20 -14,-12 -18,-12 -25,0 -5,8 -8,-16 -8,-59 z" />
        <path
           inkscape:connector-curvature="0"
           id="path6492"
           d="m 27,537 c -4,-10 -7,-33 -6,-50 l 1,-32 9,33 c 12,40 8,79 -4,49 z" />
        <path
           inkscape:connector-curvature="0"
           id="path6494"
           d="m 347,537 c -4,-10 -7,-33 -6,-50 l 1,-32 9,33 c 12,40 8,79 -4,49 z" />
        <path
           inkscape:connector-curvature="0"
           id="path6496"
           d="m 667,537 c -4,-10 -7,-33 -6,-50 l 1,-32 9,33 c 12,40 8,79 -4,49 z" />
        <path
           inkscape:connector-curvature="0"
           id="path6498"
           d="m 302,520 c 0,-14 2,-19 5,-12 2,6 2,18 0,25 -3,6 -5,1 -5,-13 z" />
        <path
           inkscape:connector-curvature="0"
           id="path6500"
           d="m 622,520 c 0,-14 2,-19 5,-12 2,6 2,18 0,25 -3,6 -5,1 -5,-13 z" />
        <path
           inkscape:connector-curvature="0"
           id="path6502"
           d="m 942,520 c 0,-14 2,-19 5,-12 2,6 2,18 0,25 -3,6 -5,1 -5,-13 z" />
        <path
           inkscape:connector-curvature="0"
           id="path6504"
           d="m 240,385 c 0,-3 2,-5 5,-5 3,0 5,2 5,5 0,3 -2,5 -5,5 -3,0 -5,-2 -5,-5 z" />
        <path
           inkscape:connector-curvature="0"
           id="path6506"
           d="m 560,385 c 0,-3 2,-5 5,-5 3,0 5,2 5,5 0,3 -2,5 -5,5 -3,0 -5,-2 -5,-5 z" />
        <path
           inkscape:connector-curvature="0"
           id="path6508"
           d="m 880,385 c 0,-3 2,-5 5,-5 3,0 5,2 5,5 0,3 -2,5 -5,5 -3,0 -5,-2 -5,-5 z" />
        <path
           inkscape:connector-curvature="0"
           id="path6510"
           d="m 160,356 c 0,-8 5,-18 10,-21 6,-3 10,1 10,9 0,8 -4,18 -10,21 -5,3 -10,-1 -10,-9 z" />
        <path
           inkscape:connector-curvature="0"
           id="path6512"
           d="m 480,356 c 0,-8 5,-18 10,-21 6,-3 10,1 10,9 0,8 -4,18 -10,21 -5,3 -10,-1 -10,-9 z" />
        <path
           inkscape:connector-curvature="0"
           id="path6514"
           d="m 800,356 c 0,-8 5,-18 10,-21 6,-3 10,1 10,9 0,8 -4,18 -10,21 -5,3 -10,-1 -10,-9 z" />
        <path
           inkscape:connector-curvature="0"
           id="path6516"
           d="m 10,303 c 0,-4 5,-15 10,-23 8,-13 10,-13 10,2 0,9 -4,20 -10,23 -5,3 -10,3 -10,-2 z" />
        <path
           inkscape:connector-curvature="0"
           id="path6518"
           d="m 330,303 c 0,-4 5,-15 10,-23 8,-13 10,-13 10,2 0,9 -4,20 -10,23 -5,3 -10,3 -10,-2 z" />
        <path
           inkscape:connector-curvature="0"
           id="path6520"
           d="m 650,303 c 0,-4 5,-15 10,-23 8,-13 10,-13 10,2 0,9 -4,20 -10,23 -5,3 -10,3 -10,-2 z" />
        <path
           inkscape:connector-curvature="0"
           id="path6522"
           d="m 70,254 c -14,-35 -12,-70 3,-82 10,-8 12,-3 9,26 -4,50 11,71 38,55 27,-17 30,-16 30,10 0,16 -3,18 -9,8 -6,-9 -11,-10 -15,-2 -13,21 -46,12 -56,-15 z" />
        <path
           inkscape:connector-curvature="0"
           id="path6524"
           d="m 162,211 c 0,-78 -11,-103 -36,-82 -10,9 -16,9 -21,1 -5,-8 -11,-8 -19,-1 -19,16 -55,-24 -38,-41 7,-7 12,-20 12,-30 0,-10 4,-18 9,-18 6,0 6,12 1,31 -11,37 -4,55 15,39 10,-8 15,-8 20,0 5,8 11,8 21,-1 11,-9 18,-9 26,-1 9,9 15,9 26,0 10,-9 18,-9 32,-1 13,9 20,9 29,0 8,-8 14,-8 23,1 9,9 15,9 26,-1 13,-10 14,-9 3,11 -10,19 -15,21 -27,11 -11,-9 -18,-9 -26,-1 -8,8 -16,7 -29,-1 -22,-14 -25,-12 -34,38 l -7,39 20,-24 19,-24 -5,52 c -2,29 0,52 5,52 5,0 22,-13 38,-30 32,-33 46,-31 44,8 -2,25 -2,25 -6,3 -5,-23 -5,-23 -38,9 -30,29 -36,31 -50,20 -14,-12 -18,-12 -25,0 -5,8 -8,-16 -8,-59 z" />
        <path
           inkscape:connector-curvature="0"
           id="path6526"
           d="m 390,254 c -14,-35 -12,-70 3,-82 10,-8 12,-3 9,26 -4,50 11,71 38,55 27,-17 30,-16 30,10 0,16 -3,18 -9,8 -6,-9 -11,-10 -15,-2 -13,21 -46,12 -56,-15 z" />
        <path
           inkscape:connector-curvature="0"
           id="path6528"
           d="m 482,211 c 0,-78 -11,-103 -36,-82 -10,9 -16,9 -21,1 -5,-8 -11,-8 -19,-1 -19,16 -55,-24 -38,-41 7,-7 12,-20 12,-30 0,-10 4,-18 9,-18 6,0 6,12 1,31 -11,37 -4,55 15,39 10,-8 15,-8 20,0 5,8 11,8 21,-1 11,-9 18,-9 26,-1 9,9 15,9 26,0 10,-9 18,-9 32,-1 13,9 20,9 29,0 8,-8 14,-8 23,1 9,9 15,9 26,-1 13,-10 14,-9 3,11 -10,19 -15,21 -27,11 -11,-9 -18,-9 -26,-1 -8,8 -16,7 -29,-1 -22,-14 -25,-12 -34,38 l -7,39 20,-24 19,-24 -5,52 c -2,29 0,52 5,52 5,0 22,-13 38,-30 32,-33 46,-31 44,8 -2,25 -2,25 -6,3 -5,-23 -5,-23 -38,9 -30,29 -36,31 -50,20 -14,-12 -18,-12 -25,0 -5,8 -8,-16 -8,-59 z" />
        <path
           inkscape:connector-curvature="0"
           id="path6530"
           d="m 710,254 c -14,-35 -12,-70 3,-82 10,-8 12,-3 9,26 -4,50 11,71 38,55 27,-17 30,-16 30,10 0,16 -3,18 -9,8 -6,-9 -11,-10 -15,-2 -13,21 -46,12 -56,-15 z" />
        <path
           inkscape:connector-curvature="0"
           id="path6532"
           d="m 802,211 c 0,-78 -11,-103 -36,-82 -10,9 -16,9 -21,1 -5,-8 -11,-8 -19,-1 -19,16 -55,-24 -38,-41 7,-7 12,-20 12,-30 0,-10 4,-18 9,-18 6,0 6,12 1,31 -11,37 -4,55 15,39 10,-8 15,-8 20,0 5,8 11,8 21,-1 11,-9 18,-9 26,-1 9,9 15,9 26,0 10,-9 18,-9 32,-1 13,9 20,9 29,0 8,-8 14,-8 23,1 9,9 15,9 26,-1 13,-10 14,-9 3,11 -10,19 -15,21 -27,11 -11,-9 -18,-9 -26,-1 -8,8 -16,7 -29,-1 -22,-14 -25,-12 -34,38 l -7,39 20,-24 19,-24 -5,52 c -2,29 0,52 5,52 5,0 22,-13 38,-30 32,-33 46,-31 44,8 -2,25 -2,25 -6,3 -5,-23 -5,-23 -38,9 -30,29 -36,31 -50,20 -14,-12 -18,-12 -25,0 -5,8 -8,-16 -8,-59 z" />
        <path
           inkscape:connector-curvature="0"
           id="path6534"
           d="m 27,217 c -4,-10 -7,-33 -6,-50 l 1,-32 9,33 c 12,40 8,79 -4,49 z" />
        <path
           inkscape:connector-curvature="0"
           id="path6536"
           d="m 347,217 c -4,-10 -7,-33 -6,-50 l 1,-32 9,33 c 12,40 8,79 -4,49 z" />
        <path
           inkscape:connector-curvature="0"
           id="path6538"
           d="m 667,217 c -4,-10 -7,-33 -6,-50 l 1,-32 9,33 c 12,40 8,79 -4,49 z" />
        <path
           inkscape:connector-curvature="0"
           id="path6540"
           d="m 302,200 c 0,-14 2,-19 5,-12 2,6 2,18 0,25 -3,6 -5,1 -5,-13 z" />
        <path
           inkscape:connector-curvature="0"
           id="path6542"
           d="m 622,200 c 0,-14 2,-19 5,-12 2,6 2,18 0,25 -3,6 -5,1 -5,-13 z" />
        <path
           inkscape:connector-curvature="0"
           id="path6544"
           d="m 942,200 c 0,-14 2,-19 5,-12 2,6 2,18 0,25 -3,6 -5,1 -5,-13 z" />
        <path
           inkscape:connector-curvature="0"
           id="path6546"
           d="m 240,65 c 0,-3 2,-5 5,-5 3,0 5,2 5,5 0,3 -2,5 -5,5 -3,0 -5,-2 -5,-5 z" />
        <path
           inkscape:connector-curvature="0"
           id="path6548"
           d="m 560,65 c 0,-3 2,-5 5,-5 3,0 5,2 5,5 0,3 -2,5 -5,5 -3,0 -5,-2 -5,-5 z" />
        <path
           inkscape:connector-curvature="0"
           id="path6550"
           d="m 880,65 c 0,-3 2,-5 5,-5 3,0 5,2 5,5 0,3 -2,5 -5,5 -3,0 -5,-2 -5,-5 z" />
        <path
           inkscape:connector-curvature="0"
           id="path6552"
           d="m 160,36 c 0,-8 5,-18 10,-21 6,-3 10,1 10,9 0,8 -4,18 -10,21 -5,3 -10,-1 -10,-9 z" />
        <path
           inkscape:connector-curvature="0"
           id="path6554"
           d="m 480,36 c 0,-8 5,-18 10,-21 6,-3 10,1 10,9 0,8 -4,18 -10,21 -5,3 -10,-1 -10,-9 z" />
        <path
           inkscape:connector-curvature="0"
           id="path6556"
           d="m 800,36 c 0,-8 5,-18 10,-21 6,-3 10,1 10,9 0,8 -4,18 -10,21 -5,3 -10,-1 -10,-9 z" />
      </g>
      <g
         style="fill:#e3a64b;stroke:none"
         id="g6704"
         transform="matrix(0.05,0,0,-0.05,16,80)">
        <path
           inkscape:connector-curvature="0"
           id="path6560"
           d="m 10,943 c 0,-4 5,-15 10,-23 8,-13 10,-13 10,2 0,9 -4,20 -10,23 -5,3 -10,3 -10,-2 z" />
        <path
           inkscape:connector-curvature="0"
           id="path6562"
           d="m 330,943 c 0,-4 5,-15 10,-23 8,-13 10,-13 10,2 0,9 -4,20 -10,23 -5,3 -10,3 -10,-2 z" />
        <path
           inkscape:connector-curvature="0"
           id="path6564"
           d="m 650,943 c 0,-4 5,-15 10,-23 8,-13 10,-13 10,2 0,9 -4,20 -10,23 -5,3 -10,3 -10,-2 z" />
        <path
           inkscape:connector-curvature="0"
           id="path6566"
           d="m 142,900 c 0,-14 2,-19 5,-12 2,6 2,18 0,25 -3,6 -5,1 -5,-13 z" />
        <path
           inkscape:connector-curvature="0"
           id="path6568"
           d="m 162,852 c 0,-40 3,-74 7,-76 10,-7 11,117 1,134 -5,8 -8,-16 -8,-58 z" />
        <path
           inkscape:connector-curvature="0"
           id="path6570"
           d="m 462,900 c 0,-14 2,-19 5,-12 2,6 2,18 0,25 -3,6 -5,1 -5,-13 z" />
        <path
           inkscape:connector-curvature="0"
           id="path6572"
           d="m 482,852 c 0,-40 3,-74 7,-76 10,-7 11,117 1,134 -5,8 -8,-16 -8,-58 z" />
        <path
           inkscape:connector-curvature="0"
           id="path6574"
           d="m 782,900 c 0,-14 2,-19 5,-12 2,6 2,18 0,25 -3,6 -5,1 -5,-13 z" />
        <path
           inkscape:connector-curvature="0"
           id="path6576"
           d="m 802,852 c 0,-40 3,-74 7,-76 10,-7 11,117 1,134 -5,8 -8,-16 -8,-58 z" />
        <path
           inkscape:connector-curvature="0"
           id="path6578"
           d="m 282,875 c 0,-16 2,-22 5,-12 2,9 2,23 0,30 -3,6 -5,-1 -5,-18 z" />
        <path
           inkscape:connector-curvature="0"
           id="path6580"
           d="m 602,875 c 0,-16 2,-22 5,-12 2,9 2,23 0,30 -3,6 -5,-1 -5,-18 z" />
        <path
           inkscape:connector-curvature="0"
           id="path6582"
           d="m 922,875 c 0,-16 2,-22 5,-12 2,9 2,23 0,30 -3,6 -5,-1 -5,-18 z" />
        <path
           inkscape:connector-curvature="0"
           id="path6584"
           d="m 27,857 c -4,-10 -7,-33 -6,-50 l 1,-32 9,33 c 12,40 8,79 -4,49 z" />
        <path
           inkscape:connector-curvature="0"
           id="path6586"
           d="m 347,857 c -4,-10 -7,-33 -6,-50 l 1,-32 9,33 c 12,40 8,79 -4,49 z" />
        <path
           inkscape:connector-curvature="0"
           id="path6588"
           d="m 667,857 c -4,-10 -7,-33 -6,-50 l 1,-32 9,33 c 12,40 8,79 -4,49 z" />
        <path
           inkscape:connector-curvature="0"
           id="path6590"
           d="m 302,840 c 0,-14 2,-19 5,-12 2,6 2,18 0,25 -3,6 -5,1 -5,-13 z" />
        <path
           inkscape:connector-curvature="0"
           id="path6592"
           d="m 622,840 c 0,-14 2,-19 5,-12 2,6 2,18 0,25 -3,6 -5,1 -5,-13 z" />
        <path
           inkscape:connector-curvature="0"
           id="path6594"
           d="m 942,840 c 0,-14 2,-19 5,-12 2,6 2,18 0,25 -3,6 -5,1 -5,-13 z" />
        <path
           inkscape:connector-curvature="0"
           id="path6596"
           d="m 240,705 c 0,-3 2,-5 5,-5 3,0 5,2 5,5 0,3 -2,5 -5,5 -3,0 -5,-2 -5,-5 z" />
        <path
           inkscape:connector-curvature="0"
           id="path6598"
           d="m 560,705 c 0,-3 2,-5 5,-5 3,0 5,2 5,5 0,3 -2,5 -5,5 -3,0 -5,-2 -5,-5 z" />
        <path
           inkscape:connector-curvature="0"
           id="path6600"
           d="m 880,705 c 0,-3 2,-5 5,-5 3,0 5,2 5,5 0,3 -2,5 -5,5 -3,0 -5,-2 -5,-5 z" />
        <path
           inkscape:connector-curvature="0"
           id="path6602"
           d="m 160,676 c 0,-8 5,-18 10,-21 6,-3 10,1 10,9 0,8 -4,18 -10,21 -5,3 -10,-1 -10,-9 z" />
        <path
           inkscape:connector-curvature="0"
           id="path6604"
           d="m 480,676 c 0,-8 5,-18 10,-21 6,-3 10,1 10,9 0,8 -4,18 -10,21 -5,3 -10,-1 -10,-9 z" />
        <path
           inkscape:connector-curvature="0"
           id="path6606"
           d="m 800,676 c 0,-8 5,-18 10,-21 6,-3 10,1 10,9 0,8 -4,18 -10,21 -5,3 -10,-1 -10,-9 z" />
        <path
           inkscape:connector-curvature="0"
           id="path6608"
           d="m 10,623 c 0,-4 5,-15 10,-23 8,-13 10,-13 10,2 0,9 -4,20 -10,23 -5,3 -10,3 -10,-2 z" />
        <path
           inkscape:connector-curvature="0"
           id="path6610"
           d="m 330,623 c 0,-4 5,-15 10,-23 8,-13 10,-13 10,2 0,9 -4,20 -10,23 -5,3 -10,3 -10,-2 z" />
        <path
           inkscape:connector-curvature="0"
           id="path6612"
           d="m 650,623 c 0,-4 5,-15 10,-23 8,-13 10,-13 10,2 0,9 -4,20 -10,23 -5,3 -10,3 -10,-2 z" />
        <path
           inkscape:connector-curvature="0"
           id="path6614"
           d="m 142,580 c 0,-14 2,-19 5,-12 2,6 2,18 0,25 -3,6 -5,1 -5,-13 z" />
        <path
           inkscape:connector-curvature="0"
           id="path6616"
           d="m 162,532 c 0,-40 3,-74 7,-76 10,-7 11,117 1,134 -5,8 -8,-16 -8,-58 z" />
        <path
           inkscape:connector-curvature="0"
           id="path6618"
           d="m 462,580 c 0,-14 2,-19 5,-12 2,6 2,18 0,25 -3,6 -5,1 -5,-13 z" />
        <path
           inkscape:connector-curvature="0"
           id="path6620"
           d="m 482,532 c 0,-40 3,-74 7,-76 10,-7 11,117 1,134 -5,8 -8,-16 -8,-58 z" />
        <path
           inkscape:connector-curvature="0"
           id="path6622"
           d="m 782,580 c 0,-14 2,-19 5,-12 2,6 2,18 0,25 -3,6 -5,1 -5,-13 z" />
        <path
           inkscape:connector-curvature="0"
           id="path6624"
           d="m 802,532 c 0,-40 3,-74 7,-76 10,-7 11,117 1,134 -5,8 -8,-16 -8,-58 z" />
        <path
           inkscape:connector-curvature="0"
           id="path6626"
           d="m 282,555 c 0,-16 2,-22 5,-12 2,9 2,23 0,30 -3,6 -5,-1 -5,-18 z" />
        <path
           inkscape:connector-curvature="0"
           id="path6628"
           d="m 602,555 c 0,-16 2,-22 5,-12 2,9 2,23 0,30 -3,6 -5,-1 -5,-18 z" />
        <path
           inkscape:connector-curvature="0"
           id="path6630"
           d="m 922,555 c 0,-16 2,-22 5,-12 2,9 2,23 0,30 -3,6 -5,-1 -5,-18 z" />
        <path
           inkscape:connector-curvature="0"
           id="path6632"
           d="m 27,537 c -4,-10 -7,-33 -6,-50 l 1,-32 9,33 c 12,40 8,79 -4,49 z" />
        <path
           inkscape:connector-curvature="0"
           id="path6634"
           d="m 347,537 c -4,-10 -7,-33 -6,-50 l 1,-32 9,33 c 12,40 8,79 -4,49 z" />
        <path
           inkscape:connector-curvature="0"
           id="path6636"
           d="m 667,537 c -4,-10 -7,-33 -6,-50 l 1,-32 9,33 c 12,40 8,79 -4,49 z" />
        <path
           inkscape:connector-curvature="0"
           id="path6638"
           d="m 302,520 c 0,-14 2,-19 5,-12 2,6 2,18 0,25 -3,6 -5,1 -5,-13 z" />
        <path
           inkscape:connector-curvature="0"
           id="path6640"
           d="m 622,520 c 0,-14 2,-19 5,-12 2,6 2,18 0,25 -3,6 -5,1 -5,-13 z" />
        <path
           inkscape:connector-curvature="0"
           id="path6642"
           d="m 942,520 c 0,-14 2,-19 5,-12 2,6 2,18 0,25 -3,6 -5,1 -5,-13 z" />
        <path
           inkscape:connector-curvature="0"
           id="path6644"
           d="m 240,385 c 0,-3 2,-5 5,-5 3,0 5,2 5,5 0,3 -2,5 -5,5 -3,0 -5,-2 -5,-5 z" />
        <path
           inkscape:connector-curvature="0"
           id="path6646"
           d="m 560,385 c 0,-3 2,-5 5,-5 3,0 5,2 5,5 0,3 -2,5 -5,5 -3,0 -5,-2 -5,-5 z" />
        <path
           inkscape:connector-curvature="0"
           id="path6648"
           d="m 880,385 c 0,-3 2,-5 5,-5 3,0 5,2 5,5 0,3 -2,5 -5,5 -3,0 -5,-2 -5,-5 z" />
        <path
           inkscape:connector-curvature="0"
           id="path6650"
           d="m 160,356 c 0,-8 5,-18 10,-21 6,-3 10,1 10,9 0,8 -4,18 -10,21 -5,3 -10,-1 -10,-9 z" />
        <path
           inkscape:connector-curvature="0"
           id="path6652"
           d="m 480,356 c 0,-8 5,-18 10,-21 6,-3 10,1 10,9 0,8 -4,18 -10,21 -5,3 -10,-1 -10,-9 z" />
        <path
           inkscape:connector-curvature="0"
           id="path6654"
           d="m 800,356 c 0,-8 5,-18 10,-21 6,-3 10,1 10,9 0,8 -4,18 -10,21 -5,3 -10,-1 -10,-9 z" />
        <path
           inkscape:connector-curvature="0"
           id="path6656"
           d="m 10,303 c 0,-4 5,-15 10,-23 8,-13 10,-13 10,2 0,9 -4,20 -10,23 -5,3 -10,3 -10,-2 z" />
        <path
           inkscape:connector-curvature="0"
           id="path6658"
           d="m 330,303 c 0,-4 5,-15 10,-23 8,-13 10,-13 10,2 0,9 -4,20 -10,23 -5,3 -10,3 -10,-2 z" />
        <path
           inkscape:connector-curvature="0"
           id="path6660"
           d="m 650,303 c 0,-4 5,-15 10,-23 8,-13 10,-13 10,2 0,9 -4,20 -10,23 -5,3 -10,3 -10,-2 z" />
        <path
           inkscape:connector-curvature="0"
           id="path6662"
           d="m 142,260 c 0,-14 2,-19 5,-12 2,6 2,18 0,25 -3,6 -5,1 -5,-13 z" />
        <path
           inkscape:connector-curvature="0"
           id="path6664"
           d="m 162,212 c 0,-40 3,-74 7,-76 10,-7 11,117 1,134 -5,8 -8,-16 -8,-58 z" />
        <path
           inkscape:connector-curvature="0"
           id="path6666"
           d="m 462,260 c 0,-14 2,-19 5,-12 2,6 2,18 0,25 -3,6 -5,1 -5,-13 z" />
        <path
           inkscape:connector-curvature="0"
           id="path6668"
           d="m 482,212 c 0,-40 3,-74 7,-76 10,-7 11,117 1,134 -5,8 -8,-16 -8,-58 z" />
        <path
           inkscape:connector-curvature="0"
           id="path6670"
           d="m 782,260 c 0,-14 2,-19 5,-12 2,6 2,18 0,25 -3,6 -5,1 -5,-13 z" />
        <path
           inkscape:connector-curvature="0"
           id="path6672"
           d="m 802,212 c 0,-40 3,-74 7,-76 10,-7 11,117 1,134 -5,8 -8,-16 -8,-58 z" />
        <path
           inkscape:connector-curvature="0"
           id="path6674"
           d="m 282,235 c 0,-16 2,-22 5,-12 2,9 2,23 0,30 -3,6 -5,-1 -5,-18 z" />
        <path
           inkscape:connector-curvature="0"
           id="path6676"
           d="m 602,235 c 0,-16 2,-22 5,-12 2,9 2,23 0,30 -3,6 -5,-1 -5,-18 z" />
        <path
           inkscape:connector-curvature="0"
           id="path6678"
           d="m 922,235 c 0,-16 2,-22 5,-12 2,9 2,23 0,30 -3,6 -5,-1 -5,-18 z" />
        <path
           inkscape:connector-curvature="0"
           id="path6680"
           d="m 27,217 c -4,-10 -7,-33 -6,-50 l 1,-32 9,33 c 12,40 8,79 -4,49 z" />
        <path
           inkscape:connector-curvature="0"
           id="path6682"
           d="m 347,217 c -4,-10 -7,-33 -6,-50 l 1,-32 9,33 c 12,40 8,79 -4,49 z" />
        <path
           inkscape:connector-curvature="0"
           id="path6684"
           d="m 667,217 c -4,-10 -7,-33 -6,-50 l 1,-32 9,33 c 12,40 8,79 -4,49 z" />
        <path
           inkscape:connector-curvature="0"
           id="path6686"
           d="m 302,200 c 0,-14 2,-19 5,-12 2,6 2,18 0,25 -3,6 -5,1 -5,-13 z" />
        <path
           inkscape:connector-curvature="0"
           id="path6688"
           d="m 622,200 c 0,-14 2,-19 5,-12 2,6 2,18 0,25 -3,6 -5,1 -5,-13 z" />
        <path
           inkscape:connector-curvature="0"
           id="path6690"
           d="m 942,200 c 0,-14 2,-19 5,-12 2,6 2,18 0,25 -3,6 -5,1 -5,-13 z" />
        <path
           inkscape:connector-curvature="0"
           id="path6692"
           d="m 240,65 c 0,-3 2,-5 5,-5 3,0 5,2 5,5 0,3 -2,5 -5,5 -3,0 -5,-2 -5,-5 z" />
        <path
           inkscape:connector-curvature="0"
           id="path6694"
           d="m 560,65 c 0,-3 2,-5 5,-5 3,0 5,2 5,5 0,3 -2,5 -5,5 -3,0 -5,-2 -5,-5 z" />
        <path
           inkscape:connector-curvature="0"
           id="path6696"
           d="m 880,65 c 0,-3 2,-5 5,-5 3,0 5,2 5,5 0,3 -2,5 -5,5 -3,0 -5,-2 -5,-5 z" />
        <path
           inkscape:connector-curvature="0"
           id="path6698"
           d="m 160,36 c 0,-8 5,-18 10,-21 6,-3 10,1 10,9 0,8 -4,18 -10,21 -5,3 -10,-1 -10,-9 z" />
        <path
           inkscape:connector-curvature="0"
           id="path6700"
           d="m 480,36 c 0,-8 5,-18 10,-21 6,-3 10,1 10,9 0,8 -4,18 -10,21 -5,3 -10,-1 -10,-9 z" />
        <path
           inkscape:connector-curvature="0"
           id="path6702"
           d="m 800,36 c 0,-8 5,-18 10,-21 6,-3 10,1 10,9 0,8 -4,18 -10,21 -5,3 -10,-1 -10,-9 z" />
      </g>
    </g>
  </g>
</svg>
