<?xml version="1.0" encoding="UTF-8" standalone="no"?>
<!-- Created with Inkscape (http://www.inkscape.org/) -->

<svg
   xmlns:dc="http://purl.org/dc/elements/1.1/"
   xmlns:cc="http://creativecommons.org/ns#"
   xmlns:rdf="http://www.w3.org/1999/02/22-rdf-syntax-ns#"
   xmlns:svg="http://www.w3.org/2000/svg"
   xmlns="http://www.w3.org/2000/svg"
   xmlns:sodipodi="http://sodipodi.sourceforge.net/DTD/sodipodi-0.dtd"
   xmlns:inkscape="http://www.inkscape.org/namespaces/inkscape"
   width="16px"
   height="16px"
   viewBox="0 0 16px 16px"
   version="1.1"
   id="svgMain"
   inkscape:version="0.92.2 (5c3e80d, 2017-08-06)"
   sodipodi:docname="reference_SVG.svg">
  <defs
     id="defs4542" />
  <sodipodi:namedview
     id="base"
     pagecolor="#ffffff"
     bordercolor="#666666"
     borderopacity="1.0"
     inkscape:pageopacity="0.0"
     inkscape:pageshadow="2"
     inkscape:zoom="1"
     inkscape:cx="0"
     inkscape:cy="0"
     inkscape:document-units="px"
     inkscape:current-layer="layer1"
     showgrid="false"
     units="px"
     inkscape:window-width="1024"
     inkscape:window-height="768"
     inkscape:window-x="-8"
     inkscape:window-y="-8"
     inkscape:window-maximized="1" />
  <metadata
     id="metadata1">
    <rdf:RDF>
      <cc:Work
         rdf:about="">
        <dc:format>image/svg+xml</dc:format>
        <dc:type
           rdf:resource="http://purl.org/dc/dcmitype/StillImage" />
        <dc:title />
      </cc:Work>
    </rdf:RDF>
  </metadata>
  <g transform="translate(-16,-16) scale(0.5,0.5)"
     inkscape:label="Layer 1"
     inkscape:groupmode="layer"
     id="layer1">
    <!-- INSERT MARKER -->
<g transform="translate(0.000000,96.000000) scale(0.100000,-0.100000)"
fill="#3e3a3a" stroke="none">
<path d="M60 480 l0 -480 100 0 100 0 0 480 0 480 -100 0 -100 0 0 -480z"/>
<path d="M380 480 l0 -480 100 0 100 0 0 480 0 480 -100 0 -100 0 0 -480z"/>
<path d="M700 480 l0 -480 100 0 100 0 0 480 0 480 -100 0 -100 0 0 -480z"/>
</g>
<g transform="translate(0.000000,96.000000) scale(0.100000,-0.100000)"
fill="#4a4646" stroke="none">
<path d="M90 950 c0 -5 -7 -10 -16 -10 -9 0 -14 -6 -11 -12 6 -18 46 -16 86 4
43 22 51 15 22 -16 -18 -19 -29 -23 -45 -17 -11 4 -32 5 -46 1 l-25 -6 22 -12
c13 -8 38 -10 61 -6 47 7 61 -8 26 -26 -19 -11 -34 -11 -64 -3 -36 9 -40 8
-40 -8 0 -9 6 -20 13 -22 9 -4 8 -8 -3 -16 -13 -9 -13 -12 -1 -20 24 -15 42
-3 28 19 -14 24 -3 37 18 20 10 -8 19 -9 28 -2 6 5 21 6 32 2 17 -6 14 -9 -19
-20 l-38 -12 27 -18 c17 -11 23 -20 16 -25 -7 -4 -19 -1 -27 6 -11 9 -18 9
-26 1 -15 -15 1 -35 24 -28 12 2 27 -2 35 -10 15 -15 38 -20 29 -6 -2 4 7 9
22 10 34 3 50 18 34 34 -9 9 -18 9 -37 0 -32 -15 -35 -15 -35 -2 0 6 7 10 15
10 8 0 15 5 15 10 0 6 11 10 25 10 14 0 25 6 25 13 0 9 -10 12 -30 9 -18 -3
-30 0 -30 7 0 6 14 11 30 11 34 0 38 7 13 26 -17 13 -17 13 0 14 10 0 17 6 14
13 -2 6 -16 12 -32 12 -16 0 -30 6 -33 13 -3 10 4 12 32 7 34 -7 36 -6 36 18
0 20 -4 24 -20 20 -11 -3 -20 0 -20 6 0 7 -24 11 -65 11 -37 0 -65 -4 -65 -10z"/>
<path d="M410 950 c0 -5 -7 -10 -16 -10 -9 0 -14 -6 -11 -12 6 -18 46 -16 86
4 43 22 51 15 22 -16 -18 -19 -29 -23 -45 -17 -11 4 -32 5 -46 1 l-25 -6 22
-12 c13 -8 38 -10 61 -6 47 7 61 -8 26 -26 -19 -11 -34 -11 -64 -3 -36 9 -40
8 -40 -8 0 -9 6 -20 13 -22 9 -4 8 -8 -3 -16 -13 -9 -13 -12 -1 -20 24 -15 42
-3 28 19 -14 24 -3 37 18 20 10 -8 19 -9 28 -2 6 5 21 6 32 2 17 -6 14 -9 -19
-20 l-38 -12 27 -18 c17 -11 23 -20 16 -25 -7 -4 -19 -1 -27 6 -11 9 -18 9
-26 1 -15 -15 1 -35 24 -28 12 2 27 -2 35 -10 15 -15 38 -20 29 -6 -2 4 7 9
22 10 34 3 50 18 34 34 -9 9 -18 9 -37 0 -32 -15 -35 -15 -35 -2 0 6 7 10 15
10 8 0 15 5 15 10 0 6 11 10 25 10 14 0 25 6 25 13 0 9 -10 12 -30 9 -18 -3
-30 0 -30 7 0 6 14 11 30 11 34 0 38 7 13 26 -17 13 -17 13 0 14 10 0 17 6 14
13 -2 6 -16 12 -32 12 -16 0 -30 6 -33 13 -3 10 4 12 32 7 34 -7 36 -6 36 18
0 20 -4 24 -20 20 -11 -3 -20 0 -20 6 0 7 -24 11 -65 11 -37 0 -65 -4 -65 -10z"/>
<path d="M730 950 c0 -5 -7 -10 -16 -10 -9 0 -14 -6 -11 -12 6 -18 46 -16 86
4 43 22 51 15 22 -16 -18 -19 -29 -23 -45 -17 -11 4 -32 5 -46 1 l-25 -6 22
-12 c13 -8 38 -10 61 -6 47 7 61 -8 26 -26 -19 -11 -34 -11 -64 -3 -36 9 -40
8 -40 -8 0 -9 6 -20 13 -22 9 -4 8 -8 -3 -16 -13 -9 -13 -12 -1 -20 24 -15 42
-3 28 19 -14 24 -3 37 18 20 10 -8 19 -9 28 -2 6 5 21 6 32 2 17 -6 14 -9 -19
-20 l-38 -12 27 -18 c17 -11 23 -20 16 -25 -7 -4 -19 -1 -27 6 -11 9 -18 9
-26 1 -15 -15 1 -35 24 -28 12 2 27 -2 35 -10 15 -15 38 -20 29 -6 -2 4 7 9
22 10 34 3 50 18 34 34 -9 9 -18 9 -37 0 -32 -15 -35 -15 -35 -2 0 6 7 10 15
10 8 0 15 5 15 10 0 6 11 10 25 10 14 0 25 6 25 13 0 9 -10 12 -30 9 -18 -3
-30 0 -30 7 0 6 14 11 30 11 34 0 38 7 13 26 -17 13 -17 13 0 14 10 0 17 6 14
13 -2 6 -16 12 -32 12 -16 0 -30 6 -33 13 -3 10 4 12 32 7 34 -7 36 -6 36 18
0 20 -4 24 -20 20 -11 -3 -20 0 -20 6 0 7 -24 11 -65 11 -37 0 -65 -4 -65 -10z"/>
<path d="M60 740 c0 -5 5 -10 11 -10 5 0 7 5 4 10 -3 6 -8 10 -11 10 -2 0 -4
-4 -4 -10z"/>
<path d="M380 740 c0 -5 5 -10 11 -10 5 0 7 5 4 10 -3 6 -8 10 -11 10 -2 0 -4
-4 -4 -10z"/>
<path d="M700 740 c0 -5 5 -10 11 -10 5 0 7 5 4 10 -3 6 -8 10 -11 10 -2 0 -4
-4 -4 -10z"/>
<path d="M215 700 c3 -5 8 -10 11 -10 3 0 2 5 -1 10 -3 6 -8 10 -11 10 -3 0
-2 -4 1 -10z"/>
<path d="M240 695 c0 -12 -8 -14 -35 -11 -19 3 -33 1 -30 -4 7 -11 -20 -20
-61 -20 -31 0 -35 -3 -29 -20 5 -14 2 -20 -10 -20 -9 0 -15 -6 -12 -12 6 -18
46 -16 86 4 43 22 51 15 22 -16 -18 -19 -29 -23 -45 -17 -11 4 -32 5 -46 1
l-25 -6 22 -12 c13 -8 38 -10 61 -6 47 7 61 -8 26 -26 -19 -11 -34 -11 -64 -3
-36 9 -40 8 -40 -8 0 -9 6 -20 13 -22 9 -4 8 -8 -3 -16 -13 -9 -13 -12 -1 -20
24 -15 42 -3 28 19 -14 24 -3 37 18 20 10 -8 19 -9 28 -2 6 5 21 6 32 2 17 -6
14 -9 -19 -20 l-38 -12 27 -18 c17 -11 23 -20 16 -25 -7 -4 -19 -1 -27 6 -11
9 -18 9 -26 1 -15 -15 1 -35 24 -28 12 2 27 -2 35 -10 15 -15 38 -20 29 -6 -2
4 7 9 22 10 34 3 50 18 34 34 -9 9 -18 9 -37 0 -32 -15 -35 -15 -35 -2 0 6 7
10 15 10 8 0 15 5 15 10 0 6 11 10 25 10 14 0 25 6 25 13 0 9 -10 12 -30 9
-18 -3 -30 0 -30 7 0 6 14 11 30 11 34 0 38 7 13 26 -17 13 -17 13 0 14 10 0
17 6 14 13 -2 6 -16 12 -32 12 -16 0 -30 6 -33 13 -3 10 4 12 32 7 34 -7 36
-6 36 18 0 20 -4 24 -20 20 -16 -4 -20 0 -20 18 0 12 3 20 6 16 8 -7 34 17 34
32 0 5 -4 13 -10 16 -5 3 -10 -1 -10 -10z"/>
<path d="M535 700 c3 -5 8 -10 11 -10 3 0 2 5 -1 10 -3 6 -8 10 -11 10 -3 0
-2 -4 1 -10z"/>
<path d="M560 695 c0 -12 -8 -14 -35 -11 -19 3 -33 1 -30 -4 7 -11 -20 -20
-61 -20 -31 0 -35 -3 -29 -20 5 -14 2 -20 -10 -20 -9 0 -15 -6 -12 -12 6 -18
46 -16 86 4 43 22 51 15 22 -16 -18 -19 -29 -23 -45 -17 -11 4 -32 5 -46 1
l-25 -6 22 -12 c13 -8 38 -10 61 -6 47 7 61 -8 26 -26 -19 -11 -34 -11 -64 -3
-36 9 -40 8 -40 -8 0 -9 6 -20 13 -22 9 -4 8 -8 -3 -16 -13 -9 -13 -12 -1 -20
24 -15 42 -3 28 19 -14 24 -3 37 18 20 10 -8 19 -9 28 -2 6 5 21 6 32 2 17 -6
14 -9 -19 -20 l-38 -12 27 -18 c17 -11 23 -20 16 -25 -7 -4 -19 -1 -27 6 -11
9 -18 9 -26 1 -15 -15 1 -35 24 -28 12 2 27 -2 35 -10 15 -15 38 -20 29 -6 -2
4 7 9 22 10 34 3 50 18 34 34 -9 9 -18 9 -37 0 -32 -15 -35 -15 -35 -2 0 6 7
10 15 10 8 0 15 5 15 10 0 6 11 10 25 10 14 0 25 6 25 13 0 9 -10 12 -30 9
-18 -3 -30 0 -30 7 0 6 14 11 30 11 34 0 38 7 13 26 -17 13 -17 13 0 14 10 0
17 6 14 13 -2 6 -16 12 -32 12 -16 0 -30 6 -33 13 -3 10 4 12 32 7 34 -7 36
-6 36 18 0 20 -4 24 -20 20 -16 -4 -20 0 -20 18 0 12 3 20 6 16 8 -7 34 17 34
32 0 5 -4 13 -10 16 -5 3 -10 -1 -10 -10z"/>
<path d="M855 700 c3 -5 8 -10 11 -10 3 0 2 5 -1 10 -3 6 -8 10 -11 10 -3 0
-2 -4 1 -10z"/>
<path d="M880 695 c0 -12 -8 -14 -35 -11 -19 3 -33 1 -30 -4 7 -11 -20 -20
-61 -20 -31 0 -35 -3 -29 -20 5 -14 2 -20 -10 -20 -9 0 -15 -6 -12 -12 6 -18
46 -16 86 4 43 22 51 15 22 -16 -18 -19 -29 -23 -45 -17 -11 4 -32 5 -46 1
l-25 -6 22 -12 c13 -8 38 -10 61 -6 47 7 61 -8 26 -26 -19 -11 -34 -11 -64 -3
-36 9 -40 8 -40 -8 0 -9 6 -20 13 -22 9 -4 8 -8 -3 -16 -13 -9 -13 -12 -1 -20
24 -15 42 -3 28 19 -14 24 -3 37 18 20 10 -8 19 -9 28 -2 6 5 21 6 32 2 17 -6
14 -9 -19 -20 l-38 -12 27 -18 c17 -11 23 -20 16 -25 -7 -4 -19 -1 -27 6 -11
9 -18 9 -26 1 -15 -15 1 -35 24 -28 12 2 27 -2 35 -10 15 -15 38 -20 29 -6 -2
4 7 9 22 10 34 3 50 18 34 34 -9 9 -18 9 -37 0 -32 -15 -35 -15 -35 -2 0 6 7
10 15 10 8 0 15 5 15 10 0 6 11 10 25 10 14 0 25 6 25 13 0 9 -10 12 -30 9
-18 -3 -30 0 -30 7 0 6 14 11 30 11 34 0 38 7 13 26 -17 13 -17 13 0 14 10 0
17 6 14 13 -2 6 -16 12 -32 12 -16 0 -30 6 -33 13 -3 10 4 12 32 7 34 -7 36
-6 36 18 0 20 -4 24 -20 20 -16 -4 -20 0 -20 18 0 12 3 20 6 16 8 -7 34 17 34
32 0 5 -4 13 -10 16 -5 3 -10 -1 -10 -10z"/>
<path d="M65 690 c3 -5 21 -10 40 -10 19 0 37 5 40 10 4 6 -12 10 -40 10 -28
0 -44 -4 -40 -10z"/>
<path d="M385 690 c3 -5 21 -10 40 -10 19 0 37 5 40 10 4 6 -12 10 -40 10 -28
0 -44 -4 -40 -10z"/>
<path d="M705 690 c3 -5 21 -10 40 -10 19 0 37 5 40 10 4 6 -12 10 -40 10 -28
0 -44 -4 -40 -10z"/>
<path d="M60 665 c0 -3 2 -5 5 -5 3 0 5 2 5 5 0 3 -2 5 -5 5 -3 0 -5 -2 -5 -5z"/>
<path d="M380 665 c0 -3 2 -5 5 -5 3 0 5 2 5 5 0 3 -2 5 -5 5 -3 0 -5 -2 -5
-5z"/>
<path d="M700 665 c0 -3 2 -5 5 -5 3 0 5 2 5 5 0 3 -2 5 -5 5 -3 0 -5 -2 -5
-5z"/>
<path d="M60 420 c0 -5 5 -10 11 -10 5 0 7 5 4 10 -3 6 -8 10 -11 10 -2 0 -4
-4 -4 -10z"/>
<path d="M380 420 c0 -5 5 -10 11 -10 5 0 7 5 4 10 -3 6 -8 10 -11 10 -2 0 -4
-4 -4 -10z"/>
<path d="M700 420 c0 -5 5 -10 11 -10 5 0 7 5 4 10 -3 6 -8 10 -11 10 -2 0 -4
-4 -4 -10z"/>
<path d="M215 380 c3 -5 8 -10 11 -10 3 0 2 5 -1 10 -3 6 -8 10 -11 10 -3 0
-2 -4 1 -10z"/>
<path d="M240 375 c0 -12 -8 -14 -35 -11 -19 3 -33 1 -30 -4 7 -11 -20 -20
-61 -20 -31 0 -35 -3 -29 -20 5 -14 2 -20 -10 -20 -9 0 -15 -6 -12 -12 6 -18
46 -16 86 4 43 22 51 15 22 -16 -18 -19 -29 -23 -45 -17 -11 4 -32 5 -46 1
l-25 -6 22 -12 c13 -8 38 -10 61 -6 47 7 61 -8 26 -26 -19 -11 -34 -11 -64 -3
-36 9 -40 8 -40 -8 0 -9 6 -20 13 -22 9 -4 8 -8 -3 -16 -13 -9 -13 -12 -1 -20
24 -15 42 -3 28 19 -14 24 -3 37 18 20 10 -8 19 -9 28 -2 6 5 21 6 32 2 17 -6
14 -9 -19 -20 l-38 -12 27 -18 c17 -11 23 -20 16 -25 -7 -4 -19 -1 -27 6 -11
9 -18 9 -26 1 -15 -15 1 -35 24 -28 12 2 27 -2 35 -10 15 -15 38 -20 29 -6 -2
4 7 9 22 10 34 3 50 18 34 34 -9 9 -18 9 -37 0 -32 -15 -35 -15 -35 -2 0 6 7
10 15 10 8 0 15 5 15 10 0 6 11 10 25 10 14 0 25 6 25 13 0 9 -10 12 -30 9
-18 -3 -30 0 -30 7 0 6 14 11 30 11 34 0 38 7 13 26 -17 13 -17 13 0 14 10 0
17 6 14 13 -2 6 -16 12 -32 12 -16 0 -30 6 -33 13 -3 10 4 12 32 7 34 -7 36
-6 36 18 0 20 -4 24 -20 20 -16 -4 -20 0 -20 18 0 12 3 20 6 16 8 -7 34 17 34
32 0 5 -4 13 -10 16 -5 3 -10 -1 -10 -10z"/>
<path d="M535 380 c3 -5 8 -10 11 -10 3 0 2 5 -1 10 -3 6 -8 10 -11 10 -3 0
-2 -4 1 -10z"/>
<path d="M560 375 c0 -12 -8 -14 -35 -11 -19 3 -33 1 -30 -4 7 -11 -20 -20
-61 -20 -31 0 -35 -3 -29 -20 5 -14 2 -20 -10 -20 -9 0 -15 -6 -12 -12 6 -18
46 -16 86 4 43 22 51 15 22 -16 -18 -19 -29 -23 -45 -17 -11 4 -32 5 -46 1
l-25 -6 22 -12 c13 -8 38 -10 61 -6 47 7 61 -8 26 -26 -19 -11 -34 -11 -64 -3
-36 9 -40 8 -40 -8 0 -9 6 -20 13 -22 9 -4 8 -8 -3 -16 -13 -9 -13 -12 -1 -20
24 -15 42 -3 28 19 -14 24 -3 37 18 20 10 -8 19 -9 28 -2 6 5 21 6 32 2 17 -6
14 -9 -19 -20 l-38 -12 27 -18 c17 -11 23 -20 16 -25 -7 -4 -19 -1 -27 6 -11
9 -18 9 -26 1 -15 -15 1 -35 24 -28 12 2 27 -2 35 -10 15 -15 38 -20 29 -6 -2
4 7 9 22 10 34 3 50 18 34 34 -9 9 -18 9 -37 0 -32 -15 -35 -15 -35 -2 0 6 7
10 15 10 8 0 15 5 15 10 0 6 11 10 25 10 14 0 25 6 25 13 0 9 -10 12 -30 9
-18 -3 -30 0 -30 7 0 6 14 11 30 11 34 0 38 7 13 26 -17 13 -17 13 0 14 10 0
17 6 14 13 -2 6 -16 12 -32 12 -16 0 -30 6 -33 13 -3 10 4 12 32 7 34 -7 36
-6 36 18 0 20 -4 24 -20 20 -16 -4 -20 0 -20 18 0 12 3 20 6 16 8 -7 34 17 34
32 0 5 -4 13 -10 16 -5 3 -10 -1 -10 -10z"/>
<path d="M855 380 c3 -5 8 -10 11 -10 3 0 2 5 -1 10 -3 6 -8 10 -11 10 -3 0
-2 -4 1 -10z"/>
<path d="M880 375 c0 -12 -8 -14 -35 -11 -19 3 -33 1 -30 -4 7 -11 -20 -20
-61 -20 -31 0 -35 -3 -29 -20 5 -14 2 -20 -10 -20 -9 0 -15 -6 -12 -12 6 -18
46 -16 86 4 43 22 51 15 22 -16 -18 -19 -29 -23 -45 -17 -11 4 -32 5 -46 1
l-25 -6 22 -12 c13 -8 38 -10 61 -6 47 7 61 -8 26 -26 -19 -11 -34 -11 -64 -3
-36 9 -40 8 -40 -8 0 -9 6 -20 13 -22 9 -4 8 -8 -3 -16 -13 -9 -13 -12 -1 -20
24 -15 42 -3 28 19 -14 24 -3 37 18 20 10 -8 19 -9 28 -2 6 5 21 6 32 2 17 -6
14 -9 -19 -20 l-38 -12 27 -18 c17 -11 23 -20 16 -25 -7 -4 -19 -1 -27 6 -11
9 -18 9 -26 1 -15 -15 1 -35 24 -28 12 2 27 -2 35 -10 15 -15 38 -20 29 -6 -2
4 7 9 22 10 34 3 50 18 34 34 -9 9 -18 9 -37 0 -32 -15 -35 -15 -35 -2 0 6 7
10 15 10 8 0 15 5 15 10 0 6 11 10 25 10 14 0 25 6 25 13 0 9 -10 12 -30 9
-18 -3 -30 0 -30 7 0 6 14 11 30 11 34 0 38 7 13 26 -17 13 -17 13 0 14 10 0
17 6 14 13 -2 6 -16 12 -32 12 -16 0 -30 6 -33 13 -3 10 4 12 32 7 34 -7 36
-6 36 18 0 20 -4 24 -20 20 -16 -4 -20 0 -20 18 0 12 3 20 6 16 8 -7 34 17 34
32 0 5 -4 13 -10 16 -5 3 -10 -1 -10 -10z"/>
<path d="M65 370 c3 -5 21 -10 40 -10 19 0 37 5 40 10 4 6 -12 10 -40 10 -28
0 -44 -4 -40 -10z"/>
<path d="M385 370 c3 -5 21 -10 40 -10 19 0 37 5 40 10 4 6 -12 10 -40 10 -28
0 -44 -4 -40 -10z"/>
<path d="M705 370 c3 -5 21 -10 40 -10 19 0 37 5 40 10 4 6 -12 10 -40 10 -28
0 -44 -4 -40 -10z"/>
<path d="M60 345 c0 -3 2 -5 5 -5 3 0 5 2 5 5 0 3 -2 5 -5 5 -3 0 -5 -2 -5 -5z"/>
<path d="M380 345 c0 -3 2 -5 5 -5 3 0 5 2 5 5 0 3 -2 5 -5 5 -3 0 -5 -2 -5
-5z"/>
<path d="M700 345 c0 -3 2 -5 5 -5 3 0 5 2 5 5 0 3 -2 5 -5 5 -3 0 -5 -2 -5
-5z"/>
<path d="M60 100 c0 -5 5 -10 11 -10 5 0 7 5 4 10 -3 6 -8 10 -11 10 -2 0 -4
-4 -4 -10z"/>
<path d="M380 100 c0 -5 5 -10 11 -10 5 0 7 5 4 10 -3 6 -8 10 -11 10 -2 0 -4
-4 -4 -10z"/>
<path d="M700 100 c0 -5 5 -10 11 -10 5 0 7 5 4 10 -3 6 -8 10 -11 10 -2 0 -4
-4 -4 -10z"/>
<path d="M215 60 c3 -5 8 -10 11 -10 3 0 2 5 -1 10 -3 6 -8 10 -11 10 -3 0 -2
-4 1 -10z"/>
<path d="M240 55 c0 -12 -8 -14 -35 -11 -19 3 -33 1 -30 -4 7 -11 -20 -20 -61
-20 -19 0 -34 -4 -34 -10 0 -6 30 -10 70 -10 47 0 70 4 70 12 0 6 3 9 6 5 8
-7 34 17 34 32 0 5 -4 13 -10 16 -5 3 -10 -1 -10 -10z"/>
<path d="M535 60 c3 -5 8 -10 11 -10 3 0 2 5 -1 10 -3 6 -8 10 -11 10 -3 0 -2
-4 1 -10z"/>
<path d="M560 55 c0 -12 -8 -14 -35 -11 -19 3 -33 1 -30 -4 7 -11 -20 -20 -61
-20 -19 0 -34 -4 -34 -10 0 -6 30 -10 70 -10 47 0 70 4 70 12 0 6 3 9 6 5 8
-7 34 17 34 32 0 5 -4 13 -10 16 -5 3 -10 -1 -10 -10z"/>
<path d="M855 60 c3 -5 8 -10 11 -10 3 0 2 5 -1 10 -3 6 -8 10 -11 10 -3 0 -2
-4 1 -10z"/>
<path d="M880 55 c0 -12 -8 -14 -35 -11 -19 3 -33 1 -30 -4 7 -11 -20 -20 -61
-20 -19 0 -34 -4 -34 -10 0 -6 30 -10 70 -10 47 0 70 4 70 12 0 6 3 9 6 5 8
-7 34 17 34 32 0 5 -4 13 -10 16 -5 3 -10 -1 -10 -10z"/>
<path d="M65 50 c3 -5 21 -10 40 -10 19 0 37 5 40 10 4 6 -12 10 -40 10 -28 0
-44 -4 -40 -10z"/>
<path d="M385 50 c3 -5 21 -10 40 -10 19 0 37 5 40 10 4 6 -12 10 -40 10 -28
0 -44 -4 -40 -10z"/>
<path d="M705 50 c3 -5 21 -10 40 -10 19 0 37 5 40 10 4 6 -12 10 -40 10 -28
0 -44 -4 -40 -10z"/>
<path d="M60 25 c0 -3 2 -5 5 -5 3 0 5 2 5 5 0 3 -2 5 -5 5 -3 0 -5 -2 -5 -5z"/>
<path d="M380 25 c0 -3 2 -5 5 -5 3 0 5 2 5 5 0 3 -2 5 -5 5 -3 0 -5 -2 -5 -5z"/>
<path d="M700 25 c0 -3 2 -5 5 -5 3 0 5 2 5 5 0 3 -2 5 -5 5 -3 0 -5 -2 -5 -5z"/>
</g>
<g transform="translate(0.000000,96.000000) scale(0.100000,-0.100000)"
fill="#423f3f" stroke="none">
<path d="M90 950 c0 -5 4 -10 9 -10 6 0 13 5 16 10 3 6 -1 10 -9 10 -9 0 -16
-4 -16 -10z"/>
<path d="M150 956 c0 -2 7 -6 15 -10 8 -3 15 -1 15 4 0 6 -7 10 -15 10 -8 0
-15 -2 -15 -4z"/>
<path d="M205 950 c3 -5 8 -10 11 -10 2 0 4 5 4 10 0 6 -5 10 -11 10 -5 0 -7
-4 -4 -10z"/>
<path d="M410 950 c0 -5 4 -10 9 -10 6 0 13 5 16 10 3 6 -1 10 -9 10 -9 0 -16
-4 -16 -10z"/>
<path d="M470 956 c0 -2 7 -6 15 -10 8 -3 15 -1 15 4 0 6 -7 10 -15 10 -8 0
-15 -2 -15 -4z"/>
<path d="M525 950 c3 -5 8 -10 11 -10 2 0 4 5 4 10 0 6 -5 10 -11 10 -5 0 -7
-4 -4 -10z"/>
<path d="M730 950 c0 -5 4 -10 9 -10 6 0 13 5 16 10 3 6 -1 10 -9 10 -9 0 -16
-4 -16 -10z"/>
<path d="M790 956 c0 -2 7 -6 15 -10 8 -3 15 -1 15 4 0 6 -7 10 -15 10 -8 0
-15 -2 -15 -4z"/>
<path d="M845 950 c3 -5 8 -10 11 -10 2 0 4 5 4 10 0 6 -5 10 -11 10 -5 0 -7
-4 -4 -10z"/>
<path d="M245 941 c-3 -5 -1 -12 5 -16 5 -3 10 1 10 9 0 18 -6 21 -15 7z"/>
<path d="M565 941 c-3 -5 -1 -12 5 -16 5 -3 10 1 10 9 0 18 -6 21 -15 7z"/>
<path d="M885 941 c-3 -5 -1 -12 5 -16 5 -3 10 1 10 9 0 18 -6 21 -15 7z"/>
<path d="M73 913 c4 -3 10 -3 14 0 3 4 0 7 -7 7 -7 0 -10 -3 -7 -7z"/>
<path d="M210 910 c20 -13 43 -13 35 0 -3 6 -16 10 -28 10 -18 0 -19 -2 -7
-10z"/>
<path d="M393 913 c4 -3 10 -3 14 0 3 4 0 7 -7 7 -7 0 -10 -3 -7 -7z"/>
<path d="M530 910 c20 -13 43 -13 35 0 -3 6 -16 10 -28 10 -18 0 -19 -2 -7
-10z"/>
<path d="M713 913 c4 -3 10 -3 14 0 3 4 0 7 -7 7 -7 0 -10 -3 -7 -7z"/>
<path d="M850 910 c20 -13 43 -13 35 0 -3 6 -16 10 -28 10 -18 0 -19 -2 -7
-10z"/>
<path d="M80 900 l-25 -7 27 -13 c27 -13 58 -8 58 9 0 13 -31 18 -60 11z"/>
<path d="M400 900 l-25 -7 27 -13 c27 -13 58 -8 58 9 0 13 -31 18 -60 11z"/>
<path d="M720 900 l-25 -7 27 -13 c27 -13 58 -8 58 9 0 13 -31 18 -60 11z"/>
<path d="M160 890 c-12 -8 -9 -10 13 -10 16 0 26 4 22 10 -8 12 -16 12 -35 0z"/>
<path d="M480 890 c-12 -8 -9 -10 13 -10 16 0 26 4 22 10 -8 12 -16 12 -35 0z"/>
<path d="M800 890 c-12 -8 -9 -10 13 -10 16 0 26 4 22 10 -8 12 -16 12 -35 0z"/>
<path d="M60 840 c0 -10 7 -20 15 -24 8 -3 15 -4 15 -2 0 3 3 11 6 19 3 9 -3
16 -15 20 -16 4 -21 0 -21 -13z"/>
<path d="M169 858 c-8 -26 -5 -38 9 -39 10 0 0 -8 -22 -18 l-38 -17 26 -13
c32 -17 25 -31 -17 -31 -22 0 -28 -3 -20 -11 13 -13 63 -1 70 17 3 8 11 14 19
14 8 0 14 5 14 10 0 6 -7 10 -15 10 -13 0 -13 3 -3 20 7 11 22 20 33 20 17 0
17 2 5 10 -13 9 -13 10 0 10 13 0 13 1 0 10 -13 9 -59 14 -61 8z"/>
<path d="M380 840 c0 -10 7 -20 15 -24 8 -3 15 -4 15 -2 0 3 3 11 6 19 3 9 -3
16 -15 20 -16 4 -21 0 -21 -13z"/>
<path d="M489 858 c-8 -26 -5 -38 9 -39 10 0 0 -8 -22 -18 l-38 -17 26 -13
c32 -17 25 -31 -17 -31 -22 0 -28 -3 -20 -11 13 -13 63 -1 70 17 3 8 11 14 19
14 8 0 14 5 14 10 0 6 -7 10 -15 10 -13 0 -13 3 -3 20 7 11 22 20 33 20 17 0
17 2 5 10 -13 9 -13 10 0 10 13 0 13 1 0 10 -13 9 -59 14 -61 8z"/>
<path d="M700 840 c0 -10 7 -20 15 -24 8 -3 15 -4 15 -2 0 3 3 11 6 19 3 9 -3
16 -15 20 -16 4 -21 0 -21 -13z"/>
<path d="M809 858 c-8 -26 -5 -38 9 -39 10 0 0 -8 -22 -18 l-38 -17 26 -13
c32 -17 25 -31 -17 -31 -22 0 -28 -3 -20 -11 13 -13 63 -1 70 17 3 8 11 14 19
14 8 0 14 5 14 10 0 6 -7 10 -15 10 -13 0 -13 3 -3 20 7 11 22 20 33 20 17 0
17 2 5 10 -13 9 -13 10 0 10 13 0 13 1 0 10 -13 9 -59 14 -61 8z"/>
<path d="M70 791 c0 -5 5 -13 10 -16 6 -3 10 -2 10 4 0 5 -4 13 -10 16 -5 3
-10 2 -10 -4z"/>
<path d="M390 791 c0 -5 5 -13 10 -16 6 -3 10 -2 10 4 0 5 -4 13 -10 16 -5 3
-10 2 -10 -4z"/>
<path d="M710 791 c0 -5 5 -13 10 -16 6 -3 10 -2 10 4 0 5 -4 13 -10 16 -5 3
-10 2 -10 -4z"/>
<path d="M60 735 c0 -3 2 -5 5 -5 3 0 5 2 5 5 0 3 -2 5 -5 5 -3 0 -5 -2 -5 -5z"/>
<path d="M204 729 c-3 -6 2 -18 12 -27 17 -16 17 -16 5 1 -12 15 -11 17 8 17
11 0 21 5 21 10 0 14 -37 13 -46 -1z"/>
<path d="M380 735 c0 -3 2 -5 5 -5 3 0 5 2 5 5 0 3 -2 5 -5 5 -3 0 -5 -2 -5
-5z"/>
<path d="M524 729 c-3 -6 2 -18 12 -27 17 -16 17 -16 5 1 -12 15 -11 17 8 17
11 0 21 5 21 10 0 14 -37 13 -46 -1z"/>
<path d="M700 735 c0 -3 2 -5 5 -5 3 0 5 2 5 5 0 3 -2 5 -5 5 -3 0 -5 -2 -5
-5z"/>
<path d="M844 729 c-3 -6 2 -18 12 -27 17 -16 17 -16 5 1 -12 15 -11 17 8 17
11 0 21 5 21 10 0 14 -37 13 -46 -1z"/>
<path d="M240 696 c0 -8 -3 -23 -7 -33 -6 -17 -6 -17 10 -1 19 19 22 34 7 43
-5 3 -10 0 -10 -9z"/>
<path d="M560 696 c0 -8 -3 -23 -7 -33 -6 -17 -6 -17 10 -1 19 19 22 34 7 43
-5 3 -10 0 -10 -9z"/>
<path d="M880 696 c0 -8 -3 -23 -7 -33 -6 -17 -6 -17 10 -1 19 19 22 34 7 43
-5 3 -10 0 -10 -9z"/>
<path d="M115 690 c-3 -5 1 -10 9 -10 8 0 18 5 21 10 3 6 -1 10 -9 10 -8 0
-18 -4 -21 -10z"/>
<path d="M435 690 c-3 -5 1 -10 9 -10 8 0 18 5 21 10 3 6 -1 10 -9 10 -8 0
-18 -4 -21 -10z"/>
<path d="M755 690 c-3 -5 1 -10 9 -10 8 0 18 5 21 10 3 6 -1 10 -9 10 -8 0
-18 -4 -21 -10z"/>
<path d="M170 685 c0 -3 2 -5 5 -5 3 0 5 2 5 5 0 3 -2 5 -5 5 -3 0 -5 -2 -5
-5z"/>
<path d="M193 683 c4 -3 10 -3 14 0 3 4 0 7 -7 7 -7 0 -10 -3 -7 -7z"/>
<path d="M490 685 c0 -3 2 -5 5 -5 3 0 5 2 5 5 0 3 -2 5 -5 5 -3 0 -5 -2 -5
-5z"/>
<path d="M513 683 c4 -3 10 -3 14 0 3 4 0 7 -7 7 -7 0 -10 -3 -7 -7z"/>
<path d="M810 685 c0 -3 2 -5 5 -5 3 0 5 2 5 5 0 3 -2 5 -5 5 -3 0 -5 -2 -5
-5z"/>
<path d="M833 683 c4 -3 10 -3 14 0 3 4 0 7 -7 7 -7 0 -10 -3 -7 -7z"/>
<path d="M60 665 c0 -3 2 -5 5 -5 3 0 5 2 5 5 0 3 -2 5 -5 5 -3 0 -5 -2 -5 -5z"/>
<path d="M150 660 c-11 -7 -11 -10 -2 -10 7 0 11 -4 8 -9 -3 -5 1 -11 8 -14 8
-3 17 -1 19 6 3 9 8 8 20 -2 15 -12 17 -11 17 7 0 29 -40 42 -70 22z"/>
<path d="M380 665 c0 -3 2 -5 5 -5 3 0 5 2 5 5 0 3 -2 5 -5 5 -3 0 -5 -2 -5
-5z"/>
<path d="M470 660 c-11 -7 -11 -10 -2 -10 7 0 11 -4 8 -9 -3 -5 1 -11 8 -14 8
-3 17 -1 19 6 3 9 8 8 20 -2 15 -12 17 -11 17 7 0 29 -40 42 -70 22z"/>
<path d="M700 665 c0 -3 2 -5 5 -5 3 0 5 2 5 5 0 3 -2 5 -5 5 -3 0 -5 -2 -5
-5z"/>
<path d="M790 660 c-11 -7 -11 -10 -2 -10 7 0 11 -4 8 -9 -3 -5 1 -11 8 -14 8
-3 17 -1 19 6 3 9 8 8 20 -2 15 -12 17 -11 17 7 0 29 -40 42 -70 22z"/>
<path d="M80 653 c0 -5 5 -15 10 -23 7 -12 12 -12 22 -2 9 9 8 12 -6 12 -9 0
-14 5 -11 10 3 6 1 10 -4 10 -6 0 -11 -3 -11 -7z"/>
<path d="M400 653 c0 -5 5 -15 10 -23 7 -12 12 -12 22 -2 9 9 8 12 -6 12 -9 0
-14 5 -11 10 3 6 1 10 -4 10 -6 0 -11 -3 -11 -7z"/>
<path d="M720 653 c0 -5 5 -15 10 -23 7 -12 12 -12 22 -2 9 9 8 12 -6 12 -9 0
-14 5 -11 10 3 6 1 10 -4 10 -6 0 -11 -3 -11 -7z"/>
<path d="M245 621 c-3 -5 -1 -12 5 -16 5 -3 10 1 10 9 0 18 -6 21 -15 7z"/>
<path d="M565 621 c-3 -5 -1 -12 5 -16 5 -3 10 1 10 9 0 18 -6 21 -15 7z"/>
<path d="M885 621 c-3 -5 -1 -12 5 -16 5 -3 10 1 10 9 0 18 -6 21 -15 7z"/>
<path d="M73 593 c4 -3 10 -3 14 0 3 4 0 7 -7 7 -7 0 -10 -3 -7 -7z"/>
<path d="M210 590 c20 -13 43 -13 35 0 -3 6 -16 10 -28 10 -18 0 -19 -2 -7
-10z"/>
<path d="M393 593 c4 -3 10 -3 14 0 3 4 0 7 -7 7 -7 0 -10 -3 -7 -7z"/>
<path d="M530 590 c20 -13 43 -13 35 0 -3 6 -16 10 -28 10 -18 0 -19 -2 -7
-10z"/>
<path d="M713 593 c4 -3 10 -3 14 0 3 4 0 7 -7 7 -7 0 -10 -3 -7 -7z"/>
<path d="M850 590 c20 -13 43 -13 35 0 -3 6 -16 10 -28 10 -18 0 -19 -2 -7
-10z"/>
<path d="M80 580 l-25 -7 27 -13 c27 -13 58 -8 58 9 0 13 -31 18 -60 11z"/>
<path d="M400 580 l-25 -7 27 -13 c27 -13 58 -8 58 9 0 13 -31 18 -60 11z"/>
<path d="M720 580 l-25 -7 27 -13 c27 -13 58 -8 58 9 0 13 -31 18 -60 11z"/>
<path d="M160 570 c-12 -8 -9 -10 13 -10 16 0 26 4 22 10 -8 12 -16 12 -35 0z"/>
<path d="M480 570 c-12 -8 -9 -10 13 -10 16 0 26 4 22 10 -8 12 -16 12 -35 0z"/>
<path d="M800 570 c-12 -8 -9 -10 13 -10 16 0 26 4 22 10 -8 12 -16 12 -35 0z"/>
<path d="M60 520 c0 -10 7 -20 15 -24 8 -3 15 -4 15 -2 0 3 3 11 6 19 3 9 -3
16 -15 20 -16 4 -21 0 -21 -13z"/>
<path d="M169 538 c-8 -26 -5 -38 9 -39 10 0 0 -8 -22 -18 l-38 -17 26 -13
c32 -17 25 -31 -17 -31 -22 0 -28 -3 -20 -11 13 -13 63 -1 70 17 3 8 11 14 19
14 8 0 14 5 14 10 0 6 -7 10 -15 10 -13 0 -13 3 -3 20 7 11 22 20 33 20 17 0
17 2 5 10 -13 9 -13 10 0 10 13 0 13 1 0 10 -13 9 -59 14 -61 8z"/>
<path d="M380 520 c0 -10 7 -20 15 -24 8 -3 15 -4 15 -2 0 3 3 11 6 19 3 9 -3
16 -15 20 -16 4 -21 0 -21 -13z"/>
<path d="M489 538 c-8 -26 -5 -38 9 -39 10 0 0 -8 -22 -18 l-38 -17 26 -13
c32 -17 25 -31 -17 -31 -22 0 -28 -3 -20 -11 13 -13 63 -1 70 17 3 8 11 14 19
14 8 0 14 5 14 10 0 6 -7 10 -15 10 -13 0 -13 3 -3 20 7 11 22 20 33 20 17 0
17 2 5 10 -13 9 -13 10 0 10 13 0 13 1 0 10 -13 9 -59 14 -61 8z"/>
<path d="M700 520 c0 -10 7 -20 15 -24 8 -3 15 -4 15 -2 0 3 3 11 6 19 3 9 -3
16 -15 20 -16 4 -21 0 -21 -13z"/>
<path d="M809 538 c-8 -26 -5 -38 9 -39 10 0 0 -8 -22 -18 l-38 -17 26 -13
c32 -17 25 -31 -17 -31 -22 0 -28 -3 -20 -11 13 -13 63 -1 70 17 3 8 11 14 19
14 8 0 14 5 14 10 0 6 -7 10 -15 10 -13 0 -13 3 -3 20 7 11 22 20 33 20 17 0
17 2 5 10 -13 9 -13 10 0 10 13 0 13 1 0 10 -13 9 -59 14 -61 8z"/>
<path d="M70 471 c0 -5 5 -13 10 -16 6 -3 10 -2 10 4 0 5 -4 13 -10 16 -5 3
-10 2 -10 -4z"/>
<path d="M390 471 c0 -5 5 -13 10 -16 6 -3 10 -2 10 4 0 5 -4 13 -10 16 -5 3
-10 2 -10 -4z"/>
<path d="M710 471 c0 -5 5 -13 10 -16 6 -3 10 -2 10 4 0 5 -4 13 -10 16 -5 3
-10 2 -10 -4z"/>
<path d="M60 415 c0 -3 2 -5 5 -5 3 0 5 2 5 5 0 3 -2 5 -5 5 -3 0 -5 -2 -5 -5z"/>
<path d="M204 409 c-3 -6 2 -18 12 -27 17 -16 17 -16 5 1 -12 15 -11 17 8 17
11 0 21 5 21 10 0 14 -37 13 -46 -1z"/>
<path d="M380 415 c0 -3 2 -5 5 -5 3 0 5 2 5 5 0 3 -2 5 -5 5 -3 0 -5 -2 -5
-5z"/>
<path d="M524 409 c-3 -6 2 -18 12 -27 17 -16 17 -16 5 1 -12 15 -11 17 8 17
11 0 21 5 21 10 0 14 -37 13 -46 -1z"/>
<path d="M700 415 c0 -3 2 -5 5 -5 3 0 5 2 5 5 0 3 -2 5 -5 5 -3 0 -5 -2 -5
-5z"/>
<path d="M844 409 c-3 -6 2 -18 12 -27 17 -16 17 -16 5 1 -12 15 -11 17 8 17
11 0 21 5 21 10 0 14 -37 13 -46 -1z"/>
<path d="M240 376 c0 -8 -3 -23 -7 -33 -6 -17 -6 -17 10 -1 19 19 22 34 7 43
-5 3 -10 0 -10 -9z"/>
<path d="M560 376 c0 -8 -3 -23 -7 -33 -6 -17 -6 -17 10 -1 19 19 22 34 7 43
-5 3 -10 0 -10 -9z"/>
<path d="M880 376 c0 -8 -3 -23 -7 -33 -6 -17 -6 -17 10 -1 19 19 22 34 7 43
-5 3 -10 0 -10 -9z"/>
<path d="M115 370 c-3 -5 1 -10 9 -10 8 0 18 5 21 10 3 6 -1 10 -9 10 -8 0
-18 -4 -21 -10z"/>
<path d="M435 370 c-3 -5 1 -10 9 -10 8 0 18 5 21 10 3 6 -1 10 -9 10 -8 0
-18 -4 -21 -10z"/>
<path d="M755 370 c-3 -5 1 -10 9 -10 8 0 18 5 21 10 3 6 -1 10 -9 10 -8 0
-18 -4 -21 -10z"/>
<path d="M170 365 c0 -3 2 -5 5 -5 3 0 5 2 5 5 0 3 -2 5 -5 5 -3 0 -5 -2 -5
-5z"/>
<path d="M193 363 c4 -3 10 -3 14 0 3 4 0 7 -7 7 -7 0 -10 -3 -7 -7z"/>
<path d="M490 365 c0 -3 2 -5 5 -5 3 0 5 2 5 5 0 3 -2 5 -5 5 -3 0 -5 -2 -5
-5z"/>
<path d="M513 363 c4 -3 10 -3 14 0 3 4 0 7 -7 7 -7 0 -10 -3 -7 -7z"/>
<path d="M810 365 c0 -3 2 -5 5 -5 3 0 5 2 5 5 0 3 -2 5 -5 5 -3 0 -5 -2 -5
-5z"/>
<path d="M833 363 c4 -3 10 -3 14 0 3 4 0 7 -7 7 -7 0 -10 -3 -7 -7z"/>
<path d="M60 345 c0 -3 2 -5 5 -5 3 0 5 2 5 5 0 3 -2 5 -5 5 -3 0 -5 -2 -5 -5z"/>
<path d="M150 340 c-11 -7 -11 -10 -2 -10 7 0 11 -4 8 -9 -3 -5 1 -11 8 -14 8
-3 17 -1 19 6 3 9 8 8 20 -2 15 -12 17 -11 17 7 0 29 -40 42 -70 22z"/>
<path d="M380 345 c0 -3 2 -5 5 -5 3 0 5 2 5 5 0 3 -2 5 -5 5 -3 0 -5 -2 -5
-5z"/>
<path d="M470 340 c-11 -7 -11 -10 -2 -10 7 0 11 -4 8 -9 -3 -5 1 -11 8 -14 8
-3 17 -1 19 6 3 9 8 8 20 -2 15 -12 17 -11 17 7 0 29 -40 42 -70 22z"/>
<path d="M700 345 c0 -3 2 -5 5 -5 3 0 5 2 5 5 0 3 -2 5 -5 5 -3 0 -5 -2 -5
-5z"/>
<path d="M790 340 c-11 -7 -11 -10 -2 -10 7 0 11 -4 8 -9 -3 -5 1 -11 8 -14 8
-3 17 -1 19 6 3 9 8 8 20 -2 15 -12 17 -11 17 7 0 29 -40 42 -70 22z"/>
<path d="M80 333 c0 -5 5 -15 10 -23 7 -12 12 -12 22 -2 9 9 8 12 -6 12 -9 0
-14 5 -11 10 3 6 1 10 -4 10 -6 0 -11 -3 -11 -7z"/>
<path d="M400 333 c0 -5 5 -15 10 -23 7 -12 12 -12 22 -2 9 9 8 12 -6 12 -9 0
-14 5 -11 10 3 6 1 10 -4 10 -6 0 -11 -3 -11 -7z"/>
<path d="M720 333 c0 -5 5 -15 10 -23 7 -12 12 -12 22 -2 9 9 8 12 -6 12 -9 0
-14 5 -11 10 3 6 1 10 -4 10 -6 0 -11 -3 -11 -7z"/>
<path d="M245 301 c-3 -5 -1 -12 5 -16 5 -3 10 1 10 9 0 18 -6 21 -15 7z"/>
<path d="M565 301 c-3 -5 -1 -12 5 -16 5 -3 10 1 10 9 0 18 -6 21 -15 7z"/>
<path d="M885 301 c-3 -5 -1 -12 5 -16 5 -3 10 1 10 9 0 18 -6 21 -15 7z"/>
<path d="M73 273 c4 -3 10 -3 14 0 3 4 0 7 -7 7 -7 0 -10 -3 -7 -7z"/>
<path d="M210 270 c20 -13 43 -13 35 0 -3 6 -16 10 -28 10 -18 0 -19 -2 -7
-10z"/>
<path d="M393 273 c4 -3 10 -3 14 0 3 4 0 7 -7 7 -7 0 -10 -3 -7 -7z"/>
<path d="M530 270 c20 -13 43 -13 35 0 -3 6 -16 10 -28 10 -18 0 -19 -2 -7
-10z"/>
<path d="M713 273 c4 -3 10 -3 14 0 3 4 0 7 -7 7 -7 0 -10 -3 -7 -7z"/>
<path d="M850 270 c20 -13 43 -13 35 0 -3 6 -16 10 -28 10 -18 0 -19 -2 -7
-10z"/>
<path d="M80 260 l-25 -7 27 -13 c27 -13 58 -8 58 9 0 13 -31 18 -60 11z"/>
<path d="M400 260 l-25 -7 27 -13 c27 -13 58 -8 58 9 0 13 -31 18 -60 11z"/>
<path d="M720 260 l-25 -7 27 -13 c27 -13 58 -8 58 9 0 13 -31 18 -60 11z"/>
<path d="M160 250 c-12 -8 -9 -10 13 -10 16 0 26 4 22 10 -8 12 -16 12 -35 0z"/>
<path d="M480 250 c-12 -8 -9 -10 13 -10 16 0 26 4 22 10 -8 12 -16 12 -35 0z"/>
<path d="M800 250 c-12 -8 -9 -10 13 -10 16 0 26 4 22 10 -8 12 -16 12 -35 0z"/>
<path d="M60 200 c0 -10 7 -20 15 -24 8 -3 15 -4 15 -2 0 3 3 11 6 19 3 9 -3
16 -15 20 -16 4 -21 0 -21 -13z"/>
<path d="M169 218 c-8 -26 -5 -38 9 -39 10 0 0 -8 -22 -18 l-38 -17 26 -13
c32 -17 25 -31 -17 -31 -22 0 -28 -3 -20 -11 13 -13 63 -1 70 17 3 8 11 14 19
14 8 0 14 5 14 10 0 6 -7 10 -15 10 -13 0 -13 3 -3 20 7 11 22 20 33 20 17 0
17 2 5 10 -13 9 -13 10 0 10 13 0 13 1 0 10 -13 9 -59 14 -61 8z"/>
<path d="M380 200 c0 -10 7 -20 15 -24 8 -3 15 -4 15 -2 0 3 3 11 6 19 3 9 -3
16 -15 20 -16 4 -21 0 -21 -13z"/>
<path d="M489 218 c-8 -26 -5 -38 9 -39 10 0 0 -8 -22 -18 l-38 -17 26 -13
c32 -17 25 -31 -17 -31 -22 0 -28 -3 -20 -11 13 -13 63 -1 70 17 3 8 11 14 19
14 8 0 14 5 14 10 0 6 -7 10 -15 10 -13 0 -13 3 -3 20 7 11 22 20 33 20 17 0
17 2 5 10 -13 9 -13 10 0 10 13 0 13 1 0 10 -13 9 -59 14 -61 8z"/>
<path d="M700 200 c0 -10 7 -20 15 -24 8 -3 15 -4 15 -2 0 3 3 11 6 19 3 9 -3
16 -15 20 -16 4 -21 0 -21 -13z"/>
<path d="M809 218 c-8 -26 -5 -38 9 -39 10 0 0 -8 -22 -18 l-38 -17 26 -13
c32 -17 25 -31 -17 -31 -22 0 -28 -3 -20 -11 13 -13 63 -1 70 17 3 8 11 14 19
14 8 0 14 5 14 10 0 6 -7 10 -15 10 -13 0 -13 3 -3 20 7 11 22 20 33 20 17 0
17 2 5 10 -13 9 -13 10 0 10 13 0 13 1 0 10 -13 9 -59 14 -61 8z"/>
<path d="M70 151 c0 -5 5 -13 10 -16 6 -3 10 -2 10 4 0 5 -4 13 -10 16 -5 3
-10 2 -10 -4z"/>
<path d="M390 151 c0 -5 5 -13 10 -16 6 -3 10 -2 10 4 0 5 -4 13 -10 16 -5 3
-10 2 -10 -4z"/>
<path d="M710 151 c0 -5 5 -13 10 -16 6 -3 10 -2 10 4 0 5 -4 13 -10 16 -5 3
-10 2 -10 -4z"/>
<path d="M60 95 c0 -3 2 -5 5 -5 3 0 5 2 5 5 0 3 -2 5 -5 5 -3 0 -5 -2 -5 -5z"/>
<path d="M204 89 c-3 -6 2 -18 12 -27 17 -16 17 -16 5 1 -12 15 -11 17 8 17
11 0 21 5 21 10 0 14 -37 13 -46 -1z"/>
<path d="M380 95 c0 -3 2 -5 5 -5 3 0 5 2 5 5 0 3 -2 5 -5 5 -3 0 -5 -2 -5 -5z"/>
<path d="M524 89 c-3 -6 2 -18 12 -27 17 -16 17 -16 5 1 -12 15 -11 17 8 17
11 0 21 5 21 10 0 14 -37 13 -46 -1z"/>
<path d="M700 95 c0 -3 2 -5 5 -5 3 0 5 2 5 5 0 3 -2 5 -5 5 -3 0 -5 -2 -5 -5z"/>
<path d="M844 89 c-3 -6 2 -18 12 -27 17 -16 17 -16 5 1 -12 15 -11 17 8 17
11 0 21 5 21 10 0 14 -37 13 -46 -1z"/>
<path d="M240 56 c0 -8 -3 -23 -7 -33 -6 -17 -6 -17 10 -1 19 19 22 34 7 43
-5 3 -10 0 -10 -9z"/>
<path d="M560 56 c0 -8 -3 -23 -7 -33 -6 -17 -6 -17 10 -1 19 19 22 34 7 43
-5 3 -10 0 -10 -9z"/>
<path d="M880 56 c0 -8 -3 -23 -7 -33 -6 -17 -6 -17 10 -1 19 19 22 34 7 43
-5 3 -10 0 -10 -9z"/>
<path d="M115 50 c-3 -5 1 -10 9 -10 8 0 18 5 21 10 3 6 -1 10 -9 10 -8 0 -18
-4 -21 -10z"/>
<path d="M435 50 c-3 -5 1 -10 9 -10 8 0 18 5 21 10 3 6 -1 10 -9 10 -8 0 -18
-4 -21 -10z"/>
<path d="M755 50 c-3 -5 1 -10 9 -10 8 0 18 5 21 10 3 6 -1 10 -9 10 -8 0 -18
-4 -21 -10z"/>
<path d="M170 45 c0 -3 2 -5 5 -5 3 0 5 2 5 5 0 3 -2 5 -5 5 -3 0 -5 -2 -5 -5z"/>
<path d="M193 43 c4 -3 10 -3 14 0 3 4 0 7 -7 7 -7 0 -10 -3 -7 -7z"/>
<path d="M490 45 c0 -3 2 -5 5 -5 3 0 5 2 5 5 0 3 -2 5 -5 5 -3 0 -5 -2 -5 -5z"/>
<path d="M513 43 c4 -3 10 -3 14 0 3 4 0 7 -7 7 -7 0 -10 -3 -7 -7z"/>
<path d="M810 45 c0 -3 2 -5 5 -5 3 0 5 2 5 5 0 3 -2 5 -5 5 -3 0 -5 -2 -5 -5z"/>
<path d="M833 43 c4 -3 10 -3 14 0 3 4 0 7 -7 7 -7 0 -10 -3 -7 -7z"/>
<path d="M60 25 c0 -3 2 -5 5 -5 3 0 5 2 5 5 0 3 -2 5 -5 5 -3 0 -5 -2 -5 -5z"/>
<path d="M152 21 c-11 -7 -10 -10 3 -15 24 -9 65 -7 65 3 0 18 -46 27 -68 12z"/>
<path d="M380 25 c0 -3 2 -5 5 -5 3 0 5 2 5 5 0 3 -2 5 -5 5 -3 0 -5 -2 -5 -5z"/>
<path d="M472 21 c-11 -7 -10 -10 3 -15 24 -9 65 -7 65 3 0 18 -46 27 -68 12z"/>
<path d="M700 25 c0 -3 2 -5 5 -5 3 0 5 2 5 5 0 3 -2 5 -5 5 -3 0 -5 -2 -5 -5z"/>
<path d="M792 21 c-11 -7 -10 -10 3 -15 24 -9 65 -7 65 3 0 18 -46 27 -68 12z"/>
<path d="M80 9 c0 -5 5 -7 10 -4 6 3 10 8 10 11 0 2 -4 4 -10 4 -5 0 -10 -5
-10 -11z"/>
<path d="M400 9 c0 -5 5 -7 10 -4 6 3 10 8 10 11 0 2 -4 4 -10 4 -5 0 -10 -5
-10 -11z"/>
<path d="M720 9 c0 -5 5 -7 10 -4 6 3 10 8 10 11 0 2 -4 4 -10 4 -5 0 -10 -5
-10 -11z"/>
</g>
<g transform="translate(0.000000,96.000000) scale(0.100000,-0.100000)"
fill="#373434" stroke="none">
<path d="M150 956 c0 -2 7 -6 15 -10 8 -3 15 -1 15 4 0 6 -7 10 -15 10 -8 0
-15 -2 -15 -4z"/>
<path d="M470 956 c0 -2 7 -6 15 -10 8 -3 15 -1 15 4 0 6 -7 10 -15 10 -8 0
-15 -2 -15 -4z"/>
<path d="M790 956 c0 -2 7 -6 15 -10 8 -3 15 -1 15 4 0 6 -7 10 -15 10 -8 0
-15 -2 -15 -4z"/>
<path d="M245 941 c-3 -5 -1 -12 5 -16 5 -3 10 1 10 9 0 18 -6 21 -15 7z"/>
<path d="M565 941 c-3 -5 -1 -12 5 -16 5 -3 10 1 10 9 0 18 -6 21 -15 7z"/>
<path d="M885 941 c-3 -5 -1 -12 5 -16 5 -3 10 1 10 9 0 18 -6 21 -15 7z"/>
<path d="M96 901 c-3 -5 1 -11 9 -15 8 -3 15 -1 15 4 0 13 -18 22 -24 11z"/>
<path d="M416 901 c-3 -5 1 -11 9 -15 8 -3 15 -1 15 4 0 13 -18 22 -24 11z"/>
<path d="M736 901 c-3 -5 1 -11 9 -15 8 -3 15 -1 15 4 0 13 -18 22 -24 11z"/>
<path d="M185 850 c-3 -5 -1 -10 4 -10 6 0 11 5 11 10 0 6 -2 10 -4 10 -3 0
-8 -4 -11 -10z"/>
<path d="M505 850 c-3 -5 -1 -10 4 -10 6 0 11 5 11 10 0 6 -2 10 -4 10 -3 0
-8 -4 -11 -10z"/>
<path d="M825 850 c-3 -5 -1 -10 4 -10 6 0 11 5 11 10 0 6 -2 10 -4 10 -3 0
-8 -4 -11 -10z"/>
<path d="M190 810 c0 -7 3 -10 7 -7 3 4 3 10 0 14 -4 3 -7 0 -7 -7z"/>
<path d="M510 810 c0 -7 3 -10 7 -7 3 4 3 10 0 14 -4 3 -7 0 -7 -7z"/>
<path d="M830 810 c0 -7 3 -10 7 -7 3 4 3 10 0 14 -4 3 -7 0 -7 -7z"/>
<path d="M170 805 c0 -3 2 -5 5 -5 3 0 5 2 5 5 0 3 -2 5 -5 5 -3 0 -5 -2 -5
-5z"/>
<path d="M490 805 c0 -3 2 -5 5 -5 3 0 5 2 5 5 0 3 -2 5 -5 5 -3 0 -5 -2 -5
-5z"/>
<path d="M810 805 c0 -3 2 -5 5 -5 3 0 5 2 5 5 0 3 -2 5 -5 5 -3 0 -5 -2 -5
-5z"/>
<path d="M70 791 c0 -5 5 -13 10 -16 6 -3 10 -2 10 4 0 5 -4 13 -10 16 -5 3
-10 2 -10 -4z"/>
<path d="M390 791 c0 -5 5 -13 10 -16 6 -3 10 -2 10 4 0 5 -4 13 -10 16 -5 3
-10 2 -10 -4z"/>
<path d="M710 791 c0 -5 5 -13 10 -16 6 -3 10 -2 10 4 0 5 -4 13 -10 16 -5 3
-10 2 -10 -4z"/>
<path d="M162 765 c3 -30 14 -33 21 -6 3 11 -1 22 -9 25 -10 4 -13 -2 -12 -19z"/>
<path d="M482 765 c3 -30 14 -33 21 -6 3 11 -1 22 -9 25 -10 4 -13 -2 -12 -19z"/>
<path d="M802 765 c3 -30 14 -33 21 -6 3 11 -1 22 -9 25 -10 4 -13 -2 -12 -19z"/>
<path d="M215 700 c3 -5 8 -10 11 -10 3 0 2 5 -1 10 -3 6 -8 10 -11 10 -3 0
-2 -4 1 -10z"/>
<path d="M535 700 c3 -5 8 -10 11 -10 3 0 2 5 -1 10 -3 6 -8 10 -11 10 -3 0
-2 -4 1 -10z"/>
<path d="M855 700 c3 -5 8 -10 11 -10 3 0 2 5 -1 10 -3 6 -8 10 -11 10 -3 0
-2 -4 1 -10z"/>
<path d="M193 683 c4 -3 10 -3 14 0 3 4 0 7 -7 7 -7 0 -10 -3 -7 -7z"/>
<path d="M513 683 c4 -3 10 -3 14 0 3 4 0 7 -7 7 -7 0 -10 -3 -7 -7z"/>
<path d="M833 683 c4 -3 10 -3 14 0 3 4 0 7 -7 7 -7 0 -10 -3 -7 -7z"/>
<path d="M80 649 c0 -5 5 -7 10 -4 6 3 10 8 10 11 0 2 -4 4 -10 4 -5 0 -10 -5
-10 -11z"/>
<path d="M400 649 c0 -5 5 -7 10 -4 6 3 10 8 10 11 0 2 -4 4 -10 4 -5 0 -10
-5 -10 -11z"/>
<path d="M720 649 c0 -5 5 -7 10 -4 6 3 10 8 10 11 0 2 -4 4 -10 4 -5 0 -10
-5 -10 -11z"/>
<path d="M150 636 c0 -2 7 -6 15 -10 8 -3 15 -1 15 4 0 6 -7 10 -15 10 -8 0
-15 -2 -15 -4z"/>
<path d="M470 636 c0 -2 7 -6 15 -10 8 -3 15 -1 15 4 0 6 -7 10 -15 10 -8 0
-15 -2 -15 -4z"/>
<path d="M790 636 c0 -2 7 -6 15 -10 8 -3 15 -1 15 4 0 6 -7 10 -15 10 -8 0
-15 -2 -15 -4z"/>
<path d="M245 621 c-3 -5 -1 -12 5 -16 5 -3 10 1 10 9 0 18 -6 21 -15 7z"/>
<path d="M565 621 c-3 -5 -1 -12 5 -16 5 -3 10 1 10 9 0 18 -6 21 -15 7z"/>
<path d="M885 621 c-3 -5 -1 -12 5 -16 5 -3 10 1 10 9 0 18 -6 21 -15 7z"/>
<path d="M96 581 c-3 -5 1 -11 9 -15 8 -3 15 -1 15 4 0 13 -18 22 -24 11z"/>
<path d="M416 581 c-3 -5 1 -11 9 -15 8 -3 15 -1 15 4 0 13 -18 22 -24 11z"/>
<path d="M736 581 c-3 -5 1 -11 9 -15 8 -3 15 -1 15 4 0 13 -18 22 -24 11z"/>
<path d="M185 530 c-3 -5 -1 -10 4 -10 6 0 11 5 11 10 0 6 -2 10 -4 10 -3 0
-8 -4 -11 -10z"/>
<path d="M505 530 c-3 -5 -1 -10 4 -10 6 0 11 5 11 10 0 6 -2 10 -4 10 -3 0
-8 -4 -11 -10z"/>
<path d="M825 530 c-3 -5 -1 -10 4 -10 6 0 11 5 11 10 0 6 -2 10 -4 10 -3 0
-8 -4 -11 -10z"/>
<path d="M190 490 c0 -7 3 -10 7 -7 3 4 3 10 0 14 -4 3 -7 0 -7 -7z"/>
<path d="M510 490 c0 -7 3 -10 7 -7 3 4 3 10 0 14 -4 3 -7 0 -7 -7z"/>
<path d="M830 490 c0 -7 3 -10 7 -7 3 4 3 10 0 14 -4 3 -7 0 -7 -7z"/>
<path d="M170 485 c0 -3 2 -5 5 -5 3 0 5 2 5 5 0 3 -2 5 -5 5 -3 0 -5 -2 -5
-5z"/>
<path d="M490 485 c0 -3 2 -5 5 -5 3 0 5 2 5 5 0 3 -2 5 -5 5 -3 0 -5 -2 -5
-5z"/>
<path d="M810 485 c0 -3 2 -5 5 -5 3 0 5 2 5 5 0 3 -2 5 -5 5 -3 0 -5 -2 -5
-5z"/>
<path d="M70 471 c0 -5 5 -13 10 -16 6 -3 10 -2 10 4 0 5 -4 13 -10 16 -5 3
-10 2 -10 -4z"/>
<path d="M390 471 c0 -5 5 -13 10 -16 6 -3 10 -2 10 4 0 5 -4 13 -10 16 -5 3
-10 2 -10 -4z"/>
<path d="M710 471 c0 -5 5 -13 10 -16 6 -3 10 -2 10 4 0 5 -4 13 -10 16 -5 3
-10 2 -10 -4z"/>
<path d="M162 445 c3 -30 14 -33 21 -6 3 11 -1 22 -9 25 -10 4 -13 -2 -12 -19z"/>
<path d="M482 445 c3 -30 14 -33 21 -6 3 11 -1 22 -9 25 -10 4 -13 -2 -12 -19z"/>
<path d="M802 445 c3 -30 14 -33 21 -6 3 11 -1 22 -9 25 -10 4 -13 -2 -12 -19z"/>
<path d="M215 380 c3 -5 8 -10 11 -10 3 0 2 5 -1 10 -3 6 -8 10 -11 10 -3 0
-2 -4 1 -10z"/>
<path d="M535 380 c3 -5 8 -10 11 -10 3 0 2 5 -1 10 -3 6 -8 10 -11 10 -3 0
-2 -4 1 -10z"/>
<path d="M855 380 c3 -5 8 -10 11 -10 3 0 2 5 -1 10 -3 6 -8 10 -11 10 -3 0
-2 -4 1 -10z"/>
<path d="M193 363 c4 -3 10 -3 14 0 3 4 0 7 -7 7 -7 0 -10 -3 -7 -7z"/>
<path d="M513 363 c4 -3 10 -3 14 0 3 4 0 7 -7 7 -7 0 -10 -3 -7 -7z"/>
<path d="M833 363 c4 -3 10 -3 14 0 3 4 0 7 -7 7 -7 0 -10 -3 -7 -7z"/>
<path d="M80 329 c0 -5 5 -7 10 -4 6 3 10 8 10 11 0 2 -4 4 -10 4 -5 0 -10 -5
-10 -11z"/>
<path d="M400 329 c0 -5 5 -7 10 -4 6 3 10 8 10 11 0 2 -4 4 -10 4 -5 0 -10
-5 -10 -11z"/>
<path d="M720 329 c0 -5 5 -7 10 -4 6 3 10 8 10 11 0 2 -4 4 -10 4 -5 0 -10
-5 -10 -11z"/>
<path d="M150 316 c0 -2 7 -6 15 -10 8 -3 15 -1 15 4 0 6 -7 10 -15 10 -8 0
-15 -2 -15 -4z"/>
<path d="M470 316 c0 -2 7 -6 15 -10 8 -3 15 -1 15 4 0 6 -7 10 -15 10 -8 0
-15 -2 -15 -4z"/>
<path d="M790 316 c0 -2 7 -6 15 -10 8 -3 15 -1 15 4 0 6 -7 10 -15 10 -8 0
-15 -2 -15 -4z"/>
<path d="M245 301 c-3 -5 -1 -12 5 -16 5 -3 10 1 10 9 0 18 -6 21 -15 7z"/>
<path d="M565 301 c-3 -5 -1 -12 5 -16 5 -3 10 1 10 9 0 18 -6 21 -15 7z"/>
<path d="M885 301 c-3 -5 -1 -12 5 -16 5 -3 10 1 10 9 0 18 -6 21 -15 7z"/>
<path d="M96 261 c-3 -5 1 -11 9 -15 8 -3 15 -1 15 4 0 13 -18 22 -24 11z"/>
<path d="M416 261 c-3 -5 1 -11 9 -15 8 -3 15 -1 15 4 0 13 -18 22 -24 11z"/>
<path d="M736 261 c-3 -5 1 -11 9 -15 8 -3 15 -1 15 4 0 13 -18 22 -24 11z"/>
<path d="M185 210 c-3 -5 -1 -10 4 -10 6 0 11 5 11 10 0 6 -2 10 -4 10 -3 0
-8 -4 -11 -10z"/>
<path d="M505 210 c-3 -5 -1 -10 4 -10 6 0 11 5 11 10 0 6 -2 10 -4 10 -3 0
-8 -4 -11 -10z"/>
<path d="M825 210 c-3 -5 -1 -10 4 -10 6 0 11 5 11 10 0 6 -2 10 -4 10 -3 0
-8 -4 -11 -10z"/>
<path d="M190 170 c0 -7 3 -10 7 -7 3 4 3 10 0 14 -4 3 -7 0 -7 -7z"/>
<path d="M510 170 c0 -7 3 -10 7 -7 3 4 3 10 0 14 -4 3 -7 0 -7 -7z"/>
<path d="M830 170 c0 -7 3 -10 7 -7 3 4 3 10 0 14 -4 3 -7 0 -7 -7z"/>
<path d="M170 165 c0 -3 2 -5 5 -5 3 0 5 2 5 5 0 3 -2 5 -5 5 -3 0 -5 -2 -5
-5z"/>
<path d="M490 165 c0 -3 2 -5 5 -5 3 0 5 2 5 5 0 3 -2 5 -5 5 -3 0 -5 -2 -5
-5z"/>
<path d="M810 165 c0 -3 2 -5 5 -5 3 0 5 2 5 5 0 3 -2 5 -5 5 -3 0 -5 -2 -5
-5z"/>
<path d="M70 151 c0 -5 5 -13 10 -16 6 -3 10 -2 10 4 0 5 -4 13 -10 16 -5 3
-10 2 -10 -4z"/>
<path d="M390 151 c0 -5 5 -13 10 -16 6 -3 10 -2 10 4 0 5 -4 13 -10 16 -5 3
-10 2 -10 -4z"/>
<path d="M710 151 c0 -5 5 -13 10 -16 6 -3 10 -2 10 4 0 5 -4 13 -10 16 -5 3
-10 2 -10 -4z"/>
<path d="M162 125 c3 -30 14 -33 21 -6 3 11 -1 22 -9 25 -10 4 -13 -2 -12 -19z"/>
<path d="M482 125 c3 -30 14 -33 21 -6 3 11 -1 22 -9 25 -10 4 -13 -2 -12 -19z"/>
<path d="M802 125 c3 -30 14 -33 21 -6 3 11 -1 22 -9 25 -10 4 -13 -2 -12 -19z"/>
<path d="M215 60 c3 -5 8 -10 11 -10 3 0 2 5 -1 10 -3 6 -8 10 -11 10 -3 0 -2
-4 1 -10z"/>
<path d="M535 60 c3 -5 8 -10 11 -10 3 0 2 5 -1 10 -3 6 -8 10 -11 10 -3 0 -2
-4 1 -10z"/>
<path d="M855 60 c3 -5 8 -10 11 -10 3 0 2 5 -1 10 -3 6 -8 10 -11 10 -3 0 -2
-4 1 -10z"/>
<path d="M193 43 c4 -3 10 -3 14 0 3 4 0 7 -7 7 -7 0 -10 -3 -7 -7z"/>
<path d="M513 43 c4 -3 10 -3 14 0 3 4 0 7 -7 7 -7 0 -10 -3 -7 -7z"/>
<path d="M833 43 c4 -3 10 -3 14 0 3 4 0 7 -7 7 -7 0 -10 -3 -7 -7z"/>
<path d="M80 9 c0 -5 5 -7 10 -4 6 3 10 8 10 11 0 2 -4 4 -10 4 -5 0 -10 -5
-10 -11z"/>
<path d="M400 9 c0 -5 5 -7 10 -4 6 3 10 8 10 11 0 2 -4 4 -10 4 -5 0 -10 -5
-10 -11z"/>
<path d="M720 9 c0 -5 5 -7 10 -4 6 3 10 8 10 11 0 2 -4 4 -10 4 -5 0 -10 -5
-10 -11z"/>
</g>
  </g>
</svg>
