<?xml version="1.0" encoding="UTF-8" standalone="no"?>
<!-- Created with Inkscape (http://www.inkscape.org/) -->

<svg
   xmlns:dc="http://purl.org/dc/elements/1.1/"
   xmlns:cc="http://creativecommons.org/ns#"
   xmlns:rdf="http://www.w3.org/1999/02/22-rdf-syntax-ns#"
   xmlns:svg="http://www.w3.org/2000/svg"
   xmlns="http://www.w3.org/2000/svg"
   xmlns:sodipodi="http://sodipodi.sourceforge.net/DTD/sodipodi-0.dtd"
   xmlns:inkscape="http://www.inkscape.org/namespaces/inkscape"
   width="32px"
   height="32px"
   viewBox="0 0 32px 32px"
   version="1.1"
   id="svgMain"
   inkscape:version="0.92.2 (5c3e80d, 2017-08-06)"
   sodipodi:docname="reference_SVG.svg">
  <defs
     id="defs4542" />
  <sodipodi:namedview
     id="base"
     pagecolor="#ffffff"
     bordercolor="#666666"
     borderopacity="1.0"
     inkscape:pageopacity="0.0"
     inkscape:pageshadow="2"
     inkscape:zoom="1"
     inkscape:cx="0"
     inkscape:cy="0"
     inkscape:document-units="px"
     inkscape:current-layer="layer1"
     showgrid="false"
     units="px"
     inkscape:window-width="1024"
     inkscape:window-height="768"
     inkscape:window-x="-8"
     inkscape:window-y="-8"
     inkscape:window-maximized="1" />
  <metadata
     id="metadata1">
    <rdf:RDF>
      <cc:Work
         rdf:about="">
        <dc:format>image/svg+xml</dc:format>
        <dc:type
           rdf:resource="http://purl.org/dc/dcmitype/StillImage" />
        <dc:title />
      </cc:Work>
    </rdf:RDF>
  </metadata>
  <g transform="translate(-32,-32)"
     inkscape:label="Layer 1"
     inkscape:groupmode="layer"
     id="layer1">
    <!-- INSERT MARKER -->
<g transform="translate(0.000000,96.000000) scale(0.100000,-0.100000)"
fill="#00e210" stroke="none">
<path d="M146 724 c-3 -9 -6 -25 -6 -36 0 -17 -3 -18 -14 -8 -13 10 -13 8 -3
-14 17 -37 40 -32 59 14 21 50 15 52 -11 3 -22 -41 -27 -40 -11 2 7 19 7 24
-1 19 -8 -4 -9 0 -4 15 7 24 0 29 -9 5z"/>
<path d="M466 724 c-3 -9 -6 -25 -6 -36 0 -17 -3 -18 -14 -8 -13 10 -13 8 -3
-14 17 -37 40 -32 59 14 21 50 15 52 -11 3 -22 -41 -27 -40 -11 2 7 19 7 24
-1 19 -8 -4 -9 0 -4 15 7 24 0 29 -9 5z"/>
<path d="M786 724 c-3 -9 -6 -25 -6 -36 0 -17 -3 -18 -14 -8 -13 10 -13 8 -3
-14 17 -37 40 -32 59 14 21 50 15 52 -11 3 -22 -41 -27 -40 -11 2 7 19 7 24
-1 19 -8 -4 -9 0 -4 15 7 24 0 29 -9 5z"/>
<path d="M37 706 c4 -13 3 -17 -5 -12 -8 5 -8 -1 -1 -24 13 -37 30 -38 46 -4
10 22 10 24 -3 14 -8 -7 -14 -8 -14 -3 0 5 -7 18 -15 29 -15 18 -15 18 -8 0z
m10 -38 c-3 -8 -6 -5 -6 6 -1 11 2 17 5 13 3 -3 4 -12 1 -19z"/>
<path d="M357 706 c4 -13 3 -17 -5 -12 -8 5 -8 -1 -1 -24 13 -37 30 -38 46 -4
10 22 10 24 -3 14 -8 -7 -14 -8 -14 -3 0 5 -7 18 -15 29 -15 18 -15 18 -8 0z
m10 -38 c-3 -8 -6 -5 -6 6 -1 11 2 17 5 13 3 -3 4 -12 1 -19z"/>
<path d="M677 706 c4 -13 3 -17 -5 -12 -8 5 -8 -1 -1 -24 13 -37 30 -38 46 -4
10 22 10 24 -3 14 -8 -7 -14 -8 -14 -3 0 5 -7 18 -15 29 -15 18 -15 18 -8 0z
m10 -38 c-3 -8 -6 -5 -6 6 -1 11 2 17 5 13 3 -3 4 -12 1 -19z"/>
<path d="M241 687 c-1 -10 -5 -16 -10 -13 -5 4 -7 -3 -4 -14 7 -27 17 -25 31
6 7 14 8 23 3 20 -5 -4 -12 0 -14 6 -3 8 -6 6 -6 -5z"/>
<path d="M561 687 c-1 -10 -5 -16 -10 -13 -5 4 -7 -3 -4 -14 7 -27 17 -25 31
6 7 14 8 23 3 20 -5 -4 -12 0 -14 6 -3 8 -6 6 -6 -5z"/>
<path d="M881 687 c-1 -10 -5 -16 -10 -13 -5 4 -7 -3 -4 -14 7 -27 17 -25 31
6 7 14 8 23 3 20 -5 -4 -12 0 -14 6 -3 8 -6 6 -6 -5z"/>
<path d="M265 659 c-4 -6 -5 -12 -2 -15 2 -3 7 2 10 11 7 17 1 20 -8 4z"/>
<path d="M585 659 c-4 -6 -5 -12 -2 -15 2 -3 7 2 10 11 7 17 1 20 -8 4z"/>
<path d="M905 659 c-4 -6 -5 -12 -2 -15 2 -3 7 2 10 11 7 17 1 20 -8 4z"/>
<path d="M146 404 c-3 -9 -6 -25 -6 -36 0 -17 -3 -18 -14 -8 -13 10 -13 8 -3
-14 17 -37 40 -32 59 14 21 50 15 52 -11 3 -22 -41 -27 -40 -11 2 7 19 7 24
-1 19 -8 -4 -9 0 -4 15 7 24 0 29 -9 5z"/>
<path d="M466 404 c-3 -9 -6 -25 -6 -36 0 -17 -3 -18 -14 -8 -13 10 -13 8 -3
-14 17 -37 40 -32 59 14 21 50 15 52 -11 3 -22 -41 -27 -40 -11 2 7 19 7 24
-1 19 -8 -4 -9 0 -4 15 7 24 0 29 -9 5z"/>
<path d="M786 404 c-3 -9 -6 -25 -6 -36 0 -17 -3 -18 -14 -8 -13 10 -13 8 -3
-14 17 -37 40 -32 59 14 21 50 15 52 -11 3 -22 -41 -27 -40 -11 2 7 19 7 24
-1 19 -8 -4 -9 0 -4 15 7 24 0 29 -9 5z"/>
<path d="M37 386 c4 -13 3 -17 -5 -12 -8 5 -8 -1 -1 -24 13 -37 30 -38 46 -4
10 22 10 24 -3 14 -8 -7 -14 -8 -14 -3 0 5 -7 18 -15 29 -15 18 -15 18 -8 0z
m10 -38 c-3 -8 -6 -5 -6 6 -1 11 2 17 5 13 3 -3 4 -12 1 -19z"/>
<path d="M357 386 c4 -13 3 -17 -5 -12 -8 5 -8 -1 -1 -24 13 -37 30 -38 46 -4
10 22 10 24 -3 14 -8 -7 -14 -8 -14 -3 0 5 -7 18 -15 29 -15 18 -15 18 -8 0z
m10 -38 c-3 -8 -6 -5 -6 6 -1 11 2 17 5 13 3 -3 4 -12 1 -19z"/>
<path d="M677 386 c4 -13 3 -17 -5 -12 -8 5 -8 -1 -1 -24 13 -37 30 -38 46 -4
10 22 10 24 -3 14 -8 -7 -14 -8 -14 -3 0 5 -7 18 -15 29 -15 18 -15 18 -8 0z
m10 -38 c-3 -8 -6 -5 -6 6 -1 11 2 17 5 13 3 -3 4 -12 1 -19z"/>
<path d="M241 367 c-1 -10 -5 -16 -10 -13 -5 4 -7 -3 -4 -14 7 -27 17 -25 31
6 7 14 8 23 3 20 -5 -4 -12 0 -14 6 -3 8 -6 6 -6 -5z"/>
<path d="M561 367 c-1 -10 -5 -16 -10 -13 -5 4 -7 -3 -4 -14 7 -27 17 -25 31
6 7 14 8 23 3 20 -5 -4 -12 0 -14 6 -3 8 -6 6 -6 -5z"/>
<path d="M881 367 c-1 -10 -5 -16 -10 -13 -5 4 -7 -3 -4 -14 7 -27 17 -25 31
6 7 14 8 23 3 20 -5 -4 -12 0 -14 6 -3 8 -6 6 -6 -5z"/>
<path d="M265 339 c-4 -6 -5 -12 -2 -15 2 -3 7 2 10 11 7 17 1 20 -8 4z"/>
<path d="M585 339 c-4 -6 -5 -12 -2 -15 2 -3 7 2 10 11 7 17 1 20 -8 4z"/>
<path d="M905 339 c-4 -6 -5 -12 -2 -15 2 -3 7 2 10 11 7 17 1 20 -8 4z"/>
<path d="M146 84 c-3 -9 -6 -25 -6 -36 0 -17 -3 -18 -14 -8 -13 10 -13 8 -3
-14 17 -37 40 -32 59 14 21 50 15 52 -11 3 -22 -41 -27 -40 -11 2 7 19 7 24
-1 19 -8 -4 -9 0 -4 15 7 24 0 29 -9 5z"/>
<path d="M466 84 c-3 -9 -6 -25 -6 -36 0 -17 -3 -18 -14 -8 -13 10 -13 8 -3
-14 17 -37 40 -32 59 14 21 50 15 52 -11 3 -22 -41 -27 -40 -11 2 7 19 7 24
-1 19 -8 -4 -9 0 -4 15 7 24 0 29 -9 5z"/>
<path d="M786 84 c-3 -9 -6 -25 -6 -36 0 -17 -3 -18 -14 -8 -13 10 -13 8 -3
-14 17 -37 40 -32 59 14 21 50 15 52 -11 3 -22 -41 -27 -40 -11 2 7 19 7 24
-1 19 -8 -4 -9 0 -4 15 7 24 0 29 -9 5z"/>
<path d="M37 66 c4 -13 3 -17 -5 -12 -8 5 -8 -1 -1 -24 13 -37 30 -38 46 -4
10 22 10 24 -3 14 -8 -7 -14 -8 -14 -3 0 5 -7 18 -15 29 -15 18 -15 18 -8 0z
m10 -38 c-3 -8 -6 -5 -6 6 -1 11 2 17 5 13 3 -3 4 -12 1 -19z"/>
<path d="M357 66 c4 -13 3 -17 -5 -12 -8 5 -8 -1 -1 -24 13 -37 30 -38 46 -4
10 22 10 24 -3 14 -8 -7 -14 -8 -14 -3 0 5 -7 18 -15 29 -15 18 -15 18 -8 0z
m10 -38 c-3 -8 -6 -5 -6 6 -1 11 2 17 5 13 3 -3 4 -12 1 -19z"/>
<path d="M677 66 c4 -13 3 -17 -5 -12 -8 5 -8 -1 -1 -24 13 -37 30 -38 46 -4
10 22 10 24 -3 14 -8 -7 -14 -8 -14 -3 0 5 -7 18 -15 29 -15 18 -15 18 -8 0z
m10 -38 c-3 -8 -6 -5 -6 6 -1 11 2 17 5 13 3 -3 4 -12 1 -19z"/>
<path d="M241 47 c-1 -10 -5 -16 -10 -13 -5 4 -7 -3 -4 -14 7 -27 17 -25 31 6
7 14 8 23 3 20 -5 -4 -12 0 -14 6 -3 8 -6 6 -6 -5z"/>
<path d="M561 47 c-1 -10 -5 -16 -10 -13 -5 4 -7 -3 -4 -14 7 -27 17 -25 31 6
7 14 8 23 3 20 -5 -4 -12 0 -14 6 -3 8 -6 6 -6 -5z"/>
<path d="M881 47 c-1 -10 -5 -16 -10 -13 -5 4 -7 -3 -4 -14 7 -27 17 -25 31 6
7 14 8 23 3 20 -5 -4 -12 0 -14 6 -3 8 -6 6 -6 -5z"/>
<path d="M265 19 c-4 -6 -5 -12 -2 -15 2 -3 7 2 10 11 7 17 1 20 -8 4z"/>
<path d="M585 19 c-4 -6 -5 -12 -2 -15 2 -3 7 2 10 11 7 17 1 20 -8 4z"/>
<path d="M905 19 c-4 -6 -5 -12 -2 -15 2 -3 7 2 10 11 7 17 1 20 -8 4z"/>
</g>
<g transform="translate(0.000000,96.000000) scale(0.100000,-0.100000)"
fill="#00bc16" stroke="none">
<path d="M140 689 c0 -9 -3 -24 -6 -33 -4 -12 0 -16 15 -16 12 0 21 4 21 9 0
5 3 18 6 28 3 10 -2 7 -10 -7 -17 -28 -20 -23 -7 13 7 18 6 24 -5 24 -8 0 -14
-8 -14 -18z"/>
<path d="M460 689 c0 -9 -3 -24 -6 -33 -4 -12 0 -16 15 -16 12 0 21 4 21 9 0
5 3 18 6 28 3 10 -2 7 -10 -7 -17 -28 -20 -23 -7 13 7 18 6 24 -5 24 -8 0 -14
-8 -14 -18z"/>
<path d="M780 689 c0 -9 -3 -24 -6 -33 -4 -12 0 -16 15 -16 12 0 21 4 21 9 0
5 3 18 6 28 3 10 -2 7 -10 -7 -17 -28 -20 -23 -7 13 7 18 6 24 -5 24 -8 0 -14
-8 -14 -18z"/>
<path d="M31 670 c13 -37 30 -38 46 -4 10 22 10 24 -3 14 -8 -7 -14 -9 -14 -4
0 5 -5 2 -10 -6 -8 -13 -10 -13 -10 2 0 9 -4 19 -10 23 -5 3 -5 -7 1 -25z"/>
<path d="M351 670 c13 -37 30 -38 46 -4 10 22 10 24 -3 14 -8 -7 -14 -9 -14
-4 0 5 -5 2 -10 -6 -8 -13 -10 -13 -10 2 0 9 -4 19 -10 23 -5 3 -5 -7 1 -25z"/>
<path d="M671 670 c13 -37 30 -38 46 -4 10 22 10 24 -3 14 -8 -7 -14 -9 -14
-4 0 5 -5 2 -10 -6 -8 -13 -10 -13 -10 2 0 9 -4 19 -10 23 -5 3 -5 -7 1 -25z"/>
<path d="M227 659 c6 -21 23 -26 23 -6 0 9 2 9 9 -1 7 -11 9 -11 14 2 4 9 3
15 -1 15 -4 -1 -9 0 -12 1 -26 10 -37 6 -33 -11z"/>
<path d="M547 659 c6 -21 23 -26 23 -6 0 9 2 9 9 -1 7 -11 9 -11 14 2 4 9 3
15 -1 15 -4 -1 -9 0 -12 1 -26 10 -37 6 -33 -11z"/>
<path d="M867 659 c6 -21 23 -26 23 -6 0 9 2 9 9 -1 7 -11 9 -11 14 2 4 9 3
15 -1 15 -4 -1 -9 0 -12 1 -26 10 -37 6 -33 -11z"/>
<path d="M140 369 c0 -9 -3 -24 -6 -33 -4 -12 0 -16 15 -16 12 0 21 4 21 9 0
5 3 18 6 28 3 10 -2 7 -10 -7 -17 -28 -20 -23 -7 13 7 18 6 24 -5 24 -8 0 -14
-8 -14 -18z"/>
<path d="M460 369 c0 -9 -3 -24 -6 -33 -4 -12 0 -16 15 -16 12 0 21 4 21 9 0
5 3 18 6 28 3 10 -2 7 -10 -7 -17 -28 -20 -23 -7 13 7 18 6 24 -5 24 -8 0 -14
-8 -14 -18z"/>
<path d="M780 369 c0 -9 -3 -24 -6 -33 -4 -12 0 -16 15 -16 12 0 21 4 21 9 0
5 3 18 6 28 3 10 -2 7 -10 -7 -17 -28 -20 -23 -7 13 7 18 6 24 -5 24 -8 0 -14
-8 -14 -18z"/>
<path d="M31 350 c13 -37 30 -38 46 -4 10 22 10 24 -3 14 -8 -7 -14 -9 -14 -4
0 5 -5 2 -10 -6 -8 -13 -10 -13 -10 2 0 9 -4 19 -10 23 -5 3 -5 -7 1 -25z"/>
<path d="M351 350 c13 -37 30 -38 46 -4 10 22 10 24 -3 14 -8 -7 -14 -9 -14
-4 0 5 -5 2 -10 -6 -8 -13 -10 -13 -10 2 0 9 -4 19 -10 23 -5 3 -5 -7 1 -25z"/>
<path d="M671 350 c13 -37 30 -38 46 -4 10 22 10 24 -3 14 -8 -7 -14 -9 -14
-4 0 5 -5 2 -10 -6 -8 -13 -10 -13 -10 2 0 9 -4 19 -10 23 -5 3 -5 -7 1 -25z"/>
<path d="M227 339 c6 -21 23 -26 23 -6 0 9 2 9 9 -1 7 -11 9 -11 14 2 4 9 3
15 -1 15 -4 -1 -9 0 -12 1 -26 10 -37 6 -33 -11z"/>
<path d="M547 339 c6 -21 23 -26 23 -6 0 9 2 9 9 -1 7 -11 9 -11 14 2 4 9 3
15 -1 15 -4 -1 -9 0 -12 1 -26 10 -37 6 -33 -11z"/>
<path d="M867 339 c6 -21 23 -26 23 -6 0 9 2 9 9 -1 7 -11 9 -11 14 2 4 9 3
15 -1 15 -4 -1 -9 0 -12 1 -26 10 -37 6 -33 -11z"/>
<path d="M140 49 c0 -9 -3 -24 -6 -33 -4 -12 0 -16 15 -16 12 0 21 4 21 9 0 5
3 18 6 28 3 10 -2 7 -10 -7 -17 -28 -20 -23 -7 13 7 18 6 24 -5 24 -8 0 -14
-8 -14 -18z"/>
<path d="M460 49 c0 -9 -3 -24 -6 -33 -4 -12 0 -16 15 -16 12 0 21 4 21 9 0 5
3 18 6 28 3 10 -2 7 -10 -7 -17 -28 -20 -23 -7 13 7 18 6 24 -5 24 -8 0 -14
-8 -14 -18z"/>
<path d="M780 49 c0 -9 -3 -24 -6 -33 -4 -12 0 -16 15 -16 12 0 21 4 21 9 0 5
3 18 6 28 3 10 -2 7 -10 -7 -17 -28 -20 -23 -7 13 7 18 6 24 -5 24 -8 0 -14
-8 -14 -18z"/>
<path d="M31 30 c13 -37 30 -38 46 -4 10 22 10 24 -3 14 -8 -7 -14 -9 -14 -4
0 5 -5 2 -10 -6 -8 -13 -10 -13 -10 2 0 9 -4 19 -10 23 -5 3 -5 -7 1 -25z"/>
<path d="M351 30 c13 -37 30 -38 46 -4 10 22 10 24 -3 14 -8 -7 -14 -9 -14 -4
0 5 -5 2 -10 -6 -8 -13 -10 -13 -10 2 0 9 -4 19 -10 23 -5 3 -5 -7 1 -25z"/>
<path d="M671 30 c13 -37 30 -38 46 -4 10 22 10 24 -3 14 -8 -7 -14 -9 -14 -4
0 5 -5 2 -10 -6 -8 -13 -10 -13 -10 2 0 9 -4 19 -10 23 -5 3 -5 -7 1 -25z"/>
<path d="M227 19 c6 -21 23 -26 23 -6 0 9 2 9 9 -1 7 -11 9 -11 14 2 4 9 3 15
-1 15 -4 -1 -9 0 -12 1 -26 10 -37 6 -33 -11z"/>
<path d="M547 19 c6 -21 23 -26 23 -6 0 9 2 9 9 -1 7 -11 9 -11 14 2 4 9 3 15
-1 15 -4 -1 -9 0 -12 1 -26 10 -37 6 -33 -11z"/>
<path d="M867 19 c6 -21 23 -26 23 -6 0 9 2 9 9 -1 7 -11 9 -11 14 2 4 9 3 15
-1 15 -4 -1 -9 0 -12 1 -26 10 -37 6 -33 -11z"/>
</g>
<g transform="translate(0.000000,96.000000) scale(0.100000,-0.100000)"
fill="#00ad17" stroke="none">
<path d="M156 701 c-3 -4 -10 -20 -15 -35 -9 -23 -8 -26 9 -26 11 0 20 5 20
11 0 5 -4 7 -10 4 -12 -8 -13 -3 0 29 9 25 7 35 -4 17z"/>
<path d="M476 701 c-3 -4 -10 -20 -15 -35 -9 -23 -8 -26 9 -26 11 0 20 5 20
11 0 5 -4 7 -10 4 -12 -8 -13 -3 0 29 9 25 7 35 -4 17z"/>
<path d="M796 701 c-3 -4 -10 -20 -15 -35 -9 -23 -8 -26 9 -26 11 0 20 5 20
11 0 5 -4 7 -10 4 -12 -8 -13 -3 0 29 9 25 7 35 -4 17z"/>
<path d="M34 667 c3 -10 6 -21 6 -23 0 -2 7 -4 15 -4 8 0 15 5 15 11 0 5 -4 8
-9 4 -6 -3 -15 3 -21 12 -11 17 -11 17 -6 0z"/>
<path d="M70 675 c0 -3 2 -5 5 -5 3 0 5 2 5 5 0 3 -2 5 -5 5 -3 0 -5 -2 -5 -5z"/>
<path d="M227 661 c6 -23 23 -29 23 -8 0 9 2 9 9 -1 7 -11 9 -11 14 1 4 10 0
14 -11 12 -9 -1 -22 2 -29 7 -8 7 -10 3 -6 -11z"/>
<path d="M354 667 c3 -10 6 -21 6 -23 0 -2 7 -4 15 -4 8 0 15 5 15 11 0 5 -4
8 -9 4 -6 -3 -15 3 -21 12 -11 17 -11 17 -6 0z"/>
<path d="M390 675 c0 -3 2 -5 5 -5 3 0 5 2 5 5 0 3 -2 5 -5 5 -3 0 -5 -2 -5
-5z"/>
<path d="M547 661 c6 -23 23 -29 23 -8 0 9 2 9 9 -1 7 -11 9 -11 14 1 4 10 0
14 -11 12 -9 -1 -22 2 -29 7 -8 7 -10 3 -6 -11z"/>
<path d="M674 667 c3 -10 6 -21 6 -23 0 -2 7 -4 15 -4 8 0 15 5 15 11 0 5 -4
8 -9 4 -6 -3 -15 3 -21 12 -11 17 -11 17 -6 0z"/>
<path d="M710 675 c0 -3 2 -5 5 -5 3 0 5 2 5 5 0 3 -2 5 -5 5 -3 0 -5 -2 -5
-5z"/>
<path d="M867 661 c6 -23 23 -29 23 -8 0 9 2 9 9 -1 7 -11 9 -11 14 1 4 10 0
14 -11 12 -9 -1 -22 2 -29 7 -8 7 -10 3 -6 -11z"/>
<path d="M156 381 c-3 -4 -10 -20 -15 -35 -9 -23 -8 -26 9 -26 11 0 20 5 20
11 0 5 -4 7 -10 4 -12 -8 -13 -3 0 29 9 25 7 35 -4 17z"/>
<path d="M476 381 c-3 -4 -10 -20 -15 -35 -9 -23 -8 -26 9 -26 11 0 20 5 20
11 0 5 -4 7 -10 4 -12 -8 -13 -3 0 29 9 25 7 35 -4 17z"/>
<path d="M796 381 c-3 -4 -10 -20 -15 -35 -9 -23 -8 -26 9 -26 11 0 20 5 20
11 0 5 -4 7 -10 4 -12 -8 -13 -3 0 29 9 25 7 35 -4 17z"/>
<path d="M34 347 c3 -10 6 -21 6 -23 0 -2 7 -4 15 -4 8 0 15 5 15 11 0 5 -4 8
-9 4 -6 -3 -15 3 -21 12 -11 17 -11 17 -6 0z"/>
<path d="M70 355 c0 -3 2 -5 5 -5 3 0 5 2 5 5 0 3 -2 5 -5 5 -3 0 -5 -2 -5 -5z"/>
<path d="M227 341 c6 -23 23 -29 23 -8 0 9 2 9 9 -1 7 -11 9 -11 14 1 4 10 0
14 -11 12 -9 -1 -22 2 -29 7 -8 7 -10 3 -6 -11z"/>
<path d="M354 347 c3 -10 6 -21 6 -23 0 -2 7 -4 15 -4 8 0 15 5 15 11 0 5 -4
8 -9 4 -6 -3 -15 3 -21 12 -11 17 -11 17 -6 0z"/>
<path d="M390 355 c0 -3 2 -5 5 -5 3 0 5 2 5 5 0 3 -2 5 -5 5 -3 0 -5 -2 -5
-5z"/>
<path d="M547 341 c6 -23 23 -29 23 -8 0 9 2 9 9 -1 7 -11 9 -11 14 1 4 10 0
14 -11 12 -9 -1 -22 2 -29 7 -8 7 -10 3 -6 -11z"/>
<path d="M674 347 c3 -10 6 -21 6 -23 0 -2 7 -4 15 -4 8 0 15 5 15 11 0 5 -4
8 -9 4 -6 -3 -15 3 -21 12 -11 17 -11 17 -6 0z"/>
<path d="M710 355 c0 -3 2 -5 5 -5 3 0 5 2 5 5 0 3 -2 5 -5 5 -3 0 -5 -2 -5
-5z"/>
<path d="M867 341 c6 -23 23 -29 23 -8 0 9 2 9 9 -1 7 -11 9 -11 14 1 4 10 0
14 -11 12 -9 -1 -22 2 -29 7 -8 7 -10 3 -6 -11z"/>
<path d="M156 61 c-3 -4 -10 -20 -15 -35 -9 -23 -8 -26 9 -26 11 0 20 5 20 11
0 5 -4 7 -10 4 -12 -8 -13 -3 0 29 9 25 7 35 -4 17z"/>
<path d="M476 61 c-3 -4 -10 -20 -15 -35 -9 -23 -8 -26 9 -26 11 0 20 5 20 11
0 5 -4 7 -10 4 -12 -8 -13 -3 0 29 9 25 7 35 -4 17z"/>
<path d="M796 61 c-3 -4 -10 -20 -15 -35 -9 -23 -8 -26 9 -26 11 0 20 5 20 11
0 5 -4 7 -10 4 -12 -8 -13 -3 0 29 9 25 7 35 -4 17z"/>
<path d="M34 27 c3 -10 6 -21 6 -23 0 -2 7 -4 15 -4 8 0 15 5 15 11 0 5 -4 8
-9 4 -6 -3 -15 3 -21 12 -11 17 -11 17 -6 0z"/>
<path d="M70 35 c0 -3 2 -5 5 -5 3 0 5 2 5 5 0 3 -2 5 -5 5 -3 0 -5 -2 -5 -5z"/>
<path d="M227 21 c6 -23 23 -29 23 -8 0 9 2 9 9 -1 7 -11 9 -11 14 1 4 10 0
14 -11 12 -9 -1 -22 2 -29 7 -8 7 -10 3 -6 -11z"/>
<path d="M354 27 c3 -10 6 -21 6 -23 0 -2 7 -4 15 -4 8 0 15 5 15 11 0 5 -4 8
-9 4 -6 -3 -15 3 -21 12 -11 17 -11 17 -6 0z"/>
<path d="M390 35 c0 -3 2 -5 5 -5 3 0 5 2 5 5 0 3 -2 5 -5 5 -3 0 -5 -2 -5 -5z"/>
<path d="M547 21 c6 -23 23 -29 23 -8 0 9 2 9 9 -1 7 -11 9 -11 14 1 4 10 0
14 -11 12 -9 -1 -22 2 -29 7 -8 7 -10 3 -6 -11z"/>
<path d="M674 27 c3 -10 6 -21 6 -23 0 -2 7 -4 15 -4 8 0 15 5 15 11 0 5 -4 8
-9 4 -6 -3 -15 3 -21 12 -11 17 -11 17 -6 0z"/>
<path d="M710 35 c0 -3 2 -5 5 -5 3 0 5 2 5 5 0 3 -2 5 -5 5 -3 0 -5 -2 -5 -5z"/>
<path d="M867 21 c6 -23 23 -29 23 -8 0 9 2 9 9 -1 7 -11 9 -11 14 1 4 10 0
14 -11 12 -9 -1 -22 2 -29 7 -8 7 -10 3 -6 -11z"/>
</g>
<g transform="translate(0.000000,96.000000) scale(0.100000,-0.100000)"
fill="#02950e" stroke="none">
<path d="M140 670 c0 -7 3 -10 7 -7 3 4 3 10 0 14 -4 3 -7 0 -7 -7z"/>
<path d="M230 660 c6 -11 13 -20 16 -20 2 0 0 9 -6 20 -6 11 -13 20 -16 20 -2
0 0 -9 6 -20z"/>
<path d="M460 670 c0 -7 3 -10 7 -7 3 4 3 10 0 14 -4 3 -7 0 -7 -7z"/>
<path d="M550 660 c6 -11 13 -20 16 -20 2 0 0 9 -6 20 -6 11 -13 20 -16 20 -2
0 0 -9 6 -20z"/>
<path d="M780 670 c0 -7 3 -10 7 -7 3 4 3 10 0 14 -4 3 -7 0 -7 -7z"/>
<path d="M870 660 c6 -11 13 -20 16 -20 2 0 0 9 -6 20 -6 11 -13 20 -16 20 -2
0 0 -9 6 -20z"/>
<path d="M36 657 c3 -10 9 -15 12 -12 3 3 0 11 -7 18 -10 9 -11 8 -5 -6z"/>
<path d="M265 659 c-4 -6 -5 -12 -2 -15 2 -3 7 2 10 11 7 17 1 20 -8 4z"/>
<path d="M356 657 c3 -10 9 -15 12 -12 3 3 0 11 -7 18 -10 9 -11 8 -5 -6z"/>
<path d="M585 659 c-4 -6 -5 -12 -2 -15 2 -3 7 2 10 11 7 17 1 20 -8 4z"/>
<path d="M676 657 c3 -10 9 -15 12 -12 3 3 0 11 -7 18 -10 9 -11 8 -5 -6z"/>
<path d="M905 659 c-4 -6 -5 -12 -2 -15 2 -3 7 2 10 11 7 17 1 20 -8 4z"/>
<path d="M60 645 c0 -3 2 -5 5 -5 3 0 5 2 5 5 0 3 -2 5 -5 5 -3 0 -5 -2 -5 -5z"/>
<path d="M133 643 c4 -3 10 -3 14 0 3 4 0 7 -7 7 -7 0 -10 -3 -7 -7z"/>
<path d="M160 645 c0 -3 2 -5 5 -5 3 0 5 2 5 5 0 3 -2 5 -5 5 -3 0 -5 -2 -5
-5z"/>
<path d="M380 645 c0 -3 2 -5 5 -5 3 0 5 2 5 5 0 3 -2 5 -5 5 -3 0 -5 -2 -5
-5z"/>
<path d="M453 643 c4 -3 10 -3 14 0 3 4 0 7 -7 7 -7 0 -10 -3 -7 -7z"/>
<path d="M480 645 c0 -3 2 -5 5 -5 3 0 5 2 5 5 0 3 -2 5 -5 5 -3 0 -5 -2 -5
-5z"/>
<path d="M700 645 c0 -3 2 -5 5 -5 3 0 5 2 5 5 0 3 -2 5 -5 5 -3 0 -5 -2 -5
-5z"/>
<path d="M773 643 c4 -3 10 -3 14 0 3 4 0 7 -7 7 -7 0 -10 -3 -7 -7z"/>
<path d="M800 645 c0 -3 2 -5 5 -5 3 0 5 2 5 5 0 3 -2 5 -5 5 -3 0 -5 -2 -5
-5z"/>
<path d="M140 350 c0 -7 3 -10 7 -7 3 4 3 10 0 14 -4 3 -7 0 -7 -7z"/>
<path d="M230 340 c6 -11 13 -20 16 -20 2 0 0 9 -6 20 -6 11 -13 20 -16 20 -2
0 0 -9 6 -20z"/>
<path d="M460 350 c0 -7 3 -10 7 -7 3 4 3 10 0 14 -4 3 -7 0 -7 -7z"/>
<path d="M550 340 c6 -11 13 -20 16 -20 2 0 0 9 -6 20 -6 11 -13 20 -16 20 -2
0 0 -9 6 -20z"/>
<path d="M780 350 c0 -7 3 -10 7 -7 3 4 3 10 0 14 -4 3 -7 0 -7 -7z"/>
<path d="M870 340 c6 -11 13 -20 16 -20 2 0 0 9 -6 20 -6 11 -13 20 -16 20 -2
0 0 -9 6 -20z"/>
<path d="M36 337 c3 -10 9 -15 12 -12 3 3 0 11 -7 18 -10 9 -11 8 -5 -6z"/>
<path d="M265 339 c-4 -6 -5 -12 -2 -15 2 -3 7 2 10 11 7 17 1 20 -8 4z"/>
<path d="M356 337 c3 -10 9 -15 12 -12 3 3 0 11 -7 18 -10 9 -11 8 -5 -6z"/>
<path d="M585 339 c-4 -6 -5 -12 -2 -15 2 -3 7 2 10 11 7 17 1 20 -8 4z"/>
<path d="M676 337 c3 -10 9 -15 12 -12 3 3 0 11 -7 18 -10 9 -11 8 -5 -6z"/>
<path d="M905 339 c-4 -6 -5 -12 -2 -15 2 -3 7 2 10 11 7 17 1 20 -8 4z"/>
<path d="M60 325 c0 -3 2 -5 5 -5 3 0 5 2 5 5 0 3 -2 5 -5 5 -3 0 -5 -2 -5 -5z"/>
<path d="M133 323 c4 -3 10 -3 14 0 3 4 0 7 -7 7 -7 0 -10 -3 -7 -7z"/>
<path d="M160 325 c0 -3 2 -5 5 -5 3 0 5 2 5 5 0 3 -2 5 -5 5 -3 0 -5 -2 -5
-5z"/>
<path d="M380 325 c0 -3 2 -5 5 -5 3 0 5 2 5 5 0 3 -2 5 -5 5 -3 0 -5 -2 -5
-5z"/>
<path d="M453 323 c4 -3 10 -3 14 0 3 4 0 7 -7 7 -7 0 -10 -3 -7 -7z"/>
<path d="M480 325 c0 -3 2 -5 5 -5 3 0 5 2 5 5 0 3 -2 5 -5 5 -3 0 -5 -2 -5
-5z"/>
<path d="M700 325 c0 -3 2 -5 5 -5 3 0 5 2 5 5 0 3 -2 5 -5 5 -3 0 -5 -2 -5
-5z"/>
<path d="M773 323 c4 -3 10 -3 14 0 3 4 0 7 -7 7 -7 0 -10 -3 -7 -7z"/>
<path d="M800 325 c0 -3 2 -5 5 -5 3 0 5 2 5 5 0 3 -2 5 -5 5 -3 0 -5 -2 -5
-5z"/>
<path d="M140 30 c0 -7 3 -10 7 -7 3 4 3 10 0 14 -4 3 -7 0 -7 -7z"/>
<path d="M230 20 c6 -11 13 -20 16 -20 2 0 0 9 -6 20 -6 11 -13 20 -16 20 -2
0 0 -9 6 -20z"/>
<path d="M460 30 c0 -7 3 -10 7 -7 3 4 3 10 0 14 -4 3 -7 0 -7 -7z"/>
<path d="M550 20 c6 -11 13 -20 16 -20 2 0 0 9 -6 20 -6 11 -13 20 -16 20 -2
0 0 -9 6 -20z"/>
<path d="M780 30 c0 -7 3 -10 7 -7 3 4 3 10 0 14 -4 3 -7 0 -7 -7z"/>
<path d="M870 20 c6 -11 13 -20 16 -20 2 0 0 9 -6 20 -6 11 -13 20 -16 20 -2
0 0 -9 6 -20z"/>
<path d="M36 17 c3 -10 9 -15 12 -12 3 3 0 11 -7 18 -10 9 -11 8 -5 -6z"/>
<path d="M265 19 c-4 -6 -5 -12 -2 -15 2 -3 7 2 10 11 7 17 1 20 -8 4z"/>
<path d="M356 17 c3 -10 9 -15 12 -12 3 3 0 11 -7 18 -10 9 -11 8 -5 -6z"/>
<path d="M585 19 c-4 -6 -5 -12 -2 -15 2 -3 7 2 10 11 7 17 1 20 -8 4z"/>
<path d="M676 17 c3 -10 9 -15 12 -12 3 3 0 11 -7 18 -10 9 -11 8 -5 -6z"/>
<path d="M905 19 c-4 -6 -5 -12 -2 -15 2 -3 7 2 10 11 7 17 1 20 -8 4z"/>
<path d="M60 5 c0 -3 2 -5 5 -5 3 0 5 2 5 5 0 3 -2 5 -5 5 -3 0 -5 -2 -5 -5z"/>
<path d="M133 3 c4 -3 10 -3 14 0 3 4 0 7 -7 7 -7 0 -10 -3 -7 -7z"/>
<path d="M160 5 c0 -3 2 -5 5 -5 3 0 5 2 5 5 0 3 -2 5 -5 5 -3 0 -5 -2 -5 -5z"/>
<path d="M380 5 c0 -3 2 -5 5 -5 3 0 5 2 5 5 0 3 -2 5 -5 5 -3 0 -5 -2 -5 -5z"/>
<path d="M453 3 c4 -3 10 -3 14 0 3 4 0 7 -7 7 -7 0 -10 -3 -7 -7z"/>
<path d="M480 5 c0 -3 2 -5 5 -5 3 0 5 2 5 5 0 3 -2 5 -5 5 -3 0 -5 -2 -5 -5z"/>
<path d="M700 5 c0 -3 2 -5 5 -5 3 0 5 2 5 5 0 3 -2 5 -5 5 -3 0 -5 -2 -5 -5z"/>
<path d="M773 3 c4 -3 10 -3 14 0 3 4 0 7 -7 7 -7 0 -10 -3 -7 -7z"/>
<path d="M800 5 c0 -3 2 -5 5 -5 3 0 5 2 5 5 0 3 -2 5 -5 5 -3 0 -5 -2 -5 -5z"/>
</g>
<g transform="translate(0.000000,96.000000) scale(0.100000,-0.100000)"
fill="#00c617" stroke="none">
<path d="M140 670 c0 -7 3 -10 7 -7 3 4 3 10 0 14 -4 3 -7 0 -7 -7z"/>
<path d="M230 660 c6 -11 13 -20 16 -20 2 0 0 9 -6 20 -6 11 -13 20 -16 20 -2
0 0 -9 6 -20z"/>
<path d="M460 670 c0 -7 3 -10 7 -7 3 4 3 10 0 14 -4 3 -7 0 -7 -7z"/>
<path d="M550 660 c6 -11 13 -20 16 -20 2 0 0 9 -6 20 -6 11 -13 20 -16 20 -2
0 0 -9 6 -20z"/>
<path d="M780 670 c0 -7 3 -10 7 -7 3 4 3 10 0 14 -4 3 -7 0 -7 -7z"/>
<path d="M870 660 c6 -11 13 -20 16 -20 2 0 0 9 -6 20 -6 11 -13 20 -16 20 -2
0 0 -9 6 -20z"/>
<path d="M264 658 c-4 -7 -3 -8 4 -4 12 7 16 16 8 16 -3 0 -8 -5 -12 -12z"/>
<path d="M584 658 c-4 -7 -3 -8 4 -4 12 7 16 16 8 16 -3 0 -8 -5 -12 -12z"/>
<path d="M904 658 c-4 -7 -3 -8 4 -4 7 4 12 9 12 12 0 8 -9 4 -16 -8z"/>
<path d="M60 645 c0 -3 2 -5 5 -5 3 0 5 2 5 5 0 3 -2 5 -5 5 -3 0 -5 -2 -5 -5z"/>
<path d="M140 645 c0 -3 2 -5 5 -5 3 0 5 2 5 5 0 3 -2 5 -5 5 -3 0 -5 -2 -5
-5z"/>
<path d="M380 645 c0 -3 2 -5 5 -5 3 0 5 2 5 5 0 3 -2 5 -5 5 -3 0 -5 -2 -5
-5z"/>
<path d="M460 645 c0 -3 2 -5 5 -5 3 0 5 2 5 5 0 3 -2 5 -5 5 -3 0 -5 -2 -5
-5z"/>
<path d="M700 645 c0 -3 2 -5 5 -5 3 0 5 2 5 5 0 3 -2 5 -5 5 -3 0 -5 -2 -5
-5z"/>
<path d="M780 645 c0 -3 2 -5 5 -5 3 0 5 2 5 5 0 3 -2 5 -5 5 -3 0 -5 -2 -5
-5z"/>
<path d="M140 350 c0 -7 3 -10 7 -7 3 4 3 10 0 14 -4 3 -7 0 -7 -7z"/>
<path d="M230 340 c6 -11 13 -20 16 -20 2 0 0 9 -6 20 -6 11 -13 20 -16 20 -2
0 0 -9 6 -20z"/>
<path d="M460 350 c0 -7 3 -10 7 -7 3 4 3 10 0 14 -4 3 -7 0 -7 -7z"/>
<path d="M550 340 c6 -11 13 -20 16 -20 2 0 0 9 -6 20 -6 11 -13 20 -16 20 -2
0 0 -9 6 -20z"/>
<path d="M780 350 c0 -7 3 -10 7 -7 3 4 3 10 0 14 -4 3 -7 0 -7 -7z"/>
<path d="M870 340 c6 -11 13 -20 16 -20 2 0 0 9 -6 20 -6 11 -13 20 -16 20 -2
0 0 -9 6 -20z"/>
<path d="M264 338 c-4 -7 -3 -8 4 -4 7 4 12 9 12 12 0 8 -9 4 -16 -8z"/>
<path d="M584 338 c-4 -7 -3 -8 4 -4 12 7 16 16 8 16 -3 0 -8 -5 -12 -12z"/>
<path d="M904 338 c-4 -7 -3 -8 4 -4 7 4 12 9 12 12 0 8 -9 4 -16 -8z"/>
<path d="M60 325 c0 -3 2 -5 5 -5 3 0 5 2 5 5 0 3 -2 5 -5 5 -3 0 -5 -2 -5 -5z"/>
<path d="M140 325 c0 -3 2 -5 5 -5 3 0 5 2 5 5 0 3 -2 5 -5 5 -3 0 -5 -2 -5
-5z"/>
<path d="M380 325 c0 -3 2 -5 5 -5 3 0 5 2 5 5 0 3 -2 5 -5 5 -3 0 -5 -2 -5
-5z"/>
<path d="M460 325 c0 -3 2 -5 5 -5 3 0 5 2 5 5 0 3 -2 5 -5 5 -3 0 -5 -2 -5
-5z"/>
<path d="M700 325 c0 -3 2 -5 5 -5 3 0 5 2 5 5 0 3 -2 5 -5 5 -3 0 -5 -2 -5
-5z"/>
<path d="M780 325 c0 -3 2 -5 5 -5 3 0 5 2 5 5 0 3 -2 5 -5 5 -3 0 -5 -2 -5
-5z"/>
<path d="M140 30 c0 -7 3 -10 7 -7 3 4 3 10 0 14 -4 3 -7 0 -7 -7z"/>
<path d="M230 20 c6 -11 13 -20 16 -20 2 0 0 9 -6 20 -6 11 -13 20 -16 20 -2
0 0 -9 6 -20z"/>
<path d="M460 30 c0 -7 3 -10 7 -7 3 4 3 10 0 14 -4 3 -7 0 -7 -7z"/>
<path d="M550 20 c6 -11 13 -20 16 -20 2 0 0 9 -6 20 -6 11 -13 20 -16 20 -2
0 0 -9 6 -20z"/>
<path d="M780 30 c0 -7 3 -10 7 -7 3 4 3 10 0 14 -4 3 -7 0 -7 -7z"/>
<path d="M870 20 c6 -11 13 -20 16 -20 2 0 0 9 -6 20 -6 11 -13 20 -16 20 -2
0 0 -9 6 -20z"/>
<path d="M264 18 c-4 -7 -3 -8 4 -4 12 7 16 16 8 16 -3 0 -8 -5 -12 -12z"/>
<path d="M584 18 c-4 -7 -3 -8 4 -4 7 4 12 9 12 12 0 8 -9 4 -16 -8z"/>
<path d="M904 18 c-4 -7 -3 -8 4 -4 7 4 12 9 12 12 0 8 -9 4 -16 -8z"/>
<path d="M60 5 c0 -3 2 -5 5 -5 3 0 5 2 5 5 0 3 -2 5 -5 5 -3 0 -5 -2 -5 -5z"/>
<path d="M140 5 c0 -3 2 -5 5 -5 3 0 5 2 5 5 0 3 -2 5 -5 5 -3 0 -5 -2 -5 -5z"/>
<path d="M380 5 c0 -3 2 -5 5 -5 3 0 5 2 5 5 0 3 -2 5 -5 5 -3 0 -5 -2 -5 -5z"/>
<path d="M460 5 c0 -3 2 -5 5 -5 3 0 5 2 5 5 0 3 -2 5 -5 5 -3 0 -5 -2 -5 -5z"/>
<path d="M700 5 c0 -3 2 -5 5 -5 3 0 5 2 5 5 0 3 -2 5 -5 5 -3 0 -5 -2 -5 -5z"/>
<path d="M780 5 c0 -3 2 -5 5 -5 3 0 5 2 5 5 0 3 -2 5 -5 5 -3 0 -5 -2 -5 -5z"/>
</g>
<g transform="translate(0.000000,96.000000) scale(0.100000,-0.100000)"
fill="#056b05" stroke="none">
<path d="M140 670 c0 -7 3 -10 7 -7 3 4 3 10 0 14 -4 3 -7 0 -7 -7z"/>
<path d="M460 670 c0 -7 3 -10 7 -7 3 4 3 10 0 14 -4 3 -7 0 -7 -7z"/>
<path d="M780 670 c0 -7 3 -10 7 -7 3 4 3 10 0 14 -4 3 -7 0 -7 -7z"/>
<path d="M60 645 c0 -3 2 -5 5 -5 3 0 5 2 5 5 0 3 -2 5 -5 5 -3 0 -5 -2 -5 -5z"/>
<path d="M140 645 c0 -3 2 -5 5 -5 3 0 5 2 5 5 0 3 -2 5 -5 5 -3 0 -5 -2 -5
-5z"/>
<path d="M240 645 c0 -3 2 -5 5 -5 3 0 5 2 5 5 0 3 -2 5 -5 5 -3 0 -5 -2 -5
-5z"/>
<path d="M380 645 c0 -3 2 -5 5 -5 3 0 5 2 5 5 0 3 -2 5 -5 5 -3 0 -5 -2 -5
-5z"/>
<path d="M460 645 c0 -3 2 -5 5 -5 3 0 5 2 5 5 0 3 -2 5 -5 5 -3 0 -5 -2 -5
-5z"/>
<path d="M560 645 c0 -3 2 -5 5 -5 3 0 5 2 5 5 0 3 -2 5 -5 5 -3 0 -5 -2 -5
-5z"/>
<path d="M700 645 c0 -3 2 -5 5 -5 3 0 5 2 5 5 0 3 -2 5 -5 5 -3 0 -5 -2 -5
-5z"/>
<path d="M780 645 c0 -3 2 -5 5 -5 3 0 5 2 5 5 0 3 -2 5 -5 5 -3 0 -5 -2 -5
-5z"/>
<path d="M880 645 c0 -3 2 -5 5 -5 3 0 5 2 5 5 0 3 -2 5 -5 5 -3 0 -5 -2 -5
-5z"/>
<path d="M140 350 c0 -7 3 -10 7 -7 3 4 3 10 0 14 -4 3 -7 0 -7 -7z"/>
<path d="M460 350 c0 -7 3 -10 7 -7 3 4 3 10 0 14 -4 3 -7 0 -7 -7z"/>
<path d="M780 350 c0 -7 3 -10 7 -7 3 4 3 10 0 14 -4 3 -7 0 -7 -7z"/>
<path d="M60 325 c0 -3 2 -5 5 -5 3 0 5 2 5 5 0 3 -2 5 -5 5 -3 0 -5 -2 -5 -5z"/>
<path d="M140 325 c0 -3 2 -5 5 -5 3 0 5 2 5 5 0 3 -2 5 -5 5 -3 0 -5 -2 -5
-5z"/>
<path d="M240 325 c0 -3 2 -5 5 -5 3 0 5 2 5 5 0 3 -2 5 -5 5 -3 0 -5 -2 -5
-5z"/>
<path d="M380 325 c0 -3 2 -5 5 -5 3 0 5 2 5 5 0 3 -2 5 -5 5 -3 0 -5 -2 -5
-5z"/>
<path d="M460 325 c0 -3 2 -5 5 -5 3 0 5 2 5 5 0 3 -2 5 -5 5 -3 0 -5 -2 -5
-5z"/>
<path d="M560 325 c0 -3 2 -5 5 -5 3 0 5 2 5 5 0 3 -2 5 -5 5 -3 0 -5 -2 -5
-5z"/>
<path d="M700 325 c0 -3 2 -5 5 -5 3 0 5 2 5 5 0 3 -2 5 -5 5 -3 0 -5 -2 -5
-5z"/>
<path d="M780 325 c0 -3 2 -5 5 -5 3 0 5 2 5 5 0 3 -2 5 -5 5 -3 0 -5 -2 -5
-5z"/>
<path d="M880 325 c0 -3 2 -5 5 -5 3 0 5 2 5 5 0 3 -2 5 -5 5 -3 0 -5 -2 -5
-5z"/>
<path d="M140 30 c0 -7 3 -10 7 -7 3 4 3 10 0 14 -4 3 -7 0 -7 -7z"/>
<path d="M460 30 c0 -7 3 -10 7 -7 3 4 3 10 0 14 -4 3 -7 0 -7 -7z"/>
<path d="M780 30 c0 -7 3 -10 7 -7 3 4 3 10 0 14 -4 3 -7 0 -7 -7z"/>
<path d="M60 5 c0 -3 2 -5 5 -5 3 0 5 2 5 5 0 3 -2 5 -5 5 -3 0 -5 -2 -5 -5z"/>
<path d="M140 5 c0 -3 2 -5 5 -5 3 0 5 2 5 5 0 3 -2 5 -5 5 -3 0 -5 -2 -5 -5z"/>
<path d="M240 5 c0 -3 2 -5 5 -5 3 0 5 2 5 5 0 3 -2 5 -5 5 -3 0 -5 -2 -5 -5z"/>
<path d="M380 5 c0 -3 2 -5 5 -5 3 0 5 2 5 5 0 3 -2 5 -5 5 -3 0 -5 -2 -5 -5z"/>
<path d="M460 5 c0 -3 2 -5 5 -5 3 0 5 2 5 5 0 3 -2 5 -5 5 -3 0 -5 -2 -5 -5z"/>
<path d="M560 5 c0 -3 2 -5 5 -5 3 0 5 2 5 5 0 3 -2 5 -5 5 -3 0 -5 -2 -5 -5z"/>
<path d="M700 5 c0 -3 2 -5 5 -5 3 0 5 2 5 5 0 3 -2 5 -5 5 -3 0 -5 -2 -5 -5z"/>
<path d="M780 5 c0 -3 2 -5 5 -5 3 0 5 2 5 5 0 3 -2 5 -5 5 -3 0 -5 -2 -5 -5z"/>
<path d="M880 5 c0 -3 2 -5 5 -5 3 0 5 2 5 5 0 3 -2 5 -5 5 -3 0 -5 -2 -5 -5z"/>
</g>
<g transform="translate(0.000000,96.000000) scale(0.100000,-0.100000)"
fill="#00b817" stroke="none">
<path d="M140 670 c0 -7 3 -10 7 -7 3 4 3 10 0 14 -4 3 -7 0 -7 -7z"/>
<path d="M460 670 c0 -7 3 -10 7 -7 3 4 3 10 0 14 -4 3 -7 0 -7 -7z"/>
<path d="M780 670 c0 -7 3 -10 7 -7 3 4 3 10 0 14 -4 3 -7 0 -7 -7z"/>
<path d="M140 350 c0 -7 3 -10 7 -7 3 4 3 10 0 14 -4 3 -7 0 -7 -7z"/>
<path d="M460 350 c0 -7 3 -10 7 -7 3 4 3 10 0 14 -4 3 -7 0 -7 -7z"/>
<path d="M780 350 c0 -7 3 -10 7 -7 3 4 3 10 0 14 -4 3 -7 0 -7 -7z"/>
<path d="M140 30 c0 -7 3 -10 7 -7 3 4 3 10 0 14 -4 3 -7 0 -7 -7z"/>
<path d="M460 30 c0 -7 3 -10 7 -7 3 4 3 10 0 14 -4 3 -7 0 -7 -7z"/>
<path d="M780 30 c0 -7 3 -10 7 -7 3 4 3 10 0 14 -4 3 -7 0 -7 -7z"/>
</g>
  </g>
</svg>
