<?xml version="1.0" encoding="UTF-8" standalone="no"?>
<!-- Created with Inkscape (http://www.inkscape.org/) -->

<svg
   xmlns:dc="http://purl.org/dc/elements/1.1/"
   xmlns:cc="http://creativecommons.org/ns#"
   xmlns:rdf="http://www.w3.org/1999/02/22-rdf-syntax-ns#"
   xmlns:svg="http://www.w3.org/2000/svg"
   xmlns="http://www.w3.org/2000/svg"
   xmlns:sodipodi="http://sodipodi.sourceforge.net/DTD/sodipodi-0.dtd"
   xmlns:inkscape="http://www.inkscape.org/namespaces/inkscape"
   width="32px"
   height="32px"
   viewBox="0 0 32px 32px"
   version="1.1"
   id="svgMain"
   inkscape:version="0.92.2 (5c3e80d, 2017-08-06)"
   sodipodi:docname="reference_SVG.svg">
  <defs
     id="defs4542" />
  <sodipodi:namedview
     id="base"
     pagecolor="#ffffff"
     bordercolor="#666666"
     borderopacity="1.0"
     inkscape:pageopacity="0.0"
     inkscape:pageshadow="2"
     inkscape:zoom="1"
     inkscape:cx="0"
     inkscape:cy="0"
     inkscape:document-units="px"
     inkscape:current-layer="layer1"
     showgrid="false"
     units="px"
     inkscape:window-width="1024"
     inkscape:window-height="768"
     inkscape:window-x="-8"
     inkscape:window-y="-8"
     inkscape:window-maximized="1" />
  <metadata
     id="metadata1">
    <rdf:RDF>
      <cc:Work
         rdf:about="">
        <dc:format>image/svg+xml</dc:format>
        <dc:type
           rdf:resource="http://purl.org/dc/dcmitype/StillImage" />
        <dc:title />
      </cc:Work>
    </rdf:RDF>
  </metadata>
  <g transform="translate(-32,-32)"
     inkscape:label="Layer 1"
     inkscape:groupmode="layer"
     id="layer1">
    <!-- INSERT MARKER -->
<g transform="translate(0.000000,96.000000) scale(0.100000,-0.100000)"
fill="#00e210" stroke="none">
<path d="M93 818 c-19 -18 -24 -19 -38 -8 -11 9 -19 10 -26 3 -8 -8 -5 -13 10
-18 12 -3 21 -13 21 -22 0 -13 -3 -13 -15 -3 -22 18 -31 4 -12 -18 10 -11 17
-35 16 -58 0 -33 -2 -36 -9 -16 -14 33 -21 27 -9 -8 13 -37 30 -38 46 -4 10
22 10 24 -3 14 -11 -10 -14 -9 -14 4 0 10 5 27 11 38 8 15 8 19 0 14 -27 -17
-3 43 32 82 26 28 18 29 -10 0z"/>
<path d="M413 818 c-19 -18 -24 -19 -38 -8 -11 9 -19 10 -26 3 -8 -8 -5 -13
10 -18 12 -3 21 -13 21 -22 0 -13 -3 -13 -15 -3 -22 18 -31 4 -12 -18 10 -11
17 -35 16 -58 0 -33 -2 -36 -9 -16 -14 33 -21 27 -9 -8 13 -37 30 -38 46 -4
10 22 10 24 -3 14 -11 -10 -14 -9 -14 4 0 10 5 27 11 38 8 15 8 19 0 14 -27
-17 -3 43 32 82 26 28 18 29 -10 0z"/>
<path d="M733 818 c-19 -18 -24 -19 -38 -8 -11 9 -19 10 -26 3 -8 -8 -5 -13
10 -18 12 -3 21 -13 21 -22 0 -13 -3 -13 -15 -3 -22 18 -31 4 -12 -18 10 -11
17 -35 16 -58 0 -33 -2 -36 -9 -16 -14 33 -21 27 -9 -8 13 -37 30 -38 46 -4
10 22 10 24 -3 14 -11 -10 -14 -9 -14 4 0 10 5 27 11 38 8 15 8 19 0 14 -27
-17 -3 43 32 82 26 28 18 29 -10 0z"/>
<path d="M165 780 c-17 -19 -19 -19 -31 -2 -10 13 -10 8 1 -20 17 -42 19 -62
6 -54 -5 4 -7 -4 -3 -16 5 -20 3 -21 -11 -10 -14 12 -15 11 -4 -12 17 -37 40
-32 59 14 19 46 16 53 -6 13 l-15 -28 -1 33 c0 19 9 45 20 59 33 42 20 62 -15
23z"/>
<path d="M220 784 c0 -11 7 -29 15 -40 16 -21 20 -48 6 -40 -5 4 -7 -4 -3 -16
3 -13 1 -19 -5 -15 -7 5 -9 0 -6 -13 8 -29 38 -25 52 8 10 25 10 26 -4 8 -15
-20 -15 -20 -15 0 0 11 6 26 13 33 10 11 10 13 0 7 -21 -12 -15 19 7 39 11 10
20 25 20 34 -1 12 -8 8 -25 -12 -14 -15 -25 -24 -25 -19 0 4 -7 17 -15 28 -14
19 -14 19 -15 -2z"/>
<path d="M485 780 c-17 -19 -19 -19 -31 -2 -10 13 -10 8 1 -20 17 -42 19 -62
6 -54 -5 4 -7 -4 -3 -16 5 -20 3 -21 -11 -10 -14 12 -15 11 -4 -12 17 -37 40
-32 59 14 19 46 16 53 -6 13 l-15 -28 -1 33 c0 19 9 45 20 59 33 42 20 62 -15
23z"/>
<path d="M540 784 c0 -11 7 -29 15 -40 16 -21 20 -48 6 -40 -5 4 -7 -4 -3 -16
3 -13 1 -19 -5 -15 -7 5 -9 0 -6 -13 8 -29 38 -25 52 8 10 25 10 26 -4 8 -15
-20 -15 -20 -15 0 0 11 6 26 13 33 10 11 10 13 0 7 -21 -12 -15 19 7 39 11 10
20 25 20 34 -1 12 -8 8 -25 -12 -14 -15 -25 -24 -25 -19 0 4 -7 17 -15 28 -14
19 -14 19 -15 -2z"/>
<path d="M805 780 c-17 -19 -19 -19 -31 -2 -10 13 -10 8 1 -20 17 -42 19 -62
6 -54 -5 4 -7 -4 -3 -16 5 -20 3 -21 -11 -10 -14 12 -15 11 -4 -12 17 -37 40
-32 59 14 19 46 16 53 -6 13 l-15 -28 -1 33 c0 19 9 45 20 59 33 42 20 62 -15
23z"/>
<path d="M860 784 c0 -11 7 -29 15 -40 16 -21 20 -48 6 -40 -5 4 -7 -4 -3 -16
3 -13 1 -19 -5 -15 -7 5 -9 0 -6 -13 8 -29 38 -25 52 8 10 25 10 26 -4 8 -15
-20 -15 -20 -15 0 0 11 6 26 13 33 10 11 10 13 0 7 -21 -12 -15 19 7 39 11 10
20 25 20 34 -1 12 -8 8 -25 -12 -14 -15 -25 -24 -25 -19 0 4 -7 17 -15 28 -14
19 -14 19 -15 -2z"/>
<path d="M93 498 c-19 -18 -24 -19 -38 -8 -11 9 -19 10 -26 3 -8 -8 -5 -13 10
-18 12 -3 21 -13 21 -22 0 -13 -3 -13 -15 -3 -22 18 -31 4 -12 -18 10 -11 17
-35 16 -58 0 -33 -2 -36 -9 -16 -14 33 -21 27 -9 -8 13 -37 30 -38 46 -4 10
22 10 24 -3 14 -11 -10 -14 -9 -14 4 0 10 5 27 11 38 8 15 8 19 0 14 -27 -17
-3 43 32 82 26 28 18 29 -10 0z"/>
<path d="M413 498 c-19 -18 -24 -19 -38 -8 -11 9 -19 10 -26 3 -8 -8 -5 -13
10 -18 12 -3 21 -13 21 -22 0 -13 -3 -13 -15 -3 -22 18 -31 4 -12 -18 10 -11
17 -35 16 -58 0 -33 -2 -36 -9 -16 -14 33 -21 27 -9 -8 13 -37 30 -38 46 -4
10 22 10 24 -3 14 -11 -10 -14 -9 -14 4 0 10 5 27 11 38 8 15 8 19 0 14 -27
-17 -3 43 32 82 26 28 18 29 -10 0z"/>
<path d="M733 498 c-19 -18 -24 -19 -38 -8 -11 9 -19 10 -26 3 -8 -8 -5 -13
10 -18 12 -3 21 -13 21 -22 0 -13 -3 -13 -15 -3 -22 18 -31 4 -12 -18 10 -11
17 -35 16 -58 0 -33 -2 -36 -9 -16 -14 33 -21 27 -9 -8 13 -37 30 -38 46 -4
10 22 10 24 -3 14 -11 -10 -14 -9 -14 4 0 10 5 27 11 38 8 15 8 19 0 14 -27
-17 -3 43 32 82 26 28 18 29 -10 0z"/>
<path d="M165 460 c-17 -19 -19 -19 -31 -2 -10 13 -10 8 1 -20 17 -42 19 -62
6 -54 -5 4 -7 -4 -3 -16 5 -20 3 -21 -11 -10 -14 12 -15 11 -4 -12 17 -37 40
-32 59 14 19 46 16 53 -6 13 l-15 -28 -1 33 c0 19 9 45 20 59 33 42 20 62 -15
23z"/>
<path d="M220 464 c0 -11 7 -29 15 -40 16 -21 20 -48 6 -40 -5 4 -7 -4 -3 -16
3 -13 1 -19 -5 -15 -7 5 -9 0 -6 -13 8 -29 38 -25 52 8 10 25 10 26 -4 8 -15
-20 -15 -20 -15 0 0 11 6 26 13 33 10 11 10 13 0 7 -21 -12 -15 19 7 39 11 10
20 25 20 34 -1 12 -8 8 -25 -12 -14 -15 -25 -24 -25 -19 0 4 -7 17 -15 28 -14
19 -14 19 -15 -2z"/>
<path d="M485 460 c-17 -19 -19 -19 -31 -2 -10 13 -10 8 1 -20 17 -42 19 -62
6 -54 -5 4 -7 -4 -3 -16 5 -20 3 -21 -11 -10 -14 12 -15 11 -4 -12 17 -37 40
-32 59 14 19 46 16 53 -6 13 l-15 -28 -1 33 c0 19 9 45 20 59 33 42 20 62 -15
23z"/>
<path d="M540 464 c0 -11 7 -29 15 -40 16 -21 20 -48 6 -40 -5 4 -7 -4 -3 -16
3 -13 1 -19 -5 -15 -7 5 -9 0 -6 -13 8 -29 38 -25 52 8 10 25 10 26 -4 8 -15
-20 -15 -20 -15 0 0 11 6 26 13 33 10 11 10 13 0 7 -21 -12 -15 19 7 39 11 10
20 25 20 34 -1 12 -8 8 -25 -12 -14 -15 -25 -24 -25 -19 0 4 -7 17 -15 28 -14
19 -14 19 -15 -2z"/>
<path d="M805 460 c-17 -19 -19 -19 -31 -2 -10 13 -10 8 1 -20 17 -42 19 -62
6 -54 -5 4 -7 -4 -3 -16 5 -20 3 -21 -11 -10 -14 12 -15 11 -4 -12 17 -37 40
-32 59 14 19 46 16 53 -6 13 l-15 -28 -1 33 c0 19 9 45 20 59 33 42 20 62 -15
23z"/>
<path d="M860 464 c0 -11 7 -29 15 -40 16 -21 20 -48 6 -40 -5 4 -7 -4 -3 -16
3 -13 1 -19 -5 -15 -7 5 -9 0 -6 -13 8 -29 38 -25 52 8 10 25 10 26 -4 8 -15
-20 -15 -20 -15 0 0 11 6 26 13 33 10 11 10 13 0 7 -21 -12 -15 19 7 39 11 10
20 25 20 34 -1 12 -8 8 -25 -12 -14 -15 -25 -24 -25 -19 0 4 -7 17 -15 28 -14
19 -14 19 -15 -2z"/>
<path d="M93 178 c-19 -18 -24 -19 -38 -8 -11 9 -19 10 -26 3 -8 -8 -5 -13 10
-18 12 -3 21 -13 21 -22 0 -13 -3 -13 -15 -3 -22 18 -31 4 -12 -18 10 -11 17
-35 16 -58 0 -33 -2 -36 -9 -16 -14 33 -21 27 -9 -8 13 -37 30 -38 46 -4 10
22 10 24 -3 14 -11 -10 -14 -9 -14 4 0 10 5 27 11 38 8 15 8 19 0 14 -27 -17
-3 43 32 82 26 28 18 29 -10 0z"/>
<path d="M413 178 c-19 -18 -24 -19 -38 -8 -11 9 -19 10 -26 3 -8 -8 -5 -13
10 -18 12 -3 21 -13 21 -22 0 -13 -3 -13 -15 -3 -22 18 -31 4 -12 -18 10 -11
17 -35 16 -58 0 -33 -2 -36 -9 -16 -14 33 -21 27 -9 -8 13 -37 30 -38 46 -4
10 22 10 24 -3 14 -11 -10 -14 -9 -14 4 0 10 5 27 11 38 8 15 8 19 0 14 -27
-17 -3 43 32 82 26 28 18 29 -10 0z"/>
<path d="M733 178 c-19 -18 -24 -19 -38 -8 -11 9 -19 10 -26 3 -8 -8 -5 -13
10 -18 12 -3 21 -13 21 -22 0 -13 -3 -13 -15 -3 -22 18 -31 4 -12 -18 10 -11
17 -35 16 -58 0 -33 -2 -36 -9 -16 -14 33 -21 27 -9 -8 13 -37 30 -38 46 -4
10 22 10 24 -3 14 -11 -10 -14 -9 -14 4 0 10 5 27 11 38 8 15 8 19 0 14 -27
-17 -3 43 32 82 26 28 18 29 -10 0z"/>
<path d="M165 140 c-17 -19 -19 -19 -31 -2 -10 13 -10 8 1 -20 17 -42 19 -62
6 -54 -5 4 -7 -4 -3 -16 5 -20 3 -21 -11 -10 -14 12 -15 11 -4 -12 17 -37 40
-32 59 14 19 46 16 53 -6 13 l-15 -28 -1 33 c0 19 9 45 20 59 33 42 20 62 -15
23z"/>
<path d="M220 144 c0 -11 7 -29 15 -40 16 -21 20 -48 6 -40 -5 4 -7 -4 -3 -16
3 -13 1 -19 -5 -15 -7 5 -9 0 -6 -13 8 -29 38 -25 52 7 10 26 10 27 -4 9 -15
-20 -15 -20 -15 0 0 11 6 26 13 33 10 11 10 13 0 7 -21 -12 -15 19 7 39 11 10
20 25 20 34 -1 12 -8 8 -25 -12 -14 -15 -25 -24 -25 -19 0 4 -7 17 -15 28 -14
19 -14 19 -15 -2z"/>
<path d="M485 140 c-17 -19 -19 -19 -31 -2 -10 13 -10 8 1 -20 17 -42 19 -62
6 -54 -5 4 -7 -4 -3 -16 5 -20 3 -21 -11 -10 -14 12 -15 11 -4 -12 17 -37 40
-32 59 14 19 46 16 53 -6 13 l-15 -28 -1 33 c0 19 9 45 20 59 33 42 20 62 -15
23z"/>
<path d="M540 144 c0 -11 7 -29 15 -40 16 -21 20 -48 6 -40 -5 4 -7 -4 -3 -16
3 -13 1 -19 -5 -15 -7 5 -9 0 -6 -13 8 -29 38 -25 52 7 10 26 10 27 -4 9 -15
-20 -15 -20 -15 0 0 11 6 26 13 33 10 11 10 13 0 7 -21 -12 -15 19 7 39 11 10
20 25 20 34 -1 12 -8 8 -25 -12 -14 -15 -25 -24 -25 -19 0 4 -7 17 -15 28 -14
19 -14 19 -15 -2z"/>
<path d="M805 140 c-17 -19 -19 -19 -31 -2 -10 13 -10 8 1 -20 17 -42 19 -62
6 -54 -5 4 -7 -4 -3 -16 5 -20 3 -21 -11 -10 -14 12 -15 11 -4 -12 17 -37 40
-32 59 14 19 46 16 53 -6 13 l-15 -28 -1 33 c0 19 9 45 20 59 33 42 20 62 -15
23z"/>
<path d="M860 144 c0 -11 7 -29 15 -40 16 -21 20 -48 6 -40 -5 4 -7 -4 -3 -16
3 -13 1 -19 -5 -15 -7 5 -9 0 -6 -13 8 -29 38 -25 52 7 10 26 10 27 -4 9 -15
-20 -15 -20 -15 0 0 11 6 26 13 33 10 11 10 13 0 7 -21 -12 -15 19 7 39 11 10
20 25 20 34 -1 12 -8 8 -25 -12 -14 -15 -25 -24 -25 -19 0 4 -7 17 -15 28 -14
19 -14 19 -15 -2z"/>
</g>
<g transform="translate(0.000000,96.000000) scale(0.100000,-0.100000)"
fill="#00c617" stroke="none">
<path d="M20 808 c13 -14 49 -27 54 -20 3 5 0 9 -7 9 -7 0 -21 4 -32 8 -11 5
-18 6 -15 3z"/>
<path d="M340 808 c13 -14 49 -27 54 -20 3 5 0 9 -7 9 -7 0 -21 4 -32 8 -11 5
-18 6 -15 3z"/>
<path d="M660 808 c13 -14 49 -27 54 -20 3 5 0 9 -7 9 -7 0 -21 4 -32 8 -11 5
-18 6 -15 3z"/>
<path d="M135 758 c17 -43 19 -84 5 -93 -17 -10 -11 -25 10 -25 11 0 20 4 20
9 0 5 3 18 6 28 5 15 4 15 -5 3 -8 -12 -11 -7 -11 22 0 20 4 40 10 43 5 3 15
16 21 28 7 15 3 12 -15 -8 -14 -16 -25 -25 -26 -19 0 5 -7 19 -15 30 -13 17
-13 15 0 -18z"/>
<path d="M220 788 c0 -4 8 -20 18 -36 l17 -29 24 30 c24 28 24 29 3 18 -12 -6
-22 -17 -22 -24 0 -7 -9 2 -20 18 -11 17 -20 27 -20 23z"/>
<path d="M455 758 c17 -43 19 -84 5 -93 -17 -10 -11 -25 10 -25 11 0 20 4 20
9 0 5 3 18 6 28 5 15 4 15 -5 3 -8 -12 -11 -7 -11 22 0 20 4 40 10 43 5 3 15
16 21 28 7 15 3 12 -15 -8 -14 -16 -25 -25 -26 -19 0 5 -7 19 -15 30 -13 17
-13 15 0 -18z"/>
<path d="M540 788 c0 -4 8 -20 18 -36 l17 -29 24 30 c24 28 24 29 3 18 -12 -6
-22 -17 -22 -24 0 -7 -9 2 -20 18 -11 17 -20 27 -20 23z"/>
<path d="M775 758 c17 -43 19 -84 5 -93 -17 -10 -11 -25 10 -25 11 0 20 4 20
9 0 5 3 18 6 28 5 15 4 15 -5 3 -8 -12 -11 -7 -11 22 0 20 4 40 10 43 5 3 15
16 21 28 7 15 3 12 -15 -8 -14 -16 -25 -25 -26 -19 0 5 -7 19 -15 30 -13 17
-13 15 0 -18z"/>
<path d="M860 788 c0 -4 8 -20 18 -36 l17 -29 24 30 c24 28 24 29 3 18 -12 -6
-22 -17 -22 -24 0 -7 -9 2 -20 18 -11 17 -20 27 -20 23z"/>
<path d="M33 764 c11 -13 17 -37 16 -65 0 -36 -2 -40 -9 -21 -14 33 -21 27 -9
-8 13 -37 30 -38 46 -4 10 22 10 24 -2 14 -12 -10 -14 -6 -13 25 1 26 -5 42
-22 58 -22 20 -22 20 -7 1z"/>
<path d="M353 764 c11 -13 17 -37 16 -65 0 -36 -2 -40 -9 -21 -14 33 -21 27
-9 -8 13 -37 30 -38 46 -4 10 22 10 24 -2 14 -12 -10 -14 -6 -13 25 1 26 -5
42 -22 58 -22 20 -22 20 -7 1z"/>
<path d="M673 764 c11 -13 17 -37 16 -65 0 -36 -2 -40 -9 -21 -14 33 -21 27
-9 -8 13 -37 30 -38 46 -4 10 22 10 24 -2 14 -12 -10 -14 -6 -13 25 1 26 -5
42 -22 58 -22 20 -22 20 -7 1z"/>
<path d="M238 687 c3 -13 1 -18 -5 -14 -7 5 -9 0 -6 -13 6 -24 38 -27 47 -4 4
9 4 19 1 22 -3 3 -5 0 -5 -7 0 -7 -5 -9 -11 -5 -6 3 -9 14 -6 23 2 10 -1 18
-8 18 -7 0 -10 -8 -7 -20z"/>
<path d="M558 687 c3 -13 1 -18 -5 -14 -7 5 -9 0 -6 -13 6 -24 38 -27 47 -4 4
9 4 19 1 22 -3 3 -5 0 -5 -7 0 -7 -5 -9 -11 -5 -6 3 -9 14 -6 23 2 10 -1 18
-8 18 -7 0 -10 -8 -7 -20z"/>
<path d="M878 687 c3 -13 1 -18 -5 -14 -7 5 -9 0 -6 -13 6 -24 38 -27 47 -4 4
9 4 19 1 22 -3 3 -5 0 -5 -7 0 -7 -5 -9 -11 -5 -6 3 -9 14 -6 23 2 10 -1 18
-8 18 -7 0 -10 -8 -7 -20z"/>
<path d="M20 488 c13 -14 49 -27 54 -20 3 5 0 9 -7 9 -7 0 -21 4 -32 8 -11 5
-18 6 -15 3z"/>
<path d="M340 488 c13 -14 49 -27 54 -20 3 5 0 9 -7 9 -7 0 -21 4 -32 8 -11 5
-18 6 -15 3z"/>
<path d="M660 488 c13 -14 49 -27 54 -20 3 5 0 9 -7 9 -7 0 -21 4 -32 8 -11 5
-18 6 -15 3z"/>
<path d="M135 438 c17 -43 19 -84 5 -93 -17 -10 -11 -25 10 -25 11 0 20 4 20
9 0 5 3 18 6 28 5 15 4 15 -5 3 -8 -12 -11 -7 -11 22 0 20 4 40 10 43 5 3 15
16 21 28 7 15 3 12 -15 -8 -14 -16 -25 -25 -26 -19 0 5 -7 19 -15 30 -13 17
-13 15 0 -18z"/>
<path d="M220 468 c0 -4 8 -20 18 -36 l17 -29 24 30 c24 28 24 29 3 18 -12 -6
-22 -17 -22 -24 0 -7 -9 2 -20 18 -11 17 -20 27 -20 23z"/>
<path d="M455 438 c17 -43 19 -84 5 -93 -17 -10 -11 -25 10 -25 11 0 20 4 20
9 0 5 3 18 6 28 5 15 4 15 -5 3 -8 -12 -11 -7 -11 22 0 20 4 40 10 43 5 3 15
16 21 28 7 15 3 12 -15 -8 -14 -16 -25 -25 -26 -19 0 5 -7 19 -15 30 -13 17
-13 15 0 -18z"/>
<path d="M540 468 c0 -4 8 -20 18 -36 l17 -29 24 30 c24 28 24 29 3 18 -12 -6
-22 -17 -22 -24 0 -7 -9 2 -20 18 -11 17 -20 27 -20 23z"/>
<path d="M775 438 c17 -43 19 -84 5 -93 -17 -10 -11 -25 10 -25 11 0 20 4 20
9 0 5 3 18 6 28 5 15 4 15 -5 3 -8 -12 -11 -7 -11 22 0 20 4 40 10 43 5 3 15
16 21 28 7 15 3 12 -15 -8 -14 -16 -25 -25 -26 -19 0 5 -7 19 -15 30 -13 17
-13 15 0 -18z"/>
<path d="M860 468 c0 -4 8 -20 18 -36 l17 -29 24 30 c24 28 24 29 3 18 -12 -6
-22 -17 -22 -24 0 -7 -9 2 -20 18 -11 17 -20 27 -20 23z"/>
<path d="M33 444 c11 -13 17 -37 16 -65 0 -36 -2 -40 -9 -21 -14 33 -21 27 -9
-8 13 -37 30 -38 46 -4 10 22 10 24 -2 14 -12 -10 -14 -6 -13 25 1 26 -5 42
-22 58 -22 20 -22 20 -7 1z"/>
<path d="M353 444 c11 -13 17 -37 16 -65 0 -36 -2 -40 -9 -21 -14 33 -21 27
-9 -8 13 -37 30 -38 46 -4 10 22 10 24 -2 14 -12 -10 -14 -6 -13 25 1 26 -5
42 -22 58 -22 20 -22 20 -7 1z"/>
<path d="M673 444 c11 -13 17 -37 16 -65 0 -36 -2 -40 -9 -21 -14 33 -21 27
-9 -8 13 -37 30 -38 46 -4 10 22 10 24 -2 14 -12 -10 -14 -6 -13 25 1 26 -5
42 -22 58 -22 20 -22 20 -7 1z"/>
<path d="M238 367 c3 -13 1 -18 -5 -14 -7 5 -9 0 -6 -13 6 -24 38 -27 47 -4 4
9 4 19 1 22 -3 3 -5 0 -5 -7 0 -7 -5 -9 -11 -5 -6 3 -9 14 -6 23 2 10 -1 18
-8 18 -7 0 -10 -8 -7 -20z"/>
<path d="M558 367 c3 -13 1 -18 -5 -14 -7 5 -9 0 -6 -13 6 -24 38 -27 47 -4 4
9 4 19 1 22 -3 3 -5 0 -5 -7 0 -7 -5 -9 -11 -5 -6 3 -9 14 -6 23 2 10 -1 18
-8 18 -7 0 -10 -8 -7 -20z"/>
<path d="M878 367 c3 -13 1 -18 -5 -14 -7 5 -9 0 -6 -13 6 -24 38 -27 47 -4 4
9 4 19 1 22 -3 3 -5 0 -5 -7 0 -7 -5 -9 -11 -5 -6 3 -9 14 -6 23 2 10 -1 18
-8 18 -7 0 -10 -8 -7 -20z"/>
<path d="M20 168 c13 -14 49 -27 54 -20 3 5 0 9 -7 9 -7 0 -21 4 -32 8 -11 5
-18 6 -15 3z"/>
<path d="M340 168 c13 -14 49 -27 54 -20 3 5 0 9 -7 9 -7 0 -21 4 -32 8 -11 5
-18 6 -15 3z"/>
<path d="M660 168 c13 -14 49 -27 54 -20 3 5 0 9 -7 9 -7 0 -21 4 -32 8 -11 5
-18 6 -15 3z"/>
<path d="M135 118 c17 -43 19 -84 5 -93 -17 -10 -11 -25 10 -25 11 0 20 4 20
9 0 5 3 18 6 28 5 15 4 15 -5 3 -8 -12 -11 -7 -11 22 0 20 4 40 10 43 5 3 15
16 21 28 7 15 3 12 -15 -8 -14 -16 -25 -25 -26 -19 0 5 -7 19 -15 30 -13 17
-13 15 0 -18z"/>
<path d="M220 148 c0 -4 8 -20 18 -36 l17 -29 24 30 c24 28 24 29 3 18 -12 -6
-22 -17 -22 -24 0 -7 -9 2 -20 18 -11 17 -20 27 -20 23z"/>
<path d="M455 118 c17 -43 19 -84 5 -93 -17 -10 -11 -25 10 -25 11 0 20 4 20
9 0 5 3 18 6 28 5 15 4 15 -5 3 -8 -12 -11 -7 -11 22 0 20 4 40 10 43 5 3 15
16 21 28 7 15 3 12 -15 -8 -14 -16 -25 -25 -26 -19 0 5 -7 19 -15 30 -13 17
-13 15 0 -18z"/>
<path d="M540 148 c0 -4 8 -20 18 -36 l17 -29 24 30 c24 28 24 29 3 18 -12 -6
-22 -17 -22 -24 0 -7 -9 2 -20 18 -11 17 -20 27 -20 23z"/>
<path d="M775 118 c17 -43 19 -84 5 -93 -17 -10 -11 -25 10 -25 11 0 20 4 20
9 0 5 3 18 6 28 5 15 4 15 -5 3 -8 -12 -11 -7 -11 22 0 20 4 40 10 43 5 3 15
16 21 28 7 15 3 12 -15 -8 -14 -16 -25 -25 -26 -19 0 5 -7 19 -15 30 -13 17
-13 15 0 -18z"/>
<path d="M860 148 c0 -4 8 -20 18 -36 l17 -29 24 30 c24 28 24 29 3 18 -12 -6
-22 -17 -22 -24 0 -7 -9 2 -20 18 -11 17 -20 27 -20 23z"/>
<path d="M33 124 c11 -13 17 -37 16 -65 0 -36 -2 -40 -9 -21 -14 33 -21 27 -9
-8 13 -37 30 -38 46 -4 10 22 10 24 -2 14 -12 -10 -14 -6 -13 25 1 26 -5 42
-22 58 -22 20 -22 20 -7 1z"/>
<path d="M353 124 c11 -13 17 -37 16 -65 0 -36 -2 -40 -9 -21 -14 33 -21 27
-9 -8 13 -37 30 -38 46 -4 10 22 10 24 -2 14 -12 -10 -14 -6 -13 25 1 26 -5
42 -22 58 -22 20 -22 20 -7 1z"/>
<path d="M673 124 c11 -13 17 -37 16 -65 0 -36 -2 -40 -9 -21 -14 33 -21 27
-9 -8 13 -37 30 -38 46 -4 10 22 10 24 -2 14 -12 -10 -14 -6 -13 25 1 26 -5
42 -22 58 -22 20 -22 20 -7 1z"/>
<path d="M238 47 c3 -13 1 -18 -5 -14 -7 5 -9 0 -6 -13 6 -24 38 -27 47 -4 4
9 4 19 1 22 -3 3 -5 0 -5 -7 0 -7 -5 -9 -11 -5 -6 3 -9 14 -6 23 2 10 -1 18
-8 18 -7 0 -10 -8 -7 -20z"/>
<path d="M558 47 c3 -13 1 -18 -5 -14 -7 5 -9 0 -6 -13 6 -24 38 -27 47 -4 4
9 4 19 1 22 -3 3 -5 0 -5 -7 0 -7 -5 -9 -11 -5 -6 3 -9 14 -6 23 2 10 -1 18
-8 18 -7 0 -10 -8 -7 -20z"/>
<path d="M878 47 c3 -13 1 -18 -5 -14 -7 5 -9 0 -6 -13 6 -24 38 -27 47 -4 4
9 4 19 1 22 -3 3 -5 0 -5 -7 0 -7 -5 -9 -11 -5 -6 3 -9 14 -6 23 2 10 -1 18
-8 18 -7 0 -10 -8 -7 -20z"/>
</g>
<g transform="translate(0.000000,96.000000) scale(0.100000,-0.100000)"
fill="#00bc16" stroke="none">
<path d="M30 800 c8 -5 20 -10 25 -10 6 0 3 5 -5 10 -8 5 -19 10 -25 10 -5 0
-3 -5 5 -10z"/>
<path d="M350 800 c8 -5 20 -10 25 -10 6 0 3 5 -5 10 -8 5 -19 10 -25 10 -5 0
-3 -5 5 -10z"/>
<path d="M670 800 c8 -5 20 -10 25 -10 6 0 3 5 -5 10 -8 5 -19 10 -25 10 -5 0
-3 -5 5 -10z"/>
<path d="M164 748 c-4 -7 -3 -8 4 -4 12 7 16 16 8 16 -3 0 -8 -5 -12 -12z"/>
<path d="M484 748 c-4 -7 -3 -8 4 -4 12 7 16 16 8 16 -3 0 -8 -5 -12 -12z"/>
<path d="M804 748 c-4 -7 -3 -8 4 -4 7 4 12 9 12 12 0 8 -9 4 -16 -8z"/>
<path d="M51 700 c-2 -38 -4 -41 -11 -22 -14 33 -21 27 -9 -8 13 -37 30 -38
46 -4 10 21 10 24 -2 14 -11 -9 -14 -4 -18 27 l-4 38 -2 -45z"/>
<path d="M140 735 c0 -3 2 -5 5 -5 3 0 5 2 5 5 0 3 -2 5 -5 5 -3 0 -5 -2 -5
-5z"/>
<path d="M371 700 c-2 -38 -4 -41 -11 -22 -14 33 -21 27 -9 -8 13 -37 30 -38
46 -4 10 21 10 24 -2 14 -11 -9 -14 -4 -18 27 l-4 38 -2 -45z"/>
<path d="M460 735 c0 -3 2 -5 5 -5 3 0 5 2 5 5 0 3 -2 5 -5 5 -3 0 -5 -2 -5
-5z"/>
<path d="M691 700 c-2 -38 -4 -41 -11 -22 -14 33 -21 27 -9 -8 13 -37 30 -38
46 -4 10 21 10 24 -2 14 -11 -9 -14 -4 -18 27 l-4 38 -2 -45z"/>
<path d="M780 735 c0 -3 2 -5 5 -5 3 0 5 2 5 5 0 3 -2 5 -5 5 -3 0 -5 -2 -5
-5z"/>
<path d="M151 704 c0 -11 3 -14 6 -6 3 7 2 16 -1 19 -3 4 -6 -2 -5 -13z"/>
<path d="M471 704 c0 -11 3 -14 6 -6 3 7 2 16 -1 19 -3 4 -6 -2 -5 -13z"/>
<path d="M791 704 c0 -11 3 -14 6 -6 3 7 2 16 -1 19 -3 4 -6 -2 -5 -13z"/>
<path d="M235 674 c0 -26 4 -34 18 -34 9 0 17 5 17 11 0 5 -4 7 -10 4 -6 -3
-10 5 -10 19 0 14 -3 27 -7 29 -5 3 -8 -10 -8 -29z"/>
<path d="M555 674 c0 -26 4 -34 18 -34 9 0 17 5 17 11 0 5 -4 7 -10 4 -6 -3
-10 5 -10 19 0 14 -3 27 -7 29 -5 3 -8 -10 -8 -29z"/>
<path d="M875 674 c0 -26 4 -34 18 -34 9 0 17 5 17 11 0 5 -4 7 -10 4 -6 -3
-10 5 -10 19 0 14 -3 27 -7 29 -5 3 -8 -10 -8 -29z"/>
<path d="M167 675 c-4 -8 -12 -14 -18 -13 -6 2 -14 -3 -16 -9 -3 -8 3 -13 15
-13 12 0 22 9 25 22 7 26 2 36 -6 13z"/>
<path d="M487 675 c-4 -8 -12 -14 -18 -13 -6 2 -14 -3 -16 -9 -3 -8 3 -13 15
-13 12 0 22 9 25 22 7 26 2 36 -6 13z"/>
<path d="M807 675 c-4 -8 -12 -14 -18 -13 -6 2 -14 -3 -16 -9 -3 -8 3 -13 15
-13 12 0 22 9 25 22 7 26 2 36 -6 13z"/>
<path d="M30 480 c8 -5 20 -10 25 -10 6 0 3 5 -5 10 -8 5 -19 10 -25 10 -5 0
-3 -5 5 -10z"/>
<path d="M350 480 c8 -5 20 -10 25 -10 6 0 3 5 -5 10 -8 5 -19 10 -25 10 -5 0
-3 -5 5 -10z"/>
<path d="M670 480 c8 -5 20 -10 25 -10 6 0 3 5 -5 10 -8 5 -19 10 -25 10 -5 0
-3 -5 5 -10z"/>
<path d="M164 428 c-4 -7 -3 -8 4 -4 12 7 16 16 8 16 -3 0 -8 -5 -12 -12z"/>
<path d="M484 428 c-4 -7 -3 -8 4 -4 12 7 16 16 8 16 -3 0 -8 -5 -12 -12z"/>
<path d="M804 428 c-4 -7 -3 -8 4 -4 7 4 12 9 12 12 0 8 -9 4 -16 -8z"/>
<path d="M51 380 c-2 -38 -4 -41 -11 -22 -14 33 -21 27 -9 -8 13 -37 30 -38
46 -4 10 21 10 24 -2 14 -11 -9 -14 -4 -18 27 l-4 38 -2 -45z"/>
<path d="M140 415 c0 -3 2 -5 5 -5 3 0 5 2 5 5 0 3 -2 5 -5 5 -3 0 -5 -2 -5
-5z"/>
<path d="M371 380 c-2 -38 -4 -41 -11 -22 -14 33 -21 27 -9 -8 13 -37 30 -38
46 -4 10 21 10 24 -2 14 -11 -9 -14 -4 -18 27 l-4 38 -2 -45z"/>
<path d="M460 415 c0 -3 2 -5 5 -5 3 0 5 2 5 5 0 3 -2 5 -5 5 -3 0 -5 -2 -5
-5z"/>
<path d="M691 380 c-2 -38 -4 -41 -11 -22 -14 33 -21 27 -9 -8 13 -37 30 -38
46 -4 10 21 10 24 -2 14 -11 -9 -14 -4 -18 27 l-4 38 -2 -45z"/>
<path d="M780 415 c0 -3 2 -5 5 -5 3 0 5 2 5 5 0 3 -2 5 -5 5 -3 0 -5 -2 -5
-5z"/>
<path d="M151 384 c0 -11 3 -14 6 -6 3 7 2 16 -1 19 -3 4 -6 -2 -5 -13z"/>
<path d="M471 384 c0 -11 3 -14 6 -6 3 7 2 16 -1 19 -3 4 -6 -2 -5 -13z"/>
<path d="M791 384 c0 -11 3 -14 6 -6 3 7 2 16 -1 19 -3 4 -6 -2 -5 -13z"/>
<path d="M235 354 c0 -26 4 -34 18 -34 9 0 17 5 17 11 0 5 -4 7 -10 4 -6 -3
-10 5 -10 19 0 14 -3 27 -7 29 -5 3 -8 -10 -8 -29z"/>
<path d="M555 354 c0 -26 4 -34 18 -34 9 0 17 5 17 11 0 5 -4 7 -10 4 -6 -3
-10 5 -10 19 0 14 -3 27 -7 29 -5 3 -8 -10 -8 -29z"/>
<path d="M875 354 c0 -26 4 -34 18 -34 9 0 17 5 17 11 0 5 -4 7 -10 4 -6 -3
-10 5 -10 19 0 14 -3 27 -7 29 -5 3 -8 -10 -8 -29z"/>
<path d="M167 355 c-4 -8 -12 -14 -18 -13 -6 2 -14 -3 -16 -9 -3 -8 3 -13 15
-13 12 0 22 9 25 22 7 26 2 36 -6 13z"/>
<path d="M487 355 c-4 -8 -12 -14 -18 -13 -6 2 -14 -3 -16 -9 -3 -8 3 -13 15
-13 12 0 22 9 25 22 7 26 2 36 -6 13z"/>
<path d="M807 355 c-4 -8 -12 -14 -18 -13 -6 2 -14 -3 -16 -9 -3 -8 3 -13 15
-13 12 0 22 9 25 22 7 26 2 36 -6 13z"/>
<path d="M30 160 c8 -5 20 -10 25 -10 6 0 3 5 -5 10 -8 5 -19 10 -25 10 -5 0
-3 -5 5 -10z"/>
<path d="M350 160 c8 -5 20 -10 25 -10 6 0 3 5 -5 10 -8 5 -19 10 -25 10 -5 0
-3 -5 5 -10z"/>
<path d="M670 160 c8 -5 20 -10 25 -10 6 0 3 5 -5 10 -8 5 -19 10 -25 10 -5 0
-3 -5 5 -10z"/>
<path d="M164 108 c-4 -7 -3 -8 4 -4 12 7 16 16 8 16 -3 0 -8 -5 -12 -12z"/>
<path d="M484 108 c-4 -7 -3 -8 4 -4 7 4 12 9 12 12 0 8 -9 4 -16 -8z"/>
<path d="M804 108 c-4 -7 -3 -8 4 -4 7 4 12 9 12 12 0 8 -9 4 -16 -8z"/>
<path d="M51 60 c-2 -38 -4 -41 -11 -22 -14 33 -21 27 -9 -8 13 -37 30 -38 46
-4 10 21 10 24 -2 14 -11 -9 -14 -4 -18 27 l-4 38 -2 -45z"/>
<path d="M140 95 c0 -3 2 -5 5 -5 3 0 5 2 5 5 0 3 -2 5 -5 5 -3 0 -5 -2 -5 -5z"/>
<path d="M371 60 c-2 -38 -4 -41 -11 -22 -14 33 -21 27 -9 -8 13 -37 30 -38
46 -4 10 21 10 24 -2 14 -11 -9 -14 -4 -18 27 l-4 38 -2 -45z"/>
<path d="M460 95 c0 -3 2 -5 5 -5 3 0 5 2 5 5 0 3 -2 5 -5 5 -3 0 -5 -2 -5 -5z"/>
<path d="M691 60 c-2 -38 -4 -41 -11 -22 -14 33 -21 27 -9 -8 13 -37 30 -38
46 -4 10 21 10 24 -2 14 -11 -9 -14 -4 -18 27 l-4 38 -2 -45z"/>
<path d="M780 95 c0 -3 2 -5 5 -5 3 0 5 2 5 5 0 3 -2 5 -5 5 -3 0 -5 -2 -5 -5z"/>
<path d="M151 64 c0 -11 3 -14 6 -6 3 7 2 16 -1 19 -3 4 -6 -2 -5 -13z"/>
<path d="M471 64 c0 -11 3 -14 6 -6 3 7 2 16 -1 19 -3 4 -6 -2 -5 -13z"/>
<path d="M791 64 c0 -11 3 -14 6 -6 3 7 2 16 -1 19 -3 4 -6 -2 -5 -13z"/>
<path d="M235 34 c0 -26 4 -34 18 -34 9 0 17 5 17 11 0 5 -4 7 -10 4 -6 -3
-10 5 -10 19 0 14 -3 27 -7 29 -5 3 -8 -10 -8 -29z"/>
<path d="M555 34 c0 -26 4 -34 18 -34 9 0 17 5 17 11 0 5 -4 7 -10 4 -6 -3
-10 5 -10 19 0 14 -3 27 -7 29 -5 3 -8 -10 -8 -29z"/>
<path d="M875 34 c0 -26 4 -34 18 -34 9 0 17 5 17 11 0 5 -4 7 -10 4 -6 -3
-10 5 -10 19 0 14 -3 27 -7 29 -5 3 -8 -10 -8 -29z"/>
<path d="M167 35 c-4 -8 -12 -14 -18 -13 -6 2 -14 -3 -16 -9 -3 -8 3 -13 15
-13 12 0 22 9 25 22 7 26 2 36 -6 13z"/>
<path d="M487 35 c-4 -8 -12 -14 -18 -13 -6 2 -14 -3 -16 -9 -3 -8 3 -13 15
-13 12 0 22 9 25 22 7 26 2 36 -6 13z"/>
<path d="M807 35 c-4 -8 -12 -14 -18 -13 -6 2 -14 -3 -16 -9 -3 -8 3 -13 15
-13 12 0 22 9 25 22 7 26 2 36 -6 13z"/>
</g>
<g transform="translate(0.000000,96.000000) scale(0.100000,-0.100000)"
fill="#00ad17" stroke="none">
<path d="M164 748 c-4 -7 -3 -8 4 -4 12 7 16 16 8 16 -3 0 -8 -5 -12 -12z"/>
<path d="M484 748 c-4 -7 -3 -8 4 -4 12 7 16 16 8 16 -3 0 -8 -5 -12 -12z"/>
<path d="M804 748 c-4 -7 -3 -8 4 -4 7 4 12 9 12 12 0 8 -9 4 -16 -8z"/>
<path d="M52 710 c0 -19 2 -27 5 -17 2 9 2 25 0 35 -3 9 -5 1 -5 -18z"/>
<path d="M140 735 c0 -3 2 -5 5 -5 3 0 5 2 5 5 0 3 -2 5 -5 5 -3 0 -5 -2 -5
-5z"/>
<path d="M372 710 c0 -19 2 -27 5 -17 2 9 2 25 0 35 -3 9 -5 1 -5 -18z"/>
<path d="M460 735 c0 -3 2 -5 5 -5 3 0 5 2 5 5 0 3 -2 5 -5 5 -3 0 -5 -2 -5
-5z"/>
<path d="M692 710 c0 -19 2 -27 5 -17 2 9 2 25 0 35 -3 9 -5 1 -5 -18z"/>
<path d="M780 735 c0 -3 2 -5 5 -5 3 0 5 2 5 5 0 3 -2 5 -5 5 -3 0 -5 -2 -5
-5z"/>
<path d="M151 704 c0 -11 3 -14 6 -6 3 7 2 16 -1 19 -3 4 -6 -2 -5 -13z"/>
<path d="M471 704 c0 -11 3 -14 6 -6 3 7 2 16 -1 19 -3 4 -6 -2 -5 -13z"/>
<path d="M791 704 c0 -11 3 -14 6 -6 3 7 2 16 -1 19 -3 4 -6 -2 -5 -13z"/>
<path d="M235 674 c0 -26 4 -34 18 -34 9 0 17 5 17 11 0 5 -4 7 -10 4 -6 -3
-10 5 -10 19 0 14 -3 27 -7 29 -5 3 -8 -10 -8 -29z"/>
<path d="M555 674 c0 -26 4 -34 18 -34 9 0 17 5 17 11 0 5 -4 7 -10 4 -6 -3
-10 5 -10 19 0 14 -3 27 -7 29 -5 3 -8 -10 -8 -29z"/>
<path d="M875 674 c0 -26 4 -34 18 -34 9 0 17 5 17 11 0 5 -4 7 -10 4 -6 -3
-10 5 -10 19 0 14 -3 27 -7 29 -5 3 -8 -10 -8 -29z"/>
<path d="M34 667 c3 -10 6 -21 6 -23 0 -2 7 -4 15 -4 8 0 15 5 15 11 0 5 -4 8
-9 4 -6 -3 -15 3 -21 12 -11 17 -11 17 -6 0z"/>
<path d="M354 667 c3 -10 6 -21 6 -23 0 -2 7 -4 15 -4 8 0 15 5 15 11 0 5 -4
8 -9 4 -6 -3 -15 3 -21 12 -11 17 -11 17 -6 0z"/>
<path d="M674 667 c3 -10 6 -21 6 -23 0 -2 7 -4 15 -4 8 0 15 5 15 11 0 5 -4
8 -9 4 -6 -3 -15 3 -21 12 -11 17 -11 17 -6 0z"/>
<path d="M140 650 c-12 -8 -11 -10 8 -10 12 0 22 5 22 10 0 13 -11 13 -30 0z"/>
<path d="M460 650 c-12 -8 -11 -10 8 -10 12 0 22 5 22 10 0 13 -11 13 -30 0z"/>
<path d="M780 650 c-12 -8 -11 -10 8 -10 12 0 22 5 22 10 0 13 -11 13 -30 0z"/>
<path d="M164 428 c-4 -7 -3 -8 4 -4 12 7 16 16 8 16 -3 0 -8 -5 -12 -12z"/>
<path d="M484 428 c-4 -7 -3 -8 4 -4 12 7 16 16 8 16 -3 0 -8 -5 -12 -12z"/>
<path d="M804 428 c-4 -7 -3 -8 4 -4 7 4 12 9 12 12 0 8 -9 4 -16 -8z"/>
<path d="M52 390 c0 -19 2 -27 5 -17 2 9 2 25 0 35 -3 9 -5 1 -5 -18z"/>
<path d="M140 415 c0 -3 2 -5 5 -5 3 0 5 2 5 5 0 3 -2 5 -5 5 -3 0 -5 -2 -5
-5z"/>
<path d="M372 390 c0 -19 2 -27 5 -17 2 9 2 25 0 35 -3 9 -5 1 -5 -18z"/>
<path d="M460 415 c0 -3 2 -5 5 -5 3 0 5 2 5 5 0 3 -2 5 -5 5 -3 0 -5 -2 -5
-5z"/>
<path d="M692 390 c0 -19 2 -27 5 -17 2 9 2 25 0 35 -3 9 -5 1 -5 -18z"/>
<path d="M780 415 c0 -3 2 -5 5 -5 3 0 5 2 5 5 0 3 -2 5 -5 5 -3 0 -5 -2 -5
-5z"/>
<path d="M151 384 c0 -11 3 -14 6 -6 3 7 2 16 -1 19 -3 4 -6 -2 -5 -13z"/>
<path d="M471 384 c0 -11 3 -14 6 -6 3 7 2 16 -1 19 -3 4 -6 -2 -5 -13z"/>
<path d="M791 384 c0 -11 3 -14 6 -6 3 7 2 16 -1 19 -3 4 -6 -2 -5 -13z"/>
<path d="M235 354 c0 -26 4 -34 18 -34 9 0 17 5 17 11 0 5 -4 7 -10 4 -6 -3
-10 5 -10 19 0 14 -3 27 -7 29 -5 3 -8 -10 -8 -29z"/>
<path d="M555 354 c0 -26 4 -34 18 -34 9 0 17 5 17 11 0 5 -4 7 -10 4 -6 -3
-10 5 -10 19 0 14 -3 27 -7 29 -5 3 -8 -10 -8 -29z"/>
<path d="M875 354 c0 -26 4 -34 18 -34 9 0 17 5 17 11 0 5 -4 7 -10 4 -6 -3
-10 5 -10 19 0 14 -3 27 -7 29 -5 3 -8 -10 -8 -29z"/>
<path d="M34 347 c3 -10 6 -21 6 -23 0 -2 7 -4 15 -4 8 0 15 5 15 11 0 5 -4 8
-9 4 -6 -3 -15 3 -21 12 -11 17 -11 17 -6 0z"/>
<path d="M354 347 c3 -10 6 -21 6 -23 0 -2 7 -4 15 -4 8 0 15 5 15 11 0 5 -4
8 -9 4 -6 -3 -15 3 -21 12 -11 17 -11 17 -6 0z"/>
<path d="M674 347 c3 -10 6 -21 6 -23 0 -2 7 -4 15 -4 8 0 15 5 15 11 0 5 -4
8 -9 4 -6 -3 -15 3 -21 12 -11 17 -11 17 -6 0z"/>
<path d="M140 330 c-12 -8 -11 -10 8 -10 12 0 22 5 22 10 0 13 -11 13 -30 0z"/>
<path d="M460 330 c-12 -8 -11 -10 8 -10 12 0 22 5 22 10 0 13 -11 13 -30 0z"/>
<path d="M780 330 c-12 -8 -11 -10 8 -10 12 0 22 5 22 10 0 13 -11 13 -30 0z"/>
<path d="M164 108 c-4 -7 -3 -8 4 -4 12 7 16 16 8 16 -3 0 -8 -5 -12 -12z"/>
<path d="M484 108 c-4 -7 -3 -8 4 -4 7 4 12 9 12 12 0 8 -9 4 -16 -8z"/>
<path d="M804 108 c-4 -7 -3 -8 4 -4 7 4 12 9 12 12 0 8 -9 4 -16 -8z"/>
<path d="M52 70 c0 -19 2 -27 5 -17 2 9 2 25 0 35 -3 9 -5 1 -5 -18z"/>
<path d="M140 95 c0 -3 2 -5 5 -5 3 0 5 2 5 5 0 3 -2 5 -5 5 -3 0 -5 -2 -5 -5z"/>
<path d="M372 70 c0 -19 2 -27 5 -17 2 9 2 25 0 35 -3 9 -5 1 -5 -18z"/>
<path d="M460 95 c0 -3 2 -5 5 -5 3 0 5 2 5 5 0 3 -2 5 -5 5 -3 0 -5 -2 -5 -5z"/>
<path d="M692 70 c0 -19 2 -27 5 -17 2 9 2 25 0 35 -3 9 -5 1 -5 -18z"/>
<path d="M780 95 c0 -3 2 -5 5 -5 3 0 5 2 5 5 0 3 -2 5 -5 5 -3 0 -5 -2 -5 -5z"/>
<path d="M151 64 c0 -11 3 -14 6 -6 3 7 2 16 -1 19 -3 4 -6 -2 -5 -13z"/>
<path d="M471 64 c0 -11 3 -14 6 -6 3 7 2 16 -1 19 -3 4 -6 -2 -5 -13z"/>
<path d="M791 64 c0 -11 3 -14 6 -6 3 7 2 16 -1 19 -3 4 -6 -2 -5 -13z"/>
<path d="M235 34 c0 -26 4 -34 18 -34 9 0 17 5 17 11 0 5 -4 7 -10 4 -6 -3
-10 5 -10 19 0 14 -3 27 -7 29 -5 3 -8 -10 -8 -29z"/>
<path d="M555 34 c0 -26 4 -34 18 -34 9 0 17 5 17 11 0 5 -4 7 -10 4 -6 -3
-10 5 -10 19 0 14 -3 27 -7 29 -5 3 -8 -10 -8 -29z"/>
<path d="M875 34 c0 -26 4 -34 18 -34 9 0 17 5 17 11 0 5 -4 7 -10 4 -6 -3
-10 5 -10 19 0 14 -3 27 -7 29 -5 3 -8 -10 -8 -29z"/>
<path d="M34 27 c3 -10 6 -21 6 -23 0 -2 7 -4 15 -4 8 0 15 5 15 11 0 5 -4 8
-9 4 -6 -3 -15 3 -21 12 -11 17 -11 17 -6 0z"/>
<path d="M354 27 c3 -10 6 -21 6 -23 0 -2 7 -4 15 -4 8 0 15 5 15 11 0 5 -4 8
-9 4 -6 -3 -15 3 -21 12 -11 17 -11 17 -6 0z"/>
<path d="M674 27 c3 -10 6 -21 6 -23 0 -2 7 -4 15 -4 8 0 15 5 15 11 0 5 -4 8
-9 4 -6 -3 -15 3 -21 12 -11 17 -11 17 -6 0z"/>
<path d="M140 10 c-12 -8 -11 -10 8 -10 12 0 22 5 22 10 0 13 -11 13 -30 0z"/>
<path d="M460 10 c-12 -8 -11 -10 8 -10 12 0 22 5 22 10 0 13 -11 13 -30 0z"/>
<path d="M780 10 c-12 -8 -11 -10 8 -10 12 0 22 5 22 10 0 13 -11 13 -30 0z"/>
</g>
<g transform="translate(0.000000,96.000000) scale(0.100000,-0.100000)"
fill="#02950e" stroke="none">
<path d="M164 748 c-4 -7 -3 -8 4 -4 12 7 16 16 8 16 -3 0 -8 -5 -12 -12z"/>
<path d="M484 748 c-4 -7 -3 -8 4 -4 12 7 16 16 8 16 -3 0 -8 -5 -12 -12z"/>
<path d="M804 748 c-4 -7 -3 -8 4 -4 7 4 12 9 12 12 0 8 -9 4 -16 -8z"/>
<path d="M140 735 c0 -3 2 -5 5 -5 3 0 5 2 5 5 0 3 -2 5 -5 5 -3 0 -5 -2 -5
-5z"/>
<path d="M460 735 c0 -3 2 -5 5 -5 3 0 5 2 5 5 0 3 -2 5 -5 5 -3 0 -5 -2 -5
-5z"/>
<path d="M780 735 c0 -3 2 -5 5 -5 3 0 5 2 5 5 0 3 -2 5 -5 5 -3 0 -5 -2 -5
-5z"/>
<path d="M52 710 c0 -14 2 -19 5 -12 2 6 2 18 0 25 -3 6 -5 1 -5 -13z"/>
<path d="M372 710 c0 -14 2 -19 5 -12 2 6 2 18 0 25 -3 6 -5 1 -5 -13z"/>
<path d="M692 710 c0 -14 2 -19 5 -12 2 6 2 18 0 25 -3 6 -5 1 -5 -13z"/>
<path d="M151 704 c0 -11 3 -14 6 -6 3 7 2 16 -1 19 -3 4 -6 -2 -5 -13z"/>
<path d="M471 704 c0 -11 3 -14 6 -6 3 7 2 16 -1 19 -3 4 -6 -2 -5 -13z"/>
<path d="M791 704 c0 -11 3 -14 6 -6 3 7 2 16 -1 19 -3 4 -6 -2 -5 -13z"/>
<path d="M36 657 c3 -10 9 -15 12 -12 3 3 0 11 -7 18 -10 9 -11 8 -5 -6z"/>
<path d="M356 657 c3 -10 9 -15 12 -12 3 3 0 11 -7 18 -10 9 -11 8 -5 -6z"/>
<path d="M676 657 c3 -10 9 -15 12 -12 3 3 0 11 -7 18 -10 9 -11 8 -5 -6z"/>
<path d="M140 650 c-13 -8 -12 -10 3 -10 9 0 17 5 17 10 0 12 -1 12 -20 0z"/>
<path d="M250 650 c-13 -8 -12 -10 3 -10 9 0 17 5 17 10 0 12 -1 12 -20 0z"/>
<path d="M460 650 c-13 -8 -12 -10 3 -10 9 0 17 5 17 10 0 12 -1 12 -20 0z"/>
<path d="M570 650 c-13 -8 -12 -10 3 -10 9 0 17 5 17 10 0 12 -1 12 -20 0z"/>
<path d="M780 650 c-13 -8 -12 -10 3 -10 9 0 17 5 17 10 0 12 -1 12 -20 0z"/>
<path d="M890 650 c-13 -8 -12 -10 3 -10 9 0 17 5 17 10 0 12 -1 12 -20 0z"/>
<path d="M60 645 c0 -3 2 -5 5 -5 3 0 5 2 5 5 0 3 -2 5 -5 5 -3 0 -5 -2 -5 -5z"/>
<path d="M380 645 c0 -3 2 -5 5 -5 3 0 5 2 5 5 0 3 -2 5 -5 5 -3 0 -5 -2 -5
-5z"/>
<path d="M700 645 c0 -3 2 -5 5 -5 3 0 5 2 5 5 0 3 -2 5 -5 5 -3 0 -5 -2 -5
-5z"/>
<path d="M164 428 c-4 -7 -3 -8 4 -4 12 7 16 16 8 16 -3 0 -8 -5 -12 -12z"/>
<path d="M484 428 c-4 -7 -3 -8 4 -4 12 7 16 16 8 16 -3 0 -8 -5 -12 -12z"/>
<path d="M804 428 c-4 -7 -3 -8 4 -4 7 4 12 9 12 12 0 8 -9 4 -16 -8z"/>
<path d="M140 415 c0 -3 2 -5 5 -5 3 0 5 2 5 5 0 3 -2 5 -5 5 -3 0 -5 -2 -5
-5z"/>
<path d="M460 415 c0 -3 2 -5 5 -5 3 0 5 2 5 5 0 3 -2 5 -5 5 -3 0 -5 -2 -5
-5z"/>
<path d="M780 415 c0 -3 2 -5 5 -5 3 0 5 2 5 5 0 3 -2 5 -5 5 -3 0 -5 -2 -5
-5z"/>
<path d="M52 390 c0 -14 2 -19 5 -12 2 6 2 18 0 25 -3 6 -5 1 -5 -13z"/>
<path d="M372 390 c0 -14 2 -19 5 -12 2 6 2 18 0 25 -3 6 -5 1 -5 -13z"/>
<path d="M692 390 c0 -14 2 -19 5 -12 2 6 2 18 0 25 -3 6 -5 1 -5 -13z"/>
<path d="M151 384 c0 -11 3 -14 6 -6 3 7 2 16 -1 19 -3 4 -6 -2 -5 -13z"/>
<path d="M471 384 c0 -11 3 -14 6 -6 3 7 2 16 -1 19 -3 4 -6 -2 -5 -13z"/>
<path d="M791 384 c0 -11 3 -14 6 -6 3 7 2 16 -1 19 -3 4 -6 -2 -5 -13z"/>
<path d="M36 337 c3 -10 9 -15 12 -12 3 3 0 11 -7 18 -10 9 -11 8 -5 -6z"/>
<path d="M356 337 c3 -10 9 -15 12 -12 3 3 0 11 -7 18 -10 9 -11 8 -5 -6z"/>
<path d="M676 337 c3 -10 9 -15 12 -12 3 3 0 11 -7 18 -10 9 -11 8 -5 -6z"/>
<path d="M140 330 c-13 -8 -12 -10 3 -10 9 0 17 5 17 10 0 12 -1 12 -20 0z"/>
<path d="M250 330 c-13 -8 -12 -10 3 -10 9 0 17 5 17 10 0 12 -1 12 -20 0z"/>
<path d="M460 330 c-13 -8 -12 -10 3 -10 9 0 17 5 17 10 0 12 -1 12 -20 0z"/>
<path d="M570 330 c-13 -8 -12 -10 3 -10 9 0 17 5 17 10 0 12 -1 12 -20 0z"/>
<path d="M780 330 c-13 -8 -12 -10 3 -10 9 0 17 5 17 10 0 12 -1 12 -20 0z"/>
<path d="M890 330 c-13 -8 -12 -10 3 -10 9 0 17 5 17 10 0 12 -1 12 -20 0z"/>
<path d="M60 325 c0 -3 2 -5 5 -5 3 0 5 2 5 5 0 3 -2 5 -5 5 -3 0 -5 -2 -5 -5z"/>
<path d="M380 325 c0 -3 2 -5 5 -5 3 0 5 2 5 5 0 3 -2 5 -5 5 -3 0 -5 -2 -5
-5z"/>
<path d="M700 325 c0 -3 2 -5 5 -5 3 0 5 2 5 5 0 3 -2 5 -5 5 -3 0 -5 -2 -5
-5z"/>
<path d="M164 108 c-4 -7 -3 -8 4 -4 12 7 16 16 8 16 -3 0 -8 -5 -12 -12z"/>
<path d="M484 108 c-4 -7 -3 -8 4 -4 7 4 12 9 12 12 0 8 -9 4 -16 -8z"/>
<path d="M804 108 c-4 -7 -3 -8 4 -4 7 4 12 9 12 12 0 8 -9 4 -16 -8z"/>
<path d="M140 95 c0 -3 2 -5 5 -5 3 0 5 2 5 5 0 3 -2 5 -5 5 -3 0 -5 -2 -5 -5z"/>
<path d="M460 95 c0 -3 2 -5 5 -5 3 0 5 2 5 5 0 3 -2 5 -5 5 -3 0 -5 -2 -5 -5z"/>
<path d="M780 95 c0 -3 2 -5 5 -5 3 0 5 2 5 5 0 3 -2 5 -5 5 -3 0 -5 -2 -5 -5z"/>
<path d="M52 70 c0 -14 2 -19 5 -12 2 6 2 18 0 25 -3 6 -5 1 -5 -13z"/>
<path d="M372 70 c0 -14 2 -19 5 -12 2 6 2 18 0 25 -3 6 -5 1 -5 -13z"/>
<path d="M692 70 c0 -14 2 -19 5 -12 2 6 2 18 0 25 -3 6 -5 1 -5 -13z"/>
<path d="M151 64 c0 -11 3 -14 6 -6 3 7 2 16 -1 19 -3 4 -6 -2 -5 -13z"/>
<path d="M471 64 c0 -11 3 -14 6 -6 3 7 2 16 -1 19 -3 4 -6 -2 -5 -13z"/>
<path d="M791 64 c0 -11 3 -14 6 -6 3 7 2 16 -1 19 -3 4 -6 -2 -5 -13z"/>
<path d="M36 17 c3 -10 9 -15 12 -12 3 3 0 11 -7 18 -10 9 -11 8 -5 -6z"/>
<path d="M356 17 c3 -10 9 -15 12 -12 3 3 0 11 -7 18 -10 9 -11 8 -5 -6z"/>
<path d="M676 17 c3 -10 9 -15 12 -12 3 3 0 11 -7 18 -10 9 -11 8 -5 -6z"/>
<path d="M140 10 c-13 -8 -12 -10 3 -10 9 0 17 5 17 10 0 12 -1 12 -20 0z"/>
<path d="M250 10 c-13 -8 -12 -10 3 -10 9 0 17 5 17 10 0 12 -1 12 -20 0z"/>
<path d="M460 10 c-13 -8 -12 -10 3 -10 9 0 17 5 17 10 0 12 -1 12 -20 0z"/>
<path d="M570 10 c-13 -8 -12 -10 3 -10 9 0 17 5 17 10 0 12 -1 12 -20 0z"/>
<path d="M780 10 c-13 -8 -12 -10 3 -10 9 0 17 5 17 10 0 12 -1 12 -20 0z"/>
<path d="M890 10 c-13 -8 -12 -10 3 -10 9 0 17 5 17 10 0 12 -1 12 -20 0z"/>
<path d="M60 5 c0 -3 2 -5 5 -5 3 0 5 2 5 5 0 3 -2 5 -5 5 -3 0 -5 -2 -5 -5z"/>
<path d="M380 5 c0 -3 2 -5 5 -5 3 0 5 2 5 5 0 3 -2 5 -5 5 -3 0 -5 -2 -5 -5z"/>
<path d="M700 5 c0 -3 2 -5 5 -5 3 0 5 2 5 5 0 3 -2 5 -5 5 -3 0 -5 -2 -5 -5z"/>
</g>
<g transform="translate(0.000000,96.000000) scale(0.100000,-0.100000)"
fill="#00b817" stroke="none">
<path d="M164 748 c-4 -7 -3 -8 4 -4 12 7 16 16 8 16 -3 0 -8 -5 -12 -12z"/>
<path d="M484 748 c-4 -7 -3 -8 4 -4 12 7 16 16 8 16 -3 0 -8 -5 -12 -12z"/>
<path d="M804 748 c-4 -7 -3 -8 4 -4 7 4 12 9 12 12 0 8 -9 4 -16 -8z"/>
<path d="M140 735 c0 -3 2 -5 5 -5 3 0 5 2 5 5 0 3 -2 5 -5 5 -3 0 -5 -2 -5
-5z"/>
<path d="M460 735 c0 -3 2 -5 5 -5 3 0 5 2 5 5 0 3 -2 5 -5 5 -3 0 -5 -2 -5
-5z"/>
<path d="M780 735 c0 -3 2 -5 5 -5 3 0 5 2 5 5 0 3 -2 5 -5 5 -3 0 -5 -2 -5
-5z"/>
<path d="M150 715 c0 -3 2 -5 5 -5 3 0 5 2 5 5 0 3 -2 5 -5 5 -3 0 -5 -2 -5
-5z"/>
<path d="M470 715 c0 -3 2 -5 5 -5 3 0 5 2 5 5 0 3 -2 5 -5 5 -3 0 -5 -2 -5
-5z"/>
<path d="M790 715 c0 -3 2 -5 5 -5 3 0 5 2 5 5 0 3 -2 5 -5 5 -3 0 -5 -2 -5
-5z"/>
<path d="M50 700 c0 -7 3 -10 7 -7 3 4 3 10 0 14 -4 3 -7 0 -7 -7z"/>
<path d="M370 700 c0 -7 3 -10 7 -7 3 4 3 10 0 14 -4 3 -7 0 -7 -7z"/>
<path d="M690 700 c0 -7 3 -10 7 -7 3 4 3 10 0 14 -4 3 -7 0 -7 -7z"/>
<path d="M150 695 c0 -3 2 -5 5 -5 3 0 5 2 5 5 0 3 -2 5 -5 5 -3 0 -5 -2 -5
-5z"/>
<path d="M470 695 c0 -3 2 -5 5 -5 3 0 5 2 5 5 0 3 -2 5 -5 5 -3 0 -5 -2 -5
-5z"/>
<path d="M790 695 c0 -3 2 -5 5 -5 3 0 5 2 5 5 0 3 -2 5 -5 5 -3 0 -5 -2 -5
-5z"/>
<path d="M144 648 c-4 -7 -3 -8 4 -4 12 7 16 16 8 16 -3 0 -8 -5 -12 -12z"/>
<path d="M464 648 c-4 -7 -3 -8 4 -4 12 7 16 16 8 16 -3 0 -8 -5 -12 -12z"/>
<path d="M784 648 c-4 -7 -3 -8 4 -4 7 4 12 9 12 12 0 8 -9 4 -16 -8z"/>
<path d="M60 645 c0 -3 2 -5 5 -5 3 0 5 2 5 5 0 3 -2 5 -5 5 -3 0 -5 -2 -5 -5z"/>
<path d="M250 645 c0 -3 2 -5 5 -5 3 0 5 2 5 5 0 3 -2 5 -5 5 -3 0 -5 -2 -5
-5z"/>
<path d="M380 645 c0 -3 2 -5 5 -5 3 0 5 2 5 5 0 3 -2 5 -5 5 -3 0 -5 -2 -5
-5z"/>
<path d="M570 645 c0 -3 2 -5 5 -5 3 0 5 2 5 5 0 3 -2 5 -5 5 -3 0 -5 -2 -5
-5z"/>
<path d="M700 645 c0 -3 2 -5 5 -5 3 0 5 2 5 5 0 3 -2 5 -5 5 -3 0 -5 -2 -5
-5z"/>
<path d="M890 645 c0 -3 2 -5 5 -5 3 0 5 2 5 5 0 3 -2 5 -5 5 -3 0 -5 -2 -5
-5z"/>
<path d="M164 428 c-4 -7 -3 -8 4 -4 12 7 16 16 8 16 -3 0 -8 -5 -12 -12z"/>
<path d="M484 428 c-4 -7 -3 -8 4 -4 12 7 16 16 8 16 -3 0 -8 -5 -12 -12z"/>
<path d="M804 428 c-4 -7 -3 -8 4 -4 7 4 12 9 12 12 0 8 -9 4 -16 -8z"/>
<path d="M140 415 c0 -3 2 -5 5 -5 3 0 5 2 5 5 0 3 -2 5 -5 5 -3 0 -5 -2 -5
-5z"/>
<path d="M460 415 c0 -3 2 -5 5 -5 3 0 5 2 5 5 0 3 -2 5 -5 5 -3 0 -5 -2 -5
-5z"/>
<path d="M780 415 c0 -3 2 -5 5 -5 3 0 5 2 5 5 0 3 -2 5 -5 5 -3 0 -5 -2 -5
-5z"/>
<path d="M150 395 c0 -3 2 -5 5 -5 3 0 5 2 5 5 0 3 -2 5 -5 5 -3 0 -5 -2 -5
-5z"/>
<path d="M470 395 c0 -3 2 -5 5 -5 3 0 5 2 5 5 0 3 -2 5 -5 5 -3 0 -5 -2 -5
-5z"/>
<path d="M790 395 c0 -3 2 -5 5 -5 3 0 5 2 5 5 0 3 -2 5 -5 5 -3 0 -5 -2 -5
-5z"/>
<path d="M50 380 c0 -7 3 -10 7 -7 3 4 3 10 0 14 -4 3 -7 0 -7 -7z"/>
<path d="M370 380 c0 -7 3 -10 7 -7 3 4 3 10 0 14 -4 3 -7 0 -7 -7z"/>
<path d="M690 380 c0 -7 3 -10 7 -7 3 4 3 10 0 14 -4 3 -7 0 -7 -7z"/>
<path d="M150 375 c0 -3 2 -5 5 -5 3 0 5 2 5 5 0 3 -2 5 -5 5 -3 0 -5 -2 -5
-5z"/>
<path d="M470 375 c0 -3 2 -5 5 -5 3 0 5 2 5 5 0 3 -2 5 -5 5 -3 0 -5 -2 -5
-5z"/>
<path d="M790 375 c0 -3 2 -5 5 -5 3 0 5 2 5 5 0 3 -2 5 -5 5 -3 0 -5 -2 -5
-5z"/>
<path d="M144 328 c-4 -7 -3 -8 4 -4 7 4 12 9 12 12 0 8 -9 4 -16 -8z"/>
<path d="M464 328 c-4 -7 -3 -8 4 -4 7 4 12 9 12 12 0 8 -9 4 -16 -8z"/>
<path d="M784 328 c-4 -7 -3 -8 4 -4 7 4 12 9 12 12 0 8 -9 4 -16 -8z"/>
<path d="M60 325 c0 -3 2 -5 5 -5 3 0 5 2 5 5 0 3 -2 5 -5 5 -3 0 -5 -2 -5 -5z"/>
<path d="M250 325 c0 -3 2 -5 5 -5 3 0 5 2 5 5 0 3 -2 5 -5 5 -3 0 -5 -2 -5
-5z"/>
<path d="M380 325 c0 -3 2 -5 5 -5 3 0 5 2 5 5 0 3 -2 5 -5 5 -3 0 -5 -2 -5
-5z"/>
<path d="M570 325 c0 -3 2 -5 5 -5 3 0 5 2 5 5 0 3 -2 5 -5 5 -3 0 -5 -2 -5
-5z"/>
<path d="M700 325 c0 -3 2 -5 5 -5 3 0 5 2 5 5 0 3 -2 5 -5 5 -3 0 -5 -2 -5
-5z"/>
<path d="M890 325 c0 -3 2 -5 5 -5 3 0 5 2 5 5 0 3 -2 5 -5 5 -3 0 -5 -2 -5
-5z"/>
<path d="M164 108 c-4 -7 -3 -8 4 -4 12 7 16 16 8 16 -3 0 -8 -5 -12 -12z"/>
<path d="M484 108 c-4 -7 -3 -8 4 -4 7 4 12 9 12 12 0 8 -9 4 -16 -8z"/>
<path d="M804 108 c-4 -7 -3 -8 4 -4 7 4 12 9 12 12 0 8 -9 4 -16 -8z"/>
<path d="M140 95 c0 -3 2 -5 5 -5 3 0 5 2 5 5 0 3 -2 5 -5 5 -3 0 -5 -2 -5 -5z"/>
<path d="M460 95 c0 -3 2 -5 5 -5 3 0 5 2 5 5 0 3 -2 5 -5 5 -3 0 -5 -2 -5 -5z"/>
<path d="M780 95 c0 -3 2 -5 5 -5 3 0 5 2 5 5 0 3 -2 5 -5 5 -3 0 -5 -2 -5 -5z"/>
<path d="M150 75 c0 -3 2 -5 5 -5 3 0 5 2 5 5 0 3 -2 5 -5 5 -3 0 -5 -2 -5 -5z"/>
<path d="M470 75 c0 -3 2 -5 5 -5 3 0 5 2 5 5 0 3 -2 5 -5 5 -3 0 -5 -2 -5 -5z"/>
<path d="M790 75 c0 -3 2 -5 5 -5 3 0 5 2 5 5 0 3 -2 5 -5 5 -3 0 -5 -2 -5 -5z"/>
<path d="M50 60 c0 -7 3 -10 7 -7 3 4 3 10 0 14 -4 3 -7 0 -7 -7z"/>
<path d="M370 60 c0 -7 3 -10 7 -7 3 4 3 10 0 14 -4 3 -7 0 -7 -7z"/>
<path d="M690 60 c0 -7 3 -10 7 -7 3 4 3 10 0 14 -4 3 -7 0 -7 -7z"/>
<path d="M150 55 c0 -3 2 -5 5 -5 3 0 5 2 5 5 0 3 -2 5 -5 5 -3 0 -5 -2 -5 -5z"/>
<path d="M470 55 c0 -3 2 -5 5 -5 3 0 5 2 5 5 0 3 -2 5 -5 5 -3 0 -5 -2 -5 -5z"/>
<path d="M790 55 c0 -3 2 -5 5 -5 3 0 5 2 5 5 0 3 -2 5 -5 5 -3 0 -5 -2 -5 -5z"/>
<path d="M144 8 c-4 -7 -3 -8 4 -4 7 4 12 9 12 12 0 8 -9 4 -16 -8z"/>
<path d="M464 8 c-4 -7 -3 -8 4 -4 12 7 16 16 8 16 -3 0 -8 -5 -12 -12z"/>
<path d="M784 8 c-4 -7 -3 -8 4 -4 12 7 16 16 8 16 -3 0 -8 -5 -12 -12z"/>
<path d="M60 5 c0 -3 2 -5 5 -5 3 0 5 2 5 5 0 3 -2 5 -5 5 -3 0 -5 -2 -5 -5z"/>
<path d="M250 5 c0 -3 2 -5 5 -5 3 0 5 2 5 5 0 3 -2 5 -5 5 -3 0 -5 -2 -5 -5z"/>
<path d="M380 5 c0 -3 2 -5 5 -5 3 0 5 2 5 5 0 3 -2 5 -5 5 -3 0 -5 -2 -5 -5z"/>
<path d="M570 5 c0 -3 2 -5 5 -5 3 0 5 2 5 5 0 3 -2 5 -5 5 -3 0 -5 -2 -5 -5z"/>
<path d="M700 5 c0 -3 2 -5 5 -5 3 0 5 2 5 5 0 3 -2 5 -5 5 -3 0 -5 -2 -5 -5z"/>
<path d="M890 5 c0 -3 2 -5 5 -5 3 0 5 2 5 5 0 3 -2 5 -5 5 -3 0 -5 -2 -5 -5z"/>
</g>
<g transform="translate(0.000000,96.000000) scale(0.100000,-0.100000)"
fill="#056b05" stroke="none">
<path d="M50 700 c0 -7 3 -10 7 -7 3 4 3 10 0 14 -4 3 -7 0 -7 -7z"/>
<path d="M370 700 c0 -7 3 -10 7 -7 3 4 3 10 0 14 -4 3 -7 0 -7 -7z"/>
<path d="M690 700 c0 -7 3 -10 7 -7 3 4 3 10 0 14 -4 3 -7 0 -7 -7z"/>
<path d="M60 645 c0 -3 2 -5 5 -5 3 0 5 2 5 5 0 3 -2 5 -5 5 -3 0 -5 -2 -5 -5z"/>
<path d="M140 645 c0 -3 2 -5 5 -5 3 0 5 2 5 5 0 3 -2 5 -5 5 -3 0 -5 -2 -5
-5z"/>
<path d="M250 645 c0 -3 2 -5 5 -5 3 0 5 2 5 5 0 3 -2 5 -5 5 -3 0 -5 -2 -5
-5z"/>
<path d="M380 645 c0 -3 2 -5 5 -5 3 0 5 2 5 5 0 3 -2 5 -5 5 -3 0 -5 -2 -5
-5z"/>
<path d="M460 645 c0 -3 2 -5 5 -5 3 0 5 2 5 5 0 3 -2 5 -5 5 -3 0 -5 -2 -5
-5z"/>
<path d="M570 645 c0 -3 2 -5 5 -5 3 0 5 2 5 5 0 3 -2 5 -5 5 -3 0 -5 -2 -5
-5z"/>
<path d="M700 645 c0 -3 2 -5 5 -5 3 0 5 2 5 5 0 3 -2 5 -5 5 -3 0 -5 -2 -5
-5z"/>
<path d="M780 645 c0 -3 2 -5 5 -5 3 0 5 2 5 5 0 3 -2 5 -5 5 -3 0 -5 -2 -5
-5z"/>
<path d="M890 645 c0 -3 2 -5 5 -5 3 0 5 2 5 5 0 3 -2 5 -5 5 -3 0 -5 -2 -5
-5z"/>
<path d="M50 380 c0 -7 3 -10 7 -7 3 4 3 10 0 14 -4 3 -7 0 -7 -7z"/>
<path d="M370 380 c0 -7 3 -10 7 -7 3 4 3 10 0 14 -4 3 -7 0 -7 -7z"/>
<path d="M690 380 c0 -7 3 -10 7 -7 3 4 3 10 0 14 -4 3 -7 0 -7 -7z"/>
<path d="M60 325 c0 -3 2 -5 5 -5 3 0 5 2 5 5 0 3 -2 5 -5 5 -3 0 -5 -2 -5 -5z"/>
<path d="M140 325 c0 -3 2 -5 5 -5 3 0 5 2 5 5 0 3 -2 5 -5 5 -3 0 -5 -2 -5
-5z"/>
<path d="M250 325 c0 -3 2 -5 5 -5 3 0 5 2 5 5 0 3 -2 5 -5 5 -3 0 -5 -2 -5
-5z"/>
<path d="M380 325 c0 -3 2 -5 5 -5 3 0 5 2 5 5 0 3 -2 5 -5 5 -3 0 -5 -2 -5
-5z"/>
<path d="M460 325 c0 -3 2 -5 5 -5 3 0 5 2 5 5 0 3 -2 5 -5 5 -3 0 -5 -2 -5
-5z"/>
<path d="M570 325 c0 -3 2 -5 5 -5 3 0 5 2 5 5 0 3 -2 5 -5 5 -3 0 -5 -2 -5
-5z"/>
<path d="M700 325 c0 -3 2 -5 5 -5 3 0 5 2 5 5 0 3 -2 5 -5 5 -3 0 -5 -2 -5
-5z"/>
<path d="M780 325 c0 -3 2 -5 5 -5 3 0 5 2 5 5 0 3 -2 5 -5 5 -3 0 -5 -2 -5
-5z"/>
<path d="M890 325 c0 -3 2 -5 5 -5 3 0 5 2 5 5 0 3 -2 5 -5 5 -3 0 -5 -2 -5
-5z"/>
<path d="M50 60 c0 -7 3 -10 7 -7 3 4 3 10 0 14 -4 3 -7 0 -7 -7z"/>
<path d="M370 60 c0 -7 3 -10 7 -7 3 4 3 10 0 14 -4 3 -7 0 -7 -7z"/>
<path d="M690 60 c0 -7 3 -10 7 -7 3 4 3 10 0 14 -4 3 -7 0 -7 -7z"/>
<path d="M60 5 c0 -3 2 -5 5 -5 3 0 5 2 5 5 0 3 -2 5 -5 5 -3 0 -5 -2 -5 -5z"/>
<path d="M140 5 c0 -3 2 -5 5 -5 3 0 5 2 5 5 0 3 -2 5 -5 5 -3 0 -5 -2 -5 -5z"/>
<path d="M250 5 c0 -3 2 -5 5 -5 3 0 5 2 5 5 0 3 -2 5 -5 5 -3 0 -5 -2 -5 -5z"/>
<path d="M380 5 c0 -3 2 -5 5 -5 3 0 5 2 5 5 0 3 -2 5 -5 5 -3 0 -5 -2 -5 -5z"/>
<path d="M460 5 c0 -3 2 -5 5 -5 3 0 5 2 5 5 0 3 -2 5 -5 5 -3 0 -5 -2 -5 -5z"/>
<path d="M570 5 c0 -3 2 -5 5 -5 3 0 5 2 5 5 0 3 -2 5 -5 5 -3 0 -5 -2 -5 -5z"/>
<path d="M700 5 c0 -3 2 -5 5 -5 3 0 5 2 5 5 0 3 -2 5 -5 5 -3 0 -5 -2 -5 -5z"/>
<path d="M780 5 c0 -3 2 -5 5 -5 3 0 5 2 5 5 0 3 -2 5 -5 5 -3 0 -5 -2 -5 -5z"/>
<path d="M890 5 c0 -3 2 -5 5 -5 3 0 5 2 5 5 0 3 -2 5 -5 5 -3 0 -5 -2 -5 -5z"/>
</g>
<g transform="translate(0.000000,96.000000) scale(0.100000,-0.100000)"
fill="#028b0d" stroke="none">
<path d="M50 700 c0 -7 3 -10 7 -7 3 4 3 10 0 14 -4 3 -7 0 -7 -7z"/>
<path d="M370 700 c0 -7 3 -10 7 -7 3 4 3 10 0 14 -4 3 -7 0 -7 -7z"/>
<path d="M690 700 c0 -7 3 -10 7 -7 3 4 3 10 0 14 -4 3 -7 0 -7 -7z"/>
<path d="M50 380 c0 -7 3 -10 7 -7 3 4 3 10 0 14 -4 3 -7 0 -7 -7z"/>
<path d="M370 380 c0 -7 3 -10 7 -7 3 4 3 10 0 14 -4 3 -7 0 -7 -7z"/>
<path d="M690 380 c0 -7 3 -10 7 -7 3 4 3 10 0 14 -4 3 -7 0 -7 -7z"/>
<path d="M50 60 c0 -7 3 -10 7 -7 3 4 3 10 0 14 -4 3 -7 0 -7 -7z"/>
<path d="M370 60 c0 -7 3 -10 7 -7 3 4 3 10 0 14 -4 3 -7 0 -7 -7z"/>
<path d="M690 60 c0 -7 3 -10 7 -7 3 4 3 10 0 14 -4 3 -7 0 -7 -7z"/>
</g>
  </g>
</svg>
