<?xml version="1.0" encoding="UTF-8" standalone="no"?>
<!-- Created with Inkscape (http://www.inkscape.org/) -->

<svg
   xmlns:dc="http://purl.org/dc/elements/1.1/"
   xmlns:cc="http://creativecommons.org/ns#"
   xmlns:rdf="http://www.w3.org/1999/02/22-rdf-syntax-ns#"
   xmlns:svg="http://www.w3.org/2000/svg"
   xmlns="http://www.w3.org/2000/svg"
   xmlns:sodipodi="http://sodipodi.sourceforge.net/DTD/sodipodi-0.dtd"
   xmlns:inkscape="http://www.inkscape.org/namespaces/inkscape"
   width="32px"
   height="32px"
   viewBox="0 0 32px 32px"
   version="1.1"
   id="svgMain"
   inkscape:version="0.92.2 (5c3e80d, 2017-08-06)"
   sodipodi:docname="reference_SVG.svg">
  <defs
     id="defs4542" />
  <sodipodi:namedview
     id="base"
     pagecolor="#ffffff"
     bordercolor="#666666"
     borderopacity="1.0"
     inkscape:pageopacity="0.0"
     inkscape:pageshadow="2"
     inkscape:zoom="1"
     inkscape:cx="0"
     inkscape:cy="0"
     inkscape:document-units="px"
     inkscape:current-layer="layer1"
     showgrid="false"
     units="px"
     inkscape:window-width="1024"
     inkscape:window-height="768"
     inkscape:window-x="-8"
     inkscape:window-y="-8"
     inkscape:window-maximized="1" />
  <metadata
     id="metadata1">
    <rdf:RDF>
      <cc:Work
         rdf:about="">
        <dc:format>image/svg+xml</dc:format>
        <dc:type
           rdf:resource="http://purl.org/dc/dcmitype/StillImage" />
        <dc:title />
      </cc:Work>
    </rdf:RDF>
  </metadata>
  <g transform="translate(-32,-32)"
     inkscape:label="Layer 1"
     inkscape:groupmode="layer"
     id="layer1">
    <!-- INSERT MARKER -->
<g transform="translate(0.000000,96.000000) scale(0.100000,-0.100000)"
fill="#dedac6" stroke="none">
<path d="M0 480 l0 -480 480 0 480 0 0 480 0 480 -480 0 -480 0 0 -480z"/>
</g>
<g transform="translate(0.000000,96.000000) scale(0.100000,-0.100000)"
fill="#b8b398" stroke="none">
<path d="M4 948 c-4 -7 -3 -8 4 -4 12 7 16 16 8 16 -3 0 -8 -5 -12 -12z"/>
<path d="M30 956 c0 -2 7 -7 16 -10 8 -3 12 -2 9 4 -6 10 -25 14 -25 6z"/>
<path d="M284 943 c1 -7 6 -16 11 -20 4 -4 5 -3 1 4 -3 6 2 16 11 22 16 9 16
10 -3 8 -12 0 -21 -7 -20 -14z"/>
<path d="M333 953 c4 -3 10 -3 14 0 3 4 0 7 -7 7 -7 0 -10 -3 -7 -7z"/>
<path d="M363 953 c4 -3 10 -3 14 0 3 4 0 7 -7 7 -7 0 -10 -3 -7 -7z"/>
<path d="M603 944 c0 -7 6 -10 14 -7 7 3 13 8 13 12 0 4 -6 8 -13 8 -8 0 -14
-6 -14 -13z"/>
<path d="M643 953 c4 -3 10 -3 14 0 3 4 0 7 -7 7 -7 0 -10 -3 -7 -7z"/>
<path d="M677 953 c-4 -3 -7 -11 -7 -17 0 -6 5 -5 12 2 6 6 9 14 7 17 -3 3 -9
2 -12 -2z"/>
<path d="M903 947 c-3 -5 -2 -11 1 -14 3 -4 6 -1 6 6 0 7 5 9 10 6 8 -5 7 -12
-2 -23 -12 -15 -11 -16 4 -3 10 7 15 18 11 24 -4 6 0 8 11 4 9 -4 15 -3 11 2
-7 12 -44 10 -52 -2z"/>
<path d="M30 935 c0 -3 2 -5 5 -5 3 0 5 2 5 5 0 3 -2 5 -5 5 -3 0 -5 -2 -5 -5z"/>
<path d="M82 918 c-44 -16 -53 -24 -49 -39 3 -10 2 -19 -2 -19 -4 0 -7 -30 -5
-67 3 -88 2 -85 13 -78 6 3 8 -3 6 -15 -2 -11 1 -23 7 -26 7 -4 8 -2 4 5 -6 8
0 10 21 5 15 -4 40 -7 56 -7 15 0 27 -4 27 -10 0 -5 7 -4 15 3 9 7 18 10 22 7
3 -4 14 -2 24 4 11 5 19 6 19 1 0 -14 29 -10 35 6 4 12 8 12 23 1 15 -13 16
-12 4 3 -10 13 -11 26 -3 54 6 21 7 42 2 48 -5 6 -7 21 -5 33 2 12 -1 25 -6
28 -6 3 -10 14 -10 24 0 10 -8 21 -17 25 -88 30 -102 33 -107 22 -3 -8 -7 -8
-13 0 -6 9 -22 6 -61 -8z"/>
<path d="M318 933 c7 -3 16 -2 19 1 4 3 -2 6 -13 5 -11 0 -14 -3 -6 -6z"/>
<path d="M350 935 c0 -3 2 -5 5 -5 3 0 5 2 5 5 0 3 -2 5 -5 5 -3 0 -5 -2 -5
-5z"/>
<path d="M455 930 c-4 -6 -11 -8 -16 -4 -17 10 -61 -5 -52 -19 4 -7 -2 -5 -12
3 -10 8 -16 10 -12 3 4 -6 3 -13 -3 -15 -14 -4 -22 -135 -10 -143 7 -4 6 -14
-1 -27 -10 -18 -9 -20 5 -15 23 9 16 -15 -9 -30 -24 -15 -11 -17 15 -3 12 6
21 7 25 0 3 -5 15 -6 28 -1 12 4 35 5 52 0 37 -9 95 -6 114 5 10 6 12 5 7 -2
-5 -8 -2 -10 9 -6 12 5 13 9 4 21 -10 11 -9 13 2 11 9 -2 15 11 19 45 3 26 2
47 -3 47 -4 0 -5 9 -2 20 4 12 1 27 -5 35 -9 11 -9 15 -1 15 16 0 -30 46 -49
49 -8 1 -27 2 -42 2 -15 0 -30 4 -33 9 -8 13 -22 13 -30 0z m-58 -247 c-4 -3
-7 0 -7 7 0 7 3 10 7 7 3 -4 3 -10 0 -14z"/>
<path d="M645 929 c-4 -6 -5 -12 -2 -15 2 -3 7 2 10 11 7 17 1 20 -8 4z"/>
<path d="M764 929 c-3 -6 -19 -9 -35 -7 -15 3 -26 1 -23 -4 5 -7 -18 -13 -39
-9 -4 1 -3 -8 3 -18 6 -13 6 -22 0 -26 -5 -3 -7 -12 -3 -20 3 -9 0 -22 -7 -30
-9 -11 -9 -15 -1 -15 7 0 9 -9 5 -24 -3 -13 -1 -27 5 -30 5 -4 7 -14 4 -23
-11 -28 33 -45 115 -45 30 1 52 -4 52 -10 0 -7 4 -7 13 1 8 6 17 8 20 4 4 -3
13 -1 20 5 8 7 17 9 20 5 6 -6 11 11 8 29 0 4 7 5 17 1 13 -5 14 -3 5 7 -8 9
-9 20 -2 39 7 17 7 27 0 29 -6 2 -11 8 -11 13 0 6 6 7 13 3 8 -5 8 -2 -2 9 -7
9 -10 17 -6 17 4 0 1 8 -6 17 -11 13 -11 15 -1 9 11 -7 11 -4 0 15 -29 49 -40
58 -65 48 -13 -5 -23 -5 -23 0 0 5 -9 7 -20 4 -11 -3 -20 0 -20 6 0 14 -27 14
-36 0z m-74 -214 c0 -3 -2 -5 -5 -5 -3 0 -5 2 -5 5 0 3 2 5 5 5 3 0 5 -2 5 -5z"/>
<path d="M3 923 c4 -3 10 -3 14 0 3 4 0 7 -7 7 -7 0 -10 -3 -7 -7z"/>
<path d="M620 920 c0 -7 3 -10 7 -7 3 4 3 10 0 14 -4 3 -7 0 -7 -7z"/>
<path d="M30 915 c0 -3 2 -5 5 -5 3 0 5 2 5 5 0 3 -2 5 -5 5 -3 0 -5 -2 -5 -5z"/>
<path d="M253 913 c4 -3 10 -3 14 0 3 4 0 7 -7 7 -7 0 -10 -3 -7 -7z"/>
<path d="M333 913 c4 -3 10 -3 14 0 3 4 0 7 -7 7 -7 0 -10 -3 -7 -7z"/>
<path d="M940 915 c0 -3 2 -5 5 -5 3 0 5 2 5 5 0 3 -2 5 -5 5 -3 0 -5 -2 -5
-5z"/>
<path d="M0 905 c0 -3 2 -5 5 -5 3 0 5 2 5 5 0 3 -2 5 -5 5 -3 0 -5 -2 -5 -5z"/>
<path d="M310 905 c0 -3 2 -5 5 -5 3 0 5 2 5 5 0 3 -2 5 -5 5 -3 0 -5 -2 -5
-5z"/>
<path d="M330 895 c0 -3 2 -5 5 -5 3 0 5 2 5 5 0 3 -2 5 -5 5 -3 0 -5 -2 -5
-5z"/>
<path d="M10 885 c0 -3 2 -5 5 -5 3 0 5 2 5 5 0 3 -2 5 -5 5 -3 0 -5 -2 -5 -5z"/>
<path d="M645 880 c3 -5 8 -10 11 -10 3 0 2 5 -1 10 -3 6 -8 10 -11 10 -3 0
-2 -4 1 -10z"/>
<path d="M320 865 c0 -3 2 -5 5 -5 3 0 5 2 5 5 0 3 -2 5 -5 5 -3 0 -5 -2 -5
-5z"/>
<path d="M0 855 c0 -3 2 -5 5 -5 3 0 5 2 5 5 0 3 -2 5 -5 5 -3 0 -5 -2 -5 -5z"/>
<path d="M640 855 c0 -3 2 -5 5 -5 3 0 5 2 5 5 0 3 -2 5 -5 5 -3 0 -5 -2 -5
-5z"/>
<path d="M630 765 c0 -3 2 -5 5 -5 3 0 5 2 5 5 0 3 -2 5 -5 5 -3 0 -5 -2 -5
-5z"/>
<path d="M950 755 c0 -3 2 -5 5 -5 3 0 5 2 5 5 0 3 -2 5 -5 5 -3 0 -5 -2 -5
-5z"/>
<path d="M310 745 c0 -3 2 -5 5 -5 3 0 5 2 5 5 0 3 -2 5 -5 5 -3 0 -5 -2 -5
-5z"/>
<path d="M300 715 c0 -3 2 -5 5 -5 3 0 5 2 5 5 0 3 -2 5 -5 5 -3 0 -5 -2 -5
-5z"/>
<path d="M940 695 c0 -3 2 -5 5 -5 3 0 5 2 5 5 0 3 -2 5 -5 5 -3 0 -5 -2 -5
-5z"/>
<path d="M4 678 c-4 -7 -3 -8 4 -4 12 7 16 16 8 16 -3 0 -8 -5 -12 -12z"/>
<path d="M630 685 c0 -3 2 -5 5 -5 3 0 5 2 5 5 0 3 -2 5 -5 5 -3 0 -5 -2 -5
-5z"/>
<path d="M650 685 c0 -3 2 -5 5 -5 3 0 5 2 5 5 0 3 -2 5 -5 5 -3 0 -5 -2 -5
-5z"/>
<path d="M670 685 c0 -3 2 -5 5 -5 3 0 5 2 5 5 0 3 -2 5 -5 5 -3 0 -5 -2 -5
-5z"/>
<path d="M950 675 c0 -3 2 -5 5 -5 3 0 5 2 5 5 0 3 -2 5 -5 5 -3 0 -5 -2 -5
-5z"/>
<path d="M26 650 c4 -14 10 -29 15 -34 4 -5 5 1 2 14 -5 17 -3 21 7 15 9 -5
11 -4 6 4 -4 6 -11 9 -16 6 -4 -3 -11 1 -14 7 -3 7 -3 2 0 -12z"/>
<path d="M70 665 c0 -3 2 -5 5 -5 3 0 5 2 5 5 0 3 -2 5 -5 5 -3 0 -5 -2 -5 -5z"/>
<path d="M278 652 c-8 -10 -8 -13 -1 -9 6 4 14 3 18 -3 3 -6 -4 -11 -17 -11
-16 -1 -18 -3 -6 -6 11 -3 15 -10 11 -21 -6 -14 -5 -15 9 -2 9 8 14 18 11 23
-7 12 12 8 26 -5 11 -11 12 -10 6 1 -5 9 -3 12 6 9 8 -3 13 -11 11 -18 -3 -11
0 -11 12 0 19 15 20 21 4 18 -8 -2 -12 5 -10 17 2 17 1 17 -8 5 -7 -10 -12
-11 -17 -4 -15 20 -41 23 -55 6z m52 -18 c0 -2 -9 0 -20 6 -11 6 -20 13 -20
16 0 2 9 0 20 -6 11 -6 20 -13 20 -16z"/>
<path d="M370 661 c0 -6 4 -13 10 -16 6 -3 7 1 4 9 -7 18 -14 21 -14 7z"/>
<path d="M610 659 c0 -5 -4 -8 -9 -5 -5 4 -8 -2 -6 -11 2 -10 4 -20 4 -22 1
-2 9 3 19 12 18 16 32 14 32 -5 0 -5 -4 -6 -10 -3 -5 3 -10 1 -10 -4 0 -18 19
-12 30 9 6 11 16 20 22 20 7 0 7 -4 -1 -14 -9 -10 -8 -15 2 -19 9 -3 13 2 12
15 -1 19 -21 38 -40 38 -5 0 -4 -4 4 -9 8 -5 9 -11 3 -15 -5 -3 -15 1 -22 9
-14 17 -30 20 -30 4z m20 -3 c0 -2 -8 -10 -17 -17 -16 -13 -17 -12 -4 4 13 16
21 21 21 13z"/>
<path d="M909 655 c14 -17 9 -46 -6 -41 -8 3 -12 2 -9 -3 3 -5 -8 -11 -24 -13
-17 -3 -30 -1 -30 3 0 4 -9 5 -20 2 -11 -3 -20 -1 -20 5 0 6 -9 10 -20 9 -11
-1 -20 -5 -20 -10 0 -5 -6 -7 -12 -4 -7 2 -25 -2 -39 -9 -15 -7 -30 -10 -34
-6 -4 4 -5 -3 -2 -15 3 -13 1 -26 -5 -29 -5 -3 -7 -13 -4 -21 4 -9 1 -22 -5
-29 -6 -8 -7 -14 -2 -14 5 0 10 -21 11 -47 2 -47 13 -62 52 -71 35 -7 171 -8
176 0 3 5 9 6 14 3 11 -7 25 25 28 68 1 11 7 15 13 11 6 -3 4 5 -5 19 -10 14
-15 36 -12 51 3 18 1 24 -6 20 -7 -5 -9 -1 -5 9 3 9 0 23 -8 31 -19 19 -19 28
-1 24 8 -2 15 1 14 6 0 5 6 13 14 17 11 7 11 9 -1 9 -8 0 -11 7 -9 18 4 12 -1
18 -13 18 -11 0 -15 -4 -10 -11z m21 -30 c0 -3 -2 -5 -5 -5 -3 0 -5 2 -5 5 0
3 2 5 5 5 3 0 5 -2 5 -5z m0 -20 c0 -3 -2 -5 -5 -5 -3 0 -5 2 -5 5 0 3 2 5 5
5 3 0 5 -2 5 -5z m-240 -210 c0 -3 -2 -5 -5 -5 -3 0 -5 2 -5 5 0 3 2 5 5 5 3
0 5 -2 5 -5z"/>
<path d="M0 646 c0 -8 4 -17 9 -20 5 -4 7 3 4 14 -6 23 -13 26 -13 6z"/>
<path d="M943 643 c4 -3 10 -3 14 0 3 4 0 7 -7 7 -7 0 -10 -3 -7 -7z"/>
<path d="M140 619 c-18 -9 -51 -21 -65 -24 -23 -3 -45 -18 -44 -29 1 -6 1 -18
0 -26 -1 -13 -2 -13 -11 0 -6 9 -10 10 -10 3 0 -6 4 -14 8 -17 5 -3 7 -24 5
-47 -2 -23 2 -48 8 -55 6 -8 9 -20 6 -28 -11 -28 34 -42 131 -41 50 0 92 -3
92 -8 0 -4 6 -2 14 5 10 9 11 17 4 26 -8 9 -4 12 13 12 18 0 21 2 10 9 -12 8
-13 14 -3 36 8 17 9 32 4 39 -5 6 -8 21 -7 34 1 12 -2 22 -7 22 -5 0 -7 4 -4
8 3 5 -1 20 -9 35 -7 14 -11 27 -9 29 2 3 -21 2 -50 0 -42 -3 -55 -1 -58 11
-2 9 -8 12 -18 6z m110 -24 c0 -3 -2 -5 -5 -5 -3 0 -5 2 -5 5 0 3 2 5 5 5 3 0
5 -2 5 -5z m-200 -210 c0 -3 -2 -5 -5 -5 -3 0 -5 2 -5 5 0 3 2 5 5 5 3 0 5 -2
5 -5z m27 -22 c-4 -3 -7 0 -7 7 0 7 3 10 7 7 3 -4 3 -10 0 -14z"/>
<path d="M456 611 c-3 -5 -15 -7 -25 -4 -27 7 -81 -27 -82 -52 -1 -11 -3 -41
-5 -67 -3 -29 0 -48 6 -48 6 0 8 -10 4 -25 -8 -32 30 -67 60 -55 12 4 34 4 51
-1 37 -9 95 -6 114 5 10 6 12 5 7 -2 -5 -8 -2 -10 9 -6 12 5 13 10 4 20 -8 10
-6 12 11 9 17 -3 19 -1 11 9 -6 7 -8 16 -4 19 9 10 10 67 1 67 -14 0 -9 30 5
30 7 0 3 8 -8 16 -14 11 -16 18 -7 21 6 3 12 10 12 16 0 5 -3 8 -6 4 -8 -7
-33 16 -28 25 4 6 -7 8 -68 9 -15 0 -30 4 -33 9 -8 13 -22 13 -29 1z m-86
-216 c0 -3 -2 -5 -5 -5 -3 0 -5 2 -5 5 0 3 2 5 5 5 3 0 5 -2 5 -5z m27 -32
c-4 -3 -7 0 -7 7 0 7 3 10 7 7 3 -4 3 -10 0 -14z"/>
<path d="M10 606 c0 -2 7 -7 16 -10 8 -3 12 -2 9 4 -6 10 -25 14 -25 6z"/>
<path d="M603 603 c4 -3 10 -3 14 0 3 4 0 7 -7 7 -7 0 -10 -3 -7 -7z"/>
<path d="M655 599 c-4 -6 -5 -12 -2 -15 2 -3 7 2 10 11 7 17 1 20 -8 4z"/>
<path d="M950 605 c0 -3 2 -5 5 -5 3 0 5 2 5 5 0 3 -2 5 -5 5 -3 0 -5 -2 -5
-5z"/>
<path d="M0 580 c0 -7 3 -10 7 -7 3 4 3 10 0 14 -4 3 -7 0 -7 -7z"/>
<path d="M325 579 c-4 -6 -5 -12 -2 -15 2 -3 7 2 10 11 7 17 1 20 -8 4z"/>
<path d="M650 560 c0 -7 3 -10 7 -7 3 4 3 10 0 14 -4 3 -7 0 -7 -7z"/>
<path d="M940 490 c0 -7 3 -10 7 -7 3 4 3 10 0 14 -4 3 -7 0 -7 -7z"/>
<path d="M630 445 c0 -3 2 -5 5 -5 3 0 5 2 5 5 0 3 -2 5 -5 5 -3 0 -5 -2 -5
-5z"/>
<path d="M310 430 c0 -7 3 -10 7 -7 3 4 3 10 0 14 -4 3 -7 0 -7 -7z"/>
<path d="M950 420 c0 -7 3 -10 7 -7 3 4 3 10 0 14 -4 3 -7 0 -7 -7z"/>
<path d="M950 385 c0 -3 2 -5 5 -5 3 0 5 2 5 5 0 3 -2 5 -5 5 -3 0 -5 -2 -5
-5z"/>
<path d="M10 376 c0 -2 8 -10 18 -17 15 -13 16 -12 3 4 -13 16 -21 21 -21 13z"/>
<path d="M310 365 c0 -3 2 -5 5 -5 3 0 5 2 5 5 0 3 -2 5 -5 5 -3 0 -5 -2 -5
-5z"/>
<path d="M340 360 c-8 -5 -10 -10 -5 -10 6 0 17 5 25 10 8 5 11 10 5 10 -5 0
-17 -5 -25 -10z"/>
<path d="M650 365 c0 -3 2 -5 5 -5 3 0 5 2 5 5 0 3 -2 5 -5 5 -3 0 -5 -2 -5
-5z"/>
<path d="M670 365 c0 -3 2 -5 5 -5 3 0 5 2 5 5 0 3 -2 5 -5 5 -3 0 -5 -2 -5
-5z"/>
<path d="M4 325 c0 -13 2 -22 5 -20 2 3 9 1 16 -5 8 -6 11 -2 11 15 0 13 -2
22 -5 20 -2 -3 -9 -1 -16 5 -8 6 -11 2 -11 -15z m21 -5 c3 -5 4 -10 1 -10 -3
0 -8 5 -11 10 -3 6 -4 10 -1 10 3 0 8 -4 11 -10z"/>
<path d="M297 342 c8 -5 9 -13 3 -22 -7 -10 -10 -11 -10 -2 0 6 -5 12 -11 12
-8 0 -9 -4 0 -13 6 -8 8 -17 4 -21 -4 -4 0 -4 10 0 9 3 17 13 17 21 0 8 5 11
11 8 6 -4 8 -14 5 -22 -3 -8 -1 -11 4 -8 6 3 10 10 10 15 0 13 -30 40 -43 40
-9 0 -9 -2 0 -8z"/>
<path d="M370 341 c0 -6 4 -13 10 -16 6 -3 7 1 4 9 -7 18 -14 21 -14 7z"/>
<path d="M610 339 c0 -5 -4 -8 -9 -5 -4 3 -7 -6 -5 -20 2 -19 -1 -24 -12 -20
-8 3 -13 2 -10 -3 3 -5 -8 -11 -24 -13 -17 -3 -30 -1 -30 3 0 4 -9 5 -20 2
-11 -3 -20 -1 -20 5 0 6 -9 10 -20 9 -11 -1 -20 -5 -20 -10 0 -5 -6 -7 -12 -4
-7 2 -25 -2 -39 -9 -15 -7 -30 -10 -34 -6 -4 4 -5 -3 -2 -15 3 -13 1 -26 -5
-29 -5 -3 -7 -13 -4 -21 4 -9 1 -22 -5 -29 -6 -8 -7 -14 -2 -14 5 0 10 -21 11
-47 2 -47 13 -62 52 -71 35 -7 171 -8 176 0 3 5 9 6 14 3 11 -7 25 25 28 68 1
11 7 15 13 11 6 -3 4 5 -5 19 -10 14 -15 36 -12 51 3 18 1 24 -6 20 -7 -5 -9
-1 -5 9 3 9 0 23 -8 31 -19 19 -19 28 -1 24 8 -2 15 1 14 6 0 5 6 13 14 17 10
7 10 9 1 9 -7 0 -13 5 -13 11 0 5 5 7 10 4 6 -3 10 1 10 9 0 9 -4 16 -10 16
-5 0 -10 -5 -10 -11z m0 -34 c0 -3 -2 -5 -5 -5 -3 0 -5 2 -5 5 0 3 2 5 5 5 3
0 5 -2 5 -5z m0 -20 c0 -3 -2 -5 -5 -5 -3 0 -5 2 -5 5 0 3 2 5 5 5 3 0 5 -2 5
-5z m-240 -210 c0 -3 -2 -5 -5 -5 -3 0 -5 2 -5 5 0 3 2 5 5 5 3 0 5 -2 5 -5z"/>
<path d="M652 338 c-19 -19 -14 -27 18 -26 17 1 29 5 28 10 -2 5 -7 9 -12 8
-5 -1 -12 3 -15 9 -5 8 -11 7 -19 -1z m15 -15 c-4 -3 -10 -3 -14 0 -3 4 0 7 7
7 7 0 10 -3 7 -7z m23 2 c0 -3 -2 -5 -5 -5 -3 0 -5 2 -5 5 0 3 2 5 5 5 3 0 5
-2 5 -5z"/>
<path d="M915 342 c6 -4 10 -17 9 -29 -2 -26 22 -20 29 8 3 10 1 17 -4 13 -5
-3 -9 0 -9 5 0 6 -8 11 -17 11 -11 0 -14 -3 -8 -8z m22 -29 c-4 -3 -7 0 -7 7
0 7 3 10 7 7 3 -4 3 -10 0 -14z"/>
<path d="M347 328 c7 -8 10 -17 7 -20 -2 -3 2 -8 11 -12 13 -4 14 -2 5 14 -5
10 -16 22 -23 26 -9 6 -9 5 0 -8z"/>
<path d="M900 325 c0 -3 2 -5 5 -5 3 0 5 2 5 5 0 3 -2 5 -5 5 -3 0 -5 -2 -5
-5z"/>
<path d="M50 305 c0 -3 2 -5 5 -5 3 0 5 2 5 5 0 3 -2 5 -5 5 -3 0 -5 -2 -5 -5z"/>
<path d="M135 290 c-4 -6 -11 -8 -16 -4 -17 10 -61 -5 -52 -19 4 -7 0 -7 -10
2 -10 8 -20 11 -24 7 -3 -3 -1 -6 6 -6 7 0 9 -5 6 -10 -4 -6 -9 -8 -13 -6 -9
5 -9 -130 0 -139 4 -4 2 -17 -4 -28 -9 -17 -8 -19 6 -14 23 9 16 -15 -9 -30
-24 -15 -11 -17 15 -3 12 6 21 7 25 0 3 -5 15 -6 28 -1 12 4 35 5 52 0 37 -9
95 -6 114 5 10 6 12 5 7 -2 -5 -8 -2 -10 9 -6 12 5 13 9 4 21 -10 11 -9 13 2
11 9 -2 15 11 19 45 3 26 2 47 -3 47 -4 0 -5 9 -2 20 4 12 1 27 -5 35 -9 11
-9 15 -1 15 16 0 -30 46 -49 49 -8 1 -27 2 -42 2 -15 0 -30 4 -33 9 -8 13 -22
13 -30 0z m-58 -247 c-4 -3 -7 0 -7 7 0 7 3 10 7 7 3 -4 3 -10 0 -14z"/>
<path d="M635 291 c-3 -5 0 -13 6 -17 7 -4 9 -3 5 4 -3 5 0 13 6 15 9 4 10 6
1 6 -6 1 -14 -3 -18 -8z"/>
<path d="M670 295 c0 -3 2 -5 5 -5 3 0 5 2 5 5 0 3 -2 5 -5 5 -3 0 -5 -2 -5
-5z"/>
<path d="M775 290 c-3 -5 -12 -7 -20 -3 -9 3 -31 -2 -51 -12 -28 -13 -35 -21
-31 -37 4 -14 1 -18 -8 -14 -10 3 -11 -2 -6 -22 5 -15 6 -39 4 -54 -2 -14 1
-29 7 -33 7 -4 6 -13 -1 -27 -10 -18 -9 -20 5 -15 23 9 16 -15 -9 -30 -24 -15
-11 -17 15 -3 12 6 21 7 25 0 3 -5 15 -6 28 -1 12 4 35 5 52 0 37 -9 95 -6
114 5 10 6 12 5 7 -2 -5 -8 -2 -10 9 -6 12 5 13 9 4 21 -10 11 -9 13 2 11 9
-2 15 11 19 45 3 26 2 47 -3 47 -4 0 -5 9 -2 20 4 12 1 27 -5 35 -9 11 -9 15
-1 15 16 0 -30 46 -49 49 -8 1 -27 2 -42 2 -15 0 -30 4 -33 9 -8 13 -22 13
-30 0z m-58 -247 c-4 -3 -7 0 -7 7 0 7 3 10 7 7 3 -4 3 -10 0 -14z"/>
<path d="M10 280 c0 -7 3 -10 7 -7 3 4 3 10 0 14 -4 3 -7 0 -7 -7z"/>
<path d="M300 280 c0 -7 3 -10 7 -7 3 4 3 10 0 14 -4 3 -7 0 -7 -7z"/>
<path d="M335 279 c-4 -6 -5 -12 -2 -15 2 -3 7 2 10 11 7 17 1 20 -8 4z"/>
<path d="M940 280 c0 -7 3 -10 7 -7 3 4 3 10 0 14 -4 3 -7 0 -7 -7z"/>
<path d="M660 275 c0 -3 2 -5 5 -5 3 0 5 2 5 5 0 3 -2 5 -5 5 -3 0 -5 -2 -5
-5z"/>
<path d="M0 255 c0 -3 2 -5 5 -5 3 0 5 2 5 5 0 3 -2 5 -5 5 -3 0 -5 -2 -5 -5z"/>
<path d="M650 255 c0 -3 2 -5 5 -5 3 0 5 2 5 5 0 3 -2 5 -5 5 -3 0 -5 -2 -5
-5z"/>
<path d="M330 240 c0 -7 3 -10 7 -7 3 4 3 10 0 14 -4 3 -7 0 -7 -7z"/>
<path d="M0 225 c0 -3 2 -5 5 -5 3 0 5 2 5 5 0 3 -2 5 -5 5 -3 0 -5 -2 -5 -5z"/>
<path d="M620 170 c0 -7 3 -10 7 -7 3 4 3 10 0 14 -4 3 -7 0 -7 -7z"/>
<path d="M310 125 c0 -3 2 -5 5 -5 3 0 5 2 5 5 0 3 -2 5 -5 5 -3 0 -5 -2 -5
-5z"/>
<path d="M950 125 c0 -3 2 -5 5 -5 3 0 5 2 5 5 0 3 -2 5 -5 5 -3 0 -5 -2 -5
-5z"/>
<path d="M630 100 c0 -7 3 -10 7 -7 3 4 3 10 0 14 -4 3 -7 0 -7 -7z"/>
<path d="M630 65 c0 -3 2 -5 5 -5 3 0 5 2 5 5 0 3 -2 5 -5 5 -3 0 -5 -2 -5 -5z"/>
<path d="M310 45 c0 -3 2 -5 5 -5 3 0 5 2 5 5 0 3 -2 5 -5 5 -3 0 -5 -2 -5 -5z"/>
<path d="M330 45 c0 -3 2 -5 5 -5 3 0 5 2 5 5 0 3 -2 5 -5 5 -3 0 -5 -2 -5 -5z"/>
<path d="M350 45 c0 -3 2 -5 5 -5 3 0 5 2 5 5 0 3 -2 5 -5 5 -3 0 -5 -2 -5 -5z"/>
<path d="M950 45 c0 -3 2 -5 5 -5 3 0 5 2 5 5 0 3 -2 5 -5 5 -3 0 -5 -2 -5 -5z"/>
<path d="M50 21 c0 -6 4 -13 10 -16 6 -3 7 1 4 9 -7 18 -14 21 -14 7z"/>
<path d="M290 19 c0 -5 -6 -7 -12 -3 -8 4 -9 3 -5 -2 10 -11 107 -13 101 -2
-3 5 -10 6 -15 3 -5 -4 -9 -1 -9 6 0 9 -3 9 -14 0 -10 -8 -16 -9 -21 -1 -8 13
-25 13 -25 -1z m20 -4 c0 -3 -2 -5 -5 -5 -3 0 -5 2 -5 5 0 3 2 5 5 5 3 0 5 -2
5 -5z"/>
<path d="M598 23 c6 -2 10 -8 8 -12 -3 -4 6 -7 20 -7 13 0 24 4 24 9 0 5 -7 7
-15 3 -8 -3 -15 -1 -15 4 0 6 -8 10 -17 9 -11 0 -13 -3 -5 -6z"/>
<path d="M690 21 c0 -6 4 -13 10 -16 6 -3 7 1 4 9 -7 18 -14 21 -14 7z"/>
<path d="M930 20 c0 -6 -5 -8 -12 -4 -6 4 -8 3 -5 -4 8 -12 31 -11 35 3 2 5
-1 11 -7 13 -6 2 -11 -1 -11 -8z m20 -5 c0 -3 -2 -5 -5 -5 -3 0 -5 2 -5 5 0 3
2 5 5 5 3 0 5 -2 5 -5z"/>
<path d="M0 10 c0 -7 3 -10 7 -7 3 4 3 10 0 14 -4 3 -7 0 -7 -7z"/>
<path d="M30 10 c0 -7 3 -10 7 -7 3 4 3 10 0 14 -4 3 -7 0 -7 -7z"/>
<path d="M670 10 c0 -7 3 -10 7 -7 3 4 3 10 0 14 -4 3 -7 0 -7 -7z"/>
<path d="M580 5 c0 -3 2 -5 5 -5 3 0 5 2 5 5 0 3 -2 5 -5 5 -3 0 -5 -2 -5 -5z"/>
</g>
<g transform="translate(0.000000,96.000000) scale(0.100000,-0.100000)"
fill="#d1cdb5" stroke="none">
<path d="M4 948 c-4 -7 -3 -8 4 -4 12 7 16 16 8 16 -3 0 -8 -5 -12 -12z"/>
<path d="M30 956 c0 -2 7 -7 16 -10 8 -3 12 -2 9 4 -6 10 -25 14 -25 6z"/>
<path d="M284 943 c1 -7 6 -16 11 -20 4 -4 5 -3 1 4 -3 6 2 16 11 22 16 9 16
10 -3 8 -12 0 -21 -7 -20 -14z"/>
<path d="M333 953 c4 -3 10 -3 14 0 3 4 0 7 -7 7 -7 0 -10 -3 -7 -7z"/>
<path d="M363 953 c4 -3 10 -3 14 0 3 4 0 7 -7 7 -7 0 -10 -3 -7 -7z"/>
<path d="M603 944 c0 -7 6 -10 14 -7 7 3 13 8 13 12 0 4 -6 8 -13 8 -8 0 -14
-6 -14 -13z"/>
<path d="M643 953 c4 -3 10 -3 14 0 3 4 0 7 -7 7 -7 0 -10 -3 -7 -7z"/>
<path d="M677 953 c-4 -3 -7 -11 -7 -17 0 -6 5 -5 12 2 6 6 9 14 7 17 -3 3 -9
2 -12 -2z"/>
<path d="M903 947 c-3 -5 -2 -11 1 -14 3 -4 6 -1 6 6 0 7 5 9 10 6 8 -5 7 -12
-2 -23 -12 -15 -11 -16 4 -3 10 7 15 18 11 24 -4 6 0 8 11 4 9 -4 15 -3 11 2
-7 12 -44 10 -52 -2z"/>
<path d="M30 935 c0 -3 2 -5 5 -5 3 0 5 2 5 5 0 3 -2 5 -5 5 -3 0 -5 -2 -5 -5z"/>
<path d="M82 918 c-44 -16 -53 -24 -49 -39 3 -10 2 -19 -2 -19 -4 0 -8 -13 -8
-30 0 -16 4 -30 9 -30 4 0 8 9 8 20 0 11 4 20 8 20 5 0 14 10 20 23 6 12 11
16 11 9 1 -10 9 -8 29 6 19 14 38 18 68 15 31 -3 41 0 41 11 0 20 -54 40 -61
23 -3 -9 -7 -9 -13 -1 -6 9 -22 6 -61 -8z"/>
<path d="M318 933 c7 -3 16 -2 19 1 4 3 -2 6 -13 5 -11 0 -14 -3 -6 -6z"/>
<path d="M350 935 c0 -3 2 -5 5 -5 3 0 5 2 5 5 0 3 -2 5 -5 5 -3 0 -5 -2 -5
-5z"/>
<path d="M455 930 c-3 -5 0 -10 8 -10 8 0 17 -7 21 -15 3 -9 18 -15 35 -15 31
0 61 -34 61 -70 0 -11 6 -20 14 -20 9 0 12 -7 9 -20 -3 -11 -14 -20 -24 -20
-12 0 -19 -7 -19 -20 0 -15 -7 -20 -25 -20 -13 0 -29 -8 -34 -17 -10 -17 -10
-17 -11 -1 0 11 -5 15 -15 12 -9 -4 -15 0 -15 7 0 9 -3 10 -8 4 -11 -15 -92
-13 -92 3 0 7 5 10 11 6 7 -4 6 2 -2 17 -11 21 -10 22 3 12 21 -18 29 -5 22
35 -7 37 12 86 29 75 6 -4 8 0 4 10 -3 10 -2 17 3 17 6 0 10 7 10 15 0 16 -17
19 -44 9 -9 -3 -13 -11 -9 -18 4 -6 -2 -4 -12 4 -10 8 -16 10 -12 3 4 -6 3
-13 -3 -15 -14 -4 -22 -135 -10 -143 7 -4 7 -13 0 -25 -7 -14 -6 -20 8 -25 15
-6 14 -8 -8 -20 -14 -8 -21 -14 -17 -15 5 0 17 5 27 10 12 6 21 7 25 0 3 -5
15 -6 28 -1 12 4 35 5 52 0 37 -9 95 -6 114 5 10 6 12 5 7 -2 -5 -8 -2 -10 9
-6 12 5 13 9 4 21 -10 11 -9 13 2 11 9 -2 15 11 19 45 3 26 2 47 -3 47 -4 0
-5 9 -2 20 4 12 1 27 -5 35 -9 11 -9 15 -1 15 16 0 -30 46 -49 49 -8 1 -27 2
-42 2 -15 0 -30 4 -33 9 -8 13 -22 13 -30 0z m-85 -115 c0 -3 -2 -5 -5 -5 -3
0 -5 2 -5 5 0 3 2 5 5 5 3 0 5 -2 5 -5z m17 -42 c-4 -3 -7 0 -7 7 0 7 3 10 7
7 3 -4 3 -10 0 -14z m10 -90 c-4 -3 -7 0 -7 7 0 7 3 10 7 7 3 -4 3 -10 0 -14z"/>
<path d="M645 929 c-4 -6 -5 -12 -2 -15 2 -3 7 2 10 11 7 17 1 20 -8 4z"/>
<path d="M764 929 c-3 -6 -19 -9 -35 -7 -15 3 -26 1 -23 -4 5 -7 -18 -13 -39
-9 -4 1 -3 -7 2 -17 6 -11 6 -23 2 -28 -5 -5 -5 -18 -1 -29 5 -11 9 -14 9 -7
1 6 10 12 21 12 13 0 20 7 20 20 0 14 7 20 23 20 13 0 27 4 33 9 5 5 35 4 71
-2 35 -6 65 -8 69 -5 3 3 -2 15 -12 26 -13 16 -22 18 -41 11 -13 -5 -23 -5
-23 0 0 5 -9 7 -20 4 -11 -3 -20 0 -20 6 0 14 -27 14 -36 0z"/>
<path d="M3 923 c4 -3 10 -3 14 0 3 4 0 7 -7 7 -7 0 -10 -3 -7 -7z"/>
<path d="M620 920 c0 -7 3 -10 7 -7 3 4 3 10 0 14 -4 3 -7 0 -7 -7z"/>
<path d="M30 915 c0 -3 2 -5 5 -5 3 0 5 2 5 5 0 3 -2 5 -5 5 -3 0 -5 -2 -5 -5z"/>
<path d="M247 913 c-10 -9 -8 -51 2 -57 16 -10 19 -66 3 -75 -7 -4 -13 -11
-13 -14 4 -33 -1 -47 -18 -47 -10 0 -21 -6 -24 -14 -4 -9 -14 -12 -26 -9 -12
3 -19 9 -16 12 2 4 -2 8 -10 8 -8 0 -11 -5 -8 -11 4 -6 -1 -5 -10 2 -9 8 -20
11 -25 8 -16 -10 -35 22 -28 48 7 28 -6 40 -32 32 -17 -6 -19 -19 -13 -79 1
-5 5 -6 10 -2 6 3 8 -3 6 -15 -2 -11 1 -23 7 -26 7 -4 8 -2 4 5 -6 8 0 10 21
5 15 -4 40 -7 56 -7 15 0 27 -4 27 -10 0 -5 7 -4 15 3 9 7 18 10 22 7 3 -4 14
-2 24 4 11 5 19 6 19 1 0 -14 29 -10 35 6 4 12 8 12 23 1 15 -13 16 -12 4 3
-10 13 -11 26 -3 54 6 21 7 42 2 48 -5 6 -7 21 -5 33 2 12 -1 25 -6 28 -6 3
-10 15 -10 26 0 11 -7 19 -17 19 -15 0 -16 2 -3 10 8 5 10 10 4 10 -6 0 -14
-3 -17 -7z m-177 -138 c0 -3 -2 -5 -5 -5 -3 0 -5 2 -5 5 0 3 2 5 5 5 3 0 5 -2
5 -5z m-15 -15 c3 -5 4 -10 1 -10 -3 0 -8 5 -11 10 -3 6 -4 10 -1 10 3 0 8 -4
11 -10z m215 5 c0 -3 -2 -5 -5 -5 -3 0 -5 2 -5 5 0 3 2 5 5 5 3 0 5 -2 5 -5z"/>
<path d="M333 913 c4 -3 10 -3 14 0 3 4 0 7 -7 7 -7 0 -10 -3 -7 -7z"/>
<path d="M940 915 c0 -3 2 -5 5 -5 3 0 5 2 5 5 0 3 -2 5 -5 5 -3 0 -5 -2 -5
-5z"/>
<path d="M0 905 c0 -3 2 -5 5 -5 3 0 5 2 5 5 0 3 -2 5 -5 5 -3 0 -5 -2 -5 -5z"/>
<path d="M310 905 c0 -3 2 -5 5 -5 3 0 5 2 5 5 0 3 -2 5 -5 5 -3 0 -5 -2 -5
-5z"/>
<path d="M330 895 c0 -3 2 -5 5 -5 3 0 5 2 5 5 0 3 -2 5 -5 5 -3 0 -5 -2 -5
-5z"/>
<path d="M10 885 c0 -3 2 -5 5 -5 3 0 5 2 5 5 0 3 -2 5 -5 5 -3 0 -5 -2 -5 -5z"/>
<path d="M130 885 c0 -3 2 -5 5 -5 3 0 5 2 5 5 0 3 -2 5 -5 5 -3 0 -5 -2 -5
-5z"/>
<path d="M645 880 c3 -5 8 -10 11 -10 3 0 2 5 -1 10 -3 6 -8 10 -11 10 -3 0
-2 -4 1 -10z"/>
<path d="M780 885 c0 -3 2 -5 5 -5 3 0 5 2 5 5 0 3 -2 5 -5 5 -3 0 -5 -2 -5
-5z"/>
<path d="M320 865 c0 -3 2 -5 5 -5 3 0 5 2 5 5 0 3 -2 5 -5 5 -3 0 -5 -2 -5
-5z"/>
<path d="M924 862 c3 -6 -1 -15 -11 -20 -14 -9 -15 -14 -5 -36 9 -21 9 -24 -4
-19 -10 4 -17 -2 -21 -16 -4 -15 -11 -20 -21 -16 -12 4 -13 3 -2 -10 10 -12
10 -15 -1 -15 -7 0 -23 -10 -36 -22 -13 -12 -23 -16 -23 -10 0 6 -17 14 -37
18 -47 9 -64 25 -51 47 12 22 2 37 -22 37 -21 0 -36 -33 -23 -52 4 -7 6 -20 5
-29 -3 -15 11 -26 48 -36 8 -3 39 -5 68 -5 30 1 52 -4 52 -10 0 -7 4 -7 13 1
8 6 17 8 20 4 4 -3 13 -1 20 5 8 7 17 9 20 5 6 -6 11 11 8 29 0 4 7 5 17 1 13
-5 14 -3 5 7 -8 9 -9 20 -2 39 7 17 7 27 0 29 -6 2 -11 8 -11 13 0 6 6 7 13 3
9 -6 9 -4 1 7 -6 8 -10 22 -9 31 2 10 -2 21 -7 25 -7 3 -8 1 -4 -5z m-217 -89
c-4 -3 -7 0 -7 7 0 7 3 10 7 7 3 -4 3 -10 0 -14z m-17 -8 c0 -3 -2 -5 -5 -5
-3 0 -5 2 -5 5 0 3 2 5 5 5 3 0 5 -2 5 -5z m217 -2 c-4 -3 -10 -3 -14 0 -3 4
0 7 7 7 7 0 10 -3 7 -7z m-217 -48 c0 -3 -2 -5 -5 -5 -3 0 -5 2 -5 5 0 3 2 5
5 5 3 0 5 -2 5 -5z"/>
<path d="M0 855 c0 -3 2 -5 5 -5 3 0 5 2 5 5 0 3 -2 5 -5 5 -3 0 -5 -2 -5 -5z"/>
<path d="M640 855 c0 -3 2 -5 5 -5 3 0 5 2 5 5 0 3 -2 5 -5 5 -3 0 -5 -2 -5
-5z"/>
<path d="M245 800 c3 -5 8 -10 11 -10 3 0 2 5 -1 10 -3 6 -8 10 -11 10 -3 0
-2 -4 1 -10z"/>
<path d="M650 805 c0 -3 2 -5 5 -5 3 0 5 2 5 5 0 3 -2 5 -5 5 -3 0 -5 -2 -5
-5z"/>
<path d="M630 765 c0 -3 2 -5 5 -5 3 0 5 2 5 5 0 3 -2 5 -5 5 -3 0 -5 -2 -5
-5z"/>
<path d="M950 755 c0 -3 2 -5 5 -5 3 0 5 2 5 5 0 3 -2 5 -5 5 -3 0 -5 -2 -5
-5z"/>
<path d="M310 745 c0 -3 2 -5 5 -5 3 0 5 2 5 5 0 3 -2 5 -5 5 -3 0 -5 -2 -5
-5z"/>
<path d="M730 735 c0 -3 2 -5 5 -5 3 0 5 2 5 5 0 3 -2 5 -5 5 -3 0 -5 -2 -5
-5z"/>
<path d="M300 715 c0 -3 2 -5 5 -5 3 0 5 2 5 5 0 3 -2 5 -5 5 -3 0 -5 -2 -5
-5z"/>
<path d="M940 695 c0 -3 2 -5 5 -5 3 0 5 2 5 5 0 3 -2 5 -5 5 -3 0 -5 -2 -5
-5z"/>
<path d="M4 678 c-4 -7 -3 -8 4 -4 12 7 16 16 8 16 -3 0 -8 -5 -12 -12z"/>
<path d="M630 685 c0 -3 2 -5 5 -5 3 0 5 2 5 5 0 3 -2 5 -5 5 -3 0 -5 -2 -5
-5z"/>
<path d="M650 685 c0 -3 2 -5 5 -5 3 0 5 2 5 5 0 3 -2 5 -5 5 -3 0 -5 -2 -5
-5z"/>
<path d="M670 685 c0 -3 2 -5 5 -5 3 0 5 2 5 5 0 3 -2 5 -5 5 -3 0 -5 -2 -5
-5z"/>
<path d="M950 675 c0 -3 2 -5 5 -5 3 0 5 2 5 5 0 3 -2 5 -5 5 -3 0 -5 -2 -5
-5z"/>
<path d="M26 650 c4 -14 10 -29 15 -34 4 -5 5 1 2 14 -5 17 -3 21 7 15 9 -5
11 -4 6 4 -4 6 -11 9 -16 6 -4 -3 -11 1 -14 7 -3 7 -3 2 0 -12z"/>
<path d="M70 665 c0 -3 2 -5 5 -5 3 0 5 2 5 5 0 3 -2 5 -5 5 -3 0 -5 -2 -5 -5z"/>
<path d="M278 652 c-8 -10 -8 -13 -1 -9 6 4 14 3 18 -3 3 -6 -4 -11 -17 -11
-16 -1 -18 -3 -6 -6 11 -3 15 -10 11 -21 -6 -14 -5 -15 9 -2 9 8 14 18 11 23
-7 12 12 8 26 -5 11 -11 12 -10 6 1 -5 9 -3 12 6 9 8 -3 13 -11 11 -18 -3 -11
0 -11 12 0 19 15 20 21 4 18 -8 -2 -12 5 -10 17 2 17 1 17 -8 5 -7 -10 -12
-11 -17 -4 -15 20 -41 23 -55 6z m52 -18 c0 -2 -9 0 -20 6 -11 6 -20 13 -20
16 0 2 9 0 20 -6 11 -6 20 -13 20 -16z"/>
<path d="M370 661 c0 -6 4 -13 10 -16 6 -3 7 1 4 9 -7 18 -14 21 -14 7z"/>
<path d="M610 659 c0 -5 -4 -8 -9 -5 -5 4 -8 -2 -6 -11 2 -10 4 -20 4 -22 1
-2 9 3 19 12 18 16 32 14 32 -5 0 -5 -4 -6 -10 -3 -5 3 -10 1 -10 -4 0 -18 19
-12 30 9 6 11 16 20 22 20 7 0 7 -4 -1 -14 -9 -10 -8 -15 2 -19 9 -3 13 2 12
15 -1 19 -21 38 -40 38 -5 0 -4 -4 4 -9 8 -5 9 -11 3 -15 -5 -3 -15 1 -22 9
-14 17 -30 20 -30 4z m20 -3 c0 -2 -8 -10 -17 -17 -16 -13 -17 -12 -4 4 13 16
21 21 21 13z"/>
<path d="M909 655 c14 -17 9 -46 -6 -41 -8 3 -12 2 -9 -3 3 -5 -8 -11 -24 -13
-17 -3 -30 -1 -30 3 0 4 -9 5 -20 2 -11 -3 -20 -1 -20 5 0 6 -9 10 -20 9 -11
-1 -20 -5 -20 -10 0 -5 -6 -7 -12 -4 -7 2 -25 -2 -39 -9 -15 -7 -30 -10 -34
-6 -4 4 -6 -2 -4 -13 2 -11 0 -26 -4 -32 -5 -7 -3 -21 2 -30 6 -10 11 -13 11
-7 0 7 9 14 20 17 11 3 20 12 20 20 0 16 45 31 62 21 7 -4 8 -3 4 5 -6 8 -1
10 16 6 12 -3 46 -9 75 -14 41 -6 50 -5 46 6 -3 7 -9 13 -14 13 -5 0 -9 5 -9
10 0 6 6 10 14 8 8 -2 15 1 14 6 0 5 6 13 14 17 11 7 11 9 -1 9 -8 0 -11 7 -9
18 4 12 -1 18 -13 18 -11 0 -15 -4 -10 -11z m21 -30 c0 -3 -2 -5 -5 -5 -3 0
-5 2 -5 5 0 3 2 5 5 5 3 0 5 -2 5 -5z m0 -20 c0 -3 -2 -5 -5 -5 -3 0 -5 2 -5
5 0 3 2 5 5 5 3 0 5 -2 5 -5z"/>
<path d="M0 646 c0 -8 4 -17 9 -20 5 -4 7 3 4 14 -6 23 -13 26 -13 6z"/>
<path d="M943 643 c4 -3 10 -3 14 0 3 4 0 7 -7 7 -7 0 -10 -3 -7 -7z"/>
<path d="M150 625 c0 -3 2 -5 5 -5 3 0 5 2 5 5 0 3 -2 5 -5 5 -3 0 -5 -2 -5
-5z"/>
<path d="M455 610 c-3 -5 1 -10 9 -10 9 0 16 -7 16 -15 0 -8 3 -14 8 -14 47 8
92 -24 92 -66 0 -15 6 -25 14 -25 9 0 12 -7 9 -20 -3 -11 -14 -20 -24 -20 -12
0 -19 -7 -19 -20 0 -18 -20 -26 -52 -21 -5 0 -8 -3 -8 -8 0 -5 -9 -7 -20 -4
-11 3 -20 10 -20 17 0 7 -3 7 -8 1 -4 -5 -26 -10 -50 -10 -46 0 -56 17 -21 35
16 9 19 17 14 41 -7 33 12 92 26 83 5 -3 6 2 3 10 -3 9 -1 16 5 16 6 0 11 7
11 15 0 35 -89 -4 -91 -40 -1 -11 -3 -42 -5 -69 -4 -38 -2 -47 10 -43 11 5 12
0 3 -23 -10 -25 -8 -31 13 -48 17 -13 31 -17 44 -12 12 4 34 4 51 -1 37 -9 95
-6 114 5 10 6 12 5 7 -2 -5 -8 -2 -10 9 -6 12 5 13 10 4 20 -8 10 -6 12 11 9
17 -3 19 -1 11 9 -6 7 -8 16 -4 19 9 10 10 67 1 67 -14 0 -9 30 5 30 7 0 3 8
-8 16 -14 11 -16 18 -7 21 6 3 12 9 12 14 0 6 -3 8 -7 6 -10 -6 -34 19 -26 26
5 6 -7 7 -69 8 -15 0 -30 4 -33 9 -8 13 -22 13 -30 0z m-68 -157 c-4 -3 -7 0
-7 7 0 7 3 10 7 7 3 -4 3 -10 0 -14z m10 -90 c-4 -3 -7 0 -7 7 0 7 3 10 7 7 3
-4 3 -10 0 -14z"/>
<path d="M10 606 c0 -2 7 -7 16 -10 8 -3 12 -2 9 4 -6 10 -25 14 -25 6z"/>
<path d="M95 600 c-3 -5 -11 -7 -18 -5 -14 5 -49 -19 -46 -31 1 -5 1 -16 0
-24 -1 -13 -2 -13 -11 0 -6 9 -10 10 -10 3 0 -6 4 -14 8 -17 5 -3 7 -24 5 -47
-2 -23 2 -48 8 -55 6 -8 9 -20 6 -28 -11 -28 34 -42 131 -41 50 0 92 -3 92 -8
0 -4 6 -2 14 5 10 9 11 17 4 26 -8 9 -4 12 13 12 18 0 21 2 10 9 -12 8 -13 14
-3 36 8 17 9 32 4 39 -5 6 -8 21 -7 34 1 12 -2 22 -7 22 -5 0 -7 4 -4 8 3 5
-1 20 -9 35 -7 14 -11 28 -8 31 3 2 -3 3 -14 1 -10 -2 -35 -4 -56 -4 -47 -1
-46 -22 1 -32 37 -7 66 -34 59 -54 -3 -7 1 -19 9 -25 22 -19 18 -50 -8 -51
-13 -1 -27 -1 -32 0 -5 1 -6 -5 -2 -14 4 -11 2 -14 -6 -9 -8 5 -9 1 -4 -12 6
-15 5 -17 -5 -6 -15 14 -43 16 -34 2 6 -10 -9 -15 -30 -10 -32 7 -41 5 -55
-12 -14 -18 -15 -14 -17 49 -4 98 4 133 27 133 13 0 20 7 20 19 0 11 6 22 13
24 6 3 2 6 -10 6 -12 1 -24 -3 -28 -9z m155 -5 c0 -3 -2 -5 -5 -5 -3 0 -5 2
-5 5 0 3 2 5 5 5 3 0 5 -2 5 -5z m-180 -140 c0 -3 -2 -5 -5 -5 -3 0 -5 2 -5 5
0 3 2 5 5 5 3 0 5 -2 5 -5z m-20 -10 c0 -3 -2 -5 -5 -5 -3 0 -5 2 -5 5 0 3 2
5 5 5 3 0 5 -2 5 -5z m10 -20 c0 -3 -2 -5 -5 -5 -3 0 -5 2 -5 5 0 3 2 5 5 5 3
0 5 -2 5 -5z m-10 -40 c0 -3 -2 -5 -5 -5 -3 0 -5 2 -5 5 0 3 2 5 5 5 3 0 5 -2
5 -5z m150 0 c0 -3 -2 -5 -5 -5 -3 0 -5 2 -5 5 0 3 2 5 5 5 3 0 5 -2 5 -5z
m-20 -10 c0 -3 -2 -5 -5 -5 -3 0 -5 2 -5 5 0 3 2 5 5 5 3 0 5 -2 5 -5z"/>
<path d="M603 603 c4 -3 10 -3 14 0 3 4 0 7 -7 7 -7 0 -10 -3 -7 -7z"/>
<path d="M655 599 c-4 -6 -5 -12 -2 -15 2 -3 7 2 10 11 7 17 1 20 -8 4z"/>
<path d="M950 605 c0 -3 2 -5 5 -5 3 0 5 2 5 5 0 3 -2 5 -5 5 -3 0 -5 -2 -5
-5z"/>
<path d="M0 580 c0 -7 3 -10 7 -7 3 4 3 10 0 14 -4 3 -7 0 -7 -7z"/>
<path d="M325 579 c-4 -6 -5 -12 -2 -15 2 -3 7 2 10 11 7 17 1 20 -8 4z"/>
<path d="M650 560 c0 -7 3 -10 7 -7 3 4 3 10 0 14 -4 3 -7 0 -7 -7z"/>
<path d="M916 525 c-12 -9 -17 -21 -13 -36 4 -15 -2 -30 -22 -50 -16 -15 -26
-31 -22 -34 3 -4 2 -6 -4 -5 -23 5 -37 -1 -32 -13 3 -8 -1 -14 -9 -14 -8 0
-14 5 -14 11 0 6 -17 12 -37 14 -45 3 -48 6 -48 45 0 23 -5 33 -19 35 -25 5
-35 -14 -29 -57 6 -35 21 -51 53 -59 35 -7 171 -8 176 0 3 5 9 6 14 3 11 -7
25 25 28 68 1 12 6 15 15 11 9 -6 9 -4 -1 8 -7 8 -10 24 -6 34 5 16 4 17 -5 4
-10 -12 -11 -8 -7 18 2 17 4 32 3 32 -1 0 -10 -7 -21 -15z m-209 -72 c-4 -3
-7 0 -7 7 0 7 3 10 7 7 3 -4 3 -10 0 -14z m213 2 c0 -3 -2 -5 -5 -5 -3 0 -5 2
-5 5 0 3 2 5 5 5 3 0 5 -2 5 -5z m-230 -10 c0 -3 -2 -5 -5 -5 -3 0 -5 2 -5 5
0 3 2 5 5 5 3 0 5 -2 5 -5z m10 -20 c0 -3 -2 -5 -5 -5 -3 0 -5 2 -5 5 0 3 2 5
5 5 3 0 5 -2 5 -5z m-10 -30 c0 -3 -2 -5 -5 -5 -3 0 -5 2 -5 5 0 3 2 5 5 5 3
0 5 -2 5 -5z"/>
<path d="M650 485 c0 -3 2 -5 5 -5 3 0 5 2 5 5 0 3 -2 5 -5 5 -3 0 -5 -2 -5
-5z"/>
<path d="M890 475 c0 -3 2 -5 5 -5 3 0 5 2 5 5 0 3 -2 5 -5 5 -3 0 -5 -2 -5
-5z"/>
<path d="M240 455 c0 -3 2 -5 5 -5 3 0 5 2 5 5 0 3 -2 5 -5 5 -3 0 -5 -2 -5
-5z"/>
<path d="M873 453 c4 -3 10 -3 14 0 3 4 0 7 -7 7 -7 0 -10 -3 -7 -7z"/>
<path d="M630 445 c0 -3 2 -5 5 -5 3 0 5 2 5 5 0 3 -2 5 -5 5 -3 0 -5 -2 -5
-5z"/>
<path d="M310 430 c0 -7 3 -10 7 -7 3 4 3 10 0 14 -4 3 -7 0 -7 -7z"/>
<path d="M860 435 c0 -3 2 -5 5 -5 3 0 5 2 5 5 0 3 -2 5 -5 5 -3 0 -5 -2 -5
-5z"/>
<path d="M950 420 c0 -7 3 -10 7 -7 3 4 3 10 0 14 -4 3 -7 0 -7 -7z"/>
<path d="M730 415 c0 -3 2 -5 5 -5 3 0 5 2 5 5 0 3 -2 5 -5 5 -3 0 -5 -2 -5
-5z"/>
<path d="M150 395 c0 -3 2 -5 5 -5 3 0 5 2 5 5 0 3 -2 5 -5 5 -3 0 -5 -2 -5
-5z"/>
<path d="M950 385 c0 -3 2 -5 5 -5 3 0 5 2 5 5 0 3 -2 5 -5 5 -3 0 -5 -2 -5
-5z"/>
<path d="M10 376 c0 -2 8 -10 18 -17 15 -13 16 -12 3 4 -13 16 -21 21 -21 13z"/>
<path d="M310 365 c0 -3 2 -5 5 -5 3 0 5 2 5 5 0 3 -2 5 -5 5 -3 0 -5 -2 -5
-5z"/>
<path d="M340 360 c-8 -5 -10 -10 -5 -10 6 0 17 5 25 10 8 5 11 10 5 10 -5 0
-17 -5 -25 -10z"/>
<path d="M650 365 c0 -3 2 -5 5 -5 3 0 5 2 5 5 0 3 -2 5 -5 5 -3 0 -5 -2 -5
-5z"/>
<path d="M670 365 c0 -3 2 -5 5 -5 3 0 5 2 5 5 0 3 -2 5 -5 5 -3 0 -5 -2 -5
-5z"/>
<path d="M4 325 c0 -13 2 -22 5 -20 2 3 9 1 16 -5 8 -6 11 -2 11 15 0 13 -2
22 -5 20 -2 -3 -9 -1 -16 5 -8 6 -11 2 -11 -15z m21 -5 c3 -5 4 -10 1 -10 -3
0 -8 5 -11 10 -3 6 -4 10 -1 10 3 0 8 -4 11 -10z"/>
<path d="M297 342 c8 -5 9 -13 3 -22 -7 -10 -10 -11 -10 -2 0 6 -5 12 -11 12
-8 0 -9 -4 0 -13 6 -8 8 -17 4 -21 -4 -4 0 -4 10 0 9 3 17 13 17 21 0 8 5 11
11 8 6 -4 8 -14 5 -22 -3 -8 -1 -11 4 -8 6 3 10 10 10 15 0 13 -30 40 -43 40
-9 0 -9 -2 0 -8z"/>
<path d="M370 341 c0 -6 4 -13 10 -16 6 -3 7 1 4 9 -7 18 -14 21 -14 7z"/>
<path d="M610 339 c0 -5 -4 -8 -9 -5 -4 3 -7 -6 -5 -20 2 -19 -1 -24 -12 -20
-8 3 -13 2 -10 -3 3 -5 -8 -11 -24 -13 -17 -3 -30 -1 -30 3 0 4 -9 5 -20 2
-11 -3 -20 -1 -20 5 0 6 -9 10 -20 9 -11 -1 -20 -5 -20 -10 0 -5 -6 -7 -12 -4
-7 2 -25 -2 -39 -9 -15 -7 -30 -10 -34 -6 -4 4 -6 -2 -4 -13 2 -11 0 -26 -4
-32 -5 -7 -3 -21 2 -30 6 -10 11 -12 11 -5 0 6 7 12 16 12 9 0 18 9 21 19 5
21 47 36 65 25 7 -4 8 -3 4 5 -6 8 -1 10 16 6 12 -3 46 -9 75 -14 41 -6 50 -5
46 6 -3 7 -9 13 -14 13 -5 0 -9 5 -9 10 0 6 6 10 14 8 8 -2 15 1 14 6 0 5 6
13 14 17 10 7 10 9 1 9 -7 0 -13 5 -13 11 0 5 5 7 10 4 6 -3 10 1 10 9 0 9 -4
16 -10 16 -5 0 -10 -5 -10 -11z m0 -34 c0 -3 -2 -5 -5 -5 -3 0 -5 2 -5 5 0 3
2 5 5 5 3 0 5 -2 5 -5z m0 -20 c0 -3 -2 -5 -5 -5 -3 0 -5 2 -5 5 0 3 2 5 5 5
3 0 5 -2 5 -5z"/>
<path d="M652 338 c-19 -19 -14 -27 18 -26 17 1 29 5 28 10 -2 5 -7 9 -12 8
-5 -1 -12 3 -15 9 -5 8 -11 7 -19 -1z m15 -15 c-4 -3 -10 -3 -14 0 -3 4 0 7 7
7 7 0 10 -3 7 -7z m23 2 c0 -3 -2 -5 -5 -5 -3 0 -5 2 -5 5 0 3 2 5 5 5 3 0 5
-2 5 -5z"/>
<path d="M915 342 c6 -4 10 -17 9 -29 -2 -26 22 -20 29 8 3 10 1 17 -4 13 -5
-3 -9 0 -9 5 0 6 -8 11 -17 11 -11 0 -14 -3 -8 -8z m22 -29 c-4 -3 -7 0 -7 7
0 7 3 10 7 7 3 -4 3 -10 0 -14z"/>
<path d="M347 328 c7 -8 10 -17 7 -20 -2 -3 2 -8 11 -12 13 -4 14 -2 5 14 -5
10 -16 22 -23 26 -9 6 -9 5 0 -8z"/>
<path d="M900 325 c0 -3 2 -5 5 -5 3 0 5 2 5 5 0 3 -2 5 -5 5 -3 0 -5 -2 -5
-5z"/>
<path d="M50 305 c0 -3 2 -5 5 -5 3 0 5 2 5 5 0 3 -2 5 -5 5 -3 0 -5 -2 -5 -5z"/>
<path d="M135 290 c-3 -5 0 -10 8 -10 8 0 17 -7 21 -15 3 -9 18 -15 35 -15 31
0 61 -34 61 -70 0 -11 6 -20 14 -20 9 0 12 -7 9 -20 -3 -11 -14 -20 -24 -20
-12 0 -19 -7 -19 -20 0 -15 -7 -20 -25 -20 -13 0 -29 -8 -34 -17 -10 -17 -10
-17 -11 -1 0 11 -5 15 -15 12 -9 -4 -15 0 -15 7 0 9 -3 10 -8 4 -11 -15 -92
-13 -92 3 0 7 5 10 11 6 7 -4 6 2 -2 17 -11 21 -10 22 3 12 21 -18 29 -5 22
35 -7 37 12 86 29 75 6 -4 8 0 4 10 -3 10 -2 17 3 17 6 0 10 7 10 15 0 16 -17
19 -44 9 -9 -3 -13 -11 -9 -18 4 -6 -1 -5 -10 3 -10 8 -20 11 -24 7 -3 -3 -1
-6 6 -6 7 0 9 -5 6 -10 -4 -6 -9 -8 -13 -6 -9 5 -9 -130 0 -139 4 -4 3 -16 -2
-25 -7 -14 -5 -20 8 -25 15 -6 14 -8 -8 -20 -14 -8 -21 -14 -17 -15 5 0 17 5
27 10 12 6 21 7 25 0 3 -5 15 -6 28 -1 12 4 35 5 52 0 37 -9 95 -6 114 5 10 6
12 5 7 -2 -5 -8 -2 -10 9 -6 12 5 13 9 4 21 -10 11 -9 13 2 11 9 -2 15 11 19
45 3 26 2 47 -3 47 -4 0 -5 9 -2 20 4 12 1 27 -5 35 -9 11 -9 15 -1 15 16 0
-30 46 -49 49 -8 1 -27 2 -42 2 -15 0 -30 4 -33 9 -8 13 -22 13 -30 0z m-85
-115 c0 -3 -2 -5 -5 -5 -3 0 -5 2 -5 5 0 3 2 5 5 5 3 0 5 -2 5 -5z m17 -42
c-4 -3 -7 0 -7 7 0 7 3 10 7 7 3 -4 3 -10 0 -14z m10 -90 c-4 -3 -7 0 -7 7 0
7 3 10 7 7 3 -4 3 -10 0 -14z"/>
<path d="M635 291 c-3 -5 0 -13 6 -17 7 -4 9 -3 5 4 -3 5 0 13 6 15 9 4 10 6
1 6 -6 1 -14 -3 -18 -8z"/>
<path d="M670 295 c0 -3 2 -5 5 -5 3 0 5 2 5 5 0 3 -2 5 -5 5 -3 0 -5 -2 -5
-5z"/>
<path d="M775 290 c-3 -5 0 -10 8 -10 8 0 17 -7 21 -15 3 -9 18 -15 35 -15 31
0 61 -34 61 -70 0 -11 6 -20 14 -20 9 0 12 -7 9 -20 -3 -11 -14 -20 -24 -20
-12 0 -19 -7 -19 -20 0 -15 -7 -20 -25 -20 -13 0 -29 -8 -34 -17 -10 -17 -10
-17 -11 -1 0 11 -5 15 -15 12 -9 -4 -15 0 -15 7 0 9 -3 10 -8 4 -11 -15 -92
-13 -92 3 0 7 5 10 11 6 7 -4 6 2 -2 17 -11 21 -10 22 3 12 21 -18 29 -5 22
35 -7 37 12 86 29 75 6 -4 8 0 4 10 -3 10 -2 17 3 17 6 0 10 7 10 15 0 19 -19
19 -59 -1 -25 -12 -31 -21 -28 -36 4 -14 1 -18 -8 -14 -10 3 -11 -2 -6 -22 5
-15 6 -39 4 -54 -2 -14 1 -29 7 -33 7 -4 7 -12 0 -25 -7 -14 -6 -20 8 -25 15
-6 14 -8 -8 -20 -14 -8 -21 -14 -17 -15 5 0 17 5 27 10 12 6 21 7 25 0 3 -5
15 -6 28 -1 12 4 35 5 52 0 37 -9 95 -6 114 5 10 6 12 5 7 -2 -5 -8 -2 -10 9
-6 12 5 13 9 4 21 -10 11 -9 13 2 11 9 -2 15 11 19 45 3 26 2 47 -3 47 -4 0
-5 9 -2 20 4 12 1 27 -5 35 -9 11 -9 15 -1 15 16 0 -30 46 -49 49 -8 1 -27 2
-42 2 -15 0 -30 4 -33 9 -8 13 -22 13 -30 0z m-85 -115 c0 -3 -2 -5 -5 -5 -3
0 -5 2 -5 5 0 3 2 5 5 5 3 0 5 -2 5 -5z m17 -42 c-4 -3 -7 0 -7 7 0 7 3 10 7
7 3 -4 3 -10 0 -14z m10 -90 c-4 -3 -7 0 -7 7 0 7 3 10 7 7 3 -4 3 -10 0 -14z"/>
<path d="M10 280 c0 -7 3 -10 7 -7 3 4 3 10 0 14 -4 3 -7 0 -7 -7z"/>
<path d="M300 280 c0 -7 3 -10 7 -7 3 4 3 10 0 14 -4 3 -7 0 -7 -7z"/>
<path d="M335 279 c-4 -6 -5 -12 -2 -15 2 -3 7 2 10 11 7 17 1 20 -8 4z"/>
<path d="M940 280 c0 -7 3 -10 7 -7 3 4 3 10 0 14 -4 3 -7 0 -7 -7z"/>
<path d="M660 275 c0 -3 2 -5 5 -5 3 0 5 2 5 5 0 3 -2 5 -5 5 -3 0 -5 -2 -5
-5z"/>
<path d="M0 255 c0 -3 2 -5 5 -5 3 0 5 2 5 5 0 3 -2 5 -5 5 -3 0 -5 -2 -5 -5z"/>
<path d="M650 255 c0 -3 2 -5 5 -5 3 0 5 2 5 5 0 3 -2 5 -5 5 -3 0 -5 -2 -5
-5z"/>
<path d="M330 240 c0 -7 3 -10 7 -7 3 4 3 10 0 14 -4 3 -7 0 -7 -7z"/>
<path d="M0 225 c0 -3 2 -5 5 -5 3 0 5 2 5 5 0 3 -2 5 -5 5 -3 0 -5 -2 -5 -5z"/>
<path d="M596 205 c-12 -9 -17 -21 -13 -36 4 -15 -2 -30 -22 -50 -16 -15 -26
-31 -22 -34 3 -4 2 -6 -4 -5 -23 5 -37 -1 -32 -13 3 -8 -1 -14 -9 -14 -8 0
-14 5 -14 11 0 6 -17 12 -37 14 -45 3 -48 6 -48 45 0 23 -5 33 -19 35 -25 5
-35 -14 -29 -57 6 -35 21 -51 53 -59 35 -7 171 -8 176 0 3 5 9 6 14 3 11 -7
25 25 28 68 1 12 6 15 15 11 9 -6 9 -4 -1 8 -7 8 -10 24 -6 34 5 16 4 17 -5 4
-10 -12 -11 -8 -7 18 2 17 4 32 3 32 -1 0 -10 -7 -21 -15z m-209 -72 c-4 -3
-7 0 -7 7 0 7 3 10 7 7 3 -4 3 -10 0 -14z m213 2 c0 -3 -2 -5 -5 -5 -3 0 -5 2
-5 5 0 3 2 5 5 5 3 0 5 -2 5 -5z m-230 -10 c0 -3 -2 -5 -5 -5 -3 0 -5 2 -5 5
0 3 2 5 5 5 3 0 5 -2 5 -5z m10 -20 c0 -3 -2 -5 -5 -5 -3 0 -5 2 -5 5 0 3 2 5
5 5 3 0 5 -2 5 -5z m-10 -30 c0 -3 -2 -5 -5 -5 -3 0 -5 2 -5 5 0 3 2 5 5 5 3
0 5 -2 5 -5z"/>
<path d="M330 165 c0 -3 2 -5 5 -5 3 0 5 2 5 5 0 3 -2 5 -5 5 -3 0 -5 -2 -5
-5z"/>
<path d="M570 155 c0 -3 2 -5 5 -5 3 0 5 2 5 5 0 3 -2 5 -5 5 -3 0 -5 -2 -5
-5z"/>
<path d="M553 133 c4 -3 10 -3 14 0 3 4 0 7 -7 7 -7 0 -10 -3 -7 -7z"/>
<path d="M310 125 c0 -3 2 -5 5 -5 3 0 5 2 5 5 0 3 -2 5 -5 5 -3 0 -5 -2 -5
-5z"/>
<path d="M950 125 c0 -3 2 -5 5 -5 3 0 5 2 5 5 0 3 -2 5 -5 5 -3 0 -5 -2 -5
-5z"/>
<path d="M540 115 c0 -3 2 -5 5 -5 3 0 5 2 5 5 0 3 -2 5 -5 5 -3 0 -5 -2 -5
-5z"/>
<path d="M630 100 c0 -7 3 -10 7 -7 3 4 3 10 0 14 -4 3 -7 0 -7 -7z"/>
<path d="M410 95 c0 -3 2 -5 5 -5 3 0 5 2 5 5 0 3 -2 5 -5 5 -3 0 -5 -2 -5 -5z"/>
<path d="M630 65 c0 -3 2 -5 5 -5 3 0 5 2 5 5 0 3 -2 5 -5 5 -3 0 -5 -2 -5 -5z"/>
<path d="M310 45 c0 -3 2 -5 5 -5 3 0 5 2 5 5 0 3 -2 5 -5 5 -3 0 -5 -2 -5 -5z"/>
<path d="M330 45 c0 -3 2 -5 5 -5 3 0 5 2 5 5 0 3 -2 5 -5 5 -3 0 -5 -2 -5 -5z"/>
<path d="M350 45 c0 -3 2 -5 5 -5 3 0 5 2 5 5 0 3 -2 5 -5 5 -3 0 -5 -2 -5 -5z"/>
<path d="M950 45 c0 -3 2 -5 5 -5 3 0 5 2 5 5 0 3 -2 5 -5 5 -3 0 -5 -2 -5 -5z"/>
<path d="M50 21 c0 -6 4 -13 10 -16 6 -3 7 1 4 9 -7 18 -14 21 -14 7z"/>
<path d="M290 19 c0 -5 -6 -7 -12 -3 -8 4 -9 3 -5 -2 10 -11 107 -13 101 -2
-3 5 -10 6 -15 3 -5 -4 -9 -1 -9 6 0 9 -3 9 -14 0 -10 -8 -16 -9 -21 -1 -8 13
-25 13 -25 -1z m20 -4 c0 -3 -2 -5 -5 -5 -3 0 -5 2 -5 5 0 3 2 5 5 5 3 0 5 -2
5 -5z"/>
<path d="M598 23 c6 -2 10 -8 8 -12 -3 -4 6 -7 20 -7 13 0 24 4 24 9 0 5 -7 7
-15 3 -8 -3 -15 -1 -15 4 0 6 -8 10 -17 9 -11 0 -13 -3 -5 -6z"/>
<path d="M690 21 c0 -6 4 -13 10 -16 6 -3 7 1 4 9 -7 18 -14 21 -14 7z"/>
<path d="M930 20 c0 -6 -5 -8 -12 -4 -6 4 -8 3 -5 -4 8 -12 31 -11 35 3 2 5
-1 11 -7 13 -6 2 -11 -1 -11 -8z m20 -5 c0 -3 -2 -5 -5 -5 -3 0 -5 2 -5 5 0 3
2 5 5 5 3 0 5 -2 5 -5z"/>
<path d="M0 10 c0 -7 3 -10 7 -7 3 4 3 10 0 14 -4 3 -7 0 -7 -7z"/>
<path d="M30 10 c0 -7 3 -10 7 -7 3 4 3 10 0 14 -4 3 -7 0 -7 -7z"/>
<path d="M670 10 c0 -7 3 -10 7 -7 3 4 3 10 0 14 -4 3 -7 0 -7 -7z"/>
<path d="M580 5 c0 -3 2 -5 5 -5 3 0 5 2 5 5 0 3 -2 5 -5 5 -3 0 -5 -2 -5 -5z"/>
</g>
<g transform="translate(0.000000,96.000000) scale(0.100000,-0.100000)"
fill="#c2bda4" stroke="none">
<path d="M760 922 c0 -5 -9 -12 -20 -15 -34 -9 -23 -28 14 -25 20 1 32 6 29
12 -4 5 0 7 9 4 9 -4 37 -9 64 -13 45 -6 47 -5 31 9 -11 8 -25 12 -33 9 -8 -3
-14 0 -14 7 0 10 -3 10 -15 0 -11 -9 -15 -9 -15 -1 0 7 -5 9 -10 6 -6 -4 -17
-1 -25 5 -9 7 -15 8 -15 2z"/>
<path d="M91 904 c-27 -11 -41 -32 -41 -57 1 -7 7 -1 15 13 8 14 14 19 15 12
0 -9 6 -9 23 3 13 8 27 12 32 8 4 -5 5 -3 1 4 -4 8 6 10 37 7 32 -4 44 -1 44
8 0 17 -88 18 -126 2z m79 1 c0 -3 -2 -5 -5 -5 -3 0 -5 2 -5 5 0 3 2 5 5 5 3
0 5 -2 5 -5z"/>
<path d="M486 906 c4 -9 17 -16 34 -16 30 0 60 -34 60 -70 0 -11 4 -20 9 -20
14 0 23 18 12 24 -4 3 -8 17 -8 30 0 30 -21 52 -48 51 -11 0 -23 5 -27 10 -5
6 -8 5 -8 -4 0 -11 -3 -11 -15 -1 -13 11 -14 10 -9 -4z"/>
<path d="M394 896 c-14 -15 -27 -47 -28 -68 -1 -9 -4 -20 -8 -24 -13 -12 -9
-39 8 -60 14 -18 14 -18 3 6 -11 22 -10 23 3 13 21 -18 29 -5 22 35 -7 34 12
86 27 76 4 -2 7 4 6 14 -1 21 -17 24 -33 8z m-7 -123 c-4 -3 -7 0 -7 7 0 7 3
10 7 7 3 -4 3 -10 0 -14z"/>
<path d="M240 882 c0 -11 4 -23 9 -26 16 -10 19 -66 3 -75 -7 -4 -13 -11 -13
-14 4 -33 -1 -47 -18 -47 -18 0 -37 -27 -26 -38 3 -3 5 0 5 6 0 6 6 9 13 7 6
-2 22 4 34 14 37 31 43 61 31 148 -1 7 -10 20 -20 30 -17 15 -18 15 -18 -5z
m30 -117 c0 -3 -2 -5 -5 -5 -3 0 -5 2 -5 5 0 3 2 5 5 5 3 0 5 -2 5 -5z m-10
-30 c0 -3 -2 -5 -5 -5 -3 0 -5 2 -5 5 0 3 2 5 5 5 3 0 5 -2 5 -5z"/>
<path d="M692 865 c-10 -22 -9 -25 8 -25 13 0 20 7 20 19 0 30 -16 33 -28 6z"/>
<path d="M900 831 c0 -16 12 -41 19 -41 13 0 9 39 -5 44 -8 3 -14 1 -14 -3z
m20 -16 c0 -3 -2 -5 -5 -5 -3 0 -5 2 -5 5 0 3 2 5 5 5 3 0 5 -2 5 -5z"/>
<path d="M33 792 c0 -10 7 -23 16 -30 9 -8 10 -11 4 -7 -20 10 -15 -7 12 -40
18 -22 25 -25 25 -13 0 9 -5 20 -11 23 -5 4 -9 20 -7 37 2 23 -2 32 -18 38
-16 6 -21 4 -21 -8z m37 -17 c0 -3 -2 -5 -5 -5 -3 0 -5 2 -5 5 0 3 2 5 5 5 3
0 5 -2 5 -5z"/>
<path d="M245 800 c3 -5 8 -10 11 -10 3 0 2 5 -1 10 -3 6 -8 10 -11 10 -3 0
-2 -4 1 -10z"/>
<path d="M650 805 c0 -3 2 -5 5 -5 3 0 5 2 5 5 0 3 -2 5 -5 5 -3 0 -5 -2 -5
-5z"/>
<path d="M670 779 c0 -11 4 -17 10 -14 6 3 7 -1 4 -10 -7 -17 30 -55 53 -55 7
0 13 -4 13 -8 0 -5 7 -9 15 -9 8 0 12 4 9 9 -3 4 -1 8 5 8 5 0 12 -4 16 -9 6
-11 45 -11 45 -1 0 4 7 7 15 8 8 1 21 3 29 4 8 1 15 4 14 7 -2 19 3 31 11 27
5 -3 11 5 13 19 3 15 0 26 -9 30 -19 7 -33 -2 -33 -22 0 -10 -6 -13 -16 -9
-14 5 -15 4 -4 -9 10 -12 10 -15 -1 -15 -7 0 -23 -10 -36 -22 -13 -12 -23 -16
-23 -10 0 6 -17 14 -37 18 -47 9 -64 25 -51 47 12 22 2 37 -23 37 -13 0 -19
-7 -19 -21z m37 -6 c-4 -3 -7 0 -7 7 0 7 3 10 7 7 3 -4 3 -10 0 -14z m200 -10
c-4 -3 -10 -3 -14 0 -3 4 0 7 7 7 7 0 10 -3 7 -7z"/>
<path d="M600 780 c0 -7 3 -10 7 -7 3 4 3 10 0 14 -4 3 -7 0 -7 -7z"/>
<path d="M560 740 c0 -15 -7 -20 -25 -20 -13 0 -29 -8 -34 -17 -10 -17 -10
-17 -11 0 0 11 -5 15 -11 11 -6 -3 -15 0 -20 7 -6 10 -9 10 -9 2 0 -7 -7 -10
-15 -7 -9 4 -15 0 -15 -7 0 -11 -2 -11 -10 1 -8 13 -11 13 -22 1 -8 -9 -9 -11
-1 -7 6 3 14 2 18 -4 4 -6 11 -8 16 -5 5 4 14 3 21 -1 16 -10 78 -12 84 -2 3
4 14 8 25 8 10 0 19 6 19 14 0 8 7 16 15 20 22 8 18 26 -5 26 -13 0 -20 -7
-20 -20z m-100 -45 c0 -3 -2 -5 -5 -5 -3 0 -5 2 -5 5 0 3 2 5 5 5 3 0 5 -2 5
-5z"/>
<path d="M730 735 c0 -3 2 -5 5 -5 3 0 5 2 5 5 0 3 -2 5 -5 5 -3 0 -5 -2 -5
-5z"/>
<path d="M100 711 c0 -3 4 -13 10 -21 8 -12 10 -12 16 4 5 12 9 14 14 6 5 -9
9 -8 12 2 4 9 -3 14 -23 14 -16 1 -29 -1 -29 -5z"/>
<path d="M165 690 c3 -5 8 -10 11 -10 2 0 4 5 4 10 0 6 -5 10 -11 10 -5 0 -7
-4 -4 -10z"/>
<path d="M754 596 c-3 -9 -14 -16 -23 -16 -9 0 -25 -13 -34 -30 -17 -27 -17
-30 -2 -30 9 0 19 9 22 19 5 21 47 36 65 25 7 -5 8 -2 3 6 -6 10 -4 12 7 8 9
-4 37 -9 64 -13 45 -6 47 -5 31 9 -11 8 -25 12 -33 9 -8 -3 -14 0 -14 7 0 10
-3 10 -15 0 -11 -9 -15 -9 -15 -1 0 7 -5 9 -10 6 -6 -4 -17 -1 -25 5 -12 10
-16 9 -21 -4z m16 -11 c0 -3 -2 -5 -5 -5 -3 0 -5 2 -5 5 0 3 2 5 5 5 3 0 5 -2
5 -5z m-60 -40 c0 -3 -2 -5 -5 -5 -3 0 -5 2 -5 5 0 3 2 5 5 5 3 0 5 -2 5 -5z"/>
<path d="M190 590 c0 -6 -4 -8 -10 -5 -5 3 -10 1 -10 -4 0 -6 11 -11 23 -11
30 0 84 -44 68 -55 -14 -8 4 -35 23 -35 6 0 4 5 -4 10 -8 5 -10 10 -4 10 6 0
11 7 11 15 0 8 -4 15 -9 15 -5 0 -7 4 -4 9 3 4 -6 19 -19 31 -14 13 -25 20
-25 16 0 -4 -9 -2 -20 4 -14 8 -20 8 -20 0z"/>
<path d="M76 575 c-10 -8 -15 -19 -10 -26 4 -7 3 -10 -4 -5 -12 7 -20 -12 -26
-64 -4 -38 2 -62 14 -55 4 3 7 -3 6 -12 0 -9 4 -18 11 -20 9 -3 11 9 7 49 -7
75 2 118 26 118 11 0 20 7 20 15 0 19 -19 19 -44 0z m-6 -120 c0 -3 -2 -5 -5
-5 -3 0 -5 2 -5 5 0 3 2 5 5 5 3 0 5 -2 5 -5z m-20 -10 c0 -3 -2 -5 -5 -5 -3
0 -5 2 -5 5 0 3 2 5 5 5 3 0 5 -2 5 -5z"/>
<path d="M394 571 c-4 -9 -6 -20 -5 -24 1 -5 -3 -6 -8 -2 -13 8 -34 -72 -27
-102 6 -20 9 -22 27 -13 16 9 19 17 14 41 -7 30 11 93 24 85 4 -3 7 3 7 13 0
22 -23 23 -32 2z m-7 -118 c-4 -3 -7 0 -7 7 0 7 3 10 7 7 3 -4 3 -10 0 -14z
m-17 -8 c0 -3 -2 -5 -5 -5 -3 0 -5 2 -5 5 0 3 2 5 5 5 3 0 5 -2 5 -5z"/>
<path d="M480 579 c0 -5 3 -8 8 -8 47 8 100 -31 94 -68 -2 -15 2 -23 11 -23 7
0 14 7 14 15 0 8 -4 15 -8 15 -4 0 -6 9 -4 20 5 27 -37 58 -80 58 -19 0 -35
-4 -35 -9z"/>
<path d="M360 565 c0 -3 2 -5 5 -5 3 0 5 2 5 5 0 3 -2 5 -5 5 -3 0 -5 -2 -5
-5z"/>
<path d="M899 497 c-1 -12 -1 -27 0 -34 1 -6 -10 -20 -23 -31 -14 -11 -22 -23
-18 -27 4 -5 2 -6 -3 -2 -17 9 -36 -8 -29 -27 5 -13 9 -14 20 -5 8 7 17 9 20
6 10 -10 46 34 48 58 0 13 4 21 7 19 4 -2 6 10 5 26 -1 35 -25 50 -27 17z m11
-22 c0 -3 -2 -5 -5 -5 -3 0 -5 2 -5 5 0 3 2 5 5 5 3 0 5 -2 5 -5z"/>
<path d="M650 485 c0 -3 2 -5 5 -5 3 0 5 2 5 5 0 3 -2 5 -5 5 -3 0 -5 -2 -5
-5z"/>
<path d="M674 450 c6 -34 39 -70 63 -70 7 0 13 -5 13 -11 0 -8 6 -7 17 2 9 8
14 10 11 4 -3 -5 5 -11 18 -11 13 -1 24 2 24 8 0 5 -4 6 -10 3 -5 -3 -10 0
-10 7 0 8 -15 14 -37 16 -45 3 -48 6 -48 45 0 26 -4 33 -24 35 -22 3 -23 1
-17 -28z m33 3 c-4 -3 -7 0 -7 7 0 7 3 10 7 7 3 -4 3 -10 0 -14z m-17 -8 c0
-3 -2 -5 -5 -5 -3 0 -5 2 -5 5 0 3 2 5 5 5 3 0 5 -2 5 -5z m10 -20 c0 -3 -2
-5 -5 -5 -3 0 -5 2 -5 5 0 3 2 5 5 5 3 0 5 -2 5 -5z"/>
<path d="M280 465 c0 -3 2 -5 5 -5 3 0 5 2 5 5 0 3 -2 5 -5 5 -3 0 -5 -2 -5
-5z"/>
<path d="M600 460 c0 -7 3 -10 7 -7 3 4 3 10 0 14 -4 3 -7 0 -7 -7z"/>
<path d="M240 455 c0 -3 2 -5 5 -5 3 0 5 2 5 5 0 3 -2 5 -5 5 -3 0 -5 -2 -5
-5z"/>
<path d="M873 453 c4 -3 10 -3 14 0 3 4 0 7 -7 7 -7 0 -10 -3 -7 -7z"/>
<path d="M258 440 c-16 -5 -28 -5 -28 -2 0 4 -5 -1 -11 -11 -7 -12 -6 -22 3
-35 12 -17 14 -17 30 -1 9 10 14 20 11 23 -4 3 -2 6 4 6 6 0 13 7 17 15 3 8 4
15 3 14 -1 0 -14 -4 -29 -9z m-28 -25 c0 -3 -2 -5 -5 -5 -3 0 -5 2 -5 5 0 3 2
5 5 5 3 0 5 -2 5 -5z"/>
<path d="M560 420 c0 -23 10 -26 28 -8 18 18 15 28 -8 28 -13 0 -20 -7 -20
-20z"/>
<path d="M860 435 c0 -3 2 -5 5 -5 3 0 5 2 5 5 0 3 -2 5 -5 5 -3 0 -5 -2 -5
-5z"/>
<path d="M730 415 c0 -3 2 -5 5 -5 3 0 5 2 5 5 0 3 -2 5 -5 5 -3 0 -5 -2 -5
-5z"/>
<path d="M175 401 c3 -6 -11 -9 -33 -7 -31 2 -42 -2 -52 -18 -12 -19 -12 -20
3 -7 13 10 17 10 17 1 0 -9 4 -9 13 -2 6 5 21 6 32 2 25 -9 47 -1 38 14 -4 6
1 5 10 -3 19 -15 23 -1 5 17 -14 14 -42 16 -33 3z m-15 -16 c0 -3 -2 -5 -5 -5
-3 0 -5 2 -5 5 0 3 2 5 5 5 3 0 5 -2 5 -5z m20 -10 c0 -3 -2 -5 -5 -5 -3 0 -5
2 -5 5 0 3 2 5 5 5 3 0 5 -2 5 -5z"/>
<path d="M450 404 c0 -7 -12 -10 -30 -8 -16 2 -32 -1 -35 -6 -4 -6 1 -7 11 -3
12 4 15 3 10 -5 -5 -8 -2 -10 9 -6 8 4 21 2 28 -2 23 -17 117 -2 117 17 0 5
-13 8 -30 7 -16 -1 -30 -6 -30 -10 0 -10 -33 3 -42 16 -5 8 -8 8 -8 0z m10
-29 c0 -3 -2 -5 -5 -5 -3 0 -5 2 -5 5 0 3 2 5 5 5 3 0 5 -2 5 -5z"/>
<path d="M570 385 c0 -3 2 -5 5 -5 3 0 5 2 5 5 0 3 -2 5 -5 5 -3 0 -5 -2 -5
-5z"/>
<path d="M434 276 c-3 -9 -14 -16 -23 -16 -9 0 -25 -13 -34 -30 -17 -27 -17
-30 -2 -30 9 0 19 9 22 19 5 21 47 36 65 25 7 -5 8 -2 3 6 -6 10 -4 12 7 8 9
-4 37 -9 64 -13 45 -6 47 -5 31 9 -11 8 -25 12 -33 9 -8 -3 -14 0 -14 7 0 10
-3 10 -15 0 -11 -9 -15 -9 -15 -1 0 7 -5 9 -10 6 -6 -4 -17 -1 -25 5 -12 10
-16 9 -21 -4z m16 -11 c0 -3 -2 -5 -5 -5 -3 0 -5 2 -5 5 0 3 2 5 5 5 3 0 5 -2
5 -5z m-60 -40 c0 -3 -2 -5 -5 -5 -3 0 -5 2 -5 5 0 3 2 5 5 5 3 0 5 -2 5 -5z"/>
<path d="M166 266 c4 -9 17 -16 34 -16 30 0 60 -34 60 -70 0 -11 4 -20 9 -20
14 0 23 18 12 24 -4 3 -8 17 -8 30 0 30 -21 52 -48 51 -11 0 -23 5 -27 10 -5
6 -8 5 -8 -4 0 -11 -3 -11 -15 -1 -13 11 -14 10 -9 -4z"/>
<path d="M806 266 c4 -9 17 -16 34 -16 30 0 60 -34 60 -70 0 -11 4 -20 9 -20
14 0 23 18 12 24 -4 3 -8 17 -8 30 0 30 -21 52 -48 51 -11 0 -23 5 -27 10 -5
6 -8 5 -8 -4 0 -11 -3 -11 -15 -1 -13 11 -14 10 -9 -4z"/>
<path d="M67 247 c-9 -11 -18 -29 -18 -39 -2 -31 -4 -36 -11 -44 -13 -12 -9
-39 8 -60 14 -18 14 -18 3 6 -11 22 -10 23 3 13 21 -18 29 -5 22 35 -7 35 12
86 28 76 13 -8 9 12 -5 24 -9 8 -17 5 -30 -11z m0 -114 c-4 -3 -7 0 -7 7 0 7
3 10 7 7 3 -4 3 -10 0 -14z"/>
<path d="M110 265 c0 -3 2 -5 5 -5 3 0 5 2 5 5 0 3 -2 5 -5 5 -3 0 -5 -2 -5
-5z"/>
<path d="M707 247 c-9 -11 -18 -29 -18 -39 -2 -31 -4 -36 -11 -44 -13 -12 -9
-39 8 -60 14 -18 14 -18 3 6 -11 22 -10 23 3 13 21 -18 29 -5 22 35 -7 35 12
86 28 76 13 -8 9 12 -5 24 -9 8 -17 5 -30 -11z m0 -114 c-4 -3 -7 0 -7 7 0 7
3 10 7 7 3 -4 3 -10 0 -14z"/>
<path d="M750 265 c0 -3 2 -5 5 -5 3 0 5 2 5 5 0 3 -2 5 -5 5 -3 0 -5 -2 -5
-5z"/>
<path d="M579 177 c-1 -12 -1 -27 0 -34 1 -6 -10 -20 -23 -31 -14 -11 -22 -23
-18 -27 4 -5 2 -6 -3 -2 -17 9 -36 -8 -29 -27 5 -13 9 -14 20 -5 8 7 17 9 20
6 10 -10 46 34 48 58 0 13 4 21 7 19 4 -2 6 10 5 26 -1 35 -25 50 -27 17z m11
-22 c0 -3 -2 -5 -5 -5 -3 0 -5 2 -5 5 0 3 2 5 5 5 3 0 5 -2 5 -5z"/>
<path d="M330 165 c0 -3 2 -5 5 -5 3 0 5 2 5 5 0 3 -2 5 -5 5 -3 0 -5 -2 -5
-5z"/>
<path d="M354 130 c6 -34 39 -70 63 -70 7 0 13 -5 13 -11 0 -8 6 -7 17 2 9 8
14 10 11 4 -3 -5 5 -11 18 -11 13 -1 24 2 24 8 0 5 -4 6 -10 3 -5 -3 -10 0
-10 7 0 8 -15 14 -37 16 -45 3 -48 6 -48 45 0 26 -4 33 -24 35 -22 3 -23 1
-17 -28z m33 3 c-4 -3 -7 0 -7 7 0 7 3 10 7 7 3 -4 3 -10 0 -14z m-17 -8 c0
-3 -2 -5 -5 -5 -3 0 -5 2 -5 5 0 3 2 5 5 5 3 0 5 -2 5 -5z m10 -20 c0 -3 -2
-5 -5 -5 -3 0 -5 2 -5 5 0 3 2 5 5 5 3 0 5 -2 5 -5z"/>
<path d="M280 140 c0 -7 3 -10 7 -7 3 4 3 10 0 14 -4 3 -7 0 -7 -7z"/>
<path d="M920 140 c0 -7 3 -10 7 -7 3 4 3 10 0 14 -4 3 -7 0 -7 -7z"/>
<path d="M553 133 c4 -3 10 -3 14 0 3 4 0 7 -7 7 -7 0 -10 -3 -7 -7z"/>
<path d="M240 100 c0 -15 -7 -20 -25 -20 -13 0 -29 -8 -34 -17 -10 -17 -10
-17 -11 0 0 11 -5 15 -11 11 -6 -3 -15 0 -20 7 -6 10 -9 10 -9 2 0 -7 -7 -10
-15 -7 -9 4 -15 0 -15 -7 0 -11 -2 -11 -10 1 -8 13 -11 13 -22 1 -8 -9 -9 -11
-1 -7 6 3 14 2 18 -4 4 -6 11 -8 16 -5 5 4 14 3 21 -1 16 -10 78 -12 84 -2 3
4 14 8 25 8 10 0 19 6 19 14 0 8 7 16 15 20 22 8 18 26 -5 26 -13 0 -20 -7
-20 -20z m-100 -45 c0 -3 -2 -5 -5 -5 -3 0 -5 2 -5 5 0 3 2 5 5 5 3 0 5 -2 5
-5z"/>
<path d="M540 115 c0 -3 2 -5 5 -5 3 0 5 2 5 5 0 3 -2 5 -5 5 -3 0 -5 -2 -5
-5z"/>
<path d="M880 100 c0 -15 -7 -20 -25 -20 -13 0 -29 -8 -34 -17 -10 -17 -10
-17 -11 0 0 11 -5 15 -11 11 -6 -3 -15 0 -20 7 -6 10 -9 10 -9 2 0 -7 -7 -10
-15 -7 -9 4 -15 0 -15 -7 0 -11 -2 -11 -10 1 -8 13 -11 13 -22 1 -8 -9 -9 -11
-1 -7 6 3 14 2 18 -4 4 -6 11 -8 16 -5 5 4 14 3 21 -1 16 -10 78 -12 84 -2 3
4 14 8 25 8 10 0 19 6 19 14 0 8 7 16 15 20 22 8 18 26 -5 26 -13 0 -20 -7
-20 -20z m-100 -45 c0 -3 -2 -5 -5 -5 -3 0 -5 2 -5 5 0 3 2 5 5 5 3 0 5 -2 5
-5z"/>
<path d="M410 95 c0 -3 2 -5 5 -5 3 0 5 2 5 5 0 3 -2 5 -5 5 -3 0 -5 -2 -5 -5z"/>
</g>
  </g>
</svg>
