<?xml version="1.0" encoding="UTF-8" standalone="no"?>
<!-- Created with Inkscape (http://www.inkscape.org/) -->

<svg
   xmlns:dc="http://purl.org/dc/elements/1.1/"
   xmlns:cc="http://creativecommons.org/ns#"
   xmlns:rdf="http://www.w3.org/1999/02/22-rdf-syntax-ns#"
   xmlns:svg="http://www.w3.org/2000/svg"
   xmlns="http://www.w3.org/2000/svg"
   xmlns:sodipodi="http://sodipodi.sourceforge.net/DTD/sodipodi-0.dtd"
   xmlns:inkscape="http://www.inkscape.org/namespaces/inkscape"
   width="16px"
   height="16px"
   viewBox="0 0 16px 16px"
   version="1.1"
   id="svgMain"
   inkscape:version="0.92.2 (5c3e80d, 2017-08-06)"
   sodipodi:docname="reference_SVG.svg">
  <defs
     id="defs4542" />
  <sodipodi:namedview
     id="base"
     pagecolor="#ffffff"
     bordercolor="#666666"
     borderopacity="1.0"
     inkscape:pageopacity="0.0"
     inkscape:pageshadow="2"
     inkscape:zoom="1"
     inkscape:cx="0"
     inkscape:cy="0"
     inkscape:document-units="px"
     inkscape:current-layer="layer1"
     showgrid="false"
     units="px"
     inkscape:window-width="1024"
     inkscape:window-height="768"
     inkscape:window-x="-8"
     inkscape:window-y="-8"
     inkscape:window-maximized="1" />
  <metadata
     id="metadata1">
    <rdf:RDF>
      <cc:Work
         rdf:about="">
        <dc:format>image/svg+xml</dc:format>
        <dc:type
           rdf:resource="http://purl.org/dc/dcmitype/StillImage" />
        <dc:title />
      </cc:Work>
    </rdf:RDF>
  </metadata>
  <g transform="translate(-16,-16) scale(0.5,0.5)"
     inkscape:label="Layer 1"
     inkscape:groupmode="layer"
     id="layer1">
    <!-- INSERT MARKER -->
<g transform="translate(0.000000,96.000000) scale(0.100000,-0.100000)"
fill="#e2decb" stroke="none">
<path d="M0 480 l0 -480 480 0 480 0 0 480 0 480 -480 0 -480 0 0 -480z"/>
</g>
<g transform="translate(0.000000,96.000000) scale(0.100000,-0.100000)"
fill="#dad5bd" stroke="none">
<path d="M0 479 l0 -480 37 3 c36 4 38 6 38 38 -1 24 -6 34 -19 36 -24 3 -27
7 -16 24 7 11 10 12 10 2 0 -7 4 -10 10 -7 5 3 10 13 10 21 0 8 -4 12 -10 9
-6 -3 -7 1 -4 9 3 9 9 14 13 12 3 -2 6 13 6 34 0 22 -4 36 -10 33 -6 -2 -11 7
-12 19 -2 17 0 19 7 8 5 -8 12 -11 15 -8 4 4 -2 12 -13 19 -19 12 -19 14 -4
25 15 11 14 12 -8 7 -25 -5 -25 -5 -5 11 11 10 14 15 8 11 -7 -3 -13 -1 -13 5
0 6 -6 8 -12 4 -10 -6 -10 -4 -1 7 7 7 13 17 13 22 0 4 -6 5 -13 1 -6 -4 -3 3
8 16 18 21 18 23 2 17 -12 -4 -16 -3 -11 4 3 6 17 8 29 5 22 -6 23 -4 18 37
-3 23 -6 48 -6 55 0 6 -4 12 -8 12 -4 0 -10 -6 -13 -12 -2 -7 -4 -3 -2 9 1 12
6 26 11 30 4 5 5 2 1 -4 -4 -7 -3 -13 2 -13 9 0 21 31 22 53 0 4 -9 7 -20 7
-20 0 -22 7 -22 60 0 14 -5 28 -12 32 -8 6 -7 8 2 8 10 0 10 5 1 23 -6 12 -8
19 -4 15 4 -4 14 0 22 10 12 16 13 16 6 -2 -4 -12 -3 -17 4 -13 5 3 10 0 10
-8 0 -8 -5 -15 -10 -15 -6 0 -7 -3 -4 -6 3 -4 2 -15 -3 -25 -7 -12 -7 -20 0
-24 6 -4 9 -3 8 2 -1 4 4 19 11 31 7 13 10 26 7 29 -3 4 -1 11 4 18 11 13 -9
75 -24 75 -5 0 -1 7 10 15 19 14 18 14 -3 15 -16 0 -23 6 -23 20 0 11 6 20 14
20 8 0 18 5 22 12 4 6 3 8 -3 5 -16 -10 -25 23 -12 39 10 12 8 13 -7 7 -19 -7
-19 -6 0 21 10 16 13 26 8 22 -6 -3 -13 -2 -17 4 -3 5 -15 10 -26 10 -19 0
-19 -12 -19 -481z m45 461 c3 -5 4 -10 1 -10 -3 0 -8 5 -11 10 -3 6 -4 10 -1
10 3 0 8 -4 11 -10z m2 -207 c-4 -3 -7 0 -7 7 0 7 3 10 7 7 3 -4 3 -10 0 -14z
m-17 -18 c0 -3 -2 -5 -5 -5 -3 0 -5 2 -5 5 0 3 2 5 5 5 3 0 5 -2 5 -5z m47
-12 c-4 -3 -7 0 -7 7 0 7 3 10 7 7 3 -4 3 -10 0 -14z m-17 -168 c0 -3 -2 -5
-5 -5 -3 0 -5 2 -5 5 0 3 2 5 5 5 3 0 5 -2 5 -5z m-3 -92 c-4 -3 -7 0 -7 7 0
7 3 10 7 7 3 -4 3 -10 0 -14z m3 -28 c0 -3 -2 -5 -5 -5 -3 0 -5 2 -5 5 0 3 2
5 5 5 3 0 5 -2 5 -5z m-10 -260 c0 -3 -2 -5 -5 -5 -3 0 -5 2 -5 5 0 3 2 5 5 5
3 0 5 -2 5 -5z m6 -105 c-7 -8 -11 -22 -8 -30 5 -16 4 -15 -18 13 -7 10 -9 17
-4 16 21 -4 28 2 14 11 -12 7 -10 9 7 7 19 -1 20 -3 9 -17z m14 -15 c0 -3 -2
-5 -5 -5 -3 0 -5 2 -5 5 0 3 2 5 5 5 3 0 5 -2 5 -5z m-40 -20 c0 -3 -2 -5 -5
-5 -3 0 -5 2 -5 5 0 3 2 5 5 5 3 0 5 -2 5 -5z m40 0 c0 -3 -2 -5 -5 -5 -3 0
-5 2 -5 5 0 3 2 5 5 5 3 0 5 -2 5 -5z"/>
<path d="M100 955 c0 -3 2 -5 5 -5 3 0 5 2 5 5 0 3 -2 5 -5 5 -3 0 -5 -2 -5
-5z"/>
<path d="M289 947 c6 -8 7 -17 3 -21 -4 -4 -7 -17 -7 -29 0 -22 -24 -31 -36
-14 -6 8 -4 -71 1 -83 1 -3 2 -9 1 -13 -1 -5 3 -6 8 -3 5 3 11 -1 15 -9 3 -8
1 -17 -4 -20 -4 -3 -10 1 -13 7 -3 7 -4 3 -4 -9 1 -12 7 -25 13 -27 7 -3 18
-15 24 -27 9 -16 9 -20 0 -14 -7 4 -13 -1 -17 -14 -3 -11 -10 -18 -16 -14 -6
3 -7 1 -3 -5 4 -6 14 -8 23 -5 13 5 15 2 11 -15 -3 -11 1 -31 10 -44 15 -22
15 -22 -2 -8 -18 14 -18 13 -13 -10 4 -14 4 -19 1 -12 -3 6 -10 12 -15 12 -6
0 -7 -6 -3 -12 6 -10 4 -10 -6 -1 -12 11 -11 15 6 27 10 8 16 18 11 22 -4 4
-7 2 -7 -4 0 -7 -5 -12 -11 -12 -5 0 -7 4 -4 10 3 6 -1 7 -10 3 -13 -5 -14 -7
-3 -14 10 -7 10 -9 0 -9 -9 0 -10 -5 -4 -17 5 -10 8 -26 7 -36 -3 -14 1 -17
18 -12 19 5 19 4 -3 -9 -25 -15 -25 -15 -2 -16 27 0 30 -29 5 -68 -16 -24 -16
-25 -1 -14 12 10 18 10 24 1 4 -7 3 -9 -3 -6 -15 9 -24 -18 -11 -31 6 -6 6
-12 -3 -17 -8 -5 -10 -4 -5 3 4 7 2 12 -3 12 -14 0 -14 -17 -1 -25 6 -4 7 -11
4 -17 -4 -7 -2 -8 5 -4 6 4 9 12 6 17 -4 5 -1 9 5 9 7 0 9 -7 6 -16 -4 -9 -1
-24 6 -32 10 -12 10 -14 1 -8 -7 4 -13 2 -13 -3 0 -19 -2 -25 -12 -46 -9 -19
-9 -19 6 -1 9 10 13 23 9 29 -3 6 -1 7 6 3 8 -5 7 -15 -6 -37 -14 -24 -19 -26
-26 -13 -5 8 -6 22 -3 29 3 8 1 17 -3 20 -5 2 -8 -17 -6 -43 3 -62 2 -60 25
-67 15 -5 17 -11 10 -30 -5 -12 -6 -26 -2 -31 4 -4 2 -4 -5 0 -6 3 -14 2 -18
-4 -3 -5 1 -10 9 -10 8 0 17 -4 20 -9 4 -5 -4 -7 -16 -4 -22 4 -22 3 2 -11
l25 -15 -25 -1 c-19 0 -21 -3 -11 -9 8 -5 19 -8 25 -7 6 2 8 1 3 -1 -4 -3 -4
-10 0 -16 4 -7 1 -7 -9 1 -10 8 -19 9 -22 3 -9 -14 2 -18 60 -20 72 -3 85 18
75 117 0 7 -6 10 -11 7 -6 -4 -10 -3 -9 2 1 4 0 10 -1 13 -1 3 -4 17 -6 33 -4
22 -1 27 17 27 19 0 20 2 8 17 -10 11 -10 14 -1 9 6 -4 12 -2 12 3 0 10 -13
15 -31 13 -9 -1 -5 41 5 57 7 10 6 12 -4 6 -10 -6 -12 -4 -7 7 3 9 -1 25 -9
37 -9 12 -12 21 -7 20 20 -3 27 2 13 11 -9 6 -10 10 -3 10 16 0 26 -17 13 -25
-7 -4 -7 -13 0 -26 15 -27 27 -16 25 22 -1 23 -7 33 -19 35 -24 3 -26 7 -16
24 7 11 10 12 10 2 0 -7 5 -10 10 -7 6 3 10 13 10 21 0 8 -4 12 -10 9 -6 -3
-7 1 -4 9 3 9 9 14 13 11 14 -8 6 40 -9 53 -13 11 -13 11 0 7 11 -4 16 1 16
14 0 16 -3 18 -15 8 -12 -10 -13 -9 -7 1 4 7 2 20 -6 29 -11 14 -11 16 2 8 9
-5 7 1 -5 15 -17 20 -17 22 -3 17 10 -3 20 -2 23 4 4 5 3 8 -2 7 -4 -2 -9 2
-11 7 -2 6 -10 20 -18 33 -8 12 -11 22 -7 21 20 -3 27 2 13 11 -9 6 -10 10 -3
10 16 0 26 -17 13 -25 -7 -4 -7 -13 0 -26 15 -27 27 -16 25 22 -1 23 -7 33
-19 35 -24 3 -26 7 -16 24 7 11 10 12 10 2 0 -7 5 -10 10 -7 6 3 10 13 10 21
0 8 -4 12 -10 9 -6 -3 -7 1 -4 9 3 9 10 14 15 11 9 -6 4 29 -8 48 -11 18 -12
36 -3 42 5 3 7 -4 5 -15 -2 -11 0 -20 6 -20 5 0 7 10 5 23 -2 12 -8 21 -14 20
-13 -3 -24 25 -12 32 17 11 -30 45 -61 45 -25 0 -29 -3 -20 -13z m51 -12 c0
-3 -2 -5 -5 -5 -3 0 -5 2 -5 5 0 3 2 5 5 5 3 0 5 -2 5 -5z m-40 -70 c0 -3 -2
-5 -5 -5 -3 0 -5 2 -5 5 0 3 2 5 5 5 3 0 5 -2 5 -5z m-30 -10 c0 -3 -2 -5 -5
-5 -3 0 -5 2 -5 5 0 3 2 5 5 5 3 0 5 -2 5 -5z m20 -9 c0 -3 -5 -8 -12 -12 -7
-4 -8 -3 -4 4 7 12 16 16 16 8z m-20 -37 c0 -6 -4 -7 -10 -4 -5 3 -10 11 -10
16 0 6 5 7 10 4 6 -3 10 -11 10 -16z m100 -14 c0 -3 -2 -5 -5 -5 -3 0 -5 2 -5
5 0 3 2 5 5 5 3 0 5 -2 5 -5z m-83 -62 c-4 -3 -10 -3 -14 0 -3 4 0 7 7 7 7 0
10 -3 7 -7z m103 -28 c0 -3 -2 -5 -5 -5 -3 0 -5 2 -5 5 0 3 2 5 5 5 3 0 5 -2
5 -5z m0 -30 c0 -3 -2 -5 -5 -5 -3 0 -5 2 -5 5 0 3 2 5 5 5 3 0 5 -2 5 -5z
m-100 -10 c0 -3 -2 -5 -5 -5 -3 0 -5 2 -5 5 0 3 2 5 5 5 3 0 5 -2 5 -5z m60
-10 c0 -3 -2 -5 -5 -5 -3 0 -5 2 -5 5 0 3 2 5 5 5 3 0 5 -2 5 -5z m40 0 c0 -3
-2 -5 -5 -5 -3 0 -5 2 -5 5 0 3 2 5 5 5 3 0 5 -2 5 -5z m-43 -22 c-4 -3 -10
-3 -14 0 -3 4 0 7 7 7 7 0 10 -3 7 -7z m-77 -98 c0 -3 -2 -5 -5 -5 -3 0 -5 2
-5 5 0 3 2 5 5 5 3 0 5 -2 5 -5z m100 -60 c0 -3 -2 -5 -5 -5 -3 0 -5 2 -5 5 0
3 2 5 5 5 3 0 5 -2 5 -5z m-60 -80 c0 -3 -2 -5 -5 -5 -3 0 -5 2 -5 5 0 3 2 5
5 5 3 0 5 -2 5 -5z m-15 -15 c3 -6 -1 -7 -9 -4 -18 7 -21 14 -7 14 6 0 13 -4
16 -10z m95 5 c0 -3 -2 -5 -5 -5 -3 0 -5 2 -5 5 0 3 2 5 5 5 3 0 5 -2 5 -5z
m0 -30 c0 -3 -2 -5 -5 -5 -3 0 -5 2 -5 5 0 3 2 5 5 5 3 0 5 -2 5 -5z m-40 -20
c0 -3 -2 -5 -5 -5 -3 0 -5 2 -5 5 0 3 2 5 5 5 3 0 5 -2 5 -5z m40 0 c0 -3 -2
-5 -5 -5 -3 0 -5 2 -5 5 0 3 2 5 5 5 3 0 5 -2 5 -5z m-80 -10 c0 -3 -2 -5 -5
-5 -3 0 -5 2 -5 5 0 3 2 5 5 5 3 0 5 -2 5 -5z m-20 -120 c0 -3 -2 -5 -5 -5 -3
0 -5 2 -5 5 0 3 2 5 5 5 3 0 5 -2 5 -5z m-15 -15 c3 -6 -1 -7 -9 -4 -18 7 -21
14 -7 14 6 0 13 -4 16 -10z m95 -85 c0 -3 -2 -5 -5 -5 -3 0 -5 2 -5 5 0 3 2 5
5 5 3 0 5 -2 5 -5z m17 -52 c0 -6 -4 -10 -9 -7 -5 4 -8 -2 -6 -11 2 -10 -4
-20 -12 -22 -13 -4 -13 -3 0 6 13 9 12 11 -5 12 -11 0 -14 3 -7 6 6 2 9 10 6
15 -5 7 -2 8 6 3 9 -6 10 -2 5 15 -6 20 -5 21 7 9 8 -7 15 -19 15 -26z m-37
22 c0 -3 -2 -5 -5 -5 -3 0 -5 2 -5 5 0 3 2 5 5 5 3 0 5 -2 5 -5z m-40 -20 c0
-3 -2 -5 -5 -5 -3 0 -5 2 -5 5 0 3 2 5 5 5 3 0 5 -2 5 -5z m-40 -40 c0 -3 -2
-5 -5 -5 -3 0 -5 2 -5 5 0 3 2 5 5 5 3 0 5 -2 5 -5z"/>
<path d="M363 953 c4 -3 10 -3 14 0 3 4 0 7 -7 7 -7 0 -10 -3 -7 -7z"/>
<path d="M611 943 c10 -11 10 -14 2 -9 -7 4 -13 2 -13 -3 0 -19 -2 -25 -12
-46 -9 -19 -9 -19 6 -1 9 10 13 23 9 29 -3 6 -1 7 6 3 8 -5 7 -15 -6 -37 -14
-24 -19 -26 -26 -13 -5 8 -6 22 -3 29 3 8 1 17 -3 20 -5 2 -8 -17 -6 -43 3
-62 2 -60 25 -67 15 -5 17 -11 10 -30 -5 -12 -6 -26 -2 -31 4 -4 2 -4 -5 0 -6
3 -14 2 -18 -4 -3 -5 1 -10 9 -10 8 0 17 -4 20 -9 4 -5 -4 -7 -16 -4 -22 4
-22 3 2 -11 l25 -15 -25 -1 c-19 0 -21 -3 -11 -9 8 -5 21 -7 30 -4 10 3 12 1
6 -4 -16 -13 -17 -34 -3 -51 10 -12 10 -14 1 -8 -7 4 -13 2 -13 -3 0 -19 -2
-25 -12 -46 -9 -19 -9 -19 6 -1 9 10 13 23 9 29 -3 6 -1 7 6 3 8 -5 7 -15 -6
-37 -14 -24 -19 -26 -26 -13 -5 8 -6 22 -3 29 3 8 1 17 -3 20 -5 2 -8 -17 -6
-43 3 -62 2 -60 25 -67 15 -5 17 -11 10 -30 -5 -12 -6 -26 -2 -31 4 -4 2 -4
-5 0 -6 3 -14 2 -18 -4 -3 -5 1 -10 9 -10 8 0 17 -4 20 -9 4 -5 -4 -7 -16 -4
-22 4 -22 3 2 -11 l25 -15 -25 -1 c-19 0 -21 -3 -11 -9 8 -5 21 -7 30 -4 12 4
13 3 3 -5 -8 -5 -13 -12 -13 -16 4 -25 0 -36 -11 -30 -7 4 -8 3 -4 -5 6 -9 11
-9 22 0 8 7 14 7 14 1 0 -5 -8 -13 -17 -17 -17 -7 -16 -8 2 -15 17 -7 17 -9 3
-9 -10 -1 -24 11 -33 27 -15 26 -15 26 -9 2 4 -14 11 -27 15 -28 5 -2 7 -8 4
-13 -4 -5 1 -6 9 -3 18 7 22 -11 5 -21 -5 -4 -8 -12 -6 -18 2 -7 -3 -21 -12
-31 -9 -11 -10 -16 -3 -12 13 8 17 -6 5 -18 -13 -13 -10 -47 3 -42 7 3 16 0
20 -6 4 -6 3 -8 -2 -5 -6 3 -15 -3 -21 -13 -11 -16 -9 -18 12 -15 14 1 25 -2
25 -6 0 -5 -9 -9 -19 -9 -27 0 -32 -12 -14 -35 12 -16 14 -16 10 -3 -3 10 -2
20 4 23 5 4 9 3 8 -2 -4 -26 4 -31 53 -29 l53 1 0 34 c-1 25 -6 35 -19 37 -24
3 -27 7 -16 24 7 11 10 12 10 2 0 -7 5 -10 10 -7 6 3 10 13 10 21 0 8 -4 12
-10 9 -6 -3 -7 1 -4 9 3 9 9 14 13 12 3 -2 6 18 6 44 0 38 -3 46 -13 38 -9 -8
-11 -7 -7 5 4 8 1 18 -5 22 -8 5 -6 14 5 31 8 13 12 24 8 23 -21 -4 -23 3 -6
25 17 21 20 45 14 104 0 7 -6 10 -11 7 -6 -4 -10 -3 -9 2 1 4 0 10 -1 13 -1 3
-4 17 -6 33 -4 22 -1 27 17 27 19 0 20 2 8 17 -10 11 -10 14 -1 9 6 -4 12 -2
12 3 0 10 -13 15 -31 13 -9 -1 -5 41 5 57 6 10 5 12 -2 7 -18 -11 -14 3 6 29
16 20 19 45 13 103 0 7 -6 10 -11 7 -6 -4 -10 -3 -9 2 1 4 0 10 -1 13 -1 3 -4
17 -6 33 -4 22 -1 27 17 27 19 0 20 2 8 17 -10 11 -10 14 -1 9 6 -4 12 -2 12
3 0 10 -13 15 -31 13 -9 -1 -5 41 5 57 6 10 5 12 -2 7 -7 -4 -12 -2 -12 3 0 6
-19 11 -41 11 -38 0 -40 -2 -28 -17z m-1 -98 c0 -3 -2 -5 -5 -5 -3 0 -5 2 -5
5 0 3 2 5 5 5 3 0 5 -2 5 -5z m-15 -15 c3 -6 -1 -7 -9 -4 -18 7 -21 14 -7 14
6 0 13 -4 16 -10z m95 -85 c0 -3 -2 -5 -5 -5 -3 0 -5 2 -5 5 0 3 2 5 5 5 3 0
5 -2 5 -5z m17 -52 c0 -6 -4 -10 -9 -7 -5 4 -8 -2 -6 -11 2 -10 -4 -20 -12
-22 -13 -4 -13 -3 0 6 13 9 12 11 -5 12 -11 0 -14 3 -7 6 6 2 9 10 6 15 -5 7
-2 8 6 3 9 -6 10 -2 5 15 -6 20 -5 21 7 9 8 -7 15 -19 15 -26z m-37 22 c0 -3
-2 -5 -5 -5 -3 0 -5 2 -5 5 0 3 2 5 5 5 3 0 5 -2 5 -5z m-40 -20 c0 -3 -2 -5
-5 -5 -3 0 -5 2 -5 5 0 3 2 5 5 5 3 0 5 -2 5 -5z m-20 -170 c0 -3 -2 -5 -5 -5
-3 0 -5 2 -5 5 0 3 2 5 5 5 3 0 5 -2 5 -5z m-15 -15 c3 -6 -1 -7 -9 -4 -18 7
-21 14 -7 14 6 0 13 -4 16 -10z m95 -85 c0 -3 -2 -5 -5 -5 -3 0 -5 2 -5 5 0 3
2 5 5 5 3 0 5 -2 5 -5z m17 -52 c0 -6 -4 -10 -9 -7 -5 4 -8 -2 -6 -11 2 -10
-4 -20 -12 -22 -13 -4 -13 -3 0 6 13 9 12 11 -5 12 -11 0 -14 3 -7 6 6 2 9 10
6 15 -5 7 -2 8 6 3 9 -6 10 -2 5 15 -6 20 -5 21 7 9 8 -7 15 -19 15 -26z m-37
22 c0 -3 -2 -5 -5 -5 -3 0 -5 2 -5 5 0 3 2 5 5 5 3 0 5 -2 5 -5z m-40 -20 c0
-3 -2 -5 -5 -5 -3 0 -5 2 -5 5 0 3 2 5 5 5 3 0 5 -2 5 -5z m40 -60 c0 -3 -2
-5 -5 -5 -3 0 -5 2 -5 5 0 3 2 5 5 5 3 0 5 -2 5 -5z m17 -22 c-4 -3 -10 -3
-14 0 -3 4 0 7 7 7 7 0 10 -3 7 -7z m23 -88 c0 -3 -2 -5 -5 -5 -3 0 -5 2 -5 5
0 3 2 5 5 5 3 0 5 -2 5 -5z m0 -20 c0 -3 -2 -5 -5 -5 -3 0 -5 2 -5 5 0 3 2 5
5 5 3 0 5 -2 5 -5z m-20 -30 c0 -3 -2 -5 -5 -5 -3 0 -5 2 -5 5 0 3 2 5 5 5 3
0 5 -2 5 -5z m-95 -25 c3 -5 4 -10 1 -10 -3 0 -8 5 -11 10 -3 6 -4 10 -1 10 3
0 8 -4 11 -10z m101 -80 c-7 -8 -11 -22 -8 -30 5 -16 4 -15 -18 13 -7 10 -9
17 -4 16 21 -4 28 2 14 11 -12 7 -10 9 7 7 19 -1 20 -3 9 -17z m-106 -15 c0
-3 -2 -5 -5 -5 -3 0 -5 2 -5 5 0 3 2 5 5 5 3 0 5 -2 5 -5z m120 0 c0 -3 -2 -5
-5 -5 -3 0 -5 2 -5 5 0 3 2 5 5 5 3 0 5 -2 5 -5z m-40 -20 c0 -3 -2 -5 -5 -5
-3 0 -5 2 -5 5 0 3 2 5 5 5 3 0 5 -2 5 -5z m40 0 c0 -3 -2 -5 -5 -5 -3 0 -5 2
-5 5 0 3 2 5 5 5 3 0 5 -2 5 -5z"/>
<path d="M920 949 c0 -5 -5 -7 -12 -3 -7 4 -8 3 -4 -5 6 -9 11 -9 22 0 8 7 14
7 14 1 0 -5 -8 -13 -17 -17 -17 -7 -16 -8 2 -15 17 -7 17 -9 3 -9 -10 -1 -24
11 -33 27 -15 26 -15 26 -9 2 4 -14 11 -27 15 -28 5 -2 7 -8 4 -13 -4 -5 1 -6
9 -3 18 7 22 -11 5 -21 -5 -4 -8 -12 -6 -18 2 -7 -3 -21 -12 -31 -9 -11 -10
-16 -3 -12 6 4 12 3 12 -1 0 -5 -6 -15 -12 -22 -11 -11 -10 -13 5 -8 21 8 22
3 1 -17 -8 -9 -11 -16 -5 -16 6 0 11 -7 11 -15 0 -8 5 -15 12 -15 6 0 8 -3 5
-7 -4 -3 -1 -13 6 -21 6 -9 7 -13 2 -10 -6 4 -17 3 -25 -3 -12 -7 -12 -9 4 -9
12 0 16 -5 12 -16 -3 -9 -6 -18 -6 -20 0 -3 -5 -2 -12 2 -7 4 -8 3 -4 -5 6 -9
11 -9 22 0 8 7 14 7 14 1 0 -5 -8 -13 -17 -17 -17 -7 -16 -8 2 -15 17 -7 17
-9 3 -9 -10 -1 -24 11 -33 27 -15 26 -15 26 -9 2 4 -14 11 -27 15 -28 5 -2 7
-8 4 -13 -4 -5 1 -6 9 -3 18 7 22 -11 5 -21 -5 -4 -8 -12 -6 -18 2 -7 -3 -21
-12 -31 -9 -11 -10 -16 -3 -12 13 8 17 -6 5 -18 -13 -13 -10 -47 3 -42 7 3 16
0 20 -6 4 -6 3 -8 -2 -5 -6 3 -15 -3 -21 -13 -11 -16 -9 -18 12 -15 14 1 25
-2 25 -6 0 -5 -8 -9 -18 -9 -32 0 -33 -12 -5 -48 15 -20 21 -32 15 -28 -7 4
-12 2 -12 -3 0 -19 -2 -25 -12 -46 -9 -19 -9 -19 6 -1 9 10 13 23 9 29 -3 6
-1 7 6 3 8 -5 7 -15 -6 -37 -14 -24 -19 -26 -26 -13 -5 8 -6 22 -3 29 3 8 1
17 -3 20 -5 2 -8 -17 -6 -43 3 -62 2 -60 25 -67 15 -5 17 -11 10 -30 -5 -12
-6 -26 -2 -31 4 -4 2 -4 -5 0 -6 3 -14 2 -18 -4 -3 -5 1 -10 9 -10 8 0 17 -4
20 -9 4 -5 -4 -7 -16 -4 -22 4 -22 3 2 -11 l25 -15 -25 -1 c-19 0 -21 -3 -11
-9 8 -5 19 -8 25 -7 6 2 8 1 3 -1 -4 -3 -4 -10 0 -16 4 -7 1 -7 -9 1 -11 9
-18 10 -23 2 -3 -5 -5 -10 -3 -11 2 0 18 -3 36 -5 l32 -5 0 480 c0 474 0 481
-20 481 -11 0 -20 -5 -20 -11z m10 -154 c0 -3 -2 -5 -5 -5 -3 0 -5 2 -5 5 0 3
2 5 5 5 3 0 5 -2 5 -5z m20 -80 c0 -3 -2 -5 -5 -5 -3 0 -5 2 -5 5 0 3 2 5 5 5
3 0 5 -2 5 -5z m-35 -265 c3 -5 4 -10 1 -10 -3 0 -8 5 -11 10 -3 6 -4 10 -1
10 3 0 8 -4 11 -10z m12 -113 c1 -11 1 -18 0 -16 -2 2 -8 11 -15 20 -9 12 -9
16 1 16 7 0 14 -9 14 -20z m23 -12 c0 -3 -2 -5 -5 -5 -3 0 -5 2 -5 5 0 3 2 5
5 5 3 0 5 -2 5 -5z m-20 -120 c0 -3 -2 -5 -5 -5 -3 0 -5 2 -5 5 0 3 2 5 5 5 3
0 5 -2 5 -5z m-15 -15 c3 -6 -1 -7 -9 -4 -18 7 -21 14 -7 14 6 0 13 -4 16 -10z
m35 -135 c0 -3 -2 -5 -5 -5 -3 0 -5 2 -5 5 0 3 2 5 5 5 3 0 5 -2 5 -5z m-40
-40 c0 -3 -2 -5 -5 -5 -3 0 -5 2 -5 5 0 3 2 5 5 5 3 0 5 -2 5 -5z"/>
<path d="M710 945 c0 -3 2 -5 5 -5 3 0 5 2 5 5 0 3 -2 5 -5 5 -3 0 -5 -2 -5
-5z"/>
<path d="M740 945 c0 -3 2 -5 5 -5 3 0 5 2 5 5 0 3 -2 5 -5 5 -3 0 -5 -2 -5
-5z"/>
<path d="M280 935 c0 -3 2 -5 5 -5 3 0 5 2 5 5 0 3 -2 5 -5 5 -3 0 -5 -2 -5
-5z"/>
<path d="M750 925 c0 -3 2 -5 5 -5 3 0 5 2 5 5 0 3 -2 5 -5 5 -3 0 -5 -2 -5
-5z"/>
<path d="M240 905 c0 -3 2 -5 5 -5 3 0 5 2 5 5 0 3 -2 5 -5 5 -3 0 -5 -2 -5
-5z"/>
<path d="M260 901 c0 -6 4 -13 10 -16 6 -3 7 1 4 9 -7 18 -14 21 -14 7z"/>
<path d="M380 905 c0 -3 2 -5 5 -5 3 0 5 2 5 5 0 3 -2 5 -5 5 -3 0 -5 -2 -5
-5z"/>
<path d="M700 905 c0 -3 2 -5 5 -5 3 0 5 2 5 5 0 3 -2 5 -5 5 -3 0 -5 -2 -5
-5z"/>
<path d="M880 885 c0 -3 2 -5 5 -5 3 0 5 2 5 5 0 3 -2 5 -5 5 -3 0 -5 -2 -5
-5z"/>
<path d="M63 873 c4 -3 10 -3 14 0 3 4 0 7 -7 7 -7 0 -10 -3 -7 -7z"/>
<path d="M883 841 c1 -11 6 -17 14 -14 10 4 11 9 2 19 -15 19 -18 18 -16 -5z"/>
<path d="M70 825 c0 -3 2 -5 5 -5 3 0 5 2 5 5 0 3 -2 5 -5 5 -3 0 -5 -2 -5 -5z"/>
<path d="M690 796 c0 -2 7 -7 16 -10 8 -3 12 -2 9 4 -6 10 -25 14 -25 6z"/>
<path d="M889 717 c11 -14 11 -20 0 -34 -12 -16 -12 -17 2 -6 9 7 19 9 24 5 4
-4 3 3 -4 15 -6 12 -17 25 -24 29 -8 5 -7 2 2 -9z"/>
<path d="M530 705 c0 -3 2 -5 5 -5 3 0 5 2 5 5 0 3 -2 5 -5 5 -3 0 -5 -2 -5
-5z"/>
<path d="M40 680 c0 -7 3 -10 7 -7 3 4 3 10 0 14 -4 3 -7 0 -7 -7z"/>
<path d="M576 661 c-4 -5 -2 -12 3 -15 5 -4 12 -2 15 3 4 5 2 12 -3 15 -5 4
-12 2 -15 -3z m14 -6 c0 -3 -2 -5 -5 -5 -3 0 -5 2 -5 5 0 3 2 5 5 5 3 0 5 -2
5 -5z"/>
<path d="M40 655 c0 -3 2 -5 5 -5 3 0 5 2 5 5 0 3 -2 5 -5 5 -3 0 -5 -2 -5 -5z"/>
<path d="M880 655 c0 -3 2 -5 5 -5 3 0 5 2 5 5 0 3 -2 5 -5 5 -3 0 -5 -2 -5
-5z"/>
<path d="M80 645 c0 -3 2 -5 5 -5 3 0 5 2 5 5 0 3 -2 5 -5 5 -3 0 -5 -2 -5 -5z"/>
<path d="M903 643 c4 -3 10 -3 14 0 3 4 0 7 -7 7 -7 0 -10 -3 -7 -7z"/>
<path d="M240 625 c0 -3 2 -5 5 -5 3 0 5 2 5 5 0 3 -2 5 -5 5 -3 0 -5 -2 -5
-5z"/>
<path d="M263 623 c4 -3 10 -3 14 0 3 4 0 7 -7 7 -7 0 -10 -3 -7 -7z"/>
<path d="M710 625 c0 -3 2 -5 5 -5 3 0 5 2 5 5 0 3 -2 5 -5 5 -3 0 -5 -2 -5
-5z"/>
<path d="M740 625 c0 -3 2 -5 5 -5 3 0 5 2 5 5 0 3 -2 5 -5 5 -3 0 -5 -2 -5
-5z"/>
<path d="M750 605 c0 -3 2 -5 5 -5 3 0 5 2 5 5 0 3 -2 5 -5 5 -3 0 -5 -2 -5
-5z"/>
<path d="M700 585 c0 -3 2 -5 5 -5 3 0 5 2 5 5 0 3 -2 5 -5 5 -3 0 -5 -2 -5
-5z"/>
<path d="M390 575 c0 -3 2 -5 5 -5 3 0 5 2 5 5 0 3 -2 5 -5 5 -3 0 -5 -2 -5
-5z"/>
<path d="M880 565 c0 -3 2 -5 5 -5 3 0 5 2 5 5 0 3 -2 5 -5 5 -3 0 -5 -2 -5
-5z"/>
<path d="M883 521 c1 -11 6 -17 14 -14 10 4 11 9 2 19 -15 19 -18 18 -16 -5z"/>
<path d="M690 476 c0 -2 7 -7 16 -10 8 -3 12 -2 9 4 -6 10 -25 14 -25 6z"/>
<path d="M80 445 c0 -3 2 -5 5 -5 3 0 5 2 5 5 0 3 -2 5 -5 5 -3 0 -5 -2 -5 -5z"/>
<path d="M880 405 c0 -3 2 -5 5 -5 3 0 5 2 5 5 0 3 -2 5 -5 5 -3 0 -5 -2 -5
-5z"/>
<path d="M530 385 c0 -3 2 -5 5 -5 3 0 5 2 5 5 0 3 -2 5 -5 5 -3 0 -5 -2 -5
-5z"/>
<path d="M44 358 c-4 -7 -4 -10 1 -6 4 4 13 3 20 -2 8 -7 12 -5 12 5 0 18 -23
20 -33 3z"/>
<path d="M576 341 c-4 -5 -2 -12 3 -15 5 -4 12 -2 15 3 4 5 2 12 -3 15 -5 4
-12 2 -15 -3z m14 -6 c0 -3 -2 -5 -5 -5 -3 0 -5 2 -5 5 0 3 2 5 5 5 3 0 5 -2
5 -5z"/>
<path d="M880 335 c0 -3 2 -5 5 -5 3 0 5 2 5 5 0 3 -2 5 -5 5 -3 0 -5 -2 -5
-5z"/>
<path d="M230 325 c0 -3 2 -5 5 -5 3 0 5 2 5 5 0 3 -2 5 -5 5 -3 0 -5 -2 -5
-5z"/>
<path d="M390 305 c0 -3 2 -5 5 -5 3 0 5 2 5 5 0 3 -2 5 -5 5 -3 0 -5 -2 -5
-5z"/>
<path d="M420 305 c0 -3 2 -5 5 -5 3 0 5 2 5 5 0 3 -2 5 -5 5 -3 0 -5 -2 -5
-5z"/>
<path d="M430 285 c0 -3 2 -5 5 -5 3 0 5 2 5 5 0 3 -2 5 -5 5 -3 0 -5 -2 -5
-5z"/>
<path d="M380 265 c0 -3 2 -5 5 -5 3 0 5 2 5 5 0 3 -2 5 -5 5 -3 0 -5 -2 -5
-5z"/>
<path d="M710 255 c0 -3 2 -5 5 -5 3 0 5 2 5 5 0 3 -2 5 -5 5 -3 0 -5 -2 -5
-5z"/>
<path d="M560 245 c0 -3 2 -5 5 -5 3 0 5 2 5 5 0 3 -2 5 -5 5 -3 0 -5 -2 -5
-5z"/>
<path d="M563 201 c1 -11 6 -17 14 -14 10 4 11 9 2 19 -15 19 -18 18 -16 -5z"/>
<path d="M370 156 c0 -2 7 -7 16 -10 8 -3 12 -2 9 4 -6 10 -25 14 -25 6z"/>
<path d="M560 85 c0 -3 2 -5 5 -5 3 0 5 2 5 5 0 3 -2 5 -5 5 -3 0 -5 -2 -5 -5z"/>
<path d="M210 65 c0 -3 2 -5 5 -5 3 0 5 2 5 5 0 3 -2 5 -5 5 -3 0 -5 -2 -5 -5z"/>
<path d="M850 65 c0 -3 2 -5 5 -5 3 0 5 2 5 5 0 3 -2 5 -5 5 -3 0 -5 -2 -5 -5z"/>
<path d="M560 15 c0 -3 2 -5 5 -5 3 0 5 2 5 5 0 3 -2 5 -5 5 -3 0 -5 -2 -5 -5z"/>
</g>
  </g>
</svg>
