<?xml version="1.0" encoding="UTF-8" standalone="no"?>
<!-- Created with Inkscape (http://www.inkscape.org/) -->

<svg
   xmlns:dc="http://purl.org/dc/elements/1.1/"
   xmlns:cc="http://creativecommons.org/ns#"
   xmlns:rdf="http://www.w3.org/1999/02/22-rdf-syntax-ns#"
   xmlns:svg="http://www.w3.org/2000/svg"
   xmlns="http://www.w3.org/2000/svg"
   xmlns:sodipodi="http://sodipodi.sourceforge.net/DTD/sodipodi-0.dtd"
   xmlns:inkscape="http://www.inkscape.org/namespaces/inkscape"
   width="16px"
   height="16px"
   viewBox="0 0 16px 16px"
   version="1.1"
   id="svgMain"
   inkscape:version="0.92.2 (5c3e80d, 2017-08-06)"
   sodipodi:docname="reference_SVG.svg">
  <defs
     id="defs4542" />
  <sodipodi:namedview
     id="base"
     pagecolor="#ffffff"
     bordercolor="#666666"
     borderopacity="1.0"
     inkscape:pageopacity="0.0"
     inkscape:pageshadow="2"
     inkscape:zoom="1"
     inkscape:cx="0"
     inkscape:cy="0"
     inkscape:document-units="px"
     inkscape:current-layer="layer1"
     showgrid="false"
     units="px"
     inkscape:window-width="1024"
     inkscape:window-height="768"
     inkscape:window-x="-8"
     inkscape:window-y="-8"
     inkscape:window-maximized="1" />
  <metadata
     id="metadata1">
    <rdf:RDF>
      <cc:Work
         rdf:about="">
        <dc:format>image/svg+xml</dc:format>
        <dc:type
           rdf:resource="http://purl.org/dc/dcmitype/StillImage" />
        <dc:title />
      </cc:Work>
    </rdf:RDF>
  </metadata>
  <g transform="translate(-16,-16) scale(0.5,0.5)"
     inkscape:label="Layer 1"
     inkscape:groupmode="layer"
     id="layer1">
    <!-- INSERT MARKER -->
<g transform="translate(0.000000,96.000000) scale(0.100000,-0.100000)"
fill="#128520" stroke="none">
<path d="M20 800 l0 -140 140 0 140 0 0 140 0 140 -140 0 -140 0 0 -140z"/>
<path d="M340 800 l0 -140 140 0 140 0 0 140 0 140 -140 0 -140 0 0 -140z"/>
<path d="M660 800 l0 -140 140 0 140 0 0 140 0 140 -140 0 -140 0 0 -140z"/>
<path d="M20 480 l0 -140 140 0 140 0 0 140 0 140 -140 0 -140 0 0 -140z"/>
<path d="M340 480 l0 -140 140 0 140 0 0 140 0 140 -140 0 -140 0 0 -140z"/>
<path d="M660 480 l0 -140 140 0 140 0 0 140 0 140 -140 0 -140 0 0 -140z"/>
<path d="M20 160 l0 -140 140 0 140 0 0 140 0 140 -140 0 -140 0 0 -140z"/>
<path d="M340 160 l0 -140 140 0 140 0 0 140 0 140 -140 0 -140 0 0 -140z"/>
<path d="M660 160 l0 -140 140 0 140 0 0 140 0 140 -140 0 -140 0 0 -140z"/>
</g>
<g transform="translate(0.000000,96.000000) scale(0.100000,-0.100000)"
fill="#0e6a1a" stroke="none">
<path d="M20 800 l0 -140 140 0 140 0 0 140 0 140 -140 0 -140 0 0 -140z m209
103 c3 -2 -4 -9 -14 -17 -10 -7 -14 -16 -9 -19 12 -7 26 2 40 27 16 31 30 29
32 -4 1 -16 -2 -30 -8 -30 -5 0 -10 -7 -10 -15 0 -8 4 -15 8 -15 13 0 11 -64
-2 -72 -8 -5 -7 -13 2 -28 13 -22 16 -50 4 -50 -4 0 -18 8 -32 17 -22 16 -23
16 -17 0 3 -9 2 -17 -2 -17 -5 0 -12 7 -15 15 -6 16 16 31 32 21 5 -3 9 1 9 9
0 8 -4 15 -9 15 -4 0 -7 3 -7 8 3 18 -3 21 -26 12 -14 -5 -25 -6 -25 -1 0 4
-8 18 -19 30 l-19 21 -4 -28 c-3 -24 -1 -28 14 -24 13 3 18 -1 18 -17 0 -11 4
-21 9 -21 6 0 9 -9 8 -20 -2 -28 -14 -25 -44 11 l-26 31 -13 -23 c-7 -13 -10
-28 -6 -33 3 -6 -3 -6 -14 -2 -10 5 -25 9 -31 9 -7 0 -13 10 -13 23 0 12 6 24
13 27 9 3 9 7 -2 20 -7 10 -9 17 -4 17 5 0 10 11 11 25 1 14 -3 25 -8 25 -6 0
-10 11 -10 25 0 14 5 25 11 25 8 0 8 5 -1 15 -7 8 -9 15 -4 16 45 4 73 5 69 1
-7 -8 36 -42 53 -42 12 0 12 3 -3 20 -17 19 -17 20 6 29 16 6 29 5 39 -2 8 -6
17 -13 19 -14z m-19 -158 c0 -3 -2 -5 -5 -5 -3 0 -5 2 -5 5 0 3 2 5 5 5 3 0 5
-2 5 -5z m-70 -45 c0 -5 -7 -10 -16 -10 -8 0 -12 5 -9 10 3 6 10 10 16 10 5 0
9 -4 9 -10z"/>
<path d="M70 865 c0 -4 6 -13 14 -20 11 -12 16 -12 32 1 13 10 14 14 4 11 -8
-2 -23 0 -32 5 -10 5 -18 6 -18 3z"/>
<path d="M170 850 c0 -7 3 -10 7 -7 3 4 3 10 0 14 -4 3 -7 0 -7 -7z"/>
<path d="M177 838 c-15 -16 -15 -19 -2 -24 8 -3 12 -11 8 -17 -3 -6 -1 -7 6
-3 6 4 9 11 6 16 -3 4 2 13 10 20 16 13 18 9 15 -27 -1 -13 2 -23 7 -24 4 0
16 -2 26 -4 17 -3 17 -1 -2 28 -30 48 -52 59 -74 35z"/>
<path d="M76 801 c-3 -5 1 -12 10 -15 9 -3 14 -13 10 -21 -4 -12 -2 -13 14 -3
10 7 16 16 14 20 -9 15 -43 28 -48 19z"/>
<path d="M340 800 l0 -140 140 0 140 0 0 140 0 140 -140 0 -140 0 0 -140z m50
108 c0 -9 3 -9 12 0 14 14 52 17 44 3 -3 -5 1 -15 10 -22 9 -7 20 -22 25 -34
7 -15 8 -10 6 20 l-2 40 57 1 56 2 0 -34 c0 -19 -4 -37 -9 -40 -6 -3 -6 -11 1
-19 17 -20 -6 -29 -30 -12 -11 8 -17 17 -12 22 4 5 2 5 -5 2 -14 -9 -11 -30 6
-51 14 -17 46 -23 36 -6 -3 6 -1 10 4 10 17 0 13 -27 -5 -34 -14 -5 -14 -7 0
-22 9 -8 16 -23 16 -33 0 -13 -8 -17 -35 -17 -33 1 -51 18 -40 36 8 13 36 0
28 -14 -4 -7 -2 -8 5 -1 6 6 9 20 6 32 -5 17 -13 22 -33 21 -39 -2 -55 -18
-35 -33 14 -10 15 -15 3 -36 -11 -20 -14 -21 -17 -6 -2 9 -8 17 -13 17 -6 0
-7 -4 -4 -10 3 -6 -1 -7 -9 -4 -18 7 -22 24 -6 24 5 0 7 7 3 17 -6 14 -9 13
-25 -7 -10 -12 -15 -26 -12 -31 3 -5 -2 -9 -10 -9 -8 0 -18 5 -21 10 -4 6 -10
8 -15 5 -12 -8 -8 38 4 47 6 4 5 12 -4 22 -11 14 -10 19 4 35 15 16 15 20 2
33 -18 18 -17 88 1 88 7 0 13 -5 13 -12z"/>
<path d="M540 886 c-14 -13 -33 -33 -43 -45 -15 -19 -15 -22 -2 -27 19 -8 22
-5 27 21 1 11 14 29 28 41 14 12 23 25 20 28 -3 3 -17 -5 -30 -18z"/>
<path d="M396 854 c10 -16 19 -30 20 -32 0 -1 6 4 12 11 9 10 4 17 -19 31
l-31 18 18 -28z"/>
<path d="M402 802 c-9 -2 0 -13 22 -28 30 -21 39 -23 56 -12 24 15 25 24 6 31
-9 4 -17 -2 -21 -14 -4 -10 -11 -16 -17 -13 -7 4 -6 9 1 14 14 8 -28 29 -47
22z"/>
<path d="M510 775 c0 -3 2 -5 5 -5 3 0 5 2 5 5 0 3 -2 5 -5 5 -3 0 -5 -2 -5
-5z"/>
<path d="M530 775 c0 -3 2 -5 5 -5 3 0 5 2 5 5 0 3 -2 5 -5 5 -3 0 -5 -2 -5
-5z"/>
<path d="M530 715 c0 -3 2 -5 5 -5 3 0 5 2 5 5 0 3 -2 5 -5 5 -3 0 -5 -2 -5
-5z"/>
<path d="M660 800 l0 -140 140 0 140 0 0 140 0 140 -140 0 -140 0 0 -140z
m115 104 c0 -5 8 -20 18 -34 l18 -25 -6 38 c-6 33 -5 37 13 37 11 0 22 -6 25
-12 4 -10 7 -10 18 0 19 17 59 15 59 -4 0 -8 -5 -12 -11 -9 -6 4 -5 -3 3 -14
11 -18 11 -23 -1 -30 -8 -5 -10 -14 -5 -22 11 -18 13 -49 2 -49 -4 0 -8 -11
-8 -25 0 -14 5 -25 10 -25 6 0 10 -14 10 -30 0 -30 0 -30 -24 -15 -19 13 -25
13 -29 3 -4 -10 -8 -10 -16 2 -17 24 -13 33 15 27 19 -3 24 -1 20 10 -3 8 -6
19 -6 24 0 9 -69 2 -80 -8 -3 -3 3 -10 13 -18 10 -7 15 -19 11 -29 -8 -20 -24
-21 -24 -1 0 8 -4 15 -10 15 -5 0 -10 -4 -10 -9 0 -5 -15 -11 -32 -15 -24 -5
-36 -2 -44 9 -9 13 -13 13 -17 3 -3 -7 -6 -1 -6 14 -1 14 5 28 12 31 9 3 9 7
-1 20 -12 14 -11 19 3 33 13 14 14 19 3 25 -7 5 -13 27 -13 52 l-1 44 46 -2
c25 -1 45 -6 45 -11z m75 -169 c0 -3 -2 -5 -5 -5 -3 0 -5 2 -5 5 0 3 2 5 5 5
3 0 5 -2 5 -5z"/>
<path d="M858 891 c-10 -10 -15 -21 -11 -24 12 -12 20 -8 31 18 13 29 5 32
-20 6z"/>
<path d="M702 868 c5 -22 38 -42 50 -30 7 7 0 15 -21 26 -23 12 -31 13 -29 4z"/>
<path d="M823 845 c-19 -21 -16 -34 6 -32 11 0 17 5 15 9 -3 4 2 8 11 8 15 0
15 2 1 15 -18 18 -18 18 -33 0z"/>
<path d="M860 800 c0 -13 7 -20 20 -20 23 0 26 10 8 28 -18 18 -28 15 -28 -8z"/>
<path d="M780 805 c0 -3 2 -5 5 -5 3 0 5 2 5 5 0 3 -2 5 -5 5 -3 0 -5 -2 -5
-5z"/>
<path d="M735 780 c35 -23 38 -39 10 -62 -11 -9 -17 -19 -14 -22 9 -9 40 18
43 38 1 10 12 24 24 30 14 7 18 16 13 24 -7 11 -11 10 -24 -2 -17 -17 -32 -22
-23 -7 6 10 -16 21 -42 21 -11 0 -7 -7 13 -20z"/>
<path d="M834 768 c-4 -7 -3 -8 4 -4 12 7 16 16 8 16 -3 0 -8 -5 -12 -12z"/>
<path d="M730 745 c0 -3 2 -5 5 -5 3 0 5 2 5 5 0 3 -2 5 -5 5 -3 0 -5 -2 -5
-5z"/>
<path d="M20 480 l0 -140 140 0 140 0 0 140 0 140 -140 0 -140 0 0 -140z m58
108 c9 -9 12 -9 12 0 0 7 10 10 23 8 14 -2 21 -9 19 -20 -2 -9 2 -16 8 -16 6
0 9 -4 6 -9 -4 -5 3 -7 14 -4 18 5 18 6 3 21 -14 15 -14 17 5 25 13 6 31 5 49
-1 27 -10 27 -11 6 -17 -23 -7 -30 -20 -15 -29 12 -7 29 7 36 32 12 36 36 27
36 -12 0 -19 -4 -37 -9 -41 -10 -5 -9 -17 5 -62 4 -15 2 -23 -5 -23 -7 0 -10
4 -7 8 7 11 -29 64 -37 55 -16 -15 -6 -43 15 -43 12 0 18 -3 15 -6 -4 -4 1
-19 10 -34 21 -36 11 -65 -17 -50 -13 7 -20 7 -20 0 0 -16 -17 -12 -24 7 -4 9
-2 21 4 27 7 7 10 7 10 -1 0 -13 25 -11 37 2 4 4 2 5 -4 1 -9 -5 -13 0 -13 15
0 12 -3 19 -7 16 -3 -4 -12 -2 -20 4 -10 9 -13 8 -13 -1 0 -10 -3 -10 -15 0
-8 7 -15 19 -15 26 0 17 -17 19 -22 3 -3 -9 -9 -9 -25 0 -12 6 -30 11 -40 11
-15 0 -14 -2 5 -16 12 -8 27 -12 32 -9 6 3 10 -1 10 -9 0 -18 16 -21 25 -6 12
19 25 0 15 -21 -9 -15 -7 -19 5 -19 16 0 17 -2 10 -22 -6 -14 -91 -18 -113 -5
-6 5 -17 5 -22 2 -6 -4 -10 5 -10 19 0 14 4 26 9 26 5 0 12 7 15 16 3 8 2 12
-3 9 -15 -8 -24 14 -12 29 7 9 7 16 -2 26 -10 10 -9 11 2 5 10 -6 12 -4 5 6
-4 8 -9 31 -9 51 -1 39 11 48 33 26z"/>
<path d="M120 585 c0 -3 2 -5 5 -5 3 0 5 2 5 5 0 3 -2 5 -5 5 -3 0 -5 -2 -5
-5z"/>
<path d="M260 575 c0 -3 2 -5 5 -5 3 0 5 2 5 5 0 3 -2 5 -5 5 -3 0 -5 -2 -5
-5z"/>
<path d="M69 542 c14 -27 30 -37 42 -25 5 5 -4 16 -22 27 -31 18 -31 18 -20
-2z"/>
<path d="M185 522 c-5 -14 -7 -14 -16 -2 -8 12 -9 11 -7 -5 2 -12 12 -21 27
-23 18 -3 22 0 18 11 -3 9 -1 17 6 20 6 2 4 6 -5 10 -10 3 -19 -1 -23 -11z"/>
<path d="M130 515 c0 -3 2 -5 5 -5 3 0 5 2 5 5 0 3 -2 5 -5 5 -3 0 -5 -2 -5
-5z"/>
<path d="M180 475 c0 -3 2 -5 5 -5 3 0 5 2 5 5 0 3 -2 5 -5 5 -3 0 -5 -2 -5
-5z"/>
<path d="M80 435 c0 -3 2 -5 5 -5 3 0 5 2 5 5 0 3 -2 5 -5 5 -3 0 -5 -2 -5 -5z"/>
<path d="M110 425 c0 -3 2 -5 5 -5 3 0 5 2 5 5 0 3 -2 5 -5 5 -3 0 -5 -2 -5
-5z"/>
<path d="M101 391 c-9 -16 -8 -18 9 -14 11 3 20 12 20 19 0 20 -18 17 -29 -5z"/>
<path d="M70 395 c0 -3 2 -5 5 -5 3 0 5 2 5 5 0 3 -2 5 -5 5 -3 0 -5 -2 -5 -5z"/>
<path d="M140 380 c0 -7 3 -10 7 -7 3 4 3 10 0 14 -4 3 -7 0 -7 -7z"/>
<path d="M340 480 l0 -140 140 0 140 0 0 140 0 140 -140 0 -140 0 0 -140z m50
108 c0 -9 3 -9 12 0 14 14 52 17 44 3 -3 -5 1 -15 10 -22 9 -7 20 -22 25 -34
7 -15 8 -10 6 20 l-2 40 57 1 56 2 0 -34 c0 -19 -4 -37 -9 -40 -6 -3 -6 -11 1
-19 17 -20 -6 -29 -30 -12 -11 8 -17 17 -12 22 4 5 2 5 -5 2 -14 -9 -11 -30 6
-51 14 -17 46 -23 36 -6 -3 6 -1 10 4 10 17 0 13 -27 -5 -34 -14 -5 -14 -7 0
-22 9 -8 16 -23 16 -33 0 -13 -8 -17 -35 -17 -33 1 -51 18 -40 36 8 13 36 0
28 -14 -4 -7 -2 -8 5 -1 6 6 9 20 6 32 -5 17 -13 22 -33 21 -39 -2 -55 -18
-35 -33 14 -10 15 -15 3 -36 -11 -20 -14 -21 -17 -6 -2 9 -8 17 -13 17 -6 0
-7 -4 -4 -10 3 -6 -1 -7 -9 -4 -18 7 -22 24 -6 24 5 0 7 7 3 17 -6 14 -9 13
-25 -7 -10 -12 -15 -26 -12 -31 3 -5 -2 -9 -10 -9 -8 0 -18 5 -21 10 -4 6 -10
8 -15 5 -12 -8 -8 38 4 47 6 4 5 12 -4 22 -11 14 -10 19 4 35 15 16 15 20 2
33 -18 18 -17 88 1 88 7 0 13 -5 13 -12z"/>
<path d="M540 566 c-14 -13 -33 -33 -43 -45 -15 -19 -15 -22 -2 -27 19 -8 22
-5 27 21 1 11 14 29 28 41 14 12 23 25 20 28 -3 3 -17 -5 -30 -18z"/>
<path d="M396 534 c10 -16 19 -30 20 -32 0 -1 6 4 12 11 9 10 4 17 -19 31
l-31 18 18 -28z"/>
<path d="M402 482 c-9 -2 0 -13 22 -28 30 -21 39 -23 56 -12 24 15 25 24 6 31
-9 4 -17 -2 -21 -14 -4 -10 -11 -16 -17 -13 -7 4 -6 9 1 14 14 8 -28 29 -47
22z"/>
<path d="M510 455 c0 -3 2 -5 5 -5 3 0 5 2 5 5 0 3 -2 5 -5 5 -3 0 -5 -2 -5
-5z"/>
<path d="M530 455 c0 -3 2 -5 5 -5 3 0 5 2 5 5 0 3 -2 5 -5 5 -3 0 -5 -2 -5
-5z"/>
<path d="M530 395 c0 -3 2 -5 5 -5 3 0 5 2 5 5 0 3 -2 5 -5 5 -3 0 -5 -2 -5
-5z"/>
<path d="M660 480 l0 -140 140 0 140 0 0 140 0 140 -140 0 -140 0 0 -140z
m115 104 c0 -5 8 -20 18 -34 l18 -25 -6 38 c-6 33 -5 37 13 37 11 0 22 -6 25
-12 4 -10 7 -10 18 0 19 17 59 15 59 -4 0 -8 -5 -12 -11 -9 -6 4 -5 -3 3 -14
11 -18 11 -23 -1 -30 -8 -5 -10 -14 -5 -22 11 -18 13 -49 2 -49 -4 0 -8 -11
-8 -25 0 -14 5 -25 10 -25 6 0 10 -14 10 -30 0 -30 0 -30 -24 -15 -19 13 -25
13 -29 3 -4 -10 -8 -10 -16 2 -17 24 -13 33 15 27 19 -3 24 -1 20 10 -3 8 -6
19 -6 24 0 9 -69 2 -80 -8 -3 -3 3 -10 13 -18 10 -7 15 -19 11 -29 -8 -20 -24
-21 -24 -1 0 8 -4 15 -10 15 -5 0 -10 -4 -10 -9 0 -5 -15 -11 -32 -15 -24 -5
-36 -2 -44 9 -9 13 -13 13 -17 3 -3 -7 -6 -1 -6 14 -1 14 5 28 12 31 9 3 9 7
-1 20 -12 14 -11 19 3 33 13 14 14 19 3 25 -7 5 -13 27 -13 52 l-1 44 46 -2
c25 -1 45 -6 45 -11z m75 -169 c0 -3 -2 -5 -5 -5 -3 0 -5 2 -5 5 0 3 2 5 5 5
3 0 5 -2 5 -5z"/>
<path d="M858 571 c-10 -10 -15 -21 -11 -24 12 -12 20 -8 31 18 13 29 5 32
-20 6z"/>
<path d="M702 548 c5 -22 38 -42 50 -30 7 7 0 15 -21 26 -23 12 -31 13 -29 4z"/>
<path d="M823 525 c-19 -21 -16 -34 6 -32 11 0 17 5 15 9 -3 4 2 8 11 8 15 0
15 2 1 15 -18 18 -18 18 -33 0z"/>
<path d="M860 480 c0 -13 7 -20 20 -20 23 0 26 10 8 28 -18 18 -28 15 -28 -8z"/>
<path d="M780 485 c0 -3 2 -5 5 -5 3 0 5 2 5 5 0 3 -2 5 -5 5 -3 0 -5 -2 -5
-5z"/>
<path d="M735 460 c35 -23 38 -39 10 -62 -11 -9 -17 -19 -14 -22 9 -9 40 18
43 38 1 10 12 24 24 30 14 7 18 16 13 24 -7 11 -11 10 -24 -2 -17 -17 -32 -22
-23 -7 6 10 -16 21 -42 21 -11 0 -7 -7 13 -20z"/>
<path d="M834 448 c-4 -7 -3 -8 4 -4 7 4 12 9 12 12 0 8 -9 4 -16 -8z"/>
<path d="M730 425 c0 -3 2 -5 5 -5 3 0 5 2 5 5 0 3 -2 5 -5 5 -3 0 -5 -2 -5
-5z"/>
<path d="M20 160 l0 -140 140 0 140 0 0 140 0 140 -140 0 -140 0 0 -140z m50
108 c0 -9 3 -9 12 0 14 14 52 17 44 3 -3 -5 1 -15 10 -22 9 -7 20 -22 25 -34
7 -15 8 -10 6 20 l-2 40 57 1 56 2 0 -34 c0 -19 -4 -37 -9 -40 -6 -3 -6 -11 1
-19 17 -20 -6 -29 -30 -12 -11 8 -17 17 -12 22 4 5 2 5 -5 2 -14 -9 -11 -30 6
-51 14 -17 46 -23 36 -6 -3 5 -1 10 4 10 17 0 13 -27 -5 -34 -14 -5 -14 -7 0
-22 9 -8 16 -23 16 -33 0 -13 -8 -17 -35 -17 -33 1 -51 18 -40 36 8 13 36 0
28 -14 -4 -7 -2 -8 5 -1 6 6 9 20 6 32 -5 17 -13 22 -33 21 -39 -2 -55 -18
-35 -33 14 -10 15 -15 3 -36 -11 -20 -14 -21 -17 -7 -2 10 -8 18 -13 18 -6 0
-7 -4 -4 -10 3 -6 -1 -7 -9 -4 -18 7 -22 24 -6 24 5 0 7 7 3 17 -6 14 -9 13
-25 -7 -10 -12 -15 -26 -12 -31 3 -5 -2 -9 -10 -9 -8 0 -18 5 -21 10 -4 6 -10
8 -15 5 -12 -8 -8 38 4 47 6 4 5 12 -4 22 -11 14 -10 19 4 35 15 16 15 20 2
33 -18 18 -17 88 1 88 7 0 13 -5 13 -12z"/>
<path d="M220 246 c-14 -13 -33 -33 -43 -45 -15 -19 -15 -22 -2 -27 19 -8 22
-5 27 21 1 11 14 29 28 41 14 12 23 25 20 28 -3 3 -17 -5 -30 -18z"/>
<path d="M76 214 c10 -16 19 -30 20 -32 0 -1 6 4 12 11 9 10 4 17 -19 31 l-31
18 18 -28z"/>
<path d="M82 162 c-9 -2 0 -13 22 -28 30 -21 39 -23 56 -12 24 15 25 24 6 31
-9 4 -17 -2 -21 -14 -4 -10 -11 -16 -17 -13 -7 4 -6 9 1 14 14 8 -28 29 -47
22z"/>
<path d="M190 135 c0 -3 2 -5 5 -5 3 0 5 2 5 5 0 3 -2 5 -5 5 -3 0 -5 -2 -5
-5z"/>
<path d="M210 135 c0 -3 2 -5 5 -5 3 0 5 2 5 5 0 3 -2 5 -5 5 -3 0 -5 -2 -5
-5z"/>
<path d="M210 75 c0 -3 2 -5 5 -5 3 0 5 2 5 5 0 3 -2 5 -5 5 -3 0 -5 -2 -5 -5z"/>
<path d="M340 160 l0 -140 140 0 140 0 0 140 0 140 -140 0 -140 0 0 -140z
m115 104 c0 -5 8 -20 18 -34 l18 -25 -6 38 c-6 33 -5 37 13 37 11 0 22 -6 25
-12 4 -10 7 -10 18 0 19 17 59 15 59 -4 0 -8 -5 -12 -11 -9 -6 4 -5 -3 3 -14
11 -18 11 -23 -1 -30 -8 -5 -10 -14 -5 -22 11 -18 13 -49 2 -49 -4 0 -8 -11
-8 -25 0 -14 5 -25 10 -25 6 0 10 -14 10 -30 0 -30 0 -30 -24 -15 -19 13 -25
13 -29 3 -4 -10 -8 -10 -16 2 -17 24 -13 33 15 27 19 -3 24 -1 20 10 -3 8 -6
19 -6 24 0 9 -69 2 -80 -8 -3 -3 3 -10 13 -18 10 -7 15 -19 11 -29 -8 -20 -24
-21 -24 -1 0 8 -4 15 -10 15 -5 0 -10 -4 -10 -9 0 -5 -15 -11 -32 -15 -24 -5
-36 -2 -44 9 -9 13 -13 13 -17 3 -3 -7 -6 -1 -6 14 -1 14 5 28 12 31 9 3 9 7
-1 20 -12 14 -11 19 3 33 13 14 14 19 3 25 -7 5 -13 27 -13 52 l-1 44 46 -2
c25 -1 45 -6 45 -11z m75 -169 c0 -3 -2 -5 -5 -5 -3 0 -5 2 -5 5 0 3 2 5 5 5
3 0 5 -2 5 -5z"/>
<path d="M538 251 c-10 -10 -15 -21 -11 -24 12 -12 20 -8 31 18 13 29 5 32
-20 6z"/>
<path d="M382 228 c5 -22 38 -42 50 -30 7 7 0 15 -21 26 -23 12 -31 13 -29 4z"/>
<path d="M503 205 c-19 -21 -16 -34 6 -32 11 0 17 5 15 9 -3 4 2 8 11 8 15 0
15 2 1 15 -18 18 -18 18 -33 0z"/>
<path d="M540 160 c0 -13 7 -20 20 -20 23 0 26 10 8 28 -18 18 -28 15 -28 -8z"/>
<path d="M460 165 c0 -3 2 -5 5 -5 3 0 5 2 5 5 0 3 -2 5 -5 5 -3 0 -5 -2 -5
-5z"/>
<path d="M415 140 c35 -23 38 -39 10 -62 -11 -9 -17 -19 -14 -22 9 -9 40 18
43 38 1 10 12 24 24 30 14 7 18 16 13 24 -7 11 -11 10 -24 -2 -17 -17 -32 -22
-23 -7 6 10 -16 21 -42 21 -11 0 -7 -7 13 -20z"/>
<path d="M514 128 c-4 -7 -3 -8 4 -4 7 4 12 9 12 12 0 8 -9 4 -16 -8z"/>
<path d="M410 105 c0 -3 2 -5 5 -5 3 0 5 2 5 5 0 3 -2 5 -5 5 -3 0 -5 -2 -5
-5z"/>
<path d="M660 160 l0 -140 140 0 140 0 0 140 0 140 -140 0 -140 0 0 -140z m50
108 c0 -9 3 -9 12 0 14 14 52 17 44 3 -3 -5 1 -15 10 -22 9 -7 20 -22 25 -34
7 -15 8 -10 6 20 l-2 40 57 1 56 2 0 -34 c0 -19 -4 -37 -9 -40 -6 -3 -6 -11 1
-19 17 -20 -6 -29 -30 -12 -11 8 -17 17 -12 22 4 5 2 5 -5 2 -14 -9 -11 -30 6
-51 14 -17 46 -23 36 -6 -3 5 -1 10 4 10 17 0 13 -27 -5 -34 -14 -5 -14 -7 0
-22 9 -8 16 -23 16 -33 0 -13 -8 -17 -35 -17 -33 1 -51 18 -40 36 8 13 36 0
28 -14 -4 -7 -2 -8 5 -1 6 6 9 20 6 32 -5 17 -13 22 -33 21 -39 -2 -55 -18
-35 -33 14 -10 15 -15 3 -36 -11 -20 -14 -21 -17 -7 -2 10 -8 18 -13 18 -6 0
-7 -4 -4 -10 3 -6 -1 -7 -9 -4 -18 7 -22 24 -6 24 5 0 7 7 3 17 -6 14 -9 13
-25 -7 -10 -12 -15 -26 -12 -31 3 -5 -2 -9 -10 -9 -8 0 -18 5 -21 10 -4 6 -10
8 -15 5 -12 -8 -8 38 4 47 6 4 5 12 -4 22 -11 14 -10 19 4 35 15 16 15 20 2
33 -18 18 -17 88 1 88 7 0 13 -5 13 -12z"/>
<path d="M860 246 c-14 -13 -33 -33 -43 -45 -15 -19 -15 -22 -2 -27 19 -8 22
-5 27 21 1 11 14 29 28 41 14 12 23 25 20 28 -3 3 -17 -5 -30 -18z"/>
<path d="M716 214 c10 -16 19 -30 20 -32 0 -1 6 4 12 11 9 10 4 17 -19 31
l-31 18 18 -28z"/>
<path d="M722 162 c-9 -2 0 -13 22 -28 30 -21 39 -23 56 -12 24 15 25 24 6 31
-9 4 -17 -2 -21 -14 -4 -10 -11 -16 -17 -13 -7 4 -6 9 1 14 14 8 -28 29 -47
22z"/>
<path d="M830 135 c0 -3 2 -5 5 -5 3 0 5 2 5 5 0 3 -2 5 -5 5 -3 0 -5 -2 -5
-5z"/>
<path d="M850 135 c0 -3 2 -5 5 -5 3 0 5 2 5 5 0 3 -2 5 -5 5 -3 0 -5 -2 -5
-5z"/>
<path d="M850 75 c0 -3 2 -5 5 -5 3 0 5 2 5 5 0 3 -2 5 -5 5 -3 0 -5 -2 -5 -5z"/>
</g>
<g transform="translate(0.000000,96.000000) scale(0.100000,-0.100000)"
fill="#021003" stroke="none">
<path d="M60 936 c0 -2 8 -10 18 -17 15 -13 16 -12 3 4 -13 16 -21 21 -21 13z"/>
<path d="M136 924 c-5 -14 -4 -15 9 -4 17 14 19 20 6 20 -5 0 -12 -7 -15 -16z"/>
<path d="M219 923 c-13 -16 -12 -17 4 -4 16 13 21 21 13 21 -2 0 -10 -8 -17
-17z"/>
<path d="M371 937 c2 -1 13 -9 24 -17 19 -14 19 -14 6 3 -7 9 -18 17 -24 17
-6 0 -8 -1 -6 -3z"/>
<path d="M456 924 c-5 -14 -4 -15 9 -4 17 14 19 20 6 20 -5 0 -12 -7 -15 -16z"/>
<path d="M539 923 c-13 -16 -12 -17 4 -4 9 7 17 15 17 17 0 8 -8 3 -21 -13z"/>
<path d="M700 936 c0 -2 8 -10 18 -17 15 -13 16 -12 3 4 -13 16 -21 21 -21 13z"/>
<path d="M776 924 c-5 -14 -4 -15 9 -4 17 14 19 20 6 20 -5 0 -12 -7 -15 -16z"/>
<path d="M859 923 c-13 -16 -12 -17 4 -4 9 7 17 15 17 17 0 8 -8 3 -21 -13z"/>
<path d="M20 890 c0 -6 7 -10 15 -10 19 0 19 6 0 14 -8 3 -15 1 -15 -4z"/>
<path d="M145 890 c3 -5 8 -10 11 -10 3 0 2 5 -1 10 -3 6 -8 10 -11 10 -3 0
-2 -4 1 -10z"/>
<path d="M219 883 c-13 -16 -12 -17 4 -4 16 13 21 21 13 21 -2 0 -10 -8 -17
-17z"/>
<path d="M340 890 c0 -6 7 -10 15 -10 8 0 15 2 15 4 0 2 -7 6 -15 10 -8 3 -15
1 -15 -4z"/>
<path d="M465 890 c3 -5 8 -10 11 -10 3 0 2 5 -1 10 -3 6 -8 10 -11 10 -3 0
-2 -4 1 -10z"/>
<path d="M539 883 c-13 -16 -12 -17 4 -4 9 7 17 15 17 17 0 8 -8 3 -21 -13z"/>
<path d="M660 890 c0 -6 7 -10 15 -10 8 0 15 2 15 4 0 2 -7 6 -15 10 -8 3 -15
1 -15 -4z"/>
<path d="M785 890 c3 -5 8 -10 11 -10 3 0 2 5 -1 10 -3 6 -8 10 -11 10 -3 0
-2 -4 1 -10z"/>
<path d="M859 883 c-13 -16 -12 -17 4 -4 16 13 21 21 13 21 -2 0 -10 -8 -17
-17z"/>
<path d="M70 866 c0 -2 8 -10 18 -17 15 -13 16 -12 3 4 -13 16 -21 21 -21 13z"/>
<path d="M390 866 c0 -2 8 -10 18 -17 15 -13 16 -12 3 4 -13 16 -21 21 -21 13z"/>
<path d="M710 866 c0 -2 8 -10 18 -17 15 -13 16 -12 3 4 -13 16 -21 21 -21 13z"/>
<path d="M279 843 c-13 -16 -12 -17 4 -4 16 13 21 21 13 21 -2 0 -10 -8 -17
-17z"/>
<path d="M599 843 c-13 -16 -12 -17 4 -4 9 7 17 15 17 17 0 8 -8 3 -21 -13z"/>
<path d="M919 843 c-13 -16 -12 -17 4 -4 9 7 17 15 17 17 0 8 -8 3 -21 -13z"/>
<path d="M180 830 c-9 -6 -10 -10 -3 -10 6 0 15 5 18 10 8 12 4 12 -15 0z"/>
<path d="M500 830 c-9 -6 -10 -10 -3 -10 6 0 15 5 18 10 8 12 4 12 -15 0z"/>
<path d="M820 830 c-9 -6 -10 -10 -3 -10 6 0 15 5 18 10 8 12 4 12 -15 0z"/>
<path d="M20 800 c0 -5 7 -7 15 -4 8 4 15 8 15 10 0 2 -7 4 -15 4 -8 0 -15 -4
-15 -10z"/>
<path d="M230 806 c0 -2 8 -10 18 -17 15 -13 16 -12 3 4 -13 16 -21 21 -21 13z"/>
<path d="M280 800 c-13 -8 -12 -10 3 -10 9 0 17 5 17 10 0 12 -1 12 -20 0z"/>
<path d="M340 800 c0 -5 7 -7 15 -4 8 4 15 8 15 10 0 2 -7 4 -15 4 -8 0 -15
-4 -15 -10z"/>
<path d="M550 806 c0 -2 8 -10 18 -17 15 -13 16 -12 3 4 -13 16 -21 21 -21 13z"/>
<path d="M600 800 c-13 -8 -12 -10 3 -10 9 0 17 5 17 10 0 12 -1 12 -20 0z"/>
<path d="M660 800 c0 -5 7 -7 15 -4 8 4 15 8 15 10 0 2 -7 4 -15 4 -8 0 -15
-4 -15 -10z"/>
<path d="M870 806 c0 -2 8 -10 18 -17 15 -13 16 -12 3 4 -13 16 -21 21 -21 13z"/>
<path d="M920 800 c-13 -8 -12 -10 3 -10 9 0 17 5 17 10 0 12 -1 12 -20 0z"/>
<path d="M80 796 c0 -2 7 -7 16 -10 8 -3 12 -2 9 4 -6 10 -25 14 -25 6z"/>
<path d="M400 796 c0 -2 7 -7 16 -10 8 -3 12 -2 9 4 -6 10 -25 14 -25 6z"/>
<path d="M720 796 c0 -2 7 -7 16 -10 8 -3 12 -2 9 4 -6 10 -25 14 -25 6z"/>
<path d="M144 768 c-4 -7 -3 -8 4 -4 12 7 16 16 8 16 -3 0 -8 -5 -12 -12z"/>
<path d="M464 768 c-4 -7 -3 -8 4 -4 12 7 16 16 8 16 -3 0 -8 -5 -12 -12z"/>
<path d="M784 768 c-4 -7 -3 -8 4 -4 7 4 12 9 12 12 0 8 -9 4 -16 -8z"/>
<path d="M25 750 c-3 -6 1 -7 9 -4 18 7 21 14 7 14 -6 0 -13 -4 -16 -10z"/>
<path d="M345 750 c-3 -6 1 -7 9 -4 18 7 21 14 7 14 -6 0 -13 -4 -16 -10z"/>
<path d="M665 750 c-3 -6 1 -7 9 -4 18 7 21 14 7 14 -6 0 -13 -4 -16 -10z"/>
<path d="M210 746 c0 -2 8 -10 18 -17 15 -13 16 -12 3 4 -13 16 -21 21 -21 13z"/>
<path d="M270 746 c0 -2 8 -10 18 -17 15 -13 16 -12 3 4 -13 16 -21 21 -21 13z"/>
<path d="M530 746 c0 -2 8 -10 18 -17 15 -13 16 -12 3 4 -13 16 -21 21 -21 13z"/>
<path d="M590 746 c0 -2 8 -10 18 -17 15 -13 16 -12 3 4 -13 16 -21 21 -21 13z"/>
<path d="M850 746 c0 -2 8 -10 18 -17 15 -13 16 -12 3 4 -13 16 -21 21 -21 13z"/>
<path d="M910 746 c0 -2 8 -10 18 -17 15 -13 16 -12 3 4 -13 16 -21 21 -21 13z"/>
<path d="M186 727 c3 -10 9 -15 12 -12 3 3 0 11 -7 18 -10 9 -11 8 -5 -6z"/>
<path d="M506 727 c3 -10 9 -15 12 -12 3 3 0 11 -7 18 -10 9 -11 8 -5 -6z"/>
<path d="M826 727 c3 -10 9 -15 12 -12 3 3 0 11 -7 18 -10 9 -11 8 -5 -6z"/>
<path d="M104 708 c-4 -7 -3 -8 4 -4 12 7 16 16 8 16 -3 0 -8 -5 -12 -12z"/>
<path d="M424 708 c-4 -7 -3 -8 4 -4 12 7 16 16 8 16 -3 0 -8 -5 -12 -12z"/>
<path d="M744 708 c-4 -7 -3 -8 4 -4 7 4 12 9 12 12 0 8 -9 4 -16 -8z"/>
<path d="M186 685 c-9 -26 -7 -32 5 -12 6 10 9 21 6 23 -2 3 -7 -2 -11 -11z"/>
<path d="M506 685 c-9 -26 -7 -32 5 -12 6 10 9 21 6 23 -2 3 -7 -2 -11 -11z"/>
<path d="M826 685 c-9 -26 -7 -32 5 -12 6 10 9 21 6 23 -2 3 -7 -2 -11 -11z"/>
<path d="M46 673 c-6 -14 -5 -15 5 -6 7 7 10 15 7 18 -3 3 -9 -2 -12 -12z"/>
<path d="M126 675 c-3 -8 -1 -15 4 -15 6 0 10 7 10 15 0 8 -2 15 -4 15 -2 0
-6 -7 -10 -15z"/>
<path d="M366 673 c-6 -14 -5 -15 5 -6 7 7 10 15 7 18 -3 3 -9 -2 -12 -12z"/>
<path d="M446 675 c-3 -8 -1 -15 4 -15 6 0 10 7 10 15 0 8 -2 15 -4 15 -2 0
-6 -7 -10 -15z"/>
<path d="M686 673 c-6 -14 -5 -15 5 -6 7 7 10 15 7 18 -3 3 -9 -2 -12 -12z"/>
<path d="M766 675 c-3 -8 -1 -15 4 -15 6 0 10 7 10 15 0 8 -2 15 -4 15 -2 0
-6 -7 -10 -15z"/>
<path d="M247 669 c7 -7 15 -10 18 -7 3 3 -2 9 -12 12 -14 6 -15 5 -6 -5z"/>
<path d="M565 670 c3 -5 11 -10 16 -10 6 0 7 5 4 10 -3 6 -11 10 -16 10 -6 0
-7 -4 -4 -10z"/>
<path d="M885 670 c3 -5 11 -10 16 -10 6 0 7 5 4 10 -3 6 -11 10 -16 10 -6 0
-7 -4 -4 -10z"/>
<path d="M60 616 c0 -2 8 -10 18 -17 15 -13 16 -12 3 4 -13 16 -21 21 -21 13z"/>
<path d="M136 604 c-5 -14 -4 -15 9 -4 17 14 19 20 6 20 -5 0 -12 -7 -15 -16z"/>
<path d="M219 603 c-13 -16 -12 -17 4 -4 9 7 17 15 17 17 0 8 -8 3 -21 -13z"/>
<path d="M371 617 c2 -1 13 -9 24 -17 19 -14 19 -14 6 3 -7 9 -18 17 -24 17
-6 0 -8 -1 -6 -3z"/>
<path d="M456 604 c-5 -14 -4 -15 9 -4 17 14 19 20 6 20 -5 0 -12 -7 -15 -16z"/>
<path d="M539 603 c-13 -16 -12 -17 4 -4 9 7 17 15 17 17 0 8 -8 3 -21 -13z"/>
<path d="M700 616 c0 -2 8 -10 18 -17 15 -13 16 -12 3 4 -13 16 -21 21 -21 13z"/>
<path d="M776 604 c-5 -14 -4 -15 9 -4 17 14 19 20 6 20 -5 0 -12 -7 -15 -16z"/>
<path d="M859 603 c-13 -16 -12 -17 4 -4 16 13 21 21 13 21 -2 0 -10 -8 -17
-17z"/>
<path d="M20 570 c0 -6 7 -10 15 -10 8 0 15 2 15 4 0 2 -7 6 -15 10 -8 3 -15
1 -15 -4z"/>
<path d="M145 570 c3 -5 8 -10 11 -10 3 0 2 5 -1 10 -3 6 -8 10 -11 10 -3 0
-2 -4 1 -10z"/>
<path d="M219 563 c-13 -16 -12 -17 4 -4 9 7 17 15 17 17 0 8 -8 3 -21 -13z"/>
<path d="M340 570 c0 -6 7 -10 15 -10 8 0 15 2 15 4 0 2 -7 6 -15 10 -8 3 -15
1 -15 -4z"/>
<path d="M465 570 c3 -5 8 -10 11 -10 3 0 2 5 -1 10 -3 6 -8 10 -11 10 -3 0
-2 -4 1 -10z"/>
<path d="M539 563 c-13 -16 -12 -17 4 -4 9 7 17 15 17 17 0 8 -8 3 -21 -13z"/>
<path d="M660 570 c0 -6 7 -10 15 -10 8 0 15 2 15 4 0 2 -7 6 -15 10 -8 3 -15
1 -15 -4z"/>
<path d="M785 570 c3 -5 8 -10 11 -10 3 0 2 5 -1 10 -3 6 -8 10 -11 10 -3 0
-2 -4 1 -10z"/>
<path d="M859 563 c-13 -16 -12 -17 4 -4 16 13 21 21 13 21 -2 0 -10 -8 -17
-17z"/>
<path d="M70 546 c0 -2 8 -10 18 -17 15 -13 16 -12 3 4 -13 16 -21 21 -21 13z"/>
<path d="M390 546 c0 -2 8 -10 18 -17 15 -13 16 -12 3 4 -13 16 -21 21 -21 13z"/>
<path d="M710 546 c0 -2 8 -10 18 -17 15 -13 16 -12 3 4 -13 16 -21 21 -21 13z"/>
<path d="M279 523 c-13 -16 -12 -17 4 -4 16 13 21 21 13 21 -2 0 -10 -8 -17
-17z"/>
<path d="M599 523 c-13 -16 -12 -17 4 -4 16 13 21 21 13 21 -2 0 -10 -8 -17
-17z"/>
<path d="M919 523 c-13 -16 -12 -17 4 -4 16 13 21 21 13 21 -2 0 -10 -8 -17
-17z"/>
<path d="M180 510 c-9 -6 -10 -10 -3 -10 6 0 15 5 18 10 8 12 4 12 -15 0z"/>
<path d="M500 510 c-9 -6 -10 -10 -3 -10 6 0 15 5 18 10 8 12 4 12 -15 0z"/>
<path d="M820 510 c-9 -6 -10 -10 -3 -10 6 0 15 5 18 10 8 12 4 12 -15 0z"/>
<path d="M20 480 c0 -5 7 -7 15 -4 8 4 15 8 15 10 0 2 -7 4 -15 4 -8 0 -15 -4
-15 -10z"/>
<path d="M230 486 c0 -2 8 -10 18 -17 15 -13 16 -12 3 4 -13 16 -21 21 -21 13z"/>
<path d="M280 480 c-13 -8 -12 -10 3 -10 9 0 17 5 17 10 0 12 -1 12 -20 0z"/>
<path d="M340 480 c0 -5 7 -7 15 -4 8 4 15 8 15 10 0 2 -7 4 -15 4 -8 0 -15
-4 -15 -10z"/>
<path d="M550 486 c0 -2 8 -10 18 -17 15 -13 16 -12 3 4 -13 16 -21 21 -21 13z"/>
<path d="M600 480 c-13 -8 -12 -10 3 -10 9 0 17 5 17 10 0 12 -1 12 -20 0z"/>
<path d="M660 480 c0 -5 7 -7 15 -4 8 4 15 8 15 10 0 2 -7 4 -15 4 -8 0 -15
-4 -15 -10z"/>
<path d="M870 486 c0 -2 8 -10 18 -17 15 -13 16 -12 3 4 -13 16 -21 21 -21 13z"/>
<path d="M920 480 c-13 -8 -12 -10 3 -10 9 0 17 5 17 10 0 12 -1 12 -20 0z"/>
<path d="M80 476 c0 -2 7 -7 16 -10 8 -3 12 -2 9 4 -6 10 -25 14 -25 6z"/>
<path d="M400 476 c0 -2 7 -7 16 -10 8 -3 12 -2 9 4 -6 10 -25 14 -25 6z"/>
<path d="M720 476 c0 -2 7 -7 16 -10 8 -3 12 -2 9 4 -6 10 -25 14 -25 6z"/>
<path d="M144 448 c-4 -7 -3 -8 4 -4 12 7 16 16 8 16 -3 0 -8 -5 -12 -12z"/>
<path d="M464 448 c-4 -7 -3 -8 4 -4 12 7 16 16 8 16 -3 0 -8 -5 -12 -12z"/>
<path d="M784 448 c-4 -7 -3 -8 4 -4 7 4 12 9 12 12 0 8 -9 4 -16 -8z"/>
<path d="M25 430 c-3 -6 1 -7 9 -4 18 7 21 14 7 14 -6 0 -13 -4 -16 -10z"/>
<path d="M345 430 c-3 -6 1 -7 9 -4 18 7 21 14 7 14 -6 0 -13 -4 -16 -10z"/>
<path d="M665 430 c-3 -6 1 -7 9 -4 18 7 21 14 7 14 -6 0 -13 -4 -16 -10z"/>
<path d="M210 426 c0 -2 8 -10 18 -17 15 -13 16 -12 3 4 -13 16 -21 21 -21 13z"/>
<path d="M270 426 c0 -2 8 -10 18 -17 15 -13 16 -12 3 4 -13 16 -21 21 -21 13z"/>
<path d="M530 426 c0 -2 8 -10 18 -17 15 -13 16 -12 3 4 -13 16 -21 21 -21 13z"/>
<path d="M590 426 c0 -2 8 -10 18 -17 15 -13 16 -12 3 4 -13 16 -21 21 -21 13z"/>
<path d="M850 426 c0 -2 8 -10 18 -17 15 -13 16 -12 3 4 -13 16 -21 21 -21 13z"/>
<path d="M910 426 c0 -2 8 -10 18 -17 15 -13 16 -12 3 4 -13 16 -21 21 -21 13z"/>
<path d="M186 407 c3 -10 9 -15 12 -12 3 3 0 11 -7 18 -10 9 -11 8 -5 -6z"/>
<path d="M506 407 c3 -10 9 -15 12 -12 3 3 0 11 -7 18 -10 9 -11 8 -5 -6z"/>
<path d="M826 407 c3 -10 9 -15 12 -12 3 3 0 11 -7 18 -10 9 -11 8 -5 -6z"/>
<path d="M104 388 c-4 -7 -3 -8 4 -4 7 4 12 9 12 12 0 8 -9 4 -16 -8z"/>
<path d="M424 388 c-4 -7 -3 -8 4 -4 7 4 12 9 12 12 0 8 -9 4 -16 -8z"/>
<path d="M744 388 c-4 -7 -3 -8 4 -4 7 4 12 9 12 12 0 8 -9 4 -16 -8z"/>
<path d="M186 365 c-9 -26 -7 -32 5 -12 6 10 9 21 6 23 -2 3 -7 -2 -11 -11z"/>
<path d="M506 365 c-9 -26 -7 -32 5 -12 6 10 9 21 6 23 -2 3 -7 -2 -11 -11z"/>
<path d="M826 365 c-9 -26 -7 -32 5 -12 6 10 9 21 6 23 -2 3 -7 -2 -11 -11z"/>
<path d="M46 353 c-6 -14 -5 -15 5 -6 7 7 10 15 7 18 -3 3 -9 -2 -12 -12z"/>
<path d="M126 355 c-3 -9 0 -15 9 -15 9 0 12 6 9 15 -4 8 -7 15 -9 15 -2 0 -5
-7 -9 -15z"/>
<path d="M366 353 c-6 -14 -5 -15 5 -6 7 7 10 15 7 18 -3 3 -9 -2 -12 -12z"/>
<path d="M446 355 c-3 -8 -1 -15 4 -15 6 0 10 7 10 15 0 8 -2 15 -4 15 -2 0
-6 -7 -10 -15z"/>
<path d="M686 353 c-6 -14 -5 -15 5 -6 7 7 10 15 7 18 -3 3 -9 -2 -12 -12z"/>
<path d="M766 355 c-3 -8 -1 -15 4 -15 6 0 10 7 10 15 0 8 -2 15 -4 15 -2 0
-6 -7 -10 -15z"/>
<path d="M245 350 c3 -5 8 -10 11 -10 2 0 4 5 4 10 0 6 -5 10 -11 10 -5 0 -7
-4 -4 -10z"/>
<path d="M565 350 c3 -5 11 -10 16 -10 6 0 7 5 4 10 -3 6 -11 10 -16 10 -6 0
-7 -4 -4 -10z"/>
<path d="M885 350 c3 -5 11 -10 16 -10 6 0 7 5 4 10 -3 6 -11 10 -16 10 -6 0
-7 -4 -4 -10z"/>
<path d="M51 297 c2 -1 13 -9 24 -17 19 -14 19 -14 6 3 -7 9 -18 17 -24 17 -6
0 -8 -1 -6 -3z"/>
<path d="M136 284 c-5 -14 -4 -15 9 -4 17 14 19 20 6 20 -5 0 -12 -7 -15 -16z"/>
<path d="M219 283 c-13 -16 -12 -17 4 -4 9 7 17 15 17 17 0 8 -8 3 -21 -13z"/>
<path d="M380 296 c0 -2 8 -10 18 -17 15 -13 16 -12 3 4 -13 16 -21 21 -21 13z"/>
<path d="M456 284 c-5 -14 -4 -15 9 -4 17 14 19 20 6 20 -5 0 -12 -7 -15 -16z"/>
<path d="M539 283 c-13 -16 -12 -17 4 -4 16 13 21 21 13 21 -2 0 -10 -8 -17
-17z"/>
<path d="M691 297 c2 -1 13 -9 24 -17 19 -14 19 -14 6 3 -7 9 -18 17 -24 17
-6 0 -8 -1 -6 -3z"/>
<path d="M776 284 c-5 -14 -4 -15 9 -4 17 14 19 20 6 20 -5 0 -12 -7 -15 -16z"/>
<path d="M859 283 c-13 -16 -12 -17 4 -4 16 13 21 21 13 21 -2 0 -10 -8 -17
-17z"/>
<path d="M20 250 c0 -6 7 -10 15 -10 8 0 15 2 15 4 0 2 -7 6 -15 10 -8 3 -15
1 -15 -4z"/>
<path d="M145 250 c3 -5 8 -10 11 -10 3 0 2 5 -1 10 -3 6 -8 10 -11 10 -3 0
-2 -4 1 -10z"/>
<path d="M219 243 c-13 -16 -12 -17 4 -4 9 7 17 15 17 17 0 8 -8 3 -21 -13z"/>
<path d="M340 250 c0 -6 7 -10 15 -10 8 0 15 2 15 4 0 2 -7 6 -15 10 -8 3 -15
1 -15 -4z"/>
<path d="M465 250 c3 -5 8 -10 11 -10 3 0 2 5 -1 10 -3 6 -8 10 -11 10 -3 0
-2 -4 1 -10z"/>
<path d="M539 243 c-13 -16 -12 -17 4 -4 16 13 21 21 13 21 -2 0 -10 -8 -17
-17z"/>
<path d="M660 250 c0 -6 7 -10 15 -10 8 0 15 2 15 4 0 2 -7 6 -15 10 -8 3 -15
1 -15 -4z"/>
<path d="M785 250 c3 -5 8 -10 11 -10 3 0 2 5 -1 10 -3 6 -8 10 -11 10 -3 0
-2 -4 1 -10z"/>
<path d="M859 243 c-13 -16 -12 -17 4 -4 16 13 21 21 13 21 -2 0 -10 -8 -17
-17z"/>
<path d="M70 226 c0 -2 8 -10 18 -17 15 -13 16 -12 3 4 -13 16 -21 21 -21 13z"/>
<path d="M390 226 c0 -2 8 -10 18 -17 15 -13 16 -12 3 4 -13 16 -21 21 -21 13z"/>
<path d="M710 226 c0 -2 8 -10 18 -17 15 -13 16 -12 3 4 -13 16 -21 21 -21 13z"/>
<path d="M279 203 c-13 -16 -12 -17 4 -4 9 7 17 15 17 17 0 8 -8 3 -21 -13z"/>
<path d="M599 203 c-13 -16 -12 -17 4 -4 9 7 17 15 17 17 0 8 -8 3 -21 -13z"/>
<path d="M919 203 c-13 -16 -12 -17 4 -4 16 13 21 21 13 21 -2 0 -10 -8 -17
-17z"/>
<path d="M180 190 c-9 -6 -10 -10 -3 -10 6 0 15 5 18 10 8 12 4 12 -15 0z"/>
<path d="M500 190 c-9 -6 -10 -10 -3 -10 6 0 15 5 18 10 8 12 4 12 -15 0z"/>
<path d="M820 190 c-9 -6 -10 -10 -3 -10 6 0 15 5 18 10 8 12 4 12 -15 0z"/>
<path d="M20 160 c0 -5 7 -7 15 -4 8 4 15 8 15 10 0 2 -7 4 -15 4 -8 0 -15 -4
-15 -10z"/>
<path d="M230 166 c0 -2 8 -10 18 -17 15 -13 16 -12 3 4 -13 16 -21 21 -21 13z"/>
<path d="M280 160 c-13 -8 -12 -10 3 -10 9 0 17 5 17 10 0 12 -1 12 -20 0z"/>
<path d="M340 160 c0 -5 7 -7 15 -4 8 4 15 8 15 10 0 2 -7 4 -15 4 -8 0 -15
-4 -15 -10z"/>
<path d="M550 166 c0 -2 8 -10 18 -17 15 -13 16 -12 3 4 -13 16 -21 21 -21 13z"/>
<path d="M600 160 c-13 -8 -12 -10 3 -10 9 0 17 5 17 10 0 12 -1 12 -20 0z"/>
<path d="M660 160 c0 -5 7 -7 15 -4 8 4 15 8 15 10 0 2 -7 4 -15 4 -8 0 -15
-4 -15 -10z"/>
<path d="M870 166 c0 -2 8 -10 18 -17 15 -13 16 -12 3 4 -13 16 -21 21 -21 13z"/>
<path d="M920 160 c-13 -8 -12 -10 3 -10 9 0 17 5 17 10 0 12 -1 12 -20 0z"/>
<path d="M80 156 c0 -2 7 -7 16 -10 8 -3 12 -2 9 4 -6 10 -25 14 -25 6z"/>
<path d="M400 156 c0 -2 7 -7 16 -10 8 -3 12 -2 9 4 -6 10 -25 14 -25 6z"/>
<path d="M720 156 c0 -2 7 -7 16 -10 8 -3 12 -2 9 4 -6 10 -25 14 -25 6z"/>
<path d="M144 128 c-4 -7 -3 -8 4 -4 12 7 16 16 8 16 -3 0 -8 -5 -12 -12z"/>
<path d="M464 128 c-4 -7 -3 -8 4 -4 12 7 16 16 8 16 -3 0 -8 -5 -12 -12z"/>
<path d="M784 128 c-4 -7 -3 -8 4 -4 7 4 12 9 12 12 0 8 -9 4 -16 -8z"/>
<path d="M25 110 c-3 -6 1 -7 9 -4 18 7 21 14 7 14 -6 0 -13 -4 -16 -10z"/>
<path d="M345 110 c-3 -6 1 -7 9 -4 18 7 21 14 7 14 -6 0 -13 -4 -16 -10z"/>
<path d="M665 110 c-3 -6 1 -7 9 -4 18 7 21 14 7 14 -6 0 -13 -4 -16 -10z"/>
<path d="M210 106 c0 -2 8 -10 18 -17 15 -13 16 -12 3 4 -13 16 -21 21 -21 13z"/>
<path d="M270 106 c0 -2 8 -10 18 -17 15 -13 16 -12 3 4 -13 16 -21 21 -21 13z"/>
<path d="M530 106 c0 -2 8 -10 18 -17 15 -13 16 -12 3 4 -13 16 -21 21 -21 13z"/>
<path d="M590 106 c0 -2 8 -10 18 -17 15 -13 16 -12 3 4 -13 16 -21 21 -21 13z"/>
<path d="M850 106 c0 -2 8 -10 18 -17 15 -13 16 -12 3 4 -13 16 -21 21 -21 13z"/>
<path d="M910 106 c0 -2 8 -10 18 -17 15 -13 16 -12 3 4 -13 16 -21 21 -21 13z"/>
<path d="M186 87 c3 -10 9 -15 12 -12 3 3 0 11 -7 18 -10 9 -11 8 -5 -6z"/>
<path d="M506 87 c3 -10 9 -15 12 -12 3 3 0 11 -7 18 -10 9 -11 8 -5 -6z"/>
<path d="M826 87 c3 -10 9 -15 12 -12 3 3 0 11 -7 18 -10 9 -11 8 -5 -6z"/>
<path d="M104 68 c-4 -7 -3 -8 4 -4 7 4 12 9 12 12 0 8 -9 4 -16 -8z"/>
<path d="M424 68 c-4 -7 -3 -8 4 -4 12 7 16 16 8 16 -3 0 -8 -5 -12 -12z"/>
<path d="M744 68 c-4 -7 -3 -8 4 -4 7 4 12 9 12 12 0 8 -9 4 -16 -8z"/>
<path d="M186 45 c-9 -26 -7 -32 5 -12 6 10 9 21 6 23 -2 3 -7 -2 -11 -11z"/>
<path d="M506 45 c-9 -26 -7 -32 5 -12 6 10 9 21 6 23 -2 3 -7 -2 -11 -11z"/>
<path d="M826 45 c-9 -26 -7 -32 5 -12 6 10 9 21 6 23 -2 3 -7 -2 -11 -11z"/>
<path d="M46 33 c-6 -14 -5 -15 5 -6 7 7 10 15 7 18 -3 3 -9 -2 -12 -12z"/>
<path d="M126 35 c-3 -8 -1 -15 4 -15 6 0 10 7 10 15 0 8 -2 15 -4 15 -2 0 -6
-7 -10 -15z"/>
<path d="M366 33 c-6 -14 -5 -15 5 -6 7 7 10 15 7 18 -3 3 -9 -2 -12 -12z"/>
<path d="M446 35 c-3 -8 -1 -15 4 -15 6 0 10 7 10 15 0 8 -2 15 -4 15 -2 0 -6
-7 -10 -15z"/>
<path d="M686 33 c-6 -14 -5 -15 5 -6 7 7 10 15 7 18 -3 3 -9 -2 -12 -12z"/>
<path d="M766 35 c-3 -8 -1 -15 4 -15 6 0 10 7 10 15 0 8 -2 15 -4 15 -2 0 -6
-7 -10 -15z"/>
<path d="M245 30 c3 -5 11 -10 16 -10 6 0 7 5 4 10 -3 6 -11 10 -16 10 -6 0
-7 -4 -4 -10z"/>
<path d="M565 30 c3 -5 11 -10 16 -10 6 0 7 5 4 10 -3 6 -11 10 -16 10 -6 0
-7 -4 -4 -10z"/>
<path d="M885 30 c3 -5 11 -10 16 -10 6 0 7 5 4 10 -3 6 -11 10 -16 10 -6 0
-7 -4 -4 -10z"/>
</g>
  </g>
</svg>
