<?xml version="1.0" encoding="UTF-8" standalone="no"?>
<!-- Created with Inkscape (http://www.inkscape.org/) -->

<svg
   xmlns:dc="http://purl.org/dc/elements/1.1/"
   xmlns:cc="http://creativecommons.org/ns#"
   xmlns:rdf="http://www.w3.org/1999/02/22-rdf-syntax-ns#"
   xmlns:svg="http://www.w3.org/2000/svg"
   xmlns="http://www.w3.org/2000/svg"
   xmlns:sodipodi="http://sodipodi.sourceforge.net/DTD/sodipodi-0.dtd"
   xmlns:inkscape="http://www.inkscape.org/namespaces/inkscape"
   width="16px"
   height="16px"
   viewBox="0 0 16px 16px"
   version="1.1"
   id="svgMain"
   inkscape:version="0.92.2 (5c3e80d, 2017-08-06)"
   sodipodi:docname="reference_SVG.svg">
  <defs
     id="defs4542" />
  <sodipodi:namedview
     id="base"
     pagecolor="#ffffff"
     bordercolor="#666666"
     borderopacity="1.0"
     inkscape:pageopacity="0.0"
     inkscape:pageshadow="2"
     inkscape:zoom="1"
     inkscape:cx="0"
     inkscape:cy="0"
     inkscape:document-units="px"
     inkscape:current-layer="layer1"
     showgrid="false"
     units="px"
     inkscape:window-width="1024"
     inkscape:window-height="768"
     inkscape:window-x="-8"
     inkscape:window-y="-8"
     inkscape:window-maximized="1" />
  <metadata
     id="metadata1">
    <rdf:RDF>
      <cc:Work
         rdf:about="">
        <dc:format>image/svg+xml</dc:format>
        <dc:type
           rdf:resource="http://purl.org/dc/dcmitype/StillImage" />
        <dc:title />
      </cc:Work>
    </rdf:RDF>
  </metadata>
  <g transform="translate(-16,-16) scale(0.5,0.5)"
     inkscape:label="Layer 1"
     inkscape:groupmode="layer"
     id="layer1">
    <!-- INSERT MARKER -->
<g transform="translate(0.000000,96.000000) scale(0.100000,-0.100000)"
fill="#0e6919" stroke="none">
<path d="M20 941 c0 -11 -6 -22 -12 -24 -10 -4 -9 -6 1 -6 11 -1 11 -4 0 -18
-10 -11 -10 -14 -1 -9 8 5 12 -1 12 -19 0 -18 -4 -24 -12 -19 -10 6 -10 4 0
-8 10 -13 10 -17 0 -21 -10 -4 -10 -6 0 -6 7 -1 12 -14 12 -32 0 -21 -4 -28
-12 -23 -10 6 -10 4 0 -8 10 -13 10 -17 0 -21 -10 -4 -10 -6 1 -6 11 -1 11 -4
0 -18 -10 -11 -10 -14 -2 -9 10 5 13 -5 13 -43 0 -30 -5 -51 -12 -54 -10 -4
-9 -6 1 -6 11 -1 11 -4 0 -18 -10 -11 -10 -14 -1 -9 8 5 12 -1 12 -19 0 -18
-4 -24 -12 -19 -10 6 -10 4 0 -8 10 -13 10 -17 0 -21 -10 -4 -10 -6 0 -6 7 -1
12 -14 12 -32 0 -21 -4 -28 -12 -23 -10 6 -10 4 0 -8 10 -13 10 -17 0 -21 -10
-4 -10 -6 1 -6 11 -1 11 -4 0 -18 -10 -11 -10 -14 -2 -9 10 5 13 -5 13 -43 0
-30 -5 -51 -13 -54 -9 -4 -8 -6 2 -6 11 -1 11 -4 0 -18 -10 -11 -10 -14 -2 -9
9 5 13 -1 13 -19 0 -18 -4 -24 -12 -19 -10 6 -10 4 0 -8 10 -13 10 -17 0 -21
-10 -4 -10 -6 0 -6 7 -1 12 -14 12 -32 0 -21 -4 -28 -12 -23 -10 6 -10 4 0 -8
10 -13 10 -17 0 -21 -10 -4 -10 -6 1 -6 11 -1 11 -4 0 -18 -10 -11 -10 -14 -2
-9 9 5 13 -2 13 -23 l0 -31 140 0 140 0 1 38 c1 20 2 45 2 54 0 19 22 24 32 8
3 -5 0 -10 -7 -10 -9 0 -9 -3 2 -10 14 -9 7 -14 -13 -11 -5 1 -6 -3 -2 -9 3
-6 11 -8 16 -5 5 4 9 -8 9 -24 l0 -31 140 0 140 0 1 38 c1 20 2 45 2 55 0 18
22 23 32 7 3 -5 0 -10 -7 -10 -9 0 -9 -3 2 -10 14 -9 7 -14 -13 -11 -5 1 -6
-3 -2 -9 3 -6 11 -8 16 -5 5 4 9 -8 9 -24 l0 -31 140 0 140 0 0 36 c0 24 4 33
12 28 7 -5 8 -3 2 7 -12 19 -12 33 1 41 6 5 6 8 -2 8 -17 0 -17 57 0 63 9 4 8
6 -2 6 -11 1 -11 4 0 18 10 11 10 14 2 9 -9 -5 -13 1 -13 19 0 18 4 24 13 19
9 -6 9 -4 -1 8 -10 13 -10 17 0 21 10 4 10 6 1 6 -9 1 -13 18 -13 52 0 37 3
48 13 43 9 -6 9 -5 0 7 -16 20 -17 31 -1 40 10 7 10 9 1 9 -8 0 -13 13 -13 29
0 16 6 32 13 34 9 4 8 6 -2 6 -11 1 -11 4 0 18 10 11 10 14 2 9 -9 -5 -13 1
-13 19 0 18 4 24 13 19 9 -6 9 -4 -1 8 -10 13 -10 17 0 21 10 4 10 6 1 6 -9 1
-13 18 -13 52 0 37 3 48 13 43 9 -6 9 -5 0 7 -16 20 -17 31 -1 40 10 7 10 9 1
9 -17 0 -17 57 0 63 9 4 8 6 -2 6 -11 1 -11 4 0 18 10 11 10 14 2 9 -9 -5 -13
1 -13 19 0 18 4 24 13 19 9 -6 9 -4 -1 8 -10 13 -10 17 0 21 10 4 10 6 1 6 -7
1 -13 8 -13 16 0 13 -22 15 -140 15 -136 0 -140 -1 -140 -21 0 -15 -4 -19 -16
-15 -9 3 -18 6 -20 6 -2 0 -4 7 -4 15 0 13 -22 15 -140 15 -136 0 -140 -1
-140 -21 0 -15 -4 -19 -16 -15 -9 3 -18 6 -20 6 -2 0 -4 7 -4 15 0 13 -22 15
-140 15 -131 0 -140 -1 -140 -19z m304 -27 c9 -3 13 -10 10 -15 -3 -5 -10 -6
-16 -3 -7 4 -8 2 -4 -5 4 -6 12 -9 17 -5 6 3 9 -9 7 -30 -1 -26 -6 -35 -16
-31 -7 3 -16 5 -18 5 -3 0 -2 5 1 10 4 6 11 7 17 4 7 -4 8 -2 4 5 -4 6 -12 9
-17 5 -6 -3 -9 9 -7 30 1 20 3 36 4 36 1 0 9 -3 18 -6z m320 0 c9 -3 13 -10
10 -15 -3 -5 -10 -6 -16 -3 -7 4 -8 2 -4 -5 4 -6 12 -9 17 -5 6 3 9 -9 7 -30
-1 -26 -6 -35 -16 -31 -7 3 -16 5 -18 5 -3 0 -2 5 1 10 4 6 11 7 17 4 7 -4 8
-2 4 5 -4 6 -12 9 -17 5 -6 -3 -9 9 -7 30 1 20 3 36 4 36 1 0 9 -3 18 -6z
m-320 -100 c9 -4 16 -18 16 -34 0 -23 -4 -27 -20 -23 -14 4 -20 14 -20 34 0
31 1 32 24 23z m320 0 c9 -4 16 -18 16 -34 0 -23 -4 -27 -20 -23 -14 4 -20 14
-20 34 0 31 1 32 24 23z m-309 -74 c3 -5 0 -10 -7 -10 -9 0 -9 -3 2 -10 14 -9
7 -14 -13 -11 -5 1 -6 -3 -2 -9 3 -6 11 -8 16 -5 5 4 9 -16 9 -44 0 -51 -4
-58 -28 -42 -17 11 -13 141 5 141 6 0 15 -4 18 -10z m320 0 c3 -5 0 -10 -7
-10 -9 0 -9 -3 2 -10 14 -9 7 -14 -13 -11 -5 1 -6 -3 -2 -9 3 -6 11 -8 16 -5
5 4 9 -16 9 -44 0 -51 -4 -58 -28 -42 -17 11 -13 141 5 141 6 0 15 -4 18 -10z
m-331 -146 c9 -3 13 -10 10 -15 -3 -5 -10 -6 -16 -3 -7 4 -8 2 -4 -5 4 -6 12
-9 17 -5 6 3 9 -9 7 -30 -1 -26 -6 -35 -16 -31 -7 3 -16 5 -18 5 -3 0 -2 5 1
10 4 6 11 7 17 4 7 -4 8 -2 4 5 -4 6 -12 9 -17 5 -6 -3 -9 9 -7 30 1 20 3 36
4 36 1 0 9 -3 18 -6z m320 0 c9 -3 13 -10 10 -15 -3 -5 -10 -6 -16 -3 -7 4 -8
2 -4 -5 4 -6 12 -9 17 -5 6 3 9 -9 7 -30 -1 -26 -6 -35 -16 -31 -7 3 -16 5
-18 5 -3 0 -2 5 1 10 4 6 11 7 17 4 7 -4 8 -2 4 5 -4 6 -12 9 -17 5 -6 -3 -9
9 -7 30 1 20 3 36 4 36 1 0 9 -3 18 -6z m-320 -100 c9 -4 16 -18 16 -34 0 -23
-4 -27 -20 -23 -14 4 -20 14 -20 34 0 31 1 32 24 23z m320 0 c9 -4 16 -18 16
-34 0 -23 -4 -27 -20 -23 -14 4 -20 14 -20 34 0 31 1 32 24 23z m-309 -74 c3
-5 0 -10 -7 -10 -9 0 -9 -3 2 -10 14 -9 7 -14 -13 -11 -5 1 -6 -3 -2 -9 3 -6
11 -8 16 -5 5 4 9 -16 9 -44 0 -51 -4 -58 -28 -42 -17 11 -13 141 5 141 6 0
15 -4 18 -10z m320 0 c3 -5 0 -10 -7 -10 -9 0 -9 -3 2 -10 14 -9 7 -14 -13
-11 -5 1 -6 -3 -2 -9 3 -6 11 -8 16 -5 5 4 9 -16 9 -44 0 -51 -4 -58 -28 -42
-17 11 -13 141 5 141 6 0 15 -4 18 -10z m-331 -146 c9 -3 13 -10 10 -15 -3 -5
-10 -6 -16 -3 -7 4 -8 2 -4 -5 4 -6 12 -9 17 -5 6 3 9 -9 7 -30 -1 -26 -6 -35
-16 -31 -7 3 -16 5 -18 5 -3 0 -2 5 1 10 4 6 11 7 17 4 7 -4 8 -2 4 5 -4 6
-12 9 -17 5 -6 -3 -9 9 -7 30 1 20 3 36 4 36 1 0 9 -3 18 -6z m320 0 c9 -3 13
-10 10 -15 -3 -5 -10 -6 -16 -3 -7 4 -8 2 -4 -5 4 -6 12 -9 17 -5 6 3 9 -9 7
-30 -1 -26 -6 -35 -16 -31 -7 3 -16 5 -18 5 -3 0 -2 5 1 10 4 6 11 7 17 4 7
-4 8 -2 4 5 -4 6 -12 9 -17 5 -6 -3 -9 9 -7 30 1 20 3 36 4 36 1 0 9 -3 18 -6z
m-320 -100 c9 -4 16 -18 16 -34 0 -23 -4 -27 -20 -23 -14 4 -20 14 -20 34 0
31 1 32 24 23z m320 0 c9 -4 16 -18 16 -34 0 -23 -4 -27 -20 -23 -14 4 -20 14
-20 34 0 31 1 32 24 23z"/>
</g>
<g transform="translate(0.000000,96.000000) scale(0.100000,-0.100000)"
fill="#128721" stroke="none">
<path d="M20 950 c0 -7 3 -10 7 -7 3 4 3 10 0 14 -4 3 -7 0 -7 -7z"/>
<path d="M40 946 c0 -8 5 -16 10 -18 11 -3 18 -32 22 -85 1 -21 6 -29 13 -24
21 17 42 8 37 -16 -4 -22 -15 -23 -18 -2 -3 19 -4 19 -18 7 -10 -9 -11 -15 -2
-20 7 -5 6 -8 -3 -8 -11 0 -9 -4 5 -15 13 -10 14 -13 3 -10 -12 4 -15 0 -14
-17 3 -35 -16 -70 -35 -65 -9 2 -17 -1 -17 -8 0 -7 6 -11 13 -8 9 3 12 -3 8
-22 -3 -15 -1 -24 4 -21 5 3 9 0 10 -7 1 -14 9 -66 18 -117 9 -56 11 -100 5
-100 -4 0 -15 -14 -25 -31 -15 -26 -16 -33 -5 -40 11 -7 11 -9 -3 -9 -9 0 -18
6 -21 13 -3 6 -4 2 -4 -10 1 -15 6 -20 19 -18 10 2 16 0 13 -5 -3 -4 -1 -10 3
-12 5 -1 5 -14 2 -28 l-7 -25 -11 28 c-7 16 -19 27 -29 26 -11 0 -13 -3 -5 -6
10 -4 10 -8 0 -21 -10 -12 -10 -14 -1 -8 9 5 13 1 13 -11 0 -14 2 -15 9 -4 6
9 11 10 15 2 4 -6 11 -9 16 -6 4 3 10 -2 14 -10 3 -8 1 -15 -5 -15 -6 0 -7 -5
-2 -12 4 -7 8 -16 9 -20 1 -5 2 -9 4 -10 10 -13 4 -37 -11 -46 -15 -10 -19 -9
-19 3 0 8 4 15 8 15 5 0 9 7 9 15 0 11 -6 13 -20 9 -14 -4 -18 -2 -14 7 2 8
11 13 18 11 9 -2 8 3 -4 16 -20 22 -54 27 -36 5 9 -9 8 -13 0 -13 -7 0 -3 -10
9 -22 11 -12 20 -29 20 -38 0 -9 5 -21 12 -28 10 -10 5 -11 -22 -7 -19 3 -29
2 -22 -1 9 -4 10 -10 3 -18 -8 -9 -6 -13 7 -13 17 0 47 24 47 38 0 4 3 11 8
15 4 4 7 0 7 -10 0 -26 -31 -68 -46 -62 -11 4 -11 2 -1 -14 6 -11 22 -20 34
-20 21 0 25 13 9 39 -6 9 -5 12 5 9 8 -3 14 -13 14 -23 0 -30 25 -30 26 -1 2
100 1 116 -15 131 -21 22 -23 53 -1 35 8 -7 12 -16 9 -21 -6 -10 19 -12 29 -3
3 3 2 17 -3 30 -7 17 -6 24 3 24 6 0 4 5 -6 11 -19 11 -24 64 -6 75 8 4 8 9 0
17 -15 15 -14 67 2 67 9 0 8 3 -2 9 -10 6 -12 19 -7 42 12 58 15 104 6 114
-13 17 -9 200 5 241 11 33 11 43 -1 66 -17 33 -18 70 -2 86 9 9 0 12 -40 12
-38 0 -52 -4 -52 -14z m27 -3 c-4 -3 -10 -3 -14 0 -3 4 0 7 7 7 7 0 10 -3 7
-7z m33 -18 c0 -8 -4 -15 -8 -15 -5 0 -9 7 -9 15 0 8 4 15 9 15 4 0 8 -7 8
-15z m7 -55 c1 -11 -4 -23 -10 -26 -7 -4 -9 -4 -5 0 4 5 3 19 -2 32 -7 17 -6
22 3 18 7 -2 13 -13 14 -24z m-7 -135 c0 -3 -2 -5 -5 -5 -3 0 -5 2 -5 5 0 3 2
5 5 5 3 0 5 -2 5 -5z m-7 -52 c-5 -12 -3 -14 8 -8 11 7 12 6 2 -7 -7 -8 -11
-18 -8 -21 3 -4 2 -5 -2 -2 -9 7 -13 37 -7 47 9 14 14 9 7 -9z m7 -84 c-6 -11
-7 -25 -3 -32 10 -16 14 -42 4 -31 -4 5 -13 22 -19 37 -10 23 -9 29 3 33 8 4
12 11 8 17 -3 6 -1 7 5 3 9 -5 9 -13 2 -27z m15 -119 c-1 -11 -4 -22 -8 -25
-4 -3 -5 -2 -3 1 2 3 -3 22 -11 42 -15 36 -15 37 4 19 11 -9 19 -26 18 -37z
m-18 -107 c-4 -3 -10 -3 -14 0 -3 4 0 7 7 7 7 0 10 -3 7 -7z m6 -30 c-3 -7 -8
-13 -12 -13 -4 0 -8 6 -8 13 0 8 6 14 13 14 7 0 10 -6 7 -14z m-7 -49 c-3 -8
-1 -25 5 -36 8 -16 8 -23 -2 -29 -12 -7 -12 -9 0 -9 8 0 12 -3 8 -6 -3 -3 -11
-3 -17 1 -8 5 -7 11 2 23 11 13 11 15 -4 10 -9 -4 -15 -2 -14 5 4 24 18 57 23
57 3 0 2 -7 -1 -16z m11 -171 c-4 -3 -7 0 -7 7 0 7 3 10 7 7 3 -4 3 -10 0 -14z
m-7 -18 c0 -3 -2 -5 -5 -5 -3 0 -5 2 -5 5 0 3 2 5 5 5 3 0 5 -2 5 -5z m0 -40
c0 -3 -2 -5 -5 -5 -3 0 -5 2 -5 5 0 3 2 5 5 5 3 0 5 -2 5 -5z"/>
<path d="M80 595 c0 -3 2 -5 5 -5 3 0 5 2 5 5 0 3 -2 5 -5 5 -3 0 -5 -2 -5 -5z"/>
<path d="M100 495 c0 -3 2 -5 5 -5 3 0 5 2 5 5 0 3 -2 5 -5 5 -3 0 -5 -2 -5
-5z"/>
<path d="M80 265 c0 -3 2 -5 5 -5 3 0 5 2 5 5 0 3 -2 5 -5 5 -3 0 -5 -2 -5 -5z"/>
<path d="M153 953 c4 -3 -1 -12 -11 -19 -16 -12 -15 -13 8 -23 14 -5 19 -10
12 -10 -9 -1 -10 -6 -4 -17 5 -9 7 -25 5 -35 -3 -11 0 -19 6 -19 7 0 10 4 7 9
-4 5 -2 19 2 32 10 26 -6 89 -21 89 -6 0 -7 -3 -4 -7z m17 -28 c0 -3 -2 -5 -5
-5 -3 0 -5 2 -5 5 0 3 2 5 5 5 3 0 5 -2 5 -5z"/>
<path d="M197 921 c4 -20 11 -39 17 -43 8 -5 7 -8 -1 -8 -7 0 -12 -3 -12 -7 4
-24 -3 -43 -15 -43 -7 0 -19 -6 -25 -14 -9 -10 -7 -16 5 -27 14 -11 15 -10 12
6 -1 10 2 20 8 22 8 3 11 -24 10 -87 0 -49 -5 -90 -10 -90 -6 0 -1 -7 10 -16
10 -8 12 -12 4 -8 -12 5 -12 4 -3 -6 6 -7 9 -19 6 -26 -3 -8 1 -22 8 -31 10
-12 10 -15 2 -9 -13 7 -17 -40 -15 -164 1 -33 -2 -41 -9 -30 -8 11 -9 7 -4
-15 3 -16 13 -36 22 -42 14 -11 14 -13 2 -14 -8 0 -22 -2 -31 -4 -15 -3 -16 0
-7 17 8 15 8 19 0 14 -6 -4 -11 -3 -11 3 0 5 6 12 13 14 9 4 9 6 0 6 -9 1 -10
8 -3 25 5 13 6 27 3 30 -4 3 0 6 8 6 11 0 11 2 -1 10 -8 5 -11 10 -7 10 4 0 3
9 -3 20 -8 15 -7 26 6 45 11 16 13 29 7 38 -10 13 -10 24 2 51 5 12 3 21 -6
27 -22 14 -32 10 -24 -8 13 -32 13 -113 -1 -113 -21 0 -22 -24 -1 -42 11 -10
15 -18 8 -18 -7 0 -9 -4 -6 -10 3 -5 1 -19 -5 -31 -9 -15 -9 -24 -1 -32 8 -8
6 -16 -6 -29 -9 -10 -11 -18 -6 -18 10 0 25 -39 27 -70 1 -8 5 -21 9 -27 5 -8
4 -13 -2 -13 -6 0 -11 -5 -11 -11 0 -6 -7 -18 -16 -27 -15 -14 -14 -16 7 -24
17 -7 20 -11 11 -17 -7 -4 -10 -15 -7 -23 3 -8 -1 -22 -9 -31 -14 -13 -14 -16
-1 -27 14 -11 19 -7 16 13 0 4 4 7 10 7 6 0 8 9 4 21 -6 16 -4 20 6 13 12 -6
12 -5 0 9 -7 9 -10 17 -7 17 4 0 2 9 -4 19 -7 15 -5 24 11 43 l20 23 -5 -37
c-2 -21 -1 -51 4 -67 5 -20 5 -31 -2 -33 -6 -2 -12 -12 -14 -21 -1 -12 5 -17
20 -17 23 0 25 15 11 83 -3 15 -1 27 5 27 5 0 10 5 10 11 0 5 -6 7 -12 3 -9
-5 -9 -2 1 9 15 18 26 23 16 7 -3 -5 -1 -10 6 -10 8 0 6 -6 -4 -18 -10 -10
-14 -22 -10 -25 3 -4 8 -22 9 -40 1 -17 3 -35 3 -39 2 -17 21 -7 21 11 0 11 5
23 10 26 14 9 12 25 -3 25 -16 0 -15 26 1 58 11 18 10 22 -2 22 -13 0 -13 6
-2 45 10 32 11 45 2 48 -8 3 -8 8 0 17 9 9 17 9 35 -1 42 -23 81 -11 57 18 -8
10 -6 13 6 13 9 0 17 -9 17 -20 2 -28 3 -33 12 -47 5 -8 4 -13 -2 -13 -7 0 -7
-8 -1 -26 13 -33 13 -37 -2 -28 -10 5 -10 4 -1 -6 6 -7 9 -19 6 -28 -4 -10 -2
-13 5 -8 7 4 12 3 12 -3 0 -5 -6 -12 -12 -15 -10 -4 -10 -7 -1 -12 7 -3 4 -13
-11 -29 -30 -32 -29 -55 1 -55 26 0 27 3 14 29 -8 13 -6 18 5 18 8 0 13 -6 10
-12 -5 -14 10 -42 18 -34 13 13 10 143 -3 134 -6 -3 -8 6 -5 21 3 15 1 23 -5
20 -5 -4 -12 -2 -16 4 -3 5 3 10 14 10 14 0 21 -6 21 -20 0 -11 4 -20 9 -20
12 0 20 49 9 56 -4 3 -6 10 -2 15 3 5 1 15 -4 22 -5 7 -9 58 -9 114 0 81 -4
105 -17 118 -21 22 -23 53 -1 35 8 -7 12 -16 9 -21 -6 -10 19 -12 29 -3 3 3 2
17 -3 30 -7 17 -6 24 3 24 6 0 4 5 -5 11 -21 12 -24 59 -6 77 9 9 9 12 0 12
-8 0 -11 22 -10 69 1 53 -2 73 -15 86 -22 22 -24 53 -2 35 8 -7 12 -16 9 -21
-6 -10 19 -12 29 -3 3 3 2 17 -3 30 -7 17 -6 24 3 24 6 0 4 5 -5 11 -21 12
-24 59 -5 78 10 10 0 12 -49 9 -37 -2 -61 -7 -61 -15 0 -6 9 -10 19 -8 10 2
16 0 13 -5 -3 -4 -1 -10 3 -12 5 -1 5 -14 2 -28 l-7 -25 -11 28 c-6 15 -17 28
-24 28 -7 1 -23 3 -36 4 -12 1 -24 -1 -27 -5 -5 -7 45 -35 58 -32 4 1 7 -6 7
-15 0 -14 2 -15 9 -4 6 9 11 10 15 2 4 -6 11 -9 16 -6 4 3 10 -2 14 -10 3 -8
0 -15 -6 -15 -7 0 -7 -4 0 -12 6 -7 11 -16 11 -20 1 -5 1 -9 2 -10 7 -23 3
-37 -12 -46 -15 -10 -19 -9 -19 3 0 8 4 15 8 15 5 0 9 7 9 15 0 11 -6 13 -20
9 -14 -4 -18 -2 -14 7 2 8 11 13 18 11 9 -2 7 4 -5 17 -10 11 -21 20 -25 19
-3 0 -8 1 -11 2 -19 7 -39 7 -34 -1 3 -5 9 -7 14 -4 4 3 14 -3 21 -12 12 -15
12 -16 -6 -9 -40 16 -58 19 -52 9 4 -6 19 -13 35 -16 18 -4 33 -16 41 -34 7
-15 17 -36 22 -45 8 -15 5 -17 -24 -12 -22 4 -28 3 -18 -4 8 -6 9 -12 3 -16
-6 -3 -13 -2 -17 4 -3 5 -12 10 -18 10 -14 -1 22 -23 42 -26 14 -3 46 23 46
37 0 4 3 11 8 15 14 14 7 -27 -9 -52 -11 -15 -23 -23 -32 -19 -13 5 -13 3 -1
-12 8 -10 19 -21 24 -25 6 -5 3 -8 -7 -8 -9 0 -18 6 -21 13 -3 6 -4 2 -4 -10
1 -15 6 -20 19 -18 10 2 16 0 13 -5 -3 -4 -1 -10 3 -12 5 -1 5 -14 1 -28 l-6
-25 -10 24 c-5 13 -24 29 -42 37 -17 7 -29 9 -26 4 3 -6 -2 -10 -12 -10 -13
-1 -10 -6 12 -17 17 -10 33 -16 38 -15 4 1 7 -6 7 -16 0 -13 2 -14 9 -3 6 9
11 10 15 2 4 -6 11 -9 16 -6 4 3 10 -2 14 -10 3 -8 1 -15 -5 -15 -6 0 -7 -5
-2 -12 4 -7 8 -16 9 -20 1 -5 2 -9 4 -10 10 -13 4 -37 -11 -46 -15 -10 -19 -9
-19 3 0 8 4 15 8 15 5 0 9 7 9 15 0 11 -6 13 -20 9 -14 -4 -18 -2 -14 7 2 8
11 13 18 11 9 -2 7 4 -5 17 -10 11 -22 18 -27 16 -4 -3 -10 -1 -14 4 -4 7 -14
6 -30 -1 -29 -13 -25 -23 13 -31 18 -4 33 -16 41 -34 7 -15 17 -36 22 -45 8
-15 5 -17 -24 -12 -22 4 -28 3 -18 -4 8 -6 9 -12 3 -16 -11 -7 -25 9 -28 32
-2 10 5 12 22 8 19 -5 24 -2 24 11 0 10 -4 14 -8 8 -4 -5 -18 -10 -31 -10 -13
0 -26 -5 -28 -12 -5 -14 29 -46 53 -49 16 -3 49 22 49 37 0 4 3 11 8 15 4 4 7
0 7 -10 0 -27 -31 -68 -47 -62 -9 4 -7 -4 7 -24 l21 -29 -21 4 c-11 2 -18 0
-15 -5 9 -15 -14 -21 -36 -9 -12 6 -19 7 -15 1 3 -5 -3 -12 -14 -15 -20 -5
-28 7 -11 17 10 7 9 20 -4 50 -6 13 -4 21 3 24 7 2 9 9 5 15 -12 19 -13 60 -1
74 7 9 7 13 -1 13 -13 0 -15 56 -2 64 10 7 9 31 -2 42 -12 12 -8 54 6 54 9 0
8 3 -2 9 -11 7 -11 9 0 14 11 4 11 6 1 6 -9 1 -10 6 -2 20 5 11 6 22 2 25 -11
7 -13 156 -2 156 9 0 8 19 -3 37 -4 7 -5 24 -1 38 6 24 4 25 -34 23 l-40 -1 5
-36z m219 13 c-3 -8 -1 -25 5 -36 8 -16 8 -23 -2 -29 -12 -7 -12 -9 0 -9 8 0
12 -3 8 -6 -3 -3 -11 -3 -17 1 -8 5 -7 11 2 23 11 13 11 15 -4 10 -9 -4 -15
-2 -14 5 4 24 18 57 23 57 3 0 2 -7 -1 -16z m-87 -23 c8 -5 9 -11 3 -15 -5 -3
-15 1 -22 9 -14 16 -3 20 19 6z m-99 -56 c0 -3 -2 -5 -5 -5 -3 0 -5 2 -5 5 0
3 2 5 5 5 3 0 5 -2 5 -5z m0 -20 c0 -3 -2 -5 -5 -5 -3 0 -5 2 -5 5 0 3 2 5 5
5 3 0 5 -2 5 -5z m6 -50 c0 -22 -3 -34 -10 -32 -10 4 -11 26 -1 55 7 20 10 14
11 -23z m191 -22 c-4 -3 -7 0 -7 7 0 7 3 10 7 7 3 -4 3 -10 0 -14z m-7 -18 c0
-3 -2 -5 -5 -5 -3 0 -5 2 -5 5 0 3 2 5 5 5 3 0 5 -2 5 -5z m-189 -22 c1 -10 2
-33 4 -51 2 -20 -1 -30 -6 -25 -12 12 -19 93 -8 93 5 0 9 -8 10 -17z m19 -8
c0 -3 -2 -5 -5 -5 -3 0 -5 2 -5 5 0 3 2 5 5 5 3 0 5 -2 5 -5z m170 -10 c0 -3
-2 -5 -5 -5 -3 0 -5 2 -5 5 0 3 2 5 5 5 3 0 5 -2 5 -5z m-4 -44 c1 -12 -1 -19
-5 -15 -3 3 -6 9 -6 12 0 4 -4 13 -9 21 -6 9 -5 12 5 9 8 -3 15 -15 15 -27z
m0 -47 c-3 -8 -1 -25 5 -36 8 -16 8 -23 -2 -29 -12 -7 -12 -9 0 -9 8 0 12 -3
8 -6 -3 -3 -11 -3 -17 1 -8 5 -7 11 2 23 11 13 11 15 -4 10 -9 -4 -15 -2 -14
5 4 24 18 57 23 57 3 0 2 -7 -1 -16z m-87 -23 c8 -5 9 -11 3 -15 -5 -3 -15 1
-22 9 -14 16 -3 20 19 6z m-149 -26 c0 -3 -2 -5 -5 -5 -3 0 -5 2 -5 5 0 3 2 5
5 5 3 0 5 -2 5 -5z m157 -62 c-8 -7 -37 9 -31 19 3 5 12 4 20 -3 8 -6 13 -14
11 -16z m-117 12 c0 -3 -2 -5 -5 -5 -3 0 -5 2 -5 5 0 3 2 5 5 5 3 0 5 -2 5 -5z
m15 -25 c-2 -11 1 -20 7 -20 6 0 9 -3 5 -6 -3 -3 -14 -1 -24 5 -10 6 -12 11
-5 11 6 0 11 3 11 8 -2 11 1 22 5 22 3 0 3 -9 1 -20z m192 -47 c-4 -3 -7 0 -7
7 0 7 3 10 7 7 3 -4 3 -10 0 -14z m-189 -5 c-2 -6 -10 -13 -16 -14 -7 -1 -8 0
-2 3 5 2 8 9 4 14 -3 5 0 9 6 9 7 0 10 -5 8 -12z m182 -13 c0 -3 -2 -5 -5 -5
-3 0 -5 2 -5 5 0 3 2 5 5 5 3 0 5 -2 5 -5z m-190 -25 c-12 -8 -12 -10 5 -10
17 0 17 -2 5 -10 -23 -15 -30 -12 -30 10 0 12 7 20 18 20 14 0 15 -2 2 -10z
m190 -15 c0 -3 -2 -5 -5 -5 -3 0 -5 2 -5 5 0 3 2 5 5 5 3 0 5 -2 5 -5z m-180
-25 c0 -5 -5 -10 -11 -10 -5 0 -7 5 -4 10 3 6 8 10 11 10 2 0 4 -4 4 -10z
m176 -19 c1 -12 -1 -19 -5 -15 -3 3 -6 9 -6 12 0 4 -4 13 -9 21 -6 9 -5 12 5
9 8 -3 15 -15 15 -27z m-176 -11 c0 -5 -2 -10 -4 -10 -3 0 -8 5 -11 10 -3 6
-1 10 4 10 6 0 11 -4 11 -10z m20 -5 c0 -3 -2 -5 -5 -5 -3 0 -5 2 -5 5 0 3 2
5 5 5 3 0 5 -2 5 -5z m0 -20 c0 -3 -2 -5 -5 -5 -3 0 -5 2 -5 5 0 3 2 5 5 5 3
0 5 -2 5 -5z m155 -25 c-1 -16 2 -30 7 -30 4 0 8 -9 8 -20 0 -11 -5 -20 -12
-20 -6 0 -8 3 -5 7 4 3 0 17 -9 31 -10 15 -11 21 -3 17 9 -6 11 -3 6 9 -4 10
-5 22 -1 27 9 15 11 10 9 -21z m-86 -9 c8 -5 9 -11 3 -15 -5 -3 -15 1 -22 9
-14 16 -3 20 19 6z m-126 -59 c-3 -18 -10 -31 -16 -29 -14 4 -16 27 -5 56 12
33 27 14 21 -27z m17 3 c0 -3 -2 -5 -5 -5 -3 0 -5 2 -5 5 0 3 2 5 5 5 3 0 5
-2 5 -5z m17 -22 c-4 -3 -10 -3 -14 0 -3 4 0 7 7 7 7 0 10 -3 7 -7z m0 -30
c-4 -3 -10 -3 -14 0 -3 4 0 7 7 7 7 0 10 -3 7 -7z m-77 -148 c0 -3 -2 -5 -5
-5 -3 0 -5 2 -5 5 0 3 2 5 5 5 3 0 5 -2 5 -5z"/>
<path d="M400 905 c0 -3 2 -5 5 -5 3 0 5 2 5 5 0 3 -2 5 -5 5 -3 0 -5 -2 -5
-5z"/>
<path d="M220 765 c0 -3 2 -5 5 -5 3 0 5 2 5 5 0 3 -2 5 -5 5 -3 0 -5 -2 -5
-5z"/>
<path d="M220 695 c0 -3 2 -5 5 -5 3 0 5 2 5 5 0 3 -2 5 -5 5 -3 0 -5 -2 -5
-5z"/>
<path d="M400 585 c0 -3 2 -5 5 -5 3 0 5 2 5 5 0 3 -2 5 -5 5 -3 0 -5 -2 -5
-5z"/>
<path d="M465 940 c-10 -11 -13 -20 -8 -20 10 0 25 -39 27 -70 1 -8 5 -21 9
-27 5 -8 4 -13 -2 -13 -6 0 -11 -5 -11 -11 0 -6 -7 -18 -16 -27 -15 -14 -14
-16 7 -24 17 -7 20 -11 11 -17 -7 -4 -10 -15 -7 -23 3 -8 -1 -22 -9 -31 -14
-13 -14 -16 0 -27 13 -11 13 -15 -2 -31 -10 -11 -12 -19 -7 -19 10 0 25 -39
27 -70 1 -8 5 -21 9 -27 5 -8 4 -13 -2 -13 -6 0 -11 -5 -11 -11 0 -6 -7 -18
-16 -27 -15 -14 -14 -16 7 -24 17 -7 20 -11 11 -17 -7 -4 -10 -15 -7 -23 3 -8
-1 -22 -9 -31 -14 -13 -14 -16 0 -27 13 -11 13 -15 -2 -31 -10 -11 -15 -19
-13 -20 2 0 12 -2 22 -4 16 -3 22 7 17 30 -8 38 -8 45 1 45 6 0 7 9 4 21 -6
16 -4 20 6 13 12 -6 12 -5 0 9 -7 9 -10 17 -7 17 4 0 2 9 -4 19 -7 15 -5 24
11 43 l20 23 -5 -37 c-2 -21 -1 -51 4 -67 6 -22 5 -31 -5 -35 -14 -5 -14 -22
2 -66 5 -14 8 -40 6 -58 -1 -17 2 -32 8 -32 5 0 7 6 3 13 -4 7 -3 9 2 4 5 -5
10 -13 10 -18 1 -5 3 -11 4 -14 1 -3 3 -8 4 -12 1 -5 4 -13 8 -18 4 -6 3 -17
-3 -25 -9 -16 -11 -11 -13 30 -1 14 -7 25 -13 24 -7 -1 -25 -2 -40 -3 -20 -1
-24 -4 -15 -10 11 -7 11 -11 -2 -24 -21 -20 -20 -37 0 -37 10 0 14 6 10 15 -3
8 -1 15 4 15 6 0 9 5 8 11 -2 6 2 13 9 16 14 5 17 -123 2 -132 -5 -4 -9 -13
-9 -21 0 -10 12 -14 40 -14 31 0 42 5 51 23 12 21 11 21 -7 7 -18 -14 -18 -14
-1 6 16 19 16 23 2 34 -8 7 -12 16 -9 21 3 5 7 17 9 26 2 10 4 23 6 28 1 6 -1
18 -6 29 -5 11 -4 26 3 37 9 14 9 25 1 42 -8 18 -8 30 1 47 8 15 8 20 1 16 -7
-5 -11 2 -11 18 0 14 5 28 10 31 14 9 12 25 -3 25 -16 0 -15 26 1 58 11 18 10
22 -2 22 -13 0 -13 6 -2 45 10 32 11 45 2 48 -8 3 -8 8 0 17 9 9 17 9 35 -1
42 -23 81 -11 57 18 -8 10 -6 13 6 13 9 0 17 -9 17 -20 2 -28 3 -33 12 -47 5
-8 4 -13 -2 -13 -7 0 -7 -8 -1 -26 13 -33 13 -37 -2 -28 -10 5 -10 4 -1 -6 6
-7 9 -19 6 -28 -4 -10 -2 -13 5 -8 7 4 12 3 12 -3 0 -5 -6 -12 -12 -15 -10 -4
-10 -7 -1 -12 7 -3 3 -14 -13 -31 -24 -26 -27 -42 -9 -56 6 -5 0 -7 -13 -4
-19 5 -21 3 -11 -9 6 -7 16 -11 22 -7 5 3 7 1 3 -5 -3 -5 -2 -12 2 -14 5 -1 5
-14 1 -28 l-7 -25 -11 30 c-10 26 -17 31 -45 30 -19 0 -38 -3 -42 -7 -7 -7 44
-33 59 -30 4 1 7 -6 7 -15 0 -14 2 -15 9 -4 6 9 11 10 15 2 4 -6 11 -9 16 -6
4 3 10 -2 14 -10 3 -8 0 -15 -6 -15 -7 0 -7 -4 0 -12 6 -7 11 -16 11 -20 1 -5
1 -9 2 -10 7 -23 3 -37 -12 -46 -15 -10 -19 -9 -19 3 0 8 4 15 8 15 5 0 9 7 9
15 0 11 -6 13 -20 9 -14 -4 -18 -2 -14 7 2 8 11 13 18 11 9 -2 7 4 -5 17 -10
11 -22 18 -27 16 -4 -3 -10 -1 -14 4 -4 7 -14 6 -30 -1 -29 -13 -25 -23 13
-31 18 -4 33 -16 41 -34 7 -15 17 -36 22 -45 8 -15 5 -17 -24 -12 -22 4 -28 3
-18 -4 8 -6 9 -12 3 -16 -11 -7 -25 9 -28 32 -2 10 5 12 22 8 19 -5 24 -3 23
11 0 10 -3 13 -5 7 -2 -5 -18 -9 -34 -8 -18 1 -30 -3 -30 -10 0 -16 36 -49 57
-52 16 -3 48 23 48 37 0 4 3 11 8 15 4 4 7 0 7 -10 0 -26 -31 -68 -46 -62 -11
4 -11 2 -1 -14 6 -11 22 -20 34 -20 21 0 25 13 9 39 -6 9 -5 12 5 9 8 -3 14
-13 14 -23 0 -30 25 -30 26 -1 2 100 1 116 -15 131 -21 22 -23 53 -1 35 8 -7
12 -16 9 -21 -6 -10 19 -12 29 -3 3 3 2 17 -3 30 -7 17 -6 24 3 24 6 0 4 5 -5
11 -21 12 -24 59 -6 77 9 9 9 12 0 12 -8 0 -12 12 -11 33 3 63 -1 108 -10 102
-6 -3 -8 6 -5 21 3 15 1 23 -5 20 -5 -4 -12 -2 -16 4 -3 5 3 10 14 10 14 0 21
-6 21 -20 0 -11 4 -20 9 -20 12 0 20 49 9 56 -4 3 -6 10 -2 15 3 5 1 15 -4 22
-5 7 -10 41 -10 77 0 117 -2 141 -11 135 -6 -3 -8 6 -5 21 3 15 1 23 -5 20 -5
-4 -12 -2 -16 4 -3 5 3 10 14 10 14 0 21 -6 21 -20 0 -11 4 -20 9 -20 12 0 20
49 9 56 -4 3 -6 10 -2 15 3 5 1 15 -4 22 -6 7 -9 27 -8 45 2 31 1 32 -35 32
-21 0 -41 -5 -44 -10 -4 -6 -11 -7 -17 -4 -6 4 -8 2 -4 -4 10 -17 -11 -24 -35
-11 -12 6 -19 7 -15 1 3 -5 -3 -12 -14 -15 -21 -5 -28 7 -10 18 20 12 -1 25
-41 25 -42 0 -54 -20 -21 -39 13 -8 14 -11 2 -11 -8 -1 -23 -3 -32 -5 -15 -3
-16 0 -7 17 8 15 8 19 0 14 -6 -4 -11 -3 -11 3 0 5 6 12 13 14 7 3 7 6 1 6 -6
1 -19 -8 -29 -19z m115 5 c0 -3 -2 -5 -5 -5 -3 0 -5 2 -5 5 0 3 2 5 5 5 3 0 5
-2 5 -5z m120 0 c0 -3 -2 -5 -5 -5 -3 0 -5 2 -5 5 0 3 2 5 5 5 3 0 5 -2 5 -5z
m35 -25 c-1 -16 2 -30 7 -30 4 0 8 -9 8 -20 0 -11 -5 -20 -12 -20 -6 0 -8 3
-5 7 4 3 0 17 -9 31 -10 15 -11 21 -3 17 9 -6 11 -3 6 9 -4 10 -5 22 -1 27 9
15 11 10 9 -21z m-35 -10 c0 -11 -1 -22 -2 -23 -2 -2 3 -11 11 -20 8 -11 9
-17 2 -17 -7 0 -8 -8 -1 -26 13 -33 13 -37 -2 -28 -10 5 -10 4 -1 -6 6 -7 9
-19 6 -28 -4 -10 -2 -13 5 -8 7 4 12 3 12 -3 0 -5 -6 -12 -12 -15 -10 -4 -10
-7 -1 -12 7 -3 3 -14 -12 -30 -23 -25 -26 -39 -12 -61 5 -8 1 -11 -13 -8 -11
2 -18 0 -15 -5 9 -15 -14 -21 -36 -9 -12 6 -19 7 -15 1 3 -5 -3 -12 -14 -15
-21 -5 -28 7 -10 18 6 4 5 13 -3 25 -9 16 -9 24 1 40 15 25 15 30 -1 30 -16 0
-15 26 1 58 11 18 10 22 -2 22 -13 0 -13 6 -2 45 10 32 11 45 2 48 -8 3 -8 8
0 17 9 9 17 9 35 -1 42 -23 81 -11 57 18 -8 10 -6 13 6 13 9 0 16 -8 16 -20z
m-51 1 c8 -5 9 -11 3 -15 -5 -3 -15 1 -22 9 -14 16 -3 20 19 6z m-126 -59 c-3
-18 -10 -31 -16 -29 -14 4 -16 27 -5 56 12 33 27 14 21 -27z m17 3 c0 -3 -2
-5 -5 -5 -3 0 -5 2 -5 5 0 3 2 5 5 5 3 0 5 -2 5 -5z m17 -22 c-4 -3 -10 -3
-14 0 -3 4 0 7 7 7 7 0 10 -3 7 -7z m-40 -58 c-3 -19 -2 -48 3 -64 6 -22 5
-31 -5 -35 -18 -7 -10 -57 12 -73 14 -11 14 -13 2 -14 -8 0 -22 -2 -31 -4 -15
-3 -16 0 -7 17 8 15 8 19 0 14 -6 -4 -11 -2 -11 3 0 6 5 11 12 11 6 0 3 6 -8
14 -18 14 -18 15 -1 21 12 5 16 13 11 27 -5 16 -3 19 7 12 12 -6 12 -5 0 9 -7
9 -10 17 -7 17 4 0 2 8 -3 18 -7 14 -6 25 5 40 21 31 27 27 21 -13z m40 28
c-4 -3 -10 -3 -14 0 -3 4 0 7 7 7 7 0 10 -3 7 -7z m-2 -23 c-3 -5 -1 -10 6
-10 8 0 6 -6 -4 -18 -10 -10 -14 -22 -11 -25 11 -11 14 -88 4 -82 -5 3 -9 16
-9 28 0 12 -2 34 -5 50 -4 16 -2 27 4 27 5 0 10 5 10 11 0 5 -6 7 -12 3 -9 -5
-9 -2 1 9 15 18 26 23 16 7z m183 -117 c0 -27 -1 -26 -16 3 -8 16 -8 21 2 21
8 0 14 -11 14 -24z m-158 -38 c0 -3 -2 -5 -5 -5 -3 0 -5 2 -5 5 0 3 2 5 5 5 3
0 5 -2 5 -5z m155 -25 c-1 -16 2 -30 7 -30 4 0 8 -9 8 -20 0 -11 -5 -20 -12
-20 -6 0 -8 3 -5 7 4 3 0 17 -9 31 -10 15 -11 21 -3 17 9 -6 11 -3 6 9 -4 10
-5 22 -1 27 9 15 11 10 9 -21z m-86 -9 c8 -5 9 -11 3 -15 -5 -3 -15 1 -22 9
-14 16 -3 20 19 6z m-126 -59 c-3 -18 -10 -31 -16 -29 -14 4 -16 27 -5 56 12
33 27 14 21 -27z m17 3 c0 -3 -2 -5 -5 -5 -3 0 -5 2 -5 5 0 3 2 5 5 5 3 0 5
-2 5 -5z m17 -22 c-4 -3 -10 -3 -14 0 -3 4 0 7 7 7 7 0 10 -3 7 -7z m0 -30
c-4 -3 -10 -3 -14 0 -3 4 0 7 7 7 7 0 10 -3 7 -7z m-2 -23 c-3 -5 -1 -10 6
-10 8 0 6 -6 -4 -18 -10 -10 -14 -22 -11 -25 11 -11 14 -88 4 -82 -5 3 -9 16
-9 28 0 12 -2 34 -5 50 -4 16 -2 27 4 27 5 0 10 5 10 11 0 5 -6 7 -12 3 -9 -5
-9 -2 1 9 15 18 26 23 16 7z m183 -117 c0 -27 -1 -26 -16 3 -8 16 -8 21 2 21
8 0 14 -11 14 -24z m-258 -8 c0 -3 -2 -5 -5 -5 -3 0 -5 2 -5 5 0 3 2 5 5 5 3
0 5 -2 5 -5z m256 -41 c-3 -8 -1 -25 5 -36 8 -16 8 -23 -2 -29 -12 -7 -12 -9
0 -9 8 0 12 -3 8 -6 -3 -3 -11 -3 -17 1 -8 5 -7 11 2 23 11 13 11 15 -4 10 -9
-4 -15 -2 -14 5 4 24 18 57 23 57 3 0 2 -7 -1 -16z m-246 1 c0 -3 -2 -5 -5 -5
-3 0 -5 2 -5 5 0 3 2 5 5 5 3 0 5 -2 5 -5z m159 -24 c8 -5 9 -11 3 -15 -5 -3
-15 1 -22 9 -14 16 -3 20 19 6z m8 -88 c-8 -7 -37 9 -31 19 3 5 12 4 20 -3 8
-6 13 -14 11 -16z m-67 -28 c0 -3 -2 -5 -5 -5 -3 0 -5 2 -5 5 0 3 2 5 5 5 3 0
5 -2 5 -5z m157 -32 c-4 -3 -7 0 -7 7 0 7 3 10 7 7 3 -4 3 -10 0 -14z m-192
-66 c1 -26 -2 -47 -5 -47 -13 0 -20 75 -9 79 7 2 6 7 -2 13 -12 8 -12 9 0 6 9
-3 14 -21 16 -51z m185 48 c0 -3 -2 -5 -5 -5 -3 0 -5 2 -5 5 0 3 2 5 5 5 3 0
5 -2 5 -5z m-120 -10 c0 -3 -2 -5 -5 -5 -3 0 -5 2 -5 5 0 3 2 5 5 5 3 0 5 -2
5 -5z m120 -30 c0 -3 -2 -5 -5 -5 -3 0 -5 2 -5 5 0 3 2 5 5 5 3 0 5 -2 5 -5z
m-213 -52 c-4 -3 -10 -3 -14 0 -3 4 0 7 7 7 7 0 10 -3 7 -7z"/>
<path d="M660 856 c0 -15 -3 -17 -11 -9 -12 12 -59 -2 -59 -17 0 -11 82 -22
90 -13 4 4 1 19 -6 33 -12 21 -14 22 -14 6z m-3 -33 c-8 -7 -37 9 -31 19 3 5
12 4 20 -3 8 -6 13 -14 11 -16z"/>
<path d="M660 795 c0 -3 2 -5 5 -5 3 0 5 2 5 5 0 3 -2 5 -5 5 -3 0 -5 -2 -5
-5z"/>
<path d="M680 777 c0 -18 -8 -20 -52 -17 -17 1 -28 -4 -28 -11 0 -22 41 -58
58 -52 10 4 13 2 8 -5 -4 -7 -3 -12 2 -12 6 0 13 8 16 17 7 18 -9 33 -34 32
-10 0 -11 -2 -2 -6 6 -2 9 -9 6 -14 -3 -6 -11 -6 -20 2 -7 6 -11 16 -7 22 4 6
1 7 -7 2 -8 -5 -11 -4 -7 2 4 6 23 11 43 11 25 0 33 -3 23 -9 -11 -7 -10 -9 4
-9 13 0 17 6 14 25 -4 29 -17 46 -17 22z"/>
<path d="M660 775 c0 -3 2 -5 5 -5 3 0 5 2 5 5 0 3 -2 5 -5 5 -3 0 -5 -2 -5
-5z"/>
<path d="M590 675 c0 -3 2 -5 5 -5 3 0 5 2 5 5 0 3 -2 5 -5 5 -3 0 -5 -2 -5
-5z"/>
<path d="M610 665 c0 -3 2 -5 5 -5 3 0 5 2 5 5 0 3 -2 5 -5 5 -3 0 -5 -2 -5
-5z"/>
<path d="M660 660 c0 -7 3 -10 7 -7 3 4 3 10 0 14 -4 3 -7 0 -7 -7z"/>
<path d="M480 655 c0 -3 2 -5 5 -5 3 0 5 2 5 5 0 3 -2 5 -5 5 -3 0 -5 -2 -5
-5z"/>
<path d="M720 265 c0 -3 2 -5 5 -5 3 0 5 2 5 5 0 3 -2 5 -5 5 -3 0 -5 -2 -5
-5z"/>
<path d="M785 940 c-10 -11 -16 -20 -14 -21 2 0 12 -2 21 -4 19 -3 30 16 19
34 -5 8 -13 6 -26 -9z m25 -5 c0 -3 -2 -5 -5 -5 -3 0 -5 2 -5 5 0 3 2 5 5 5 3
0 5 -2 5 -5z"/>
<path d="M836 938 c4 -13 7 -40 7 -60 -1 -21 3 -38 8 -38 6 0 7 6 3 13 -4 7
-3 9 2 4 5 -5 10 -13 10 -18 1 -5 3 -11 4 -14 1 -3 3 -8 4 -12 1 -5 4 -13 8
-18 4 -6 3 -17 -3 -25 -9 -16 -11 -11 -13 30 -1 14 -7 25 -13 24 -7 -1 -25 -2
-40 -3 -20 -1 -24 -4 -15 -10 11 -7 11 -11 -2 -24 -21 -20 -20 -37 0 -37 10 0
14 6 10 15 -3 8 -1 15 4 15 6 0 9 5 8 11 -2 6 2 13 9 16 15 6 16 -116 1 -134
-7 -9 -6 -24 4 -50 8 -21 13 -53 11 -70 -1 -18 2 -33 8 -33 5 0 7 5 3 12 -5 7
-3 8 5 4 7 -5 10 -11 7 -14 -3 -3 -1 -11 5 -19 6 -7 8 -13 4 -13 -4 0 -3 -6 3
-13 7 -8 7 -18 2 -27 -10 -16 -12 -11 -14 30 -1 14 -7 25 -13 24 -7 -1 -25 -2
-40 -3 -20 -1 -24 -4 -15 -10 11 -7 11 -11 -2 -24 -21 -20 -20 -37 0 -37 10 0
14 6 10 15 -3 8 -1 15 4 15 6 0 9 5 8 11 -2 6 2 13 9 16 15 5 16 -116 2 -134
-13 -15 -1 -61 20 -73 13 -8 14 -10 1 -10 -8 -1 -23 -3 -32 -5 -15 -3 -16 0
-7 17 8 15 8 19 0 14 -6 -4 -11 -2 -11 3 0 6 6 11 13 11 7 0 4 7 -7 15 -11 8
-14 15 -7 15 7 0 9 5 5 12 -5 7 -3 8 6 3 10 -6 12 -4 7 8 -4 10 -1 17 6 17 8
0 8 3 -2 9 -7 5 -11 13 -8 18 3 5 0 10 -8 10 -10 0 -15 -10 -14 -26 1 -14 -1
-33 -5 -42 -4 -10 -2 -20 4 -24 8 -5 6 -13 -6 -26 -9 -10 -12 -19 -7 -19 10 0
25 -39 27 -70 1 -8 5 -21 9 -27 5 -8 4 -13 -2 -13 -6 0 -11 -5 -11 -11 0 -6
-7 -18 -16 -27 -15 -14 -14 -16 7 -24 17 -7 20 -11 11 -17 -7 -4 -10 -15 -7
-23 3 -8 -1 -22 -9 -31 -14 -13 -14 -16 -1 -27 14 -11 19 -7 16 13 0 4 4 7 10
7 6 0 8 9 4 21 -6 16 -4 20 6 13 12 -6 12 -5 0 9 -7 9 -10 17 -7 17 4 0 2 9
-4 19 -7 15 -5 24 11 43 l20 23 -5 -37 c-2 -21 -1 -51 4 -67 5 -20 5 -31 -2
-33 -6 -2 -12 -12 -14 -21 -1 -12 5 -17 20 -17 23 0 25 15 11 83 -3 15 -1 27
5 27 5 0 10 5 10 11 0 5 -6 7 -12 3 -9 -5 -9 -2 1 9 15 18 26 23 16 7 -3 -5
-1 -10 6 -10 8 0 6 -6 -4 -18 -10 -10 -14 -22 -10 -25 3 -4 8 -22 9 -40 1 -17
3 -35 3 -39 2 -17 21 -7 21 11 0 11 5 23 10 26 14 9 12 25 -3 25 -16 0 -15 26
1 58 11 18 10 22 -2 22 -13 0 -13 6 -2 45 10 32 11 45 2 48 -8 3 -8 8 0 17 9
9 17 9 35 -1 21 -11 23 -11 11 3 -10 13 -10 17 0 20 8 3 6 7 -6 11 -9 4 -15 3
-12 -2 3 -5 -3 -11 -14 -14 -22 -6 -26 3 -9 20 8 8 8 13 0 17 -8 5 -8 13 1 29
11 21 10 21 -8 7 -18 -14 -18 -14 -1 6 16 19 16 23 2 34 -8 7 -12 16 -9 21 3
5 7 17 9 26 2 10 4 23 6 28 1 6 -1 18 -6 29 -5 11 -4 26 3 37 9 14 9 25 1 42
-8 18 -8 30 1 47 8 15 8 20 1 16 -14 -9 -14 0 1 27 11 21 10 21 -8 7 -18 -14
-18 -14 -1 6 16 19 16 23 2 34 -8 7 -12 16 -9 21 3 5 7 17 9 26 2 10 4 23 6
28 1 6 -1 18 -6 29 -5 11 -4 26 3 37 9 14 9 25 1 42 -8 17 -8 30 -1 44 10 18
7 20 -34 22 -44 2 -45 1 -38 -21z m74 -143 c0 -3 -2 -5 -5 -5 -3 0 -5 2 -5 5
0 3 2 5 5 5 3 0 5 -2 5 -5z m-35 -98 c1 -26 -2 -47 -5 -47 -13 0 -20 75 -9 79
7 2 6 7 -2 13 -12 8 -12 9 0 6 9 -3 14 -21 16 -51z m-28 -44 c-4 -3 -10 -3
-14 0 -3 4 0 7 7 7 7 0 10 -3 7 -7z m63 -178 c0 -3 -2 -5 -5 -5 -3 0 -5 2 -5
5 0 3 2 5 5 5 3 0 5 -2 5 -5z m-35 -98 c1 -26 -2 -47 -5 -47 -13 0 -20 75 -9
79 7 2 6 7 -2 13 -12 8 -12 9 0 6 9 -3 14 -21 16 -51z m-28 -44 c-4 -3 -10 -3
-14 0 -3 4 0 7 7 7 7 0 10 -3 7 -7z m53 -28 c0 -3 -2 -5 -5 -5 -3 0 -5 2 -5 5
0 3 2 5 5 5 3 0 5 -2 5 -5z m-57 -93 c-3 -18 -10 -31 -16 -29 -14 4 -16 27 -5
56 12 33 27 14 21 -27z m17 3 c0 -3 -2 -5 -5 -5 -3 0 -5 2 -5 5 0 3 2 5 5 5 3
0 5 -2 5 -5z m17 -22 c-4 -3 -10 -3 -14 0 -3 4 0 7 7 7 7 0 10 -3 7 -7z m0
-30 c-4 -3 -10 -3 -14 0 -3 4 0 7 7 7 7 0 10 -3 7 -7z m-77 -148 c0 -3 -2 -5
-5 -5 -3 0 -5 2 -5 5 0 3 2 5 5 5 3 0 5 -2 5 -5z"/>
<path d="M10 920 c-12 -8 -12 -10 -1 -10 11 0 11 -3 1 -16 -11 -12 -11 -15 1
-12 8 2 13 -2 12 -7 -1 -6 7 -11 17 -11 20 0 20 14 0 45 -11 15 -19 18 -30 11z
m40 -35 c0 -3 -2 -5 -5 -5 -3 0 -5 2 -5 5 0 3 2 5 5 5 3 0 5 -2 5 -5z"/>
<path d="M914 918 c-3 -5 3 -11 13 -15 10 -3 23 -9 28 -11 6 -3 4 1 -3 10 -10
13 -10 17 0 21 7 3 3 4 -10 4 -13 -1 -26 -5 -28 -9z"/>
<path d="M796 887 c3 -11 7 -26 8 -33 4 -25 16 -28 15 -3 -1 13 2 32 6 41 5
13 2 17 -14 15 -16 -1 -20 -6 -15 -20z"/>
<path d="M140 875 c0 -3 2 -5 5 -5 3 0 5 2 5 5 0 3 -2 5 -5 5 -3 0 -5 -2 -5
-5z"/>
<path d="M930 875 c0 -3 2 -5 5 -5 3 0 5 2 5 5 0 3 -2 5 -5 5 -3 0 -5 -2 -5
-5z"/>
<path d="M932 847 c-25 -15 -19 -27 12 -26 12 0 15 3 8 6 -10 4 -10 8 -1 19
14 17 11 17 -19 1z"/>
<path d="M11 834 c7 -8 6 -14 -3 -17 -9 -4 -7 -6 4 -6 11 -1 16 -8 13 -21 -2
-11 1 -19 8 -17 6 1 11 -6 12 -15 0 -29 18 -25 19 5 1 21 -3 27 -19 28 -20 0
-20 0 0 9 11 5 15 9 8 9 -6 1 -14 9 -17 19 -4 10 -13 19 -21 19 -11 0 -12 -4
-4 -13z m49 -89 c0 -3 -2 -5 -5 -5 -3 0 -5 2 -5 5 0 3 2 5 5 5 3 0 5 -2 5 -5z"/>
<path d="M50 825 c0 -3 2 -5 5 -5 3 0 5 2 5 5 0 3 -2 5 -5 5 -3 0 -5 -2 -5 -5z"/>
<path d="M390 785 c0 -3 2 -5 5 -5 3 0 5 2 5 5 0 3 -2 5 -5 5 -3 0 -5 -2 -5
-5z"/>
<path d="M870 785 c0 -3 2 -5 5 -5 3 0 5 2 5 5 0 3 -2 5 -5 5 -3 0 -5 -2 -5
-5z"/>
<path d="M136 765 c-3 -8 0 -15 7 -15 14 0 15 -52 2 -82 -5 -13 -3 -18 8 -18
22 0 31 53 16 95 -14 38 -24 44 -33 20z m34 -40 c0 -3 -2 -5 -5 -5 -3 0 -5 2
-5 5 0 3 2 5 5 5 3 0 5 -2 5 -5z m0 -40 c0 -3 -2 -5 -5 -5 -3 0 -5 2 -5 5 0 3
2 5 5 5 3 0 5 -2 5 -5z"/>
<path d="M290 775 c0 -3 2 -5 5 -5 3 0 5 2 5 5 0 3 -2 5 -5 5 -3 0 -5 -2 -5
-5z"/>
<path d="M930 775 c0 -3 2 -5 5 -5 3 0 5 2 5 5 0 3 -2 5 -5 5 -3 0 -5 -2 -5
-5z"/>
<path d="M340 761 c0 -4 -10 -6 -23 -4 -14 3 -29 -2 -36 -11 -12 -14 -10 -16
8 -16 14 0 20 4 15 11 -5 9 1 10 20 5 19 -5 26 -3 26 9 0 8 -2 15 -5 15 -3 0
-5 -4 -5 -9z"/>
<path d="M820 765 c0 -3 2 -5 5 -5 3 0 5 2 5 5 0 3 -2 5 -5 5 -3 0 -5 -2 -5
-5z"/>
<path d="M11 744 c7 -8 6 -14 -3 -17 -10 -4 -10 -6 1 -6 10 -1 11 -4 3 -14 -8
-10 -6 -13 8 -14 10 -1 21 5 24 13 3 8 1 14 -4 14 -6 0 -10 8 -10 18 0 10 -7
19 -15 19 -10 0 -12 -4 -4 -13z"/>
<path d="M920 744 c0 -6 10 -19 22 -30 13 -11 18 -13 12 -4 -12 20 -12 34 1
42 5 4 0 6 -13 5 -12 0 -22 -6 -22 -13z m20 -9 c0 -3 -2 -5 -5 -5 -3 0 -5 2
-5 5 0 3 2 5 5 5 3 0 5 -2 5 -5z"/>
<path d="M791 711 c1 -14 -1 -33 -5 -42 -4 -10 -2 -20 4 -24 8 -5 6 -13 -6
-26 -9 -10 -14 -20 -11 -20 24 -5 33 -4 38 4 9 13 -1 47 -14 47 -6 0 -3 6 8
13 10 8 15 19 11 25 -4 7 -1 12 6 12 10 0 10 2 -1 9 -7 5 -11 13 -8 18 3 5 0
10 -8 10 -10 0 -15 -10 -14 -26z m19 -36 c0 -3 -2 -5 -5 -5 -3 0 -5 2 -5 5 0
3 2 5 5 5 3 0 5 -2 5 -5z m0 -60 c0 -3 -2 -5 -5 -5 -3 0 -5 2 -5 5 0 3 2 5 5
5 3 0 5 -2 5 -5z"/>
<path d="M450 715 c0 -3 2 -5 5 -5 3 0 5 2 5 5 0 3 -2 5 -5 5 -3 0 -5 -2 -5
-5z"/>
<path d="M930 685 c0 -3 2 -5 5 -5 3 0 5 2 5 5 0 3 -2 5 -5 5 -3 0 -5 -2 -5
-5z"/>
<path d="M290 655 c0 -3 2 -5 5 -5 3 0 5 2 5 5 0 3 -2 5 -5 5 -3 0 -5 -2 -5
-5z"/>
<path d="M930 655 c0 -3 2 -5 5 -5 3 0 5 2 5 5 0 3 -2 5 -5 5 -3 0 -5 -2 -5
-5z"/>
<path d="M24 628 c-4 -7 -3 -8 4 -4 12 7 16 16 8 16 -3 0 -8 -5 -12 -12z"/>
<path d="M145 620 c-10 -11 -16 -20 -14 -21 42 -8 64 1 39 16 -6 4 -8 11 -5
16 10 16 -1 10 -20 -11z"/>
<path d="M10 600 c-12 -8 -12 -10 -1 -10 11 0 11 -3 0 -17 -10 -11 -10 -14 -1
-9 11 7 17 -5 13 -27 -1 -5 3 -5 9 -2 6 4 9 9 6 12 -3 3 -1 14 4 23 12 23 -9
43 -30 30z"/>
<path d="M914 598 c-3 -5 3 -11 13 -15 10 -3 23 -9 28 -11 6 -3 4 1 -3 10 -10
13 -10 17 0 21 7 3 3 4 -10 4 -13 -1 -26 -5 -28 -9z"/>
<path d="M796 567 c3 -11 7 -26 8 -33 4 -25 16 -28 15 -3 -1 13 2 32 6 41 5
13 2 17 -14 15 -16 -1 -20 -6 -15 -20z"/>
<path d="M930 555 c0 -3 2 -5 5 -5 3 0 5 2 5 5 0 3 -2 5 -5 5 -3 0 -5 -2 -5
-5z"/>
<path d="M660 536 c0 -15 -3 -17 -11 -9 -12 12 -59 -2 -59 -17 0 -11 82 -22
90 -13 4 4 1 19 -6 33 -12 21 -14 22 -14 6z m-3 -33 c-8 -7 -37 9 -31 19 3 5
12 4 20 -3 8 -6 13 -14 11 -16z"/>
<path d="M932 527 c-25 -15 -19 -27 12 -26 12 0 15 3 8 6 -10 4 -10 8 -1 19
14 17 11 17 -19 1z"/>
<path d="M10 515 c8 -10 7 -14 -2 -18 -10 -4 -10 -6 0 -6 6 -1 12 -8 12 -18 0
-22 6 -14 13 18 6 21 3 28 -14 32 -16 4 -18 3 -9 -8z"/>
<path d="M140 525 c0 -3 2 -5 5 -5 3 0 5 2 5 5 0 3 -2 5 -5 5 -3 0 -5 -2 -5
-5z"/>
<path d="M50 500 c0 -7 3 -10 7 -7 3 4 3 10 0 14 -4 3 -7 0 -7 -7z"/>
<path d="M290 485 c0 -3 2 -5 5 -5 3 0 5 2 5 5 0 3 -2 5 -5 5 -3 0 -5 -2 -5
-5z"/>
<path d="M49 475 c-1 -3 -2 -11 -3 -17 -1 -7 -8 -12 -15 -10 -7 1 -10 -2 -5
-9 5 -9 2 -10 -11 -5 -15 5 -16 4 -6 -8 9 -11 9 -15 -1 -19 -10 -4 -10 -6 1
-6 11 -1 11 -4 1 -16 -11 -13 -10 -14 3 -9 12 4 14 0 11 -18 -4 -17 -1 -15 9
7 8 17 10 32 5 33 -4 2 -8 10 -8 18 0 10 5 12 13 7 18 -11 38 -13 31 -2 -3 5
-10 7 -15 4 -5 -3 -6 1 -3 9 3 9 11 13 16 10 6 -4 5 3 -1 15 -11 20 -20 26
-22 16z"/>
<path d="M660 475 c0 -3 2 -5 5 -5 3 0 5 2 5 5 0 3 -2 5 -5 5 -3 0 -5 -2 -5
-5z"/>
<path d="M290 465 c0 -3 2 -5 5 -5 3 0 5 2 5 5 0 3 -2 5 -5 5 -3 0 -5 -2 -5
-5z"/>
<path d="M390 465 c0 -3 2 -5 5 -5 3 0 5 2 5 5 0 3 -2 5 -5 5 -3 0 -5 -2 -5
-5z"/>
<path d="M680 457 c0 -18 -8 -20 -52 -17 -17 1 -28 -4 -28 -11 0 -22 41 -58
58 -52 10 4 13 2 8 -5 -4 -7 -3 -12 2 -12 6 0 13 8 16 17 7 18 -9 33 -34 32
-10 0 -11 -2 -2 -6 6 -2 9 -9 6 -14 -3 -6 -11 -6 -20 2 -7 6 -11 16 -7 22 4 6
1 7 -7 2 -8 -5 -11 -4 -7 2 4 6 23 11 43 11 25 0 33 -3 23 -9 -11 -7 -10 -9 4
-9 13 0 17 6 14 25 -4 29 -17 46 -17 22z"/>
<path d="M870 465 c0 -3 2 -5 5 -5 3 0 5 2 5 5 0 3 -2 5 -5 5 -3 0 -5 -2 -5
-5z"/>
<path d="M660 455 c0 -3 2 -5 5 -5 3 0 5 2 5 5 0 3 -2 5 -5 5 -3 0 -5 -2 -5
-5z"/>
<path d="M930 455 c0 -3 2 -5 5 -5 3 0 5 2 5 5 0 3 -2 5 -5 5 -3 0 -5 -2 -5
-5z"/>
<path d="M180 445 c0 -3 2 -5 5 -5 3 0 5 2 5 5 0 3 -2 5 -5 5 -3 0 -5 -2 -5
-5z"/>
<path d="M820 445 c0 -3 2 -5 5 -5 3 0 5 2 5 5 0 3 -2 5 -5 5 -3 0 -5 -2 -5
-5z"/>
<path d="M920 424 c0 -6 10 -19 22 -30 13 -11 18 -13 12 -4 -12 20 -12 34 1
42 5 4 0 6 -13 5 -12 0 -22 -6 -22 -13z m20 -9 c0 -3 -2 -5 -5 -5 -3 0 -5 2
-5 5 0 3 2 5 5 5 3 0 5 -2 5 -5z"/>
<path d="M450 395 c0 -3 2 -5 5 -5 3 0 5 2 5 5 0 3 -2 5 -5 5 -3 0 -5 -2 -5
-5z"/>
<path d="M930 365 c0 -3 2 -5 5 -5 3 0 5 2 5 5 0 3 -2 5 -5 5 -3 0 -5 -2 -5
-5z"/>
<path d="M270 355 c0 -3 2 -5 5 -5 3 0 5 2 5 5 0 3 -2 5 -5 5 -3 0 -5 -2 -5
-5z"/>
<path d="M590 355 c0 -3 2 -5 5 -5 3 0 5 2 5 5 0 3 -2 5 -5 5 -3 0 -5 -2 -5
-5z"/>
<path d="M290 345 c0 -3 2 -5 5 -5 3 0 5 2 5 5 0 3 -2 5 -5 5 -3 0 -5 -2 -5
-5z"/>
<path d="M610 345 c0 -3 2 -5 5 -5 3 0 5 2 5 5 0 3 -2 5 -5 5 -3 0 -5 -2 -5
-5z"/>
<path d="M660 340 c0 -7 3 -10 7 -7 3 4 3 10 0 14 -4 3 -7 0 -7 -7z"/>
<path d="M930 335 c0 -3 2 -5 5 -5 3 0 5 2 5 5 0 3 -2 5 -5 5 -3 0 -5 -2 -5
-5z"/>
<path d="M340 325 c0 -3 2 -5 5 -5 3 0 5 2 5 5 0 3 -2 5 -5 5 -3 0 -5 -2 -5
-5z"/>
<path d="M476 247 c3 -11 7 -26 8 -33 4 -25 16 -28 15 -3 -1 13 2 32 6 41 5
13 2 17 -14 15 -16 -1 -20 -6 -15 -20z"/>
<path d="M610 235 c0 -3 2 -5 5 -5 3 0 5 2 5 5 0 3 -2 5 -5 5 -3 0 -5 -2 -5
-5z"/>
<path d="M340 216 c0 -15 -3 -17 -11 -9 -12 12 -59 -2 -59 -17 0 -11 82 -22
90 -13 4 4 1 19 -6 33 -12 21 -14 22 -14 6z m-3 -33 c-8 -7 -37 9 -31 19 3 5
12 4 20 -3 8 -6 13 -14 11 -16z"/>
<path d="M933 208 c-31 -15 -29 -28 5 -27 15 0 21 3 14 6 -10 4 -10 8 -1 19
13 16 12 16 -18 2z"/>
<path d="M340 155 c0 -3 2 -5 5 -5 3 0 5 2 5 5 0 3 -2 5 -5 5 -3 0 -5 -2 -5
-5z"/>
<path d="M70 145 c0 -3 2 -5 5 -5 3 0 5 2 5 5 0 3 -2 5 -5 5 -3 0 -5 -2 -5 -5z"/>
<path d="M360 137 c0 -18 -8 -20 -52 -17 -17 1 -28 -4 -28 -11 0 -22 41 -58
58 -52 10 4 13 2 8 -5 -4 -7 -3 -12 2 -12 6 0 13 8 16 17 7 18 -9 33 -34 32
-10 0 -11 -2 -2 -6 6 -2 9 -9 6 -14 -3 -6 -11 -6 -20 2 -7 6 -11 16 -7 22 4 6
1 7 -7 2 -8 -5 -11 -4 -7 2 4 6 23 11 43 11 25 0 33 -3 23 -9 -11 -7 -10 -9 4
-9 13 0 17 6 14 25 -4 29 -17 46 -17 22z"/>
<path d="M550 145 c0 -3 2 -5 5 -5 3 0 5 2 5 5 0 3 -2 5 -5 5 -3 0 -5 -2 -5
-5z"/>
<path d="M710 145 c0 -3 2 -5 5 -5 3 0 5 2 5 5 0 3 -2 5 -5 5 -3 0 -5 -2 -5
-5z"/>
<path d="M340 135 c0 -3 2 -5 5 -5 3 0 5 2 5 5 0 3 -2 5 -5 5 -3 0 -5 -2 -5
-5z"/>
<path d="M610 135 c0 -3 2 -5 5 -5 3 0 5 2 5 5 0 3 -2 5 -5 5 -3 0 -5 -2 -5
-5z"/>
<path d="M21 122 c-1 -8 -6 -10 -13 -6 -10 5 -10 4 -1 -6 15 -16 28 -8 20 12
-4 11 -6 11 -6 0z"/>
<path d="M500 125 c0 -3 2 -5 5 -5 3 0 5 2 5 5 0 3 -2 5 -5 5 -3 0 -5 -2 -5
-5z"/>
<path d="M920 107 c0 -8 10 -22 22 -33 14 -12 18 -13 10 -3 -6 9 -8 20 -4 24
4 5 0 5 -8 1 -8 -4 -6 0 4 8 19 16 19 16 -2 16 -12 0 -22 -6 -22 -13z"/>
<path d="M471 71 c0 -14 -1 -35 -3 -45 -2 -10 4 -21 12 -23 12 -4 12 -3 2 5
-11 7 -10 10 3 16 10 3 15 12 11 21 -3 8 0 15 7 15 8 0 8 3 -2 9 -7 5 -11 13
-8 18 3 5 0 10 -8 10 -10 0 -15 -10 -14 -26z m19 -36 c0 -3 -2 -5 -5 -5 -3 0
-5 2 -5 5 0 3 2 5 5 5 3 0 5 -2 5 -5z"/>
<path d="M130 75 c0 -3 2 -5 5 -5 3 0 5 2 5 5 0 3 -2 5 -5 5 -3 0 -5 -2 -5 -5z"/>
<path d="M770 75 c0 -3 2 -5 5 -5 3 0 5 2 5 5 0 3 -2 5 -5 5 -3 0 -5 -2 -5 -5z"/>
<path d="M610 45 c0 -3 2 -5 5 -5 3 0 5 2 5 5 0 3 -2 5 -5 5 -3 0 -5 -2 -5 -5z"/>
<path d="M270 35 c0 -3 2 -5 5 -5 3 0 5 2 5 5 0 3 -2 5 -5 5 -3 0 -5 -2 -5 -5z"/>
<path d="M910 35 c0 -3 2 -5 5 -5 3 0 5 2 5 5 0 3 -2 5 -5 5 -3 0 -5 -2 -5 -5z"/>
<path d="M290 25 c0 -3 2 -5 5 -5 3 0 5 2 5 5 0 3 -2 5 -5 5 -3 0 -5 -2 -5 -5z"/>
<path d="M340 20 c0 -7 3 -10 7 -7 3 4 3 10 0 14 -4 3 -7 0 -7 -7z"/>
<path d="M930 25 c0 -3 2 -5 5 -5 3 0 5 2 5 5 0 3 -2 5 -5 5 -3 0 -5 -2 -5 -5z"/>
<path d="M610 15 c0 -3 2 -5 5 -5 3 0 5 2 5 5 0 3 -2 5 -5 5 -3 0 -5 -2 -5 -5z"/>
<path d="M20 5 c0 -3 2 -5 5 -5 3 0 5 2 5 5 0 3 -2 5 -5 5 -3 0 -5 -2 -5 -5z"/>
<path d="M660 5 c0 -3 2 -5 5 -5 3 0 5 2 5 5 0 3 -2 5 -5 5 -3 0 -5 -2 -5 -5z"/>
</g>
<g transform="translate(0.000000,96.000000) scale(0.100000,-0.100000)"
fill="#041d08" stroke="none">
<path d="M20 950 c0 -7 3 -10 7 -7 3 4 3 10 0 14 -4 3 -7 0 -7 -7z"/>
<path d="M153 953 c4 -3 -1 -12 -11 -19 -16 -12 -15 -13 8 -23 14 -5 19 -10
12 -10 -9 -1 -10 -6 -4 -17 5 -9 7 -25 5 -35 -3 -11 0 -19 6 -19 7 0 10 4 7 9
-4 5 -2 19 2 32 10 26 -6 89 -21 89 -6 0 -7 -3 -4 -7z m17 -28 c0 -3 -2 -5 -5
-5 -3 0 -5 2 -5 5 0 3 2 5 5 5 3 0 5 -2 5 -5z"/>
<path d="M343 945 c0 -8 4 -12 9 -9 5 3 6 10 3 15 -9 13 -12 11 -12 -6z"/>
<path d="M465 940 c-10 -11 -13 -20 -8 -20 10 0 25 -39 27 -70 1 -8 5 -21 9
-27 5 -8 4 -13 -2 -13 -6 0 -11 -5 -11 -11 0 -6 -7 -18 -16 -27 -15 -14 -14
-16 7 -24 17 -7 20 -11 11 -17 -7 -4 -10 -15 -7 -23 3 -8 -1 -22 -9 -31 -14
-13 -14 -16 0 -27 13 -11 13 -15 -2 -31 -10 -11 -12 -19 -7 -19 10 0 25 -39
27 -70 1 -8 5 -21 9 -27 5 -8 4 -13 -2 -13 -6 0 -11 -5 -11 -11 0 -6 -7 -18
-16 -27 -15 -14 -14 -16 7 -24 17 -7 20 -11 11 -17 -7 -4 -10 -15 -7 -23 3 -8
-1 -22 -9 -31 -14 -13 -14 -16 0 -27 13 -11 13 -15 -2 -31 -10 -11 -15 -19
-13 -20 2 0 12 -2 22 -4 16 -3 22 7 17 30 -8 38 -8 45 1 45 6 0 7 9 4 21 -6
16 -4 20 6 13 12 -6 12 -5 0 9 -7 9 -10 17 -7 17 4 0 2 9 -3 19 -8 14 -6 25 9
44 16 20 17 26 5 30 -15 6 -12 52 6 74 8 9 6 11 -10 8 -19 -3 -20 -1 -10 17 8
15 8 19 0 14 -6 -4 -11 -2 -11 3 0 6 6 11 13 11 7 0 8 3 2 8 -14 10 -17 32 -4
32 6 0 8 9 4 21 -6 16 -4 20 6 13 12 -6 12 -5 0 9 -7 9 -10 17 -7 17 4 0 2 9
-3 19 -8 14 -6 25 9 44 16 20 17 26 5 30 -15 6 -12 52 6 74 8 9 6 11 -10 8
-19 -3 -20 -1 -10 17 8 15 8 19 0 14 -6 -4 -11 -3 -11 3 0 5 6 12 13 14 7 3 7
6 1 6 -6 1 -19 -8 -29 -19z m15 -285 c0 -3 -2 -5 -5 -5 -3 0 -5 2 -5 5 0 3 2
5 5 5 3 0 5 -2 5 -5z m0 -320 c0 -3 -2 -5 -5 -5 -3 0 -5 2 -5 5 0 3 2 5 5 5 3
0 5 -2 5 -5z m10 -40 c0 -3 -2 -5 -5 -5 -3 0 -5 2 -5 5 0 3 2 5 5 5 3 0 5 -2
5 -5z"/>
<path d="M785 940 c-10 -11 -16 -20 -14 -21 2 0 12 -2 21 -4 19 -3 30 16 19
34 -5 8 -13 6 -26 -9z m25 -5 c0 -3 -2 -5 -5 -5 -3 0 -5 2 -5 5 0 3 2 5 5 5 3
0 5 -2 5 -5z"/>
<path d="M664 942 c10 -17 -11 -24 -35 -11 -15 8 -19 8 -15 0 4 -6 0 -11 -11
-11 -22 -1 32 -33 59 -35 19 -2 32 21 17 30 -5 4 -7 10 -4 15 3 5 0 12 -6 16
-7 4 -9 3 -5 -4z m-15 -31 c8 -5 9 -11 3 -15 -5 -3 -15 1 -22 9 -14 16 -3 20
19 6z"/>
<path d="M10 920 c-12 -8 -12 -10 -1 -10 11 0 11 -3 1 -16 -11 -12 -11 -15 1
-12 8 2 13 -3 12 -9 -4 -19 5 -16 16 6 14 25 -7 55 -29 41z"/>
<path d="M275 921 c-4 -8 44 -36 58 -33 4 1 7 -6 8 -15 0 -14 3 -13 11 5 8 15
8 26 1 33 -12 12 -71 20 -78 10z m54 -10 c8 -5 9 -11 3 -15 -5 -3 -15 1 -22 9
-14 16 -3 20 19 6z"/>
<path d="M914 918 c-3 -5 3 -11 13 -15 10 -3 23 -9 28 -11 6 -3 4 1 -3 10 -10
13 -10 17 0 21 7 3 3 4 -10 4 -13 -1 -26 -5 -28 -9z"/>
<path d="M796 887 c3 -11 7 -26 8 -33 4 -25 16 -28 15 -3 -1 13 2 32 6 41 5
13 2 17 -14 15 -16 -1 -20 -6 -15 -20z"/>
<path d="M930 875 c0 -3 2 -5 5 -5 3 0 5 2 5 5 0 3 -2 5 -5 5 -3 0 -5 -2 -5
-5z"/>
<path d="M660 856 c0 -15 -3 -17 -11 -9 -12 12 -59 -2 -59 -17 0 -11 82 -22
90 -13 4 4 1 19 -6 33 -12 21 -14 22 -14 6z m-3 -33 c-8 -7 -37 9 -31 19 3 5
12 4 20 -3 8 -6 13 -14 11 -16z"/>
<path d="M296 849 c3 -5 9 -7 14 -4 4 3 14 -3 21 -12 12 -15 12 -16 -6 -9 -42
17 -58 19 -51 8 4 -7 16 -12 26 -12 11 0 29 -10 41 -22 12 -13 19 -17 15 -10
-4 7 -3 19 3 26 8 10 7 17 -5 27 -10 8 -19 13 -21 12 -1 -2 -4 -3 -5 -2 -21 6
-37 5 -32 -2z"/>
<path d="M932 847 c-25 -15 -19 -27 12 -26 12 0 15 3 8 6 -10 4 -10 8 -1 19
14 17 11 17 -19 1z"/>
<path d="M11 834 c7 -8 6 -14 -3 -17 -9 -4 -7 -6 4 -6 12 -1 16 -8 13 -22 -3
-12 -1 -19 2 -15 20 19 11 73 -12 73 -11 0 -12 -4 -4 -13z"/>
<path d="M50 825 c0 -3 2 -5 5 -5 3 0 5 2 5 5 0 3 -2 5 -5 5 -3 0 -5 -2 -5 -5z"/>
<path d="M161 806 c-9 -10 -7 -17 6 -27 15 -12 16 -12 10 3 -4 11 0 21 11 27
15 9 15 10 1 11 -9 0 -22 -6 -28 -14z"/>
<path d="M798 811 c11 -7 11 -11 -2 -24 -21 -20 -20 -37 0 -37 10 0 14 6 10
15 -3 8 -1 15 5 15 6 0 8 4 4 9 -3 6 3 14 12 20 15 9 13 10 -12 11 -20 0 -26
-3 -17 -9z"/>
<path d="M660 795 c0 -3 2 -5 5 -5 3 0 5 2 5 5 0 3 -2 5 -5 5 -3 0 -5 -2 -5
-5z"/>
<path d="M136 765 c-3 -8 0 -15 7 -15 14 0 15 -52 2 -82 -5 -13 -3 -18 8 -18
22 0 31 53 16 95 -14 38 -24 44 -33 20z m34 -40 c0 -3 -2 -5 -5 -5 -3 0 -5 2
-5 5 0 3 2 5 5 5 3 0 5 -2 5 -5z m0 -40 c0 -3 -2 -5 -5 -5 -3 0 -5 2 -5 5 0 3
2 5 5 5 3 0 5 -2 5 -5z"/>
<path d="M290 775 c0 -3 2 -5 5 -5 3 0 5 2 5 5 0 3 -2 5 -5 5 -3 0 -5 -2 -5
-5z"/>
<path d="M660 775 c0 -3 2 -5 5 -5 3 0 5 2 5 5 0 3 -2 5 -5 5 -3 0 -5 -2 -5
-5z"/>
<path d="M930 775 c0 -3 2 -5 5 -5 3 0 5 2 5 5 0 3 -2 5 -5 5 -3 0 -5 -2 -5
-5z"/>
<path d="M340 761 c0 -4 -10 -6 -23 -4 -14 3 -29 -2 -36 -11 -12 -14 -10 -16
8 -16 14 0 20 4 15 11 -5 9 1 10 20 5 19 -5 26 -3 26 9 0 8 -2 15 -5 15 -3 0
-5 -4 -5 -9z"/>
<path d="M11 744 c7 -8 6 -14 -3 -17 -10 -4 -10 -6 1 -6 10 -1 11 -4 3 -14 -8
-10 -6 -13 8 -14 10 -1 21 5 24 13 3 8 1 14 -4 14 -6 0 -10 8 -10 18 0 10 -7
19 -15 19 -10 0 -12 -4 -4 -13z"/>
<path d="M600 748 c0 -21 41 -57 58 -51 10 4 13 2 8 -5 -4 -7 -3 -12 2 -12 14
0 25 34 13 38 -6 2 -9 7 -6 12 3 4 -5 6 -17 2 -12 -3 -17 -7 -10 -10 7 -2 9
-8 6 -13 -3 -6 -11 -6 -20 2 -7 6 -11 16 -7 22 4 6 1 7 -7 2 -9 -6 -11 -4 -5
4 4 7 15 11 25 8 10 -2 23 -1 29 3 7 3 -6 7 -29 8 -25 1 -40 -3 -40 -10z"/>
<path d="M920 744 c0 -6 10 -19 22 -30 13 -11 18 -13 12 -4 -12 20 -12 34 1
42 5 4 0 6 -13 5 -12 0 -22 -6 -22 -13z m20 -9 c0 -3 -2 -5 -5 -5 -3 0 -5 2
-5 5 0 3 2 5 5 5 3 0 5 -2 5 -5z"/>
<path d="M791 711 c1 -14 -1 -33 -5 -42 -4 -10 -2 -20 4 -24 8 -5 6 -13 -6
-26 -9 -10 -14 -20 -11 -20 24 -5 33 -4 38 4 9 13 -1 47 -14 47 -6 0 -3 6 8
13 10 8 15 19 11 25 -4 7 -1 12 6 12 10 0 10 2 -1 9 -7 5 -11 13 -8 18 3 5 0
10 -8 10 -10 0 -15 -10 -14 -26z m19 -36 c0 -3 -2 -5 -5 -5 -3 0 -5 2 -5 5 0
3 2 5 5 5 3 0 5 -2 5 -5z m0 -60 c0 -3 -2 -5 -5 -5 -3 0 -5 2 -5 5 0 3 2 5 5
5 3 0 5 -2 5 -5z"/>
<path d="M329 721 c8 -5 9 -11 3 -15 -6 -3 -13 -2 -17 4 -3 5 -12 10 -18 10
-14 -1 22 -23 42 -26 8 -2 20 3 27 11 11 11 11 14 -2 19 -9 3 -23 6 -32 6 -13
0 -14 -2 -3 -9z"/>
<path d="M930 685 c0 -3 2 -5 5 -5 3 0 5 2 5 5 0 3 -2 5 -5 5 -3 0 -5 -2 -5
-5z"/>
<path d="M23 665 c0 -8 4 -12 9 -9 5 3 6 10 3 15 -9 13 -12 11 -12 -6z"/>
<path d="M345 670 c3 -5 8 -10 11 -10 3 0 2 5 -1 10 -3 6 -8 10 -11 10 -3 0
-2 -4 1 -10z"/>
<path d="M610 665 c0 -3 2 -5 5 -5 3 0 5 2 5 5 0 3 -2 5 -5 5 -3 0 -5 -2 -5
-5z"/>
<path d="M660 660 c0 -7 3 -10 7 -7 3 4 3 10 0 14 -4 3 -7 0 -7 -7z"/>
<path d="M290 655 c0 -3 2 -5 5 -5 3 0 5 2 5 5 0 3 -2 5 -5 5 -3 0 -5 -2 -5
-5z"/>
<path d="M930 655 c0 -3 2 -5 5 -5 3 0 5 2 5 5 0 3 -2 5 -5 5 -3 0 -5 -2 -5
-5z"/>
<path d="M343 631 c0 -11 5 -18 9 -15 4 3 5 11 1 19 -7 21 -12 19 -10 -4z"/>
<path d="M24 628 c-4 -7 -3 -8 4 -4 12 7 16 16 8 16 -3 0 -8 -5 -12 -12z"/>
<path d="M145 620 c-10 -11 -16 -20 -14 -21 42 -8 64 1 39 16 -6 4 -8 11 -5
16 10 16 -1 10 -20 -11z"/>
<path d="M664 622 c10 -17 -11 -24 -35 -11 -15 8 -19 8 -15 0 4 -6 0 -11 -11
-11 -22 -1 32 -33 59 -35 19 -2 32 21 17 30 -5 4 -7 10 -4 15 3 5 0 12 -6 16
-7 4 -9 3 -5 -4z m-15 -31 c8 -5 9 -11 3 -15 -5 -3 -15 1 -22 9 -14 16 -3 20
19 6z"/>
<path d="M295 610 c3 -6 -2 -10 -12 -10 -13 -1 -10 -6 12 -17 17 -10 33 -16
38 -15 4 1 7 -6 7 -15 1 -17 1 -17 11 0 15 25 8 37 -29 53 -18 7 -30 9 -27 4z
m34 -19 c8 -5 9 -11 3 -15 -5 -3 -15 1 -22 9 -14 16 -3 20 19 6z"/>
<path d="M10 600 c-12 -8 -12 -10 -1 -10 11 0 11 -3 0 -17 -10 -11 -10 -14 -1
-9 11 7 17 -5 13 -27 -1 -5 3 -5 9 -2 6 4 9 9 6 12 -3 3 -1 14 4 23 12 23 -9
43 -30 30z"/>
<path d="M914 598 c-3 -5 3 -11 13 -15 10 -3 23 -9 28 -11 6 -3 4 1 -3 10 -10
13 -10 17 0 21 7 3 3 4 -10 4 -13 -1 -26 -5 -28 -9z"/>
<path d="M155 573 c13 -32 13 -113 -1 -113 -21 0 -22 -24 -1 -42 11 -10 15
-18 8 -18 -7 0 -9 -4 -6 -10 3 -5 1 -19 -5 -31 -9 -15 -9 -24 -1 -32 8 -8 6
-16 -6 -29 -9 -10 -11 -18 -6 -18 10 0 25 -39 27 -70 1 -8 5 -21 9 -27 5 -8 4
-13 -2 -13 -6 0 -11 -5 -11 -11 0 -6 -7 -18 -16 -27 -15 -14 -14 -16 7 -24 17
-7 20 -11 11 -17 -7 -4 -10 -15 -7 -23 3 -8 -1 -22 -9 -31 -14 -13 -14 -16 -1
-27 14 -11 19 -7 16 13 0 4 4 7 10 7 6 0 8 9 4 21 -6 16 -4 20 6 13 12 -6 12
-5 0 9 -7 9 -10 17 -7 17 4 0 2 9 -3 19 -8 14 -6 25 9 44 16 20 17 26 5 30
-15 6 -12 52 6 74 8 9 6 11 -10 8 -19 -3 -20 -1 -10 17 8 15 8 19 0 14 -6 -4
-11 -3 -11 3 0 5 6 12 13 14 9 4 9 6 0 6 -9 1 -10 8 -3 25 5 13 6 27 3 30 -4
3 0 6 8 6 11 0 11 2 -1 10 -8 5 -11 10 -7 10 4 0 3 9 -3 20 -8 15 -7 26 6 45
11 16 13 29 7 38 -10 13 -10 24 2 51 5 12 3 21 -6 27 -22 14 -32 10 -24 -8z
m25 -8 c0 -3 -2 -5 -5 -5 -3 0 -5 2 -5 5 0 3 2 5 5 5 3 0 5 -2 5 -5z m-20
-550 c0 -3 -2 -5 -5 -5 -3 0 -5 2 -5 5 0 3 2 5 5 5 3 0 5 -2 5 -5z"/>
<path d="M796 567 c3 -11 7 -26 8 -33 4 -25 16 -28 15 -3 -1 13 2 32 6 41 5
13 2 17 -14 15 -16 -1 -20 -6 -15 -20z"/>
<path d="M930 555 c0 -3 2 -5 5 -5 3 0 5 2 5 5 0 3 -2 5 -5 5 -3 0 -5 -2 -5
-5z"/>
<path d="M660 536 c0 -15 -3 -17 -11 -9 -12 12 -59 -2 -59 -17 0 -11 82 -22
90 -13 4 4 1 19 -6 33 -12 21 -14 22 -14 6z m-3 -33 c-8 -7 -37 9 -31 19 3 5
12 4 20 -3 8 -6 13 -14 11 -16z"/>
<path d="M292 526 c-24 -13 -20 -26 9 -26 10 0 28 -10 40 -22 12 -13 19 -17
15 -10 -4 7 -3 19 3 26 8 10 7 17 -4 26 -8 7 -15 9 -15 5 0 -4 -6 -3 -13 3 -8
7 -19 7 -35 -2z m45 -23 c-8 -7 -37 9 -31 19 3 5 12 4 20 -3 8 -6 13 -14 11
-16z"/>
<path d="M932 527 c-25 -15 -19 -27 12 -26 12 0 15 3 8 6 -10 4 -10 8 -1 19
14 17 11 17 -19 1z"/>
<path d="M10 515 c8 -10 7 -14 -2 -18 -10 -4 -10 -6 0 -6 6 -1 12 -8 12 -18 0
-22 6 -14 13 18 6 21 3 28 -14 32 -16 4 -18 3 -9 -8z"/>
<path d="M50 505 c0 -3 2 -5 5 -5 3 0 5 2 5 5 0 3 -2 5 -5 5 -3 0 -5 -2 -5 -5z"/>
<path d="M798 491 c11 -7 11 -11 -2 -24 -21 -20 -20 -37 0 -37 10 0 14 6 10
15 -3 8 -1 15 5 15 6 0 8 4 4 9 -3 6 3 14 12 20 15 9 13 10 -12 11 -20 0 -26
-3 -17 -9z"/>
<path d="M290 485 c0 -3 2 -5 5 -5 3 0 5 2 5 5 0 3 -2 5 -5 5 -3 0 -5 -2 -5
-5z"/>
<path d="M660 475 c0 -3 2 -5 5 -5 3 0 5 2 5 5 0 3 -2 5 -5 5 -3 0 -5 -2 -5
-5z"/>
<path d="M290 465 c0 -3 2 -5 5 -5 3 0 5 2 5 5 0 3 -2 5 -5 5 -3 0 -5 -2 -5
-5z"/>
<path d="M660 455 c0 -3 2 -5 5 -5 3 0 5 2 5 5 0 3 -2 5 -5 5 -3 0 -5 -2 -5
-5z"/>
<path d="M930 455 c0 -3 2 -5 5 -5 3 0 5 2 5 5 0 3 -2 5 -5 5 -3 0 -5 -2 -5
-5z"/>
<path d="M25 440 c6 -10 4 -12 -10 -6 -15 5 -16 4 -6 -8 9 -11 9 -15 -1 -19
-10 -4 -10 -6 1 -6 11 -1 11 -4 1 -16 -11 -13 -10 -14 3 -9 12 4 14 0 11 -18
-4 -17 -1 -16 9 7 9 19 10 32 4 36 -5 4 -7 14 -4 23 3 8 1 18 -5 22 -7 5 -8 2
-3 -6z"/>
<path d="M340 442 c0 -4 -12 -8 -27 -7 -33 0 -40 -19 -14 -41 26 -23 50 -26
67 -9 11 11 11 14 -2 19 -9 3 -23 6 -32 6 -13 0 -14 -2 -3 -9 8 -5 9 -11 3
-15 -11 -7 -25 9 -28 32 -2 10 5 12 22 8 17 -5 24 -2 24 9 0 8 -2 15 -5 15 -3
0 -5 -4 -5 -8z"/>
<path d="M600 428 c0 -21 41 -57 58 -51 10 4 13 2 8 -5 -4 -7 -3 -12 2 -12 14
0 25 34 13 38 -6 2 -9 7 -6 12 3 4 -5 6 -17 2 -12 -3 -17 -7 -10 -10 7 -2 9
-8 6 -13 -3 -6 -11 -6 -20 2 -7 6 -11 16 -7 22 4 6 1 7 -7 2 -9 -6 -11 -4 -5
4 4 7 15 11 25 8 10 -2 23 -1 29 3 7 3 -6 7 -29 8 -25 1 -40 -3 -40 -10z"/>
<path d="M920 424 c0 -6 10 -19 22 -30 13 -11 18 -13 12 -4 -12 20 -12 34 1
42 5 4 0 6 -13 5 -12 0 -22 -6 -22 -13z m20 -9 c0 -3 -2 -5 -5 -5 -3 0 -5 2
-5 5 0 3 2 5 5 5 3 0 5 -2 5 -5z"/>
<path d="M791 391 c1 -14 -1 -33 -5 -42 -4 -10 -2 -20 4 -24 8 -5 6 -13 -6
-26 -9 -10 -12 -19 -7 -19 10 0 25 -39 27 -70 1 -8 5 -21 9 -27 5 -8 4 -13 -2
-13 -6 0 -11 -5 -11 -11 0 -6 -7 -18 -16 -27 -15 -14 -14 -16 7 -24 17 -7 20
-11 11 -17 -7 -4 -10 -15 -7 -23 3 -8 -1 -22 -9 -31 -14 -13 -14 -16 -1 -27
14 -11 19 -7 16 12 0 5 4 8 10 8 6 0 8 9 4 21 -6 16 -4 20 6 13 12 -6 12 -5 0
9 -7 9 -10 17 -7 17 4 0 2 9 -3 19 -8 14 -6 25 9 44 16 20 17 26 5 30 -15 6
-12 52 6 74 8 9 6 11 -10 8 -19 -3 -20 -1 -10 17 8 15 8 19 0 14 -6 -4 -11 -2
-11 3 0 6 6 11 13 11 7 1 5 6 -6 14 -16 12 -16 14 -1 20 9 4 14 13 10 21 -3 8
0 15 7 15 8 0 8 3 -2 9 -7 5 -11 13 -8 18 3 5 0 10 -8 10 -10 0 -15 -10 -14
-26z m19 -36 c0 -3 -2 -5 -5 -5 -3 0 -5 2 -5 5 0 3 2 5 5 5 3 0 5 -2 5 -5z
m-10 -340 c0 -3 -2 -5 -5 -5 -3 0 -5 2 -5 5 0 3 2 5 5 5 3 0 5 -2 5 -5z"/>
<path d="M930 365 c0 -3 2 -5 5 -5 3 0 5 2 5 5 0 3 -2 5 -5 5 -3 0 -5 -2 -5
-5z"/>
<path d="M345 350 c3 -5 8 -10 11 -10 3 0 2 5 -1 10 -3 6 -8 10 -11 10 -3 0
-2 -4 1 -10z"/>
<path d="M290 345 c0 -3 2 -5 5 -5 3 0 5 2 5 5 0 3 -2 5 -5 5 -3 0 -5 -2 -5
-5z"/>
<path d="M610 345 c0 -3 2 -5 5 -5 3 0 5 2 5 5 0 3 -2 5 -5 5 -3 0 -5 -2 -5
-5z"/>
<path d="M660 340 c0 -7 3 -10 7 -7 3 4 3 10 0 14 -4 3 -7 0 -7 -7z"/>
<path d="M930 335 c0 -3 2 -5 5 -5 3 0 5 2 5 5 0 3 -2 5 -5 5 -3 0 -5 -2 -5
-5z"/>
<path d="M23 311 c0 -11 5 -18 9 -15 4 3 5 11 1 19 -7 21 -12 19 -10 -4z"/>
<path d="M340 325 c0 -3 2 -5 5 -5 3 0 5 2 5 5 0 3 -2 5 -5 5 -3 0 -5 -2 -5
-5z"/>
<path d="M665 310 c3 -5 8 -10 11 -10 3 0 2 5 -1 10 -3 6 -8 10 -11 10 -3 0
-2 -4 1 -10z"/>
<path d="M344 302 c10 -17 -11 -24 -35 -11 -15 8 -19 8 -15 0 4 -6 0 -11 -11
-11 -22 -1 32 -33 59 -35 19 -2 32 21 17 30 -5 4 -7 10 -4 15 3 5 0 12 -6 16
-7 4 -9 3 -5 -4z m-15 -31 c8 -5 9 -11 3 -15 -5 -3 -15 1 -22 9 -14 16 -3 20
19 6z"/>
<path d="M935 291 c3 -5 -2 -11 -12 -13 -12 -2 -10 -6 12 -16 25 -11 27 -11
16 1 -9 12 -9 16 1 19 8 3 6 7 -6 11 -9 4 -15 3 -11 -2z"/>
<path d="M594 278 c-5 -8 44 -33 59 -30 4 1 7 -6 7 -15 1 -17 1 -17 11 0 18
30 3 52 -36 53 -20 0 -38 -3 -41 -8z m55 -7 c8 -5 9 -11 3 -15 -5 -3 -15 1
-22 9 -14 16 -3 20 19 6z"/>
<path d="M8 273 c10 -4 10 -8 0 -21 -10 -12 -10 -14 -1 -8 9 5 13 1 13 -11 1
-17 1 -17 11 0 14 24 4 47 -18 46 -11 0 -13 -3 -5 -6z"/>
<path d="M476 247 c3 -11 7 -26 8 -33 4 -25 16 -28 15 -3 -1 13 2 32 6 41 5
13 2 17 -14 15 -16 -1 -20 -6 -15 -20z"/>
<path d="M610 235 c0 -3 2 -5 5 -5 3 0 5 2 5 5 0 3 -2 5 -5 5 -3 0 -5 -2 -5
-5z"/>
<path d="M340 216 c0 -15 -3 -17 -11 -9 -12 12 -59 -2 -59 -17 0 -11 82 -22
90 -13 4 4 1 19 -6 33 -12 21 -14 22 -14 6z m-3 -33 c-8 -7 -37 9 -31 19 3 5
12 4 20 -3 8 -6 13 -14 11 -16z"/>
<path d="M612 206 c-24 -13 -20 -26 9 -26 10 0 28 -10 40 -22 12 -13 19 -17
15 -10 -4 7 -3 19 3 26 8 10 7 17 -4 26 -8 7 -15 9 -15 5 0 -4 -6 -3 -13 3 -8
7 -19 7 -35 -2z m45 -23 c-8 -7 -37 9 -31 19 3 5 12 4 20 -3 8 -6 13 -14 11
-16z"/>
<path d="M933 208 c-31 -15 -29 -28 5 -27 15 0 21 3 14 6 -10 4 -10 8 -1 19
13 16 12 16 -18 2z"/>
<path d="M10 195 c6 -7 7 -15 2 -17 -5 -1 0 -12 11 -23 11 -11 17 -14 13 -7
-4 7 -3 19 4 27 12 14 0 27 -28 31 -10 2 -10 -1 -2 -11z"/>
<path d="M478 171 c11 -7 11 -11 -2 -24 -21 -20 -20 -37 0 -37 10 0 14 6 10
15 -3 8 -1 15 5 15 6 0 8 4 4 9 -3 6 3 14 12 20 15 9 13 10 -12 11 -20 0 -26
-3 -17 -9z"/>
<path d="M340 155 c0 -3 2 -5 5 -5 3 0 5 2 5 5 0 3 -2 5 -5 5 -3 0 -5 -2 -5
-5z"/>
<path d="M340 135 c0 -3 2 -5 5 -5 3 0 5 2 5 5 0 3 -2 5 -5 5 -3 0 -5 -2 -5
-5z"/>
<path d="M610 135 c0 -3 2 -5 5 -5 3 0 5 2 5 5 0 3 -2 5 -5 5 -3 0 -5 -2 -5
-5z"/>
<path d="M21 122 c-1 -8 -6 -10 -13 -6 -10 5 -10 4 -1 -6 15 -16 28 -8 20 12
-4 11 -6 11 -6 0z"/>
<path d="M660 122 c0 -5 -13 -7 -30 -6 -35 2 -39 -15 -10 -41 26 -24 49 -27
66 -10 11 11 11 14 -2 19 -9 3 -23 6 -32 6 -13 0 -14 -2 -3 -9 8 -5 9 -11 3
-15 -11 -7 -25 9 -28 32 -2 10 5 12 22 8 17 -5 24 -2 24 9 0 8 -2 15 -5 15 -3
0 -5 -4 -5 -8z m-40 -27 c0 -3 -2 -5 -5 -5 -3 0 -5 2 -5 5 0 3 2 5 5 5 3 0 5
-2 5 -5z"/>
<path d="M280 108 c0 -21 41 -57 58 -51 10 4 13 2 8 -5 -4 -7 -3 -12 2 -12 14
0 25 34 13 38 -6 2 -9 7 -6 12 3 4 -5 6 -17 2 -12 -3 -17 -7 -10 -10 7 -2 9
-8 6 -13 -3 -6 -11 -6 -20 2 -7 6 -11 16 -7 22 4 6 1 7 -7 2 -9 -6 -11 -4 -5
4 4 7 15 11 25 8 10 -2 23 -1 29 3 7 3 -6 7 -29 8 -25 1 -40 -3 -40 -10z"/>
<path d="M920 107 c0 -8 10 -22 22 -33 14 -12 18 -13 10 -3 -6 9 -8 20 -4 24
4 5 0 5 -8 1 -8 -4 -6 0 4 8 19 16 19 16 -2 16 -12 0 -22 -6 -22 -13z"/>
<path d="M471 71 c0 -14 -1 -35 -3 -45 -2 -10 4 -21 12 -23 12 -4 12 -3 2 5
-11 7 -10 10 3 16 10 3 15 12 11 21 -3 8 0 15 7 15 8 0 8 3 -2 9 -7 5 -11 13
-8 18 3 5 0 10 -8 10 -10 0 -15 -10 -14 -26z m19 -36 c0 -3 -2 -5 -5 -5 -3 0
-5 2 -5 5 0 3 2 5 5 5 3 0 5 -2 5 -5z"/>
<path d="M8 83 c9 -3 10 -9 3 -17 -14 -17 19 -17 36 0 10 10 9 13 -3 18 -9 3
-23 6 -32 5 -11 0 -13 -2 -4 -6z"/>
<path d="M610 45 c0 -3 2 -5 5 -5 3 0 5 2 5 5 0 3 -2 5 -5 5 -3 0 -5 -2 -5 -5z"/>
<path d="M25 30 c3 -5 8 -10 11 -10 3 0 2 5 -1 10 -3 6 -8 10 -11 10 -3 0 -2
-4 1 -10z"/>
<path d="M665 30 c3 -5 8 -10 11 -10 3 0 2 5 -1 10 -3 6 -8 10 -11 10 -3 0 -2
-4 1 -10z"/>
<path d="M290 25 c0 -3 2 -5 5 -5 3 0 5 2 5 5 0 3 -2 5 -5 5 -3 0 -5 -2 -5 -5z"/>
<path d="M340 20 c0 -7 3 -10 7 -7 3 4 3 10 0 14 -4 3 -7 0 -7 -7z"/>
<path d="M930 25 c0 -3 2 -5 5 -5 3 0 5 2 5 5 0 3 -2 5 -5 5 -3 0 -5 -2 -5 -5z"/>
<path d="M610 15 c0 -3 2 -5 5 -5 3 0 5 2 5 5 0 3 -2 5 -5 5 -3 0 -5 -2 -5 -5z"/>
<path d="M20 5 c0 -3 2 -5 5 -5 3 0 5 2 5 5 0 3 -2 5 -5 5 -3 0 -5 -2 -5 -5z"/>
<path d="M660 5 c0 -3 2 -5 5 -5 3 0 5 2 5 5 0 3 -2 5 -5 5 -3 0 -5 -2 -5 -5z"/>
</g>
  </g>
</svg>
