<?xml version="1.0" encoding="UTF-8" standalone="no"?>
<!-- Created with Inkscape (http://www.inkscape.org/) -->

<svg
   xmlns:dc="http://purl.org/dc/elements/1.1/"
   xmlns:cc="http://creativecommons.org/ns#"
   xmlns:rdf="http://www.w3.org/1999/02/22-rdf-syntax-ns#"
   xmlns:svg="http://www.w3.org/2000/svg"
   xmlns="http://www.w3.org/2000/svg"
   xmlns:sodipodi="http://sodipodi.sourceforge.net/DTD/sodipodi-0.dtd"
   xmlns:inkscape="http://www.inkscape.org/namespaces/inkscape"
   width="32px"
   height="32px"
   viewBox="0 0 32px 32px"
   version="1.1"
   id="svgMain"
   inkscape:version="0.92.2 (5c3e80d, 2017-08-06)"
   sodipodi:docname="reference_SVG.svg">
  <defs
     id="defs4542" />
  <sodipodi:namedview
     id="base"
     pagecolor="#ffffff"
     bordercolor="#666666"
     borderopacity="1.0"
     inkscape:pageopacity="0.0"
     inkscape:pageshadow="2"
     inkscape:zoom="1"
     inkscape:cx="0"
     inkscape:cy="0"
     inkscape:document-units="px"
     inkscape:current-layer="layer1"
     showgrid="false"
     units="px"
     inkscape:window-width="1024"
     inkscape:window-height="768"
     inkscape:window-x="-8"
     inkscape:window-y="-8"
     inkscape:window-maximized="1" />
  <metadata
     id="metadata1">
    <rdf:RDF>
      <cc:Work
         rdf:about="">
        <dc:format>image/svg+xml</dc:format>
        <dc:type
           rdf:resource="http://purl.org/dc/dcmitype/StillImage" />
        <dc:title />
      </cc:Work>
    </rdf:RDF>
  </metadata>
  <g transform="translate(-32,-32)"
     inkscape:label="Layer 1"
     inkscape:groupmode="layer"
     id="layer1">
    <!-- INSERT MARKER -->
<g transform="translate(0.000000,96.000000) scale(0.100000,-0.100000)"
fill="#eae9eb" stroke="none">
<path d="M20 800 l0 -140 140 0 140 0 0 140 0 140 -140 0 -140 0 0 -140z"/>
<path d="M340 800 l0 -140 140 0 140 0 0 140 0 140 -140 0 -140 0 0 -140z"/>
<path d="M660 800 l0 -140 140 0 140 0 0 140 0 140 -140 0 -140 0 0 -140z"/>
<path d="M20 480 l0 -140 140 0 140 0 0 140 0 140 -140 0 -140 0 0 -140z"/>
<path d="M340 480 l0 -140 140 0 140 0 0 140 0 140 -140 0 -140 0 0 -140z"/>
<path d="M660 480 l0 -140 140 0 140 0 0 140 0 140 -140 0 -140 0 0 -140z"/>
<path d="M20 160 l0 -140 140 0 140 0 0 140 0 140 -140 0 -140 0 0 -140z"/>
<path d="M340 160 l0 -140 140 0 140 0 0 140 0 140 -140 0 -140 0 0 -140z"/>
<path d="M660 160 l0 -140 140 0 140 0 0 140 0 140 -140 0 -140 0 0 -140z"/>
</g>
<g transform="translate(0.000000,96.000000) scale(0.100000,-0.100000)"
fill="#dfdfdf" stroke="none">
<path d="M20 800 l0 -140 140 0 140 0 0 140 0 140 -140 0 -140 0 0 -140z m220
110 c0 -5 -8 -10 -17 -10 -12 0 -14 -3 -7 -10 14 -14 44 -2 44 16 0 8 5 14 10
14 6 0 10 -47 10 -120 l0 -120 -99 0 c-70 0 -101 4 -105 13 -5 10 -7 10 -12 0
-13 -30 -24 -9 -24 46 0 38 5 61 13 65 10 5 10 7 0 12 -8 3 -13 25 -13 55 l0
49 100 0 c60 0 100 -4 100 -10z"/>
<path d="M80 892 c-20 -9 -20 -47 0 -47 8 0 15 7 14 15 -1 10 10 16 34 18 19
1 41 6 51 12 12 7 3 9 -34 9 -27 0 -57 -3 -65 -7z"/>
<path d="M166 859 c-22 -22 -15 -25 14 -7 16 10 23 9 45 -12 32 -30 46 -18 15
15 -28 30 -48 31 -74 4z"/>
<path d="M106 839 c-4 -8 -3 -26 3 -40 7 -19 10 -21 15 -8 4 8 3 26 -3 40 -7
19 -10 21 -15 8z"/>
<path d="M196 825 c-3 -8 -15 -14 -28 -12 -15 1 -23 -3 -23 -13 0 -10 8 -14
23 -12 20 2 22 -1 16 -20 -6 -22 -6 -22 13 -5 19 16 21 16 37 -1 9 -11 14 -26
10 -36 -6 -14 -9 -15 -23 -3 -9 7 -25 13 -36 13 -27 -1 -26 -31 2 -31 11 0 25
-3 29 -7 23 -24 62 18 48 50 -4 9 -8 24 -8 32 -1 8 -9 14 -18 14 -17 -2 -22 7
-19 34 3 17 -16 15 -23 -3z"/>
<path d="M66 802 c-12 -37 2 -82 26 -82 20 0 20 1 4 19 -13 15 -14 20 -4 24 9
4 10 8 2 14 -7 4 -14 17 -16 28 -4 19 -5 19 -12 -3z"/>
<path d="M116 751 c-4 -5 0 -11 6 -14 19 -6 49 4 42 14 -7 12 -41 12 -48 0z"/>
<path d="M340 800 l0 -140 140 0 140 0 0 140 0 140 -140 0 -140 0 0 -140z
m220 110 c0 -5 -8 -10 -17 -10 -12 0 -14 -3 -7 -10 14 -14 44 -2 44 16 0 8 5
14 10 14 6 0 10 -47 10 -120 l0 -120 -99 0 c-70 0 -101 4 -105 13 -5 10 -7 10
-12 0 -13 -30 -24 -9 -24 46 0 38 5 61 13 65 10 5 10 7 0 12 -8 3 -13 25 -13
55 l0 49 100 0 c60 0 100 -4 100 -10z"/>
<path d="M400 892 c-20 -9 -20 -47 0 -47 8 0 15 7 14 15 -1 10 10 16 34 18 19
1 41 6 51 12 12 7 3 9 -34 9 -27 0 -57 -3 -65 -7z"/>
<path d="M486 859 c-22 -22 -15 -25 14 -7 16 10 23 9 45 -12 32 -30 46 -18 15
15 -28 30 -48 31 -74 4z"/>
<path d="M426 839 c-4 -8 -3 -26 3 -40 7 -19 10 -21 15 -8 4 8 3 26 -3 40 -7
19 -10 21 -15 8z"/>
<path d="M516 825 c-3 -8 -15 -14 -28 -12 -15 1 -23 -3 -23 -13 0 -10 8 -14
23 -12 20 2 22 -1 16 -20 -6 -22 -6 -22 13 -5 19 16 21 16 37 -1 9 -11 14 -26
10 -36 -6 -14 -9 -15 -23 -3 -9 7 -25 13 -36 13 -27 -1 -26 -31 2 -31 11 0 25
-3 29 -7 23 -24 62 18 48 50 -4 9 -8 24 -8 32 -1 8 -9 14 -18 14 -17 -2 -22 7
-19 34 3 17 -16 15 -23 -3z"/>
<path d="M386 802 c-12 -37 2 -82 26 -82 20 0 20 1 4 19 -13 15 -14 20 -4 24
9 4 10 8 2 14 -7 4 -14 17 -16 28 -4 19 -5 19 -12 -3z"/>
<path d="M436 751 c-4 -5 0 -11 6 -14 19 -6 49 4 42 14 -7 12 -41 12 -48 0z"/>
<path d="M660 800 l0 -140 140 0 140 0 0 140 0 140 -140 0 -140 0 0 -140z
m220 110 c0 -5 -8 -10 -17 -10 -12 0 -14 -3 -7 -10 14 -14 44 -2 44 16 0 8 5
14 10 14 6 0 10 -47 10 -120 l0 -120 -99 0 c-70 0 -101 4 -105 13 -5 10 -7 10
-12 0 -13 -30 -24 -9 -24 46 0 38 5 61 13 65 10 5 10 7 0 12 -8 3 -13 25 -13
55 l0 49 100 0 c60 0 100 -4 100 -10z"/>
<path d="M720 892 c-20 -9 -20 -47 0 -47 8 0 15 7 14 15 -1 10 10 16 34 18 19
1 41 6 51 12 12 7 3 9 -34 9 -27 0 -57 -3 -65 -7z"/>
<path d="M806 859 c-22 -22 -15 -25 14 -7 16 10 23 9 45 -12 32 -30 46 -18 15
15 -28 30 -48 31 -74 4z"/>
<path d="M746 839 c-4 -8 -3 -26 3 -40 7 -19 10 -21 15 -8 4 8 3 26 -3 40 -7
19 -10 21 -15 8z"/>
<path d="M836 825 c-3 -8 -15 -14 -28 -12 -15 1 -23 -3 -23 -13 0 -10 8 -14
23 -12 20 2 22 -1 16 -20 -6 -22 -6 -22 13 -5 19 16 21 16 37 -1 9 -11 14 -26
10 -36 -6 -14 -9 -15 -23 -3 -9 7 -25 13 -36 13 -27 -1 -26 -31 2 -31 11 0 25
-3 29 -7 23 -24 62 18 48 50 -4 9 -8 24 -8 32 -1 8 -9 14 -18 14 -17 -2 -22 7
-19 34 3 17 -16 15 -23 -3z"/>
<path d="M706 802 c-12 -37 2 -82 26 -82 20 0 20 1 4 19 -13 15 -14 20 -4 24
9 4 10 8 2 14 -7 4 -14 17 -16 28 -4 19 -5 19 -12 -3z"/>
<path d="M756 751 c-4 -5 0 -11 6 -14 19 -6 49 4 42 14 -7 12 -41 12 -48 0z"/>
<path d="M20 480 l0 -140 140 0 140 0 0 140 0 140 -140 0 -140 0 0 -140z m220
110 c0 -5 -8 -10 -17 -10 -12 0 -14 -3 -7 -10 14 -14 44 -2 44 16 0 8 5 14 10
14 6 0 10 -47 10 -120 l0 -120 -99 0 c-70 0 -101 4 -105 13 -5 10 -7 10 -12 0
-13 -30 -24 -9 -24 46 0 38 5 61 13 65 10 5 10 7 0 12 -8 3 -13 25 -13 55 l0
49 100 0 c60 0 100 -4 100 -10z"/>
<path d="M80 572 c-20 -9 -20 -47 0 -47 8 0 15 7 14 15 -1 10 10 16 34 18 19
1 41 6 51 12 12 7 3 9 -34 9 -27 0 -57 -3 -65 -7z"/>
<path d="M166 539 c-22 -22 -15 -25 14 -7 16 10 23 9 45 -12 32 -30 46 -18 15
15 -28 30 -48 31 -74 4z"/>
<path d="M106 519 c-4 -8 -3 -26 3 -40 7 -19 10 -21 15 -8 4 8 3 26 -3 40 -7
19 -10 21 -15 8z"/>
<path d="M196 505 c-3 -8 -15 -14 -28 -12 -15 1 -23 -3 -23 -13 0 -10 8 -14
23 -12 20 2 22 -1 16 -20 -6 -22 -6 -22 13 -5 19 16 21 16 37 -1 9 -11 14 -26
10 -36 -6 -14 -9 -15 -23 -3 -9 7 -25 13 -36 13 -27 -1 -26 -31 2 -31 11 0 25
-3 29 -7 23 -24 62 18 48 50 -4 9 -8 24 -8 32 -1 8 -9 14 -18 14 -17 -2 -22 7
-19 34 3 17 -16 15 -23 -3z"/>
<path d="M66 482 c-12 -37 2 -82 26 -82 20 0 20 1 4 19 -13 15 -14 20 -4 24 9
4 10 8 2 14 -7 4 -14 17 -16 28 -4 19 -5 19 -12 -3z"/>
<path d="M116 431 c-4 -5 0 -11 6 -14 19 -6 49 4 42 14 -7 12 -41 12 -48 0z"/>
<path d="M340 480 l0 -140 140 0 140 0 0 140 0 140 -140 0 -140 0 0 -140z
m220 110 c0 -5 -8 -10 -17 -10 -12 0 -14 -3 -7 -10 14 -14 44 -2 44 16 0 8 5
14 10 14 6 0 10 -47 10 -120 l0 -120 -99 0 c-70 0 -101 4 -105 13 -5 10 -7 10
-12 0 -13 -30 -24 -9 -24 46 0 38 5 61 13 65 10 5 10 7 0 12 -8 3 -13 25 -13
55 l0 49 100 0 c60 0 100 -4 100 -10z"/>
<path d="M400 572 c-20 -9 -20 -47 0 -47 8 0 15 7 14 15 -1 10 10 16 34 18 19
1 41 6 51 12 12 7 3 9 -34 9 -27 0 -57 -3 -65 -7z"/>
<path d="M486 539 c-22 -22 -15 -25 14 -7 16 10 23 9 45 -12 32 -30 46 -18 15
15 -28 30 -48 31 -74 4z"/>
<path d="M426 519 c-4 -8 -3 -26 3 -40 7 -19 10 -21 15 -8 4 8 3 26 -3 40 -7
19 -10 21 -15 8z"/>
<path d="M516 505 c-3 -8 -15 -14 -28 -12 -15 1 -23 -3 -23 -13 0 -10 8 -14
23 -12 20 2 22 -1 16 -20 -6 -22 -6 -22 13 -5 19 16 21 16 37 -1 9 -11 14 -26
10 -36 -6 -14 -9 -15 -23 -3 -9 7 -25 13 -36 13 -27 -1 -26 -31 2 -31 11 0 25
-3 29 -7 23 -24 62 18 48 50 -4 9 -8 24 -8 32 -1 8 -9 14 -18 14 -17 -2 -22 7
-19 34 3 17 -16 15 -23 -3z"/>
<path d="M386 482 c-12 -37 2 -82 26 -82 20 0 20 1 4 19 -13 15 -14 20 -4 24
9 4 10 8 2 14 -7 4 -14 17 -16 28 -4 19 -5 19 -12 -3z"/>
<path d="M436 431 c-4 -5 0 -11 6 -14 19 -6 49 4 42 14 -7 12 -41 12 -48 0z"/>
<path d="M660 480 l0 -140 140 0 140 0 0 140 0 140 -140 0 -140 0 0 -140z
m220 110 c0 -5 -8 -10 -17 -10 -12 0 -14 -3 -7 -10 14 -14 44 -2 44 16 0 8 5
14 10 14 6 0 10 -47 10 -120 l0 -120 -99 0 c-70 0 -101 4 -105 13 -5 10 -7 10
-12 0 -13 -30 -24 -9 -24 46 0 38 5 61 13 65 10 5 10 7 0 12 -8 3 -13 25 -13
55 l0 49 100 0 c60 0 100 -4 100 -10z"/>
<path d="M720 572 c-20 -9 -20 -47 0 -47 8 0 15 7 14 15 -1 10 10 16 34 18 19
1 41 6 51 12 12 7 3 9 -34 9 -27 0 -57 -3 -65 -7z"/>
<path d="M806 539 c-22 -22 -15 -25 14 -7 16 10 23 9 45 -12 32 -30 46 -18 15
15 -28 30 -48 31 -74 4z"/>
<path d="M746 519 c-4 -8 -3 -26 3 -40 7 -19 10 -21 15 -8 4 8 3 26 -3 40 -7
19 -10 21 -15 8z"/>
<path d="M836 505 c-3 -8 -15 -14 -28 -12 -15 1 -23 -3 -23 -13 0 -10 8 -14
23 -12 20 2 22 -1 16 -20 -6 -22 -6 -22 13 -5 19 16 21 16 37 -1 9 -11 14 -26
10 -36 -6 -14 -9 -15 -23 -3 -9 7 -25 13 -36 13 -27 -1 -26 -31 2 -31 11 0 25
-3 29 -7 23 -24 62 18 48 50 -4 9 -8 24 -8 32 -1 8 -9 14 -18 14 -17 -2 -22 7
-19 34 3 17 -16 15 -23 -3z"/>
<path d="M706 482 c-12 -37 2 -82 26 -82 20 0 20 1 4 19 -13 15 -14 20 -4 24
9 4 10 8 2 14 -7 4 -14 17 -16 28 -4 19 -5 19 -12 -3z"/>
<path d="M756 431 c-4 -5 0 -11 6 -14 19 -6 49 4 42 14 -7 12 -41 12 -48 0z"/>
<path d="M20 160 l0 -140 140 0 140 0 0 140 0 140 -140 0 -140 0 0 -140z m220
110 c0 -5 -8 -10 -17 -10 -12 0 -14 -3 -7 -10 14 -14 44 -2 44 16 0 8 5 14 10
14 6 0 10 -47 10 -120 l0 -120 -99 0 c-70 0 -101 4 -105 13 -5 9 -7 9 -12 0
-13 -30 -24 -9 -24 46 0 38 5 61 13 65 10 5 10 7 0 12 -8 3 -13 25 -13 55 l0
49 100 0 c60 0 100 -4 100 -10z"/>
<path d="M80 252 c-20 -9 -20 -47 0 -47 8 0 15 7 14 15 -1 10 10 16 34 18 19
1 41 6 51 12 12 7 3 9 -34 9 -27 0 -57 -3 -65 -7z"/>
<path d="M166 219 c-22 -22 -15 -25 14 -7 16 10 23 9 45 -12 32 -30 46 -18 15
15 -28 30 -48 31 -74 4z"/>
<path d="M106 199 c-4 -8 -3 -26 3 -40 7 -19 10 -21 15 -8 4 8 3 26 -3 40 -7
19 -10 21 -15 8z"/>
<path d="M196 185 c-3 -8 -15 -14 -28 -12 -15 1 -23 -3 -23 -13 0 -10 8 -14
23 -12 20 2 22 -1 16 -20 -6 -22 -6 -22 13 -5 19 16 21 16 37 -1 9 -11 14 -26
10 -36 -6 -14 -9 -15 -23 -3 -9 7 -25 13 -36 13 -27 -1 -26 -31 2 -31 11 0 25
-3 29 -8 23 -23 62 19 48 51 -4 9 -8 24 -8 32 -1 8 -9 14 -18 14 -17 -2 -22 7
-19 34 3 17 -16 15 -23 -3z"/>
<path d="M66 162 c-12 -37 2 -82 26 -82 20 0 20 1 4 19 -13 15 -14 20 -4 24 9
4 10 8 2 14 -7 4 -14 17 -16 28 -4 19 -5 19 -12 -3z"/>
<path d="M116 111 c-4 -5 0 -11 6 -14 19 -6 49 4 42 14 -7 12 -41 12 -48 0z"/>
<path d="M340 160 l0 -140 140 0 140 0 0 140 0 140 -140 0 -140 0 0 -140z
m220 110 c0 -5 -8 -10 -17 -10 -12 0 -14 -3 -7 -10 14 -14 44 -2 44 16 0 8 5
14 10 14 6 0 10 -47 10 -120 l0 -120 -99 0 c-70 0 -101 4 -105 13 -5 9 -7 9
-12 0 -13 -30 -24 -9 -24 46 0 38 5 61 13 65 10 5 10 7 0 12 -8 3 -13 25 -13
55 l0 49 100 0 c60 0 100 -4 100 -10z"/>
<path d="M400 252 c-20 -9 -20 -47 0 -47 8 0 15 7 14 15 -1 10 10 16 34 18 19
1 41 6 51 12 12 7 3 9 -34 9 -27 0 -57 -3 -65 -7z"/>
<path d="M486 219 c-22 -22 -15 -25 14 -7 16 10 23 9 45 -12 32 -30 46 -18 15
15 -28 30 -48 31 -74 4z"/>
<path d="M426 199 c-4 -8 -3 -26 3 -40 7 -19 10 -21 15 -8 4 8 3 26 -3 40 -7
19 -10 21 -15 8z"/>
<path d="M516 185 c-3 -8 -15 -14 -28 -12 -15 1 -23 -3 -23 -13 0 -10 8 -14
23 -12 20 2 22 -1 16 -20 -6 -22 -6 -22 13 -5 19 16 21 16 37 -1 9 -11 14 -26
10 -36 -6 -14 -9 -15 -23 -3 -9 7 -25 13 -36 13 -27 -1 -26 -31 2 -31 11 0 25
-3 29 -8 23 -23 62 19 48 51 -4 9 -8 24 -8 32 -1 8 -9 14 -18 14 -17 -2 -22 7
-19 34 3 17 -16 15 -23 -3z"/>
<path d="M386 162 c-12 -37 2 -82 26 -82 20 0 20 1 4 19 -13 15 -14 20 -4 24
9 4 10 8 2 14 -7 4 -14 17 -16 28 -4 19 -5 19 -12 -3z"/>
<path d="M436 111 c-4 -5 0 -11 6 -14 19 -6 49 4 42 14 -7 12 -41 12 -48 0z"/>
<path d="M660 160 l0 -140 140 0 140 0 0 140 0 140 -140 0 -140 0 0 -140z
m220 110 c0 -5 -8 -10 -17 -10 -12 0 -14 -3 -7 -10 14 -14 44 -2 44 16 0 8 5
14 10 14 6 0 10 -47 10 -120 l0 -120 -99 0 c-70 0 -101 4 -105 13 -5 9 -7 9
-12 0 -13 -30 -24 -9 -24 46 0 38 5 61 13 65 10 5 10 7 0 12 -8 3 -13 25 -13
55 l0 49 100 0 c60 0 100 -4 100 -10z"/>
<path d="M720 252 c-20 -9 -20 -47 0 -47 8 0 15 7 14 15 -1 10 10 16 34 18 19
1 41 6 51 12 12 7 3 9 -34 9 -27 0 -57 -3 -65 -7z"/>
<path d="M806 219 c-22 -22 -15 -25 14 -7 16 10 23 9 45 -12 32 -30 46 -18 15
15 -28 30 -48 31 -74 4z"/>
<path d="M746 199 c-4 -8 -3 -26 3 -40 7 -19 10 -21 15 -8 4 8 3 26 -3 40 -7
19 -10 21 -15 8z"/>
<path d="M836 185 c-3 -8 -15 -14 -28 -12 -15 1 -23 -3 -23 -13 0 -10 8 -14
23 -12 20 2 22 -1 16 -20 -6 -22 -6 -22 13 -5 19 16 21 16 37 -1 9 -11 14 -26
10 -36 -6 -14 -9 -15 -23 -3 -9 7 -25 13 -36 13 -27 -1 -26 -31 2 -31 11 0 25
-3 29 -8 23 -23 62 19 48 51 -4 9 -8 24 -8 32 -1 8 -9 14 -18 14 -17 -2 -22 7
-19 34 3 17 -16 15 -23 -3z"/>
<path d="M706 162 c-12 -37 2 -82 26 -82 20 0 20 1 4 19 -13 15 -14 20 -4 24
9 4 10 8 2 14 -7 4 -14 17 -16 28 -4 19 -5 19 -12 -3z"/>
<path d="M756 111 c-4 -5 0 -11 6 -14 19 -6 49 4 42 14 -7 12 -41 12 -48 0z"/>
</g>
<g transform="translate(0.000000,96.000000) scale(0.100000,-0.100000)"
fill="#e5e4e5" stroke="none">
<path d="M25 800 l0 -135 135 0 135 0 0 135 0 135 -135 0 -135 0 0 -135z m219
108 c5 -10 7 -10 12 0 16 35 24 0 24 -108 l0 -120 -99 0 c-70 0 -101 4 -105
13 -5 10 -7 10 -12 0 -13 -30 -24 -9 -24 46 0 38 5 61 13 65 10 5 10 7 0 12
-8 3 -13 25 -13 55 l0 49 99 0 c70 0 101 -4 105 -12z"/>
<path d="M100 885 c0 -8 -6 -12 -14 -9 -19 7 -31 -15 -17 -29 9 -9 17 -5 34
15 12 14 29 28 37 31 8 3 3 6 -12 6 -18 1 -28 -4 -28 -14z"/>
<path d="M166 859 c-22 -22 -15 -25 14 -7 16 10 23 8 46 -12 27 -25 24 -11 -4
23 -19 22 -32 21 -56 -4z"/>
<path d="M107 843 c-4 -3 -7 -11 -7 -17 0 -6 5 -5 12 2 6 6 9 14 7 17 -3 3 -9
2 -12 -2z"/>
<path d="M196 825 c-3 -8 -15 -14 -28 -12 -24 2 -33 -23 -12 -30 12 -4 64 38
64 51 0 12 -18 6 -24 -9z"/>
<path d="M224 789 c-10 -17 13 -36 27 -22 12 12 4 33 -11 33 -5 0 -12 -5 -16
-11z"/>
<path d="M80 770 c0 -5 5 -10 10 -10 6 0 10 5 10 10 0 6 -4 10 -10 10 -5 0
-10 -4 -10 -10z"/>
<path d="M125 750 c-3 -5 -2 -10 4 -10 5 0 13 5 16 10 3 6 2 10 -4 10 -5 0
-13 -4 -16 -10z"/>
<path d="M164 729 c-10 -17 13 -36 27 -22 12 12 4 33 -11 33 -5 0 -12 -5 -16
-11z"/>
<path d="M345 800 l0 -135 135 0 135 0 0 135 0 135 -135 0 -135 0 0 -135z
m219 108 c5 -10 7 -10 12 0 16 35 24 0 24 -108 l0 -120 -99 0 c-70 0 -101 4
-105 13 -5 10 -7 10 -12 0 -13 -30 -24 -9 -24 46 0 38 5 61 13 65 10 5 10 7 0
12 -8 3 -13 25 -13 55 l0 49 99 0 c70 0 101 -4 105 -12z"/>
<path d="M420 885 c0 -8 -6 -12 -14 -9 -19 7 -31 -15 -17 -29 9 -9 17 -5 34
15 12 14 29 28 37 31 8 3 3 6 -12 6 -18 1 -28 -4 -28 -14z"/>
<path d="M486 859 c-22 -22 -15 -25 14 -7 16 10 23 8 46 -12 27 -25 24 -11 -4
23 -19 22 -32 21 -56 -4z"/>
<path d="M427 843 c-4 -3 -7 -11 -7 -17 0 -6 5 -5 12 2 6 6 9 14 7 17 -3 3 -9
2 -12 -2z"/>
<path d="M516 825 c-3 -8 -15 -14 -28 -12 -24 2 -33 -23 -12 -30 12 -4 64 38
64 51 0 12 -18 6 -24 -9z"/>
<path d="M544 789 c-10 -17 13 -36 27 -22 12 12 4 33 -11 33 -5 0 -12 -5 -16
-11z"/>
<path d="M400 770 c0 -5 5 -10 10 -10 6 0 10 5 10 10 0 6 -4 10 -10 10 -5 0
-10 -4 -10 -10z"/>
<path d="M445 750 c-3 -5 -2 -10 4 -10 5 0 13 5 16 10 3 6 2 10 -4 10 -5 0
-13 -4 -16 -10z"/>
<path d="M484 729 c-10 -17 13 -36 27 -22 12 12 4 33 -11 33 -5 0 -12 -5 -16
-11z"/>
<path d="M665 800 l0 -135 135 0 135 0 0 135 0 135 -135 0 -135 0 0 -135z
m219 108 c5 -10 7 -10 12 0 16 35 24 0 24 -108 l0 -120 -99 0 c-70 0 -101 4
-105 13 -5 10 -7 10 -12 0 -13 -30 -24 -9 -24 46 0 38 5 61 13 65 10 5 10 7 0
12 -8 3 -13 25 -13 55 l0 49 99 0 c70 0 101 -4 105 -12z"/>
<path d="M740 885 c0 -8 -6 -12 -14 -9 -19 7 -31 -15 -17 -29 9 -9 17 -5 34
15 12 14 29 28 37 31 8 3 3 6 -12 6 -18 1 -28 -4 -28 -14z"/>
<path d="M806 859 c-22 -22 -15 -25 14 -7 16 10 23 8 46 -12 27 -25 24 -11 -4
23 -19 22 -32 21 -56 -4z"/>
<path d="M747 843 c-4 -3 -7 -11 -7 -17 0 -6 5 -5 12 2 6 6 9 14 7 17 -3 3 -9
2 -12 -2z"/>
<path d="M836 825 c-3 -8 -15 -14 -28 -12 -24 2 -33 -23 -12 -30 12 -4 64 38
64 51 0 12 -18 6 -24 -9z"/>
<path d="M864 789 c-10 -17 13 -36 27 -22 12 12 4 33 -11 33 -5 0 -12 -5 -16
-11z"/>
<path d="M720 770 c0 -5 5 -10 10 -10 6 0 10 5 10 10 0 6 -4 10 -10 10 -5 0
-10 -4 -10 -10z"/>
<path d="M765 750 c-3 -5 -2 -10 4 -10 5 0 13 5 16 10 3 6 2 10 -4 10 -5 0
-13 -4 -16 -10z"/>
<path d="M804 729 c-10 -17 13 -36 27 -22 12 12 4 33 -11 33 -5 0 -12 -5 -16
-11z"/>
<path d="M25 480 l0 -135 135 0 135 0 0 135 0 135 -135 0 -135 0 0 -135z m219
108 c5 -10 7 -10 12 0 16 35 24 0 24 -108 l0 -120 -99 0 c-70 0 -101 4 -105
13 -5 10 -7 10 -12 0 -13 -30 -24 -9 -24 46 0 38 5 61 13 65 10 5 10 7 0 12
-8 3 -13 25 -13 55 l0 49 99 0 c70 0 101 -4 105 -12z"/>
<path d="M100 565 c0 -8 -6 -12 -14 -9 -19 7 -31 -15 -17 -29 9 -9 17 -5 34
15 12 14 29 28 37 31 8 3 3 6 -12 6 -18 1 -28 -4 -28 -14z"/>
<path d="M166 539 c-22 -22 -15 -25 14 -7 16 10 23 8 46 -12 27 -25 24 -11 -4
23 -19 22 -32 21 -56 -4z"/>
<path d="M107 523 c-4 -3 -7 -11 -7 -17 0 -6 5 -5 12 2 6 6 9 14 7 17 -3 3 -9
2 -12 -2z"/>
<path d="M196 505 c-3 -8 -15 -14 -28 -12 -24 2 -33 -23 -12 -30 12 -4 64 38
64 51 0 12 -18 6 -24 -9z"/>
<path d="M224 469 c-10 -17 13 -36 27 -22 12 12 4 33 -11 33 -5 0 -12 -5 -16
-11z"/>
<path d="M80 450 c0 -5 5 -10 10 -10 6 0 10 5 10 10 0 6 -4 10 -10 10 -5 0
-10 -4 -10 -10z"/>
<path d="M125 430 c-3 -5 -2 -10 4 -10 5 0 13 5 16 10 3 6 2 10 -4 10 -5 0
-13 -4 -16 -10z"/>
<path d="M164 409 c-10 -17 13 -36 27 -22 12 12 4 33 -11 33 -5 0 -12 -5 -16
-11z"/>
<path d="M345 480 l0 -135 135 0 135 0 0 135 0 135 -135 0 -135 0 0 -135z
m219 108 c5 -10 7 -10 12 0 16 35 24 0 24 -108 l0 -120 -99 0 c-70 0 -101 4
-105 13 -5 10 -7 10 -12 0 -13 -30 -24 -9 -24 46 0 38 5 61 13 65 10 5 10 7 0
12 -8 3 -13 25 -13 55 l0 49 99 0 c70 0 101 -4 105 -12z"/>
<path d="M420 565 c0 -8 -6 -12 -14 -9 -19 7 -31 -15 -17 -29 9 -9 17 -5 34
15 12 14 29 28 37 31 8 3 3 6 -12 6 -18 1 -28 -4 -28 -14z"/>
<path d="M486 539 c-22 -22 -15 -25 14 -7 16 10 23 8 46 -12 27 -25 24 -11 -4
23 -19 22 -32 21 -56 -4z"/>
<path d="M427 523 c-4 -3 -7 -11 -7 -17 0 -6 5 -5 12 2 6 6 9 14 7 17 -3 3 -9
2 -12 -2z"/>
<path d="M516 505 c-3 -8 -15 -14 -28 -12 -24 2 -33 -23 -12 -30 12 -4 64 38
64 51 0 12 -18 6 -24 -9z"/>
<path d="M544 469 c-10 -17 13 -36 27 -22 12 12 4 33 -11 33 -5 0 -12 -5 -16
-11z"/>
<path d="M400 450 c0 -5 5 -10 10 -10 6 0 10 5 10 10 0 6 -4 10 -10 10 -5 0
-10 -4 -10 -10z"/>
<path d="M445 430 c-3 -5 -2 -10 4 -10 5 0 13 5 16 10 3 6 2 10 -4 10 -5 0
-13 -4 -16 -10z"/>
<path d="M484 409 c-10 -17 13 -36 27 -22 12 12 4 33 -11 33 -5 0 -12 -5 -16
-11z"/>
<path d="M665 480 l0 -135 135 0 135 0 0 135 0 135 -135 0 -135 0 0 -135z
m219 108 c5 -10 7 -10 12 0 16 35 24 0 24 -108 l0 -120 -99 0 c-70 0 -101 4
-105 13 -5 10 -7 10 -12 0 -13 -30 -24 -9 -24 46 0 38 5 61 13 65 10 5 10 7 0
12 -8 3 -13 25 -13 55 l0 49 99 0 c70 0 101 -4 105 -12z"/>
<path d="M740 565 c0 -8 -6 -12 -14 -9 -19 7 -31 -15 -17 -29 9 -9 17 -5 34
15 12 14 29 28 37 31 8 3 3 6 -12 6 -18 1 -28 -4 -28 -14z"/>
<path d="M806 539 c-22 -22 -15 -25 14 -7 16 10 23 8 46 -12 27 -25 24 -11 -4
23 -19 22 -32 21 -56 -4z"/>
<path d="M747 523 c-4 -3 -7 -11 -7 -17 0 -6 5 -5 12 2 6 6 9 14 7 17 -3 3 -9
2 -12 -2z"/>
<path d="M836 505 c-3 -8 -15 -14 -28 -12 -24 2 -33 -23 -12 -30 12 -4 64 38
64 51 0 12 -18 6 -24 -9z"/>
<path d="M864 469 c-10 -17 13 -36 27 -22 12 12 4 33 -11 33 -5 0 -12 -5 -16
-11z"/>
<path d="M720 450 c0 -5 5 -10 10 -10 6 0 10 5 10 10 0 6 -4 10 -10 10 -5 0
-10 -4 -10 -10z"/>
<path d="M765 430 c-3 -5 -2 -10 4 -10 5 0 13 5 16 10 3 6 2 10 -4 10 -5 0
-13 -4 -16 -10z"/>
<path d="M804 409 c-10 -17 13 -36 27 -22 12 12 4 33 -11 33 -5 0 -12 -5 -16
-11z"/>
<path d="M25 160 l0 -135 135 0 135 0 0 135 0 135 -135 0 -135 0 0 -135z m219
108 c5 -10 7 -10 12 0 16 35 24 0 24 -108 l0 -120 -99 0 c-70 0 -101 4 -105
13 -5 9 -7 9 -12 0 -13 -30 -24 -9 -24 46 0 38 5 61 13 65 10 5 10 7 0 12 -8
3 -13 25 -13 55 l0 49 99 0 c70 0 101 -4 105 -12z"/>
<path d="M100 245 c0 -8 -6 -12 -14 -9 -19 7 -31 -15 -17 -29 9 -9 17 -5 34
15 12 14 29 28 37 31 8 3 3 6 -12 6 -18 1 -28 -4 -28 -14z"/>
<path d="M166 219 c-22 -22 -15 -25 14 -7 16 10 23 8 46 -12 27 -25 24 -11 -4
23 -19 22 -32 21 -56 -4z"/>
<path d="M107 203 c-4 -3 -7 -11 -7 -17 0 -6 5 -5 12 2 6 6 9 14 7 17 -3 3 -9
2 -12 -2z"/>
<path d="M196 185 c-3 -8 -15 -14 -28 -12 -24 2 -33 -23 -12 -30 12 -4 64 38
64 51 0 12 -18 6 -24 -9z"/>
<path d="M224 149 c-10 -17 13 -36 27 -22 12 12 4 33 -11 33 -5 0 -12 -5 -16
-11z"/>
<path d="M80 130 c0 -5 5 -10 10 -10 6 0 10 5 10 10 0 6 -4 10 -10 10 -5 0
-10 -4 -10 -10z"/>
<path d="M125 110 c-3 -5 -2 -10 4 -10 5 0 13 5 16 10 3 6 2 10 -4 10 -5 0
-13 -4 -16 -10z"/>
<path d="M164 89 c-10 -17 13 -36 27 -22 12 12 4 33 -11 33 -5 0 -12 -5 -16
-11z"/>
<path d="M345 160 l0 -135 135 0 135 0 0 135 0 135 -135 0 -135 0 0 -135z
m219 108 c5 -10 7 -10 12 0 16 35 24 0 24 -108 l0 -120 -99 0 c-70 0 -101 4
-105 13 -5 9 -7 9 -12 0 -13 -30 -24 -9 -24 46 0 38 5 61 13 65 10 5 10 7 0
12 -8 3 -13 25 -13 55 l0 49 99 0 c70 0 101 -4 105 -12z"/>
<path d="M420 245 c0 -8 -6 -12 -14 -9 -19 7 -31 -15 -17 -29 9 -9 17 -5 34
15 12 14 29 28 37 31 8 3 3 6 -12 6 -18 1 -28 -4 -28 -14z"/>
<path d="M486 219 c-22 -22 -15 -25 14 -7 16 10 23 8 46 -12 27 -25 24 -11 -4
23 -19 22 -32 21 -56 -4z"/>
<path d="M427 203 c-4 -3 -7 -11 -7 -17 0 -6 5 -5 12 2 6 6 9 14 7 17 -3 3 -9
2 -12 -2z"/>
<path d="M516 185 c-3 -8 -15 -14 -28 -12 -24 2 -33 -23 -12 -30 12 -4 64 38
64 51 0 12 -18 6 -24 -9z"/>
<path d="M544 149 c-10 -17 13 -36 27 -22 12 12 4 33 -11 33 -5 0 -12 -5 -16
-11z"/>
<path d="M400 130 c0 -5 5 -10 10 -10 6 0 10 5 10 10 0 6 -4 10 -10 10 -5 0
-10 -4 -10 -10z"/>
<path d="M445 110 c-3 -5 -2 -10 4 -10 5 0 13 5 16 10 3 6 2 10 -4 10 -5 0
-13 -4 -16 -10z"/>
<path d="M484 89 c-10 -17 13 -36 27 -22 12 12 4 33 -11 33 -5 0 -12 -5 -16
-11z"/>
<path d="M665 160 l0 -135 135 0 135 0 0 135 0 135 -135 0 -135 0 0 -135z
m219 108 c5 -10 7 -10 12 0 16 35 24 0 24 -108 l0 -120 -99 0 c-70 0 -101 4
-105 13 -5 9 -7 9 -12 0 -13 -30 -24 -9 -24 46 0 38 5 61 13 65 10 5 10 7 0
12 -8 3 -13 25 -13 55 l0 49 99 0 c70 0 101 -4 105 -12z"/>
<path d="M740 245 c0 -8 -6 -12 -14 -9 -19 7 -31 -15 -17 -29 9 -9 17 -5 34
15 12 14 29 28 37 31 8 3 3 6 -12 6 -18 1 -28 -4 -28 -14z"/>
<path d="M806 219 c-22 -22 -15 -25 14 -7 16 10 23 8 46 -12 27 -25 24 -11 -4
23 -19 22 -32 21 -56 -4z"/>
<path d="M747 203 c-4 -3 -7 -11 -7 -17 0 -6 5 -5 12 2 6 6 9 14 7 17 -3 3 -9
2 -12 -2z"/>
<path d="M836 185 c-3 -8 -15 -14 -28 -12 -24 2 -33 -23 -12 -30 12 -4 64 38
64 51 0 12 -18 6 -24 -9z"/>
<path d="M864 149 c-10 -17 13 -36 27 -22 12 12 4 33 -11 33 -5 0 -12 -5 -16
-11z"/>
<path d="M720 130 c0 -5 5 -10 10 -10 6 0 10 5 10 10 0 6 -4 10 -10 10 -5 0
-10 -4 -10 -10z"/>
<path d="M765 110 c-3 -5 -2 -10 4 -10 5 0 13 5 16 10 3 6 2 10 -4 10 -5 0
-13 -4 -16 -10z"/>
<path d="M804 89 c-10 -17 13 -36 27 -22 12 12 4 33 -11 33 -5 0 -12 -5 -16
-11z"/>
</g>
<g transform="translate(0.000000,96.000000) scale(0.100000,-0.100000)"
fill="#ea1d1d" stroke="none">
<path d="M20 935 c0 -3 2 -5 5 -5 3 0 5 2 5 5 0 3 -2 5 -5 5 -3 0 -5 -2 -5 -5z"/>
<path d="M290 935 c0 -3 2 -5 5 -5 3 0 5 2 5 5 0 3 -2 5 -5 5 -3 0 -5 -2 -5
-5z"/>
<path d="M340 935 c0 -3 2 -5 5 -5 3 0 5 2 5 5 0 3 -2 5 -5 5 -3 0 -5 -2 -5
-5z"/>
<path d="M610 935 c0 -3 2 -5 5 -5 3 0 5 2 5 5 0 3 -2 5 -5 5 -3 0 -5 -2 -5
-5z"/>
<path d="M660 935 c0 -3 2 -5 5 -5 3 0 5 2 5 5 0 3 -2 5 -5 5 -3 0 -5 -2 -5
-5z"/>
<path d="M930 935 c0 -3 2 -5 5 -5 3 0 5 2 5 5 0 3 -2 5 -5 5 -3 0 -5 -2 -5
-5z"/>
<path d="M240 910 c0 -5 5 -10 10 -10 6 0 10 5 10 10 0 6 -4 10 -10 10 -5 0
-10 -4 -10 -10z"/>
<path d="M560 910 c0 -5 5 -10 10 -10 6 0 10 5 10 10 0 6 -4 10 -10 10 -5 0
-10 -4 -10 -10z"/>
<path d="M880 910 c0 -5 5 -10 10 -10 6 0 10 5 10 10 0 6 -4 10 -10 10 -5 0
-10 -4 -10 -10z"/>
<path d="M100 885 c0 -8 -6 -12 -14 -9 -19 7 -31 -15 -17 -29 9 -9 17 -5 34
15 12 14 29 28 37 31 8 3 3 6 -12 6 -18 1 -28 -4 -28 -14z"/>
<path d="M420 885 c0 -8 -6 -12 -14 -9 -19 7 -31 -15 -17 -29 9 -9 17 -5 34
15 12 14 29 28 37 31 8 3 3 6 -12 6 -18 1 -28 -4 -28 -14z"/>
<path d="M740 885 c0 -8 -6 -12 -14 -9 -19 7 -31 -15 -17 -29 9 -9 17 -5 34
15 12 14 29 28 37 31 8 3 3 6 -12 6 -18 1 -28 -4 -28 -14z"/>
<path d="M166 859 c-22 -22 -15 -25 14 -7 16 10 23 8 46 -12 27 -25 24 -11 -4
23 -19 22 -32 21 -56 -4z"/>
<path d="M486 859 c-22 -22 -15 -25 14 -7 16 10 23 8 46 -12 27 -25 24 -11 -4
23 -19 22 -32 21 -56 -4z"/>
<path d="M806 859 c-22 -22 -15 -25 14 -7 16 10 23 8 46 -12 27 -25 24 -11 -4
23 -19 22 -32 21 -56 -4z"/>
<path d="M107 843 c-4 -3 -7 -11 -7 -17 0 -6 5 -5 12 2 6 6 9 14 7 17 -3 3 -9
2 -12 -2z"/>
<path d="M427 843 c-4 -3 -7 -11 -7 -17 0 -6 5 -5 12 2 6 6 9 14 7 17 -3 3 -9
2 -12 -2z"/>
<path d="M747 843 c-4 -3 -7 -11 -7 -17 0 -6 5 -5 12 2 6 6 9 14 7 17 -3 3 -9
2 -12 -2z"/>
<path d="M196 825 c-3 -8 -15 -14 -28 -12 -24 2 -33 -23 -12 -30 12 -4 64 38
64 51 0 12 -18 6 -24 -9z"/>
<path d="M516 825 c-3 -8 -15 -14 -28 -12 -24 2 -33 -23 -12 -30 12 -4 64 38
64 51 0 12 -18 6 -24 -9z"/>
<path d="M836 825 c-3 -8 -15 -14 -28 -12 -24 2 -33 -23 -12 -30 12 -4 64 38
64 51 0 12 -18 6 -24 -9z"/>
<path d="M40 810 c0 -5 5 -10 10 -10 6 0 10 5 10 10 0 6 -4 10 -10 10 -5 0
-10 -4 -10 -10z"/>
<path d="M360 810 c0 -5 5 -10 10 -10 6 0 10 5 10 10 0 6 -4 10 -10 10 -5 0
-10 -4 -10 -10z"/>
<path d="M680 810 c0 -5 5 -10 10 -10 6 0 10 5 10 10 0 6 -4 10 -10 10 -5 0
-10 -4 -10 -10z"/>
<path d="M224 789 c-10 -17 13 -36 27 -22 12 12 4 33 -11 33 -5 0 -12 -5 -16
-11z"/>
<path d="M544 789 c-10 -17 13 -36 27 -22 12 12 4 33 -11 33 -5 0 -12 -5 -16
-11z"/>
<path d="M864 789 c-10 -17 13 -36 27 -22 12 12 4 33 -11 33 -5 0 -12 -5 -16
-11z"/>
<path d="M80 770 c0 -5 5 -10 10 -10 6 0 10 5 10 10 0 6 -4 10 -10 10 -5 0
-10 -4 -10 -10z"/>
<path d="M400 770 c0 -5 5 -10 10 -10 6 0 10 5 10 10 0 6 -4 10 -10 10 -5 0
-10 -4 -10 -10z"/>
<path d="M720 770 c0 -5 5 -10 10 -10 6 0 10 5 10 10 0 6 -4 10 -10 10 -5 0
-10 -4 -10 -10z"/>
<path d="M125 750 c-3 -5 -2 -10 4 -10 5 0 13 5 16 10 3 6 2 10 -4 10 -5 0
-13 -4 -16 -10z"/>
<path d="M445 750 c-3 -5 -2 -10 4 -10 5 0 13 5 16 10 3 6 2 10 -4 10 -5 0
-13 -4 -16 -10z"/>
<path d="M765 750 c-3 -5 -2 -10 4 -10 5 0 13 5 16 10 3 6 2 10 -4 10 -5 0
-13 -4 -16 -10z"/>
<path d="M164 729 c-10 -17 13 -36 27 -22 12 12 4 33 -11 33 -5 0 -12 -5 -16
-11z"/>
<path d="M484 729 c-10 -17 13 -36 27 -22 12 12 4 33 -11 33 -5 0 -12 -5 -16
-11z"/>
<path d="M804 729 c-10 -17 13 -36 27 -22 12 12 4 33 -11 33 -5 0 -12 -5 -16
-11z"/>
<path d="M60 690 c0 -5 5 -10 10 -10 6 0 10 5 10 10 0 6 -4 10 -10 10 -5 0
-10 -4 -10 -10z"/>
<path d="M380 690 c0 -5 5 -10 10 -10 6 0 10 5 10 10 0 6 -4 10 -10 10 -5 0
-10 -4 -10 -10z"/>
<path d="M700 690 c0 -5 5 -10 10 -10 6 0 10 5 10 10 0 6 -4 10 -10 10 -5 0
-10 -4 -10 -10z"/>
<path d="M20 665 c0 -3 2 -5 5 -5 3 0 5 2 5 5 0 3 -2 5 -5 5 -3 0 -5 -2 -5 -5z"/>
<path d="M290 665 c0 -3 2 -5 5 -5 3 0 5 2 5 5 0 3 -2 5 -5 5 -3 0 -5 -2 -5
-5z"/>
<path d="M340 665 c0 -3 2 -5 5 -5 3 0 5 2 5 5 0 3 -2 5 -5 5 -3 0 -5 -2 -5
-5z"/>
<path d="M610 665 c0 -3 2 -5 5 -5 3 0 5 2 5 5 0 3 -2 5 -5 5 -3 0 -5 -2 -5
-5z"/>
<path d="M660 665 c0 -3 2 -5 5 -5 3 0 5 2 5 5 0 3 -2 5 -5 5 -3 0 -5 -2 -5
-5z"/>
<path d="M930 665 c0 -3 2 -5 5 -5 3 0 5 2 5 5 0 3 -2 5 -5 5 -3 0 -5 -2 -5
-5z"/>
<path d="M20 615 c0 -3 2 -5 5 -5 3 0 5 2 5 5 0 3 -2 5 -5 5 -3 0 -5 -2 -5 -5z"/>
<path d="M290 615 c0 -3 2 -5 5 -5 3 0 5 2 5 5 0 3 -2 5 -5 5 -3 0 -5 -2 -5
-5z"/>
<path d="M340 615 c0 -3 2 -5 5 -5 3 0 5 2 5 5 0 3 -2 5 -5 5 -3 0 -5 -2 -5
-5z"/>
<path d="M610 615 c0 -3 2 -5 5 -5 3 0 5 2 5 5 0 3 -2 5 -5 5 -3 0 -5 -2 -5
-5z"/>
<path d="M660 615 c0 -3 2 -5 5 -5 3 0 5 2 5 5 0 3 -2 5 -5 5 -3 0 -5 -2 -5
-5z"/>
<path d="M930 615 c0 -3 2 -5 5 -5 3 0 5 2 5 5 0 3 -2 5 -5 5 -3 0 -5 -2 -5
-5z"/>
<path d="M240 590 c0 -5 5 -10 10 -10 6 0 10 5 10 10 0 6 -4 10 -10 10 -5 0
-10 -4 -10 -10z"/>
<path d="M560 590 c0 -5 5 -10 10 -10 6 0 10 5 10 10 0 6 -4 10 -10 10 -5 0
-10 -4 -10 -10z"/>
<path d="M880 590 c0 -5 5 -10 10 -10 6 0 10 5 10 10 0 6 -4 10 -10 10 -5 0
-10 -4 -10 -10z"/>
<path d="M100 565 c0 -8 -6 -12 -14 -9 -19 7 -31 -15 -17 -29 9 -9 17 -5 34
15 12 14 29 28 37 31 8 3 3 6 -12 6 -18 1 -28 -4 -28 -14z"/>
<path d="M420 565 c0 -8 -6 -12 -14 -9 -19 7 -31 -15 -17 -29 9 -9 17 -5 34
15 12 14 29 28 37 31 8 3 3 6 -12 6 -18 1 -28 -4 -28 -14z"/>
<path d="M740 565 c0 -8 -6 -12 -14 -9 -19 7 -31 -15 -17 -29 9 -9 17 -5 34
15 12 14 29 28 37 31 8 3 3 6 -12 6 -18 1 -28 -4 -28 -14z"/>
<path d="M166 539 c-22 -22 -15 -25 14 -7 16 10 23 8 46 -12 27 -25 24 -11 -4
23 -19 22 -32 21 -56 -4z"/>
<path d="M486 539 c-22 -22 -15 -25 14 -7 16 10 23 8 46 -12 27 -25 24 -11 -4
23 -19 22 -32 21 -56 -4z"/>
<path d="M806 539 c-22 -22 -15 -25 14 -7 16 10 23 8 46 -12 27 -25 24 -11 -4
23 -19 22 -32 21 -56 -4z"/>
<path d="M107 523 c-4 -3 -7 -11 -7 -17 0 -6 5 -5 12 2 6 6 9 14 7 17 -3 3 -9
2 -12 -2z"/>
<path d="M427 523 c-4 -3 -7 -11 -7 -17 0 -6 5 -5 12 2 6 6 9 14 7 17 -3 3 -9
2 -12 -2z"/>
<path d="M747 523 c-4 -3 -7 -11 -7 -17 0 -6 5 -5 12 2 6 6 9 14 7 17 -3 3 -9
2 -12 -2z"/>
<path d="M196 505 c-3 -8 -15 -14 -28 -12 -24 2 -33 -23 -12 -30 12 -4 64 38
64 51 0 12 -18 6 -24 -9z"/>
<path d="M516 505 c-3 -8 -15 -14 -28 -12 -24 2 -33 -23 -12 -30 12 -4 64 38
64 51 0 12 -18 6 -24 -9z"/>
<path d="M836 505 c-3 -8 -15 -14 -28 -12 -24 2 -33 -23 -12 -30 12 -4 64 38
64 51 0 12 -18 6 -24 -9z"/>
<path d="M40 490 c0 -5 5 -10 10 -10 6 0 10 5 10 10 0 6 -4 10 -10 10 -5 0
-10 -4 -10 -10z"/>
<path d="M360 490 c0 -5 5 -10 10 -10 6 0 10 5 10 10 0 6 -4 10 -10 10 -5 0
-10 -4 -10 -10z"/>
<path d="M680 490 c0 -5 5 -10 10 -10 6 0 10 5 10 10 0 6 -4 10 -10 10 -5 0
-10 -4 -10 -10z"/>
<path d="M224 469 c-10 -17 13 -36 27 -22 12 12 4 33 -11 33 -5 0 -12 -5 -16
-11z"/>
<path d="M544 469 c-10 -17 13 -36 27 -22 12 12 4 33 -11 33 -5 0 -12 -5 -16
-11z"/>
<path d="M864 469 c-10 -17 13 -36 27 -22 12 12 4 33 -11 33 -5 0 -12 -5 -16
-11z"/>
<path d="M80 450 c0 -5 5 -10 10 -10 6 0 10 5 10 10 0 6 -4 10 -10 10 -5 0
-10 -4 -10 -10z"/>
<path d="M400 450 c0 -5 5 -10 10 -10 6 0 10 5 10 10 0 6 -4 10 -10 10 -5 0
-10 -4 -10 -10z"/>
<path d="M720 450 c0 -5 5 -10 10 -10 6 0 10 5 10 10 0 6 -4 10 -10 10 -5 0
-10 -4 -10 -10z"/>
<path d="M125 430 c-3 -5 -2 -10 4 -10 5 0 13 5 16 10 3 6 2 10 -4 10 -5 0
-13 -4 -16 -10z"/>
<path d="M445 430 c-3 -5 -2 -10 4 -10 5 0 13 5 16 10 3 6 2 10 -4 10 -5 0
-13 -4 -16 -10z"/>
<path d="M765 430 c-3 -5 -2 -10 4 -10 5 0 13 5 16 10 3 6 2 10 -4 10 -5 0
-13 -4 -16 -10z"/>
<path d="M164 409 c-10 -17 13 -36 27 -22 12 12 4 33 -11 33 -5 0 -12 -5 -16
-11z"/>
<path d="M484 409 c-10 -17 13 -36 27 -22 12 12 4 33 -11 33 -5 0 -12 -5 -16
-11z"/>
<path d="M804 409 c-10 -17 13 -36 27 -22 12 12 4 33 -11 33 -5 0 -12 -5 -16
-11z"/>
<path d="M60 370 c0 -5 5 -10 10 -10 6 0 10 5 10 10 0 6 -4 10 -10 10 -5 0
-10 -4 -10 -10z"/>
<path d="M380 370 c0 -5 5 -10 10 -10 6 0 10 5 10 10 0 6 -4 10 -10 10 -5 0
-10 -4 -10 -10z"/>
<path d="M700 370 c0 -5 5 -10 10 -10 6 0 10 5 10 10 0 6 -4 10 -10 10 -5 0
-10 -4 -10 -10z"/>
<path d="M20 345 c0 -3 2 -5 5 -5 3 0 5 2 5 5 0 3 -2 5 -5 5 -3 0 -5 -2 -5 -5z"/>
<path d="M290 345 c0 -3 2 -5 5 -5 3 0 5 2 5 5 0 3 -2 5 -5 5 -3 0 -5 -2 -5
-5z"/>
<path d="M340 345 c0 -3 2 -5 5 -5 3 0 5 2 5 5 0 3 -2 5 -5 5 -3 0 -5 -2 -5
-5z"/>
<path d="M610 345 c0 -3 2 -5 5 -5 3 0 5 2 5 5 0 3 -2 5 -5 5 -3 0 -5 -2 -5
-5z"/>
<path d="M660 345 c0 -3 2 -5 5 -5 3 0 5 2 5 5 0 3 -2 5 -5 5 -3 0 -5 -2 -5
-5z"/>
<path d="M930 345 c0 -3 2 -5 5 -5 3 0 5 2 5 5 0 3 -2 5 -5 5 -3 0 -5 -2 -5
-5z"/>
<path d="M20 295 c0 -3 2 -5 5 -5 3 0 5 2 5 5 0 3 -2 5 -5 5 -3 0 -5 -2 -5 -5z"/>
<path d="M290 295 c0 -3 2 -5 5 -5 3 0 5 2 5 5 0 3 -2 5 -5 5 -3 0 -5 -2 -5
-5z"/>
<path d="M340 295 c0 -3 2 -5 5 -5 3 0 5 2 5 5 0 3 -2 5 -5 5 -3 0 -5 -2 -5
-5z"/>
<path d="M610 295 c0 -3 2 -5 5 -5 3 0 5 2 5 5 0 3 -2 5 -5 5 -3 0 -5 -2 -5
-5z"/>
<path d="M660 295 c0 -3 2 -5 5 -5 3 0 5 2 5 5 0 3 -2 5 -5 5 -3 0 -5 -2 -5
-5z"/>
<path d="M930 295 c0 -3 2 -5 5 -5 3 0 5 2 5 5 0 3 -2 5 -5 5 -3 0 -5 -2 -5
-5z"/>
<path d="M240 270 c0 -5 5 -10 10 -10 6 0 10 5 10 10 0 6 -4 10 -10 10 -5 0
-10 -4 -10 -10z"/>
<path d="M560 270 c0 -5 5 -10 10 -10 6 0 10 5 10 10 0 6 -4 10 -10 10 -5 0
-10 -4 -10 -10z"/>
<path d="M880 270 c0 -5 5 -10 10 -10 6 0 10 5 10 10 0 6 -4 10 -10 10 -5 0
-10 -4 -10 -10z"/>
<path d="M100 245 c0 -8 -6 -12 -14 -9 -19 7 -31 -15 -17 -29 9 -9 17 -5 34
15 12 14 29 28 37 31 8 3 3 6 -12 6 -18 1 -28 -4 -28 -14z"/>
<path d="M420 245 c0 -8 -6 -12 -14 -9 -19 7 -31 -15 -17 -29 9 -9 17 -5 34
15 12 14 29 28 37 31 8 3 3 6 -12 6 -18 1 -28 -4 -28 -14z"/>
<path d="M740 245 c0 -8 -6 -12 -14 -9 -19 7 -31 -15 -17 -29 9 -9 17 -5 34
15 12 14 29 28 37 31 8 3 3 6 -12 6 -18 1 -28 -4 -28 -14z"/>
<path d="M166 219 c-22 -22 -15 -25 14 -7 16 10 23 8 46 -12 27 -25 24 -11 -4
23 -19 22 -32 21 -56 -4z"/>
<path d="M486 219 c-22 -22 -15 -25 14 -7 16 10 23 8 46 -12 27 -25 24 -11 -4
23 -19 22 -32 21 -56 -4z"/>
<path d="M806 219 c-22 -22 -15 -25 14 -7 16 10 23 8 46 -12 27 -25 24 -11 -4
23 -19 22 -32 21 -56 -4z"/>
<path d="M107 203 c-4 -3 -7 -11 -7 -17 0 -6 5 -5 12 2 6 6 9 14 7 17 -3 3 -9
2 -12 -2z"/>
<path d="M427 203 c-4 -3 -7 -11 -7 -17 0 -6 5 -5 12 2 6 6 9 14 7 17 -3 3 -9
2 -12 -2z"/>
<path d="M747 203 c-4 -3 -7 -11 -7 -17 0 -6 5 -5 12 2 6 6 9 14 7 17 -3 3 -9
2 -12 -2z"/>
<path d="M196 185 c-3 -8 -15 -14 -28 -12 -24 2 -33 -23 -12 -30 12 -4 64 38
64 51 0 12 -18 6 -24 -9z"/>
<path d="M516 185 c-3 -8 -15 -14 -28 -12 -24 2 -33 -23 -12 -30 12 -4 64 38
64 51 0 12 -18 6 -24 -9z"/>
<path d="M836 185 c-3 -8 -15 -14 -28 -12 -24 2 -33 -23 -12 -30 12 -4 64 38
64 51 0 12 -18 6 -24 -9z"/>
<path d="M40 170 c0 -5 5 -10 10 -10 6 0 10 5 10 10 0 6 -4 10 -10 10 -5 0
-10 -4 -10 -10z"/>
<path d="M360 170 c0 -5 5 -10 10 -10 6 0 10 5 10 10 0 6 -4 10 -10 10 -5 0
-10 -4 -10 -10z"/>
<path d="M680 170 c0 -5 5 -10 10 -10 6 0 10 5 10 10 0 6 -4 10 -10 10 -5 0
-10 -4 -10 -10z"/>
<path d="M224 149 c-10 -17 13 -36 27 -22 12 12 4 33 -11 33 -5 0 -12 -5 -16
-11z"/>
<path d="M544 149 c-10 -17 13 -36 27 -22 12 12 4 33 -11 33 -5 0 -12 -5 -16
-11z"/>
<path d="M864 149 c-10 -17 13 -36 27 -22 12 12 4 33 -11 33 -5 0 -12 -5 -16
-11z"/>
<path d="M80 130 c0 -5 5 -10 10 -10 6 0 10 5 10 10 0 6 -4 10 -10 10 -5 0
-10 -4 -10 -10z"/>
<path d="M400 130 c0 -5 5 -10 10 -10 6 0 10 5 10 10 0 6 -4 10 -10 10 -5 0
-10 -4 -10 -10z"/>
<path d="M720 130 c0 -5 5 -10 10 -10 6 0 10 5 10 10 0 6 -4 10 -10 10 -5 0
-10 -4 -10 -10z"/>
<path d="M125 110 c-3 -5 -2 -10 4 -10 5 0 13 5 16 10 3 6 2 10 -4 10 -5 0
-13 -4 -16 -10z"/>
<path d="M445 110 c-3 -5 -2 -10 4 -10 5 0 13 5 16 10 3 6 2 10 -4 10 -5 0
-13 -4 -16 -10z"/>
<path d="M765 110 c-3 -5 -2 -10 4 -10 5 0 13 5 16 10 3 6 2 10 -4 10 -5 0
-13 -4 -16 -10z"/>
<path d="M164 89 c-10 -17 13 -36 27 -22 12 12 4 33 -11 33 -5 0 -12 -5 -16
-11z"/>
<path d="M484 89 c-10 -17 13 -36 27 -22 12 12 4 33 -11 33 -5 0 -12 -5 -16
-11z"/>
<path d="M804 89 c-10 -17 13 -36 27 -22 12 12 4 33 -11 33 -5 0 -12 -5 -16
-11z"/>
<path d="M60 50 c0 -5 5 -10 10 -10 6 0 10 5 10 10 0 6 -4 10 -10 10 -5 0 -10
-4 -10 -10z"/>
<path d="M380 50 c0 -5 5 -10 10 -10 6 0 10 5 10 10 0 6 -4 10 -10 10 -5 0
-10 -4 -10 -10z"/>
<path d="M700 50 c0 -5 5 -10 10 -10 6 0 10 5 10 10 0 6 -4 10 -10 10 -5 0
-10 -4 -10 -10z"/>
<path d="M20 25 c0 -3 2 -5 5 -5 3 0 5 2 5 5 0 3 -2 5 -5 5 -3 0 -5 -2 -5 -5z"/>
<path d="M290 25 c0 -3 2 -5 5 -5 3 0 5 2 5 5 0 3 -2 5 -5 5 -3 0 -5 -2 -5 -5z"/>
<path d="M340 25 c0 -3 2 -5 5 -5 3 0 5 2 5 5 0 3 -2 5 -5 5 -3 0 -5 -2 -5 -5z"/>
<path d="M610 25 c0 -3 2 -5 5 -5 3 0 5 2 5 5 0 3 -2 5 -5 5 -3 0 -5 -2 -5 -5z"/>
<path d="M660 25 c0 -3 2 -5 5 -5 3 0 5 2 5 5 0 3 -2 5 -5 5 -3 0 -5 -2 -5 -5z"/>
<path d="M930 25 c0 -3 2 -5 5 -5 3 0 5 2 5 5 0 3 -2 5 -5 5 -3 0 -5 -2 -5 -5z"/>
</g>
<g transform="translate(0.000000,96.000000) scale(0.100000,-0.100000)"
fill="#d5d5d5" stroke="none">
<path d="M20 935 c0 -3 2 -5 5 -5 3 0 5 2 5 5 0 3 -2 5 -5 5 -3 0 -5 -2 -5 -5z"/>
<path d="M290 935 c0 -3 2 -5 5 -5 3 0 5 2 5 5 0 3 -2 5 -5 5 -3 0 -5 -2 -5
-5z"/>
<path d="M340 935 c0 -3 2 -5 5 -5 3 0 5 2 5 5 0 3 -2 5 -5 5 -3 0 -5 -2 -5
-5z"/>
<path d="M610 935 c0 -3 2 -5 5 -5 3 0 5 2 5 5 0 3 -2 5 -5 5 -3 0 -5 -2 -5
-5z"/>
<path d="M660 935 c0 -3 2 -5 5 -5 3 0 5 2 5 5 0 3 -2 5 -5 5 -3 0 -5 -2 -5
-5z"/>
<path d="M930 935 c0 -3 2 -5 5 -5 3 0 5 2 5 5 0 3 -2 5 -5 5 -3 0 -5 -2 -5
-5z"/>
<path d="M240 915 c0 -3 2 -5 5 -5 3 0 5 2 5 5 0 3 -2 5 -5 5 -3 0 -5 -2 -5
-5z"/>
<path d="M560 915 c0 -3 2 -5 5 -5 3 0 5 2 5 5 0 3 -2 5 -5 5 -3 0 -5 -2 -5
-5z"/>
<path d="M880 915 c0 -3 2 -5 5 -5 3 0 5 2 5 5 0 3 -2 5 -5 5 -3 0 -5 -2 -5
-5z"/>
<path d="M100 884 c0 -12 4 -14 13 -7 6 6 19 13 27 16 9 3 3 6 -12 6 -20 1
-28 -4 -28 -15z"/>
<path d="M420 884 c0 -12 4 -14 13 -7 6 6 19 13 27 16 9 3 3 6 -12 6 -20 1
-28 -4 -28 -15z"/>
<path d="M740 884 c0 -12 4 -14 13 -7 6 6 19 13 27 16 9 3 3 6 -12 6 -20 1
-28 -4 -28 -15z"/>
<path d="M65 870 c-3 -5 -1 -10 4 -10 6 0 11 5 11 10 0 6 -2 10 -4 10 -3 0 -8
-4 -11 -10z"/>
<path d="M180 875 c0 -3 2 -5 5 -5 3 0 5 2 5 5 0 3 -2 5 -5 5 -3 0 -5 -2 -5
-5z"/>
<path d="M200 873 c0 -5 12 -20 26 -34 24 -21 26 -22 16 -3 -13 25 -42 50 -42
37z"/>
<path d="M385 870 c-3 -5 -1 -10 4 -10 6 0 11 5 11 10 0 6 -2 10 -4 10 -3 0
-8 -4 -11 -10z"/>
<path d="M500 875 c0 -3 2 -5 5 -5 3 0 5 2 5 5 0 3 -2 5 -5 5 -3 0 -5 -2 -5
-5z"/>
<path d="M520 873 c0 -5 12 -20 26 -34 24 -21 26 -22 16 -3 -13 25 -42 50 -42
37z"/>
<path d="M705 870 c-3 -5 -1 -10 4 -10 6 0 11 5 11 10 0 6 -2 10 -4 10 -3 0
-8 -4 -11 -10z"/>
<path d="M820 875 c0 -3 2 -5 5 -5 3 0 5 2 5 5 0 3 -2 5 -5 5 -3 0 -5 -2 -5
-5z"/>
<path d="M840 873 c0 -5 12 -20 26 -34 24 -21 26 -22 16 -3 -13 25 -42 50 -42
37z"/>
<path d="M155 850 c-3 -5 -2 -10 4 -10 5 0 13 5 16 10 3 6 2 10 -4 10 -5 0
-13 -4 -16 -10z"/>
<path d="M475 850 c-3 -5 -2 -10 4 -10 5 0 13 5 16 10 3 6 2 10 -4 10 -5 0
-13 -4 -16 -10z"/>
<path d="M795 850 c-3 -5 -2 -10 4 -10 5 0 13 5 16 10 3 6 2 10 -4 10 -5 0
-13 -4 -16 -10z"/>
<path d="M107 843 c-4 -3 -7 -11 -7 -17 0 -6 5 -5 12 2 6 6 9 14 7 17 -3 3 -9
2 -12 -2z"/>
<path d="M427 843 c-4 -3 -7 -11 -7 -17 0 -6 5 -5 12 2 6 6 9 14 7 17 -3 3 -9
2 -12 -2z"/>
<path d="M747 843 c-4 -3 -7 -11 -7 -17 0 -6 5 -5 12 2 6 6 9 14 7 17 -3 3 -9
2 -12 -2z"/>
<path d="M200 835 c0 -3 2 -5 5 -5 3 0 5 2 5 5 0 3 -2 5 -5 5 -3 0 -5 -2 -5
-5z"/>
<path d="M520 835 c0 -3 2 -5 5 -5 3 0 5 2 5 5 0 3 -2 5 -5 5 -3 0 -5 -2 -5
-5z"/>
<path d="M840 835 c0 -3 2 -5 5 -5 3 0 5 2 5 5 0 3 -2 5 -5 5 -3 0 -5 -2 -5
-5z"/>
<path d="M40 815 c0 -3 2 -5 5 -5 3 0 5 2 5 5 0 3 -2 5 -5 5 -3 0 -5 -2 -5 -5z"/>
<path d="M145 810 c-3 -5 -1 -10 4 -10 6 0 11 5 11 10 0 6 -2 10 -4 10 -3 0
-8 -4 -11 -10z"/>
<path d="M187 813 c-4 -3 -7 -11 -7 -17 0 -6 5 -5 12 2 6 6 9 14 7 17 -3 3 -9
2 -12 -2z"/>
<path d="M360 815 c0 -3 2 -5 5 -5 3 0 5 2 5 5 0 3 -2 5 -5 5 -3 0 -5 -2 -5
-5z"/>
<path d="M465 810 c-3 -5 -1 -10 4 -10 6 0 11 5 11 10 0 6 -2 10 -4 10 -3 0
-8 -4 -11 -10z"/>
<path d="M507 813 c-4 -3 -7 -11 -7 -17 0 -6 5 -5 12 2 6 6 9 14 7 17 -3 3 -9
2 -12 -2z"/>
<path d="M680 815 c0 -3 2 -5 5 -5 3 0 5 2 5 5 0 3 -2 5 -5 5 -3 0 -5 -2 -5
-5z"/>
<path d="M785 810 c-3 -5 -1 -10 4 -10 6 0 11 5 11 10 0 6 -2 10 -4 10 -3 0
-8 -4 -11 -10z"/>
<path d="M827 813 c-4 -3 -7 -11 -7 -17 0 -6 5 -5 12 2 6 6 9 14 7 17 -3 3 -9
2 -12 -2z"/>
<path d="M225 790 c-3 -5 -1 -10 4 -10 6 0 11 5 11 10 0 6 -2 10 -4 10 -3 0
-8 -4 -11 -10z"/>
<path d="M545 790 c-3 -5 -1 -10 4 -10 6 0 11 5 11 10 0 6 -2 10 -4 10 -3 0
-8 -4 -11 -10z"/>
<path d="M865 790 c-3 -5 -1 -10 4 -10 6 0 11 5 11 10 0 6 -2 10 -4 10 -3 0
-8 -4 -11 -10z"/>
<path d="M80 775 c0 -3 2 -5 5 -5 3 0 5 2 5 5 0 3 -2 5 -5 5 -3 0 -5 -2 -5 -5z"/>
<path d="M400 775 c0 -3 2 -5 5 -5 3 0 5 2 5 5 0 3 -2 5 -5 5 -3 0 -5 -2 -5
-5z"/>
<path d="M720 775 c0 -3 2 -5 5 -5 3 0 5 2 5 5 0 3 -2 5 -5 5 -3 0 -5 -2 -5
-5z"/>
<path d="M125 750 c-3 -5 -2 -10 4 -10 5 0 13 5 16 10 3 6 2 10 -4 10 -5 0
-13 -4 -16 -10z"/>
<path d="M445 750 c-3 -5 -2 -10 4 -10 5 0 13 5 16 10 3 6 2 10 -4 10 -5 0
-13 -4 -16 -10z"/>
<path d="M765 750 c-3 -5 -2 -10 4 -10 5 0 13 5 16 10 3 6 2 10 -4 10 -5 0
-13 -4 -16 -10z"/>
<path d="M165 730 c-3 -5 -1 -10 4 -10 6 0 11 5 11 10 0 6 -2 10 -4 10 -3 0
-8 -4 -11 -10z"/>
<path d="M485 730 c-3 -5 -1 -10 4 -10 6 0 11 5 11 10 0 6 -2 10 -4 10 -3 0
-8 -4 -11 -10z"/>
<path d="M805 730 c-3 -5 -1 -10 4 -10 6 0 11 5 11 10 0 6 -2 10 -4 10 -3 0
-8 -4 -11 -10z"/>
<path d="M60 695 c0 -3 2 -5 5 -5 3 0 5 2 5 5 0 3 -2 5 -5 5 -3 0 -5 -2 -5 -5z"/>
<path d="M380 695 c0 -3 2 -5 5 -5 3 0 5 2 5 5 0 3 -2 5 -5 5 -3 0 -5 -2 -5
-5z"/>
<path d="M700 695 c0 -3 2 -5 5 -5 3 0 5 2 5 5 0 3 -2 5 -5 5 -3 0 -5 -2 -5
-5z"/>
<path d="M20 665 c0 -3 2 -5 5 -5 3 0 5 2 5 5 0 3 -2 5 -5 5 -3 0 -5 -2 -5 -5z"/>
<path d="M290 665 c0 -3 2 -5 5 -5 3 0 5 2 5 5 0 3 -2 5 -5 5 -3 0 -5 -2 -5
-5z"/>
<path d="M340 665 c0 -3 2 -5 5 -5 3 0 5 2 5 5 0 3 -2 5 -5 5 -3 0 -5 -2 -5
-5z"/>
<path d="M610 665 c0 -3 2 -5 5 -5 3 0 5 2 5 5 0 3 -2 5 -5 5 -3 0 -5 -2 -5
-5z"/>
<path d="M660 665 c0 -3 2 -5 5 -5 3 0 5 2 5 5 0 3 -2 5 -5 5 -3 0 -5 -2 -5
-5z"/>
<path d="M930 665 c0 -3 2 -5 5 -5 3 0 5 2 5 5 0 3 -2 5 -5 5 -3 0 -5 -2 -5
-5z"/>
<path d="M20 615 c0 -3 2 -5 5 -5 3 0 5 2 5 5 0 3 -2 5 -5 5 -3 0 -5 -2 -5 -5z"/>
<path d="M290 615 c0 -3 2 -5 5 -5 3 0 5 2 5 5 0 3 -2 5 -5 5 -3 0 -5 -2 -5
-5z"/>
<path d="M340 615 c0 -3 2 -5 5 -5 3 0 5 2 5 5 0 3 -2 5 -5 5 -3 0 -5 -2 -5
-5z"/>
<path d="M610 615 c0 -3 2 -5 5 -5 3 0 5 2 5 5 0 3 -2 5 -5 5 -3 0 -5 -2 -5
-5z"/>
<path d="M660 615 c0 -3 2 -5 5 -5 3 0 5 2 5 5 0 3 -2 5 -5 5 -3 0 -5 -2 -5
-5z"/>
<path d="M930 615 c0 -3 2 -5 5 -5 3 0 5 2 5 5 0 3 -2 5 -5 5 -3 0 -5 -2 -5
-5z"/>
<path d="M240 595 c0 -3 2 -5 5 -5 3 0 5 2 5 5 0 3 -2 5 -5 5 -3 0 -5 -2 -5
-5z"/>
<path d="M560 595 c0 -3 2 -5 5 -5 3 0 5 2 5 5 0 3 -2 5 -5 5 -3 0 -5 -2 -5
-5z"/>
<path d="M880 595 c0 -3 2 -5 5 -5 3 0 5 2 5 5 0 3 -2 5 -5 5 -3 0 -5 -2 -5
-5z"/>
<path d="M100 564 c0 -12 4 -14 13 -7 6 6 19 13 27 16 9 3 3 6 -12 6 -20 1
-28 -4 -28 -15z"/>
<path d="M420 564 c0 -12 4 -14 13 -7 6 6 19 13 27 16 9 3 3 6 -12 6 -20 1
-28 -4 -28 -15z"/>
<path d="M740 564 c0 -12 4 -14 13 -7 6 6 19 13 27 16 9 3 3 6 -12 6 -20 1
-28 -4 -28 -15z"/>
<path d="M65 550 c-3 -5 -1 -10 4 -10 6 0 11 5 11 10 0 6 -2 10 -4 10 -3 0 -8
-4 -11 -10z"/>
<path d="M180 555 c0 -3 2 -5 5 -5 3 0 5 2 5 5 0 3 -2 5 -5 5 -3 0 -5 -2 -5
-5z"/>
<path d="M200 553 c0 -5 12 -20 26 -34 24 -21 26 -22 16 -3 -13 25 -42 50 -42
37z"/>
<path d="M385 550 c-3 -5 -1 -10 4 -10 6 0 11 5 11 10 0 6 -2 10 -4 10 -3 0
-8 -4 -11 -10z"/>
<path d="M500 555 c0 -3 2 -5 5 -5 3 0 5 2 5 5 0 3 -2 5 -5 5 -3 0 -5 -2 -5
-5z"/>
<path d="M520 553 c0 -5 12 -20 26 -34 24 -21 26 -22 16 -3 -13 25 -42 50 -42
37z"/>
<path d="M705 550 c-3 -5 -1 -10 4 -10 6 0 11 5 11 10 0 6 -2 10 -4 10 -3 0
-8 -4 -11 -10z"/>
<path d="M820 555 c0 -3 2 -5 5 -5 3 0 5 2 5 5 0 3 -2 5 -5 5 -3 0 -5 -2 -5
-5z"/>
<path d="M840 553 c0 -5 12 -20 26 -34 24 -21 26 -22 16 -3 -13 25 -42 50 -42
37z"/>
<path d="M155 530 c-3 -5 -2 -10 4 -10 5 0 13 5 16 10 3 6 2 10 -4 10 -5 0
-13 -4 -16 -10z"/>
<path d="M475 530 c-3 -5 -2 -10 4 -10 5 0 13 5 16 10 3 6 2 10 -4 10 -5 0
-13 -4 -16 -10z"/>
<path d="M795 530 c-3 -5 -2 -10 4 -10 5 0 13 5 16 10 3 6 2 10 -4 10 -5 0
-13 -4 -16 -10z"/>
<path d="M107 523 c-4 -3 -7 -11 -7 -17 0 -6 5 -5 12 2 6 6 9 14 7 17 -3 3 -9
2 -12 -2z"/>
<path d="M427 523 c-4 -3 -7 -11 -7 -17 0 -6 5 -5 12 2 6 6 9 14 7 17 -3 3 -9
2 -12 -2z"/>
<path d="M747 523 c-4 -3 -7 -11 -7 -17 0 -6 5 -5 12 2 6 6 9 14 7 17 -3 3 -9
2 -12 -2z"/>
<path d="M200 515 c0 -3 2 -5 5 -5 3 0 5 2 5 5 0 3 -2 5 -5 5 -3 0 -5 -2 -5
-5z"/>
<path d="M520 515 c0 -3 2 -5 5 -5 3 0 5 2 5 5 0 3 -2 5 -5 5 -3 0 -5 -2 -5
-5z"/>
<path d="M840 515 c0 -3 2 -5 5 -5 3 0 5 2 5 5 0 3 -2 5 -5 5 -3 0 -5 -2 -5
-5z"/>
<path d="M40 495 c0 -3 2 -5 5 -5 3 0 5 2 5 5 0 3 -2 5 -5 5 -3 0 -5 -2 -5 -5z"/>
<path d="M145 490 c-3 -5 -1 -10 4 -10 6 0 11 5 11 10 0 6 -2 10 -4 10 -3 0
-8 -4 -11 -10z"/>
<path d="M187 493 c-4 -3 -7 -11 -7 -17 0 -6 5 -5 12 2 6 6 9 14 7 17 -3 3 -9
2 -12 -2z"/>
<path d="M360 495 c0 -3 2 -5 5 -5 3 0 5 2 5 5 0 3 -2 5 -5 5 -3 0 -5 -2 -5
-5z"/>
<path d="M465 490 c-3 -5 -1 -10 4 -10 6 0 11 5 11 10 0 6 -2 10 -4 10 -3 0
-8 -4 -11 -10z"/>
<path d="M507 493 c-4 -3 -7 -11 -7 -17 0 -6 5 -5 12 2 6 6 9 14 7 17 -3 3 -9
2 -12 -2z"/>
<path d="M680 495 c0 -3 2 -5 5 -5 3 0 5 2 5 5 0 3 -2 5 -5 5 -3 0 -5 -2 -5
-5z"/>
<path d="M785 490 c-3 -5 -1 -10 4 -10 6 0 11 5 11 10 0 6 -2 10 -4 10 -3 0
-8 -4 -11 -10z"/>
<path d="M827 493 c-4 -3 -7 -11 -7 -17 0 -6 5 -5 12 2 6 6 9 14 7 17 -3 3 -9
2 -12 -2z"/>
<path d="M225 470 c-3 -5 -1 -10 4 -10 6 0 11 5 11 10 0 6 -2 10 -4 10 -3 0
-8 -4 -11 -10z"/>
<path d="M545 470 c-3 -5 -1 -10 4 -10 6 0 11 5 11 10 0 6 -2 10 -4 10 -3 0
-8 -4 -11 -10z"/>
<path d="M865 470 c-3 -5 -1 -10 4 -10 6 0 11 5 11 10 0 6 -2 10 -4 10 -3 0
-8 -4 -11 -10z"/>
<path d="M80 455 c0 -3 2 -5 5 -5 3 0 5 2 5 5 0 3 -2 5 -5 5 -3 0 -5 -2 -5 -5z"/>
<path d="M400 455 c0 -3 2 -5 5 -5 3 0 5 2 5 5 0 3 -2 5 -5 5 -3 0 -5 -2 -5
-5z"/>
<path d="M720 455 c0 -3 2 -5 5 -5 3 0 5 2 5 5 0 3 -2 5 -5 5 -3 0 -5 -2 -5
-5z"/>
<path d="M125 430 c-3 -5 -2 -10 4 -10 5 0 13 5 16 10 3 6 2 10 -4 10 -5 0
-13 -4 -16 -10z"/>
<path d="M445 430 c-3 -5 -2 -10 4 -10 5 0 13 5 16 10 3 6 2 10 -4 10 -5 0
-13 -4 -16 -10z"/>
<path d="M765 430 c-3 -5 -2 -10 4 -10 5 0 13 5 16 10 3 6 2 10 -4 10 -5 0
-13 -4 -16 -10z"/>
<path d="M165 410 c-3 -5 -1 -10 4 -10 6 0 11 5 11 10 0 6 -2 10 -4 10 -3 0
-8 -4 -11 -10z"/>
<path d="M485 410 c-3 -5 -1 -10 4 -10 6 0 11 5 11 10 0 6 -2 10 -4 10 -3 0
-8 -4 -11 -10z"/>
<path d="M805 410 c-3 -5 -1 -10 4 -10 6 0 11 5 11 10 0 6 -2 10 -4 10 -3 0
-8 -4 -11 -10z"/>
<path d="M60 375 c0 -3 2 -5 5 -5 3 0 5 2 5 5 0 3 -2 5 -5 5 -3 0 -5 -2 -5 -5z"/>
<path d="M380 375 c0 -3 2 -5 5 -5 3 0 5 2 5 5 0 3 -2 5 -5 5 -3 0 -5 -2 -5
-5z"/>
<path d="M700 375 c0 -3 2 -5 5 -5 3 0 5 2 5 5 0 3 -2 5 -5 5 -3 0 -5 -2 -5
-5z"/>
<path d="M20 345 c0 -3 2 -5 5 -5 3 0 5 2 5 5 0 3 -2 5 -5 5 -3 0 -5 -2 -5 -5z"/>
<path d="M290 345 c0 -3 2 -5 5 -5 3 0 5 2 5 5 0 3 -2 5 -5 5 -3 0 -5 -2 -5
-5z"/>
<path d="M340 345 c0 -3 2 -5 5 -5 3 0 5 2 5 5 0 3 -2 5 -5 5 -3 0 -5 -2 -5
-5z"/>
<path d="M610 345 c0 -3 2 -5 5 -5 3 0 5 2 5 5 0 3 -2 5 -5 5 -3 0 -5 -2 -5
-5z"/>
<path d="M660 345 c0 -3 2 -5 5 -5 3 0 5 2 5 5 0 3 -2 5 -5 5 -3 0 -5 -2 -5
-5z"/>
<path d="M930 345 c0 -3 2 -5 5 -5 3 0 5 2 5 5 0 3 -2 5 -5 5 -3 0 -5 -2 -5
-5z"/>
<path d="M20 295 c0 -3 2 -5 5 -5 3 0 5 2 5 5 0 3 -2 5 -5 5 -3 0 -5 -2 -5 -5z"/>
<path d="M290 295 c0 -3 2 -5 5 -5 3 0 5 2 5 5 0 3 -2 5 -5 5 -3 0 -5 -2 -5
-5z"/>
<path d="M340 295 c0 -3 2 -5 5 -5 3 0 5 2 5 5 0 3 -2 5 -5 5 -3 0 -5 -2 -5
-5z"/>
<path d="M610 295 c0 -3 2 -5 5 -5 3 0 5 2 5 5 0 3 -2 5 -5 5 -3 0 -5 -2 -5
-5z"/>
<path d="M660 295 c0 -3 2 -5 5 -5 3 0 5 2 5 5 0 3 -2 5 -5 5 -3 0 -5 -2 -5
-5z"/>
<path d="M930 295 c0 -3 2 -5 5 -5 3 0 5 2 5 5 0 3 -2 5 -5 5 -3 0 -5 -2 -5
-5z"/>
<path d="M240 275 c0 -3 2 -5 5 -5 3 0 5 2 5 5 0 3 -2 5 -5 5 -3 0 -5 -2 -5
-5z"/>
<path d="M560 275 c0 -3 2 -5 5 -5 3 0 5 2 5 5 0 3 -2 5 -5 5 -3 0 -5 -2 -5
-5z"/>
<path d="M880 275 c0 -3 2 -5 5 -5 3 0 5 2 5 5 0 3 -2 5 -5 5 -3 0 -5 -2 -5
-5z"/>
<path d="M100 244 c0 -12 4 -14 13 -7 6 6 19 13 27 16 9 3 3 6 -12 6 -20 1
-28 -4 -28 -15z"/>
<path d="M420 244 c0 -12 4 -14 13 -7 6 6 19 13 27 16 9 3 3 6 -12 6 -20 1
-28 -4 -28 -15z"/>
<path d="M740 244 c0 -12 4 -14 13 -7 6 6 19 13 27 16 9 3 3 6 -12 6 -20 1
-28 -4 -28 -15z"/>
<path d="M65 230 c-3 -5 -1 -10 4 -10 6 0 11 5 11 10 0 6 -2 10 -4 10 -3 0 -8
-4 -11 -10z"/>
<path d="M180 235 c0 -3 2 -5 5 -5 3 0 5 2 5 5 0 3 -2 5 -5 5 -3 0 -5 -2 -5
-5z"/>
<path d="M200 233 c0 -5 12 -20 26 -34 24 -21 26 -22 16 -3 -13 25 -42 50 -42
37z"/>
<path d="M385 230 c-3 -5 -1 -10 4 -10 6 0 11 5 11 10 0 6 -2 10 -4 10 -3 0
-8 -4 -11 -10z"/>
<path d="M500 235 c0 -3 2 -5 5 -5 3 0 5 2 5 5 0 3 -2 5 -5 5 -3 0 -5 -2 -5
-5z"/>
<path d="M520 233 c0 -5 12 -20 26 -34 24 -21 26 -22 16 -3 -13 25 -42 50 -42
37z"/>
<path d="M705 230 c-3 -5 -1 -10 4 -10 6 0 11 5 11 10 0 6 -2 10 -4 10 -3 0
-8 -4 -11 -10z"/>
<path d="M820 235 c0 -3 2 -5 5 -5 3 0 5 2 5 5 0 3 -2 5 -5 5 -3 0 -5 -2 -5
-5z"/>
<path d="M840 233 c0 -5 12 -20 26 -34 24 -21 26 -22 16 -3 -13 25 -42 50 -42
37z"/>
<path d="M155 210 c-3 -5 -2 -10 4 -10 5 0 13 5 16 10 3 6 2 10 -4 10 -5 0
-13 -4 -16 -10z"/>
<path d="M475 210 c-3 -5 -2 -10 4 -10 5 0 13 5 16 10 3 6 2 10 -4 10 -5 0
-13 -4 -16 -10z"/>
<path d="M795 210 c-3 -5 -2 -10 4 -10 5 0 13 5 16 10 3 6 2 10 -4 10 -5 0
-13 -4 -16 -10z"/>
<path d="M107 203 c-4 -3 -7 -11 -7 -17 0 -6 5 -5 12 2 6 6 9 14 7 17 -3 3 -9
2 -12 -2z"/>
<path d="M427 203 c-4 -3 -7 -11 -7 -17 0 -6 5 -5 12 2 6 6 9 14 7 17 -3 3 -9
2 -12 -2z"/>
<path d="M747 203 c-4 -3 -7 -11 -7 -17 0 -6 5 -5 12 2 6 6 9 14 7 17 -3 3 -9
2 -12 -2z"/>
<path d="M200 195 c0 -3 2 -5 5 -5 3 0 5 2 5 5 0 3 -2 5 -5 5 -3 0 -5 -2 -5
-5z"/>
<path d="M520 195 c0 -3 2 -5 5 -5 3 0 5 2 5 5 0 3 -2 5 -5 5 -3 0 -5 -2 -5
-5z"/>
<path d="M840 195 c0 -3 2 -5 5 -5 3 0 5 2 5 5 0 3 -2 5 -5 5 -3 0 -5 -2 -5
-5z"/>
<path d="M40 175 c0 -3 2 -5 5 -5 3 0 5 2 5 5 0 3 -2 5 -5 5 -3 0 -5 -2 -5 -5z"/>
<path d="M145 170 c-3 -5 -1 -10 4 -10 6 0 11 5 11 10 0 6 -2 10 -4 10 -3 0
-8 -4 -11 -10z"/>
<path d="M187 173 c-4 -3 -7 -11 -7 -17 0 -6 5 -5 12 2 6 6 9 14 7 17 -3 3 -9
2 -12 -2z"/>
<path d="M360 175 c0 -3 2 -5 5 -5 3 0 5 2 5 5 0 3 -2 5 -5 5 -3 0 -5 -2 -5
-5z"/>
<path d="M465 170 c-3 -5 -1 -10 4 -10 6 0 11 5 11 10 0 6 -2 10 -4 10 -3 0
-8 -4 -11 -10z"/>
<path d="M507 173 c-4 -3 -7 -11 -7 -17 0 -6 5 -5 12 2 6 6 9 14 7 17 -3 3 -9
2 -12 -2z"/>
<path d="M680 175 c0 -3 2 -5 5 -5 3 0 5 2 5 5 0 3 -2 5 -5 5 -3 0 -5 -2 -5
-5z"/>
<path d="M785 170 c-3 -5 -1 -10 4 -10 6 0 11 5 11 10 0 6 -2 10 -4 10 -3 0
-8 -4 -11 -10z"/>
<path d="M827 173 c-4 -3 -7 -11 -7 -17 0 -6 5 -5 12 2 6 6 9 14 7 17 -3 3 -9
2 -12 -2z"/>
<path d="M225 150 c-3 -5 -1 -10 4 -10 6 0 11 5 11 10 0 6 -2 10 -4 10 -3 0
-8 -4 -11 -10z"/>
<path d="M545 150 c-3 -5 -1 -10 4 -10 6 0 11 5 11 10 0 6 -2 10 -4 10 -3 0
-8 -4 -11 -10z"/>
<path d="M865 150 c-3 -5 -1 -10 4 -10 6 0 11 5 11 10 0 6 -2 10 -4 10 -3 0
-8 -4 -11 -10z"/>
<path d="M80 135 c0 -3 2 -5 5 -5 3 0 5 2 5 5 0 3 -2 5 -5 5 -3 0 -5 -2 -5 -5z"/>
<path d="M400 135 c0 -3 2 -5 5 -5 3 0 5 2 5 5 0 3 -2 5 -5 5 -3 0 -5 -2 -5
-5z"/>
<path d="M720 135 c0 -3 2 -5 5 -5 3 0 5 2 5 5 0 3 -2 5 -5 5 -3 0 -5 -2 -5
-5z"/>
<path d="M125 110 c-3 -5 -2 -10 4 -10 5 0 13 5 16 10 3 6 2 10 -4 10 -5 0
-13 -4 -16 -10z"/>
<path d="M445 110 c-3 -5 -2 -10 4 -10 5 0 13 5 16 10 3 6 2 10 -4 10 -5 0
-13 -4 -16 -10z"/>
<path d="M765 110 c-3 -5 -2 -10 4 -10 5 0 13 5 16 10 3 6 2 10 -4 10 -5 0
-13 -4 -16 -10z"/>
<path d="M165 90 c-3 -5 -1 -10 4 -10 6 0 11 5 11 10 0 6 -2 10 -4 10 -3 0 -8
-4 -11 -10z"/>
<path d="M485 90 c-3 -5 -1 -10 4 -10 6 0 11 5 11 10 0 6 -2 10 -4 10 -3 0 -8
-4 -11 -10z"/>
<path d="M805 90 c-3 -5 -1 -10 4 -10 6 0 11 5 11 10 0 6 -2 10 -4 10 -3 0 -8
-4 -11 -10z"/>
<path d="M60 55 c0 -3 2 -5 5 -5 3 0 5 2 5 5 0 3 -2 5 -5 5 -3 0 -5 -2 -5 -5z"/>
<path d="M380 55 c0 -3 2 -5 5 -5 3 0 5 2 5 5 0 3 -2 5 -5 5 -3 0 -5 -2 -5 -5z"/>
<path d="M700 55 c0 -3 2 -5 5 -5 3 0 5 2 5 5 0 3 -2 5 -5 5 -3 0 -5 -2 -5 -5z"/>
<path d="M20 25 c0 -3 2 -5 5 -5 3 0 5 2 5 5 0 3 -2 5 -5 5 -3 0 -5 -2 -5 -5z"/>
<path d="M290 25 c0 -3 2 -5 5 -5 3 0 5 2 5 5 0 3 -2 5 -5 5 -3 0 -5 -2 -5 -5z"/>
<path d="M340 25 c0 -3 2 -5 5 -5 3 0 5 2 5 5 0 3 -2 5 -5 5 -3 0 -5 -2 -5 -5z"/>
<path d="M610 25 c0 -3 2 -5 5 -5 3 0 5 2 5 5 0 3 -2 5 -5 5 -3 0 -5 -2 -5 -5z"/>
<path d="M660 25 c0 -3 2 -5 5 -5 3 0 5 2 5 5 0 3 -2 5 -5 5 -3 0 -5 -2 -5 -5z"/>
<path d="M930 25 c0 -3 2 -5 5 -5 3 0 5 2 5 5 0 3 -2 5 -5 5 -3 0 -5 -2 -5 -5z"/>
</g>
<g transform="translate(0.000000,96.000000) scale(0.100000,-0.100000)"
fill="#e83535" stroke="none">
<path d="M240 915 c0 -3 2 -5 5 -5 3 0 5 2 5 5 0 3 -2 5 -5 5 -3 0 -5 -2 -5
-5z"/>
<path d="M560 915 c0 -3 2 -5 5 -5 3 0 5 2 5 5 0 3 -2 5 -5 5 -3 0 -5 -2 -5
-5z"/>
<path d="M880 915 c0 -3 2 -5 5 -5 3 0 5 2 5 5 0 3 -2 5 -5 5 -3 0 -5 -2 -5
-5z"/>
<path d="M65 870 c-3 -5 -1 -10 4 -10 6 0 11 5 11 10 0 6 -2 10 -4 10 -3 0 -8
-4 -11 -10z"/>
<path d="M180 875 c0 -3 2 -5 5 -5 3 0 5 2 5 5 0 3 -2 5 -5 5 -3 0 -5 -2 -5
-5z"/>
<path d="M385 870 c-3 -5 -1 -10 4 -10 6 0 11 5 11 10 0 6 -2 10 -4 10 -3 0
-8 -4 -11 -10z"/>
<path d="M500 875 c0 -3 2 -5 5 -5 3 0 5 2 5 5 0 3 -2 5 -5 5 -3 0 -5 -2 -5
-5z"/>
<path d="M705 870 c-3 -5 -1 -10 4 -10 6 0 11 5 11 10 0 6 -2 10 -4 10 -3 0
-8 -4 -11 -10z"/>
<path d="M820 875 c0 -3 2 -5 5 -5 3 0 5 2 5 5 0 3 -2 5 -5 5 -3 0 -5 -2 -5
-5z"/>
<path d="M200 835 c0 -3 2 -5 5 -5 3 0 5 2 5 5 0 3 -2 5 -5 5 -3 0 -5 -2 -5
-5z"/>
<path d="M520 835 c0 -3 2 -5 5 -5 3 0 5 2 5 5 0 3 -2 5 -5 5 -3 0 -5 -2 -5
-5z"/>
<path d="M840 835 c0 -3 2 -5 5 -5 3 0 5 2 5 5 0 3 -2 5 -5 5 -3 0 -5 -2 -5
-5z"/>
<path d="M40 815 c0 -3 2 -5 5 -5 3 0 5 2 5 5 0 3 -2 5 -5 5 -3 0 -5 -2 -5 -5z"/>
<path d="M145 810 c-3 -5 -1 -10 4 -10 6 0 11 5 11 10 0 6 -2 10 -4 10 -3 0
-8 -4 -11 -10z"/>
<path d="M360 815 c0 -3 2 -5 5 -5 3 0 5 2 5 5 0 3 -2 5 -5 5 -3 0 -5 -2 -5
-5z"/>
<path d="M465 810 c-3 -5 -1 -10 4 -10 6 0 11 5 11 10 0 6 -2 10 -4 10 -3 0
-8 -4 -11 -10z"/>
<path d="M680 815 c0 -3 2 -5 5 -5 3 0 5 2 5 5 0 3 -2 5 -5 5 -3 0 -5 -2 -5
-5z"/>
<path d="M785 810 c-3 -5 -1 -10 4 -10 6 0 11 5 11 10 0 6 -2 10 -4 10 -3 0
-8 -4 -11 -10z"/>
<path d="M225 790 c-3 -5 -1 -10 4 -10 6 0 11 5 11 10 0 6 -2 10 -4 10 -3 0
-8 -4 -11 -10z"/>
<path d="M545 790 c-3 -5 -1 -10 4 -10 6 0 11 5 11 10 0 6 -2 10 -4 10 -3 0
-8 -4 -11 -10z"/>
<path d="M865 790 c-3 -5 -1 -10 4 -10 6 0 11 5 11 10 0 6 -2 10 -4 10 -3 0
-8 -4 -11 -10z"/>
<path d="M80 775 c0 -3 2 -5 5 -5 3 0 5 2 5 5 0 3 -2 5 -5 5 -3 0 -5 -2 -5 -5z"/>
<path d="M400 775 c0 -3 2 -5 5 -5 3 0 5 2 5 5 0 3 -2 5 -5 5 -3 0 -5 -2 -5
-5z"/>
<path d="M720 775 c0 -3 2 -5 5 -5 3 0 5 2 5 5 0 3 -2 5 -5 5 -3 0 -5 -2 -5
-5z"/>
<path d="M165 730 c-3 -5 -1 -10 4 -10 6 0 11 5 11 10 0 6 -2 10 -4 10 -3 0
-8 -4 -11 -10z"/>
<path d="M485 730 c-3 -5 -1 -10 4 -10 6 0 11 5 11 10 0 6 -2 10 -4 10 -3 0
-8 -4 -11 -10z"/>
<path d="M805 730 c-3 -5 -1 -10 4 -10 6 0 11 5 11 10 0 6 -2 10 -4 10 -3 0
-8 -4 -11 -10z"/>
<path d="M60 695 c0 -3 2 -5 5 -5 3 0 5 2 5 5 0 3 -2 5 -5 5 -3 0 -5 -2 -5 -5z"/>
<path d="M380 695 c0 -3 2 -5 5 -5 3 0 5 2 5 5 0 3 -2 5 -5 5 -3 0 -5 -2 -5
-5z"/>
<path d="M700 695 c0 -3 2 -5 5 -5 3 0 5 2 5 5 0 3 -2 5 -5 5 -3 0 -5 -2 -5
-5z"/>
<path d="M240 595 c0 -3 2 -5 5 -5 3 0 5 2 5 5 0 3 -2 5 -5 5 -3 0 -5 -2 -5
-5z"/>
<path d="M560 595 c0 -3 2 -5 5 -5 3 0 5 2 5 5 0 3 -2 5 -5 5 -3 0 -5 -2 -5
-5z"/>
<path d="M880 595 c0 -3 2 -5 5 -5 3 0 5 2 5 5 0 3 -2 5 -5 5 -3 0 -5 -2 -5
-5z"/>
<path d="M65 550 c-3 -5 -1 -10 4 -10 6 0 11 5 11 10 0 6 -2 10 -4 10 -3 0 -8
-4 -11 -10z"/>
<path d="M180 555 c0 -3 2 -5 5 -5 3 0 5 2 5 5 0 3 -2 5 -5 5 -3 0 -5 -2 -5
-5z"/>
<path d="M385 550 c-3 -5 -1 -10 4 -10 6 0 11 5 11 10 0 6 -2 10 -4 10 -3 0
-8 -4 -11 -10z"/>
<path d="M500 555 c0 -3 2 -5 5 -5 3 0 5 2 5 5 0 3 -2 5 -5 5 -3 0 -5 -2 -5
-5z"/>
<path d="M705 550 c-3 -5 -1 -10 4 -10 6 0 11 5 11 10 0 6 -2 10 -4 10 -3 0
-8 -4 -11 -10z"/>
<path d="M820 555 c0 -3 2 -5 5 -5 3 0 5 2 5 5 0 3 -2 5 -5 5 -3 0 -5 -2 -5
-5z"/>
<path d="M200 515 c0 -3 2 -5 5 -5 3 0 5 2 5 5 0 3 -2 5 -5 5 -3 0 -5 -2 -5
-5z"/>
<path d="M520 515 c0 -3 2 -5 5 -5 3 0 5 2 5 5 0 3 -2 5 -5 5 -3 0 -5 -2 -5
-5z"/>
<path d="M840 515 c0 -3 2 -5 5 -5 3 0 5 2 5 5 0 3 -2 5 -5 5 -3 0 -5 -2 -5
-5z"/>
<path d="M40 495 c0 -3 2 -5 5 -5 3 0 5 2 5 5 0 3 -2 5 -5 5 -3 0 -5 -2 -5 -5z"/>
<path d="M145 490 c-3 -5 -1 -10 4 -10 6 0 11 5 11 10 0 6 -2 10 -4 10 -3 0
-8 -4 -11 -10z"/>
<path d="M360 495 c0 -3 2 -5 5 -5 3 0 5 2 5 5 0 3 -2 5 -5 5 -3 0 -5 -2 -5
-5z"/>
<path d="M465 490 c-3 -5 -1 -10 4 -10 6 0 11 5 11 10 0 6 -2 10 -4 10 -3 0
-8 -4 -11 -10z"/>
<path d="M680 495 c0 -3 2 -5 5 -5 3 0 5 2 5 5 0 3 -2 5 -5 5 -3 0 -5 -2 -5
-5z"/>
<path d="M785 490 c-3 -5 -1 -10 4 -10 6 0 11 5 11 10 0 6 -2 10 -4 10 -3 0
-8 -4 -11 -10z"/>
<path d="M225 470 c-3 -5 -1 -10 4 -10 6 0 11 5 11 10 0 6 -2 10 -4 10 -3 0
-8 -4 -11 -10z"/>
<path d="M545 470 c-3 -5 -1 -10 4 -10 6 0 11 5 11 10 0 6 -2 10 -4 10 -3 0
-8 -4 -11 -10z"/>
<path d="M865 470 c-3 -5 -1 -10 4 -10 6 0 11 5 11 10 0 6 -2 10 -4 10 -3 0
-8 -4 -11 -10z"/>
<path d="M80 455 c0 -3 2 -5 5 -5 3 0 5 2 5 5 0 3 -2 5 -5 5 -3 0 -5 -2 -5 -5z"/>
<path d="M400 455 c0 -3 2 -5 5 -5 3 0 5 2 5 5 0 3 -2 5 -5 5 -3 0 -5 -2 -5
-5z"/>
<path d="M720 455 c0 -3 2 -5 5 -5 3 0 5 2 5 5 0 3 -2 5 -5 5 -3 0 -5 -2 -5
-5z"/>
<path d="M165 410 c-3 -5 -1 -10 4 -10 6 0 11 5 11 10 0 6 -2 10 -4 10 -3 0
-8 -4 -11 -10z"/>
<path d="M485 410 c-3 -5 -1 -10 4 -10 6 0 11 5 11 10 0 6 -2 10 -4 10 -3 0
-8 -4 -11 -10z"/>
<path d="M805 410 c-3 -5 -1 -10 4 -10 6 0 11 5 11 10 0 6 -2 10 -4 10 -3 0
-8 -4 -11 -10z"/>
<path d="M60 375 c0 -3 2 -5 5 -5 3 0 5 2 5 5 0 3 -2 5 -5 5 -3 0 -5 -2 -5 -5z"/>
<path d="M380 375 c0 -3 2 -5 5 -5 3 0 5 2 5 5 0 3 -2 5 -5 5 -3 0 -5 -2 -5
-5z"/>
<path d="M700 375 c0 -3 2 -5 5 -5 3 0 5 2 5 5 0 3 -2 5 -5 5 -3 0 -5 -2 -5
-5z"/>
<path d="M240 275 c0 -3 2 -5 5 -5 3 0 5 2 5 5 0 3 -2 5 -5 5 -3 0 -5 -2 -5
-5z"/>
<path d="M560 275 c0 -3 2 -5 5 -5 3 0 5 2 5 5 0 3 -2 5 -5 5 -3 0 -5 -2 -5
-5z"/>
<path d="M880 275 c0 -3 2 -5 5 -5 3 0 5 2 5 5 0 3 -2 5 -5 5 -3 0 -5 -2 -5
-5z"/>
<path d="M65 230 c-3 -5 -1 -10 4 -10 6 0 11 5 11 10 0 6 -2 10 -4 10 -3 0 -8
-4 -11 -10z"/>
<path d="M180 235 c0 -3 2 -5 5 -5 3 0 5 2 5 5 0 3 -2 5 -5 5 -3 0 -5 -2 -5
-5z"/>
<path d="M385 230 c-3 -5 -1 -10 4 -10 6 0 11 5 11 10 0 6 -2 10 -4 10 -3 0
-8 -4 -11 -10z"/>
<path d="M500 235 c0 -3 2 -5 5 -5 3 0 5 2 5 5 0 3 -2 5 -5 5 -3 0 -5 -2 -5
-5z"/>
<path d="M705 230 c-3 -5 -1 -10 4 -10 6 0 11 5 11 10 0 6 -2 10 -4 10 -3 0
-8 -4 -11 -10z"/>
<path d="M820 235 c0 -3 2 -5 5 -5 3 0 5 2 5 5 0 3 -2 5 -5 5 -3 0 -5 -2 -5
-5z"/>
<path d="M200 195 c0 -3 2 -5 5 -5 3 0 5 2 5 5 0 3 -2 5 -5 5 -3 0 -5 -2 -5
-5z"/>
<path d="M520 195 c0 -3 2 -5 5 -5 3 0 5 2 5 5 0 3 -2 5 -5 5 -3 0 -5 -2 -5
-5z"/>
<path d="M840 195 c0 -3 2 -5 5 -5 3 0 5 2 5 5 0 3 -2 5 -5 5 -3 0 -5 -2 -5
-5z"/>
<path d="M40 175 c0 -3 2 -5 5 -5 3 0 5 2 5 5 0 3 -2 5 -5 5 -3 0 -5 -2 -5 -5z"/>
<path d="M145 170 c-3 -5 -1 -10 4 -10 6 0 11 5 11 10 0 6 -2 10 -4 10 -3 0
-8 -4 -11 -10z"/>
<path d="M360 175 c0 -3 2 -5 5 -5 3 0 5 2 5 5 0 3 -2 5 -5 5 -3 0 -5 -2 -5
-5z"/>
<path d="M465 170 c-3 -5 -1 -10 4 -10 6 0 11 5 11 10 0 6 -2 10 -4 10 -3 0
-8 -4 -11 -10z"/>
<path d="M680 175 c0 -3 2 -5 5 -5 3 0 5 2 5 5 0 3 -2 5 -5 5 -3 0 -5 -2 -5
-5z"/>
<path d="M785 170 c-3 -5 -1 -10 4 -10 6 0 11 5 11 10 0 6 -2 10 -4 10 -3 0
-8 -4 -11 -10z"/>
<path d="M225 150 c-3 -5 -1 -10 4 -10 6 0 11 5 11 10 0 6 -2 10 -4 10 -3 0
-8 -4 -11 -10z"/>
<path d="M545 150 c-3 -5 -1 -10 4 -10 6 0 11 5 11 10 0 6 -2 10 -4 10 -3 0
-8 -4 -11 -10z"/>
<path d="M865 150 c-3 -5 -1 -10 4 -10 6 0 11 5 11 10 0 6 -2 10 -4 10 -3 0
-8 -4 -11 -10z"/>
<path d="M80 135 c0 -3 2 -5 5 -5 3 0 5 2 5 5 0 3 -2 5 -5 5 -3 0 -5 -2 -5 -5z"/>
<path d="M400 135 c0 -3 2 -5 5 -5 3 0 5 2 5 5 0 3 -2 5 -5 5 -3 0 -5 -2 -5
-5z"/>
<path d="M720 135 c0 -3 2 -5 5 -5 3 0 5 2 5 5 0 3 -2 5 -5 5 -3 0 -5 -2 -5
-5z"/>
<path d="M165 90 c-3 -5 -1 -10 4 -10 6 0 11 5 11 10 0 6 -2 10 -4 10 -3 0 -8
-4 -11 -10z"/>
<path d="M485 90 c-3 -5 -1 -10 4 -10 6 0 11 5 11 10 0 6 -2 10 -4 10 -3 0 -8
-4 -11 -10z"/>
<path d="M805 90 c-3 -5 -1 -10 4 -10 6 0 11 5 11 10 0 6 -2 10 -4 10 -3 0 -8
-4 -11 -10z"/>
<path d="M60 55 c0 -3 2 -5 5 -5 3 0 5 2 5 5 0 3 -2 5 -5 5 -3 0 -5 -2 -5 -5z"/>
<path d="M380 55 c0 -3 2 -5 5 -5 3 0 5 2 5 5 0 3 -2 5 -5 5 -3 0 -5 -2 -5 -5z"/>
<path d="M700 55 c0 -3 2 -5 5 -5 3 0 5 2 5 5 0 3 -2 5 -5 5 -3 0 -5 -2 -5 -5z"/>
</g>
  </g>
</svg>
