<?xml version="1.0" encoding="UTF-8" standalone="no"?>
<!-- Created with Inkscape (http://www.inkscape.org/) -->

<svg
   xmlns:dc="http://purl.org/dc/elements/1.1/"
   xmlns:cc="http://creativecommons.org/ns#"
   xmlns:rdf="http://www.w3.org/1999/02/22-rdf-syntax-ns#"
   xmlns:svg="http://www.w3.org/2000/svg"
   xmlns="http://www.w3.org/2000/svg"
   xmlns:sodipodi="http://sodipodi.sourceforge.net/DTD/sodipodi-0.dtd"
   xmlns:inkscape="http://www.inkscape.org/namespaces/inkscape"
   width="32px"
   height="32px"
   viewBox="0 0 32px 32px"
   version="1.1"
   id="svgMain"
   inkscape:version="0.92.2 (5c3e80d, 2017-08-06)"
   sodipodi:docname="reference_SVG.svg">
  <defs
     id="defs4542" />
  <sodipodi:namedview
     id="base"
     pagecolor="#ffffff"
     bordercolor="#666666"
     borderopacity="1.0"
     inkscape:pageopacity="0.0"
     inkscape:pageshadow="2"
     inkscape:zoom="1"
     inkscape:cx="0"
     inkscape:cy="0"
     inkscape:document-units="px"
     inkscape:current-layer="layer1"
     showgrid="false"
     units="px"
     inkscape:window-width="1024"
     inkscape:window-height="768"
     inkscape:window-x="-8"
     inkscape:window-y="-8"
     inkscape:window-maximized="1" />
  <metadata
     id="metadata1">
    <rdf:RDF>
      <cc:Work
         rdf:about="">
        <dc:format>image/svg+xml</dc:format>
        <dc:type
           rdf:resource="http://purl.org/dc/dcmitype/StillImage" />
        <dc:title />
      </cc:Work>
    </rdf:RDF>
  </metadata>
  <g transform="translate(-32,-32)"
     inkscape:label="Layer 1"
     inkscape:groupmode="layer"
     id="layer1">
    <!-- INSERT MARKER -->
<g transform="translate(0.000000,96.000000) scale(0.100000,-0.100000)"
fill="#eae9eb" stroke="none">
<path d="M20 720 l0 -80 140 0 140 0 0 80 0 80 -140 0 -140 0 0 -80z"/>
<path d="M340 720 l0 -80 140 0 140 0 0 80 0 80 -140 0 -140 0 0 -80z"/>
<path d="M660 720 l0 -80 140 0 140 0 0 80 0 80 -140 0 -140 0 0 -80z"/>
<path d="M20 400 l0 -80 140 0 140 0 0 80 0 80 -140 0 -140 0 0 -80z"/>
<path d="M340 400 l0 -80 140 0 140 0 0 80 0 80 -140 0 -140 0 0 -80z"/>
<path d="M660 400 l0 -80 140 0 140 0 0 80 0 80 -140 0 -140 0 0 -80z"/>
<path d="M20 80 l0 -80 140 0 140 0 0 80 0 80 -140 0 -140 0 0 -80z"/>
<path d="M340 80 l0 -80 140 0 140 0 0 80 0 80 -140 0 -140 0 0 -80z"/>
<path d="M660 80 l0 -80 140 0 140 0 0 80 0 80 -140 0 -140 0 0 -80z"/>
</g>
<g transform="translate(0.000000,96.000000) scale(0.100000,-0.100000)"
fill="#97491a" stroke="none">
<path d="M20 720 l0 -80 140 0 140 0 -2 83 c-1 45 -3 65 -5 45 -4 -38 -15 -48
-29 -27 -3 6 -19 9 -35 5 -15 -3 -31 -1 -34 4 -8 13 -52 13 -60 0 -5 -8 -11
-7 -21 1 -8 6 -27 9 -44 5 -22 -4 -30 -2 -30 8 0 19 38 25 148 23 50 -1 92 1
92 6 0 4 -58 7 -130 7 l-130 0 0 -80z"/>
<path d="M340 720 l0 -80 140 0 140 0 -2 83 c-1 45 -3 65 -5 45 -4 -38 -15
-48 -29 -27 -3 6 -19 9 -35 5 -15 -3 -31 -1 -34 4 -8 13 -52 13 -60 0 -5 -8
-11 -7 -21 1 -8 6 -27 9 -44 5 -22 -4 -30 -2 -30 8 0 19 38 25 148 23 50 -1
92 1 92 6 0 4 -58 7 -130 7 l-130 0 0 -80z"/>
<path d="M660 720 l0 -80 140 0 140 0 -2 83 c-1 45 -3 65 -5 45 -4 -38 -15
-48 -29 -27 -3 6 -19 9 -35 5 -15 -3 -31 -1 -34 4 -8 13 -52 13 -60 0 -5 -8
-11 -7 -21 1 -8 6 -27 9 -44 5 -22 -4 -30 -2 -30 8 0 19 38 25 148 23 50 -1
92 1 92 6 0 4 -58 7 -130 7 l-130 0 0 -80z"/>
<path d="M270 755 c0 -3 2 -5 5 -5 3 0 5 2 5 5 0 3 -2 5 -5 5 -3 0 -5 -2 -5
-5z"/>
<path d="M590 755 c0 -3 2 -5 5 -5 3 0 5 2 5 5 0 3 -2 5 -5 5 -3 0 -5 -2 -5
-5z"/>
<path d="M910 755 c0 -3 2 -5 5 -5 3 0 5 2 5 5 0 3 -2 5 -5 5 -3 0 -5 -2 -5
-5z"/>
<path d="M20 400 l0 -80 140 0 140 0 -2 83 c-1 45 -3 65 -5 45 -4 -38 -15 -48
-29 -27 -3 6 -19 9 -35 5 -15 -3 -31 -1 -34 4 -8 13 -52 13 -60 0 -5 -8 -11
-7 -21 1 -8 6 -27 9 -44 5 -22 -4 -30 -2 -30 8 0 19 38 25 148 23 50 -1 92 1
92 6 0 4 -58 7 -130 7 l-130 0 0 -80z"/>
<path d="M340 400 l0 -80 140 0 140 0 -2 83 c-1 45 -3 65 -5 45 -4 -38 -15
-48 -29 -27 -3 6 -19 9 -35 5 -15 -3 -31 -1 -34 4 -8 13 -52 13 -60 0 -5 -8
-11 -7 -21 1 -8 6 -27 9 -44 5 -22 -4 -30 -2 -30 8 0 19 38 25 148 23 50 -1
92 1 92 6 0 4 -58 7 -130 7 l-130 0 0 -80z"/>
<path d="M660 400 l0 -80 140 0 140 0 -2 83 c-1 45 -3 65 -5 45 -4 -38 -15
-48 -29 -27 -3 6 -19 9 -35 5 -15 -3 -31 -1 -34 4 -8 13 -52 13 -60 0 -5 -8
-11 -7 -21 1 -8 6 -27 9 -44 5 -22 -4 -30 -2 -30 8 0 19 38 25 148 23 50 -1
92 1 92 6 0 4 -58 7 -130 7 l-130 0 0 -80z"/>
<path d="M270 435 c0 -3 2 -5 5 -5 3 0 5 2 5 5 0 3 -2 5 -5 5 -3 0 -5 -2 -5
-5z"/>
<path d="M590 435 c0 -3 2 -5 5 -5 3 0 5 2 5 5 0 3 -2 5 -5 5 -3 0 -5 -2 -5
-5z"/>
<path d="M910 435 c0 -3 2 -5 5 -5 3 0 5 2 5 5 0 3 -2 5 -5 5 -3 0 -5 -2 -5
-5z"/>
<path d="M20 80 l0 -80 140 0 140 0 -2 83 c-1 45 -3 65 -5 45 -4 -38 -15 -48
-29 -27 -3 6 -19 9 -35 5 -15 -3 -31 -1 -34 4 -8 13 -52 13 -60 0 -5 -8 -11
-7 -21 1 -8 6 -27 9 -44 5 -22 -4 -30 -2 -30 8 0 19 38 25 148 23 50 -1 92 1
92 6 0 4 -58 7 -130 7 l-130 0 0 -80z"/>
<path d="M340 80 l0 -80 140 0 140 0 -2 83 c-1 45 -3 65 -5 45 -4 -38 -15 -48
-29 -27 -3 6 -19 9 -35 5 -15 -3 -31 -1 -34 4 -8 13 -52 13 -60 0 -5 -8 -11
-7 -21 1 -8 6 -27 9 -44 5 -22 -4 -30 -2 -30 8 0 19 38 25 148 23 50 -1 92 1
92 6 0 4 -58 7 -130 7 l-130 0 0 -80z"/>
<path d="M660 80 l0 -80 140 0 140 0 -2 83 c-1 45 -3 65 -5 45 -4 -38 -15 -48
-29 -27 -3 6 -19 9 -35 5 -15 -3 -31 -1 -34 4 -8 13 -52 13 -60 0 -5 -8 -11
-7 -21 1 -8 6 -27 9 -44 5 -22 -4 -30 -2 -30 8 0 19 38 25 148 23 50 -1 92 1
92 6 0 4 -58 7 -130 7 l-130 0 0 -80z"/>
<path d="M270 115 c0 -3 2 -5 5 -5 3 0 5 2 5 5 0 3 -2 5 -5 5 -3 0 -5 -2 -5
-5z"/>
<path d="M590 115 c0 -3 2 -5 5 -5 3 0 5 2 5 5 0 3 -2 5 -5 5 -3 0 -5 -2 -5
-5z"/>
<path d="M910 115 c0 -3 2 -5 5 -5 3 0 5 2 5 5 0 3 -2 5 -5 5 -3 0 -5 -2 -5
-5z"/>
</g>
<g transform="translate(0.000000,96.000000) scale(0.100000,-0.100000)"
fill="#b85d27" stroke="none">
<path d="M20 760 c0 -42 8 -48 39 -29 13 9 26 9 50 1 18 -7 31 -7 31 -1 0 12
37 12 44 0 4 -5 -2 -7 -13 -4 -10 3 -22 0 -25 -5 -4 -7 -17 -7 -39 -1 -44 13
-79 -6 -75 -40 l3 -26 125 0 c121 0 125 1 128 22 4 27 -37 57 -63 47 -13 -5
-16 -4 -11 4 9 15 43 16 51 2 3 -5 13 -10 21 -10 10 0 14 11 12 43 l-1 42 -4
-37 c-4 -38 -15 -48 -29 -27 -3 6 -19 9 -35 5 -15 -3 -31 -1 -34 4 -8 13 -52
13 -60 0 -5 -8 -11 -7 -21 1 -8 6 -27 9 -44 5 -22 -4 -30 -2 -30 8 0 19 38 25
148 23 50 -1 92 1 92 6 0 4 -58 7 -130 7 l-130 0 0 -40z"/>
<path d="M340 760 c0 -42 8 -48 39 -29 13 9 26 9 50 1 18 -7 31 -7 31 -1 0 12
37 12 44 0 4 -5 -2 -7 -13 -4 -10 3 -22 0 -25 -5 -4 -7 -17 -7 -39 -1 -44 13
-79 -6 -75 -40 l3 -26 125 0 c121 0 125 1 128 22 4 27 -37 57 -63 47 -13 -5
-16 -4 -11 4 9 15 43 16 51 2 3 -5 13 -10 21 -10 10 0 14 11 12 43 l-1 42 -4
-37 c-4 -38 -15 -48 -29 -27 -3 6 -19 9 -35 5 -15 -3 -31 -1 -34 4 -8 13 -52
13 -60 0 -5 -8 -11 -7 -21 1 -8 6 -27 9 -44 5 -22 -4 -30 -2 -30 8 0 19 38 25
148 23 50 -1 92 1 92 6 0 4 -58 7 -130 7 l-130 0 0 -40z"/>
<path d="M660 760 c0 -42 8 -48 39 -29 13 9 26 9 50 1 18 -7 31 -7 31 -1 0 12
37 12 44 0 4 -5 -2 -7 -13 -4 -10 3 -22 0 -25 -5 -4 -7 -17 -7 -39 -1 -44 13
-79 -6 -75 -40 l3 -26 125 0 c121 0 125 1 128 22 4 27 -37 57 -63 47 -13 -5
-16 -4 -11 4 9 15 43 16 51 2 3 -5 13 -10 21 -10 10 0 14 11 12 43 l-1 42 -4
-37 c-4 -38 -15 -48 -29 -27 -3 6 -19 9 -35 5 -15 -3 -31 -1 -34 4 -8 13 -52
13 -60 0 -5 -8 -11 -7 -21 1 -8 6 -27 9 -44 5 -22 -4 -30 -2 -30 8 0 19 38 25
148 23 50 -1 92 1 92 6 0 4 -58 7 -130 7 l-130 0 0 -40z"/>
<path d="M270 755 c0 -3 2 -5 5 -5 3 0 5 2 5 5 0 3 -2 5 -5 5 -3 0 -5 -2 -5
-5z"/>
<path d="M590 755 c0 -3 2 -5 5 -5 3 0 5 2 5 5 0 3 -2 5 -5 5 -3 0 -5 -2 -5
-5z"/>
<path d="M910 755 c0 -3 2 -5 5 -5 3 0 5 2 5 5 0 3 -2 5 -5 5 -3 0 -5 -2 -5
-5z"/>
<path d="M20 440 c0 -42 8 -48 39 -29 13 9 26 9 50 1 18 -7 31 -7 31 -1 0 12
37 12 44 0 4 -5 -2 -7 -13 -4 -10 3 -22 0 -25 -5 -4 -7 -17 -7 -39 -1 -44 13
-79 -6 -75 -40 l3 -26 125 0 c121 0 125 1 128 22 4 27 -37 57 -63 47 -13 -5
-16 -4 -11 4 9 15 43 16 51 2 3 -5 13 -10 21 -10 10 0 14 11 12 43 l-1 42 -4
-37 c-4 -38 -15 -48 -29 -27 -3 6 -19 9 -35 5 -15 -3 -31 -1 -34 4 -8 13 -52
13 -60 0 -5 -8 -11 -7 -21 1 -8 6 -27 9 -44 5 -22 -4 -30 -2 -30 8 0 19 38 25
148 23 50 -1 92 1 92 6 0 4 -58 7 -130 7 l-130 0 0 -40z"/>
<path d="M340 440 c0 -42 8 -48 39 -29 13 9 26 9 50 1 18 -7 31 -7 31 -1 0 12
37 12 44 0 4 -5 -2 -7 -13 -4 -10 3 -22 0 -25 -5 -4 -7 -17 -7 -39 -1 -44 13
-79 -6 -75 -40 l3 -26 125 0 c121 0 125 1 128 22 4 27 -37 57 -63 47 -13 -5
-16 -4 -11 4 9 15 43 16 51 2 3 -5 13 -10 21 -10 10 0 14 11 12 43 l-1 42 -4
-37 c-4 -38 -15 -48 -29 -27 -3 6 -19 9 -35 5 -15 -3 -31 -1 -34 4 -8 13 -52
13 -60 0 -5 -8 -11 -7 -21 1 -8 6 -27 9 -44 5 -22 -4 -30 -2 -30 8 0 19 38 25
148 23 50 -1 92 1 92 6 0 4 -58 7 -130 7 l-130 0 0 -40z"/>
<path d="M660 440 c0 -42 8 -48 39 -29 13 9 26 9 50 1 18 -7 31 -7 31 -1 0 12
37 12 44 0 4 -5 -2 -7 -13 -4 -10 3 -22 0 -25 -5 -4 -7 -17 -7 -39 -1 -44 13
-79 -6 -75 -40 l3 -26 125 0 c121 0 125 1 128 22 4 27 -37 57 -63 47 -13 -5
-16 -4 -11 4 9 15 43 16 51 2 3 -5 13 -10 21 -10 10 0 14 11 12 43 l-1 42 -4
-37 c-4 -38 -15 -48 -29 -27 -3 6 -19 9 -35 5 -15 -3 -31 -1 -34 4 -8 13 -52
13 -60 0 -5 -8 -11 -7 -21 1 -8 6 -27 9 -44 5 -22 -4 -30 -2 -30 8 0 19 38 25
148 23 50 -1 92 1 92 6 0 4 -58 7 -130 7 l-130 0 0 -40z"/>
<path d="M270 435 c0 -3 2 -5 5 -5 3 0 5 2 5 5 0 3 -2 5 -5 5 -3 0 -5 -2 -5
-5z"/>
<path d="M590 435 c0 -3 2 -5 5 -5 3 0 5 2 5 5 0 3 -2 5 -5 5 -3 0 -5 -2 -5
-5z"/>
<path d="M910 435 c0 -3 2 -5 5 -5 3 0 5 2 5 5 0 3 -2 5 -5 5 -3 0 -5 -2 -5
-5z"/>
<path d="M20 120 c0 -42 8 -48 39 -29 13 9 26 9 50 1 18 -7 31 -7 31 -1 0 12
37 12 44 0 4 -5 -2 -7 -13 -4 -10 3 -22 0 -25 -5 -4 -7 -17 -7 -39 -1 -44 13
-79 -6 -75 -40 l3 -26 125 0 c121 0 125 1 128 22 4 27 -37 57 -63 47 -13 -5
-16 -4 -11 4 9 15 43 16 51 2 3 -5 13 -10 21 -10 10 0 14 11 12 43 l-1 42 -4
-37 c-4 -38 -15 -48 -29 -27 -3 6 -19 9 -35 5 -15 -3 -31 -1 -34 4 -8 13 -52
13 -60 0 -5 -8 -11 -7 -21 1 -8 6 -27 9 -44 5 -22 -4 -30 -2 -30 8 0 19 38 25
148 23 50 -1 92 1 92 6 0 4 -58 7 -130 7 l-130 0 0 -40z"/>
<path d="M340 120 c0 -42 8 -48 39 -29 13 9 26 9 50 1 18 -7 31 -7 31 -1 0 12
37 12 44 0 4 -5 -2 -7 -13 -4 -10 3 -22 0 -25 -5 -4 -7 -17 -7 -39 -1 -44 13
-79 -6 -75 -40 l3 -26 125 0 c121 0 125 1 128 22 4 27 -37 57 -63 47 -13 -5
-16 -4 -11 4 9 15 43 16 51 2 3 -5 13 -10 21 -10 10 0 14 11 12 43 l-1 42 -4
-37 c-4 -38 -15 -48 -29 -27 -3 6 -19 9 -35 5 -15 -3 -31 -1 -34 4 -8 13 -52
13 -60 0 -5 -8 -11 -7 -21 1 -8 6 -27 9 -44 5 -22 -4 -30 -2 -30 8 0 19 38 25
148 23 50 -1 92 1 92 6 0 4 -58 7 -130 7 l-130 0 0 -40z"/>
<path d="M660 120 c0 -42 8 -48 39 -29 13 9 26 9 50 1 18 -7 31 -7 31 -1 0 12
37 12 44 0 4 -5 -2 -7 -13 -4 -10 3 -22 0 -25 -5 -4 -7 -17 -7 -39 -1 -44 13
-79 -6 -75 -40 l3 -26 125 0 c121 0 125 1 128 22 4 27 -37 57 -63 47 -13 -5
-16 -4 -11 4 9 15 43 16 51 2 3 -5 13 -10 21 -10 10 0 14 11 12 43 l-1 42 -4
-37 c-4 -38 -15 -48 -29 -27 -3 6 -19 9 -35 5 -15 -3 -31 -1 -34 4 -8 13 -52
13 -60 0 -5 -8 -11 -7 -21 1 -8 6 -27 9 -44 5 -22 -4 -30 -2 -30 8 0 19 38 25
148 23 50 -1 92 1 92 6 0 4 -58 7 -130 7 l-130 0 0 -40z"/>
<path d="M270 115 c0 -3 2 -5 5 -5 3 0 5 2 5 5 0 3 -2 5 -5 5 -3 0 -5 -2 -5
-5z"/>
<path d="M590 115 c0 -3 2 -5 5 -5 3 0 5 2 5 5 0 3 -2 5 -5 5 -3 0 -5 -2 -5
-5z"/>
<path d="M910 115 c0 -3 2 -5 5 -5 3 0 5 2 5 5 0 3 -2 5 -5 5 -3 0 -5 -2 -5
-5z"/>
</g>
<g transform="translate(0.000000,96.000000) scale(0.100000,-0.100000)"
fill="#dfdfdf" stroke="none">
<path d="M20 760 c0 -42 8 -48 39 -29 13 9 26 9 50 1 18 -7 31 -7 31 -1 0 12
37 12 44 0 4 -5 -2 -7 -13 -4 -10 3 -22 0 -25 -5 -4 -7 -17 -7 -39 -1 -44 13
-79 -6 -75 -40 l3 -26 123 -3 c107 -2 123 0 129 14 3 9 1 25 -6 35 -9 15 -8
19 4 19 11 0 15 11 13 43 l-1 42 -4 -37 c-4 -38 -15 -48 -29 -27 -3 6 -19 9
-35 5 -15 -3 -31 -1 -34 4 -8 13 -52 13 -60 0 -5 -8 -11 -7 -21 1 -8 6 -27 9
-44 5 -22 -4 -30 -2 -30 8 0 19 38 25 148 23 50 -1 92 1 92 6 0 4 -58 7 -130
7 l-130 0 0 -40z m244 -28 c3 -5 -8 -9 -24 -9 -16 0 -27 4 -24 9 3 4 14 8 24
8 10 0 21 -4 24 -8z m-139 -43 c-5 9 -4 12 3 7 6 -3 13 -2 17 3 7 12 44 6 59
-9 5 -5 15 -10 20 -10 6 0 4 5 -4 10 -8 5 -10 10 -5 11 6 0 18 2 28 4 9 2 17
-3 17 -10 0 -7 6 -15 13 -18 6 -2 8 -8 4 -13 -5 -5 -13 -1 -19 9 -8 16 -12 17
-26 4 -21 -17 -62 -20 -79 -5 -8 7 -13 7 -13 0 0 -5 -23 -10 -50 -9 -40 0 -50
3 -48 16 5 23 50 31 72 12 14 -11 17 -12 11 -2z"/>
<path d="M90 695 c0 -3 2 -5 5 -5 3 0 5 2 5 5 0 3 -2 5 -5 5 -3 0 -5 -2 -5 -5z"/>
<path d="M53 683 c4 -3 10 -3 14 0 3 4 0 7 -7 7 -7 0 -10 -3 -7 -7z"/>
<path d="M160 685 c0 -3 2 -5 5 -5 3 0 5 2 5 5 0 3 -2 5 -5 5 -3 0 -5 -2 -5
-5z"/>
<path d="M180 685 c0 -3 2 -5 5 -5 3 0 5 2 5 5 0 3 -2 5 -5 5 -3 0 -5 -2 -5
-5z"/>
<path d="M80 675 c0 -3 2 -5 5 -5 3 0 5 2 5 5 0 3 -2 5 -5 5 -3 0 -5 -2 -5 -5z"/>
<path d="M340 760 c0 -42 8 -48 39 -29 13 9 26 9 50 1 18 -7 31 -7 31 -1 0 12
37 12 44 0 4 -5 -2 -7 -13 -4 -10 3 -22 0 -25 -5 -4 -7 -17 -7 -39 -1 -44 13
-79 -6 -75 -40 l3 -26 123 -3 c107 -2 123 0 129 14 3 9 1 25 -6 35 -9 15 -8
19 4 19 11 0 15 11 13 43 l-1 42 -4 -37 c-4 -38 -15 -48 -29 -27 -3 6 -19 9
-35 5 -15 -3 -31 -1 -34 4 -8 13 -52 13 -60 0 -5 -8 -11 -7 -21 1 -8 6 -27 9
-44 5 -22 -4 -30 -2 -30 8 0 19 38 25 148 23 50 -1 92 1 92 6 0 4 -58 7 -130
7 l-130 0 0 -40z m244 -28 c3 -5 -8 -9 -24 -9 -16 0 -27 4 -24 9 3 4 14 8 24
8 10 0 21 -4 24 -8z m-139 -43 c-5 9 -4 12 3 7 6 -3 13 -2 17 3 7 12 44 6 59
-9 5 -5 15 -10 20 -10 6 0 4 5 -4 10 -8 5 -10 10 -5 11 6 0 18 2 28 4 9 2 17
-3 17 -10 0 -7 6 -15 13 -18 6 -2 8 -8 4 -13 -5 -5 -13 -1 -19 9 -8 16 -12 17
-26 4 -21 -17 -62 -20 -79 -5 -8 7 -13 7 -13 0 0 -5 -23 -10 -50 -9 -40 0 -50
3 -48 16 5 23 50 31 72 12 14 -11 17 -12 11 -2z"/>
<path d="M410 695 c0 -3 2 -5 5 -5 3 0 5 2 5 5 0 3 -2 5 -5 5 -3 0 -5 -2 -5
-5z"/>
<path d="M373 683 c4 -3 10 -3 14 0 3 4 0 7 -7 7 -7 0 -10 -3 -7 -7z"/>
<path d="M480 685 c0 -3 2 -5 5 -5 3 0 5 2 5 5 0 3 -2 5 -5 5 -3 0 -5 -2 -5
-5z"/>
<path d="M500 685 c0 -3 2 -5 5 -5 3 0 5 2 5 5 0 3 -2 5 -5 5 -3 0 -5 -2 -5
-5z"/>
<path d="M400 675 c0 -3 2 -5 5 -5 3 0 5 2 5 5 0 3 -2 5 -5 5 -3 0 -5 -2 -5
-5z"/>
<path d="M660 760 c0 -42 8 -48 39 -29 13 9 26 9 50 1 18 -7 31 -7 31 -1 0 12
37 12 44 0 4 -5 -2 -7 -13 -4 -10 3 -22 0 -25 -5 -4 -7 -17 -7 -39 -1 -44 13
-79 -6 -75 -40 l3 -26 123 -3 c107 -2 123 0 129 14 3 9 1 25 -6 35 -9 15 -8
19 4 19 11 0 15 11 13 43 l-1 42 -4 -37 c-4 -38 -15 -48 -29 -27 -3 6 -19 9
-35 5 -15 -3 -31 -1 -34 4 -8 13 -52 13 -60 0 -5 -8 -11 -7 -21 1 -8 6 -27 9
-44 5 -22 -4 -30 -2 -30 8 0 19 38 25 148 23 50 -1 92 1 92 6 0 4 -58 7 -130
7 l-130 0 0 -40z m244 -28 c3 -5 -8 -9 -24 -9 -16 0 -27 4 -24 9 3 4 14 8 24
8 10 0 21 -4 24 -8z m-139 -43 c-5 9 -4 12 3 7 6 -3 13 -2 17 3 7 12 44 6 59
-9 5 -5 15 -10 20 -10 6 0 4 5 -4 10 -8 5 -10 10 -5 11 6 0 18 2 28 4 9 2 17
-3 17 -10 0 -7 6 -15 13 -18 6 -2 8 -8 4 -13 -5 -5 -13 -1 -19 9 -8 16 -12 17
-26 4 -21 -17 -62 -20 -79 -5 -8 7 -13 7 -13 0 0 -5 -23 -10 -50 -9 -40 0 -50
3 -48 16 5 23 50 31 72 12 14 -11 17 -12 11 -2z"/>
<path d="M730 695 c0 -3 2 -5 5 -5 3 0 5 2 5 5 0 3 -2 5 -5 5 -3 0 -5 -2 -5
-5z"/>
<path d="M693 683 c4 -3 10 -3 14 0 3 4 0 7 -7 7 -7 0 -10 -3 -7 -7z"/>
<path d="M800 685 c0 -3 2 -5 5 -5 3 0 5 2 5 5 0 3 -2 5 -5 5 -3 0 -5 -2 -5
-5z"/>
<path d="M820 685 c0 -3 2 -5 5 -5 3 0 5 2 5 5 0 3 -2 5 -5 5 -3 0 -5 -2 -5
-5z"/>
<path d="M720 675 c0 -3 2 -5 5 -5 3 0 5 2 5 5 0 3 -2 5 -5 5 -3 0 -5 -2 -5
-5z"/>
<path d="M270 755 c0 -3 2 -5 5 -5 3 0 5 2 5 5 0 3 -2 5 -5 5 -3 0 -5 -2 -5
-5z"/>
<path d="M590 755 c0 -3 2 -5 5 -5 3 0 5 2 5 5 0 3 -2 5 -5 5 -3 0 -5 -2 -5
-5z"/>
<path d="M910 755 c0 -3 2 -5 5 -5 3 0 5 2 5 5 0 3 -2 5 -5 5 -3 0 -5 -2 -5
-5z"/>
<path d="M20 440 c0 -42 8 -48 39 -29 13 9 26 9 50 1 18 -7 31 -7 31 -1 0 12
37 12 44 0 4 -5 -2 -7 -13 -4 -10 3 -22 0 -25 -5 -4 -7 -17 -7 -39 -1 -44 13
-79 -6 -75 -40 l3 -26 123 -3 c107 -2 123 0 129 14 3 9 1 25 -6 35 -9 15 -8
19 4 19 11 0 15 11 13 43 l-1 42 -4 -37 c-4 -38 -15 -48 -29 -27 -3 6 -19 9
-35 5 -15 -3 -31 -1 -34 4 -8 13 -52 13 -60 0 -5 -8 -11 -7 -21 1 -8 6 -27 9
-44 5 -22 -4 -30 -2 -30 8 0 19 38 25 148 23 50 -1 92 1 92 6 0 4 -58 7 -130
7 l-130 0 0 -40z m244 -28 c3 -5 -8 -9 -24 -9 -16 0 -27 4 -24 9 3 4 14 8 24
8 10 0 21 -4 24 -8z m-139 -43 c-5 9 -4 12 3 7 6 -3 13 -2 17 3 7 12 44 6 59
-9 5 -5 15 -10 20 -10 6 0 4 5 -4 10 -8 5 -10 10 -5 11 6 0 18 2 28 4 9 2 17
-3 17 -10 0 -7 6 -15 13 -18 6 -2 8 -8 4 -13 -5 -5 -13 -1 -19 9 -8 16 -12 17
-26 4 -21 -17 -62 -20 -79 -5 -8 7 -13 7 -13 0 0 -5 -23 -10 -50 -9 -40 0 -50
3 -48 16 5 23 50 31 72 12 14 -11 17 -12 11 -2z"/>
<path d="M90 375 c0 -3 2 -5 5 -5 3 0 5 2 5 5 0 3 -2 5 -5 5 -3 0 -5 -2 -5 -5z"/>
<path d="M53 363 c4 -3 10 -3 14 0 3 4 0 7 -7 7 -7 0 -10 -3 -7 -7z"/>
<path d="M160 365 c0 -3 2 -5 5 -5 3 0 5 2 5 5 0 3 -2 5 -5 5 -3 0 -5 -2 -5
-5z"/>
<path d="M180 365 c0 -3 2 -5 5 -5 3 0 5 2 5 5 0 3 -2 5 -5 5 -3 0 -5 -2 -5
-5z"/>
<path d="M80 355 c0 -3 2 -5 5 -5 3 0 5 2 5 5 0 3 -2 5 -5 5 -3 0 -5 -2 -5 -5z"/>
<path d="M340 440 c0 -42 8 -48 39 -29 13 9 26 9 50 1 18 -7 31 -7 31 -1 0 12
37 12 44 0 4 -5 -2 -7 -13 -4 -10 3 -22 0 -25 -5 -4 -7 -17 -7 -39 -1 -44 13
-79 -6 -75 -40 l3 -26 123 -3 c107 -2 123 0 129 14 3 9 1 25 -6 35 -9 15 -8
19 4 19 11 0 15 11 13 43 l-1 42 -4 -37 c-4 -38 -15 -48 -29 -27 -3 6 -19 9
-35 5 -15 -3 -31 -1 -34 4 -8 13 -52 13 -60 0 -5 -8 -11 -7 -21 1 -8 6 -27 9
-44 5 -22 -4 -30 -2 -30 8 0 19 38 25 148 23 50 -1 92 1 92 6 0 4 -58 7 -130
7 l-130 0 0 -40z m244 -28 c3 -5 -8 -9 -24 -9 -16 0 -27 4 -24 9 3 4 14 8 24
8 10 0 21 -4 24 -8z m-139 -43 c-5 9 -4 12 3 7 6 -3 13 -2 17 3 7 12 44 6 59
-9 5 -5 15 -10 20 -10 6 0 4 5 -4 10 -8 5 -10 10 -5 11 6 0 18 2 28 4 9 2 17
-3 17 -10 0 -7 6 -15 13 -18 6 -2 8 -8 4 -13 -5 -5 -13 -1 -19 9 -8 16 -12 17
-26 4 -21 -17 -62 -20 -79 -5 -8 7 -13 7 -13 0 0 -5 -23 -10 -50 -9 -40 0 -50
3 -48 16 5 23 50 31 72 12 14 -11 17 -12 11 -2z"/>
<path d="M410 375 c0 -3 2 -5 5 -5 3 0 5 2 5 5 0 3 -2 5 -5 5 -3 0 -5 -2 -5
-5z"/>
<path d="M373 363 c4 -3 10 -3 14 0 3 4 0 7 -7 7 -7 0 -10 -3 -7 -7z"/>
<path d="M480 365 c0 -3 2 -5 5 -5 3 0 5 2 5 5 0 3 -2 5 -5 5 -3 0 -5 -2 -5
-5z"/>
<path d="M500 365 c0 -3 2 -5 5 -5 3 0 5 2 5 5 0 3 -2 5 -5 5 -3 0 -5 -2 -5
-5z"/>
<path d="M400 355 c0 -3 2 -5 5 -5 3 0 5 2 5 5 0 3 -2 5 -5 5 -3 0 -5 -2 -5
-5z"/>
<path d="M660 440 c0 -42 8 -48 39 -29 13 9 26 9 50 1 18 -7 31 -7 31 -1 0 12
37 12 44 0 4 -5 -2 -7 -13 -4 -10 3 -22 0 -25 -5 -4 -7 -17 -7 -39 -1 -44 13
-79 -6 -75 -40 l3 -26 123 -3 c107 -2 123 0 129 14 3 9 1 25 -6 35 -9 15 -8
19 4 19 11 0 15 11 13 43 l-1 42 -4 -37 c-4 -38 -15 -48 -29 -27 -3 6 -19 9
-35 5 -15 -3 -31 -1 -34 4 -8 13 -52 13 -60 0 -5 -8 -11 -7 -21 1 -8 6 -27 9
-44 5 -22 -4 -30 -2 -30 8 0 19 38 25 148 23 50 -1 92 1 92 6 0 4 -58 7 -130
7 l-130 0 0 -40z m244 -28 c3 -5 -8 -9 -24 -9 -16 0 -27 4 -24 9 3 4 14 8 24
8 10 0 21 -4 24 -8z m-139 -43 c-5 9 -4 12 3 7 6 -3 13 -2 17 3 7 12 44 6 59
-9 5 -5 15 -10 20 -10 6 0 4 5 -4 10 -8 5 -10 10 -5 11 6 0 18 2 28 4 9 2 17
-3 17 -10 0 -7 6 -15 13 -18 6 -2 8 -8 4 -13 -5 -5 -13 -1 -19 9 -8 16 -12 17
-26 4 -21 -17 -62 -20 -79 -5 -8 7 -13 7 -13 0 0 -5 -23 -10 -50 -9 -40 0 -50
3 -48 16 5 23 50 31 72 12 14 -11 17 -12 11 -2z"/>
<path d="M730 375 c0 -3 2 -5 5 -5 3 0 5 2 5 5 0 3 -2 5 -5 5 -3 0 -5 -2 -5
-5z"/>
<path d="M693 363 c4 -3 10 -3 14 0 3 4 0 7 -7 7 -7 0 -10 -3 -7 -7z"/>
<path d="M800 365 c0 -3 2 -5 5 -5 3 0 5 2 5 5 0 3 -2 5 -5 5 -3 0 -5 -2 -5
-5z"/>
<path d="M820 365 c0 -3 2 -5 5 -5 3 0 5 2 5 5 0 3 -2 5 -5 5 -3 0 -5 -2 -5
-5z"/>
<path d="M720 355 c0 -3 2 -5 5 -5 3 0 5 2 5 5 0 3 -2 5 -5 5 -3 0 -5 -2 -5
-5z"/>
<path d="M270 435 c0 -3 2 -5 5 -5 3 0 5 2 5 5 0 3 -2 5 -5 5 -3 0 -5 -2 -5
-5z"/>
<path d="M590 435 c0 -3 2 -5 5 -5 3 0 5 2 5 5 0 3 -2 5 -5 5 -3 0 -5 -2 -5
-5z"/>
<path d="M910 435 c0 -3 2 -5 5 -5 3 0 5 2 5 5 0 3 -2 5 -5 5 -3 0 -5 -2 -5
-5z"/>
<path d="M20 120 c0 -42 8 -48 39 -29 13 9 26 9 50 1 18 -7 31 -7 31 -1 0 12
37 12 44 0 4 -5 -2 -7 -13 -4 -10 3 -22 0 -25 -5 -4 -7 -17 -7 -39 -1 -44 13
-79 -6 -75 -40 l3 -26 123 -3 c107 -2 123 0 129 14 3 9 1 25 -6 35 -9 15 -8
19 4 19 11 0 15 11 13 43 l-1 42 -4 -37 c-4 -38 -15 -48 -29 -27 -3 6 -19 9
-35 5 -15 -3 -31 -1 -34 4 -8 13 -52 13 -60 0 -5 -8 -11 -7 -21 1 -8 6 -27 9
-44 5 -22 -4 -30 -2 -30 8 0 19 38 25 148 23 50 -1 92 1 92 6 0 4 -58 7 -130
7 l-130 0 0 -40z m244 -28 c3 -5 -8 -9 -24 -9 -16 0 -27 4 -24 9 7 10 41 10
48 0z m-139 -43 c-5 9 -4 12 3 7 6 -3 13 -2 17 3 7 12 44 6 59 -9 5 -5 15 -10
20 -10 6 0 4 5 -4 10 -8 5 -10 10 -5 11 6 0 18 2 28 4 9 2 17 -3 17 -10 0 -7
6 -15 13 -18 6 -2 8 -8 4 -13 -5 -5 -13 -1 -19 9 -8 16 -12 17 -26 4 -21 -17
-62 -20 -79 -5 -8 7 -13 7 -13 0 0 -5 -23 -10 -50 -9 -40 0 -50 3 -48 16 5 23
50 31 72 12 14 -11 17 -12 11 -2z"/>
<path d="M90 55 c0 -3 2 -5 5 -5 3 0 5 2 5 5 0 3 -2 5 -5 5 -3 0 -5 -2 -5 -5z"/>
<path d="M53 43 c4 -3 10 -3 14 0 3 4 0 7 -7 7 -7 0 -10 -3 -7 -7z"/>
<path d="M160 45 c0 -3 2 -5 5 -5 3 0 5 2 5 5 0 3 -2 5 -5 5 -3 0 -5 -2 -5 -5z"/>
<path d="M180 45 c0 -3 2 -5 5 -5 3 0 5 2 5 5 0 3 -2 5 -5 5 -3 0 -5 -2 -5 -5z"/>
<path d="M80 35 c0 -3 2 -5 5 -5 3 0 5 2 5 5 0 3 -2 5 -5 5 -3 0 -5 -2 -5 -5z"/>
<path d="M340 120 c0 -42 8 -48 39 -29 13 9 26 9 50 1 18 -7 31 -7 31 -1 0 12
37 12 44 0 4 -5 -2 -7 -13 -4 -10 3 -22 0 -25 -5 -4 -7 -17 -7 -39 -1 -44 13
-79 -6 -75 -40 l3 -26 123 -3 c107 -2 123 0 129 14 3 9 1 25 -6 35 -9 15 -8
19 4 19 11 0 15 11 13 43 l-1 42 -4 -37 c-4 -38 -15 -48 -29 -27 -3 6 -19 9
-35 5 -15 -3 -31 -1 -34 4 -8 13 -52 13 -60 0 -5 -8 -11 -7 -21 1 -8 6 -27 9
-44 5 -22 -4 -30 -2 -30 8 0 19 38 25 148 23 50 -1 92 1 92 6 0 4 -58 7 -130
7 l-130 0 0 -40z m244 -28 c3 -5 -8 -9 -24 -9 -16 0 -27 4 -24 9 7 10 41 10
48 0z m-139 -43 c-5 9 -4 12 3 7 6 -3 13 -2 17 3 7 12 44 6 59 -9 5 -5 15 -10
20 -10 6 0 4 5 -4 10 -8 5 -10 10 -5 11 6 0 18 2 28 4 9 2 17 -3 17 -10 0 -7
6 -15 13 -18 6 -2 8 -8 4 -13 -5 -5 -13 -1 -19 9 -8 16 -12 17 -26 4 -21 -17
-62 -20 -79 -5 -8 7 -13 7 -13 0 0 -5 -23 -10 -50 -9 -40 0 -50 3 -48 16 5 23
50 31 72 12 14 -11 17 -12 11 -2z"/>
<path d="M410 55 c0 -3 2 -5 5 -5 3 0 5 2 5 5 0 3 -2 5 -5 5 -3 0 -5 -2 -5 -5z"/>
<path d="M373 43 c4 -3 10 -3 14 0 3 4 0 7 -7 7 -7 0 -10 -3 -7 -7z"/>
<path d="M480 45 c0 -3 2 -5 5 -5 3 0 5 2 5 5 0 3 -2 5 -5 5 -3 0 -5 -2 -5 -5z"/>
<path d="M500 45 c0 -3 2 -5 5 -5 3 0 5 2 5 5 0 3 -2 5 -5 5 -3 0 -5 -2 -5 -5z"/>
<path d="M400 35 c0 -3 2 -5 5 -5 3 0 5 2 5 5 0 3 -2 5 -5 5 -3 0 -5 -2 -5 -5z"/>
<path d="M660 120 c0 -42 8 -48 39 -29 13 9 26 9 50 1 18 -7 31 -7 31 -1 0 12
37 12 44 0 4 -5 -2 -7 -13 -4 -10 3 -22 0 -25 -5 -4 -7 -17 -7 -39 -1 -44 13
-79 -6 -75 -40 l3 -26 123 -3 c107 -2 123 0 129 14 3 9 1 25 -6 35 -9 15 -8
19 4 19 11 0 15 11 13 43 l-1 42 -4 -37 c-4 -38 -15 -48 -29 -27 -3 6 -19 9
-35 5 -15 -3 -31 -1 -34 4 -8 13 -52 13 -60 0 -5 -8 -11 -7 -21 1 -8 6 -27 9
-44 5 -22 -4 -30 -2 -30 8 0 19 38 25 148 23 50 -1 92 1 92 6 0 4 -58 7 -130
7 l-130 0 0 -40z m244 -28 c3 -5 -8 -9 -24 -9 -16 0 -27 4 -24 9 7 10 41 10
48 0z m-139 -43 c-5 9 -4 12 3 7 6 -3 13 -2 17 3 7 12 44 6 59 -9 5 -5 15 -10
20 -10 6 0 4 5 -4 10 -8 5 -10 10 -5 11 6 0 18 2 28 4 9 2 17 -3 17 -10 0 -7
6 -15 13 -18 6 -2 8 -8 4 -13 -5 -5 -13 -1 -19 9 -8 16 -12 17 -26 4 -21 -17
-62 -20 -79 -5 -8 7 -13 7 -13 0 0 -5 -23 -10 -50 -9 -40 0 -50 3 -48 16 5 23
50 31 72 12 14 -11 17 -12 11 -2z"/>
<path d="M730 55 c0 -3 2 -5 5 -5 3 0 5 2 5 5 0 3 -2 5 -5 5 -3 0 -5 -2 -5 -5z"/>
<path d="M693 43 c4 -3 10 -3 14 0 3 4 0 7 -7 7 -7 0 -10 -3 -7 -7z"/>
<path d="M800 45 c0 -3 2 -5 5 -5 3 0 5 2 5 5 0 3 -2 5 -5 5 -3 0 -5 -2 -5 -5z"/>
<path d="M820 45 c0 -3 2 -5 5 -5 3 0 5 2 5 5 0 3 -2 5 -5 5 -3 0 -5 -2 -5 -5z"/>
<path d="M720 35 c0 -3 2 -5 5 -5 3 0 5 2 5 5 0 3 -2 5 -5 5 -3 0 -5 -2 -5 -5z"/>
<path d="M270 115 c0 -3 2 -5 5 -5 3 0 5 2 5 5 0 3 -2 5 -5 5 -3 0 -5 -2 -5
-5z"/>
<path d="M590 115 c0 -3 2 -5 5 -5 3 0 5 2 5 5 0 3 -2 5 -5 5 -3 0 -5 -2 -5
-5z"/>
<path d="M910 115 c0 -3 2 -5 5 -5 3 0 5 2 5 5 0 3 -2 5 -5 5 -3 0 -5 -2 -5
-5z"/>
</g>
<g transform="translate(0.000000,96.000000) scale(0.100000,-0.100000)"
fill="#a75320" stroke="none">
<path d="M22 763 c-2 -45 6 -51 37 -32 13 9 26 9 50 1 22 -8 31 -8 31 0 0 6
11 8 25 6 13 -3 22 -2 20 2 -6 10 -126 7 -142 -3 -8 -5 -13 4 -16 30 l-4 38
-1 -42z"/>
<path d="M290 765 c0 -39 -2 -40 -30 -23 -15 10 -24 9 -46 -2 -15 -8 -35 -14
-45 -12 -9 2 -20 -1 -23 -7 -4 -6 -18 -6 -39 0 -44 13 -79 -6 -75 -40 l3 -26
123 -3 c107 -2 123 0 129 14 3 9 1 25 -6 35 -9 15 -8 19 4 19 11 0 15 11 15
40 0 22 -2 40 -5 40 -3 0 -5 -16 -5 -35z m-26 -33 c3 -5 -8 -9 -24 -9 -16 0
-27 4 -24 9 3 4 14 8 24 8 10 0 21 -4 24 -8z m-139 -43 c-5 9 -4 12 3 7 6 -3
13 -2 17 3 7 12 44 6 59 -9 5 -5 15 -10 20 -10 6 0 4 5 -4 10 -8 5 -10 10 -5
11 6 0 18 2 28 4 9 2 17 -3 17 -10 0 -7 6 -15 13 -18 6 -2 8 -8 4 -13 -5 -5
-13 -1 -19 9 -8 16 -12 17 -26 4 -21 -17 -62 -20 -79 -5 -8 7 -13 7 -13 0 0
-5 -23 -10 -50 -9 -40 0 -50 3 -48 16 5 23 50 31 72 12 14 -11 17 -12 11 -2z"/>
<path d="M90 695 c0 -3 2 -5 5 -5 3 0 5 2 5 5 0 3 -2 5 -5 5 -3 0 -5 -2 -5 -5z"/>
<path d="M53 683 c4 -3 10 -3 14 0 3 4 0 7 -7 7 -7 0 -10 -3 -7 -7z"/>
<path d="M160 685 c0 -3 2 -5 5 -5 3 0 5 2 5 5 0 3 -2 5 -5 5 -3 0 -5 -2 -5
-5z"/>
<path d="M180 685 c0 -3 2 -5 5 -5 3 0 5 2 5 5 0 3 -2 5 -5 5 -3 0 -5 -2 -5
-5z"/>
<path d="M80 675 c0 -3 2 -5 5 -5 3 0 5 2 5 5 0 3 -2 5 -5 5 -3 0 -5 -2 -5 -5z"/>
<path d="M342 763 c-2 -45 6 -51 37 -32 13 9 26 9 50 1 22 -8 31 -8 31 0 0 6
11 8 25 6 13 -3 22 -2 20 2 -6 10 -126 7 -142 -3 -8 -5 -13 4 -16 30 l-4 38
-1 -42z"/>
<path d="M610 765 c0 -39 -2 -40 -30 -23 -15 10 -24 9 -46 -2 -15 -8 -35 -14
-45 -12 -9 2 -20 -1 -23 -7 -4 -6 -18 -6 -39 0 -44 13 -79 -6 -75 -40 l3 -26
123 -3 c107 -2 123 0 129 14 3 9 1 25 -6 35 -9 15 -8 19 4 19 11 0 15 11 15
40 0 22 -2 40 -5 40 -3 0 -5 -16 -5 -35z m-26 -33 c3 -5 -8 -9 -24 -9 -16 0
-27 4 -24 9 3 4 14 8 24 8 10 0 21 -4 24 -8z m-139 -43 c-5 9 -4 12 3 7 6 -3
13 -2 17 3 7 12 44 6 59 -9 5 -5 15 -10 20 -10 6 0 4 5 -4 10 -8 5 -10 10 -5
11 6 0 18 2 28 4 9 2 17 -3 17 -10 0 -7 6 -15 13 -18 6 -2 8 -8 4 -13 -5 -5
-13 -1 -19 9 -8 16 -12 17 -26 4 -21 -17 -62 -20 -79 -5 -8 7 -13 7 -13 0 0
-5 -23 -10 -50 -9 -40 0 -50 3 -48 16 5 23 50 31 72 12 14 -11 17 -12 11 -2z"/>
<path d="M410 695 c0 -3 2 -5 5 -5 3 0 5 2 5 5 0 3 -2 5 -5 5 -3 0 -5 -2 -5
-5z"/>
<path d="M373 683 c4 -3 10 -3 14 0 3 4 0 7 -7 7 -7 0 -10 -3 -7 -7z"/>
<path d="M480 685 c0 -3 2 -5 5 -5 3 0 5 2 5 5 0 3 -2 5 -5 5 -3 0 -5 -2 -5
-5z"/>
<path d="M500 685 c0 -3 2 -5 5 -5 3 0 5 2 5 5 0 3 -2 5 -5 5 -3 0 -5 -2 -5
-5z"/>
<path d="M400 675 c0 -3 2 -5 5 -5 3 0 5 2 5 5 0 3 -2 5 -5 5 -3 0 -5 -2 -5
-5z"/>
<path d="M662 763 c-2 -45 6 -51 37 -32 13 9 26 9 50 1 22 -8 31 -8 31 0 0 6
11 8 25 6 13 -3 22 -2 20 2 -6 10 -126 7 -142 -3 -8 -5 -13 4 -16 30 l-4 38
-1 -42z"/>
<path d="M930 765 c0 -39 -2 -40 -30 -23 -15 10 -24 9 -46 -2 -15 -8 -35 -14
-45 -12 -9 2 -20 -1 -23 -7 -4 -6 -18 -6 -39 0 -44 13 -79 -6 -75 -40 l3 -26
123 -3 c107 -2 123 0 129 14 3 9 1 25 -6 35 -9 15 -8 19 4 19 11 0 15 11 15
40 0 22 -2 40 -5 40 -3 0 -5 -16 -5 -35z m-26 -33 c3 -5 -8 -9 -24 -9 -16 0
-27 4 -24 9 3 4 14 8 24 8 10 0 21 -4 24 -8z m-139 -43 c-5 9 -4 12 3 7 6 -3
13 -2 17 3 7 12 44 6 59 -9 5 -5 15 -10 20 -10 6 0 4 5 -4 10 -8 5 -10 10 -5
11 6 0 18 2 28 4 9 2 17 -3 17 -10 0 -7 6 -15 13 -18 6 -2 8 -8 4 -13 -5 -5
-13 -1 -19 9 -8 16 -12 17 -26 4 -21 -17 -62 -20 -79 -5 -8 7 -13 7 -13 0 0
-5 -23 -10 -50 -9 -40 0 -50 3 -48 16 5 23 50 31 72 12 14 -11 17 -12 11 -2z"/>
<path d="M730 695 c0 -3 2 -5 5 -5 3 0 5 2 5 5 0 3 -2 5 -5 5 -3 0 -5 -2 -5
-5z"/>
<path d="M693 683 c4 -3 10 -3 14 0 3 4 0 7 -7 7 -7 0 -10 -3 -7 -7z"/>
<path d="M800 685 c0 -3 2 -5 5 -5 3 0 5 2 5 5 0 3 -2 5 -5 5 -3 0 -5 -2 -5
-5z"/>
<path d="M820 685 c0 -3 2 -5 5 -5 3 0 5 2 5 5 0 3 -2 5 -5 5 -3 0 -5 -2 -5
-5z"/>
<path d="M720 675 c0 -3 2 -5 5 -5 3 0 5 2 5 5 0 3 -2 5 -5 5 -3 0 -5 -2 -5
-5z"/>
<path d="M22 443 c-2 -45 6 -51 37 -32 13 9 26 9 50 1 22 -8 31 -8 31 0 0 6
11 8 25 6 13 -3 22 -2 20 2 -6 10 -126 7 -142 -3 -8 -5 -13 4 -16 30 l-4 38
-1 -42z"/>
<path d="M290 445 c0 -39 -2 -40 -30 -23 -15 10 -24 9 -46 -2 -15 -8 -35 -14
-45 -12 -9 2 -20 -1 -23 -7 -4 -6 -18 -6 -39 0 -44 13 -79 -6 -75 -40 l3 -26
123 -3 c107 -2 123 0 129 14 3 9 1 25 -6 35 -9 15 -8 19 4 19 11 0 15 11 15
40 0 22 -2 40 -5 40 -3 0 -5 -16 -5 -35z m-26 -33 c3 -5 -8 -9 -24 -9 -16 0
-27 4 -24 9 3 4 14 8 24 8 10 0 21 -4 24 -8z m-139 -43 c-5 9 -4 12 3 7 6 -3
13 -2 17 3 7 12 44 6 59 -9 5 -5 15 -10 20 -10 6 0 4 5 -4 10 -8 5 -10 10 -5
11 6 0 18 2 28 4 9 2 17 -3 17 -10 0 -7 6 -15 13 -18 6 -2 8 -8 4 -13 -5 -5
-13 -1 -19 9 -8 16 -12 17 -26 4 -21 -17 -62 -20 -79 -5 -8 7 -13 7 -13 0 0
-5 -23 -10 -50 -9 -40 0 -50 3 -48 16 5 23 50 31 72 12 14 -11 17 -12 11 -2z"/>
<path d="M90 375 c0 -3 2 -5 5 -5 3 0 5 2 5 5 0 3 -2 5 -5 5 -3 0 -5 -2 -5 -5z"/>
<path d="M53 363 c4 -3 10 -3 14 0 3 4 0 7 -7 7 -7 0 -10 -3 -7 -7z"/>
<path d="M160 365 c0 -3 2 -5 5 -5 3 0 5 2 5 5 0 3 -2 5 -5 5 -3 0 -5 -2 -5
-5z"/>
<path d="M180 365 c0 -3 2 -5 5 -5 3 0 5 2 5 5 0 3 -2 5 -5 5 -3 0 -5 -2 -5
-5z"/>
<path d="M80 355 c0 -3 2 -5 5 -5 3 0 5 2 5 5 0 3 -2 5 -5 5 -3 0 -5 -2 -5 -5z"/>
<path d="M342 443 c-2 -45 6 -51 37 -32 13 9 26 9 50 1 22 -8 31 -8 31 0 0 6
11 8 25 6 13 -3 22 -2 20 2 -6 10 -126 7 -142 -3 -8 -5 -13 4 -16 30 l-4 38
-1 -42z"/>
<path d="M610 445 c0 -39 -2 -40 -30 -23 -15 10 -24 9 -46 -2 -15 -8 -35 -14
-45 -12 -9 2 -20 -1 -23 -7 -4 -6 -18 -6 -39 0 -44 13 -79 -6 -75 -40 l3 -26
123 -3 c107 -2 123 0 129 14 3 9 1 25 -6 35 -9 15 -8 19 4 19 11 0 15 11 15
40 0 22 -2 40 -5 40 -3 0 -5 -16 -5 -35z m-26 -33 c3 -5 -8 -9 -24 -9 -16 0
-27 4 -24 9 3 4 14 8 24 8 10 0 21 -4 24 -8z m-139 -43 c-5 9 -4 12 3 7 6 -3
13 -2 17 3 7 12 44 6 59 -9 5 -5 15 -10 20 -10 6 0 4 5 -4 10 -8 5 -10 10 -5
11 6 0 18 2 28 4 9 2 17 -3 17 -10 0 -7 6 -15 13 -18 6 -2 8 -8 4 -13 -5 -5
-13 -1 -19 9 -8 16 -12 17 -26 4 -21 -17 -62 -20 -79 -5 -8 7 -13 7 -13 0 0
-5 -23 -10 -50 -9 -40 0 -50 3 -48 16 5 23 50 31 72 12 14 -11 17 -12 11 -2z"/>
<path d="M410 375 c0 -3 2 -5 5 -5 3 0 5 2 5 5 0 3 -2 5 -5 5 -3 0 -5 -2 -5
-5z"/>
<path d="M373 363 c4 -3 10 -3 14 0 3 4 0 7 -7 7 -7 0 -10 -3 -7 -7z"/>
<path d="M480 365 c0 -3 2 -5 5 -5 3 0 5 2 5 5 0 3 -2 5 -5 5 -3 0 -5 -2 -5
-5z"/>
<path d="M500 365 c0 -3 2 -5 5 -5 3 0 5 2 5 5 0 3 -2 5 -5 5 -3 0 -5 -2 -5
-5z"/>
<path d="M400 355 c0 -3 2 -5 5 -5 3 0 5 2 5 5 0 3 -2 5 -5 5 -3 0 -5 -2 -5
-5z"/>
<path d="M662 443 c-2 -45 6 -51 37 -32 13 9 26 9 50 1 22 -8 31 -8 31 0 0 6
11 8 25 6 13 -3 22 -2 20 2 -6 10 -126 7 -142 -3 -8 -5 -13 4 -16 30 l-4 38
-1 -42z"/>
<path d="M930 445 c0 -39 -2 -40 -30 -23 -15 10 -24 9 -46 -2 -15 -8 -35 -14
-45 -12 -9 2 -20 -1 -23 -7 -4 -6 -18 -6 -39 0 -44 13 -79 -6 -75 -40 l3 -26
123 -3 c107 -2 123 0 129 14 3 9 1 25 -6 35 -9 15 -8 19 4 19 11 0 15 11 15
40 0 22 -2 40 -5 40 -3 0 -5 -16 -5 -35z m-26 -33 c3 -5 -8 -9 -24 -9 -16 0
-27 4 -24 9 3 4 14 8 24 8 10 0 21 -4 24 -8z m-139 -43 c-5 9 -4 12 3 7 6 -3
13 -2 17 3 7 12 44 6 59 -9 5 -5 15 -10 20 -10 6 0 4 5 -4 10 -8 5 -10 10 -5
11 6 0 18 2 28 4 9 2 17 -3 17 -10 0 -7 6 -15 13 -18 6 -2 8 -8 4 -13 -5 -5
-13 -1 -19 9 -8 16 -12 17 -26 4 -21 -17 -62 -20 -79 -5 -8 7 -13 7 -13 0 0
-5 -23 -10 -50 -9 -40 0 -50 3 -48 16 5 23 50 31 72 12 14 -11 17 -12 11 -2z"/>
<path d="M730 375 c0 -3 2 -5 5 -5 3 0 5 2 5 5 0 3 -2 5 -5 5 -3 0 -5 -2 -5
-5z"/>
<path d="M693 363 c4 -3 10 -3 14 0 3 4 0 7 -7 7 -7 0 -10 -3 -7 -7z"/>
<path d="M800 365 c0 -3 2 -5 5 -5 3 0 5 2 5 5 0 3 -2 5 -5 5 -3 0 -5 -2 -5
-5z"/>
<path d="M820 365 c0 -3 2 -5 5 -5 3 0 5 2 5 5 0 3 -2 5 -5 5 -3 0 -5 -2 -5
-5z"/>
<path d="M720 355 c0 -3 2 -5 5 -5 3 0 5 2 5 5 0 3 -2 5 -5 5 -3 0 -5 -2 -5
-5z"/>
<path d="M22 123 c-2 -45 6 -51 37 -32 13 9 26 9 50 1 22 -8 31 -8 31 0 0 6
11 8 25 6 13 -3 22 -2 20 2 -6 10 -126 7 -142 -3 -8 -5 -13 4 -16 30 l-4 38
-1 -42z"/>
<path d="M290 125 c0 -39 -2 -40 -30 -23 -15 10 -24 9 -46 -2 -15 -8 -35 -14
-45 -12 -9 2 -20 -1 -23 -7 -4 -6 -18 -6 -39 0 -44 13 -79 -6 -75 -40 l3 -26
123 -3 c107 -2 123 0 129 14 3 9 1 25 -6 35 -9 15 -8 19 4 19 11 0 15 11 15
40 0 22 -2 40 -5 40 -3 0 -5 -16 -5 -35z m-26 -33 c3 -5 -8 -9 -24 -9 -16 0
-27 4 -24 9 7 10 41 10 48 0z m-139 -43 c-5 9 -4 12 3 7 6 -3 13 -2 17 3 7 12
44 6 59 -9 5 -5 15 -10 20 -10 6 0 4 5 -4 10 -8 5 -10 10 -5 11 6 0 18 2 28 4
9 2 17 -3 17 -10 0 -7 6 -15 13 -18 6 -2 8 -8 4 -13 -5 -5 -13 -1 -19 9 -8 16
-12 17 -26 4 -21 -17 -62 -20 -79 -5 -8 7 -13 7 -13 0 0 -5 -23 -10 -50 -9
-40 0 -50 3 -48 16 5 23 50 31 72 12 14 -11 17 -12 11 -2z"/>
<path d="M90 55 c0 -3 2 -5 5 -5 3 0 5 2 5 5 0 3 -2 5 -5 5 -3 0 -5 -2 -5 -5z"/>
<path d="M53 43 c4 -3 10 -3 14 0 3 4 0 7 -7 7 -7 0 -10 -3 -7 -7z"/>
<path d="M160 45 c0 -3 2 -5 5 -5 3 0 5 2 5 5 0 3 -2 5 -5 5 -3 0 -5 -2 -5 -5z"/>
<path d="M180 45 c0 -3 2 -5 5 -5 3 0 5 2 5 5 0 3 -2 5 -5 5 -3 0 -5 -2 -5 -5z"/>
<path d="M80 35 c0 -3 2 -5 5 -5 3 0 5 2 5 5 0 3 -2 5 -5 5 -3 0 -5 -2 -5 -5z"/>
<path d="M342 123 c-2 -45 6 -51 37 -32 13 9 26 9 50 1 22 -8 31 -8 31 0 0 6
11 8 25 6 13 -3 22 -2 20 2 -6 10 -126 7 -142 -3 -8 -5 -13 4 -16 30 l-4 38
-1 -42z"/>
<path d="M610 125 c0 -39 -2 -40 -30 -23 -15 10 -24 9 -46 -2 -15 -8 -35 -14
-45 -12 -9 2 -20 -1 -23 -7 -4 -6 -18 -6 -39 0 -44 13 -79 -6 -75 -40 l3 -26
123 -3 c107 -2 123 0 129 14 3 9 1 25 -6 35 -9 15 -8 19 4 19 11 0 15 11 15
40 0 22 -2 40 -5 40 -3 0 -5 -16 -5 -35z m-26 -33 c3 -5 -8 -9 -24 -9 -16 0
-27 4 -24 9 7 10 41 10 48 0z m-139 -43 c-5 9 -4 12 3 7 6 -3 13 -2 17 3 7 12
44 6 59 -9 5 -5 15 -10 20 -10 6 0 4 5 -4 10 -8 5 -10 10 -5 11 6 0 18 2 28 4
9 2 17 -3 17 -10 0 -7 6 -15 13 -18 6 -2 8 -8 4 -13 -5 -5 -13 -1 -19 9 -8 16
-12 17 -26 4 -21 -17 -62 -20 -79 -5 -8 7 -13 7 -13 0 0 -5 -23 -10 -50 -9
-40 0 -50 3 -48 16 5 23 50 31 72 12 14 -11 17 -12 11 -2z"/>
<path d="M410 55 c0 -3 2 -5 5 -5 3 0 5 2 5 5 0 3 -2 5 -5 5 -3 0 -5 -2 -5 -5z"/>
<path d="M373 43 c4 -3 10 -3 14 0 3 4 0 7 -7 7 -7 0 -10 -3 -7 -7z"/>
<path d="M480 45 c0 -3 2 -5 5 -5 3 0 5 2 5 5 0 3 -2 5 -5 5 -3 0 -5 -2 -5 -5z"/>
<path d="M500 45 c0 -3 2 -5 5 -5 3 0 5 2 5 5 0 3 -2 5 -5 5 -3 0 -5 -2 -5 -5z"/>
<path d="M400 35 c0 -3 2 -5 5 -5 3 0 5 2 5 5 0 3 -2 5 -5 5 -3 0 -5 -2 -5 -5z"/>
<path d="M662 123 c-2 -45 6 -51 37 -32 13 9 26 9 50 1 22 -8 31 -8 31 0 0 6
11 8 25 6 13 -3 22 -2 20 2 -6 10 -126 7 -142 -3 -8 -5 -13 4 -16 30 l-4 38
-1 -42z"/>
<path d="M930 125 c0 -39 -2 -40 -30 -23 -15 10 -24 9 -46 -2 -15 -8 -35 -14
-45 -12 -9 2 -20 -1 -23 -7 -4 -6 -18 -6 -39 0 -44 13 -79 -6 -75 -40 l3 -26
123 -3 c107 -2 123 0 129 14 3 9 1 25 -6 35 -9 15 -8 19 4 19 11 0 15 11 15
40 0 22 -2 40 -5 40 -3 0 -5 -16 -5 -35z m-26 -33 c3 -5 -8 -9 -24 -9 -16 0
-27 4 -24 9 7 10 41 10 48 0z m-139 -43 c-5 9 -4 12 3 7 6 -3 13 -2 17 3 7 12
44 6 59 -9 5 -5 15 -10 20 -10 6 0 4 5 -4 10 -8 5 -10 10 -5 11 6 0 18 2 28 4
9 2 17 -3 17 -10 0 -7 6 -15 13 -18 6 -2 8 -8 4 -13 -5 -5 -13 -1 -19 9 -8 16
-12 17 -26 4 -21 -17 -62 -20 -79 -5 -8 7 -13 7 -13 0 0 -5 -23 -10 -50 -9
-40 0 -50 3 -48 16 5 23 50 31 72 12 14 -11 17 -12 11 -2z"/>
<path d="M730 55 c0 -3 2 -5 5 -5 3 0 5 2 5 5 0 3 -2 5 -5 5 -3 0 -5 -2 -5 -5z"/>
<path d="M693 43 c4 -3 10 -3 14 0 3 4 0 7 -7 7 -7 0 -10 -3 -7 -7z"/>
<path d="M800 45 c0 -3 2 -5 5 -5 3 0 5 2 5 5 0 3 -2 5 -5 5 -3 0 -5 -2 -5 -5z"/>
<path d="M820 45 c0 -3 2 -5 5 -5 3 0 5 2 5 5 0 3 -2 5 -5 5 -3 0 -5 -2 -5 -5z"/>
<path d="M720 35 c0 -3 2 -5 5 -5 3 0 5 2 5 5 0 3 -2 5 -5 5 -3 0 -5 -2 -5 -5z"/>
</g>
<g transform="translate(0.000000,96.000000) scale(0.100000,-0.100000)"
fill="#af5823" stroke="none">
<path d="M22 763 c-2 -45 6 -51 37 -32 13 9 26 9 50 1 18 -7 31 -7 31 -1 0 12
37 12 45 -1 3 -5 -1 -10 -9 -10 -9 0 -16 -5 -16 -11 0 -5 4 -8 8 -5 11 7 64
-29 55 -37 -3 -4 -1 -7 4 -7 6 0 14 6 16 13 3 7 6 5 6 -5 1 -10 6 -18 12 -18
5 0 7 5 3 11 -3 6 0 15 7 20 7 4 10 11 6 16 -5 4 -11 3 -15 -3 -4 -5 -13 -9
-19 -8 -7 1 -19 2 -25 3 -9 1 -9 4 2 10 8 6 17 8 21 5 4 -2 11 1 14 6 5 8 -5
9 -32 5 -36 -7 -37 -6 -18 9 23 18 51 21 60 6 3 -5 13 -10 21 -10 10 0 14 11
12 43 l-1 42 -4 -37 c-5 -42 -5 -43 -33 -26 -16 10 -24 10 -41 0 -13 -8 -25
-10 -32 -4 -14 11 -126 10 -144 -1 -8 -5 -13 4 -16 30 l-4 38 -1 -42z"/>
<path d="M342 763 c-2 -45 6 -51 37 -32 13 9 26 9 50 1 18 -7 31 -7 31 -1 0
12 37 12 45 -1 3 -5 -1 -10 -9 -10 -9 0 -16 -5 -16 -11 0 -5 4 -8 8 -5 11 7
64 -29 55 -37 -3 -4 -1 -7 4 -7 6 0 14 6 16 13 3 7 6 5 6 -5 1 -10 6 -18 12
-18 5 0 7 5 3 11 -3 6 0 15 7 20 7 4 10 11 6 16 -5 4 -11 3 -15 -3 -4 -5 -13
-9 -19 -8 -7 1 -19 2 -25 3 -9 1 -9 4 2 10 8 6 17 8 21 5 4 -2 11 1 14 6 5 8
-5 9 -32 5 -36 -7 -37 -6 -18 9 23 18 51 21 60 6 3 -5 13 -10 21 -10 10 0 14
11 12 43 l-1 42 -4 -37 c-5 -42 -5 -43 -33 -26 -16 10 -24 10 -41 0 -13 -8
-25 -10 -32 -4 -14 11 -126 10 -144 -1 -8 -5 -13 4 -16 30 l-4 38 -1 -42z"/>
<path d="M662 763 c-2 -45 6 -51 37 -32 13 9 26 9 50 1 18 -7 31 -7 31 -1 0
12 37 12 45 -1 3 -5 -1 -10 -9 -10 -9 0 -16 -5 -16 -11 0 -5 4 -8 8 -5 11 7
64 -29 55 -37 -3 -4 -1 -7 4 -7 6 0 14 6 16 13 3 7 6 5 6 -5 1 -10 6 -18 12
-18 5 0 7 5 3 11 -3 6 0 15 7 20 7 4 10 11 6 16 -5 4 -11 3 -15 -3 -4 -5 -13
-9 -19 -8 -7 1 -19 2 -25 3 -9 1 -9 4 2 10 8 6 17 8 21 5 4 -2 11 1 14 6 5 8
-5 9 -32 5 -36 -7 -37 -6 -18 9 23 18 51 21 60 6 3 -5 13 -10 21 -10 10 0 14
11 12 43 l-1 42 -4 -37 c-5 -42 -5 -43 -33 -26 -16 10 -24 10 -41 0 -13 -8
-25 -10 -32 -4 -14 11 -126 10 -144 -1 -8 -5 -13 4 -16 30 l-4 38 -1 -42z"/>
<path d="M75 710 c-4 -6 1 -7 11 -3 13 5 15 3 9 -8 -4 -8 -5 -11 0 -7 4 4 14
3 20 -2 9 -7 17 -5 26 7 13 15 12 16 -8 11 -13 -4 -26 -2 -29 3 -7 12 -21 11
-29 -1z m55 -15 c0 -3 -2 -5 -5 -5 -3 0 -5 2 -5 5 0 3 2 5 5 5 3 0 5 -2 5 -5z"/>
<path d="M395 710 c-4 -6 1 -7 11 -3 13 5 15 3 9 -8 -4 -8 -5 -11 0 -7 4 4 14
3 20 -2 9 -7 17 -5 26 7 13 15 12 16 -8 11 -13 -4 -26 -2 -29 3 -7 12 -21 11
-29 -1z m55 -15 c0 -3 -2 -5 -5 -5 -3 0 -5 2 -5 5 0 3 2 5 5 5 3 0 5 -2 5 -5z"/>
<path d="M715 710 c-4 -6 1 -7 11 -3 13 5 15 3 9 -8 -4 -8 -5 -11 0 -7 4 4 14
3 20 -2 9 -7 17 -5 26 7 13 15 12 16 -8 11 -13 -4 -26 -2 -29 3 -7 12 -21 11
-29 -1z m55 -15 c0 -3 -2 -5 -5 -5 -3 0 -5 2 -5 5 0 3 2 5 5 5 3 0 5 -2 5 -5z"/>
<path d="M36 694 c-4 -9 -4 -19 -1 -22 3 -3 5 0 5 6 0 6 6 10 13 8 6 -1 9 -1
4 1 -4 3 -5 9 -1 14 3 5 1 9 -4 9 -6 0 -13 -7 -16 -16z"/>
<path d="M356 694 c-4 -9 -4 -19 -1 -22 3 -3 5 0 5 6 0 6 6 10 13 8 6 -1 9 -1
4 1 -4 3 -5 9 -1 14 3 5 1 9 -4 9 -6 0 -13 -7 -16 -16z"/>
<path d="M676 694 c-4 -9 -4 -19 -1 -22 3 -3 5 0 5 6 0 6 6 10 13 8 6 -1 9 -1
4 1 -4 3 -5 9 -1 14 3 5 1 9 -4 9 -6 0 -13 -7 -16 -16z"/>
<path d="M160 685 c0 -3 2 -5 5 -5 3 0 5 2 5 5 0 3 -2 5 -5 5 -3 0 -5 -2 -5
-5z"/>
<path d="M180 685 c0 -3 2 -5 5 -5 3 0 5 2 5 5 0 3 -2 5 -5 5 -3 0 -5 -2 -5
-5z"/>
<path d="M480 685 c0 -3 2 -5 5 -5 3 0 5 2 5 5 0 3 -2 5 -5 5 -3 0 -5 -2 -5
-5z"/>
<path d="M500 685 c0 -3 2 -5 5 -5 3 0 5 2 5 5 0 3 -2 5 -5 5 -3 0 -5 -2 -5
-5z"/>
<path d="M800 685 c0 -3 2 -5 5 -5 3 0 5 2 5 5 0 3 -2 5 -5 5 -3 0 -5 -2 -5
-5z"/>
<path d="M820 685 c0 -3 2 -5 5 -5 3 0 5 2 5 5 0 3 -2 5 -5 5 -3 0 -5 -2 -5
-5z"/>
<path d="M80 675 c0 -3 2 -5 5 -5 3 0 5 2 5 5 0 3 -2 5 -5 5 -3 0 -5 -2 -5 -5z"/>
<path d="M145 670 c3 -5 8 -10 11 -10 3 0 2 5 -1 10 -3 6 -8 10 -11 10 -3 0
-2 -4 1 -10z"/>
<path d="M400 675 c0 -3 2 -5 5 -5 3 0 5 2 5 5 0 3 -2 5 -5 5 -3 0 -5 -2 -5
-5z"/>
<path d="M465 670 c3 -5 8 -10 11 -10 3 0 2 5 -1 10 -3 6 -8 10 -11 10 -3 0
-2 -4 1 -10z"/>
<path d="M720 675 c0 -3 2 -5 5 -5 3 0 5 2 5 5 0 3 -2 5 -5 5 -3 0 -5 -2 -5
-5z"/>
<path d="M785 670 c3 -5 8 -10 11 -10 3 0 2 5 -1 10 -3 6 -8 10 -11 10 -3 0
-2 -4 1 -10z"/>
<path d="M50 665 c0 -3 2 -5 5 -5 3 0 5 2 5 5 0 3 -2 5 -5 5 -3 0 -5 -2 -5 -5z"/>
<path d="M110 665 c0 -3 2 -5 5 -5 3 0 5 2 5 5 0 3 -2 5 -5 5 -3 0 -5 -2 -5
-5z"/>
<path d="M190 665 c0 -3 2 -5 5 -5 3 0 5 2 5 5 0 3 -2 5 -5 5 -3 0 -5 -2 -5
-5z"/>
<path d="M370 665 c0 -3 2 -5 5 -5 3 0 5 2 5 5 0 3 -2 5 -5 5 -3 0 -5 -2 -5
-5z"/>
<path d="M430 665 c0 -3 2 -5 5 -5 3 0 5 2 5 5 0 3 -2 5 -5 5 -3 0 -5 -2 -5
-5z"/>
<path d="M510 665 c0 -3 2 -5 5 -5 3 0 5 2 5 5 0 3 -2 5 -5 5 -3 0 -5 -2 -5
-5z"/>
<path d="M690 665 c0 -3 2 -5 5 -5 3 0 5 2 5 5 0 3 -2 5 -5 5 -3 0 -5 -2 -5
-5z"/>
<path d="M750 665 c0 -3 2 -5 5 -5 3 0 5 2 5 5 0 3 -2 5 -5 5 -3 0 -5 -2 -5
-5z"/>
<path d="M830 665 c0 -3 2 -5 5 -5 3 0 5 2 5 5 0 3 -2 5 -5 5 -3 0 -5 -2 -5
-5z"/>
<path d="M22 443 c-2 -45 6 -51 37 -32 13 9 26 9 50 1 18 -7 31 -7 31 -1 0 12
37 12 45 -1 3 -5 -1 -10 -9 -10 -9 0 -16 -5 -16 -11 0 -5 4 -8 8 -5 11 7 64
-29 55 -37 -3 -4 -1 -7 4 -7 6 0 14 6 16 13 3 7 6 5 6 -5 1 -10 6 -18 12 -18
5 0 7 5 3 11 -3 6 0 15 7 20 7 4 10 11 6 16 -5 4 -11 3 -15 -3 -4 -5 -13 -9
-19 -8 -7 1 -19 2 -25 3 -9 1 -9 4 2 10 8 6 17 8 21 5 4 -2 11 1 14 6 5 8 -5
9 -32 5 -36 -7 -37 -6 -18 9 23 18 51 21 60 6 3 -5 13 -10 21 -10 10 0 14 11
12 43 l-1 42 -4 -37 c-5 -42 -5 -43 -33 -26 -16 10 -24 10 -41 0 -13 -8 -25
-10 -32 -4 -14 11 -126 10 -144 -1 -8 -5 -13 4 -16 30 l-4 38 -1 -42z"/>
<path d="M342 443 c-2 -45 6 -51 37 -32 13 9 26 9 50 1 18 -7 31 -7 31 -1 0
12 37 12 45 -1 3 -5 -1 -10 -9 -10 -9 0 -16 -5 -16 -11 0 -5 4 -8 8 -5 11 7
64 -29 55 -37 -3 -4 -1 -7 4 -7 6 0 14 6 16 13 3 7 6 5 6 -5 1 -10 6 -18 12
-18 5 0 7 5 3 11 -3 6 0 15 7 20 7 4 10 11 6 16 -5 4 -11 3 -15 -3 -4 -5 -13
-9 -19 -8 -7 1 -19 2 -25 3 -9 1 -9 4 2 10 8 6 17 8 21 5 4 -2 11 1 14 6 5 8
-5 9 -32 5 -36 -7 -37 -6 -18 9 23 18 51 21 60 6 3 -5 13 -10 21 -10 10 0 14
11 12 43 l-1 42 -4 -37 c-5 -42 -5 -43 -33 -26 -16 10 -24 10 -41 0 -13 -8
-25 -10 -32 -4 -14 11 -126 10 -144 -1 -8 -5 -13 4 -16 30 l-4 38 -1 -42z"/>
<path d="M662 443 c-2 -45 6 -51 37 -32 13 9 26 9 50 1 18 -7 31 -7 31 -1 0
12 37 12 45 -1 3 -5 -1 -10 -9 -10 -9 0 -16 -5 -16 -11 0 -5 4 -8 8 -5 11 7
64 -29 55 -37 -3 -4 -1 -7 4 -7 6 0 14 6 16 13 3 7 6 5 6 -5 1 -10 6 -18 12
-18 5 0 7 5 3 11 -3 6 0 15 7 20 7 4 10 11 6 16 -5 4 -11 3 -15 -3 -4 -5 -13
-9 -19 -8 -7 1 -19 2 -25 3 -9 1 -9 4 2 10 8 6 17 8 21 5 4 -2 11 1 14 6 5 8
-5 9 -32 5 -36 -7 -37 -6 -18 9 23 18 51 21 60 6 3 -5 13 -10 21 -10 10 0 14
11 12 43 l-1 42 -4 -37 c-5 -42 -5 -43 -33 -26 -16 10 -24 10 -41 0 -13 -8
-25 -10 -32 -4 -14 11 -126 10 -144 -1 -8 -5 -13 4 -16 30 l-4 38 -1 -42z"/>
<path d="M75 390 c-4 -6 1 -7 11 -3 13 5 15 3 9 -8 -4 -8 -5 -11 0 -7 4 4 14
3 20 -2 9 -7 17 -5 26 7 13 15 12 16 -8 11 -13 -4 -26 -2 -29 3 -7 12 -21 11
-29 -1z m55 -15 c0 -3 -2 -5 -5 -5 -3 0 -5 2 -5 5 0 3 2 5 5 5 3 0 5 -2 5 -5z"/>
<path d="M395 390 c-4 -6 1 -7 11 -3 13 5 15 3 9 -8 -4 -8 -5 -11 0 -7 4 4 14
3 20 -2 9 -7 17 -5 26 7 13 15 12 16 -8 11 -13 -4 -26 -2 -29 3 -7 12 -21 11
-29 -1z m55 -15 c0 -3 -2 -5 -5 -5 -3 0 -5 2 -5 5 0 3 2 5 5 5 3 0 5 -2 5 -5z"/>
<path d="M715 390 c-4 -6 1 -7 11 -3 13 5 15 3 9 -8 -4 -8 -5 -11 0 -7 4 4 14
3 20 -2 9 -7 17 -5 26 7 13 15 12 16 -8 11 -13 -4 -26 -2 -29 3 -7 12 -21 11
-29 -1z m55 -15 c0 -3 -2 -5 -5 -5 -3 0 -5 2 -5 5 0 3 2 5 5 5 3 0 5 -2 5 -5z"/>
<path d="M36 374 c-4 -9 -4 -19 -1 -22 3 -3 5 0 5 6 0 6 6 10 13 8 6 -1 9 -1
4 1 -4 3 -5 9 -1 14 3 5 1 9 -4 9 -6 0 -13 -7 -16 -16z"/>
<path d="M356 374 c-4 -9 -4 -19 -1 -22 3 -3 5 0 5 6 0 6 6 10 13 8 6 -1 9 -1
4 1 -4 3 -5 9 -1 14 3 5 1 9 -4 9 -6 0 -13 -7 -16 -16z"/>
<path d="M676 374 c-4 -9 -4 -19 -1 -22 3 -3 5 0 5 6 0 6 6 10 13 8 6 -1 9 -1
4 1 -4 3 -5 9 -1 14 3 5 1 9 -4 9 -6 0 -13 -7 -16 -16z"/>
<path d="M160 365 c0 -3 2 -5 5 -5 3 0 5 2 5 5 0 3 -2 5 -5 5 -3 0 -5 -2 -5
-5z"/>
<path d="M180 365 c0 -3 2 -5 5 -5 3 0 5 2 5 5 0 3 -2 5 -5 5 -3 0 -5 -2 -5
-5z"/>
<path d="M480 365 c0 -3 2 -5 5 -5 3 0 5 2 5 5 0 3 -2 5 -5 5 -3 0 -5 -2 -5
-5z"/>
<path d="M500 365 c0 -3 2 -5 5 -5 3 0 5 2 5 5 0 3 -2 5 -5 5 -3 0 -5 -2 -5
-5z"/>
<path d="M800 365 c0 -3 2 -5 5 -5 3 0 5 2 5 5 0 3 -2 5 -5 5 -3 0 -5 -2 -5
-5z"/>
<path d="M820 365 c0 -3 2 -5 5 -5 3 0 5 2 5 5 0 3 -2 5 -5 5 -3 0 -5 -2 -5
-5z"/>
<path d="M80 355 c0 -3 2 -5 5 -5 3 0 5 2 5 5 0 3 -2 5 -5 5 -3 0 -5 -2 -5 -5z"/>
<path d="M145 350 c3 -5 8 -10 11 -10 3 0 2 5 -1 10 -3 6 -8 10 -11 10 -3 0
-2 -4 1 -10z"/>
<path d="M400 355 c0 -3 2 -5 5 -5 3 0 5 2 5 5 0 3 -2 5 -5 5 -3 0 -5 -2 -5
-5z"/>
<path d="M465 350 c3 -5 8 -10 11 -10 3 0 2 5 -1 10 -3 6 -8 10 -11 10 -3 0
-2 -4 1 -10z"/>
<path d="M720 355 c0 -3 2 -5 5 -5 3 0 5 2 5 5 0 3 -2 5 -5 5 -3 0 -5 -2 -5
-5z"/>
<path d="M785 350 c3 -5 8 -10 11 -10 3 0 2 5 -1 10 -3 6 -8 10 -11 10 -3 0
-2 -4 1 -10z"/>
<path d="M50 345 c0 -3 2 -5 5 -5 3 0 5 2 5 5 0 3 -2 5 -5 5 -3 0 -5 -2 -5 -5z"/>
<path d="M110 345 c0 -3 2 -5 5 -5 3 0 5 2 5 5 0 3 -2 5 -5 5 -3 0 -5 -2 -5
-5z"/>
<path d="M190 345 c0 -3 2 -5 5 -5 3 0 5 2 5 5 0 3 -2 5 -5 5 -3 0 -5 -2 -5
-5z"/>
<path d="M370 345 c0 -3 2 -5 5 -5 3 0 5 2 5 5 0 3 -2 5 -5 5 -3 0 -5 -2 -5
-5z"/>
<path d="M430 345 c0 -3 2 -5 5 -5 3 0 5 2 5 5 0 3 -2 5 -5 5 -3 0 -5 -2 -5
-5z"/>
<path d="M510 345 c0 -3 2 -5 5 -5 3 0 5 2 5 5 0 3 -2 5 -5 5 -3 0 -5 -2 -5
-5z"/>
<path d="M690 345 c0 -3 2 -5 5 -5 3 0 5 2 5 5 0 3 -2 5 -5 5 -3 0 -5 -2 -5
-5z"/>
<path d="M750 345 c0 -3 2 -5 5 -5 3 0 5 2 5 5 0 3 -2 5 -5 5 -3 0 -5 -2 -5
-5z"/>
<path d="M830 345 c0 -3 2 -5 5 -5 3 0 5 2 5 5 0 3 -2 5 -5 5 -3 0 -5 -2 -5
-5z"/>
<path d="M22 123 c-2 -45 6 -51 37 -32 13 9 26 9 50 1 18 -7 31 -7 31 -1 0 12
37 12 45 -1 3 -5 -1 -10 -9 -10 -9 0 -16 -5 -16 -11 0 -5 4 -8 8 -5 11 7 64
-29 55 -37 -3 -4 -1 -7 4 -7 6 0 14 6 16 13 3 7 6 5 6 -5 1 -10 6 -18 12 -18
5 0 7 5 3 11 -3 6 0 15 7 20 7 4 10 11 6 16 -5 4 -11 3 -15 -3 -4 -5 -13 -9
-19 -8 -7 1 -19 2 -25 3 -9 1 -9 4 2 10 8 6 17 8 21 5 4 -2 11 1 14 6 5 8 -5
9 -32 5 -36 -7 -37 -6 -18 9 23 18 51 21 60 6 3 -5 13 -10 21 -10 10 0 14 11
12 43 l-1 42 -4 -37 c-5 -42 -5 -43 -33 -26 -16 10 -24 10 -41 0 -13 -8 -25
-10 -32 -4 -14 11 -126 10 -144 -1 -8 -5 -13 4 -16 30 l-4 38 -1 -42z"/>
<path d="M342 123 c-2 -45 6 -51 37 -32 13 9 26 9 50 1 18 -7 31 -7 31 -1 0
12 37 12 45 -1 3 -5 -1 -10 -9 -10 -9 0 -16 -5 -16 -11 0 -5 4 -8 8 -5 11 7
64 -29 55 -37 -3 -4 -1 -7 4 -7 6 0 14 6 16 13 3 7 6 5 6 -5 1 -10 6 -18 12
-18 5 0 7 5 3 11 -3 6 0 15 7 20 7 4 10 11 6 16 -5 4 -11 3 -15 -3 -4 -5 -13
-9 -19 -8 -7 1 -19 2 -25 3 -9 1 -9 4 2 10 8 6 17 8 21 5 4 -2 11 1 14 6 5 8
-5 9 -32 5 -36 -7 -37 -6 -18 9 23 18 51 21 60 6 3 -5 13 -10 21 -10 10 0 14
11 12 43 l-1 42 -4 -37 c-5 -42 -5 -43 -33 -26 -16 10 -24 10 -41 0 -13 -8
-25 -10 -32 -4 -14 11 -126 10 -144 -1 -8 -5 -13 4 -16 30 l-4 38 -1 -42z"/>
<path d="M662 123 c-2 -45 6 -51 37 -32 13 9 26 9 50 1 18 -7 31 -7 31 -1 0
12 37 12 45 -1 3 -5 -1 -10 -9 -10 -9 0 -16 -5 -16 -11 0 -5 4 -8 8 -5 11 7
64 -29 55 -37 -3 -4 -1 -7 4 -7 6 0 14 6 16 13 3 7 6 5 6 -5 1 -10 6 -18 12
-18 5 0 7 5 3 11 -3 6 0 15 7 20 7 4 10 11 6 16 -5 4 -11 3 -15 -3 -4 -5 -13
-9 -19 -8 -7 1 -19 2 -25 3 -9 1 -9 4 2 10 8 6 17 8 21 5 4 -2 11 1 14 6 5 8
-5 9 -32 5 -36 -7 -37 -6 -18 9 23 18 51 21 60 6 3 -5 13 -10 21 -10 10 0 14
11 12 43 l-1 42 -4 -37 c-5 -42 -5 -43 -33 -26 -16 10 -24 10 -41 0 -13 -8
-25 -10 -32 -4 -14 11 -126 10 -144 -1 -8 -5 -13 4 -16 30 l-4 38 -1 -42z"/>
<path d="M75 70 c-4 -6 1 -7 11 -3 13 5 15 3 9 -8 -4 -8 -5 -11 0 -7 4 4 14 3
20 -2 9 -7 17 -5 26 7 13 15 12 16 -8 11 -13 -4 -26 -2 -29 3 -7 12 -21 11
-29 -1z m55 -15 c0 -3 -2 -5 -5 -5 -3 0 -5 2 -5 5 0 3 2 5 5 5 3 0 5 -2 5 -5z"/>
<path d="M395 70 c-4 -6 1 -7 11 -3 13 5 15 3 9 -8 -4 -8 -5 -11 0 -7 4 4 14
3 20 -2 9 -7 17 -5 26 7 13 15 12 16 -8 11 -13 -4 -26 -2 -29 3 -7 12 -21 11
-29 -1z m55 -15 c0 -3 -2 -5 -5 -5 -3 0 -5 2 -5 5 0 3 2 5 5 5 3 0 5 -2 5 -5z"/>
<path d="M715 70 c-4 -6 1 -7 11 -3 13 5 15 3 9 -8 -4 -8 -5 -11 0 -7 4 4 14
3 20 -2 9 -7 17 -5 26 7 13 15 12 16 -8 11 -13 -4 -26 -2 -29 3 -7 12 -21 11
-29 -1z m55 -15 c0 -3 -2 -5 -5 -5 -3 0 -5 2 -5 5 0 3 2 5 5 5 3 0 5 -2 5 -5z"/>
<path d="M36 54 c-4 -9 -4 -19 -1 -22 3 -3 5 0 5 6 0 6 6 10 13 8 6 -1 9 -1 4
1 -4 3 -5 9 -1 14 3 5 1 9 -4 9 -6 0 -13 -7 -16 -16z"/>
<path d="M356 54 c-4 -9 -4 -19 -1 -22 3 -3 5 0 5 6 0 6 6 10 13 8 6 -1 9 -1
4 1 -4 3 -5 9 -1 14 3 5 1 9 -4 9 -6 0 -13 -7 -16 -16z"/>
<path d="M676 54 c-4 -9 -4 -19 -1 -22 3 -3 5 0 5 6 0 6 6 10 13 8 6 -1 9 -1
4 1 -4 3 -5 9 -1 14 3 5 1 9 -4 9 -6 0 -13 -7 -16 -16z"/>
<path d="M160 45 c0 -3 2 -5 5 -5 3 0 5 2 5 5 0 3 -2 5 -5 5 -3 0 -5 -2 -5 -5z"/>
<path d="M180 45 c0 -3 2 -5 5 -5 3 0 5 2 5 5 0 3 -2 5 -5 5 -3 0 -5 -2 -5 -5z"/>
<path d="M480 45 c0 -3 2 -5 5 -5 3 0 5 2 5 5 0 3 -2 5 -5 5 -3 0 -5 -2 -5 -5z"/>
<path d="M500 45 c0 -3 2 -5 5 -5 3 0 5 2 5 5 0 3 -2 5 -5 5 -3 0 -5 -2 -5 -5z"/>
<path d="M800 45 c0 -3 2 -5 5 -5 3 0 5 2 5 5 0 3 -2 5 -5 5 -3 0 -5 -2 -5 -5z"/>
<path d="M820 45 c0 -3 2 -5 5 -5 3 0 5 2 5 5 0 3 -2 5 -5 5 -3 0 -5 -2 -5 -5z"/>
<path d="M80 35 c0 -3 2 -5 5 -5 3 0 5 2 5 5 0 3 -2 5 -5 5 -3 0 -5 -2 -5 -5z"/>
<path d="M145 30 c3 -5 8 -10 11 -10 3 0 2 5 -1 10 -3 6 -8 10 -11 10 -3 0 -2
-4 1 -10z"/>
<path d="M400 35 c0 -3 2 -5 5 -5 3 0 5 2 5 5 0 3 -2 5 -5 5 -3 0 -5 -2 -5 -5z"/>
<path d="M465 30 c3 -5 8 -10 11 -10 3 0 2 5 -1 10 -3 6 -8 10 -11 10 -3 0 -2
-4 1 -10z"/>
<path d="M720 35 c0 -3 2 -5 5 -5 3 0 5 2 5 5 0 3 -2 5 -5 5 -3 0 -5 -2 -5 -5z"/>
<path d="M785 30 c3 -5 8 -10 11 -10 3 0 2 5 -1 10 -3 6 -8 10 -11 10 -3 0 -2
-4 1 -10z"/>
<path d="M50 25 c0 -3 2 -5 5 -5 3 0 5 2 5 5 0 3 -2 5 -5 5 -3 0 -5 -2 -5 -5z"/>
<path d="M110 25 c0 -3 2 -5 5 -5 3 0 5 2 5 5 0 3 -2 5 -5 5 -3 0 -5 -2 -5 -5z"/>
<path d="M190 25 c0 -3 2 -5 5 -5 3 0 5 2 5 5 0 3 -2 5 -5 5 -3 0 -5 -2 -5 -5z"/>
<path d="M370 25 c0 -3 2 -5 5 -5 3 0 5 2 5 5 0 3 -2 5 -5 5 -3 0 -5 -2 -5 -5z"/>
<path d="M430 25 c0 -3 2 -5 5 -5 3 0 5 2 5 5 0 3 -2 5 -5 5 -3 0 -5 -2 -5 -5z"/>
<path d="M510 25 c0 -3 2 -5 5 -5 3 0 5 2 5 5 0 3 -2 5 -5 5 -3 0 -5 -2 -5 -5z"/>
<path d="M690 25 c0 -3 2 -5 5 -5 3 0 5 2 5 5 0 3 -2 5 -5 5 -3 0 -5 -2 -5 -5z"/>
<path d="M750 25 c0 -3 2 -5 5 -5 3 0 5 2 5 5 0 3 -2 5 -5 5 -3 0 -5 -2 -5 -5z"/>
<path d="M830 25 c0 -3 2 -5 5 -5 3 0 5 2 5 5 0 3 -2 5 -5 5 -3 0 -5 -2 -5 -5z"/>
</g>
<g transform="translate(0.000000,96.000000) scale(0.100000,-0.100000)"
fill="#c2c2c2" stroke="none">
<path d="M22 763 c-2 -45 6 -51 37 -32 13 9 26 9 50 1 18 -7 31 -7 31 -1 0 12
33 12 47 -2 8 -8 17 -7 32 3 17 10 25 10 41 0 33 -20 40 -14 38 31 l-1 42 -4
-37 c-5 -42 -5 -43 -33 -26 -16 10 -24 10 -41 0 -13 -8 -25 -10 -32 -4 -14 11
-126 10 -144 -1 -8 -5 -13 4 -16 30 l-4 38 -1 -42z"/>
<path d="M342 763 c-2 -45 6 -51 37 -32 13 9 26 9 50 1 18 -7 31 -7 31 -1 0
12 33 12 47 -2 8 -8 17 -7 32 3 17 10 25 10 41 0 33 -20 40 -14 38 31 l-1 42
-4 -37 c-5 -42 -5 -43 -33 -26 -16 10 -24 10 -41 0 -13 -8 -25 -10 -32 -4 -14
11 -126 10 -144 -1 -8 -5 -13 4 -16 30 l-4 38 -1 -42z"/>
<path d="M662 763 c-2 -45 6 -51 37 -32 13 9 26 9 50 1 18 -7 31 -7 31 -1 0
12 33 12 47 -2 8 -8 17 -7 32 3 17 10 25 10 41 0 33 -20 40 -14 38 31 l-1 42
-4 -37 c-5 -42 -5 -43 -33 -26 -16 10 -24 10 -41 0 -13 -8 -25 -10 -32 -4 -14
11 -126 10 -144 -1 -8 -5 -13 4 -16 30 l-4 38 -1 -42z"/>
<path d="M22 443 c-2 -45 6 -51 37 -32 13 9 26 9 50 1 18 -7 31 -7 31 -1 0 12
33 12 47 -2 8 -8 17 -7 32 3 17 10 25 10 41 0 33 -20 40 -14 38 31 l-1 42 -4
-37 c-5 -42 -5 -43 -33 -26 -16 10 -24 10 -41 0 -13 -8 -25 -10 -32 -4 -14 11
-126 10 -144 -1 -8 -5 -13 4 -16 30 l-4 38 -1 -42z"/>
<path d="M342 443 c-2 -45 6 -51 37 -32 13 9 26 9 50 1 18 -7 31 -7 31 -1 0
12 33 12 47 -2 8 -8 17 -7 32 3 17 10 25 10 41 0 33 -20 40 -14 38 31 l-1 42
-4 -37 c-5 -42 -5 -43 -33 -26 -16 10 -24 10 -41 0 -13 -8 -25 -10 -32 -4 -14
11 -126 10 -144 -1 -8 -5 -13 4 -16 30 l-4 38 -1 -42z"/>
<path d="M662 443 c-2 -45 6 -51 37 -32 13 9 26 9 50 1 18 -7 31 -7 31 -1 0
12 33 12 47 -2 8 -8 17 -7 32 3 17 10 25 10 41 0 33 -20 40 -14 38 31 l-1 42
-4 -37 c-5 -42 -5 -43 -33 -26 -16 10 -24 10 -41 0 -13 -8 -25 -10 -32 -4 -14
11 -126 10 -144 -1 -8 -5 -13 4 -16 30 l-4 38 -1 -42z"/>
<path d="M22 123 c-2 -45 6 -51 37 -32 13 9 26 9 50 1 18 -7 31 -7 31 -1 0 12
33 12 47 -2 8 -8 17 -7 32 3 17 10 25 10 41 0 33 -20 40 -14 38 31 l-1 42 -4
-37 c-5 -42 -5 -43 -33 -26 -16 10 -24 10 -41 0 -13 -8 -25 -10 -32 -4 -14 11
-126 10 -144 -1 -8 -5 -13 4 -16 30 l-4 38 -1 -42z"/>
<path d="M342 123 c-2 -45 6 -51 37 -32 13 9 26 9 50 1 18 -7 31 -7 31 -1 0
12 33 12 47 -2 8 -8 17 -7 32 3 17 10 25 10 41 0 33 -20 40 -14 38 31 l-1 42
-4 -37 c-5 -42 -5 -43 -33 -26 -16 10 -24 10 -41 0 -13 -8 -25 -10 -32 -4 -14
11 -126 10 -144 -1 -8 -5 -13 4 -16 30 l-4 38 -1 -42z"/>
<path d="M662 123 c-2 -45 6 -51 37 -32 13 9 26 9 50 1 18 -7 31 -7 31 -1 0
12 33 12 47 -2 8 -8 17 -7 32 3 17 10 25 10 41 0 33 -20 40 -14 38 31 l-1 42
-4 -37 c-5 -42 -5 -43 -33 -26 -16 10 -24 10 -41 0 -13 -8 -25 -10 -32 -4 -14
11 -126 10 -144 -1 -8 -5 -13 4 -16 30 l-4 38 -1 -42z"/>
</g>
  </g>
</svg>
