<?xml version="1.0" encoding="UTF-8" standalone="no"?>
<!-- Created with Inkscape (http://www.inkscape.org/) -->

<svg
   xmlns:dc="http://purl.org/dc/elements/1.1/"
   xmlns:cc="http://creativecommons.org/ns#"
   xmlns:rdf="http://www.w3.org/1999/02/22-rdf-syntax-ns#"
   xmlns:svg="http://www.w3.org/2000/svg"
   xmlns="http://www.w3.org/2000/svg"
   xmlns:sodipodi="http://sodipodi.sourceforge.net/DTD/sodipodi-0.dtd"
   xmlns:inkscape="http://www.inkscape.org/namespaces/inkscape"
   width="32px"
   height="32px"
   viewBox="0 0 32px 32px"
   version="1.1"
   id="svgMain"
   inkscape:version="0.92.2 (5c3e80d, 2017-08-06)"
   sodipodi:docname="reference_SVG.svg">
  <defs
     id="defs4542" />
  <sodipodi:namedview
     id="base"
     pagecolor="#ffffff"
     bordercolor="#666666"
     borderopacity="1.0"
     inkscape:pageopacity="0.0"
     inkscape:pageshadow="2"
     inkscape:zoom="1"
     inkscape:cx="0"
     inkscape:cy="0"
     inkscape:document-units="px"
     inkscape:current-layer="layer1"
     showgrid="false"
     units="px"
     inkscape:window-width="1024"
     inkscape:window-height="768"
     inkscape:window-x="-8"
     inkscape:window-y="-8"
     inkscape:window-maximized="1" />
  <metadata
     id="metadata1">
    <rdf:RDF>
      <cc:Work
         rdf:about="">
        <dc:format>image/svg+xml</dc:format>
        <dc:type
           rdf:resource="http://purl.org/dc/dcmitype/StillImage" />
        <dc:title />
      </cc:Work>
    </rdf:RDF>
  </metadata>
  <g transform="translate(-32,-32)"
     inkscape:label="Layer 1"
     inkscape:groupmode="layer"
     id="layer1">
    <!-- INSERT MARKER -->
<g transform="translate(0.000000,96.000000) scale(0.100000,-0.100000)"
fill="#079900" stroke="none">
<path d="M0 867 c0 -4 8 -24 19 -45 36 -72 53 -139 41 -161 -10 -19 -8 -21 20
-21 27 0 30 2 20 20 -8 14 -7 29 5 56 11 28 12 35 2 31 -17 -6 -16 58 2 91 7
13 10 26 7 30 -3 3 -6 1 -6 -4 0 -6 -7 -19 -15 -30 -15 -18 -15 -18 -8 0 4 13
3 17 -5 12 -7 -4 -12 -2 -12 6 0 9 -3 9 -10 -2 -5 -8 -10 -10 -10 -3 0 6 -8
10 -17 9 -10 -2 -21 2 -25 8 -4 6 -8 7 -8 3z m27 -34 c-4 -3 -7 0 -7 7 0 7 3
10 7 7 3 -4 3 -10 0 -14z"/>
<path d="M307 844 c-17 -23 -45 -25 -31 -2 4 6 -2 6 -15 -1 -16 -9 -21 -9 -21
1 0 9 -3 9 -10 -2 -8 -13 -10 -13 -10 -1 0 11 -4 9 -14 -5 -10 -13 -11 -21 -4
-25 6 -4 8 -16 5 -28 -3 -12 -2 -23 3 -26 14 -9 21 -74 10 -95 -10 -18 -8 -20
20 -20 27 0 29 2 21 19 -19 35 14 147 52 179 12 10 18 4 34 -35 38 -89 45
-120 33 -143 -10 -18 -8 -20 20 -20 27 0 30 2 20 20 -8 14 -7 29 5 56 11 28
12 35 2 31 -17 -6 -16 58 2 91 7 13 10 26 7 30 -3 3 -6 1 -6 -4 0 -6 -7 -19
-15 -30 -15 -18 -15 -18 -8 0 4 13 3 17 -5 12 -7 -4 -12 -2 -12 6 0 9 -3 9
-10 -2 -5 -8 -10 -10 -10 -3 0 6 -8 10 -17 9 -10 -2 -20 0 -23 4 -3 4 -13 -3
-23 -16z m40 -11 c-4 -3 -7 0 -7 7 0 7 3 10 7 7 3 -4 3 -10 0 -14z m-67 -27
c0 -3 -5 -8 -12 -12 -7 -4 -8 -3 -4 4 7 12 16 16 16 8z m-20 -31 c0 -3 -2 -5
-5 -5 -3 0 -5 2 -5 5 0 3 2 5 5 5 3 0 5 -2 5 -5z"/>
<path d="M627 844 c-17 -23 -45 -25 -31 -2 4 6 -2 6 -15 -1 -16 -9 -21 -9 -21
1 0 9 -3 9 -10 -2 -8 -13 -10 -13 -10 -1 0 11 -4 9 -14 -5 -10 -13 -11 -21 -4
-25 6 -4 8 -16 5 -28 -3 -12 -2 -23 3 -26 14 -9 21 -74 10 -95 -10 -18 -8 -20
20 -20 27 0 29 2 21 19 -19 35 14 147 52 179 12 10 18 4 34 -35 38 -89 45
-120 33 -143 -10 -18 -8 -20 20 -20 27 0 30 2 20 20 -8 14 -7 29 5 56 11 28
12 35 2 31 -17 -6 -16 58 2 91 7 13 10 26 7 30 -3 3 -6 1 -6 -4 0 -6 -7 -19
-15 -30 -15 -18 -15 -18 -8 0 4 13 3 17 -5 12 -7 -4 -12 -2 -12 6 0 9 -3 9
-10 -2 -5 -8 -10 -10 -10 -3 0 6 -8 10 -17 9 -10 -2 -20 0 -23 4 -3 4 -13 -3
-23 -16z m40 -11 c-4 -3 -7 0 -7 7 0 7 3 10 7 7 3 -4 3 -10 0 -14z m-67 -27
c0 -3 -5 -8 -12 -12 -7 -4 -8 -3 -4 4 7 12 16 16 16 8z m-20 -31 c0 -3 -2 -5
-5 -5 -3 0 -5 2 -5 5 0 3 2 5 5 5 3 0 5 -2 5 -5z"/>
<path d="M185 840 c3 -5 8 -10 11 -10 3 0 2 5 -1 10 -3 6 -8 10 -11 10 -3 0
-2 -4 1 -10z"/>
<path d="M505 840 c3 -5 8 -10 11 -10 3 0 2 5 -1 10 -3 6 -8 10 -11 10 -3 0
-2 -4 1 -10z"/>
<path d="M825 840 c3 -5 8 -10 11 -10 3 0 2 5 -1 10 -3 6 -8 10 -11 10 -3 0
-2 -4 1 -10z"/>
<path d="M842 830 c-9 -14 -9 -20 -1 -20 7 0 9 -10 7 -25 -3 -14 -2 -28 2 -30
14 -9 21 -74 10 -95 -10 -18 -8 -20 20 -20 27 0 29 2 21 19 -19 34 6 125 48
176 16 20 16 20 -6 1 -21 -17 -28 -15 -24 7 1 4 -7 3 -18 -2 -14 -8 -21 -7
-24 2 -4 8 -6 7 -6 -3 -1 -11 -3 -12 -9 -3 -6 9 -11 7 -20 -7z m78 -24 c0 -3
-5 -8 -12 -12 -7 -4 -8 -3 -4 4 7 12 16 16 16 8z m-20 -31 c0 -3 -2 -5 -5 -5
-3 0 -5 2 -5 5 0 3 2 5 5 5 3 0 5 -2 5 -5z"/>
<path d="M145 810 l18 -35 -22 19 c-18 16 -24 17 -34 6 -8 -9 -9 -11 0 -6 6 3
14 2 18 -4 3 -5 1 -10 -5 -10 -8 0 -7 -6 1 -21 21 -40 29 -81 18 -100 -8 -17
-6 -19 20 -19 28 0 30 2 20 24 -8 18 -7 30 5 54 18 36 20 46 6 37 -5 -3 -10 1
-10 10 0 9 4 14 10 10 5 -3 4 9 -2 27 -6 18 -13 27 -16 20 -3 -10 -9 -9 -24 5
l-21 18 18 -35z m35 -15 c0 -3 -2 -5 -5 -5 -3 0 -5 2 -5 5 0 3 2 5 5 5 3 0 5
-2 5 -5z"/>
<path d="M465 810 l18 -35 -22 19 c-18 16 -24 17 -34 6 -8 -9 -9 -11 0 -6 6 3
14 2 18 -4 3 -5 1 -10 -5 -10 -8 0 -7 -6 1 -21 21 -40 29 -81 18 -100 -8 -17
-6 -19 20 -19 28 0 30 2 20 24 -8 18 -7 30 5 54 18 36 20 46 6 37 -5 -3 -10 1
-10 10 0 9 4 14 10 10 5 -3 4 9 -2 27 -6 18 -13 27 -16 20 -3 -10 -9 -9 -24 5
l-21 18 18 -35z m35 -15 c0 -3 -2 -5 -5 -5 -3 0 -5 2 -5 5 0 3 2 5 5 5 3 0 5
-2 5 -5z"/>
<path d="M785 810 l18 -35 -22 19 c-18 16 -24 17 -34 6 -8 -9 -9 -11 0 -6 6 3
14 2 18 -4 3 -5 1 -10 -5 -10 -8 0 -7 -6 1 -21 21 -40 29 -81 18 -100 -8 -17
-6 -19 20 -19 28 0 30 2 20 24 -8 18 -7 30 5 54 18 36 20 46 6 37 -5 -3 -10 1
-10 10 0 9 4 14 10 10 5 -3 4 9 -2 27 -6 18 -13 27 -16 20 -3 -10 -9 -9 -24 5
l-21 18 18 -35z m35 -15 c0 -3 -2 -5 -5 -5 -3 0 -5 2 -5 5 0 3 2 5 5 5 3 0 5
-2 5 -5z"/>
<path d="M0 547 c0 -4 8 -24 19 -45 36 -72 53 -139 41 -161 -10 -19 -8 -21 20
-21 27 0 30 2 20 20 -8 14 -7 29 5 56 11 28 12 35 2 31 -17 -6 -16 58 2 91 7
13 10 26 7 30 -3 3 -6 1 -6 -4 0 -6 -7 -19 -15 -30 -15 -18 -15 -18 -8 0 4 13
3 17 -5 12 -7 -4 -12 -2 -12 6 0 9 -3 9 -10 -2 -5 -8 -10 -10 -10 -3 0 6 -8
10 -17 9 -10 -2 -21 2 -25 8 -4 6 -8 7 -8 3z m27 -34 c-4 -3 -7 0 -7 7 0 7 3
10 7 7 3 -4 3 -10 0 -14z"/>
<path d="M307 524 c-17 -23 -45 -25 -31 -2 4 6 -2 6 -15 -1 -16 -9 -21 -9 -21
1 0 9 -3 9 -10 -2 -8 -13 -10 -13 -10 -1 0 11 -4 9 -14 -5 -10 -13 -11 -21 -4
-25 6 -4 8 -16 5 -28 -3 -12 -2 -23 3 -26 14 -9 21 -74 10 -95 -10 -18 -8 -20
20 -20 27 0 29 2 21 19 -19 35 14 147 52 179 12 10 18 4 34 -35 38 -89 45
-120 33 -143 -10 -18 -8 -20 20 -20 27 0 30 2 20 20 -8 14 -7 29 5 56 11 28
12 35 2 31 -17 -6 -16 58 2 91 7 13 10 26 7 30 -3 3 -6 1 -6 -4 0 -6 -7 -19
-15 -30 -15 -18 -15 -18 -8 0 4 13 3 17 -5 12 -7 -4 -12 -2 -12 6 0 9 -3 9
-10 -2 -5 -8 -10 -10 -10 -3 0 6 -8 10 -17 9 -10 -2 -20 0 -23 4 -3 4 -13 -3
-23 -16z m40 -11 c-4 -3 -7 0 -7 7 0 7 3 10 7 7 3 -4 3 -10 0 -14z m-67 -27
c0 -3 -5 -8 -12 -12 -7 -4 -8 -3 -4 4 7 12 16 16 16 8z m-20 -31 c0 -3 -2 -5
-5 -5 -3 0 -5 2 -5 5 0 3 2 5 5 5 3 0 5 -2 5 -5z"/>
<path d="M627 524 c-17 -23 -45 -25 -31 -2 4 6 -2 6 -15 -1 -16 -9 -21 -9 -21
1 0 9 -3 9 -10 -2 -8 -13 -10 -13 -10 -1 0 11 -4 9 -14 -5 -10 -13 -11 -21 -4
-25 6 -4 8 -16 5 -28 -3 -12 -2 -23 3 -26 14 -9 21 -74 10 -95 -10 -18 -8 -20
20 -20 27 0 29 2 21 19 -19 35 14 147 52 179 12 10 18 4 34 -35 38 -89 45
-120 33 -143 -10 -18 -8 -20 20 -20 27 0 30 2 20 20 -8 14 -7 29 5 56 11 28
12 35 2 31 -17 -6 -16 58 2 91 7 13 10 26 7 30 -3 3 -6 1 -6 -4 0 -6 -7 -19
-15 -30 -15 -18 -15 -18 -8 0 4 13 3 17 -5 12 -7 -4 -12 -2 -12 6 0 9 -3 9
-10 -2 -5 -8 -10 -10 -10 -3 0 6 -8 10 -17 9 -10 -2 -20 0 -23 4 -3 4 -13 -3
-23 -16z m40 -11 c-4 -3 -7 0 -7 7 0 7 3 10 7 7 3 -4 3 -10 0 -14z m-67 -27
c0 -3 -5 -8 -12 -12 -7 -4 -8 -3 -4 4 7 12 16 16 16 8z m-20 -31 c0 -3 -2 -5
-5 -5 -3 0 -5 2 -5 5 0 3 2 5 5 5 3 0 5 -2 5 -5z"/>
<path d="M185 520 c3 -5 8 -10 11 -10 3 0 2 5 -1 10 -3 6 -8 10 -11 10 -3 0
-2 -4 1 -10z"/>
<path d="M505 520 c3 -5 8 -10 11 -10 3 0 2 5 -1 10 -3 6 -8 10 -11 10 -3 0
-2 -4 1 -10z"/>
<path d="M825 520 c3 -5 8 -10 11 -10 3 0 2 5 -1 10 -3 6 -8 10 -11 10 -3 0
-2 -4 1 -10z"/>
<path d="M842 510 c-9 -14 -9 -20 -1 -20 7 0 9 -10 7 -25 -3 -14 -2 -28 2 -30
14 -9 21 -74 10 -95 -10 -18 -8 -20 20 -20 27 0 29 2 21 19 -19 34 6 125 48
176 16 20 16 20 -6 1 -21 -17 -28 -15 -24 7 1 4 -7 3 -18 -2 -14 -8 -21 -7
-24 2 -4 8 -6 7 -6 -3 -1 -11 -3 -12 -9 -3 -6 9 -11 7 -20 -7z m78 -24 c0 -3
-5 -8 -12 -12 -7 -4 -8 -3 -4 4 7 12 16 16 16 8z m-20 -31 c0 -3 -2 -5 -5 -5
-3 0 -5 2 -5 5 0 3 2 5 5 5 3 0 5 -2 5 -5z"/>
<path d="M145 490 l18 -35 -22 19 c-18 16 -24 17 -34 6 -8 -9 -9 -11 0 -6 6 3
14 2 18 -4 3 -5 1 -10 -5 -10 -8 0 -7 -6 1 -21 21 -40 29 -81 18 -100 -8 -17
-6 -19 20 -19 28 0 30 2 20 24 -8 18 -7 30 5 54 18 36 20 46 6 37 -5 -3 -10 1
-10 10 0 9 4 14 10 10 5 -3 4 9 -2 27 -6 18 -13 27 -16 20 -3 -10 -9 -9 -24 5
l-21 18 18 -35z m35 -15 c0 -3 -2 -5 -5 -5 -3 0 -5 2 -5 5 0 3 2 5 5 5 3 0 5
-2 5 -5z"/>
<path d="M465 490 l18 -35 -22 19 c-18 16 -24 17 -34 6 -8 -9 -9 -11 0 -6 6 3
14 2 18 -4 3 -5 1 -10 -5 -10 -8 0 -7 -6 1 -21 21 -40 29 -81 18 -100 -8 -17
-6 -19 20 -19 28 0 30 2 20 24 -8 18 -7 30 5 54 18 36 20 46 6 37 -5 -3 -10 1
-10 10 0 9 4 14 10 10 5 -3 4 9 -2 27 -6 18 -13 27 -16 20 -3 -10 -9 -9 -24 5
l-21 18 18 -35z m35 -15 c0 -3 -2 -5 -5 -5 -3 0 -5 2 -5 5 0 3 2 5 5 5 3 0 5
-2 5 -5z"/>
<path d="M785 490 l18 -35 -22 19 c-18 16 -24 17 -34 6 -8 -9 -9 -11 0 -6 6 3
14 2 18 -4 3 -5 1 -10 -5 -10 -8 0 -7 -6 1 -21 21 -40 29 -81 18 -100 -8 -17
-6 -19 20 -19 28 0 30 2 20 24 -8 18 -7 30 5 54 18 36 20 46 6 37 -5 -3 -10 1
-10 10 0 9 4 14 10 10 5 -3 4 9 -2 27 -6 18 -13 27 -16 20 -3 -10 -9 -9 -24 5
l-21 18 18 -35z m35 -15 c0 -3 -2 -5 -5 -5 -3 0 -5 2 -5 5 0 3 2 5 5 5 3 0 5
-2 5 -5z"/>
<path d="M0 227 c0 -4 8 -24 19 -45 36 -72 53 -139 41 -161 -10 -19 -8 -21 20
-21 27 0 30 2 20 20 -8 14 -7 29 5 56 11 28 12 35 2 31 -17 -6 -16 58 2 91 7
13 10 26 7 30 -3 3 -6 1 -6 -4 0 -6 -7 -19 -15 -30 -15 -18 -15 -18 -8 0 4 13
3 17 -5 12 -7 -4 -12 -2 -12 6 0 9 -3 9 -10 -2 -5 -8 -10 -10 -10 -3 0 6 -8
10 -17 9 -10 -2 -21 2 -25 8 -4 6 -8 7 -8 3z m27 -34 c-4 -3 -7 0 -7 7 0 7 3
10 7 7 3 -4 3 -10 0 -14z"/>
<path d="M307 204 c-17 -23 -45 -25 -31 -2 4 6 -2 6 -15 -1 -16 -9 -21 -9 -21
1 0 9 -3 9 -10 -2 -8 -13 -10 -13 -10 -1 0 11 -4 9 -14 -5 -10 -13 -11 -21 -4
-25 6 -4 8 -16 5 -28 -3 -12 -2 -23 3 -26 14 -9 21 -74 10 -95 -10 -18 -8 -20
20 -20 27 0 29 2 21 19 -19 35 14 147 52 179 12 10 18 4 34 -35 38 -89 45
-120 33 -143 -10 -18 -8 -20 20 -20 27 0 30 2 20 20 -8 14 -7 29 5 56 11 28
12 35 2 31 -17 -6 -16 58 2 91 7 13 10 26 7 30 -3 3 -6 1 -6 -4 0 -6 -7 -19
-15 -30 -15 -18 -15 -18 -8 0 4 13 3 17 -5 12 -7 -4 -12 -2 -12 6 0 9 -3 9
-10 -2 -5 -8 -10 -10 -10 -3 0 6 -8 10 -17 9 -10 -2 -20 0 -23 4 -3 4 -13 -3
-23 -16z m40 -11 c-4 -3 -7 0 -7 7 0 7 3 10 7 7 3 -4 3 -10 0 -14z m-67 -27
c0 -3 -5 -8 -12 -12 -7 -4 -8 -3 -4 4 7 12 16 16 16 8z m-20 -31 c0 -3 -2 -5
-5 -5 -3 0 -5 2 -5 5 0 3 2 5 5 5 3 0 5 -2 5 -5z"/>
<path d="M627 204 c-17 -23 -45 -25 -31 -2 4 6 -2 6 -15 -1 -16 -9 -21 -9 -21
1 0 9 -3 9 -10 -2 -8 -13 -10 -13 -10 -1 0 11 -4 9 -14 -5 -10 -13 -11 -21 -4
-25 6 -4 8 -16 5 -28 -3 -12 -2 -23 3 -26 14 -9 21 -74 10 -95 -10 -18 -8 -20
20 -20 27 0 29 2 21 19 -19 35 14 147 52 179 12 10 18 4 34 -35 38 -89 45
-120 33 -143 -10 -18 -8 -20 20 -20 27 0 30 2 20 20 -8 14 -7 29 5 56 11 28
12 35 2 31 -17 -6 -16 58 2 91 7 13 10 26 7 30 -3 3 -6 1 -6 -4 0 -6 -7 -19
-15 -30 -15 -18 -15 -18 -8 0 4 13 3 17 -5 12 -7 -4 -12 -2 -12 6 0 9 -3 9
-10 -2 -5 -8 -10 -10 -10 -3 0 6 -8 10 -17 9 -10 -2 -20 0 -23 4 -3 4 -13 -3
-23 -16z m40 -11 c-4 -3 -7 0 -7 7 0 7 3 10 7 7 3 -4 3 -10 0 -14z m-67 -27
c0 -3 -5 -8 -12 -12 -7 -4 -8 -3 -4 4 7 12 16 16 16 8z m-20 -31 c0 -3 -2 -5
-5 -5 -3 0 -5 2 -5 5 0 3 2 5 5 5 3 0 5 -2 5 -5z"/>
<path d="M185 200 c3 -5 8 -10 11 -10 3 0 2 5 -1 10 -3 6 -8 10 -11 10 -3 0
-2 -4 1 -10z"/>
<path d="M505 200 c3 -5 8 -10 11 -10 3 0 2 5 -1 10 -3 6 -8 10 -11 10 -3 0
-2 -4 1 -10z"/>
<path d="M825 200 c3 -5 8 -10 11 -10 3 0 2 5 -1 10 -3 6 -8 10 -11 10 -3 0
-2 -4 1 -10z"/>
<path d="M842 190 c-9 -14 -9 -20 -1 -20 7 0 9 -10 7 -25 -3 -14 -2 -28 2 -30
14 -9 21 -74 10 -95 -10 -18 -8 -20 20 -20 27 0 29 2 21 19 -19 34 6 125 48
176 16 20 16 20 -6 1 -21 -17 -28 -15 -24 7 1 4 -7 3 -18 -2 -14 -8 -21 -7
-24 2 -4 8 -6 7 -6 -3 -1 -11 -3 -12 -9 -3 -6 9 -11 7 -20 -7z m78 -24 c0 -3
-5 -8 -12 -12 -7 -4 -8 -3 -4 4 7 12 16 16 16 8z m-20 -31 c0 -3 -2 -5 -5 -5
-3 0 -5 2 -5 5 0 3 2 5 5 5 3 0 5 -2 5 -5z"/>
<path d="M145 170 l18 -35 -22 19 c-18 16 -24 17 -34 6 -8 -9 -9 -11 0 -6 6 3
14 2 18 -4 3 -5 1 -10 -5 -10 -8 0 -7 -6 1 -21 21 -40 29 -81 18 -100 -8 -17
-6 -19 20 -19 28 0 30 2 20 24 -8 18 -7 30 5 54 18 36 20 46 6 37 -5 -3 -10 1
-10 10 0 9 4 14 10 10 5 -3 4 9 -2 27 -6 18 -13 27 -16 20 -3 -10 -9 -9 -24 5
l-21 18 18 -35z m35 -15 c0 -3 -2 -5 -5 -5 -3 0 -5 2 -5 5 0 3 2 5 5 5 3 0 5
-2 5 -5z"/>
<path d="M465 170 l18 -35 -22 19 c-18 16 -24 17 -34 6 -8 -9 -9 -11 0 -6 6 3
14 2 18 -4 3 -5 1 -10 -5 -10 -8 0 -7 -6 1 -21 21 -40 29 -81 18 -100 -8 -17
-6 -19 20 -19 28 0 30 2 20 24 -8 18 -7 30 5 54 18 36 20 46 6 37 -5 -3 -10 1
-10 10 0 9 4 14 10 10 5 -3 4 9 -2 27 -6 18 -13 27 -16 20 -3 -10 -9 -9 -24 5
l-21 18 18 -35z m35 -15 c0 -3 -2 -5 -5 -5 -3 0 -5 2 -5 5 0 3 2 5 5 5 3 0 5
-2 5 -5z"/>
<path d="M785 170 l18 -35 -22 19 c-18 16 -24 17 -34 6 -8 -9 -9 -11 0 -6 6 3
14 2 18 -4 3 -5 1 -10 -5 -10 -8 0 -7 -6 1 -21 21 -40 29 -81 18 -100 -8 -17
-6 -19 20 -19 28 0 30 2 20 24 -8 18 -7 30 5 54 18 36 20 46 6 37 -5 -3 -10 1
-10 10 0 9 4 14 10 10 5 -3 4 9 -2 27 -6 18 -13 27 -16 20 -3 -10 -9 -9 -24 5
l-21 18 18 -35z m35 -15 c0 -3 -2 -5 -5 -5 -3 0 -5 2 -5 5 0 3 2 5 5 5 3 0 5
-2 5 -5z"/>
</g>
<g transform="translate(0.000000,96.000000) scale(0.100000,-0.100000)"
fill="#026701" stroke="none">
<path d="M1 862 c-1 -17 49 -63 60 -56 14 9 10 -3 -7 -20 -14 -15 -14 -16 1
-16 11 0 15 -5 12 -14 -3 -8 -2 -29 3 -47 7 -23 6 -35 -5 -46 -21 -20 -19 -23
15 -23 27 0 30 2 20 20 -8 14 -7 29 4 55 8 19 11 35 5 35 -5 0 -14 -10 -19
-22 -8 -21 -9 -22 -11 -3 -1 18 0 44 4 70 1 5 8 16 15 23 6 7 12 18 12 25 0 6
-7 2 -15 -9 -13 -16 -14 -17 -9 -1 7 19 -15 21 -28 2 -4 -6 -8 -1 -8 10 -1 19
-2 19 -14 3 -12 -17 -14 -16 -24 5 -6 12 -11 16 -11 9z"/>
<path d="M110 865 c0 -3 2 -5 5 -5 3 0 5 2 5 5 0 3 -2 5 -5 5 -3 0 -5 -2 -5
-5z"/>
<path d="M300 835 c-14 -18 -28 -31 -33 -28 -4 2 -6 1 -5 -4 4 -16 -14 -53
-23 -47 -5 3 -7 10 -4 15 4 5 2 9 -4 9 -5 0 -9 -9 -8 -19 0 -11 5 -17 9 -15
20 12 19 -31 -1 -67 l-22 -39 31 0 c27 0 29 2 21 19 -20 36 14 147 53 180 13
11 16 11 16 1 0 -8 3 -11 6 -7 3 3 2 12 -3 20 -6 12 -13 9 -33 -18z"/>
<path d="M430 865 c0 -3 2 -5 5 -5 3 0 5 2 5 5 0 3 -2 5 -5 5 -3 0 -5 -2 -5
-5z"/>
<path d="M620 835 c-14 -18 -29 -31 -35 -27 -5 3 -7 2 -3 -3 4 -4 3 -16 -2
-26 -6 -10 -11 -29 -12 -43 -1 -15 -7 -26 -12 -26 -5 0 -7 -3 -3 -6 3 -4 0
-19 -9 -35 -14 -29 -14 -29 16 -29 27 0 29 2 21 19 -20 36 14 147 53 180 13
11 16 11 16 1 0 -8 3 -11 6 -7 3 3 2 12 -3 20 -6 12 -13 9 -33 -18z"/>
<path d="M750 865 c0 -3 2 -5 5 -5 3 0 5 2 5 5 0 3 -2 5 -5 5 -3 0 -5 -2 -5
-5z"/>
<path d="M356 851 c-4 -6 -2 -18 4 -26 7 -8 10 -15 6 -15 -4 0 1 -11 10 -25 9
-14 14 -32 10 -40 -3 -8 -1 -15 4 -15 15 0 16 54 0 68 -8 8 -10 11 -3 8 13 -7
43 19 43 37 0 6 -7 2 -15 -9 -15 -18 -15 -18 -8 0 4 13 3 17 -4 13 -6 -4 -14
-1 -17 5 -4 7 -4 3 -2 -9 5 -29 -2 -30 -13 -1 -5 15 -10 18 -15 9z"/>
<path d="M679 855 c0 -5 -2 -18 -4 -28 -3 -15 -1 -16 11 -6 13 10 13 8 4 -15
-5 -15 -6 -25 -1 -22 12 8 18 -13 15 -51 -1 -18 2 -30 7 -27 14 9 10 -15 -7
-41 -16 -25 -16 -25 15 -25 28 0 31 2 21 20 -8 14 -7 29 4 55 15 36 5 49 -13
18 -8 -14 -10 -9 -11 25 0 26 6 50 15 58 8 9 15 20 15 27 0 6 -7 2 -15 -9 -15
-18 -15 -18 -8 0 4 13 3 17 -4 13 -6 -4 -14 -1 -16 5 -4 9 -6 8 -6 -2 -1 -13
-2 -13 -11 0 -5 8 -10 11 -11 5z m31 -50 c0 -3 -2 -5 -5 -5 -3 0 -5 2 -5 5 0
3 2 5 5 5 3 0 5 -2 5 -5z m20 -140 c0 -3 -2 -5 -5 -5 -3 0 -5 2 -5 5 0 3 2 5
5 5 3 0 5 -2 5 -5z"/>
<path d="M211 842 c-1 -7 -5 -11 -9 -8 -5 3 -9 -1 -9 -8 0 -8 6 -12 14 -9 9 4
11 0 7 -13 -5 -14 -4 -16 5 -8 8 7 9 18 2 35 -5 13 -10 18 -10 11z"/>
<path d="M507 839 c7 -9 10 -19 6 -23 -4 -4 -1 -4 8 -1 12 4 15 -1 13 -25 -1
-16 2 -30 8 -30 5 0 6 -5 2 -12 -4 -7 -3 -8 4 -4 9 5 9 13 2 27 -6 11 -8 23
-5 28 3 5 1 20 -4 33 -6 12 -10 17 -10 9 -1 -11 -4 -11 -18 0 -16 12 -17 12
-6 -2z"/>
<path d="M820 845 c0 -3 2 -5 5 -5 3 0 5 2 5 5 0 3 -2 5 -5 5 -3 0 -5 -2 -5
-5z"/>
<path d="M847 837 c-4 -10 -2 -17 3 -17 5 0 7 -6 4 -13 -3 -8 4 -13 18 -14 13
-1 18 1 11 5 -7 4 -16 18 -21 31 -7 20 -10 21 -15 8z"/>
<path d="M870 845 c0 -3 2 -5 5 -5 3 0 5 2 5 5 0 3 -2 5 -5 5 -3 0 -5 -2 -5
-5z"/>
<path d="M938 833 c-14 -13 -20 -14 -32 -4 -10 8 -16 9 -21 1 -6 -10 -5 -11
15 -14 13 -1 13 -6 0 -41 -11 -28 -12 -29 -25 -12 -8 12 -15 14 -20 8 -3 -6
-2 -11 4 -11 6 0 8 -8 5 -17 -5 -15 -4 -15 5 -3 21 30 23 -17 1 -59 l-20 -41
30 0 c27 0 29 2 21 19 -19 34 7 128 47 174 19 22 12 22 -10 0z m-38 -8 c0 -3
-2 -5 -5 -5 -3 0 -5 2 -5 5 0 3 2 5 5 5 3 0 5 -2 5 -5z"/>
<path d="M143 820 c8 -14 18 -40 22 -57 4 -18 10 -35 15 -38 5 -3 5 9 -1 27
-5 18 -7 42 -4 53 3 11 2 14 -1 7 -4 -8 -11 -5 -25 10 l-20 23 14 -25z"/>
<path d="M246 832 c-3 -5 1 -9 9 -9 8 0 12 4 9 9 -3 4 -7 8 -9 8 -2 0 -6 -4
-9 -8z"/>
<path d="M463 818 c9 -15 17 -34 17 -43 0 -9 4 -14 9 -10 17 10 8 41 -18 60
l-26 20 18 -27z"/>
<path d="M566 832 c-3 -5 1 -9 9 -9 8 0 12 4 9 9 -3 4 -7 8 -9 8 -2 0 -6 -4
-9 -8z"/>
<path d="M784 820 c23 -36 21 -53 -6 -45 -13 3 -18 3 -13 -2 6 -4 10 -14 11
-20 3 -37 5 -43 14 -43 13 0 9 32 -5 42 -5 4 0 8 12 8 15 0 20 5 19 18 -2 9 1
20 6 23 6 4 6 9 -1 13 -6 4 -11 2 -11 -5 0 -6 -9 -1 -21 12 l-21 24 16 -25z"/>
<path d="M240 800 c0 -7 3 -10 7 -7 3 4 3 10 0 14 -4 3 -7 0 -7 -7z"/>
<path d="M440 805 c0 -3 2 -5 5 -5 3 0 5 2 5 5 0 3 -2 5 -5 5 -3 0 -5 -2 -5
-5z"/>
<path d="M560 800 c0 -7 3 -10 7 -7 3 4 3 10 0 14 -4 3 -7 0 -7 -7z"/>
<path d="M763 793 c4 -3 10 -3 14 0 3 4 0 7 -7 7 -7 0 -10 -3 -7 -7z"/>
<path d="M125 780 c-3 -5 -1 -10 5 -10 6 0 8 -4 5 -10 -3 -5 0 -10 8 -10 10 0
13 7 10 20 -6 22 -18 26 -28 10z"/>
<path d="M445 780 c-3 -5 -1 -10 5 -10 6 0 8 -5 5 -11 -4 -6 3 -21 16 -35 12
-13 18 -24 13 -24 -5 0 -15 -13 -21 -30 -11 -29 -10 -30 18 -30 27 0 29 2 19
21 -7 11 -9 27 -6 34 3 8 1 17 -4 20 -6 4 -10 11 -10 17 0 6 6 6 15 -2 13 -11
14 -10 9 3 -3 8 -12 18 -20 21 -8 3 -14 12 -14 21 0 17 -16 20 -25 5z m32 -37
c-4 -3 -10 -3 -14 0 -3 4 0 7 7 7 7 0 10 -3 7 -7z"/>
<path d="M360 770 c0 -5 5 -10 11 -10 5 0 7 5 4 10 -3 6 -8 10 -11 10 -2 0 -4
-4 -4 -10z"/>
<path d="M685 760 c3 -5 8 -10 11 -10 2 0 4 5 4 10 0 6 -5 10 -11 10 -5 0 -7
-4 -4 -10z"/>
<path d="M190 755 c0 -3 2 -5 5 -5 3 0 5 2 5 5 0 3 -2 5 -5 5 -3 0 -5 -2 -5
-5z"/>
<path d="M413 730 c-3 -11 -9 -18 -13 -15 -5 3 -7 -3 -5 -12 1 -10 -4 -28 -11
-40 -14 -22 -13 -23 16 -23 27 0 30 2 20 20 -8 14 -7 29 4 55 9 21 11 35 5 35
-6 0 -13 -9 -16 -20z"/>
<path d="M814 738 c3 -10 0 -23 -7 -30 -7 -7 -18 -25 -24 -40 -12 -27 -12 -28
18 -28 27 0 29 2 18 21 -8 15 -8 28 -1 44 7 14 7 27 0 36 -8 11 -9 10 -4 -3z"/>
<path d="M147 713 c-3 -3 -3 -11 -1 -18 3 -7 1 -23 -6 -34 -10 -19 -8 -21 20
-21 28 0 30 2 20 21 -7 11 -9 27 -6 34 5 13 -17 28 -27 18z"/>
<path d="M220 715 c0 -3 2 -5 5 -5 3 0 5 2 5 5 0 3 -2 5 -5 5 -3 0 -5 -2 -5
-5z"/>
<path d="M860 715 c0 -3 2 -5 5 -5 3 0 5 2 5 5 0 3 -2 5 -5 5 -3 0 -5 -2 -5
-5z"/>
<path d="M1 547 c-2 -17 20 -47 34 -47 8 0 15 -7 15 -16 0 -9 -5 -13 -12 -9
-7 4 -2 -2 11 -13 15 -12 22 -25 18 -36 -4 -9 -3 -16 2 -16 5 0 11 15 13 34 2
19 0 32 -4 30 -4 -3 -8 0 -8 5 0 6 6 11 14 11 8 0 17 7 20 16 10 26 7 29 -9 8
-15 -18 -15 -18 -8 0 4 13 3 17 -5 12 -7 -4 -12 -1 -13 6 0 7 -4 4 -9 -7 -8
-18 -9 -18 -9 -2 -1 10 -6 15 -11 12 -6 -4 -8 -11 -5 -16 4 -5 2 -9 -3 -9 -5
0 -14 10 -20 23 -6 12 -11 18 -11 14z"/>
<path d="M110 545 c0 -3 2 -5 5 -5 3 0 5 2 5 5 0 3 -2 5 -5 5 -3 0 -5 -2 -5
-5z"/>
<path d="M304 521 c-18 -21 -24 -23 -37 -13 -12 11 -17 11 -23 0 -4 -7 -4 -10
1 -6 4 4 14 3 21 -3 11 -9 11 -15 -1 -33 -8 -12 -16 -33 -19 -46 -2 -15 -9
-24 -17 -22 -11 3 -11 1 -2 -9 9 -9 9 -18 -3 -40 -14 -29 -14 -29 16 -29 27 0
29 2 21 19 -20 36 14 147 53 180 13 11 16 11 16 1 0 -8 3 -11 6 -7 3 3 2 12
-3 20 -6 11 -12 9 -29 -12z m-54 -136 c0 -3 -2 -5 -5 -5 -3 0 -5 2 -5 5 0 3 2
5 5 5 3 0 5 -2 5 -5z"/>
<path d="M430 545 c0 -3 2 -5 5 -5 3 0 5 2 5 5 0 3 -2 5 -5 5 -3 0 -5 -2 -5
-5z"/>
<path d="M620 515 c-14 -18 -29 -31 -35 -27 -5 3 -7 2 -3 -3 4 -4 3 -16 -2
-26 -6 -10 -11 -29 -12 -43 -1 -15 -7 -26 -12 -26 -5 0 -7 -3 -3 -6 3 -4 0
-19 -9 -35 -14 -29 -14 -29 16 -29 27 0 29 2 21 19 -20 36 14 147 53 180 13
11 16 11 16 1 0 -8 3 -11 6 -7 3 3 2 12 -3 20 -6 12 -13 9 -33 -18z"/>
<path d="M750 545 c0 -3 2 -5 5 -5 3 0 5 2 5 5 0 3 -2 5 -5 5 -3 0 -5 -2 -5
-5z"/>
<path d="M356 531 c-4 -6 -2 -18 4 -26 7 -8 10 -15 6 -15 -4 0 1 -11 10 -25 9
-14 14 -32 10 -40 -3 -8 -1 -15 4 -15 15 0 16 54 0 68 -8 8 -10 11 -3 8 13 -7
43 19 43 37 0 6 -7 2 -15 -9 -15 -18 -15 -18 -8 0 4 13 3 17 -4 13 -6 -4 -14
-1 -17 5 -4 7 -4 3 -2 -9 5 -29 -2 -30 -13 -1 -5 15 -10 18 -15 9z"/>
<path d="M679 535 c0 -5 -2 -18 -4 -28 -3 -15 -1 -16 11 -6 13 10 13 8 4 -15
-5 -15 -6 -25 -1 -22 12 8 18 -13 15 -51 -1 -18 2 -30 7 -27 14 9 10 -15 -7
-41 -16 -25 -16 -25 15 -25 28 0 31 2 21 20 -8 14 -7 29 4 55 15 36 5 49 -13
18 -8 -14 -10 -9 -11 25 0 26 6 50 15 58 8 9 15 20 15 27 0 6 -7 2 -15 -9 -15
-18 -15 -18 -8 0 4 13 3 17 -4 13 -6 -4 -14 -1 -16 5 -4 9 -6 8 -6 -2 -1 -13
-2 -13 -11 0 -5 8 -10 11 -11 5z m31 -50 c0 -3 -2 -5 -5 -5 -3 0 -5 2 -5 5 0
3 2 5 5 5 3 0 5 -2 5 -5z m20 -140 c0 -3 -2 -5 -5 -5 -3 0 -5 2 -5 5 0 3 2 5
5 5 3 0 5 -2 5 -5z"/>
<path d="M185 520 c3 -5 8 -10 11 -10 3 0 2 5 -1 10 -3 6 -8 10 -11 10 -3 0
-2 -4 1 -10z"/>
<path d="M212 508 c1 -16 6 -28 10 -28 11 0 10 22 -2 40 -8 11 -9 9 -8 -12z"/>
<path d="M507 519 c7 -9 10 -19 6 -23 -4 -4 -1 -4 8 -1 12 4 15 -1 13 -25 -1
-16 2 -30 8 -30 5 0 6 -5 2 -12 -4 -7 -3 -8 4 -4 9 5 9 13 2 27 -6 11 -8 23
-5 28 3 5 1 20 -4 33 -6 12 -10 17 -10 9 -1 -11 -4 -11 -18 0 -16 12 -17 12
-6 -2z"/>
<path d="M820 525 c0 -3 2 -5 5 -5 3 0 5 2 5 5 0 3 -2 5 -5 5 -3 0 -5 -2 -5
-5z"/>
<path d="M847 517 c-4 -10 -2 -17 3 -17 5 0 7 -6 4 -13 -3 -8 4 -13 18 -14 13
-1 18 1 11 5 -7 4 -16 18 -21 31 -7 20 -10 21 -15 8z"/>
<path d="M870 525 c0 -3 2 -5 5 -5 3 0 5 2 5 5 0 3 -2 5 -5 5 -3 0 -5 -2 -5
-5z"/>
<path d="M938 513 c-14 -13 -20 -14 -32 -4 -10 8 -16 9 -21 1 -6 -10 -5 -11
15 -14 13 -1 13 -6 0 -41 -11 -28 -12 -29 -25 -12 -8 12 -15 14 -20 8 -3 -6
-2 -11 4 -11 6 0 8 -8 5 -17 -5 -15 -4 -15 5 -3 21 30 23 -17 1 -59 l-20 -41
30 0 c27 0 29 2 21 19 -19 34 7 128 47 174 19 22 12 22 -10 0z m-38 -8 c0 -3
-2 -5 -5 -5 -3 0 -5 2 -5 5 0 3 2 5 5 5 3 0 5 -2 5 -5z"/>
<path d="M147 489 c15 -30 10 -56 -6 -30 -6 9 -11 10 -15 2 -12 -18 3 -31 26
-22 29 10 30 43 2 64 l-22 17 15 -31z"/>
<path d="M463 498 c9 -15 17 -34 17 -43 0 -9 4 -14 9 -10 17 10 8 41 -18 60
l-26 20 18 -27z"/>
<path d="M566 512 c-3 -5 1 -9 9 -9 8 0 12 4 9 9 -3 4 -7 8 -9 8 -2 0 -6 -4
-9 -8z"/>
<path d="M784 500 c23 -36 21 -53 -6 -45 -13 3 -18 3 -13 -2 6 -4 10 -14 11
-20 3 -37 5 -43 14 -43 13 0 9 32 -5 42 -5 4 0 8 12 8 15 0 20 5 19 18 -2 9 1
20 6 23 6 4 6 9 -1 13 -6 4 -11 2 -11 -5 0 -6 -9 -1 -21 12 l-21 24 16 -25z"/>
<path d="M190 495 c0 -3 2 -5 5 -5 3 0 5 2 5 5 0 3 -2 5 -5 5 -3 0 -5 -2 -5
-5z"/>
<path d="M240 480 c0 -7 3 -10 7 -7 3 4 3 10 0 14 -4 3 -7 0 -7 -7z"/>
<path d="M440 485 c0 -3 2 -5 5 -5 3 0 5 2 5 5 0 3 -2 5 -5 5 -3 0 -5 -2 -5
-5z"/>
<path d="M560 480 c0 -7 3 -10 7 -7 3 4 3 10 0 14 -4 3 -7 0 -7 -7z"/>
<path d="M763 473 c4 -3 10 -3 14 0 3 4 0 7 -7 7 -7 0 -10 -3 -7 -7z"/>
<path d="M219 451 c6 -10 9 -20 8 -22 -1 -2 0 -3 2 -1 11 7 8 31 -5 36 -11 4
-12 1 -5 -13z"/>
<path d="M445 460 c-3 -5 -1 -10 5 -10 6 0 8 -5 5 -11 -4 -6 3 -21 16 -35 12
-13 18 -24 13 -24 -5 0 -15 -13 -21 -30 -11 -29 -10 -30 18 -30 27 0 29 2 19
21 -7 11 -9 27 -6 34 3 8 1 17 -4 20 -6 4 -10 11 -10 17 0 6 6 6 15 -2 13 -11
14 -10 9 3 -3 8 -12 18 -20 21 -8 3 -14 12 -14 21 0 17 -16 20 -25 5z m32 -37
c-4 -3 -10 -3 -14 0 -3 4 0 7 7 7 7 0 10 -3 7 -7z"/>
<path d="M360 450 c0 -5 5 -10 11 -10 5 0 7 5 4 10 -3 6 -8 10 -11 10 -2 0 -4
-4 -4 -10z"/>
<path d="M43 443 c4 -3 10 -3 14 0 3 4 0 7 -7 7 -7 0 -10 -3 -7 -7z"/>
<path d="M685 440 c3 -5 8 -10 11 -10 2 0 4 5 4 10 0 6 -5 10 -11 10 -5 0 -7
-4 -4 -10z"/>
<path d="M93 410 c-3 -11 -9 -18 -13 -15 -5 3 -7 -3 -5 -12 1 -10 -4 -28 -11
-40 -14 -22 -13 -23 16 -23 27 0 30 2 20 20 -8 14 -7 29 4 55 9 21 11 35 5 35
-6 0 -13 -9 -16 -20z"/>
<path d="M143 417 c2 -7 13 -12 24 -13 12 -1 19 4 17 10 -6 16 -46 18 -41 3z"/>
<path d="M413 410 c-3 -11 -9 -18 -13 -15 -5 3 -7 -3 -5 -12 1 -10 -4 -28 -11
-40 -14 -22 -13 -23 16 -23 27 0 30 2 20 20 -8 14 -7 29 4 55 9 21 11 35 5 35
-6 0 -13 -9 -16 -20z"/>
<path d="M814 418 c3 -10 0 -23 -7 -30 -7 -7 -18 -25 -24 -40 -12 -27 -12 -28
18 -28 27 0 29 2 18 21 -8 15 -8 28 -1 44 7 14 7 27 0 36 -8 11 -9 10 -4 -3z"/>
<path d="M860 395 c0 -3 2 -5 5 -5 3 0 5 2 5 5 0 3 -2 5 -5 5 -3 0 -5 -2 -5
-5z"/>
<path d="M149 383 c-1 -5 -1 -12 0 -16 1 -4 -3 -17 -9 -27 -10 -18 -7 -20 20
-20 28 0 30 2 20 21 -7 11 -9 27 -6 35 3 8 -1 14 -9 14 -8 0 -16 -3 -16 -7z"/>
<path d="M0 225 c0 -5 5 -17 10 -25 5 -8 10 -10 10 -5 0 6 -5 17 -10 25 -5 8
-10 11 -10 5z"/>
<path d="M110 225 c0 -3 2 -5 5 -5 3 0 5 2 5 5 0 3 -2 5 -5 5 -3 0 -5 -2 -5
-5z"/>
<path d="M300 195 c-14 -18 -29 -31 -35 -27 -5 3 -7 2 -3 -3 4 -4 3 -16 -2
-26 -6 -10 -11 -29 -12 -43 -1 -15 -7 -26 -12 -26 -5 0 -7 -3 -3 -6 3 -4 0
-19 -9 -35 -14 -29 -14 -29 16 -29 27 0 29 2 21 19 -20 36 14 147 53 180 13
11 16 11 16 1 0 -8 3 -11 6 -7 3 3 2 12 -3 20 -6 12 -13 9 -33 -18z"/>
<path d="M430 225 c0 -3 2 -5 5 -5 3 0 5 2 5 5 0 3 -2 5 -5 5 -3 0 -5 -2 -5
-5z"/>
<path d="M624 201 c-18 -21 -24 -23 -37 -13 -10 9 -17 10 -22 2 -6 -10 -5 -11
15 -14 12 -1 11 -12 -2 -46 -9 -24 -10 -24 -23 -7 -8 12 -15 14 -20 8 -3 -6
-2 -11 4 -11 6 0 8 -8 5 -17 -5 -15 -4 -15 5 -3 21 30 23 -17 1 -59 l-20 -41
30 0 c27 0 29 2 21 19 -20 36 14 147 53 180 13 11 16 11 16 1 0 -8 3 -11 6 -7
3 3 2 12 -3 20 -6 11 -12 9 -29 -12z m-44 -16 c0 -3 -2 -5 -5 -5 -3 0 -5 2 -5
5 0 3 2 5 5 5 3 0 5 -2 5 -5z"/>
<path d="M750 225 c0 -3 2 -5 5 -5 3 0 5 2 5 5 0 3 -2 5 -5 5 -3 0 -5 -2 -5
-5z"/>
<path d="M36 211 c-4 -6 -2 -18 4 -26 7 -8 10 -15 6 -15 -4 0 1 -11 10 -25 9
-14 14 -32 10 -40 -3 -8 -1 -15 4 -15 15 0 16 54 0 68 -8 8 -10 11 -3 8 13 -7
43 19 43 37 0 6 -7 2 -15 -9 -15 -18 -15 -18 -8 0 4 13 3 17 -4 13 -6 -4 -14
-1 -17 5 -4 7 -4 3 -2 -9 5 -29 -2 -30 -13 -1 -5 15 -10 18 -15 9z"/>
<path d="M359 215 c0 -5 -2 -18 -4 -28 -3 -15 -1 -16 11 -6 13 10 13 8 4 -15
-5 -15 -6 -25 -1 -22 12 8 18 -13 15 -51 -1 -18 2 -30 7 -27 14 9 10 -15 -7
-41 -16 -25 -16 -25 15 -25 28 0 31 2 21 20 -8 14 -7 29 4 55 15 36 5 49 -13
18 -8 -14 -10 -9 -11 25 0 26 6 50 15 58 8 9 15 20 15 27 0 6 -7 2 -15 -9 -15
-18 -15 -18 -8 0 4 13 3 17 -4 13 -6 -4 -14 -1 -16 5 -4 9 -6 8 -6 -2 -1 -13
-2 -13 -11 0 -5 8 -10 11 -11 5z m31 -50 c0 -3 -2 -5 -5 -5 -3 0 -5 2 -5 5 0
3 2 5 5 5 3 0 5 -2 5 -5z m20 -140 c0 -3 -2 -5 -5 -5 -3 0 -5 2 -5 5 0 3 2 5
5 5 3 0 5 -2 5 -5z"/>
<path d="M676 211 c-4 -6 -2 -18 4 -26 7 -8 10 -15 6 -15 -4 0 1 -11 10 -25 9
-14 14 -32 10 -40 -3 -8 -1 -15 4 -15 15 0 16 54 0 68 -8 8 -10 11 -3 8 13 -7
43 19 43 37 0 6 -7 2 -15 -9 -15 -18 -15 -18 -8 0 4 13 3 17 -4 13 -6 -4 -14
-1 -17 5 -4 7 -4 3 -2 -9 5 -29 -2 -30 -13 -1 -5 15 -10 18 -15 9z"/>
<path d="M187 199 c7 -9 10 -19 6 -23 -4 -4 -1 -4 8 -1 12 4 15 -1 13 -25 -1
-16 2 -30 8 -30 5 0 6 -5 2 -12 -4 -7 -3 -8 4 -4 9 5 9 13 2 27 -6 11 -8 23
-5 28 3 5 1 20 -4 33 -6 12 -10 17 -10 9 -1 -11 -4 -11 -18 0 -16 12 -17 12
-6 -2z"/>
<path d="M500 205 c0 -3 2 -5 5 -5 3 0 5 2 5 5 0 3 -2 5 -5 5 -3 0 -5 -2 -5
-5z"/>
<path d="M527 197 c-4 -10 -2 -17 3 -17 5 0 7 -6 4 -13 -3 -8 4 -13 18 -14 13
-1 18 1 11 5 -7 4 -16 18 -21 31 -7 20 -10 21 -15 8z"/>
<path d="M550 205 c0 -3 2 -5 5 -5 3 0 5 2 5 5 0 3 -2 5 -5 5 -3 0 -5 -2 -5
-5z"/>
<path d="M827 199 c7 -9 10 -19 6 -23 -4 -4 -1 -4 8 -1 12 4 15 -1 13 -25 -1
-16 2 -30 8 -30 5 0 6 -5 2 -12 -4 -7 -3 -8 4 -4 9 5 9 13 2 27 -6 11 -8 23
-5 28 3 5 1 20 -4 33 -6 12 -10 17 -10 9 -1 -11 -4 -11 -18 0 -16 12 -17 12
-6 -2z"/>
<path d="M932 185 c-11 -13 -22 -22 -26 -20 -3 3 -4 2 -1 -1 2 -4 0 -15 -5
-25 -6 -10 -11 -29 -12 -43 -1 -15 -7 -26 -12 -26 -5 0 -7 -3 -3 -6 3 -4 0
-19 -9 -35 -14 -29 -14 -29 16 -29 27 0 29 2 21 19 -19 34 7 128 47 174 8 9
12 17 9 17 -3 0 -14 -11 -25 -25z"/>
<path d="M143 178 c9 -15 17 -34 17 -43 0 -9 4 -14 9 -10 17 10 8 41 -18 60
l-26 20 18 -27z"/>
<path d="M246 192 c-3 -5 1 -9 9 -9 8 0 12 4 9 9 -3 4 -7 8 -9 8 -2 0 -6 -4
-9 -8z"/>
<path d="M464 180 c23 -36 21 -53 -6 -45 -13 3 -18 3 -13 -2 6 -4 10 -14 11
-20 3 -37 5 -43 14 -43 13 0 9 32 -5 42 -5 4 0 8 12 8 15 0 20 5 19 18 -2 9 1
20 6 23 6 4 6 9 -1 13 -6 4 -11 2 -11 -5 0 -6 -9 -1 -21 12 l-21 24 16 -25z"/>
<path d="M783 178 c9 -15 17 -34 17 -43 0 -9 4 -14 9 -10 17 10 8 41 -18 60
l-26 20 18 -27z"/>
<path d="M886 192 c-3 -5 1 -9 9 -9 8 0 12 4 9 9 -3 4 -7 8 -9 8 -2 0 -6 -4
-9 -8z"/>
<path d="M120 165 c0 -3 2 -5 5 -5 3 0 5 2 5 5 0 3 -2 5 -5 5 -3 0 -5 -2 -5
-5z"/>
<path d="M240 160 c0 -7 3 -10 7 -7 3 4 3 10 0 14 -4 3 -7 0 -7 -7z"/>
<path d="M760 165 c0 -3 2 -5 5 -5 3 0 5 2 5 5 0 3 -2 5 -5 5 -3 0 -5 -2 -5
-5z"/>
<path d="M880 160 c0 -7 3 -10 7 -7 3 4 3 10 0 14 -4 3 -7 0 -7 -7z"/>
<path d="M443 153 c4 -3 10 -3 14 0 3 4 0 7 -7 7 -7 0 -10 -3 -7 -7z"/>
<path d="M125 140 c-3 -5 -1 -10 5 -10 6 0 8 -5 5 -11 -4 -6 3 -21 16 -35 12
-13 18 -24 13 -24 -5 0 -15 -13 -21 -30 -11 -29 -10 -30 18 -30 27 0 29 2 19
21 -7 11 -9 27 -6 34 3 8 1 17 -4 20 -6 4 -10 11 -10 17 0 6 6 6 15 -2 13 -11
14 -10 9 3 -3 8 -12 18 -20 21 -8 3 -14 12 -14 21 0 17 -16 20 -25 5z m32 -37
c-4 -3 -10 -3 -14 0 -3 4 0 7 7 7 7 0 10 -3 7 -7z"/>
<path d="M765 140 c-3 -5 -1 -10 5 -10 6 0 8 -5 5 -11 -4 -6 3 -21 16 -35 12
-13 18 -24 13 -24 -5 0 -15 -13 -21 -30 -11 -29 -10 -30 18 -30 27 0 29 2 19
21 -7 11 -9 27 -6 34 3 8 1 17 -4 20 -6 4 -10 11 -10 17 0 6 6 6 15 -2 13 -11
14 -10 9 3 -3 8 -12 18 -20 21 -8 3 -14 12 -14 21 0 17 -16 20 -25 5z m32 -37
c-4 -3 -10 -3 -14 0 -3 4 0 7 7 7 7 0 10 -3 7 -7z"/>
<path d="M40 130 c0 -5 5 -10 11 -10 5 0 7 5 4 10 -3 6 -8 10 -11 10 -2 0 -4
-4 -4 -10z"/>
<path d="M680 130 c0 -5 5 -10 11 -10 5 0 7 5 4 10 -3 6 -8 10 -11 10 -2 0 -4
-4 -4 -10z"/>
<path d="M365 120 c3 -5 8 -10 11 -10 2 0 4 5 4 10 0 6 -5 10 -11 10 -5 0 -7
-4 -4 -10z"/>
<path d="M93 90 c-3 -11 -9 -18 -13 -15 -5 3 -7 -3 -5 -12 1 -10 -4 -28 -11
-40 -14 -22 -13 -23 16 -23 27 0 30 2 20 20 -8 14 -7 29 4 55 9 21 11 35 5 35
-6 0 -13 -9 -16 -20z"/>
<path d="M494 98 c3 -10 0 -23 -7 -30 -7 -7 -18 -25 -24 -40 -12 -27 -12 -28
18 -28 27 0 29 2 18 21 -8 15 -8 28 -1 44 7 14 7 27 0 36 -8 11 -9 10 -4 -3z"/>
<path d="M733 90 c-3 -11 -9 -18 -13 -15 -5 3 -7 -3 -5 -12 1 -10 -4 -28 -11
-40 -14 -22 -13 -23 16 -23 27 0 30 2 20 20 -8 14 -7 29 4 55 9 21 11 35 5 35
-6 0 -13 -9 -16 -20z"/>
<path d="M540 75 c0 -3 2 -5 5 -5 3 0 5 2 5 5 0 3 -2 5 -5 5 -3 0 -5 -2 -5 -5z"/>
</g>
<g transform="translate(0.000000,96.000000) scale(0.100000,-0.100000)"
fill="#08c400" stroke="none">
<path d="M1 862 c-1 -17 49 -63 60 -56 14 9 10 -3 -7 -20 -14 -15 -14 -16 1
-16 11 0 15 -6 11 -17 -3 -10 -2 -24 3 -32 6 -10 9 -3 9 20 0 44 4 61 20 77 6
7 12 18 12 25 0 6 -7 2 -15 -9 -13 -16 -14 -17 -9 -1 7 19 -15 21 -28 2 -4 -6
-8 -1 -8 10 -1 19 -2 19 -14 3 -12 -17 -14 -16 -24 5 -6 12 -11 16 -11 9z"/>
<path d="M110 865 c0 -3 2 -5 5 -5 3 0 5 2 5 5 0 3 -2 5 -5 5 -3 0 -5 -2 -5
-5z"/>
<path d="M320 865 c0 -5 5 -17 10 -25 5 -8 10 -10 10 -5 0 6 -5 17 -10 25 -5
8 -10 11 -10 5z"/>
<path d="M430 865 c0 -3 2 -5 5 -5 3 0 5 2 5 5 0 3 -2 5 -5 5 -3 0 -5 -2 -5
-5z"/>
<path d="M640 865 c0 -5 5 -17 10 -25 5 -8 10 -10 10 -5 0 6 -5 17 -10 25 -5
8 -10 11 -10 5z"/>
<path d="M750 865 c0 -3 2 -5 5 -5 3 0 5 2 5 5 0 3 -2 5 -5 5 -3 0 -5 -2 -5
-5z"/>
<path d="M356 851 c-4 -6 -2 -18 4 -26 7 -8 9 -15 5 -15 -4 0 -2 -7 6 -16 10
-13 10 -17 -2 -26 -11 -8 -11 -9 4 -4 12 4 17 0 18 -17 1 -17 3 -15 8 8 5 21
2 34 -9 43 -8 8 -10 11 -3 8 13 -7 43 19 43 37 0 6 -7 2 -15 -9 -15 -18 -15
-18 -8 0 4 13 3 17 -4 13 -6 -4 -14 -1 -17 5 -4 7 -4 3 -2 -9 5 -29 -2 -30
-13 -1 -5 15 -10 18 -15 9z"/>
<path d="M680 855 c-1 -5 -3 -18 -5 -28 -2 -13 0 -15 9 -8 9 7 11 1 11 -24 -1
-20 2 -32 8 -28 6 4 8 0 5 -8 -3 -8 -2 -23 3 -34 5 -14 8 -6 8 28 1 29 7 55
16 63 8 9 15 20 15 27 0 6 -7 2 -15 -9 -15 -18 -15 -18 -8 0 4 13 3 17 -5 12
-7 -4 -12 -2 -12 6 0 10 -2 10 -9 -1 -7 -11 -9 -11 -14 0 -3 8 -6 10 -7 4z
m30 -50 c0 -3 -2 -5 -5 -5 -3 0 -5 2 -5 5 0 3 2 5 5 5 3 0 5 -2 5 -5z"/>
<path d="M211 840 c0 -8 4 -22 9 -30 12 -18 12 -2 0 25 -6 13 -9 15 -9 5z"/>
<path d="M531 840 c0 -8 4 -22 9 -30 12 -18 12 -2 0 25 -6 13 -9 15 -9 5z"/>
<path d="M820 845 c0 -3 2 -5 5 -5 3 0 5 2 5 5 0 3 -2 5 -5 5 -3 0 -5 -2 -5
-5z"/>
<path d="M851 840 c0 -8 4 -22 9 -30 12 -18 12 -2 0 25 -6 13 -9 15 -9 5z"/>
<path d="M143 824 c4 -6 14 -31 21 -55 l14 -44 -2 42 c0 22 -3 40 -5 37 -2 -2
-11 5 -20 14 -9 10 -12 13 -8 6z"/>
<path d="M244 828 c-4 -7 -3 -8 4 -4 12 7 16 16 8 16 -3 0 -8 -5 -12 -12z"/>
<path d="M464 818 c9 -15 16 -34 16 -43 0 -9 4 -14 9 -10 6 3 9 14 8 25 -1 10
-3 17 -5 15 -3 -2 -13 6 -24 18 l-20 22 16 -27z"/>
<path d="M564 828 c-4 -7 -3 -8 4 -4 12 7 16 16 8 16 -3 0 -8 -5 -12 -12z"/>
<path d="M784 820 c9 -13 16 -32 16 -42 0 -10 4 -18 9 -18 5 0 8 8 7 18 -2 9
2 21 8 25 7 6 6 7 -4 4 -8 -2 -23 6 -33 17 -18 21 -18 21 -3 -4z"/>
<path d="M884 828 c-4 -7 -3 -8 4 -4 12 7 16 16 8 16 -3 0 -8 -5 -12 -12z"/>
<path d="M190 815 c0 -3 2 -5 5 -5 3 0 5 2 5 5 0 3 -2 5 -5 5 -3 0 -5 -2 -5
-5z"/>
<path d="M510 815 c0 -3 2 -5 5 -5 3 0 5 2 5 5 0 3 -2 5 -5 5 -3 0 -5 -2 -5
-5z"/>
<path d="M440 805 c0 -3 2 -5 5 -5 3 0 5 2 5 5 0 3 -2 5 -5 5 -3 0 -5 -2 -5
-5z"/>
<path d="M763 793 c4 -3 10 -3 14 0 3 4 0 7 -7 7 -7 0 -10 -3 -7 -7z"/>
<path d="M126 781 c-4 -6 -2 -11 4 -11 6 0 8 -4 5 -10 -3 -5 -1 -10 4 -10 13
0 14 10 2 29 -6 9 -11 10 -15 2z"/>
<path d="M446 781 c-4 -6 -2 -11 4 -11 6 0 8 -4 5 -10 -3 -5 -1 -10 4 -10 13
0 14 10 2 29 -6 9 -11 10 -15 2z"/>
<path d="M220 771 c0 -6 4 -13 10 -16 6 -3 7 1 4 9 -7 18 -14 21 -14 7z"/>
<path d="M540 771 c0 -6 4 -13 10 -16 6 -3 7 1 4 9 -7 18 -14 21 -14 7z"/>
<path d="M765 773 c6 -4 11 -15 13 -23 2 -8 8 -21 13 -30 8 -12 9 -11 4 5 -4
11 -8 27 -9 34 -2 8 -9 17 -17 19 -8 2 -10 0 -4 -5z"/>
<path d="M860 771 c0 -6 4 -13 10 -16 6 -3 7 1 4 9 -7 18 -14 21 -14 7z"/>
<path d="M485 740 c3 -5 8 -10 11 -10 2 0 4 5 4 10 0 6 -5 10 -11 10 -5 0 -7
-4 -4 -10z"/>
<path d="M810 740 c0 -7 3 -10 7 -7 3 4 3 10 0 14 -4 3 -7 0 -7 -7z"/>
<path d="M465 730 c3 -5 8 -10 11 -10 3 0 2 5 -1 10 -3 6 -8 10 -11 10 -3 0
-2 -4 1 -10z"/>
<path d="M100 725 c0 -3 2 -5 5 -5 3 0 5 2 5 5 0 3 -2 5 -5 5 -3 0 -5 -2 -5
-5z"/>
<path d="M150 710 c0 -7 3 -10 7 -7 3 4 3 10 0 14 -4 3 -7 0 -7 -7z"/>
<path d="M390 715 c0 -3 2 -5 5 -5 3 0 5 2 5 5 0 3 -2 5 -5 5 -3 0 -5 -2 -5
-5z"/>
<path d="M55 650 c-4 -6 7 -10 25 -10 18 0 29 4 25 10 -3 6 -15 10 -25 10 -10
0 -22 -4 -25 -10z"/>
<path d="M135 650 c-4 -6 7 -10 25 -10 18 0 29 4 25 10 -3 6 -15 10 -25 10
-10 0 -22 -4 -25 -10z"/>
<path d="M215 649 c-4 -5 8 -9 26 -9 35 0 35 8 1 15 -12 2 -24 0 -27 -6z"/>
<path d="M375 650 c-4 -6 7 -10 25 -10 18 0 29 4 25 10 -3 6 -15 10 -25 10
-10 0 -22 -4 -25 -10z"/>
<path d="M455 650 c-4 -6 7 -10 25 -10 18 0 29 4 25 10 -3 6 -15 10 -25 10
-10 0 -22 -4 -25 -10z"/>
<path d="M534 648 c-3 -4 9 -8 26 -8 17 0 29 4 25 9 -6 11 -44 10 -51 -1z"/>
<path d="M695 650 c-4 -6 7 -10 25 -10 18 0 29 4 25 10 -3 6 -15 10 -25 10
-10 0 -22 -4 -25 -10z"/>
<path d="M775 650 c-4 -6 7 -10 25 -10 18 0 29 4 25 10 -3 6 -15 10 -25 10
-10 0 -22 -4 -25 -10z"/>
<path d="M855 649 c-4 -5 8 -9 26 -9 35 0 35 8 1 15 -12 2 -24 0 -27 -6z"/>
<path d="M1 547 c-2 -17 20 -47 34 -47 8 0 15 -8 15 -18 0 -10 4 -22 9 -27 5
-6 11 -19 13 -30 3 -13 6 -7 9 17 3 20 1 34 -3 32 -4 -3 -8 0 -8 5 0 6 6 11
14 11 8 0 17 7 20 16 10 26 7 29 -9 8 -15 -18 -15 -18 -8 0 4 13 3 17 -5 12
-7 -4 -12 -1 -13 6 0 7 -4 4 -9 -7 -8 -18 -9 -18 -9 -2 -1 10 -6 15 -11 12 -6
-4 -8 -11 -5 -16 4 -5 2 -9 -3 -9 -5 0 -14 10 -20 23 -6 12 -11 18 -11 14z"/>
<path d="M110 545 c0 -3 2 -5 5 -5 3 0 5 2 5 5 0 3 -2 5 -5 5 -3 0 -5 -2 -5
-5z"/>
<path d="M320 545 c0 -5 5 -17 10 -25 5 -8 10 -10 10 -5 0 6 -5 17 -10 25 -5
8 -10 11 -10 5z"/>
<path d="M430 545 c0 -3 2 -5 5 -5 3 0 5 2 5 5 0 3 -2 5 -5 5 -3 0 -5 -2 -5
-5z"/>
<path d="M640 545 c0 -5 5 -17 10 -25 5 -8 10 -10 10 -5 0 6 -5 17 -10 25 -5
8 -10 11 -10 5z"/>
<path d="M750 545 c0 -3 2 -5 5 -5 3 0 5 2 5 5 0 3 -2 5 -5 5 -3 0 -5 -2 -5
-5z"/>
<path d="M356 531 c-4 -6 -2 -18 4 -26 7 -8 9 -15 5 -15 -4 0 -2 -7 6 -16 10
-13 10 -17 -2 -26 -11 -8 -11 -9 4 -4 12 4 17 0 18 -17 1 -17 3 -15 8 8 5 21
2 34 -9 43 -8 8 -10 11 -3 8 13 -7 43 19 43 37 0 6 -7 2 -15 -9 -15 -18 -15
-18 -8 0 4 13 3 17 -4 13 -6 -4 -14 -1 -17 5 -4 7 -4 3 -2 -9 5 -29 -2 -30
-13 -1 -5 15 -10 18 -15 9z"/>
<path d="M680 535 c-1 -5 -3 -18 -5 -28 -2 -13 0 -15 9 -8 9 7 11 1 11 -24 -1
-20 2 -32 8 -28 6 4 8 0 5 -8 -3 -8 -2 -23 3 -34 5 -14 8 -6 8 28 1 29 7 55
16 63 8 9 15 20 15 27 0 6 -7 2 -15 -9 -15 -18 -15 -18 -8 0 4 13 3 17 -5 12
-7 -4 -12 -2 -12 6 0 10 -2 10 -9 -1 -7 -11 -9 -11 -14 0 -3 8 -6 10 -7 4z
m30 -50 c0 -3 -2 -5 -5 -5 -3 0 -5 2 -5 5 0 3 2 5 5 5 3 0 5 -2 5 -5z"/>
<path d="M211 520 c0 -8 4 -22 9 -30 12 -18 12 -2 0 25 -6 13 -9 15 -9 5z"/>
<path d="M531 520 c0 -8 4 -22 9 -30 12 -18 12 -2 0 25 -6 13 -9 15 -9 5z"/>
<path d="M820 525 c0 -3 2 -5 5 -5 3 0 5 2 5 5 0 3 -2 5 -5 5 -3 0 -5 -2 -5
-5z"/>
<path d="M851 520 c0 -8 4 -22 9 -30 12 -18 12 -2 0 25 -6 13 -9 15 -9 5z"/>
<path d="M145 495 c8 -16 15 -36 15 -44 0 -21 13 -4 15 19 1 11 0 18 -3 15 -2
-2 -13 6 -23 18 -19 22 -19 22 -4 -8z"/>
<path d="M244 508 c-4 -7 -3 -8 4 -4 12 7 16 16 8 16 -3 0 -8 -5 -12 -12z"/>
<path d="M464 498 c9 -15 16 -34 16 -43 0 -9 4 -14 9 -10 6 3 9 14 8 25 -1 10
-3 17 -5 15 -3 -2 -13 6 -24 18 l-20 22 16 -27z"/>
<path d="M564 508 c-4 -7 -3 -8 4 -4 12 7 16 16 8 16 -3 0 -8 -5 -12 -12z"/>
<path d="M784 500 c9 -13 16 -32 16 -42 0 -10 4 -18 9 -18 5 0 8 8 7 18 -2 9
2 21 8 25 7 6 6 7 -4 4 -8 -2 -23 6 -33 17 -18 21 -18 21 -3 -4z"/>
<path d="M884 508 c-4 -7 -3 -8 4 -4 7 4 12 9 12 12 0 8 -9 4 -16 -8z"/>
<path d="M190 495 c0 -3 2 -5 5 -5 3 0 5 2 5 5 0 3 -2 5 -5 5 -3 0 -5 -2 -5
-5z"/>
<path d="M510 495 c0 -3 2 -5 5 -5 3 0 5 2 5 5 0 3 -2 5 -5 5 -3 0 -5 -2 -5
-5z"/>
<path d="M440 485 c0 -3 2 -5 5 -5 3 0 5 2 5 5 0 3 -2 5 -5 5 -3 0 -5 -2 -5
-5z"/>
<path d="M30 475 c0 -3 2 -5 5 -5 3 0 5 2 5 5 0 3 -2 5 -5 5 -3 0 -5 -2 -5 -5z"/>
<path d="M763 473 c4 -3 10 -3 14 0 3 4 0 7 -7 7 -7 0 -10 -3 -7 -7z"/>
<path d="M127 464 c-12 -12 22 -64 38 -58 8 4 15 11 15 16 0 6 -6 5 -15 -2 -8
-7 -15 -9 -16 -4 -3 40 -12 58 -22 48z"/>
<path d="M446 461 c-4 -6 -2 -11 4 -11 6 0 8 -4 5 -10 -3 -5 -1 -10 4 -10 13
0 14 10 2 29 -6 9 -11 10 -15 2z"/>
<path d="M220 451 c0 -6 4 -13 10 -16 6 -3 7 1 4 9 -7 18 -14 21 -14 7z"/>
<path d="M540 451 c0 -6 4 -13 10 -16 6 -3 7 1 4 9 -7 18 -14 21 -14 7z"/>
<path d="M765 453 c6 -4 11 -15 13 -23 2 -8 8 -21 13 -30 8 -12 9 -11 4 5 -4
11 -8 27 -9 34 -2 8 -9 17 -17 19 -8 2 -10 0 -4 -5z"/>
<path d="M860 451 c0 -6 4 -13 10 -16 6 -3 7 1 4 9 -7 18 -14 21 -14 7z"/>
<path d="M43 443 c4 -3 10 -3 14 0 3 4 0 7 -7 7 -7 0 -10 -3 -7 -7z"/>
<path d="M485 420 c3 -5 8 -10 11 -10 2 0 4 5 4 10 0 6 -5 10 -11 10 -5 0 -7
-4 -4 -10z"/>
<path d="M810 420 c0 -7 3 -10 7 -7 3 4 3 10 0 14 -4 3 -7 0 -7 -7z"/>
<path d="M465 410 c3 -5 8 -10 11 -10 3 0 2 5 -1 10 -3 6 -8 10 -11 10 -3 0
-2 -4 1 -10z"/>
<path d="M70 395 c0 -3 2 -5 5 -5 3 0 5 2 5 5 0 3 -2 5 -5 5 -3 0 -5 -2 -5 -5z"/>
<path d="M390 395 c0 -3 2 -5 5 -5 3 0 5 2 5 5 0 3 -2 5 -5 5 -3 0 -5 -2 -5
-5z"/>
<path d="M150 385 c0 -3 2 -5 5 -5 3 0 5 2 5 5 0 3 -2 5 -5 5 -3 0 -5 -2 -5
-5z"/>
<path d="M55 330 c-4 -6 7 -10 25 -10 18 0 29 4 25 10 -3 6 -15 10 -25 10 -10
0 -22 -4 -25 -10z"/>
<path d="M135 330 c-4 -6 7 -10 25 -10 18 0 29 4 25 10 -3 6 -15 10 -25 10
-10 0 -22 -4 -25 -10z"/>
<path d="M220 330 c-11 -7 -6 -10 20 -10 26 0 31 3 20 10 -8 5 -17 10 -20 10
-3 0 -12 -5 -20 -10z"/>
<path d="M375 330 c-4 -6 7 -10 25 -10 18 0 29 4 25 10 -3 6 -15 10 -25 10
-10 0 -22 -4 -25 -10z"/>
<path d="M455 330 c-4 -6 7 -10 25 -10 18 0 29 4 25 10 -3 6 -15 10 -25 10
-10 0 -22 -4 -25 -10z"/>
<path d="M534 328 c-3 -4 9 -8 26 -8 17 0 29 4 25 9 -6 11 -44 10 -51 -1z"/>
<path d="M695 330 c-4 -6 7 -10 25 -10 18 0 29 4 25 10 -3 6 -15 10 -25 10
-10 0 -22 -4 -25 -10z"/>
<path d="M775 330 c-4 -6 7 -10 25 -10 18 0 29 4 25 10 -3 6 -15 10 -25 10
-10 0 -22 -4 -25 -10z"/>
<path d="M855 329 c-4 -5 8 -9 26 -9 35 0 35 8 1 15 -12 2 -24 0 -27 -6z"/>
<path d="M0 225 c0 -5 5 -17 10 -25 5 -8 10 -10 10 -5 0 6 -5 17 -10 25 -5 8
-10 11 -10 5z"/>
<path d="M110 225 c0 -3 2 -5 5 -5 3 0 5 2 5 5 0 3 -2 5 -5 5 -3 0 -5 -2 -5
-5z"/>
<path d="M320 225 c0 -5 5 -17 10 -25 5 -8 10 -10 10 -5 0 6 -5 17 -10 25 -5
8 -10 11 -10 5z"/>
<path d="M430 225 c0 -3 2 -5 5 -5 3 0 5 2 5 5 0 3 -2 5 -5 5 -3 0 -5 -2 -5
-5z"/>
<path d="M640 225 c0 -5 5 -17 10 -25 5 -8 10 -10 10 -5 0 6 -5 17 -10 25 -5
8 -10 11 -10 5z"/>
<path d="M750 225 c0 -3 2 -5 5 -5 3 0 5 2 5 5 0 3 -2 5 -5 5 -3 0 -5 -2 -5
-5z"/>
<path d="M36 211 c-4 -6 -2 -18 4 -26 7 -8 9 -15 5 -15 -4 0 -2 -7 6 -16 10
-13 10 -17 -2 -26 -11 -8 -11 -9 4 -4 12 4 17 0 18 -17 1 -17 3 -15 8 8 5 21
2 34 -9 43 -8 8 -10 11 -3 8 13 -7 43 19 43 37 0 6 -7 2 -15 -9 -15 -18 -15
-18 -8 0 4 13 3 17 -4 13 -6 -4 -14 -1 -17 5 -4 7 -4 3 -2 -9 5 -29 -2 -30
-13 -1 -5 15 -10 18 -15 9z"/>
<path d="M360 215 c-1 -5 -3 -18 -5 -28 -2 -13 0 -15 9 -8 9 7 11 1 11 -24 -1
-20 2 -32 8 -28 6 4 8 0 5 -8 -3 -8 -2 -23 3 -34 5 -14 8 -6 8 28 1 29 7 55
16 63 8 9 15 20 15 27 0 6 -7 2 -15 -9 -15 -18 -15 -18 -8 0 4 13 3 17 -5 12
-7 -4 -12 -2 -12 6 0 10 -2 10 -9 -1 -7 -11 -9 -11 -14 0 -3 8 -6 10 -7 4z
m30 -50 c0 -3 -2 -5 -5 -5 -3 0 -5 2 -5 5 0 3 2 5 5 5 3 0 5 -2 5 -5z"/>
<path d="M676 211 c-4 -6 -2 -18 4 -26 7 -8 9 -15 5 -15 -4 0 -2 -7 6 -16 10
-13 10 -17 -2 -26 -11 -8 -11 -9 4 -4 12 4 17 0 18 -17 1 -17 3 -15 8 8 5 21
2 34 -9 43 -8 8 -10 11 -3 8 13 -7 43 19 43 37 0 6 -7 2 -15 -9 -15 -18 -15
-18 -8 0 4 13 3 17 -4 13 -6 -4 -14 -1 -17 5 -4 7 -4 3 -2 -9 5 -29 -2 -30
-13 -1 -5 15 -10 18 -15 9z"/>
<path d="M211 200 c0 -8 4 -22 9 -30 12 -18 12 -2 0 25 -6 13 -9 15 -9 5z"/>
<path d="M500 205 c0 -3 2 -5 5 -5 3 0 5 2 5 5 0 3 -2 5 -5 5 -3 0 -5 -2 -5
-5z"/>
<path d="M531 200 c0 -8 4 -22 9 -30 12 -18 12 -2 0 25 -6 13 -9 15 -9 5z"/>
<path d="M851 200 c0 -8 4 -22 9 -30 12 -18 12 -2 0 25 -6 13 -9 15 -9 5z"/>
<path d="M144 178 c9 -15 16 -34 16 -43 0 -9 4 -14 9 -10 6 3 9 14 8 25 -1 10
-3 17 -5 15 -3 -2 -13 6 -24 18 l-20 22 16 -27z"/>
<path d="M244 188 c-4 -7 -3 -8 4 -4 12 7 16 16 8 16 -3 0 -8 -5 -12 -12z"/>
<path d="M464 180 c9 -13 16 -32 16 -42 0 -10 4 -18 9 -18 5 0 8 8 7 18 -2 9
2 21 8 25 7 6 6 7 -4 4 -8 -2 -23 6 -33 17 -18 21 -18 21 -3 -4z"/>
<path d="M564 188 c-4 -7 -3 -8 4 -4 12 7 16 16 8 16 -3 0 -8 -5 -12 -12z"/>
<path d="M784 178 c9 -15 16 -34 16 -43 0 -9 4 -14 9 -10 6 3 9 14 8 25 -1 10
-3 17 -5 15 -3 -2 -13 6 -24 18 l-20 22 16 -27z"/>
<path d="M884 188 c-4 -7 -3 -8 4 -4 7 4 12 9 12 12 0 8 -9 4 -16 -8z"/>
<path d="M190 175 c0 -3 2 -5 5 -5 3 0 5 2 5 5 0 3 -2 5 -5 5 -3 0 -5 -2 -5
-5z"/>
<path d="M830 175 c0 -3 2 -5 5 -5 3 0 5 2 5 5 0 3 -2 5 -5 5 -3 0 -5 -2 -5
-5z"/>
<path d="M120 165 c0 -3 2 -5 5 -5 3 0 5 2 5 5 0 3 -2 5 -5 5 -3 0 -5 -2 -5
-5z"/>
<path d="M760 165 c0 -3 2 -5 5 -5 3 0 5 2 5 5 0 3 -2 5 -5 5 -3 0 -5 -2 -5
-5z"/>
<path d="M443 153 c4 -3 10 -3 14 0 3 4 0 7 -7 7 -7 0 -10 -3 -7 -7z"/>
<path d="M126 141 c-4 -6 -2 -11 4 -11 6 0 8 -4 5 -10 -3 -5 -1 -10 4 -10 13
0 14 10 2 29 -6 9 -11 10 -15 2z"/>
<path d="M766 141 c-4 -6 -2 -11 4 -11 6 0 8 -4 5 -10 -3 -5 -1 -10 4 -10 13
0 14 10 2 29 -6 9 -11 10 -15 2z"/>
<path d="M220 131 c0 -6 4 -13 10 -16 6 -3 7 1 4 9 -7 18 -14 21 -14 7z"/>
<path d="M445 133 c6 -4 11 -15 13 -23 2 -8 8 -21 13 -30 8 -12 9 -11 4 5 -4
11 -8 27 -9 34 -2 8 -9 17 -17 19 -8 2 -10 0 -4 -5z"/>
<path d="M540 131 c0 -6 4 -13 10 -16 6 -3 7 1 4 9 -7 18 -14 21 -14 7z"/>
<path d="M860 131 c0 -6 4 -13 10 -16 6 -3 7 1 4 9 -7 18 -14 21 -14 7z"/>
<path d="M165 100 c3 -5 8 -10 11 -10 2 0 4 5 4 10 0 6 -5 10 -11 10 -5 0 -7
-4 -4 -10z"/>
<path d="M490 100 c0 -7 3 -10 7 -7 3 4 3 10 0 14 -4 3 -7 0 -7 -7z"/>
<path d="M805 100 c3 -5 8 -10 11 -10 2 0 4 5 4 10 0 6 -5 10 -11 10 -5 0 -7
-4 -4 -10z"/>
<path d="M145 90 c3 -5 8 -10 11 -10 3 0 2 5 -1 10 -3 6 -8 10 -11 10 -3 0 -2
-4 1 -10z"/>
<path d="M785 90 c3 -5 8 -10 11 -10 3 0 2 5 -1 10 -3 6 -8 10 -11 10 -3 0 -2
-4 1 -10z"/>
<path d="M70 75 c0 -3 2 -5 5 -5 3 0 5 2 5 5 0 3 -2 5 -5 5 -3 0 -5 -2 -5 -5z"/>
<path d="M710 75 c0 -3 2 -5 5 -5 3 0 5 2 5 5 0 3 -2 5 -5 5 -3 0 -5 -2 -5 -5z"/>
<path d="M55 10 c-4 -6 7 -10 25 -10 18 0 29 4 25 10 -3 6 -15 10 -25 10 -10
0 -22 -4 -25 -10z"/>
<path d="M135 10 c-4 -6 7 -10 25 -10 18 0 29 4 25 10 -3 6 -15 10 -25 10 -10
0 -22 -4 -25 -10z"/>
<path d="M214 8 c-3 -4 9 -8 26 -8 17 0 29 4 25 9 -6 11 -44 10 -51 -1z"/>
<path d="M375 10 c-4 -6 7 -10 25 -10 18 0 29 4 25 10 -3 6 -15 10 -25 10 -10
0 -22 -4 -25 -10z"/>
<path d="M455 10 c-4 -6 7 -10 25 -10 18 0 29 4 25 10 -3 6 -15 10 -25 10 -10
0 -22 -4 -25 -10z"/>
<path d="M535 9 c-4 -5 8 -9 26 -9 35 0 35 8 1 15 -12 2 -24 0 -27 -6z"/>
<path d="M695 10 c-4 -6 7 -10 25 -10 18 0 29 4 25 10 -3 6 -15 10 -25 10 -10
0 -22 -4 -25 -10z"/>
<path d="M775 10 c-4 -6 7 -10 25 -10 18 0 29 4 25 10 -3 6 -15 10 -25 10 -10
0 -22 -4 -25 -10z"/>
<path d="M854 8 c-3 -4 9 -8 26 -8 17 0 29 4 25 9 -6 11 -44 10 -51 -1z"/>
</g>
<g transform="translate(0.000000,96.000000) scale(0.100000,-0.100000)"
fill="#d6960a" stroke="none">
<path d="M820 845 c0 -3 2 -5 5 -5 3 0 5 2 5 5 0 3 -2 5 -5 5 -3 0 -5 -2 -5
-5z"/>
<path d="M30 825 c0 -3 2 -5 5 -5 3 0 5 2 5 5 0 3 -2 5 -5 5 -3 0 -5 -2 -5 -5z"/>
<path d="M440 805 c0 -3 2 -5 5 -5 3 0 5 2 5 5 0 3 -2 5 -5 5 -3 0 -5 -2 -5
-5z"/>
<path d="M770 795 c0 -3 2 -5 5 -5 3 0 5 2 5 5 0 3 -2 5 -5 5 -3 0 -5 -2 -5
-5z"/>
<path d="M40 775 c0 -3 2 -5 5 -5 3 0 5 2 5 5 0 3 -2 5 -5 5 -3 0 -5 -2 -5 -5z"/>
<path d="M360 765 c0 -3 2 -5 5 -5 3 0 5 2 5 5 0 3 -2 5 -5 5 -3 0 -5 -2 -5
-5z"/>
<path d="M60 735 c0 -3 2 -5 5 -5 3 0 5 2 5 5 0 3 -2 5 -5 5 -3 0 -5 -2 -5 -5z"/>
<path d="M100 725 c0 -3 2 -5 5 -5 3 0 5 2 5 5 0 3 -2 5 -5 5 -3 0 -5 -2 -5
-5z"/>
<path d="M55 650 c-4 -6 7 -10 25 -10 18 0 29 4 25 10 -3 6 -15 10 -25 10 -10
0 -22 -4 -25 -10z"/>
<path d="M135 650 c-4 -6 7 -10 25 -10 18 0 29 4 25 10 -3 6 -15 10 -25 10
-10 0 -22 -4 -25 -10z"/>
<path d="M215 649 c-4 -5 8 -9 26 -9 35 0 35 8 1 15 -12 2 -24 0 -27 -6z"/>
<path d="M375 650 c-4 -6 7 -10 25 -10 18 0 29 4 25 10 -3 6 -15 10 -25 10
-10 0 -22 -4 -25 -10z"/>
<path d="M455 650 c-4 -6 7 -10 25 -10 18 0 29 4 25 10 -3 6 -15 10 -25 10
-10 0 -22 -4 -25 -10z"/>
<path d="M534 648 c-3 -4 9 -8 26 -8 17 0 29 4 25 9 -6 11 -44 10 -51 -1z"/>
<path d="M695 650 c-4 -6 7 -10 25 -10 18 0 29 4 25 10 -3 6 -15 10 -25 10
-10 0 -22 -4 -25 -10z"/>
<path d="M775 650 c-4 -6 7 -10 25 -10 18 0 29 4 25 10 -3 6 -15 10 -25 10
-10 0 -22 -4 -25 -10z"/>
<path d="M855 649 c-4 -5 8 -9 26 -9 35 0 35 8 1 15 -12 2 -24 0 -27 -6z"/>
<path d="M820 525 c0 -3 2 -5 5 -5 3 0 5 2 5 5 0 3 -2 5 -5 5 -3 0 -5 -2 -5
-5z"/>
<path d="M20 505 c0 -3 2 -5 5 -5 3 0 5 2 5 5 0 3 -2 5 -5 5 -3 0 -5 -2 -5 -5z"/>
<path d="M440 485 c0 -3 2 -5 5 -5 3 0 5 2 5 5 0 3 -2 5 -5 5 -3 0 -5 -2 -5
-5z"/>
<path d="M150 475 c0 -3 2 -5 5 -5 3 0 5 2 5 5 0 3 -2 5 -5 5 -3 0 -5 -2 -5
-5z"/>
<path d="M770 475 c0 -3 2 -5 5 -5 3 0 5 2 5 5 0 3 -2 5 -5 5 -3 0 -5 -2 -5
-5z"/>
<path d="M40 445 c0 -3 2 -5 5 -5 3 0 5 2 5 5 0 3 -2 5 -5 5 -3 0 -5 -2 -5 -5z"/>
<path d="M360 445 c0 -3 2 -5 5 -5 3 0 5 2 5 5 0 3 -2 5 -5 5 -3 0 -5 -2 -5
-5z"/>
<path d="M55 330 c-4 -6 7 -10 25 -10 18 0 29 4 25 10 -3 6 -15 10 -25 10 -10
0 -22 -4 -25 -10z"/>
<path d="M135 330 c-4 -6 7 -10 25 -10 18 0 29 4 25 10 -3 6 -15 10 -25 10
-10 0 -22 -4 -25 -10z"/>
<path d="M220 330 c-11 -7 -6 -10 20 -10 26 0 31 3 20 10 -8 5 -17 10 -20 10
-3 0 -12 -5 -20 -10z"/>
<path d="M375 330 c-4 -6 7 -10 25 -10 18 0 29 4 25 10 -3 6 -15 10 -25 10
-10 0 -22 -4 -25 -10z"/>
<path d="M455 330 c-4 -6 7 -10 25 -10 18 0 29 4 25 10 -3 6 -15 10 -25 10
-10 0 -22 -4 -25 -10z"/>
<path d="M534 328 c-3 -4 9 -8 26 -8 17 0 29 4 25 9 -6 11 -44 10 -51 -1z"/>
<path d="M695 330 c-4 -6 7 -10 25 -10 18 0 29 4 25 10 -3 6 -15 10 -25 10
-10 0 -22 -4 -25 -10z"/>
<path d="M775 330 c-4 -6 7 -10 25 -10 18 0 29 4 25 10 -3 6 -15 10 -25 10
-10 0 -22 -4 -25 -10z"/>
<path d="M855 329 c-4 -5 8 -9 26 -9 35 0 35 8 1 15 -12 2 -24 0 -27 -6z"/>
<path d="M500 205 c0 -3 2 -5 5 -5 3 0 5 2 5 5 0 3 -2 5 -5 5 -3 0 -5 -2 -5
-5z"/>
<path d="M120 165 c0 -3 2 -5 5 -5 3 0 5 2 5 5 0 3 -2 5 -5 5 -3 0 -5 -2 -5
-5z"/>
<path d="M760 165 c0 -3 2 -5 5 -5 3 0 5 2 5 5 0 3 -2 5 -5 5 -3 0 -5 -2 -5
-5z"/>
<path d="M450 155 c0 -3 2 -5 5 -5 3 0 5 2 5 5 0 3 -2 5 -5 5 -3 0 -5 -2 -5
-5z"/>
<path d="M40 125 c0 -3 2 -5 5 -5 3 0 5 2 5 5 0 3 -2 5 -5 5 -3 0 -5 -2 -5 -5z"/>
<path d="M680 125 c0 -3 2 -5 5 -5 3 0 5 2 5 5 0 3 -2 5 -5 5 -3 0 -5 -2 -5
-5z"/>
<path d="M55 10 c-4 -6 7 -10 25 -10 18 0 29 4 25 10 -3 6 -15 10 -25 10 -10
0 -22 -4 -25 -10z"/>
<path d="M135 10 c-4 -6 7 -10 25 -10 18 0 29 4 25 10 -3 6 -15 10 -25 10 -10
0 -22 -4 -25 -10z"/>
<path d="M214 8 c-3 -4 9 -8 26 -8 17 0 29 4 25 9 -6 11 -44 10 -51 -1z"/>
<path d="M375 10 c-4 -6 7 -10 25 -10 18 0 29 4 25 10 -3 6 -15 10 -25 10 -10
0 -22 -4 -25 -10z"/>
<path d="M455 10 c-4 -6 7 -10 25 -10 18 0 29 4 25 10 -3 6 -15 10 -25 10 -10
0 -22 -4 -25 -10z"/>
<path d="M535 9 c-4 -5 8 -9 26 -9 35 0 35 8 1 15 -12 2 -24 0 -27 -6z"/>
<path d="M695 10 c-4 -6 7 -10 25 -10 18 0 29 4 25 10 -3 6 -15 10 -25 10 -10
0 -22 -4 -25 -10z"/>
<path d="M775 10 c-4 -6 7 -10 25 -10 18 0 29 4 25 10 -3 6 -15 10 -25 10 -10
0 -22 -4 -25 -10z"/>
<path d="M854 8 c-3 -4 9 -8 26 -8 17 0 29 4 25 9 -6 11 -44 10 -51 -1z"/>
</g>
<g transform="translate(0.000000,96.000000) scale(0.100000,-0.100000)"
fill="#5a3213" stroke="none">
<path d="M820 845 c0 -3 2 -5 5 -5 3 0 5 2 5 5 0 3 -2 5 -5 5 -3 0 -5 -2 -5
-5z"/>
<path d="M30 825 c0 -3 2 -5 5 -5 3 0 5 2 5 5 0 3 -2 5 -5 5 -3 0 -5 -2 -5 -5z"/>
<path d="M440 805 c0 -3 2 -5 5 -5 3 0 5 2 5 5 0 3 -2 5 -5 5 -3 0 -5 -2 -5
-5z"/>
<path d="M770 795 c0 -3 2 -5 5 -5 3 0 5 2 5 5 0 3 -2 5 -5 5 -3 0 -5 -2 -5
-5z"/>
<path d="M40 775 c0 -3 2 -5 5 -5 3 0 5 2 5 5 0 3 -2 5 -5 5 -3 0 -5 -2 -5 -5z"/>
<path d="M360 765 c0 -3 2 -5 5 -5 3 0 5 2 5 5 0 3 -2 5 -5 5 -3 0 -5 -2 -5
-5z"/>
<path d="M60 735 c0 -3 2 -5 5 -5 3 0 5 2 5 5 0 3 -2 5 -5 5 -3 0 -5 -2 -5 -5z"/>
<path d="M100 725 c0 -3 2 -5 5 -5 3 0 5 2 5 5 0 3 -2 5 -5 5 -3 0 -5 -2 -5
-5z"/>
<path d="M57 653 c-3 -5 8 -8 23 -8 15 0 26 3 23 8 -2 4 -13 7 -23 7 -10 0
-21 -3 -23 -7z"/>
<path d="M137 653 c-3 -5 8 -8 23 -8 15 0 26 3 23 8 -2 4 -13 7 -23 7 -10 0
-21 -3 -23 -7z"/>
<path d="M214 648 c-4 -7 -3 -8 4 -4 12 7 16 16 8 16 -3 0 -8 -5 -12 -12z"/>
<path d="M240 655 c0 -3 2 -5 5 -5 3 0 5 2 5 5 0 3 -2 5 -5 5 -3 0 -5 -2 -5
-5z"/>
<path d="M377 653 c-3 -5 8 -8 23 -8 15 0 26 3 23 8 -2 4 -13 7 -23 7 -10 0
-21 -3 -23 -7z"/>
<path d="M457 653 c-3 -5 8 -8 23 -8 15 0 26 3 23 8 -2 4 -13 7 -23 7 -10 0
-21 -3 -23 -7z"/>
<path d="M534 648 c-4 -7 -3 -8 4 -4 12 7 16 16 8 16 -3 0 -8 -5 -12 -12z"/>
<path d="M560 656 c0 -2 7 -7 16 -10 8 -3 12 -2 9 4 -6 10 -25 14 -25 6z"/>
<path d="M697 653 c-3 -5 8 -8 23 -8 15 0 26 3 23 8 -2 4 -13 7 -23 7 -10 0
-21 -3 -23 -7z"/>
<path d="M777 653 c-3 -5 8 -8 23 -8 15 0 26 3 23 8 -2 4 -13 7 -23 7 -10 0
-21 -3 -23 -7z"/>
<path d="M854 648 c-4 -7 -3 -8 4 -4 7 4 12 9 12 12 0 8 -9 4 -16 -8z"/>
<path d="M880 655 c0 -3 2 -5 5 -5 3 0 5 2 5 5 0 3 -2 5 -5 5 -3 0 -5 -2 -5
-5z"/>
<path d="M260 645 c0 -3 2 -5 5 -5 3 0 5 2 5 5 0 3 -2 5 -5 5 -3 0 -5 -2 -5
-5z"/>
<path d="M900 645 c0 -3 2 -5 5 -5 3 0 5 2 5 5 0 3 -2 5 -5 5 -3 0 -5 -2 -5
-5z"/>
<path d="M820 525 c0 -3 2 -5 5 -5 3 0 5 2 5 5 0 3 -2 5 -5 5 -3 0 -5 -2 -5
-5z"/>
<path d="M20 505 c0 -3 2 -5 5 -5 3 0 5 2 5 5 0 3 -2 5 -5 5 -3 0 -5 -2 -5 -5z"/>
<path d="M440 485 c0 -3 2 -5 5 -5 3 0 5 2 5 5 0 3 -2 5 -5 5 -3 0 -5 -2 -5
-5z"/>
<path d="M150 475 c0 -3 2 -5 5 -5 3 0 5 2 5 5 0 3 -2 5 -5 5 -3 0 -5 -2 -5
-5z"/>
<path d="M770 475 c0 -3 2 -5 5 -5 3 0 5 2 5 5 0 3 -2 5 -5 5 -3 0 -5 -2 -5
-5z"/>
<path d="M40 445 c0 -3 2 -5 5 -5 3 0 5 2 5 5 0 3 -2 5 -5 5 -3 0 -5 -2 -5 -5z"/>
<path d="M360 445 c0 -3 2 -5 5 -5 3 0 5 2 5 5 0 3 -2 5 -5 5 -3 0 -5 -2 -5
-5z"/>
<path d="M57 333 c-3 -5 8 -8 23 -8 15 0 26 3 23 8 -2 4 -13 7 -23 7 -10 0
-21 -3 -23 -7z"/>
<path d="M137 333 c-3 -5 8 -8 23 -8 15 0 26 3 23 8 -2 4 -13 7 -23 7 -10 0
-21 -3 -23 -7z"/>
<path d="M233 333 c4 -3 10 -3 14 0 3 4 0 7 -7 7 -7 0 -10 -3 -7 -7z"/>
<path d="M377 333 c-3 -5 8 -8 23 -8 15 0 26 3 23 8 -2 4 -13 7 -23 7 -10 0
-21 -3 -23 -7z"/>
<path d="M457 333 c-3 -5 8 -8 23 -8 15 0 26 3 23 8 -2 4 -13 7 -23 7 -10 0
-21 -3 -23 -7z"/>
<path d="M534 328 c-4 -7 -3 -8 4 -4 12 7 16 16 8 16 -3 0 -8 -5 -12 -12z"/>
<path d="M560 336 c0 -2 7 -7 16 -10 8 -3 12 -2 9 4 -6 10 -25 14 -25 6z"/>
<path d="M697 333 c-3 -5 8 -8 23 -8 15 0 26 3 23 8 -2 4 -13 7 -23 7 -10 0
-21 -3 -23 -7z"/>
<path d="M777 333 c-3 -5 8 -8 23 -8 15 0 26 3 23 8 -2 4 -13 7 -23 7 -10 0
-21 -3 -23 -7z"/>
<path d="M854 328 c-4 -7 -3 -8 4 -4 7 4 12 9 12 12 0 8 -9 4 -16 -8z"/>
<path d="M880 335 c0 -3 2 -5 5 -5 3 0 5 2 5 5 0 3 -2 5 -5 5 -3 0 -5 -2 -5
-5z"/>
<path d="M210 325 c0 -3 2 -5 5 -5 3 0 5 2 5 5 0 3 -2 5 -5 5 -3 0 -5 -2 -5
-5z"/>
<path d="M260 325 c0 -3 2 -5 5 -5 3 0 5 2 5 5 0 3 -2 5 -5 5 -3 0 -5 -2 -5
-5z"/>
<path d="M900 325 c0 -3 2 -5 5 -5 3 0 5 2 5 5 0 3 -2 5 -5 5 -3 0 -5 -2 -5
-5z"/>
<path d="M500 205 c0 -3 2 -5 5 -5 3 0 5 2 5 5 0 3 -2 5 -5 5 -3 0 -5 -2 -5
-5z"/>
<path d="M120 165 c0 -3 2 -5 5 -5 3 0 5 2 5 5 0 3 -2 5 -5 5 -3 0 -5 -2 -5
-5z"/>
<path d="M760 165 c0 -3 2 -5 5 -5 3 0 5 2 5 5 0 3 -2 5 -5 5 -3 0 -5 -2 -5
-5z"/>
<path d="M450 155 c0 -3 2 -5 5 -5 3 0 5 2 5 5 0 3 -2 5 -5 5 -3 0 -5 -2 -5
-5z"/>
<path d="M40 125 c0 -3 2 -5 5 -5 3 0 5 2 5 5 0 3 -2 5 -5 5 -3 0 -5 -2 -5 -5z"/>
<path d="M680 125 c0 -3 2 -5 5 -5 3 0 5 2 5 5 0 3 -2 5 -5 5 -3 0 -5 -2 -5
-5z"/>
<path d="M57 13 c-3 -5 8 -8 23 -8 15 0 26 3 23 8 -6 9 -40 9 -46 0z"/>
<path d="M137 13 c-3 -5 8 -8 23 -8 15 0 26 3 23 8 -2 4 -13 7 -23 7 -10 0
-21 -3 -23 -7z"/>
<path d="M214 8 c-4 -7 -3 -8 4 -4 12 7 16 16 8 16 -3 0 -8 -5 -12 -12z"/>
<path d="M240 16 c0 -2 7 -7 16 -10 8 -3 12 -2 9 4 -6 10 -25 14 -25 6z"/>
<path d="M377 13 c-3 -5 8 -8 23 -8 15 0 26 3 23 8 -2 4 -13 7 -23 7 -10 0
-21 -3 -23 -7z"/>
<path d="M457 13 c-3 -5 8 -8 23 -8 15 0 26 3 23 8 -2 4 -13 7 -23 7 -10 0
-21 -3 -23 -7z"/>
<path d="M534 8 c-4 -7 -3 -8 4 -4 12 7 16 16 8 16 -3 0 -8 -5 -12 -12z"/>
<path d="M560 15 c0 -3 2 -5 5 -5 3 0 5 2 5 5 0 3 -2 5 -5 5 -3 0 -5 -2 -5 -5z"/>
<path d="M697 13 c-3 -5 8 -8 23 -8 15 0 26 3 23 8 -2 4 -13 7 -23 7 -10 0
-21 -3 -23 -7z"/>
<path d="M777 13 c-3 -5 8 -8 23 -8 15 0 26 3 23 8 -2 4 -13 7 -23 7 -10 0
-21 -3 -23 -7z"/>
<path d="M854 8 c-4 -7 -3 -8 4 -4 12 7 16 16 8 16 -3 0 -8 -5 -12 -12z"/>
<path d="M880 16 c0 -2 7 -7 16 -10 8 -3 12 -2 9 4 -6 10 -25 14 -25 6z"/>
<path d="M580 5 c0 -3 2 -5 5 -5 3 0 5 2 5 5 0 3 -2 5 -5 5 -3 0 -5 -2 -5 -5z"/>
</g>
<g transform="translate(0.000000,96.000000) scale(0.100000,-0.100000)"
fill="#41560d" stroke="none">
<path d="M820 845 c0 -3 2 -5 5 -5 3 0 5 2 5 5 0 3 -2 5 -5 5 -3 0 -5 -2 -5
-5z"/>
<path d="M30 825 c0 -3 2 -5 5 -5 3 0 5 2 5 5 0 3 -2 5 -5 5 -3 0 -5 -2 -5 -5z"/>
<path d="M440 805 c0 -3 2 -5 5 -5 3 0 5 2 5 5 0 3 -2 5 -5 5 -3 0 -5 -2 -5
-5z"/>
<path d="M770 795 c0 -3 2 -5 5 -5 3 0 5 2 5 5 0 3 -2 5 -5 5 -3 0 -5 -2 -5
-5z"/>
<path d="M40 775 c0 -3 2 -5 5 -5 3 0 5 2 5 5 0 3 -2 5 -5 5 -3 0 -5 -2 -5 -5z"/>
<path d="M360 765 c0 -3 2 -5 5 -5 3 0 5 2 5 5 0 3 -2 5 -5 5 -3 0 -5 -2 -5
-5z"/>
<path d="M60 735 c0 -3 2 -5 5 -5 3 0 5 2 5 5 0 3 -2 5 -5 5 -3 0 -5 -2 -5 -5z"/>
<path d="M100 725 c0 -3 2 -5 5 -5 3 0 5 2 5 5 0 3 -2 5 -5 5 -3 0 -5 -2 -5
-5z"/>
<path d="M68 653 c6 -2 18 -2 25 0 6 3 1 5 -13 5 -14 0 -19 -2 -12 -5z"/>
<path d="M220 655 c0 -3 2 -5 5 -5 3 0 5 2 5 5 0 3 -2 5 -5 5 -3 0 -5 -2 -5
-5z"/>
<path d="M388 653 c6 -2 18 -2 25 0 6 3 1 5 -13 5 -14 0 -19 -2 -12 -5z"/>
<path d="M563 653 c4 -3 10 -3 14 0 3 4 0 7 -7 7 -7 0 -10 -3 -7 -7z"/>
<path d="M708 653 c6 -2 18 -2 25 0 6 3 1 5 -13 5 -14 0 -19 -2 -12 -5z"/>
<path d="M860 655 c0 -3 2 -5 5 -5 3 0 5 2 5 5 0 3 -2 5 -5 5 -3 0 -5 -2 -5
-5z"/>
<path d="M880 655 c0 -3 2 -5 5 -5 3 0 5 2 5 5 0 3 -2 5 -5 5 -3 0 -5 -2 -5
-5z"/>
<path d="M820 525 c0 -3 2 -5 5 -5 3 0 5 2 5 5 0 3 -2 5 -5 5 -3 0 -5 -2 -5
-5z"/>
<path d="M20 505 c0 -3 2 -5 5 -5 3 0 5 2 5 5 0 3 -2 5 -5 5 -3 0 -5 -2 -5 -5z"/>
<path d="M440 485 c0 -3 2 -5 5 -5 3 0 5 2 5 5 0 3 -2 5 -5 5 -3 0 -5 -2 -5
-5z"/>
<path d="M150 475 c0 -3 2 -5 5 -5 3 0 5 2 5 5 0 3 -2 5 -5 5 -3 0 -5 -2 -5
-5z"/>
<path d="M770 475 c0 -3 2 -5 5 -5 3 0 5 2 5 5 0 3 -2 5 -5 5 -3 0 -5 -2 -5
-5z"/>
<path d="M40 445 c0 -3 2 -5 5 -5 3 0 5 2 5 5 0 3 -2 5 -5 5 -3 0 -5 -2 -5 -5z"/>
<path d="M360 445 c0 -3 2 -5 5 -5 3 0 5 2 5 5 0 3 -2 5 -5 5 -3 0 -5 -2 -5
-5z"/>
<path d="M68 333 c6 -2 18 -2 25 0 6 3 1 5 -13 5 -14 0 -19 -2 -12 -5z"/>
<path d="M230 335 c0 -3 2 -5 5 -5 3 0 5 2 5 5 0 3 -2 5 -5 5 -3 0 -5 -2 -5
-5z"/>
<path d="M388 333 c6 -2 18 -2 25 0 6 3 1 5 -13 5 -14 0 -19 -2 -12 -5z"/>
<path d="M563 333 c4 -3 10 -3 14 0 3 4 0 7 -7 7 -7 0 -10 -3 -7 -7z"/>
<path d="M708 333 c6 -2 18 -2 25 0 6 3 1 5 -13 5 -14 0 -19 -2 -12 -5z"/>
<path d="M860 335 c0 -3 2 -5 5 -5 3 0 5 2 5 5 0 3 -2 5 -5 5 -3 0 -5 -2 -5
-5z"/>
<path d="M880 335 c0 -3 2 -5 5 -5 3 0 5 2 5 5 0 3 -2 5 -5 5 -3 0 -5 -2 -5
-5z"/>
<path d="M500 205 c0 -3 2 -5 5 -5 3 0 5 2 5 5 0 3 -2 5 -5 5 -3 0 -5 -2 -5
-5z"/>
<path d="M120 165 c0 -3 2 -5 5 -5 3 0 5 2 5 5 0 3 -2 5 -5 5 -3 0 -5 -2 -5
-5z"/>
<path d="M760 165 c0 -3 2 -5 5 -5 3 0 5 2 5 5 0 3 -2 5 -5 5 -3 0 -5 -2 -5
-5z"/>
<path d="M450 155 c0 -3 2 -5 5 -5 3 0 5 2 5 5 0 3 -2 5 -5 5 -3 0 -5 -2 -5
-5z"/>
<path d="M40 125 c0 -3 2 -5 5 -5 3 0 5 2 5 5 0 3 -2 5 -5 5 -3 0 -5 -2 -5 -5z"/>
<path d="M680 125 c0 -3 2 -5 5 -5 3 0 5 2 5 5 0 3 -2 5 -5 5 -3 0 -5 -2 -5
-5z"/>
<path d="M68 13 c6 -2 18 -2 25 0 6 3 1 5 -13 5 -14 0 -19 -2 -12 -5z"/>
<path d="M243 13 c4 -3 10 -3 14 0 3 4 0 7 -7 7 -7 0 -10 -3 -7 -7z"/>
<path d="M388 13 c6 -2 18 -2 25 0 6 3 1 5 -13 5 -14 0 -19 -2 -12 -5z"/>
<path d="M540 15 c0 -3 2 -5 5 -5 3 0 5 2 5 5 0 3 -2 5 -5 5 -3 0 -5 -2 -5 -5z"/>
<path d="M560 15 c0 -3 2 -5 5 -5 3 0 5 2 5 5 0 3 -2 5 -5 5 -3 0 -5 -2 -5 -5z"/>
<path d="M708 13 c6 -2 18 -2 25 0 6 3 1 5 -13 5 -14 0 -19 -2 -12 -5z"/>
<path d="M883 13 c4 -3 10 -3 14 0 3 4 0 7 -7 7 -7 0 -10 -3 -7 -7z"/>
</g>
  </g>
</svg>
