<?xml version="1.0" encoding="UTF-8" standalone="no"?>
<!-- Created with Inkscape (http://www.inkscape.org/) -->

<svg
   xmlns:dc="http://purl.org/dc/elements/1.1/"
   xmlns:cc="http://creativecommons.org/ns#"
   xmlns:rdf="http://www.w3.org/1999/02/22-rdf-syntax-ns#"
   xmlns:svg="http://www.w3.org/2000/svg"
   xmlns="http://www.w3.org/2000/svg"
   xmlns:sodipodi="http://sodipodi.sourceforge.net/DTD/sodipodi-0.dtd"
   xmlns:inkscape="http://www.inkscape.org/namespaces/inkscape"
   width="16px"
   height="16px"
   viewBox="0 0 16px 16px"
   version="1.1"
   id="svgMain"
   inkscape:version="0.92.2 (5c3e80d, 2017-08-06)"
   sodipodi:docname="reference_SVG.svg">
  <defs
     id="defs4542" />
  <sodipodi:namedview
     id="base"
     pagecolor="#ffffff"
     bordercolor="#666666"
     borderopacity="1.0"
     inkscape:pageopacity="0.0"
     inkscape:pageshadow="2"
     inkscape:zoom="1"
     inkscape:cx="0"
     inkscape:cy="0"
     inkscape:document-units="px"
     inkscape:current-layer="layer1"
     showgrid="false"
     units="px"
     inkscape:window-width="1024"
     inkscape:window-height="768"
     inkscape:window-x="-8"
     inkscape:window-y="-8"
     inkscape:window-maximized="1" />
  <metadata
     id="metadata1">
    <rdf:RDF>
      <cc:Work
         rdf:about="">
        <dc:format>image/svg+xml</dc:format>
        <dc:type
           rdf:resource="http://purl.org/dc/dcmitype/StillImage" />
        <dc:title />
      </cc:Work>
    </rdf:RDF>
  </metadata>
  <g transform="translate(-16,-16) scale(0.5,0.5)"
     inkscape:label="Layer 1"
     inkscape:groupmode="layer"
     id="layer1">
    <!-- INSERT MARKER -->
<g transform="translate(0.000000,96.000000) scale(0.100000,-0.100000)"
fill="#395d39" stroke="none">
<path d="M0 480 l0 -480 480 0 480 0 0 480 0 480 -480 0 -480 0 0 -480z"/>
</g>
<g transform="translate(0.000000,96.000000) scale(0.100000,-0.100000)"
fill="#939393" stroke="none">
<path d="M0 937 c0 -15 9 -28 24 -35 20 -9 27 -7 42 9 9 10 23 19 29 19 7 0
15 7 19 15 4 12 -5 15 -54 15 -56 0 -60 -1 -60 -23z"/>
<path d="M168 953 c15 -6 16 -30 0 -35 -7 -3 -5 -7 6 -11 9 -4 15 -3 11 2 -3
5 -1 12 5 16 5 3 10 0 10 -8 0 -24 27 -27 46 -6 21 24 31 24 79 0 l39 -19 33
27 c18 14 33 29 33 34 0 4 -62 7 -137 6 -76 0 -132 -3 -125 -6z"/>
<path d="M498 941 c12 -10 22 -23 22 -29 0 -20 21 -24 40 -7 26 23 48 24 89 4
35 -17 35 -17 73 14 21 17 38 32 38 34 0 2 -64 3 -142 3 -139 0 -141 0 -120
-19z"/>
<path d="M780 955 c0 -3 2 -5 5 -5 3 0 5 2 5 5 0 3 -2 5 -5 5 -3 0 -5 -2 -5
-5z"/>
<path d="M812 941 c7 -11 15 -18 19 -15 4 2 9 -5 12 -16 6 -24 25 -22 48 5 14
17 20 18 43 7 24 -11 26 -10 26 13 0 25 -2 25 -80 25 -77 0 -80 -1 -68 -19z"/>
<path d="M119 923 c-8 -9 -9 -14 -3 -10 6 3 11 0 11 -8 0 -12 -3 -12 -14 -3
-11 9 -17 8 -24 -3 -12 -19 -11 -49 1 -49 22 0 7 -27 -35 -63 -30 -26 -45 -33
-45 -23 0 8 8 23 19 33 26 25 41 57 33 70 -4 6 -18 13 -32 14 -25 4 -25 3 -25
-66 0 -67 1 -70 23 -68 13 2 21 -1 17 -6 -3 -5 5 -13 17 -17 15 -4 26 -1 36
12 9 12 13 14 10 4 -5 -16 18 -39 40 -40 8 0 29 14 48 32 25 24 31 35 23 45
-6 7 -15 10 -20 7 -5 -3 -9 -1 -9 4 0 5 -10 9 -22 8 -13 -1 -22 -7 -21 -14 2
-6 -3 -9 -11 -6 -8 3 -17 1 -21 -5 -3 -6 -10 -11 -15 -11 -13 0 -5 30 9 40 8
4 11 12 8 17 -3 5 8 24 24 42 22 26 26 37 18 47 -6 7 -8 18 -4 24 10 17 -22
11 -36 -7z m91 -157 c0 -3 -5 -8 -12 -12 -7 -4 -8 -3 -4 4 7 12 16 16 16 8z"/>
<path d="M431 921 c-14 -12 -20 -25 -15 -32 4 -8 3 -9 -4 -5 -18 11 -14 -23 4
-42 15 -14 15 -16 -2 -23 -11 -4 -35 -24 -54 -44 -30 -32 -32 -36 -12 -30 16
4 24 2 28 -10 5 -11 14 -15 29 -11 14 4 28 0 35 -9 17 -20 42 -19 62 4 9 10
24 24 34 29 18 10 18 12 -3 34 -17 16 -23 18 -23 8 0 -13 -2 -13 -9 -1 -5 8
-16 11 -26 8 -9 -4 -13 -12 -9 -18 4 -8 3 -9 -5 -5 -15 10 -43 -13 -34 -27 3
-6 1 -7 -5 -3 -14 8 -10 45 5 54 6 4 13 17 17 28 4 12 17 34 31 50 18 21 21
32 14 46 -13 23 -30 23 -58 -1z m53 -7 c3 -8 2 -12 -4 -9 -6 3 -10 10 -10 16
0 14 7 11 14 -7z m-37 -16 c-3 -8 -6 -5 -6 6 -1 11 2 17 5 13 3 -3 4 -12 1
-19z m70 -150 c-3 -8 -6 -5 -6 6 -1 11 2 17 5 13 3 -3 4 -12 1 -19z"/>
<path d="M745 915 c-29 -28 -31 -50 -9 -73 14 -13 14 -17 3 -20 -8 -3 -31 -20
-51 -40 -43 -41 -60 -38 -25 4 54 65 54 89 -1 97 -18 3 -40 11 -48 18 -11 9
-19 7 -39 -15 -13 -14 -30 -26 -37 -26 -9 0 -9 3 2 10 12 8 9 10 -11 10 -15 0
-32 -7 -39 -15 -10 -12 -8 -18 11 -34 13 -11 35 -26 48 -33 21 -11 25 -10 42
11 16 19 17 27 7 40 -7 9 -8 13 -4 9 5 -4 15 -3 23 4 7 6 16 9 19 6 7 -8 -28
-71 -49 -86 -16 -13 -16 -14 5 -31 16 -14 30 -16 54 -11 24 6 37 4 46 -7 6 -8
22 -13 35 -10 13 2 28 -2 34 -9 6 -8 19 -14 29 -14 19 0 53 33 45 43 -3 4 -2
5 2 2 3 -3 12 0 20 7 11 9 11 14 -3 29 -21 24 -64 25 -64 3 0 -13 -3 -14 -14
-5 -11 9 -15 8 -21 -6 -5 -10 -7 -22 -6 -28 1 -5 -3 -5 -10 2 -10 10 -9 16 2
29 9 12 10 15 2 10 -7 -4 -13 -2 -13 3 0 6 4 11 10 11 5 0 18 17 29 38 11 21
27 44 35 51 12 10 13 18 5 32 -13 26 -35 24 -64 -6z m52 -2 c-4 -3 -7 0 -7 7
0 7 3 10 7 7 3 -4 3 -10 0 -14z m-27 -3 c0 -5 -5 -10 -11 -10 -5 0 -7 5 -4 10
3 6 8 10 11 10 2 0 4 -4 4 -10z m-229 -83 c-10 -9 -11 -8 -5 6 3 10 9 15 12
12 3 -3 0 -11 -7 -18z m296 -44 c-4 -3 -10 -3 -14 0 -3 4 0 7 7 7 7 0 10 -3 7
-7z m-7 -18 c0 -3 -2 -5 -5 -5 -3 0 -5 2 -5 5 0 3 2 5 5 5 3 0 5 -2 5 -5z m20
0 c0 -3 -2 -5 -5 -5 -3 0 -5 2 -5 5 0 3 2 5 5 5 3 0 5 -2 5 -5z"/>
<path d="M260 890 c-8 -15 -17 -18 -40 -13 -18 3 -36 0 -45 -7 -16 -13 -21
-32 -7 -28 4 1 20 -10 36 -25 35 -33 50 -34 70 -5 12 17 13 25 4 37 -7 9 -8
13 -4 9 5 -4 15 -3 23 4 7 6 16 9 18 6 8 -8 -27 -72 -46 -86 -17 -12 -17 -14
4 -35 20 -21 24 -22 40 -9 9 8 17 20 17 27 0 7 11 24 25 39 14 15 25 30 26 34
0 4 2 15 4 25 2 12 -3 17 -18 18 -36 1 -59 7 -70 18 -16 16 -25 14 -37 -9z
m-30 -30 c0 -5 -2 -10 -4 -10 -3 0 -8 5 -11 10 -3 6 -1 10 4 10 6 0 11 -4 11
-10z m-3 -27 c-4 -3 -10 -3 -14 0 -3 4 0 7 7 7 7 0 10 -3 7 -7z"/>
<path d="M900 890 c-8 -15 -17 -19 -32 -14 -21 6 -68 -13 -68 -28 0 -4 3 -7 8
-6 4 1 20 -10 36 -25 35 -33 50 -34 70 -5 12 17 13 25 3 37 -7 8 -7 12 -2 9 6
-4 19 0 30 8 19 14 19 14 -1 29 -26 19 -31 19 -44 -5z m20 5 c0 -3 -2 -5 -5
-5 -3 0 -5 2 -5 5 0 3 2 5 5 5 3 0 5 -2 5 -5z m-50 -47 c0 -12 -3 -18 -7 -14
-11 10 -12 36 -2 36 5 0 9 -10 9 -22z"/>
<path d="M942 826 c-7 -17 -22 -36 -33 -43 -18 -14 -18 -15 11 -40 17 -14 34
-23 37 -19 4 3 0 6 -8 6 -11 0 -11 2 -1 9 9 5 12 25 10 62 -3 53 -4 54 -16 25z"/>
<path d="M100 785 c0 -3 2 -5 5 -5 3 0 5 2 5 5 0 3 -2 5 -5 5 -3 0 -5 -2 -5
-5z"/>
<path d="M250 732 c0 -6 -6 -9 -13 -6 -8 3 -24 -4 -38 -14 -21 -18 -22 -22 -9
-38 14 -16 13 -17 -5 -12 -27 7 -53 -18 -27 -26 10 -3 26 -19 35 -36 20 -33
33 -34 58 -6 16 20 17 20 66 -1 l49 -20 39 33 40 34 -27 0 c-33 0 -63 39 -53
70 6 18 3 20 -24 18 -26 -2 -29 -5 -24 -29 4 -20 -1 -30 -18 -43 -26 -18 -65
-21 -74 -6 -4 6 6 10 22 10 32 1 65 22 55 36 -15 21 -52 46 -52 36z m0 -27 c0
-3 -2 -5 -5 -5 -3 0 -5 2 -5 5 0 3 2 5 5 5 3 0 5 -2 5 -5z"/>
<path d="M543 724 c-40 -17 -48 -31 -31 -51 11 -14 10 -16 -7 -11 -11 3 -26
-1 -33 -9 -11 -11 -10 -14 5 -20 23 -9 43 -28 43 -43 0 -22 30 -22 48 0 l18
22 50 -20 50 -19 40 33 c39 34 39 34 12 34 -15 0 -33 9 -41 20 -8 11 -17 17
-21 13 -4 -4 -3 5 3 19 12 31 7 36 -32 36 -19 0 -25 -4 -19 -12 5 -6 12 -21
15 -33 4 -18 1 -23 -13 -23 -11 0 -22 -4 -25 -10 -3 -5 -17 -10 -30 -10 -13 0
-27 5 -30 10 -3 6 5 10 19 10 58 0 71 23 34 57 -21 18 -26 19 -55 7z m24 -21
c-4 -3 -7 0 -7 7 0 7 3 10 7 7 3 -4 3 -10 0 -14z"/>
<path d="M865 726 c-44 -24 -46 -26 -34 -48 10 -18 9 -20 -8 -16 -10 3 -24 -1
-31 -8 -9 -10 -7 -14 8 -19 11 -4 20 -12 20 -18 0 -7 9 -19 20 -27 24 -17 26
-30 4 -30 -8 0 -22 -6 -30 -14 -15 -16 -19 -27 -6 -23 4 1 21 -10 37 -25 36
-34 49 -35 69 -6 12 17 13 25 3 37 -7 8 -7 12 -2 9 6 -4 19 0 30 8 19 14 19
14 -1 29 -25 19 -31 19 -44 -5 -6 -11 -15 -20 -20 -20 -18 0 -10 26 13 48 21
20 25 21 45 6 21 -15 22 -14 22 22 0 30 -3 35 -17 29 -37 -14 -71 -17 -77 -6
-5 7 3 11 22 11 38 0 60 24 42 46 -21 25 -44 32 -65 20z m32 -13 c-4 -3 -10
-3 -14 0 -3 4 0 7 7 7 7 0 10 -3 7 -7z m-57 -168 c0 -3 -2 -5 -5 -5 -3 0 -5 2
-5 5 0 3 2 5 5 5 3 0 5 -2 5 -5z m26 -20 c1 -8 -2 -15 -6 -15 -5 0 -8 9 -7 20
1 21 10 18 13 -5z"/>
<path d="M7 724 c-4 -4 -7 -35 -7 -69 0 -55 3 -63 23 -72 19 -9 29 -5 62 23
38 32 39 34 15 34 -36 1 -56 21 -56 55 0 29 -21 45 -37 29z"/>
<path d="M706 695 c-14 -37 32 -58 69 -31 18 13 18 14 -4 26 -19 9 -25 9 -31
0 -6 -9 -10 -8 -17 5 -10 16 -10 16 -17 0z"/>
<path d="M64 688 c-8 -13 15 -38 35 -38 10 0 25 6 36 13 14 11 15 16 5 22 -19
12 -70 14 -76 3z"/>
<path d="M383 687 c-7 -12 17 -37 36 -37 10 0 26 6 36 14 18 13 18 14 -2 24
-22 12 -62 12 -70 -1z"/>
<path d="M950 685 c0 -3 2 -5 5 -5 3 0 5 2 5 5 0 3 -2 5 -5 5 -3 0 -5 -2 -5
-5z"/>
<path d="M117 613 c-9 -2 -15 -9 -12 -14 4 -5 1 -9 -5 -9 -7 0 -9 -7 -6 -16 3
-8 2 -12 -4 -9 -6 3 -10 -3 -10 -14 0 -12 5 -21 10 -21 21 0 6 -27 -36 -64
-31 -27 -44 -34 -44 -23 0 9 8 24 19 34 26 25 41 57 33 70 -4 6 -18 13 -32 14
-25 4 -25 3 -28 -70 l-3 -73 26 6 c18 5 27 2 31 -9 4 -8 18 -15 34 -15 16 0
32 -4 35 -10 10 -16 39 -12 57 9 9 10 24 24 34 30 18 11 18 12 -3 30 -25 21
-70 22 -65 1 3 -11 0 -11 -12 -1 -12 10 -16 8 -21 -8 -3 -12 -11 -21 -16 -21
-16 0 -10 37 7 44 9 3 14 12 12 18 -4 12 0 19 28 51 5 7 13 20 17 30 4 11 12
15 19 11 7 -4 4 2 -6 14 -19 22 -26 24 -59 15z m43 -8 c0 -3 -2 -5 -5 -5 -3 0
-5 2 -5 5 0 3 2 5 5 5 3 0 5 -2 5 -5z m-33 -22 c-4 -3 -7 0 -7 7 0 7 3 10 7 7
3 -4 3 -10 0 -14z m70 -155 c-3 -7 -5 -2 -5 12 0 14 2 19 5 13 2 -7 2 -19 0
-25z m-87 -13 c0 -3 -2 -5 -5 -5 -3 0 -5 2 -5 5 0 3 2 5 5 5 3 0 5 -2 5 -5z"/>
<path d="M450 608 c0 -6 -3 -9 -6 -5 -10 10 -36 -22 -28 -34 4 -8 3 -9 -4 -5
-15 9 -15 -9 -1 -32 10 -16 4 -26 -37 -66 -36 -35 -43 -46 -26 -41 15 4 24 1
28 -10 5 -11 14 -15 29 -11 14 4 28 0 35 -9 19 -23 42 -18 78 19 l32 32 -21
20 c-14 12 -19 13 -14 4 8 -13 6 -13 -8 -1 -19 15 -52 7 -41 -10 4 -8 3 -9 -5
-5 -15 10 -43 -13 -34 -27 3 -6 1 -7 -5 -3 -15 9 -10 45 8 56 7 4 10 12 7 17
-3 5 10 26 28 48 27 30 32 42 24 57 -11 20 -39 25 -39 6z m34 -14 c3 -8 2 -12
-4 -9 -6 3 -10 10 -10 16 0 14 7 11 14 -7z m-37 -21 c-4 -3 -7 0 -7 7 0 7 3
10 7 7 3 -4 3 -10 0 -14z m70 -145 c-3 -8 -6 -5 -6 6 -1 11 2 17 5 13 3 -3 4
-12 1 -19z"/>
<path d="M760 610 c-8 -5 -10 -10 -4 -10 6 0 11 -7 11 -15 0 -11 -3 -12 -14
-3 -11 9 -17 8 -24 -3 -13 -21 -11 -38 7 -57 15 -14 15 -16 -2 -23 -24 -9 -95
-84 -72 -76 10 3 24 -1 33 -9 9 -9 24 -14 35 -11 11 3 24 -1 31 -9 6 -8 19
-14 29 -14 21 0 53 34 43 45 -5 4 -3 5 3 2 19 -11 34 15 21 33 -18 22 -67 26
-67 4 0 -13 -3 -14 -15 -4 -12 10 -15 10 -15 -4 0 -9 -5 -16 -11 -16 -5 0 -7
-6 -3 -12 5 -10 4 -10 -6 -1 -11 10 -11 15 0 28 7 8 9 15 4 15 -5 0 -4 4 1 8
6 4 22 30 37 57 14 28 32 49 39 47 8 -2 6 5 -5 17 -21 23 -33 26 -56 11z m40
-15 c0 -3 -2 -5 -5 -5 -3 0 -5 2 -5 5 0 3 2 5 5 5 3 0 5 -2 5 -5z m37 -152
c-4 -3 -7 0 -7 7 0 7 3 10 7 7 3 -4 3 -10 0 -14z"/>
<path d="M260 571 c-8 -15 -17 -19 -43 -15 -25 4 -35 1 -45 -15 -7 -12 -9 -20
-5 -19 5 1 21 -9 36 -24 31 -29 53 -30 73 -3 11 14 11 22 2 34 -7 9 -8 13 -4
9 5 -4 15 -3 23 4 37 30 20 -21 -23 -72 l-22 -25 31 -25 c17 -14 28 -20 24
-14 -4 7 0 14 8 18 8 3 15 12 15 20 0 8 11 25 24 38 14 13 27 35 30 51 4 22 1
27 -17 28 -36 1 -59 7 -70 18 -16 16 -25 14 -37 -8z m-35 -51 c3 -5 4 -10 1
-10 -3 0 -8 5 -11 10 -3 6 -4 10 -1 10 3 0 8 -4 11 -10z"/>
<path d="M580 570 c-8 -15 -17 -18 -40 -13 -30 5 -60 -9 -60 -30 0 -6 2 -8 5
-5 3 3 20 -8 36 -23 37 -35 53 -36 73 -7 12 17 13 25 4 37 -7 9 -8 13 -4 9 5
-4 15 -3 23 4 7 6 16 9 19 6 6 -7 -36 -81 -53 -91 -9 -6 -3 -16 22 -38 43 -38
45 -69 8 -86 -33 -16 -60 -17 -68 -3 -3 6 5 10 19 10 58 0 71 22 33 58 -22 21
-25 21 -55 6 -39 -19 -47 -31 -33 -48 9 -11 4 -15 -21 -21 -32 -6 -32 -7 -10
-17 12 -6 22 -16 22 -22 0 -7 9 -18 20 -26 24 -17 26 -30 4 -30 -8 0 -22 -6
-30 -14 -15 -16 -19 -27 -6 -23 4 1 21 -10 37 -25 36 -34 49 -35 69 -6 12 17
13 25 4 37 -7 9 -8 13 -4 9 5 -4 15 -3 23 4 7 6 16 9 18 6 8 -7 -25 -68 -36
-68 -6 0 -8 -4 -5 -9 3 -5 -2 -12 -11 -15 -13 -5 -10 -11 18 -32 45 -33 50
-78 11 -93 -23 -8 -17 -10 36 -10 l62 -1 -16 25 c-9 14 -13 32 -9 45 6 18 3
21 -17 19 -12 -2 -24 0 -25 4 -4 12 19 67 28 67 10 0 29 33 34 61 3 15 -2 19
-21 19 -37 0 -38 0 -63 17 -23 15 -26 15 -39 -5 -8 -12 -18 -22 -23 -22 -16 0
-10 23 12 46 l21 22 46 -23 c47 -24 47 -24 68 -4 25 23 53 27 34 4 -6 -8 -8
-20 -4 -26 4 -8 3 -9 -4 -5 -17 10 -15 -22 2 -40 16 -16 36 -19 36 -5 0 5 11
22 24 38 17 20 22 34 16 43 -5 8 -6 18 -4 22 6 10 34 -16 34 -31 0 -19 21 -23
40 -6 23 20 51 26 68 12 9 -7 12 -1 12 28 0 31 -3 36 -17 30 -37 -14 -71 -17
-77 -6 -5 7 3 11 22 11 16 0 35 7 42 15 11 13 9 20 -10 40 -19 20 -26 22 -49
12 -46 -19 -57 -33 -40 -53 13 -16 12 -17 -6 -12 -11 3 -26 -1 -33 -9 -8 -7
-8 -13 -2 -13 5 0 10 -4 10 -10 0 -5 -7 -10 -15 -10 -13 0 -20 -19 -16 -43 1
-5 -2 -6 -7 -3 -5 3 -8 19 -7 36 1 25 -2 30 -21 30 -13 0 -29 9 -37 20 -8 11
-17 17 -21 13 -4 -4 -2 5 3 20 15 39 15 40 -20 33 -17 -3 -29 -2 -27 2 3 4 11
22 18 40 8 17 18 32 22 32 12 0 37 55 30 67 -4 6 -22 13 -41 16 -18 3 -38 10
-44 16 -16 16 -25 14 -37 -9z m-40 -25 c0 -3 -2 -5 -5 -5 -3 0 -5 2 -5 5 0 3
2 5 5 5 3 0 5 -2 5 -5z m10 -24 c0 -6 -4 -12 -8 -15 -5 -3 -9 1 -9 9 0 8 4 15
9 15 4 0 8 -4 8 -9z m20 -116 c0 -3 -2 -5 -5 -5 -3 0 -5 2 -5 5 0 3 2 5 5 5 3
0 5 -2 5 -5z m330 -5 c0 -5 -5 -10 -11 -10 -5 0 -7 5 -4 10 3 6 8 10 11 10 2
0 4 -4 4 -10z m-330 -15 c0 -3 -2 -5 -5 -5 -3 0 -5 2 -5 5 0 3 2 5 5 5 3 0 5
-2 5 -5z m234 -111 c3 -8 2 -12 -4 -9 -6 3 -10 10 -10 16 0 14 7 11 14 -7z
m-284 -49 c0 -3 -2 -5 -5 -5 -3 0 -5 2 -5 5 0 3 2 5 5 5 3 0 5 -2 5 -5z m26
-20 c1 -8 -2 -15 -6 -15 -5 0 -8 9 -7 20 1 21 10 18 13 -5z"/>
<path d="M940 505 c-5 -14 -14 -25 -20 -25 -6 0 -9 -4 -6 -9 3 -5 -2 -12 -11
-15 -13 -5 -10 -11 17 -31 19 -14 35 -25 35 -25 1 0 3 29 4 65 2 69 -3 81 -19
40z"/>
<path d="M17 409 c-13 -8 -17 -24 -17 -73 0 -56 2 -64 24 -74 19 -9 28 -7 44
9 23 21 42 25 42 9 0 -5 -5 -10 -11 -10 -6 0 -8 -7 -5 -16 3 -8 2 -12 -4 -9
-6 3 -10 -1 -10 -9 0 -8 5 -18 10 -21 13 -8 13 -35 0 -35 -5 0 -25 -17 -45
-37 -25 -28 -35 -33 -35 -21 0 9 11 27 24 40 14 13 27 35 30 49 4 24 1 28 -26
31 -36 6 -40 -2 -36 -78 3 -54 5 -59 26 -59 12 0 26 -6 31 -14 5 -8 16 -11 28
-7 12 4 25 1 33 -9 17 -20 42 -19 62 4 9 10 24 24 34 29 18 10 18 12 -3 34
-17 16 -23 18 -23 8 0 -13 -2 -13 -9 -1 -5 8 -16 11 -26 8 -9 -4 -13 -12 -9
-18 4 -8 3 -9 -5 -5 -15 10 -43 -13 -34 -27 3 -6 1 -7 -5 -3 -7 4 -10 17 -8
29 3 12 5 26 5 30 1 5 6 5 13 1 7 -5 9 -2 6 7 -3 9 8 32 27 54 28 31 32 42 24
58 -8 14 -17 17 -36 12 -20 -5 -24 -3 -20 9 5 12 0 16 -17 16 -31 0 -59 41
-50 75 7 27 -1 30 -29 14z m13 -64 c0 -3 -2 -5 -5 -5 -3 0 -5 2 -5 5 0 3 2 5
5 5 3 0 5 -2 5 -5z m134 -71 c3 -8 2 -12 -4 -9 -6 3 -10 10 -10 16 0 14 7 11
14 -7z m-34 1 c0 -3 -2 -5 -5 -5 -3 0 -5 2 -5 5 0 3 2 5 5 5 3 0 5 -2 5 -5z
m0 -20 c0 -3 -2 -5 -5 -5 -3 0 -5 2 -5 5 0 3 2 5 5 5 3 0 5 -2 5 -5z m67 -147
c-3 -8 -6 -5 -6 6 -1 11 2 17 5 13 3 -3 4 -12 1 -19z"/>
<path d="M223 404 c-40 -17 -48 -31 -31 -51 11 -15 10 -16 -10 -11 -12 4 -20
2 -16 -3 3 -5 -3 -9 -13 -9 -16 -1 -16 -2 2 -12 27 -16 45 -34 45 -47 0 -19
21 -23 40 -6 26 23 48 24 89 4 l35 -17 39 32 39 31 -26 3 c-32 4 -60 43 -51
72 5 16 2 20 -15 20 -21 0 -41 -34 -33 -56 8 -22 -79 -45 -92 -24 -3 6 5 10
19 10 58 0 71 23 34 57 -21 18 -26 19 -55 7z m24 -21 c-4 -3 -7 0 -7 7 0 7 3
10 7 7 3 -4 3 -10 0 -14z"/>
<path d="M706 375 c-14 -37 32 -58 69 -31 18 13 18 14 -3 25 -13 7 -27 9 -33
5 -6 -4 -15 -1 -19 6 -5 8 -9 7 -14 -5z"/>
<path d="M64 368 c-8 -13 15 -38 35 -38 10 0 25 6 36 13 14 11 15 16 5 22 -19
12 -70 14 -76 3z"/>
<path d="M385 370 c-8 -14 13 -40 32 -40 8 0 24 5 35 11 21 11 21 12 3 25 -22
17 -61 18 -70 4z"/>
<path d="M950 365 c0 -3 2 -5 5 -5 3 0 5 2 5 5 0 3 -2 5 -5 5 -3 0 -5 -2 -5
-5z"/>
<path d="M440 290 c-8 -5 -10 -10 -4 -10 6 0 11 -7 11 -15 0 -11 -3 -12 -14
-3 -11 9 -17 8 -24 -3 -13 -21 -11 -38 7 -57 15 -14 15 -16 -2 -23 -24 -9 -95
-84 -72 -76 10 3 24 -1 33 -9 9 -9 24 -14 35 -11 11 3 24 -1 31 -9 6 -8 19
-14 29 -14 21 0 53 34 43 45 -5 4 -3 5 3 2 19 -11 34 15 21 33 -18 22 -67 26
-67 4 0 -13 -3 -14 -15 -4 -12 10 -15 10 -15 -4 0 -9 -5 -16 -11 -16 -5 0 -7
-6 -3 -12 5 -10 4 -10 -6 -1 -11 10 -11 15 0 28 7 8 9 15 4 15 -5 0 -4 4 1 8
6 4 22 30 37 57 14 28 32 49 39 47 8 -2 6 5 -5 17 -21 23 -33 26 -56 11z m40
-15 c0 -3 -2 -5 -5 -5 -3 0 -5 2 -5 5 0 3 2 5 5 5 3 0 5 -2 5 -5z m37 -152
c-4 -3 -7 0 -7 7 0 7 3 10 7 7 3 -4 3 -10 0 -14z"/>
<path d="M253 245 c-12 -14 -27 -25 -35 -25 -10 0 -9 3 2 10 12 8 9 10 -11 10
-15 0 -32 -7 -39 -15 -10 -12 -8 -18 11 -34 13 -11 35 -26 48 -33 21 -11 25
-10 42 11 16 19 17 27 7 40 -7 9 -8 13 -4 9 5 -4 15 -3 23 4 7 6 16 9 19 6 7
-8 -28 -71 -49 -86 -16 -13 -16 -14 5 -32 28 -22 55 -11 64 25 3 14 10 25 15
25 13 0 38 55 31 67 -4 6 -22 13 -41 16 -18 3 -38 10 -44 16 -15 15 -19 14
-44 -14z m-32 -58 c-10 -9 -11 -8 -5 6 3 10 9 15 12 12 3 -3 0 -11 -7 -18z"/>
<path d="M893 245 c-12 -14 -27 -25 -35 -25 -10 0 -9 3 2 10 12 8 9 10 -11 10
-15 0 -32 -7 -39 -15 -10 -12 -8 -18 11 -34 13 -11 35 -26 48 -33 21 -11 25
-10 42 11 16 19 17 26 7 39 -7 9 -8 13 -3 10 6 -4 19 0 30 8 19 14 19 14 -1
29 -25 19 -25 19 -51 -10z m-32 -58 c-10 -9 -11 -8 -5 6 3 10 9 15 12 12 3 -3
0 -11 -7 -18z"/>
<path d="M940 185 c-8 -16 -22 -37 -31 -45 -16 -14 -14 -17 17 -43 19 -16 34
-24 34 -18 0 6 -6 11 -12 11 -10 0 -10 2 0 9 9 5 12 25 10 62 l-3 54 -15 -30z"/>
<path d="M685 139 c-33 -34 -36 -40 -17 -34 16 4 24 2 28 -10 5 -11 14 -15 29
-11 14 4 28 0 35 -9 17 -20 42 -19 62 4 9 10 24 24 34 29 18 10 18 12 -3 34
-17 16 -23 18 -23 8 0 -13 -2 -13 -9 -1 -5 8 -16 11 -26 8 -9 -4 -13 -12 -9
-18 4 -8 3 -9 -5 -5 -15 10 -43 -13 -34 -27 3 -6 1 -7 -5 -3 -7 4 -10 17 -8
29 3 12 5 26 5 30 1 5 6 5 11 2 6 -3 10 -1 10 4 0 24 -38 9 -75 -30z m152 -31
c-3 -8 -6 -5 -6 6 -1 11 2 17 5 13 3 -3 4 -12 1 -19z"/>
<path d="M223 84 c-40 -17 -48 -31 -31 -51 11 -14 10 -16 -7 -11 -11 3 -26 -1
-33 -9 -11 -11 -5 -13 33 -13 28 0 44 4 40 10 -3 6 5 10 19 10 58 0 71 23 34
57 -21 18 -26 19 -55 7z m24 -21 c-4 -3 -7 0 -7 7 0 7 3 10 7 7 3 -4 3 -10 0
-14z"/>
<path d="M543 84 c-40 -17 -48 -31 -31 -51 11 -14 10 -16 -7 -11 -11 3 -26 -1
-33 -9 -11 -11 -5 -13 33 -13 28 0 44 4 40 10 -4 6 6 10 23 10 16 0 35 7 42
16 11 13 10 19 -11 38 -22 22 -26 23 -56 10z m37 -4 c0 -5 -5 -10 -11 -10 -5
0 -7 5 -4 10 3 6 8 10 11 10 2 0 4 -4 4 -10z"/>
<path d="M863 84 c-40 -17 -48 -31 -31 -51 11 -14 10 -16 -7 -11 -11 3 -26 -1
-33 -9 -11 -11 -5 -13 33 -13 28 0 44 4 40 10 -3 6 5 10 19 10 58 0 71 23 34
57 -21 18 -26 19 -55 7z m24 -21 c-4 -3 -7 0 -7 7 0 7 3 10 7 7 3 -4 3 -10 0
-14z"/>
<path d="M7 83 c-4 -3 -7 -24 -7 -45 0 -37 1 -38 35 -38 35 0 35 0 19 25 -9
14 -13 32 -9 45 5 15 2 20 -13 20 -10 0 -22 -3 -25 -7z"/>
<path d="M310 76 c15 -15 12 -56 -4 -56 -8 0 -18 -4 -21 -10 -4 -6 15 -10 49
-10 53 0 55 1 44 19 -7 11 -16 17 -20 15 -4 -3 -3 7 2 21 14 36 14 35 -25 33
-25 -1 -33 -4 -25 -12z"/>
<path d="M386 55 c-14 -37 32 -58 69 -31 18 13 18 14 -3 25 -13 7 -27 9 -33 5
-6 -4 -15 -1 -19 6 -5 8 -9 7 -14 -5z"/>
<path d="M63 47 c-7 -12 17 -37 36 -37 10 0 26 6 36 14 18 13 18 14 -2 24 -22
12 -62 12 -70 -1z"/>
<path d="M703 47 c-7 -12 17 -37 36 -37 10 0 26 6 36 14 18 13 18 14 -2 24
-22 12 -62 12 -70 -1z"/>
<path d="M925 10 c-3 -5 3 -10 14 -10 12 0 21 5 21 10 0 6 -6 10 -14 10 -8 0
-18 -4 -21 -10z"/>
</g>
<g transform="translate(0.000000,96.000000) scale(0.100000,-0.100000)"
fill="#6b6b6b" stroke="none">
<path d="M0 955 c0 -3 2 -5 5 -5 3 0 5 2 5 5 0 3 -2 5 -5 5 -3 0 -5 -2 -5 -5z"/>
<path d="M65 951 c6 -11 4 -13 -10 -7 -14 5 -16 4 -6 -7 9 -12 6 -14 -20 -11
-26 3 -29 2 -19 -10 6 -8 19 -12 27 -9 12 5 14 3 8 -8 -5 -8 3 -4 17 9 13 12
29 22 35 22 6 0 13 7 17 15 6 17 -9 21 -19 5 -5 -8 -12 -7 -23 2 -13 11 -14
11 -7 -1z"/>
<path d="M168 953 c7 -3 16 -2 19 1 4 3 -2 6 -13 5 -11 0 -14 -3 -6 -6z"/>
<path d="M206 948 c3 -5 9 -6 14 -3 4 3 13 -1 19 -9 9 -10 8 -15 -4 -20 -8 -3
-15 -10 -15 -16 0 -6 10 -2 22 10 25 23 48 26 66 8 9 -9 12 -9 12 -1 0 7 -9
15 -20 18 -11 4 -18 11 -15 16 4 5 -1 9 -9 9 -9 0 -16 -7 -16 -16 0 -8 -5 -12
-10 -9 -6 4 -8 10 -6 14 3 4 -6 7 -19 7 -13 0 -21 -4 -19 -8z"/>
<path d="M320 955 c0 -3 2 -5 5 -5 3 0 5 2 5 5 0 3 -2 5 -5 5 -3 0 -5 -2 -5
-5z"/>
<path d="M480 955 c0 -3 2 -5 5 -5 3 0 5 2 5 5 0 3 -2 5 -5 5 -3 0 -5 -2 -5
-5z"/>
<path d="M504 948 c-3 -4 5 -5 16 -3 12 2 24 -3 30 -16 8 -15 7 -19 -4 -19 -8
0 -17 6 -19 13 -3 6 -6 8 -6 2 0 -5 3 -17 9 -25 7 -12 12 -12 29 4 10 9 25 18
33 19 13 2 18 9 18 26 0 10 -100 9 -106 -1z m71 -7 c3 -5 2 -12 -3 -15 -5 -3
-9 1 -9 9 0 17 3 19 12 6z"/>
<path d="M650 955 c0 -3 2 -5 5 -5 3 0 5 2 5 5 0 3 -2 5 -5 5 -3 0 -5 -2 -5
-5z"/>
<path d="M728 947 c-16 -6 -28 -15 -28 -21 0 -5 -7 -1 -15 10 -15 18 -15 18
-8 0 4 -13 3 -17 -5 -12 -7 4 -12 1 -12 -7 0 -28 26 -24 65 9 22 19 38 33 35
33 -3 -1 -17 -6 -32 -12z"/>
<path d="M780 955 c0 -3 2 -5 5 -5 3 0 5 2 5 5 0 3 -2 5 -5 5 -3 0 -5 -2 -5
-5z"/>
<path d="M812 940 c7 -10 14 -18 15 -16 6 6 -9 36 -18 36 -5 0 -4 -9 3 -20z"/>
<path d="M836 948 c3 -5 10 -6 15 -3 13 9 11 12 -6 12 -8 0 -12 -4 -9 -9z"/>
<path d="M890 949 c0 -5 5 -7 12 -3 7 4 8 3 4 -5 -6 -9 -11 -9 -21 -1 -21 18
-37 -11 -18 -35 14 -19 14 -19 11 -1 -3 22 32 32 60 17 14 -7 17 -4 19 17 1
19 -1 22 -9 11 -7 -11 -11 -11 -15 -1 -6 15 -43 16 -43 1z m-20 -24 c0 -3 -2
-5 -5 -5 -3 0 -5 2 -5 5 0 3 2 5 5 5 3 0 5 -2 5 -5z"/>
<path d="M20 945 c0 -3 2 -5 5 -5 3 0 5 2 5 5 0 3 -2 5 -5 5 -3 0 -5 -2 -5 -5z"/>
<path d="M350 945 c0 -3 2 -5 5 -5 3 0 5 2 5 5 0 3 -2 5 -5 5 -3 0 -5 -2 -5
-5z"/>
<path d="M367 936 c-5 -11 -3 -15 5 -10 7 4 8 3 4 -5 -6 -9 -11 -9 -22 0 -8 6
-18 9 -22 5 -4 -4 1 -14 12 -21 16 -12 22 -11 52 13 35 28 39 41 6 23 -15 -8
-21 -8 -24 1 -3 7 -7 5 -11 -6z"/>
<path d="M113 921 c-12 -10 -25 -31 -28 -47 -5 -22 -4 -25 4 -14 8 12 13 12
23 2 16 -16 31 -15 25 2 -4 10 -1 13 9 9 13 -5 19 8 15 31 -1 5 4 6 12 3 8 -3
13 3 14 14 2 18 1 18 -15 2 -9 -9 -17 -20 -17 -25 0 -4 -3 -8 -7 -8 -5 0 -12
0 -18 0 -16 0 -7 24 15 37 14 9 16 12 5 12 -8 0 -25 -8 -37 -18z m4 -17 c-3
-4 -1 -16 5 -28 10 -20 9 -20 -7 -4 -15 14 -14 38 2 38 4 0 3 -3 0 -6z"/>
<path d="M425 915 c-25 -26 -33 -41 -16 -30 5 3 12 1 16 -4 3 -5 -3 -15 -12
-21 -16 -9 -16 -10 -1 -8 9 2 17 0 17 -4 2 -22 0 -28 -10 -28 -14 0 -49 -39
-49 -55 0 -16 35 -47 43 -38 4 3 15 -1 24 -9 18 -16 56 -21 47 -7 -2 5 -11 6
-19 2 -8 -3 -15 -1 -16 3 0 5 -2 17 -4 26 -2 9 4 23 13 30 15 11 15 11 4 -3
-10 -14 -10 -18 3 -23 14 -5 17 -2 19 27 1 6 6 15 11 19 22 17 -12 7 -43 -12
-21 -13 -30 -25 -26 -33 6 -8 3 -8 -9 1 -9 8 -21 11 -27 7 -5 -3 -10 1 -10 9
0 8 5 18 12 22 7 4 8 3 4 -4 -4 -7 -1 -12 9 -12 9 0 14 4 10 9 -3 6 2 14 11
19 9 5 16 13 16 18 1 18 18 54 25 54 5 0 14 10 22 23 13 19 12 21 -1 10 -8 -7
-19 -9 -23 -5 -5 4 -5 2 -1 -5 3 -6 2 -14 -3 -17 -5 -3 -12 1 -15 10 -10 26
-7 36 10 30 10 -4 13 -2 8 6 -5 8 -2 9 10 5 10 -4 15 -3 11 3 -10 17 -33 11
-60 -15z m10 -25 c3 -5 4 -10 1 -10 -3 0 -8 5 -11 10 -3 6 -4 10 -1 10 3 0 8
-4 11 -10z m12 -27 c-4 -3 -10 -3 -14 0 -3 4 0 7 7 7 7 0 10 -3 7 -7z m-40
-120 c-4 -3 -10 -3 -14 0 -3 4 0 7 7 7 7 0 10 -3 7 -7z"/>
<path d="M630 926 c0 -9 5 -16 10 -16 6 0 10 4 10 9 0 6 -4 13 -10 16 -5 3
-10 -1 -10 -9z"/>
<path d="M757 929 c-37 -21 -37 -86 0 -72 9 4 9 -1 0 -20 -6 -13 -18 -24 -26
-23 -8 1 -20 -9 -26 -21 -7 -13 -15 -20 -19 -16 -4 4 -4 1 -1 -8 4 -10 -2 -15
-18 -17 -16 -1 -23 4 -24 18 -1 11 4 19 10 17 7 -1 11 4 9 11 -1 8 2 11 7 8 5
-4 12 -2 16 4 3 5 1 10 -4 10 -6 0 -11 5 -11 11 0 5 4 8 9 5 12 -8 31 17 23
31 -4 6 -22 13 -40 16 -18 3 -39 10 -46 16 -10 8 -17 7 -27 -6 -12 -15 -12
-16 4 -10 9 3 17 3 17 -2 0 -5 10 -12 23 -15 20 -6 20 -7 5 -16 -10 -7 -15
-17 -11 -27 4 -11 3 -14 -6 -9 -6 4 -10 3 -9 -2 2 -5 -8 -19 -21 -31 -13 -12
-20 -21 -15 -21 6 0 15 5 21 11 8 8 15 5 26 -11 8 -12 23 -20 34 -19 10 2 28
-3 41 -10 13 -7 30 -10 37 -7 8 3 20 0 27 -7 7 -7 22 -13 33 -14 11 -1 14 0 7
3 -10 5 -10 10 3 24 13 15 14 23 5 39 -9 18 -8 21 12 22 20 1 20 2 4 6 -12 3
-25 -2 -33 -13 -17 -24 -16 -34 3 -34 14 0 14 -3 4 -15 -24 -29 -50 2 -28 32
5 6 5 14 0 17 -9 6 -27 -21 -24 -36 1 -4 -6 -4 -15 -1 -11 4 -14 3 -9 -5 5 -8
2 -10 -8 -6 -9 3 -16 14 -16 23 0 12 2 13 8 3 7 -9 13 -7 28 9 10 13 13 19 7
15 -7 -4 -13 -2 -13 3 0 6 4 11 10 11 5 0 18 17 29 38 11 21 27 44 35 51 12
10 13 18 5 32 -11 21 -25 23 -52 8z m43 -17 c0 -10 -5 -23 -12 -30 -15 -15
-48 -16 -48 -1 0 6 7 9 15 5 8 -3 15 -1 15 4 0 6 -8 10 -17 10 -14 1 -12 4 7
15 33 19 40 18 40 -3z m-107 -49 c4 -3 5 -8 2 -13 -6 -10 -45 9 -45 22 0 7 22
2 43 -9z m-42 -49 c-12 -19 -18 -41 -14 -47 4 -7 -1 -6 -11 2 -10 8 -13 17 -7
20 5 4 14 19 20 34 6 15 16 27 22 27 6 0 2 -15 -10 -36z m73 -30 c3 -8 2 -12
-4 -9 -6 3 -10 10 -10 16 0 14 7 11 14 -7z"/>
<path d="M780 900 c0 -7 3 -10 7 -7 3 4 3 10 0 14 -4 3 -7 0 -7 -7z"/>
<path d="M680 855 c0 -3 2 -5 5 -5 3 0 5 2 5 5 0 3 -2 5 -5 5 -3 0 -5 -2 -5
-5z"/>
<path d="M204 918 c-4 -7 -3 -8 4 -4 12 7 16 16 8 16 -3 0 -8 -5 -12 -12z"/>
<path d="M270 902 c0 -12 46 -35 57 -29 5 3 9 -5 9 -19 0 -13 -4 -24 -9 -24
-5 0 -6 7 -3 16 5 14 4 15 -8 5 -8 -7 -12 -19 -9 -27 3 -8 0 -14 -7 -14 -7 0
-10 -7 -7 -14 4 -10 1 -13 -7 -10 -7 3 -18 -2 -25 -10 -11 -13 -8 -14 21 -6
40 12 38 12 38 0 0 -6 -5 -9 -11 -8 -6 2 -13 -7 -15 -20 -2 -13 0 -21 5 -18 5
3 12 -1 15 -10 6 -17 26 -10 26 9 0 7 -4 6 -10 -3 -6 -10 -10 -11 -10 -2 0 20
4 27 17 24 6 -1 14 2 18 8 4 6 -1 7 -10 3 -13 -4 -16 -1 -13 18 2 19 -1 23
-16 21 -11 -2 -15 1 -11 8 4 6 17 10 28 8 12 -1 23 2 25 7 2 6 11 18 19 28 15
16 15 17 -1 17 -9 0 -15 -4 -11 -9 3 -5 1 -12 -4 -15 -5 -4 -11 5 -13 19 -2
14 -6 25 -11 25 -4 0 -21 7 -37 15 -17 9 -30 12 -30 7z m90 -87 c0 -3 -2 -5
-5 -5 -3 0 -5 2 -5 5 0 3 2 5 5 5 3 0 5 -2 5 -5z m-30 -30 c0 -3 -2 -5 -5 -5
-3 0 -5 2 -5 5 0 3 2 5 5 5 3 0 5 -2 5 -5z"/>
<path d="M845 900 c3 -5 8 -10 11 -10 3 0 2 5 -1 10 -3 6 -8 10 -11 10 -3 0
-2 -4 1 -10z"/>
<path d="M920 890 c6 -11 17 -20 25 -20 20 0 19 10 -2 26 -26 19 -35 17 -23
-6z"/>
<path d="M10 888 c-6 -22 -5 -34 3 -45 6 -9 5 -13 -3 -13 -18 0 -4 -13 18 -16
18 -3 41 33 34 54 -2 7 -11 12 -20 12 -10 0 -13 -3 -7 -8 10 -6 11 -18 5 -39
-1 -5 -8 8 -15 27 -7 19 -14 32 -15 28z m10 -33 c0 -3 -2 -5 -5 -5 -3 0 -5 2
-5 5 0 3 2 5 5 5 3 0 5 -2 5 -5z m40 0 c0 -3 -2 -5 -5 -5 -3 0 -5 2 -5 5 0 3
2 5 5 5 3 0 5 -2 5 -5z"/>
<path d="M172 868 c-17 -17 -15 -24 7 -25 11 -1 18 4 17 12 -3 22 -11 26 -24
13z m18 -3 c0 -3 -2 -5 -5 -5 -3 0 -5 2 -5 5 0 3 2 5 5 5 3 0 5 -2 5 -5z"/>
<path d="M220 875 c0 -3 2 -5 5 -5 3 0 5 2 5 5 0 3 -2 5 -5 5 -3 0 -5 -2 -5
-5z"/>
<path d="M257 873 c-11 -3 -16 -11 -13 -19 4 -9 -3 -18 -19 -24 -29 -11 -33
-20 -6 -13 10 3 22 -1 27 -8 5 -9 2 -10 -10 -6 -10 4 -15 3 -11 -3 11 -17 38
-12 31 6 -4 11 -2 15 8 11 18 -7 28 17 13 32 -8 8 -8 11 1 11 7 0 12 5 12 10
0 10 -3 11 -33 3z m20 -40 c-4 -3 -10 -3 -14 0 -3 4 0 7 7 7 7 0 10 -3 7 -7z
m-27 -8 c0 -3 -2 -5 -5 -5 -3 0 -5 2 -5 5 0 3 2 5 5 5 3 0 5 -2 5 -5z"/>
<path d="M368 873 c7 -3 16 -2 19 1 4 3 -2 6 -13 5 -11 0 -14 -3 -6 -6z"/>
<path d="M488 863 c-9 -11 -9 -16 2 -23 21 -13 33 -1 18 18 -8 10 -9 13 -1 9
6 -4 14 -4 17 1 9 15 -24 10 -36 -5z"/>
<path d="M540 875 c0 -3 2 -5 5 -5 3 0 5 2 5 5 0 3 -2 5 -5 5 -3 0 -5 -2 -5
-5z"/>
<path d="M853 873 c4 -3 10 -3 14 0 3 4 0 7 -7 7 -7 0 -10 -3 -7 -7z"/>
<path d="M885 869 c-4 -6 1 -16 11 -24 22 -16 39 1 22 22 -13 16 -25 17 -33 2z
m35 -14 c0 -3 -2 -5 -5 -5 -3 0 -5 2 -5 5 0 3 2 5 5 5 3 0 5 -2 5 -5z"/>
<path d="M559 863 c0 -4 -2 -16 -4 -25 -2 -10 2 -15 9 -12 7 3 13 -2 13 -11 0
-9 -6 -14 -14 -10 -44 17 -48 18 -28 2 11 -9 25 -17 31 -17 14 0 40 39 39 60
0 15 -44 28 -46 13z m41 -8 c0 -3 -2 -5 -5 -5 -3 0 -5 2 -5 5 0 3 2 5 5 5 3 0
5 -2 5 -5z m-20 -10 c0 -3 -2 -5 -5 -5 -3 0 -5 2 -5 5 0 3 2 5 5 5 3 0 5 -2 5
-5z m20 -10 c0 -3 -2 -5 -5 -5 -3 0 -5 2 -5 5 0 3 2 5 5 5 3 0 5 -2 5 -5z"/>
<path d="M818 862 c-17 -3 -26 -23 -10 -21 24 4 43 -3 39 -13 -4 -15 21 -38
43 -37 8 0 5 4 -7 9 -20 8 -28 25 -25 52 2 9 -20 15 -40 10z m22 -7 c0 -3 -2
-5 -5 -5 -3 0 -5 2 -5 5 0 3 2 5 5 5 3 0 5 -2 5 -5z"/>
<path d="M210 850 c0 -5 5 -10 11 -10 5 0 7 5 4 10 -3 6 -8 10 -11 10 -2 0 -4
-4 -4 -10z"/>
<path d="M526 845 c4 -8 7 -15 9 -15 2 0 5 7 9 15 3 9 0 15 -9 15 -9 0 -12 -6
-9 -15z"/>
<path d="M720 855 c0 -3 2 -5 5 -5 3 0 5 2 5 5 0 3 -2 5 -5 5 -3 0 -5 -2 -5
-5z"/>
<path d="M101 839 c-1 -9 -11 -23 -23 -31 -20 -13 -21 -17 -9 -32 7 -9 10 -16
5 -16 -5 0 -2 -5 6 -10 10 -6 11 -10 3 -10 -7 0 -13 -4 -13 -9 0 -13 50 -10
50 3 0 6 8 20 17 31 11 14 14 15 10 4 -3 -9 -1 -21 5 -27 12 -12 1 -35 -13
-27 -5 4 -9 2 -9 -4 0 -5 9 -9 19 -8 11 0 19 4 19 7 -2 20 4 29 16 24 8 -3 17
0 22 7 5 9 2 10 -9 6 -19 -7 -33 10 -28 37 3 18 1 18 -34 -2 -44 -26 -52 -28
-34 -5 8 9 9 14 4 11 -6 -4 -17 -2 -25 4 -13 8 -13 9 1 5 27 -9 41 7 30 34 -6
15 -10 18 -10 8z m9 -24 c0 -3 -2 -5 -5 -5 -3 0 -5 2 -5 5 0 3 2 5 5 5 3 0 5
-2 5 -5z m55 -65 c3 -5 4 -10 1 -10 -3 0 -8 5 -11 10 -3 6 -4 10 -1 10 3 0 8
-4 11 -10z m-58 -17 c-4 -3 -7 0 -7 7 0 7 3 10 7 7 3 -4 3 -10 0 -14z"/>
<path d="M949 848 c0 -2 -2 -12 -4 -22 -2 -11 -16 -30 -32 -44 -15 -14 -21
-23 -12 -19 11 3 20 -3 28 -19 6 -13 16 -24 23 -24 10 0 10 2 -1 9 -11 7 -11
9 0 14 12 4 12 7 0 18 -9 9 -11 9 -7 2 4 -7 2 -13 -3 -13 -6 0 -11 9 -11 21 0
13 5 19 13 16 9 -3 14 6 15 29 2 19 0 34 -3 34 -3 0 -5 -1 -6 -2z"/>
<path d="M872 828 c3 -7 15 -15 28 -16 21 -3 22 -2 11 12 -16 19 -44 21 -39 4z
m18 -3 c0 -3 -2 -5 -5 -5 -3 0 -5 2 -5 5 0 3 2 5 5 5 3 0 5 -2 5 -5z"/>
<path d="M15 802 c-10 -7 -18 -32 -10 -32 2 0 9 9 15 20 12 22 11 24 -5 12z"/>
<path d="M180 783 c0 -13 5 -23 10 -23 13 0 13 11 0 30 -8 12 -10 11 -10 -7z"/>
<path d="M506 783 c-4 -9 -4 -18 -1 -21 3 -3 5 -2 5 2 0 4 9 2 20 -4 25 -14
26 -6 1 19 -17 17 -20 17 -25 4z"/>
<path d="M50 761 c7 -14 6 -20 -5 -25 -17 -6 -20 -26 -4 -26 5 0 8 4 5 9 -4 5
-1 11 6 13 17 6 18 36 2 42 -11 4 -12 1 -4 -13z"/>
<path d="M829 762 c7 -13 6 -23 -2 -32 -10 -12 -9 -12 4 -2 17 13 15 52 -3 52
-5 0 -5 -8 1 -18z"/>
<path d="M855 770 c3 -5 8 -10 11 -10 3 0 2 5 -1 10 -3 6 -8 10 -11 10 -3 0
-2 -4 1 -10z"/>
<path d="M220 765 c0 -3 2 -5 5 -5 3 0 5 2 5 5 0 3 -2 5 -5 5 -3 0 -5 -2 -5
-5z"/>
<path d="M10 746 c7 -7 13 -7 20 0 6 6 3 10 -10 10 -13 0 -16 -4 -10 -10z"/>
<path d="M605 750 c18 -35 38 -50 51 -39 7 6 19 7 25 3 8 -4 9 -3 5 4 -9 15
-36 15 -36 0 0 -6 -12 2 -26 18 -15 16 -23 22 -19 14z"/>
<path d="M495 740 c3 -5 8 -10 11 -10 3 0 2 5 -1 10 -3 6 -8 10 -11 10 -3 0
-2 -4 1 -10z"/>
<path d="M520 745 c0 -3 2 -5 5 -5 3 0 5 2 5 5 0 3 -2 5 -5 5 -3 0 -5 -2 -5
-5z"/>
<path d="M249 733 c-1 -7 -2 -19 -3 -25 -1 -7 -10 -12 -20 -11 -12 1 -15 -2
-8 -9 17 -17 51 13 41 37 -4 11 -8 14 -10 8z"/>
<path d="M567 734 c-4 -7 0 -17 7 -23 11 -9 16 -9 22 0 4 7 3 9 -4 5 -6 -3
-12 2 -14 11 -2 12 -6 14 -11 7z"/>
<path d="M880 730 c0 -5 5 -10 11 -10 5 0 7 5 4 10 -3 6 -8 10 -11 10 -2 0 -4
-4 -4 -10z"/>
<path d="M5 720 c-3 -5 -1 -10 4 -10 6 0 11 5 11 10 0 6 -2 10 -4 10 -3 0 -8
-4 -11 -10z"/>
<path d="M210 720 c-9 -6 -10 -10 -3 -10 6 0 15 5 18 10 8 12 4 12 -15 0z"/>
<path d="M355 720 c3 -5 8 -10 11 -10 2 0 4 5 4 10 0 6 -5 10 -11 10 -5 0 -7
-4 -4 -10z"/>
<path d="M516 705 c-15 -11 -17 -18 -9 -26 8 -8 8 -20 2 -36 -6 -16 -5 -22 1
-18 6 3 11 1 11 -4 1 -6 3 -15 4 -21 1 -5 3 -14 4 -20 2 -17 28 -11 37 8 4 9
6 20 6 25 -3 10 1 9 34 -7 16 -8 38 -16 49 -18 11 -2 22 -6 25 -10 3 -3 23 10
45 29 22 19 30 30 17 23 -12 -6 -28 -8 -35 -4 -6 4 -9 4 -5 0 4 -5 1 -14 -5
-21 -11 -11 -34 -7 -55 10 -7 6 11 34 19 29 5 -3 9 0 9 5 0 6 5 11 11 11 5 0
8 -4 5 -8 -3 -5 1 -9 8 -9 10 0 10 6 -3 28 -8 15 -19 25 -24 22 -5 -3 -3 -9 4
-14 8 -5 9 -9 3 -9 -5 0 -16 6 -23 13 -11 10 -13 9 -8 -5 5 -13 1 -18 -11 -18
-9 0 -25 -7 -35 -15 -11 -7 -28 -12 -38 -10 -11 2 -17 0 -14 -5 3 -5 1 -11 -4
-14 -13 -9 -20 28 -7 40 6 6 17 9 24 8 7 -1 8 0 2 3 -7 3 -7 10 2 21 9 12 6
11 -10 -2 -26 -23 -41 -13 -24 14 14 24 13 24 -12 5z m116 -77 c-2 -10 -8 -15
-13 -12 -14 8 -11 31 5 31 8 0 11 -8 8 -19z m-64 -10 c-3 -15 -18 -28 -32 -28
-5 0 -1 9 9 20 21 23 26 25 23 8z"/>
<path d="M853 713 c4 -3 10 -3 14 0 3 4 0 7 -7 7 -7 0 -10 -3 -7 -7z"/>
<path d="M284 701 c3 -5 -1 -11 -9 -15 -17 -6 -20 -26 -4 -26 5 0 7 5 4 10 -3
6 3 10 14 10 14 0 19 5 15 15 -4 8 -10 15 -16 15 -5 0 -7 -4 -4 -9z"/>
<path d="M710 705 c0 -3 2 -5 5 -5 3 0 5 2 5 5 0 3 -2 5 -5 5 -3 0 -5 -2 -5
-5z"/>
<path d="M825 700 c-3 -5 1 -10 10 -10 9 0 13 5 10 10 -3 6 -8 10 -10 10 -2 0
-7 -4 -10 -10z"/>
<path d="M862 685 c-25 -28 -27 -35 -12 -35 6 0 14 8 17 18 4 9 11 20 17 24 6
4 8 9 5 12 -3 3 -15 -5 -27 -19z"/>
<path d="M914 701 c3 -5 -1 -11 -9 -15 -8 -3 -15 -11 -14 -18 0 -10 2 -10 6 0
2 6 9 12 14 12 6 0 7 -6 3 -12 -5 -9 -2 -8 9 1 13 10 15 17 6 27 -13 16 -23
19 -15 5z m16 -16 c0 -3 -2 -5 -5 -5 -3 0 -5 2 -5 5 0 3 2 5 5 5 3 0 5 -2 5
-5z"/>
<path d="M0 695 c0 -3 2 -5 5 -5 3 0 5 2 5 5 0 3 -2 5 -5 5 -3 0 -5 -2 -5 -5z"/>
<path d="M65 691 c-3 -6 -1 -11 5 -11 6 0 8 -5 4 -12 -6 -10 -4 -10 8 0 10 8
19 9 22 3 3 -5 0 -12 -6 -14 -8 -3 -6 -6 5 -6 10 -1 20 6 23 14 4 8 11 12 17
8 6 -4 7 -1 2 6 -5 9 -11 9 -17 3 -7 -7 -18 -6 -33 4 -16 10 -25 12 -30 5z"/>
<path d="M180 689 c0 -5 5 -7 10 -4 6 3 10 8 10 11 0 2 -4 4 -10 4 -5 0 -10
-5 -10 -11z"/>
<path d="M340 694 c-9 -3 -21 -13 -27 -23 -10 -17 -8 -19 17 -23 16 -2 27 -1
24 4 -8 13 10 9 25 -4 11 -10 10 -8 0 10 -8 12 -17 22 -22 22 -4 0 -5 5 -2 10
3 6 5 9 3 9 -2 -1 -10 -3 -18 -5z"/>
<path d="M413 688 c2 -7 8 -13 13 -13 5 0 14 -3 20 -7 6 -4 11 -1 11 7 0 8 -4
12 -8 9 -4 -2 -10 0 -14 6 -9 14 -27 12 -22 -2z"/>
<path d="M594 685 c-4 -9 -4 -19 0 -22 3 -4 6 2 6 13 0 16 2 17 10 4 6 -9 10
-10 10 -3 0 19 -20 26 -26 8z"/>
<path d="M740 695 c0 -3 2 -5 5 -5 3 0 5 2 5 5 0 3 -2 5 -5 5 -3 0 -5 -2 -5
-5z"/>
<path d="M12 678 c-17 -17 -15 -25 8 -31 11 -3 18 -1 15 3 -3 5 -1 11 5 15 11
7 4 25 -9 25 -4 0 -12 -5 -19 -12z"/>
<path d="M390 685 c0 -3 2 -5 5 -5 3 0 5 2 5 5 0 3 -2 5 -5 5 -3 0 -5 -2 -5
-5z"/>
<path d="M710 686 c0 -2 7 -7 16 -10 8 -3 12 -2 9 4 -6 10 -25 14 -25 6z"/>
<path d="M950 685 c0 -3 2 -5 5 -5 3 0 5 2 5 5 0 3 -2 5 -5 5 -3 0 -5 -2 -5
-5z"/>
<path d="M201 668 c-1 -20 14 -24 25 -6 4 6 3 8 -4 4 -5 -3 -13 0 -15 6 -3 8
-6 6 -6 -4z"/>
<path d="M750 665 c0 -9 6 -12 15 -9 8 4 12 10 9 15 -8 14 -24 10 -24 -6z"/>
<path d="M153 655 c-10 -10 -9 -14 3 -19 22 -8 24 -8 24 8 0 21 -13 26 -27 11z"/>
<path d="M415 660 c-19 -8 -19 -9 3 -9 12 -1 22 4 22 9 0 6 -1 10 -2 9 -2 0
-12 -4 -23 -9z"/>
<path d="M473 655 c-11 -12 -8 -25 8 -25 10 0 20 28 11 34 -4 2 -12 -2 -19 -9z"/>
<path d="M710 665 c0 -3 2 -5 5 -5 3 0 5 2 5 5 0 3 -2 5 -5 5 -3 0 -5 -2 -5
-5z"/>
<path d="M793 655 c-9 -10 -9 -14 1 -18 8 -3 18 -1 24 5 6 6 8 1 5 -16 -4 -21
-8 -23 -22 -14 -12 7 -24 8 -36 1 -16 -9 -16 -10 4 -16 14 -3 19 -1 15 6 -5 8
-3 8 6 0 11 -10 11 -15 0 -27 -12 -15 -35 -12 -26 3 3 4 -4 8 -15 8 -10 1 -19
-5 -19 -12 0 -10 6 -12 18 -8 15 6 15 5 3 -10 -7 -9 -17 -14 -22 -11 -5 3 -9
0 -9 -5 0 -6 7 -11 15 -11 8 0 15 -8 15 -19 0 -11 -6 -18 -16 -17 -9 0 -21 -8
-28 -19 -12 -21 -37 -44 -48 -45 -4 0 -7 10 -5 21 1 12 -4 24 -10 26 -7 3 -13
0 -13 -7 0 -6 6 -8 13 -4 6 4 2 -3 -10 -15 -28 -27 -28 -27 -3 -58 18 -23 25
-23 21 1 -1 5 7 6 19 3 11 -3 20 0 20 5 0 6 -12 8 -30 5 -22 -5 -30 -3 -30 8
0 16 53 13 74 -4 25 -21 62 -7 57 22 -2 12 11 8 29 -8 15 -14 17 -13 15 15 -1
16 3 30 8 30 5 0 7 -9 4 -21 -3 -12 -3 -18 0 -15 4 3 11 2 17 -3 7 -6 16 -4
23 4 10 10 9 14 -2 19 -8 3 -15 0 -15 -6 0 -6 -3 -8 -6 -5 -4 4 -2 12 4 20 8
10 5 13 -13 15 -14 1 -28 -6 -34 -16 -9 -15 -12 -15 -21 -2 -8 13 -10 13 -10
-2 0 -10 -5 -18 -11 -18 -5 0 -8 -4 -5 -8 2 -4 -6 -9 -20 -10 -17 -1 -24 3
-23 16 0 10 3 12 6 5 2 -7 9 -13 14 -13 6 0 5 9 -1 21 -7 11 -9 23 -6 26 3 3
8 -2 12 -11 3 -9 10 -13 15 -10 5 3 7 10 4 15 -4 5 -2 9 3 9 13 0 22 39 11 46
-5 3 -9 10 -9 16 0 6 7 5 18 -3 9 -7 14 -10 10 -5 -9 11 33 57 45 49 6 -3 7
-1 3 5 -4 7 -3 12 3 12 5 0 11 -4 13 -9 2 -5 12 3 22 17 20 27 20 27 0 9 -20
-16 -34 -14 -34 5 0 5 4 7 9 3 5 -3 13 0 17 6 4 8 3 9 -4 5 -7 -4 -12 -3 -12
3 0 19 -34 30 -47 16z m-23 -100 c0 -3 -2 -5 -5 -5 -3 0 -5 2 -5 5 0 3 2 5 5
5 3 0 5 -2 5 -5z m-80 -120 c0 -3 -2 -5 -5 -5 -3 0 -5 2 -5 5 0 3 2 5 5 5 3 0
5 -2 5 -5z"/>
<path d="M50 650 c0 -5 5 -10 11 -10 5 0 7 5 4 10 -3 6 -8 10 -11 10 -2 0 -4
-4 -4 -10z"/>
<path d="M730 655 c0 -3 2 -5 5 -5 3 0 5 2 5 5 0 3 -2 5 -5 5 -3 0 -5 -2 -5
-5z"/>
<path d="M943 653 c4 -3 10 -3 14 0 3 4 0 7 -7 7 -7 0 -10 -3 -7 -7z"/>
<path d="M270 640 c-8 -5 -19 -6 -25 -2 -5 3 -4 -2 4 -11 12 -15 12 -17 -3
-11 -9 3 -16 2 -16 -3 0 -5 16 -8 35 -8 37 0 37 0 27 27 -5 12 -11 15 -22 8z"/>
<path d="M903 642 c-8 -5 0 -15 23 -30 19 -12 34 -18 34 -13 0 5 -7 11 -15 15
-8 3 -15 12 -15 21 0 16 -9 19 -27 7z"/>
<path d="M0 635 c0 -3 2 -5 5 -5 3 0 5 2 5 5 0 3 -2 5 -5 5 -3 0 -5 -2 -5 -5z"/>
<path d="M75 620 c-18 -11 -40 -16 -55 -12 -22 5 -24 4 -11 -11 7 -9 17 -14
22 -11 5 3 9 0 9 -7 0 -7 11 -2 25 11 27 25 38 21 50 -19 5 -15 4 -21 -3 -17
-7 4 -9 -1 -7 -14 2 -11 -3 -26 -11 -34 -8 -8 -14 -19 -14 -24 0 -5 -9 -12
-21 -15 -18 -5 -19 -8 -8 -29 15 -29 28 -38 57 -38 12 0 22 -4 22 -10 0 -5 5
-10 12 -10 7 0 5 7 -5 18 -20 22 -22 33 -5 43 10 6 10 11 1 20 -8 8 -13 6 -17
-9 -8 -23 -53 -25 -61 -3 -3 9 0 11 10 7 23 -8 54 22 47 47 -3 14 -1 18 6 13
7 -4 13 -1 13 6 1 7 2 20 3 28 1 8 -3 21 -8 28 -7 9 -5 16 5 23 20 13 33 11
22 -3 -13 -16 -13 -48 -1 -48 5 0 7 9 3 20 -5 15 -2 18 16 15 21 -4 21 -4 3
16 -14 15 -25 18 -48 13 -27 -6 -29 -5 -17 10 17 21 4 19 -34 -4z m52 -87 c-4
-3 -10 -3 -14 0 -3 4 0 7 7 7 7 0 10 -3 7 -7z m-40 -110 c-4 -3 -10 -3 -14 0
-3 4 0 7 7 7 7 0 10 -3 7 -7z m23 -8 c0 -3 -2 -5 -5 -5 -3 0 -5 2 -5 5 0 3 2
5 5 5 3 0 5 -2 5 -5z"/>
<path d="M197 623 c5 -12 2 -14 -8 -9 -8 4 -6 1 3 -7 10 -8 15 -16 12 -19 -3
-4 0 -9 7 -14 9 -5 10 -1 6 16 -3 13 -2 29 3 35 6 7 3 11 -10 12 -13 1 -17 -3
-13 -14z"/>
<path d="M300 635 c0 -3 2 -5 5 -5 3 0 5 2 5 5 0 3 -2 5 -5 5 -3 0 -5 -2 -5
-5z"/>
<path d="M320 635 c0 -3 2 -5 5 -5 3 0 5 2 5 5 0 3 -2 5 -5 5 -3 0 -5 -2 -5
-5z"/>
<path d="M403 626 c-13 -6 -23 -14 -23 -18 0 -14 17 -9 41 12 26 21 17 24 -18
6z"/>
<path d="M950 635 c0 -3 2 -5 5 -5 3 0 5 2 5 5 0 3 -2 5 -5 5 -3 0 -5 -2 -5
-5z"/>
<path d="M35 620 c3 -5 8 -10 11 -10 3 0 2 5 -1 10 -3 6 -8 10 -11 10 -3 0 -2
-4 1 -10z"/>
<path d="M353 623 c4 -3 10 -3 14 0 3 4 0 7 -7 7 -7 0 -10 -3 -7 -7z"/>
<path d="M670 620 c0 -5 5 -10 11 -10 5 0 7 5 4 10 -3 6 -8 10 -11 10 -2 0 -4
-4 -4 -10z"/>
<path d="M311 604 c0 -11 3 -14 6 -6 3 7 2 16 -1 19 -3 4 -6 -2 -5 -13z"/>
<path d="M450 608 c0 -6 -3 -8 -6 -5 -4 4 -15 -3 -25 -15 -24 -27 -24 -27 3
-20 14 3 19 2 14 -6 -4 -7 -15 -12 -24 -13 -11 0 -8 -4 8 -10 31 -13 35 -12
35 4 1 6 5 11 11 10 5 -1 15 6 21 16 8 13 7 17 -8 17 -9 0 -16 -4 -13 -7 2 -4
0 -10 -5 -13 -5 -4 -13 -2 -16 4 -9 15 15 42 32 36 8 -3 11 -1 8 4 -9 14 -35
13 -35 -2z m-3 -63 c0 -8 -4 -12 -9 -9 -5 3 -6 10 -3 15 9 13 12 11 12 -6z"/>
<path d="M330 600 c0 -15 38 -32 45 -19 4 6 4 13 1 17 -11 10 -46 12 -46 2z"/>
<path d="M878 598 c-9 -7 -18 -26 -20 -43 -2 -25 0 -29 16 -27 10 2 15 -1 12
-7 -4 -5 -2 -12 4 -16 12 -7 4 -25 -11 -25 -6 0 -8 4 -5 8 6 10 -47 52 -64 52
-5 0 -10 -5 -10 -11 0 -5 4 -8 8 -5 11 7 65 -29 60 -40 -2 -5 12 -10 30 -11
18 -1 39 -3 45 -6 8 -3 12 7 12 28 0 18 -3 31 -7 28 -5 -2 -8 -13 -8 -24 0
-10 -7 -19 -15 -19 -17 0 -20 16 -5 25 16 10 -13 46 -32 41 -13 -3 -18 2 -18
16 0 12 8 27 18 34 9 7 14 14 11 14 -3 0 -12 -6 -21 -12z m-8 -63 c0 -3 -2 -5
-5 -5 -3 0 -5 2 -5 5 0 3 2 5 5 5 3 0 5 -2 5 -5z m47 -22 c-4 -3 -10 -3 -14 0
-3 4 0 7 7 7 7 0 10 -3 7 -7z"/>
<path d="M86 573 c-6 -14 -5 -15 5 -6 7 7 10 15 7 18 -3 3 -9 -2 -12 -12z"/>
<path d="M230 580 c0 -7 3 -10 7 -7 3 4 3 10 0 14 -4 3 -7 0 -7 -7z"/>
<path d="M270 582 c0 -17 29 -35 48 -30 11 3 19 0 19 -8 0 -7 -4 -11 -8 -9 -3
3 -12 -2 -19 -10 -9 -10 -9 -15 -1 -15 6 0 11 4 11 10 0 5 7 7 16 3 12 -4 15
0 12 18 -2 19 -9 24 -30 23 -15 0 -26 4 -25 9 1 5 -4 12 -10 14 -7 3 -13 0
-13 -5z"/>
<path d="M588 573 c-8 -10 -8 -14 -1 -10 6 4 14 3 18 -3 3 -5 16 -10 27 -10
19 0 20 -2 6 -17 -9 -10 -13 -24 -10 -32 3 -9 0 -11 -9 -6 -8 5 -11 5 -7 0 4
-4 -4 -19 -18 -32 -14 -12 -20 -23 -15 -23 6 0 21 10 34 23 12 12 33 22 47 22
14 0 24 6 23 13 -2 7 1 12 6 12 13 0 20 25 11 40 -7 11 -11 11 -24 1 -14 -11
-16 -11 -16 4 0 10 -3 15 -7 12 -3 -4 -16 0 -29 8 -20 13 -24 12 -36 -2z m96
-54 c-3 -5 -10 -7 -15 -4 -5 4 -9 1 -9 -6 0 -10 -3 -10 -11 -2 -16 16 -3 32
21 26 11 -3 17 -9 14 -14z m-4 -24 c0 -3 -2 -5 -5 -5 -3 0 -5 2 -5 5 0 3 2 5
5 5 3 0 5 -2 5 -5z"/>
<path d="M650 525 c0 -3 2 -5 5 -5 3 0 5 2 5 5 0 3 -2 5 -5 5 -3 0 -5 -2 -5
-5z"/>
<path d="M917 583 c-4 -6 -3 -14 2 -18 6 -3 7 -13 4 -21 -5 -14 -3 -14 16 -3
24 15 29 34 7 26 -9 -4 -16 1 -18 11 -2 12 -6 13 -11 5z"/>
<path d="M9 568 c-6 -17 -4 -58 4 -58 6 0 6 -5 0 -12 -5 -7 -10 -28 -11 -45
-2 -26 2 -33 15 -33 17 -1 17 -1 0 -14 -16 -12 -15 -13 8 -13 15 0 25 5 25 13
0 8 -5 14 -11 14 -5 0 -7 4 -4 10 3 5 0 7 -9 4 -11 -4 -14 2 -14 25 1 22 6 30
16 29 8 -2 16 5 17 15 2 9 0 15 -5 12 -4 -3 -13 1 -19 8 -8 11 -4 13 19 9 25
-3 29 -1 24 12 -7 18 -34 22 -34 5 0 -5 -5 -7 -10 -4 -6 4 -8 11 -5 16 4 5 4
9 1 9 -3 0 -6 -1 -7 -2z m41 -23 c0 -3 -2 -5 -5 -5 -3 0 -5 2 -5 5 0 3 2 5 5
5 3 0 5 -2 5 -5z m-10 -50 c0 -3 -2 -5 -5 -5 -3 0 -5 2 -5 5 0 3 2 5 5 5 3 0
5 -2 5 -5z"/>
<path d="M182 555 c4 -4 0 -13 -9 -20 -14 -10 -12 -12 13 -11 16 1 35 -3 43
-9 12 -8 13 -6 8 8 -4 10 -7 23 -7 29 0 6 -10 3 -22 -8 -12 -10 -18 -14 -15
-7 4 6 2 15 -5 19 -7 4 -10 4 -6 -1z"/>
<path d="M246 551 c-4 -5 -4 -16 0 -24 3 -8 -2 -21 -11 -30 -8 -9 -11 -18 -6
-21 5 -3 11 1 15 9 3 8 11 15 17 15 8 0 8 -5 -2 -17 -12 -16 -11 -16 7 0 15
14 16 19 6 26 -11 7 -10 10 3 15 14 5 15 9 5 21 -14 17 -26 19 -34 6z m34 -16
c0 -3 -2 -5 -5 -5 -3 0 -5 2 -5 5 0 3 2 5 5 5 3 0 5 -2 5 -5z"/>
<path d="M363 539 c-2 -22 -32 -51 -46 -42 -4 2 -21 -9 -38 -26 -17 -17 -26
-31 -20 -31 5 0 13 4 16 10 12 19 43 31 51 18 5 -7 3 -8 -6 -3 -9 6 -11 4 -5
-5 5 -8 1 -18 -10 -26 -15 -11 -14 -13 14 -12 18 1 34 5 37 9 3 5 -2 6 -10 3
-11 -4 -14 2 -14 26 1 21 5 29 14 26 16 -6 32 13 38 47 3 17 0 27 -8 27 -6 0
-12 -9 -13 -21z m17 -4 c0 -3 -2 -5 -5 -5 -3 0 -5 2 -5 5 0 3 2 5 5 5 3 0 5
-2 5 -5z m-20 -40 c0 -3 -2 -5 -5 -5 -3 0 -5 2 -5 5 0 3 2 5 5 5 3 0 5 -2 5
-5z"/>
<path d="M492 548 c-15 -15 -16 -32 -2 -23 6 3 10 1 10 -5 0 -6 4 -9 9 -6 9 6
9 31 0 41 -3 2 -11 -1 -17 -7z"/>
<path d="M536 545 c-3 -8 -1 -15 4 -15 6 0 10 7 10 15 0 8 -2 15 -4 15 -2 0
-6 -7 -10 -15z"/>
<path d="M820 555 c0 -3 2 -5 5 -5 3 0 5 2 5 5 0 3 -2 5 -5 5 -3 0 -5 -2 -5
-5z"/>
<path d="M80 540 c0 -7 3 -10 7 -7 3 4 3 10 0 14 -4 3 -7 0 -7 -7z"/>
<path d="M559 543 c0 -4 -2 -16 -4 -25 -2 -10 2 -15 9 -12 7 3 13 -2 13 -11 0
-9 -6 -14 -14 -10 -44 17 -48 18 -28 2 11 -9 25 -17 31 -17 14 0 40 39 39 60
0 15 -44 28 -46 13z m41 -8 c0 -3 -2 -5 -5 -5 -3 0 -5 2 -5 5 0 3 2 5 5 5 3 0
5 -2 5 -5z m-20 -10 c0 -3 -2 -5 -5 -5 -3 0 -5 2 -5 5 0 3 2 5 5 5 3 0 5 -2 5
-5z m20 -10 c0 -3 -2 -5 -5 -5 -3 0 -5 2 -5 5 0 3 2 5 5 5 3 0 5 -2 5 -5z"/>
<path d="M210 511 c0 -7 -5 -9 -12 -5 -7 5 -8 3 -3 -5 5 -9 10 -10 18 -2 6 6
8 14 4 18 -4 3 -7 1 -7 -6z"/>
<path d="M423 509 c4 -11 0 -16 -11 -15 -8 0 -23 -11 -31 -26 -14 -24 -14 -28
3 -47 10 -11 23 -18 28 -15 5 3 17 -1 26 -9 18 -15 55 -20 46 -6 -2 5 -11 6
-19 2 -8 -3 -15 -1 -16 3 0 5 -2 17 -4 26 -2 9 4 23 13 30 15 11 15 11 4 -3
-10 -14 -10 -18 2 -22 17 -7 31 22 17 36 -14 14 -64 -20 -54 -36 4 -8 1 -7
-10 1 -9 8 -21 11 -27 7 -5 -3 -10 1 -10 9 0 8 5 18 12 22 7 4 8 3 4 -4 -4 -7
-1 -12 9 -12 9 0 14 4 10 9 -3 6 2 14 11 19 14 8 14 13 5 28 -9 13 -11 14 -8
3z m-16 -86 c-4 -3 -10 -3 -14 0 -3 4 0 7 7 7 7 0 10 -3 7 -7z"/>
<path d="M530 515 c0 -3 2 -5 5 -5 3 0 5 2 5 5 0 3 -2 5 -5 5 -3 0 -5 -2 -5
-5z"/>
<path d="M179 458 c-1 -17 -3 -18 -6 -5 -6 24 -29 22 -29 -3 0 -12 7 -20 18
-20 21 0 43 36 28 45 -5 3 -11 -4 -11 -17z"/>
<path d="M490 471 c0 -10 20 -37 20 -27 0 5 7 3 15 -4 11 -9 15 -9 15 -1 0 6
-7 14 -15 17 -8 4 -13 9 -10 13 2 4 -2 8 -10 8 -8 0 -15 -3 -15 -6z"/>
<path d="M205 451 c-6 -11 13 -26 22 -17 4 3 1 6 -6 6 -7 0 -9 5 -6 10 3 6 4
10 1 10 -3 0 -7 -4 -11 -9z"/>
<path d="M295 450 c3 -5 8 -10 11 -10 2 0 4 5 4 10 0 6 -5 10 -11 10 -5 0 -7
-4 -4 -10z"/>
<path d="M895 450 c-3 -6 1 -7 9 -4 18 7 21 14 7 14 -6 0 -13 -4 -16 -10z"/>
<path d="M940 446 c14 -18 13 -19 -2 -13 -12 4 -15 2 -12 -8 3 -7 11 -16 18
-18 18 -7 17 30 -2 45 -16 12 -16 11 -2 -6z"/>
<path d="M495 420 c3 -5 8 -10 11 -10 3 0 2 5 -1 10 -3 6 -8 10 -11 10 -3 0
-2 -4 1 -10z"/>
<path d="M160 415 c0 -3 2 -5 5 -5 3 0 5 2 5 5 0 3 -2 5 -5 5 -3 0 -5 -2 -5
-5z"/>
<path d="M183 413 c4 -3 10 -3 14 0 3 4 0 7 -7 7 -7 0 -10 -3 -7 -7z"/>
<path d="M247 414 c-4 -7 0 -17 9 -24 8 -7 13 -18 11 -25 -3 -6 5 -11 17 -12
11 0 15 1 9 4 -7 3 -13 9 -13 14 0 6 5 7 12 3 7 -4 8 -3 4 4 -4 7 -13 12 -21
12 -7 0 -15 8 -17 18 -2 11 -6 13 -11 6z"/>
<path d="M563 405 c0 -18 24 -28 33 -13 4 7 3 8 -4 4 -7 -4 -12 -1 -12 8 0 9
-4 16 -8 16 -5 0 -9 -7 -9 -15z"/>
<path d="M820 410 c0 -7 3 -10 7 -7 3 4 3 10 0 14 -4 3 -7 0 -7 -7z"/>
<path d="M880 410 c-9 -6 -10 -10 -3 -10 6 0 15 5 18 10 8 12 4 12 -15 0z"/>
<path d="M300 405 c0 -3 2 -5 5 -5 3 0 5 2 5 5 0 3 -2 5 -5 5 -3 0 -5 -2 -5
-5z"/>
<path d="M355 400 c3 -5 8 -10 11 -10 2 0 4 5 4 10 0 6 -5 10 -11 10 -5 0 -7
-4 -4 -10z"/>
<path d="M785 401 c3 -5 -1 -11 -7 -14 -7 -3 -3 -4 10 -4 25 1 29 12 6 21 -8
3 -13 2 -9 -3z"/>
<path d="M191 383 c-7 -8 -11 -16 -8 -19 2 -2 10 2 17 11 17 20 9 27 -9 8z"/>
<path d="M220 395 c0 -3 2 -5 5 -5 3 0 5 2 5 5 0 3 -2 5 -5 5 -3 0 -5 -2 -5
-5z"/>
<path d="M323 393 c4 -3 10 -3 14 0 3 4 0 7 -7 7 -7 0 -10 -3 -7 -7z"/>
<path d="M518 386 c-19 -14 -23 -26 -10 -26 4 0 13 9 20 20 14 23 13 24 -10 6z"/>
<path d="M836 387 c-16 -12 -17 -16 -5 -35 8 -12 18 -22 23 -22 5 0 2 8 -7 18
-15 17 -15 19 0 35 21 20 14 22 -11 4z"/>
<path d="M160 385 c0 -3 2 -5 5 -5 3 0 5 2 5 5 0 3 -2 5 -5 5 -3 0 -5 -2 -5
-5z"/>
<path d="M710 385 c0 -3 2 -5 5 -5 3 0 5 2 5 5 0 3 -2 5 -5 5 -3 0 -5 -2 -5
-5z"/>
<path d="M883 383 c4 -3 10 -3 14 0 3 4 0 7 -7 7 -7 0 -10 -3 -7 -7z"/>
<path d="M902 366 c-9 -19 -8 -24 4 -22 25 4 36 22 21 34 -11 9 -16 7 -25 -12z
m28 0 c0 -3 -4 -8 -10 -11 -5 -3 -10 -1 -10 4 0 6 5 11 10 11 6 0 10 -2 10 -4z"/>
<path d="M3 354 c0 -12 6 -25 14 -29 11 -3 13 -1 9 10 -5 13 -2 14 16 4 l22
-12 -22 -17 c-18 -15 -19 -19 -7 -24 8 -3 15 -1 15 4 0 6 5 10 11 10 8 0 8 -4
-1 -14 -9 -11 -18 -13 -38 -5 l-27 9 23 -20 c19 -16 27 -17 43 -7 10 6 19 15
19 19 0 5 7 8 15 8 22 0 20 -57 -2 -64 -15 -4 -15 -5 2 -4 11 0 23 0 28 -1 10
-2 -31 -41 -44 -41 -5 0 -7 -4 -4 -10 3 -5 2 -10 -4 -10 -5 0 -13 -9 -16 -21
-7 -22 21 -63 37 -53 5 3 17 -1 26 -9 18 -15 55 -20 46 -6 -2 5 -11 6 -19 2
-8 -3 -15 -1 -16 3 0 5 -2 17 -4 26 -2 9 4 23 13 30 15 11 15 11 4 -3 -10 -14
-10 -18 3 -23 14 -5 17 -2 19 27 1 6 6 15 11 19 22 17 -12 7 -43 -12 -21 -13
-30 -25 -26 -33 6 -8 3 -8 -9 1 -9 8 -21 11 -27 7 -5 -3 -10 1 -10 9 0 8 5 18
12 22 7 4 8 3 4 -4 -4 -7 -1 -12 8 -12 9 0 15 3 15 8 -4 21 2 32 13 26 8 -5 9
-2 4 11 -4 11 -2 22 6 26 7 5 13 14 13 21 1 7 5 12 11 11 5 -1 16 8 24 20 12
20 12 21 -2 9 -13 -10 -17 -10 -21 0 -3 8 -6 5 -6 -6 -1 -21 -14 -14 -17 9 -2
16 23 28 38 18 7 -4 8 -1 3 6 -4 8 -17 10 -32 6 -20 -5 -24 -3 -20 9 7 18 -8
22 -18 5 -10 -14 -28 -6 -31 15 -3 23 -21 43 -43 49 -14 3 -19 -1 -18 -19z
m127 -119 c0 -3 -2 -5 -5 -5 -3 0 -5 2 -5 5 0 3 2 5 5 5 3 0 5 -2 5 -5z m-43
-132 c-4 -3 -10 -3 -14 0 -3 4 0 7 7 7 7 0 10 -3 7 -7z"/>
<path d="M95 370 c-4 -6 -1 -10 4 -10 6 0 11 -5 11 -11 0 -5 -4 -7 -10 -4 -5
3 -10 1 -10 -5 0 -18 33 -7 36 12 2 19 -22 33 -31 18z"/>
<path d="M230 375 c0 -3 2 -5 5 -5 3 0 5 2 5 5 0 3 -2 5 -5 5 -3 0 -5 -2 -5
-5z"/>
<path d="M319 370 c-1 -3 -1 -9 0 -14 1 -5 -3 -12 -9 -16 -7 -5 -5 -11 6 -21
15 -12 17 -12 9 0 -6 11 -3 13 13 9 12 -4 20 -2 16 3 -8 13 10 11 25 -3 11
-10 10 -8 0 10 -8 12 -17 22 -22 22 -4 0 -6 4 -3 8 2 4 -4 8 -15 8 -10 0 -20
-3 -20 -6z"/>
<path d="M394 369 c-4 -8 -3 -9 4 -5 7 4 12 3 12 -2 0 -5 7 -9 15 -9 9 0 14 5
12 11 -5 16 -34 19 -43 5z"/>
<path d="M532 351 c-17 -17 -32 -39 -32 -51 0 -17 -3 -18 -18 -9 -13 8 -24 9
-37 2 -16 -9 -16 -10 4 -16 14 -3 19 -1 15 6 -5 8 -3 8 6 0 11 -10 11 -15 0
-27 -12 -15 -35 -12 -26 3 3 4 -4 8 -15 8 -10 1 -19 -5 -19 -12 0 -10 6 -12
18 -8 15 6 15 5 3 -10 -7 -9 -17 -14 -22 -11 -5 3 -9 0 -9 -5 0 -6 7 -11 15
-11 8 0 15 -8 15 -19 0 -11 -6 -18 -16 -17 -9 0 -21 -8 -28 -19 -12 -21 -37
-44 -48 -45 -4 0 -5 12 -4 28 2 15 9 27 17 27 8 1 13 6 12 13 -2 7 1 12 6 12
13 0 20 25 11 40 -7 11 -11 11 -24 1 -14 -11 -16 -11 -16 4 0 10 -3 15 -7 12
-3 -4 -16 0 -29 8 -20 13 -24 12 -36 -2 -11 -15 -11 -16 5 -10 9 3 17 2 17 -3
0 -6 10 -10 22 -10 20 0 20 -1 4 -19 -14 -15 -15 -21 -4 -33 7 -7 14 -20 16
-28 1 -8 -7 -4 -18 10 -11 14 -19 20 -18 14 2 -7 -8 -21 -21 -33 -13 -12 -19
-21 -13 -21 6 0 14 5 17 10 5 8 11 8 19 1 7 -6 16 -8 20 -4 4 4 4 0 1 -8 -5
-12 0 -16 17 -14 13 1 33 -4 44 -11 37 -22 70 -13 65 18 -2 13 11 9 29 -7 15
-14 17 -13 15 15 -1 16 3 30 8 30 5 0 7 -9 4 -21 -3 -12 -3 -18 0 -15 4 3 11
2 17 -3 7 -6 16 -4 23 4 10 10 9 14 -2 19 -8 3 -15 0 -15 -6 0 -6 -3 -8 -6 -5
-4 4 -2 12 4 20 8 10 5 13 -13 15 -14 1 -28 -6 -34 -16 -9 -15 -12 -15 -21 -2
-8 13 -10 13 -10 -2 0 -10 -5 -18 -11 -18 -5 0 -8 -4 -5 -8 2 -4 -6 -9 -20
-10 -17 -1 -24 3 -23 16 0 10 3 12 6 5 2 -7 9 -13 14 -13 6 0 5 9 -1 21 -7 11
-9 23 -6 26 3 3 8 -2 12 -11 3 -9 10 -13 15 -10 5 3 7 10 4 15 -4 5 -2 9 3 9
13 0 22 39 11 46 -5 3 -9 10 -9 16 0 6 7 5 18 -3 9 -7 14 -10 10 -5 -9 11 33
57 45 49 6 -3 7 -1 3 5 -4 7 -3 12 3 12 5 0 11 -4 13 -9 2 -5 12 3 22 17 20
27 20 27 0 9 -20 -16 -34 -14 -34 5 0 5 4 7 9 3 5 -3 13 0 17 6 4 8 3 9 -4 5
-7 -4 -12 -4 -12 -1 0 11 27 34 34 30 3 -3 4 -2 1 2 -3 3 0 12 6 20 19 22 5
15 -29 -16z m-82 -116 c0 -3 -2 -5 -5 -5 -3 0 -5 2 -5 5 0 3 2 5 5 5 3 0 5 -2
5 -5z m-86 -36 c-3 -5 -10 -7 -15 -4 -5 4 -9 1 -9 -6 0 -10 -3 -10 -11 -2 -16
16 -3 32 21 26 11 -3 17 -9 14 -14z m-4 -24 c0 -3 -2 -5 -5 -5 -3 0 -5 2 -5 5
0 3 2 5 5 5 3 0 5 -2 5 -5z m-50 -35 c0 -5 -2 -10 -4 -10 -3 0 -8 5 -11 10 -3
6 -1 10 4 10 6 0 11 -4 11 -10z m60 -25 c0 -3 -2 -5 -5 -5 -3 0 -5 2 -5 5 0 3
2 5 5 5 3 0 5 -2 5 -5z"/>
<path d="M330 205 c0 -3 2 -5 5 -5 3 0 5 2 5 5 0 3 -2 5 -5 5 -3 0 -5 -2 -5
-5z"/>
<path d="M594 365 c-4 -9 -4 -19 0 -22 3 -4 6 2 6 13 0 16 2 17 10 4 6 -9 10
-10 10 -3 0 19 -20 26 -26 8z"/>
<path d="M674 367 c5 -15 2 -17 -14 -12 -11 4 -20 2 -20 -2 0 -5 -16 -15 -35
-23 l-35 -14 32 -20 c18 -12 35 -21 38 -21 3 -1 15 -6 28 -13 20 -12 26 -9 23
11 -1 5 3 6 8 3 5 -4 12 -2 16 4 3 5 14 10 23 10 12 0 13 -3 4 -12 -15 -15
-15 -29 0 -26 7 2 12 -9 11 -29 0 -41 13 -43 22 -3 4 17 10 28 15 25 4 -3 14
3 21 12 12 15 12 16 -1 8 -8 -5 -22 -11 -31 -12 -15 -2 -17 2 -21 47 -3 23 -9
25 -25 9 -8 -8 -18 1 -38 33 -15 23 -24 35 -21 25z m26 -48 c15 -27 8 -33 -35
-31 -43 2 -55 8 -55 29 0 13 2 14 17 2 11 -10 14 -10 9 -1 -4 7 -1 12 9 12 9
0 14 -4 10 -9 -3 -5 -1 -13 5 -16 6 -4 10 -3 9 2 -6 36 14 44 31 12z m60 -54
c0 -3 -2 -5 -5 -5 -3 0 -5 2 -5 5 0 3 2 5 5 5 3 0 5 -2 5 -5z m7 -42 c-4 -3
-7 0 -7 7 0 7 3 10 7 7 3 -4 3 -10 0 -14z"/>
<path d="M680 325 c0 -3 2 -5 5 -5 3 0 5 2 5 5 0 3 -2 5 -5 5 -3 0 -5 -2 -5
-5z"/>
<path d="M690 305 c0 -3 2 -5 5 -5 3 0 5 2 5 5 0 3 -2 5 -5 5 -3 0 -5 -2 -5
-5z"/>
<path d="M736 373 c-3 -3 -1 -12 5 -20 9 -10 7 -13 -6 -13 -10 0 -16 -3 -12
-6 3 -4 14 -3 24 1 10 5 21 9 26 9 4 1 7 6 7 11 0 6 -3 10 -7 10 -5 0 -13 3
-19 7 -6 4 -14 5 -18 1z m24 -18 c0 -3 -2 -5 -5 -5 -3 0 -5 2 -5 5 0 3 2 5 5
5 3 0 5 -2 5 -5z m20 0 c0 -3 -2 -5 -5 -5 -3 0 -5 2 -5 5 0 3 2 5 5 5 3 0 5
-2 5 -5z"/>
<path d="M63 363 c4 -3 10 -3 14 0 3 4 0 7 -7 7 -7 0 -10 -3 -7 -7z"/>
<path d="M446 354 c-3 -8 -10 -13 -15 -9 -5 3 -12 1 -16 -5 -9 -15 17 -12 38
4 10 8 14 17 9 20 -6 3 -13 -1 -16 -10z"/>
<path d="M710 365 c0 -3 2 -5 5 -5 3 0 5 2 5 5 0 3 -2 5 -5 5 -3 0 -5 -2 -5
-5z"/>
<path d="M865 361 c-3 -5 -2 -12 3 -15 5 -3 9 1 9 9 0 17 -3 19 -12 6z"/>
<path d="M950 365 c0 -3 2 -5 5 -5 3 0 5 2 5 5 0 3 -2 5 -5 5 -3 0 -5 -2 -5
-5z"/>
<path d="M140 355 c0 -3 2 -5 5 -5 3 0 5 2 5 5 0 3 -2 5 -5 5 -3 0 -5 -2 -5
-5z"/>
<path d="M210 350 c-7 -4 -10 -15 -7 -25 4 -9 3 -13 -2 -10 -5 3 -12 1 -16 -4
-3 -6 3 -8 15 -6 12 2 24 -3 30 -16 8 -15 7 -19 -4 -19 -8 0 -17 6 -19 13 -3
6 -6 8 -6 2 0 -5 3 -17 9 -25 7 -12 12 -12 29 4 10 9 28 19 38 20 10 2 17 6
16 9 -2 4 -3 14 -3 23 0 8 -5 12 -10 9 -6 -4 -21 -8 -33 -11 -17 -3 -23 1 -24
16 -1 13 3 17 13 13 8 -3 14 -3 14 0 0 10 -27 15 -40 7z m45 -49 c3 -5 2 -12
-3 -15 -5 -3 -9 1 -9 9 0 17 3 19 12 6z"/>
<path d="M570 355 c0 -3 2 -5 5 -5 3 0 5 2 5 5 0 3 -2 5 -5 5 -3 0 -5 -2 -5
-5z"/>
<path d="M70 345 c0 -3 2 -5 5 -5 3 0 5 2 5 5 0 3 -2 5 -5 5 -3 0 -5 -2 -5 -5z"/>
<path d="M165 341 c3 -5 -3 -11 -12 -13 -17 -3 -17 -4 -1 -10 9 -4 21 -1 28 6
8 10 7 15 -5 20 -9 3 -13 2 -10 -3z"/>
<path d="M792 334 c-7 -8 -8 -14 -2 -14 5 0 10 -4 10 -10 0 -5 -7 -10 -15 -10
-18 0 -20 -16 -3 -26 7 -5 8 -3 3 6 -6 10 -4 12 11 6 10 -4 15 -4 12 0 -4 4
-3 16 3 26 13 25 -1 41 -19 22z"/>
<path d="M472 331 c-11 -7 -11 -9 1 -14 9 -3 18 1 21 9 6 16 -2 18 -22 5z"/>
<path d="M945 330 c3 -5 8 -10 11 -10 2 0 4 5 4 10 0 6 -5 10 -11 10 -5 0 -7
-4 -4 -10z"/>
<path d="M906 321 c-3 -5 -22 -8 -41 -6 -20 1 -38 -2 -41 -6 -2 -4 5 -6 16 -4
12 2 24 -3 30 -16 8 -15 7 -19 -4 -19 -8 0 -17 6 -19 13 -3 6 -6 8 -6 2 0 -5
3 -17 9 -25 7 -12 12 -12 29 4 10 9 27 19 35 20 9 1 16 5 16 9 0 4 0 14 0 22
0 16 -16 20 -24 6z m-11 -20 c3 -5 2 -12 -3 -15 -5 -3 -9 1 -9 9 0 17 3 19 12
6z"/>
<path d="M0 315 c0 -3 2 -5 5 -5 3 0 5 2 5 5 0 3 -2 5 -5 5 -3 0 -5 -2 -5 -5z"/>
<path d="M417 309 c-9 -5 -23 -7 -30 -3 -6 4 -9 4 -5 0 4 -5 1 -14 -5 -21 -10
-10 -17 -10 -39 1 -25 13 -28 13 -28 -1 0 -13 12 -17 36 -14 4 0 10 -4 13 -9
3 -6 24 5 46 24 40 34 45 42 12 23z"/>
<path d="M350 300 c0 -5 5 -10 11 -10 5 0 7 5 4 10 -3 6 -8 10 -11 10 -2 0 -4
-4 -4 -10z"/>
<path d="M951 284 c0 -11 3 -14 6 -6 3 7 2 16 -1 19 -3 4 -6 -2 -5 -13z"/>
<path d="M558 278 c-9 -7 -18 -26 -20 -43 -2 -25 0 -29 16 -27 10 2 15 -1 12
-7 -4 -5 -2 -12 4 -16 12 -7 4 -25 -11 -25 -6 0 -8 4 -5 8 6 10 -47 52 -64 52
-5 0 -10 -5 -10 -11 0 -5 4 -8 8 -5 11 7 65 -29 60 -40 -2 -5 15 -10 36 -11
22 -1 44 -7 49 -12 13 -13 -2 -34 -19 -27 -8 3 -11 0 -8 -9 7 -17 35 -28 31
-12 -1 7 6 11 15 9 9 -1 19 2 23 8 3 6 0 7 -9 4 -12 -4 -15 2 -13 29 1 26 5
33 14 26 7 -7 14 -6 18 1 3 5 1 10 -4 10 -6 0 -11 5 -11 11 0 5 4 8 9 5 5 -3
15 2 22 11 12 15 11 16 -8 11 -13 -4 -23 -2 -23 2 0 5 8 11 18 13 9 2 4 3 -11
1 -15 -2 -25 0 -22 5 3 5 -6 8 -20 6 -16 -1 -25 3 -25 12 0 8 -5 11 -11 7 -7
-4 -7 -10 -1 -16 6 -6 8 -17 5 -25 -5 -13 -3 -13 15 -2 12 7 25 10 29 5 4 -4
0 -12 -10 -17 -9 -6 -17 -19 -17 -29 0 -11 -7 -20 -15 -20 -17 0 -20 16 -5 25
16 10 -13 46 -32 41 -13 -3 -18 2 -18 16 0 12 8 27 18 34 9 7 14 14 11 14 -3
0 -12 -6 -21 -12z m-8 -63 c0 -3 -2 -5 -5 -5 -3 0 -5 2 -5 5 0 3 2 5 5 5 3 0
5 -2 5 -5z m106 -20 c-11 -8 -22 -12 -25 -9 -6 6 19 24 34 24 6 -1 1 -7 -9
-15z m34 10 c0 -3 -2 -5 -5 -5 -3 0 -5 2 -5 5 0 3 2 5 5 5 3 0 5 -2 5 -5z
m-93 -12 c-4 -3 -10 -3 -14 0 -3 4 0 7 7 7 7 0 10 -3 7 -7z m50 -38 c0 -8 -4
-12 -9 -9 -4 3 -8 9 -8 15 0 5 4 9 8 9 5 0 9 -7 9 -15z"/>
<path d="M86 253 c-6 -14 -5 -15 5 -6 7 7 10 15 7 18 -3 3 -9 -2 -12 -12z"/>
<path d="M908 253 c-11 -15 -11 -16 5 -10 9 3 17 2 17 -3 0 -6 7 -10 15 -10
21 0 19 13 -4 27 -16 10 -22 9 -33 -4z"/>
<path d="M6 241 c-4 -5 -1 -13 5 -17 8 -4 7 -9 -2 -15 -11 -7 -10 -9 4 -9 10
0 17 8 17 19 0 22 -16 36 -24 22z m14 -6 c0 -3 -2 -5 -5 -5 -3 0 -5 2 -5 5 0
3 2 5 5 5 3 0 5 -2 5 -5z"/>
<path d="M43 219 c-1 -12 -10 -27 -21 -35 -11 -7 -19 -26 -20 -43 -1 -34 14
-49 31 -32 9 9 8 11 -5 6 -14 -5 -17 -1 -16 25 1 21 5 29 14 26 16 -6 32 13
38 47 3 17 0 27 -8 27 -6 0 -12 -10 -13 -21z m17 -4 c0 -3 -2 -5 -5 -5 -3 0
-5 2 -5 5 0 3 2 5 5 5 3 0 5 -2 5 -5z m-20 -40 c0 -3 -2 -5 -5 -5 -3 0 -5 2
-5 5 0 3 2 5 5 5 3 0 5 -2 5 -5z"/>
<path d="M168 223 c-9 -11 -9 -16 2 -23 21 -13 33 -1 18 18 -8 10 -9 13 -1 9
6 -4 14 -4 17 1 9 15 -24 10 -36 -5z"/>
<path d="M220 235 c0 -3 2 -5 5 -5 3 0 5 2 5 5 0 3 -2 5 -5 5 -3 0 -5 -2 -5
-5z"/>
<path d="M500 235 c0 -3 2 -5 5 -5 3 0 5 2 5 5 0 3 -2 5 -5 5 -3 0 -5 -2 -5
-5z"/>
<path d="M808 223 c-9 -11 -9 -16 2 -23 21 -13 33 -1 18 18 -8 10 -9 13 -1 9
6 -4 14 -4 17 1 9 15 -24 10 -36 -5z"/>
<path d="M860 235 c0 -3 2 -5 5 -5 3 0 5 2 5 5 0 3 -2 5 -5 5 -3 0 -5 -2 -5
-5z"/>
<path d="M239 223 c0 -4 -2 -16 -4 -25 -2 -10 2 -15 9 -12 7 3 13 -2 13 -11 0
-9 -6 -14 -14 -10 -44 17 -48 18 -28 2 11 -9 25 -17 31 -17 14 0 40 39 39 60
0 15 -44 28 -46 13z m41 -8 c0 -3 -2 -5 -5 -5 -3 0 -5 2 -5 5 0 3 2 5 5 5 3 0
5 -2 5 -5z m-20 -10 c0 -3 -2 -5 -5 -5 -3 0 -5 2 -5 5 0 3 2 5 5 5 3 0 5 -2 5
-5z m20 -10 c0 -3 -2 -5 -5 -5 -3 0 -5 2 -5 5 0 3 2 5 5 5 3 0 5 -2 5 -5z"/>
<path d="M879 223 c0 -4 -2 -16 -4 -25 -2 -10 2 -15 9 -12 7 3 13 -2 13 -11 0
-9 -6 -14 -14 -10 -44 17 -48 18 -28 2 11 -9 25 -17 31 -17 14 0 40 39 39 60
0 15 -44 28 -46 13z m41 -8 c0 -3 -2 -5 -5 -5 -3 0 -5 2 -5 5 0 3 2 5 5 5 3 0
5 -2 5 -5z m-20 -10 c0 -3 -2 -5 -5 -5 -3 0 -5 2 -5 5 0 3 2 5 5 5 3 0 5 -2 5
-5z m20 -10 c0 -3 -2 -5 -5 -5 -3 0 -5 2 -5 5 0 3 2 5 5 5 3 0 5 -2 5 -5z"/>
<path d="M206 205 c4 -8 7 -15 9 -15 2 0 5 7 9 15 3 9 0 15 -9 15 -9 0 -12 -6
-9 -15z"/>
<path d="M723 213 c4 -3 10 -3 14 0 3 4 0 7 -7 7 -7 0 -10 -3 -7 -7z"/>
<path d="M846 205 c4 -8 7 -15 9 -15 2 0 5 7 9 15 3 9 0 15 -9 15 -9 0 -12 -6
-9 -15z"/>
<path d="M947 204 c-3 -3 -3 -13 0 -22 4 -10 2 -13 -6 -8 -6 4 -10 3 -9 -2 2
-5 -8 -19 -21 -31 -13 -12 -20 -21 -15 -21 6 0 15 5 21 11 8 8 15 5 25 -9 13
-19 14 -16 15 34 1 56 0 58 -10 48z m3 -64 c0 -5 -2 -10 -4 -10 -3 0 -8 5 -11
10 -3 6 -1 10 4 10 6 0 11 -4 11 -10z"/>
<path d="M708 158 c-10 -12 -18 -27 -18 -33 0 -16 35 -47 43 -38 4 3 15 -1 24
-9 18 -16 56 -21 47 -7 -2 5 -11 6 -19 2 -8 -3 -15 -1 -16 3 0 5 -2 17 -4 26
-2 9 4 23 13 30 15 11 15 11 4 -3 -10 -14 -10 -18 3 -23 14 -5 17 -2 19 27 1
6 6 15 11 19 22 17 -12 7 -43 -12 -21 -13 -30 -25 -26 -33 6 -8 3 -8 -9 1 -9
8 -21 11 -27 7 -5 -3 -10 1 -10 9 0 8 5 18 12 22 7 4 8 3 4 -4 -4 -7 -1 -12 8
-12 9 0 15 3 15 8 -3 19 2 33 11 27 6 -3 10 -1 10 4 0 19 -34 11 -52 -11z m19
-55 c-4 -3 -10 -3 -14 0 -3 4 0 7 7 7 7 0 10 -3 7 -7z"/>
<path d="M186 143 c-4 -9 -4 -18 -1 -21 3 -3 5 -2 5 2 0 4 9 2 20 -4 25 -14
26 -6 1 19 -17 17 -20 17 -25 4z"/>
<path d="M826 143 c-4 -9 -4 -18 -1 -21 3 -3 5 -2 5 2 0 4 9 2 20 -4 25 -14
26 -6 1 19 -17 17 -20 17 -25 4z"/>
<path d="M575 130 c-3 -6 1 -7 9 -4 18 7 21 14 7 14 -6 0 -13 -4 -16 -10z"/>
<path d="M615 130 c3 -5 8 -10 11 -10 3 0 2 5 -1 10 -3 6 -8 10 -11 10 -3 0
-2 -4 1 -10z"/>
<path d="M280 119 c0 -3 11 -20 25 -39 22 -30 31 -32 26 -6 -1 5 7 6 19 3 11
-3 20 -1 20 5 0 6 -12 8 -26 5 -17 -3 -32 2 -45 16 -10 11 -19 19 -19 16z"/>
<path d="M929 103 c6 -12 16 -25 21 -28 17 -11 11 5 -11 28 l-21 22 11 -22z"/>
<path d="M175 100 c3 -5 8 -10 11 -10 3 0 2 5 -1 10 -3 6 -8 10 -11 10 -3 0
-2 -4 1 -10z"/>
<path d="M200 105 c0 -3 2 -5 5 -5 3 0 5 2 5 5 0 3 -2 5 -5 5 -3 0 -5 -2 -5
-5z"/>
<path d="M815 100 c3 -5 8 -10 11 -10 3 0 2 5 -1 10 -3 6 -8 10 -11 10 -3 0
-2 -4 1 -10z"/>
<path d="M840 105 c0 -3 2 -5 5 -5 3 0 5 2 5 5 0 3 -2 5 -5 5 -3 0 -5 -2 -5
-5z"/>
<path d="M248 94 c-4 -6 6 -23 22 -38 17 -14 30 -21 30 -16 0 6 -7 13 -15 16
-8 4 -12 11 -8 17 3 5 1 7 -5 3 -6 -3 -12 2 -14 11 -2 12 -6 14 -10 7z"/>
<path d="M500 90 c0 -7 3 -10 7 -7 3 4 3 10 0 14 -4 3 -7 0 -7 -7z"/>
<path d="M560 90 c-9 -6 -10 -10 -3 -10 6 0 15 5 18 10 8 12 4 12 -15 0z"/>
<path d="M888 94 c-4 -6 6 -23 22 -38 17 -14 30 -21 30 -16 0 6 -7 13 -15 16
-8 4 -12 11 -8 17 3 5 1 7 -5 3 -6 -3 -12 2 -14 11 -2 12 -6 14 -10 7z"/>
<path d="M6 73 c-6 -14 -5 -15 5 -6 7 7 10 15 7 18 -3 3 -9 -2 -12 -12z"/>
<path d="M35 80 c3 -5 8 -10 11 -10 2 0 4 5 4 10 0 6 -5 10 -11 10 -5 0 -7 -4
-4 -10z"/>
<path d="M465 81 c3 -5 -1 -11 -7 -14 -7 -3 -3 -4 10 -4 25 1 29 12 6 21 -8 3
-13 2 -9 -3z"/>
<path d="M646 73 c-6 -14 -5 -15 5 -6 7 7 10 15 7 18 -3 3 -9 -2 -12 -12z"/>
<path d="M675 80 c3 -5 8 -10 11 -10 2 0 4 5 4 10 0 6 -5 10 -11 10 -5 0 -7
-4 -4 -10z"/>
<path d="M196 65 c-15 -11 -17 -18 -9 -26 6 -6 9 -18 6 -25 -4 -10 0 -12 11
-8 9 3 16 10 16 15 0 4 6 7 13 5 6 -1 8 -1 4 2 -4 2 -2 11 5 20 9 12 6 11 -10
-2 -26 -23 -41 -13 -24 14 14 24 13 24 -12 5z"/>
<path d="M516 67 c-16 -12 -17 -16 -5 -35 8 -12 18 -22 23 -22 5 0 2 8 -7 18
-15 17 -15 19 0 35 21 20 14 22 -11 4z"/>
<path d="M836 65 c-15 -11 -17 -18 -9 -26 6 -6 9 -18 6 -25 -4 -10 0 -12 11
-8 9 3 16 10 16 15 0 4 6 7 13 5 6 -1 8 -1 4 2 -4 2 -2 11 5 20 9 12 6 11 -10
-2 -26 -23 -41 -13 -24 14 14 24 13 24 -12 5z"/>
<path d="M390 65 c0 -3 2 -5 5 -5 3 0 5 2 5 5 0 3 -2 5 -5 5 -3 0 -5 -2 -5 -5z"/>
<path d="M563 63 c4 -3 10 -3 14 0 3 4 0 7 -7 7 -7 0 -10 -3 -7 -7z"/>
<path d="M582 46 c-9 -19 -8 -24 4 -22 25 4 36 22 21 34 -11 9 -16 7 -25 -12z
m28 0 c0 -3 -4 -8 -10 -11 -5 -3 -10 -1 -10 4 0 6 5 11 10 11 6 0 10 -2 10 -4z"/>
<path d="M18 53 c-24 -6 -23 -39 2 -46 11 -3 18 -1 14 4 -8 13 10 11 25 -3 11
-10 10 -8 0 9 -8 13 -17 23 -22 23 -4 0 -5 5 -2 10 3 6 5 9 3 9 -2 -1 -11 -3
-20 -6z"/>
<path d="M93 48 c2 -7 8 -13 13 -13 5 0 14 -3 20 -7 6 -4 11 -1 11 7 0 8 -4
12 -8 9 -4 -2 -10 0 -14 6 -9 14 -27 12 -22 -2z"/>
<path d="M353 47 c6 -15 3 -17 -13 -12 -11 4 -20 2 -20 -4 0 -6 -6 -11 -14
-11 -8 0 -17 -4 -20 -8 -2 -4 11 -7 30 -7 19 0 34 3 34 8 0 4 5 7 11 7 5 0 8
-4 5 -8 -3 -5 1 -9 9 -9 11 0 10 5 -3 26 -21 35 -26 40 -19 18z"/>
<path d="M416 53 c-3 -3 -1 -12 5 -20 9 -10 7 -13 -6 -13 -10 0 -16 -3 -12 -6
3 -4 14 -3 24 1 10 5 21 9 26 9 4 1 7 6 7 11 0 6 -3 10 -7 10 -5 0 -13 3 -19
7 -6 4 -14 5 -18 1z m24 -18 c0 -3 -2 -5 -5 -5 -3 0 -5 2 -5 5 0 3 2 5 5 5 3
0 5 -2 5 -5z m20 0 c0 -3 -2 -5 -5 -5 -3 0 -5 2 -5 5 0 3 2 5 5 5 3 0 5 -2 5
-5z"/>
<path d="M653 53 c-14 -3 -20 -9 -16 -19 3 -8 -1 -14 -8 -14 -7 0 -9 -3 -6 -7
10 -9 56 -10 51 -1 -8 13 11 9 25 -4 11 -10 10 -8 0 9 -8 13 -17 23 -22 23 -4
0 -5 5 -2 10 3 6 5 9 3 9 -2 -1 -13 -4 -25 -6z"/>
<path d="M733 48 c2 -7 8 -13 13 -13 5 0 14 -3 20 -7 6 -4 11 -1 11 7 0 8 -4
12 -8 9 -4 -2 -10 0 -14 6 -9 14 -27 12 -22 -2z"/>
<path d="M70 45 c0 -3 2 -5 5 -5 3 0 5 2 5 5 0 3 -2 5 -5 5 -3 0 -5 -2 -5 -5z"/>
<path d="M390 45 c0 -3 2 -5 5 -5 3 0 5 2 5 5 0 3 -2 5 -5 5 -3 0 -5 -2 -5 -5z"/>
<path d="M545 41 c-3 -5 -2 -12 3 -15 5 -3 9 1 9 9 0 17 -3 19 -12 6z"/>
<path d="M710 45 c0 -3 2 -5 5 -5 3 0 5 2 5 5 0 3 -2 5 -5 5 -3 0 -5 -2 -5 -5z"/>
<path d="M270 30 c0 -7 3 -10 7 -7 3 4 3 10 0 14 -4 3 -7 0 -7 -7z"/>
<path d="M910 30 c0 -7 3 -10 7 -7 3 4 3 10 0 14 -4 3 -7 0 -7 -7z"/>
<path d="M95 20 c-19 -8 -19 -9 3 -9 12 -1 22 4 22 9 0 6 -1 10 -2 9 -2 0 -12
-4 -23 -9z"/>
<path d="M152 14 c-10 -12 -10 -14 2 -14 17 0 30 16 19 23 -5 3 -14 -1 -21 -9z"/>
<path d="M472 14 c-11 -12 -9 -14 8 -14 11 0 20 4 20 9 0 17 -15 19 -28 5z"/>
<path d="M735 20 c-19 -8 -19 -9 3 -9 12 -1 22 4 22 9 0 6 -1 10 -2 9 -2 0
-12 -4 -23 -9z"/>
<path d="M792 14 c-10 -12 -10 -14 2 -14 17 0 30 16 19 23 -5 3 -14 -1 -21 -9z"/>
<path d="M926 11 c-4 -5 1 -8 9 -7 21 3 31 16 12 16 -9 0 -18 -4 -21 -9z"/>
<path d="M593 3 c4 -3 10 -3 14 0 3 4 0 7 -7 7 -7 0 -10 -3 -7 -7z"/>
</g>
<g transform="translate(0.000000,96.000000) scale(0.100000,-0.100000)"
fill="#c4c4c4" stroke="none">
<path d="M0 955 c0 -3 2 -5 5 -5 3 0 5 2 5 5 0 3 -2 5 -5 5 -3 0 -5 -2 -5 -5z"/>
<path d="M60 955 c0 -3 2 -5 5 -5 3 0 5 2 5 5 0 3 -2 5 -5 5 -3 0 -5 -2 -5 -5z"/>
<path d="M180 955 c0 -3 2 -5 5 -5 3 0 5 2 5 5 0 3 -2 5 -5 5 -3 0 -5 -2 -5
-5z"/>
<path d="M206 948 c3 -5 9 -7 12 -4 3 3 12 0 21 -6 13 -10 14 -10 4 2 -15 16
-46 23 -37 8z"/>
<path d="M320 955 c0 -3 2 -5 5 -5 3 0 5 2 5 5 0 3 -2 5 -5 5 -3 0 -5 -2 -5
-5z"/>
<path d="M505 950 c-3 -5 3 -7 15 -5 11 2 22 0 25 -6 4 -5 11 -9 18 -9 18 0
-7 20 -31 25 -12 2 -24 0 -27 -5z"/>
<path d="M650 955 c0 -3 2 -5 5 -5 3 0 5 2 5 5 0 3 -2 5 -5 5 -3 0 -5 -2 -5
-5z"/>
<path d="M780 955 c0 -3 2 -5 5 -5 3 0 5 2 5 5 0 3 -2 5 -5 5 -3 0 -5 -2 -5
-5z"/>
<path d="M810 955 c0 -3 2 -5 5 -5 3 0 5 2 5 5 0 3 -2 5 -5 5 -3 0 -5 -2 -5
-5z"/>
<path d="M836 948 c3 -5 10 -6 15 -3 13 9 11 12 -6 12 -8 0 -12 -4 -9 -9z"/>
<path d="M950 955 c0 -3 2 -5 5 -5 3 0 5 2 5 5 0 3 -2 5 -5 5 -3 0 -5 -2 -5
-5z"/>
<path d="M861 936 c-10 -12 -8 -13 8 -9 12 3 18 9 15 14 -7 12 -10 11 -23 -5z"/>
<path d="M113 920 c-12 -9 -24 -30 -28 -46 -5 -28 -5 -28 10 4 9 20 20 30 27
26 6 -4 8 -3 4 4 -3 5 0 12 6 15 7 2 11 7 8 10 -3 3 -15 -3 -27 -13z"/>
<path d="M150 935 c0 -3 2 -5 5 -5 3 0 5 2 5 5 0 3 -2 5 -5 5 -3 0 -5 -2 -5
-5z"/>
<path d="M450 932 c0 -4 9 -8 19 -8 11 0 17 4 15 8 -3 4 -12 8 -20 8 -8 0 -14
-4 -14 -8z"/>
<path d="M759 923 c-13 -15 -12 -15 9 -4 12 6 28 9 34 5 7 -4 8 -3 4 4 -10 17
-31 15 -47 -5z"/>
<path d="M820 935 c0 -3 2 -5 5 -5 3 0 5 2 5 5 0 3 -2 5 -5 5 -3 0 -5 -2 -5
-5z"/>
<path d="M425 917 c-6 -7 -15 -18 -19 -25 -7 -11 -4 -11 13 0 12 7 21 18 21
25 0 16 -2 16 -15 0z"/>
<path d="M150 905 c0 -3 2 -5 5 -5 3 0 5 2 5 5 0 3 -2 5 -5 5 -3 0 -5 -2 -5
-5z"/>
<path d="M730 900 c0 -7 3 -10 7 -7 3 4 3 10 0 14 -4 3 -7 0 -7 -7z"/>
<path d="M283 885 c0 -8 4 -12 9 -9 5 3 6 10 3 15 -9 13 -12 11 -12 -6z"/>
<path d="M594 889 c-4 -7 -3 -9 4 -5 5 3 13 0 15 -6 4 -9 6 -10 6 -1 1 17 -16
25 -25 12z"/>
<path d="M760 895 c0 -3 2 -5 5 -5 3 0 5 2 5 5 0 3 -2 5 -5 5 -3 0 -5 -2 -5
-5z"/>
<path d="M920 891 c0 -5 5 -13 10 -16 6 -3 10 -2 10 4 0 5 -4 13 -10 16 -5 3
-10 2 -10 -4z"/>
<path d="M7 865 c-4 -8 -3 -16 1 -19 4 -3 9 4 9 15 2 23 -3 25 -10 4z"/>
<path d="M30 875 c0 -3 2 -5 5 -5 3 0 5 2 5 5 0 3 -2 5 -5 5 -3 0 -5 -2 -5 -5z"/>
<path d="M172 868 c-17 -17 -15 -24 7 -25 11 -1 18 4 17 12 -3 22 -11 26 -24
13z m18 -3 c0 -3 -2 -5 -5 -5 -3 0 -5 2 -5 5 0 3 2 5 5 5 3 0 5 -2 5 -5z"/>
<path d="M220 875 c0 -3 2 -5 5 -5 3 0 5 2 5 5 0 3 -2 5 -5 5 -3 0 -5 -2 -5
-5z"/>
<path d="M331 866 c-9 -11 -9 -16 0 -22 7 -4 9 -3 5 4 -3 5 0 12 6 15 7 2 10
7 7 11 -3 4 -12 0 -18 -8z"/>
<path d="M488 863 c-17 -21 8 -33 38 -19 16 8 19 12 9 14 -8 2 -13 7 -11 11 9
14 -24 8 -36 -6z m27 -3 c3 -5 4 -10 1 -10 -3 0 -8 5 -11 10 -3 6 -4 10 -1 10
3 0 8 -4 11 -10z"/>
<path d="M540 875 c0 -3 2 -5 5 -5 3 0 5 2 5 5 0 3 -2 5 -5 5 -3 0 -5 -2 -5
-5z"/>
<path d="M663 873 c4 -3 10 -3 14 0 3 4 0 7 -7 7 -7 0 -10 -3 -7 -7z"/>
<path d="M720 875 c0 -3 2 -5 5 -5 3 0 5 2 5 5 0 3 -2 5 -5 5 -3 0 -5 -2 -5
-5z"/>
<path d="M853 873 c4 -3 10 -3 14 0 3 4 0 7 -7 7 -7 0 -10 -3 -7 -7z"/>
<path d="M893 873 c4 -3 10 -3 14 0 3 4 0 7 -7 7 -7 0 -10 -3 -7 -7z"/>
<path d="M641 863 c4 -15 -21 -64 -35 -69 -8 -3 -17 -13 -21 -22 -10 -26 43
28 59 60 9 16 11 30 5 34 -5 3 -9 2 -8 -3z"/>
<path d="M210 850 c0 -5 5 -10 11 -10 5 0 7 5 4 10 -3 6 -8 10 -11 10 -2 0 -4
-4 -4 -10z"/>
<path d="M800 852 c0 -4 10 -8 22 -9 11 -1 25 -8 29 -15 6 -9 8 -7 7 7 -1 14
-10 21 -30 22 -15 1 -28 -1 -28 -5z"/>
<path d="M310 829 c0 -6 -11 -22 -26 -35 -14 -13 -21 -24 -15 -24 5 0 13 5 16
10 4 6 12 7 18 4 7 -4 9 -3 4 1 -4 5 0 16 9 26 10 11 12 19 5 24 -6 3 -11 1
-11 -6z"/>
<path d="M870 835 c0 -3 2 -5 5 -5 3 0 5 2 5 5 0 3 -2 5 -5 5 -3 0 -5 -2 -5
-5z"/>
<path d="M951 833 c-1 -6 -13 -26 -28 -45 l-26 -33 32 31 c19 18 31 38 28 45
-3 9 -6 9 -6 2z"/>
<path d="M0 825 c0 -3 2 -5 5 -5 3 0 5 2 5 5 0 3 -2 5 -5 5 -3 0 -5 -2 -5 -5z"/>
<path d="M73 805 c-17 -13 -9 -40 9 -29 6 4 5 10 -3 15 -10 6 -8 9 8 9 12 0
24 4 27 8 8 13 -22 10 -41 -3z"/>
<path d="M388 798 c-10 -12 -18 -27 -18 -32 0 -5 7 -1 16 10 8 10 13 13 9 7
-9 -19 2 -16 24 6 11 11 17 22 14 25 -12 11 -28 6 -45 -16z"/>
<path d="M711 807 c-6 -6 -11 -17 -11 -25 0 -7 -5 -10 -12 -6 -7 4 -8 3 -4 -4
5 -9 13 -9 29 0 12 6 23 10 25 9 2 -2 7 1 10 5 4 4 1 4 -5 0 -19 -10 -16 5 3
18 13 10 13 12 -4 13 -11 1 -25 -4 -31 -10z m6 -24 c-4 -3 -7 0 -7 7 0 7 3 10
7 7 3 -4 3 -10 0 -14z"/>
<path d="M152 793 c-19 -8 -34 -40 -17 -40 7 0 11 6 8 14 -4 9 0 11 11 7 11
-4 16 -1 16 10 0 9 -1 16 -2 15 -2 0 -9 -3 -16 -6z"/>
<path d="M180 783 c0 -13 5 -23 10 -23 13 0 13 11 0 30 -8 12 -10 11 -10 -7z"/>
<path d="M474 785 c-4 -8 -11 -12 -18 -8 -6 3 -8 3 -4 -2 4 -4 3 -14 -4 -22
-8 -11 -7 -12 6 -7 9 3 16 10 16 16 0 5 4 7 9 3 6 -3 9 4 8 15 -2 24 -6 25
-13 5z"/>
<path d="M506 784 c-4 -9 -4 -19 -1 -22 2 -3 7 3 11 12 4 9 4 19 1 22 -2 3 -7
-3 -11 -12z"/>
<path d="M650 795 c0 -3 2 -5 5 -5 3 0 5 2 5 5 0 3 -2 5 -5 5 -3 0 -5 -2 -5
-5z"/>
<path d="M794 785 c-4 -8 -10 -12 -15 -9 -5 3 -6 -2 -2 -11 5 -13 7 -14 14 -3
7 10 9 10 9 1 0 -7 5 -13 10 -13 7 0 7 6 0 19 -8 16 -6 20 13 24 l22 4 -23 2
c-12 0 -25 -6 -28 -14z"/>
<path d="M100 785 c0 -3 2 -5 5 -5 3 0 5 2 5 5 0 3 -2 5 -5 5 -3 0 -5 -2 -5
-5z"/>
<path d="M45 770 c3 -5 8 -10 11 -10 3 0 2 5 -1 10 -3 6 -8 10 -11 10 -3 0 -2
-4 1 -10z"/>
<path d="M823 773 c4 -3 10 -3 14 0 3 4 0 7 -7 7 -7 0 -10 -3 -7 -7z"/>
<path d="M220 765 c0 -3 2 -5 5 -5 3 0 5 2 5 5 0 3 -2 5 -5 5 -3 0 -5 -2 -5
-5z"/>
<path d="M30 755 c0 -3 2 -5 5 -5 3 0 5 2 5 5 0 3 -2 5 -5 5 -3 0 -5 -2 -5 -5z"/>
<path d="M160 755 c0 -3 2 -5 5 -5 3 0 5 2 5 5 0 3 -2 5 -5 5 -3 0 -5 -2 -5
-5z"/>
<path d="M400 755 c0 -3 2 -5 5 -5 3 0 5 2 5 5 0 3 -2 5 -5 5 -3 0 -5 -2 -5
-5z"/>
<path d="M490 745 c0 -3 2 -5 5 -5 3 0 5 2 5 5 0 3 -2 5 -5 5 -3 0 -5 -2 -5
-5z"/>
<path d="M720 745 c0 -3 2 -5 5 -5 3 0 5 2 5 5 0 3 -2 5 -5 5 -3 0 -5 -2 -5
-5z"/>
<path d="M760 745 c0 -3 2 -5 5 -5 3 0 5 2 5 5 0 3 -2 5 -5 5 -3 0 -5 -2 -5
-5z"/>
<path d="M40 735 c0 -3 2 -5 5 -5 3 0 5 2 5 5 0 3 -2 5 -5 5 -3 0 -5 -2 -5 -5z"/>
<path d="M250 735 c0 -3 2 -5 5 -5 3 0 5 2 5 5 0 3 -2 5 -5 5 -3 0 -5 -2 -5
-5z"/>
<path d="M830 735 c0 -3 2 -5 5 -5 3 0 5 2 5 5 0 3 -2 5 -5 5 -3 0 -5 -2 -5
-5z"/>
<path d="M5 720 c-3 -5 -1 -10 4 -10 6 0 11 5 11 10 0 6 -2 10 -4 10 -3 0 -8
-4 -11 -10z"/>
<path d="M326 713 c-6 -14 -5 -15 5 -6 7 7 10 15 7 18 -3 3 -9 -2 -12 -12z"/>
<path d="M565 720 c3 -5 8 -10 11 -10 2 0 4 5 4 10 0 6 -5 10 -11 10 -5 0 -7
-4 -4 -10z"/>
<path d="M646 713 c-6 -14 -5 -15 5 -6 7 7 10 15 7 18 -3 3 -9 -2 -12 -12z"/>
<path d="M880 725 c0 -3 2 -5 5 -5 3 0 5 2 5 5 0 3 -2 5 -5 5 -3 0 -5 -2 -5
-5z"/>
<path d="M203 713 c4 -3 10 -3 14 0 3 4 0 7 -7 7 -7 0 -10 -3 -7 -7z"/>
<path d="M250 710 c0 -7 3 -10 7 -7 3 4 3 10 0 14 -4 3 -7 0 -7 -7z"/>
<path d="M517 706 c-10 -8 -14 -16 -10 -19 5 -3 14 3 21 14 14 22 13 23 -11 5z"/>
<path d="M853 713 c4 -3 10 -3 14 0 3 4 0 7 -7 7 -7 0 -10 -3 -7 -7z"/>
<path d="M825 700 c-3 -5 1 -10 10 -10 9 0 13 5 10 10 -3 6 -8 10 -10 10 -2 0
-7 -4 -10 -10z"/>
<path d="M0 695 c0 -3 2 -5 5 -5 3 0 5 2 5 5 0 3 -2 5 -5 5 -3 0 -5 -2 -5 -5z"/>
<path d="M65 690 c-3 -5 1 -10 10 -10 9 0 13 5 10 10 -3 6 -8 10 -10 10 -2 0
-7 -4 -10 -10z"/>
<path d="M180 689 c0 -5 5 -7 10 -4 6 3 10 8 10 11 0 2 -4 4 -10 4 -5 0 -10
-5 -10 -11z"/>
<path d="M210 695 c0 -3 2 -5 5 -5 3 0 5 2 5 5 0 3 -2 5 -5 5 -3 0 -5 -2 -5
-5z"/>
<path d="M410 696 c0 -2 7 -7 16 -10 8 -3 12 -2 9 4 -6 10 -25 14 -25 6z"/>
<path d="M560 695 c0 -3 2 -5 5 -5 3 0 5 2 5 5 0 3 -2 5 -5 5 -3 0 -5 -2 -5
-5z"/>
<path d="M740 695 c0 -3 2 -5 5 -5 3 0 5 2 5 5 0 3 -2 5 -5 5 -3 0 -5 -2 -5
-5z"/>
<path d="M320 685 c0 -3 2 -5 5 -5 3 0 5 2 5 5 0 3 -2 5 -5 5 -3 0 -5 -2 -5
-5z"/>
<path d="M390 685 c0 -3 2 -5 5 -5 3 0 5 2 5 5 0 3 -2 5 -5 5 -3 0 -5 -2 -5
-5z"/>
<path d="M640 685 c0 -3 2 -5 5 -5 3 0 5 2 5 5 0 3 -2 5 -5 5 -3 0 -5 -2 -5
-5z"/>
<path d="M713 683 c4 -3 10 -3 14 0 3 4 0 7 -7 7 -7 0 -10 -3 -7 -7z"/>
<path d="M200 675 c0 -3 2 -5 5 -5 3 0 5 2 5 5 0 3 -2 5 -5 5 -3 0 -5 -2 -5
-5z"/>
<path d="M760 675 c0 -3 2 -5 5 -5 3 0 5 2 5 5 0 3 -2 5 -5 5 -3 0 -5 -2 -5
-5z"/>
<path d="M160 656 c0 -9 5 -16 10 -16 6 0 10 4 10 9 0 6 -4 13 -10 16 -5 3
-10 -1 -10 -9z"/>
<path d="M800 658 c0 -10 5 -18 10 -18 6 0 10 -6 10 -14 0 -8 4 -18 10 -21 6
-4 7 1 3 11 -4 11 -3 15 5 10 6 -3 14 -1 18 5 4 8 3 9 -4 5 -7 -4 -12 -2 -12
5 0 7 -3 9 -7 6 -3 -4 -12 1 -19 11 -13 16 -13 16 -14 0z"/>
<path d="M476 644 c-5 -14 -4 -15 9 -4 17 14 19 20 6 20 -5 0 -12 -7 -15 -16z"/>
<path d="M30 645 c0 -3 2 -5 5 -5 3 0 5 2 5 5 0 3 -2 5 -5 5 -3 0 -5 -2 -5 -5z"/>
<path d="M50 645 c0 -3 2 -5 5 -5 3 0 5 2 5 5 0 3 -2 5 -5 5 -3 0 -5 -2 -5 -5z"/>
<path d="M350 645 c0 -3 2 -5 5 -5 3 0 5 2 5 5 0 3 -2 5 -5 5 -3 0 -5 -2 -5
-5z"/>
<path d="M507 637 c-3 -8 1 -14 9 -14 16 0 19 13 5 21 -5 3 -11 0 -14 -7z"/>
<path d="M635 640 c-3 -5 -1 -10 4 -10 6 0 11 5 11 10 0 6 -2 10 -4 10 -3 0
-8 -4 -11 -10z"/>
<path d="M660 645 c0 -3 2 -5 5 -5 3 0 5 2 5 5 0 3 -2 5 -5 5 -3 0 -5 -2 -5
-5z"/>
<path d="M680 645 c0 -3 2 -5 5 -5 3 0 5 2 5 5 0 3 -2 5 -5 5 -3 0 -5 -2 -5
-5z"/>
<path d="M0 635 c0 -3 2 -5 5 -5 3 0 5 2 5 5 0 3 -2 5 -5 5 -3 0 -5 -2 -5 -5z"/>
<path d="M199 627 c7 -7 14 -8 21 -1 6 6 2 10 -12 11 -16 2 -18 -1 -9 -10z"/>
<path d="M300 635 c0 -3 2 -5 5 -5 3 0 5 2 5 5 0 3 -2 5 -5 5 -3 0 -5 -2 -5
-5z"/>
<path d="M320 635 c0 -3 2 -5 5 -5 3 0 5 2 5 5 0 3 -2 5 -5 5 -3 0 -5 -2 -5
-5z"/>
<path d="M543 627 c0 -8 6 -14 14 -14 9 0 10 4 2 14 -6 7 -12 13 -14 13 -1 0
-2 -6 -2 -13z"/>
<path d="M950 635 c0 -3 2 -5 5 -5 3 0 5 2 5 5 0 3 -2 5 -5 5 -3 0 -5 -2 -5
-5z"/>
<path d="M864 618 c-4 -7 -3 -8 4 -4 7 4 12 9 12 12 0 8 -9 4 -16 -8z"/>
<path d="M116 611 c-11 -4 -15 -10 -10 -13 5 -4 20 0 34 8 26 14 9 18 -24 5z"/>
<path d="M233 613 c4 -3 10 -3 14 0 3 4 0 7 -7 7 -7 0 -10 -3 -7 -7z"/>
<path d="M450 612 c0 -4 9 -8 19 -8 11 0 17 4 15 8 -3 4 -12 8 -20 8 -8 0 -14
-4 -14 -8z"/>
<path d="M766 611 c-3 -5 5 -8 19 -8 14 0 22 3 19 8 -3 5 -11 9 -19 9 -8 0
-16 -4 -19 -9z"/>
<path d="M425 597 c-6 -7 -15 -18 -19 -25 -7 -11 -4 -11 13 0 12 7 21 18 21
25 0 16 -2 16 -15 0z"/>
<path d="M86 573 c-6 -14 -5 -15 5 -6 7 7 10 15 7 18 -3 3 -9 -2 -12 -12z"/>
<path d="M140 585 c0 -3 2 -5 5 -5 3 0 5 2 5 5 0 3 -2 5 -5 5 -3 0 -5 -2 -5
-5z"/>
<path d="M730 579 c0 -5 5 -7 10 -4 6 3 10 8 10 11 0 2 -4 4 -10 4 -5 0 -10
-5 -10 -11z"/>
<path d="M760 585 c0 -3 2 -5 5 -5 3 0 5 2 5 5 0 3 -2 5 -5 5 -3 0 -5 -2 -5
-5z"/>
<path d="M280 571 c0 -6 4 -13 10 -16 6 -3 7 1 4 9 -7 18 -14 21 -14 7z"/>
<path d="M600 571 c0 -5 5 -13 10 -16 6 -3 10 -2 10 4 0 5 -4 13 -10 16 -5 3
-10 2 -10 -4z"/>
<path d="M920 575 c0 -5 5 -17 10 -25 5 -8 10 -10 10 -5 0 6 -5 17 -10 25 -5
8 -10 11 -10 5z"/>
<path d="M30 550 c0 -7 3 -10 7 -7 3 4 3 10 0 14 -4 3 -7 0 -7 -7z"/>
<path d="M184 552 c4 -7 2 -12 -4 -12 -17 0 -3 -17 20 -23 11 -3 18 -1 15 3
-3 5 -1 11 5 15 5 3 10 11 10 17 0 6 -10 3 -22 -8 -12 -10 -18 -14 -15 -7 4 6
2 15 -4 19 -8 4 -9 3 -5 -4z"/>
<path d="M260 555 c0 -3 2 -5 5 -5 3 0 5 2 5 5 0 3 -2 5 -5 5 -3 0 -5 -2 -5
-5z"/>
<path d="M331 546 c-9 -11 -9 -16 0 -22 7 -4 9 -3 5 4 -3 5 0 12 6 15 7 2 10
7 7 11 -3 4 -12 0 -18 -8z"/>
<path d="M492 548 c-15 -15 -16 -32 -2 -23 6 3 10 1 10 -5 0 -6 4 -9 9 -6 9 6
9 31 0 41 -3 2 -11 -1 -17 -7z"/>
<path d="M536 545 c-3 -8 -1 -15 4 -15 6 0 10 7 10 15 0 8 -2 15 -4 15 -2 0
-6 -7 -10 -15z"/>
<path d="M647 545 c-4 -8 -3 -16 1 -19 4 -3 9 4 9 15 2 23 -3 25 -10 4z"/>
<path d="M857 545 c-4 -8 -3 -16 1 -19 4 -3 9 4 9 15 2 23 -3 25 -10 4z"/>
<path d="M9 548 c-5 -18 -6 -38 -1 -34 7 8 12 36 6 36 -2 0 -4 -1 -5 -2z"/>
<path d="M80 540 c0 -7 3 -10 7 -7 3 4 3 10 0 14 -4 3 -7 0 -7 -7z"/>
<path d="M400 545 c0 -3 2 -5 5 -5 3 0 5 2 5 5 0 3 -2 5 -5 5 -3 0 -5 -2 -5
-5z"/>
<path d="M673 543 c4 -3 10 -3 14 0 3 4 0 7 -7 7 -7 0 -10 -3 -7 -7z"/>
<path d="M720 545 c0 -3 2 -5 5 -5 3 0 5 2 5 5 0 3 -2 5 -5 5 -3 0 -5 -2 -5
-5z"/>
<path d="M800 528 c0 -6 3 -8 7 -5 3 4 18 0 32 -10 l26 -16 -19 21 c-21 24
-46 29 -46 10z"/>
<path d="M230 520 c0 -7 3 -10 7 -7 3 4 3 10 0 14 -4 3 -7 0 -7 -7z"/>
<path d="M310 515 c0 -3 2 -5 5 -5 3 0 5 2 5 5 0 3 -2 5 -5 5 -3 0 -5 -2 -5
-5z"/>
<path d="M630 508 c0 -7 -12 -26 -27 -42 -25 -28 -24 -27 9 3 21 19 35 38 32
43 -7 12 -14 10 -14 -4z"/>
<path d="M937 489 c-4 -16 -3 -18 9 -8 7 6 11 15 8 20 -8 13 -11 11 -17 -12z"/>
<path d="M80 485 c0 -8 -6 -15 -14 -15 -20 0 -29 -17 -15 -26 8 -5 9 -3 4 6
-6 10 -4 12 9 7 18 -7 58 21 50 35 -9 14 -34 9 -34 -7z"/>
<path d="M281 467 l-25 -32 32 29 c33 31 37 36 25 35 -5 0 -19 -14 -32 -32z"/>
<path d="M388 478 c-10 -10 -18 -23 -18 -30 0 -6 7 -3 16 8 8 10 13 13 9 7 -9
-19 2 -16 25 7 24 24 25 27 3 27 -9 0 -25 -9 -35 -19z"/>
<path d="M711 487 c-6 -6 -11 -17 -11 -24 0 -7 -5 -13 -12 -13 -6 0 -9 -2 -6
-5 10 -11 37 7 31 21 -4 10 0 12 11 8 9 -3 13 -11 9 -17 -3 -6 -1 -7 6 -3 6 4
9 12 6 17 -4 5 -1 9 4 9 6 0 11 4 11 8 0 12 -36 12 -49 -1z"/>
<path d="M180 461 c0 -25 6 -27 13 -6 4 8 2 17 -3 20 -6 4 -10 -3 -10 -14z"/>
<path d="M490 471 c0 -8 19 -37 21 -31 0 3 2 12 4 21 1 9 -4 16 -11 16 -8 0
-14 -3 -14 -6z"/>
<path d="M788 460 c-10 -11 -13 -22 -8 -25 6 -4 10 -1 10 6 0 9 3 9 14 0 12
-10 17 -8 25 7 19 35 -14 45 -41 12z m32 -5 c0 -8 -2 -15 -4 -15 -2 0 -6 7
-10 15 -3 8 -1 15 4 15 6 0 10 -7 10 -15z"/>
<path d="M135 460 c-8 -14 3 -30 21 -30 8 0 14 9 14 20 0 21 -24 28 -35 10z
m20 -10 c3 -5 1 -10 -4 -10 -6 0 -11 5 -11 10 0 6 2 10 4 10 3 0 8 -4 11 -10z"/>
<path d="M470 460 c0 -6 -6 -8 -12 -4 -7 4 -10 4 -6 -1 4 -4 3 -14 -4 -22 -8
-11 -7 -12 6 -7 9 3 16 10 16 16 0 5 5 6 10 3 6 -3 10 -2 10 4 0 5 -4 13 -10
16 -5 3 -10 1 -10 -5z"/>
<path d="M640 455 c0 -3 2 -5 5 -5 3 0 5 2 5 5 0 3 -2 5 -5 5 -3 0 -5 -2 -5
-5z"/>
<path d="M903 453 c4 -3 10 -3 14 0 3 4 0 7 -7 7 -7 0 -10 -3 -7 -7z"/>
<path d="M200 445 c0 -3 2 -5 5 -5 3 0 5 2 5 5 0 3 -2 5 -5 5 -3 0 -5 -2 -5
-5z"/>
<path d="M30 435 c0 -3 2 -5 5 -5 3 0 5 2 5 5 0 3 -2 5 -5 5 -3 0 -5 -2 -5 -5z"/>
<path d="M400 435 c0 -3 2 -5 5 -5 3 0 5 2 5 5 0 3 -2 5 -5 5 -3 0 -5 -2 -5
-5z"/>
<path d="M120 425 c0 -3 2 -5 5 -5 3 0 5 2 5 5 0 3 -2 5 -5 5 -3 0 -5 -2 -5
-5z"/>
<path d="M490 425 c0 -3 2 -5 5 -5 3 0 5 2 5 5 0 3 -2 5 -5 5 -3 0 -5 -2 -5
-5z"/>
<path d="M760 425 c0 -3 2 -5 5 -5 3 0 5 2 5 5 0 3 -2 5 -5 5 -3 0 -5 -2 -5
-5z"/>
<path d="M40 415 c0 -3 2 -5 5 -5 3 0 5 2 5 5 0 3 -2 5 -5 5 -3 0 -5 -2 -5 -5z"/>
<path d="M245 410 c-3 -5 -1 -10 4 -10 6 0 11 5 11 10 0 6 -2 10 -4 10 -3 0
-8 -4 -11 -10z"/>
<path d="M566 405 c-3 -8 -1 -15 4 -15 6 0 10 7 10 15 0 8 -2 15 -4 15 -2 0
-6 -7 -10 -15z"/>
<path d="M820 415 c0 -3 2 -5 5 -5 3 0 5 2 5 5 0 3 -2 5 -5 5 -3 0 -5 -2 -5
-5z"/>
<path d="M643 395 c-3 -9 -3 -18 -1 -21 3 -3 8 4 11 16 6 23 -1 27 -10 5z"/>
<path d="M873 403 c4 -3 10 -3 14 0 3 4 0 7 -7 7 -7 0 -10 -3 -7 -7z"/>
<path d="M3 393 c4 -3 10 -3 14 0 3 4 0 7 -7 7 -7 0 -10 -3 -7 -7z"/>
<path d="M130 395 c0 -3 2 -5 5 -5 3 0 5 2 5 5 0 3 -2 5 -5 5 -3 0 -5 -2 -5
-5z"/>
<path d="M191 383 c-7 -8 -11 -16 -8 -19 2 -2 10 2 17 11 17 20 9 27 -9 8z"/>
<path d="M220 395 c0 -3 2 -5 5 -5 3 0 5 2 5 5 0 3 -2 5 -5 5 -3 0 -5 -2 -5
-5z"/>
<path d="M323 393 c4 -3 10 -3 14 0 3 4 0 7 -7 7 -7 0 -10 -3 -7 -7z"/>
<path d="M517 386 c-10 -8 -14 -16 -10 -19 5 -3 14 3 21 14 14 22 13 23 -11 5z"/>
<path d="M834 386 c-10 -8 -16 -17 -13 -20 3 -3 14 3 24 14 21 23 17 26 -11 6z"/>
<path d="M0 370 c0 -7 3 -10 7 -7 3 4 3 10 0 14 -4 3 -7 0 -7 -7z"/>
<path d="M105 370 c3 -5 8 -10 11 -10 3 0 2 5 -1 10 -3 6 -8 10 -11 10 -3 0
-2 -4 1 -10z"/>
<path d="M320 370 c0 -7 3 -10 7 -7 3 4 3 10 0 14 -4 3 -7 0 -7 -7z"/>
<path d="M397 373 c-3 -5 5 -8 18 -8 13 0 21 3 18 8 -2 4 -10 7 -18 7 -8 0
-16 -3 -18 -7z"/>
<path d="M560 375 c0 -3 2 -5 5 -5 3 0 5 2 5 5 0 3 -2 5 -5 5 -3 0 -5 -2 -5
-5z"/>
<path d="M736 372 c-3 -5 1 -9 9 -9 8 0 12 4 9 9 -3 4 -7 8 -9 8 -2 0 -6 -4
-9 -8z"/>
<path d="M63 363 c4 -3 10 -3 14 0 3 4 0 7 -7 7 -7 0 -10 -3 -7 -7z"/>
<path d="M710 365 c0 -3 2 -5 5 -5 3 0 5 2 5 5 0 3 -2 5 -5 5 -3 0 -5 -2 -5
-5z"/>
<path d="M166 337 c3 -10 9 -15 12 -12 3 3 0 11 -7 18 -10 9 -11 8 -5 -6z"/>
<path d="M800 330 c0 -19 3 -21 12 -12 9 9 9 15 0 24 -9 9 -12 7 -12 -12z"/>
<path d="M480 330 c0 -7 3 -10 7 -7 3 4 3 10 0 14 -4 3 -7 0 -7 -7z"/>
<path d="M20 325 c0 -3 2 -5 5 -5 3 0 5 2 5 5 0 3 -2 5 -5 5 -3 0 -5 -2 -5 -5z"/>
<path d="M190 315 c-9 -11 -7 -13 7 -10 10 1 24 -2 31 -8 7 -5 15 -8 18 -5 2
3 -6 12 -20 21 -20 14 -26 14 -36 2z m20 0 c0 -3 -2 -5 -5 -5 -3 0 -5 2 -5 5
0 3 2 5 5 5 3 0 5 -2 5 -5z"/>
<path d="M315 320 c3 -5 8 -10 11 -10 3 0 2 5 -1 10 -3 6 -8 10 -11 10 -3 0
-2 -4 1 -10z"/>
<path d="M350 325 c0 -3 2 -5 5 -5 3 0 5 2 5 5 0 3 -2 5 -5 5 -3 0 -5 -2 -5
-5z"/>
<path d="M505 317 c-5 -11 -3 -23 4 -30 9 -9 11 -8 5 7 -5 13 -4 17 4 12 6 -3
14 -1 18 5 4 7 3 9 -4 5 -5 -3 -12 0 -15 6 -3 9 -7 7 -12 -5z"/>
<path d="M654 318 c-4 -7 -3 -8 4 -4 7 4 12 9 12 12 0 8 -9 4 -16 -8z"/>
<path d="M680 325 c0 -3 2 -5 5 -5 3 0 5 2 5 5 0 3 -2 5 -5 5 -3 0 -5 -2 -5
-5z"/>
<path d="M950 325 c0 -3 2 -5 5 -5 3 0 5 2 5 5 0 3 -2 5 -5 5 -3 0 -5 -2 -5
-5z"/>
<path d="M0 315 c0 -3 2 -5 5 -5 3 0 5 2 5 5 0 3 -2 5 -5 5 -3 0 -5 -2 -5 -5z"/>
<path d="M50 315 c0 -3 2 -5 5 -5 3 0 5 2 5 5 0 3 -2 5 -5 5 -3 0 -5 -2 -5 -5z"/>
<path d="M630 315 c0 -3 2 -5 5 -5 3 0 5 2 5 5 0 3 -2 5 -5 5 -3 0 -5 -2 -5
-5z"/>
<path d="M700 315 c0 -3 2 -5 5 -5 3 0 5 2 5 5 0 3 -2 5 -5 5 -3 0 -5 -2 -5
-5z"/>
<path d="M825 310 c-3 -5 3 -7 15 -5 11 2 22 0 25 -6 4 -5 11 -9 18 -9 18 0
-7 20 -31 25 -12 2 -24 0 -27 -5z"/>
<path d="M544 298 c-4 -7 -3 -8 4 -4 12 7 16 16 8 16 -3 0 -8 -5 -12 -12z"/>
<path d="M123 293 c-7 -2 -13 -11 -13 -20 0 -12 2 -12 16 2 9 9 23 14 31 11 8
-3 11 -1 8 4 -7 11 -22 12 -42 3z"/>
<path d="M446 291 c-3 -5 5 -8 19 -8 14 0 22 3 19 8 -3 5 -11 9 -19 9 -8 0
-16 -4 -19 -9z"/>
<path d="M770 292 c0 -4 9 -8 19 -8 11 0 17 4 15 8 -3 4 -12 8 -20 8 -8 0 -14
-4 -14 -8z"/>
<path d="M740 275 c-7 -9 -11 -18 -8 -20 3 -3 11 1 18 10 7 9 11 18 8 20 -3 3
-11 -1 -18 -10z"/>
<path d="M86 253 c-6 -14 -5 -15 5 -6 7 7 10 15 7 18 -3 3 -9 -2 -12 -12z"/>
<path d="M410 259 c0 -5 5 -7 10 -4 6 3 10 8 10 11 0 2 -4 4 -10 4 -5 0 -10
-5 -10 -11z"/>
<path d="M440 265 c0 -3 2 -5 5 -5 3 0 5 2 5 5 0 3 -2 5 -5 5 -3 0 -5 -2 -5
-5z"/>
<path d="M274 249 c-4 -7 -3 -9 4 -5 5 3 13 0 15 -6 4 -9 6 -10 6 -1 1 17 -16
25 -25 12z"/>
<path d="M600 255 c0 -5 5 -17 10 -25 5 -8 10 -10 10 -5 0 6 -5 17 -10 25 -5
8 -10 11 -10 5z"/>
<path d="M914 249 c-4 -7 -3 -9 4 -5 5 3 13 0 15 -6 4 -9 6 -10 6 -1 1 17 -16
25 -25 12z"/>
<path d="M15 230 c-3 -5 -1 -10 4 -10 6 0 11 5 11 10 0 6 -2 10 -4 10 -3 0 -8
-4 -11 -10z"/>
<path d="M168 223 c-17 -21 8 -33 38 -19 16 8 19 12 9 14 -8 2 -13 7 -11 11 9
14 -24 8 -36 -6z m27 -3 c3 -5 4 -10 1 -10 -3 0 -8 5 -11 10 -3 6 -4 10 -1 10
3 0 8 -4 11 -10z"/>
<path d="M220 235 c0 -3 2 -5 5 -5 3 0 5 2 5 5 0 3 -2 5 -5 5 -3 0 -5 -2 -5
-5z"/>
<path d="M327 225 c-4 -8 -3 -16 1 -19 4 -3 9 4 9 15 2 23 -3 25 -10 4z"/>
<path d="M537 225 c-4 -8 -3 -16 1 -19 4 -3 9 4 9 15 2 23 -3 25 -10 4z"/>
<path d="M656 224 c-23 -23 -20 -30 4 -9 11 10 20 20 20 22 0 7 -9 2 -24 -13z"/>
<path d="M808 223 c-17 -21 8 -33 38 -19 16 8 19 12 9 14 -8 2 -13 7 -11 11 9
14 -24 8 -36 -6z m27 -3 c3 -5 4 -10 1 -10 -3 0 -8 5 -11 10 -3 6 -4 10 -1 10
3 0 8 -4 11 -10z"/>
<path d="M860 235 c0 -3 2 -5 5 -5 3 0 5 2 5 5 0 3 -2 5 -5 5 -3 0 -5 -2 -5
-5z"/>
<path d="M80 225 c0 -3 2 -5 5 -5 3 0 5 2 5 5 0 3 -2 5 -5 5 -3 0 -5 -2 -5 -5z"/>
<path d="M353 223 c4 -3 10 -3 14 0 3 4 0 7 -7 7 -7 0 -10 -3 -7 -7z"/>
<path d="M400 225 c0 -3 2 -5 5 -5 3 0 5 2 5 5 0 3 -2 5 -5 5 -3 0 -5 -2 -5
-5z"/>
<path d="M480 208 c0 -6 3 -8 7 -5 3 4 18 0 32 -10 l26 -16 -19 21 c-21 24
-46 29 -46 10z"/>
<path d="M3 203 c4 -3 10 -3 14 0 3 4 0 7 -7 7 -7 0 -10 -3 -7 -7z"/>
<path d="M310 186 c0 -8 -8 -21 -18 -28 -10 -7 -22 -20 -27 -28 -4 -8 8 0 28
19 20 19 34 38 31 43 -8 12 -14 10 -14 -6z"/>
<path d="M951 188 c-1 -9 -9 -23 -19 -30 -10 -7 -22 -20 -26 -28 -5 -8 6 -1
24 16 18 18 30 38 27 45 -4 10 -6 9 -6 -3z"/>
<path d="M616 167 c-4 -18 -4 -18 15 -1 23 21 23 21 5 21 -8 0 -17 -9 -20 -20z"/>
<path d="M68 158 c-10 -12 -18 -27 -18 -32 0 -5 7 -1 16 10 8 10 13 13 9 7 -3
-7 -2 -13 4 -13 5 0 13 9 16 20 4 11 11 18 16 15 5 -4 9 -1 9 4 0 19 -34 11
-52 -11z"/>
<path d="M391 167 c-6 -6 -11 -17 -11 -24 0 -7 -5 -13 -12 -13 -6 0 -9 -2 -6
-5 10 -11 37 7 31 21 -4 10 0 12 11 8 9 -3 13 -11 9 -17 -3 -6 -1 -7 6 -3 6 4
9 12 6 17 -4 5 -1 9 4 9 6 0 11 4 11 8 0 12 -36 12 -49 -1z"/>
<path d="M708 158 c-10 -12 -18 -27 -18 -32 0 -5 7 -1 16 10 8 10 13 13 9 7
-3 -7 -2 -13 4 -13 5 0 13 9 16 20 4 11 11 18 16 15 5 -4 9 -1 9 4 0 19 -34
11 -52 -11z"/>
<path d="M154 145 c-4 -8 -11 -12 -18 -8 -6 3 -8 3 -4 -2 4 -4 3 -14 -4 -22
-8 -11 -7 -12 6 -7 9 3 16 10 16 16 0 5 4 7 9 3 6 -3 9 4 8 15 -2 24 -6 25
-13 5z"/>
<path d="M186 144 c-4 -9 -4 -19 -1 -22 2 -3 7 3 11 12 4 9 4 19 1 22 -2 3 -7
-3 -11 -12z"/>
<path d="M468 140 c-10 -11 -13 -22 -8 -25 6 -4 10 -1 10 6 0 9 3 9 14 0 12
-10 17 -8 25 7 19 35 -14 45 -41 12z m32 -5 c0 -8 -2 -15 -4 -15 -2 0 -6 7
-10 15 -3 8 -1 15 4 15 6 0 10 -7 10 -15z"/>
<path d="M794 145 c-4 -8 -11 -12 -18 -8 -6 3 -8 3 -4 -2 4 -4 3 -14 -4 -22
-8 -11 -7 -12 6 -7 9 3 16 10 16 16 0 5 4 7 9 3 6 -3 9 4 8 15 -2 24 -6 25
-13 5z"/>
<path d="M826 144 c-4 -9 -4 -19 -1 -22 2 -3 7 3 11 12 4 9 4 19 1 22 -2 3 -7
-3 -11 -12z"/>
<path d="M320 135 c0 -3 2 -5 5 -5 3 0 5 2 5 5 0 3 -2 5 -5 5 -3 0 -5 -2 -5
-5z"/>
<path d="M583 133 c4 -3 10 -3 14 0 3 4 0 7 -7 7 -7 0 -10 -3 -7 -7z"/>
<path d="M80 115 c0 -3 2 -5 5 -5 3 0 5 2 5 5 0 3 -2 5 -5 5 -3 0 -5 -2 -5 -5z"/>
<path d="M720 115 c0 -3 2 -5 5 -5 3 0 5 2 5 5 0 3 -2 5 -5 5 -3 0 -5 -2 -5
-5z"/>
<path d="M170 105 c0 -3 2 -5 5 -5 3 0 5 2 5 5 0 3 -2 5 -5 5 -3 0 -5 -2 -5
-5z"/>
<path d="M440 105 c0 -3 2 -5 5 -5 3 0 5 2 5 5 0 3 -2 5 -5 5 -3 0 -5 -2 -5
-5z"/>
<path d="M810 105 c0 -3 2 -5 5 -5 3 0 5 2 5 5 0 3 -2 5 -5 5 -3 0 -5 -2 -5
-5z"/>
<path d="M500 95 c0 -3 2 -5 5 -5 3 0 5 2 5 5 0 3 -2 5 -5 5 -3 0 -5 -2 -5 -5z"/>
<path d="M6 73 c-6 -14 -5 -15 5 -6 7 7 10 15 7 18 -3 3 -9 -2 -12 -12z"/>
<path d="M245 80 c3 -5 8 -10 11 -10 2 0 4 5 4 10 0 6 -5 10 -11 10 -5 0 -7
-4 -4 -10z"/>
<path d="M323 75 c-3 -9 -3 -18 -1 -21 3 -3 8 4 11 16 6 23 -1 27 -10 5z"/>
<path d="M553 83 c4 -3 10 -3 14 0 3 4 0 7 -7 7 -7 0 -10 -3 -7 -7z"/>
<path d="M646 73 c-6 -14 -5 -15 5 -6 7 7 10 15 7 18 -3 3 -9 -2 -12 -12z"/>
<path d="M885 80 c3 -5 8 -10 11 -10 2 0 4 5 4 10 0 6 -5 10 -11 10 -5 0 -7
-4 -4 -10z"/>
<path d="M197 66 c-10 -8 -14 -16 -10 -19 5 -3 14 3 21 14 14 22 13 23 -11 5z"/>
<path d="M514 66 c-10 -8 -16 -17 -13 -20 3 -3 14 3 24 14 21 23 17 26 -11 6z"/>
<path d="M837 66 c-10 -8 -14 -16 -10 -19 5 -3 14 3 21 14 14 22 13 23 -11 5z"/>
<path d="M90 56 c0 -2 7 -7 16 -10 8 -3 12 -2 9 4 -6 10 -25 14 -25 6z"/>
<path d="M240 55 c0 -3 2 -5 5 -5 3 0 5 2 5 5 0 3 -2 5 -5 5 -3 0 -5 -2 -5 -5z"/>
<path d="M416 52 c-3 -5 1 -9 9 -9 8 0 12 4 9 9 -3 4 -7 8 -9 8 -2 0 -6 -4 -9
-8z"/>
<path d="M730 56 c0 -2 7 -7 16 -10 8 -3 12 -2 9 4 -6 10 -25 14 -25 6z"/>
<path d="M880 55 c0 -3 2 -5 5 -5 3 0 5 2 5 5 0 3 -2 5 -5 5 -3 0 -5 -2 -5 -5z"/>
<path d="M0 45 c0 -3 2 -5 5 -5 3 0 5 2 5 5 0 3 -2 5 -5 5 -3 0 -5 -2 -5 -5z"/>
<path d="M70 45 c0 -3 2 -5 5 -5 3 0 5 2 5 5 0 3 -2 5 -5 5 -3 0 -5 -2 -5 -5z"/>
<path d="M390 45 c0 -3 2 -5 5 -5 3 0 5 2 5 5 0 3 -2 5 -5 5 -3 0 -5 -2 -5 -5z"/>
<path d="M640 45 c0 -3 2 -5 5 -5 3 0 5 2 5 5 0 3 -2 5 -5 5 -3 0 -5 -2 -5 -5z"/>
<path d="M710 45 c0 -3 2 -5 5 -5 3 0 5 2 5 5 0 3 -2 5 -5 5 -3 0 -5 -2 -5 -5z"/>
<path d="M480 16 c0 -9 5 -16 10 -16 6 0 10 4 10 9 0 6 -4 13 -10 16 -5 3 -10
-1 -10 -9z"/>
<path d="M160 9 c0 -5 5 -7 10 -4 6 3 10 8 10 11 0 2 -4 4 -10 4 -5 0 -10 -5
-10 -11z"/>
<path d="M800 9 c0 -5 5 -7 10 -4 6 3 10 8 10 11 0 2 -4 4 -10 4 -5 0 -10 -5
-10 -11z"/>
<path d="M30 5 c0 -3 2 -5 5 -5 3 0 5 2 5 5 0 3 -2 5 -5 5 -3 0 -5 -2 -5 -5z"/>
<path d="M190 5 c0 -3 2 -5 5 -5 3 0 5 2 5 5 0 3 -2 5 -5 5 -3 0 -5 -2 -5 -5z"/>
<path d="M340 5 c0 -3 2 -5 5 -5 3 0 5 2 5 5 0 3 -2 5 -5 5 -3 0 -5 -2 -5 -5z"/>
<path d="M360 5 c0 -3 2 -5 5 -5 3 0 5 2 5 5 0 3 -2 5 -5 5 -3 0 -5 -2 -5 -5z"/>
<path d="M630 5 c0 -3 2 -5 5 -5 3 0 5 2 5 5 0 3 -2 5 -5 5 -3 0 -5 -2 -5 -5z"/>
<path d="M670 5 c0 -3 2 -5 5 -5 3 0 5 2 5 5 0 3 -2 5 -5 5 -3 0 -5 -2 -5 -5z"/>
<path d="M830 5 c0 -3 2 -5 5 -5 3 0 5 2 5 5 0 3 -2 5 -5 5 -3 0 -5 -2 -5 -5z"/>
</g>
<g transform="translate(0.000000,96.000000) scale(0.100000,-0.100000)"
fill="#438d43" stroke="none">
<path d="M780 955 c0 -3 2 -5 5 -5 3 0 5 2 5 5 0 3 -2 5 -5 5 -3 0 -5 -2 -5
-5z"/>
<path d="M810 955 c0 -3 2 -5 5 -5 3 0 5 2 5 5 0 3 -2 5 -5 5 -3 0 -5 -2 -5
-5z"/>
<path d="M500 945 c0 -3 2 -5 5 -5 3 0 5 2 5 5 0 3 -2 5 -5 5 -3 0 -5 -2 -5
-5z"/>
<path d="M121 926 c-9 -11 -9 -16 0 -22 7 -4 9 -3 5 4 -3 5 0 12 6 15 7 2 10
7 7 11 -3 4 -12 0 -18 -8z"/>
<path d="M150 935 c0 -3 2 -5 5 -5 3 0 5 2 5 5 0 3 -2 5 -5 5 -3 0 -5 -2 -5
-5z"/>
<path d="M450 932 c0 -4 9 -8 19 -8 11 0 17 4 15 8 -3 4 -12 8 -20 8 -8 0 -14
-4 -14 -8z"/>
<path d="M759 923 c-13 -15 -12 -15 9 -4 12 6 28 9 34 5 7 -4 8 -3 4 4 -10 17
-31 15 -47 -5z"/>
<path d="M820 935 c0 -3 2 -5 5 -5 3 0 5 2 5 5 0 3 -2 5 -5 5 -3 0 -5 -2 -5
-5z"/>
<path d="M431 914 c0 -11 3 -14 6 -6 3 7 2 16 -1 19 -3 4 -6 -2 -5 -13z"/>
<path d="M850 925 c0 -3 2 -5 5 -5 3 0 5 2 5 5 0 3 -2 5 -5 5 -3 0 -5 -2 -5
-5z"/>
<path d="M150 905 c0 -3 2 -5 5 -5 3 0 5 2 5 5 0 3 -2 5 -5 5 -3 0 -5 -2 -5
-5z"/>
<path d="M760 895 c0 -3 2 -5 5 -5 3 0 5 2 5 5 0 3 -2 5 -5 5 -3 0 -5 -2 -5
-5z"/>
<path d="M90 880 c0 -7 3 -10 7 -7 3 4 3 10 0 14 -4 3 -7 0 -7 -7z"/>
<path d="M170 865 c-7 -9 -10 -18 -7 -22 4 -3 9 2 13 11 3 9 11 13 17 9 6 -3
7 -1 3 5 -9 15 -11 15 -26 -3z"/>
<path d="M220 875 c0 -3 2 -5 5 -5 3 0 5 2 5 5 0 3 -2 5 -5 5 -3 0 -5 -2 -5
-5z"/>
<path d="M491 867 c-15 -15 -14 -24 3 -30 10 -4 12 0 8 16 -5 19 -4 20 11 9 9
-8 21 -12 26 -10 6 1 0 8 -14 14 -17 8 -27 8 -34 1z"/>
<path d="M540 875 c0 -3 2 -5 5 -5 3 0 5 2 5 5 0 3 -2 5 -5 5 -3 0 -5 -2 -5
-5z"/>
<path d="M860 875 c0 -3 2 -5 5 -5 3 0 5 2 5 5 0 3 -2 5 -5 5 -3 0 -5 -2 -5
-5z"/>
<path d="M890 875 c0 -3 2 -5 5 -5 3 0 5 2 5 5 0 3 -2 5 -5 5 -3 0 -5 -2 -5
-5z"/>
<path d="M80 855 c0 -3 2 -5 5 -5 3 0 5 2 5 5 0 3 -2 5 -5 5 -3 0 -5 -2 -5 -5z"/>
<path d="M210 850 c0 -5 5 -10 11 -10 5 0 7 5 4 10 -3 6 -8 10 -11 10 -2 0 -4
-4 -4 -10z"/>
<path d="M800 849 c0 -5 5 -7 10 -4 6 3 10 8 10 11 0 2 -4 4 -10 4 -5 0 -10
-5 -10 -11z"/>
<path d="M850 855 c0 -3 2 -5 5 -5 3 0 5 2 5 5 0 3 -2 5 -5 5 -3 0 -5 -2 -5
-5z"/>
<path d="M850 830 c0 -7 3 -10 7 -7 3 4 3 10 0 14 -4 3 -7 0 -7 -7z"/>
<path d="M870 835 c0 -3 2 -5 5 -5 3 0 5 2 5 5 0 3 -2 5 -5 5 -3 0 -5 -2 -5
-5z"/>
<path d="M85 810 c-3 -5 1 -10 10 -10 9 0 13 5 10 10 -3 6 -8 10 -10 10 -2 0
-7 -4 -10 -10z"/>
<path d="M400 812 c0 -15 11 -21 27 -15 12 5 12 7 1 14 -17 11 -28 11 -28 1z"/>
<path d="M720 810 c0 -5 7 -10 16 -10 8 0 12 5 9 10 -3 6 -10 10 -16 10 -5 0
-9 -4 -9 -10z"/>
<path d="M180 783 c0 -13 5 -23 10 -23 13 0 13 11 0 30 -8 12 -10 11 -10 -7z"/>
<path d="M506 784 c-4 -9 -4 -19 -1 -22 2 -3 7 3 11 12 4 9 4 19 1 22 -2 3 -7
-3 -11 -12z"/>
<path d="M650 795 c0 -3 2 -5 5 -5 3 0 5 2 5 5 0 3 -2 5 -5 5 -3 0 -5 -2 -5
-5z"/>
<path d="M818 793 c7 -3 16 -2 19 1 4 3 -2 6 -13 5 -11 0 -14 -3 -6 -6z"/>
<path d="M100 785 c0 -3 2 -5 5 -5 3 0 5 2 5 5 0 3 -2 5 -5 5 -3 0 -5 -2 -5
-5z"/>
<path d="M140 785 c0 -3 2 -5 5 -5 3 0 5 2 5 5 0 3 -2 5 -5 5 -3 0 -5 -2 -5
-5z"/>
<path d="M300 785 c0 -3 2 -5 5 -5 3 0 5 2 5 5 0 3 -2 5 -5 5 -3 0 -5 -2 -5
-5z"/>
<path d="M590 785 c0 -3 2 -5 5 -5 3 0 5 2 5 5 0 3 -2 5 -5 5 -3 0 -5 -2 -5
-5z"/>
<path d="M734 778 c-4 -7 -3 -8 4 -4 12 7 16 16 8 16 -3 0 -8 -5 -12 -12z"/>
<path d="M400 775 c0 -3 2 -5 5 -5 3 0 5 2 5 5 0 3 -2 5 -5 5 -3 0 -5 -2 -5
-5z"/>
<path d="M823 773 c4 -3 10 -3 14 0 3 4 0 7 -7 7 -7 0 -10 -3 -7 -7z"/>
<path d="M220 765 c0 -3 2 -5 5 -5 3 0 5 2 5 5 0 3 -2 5 -5 5 -3 0 -5 -2 -5
-5z"/>
<path d="M30 755 c0 -3 2 -5 5 -5 3 0 5 2 5 5 0 3 -2 5 -5 5 -3 0 -5 -2 -5 -5z"/>
<path d="M400 755 c0 -3 2 -5 5 -5 3 0 5 2 5 5 0 3 -2 5 -5 5 -3 0 -5 -2 -5
-5z"/>
<path d="M810 755 c0 -3 2 -5 5 -5 3 0 5 2 5 5 0 3 -2 5 -5 5 -3 0 -5 -2 -5
-5z"/>
<path d="M490 745 c0 -3 2 -5 5 -5 3 0 5 2 5 5 0 3 -2 5 -5 5 -3 0 -5 -2 -5
-5z"/>
<path d="M720 745 c0 -3 2 -5 5 -5 3 0 5 2 5 5 0 3 -2 5 -5 5 -3 0 -5 -2 -5
-5z"/>
<path d="M40 735 c0 -3 2 -5 5 -5 3 0 5 2 5 5 0 3 -2 5 -5 5 -3 0 -5 -2 -5 -5z"/>
<path d="M250 735 c0 -3 2 -5 5 -5 3 0 5 2 5 5 0 3 -2 5 -5 5 -3 0 -5 -2 -5
-5z"/>
<path d="M830 735 c0 -3 2 -5 5 -5 3 0 5 2 5 5 0 3 -2 5 -5 5 -3 0 -5 -2 -5
-5z"/>
<path d="M565 720 c3 -5 8 -10 11 -10 2 0 4 5 4 10 0 6 -5 10 -11 10 -5 0 -7
-4 -4 -10z"/>
<path d="M880 725 c0 -3 2 -5 5 -5 3 0 5 2 5 5 0 3 -2 5 -5 5 -3 0 -5 -2 -5
-5z"/>
<path d="M250 710 c0 -7 3 -10 7 -7 3 4 3 10 0 14 -4 3 -7 0 -7 -7z"/>
<path d="M410 695 c0 -3 2 -5 5 -5 3 0 5 2 5 5 0 3 -2 5 -5 5 -3 0 -5 -2 -5
-5z"/>
<path d="M560 695 c0 -3 2 -5 5 -5 3 0 5 2 5 5 0 3 -2 5 -5 5 -3 0 -5 -2 -5
-5z"/>
<path d="M180 685 c0 -3 2 -5 5 -5 3 0 5 2 5 5 0 3 -2 5 -5 5 -3 0 -5 -2 -5
-5z"/>
<path d="M200 675 c0 -3 2 -5 5 -5 3 0 5 2 5 5 0 3 -2 5 -5 5 -3 0 -5 -2 -5
-5z"/>
<path d="M760 675 c0 -3 2 -5 5 -5 3 0 5 2 5 5 0 3 -2 5 -5 5 -3 0 -5 -2 -5
-5z"/>
<path d="M160 654 c0 -8 5 -12 10 -9 6 4 8 11 5 16 -9 14 -15 11 -15 -7z"/>
<path d="M800 654 c0 -8 5 -12 10 -9 6 4 8 11 5 16 -9 14 -15 11 -15 -7z"/>
<path d="M476 644 c-5 -14 -4 -15 9 -4 17 14 19 20 6 20 -5 0 -12 -7 -15 -16z"/>
<path d="M500 625 c0 -3 2 -5 5 -5 3 0 5 2 5 5 0 3 -2 5 -5 5 -3 0 -5 -2 -5
-5z"/>
<path d="M820 621 c0 -6 4 -13 10 -16 6 -3 7 1 4 9 -7 18 -14 21 -14 7z"/>
<path d="M116 611 c-11 -4 -15 -10 -10 -13 5 -4 20 0 34 8 26 14 9 18 -24 5z"/>
<path d="M450 612 c0 -4 9 -8 19 -8 11 0 17 4 15 8 -3 4 -12 8 -20 8 -8 0 -14
-4 -14 -8z"/>
<path d="M766 611 c-3 -5 5 -8 19 -8 14 0 22 3 19 8 -3 5 -11 9 -19 9 -8 0
-16 -4 -19 -9z"/>
<path d="M431 594 c0 -11 3 -14 6 -6 3 7 2 16 -1 19 -3 4 -6 -2 -5 -13z"/>
<path d="M140 585 c0 -3 2 -5 5 -5 3 0 5 2 5 5 0 3 -2 5 -5 5 -3 0 -5 -2 -5
-5z"/>
<path d="M760 585 c0 -3 2 -5 5 -5 3 0 5 2 5 5 0 3 -2 5 -5 5 -3 0 -5 -2 -5
-5z"/>
<path d="M194 544 c14 -17 36 -12 36 8 0 7 -4 7 -13 -1 -9 -7 -18 -7 -25 -1
-7 6 -6 3 2 -6z"/>
<path d="M490 545 c-7 -9 -10 -18 -7 -22 4 -3 9 2 13 11 3 9 11 13 17 9 6 -3
7 -1 3 5 -9 15 -11 15 -26 -3z"/>
<path d="M536 545 c-3 -8 -1 -15 4 -15 6 0 10 7 10 15 0 8 -2 15 -4 15 -2 0
-6 -7 -10 -15z"/>
<path d="M857 545 c-4 -8 -3 -16 1 -19 4 -3 9 4 9 15 2 23 -3 25 -10 4z"/>
<path d="M80 535 c0 -3 2 -5 5 -5 3 0 5 2 5 5 0 3 -2 5 -5 5 -3 0 -5 -2 -5 -5z"/>
<path d="M170 535 c0 -3 2 -5 5 -5 3 0 5 2 5 5 0 3 -2 5 -5 5 -3 0 -5 -2 -5
-5z"/>
<path d="M800 529 c0 -5 5 -7 10 -4 6 3 10 8 10 11 0 2 -4 4 -10 4 -5 0 -10
-5 -10 -11z"/>
<path d="M230 520 c0 -7 3 -10 7 -7 3 4 3 10 0 14 -4 3 -7 0 -7 -7z"/>
<path d="M210 515 c0 -3 2 -5 5 -5 3 0 5 2 5 5 0 3 -2 5 -5 5 -3 0 -5 -2 -5
-5z"/>
<path d="M500 515 c0 -3 2 -5 5 -5 3 0 5 2 5 5 0 3 -2 5 -5 5 -3 0 -5 -2 -5
-5z"/>
<path d="M850 505 c0 -3 2 -5 5 -5 3 0 5 2 5 5 0 3 -2 5 -5 5 -3 0 -5 -2 -5
-5z"/>
<path d="M80 491 c0 -14 18 -23 31 -15 8 4 7 9 -2 15 -18 11 -29 11 -29 0z"/>
<path d="M405 490 c-8 -13 9 -20 24 -11 10 6 9 10 -3 14 -8 3 -18 2 -21 -3z"/>
<path d="M720 491 c0 -6 5 -13 10 -16 6 -4 7 -11 4 -17 -4 -7 -2 -8 5 -4 6 4
9 12 6 17 -4 5 0 9 7 9 9 0 9 3 -2 10 -19 12 -30 13 -30 1z"/>
<path d="M180 461 c0 -25 6 -27 13 -6 4 8 2 17 -3 20 -6 4 -10 -3 -10 -14z"/>
<path d="M498 458 c5 -20 15 -17 18 6 1 7 -4 13 -11 13 -7 0 -10 -8 -7 -19z"/>
<path d="M815 455 c0 -22 1 -23 12 -9 7 9 10 21 7 25 -10 17 -19 9 -19 -16z"/>
<path d="M140 465 c0 -3 2 -5 5 -5 3 0 5 2 5 5 0 3 -2 5 -5 5 -3 0 -5 -2 -5
-5z"/>
<path d="M80 455 c0 -3 2 -5 5 -5 3 0 5 2 5 5 0 3 -2 5 -5 5 -3 0 -5 -2 -5 -5z"/>
<path d="M400 455 c0 -3 2 -5 5 -5 3 0 5 2 5 5 0 3 -2 5 -5 5 -3 0 -5 -2 -5
-5z"/>
<path d="M640 455 c0 -3 2 -5 5 -5 3 0 5 2 5 5 0 3 -2 5 -5 5 -3 0 -5 -2 -5
-5z"/>
<path d="M200 445 c0 -3 2 -5 5 -5 3 0 5 2 5 5 0 3 -2 5 -5 5 -3 0 -5 -2 -5
-5z"/>
<path d="M30 435 c0 -3 2 -5 5 -5 3 0 5 2 5 5 0 3 -2 5 -5 5 -3 0 -5 -2 -5 -5z"/>
<path d="M150 435 c0 -3 2 -5 5 -5 3 0 5 2 5 5 0 3 -2 5 -5 5 -3 0 -5 -2 -5
-5z"/>
<path d="M400 435 c0 -3 2 -5 5 -5 3 0 5 2 5 5 0 3 -2 5 -5 5 -3 0 -5 -2 -5
-5z"/>
<path d="M490 425 c0 -3 2 -5 5 -5 3 0 5 2 5 5 0 3 -2 5 -5 5 -3 0 -5 -2 -5
-5z"/>
<path d="M40 415 c0 -3 2 -5 5 -5 3 0 5 2 5 5 0 3 -2 5 -5 5 -3 0 -5 -2 -5 -5z"/>
<path d="M245 410 c-3 -5 -1 -10 4 -10 6 0 11 5 11 10 0 6 -2 10 -4 10 -3 0
-8 -4 -11 -10z"/>
<path d="M566 405 c-3 -8 -1 -15 4 -15 6 0 10 7 10 15 0 8 -2 15 -4 15 -2 0
-6 -7 -10 -15z"/>
<path d="M820 415 c0 -3 2 -5 5 -5 3 0 5 2 5 5 0 3 -2 5 -5 5 -3 0 -5 -2 -5
-5z"/>
<path d="M880 405 c0 -3 2 -5 5 -5 3 0 5 2 5 5 0 3 -2 5 -5 5 -3 0 -5 -2 -5
-5z"/>
<path d="M130 395 c0 -3 2 -5 5 -5 3 0 5 2 5 5 0 3 -2 5 -5 5 -3 0 -5 -2 -5
-5z"/>
<path d="M403 373 c4 -3 10 -3 14 0 3 4 0 7 -7 7 -7 0 -10 -3 -7 -7z"/>
<path d="M560 375 c0 -3 2 -5 5 -5 3 0 5 2 5 5 0 3 -2 5 -5 5 -3 0 -5 -2 -5
-5z"/>
<path d="M180 365 c0 -3 2 -5 5 -5 3 0 5 2 5 5 0 3 -2 5 -5 5 -3 0 -5 -2 -5
-5z"/>
<path d="M730 365 c0 -3 2 -5 5 -5 3 0 5 2 5 5 0 3 -2 5 -5 5 -3 0 -5 -2 -5
-5z"/>
<path d="M820 365 c0 -3 2 -5 5 -5 3 0 5 2 5 5 0 3 -2 5 -5 5 -3 0 -5 -2 -5
-5z"/>
<path d="M165 340 c3 -5 8 -10 11 -10 3 0 2 5 -1 10 -3 6 -8 10 -11 10 -3 0
-2 -4 1 -10z"/>
<path d="M800 331 c0 -25 6 -27 13 -6 4 8 2 17 -3 20 -6 4 -10 -3 -10 -14z"/>
<path d="M480 330 c0 -7 3 -10 7 -7 3 4 3 10 0 14 -4 3 -7 0 -7 -7z"/>
<path d="M180 305 c0 -3 2 -5 5 -5 3 0 5 2 5 5 0 3 -2 5 -5 5 -3 0 -5 -2 -5
-5z"/>
<path d="M500 301 c0 -6 4 -13 10 -16 6 -3 7 1 4 9 -7 18 -14 21 -14 7z"/>
<path d="M820 305 c0 -3 2 -5 5 -5 3 0 5 2 5 5 0 3 -2 5 -5 5 -3 0 -5 -2 -5
-5z"/>
<path d="M123 293 c-7 -2 -13 -11 -13 -20 0 -12 2 -12 16 2 9 9 23 14 31 11 8
-3 11 -1 8 4 -7 11 -22 12 -42 3z"/>
<path d="M446 291 c-3 -5 5 -8 19 -8 14 0 22 3 19 8 -3 5 -11 9 -19 9 -8 0
-16 -4 -19 -9z"/>
<path d="M770 292 c0 -4 9 -8 19 -8 11 0 17 4 15 8 -3 4 -12 8 -20 8 -8 0 -14
-4 -14 -8z"/>
<path d="M745 280 c-3 -5 -1 -10 4 -10 6 0 11 5 11 10 0 6 -2 10 -4 10 -3 0
-8 -4 -11 -10z"/>
<path d="M440 265 c0 -3 2 -5 5 -5 3 0 5 2 5 5 0 3 -2 5 -5 5 -3 0 -5 -2 -5
-5z"/>
<path d="M171 227 c-15 -15 -14 -24 3 -30 10 -4 12 0 8 16 -5 19 -4 20 11 9 9
-8 21 -12 26 -10 6 1 0 8 -14 14 -17 8 -27 8 -34 1z"/>
<path d="M220 235 c0 -3 2 -5 5 -5 3 0 5 2 5 5 0 3 -2 5 -5 5 -3 0 -5 -2 -5
-5z"/>
<path d="M537 225 c-4 -8 -3 -16 1 -19 4 -3 9 4 9 15 2 23 -3 25 -10 4z"/>
<path d="M811 227 c-15 -15 -14 -24 3 -30 10 -4 12 0 8 16 -5 19 -4 20 11 9 9
-8 21 -12 26 -10 6 1 0 8 -14 14 -17 8 -27 8 -34 1z"/>
<path d="M860 235 c0 -3 2 -5 5 -5 3 0 5 2 5 5 0 3 -2 5 -5 5 -3 0 -5 -2 -5
-5z"/>
<path d="M480 209 c0 -5 5 -7 10 -4 6 3 10 8 10 11 0 2 -4 4 -10 4 -5 0 -10
-5 -10 -11z"/>
<path d="M530 185 c0 -3 2 -5 5 -5 3 0 5 2 5 5 0 3 -2 5 -5 5 -3 0 -5 -2 -5
-5z"/>
<path d="M80 171 c0 -6 5 -13 10 -16 6 -3 10 1 10 9 0 9 -4 16 -10 16 -5 0
-10 -4 -10 -9z"/>
<path d="M400 171 c0 -6 5 -13 10 -16 6 -4 7 -11 4 -17 -4 -7 -2 -8 5 -4 6 4
9 12 6 17 -4 5 0 9 7 9 9 0 9 3 -2 10 -19 12 -30 13 -30 1z"/>
<path d="M720 171 c0 -6 5 -13 10 -16 6 -3 10 1 10 9 0 9 -4 16 -10 16 -5 0
-10 -4 -10 -9z"/>
<path d="M110 165 c0 -3 2 -5 5 -5 3 0 5 2 5 5 0 3 -2 5 -5 5 -3 0 -5 -2 -5
-5z"/>
<path d="M750 165 c0 -3 2 -5 5 -5 3 0 5 2 5 5 0 3 -2 5 -5 5 -3 0 -5 -2 -5
-5z"/>
<path d="M186 144 c-4 -9 -4 -19 -1 -22 2 -3 7 3 11 12 4 9 4 19 1 22 -2 3 -7
-3 -11 -12z"/>
<path d="M495 135 c0 -22 1 -23 12 -9 7 9 10 21 7 25 -10 17 -19 9 -19 -16z"/>
<path d="M826 144 c-4 -9 -4 -19 -1 -22 2 -3 7 3 11 12 4 9 4 19 1 22 -2 3 -7
-3 -11 -12z"/>
<path d="M270 145 c0 -3 2 -5 5 -5 3 0 5 2 5 5 0 3 -2 5 -5 5 -3 0 -5 -2 -5
-5z"/>
<path d="M910 145 c0 -3 2 -5 5 -5 3 0 5 2 5 5 0 3 -2 5 -5 5 -3 0 -5 -2 -5
-5z"/>
<path d="M80 135 c0 -3 2 -5 5 -5 3 0 5 2 5 5 0 3 -2 5 -5 5 -3 0 -5 -2 -5 -5z"/>
<path d="M320 135 c0 -3 2 -5 5 -5 3 0 5 2 5 5 0 3 -2 5 -5 5 -3 0 -5 -2 -5
-5z"/>
<path d="M720 135 c0 -3 2 -5 5 -5 3 0 5 2 5 5 0 3 -2 5 -5 5 -3 0 -5 -2 -5
-5z"/>
<path d="M80 115 c0 -3 2 -5 5 -5 3 0 5 2 5 5 0 3 -2 5 -5 5 -3 0 -5 -2 -5 -5z"/>
<path d="M720 115 c0 -3 2 -5 5 -5 3 0 5 2 5 5 0 3 -2 5 -5 5 -3 0 -5 -2 -5
-5z"/>
<path d="M170 105 c0 -3 2 -5 5 -5 3 0 5 2 5 5 0 3 -2 5 -5 5 -3 0 -5 -2 -5
-5z"/>
<path d="M810 105 c0 -3 2 -5 5 -5 3 0 5 2 5 5 0 3 -2 5 -5 5 -3 0 -5 -2 -5
-5z"/>
<path d="M500 95 c0 -3 2 -5 5 -5 3 0 5 2 5 5 0 3 -2 5 -5 5 -3 0 -5 -2 -5 -5z"/>
<path d="M245 80 c3 -5 8 -10 11 -10 2 0 4 5 4 10 0 6 -5 10 -11 10 -5 0 -7
-4 -4 -10z"/>
<path d="M560 85 c0 -3 2 -5 5 -5 3 0 5 2 5 5 0 3 -2 5 -5 5 -3 0 -5 -2 -5 -5z"/>
<path d="M885 80 c3 -5 8 -10 11 -10 2 0 4 5 4 10 0 6 -5 10 -11 10 -5 0 -7
-4 -4 -10z"/>
<path d="M90 55 c0 -3 2 -5 5 -5 3 0 5 2 5 5 0 3 -2 5 -5 5 -3 0 -5 -2 -5 -5z"/>
<path d="M240 55 c0 -3 2 -5 5 -5 3 0 5 2 5 5 0 3 -2 5 -5 5 -3 0 -5 -2 -5 -5z"/>
<path d="M730 55 c0 -3 2 -5 5 -5 3 0 5 2 5 5 0 3 -2 5 -5 5 -3 0 -5 -2 -5 -5z"/>
<path d="M880 55 c0 -3 2 -5 5 -5 3 0 5 2 5 5 0 3 -2 5 -5 5 -3 0 -5 -2 -5 -5z"/>
<path d="M410 45 c0 -3 2 -5 5 -5 3 0 5 2 5 5 0 3 -2 5 -5 5 -3 0 -5 -2 -5 -5z"/>
<path d="M500 45 c0 -3 2 -5 5 -5 3 0 5 2 5 5 0 3 -2 5 -5 5 -3 0 -5 -2 -5 -5z"/>
<path d="M480 14 c0 -8 5 -12 10 -9 6 4 8 11 5 16 -9 14 -15 11 -15 -7z"/>
<path d="M160 9 c0 -5 5 -7 10 -4 6 3 10 8 10 11 0 2 -4 4 -10 4 -5 0 -10 -5
-10 -11z"/>
<path d="M800 9 c0 -5 5 -7 10 -4 6 3 10 8 10 11 0 2 -4 4 -10 4 -5 0 -10 -5
-10 -11z"/>
</g>
  </g>
</svg>
