<?xml version="1.0" encoding="UTF-8" standalone="no"?>
<!-- Created with Inkscape (http://www.inkscape.org/) -->

<svg
   xmlns:dc="http://purl.org/dc/elements/1.1/"
   xmlns:cc="http://creativecommons.org/ns#"
   xmlns:rdf="http://www.w3.org/1999/02/22-rdf-syntax-ns#"
   xmlns:svg="http://www.w3.org/2000/svg"
   xmlns="http://www.w3.org/2000/svg"
   xmlns:sodipodi="http://sodipodi.sourceforge.net/DTD/sodipodi-0.dtd"
   xmlns:inkscape="http://www.inkscape.org/namespaces/inkscape"
   width="32px"
   height="32px"
   viewBox="0 0 32px 32px"
   version="1.1"
   id="svgMain"
   inkscape:version="0.92.2 (5c3e80d, 2017-08-06)"
   sodipodi:docname="reference_SVG.svg">
  <defs
     id="defs4542" />
  <sodipodi:namedview
     id="base"
     pagecolor="#ffffff"
     bordercolor="#666666"
     borderopacity="1.0"
     inkscape:pageopacity="0.0"
     inkscape:pageshadow="2"
     inkscape:zoom="1"
     inkscape:cx="0"
     inkscape:cy="0"
     inkscape:document-units="px"
     inkscape:current-layer="layer1"
     showgrid="false"
     units="px"
     inkscape:window-width="1024"
     inkscape:window-height="768"
     inkscape:window-x="-8"
     inkscape:window-y="-8"
     inkscape:window-maximized="1" />
  <metadata
     id="metadata1">
    <rdf:RDF>
      <cc:Work
         rdf:about="">
        <dc:format>image/svg+xml</dc:format>
        <dc:type
           rdf:resource="http://purl.org/dc/dcmitype/StillImage" />
        <dc:title />
      </cc:Work>
    </rdf:RDF>
  </metadata>
  <g transform="translate(-32,-32)"
     inkscape:label="Layer 1"
     inkscape:groupmode="layer"
     id="layer1">
    <!-- INSERT MARKER -->
<g transform="translate(0.000000,96.000000) scale(0.100000,-0.100000)"
fill="#a1a54e" stroke="none">
<path d="M0 920 l0 -40 40 0 40 0 0 40 0 40 -40 0 -40 0 0 -40z"/>
<path d="M265 935 c-14 -13 -25 -31 -25 -40 0 -8 -4 -15 -10 -15 -5 0 -10 -22
-10 -50 l0 -50 40 0 40 0 0 49 c0 29 -5 51 -12 53 -16 6 -2 38 17 38 8 0 15
-9 15 -20 0 -17 7 -20 40 -20 l40 0 0 40 0 40 -55 0 c-46 0 -60 -4 -80 -25z"/>
<path d="M585 935 c-14 -13 -25 -31 -25 -40 0 -8 -4 -15 -10 -15 -5 0 -10 -22
-10 -50 l0 -50 40 0 40 0 0 49 c0 29 -5 51 -12 53 -16 6 -2 38 17 38 8 0 15
-9 15 -20 0 -17 7 -20 40 -20 l40 0 0 40 0 40 -55 0 c-46 0 -60 -4 -80 -25z"/>
<path d="M905 935 c-14 -13 -25 -31 -25 -40 0 -8 -4 -15 -10 -15 -5 0 -10 -22
-10 -50 l0 -50 40 0 40 0 0 50 c0 28 -4 50 -10 50 -19 0 -10 32 10 37 23 6 27
43 5 43 -9 0 -27 -11 -40 -25z"/>
<path d="M0 600 l0 -40 40 0 40 0 0 40 0 40 -40 0 -40 0 0 -40z"/>
<path d="M265 615 c-14 -13 -25 -31 -25 -40 0 -8 -4 -15 -10 -15 -5 0 -10 -22
-10 -50 l0 -50 40 0 40 0 0 49 c0 29 -5 51 -12 53 -16 6 -2 38 17 38 8 0 15
-9 15 -20 0 -17 7 -20 40 -20 l40 0 0 40 0 40 -55 0 c-46 0 -60 -4 -80 -25z"/>
<path d="M585 615 c-14 -13 -25 -31 -25 -40 0 -8 -4 -15 -10 -15 -5 0 -10 -22
-10 -50 l0 -50 40 0 40 0 0 49 c0 29 -5 51 -12 53 -16 6 -2 38 17 38 8 0 15
-9 15 -20 0 -17 7 -20 40 -20 l40 0 0 40 0 40 -55 0 c-46 0 -60 -4 -80 -25z"/>
<path d="M905 615 c-14 -13 -25 -31 -25 -40 0 -8 -4 -15 -10 -15 -5 0 -10 -22
-10 -50 l0 -50 40 0 40 0 0 50 c0 28 -4 50 -10 50 -19 0 -10 32 10 37 23 6 27
43 5 43 -9 0 -27 -11 -40 -25z"/>
<path d="M0 280 l0 -40 40 0 40 0 0 40 0 40 -40 0 -40 0 0 -40z"/>
<path d="M265 295 c-14 -13 -25 -31 -25 -40 0 -8 -4 -15 -10 -15 -5 0 -10 -22
-10 -50 l0 -50 40 0 40 0 0 49 c0 29 -5 51 -12 53 -16 6 -2 38 17 38 8 0 15
-9 15 -20 0 -17 7 -20 40 -20 l40 0 0 40 0 40 -55 0 c-46 0 -60 -4 -80 -25z"/>
<path d="M585 295 c-14 -13 -25 -31 -25 -40 0 -8 -4 -15 -10 -15 -5 0 -10 -22
-10 -50 l0 -50 40 0 40 0 0 49 c0 29 -5 51 -12 53 -16 6 -2 38 17 38 8 0 15
-9 15 -20 0 -17 7 -20 40 -20 l40 0 0 40 0 40 -55 0 c-46 0 -60 -4 -80 -25z"/>
<path d="M905 295 c-14 -13 -25 -31 -25 -40 0 -8 -4 -15 -10 -15 -5 0 -10 -22
-10 -50 l0 -50 40 0 40 0 0 50 c0 28 -4 50 -10 50 -19 0 -10 32 10 37 23 6 27
43 5 43 -9 0 -27 -11 -40 -25z"/>
</g>
<g transform="translate(0.000000,96.000000) scale(0.100000,-0.100000)"
fill="#737233" stroke="none">
<path d="M0 920 l0 -40 40 0 40 0 0 40 0 40 -40 0 -40 0 0 -40z m56 6 c-1 -20
-4 -22 -18 -15 -14 8 -16 6 -12 -8 5 -15 4 -16 -5 -3 -16 22 -14 43 4 36 8 -3
15 -1 15 4 0 6 4 10 9 10 5 0 8 -11 7 -24z"/>
<path d="M263 934 c-24 -25 -30 -44 -12 -44 5 0 8 3 5 8 -6 10 15 37 36 45 10
3 20 2 23 -3 4 -6 -1 -10 -9 -10 -9 0 -23 -11 -32 -25 -9 -14 -25 -25 -35 -25
-16 0 -19 -8 -19 -50 l0 -50 40 0 40 0 0 49 c0 29 -5 51 -12 53 -16 6 -2 38
17 38 8 0 15 -9 15 -20 0 -17 7 -20 40 -20 l40 0 0 40 0 41 -57 -2 c-45 -2
-62 -7 -80 -25z m102 8 c12 -9 13 -35 1 -44 -15 -10 -36 3 -36 21 0 28 15 38
35 23z m-77 -105 c-1 -26 -22 -47 -47 -47 -6 0 -11 18 -11 40 0 38 1 40 29 38
25 -2 29 -6 29 -31z"/>
<path d="M350 905 c0 -3 2 -5 5 -5 3 0 5 2 5 5 0 3 -2 5 -5 5 -3 0 -5 -2 -5
-5z"/>
<path d="M249 858 c-5 -9 -4 -56 1 -52 5 6 8 54 3 54 -2 0 -4 -1 -4 -2z"/>
<path d="M583 934 c-24 -25 -30 -44 -12 -44 5 0 8 4 4 9 -5 10 32 51 46 51 4
0 11 -4 14 -10 3 -5 -1 -10 -9 -10 -9 0 -23 -11 -32 -25 -9 -14 -25 -25 -35
-25 -16 0 -19 -8 -19 -50 l0 -50 40 0 c38 0 40 2 40 31 0 18 -4 28 -10 24 -6
-4 -8 -10 -5 -15 6 -9 -25 -30 -44 -30 -6 0 -11 18 -11 41 0 38 1 40 28 37 15
-1 30 -7 34 -13 5 -6 8 -3 8 7 0 9 -5 18 -12 20 -16 6 -2 38 17 38 8 0 15 -9
15 -20 0 -17 7 -20 40 -20 l40 0 0 40 0 41 -57 -2 c-45 -2 -62 -7 -80 -25z
m112 4 c15 2 17 1 6 -6 -7 -6 -11 -14 -8 -19 3 -5 -4 -9 -16 -8 -15 1 -23 9
-25 24 -3 17 0 21 10 15 7 -5 22 -7 33 -6z"/>
<path d="M905 935 c-14 -13 -25 -30 -25 -37 1 -13 30 19 30 32 0 3 12 11 28
17 19 8 22 11 9 12 -10 1 -29 -10 -42 -24z"/>
<path d="M914 905 c-9 -14 -25 -25 -35 -25 -16 0 -19 -8 -19 -50 l0 -50 40 0
40 0 0 50 c0 28 -4 50 -10 50 -19 0 -10 31 13 40 16 6 18 9 5 9 -10 1 -25 -10
-34 -24z m14 -62 c-3 -29 -24 -52 -45 -53 -8 0 -13 14 -13 40 0 38 2 40 31 40
27 0 30 -3 27 -27z"/>
<path d="M889 858 c-4 -12 -5 -57 0 -53 6 6 10 55 4 55 -1 0 -3 -1 -4 -2z"/>
<path d="M564 831 c0 -16 3 -27 6 -25 7 8 7 54 0 54 -4 0 -7 -13 -6 -29z"/>
<path d="M0 600 l0 -40 40 0 40 0 0 40 0 40 -40 0 -40 0 0 -40z m50 21 c3 -1
6 -9 6 -20 0 -12 -5 -17 -15 -13 -9 3 -12 1 -7 -6 4 -7 3 -12 -2 -12 -6 0 -12
7 -16 15 -3 8 0 15 6 15 7 0 7 4 -1 14 -10 12 -9 14 6 11 10 -2 20 -4 23 -4z"/>
<path d="M265 615 c-14 -13 -25 -30 -25 -37 1 -8 7 -5 15 7 27 37 36 45 46 40
5 -4 9 -1 9 4 0 18 -20 12 -45 -14z"/>
<path d="M320 625 c0 -8 -7 -15 -15 -15 -8 0 -22 -11 -31 -25 -9 -14 -25 -25
-35 -25 -16 0 -19 -8 -19 -50 l0 -50 40 0 40 0 0 49 c0 29 -5 51 -12 53 -16 6
-2 38 17 38 8 0 15 -9 15 -20 0 -17 7 -20 40 -20 l40 0 0 40 0 40 -40 0 c-29
0 -40 -4 -40 -15z m34 -7 c-5 -7 -2 -9 7 -6 9 4 15 -1 15 -11 0 -11 -8 -17
-20 -16 -24 2 -33 24 -15 36 19 12 22 11 13 -3z m-80 -74 c20 -8 21 -38 0 -58
-28 -28 -44 -20 -44 24 0 41 9 47 44 34z"/>
<path d="M340 595 c0 -3 2 -5 5 -5 3 0 5 2 5 5 0 3 -2 5 -5 5 -3 0 -5 -2 -5
-5z"/>
<path d="M249 533 c0 -5 -2 -18 -3 -30 -1 -12 1 -20 4 -18 8 5 11 55 4 55 -2
0 -4 -3 -5 -7z"/>
<path d="M583 614 c-24 -24 -30 -44 -13 -44 6 0 9 3 9 8 -3 19 2 33 11 27 16
-10 -8 -45 -30 -45 -17 0 -20 -7 -20 -50 l0 -50 40 0 c38 0 40 2 40 31 0 18
-4 28 -10 24 -6 -4 -8 -10 -5 -15 6 -9 -25 -30 -44 -30 -6 0 -11 18 -11 41 0
38 1 40 28 37 15 -1 30 -7 34 -13 5 -6 8 -3 8 7 0 9 -5 18 -12 20 -16 6 -2 38
17 38 8 0 15 -9 15 -20 0 -17 7 -20 40 -20 l40 0 0 40 0 41 -57 -2 c-45 -2
-62 -7 -80 -25z m51 7 c3 -5 -3 -11 -14 -14 -22 -6 -37 8 -18 16 20 8 26 8 32
-2z m66 -11 c-7 -5 -9 -13 -5 -21 6 -9 4 -11 -8 -6 -9 3 -18 1 -21 -6 -3 -7
-3 -1 0 12 4 16 3 21 -5 17 -6 -4 -11 -1 -11 7 0 9 9 12 31 9 19 -3 26 -7 19
-12z"/>
<path d="M905 615 c-14 -13 -25 -30 -25 -37 1 -13 30 19 30 32 0 3 12 11 28
17 19 8 22 11 9 12 -10 1 -29 -10 -42 -24z"/>
<path d="M914 585 c-9 -14 -25 -25 -35 -25 -16 0 -19 -8 -19 -50 0 -27 3 -50
8 -50 4 0 6 20 4 45 -4 45 -4 45 28 45 28 0 31 -3 28 -27 -2 -16 -12 -36 -23
-45 -20 -17 -20 -17 8 -18 26 0 27 2 27 50 0 28 -4 50 -10 50 -19 0 -10 31 13
40 16 6 18 9 5 9 -10 1 -25 -10 -34 -24z"/>
<path d="M564 511 c0 -16 3 -27 6 -25 7 8 7 54 0 54 -4 0 -7 -13 -6 -29z"/>
<path d="M889 538 c-4 -12 -5 -57 0 -53 6 6 10 55 4 55 -1 0 -3 -1 -4 -2z"/>
<path d="M0 280 l0 -40 40 0 40 0 0 40 0 40 -40 0 -40 0 0 -40z m45 22 c20
-14 13 -39 -11 -39 -16 0 -24 5 -24 17 0 27 15 37 35 22z"/>
<path d="M263 294 c-24 -24 -30 -44 -13 -44 5 0 9 3 9 8 -3 19 2 33 11 27 16
-10 -8 -45 -30 -45 -17 0 -20 -7 -20 -50 l0 -50 40 0 c38 0 40 2 40 31 0 18
-4 28 -10 24 -6 -4 -8 -10 -5 -15 6 -9 -25 -30 -44 -30 -6 0 -11 18 -11 41 0
38 1 40 28 37 15 -1 30 -7 34 -13 5 -6 8 -3 8 7 0 9 -5 18 -12 20 -16 6 -2 38
17 38 8 0 15 -9 15 -20 0 -17 7 -20 40 -20 l40 0 0 40 0 41 -57 -2 c-45 -2
-62 -7 -80 -25z m51 7 c3 -5 -3 -11 -14 -14 -22 -6 -37 8 -18 16 20 8 26 8 32
-2z m66 -11 c-7 -5 -9 -13 -5 -21 6 -9 4 -11 -8 -6 -9 3 -18 1 -21 -6 -3 -7
-3 -1 0 12 4 16 3 21 -5 17 -6 -4 -11 -1 -11 7 0 9 9 12 31 9 19 -3 26 -7 19
-12z"/>
<path d="M585 295 c-14 -13 -25 -30 -25 -37 1 -12 24 12 32 32 5 13 48 22 48
11 0 -6 -7 -11 -15 -11 -8 0 -22 -11 -31 -25 -9 -14 -25 -25 -35 -25 -16 0
-19 -8 -19 -50 0 -27 3 -50 8 -50 4 0 6 20 4 45 -4 45 -4 45 28 45 28 0 31 -3
28 -27 -2 -16 -12 -36 -23 -45 -20 -17 -20 -17 8 -18 26 0 27 2 27 49 0 29 -5
51 -12 53 -16 6 -2 38 17 38 8 0 15 -9 15 -20 0 -17 7 -20 40 -20 l40 0 0 40
0 40 -55 0 c-46 0 -60 -4 -80 -25z m100 7 c6 -4 11 -15 13 -24 2 -16 0 -16
-23 -6 -25 11 -30 19 -18 31 8 9 15 9 28 -1z m-15 -36 c0 -3 -4 -8 -10 -11 -5
-3 -10 -1 -10 4 0 6 5 11 10 11 6 0 10 -2 10 -4z"/>
<path d="M905 295 c-26 -25 -32 -45 -14 -45 5 0 8 4 4 9 -8 14 36 53 53 46 7
-2 10 0 7 5 -10 16 -24 12 -50 -15z"/>
<path d="M914 265 c-9 -14 -25 -25 -35 -25 -16 0 -19 -8 -19 -50 l0 -50 40 0
c38 0 40 2 40 31 0 18 -4 28 -10 24 -6 -4 -8 -10 -5 -15 6 -9 -25 -30 -44 -30
-6 0 -11 18 -11 41 0 38 1 40 28 37 15 -1 30 -7 34 -13 5 -6 8 -2 8 8 0 9 -4
17 -10 17 -19 0 -10 31 13 40 16 6 18 9 5 9 -10 1 -25 -10 -34 -24z"/>
<path d="M244 191 c0 -16 3 -27 6 -25 7 8 7 54 0 54 -4 0 -7 -13 -6 -29z"/>
<path d="M569 218 c-4 -12 -5 -57 0 -53 6 6 10 55 4 55 -1 0 -3 -1 -4 -2z"/>
<path d="M884 191 c0 -16 3 -27 6 -25 7 8 7 54 0 54 -4 0 -7 -13 -6 -29z"/>
</g>
<g transform="translate(0.000000,96.000000) scale(0.100000,-0.100000)"
fill="#858a3d" stroke="none">
<path d="M26 951 c-17 -6 -17 -8 -4 -14 10 -3 19 0 22 9 3 8 4 14 3 13 -1 0
-11 -4 -21 -8z"/>
<path d="M265 935 c-26 -25 -32 -45 -14 -45 5 0 8 3 5 8 -7 13 21 43 42 45 11
0 18 5 16 9 -9 14 -24 9 -49 -17z"/>
<path d="M585 935 c-26 -25 -32 -45 -14 -45 5 0 8 4 4 9 -8 14 36 53 53 46 7
-2 10 0 7 5 -10 16 -24 12 -50 -15z"/>
<path d="M905 935 c-14 -13 -25 -30 -25 -37 1 -13 30 19 30 32 0 3 12 11 28
17 19 8 22 11 9 12 -10 1 -29 -10 -42 -24z"/>
<path d="M57 936 c-4 -10 -4 -22 -1 -28 4 -6 -1 -6 -13 1 -21 11 -33 6 -33
-13 0 -6 5 -4 10 4 6 10 10 11 10 3 0 -7 9 -13 19 -13 22 0 31 18 21 44 -6 18
-7 18 -13 2z"/>
<path d="M330 945 c0 -3 2 -5 5 -5 3 0 5 2 5 5 0 3 -2 5 -5 5 -3 0 -5 -2 -5
-5z"/>
<path d="M365 942 c6 -4 10 -13 11 -19 2 -29 4 -34 13 -29 14 9 0 56 -18 56
-9 0 -12 -3 -6 -8z"/>
<path d="M664 941 c3 -5 15 -7 26 -4 28 7 25 13 -6 13 -14 0 -23 -4 -20 -9z"/>
<path d="M286 921 c-4 -5 3 -7 14 -4 23 6 26 13 6 13 -8 0 -17 -4 -20 -9z"/>
<path d="M594 905 c-9 -14 -23 -25 -32 -25 -8 0 -13 -3 -9 -6 11 -11 42 6 54
31 14 32 8 32 -13 0z"/>
<path d="M633 923 c4 -3 10 -3 14 0 3 4 0 7 -7 7 -7 0 -10 -3 -7 -7z"/>
<path d="M693 916 c4 -10 -3 -12 -25 -10 -25 3 -28 1 -19 -10 18 -22 70 -2 71
27 0 4 -7 7 -16 7 -10 0 -14 -6 -11 -14z"/>
<path d="M930 925 c0 -3 2 -5 5 -5 3 0 5 2 5 5 0 3 -2 5 -5 5 -3 0 -5 -2 -5
-5z"/>
<path d="M950 925 c0 -3 2 -5 5 -5 3 0 5 2 5 5 0 3 -2 5 -5 5 -3 0 -5 -2 -5
-5z"/>
<path d="M340 900 c-9 -6 -10 -10 -3 -10 6 0 15 5 18 10 8 12 4 12 -15 0z"/>
<path d="M910 901 c0 -6 -10 -16 -22 -21 l-23 -9 23 0 c22 -1 41 23 28 36 -3
4 -6 1 -6 -6z"/>
<path d="M270 891 c0 -5 -10 -11 -22 -13 -21 -3 -21 -4 5 -9 22 -5 27 -3 27
12 0 11 -2 19 -5 19 -3 0 -5 -4 -5 -9z"/>
<path d="M590 865 c0 -3 2 -5 5 -5 3 0 5 2 5 5 0 3 -2 5 -5 5 -3 0 -5 -2 -5
-5z"/>
<path d="M928 845 c-3 -14 -1 -25 3 -25 5 0 9 11 9 25 0 14 -2 25 -4 25 -2 0
-6 -11 -8 -25z"/>
<path d="M220 855 c0 -3 2 -5 5 -5 3 0 5 2 5 5 0 3 -2 5 -5 5 -3 0 -5 -2 -5
-5z"/>
<path d="M249 858 c-5 -9 -4 -56 1 -52 5 6 8 54 3 54 -2 0 -4 -1 -4 -2z"/>
<path d="M287 845 c-4 -8 -2 -17 3 -20 6 -4 10 3 10 14 0 25 -6 27 -13 6z"/>
<path d="M540 855 c0 -3 2 -5 5 -5 3 0 5 2 5 5 0 3 -2 5 -5 5 -3 0 -5 -2 -5
-5z"/>
<path d="M564 831 c0 -16 3 -27 6 -25 7 8 7 54 0 54 -4 0 -7 -13 -6 -29z"/>
<path d="M610 855 c0 -3 2 -5 5 -5 3 0 5 2 5 5 0 3 -2 5 -5 5 -3 0 -5 -2 -5
-5z"/>
<path d="M860 855 c0 -3 2 -5 5 -5 3 0 5 2 5 5 0 3 -2 5 -5 5 -3 0 -5 -2 -5
-5z"/>
<path d="M889 858 c-4 -12 -5 -57 0 -53 6 6 10 55 4 55 -1 0 -3 -1 -4 -2z"/>
<path d="M605 830 c-3 -5 -1 -10 4 -10 6 0 11 5 11 10 0 6 -2 10 -4 10 -3 0
-8 -4 -11 -10z"/>
<path d="M267 798 c-10 -5 -25 -7 -33 -4 -9 3 -12 1 -9 -4 8 -13 52 -13 60 1
10 15 2 19 -18 7z"/>
<path d="M570 794 c-32 -12 -32 -13 -9 -13 14 -1 34 6 45 14 23 17 11 17 -36
-1z"/>
<path d="M860 798 c0 -23 65 -26 74 -3 7 18 -7 19 -34 3 -17 -11 -22 -10 -30
2 -8 13 -10 12 -10 -2z"/>
<path d="M12 620 c-9 -16 -10 -25 -2 -38 11 -16 11 -16 6 1 -3 9 -1 17 5 17 6
0 8 4 4 9 -8 13 8 21 24 12 10 -6 8 -12 -6 -26 -17 -17 -17 -18 0 -12 9 3 17
2 17 -4 0 -6 5 -7 10 -4 6 4 8 16 4 28 -8 26 -5 23 -29 31 -14 4 -24 0 -33
-14z"/>
<path d="M265 615 c-14 -13 -25 -30 -25 -37 1 -8 7 -5 15 7 27 37 36 45 46 40
5 -4 9 -1 9 4 0 18 -20 12 -45 -14z"/>
<path d="M585 615 c-26 -25 -32 -45 -15 -45 6 0 9 3 9 8 -3 19 2 33 11 27 15
-9 -7 -45 -27 -45 -9 0 -14 -3 -10 -6 11 -11 42 6 54 31 6 14 7 23 3 20 -5 -3
-11 -1 -14 4 -7 11 22 23 36 14 7 -3 8 -1 4 5 -11 18 -24 15 -51 -13z"/>
<path d="M680 630 l-25 -8 28 -1 c15 -1 27 4 27 9 0 6 -1 10 -2 9 -2 -1 -14
-5 -28 -9z"/>
<path d="M905 615 c-14 -13 -25 -30 -25 -37 1 -13 30 19 30 32 0 3 12 11 28
17 19 8 22 11 9 12 -10 1 -29 -10 -42 -24z"/>
<path d="M344 618 c9 -5 20 -7 24 -4 4 2 8 -4 8 -14 0 -15 -4 -17 -21 -8 -11
6 -22 11 -25 11 -3 0 -11 2 -18 5 -8 2 -21 -3 -30 -13 -16 -16 -16 -16 6 -4
20 12 24 12 33 -3 7 -12 22 -18 46 -18 32 0 35 2 29 23 -3 12 -6 25 -6 29 0 4
-14 6 -31 6 -24 -1 -27 -3 -15 -10z m6 -33 c0 -3 -2 -5 -5 -5 -3 0 -5 2 -5 5
0 3 2 5 5 5 3 0 5 -2 5 -5z"/>
<path d="M630 605 c0 -3 2 -5 5 -5 3 0 5 2 5 5 0 3 -2 5 -5 5 -3 0 -5 -2 -5
-5z"/>
<path d="M651 597 c-7 -9 -8 -18 -2 -21 5 -3 12 0 14 6 4 10 6 10 6 1 1 -19
38 -16 45 3 9 22 8 24 -10 24 -10 0 -14 -6 -10 -15 7 -20 -11 -19 -22 1 -7 13
-10 13 -21 1z"/>
<path d="M930 605 c0 -3 2 -5 5 -5 3 0 5 2 5 5 0 3 -2 5 -5 5 -3 0 -5 -2 -5
-5z"/>
<path d="M950 605 c0 -3 2 -5 5 -5 3 0 5 2 5 5 0 3 -2 5 -5 5 -3 0 -5 -2 -5
-5z"/>
<path d="M910 581 c0 -6 -10 -16 -22 -21 l-23 -9 23 0 c22 -1 41 23 28 36 -3
4 -6 1 -6 -6z"/>
<path d="M243 563 c-13 -2 -23 -8 -23 -12 0 -5 10 -6 23 -4 33 5 51 -11 43
-40 -7 -30 -44 -46 -57 -26 -7 11 -9 10 -9 -4 0 -14 6 -17 32 -14 40 4 58 45
37 83 -7 13 -15 23 -18 23 -3 -1 -16 -4 -28 -6z"/>
<path d="M590 545 c0 -3 2 -5 5 -5 3 0 5 2 5 5 0 3 -2 5 -5 5 -3 0 -5 -2 -5
-5z"/>
<path d="M928 525 c-3 -14 -1 -25 3 -25 5 0 9 11 9 25 0 14 -2 25 -4 25 -2 0
-6 -11 -8 -25z"/>
<path d="M249 533 c0 -5 -2 -18 -3 -30 -1 -12 1 -20 4 -18 8 5 11 55 4 55 -2
0 -4 -3 -5 -7z"/>
<path d="M540 535 c0 -3 2 -5 5 -5 3 0 5 2 5 5 0 3 -2 5 -5 5 -3 0 -5 -2 -5
-5z"/>
<path d="M564 511 c0 -16 3 -27 6 -25 7 8 7 54 0 54 -4 0 -7 -13 -6 -29z"/>
<path d="M610 535 c0 -3 2 -5 5 -5 3 0 5 2 5 5 0 3 -2 5 -5 5 -3 0 -5 -2 -5
-5z"/>
<path d="M860 535 c0 -3 2 -5 5 -5 3 0 5 2 5 5 0 3 -2 5 -5 5 -3 0 -5 -2 -5
-5z"/>
<path d="M889 538 c-4 -12 -5 -57 0 -53 6 6 10 55 4 55 -1 0 -3 -1 -4 -2z"/>
<path d="M220 520 c0 -7 3 -10 7 -7 3 4 3 10 0 14 -4 3 -7 0 -7 -7z"/>
<path d="M605 510 c-3 -5 -1 -10 4 -10 6 0 11 5 11 10 0 6 -2 10 -4 10 -3 0
-8 -4 -11 -10z"/>
<path d="M570 474 c-32 -12 -32 -13 -9 -13 14 -1 34 6 45 14 23 17 11 17 -36
-1z"/>
<path d="M860 485 c0 -3 2 -5 5 -5 3 0 5 2 5 5 0 3 -2 5 -5 5 -3 0 -5 -2 -5
-5z"/>
<path d="M900 475 c-16 -19 0 -19 26 0 16 12 16 14 3 15 -9 0 -22 -7 -29 -15z"/>
<path d="M870 465 c0 -3 2 -5 5 -5 3 0 5 2 5 5 0 3 -2 5 -5 5 -3 0 -5 -2 -5
-5z"/>
<path d="M55 310 c-11 -5 -15 -9 -10 -9 6 -1 11 -9 11 -20 0 -13 -7 -18 -23
-18 -13 0 -23 4 -23 10 0 6 -2 8 -5 5 -14 -14 9 -33 40 -34 35 0 35 0 33 38
-2 21 -3 38 -3 37 0 0 -9 -4 -20 -9z"/>
<path d="M265 295 c-26 -25 -32 -45 -15 -45 5 0 9 3 9 8 -3 19 2 33 11 27 15
-9 -7 -45 -27 -45 -9 0 -14 -3 -10 -6 11 -11 42 6 54 31 6 14 7 23 3 20 -5 -3
-11 -1 -14 4 -7 11 22 23 36 14 7 -3 8 -1 4 5 -11 18 -24 15 -51 -13z"/>
<path d="M360 310 l-25 -8 28 -1 c15 -1 27 4 27 9 0 6 -1 10 -2 9 -2 -1 -14
-5 -28 -9z"/>
<path d="M585 295 c-14 -13 -25 -30 -25 -37 1 -13 30 19 30 32 0 3 12 11 28
17 19 8 22 11 9 12 -10 1 -29 -10 -42 -24z"/>
<path d="M905 295 c-26 -25 -32 -45 -14 -45 5 0 8 4 4 9 -8 14 36 53 53 46 7
-2 10 0 7 5 -10 16 -24 12 -50 -15z"/>
<path d="M10 305 c0 -3 2 -5 5 -5 3 0 5 2 5 5 0 3 -2 5 -5 5 -3 0 -5 -2 -5 -5z"/>
<path d="M650 305 c0 -3 2 -5 5 -5 3 0 5 2 5 5 0 3 -2 5 -5 5 -3 0 -5 -2 -5
-5z"/>
<path d="M688 301 c8 -4 13 -11 13 -15 -3 -22 0 -36 8 -32 14 9 0 56 -18 56
-12 0 -13 -2 -3 -9z"/>
<path d="M310 285 c0 -3 2 -5 5 -5 3 0 5 2 5 5 0 3 -2 5 -5 5 -3 0 -5 -2 -5
-5z"/>
<path d="M331 277 c-7 -9 -8 -18 -2 -21 5 -3 12 0 14 6 4 10 6 10 6 1 1 -19
38 -16 45 3 9 22 8 24 -10 24 -10 0 -14 -6 -10 -15 7 -20 -11 -19 -22 1 -7 13
-10 13 -21 1z"/>
<path d="M610 285 c0 -3 2 -5 5 -5 3 0 5 2 5 5 0 3 -2 5 -5 5 -3 0 -5 -2 -5
-5z"/>
<path d="M630 285 c0 -3 2 -5 5 -5 3 0 5 2 5 5 0 3 -2 5 -5 5 -3 0 -5 -2 -5
-5z"/>
<path d="M914 265 c-9 -14 -23 -25 -32 -25 -8 0 -13 -3 -9 -6 11 -11 42 6 54
31 14 32 8 32 -13 0z"/>
<path d="M950 285 c0 -3 2 -5 5 -5 3 0 5 2 5 5 0 3 -2 5 -5 5 -3 0 -5 -2 -5
-5z"/>
<path d="M658 273 c6 -2 10 -9 6 -14 -3 -5 -1 -9 5 -9 17 0 21 18 5 24 -9 3
-19 6 -22 5 -4 0 -1 -3 6 -6z"/>
<path d="M590 261 c0 -6 -10 -16 -22 -21 l-23 -9 23 0 c22 -1 41 23 28 36 -3
4 -6 1 -6 -6z"/>
<path d="M270 225 c0 -3 2 -5 5 -5 3 0 5 2 5 5 0 3 -2 5 -5 5 -3 0 -5 -2 -5
-5z"/>
<path d="M608 205 c-3 -14 -1 -25 3 -25 5 0 9 11 9 25 0 14 -2 25 -4 25 -2 0
-6 -11 -8 -25z"/>
<path d="M910 225 c0 -3 2 -5 5 -5 3 0 5 2 5 5 0 3 -2 5 -5 5 -3 0 -5 -2 -5
-5z"/>
<path d="M220 215 c0 -3 2 -5 5 -5 3 0 5 2 5 5 0 3 -2 5 -5 5 -3 0 -5 -2 -5
-5z"/>
<path d="M244 191 c0 -16 3 -27 6 -25 7 8 7 54 0 54 -4 0 -7 -13 -6 -29z"/>
<path d="M290 215 c0 -3 2 -5 5 -5 3 0 5 2 5 5 0 3 -2 5 -5 5 -3 0 -5 -2 -5
-5z"/>
<path d="M540 215 c0 -3 2 -5 5 -5 3 0 5 2 5 5 0 3 -2 5 -5 5 -3 0 -5 -2 -5
-5z"/>
<path d="M569 218 c-4 -12 -5 -57 0 -53 6 6 10 55 4 55 -1 0 -3 -1 -4 -2z"/>
<path d="M860 215 c0 -3 2 -5 5 -5 3 0 5 2 5 5 0 3 -2 5 -5 5 -3 0 -5 -2 -5
-5z"/>
<path d="M884 191 c0 -16 3 -27 6 -25 7 8 7 54 0 54 -4 0 -7 -13 -6 -29z"/>
<path d="M930 215 c0 -3 2 -5 5 -5 3 0 5 2 5 5 0 3 -2 5 -5 5 -3 0 -5 -2 -5
-5z"/>
<path d="M285 190 c-3 -5 -1 -10 4 -10 6 0 11 5 11 10 0 6 -2 10 -4 10 -3 0
-8 -4 -11 -10z"/>
<path d="M925 190 c-3 -5 -1 -10 4 -10 6 0 11 5 11 10 0 6 -2 10 -4 10 -3 0
-8 -4 -11 -10z"/>
<path d="M250 154 c-32 -12 -32 -13 -9 -13 14 -1 34 6 45 14 23 17 11 17 -36
-1z"/>
<path d="M540 165 c0 -3 2 -5 5 -5 3 0 5 2 5 5 0 3 -2 5 -5 5 -3 0 -5 -2 -5
-5z"/>
<path d="M580 155 c-16 -19 0 -19 26 0 16 12 16 14 3 15 -9 0 -22 -7 -29 -15z"/>
<path d="M890 154 c-32 -12 -32 -13 -9 -13 14 -1 34 6 45 14 23 17 11 17 -36
-1z"/>
<path d="M550 145 c0 -3 2 -5 5 -5 3 0 5 2 5 5 0 3 -2 5 -5 5 -3 0 -5 -2 -5
-5z"/>
</g>
<g transform="translate(0.000000,96.000000) scale(0.100000,-0.100000)"
fill="#7e8239" stroke="none">
<path d="M40 955 c0 -3 2 -5 5 -5 3 0 5 2 5 5 0 3 -2 5 -5 5 -3 0 -5 -2 -5 -5z"/>
<path d="M265 935 c-26 -25 -32 -45 -14 -45 5 0 8 3 5 8 -7 13 21 43 42 45 11
0 18 5 16 9 -9 14 -24 9 -49 -17z"/>
<path d="M585 935 c-28 -28 -31 -40 -11 -48 9 -4 21 5 31 21 l16 27 -20 -23
c-11 -12 -22 -18 -25 -13 -9 14 35 53 52 46 7 -2 10 0 7 5 -10 16 -24 12 -50
-15z"/>
<path d="M905 935 c-14 -13 -25 -30 -25 -37 1 -13 30 19 30 32 0 3 12 11 28
17 19 8 22 11 9 12 -10 1 -29 -10 -42 -24z"/>
<path d="M60 945 c-6 -38 -6 -55 1 -55 12 0 17 24 8 45 -4 11 -8 16 -9 10z"/>
<path d="M360 945 c0 -3 2 -5 5 -5 3 0 5 2 5 5 0 3 -2 5 -5 5 -3 0 -5 -2 -5
-5z"/>
<path d="M380 945 c0 -3 2 -5 5 -5 3 0 5 2 5 5 0 3 -2 5 -5 5 -3 0 -5 -2 -5
-5z"/>
<path d="M666 939 c4 -7 44 0 44 7 0 2 -11 3 -24 2 -14 -1 -23 -5 -20 -9z"/>
<path d="M30 935 c0 -3 2 -5 5 -5 3 0 5 2 5 5 0 3 -2 5 -5 5 -3 0 -5 -2 -5 -5z"/>
<path d="M285 920 c-3 -6 1 -7 9 -4 18 7 21 14 7 14 -6 0 -13 -4 -16 -10z"/>
<path d="M633 923 c4 -3 10 -3 14 0 3 4 0 7 -7 7 -7 0 -10 -3 -7 -7z"/>
<path d="M705 920 c-3 -5 -1 -10 4 -10 6 0 11 5 11 10 0 6 -2 10 -4 10 -3 0
-8 -4 -11 -10z"/>
<path d="M930 925 c0 -3 2 -5 5 -5 3 0 5 2 5 5 0 3 -2 5 -5 5 -3 0 -5 -2 -5
-5z"/>
<path d="M950 925 c0 -3 2 -5 5 -5 3 0 5 2 5 5 0 3 -2 5 -5 5 -3 0 -5 -2 -5
-5z"/>
<path d="M20 915 c0 -3 2 -5 5 -5 3 0 5 2 5 5 0 3 -2 5 -5 5 -3 0 -5 -2 -5 -5z"/>
<path d="M350 905 c0 -3 2 -5 5 -5 3 0 5 2 5 5 0 3 -2 5 -5 5 -3 0 -5 -2 -5
-5z"/>
<path d="M390 905 c0 -3 2 -5 5 -5 3 0 5 2 5 5 0 3 -2 5 -5 5 -3 0 -5 -2 -5
-5z"/>
<path d="M640 905 c0 -3 2 -5 5 -5 3 0 5 2 5 5 0 3 -2 5 -5 5 -3 0 -5 -2 -5
-5z"/>
<path d="M906 895 c-3 -8 -1 -15 4 -15 6 0 10 7 10 15 0 8 -2 15 -4 15 -2 0
-6 -7 -10 -15z"/>
<path d="M266 885 c-3 -8 -1 -15 4 -15 6 0 10 7 10 15 0 8 -2 15 -4 15 -2 0
-6 -7 -10 -15z"/>
<path d="M700 895 c0 -3 2 -5 5 -5 3 0 5 2 5 5 0 3 -2 5 -5 5 -3 0 -5 -2 -5
-5z"/>
<path d="M660 885 c0 -3 2 -5 5 -5 3 0 5 2 5 5 0 3 -2 5 -5 5 -3 0 -5 -2 -5
-5z"/>
<path d="M930 865 c0 -3 2 -5 5 -5 3 0 5 2 5 5 0 3 -2 5 -5 5 -3 0 -5 -2 -5
-5z"/>
<path d="M249 858 c-5 -9 -4 -56 1 -52 5 6 8 54 3 54 -2 0 -4 -1 -4 -2z"/>
<path d="M540 855 c0 -3 2 -5 5 -5 3 0 5 2 5 5 0 3 -2 5 -5 5 -3 0 -5 -2 -5
-5z"/>
<path d="M564 831 c0 -16 3 -27 6 -25 7 8 7 54 0 54 -4 0 -7 -13 -6 -29z"/>
<path d="M860 855 c0 -3 2 -5 5 -5 3 0 5 2 5 5 0 3 -2 5 -5 5 -3 0 -5 -2 -5
-5z"/>
<path d="M889 858 c-4 -12 -5 -57 0 -53 6 6 10 55 4 55 -1 0 -3 -1 -4 -2z"/>
<path d="M610 805 c0 -3 2 -5 5 -5 3 0 5 2 5 5 0 3 -2 5 -5 5 -3 0 -5 -2 -5
-5z"/>
<path d="M861 794 c0 -11 3 -14 6 -6 3 7 2 16 -1 19 -3 4 -6 -2 -5 -13z"/>
<path d="M930 805 c0 -3 2 -5 5 -5 3 0 5 2 5 5 0 3 -2 5 -5 5 -3 0 -5 -2 -5
-5z"/>
<path d="M220 795 c0 -3 2 -5 5 -5 3 0 5 2 5 5 0 3 -2 5 -5 5 -3 0 -5 -2 -5
-5z"/>
<path d="M263 783 c4 -3 10 -3 14 0 3 4 0 7 -7 7 -7 0 -10 -3 -7 -7z"/>
<path d="M540 785 c0 -3 2 -5 5 -5 3 0 5 2 5 5 0 3 -2 5 -5 5 -3 0 -5 -2 -5
-5z"/>
<path d="M580 785 c0 -3 2 -5 5 -5 3 0 5 2 5 5 0 3 -2 5 -5 5 -3 0 -5 -2 -5
-5z"/>
<path d="M908 783 c7 -3 16 -2 19 1 4 3 -2 6 -13 5 -11 0 -14 -3 -6 -6z"/>
<path d="M12 619 c-7 -12 -11 -24 -8 -27 3 -3 6 0 6 7 0 7 5 9 13 5 6 -4 9 -4
5 1 -4 4 -3 14 3 22 6 7 7 13 3 13 -5 0 -15 -9 -22 -21z"/>
<path d="M265 615 c-14 -13 -25 -30 -25 -37 1 -8 7 -5 15 7 27 37 36 45 46 40
5 -4 9 -1 9 4 0 18 -20 12 -45 -14z"/>
<path d="M585 615 c-28 -28 -31 -40 -11 -48 9 -4 21 5 31 20 10 14 12 23 7 19
-6 -3 -13 -2 -16 3 -7 11 22 23 36 14 7 -3 8 -1 4 5 -11 18 -24 15 -51 -13z
m9 -30 c-4 -8 -10 -13 -15 -10 -4 3 -6 12 -3 20 4 8 10 13 15 10 4 -3 6 -12 3
-20z"/>
<path d="M690 630 c-13 -8 -12 -10 3 -10 9 0 17 5 17 10 0 12 -1 12 -20 0z"/>
<path d="M905 615 c-14 -13 -25 -30 -25 -37 1 -13 30 19 30 32 0 3 12 11 28
17 19 8 22 11 9 12 -10 1 -29 -10 -42 -24z"/>
<path d="M355 620 c-3 -5 -1 -10 4 -10 6 0 11 5 11 10 0 6 -2 10 -4 10 -3 0
-8 -4 -11 -10z"/>
<path d="M380 625 c0 -3 2 -5 5 -5 3 0 5 2 5 5 0 3 -2 5 -5 5 -3 0 -5 -2 -5
-5z"/>
<path d="M660 625 c0 -3 2 -5 5 -5 3 0 5 2 5 5 0 3 -2 5 -5 5 -3 0 -5 -2 -5
-5z"/>
<path d="M312 596 c7 -8 15 -12 17 -11 5 6 -10 25 -20 25 -5 0 -4 -6 3 -14z"/>
<path d="M381 603 c3 -19 -2 -23 -19 -14 -14 8 -19 6 -19 -5 0 -9 11 -14 29
-14 28 0 39 22 18 35 -6 4 -10 3 -9 -2z"/>
<path d="M630 605 c0 -3 2 -5 5 -5 3 0 5 2 5 5 0 3 -2 5 -5 5 -3 0 -5 -2 -5
-5z"/>
<path d="M660 600 c0 -7 3 -10 7 -7 3 4 3 10 0 14 -4 3 -7 0 -7 -7z"/>
<path d="M703 597 c-4 -8 -15 -17 -23 -20 -10 -4 -8 -6 6 -6 12 -1 25 6 28 15
8 22 0 30 -11 11z"/>
<path d="M930 605 c0 -3 2 -5 5 -5 3 0 5 2 5 5 0 3 -2 5 -5 5 -3 0 -5 -2 -5
-5z"/>
<path d="M950 605 c0 -3 2 -5 5 -5 3 0 5 2 5 5 0 3 -2 5 -5 5 -3 0 -5 -2 -5
-5z"/>
<path d="M70 590 c0 -7 3 -10 7 -7 3 4 3 10 0 14 -4 3 -7 0 -7 -7z"/>
<path d="M270 585 c0 -3 2 -5 5 -5 3 0 5 2 5 5 0 3 -2 5 -5 5 -3 0 -5 -2 -5
-5z"/>
<path d="M645 580 c3 -5 8 -10 11 -10 3 0 2 5 -1 10 -3 6 -8 10 -11 10 -3 0
-2 -4 1 -10z"/>
<path d="M906 575 c-3 -8 -1 -15 4 -15 6 0 10 7 10 15 0 8 -2 15 -4 15 -2 0
-6 -7 -10 -15z"/>
<path d="M263 563 c4 -3 10 -3 14 0 3 4 0 7 -7 7 -7 0 -10 -3 -7 -7z"/>
<path d="M220 545 c0 -3 2 -5 5 -5 3 0 5 2 5 5 0 3 -2 5 -5 5 -3 0 -5 -2 -5
-5z"/>
<path d="M930 545 c0 -3 2 -5 5 -5 3 0 5 2 5 5 0 3 -2 5 -5 5 -3 0 -5 -2 -5
-5z"/>
<path d="M249 533 c0 -5 -2 -18 -3 -30 -1 -12 1 -20 4 -18 8 5 11 55 4 55 -2
0 -4 -3 -5 -7z"/>
<path d="M540 535 c0 -3 2 -5 5 -5 3 0 5 2 5 5 0 3 -2 5 -5 5 -3 0 -5 -2 -5
-5z"/>
<path d="M564 511 c0 -16 3 -27 6 -25 7 8 7 54 0 54 -4 0 -7 -13 -6 -29z"/>
<path d="M860 535 c0 -3 2 -5 5 -5 3 0 5 2 5 5 0 3 -2 5 -5 5 -3 0 -5 -2 -5
-5z"/>
<path d="M889 538 c-4 -12 -5 -57 0 -53 6 6 10 55 4 55 -1 0 -3 -1 -4 -2z"/>
<path d="M220 525 c0 -3 2 -5 5 -5 3 0 5 2 5 5 0 3 -2 5 -5 5 -3 0 -5 -2 -5
-5z"/>
<path d="M221 474 c0 -11 3 -14 6 -6 3 7 2 16 -1 19 -3 4 -6 -2 -5 -13z"/>
<path d="M610 485 c0 -3 2 -5 5 -5 3 0 5 2 5 5 0 3 -2 5 -5 5 -3 0 -5 -2 -5
-5z"/>
<path d="M860 485 c0 -3 2 -5 5 -5 3 0 5 2 5 5 0 3 -2 5 -5 5 -3 0 -5 -2 -5
-5z"/>
<path d="M930 485 c0 -3 2 -5 5 -5 3 0 5 2 5 5 0 3 -2 5 -5 5 -3 0 -5 -2 -5
-5z"/>
<path d="M270 465 c0 -3 2 -5 5 -5 3 0 5 2 5 5 0 3 -2 5 -5 5 -3 0 -5 -2 -5
-5z"/>
<path d="M540 465 c0 -3 2 -5 5 -5 3 0 5 2 5 5 0 3 -2 5 -5 5 -3 0 -5 -2 -5
-5z"/>
<path d="M580 465 c0 -3 2 -5 5 -5 3 0 5 2 5 5 0 3 -2 5 -5 5 -3 0 -5 -2 -5
-5z"/>
<path d="M900 465 c0 -3 2 -5 5 -5 3 0 5 2 5 5 0 3 -2 5 -5 5 -3 0 -5 -2 -5
-5z"/>
<path d="M60 300 c-6 -11 -9 -24 -6 -29 3 -5 -6 -8 -19 -8 -14 0 -25 4 -25 10
0 6 -2 8 -5 5 -14 -14 9 -33 40 -34 35 0 35 0 33 38 -2 21 -4 38 -5 38 -1 0
-7 -9 -13 -20z"/>
<path d="M265 295 c-28 -28 -31 -40 -11 -48 9 -4 21 5 31 20 10 14 12 23 7 19
-6 -3 -13 -2 -16 3 -7 11 22 23 36 14 7 -3 8 -1 4 5 -11 18 -24 15 -51 -13z
m9 -30 c-4 -8 -10 -13 -15 -10 -4 3 -6 12 -3 20 4 8 10 13 15 10 4 -3 6 -12 3
-20z"/>
<path d="M370 310 c-13 -8 -12 -10 3 -10 9 0 17 5 17 10 0 12 -1 12 -20 0z"/>
<path d="M585 295 c-14 -13 -25 -30 -25 -37 1 -13 30 19 30 32 0 3 12 11 28
17 19 8 22 11 9 12 -10 1 -29 -10 -42 -24z"/>
<path d="M905 295 c-28 -28 -31 -40 -11 -48 9 -4 21 5 31 21 l16 27 -20 -23
c-11 -12 -22 -18 -25 -13 -9 14 35 53 52 46 7 -2 10 0 7 5 -10 16 -24 12 -50
-15z"/>
<path d="M40 305 c0 -3 2 -5 5 -5 3 0 5 2 5 5 0 3 -2 5 -5 5 -3 0 -5 -2 -5 -5z"/>
<path d="M340 305 c0 -3 2 -5 5 -5 3 0 5 2 5 5 0 3 -2 5 -5 5 -3 0 -5 -2 -5
-5z"/>
<path d="M650 305 c0 -3 2 -5 5 -5 3 0 5 2 5 5 0 3 -2 5 -5 5 -3 0 -5 -2 -5
-5z"/>
<path d="M680 305 c0 -3 2 -5 5 -5 3 0 5 2 5 5 0 3 -2 5 -5 5 -3 0 -5 -2 -5
-5z"/>
<path d="M310 285 c0 -3 2 -5 5 -5 3 0 5 2 5 5 0 3 -2 5 -5 5 -3 0 -5 -2 -5
-5z"/>
<path d="M340 280 c0 -7 3 -10 7 -7 3 4 3 10 0 14 -4 3 -7 0 -7 -7z"/>
<path d="M383 277 c-4 -8 -15 -17 -23 -20 -10 -4 -8 -6 6 -6 12 -1 25 6 28 15
8 22 0 30 -11 11z"/>
<path d="M610 285 c0 -3 2 -5 5 -5 3 0 5 2 5 5 0 3 -2 5 -5 5 -3 0 -5 -2 -5
-5z"/>
<path d="M630 285 c0 -3 2 -5 5 -5 3 0 5 2 5 5 0 3 -2 5 -5 5 -3 0 -5 -2 -5
-5z"/>
<path d="M700 285 c0 -3 2 -5 5 -5 3 0 5 2 5 5 0 3 -2 5 -5 5 -3 0 -5 -2 -5
-5z"/>
<path d="M950 285 c0 -3 2 -5 5 -5 3 0 5 2 5 5 0 3 -2 5 -5 5 -3 0 -5 -2 -5
-5z"/>
<path d="M660 275 c0 -3 2 -5 5 -5 3 0 5 2 5 5 0 3 -2 5 -5 5 -3 0 -5 -2 -5
-5z"/>
<path d="M325 260 c3 -5 8 -10 11 -10 3 0 2 5 -1 10 -3 6 -8 10 -11 10 -3 0
-2 -4 1 -10z"/>
<path d="M586 255 c-3 -8 -1 -15 4 -15 6 0 10 7 10 15 0 8 -2 15 -4 15 -2 0
-6 -7 -10 -15z"/>
<path d="M710 265 c0 -3 2 -5 5 -5 3 0 5 2 5 5 0 3 -2 5 -5 5 -3 0 -5 -2 -5
-5z"/>
<path d="M610 225 c0 -3 2 -5 5 -5 3 0 5 2 5 5 0 3 -2 5 -5 5 -3 0 -5 -2 -5
-5z"/>
<path d="M220 215 c0 -3 2 -5 5 -5 3 0 5 2 5 5 0 3 -2 5 -5 5 -3 0 -5 -2 -5
-5z"/>
<path d="M244 191 c0 -16 3 -27 6 -25 7 8 7 54 0 54 -4 0 -7 -13 -6 -29z"/>
<path d="M540 215 c0 -3 2 -5 5 -5 3 0 5 2 5 5 0 3 -2 5 -5 5 -3 0 -5 -2 -5
-5z"/>
<path d="M569 218 c-4 -12 -5 -57 0 -53 6 6 10 55 4 55 -1 0 -3 -1 -4 -2z"/>
<path d="M860 215 c0 -3 2 -5 5 -5 3 0 5 2 5 5 0 3 -2 5 -5 5 -3 0 -5 -2 -5
-5z"/>
<path d="M884 191 c0 -16 3 -27 6 -25 7 8 7 54 0 54 -4 0 -7 -13 -6 -29z"/>
<path d="M290 165 c0 -3 2 -5 5 -5 3 0 5 2 5 5 0 3 -2 5 -5 5 -3 0 -5 -2 -5
-5z"/>
<path d="M540 165 c0 -3 2 -5 5 -5 3 0 5 2 5 5 0 3 -2 5 -5 5 -3 0 -5 -2 -5
-5z"/>
<path d="M610 165 c0 -3 2 -5 5 -5 3 0 5 2 5 5 0 3 -2 5 -5 5 -3 0 -5 -2 -5
-5z"/>
<path d="M930 165 c0 -3 2 -5 5 -5 3 0 5 2 5 5 0 3 -2 5 -5 5 -3 0 -5 -2 -5
-5z"/>
<path d="M220 145 c0 -3 2 -5 5 -5 3 0 5 2 5 5 0 3 -2 5 -5 5 -3 0 -5 -2 -5
-5z"/>
<path d="M260 145 c0 -3 2 -5 5 -5 3 0 5 2 5 5 0 3 -2 5 -5 5 -3 0 -5 -2 -5
-5z"/>
<path d="M580 145 c0 -3 2 -5 5 -5 3 0 5 2 5 5 0 3 -2 5 -5 5 -3 0 -5 -2 -5
-5z"/>
<path d="M860 145 c0 -3 2 -5 5 -5 3 0 5 2 5 5 0 3 -2 5 -5 5 -3 0 -5 -2 -5
-5z"/>
<path d="M900 145 c0 -3 2 -5 5 -5 3 0 5 2 5 5 0 3 -2 5 -5 5 -3 0 -5 -2 -5
-5z"/>
</g>
<g transform="translate(0.000000,96.000000) scale(0.100000,-0.100000)"
fill="#c5cb67" stroke="none">
<path d="M265 935 c-26 -25 -32 -45 -14 -45 5 0 8 3 5 8 -7 13 21 43 42 45 11
0 18 5 16 9 -9 14 -24 9 -49 -17z"/>
<path d="M585 935 c-26 -25 -32 -45 -14 -45 5 0 8 4 4 9 -8 14 36 53 53 46 7
-2 10 0 7 5 -10 16 -24 12 -50 -15z"/>
<path d="M905 935 c-14 -13 -25 -30 -25 -37 1 -13 30 19 30 32 0 3 12 11 28
17 19 8 22 11 9 12 -10 1 -29 -10 -42 -24z"/>
<path d="M30 935 c0 -3 2 -5 5 -5 3 0 5 2 5 5 0 3 -2 5 -5 5 -3 0 -5 -2 -5 -5z"/>
<path d="M670 935 c0 -3 2 -5 5 -5 3 0 5 2 5 5 0 3 -2 5 -5 5 -3 0 -5 -2 -5
-5z"/>
<path d="M20 915 c0 -3 2 -5 5 -5 3 0 5 2 5 5 0 3 -2 5 -5 5 -3 0 -5 -2 -5 -5z"/>
<path d="M249 858 c-5 -9 -4 -56 1 -52 5 6 8 54 3 54 -2 0 -4 -1 -4 -2z"/>
<path d="M564 831 c0 -16 3 -27 6 -25 7 8 7 54 0 54 -4 0 -7 -13 -6 -29z"/>
<path d="M889 858 c-4 -12 -5 -57 0 -53 6 6 10 55 4 55 -1 0 -3 -1 -4 -2z"/>
<path d="M265 615 c-14 -13 -25 -30 -25 -37 1 -8 7 -5 15 7 27 37 36 45 46 40
5 -4 9 -1 9 4 0 18 -20 12 -45 -14z"/>
<path d="M585 615 c-26 -25 -32 -45 -15 -45 6 0 9 3 9 8 -3 20 2 32 13 26 6
-4 8 -3 5 3 -8 13 20 26 35 16 7 -3 8 -1 4 5 -11 18 -24 15 -51 -13z"/>
<path d="M905 615 c-14 -13 -25 -30 -25 -37 1 -13 30 19 30 32 0 3 12 11 28
17 19 8 22 11 9 12 -10 1 -29 -10 -42 -24z"/>
<path d="M353 613 c4 -3 10 -3 14 0 3 4 0 7 -7 7 -7 0 -10 -3 -7 -7z"/>
<path d="M20 605 c0 -3 2 -5 5 -5 3 0 5 2 5 5 0 3 -2 5 -5 5 -3 0 -5 -2 -5 -5z"/>
<path d="M660 600 c0 -7 3 -10 7 -7 3 4 3 10 0 14 -4 3 -7 0 -7 -7z"/>
<path d="M340 595 c0 -3 2 -5 5 -5 3 0 5 2 5 5 0 3 -2 5 -5 5 -3 0 -5 -2 -5
-5z"/>
<path d="M249 533 c0 -5 -2 -18 -3 -30 -1 -12 1 -20 4 -18 8 5 11 55 4 55 -2
0 -4 -3 -5 -7z"/>
<path d="M564 511 c0 -16 3 -27 6 -25 7 8 7 54 0 54 -4 0 -7 -13 -6 -29z"/>
<path d="M889 538 c-4 -12 -5 -57 0 -53 6 6 10 55 4 55 -1 0 -3 -1 -4 -2z"/>
<path d="M265 295 c-26 -25 -32 -45 -15 -45 5 0 9 3 9 8 -3 20 2 32 13 26 6
-4 8 -3 5 3 -8 13 20 26 35 16 7 -3 8 -1 4 5 -11 18 -24 15 -51 -13z"/>
<path d="M585 295 c-14 -13 -25 -30 -25 -37 1 -13 30 19 30 32 0 3 12 11 28
17 19 8 22 11 9 12 -10 1 -29 -10 -42 -24z"/>
<path d="M905 295 c-26 -25 -32 -45 -14 -45 5 0 8 4 4 9 -8 14 36 53 53 46 7
-2 10 0 7 5 -10 16 -24 12 -50 -15z"/>
<path d="M340 280 c0 -7 3 -10 7 -7 3 4 3 10 0 14 -4 3 -7 0 -7 -7z"/>
<path d="M660 275 c0 -3 2 -5 5 -5 3 0 5 2 5 5 0 3 -2 5 -5 5 -3 0 -5 -2 -5
-5z"/>
<path d="M244 191 c0 -16 3 -27 6 -25 7 8 7 54 0 54 -4 0 -7 -13 -6 -29z"/>
<path d="M569 218 c-4 -12 -5 -57 0 -53 6 6 10 55 4 55 -1 0 -3 -1 -4 -2z"/>
<path d="M884 191 c0 -16 3 -27 6 -25 7 8 7 54 0 54 -4 0 -7 -13 -6 -29z"/>
</g>
  </g>
</svg>
