<?xml version="1.0" encoding="UTF-8" standalone="no"?>
<!-- Created with Inkscape (http://www.inkscape.org/) -->

<svg
   xmlns:dc="http://purl.org/dc/elements/1.1/"
   xmlns:cc="http://creativecommons.org/ns#"
   xmlns:rdf="http://www.w3.org/1999/02/22-rdf-syntax-ns#"
   xmlns:svg="http://www.w3.org/2000/svg"
   xmlns="http://www.w3.org/2000/svg"
   xmlns:sodipodi="http://sodipodi.sourceforge.net/DTD/sodipodi-0.dtd"
   xmlns:inkscape="http://www.inkscape.org/namespaces/inkscape"
   width="16px"
   height="16px"
   viewBox="0 0 16px 16px"
   version="1.1"
   id="svgMain"
   inkscape:version="0.92.2 (5c3e80d, 2017-08-06)"
   sodipodi:docname="reference_SVG.svg">
  <defs
     id="defs4542" />
  <sodipodi:namedview
     id="base"
     pagecolor="#ffffff"
     bordercolor="#666666"
     borderopacity="1.0"
     inkscape:pageopacity="0.0"
     inkscape:pageshadow="2"
     inkscape:zoom="1"
     inkscape:cx="0"
     inkscape:cy="0"
     inkscape:document-units="px"
     inkscape:current-layer="layer1"
     showgrid="false"
     units="px"
     inkscape:window-width="1024"
     inkscape:window-height="768"
     inkscape:window-x="-8"
     inkscape:window-y="-8"
     inkscape:window-maximized="1" />
  <metadata
     id="metadata1">
    <rdf:RDF>
      <cc:Work
         rdf:about="">
        <dc:format>image/svg+xml</dc:format>
        <dc:type
           rdf:resource="http://purl.org/dc/dcmitype/StillImage" />
        <dc:title />
      </cc:Work>
    </rdf:RDF>
  </metadata>
  <g transform="translate(-16,-16) scale(0.5,0.5)"
     inkscape:label="Layer 1"
     inkscape:groupmode="layer"
     id="layer1">
    <!-- INSERT MARKER -->
<g transform="translate(0.000000,96.000000) scale(0.100000,-0.100000)"
fill="#685222" stroke="none">
<path d="M0 900 l0 -60 60 0 60 0 0 60 0 60 -60 0 -60 0 0 -60z"/>
<path d="M265 935 c-14 -13 -25 -31 -25 -40 0 -10 -10 -15 -30 -15 l-30 0 0
-70 0 -70 60 0 60 0 0 69 c0 44 -4 71 -12 73 -16 6 -2 38 17 38 11 0 15 -11
15 -40 l0 -40 60 0 60 0 0 60 0 60 -75 0 c-67 0 -79 -3 -100 -25z"/>
<path d="M585 935 c-14 -13 -25 -31 -25 -40 0 -10 -10 -15 -30 -15 l-30 0 0
-70 0 -70 60 0 60 0 0 69 c0 44 -4 71 -12 73 -16 6 -2 38 17 38 11 0 15 -11
15 -40 l0 -40 60 0 60 0 0 60 0 60 -75 0 c-67 0 -79 -3 -100 -25z"/>
<path d="M905 935 c-14 -13 -25 -31 -25 -40 0 -10 -10 -15 -30 -15 l-30 0 0
-70 0 -70 60 0 60 0 0 70 c0 40 -4 70 -10 70 -19 0 -10 32 10 37 23 6 27 43 5
43 -9 0 -27 -11 -40 -25z"/>
<path d="M0 580 l0 -60 60 0 60 0 0 60 0 60 -60 0 -60 0 0 -60z"/>
<path d="M265 615 c-14 -13 -25 -31 -25 -40 0 -10 -10 -15 -30 -15 l-30 0 0
-70 0 -70 60 0 60 0 0 69 c0 44 -4 71 -12 73 -16 6 -2 38 17 38 11 0 15 -11
15 -40 l0 -40 60 0 60 0 0 60 0 60 -75 0 c-67 0 -79 -3 -100 -25z"/>
<path d="M585 615 c-14 -13 -25 -31 -25 -40 0 -10 -10 -15 -30 -15 l-30 0 0
-70 0 -70 60 0 60 0 0 69 c0 44 -4 71 -12 73 -16 6 -2 38 17 38 11 0 15 -11
15 -40 l0 -40 60 0 60 0 0 60 0 60 -75 0 c-67 0 -79 -3 -100 -25z"/>
<path d="M905 615 c-14 -13 -25 -31 -25 -40 0 -10 -10 -15 -30 -15 l-30 0 0
-70 0 -70 60 0 60 0 0 70 c0 40 -4 70 -10 70 -19 0 -10 32 10 37 23 6 27 43 5
43 -9 0 -27 -11 -40 -25z"/>
<path d="M0 260 l0 -60 60 0 60 0 0 60 0 60 -60 0 -60 0 0 -60z"/>
<path d="M265 295 c-14 -13 -25 -31 -25 -40 0 -10 -10 -15 -30 -15 l-30 0 0
-70 0 -70 60 0 60 0 0 69 c0 44 -4 71 -12 73 -16 6 -2 38 17 38 11 0 15 -11
15 -40 l0 -40 60 0 60 0 0 60 0 60 -75 0 c-67 0 -79 -3 -100 -25z"/>
<path d="M585 295 c-14 -13 -25 -31 -25 -40 0 -10 -10 -15 -30 -15 l-30 0 0
-70 0 -70 60 0 60 0 0 69 c0 44 -4 71 -12 73 -16 6 -2 38 17 38 11 0 15 -11
15 -40 l0 -40 60 0 60 0 0 60 0 60 -75 0 c-67 0 -79 -3 -100 -25z"/>
<path d="M905 295 c-14 -13 -25 -31 -25 -40 0 -10 -10 -15 -30 -15 l-30 0 0
-70 0 -70 60 0 60 0 0 70 c0 40 -4 70 -10 70 -19 0 -10 32 10 37 23 6 27 43 5
43 -9 0 -27 -11 -40 -25z"/>
</g>
<g transform="translate(0.000000,96.000000) scale(0.100000,-0.100000)"
fill="#cca35b" stroke="none">
<path d="M8 905 c2 -30 7 -56 10 -56 4 -1 27 -3 52 -4 l45 -2 0 56 0 56 -37 1
c-21 1 -35 -2 -33 -6 2 -4 -2 -7 -10 -7 -8 0 -15 4 -15 9 0 4 -3 8 -7 8 -5 0
-6 -25 -5 -55z"/>
<path d="M265 935 c-14 -13 -25 -32 -25 -42 1 -17 2 -17 15 1 8 11 15 23 15
28 0 4 5 8 10 8 6 0 3 -11 -5 -24 -12 -18 -13 -25 -4 -28 7 -2 -7 -4 -30 -5
-23 0 -44 -3 -47 -5 -4 -4 -8 -78 -5 -106 0 -7 13 -12 29 -12 15 0 38 -1 52
-2 24 -3 25 -1 25 62 0 36 -4 68 -9 71 -5 4 -6 14 -2 23 3 9 6 19 7 24 0 4 10
12 22 19 l22 12 -23 1 c-13 0 -34 -11 -47 -25z m-5 -160 c0 -3 -2 -5 -5 -5 -3
0 -5 2 -5 5 0 3 2 5 5 5 3 0 5 -2 5 -5z"/>
<path d="M348 946 c-21 -16 -25 -92 -5 -94 6 0 30 -3 52 -6 l40 -5 0 57 0 57
-35 2 c-19 1 -43 -4 -52 -11z"/>
<path d="M584 935 c-23 -23 -34 -63 -14 -50 6 4 8 11 4 16 -3 6 0 9 7 8 8 -1
22 1 32 6 14 6 16 10 6 16 -17 10 -6 21 13 14 10 -4 16 -20 16 -47 1 -22 3
-42 5 -44 2 -2 26 -6 53 -8 l49 -4 0 56 0 57 -73 2 c-66 2 -76 0 -98 -22z m26
-11 c0 -8 -19 -13 -24 -6 -3 5 1 9 9 9 8 0 15 -2 15 -3z"/>
<path d="M905 935 c-14 -13 -25 -32 -25 -42 1 -16 2 -16 16 2 8 11 20 19 26
17 6 -2 5 5 -3 14 -8 10 -9 15 -2 11 6 -4 14 -3 18 3 4 6 11 8 16 5 5 -4 9 -1
9 4 0 19 -30 12 -55 -14z"/>
<path d="M943 923 c4 -3 10 -3 14 0 3 4 0 7 -7 7 -7 0 -10 -3 -7 -7z"/>
<path d="M909 895 c-1 -5 -1 -14 0 -18 1 -5 -18 -6 -41 -4 l-43 5 5 -66 c4
-52 8 -66 23 -68 9 -1 17 2 17 7 0 6 8 6 19 -1 37 -19 49 -3 47 58 -2 49 -23
116 -27 87z m-12 -122 c-4 -3 -7 0 -7 7 0 7 3 10 7 7 3 -4 3 -10 0 -14z m33
-8 c0 -3 -2 -5 -5 -5 -3 0 -5 2 -5 5 0 3 2 5 5 5 3 0 5 -2 5 -5z"/>
<path d="M528 872 c-19 -4 -21 -13 -18 -77 2 -53 11 -60 46 -33 16 12 23 15
16 6 -10 -13 -10 -17 4 -22 39 -15 44 -8 41 62 l-2 67 -35 0 c-19 0 -43 -1
-52 -3z"/>
<path d="M6 586 c2 -49 3 -51 35 -58 20 -4 39 -2 46 4 9 7 13 7 13 -2 0 -8 3
-10 8 -6 4 4 7 31 7 60 l0 52 -55 0 -55 1 1 -51z"/>
<path d="M265 615 c-29 -28 -31 -40 -9 -49 8 -3 12 -10 9 -16 -4 -6 -11 -7
-17 -4 -6 4 -23 8 -37 8 -26 1 -26 0 -26 -65 0 -62 1 -66 20 -59 11 4 31 3 45
-1 48 -14 49 -12 48 57 -1 53 -5 68 -21 79 -20 14 -20 15 -2 35 10 11 26 20
37 20 15 0 18 -8 18 -44 0 -42 1 -44 38 -50 71 -11 71 -12 69 52 l-2 57 -34 3
c-18 1 -39 -3 -46 -8 -9 -8 -15 -8 -20 0 -11 18 -45 11 -70 -15z m-5 -150 c0
-3 -2 -5 -5 -5 -3 0 -5 2 -5 5 0 3 2 5 5 5 3 0 5 -2 5 -5z m-10 -20 c0 -3 -2
-5 -5 -5 -3 0 -5 2 -5 5 0 3 2 5 5 5 3 0 5 -2 5 -5z"/>
<path d="M585 616 c-24 -24 -36 -64 -15 -51 6 4 7 11 4 17 -5 7 -2 9 7 6 8 -3
23 0 34 8 10 8 13 14 6 14 -7 0 -10 4 -6 10 13 21 33 -2 31 -35 -2 -18 0 -39
5 -46 10 -17 95 -18 91 -1 -1 6 1 12 6 12 4 0 6 18 4 39 -4 35 -7 40 -35 44
-78 12 -107 8 -132 -17z m19 -17 c-3 -5 -10 -7 -15 -3 -5 3 -7 10 -3 15 3 5
10 7 15 3 5 -3 7 -10 3 -15z"/>
<path d="M590 605 c0 -3 2 -5 5 -5 3 0 5 2 5 5 0 3 -2 5 -5 5 -3 0 -5 -2 -5
-5z"/>
<path d="M905 615 c-26 -25 -32 -45 -14 -45 5 0 8 4 5 9 -3 5 0 11 7 14 10 4
13 -2 9 -19 -4 -23 -22 -45 -22 -27 0 5 -15 8 -32 9 l-33 0 0 -66 c0 -62 1
-66 23 -66 12 0 22 4 22 8 0 5 9 4 19 -2 43 -23 50 -14 48 59 0 39 -5 67 -10
64 -5 -3 -7 5 -6 18 2 13 -1 30 -5 38 -6 9 -5 12 2 7 6 -3 13 -2 17 4 4 6 11
8 16 5 5 -4 9 -1 9 4 0 19 -30 12 -55 -14z m-5 -160 c0 -3 -2 -5 -5 -5 -3 0
-5 2 -5 5 0 3 2 5 5 5 3 0 5 -2 5 -5z"/>
<path d="M279 593 c-12 -16 -12 -17 1 -7 8 6 22 14 30 17 13 5 12 6 -1 6 -9 1
-23 -7 -30 -16z"/>
<path d="M943 603 c4 -3 10 -3 14 0 3 4 0 7 -7 7 -7 0 -10 -3 -7 -7z"/>
<path d="M505 489 c0 -62 2 -67 20 -62 25 6 33 5 67 -3 l28 -6 -3 68 -2 69
-55 0 -55 0 0 -66z m72 -36 c-4 -3 -10 -3 -14 0 -3 4 0 7 7 7 7 0 10 -3 7 -7z"/>
<path d="M5 300 c5 -14 8 -40 8 -57 0 -26 5 -33 21 -34 12 -1 35 -3 53 -5 l32
-2 -2 56 -2 57 -37 3 c-20 1 -40 -2 -43 -8 -5 -8 -12 -7 -22 2 -14 11 -15 10
-8 -12z"/>
<path d="M265 296 c-24 -24 -36 -64 -15 -51 6 4 8 11 4 16 -3 6 0 9 7 8 8 -1
22 1 32 6 14 6 16 10 6 16 -17 10 -6 21 14 14 10 -5 14 -17 13 -40 -2 -18 0
-39 5 -46 10 -17 95 -18 91 -1 -1 6 1 12 6 12 4 0 6 18 4 39 -4 35 -7 40 -35
44 -78 12 -107 8 -132 -17z m25 -12 c0 -8 -19 -13 -24 -6 -3 5 1 9 9 9 8 0 15
-2 15 -3z"/>
<path d="M585 295 c-26 -25 -32 -45 -14 -45 5 0 8 4 5 9 -3 5 0 11 7 14 10 4
13 -2 9 -19 -4 -23 -22 -45 -22 -27 0 5 -15 8 -32 9 l-33 0 0 -66 c0 -62 1
-66 23 -66 12 0 22 4 22 8 0 5 9 4 19 -2 43 -23 50 -14 48 59 0 39 -5 67 -10
64 -5 -3 -7 5 -6 18 2 13 -1 30 -5 38 -6 9 -5 12 2 7 6 -3 13 -2 17 4 4 6 11
8 16 5 5 -4 9 -1 9 4 0 19 -30 12 -55 -14z m-5 -160 c0 -3 -2 -5 -5 -5 -3 0
-5 2 -5 5 0 3 2 5 5 5 3 0 5 -2 5 -5z"/>
<path d="M668 306 c-12 -9 -18 -27 -18 -53 0 -37 2 -41 30 -45 16 -3 35 -1 42
3 7 4 19 2 27 -4 12 -10 13 -9 4 6 -5 10 -7 37 -3 60 l6 42 -36 2 c-19 1 -43
-4 -52 -11z"/>
<path d="M905 295 c-14 -13 -25 -32 -25 -42 1 -17 1 -17 14 0 11 14 15 15 20
5 3 -7 3 -1 1 15 -3 26 6 33 38 28 4 0 7 4 7 9 0 18 -31 10 -55 -15z m5 -10
c0 -3 -2 -5 -5 -5 -3 0 -5 2 -5 5 0 3 2 5 5 5 3 0 5 -2 5 -5z"/>
<path d="M623 283 c4 -3 10 -3 14 0 3 4 0 7 -7 7 -7 0 -10 -3 -7 -7z"/>
<path d="M940 285 c0 -3 2 -5 5 -5 3 0 5 2 5 5 0 3 -2 5 -5 5 -3 0 -5 -2 -5
-5z"/>
<path d="M208 232 c-19 -4 -21 -13 -18 -77 2 -53 11 -60 46 -33 16 12 23 15
16 6 -10 -13 -10 -17 4 -22 39 -15 44 -8 41 62 l-2 67 -35 0 c-19 0 -43 -1
-52 -3z"/>
<path d="M848 232 c-19 -4 -21 -13 -18 -77 2 -53 11 -60 46 -33 16 12 23 15
16 6 -10 -13 -10 -17 4 -22 39 -15 44 -8 41 62 l-2 67 -35 0 c-19 0 -43 -1
-52 -3z"/>
</g>
<g transform="translate(0.000000,96.000000) scale(0.100000,-0.100000)"
fill="#937337" stroke="none">
<path d="M8 905 c2 -30 7 -56 10 -56 4 -1 27 -3 52 -4 l45 -2 0 56 0 56 -35 0
c-19 0 -41 -4 -47 -8 -8 -5 -13 -4 -13 2 0 6 -3 11 -7 11 -5 0 -6 -25 -5 -55z
m42 40 c0 -3 -2 -5 -5 -5 -3 0 -5 2 -5 5 0 3 2 5 5 5 3 0 5 -2 5 -5z m30 -19
c0 -3 -4 -8 -10 -11 -5 -3 -10 -1 -10 4 0 6 5 11 10 11 6 0 10 -2 10 -4z m-26
-21 c3 -8 1 -15 -4 -15 -6 0 -10 7 -10 15 0 8 2 15 4 15 2 0 6 -7 10 -15z"/>
<path d="M271 939 c-14 -11 -18 -20 -11 -24 6 -4 9 -13 6 -20 -3 -8 0 -16 7
-18 7 -3 2 -4 -10 -4 -15 1 -19 5 -13 11 12 12 13 26 1 26 -5 0 -11 -9 -14
-20 -3 -12 -14 -20 -26 -20 -12 0 -21 -4 -21 -10 0 -6 9 -6 25 0 25 9 25 9 25
-39 0 -35 -4 -51 -16 -55 -23 -9 -24 -8 -24 17 0 17 -2 19 -9 8 -14 -22 -1
-41 28 -41 14 0 37 -1 51 -2 24 -3 25 -1 25 62 0 36 -4 68 -9 71 -5 4 -6 14
-2 23 3 9 6 19 7 24 0 4 10 12 22 19 l22 12 -21 -2 c-12 0 -31 -9 -43 -18z
m19 -13 c0 -3 -4 -8 -10 -11 -5 -3 -10 -1 -10 4 0 6 5 11 10 11 6 0 10 -2 10
-4z m-12 -106 c1 -39 -12 -39 -15 0 -1 17 1 30 6 30 4 0 8 -13 9 -30z m-11
-47 c-4 -3 -10 -3 -14 0 -3 4 0 7 7 7 7 0 10 -3 7 -7z"/>
<path d="M348 946 c-21 -16 -25 -92 -5 -94 6 0 30 -3 52 -6 l40 -5 0 57 0 57
-35 2 c-19 1 -43 -4 -52 -11z m52 -11 c0 -3 -2 -5 -5 -5 -3 0 -5 2 -5 5 0 3 2
5 5 5 3 0 5 -2 5 -5z m-16 -22 c-5 -5 -12 -12 -16 -18 -4 -6 -8 -2 -8 8 0 9 7
17 17 17 9 0 12 -3 7 -7z"/>
<path d="M631 947 c9 -7 16 -28 17 -51 1 -21 3 -40 5 -43 2 -2 26 -5 53 -7
l49 -4 0 56 0 57 -70 2 c-56 1 -67 -1 -54 -10z m89 -12 c0 -3 -2 -5 -5 -5 -3
0 -5 2 -5 5 0 3 2 5 5 5 3 0 5 -2 5 -5z m-15 -25 c-3 -5 -10 -10 -16 -10 -5 0
-9 5 -9 10 0 6 7 10 16 10 8 0 12 -4 9 -10z m-15 -25 c0 -3 -2 -5 -5 -5 -3 0
-5 2 -5 5 0 3 2 5 5 5 3 0 5 -2 5 -5z"/>
<path d="M926 944 c-9 -8 -16 -12 -16 -7 -1 15 -30 -31 -30 -46 1 -13 4 -12
16 4 8 11 20 19 25 17 6 -1 8 2 5 7 -7 11 18 33 27 24 4 -3 7 -1 7 5 0 17 -16
15 -34 -4z"/>
<path d="M590 936 c0 -11 -4 -14 -12 -10 -9 6 -9 3 0 -9 11 -13 17 -14 32 -4
11 6 18 12 17 12 -1 0 -10 7 -19 14 -16 12 -18 11 -18 -3z m20 -10 c0 -3 -5
-8 -12 -12 -7 -4 -8 -3 -4 4 7 12 16 16 16 8z"/>
<path d="M943 923 c4 -3 10 -3 14 0 3 4 0 7 -7 7 -7 0 -10 -3 -7 -7z"/>
<path d="M560 889 c0 -5 5 -7 10 -4 6 3 10 8 10 11 0 2 -4 4 -10 4 -5 0 -10
-5 -10 -11z"/>
<path d="M909 895 c-1 -5 -1 -13 0 -17 0 -5 -6 -8 -14 -8 -11 0 -15 -12 -15
-44 0 -26 -5 -46 -12 -48 -8 -3 -2 -11 13 -21 43 -28 57 -14 55 51 -2 49 -23
116 -27 87z m9 -72 c0 -15 -8 -34 -16 -42 -14 -15 -15 -14 -8 4 5 11 8 33 7
48 -1 16 3 26 8 23 4 -3 9 -18 9 -33z m12 -58 c0 -3 -2 -5 -5 -5 -3 0 -5 2 -5
5 0 3 2 5 5 5 3 0 5 -2 5 -5z"/>
<path d="M529 873 c-21 -5 -26 -26 -19 -83 4 -33 9 -44 20 -41 18 4 27 4 62
-5 l28 -6 -3 71 c-1 54 -5 70 -15 66 -8 -3 -20 -5 -28 -5 -10 0 -14 -14 -14
-52 1 -46 2 -51 14 -35 7 9 12 28 11 42 -2 14 0 25 5 25 4 0 8 -20 7 -45 0
-25 -4 -40 -8 -34 -5 8 -8 8 -14 0 -5 -9 -10 -9 -21 0 -10 8 -14 8 -14 0 0 -6
-4 -11 -10 -11 -5 0 -10 23 -10 50 0 38 4 50 15 50 8 0 15 5 15 10 0 6 -1 9
-2 9 -2 -1 -10 -3 -19 -6z"/>
<path d="M830 811 c4 -51 9 -65 23 -67 9 -1 17 2 17 7 0 5 -7 9 -15 9 -12 0
-15 13 -15 56 0 47 3 55 16 50 8 -3 12 -2 9 3 -3 6 -13 9 -23 8 -15 -1 -16 -9
-12 -66z"/>
<path d="M186 823 c-6 -14 -5 -15 5 -6 7 7 10 15 7 18 -3 3 -9 -2 -12 -12z"/>
<path d="M6 586 c2 -49 3 -51 35 -58 20 -4 39 -2 46 4 9 7 13 7 13 -2 0 -8 3
-10 8 -6 4 4 7 31 7 60 l0 52 -55 0 -55 1 1 -51z m64 29 c0 -3 -2 -5 -5 -5 -3
0 -5 2 -5 5 0 3 2 5 5 5 3 0 5 -2 5 -5z m9 -18 c-2 -1 -12 -9 -21 -16 -15 -12
-18 -11 -18 3 0 10 8 16 22 16 12 0 19 -1 17 -3z"/>
<path d="M282 633 c-19 -8 -44 -61 -30 -65 6 -2 13 -11 14 -19 2 -7 6 -24 10
-36 4 -15 2 -23 -6 -23 -7 0 -10 6 -7 14 9 22 -17 49 -49 50 l-29 1 0 -66 c0
-62 1 -66 20 -59 11 4 31 3 45 -1 48 -14 49 -12 48 57 -1 52 -5 68 -20 77 -18
12 -25 28 -10 25 4 0 18 4 32 10 14 6 18 11 10 11 -9 1 -22 -5 -30 -11 -12
-11 -12 -10 -1 5 7 9 22 17 32 17 16 0 19 -8 19 -44 0 -42 1 -44 38 -50 71
-11 71 -12 69 52 l-2 57 -34 3 c-18 1 -39 -3 -46 -8 -9 -8 -15 -8 -20 0 -6 10
-31 12 -53 3z m118 -18 c0 -3 -2 -5 -5 -5 -3 0 -5 2 -5 5 0 3 2 5 5 5 3 0 5
-2 5 -5z m-16 -22 c-5 -5 -12 -12 -16 -18 -4 -6 -8 -2 -8 8 0 9 7 17 17 17 9
0 12 -3 7 -7z m-144 -94 c0 -21 -7 -42 -15 -49 -18 -15 -22 -12 -25 15 -6 53
0 74 20 72 16 -1 20 -8 20 -38z m37 -33 c0 -8 -6 -12 -14 -9 -7 3 -10 9 -7 14
8 14 21 11 21 -5z m-27 -21 c0 -3 -2 -5 -5 -5 -3 0 -5 2 -5 5 0 3 2 5 5 5 3 0
5 -2 5 -5z"/>
<path d="M602 620 c-7 -12 -17 -18 -22 -15 -6 3 -10 2 -10 -3 0 -17 25 -20 45
-6 10 8 13 14 6 14 -7 0 -10 4 -6 10 13 21 33 -2 31 -35 -2 -18 0 -39 5 -46
10 -17 95 -18 91 -1 -1 6 1 12 6 12 4 0 6 18 4 39 -4 35 -7 40 -35 44 -73 11
-102 8 -115 -13z m118 -5 c0 -3 -2 -5 -5 -5 -3 0 -5 2 -5 5 0 3 2 5 5 5 3 0 5
-2 5 -5z m-110 -9 c0 -3 -5 -8 -12 -12 -7 -4 -8 -3 -4 4 7 12 16 16 16 8z
m100 -10 c0 -2 -7 -9 -15 -16 -12 -10 -15 -10 -15 4 0 9 7 16 15 16 8 0 15 -2
15 -4z"/>
<path d="M926 625 c-8 -9 -18 -16 -21 -15 -16 1 -16 -1 -5 -15 7 -8 10 -24 7
-35 -3 -11 -2 -22 2 -25 10 -6 12 -65 2 -65 -4 0 -8 13 -9 30 0 16 -5 37 -11
47 -8 14 -10 7 -11 -34 0 -35 -4 -53 -12 -53 -20 -1 32 -40 52 -40 17 0 19 8
17 69 0 39 -5 67 -10 64 -11 -7 -6 48 6 64 5 7 13 10 18 7 5 -3 9 0 9 5 0 16
-16 13 -34 -4z m-6 -30 c0 -3 -2 -5 -5 -5 -3 0 -5 2 -5 5 0 3 2 5 5 5 3 0 5
-2 5 -5z m-20 -140 c0 -3 -2 -5 -5 -5 -3 0 -5 2 -5 5 0 3 2 5 5 5 3 0 5 -2 5
-5z"/>
<path d="M943 603 c4 -3 10 -3 14 0 3 4 0 7 -7 7 -7 0 -10 -3 -7 -7z"/>
<path d="M564 568 c-4 -7 -3 -8 4 -4 12 7 16 16 8 16 -3 0 -8 -5 -12 -12z"/>
<path d="M890 575 c0 -3 2 -5 5 -5 3 0 5 2 5 5 0 3 -2 5 -5 5 -3 0 -5 -2 -5
-5z"/>
<path d="M505 489 c0 -62 2 -67 20 -62 25 6 33 5 67 -3 l28 -6 -3 71 c-1 54
-5 70 -15 66 -8 -3 -20 -5 -28 -5 -10 0 -14 -13 -14 -45 0 -25 5 -45 10 -45
10 0 12 8 13 48 0 12 3 22 7 22 4 0 7 -16 7 -35 -1 -33 -18 -51 -37 -40 -5 3
-11 1 -15 -5 -14 -23 -25 -7 -25 40 0 38 4 50 15 50 8 0 15 4 15 9 0 5 -10 8
-22 7 -21 -1 -23 -6 -23 -67z m95 -44 c0 -3 -2 -5 -5 -5 -3 0 -5 2 -5 5 0 3 2
5 5 5 3 0 5 -2 5 -5z"/>
<path d="M825 490 c0 -62 1 -66 23 -66 12 0 22 4 22 8 0 4 -7 8 -15 8 -12 0
-15 13 -15 56 0 47 3 55 16 50 8 -3 12 -2 9 3 -3 6 -13 9 -23 8 -14 -1 -17
-11 -17 -67z"/>
<path d="M5 300 c5 -14 8 -40 8 -57 0 -26 5 -33 21 -34 12 -1 35 -3 53 -5 l32
-2 -2 56 -2 57 -37 3 c-20 1 -40 -2 -43 -8 -5 -8 -12 -7 -22 2 -14 11 -15 10
-8 -12z m51 -35 c-9 -9 -16 -13 -16 -8 0 12 22 34 28 28 2 -2 -3 -11 -12 -20z"/>
<path d="M311 307 c10 -7 15 -25 14 -44 -1 -18 2 -38 6 -44 10 -17 95 -18 91
-1 -1 6 1 12 6 12 12 0 1 80 -12 81 -98 9 -120 8 -105 -4z m89 -12 c0 -3 -2
-5 -5 -5 -3 0 -5 2 -5 5 0 3 2 5 5 5 3 0 5 -2 5 -5z m-10 -19 c0 -2 -7 -9 -15
-16 -12 -10 -15 -10 -15 4 0 9 7 16 15 16 8 0 15 -2 15 -4z"/>
<path d="M606 305 c-8 -9 -18 -16 -21 -15 -16 1 -16 -1 -5 -15 7 -8 10 -24 7
-35 -3 -11 -2 -22 2 -25 10 -6 12 -65 2 -65 -4 0 -8 13 -9 30 0 16 -5 37 -11
47 -8 14 -10 7 -11 -34 0 -35 -4 -53 -12 -53 -20 -1 32 -40 52 -40 17 0 19 8
17 69 0 39 -5 67 -10 64 -11 -7 -6 48 6 64 5 7 13 10 18 7 5 -3 9 0 9 5 0 16
-16 13 -34 -4z m-6 -30 c0 -3 -2 -5 -5 -5 -3 0 -5 2 -5 5 0 3 2 5 5 5 3 0 5
-2 5 -5z m-20 -140 c0 -3 -2 -5 -5 -5 -3 0 -5 2 -5 5 0 3 2 5 5 5 3 0 5 -2 5
-5z"/>
<path d="M668 306 c-12 -9 -18 -27 -18 -53 0 -37 2 -41 30 -45 16 -3 35 -1 42
3 7 4 19 2 27 -4 12 -10 13 -9 4 6 -5 10 -7 37 -3 60 l6 42 -36 2 c-19 1 -43
-4 -52 -11z m52 -19 c0 -1 -9 -10 -20 -20 -16 -13 -20 -14 -20 -3 0 8 8 17 18
19 9 3 18 5 20 6 1 0 2 0 2 -2z"/>
<path d="M930 312 c0 -5 7 -9 15 -9 8 0 15 4 15 9 0 4 -7 8 -15 8 -8 0 -15 -4
-15 -8z"/>
<path d="M270 296 c0 -11 -4 -14 -12 -10 -9 6 -9 3 0 -9 11 -13 17 -14 32 -4
11 6 18 12 17 12 -1 0 -10 7 -19 14 -16 12 -18 11 -18 -3z m20 -10 c0 -3 -5
-8 -12 -12 -7 -4 -8 -3 -4 4 7 12 16 16 16 8z"/>
<path d="M905 294 c2 -4 -2 -13 -10 -21 -8 -8 -15 -20 -15 -26 0 -7 7 -4 14 6
11 14 15 15 19 5 3 -7 5 -3 3 9 -1 12 -5 25 -9 28 -4 3 -5 2 -2 -1z"/>
<path d="M623 283 c4 -3 10 -3 14 0 3 4 0 7 -7 7 -7 0 -10 -3 -7 -7z"/>
<path d="M940 285 c0 -3 2 -5 5 -5 3 0 5 2 5 5 0 3 -2 5 -5 5 -3 0 -5 -2 -5
-5z"/>
<path d="M240 249 c0 -5 5 -7 10 -4 6 3 10 8 10 11 0 2 -4 4 -10 4 -5 0 -10
-5 -10 -11z"/>
<path d="M570 255 c0 -3 2 -5 5 -5 3 0 5 2 5 5 0 3 -2 5 -5 5 -3 0 -5 -2 -5
-5z"/>
<path d="M209 233 c-21 -5 -26 -26 -19 -83 4 -33 9 -44 20 -41 18 4 27 4 62
-5 l28 -6 -3 71 c-1 54 -5 70 -15 66 -8 -3 -20 -5 -28 -5 -10 0 -14 -14 -14
-52 1 -46 2 -51 14 -35 7 9 12 28 11 42 -2 14 0 25 5 25 4 0 8 -20 7 -45 0
-25 -4 -40 -8 -34 -5 8 -8 8 -14 0 -5 -9 -10 -9 -21 0 -10 8 -14 8 -14 0 0 -6
-4 -11 -10 -11 -5 0 -10 23 -10 50 0 38 4 50 15 50 8 0 15 5 15 10 0 6 -1 9
-2 9 -2 -1 -10 -3 -19 -6z"/>
<path d="M505 170 c0 -62 1 -66 23 -66 12 0 22 4 22 8 0 4 -7 8 -15 8 -12 0
-15 13 -15 56 0 47 3 55 16 50 8 -3 12 -2 9 3 -3 6 -13 9 -23 8 -14 -1 -17
-11 -17 -67z"/>
<path d="M849 233 c-21 -5 -26 -26 -19 -83 4 -33 9 -44 20 -41 18 4 27 4 62
-5 l28 -6 -3 71 c-1 54 -5 70 -15 66 -8 -3 -20 -5 -28 -5 -10 0 -14 -14 -14
-52 1 -46 2 -51 14 -35 7 9 12 28 11 42 -2 14 0 25 5 25 4 0 8 -20 7 -45 0
-25 -4 -40 -8 -34 -5 8 -8 8 -14 0 -5 -9 -10 -9 -21 0 -10 8 -14 8 -14 0 0 -6
-4 -11 -10 -11 -5 0 -10 23 -10 50 0 38 4 50 15 50 8 0 15 5 15 10 0 6 -1 9
-2 9 -2 -1 -10 -3 -19 -6z"/>
</g>
<g transform="translate(0.000000,96.000000) scale(0.100000,-0.100000)"
fill="#9a7c44" stroke="none">
<path d="M3 953 c4 -3 10 -3 14 0 3 4 0 7 -7 7 -7 0 -10 -3 -7 -7z"/>
<path d="M46 934 c1 -13 5 -28 9 -33 3 -6 2 -11 -4 -11 -5 0 -11 5 -13 12 -5
13 -28 2 -28 -13 0 -5 12 -14 27 -20 41 -15 74 3 71 39 -1 15 1 32 4 37 3 6
-10 10 -31 11 -34 1 -38 -2 -35 -22z m34 -8 c0 -3 -4 -8 -10 -11 -5 -3 -10 -1
-10 4 0 6 5 11 10 11 6 0 10 -2 10 -4z"/>
<path d="M270 938 l-25 -21 23 8 c23 7 23 7 7 -19 -12 -18 -14 -26 -5 -26 10
0 10 -3 0 -15 -7 -8 -8 -15 -2 -15 5 0 15 6 21 14 9 11 9 15 0 18 -8 3 -10 11
-4 24 9 20 17 54 12 54 -1 -1 -13 -10 -27 -22z"/>
<path d="M313 953 c4 -3 10 -3 14 0 3 4 0 7 -7 7 -7 0 -10 -3 -7 -7z"/>
<path d="M395 950 c-22 -4 -36 -8 -31 -9 5 0 0 -11 -11 -23 -28 -31 -16 -68
21 -61 13 3 32 14 42 24 14 15 14 21 4 34 -7 8 -8 15 -2 15 5 0 12 7 16 15 3
8 4 14 3 14 -1 -1 -20 -5 -42 -9z m5 -15 c0 -3 -2 -5 -5 -5 -3 0 -5 2 -5 5 0
3 2 5 5 5 3 0 5 -2 5 -5z m-16 -22 c-5 -5 -12 -12 -16 -18 -4 -6 -8 -2 -8 8 0
9 7 17 17 17 9 0 12 -3 7 -7z"/>
<path d="M620 955 c0 -3 2 -5 5 -5 3 0 5 2 5 5 0 3 -2 5 -5 5 -3 0 -5 -2 -5
-5z"/>
<path d="M640 949 c0 -5 5 -7 10 -4 6 3 10 8 10 11 0 2 -4 4 -10 4 -5 0 -10
-5 -10 -11z"/>
<path d="M726 951 c-29 -6 -49 -31 -25 -31 10 0 10 -3 1 -12 -10 -10 -15 -10
-22 2 -5 8 -10 11 -11 5 -8 -61 -7 -67 6 -61 8 3 17 1 20 -5 4 -5 19 -8 34 -7
22 2 27 6 23 20 -2 10 -9 15 -16 11 -6 -4 -5 1 2 10 8 9 12 22 9 29 -2 7 0 21
5 31 5 9 7 16 6 16 -2 -1 -16 -4 -32 -8z m-6 -16 c0 -3 -2 -5 -5 -5 -3 0 -5 2
-5 5 0 3 2 5 5 5 3 0 5 -2 5 -5z m0 -39 c0 -3 -5 -8 -12 -12 -7 -4 -8 -3 -4 4
7 12 16 16 16 8z m-30 -11 c0 -3 -2 -5 -5 -5 -3 0 -5 2 -5 5 0 3 2 5 5 5 3 0
5 -2 5 -5z m43 -32 c-7 -2 -19 -2 -25 0 -7 3 -2 5 12 5 14 0 19 -2 13 -5z"/>
<path d="M943 953 c4 -3 10 -3 14 0 3 4 0 7 -7 7 -7 0 -10 -3 -7 -7z"/>
<path d="M590 945 c0 -3 2 -5 5 -5 3 0 5 2 5 5 0 3 -2 5 -5 5 -3 0 -5 -2 -5
-5z"/>
<path d="M920 945 c0 -3 2 -5 5 -5 3 0 5 2 5 5 0 3 -2 5 -5 5 -3 0 -5 -2 -5
-5z"/>
<path d="M20 935 c0 -3 2 -5 5 -5 3 0 5 2 5 5 0 3 -2 5 -5 5 -3 0 -5 -2 -5 -5z"/>
<path d="M890 919 c-7 -11 -10 -23 -7 -25 2 -2 9 7 15 21 14 30 7 33 -8 4z"/>
<path d="M570 925 c0 -3 2 -5 5 -5 3 0 5 2 5 5 0 3 -2 5 -5 5 -3 0 -5 -2 -5
-5z"/>
<path d="M599 913 c-13 -17 -13 -17 6 -3 11 8 22 16 24 17 2 2 0 3 -6 3 -6 0
-17 -8 -24 -17z"/>
<path d="M943 923 c4 -3 10 -3 14 0 3 4 0 7 -7 7 -7 0 -10 -3 -7 -7z"/>
<path d="M920 915 c0 -3 2 -5 5 -5 3 0 5 2 5 5 0 3 -2 5 -5 5 -3 0 -5 -2 -5
-5z"/>
<path d="M240 900 c0 -7 3 -10 7 -7 3 4 3 10 0 14 -4 3 -7 0 -7 -7z"/>
<path d="M560 895 c0 -3 2 -5 5 -5 3 0 5 2 5 5 0 3 -2 5 -5 5 -3 0 -5 -2 -5
-5z"/>
<path d="M909 894 c-1 -5 -1 -12 0 -16 0 -5 -6 -8 -14 -8 -11 0 -15 -11 -15
-40 0 -22 5 -40 10 -40 11 0 13 12 10 49 -1 13 2 21 7 18 19 -12 32 8 17 27
-8 11 -15 16 -15 10z"/>
<path d="M213 873 c-13 -2 -23 -8 -23 -13 0 -10 38 -1 46 11 3 5 4 8 2 8 -2
-1 -13 -4 -25 -6z"/>
<path d="M528 873 c-20 -5 -24 -22 -20 -79 4 -39 6 -43 30 -43 15 1 39 -2 54
-6 27 -7 27 -7 26 41 0 27 -4 57 -10 67 -6 12 -5 17 3 17 7 0 9 3 6 6 -4 4
-14 1 -23 -7 -10 -8 -20 -12 -23 -9 -3 3 -7 -17 -9 -43 -2 -29 1 -47 6 -43 6
3 9 24 7 45 -2 30 1 38 11 34 8 -3 12 -17 10 -36 -1 -18 1 -39 5 -48 5 -10 3
-16 -6 -16 -8 0 -11 7 -7 16 5 13 3 14 -9 4 -12 -10 -18 -10 -27 -1 -9 9 -12
9 -12 0 0 -7 -4 -12 -10 -12 -5 0 -10 23 -10 50 0 38 4 50 15 50 8 0 15 5 15
10 0 6 -1 9 -2 9 -2 -1 -11 -3 -20 -6z"/>
<path d="M828 814 c3 -54 6 -63 25 -68 20 -5 21 -4 5 8 -25 18 -26 121 -2 112
8 -3 12 -2 9 3 -3 6 -13 9 -23 8 -14 -1 -17 -10 -14 -63z"/>
<path d="M30 845 c0 -3 2 -5 5 -5 3 0 5 2 5 5 0 3 -2 5 -5 5 -3 0 -5 -2 -5 -5z"/>
<path d="M63 843 c4 -3 10 -3 14 0 3 4 0 7 -7 7 -7 0 -10 -3 -7 -7z"/>
<path d="M103 843 c4 -3 10 -3 14 0 3 4 0 7 -7 7 -7 0 -10 -3 -7 -7z"/>
<path d="M241 817 c-1 -34 1 -37 14 -23 17 16 20 30 6 21 -5 -3 -12 5 -14 17
-3 14 -5 8 -6 -15z"/>
<path d="M283 838 c-4 -7 -6 -21 -5 -30 2 -10 -2 -18 -8 -18 -6 0 -8 -4 -5
-10 3 -5 3 -10 -2 -11 -63 -5 -100 -20 -47 -19 16 0 40 -1 54 -2 24 -3 25 0
26 50 1 55 0 59 -13 40z m4 -75 c-4 -3 -7 0 -7 7 0 7 3 10 7 7 3 -4 3 -10 0
-14z"/>
<path d="M380 845 c0 -3 2 -5 5 -5 3 0 5 2 5 5 0 3 -2 5 -5 5 -3 0 -5 -2 -5
-5z"/>
<path d="M400 845 c0 -3 2 -5 5 -5 3 0 5 2 5 5 0 3 -2 5 -5 5 -3 0 -5 -2 -5
-5z"/>
<path d="M423 843 c4 -3 10 -3 14 0 3 4 0 7 -7 7 -7 0 -10 -3 -7 -7z"/>
<path d="M186 823 c-6 -14 -5 -15 5 -6 7 7 10 15 7 18 -3 3 -9 -2 -12 -12z"/>
<path d="M580 835 c0 -3 2 -5 5 -5 3 0 5 2 5 5 0 3 -2 5 -5 5 -3 0 -5 -2 -5
-5z"/>
<path d="M917 834 c-3 -3 -3 -12 0 -19 2 -8 -5 -24 -18 -37 -12 -13 -19 -17
-15 -10 4 7 1 12 -8 12 -22 0 -20 -7 8 -25 36 -24 53 -11 54 40 0 42 -6 54
-21 39z m8 -74 c-3 -5 -12 -10 -18 -10 -7 0 -6 4 3 10 19 12 23 12 15 0z"/>
<path d="M580 805 c0 -3 2 -5 5 -5 3 0 5 2 5 5 0 3 -2 5 -5 5 -3 0 -5 -2 -5
-5z"/>
<path d="M191 784 c0 -11 3 -14 6 -6 3 7 2 16 -1 19 -3 4 -6 -2 -5 -13z"/>
<path d="M0 629 c0 -5 5 -7 10 -4 5 3 10 8 10 11 0 2 -4 4 -10 4 -5 0 -10 -5
-10 -11z"/>
<path d="M87 633 c-35 -6 -77 -47 -71 -70 3 -10 17 -24 32 -31 23 -11 29 -10
46 8 11 11 15 20 9 20 -9 0 -8 11 2 40 8 22 13 39 12 39 -1 -1 -14 -4 -30 -6z
m-17 -18 c0 -3 -2 -5 -5 -5 -3 0 -5 2 -5 5 0 3 2 5 5 5 3 0 5 -2 5 -5z m9 -18
c-2 -1 -12 -9 -21 -16 -15 -12 -18 -11 -18 3 0 10 8 16 22 16 12 0 19 -1 17
-3z m1 -32 c0 -3 -2 -5 -5 -5 -3 0 -5 2 -5 5 0 3 2 5 5 5 3 0 5 -2 5 -5z m-3
-32 c-4 -3 -10 -3 -14 0 -3 4 0 7 7 7 7 0 10 -3 7 -7z"/>
<path d="M274 624 c-18 -14 -18 -14 6 -3 31 14 36 19 24 19 -6 0 -19 -7 -30
-16z"/>
<path d="M320 630 c0 -7 3 -10 7 -7 3 4 3 10 0 14 -4 3 -7 0 -7 -7z"/>
<path d="M398 633 c-37 -4 -54 -28 -24 -35 12 -3 12 -5 0 -16 -12 -11 -14 -10
-14 4 0 13 -3 14 -14 5 -23 -19 -8 -51 24 -51 29 0 66 32 56 49 -4 6 -2 20 4
31 6 11 9 19 8 18 -2 -1 -20 -3 -40 -5z m2 -18 c0 -3 -2 -5 -5 -5 -3 0 -5 2
-5 5 0 3 2 5 5 5 3 0 5 -2 5 -5z"/>
<path d="M613 633 c4 -3 10 -3 14 0 3 4 0 7 -7 7 -7 0 -10 -3 -7 -7z"/>
<path d="M640 629 c0 -5 5 -7 10 -4 6 3 10 8 10 11 0 2 -4 4 -10 4 -5 0 -10
-5 -10 -11z"/>
<path d="M675 630 c3 -5 8 -10 11 -10 3 0 2 5 -1 10 -3 6 -8 10 -11 10 -3 0
-2 -4 1 -10z"/>
<path d="M700 624 c0 -8 -6 -14 -12 -15 -7 0 -5 -4 5 -8 17 -6 17 -8 3 -20
-10 -9 -16 -9 -16 -3 0 6 -6 9 -14 6 -8 -3 -11 -15 -8 -29 4 -21 9 -23 36 -19
25 4 27 3 11 -5 -17 -9 -16 -10 10 -7 28 2 29 5 31 53 1 46 -1 52 -23 56 -15
3 -23 0 -23 -9z m20 -9 c0 -3 -2 -5 -5 -5 -3 0 -5 2 -5 5 0 3 2 5 5 5 3 0 5
-2 5 -5z m-3 -52 c-4 -3 -7 0 -7 7 0 7 3 10 7 7 3 -4 3 -10 0 -14z m23 -28 c0
-3 -2 -5 -5 -5 -3 0 -5 2 -5 5 0 3 2 5 5 5 3 0 5 -2 5 -5z"/>
<path d="M943 633 c4 -3 10 -3 14 0 3 4 0 7 -7 7 -7 0 -10 -3 -7 -7z"/>
<path d="M920 625 c0 -3 2 -5 5 -5 3 0 5 2 5 5 0 3 -2 5 -5 5 -3 0 -5 -2 -5
-5z"/>
<path d="M894 608 c-4 -7 -3 -8 4 -4 7 4 12 9 12 12 0 8 -9 4 -16 -8z"/>
<path d="M279 593 c-12 -16 -12 -17 1 -7 8 6 22 14 30 17 13 5 12 6 -1 6 -9 1
-23 -7 -30 -16z"/>
<path d="M570 600 c0 -7 3 -10 7 -7 3 4 3 10 0 14 -4 3 -7 0 -7 -7z"/>
<path d="M599 593 c-13 -17 -13 -17 6 -3 11 8 22 16 24 17 2 2 0 3 -6 3 -6 0
-17 -8 -24 -17z"/>
<path d="M943 603 c4 -3 10 -3 14 0 3 4 0 7 -7 7 -7 0 -10 -3 -7 -7z"/>
<path d="M250 595 c0 -3 2 -5 5 -5 3 0 5 2 5 5 0 3 -2 5 -5 5 -3 0 -5 -2 -5
-5z"/>
<path d="M915 585 c-3 -8 -7 -22 -10 -30 -2 -8 0 -17 4 -20 5 -2 11 11 13 30
4 36 1 46 -7 20z"/>
<path d="M240 575 c0 -3 2 -5 5 -5 3 0 5 2 5 5 0 3 -2 5 -5 5 -3 0 -5 -2 -5
-5z"/>
<path d="M265 549 c6 -28 8 -30 25 -19 11 7 11 11 1 24 -19 22 -31 20 -26 -5z"/>
<path d="M185 489 c0 -65 1 -66 23 -58 13 5 33 4 48 -1 40 -16 43 -13 42 40 0
28 -4 50 -9 50 -5 0 -9 -7 -9 -15 0 -8 -7 -15 -15 -15 -8 0 -15 5 -15 10 0 6
5 10 10 10 7 0 7 6 1 19 -6 11 -24 20 -43 23 l-33 3 0 -66z m57 10 c-4 -33
-26 -69 -36 -58 -5 5 -9 38 -7 70 1 21 6 27 24 27 20 0 22 -5 19 -39z m34 -28
c-4 -5 -3 -11 1 -14 5 -2 3 -3 -3 -1 -6 1 -17 -3 -24 -9 -10 -10 -10 -7 -1 11
6 12 16 22 22 22 6 0 8 -4 5 -9z m11 -38 c-4 -3 -10 -3 -14 0 -3 4 0 7 7 7 7
0 10 -3 7 -7z"/>
<path d="M505 489 c0 -65 0 -66 23 -58 14 6 31 5 42 -1 38 -20 50 -13 49 33
-1 62 -8 77 -33 77 -20 0 -23 -6 -24 -40 -2 -40 11 -54 22 -25 3 8 0 15 -6 15
-7 0 -7 4 1 13 6 8 8 17 4 20 -3 4 -2 7 4 7 16 0 11 -69 -5 -75 -8 -3 -18 -3
-22 0 -5 3 -11 1 -15 -5 -14 -23 -25 -7 -25 40 0 38 4 50 15 50 8 0 15 4 15 9
0 5 -10 8 -22 7 -21 -1 -23 -6 -23 -67z m99 -47 c3 -5 -1 -9 -9 -9 -8 0 -12 4
-9 9 3 4 7 8 9 8 2 0 6 -4 9 -8z"/>
<path d="M603 553 c4 -3 10 -3 14 0 3 4 0 7 -7 7 -7 0 -10 -3 -7 -7z"/>
<path d="M640 555 c0 -3 2 -5 5 -5 3 0 5 2 5 5 0 3 -2 5 -5 5 -3 0 -5 -2 -5
-5z"/>
<path d="M825 491 c0 -62 1 -66 23 -66 19 0 20 2 7 11 -10 8 -15 28 -15 64 0
43 3 51 16 46 8 -3 12 -2 9 3 -3 6 -13 9 -23 8 -14 -1 -17 -11 -17 -66z"/>
<path d="M880 512 c0 -35 -4 -52 -12 -52 -20 -1 32 -40 52 -40 15 0 18 9 18
51 1 35 -3 49 -11 46 -7 -2 -11 -11 -9 -20 2 -10 -6 -27 -18 -39 -23 -24 -27
-12 -6 17 9 13 11 28 5 48 -13 47 -19 44 -19 -11z m45 -71 c-3 -6 -11 -11 -16
-11 -5 0 -4 6 3 14 14 16 24 13 13 -3z"/>
<path d="M930 550 c0 -7 3 -10 7 -7 3 4 3 10 0 14 -4 3 -7 0 -7 -7z"/>
<path d="M0 545 c0 -3 2 -5 5 -5 3 0 5 2 5 5 0 3 -2 5 -5 5 -3 0 -5 -2 -5 -5z"/>
<path d="M100 529 c0 -5 5 -7 10 -4 6 3 10 8 10 11 0 2 -4 4 -10 4 -5 0 -10
-5 -10 -11z"/>
<path d="M425 530 c-3 -5 -1 -10 4 -10 6 0 11 5 11 10 0 6 -2 10 -4 10 -3 0
-8 -4 -11 -10z"/>
<path d="M388 523 c7 -3 16 -2 19 1 4 3 -2 6 -13 5 -11 0 -14 -3 -6 -6z"/>
<path d="M0 310 c0 -7 3 -10 7 -7 3 4 3 10 0 14 -4 3 -7 0 -7 -7z"/>
<path d="M110 315 c0 -3 2 -5 5 -5 3 0 5 2 5 5 0 3 -2 5 -5 5 -3 0 -5 -2 -5
-5z"/>
<path d="M300 315 c0 -3 2 -5 5 -5 3 0 5 2 5 5 0 3 -2 5 -5 5 -3 0 -5 -2 -5
-5z"/>
<path d="M320 309 c0 -5 5 -7 10 -4 6 3 10 8 10 11 0 2 -4 4 -10 4 -5 0 -10
-5 -10 -11z"/>
<path d="M355 310 c3 -5 8 -10 11 -10 3 0 2 5 -1 10 -3 6 -8 10 -11 10 -3 0
-2 -4 1 -10z"/>
<path d="M380 304 c0 -8 -6 -14 -12 -15 -7 0 -5 -4 5 -8 17 -6 17 -8 3 -20
-10 -9 -16 -9 -16 -3 0 6 -6 9 -14 6 -8 -3 -11 -15 -8 -29 4 -21 9 -23 36 -19
25 4 27 3 11 -5 -17 -9 -16 -10 10 -7 28 2 29 5 31 53 1 46 -1 52 -23 56 -15
3 -23 0 -23 -9z m20 -9 c0 -3 -2 -5 -5 -5 -3 0 -5 2 -5 5 0 3 2 5 5 5 3 0 5
-2 5 -5z m-3 -52 c-4 -3 -7 0 -7 7 0 7 3 10 7 7 3 -4 3 -10 0 -14z m23 -28 c0
-3 -2 -5 -5 -5 -3 0 -5 2 -5 5 0 3 2 5 5 5 3 0 5 -2 5 -5z"/>
<path d="M623 313 c4 -3 10 -3 14 0 3 4 0 7 -7 7 -7 0 -10 -3 -7 -7z"/>
<path d="M723 313 c-17 -2 -34 -11 -37 -20 -5 -12 -1 -14 15 -10 21 6 21 5 3
-12 -11 -11 -22 -14 -25 -8 -4 5 -12 6 -18 2 -9 -5 -9 -10 0 -21 6 -8 8 -14 3
-14 -5 0 2 -6 16 -14 21 -11 28 -11 39 0 12 11 17 10 28 -4 13 -15 13 -15 5 3
-11 22 -9 75 2 93 4 7 6 11 4 10 -2 0 -17 -3 -35 -5z"/>
<path d="M933 313 c4 -3 10 -3 14 0 3 4 0 7 -7 7 -7 0 -10 -3 -7 -7z"/>
<path d="M40 295 c0 -8 -6 -15 -13 -15 -9 0 -13 -10 -12 -27 1 -23 6 -29 31
-31 39 -4 73 30 54 53 -9 11 -9 15 -1 15 7 0 9 5 6 10 -10 16 -65 12 -65 -5z
m16 -30 c-9 -9 -16 -13 -16 -8 0 12 22 34 28 28 2 -2 -3 -11 -12 -20z"/>
<path d="M270 305 c0 -3 2 -5 5 -5 3 0 5 2 5 5 0 3 -2 5 -5 5 -3 0 -5 -2 -5
-5z"/>
<path d="M600 305 c0 -3 2 -5 5 -5 3 0 5 2 5 5 0 3 -2 5 -5 5 -3 0 -5 -2 -5
-5z"/>
<path d="M574 288 c-4 -7 -3 -8 4 -4 12 7 16 16 8 16 -3 0 -8 -5 -12 -12z"/>
<path d="M905 290 c3 -5 8 -10 11 -10 3 0 2 5 -1 10 -3 6 -8 10 -11 10 -3 0
-2 -4 1 -10z"/>
<path d="M250 285 c0 -3 2 -5 5 -5 3 0 5 2 5 5 0 3 -2 5 -5 5 -3 0 -5 -2 -5
-5z"/>
<path d="M279 273 c-13 -17 -13 -17 6 -3 11 8 22 16 24 17 2 2 0 3 -6 3 -6 0
-17 -8 -24 -17z"/>
<path d="M623 283 c4 -3 10 -3 14 0 3 4 0 7 -7 7 -7 0 -10 -3 -7 -7z"/>
<path d="M940 285 c0 -3 2 -5 5 -5 3 0 5 2 5 5 0 3 -2 5 -5 5 -3 0 -5 -2 -5
-5z"/>
<path d="M595 265 c-3 -8 -7 -22 -10 -30 -2 -8 0 -17 4 -20 5 -2 11 11 13 30
4 36 1 46 -7 20z"/>
<path d="M890 275 c0 -3 2 -5 5 -5 3 0 5 2 5 5 0 3 -2 5 -5 5 -3 0 -5 -2 -5
-5z"/>
<path d="M910 260 c0 -7 3 -10 7 -7 3 4 3 10 0 14 -4 3 -7 0 -7 -7z"/>
<path d="M240 255 c0 -3 2 -5 5 -5 3 0 5 2 5 5 0 3 -2 5 -5 5 -3 0 -5 -2 -5
-5z"/>
<path d="M880 255 c0 -3 2 -5 5 -5 3 0 5 2 5 5 0 3 -2 5 -5 5 -3 0 -5 -2 -5
-5z"/>
<path d="M208 233 c-20 -5 -24 -22 -20 -79 4 -39 6 -43 30 -43 15 1 39 -2 54
-6 27 -7 27 -7 26 41 0 27 -4 57 -10 67 -6 12 -5 17 3 17 7 0 9 3 6 6 -4 4
-14 1 -23 -7 -10 -8 -20 -12 -23 -9 -3 3 -7 -17 -9 -43 -2 -29 1 -47 6 -43 6
3 9 24 7 45 -2 30 1 38 11 34 8 -3 12 -17 10 -36 -1 -18 1 -39 5 -48 5 -10 3
-16 -6 -16 -8 0 -11 7 -7 16 5 13 3 14 -9 4 -12 -10 -18 -10 -27 -1 -9 9 -12
9 -12 0 0 -7 -4 -12 -10 -12 -5 0 -10 23 -10 50 0 38 4 50 15 50 8 0 15 5 15
10 0 6 -1 9 -2 9 -2 -1 -11 -3 -20 -6z"/>
<path d="M320 235 c0 -3 2 -5 5 -5 3 0 5 2 5 5 0 3 -2 5 -5 5 -3 0 -5 -2 -5
-5z"/>
<path d="M505 171 c0 -62 1 -66 23 -66 19 0 20 2 7 11 -10 8 -15 28 -15 64 0
43 3 51 16 46 8 -3 12 -2 9 3 -3 6 -13 9 -23 8 -14 -1 -17 -11 -17 -66z"/>
<path d="M560 192 c0 -35 -4 -52 -12 -52 -20 -1 32 -40 52 -40 15 0 18 9 18
51 1 35 -3 49 -11 46 -7 -2 -11 -11 -9 -20 2 -10 -6 -27 -18 -39 -23 -24 -27
-12 -6 17 9 13 11 28 5 48 -13 47 -19 44 -19 -11z m45 -71 c-3 -6 -11 -11 -16
-11 -5 0 -4 6 3 14 14 16 24 13 13 -3z"/>
<path d="M610 230 c0 -7 3 -10 7 -7 3 4 3 10 0 14 -4 3 -7 0 -7 -7z"/>
<path d="M848 233 c-20 -5 -24 -22 -20 -79 4 -39 6 -43 30 -43 15 1 39 -2 54
-6 27 -7 27 -7 26 44 0 88 -51 112 -56 27 -2 -33 0 -46 8 -41 6 4 8 15 5 25
-3 10 -1 21 5 25 8 5 8 11 -1 21 -10 12 -9 13 4 8 12 -4 16 -16 13 -37 -1 -18
1 -39 5 -48 5 -10 3 -16 -6 -16 -8 0 -11 7 -7 16 5 13 3 14 -9 4 -12 -10 -18
-10 -27 -1 -9 9 -12 9 -12 0 0 -7 -4 -12 -10 -12 -5 0 -10 23 -10 50 0 38 4
50 15 50 8 0 15 5 15 10 0 6 -1 9 -2 9 -2 -1 -11 -3 -20 -6z"/>
<path d="M923 233 c4 -3 10 -3 14 0 3 4 0 7 -7 7 -7 0 -10 -3 -7 -7z"/>
<path d="M105 210 c-3 -5 -1 -10 4 -10 6 0 11 5 11 10 0 6 -2 10 -4 10 -3 0
-8 -4 -11 -10z"/>
<path d="M68 203 c7 -3 16 -2 19 1 4 3 -2 6 -13 5 -11 0 -14 -3 -6 -6z"/>
<path d="M260 195 c0 -3 2 -5 5 -5 3 0 5 2 5 5 0 3 -2 5 -5 5 -3 0 -5 -2 -5
-5z"/>
<path d="M260 165 c0 -3 2 -5 5 -5 3 0 5 2 5 5 0 3 -2 5 -5 5 -3 0 -5 -2 -5
-5z"/>
<path d="M900 165 c0 -3 2 -5 5 -5 3 0 5 2 5 5 0 3 -2 5 -5 5 -3 0 -5 -2 -5
-5z"/>
</g>
<g transform="translate(0.000000,96.000000) scale(0.100000,-0.100000)"
fill="#c3923e" stroke="none">
<path d="M3 953 c4 -3 10 -3 14 0 3 4 0 7 -7 7 -7 0 -10 -3 -7 -7z"/>
<path d="M46 934 c1 -13 5 -28 9 -33 3 -6 2 -11 -4 -11 -5 0 -11 6 -14 13 -3
9 -7 9 -17 0 -16 -15 -6 -29 26 -37 31 -8 68 19 61 45 -2 9 -1 22 3 30 6 11 0
14 -29 15 -34 1 -38 -2 -35 -22z m34 -8 c0 -3 -4 -8 -10 -11 -5 -3 -10 -1 -10
4 0 6 5 11 10 11 6 0 10 -2 10 -4z"/>
<path d="M284 948 c-4 -7 -3 -8 4 -4 12 7 16 16 8 16 -3 0 -8 -5 -12 -12z"/>
<path d="M320 955 c0 -3 2 -5 5 -5 3 0 5 2 5 5 0 3 -2 5 -5 5 -3 0 -5 -2 -5
-5z"/>
<path d="M430 955 c0 -3 2 -5 5 -5 3 0 5 2 5 5 0 3 -2 5 -5 5 -3 0 -5 -2 -5
-5z"/>
<path d="M620 955 c0 -3 2 -5 5 -5 3 0 5 2 5 5 0 3 -2 5 -5 5 -3 0 -5 -2 -5
-5z"/>
<path d="M640 949 c0 -5 5 -7 10 -4 6 3 10 8 10 11 0 2 -4 4 -10 4 -5 0 -10
-5 -10 -11z"/>
<path d="M726 951 c-28 -6 -49 -31 -26 -31 6 0 8 -5 5 -11 -4 -6 -13 -8 -21
-5 -24 9 -24 -11 0 -39 15 -17 30 -25 42 -22 15 4 14 5 -5 6 l-24 1 28 24 c15
13 25 29 21 35 -4 6 -2 20 4 31 6 11 9 19 8 19 -2 -1 -16 -4 -32 -8z m-6 -16
c0 -3 -2 -5 -5 -5 -3 0 -5 2 -5 5 0 3 2 5 5 5 3 0 5 -2 5 -5z m0 -39 c0 -3 -5
-8 -12 -12 -7 -4 -8 -3 -4 4 7 12 16 16 16 8z m-30 -11 c0 -3 -2 -5 -5 -5 -3
0 -5 2 -5 5 0 3 2 5 5 5 3 0 5 -2 5 -5z"/>
<path d="M940 955 c0 -3 2 -5 5 -5 3 0 5 2 5 5 0 3 -2 5 -5 5 -3 0 -5 -2 -5
-5z"/>
<path d="M367 933 c3 -7 9 -13 14 -13 6 0 4 -6 -3 -14 -10 -11 -14 -11 -18 -1
-4 10 -8 10 -16 1 -7 -7 -8 -21 -3 -33 6 -18 13 -20 35 -14 15 4 34 18 43 31
15 22 15 24 -1 17 -10 -3 -18 -2 -18 4 0 5 7 12 15 15 24 9 7 24 -25 22 -18
-1 -26 -7 -23 -15z m33 2 c0 -3 -2 -5 -5 -5 -3 0 -5 2 -5 5 0 3 2 5 5 5 3 0 5
-2 5 -5z"/>
<path d="M590 945 c0 -3 2 -5 5 -5 3 0 5 2 5 5 0 3 -2 5 -5 5 -3 0 -5 -2 -5
-5z"/>
<path d="M920 945 c0 -3 2 -5 5 -5 3 0 5 2 5 5 0 3 -2 5 -5 5 -3 0 -5 -2 -5
-5z"/>
<path d="M20 935 c0 -3 2 -5 5 -5 3 0 5 2 5 5 0 3 -2 5 -5 5 -3 0 -5 -2 -5 -5z"/>
<path d="M890 919 c-7 -11 -10 -23 -7 -25 2 -2 9 7 15 21 14 30 7 33 -8 4z"/>
<path d="M250 925 c0 -3 2 -5 5 -5 3 0 5 2 5 5 0 3 -2 5 -5 5 -3 0 -5 -2 -5
-5z"/>
<path d="M276 908 c-16 -22 -8 -38 19 -38 6 0 3 5 -5 10 -12 8 -13 13 -2 30
17 27 7 26 -12 -2z"/>
<path d="M570 925 c0 -3 2 -5 5 -5 3 0 5 2 5 5 0 3 -2 5 -5 5 -3 0 -5 -2 -5
-5z"/>
<path d="M599 913 c-13 -17 -13 -17 6 -3 11 8 22 16 24 17 2 2 0 3 -6 3 -6 0
-17 -8 -24 -17z"/>
<path d="M943 923 c4 -3 10 -3 14 0 3 4 0 7 -7 7 -7 0 -10 -3 -7 -7z"/>
<path d="M920 915 c0 -3 2 -5 5 -5 3 0 5 2 5 5 0 3 -2 5 -5 5 -3 0 -5 -2 -5
-5z"/>
<path d="M240 900 c0 -7 3 -10 7 -7 3 4 3 10 0 14 -4 3 -7 0 -7 -7z"/>
<path d="M560 895 c0 -3 2 -5 5 -5 3 0 5 2 5 5 0 3 -2 5 -5 5 -3 0 -5 -2 -5
-5z"/>
<path d="M906 891 c-4 -5 4 -15 16 -22 22 -12 22 -11 8 7 -8 10 -15 20 -16 22
-1 2 -5 -1 -8 -7z"/>
<path d="M603 873 c4 -3 10 -3 14 0 3 4 0 7 -7 7 -7 0 -10 -3 -7 -7z"/>
<path d="M827 859 c4 -13 8 -18 11 -10 2 7 -1 18 -6 23 -8 8 -9 4 -5 -13z"/>
<path d="M200 865 c0 -3 2 -5 5 -5 3 0 5 2 5 5 0 3 -2 5 -5 5 -3 0 -5 -2 -5
-5z"/>
<path d="M220 865 c0 -3 2 -5 5 -5 3 0 5 2 5 5 0 3 -2 5 -5 5 -3 0 -5 -2 -5
-5z"/>
<path d="M530 865 c0 -3 2 -5 5 -5 3 0 5 2 5 5 0 3 -2 5 -5 5 -3 0 -5 -2 -5
-5z"/>
<path d="M263 853 c4 -3 10 -3 14 0 3 4 0 7 -7 7 -7 0 -10 -3 -7 -7z"/>
<path d="M510 855 c0 -3 2 -5 5 -5 3 0 5 2 5 5 0 3 -2 5 -5 5 -3 0 -5 -2 -5
-5z"/>
<path d="M590 850 c12 -7 13 -13 4 -28 -10 -15 -8 -18 7 -19 11 -1 19 4 19 12
0 26 -12 45 -29 45 -14 0 -14 -2 -1 -10z"/>
<path d="M30 845 c0 -3 2 -5 5 -5 3 0 5 2 5 5 0 3 -2 5 -5 5 -3 0 -5 -2 -5 -5z"/>
<path d="M63 843 c4 -3 10 -3 14 0 3 4 0 7 -7 7 -7 0 -10 -3 -7 -7z"/>
<path d="M103 843 c4 -3 10 -3 14 0 3 4 0 7 -7 7 -7 0 -10 -3 -7 -7z"/>
<path d="M275 830 c-10 -11 -15 -23 -12 -27 4 -3 7 -1 7 5 0 19 18 14 23 -5 3
-10 5 -3 4 15 -1 17 -2 32 -3 32 0 0 -9 -9 -19 -20z"/>
<path d="M380 845 c0 -3 2 -5 5 -5 3 0 5 2 5 5 0 3 -2 5 -5 5 -3 0 -5 -2 -5
-5z"/>
<path d="M400 845 c0 -3 2 -5 5 -5 3 0 5 2 5 5 0 3 -2 5 -5 5 -3 0 -5 -2 -5
-5z"/>
<path d="M423 843 c4 -3 10 -3 14 0 3 4 0 7 -7 7 -7 0 -10 -3 -7 -7z"/>
<path d="M750 845 c0 -3 2 -5 5 -5 3 0 5 2 5 5 0 3 -2 5 -5 5 -3 0 -5 -2 -5
-5z"/>
<path d="M560 828 c0 -4 4 -8 9 -8 6 0 12 4 15 8 3 5 -1 9 -9 9 -8 0 -15 -4
-15 -9z"/>
<path d="M924 834 c-7 -3 -9 -14 -6 -26 4 -17 2 -19 -19 -13 -17 4 -20 3 -10
-3 8 -6 10 -15 6 -22 -6 -10 -2 -12 16 -7 23 6 23 5 5 -8 -20 -15 -11 -21 10
-7 8 5 19 94 11 91 -1 0 -7 -3 -13 -5z"/>
<path d="M190 825 c0 -3 2 -5 5 -5 3 0 5 2 5 5 0 3 -2 5 -5 5 -3 0 -5 -2 -5
-5z"/>
<path d="M831 804 c0 -11 3 -14 6 -6 3 7 2 16 -1 19 -3 4 -6 -2 -5 -13z"/>
<path d="M512 790 c0 -14 2 -19 5 -12 2 6 2 18 0 25 -3 6 -5 1 -5 -13z"/>
<path d="M191 784 c0 -11 3 -14 6 -6 3 7 2 16 -1 19 -3 4 -6 -2 -5 -13z"/>
<path d="M266 775 c4 -8 8 -15 10 -15 2 0 4 7 4 15 0 8 -4 15 -10 15 -5 0 -7
-7 -4 -15z"/>
<path d="M610 771 c0 -11 -8 -22 -17 -24 -14 -4 -12 -5 5 -6 17 -1 22 4 22 24
0 14 -2 25 -5 25 -3 0 -5 -9 -5 -19z"/>
<path d="M290 767 c0 -8 -8 -18 -17 -20 -17 -4 -17 -5 0 -6 18 -1 35 25 23 36
-3 4 -6 -1 -6 -10z"/>
<path d="M536 763 c-6 -14 -5 -15 5 -6 7 7 10 15 7 18 -3 3 -9 -2 -12 -12z"/>
<path d="M580 775 c0 -3 2 -5 5 -5 3 0 5 2 5 5 0 3 -2 5 -5 5 -3 0 -5 -2 -5
-5z"/>
<path d="M830 775 c0 -3 2 -5 5 -5 3 0 5 2 5 5 0 3 -2 5 -5 5 -3 0 -5 -2 -5
-5z"/>
<path d="M863 773 c4 -3 10 -3 14 0 3 4 0 7 -7 7 -7 0 -10 -3 -7 -7z"/>
<path d="M210 755 c0 -3 2 -5 5 -5 3 0 5 2 5 5 0 3 -2 5 -5 5 -3 0 -5 -2 -5
-5z"/>
<path d="M830 756 c0 -2 9 -6 20 -9 11 -3 18 -1 14 4 -5 9 -34 13 -34 5z"/>
<path d="M0 629 c0 -5 5 -7 10 -4 5 3 10 8 10 11 0 2 -4 4 -10 4 -5 0 -10 -5
-10 -11z"/>
<path d="M110 635 c0 -3 2 -5 5 -5 3 0 5 2 5 5 0 3 -2 5 -5 5 -3 0 -5 -2 -5
-5z"/>
<path d="M274 624 c-18 -14 -18 -14 6 -3 31 14 36 19 24 19 -6 0 -19 -7 -30
-16z"/>
<path d="M320 630 c0 -7 3 -10 7 -7 3 4 3 10 0 14 -4 3 -7 0 -7 -7z"/>
<path d="M398 633 c-24 -3 -38 -9 -38 -18 0 -7 -7 -20 -15 -28 -13 -13 -11
-17 11 -32 30 -19 48 -15 65 16 10 19 9 21 -5 16 -9 -4 -16 -2 -16 3 0 6 4 10
10 10 5 0 14 9 20 20 6 11 9 19 8 18 -2 -1 -20 -3 -40 -5z m2 -18 c0 -3 -2 -5
-5 -5 -3 0 -5 2 -5 5 0 3 2 5 5 5 3 0 5 -2 5 -5z m-16 -22 c-5 -5 -12 -12 -16
-18 -4 -6 -8 -2 -8 8 0 9 7 17 17 17 9 0 12 -3 7 -7z"/>
<path d="M613 633 c4 -3 10 -3 14 0 3 4 0 7 -7 7 -7 0 -10 -3 -7 -7z"/>
<path d="M640 629 c0 -5 5 -7 10 -4 6 3 10 8 10 11 0 2 -4 4 -10 4 -5 0 -10
-5 -10 -11z"/>
<path d="M675 630 c3 -5 8 -10 11 -10 3 0 2 5 -1 10 -3 6 -8 10 -11 10 -3 0
-2 -4 1 -10z"/>
<path d="M700 624 c0 -7 -6 -15 -12 -17 -8 -3 -5 -6 6 -6 14 -1 16 -4 7 -14
-6 -8 -10 -16 -8 -18 1 -2 -3 2 -10 9 -7 8 -13 9 -17 3 -4 -5 -2 -12 4 -16 6
-4 8 -11 5 -16 -4 -5 6 -9 20 -9 23 0 25 3 20 23 -5 17 -4 18 4 7 13 -19 25
-6 27 30 1 22 -3 29 -22 33 -15 3 -24 0 -24 -9z m20 -9 c0 -3 -2 -5 -5 -5 -3
0 -5 2 -5 5 0 3 2 5 5 5 3 0 5 -2 5 -5z"/>
<path d="M940 635 c0 -3 2 -5 5 -5 3 0 5 2 5 5 0 3 -2 5 -5 5 -3 0 -5 -2 -5
-5z"/>
<path d="M65 620 c3 -4 -1 -11 -7 -14 -7 -3 -2 -4 11 -3 30 3 39 22 11 24 -11
1 -18 -2 -15 -7z"/>
<path d="M920 625 c0 -3 2 -5 5 -5 3 0 5 2 5 5 0 3 -2 5 -5 5 -3 0 -5 -2 -5
-5z"/>
<path d="M894 608 c-4 -7 -3 -8 4 -4 7 4 12 9 12 12 0 8 -9 4 -16 -8z"/>
<path d="M279 593 c-12 -16 -12 -17 1 -7 8 6 22 14 30 17 13 5 12 6 -1 6 -9 1
-23 -7 -30 -16z"/>
<path d="M570 600 c0 -7 3 -10 7 -7 3 4 3 10 0 14 -4 3 -7 0 -7 -7z"/>
<path d="M599 593 c-13 -17 -13 -17 6 -3 11 8 22 16 24 17 2 2 0 3 -6 3 -6 0
-17 -8 -24 -17z"/>
<path d="M943 603 c4 -3 10 -3 14 0 3 4 0 7 -7 7 -7 0 -10 -3 -7 -7z"/>
<path d="M23 592 c-19 -12 -5 -46 24 -59 15 -7 29 -11 31 -8 3 3 0 5 -7 5 -7
0 -3 9 9 22 11 12 20 25 20 30 0 12 -38 9 -46 -4 -5 -8 -9 -7 -13 5 -4 10 -11
13 -18 9z m57 -22 c0 -5 -5 -10 -11 -10 -5 0 -7 5 -4 10 3 6 8 10 11 10 2 0 4
-4 4 -10z"/>
<path d="M250 595 c0 -3 2 -5 5 -5 3 0 5 2 5 5 0 3 -2 5 -5 5 -3 0 -5 -2 -5
-5z"/>
<path d="M914 585 c-3 -8 -4 -20 -2 -27 3 -7 7 -1 10 15 6 29 1 36 -8 12z"/>
<path d="M240 575 c0 -3 2 -5 5 -5 3 0 5 2 5 5 0 3 -2 5 -5 5 -3 0 -5 -2 -5
-5z"/>
<path d="M266 545 c3 -20 1 -23 -13 -19 -15 5 -15 4 -3 -4 8 -6 18 -8 22 -6 4
3 8 -2 8 -10 0 -8 -10 -17 -22 -19 -17 -3 -14 -5 10 -6 36 -1 43 19 17 46 -9
8 -13 18 -10 21 3 4 10 0 15 -8 6 -8 10 -10 10 -4 0 11 -20 34 -31 34 -4 0 -6
-11 -3 -25z"/>
<path d="M189 531 c4 -20 6 -22 9 -8 2 11 9 16 18 13 7 -3 16 -1 19 3 2 5 -8
11 -23 13 -26 4 -28 2 -23 -21z"/>
<path d="M500 555 c0 -3 2 -5 5 -5 3 0 5 2 5 5 0 3 -2 5 -5 5 -3 0 -5 -2 -5
-5z"/>
<path d="M603 553 c4 -3 10 -3 14 0 3 4 0 7 -7 7 -7 0 -10 -3 -7 -7z"/>
<path d="M640 555 c0 -3 2 -5 5 -5 3 0 5 2 5 5 0 3 -2 5 -5 5 -3 0 -5 -2 -5
-5z"/>
<path d="M827 518 c4 -55 13 -62 13 -10 0 22 -4 43 -8 46 -5 3 -7 -14 -5 -36z"/>
<path d="M930 550 c0 -7 3 -10 7 -7 3 4 3 10 0 14 -4 3 -7 0 -7 -7z"/>
<path d="M0 545 c0 -3 2 -5 5 -5 3 0 5 2 5 5 0 3 -2 5 -5 5 -3 0 -5 -2 -5 -5z"/>
<path d="M340 545 c0 -3 2 -5 5 -5 3 0 5 2 5 5 0 3 -2 5 -5 5 -3 0 -5 -2 -5
-5z"/>
<path d="M425 530 c-3 -5 -1 -10 4 -10 6 0 11 5 11 10 0 6 -2 10 -4 10 -3 0
-8 -4 -11 -10z"/>
<path d="M588 533 c6 -2 12 -9 12 -14 0 -4 -6 -6 -14 -3 -8 3 -17 0 -21 -6 -4
-7 -1 -10 10 -8 10 2 20 -3 23 -11 3 -9 0 -11 -8 -6 -8 5 -11 4 -6 -3 9 -14
36 -4 36 13 0 26 -12 45 -29 44 -10 0 -11 -2 -3 -6z"/>
<path d="M100 525 c0 -3 2 -5 5 -5 3 0 5 2 5 5 0 3 -2 5 -5 5 -3 0 -5 -2 -5
-5z"/>
<path d="M388 523 c7 -3 16 -2 19 1 4 3 -2 6 -13 5 -11 0 -14 -3 -6 -6z"/>
<path d="M698 523 c7 -3 16 -2 19 1 4 3 -2 6 -13 5 -11 0 -14 -3 -6 -6z"/>
<path d="M730 525 c0 -3 2 -5 5 -5 3 0 5 2 5 5 0 3 -2 5 -5 5 -3 0 -5 -2 -5
-5z"/>
<path d="M510 515 c0 -3 2 -5 5 -5 3 0 5 2 5 5 0 3 -2 5 -5 5 -3 0 -5 -2 -5
-5z"/>
<path d="M915 510 c-3 -5 -2 -10 4 -10 5 0 12 -8 14 -17 3 -11 5 -7 6 10 1 27
-12 36 -24 17z"/>
<path d="M508 475 c2 -14 6 -25 8 -25 2 0 4 11 4 25 0 14 -4 25 -9 25 -4 0 -6
-11 -3 -25z"/>
<path d="M191 464 c0 -11 3 -14 6 -6 3 7 2 16 -1 19 -3 4 -6 -2 -5 -13z"/>
<path d="M265 461 c-3 -5 -2 -12 3 -15 5 -3 9 1 9 9 0 17 -3 19 -12 6z"/>
<path d="M290 451 c0 -11 -6 -22 -12 -24 -8 -3 -6 -6 5 -6 12 -1 17 7 17 24 0
14 -2 25 -5 25 -3 0 -5 -9 -5 -19z"/>
<path d="M610 451 c0 -11 -8 -22 -17 -24 -14 -4 -12 -5 5 -6 17 -1 22 4 22 24
0 14 -2 25 -5 25 -3 0 -5 -9 -5 -19z"/>
<path d="M896 455 c-3 -9 0 -15 9 -15 8 0 15 7 15 15 0 8 -4 15 -9 15 -5 0
-11 -7 -15 -15z"/>
<path d="M216 445 c-11 -8 -15 -15 -9 -15 6 0 16 7 23 15 16 19 11 19 -14 0z"/>
<path d="M536 445 c-11 -8 -15 -15 -9 -15 6 0 16 7 23 15 16 19 11 19 -14 0z"/>
<path d="M583 453 c4 -3 10 -3 14 0 3 4 0 7 -7 7 -7 0 -10 -3 -7 -7z"/>
<path d="M830 455 c0 -3 2 -5 5 -5 3 0 5 2 5 5 0 3 -2 5 -5 5 -3 0 -5 -2 -5
-5z"/>
<path d="M863 453 c4 -3 10 -3 14 0 3 4 0 7 -7 7 -7 0 -10 -3 -7 -7z"/>
<path d="M930 446 c0 -8 -8 -17 -17 -19 -14 -4 -12 -5 5 -6 16 -1 22 5 22 19
0 11 -2 20 -5 20 -3 0 -5 -6 -5 -14z"/>
<path d="M824 428 c-4 -7 -3 -8 4 -4 7 4 12 9 12 12 0 8 -9 4 -16 -8z"/>
<path d="M855 430 c3 -5 8 -10 11 -10 3 0 2 5 -1 10 -3 6 -8 10 -11 10 -3 0
-2 -4 1 -10z"/>
<path d="M180 425 c0 -3 2 -5 5 -5 3 0 5 2 5 5 0 3 -2 5 -5 5 -3 0 -5 -2 -5
-5z"/>
<path d="M500 425 c0 -3 2 -5 5 -5 3 0 5 2 5 5 0 3 -2 5 -5 5 -3 0 -5 -2 -5
-5z"/>
<path d="M0 310 c0 -7 3 -10 7 -7 3 4 3 10 0 14 -4 3 -7 0 -7 -7z"/>
<path d="M110 315 c0 -3 2 -5 5 -5 3 0 5 2 5 5 0 3 -2 5 -5 5 -3 0 -5 -2 -5
-5z"/>
<path d="M300 315 c0 -3 2 -5 5 -5 3 0 5 2 5 5 0 3 -2 5 -5 5 -3 0 -5 -2 -5
-5z"/>
<path d="M320 309 c0 -5 5 -7 10 -4 6 3 10 8 10 11 0 2 -4 4 -10 4 -5 0 -10
-5 -10 -11z"/>
<path d="M355 310 c3 -5 8 -10 11 -10 3 0 2 5 -1 10 -3 6 -8 10 -11 10 -3 0
-2 -4 1 -10z"/>
<path d="M380 304 c0 -7 -6 -15 -12 -17 -8 -3 -5 -6 6 -6 14 -1 16 -4 7 -14
-6 -8 -10 -16 -8 -18 1 -2 -3 2 -10 9 -7 8 -13 9 -17 3 -4 -5 -2 -12 4 -16 6
-4 8 -11 5 -16 -4 -5 6 -9 20 -9 23 0 25 3 20 23 -5 17 -4 18 4 7 13 -19 25
-6 27 30 1 22 -3 29 -22 33 -15 3 -24 0 -24 -9z m20 -9 c0 -3 -2 -5 -5 -5 -3
0 -5 2 -5 5 0 3 2 5 5 5 3 0 5 -2 5 -5z"/>
<path d="M620 315 c0 -3 2 -5 5 -5 3 0 5 2 5 5 0 3 -2 5 -5 5 -3 0 -5 -2 -5
-5z"/>
<path d="M726 311 c-16 -3 -31 -12 -34 -20 -3 -10 0 -12 14 -7 17 7 17 6 -1
-12 -12 -11 -23 -15 -26 -9 -4 5 -12 6 -18 2 -9 -5 -9 -10 0 -21 6 -8 8 -14 3
-14 -5 0 2 -6 16 -14 21 -11 28 -11 39 0 12 11 17 10 28 -4 13 -15 13 -15 5 3
-11 22 -9 75 2 93 4 7 6 11 4 11 -2 -1 -16 -4 -32 -8z m-16 -66 c0 -3 -2 -5
-5 -5 -3 0 -5 2 -5 5 0 3 2 5 5 5 3 0 5 -2 5 -5z"/>
<path d="M933 313 c4 -3 10 -3 14 0 3 4 0 7 -7 7 -7 0 -10 -3 -7 -7z"/>
<path d="M40 295 c0 -8 -6 -15 -13 -15 -9 0 -13 -10 -12 -27 1 -25 5 -28 34
-28 25 0 38 7 50 25 15 22 15 24 -1 17 -10 -3 -18 -2 -18 4 0 5 7 12 15 15 23
9 7 24 -26 24 -19 0 -29 -5 -29 -15z m16 -30 c-9 -9 -16 -13 -16 -8 0 12 22
34 28 28 2 -2 -3 -11 -12 -20z"/>
<path d="M270 305 c0 -3 2 -5 5 -5 3 0 5 2 5 5 0 3 -2 5 -5 5 -3 0 -5 -2 -5
-5z"/>
<path d="M600 305 c0 -3 2 -5 5 -5 3 0 5 2 5 5 0 3 -2 5 -5 5 -3 0 -5 -2 -5
-5z"/>
<path d="M574 288 c-4 -7 -3 -8 4 -4 12 7 16 16 8 16 -3 0 -8 -5 -12 -12z"/>
<path d="M905 290 c3 -5 8 -10 11 -10 3 0 2 5 -1 10 -3 6 -8 10 -11 10 -3 0
-2 -4 1 -10z"/>
<path d="M250 285 c0 -3 2 -5 5 -5 3 0 5 2 5 5 0 3 -2 5 -5 5 -3 0 -5 -2 -5
-5z"/>
<path d="M279 273 c-13 -17 -13 -17 6 -3 11 8 22 16 24 17 2 2 0 3 -6 3 -6 0
-17 -8 -24 -17z"/>
<path d="M623 283 c4 -3 10 -3 14 0 3 4 0 7 -7 7 -7 0 -10 -3 -7 -7z"/>
<path d="M940 285 c0 -3 2 -5 5 -5 3 0 5 2 5 5 0 3 -2 5 -5 5 -3 0 -5 -2 -5
-5z"/>
<path d="M594 265 c-3 -8 -4 -20 -2 -27 3 -7 7 -1 10 15 6 29 1 36 -8 12z"/>
<path d="M890 275 c0 -3 2 -5 5 -5 3 0 5 2 5 5 0 3 -2 5 -5 5 -3 0 -5 -2 -5
-5z"/>
<path d="M910 260 c0 -7 3 -10 7 -7 3 4 3 10 0 14 -4 3 -7 0 -7 -7z"/>
<path d="M240 255 c0 -3 2 -5 5 -5 3 0 5 2 5 5 0 3 -2 5 -5 5 -3 0 -5 -2 -5
-5z"/>
<path d="M880 255 c0 -3 2 -5 5 -5 3 0 5 2 5 5 0 3 -2 5 -5 5 -3 0 -5 -2 -5
-5z"/>
<path d="M283 233 c4 -3 10 -3 14 0 3 4 0 7 -7 7 -7 0 -10 -3 -7 -7z"/>
<path d="M320 235 c0 -3 2 -5 5 -5 3 0 5 2 5 5 0 3 -2 5 -5 5 -3 0 -5 -2 -5
-5z"/>
<path d="M507 198 c4 -55 13 -62 13 -10 0 22 -4 43 -8 46 -5 3 -7 -14 -5 -36z"/>
<path d="M610 230 c0 -7 3 -10 7 -7 3 4 3 10 0 14 -4 3 -7 0 -7 -7z"/>
<path d="M923 233 c4 -3 10 -3 14 0 3 4 0 7 -7 7 -7 0 -10 -3 -7 -7z"/>
<path d="M210 225 c0 -3 2 -5 5 -5 3 0 5 2 5 5 0 3 -2 5 -5 5 -3 0 -5 -2 -5
-5z"/>
<path d="M850 225 c0 -3 2 -5 5 -5 3 0 5 2 5 5 0 3 -2 5 -5 5 -3 0 -5 -2 -5
-5z"/>
<path d="M105 210 c-3 -5 -1 -10 4 -10 6 0 11 5 11 10 0 6 -2 10 -4 10 -3 0
-8 -4 -11 -10z"/>
<path d="M190 215 c0 -3 2 -5 5 -5 3 0 5 2 5 5 0 3 -2 5 -5 5 -3 0 -5 -2 -5
-5z"/>
<path d="M270 210 c12 -7 13 -13 4 -28 -10 -15 -8 -18 7 -19 11 -1 19 4 19 12
0 26 -12 45 -29 45 -14 0 -14 -2 -1 -10z"/>
<path d="M830 215 c0 -3 2 -5 5 -5 3 0 5 2 5 5 0 3 -2 5 -5 5 -3 0 -5 -2 -5
-5z"/>
<path d="M910 210 c12 -7 13 -13 4 -28 -10 -15 -8 -18 7 -19 11 -1 19 4 19 12
0 26 -12 45 -29 45 -14 0 -14 -2 -1 -10z"/>
<path d="M68 203 c7 -3 16 -2 19 1 4 3 -2 6 -13 5 -11 0 -14 -3 -6 -6z"/>
<path d="M378 203 c7 -3 16 -2 19 1 4 3 -2 6 -13 5 -11 0 -14 -3 -6 -6z"/>
<path d="M410 205 c0 -3 2 -5 5 -5 3 0 5 2 5 5 0 3 -2 5 -5 5 -3 0 -5 -2 -5
-5z"/>
<path d="M240 188 c0 -4 4 -8 9 -8 6 0 12 4 15 8 3 5 -1 9 -9 9 -8 0 -15 -4
-15 -9z"/>
<path d="M595 190 c-3 -5 -2 -10 4 -10 5 0 12 -8 14 -17 3 -11 5 -7 6 10 1 27
-12 36 -24 17z"/>
<path d="M885 190 c-3 -5 -2 -10 4 -10 5 0 13 5 16 10 3 6 2 10 -4 10 -5 0
-13 -4 -16 -10z"/>
<path d="M192 150 c0 -14 2 -19 5 -12 2 6 2 18 0 25 -3 6 -5 1 -5 -13z"/>
<path d="M832 150 c0 -14 2 -19 5 -12 2 6 2 18 0 25 -3 6 -5 1 -5 -13z"/>
<path d="M290 131 c0 -11 -8 -22 -17 -24 -14 -4 -12 -5 5 -6 17 -1 22 4 22 24
0 14 -2 25 -5 25 -3 0 -5 -9 -5 -19z"/>
<path d="M576 135 c-3 -9 0 -15 9 -15 8 0 15 7 15 15 0 8 -4 15 -9 15 -5 0
-11 -7 -15 -15z"/>
<path d="M930 131 c0 -11 -8 -22 -17 -24 -14 -4 -12 -5 5 -6 17 -1 22 4 22 24
0 14 -2 25 -5 25 -3 0 -5 -9 -5 -19z"/>
<path d="M216 123 c-6 -14 -5 -15 5 -6 7 7 10 15 7 18 -3 3 -9 -2 -12 -12z"/>
<path d="M260 135 c0 -3 2 -5 5 -5 3 0 5 2 5 5 0 3 -2 5 -5 5 -3 0 -5 -2 -5
-5z"/>
<path d="M510 135 c0 -3 2 -5 5 -5 3 0 5 2 5 5 0 3 -2 5 -5 5 -3 0 -5 -2 -5
-5z"/>
<path d="M543 133 c4 -3 10 -3 14 0 3 4 0 7 -7 7 -7 0 -10 -3 -7 -7z"/>
<path d="M610 126 c0 -8 -8 -17 -17 -19 -14 -4 -12 -5 5 -6 16 -1 22 5 22 19
0 11 -2 20 -5 20 -3 0 -5 -6 -5 -14z"/>
<path d="M856 123 c-6 -14 -5 -15 5 -6 7 7 10 15 7 18 -3 3 -9 -2 -12 -12z"/>
<path d="M900 135 c0 -3 2 -5 5 -5 3 0 5 2 5 5 0 3 -2 5 -5 5 -3 0 -5 -2 -5
-5z"/>
<path d="M504 108 c-4 -7 -3 -8 4 -4 12 7 16 16 8 16 -3 0 -8 -5 -12 -12z"/>
<path d="M535 110 c3 -5 8 -10 11 -10 3 0 2 5 -1 10 -3 6 -8 10 -11 10 -3 0
-2 -4 1 -10z"/>
</g>
<g transform="translate(0.000000,96.000000) scale(0.100000,-0.100000)"
fill="#563919" stroke="none">
<path d="M3 953 c4 -3 10 -3 14 0 3 4 0 7 -7 7 -7 0 -10 -3 -7 -7z"/>
<path d="M44 939 c0 -13 4 -15 13 -8 6 6 20 9 30 7 15 -4 13 -7 -9 -18 -15 -7
-25 -17 -22 -21 5 -8 -3 -11 -23 -8 -5 1 -7 6 -5 13 3 8 0 8 -8 -1 -7 -6 -9
-16 -6 -22 9 -14 57 -3 72 16 10 11 13 11 18 1 3 -7 5 -4 2 8 -2 12 0 27 4 35
6 11 0 14 -29 15 -29 1 -37 -3 -37 -17z"/>
<path d="M284 948 c-4 -7 -3 -8 4 -4 12 7 16 16 8 16 -3 0 -8 -5 -12 -12z"/>
<path d="M320 955 c0 -3 2 -5 5 -5 3 0 5 2 5 5 0 3 -2 5 -5 5 -3 0 -5 -2 -5
-5z"/>
<path d="M430 955 c0 -3 2 -5 5 -5 3 0 5 2 5 5 0 3 -2 5 -5 5 -3 0 -5 -2 -5
-5z"/>
<path d="M640 949 c0 -5 5 -7 10 -4 6 3 10 8 10 11 0 2 -4 4 -10 4 -5 0 -10
-5 -10 -11z"/>
<path d="M740 950 c-8 -5 -11 -10 -6 -10 5 0 4 -6 -1 -12 -12 -16 -24 -48 -18
-48 3 0 14 18 25 40 22 43 22 44 0 30z"/>
<path d="M940 955 c0 -3 2 -5 5 -5 3 0 5 2 5 5 0 3 -2 5 -5 5 -3 0 -5 -2 -5
-5z"/>
<path d="M366 939 c4 -7 44 0 44 7 0 2 -11 3 -24 2 -14 -1 -23 -5 -20 -9z"/>
<path d="M590 945 c0 -3 2 -5 5 -5 3 0 5 2 5 5 0 3 -2 5 -5 5 -3 0 -5 -2 -5
-5z"/>
<path d="M920 945 c0 -3 2 -5 5 -5 3 0 5 2 5 5 0 3 -2 5 -5 5 -3 0 -5 -2 -5
-5z"/>
<path d="M20 935 c0 -3 2 -5 5 -5 3 0 5 2 5 5 0 3 -2 5 -5 5 -3 0 -5 -2 -5 -5z"/>
<path d="M420 935 c0 -3 2 -5 5 -5 3 0 5 2 5 5 0 3 -2 5 -5 5 -3 0 -5 -2 -5
-5z"/>
<path d="M690 935 c0 -3 2 -5 5 -5 3 0 5 2 5 5 0 3 -2 5 -5 5 -3 0 -5 -2 -5
-5z"/>
<path d="M890 919 c-7 -11 -10 -23 -7 -25 2 -2 9 7 15 21 14 30 7 33 -8 4z"/>
<path d="M250 925 c0 -3 2 -5 5 -5 3 0 5 2 5 5 0 3 -2 5 -5 5 -3 0 -5 -2 -5
-5z"/>
<path d="M276 908 c-16 -22 -8 -38 19 -38 6 0 3 5 -5 10 -12 8 -13 13 -2 30
17 27 7 26 -12 -2z"/>
<path d="M599 913 c-13 -17 -13 -17 6 -3 11 8 22 16 24 17 2 2 0 3 -6 3 -6 0
-17 -8 -24 -17z"/>
<path d="M943 923 c4 -3 10 -3 14 0 3 4 0 7 -7 7 -7 0 -10 -3 -7 -7z"/>
<path d="M350 915 c0 -3 2 -5 5 -5 3 0 5 2 5 5 0 3 -2 5 -5 5 -3 0 -5 -2 -5
-5z"/>
<path d="M376 904 c-18 -18 -18 -19 -2 -22 10 -2 20 -1 23 1 2 3 3 13 1 23 -3
16 -4 16 -22 -2z"/>
<path d="M920 915 c0 -3 2 -5 5 -5 3 0 5 2 5 5 0 3 -2 5 -5 5 -3 0 -5 -2 -5
-5z"/>
<path d="M240 900 c0 -7 3 -10 7 -7 3 4 3 10 0 14 -4 3 -7 0 -7 -7z"/>
<path d="M337 881 c6 -25 19 -35 27 -22 3 4 -3 16 -14 26 -18 16 -18 16 -13
-4z"/>
<path d="M560 895 c0 -3 2 -5 5 -5 3 0 5 2 5 5 0 3 -2 5 -5 5 -3 0 -5 -2 -5
-5z"/>
<path d="M690 890 c0 -7 3 -10 7 -7 3 4 3 10 0 14 -4 3 -7 0 -7 -7z"/>
<path d="M740 895 c0 -3 2 -5 5 -5 3 0 5 2 5 5 0 3 -2 5 -5 5 -3 0 -5 -2 -5
-5z"/>
<path d="M906 891 c-4 -5 4 -15 16 -22 22 -12 22 -11 8 7 -8 10 -15 20 -16 22
-1 2 -5 -1 -8 -7z"/>
<path d="M603 873 c4 -3 10 -3 14 0 3 4 0 7 -7 7 -7 0 -10 -3 -7 -7z"/>
<path d="M670 875 c0 -3 2 -5 5 -5 3 0 5 2 5 5 0 3 -2 5 -5 5 -3 0 -5 -2 -5
-5z"/>
<path d="M827 859 c4 -13 8 -18 11 -10 2 7 -1 18 -6 23 -8 8 -9 4 -5 -13z"/>
<path d="M200 865 c0 -3 2 -5 5 -5 3 0 5 2 5 5 0 3 -2 5 -5 5 -3 0 -5 -2 -5
-5z"/>
<path d="M220 865 c0 -3 2 -5 5 -5 3 0 5 2 5 5 0 3 -2 5 -5 5 -3 0 -5 -2 -5
-5z"/>
<path d="M530 865 c0 -3 2 -5 5 -5 3 0 5 2 5 5 0 3 -2 5 -5 5 -3 0 -5 -2 -5
-5z"/>
<path d="M510 855 c0 -3 2 -5 5 -5 3 0 5 2 5 5 0 3 -2 5 -5 5 -3 0 -5 -2 -5
-5z"/>
<path d="M588 853 c6 -2 12 -16 12 -29 0 -13 5 -24 10 -24 6 0 10 6 10 14 0
27 -12 46 -29 45 -10 0 -11 -2 -3 -6z"/>
<path d="M698 848 c6 -6 18 -8 28 -6 14 3 12 5 -9 10 -19 3 -25 2 -19 -4z"/>
<path d="M30 845 c0 -3 2 -5 5 -5 3 0 5 2 5 5 0 3 -2 5 -5 5 -3 0 -5 -2 -5 -5z"/>
<path d="M63 843 c4 -3 10 -3 14 0 3 4 0 7 -7 7 -7 0 -10 -3 -7 -7z"/>
<path d="M103 843 c4 -3 10 -3 14 0 3 4 0 7 -7 7 -7 0 -10 -3 -7 -7z"/>
<path d="M280 835 c-8 -9 -8 -15 -2 -15 6 0 13 -8 15 -17 3 -10 5 -3 4 15 -1
37 -1 37 -17 17z"/>
<path d="M380 845 c0 -3 2 -5 5 -5 3 0 5 2 5 5 0 3 -2 5 -5 5 -3 0 -5 -2 -5
-5z"/>
<path d="M400 845 c0 -3 2 -5 5 -5 3 0 5 2 5 5 0 3 -2 5 -5 5 -3 0 -5 -2 -5
-5z"/>
<path d="M423 843 c4 -3 10 -3 14 0 3 4 0 7 -7 7 -7 0 -10 -3 -7 -7z"/>
<path d="M750 845 c0 -3 2 -5 5 -5 3 0 5 2 5 5 0 3 -2 5 -5 5 -3 0 -5 -2 -5
-5z"/>
<path d="M560 830 c0 -5 5 -10 11 -10 5 0 7 5 4 10 -3 6 -8 10 -11 10 -2 0 -4
-4 -4 -10z"/>
<path d="M925 832 c-12 -8 -13 -42 -2 -59 4 -7 0 -16 -10 -22 -10 -6 -13 -10
-8 -11 22 0 31 17 33 58 0 23 0 42 -1 42 -1 0 -6 -4 -12 -8z"/>
<path d="M190 825 c0 -3 2 -5 5 -5 3 0 5 2 5 5 0 3 -2 5 -5 5 -3 0 -5 -2 -5
-5z"/>
<path d="M831 804 c0 -11 3 -14 6 -6 3 7 2 16 -1 19 -3 4 -6 -2 -5 -13z"/>
<path d="M512 790 c0 -14 2 -19 5 -12 2 6 2 18 0 25 -3 6 -5 1 -5 -13z"/>
<path d="M191 784 c0 -11 3 -14 6 -6 3 7 2 16 -1 19 -3 4 -6 -2 -5 -13z"/>
<path d="M883 793 c4 -3 10 -3 14 0 3 4 0 7 -7 7 -7 0 -10 -3 -7 -7z"/>
<path d="M266 775 c4 -8 8 -15 10 -15 2 0 4 7 4 15 0 8 -4 15 -10 15 -5 0 -7
-7 -4 -15z"/>
<path d="M610 771 c0 -11 -8 -22 -17 -24 -14 -4 -12 -5 5 -6 17 -1 22 4 22 24
0 14 -2 25 -5 25 -3 0 -5 -9 -5 -19z"/>
<path d="M290 767 c0 -8 -8 -18 -17 -20 -17 -4 -17 -5 0 -6 18 -1 35 25 23 36
-3 4 -6 -1 -6 -10z"/>
<path d="M536 763 c-6 -14 -5 -15 5 -6 7 7 10 15 7 18 -3 3 -9 -2 -12 -12z"/>
<path d="M580 775 c0 -3 2 -5 5 -5 3 0 5 2 5 5 0 3 -2 5 -5 5 -3 0 -5 -2 -5
-5z"/>
<path d="M830 775 c0 -3 2 -5 5 -5 3 0 5 2 5 5 0 3 -2 5 -5 5 -3 0 -5 -2 -5
-5z"/>
<path d="M863 773 c4 -3 10 -3 14 0 3 4 0 7 -7 7 -7 0 -10 -3 -7 -7z"/>
<path d="M893 763 c4 -3 10 -3 14 0 3 4 0 7 -7 7 -7 0 -10 -3 -7 -7z"/>
<path d="M210 755 c0 -3 2 -5 5 -5 3 0 5 2 5 5 0 3 -2 5 -5 5 -3 0 -5 -2 -5
-5z"/>
<path d="M830 756 c0 -2 9 -6 20 -9 11 -3 18 -1 14 4 -5 9 -34 13 -34 5z"/>
<path d="M0 629 c0 -5 5 -7 10 -4 5 3 10 8 10 11 0 2 -4 4 -10 4 -5 0 -10 -5
-10 -11z"/>
<path d="M110 635 c0 -3 2 -5 5 -5 3 0 5 2 5 5 0 3 -2 5 -5 5 -3 0 -5 -2 -5
-5z"/>
<path d="M274 624 c-18 -14 -18 -14 6 -3 31 14 36 19 24 19 -6 0 -19 -7 -30
-16z"/>
<path d="M320 630 c0 -7 3 -10 7 -7 3 4 3 10 0 14 -4 3 -7 0 -7 -7z"/>
<path d="M399 633 c-27 -3 -38 -10 -42 -24 -5 -19 -4 -20 12 -5 19 17 56 22
46 6 -3 -5 -4 -10 -1 -10 3 0 10 9 16 20 6 11 9 19 8 18 -2 -1 -19 -3 -39 -5z"/>
<path d="M613 633 c4 -3 10 -3 14 0 3 4 0 7 -7 7 -7 0 -10 -3 -7 -7z"/>
<path d="M640 629 c0 -5 5 -7 10 -4 6 3 10 8 10 11 0 2 -4 4 -10 4 -5 0 -10
-5 -10 -11z"/>
<path d="M675 630 c3 -5 8 -10 11 -10 3 0 2 5 -1 10 -3 6 -8 10 -11 10 -3 0
-2 -4 1 -10z"/>
<path d="M700 635 c0 -3 2 -5 5 -5 3 0 5 2 5 5 0 3 -2 5 -5 5 -3 0 -5 -2 -5
-5z"/>
<path d="M940 635 c0 -3 2 -5 5 -5 3 0 5 2 5 5 0 3 -2 5 -5 5 -3 0 -5 -2 -5
-5z"/>
<path d="M70 625 c0 -3 2 -5 5 -5 3 0 5 2 5 5 0 3 -2 5 -5 5 -3 0 -5 -2 -5 -5z"/>
<path d="M90 625 c0 -3 2 -5 5 -5 3 0 5 2 5 5 0 3 -2 5 -5 5 -3 0 -5 -2 -5 -5z"/>
<path d="M729 621 c9 -6 10 -11 2 -15 -6 -4 -11 -15 -11 -24 1 -12 5 -10 15 8
19 33 18 40 -2 40 -14 0 -15 -2 -4 -9z"/>
<path d="M920 625 c0 -3 2 -5 5 -5 3 0 5 2 5 5 0 3 -2 5 -5 5 -3 0 -5 -2 -5
-5z"/>
<path d="M894 608 c-4 -7 -3 -8 4 -4 7 4 12 9 12 12 0 8 -9 4 -16 -8z"/>
<path d="M279 593 c-12 -16 -12 -17 1 -7 8 6 22 14 30 17 13 5 12 6 -1 6 -9 1
-23 -7 -30 -16z"/>
<path d="M599 593 c-13 -17 -13 -17 6 -3 11 8 22 16 24 17 2 2 0 3 -6 3 -6 0
-17 -8 -24 -17z"/>
<path d="M680 605 c0 -3 2 -5 5 -5 3 0 5 2 5 5 0 3 -2 5 -5 5 -3 0 -5 -2 -5
-5z"/>
<path d="M943 603 c4 -3 10 -3 14 0 3 4 0 7 -7 7 -7 0 -10 -3 -7 -7z"/>
<path d="M23 592 c-16 -10 -6 -49 15 -56 10 -3 24 -9 32 -12 8 -4 2 5 -14 19
-18 16 -27 31 -23 41 7 18 7 19 -10 8z"/>
<path d="M250 595 c0 -3 2 -5 5 -5 3 0 5 2 5 5 0 3 -2 5 -5 5 -3 0 -5 -2 -5
-5z"/>
<path d="M375 584 c-8 -9 -22 -13 -31 -10 -8 3 -12 2 -9 -4 3 -6 19 -10 36
-10 22 0 29 5 29 20 0 24 -4 25 -25 4z"/>
<path d="M570 595 c0 -3 2 -5 5 -5 3 0 5 2 5 5 0 3 -2 5 -5 5 -3 0 -5 -2 -5
-5z"/>
<path d="M914 585 c-3 -8 -4 -20 -2 -27 3 -7 7 -1 10 15 6 29 1 36 -8 12z"/>
<path d="M68 583 c7 -3 16 -2 19 1 4 3 -2 6 -13 5 -11 0 -14 -3 -6 -6z"/>
<path d="M420 585 c0 -3 2 -5 5 -5 3 0 5 2 5 5 0 3 -2 5 -5 5 -3 0 -5 -2 -5
-5z"/>
<path d="M240 575 c0 -3 2 -5 5 -5 3 0 5 2 5 5 0 3 -2 5 -5 5 -3 0 -5 -2 -5
-5z"/>
<path d="M695 570 c3 -5 8 -10 11 -10 3 0 2 5 -1 10 -3 6 -8 10 -11 10 -3 0
-2 -4 1 -10z"/>
<path d="M740 575 c0 -3 2 -5 5 -5 3 0 5 2 5 5 0 3 -2 5 -5 5 -3 0 -5 -2 -5
-5z"/>
<path d="M266 545 c3 -20 1 -23 -13 -19 -15 5 -15 4 -3 -4 8 -6 18 -8 22 -6 4
3 8 -4 8 -15 0 -12 5 -21 10 -21 15 0 12 30 -5 47 -9 8 -13 18 -10 21 3 4 10
0 15 -8 6 -8 10 -10 10 -4 0 11 -20 34 -31 34 -4 0 -6 -11 -3 -25z"/>
<path d="M189 531 c4 -20 6 -22 9 -8 2 11 9 16 18 13 7 -3 16 -1 19 3 2 5 -8
11 -23 13 -26 4 -28 2 -23 -21z"/>
<path d="M500 555 c0 -3 2 -5 5 -5 3 0 5 2 5 5 0 3 -2 5 -5 5 -3 0 -5 -2 -5
-5z"/>
<path d="M603 553 c4 -3 10 -3 14 0 3 4 0 7 -7 7 -7 0 -10 -3 -7 -7z"/>
<path d="M640 555 c0 -3 2 -5 5 -5 3 0 5 2 5 5 0 3 -2 5 -5 5 -3 0 -5 -2 -5
-5z"/>
<path d="M827 518 c4 -55 13 -62 13 -10 0 22 -4 43 -8 46 -5 3 -7 -14 -5 -36z"/>
<path d="M930 550 c0 -7 3 -10 7 -7 3 4 3 10 0 14 -4 3 -7 0 -7 -7z"/>
<path d="M0 545 c0 -3 2 -5 5 -5 3 0 5 2 5 5 0 3 -2 5 -5 5 -3 0 -5 -2 -5 -5z"/>
<path d="M340 545 c0 -3 2 -5 5 -5 3 0 5 2 5 5 0 3 -2 5 -5 5 -3 0 -5 -2 -5
-5z"/>
<path d="M673 543 c4 -3 10 -3 14 0 3 4 0 7 -7 7 -7 0 -10 -3 -7 -7z"/>
<path d="M425 530 c-3 -5 -1 -10 4 -10 6 0 11 5 11 10 0 6 -2 10 -4 10 -3 0
-8 -4 -11 -10z"/>
<path d="M589 531 c8 -5 12 -19 9 -34 -4 -18 -1 -24 9 -20 24 10 12 63 -16 63
-13 0 -13 -2 -2 -9z"/>
<path d="M100 525 c0 -3 2 -5 5 -5 3 0 5 2 5 5 0 3 -2 5 -5 5 -3 0 -5 -2 -5
-5z"/>
<path d="M388 523 c7 -3 16 -2 19 1 4 3 -2 6 -13 5 -11 0 -14 -3 -6 -6z"/>
<path d="M698 523 c7 -3 16 -2 19 1 4 3 -2 6 -13 5 -11 0 -14 -3 -6 -6z"/>
<path d="M730 525 c0 -3 2 -5 5 -5 3 0 5 2 5 5 0 3 -2 5 -5 5 -3 0 -5 -2 -5
-5z"/>
<path d="M510 515 c0 -3 2 -5 5 -5 3 0 5 2 5 5 0 3 -2 5 -5 5 -3 0 -5 -2 -5
-5z"/>
<path d="M565 510 c-3 -5 -1 -10 4 -10 6 0 11 5 11 10 0 6 -2 10 -4 10 -3 0
-8 -4 -11 -10z"/>
<path d="M915 510 c-3 -5 -2 -10 4 -10 5 0 12 -8 14 -17 3 -11 5 -7 6 10 1 27
-12 36 -24 17z"/>
<path d="M508 475 c2 -14 6 -25 8 -25 2 0 4 11 4 25 0 14 -4 25 -9 25 -4 0 -6
-11 -3 -25z"/>
<path d="M243 483 c4 -3 10 -3 14 0 3 4 0 7 -7 7 -7 0 -10 -3 -7 -7z"/>
<path d="M191 464 c0 -11 3 -14 6 -6 3 7 2 16 -1 19 -3 4 -6 -2 -5 -13z"/>
<path d="M265 461 c-3 -5 -2 -12 3 -15 5 -3 9 1 9 9 0 17 -3 19 -12 6z"/>
<path d="M290 451 c0 -11 -6 -22 -12 -24 -8 -3 -6 -6 5 -6 12 -1 17 7 17 24 0
14 -2 25 -5 25 -3 0 -5 -9 -5 -19z"/>
<path d="M610 451 c0 -11 -8 -22 -17 -24 -14 -4 -12 -5 5 -6 17 -1 22 4 22 24
0 14 -2 25 -5 25 -3 0 -5 -9 -5 -19z"/>
<path d="M216 445 c-11 -8 -15 -15 -9 -15 6 0 16 7 23 15 16 19 11 19 -14 0z"/>
<path d="M536 445 c-11 -8 -15 -15 -9 -15 6 0 16 7 23 15 16 19 11 19 -14 0z"/>
<path d="M583 453 c4 -3 10 -3 14 0 3 4 0 7 -7 7 -7 0 -10 -3 -7 -7z"/>
<path d="M830 455 c0 -3 2 -5 5 -5 3 0 5 2 5 5 0 3 -2 5 -5 5 -3 0 -5 -2 -5
-5z"/>
<path d="M863 453 c4 -3 10 -3 14 0 3 4 0 7 -7 7 -7 0 -10 -3 -7 -7z"/>
<path d="M930 446 c0 -8 -8 -17 -17 -19 -14 -4 -12 -5 5 -6 16 -1 22 5 22 19
0 11 -2 20 -5 20 -3 0 -5 -6 -5 -14z"/>
<path d="M893 443 c4 -3 10 -3 14 0 3 4 0 7 -7 7 -7 0 -10 -3 -7 -7z"/>
<path d="M824 428 c-4 -7 -3 -8 4 -4 7 4 12 9 12 12 0 8 -9 4 -16 -8z"/>
<path d="M855 430 c3 -5 8 -10 11 -10 3 0 2 5 -1 10 -3 6 -8 10 -11 10 -3 0
-2 -4 1 -10z"/>
<path d="M180 425 c0 -3 2 -5 5 -5 3 0 5 2 5 5 0 3 -2 5 -5 5 -3 0 -5 -2 -5
-5z"/>
<path d="M500 425 c0 -3 2 -5 5 -5 3 0 5 2 5 5 0 3 -2 5 -5 5 -3 0 -5 -2 -5
-5z"/>
<path d="M0 310 c0 -7 3 -10 7 -7 3 4 3 10 0 14 -4 3 -7 0 -7 -7z"/>
<path d="M110 315 c0 -3 2 -5 5 -5 3 0 5 2 5 5 0 3 -2 5 -5 5 -3 0 -5 -2 -5
-5z"/>
<path d="M320 309 c0 -5 5 -7 10 -4 6 3 10 8 10 11 0 2 -4 4 -10 4 -5 0 -10
-5 -10 -11z"/>
<path d="M355 310 c3 -5 8 -10 11 -10 3 0 2 5 -1 10 -3 6 -8 10 -11 10 -3 0
-2 -4 1 -10z"/>
<path d="M380 315 c0 -3 2 -5 5 -5 3 0 5 2 5 5 0 3 -2 5 -5 5 -3 0 -5 -2 -5
-5z"/>
<path d="M620 315 c0 -3 2 -5 5 -5 3 0 5 2 5 5 0 3 -2 5 -5 5 -3 0 -5 -2 -5
-5z"/>
<path d="M750 315 c0 -3 2 -5 5 -5 3 0 5 2 5 5 0 3 -2 5 -5 5 -3 0 -5 -2 -5
-5z"/>
<path d="M933 313 c4 -3 10 -3 14 0 3 4 0 7 -7 7 -7 0 -10 -3 -7 -7z"/>
<path d="M40 295 c0 -8 -6 -15 -13 -15 -23 0 -15 -54 8 -59 16 -3 17 -1 7 11
-6 8 -8 19 -4 23 4 5 0 5 -8 0 -8 -4 -5 2 8 14 23 23 29 41 12 41 -5 0 -10 -7
-10 -15z"/>
<path d="M73 303 c4 -3 10 -3 14 0 3 4 0 7 -7 7 -7 0 -10 -3 -7 -7z"/>
<path d="M270 305 c0 -3 2 -5 5 -5 3 0 5 2 5 5 0 3 -2 5 -5 5 -3 0 -5 -2 -5
-5z"/>
<path d="M409 301 c9 -6 10 -11 2 -15 -6 -4 -11 -15 -11 -24 1 -12 5 -10 15 8
19 33 18 40 -2 40 -14 0 -15 -2 -4 -9z"/>
<path d="M600 305 c0 -3 2 -5 5 -5 3 0 5 2 5 5 0 3 -2 5 -5 5 -3 0 -5 -2 -5
-5z"/>
<path d="M696 302 c-3 -5 7 -7 22 -4 25 5 26 4 10 -11 -9 -10 -21 -17 -26 -17
-6 0 -12 -6 -15 -14 -4 -10 0 -14 13 -13 11 1 22 7 25 15 3 7 9 11 13 8 5 -3
8 5 7 17 -2 23 -38 37 -49 19z"/>
<path d="M100 295 c0 -3 2 -5 5 -5 3 0 5 2 5 5 0 3 -2 5 -5 5 -3 0 -5 -2 -5
-5z"/>
<path d="M574 288 c-4 -7 -3 -8 4 -4 12 7 16 16 8 16 -3 0 -8 -5 -12 -12z"/>
<path d="M905 290 c3 -5 8 -10 11 -10 3 0 2 5 -1 10 -3 6 -8 10 -11 10 -3 0
-2 -4 1 -10z"/>
<path d="M279 273 c-13 -17 -13 -17 6 -3 11 8 22 16 24 17 2 2 0 3 -6 3 -6 0
-17 -8 -24 -17z"/>
<path d="M360 285 c0 -3 2 -5 5 -5 3 0 5 2 5 5 0 3 -2 5 -5 5 -3 0 -5 -2 -5
-5z"/>
<path d="M623 283 c4 -3 10 -3 14 0 3 4 0 7 -7 7 -7 0 -10 -3 -7 -7z"/>
<path d="M940 285 c0 -3 2 -5 5 -5 3 0 5 2 5 5 0 3 -2 5 -5 5 -3 0 -5 -2 -5
-5z"/>
<path d="M56 264 c-18 -18 -18 -19 -2 -22 22 -5 29 2 24 24 -3 16 -4 16 -22
-2z"/>
<path d="M594 265 c-3 -8 -4 -20 -2 -27 3 -7 7 -1 10 15 6 29 1 36 -8 12z"/>
<path d="M890 275 c0 -3 2 -5 5 -5 3 0 5 2 5 5 0 3 -2 5 -5 5 -3 0 -5 -2 -5
-5z"/>
<path d="M655 261 c-3 -5 -1 -12 5 -16 6 -4 8 -10 6 -13 -2 -4 6 -12 20 -19
18 -8 26 -8 35 3 10 12 14 12 26 -3 13 -16 13 -16 3 5 -9 19 -14 21 -26 11
-11 -9 -19 -8 -39 5 -14 9 -23 21 -20 26 4 6 4 10 1 10 -3 0 -7 -4 -11 -9z"/>
<path d="M910 260 c0 -7 3 -10 7 -7 3 4 3 10 0 14 -4 3 -7 0 -7 -7z"/>
<path d="M240 255 c0 -3 2 -5 5 -5 3 0 5 2 5 5 0 3 -2 5 -5 5 -3 0 -5 -2 -5
-5z"/>
<path d="M375 250 c3 -5 8 -10 11 -10 3 0 2 5 -1 10 -3 6 -8 10 -11 10 -3 0
-2 -4 1 -10z"/>
<path d="M420 255 c0 -3 2 -5 5 -5 3 0 5 2 5 5 0 3 -2 5 -5 5 -3 0 -5 -2 -5
-5z"/>
<path d="M880 255 c0 -3 2 -5 5 -5 3 0 5 2 5 5 0 3 -2 5 -5 5 -3 0 -5 -2 -5
-5z"/>
<path d="M283 233 c4 -3 10 -3 14 0 3 4 0 7 -7 7 -7 0 -10 -3 -7 -7z"/>
<path d="M320 235 c0 -3 2 -5 5 -5 3 0 5 2 5 5 0 3 -2 5 -5 5 -3 0 -5 -2 -5
-5z"/>
<path d="M507 198 c4 -55 13 -62 13 -10 0 22 -4 43 -8 46 -5 3 -7 -14 -5 -36z"/>
<path d="M610 230 c0 -7 3 -10 7 -7 3 4 3 10 0 14 -4 3 -7 0 -7 -7z"/>
<path d="M923 233 c4 -3 10 -3 14 0 3 4 0 7 -7 7 -7 0 -10 -3 -7 -7z"/>
<path d="M210 225 c0 -3 2 -5 5 -5 3 0 5 2 5 5 0 3 -2 5 -5 5 -3 0 -5 -2 -5
-5z"/>
<path d="M353 223 c4 -3 10 -3 14 0 3 4 0 7 -7 7 -7 0 -10 -3 -7 -7z"/>
<path d="M850 225 c0 -3 2 -5 5 -5 3 0 5 2 5 5 0 3 -2 5 -5 5 -3 0 -5 -2 -5
-5z"/>
<path d="M105 210 c-3 -5 -1 -10 4 -10 6 0 11 5 11 10 0 6 -2 10 -4 10 -3 0
-8 -4 -11 -10z"/>
<path d="M190 215 c0 -3 2 -5 5 -5 3 0 5 2 5 5 0 3 -2 5 -5 5 -3 0 -5 -2 -5
-5z"/>
<path d="M268 213 c6 -2 12 -16 12 -29 0 -13 5 -24 10 -24 6 0 10 6 10 14 0
27 -12 46 -29 45 -10 0 -11 -2 -3 -6z"/>
<path d="M830 215 c0 -3 2 -5 5 -5 3 0 5 2 5 5 0 3 -2 5 -5 5 -3 0 -5 -2 -5
-5z"/>
<path d="M908 213 c6 -2 12 -16 12 -29 0 -13 5 -24 10 -24 6 0 10 6 10 14 0
27 -12 46 -29 45 -10 0 -11 -2 -3 -6z"/>
<path d="M68 203 c7 -3 16 -2 19 1 4 3 -2 6 -13 5 -11 0 -14 -3 -6 -6z"/>
<path d="M378 203 c7 -3 16 -2 19 1 4 3 -2 6 -13 5 -11 0 -14 -3 -6 -6z"/>
<path d="M410 205 c0 -3 2 -5 5 -5 3 0 5 2 5 5 0 3 -2 5 -5 5 -3 0 -5 -2 -5
-5z"/>
<path d="M240 190 c0 -5 5 -10 11 -10 5 0 7 5 4 10 -3 6 -8 10 -11 10 -2 0 -4
-4 -4 -10z"/>
<path d="M595 190 c-3 -5 -2 -10 4 -10 5 0 12 -8 14 -17 3 -11 5 -7 6 10 1 27
-12 36 -24 17z"/>
<path d="M885 190 c-3 -5 -1 -10 4 -10 6 0 11 5 11 10 0 6 -2 10 -4 10 -3 0
-8 -4 -11 -10z"/>
<path d="M192 150 c0 -14 2 -19 5 -12 2 6 2 18 0 25 -3 6 -5 1 -5 -13z"/>
<path d="M832 150 c0 -14 2 -19 5 -12 2 6 2 18 0 25 -3 6 -5 1 -5 -13z"/>
<path d="M290 131 c0 -11 -8 -22 -17 -24 -14 -4 -12 -5 5 -6 17 -1 22 4 22 24
0 14 -2 25 -5 25 -3 0 -5 -9 -5 -19z"/>
<path d="M930 131 c0 -11 -8 -22 -17 -24 -14 -4 -12 -5 5 -6 17 -1 22 4 22 24
0 14 -2 25 -5 25 -3 0 -5 -9 -5 -19z"/>
<path d="M216 123 c-6 -14 -5 -15 5 -6 7 7 10 15 7 18 -3 3 -9 -2 -12 -12z"/>
<path d="M260 135 c0 -3 2 -5 5 -5 3 0 5 2 5 5 0 3 -2 5 -5 5 -3 0 -5 -2 -5
-5z"/>
<path d="M510 135 c0 -3 2 -5 5 -5 3 0 5 2 5 5 0 3 -2 5 -5 5 -3 0 -5 -2 -5
-5z"/>
<path d="M543 133 c4 -3 10 -3 14 0 3 4 0 7 -7 7 -7 0 -10 -3 -7 -7z"/>
<path d="M610 126 c0 -8 -8 -17 -17 -19 -14 -4 -12 -5 5 -6 16 -1 22 5 22 19
0 11 -2 20 -5 20 -3 0 -5 -6 -5 -14z"/>
<path d="M856 123 c-6 -14 -5 -15 5 -6 7 7 10 15 7 18 -3 3 -9 -2 -12 -12z"/>
<path d="M900 135 c0 -3 2 -5 5 -5 3 0 5 2 5 5 0 3 -2 5 -5 5 -3 0 -5 -2 -5
-5z"/>
<path d="M573 123 c4 -3 10 -3 14 0 3 4 0 7 -7 7 -7 0 -10 -3 -7 -7z"/>
<path d="M504 108 c-4 -7 -3 -8 4 -4 12 7 16 16 8 16 -3 0 -8 -5 -12 -12z"/>
<path d="M535 110 c3 -5 8 -10 11 -10 3 0 2 5 -1 10 -3 6 -8 10 -11 10 -3 0
-2 -4 1 -10z"/>
</g>
<g transform="translate(0.000000,96.000000) scale(0.100000,-0.100000)"
fill="#b1904a" stroke="none">
<path d="M44 940 c0 -14 4 -16 13 -9 6 6 20 9 30 7 15 -4 13 -7 -9 -18 -15 -7
-25 -17 -22 -21 5 -8 -3 -11 -23 -8 -5 1 -7 6 -5 13 3 8 0 8 -8 -1 -7 -6 -9
-16 -6 -22 9 -14 57 -3 72 16 10 11 13 11 17 1 3 -7 5 2 4 20 0 17 -5 32 -11
33 -6 0 -20 2 -31 4 -15 3 -21 -1 -21 -15z"/>
<path d="M284 948 c-4 -7 -3 -8 4 -4 12 7 16 16 8 16 -3 0 -8 -5 -12 -12z"/>
<path d="M940 955 c0 -3 2 -5 5 -5 3 0 5 2 5 5 0 3 -2 5 -5 5 -3 0 -5 -2 -5
-5z"/>
<path d="M366 939 c4 -7 44 0 44 7 0 2 -11 3 -24 2 -14 -1 -23 -5 -20 -9z"/>
<path d="M590 945 c0 -3 2 -5 5 -5 3 0 5 2 5 5 0 3 -2 5 -5 5 -3 0 -5 -2 -5
-5z"/>
<path d="M733 943 c4 -3 3 -11 -2 -17 -10 -14 -22 -46 -16 -46 5 0 35 56 35
65 0 3 -5 5 -12 5 -6 0 -8 -3 -5 -7z"/>
<path d="M920 945 c0 -3 2 -5 5 -5 3 0 5 2 5 5 0 3 -2 5 -5 5 -3 0 -5 -2 -5
-5z"/>
<path d="M20 935 c0 -3 2 -5 5 -5 3 0 5 2 5 5 0 3 -2 5 -5 5 -3 0 -5 -2 -5 -5z"/>
<path d="M420 935 c0 -3 2 -5 5 -5 3 0 5 2 5 5 0 3 -2 5 -5 5 -3 0 -5 -2 -5
-5z"/>
<path d="M690 935 c0 -3 2 -5 5 -5 3 0 5 2 5 5 0 3 -2 5 -5 5 -3 0 -5 -2 -5
-5z"/>
<path d="M890 919 c-7 -11 -10 -23 -7 -25 2 -2 9 7 15 21 14 30 7 33 -8 4z"/>
<path d="M250 925 c0 -3 2 -5 5 -5 3 0 5 2 5 5 0 3 -2 5 -5 5 -3 0 -5 -2 -5
-5z"/>
<path d="M350 915 c0 -3 2 -5 5 -5 3 0 5 2 5 5 0 3 -2 5 -5 5 -3 0 -5 -2 -5
-5z"/>
<path d="M376 904 c-18 -18 -18 -19 -2 -22 10 -2 20 -1 23 1 2 3 3 13 1 23 -3
16 -4 16 -22 -2z"/>
<path d="M240 900 c0 -7 3 -10 7 -7 3 4 3 10 0 14 -4 3 -7 0 -7 -7z"/>
<path d="M337 881 c6 -25 19 -35 27 -22 3 4 -3 16 -14 26 -18 16 -18 16 -13
-4z"/>
<path d="M560 895 c0 -3 2 -5 5 -5 3 0 5 2 5 5 0 3 -2 5 -5 5 -3 0 -5 -2 -5
-5z"/>
<path d="M690 890 c0 -7 3 -10 7 -7 3 4 3 10 0 14 -4 3 -7 0 -7 -7z"/>
<path d="M740 895 c0 -3 2 -5 5 -5 3 0 5 2 5 5 0 3 -2 5 -5 5 -3 0 -5 -2 -5
-5z"/>
<path d="M670 875 c0 -3 2 -5 5 -5 3 0 5 2 5 5 0 3 -2 5 -5 5 -3 0 -5 -2 -5
-5z"/>
<path d="M200 865 c0 -3 2 -5 5 -5 3 0 5 2 5 5 0 3 -2 5 -5 5 -3 0 -5 -2 -5
-5z"/>
<path d="M220 865 c0 -3 2 -5 5 -5 3 0 5 2 5 5 0 3 -2 5 -5 5 -3 0 -5 -2 -5
-5z"/>
<path d="M530 865 c0 -3 2 -5 5 -5 3 0 5 2 5 5 0 3 -2 5 -5 5 -3 0 -5 -2 -5
-5z"/>
<path d="M831 854 c0 -11 3 -14 6 -6 3 7 2 16 -1 19 -3 4 -6 -2 -5 -13z"/>
<path d="M510 855 c0 -3 2 -5 5 -5 3 0 5 2 5 5 0 3 -2 5 -5 5 -3 0 -5 -2 -5
-5z"/>
<path d="M586 852 c7 -4 14 -18 17 -32 4 -21 4 -20 6 8 1 24 -3 32 -16 32 -12
0 -14 -3 -7 -8z"/>
<path d="M690 855 c0 -3 2 -5 5 -5 3 0 5 2 5 5 0 3 -2 5 -5 5 -3 0 -5 -2 -5
-5z"/>
<path d="M275 830 c-3 -5 -1 -10 4 -10 6 0 11 5 11 10 0 6 -2 10 -4 10 -3 0
-8 -4 -11 -10z"/>
<path d="M560 830 c0 -5 5 -10 11 -10 5 0 7 5 4 10 -3 6 -8 10 -11 10 -2 0 -4
-4 -4 -10z"/>
<path d="M190 825 c0 -3 2 -5 5 -5 3 0 5 2 5 5 0 3 -2 5 -5 5 -3 0 -5 -2 -5
-5z"/>
<path d="M915 805 c2 -37 15 -43 15 -7 0 18 -4 32 -8 32 -4 0 -7 -11 -7 -25z"/>
<path d="M831 804 c0 -11 3 -14 6 -6 3 7 2 16 -1 19 -3 4 -6 -2 -5 -13z"/>
<path d="M512 790 c0 -14 2 -19 5 -12 2 6 2 18 0 25 -3 6 -5 1 -5 -13z"/>
<path d="M191 784 c0 -11 3 -14 6 -6 3 7 2 16 -1 19 -3 4 -6 -2 -5 -13z"/>
<path d="M883 793 c4 -3 10 -3 14 0 3 4 0 7 -7 7 -7 0 -10 -3 -7 -7z"/>
<path d="M266 775 c4 -8 8 -15 10 -15 2 0 4 7 4 15 0 8 -4 15 -10 15 -5 0 -7
-7 -4 -15z"/>
<path d="M536 763 c-6 -14 -5 -15 5 -6 7 7 10 15 7 18 -3 3 -9 -2 -12 -12z"/>
<path d="M580 775 c0 -3 2 -5 5 -5 3 0 5 2 5 5 0 3 -2 5 -5 5 -3 0 -5 -2 -5
-5z"/>
<path d="M830 775 c0 -3 2 -5 5 -5 3 0 5 2 5 5 0 3 -2 5 -5 5 -3 0 -5 -2 -5
-5z"/>
<path d="M863 773 c4 -3 10 -3 14 0 3 4 0 7 -7 7 -7 0 -10 -3 -7 -7z"/>
<path d="M893 763 c4 -3 10 -3 14 0 3 4 0 7 -7 7 -7 0 -10 -3 -7 -7z"/>
<path d="M210 755 c0 -3 2 -5 5 -5 3 0 5 2 5 5 0 3 -2 5 -5 5 -3 0 -5 -2 -5
-5z"/>
<path d="M838 753 c7 -3 16 -2 19 1 4 3 -2 6 -13 5 -11 0 -14 -3 -6 -6z"/>
<path d="M920 755 c0 -3 2 -5 5 -5 3 0 5 2 5 5 0 3 -2 5 -5 5 -3 0 -5 -2 -5
-5z"/>
<path d="M274 624 c-18 -14 -18 -14 6 -3 31 14 36 19 24 19 -6 0 -19 -7 -30
-16z"/>
<path d="M613 633 c4 -3 10 -3 14 0 3 4 0 7 -7 7 -7 0 -10 -3 -7 -7z"/>
<path d="M700 635 c0 -3 2 -5 5 -5 3 0 5 2 5 5 0 3 -2 5 -5 5 -3 0 -5 -2 -5
-5z"/>
<path d="M940 635 c0 -3 2 -5 5 -5 3 0 5 2 5 5 0 3 -2 5 -5 5 -3 0 -5 -2 -5
-5z"/>
<path d="M70 625 c0 -3 2 -5 5 -5 3 0 5 2 5 5 0 3 -2 5 -5 5 -3 0 -5 -2 -5 -5z"/>
<path d="M90 625 c0 -3 2 -5 5 -5 3 0 5 2 5 5 0 3 -2 5 -5 5 -3 0 -5 -2 -5 -5z"/>
<path d="M357 609 c-5 -19 -4 -20 12 -5 20 19 56 22 45 4 -4 -7 -3 -8 4 -4 22
14 12 26 -22 26 -26 0 -35 -5 -39 -21z"/>
<path d="M680 625 c0 -3 2 -5 5 -5 3 0 5 2 5 5 0 3 -2 5 -5 5 -3 0 -5 -2 -5
-5z"/>
<path d="M729 621 c9 -6 10 -11 2 -15 -6 -4 -11 -15 -11 -24 1 -12 5 -10 15 8
19 33 18 40 -2 40 -14 0 -15 -2 -4 -9z"/>
<path d="M920 625 c0 -3 2 -5 5 -5 3 0 5 2 5 5 0 3 -2 5 -5 5 -3 0 -5 -2 -5
-5z"/>
<path d="M894 608 c-4 -7 -3 -8 4 -4 7 4 12 9 12 12 0 8 -9 4 -16 -8z"/>
<path d="M680 605 c0 -3 2 -5 5 -5 3 0 5 2 5 5 0 3 -2 5 -5 5 -3 0 -5 -2 -5
-5z"/>
<path d="M23 592 c-17 -11 -5 -49 18 -55 23 -6 26 8 3 17 -10 4 -14 14 -11 26
3 11 4 20 4 20 -1 0 -7 -4 -14 -8z"/>
<path d="M250 595 c0 -3 2 -5 5 -5 3 0 5 2 5 5 0 3 -2 5 -5 5 -3 0 -5 -2 -5
-5z"/>
<path d="M375 584 c-8 -9 -22 -13 -31 -10 -8 3 -12 2 -9 -4 3 -6 19 -10 36
-10 22 0 29 5 29 20 0 24 -4 25 -25 4z"/>
<path d="M570 595 c0 -3 2 -5 5 -5 3 0 5 2 5 5 0 3 -2 5 -5 5 -3 0 -5 -2 -5
-5z"/>
<path d="M68 583 c7 -3 16 -2 19 1 4 3 -2 6 -13 5 -11 0 -14 -3 -6 -6z"/>
<path d="M420 585 c0 -3 2 -5 5 -5 3 0 5 2 5 5 0 3 -2 5 -5 5 -3 0 -5 -2 -5
-5z"/>
<path d="M240 575 c0 -3 2 -5 5 -5 3 0 5 2 5 5 0 3 -2 5 -5 5 -3 0 -5 -2 -5
-5z"/>
<path d="M695 570 c3 -5 8 -10 11 -10 3 0 2 5 -1 10 -3 6 -8 10 -11 10 -3 0
-2 -4 1 -10z"/>
<path d="M740 575 c0 -3 2 -5 5 -5 3 0 5 2 5 5 0 3 -2 5 -5 5 -3 0 -5 -2 -5
-5z"/>
<path d="M191 528 c1 -19 2 -19 6 -5 3 11 11 16 19 13 7 -3 16 -1 19 4 4 6 -5
10 -19 10 -21 0 -26 -5 -25 -22z"/>
<path d="M266 537 c5 -13 2 -16 -12 -11 -15 5 -16 4 -4 -4 8 -6 17 -9 21 -6 4
2 10 -6 12 -18 4 -21 4 -21 6 -2 0 11 -6 29 -14 40 -13 16 -14 16 -9 1z"/>
<path d="M340 545 c0 -3 2 -5 5 -5 3 0 5 2 5 5 0 3 -2 5 -5 5 -3 0 -5 -2 -5
-5z"/>
<path d="M673 543 c4 -3 10 -3 14 0 3 4 0 7 -7 7 -7 0 -10 -3 -7 -7z"/>
<path d="M833 510 c0 -25 2 -35 4 -22 2 12 2 32 0 45 -2 12 -4 2 -4 -23z"/>
<path d="M589 531 c8 -5 12 -19 9 -35 -3 -14 -1 -23 3 -20 5 3 9 18 9 35 0 21
-5 29 -17 29 -14 0 -15 -2 -4 -9z"/>
<path d="M510 515 c0 -3 2 -5 5 -5 3 0 5 2 5 5 0 3 -2 5 -5 5 -3 0 -5 -2 -5
-5z"/>
<path d="M565 510 c-3 -5 -1 -10 4 -10 6 0 11 5 11 10 0 6 -2 10 -4 10 -3 0
-8 -4 -11 -10z"/>
<path d="M915 510 c-3 -5 -1 -10 4 -10 6 0 11 5 11 10 0 6 -2 10 -4 10 -3 0
-8 -4 -11 -10z"/>
<path d="M512 475 c0 -16 2 -22 5 -12 2 9 2 23 0 30 -3 6 -5 -1 -5 -18z"/>
<path d="M243 483 c4 -3 10 -3 14 0 3 4 0 7 -7 7 -7 0 -10 -3 -7 -7z"/>
<path d="M191 464 c0 -11 3 -14 6 -6 3 7 2 16 -1 19 -3 4 -6 -2 -5 -13z"/>
<path d="M265 461 c-3 -5 -2 -12 3 -15 5 -3 9 1 9 9 0 17 -3 19 -12 6z"/>
<path d="M216 445 c-11 -8 -15 -15 -9 -15 6 0 16 7 23 15 16 19 11 19 -14 0z"/>
<path d="M536 445 c-11 -8 -15 -15 -9 -15 6 0 16 7 23 15 16 19 11 19 -14 0z"/>
<path d="M583 453 c4 -3 10 -3 14 0 3 4 0 7 -7 7 -7 0 -10 -3 -7 -7z"/>
<path d="M830 455 c0 -3 2 -5 5 -5 3 0 5 2 5 5 0 3 -2 5 -5 5 -3 0 -5 -2 -5
-5z"/>
<path d="M863 453 c4 -3 10 -3 14 0 3 4 0 7 -7 7 -7 0 -10 -3 -7 -7z"/>
<path d="M893 443 c4 -3 10 -3 14 0 3 4 0 7 -7 7 -7 0 -10 -3 -7 -7z"/>
<path d="M830 435 c0 -3 2 -5 5 -5 3 0 5 2 5 5 0 3 -2 5 -5 5 -3 0 -5 -2 -5
-5z"/>
<path d="M850 435 c0 -3 2 -5 5 -5 3 0 5 2 5 5 0 3 -2 5 -5 5 -3 0 -5 -2 -5
-5z"/>
<path d="M380 315 c0 -3 2 -5 5 -5 3 0 5 2 5 5 0 3 -2 5 -5 5 -3 0 -5 -2 -5
-5z"/>
<path d="M620 315 c0 -3 2 -5 5 -5 3 0 5 2 5 5 0 3 -2 5 -5 5 -3 0 -5 -2 -5
-5z"/>
<path d="M933 313 c4 -3 10 -3 14 0 3 4 0 7 -7 7 -7 0 -10 -3 -7 -7z"/>
<path d="M40 295 c0 -8 -6 -15 -13 -15 -23 0 -15 -54 8 -59 16 -3 17 -1 7 11
-6 8 -8 19 -4 23 4 5 0 5 -8 0 -8 -4 -5 2 8 14 23 23 29 41 12 41 -5 0 -10 -7
-10 -15z"/>
<path d="M73 303 c4 -3 10 -3 14 0 3 4 0 7 -7 7 -7 0 -10 -3 -7 -7z"/>
<path d="M270 305 c0 -3 2 -5 5 -5 3 0 5 2 5 5 0 3 -2 5 -5 5 -3 0 -5 -2 -5
-5z"/>
<path d="M360 305 c0 -3 2 -5 5 -5 3 0 5 2 5 5 0 3 -2 5 -5 5 -3 0 -5 -2 -5
-5z"/>
<path d="M409 301 c9 -6 10 -11 2 -15 -6 -4 -11 -15 -11 -24 1 -12 5 -10 15 8
19 33 18 40 -2 40 -14 0 -15 -2 -4 -9z"/>
<path d="M600 305 c0 -3 2 -5 5 -5 3 0 5 2 5 5 0 3 -2 5 -5 5 -3 0 -5 -2 -5
-5z"/>
<path d="M696 302 c-3 -5 7 -7 22 -4 25 5 26 4 10 -11 -9 -10 -21 -17 -26 -17
-6 0 -12 -6 -15 -14 -4 -10 0 -14 13 -13 11 1 22 7 25 15 3 7 9 11 13 8 5 -3
8 5 7 17 -2 23 -38 37 -49 19z"/>
<path d="M100 295 c0 -3 2 -5 5 -5 3 0 5 2 5 5 0 3 -2 5 -5 5 -3 0 -5 -2 -5
-5z"/>
<path d="M574 288 c-4 -7 -3 -8 4 -4 12 7 16 16 8 16 -3 0 -8 -5 -12 -12z"/>
<path d="M905 290 c3 -5 8 -10 11 -10 3 0 2 5 -1 10 -3 6 -8 10 -11 10 -3 0
-2 -4 1 -10z"/>
<path d="M360 285 c0 -3 2 -5 5 -5 3 0 5 2 5 5 0 3 -2 5 -5 5 -3 0 -5 -2 -5
-5z"/>
<path d="M56 264 c-18 -18 -18 -19 -2 -22 22 -5 29 2 24 24 -3 16 -4 16 -22
-2z"/>
<path d="M890 275 c0 -3 2 -5 5 -5 3 0 5 2 5 5 0 3 -2 5 -5 5 -3 0 -5 -2 -5
-5z"/>
<path d="M655 261 c-3 -5 -1 -12 5 -16 6 -4 8 -10 5 -15 -8 -13 46 -22 61 -9
11 9 14 8 14 -1 0 -8 3 -11 6 -7 3 3 3 11 -1 17 -5 8 -11 8 -21 -1 -11 -9 -20
-8 -39 5 -14 9 -23 21 -20 26 4 6 4 10 1 10 -3 0 -7 -4 -11 -9z"/>
<path d="M240 255 c0 -3 2 -5 5 -5 3 0 5 2 5 5 0 3 -2 5 -5 5 -3 0 -5 -2 -5
-5z"/>
<path d="M375 250 c3 -5 8 -10 11 -10 3 0 2 5 -1 10 -3 6 -8 10 -11 10 -3 0
-2 -4 1 -10z"/>
<path d="M420 255 c0 -3 2 -5 5 -5 3 0 5 2 5 5 0 3 -2 5 -5 5 -3 0 -5 -2 -5
-5z"/>
<path d="M880 255 c0 -3 2 -5 5 -5 3 0 5 2 5 5 0 3 -2 5 -5 5 -3 0 -5 -2 -5
-5z"/>
<path d="M210 225 c0 -3 2 -5 5 -5 3 0 5 2 5 5 0 3 -2 5 -5 5 -3 0 -5 -2 -5
-5z"/>
<path d="M353 223 c4 -3 10 -3 14 0 3 4 0 7 -7 7 -7 0 -10 -3 -7 -7z"/>
<path d="M513 190 c0 -25 2 -35 4 -22 2 12 2 32 0 45 -2 12 -4 2 -4 -23z"/>
<path d="M850 225 c0 -3 2 -5 5 -5 3 0 5 2 5 5 0 3 -2 5 -5 5 -3 0 -5 -2 -5
-5z"/>
<path d="M190 215 c0 -3 2 -5 5 -5 3 0 5 2 5 5 0 3 -2 5 -5 5 -3 0 -5 -2 -5
-5z"/>
<path d="M266 212 c7 -4 14 -18 17 -32 4 -21 4 -20 6 8 1 24 -3 32 -16 32 -12
0 -14 -3 -7 -8z"/>
<path d="M830 215 c0 -3 2 -5 5 -5 3 0 5 2 5 5 0 3 -2 5 -5 5 -3 0 -5 -2 -5
-5z"/>
<path d="M906 212 c7 -4 14 -18 17 -32 4 -21 4 -20 6 8 1 24 -3 32 -16 32 -12
0 -14 -3 -7 -8z"/>
<path d="M240 190 c0 -5 5 -10 11 -10 5 0 7 5 4 10 -3 6 -8 10 -11 10 -2 0 -4
-4 -4 -10z"/>
<path d="M595 190 c-3 -5 -1 -10 4 -10 6 0 11 5 11 10 0 6 -2 10 -4 10 -3 0
-8 -4 -11 -10z"/>
<path d="M885 190 c-3 -5 -1 -10 4 -10 6 0 11 5 11 10 0 6 -2 10 -4 10 -3 0
-8 -4 -11 -10z"/>
<path d="M192 150 c0 -14 2 -19 5 -12 2 6 2 18 0 25 -3 6 -5 1 -5 -13z"/>
<path d="M832 150 c0 -14 2 -19 5 -12 2 6 2 18 0 25 -3 6 -5 1 -5 -13z"/>
<path d="M216 123 c-6 -14 -5 -15 5 -6 7 7 10 15 7 18 -3 3 -9 -2 -12 -12z"/>
<path d="M260 135 c0 -3 2 -5 5 -5 3 0 5 2 5 5 0 3 -2 5 -5 5 -3 0 -5 -2 -5
-5z"/>
<path d="M510 135 c0 -3 2 -5 5 -5 3 0 5 2 5 5 0 3 -2 5 -5 5 -3 0 -5 -2 -5
-5z"/>
<path d="M543 133 c4 -3 10 -3 14 0 3 4 0 7 -7 7 -7 0 -10 -3 -7 -7z"/>
<path d="M856 123 c-6 -14 -5 -15 5 -6 7 7 10 15 7 18 -3 3 -9 -2 -12 -12z"/>
<path d="M900 135 c0 -3 2 -5 5 -5 3 0 5 2 5 5 0 3 -2 5 -5 5 -3 0 -5 -2 -5
-5z"/>
<path d="M573 123 c4 -3 10 -3 14 0 3 4 0 7 -7 7 -7 0 -10 -3 -7 -7z"/>
<path d="M510 115 c0 -3 2 -5 5 -5 3 0 5 2 5 5 0 3 -2 5 -5 5 -3 0 -5 -2 -5
-5z"/>
<path d="M530 115 c0 -3 2 -5 5 -5 3 0 5 2 5 5 0 3 -2 5 -5 5 -3 0 -5 -2 -5
-5z"/>
</g>
<g transform="translate(0.000000,96.000000) scale(0.100000,-0.100000)"
fill="#aa823b" stroke="none">
<path d="M44 941 c0 -11 4 -17 8 -15 10 7 10 34 0 34 -4 0 -8 -9 -8 -19z"/>
<path d="M70 955 c0 -3 2 -5 5 -5 3 0 5 2 5 5 0 3 -2 5 -5 5 -3 0 -5 -2 -5 -5z"/>
<path d="M100 940 c0 -7 3 -10 7 -7 3 4 3 10 0 14 -4 3 -7 0 -7 -7z"/>
<path d="M360 945 c0 -3 2 -5 5 -5 3 0 5 2 5 5 0 3 -2 5 -5 5 -3 0 -5 -2 -5
-5z"/>
<path d="M400 945 c0 -3 2 -5 5 -5 3 0 5 2 5 5 0 3 -2 5 -5 5 -3 0 -5 -2 -5
-5z"/>
<path d="M735 941 c3 -5 1 -12 -5 -16 -5 -3 -10 -12 -10 -18 0 -7 7 -3 15 7
18 23 19 36 4 36 -5 0 -8 -4 -4 -9z"/>
<path d="M20 935 c0 -3 2 -5 5 -5 3 0 5 2 5 5 0 3 -2 5 -5 5 -3 0 -5 -2 -5 -5z"/>
<path d="M420 935 c0 -3 2 -5 5 -5 3 0 5 2 5 5 0 3 -2 5 -5 5 -3 0 -5 -2 -5
-5z"/>
<path d="M690 935 c0 -3 2 -5 5 -5 3 0 5 2 5 5 0 3 -2 5 -5 5 -3 0 -5 -2 -5
-5z"/>
<path d="M72 900 c-7 -11 -8 -20 -3 -20 5 0 12 8 15 17 6 15 8 15 16 3 8 -13
10 -12 10 3 0 23 -22 22 -38 -3z"/>
<path d="M350 915 c0 -3 2 -5 5 -5 3 0 5 2 5 5 0 3 -2 5 -5 5 -3 0 -5 -2 -5
-5z"/>
<path d="M15 900 c-8 -12 2 -30 17 -30 7 0 7 4 -1 13 -6 8 -8 17 -4 20 3 4 4
7 0 7 -3 0 -9 -4 -12 -10z"/>
<path d="M385 890 c-3 -5 -1 -10 4 -10 6 0 11 5 11 10 0 6 -2 10 -4 10 -3 0
-8 -4 -11 -10z"/>
<path d="M740 895 c0 -3 2 -5 5 -5 3 0 5 2 5 5 0 3 -2 5 -5 5 -3 0 -5 -2 -5
-5z"/>
<path d="M710 885 c0 -3 2 -5 5 -5 3 0 5 2 5 5 0 3 -2 5 -5 5 -3 0 -5 -2 -5
-5z"/>
<path d="M342 871 c2 -7 7 -12 11 -12 12 1 9 15 -3 20 -7 2 -11 -2 -8 -8z"/>
<path d="M670 875 c0 -3 2 -5 5 -5 3 0 5 2 5 5 0 3 -2 5 -5 5 -3 0 -5 -2 -5
-5z"/>
<path d="M830 860 c0 -7 3 -10 7 -7 3 4 3 10 0 14 -4 3 -7 0 -7 -7z"/>
<path d="M602 830 c0 -19 2 -27 5 -17 2 9 2 25 0 35 -3 9 -5 1 -5 -18z"/>
<path d="M690 855 c0 -3 2 -5 5 -5 3 0 5 2 5 5 0 3 -2 5 -5 5 -3 0 -5 -2 -5
-5z"/>
<path d="M280 830 c0 -7 3 -10 7 -7 3 4 3 10 0 14 -4 3 -7 0 -7 -7z"/>
<path d="M560 830 c0 -5 5 -10 11 -10 5 0 7 5 4 10 -3 6 -8 10 -11 10 -2 0 -4
-4 -4 -10z"/>
<path d="M922 800 c0 -19 2 -27 5 -17 2 9 2 25 0 35 -3 9 -5 1 -5 -18z"/>
<path d="M880 795 c0 -3 2 -5 5 -5 3 0 5 2 5 5 0 3 -2 5 -5 5 -3 0 -5 -2 -5
-5z"/>
<path d="M190 780 c0 -7 3 -10 7 -7 3 4 3 10 0 14 -4 3 -7 0 -7 -7z"/>
<path d="M890 765 c0 -3 2 -5 5 -5 3 0 5 2 5 5 0 3 -2 5 -5 5 -3 0 -5 -2 -5
-5z"/>
<path d="M840 755 c0 -3 2 -5 5 -5 3 0 5 2 5 5 0 3 -2 5 -5 5 -3 0 -5 -2 -5
-5z"/>
<path d="M920 755 c0 -3 2 -5 5 -5 3 0 5 2 5 5 0 3 -2 5 -5 5 -3 0 -5 -2 -5
-5z"/>
<path d="M700 635 c0 -3 2 -5 5 -5 3 0 5 2 5 5 0 3 -2 5 -5 5 -3 0 -5 -2 -5
-5z"/>
<path d="M90 625 c0 -3 2 -5 5 -5 3 0 5 2 5 5 0 3 -2 5 -5 5 -3 0 -5 -2 -5 -5z"/>
<path d="M357 609 c-5 -20 -5 -20 14 -3 23 20 23 24 5 24 -7 0 -16 -9 -19 -21z"/>
<path d="M408 623 c6 -2 9 -10 6 -15 -4 -7 -2 -8 4 -4 18 11 14 26 -5 25 -11
0 -13 -3 -5 -6z"/>
<path d="M680 625 c0 -3 2 -5 5 -5 3 0 5 2 5 5 0 3 -2 5 -5 5 -3 0 -5 -2 -5
-5z"/>
<path d="M731 609 c-7 -12 -10 -23 -8 -26 3 -3 11 5 17 17 6 12 10 23 8 25 -2
2 -10 -5 -17 -16z"/>
<path d="M680 605 c0 -3 2 -5 5 -5 3 0 5 2 5 5 0 3 -2 5 -5 5 -3 0 -5 -2 -5
-5z"/>
<path d="M23 592 c-17 -11 -5 -49 18 -55 23 -6 26 8 3 17 -10 4 -14 14 -11 26
3 11 4 20 4 20 -1 0 -7 -4 -14 -8z"/>
<path d="M70 585 c0 -3 2 -5 5 -5 3 0 5 2 5 5 0 3 -2 5 -5 5 -3 0 -5 -2 -5 -5z"/>
<path d="M420 585 c0 -3 2 -5 5 -5 3 0 5 2 5 5 0 3 -2 5 -5 5 -3 0 -5 -2 -5
-5z"/>
<path d="M330 575 c0 -3 2 -5 5 -5 3 0 5 2 5 5 0 3 -2 5 -5 5 -3 0 -5 -2 -5
-5z"/>
<path d="M385 570 c-3 -5 -1 -10 4 -10 6 0 11 5 11 10 0 6 -2 10 -4 10 -3 0
-8 -4 -11 -10z"/>
<path d="M740 575 c0 -3 2 -5 5 -5 3 0 5 2 5 5 0 3 -2 5 -5 5 -3 0 -5 -2 -5
-5z"/>
<path d="M700 565 c0 -3 2 -5 5 -5 3 0 5 2 5 5 0 3 -2 5 -5 5 -3 0 -5 -2 -5
-5z"/>
<path d="M203 543 c4 -3 10 -3 14 0 3 4 0 7 -7 7 -7 0 -10 -3 -7 -7z"/>
<path d="M260 545 c0 -3 2 -5 5 -5 3 0 5 2 5 5 0 3 -2 5 -5 5 -3 0 -5 -2 -5
-5z"/>
<path d="M340 545 c0 -3 2 -5 5 -5 3 0 5 2 5 5 0 3 -2 5 -5 5 -3 0 -5 -2 -5
-5z"/>
<path d="M673 543 c4 -3 10 -3 14 0 3 4 0 7 -7 7 -7 0 -10 -3 -7 -7z"/>
<path d="M830 540 c0 -7 3 -10 7 -7 3 4 3 10 0 14 -4 3 -7 0 -7 -7z"/>
<path d="M602 510 c0 -19 2 -27 5 -17 2 9 2 25 0 35 -3 9 -5 1 -5 -18z"/>
<path d="M243 523 c4 -3 10 -3 14 0 3 4 0 7 -7 7 -7 0 -10 -3 -7 -7z"/>
<path d="M282 500 c0 -14 2 -19 5 -12 2 6 2 18 0 25 -3 6 -5 1 -5 -13z"/>
<path d="M565 510 c-3 -5 -1 -10 4 -10 6 0 11 5 11 10 0 6 -2 10 -4 10 -3 0
-8 -4 -11 -10z"/>
<path d="M830 510 c0 -7 3 -10 7 -7 3 4 3 10 0 14 -4 3 -7 0 -7 -7z"/>
<path d="M920 515 c0 -3 2 -5 5 -5 3 0 5 2 5 5 0 3 -2 5 -5 5 -3 0 -5 -2 -5
-5z"/>
<path d="M243 483 c4 -3 10 -3 14 0 3 4 0 7 -7 7 -7 0 -10 -3 -7 -7z"/>
<path d="M893 443 c4 -3 10 -3 14 0 3 4 0 7 -7 7 -7 0 -10 -3 -7 -7z"/>
<path d="M380 315 c0 -3 2 -5 5 -5 3 0 5 2 5 5 0 3 -2 5 -5 5 -3 0 -5 -2 -5
-5z"/>
<path d="M40 295 c0 -8 -7 -15 -16 -15 -8 0 -12 -5 -9 -11 5 -7 14 -4 26 7 21
19 25 34 9 34 -5 0 -10 -7 -10 -15z"/>
<path d="M73 303 c4 -3 10 -3 14 0 3 4 0 7 -7 7 -7 0 -10 -3 -7 -7z"/>
<path d="M360 305 c0 -3 2 -5 5 -5 3 0 5 2 5 5 0 3 -2 5 -5 5 -3 0 -5 -2 -5
-5z"/>
<path d="M411 289 c-7 -12 -10 -23 -8 -26 3 -3 11 5 17 17 15 28 8 35 -9 9z"/>
<path d="M730 303 c8 -3 8 -9 0 -18 -8 -9 -7 -14 3 -18 9 -3 13 2 12 16 -1 11
-7 22 -14 23 -7 2 -7 0 -1 -3z"/>
<path d="M100 295 c0 -3 2 -5 5 -5 3 0 5 2 5 5 0 3 -2 5 -5 5 -3 0 -5 -2 -5
-5z"/>
<path d="M360 285 c0 -3 2 -5 5 -5 3 0 5 2 5 5 0 3 -2 5 -5 5 -3 0 -5 -2 -5
-5z"/>
<path d="M910 285 c0 -3 2 -5 5 -5 3 0 5 2 5 5 0 3 -2 5 -5 5 -3 0 -5 -2 -5
-5z"/>
<path d="M660 265 c0 -3 2 -5 5 -5 3 0 5 2 5 5 0 3 -2 5 -5 5 -3 0 -5 -2 -5
-5z"/>
<path d="M420 255 c0 -3 2 -5 5 -5 3 0 5 2 5 5 0 3 -2 5 -5 5 -3 0 -5 -2 -5
-5z"/>
<path d="M15 240 c-3 -5 1 -13 10 -16 22 -9 29 1 11 15 -10 8 -16 9 -21 1z"/>
<path d="M63 243 c4 -3 10 -3 14 0 3 4 0 7 -7 7 -7 0 -10 -3 -7 -7z"/>
<path d="M380 245 c0 -3 2 -5 5 -5 3 0 5 2 5 5 0 3 -2 5 -5 5 -3 0 -5 -2 -5
-5z"/>
<path d="M710 245 c0 -3 2 -5 5 -5 3 0 5 2 5 5 0 3 -2 5 -5 5 -3 0 -5 -2 -5
-5z"/>
<path d="M666 231 c-9 -14 44 -23 60 -10 11 9 14 8 14 -1 0 -8 3 -11 6 -7 3 3
3 11 -1 17 -5 8 -10 8 -20 0 -10 -8 -19 -8 -34 -1 -11 6 -22 7 -25 2z"/>
<path d="M353 223 c4 -3 10 -3 14 0 3 4 0 7 -7 7 -7 0 -10 -3 -7 -7z"/>
<path d="M510 220 c0 -7 3 -10 7 -7 3 4 3 10 0 14 -4 3 -7 0 -7 -7z"/>
<path d="M282 190 c0 -19 2 -27 5 -17 2 9 2 25 0 35 -3 9 -5 1 -5 -18z"/>
<path d="M922 190 c0 -19 2 -27 5 -17 2 9 2 25 0 35 -3 9 -5 1 -5 -18z"/>
<path d="M240 190 c0 -5 5 -10 11 -10 5 0 7 5 4 10 -3 6 -8 10 -11 10 -2 0 -4
-4 -4 -10z"/>
<path d="M510 190 c0 -7 3 -10 7 -7 3 4 3 10 0 14 -4 3 -7 0 -7 -7z"/>
<path d="M600 195 c0 -3 2 -5 5 -5 3 0 5 2 5 5 0 3 -2 5 -5 5 -3 0 -5 -2 -5
-5z"/>
<path d="M885 190 c-3 -5 -1 -10 4 -10 6 0 11 5 11 10 0 6 -2 10 -4 10 -3 0
-8 -4 -11 -10z"/>
<path d="M573 123 c4 -3 10 -3 14 0 3 4 0 7 -7 7 -7 0 -10 -3 -7 -7z"/>
</g>
  </g>
</svg>
