<?xml version="1.0" encoding="UTF-8" standalone="no"?>
<!-- Created with Inkscape (http://www.inkscape.org/) -->

<svg
   xmlns:dc="http://purl.org/dc/elements/1.1/"
   xmlns:cc="http://creativecommons.org/ns#"
   xmlns:rdf="http://www.w3.org/1999/02/22-rdf-syntax-ns#"
   xmlns:svg="http://www.w3.org/2000/svg"
   xmlns="http://www.w3.org/2000/svg"
   xmlns:sodipodi="http://sodipodi.sourceforge.net/DTD/sodipodi-0.dtd"
   xmlns:inkscape="http://www.inkscape.org/namespaces/inkscape"
   width="32px"
   height="32px"
   viewBox="0 0 32px 32px"
   version="1.1"
   id="svgMain"
   inkscape:version="0.92.2 (5c3e80d, 2017-08-06)"
   sodipodi:docname="reference_SVG.svg">
  <defs
     id="defs4542" />
  <sodipodi:namedview
     id="base"
     pagecolor="#ffffff"
     bordercolor="#666666"
     borderopacity="1.0"
     inkscape:pageopacity="0.0"
     inkscape:pageshadow="2"
     inkscape:zoom="1"
     inkscape:cx="0"
     inkscape:cy="0"
     inkscape:document-units="px"
     inkscape:current-layer="layer1"
     showgrid="false"
     units="px"
     inkscape:window-width="1024"
     inkscape:window-height="768"
     inkscape:window-x="-8"
     inkscape:window-y="-8"
     inkscape:window-maximized="1" />
  <metadata
     id="metadata1">
    <rdf:RDF>
      <cc:Work
         rdf:about="">
        <dc:format>image/svg+xml</dc:format>
        <dc:type
           rdf:resource="http://purl.org/dc/dcmitype/StillImage" />
        <dc:title />
      </cc:Work>
    </rdf:RDF>
  </metadata>
  <g transform="translate(-32,-32)"
     inkscape:label="Layer 1"
     inkscape:groupmode="layer"
     id="layer1">
    <!-- INSERT MARKER -->
<g transform="translate(0.000000,96.000000) scale(0.100000,-0.100000)"
fill="#7ab829" stroke="none">
<path d="M0 480 l0 -480 480 0 480 0 0 480 0 480 -480 0 -480 0 0 -480z"/>
</g>
<g transform="translate(0.000000,96.000000) scale(0.100000,-0.100000)"
fill="#82be2c" stroke="none">
<path d="M13 949 c20 -12 23 -29 5 -29 -8 0 -14 -15 -15 -34 -1 -26 3 -35 17
-39 14 -4 18 0 15 15 -3 14 1 18 13 16 9 -2 17 -8 17 -15 0 -21 11 -22 23 -3
7 11 9 20 5 19 -20 -3 -24 2 -13 16 15 17 7 19 -21 5 -16 -9 -19 -7 -19 13 0
24 -17 47 -34 47 -6 0 -3 -5 7 -11z m15 -64 c-1 -14 -6 -25 -11 -25 -5 0 -6 7
-3 16 3 9 6 20 6 25 0 5 2 9 5 9 3 0 4 -11 3 -25z"/>
<path d="M50 950 c0 -5 9 -8 20 -7 21 1 18 10 -5 13 -8 1 -15 -2 -15 -6z"/>
<path d="M283 941 c0 -11 5 -17 9 -15 4 3 8 0 8 -7 0 -7 3 -10 6 -6 8 8 -5 47
-16 47 -5 0 -8 -9 -7 -19z"/>
<path d="M330 950 c35 -24 52 -32 46 -21 -7 10 6 16 27 12 5 -1 6 3 2 9 -9 14
-32 13 -38 -2 -4 -10 -7 -10 -18 0 -7 6 -18 12 -23 12 -6 0 -4 -5 4 -10z"/>
<path d="M455 941 c-7 -23 -21 -27 -28 -8 -2 6 -4 0 -3 -15 0 -14 4 -24 9 -21
4 2 7 -9 7 -26 0 -24 -3 -29 -17 -24 -11 4 -14 3 -9 -5 4 -7 2 -12 -3 -12 -6
0 -11 -5 -11 -11 0 -5 4 -8 9 -5 5 3 9 -14 9 -39 1 -24 -4 -47 -10 -51 -8 -5
-9 -1 -4 11 5 15 4 16 -9 5 -9 -7 -15 -9 -14 -4 4 21 -2 26 -18 13 -15 -11
-16 -11 -6 0 9 11 8 17 -3 29 -8 8 -13 20 -10 28 7 17 -31 94 -47 94 -8 0 -9
-3 -1 -8 6 -4 18 -21 26 -39 13 -25 13 -30 2 -26 -8 3 -14 10 -14 16 0 6 -2 8
-5 6 -7 -7 22 -84 32 -84 4 0 7 -5 5 -11 -5 -22 62 -52 74 -33 3 5 10 6 16 3
7 -5 9 0 6 12 -4 14 0 20 13 20 13 0 19 -8 20 -26 0 -15 3 -19 6 -10 14 33 28
38 53 17 14 -11 18 -18 9 -14 -9 3 -22 0 -29 -6 -10 -9 -11 -9 -6 1 4 6 4 12
-1 12 -4 0 -13 -12 -20 -26 -7 -15 -10 -24 -6 -20 3 3 15 -1 25 -11 10 -9 18
-11 18 -5 0 6 -8 16 -17 21 -16 9 -16 10 5 11 12 0 22 -4 22 -10 0 -5 5 -10
11 -10 6 0 9 7 6 15 -4 8 -1 17 5 21 7 4 -1 17 -20 34 -17 15 -30 29 -29 31 1
2 -3 -1 -8 -7 -6 -6 -21 -11 -35 -10 -20 1 -25 7 -27 30 -2 26 19 72 40 87 5
4 18 4 28 2 13 -4 19 0 19 12 0 15 -2 16 -17 4 -11 -10 -14 -10 -9 -1 9 15 -6
16 -22 0 -16 -16 -25 -4 -17 23 6 16 9 18 16 8 4 -7 10 -11 13 -9 2 3 -2 13
-9 23 -13 18 -14 17 -20 -2z"/>
<path d="M520 950 c0 -7 3 -10 7 -7 3 4 3 10 0 14 -4 3 -7 0 -7 -7z"/>
<path d="M560 955 c0 -3 2 -5 5 -5 3 0 5 2 5 5 0 3 -2 5 -5 5 -3 0 -5 -2 -5
-5z"/>
<path d="M610 947 c0 -10 -4 -16 -8 -13 -5 3 -9 -1 -9 -9 0 -11 4 -12 13 -4 8
7 14 6 17 -3 4 -9 6 -9 6 2 0 8 -4 22 -9 30 -8 13 -10 12 -10 -3z"/>
<path d="M659 948 c14 -19 6 -42 -11 -32 -7 4 -8 2 -4 -5 4 -6 12 -9 17 -6 5
4 9 -1 9 -10 0 -10 -5 -13 -12 -9 -7 4 -10 4 -6 -1 4 -4 -4 -16 -18 -27 -19
-15 -28 -17 -38 -8 -10 7 -16 8 -21 0 -3 -5 0 -10 9 -10 8 0 16 -5 18 -11 3
-8 10 -5 21 6 10 9 26 15 37 12 14 -4 18 0 15 14 -2 11 0 19 5 19 14 0 1 53
-18 70 -14 14 -15 13 -3 -2z"/>
<path d="M690 950 c0 -7 3 -10 7 -7 3 4 3 10 0 14 -4 3 -7 0 -7 -7z"/>
<path d="M715 950 c3 -5 8 -10 11 -10 3 0 2 5 -1 10 -3 6 -8 10 -11 10 -3 0
-2 -4 1 -10z"/>
<path d="M773 953 c4 -3 10 -3 14 0 3 4 0 7 -7 7 -7 0 -10 -3 -7 -7z"/>
<path d="M860 955 c0 -3 2 -5 5 -5 3 0 5 2 5 5 0 3 -2 5 -5 5 -3 0 -5 -2 -5
-5z"/>
<path d="M880 955 c0 -3 2 -5 5 -5 3 0 5 2 5 5 0 3 -2 5 -5 5 -3 0 -5 -2 -5
-5z"/>
<path d="M923 936 c0 -8 4 -13 8 -10 4 2 10 -2 13 -8 3 -7 5 -4 3 6 -2 23 -24
33 -24 12z"/>
<path d="M115 917 c-15 -22 -10 -42 7 -31 7 5 9 1 5 -9 -4 -11 -1 -17 8 -17 8
0 12 6 9 14 -4 10 4 12 33 10 35 -2 36 -1 18 12 -11 8 -20 20 -20 26 0 20 -45
16 -60 -5z m45 -6 c0 -5 -7 -11 -15 -15 -9 -3 -15 0 -15 9 0 8 7 15 15 15 8 0
15 -4 15 -9z m-40 -16 c0 -3 -2 -5 -5 -5 -3 0 -5 2 -5 5 0 3 2 5 5 5 3 0 5 -2
5 -5z m60 0 c0 -3 -2 -5 -5 -5 -3 0 -5 2 -5 5 0 3 2 5 5 5 3 0 5 -2 5 -5z"/>
<path d="M550 935 c0 -3 2 -5 5 -5 3 0 5 2 5 5 0 3 -2 5 -5 5 -3 0 -5 -2 -5
-5z"/>
<path d="M743 917 c1 -14 5 -23 10 -20 6 4 11 -12 8 -29 -2 -14 12 -8 30 14
23 26 23 32 3 49 -13 10 -17 10 -25 -2 -8 -12 -10 -12 -18 0 -7 10 -9 7 -8
-12z m57 -6 c0 -5 -6 -14 -14 -20 -10 -9 -15 -8 -19 3 -3 8 -3 17 0 20 9 9 33
7 33 -3z"/>
<path d="M50 920 c0 -7 3 -10 7 -7 3 4 3 10 0 14 -4 3 -7 0 -7 -7z"/>
<path d="M70 925 c0 -3 2 -5 5 -5 3 0 5 2 5 5 0 3 -2 5 -5 5 -3 0 -5 -2 -5 -5z"/>
<path d="M190 925 c0 -3 2 -5 5 -5 3 0 5 2 5 5 0 3 -2 5 -5 5 -3 0 -5 -2 -5
-5z"/>
<path d="M690 925 c0 -3 2 -5 5 -5 3 0 5 2 5 5 0 3 -2 5 -5 5 -3 0 -5 -2 -5
-5z"/>
<path d="M830 925 c0 -3 2 -5 5 -5 3 0 5 2 5 5 0 3 -2 5 -5 5 -3 0 -5 -2 -5
-5z"/>
<path d="M220 909 c-13 -9 -12 -10 3 -5 9 3 17 1 17 -4 0 -6 -6 -10 -12 -11
-7 0 -3 -5 10 -11 30 -15 40 -2 16 22 -14 15 -23 17 -34 9z"/>
<path d="M334 905 c11 -8 15 -15 9 -15 -15 0 -5 -36 15 -52 13 -11 14 -11 7 2
-13 20 -15 40 -5 40 20 0 1 35 -21 38 -23 3 -23 2 -5 -13z"/>
<path d="M540 909 c0 -5 5 -7 10 -4 6 3 10 -3 10 -14 0 -21 11 -27 23 -14 8 7
-21 43 -35 43 -4 0 -8 -5 -8 -11z"/>
<path d="M885 910 c-3 -5 -4 -14 0 -19 3 -5 1 -12 -5 -16 -6 -3 -10 4 -10 17
0 16 -3 19 -8 10 -5 -7 -16 -10 -25 -6 -10 3 -17 1 -17 -6 0 -6 4 -9 9 -5 5 3
16 -2 25 -10 20 -20 64 -2 47 19 -6 7 -8 16 -4 19 3 4 4 7 0 7 -3 0 -9 -4 -12
-10z"/>
<path d="M382 903 c-10 -4 -10 -8 -1 -20 10 -11 10 -16 0 -22 -10 -6 -9 -10 4
-14 9 -4 14 -3 11 2 -3 5 1 12 10 15 12 5 14 10 5 20 -6 7 -8 16 -4 19 7 8 -6
8 -25 0z m28 -28 c0 -3 -2 -5 -5 -5 -3 0 -5 2 -5 5 0 3 2 5 5 5 3 0 5 -2 5 -5z"/>
<path d="M697 904 c-3 -4 -3 -14 2 -23 5 -9 7 -24 6 -34 -2 -9 1 -14 7 -11 5
3 7 8 4 12 -3 3 2 11 12 19 9 8 12 12 5 9 -17 -9 -28 15 -12 25 11 7 11 9 -2
9 -9 0 -19 -3 -22 -6z"/>
<path d="M608 893 c6 -2 18 -2 25 0 6 3 1 5 -13 5 -14 0 -19 -2 -12 -5z"/>
<path d="M943 893 c4 -3 10 -3 14 0 3 4 0 7 -7 7 -7 0 -10 -3 -7 -7z"/>
<path d="M530 881 c0 -6 5 -13 10 -16 6 -3 10 1 10 9 0 9 -4 16 -10 16 -5 0
-10 -4 -10 -9z"/>
<path d="M220 865 c0 -3 2 -5 5 -5 3 0 5 2 5 5 0 3 -2 5 -5 5 -3 0 -5 -2 -5
-5z"/>
<path d="M510 865 c0 -3 2 -5 5 -5 3 0 5 2 5 5 0 3 -2 5 -5 5 -3 0 -5 -2 -5
-5z"/>
<path d="M610 865 c0 -3 2 -5 5 -5 3 0 5 2 5 5 0 3 -2 5 -5 5 -3 0 -5 -2 -5
-5z"/>
<path d="M830 865 c0 -3 2 -5 5 -5 3 0 5 2 5 5 0 3 -2 5 -5 5 -3 0 -5 -2 -5
-5z"/>
<path d="M260 849 c0 -5 5 -7 10 -4 6 3 10 8 10 11 0 2 -4 4 -10 4 -5 0 -10
-5 -10 -11z"/>
<path d="M470 855 c0 -3 2 -5 5 -5 3 0 5 2 5 5 0 3 -2 5 -5 5 -3 0 -5 -2 -5
-5z"/>
<path d="M900 850 c0 -7 3 -10 7 -7 3 4 3 10 0 14 -4 3 -7 0 -7 -7z"/>
<path d="M96 838 c3 -4 0 -8 -6 -8 -7 0 -10 -7 -6 -15 5 -14 -6 -20 -27 -16
-5 1 -7 -4 -4 -11 2 -7 10 -12 16 -10 7 1 10 -2 6 -8 -3 -5 -1 -10 4 -10 6 0
11 9 11 20 0 11 4 20 10 20 10 0 3 -27 -13 -48 -8 -10 -14 -9 -29 5 -14 13
-21 14 -30 5 -9 -9 -7 -12 9 -12 12 0 24 -4 28 -9 3 -6 -6 -8 -20 -5 -14 2
-25 0 -25 -5 0 -12 70 -19 77 -8 4 6 1 7 -7 2 -8 -5 -11 -3 -8 6 7 21 68 23
68 3 0 -13 3 -14 15 -4 8 7 13 16 10 20 -3 5 -1 11 5 15 5 3 10 1 10 -6 0 -7
2 -10 5 -7 3 3 2 13 -1 22 -5 14 -9 15 -15 4 -10 -15 -58 -19 -60 -3 -1 5 -1
16 0 23 1 6 -6 12 -16 12 -16 0 -16 1 0 17 14 14 19 15 29 4 10 -11 10 -12 1
-7 -8 5 -11 2 -7 -7 7 -19 32 -17 29 2 -2 9 -4 19 -4 22 -1 3 -14 5 -30 5 -17
0 -28 -3 -25 -8z"/>
<path d="M520 838 c24 -10 24 -10 5 -18 -11 -4 -24 -5 -29 -2 -5 3 -6 1 -3 -5
6 -10 67 -6 67 5 0 9 -35 31 -50 31 -8 0 -4 -5 10 -11z"/>
<path d="M735 843 c3 -3 -1 -13 -8 -21 -8 -10 -8 -13 -1 -9 7 4 15 0 18 -9 5
-12 2 -15 -10 -10 -9 3 -29 -2 -45 -11 -32 -19 -38 -33 -14 -33 8 0 15 7 15
15 0 8 7 15 16 15 8 0 12 -4 9 -10 -3 -5 -1 -10 5 -10 6 0 8 -5 5 -10 -4 -6
-10 -8 -15 -5 -5 3 -11 1 -15 -4 -3 -6 -13 -7 -22 -4 -11 4 -14 3 -9 -5 10
-17 41 -15 56 3 7 8 16 12 21 9 5 -3 17 0 26 6 17 11 17 11 1 6 -19 -6 -25 9
-8 19 7 4 6 14 -2 28 -7 12 -12 25 -13 29 0 3 -3 9 -7 12 -5 3 -6 3 -3 -1z
m15 -68 c-7 -9 -15 -13 -19 -10 -3 3 1 10 9 15 21 14 24 12 10 -5z m-40 -40
c0 -3 -2 -5 -5 -5 -3 0 -5 2 -5 5 0 3 2 5 5 5 3 0 5 -2 5 -5z"/>
<path d="M765 831 c2 -9 4 -20 4 -24 1 -4 7 -2 15 5 16 15 11 35 -8 35 -8 0
-12 -7 -11 -16z m15 -6 c0 -3 -2 -5 -5 -5 -3 0 -5 2 -5 5 0 3 2 5 5 5 3 0 5
-2 5 -5z"/>
<path d="M940 845 c0 -3 2 -5 5 -5 3 0 5 2 5 5 0 3 -2 5 -5 5 -3 0 -5 -2 -5
-5z"/>
<path d="M2 801 c-1 -32 2 -38 12 -29 15 14 15 60 0 65 -7 2 -12 -11 -12 -36z"/>
<path d="M172 825 c3 -16 10 -19 33 -17 36 4 51 17 34 27 -8 6 -10 4 -4 -4 9
-16 -46 -12 -58 4 -5 6 -7 1 -5 -10z"/>
<path d="M210 835 c0 -3 2 -5 5 -5 3 0 5 2 5 5 0 3 -2 5 -5 5 -3 0 -5 -2 -5
-5z"/>
<path d="M460 830 c0 -6 -4 -8 -10 -5 -5 3 -10 2 -10 -4 0 -17 14 -20 27 -5 8
8 9 15 3 19 -6 3 -10 1 -10 -5z"/>
<path d="M647 834 c-3 -3 -3 -13 0 -22 4 -10 2 -13 -5 -8 -8 5 -10 2 -6 -8 10
-25 30 -18 29 9 -2 27 -8 38 -18 29z m13 -9 c0 -3 -2 -5 -5 -5 -3 0 -5 2 -5 5
0 3 2 5 5 5 3 0 5 -2 5 -5z"/>
<path d="M282 820 c2 -11 -7 -16 -34 -18 -21 -2 -38 -7 -38 -13 0 -5 3 -8 8
-8 4 1 16 1 27 0 20 -2 20 -2 1 -16 -28 -21 -12 -31 18 -12 24 16 25 16 21 -3
-3 -13 0 -18 7 -14 7 5 9 2 6 -7 -3 -8 -9 -22 -13 -31 -4 -11 0 -20 15 -28 15
-8 20 -8 16 -1 -4 6 -3 11 2 11 5 0 12 -9 15 -21 4 -15 2 -19 -8 -15 -9 3 -12
0 -9 -9 3 -8 9 -14 12 -13 4 1 18 -4 31 -11 14 -8 21 -9 17 -2 -6 10 6 15 27
12 4 0 7 3 7 8 0 5 -14 12 -31 16 -20 5 -29 11 -25 21 5 14 -9 19 -45 16 -12
-1 -15 4 -12 19 4 15 8 17 19 8 11 -9 14 -7 14 9 0 12 -9 22 -22 26 -19 5 -21
8 -8 16 13 8 11 11 -7 16 -13 4 -20 10 -17 15 3 5 9 7 14 4 10 -6 7 21 -4 32
-4 4 -6 1 -4 -7z m88 -190 c0 -5 -4 -10 -9 -10 -6 0 -13 5 -16 10 -3 6 1 10 9
10 9 0 16 -4 16 -10z"/>
<path d="M830 817 c0 -5 -5 -5 -12 -1 -6 4 -8 3 -5 -3 7 -10 54 -6 61 6 2 3
-7 6 -20 6 -13 0 -24 -4 -24 -8z"/>
<path d="M920 825 c0 -3 2 -5 5 -5 3 0 5 2 5 5 0 3 -2 5 -5 5 -3 0 -5 -2 -5
-5z"/>
<path d="M950 820 c0 -7 3 -10 7 -7 3 4 3 10 0 14 -4 3 -7 0 -7 -7z"/>
<path d="M50 815 c0 -3 2 -5 5 -5 3 0 5 2 5 5 0 3 -2 5 -5 5 -3 0 -5 -2 -5 -5z"/>
<path d="M360 815 c0 -3 2 -5 5 -5 3 0 5 2 5 5 0 3 -2 5 -5 5 -3 0 -5 -2 -5
-5z"/>
<path d="M683 813 c4 -3 10 -3 14 0 3 4 0 7 -7 7 -7 0 -10 -3 -7 -7z"/>
<path d="M886 805 c-10 -8 -23 -12 -27 -9 -5 3 -9 -2 -9 -11 0 -10 4 -13 13
-8 6 4 19 6 28 5 9 -2 22 4 29 13 11 13 10 14 -5 9 -13 -5 -16 -4 -11 4 9 15
5 15 -18 -3z"/>
<path d="M473 795 c0 -8 4 -12 9 -9 5 3 6 10 3 15 -9 13 -12 11 -12 -6z"/>
<path d="M586 803 c-4 -5 -12 -8 -17 -8 -5 0 -9 -3 -9 -7 0 -9 6 -9 37 -1 13
3 20 9 17 14 -6 11 -18 12 -28 2z"/>
<path d="M378 778 c23 -24 36 -21 26 6 -3 9 -16 16 -27 16 l-21 0 22 -22z m22
-3 c0 -3 -2 -5 -5 -5 -3 0 -5 2 -5 5 0 3 2 5 5 5 3 0 5 -2 5 -5z"/>
<path d="M530 790 c0 -7 3 -10 7 -7 3 4 3 10 0 14 -4 3 -7 0 -7 -7z"/>
<path d="M794 788 c-4 -7 -3 -8 4 -4 12 7 16 16 8 16 -3 0 -8 -5 -12 -12z"/>
<path d="M143 783 c4 -3 10 -3 14 0 3 4 0 7 -7 7 -7 0 -10 -3 -7 -7z"/>
<path d="M809 771 c-18 -20 -32 -64 -18 -55 5 3 9 11 9 18 0 8 9 12 23 11 31
-3 31 -3 17 -20 -11 -13 -15 -13 -22 -3 -7 10 -9 10 -5 -2 2 -8 9 -15 15 -15
6 0 17 -9 25 -19 10 -13 16 -15 21 -7 4 6 0 14 -9 17 -14 6 -14 8 2 20 17 13
17 14 0 8 -13 -5 -16 -2 -11 9 3 10 -2 18 -15 22 -12 4 -18 12 -14 21 7 18 2
17 -18 -5z m11 -16 c0 -3 -2 -5 -5 -5 -3 0 -5 2 -5 5 0 3 2 5 5 5 3 0 5 -2 5
-5z m30 -40 c0 -3 -2 -5 -5 -5 -3 0 -5 2 -5 5 0 3 2 5 5 5 3 0 5 -2 5 -5z m20
-30 c0 -3 -2 -5 -5 -5 -3 0 -5 2 -5 5 0 3 2 5 5 5 3 0 5 -2 5 -5z"/>
<path d="M573 765 c-12 -9 -13 -16 -5 -31 10 -18 11 -18 21 6 8 20 10 21 10 6
1 -23 14 -13 18 13 3 20 -20 24 -44 6z m7 -20 c0 -3 -2 -5 -5 -5 -3 0 -5 2 -5
5 0 3 2 5 5 5 3 0 5 -2 5 -5z"/>
<path d="M910 771 c-14 -4 -25 -12 -24 -19 2 -29 5 -33 15 -26 8 4 7 9 -2 15
-10 6 -11 9 -1 9 23 0 27 -2 24 -13 -2 -7 0 -9 4 -4 7 7 17 48 11 46 -1 -1
-13 -4 -27 -8z"/>
<path d="M640 765 c0 -3 2 -5 5 -5 3 0 5 2 5 5 0 3 -2 5 -5 5 -3 0 -5 -2 -5
-5z"/>
<path d="M210 745 c0 -3 2 -5 5 -5 3 0 5 2 5 5 0 3 -2 5 -5 5 -3 0 -5 -2 -5
-5z"/>
<path d="M627 732 c-10 -10 -17 -24 -17 -30 0 -7 -5 -12 -11 -12 -18 0 -1 -17
23 -23 22 -6 22 -5 4 8 -17 13 -17 15 -3 21 10 3 24 4 32 1 8 -4 17 -3 19 2 3
4 -1 8 -9 9 -8 1 -22 3 -31 4 -15 1 -15 3 1 15 10 7 16 15 13 18 -2 3 -12 -3
-21 -13z"/>
<path d="M0 735 c0 -3 2 -5 5 -5 3 0 5 2 5 5 0 3 -2 5 -5 5 -3 0 -5 -2 -5 -5z"/>
<path d="M130 735 c0 -3 2 -5 5 -5 3 0 5 2 5 5 0 3 -2 5 -5 5 -3 0 -5 -2 -5
-5z"/>
<path d="M246 731 c-4 -5 0 -11 6 -14 7 -2 1 -8 -14 -12 -30 -8 -36 -19 -16
-31 6 -4 8 -3 5 3 -4 6 0 13 8 17 8 3 15 0 15 -6 0 -22 14 3 16 27 1 25 -10
33 -20 16z"/>
<path d="M450 735 c0 -3 2 -5 5 -5 3 0 5 2 5 5 0 3 -2 5 -5 5 -3 0 -5 -2 -5
-5z"/>
<path d="M770 735 c0 -3 2 -5 5 -5 3 0 5 2 5 5 0 3 -2 5 -5 5 -3 0 -5 -2 -5
-5z"/>
<path d="M950 735 c0 -3 2 -5 5 -5 3 0 5 2 5 5 0 3 -2 5 -5 5 -3 0 -5 -2 -5
-5z"/>
<path d="M113 714 c0 -8 4 -14 9 -14 5 0 6 -5 2 -11 -4 -8 -9 -8 -17 0 -6 6
-16 11 -21 11 -6 0 -4 -5 4 -10 8 -5 16 -14 16 -20 1 -5 2 -16 3 -22 1 -9 4
-8 11 2 8 13 10 12 10 -2 0 -10 5 -18 11 -18 5 0 7 5 4 10 -3 6 -1 10 4 10 6
0 11 5 11 10 0 6 -6 10 -13 8 -7 -2 -12 2 -12 7 0 15 28 13 48 -3 18 -16 24
-3 6 15 -7 7 -2 12 17 17 21 6 25 9 14 16 -9 5 -20 4 -29 -3 -12 -9 -13 -9 -7
1 4 7 2 12 -4 12 -7 0 -10 -6 -7 -14 3 -8 0 -16 -6 -19 -16 -6 -38 3 -32 13 3
4 -1 10 -8 13 -8 3 -14 -1 -14 -9z m7 -49 c0 -3 -2 -5 -5 -5 -3 0 -5 2 -5 5 0
3 2 5 5 5 3 0 5 -2 5 -5z"/>
<path d="M724 718 c-4 -7 -3 -8 4 -4 12 7 16 16 8 16 -3 0 -8 -5 -12 -12z"/>
<path d="M759 714 c12 -26 3 -38 -16 -22 -7 6 -16 8 -20 4 -3 -3 -1 -6 6 -6 7
0 9 -5 6 -10 -4 -6 -1 -9 6 -8 7 2 18 -7 24 -19 5 -13 13 -23 18 -23 4 0 5 5
2 10 -3 6 -1 10 6 10 13 0 3 14 -12 16 -20 3 -21 5 -10 17 8 10 7 19 -5 33
-15 18 -15 18 -5 -2z"/>
<path d="M0 710 c0 -7 3 -10 7 -7 3 4 3 10 0 14 -4 3 -7 0 -7 -7z"/>
<path d="M340 704 c0 -8 5 -12 10 -9 6 4 8 11 5 16 -9 14 -15 11 -15 -7z"/>
<path d="M437 713 c-2 -5 -3 -18 -2 -30 1 -14 -4 -23 -12 -23 -8 0 -11 4 -8
10 3 6 -1 7 -9 4 -10 -4 -16 -1 -16 7 0 10 -3 10 -11 2 -13 -13 -2 -36 14 -30
7 2 20 0 30 -5 12 -6 17 -5 17 4 0 8 4 7 10 -4 10 -17 4 -48 -10 -48 -5 0 -11
6 -13 13 -4 9 -6 9 -6 0 -1 -6 4 -15 9 -18 6 -3 10 -22 10 -41 0 -28 -4 -34
-17 -32 -12 2 -19 -4 -21 -19 -2 -13 1 -23 5 -23 14 0 15 -68 2 -76 -9 -5 -10
-2 -5 11 5 15 4 16 -9 5 -11 -9 -15 -9 -15 -1 0 6 7 14 15 17 8 4 15 10 15 16
0 5 -4 6 -10 3 -6 -3 -7 1 -4 9 4 12 0 16 -16 16 -13 0 -19 4 -14 12 4 7 3 8
-4 4 -7 -4 -12 -3 -12 1 0 5 -9 9 -20 10 -20 2 -24 -10 -12 -37 9 -20 36 -26
29 -5 -4 8 -3 15 1 15 12 0 32 -22 32 -35 0 -5 -4 -4 -9 3 -6 10 -10 10 -21
-3 -9 -11 -9 -15 -1 -15 8 0 9 -5 1 -19 -13 -25 -13 -44 0 -36 6 4 7 11 4 17
-5 7 4 9 25 6 18 -3 34 -1 37 4 3 5 10 5 16 2 7 -5 9 0 6 12 -4 14 0 20 13 20
12 0 19 -7 19 -18 0 -10 4 -18 10 -18 5 0 7 -7 3 -16 -6 -15 -7 -15 -19 1 -8
10 -18 14 -25 9 -9 -5 -7 -10 7 -15 18 -7 18 -8 0 -8 -12 -1 -16 -6 -12 -16 3
-9 0 -15 -10 -15 -8 0 -12 4 -9 10 3 6 -1 7 -9 4 -10 -4 -16 -1 -16 7 0 10 -3
10 -11 2 -14 -14 -2 -36 17 -29 7 3 16 1 20 -5 3 -6 12 -8 20 -5 7 3 16 0 20
-6 4 -7 10 -5 16 6 5 9 7 20 4 25 -8 12 21 34 34 26 5 -3 20 -8 32 -10 22 -4
22 -4 4 10 -29 22 1 18 32 -3 39 -27 60 -33 65 -18 4 9 -1 12 -13 9 -15 -4
-18 -1 -13 18 4 15 3 20 -6 15 -6 -4 -9 -12 -6 -17 9 -13 -7 -10 -28 5 -18 14
-7 33 12 21 11 -6 24 12 28 38 2 10 -4 17 -15 18 -15 0 -15 1 1 8 10 4 18 10
18 14 -3 22 0 26 14 21 10 -4 13 -13 10 -24 -3 -10 0 -20 8 -23 11 -4 14 2 12
26 -2 23 -7 31 -19 29 -9 -2 -16 2 -16 8 0 5 -5 10 -11 10 -5 0 -7 -4 -4 -10
3 -5 1 -10 -5 -10 -6 0 -9 -4 -5 -9 6 -10 -23 -30 -39 -28 -6 1 -10 -14 -10
-33 -1 -24 -6 -35 -16 -35 -8 0 -21 -4 -29 -9 -10 -6 -12 -5 -7 2 4 8 0 12
-11 12 -14 0 -15 2 -5 9 8 4 13 11 13 15 -3 19 0 18 15 -2 8 -12 20 -22 26
-22 7 0 2 9 -10 20 -12 12 -22 26 -22 32 0 7 -7 5 -17 -4 -23 -18 -58 -17 -58
2 0 8 6 14 13 13 6 -2 12 3 12 11 0 10 -8 13 -26 10 -16 -3 -23 -1 -19 6 3 5
21 8 38 5 29 -4 30 -4 15 9 -22 16 -23 30 -2 22 8 -3 13 -2 10 3 -3 4 1 17 9
27 12 16 11 21 -2 37 -9 9 -13 17 -8 17 4 0 2 7 -6 16 -11 13 -9 14 16 8 20
-5 26 -4 21 5 -4 6 -12 9 -17 6 -5 -4 -9 -1 -9 5 0 7 -7 10 -15 7 -17 -7 -30
9 -15 18 13 8 13 35 1 35 -6 0 -12 -3 -14 -7z m-47 -48 c0 -3 -2 -5 -5 -5 -3
0 -5 2 -5 5 0 3 2 5 5 5 3 0 5 -2 5 -5z m83 -95 c-6 -22 -7 -22 -13 -4 -9 23
-1 49 11 37 5 -5 5 -19 2 -33z m-53 -55 c0 -3 -2 -5 -5 -5 -3 0 -5 2 -5 5 0 3
2 5 5 5 3 0 5 -2 5 -5z m30 0 c0 -3 -2 -5 -5 -5 -3 0 -5 2 -5 5 0 3 2 5 5 5 3
0 5 -2 5 -5z m210 -10 c0 -3 -2 -5 -5 -5 -3 0 -5 2 -5 5 0 3 2 5 5 5 3 0 5 -2
5 -5z m-60 -80 c0 -9 -6 -12 -16 -8 -13 5 -13 7 -2 14 17 11 18 11 18 -6z
m-134 -75 c0 -23 -11 -27 -19 -6 -3 8 -1 17 6 20 7 2 12 5 12 5 1 1 1 -8 1
-19z m-76 -5 c0 -3 -2 -5 -5 -5 -3 0 -5 2 -5 5 0 3 2 5 5 5 3 0 5 -2 5 -5z"/>
<path d="M950 715 c0 -3 2 -5 5 -5 3 0 5 2 5 5 0 3 -2 5 -5 5 -3 0 -5 -2 -5
-5z"/>
<path d="M20 699 c0 -5 5 -7 10 -4 6 3 10 8 10 11 0 2 -4 4 -10 4 -5 0 -10 -5
-10 -11z"/>
<path d="M60 705 c0 -3 2 -5 5 -5 3 0 5 2 5 5 0 3 -2 5 -5 5 -3 0 -5 -2 -5 -5z"/>
<path d="M380 705 c0 -3 2 -5 5 -5 3 0 5 2 5 5 0 3 -2 5 -5 5 -3 0 -5 -2 -5
-5z"/>
<path d="M567 685 c3 -14 9 -25 14 -25 12 0 5 43 -8 47 -6 2 -8 -7 -6 -22z"/>
<path d="M700 705 c0 -3 2 -5 5 -5 3 0 5 2 5 5 0 3 -2 5 -5 5 -3 0 -5 -2 -5
-5z"/>
<path d="M890 700 c0 -5 5 -10 11 -10 5 0 7 5 4 10 -3 6 -8 10 -11 10 -2 0 -4
-4 -4 -10z"/>
<path d="M927 697 c-4 -11 1 -21 16 -28 19 -10 20 -10 11 2 -6 8 -13 21 -16
28 -3 12 -6 12 -11 -2z"/>
<path d="M790 690 c0 -5 6 -9 13 -7 7 1 11 -8 10 -23 -1 -14 0 -18 3 -7 3 9
11 17 17 17 7 0 3 7 -7 15 -23 17 -36 19 -36 5z"/>
<path d="M10 676 c5 -7 5 -18 0 -25 -5 -9 -3 -20 6 -28 14 -15 10 -38 -6 -28
-4 3 -7 -3 -6 -12 2 -12 12 -18 31 -18 16 -1 30 -6 33 -13 2 -7 -1 -12 -8 -12
-6 0 -8 -4 -5 -10 3 -5 11 -10 16 -10 6 0 8 3 5 8 -2 4 9 15 25 24 30 17 36
14 20 -11 -7 -10 -4 -19 7 -28 24 -18 34 -16 24 5 -16 33 -9 47 23 46 45 -3
45 -3 45 -20 0 -8 4 -13 10 -9 16 10 1 30 -32 43 -22 8 -35 8 -44 1 -8 -6 -14
-7 -18 0 -4 5 2 14 11 20 10 6 16 11 13 11 -56 12 -72 6 -48 -18 9 -9 9 -12
-1 -12 -7 0 -10 -4 -7 -9 7 -10 -19 -23 -28 -14 -3 4 -1 12 5 20 9 10 6 13
-17 13 -20 0 -25 3 -16 9 8 4 13 12 12 17 -1 5 4 10 11 13 8 2 10 -2 5 -15 -6
-16 -5 -17 6 -6 11 11 10 16 -6 28 -11 8 -14 14 -7 14 28 0 2 25 -32 31 -27 4
-34 3 -27 -5z m36 -22 c-3 -9 -6 -20 -6 -25 0 -6 -4 -8 -9 -5 -7 5 -8 23 -2
44 1 1 6 2 12 2 6 0 8 -7 5 -16z m24 11 c0 -3 -2 -5 -5 -5 -3 0 -5 2 -5 5 0 3
2 5 5 5 3 0 5 -2 5 -5z m50 -60 c0 -3 -2 -5 -5 -5 -3 0 -5 2 -5 5 0 3 2 5 5 5
3 0 5 -2 5 -5z"/>
<path d="M640 685 c0 -3 2 -5 5 -5 3 0 5 2 5 5 0 3 -2 5 -5 5 -3 0 -5 -2 -5
-5z"/>
<path d="M655 661 c-7 -22 3 -51 17 -51 6 0 5 7 -3 16 -10 12 -10 20 -1 35 7
10 8 19 3 19 -5 0 -12 -8 -16 -19z"/>
<path d="M698 671 c11 -7 11 -9 -2 -14 -9 -4 -13 -13 -10 -22 6 -13 9 -12 19
7 13 25 10 38 -8 38 -8 0 -8 -3 1 -9z"/>
<path d="M253 663 c4 -3 10 -3 14 0 3 4 0 7 -7 7 -7 0 -10 -3 -7 -7z"/>
<path d="M893 663 c4 -3 10 -3 14 0 3 4 0 7 -7 7 -7 0 -10 -3 -7 -7z"/>
<path d="M170 650 c0 -5 5 -10 11 -10 5 0 7 5 4 10 -3 6 -8 10 -11 10 -2 0 -4
-4 -4 -10z"/>
<path d="M230 655 c0 -3 2 -5 5 -5 3 0 5 2 5 5 0 3 -2 5 -5 5 -3 0 -5 -2 -5
-5z"/>
<path d="M550 655 c0 -3 2 -5 5 -5 3 0 5 2 5 5 0 3 -2 5 -5 5 -3 0 -5 -2 -5
-5z"/>
<path d="M737 649 c7 -7 15 -10 18 -7 3 3 -2 9 -12 12 -14 6 -15 5 -6 -5z"/>
<path d="M870 655 c0 -3 2 -5 5 -5 3 0 5 2 5 5 0 3 -2 5 -5 5 -3 0 -5 -2 -5
-5z"/>
<path d="M267 642 c7 -4 11 -18 8 -30 -3 -18 -1 -20 14 -10 24 15 15 48 -13
48 -14 0 -17 -3 -9 -8z"/>
<path d="M590 642 c17 -8 19 -20 5 -42 -8 -13 -7 -13 8 -1 13 11 17 11 17 1 0
-8 2 -11 5 -8 4 3 3 17 -1 32 -4 18 -13 26 -28 25 -16 0 -17 -2 -6 -7z"/>
<path d="M630 645 c0 -3 2 -5 5 -5 3 0 5 2 5 5 0 3 -2 5 -5 5 -3 0 -5 -2 -5
-5z"/>
<path d="M923 643 c4 -3 10 -3 14 0 3 4 0 7 -7 7 -7 0 -10 -3 -7 -7z"/>
<path d="M200 630 c0 -7 3 -10 7 -7 3 4 3 10 0 14 -4 3 -7 0 -7 -7z"/>
<path d="M240 635 c0 -3 2 -5 5 -5 3 0 5 2 5 5 0 3 -2 5 -5 5 -3 0 -5 -2 -5
-5z"/>
<path d="M520 630 c0 -7 3 -10 7 -7 3 4 3 10 0 14 -4 3 -7 0 -7 -7z"/>
<path d="M715 630 c3 -5 8 -10 11 -10 3 0 2 5 -1 10 -3 6 -8 10 -11 10 -3 0
-2 -4 1 -10z"/>
<path d="M880 635 c0 -3 2 -5 5 -5 3 0 5 2 5 5 0 3 -2 5 -5 5 -3 0 -5 -2 -5
-5z"/>
<path d="M840 625 c0 -3 2 -5 5 -5 3 0 5 2 5 5 0 3 -2 5 -5 5 -3 0 -5 -2 -5
-5z"/>
<path d="M923 616 c0 -8 4 -13 8 -10 4 2 10 -2 13 -8 3 -7 5 -4 3 6 -2 23 -24
33 -24 12z"/>
<path d="M550 615 c0 -3 2 -5 5 -5 3 0 5 2 5 5 0 3 -2 5 -5 5 -3 0 -5 -2 -5
-5z"/>
<path d="M580 615 c0 -3 2 -5 5 -5 3 0 5 2 5 5 0 3 -2 5 -5 5 -3 0 -5 -2 -5
-5z"/>
<path d="M770 609 c0 -6 -7 -8 -17 -4 -12 4 -15 3 -8 -4 12 -12 57 -3 49 10
-7 13 -24 11 -24 -2z"/>
<path d="M190 605 c0 -3 2 -5 5 -5 3 0 5 2 5 5 0 3 -2 5 -5 5 -3 0 -5 -2 -5
-5z"/>
<path d="M223 603 c4 -6 1 -14 -5 -16 -8 -3 -6 -6 5 -6 9 -1 17 -8 17 -16 0
-16 15 -20 24 -7 6 10 -3 22 -28 42 -11 8 -17 10 -13 3z"/>
<path d="M390 605 c0 -3 2 -5 5 -5 3 0 5 2 5 5 0 3 -2 5 -5 5 -3 0 -5 -2 -5
-5z"/>
<path d="M690 605 c0 -3 2 -5 5 -5 3 0 5 2 5 5 0 3 -2 5 -5 5 -3 0 -5 -2 -5
-5z"/>
<path d="M830 605 c0 -3 2 -5 5 -5 3 0 5 2 5 5 0 3 -2 5 -5 5 -3 0 -5 -2 -5
-5z"/>
<path d="M300 595 c0 -3 2 -5 5 -5 3 0 5 2 5 5 0 3 -2 5 -5 5 -3 0 -5 -2 -5
-5z"/>
<path d="M334 585 c11 -8 15 -15 9 -15 -15 0 -5 -36 15 -52 13 -11 14 -11 7 2
-13 20 -15 40 -5 40 20 0 1 35 -21 38 -23 3 -23 2 -5 -13z"/>
<path d="M540 589 c0 -5 5 -7 10 -4 9 6 14 -8 11 -27 -2 -12 17 -10 24 2 11
17 47 11 52 -9 7 -26 43 -36 38 -10 -2 11 0 19 5 19 19 0 2 35 -18 36 -12 1
-19 -3 -16 -8 3 -4 10 -6 15 -3 5 4 9 0 9 -8 0 -7 -7 -14 -15 -14 -8 0 -15 4
-15 9 0 4 -15 8 -34 8 -19 0 -38 5 -41 10 -8 13 -25 13 -25 -1z m125 -39 c3
-5 4 -10 1 -10 -3 0 -8 5 -11 10 -3 6 -4 10 -1 10 3 0 8 -4 11 -10z"/>
<path d="M886 592 c-4 -7 -5 -16 -1 -21 3 -6 -3 -14 -12 -20 -10 -6 -13 -11
-7 -11 22 0 42 25 35 44 -5 14 -10 16 -15 8z"/>
<path d="M382 583 c-10 -4 -10 -8 0 -21 10 -12 10 -16 0 -19 -6 -3 -10 -9 -7
-14 4 -5 12 -3 19 4 8 6 12 15 9 19 -2 4 3 5 11 2 10 -4 16 -1 16 10 0 10 -5
13 -17 9 -11 -4 -14 -3 -9 5 7 12 0 14 -22 5z"/>
<path d="M699 583 c-1 -5 0 -12 1 -18 1 -5 3 -18 5 -27 2 -10 7 -24 12 -32 7
-12 10 -12 23 2 13 14 12 15 -2 10 -10 -4 -19 -1 -22 8 -5 13 6 19 27 15 5 -1
6 3 2 9 -3 6 -11 7 -17 4 -7 -5 -9 0 -6 14 4 15 2 22 -8 22 -8 0 -15 -3 -15
-7z"/>
<path d="M791 581 c-9 -6 -10 -11 -2 -15 6 -4 11 -2 11 3 0 6 5 11 11 11 5 0
8 -4 5 -8 -3 -5 8 -9 24 -10 22 0 30 4 30 16 0 13 -2 14 -9 3 -6 -10 -13 -11
-29 -2 -25 13 -23 13 -41 2z"/>
<path d="M280 571 c0 -10 26 -9 36 2 4 4 -2 7 -14 7 -12 0 -22 -4 -22 -9z"/>
<path d="M495 570 c-3 -5 1 -10 9 -10 9 0 16 5 16 10 0 6 -4 10 -9 10 -6 0
-13 -4 -16 -10z"/>
<path d="M740 575 c0 -3 2 -5 5 -5 3 0 5 2 5 5 0 3 -2 5 -5 5 -3 0 -5 -2 -5
-5z"/>
<path d="M763 562 c0 -12 5 -22 9 -22 11 0 10 12 -2 30 -7 12 -9 10 -7 -8z"/>
<path d="M945 570 c3 -5 8 -10 11 -10 2 0 4 5 4 10 0 6 -5 10 -11 10 -5 0 -7
-4 -4 -10z"/>
<path d="M536 555 c4 -8 7 -15 9 -15 2 0 5 7 9 15 3 9 0 15 -9 15 -9 0 -12 -6
-9 -15z"/>
<path d="M920 565 c0 -3 2 -5 5 -5 3 0 5 2 5 5 0 3 -2 5 -5 5 -3 0 -5 -2 -5
-5z"/>
<path d="M0 532 c0 -8 6 -12 14 -9 7 3 20 0 27 -6 11 -10 11 -9 1 4 -6 9 -9
19 -6 22 4 3 -3 5 -15 4 -11 -1 -21 -8 -21 -15z"/>
<path d="M190 545 c0 -3 2 -5 5 -5 3 0 5 2 5 5 0 3 -2 5 -5 5 -3 0 -5 -2 -5
-5z"/>
<path d="M303 536 c0 -8 8 -17 17 -19 13 -3 16 0 13 14 -6 22 -30 26 -30 5z"/>
<path d="M510 545 c0 -3 2 -5 5 -5 3 0 5 2 5 5 0 3 -2 5 -5 5 -3 0 -5 -2 -5
-5z"/>
<path d="M610 545 c0 -3 2 -5 5 -5 3 0 5 2 5 5 0 3 -2 5 -5 5 -3 0 -5 -2 -5
-5z"/>
<path d="M830 545 c0 -3 2 -5 5 -5 3 0 5 2 5 5 0 3 -2 5 -5 5 -3 0 -5 -2 -5
-5z"/>
<path d="M250 530 c-13 -8 -12 -10 3 -10 9 0 17 5 17 10 0 12 -1 12 -20 0z"/>
<path d="M560 535 c0 -3 2 -5 5 -5 3 0 5 2 5 5 0 3 -2 5 -5 5 -3 0 -5 -2 -5
-5z"/>
<path d="M580 530 c0 -5 5 -10 10 -10 6 0 10 5 10 10 0 6 -4 10 -10 10 -5 0
-10 -4 -10 -10z"/>
<path d="M900 530 c0 -5 5 -10 11 -10 5 0 7 5 4 10 -3 6 -8 10 -11 10 -2 0 -4
-4 -4 -10z"/>
<path d="M84 505 c-7 -30 -49 -35 -70 -7 -12 15 -13 15 -14 -9 0 -16 7 -29 16
-33 9 -4 14 -9 11 -13 -4 -3 1 -12 11 -20 11 -9 11 -12 2 -7 -10 5 -12 4 -5
-4 6 -5 19 -12 30 -14 11 -2 19 -11 17 -19 -2 -8 0 -10 4 -6 12 12 14 37 3 37
-6 0 -7 5 -4 10 3 6 1 10 -5 10 -12 0 -1 12 34 40 18 13 19 13 11 0 -6 -12 -5
-12 5 -3 8 7 10 19 5 30 -5 12 -9 14 -12 6 -3 -7 -9 -13 -14 -13 -4 0 -6 6 -3
14 3 8 1 17 -5 20 -6 4 -13 -5 -17 -19z m16 -30 c0 -3 -2 -5 -5 -5 -3 0 -5 2
-5 5 0 3 2 5 5 5 3 0 5 -2 5 -5z m-40 -26 c0 -6 -4 -7 -10 -4 -5 3 -10 11 -10
16 0 6 5 7 10 4 6 -3 10 -11 10 -16z"/>
<path d="M500 526 c0 -2 9 -6 20 -9 11 -3 18 -1 14 4 -5 9 -34 13 -34 5z"/>
<path d="M760 525 c0 -3 2 -5 5 -5 3 0 5 2 5 5 0 3 -2 5 -5 5 -3 0 -5 -2 -5
-5z"/>
<path d="M780 517 c0 -10 -3 -16 -7 -14 -10 6 -34 -19 -26 -27 3 -3 -8 -4 -26
-1 -17 2 -31 -1 -31 -6 0 -5 7 -9 16 -9 8 0 12 -4 9 -10 -3 -5 -2 -10 4 -10 5
0 12 6 14 13 3 6 6 2 6 -10 1 -25 8 -28 31 -12 12 9 12 10 -4 5 -17 -6 -17 -5
-5 11 12 14 12 16 0 8 -11 -6 -13 -4 -8 9 4 10 7 20 7 22 0 3 3 3 8 1 13 -9
31 19 21 34 -7 11 -9 10 -9 -4z"/>
<path d="M940 525 c0 -3 2 -5 5 -5 3 0 5 2 5 5 0 3 -2 5 -5 5 -3 0 -5 -2 -5
-5z"/>
<path d="M170 515 c0 -3 2 -5 5 -5 3 0 5 2 5 5 0 3 -2 5 -5 5 -3 0 -5 -2 -5
-5z"/>
<path d="M210 515 c0 -3 2 -5 5 -5 3 0 5 2 5 5 0 3 -2 5 -5 5 -3 0 -5 -2 -5
-5z"/>
<path d="M548 510 c-1 -5 -15 -11 -30 -12 -15 -1 -25 -5 -23 -8 8 -12 65 2 65
16 0 16 -7 19 -12 4z"/>
<path d="M850 515 c0 -3 2 -5 5 -5 3 0 5 2 5 5 0 3 -2 5 -5 5 -3 0 -5 -2 -5
-5z"/>
<path d="M180 499 c-8 -5 -13 -9 -10 -10 3 0 13 -2 23 -4 9 -2 17 1 17 5 0 15
-15 19 -30 9z"/>
<path d="M225 500 c-3 -5 -2 -10 4 -10 5 0 13 5 16 10 3 6 2 10 -4 10 -5 0
-13 -4 -16 -10z"/>
<path d="M285 501 c6 -11 4 -13 -9 -8 -10 4 -15 3 -11 -3 3 -6 -1 -10 -9 -10
-10 0 -14 -10 -14 -29 1 -31 -8 -51 -22 -51 -5 0 -7 8 -3 18 4 11 -1 8 -14 -8
-17 -20 -18 -26 -7 -35 7 -5 19 -18 27 -28 12 -17 13 -17 14 2 1 11 -3 23 -8
27 -6 3 -3 12 8 20 21 16 37 18 28 4 -12 -19 7 -10 25 12 13 16 15 29 9 50 -4
16 -8 31 -8 34 1 3 -3 9 -7 12 -4 4 -3 1 1 -7z m2 -38 c-4 -3 -7 0 -7 7 0 7 3
10 7 7 3 -4 3 -10 0 -14z m2 -39 c-6 -7 -17 -10 -26 -7 -17 7 -2 20 22 20 11
0 12 -4 4 -13z"/>
<path d="M842 503 c-18 -2 -30 -8 -27 -12 6 -10 53 -2 61 10 3 5 4 8 2 7 -2 0
-18 -3 -36 -5z"/>
<path d="M922 499 c2 -6 -3 -14 -11 -17 -9 -3 -11 0 -6 8 4 7 -3 5 -17 -4 -14
-9 -28 -13 -31 -9 -4 3 -7 -2 -7 -12 0 -14 3 -15 15 -5 11 9 15 9 15 1 0 -7 5
-9 13 -5 8 6 8 3 -1 -9 -9 -11 -11 -21 -4 -33 5 -9 7 -26 4 -38 -3 -12 -1 -17
4 -13 12 12 13 57 0 57 -6 0 -4 4 4 9 17 12 33 4 24 -12 -4 -7 -3 -9 1 -4 11
10 17 47 7 46 -21 -4 -23 3 -8 20 12 13 14 21 6 26 -6 3 -9 1 -8 -6z"/>
<path d="M950 505 c0 -3 2 -5 5 -5 3 0 5 2 5 5 0 3 -2 5 -5 5 -3 0 -5 -2 -5
-5z"/>
<path d="M43 493 c4 -3 10 -3 14 0 3 4 0 7 -7 7 -7 0 -10 -3 -7 -7z"/>
<path d="M580 495 c0 -3 2 -5 5 -5 3 0 5 2 5 5 0 3 -2 5 -5 5 -3 0 -5 -2 -5
-5z"/>
<path d="M683 493 c4 -3 10 -3 14 0 3 4 0 7 -7 7 -7 0 -10 -3 -7 -7z"/>
<path d="M153 475 c0 -8 4 -12 9 -9 5 3 6 10 3 15 -9 13 -12 11 -12 -6z"/>
<path d="M473 475 c0 -8 4 -12 9 -9 5 3 6 10 3 15 -9 13 -12 11 -12 -6z"/>
<path d="M950 485 c0 -3 2 -5 5 -5 3 0 5 2 5 5 0 3 -2 5 -5 5 -3 0 -5 -2 -5
-5z"/>
<path d="M525 470 c-3 -5 -1 -10 4 -10 6 0 11 5 11 10 0 6 -2 10 -4 10 -3 0
-8 -4 -11 -10z"/>
<path d="M794 468 c-4 -7 -3 -8 4 -4 7 4 12 9 12 12 0 8 -9 4 -16 -8z"/>
<path d="M166 448 c-14 -13 -23 -15 -38 -7 -20 11 -42 3 -32 -12 3 -5 15 -7
26 -3 15 4 18 3 13 -6 -5 -9 -4 -11 3 -6 7 4 12 2 12 -5 0 -6 -8 -9 -19 -6
-14 3 -18 1 -14 -10 3 -8 12 -12 20 -9 8 3 17 6 19 6 2 0 4 10 4 22 0 12 3 19
6 15 11 -11 -6 -58 -18 -51 -7 5 -8 3 -3 -6 6 -10 4 -12 -7 -7 -9 3 -19 3 -22
-1 -12 -12 -46 -12 -46 1 0 6 -7 3 -15 -7 -8 -11 -13 -28 -9 -38 3 -10 1 -18
-5 -18 -17 0 -22 19 -11 40 12 22 5 27 -13 8 -14 -15 -21 -49 -10 -46 4 1 18
-3 31 -10 14 -8 22 -9 22 -2 0 5 7 10 15 10 8 0 15 5 15 10 0 6 -8 10 -17 10
-13 0 -14 3 -5 12 9 9 15 9 24 0 17 -17 31 -15 25 3 -4 8 -3 17 2 19 4 3 8 0
8 -7 0 -7 3 -19 7 -27 3 -8 1 -22 -4 -30 -9 -13 -11 -13 -20 0 -6 9 -10 10
-10 3 0 -6 5 -15 10 -18 13 -8 13 -75 -1 -75 -5 0 -7 6 -4 13 4 6 -1 3 -9 -7
-17 -21 -21 -46 -8 -46 4 0 9 -16 10 -35 2 -20 -2 -35 -8 -35 -6 0 -8 6 -4 13
5 7 0 6 -11 -3 -10 -8 -16 -10 -12 -3 5 7 -1 16 -12 23 -13 7 -22 7 -26 0 -3
-5 -1 -10 4 -10 6 0 10 -5 8 -12 -3 -15 45 -27 60 -15 13 9 14 8 17 -15 2 -19
-24 -36 -46 -30 -10 2 -18 -1 -18 -7 0 -7 5 -9 12 -5 7 4 8 3 4 -4 -4 -7 -16
-12 -28 -12 -16 0 -18 3 -9 14 9 11 7 15 -7 18 -15 4 -18 1 -14 -19 4 -22 9
-24 36 -19 41 8 47 9 74 2 16 -3 22 -1 19 7 -2 7 -15 10 -28 9 -13 -2 -20 0
-16 4 8 8 29 14 56 16 10 1 9 5 -5 15 -10 7 -14 13 -9 13 5 0 0 6 -10 14 -18
13 -18 14 3 25 20 10 22 9 22 -10 l0 -22 19 22 c15 17 20 19 30 7 9 -10 7 -17
-6 -27 -11 -9 -14 -10 -9 -1 4 6 3 12 -2 12 -15 0 -23 -31 -12 -45 6 -7 8 -20
4 -29 -3 -9 -1 -16 6 -16 6 0 8 4 5 10 -3 5 -1 10 5 10 7 0 9 8 5 20 -4 11 -2
20 4 20 6 0 11 -4 11 -10 0 -5 4 -10 9 -10 18 0 5 59 -17 78 -12 11 -21 21
-19 23 1 2 -4 -2 -10 -10 -7 -8 -16 -12 -19 -8 -4 3 -15 2 -25 -4 -16 -8 -18
-6 -16 8 1 10 6 18 9 18 4 0 14 9 22 20 15 20 15 20 11 -3 -2 -13 0 -20 6 -17
5 4 7 11 3 16 -3 6 0 10 7 8 31 -4 69 2 69 10 0 6 -12 6 -29 1 -21 -6 -35 -4
-50 7 -13 9 -21 10 -21 3 0 -6 -4 -8 -10 -5 -5 3 -10 1 -10 -6 0 -7 -3 -10 -6
-7 -9 10 20 49 33 43 7 -2 12 -1 12 3 -4 23 3 41 17 46 14 5 15 4 4 -9 -10
-12 -10 -15 5 -15 10 0 15 6 13 16 -2 8 -7 14 -11 12 -13 -4 -36 44 -29 61 4
10 1 12 -7 6 -10 -6 -11 -3 -1 15 11 21 12 21 31 4 10 -9 19 -12 19 -7 0 6 -6
16 -13 22 -13 10 -12 74 2 67 3 -1 14 5 23 15 17 18 17 19 -5 17 -12 -1 -31
-10 -41 -20z m-96 -103 c0 -3 -2 -5 -5 -5 -3 0 -5 2 -5 5 0 3 2 5 5 5 3 0 5
-2 5 -5z m30 0 c0 -3 -2 -5 -5 -5 -3 0 -5 2 -5 5 0 3 2 5 5 5 3 0 5 -2 5 -5z
m60 -76 c0 -5 -7 -9 -15 -9 -15 0 -20 12 -9 23 8 8 24 -1 24 -14z m-10 -24 c0
-3 -2 -5 -5 -5 -3 0 -5 2 -5 5 0 3 2 5 5 5 3 0 5 -2 5 -5z m-53 -72 c-4 -3 -7
0 -7 7 0 7 3 10 7 7 3 -4 3 -10 0 -14z"/>
<path d="M808 448 c-10 -10 -18 -26 -17 -35 0 -15 2 -15 9 2 5 11 9 16 10 10
1 -5 6 1 11 14 12 30 9 33 -13 9z"/>
<path d="M640 445 c0 -3 2 -5 5 -5 3 0 5 2 5 5 0 3 -2 5 -5 5 -3 0 -5 -2 -5
-5z"/>
<path d="M670 440 c-13 -8 -12 -10 3 -10 9 0 17 5 17 10 0 12 -1 12 -20 0z"/>
<path d="M839 427 c9 -11 8 -17 -4 -27 -12 -10 -15 -10 -15 1 0 8 -6 5 -15 -7
-18 -24 -19 -35 -2 -31 7 1 11 -7 10 -23 -2 -14 0 -19 4 -10 3 8 11 18 17 22
6 4 4 9 -7 14 -22 8 -22 23 1 18 9 -3 26 2 37 11 16 12 17 14 2 9 -12 -5 -16
-2 -12 9 4 8 -1 17 -11 21 -13 5 -15 4 -5 -7z m11 -32 c0 -3 -2 -5 -5 -5 -3 0
-5 2 -5 5 0 3 2 5 5 5 3 0 5 -2 5 -5z"/>
<path d="M694 418 c-3 -5 -10 -6 -15 -3 -5 4 -9 1 -9 -6 0 -7 10 -9 25 -7 13
3 26 0 28 -5 2 -7 6 -7 11 1 4 7 2 12 -4 12 -6 0 -9 4 -6 8 3 5 -2 9 -10 9 -8
0 -17 -4 -20 -9z m16 -3 c0 -3 -2 -5 -5 -5 -3 0 -5 2 -5 5 0 3 2 5 5 5 3 0 5
-2 5 -5z"/>
<path d="M0 410 c0 -7 3 -10 7 -7 3 4 3 10 0 14 -4 3 -7 0 -7 -7z"/>
<path d="M295 400 c-10 -11 -24 -20 -32 -20 -18 0 -16 -13 7 -40 11 -12 16
-28 13 -34 -11 -17 -12 -37 -2 -30 5 3 7 11 3 17 -3 7 2 3 10 -7 16 -19 16
-19 16 1 0 12 -11 35 -25 51 -21 25 -22 30 -7 28 9 0 23 -8 30 -16 8 -8 11 -9
7 -2 -3 6 -1 12 4 12 6 0 11 -9 11 -21 0 -11 5 -29 10 -40 9 -15 7 -19 -5 -19
-9 0 -13 -5 -10 -10 4 -6 11 -8 16 -5 5 4 9 -1 9 -9 0 -8 -5 -18 -12 -22 -7
-5 -8 -3 -3 6 5 9 4 11 -3 6 -7 -4 -12 -2 -12 3 0 6 -16 11 -36 11 -28 0 -37
5 -41 21 -4 16 -8 17 -14 7 -12 -18 -11 -31 1 -23 9 6 14 -8 11 -27 -2 -12 17
-10 24 2 11 17 47 11 52 -9 7 -26 43 -36 38 -10 -2 11 0 19 4 19 5 0 6 12 3
26 -3 19 -1 25 7 20 6 -4 11 -1 11 8 0 9 4 16 9 16 17 0 42 -32 37 -46 -3 -8
-2 -13 2 -11 8 2 12 -7 12 -27 0 -14 -34 -28 -44 -18 -3 3 2 11 12 19 9 8 11
11 3 7 -11 -5 -13 -2 -8 15 4 17 2 21 -11 18 -9 -2 -15 -10 -14 -18 2 -8 5
-22 7 -31 2 -10 8 -26 14 -35 10 -17 10 -17 11 2 1 12 4 15 7 7 4 -9 8 -10 18
-2 10 8 15 8 21 -1 4 -8 3 -9 -4 -5 -8 5 -10 1 -5 -9 3 -9 9 -13 12 -8 3 4 10
11 14 14 4 4 1 14 -8 22 -13 14 -13 17 -1 30 18 18 60 14 82 -7 8 -9 18 -16
21 -16 4 0 3 3 0 7 -4 3 0 11 8 17 12 10 12 14 -1 36 l-15 25 4 -28 c2 -15 0
-30 -4 -33 -5 -3 -9 5 -9 18 0 19 -2 20 -10 8 -6 -9 -13 -11 -17 -5 -12 15
-34 17 -49 4 -18 -15 -27 -7 -18 15 3 9 11 13 18 9 6 -3 6 -1 -1 8 -10 9 -16
10 -24 2 -8 -8 -16 -6 -30 8 -11 11 -33 22 -49 26 -23 4 -28 9 -20 18 8 10 4
15 -20 20 -30 7 -40 28 -18 41 6 4 8 3 4 -4 -3 -6 -2 -13 4 -17 5 -3 10 3 10
14 0 26 -12 27 -35 1z m-5 -25 c0 -3 -2 -5 -5 -5 -3 0 -5 2 -5 5 0 3 2 5 5 5
3 0 5 -2 5 -5z m80 -65 c0 -5 -4 -10 -9 -10 -6 0 -13 5 -16 10 -3 6 1 10 9 10
9 0 16 -4 16 -10z m130 -55 c0 -3 -2 -5 -5 -5 -3 0 -5 2 -5 5 0 3 2 5 5 5 3 0
5 -2 5 -5z"/>
<path d="M450 415 c0 -3 2 -5 5 -5 3 0 5 2 5 5 0 3 -2 5 -5 5 -3 0 -5 -2 -5
-5z"/>
<path d="M630 400 c0 -11 5 -20 11 -20 6 0 9 6 6 14 -3 8 -1 17 6 20 7 2 4 5
-5 5 -12 1 -18 -6 -18 -19z"/>
<path d="M770 415 c0 -3 2 -5 5 -5 3 0 5 2 5 5 0 3 -2 5 -5 5 -3 0 -5 -2 -5
-5z"/>
<path d="M950 415 c0 -3 2 -5 5 -5 3 0 5 2 5 5 0 3 -2 5 -5 5 -3 0 -5 -2 -5
-5z"/>
<path d="M20 384 c0 -8 5 -12 10 -9 6 4 8 11 5 16 -9 14 -15 11 -15 -7z"/>
<path d="M764 386 c5 -16 2 -17 -21 -13 -16 4 -22 4 -15 1 6 -3 9 -11 5 -17
-3 -7 -3 -9 2 -5 4 4 15 2 24 -4 9 -7 13 -8 9 -4 -4 5 -3 15 4 23 8 11 8 17
-2 26 -10 10 -12 8 -6 -7z"/>
<path d="M950 395 c0 -3 2 -5 5 -5 3 0 5 2 5 5 0 3 -2 5 -5 5 -3 0 -5 -2 -5
-5z"/>
<path d="M53 383 c4 -3 10 -3 14 0 3 4 0 7 -7 7 -7 0 -10 -3 -7 -7z"/>
<path d="M380 385 c0 -3 2 -5 5 -5 3 0 5 2 5 5 0 3 -2 5 -5 5 -3 0 -5 -2 -5
-5z"/>
<path d="M669 388 c0 -2 -2 -10 -4 -18 -2 -8 -7 -24 -10 -36 -4 -13 0 -25 12
-35 16 -13 17 -12 5 3 -8 9 -10 23 -6 29 8 14 14 59 8 59 -2 0 -4 -1 -5 -2z"/>
<path d="M700 385 c0 -3 2 -5 5 -5 3 0 5 2 5 5 0 3 -2 5 -5 5 -3 0 -5 -2 -5
-5z"/>
<path d="M928 378 c-5 -12 -1 -21 11 -27 13 -7 18 -6 18 4 0 8 -4 12 -8 9 -4
-2 -9 4 -11 13 -3 17 -4 17 -10 1z"/>
<path d="M850 370 c0 -5 5 -10 10 -10 6 0 10 5 10 10 0 6 -4 10 -10 10 -5 0
-10 -4 -10 -10z"/>
<path d="M0 365 c0 -3 2 -5 5 -5 3 0 5 2 5 5 0 3 -2 5 -5 5 -3 0 -5 -2 -5 -5z"/>
<path d="M494 345 c-1 -14 2 -25 8 -25 5 0 7 4 4 9 -4 5 -1 11 6 13 6 2 8 10
4 16 -12 19 -21 14 -22 -13z"/>
<path d="M570 350 c0 -5 5 -10 11 -10 5 0 7 5 4 10 -3 6 -8 10 -11 10 -2 0 -4
-4 -4 -10z"/>
<path d="M690 352 c0 -5 7 -9 15 -9 8 0 12 4 9 9 -3 4 -9 8 -15 8 -5 0 -9 -4
-9 -8z"/>
<path d="M779 343 c-4 -43 -7 -54 -13 -60 -4 -4 -11 -1 -16 7 -6 9 -10 10 -10
3 0 -23 22 -25 41 -5 12 14 15 23 8 28 -8 5 -8 9 1 14 9 5 9 9 1 14 -6 4 -11
4 -12 -1z"/>
<path d="M893 343 c4 -3 10 -3 14 0 3 4 0 7 -7 7 -7 0 -10 -3 -7 -7z"/>
<path d="M170 330 c0 -7 3 -10 7 -7 3 4 3 10 0 14 -4 3 -7 0 -7 -7z"/>
<path d="M550 335 c0 -3 2 -5 5 -5 3 0 5 2 5 5 0 3 -2 5 -5 5 -3 0 -5 -2 -5
-5z"/>
<path d="M735 330 c3 -5 11 -10 16 -10 6 0 7 5 4 10 -3 6 -11 10 -16 10 -6 0
-7 -4 -4 -10z"/>
<path d="M870 335 c0 -3 2 -5 5 -5 3 0 5 2 5 5 0 3 -2 5 -5 5 -3 0 -5 -2 -5
-5z"/>
<path d="M260 325 c0 -3 2 -5 5 -5 3 0 5 2 5 5 0 3 -2 5 -5 5 -3 0 -5 -2 -5
-5z"/>
<path d="M310 325 c0 -3 2 -5 5 -5 3 0 5 2 5 5 0 3 -2 5 -5 5 -3 0 -5 -2 -5
-5z"/>
<path d="M588 323 c6 -2 18 -2 25 0 6 3 1 5 -13 5 -14 0 -19 -2 -12 -5z"/>
<path d="M630 325 c0 -3 2 -5 5 -5 3 0 5 2 5 5 0 3 -2 5 -5 5 -3 0 -5 -2 -5
-5z"/>
<path d="M686 315 c4 -8 8 -15 10 -15 2 0 4 7 4 15 0 8 -4 15 -10 15 -5 0 -7
-7 -4 -15z"/>
<path d="M921 323 c1 -5 0 -10 -1 -13 -7 -19 -7 -39 1 -34 5 3 7 11 3 17 -3 7
2 3 10 -7 17 -21 20 -15 10 22 -6 20 -26 33 -23 15z"/>
<path d="M950 325 c0 -3 2 -5 5 -5 3 0 5 2 5 5 0 3 -2 5 -5 5 -3 0 -5 -2 -5
-5z"/>
<path d="M200 310 c0 -7 3 -10 7 -7 3 4 3 10 0 14 -4 3 -7 0 -7 -7z"/>
<path d="M240 315 c0 -3 2 -5 5 -5 3 0 5 2 5 5 0 3 -2 5 -5 5 -3 0 -5 -2 -5
-5z"/>
<path d="M520 310 c0 -7 3 -10 7 -7 3 4 3 10 0 14 -4 3 -7 0 -7 -7z"/>
<path d="M560 315 c0 -3 2 -5 5 -5 3 0 5 2 5 5 0 3 -2 5 -5 5 -3 0 -5 -2 -5
-5z"/>
<path d="M715 310 c3 -5 8 -10 11 -10 2 0 4 5 4 10 0 6 -5 10 -11 10 -5 0 -7
-4 -4 -10z"/>
<path d="M840 315 c0 -3 2 -5 5 -5 3 0 5 2 5 5 0 3 -2 5 -5 5 -3 0 -5 -2 -5
-5z"/>
<path d="M880 315 c0 -3 2 -5 5 -5 3 0 5 2 5 5 0 3 -2 5 -5 5 -3 0 -5 -2 -5
-5z"/>
<path d="M603 296 c0 -8 7 -18 14 -21 10 -3 13 1 11 12 -4 21 -25 28 -25 9z"/>
<path d="M70 285 c0 -3 2 -5 5 -5 3 0 5 2 5 5 0 3 -2 5 -5 5 -3 0 -5 -2 -5 -5z"/>
<path d="M510 285 c0 -3 2 -5 5 -5 3 0 5 2 5 5 0 3 -2 5 -5 5 -3 0 -5 -2 -5
-5z"/>
<path d="M690 285 c0 -3 2 -5 5 -5 3 0 5 2 5 5 0 3 -2 5 -5 5 -3 0 -5 -2 -5
-5z"/>
<path d="M710 285 c0 -3 2 -5 5 -5 3 0 5 2 5 5 0 3 -2 5 -5 5 -3 0 -5 -2 -5
-5z"/>
<path d="M794 273 c1 -13 -6 -18 -26 -17 -23 1 -25 -1 -15 -17 15 -24 19 -24
37 1 15 21 36 29 24 9 -4 -7 -1 -10 6 -7 8 2 16 11 18 19 3 8 1 11 -3 6 -5 -4
-16 0 -26 9 -15 14 -17 14 -15 -3z m-24 -28 c0 -3 -2 -5 -5 -5 -3 0 -5 2 -5 5
0 3 2 5 5 5 3 0 5 -2 5 -5z"/>
<path d="M1 198 c0 -46 3 -77 6 -70 2 6 10 9 16 5 6 -4 8 0 4 10 -3 8 0 18 8
21 14 5 15 22 2 44 -5 6 -5 12 0 13 4 0 -1 4 -12 9 -19 8 -19 9 2 9 16 1 20 6
16 21 -3 11 -14 20 -24 20 -17 0 -19 -8 -18 -82z m28 8 c9 -10 8 -15 -2 -19
-8 -3 -13 3 -14 14 -2 23 1 24 16 5z"/>
<path d="M646 268 c5 -7 10 -21 11 -32 3 -16 1 -17 -12 -6 -13 11 -14 10 -9
-6 4 -10 12 -25 17 -32 7 -9 6 -11 -7 -6 -23 9 -21 -22 3 -43 11 -9 18 -20 15
-25 -3 -4 0 -8 6 -8 8 0 9 7 5 18 -4 9 -8 26 -9 37 -1 11 -4 25 -9 31 -4 7 0
15 9 18 8 3 12 10 9 16 -3 5 -2 10 4 10 20 0 3 35 -19 38 -16 3 -20 0 -14 -10z"/>
<path d="M860 269 c0 -5 5 -7 10 -4 9 6 14 -8 11 -27 -1 -10 13 -10 22 -1 8 7
-21 43 -35 43 -4 0 -8 -5 -8 -11z"/>
<path d="M57 263 c-4 -3 -2 -13 5 -20 9 -11 9 -16 -1 -22 -10 -6 -9 -10 4 -14
9 -4 13 -3 10 2 -3 5 4 12 15 16 11 3 20 13 20 20 0 9 -6 12 -15 9 -8 -4 -12
-11 -8 -17 3 -6 1 -7 -6 -3 -9 6 -9 11 0 22 9 11 8 14 -3 14 -8 0 -18 -3 -21
-7z"/>
<path d="M697 263 c-4 -3 -1 -13 6 -21 9 -12 9 -16 -1 -19 -8 -3 -5 -11 10
-24 13 -10 19 -18 15 -19 -5 0 -2 -9 6 -20 15 -21 11 -70 -5 -70 -5 0 -6 6 -2
13 5 7 0 6 -11 -3 -10 -8 -16 -10 -12 -3 11 18 -9 25 -23 8 -13 -15 -13 -16
30 -28 8 -2 29 7 45 21 l30 25 4 -24 c3 -23 4 -23 12 -4 7 17 8 17 8 -7 1 -21
6 -28 21 -28 11 0 20 -5 20 -11 0 -5 5 -7 11 -3 8 4 7 9 -2 15 -9 6 -10 9 -2
9 26 0 41 -12 36 -31 -3 -10 -1 -19 4 -19 14 0 9 40 -6 50 -9 5 -10 10 -2 14
6 4 15 5 20 1 11 -6 24 11 28 37 2 12 -3 16 -17 13 -30 -6 -41 -15 -38 -33 2
-9 -5 -18 -14 -20 -14 -3 -16 1 -11 15 4 13 0 11 -14 -6 l-20 -24 -5 27 c-4
20 -2 26 8 22 8 -3 14 -1 14 4 0 11 -61 7 -80 -5 -6 -4 -9 2 -7 15 2 12 9 25
17 30 7 4 10 13 6 19 -5 7 -1 9 9 5 10 -4 14 -2 10 8 -4 10 -18 14 -41 13 -37
-3 -54 9 -28 19 8 3 12 10 9 16 -4 6 -12 7 -18 3 -7 -4 -6 0 2 10 11 15 11 17
-1 17 -8 0 -18 -3 -21 -7z m33 -28 c0 -3 -2 -5 -5 -5 -3 0 -5 2 -5 5 0 3 2 5
5 5 3 0 5 -2 5 -5z m36 -52 c-3 -17 -16 -29 -16 -14 0 7 -4 10 -8 7 -5 -3 -9
0 -9 7 0 7 8 13 17 13 10 0 17 -6 16 -13z m154 -78 c0 -9 -6 -12 -16 -8 -13 5
-13 7 -2 14 17 11 18 11 18 -6z m-70 -30 c0 -3 -2 -5 -5 -5 -3 0 -5 2 -5 5 0
3 2 5 5 5 3 0 5 -2 5 -5z"/>
<path d="M600 255 c0 -3 2 -5 5 -5 3 0 5 2 5 5 0 3 -2 5 -5 5 -3 0 -5 -2 -5
-5z"/>
<path d="M623 253 c4 -3 10 -3 14 0 3 4 0 7 -7 7 -7 0 -10 -3 -7 -7z"/>
<path d="M920 250 c0 -7 3 -10 7 -7 3 4 3 10 0 14 -4 3 -7 0 -7 -7z"/>
<path d="M945 250 c3 -5 8 -10 11 -10 3 0 2 5 -1 10 -3 6 -8 10 -11 10 -3 0
-2 -4 1 -10z"/>
<path d="M210 241 c0 -17 18 -21 24 -6 3 9 0 15 -9 15 -8 0 -15 -4 -15 -9z"/>
<path d="M850 241 c0 -6 5 -13 10 -16 6 -3 10 1 10 9 0 9 -4 16 -10 16 -5 0
-10 -4 -10 -9z"/>
<path d="M261 216 c-11 -14 -11 -16 2 -16 8 0 17 -5 19 -12 2 -6 10 -8 16 -4
16 10 15 26 -2 26 -8 0 -16 5 -18 11 -2 7 -9 5 -17 -5z m39 -21 c0 -3 -2 -5
-5 -5 -3 0 -5 2 -5 5 0 3 2 5 5 5 3 0 5 -2 5 -5z"/>
<path d="M290 225 c0 -3 2 -5 5 -5 3 0 5 2 5 5 0 3 -2 5 -5 5 -3 0 -5 -2 -5
-5z"/>
<path d="M510 225 c0 -3 2 -5 5 -5 3 0 5 2 5 5 0 3 -2 5 -5 5 -3 0 -5 -2 -5
-5z"/>
<path d="M830 225 c0 -3 2 -5 5 -5 3 0 5 2 5 5 0 3 -2 5 -5 5 -3 0 -5 -2 -5
-5z"/>
<path d="M930 225 c0 -3 2 -5 5 -5 3 0 5 2 5 5 0 3 -2 5 -5 5 -3 0 -5 -2 -5
-5z"/>
<path d="M580 210 c0 -5 5 -10 10 -10 6 0 10 5 10 10 0 6 -4 10 -10 10 -5 0
-10 -4 -10 -10z"/>
<path d="M900 210 c0 -7 3 -10 7 -7 3 4 3 10 0 14 -4 3 -7 0 -7 -7z"/>
<path d="M190 200 c20 -13 33 -13 25 0 -3 6 -14 10 -23 10 -15 0 -15 -2 -2
-10z"/>
<path d="M620 205 c0 -3 2 -5 5 -5 3 0 5 2 5 5 0 3 -2 5 -5 5 -3 0 -5 -2 -5
-5z"/>
<path d="M820 206 c0 -2 9 -6 20 -9 11 -3 18 -1 14 4 -5 9 -34 13 -34 5z"/>
<path d="M935 200 c3 -5 8 -10 11 -10 2 0 4 5 4 10 0 6 -5 10 -11 10 -5 0 -7
-4 -4 -10z"/>
<path d="M325 180 c6 -17 4 -21 -6 -15 -8 5 -6 -1 4 -12 9 -11 17 -25 17 -32
0 -8 6 -11 16 -7 10 4 13 2 8 -6 -5 -7 -3 -8 6 -3 8 5 11 4 7 -2 -4 -6 -22 -7
-44 -4 -28 5 -37 11 -35 23 1 9 -5 19 -15 21 -17 4 -17 5 0 6 10 0 15 6 12 11
-4 7 -14 6 -28 -2 -12 -6 -23 -11 -24 -10 -6 4 -5 -9 0 -37 6 -28 26 -36 43
-18 9 8 24 -1 24 -14 0 -6 -4 -8 -9 -4 -5 3 -12 1 -16 -5 -4 -6 6 -10 24 -10
31 0 49 -14 31 -25 -5 -3 -10 -14 -10 -23 1 -15 2 -16 13 -1 7 9 20 16 31 16
18 0 18 -1 0 -15 -18 -14 -18 -14 -1 -8 10 3 21 6 23 6 15 0 -1 22 -22 30 -14
6 -22 14 -19 20 3 5 -3 10 -14 10 -12 0 -21 4 -21 9 0 5 18 8 40 8 31 -2 40
-6 40 -19 0 -10 5 -18 11 -18 5 0 7 -5 3 -12 -4 -6 -3 -8 4 -4 6 3 17 -2 24
-11 15 -21 58 -30 58 -13 0 6 -4 9 -9 5 -6 -3 -14 3 -20 12 -6 11 -11 13 -11
5 0 -7 -5 -10 -12 -6 -8 5 -7 10 4 18 13 10 13 13 2 24 -12 10 -14 10 -14 -3
0 -9 -6 -15 -12 -12 -7 2 -12 12 -12 21 1 9 -2 16 -8 16 -5 0 -6 5 -3 10 4 6
3 9 -2 8 -18 -6 -57 33 -59 59 0 15 -6 29 -13 31 -9 3 -11 -2 -6 -18z m15 5
c0 -3 -2 -5 -5 -5 -3 0 -5 2 -5 5 0 3 2 5 5 5 3 0 5 -2 5 -5z m-63 -87 c-3 -8
-6 -5 -6 6 -1 11 2 17 5 13 3 -3 4 -12 1 -19z m-17 7 c0 -3 -2 -5 -5 -5 -3 0
-5 2 -5 5 0 3 2 5 5 5 3 0 5 -2 5 -5z m130 -10 c0 -3 -2 -5 -5 -5 -3 0 -5 2
-5 5 0 3 2 5 5 5 3 0 5 -2 5 -5z"/>
<path d="M490 195 c0 -3 2 -5 5 -5 3 0 5 2 5 5 0 3 -2 5 -5 5 -3 0 -5 -2 -5
-5z"/>
<path d="M530 195 c0 -3 2 -5 5 -5 3 0 5 2 5 5 0 3 -2 5 -5 5 -3 0 -5 -2 -5
-5z"/>
<path d="M680 195 c0 -3 2 -5 5 -5 3 0 5 2 5 5 0 3 -2 5 -5 5 -3 0 -5 -2 -5
-5z"/>
<path d="M500 180 c-4 -3 -4 -14 1 -25 6 -17 8 -17 8 -2 1 10 9 17 20 17 11 0
22 3 24 8 6 8 -40 10 -53 2z"/>
<path d="M602 179 c2 -6 -3 -14 -11 -17 -10 -3 -11 0 -5 9 6 11 5 11 -10 0
-12 -10 -16 -25 -14 -50 2 -30 0 -36 -17 -36 -11 -1 -26 -4 -33 -8 -7 -5 -12
-3 -12 5 0 9 -3 9 -10 -2 -7 -11 -10 -12 -10 -2 0 7 7 20 15 28 8 9 15 11 15
6 0 -6 7 -12 15 -16 9 -3 15 0 15 9 0 8 -3 14 -7 14 -5 -1 -12 0 -18 1 -5 1
-25 3 -44 4 -19 0 -36 7 -39 15 -3 8 0 11 7 7 7 -5 9 -1 5 8 -10 26 -20 18
-22 -19 -3 -33 -1 -35 23 -29 21 5 25 3 25 -14 0 -12 11 -34 25 -49 20 -22 25
-24 23 -9 -2 10 5 23 15 30 15 9 21 7 33 -8 8 -11 14 -17 14 -13 0 4 13 1 29
-7 29 -15 29 -15 17 9 -11 25 -26 33 -26 14 0 -5 -5 -7 -11 -4 -7 5 -4 14 7
26 15 17 18 17 29 3 10 -15 12 -15 18 -1 4 10 -1 17 -14 20 -13 3 -17 10 -13
21 4 9 3 16 -2 15 -23 -4 -26 3 -10 20 12 13 14 21 6 26 -6 3 -9 1 -8 -6z
m-162 -64 c0 -3 -2 -5 -5 -5 -3 0 -5 2 -5 5 0 3 2 5 5 5 3 0 5 -2 5 -5z m150
-30 c-7 -8 -18 -15 -24 -15 -6 0 -3 7 7 14 9 7 17 19 18 27 0 11 2 11 6 1 3
-7 -1 -19 -7 -27z m-85 -25 c3 -5 1 -10 -4 -10 -6 0 -11 5 -11 10 0 6 2 10 4
10 3 0 8 -4 11 -10z"/>
<path d="M920 185 c0 -3 2 -5 5 -5 3 0 5 2 5 5 0 3 -2 5 -5 5 -3 0 -5 -2 -5
-5z"/>
<path d="M260 175 c0 -3 2 -5 5 -5 3 0 5 2 5 5 0 3 -2 5 -5 5 -3 0 -5 -2 -5
-5z"/>
<path d="M363 173 c4 -3 10 -3 14 0 3 4 0 7 -7 7 -7 0 -10 -3 -7 -7z"/>
<path d="M680 175 c0 -3 2 -5 5 -5 3 0 5 2 5 5 0 3 -2 5 -5 5 -3 0 -5 -2 -5
-5z"/>
<path d="M815 170 c4 -7 65 -1 65 6 0 3 -15 4 -34 2 -19 -1 -33 -5 -31 -8z"/>
<path d="M793 155 c0 -8 4 -12 9 -9 5 3 6 10 3 15 -9 13 -12 11 -12 -6z"/>
<path d="M915 161 c-3 -6 -19 -8 -35 -6 -17 2 -30 -1 -30 -7 0 -5 7 -8 15 -4
8 3 15 1 15 -5 0 -6 9 -5 23 3 12 7 26 11 30 10 5 -1 6 2 2 8 -8 12 -12 13
-20 1z"/>
<path d="M950 165 c0 -3 2 -5 5 -5 3 0 5 2 5 5 0 3 -2 5 -5 5 -3 0 -5 -2 -5
-5z"/>
<path d="M43 145 c0 -8 4 -12 8 -9 4 2 9 -1 11 -8 2 -6 9 -8 16 -4 6 3 9 13 5
21 -7 19 -40 19 -40 0z m37 -10 c0 -3 -2 -5 -5 -5 -3 0 -5 2 -5 5 0 3 2 5 5 5
3 0 5 -2 5 -5z"/>
<path d="M205 150 c-3 -5 -1 -10 4 -10 6 0 11 5 11 10 0 6 -2 10 -4 10 -3 0
-8 -4 -11 -10z"/>
<path d="M370 150 c0 -5 7 -10 16 -10 8 0 12 -4 9 -10 -3 -5 -1 -10 4 -10 6 0
11 9 11 20 0 13 -7 20 -20 20 -11 0 -20 -4 -20 -10z"/>
<path d="M474 148 c-4 -7 -3 -8 4 -4 7 4 12 9 12 12 0 8 -9 4 -16 -8z"/>
<path d="M525 150 c-3 -5 1 -10 10 -10 9 0 13 5 10 10 -3 6 -8 10 -10 10 -2 0
-7 -4 -10 -10z"/>
<path d="M685 150 c3 -5 13 -10 21 -10 9 0 12 -5 8 -12 -4 -7 -3 -8 4 -4 17
10 3 36 -20 36 -10 0 -16 -4 -13 -10z"/>
<path d="M820 145 c0 -3 2 -5 5 -5 3 0 5 2 5 5 0 3 -2 5 -5 5 -3 0 -5 -2 -5
-5z"/>
<path d="M320 125 c0 -3 2 -5 5 -5 3 0 5 2 5 5 0 3 -2 5 -5 5 -3 0 -5 -2 -5
-5z"/>
<path d="M2 80 c0 -14 2 -19 5 -12 2 6 2 18 0 25 -3 6 -5 1 -5 -13z"/>
<path d="M130 95 c0 -3 2 -5 5 -5 3 0 5 2 5 5 0 3 -2 5 -5 5 -3 0 -5 -2 -5 -5z"/>
<path d="M450 95 c0 -3 2 -5 5 -5 3 0 5 2 5 5 0 3 -2 5 -5 5 -3 0 -5 -2 -5 -5z"/>
<path d="M770 95 c0 -3 2 -5 5 -5 3 0 5 2 5 5 0 3 -2 5 -5 5 -3 0 -5 -2 -5 -5z"/>
<path d="M950 95 c0 -3 2 -5 5 -5 3 0 5 2 5 5 0 3 -2 5 -5 5 -3 0 -5 -2 -5 -5z"/>
<path d="M20 64 c0 -8 5 -12 10 -9 6 4 8 11 5 16 -9 14 -15 11 -15 -7z"/>
<path d="M660 64 c0 -8 5 -12 10 -9 6 4 8 11 5 16 -9 14 -15 11 -15 -7z"/>
<path d="M759 65 c-1 -8 -2 -21 -3 -27 -1 -7 -5 -16 -11 -20 -5 -4 -6 -10 -2
-15 5 -4 12 -1 17 7 6 10 10 11 10 3 0 -7 7 -10 15 -7 21 8 19 26 -2 22 -14
-2 -17 3 -15 25 2 15 1 27 -2 27 -3 0 -7 -7 -7 -15z"/>
<path d="M950 70 c0 -7 3 -10 7 -7 3 4 3 10 0 14 -4 3 -7 0 -7 -7z"/>
<path d="M60 65 c0 -3 2 -5 5 -5 3 0 5 2 5 5 0 3 -2 5 -5 5 -3 0 -5 -2 -5 -5z"/>
<path d="M248 45 c2 -14 8 -25 13 -25 5 0 6 8 3 18 -5 15 -4 15 8 1 10 -13 48
-23 48 -13 0 2 -70 44 -74 44 -2 0 -1 -11 2 -25z"/>
<path d="M380 65 c0 -3 2 -5 5 -5 3 0 5 2 5 5 0 3 -2 5 -5 5 -3 0 -5 -2 -5 -5z"/>
<path d="M700 65 c0 -3 2 -5 5 -5 3 0 5 2 5 5 0 3 -2 5 -5 5 -3 0 -5 -2 -5 -5z"/>
<path d="M923 51 c-1 -12 7 -21 20 -25 19 -4 20 -3 6 7 -9 7 -14 18 -12 25 3
6 1 12 -4 12 -5 0 -9 -9 -10 -19z"/>
<path d="M532 49 c5 -14 21 -14 26 0 2 6 -4 11 -13 11 -9 0 -15 -5 -13 -11z
m18 -4 c0 -3 -2 -5 -5 -5 -3 0 -5 2 -5 5 0 3 2 5 5 5 3 0 5 -2 5 -5z"/>
<path d="M790 50 c0 -7 3 -10 7 -7 3 4 3 10 0 14 -4 3 -7 0 -7 -7z"/>
<path d="M320 45 c0 -3 2 -5 5 -5 3 0 5 2 5 5 0 3 -2 5 -5 5 -3 0 -5 -2 -5 -5z"/>
<path d="M649 36 c6 -7 8 -16 4 -19 -3 -4 -2 -7 4 -7 21 0 22 28 2 33 -15 4
-18 2 -10 -7z"/>
<path d="M814 25 c-1 -14 2 -25 8 -25 5 0 7 4 4 9 -4 5 -1 11 6 13 6 2 8 10 4
16 -12 19 -21 14 -22 -13z"/>
<path d="M140 33 c0 -4 5 -15 10 -23 8 -13 10 -13 10 2 0 9 -4 20 -10 23 -5 3
-10 3 -10 -2z"/>
<path d="M694 25 c3 -8 0 -16 -7 -19 -8 -3 -9 -5 -1 -5 7 -1 21 7 33 17 l22
17 -26 1 c-18 2 -25 -2 -21 -11z m16 0 c0 -3 -2 -5 -5 -5 -3 0 -5 2 -5 5 0 3
2 5 5 5 3 0 5 -2 5 -5z"/>
<path d="M578 23 c7 -3 16 -2 19 1 4 3 -2 6 -13 5 -11 0 -14 -3 -6 -6z"/>
<path d="M230 15 c0 -3 2 -5 5 -5 3 0 5 2 5 5 0 3 -2 5 -5 5 -3 0 -5 -2 -5 -5z"/>
<path d="M415 10 c3 -5 11 -10 16 -10 6 0 7 5 4 10 -3 6 -11 10 -16 10 -6 0
-7 -4 -4 -10z"/>
<path d="M550 15 c0 -3 2 -5 5 -5 3 0 5 2 5 5 0 3 -2 5 -5 5 -3 0 -5 -2 -5 -5z"/>
<path d="M870 15 c0 -3 2 -5 5 -5 3 0 5 2 5 5 0 3 -2 5 -5 5 -3 0 -5 -2 -5 -5z"/>
<path d="M268 3 c6 -2 18 -2 25 0 6 3 1 5 -13 5 -14 0 -19 -2 -12 -5z"/>
<path d="M310 5 c0 -3 2 -5 5 -5 3 0 5 2 5 5 0 3 -2 5 -5 5 -3 0 -5 -2 -5 -5z"/>
<path d="M598 3 c7 -3 16 -2 19 1 4 3 -2 6 -13 5 -11 0 -14 -3 -6 -6z"/>
<path d="M630 5 c0 -3 2 -5 5 -5 3 0 5 2 5 5 0 3 -2 5 -5 5 -3 0 -5 -2 -5 -5z"/>
<path d="M900 5 c0 -3 2 -5 5 -5 3 0 5 2 5 5 0 3 -2 5 -5 5 -3 0 -5 -2 -5 -5z"/>
<path d="M923 3 c4 -3 10 -3 14 0 3 4 0 7 -7 7 -7 0 -10 -3 -7 -7z"/>
<path d="M950 5 c0 -3 2 -5 5 -5 3 0 5 2 5 5 0 3 -2 5 -5 5 -3 0 -5 -2 -5 -5z"/>
</g>
<g transform="translate(0.000000,96.000000) scale(0.100000,-0.100000)"
fill="#8fc530" stroke="none">
<path d="M50 950 c0 -7 3 -10 7 -7 3 4 3 10 0 14 -4 3 -7 0 -7 -7z"/>
<path d="M75 950 c3 -5 8 -10 11 -10 3 0 2 5 -1 10 -3 6 -8 10 -11 10 -3 0 -2
-4 1 -10z"/>
<path d="M390 955 c0 -3 2 -5 5 -5 3 0 5 2 5 5 0 3 -2 5 -5 5 -3 0 -5 -2 -5
-5z"/>
<path d="M690 950 c0 -7 3 -10 7 -7 3 4 3 10 0 14 -4 3 -7 0 -7 -7z"/>
<path d="M715 950 c3 -5 8 -10 11 -10 3 0 2 5 -1 10 -3 6 -8 10 -11 10 -3 0
-2 -4 1 -10z"/>
<path d="M290 945 c0 -3 2 -5 5 -5 3 0 5 2 5 5 0 3 -2 5 -5 5 -3 0 -5 -2 -5
-5z"/>
<path d="M370 945 c0 -3 2 -5 5 -5 3 0 5 2 5 5 0 3 -2 5 -5 5 -3 0 -5 -2 -5
-5z"/>
<path d="M610 945 c0 -3 2 -5 5 -5 3 0 5 2 5 5 0 3 -2 5 -5 5 -3 0 -5 -2 -5
-5z"/>
<path d="M923 943 c4 -3 10 -3 14 0 3 4 0 7 -7 7 -7 0 -10 -3 -7 -7z"/>
<path d="M70 925 c0 -3 2 -5 5 -5 3 0 5 2 5 5 0 3 -2 5 -5 5 -3 0 -5 -2 -5 -5z"/>
<path d="M130 925 c0 -3 2 -5 5 -5 3 0 5 2 5 5 0 3 -2 5 -5 5 -3 0 -5 -2 -5
-5z"/>
<path d="M150 925 c0 -3 2 -5 5 -5 3 0 5 2 5 5 0 3 -2 5 -5 5 -3 0 -5 -2 -5
-5z"/>
<path d="M450 925 c0 -3 2 -5 5 -5 3 0 5 2 5 5 0 3 -2 5 -5 5 -3 0 -5 -2 -5
-5z"/>
<path d="M470 925 c0 -3 2 -5 5 -5 3 0 5 2 5 5 0 3 -2 5 -5 5 -3 0 -5 -2 -5
-5z"/>
<path d="M690 925 c0 -3 2 -5 5 -5 3 0 5 2 5 5 0 3 -2 5 -5 5 -3 0 -5 -2 -5
-5z"/>
<path d="M764 918 c-4 -7 -3 -8 4 -4 7 4 12 9 12 12 0 8 -9 4 -16 -8z"/>
<path d="M790 925 c0 -3 2 -5 5 -5 3 0 5 2 5 5 0 3 -2 5 -5 5 -3 0 -5 -2 -5
-5z"/>
<path d="M920 925 c0 -3 2 -5 5 -5 3 0 5 2 5 5 0 3 -2 5 -5 5 -3 0 -5 -2 -5
-5z"/>
<path d="M30 915 c0 -3 2 -5 5 -5 3 0 5 2 5 5 0 3 -2 5 -5 5 -3 0 -5 -2 -5 -5z"/>
<path d="M320 915 c0 -3 2 -5 5 -5 3 0 5 2 5 5 0 3 -2 5 -5 5 -3 0 -5 -2 -5
-5z"/>
<path d="M350 915 c0 -3 2 -5 5 -5 3 0 5 2 5 5 0 3 -2 5 -5 5 -3 0 -5 -2 -5
-5z"/>
<path d="M640 915 c0 -3 2 -5 5 -5 3 0 5 2 5 5 0 3 -2 5 -5 5 -3 0 -5 -2 -5
-5z"/>
<path d="M663 913 c4 -3 10 -3 14 0 3 4 0 7 -7 7 -7 0 -10 -3 -7 -7z"/>
<path d="M940 915 c0 -3 2 -5 5 -5 3 0 5 2 5 5 0 3 -2 5 -5 5 -3 0 -5 -2 -5
-5z"/>
<path d="M80 905 c0 -3 2 -5 5 -5 3 0 5 2 5 5 0 3 -2 5 -5 5 -3 0 -5 -2 -5 -5z"/>
<path d="M213 903 c4 -3 10 -3 14 0 3 4 0 7 -7 7 -7 0 -10 -3 -7 -7z"/>
<path d="M540 905 c0 -3 2 -5 5 -5 3 0 5 2 5 5 0 3 -2 5 -5 5 -3 0 -5 -2 -5
-5z"/>
<path d="M800 905 c0 -3 2 -5 5 -5 3 0 5 2 5 5 0 3 -2 5 -5 5 -3 0 -5 -2 -5
-5z"/>
<path d="M860 905 c0 -3 2 -5 5 -5 3 0 5 2 5 5 0 3 -2 5 -5 5 -3 0 -5 -2 -5
-5z"/>
<path d="M45 890 c-3 -6 1 -7 9 -4 18 7 21 14 7 14 -6 0 -13 -4 -16 -10z"/>
<path d="M100 895 c0 -3 2 -5 5 -5 3 0 5 2 5 5 0 3 -2 5 -5 5 -3 0 -5 -2 -5
-5z"/>
<path d="M120 895 c0 -3 2 -5 5 -5 3 0 5 2 5 5 0 3 -2 5 -5 5 -3 0 -5 -2 -5
-5z"/>
<path d="M300 895 c0 -3 2 -5 5 -5 3 0 5 2 5 5 0 3 -2 5 -5 5 -3 0 -5 -2 -5
-5z"/>
<path d="M420 895 c0 -3 2 -5 5 -5 3 0 5 2 5 5 0 3 -2 5 -5 5 -3 0 -5 -2 -5
-5z"/>
<path d="M440 895 c0 -3 2 -5 5 -5 3 0 5 2 5 5 0 3 -2 5 -5 5 -3 0 -5 -2 -5
-5z"/>
<path d="M620 895 c0 -3 2 -5 5 -5 3 0 5 2 5 5 0 3 -2 5 -5 5 -3 0 -5 -2 -5
-5z"/>
<path d="M670 890 c0 -5 5 -10 11 -10 5 0 7 5 4 10 -3 6 -8 10 -11 10 -2 0 -4
-4 -4 -10z"/>
<path d="M760 895 c0 -3 2 -5 5 -5 3 0 5 2 5 5 0 3 -2 5 -5 5 -3 0 -5 -2 -5
-5z"/>
<path d="M820 889 c0 -5 5 -7 10 -4 6 3 10 8 10 11 0 2 -4 4 -10 4 -5 0 -10
-5 -10 -11z"/>
<path d="M880 895 c0 -3 2 -5 5 -5 3 0 5 2 5 5 0 3 -2 5 -5 5 -3 0 -5 -2 -5
-5z"/>
<path d="M940 895 c0 -3 2 -5 5 -5 3 0 5 2 5 5 0 3 -2 5 -5 5 -3 0 -5 -2 -5
-5z"/>
<path d="M173 883 c4 -3 10 -3 14 0 3 4 0 7 -7 7 -7 0 -10 -3 -7 -7z"/>
<path d="M260 885 c0 -3 2 -5 5 -5 3 0 5 2 5 5 0 3 -2 5 -5 5 -3 0 -5 -2 -5
-5z"/>
<path d="M330 885 c0 -3 2 -5 5 -5 3 0 5 2 5 5 0 3 -2 5 -5 5 -3 0 -5 -2 -5
-5z"/>
<path d="M353 883 c4 -3 10 -3 14 0 3 4 0 7 -7 7 -7 0 -10 -3 -7 -7z"/>
<path d="M500 885 c0 -3 2 -5 5 -5 3 0 5 2 5 5 0 3 -2 5 -5 5 -3 0 -5 -2 -5
-5z"/>
<path d="M580 885 c0 -3 2 -5 5 -5 3 0 5 2 5 5 0 3 -2 5 -5 5 -3 0 -5 -2 -5
-5z"/>
<path d="M650 885 c0 -3 2 -5 5 -5 3 0 5 2 5 5 0 3 -2 5 -5 5 -3 0 -5 -2 -5
-5z"/>
<path d="M700 885 c0 -3 2 -5 5 -5 3 0 5 2 5 5 0 3 -2 5 -5 5 -3 0 -5 -2 -5
-5z"/>
<path d="M900 885 c0 -3 2 -5 5 -5 3 0 5 2 5 5 0 3 -2 5 -5 5 -3 0 -5 -2 -5
-5z"/>
<path d="M130 870 c0 -7 3 -10 7 -7 3 4 3 10 0 14 -4 3 -7 0 -7 -7z"/>
<path d="M765 870 c-3 -5 -1 -10 4 -10 6 0 11 5 11 10 0 6 -2 10 -4 10 -3 0
-8 -4 -11 -10z"/>
<path d="M880 875 c0 -3 2 -5 5 -5 3 0 5 2 5 5 0 3 -2 5 -5 5 -3 0 -5 -2 -5
-5z"/>
<path d="M400 865 c0 -3 2 -5 5 -5 3 0 5 2 5 5 0 3 -2 5 -5 5 -3 0 -5 -2 -5
-5z"/>
<path d="M443 863 c4 -3 10 -3 14 0 3 4 0 7 -7 7 -7 0 -10 -3 -7 -7z"/>
<path d="M720 865 c0 -3 2 -5 5 -5 3 0 5 2 5 5 0 3 -2 5 -5 5 -3 0 -5 -2 -5
-5z"/>
<path d="M830 865 c0 -3 2 -5 5 -5 3 0 5 2 5 5 0 3 -2 5 -5 5 -3 0 -5 -2 -5
-5z"/>
<path d="M0 855 c0 -3 2 -5 5 -5 3 0 5 2 5 5 0 3 -2 5 -5 5 -3 0 -5 -2 -5 -5z"/>
<path d="M260 855 c0 -3 2 -5 5 -5 3 0 5 2 5 5 0 3 -2 5 -5 5 -3 0 -5 -2 -5
-5z"/>
<path d="M320 855 c0 -3 2 -5 5 -5 3 0 5 2 5 5 0 3 -2 5 -5 5 -3 0 -5 -2 -5
-5z"/>
<path d="M580 855 c0 -3 2 -5 5 -5 3 0 5 2 5 5 0 3 -2 5 -5 5 -3 0 -5 -2 -5
-5z"/>
<path d="M640 855 c0 -3 2 -5 5 -5 3 0 5 2 5 5 0 3 -2 5 -5 5 -3 0 -5 -2 -5
-5z"/>
<path d="M900 850 c0 -7 3 -10 7 -7 3 4 3 10 0 14 -4 3 -7 0 -7 -7z"/>
<path d="M620 845 c0 -3 2 -5 5 -5 3 0 5 2 5 5 0 3 -2 5 -5 5 -3 0 -5 -2 -5
-5z"/>
<path d="M760 845 c0 -3 2 -5 5 -5 3 0 5 2 5 5 0 3 -2 5 -5 5 -3 0 -5 -2 -5
-5z"/>
<path d="M940 845 c0 -3 2 -5 5 -5 3 0 5 2 5 5 0 3 -2 5 -5 5 -3 0 -5 -2 -5
-5z"/>
<path d="M100 835 c0 -3 2 -5 5 -5 3 0 5 2 5 5 0 3 -2 5 -5 5 -3 0 -5 -2 -5
-5z"/>
<path d="M740 835 c0 -3 2 -5 5 -5 3 0 5 2 5 5 0 3 -2 5 -5 5 -3 0 -5 -2 -5
-5z"/>
<path d="M6 817 c3 -10 9 -15 12 -12 3 3 0 11 -7 18 -10 9 -11 8 -5 -6z"/>
<path d="M120 825 c0 -3 2 -5 5 -5 3 0 5 2 5 5 0 3 -2 5 -5 5 -3 0 -5 -2 -5
-5z"/>
<path d="M280 825 c0 -3 2 -5 5 -5 3 0 5 2 5 5 0 3 -2 5 -5 5 -3 0 -5 -2 -5
-5z"/>
<path d="M326 817 c3 -10 9 -15 12 -12 3 3 0 11 -7 18 -10 9 -11 8 -5 -6z"/>
<path d="M440 825 c0 -3 2 -5 5 -5 3 0 5 2 5 5 0 3 -2 5 -5 5 -3 0 -5 -2 -5
-5z"/>
<path d="M646 817 c3 -10 9 -15 12 -12 3 3 0 11 -7 18 -10 9 -11 8 -5 -6z"/>
<path d="M760 825 c0 -3 2 -5 5 -5 3 0 5 2 5 5 0 3 -2 5 -5 5 -3 0 -5 -2 -5
-5z"/>
<path d="M920 825 c0 -3 2 -5 5 -5 3 0 5 2 5 5 0 3 -2 5 -5 5 -3 0 -5 -2 -5
-5z"/>
<path d="M80 815 c0 -3 2 -5 5 -5 3 0 5 2 5 5 0 3 -2 5 -5 5 -3 0 -5 -2 -5 -5z"/>
<path d="M193 813 c4 -3 10 -3 14 0 3 4 0 7 -7 7 -7 0 -10 -3 -7 -7z"/>
<path d="M400 815 c0 -3 2 -5 5 -5 3 0 5 2 5 5 0 3 -2 5 -5 5 -3 0 -5 -2 -5
-5z"/>
<path d="M690 815 c0 -3 2 -5 5 -5 3 0 5 2 5 5 0 3 -2 5 -5 5 -3 0 -5 -2 -5
-5z"/>
<path d="M720 815 c0 -3 2 -5 5 -5 3 0 5 2 5 5 0 3 -2 5 -5 5 -3 0 -5 -2 -5
-5z"/>
<path d="M810 815 c0 -3 2 -5 5 -5 3 0 5 2 5 5 0 3 -2 5 -5 5 -3 0 -5 -2 -5
-5z"/>
<path d="M830 815 c0 -3 2 -5 5 -5 3 0 5 2 5 5 0 3 -2 5 -5 5 -3 0 -5 -2 -5
-5z"/>
<path d="M100 805 c0 -3 2 -5 5 -5 3 0 5 2 5 5 0 3 -2 5 -5 5 -3 0 -5 -2 -5
-5z"/>
<path d="M420 805 c0 -3 2 -5 5 -5 3 0 5 2 5 5 0 3 -2 5 -5 5 -3 0 -5 -2 -5
-5z"/>
<path d="M740 805 c0 -3 2 -5 5 -5 3 0 5 2 5 5 0 3 -2 5 -5 5 -3 0 -5 -2 -5
-5z"/>
<path d="M920 805 c0 -3 2 -5 5 -5 3 0 5 2 5 5 0 3 -2 5 -5 5 -3 0 -5 -2 -5
-5z"/>
<path d="M70 790 c0 -7 3 -10 7 -7 3 4 3 10 0 14 -4 3 -7 0 -7 -7z"/>
<path d="M390 795 c0 -3 2 -5 5 -5 3 0 5 2 5 5 0 3 -2 5 -5 5 -3 0 -5 -2 -5
-5z"/>
<path d="M710 790 c0 -7 3 -10 7 -7 3 4 3 10 0 14 -4 3 -7 0 -7 -7z"/>
<path d="M10 785 c0 -3 2 -5 5 -5 3 0 5 2 5 5 0 3 -2 5 -5 5 -3 0 -5 -2 -5 -5z"/>
<path d="M50 785 c0 -3 2 -5 5 -5 3 0 5 2 5 5 0 3 -2 5 -5 5 -3 0 -5 -2 -5 -5z"/>
<path d="M210 785 c0 -3 2 -5 5 -5 3 0 5 2 5 5 0 3 -2 5 -5 5 -3 0 -5 -2 -5
-5z"/>
<path d="M243 783 c4 -3 10 -3 14 0 3 4 0 7 -7 7 -7 0 -10 -3 -7 -7z"/>
<path d="M330 785 c0 -3 2 -5 5 -5 3 0 5 2 5 5 0 3 -2 5 -5 5 -3 0 -5 -2 -5
-5z"/>
<path d="M370 785 c0 -3 2 -5 5 -5 3 0 5 2 5 5 0 3 -2 5 -5 5 -3 0 -5 -2 -5
-5z"/>
<path d="M530 785 c0 -3 2 -5 5 -5 3 0 5 2 5 5 0 3 -2 5 -5 5 -3 0 -5 -2 -5
-5z"/>
<path d="M563 783 c4 -3 10 -3 14 0 3 4 0 7 -7 7 -7 0 -10 -3 -7 -7z"/>
<path d="M650 785 c0 -3 2 -5 5 -5 3 0 5 2 5 5 0 3 -2 5 -5 5 -3 0 -5 -2 -5
-5z"/>
<path d="M690 785 c0 -3 2 -5 5 -5 3 0 5 2 5 5 0 3 -2 5 -5 5 -3 0 -5 -2 -5
-5z"/>
<path d="M790 785 c0 -3 2 -5 5 -5 3 0 5 2 5 5 0 3 -2 5 -5 5 -3 0 -5 -2 -5
-5z"/>
<path d="M850 785 c0 -3 2 -5 5 -5 3 0 5 2 5 5 0 3 -2 5 -5 5 -3 0 -5 -2 -5
-5z"/>
<path d="M888 783 c7 -3 16 -2 19 1 4 3 -2 6 -13 5 -11 0 -14 -3 -6 -6z"/>
<path d="M290 770 c0 -7 3 -10 7 -7 3 4 3 10 0 14 -4 3 -7 0 -7 -7z"/>
<path d="M610 770 c0 -7 3 -10 7 -7 3 4 3 10 0 14 -4 3 -7 0 -7 -7z"/>
<path d="M70 765 c0 -3 2 -5 5 -5 3 0 5 2 5 5 0 3 -2 5 -5 5 -3 0 -5 -2 -5 -5z"/>
<path d="M250 765 c0 -3 2 -5 5 -5 3 0 5 2 5 5 0 3 -2 5 -5 5 -3 0 -5 -2 -5
-5z"/>
<path d="M270 765 c0 -3 2 -5 5 -5 3 0 5 2 5 5 0 3 -2 5 -5 5 -3 0 -5 -2 -5
-5z"/>
<path d="M390 765 c0 -3 2 -5 5 -5 3 0 5 2 5 5 0 3 -2 5 -5 5 -3 0 -5 -2 -5
-5z"/>
<path d="M570 765 c0 -3 2 -5 5 -5 3 0 5 2 5 5 0 3 -2 5 -5 5 -3 0 -5 -2 -5
-5z"/>
<path d="M590 765 c0 -3 2 -5 5 -5 3 0 5 2 5 5 0 3 -2 5 -5 5 -3 0 -5 -2 -5
-5z"/>
<path d="M710 765 c0 -3 2 -5 5 -5 3 0 5 2 5 5 0 3 -2 5 -5 5 -3 0 -5 -2 -5
-5z"/>
<path d="M810 765 c0 -3 2 -5 5 -5 3 0 5 2 5 5 0 3 -2 5 -5 5 -3 0 -5 -2 -5
-5z"/>
<path d="M898 763 c7 -3 16 -2 19 1 4 3 -2 6 -13 5 -11 0 -14 -3 -6 -6z"/>
<path d="M930 765 c0 -3 2 -5 5 -5 3 0 5 2 5 5 0 3 -2 5 -5 5 -3 0 -5 -2 -5
-5z"/>
<path d="M30 755 c0 -3 2 -5 5 -5 3 0 5 2 5 5 0 3 -2 5 -5 5 -3 0 -5 -2 -5 -5z"/>
<path d="M670 755 c0 -3 2 -5 5 -5 3 0 5 2 5 5 0 3 -2 5 -5 5 -3 0 -5 -2 -5
-5z"/>
<path d="M830 755 c0 -3 2 -5 5 -5 3 0 5 2 5 5 0 3 -2 5 -5 5 -3 0 -5 -2 -5
-5z"/>
<path d="M110 745 c0 -3 2 -5 5 -5 3 0 5 2 5 5 0 3 -2 5 -5 5 -3 0 -5 -2 -5
-5z"/>
<path d="M430 745 c0 -3 2 -5 5 -5 3 0 5 2 5 5 0 3 -2 5 -5 5 -3 0 -5 -2 -5
-5z"/>
<path d="M743 743 c4 -3 10 -3 14 0 3 4 0 7 -7 7 -7 0 -10 -3 -7 -7z"/>
<path d="M790 745 c0 -3 2 -5 5 -5 3 0 5 2 5 5 0 3 -2 5 -5 5 -3 0 -5 -2 -5
-5z"/>
<path d="M930 745 c0 -3 2 -5 5 -5 3 0 5 2 5 5 0 3 -2 5 -5 5 -3 0 -5 -2 -5
-5z"/>
<path d="M0 735 c0 -3 2 -5 5 -5 3 0 5 2 5 5 0 3 -2 5 -5 5 -3 0 -5 -2 -5 -5z"/>
<path d="M35 730 c3 -5 8 -10 11 -10 3 0 2 5 -1 10 -3 6 -8 10 -11 10 -3 0 -2
-4 1 -10z"/>
<path d="M320 735 c0 -3 2 -5 5 -5 3 0 5 2 5 5 0 3 -2 5 -5 5 -3 0 -5 -2 -5
-5z"/>
<path d="M364 728 c-4 -7 -3 -8 4 -4 12 7 16 16 8 16 -3 0 -8 -5 -12 -12z"/>
<path d="M640 735 c0 -3 2 -5 5 -5 3 0 5 2 5 5 0 3 -2 5 -5 5 -3 0 -5 -2 -5
-5z"/>
<path d="M677 729 c7 -7 15 -10 18 -7 3 3 -2 9 -12 12 -14 6 -15 5 -6 -5z"/>
<path d="M900 735 c0 -3 2 -5 5 -5 3 0 5 2 5 5 0 3 -2 5 -5 5 -3 0 -5 -2 -5
-5z"/>
<path d="M950 735 c0 -3 2 -5 5 -5 3 0 5 2 5 5 0 3 -2 5 -5 5 -3 0 -5 -2 -5
-5z"/>
<path d="M120 710 c0 -7 3 -10 7 -7 3 4 3 10 0 14 -4 3 -7 0 -7 -7z"/>
<path d="M175 710 c3 -5 8 -10 11 -10 3 0 2 5 -1 10 -3 6 -8 10 -11 10 -3 0
-2 -4 1 -10z"/>
<path d="M220 715 c0 -3 2 -5 5 -5 3 0 5 2 5 5 0 3 -2 5 -5 5 -3 0 -5 -2 -5
-5z"/>
<path d="M495 710 c3 -5 8 -10 11 -10 3 0 2 5 -1 10 -3 6 -8 10 -11 10 -3 0
-2 -4 1 -10z"/>
<path d="M760 710 c0 -7 3 -10 7 -7 3 4 3 10 0 14 -4 3 -7 0 -7 -7z"/>
<path d="M816 708 c3 -5 10 -6 15 -3 13 9 11 12 -6 12 -8 0 -12 -4 -9 -9z"/>
<path d="M850 715 c0 -3 2 -5 5 -5 3 0 5 2 5 5 0 3 -2 5 -5 5 -3 0 -5 -2 -5
-5z"/>
<path d="M950 715 c0 -3 2 -5 5 -5 3 0 5 2 5 5 0 3 -2 5 -5 5 -3 0 -5 -2 -5
-5z"/>
<path d="M60 705 c0 -3 2 -5 5 -5 3 0 5 2 5 5 0 3 -2 5 -5 5 -3 0 -5 -2 -5 -5z"/>
<path d="M290 705 c0 -3 2 -5 5 -5 3 0 5 2 5 5 0 3 -2 5 -5 5 -3 0 -5 -2 -5
-5z"/>
<path d="M440 705 c0 -3 2 -5 5 -5 3 0 5 2 5 5 0 3 -2 5 -5 5 -3 0 -5 -2 -5
-5z"/>
<path d="M700 705 c0 -3 2 -5 5 -5 3 0 5 2 5 5 0 3 -2 5 -5 5 -3 0 -5 -2 -5
-5z"/>
<path d="M895 700 c3 -5 8 -10 11 -10 3 0 2 5 -1 10 -3 6 -8 10 -11 10 -3 0
-2 -4 1 -10z"/>
<path d="M926 693 c-6 -14 -5 -15 5 -6 7 7 10 15 7 18 -3 3 -9 -2 -12 -12z"/>
<path d="M180 685 c0 -3 2 -5 5 -5 3 0 5 2 5 5 0 3 -2 5 -5 5 -3 0 -5 -2 -5
-5z"/>
<path d="M280 685 c0 -3 2 -5 5 -5 3 0 5 2 5 5 0 3 -2 5 -5 5 -3 0 -5 -2 -5
-5z"/>
<path d="M500 685 c0 -3 2 -5 5 -5 3 0 5 2 5 5 0 3 -2 5 -5 5 -3 0 -5 -2 -5
-5z"/>
<path d="M600 685 c0 -3 2 -5 5 -5 3 0 5 2 5 5 0 3 -2 5 -5 5 -3 0 -5 -2 -5
-5z"/>
<path d="M760 685 c0 -3 2 -5 5 -5 3 0 5 2 5 5 0 3 -2 5 -5 5 -3 0 -5 -2 -5
-5z"/>
<path d="M820 685 c0 -3 2 -5 5 -5 3 0 5 2 5 5 0 3 -2 5 -5 5 -3 0 -5 -2 -5
-5z"/>
<path d="M670 675 c0 -3 2 -5 5 -5 3 0 5 2 5 5 0 3 -2 5 -5 5 -3 0 -5 -2 -5
-5z"/>
<path d="M700 675 c0 -3 2 -5 5 -5 3 0 5 2 5 5 0 3 -2 5 -5 5 -3 0 -5 -2 -5
-5z"/>
<path d="M120 665 c0 -3 2 -5 5 -5 3 0 5 2 5 5 0 3 -2 5 -5 5 -3 0 -5 -2 -5
-5z"/>
<path d="M440 665 c0 -3 2 -5 5 -5 3 0 5 2 5 5 0 3 -2 5 -5 5 -3 0 -5 -2 -5
-5z"/>
<path d="M760 665 c0 -3 2 -5 5 -5 3 0 5 2 5 5 0 3 -2 5 -5 5 -3 0 -5 -2 -5
-5z"/>
<path d="M900 665 c0 -3 2 -5 5 -5 3 0 5 2 5 5 0 3 -2 5 -5 5 -3 0 -5 -2 -5
-5z"/>
<path d="M150 655 c0 -3 2 -5 5 -5 3 0 5 2 5 5 0 3 -2 5 -5 5 -3 0 -5 -2 -5
-5z"/>
<path d="M470 655 c0 -3 2 -5 5 -5 3 0 5 2 5 5 0 3 -2 5 -5 5 -3 0 -5 -2 -5
-5z"/>
<path d="M650 655 c0 -3 2 -5 5 -5 3 0 5 2 5 5 0 3 -2 5 -5 5 -3 0 -5 -2 -5
-5z"/>
<path d="M730 655 c0 -3 2 -5 5 -5 3 0 5 2 5 5 0 3 -2 5 -5 5 -3 0 -5 -2 -5
-5z"/>
<path d="M790 655 c0 -3 2 -5 5 -5 3 0 5 2 5 5 0 3 -2 5 -5 5 -3 0 -5 -2 -5
-5z"/>
<path d="M870 655 c0 -3 2 -5 5 -5 3 0 5 2 5 5 0 3 -2 5 -5 5 -3 0 -5 -2 -5
-5z"/>
<path d="M40 645 c0 -3 2 -5 5 -5 3 0 5 2 5 5 0 3 -2 5 -5 5 -3 0 -5 -2 -5 -5z"/>
<path d="M110 645 c0 -3 2 -5 5 -5 3 0 5 2 5 5 0 3 -2 5 -5 5 -3 0 -5 -2 -5
-5z"/>
<path d="M430 645 c0 -3 2 -5 5 -5 3 0 5 2 5 5 0 3 -2 5 -5 5 -3 0 -5 -2 -5
-5z"/>
<path d="M686 637 c3 -10 9 -15 12 -12 3 3 0 11 -7 18 -10 9 -11 8 -5 -6z"/>
<path d="M750 645 c0 -3 2 -5 5 -5 3 0 5 2 5 5 0 3 -2 5 -5 5 -3 0 -5 -2 -5
-5z"/>
<path d="M810 645 c0 -3 2 -5 5 -5 3 0 5 2 5 5 0 3 -2 5 -5 5 -3 0 -5 -2 -5
-5z"/>
<path d="M920 645 c0 -3 2 -5 5 -5 3 0 5 2 5 5 0 3 -2 5 -5 5 -3 0 -5 -2 -5
-5z"/>
<path d="M715 630 c3 -5 8 -10 11 -10 3 0 2 5 -1 10 -3 6 -8 10 -11 10 -3 0
-2 -4 1 -10z"/>
<path d="M880 635 c0 -3 2 -5 5 -5 3 0 5 2 5 5 0 3 -2 5 -5 5 -3 0 -5 -2 -5
-5z"/>
<path d="M370 625 c0 -3 2 -5 5 -5 3 0 5 2 5 5 0 3 -2 5 -5 5 -3 0 -5 -2 -5
-5z"/>
<path d="M610 625 c0 -3 2 -5 5 -5 3 0 5 2 5 5 0 3 -2 5 -5 5 -3 0 -5 -2 -5
-5z"/>
<path d="M930 625 c0 -3 2 -5 5 -5 3 0 5 2 5 5 0 3 -2 5 -5 5 -3 0 -5 -2 -5
-5z"/>
<path d="M150 605 c0 -3 2 -5 5 -5 3 0 5 2 5 5 0 3 -2 5 -5 5 -3 0 -5 -2 -5
-5z"/>
<path d="M470 605 c0 -3 2 -5 5 -5 3 0 5 2 5 5 0 3 -2 5 -5 5 -3 0 -5 -2 -5
-5z"/>
<path d="M690 605 c0 -3 2 -5 5 -5 3 0 5 2 5 5 0 3 -2 5 -5 5 -3 0 -5 -2 -5
-5z"/>
<path d="M764 598 c-4 -7 -3 -8 4 -4 7 4 12 9 12 12 0 8 -9 4 -16 -8z"/>
<path d="M790 605 c0 -3 2 -5 5 -5 3 0 5 2 5 5 0 3 -2 5 -5 5 -3 0 -5 -2 -5
-5z"/>
<path d="M920 605 c0 -3 2 -5 5 -5 3 0 5 2 5 5 0 3 -2 5 -5 5 -3 0 -5 -2 -5
-5z"/>
<path d="M320 595 c0 -3 2 -5 5 -5 3 0 5 2 5 5 0 3 -2 5 -5 5 -3 0 -5 -2 -5
-5z"/>
<path d="M350 595 c0 -3 2 -5 5 -5 3 0 5 2 5 5 0 3 -2 5 -5 5 -3 0 -5 -2 -5
-5z"/>
<path d="M640 595 c0 -3 2 -5 5 -5 3 0 5 2 5 5 0 3 -2 5 -5 5 -3 0 -5 -2 -5
-5z"/>
<path d="M670 580 c0 -11 4 -20 9 -20 5 0 7 9 4 20 -3 11 -7 20 -9 20 -2 0 -4
-9 -4 -20z"/>
<path d="M540 585 c0 -3 2 -5 5 -5 3 0 5 2 5 5 0 3 -2 5 -5 5 -3 0 -5 -2 -5
-5z"/>
<path d="M800 585 c0 -3 2 -5 5 -5 3 0 5 2 5 5 0 3 -2 5 -5 5 -3 0 -5 -2 -5
-5z"/>
<path d="M860 585 c0 -3 2 -5 5 -5 3 0 5 2 5 5 0 3 -2 5 -5 5 -3 0 -5 -2 -5
-5z"/>
<path d="M740 575 c0 -3 2 -5 5 -5 3 0 5 2 5 5 0 3 -2 5 -5 5 -3 0 -5 -2 -5
-5z"/>
<path d="M760 575 c0 -3 2 -5 5 -5 3 0 5 2 5 5 0 3 -2 5 -5 5 -3 0 -5 -2 -5
-5z"/>
<path d="M820 570 c0 -7 3 -10 7 -7 3 4 3 10 0 14 -4 3 -7 0 -7 -7z"/>
<path d="M940 575 c0 -3 2 -5 5 -5 3 0 5 2 5 5 0 3 -2 5 -5 5 -3 0 -5 -2 -5
-5z"/>
<path d="M40 565 c0 -3 2 -5 5 -5 3 0 5 2 5 5 0 3 -2 5 -5 5 -3 0 -5 -2 -5 -5z"/>
<path d="M180 565 c0 -3 2 -5 5 -5 3 0 5 2 5 5 0 3 -2 5 -5 5 -3 0 -5 -2 -5
-5z"/>
<path d="M330 565 c0 -3 2 -5 5 -5 3 0 5 2 5 5 0 3 -2 5 -5 5 -3 0 -5 -2 -5
-5z"/>
<path d="M353 563 c4 -3 10 -3 14 0 3 4 0 7 -7 7 -7 0 -10 -3 -7 -7z"/>
<path d="M500 565 c0 -3 2 -5 5 -5 3 0 5 2 5 5 0 3 -2 5 -5 5 -3 0 -5 -2 -5
-5z"/>
<path d="M650 565 c0 -3 2 -5 5 -5 3 0 5 2 5 5 0 3 -2 5 -5 5 -3 0 -5 -2 -5
-5z"/>
<path d="M850 565 c0 -3 2 -5 5 -5 3 0 5 2 5 5 0 3 -2 5 -5 5 -3 0 -5 -2 -5
-5z"/>
<path d="M900 565 c0 -3 2 -5 5 -5 3 0 5 2 5 5 0 3 -2 5 -5 5 -3 0 -5 -2 -5
-5z"/>
<path d="M765 550 c-3 -5 -1 -10 4 -10 6 0 11 5 11 10 0 6 -2 10 -4 10 -3 0
-8 -4 -11 -10z"/>
<path d="M130 545 c0 -3 2 -5 5 -5 3 0 5 2 5 5 0 3 -2 5 -5 5 -3 0 -5 -2 -5
-5z"/>
<path d="M450 545 c0 -3 2 -5 5 -5 3 0 5 2 5 5 0 3 -2 5 -5 5 -3 0 -5 -2 -5
-5z"/>
<path d="M720 545 c0 -3 2 -5 5 -5 3 0 5 2 5 5 0 3 -2 5 -5 5 -3 0 -5 -2 -5
-5z"/>
<path d="M830 545 c0 -3 2 -5 5 -5 3 0 5 2 5 5 0 3 -2 5 -5 5 -3 0 -5 -2 -5
-5z"/>
<path d="M860 545 c0 -3 2 -5 5 -5 3 0 5 2 5 5 0 3 -2 5 -5 5 -3 0 -5 -2 -5
-5z"/>
<path d="M0 535 c0 -3 2 -5 5 -5 3 0 5 2 5 5 0 3 -2 5 -5 5 -3 0 -5 -2 -5 -5z"/>
<path d="M320 535 c0 -3 2 -5 5 -5 3 0 5 2 5 5 0 3 -2 5 -5 5 -3 0 -5 -2 -5
-5z"/>
<path d="M580 535 c0 -3 2 -5 5 -5 3 0 5 2 5 5 0 3 -2 5 -5 5 -3 0 -5 -2 -5
-5z"/>
<path d="M640 535 c0 -3 2 -5 5 -5 3 0 5 2 5 5 0 3 -2 5 -5 5 -3 0 -5 -2 -5
-5z"/>
<path d="M900 530 c0 -7 3 -10 7 -7 3 4 3 10 0 14 -4 3 -7 0 -7 -7z"/>
<path d="M620 525 c0 -3 2 -5 5 -5 3 0 5 2 5 5 0 3 -2 5 -5 5 -3 0 -5 -2 -5
-5z"/>
<path d="M760 525 c0 -3 2 -5 5 -5 3 0 5 2 5 5 0 3 -2 5 -5 5 -3 0 -5 -2 -5
-5z"/>
<path d="M940 525 c0 -3 2 -5 5 -5 3 0 5 2 5 5 0 3 -2 5 -5 5 -3 0 -5 -2 -5
-5z"/>
<path d="M740 515 c0 -3 2 -5 5 -5 3 0 5 2 5 5 0 3 -2 5 -5 5 -3 0 -5 -2 -5
-5z"/>
<path d="M0 505 c0 -3 2 -5 5 -5 3 0 5 2 5 5 0 3 -2 5 -5 5 -3 0 -5 -2 -5 -5z"/>
<path d="M320 505 c0 -3 2 -5 5 -5 3 0 5 2 5 5 0 3 -2 5 -5 5 -3 0 -5 -2 -5
-5z"/>
<path d="M440 505 c0 -3 2 -5 5 -5 3 0 5 2 5 5 0 3 -2 5 -5 5 -3 0 -5 -2 -5
-5z"/>
<path d="M646 497 c3 -10 9 -15 12 -12 3 3 0 11 -7 18 -10 9 -11 8 -5 -6z"/>
<path d="M760 505 c0 -3 2 -5 5 -5 3 0 5 2 5 5 0 3 -2 5 -5 5 -3 0 -5 -2 -5
-5z"/>
<path d="M920 505 c0 -3 2 -5 5 -5 3 0 5 2 5 5 0 3 -2 5 -5 5 -3 0 -5 -2 -5
-5z"/>
<path d="M690 495 c0 -3 2 -5 5 -5 3 0 5 2 5 5 0 3 -2 5 -5 5 -3 0 -5 -2 -5
-5z"/>
<path d="M720 495 c0 -3 2 -5 5 -5 3 0 5 2 5 5 0 3 -2 5 -5 5 -3 0 -5 -2 -5
-5z"/>
<path d="M830 495 c0 -3 2 -5 5 -5 3 0 5 2 5 5 0 3 -2 5 -5 5 -3 0 -5 -2 -5
-5z"/>
<path d="M10 485 c0 -3 2 -5 5 -5 3 0 5 2 5 5 0 3 -2 5 -5 5 -3 0 -5 -2 -5 -5z"/>
<path d="M330 485 c0 -3 2 -5 5 -5 3 0 5 2 5 5 0 3 -2 5 -5 5 -3 0 -5 -2 -5
-5z"/>
<path d="M740 485 c0 -3 2 -5 5 -5 3 0 5 2 5 5 0 3 -2 5 -5 5 -3 0 -5 -2 -5
-5z"/>
<path d="M390 475 c0 -3 2 -5 5 -5 3 0 5 2 5 5 0 3 -2 5 -5 5 -3 0 -5 -2 -5
-5z"/>
<path d="M710 470 c0 -7 3 -10 7 -7 3 4 3 10 0 14 -4 3 -7 0 -7 -7z"/>
<path d="M885 470 c3 -5 8 -10 11 -10 3 0 2 5 -1 10 -3 6 -8 10 -11 10 -3 0
-2 -4 1 -10z"/>
<path d="M10 465 c0 -3 2 -5 5 -5 3 0 5 2 5 5 0 3 -2 5 -5 5 -3 0 -5 -2 -5 -5z"/>
<path d="M210 465 c0 -3 2 -5 5 -5 3 0 5 2 5 5 0 3 -2 5 -5 5 -3 0 -5 -2 -5
-5z"/>
<path d="M250 465 c0 -3 2 -5 5 -5 3 0 5 2 5 5 0 3 -2 5 -5 5 -3 0 -5 -2 -5
-5z"/>
<path d="M330 465 c0 -3 2 -5 5 -5 3 0 5 2 5 5 0 3 -2 5 -5 5 -3 0 -5 -2 -5
-5z"/>
<path d="M370 465 c0 -3 2 -5 5 -5 3 0 5 2 5 5 0 3 -2 5 -5 5 -3 0 -5 -2 -5
-5z"/>
<path d="M570 465 c0 -3 2 -5 5 -5 3 0 5 2 5 5 0 3 -2 5 -5 5 -3 0 -5 -2 -5
-5z"/>
<path d="M650 465 c0 -3 2 -5 5 -5 3 0 5 2 5 5 0 3 -2 5 -5 5 -3 0 -5 -2 -5
-5z"/>
<path d="M690 465 c0 -3 2 -5 5 -5 3 0 5 2 5 5 0 3 -2 5 -5 5 -3 0 -5 -2 -5
-5z"/>
<path d="M790 465 c0 -3 2 -5 5 -5 3 0 5 2 5 5 0 3 -2 5 -5 5 -3 0 -5 -2 -5
-5z"/>
<path d="M850 465 c0 -3 2 -5 5 -5 3 0 5 2 5 5 0 3 -2 5 -5 5 -3 0 -5 -2 -5
-5z"/>
<path d="M270 445 c0 -3 2 -5 5 -5 3 0 5 2 5 5 0 3 -2 5 -5 5 -3 0 -5 -2 -5
-5z"/>
<path d="M590 445 c0 -3 2 -5 5 -5 3 0 5 2 5 5 0 3 -2 5 -5 5 -3 0 -5 -2 -5
-5z"/>
<path d="M610 445 c0 -3 2 -5 5 -5 3 0 5 2 5 5 0 3 -2 5 -5 5 -3 0 -5 -2 -5
-5z"/>
<path d="M710 445 c0 -3 2 -5 5 -5 3 0 5 2 5 5 0 3 -2 5 -5 5 -3 0 -5 -2 -5
-5z"/>
<path d="M810 445 c0 -3 2 -5 5 -5 3 0 5 2 5 5 0 3 -2 5 -5 5 -3 0 -5 -2 -5
-5z"/>
<path d="M890 445 c0 -3 2 -5 5 -5 3 0 5 2 5 5 0 3 -2 5 -5 5 -3 0 -5 -2 -5
-5z"/>
<path d="M910 445 c0 -3 2 -5 5 -5 3 0 5 2 5 5 0 3 -2 5 -5 5 -3 0 -5 -2 -5
-5z"/>
<path d="M930 445 c0 -3 2 -5 5 -5 3 0 5 2 5 5 0 3 -2 5 -5 5 -3 0 -5 -2 -5
-5z"/>
<path d="M663 433 c4 -3 10 -3 14 0 3 4 0 7 -7 7 -7 0 -10 -3 -7 -7z"/>
<path d="M830 435 c0 -3 2 -5 5 -5 3 0 5 2 5 5 0 3 -2 5 -5 5 -3 0 -5 -2 -5
-5z"/>
<path d="M110 425 c0 -3 2 -5 5 -5 3 0 5 2 5 5 0 3 -2 5 -5 5 -3 0 -5 -2 -5
-5z"/>
<path d="M430 425 c0 -3 2 -5 5 -5 3 0 5 2 5 5 0 3 -2 5 -5 5 -3 0 -5 -2 -5
-5z"/>
<path d="M743 423 c4 -3 10 -3 14 0 3 4 0 7 -7 7 -7 0 -10 -3 -7 -7z"/>
<path d="M790 425 c0 -3 2 -5 5 -5 3 0 5 2 5 5 0 3 -2 5 -5 5 -3 0 -5 -2 -5
-5z"/>
<path d="M930 425 c0 -3 2 -5 5 -5 3 0 5 2 5 5 0 3 -2 5 -5 5 -3 0 -5 -2 -5
-5z"/>
<path d="M320 415 c0 -3 2 -5 5 -5 3 0 5 2 5 5 0 3 -2 5 -5 5 -3 0 -5 -2 -5
-5z"/>
<path d="M640 415 c0 -3 2 -5 5 -5 3 0 5 2 5 5 0 3 -2 5 -5 5 -3 0 -5 -2 -5
-5z"/>
<path d="M677 409 c7 -7 15 -10 18 -7 3 3 -2 9 -12 12 -14 6 -15 5 -6 -5z"/>
<path d="M900 415 c0 -3 2 -5 5 -5 3 0 5 2 5 5 0 3 -2 5 -5 5 -3 0 -5 -2 -5
-5z"/>
<path d="M950 415 c0 -3 2 -5 5 -5 3 0 5 2 5 5 0 3 -2 5 -5 5 -3 0 -5 -2 -5
-5z"/>
<path d="M40 405 c0 -3 2 -5 5 -5 3 0 5 2 5 5 0 3 -2 5 -5 5 -3 0 -5 -2 -5 -5z"/>
<path d="M360 405 c0 -3 2 -5 5 -5 3 0 5 2 5 5 0 3 -2 5 -5 5 -3 0 -5 -2 -5
-5z"/>
<path d="M760 390 c0 -7 3 -10 7 -7 3 4 3 10 0 14 -4 3 -7 0 -7 -7z"/>
<path d="M853 393 c4 -3 10 -3 14 0 3 4 0 7 -7 7 -7 0 -10 -3 -7 -7z"/>
<path d="M950 395 c0 -3 2 -5 5 -5 3 0 5 2 5 5 0 3 -2 5 -5 5 -3 0 -5 -2 -5
-5z"/>
<path d="M440 385 c0 -3 2 -5 5 -5 3 0 5 2 5 5 0 3 -2 5 -5 5 -3 0 -5 -2 -5
-5z"/>
<path d="M500 385 c0 -3 2 -5 5 -5 3 0 5 2 5 5 0 3 -2 5 -5 5 -3 0 -5 -2 -5
-5z"/>
<path d="M700 385 c0 -3 2 -5 5 -5 3 0 5 2 5 5 0 3 -2 5 -5 5 -3 0 -5 -2 -5
-5z"/>
<path d="M820 385 c0 -3 2 -5 5 -5 3 0 5 2 5 5 0 3 -2 5 -5 5 -3 0 -5 -2 -5
-5z"/>
<path d="M930 385 c0 -3 2 -5 5 -5 3 0 5 2 5 5 0 3 -2 5 -5 5 -3 0 -5 -2 -5
-5z"/>
<path d="M900 375 c0 -3 2 -5 5 -5 3 0 5 2 5 5 0 3 -2 5 -5 5 -3 0 -5 -2 -5
-5z"/>
<path d="M280 365 c0 -3 2 -5 5 -5 3 0 5 2 5 5 0 3 -2 5 -5 5 -3 0 -5 -2 -5
-5z"/>
<path d="M600 365 c0 -3 2 -5 5 -5 3 0 5 2 5 5 0 3 -2 5 -5 5 -3 0 -5 -2 -5
-5z"/>
<path d="M820 365 c0 -3 2 -5 5 -5 3 0 5 2 5 5 0 3 -2 5 -5 5 -3 0 -5 -2 -5
-5z"/>
<path d="M920 365 c0 -3 2 -5 5 -5 3 0 5 2 5 5 0 3 -2 5 -5 5 -3 0 -5 -2 -5
-5z"/>
<path d="M700 355 c0 -3 2 -5 5 -5 3 0 5 2 5 5 0 3 -2 5 -5 5 -3 0 -5 -2 -5
-5z"/>
<path d="M760 345 c0 -3 2 -5 5 -5 3 0 5 2 5 5 0 3 -2 5 -5 5 -3 0 -5 -2 -5
-5z"/>
<path d="M900 345 c0 -3 2 -5 5 -5 3 0 5 2 5 5 0 3 -2 5 -5 5 -3 0 -5 -2 -5
-5z"/>
<path d="M470 335 c0 -3 2 -5 5 -5 3 0 5 2 5 5 0 3 -2 5 -5 5 -3 0 -5 -2 -5
-5z"/>
<path d="M650 335 c0 -3 2 -5 5 -5 3 0 5 2 5 5 0 3 -2 5 -5 5 -3 0 -5 -2 -5
-5z"/>
<path d="M730 335 c0 -3 2 -5 5 -5 3 0 5 2 5 5 0 3 -2 5 -5 5 -3 0 -5 -2 -5
-5z"/>
<path d="M790 335 c0 -3 2 -5 5 -5 3 0 5 2 5 5 0 3 -2 5 -5 5 -3 0 -5 -2 -5
-5z"/>
<path d="M870 335 c0 -3 2 -5 5 -5 3 0 5 2 5 5 0 3 -2 5 -5 5 -3 0 -5 -2 -5
-5z"/>
<path d="M110 325 c0 -3 2 -5 5 -5 3 0 5 2 5 5 0 3 -2 5 -5 5 -3 0 -5 -2 -5
-5z"/>
<path d="M430 325 c0 -3 2 -5 5 -5 3 0 5 2 5 5 0 3 -2 5 -5 5 -3 0 -5 -2 -5
-5z"/>
<path d="M686 317 c3 -10 9 -15 12 -12 3 3 0 11 -7 18 -10 9 -11 8 -5 -6z"/>
<path d="M750 325 c0 -3 2 -5 5 -5 3 0 5 2 5 5 0 3 -2 5 -5 5 -3 0 -5 -2 -5
-5z"/>
<path d="M770 325 c0 -3 2 -5 5 -5 3 0 5 2 5 5 0 3 -2 5 -5 5 -3 0 -5 -2 -5
-5z"/>
<path d="M810 325 c0 -3 2 -5 5 -5 3 0 5 2 5 5 0 3 -2 5 -5 5 -3 0 -5 -2 -5
-5z"/>
<path d="M920 325 c0 -3 2 -5 5 -5 3 0 5 2 5 5 0 3 -2 5 -5 5 -3 0 -5 -2 -5
-5z"/>
<path d="M390 315 c0 -3 2 -5 5 -5 3 0 5 2 5 5 0 3 -2 5 -5 5 -3 0 -5 -2 -5
-5z"/>
<path d="M710 315 c0 -3 2 -5 5 -5 3 0 5 2 5 5 0 3 -2 5 -5 5 -3 0 -5 -2 -5
-5z"/>
<path d="M370 305 c0 -3 2 -5 5 -5 3 0 5 2 5 5 0 3 -2 5 -5 5 -3 0 -5 -2 -5
-5z"/>
<path d="M603 303 c4 -3 10 -3 14 0 3 4 0 7 -7 7 -7 0 -10 -3 -7 -7z"/>
<path d="M930 305 c0 -3 2 -5 5 -5 3 0 5 2 5 5 0 3 -2 5 -5 5 -3 0 -5 -2 -5
-5z"/>
<path d="M450 285 c0 -3 2 -5 5 -5 3 0 5 2 5 5 0 3 -2 5 -5 5 -3 0 -5 -2 -5
-5z"/>
<path d="M470 285 c0 -3 2 -5 5 -5 3 0 5 2 5 5 0 3 -2 5 -5 5 -3 0 -5 -2 -5
-5z"/>
<path d="M764 278 c-4 -7 -3 -8 4 -4 7 4 12 9 12 12 0 8 -9 4 -16 -8z"/>
<path d="M790 285 c0 -3 2 -5 5 -5 3 0 5 2 5 5 0 3 -2 5 -5 5 -3 0 -5 -2 -5
-5z"/>
<path d="M320 275 c0 -3 2 -5 5 -5 3 0 5 2 5 5 0 3 -2 5 -5 5 -3 0 -5 -2 -5
-5z"/>
<path d="M350 275 c0 -3 2 -5 5 -5 3 0 5 2 5 5 0 3 -2 5 -5 5 -3 0 -5 -2 -5
-5z"/>
<path d="M640 275 c0 -3 2 -5 5 -5 3 0 5 2 5 5 0 3 -2 5 -5 5 -3 0 -5 -2 -5
-5z"/>
<path d="M670 275 c0 -3 2 -5 5 -5 3 0 5 2 5 5 0 3 -2 5 -5 5 -3 0 -5 -2 -5
-5z"/>
<path d="M864 268 c-4 -7 -3 -8 4 -4 7 4 12 9 12 12 0 8 -9 4 -16 -8z"/>
<path d="M540 265 c0 -3 2 -5 5 -5 3 0 5 2 5 5 0 3 -2 5 -5 5 -3 0 -5 -2 -5
-5z"/>
<path d="M350 250 c0 -5 5 -10 11 -10 5 0 7 5 4 10 -3 6 -8 10 -11 10 -2 0 -4
-4 -4 -10z"/>
<path d="M440 255 c0 -3 2 -5 5 -5 3 0 5 2 5 5 0 3 -2 5 -5 5 -3 0 -5 -2 -5
-5z"/>
<path d="M500 250 c0 -7 3 -10 7 -7 3 4 3 10 0 14 -4 3 -7 0 -7 -7z"/>
<path d="M620 255 c0 -3 2 -5 5 -5 3 0 5 2 5 5 0 3 -2 5 -5 5 -3 0 -5 -2 -5
-5z"/>
<path d="M740 255 c0 -3 2 -5 5 -5 3 0 5 2 5 5 0 3 -2 5 -5 5 -3 0 -5 -2 -5
-5z"/>
<path d="M760 255 c0 -3 2 -5 5 -5 3 0 5 2 5 5 0 3 -2 5 -5 5 -3 0 -5 -2 -5
-5z"/>
<path d="M820 250 c0 -7 3 -10 7 -7 3 4 3 10 0 14 -4 3 -7 0 -7 -7z"/>
<path d="M940 255 c0 -3 2 -5 5 -5 3 0 5 2 5 5 0 3 -2 5 -5 5 -3 0 -5 -2 -5
-5z"/>
<path d="M40 245 c0 -3 2 -5 5 -5 3 0 5 2 5 5 0 3 -2 5 -5 5 -3 0 -5 -2 -5 -5z"/>
<path d="M330 245 c0 -3 2 -5 5 -5 3 0 5 2 5 5 0 3 -2 5 -5 5 -3 0 -5 -2 -5
-5z"/>
<path d="M580 245 c0 -3 2 -5 5 -5 3 0 5 2 5 5 0 3 -2 5 -5 5 -3 0 -5 -2 -5
-5z"/>
<path d="M650 245 c0 -3 2 -5 5 -5 3 0 5 2 5 5 0 3 -2 5 -5 5 -3 0 -5 -2 -5
-5z"/>
<path d="M673 243 c4 -3 10 -3 14 0 3 4 0 7 -7 7 -7 0 -10 -3 -7 -7z"/>
<path d="M894 238 c-4 -7 -3 -8 4 -4 7 4 12 9 12 12 0 8 -9 4 -16 -8z"/>
<path d="M450 225 c0 -3 2 -5 5 -5 3 0 5 2 5 5 0 3 -2 5 -5 5 -3 0 -5 -2 -5
-5z"/>
<path d="M510 225 c0 -3 2 -5 5 -5 3 0 5 2 5 5 0 3 -2 5 -5 5 -3 0 -5 -2 -5
-5z"/>
<path d="M720 225 c0 -3 2 -5 5 -5 3 0 5 2 5 5 0 3 -2 5 -5 5 -3 0 -5 -2 -5
-5z"/>
<path d="M763 223 c4 -3 10 -3 14 0 3 4 0 7 -7 7 -7 0 -10 -3 -7 -7z"/>
<path d="M0 215 c0 -3 2 -5 5 -5 3 0 5 2 5 5 0 3 -2 5 -5 5 -3 0 -5 -2 -5 -5z"/>
<path d="M320 215 c0 -3 2 -5 5 -5 3 0 5 2 5 5 0 3 -2 5 -5 5 -3 0 -5 -2 -5
-5z"/>
<path d="M580 215 c0 -3 2 -5 5 -5 3 0 5 2 5 5 0 3 -2 5 -5 5 -3 0 -5 -2 -5
-5z"/>
<path d="M640 215 c0 -3 2 -5 5 -5 3 0 5 2 5 5 0 3 -2 5 -5 5 -3 0 -5 -2 -5
-5z"/>
<path d="M900 210 c0 -7 3 -10 7 -7 3 4 3 10 0 14 -4 3 -7 0 -7 -7z"/>
<path d="M620 205 c0 -3 2 -5 5 -5 3 0 5 2 5 5 0 3 -2 5 -5 5 -3 0 -5 -2 -5
-5z"/>
<path d="M940 205 c0 -3 2 -5 5 -5 3 0 5 2 5 5 0 3 -2 5 -5 5 -3 0 -5 -2 -5
-5z"/>
<path d="M850 195 c0 -3 2 -5 5 -5 3 0 5 2 5 5 0 3 -2 5 -5 5 -3 0 -5 -2 -5
-5z"/>
<path d="M320 185 c0 -3 2 -5 5 -5 3 0 5 2 5 5 0 3 -2 5 -5 5 -3 0 -5 -2 -5
-5z"/>
<path d="M440 185 c0 -3 2 -5 5 -5 3 0 5 2 5 5 0 3 -2 5 -5 5 -3 0 -5 -2 -5
-5z"/>
<path d="M648 163 c5 -21 7 -23 10 -9 2 10 0 22 -6 28 -6 6 -7 0 -4 -19z"/>
<path d="M760 185 c0 -3 2 -5 5 -5 3 0 5 2 5 5 0 3 -2 5 -5 5 -3 0 -5 -2 -5
-5z"/>
<path d="M920 185 c0 -3 2 -5 5 -5 3 0 5 2 5 5 0 3 -2 5 -5 5 -3 0 -5 -2 -5
-5z"/>
<path d="M370 175 c0 -3 2 -5 5 -5 3 0 5 2 5 5 0 3 -2 5 -5 5 -3 0 -5 -2 -5
-5z"/>
<path d="M400 175 c0 -3 2 -5 5 -5 3 0 5 2 5 5 0 3 -2 5 -5 5 -3 0 -5 -2 -5
-5z"/>
<path d="M720 175 c0 -3 2 -5 5 -5 3 0 5 2 5 5 0 3 -2 5 -5 5 -3 0 -5 -2 -5
-5z"/>
<path d="M330 165 c0 -3 2 -5 5 -5 3 0 5 2 5 5 0 3 -2 5 -5 5 -3 0 -5 -2 -5
-5z"/>
<path d="M420 165 c0 -3 2 -5 5 -5 3 0 5 2 5 5 0 3 -2 5 -5 5 -3 0 -5 -2 -5
-5z"/>
<path d="M740 165 c0 -3 2 -5 5 -5 3 0 5 2 5 5 0 3 -2 5 -5 5 -3 0 -5 -2 -5
-5z"/>
<path d="M920 165 c0 -3 2 -5 5 -5 3 0 5 2 5 5 0 3 -2 5 -5 5 -3 0 -5 -2 -5
-5z"/>
<path d="M70 155 c0 -3 2 -5 5 -5 3 0 5 2 5 5 0 3 -2 5 -5 5 -3 0 -5 -2 -5 -5z"/>
<path d="M390 150 c0 -7 3 -10 7 -7 3 4 3 10 0 14 -4 3 -7 0 -7 -7z"/>
<path d="M710 150 c0 -7 3 -10 7 -7 3 4 3 10 0 14 -4 3 -7 0 -7 -7z"/>
<path d="M10 145 c0 -3 2 -5 5 -5 3 0 5 2 5 5 0 3 -2 5 -5 5 -3 0 -5 -2 -5 -5z"/>
<path d="M50 145 c0 -3 2 -5 5 -5 3 0 5 2 5 5 0 3 -2 5 -5 5 -3 0 -5 -2 -5 -5z"/>
<path d="M250 145 c0 -3 2 -5 5 -5 3 0 5 2 5 5 0 3 -2 5 -5 5 -3 0 -5 -2 -5
-5z"/>
<path d="M330 145 c0 -3 2 -5 5 -5 3 0 5 2 5 5 0 3 -2 5 -5 5 -3 0 -5 -2 -5
-5z"/>
<path d="M370 145 c0 -3 2 -5 5 -5 3 0 5 2 5 5 0 3 -2 5 -5 5 -3 0 -5 -2 -5
-5z"/>
<path d="M470 145 c0 -3 2 -5 5 -5 3 0 5 2 5 5 0 3 -2 5 -5 5 -3 0 -5 -2 -5
-5z"/>
<path d="M530 145 c0 -3 2 -5 5 -5 3 0 5 2 5 5 0 3 -2 5 -5 5 -3 0 -5 -2 -5
-5z"/>
<path d="M570 145 c0 -3 2 -5 5 -5 3 0 5 2 5 5 0 3 -2 5 -5 5 -3 0 -5 -2 -5
-5z"/>
<path d="M690 145 c0 -3 2 -5 5 -5 3 0 5 2 5 5 0 3 -2 5 -5 5 -3 0 -5 -2 -5
-5z"/>
<path d="M740 145 c0 -3 2 -5 5 -5 3 0 5 2 5 5 0 3 -2 5 -5 5 -3 0 -5 -2 -5
-5z"/>
<path d="M790 145 c0 -3 2 -5 5 -5 3 0 5 2 5 5 0 3 -2 5 -5 5 -3 0 -5 -2 -5
-5z"/>
<path d="M850 145 c0 -3 2 -5 5 -5 3 0 5 2 5 5 0 3 -2 5 -5 5 -3 0 -5 -2 -5
-5z"/>
<path d="M888 143 c7 -3 16 -2 19 1 4 3 -2 6 -13 5 -11 0 -14 -3 -6 -6z"/>
<path d="M930 130 c0 -7 3 -10 7 -7 3 4 3 10 0 14 -4 3 -7 0 -7 -7z"/>
<path d="M270 125 c0 -3 2 -5 5 -5 3 0 5 2 5 5 0 3 -2 5 -5 5 -3 0 -5 -2 -5
-5z"/>
<path d="M390 125 c0 -3 2 -5 5 -5 3 0 5 2 5 5 0 3 -2 5 -5 5 -3 0 -5 -2 -5
-5z"/>
<path d="M590 125 c0 -3 2 -5 5 -5 3 0 5 2 5 5 0 3 -2 5 -5 5 -3 0 -5 -2 -5
-5z"/>
<path d="M610 125 c0 -3 2 -5 5 -5 3 0 5 2 5 5 0 3 -2 5 -5 5 -3 0 -5 -2 -5
-5z"/>
<path d="M710 125 c0 -3 2 -5 5 -5 3 0 5 2 5 5 0 3 -2 5 -5 5 -3 0 -5 -2 -5
-5z"/>
<path d="M810 125 c0 -3 2 -5 5 -5 3 0 5 2 5 5 0 3 -2 5 -5 5 -3 0 -5 -2 -5
-5z"/>
<path d="M890 125 c0 -3 2 -5 5 -5 3 0 5 2 5 5 0 3 -2 5 -5 5 -3 0 -5 -2 -5
-5z"/>
<path d="M910 125 c0 -3 2 -5 5 -5 3 0 5 2 5 5 0 3 -2 5 -5 5 -3 0 -5 -2 -5
-5z"/>
<path d="M350 115 c0 -3 2 -5 5 -5 3 0 5 2 5 5 0 3 -2 5 -5 5 -3 0 -5 -2 -5
-5z"/>
<path d="M425 110 c3 -5 8 -10 11 -10 3 0 2 5 -1 10 -3 6 -8 10 -11 10 -3 0
-2 -4 1 -10z"/>
<path d="M670 115 c0 -3 2 -5 5 -5 3 0 5 2 5 5 0 3 -2 5 -5 5 -3 0 -5 -2 -5
-5z"/>
<path d="M830 115 c0 -3 2 -5 5 -5 3 0 5 2 5 5 0 3 -2 5 -5 5 -3 0 -5 -2 -5
-5z"/>
<path d="M110 105 c0 -3 2 -5 5 -5 3 0 5 2 5 5 0 3 -2 5 -5 5 -3 0 -5 -2 -5
-5z"/>
<path d="M743 103 c4 -3 10 -3 14 0 3 4 0 7 -7 7 -7 0 -10 -3 -7 -7z"/>
<path d="M810 105 c0 -3 2 -5 5 -5 3 0 5 2 5 5 0 3 -2 5 -5 5 -3 0 -5 -2 -5
-5z"/>
<path d="M0 95 c0 -3 2 -5 5 -5 3 0 5 2 5 5 0 3 -2 5 -5 5 -3 0 -5 -2 -5 -5z"/>
<path d="M320 95 c0 -3 2 -5 5 -5 3 0 5 2 5 5 0 3 -2 5 -5 5 -3 0 -5 -2 -5 -5z"/>
<path d="M355 90 c3 -5 8 -10 11 -10 3 0 2 5 -1 10 -3 6 -8 10 -11 10 -3 0 -2
-4 1 -10z"/>
<path d="M640 95 c0 -3 2 -5 5 -5 3 0 5 2 5 5 0 3 -2 5 -5 5 -3 0 -5 -2 -5 -5z"/>
<path d="M677 89 c7 -7 15 -10 18 -7 3 3 -2 9 -12 12 -14 6 -15 5 -6 -5z"/>
<path d="M900 95 c0 -3 2 -5 5 -5 3 0 5 2 5 5 0 3 -2 5 -5 5 -3 0 -5 -2 -5 -5z"/>
<path d="M40 85 c0 -3 2 -5 5 -5 3 0 5 2 5 5 0 3 -2 5 -5 5 -3 0 -5 -2 -5 -5z"/>
<path d="M845 80 c3 -5 8 -10 11 -10 3 0 2 5 -1 10 -3 6 -8 10 -11 10 -3 0 -2
-4 1 -10z"/>
<path d="M720 75 c0 -3 2 -5 5 -5 3 0 5 2 5 5 0 3 -2 5 -5 5 -3 0 -5 -2 -5 -5z"/>
<path d="M760 70 c0 -7 3 -10 7 -7 3 4 3 10 0 14 -4 3 -7 0 -7 -7z"/>
<path d="M815 70 c3 -5 8 -10 11 -10 3 0 2 5 -1 10 -3 6 -8 10 -11 10 -3 0 -2
-4 1 -10z"/>
<path d="M440 65 c0 -3 2 -5 5 -5 3 0 5 2 5 5 0 3 -2 5 -5 5 -3 0 -5 -2 -5 -5z"/>
<path d="M500 65 c0 -3 2 -5 5 -5 3 0 5 2 5 5 0 3 -2 5 -5 5 -3 0 -5 -2 -5 -5z"/>
<path d="M700 65 c0 -3 2 -5 5 -5 3 0 5 2 5 5 0 3 -2 5 -5 5 -3 0 -5 -2 -5 -5z"/>
<path d="M930 65 c0 -3 2 -5 5 -5 3 0 5 2 5 5 0 3 -2 5 -5 5 -3 0 -5 -2 -5 -5z"/>
<path d="M900 55 c0 -3 2 -5 5 -5 3 0 5 2 5 5 0 3 -2 5 -5 5 -3 0 -5 -2 -5 -5z"/>
<path d="M600 45 c0 -3 2 -5 5 -5 3 0 5 2 5 5 0 3 -2 5 -5 5 -3 0 -5 -2 -5 -5z"/>
<path d="M760 45 c0 -3 2 -5 5 -5 3 0 5 2 5 5 0 3 -2 5 -5 5 -3 0 -5 -2 -5 -5z"/>
<path d="M820 45 c0 -3 2 -5 5 -5 3 0 5 2 5 5 0 3 -2 5 -5 5 -3 0 -5 -2 -5 -5z"/>
<path d="M920 45 c0 -3 2 -5 5 -5 3 0 5 2 5 5 0 3 -2 5 -5 5 -3 0 -5 -2 -5 -5z"/>
<path d="M660 35 c0 -3 2 -5 5 -5 3 0 5 2 5 5 0 3 -2 5 -5 5 -3 0 -5 -2 -5 -5z"/>
<path d="M440 25 c0 -3 2 -5 5 -5 3 0 5 2 5 5 0 3 -2 5 -5 5 -3 0 -5 -2 -5 -5z"/>
<path d="M760 25 c0 -3 2 -5 5 -5 3 0 5 2 5 5 0 3 -2 5 -5 5 -3 0 -5 -2 -5 -5z"/>
<path d="M150 15 c0 -3 2 -5 5 -5 3 0 5 2 5 5 0 3 -2 5 -5 5 -3 0 -5 -2 -5 -5z"/>
<path d="M470 15 c0 -3 2 -5 5 -5 3 0 5 2 5 5 0 3 -2 5 -5 5 -3 0 -5 -2 -5 -5z"/>
<path d="M790 15 c0 -3 2 -5 5 -5 3 0 5 2 5 5 0 3 -2 5 -5 5 -3 0 -5 -2 -5 -5z"/>
<path d="M870 15 c0 -3 2 -5 5 -5 3 0 5 2 5 5 0 3 -2 5 -5 5 -3 0 -5 -2 -5 -5z"/>
<path d="M110 5 c0 -3 2 -5 5 -5 3 0 5 2 5 5 0 3 -2 5 -5 5 -3 0 -5 -2 -5 -5z"/>
<path d="M360 5 c0 -3 2 -5 5 -5 3 0 5 2 5 5 0 3 -2 5 -5 5 -3 0 -5 -2 -5 -5z"/>
<path d="M430 5 c0 -3 2 -5 5 -5 3 0 5 2 5 5 0 3 -2 5 -5 5 -3 0 -5 -2 -5 -5z"/>
<path d="M680 5 c0 -3 2 -5 5 -5 3 0 5 2 5 5 0 3 -2 5 -5 5 -3 0 -5 -2 -5 -5z"/>
<path d="M750 5 c0 -3 2 -5 5 -5 3 0 5 2 5 5 0 3 -2 5 -5 5 -3 0 -5 -2 -5 -5z"/>
<path d="M920 5 c0 -3 2 -5 5 -5 3 0 5 2 5 5 0 3 -2 5 -5 5 -3 0 -5 -2 -5 -5z"/>
</g>
  </g>
</svg>
