<?xml version="1.0" encoding="UTF-8" standalone="no"?>
<!-- Created with Inkscape (http://www.inkscape.org/) -->

<svg
   xmlns:dc="http://purl.org/dc/elements/1.1/"
   xmlns:cc="http://creativecommons.org/ns#"
   xmlns:rdf="http://www.w3.org/1999/02/22-rdf-syntax-ns#"
   xmlns:svg="http://www.w3.org/2000/svg"
   xmlns="http://www.w3.org/2000/svg"
   xmlns:sodipodi="http://sodipodi.sourceforge.net/DTD/sodipodi-0.dtd"
   xmlns:inkscape="http://www.inkscape.org/namespaces/inkscape"
   width="16px"
   height="16px"
   viewBox="0 0 16px 16px"
   version="1.1"
   id="svgMain"
   inkscape:version="0.92.2 (5c3e80d, 2017-08-06)"
   sodipodi:docname="reference_SVG.svg">
  <defs
     id="defs4542" />
  <sodipodi:namedview
     id="base"
     pagecolor="#ffffff"
     bordercolor="#666666"
     borderopacity="1.0"
     inkscape:pageopacity="0.0"
     inkscape:pageshadow="2"
     inkscape:zoom="1"
     inkscape:cx="0"
     inkscape:cy="0"
     inkscape:document-units="px"
     inkscape:current-layer="layer1"
     showgrid="false"
     units="px"
     inkscape:window-width="1024"
     inkscape:window-height="768"
     inkscape:window-x="-8"
     inkscape:window-y="-8"
     inkscape:window-maximized="1" />
  <metadata
     id="metadata1">
    <rdf:RDF>
      <cc:Work
         rdf:about="">
        <dc:format>image/svg+xml</dc:format>
        <dc:type
           rdf:resource="http://purl.org/dc/dcmitype/StillImage" />
        <dc:title />
      </cc:Work>
    </rdf:RDF>
  </metadata>
  <g transform="translate(-16,-16) scale(0.5,0.5)"
     inkscape:label="Layer 1"
     inkscape:groupmode="layer"
     id="layer1">
    <!-- INSERT MARKER -->
<g transform="translate(0.000000,96.000000) scale(0.100000,-0.100000)"
fill="#080a10" stroke="none">
<path d="M0 480 l0 -480 480 0 480 0 0 480 0 480 -480 0 -480 0 0 -480z"/>
</g>
<g transform="translate(0.000000,96.000000) scale(0.100000,-0.100000)"
fill="#080a0f" stroke="none">
<path d="M20 950 c0 -7 3 -10 7 -7 3 4 3 10 0 14 -4 3 -7 0 -7 -7z"/>
<path d="M47 940 c4 -16 34 -20 63 -10 3 2 8 2 11 2 3 -1 6 6 6 13 0 12 -3 12
-15 3 -7 -7 -23 -13 -34 -13 -19 -2 -19 -1 -4 10 15 11 14 13 -8 13 -18 0 -22
-5 -19 -18z"/>
<path d="M250 950 c0 -7 3 -10 7 -7 3 4 3 10 0 14 -4 3 -7 0 -7 -7z"/>
<path d="M277 939 c6 -23 13 -24 39 -4 21 16 21 16 -17 20 -22 3 -26 0 -22
-16z m43 7 c0 -2 -7 -7 -16 -10 -8 -3 -12 -2 -9 4 6 10 25 14 25 6z"/>
<path d="M340 950 c0 -7 3 -10 7 -7 3 4 3 10 0 14 -4 3 -7 0 -7 -7z"/>
<path d="M367 940 c4 -16 34 -20 63 -10 3 2 8 2 11 2 3 -1 6 6 6 13 0 12 -3
12 -15 3 -7 -7 -23 -13 -34 -13 -19 -2 -19 -1 -4 10 15 11 14 13 -8 13 -18 0
-22 -5 -19 -18z"/>
<path d="M570 950 c0 -7 3 -10 7 -7 3 4 3 10 0 14 -4 3 -7 0 -7 -7z"/>
<path d="M597 939 c6 -23 13 -24 39 -4 21 16 21 16 -17 20 -22 3 -26 0 -22
-16z m43 7 c0 -2 -7 -7 -16 -10 -8 -3 -12 -2 -9 4 6 10 25 14 25 6z"/>
<path d="M660 950 c0 -7 3 -10 7 -7 3 4 3 10 0 14 -4 3 -7 0 -7 -7z"/>
<path d="M687 940 c4 -16 34 -20 63 -10 3 2 8 2 11 2 3 -1 6 6 6 13 0 12 -3
12 -15 3 -7 -7 -23 -13 -34 -13 -19 -2 -19 -1 -4 10 15 11 14 13 -8 13 -18 0
-22 -5 -19 -18z"/>
<path d="M890 950 c0 -7 3 -10 7 -7 3 4 3 10 0 14 -4 3 -7 0 -7 -7z"/>
<path d="M917 939 c6 -22 12 -23 33 -8 12 9 11 10 -5 5 -19 -6 -19 -5 -2 8 16
13 16 14 -7 14 -18 0 -22 -5 -19 -19z"/>
<path d="M0 945 c0 -3 2 -5 5 -5 3 0 5 2 5 5 0 3 -2 5 -5 5 -3 0 -5 -2 -5 -5z"/>
<path d="M155 944 c2 -4 -2 -19 -10 -34 -11 -22 -11 -27 0 -27 7 0 11 7 7 15
-3 9 -1 13 5 9 11 -7 11 29 0 38 -4 3 -5 2 -2 -1z"/>
<path d="M188 938 c7 -9 9 -18 3 -20 -5 -1 -3 -12 6 -23 15 -19 15 -19 8 4 -5
15 -4 21 3 17 6 -4 16 4 23 16 9 19 9 21 -1 11 -10 -9 -18 -9 -34 -1 -18 10
-19 9 -8 -4z"/>
<path d="M475 944 c2 -4 -2 -19 -10 -34 -11 -22 -11 -27 0 -27 7 0 11 7 7 15
-3 9 -1 13 5 9 11 -7 11 29 0 38 -4 3 -5 2 -2 -1z"/>
<path d="M508 938 c7 -9 9 -18 3 -20 -5 -1 -3 -12 6 -23 15 -19 15 -19 8 4 -5
15 -4 21 3 17 6 -4 16 4 23 16 9 19 9 21 -1 11 -10 -9 -18 -9 -34 -1 -18 10
-19 9 -8 -4z"/>
<path d="M795 944 c2 -4 -2 -19 -10 -34 -11 -22 -11 -27 0 -27 7 0 11 7 7 15
-3 9 -1 13 5 9 11 -7 11 29 0 38 -4 3 -5 2 -2 -1z"/>
<path d="M828 938 c7 -9 9 -18 3 -20 -5 -1 -3 -12 6 -23 15 -19 15 -19 8 4 -5
15 -4 21 3 17 6 -4 16 4 23 16 9 19 9 21 -1 11 -10 -9 -18 -9 -34 -1 -18 10
-19 9 -8 -4z"/>
<path d="M23 923 c4 -3 10 -3 14 0 3 4 0 7 -7 7 -7 0 -10 -3 -7 -7z"/>
<path d="M253 923 c4 -3 10 -3 14 0 3 4 0 7 -7 7 -7 0 -10 -3 -7 -7z"/>
<path d="M343 923 c4 -3 10 -3 14 0 3 4 0 7 -7 7 -7 0 -10 -3 -7 -7z"/>
<path d="M573 923 c4 -3 10 -3 14 0 3 4 0 7 -7 7 -7 0 -10 -3 -7 -7z"/>
<path d="M663 923 c4 -3 10 -3 14 0 3 4 0 7 -7 7 -7 0 -10 -3 -7 -7z"/>
<path d="M893 923 c4 -3 10 -3 14 0 3 4 0 7 -7 7 -7 0 -10 -3 -7 -7z"/>
<path d="M29 887 c29 -32 31 -33 24 -7 -3 12 -8 18 -11 15 -3 -2 -12 1 -21 7
-9 7 -5 0 8 -15z"/>
<path d="M63 895 c0 -8 4 -12 8 -9 4 2 16 -7 27 -21 14 -17 22 -21 25 -13 4 8
8 4 13 -10 4 -16 12 -21 24 -17 10 3 21 2 23 -3 8 -12 -9 -36 -20 -29 -5 3
-10 0 -10 -8 0 -8 4 -12 9 -9 4 3 8 1 8 -5 0 -5 -6 -12 -12 -15 -7 -3 -2 -3
11 0 16 4 21 3 17 -5 -4 -6 -2 -11 3 -11 14 0 14 17 1 25 -14 9 -12 24 3 21 6
-1 23 -8 37 -15 23 -11 24 -11 6 3 -11 9 -17 17 -13 17 26 5 33 4 44 -4 7 -5
10 -14 6 -21 -3 -6 -2 -8 2 -3 15 13 13 46 -2 40 -8 -3 -13 -2 -12 3 1 5 1 18
0 29 -1 16 -3 17 -10 6 -5 -8 -7 -21 -4 -30 4 -13 3 -13 -5 -2 -5 7 -8 23 -6
35 2 11 -2 5 -9 -14 -14 -41 -40 -53 -33 -16 4 20 1 24 -18 22 -13 -2 -23 3
-23 10 0 6 6 10 12 7 7 -2 15 3 19 13 5 12 3 14 -6 8 -20 -14 -71 -11 -76 5
-3 9 0 11 8 6 8 -5 11 -4 6 3 -3 5 0 13 6 15 9 4 10 6 1 6 -6 1 -15 -4 -18 -9
-4 -6 -13 -7 -24 -1 -13 7 -18 6 -18 -4z"/>
<path d="M258 889 c12 -14 20 -28 17 -30 -2 -3 6 -5 20 -5 13 0 21 4 19 8 -3
5 -10 6 -15 3 -5 -4 -13 4 -18 17 -6 13 -10 19 -10 14 -1 -5 -9 -2 -18 5 -10
7 -8 2 5 -12z"/>
<path d="M293 896 c0 -7 6 -13 14 -13 7 0 13 4 13 8 0 4 -6 9 -13 12 -8 3 -14
0 -14 -7z"/>
<path d="M349 887 c29 -32 31 -33 24 -7 -3 12 -8 18 -11 15 -3 -2 -12 1 -21 7
-9 7 -5 0 8 -15z"/>
<path d="M383 895 c0 -8 4 -12 8 -9 4 2 16 -7 27 -21 14 -17 22 -21 25 -13 4
8 8 4 13 -10 4 -16 12 -21 24 -17 10 3 21 2 23 -3 8 -12 -9 -36 -20 -29 -5 3
-10 0 -10 -8 0 -8 4 -12 9 -9 4 3 8 1 8 -5 0 -5 -6 -12 -12 -15 -7 -3 -2 -3
11 0 16 4 21 3 17 -5 -4 -6 -2 -11 3 -11 14 0 14 17 1 25 -14 9 -12 24 3 21 6
-1 23 -8 37 -15 23 -11 24 -11 6 3 -11 9 -17 17 -13 17 26 5 33 4 44 -4 7 -5
10 -14 6 -21 -3 -6 -2 -8 2 -3 15 13 13 46 -2 40 -8 -3 -13 -2 -12 3 1 5 1 18
0 29 -1 16 -3 17 -10 6 -5 -8 -7 -21 -4 -30 4 -13 3 -13 -5 -2 -5 7 -8 23 -6
35 2 11 -2 5 -9 -14 -14 -41 -40 -53 -33 -16 4 20 1 24 -18 22 -13 -2 -23 3
-23 10 0 6 6 10 12 7 7 -2 15 3 19 13 5 12 3 14 -6 8 -20 -14 -71 -11 -76 5
-3 9 0 11 8 6 8 -5 11 -4 6 3 -3 5 0 13 6 15 9 4 10 6 1 6 -6 1 -15 -4 -18 -9
-4 -6 -13 -7 -24 -1 -13 7 -18 6 -18 -4z"/>
<path d="M578 889 c12 -14 20 -28 17 -30 -2 -3 6 -5 20 -5 13 0 21 4 19 8 -3
5 -10 6 -15 3 -5 -4 -13 4 -18 17 -6 13 -10 19 -10 14 -1 -5 -9 -2 -18 5 -10
7 -8 2 5 -12z"/>
<path d="M613 896 c0 -7 6 -13 14 -13 7 0 13 4 13 8 0 4 -6 9 -13 12 -8 3 -14
0 -14 -7z"/>
<path d="M669 887 c29 -32 31 -33 24 -7 -3 12 -8 18 -11 15 -3 -2 -12 1 -21 7
-9 7 -5 0 8 -15z"/>
<path d="M703 895 c0 -8 4 -12 8 -9 4 2 16 -7 27 -21 14 -17 22 -21 25 -13 4
8 8 4 13 -10 4 -16 12 -21 24 -17 10 3 21 2 23 -3 8 -12 -9 -36 -20 -29 -5 3
-10 0 -10 -8 0 -8 4 -12 9 -9 4 3 8 1 8 -5 0 -5 -6 -12 -12 -15 -7 -3 -2 -3
11 0 16 4 21 3 17 -5 -4 -6 -2 -11 3 -11 14 0 14 17 1 25 -14 9 -12 24 3 21 6
-1 23 -8 37 -15 23 -11 24 -11 6 3 -11 9 -17 17 -13 17 26 5 33 4 44 -4 7 -5
10 -14 6 -21 -3 -6 -2 -8 2 -3 15 13 13 46 -2 40 -8 -3 -13 -2 -12 3 1 5 1 18
0 29 -1 16 -3 17 -10 6 -5 -8 -7 -21 -4 -30 4 -13 3 -13 -5 -2 -5 7 -8 23 -6
35 2 11 -2 5 -9 -14 -14 -41 -40 -53 -33 -16 4 20 1 24 -18 22 -13 -2 -23 3
-23 10 0 6 6 10 12 7 7 -2 15 3 19 13 5 12 3 14 -6 8 -20 -14 -71 -11 -76 5
-3 9 0 11 8 6 8 -5 11 -4 6 3 -3 5 0 13 6 15 9 4 10 6 1 6 -6 1 -15 -4 -18 -9
-4 -6 -13 -7 -24 -1 -13 7 -18 6 -18 -4z"/>
<path d="M898 889 c12 -14 20 -28 17 -30 -2 -3 6 -5 20 -5 13 0 21 4 19 8 -3
5 -10 6 -15 3 -5 -4 -13 4 -18 17 -6 13 -10 19 -10 14 -1 -5 -9 -2 -18 5 -10
7 -8 2 5 -12z"/>
<path d="M933 896 c0 -7 6 -13 14 -13 7 0 13 4 13 8 0 4 -6 9 -13 12 -8 3 -14
0 -14 -7z"/>
<path d="M220 885 c0 -3 2 -5 5 -5 3 0 5 2 5 5 0 3 -2 5 -5 5 -3 0 -5 -2 -5
-5z"/>
<path d="M540 885 c0 -3 2 -5 5 -5 3 0 5 2 5 5 0 3 -2 5 -5 5 -3 0 -5 -2 -5
-5z"/>
<path d="M860 885 c0 -3 2 -5 5 -5 3 0 5 2 5 5 0 3 -2 5 -5 5 -3 0 -5 -2 -5
-5z"/>
<path d="M10 875 c0 -3 2 -5 5 -5 3 0 5 2 5 5 0 3 -2 5 -5 5 -3 0 -5 -2 -5 -5z"/>
<path d="M240 875 c0 -3 2 -5 5 -5 3 0 5 2 5 5 0 3 -2 5 -5 5 -3 0 -5 -2 -5
-5z"/>
<path d="M330 875 c0 -3 2 -5 5 -5 3 0 5 2 5 5 0 3 -2 5 -5 5 -3 0 -5 -2 -5
-5z"/>
<path d="M560 875 c0 -3 2 -5 5 -5 3 0 5 2 5 5 0 3 -2 5 -5 5 -3 0 -5 -2 -5
-5z"/>
<path d="M650 875 c0 -3 2 -5 5 -5 3 0 5 2 5 5 0 3 -2 5 -5 5 -3 0 -5 -2 -5
-5z"/>
<path d="M880 875 c0 -3 2 -5 5 -5 3 0 5 2 5 5 0 3 -2 5 -5 5 -3 0 -5 -2 -5
-5z"/>
<path d="M70 865 c0 -3 2 -5 5 -5 3 0 5 2 5 5 0 3 -2 5 -5 5 -3 0 -5 -2 -5 -5z"/>
<path d="M210 865 c0 -3 2 -5 5 -5 3 0 5 2 5 5 0 3 -2 5 -5 5 -3 0 -5 -2 -5
-5z"/>
<path d="M390 865 c0 -3 2 -5 5 -5 3 0 5 2 5 5 0 3 -2 5 -5 5 -3 0 -5 -2 -5
-5z"/>
<path d="M530 865 c0 -3 2 -5 5 -5 3 0 5 2 5 5 0 3 -2 5 -5 5 -3 0 -5 -2 -5
-5z"/>
<path d="M710 865 c0 -3 2 -5 5 -5 3 0 5 2 5 5 0 3 -2 5 -5 5 -3 0 -5 -2 -5
-5z"/>
<path d="M850 865 c0 -3 2 -5 5 -5 3 0 5 2 5 5 0 3 -2 5 -5 5 -3 0 -5 -2 -5
-5z"/>
<path d="M15 844 c2 -4 0 -16 -6 -26 -8 -15 -8 -23 1 -32 8 -8 9 -6 4 8 -5 12
-4 17 3 13 11 -7 11 29 0 38 -4 3 -5 2 -2 -1z"/>
<path d="M48 838 c7 -9 9 -18 3 -20 -5 -1 -3 -12 6 -23 15 -19 15 -19 8 4 -5
15 -4 21 3 17 6 -4 16 4 23 16 9 19 9 21 -1 11 -10 -9 -18 -9 -34 -1 -18 10
-19 9 -8 -4z"/>
<path d="M333 843 c4 -6 0 -18 -8 -26 -19 -19 -19 -23 -1 -30 11 -4 13 -1 9
10 -4 10 -2 14 4 10 12 -7 10 29 -2 40 -4 5 -5 3 -2 -4z"/>
<path d="M368 838 c7 -9 9 -18 3 -20 -5 -1 -3 -12 6 -23 15 -19 15 -19 8 4 -5
15 -4 21 3 17 6 -4 16 4 23 16 9 19 9 21 -1 11 -10 -9 -18 -9 -34 -1 -18 10
-19 9 -8 -4z"/>
<path d="M653 843 c4 -6 0 -18 -8 -26 -19 -19 -19 -23 -1 -30 11 -4 13 -1 9
10 -4 10 -2 14 4 10 12 -7 10 29 -2 40 -4 5 -5 3 -2 -4z"/>
<path d="M688 838 c7 -9 9 -18 3 -20 -5 -1 -3 -12 6 -23 15 -19 15 -19 8 4 -5
15 -4 21 3 17 6 -4 16 4 23 16 9 19 9 21 -1 11 -10 -9 -18 -9 -34 -1 -18 10
-19 9 -8 -4z"/>
<path d="M273 833 c4 -3 10 -3 14 0 3 4 0 7 -7 7 -7 0 -10 -3 -7 -7z"/>
<path d="M593 833 c4 -3 10 -3 14 0 3 4 0 7 -7 7 -7 0 -10 -3 -7 -7z"/>
<path d="M913 833 c4 -3 10 -3 14 0 3 4 0 7 -7 7 -7 0 -10 -3 -7 -7z"/>
<path d="M113 823 c4 -3 10 -3 14 0 3 4 0 7 -7 7 -7 0 -10 -3 -7 -7z"/>
<path d="M300 825 c0 -3 2 -5 5 -5 3 0 5 2 5 5 0 3 -2 5 -5 5 -3 0 -5 -2 -5
-5z"/>
<path d="M433 823 c4 -3 10 -3 14 0 3 4 0 7 -7 7 -7 0 -10 -3 -7 -7z"/>
<path d="M620 825 c0 -3 2 -5 5 -5 3 0 5 2 5 5 0 3 -2 5 -5 5 -3 0 -5 -2 -5
-5z"/>
<path d="M753 823 c4 -3 10 -3 14 0 3 4 0 7 -7 7 -7 0 -10 -3 -7 -7z"/>
<path d="M940 825 c0 -3 2 -5 5 -5 3 0 5 2 5 5 0 3 -2 5 -5 5 -3 0 -5 -2 -5
-5z"/>
<path d="M114 791 c20 -22 26 -25 26 -13 0 4 -10 13 -22 21 -23 14 -23 14 -4
-8z"/>
<path d="M434 791 c20 -22 26 -25 26 -13 0 4 -10 13 -22 21 -23 14 -23 14 -4
-8z"/>
<path d="M754 791 c20 -22 26 -25 26 -13 0 4 -10 13 -22 21 -23 14 -23 14 -4
-8z"/>
<path d="M950 800 c0 -7 3 -10 7 -7 3 4 3 10 0 14 -4 3 -7 0 -7 -7z"/>
<path d="M80 785 c0 -3 2 -5 5 -5 3 0 5 2 5 5 0 3 -2 5 -5 5 -3 0 -5 -2 -5 -5z"/>
<path d="M400 785 c0 -3 2 -5 5 -5 3 0 5 2 5 5 0 3 -2 5 -5 5 -3 0 -5 -2 -5
-5z"/>
<path d="M720 785 c0 -3 2 -5 5 -5 3 0 5 2 5 5 0 3 -2 5 -5 5 -3 0 -5 -2 -5
-5z"/>
<path d="M35 770 c-3 -5 -13 -7 -23 -4 -14 5 -15 4 -2 -5 8 -6 10 -11 5 -11
-6 0 -11 -10 -12 -22 0 -13 1 -17 4 -10 4 9 9 10 18 2 9 -7 16 -5 26 7 12 16
12 17 -2 6 -23 -18 -32 -3 -14 24 9 13 13 23 11 23 -3 0 -7 -4 -11 -10z"/>
<path d="M100 775 c0 -3 2 -5 5 -5 3 0 5 2 5 5 0 3 -2 5 -5 5 -3 0 -5 -2 -5
-5z"/>
<path d="M355 770 c-3 -5 -13 -7 -23 -4 -13 5 -14 4 -3 -4 12 -8 11 -11 -2
-13 -12 -3 -10 -8 8 -21 22 -17 24 -17 37 0 11 15 11 16 -3 5 -23 -18 -32 -3
-14 24 9 13 13 23 11 23 -3 0 -7 -4 -11 -10z"/>
<path d="M420 775 c0 -3 2 -5 5 -5 3 0 5 2 5 5 0 3 -2 5 -5 5 -3 0 -5 -2 -5
-5z"/>
<path d="M675 770 c-3 -5 -13 -7 -23 -4 -13 5 -14 4 -3 -4 12 -8 11 -11 -2
-13 -12 -3 -10 -8 8 -21 22 -17 24 -17 37 0 11 15 11 16 -3 5 -23 -18 -32 -3
-14 24 9 13 13 23 11 23 -3 0 -7 -4 -11 -10z"/>
<path d="M740 775 c0 -3 2 -5 5 -5 3 0 5 2 5 5 0 3 -2 5 -5 5 -3 0 -5 -2 -5
-5z"/>
<path d="M70 765 c0 -3 2 -5 5 -5 3 0 5 2 5 5 0 3 -2 5 -5 5 -3 0 -5 -2 -5 -5z"/>
<path d="M390 765 c0 -3 2 -5 5 -5 3 0 5 2 5 5 0 3 -2 5 -5 5 -3 0 -5 -2 -5
-5z"/>
<path d="M710 765 c0 -3 2 -5 5 -5 3 0 5 2 5 5 0 3 -2 5 -5 5 -3 0 -5 -2 -5
-5z"/>
<path d="M87 738 c-4 -16 -14 -28 -22 -28 -8 0 -15 -5 -15 -11 0 -6 6 -9 14
-6 8 3 17 -1 20 -9 9 -23 8 -24 -13 -24 -25 0 -32 -11 -25 -37 5 -16 12 -21
32 -18 15 2 29 4 32 5 3 2 8 2 11 2 3 -1 6 6 6 13 0 12 -3 12 -15 3 -22 -19
-48 -16 -49 4 -1 10 3 18 8 18 6 0 7 -4 4 -10 -3 -5 -2 -10 2 -10 12 0 50 29
39 30 -5 0 -3 6 3 14 9 10 8 15 -3 19 -11 4 -13 1 -10 -11 5 -15 4 -14 -9 1
-18 22 -12 48 9 40 9 -3 14 1 14 13 0 15 -2 16 -9 5 -7 -11 -10 -10 -13 5 -3
15 -5 13 -11 -8z m20 -85 c-4 -3 -10 -3 -14 0 -3 4 0 7 7 7 7 0 10 -3 7 -7z"/>
<path d="M210 755 c0 -3 2 -5 5 -5 3 0 5 2 5 5 0 3 -2 5 -5 5 -3 0 -5 -2 -5
-5z"/>
<path d="M285 750 c-4 -6 -10 -8 -15 -5 -11 7 -40 -5 -40 -17 0 -5 6 -6 13 -2
8 5 8 2 -2 -9 -10 -13 -10 -17 -1 -17 6 0 14 9 17 20 3 11 9 18 13 15 4 -3 13
2 20 10 7 8 10 15 7 15 -3 0 -9 -5 -12 -10z"/>
<path d="M407 738 c-4 -16 -14 -28 -22 -28 -8 0 -15 -5 -15 -11 0 -6 6 -9 14
-6 8 3 17 -1 20 -9 9 -23 8 -24 -13 -24 -25 0 -32 -11 -25 -37 5 -16 12 -21
32 -18 15 2 29 4 32 5 3 2 8 2 11 2 3 -1 6 6 6 13 0 12 -3 12 -15 3 -22 -19
-48 -16 -49 4 -1 10 3 18 8 18 6 0 7 -4 4 -10 -3 -5 -2 -10 2 -10 12 0 50 29
39 30 -5 0 -3 6 3 14 9 10 8 15 -3 19 -11 4 -13 1 -10 -11 5 -15 4 -14 -9 1
-18 22 -12 48 9 40 9 -3 14 1 14 13 0 15 -2 16 -9 5 -7 -11 -10 -10 -13 5 -3
15 -5 13 -11 -8z m20 -85 c-4 -3 -10 -3 -14 0 -3 4 0 7 7 7 7 0 10 -3 7 -7z"/>
<path d="M530 755 c0 -3 2 -5 5 -5 3 0 5 2 5 5 0 3 -2 5 -5 5 -3 0 -5 -2 -5
-5z"/>
<path d="M605 750 c-4 -6 -10 -8 -15 -5 -11 7 -40 -5 -40 -17 0 -5 6 -6 13 -2
8 5 8 2 -2 -9 -10 -13 -10 -17 -1 -17 6 0 14 9 17 20 3 11 9 18 13 15 4 -3 13
2 20 10 7 8 10 15 7 15 -3 0 -9 -5 -12 -10z"/>
<path d="M727 738 c-4 -16 -14 -28 -22 -28 -8 0 -15 -5 -15 -11 0 -6 6 -9 14
-6 8 3 17 -1 20 -9 9 -23 8 -24 -13 -24 -25 0 -32 -11 -25 -37 5 -16 12 -21
32 -18 15 2 29 4 32 5 3 2 8 2 11 2 3 -1 6 6 6 13 0 12 -3 12 -15 3 -22 -19
-48 -16 -49 4 -1 10 3 18 8 18 6 0 7 -4 4 -10 -3 -5 -2 -10 2 -10 12 0 50 29
39 30 -5 0 -3 6 3 14 9 10 8 15 -3 19 -11 4 -13 1 -10 -11 5 -15 4 -14 -9 1
-18 22 -12 48 9 40 9 -3 14 1 14 13 0 15 -2 16 -9 5 -7 -11 -10 -10 -13 5 -3
15 -5 13 -11 -8z m20 -85 c-4 -3 -10 -3 -14 0 -3 4 0 7 7 7 7 0 10 -3 7 -7z"/>
<path d="M850 755 c0 -3 2 -5 5 -5 3 0 5 2 5 5 0 3 -2 5 -5 5 -3 0 -5 -2 -5
-5z"/>
<path d="M925 750 c-4 -6 -10 -8 -15 -5 -11 7 -40 -5 -40 -17 0 -5 6 -6 13 -2
8 5 8 2 -2 -9 -10 -13 -10 -17 -1 -17 6 0 14 9 17 20 3 11 9 18 13 15 4 -3 13
2 20 10 7 8 10 15 7 15 -3 0 -9 -5 -12 -10z"/>
<path d="M950 745 c0 -3 2 -5 5 -5 3 0 5 2 5 5 0 3 -2 5 -5 5 -3 0 -5 -2 -5
-5z"/>
<path d="M130 735 c0 -3 2 -5 5 -5 3 0 5 2 5 5 0 3 -2 5 -5 5 -3 0 -5 -2 -5
-5z"/>
<path d="M154 722 c2 -8 11 -19 21 -24 12 -7 16 -7 11 0 -3 6 -2 12 4 14 5 1
-1 8 -14 14 -19 9 -23 8 -22 -4z m16 -7 c0 -3 -2 -5 -5 -5 -3 0 -5 2 -5 5 0 3
2 5 5 5 3 0 5 -2 5 -5z"/>
<path d="M210 735 c0 -3 2 -5 5 -5 3 0 5 2 5 5 0 3 -2 5 -5 5 -3 0 -5 -2 -5
-5z"/>
<path d="M450 735 c0 -3 2 -5 5 -5 3 0 5 2 5 5 0 3 -2 5 -5 5 -3 0 -5 -2 -5
-5z"/>
<path d="M474 722 c2 -8 11 -19 21 -24 12 -7 16 -7 11 0 -3 6 -2 12 4 14 5 1
-1 8 -14 14 -19 9 -23 8 -22 -4z m16 -7 c0 -3 -2 -5 -5 -5 -3 0 -5 2 -5 5 0 3
2 5 5 5 3 0 5 -2 5 -5z"/>
<path d="M530 735 c0 -3 2 -5 5 -5 3 0 5 2 5 5 0 3 -2 5 -5 5 -3 0 -5 -2 -5
-5z"/>
<path d="M770 735 c0 -3 2 -5 5 -5 3 0 5 2 5 5 0 3 -2 5 -5 5 -3 0 -5 -2 -5
-5z"/>
<path d="M794 722 c2 -8 11 -19 21 -24 12 -7 16 -7 11 0 -3 6 -2 12 4 14 5 1
-1 8 -14 14 -19 9 -23 8 -22 -4z m16 -7 c0 -3 -2 -5 -5 -5 -3 0 -5 2 -5 5 0 3
2 5 5 5 3 0 5 -2 5 -5z"/>
<path d="M850 735 c0 -3 2 -5 5 -5 3 0 5 2 5 5 0 3 -2 5 -5 5 -3 0 -5 -2 -5
-5z"/>
<path d="M282 713 c-15 -27 -15 -33 -1 -33 5 0 8 4 5 9 -4 5 -1 11 5 13 7 2
10 11 7 18 -3 11 -8 10 -16 -7z"/>
<path d="M315 720 c3 -5 8 -10 11 -10 2 0 4 5 4 10 0 6 -5 10 -11 10 -5 0 -7
-4 -4 -10z"/>
<path d="M602 713 c-15 -27 -15 -33 -1 -33 5 0 8 4 5 9 -4 5 -1 11 5 13 7 2
10 11 7 18 -3 11 -8 10 -16 -7z"/>
<path d="M635 720 c3 -5 8 -10 11 -10 2 0 4 5 4 10 0 6 -5 10 -11 10 -5 0 -7
-4 -4 -10z"/>
<path d="M922 713 c-15 -27 -15 -33 -1 -33 5 0 8 4 5 9 -4 5 -1 11 5 13 7 2
10 11 7 18 -3 11 -8 10 -16 -7z"/>
<path d="M950 725 c0 -3 2 -5 5 -5 3 0 5 2 5 5 0 3 -2 5 -5 5 -3 0 -5 -2 -5
-5z"/>
<path d="M22 689 c3 -8 0 -21 -7 -29 -11 -12 -11 -17 1 -28 12 -11 14 -9 14
12 0 13 4 26 9 28 5 2 2 9 -6 17 -14 12 -15 12 -11 0z"/>
<path d="M310 695 c0 -3 2 -5 5 -5 3 0 5 2 5 5 0 3 -2 5 -5 5 -3 0 -5 -2 -5
-5z"/>
<path d="M343 688 c3 -9 -1 -22 -9 -28 -8 -7 -14 -9 -14 -4 0 4 -6 2 -12 -4
-10 -10 -10 -15 0 -21 11 -7 11 -9 -2 -14 -9 -4 -15 -1 -13 5 1 6 -3 12 -10
15 -7 3 -9 -3 -6 -16 6 -24 8 -25 34 -10 11 5 17 14 14 20 -4 5 -2 9 4 9 5 0
12 -6 14 -12 3 -7 6 -1 6 14 1 14 5 28 10 30 5 2 2 10 -7 18 -14 13 -15 12 -9
-2z m-23 -43 c0 -3 -2 -5 -5 -5 -3 0 -5 2 -5 5 0 3 2 5 5 5 3 0 5 -2 5 -5z"/>
<path d="M630 695 c0 -3 2 -5 5 -5 3 0 5 2 5 5 0 3 -2 5 -5 5 -3 0 -5 -2 -5
-5z"/>
<path d="M663 688 c3 -9 -1 -22 -9 -28 -8 -7 -14 -9 -14 -4 0 4 -6 2 -12 -4
-10 -10 -10 -15 0 -21 11 -7 11 -9 -2 -14 -9 -4 -15 -1 -13 5 1 6 -3 12 -10
15 -7 3 -9 -3 -6 -16 6 -24 8 -25 34 -10 11 5 17 14 14 20 -4 5 -2 9 4 9 5 0
12 -6 14 -12 3 -7 6 -1 6 14 1 14 5 28 10 30 5 2 2 10 -7 18 -14 13 -15 12 -9
-2z m-23 -43 c0 -3 -2 -5 -5 -5 -3 0 -5 2 -5 5 0 3 2 5 5 5 3 0 5 -2 5 -5z"/>
<path d="M950 695 c0 -3 2 -5 5 -5 3 0 5 2 5 5 0 3 -2 5 -5 5 -3 0 -5 -2 -5
-5z"/>
<path d="M150 680 c0 -7 3 -10 7 -7 3 4 3 10 0 14 -4 3 -7 0 -7 -7z"/>
<path d="M200 685 c0 -3 2 -5 5 -5 3 0 5 2 5 5 0 3 -2 5 -5 5 -3 0 -5 -2 -5
-5z"/>
<path d="M227 670 c-4 -15 0 -20 14 -20 13 0 17 -5 13 -17 -5 -14 -4 -15 4 -4
5 7 16 18 23 23 11 8 10 9 -3 5 -21 -7 -46 18 -26 26 9 4 8 6 -3 6 -9 1 -19
-8 -22 -19z"/>
<path d="M470 680 c0 -7 3 -10 7 -7 3 4 3 10 0 14 -4 3 -7 0 -7 -7z"/>
<path d="M520 685 c0 -3 2 -5 5 -5 3 0 5 2 5 5 0 3 -2 5 -5 5 -3 0 -5 -2 -5
-5z"/>
<path d="M547 670 c-4 -15 0 -20 14 -20 13 0 17 -5 13 -17 -5 -14 -4 -15 4 -4
5 7 16 18 23 23 11 8 10 9 -3 5 -21 -7 -46 18 -26 26 9 4 8 6 -3 6 -9 1 -19
-8 -22 -19z"/>
<path d="M790 680 c0 -7 3 -10 7 -7 3 4 3 10 0 14 -4 3 -7 0 -7 -7z"/>
<path d="M840 685 c0 -3 2 -5 5 -5 3 0 5 2 5 5 0 3 -2 5 -5 5 -3 0 -5 -2 -5
-5z"/>
<path d="M867 670 c-4 -15 0 -20 14 -20 13 0 17 -5 13 -17 -5 -14 -4 -15 4 -4
5 7 16 18 23 23 11 8 10 9 -3 5 -21 -7 -46 18 -26 26 9 4 8 6 -3 6 -9 1 -19
-8 -22 -19z"/>
<path d="M303 673 c4 -3 10 -3 14 0 3 4 0 7 -7 7 -7 0 -10 -3 -7 -7z"/>
<path d="M623 673 c4 -3 10 -3 14 0 3 4 0 7 -7 7 -7 0 -10 -3 -7 -7z"/>
<path d="M943 673 c4 -3 10 -3 14 0 3 4 0 7 -7 7 -7 0 -10 -3 -7 -7z"/>
<path d="M135 660 c3 -5 8 -10 11 -10 3 0 2 5 -1 10 -3 6 -8 10 -11 10 -3 0
-2 -4 1 -10z"/>
<path d="M455 660 c3 -5 8 -10 11 -10 3 0 2 5 -1 10 -3 6 -8 10 -11 10 -3 0
-2 -4 1 -10z"/>
<path d="M775 660 c3 -5 8 -10 11 -10 3 0 2 5 -1 10 -3 6 -8 10 -11 10 -3 0
-2 -4 1 -10z"/>
<path d="M166 648 c3 -4 11 -5 19 -1 21 7 19 12 -4 10 -11 0 -18 -5 -15 -9z"/>
<path d="M486 648 c3 -4 11 -5 19 -1 21 7 19 12 -4 10 -11 0 -18 -5 -15 -9z"/>
<path d="M806 648 c3 -4 11 -5 19 -1 21 7 19 12 -4 10 -11 0 -18 -5 -15 -9z"/>
<path d="M947 653 c-10 -9 -9 -23 1 -23 5 0 9 7 9 15 0 17 -1 18 -10 8z"/>
<path d="M917 619 c4 -12 11 -18 20 -15 8 3 17 6 21 6 8 0 -31 29 -40 30 -3 0
-4 -9 -1 -21z m23 -4 c0 -3 -2 -5 -5 -5 -3 0 -5 2 -5 5 0 3 2 5 5 5 3 0 5 -2
5 -5z"/>
<path d="M0 625 c0 -3 2 -5 5 -5 3 0 5 2 5 5 0 3 -2 5 -5 5 -3 0 -5 -2 -5 -5z"/>
<path d="M155 624 c2 -4 -2 -19 -10 -34 -11 -22 -11 -27 0 -27 7 0 11 7 7 15
-3 9 -1 13 5 9 11 -7 11 29 0 38 -4 3 -5 2 -2 -1z"/>
<path d="M188 618 c7 -9 9 -18 3 -20 -5 -1 -3 -12 6 -23 15 -19 15 -19 8 4 -5
15 -4 21 3 17 6 -4 16 4 23 16 9 19 9 21 -1 11 -10 -9 -18 -9 -34 -1 -18 10
-19 9 -8 -4z"/>
<path d="M475 624 c2 -4 -2 -19 -10 -34 -11 -22 -11 -27 0 -27 7 0 11 7 7 15
-3 9 -1 13 5 9 11 -7 11 29 0 38 -4 3 -5 2 -2 -1z"/>
<path d="M508 618 c7 -9 9 -18 3 -20 -5 -1 -3 -12 6 -23 15 -19 15 -19 8 4 -5
15 -4 21 3 17 6 -4 16 4 23 16 9 19 9 21 -1 11 -10 -9 -18 -9 -34 -1 -18 10
-19 9 -8 -4z"/>
<path d="M795 624 c2 -4 -2 -19 -10 -34 -11 -22 -11 -27 0 -27 7 0 11 7 7 15
-3 9 -1 13 5 9 11 -7 11 29 0 38 -4 3 -5 2 -2 -1z"/>
<path d="M828 618 c7 -9 9 -18 3 -20 -5 -1 -3 -12 6 -23 15 -19 15 -19 8 4 -5
15 -4 21 3 17 6 -4 16 4 23 16 9 19 9 21 -1 11 -10 -9 -18 -9 -34 -1 -18 10
-19 9 -8 -4z"/>
<path d="M23 603 c4 -3 10 -3 14 0 3 4 0 7 -7 7 -7 0 -10 -3 -7 -7z"/>
<path d="M253 603 c4 -3 10 -3 14 0 3 4 0 7 -7 7 -7 0 -10 -3 -7 -7z"/>
<path d="M343 603 c4 -3 10 -3 14 0 3 4 0 7 -7 7 -7 0 -10 -3 -7 -7z"/>
<path d="M573 603 c4 -3 10 -3 14 0 3 4 0 7 -7 7 -7 0 -10 -3 -7 -7z"/>
<path d="M663 603 c4 -3 10 -3 14 0 3 4 0 7 -7 7 -7 0 -10 -3 -7 -7z"/>
<path d="M893 603 c4 -3 10 -3 14 0 3 4 0 7 -7 7 -7 0 -10 -3 -7 -7z"/>
<path d="M29 567 c29 -32 31 -33 24 -7 -3 12 -8 18 -11 15 -3 -2 -12 1 -21 7
-9 7 -5 0 8 -15z"/>
<path d="M63 575 c0 -8 4 -12 8 -9 4 2 16 -7 27 -21 14 -17 22 -21 25 -13 4 8
8 4 13 -10 4 -16 12 -21 24 -17 10 3 21 2 23 -3 8 -12 -9 -36 -20 -29 -5 3
-10 0 -10 -8 0 -8 4 -12 9 -9 4 3 8 1 8 -5 0 -5 -6 -12 -12 -15 -7 -3 -2 -3
11 0 16 4 21 3 17 -5 -4 -6 -2 -11 3 -11 14 0 14 17 1 25 -14 9 -12 24 3 21 6
-1 23 -8 37 -15 23 -11 24 -11 6 3 -11 9 -17 17 -13 17 26 5 33 4 44 -4 7 -5
10 -14 6 -21 -3 -6 -2 -8 2 -3 15 13 13 46 -2 40 -8 -3 -13 -2 -12 3 1 5 1 18
0 29 -1 16 -3 17 -10 6 -5 -8 -7 -21 -4 -30 4 -13 3 -13 -5 -2 -5 7 -8 23 -6
35 2 11 -2 5 -9 -14 -14 -41 -40 -53 -33 -16 4 20 1 24 -18 22 -13 -2 -23 3
-23 10 0 6 6 10 12 7 7 -2 15 3 19 13 5 12 3 14 -6 8 -20 -14 -71 -11 -76 5
-3 9 0 11 8 6 8 -5 11 -4 6 3 -3 5 0 13 6 15 9 4 10 6 1 6 -6 1 -15 -4 -18 -9
-4 -6 -13 -7 -24 -1 -13 7 -18 6 -18 -4z"/>
<path d="M258 569 c12 -14 20 -28 17 -30 -2 -3 6 -5 20 -5 13 0 21 4 19 8 -3
5 -10 6 -15 3 -5 -4 -13 4 -18 17 -6 13 -10 19 -10 14 -1 -5 -9 -2 -18 5 -10
7 -8 2 5 -12z"/>
<path d="M293 576 c0 -7 6 -13 14 -13 17 0 17 13 0 20 -8 3 -14 0 -14 -7z"/>
<path d="M349 567 c29 -32 31 -33 24 -7 -3 12 -8 18 -11 15 -3 -2 -12 1 -21 7
-9 7 -5 0 8 -15z"/>
<path d="M383 575 c0 -8 4 -12 8 -9 4 2 16 -7 27 -21 14 -17 22 -21 25 -13 4
8 8 4 13 -10 4 -16 12 -21 24 -17 10 3 21 2 23 -3 8 -12 -9 -36 -20 -29 -5 3
-10 0 -10 -8 0 -8 4 -12 9 -9 4 3 8 1 8 -5 0 -5 -6 -12 -12 -15 -7 -3 -2 -3
11 0 16 4 21 3 17 -5 -4 -6 -2 -11 3 -11 14 0 14 17 1 25 -14 9 -12 24 3 21 6
-1 23 -8 37 -15 23 -11 24 -11 6 3 -11 9 -17 17 -13 17 26 5 33 4 44 -4 7 -5
10 -14 6 -21 -3 -6 -2 -8 2 -3 15 13 13 46 -2 40 -8 -3 -13 -2 -12 3 1 5 1 18
0 29 -1 16 -3 17 -10 6 -5 -8 -7 -21 -4 -30 4 -13 3 -13 -5 -2 -5 7 -8 23 -6
35 2 11 -2 5 -9 -14 -14 -41 -40 -53 -33 -16 4 20 1 24 -18 22 -13 -2 -23 3
-23 10 0 6 6 10 12 7 7 -2 15 3 19 13 5 12 3 14 -6 8 -20 -14 -71 -11 -76 5
-3 9 0 11 8 6 8 -5 11 -4 6 3 -3 5 0 13 6 15 9 4 10 6 1 6 -6 1 -15 -4 -18 -9
-4 -6 -13 -7 -24 -1 -13 7 -18 6 -18 -4z"/>
<path d="M578 569 c12 -14 20 -28 17 -30 -2 -3 6 -5 20 -5 13 0 21 4 19 8 -3
5 -10 6 -15 3 -5 -4 -13 4 -18 17 -6 13 -10 19 -10 14 -1 -5 -9 -2 -18 5 -10
7 -8 2 5 -12z"/>
<path d="M613 576 c0 -7 6 -13 14 -13 7 0 13 4 13 8 0 4 -6 9 -13 12 -8 3 -14
0 -14 -7z"/>
<path d="M669 567 c29 -32 31 -33 24 -7 -3 12 -8 18 -11 15 -3 -2 -12 1 -21 7
-9 7 -5 0 8 -15z"/>
<path d="M703 575 c0 -8 4 -12 8 -9 4 2 16 -7 27 -21 14 -17 22 -21 25 -13 4
8 8 4 13 -10 4 -16 12 -21 24 -17 10 3 21 2 23 -3 8 -12 -9 -36 -20 -29 -5 3
-10 0 -10 -8 0 -8 4 -12 9 -9 4 3 8 1 8 -5 0 -5 -6 -12 -12 -15 -7 -3 -2 -3
11 0 16 4 21 3 17 -5 -4 -6 -2 -11 3 -11 14 0 14 17 1 25 -14 9 -12 24 3 21 6
-1 23 -8 37 -15 23 -11 24 -11 6 3 -11 9 -17 17 -13 17 26 5 33 4 44 -4 7 -5
10 -14 6 -21 -3 -6 -2 -8 2 -3 15 13 13 46 -2 40 -8 -3 -13 -2 -12 3 1 5 1 18
0 29 -1 16 -3 17 -10 6 -5 -8 -7 -21 -4 -30 4 -13 3 -13 -5 -2 -5 7 -8 23 -6
35 2 11 -2 5 -9 -14 -14 -41 -40 -53 -33 -16 4 20 1 24 -18 22 -13 -2 -23 3
-23 10 0 6 6 10 12 7 7 -2 15 3 19 13 5 12 3 14 -6 8 -20 -14 -71 -11 -76 5
-3 9 0 11 8 6 8 -5 11 -4 6 3 -3 5 0 13 6 15 9 4 10 6 1 6 -6 1 -15 -4 -18 -9
-4 -6 -13 -7 -24 -1 -13 7 -18 6 -18 -4z"/>
<path d="M898 569 c12 -14 20 -28 17 -30 -2 -3 6 -5 20 -5 13 0 21 4 19 8 -3
5 -10 6 -15 3 -5 -4 -13 4 -18 17 -6 13 -10 19 -10 14 -1 -5 -9 -2 -18 5 -10
7 -8 2 5 -12z"/>
<path d="M933 576 c0 -7 6 -13 14 -13 7 0 13 4 13 8 0 4 -6 9 -13 12 -8 3 -14
0 -14 -7z"/>
<path d="M220 565 c0 -3 2 -5 5 -5 3 0 5 2 5 5 0 3 -2 5 -5 5 -3 0 -5 -2 -5
-5z"/>
<path d="M540 565 c0 -3 2 -5 5 -5 3 0 5 2 5 5 0 3 -2 5 -5 5 -3 0 -5 -2 -5
-5z"/>
<path d="M860 565 c0 -3 2 -5 5 -5 3 0 5 2 5 5 0 3 -2 5 -5 5 -3 0 -5 -2 -5
-5z"/>
<path d="M10 555 c0 -3 2 -5 5 -5 3 0 5 2 5 5 0 3 -2 5 -5 5 -3 0 -5 -2 -5 -5z"/>
<path d="M240 555 c0 -3 2 -5 5 -5 3 0 5 2 5 5 0 3 -2 5 -5 5 -3 0 -5 -2 -5
-5z"/>
<path d="M330 555 c0 -3 2 -5 5 -5 3 0 5 2 5 5 0 3 -2 5 -5 5 -3 0 -5 -2 -5
-5z"/>
<path d="M560 555 c0 -3 2 -5 5 -5 3 0 5 2 5 5 0 3 -2 5 -5 5 -3 0 -5 -2 -5
-5z"/>
<path d="M650 555 c0 -3 2 -5 5 -5 3 0 5 2 5 5 0 3 -2 5 -5 5 -3 0 -5 -2 -5
-5z"/>
<path d="M880 555 c0 -3 2 -5 5 -5 3 0 5 2 5 5 0 3 -2 5 -5 5 -3 0 -5 -2 -5
-5z"/>
<path d="M70 545 c0 -3 2 -5 5 -5 3 0 5 2 5 5 0 3 -2 5 -5 5 -3 0 -5 -2 -5 -5z"/>
<path d="M210 545 c0 -3 2 -5 5 -5 3 0 5 2 5 5 0 3 -2 5 -5 5 -3 0 -5 -2 -5
-5z"/>
<path d="M390 545 c0 -3 2 -5 5 -5 3 0 5 2 5 5 0 3 -2 5 -5 5 -3 0 -5 -2 -5
-5z"/>
<path d="M530 545 c0 -3 2 -5 5 -5 3 0 5 2 5 5 0 3 -2 5 -5 5 -3 0 -5 -2 -5
-5z"/>
<path d="M710 545 c0 -3 2 -5 5 -5 3 0 5 2 5 5 0 3 -2 5 -5 5 -3 0 -5 -2 -5
-5z"/>
<path d="M850 545 c0 -3 2 -5 5 -5 3 0 5 2 5 5 0 3 -2 5 -5 5 -3 0 -5 -2 -5
-5z"/>
<path d="M15 524 c2 -4 0 -16 -6 -26 -8 -15 -8 -23 1 -32 8 -8 9 -6 4 8 -5 12
-4 17 3 13 11 -7 11 29 0 38 -4 3 -5 2 -2 -1z"/>
<path d="M48 518 c7 -9 9 -18 3 -20 -5 -1 -3 -12 6 -23 15 -19 15 -19 8 4 -5
15 -4 21 3 17 6 -4 16 4 23 16 9 19 9 21 -1 11 -10 -9 -18 -9 -34 -1 -18 10
-19 9 -8 -4z"/>
<path d="M333 523 c4 -6 0 -18 -8 -26 -19 -19 -19 -23 -1 -30 11 -4 13 -1 9
10 -4 10 -2 14 4 10 12 -7 10 29 -2 40 -4 5 -5 3 -2 -4z"/>
<path d="M368 518 c7 -9 9 -18 3 -20 -5 -1 -3 -12 6 -23 15 -19 15 -19 8 4 -5
15 -4 21 3 17 6 -4 16 4 23 16 9 19 9 21 -1 11 -10 -9 -18 -9 -34 -1 -18 10
-19 9 -8 -4z"/>
<path d="M653 523 c4 -6 0 -18 -8 -26 -19 -19 -19 -23 -1 -30 11 -4 13 -1 9
10 -4 10 -2 14 4 10 12 -7 10 29 -2 40 -4 5 -5 3 -2 -4z"/>
<path d="M688 518 c7 -9 9 -18 3 -20 -5 -1 -3 -12 6 -23 15 -19 15 -19 8 4 -5
15 -4 21 3 17 6 -4 16 4 23 16 9 19 9 21 -1 11 -10 -9 -18 -9 -34 -1 -18 10
-19 9 -8 -4z"/>
<path d="M273 513 c4 -3 10 -3 14 0 3 4 0 7 -7 7 -7 0 -10 -3 -7 -7z"/>
<path d="M593 513 c4 -3 10 -3 14 0 3 4 0 7 -7 7 -7 0 -10 -3 -7 -7z"/>
<path d="M913 513 c4 -3 10 -3 14 0 3 4 0 7 -7 7 -7 0 -10 -3 -7 -7z"/>
<path d="M113 503 c4 -3 10 -3 14 0 3 4 0 7 -7 7 -7 0 -10 -3 -7 -7z"/>
<path d="M300 505 c0 -3 2 -5 5 -5 3 0 5 2 5 5 0 3 -2 5 -5 5 -3 0 -5 -2 -5
-5z"/>
<path d="M433 503 c4 -3 10 -3 14 0 3 4 0 7 -7 7 -7 0 -10 -3 -7 -7z"/>
<path d="M620 505 c0 -3 2 -5 5 -5 3 0 5 2 5 5 0 3 -2 5 -5 5 -3 0 -5 -2 -5
-5z"/>
<path d="M753 503 c4 -3 10 -3 14 0 3 4 0 7 -7 7 -7 0 -10 -3 -7 -7z"/>
<path d="M940 505 c0 -3 2 -5 5 -5 3 0 5 2 5 5 0 3 -2 5 -5 5 -3 0 -5 -2 -5
-5z"/>
<path d="M114 471 c20 -22 26 -25 26 -13 0 4 -10 13 -22 21 -23 14 -23 14 -4
-8z"/>
<path d="M434 471 c20 -22 26 -25 26 -13 0 4 -10 13 -22 21 -23 14 -23 14 -4
-8z"/>
<path d="M754 471 c20 -22 26 -25 26 -13 0 4 -10 13 -22 21 -23 14 -23 14 -4
-8z"/>
<path d="M950 480 c0 -7 3 -10 7 -7 3 4 3 10 0 14 -4 3 -7 0 -7 -7z"/>
<path d="M80 465 c0 -3 2 -5 5 -5 3 0 5 2 5 5 0 3 -2 5 -5 5 -3 0 -5 -2 -5 -5z"/>
<path d="M400 465 c0 -3 2 -5 5 -5 3 0 5 2 5 5 0 3 -2 5 -5 5 -3 0 -5 -2 -5
-5z"/>
<path d="M720 465 c0 -3 2 -5 5 -5 3 0 5 2 5 5 0 3 -2 5 -5 5 -3 0 -5 -2 -5
-5z"/>
<path d="M35 450 c-3 -5 -13 -7 -23 -4 -14 5 -15 4 -2 -5 8 -6 10 -11 5 -11
-6 0 -11 -10 -12 -22 0 -13 1 -17 4 -10 4 9 9 10 18 2 9 -7 16 -5 26 7 12 16
12 17 -2 6 -23 -18 -32 -3 -14 24 9 13 13 23 11 23 -3 0 -7 -4 -11 -10z"/>
<path d="M100 455 c0 -3 2 -5 5 -5 3 0 5 2 5 5 0 3 -2 5 -5 5 -3 0 -5 -2 -5
-5z"/>
<path d="M355 450 c-3 -5 -13 -7 -23 -4 -13 5 -14 4 -3 -4 12 -8 11 -11 -2
-13 -12 -3 -10 -8 8 -21 22 -17 24 -17 37 0 11 15 11 16 -3 5 -23 -18 -32 -3
-14 24 9 13 13 23 11 23 -3 0 -7 -4 -11 -10z"/>
<path d="M420 455 c0 -3 2 -5 5 -5 3 0 5 2 5 5 0 3 -2 5 -5 5 -3 0 -5 -2 -5
-5z"/>
<path d="M675 450 c-3 -5 -13 -7 -23 -4 -13 5 -14 4 -3 -4 12 -8 11 -11 -2
-13 -12 -3 -10 -8 8 -21 22 -17 24 -17 37 0 11 15 11 16 -3 5 -23 -18 -32 -3
-14 24 9 13 13 23 11 23 -3 0 -7 -4 -11 -10z"/>
<path d="M740 455 c0 -3 2 -5 5 -5 3 0 5 2 5 5 0 3 -2 5 -5 5 -3 0 -5 -2 -5
-5z"/>
<path d="M70 445 c0 -3 2 -5 5 -5 3 0 5 2 5 5 0 3 -2 5 -5 5 -3 0 -5 -2 -5 -5z"/>
<path d="M390 445 c0 -3 2 -5 5 -5 3 0 5 2 5 5 0 3 -2 5 -5 5 -3 0 -5 -2 -5
-5z"/>
<path d="M710 445 c0 -3 2 -5 5 -5 3 0 5 2 5 5 0 3 -2 5 -5 5 -3 0 -5 -2 -5
-5z"/>
<path d="M87 418 c-4 -16 -14 -28 -22 -28 -8 0 -15 -5 -15 -11 0 -6 6 -9 14
-6 8 3 17 -1 20 -9 9 -23 8 -24 -13 -24 -25 0 -32 -11 -25 -37 5 -16 12 -21
32 -18 15 2 29 4 32 5 3 2 8 2 11 2 3 -1 6 6 6 13 0 12 -3 12 -15 3 -22 -19
-48 -16 -49 4 -1 10 3 18 8 18 6 0 7 -4 4 -10 -3 -5 -2 -10 2 -10 12 0 50 29
39 30 -5 0 -3 6 3 14 9 10 8 15 -3 19 -11 4 -13 1 -10 -11 5 -15 4 -14 -9 1
-18 22 -12 48 9 40 9 -3 14 1 14 13 0 15 -2 16 -9 5 -7 -11 -10 -10 -13 5 -3
15 -5 13 -11 -8z m20 -85 c-4 -3 -10 -3 -14 0 -3 4 0 7 7 7 7 0 10 -3 7 -7z"/>
<path d="M210 435 c0 -3 2 -5 5 -5 3 0 5 2 5 5 0 3 -2 5 -5 5 -3 0 -5 -2 -5
-5z"/>
<path d="M285 430 c-4 -6 -10 -8 -15 -5 -11 7 -40 -5 -40 -17 0 -5 6 -6 13 -2
8 5 8 2 -2 -9 -10 -13 -10 -17 -1 -17 6 0 14 9 17 20 3 11 9 18 13 15 4 -3 13
2 20 10 7 8 10 15 7 15 -3 0 -9 -5 -12 -10z"/>
<path d="M407 418 c-4 -16 -14 -28 -22 -28 -8 0 -15 -5 -15 -11 0 -6 6 -9 14
-6 8 3 17 -1 20 -9 9 -23 8 -24 -13 -24 -25 0 -32 -11 -25 -37 5 -16 12 -21
32 -18 15 2 29 4 32 5 3 2 8 2 11 2 3 -1 6 6 6 13 0 12 -3 12 -15 3 -22 -19
-48 -16 -49 4 -1 10 3 18 8 18 6 0 7 -4 4 -10 -3 -5 -2 -10 2 -10 12 0 50 29
39 30 -5 0 -3 6 3 14 9 10 8 15 -3 19 -11 4 -13 1 -10 -11 5 -15 4 -14 -9 1
-18 22 -12 48 9 40 9 -3 14 1 14 13 0 15 -2 16 -9 5 -7 -11 -10 -10 -13 5 -3
15 -5 13 -11 -8z m20 -85 c-4 -3 -10 -3 -14 0 -3 4 0 7 7 7 7 0 10 -3 7 -7z"/>
<path d="M530 435 c0 -3 2 -5 5 -5 3 0 5 2 5 5 0 3 -2 5 -5 5 -3 0 -5 -2 -5
-5z"/>
<path d="M605 430 c-4 -6 -10 -8 -15 -5 -11 7 -40 -5 -40 -17 0 -5 6 -6 13 -2
8 5 8 2 -2 -9 -10 -13 -10 -17 -1 -17 6 0 14 9 17 20 3 11 9 18 13 15 4 -3 13
2 20 10 7 8 10 15 7 15 -3 0 -9 -5 -12 -10z"/>
<path d="M727 418 c-4 -16 -14 -28 -22 -28 -8 0 -15 -5 -15 -11 0 -6 6 -9 14
-6 8 3 17 -1 20 -9 9 -23 8 -24 -13 -24 -25 0 -32 -11 -25 -37 5 -16 12 -21
32 -18 15 2 29 4 32 5 3 2 8 2 11 2 3 -1 6 6 6 13 0 12 -3 12 -15 3 -22 -19
-48 -16 -49 4 -1 10 3 18 8 18 6 0 7 -4 4 -10 -3 -5 -2 -10 2 -10 12 0 50 29
39 30 -5 0 -3 6 3 14 9 10 8 15 -3 19 -11 4 -13 1 -10 -11 5 -15 4 -14 -9 1
-18 22 -12 48 9 40 9 -3 14 1 14 13 0 15 -2 16 -9 5 -7 -11 -10 -10 -13 5 -3
15 -5 13 -11 -8z m20 -85 c-4 -3 -10 -3 -14 0 -3 4 0 7 7 7 7 0 10 -3 7 -7z"/>
<path d="M850 435 c0 -3 2 -5 5 -5 3 0 5 2 5 5 0 3 -2 5 -5 5 -3 0 -5 -2 -5
-5z"/>
<path d="M925 430 c-4 -6 -10 -8 -15 -5 -11 7 -40 -5 -40 -17 0 -5 6 -6 13 -2
8 5 8 2 -2 -9 -10 -13 -10 -17 -1 -17 6 0 14 9 17 20 3 11 9 18 13 15 4 -3 13
2 20 10 7 8 10 15 7 15 -3 0 -9 -5 -12 -10z"/>
<path d="M950 425 c0 -3 2 -5 5 -5 3 0 5 2 5 5 0 3 -2 5 -5 5 -3 0 -5 -2 -5
-5z"/>
<path d="M130 415 c0 -3 2 -5 5 -5 3 0 5 2 5 5 0 3 -2 5 -5 5 -3 0 -5 -2 -5
-5z"/>
<path d="M154 402 c2 -8 11 -19 21 -24 12 -7 16 -7 11 0 -3 6 -2 12 4 14 5 1
-1 8 -14 14 -19 9 -23 8 -22 -4z m16 -7 c0 -3 -2 -5 -5 -5 -3 0 -5 2 -5 5 0 3
2 5 5 5 3 0 5 -2 5 -5z"/>
<path d="M210 415 c0 -3 2 -5 5 -5 3 0 5 2 5 5 0 3 -2 5 -5 5 -3 0 -5 -2 -5
-5z"/>
<path d="M450 415 c0 -3 2 -5 5 -5 3 0 5 2 5 5 0 3 -2 5 -5 5 -3 0 -5 -2 -5
-5z"/>
<path d="M474 402 c2 -8 11 -19 21 -24 12 -7 16 -7 11 0 -3 6 -2 12 4 14 5 1
-1 8 -14 14 -19 9 -23 8 -22 -4z m16 -7 c0 -3 -2 -5 -5 -5 -3 0 -5 2 -5 5 0 3
2 5 5 5 3 0 5 -2 5 -5z"/>
<path d="M530 415 c0 -3 2 -5 5 -5 3 0 5 2 5 5 0 3 -2 5 -5 5 -3 0 -5 -2 -5
-5z"/>
<path d="M770 415 c0 -3 2 -5 5 -5 3 0 5 2 5 5 0 3 -2 5 -5 5 -3 0 -5 -2 -5
-5z"/>
<path d="M794 402 c2 -8 11 -19 21 -24 12 -7 16 -7 11 0 -3 6 -2 12 4 14 5 1
-1 8 -14 14 -19 9 -23 8 -22 -4z m16 -7 c0 -3 -2 -5 -5 -5 -3 0 -5 2 -5 5 0 3
2 5 5 5 3 0 5 -2 5 -5z"/>
<path d="M850 415 c0 -3 2 -5 5 -5 3 0 5 2 5 5 0 3 -2 5 -5 5 -3 0 -5 -2 -5
-5z"/>
<path d="M282 393 c-15 -27 -15 -33 -1 -33 5 0 8 4 5 9 -4 5 -1 11 5 13 7 2
10 11 7 18 -3 11 -8 10 -16 -7z"/>
<path d="M315 400 c3 -5 8 -10 11 -10 2 0 4 5 4 10 0 6 -5 10 -11 10 -5 0 -7
-4 -4 -10z"/>
<path d="M602 393 c-15 -27 -15 -33 -1 -33 5 0 8 4 5 9 -4 5 -1 11 5 13 7 2
10 11 7 18 -3 11 -8 10 -16 -7z"/>
<path d="M635 400 c3 -5 8 -10 11 -10 2 0 4 5 4 10 0 6 -5 10 -11 10 -5 0 -7
-4 -4 -10z"/>
<path d="M922 393 c-15 -27 -15 -33 -1 -33 5 0 8 4 5 9 -4 5 -1 11 5 13 7 2
10 11 7 18 -3 11 -8 10 -16 -7z"/>
<path d="M950 405 c0 -3 2 -5 5 -5 3 0 5 2 5 5 0 3 -2 5 -5 5 -3 0 -5 -2 -5
-5z"/>
<path d="M22 369 c3 -8 0 -21 -7 -29 -11 -12 -11 -17 1 -28 12 -11 14 -9 14
12 0 13 4 26 9 28 5 2 2 9 -6 17 -14 12 -15 12 -11 0z"/>
<path d="M310 375 c0 -3 2 -5 5 -5 3 0 5 2 5 5 0 3 -2 5 -5 5 -3 0 -5 -2 -5
-5z"/>
<path d="M343 368 c3 -9 -1 -22 -9 -28 -8 -7 -14 -9 -14 -4 0 4 -6 2 -12 -4
-10 -10 -10 -15 0 -21 11 -7 11 -9 -2 -14 -9 -4 -15 -1 -13 5 1 6 -3 12 -10
15 -7 3 -9 -3 -6 -16 6 -24 8 -25 34 -10 11 5 17 14 14 20 -4 5 -2 9 4 9 5 0
12 -6 14 -12 3 -7 6 -1 6 14 1 14 5 28 10 30 5 2 2 10 -7 18 -14 13 -15 12 -9
-2z m-23 -43 c0 -3 -2 -5 -5 -5 -3 0 -5 2 -5 5 0 3 2 5 5 5 3 0 5 -2 5 -5z"/>
<path d="M630 375 c0 -3 2 -5 5 -5 3 0 5 2 5 5 0 3 -2 5 -5 5 -3 0 -5 -2 -5
-5z"/>
<path d="M663 368 c3 -9 -1 -22 -9 -28 -8 -7 -14 -9 -14 -4 0 4 -6 2 -12 -4
-10 -10 -10 -15 0 -21 11 -7 11 -9 -2 -14 -9 -4 -15 -1 -13 5 1 6 -3 12 -10
15 -7 3 -9 -3 -6 -16 6 -24 8 -25 34 -10 11 5 17 14 14 20 -4 5 -2 9 4 9 5 0
12 -6 14 -12 3 -7 6 -1 6 14 1 14 5 28 10 30 5 2 2 10 -7 18 -14 13 -15 12 -9
-2z m-23 -43 c0 -3 -2 -5 -5 -5 -3 0 -5 2 -5 5 0 3 2 5 5 5 3 0 5 -2 5 -5z"/>
<path d="M950 375 c0 -3 2 -5 5 -5 3 0 5 2 5 5 0 3 -2 5 -5 5 -3 0 -5 -2 -5
-5z"/>
<path d="M150 360 c0 -7 3 -10 7 -7 3 4 3 10 0 14 -4 3 -7 0 -7 -7z"/>
<path d="M200 365 c0 -3 2 -5 5 -5 3 0 5 2 5 5 0 3 -2 5 -5 5 -3 0 -5 -2 -5
-5z"/>
<path d="M227 350 c-4 -15 0 -20 14 -20 13 0 17 -5 13 -17 -5 -14 -4 -15 4 -4
5 7 16 18 23 23 11 8 10 9 -3 5 -21 -7 -46 18 -26 26 9 4 8 6 -3 6 -9 1 -19
-8 -22 -19z"/>
<path d="M470 360 c0 -7 3 -10 7 -7 3 4 3 10 0 14 -4 3 -7 0 -7 -7z"/>
<path d="M520 365 c0 -3 2 -5 5 -5 3 0 5 2 5 5 0 3 -2 5 -5 5 -3 0 -5 -2 -5
-5z"/>
<path d="M547 350 c-4 -15 0 -20 14 -20 13 0 17 -5 13 -17 -5 -14 -4 -15 4 -4
5 7 16 18 23 23 11 8 10 9 -3 5 -21 -7 -46 18 -26 26 9 4 8 6 -3 6 -9 1 -19
-8 -22 -19z"/>
<path d="M790 360 c0 -7 3 -10 7 -7 3 4 3 10 0 14 -4 3 -7 0 -7 -7z"/>
<path d="M840 365 c0 -3 2 -5 5 -5 3 0 5 2 5 5 0 3 -2 5 -5 5 -3 0 -5 -2 -5
-5z"/>
<path d="M867 350 c-4 -15 0 -20 14 -20 13 0 17 -5 13 -17 -5 -14 -4 -15 4 -4
5 7 16 18 23 23 11 8 10 9 -3 5 -21 -7 -46 18 -26 26 9 4 8 6 -3 6 -9 1 -19
-8 -22 -19z"/>
<path d="M303 353 c4 -3 10 -3 14 0 3 4 0 7 -7 7 -7 0 -10 -3 -7 -7z"/>
<path d="M623 353 c4 -3 10 -3 14 0 3 4 0 7 -7 7 -7 0 -10 -3 -7 -7z"/>
<path d="M943 353 c4 -3 10 -3 14 0 3 4 0 7 -7 7 -7 0 -10 -3 -7 -7z"/>
<path d="M135 340 c3 -5 8 -10 11 -10 3 0 2 5 -1 10 -3 6 -8 10 -11 10 -3 0
-2 -4 1 -10z"/>
<path d="M455 340 c3 -5 8 -10 11 -10 3 0 2 5 -1 10 -3 6 -8 10 -11 10 -3 0
-2 -4 1 -10z"/>
<path d="M775 340 c3 -5 8 -10 11 -10 3 0 2 5 -1 10 -3 6 -8 10 -11 10 -3 0
-2 -4 1 -10z"/>
<path d="M166 328 c3 -4 11 -5 19 -1 21 7 19 12 -4 10 -11 0 -18 -5 -15 -9z"/>
<path d="M486 328 c3 -4 11 -5 19 -1 21 7 19 12 -4 10 -11 0 -18 -5 -15 -9z"/>
<path d="M806 328 c3 -4 11 -5 19 -1 21 7 19 12 -4 10 -11 0 -18 -5 -15 -9z"/>
<path d="M947 333 c-10 -9 -9 -23 1 -23 5 0 9 7 9 15 0 17 -1 18 -10 8z"/>
<path d="M917 299 c4 -12 11 -18 20 -15 8 3 17 6 21 6 8 0 -31 29 -40 30 -3 0
-4 -9 -1 -21z m23 -4 c0 -3 -2 -5 -5 -5 -3 0 -5 2 -5 5 0 3 2 5 5 5 3 0 5 -2
5 -5z"/>
<path d="M0 305 c0 -3 2 -5 5 -5 3 0 5 2 5 5 0 3 -2 5 -5 5 -3 0 -5 -2 -5 -5z"/>
<path d="M155 304 c2 -4 -2 -19 -10 -34 -11 -22 -11 -27 0 -27 7 0 11 7 7 15
-3 9 -1 13 5 9 11 -7 11 29 0 38 -4 3 -5 2 -2 -1z"/>
<path d="M188 298 c7 -9 9 -18 3 -20 -5 -1 -3 -12 6 -23 15 -19 15 -19 8 4 -5
15 -4 21 3 17 6 -4 16 4 23 16 9 19 9 21 -1 11 -10 -9 -18 -9 -34 -1 -18 10
-19 9 -8 -4z"/>
<path d="M475 304 c2 -4 -2 -19 -10 -34 -11 -22 -11 -27 0 -27 7 0 11 7 7 15
-3 9 -1 13 5 9 11 -7 11 29 0 38 -4 3 -5 2 -2 -1z"/>
<path d="M508 298 c7 -9 9 -18 3 -20 -5 -1 -3 -12 6 -23 15 -19 15 -19 8 4 -5
15 -4 21 3 17 6 -4 16 4 23 16 9 19 9 21 -1 11 -10 -9 -18 -9 -34 -1 -18 10
-19 9 -8 -4z"/>
<path d="M795 304 c2 -4 -2 -19 -10 -34 -11 -22 -11 -27 0 -27 7 0 11 7 7 15
-3 9 -1 13 5 9 11 -7 11 29 0 38 -4 3 -5 2 -2 -1z"/>
<path d="M828 298 c7 -9 9 -18 3 -20 -5 -1 -3 -12 6 -23 15 -19 15 -19 8 4 -5
15 -4 21 3 17 6 -4 16 4 23 16 9 19 9 21 -1 11 -10 -9 -18 -9 -34 -1 -18 10
-19 9 -8 -4z"/>
<path d="M23 283 c4 -3 10 -3 14 0 3 4 0 7 -7 7 -7 0 -10 -3 -7 -7z"/>
<path d="M253 283 c4 -3 10 -3 14 0 3 4 0 7 -7 7 -7 0 -10 -3 -7 -7z"/>
<path d="M343 283 c4 -3 10 -3 14 0 3 4 0 7 -7 7 -7 0 -10 -3 -7 -7z"/>
<path d="M573 283 c4 -3 10 -3 14 0 3 4 0 7 -7 7 -7 0 -10 -3 -7 -7z"/>
<path d="M663 283 c4 -3 10 -3 14 0 3 4 0 7 -7 7 -7 0 -10 -3 -7 -7z"/>
<path d="M893 283 c4 -3 10 -3 14 0 3 4 0 7 -7 7 -7 0 -10 -3 -7 -7z"/>
<path d="M29 247 c29 -32 31 -33 24 -7 -3 12 -8 18 -11 15 -3 -2 -12 1 -21 7
-9 7 -5 0 8 -15z"/>
<path d="M63 255 c0 -8 4 -12 8 -9 4 2 16 -7 27 -21 14 -17 22 -21 25 -13 4 8
8 4 13 -10 4 -16 12 -21 24 -17 10 3 21 2 23 -3 8 -12 -9 -36 -20 -29 -5 3
-10 0 -10 -8 0 -8 4 -12 9 -9 4 3 8 1 8 -5 0 -5 -6 -12 -12 -15 -7 -3 -2 -3
11 0 16 4 21 3 17 -5 -4 -6 -2 -11 3 -11 14 0 14 17 1 25 -14 9 -12 24 3 21 6
-1 23 -8 37 -15 23 -11 24 -11 6 3 -11 9 -17 17 -13 17 26 5 33 4 44 -4 7 -5
10 -14 6 -21 -3 -6 -2 -8 2 -3 15 13 13 46 -2 40 -8 -3 -13 -2 -12 3 1 5 1 18
0 29 -1 16 -3 17 -10 6 -5 -8 -7 -21 -4 -30 4 -13 3 -13 -5 -2 -5 7 -8 23 -6
35 2 11 -2 5 -9 -14 -14 -41 -40 -53 -33 -16 4 20 1 24 -18 22 -13 -2 -23 3
-23 10 0 6 6 10 12 7 7 -2 15 3 19 13 5 12 3 14 -6 8 -20 -14 -71 -11 -76 5
-3 9 0 11 8 6 8 -5 11 -4 6 3 -3 5 0 13 6 15 9 4 10 6 1 6 -6 1 -15 -4 -18 -9
-4 -6 -13 -7 -24 -1 -13 7 -18 6 -18 -4z"/>
<path d="M258 249 c12 -14 20 -28 17 -30 -2 -3 6 -5 20 -5 13 0 21 4 19 8 -3
5 -10 6 -15 3 -5 -4 -13 4 -18 17 -6 13 -10 19 -10 14 -1 -5 -9 -2 -18 5 -10
7 -8 2 5 -12z"/>
<path d="M293 256 c0 -7 6 -13 14 -13 7 0 13 4 13 8 0 4 -6 9 -13 12 -8 3 -14
0 -14 -7z"/>
<path d="M349 247 c29 -32 31 -33 24 -7 -3 12 -8 18 -11 15 -3 -2 -12 1 -21 7
-9 7 -5 0 8 -15z"/>
<path d="M383 255 c0 -8 4 -12 8 -9 4 2 16 -7 27 -21 14 -17 22 -21 25 -13 4
8 8 4 13 -10 4 -16 12 -21 24 -17 10 3 21 2 23 -3 8 -12 -9 -36 -20 -29 -5 3
-10 0 -10 -8 0 -8 4 -12 9 -9 4 3 8 1 8 -5 0 -5 -6 -12 -12 -15 -7 -3 -2 -3
11 0 16 4 21 3 17 -5 -4 -6 -2 -11 3 -11 14 0 14 17 1 25 -14 9 -12 24 3 21 6
-1 23 -8 37 -15 23 -11 24 -11 6 3 -11 9 -17 17 -13 17 26 5 33 4 44 -4 7 -5
10 -14 6 -21 -3 -6 -2 -8 2 -3 15 13 13 46 -2 40 -8 -3 -13 -2 -12 3 1 5 1 18
0 29 -1 16 -3 17 -10 6 -5 -8 -7 -21 -4 -30 4 -13 3 -13 -5 -2 -5 7 -8 23 -6
35 2 11 -2 5 -9 -14 -14 -41 -40 -53 -33 -16 4 20 1 24 -18 22 -13 -2 -23 3
-23 10 0 6 6 10 12 7 7 -2 15 3 19 13 5 12 3 14 -6 8 -20 -14 -71 -11 -76 5
-3 9 0 11 8 6 8 -5 11 -4 6 3 -3 5 0 13 6 15 9 4 10 6 1 6 -6 1 -15 -4 -18 -9
-4 -6 -13 -7 -24 -1 -13 7 -18 6 -18 -4z"/>
<path d="M578 249 c12 -14 20 -28 17 -30 -2 -3 6 -5 20 -5 13 0 21 4 19 8 -3
5 -10 6 -15 3 -5 -4 -13 4 -18 17 -6 13 -10 19 -10 14 -1 -5 -9 -2 -18 5 -10
7 -8 2 5 -12z"/>
<path d="M613 256 c0 -7 6 -13 14 -13 7 0 13 4 13 8 0 4 -6 9 -13 12 -8 3 -14
0 -14 -7z"/>
<path d="M669 247 c29 -32 31 -33 24 -7 -3 12 -8 18 -11 15 -3 -2 -12 1 -21 7
-9 7 -5 0 8 -15z"/>
<path d="M703 255 c0 -8 4 -12 8 -9 4 2 16 -7 27 -21 14 -17 22 -21 25 -13 4
8 8 4 13 -10 4 -16 12 -21 24 -17 10 3 21 2 23 -3 8 -12 -9 -36 -20 -29 -5 3
-10 0 -10 -8 0 -8 4 -12 9 -9 4 3 8 1 8 -5 0 -5 -6 -12 -12 -15 -7 -3 -2 -3
11 0 16 4 21 3 17 -5 -4 -6 -2 -11 3 -11 14 0 14 17 1 25 -14 9 -12 24 3 21 6
-1 23 -8 37 -15 23 -11 24 -11 6 3 -11 9 -17 17 -13 17 26 5 33 4 44 -4 7 -5
10 -14 6 -21 -3 -6 -2 -8 2 -3 15 13 13 46 -2 40 -8 -3 -13 -2 -12 3 1 5 1 18
0 29 -1 16 -3 17 -10 6 -5 -8 -7 -21 -4 -30 4 -13 3 -13 -5 -2 -5 7 -8 23 -6
35 2 11 -2 5 -9 -14 -14 -41 -40 -53 -33 -16 4 20 1 24 -18 22 -13 -2 -23 3
-23 10 0 6 6 10 12 7 7 -2 15 3 19 13 5 12 3 14 -6 8 -20 -14 -71 -11 -76 5
-3 9 0 11 8 6 8 -5 11 -4 6 3 -3 5 0 13 6 15 9 4 10 6 1 6 -6 1 -15 -4 -18 -9
-4 -6 -13 -7 -24 -1 -13 7 -18 6 -18 -4z"/>
<path d="M898 249 c12 -14 20 -28 17 -30 -2 -3 6 -5 20 -5 13 0 21 4 19 8 -3
5 -10 6 -15 3 -5 -4 -13 4 -18 17 -6 13 -10 19 -10 14 -1 -5 -9 -2 -18 5 -10
7 -8 2 5 -12z"/>
<path d="M933 256 c0 -7 6 -13 14 -13 7 0 13 4 13 8 0 4 -6 9 -13 12 -8 3 -14
0 -14 -7z"/>
<path d="M220 245 c0 -3 2 -5 5 -5 3 0 5 2 5 5 0 3 -2 5 -5 5 -3 0 -5 -2 -5
-5z"/>
<path d="M540 245 c0 -3 2 -5 5 -5 3 0 5 2 5 5 0 3 -2 5 -5 5 -3 0 -5 -2 -5
-5z"/>
<path d="M860 245 c0 -3 2 -5 5 -5 3 0 5 2 5 5 0 3 -2 5 -5 5 -3 0 -5 -2 -5
-5z"/>
<path d="M10 235 c0 -3 2 -5 5 -5 3 0 5 2 5 5 0 3 -2 5 -5 5 -3 0 -5 -2 -5 -5z"/>
<path d="M240 235 c0 -3 2 -5 5 -5 3 0 5 2 5 5 0 3 -2 5 -5 5 -3 0 -5 -2 -5
-5z"/>
<path d="M330 235 c0 -3 2 -5 5 -5 3 0 5 2 5 5 0 3 -2 5 -5 5 -3 0 -5 -2 -5
-5z"/>
<path d="M560 235 c0 -3 2 -5 5 -5 3 0 5 2 5 5 0 3 -2 5 -5 5 -3 0 -5 -2 -5
-5z"/>
<path d="M650 235 c0 -3 2 -5 5 -5 3 0 5 2 5 5 0 3 -2 5 -5 5 -3 0 -5 -2 -5
-5z"/>
<path d="M880 235 c0 -3 2 -5 5 -5 3 0 5 2 5 5 0 3 -2 5 -5 5 -3 0 -5 -2 -5
-5z"/>
<path d="M70 225 c0 -3 2 -5 5 -5 3 0 5 2 5 5 0 3 -2 5 -5 5 -3 0 -5 -2 -5 -5z"/>
<path d="M210 225 c0 -3 2 -5 5 -5 3 0 5 2 5 5 0 3 -2 5 -5 5 -3 0 -5 -2 -5
-5z"/>
<path d="M390 225 c0 -3 2 -5 5 -5 3 0 5 2 5 5 0 3 -2 5 -5 5 -3 0 -5 -2 -5
-5z"/>
<path d="M530 225 c0 -3 2 -5 5 -5 3 0 5 2 5 5 0 3 -2 5 -5 5 -3 0 -5 -2 -5
-5z"/>
<path d="M710 225 c0 -3 2 -5 5 -5 3 0 5 2 5 5 0 3 -2 5 -5 5 -3 0 -5 -2 -5
-5z"/>
<path d="M850 225 c0 -3 2 -5 5 -5 3 0 5 2 5 5 0 3 -2 5 -5 5 -3 0 -5 -2 -5
-5z"/>
<path d="M15 204 c2 -4 0 -16 -6 -26 -8 -15 -8 -23 1 -32 8 -8 9 -6 4 8 -5 12
-4 17 3 13 11 -7 11 29 0 38 -4 3 -5 2 -2 -1z"/>
<path d="M48 198 c7 -9 9 -18 3 -20 -5 -1 -3 -12 6 -23 15 -19 15 -19 8 4 -5
15 -4 21 3 17 6 -4 16 4 23 16 9 19 9 21 -1 11 -10 -9 -18 -9 -34 -1 -18 10
-19 9 -8 -4z"/>
<path d="M333 203 c4 -6 0 -18 -8 -26 -19 -19 -19 -23 -1 -30 11 -4 13 -1 9
10 -4 10 -2 14 4 10 12 -7 10 29 -2 40 -4 5 -5 3 -2 -4z"/>
<path d="M368 198 c7 -9 9 -18 3 -20 -5 -1 -3 -12 6 -23 15 -19 15 -19 8 4 -5
15 -4 21 3 17 6 -4 16 4 23 16 9 19 9 21 -1 11 -10 -9 -18 -9 -34 -1 -18 10
-19 9 -8 -4z"/>
<path d="M653 203 c4 -6 0 -18 -8 -26 -19 -19 -19 -23 -1 -30 11 -4 13 -1 9
10 -4 10 -2 14 4 10 12 -7 10 29 -2 40 -4 5 -5 3 -2 -4z"/>
<path d="M688 198 c7 -9 9 -18 3 -20 -5 -1 -3 -12 6 -23 15 -19 15 -19 8 4 -5
15 -4 21 3 17 6 -4 16 4 23 16 9 19 9 21 -1 11 -10 -9 -18 -9 -34 -1 -18 10
-19 9 -8 -4z"/>
<path d="M273 193 c4 -3 10 -3 14 0 3 4 0 7 -7 7 -7 0 -10 -3 -7 -7z"/>
<path d="M593 193 c4 -3 10 -3 14 0 3 4 0 7 -7 7 -7 0 -10 -3 -7 -7z"/>
<path d="M913 193 c4 -3 10 -3 14 0 3 4 0 7 -7 7 -7 0 -10 -3 -7 -7z"/>
<path d="M113 183 c4 -3 10 -3 14 0 3 4 0 7 -7 7 -7 0 -10 -3 -7 -7z"/>
<path d="M300 185 c0 -3 2 -5 5 -5 3 0 5 2 5 5 0 3 -2 5 -5 5 -3 0 -5 -2 -5
-5z"/>
<path d="M433 183 c4 -3 10 -3 14 0 3 4 0 7 -7 7 -7 0 -10 -3 -7 -7z"/>
<path d="M620 185 c0 -3 2 -5 5 -5 3 0 5 2 5 5 0 3 -2 5 -5 5 -3 0 -5 -2 -5
-5z"/>
<path d="M753 183 c4 -3 10 -3 14 0 3 4 0 7 -7 7 -7 0 -10 -3 -7 -7z"/>
<path d="M940 185 c0 -3 2 -5 5 -5 3 0 5 2 5 5 0 3 -2 5 -5 5 -3 0 -5 -2 -5
-5z"/>
<path d="M114 151 c20 -22 26 -25 26 -13 0 4 -10 13 -22 21 -23 14 -23 14 -4
-8z"/>
<path d="M434 151 c20 -22 26 -25 26 -13 0 4 -10 13 -22 21 -23 14 -23 14 -4
-8z"/>
<path d="M754 151 c20 -22 26 -25 26 -13 0 4 -10 13 -22 21 -23 14 -23 14 -4
-8z"/>
<path d="M950 160 c0 -7 3 -10 7 -7 3 4 3 10 0 14 -4 3 -7 0 -7 -7z"/>
<path d="M80 145 c0 -3 2 -5 5 -5 3 0 5 2 5 5 0 3 -2 5 -5 5 -3 0 -5 -2 -5 -5z"/>
<path d="M400 145 c0 -3 2 -5 5 -5 3 0 5 2 5 5 0 3 -2 5 -5 5 -3 0 -5 -2 -5
-5z"/>
<path d="M720 145 c0 -3 2 -5 5 -5 3 0 5 2 5 5 0 3 -2 5 -5 5 -3 0 -5 -2 -5
-5z"/>
<path d="M35 130 c-3 -5 -13 -7 -23 -4 -14 5 -15 4 -2 -5 8 -6 10 -11 5 -11
-6 0 -11 -10 -12 -22 0 -13 1 -17 4 -10 4 9 9 10 18 2 9 -7 16 -5 26 7 12 16
12 17 -2 6 -23 -18 -32 -3 -14 24 9 13 13 23 11 23 -3 0 -7 -4 -11 -10z"/>
<path d="M100 135 c0 -3 2 -5 5 -5 3 0 5 2 5 5 0 3 -2 5 -5 5 -3 0 -5 -2 -5
-5z"/>
<path d="M355 130 c-3 -5 -13 -7 -23 -4 -13 5 -14 4 -3 -4 12 -8 11 -11 -2
-13 -12 -3 -10 -8 8 -21 22 -17 24 -17 37 0 11 15 11 16 -3 5 -23 -18 -32 -3
-14 24 9 13 13 23 11 23 -3 0 -7 -4 -11 -10z"/>
<path d="M420 135 c0 -3 2 -5 5 -5 3 0 5 2 5 5 0 3 -2 5 -5 5 -3 0 -5 -2 -5
-5z"/>
<path d="M675 130 c-3 -5 -13 -7 -23 -4 -13 5 -14 4 -3 -4 12 -8 11 -11 -2
-13 -12 -3 -10 -8 8 -21 22 -17 24 -17 37 0 11 15 11 16 -3 5 -23 -18 -32 -3
-14 24 9 13 13 23 11 23 -3 0 -7 -4 -11 -10z"/>
<path d="M740 135 c0 -3 2 -5 5 -5 3 0 5 2 5 5 0 3 -2 5 -5 5 -3 0 -5 -2 -5
-5z"/>
<path d="M70 125 c0 -3 2 -5 5 -5 3 0 5 2 5 5 0 3 -2 5 -5 5 -3 0 -5 -2 -5 -5z"/>
<path d="M390 125 c0 -3 2 -5 5 -5 3 0 5 2 5 5 0 3 -2 5 -5 5 -3 0 -5 -2 -5
-5z"/>
<path d="M710 125 c0 -3 2 -5 5 -5 3 0 5 2 5 5 0 3 -2 5 -5 5 -3 0 -5 -2 -5
-5z"/>
<path d="M87 98 c-4 -16 -14 -28 -22 -28 -8 0 -15 -5 -15 -11 0 -6 6 -9 14 -6
8 3 17 -1 20 -9 9 -23 8 -24 -13 -24 -11 0 -22 -4 -25 -9 -3 -4 10 -8 29 -7
19 1 35 6 36 11 0 6 5 15 10 21 6 8 4 14 -5 17 -11 4 -13 1 -10 -11 5 -15 4
-14 -9 1 -18 22 -12 48 9 40 9 -3 14 1 14 13 0 15 -2 16 -9 5 -7 -11 -10 -10
-13 5 -3 15 -5 13 -11 -8z m20 -85 c-4 -3 -10 -3 -14 0 -3 4 0 7 7 7 7 0 10
-3 7 -7z"/>
<path d="M210 115 c0 -3 2 -5 5 -5 3 0 5 2 5 5 0 3 -2 5 -5 5 -3 0 -5 -2 -5
-5z"/>
<path d="M285 110 c-4 -6 -10 -8 -15 -5 -11 7 -40 -5 -40 -17 0 -5 6 -6 13 -2
8 5 8 2 -2 -9 -10 -13 -10 -17 -1 -17 6 0 14 9 17 20 3 11 9 18 13 15 4 -3 13
2 20 10 7 8 10 15 7 15 -3 0 -9 -5 -12 -10z"/>
<path d="M407 98 c-4 -16 -14 -28 -22 -28 -8 0 -15 -5 -15 -11 0 -6 6 -9 14
-6 8 3 17 -1 20 -9 9 -23 8 -24 -13 -24 -11 0 -22 -4 -25 -9 -3 -4 10 -8 29
-7 19 1 35 6 36 11 0 6 5 15 10 21 6 8 4 14 -5 17 -11 4 -13 1 -10 -11 5 -15
4 -14 -9 1 -18 22 -12 48 9 40 9 -3 14 1 14 13 0 15 -2 16 -9 5 -7 -11 -10
-10 -13 5 -3 15 -5 13 -11 -8z m20 -85 c-4 -3 -10 -3 -14 0 -3 4 0 7 7 7 7 0
10 -3 7 -7z"/>
<path d="M530 115 c0 -3 2 -5 5 -5 3 0 5 2 5 5 0 3 -2 5 -5 5 -3 0 -5 -2 -5
-5z"/>
<path d="M605 110 c-4 -6 -10 -8 -15 -5 -11 7 -40 -5 -40 -17 0 -5 6 -6 13 -2
8 5 8 2 -2 -9 -10 -13 -10 -17 -1 -17 6 0 14 9 17 20 3 11 9 18 13 15 4 -3 13
2 20 10 7 8 10 15 7 15 -3 0 -9 -5 -12 -10z"/>
<path d="M727 98 c-4 -16 -14 -28 -22 -28 -8 0 -15 -5 -15 -11 0 -6 6 -9 14
-6 8 3 17 -1 20 -9 9 -23 8 -24 -13 -24 -11 0 -22 -4 -25 -9 -3 -4 10 -8 29
-7 19 1 35 6 36 11 0 6 5 15 10 21 6 8 4 14 -5 17 -11 4 -13 1 -10 -11 5 -15
4 -14 -9 1 -18 22 -12 48 9 40 9 -3 14 1 14 13 0 15 -2 16 -9 5 -7 -11 -10
-10 -13 5 -3 15 -5 13 -11 -8z m20 -85 c-4 -3 -10 -3 -14 0 -3 4 0 7 7 7 7 0
10 -3 7 -7z"/>
<path d="M850 115 c0 -3 2 -5 5 -5 3 0 5 2 5 5 0 3 -2 5 -5 5 -3 0 -5 -2 -5
-5z"/>
<path d="M925 110 c-4 -6 -10 -8 -15 -5 -11 7 -40 -5 -40 -17 0 -5 6 -6 13 -2
8 5 8 2 -2 -9 -10 -13 -10 -17 -1 -17 6 0 14 9 17 20 3 11 9 18 13 15 4 -3 13
2 20 10 7 8 10 15 7 15 -3 0 -9 -5 -12 -10z"/>
<path d="M950 105 c0 -3 2 -5 5 -5 3 0 5 2 5 5 0 3 -2 5 -5 5 -3 0 -5 -2 -5
-5z"/>
<path d="M130 95 c0 -3 2 -5 5 -5 3 0 5 2 5 5 0 3 -2 5 -5 5 -3 0 -5 -2 -5 -5z"/>
<path d="M154 82 c2 -8 11 -19 21 -24 12 -7 16 -7 11 0 -3 6 -2 12 4 14 5 1
-1 8 -14 14 -19 9 -23 8 -22 -4z m16 -7 c0 -3 -2 -5 -5 -5 -3 0 -5 2 -5 5 0 3
2 5 5 5 3 0 5 -2 5 -5z"/>
<path d="M210 95 c0 -3 2 -5 5 -5 3 0 5 2 5 5 0 3 -2 5 -5 5 -3 0 -5 -2 -5 -5z"/>
<path d="M450 95 c0 -3 2 -5 5 -5 3 0 5 2 5 5 0 3 -2 5 -5 5 -3 0 -5 -2 -5 -5z"/>
<path d="M474 82 c2 -8 11 -19 21 -24 12 -7 16 -7 11 0 -3 6 -2 12 4 14 5 1
-1 8 -14 14 -19 9 -23 8 -22 -4z m16 -7 c0 -3 -2 -5 -5 -5 -3 0 -5 2 -5 5 0 3
2 5 5 5 3 0 5 -2 5 -5z"/>
<path d="M530 95 c0 -3 2 -5 5 -5 3 0 5 2 5 5 0 3 -2 5 -5 5 -3 0 -5 -2 -5 -5z"/>
<path d="M770 95 c0 -3 2 -5 5 -5 3 0 5 2 5 5 0 3 -2 5 -5 5 -3 0 -5 -2 -5 -5z"/>
<path d="M794 82 c2 -8 11 -19 21 -24 12 -7 16 -7 11 0 -3 6 -2 12 4 14 5 1
-1 8 -14 14 -19 9 -23 8 -22 -4z m16 -7 c0 -3 -2 -5 -5 -5 -3 0 -5 2 -5 5 0 3
2 5 5 5 3 0 5 -2 5 -5z"/>
<path d="M850 95 c0 -3 2 -5 5 -5 3 0 5 2 5 5 0 3 -2 5 -5 5 -3 0 -5 -2 -5 -5z"/>
<path d="M282 73 c-15 -27 -15 -33 -1 -33 5 0 8 4 5 9 -4 5 -1 11 5 13 7 2 10
11 7 18 -3 11 -8 10 -16 -7z"/>
<path d="M315 80 c3 -5 8 -10 11 -10 2 0 4 5 4 10 0 6 -5 10 -11 10 -5 0 -7
-4 -4 -10z"/>
<path d="M602 73 c-15 -27 -15 -33 -1 -33 5 0 8 4 5 9 -4 5 -1 11 5 13 7 2 10
11 7 18 -3 11 -8 10 -16 -7z"/>
<path d="M635 80 c3 -5 8 -10 11 -10 2 0 4 5 4 10 0 6 -5 10 -11 10 -5 0 -7
-4 -4 -10z"/>
<path d="M922 73 c-15 -27 -15 -33 -1 -33 5 0 8 4 5 9 -4 5 -1 11 5 13 7 2 10
11 7 18 -3 11 -8 10 -16 -7z"/>
<path d="M950 85 c0 -3 2 -5 5 -5 3 0 5 2 5 5 0 3 -2 5 -5 5 -3 0 -5 -2 -5 -5z"/>
<path d="M22 49 c3 -8 -1 -22 -10 -31 -14 -16 -13 -18 1 -18 10 0 17 6 17 14
0 8 4 16 9 18 5 2 2 9 -6 17 -14 12 -15 12 -11 0z"/>
<path d="M310 55 c0 -3 2 -5 5 -5 3 0 5 2 5 5 0 3 -2 5 -5 5 -3 0 -5 -2 -5 -5z"/>
<path d="M343 48 c6 -16 -15 -43 -25 -32 -3 3 -8 1 -11 -3 -3 -5 5 -10 19 -11
15 -1 24 4 24 12 0 8 4 16 9 18 5 2 2 10 -7 18 -14 13 -15 12 -9 -2z"/>
<path d="M630 55 c0 -3 2 -5 5 -5 3 0 5 2 5 5 0 3 -2 5 -5 5 -3 0 -5 -2 -5 -5z"/>
<path d="M663 48 c6 -16 -15 -43 -25 -32 -3 3 -8 1 -11 -3 -3 -5 5 -10 19 -11
15 -1 24 4 24 12 0 8 4 16 9 18 5 2 2 10 -7 18 -14 13 -15 12 -9 -2z"/>
<path d="M950 55 c0 -3 2 -5 5 -5 3 0 5 2 5 5 0 3 -2 5 -5 5 -3 0 -5 -2 -5 -5z"/>
<path d="M150 40 c0 -7 3 -10 7 -7 3 4 3 10 0 14 -4 3 -7 0 -7 -7z"/>
<path d="M200 45 c0 -3 2 -5 5 -5 3 0 5 2 5 5 0 3 -2 5 -5 5 -3 0 -5 -2 -5 -5z"/>
<path d="M227 31 c-3 -14 2 -20 19 -24 12 -2 29 0 36 5 10 8 9 9 -4 5 -21 -7
-46 18 -26 26 9 4 8 6 -3 6 -9 1 -19 -8 -22 -18z"/>
<path d="M470 40 c0 -7 3 -10 7 -7 3 4 3 10 0 14 -4 3 -7 0 -7 -7z"/>
<path d="M520 45 c0 -3 2 -5 5 -5 3 0 5 2 5 5 0 3 -2 5 -5 5 -3 0 -5 -2 -5 -5z"/>
<path d="M547 31 c-3 -14 2 -20 19 -24 12 -2 29 0 36 5 10 8 9 9 -4 5 -21 -7
-46 18 -26 26 9 4 8 6 -3 6 -9 1 -19 -8 -22 -18z"/>
<path d="M790 40 c0 -7 3 -10 7 -7 3 4 3 10 0 14 -4 3 -7 0 -7 -7z"/>
<path d="M840 45 c0 -3 2 -5 5 -5 3 0 5 2 5 5 0 3 -2 5 -5 5 -3 0 -5 -2 -5 -5z"/>
<path d="M867 31 c-3 -14 2 -20 19 -24 12 -2 29 0 36 5 10 8 9 9 -4 5 -21 -7
-46 18 -26 26 9 4 8 6 -3 6 -9 1 -19 -8 -22 -18z"/>
<path d="M303 33 c4 -3 10 -3 14 0 3 4 0 7 -7 7 -7 0 -10 -3 -7 -7z"/>
<path d="M623 33 c4 -3 10 -3 14 0 3 4 0 7 -7 7 -7 0 -10 -3 -7 -7z"/>
<path d="M943 33 c4 -3 10 -3 14 0 3 4 0 7 -7 7 -7 0 -10 -3 -7 -7z"/>
<path d="M135 20 c3 -5 8 -10 11 -10 3 0 2 5 -1 10 -3 6 -8 10 -11 10 -3 0 -2
-4 1 -10z"/>
<path d="M455 20 c3 -5 8 -10 11 -10 3 0 2 5 -1 10 -3 6 -8 10 -11 10 -3 0 -2
-4 1 -10z"/>
<path d="M775 20 c3 -5 8 -10 11 -10 3 0 2 5 -1 10 -3 6 -8 10 -11 10 -3 0 -2
-4 1 -10z"/>
<path d="M166 8 c3 -4 11 -5 19 -1 21 7 19 12 -4 10 -11 0 -18 -5 -15 -9z"/>
<path d="M486 8 c3 -4 11 -5 19 -1 21 7 19 12 -4 10 -11 0 -18 -5 -15 -9z"/>
<path d="M806 8 c3 -4 11 -5 19 -1 21 7 19 12 -4 10 -11 0 -18 -5 -15 -9z"/>
<path d="M944 8 c-4 -7 -3 -8 4 -4 12 7 16 16 8 16 -3 0 -8 -5 -12 -12z"/>
</g>
<g transform="translate(0.000000,96.000000) scale(0.100000,-0.100000)"
fill="#080b10" stroke="none">
<path d="M230 725 c0 -3 2 -5 5 -5 3 0 5 2 5 5 0 3 -2 5 -5 5 -3 0 -5 -2 -5
-5z"/>
<path d="M550 725 c0 -3 2 -5 5 -5 3 0 5 2 5 5 0 3 -2 5 -5 5 -3 0 -5 -2 -5
-5z"/>
<path d="M870 725 c0 -3 2 -5 5 -5 3 0 5 2 5 5 0 3 -2 5 -5 5 -3 0 -5 -2 -5
-5z"/>
<path d="M40 645 c0 -3 2 -5 5 -5 3 0 5 2 5 5 0 3 -2 5 -5 5 -3 0 -5 -2 -5 -5z"/>
<path d="M360 645 c0 -3 2 -5 5 -5 3 0 5 2 5 5 0 3 -2 5 -5 5 -3 0 -5 -2 -5
-5z"/>
<path d="M680 645 c0 -3 2 -5 5 -5 3 0 5 2 5 5 0 3 -2 5 -5 5 -3 0 -5 -2 -5
-5z"/>
<path d="M230 405 c0 -3 2 -5 5 -5 3 0 5 2 5 5 0 3 -2 5 -5 5 -3 0 -5 -2 -5
-5z"/>
<path d="M550 405 c0 -3 2 -5 5 -5 3 0 5 2 5 5 0 3 -2 5 -5 5 -3 0 -5 -2 -5
-5z"/>
<path d="M870 405 c0 -3 2 -5 5 -5 3 0 5 2 5 5 0 3 -2 5 -5 5 -3 0 -5 -2 -5
-5z"/>
<path d="M40 325 c0 -3 2 -5 5 -5 3 0 5 2 5 5 0 3 -2 5 -5 5 -3 0 -5 -2 -5 -5z"/>
<path d="M360 325 c0 -3 2 -5 5 -5 3 0 5 2 5 5 0 3 -2 5 -5 5 -3 0 -5 -2 -5
-5z"/>
<path d="M680 325 c0 -3 2 -5 5 -5 3 0 5 2 5 5 0 3 -2 5 -5 5 -3 0 -5 -2 -5
-5z"/>
<path d="M230 85 c0 -3 2 -5 5 -5 3 0 5 2 5 5 0 3 -2 5 -5 5 -3 0 -5 -2 -5 -5z"/>
<path d="M550 85 c0 -3 2 -5 5 -5 3 0 5 2 5 5 0 3 -2 5 -5 5 -3 0 -5 -2 -5 -5z"/>
<path d="M870 85 c0 -3 2 -5 5 -5 3 0 5 2 5 5 0 3 -2 5 -5 5 -3 0 -5 -2 -5 -5z"/>
<path d="M40 5 c0 -3 2 -5 5 -5 3 0 5 2 5 5 0 3 -2 5 -5 5 -3 0 -5 -2 -5 -5z"/>
<path d="M360 5 c0 -3 2 -5 5 -5 3 0 5 2 5 5 0 3 -2 5 -5 5 -3 0 -5 -2 -5 -5z"/>
<path d="M680 5 c0 -3 2 -5 5 -5 3 0 5 2 5 5 0 3 -2 5 -5 5 -3 0 -5 -2 -5 -5z"/>
</g>
  </g>
</svg>
