<?xml version="1.0" encoding="UTF-8" standalone="no"?>
<!-- Created with Inkscape (http://www.inkscape.org/) -->

<svg
   xmlns:dc="http://purl.org/dc/elements/1.1/"
   xmlns:cc="http://creativecommons.org/ns#"
   xmlns:rdf="http://www.w3.org/1999/02/22-rdf-syntax-ns#"
   xmlns:svg="http://www.w3.org/2000/svg"
   xmlns="http://www.w3.org/2000/svg"
   xmlns:sodipodi="http://sodipodi.sourceforge.net/DTD/sodipodi-0.dtd"
   xmlns:inkscape="http://www.inkscape.org/namespaces/inkscape"
   width="32px"
   height="32px"
   viewBox="0 0 32px 32px"
   version="1.1"
   id="svgMain"
   inkscape:version="0.92.2 (5c3e80d, 2017-08-06)"
   sodipodi:docname="reference_SVG.svg">
  <defs
     id="defs4542" />
  <sodipodi:namedview
     id="base"
     pagecolor="#ffffff"
     bordercolor="#666666"
     borderopacity="1.0"
     inkscape:pageopacity="0.0"
     inkscape:pageshadow="2"
     inkscape:zoom="1"
     inkscape:cx="0"
     inkscape:cy="0"
     inkscape:document-units="px"
     inkscape:current-layer="layer1"
     showgrid="false"
     units="px"
     inkscape:window-width="1024"
     inkscape:window-height="768"
     inkscape:window-x="-8"
     inkscape:window-y="-8"
     inkscape:window-maximized="1" />
  <metadata
     id="metadata1">
    <rdf:RDF>
      <cc:Work
         rdf:about="">
        <dc:format>image/svg+xml</dc:format>
        <dc:type
           rdf:resource="http://purl.org/dc/dcmitype/StillImage" />
        <dc:title />
      </cc:Work>
    </rdf:RDF>
  </metadata>
  <g transform="translate(-32,-32)"
     inkscape:label="Layer 1"
     inkscape:groupmode="layer"
     id="layer1">
    <!-- INSERT MARKER -->
<g transform="translate(0.000000,96.000000) scale(0.100000,-0.100000)"
fill="#254d28" stroke="none">
<path d="M70 953 c0 -2 5 -13 10 -24 13 -23 3 -25 -21 -3 -39 35 -38 6 0 -43
43 -53 57 -90 23 -60 -10 10 -29 17 -42 17 l-23 0 21 -23 c32 -34 26 -67 -6
-35 -9 9 -12 9 -12 -3 0 -9 18 -30 40 -48 33 -26 40 -38 40 -66 0 -26 -3 -33
-15 -29 -18 7 -19 0 -5 -27 13 -23 3 -25 -21 -3 -39 35 -38 6 0 -43 43 -53 57
-90 23 -60 -10 10 -29 17 -42 17 l-23 0 21 -23 c32 -34 26 -67 -6 -35 -9 9
-12 9 -12 -3 0 -9 18 -30 40 -48 33 -26 40 -38 40 -66 0 -26 -3 -33 -15 -29
-18 7 -19 0 -5 -27 13 -23 3 -25 -21 -3 -39 35 -38 6 0 -43 43 -53 57 -90 23
-60 -10 10 -29 17 -42 17 l-23 0 21 -23 c32 -34 26 -67 -6 -35 -9 9 -12 9 -12
-3 0 -9 18 -30 40 -48 30 -24 40 -39 40 -61 0 -29 1 -30 50 -30 49 0 50 1 50
30 0 20 8 35 26 47 14 10 37 28 52 40 26 21 26 22 6 23 -12 0 -34 -7 -50 -15
-47 -24 -42 -5 14 44 57 52 64 66 29 57 -35 -8 -53 26 -33 65 14 29 14 29 -15
29 -25 0 -29 4 -29 30 0 20 8 35 26 47 14 10 37 28 52 40 26 21 26 22 6 23
-12 0 -34 -7 -50 -15 -47 -24 -42 -5 14 44 57 52 64 66 29 57 -35 -8 -53 26
-33 65 14 29 14 29 -15 29 -25 0 -29 4 -29 30 0 20 8 35 26 47 14 10 37 28 52
40 26 21 26 22 6 23 -12 0 -34 -7 -50 -15 -47 -24 -42 -5 14 44 57 52 64 66
29 57 -35 -8 -53 26 -33 65 l15 30 -95 -2 c-52 -1 -94 -3 -94 -6z"/>
<path d="M390 953 c0 -2 5 -13 10 -24 13 -23 3 -25 -21 -3 -39 35 -38 6 0 -43
43 -53 57 -90 23 -60 -10 10 -29 17 -42 17 l-23 0 21 -23 c32 -34 26 -67 -6
-35 -9 9 -12 9 -12 -3 0 -9 18 -30 40 -48 33 -26 40 -38 40 -66 0 -26 -3 -33
-15 -29 -18 7 -19 0 -5 -27 13 -23 3 -25 -21 -3 -39 35 -38 6 0 -43 43 -53 57
-90 23 -60 -10 10 -29 17 -42 17 l-23 0 21 -23 c32 -34 26 -67 -6 -35 -9 9
-12 9 -12 -3 0 -9 18 -30 40 -48 33 -26 40 -38 40 -66 0 -26 -3 -33 -15 -29
-18 7 -19 0 -5 -27 13 -23 3 -25 -21 -3 -39 35 -38 6 0 -43 43 -53 57 -90 23
-60 -10 10 -29 17 -42 17 l-23 0 21 -23 c32 -34 26 -67 -6 -35 -9 9 -12 9 -12
-3 0 -9 18 -30 40 -48 30 -24 40 -39 40 -61 0 -29 1 -30 50 -30 49 0 50 1 50
30 0 20 8 35 26 47 14 10 37 28 52 40 26 21 26 22 6 23 -12 0 -34 -7 -50 -15
-47 -24 -42 -5 14 44 57 52 64 66 29 57 -35 -8 -53 26 -33 65 14 29 14 29 -15
29 -25 0 -29 4 -29 30 0 20 8 35 26 47 14 10 37 28 52 40 26 21 26 22 6 23
-12 0 -34 -7 -50 -15 -47 -24 -42 -5 14 44 57 52 64 66 29 57 -35 -8 -53 26
-33 65 14 29 14 29 -15 29 -25 0 -29 4 -29 30 0 20 8 35 26 47 14 10 37 28 52
40 26 21 26 22 6 23 -12 0 -34 -7 -50 -15 -47 -24 -42 -5 14 44 57 52 64 66
29 57 -35 -8 -53 26 -33 65 l15 30 -95 -2 c-52 -1 -94 -3 -94 -6z"/>
<path d="M710 953 c0 -2 5 -13 10 -24 13 -23 3 -25 -21 -3 -39 35 -38 6 0 -43
43 -53 57 -90 23 -60 -10 10 -29 17 -42 17 l-23 0 21 -23 c32 -34 26 -67 -6
-35 -9 9 -12 9 -12 -3 0 -9 18 -30 40 -48 33 -26 40 -38 40 -66 0 -26 -3 -33
-15 -29 -18 7 -19 0 -5 -27 13 -23 3 -25 -21 -3 -39 35 -38 6 0 -43 43 -53 57
-90 23 -60 -10 10 -29 17 -42 17 l-23 0 21 -23 c32 -34 26 -67 -6 -35 -9 9
-12 9 -12 -3 0 -9 18 -30 40 -48 33 -26 40 -38 40 -66 0 -26 -3 -33 -15 -29
-18 7 -19 0 -5 -27 13 -23 3 -25 -21 -3 -39 35 -38 6 0 -43 43 -53 57 -90 23
-60 -10 10 -29 17 -42 17 l-23 0 21 -23 c32 -34 26 -67 -6 -35 -9 9 -12 9 -12
-3 0 -9 18 -30 40 -48 30 -24 40 -39 40 -61 0 -29 1 -30 50 -30 49 0 50 1 50
30 0 20 8 35 26 47 14 10 37 28 52 40 26 21 26 22 6 23 -12 0 -34 -7 -50 -15
-47 -24 -42 -5 14 44 57 52 64 66 29 57 -35 -8 -53 26 -33 65 14 29 14 29 -15
29 -25 0 -29 4 -29 30 0 20 8 35 26 47 14 10 37 28 52 40 26 21 26 22 6 23
-12 0 -34 -7 -50 -15 -47 -24 -42 -5 14 44 57 52 64 66 29 57 -35 -8 -53 26
-33 65 14 29 14 29 -15 29 -25 0 -29 4 -29 30 0 20 8 35 26 47 14 10 37 28 52
40 26 21 26 22 6 23 -12 0 -34 -7 -50 -15 -47 -24 -42 -5 14 44 57 52 64 66
29 57 -35 -8 -53 26 -33 65 l15 30 -95 -2 c-52 -1 -94 -3 -94 -6z"/>
</g>
<g transform="translate(0.000000,96.000000) scale(0.100000,-0.100000)"
fill="#e0abf7" stroke="none">
<path d="M173 885 c-18 -20 -16 -29 7 -50 20 -18 21 -18 47 8 22 22 24 28 13
41 -16 20 -51 20 -67 1z"/>
<path d="M493 885 c-18 -20 -16 -29 7 -50 20 -18 21 -18 47 8 22 22 24 28 13
41 -16 20 -51 20 -67 1z"/>
<path d="M813 885 c-18 -20 -16 -29 7 -50 20 -18 21 -18 47 8 22 22 24 28 13
41 -16 20 -51 20 -67 1z"/>
<path d="M173 565 c-18 -20 -16 -29 7 -50 20 -18 21 -18 47 8 22 22 24 28 13
41 -16 20 -51 20 -67 1z"/>
<path d="M493 565 c-18 -20 -16 -29 7 -50 20 -18 21 -18 47 8 22 22 24 28 13
41 -16 20 -51 20 -67 1z"/>
<path d="M813 565 c-18 -20 -16 -29 7 -50 20 -18 21 -18 47 8 22 22 24 28 13
41 -16 20 -51 20 -67 1z"/>
<path d="M173 245 c-18 -20 -16 -29 7 -50 20 -18 21 -18 47 8 22 22 24 28 13
41 -16 20 -51 20 -67 1z"/>
<path d="M493 245 c-18 -20 -16 -29 7 -50 20 -18 21 -18 47 8 22 22 24 28 13
41 -16 20 -51 20 -67 1z"/>
<path d="M813 245 c-18 -20 -16 -29 7 -50 20 -18 21 -18 47 8 22 22 24 28 13
41 -16 20 -51 20 -67 1z"/>
</g>
<g transform="translate(0.000000,96.000000) scale(0.100000,-0.100000)"
fill="#eedaf6" stroke="none">
<path d="M192 880 c7 -11 19 -18 27 -15 9 3 11 0 7 -10 -8 -22 2 -18 15 6 6
12 7 19 1 15 -5 -3 -15 1 -22 9 -7 8 -19 15 -26 15 -12 0 -12 -4 -2 -20z"/>
<path d="M514 878 c6 -10 17 -16 25 -13 9 4 11 0 7 -12 -5 -14 -4 -15 4 -7 15
15 -7 53 -31 51 -13 -1 -15 -4 -5 -19z"/>
<path d="M832 880 c7 -11 19 -18 27 -15 9 4 11 0 7 -12 -6 -14 -5 -15 5 -6 10
10 9 17 -6 33 -25 28 -50 28 -33 0z"/>
<path d="M814 872 c3 -5 1 -12 -5 -14 -6 -2 -2 -11 9 -21 13 -12 22 -15 27 -8
3 6 -1 11 -10 11 -11 0 -15 5 -12 15 4 8 1 17 -5 21 -6 4 -8 3 -4 -4z"/>
<path d="M172 862 c-9 -7 -8 -13 8 -27 11 -10 20 -13 20 -7 0 6 -5 14 -10 17
-6 4 -8 11 -5 16 7 11 4 11 -13 1z"/>
<path d="M492 862 c-9 -6 -7 -13 10 -28 17 -14 19 -15 9 -2 -7 9 -10 22 -6 28
7 12 4 12 -13 2z"/>
<path d="M180 574 c0 -3 7 -12 15 -21 13 -13 18 -13 32 -1 15 12 15 11 3 -12
-12 -24 -11 -24 5 -8 17 16 13 44 -5 33 -5 -3 -11 -1 -15 5 -6 11 -35 14 -35
4z"/>
<path d="M512 560 c7 -11 19 -18 27 -15 9 4 11 0 7 -12 -5 -14 -4 -15 4 -7 15
15 -8 54 -32 54 -16 0 -16 -3 -6 -20z"/>
<path d="M832 560 c7 -11 19 -18 27 -15 9 4 11 0 7 -12 -5 -12 -4 -15 3 -8 18
17 2 51 -25 53 -22 2 -23 0 -12 -18z"/>
<path d="M171 541 c-10 -6 -10 -10 -1 -16 13 -8 24 -1 19 14 -3 6 -10 7 -18 2z"/>
<path d="M492 542 c-9 -6 -7 -13 10 -28 17 -14 19 -15 9 -2 -7 9 -10 22 -6 28
7 12 4 12 -13 2z"/>
<path d="M812 542 c-10 -7 -8 -13 7 -26 12 -11 21 -14 26 -7 3 6 -1 11 -9 11
-10 0 -13 6 -10 15 7 17 4 18 -14 7z"/>
<path d="M194 238 c6 -10 17 -16 25 -13 9 4 11 0 7 -12 -5 -14 -4 -15 4 -7 15
15 -7 53 -31 51 -13 -1 -15 -4 -5 -19z"/>
<path d="M512 240 c7 -11 19 -18 27 -15 9 4 11 0 7 -12 -5 -12 -4 -15 3 -8 18
17 2 51 -25 53 -22 2 -23 0 -12 -18z"/>
<path d="M834 238 c6 -10 17 -16 25 -13 9 4 11 0 7 -12 -5 -14 -4 -15 4 -7 15
15 -7 53 -31 51 -13 -1 -15 -4 -5 -19z"/>
<path d="M172 222 c-9 -6 -7 -13 10 -28 17 -14 19 -15 9 -2 -7 9 -10 22 -6 28
7 12 4 12 -13 2z"/>
<path d="M492 222 c-10 -7 -8 -13 7 -26 12 -11 21 -14 26 -7 3 6 -1 11 -9 11
-10 0 -13 6 -10 15 7 17 4 18 -14 7z"/>
<path d="M812 222 c-9 -6 -7 -13 10 -28 17 -14 19 -15 9 -2 -7 9 -10 22 -6 28
7 12 4 12 -13 2z"/>
</g>
  </g>
</svg>
