<?xml version="1.0" encoding="UTF-8" standalone="no"?>
<!-- Created with Inkscape (http://www.inkscape.org/) -->

<svg
   xmlns:dc="http://purl.org/dc/elements/1.1/"
   xmlns:cc="http://creativecommons.org/ns#"
   xmlns:rdf="http://www.w3.org/1999/02/22-rdf-syntax-ns#"
   xmlns:svg="http://www.w3.org/2000/svg"
   xmlns="http://www.w3.org/2000/svg"
   xmlns:sodipodi="http://sodipodi.sourceforge.net/DTD/sodipodi-0.dtd"
   xmlns:inkscape="http://www.inkscape.org/namespaces/inkscape"
   width="32px"
   height="32px"
   viewBox="0 0 32px 32px"
   version="1.1"
   id="svgMain"
   inkscape:version="0.92.2 (5c3e80d, 2017-08-06)"
   sodipodi:docname="reference_SVG.svg">
  <defs
     id="defs4542" />
  <sodipodi:namedview
     id="base"
     pagecolor="#ffffff"
     bordercolor="#666666"
     borderopacity="1.0"
     inkscape:pageopacity="0.0"
     inkscape:pageshadow="2"
     inkscape:zoom="1"
     inkscape:cx="0"
     inkscape:cy="0"
     inkscape:document-units="px"
     inkscape:current-layer="layer1"
     showgrid="false"
     units="px"
     inkscape:window-width="1024"
     inkscape:window-height="768"
     inkscape:window-x="-8"
     inkscape:window-y="-8"
     inkscape:window-maximized="1" />
  <metadata
     id="metadata1">
    <rdf:RDF>
      <cc:Work
         rdf:about="">
        <dc:format>image/svg+xml</dc:format>
        <dc:type
           rdf:resource="http://purl.org/dc/dcmitype/StillImage" />
        <dc:title />
      </cc:Work>
    </rdf:RDF>
  </metadata>
  <g transform="translate(-32,-32)"
     inkscape:label="Layer 1"
     inkscape:groupmode="layer"
     id="layer1">
    <!-- INSERT MARKER -->
<g transform="translate(0.000000,96.000000) scale(0.100000,-0.100000)"
fill="#3d6528" stroke="none">
<path d="M109 851 c-16 -16 -29 -39 -29 -51 0 -28 52 -80 80 -80 28 0 80 52
80 80 0 28 -52 80 -80 80 -12 0 -35 -13 -51 -29z"/>
<path d="M429 851 c-16 -16 -29 -39 -29 -51 0 -28 52 -80 80 -80 28 0 80 52
80 80 0 28 -52 80 -80 80 -12 0 -35 -13 -51 -29z"/>
<path d="M749 851 c-16 -16 -29 -39 -29 -51 0 -28 52 -80 80 -80 28 0 80 52
80 80 0 28 -52 80 -80 80 -12 0 -35 -13 -51 -29z"/>
<path d="M109 531 c-37 -37 -37 -65 0 -102 16 -16 39 -29 51 -29 28 0 80 52
80 80 0 28 -52 80 -80 80 -12 0 -35 -13 -51 -29z"/>
<path d="M429 531 c-16 -16 -29 -39 -29 -51 0 -28 52 -80 80 -80 28 0 80 52
80 80 0 12 -13 35 -29 51 -16 16 -39 29 -51 29 -12 0 -35 -13 -51 -29z"/>
<path d="M749 531 c-16 -16 -29 -39 -29 -51 0 -28 52 -80 80 -80 28 0 80 52
80 80 0 28 -52 80 -80 80 -12 0 -35 -13 -51 -29z"/>
<path d="M109 211 c-16 -16 -29 -39 -29 -51 0 -28 52 -80 80 -80 28 0 80 52
80 80 0 28 -52 80 -80 80 -12 0 -35 -13 -51 -29z"/>
<path d="M429 211 c-16 -16 -29 -39 -29 -51 0 -28 52 -80 80 -80 28 0 80 52
80 80 0 28 -52 80 -80 80 -12 0 -35 -13 -51 -29z"/>
<path d="M749 211 c-16 -16 -29 -39 -29 -51 0 -28 52 -80 80 -80 28 0 80 52
80 80 0 28 -52 80 -80 80 -12 0 -35 -13 -51 -29z"/>
</g>
<g transform="translate(0.000000,96.000000) scale(0.100000,-0.100000)"
fill="#446f2d" stroke="none">
<path d="M130 870 c-8 -5 -11 -12 -7 -17 5 -4 12 -1 17 6 4 8 15 11 24 8 9 -4
16 -2 16 3 0 13 -30 13 -50 0z"/>
<path d="M470 876 c0 -2 7 -9 15 -16 12 -10 15 -10 15 4 0 9 -7 16 -15 16 -8
0 -15 -2 -15 -4z"/>
<path d="M795 870 c3 -5 14 -10 24 -10 9 0 21 -3 27 -7 5 -5 1 0 -9 10 -20 18
-52 24 -42 7z"/>
<path d="M440 860 c0 -5 5 -10 10 -10 6 0 10 5 10 10 0 6 -4 10 -10 10 -5 0
-10 -4 -10 -10z"/>
<path d="M760 855 c0 -8 -6 -15 -14 -15 -29 0 -35 -55 -7 -63 14 -3 18 -1 14
9 -3 8 -10 14 -16 14 -5 0 2 11 17 25 27 25 34 45 16 45 -5 0 -10 -7 -10 -15z"/>
<path d="M205 850 c3 -5 8 -10 11 -10 3 0 2 5 -1 10 -3 6 -8 10 -11 10 -3 0
-2 -4 1 -10z"/>
<path d="M525 850 c3 -5 8 -10 11 -10 3 0 2 5 -1 10 -3 6 -8 10 -11 10 -3 0
-2 -4 1 -10z"/>
<path d="M86 824 c-10 -26 -7 -46 7 -41 6 2 11 10 9 17 -1 7 3 18 9 26 9 11 8
14 -4 14 -8 0 -18 -7 -21 -16z"/>
<path d="M404 814 c-7 -26 9 -54 23 -40 4 4 1 12 -7 17 -12 9 -11 10 6 6 19
-4 20 -2 10 19 -14 31 -24 30 -32 -2z"/>
<path d="M490 835 c0 -3 2 -5 5 -5 3 0 5 2 5 5 0 3 -2 5 -5 5 -3 0 -5 -2 -5
-5z"/>
<path d="M800 835 c0 -3 2 -5 5 -5 3 0 5 2 5 5 0 3 -2 5 -5 5 -3 0 -5 -2 -5
-5z"/>
<path d="M450 825 c0 -3 2 -5 5 -5 3 0 5 2 5 5 0 3 -2 5 -5 5 -3 0 -5 -2 -5
-5z"/>
<path d="M551 811 c0 -8 -9 -20 -18 -27 -10 -7 -13 -13 -8 -14 21 0 37 18 32
36 -3 11 -5 13 -6 5z"/>
<path d="M150 805 c0 -3 2 -5 5 -5 3 0 5 2 5 5 0 3 -2 5 -5 5 -3 0 -5 -2 -5
-5z"/>
<path d="M230 801 c0 -7 -4 -10 -9 -7 -5 3 -11 -1 -15 -9 -3 -9 0 -15 10 -15
16 0 31 27 20 37 -3 4 -6 1 -6 -6z"/>
<path d="M855 794 c-19 -19 -15 -27 9 -18 9 3 16 12 16 20 0 18 -5 18 -25 -2z"/>
<path d="M120 795 c0 -3 2 -5 5 -5 3 0 5 2 5 5 0 3 -2 5 -5 5 -3 0 -5 -2 -5
-5z"/>
<path d="M175 780 c3 -5 8 -10 11 -10 3 0 2 5 -1 10 -3 6 -8 10 -11 10 -3 0
-2 -4 1 -10z"/>
<path d="M790 780 c0 -7 3 -10 7 -7 3 4 3 10 0 14 -4 3 -7 0 -7 -7z"/>
<path d="M110 775 c0 -3 2 -5 5 -5 3 0 5 2 5 5 0 3 -2 5 -5 5 -3 0 -5 -2 -5
-5z"/>
<path d="M811 766 c-9 -10 -8 -16 4 -26 9 -7 19 -10 22 -6 4 4 1 11 -6 15 -7
5 -10 14 -7 20 10 16 1 14 -13 -3z"/>
<path d="M453 763 c-20 -8 -15 -31 8 -38 11 -4 23 -4 26 -2 8 9 -7 28 -18 22
-5 -3 -6 1 -3 9 7 17 6 17 -13 9z"/>
<path d="M489 753 c14 -27 31 -30 31 -6 0 9 -3 13 -7 10 -3 -4 -13 -1 -21 6
-13 10 -14 9 -3 -10z"/>
<path d="M130 741 c11 -21 40 -29 40 -11 0 5 7 7 15 4 8 -4 15 -1 15 5 0 6 -1
11 -2 11 -82 13 -80 13 -68 -9z"/>
<path d="M770 745 c0 -16 27 -32 37 -21 7 7 -16 36 -28 36 -5 0 -9 -7 -9 -15z"/>
<path d="M157 539 c4 -16 8 -17 14 -7 13 19 11 28 -5 28 -9 0 -12 -7 -9 -21z"/>
<path d="M470 556 c0 -2 7 -9 15 -16 12 -10 15 -10 15 4 0 9 -7 16 -15 16 -8
0 -15 -2 -15 -4z"/>
<path d="M795 550 c3 -5 14 -10 24 -10 9 0 21 -3 27 -7 5 -5 1 0 -9 10 -20 18
-52 24 -42 7z"/>
<path d="M103 523 c-27 -31 -30 -58 -7 -67 25 -9 27 -7 10 10 -18 17 -13 34
10 34 8 0 12 5 9 10 -3 6 -1 10 4 10 6 0 11 7 11 15 0 21 -12 18 -37 -12z"/>
<path d="M440 540 c0 -5 5 -10 10 -10 6 0 10 5 10 10 0 6 -4 10 -10 10 -5 0
-10 -4 -10 -10z"/>
<path d="M760 535 c0 -8 -6 -15 -14 -15 -29 0 -35 -55 -7 -63 14 -3 18 -1 14
9 -3 8 -10 14 -16 14 -5 0 2 11 17 25 27 25 34 45 16 45 -5 0 -10 -7 -10 -15z"/>
<path d="M205 530 c3 -5 8 -10 11 -10 3 0 2 5 -1 10 -3 6 -8 10 -11 10 -3 0
-2 -4 1 -10z"/>
<path d="M525 530 c3 -5 8 -10 11 -10 3 0 2 5 -1 10 -3 6 -8 10 -11 10 -3 0
-2 -4 1 -10z"/>
<path d="M404 494 c-7 -26 9 -54 23 -40 4 4 1 12 -7 17 -12 9 -11 10 6 6 19
-4 20 -2 10 19 -14 31 -24 30 -32 -2z"/>
<path d="M490 515 c0 -3 2 -5 5 -5 3 0 5 2 5 5 0 3 -2 5 -5 5 -3 0 -5 -2 -5
-5z"/>
<path d="M800 515 c0 -3 2 -5 5 -5 3 0 5 2 5 5 0 3 -2 5 -5 5 -3 0 -5 -2 -5
-5z"/>
<path d="M450 505 c0 -3 2 -5 5 -5 3 0 5 2 5 5 0 3 -2 5 -5 5 -3 0 -5 -2 -5
-5z"/>
<path d="M551 491 c0 -8 -9 -20 -18 -27 -10 -7 -13 -13 -8 -14 21 0 37 18 32
36 -3 11 -5 13 -6 5z"/>
<path d="M215 474 c-19 -19 -15 -27 9 -18 9 3 16 12 16 20 0 18 -5 18 -25 -2z"/>
<path d="M855 474 c-19 -19 -15 -27 9 -18 9 3 16 12 16 20 0 18 -5 18 -25 -2z"/>
<path d="M120 475 c0 -3 2 -5 5 -5 3 0 5 2 5 5 0 3 -2 5 -5 5 -3 0 -5 -2 -5
-5z"/>
<path d="M790 460 c0 -7 3 -10 7 -7 3 4 3 10 0 14 -4 3 -7 0 -7 -7z"/>
<path d="M160 455 c0 -3 2 -5 5 -5 3 0 5 2 5 5 0 3 -2 5 -5 5 -3 0 -5 -2 -5
-5z"/>
<path d="M811 446 c-9 -10 -8 -16 4 -26 9 -7 19 -10 22 -6 4 4 1 11 -6 15 -7
5 -10 14 -7 20 10 16 1 14 -13 -3z"/>
<path d="M134 437 c-7 -20 3 -37 22 -37 18 0 17 10 -1 34 -13 17 -15 17 -21 3z"/>
<path d="M453 443 c-20 -8 -15 -31 8 -38 11 -4 23 -4 26 -2 8 9 -7 28 -18 22
-5 -3 -6 1 -3 9 7 17 6 17 -13 9z"/>
<path d="M489 433 c14 -27 31 -30 31 -6 0 9 -3 13 -7 10 -3 -4 -13 -1 -21 6
-13 10 -14 9 -3 -10z"/>
<path d="M173 423 c9 -9 20 -13 24 -9 4 4 1 11 -7 16 -25 16 -35 11 -17 -7z"/>
<path d="M770 425 c0 -16 27 -32 37 -21 7 7 -16 36 -28 36 -5 0 -9 -7 -9 -15z"/>
<path d="M150 236 c0 -2 7 -9 15 -16 12 -10 15 -10 15 4 0 9 -7 16 -15 16 -8
0 -15 -2 -15 -4z"/>
<path d="M475 230 c3 -5 14 -10 24 -10 9 0 21 -3 27 -7 5 -5 1 0 -9 10 -20 18
-52 24 -42 7z"/>
<path d="M790 236 c0 -2 7 -9 15 -16 12 -10 15 -10 15 4 0 9 -7 16 -15 16 -8
0 -15 -2 -15 -4z"/>
<path d="M120 220 c0 -5 5 -10 10 -10 6 0 10 5 10 10 0 6 -4 10 -10 10 -5 0
-10 -4 -10 -10z"/>
<path d="M440 215 c0 -8 -6 -15 -14 -15 -29 0 -35 -55 -7 -63 14 -3 18 -1 14
9 -3 8 -10 14 -16 14 -5 0 2 11 17 25 27 25 34 45 16 45 -5 0 -10 -7 -10 -15z"/>
<path d="M760 220 c0 -5 5 -10 10 -10 6 0 10 5 10 10 0 6 -4 10 -10 10 -5 0
-10 -4 -10 -10z"/>
<path d="M205 210 c3 -5 8 -10 11 -10 3 0 2 5 -1 10 -3 6 -8 10 -11 10 -3 0
-2 -4 1 -10z"/>
<path d="M845 210 c3 -5 8 -10 11 -10 3 0 2 5 -1 10 -3 6 -8 10 -11 10 -3 0
-2 -4 1 -10z"/>
<path d="M84 174 c-7 -26 9 -54 23 -40 4 4 1 12 -7 17 -12 9 -11 10 6 6 19 -4
20 -2 10 19 -14 31 -24 30 -32 -2z"/>
<path d="M170 195 c0 -3 2 -5 5 -5 3 0 5 2 5 5 0 3 -2 5 -5 5 -3 0 -5 -2 -5
-5z"/>
<path d="M480 195 c0 -3 2 -5 5 -5 3 0 5 2 5 5 0 3 -2 5 -5 5 -3 0 -5 -2 -5
-5z"/>
<path d="M724 174 c-7 -26 9 -54 23 -40 4 4 1 12 -7 17 -12 9 -11 10 6 6 19
-4 20 -2 10 19 -14 31 -24 30 -32 -2z"/>
<path d="M810 195 c0 -3 2 -5 5 -5 3 0 5 2 5 5 0 3 -2 5 -5 5 -3 0 -5 -2 -5
-5z"/>
<path d="M130 185 c0 -3 2 -5 5 -5 3 0 5 2 5 5 0 3 -2 5 -5 5 -3 0 -5 -2 -5
-5z"/>
<path d="M770 185 c0 -3 2 -5 5 -5 3 0 5 2 5 5 0 3 -2 5 -5 5 -3 0 -5 -2 -5
-5z"/>
<path d="M231 171 c0 -8 -9 -20 -18 -27 -10 -7 -13 -13 -8 -14 21 0 37 18 32
36 -3 11 -5 13 -6 5z"/>
<path d="M871 171 c0 -8 -9 -20 -18 -27 -10 -7 -13 -13 -8 -14 21 0 37 18 32
36 -3 11 -5 13 -6 5z"/>
<path d="M535 154 c-19 -19 -15 -27 9 -18 9 3 16 12 16 20 0 18 -5 18 -25 -2z"/>
<path d="M470 140 c0 -7 3 -10 7 -7 3 4 3 10 0 14 -4 3 -7 0 -7 -7z"/>
<path d="M491 126 c-9 -10 -8 -16 4 -26 9 -7 19 -10 22 -6 4 4 1 11 -6 15 -7
5 -10 14 -7 20 10 16 1 14 -13 -3z"/>
<path d="M133 123 c-20 -8 -15 -31 8 -38 11 -4 23 -4 26 -2 8 9 -7 28 -18 22
-5 -3 -6 1 -3 9 7 17 6 17 -13 9z"/>
<path d="M169 113 c14 -27 31 -30 31 -6 0 9 -3 13 -7 10 -3 -4 -13 -1 -21 6
-13 10 -14 9 -3 -10z"/>
<path d="M773 123 c-20 -8 -15 -31 8 -38 11 -4 23 -4 26 -2 8 9 -7 28 -18 22
-5 -3 -6 1 -3 9 7 17 6 17 -13 9z"/>
<path d="M809 113 c14 -27 31 -30 31 -6 0 9 -3 13 -7 10 -3 -4 -13 -1 -21 6
-13 10 -14 9 -3 -10z"/>
<path d="M450 105 c0 -16 27 -32 37 -21 7 7 -16 36 -28 36 -5 0 -9 -7 -9 -15z"/>
</g>
  </g>
</svg>
