<?xml version="1.0" encoding="UTF-8" standalone="no"?>
<!-- Created with Inkscape (http://www.inkscape.org/) -->

<svg
   xmlns:dc="http://purl.org/dc/elements/1.1/"
   xmlns:cc="http://creativecommons.org/ns#"
   xmlns:rdf="http://www.w3.org/1999/02/22-rdf-syntax-ns#"
   xmlns:svg="http://www.w3.org/2000/svg"
   xmlns="http://www.w3.org/2000/svg"
   xmlns:sodipodi="http://sodipodi.sourceforge.net/DTD/sodipodi-0.dtd"
   xmlns:inkscape="http://www.inkscape.org/namespaces/inkscape"
   width="16px"
   height="16px"
   viewBox="0 0 16px 16px"
   version="1.1"
   id="svgMain"
   inkscape:version="0.92.2 (5c3e80d, 2017-08-06)"
   sodipodi:docname="reference_SVG.svg">
  <defs
     id="defs4542" />
  <sodipodi:namedview
     id="base"
     pagecolor="#ffffff"
     bordercolor="#666666"
     borderopacity="1.0"
     inkscape:pageopacity="0.0"
     inkscape:pageshadow="2"
     inkscape:zoom="1"
     inkscape:cx="0"
     inkscape:cy="0"
     inkscape:document-units="px"
     inkscape:current-layer="layer1"
     showgrid="false"
     units="px"
     inkscape:window-width="1024"
     inkscape:window-height="768"
     inkscape:window-x="-8"
     inkscape:window-y="-8"
     inkscape:window-maximized="1" />
  <metadata
     id="metadata1">
    <rdf:RDF>
      <cc:Work
         rdf:about="">
        <dc:format>image/svg+xml</dc:format>
        <dc:type
           rdf:resource="http://purl.org/dc/dcmitype/StillImage" />
        <dc:title />
      </cc:Work>
    </rdf:RDF>
  </metadata>
  <g transform="translate(-16,-16) scale(0.5,0.5)"
     inkscape:label="Layer 1"
     inkscape:groupmode="layer"
     id="layer1">
    <!-- INSERT MARKER -->
<g transform="translate(0.000000,96.000000) scale(0.100000,-0.100000)"
fill="#45712e" stroke="none">
<path d="M150 756 c0 -39 -4 -55 -16 -60 -13 -5 -13 -9 3 -31 24 -33 33 -31
33 8 0 18 5 38 12 45 9 9 9 15 0 24 -7 7 -12 25 -12 40 0 15 -4 28 -10 28 -5
0 -10 -24 -10 -54z"/>
<path d="M470 756 c0 -39 -4 -55 -16 -60 -13 -5 -13 -9 3 -31 24 -33 33 -31
33 8 0 18 5 38 12 45 9 9 9 15 0 24 -7 7 -12 25 -12 40 0 15 -4 28 -10 28 -5
0 -10 -24 -10 -54z"/>
<path d="M790 756 c0 -39 -4 -55 -16 -60 -13 -5 -13 -9 3 -31 24 -33 33 -31
33 8 0 18 5 38 12 45 9 9 9 15 0 24 -7 7 -12 25 -12 40 0 15 -4 28 -10 28 -5
0 -10 -24 -10 -54z"/>
<path d="M150 436 c0 -39 -4 -55 -16 -60 -13 -5 -13 -9 3 -31 24 -33 33 -31
33 8 0 18 5 38 12 45 9 9 9 15 0 24 -7 7 -12 25 -12 40 0 15 -4 28 -10 28 -5
0 -10 -24 -10 -54z"/>
<path d="M470 436 c0 -39 -4 -55 -16 -60 -13 -5 -13 -9 3 -31 24 -33 33 -31
33 8 0 18 5 38 12 45 9 9 9 15 0 24 -7 7 -12 25 -12 40 0 15 -4 28 -10 28 -5
0 -10 -24 -10 -54z"/>
<path d="M790 436 c0 -39 -4 -55 -16 -60 -13 -5 -13 -9 3 -31 24 -33 33 -31
33 8 0 18 5 38 12 45 9 9 9 15 0 24 -7 7 -12 25 -12 40 0 15 -4 28 -10 28 -5
0 -10 -24 -10 -54z"/>
<path d="M150 116 c0 -39 -4 -55 -16 -60 -13 -5 -13 -9 3 -31 24 -33 33 -31
33 8 0 18 5 38 12 45 9 9 9 15 0 24 -7 7 -12 25 -12 40 0 15 -4 28 -10 28 -5
0 -10 -24 -10 -54z"/>
<path d="M470 116 c0 -39 -4 -55 -16 -60 -13 -5 -13 -9 3 -31 24 -33 33 -31
33 8 0 18 5 38 12 45 9 9 9 15 0 24 -7 7 -12 25 -12 40 0 15 -4 28 -10 28 -5
0 -10 -24 -10 -54z"/>
<path d="M790 116 c0 -39 -4 -55 -16 -60 -13 -5 -13 -9 3 -31 24 -33 33 -31
33 8 0 18 5 38 12 45 9 9 9 15 0 24 -7 7 -12 25 -12 40 0 15 -4 28 -10 28 -5
0 -10 -24 -10 -54z"/>
</g>
<g transform="translate(0.000000,96.000000) scale(0.100000,-0.100000)"
fill="#396125" stroke="none">
<path d="M160 800 c0 -7 3 -10 7 -7 3 4 3 10 0 14 -4 3 -7 0 -7 -7z"/>
<path d="M477 790 c-3 -11 -1 -23 4 -26 5 -3 9 6 9 20 0 31 -6 34 -13 6z"/>
<path d="M802 785 c0 -16 2 -22 5 -12 2 9 2 23 0 30 -3 6 -5 -1 -5 -18z"/>
<path d="M157 760 c3 -11 7 -20 9 -20 2 0 4 9 4 20 0 11 -4 20 -9 20 -5 0 -7
-9 -4 -20z"/>
<path d="M484 727 c1 -20 4 -23 14 -15 7 6 9 14 5 17 -4 4 -11 10 -14 14 -4 5
-6 -3 -5 -16z"/>
<path d="M800 745 c0 -3 2 -5 5 -5 3 0 5 2 5 5 0 3 -2 5 -5 5 -3 0 -5 -2 -5
-5z"/>
<path d="M166 714 c-5 -14 -4 -15 9 -4 17 14 19 20 6 20 -5 0 -12 -7 -15 -16z"/>
<path d="M803 715 c0 -11 4 -12 14 -4 7 6 13 13 13 15 0 2 -6 4 -13 4 -8 0
-14 -7 -14 -15z"/>
<path d="M127 692 c-3 -4 3 -17 13 -29 l18 -22 6 21 c3 12 3 24 1 27 -3 2 -5
-1 -5 -7 0 -6 -7 -9 -16 -5 -13 5 -13 7 -2 14 9 6 9 9 1 9 -6 0 -14 -3 -16 -8z"/>
<path d="M447 692 c-3 -4 3 -17 13 -29 l18 -22 6 21 c3 12 3 24 1 27 -3 2 -5
-1 -5 -7 0 -6 -7 -9 -16 -5 -13 5 -13 7 -2 14 9 6 9 9 1 9 -6 0 -14 -3 -16 -8z"/>
<path d="M767 692 c-3 -4 3 -18 14 -31 10 -13 19 -19 19 -13 0 6 -7 17 -15 25
-11 12 -12 17 -2 20 9 4 9 6 0 6 -6 1 -14 -2 -16 -7z"/>
<path d="M800 680 c0 -7 3 -10 7 -7 3 4 3 10 0 14 -4 3 -7 0 -7 -7z"/>
<path d="M162 465 c0 -16 2 -22 5 -12 2 9 2 23 0 30 -3 6 -5 -1 -5 -18z"/>
<path d="M480 480 c0 -7 3 -10 7 -7 3 4 3 10 0 14 -4 3 -7 0 -7 -7z"/>
<path d="M800 480 c0 -7 3 -10 7 -7 3 4 3 10 0 14 -4 3 -7 0 -7 -7z"/>
<path d="M476 445 c4 -8 8 -15 10 -15 2 0 4 7 4 15 0 8 -4 15 -10 15 -5 0 -7
-7 -4 -15z"/>
<path d="M802 435 c0 -16 2 -22 5 -12 2 9 2 23 0 30 -3 6 -5 -1 -5 -18z"/>
<path d="M163 410 c1 -20 12 -26 20 -12 3 4 -1 13 -8 19 -11 10 -13 9 -12 -7z"/>
<path d="M483 404 c0 -16 13 -19 21 -5 3 5 0 11 -7 14 -8 3 -14 -1 -14 -9z"/>
<path d="M810 400 c-9 -6 -10 -10 -3 -10 6 0 15 5 18 10 8 12 4 12 -15 0z"/>
<path d="M127 372 c-3 -4 3 -18 14 -31 10 -13 19 -19 19 -13 0 6 -7 17 -15 25
-11 12 -12 17 -2 20 9 4 9 6 0 6 -6 1 -14 -2 -16 -7z"/>
<path d="M447 372 c-3 -4 3 -17 13 -29 l18 -23 6 26 c4 15 5 29 1 32 -3 3 -5
-2 -5 -11 0 -11 -5 -14 -16 -10 -13 5 -13 7 -2 14 9 6 9 9 1 9 -6 0 -14 -3
-16 -8z"/>
<path d="M767 372 c-3 -4 3 -18 14 -31 10 -13 19 -19 19 -13 0 6 -7 17 -15 25
-11 12 -12 17 -2 20 9 4 9 6 0 6 -6 1 -14 -2 -16 -7z"/>
<path d="M801 364 c0 -11 3 -14 6 -6 3 7 2 16 -1 19 -3 4 -6 -2 -5 -13z"/>
<path d="M160 360 c0 -7 3 -10 7 -7 3 4 3 10 0 14 -4 3 -7 0 -7 -7z"/>
<path d="M160 160 c0 -7 3 -10 7 -7 3 4 3 10 0 14 -4 3 -7 0 -7 -7z"/>
<path d="M480 160 c0 -7 3 -10 7 -7 3 4 3 10 0 14 -4 3 -7 0 -7 -7z"/>
<path d="M797 150 c-3 -11 -1 -23 4 -26 5 -3 9 6 9 20 0 31 -6 34 -13 6z"/>
<path d="M156 125 c4 -8 8 -15 10 -15 2 0 4 7 4 15 0 8 -4 15 -10 15 -5 0 -7
-7 -4 -15z"/>
<path d="M482 115 c0 -16 2 -22 5 -12 2 9 2 23 0 30 -3 6 -5 -1 -5 -18z"/>
<path d="M804 87 c1 -20 4 -23 14 -15 7 6 9 14 5 17 -4 4 -11 10 -14 14 -4 5
-6 -3 -5 -16z"/>
<path d="M163 84 c0 -16 13 -19 21 -5 3 5 0 11 -7 14 -8 3 -14 -1 -14 -9z"/>
<path d="M490 80 c-9 -6 -10 -10 -3 -10 6 0 15 5 18 10 8 12 4 12 -15 0z"/>
<path d="M127 52 c-3 -4 3 -17 13 -29 l18 -23 6 26 c4 15 5 29 1 32 -3 3 -5
-2 -5 -11 0 -11 -5 -14 -16 -10 -13 5 -13 7 -2 14 9 6 9 9 1 9 -6 0 -14 -3
-16 -8z"/>
<path d="M447 52 c-3 -4 3 -18 14 -31 10 -13 19 -19 19 -13 0 6 -7 17 -15 25
-11 12 -12 17 -2 20 9 4 9 6 0 6 -6 1 -14 -2 -16 -7z"/>
<path d="M481 44 c0 -11 3 -14 6 -6 3 7 2 16 -1 19 -3 4 -6 -2 -5 -13z"/>
<path d="M767 52 c-3 -4 3 -17 13 -29 l18 -22 6 21 c3 12 3 24 1 27 -3 2 -5
-1 -5 -7 0 -6 -7 -9 -16 -5 -13 5 -13 7 -2 14 9 6 9 9 1 9 -6 0 -14 -3 -16 -8z"/>
</g>
<g transform="translate(0.000000,96.000000) scale(0.100000,-0.100000)"
fill="#54873a" stroke="none">
<path d="M133 693 c4 -3 10 -3 14 0 3 4 0 7 -7 7 -7 0 -10 -3 -7 -7z"/>
<path d="M453 693 c4 -3 10 -3 14 0 3 4 0 7 -7 7 -7 0 -10 -3 -7 -7z"/>
<path d="M773 693 c4 -3 10 -3 14 0 3 4 0 7 -7 7 -7 0 -10 -3 -7 -7z"/>
<path d="M151 654 c0 -11 3 -14 6 -6 3 7 2 16 -1 19 -3 4 -6 -2 -5 -13z"/>
<path d="M471 654 c0 -11 3 -14 6 -6 3 7 2 16 -1 19 -3 4 -6 -2 -5 -13z"/>
<path d="M790 650 c0 -7 3 -10 7 -7 3 4 3 10 0 14 -4 3 -7 0 -7 -7z"/>
<path d="M133 373 c4 -3 10 -3 14 0 3 4 0 7 -7 7 -7 0 -10 -3 -7 -7z"/>
<path d="M453 373 c4 -3 10 -3 14 0 3 4 0 7 -7 7 -7 0 -10 -3 -7 -7z"/>
<path d="M773 373 c4 -3 10 -3 14 0 3 4 0 7 -7 7 -7 0 -10 -3 -7 -7z"/>
<path d="M471 334 c0 -11 3 -14 6 -6 3 7 2 16 -1 19 -3 4 -6 -2 -5 -13z"/>
<path d="M150 330 c0 -7 3 -10 7 -7 3 4 3 10 0 14 -4 3 -7 0 -7 -7z"/>
<path d="M790 330 c0 -7 3 -10 7 -7 3 4 3 10 0 14 -4 3 -7 0 -7 -7z"/>
<path d="M133 53 c4 -3 10 -3 14 0 3 4 0 7 -7 7 -7 0 -10 -3 -7 -7z"/>
<path d="M453 53 c4 -3 10 -3 14 0 3 4 0 7 -7 7 -7 0 -10 -3 -7 -7z"/>
<path d="M773 53 c4 -3 10 -3 14 0 3 4 0 7 -7 7 -7 0 -10 -3 -7 -7z"/>
<path d="M151 14 c0 -11 3 -14 6 -6 3 7 2 16 -1 19 -3 4 -6 -2 -5 -13z"/>
<path d="M791 14 c0 -11 3 -14 6 -6 3 7 2 16 -1 19 -3 4 -6 -2 -5 -13z"/>
<path d="M470 10 c0 -7 3 -10 7 -7 3 4 3 10 0 14 -4 3 -7 0 -7 -7z"/>
</g>
  </g>
</svg>
