<?xml version="1.0" encoding="UTF-8" standalone="no"?>
<!-- Created with Inkscape (http://www.inkscape.org/) -->

<svg
   xmlns:dc="http://purl.org/dc/elements/1.1/"
   xmlns:cc="http://creativecommons.org/ns#"
   xmlns:rdf="http://www.w3.org/1999/02/22-rdf-syntax-ns#"
   xmlns:svg="http://www.w3.org/2000/svg"
   xmlns="http://www.w3.org/2000/svg"
   xmlns:sodipodi="http://sodipodi.sourceforge.net/DTD/sodipodi-0.dtd"
   xmlns:inkscape="http://www.inkscape.org/namespaces/inkscape"
   width="32px"
   height="32px"
   viewBox="0 0 32px 32px"
   version="1.1"
   id="svgMain"
   inkscape:version="0.92.2 (5c3e80d, 2017-08-06)"
   sodipodi:docname="reference_SVG.svg">
  <defs
     id="defs4542" />
  <sodipodi:namedview
     id="base"
     pagecolor="#ffffff"
     bordercolor="#666666"
     borderopacity="1.0"
     inkscape:pageopacity="0.0"
     inkscape:pageshadow="2"
     inkscape:zoom="1"
     inkscape:cx="0"
     inkscape:cy="0"
     inkscape:document-units="px"
     inkscape:current-layer="layer1"
     showgrid="false"
     units="px"
     inkscape:window-width="1024"
     inkscape:window-height="768"
     inkscape:window-x="-8"
     inkscape:window-y="-8"
     inkscape:window-maximized="1" />
  <metadata
     id="metadata1">
    <rdf:RDF>
      <cc:Work
         rdf:about="">
        <dc:format>image/svg+xml</dc:format>
        <dc:type
           rdf:resource="http://purl.org/dc/dcmitype/StillImage" />
        <dc:title />
      </cc:Work>
    </rdf:RDF>
  </metadata>
  <g transform="translate(-32,-32)"
     inkscape:label="Layer 1"
     inkscape:groupmode="layer"
     id="layer1">
    <!-- INSERT MARKER -->
<g transform="translate(0.000000,96.000000) scale(0.100000,-0.100000)"
fill="#707070" stroke="none">
<path d="M65 889 c-4 -5 0 -18 9 -28 15 -16 15 -19 1 -31 -8 -7 -15 -21 -15
-32 0 -17 2 -19 16 -7 13 11 14 9 9 -14 -4 -15 -4 -35 0 -44 5 -10 10 -27 12
-37 8 -45 31 -56 120 -56 49 0 83 4 83 10 0 5 -5 9 -12 7 -6 -1 -12 9 -12 23
-1 19 -6 25 -22 24 -11 0 -21 6 -21 13 0 8 7 11 15 8 11 -4 13 1 8 22 -20 88
-20 94 3 100 23 6 27 23 9 41 -20 20 -42 14 -77 -22 l-33 -34 -30 34 c-31 35
-52 42 -63 23z m45 -149 c0 -5 -5 -10 -11 -10 -5 0 -7 5 -4 10 3 6 8 10 11 10
2 0 4 -4 4 -10z m100 -64 c0 -2 -8 -10 -17 -17 -16 -13 -17 -12 -4 4 13 16 21
21 21 13z"/>
<path d="M385 889 c-4 -5 0 -18 9 -28 15 -16 15 -19 1 -31 -8 -7 -15 -21 -15
-32 0 -17 2 -19 16 -7 13 11 14 9 9 -14 -4 -15 -4 -35 0 -44 5 -10 10 -27 12
-37 8 -45 31 -56 120 -56 49 0 83 4 83 10 0 5 -5 9 -12 7 -6 -1 -12 9 -12 23
-1 19 -6 25 -22 24 -11 0 -21 6 -21 13 0 8 7 11 15 8 11 -4 13 1 8 22 -20 88
-20 94 3 100 23 6 27 23 9 41 -20 20 -42 14 -77 -22 l-33 -34 -30 34 c-31 35
-52 42 -63 23z m45 -149 c0 -5 -5 -10 -11 -10 -5 0 -7 5 -4 10 3 6 8 10 11 10
2 0 4 -4 4 -10z m100 -64 c0 -2 -8 -10 -17 -17 -16 -13 -17 -12 -4 4 13 16 21
21 21 13z"/>
<path d="M705 889 c-4 -5 0 -18 9 -28 15 -16 15 -19 1 -31 -8 -7 -15 -21 -15
-32 0 -17 2 -19 16 -7 13 11 14 9 9 -14 -4 -15 -4 -35 0 -44 5 -10 10 -27 12
-37 8 -45 31 -56 120 -56 49 0 83 4 83 10 0 5 -5 9 -12 7 -6 -1 -12 9 -12 23
-1 19 -6 25 -22 24 -11 0 -21 6 -21 13 0 8 7 11 15 8 11 -4 13 1 8 22 -20 88
-20 94 3 100 23 6 27 23 9 41 -20 20 -42 14 -77 -22 l-33 -34 -30 34 c-31 35
-52 42 -63 23z m45 -149 c0 -5 -5 -10 -11 -10 -5 0 -7 5 -4 10 3 6 8 10 11 10
2 0 4 -4 4 -10z m100 -64 c0 -2 -8 -10 -17 -17 -16 -13 -17 -12 -4 4 13 16 21
21 21 13z"/>
<path d="M17 694 c-3 -4 -2 -14 3 -24 5 -10 6 -20 3 -24 -3 -3 15 -6 41 -6 49
0 51 4 18 43 -15 17 -53 23 -65 11z"/>
<path d="M337 694 c-3 -4 -2 -14 3 -24 5 -10 6 -20 3 -24 -3 -3 15 -6 41 -6
49 0 51 4 18 43 -15 17 -53 23 -65 11z"/>
<path d="M657 694 c-3 -4 -2 -14 3 -24 5 -10 6 -20 3 -24 -3 -3 15 -6 41 -6
49 0 51 4 18 43 -15 17 -53 23 -65 11z"/>
<path d="M65 569 c-4 -5 0 -18 9 -28 15 -16 15 -19 1 -31 -8 -7 -15 -21 -15
-32 0 -17 2 -19 16 -7 13 11 14 9 9 -14 -4 -15 -4 -35 0 -44 5 -10 10 -27 12
-37 8 -45 31 -56 120 -56 49 0 83 4 83 10 0 5 -5 9 -12 7 -6 -1 -12 9 -12 23
-1 19 -6 25 -22 24 -11 0 -21 6 -21 13 0 8 7 11 15 8 11 -4 13 1 8 22 -20 88
-20 94 3 100 23 6 27 23 9 41 -20 20 -42 14 -77 -22 l-33 -34 -30 34 c-31 35
-52 42 -63 23z m45 -149 c0 -5 -5 -10 -11 -10 -5 0 -7 5 -4 10 3 6 8 10 11 10
2 0 4 -4 4 -10z m100 -64 c0 -2 -8 -10 -17 -17 -16 -13 -17 -12 -4 4 13 16 21
21 21 13z"/>
<path d="M385 569 c-4 -5 0 -18 9 -28 15 -16 15 -19 1 -31 -8 -7 -15 -21 -15
-32 0 -17 2 -19 16 -7 13 11 14 9 9 -14 -4 -15 -4 -35 0 -44 5 -10 10 -27 12
-37 8 -45 31 -56 120 -56 49 0 83 4 83 10 0 5 -5 9 -12 7 -6 -1 -12 9 -12 23
-1 19 -6 25 -22 24 -11 0 -21 6 -21 13 0 8 7 11 15 8 11 -4 13 1 8 22 -20 88
-20 94 3 100 23 6 27 23 9 41 -20 20 -42 14 -77 -22 l-33 -34 -30 34 c-31 35
-52 42 -63 23z m45 -149 c0 -5 -5 -10 -11 -10 -5 0 -7 5 -4 10 3 6 8 10 11 10
2 0 4 -4 4 -10z m100 -64 c0 -2 -8 -10 -17 -17 -16 -13 -17 -12 -4 4 13 16 21
21 21 13z"/>
<path d="M705 569 c-4 -5 0 -18 9 -28 15 -16 15 -19 1 -31 -8 -7 -15 -21 -15
-32 0 -17 2 -19 16 -7 13 11 14 9 9 -14 -4 -15 -4 -35 0 -44 5 -10 10 -27 12
-37 8 -45 31 -56 120 -56 49 0 83 4 83 10 0 5 -5 9 -12 7 -6 -1 -12 9 -12 23
-1 19 -6 25 -22 24 -11 0 -21 6 -21 13 0 8 7 11 15 8 11 -4 13 1 8 22 -20 88
-20 94 3 100 23 6 27 23 9 41 -20 20 -42 14 -77 -22 l-33 -34 -30 34 c-31 35
-52 42 -63 23z m45 -149 c0 -5 -5 -10 -11 -10 -5 0 -7 5 -4 10 3 6 8 10 11 10
2 0 4 -4 4 -10z m100 -64 c0 -2 -8 -10 -17 -17 -16 -13 -17 -12 -4 4 13 16 21
21 21 13z"/>
<path d="M17 374 c-3 -4 -2 -14 3 -24 5 -10 6 -20 3 -24 -3 -3 15 -6 41 -6 49
0 51 4 18 43 -15 17 -53 23 -65 11z"/>
<path d="M337 374 c-3 -4 -2 -14 3 -24 5 -10 6 -20 3 -24 -3 -3 15 -6 41 -6
49 0 51 4 18 43 -15 17 -53 23 -65 11z"/>
<path d="M657 374 c-3 -4 -2 -14 3 -24 5 -10 6 -20 3 -24 -3 -3 15 -6 41 -6
49 0 51 4 18 43 -15 17 -53 23 -65 11z"/>
<path d="M65 249 c-4 -5 0 -18 9 -28 15 -16 15 -19 1 -31 -8 -7 -15 -21 -15
-32 0 -17 2 -19 16 -7 13 11 14 9 9 -14 -4 -15 -4 -35 0 -44 5 -10 10 -27 12
-37 8 -45 31 -56 120 -56 49 0 83 4 83 10 0 5 -5 9 -12 7 -6 -1 -12 9 -12 23
-1 19 -6 25 -22 24 -11 0 -21 6 -21 13 0 8 7 11 15 8 11 -4 13 1 8 22 -20 88
-20 94 3 100 23 6 27 23 9 41 -20 20 -42 14 -77 -22 l-33 -34 -30 34 c-31 35
-52 42 -63 23z m45 -149 c0 -5 -5 -10 -11 -10 -5 0 -7 5 -4 10 3 6 8 10 11 10
2 0 4 -4 4 -10z m100 -64 c0 -2 -8 -10 -17 -17 -16 -13 -17 -12 -4 4 13 16 21
21 21 13z"/>
<path d="M385 249 c-4 -5 0 -18 9 -28 15 -16 15 -19 1 -31 -8 -7 -15 -21 -15
-32 0 -17 2 -19 16 -7 13 11 14 9 9 -14 -4 -15 -4 -35 0 -44 5 -10 10 -27 12
-37 8 -45 31 -56 120 -56 49 0 83 4 83 10 0 5 -5 9 -12 7 -6 -1 -12 9 -12 23
-1 19 -6 25 -22 24 -11 0 -21 6 -21 13 0 8 7 11 15 8 11 -4 13 1 8 22 -20 88
-20 94 3 100 23 6 27 23 9 41 -20 20 -42 14 -77 -22 l-33 -34 -30 34 c-31 35
-52 42 -63 23z m45 -149 c0 -5 -5 -10 -11 -10 -5 0 -7 5 -4 10 3 6 8 10 11 10
2 0 4 -4 4 -10z m100 -64 c0 -2 -8 -10 -17 -17 -16 -13 -17 -12 -4 4 13 16 21
21 21 13z"/>
<path d="M705 249 c-4 -5 0 -18 9 -28 15 -16 15 -19 1 -31 -8 -7 -15 -21 -15
-32 0 -17 2 -19 16 -7 13 11 14 9 9 -14 -4 -15 -4 -35 0 -44 5 -10 10 -27 12
-37 8 -45 31 -56 120 -56 49 0 83 4 83 10 0 5 -5 9 -12 7 -6 -1 -12 9 -12 23
-1 19 -6 25 -22 24 -11 0 -21 6 -21 13 0 8 7 11 15 8 11 -4 13 1 8 22 -20 88
-20 94 3 100 23 6 27 23 9 41 -20 20 -42 14 -77 -22 l-33 -34 -30 34 c-31 35
-52 42 -63 23z m45 -149 c0 -5 -5 -10 -11 -10 -5 0 -7 5 -4 10 3 6 8 10 11 10
2 0 4 -4 4 -10z m100 -64 c0 -2 -8 -10 -17 -17 -16 -13 -17 -12 -4 4 13 16 21
21 21 13z"/>
<path d="M17 54 c-3 -4 -2 -14 3 -24 5 -10 6 -20 3 -24 -3 -3 15 -6 41 -6 49
0 51 4 18 43 -15 17 -53 23 -65 11z"/>
<path d="M337 54 c-3 -4 -2 -14 3 -24 5 -10 6 -20 3 -24 -3 -3 15 -6 41 -6 49
0 51 4 18 43 -15 17 -53 23 -65 11z"/>
<path d="M657 54 c-3 -4 -2 -14 3 -24 5 -10 6 -20 3 -24 -3 -3 15 -6 41 -6 49
0 51 4 18 43 -15 17 -53 23 -65 11z"/>
</g>
<g transform="translate(0.000000,96.000000) scale(0.100000,-0.100000)"
fill="#8a8a8a" stroke="none">
<path d="M66 884 c-3 -8 -2 -12 4 -9 6 3 10 1 10 -4 0 -6 7 -11 15 -11 8 0 19
-9 25 -19 13 -26 13 -31 -4 -31 -9 0 -12 7 -9 20 3 11 0 20 -6 20 -6 0 -11 -9
-11 -20 0 -13 -5 -18 -15 -14 -11 4 -15 0 -15 -16 0 -20 2 -21 17 -9 15 12 16
12 10 -4 -6 -15 -3 -17 15 -11 21 6 21 6 5 -10 -20 -21 -21 -23 -4 -23 6 0 22
15 34 34 19 28 20 35 7 47 -17 18 -18 30 -1 20 6 -4 9 -4 5 0 -3 4 -9 6 -11 4
-3 -1 -15 9 -27 25 -24 31 -35 34 -44 11z m64 -89 c0 -3 -2 -5 -5 -5 -3 0 -5
2 -5 5 0 3 2 5 5 5 3 0 5 -2 5 -5z"/>
<path d="M236 884 c-3 -9 -11 -12 -17 -8 -7 4 -9 3 -6 -3 4 -6 -2 -21 -13 -33
-14 -16 -20 -18 -20 -9 0 8 6 21 13 29 10 12 9 12 -5 1 -13 -9 -18 -28 -19
-60 0 -32 -3 -40 -8 -26 -8 19 -8 19 -20 -3 -7 -14 -8 -22 -1 -22 17 0 12 -57
-6 -64 -24 -9 -27 -7 -10 10 18 18 21 44 5 44 -6 0 -9 -7 -5 -15 3 -8 1 -15
-4 -15 -6 0 -10 5 -10 10 0 6 -5 10 -11 10 -8 0 -8 -4 1 -15 6 -8 9 -19 6 -24
-4 -6 1 -19 11 -31 19 -22 96 -29 109 -9 4 8 9 7 16 -2 6 -10 7 -7 3 10 -5 16
-4 21 4 17 6 -4 11 -14 11 -22 0 -8 8 -14 18 -14 13 0 14 2 3 9 -7 5 -10 14
-7 20 4 6 2 11 -4 11 -7 0 -10 7 -6 15 3 8 1 15 -4 15 -6 0 -10 -5 -10 -10 0
-7 -6 -7 -19 -1 -10 6 -22 7 -26 3 -20 -20 4 35 25 57 22 22 23 26 8 29 -10 2
-18 8 -18 13 0 6 5 7 10 4 6 -3 10 -2 10 4 0 5 -4 13 -10 16 -5 3 -10 11 -10
16 0 6 4 7 10 4 6 -3 7 1 4 9 -7 17 11 22 21 6 9 -14 25 -12 25 3 0 7 -9 18
-19 24 -16 10 -20 9 -25 -3z m-37 -121 c-5 -13 -7 -28 -4 -33 3 -5 1 -11 -5
-15 -17 -11 -11 -24 10 -20 11 2 23 -1 26 -7 4 -6 2 -8 -4 -4 -6 3 -13 -3 -17
-14 -7 -22 -20 -26 -30 -10 -3 6 -1 10 6 10 8 0 8 4 -1 15 -10 12 -10 24 0 59
7 25 9 50 4 58 -6 11 -5 11 9 0 12 -11 14 -19 6 -39z m31 2 c0 -3 -2 -5 -5 -5
-3 0 -5 2 -5 5 0 3 2 5 5 5 3 0 5 -2 5 -5z m-83 -102 c-4 -3 -7 0 -7 7 0 7 3
10 7 7 3 -4 3 -10 0 -14z m70 -10 c-4 -3 -7 0 -7 7 0 7 3 10 7 7 3 -4 3 -10 0
-14z"/>
<path d="M180 725 c0 -3 2 -5 5 -5 3 0 5 2 5 5 0 3 -2 5 -5 5 -3 0 -5 -2 -5
-5z"/>
<path d="M387 886 c-3 -8 0 -20 8 -26 8 -7 13 -27 12 -51 -2 -21 1 -39 6 -39
5 0 6 -7 3 -16 -3 -8 -2 -12 3 -9 6 3 14 -2 19 -11 5 -9 13 -14 18 -12 5 1 10
-10 12 -27 2 -25 1 -27 -8 -12 -6 9 -8 22 -5 27 3 6 -1 7 -9 4 -10 -4 -16 -1
-16 7 0 12 -2 12 -9 0 -12 -19 -2 -49 20 -56 11 -4 17 -11 13 -16 -3 -5 8 -8
25 -7 16 1 27 6 25 10 -10 16 -14 71 -6 82 10 14 15 66 7 66 -3 0 -15 -5 -26
-10 -17 -10 -18 -8 -9 15 7 20 6 25 -5 25 -8 0 -15 5 -15 11 0 5 6 7 13 4 6
-4 -4 7 -23 24 -40 35 -46 37 -53 17z m61 -97 c-5 -4 -2 -9 7 -12 13 -6 14 -9
3 -21 -13 -14 -32 -11 -23 4 3 4 -1 10 -7 13 -10 3 -10 7 1 20 7 10 9 17 3 17
-6 0 -8 10 -4 22 5 22 6 21 18 -7 8 -19 9 -32 2 -36z m39 -26 c-4 -3 -7 0 -7
7 0 7 3 10 7 7 3 -4 3 -10 0 -14z m-17 -18 c0 -3 -2 -5 -5 -5 -3 0 -5 2 -5 5
0 3 2 5 5 5 3 0 5 -2 5 -5z m-25 -55 c3 -5 1 -10 -4 -10 -6 0 -11 5 -11 10 0
6 2 10 4 10 3 0 8 -4 11 -10z"/>
<path d="M535 887 c-8 -8 -5 -17 7 -29 17 -17 18 -17 18 -1 0 13 3 14 12 5 7
-7 16 -12 20 -12 14 0 8 22 -9 35 -14 11 -20 10 -30 -4 -12 -15 -13 -15 -7 2
7 20 3 21 -11 4z m55 -22 c0 -3 -2 -5 -5 -5 -3 0 -5 2 -5 5 0 3 2 5 5 5 3 0 5
-2 5 -5z"/>
<path d="M706 885 c-5 -13 5 -19 26 -17 13 2 27 -25 30 -56 1 -18 8 -32 15
-32 7 0 13 -5 13 -11 0 -5 -4 -7 -10 -4 -5 3 -10 2 -10 -4 0 -5 6 -11 13 -14
9 -3 9 -7 -1 -19 -10 -13 -10 -17 0 -21 7 -2 10 -8 6 -12 -4 -4 -14 -2 -23 5
-14 11 -13 14 2 27 17 14 17 14 0 9 -10 -3 -22 -6 -27 -6 -9 0 -4 -46 6 -62 8
-12 34 -10 34 4 0 6 3 8 6 5 4 -4 2 -13 -4 -20 -10 -11 -1 -14 48 -13 42 0 60
4 60 13 0 7 8 13 18 13 14 0 15 2 2 10 -8 5 -24 7 -35 4 -11 -3 -16 -2 -10 3
16 13 16 33 1 27 -9 -4 -13 -15 -10 -31 3 -15 1 -22 -6 -18 -5 3 -10 1 -10 -4
0 -6 -4 -11 -10 -11 -5 0 -6 7 -3 17 5 11 3 14 -6 8 -8 -4 -6 4 4 19 10 14 22
26 27 26 5 0 6 4 3 10 -4 6 2 7 17 1 20 -8 24 -6 26 12 1 15 -2 17 -7 9 -6
-10 -11 -9 -22 4 -8 10 -9 15 -3 11 7 -4 15 0 18 9 5 13 1 14 -23 9 -21 -4
-30 -2 -35 10 -4 12 -2 14 11 7 23 -13 54 15 32 29 -9 6 -10 9 -2 9 7 0 10 7
7 15 -4 10 0 15 16 15 11 0 18 -4 15 -10 -3 -5 -1 -10 4 -10 18 0 12 24 -9 38
-16 10 -20 10 -20 0 0 -9 -3 -8 -10 2 -9 13 -10 13 -11 0 -1 -8 -1 -19 0 -23
1 -5 -3 -5 -9 -2 -23 14 -47 -23 -44 -68 3 -36 2 -39 -7 -18 -5 14 -7 31 -5
38 3 7 1 13 -5 13 -6 0 -7 5 -4 10 3 6 -2 13 -12 17 -10 4 -25 15 -34 25 -20
22 -25 22 -33 3z m136 -42 c-10 -4 -10 -8 -1 -19 10 -12 9 -13 -5 -8 -24 9
-18 35 8 33 6 0 5 -3 -2 -6z m-7 -120 c-21 -32 -30 -19 -15 22 8 21 14 25 22
17 8 -8 6 -18 -7 -39z m-75 -38 c0 -3 -2 -5 -5 -5 -3 0 -5 2 -5 5 0 3 2 5 5 5
3 0 5 -2 5 -5z m120 -20 c0 -3 -2 -5 -5 -5 -3 0 -5 2 -5 5 0 3 2 5 5 5 3 0 5
-2 5 -5z"/>
<path d="M820 725 c0 -3 2 -5 5 -5 3 0 5 2 5 5 0 3 -2 5 -5 5 -3 0 -5 -2 -5
-5z"/>
<path d="M495 845 c-3 -8 -7 -22 -10 -31 -3 -8 -1 -13 4 -9 17 10 38 -6 36
-28 -1 -12 -3 -30 -4 -40 0 -10 -5 -16 -9 -13 -5 3 -9 0 -9 -7 0 -7 8 -13 17
-13 12 0 15 6 12 20 -4 14 -2 17 9 11 8 -5 11 -5 7 0 -4 4 -3 14 3 21 9 11 7
15 -5 20 -15 6 -15 8 1 21 13 10 15 16 6 19 -7 3 -13 15 -13 27 0 18 -2 19
-10 7 -6 -10 -10 -11 -10 -2 0 17 -20 15 -25 -3z m26 -22 c13 -16 12 -17 -3
-4 -10 7 -18 15 -18 17 0 8 8 3 21 -13z m29 -18 c0 -3 -2 -5 -5 -5 -3 0 -5 2
-5 5 0 3 2 5 5 5 3 0 5 -2 5 -5z m0 -40 c0 -3 -2 -5 -5 -5 -3 0 -5 2 -5 5 0 3
2 5 5 5 3 0 5 -2 5 -5z"/>
<path d="M733 838 c2 -7 0 -26 -4 -41 -6 -20 -5 -27 4 -24 15 5 20 77 6 77 -6
0 -9 -6 -6 -12z"/>
<path d="M380 799 c0 -11 5 -17 10 -14 6 3 10 13 10 21 0 8 -4 14 -10 14 -5 0
-10 -9 -10 -21z"/>
<path d="M700 789 c0 -5 5 -7 10 -4 6 3 10 8 10 11 0 2 -4 4 -10 4 -5 0 -10
-5 -10 -11z"/>
<path d="M560 785 c0 -3 2 -5 5 -5 3 0 5 2 5 5 0 3 -2 5 -5 5 -3 0 -5 -2 -5
-5z"/>
<path d="M740 755 c-11 -13 -10 -14 4 -9 9 3 16 10 16 15 0 13 -6 11 -20 -6z"/>
<path d="M240 735 c0 -3 2 -5 5 -5 3 0 5 2 5 5 0 3 -2 5 -5 5 -3 0 -5 -2 -5
-5z"/>
<path d="M565 730 c3 -5 8 -10 11 -10 3 0 2 5 -1 10 -3 6 -8 10 -11 10 -3 0
-2 -4 1 -10z"/>
<path d="M230 715 c0 -3 2 -5 5 -5 3 0 5 2 5 5 0 3 -2 5 -5 5 -3 0 -5 -2 -5
-5z"/>
<path d="M550 715 c0 -3 2 -5 5 -5 3 0 5 2 5 5 0 3 -2 5 -5 5 -3 0 -5 -2 -5
-5z"/>
<path d="M573 703 c4 -3 10 -3 14 0 3 4 0 7 -7 7 -7 0 -10 -3 -7 -7z"/>
<path d="M893 703 c4 -3 10 -3 14 0 3 4 0 7 -7 7 -7 0 -10 -3 -7 -7z"/>
<path d="M40 686 c6 -6 4 -16 -7 -28 -14 -16 -14 -18 -1 -18 16 0 28 20 28 44
0 7 -7 13 -15 13 -11 0 -12 -4 -5 -11z"/>
<path d="M355 690 c3 -5 0 -10 -6 -12 -20 -7 3 -38 28 -38 21 0 23 3 14 14 -6
8 -10 19 -9 26 2 7 -5 14 -15 15 -9 2 -15 0 -12 -5z"/>
<path d="M563 683 c9 -11 17 -25 17 -31 0 -7 7 -12 16 -12 13 0 14 3 5 13 -6
8 -9 16 -6 19 3 3 -7 10 -22 17 -27 12 -27 12 -10 -6z"/>
<path d="M680 685 c7 -8 7 -15 1 -19 -5 -3 -11 0 -14 6 -3 7 -5 4 -4 -8 1 -17
7 -21 39 -21 42 0 47 9 18 34 -24 21 -56 28 -40 8z m40 -25 c0 -5 -2 -10 -4
-10 -3 0 -8 5 -11 10 -3 6 -1 10 4 10 6 0 11 -4 11 -10z"/>
<path d="M71 685 c0 -5 6 -19 14 -29 8 -11 15 -15 15 -10 0 6 -7 19 -15 30 -8
10 -14 15 -14 9z"/>
<path d="M537 667 c4 -18 3 -19 -6 -7 -9 13 -11 13 -11 -2 0 -13 6 -17 22 -15
29 5 34 23 10 36 -18 9 -19 8 -15 -12z m23 -12 c0 -3 -2 -5 -5 -5 -3 0 -5 2
-5 5 0 3 2 5 5 5 3 0 5 -2 5 -5z"/>
<path d="M20 669 c0 -5 5 -7 10 -4 6 3 10 8 10 11 0 2 -4 4 -10 4 -5 0 -10 -5
-10 -11z"/>
<path d="M390 674 c0 -3 7 -12 15 -20 16 -17 18 -14 9 10 -6 15 -24 23 -24 10z"/>
<path d="M500 675 c0 -3 2 -5 5 -5 3 0 5 2 5 5 0 3 -2 5 -5 5 -3 0 -5 -2 -5
-5z"/>
<path d="M60 650 c0 -5 5 -10 11 -10 5 0 7 5 4 10 -3 6 -8 10 -11 10 -2 0 -4
-4 -4 -10z"/>
<path d="M900 650 c0 -5 7 -10 16 -10 8 0 12 5 9 10 -3 6 -10 10 -16 10 -5 0
-9 -4 -9 -10z"/>
<path d="M70 566 c-12 -15 -11 -18 9 -23 17 -4 19 -8 10 -19 -14 -17 2 -18 20
-1 11 10 13 9 8 -6 -4 -10 -3 -16 2 -13 5 3 12 -1 15 -9 3 -9 -1 -18 -9 -21
-8 -4 -12 -10 -9 -15 3 -5 0 -9 -5 -9 -17 0 -13 18 7 29 9 6 12 11 5 11 -12 0
-43 -27 -43 -38 0 -12 20 -38 20 -27 0 6 10 -1 21 -15 17 -21 19 -22 10 -3
-14 27 -14 36 -1 28 6 -4 7 1 3 11 -4 12 -3 15 5 10 14 -9 16 -86 3 -86 -6 0
-16 9 -24 20 -13 18 -15 19 -21 5 -4 -10 -2 -14 5 -9 7 4 9 -1 5 -17 -3 -13
-3 -18 0 -11 3 6 10 12 15 12 6 0 8 -4 5 -9 -4 -5 -3 -16 0 -25 8 -21 87 -22
104 -1 7 8 21 15 31 15 11 0 19 4 19 9 0 5 -15 8 -33 6 -19 -3 -27 -1 -19 4
11 7 11 9 -2 14 -9 4 -16 12 -16 18 0 8 6 7 18 -2 15 -13 16 -12 4 3 -8 9 -20
14 -28 11 -10 -4 -17 2 -21 16 -3 11 -9 18 -14 15 -5 -3 -9 0 -9 6 0 7 8 9 21
5 19 -6 20 -5 9 15 -6 12 -9 33 -5 48 5 22 4 24 -9 13 -8 -7 -12 -19 -9 -27 3
-8 -1 -14 -8 -14 -7 0 -9 3 -6 7 4 3 -1 12 -11 20 -10 9 -11 11 -2 7 13 -7 13
-6 1 9 -8 10 -16 15 -19 13 -2 -3 -12 4 -21 15 -16 19 -18 20 -31 5z m10 -11
c0 -3 -2 -5 -5 -5 -3 0 -5 2 -5 5 0 3 2 5 5 5 3 0 5 -2 5 -5z m90 -80 c0 -3
-2 -5 -5 -5 -3 0 -5 2 -5 5 0 3 2 5 5 5 3 0 5 -2 5 -5z m15 -75 c3 -5 1 -10
-4 -10 -6 0 -11 5 -11 10 0 6 2 10 4 10 3 0 8 -4 11 -10z m31 -42 c-1 -26 -31
-36 -39 -14 -7 17 20 49 32 41 5 -2 8 -15 7 -27z m-66 -8 c0 -5 -5 -10 -11
-10 -5 0 -7 5 -4 10 3 6 8 10 11 10 2 0 4 -4 4 -10z"/>
<path d="M183 353 c4 -3 10 -3 14 0 3 4 0 7 -7 7 -7 0 -10 -3 -7 -7z"/>
<path d="M236 564 c-3 -8 -10 -13 -15 -10 -5 3 -11 -1 -15 -9 -7 -19 14 -31
25 -14 10 17 31 19 41 4 5 -6 8 -4 8 5 0 8 -9 21 -19 27 -16 10 -20 9 -25 -3z"/>
<path d="M390 570 c-12 -7 -11 -12 4 -29 17 -18 17 -21 0 -45 -9 -15 -14 -29
-11 -33 4 -3 11 5 17 18 10 24 10 24 7 -3 -3 -16 0 -28 5 -28 6 0 7 -7 4 -16
-3 -8 -2 -12 3 -9 6 3 13 -1 18 -9 4 -8 13 -14 18 -13 6 1 11 -11 13 -28 2
-25 1 -27 -8 -12 -6 9 -8 22 -5 27 3 6 -1 7 -9 4 -10 -4 -16 -1 -16 7 0 12 -2
12 -9 0 -12 -19 -2 -49 20 -56 11 -4 17 -11 13 -16 -3 -5 8 -8 25 -7 16 1 27
6 25 10 -10 16 -14 71 -6 82 10 14 15 66 7 66 -3 0 -15 -5 -26 -10 -17 -10
-18 -8 -9 15 7 20 6 25 -5 25 -8 0 -15 5 -15 11 0 5 5 7 10 4 23 -14 7 5 -23
28 -22 17 -38 22 -47 17z m17 -17 c-4 -3 -10 -3 -14 0 -3 4 0 7 7 7 7 0 10 -3
7 -7z m41 -84 c-5 -4 -2 -9 7 -12 13 -6 14 -9 3 -21 -13 -14 -32 -11 -23 4 3
4 -1 10 -7 13 -10 3 -10 7 1 20 7 10 9 17 3 17 -6 0 -8 10 -4 22 5 22 6 21 18
-7 8 -19 9 -32 2 -36z m39 -26 c-4 -3 -7 0 -7 7 0 7 3 10 7 7 3 -4 3 -10 0
-14z m-17 -18 c0 -3 -2 -5 -5 -5 -3 0 -5 2 -5 5 0 3 2 5 5 5 3 0 5 -2 5 -5z
m-25 -55 c3 -5 1 -10 -4 -10 -6 0 -11 5 -11 10 0 6 2 10 4 10 3 0 8 -4 11 -10z"/>
<path d="M535 567 c-8 -8 -5 -17 7 -29 17 -17 18 -17 18 -1 0 13 3 14 12 5 7
-7 16 -12 20 -12 14 0 8 22 -9 35 -14 11 -20 10 -30 -4 -12 -15 -13 -15 -7 2
7 20 3 21 -11 4z m55 -22 c0 -3 -2 -5 -5 -5 -3 0 -5 2 -5 5 0 3 2 5 5 5 3 0 5
-2 5 -5z"/>
<path d="M706 565 c-5 -13 5 -19 26 -17 13 2 27 -25 30 -56 1 -18 8 -32 15
-32 7 0 13 -5 13 -11 0 -5 -4 -7 -10 -4 -5 3 -10 2 -10 -4 0 -5 6 -11 13 -14
9 -3 9 -7 -1 -19 -10 -13 -10 -17 0 -21 7 -2 10 -8 6 -12 -4 -4 -14 -2 -23 5
-14 11 -13 14 2 27 17 14 17 14 0 9 -10 -3 -22 -6 -27 -6 -9 0 -4 -46 6 -62 8
-12 34 -10 34 4 0 6 3 8 6 5 4 -4 2 -13 -4 -20 -10 -11 -1 -14 48 -13 42 0 60
4 60 13 0 7 8 13 18 13 14 0 15 2 2 10 -8 5 -24 7 -35 4 -11 -3 -15 -2 -10 3
13 10 13 28 1 40 -5 5 -6 3 -2 -4 4 -7 3 -13 -3 -13 -5 0 -8 -12 -5 -26 3 -16
1 -23 -6 -19 -5 3 -10 1 -10 -4 0 -6 -4 -11 -10 -11 -5 0 -6 7 -3 17 5 12 3
14 -7 8 -8 -5 -4 5 8 22 15 22 17 30 7 30 -8 0 -12 -4 -9 -8 2 -4 0 -10 -6
-14 -13 -8 -13 6 0 41 10 25 12 26 29 10 23 -21 37 -21 20 1 -8 9 -9 14 -3 10
7 -4 15 0 18 9 5 13 1 14 -23 9 -21 -4 -30 -2 -35 10 -4 12 -2 14 11 7 23 -13
54 15 32 29 -9 6 -10 9 -2 9 7 0 10 7 7 15 -4 10 0 15 16 15 11 0 18 -4 15
-10 -3 -5 -1 -10 4 -10 18 0 12 24 -9 38 -16 10 -20 10 -20 0 0 -9 -3 -8 -10
2 -9 13 -10 13 -11 0 -1 -8 -1 -19 0 -23 1 -5 -3 -5 -9 -2 -23 14 -47 -23 -44
-68 3 -36 2 -39 -7 -18 -5 14 -7 31 -5 38 3 7 1 13 -5 13 -6 0 -7 5 -4 10 3 6
-2 13 -12 17 -10 4 -25 15 -34 25 -20 22 -25 22 -33 3z m136 -42 c-10 -4 -10
-8 -1 -19 10 -12 9 -13 -5 -8 -24 9 -18 35 8 33 6 0 5 -3 -2 -6z m-82 -158 c0
-3 -2 -5 -5 -5 -3 0 -5 2 -5 5 0 3 2 5 5 5 3 0 5 -2 5 -5z m120 -20 c0 -3 -2
-5 -5 -5 -3 0 -5 2 -5 5 0 3 2 5 5 5 3 0 5 -2 5 -5z"/>
<path d="M495 525 c-3 -8 -7 -22 -10 -31 -3 -8 -1 -13 4 -9 17 10 38 -6 36
-28 -1 -12 -3 -30 -4 -40 0 -10 -5 -16 -9 -13 -5 3 -9 0 -9 -7 0 -7 8 -13 17
-13 12 0 15 6 12 20 -4 14 -2 17 9 11 8 -5 11 -5 7 0 -4 4 -3 14 3 21 9 11 7
15 -5 20 -15 6 -15 8 1 21 13 10 15 16 6 19 -7 3 -13 15 -13 27 0 18 -2 19
-10 7 -6 -10 -10 -11 -10 -2 0 17 -20 15 -25 -3z m26 -22 c13 -16 12 -17 -3
-4 -17 13 -22 21 -14 21 2 0 10 -8 17 -17z m29 -18 c0 -3 -2 -5 -5 -5 -3 0 -5
2 -5 5 0 3 2 5 5 5 3 0 5 -2 5 -5z m0 -40 c0 -3 -2 -5 -5 -5 -3 0 -5 2 -5 5 0
3 2 5 5 5 3 0 5 -2 5 -5z"/>
<path d="M733 518 c2 -7 0 -26 -4 -41 -6 -20 -5 -27 4 -24 15 5 20 77 6 77 -6
0 -9 -6 -6 -12z"/>
<path d="M190 501 c0 -10 7 -21 15 -25 8 -3 15 -1 15 5 0 6 5 7 10 4 6 -3 10
-2 10 4 0 9 -31 31 -44 31 -3 0 -6 -9 -6 -19z"/>
<path d="M60 479 c0 -11 5 -17 10 -14 13 8 13 35 0 35 -5 0 -10 -9 -10 -21z"/>
<path d="M90 495 c0 -3 2 -5 5 -5 3 0 5 2 5 5 0 3 -2 5 -5 5 -3 0 -5 -2 -5 -5z"/>
<path d="M700 469 c0 -5 5 -7 10 -4 6 3 10 8 10 11 0 2 -4 4 -10 4 -5 0 -10
-5 -10 -11z"/>
<path d="M228 463 c-10 -2 -18 -12 -17 -21 0 -11 2 -12 6 -4 2 6 8 10 13 7 4
-3 10 2 14 10 3 8 4 14 3 14 -1 -1 -10 -3 -19 -6z"/>
<path d="M560 465 c0 -3 2 -5 5 -5 3 0 5 2 5 5 0 3 -2 5 -5 5 -3 0 -5 -2 -5
-5z"/>
<path d="M740 435 c-11 -13 -10 -14 4 -9 9 3 16 10 16 15 0 13 -6 11 -20 -6z"/>
<path d="M250 429 c0 -5 -4 -7 -10 -4 -14 9 -12 -1 3 -13 10 -8 13 -6 14 9 1
10 0 19 -3 19 -2 0 -4 -5 -4 -11z"/>
<path d="M190 425 c0 -3 2 -5 5 -5 3 0 5 2 5 5 0 3 -2 5 -5 5 -3 0 -5 -2 -5
-5z"/>
<path d="M565 410 c3 -5 8 -10 11 -10 3 0 2 5 -1 10 -3 6 -8 10 -11 10 -3 0
-2 -4 1 -10z"/>
<path d="M890 405 c0 -3 2 -5 5 -5 3 0 5 2 5 5 0 3 -2 5 -5 5 -3 0 -5 -2 -5
-5z"/>
<path d="M550 395 c0 -3 2 -5 5 -5 3 0 5 2 5 5 0 3 -2 5 -5 5 -3 0 -5 -2 -5
-5z"/>
<path d="M253 383 c4 -3 10 -3 14 0 3 4 0 7 -7 7 -7 0 -10 -3 -7 -7z"/>
<path d="M573 383 c4 -3 10 -3 14 0 3 4 0 7 -7 7 -7 0 -10 -3 -7 -7z"/>
<path d="M895 380 c3 -5 8 -10 11 -10 2 0 4 5 4 10 0 6 -5 10 -11 10 -5 0 -7
-4 -4 -10z"/>
<path d="M41 364 c6 -8 9 -17 5 -21 -3 -3 -6 0 -6 7 0 16 -13 5 -16 -13 -1 -8
11 -14 29 -15 25 -2 28 0 18 12 -6 7 -10 19 -9 26 2 7 -5 14 -15 15 -15 3 -16
1 -6 -11z"/>
<path d="M355 370 c3 -5 0 -10 -6 -12 -20 -7 3 -38 28 -38 21 0 23 3 14 14 -6
8 -10 19 -9 26 2 7 -5 14 -15 15 -9 2 -15 0 -12 -5z"/>
<path d="M563 363 c9 -11 17 -25 17 -31 0 -7 7 -12 16 -12 13 0 14 3 5 13 -6
8 -9 16 -6 19 3 3 -7 10 -22 17 -27 12 -27 12 -10 -6z"/>
<path d="M680 365 c7 -8 7 -15 1 -19 -5 -3 -11 0 -14 6 -3 7 -5 4 -4 -8 1 -17
7 -21 39 -21 42 0 47 9 18 34 -24 21 -56 28 -40 8z m40 -25 c0 -5 -2 -10 -4
-10 -3 0 -8 5 -11 10 -3 6 -1 10 4 10 6 0 11 -4 11 -10z"/>
<path d="M537 347 c4 -18 3 -19 -6 -7 -9 13 -11 13 -11 -2 0 -13 6 -17 22 -15
29 5 34 23 10 36 -18 9 -19 8 -15 -12z m23 -12 c0 -3 -2 -5 -5 -5 -3 0 -5 2
-5 5 0 3 2 5 5 5 3 0 5 -2 5 -5z"/>
<path d="M70 354 c0 -3 7 -12 15 -20 16 -17 18 -14 9 10 -6 15 -24 23 -24 10z"/>
<path d="M390 354 c0 -3 7 -12 15 -20 16 -17 18 -14 9 10 -6 15 -24 23 -24 10z"/>
<path d="M500 355 c0 -3 2 -5 5 -5 3 0 5 2 5 5 0 3 -2 5 -5 5 -3 0 -5 -2 -5
-5z"/>
<path d="M246 328 c3 -4 14 -8 25 -8 11 0 18 4 14 9 -3 6 -14 9 -25 8 -10 -1
-16 -5 -14 -9z"/>
<path d="M900 330 c0 -5 7 -10 16 -10 8 0 12 5 9 10 -3 6 -10 10 -16 10 -5 0
-9 -4 -9 -10z"/>
<path d="M70 250 c-12 -7 -11 -12 4 -29 17 -18 17 -21 0 -45 -9 -15 -14 -29
-11 -33 4 -3 11 5 17 18 10 24 10 24 7 -3 -3 -16 0 -28 5 -28 6 0 7 -7 4 -16
-3 -8 -2 -12 3 -9 6 3 13 -1 18 -9 4 -8 13 -14 18 -13 6 1 11 -11 13 -28 2
-25 1 -27 -8 -12 -6 9 -8 22 -5 27 3 6 -1 7 -9 4 -10 -4 -16 -1 -16 7 0 12 -2
12 -9 0 -12 -19 -2 -49 20 -56 11 -4 17 -11 13 -16 -3 -5 8 -8 25 -7 16 1 27
6 25 10 -10 16 -14 71 -6 82 10 14 15 66 7 66 -3 0 -15 -5 -26 -10 -17 -10
-18 -8 -9 15 7 20 6 25 -5 25 -8 0 -15 5 -15 11 0 5 5 7 10 4 23 -14 7 5 -23
28 -22 17 -38 22 -47 17z m17 -17 c-4 -3 -10 -3 -14 0 -3 4 0 7 7 7 7 0 10 -3
7 -7z m41 -84 c-5 -4 -2 -9 7 -12 13 -6 14 -9 3 -21 -13 -14 -32 -11 -23 4 3
4 -1 10 -7 13 -10 3 -10 7 1 20 7 10 9 17 3 17 -6 0 -8 10 -4 22 5 22 6 21 18
-7 8 -19 9 -32 2 -36z m39 -26 c-4 -3 -7 0 -7 7 0 7 3 10 7 7 3 -4 3 -10 0
-14z m-17 -18 c0 -3 -2 -5 -5 -5 -3 0 -5 2 -5 5 0 3 2 5 5 5 3 0 5 -2 5 -5z
m-25 -55 c3 -5 1 -10 -4 -10 -6 0 -11 5 -11 10 0 6 2 10 4 10 3 0 8 -4 11 -10z"/>
<path d="M215 247 c-8 -8 -5 -17 7 -29 17 -17 18 -17 18 -1 0 13 3 14 12 5 7
-7 16 -12 20 -12 14 0 8 22 -9 35 -14 11 -20 10 -30 -4 -12 -15 -13 -15 -7 2
7 20 3 21 -11 4z m55 -22 c0 -3 -2 -5 -5 -5 -3 0 -5 2 -5 5 0 3 2 5 5 5 3 0 5
-2 5 -5z"/>
<path d="M386 245 c-5 -13 5 -19 26 -17 13 2 27 -25 30 -56 1 -18 8 -32 15
-32 7 0 13 -5 13 -11 0 -5 -4 -7 -10 -4 -5 3 -10 2 -10 -4 0 -5 6 -11 13 -14
9 -3 9 -7 -1 -19 -10 -13 -10 -17 0 -21 7 -2 10 -8 6 -12 -4 -4 -14 -2 -23 5
-14 11 -13 14 2 27 17 14 17 14 0 9 -10 -3 -22 -6 -27 -6 -9 0 -4 -46 6 -62 8
-12 34 -10 34 4 0 6 3 8 6 5 4 -4 2 -13 -4 -20 -10 -11 -1 -14 48 -13 42 0 60
4 60 13 0 7 8 13 18 13 14 0 15 2 2 10 -8 5 -24 7 -35 4 -11 -3 -15 -2 -10 3
13 10 13 28 1 40 -5 5 -6 3 -2 -4 4 -7 3 -13 -3 -13 -5 0 -8 -12 -5 -26 3 -16
1 -23 -6 -19 -5 3 -10 1 -10 -4 0 -6 -4 -11 -10 -11 -5 0 -6 7 -3 17 5 12 3
14 -7 8 -8 -5 -4 5 8 22 15 22 17 30 7 30 -8 0 -12 -4 -9 -8 2 -4 0 -10 -6
-14 -13 -8 -13 6 0 41 10 25 12 26 29 10 23 -21 37 -21 20 1 -8 9 -9 14 -3 10
7 -4 15 0 18 9 5 13 1 14 -23 9 -21 -4 -30 -2 -35 10 -4 12 -2 14 11 7 23 -13
54 15 32 29 -9 6 -10 9 -2 9 7 0 10 7 7 15 -4 10 0 15 16 15 11 0 18 -4 15
-10 -3 -5 -1 -10 4 -10 18 0 12 24 -9 38 -16 10 -20 10 -20 0 0 -9 -3 -8 -10
2 -9 13 -10 13 -11 0 -1 -8 -1 -19 0 -23 1 -5 -3 -5 -9 -2 -23 14 -47 -23 -44
-68 3 -36 2 -39 -7 -18 -5 14 -7 31 -5 38 3 7 1 13 -5 13 -6 0 -7 5 -4 10 3 6
-2 13 -12 17 -10 4 -25 15 -34 25 -20 22 -25 22 -33 3z m136 -42 c-10 -4 -10
-8 -1 -19 10 -12 9 -13 -5 -8 -24 9 -18 35 8 33 6 0 5 -3 -2 -6z m-82 -158 c0
-3 -2 -5 -5 -5 -3 0 -5 2 -5 5 0 3 2 5 5 5 3 0 5 -2 5 -5z m120 -20 c0 -3 -2
-5 -5 -5 -3 0 -5 2 -5 5 0 3 2 5 5 5 3 0 5 -2 5 -5z"/>
<path d="M710 250 c-12 -7 -11 -12 4 -29 17 -18 17 -21 0 -45 -9 -15 -14 -29
-11 -33 4 -3 11 5 17 18 10 24 10 24 7 -3 -3 -16 0 -28 5 -28 6 0 7 -7 4 -16
-3 -8 -2 -12 3 -9 6 3 13 -1 18 -9 4 -8 13 -14 18 -13 6 1 11 -11 13 -28 2
-25 1 -27 -8 -12 -6 9 -8 22 -5 27 3 6 -1 7 -9 4 -10 -4 -16 -1 -16 7 0 12 -2
12 -9 0 -12 -19 -2 -49 20 -56 11 -4 17 -11 13 -16 -3 -5 8 -8 25 -7 16 1 27
6 25 10 -10 16 -14 71 -6 82 10 14 15 66 7 66 -3 0 -15 -5 -26 -10 -17 -10
-18 -8 -9 15 7 20 6 25 -5 25 -8 0 -15 5 -15 11 0 5 5 7 10 4 23 -14 7 5 -23
28 -22 17 -38 22 -47 17z m17 -17 c-4 -3 -10 -3 -14 0 -3 4 0 7 7 7 7 0 10 -3
7 -7z m41 -84 c-5 -4 -2 -9 7 -12 13 -6 14 -9 3 -21 -13 -14 -32 -11 -23 4 3
4 -1 10 -7 13 -10 3 -10 7 1 20 7 10 9 17 3 17 -6 0 -8 10 -4 22 5 22 6 21 18
-7 8 -19 9 -32 2 -36z m39 -26 c-4 -3 -7 0 -7 7 0 7 3 10 7 7 3 -4 3 -10 0
-14z m-17 -18 c0 -3 -2 -5 -5 -5 -3 0 -5 2 -5 5 0 3 2 5 5 5 3 0 5 -2 5 -5z
m-25 -55 c3 -5 1 -10 -4 -10 -6 0 -11 5 -11 10 0 6 2 10 4 10 3 0 8 -4 11 -10z"/>
<path d="M855 247 c-8 -8 -5 -17 7 -29 17 -17 18 -17 18 -1 0 13 3 14 12 5 7
-7 16 -12 20 -12 14 0 8 22 -9 35 -14 11 -20 10 -30 -4 -12 -15 -13 -15 -7 2
7 20 3 21 -11 4z m55 -22 c0 -3 -2 -5 -5 -5 -3 0 -5 2 -5 5 0 3 2 5 5 5 3 0 5
-2 5 -5z"/>
<path d="M175 205 c-3 -8 -7 -22 -10 -31 -3 -8 -1 -13 4 -9 17 10 38 -6 36
-28 -1 -12 -3 -30 -4 -40 0 -10 -5 -16 -9 -13 -5 3 -9 0 -9 -7 0 -7 8 -13 17
-13 12 0 15 6 12 20 -4 14 -2 17 9 11 8 -5 11 -5 7 0 -4 4 -3 14 3 21 9 11 7
15 -5 20 -15 6 -15 8 1 21 13 10 15 16 6 19 -7 3 -13 15 -13 27 0 18 -2 19
-10 7 -6 -10 -10 -11 -10 -2 0 17 -20 15 -25 -3z m26 -22 c13 -16 12 -17 -3
-4 -10 7 -18 15 -18 17 0 8 8 3 21 -13z m29 -18 c0 -3 -2 -5 -5 -5 -3 0 -5 2
-5 5 0 3 2 5 5 5 3 0 5 -2 5 -5z m0 -40 c0 -3 -2 -5 -5 -5 -3 0 -5 2 -5 5 0 3
2 5 5 5 3 0 5 -2 5 -5z"/>
<path d="M815 205 c-3 -8 -7 -22 -10 -31 -3 -8 -1 -13 4 -9 17 10 38 -6 36
-28 -1 -12 -3 -30 -4 -40 0 -10 -5 -16 -9 -13 -5 3 -9 0 -9 -7 0 -7 8 -13 17
-13 12 0 15 6 12 20 -4 14 -2 17 9 11 8 -5 11 -5 7 0 -4 4 -3 14 3 21 9 11 7
15 -5 20 -15 6 -15 8 1 21 13 10 15 16 6 19 -7 3 -13 15 -13 27 0 18 -2 19
-10 7 -6 -10 -10 -11 -10 -2 0 17 -20 15 -25 -3z m26 -22 c13 -16 12 -17 -3
-4 -10 7 -18 15 -18 17 0 8 8 3 21 -13z m29 -18 c0 -3 -2 -5 -5 -5 -3 0 -5 2
-5 5 0 3 2 5 5 5 3 0 5 -2 5 -5z m0 -40 c0 -3 -2 -5 -5 -5 -3 0 -5 2 -5 5 0 3
2 5 5 5 3 0 5 -2 5 -5z"/>
<path d="M413 198 c2 -7 0 -26 -4 -41 -6 -20 -5 -27 4 -24 15 5 20 77 6 77 -6
0 -9 -6 -6 -12z"/>
<path d="M380 149 c0 -5 5 -7 10 -4 6 3 10 8 10 11 0 2 -4 4 -10 4 -5 0 -10
-5 -10 -11z"/>
<path d="M240 145 c0 -3 2 -5 5 -5 3 0 5 2 5 5 0 3 -2 5 -5 5 -3 0 -5 -2 -5
-5z"/>
<path d="M880 145 c0 -3 2 -5 5 -5 3 0 5 2 5 5 0 3 -2 5 -5 5 -3 0 -5 -2 -5
-5z"/>
<path d="M420 115 c-11 -13 -10 -14 4 -9 9 3 16 10 16 15 0 13 -6 11 -20 -6z"/>
<path d="M245 90 c3 -5 8 -10 11 -10 3 0 2 5 -1 10 -3 6 -8 10 -11 10 -3 0 -2
-4 1 -10z"/>
<path d="M885 90 c3 -5 8 -10 11 -10 3 0 2 5 -1 10 -3 6 -8 10 -11 10 -3 0 -2
-4 1 -10z"/>
<path d="M570 85 c0 -3 2 -5 5 -5 3 0 5 2 5 5 0 3 -2 5 -5 5 -3 0 -5 -2 -5 -5z"/>
<path d="M230 75 c0 -3 2 -5 5 -5 3 0 5 2 5 5 0 3 -2 5 -5 5 -3 0 -5 -2 -5 -5z"/>
<path d="M870 75 c0 -3 2 -5 5 -5 3 0 5 2 5 5 0 3 -2 5 -5 5 -3 0 -5 -2 -5 -5z"/>
<path d="M253 63 c4 -3 10 -3 14 0 3 4 0 7 -7 7 -7 0 -10 -3 -7 -7z"/>
<path d="M575 60 c3 -5 8 -10 11 -10 2 0 4 5 4 10 0 6 -5 10 -11 10 -5 0 -7
-4 -4 -10z"/>
<path d="M893 63 c4 -3 10 -3 14 0 3 4 0 7 -7 7 -7 0 -10 -3 -7 -7z"/>
<path d="M35 50 c3 -5 0 -10 -6 -12 -20 -7 3 -38 28 -38 21 0 23 3 14 14 -6 8
-10 19 -9 26 2 7 -5 14 -15 15 -9 2 -15 0 -12 -5z"/>
<path d="M243 43 c9 -11 17 -25 17 -31 0 -7 7 -12 16 -12 13 0 14 3 5 13 -6 8
-9 16 -6 19 3 3 -7 10 -22 17 -27 12 -27 12 -10 -6z"/>
<path d="M360 45 c7 -8 7 -15 1 -19 -5 -3 -11 0 -14 6 -3 7 -5 4 -4 -8 1 -17
7 -21 39 -21 42 0 47 9 18 34 -24 21 -56 28 -40 8z m40 -25 c0 -5 -2 -10 -4
-10 -3 0 -8 5 -11 10 -3 6 -1 10 4 10 6 0 11 -4 11 -10z"/>
<path d="M675 50 c3 -5 0 -10 -6 -12 -20 -7 3 -38 28 -38 21 0 23 3 14 14 -6
8 -10 19 -9 26 2 7 -5 14 -15 15 -9 2 -15 0 -12 -5z"/>
<path d="M883 43 c9 -11 17 -25 17 -31 0 -7 7 -12 16 -12 13 0 14 3 5 13 -6 8
-9 16 -6 19 3 3 -7 10 -22 17 -27 12 -27 12 -10 -6z"/>
<path d="M217 27 c4 -18 3 -19 -6 -7 -9 13 -11 13 -11 -2 0 -13 6 -17 22 -15
29 5 34 23 10 36 -18 9 -19 8 -15 -12z m23 -12 c0 -3 -2 -5 -5 -5 -3 0 -5 2
-5 5 0 3 2 5 5 5 3 0 5 -2 5 -5z"/>
<path d="M857 27 c4 -18 3 -19 -6 -7 -9 13 -11 13 -11 -2 0 -13 6 -17 22 -15
29 5 34 23 10 36 -18 9 -19 8 -15 -12z m23 -12 c0 -3 -2 -5 -5 -5 -3 0 -5 2
-5 5 0 3 2 5 5 5 3 0 5 -2 5 -5z"/>
<path d="M70 34 c0 -3 7 -12 15 -20 16 -17 18 -14 9 10 -6 15 -24 23 -24 10z"/>
<path d="M180 35 c0 -3 2 -5 5 -5 3 0 5 2 5 5 0 3 -2 5 -5 5 -3 0 -5 -2 -5 -5z"/>
<path d="M710 34 c0 -3 7 -12 15 -20 16 -17 18 -14 9 10 -6 15 -24 23 -24 10z"/>
<path d="M820 35 c0 -3 2 -5 5 -5 3 0 5 2 5 5 0 3 -2 5 -5 5 -3 0 -5 -2 -5 -5z"/>
<path d="M580 10 c0 -5 7 -10 16 -10 8 0 12 5 9 10 -3 6 -10 10 -16 10 -5 0
-9 -4 -9 -10z"/>
</g>
<g transform="translate(0.000000,96.000000) scale(0.100000,-0.100000)"
fill="#5b5b5b" stroke="none">
<path d="M70 885 c-7 -9 -9 -15 -4 -14 5 1 17 -1 27 -6 25 -10 28 -3 7 18 -16
16 -18 16 -30 2z"/>
<path d="M391 887 c-9 -12 -9 -17 0 -23 8 -5 10 -3 5 7 -4 8 0 5 8 -5 14 -18
14 -21 -1 -38 -16 -18 -30 -58 -15 -43 4 4 7 11 7 16 0 5 5 9 10 8 6 -1 9 -5
8 -10 -2 -4 4 -6 13 -2 9 3 12 9 7 12 -15 11 -11 51 6 52 13 0 14 1 1 6 -8 4
-20 13 -26 21 -9 12 -12 12 -23 -1z m29 -62 c0 -3 -2 -5 -5 -5 -3 0 -5 2 -5 5
0 3 2 5 5 5 3 0 5 -2 5 -5z"/>
<path d="M540 895 c0 -3 2 -5 5 -5 3 0 5 2 5 5 0 3 -2 5 -5 5 -3 0 -5 -2 -5
-5z"/>
<path d="M715 891 c-3 -6 5 -15 17 -21 21 -10 21 -10 6 3 -10 8 -15 17 -11 20
3 4 4 7 0 7 -3 0 -8 -4 -12 -9z"/>
<path d="M860 895 c0 -3 2 -5 5 -5 3 0 5 2 5 5 0 3 -2 5 -5 5 -3 0 -5 -2 -5
-5z"/>
<path d="M234 878 c-4 -6 -3 -8 4 -4 5 3 13 0 15 -6 3 -8 6 -6 6 5 1 19 -14
23 -25 5z"/>
<path d="M555 880 c-3 -5 -11 -8 -18 -6 -7 1 -9 1 -4 -1 4 -3 5 -9 2 -14 -4
-5 1 -6 9 -3 9 3 16 11 16 18 0 7 3 7 8 1 4 -5 13 -11 21 -13 12 -3 12 0 1 12
-14 18 -26 20 -35 6z"/>
<path d="M865 880 c-17 -8 -16 -8 8 -7 15 1 27 5 27 9 0 10 -9 9 -35 -2z"/>
<path d="M210 875 c0 -3 2 -5 5 -5 3 0 5 2 5 5 0 3 -2 5 -5 5 -3 0 -5 -2 -5
-5z"/>
<path d="M270 865 c0 -3 2 -5 5 -5 3 0 5 2 5 5 0 3 -2 5 -5 5 -3 0 -5 -2 -5
-5z"/>
<path d="M910 865 c0 -3 2 -5 5 -5 3 0 5 2 5 5 0 3 -2 5 -5 5 -3 0 -5 -2 -5
-5z"/>
<path d="M180 855 c0 -3 2 -5 5 -5 3 0 5 2 5 5 0 3 -2 5 -5 5 -3 0 -5 -2 -5
-5z"/>
<path d="M210 855 c0 -3 2 -5 5 -5 3 0 5 2 5 5 0 3 -2 5 -5 5 -3 0 -5 -2 -5
-5z"/>
<path d="M503 853 c4 -3 10 -3 14 0 3 4 0 7 -7 7 -7 0 -10 -3 -7 -7z"/>
<path d="M835 850 c11 -5 27 -9 35 -9 13 -1 13 0 0 9 -8 5 -24 9 -35 9 l-20 0
20 -9z"/>
<path d="M99 845 c-1 -3 -2 -11 -3 -17 0 -7 -7 -13 -15 -13 -8 0 -15 -8 -17
-18 -2 -15 0 -16 12 -6 13 11 18 6 15 -14 -1 -4 12 -13 29 -18 24 -9 30 -17
30 -39 0 -15 -6 -33 -13 -39 -18 -15 -30 -2 -15 17 12 13 22 49 11 39 -2 -3
-5 -9 -5 -14 1 -4 -6 -15 -14 -24 -12 -14 -11 -18 12 -40 21 -19 27 -21 34 -9
5 8 6 18 3 24 -4 5 1 7 10 3 9 -3 16 -3 16 1 -3 19 2 23 14 13 10 -8 14 -7 14
2 0 7 -9 14 -19 14 -10 1 -18 -2 -18 -8 0 -5 -4 -9 -9 -9 -5 0 -8 8 -6 18 1 9
8 16 15 14 6 -1 9 2 6 7 -11 17 6 71 23 71 14 0 14 2 1 10 -8 5 -22 10 -30 10
-13 0 -13 -1 0 -10 11 -7 11 -10 2 -10 -7 0 -11 -4 -8 -8 12 -19 -12 -34 -44
-27 l-33 7 32 15 c17 9 29 18 26 21 -3 3 -11 0 -17 -6 -7 -7 -19 -12 -28 -12
-13 0 -13 1 0 10 9 6 10 10 3 10 -6 0 -10 9 -8 20 3 17 -2 30 -6 15z m-19 -40
c0 -3 -2 -5 -5 -5 -3 0 -5 2 -5 5 0 3 2 5 5 5 3 0 5 -2 5 -5z m20 0 c0 -3 -2
-5 -5 -5 -3 0 -5 2 -5 5 0 3 2 5 5 5 3 0 5 -2 5 -5z m70 -60 c0 -3 -2 -5 -5
-5 -3 0 -5 2 -5 5 0 3 2 5 5 5 3 0 5 -2 5 -5z m-20 -81 c0 -8 -5 -12 -10 -9
-6 4 -8 11 -5 16 9 14 15 11 15 -7z"/>
<path d="M120 841 c0 -10 19 -25 25 -20 1 2 -3 10 -11 17 -8 7 -14 8 -14 3z"/>
<path d="M140 845 c0 -3 2 -5 5 -5 3 0 5 2 5 5 0 3 -2 5 -5 5 -3 0 -5 -2 -5
-5z"/>
<path d="M230 845 c0 -3 2 -5 5 -5 3 0 5 2 5 5 0 3 -2 5 -5 5 -3 0 -5 -2 -5
-5z"/>
<path d="M443 840 c2 -8 12 -16 23 -17 13 -2 15 -1 4 4 -8 3 -19 11 -23 17 -6
7 -7 6 -4 -4z"/>
<path d="M460 845 c0 -3 2 -5 5 -5 3 0 5 2 5 5 0 3 -2 5 -5 5 -3 0 -5 -2 -5
-5z"/>
<path d="M550 845 c0 -3 2 -5 5 -5 3 0 5 2 5 5 0 3 -2 5 -5 5 -3 0 -5 -2 -5
-5z"/>
<path d="M739 848 c-4 -10 -4 -77 0 -72 6 5 10 74 4 74 -2 0 -3 -1 -4 -2z"/>
<path d="M768 843 c7 -3 16 -2 19 1 4 3 -2 6 -13 5 -11 0 -14 -3 -6 -6z"/>
<path d="M170 835 c0 -3 2 -5 5 -5 3 0 5 2 5 5 0 3 -2 5 -5 5 -3 0 -5 -2 -5
-5z"/>
<path d="M191 836 c2 -2 15 -9 29 -15 24 -11 24 -11 6 3 -16 13 -49 24 -35 12z"/>
<path d="M490 835 c0 -3 2 -5 5 -5 3 0 5 2 5 5 0 3 -2 5 -5 5 -3 0 -5 -2 -5
-5z"/>
<path d="M510 836 c0 -2 7 -7 16 -10 8 -3 12 -2 9 4 -6 10 -25 14 -25 6z"/>
<path d="M783 830 c-34 -14 -28 -21 7 -9 17 6 30 13 30 15 0 6 -12 4 -37 -6z"/>
<path d="M834 831 c3 -5 16 -11 28 -14 22 -6 22 -5 4 8 -22 17 -40 20 -32 6z"/>
<path d="M500 810 c8 -5 22 -10 30 -10 13 0 13 1 0 10 -8 5 -22 10 -30 10 -13
0 -13 -1 0 -10z"/>
<path d="M550 815 c0 -3 2 -5 5 -5 3 0 5 2 5 5 0 3 -2 5 -5 5 -3 0 -5 -2 -5
-5z"/>
<path d="M820 810 c8 -5 10 -10 5 -10 -6 0 -11 -9 -12 -20 -1 -11 2 -20 8 -20
5 0 8 3 8 8 -4 21 3 32 19 32 14 0 15 2 2 10 -8 5 -22 10 -30 10 -13 0 -13 -1
0 -10z"/>
<path d="M460 805 c0 -3 2 -5 5 -5 3 0 5 2 5 5 0 3 -2 5 -5 5 -3 0 -5 -2 -5
-5z"/>
<path d="M769 793 c-13 -16 -12 -17 4 -4 9 7 17 15 17 17 0 8 -8 3 -21 -13z"/>
<path d="M477 789 c-9 -6 -15 -14 -12 -20 4 -5 0 -9 -7 -9 -10 0 -9 -3 2 -9 8
-6 19 -7 25 -4 5 3 4 0 -2 -8 -7 -7 -13 -25 -13 -40 0 -19 -5 -27 -16 -25 -19
3 -35 26 -27 40 4 5 1 6 -6 2 -15 -10 9 -51 30 -51 8 -1 13 -6 12 -13 -4 -17
12 -15 28 4 18 21 19 53 2 47 -9 -4 -11 0 -7 11 3 9 9 14 13 12 3 -2 7 13 8
35 3 41 -1 45 -30 28z m16 -14 c-3 -9 -8 -14 -10 -11 -3 3 -2 9 2 15 9 16 15
13 8 -4z m4 -102 c-4 -3 -10 -3 -14 0 -3 4 0 7 7 7 7 0 10 -3 7 -7z"/>
<path d="M704 788 c-4 -7 -3 -8 4 -4 12 7 16 16 8 16 -3 0 -8 -5 -12 -12z"/>
<path d="M145 780 c-3 -5 -1 -10 4 -10 6 0 11 5 11 10 0 6 -2 10 -4 10 -3 0
-8 -4 -11 -10z"/>
<path d="M210 785 c0 -7 30 -13 34 -7 3 4 -4 9 -15 9 -10 1 -19 0 -19 -2z"/>
<path d="M440 785 c0 -3 2 -5 5 -5 3 0 5 2 5 5 0 3 -2 5 -5 5 -3 0 -5 -2 -5
-5z"/>
<path d="M520 785 c0 -3 2 -5 5 -5 3 0 5 2 5 5 0 3 -2 5 -5 5 -3 0 -5 -2 -5
-5z"/>
<path d="M560 785 c0 -3 2 -5 5 -5 3 0 5 2 5 5 0 3 -2 5 -5 5 -3 0 -5 -2 -5
-5z"/>
<path d="M866 778 c3 -5 10 -6 15 -3 13 9 11 12 -6 12 -8 0 -12 -4 -9 -9z"/>
<path d="M417 769 c7 -7 15 -10 18 -7 3 3 -2 9 -12 12 -14 6 -15 5 -6 -5z"/>
<path d="M790 775 c0 -3 2 -5 5 -5 3 0 5 2 5 5 0 3 -2 5 -5 5 -3 0 -5 -2 -5
-5z"/>
<path d="M209 762 c12 -8 11 -11 -3 -15 -15 -4 -15 -5 1 -3 19 1 21 19 1 24
-10 3 -10 1 1 -6z"/>
<path d="M533 763 c4 -6 2 -13 -5 -15 -8 -3 -6 -6 4 -10 17 -7 19 15 3 29 -4
4 -5 3 -2 -4z"/>
<path d="M750 765 c0 -3 2 -5 5 -5 3 0 5 2 5 5 0 3 -2 5 -5 5 -3 0 -5 -2 -5
-5z"/>
<path d="M848 761 c8 -4 14 -12 14 -16 0 -4 -6 -12 -14 -16 -9 -6 -9 -9 -1 -9
6 0 15 5 18 10 5 8 11 8 19 1 9 -8 13 -7 13 4 0 8 -4 12 -8 10 -3 -3 -12 2
-19 10 -7 8 -18 15 -24 15 -7 0 -6 -4 2 -9z m22 -16 c0 -3 -2 -5 -5 -5 -3 0
-5 2 -5 5 0 3 2 5 5 5 3 0 5 -2 5 -5z"/>
<path d="M778 753 c15 -6 16 -33 1 -33 -5 0 -7 5 -3 12 5 7 3 8 -6 3 -10 -6
-9 -11 4 -21 24 -17 11 -38 -14 -22 -10 7 -17 15 -14 19 2 4 0 10 -5 14 -13 8
-5 -33 10 -51 9 -11 15 -11 25 -3 11 9 14 7 14 -10 0 -21 1 -21 17 -5 22 22
30 62 9 45 -12 -10 -14 -9 -11 6 1 10 8 17 14 15 9 -2 9 3 1 18 -6 11 -20 20
-33 19 -12 0 -16 -3 -9 -6z m-13 -73 c3 -5 4 -10 1 -10 -3 0 -8 5 -11 10 -3 6
-4 10 -1 10 3 0 8 -4 11 -10z m55 -5 c0 -3 -2 -5 -5 -5 -3 0 -5 2 -5 5 0 3 2
5 5 5 3 0 5 -2 5 -5z"/>
<path d="M240 735 c0 -3 2 -5 5 -5 3 0 5 2 5 5 0 3 -2 5 -5 5 -3 0 -5 -2 -5
-5z"/>
<path d="M449 738 c-6 -21 -5 -37 2 -32 5 3 7 9 4 14 -3 4 1 11 7 13 10 4 10
6 1 6 -7 1 -13 0 -14 -1z"/>
<path d="M565 730 c3 -5 8 -10 11 -10 3 0 2 5 -1 10 -3 6 -8 10 -11 10 -3 0
-2 -4 1 -10z"/>
<path d="M95 720 c3 -5 8 -10 11 -10 3 0 2 5 -1 10 -3 6 -8 10 -11 10 -3 0 -2
-4 1 -10z"/>
<path d="M200 725 c0 -3 2 -5 5 -5 3 0 5 2 5 5 0 3 -2 5 -5 5 -3 0 -5 -2 -5
-5z"/>
<path d="M520 721 c0 -6 4 -13 10 -16 6 -3 7 1 4 9 -7 18 -14 21 -14 7z"/>
<path d="M230 715 c0 -3 2 -5 5 -5 3 0 5 2 5 5 0 3 -2 5 -5 5 -3 0 -5 -2 -5
-5z"/>
<path d="M550 715 c0 -3 2 -5 5 -5 3 0 5 2 5 5 0 3 -2 5 -5 5 -3 0 -5 -2 -5
-5z"/>
<path d="M863 712 c-9 -5 -3 -13 20 -26 26 -14 28 -14 12 -1 -11 9 -19 21 -17
26 3 11 1 11 -15 1z"/>
<path d="M250 699 c0 -5 -4 -7 -10 -4 -5 3 -10 4 -10 1 0 -3 9 -10 19 -15 16
-9 18 -8 14 9 -6 21 -13 27 -13 9z"/>
<path d="M570 705 c0 -3 2 -5 5 -5 3 0 5 2 5 5 0 3 -2 5 -5 5 -3 0 -5 -2 -5
-5z"/>
<path d="M890 705 c0 -3 2 -5 5 -5 3 0 5 2 5 5 0 3 -2 5 -5 5 -3 0 -5 -2 -5
-5z"/>
<path d="M35 691 c3 -5 2 -11 -2 -14 -5 -2 -2 -2 5 -1 6 2 12 -1 12 -5 0 -5
-6 -11 -12 -14 -7 -3 -4 -5 8 -4 24 1 22 32 -3 41 -7 3 -12 2 -8 -3z"/>
<path d="M355 691 c3 -5 -1 -11 -7 -14 -7 -3 -3 -4 10 -4 25 1 29 12 6 21 -8
3 -13 2 -9 -3z"/>
<path d="M553 693 c4 -6 -2 -19 -13 -31 -19 -20 -19 -21 0 -19 10 1 16 5 14 9
-3 4 0 8 6 8 6 0 8 5 4 12 -5 8 -2 9 9 5 24 -9 21 0 -4 14 -12 6 -19 7 -16 2z"/>
<path d="M679 686 c12 -14 12 -19 2 -25 -9 -6 -7 -10 9 -14 16 -4 20 -2 16 9
-3 8 -1 14 4 14 6 0 10 -4 10 -10 0 -5 5 -10 11 -10 17 0 0 19 -34 37 -30 15
-31 15 -18 -1z"/>
<path d="M530 685 c0 -3 2 -5 5 -5 3 0 5 2 5 5 0 3 -2 5 -5 5 -3 0 -5 -2 -5
-5z"/>
<path d="M850 685 c0 -3 2 -5 5 -5 3 0 5 2 5 5 0 3 -2 5 -5 5 -3 0 -5 -2 -5
-5z"/>
<path d="M70 676 c0 -2 8 -10 18 -17 15 -13 16 -12 3 4 -13 16 -21 21 -21 13z"/>
<path d="M390 676 c0 -2 8 -10 18 -17 15 -13 16 -12 3 4 -13 16 -21 21 -21 13z"/>
<path d="M660 675 c0 -3 2 -5 5 -5 3 0 5 2 5 5 0 3 -2 5 -5 5 -3 0 -5 -2 -5
-5z"/>
<path d="M200 665 c0 -3 2 -5 5 -5 3 0 5 2 5 5 0 3 -2 5 -5 5 -3 0 -5 -2 -5
-5z"/>
<path d="M220 661 c0 -5 -10 -12 -22 -14 -22 -4 -22 -4 -2 -6 12 0 27 6 34 14
9 10 9 15 1 15 -6 0 -11 -4 -11 -9z"/>
<path d="M520 665 c0 -3 2 -5 5 -5 3 0 5 2 5 5 0 3 -2 5 -5 5 -3 0 -5 -2 -5
-5z"/>
<path d="M840 665 c0 -3 2 -5 5 -5 3 0 5 2 5 5 0 3 -2 5 -5 5 -3 0 -5 -2 -5
-5z"/>
<path d="M860 665 c0 -3 2 -5 5 -5 3 0 5 2 5 5 0 3 -2 5 -5 5 -3 0 -5 -2 -5
-5z"/>
<path d="M880 665 c0 -3 2 -5 5 -5 3 0 5 2 5 5 0 3 -2 5 -5 5 -3 0 -5 -2 -5
-5z"/>
<path d="M265 650 c3 -5 8 -10 11 -10 3 0 2 5 -1 10 -3 6 -8 10 -11 10 -3 0
-2 -4 1 -10z"/>
<path d="M358 653 c6 -2 18 -2 25 0 6 3 1 5 -13 5 -14 0 -19 -2 -12 -5z"/>
<path d="M585 650 c3 -5 8 -10 11 -10 3 0 2 5 -1 10 -3 6 -8 10 -11 10 -3 0
-2 -4 1 -10z"/>
<path d="M905 650 c3 -5 8 -10 11 -10 3 0 2 5 -1 10 -3 6 -8 10 -11 10 -3 0
-2 -4 1 -10z"/>
<path d="M240 645 c0 -3 2 -5 5 -5 3 0 5 2 5 5 0 3 -2 5 -5 5 -3 0 -5 -2 -5
-5z"/>
<path d="M500 645 c0 -3 2 -5 5 -5 3 0 5 2 5 5 0 3 -2 5 -5 5 -3 0 -5 -2 -5
-5z"/>
<path d="M828 643 c6 -2 18 -2 25 0 6 3 1 5 -13 5 -14 0 -19 -2 -12 -5z"/>
<path d="M880 645 c0 -3 2 -5 5 -5 3 0 5 2 5 5 0 3 -2 5 -5 5 -3 0 -5 -2 -5
-5z"/>
<path d="M70 565 c-7 -8 -11 -15 -9 -16 49 -10 50 -9 39 11 -13 24 -14 24 -30
5z m10 -10 c0 -3 -2 -5 -5 -5 -3 0 -5 2 -5 5 0 3 2 5 5 5 3 0 5 -2 5 -5z"/>
<path d="M391 567 c-9 -12 -9 -17 0 -23 8 -4 9 -3 5 4 -4 7 -3 12 3 12 17 0
18 -34 2 -53 -13 -16 -13 -18 -1 -15 8 2 14 -2 13 -9 -2 -7 4 -10 13 -6 9 3
12 9 7 12 -15 11 -11 51 6 52 13 0 14 1 1 6 -8 4 -20 13 -26 21 -9 12 -12 12
-23 -1z m29 -62 c0 -3 -2 -5 -5 -5 -3 0 -5 2 -5 5 0 3 2 5 5 5 3 0 5 -2 5 -5z"/>
<path d="M540 575 c0 -3 2 -5 5 -5 3 0 5 2 5 5 0 3 -2 5 -5 5 -3 0 -5 -2 -5
-5z"/>
<path d="M715 571 c-3 -6 5 -15 17 -21 21 -10 21 -10 6 3 -10 8 -15 17 -11 20
3 4 4 7 0 7 -3 0 -8 -4 -12 -9z"/>
<path d="M860 575 c0 -3 2 -5 5 -5 3 0 5 2 5 5 0 3 -2 5 -5 5 -3 0 -5 -2 -5
-5z"/>
<path d="M235 559 c-4 -6 -4 -13 -1 -16 3 -4 6 0 6 8 0 11 2 11 10 -1 8 -13
10 -12 10 3 0 19 -15 23 -25 6z"/>
<path d="M555 560 c-3 -5 -11 -8 -18 -6 -7 1 -9 1 -4 -1 4 -3 5 -9 2 -14 -4
-5 1 -6 9 -3 9 3 16 11 16 18 0 7 3 7 8 1 4 -5 13 -11 21 -13 12 -3 12 0 1 12
-14 18 -26 20 -35 6z"/>
<path d="M865 560 c-17 -8 -16 -8 8 -7 15 1 27 5 27 9 0 10 -9 9 -35 -2z"/>
<path d="M210 555 c0 -3 2 -5 5 -5 3 0 5 2 5 5 0 3 -2 5 -5 5 -3 0 -5 -2 -5
-5z"/>
<path d="M120 545 c0 -3 2 -5 5 -5 3 0 5 2 5 5 0 3 -2 5 -5 5 -3 0 -5 -2 -5
-5z"/>
<path d="M270 540 c0 -7 3 -10 7 -7 3 4 3 10 0 14 -4 3 -7 0 -7 -7z"/>
<path d="M910 545 c0 -3 2 -5 5 -5 3 0 5 2 5 5 0 3 -2 5 -5 5 -3 0 -5 -2 -5
-5z"/>
<path d="M180 535 c0 -3 2 -5 5 -5 3 0 5 2 5 5 0 3 -2 5 -5 5 -3 0 -5 -2 -5
-5z"/>
<path d="M205 530 c3 -5 11 -10 16 -10 6 0 7 5 4 10 -3 6 -11 10 -16 10 -6 0
-7 -4 -4 -10z"/>
<path d="M503 533 c4 -3 10 -3 14 0 3 4 0 7 -7 7 -7 0 -10 -3 -7 -7z"/>
<path d="M835 530 c11 -5 27 -9 35 -9 13 -1 13 0 0 9 -8 5 -24 9 -35 9 l-20 0
20 -9z"/>
<path d="M94 518 c-4 -7 -3 -8 4 -4 7 4 12 9 12 12 0 8 -9 4 -16 -8z"/>
<path d="M120 525 c0 -3 2 -5 5 -5 3 0 5 2 5 5 0 3 -2 5 -5 5 -3 0 -5 -2 -5
-5z"/>
<path d="M140 525 c0 -3 2 -5 5 -5 3 0 5 2 5 5 0 3 -2 5 -5 5 -3 0 -5 -2 -5
-5z"/>
<path d="M443 520 c2 -8 12 -16 23 -17 13 -2 15 -1 4 4 -8 3 -19 11 -23 17 -6
7 -7 6 -4 -4z"/>
<path d="M460 525 c0 -3 2 -5 5 -5 3 0 5 2 5 5 0 3 -2 5 -5 5 -3 0 -5 -2 -5
-5z"/>
<path d="M550 525 c0 -3 2 -5 5 -5 3 0 5 2 5 5 0 3 -2 5 -5 5 -3 0 -5 -2 -5
-5z"/>
<path d="M739 528 c-4 -10 -4 -77 0 -72 6 5 10 74 4 74 -2 0 -3 -1 -4 -2z"/>
<path d="M768 523 c7 -3 16 -2 19 1 4 3 -2 6 -13 5 -11 0 -14 -3 -6 -6z"/>
<path d="M147 513 c-11 -3 -16 -11 -13 -19 3 -7 -3 -18 -12 -23 -9 -6 -12 -10
-7 -10 6 0 19 6 29 14 14 11 16 15 5 15 -8 1 -3 7 11 15 25 14 21 17 -13 8z"/>
<path d="M194 503 c2 -9 9 -19 17 -21 11 -3 11 -1 -1 8 -12 10 -10 11 10 6 24
-5 24 -4 6 9 -26 20 -35 19 -32 -2z"/>
<path d="M490 515 c0 -3 2 -5 5 -5 3 0 5 2 5 5 0 3 -2 5 -5 5 -3 0 -5 -2 -5
-5z"/>
<path d="M510 516 c0 -2 7 -7 16 -10 8 -3 12 -2 9 4 -6 10 -25 14 -25 6z"/>
<path d="M783 510 c-34 -14 -28 -21 7 -9 17 6 30 13 30 15 0 6 -12 4 -37 -6z"/>
<path d="M834 511 c3 -5 16 -11 28 -14 22 -6 22 -5 4 8 -22 17 -40 20 -32 6z"/>
<path d="M110 505 c0 -3 2 -5 5 -5 3 0 5 2 5 5 0 3 -2 5 -5 5 -3 0 -5 -2 -5
-5z"/>
<path d="M69 498 c-5 -18 -6 -38 -1 -34 7 8 12 36 6 36 -2 0 -4 -1 -5 -2z"/>
<path d="M90 495 c0 -3 2 -5 5 -5 3 0 5 2 5 5 0 3 -2 5 -5 5 -3 0 -5 -2 -5 -5z"/>
<path d="M170 495 c0 -3 2 -5 5 -5 3 0 5 2 5 5 0 3 -2 5 -5 5 -3 0 -5 -2 -5
-5z"/>
<path d="M500 490 c8 -5 22 -10 30 -10 13 0 13 1 0 10 -8 5 -22 10 -30 10 -13
0 -13 -1 0 -10z"/>
<path d="M550 495 c0 -3 2 -5 5 -5 3 0 5 2 5 5 0 3 -2 5 -5 5 -3 0 -5 -2 -5
-5z"/>
<path d="M820 490 c8 -5 10 -10 5 -10 -6 0 -11 -9 -12 -20 -1 -11 2 -20 8 -20
5 0 8 3 8 8 -4 21 3 32 19 32 14 0 15 2 2 10 -8 5 -22 10 -30 10 -13 0 -13 -1
0 -10z"/>
<path d="M110 485 c0 -3 2 -5 5 -5 3 0 5 2 5 5 0 3 -2 5 -5 5 -3 0 -5 -2 -5
-5z"/>
<path d="M460 485 c0 -3 2 -5 5 -5 3 0 5 2 5 5 0 3 -2 5 -5 5 -3 0 -5 -2 -5
-5z"/>
<path d="M769 473 c-13 -16 -12 -17 4 -4 16 13 21 21 13 21 -2 0 -10 -8 -17
-17z"/>
<path d="M90 475 c0 -3 2 -5 5 -5 3 0 5 2 5 5 0 3 -2 5 -5 5 -3 0 -5 -2 -5 -5z"/>
<path d="M160 467 c-10 -8 -14 -25 -12 -50 2 -25 -2 -45 -13 -57 -14 -15 -14
-18 0 -30 13 -11 19 -10 35 5 10 9 16 23 13 31 -4 12 7 19 29 15 4 0 5 6 2 14
-4 8 -14 15 -23 15 -11 0 -12 -3 -4 -8 9 -6 7 -11 -7 -20 -16 -10 -18 -9 -14
8 2 11 6 29 8 40 3 13 1 18 -6 14 -6 -4 -9 -1 -6 7 3 8 11 13 17 12 6 -2 11 2
11 7 0 13 -12 12 -30 -3z m-10 -123 c0 -8 -5 -12 -10 -9 -6 4 -8 11 -5 16 9
14 15 11 15 -7z m27 9 c-4 -3 -10 -3 -14 0 -3 4 0 7 7 7 7 0 10 -3 7 -7z"/>
<path d="M384 468 c-4 -7 -3 -8 4 -4 7 4 12 9 12 12 0 8 -9 4 -16 -8z"/>
<path d="M477 469 c-9 -6 -15 -14 -12 -20 4 -5 0 -9 -7 -9 -10 0 -9 -3 2 -9 8
-6 19 -7 25 -4 5 3 4 0 -2 -8 -7 -7 -13 -25 -13 -40 0 -19 -5 -27 -16 -25 -19
3 -35 26 -27 40 4 5 1 6 -6 2 -15 -10 9 -51 30 -51 8 -1 13 -6 12 -13 -4 -17
12 -15 28 4 18 21 19 53 2 47 -9 -4 -11 0 -7 11 3 9 9 14 13 12 3 -2 7 13 8
35 3 41 -1 45 -30 28z m16 -14 c-3 -9 -8 -14 -10 -11 -3 3 -2 9 2 15 9 16 15
13 8 -4z m4 -102 c-4 -3 -10 -3 -14 0 -3 4 0 7 7 7 7 0 10 -3 7 -7z"/>
<path d="M704 468 c-4 -7 -3 -8 4 -4 7 4 12 9 12 12 0 8 -9 4 -16 -8z"/>
<path d="M234 458 c-4 -7 -3 -8 4 -4 7 4 12 9 12 12 0 8 -9 4 -16 -8z"/>
<path d="M440 465 c0 -3 2 -5 5 -5 3 0 5 2 5 5 0 3 -2 5 -5 5 -3 0 -5 -2 -5
-5z"/>
<path d="M520 465 c0 -3 2 -5 5 -5 3 0 5 2 5 5 0 3 -2 5 -5 5 -3 0 -5 -2 -5
-5z"/>
<path d="M560 465 c0 -3 2 -5 5 -5 3 0 5 2 5 5 0 3 -2 5 -5 5 -3 0 -5 -2 -5
-5z"/>
<path d="M866 458 c3 -5 10 -6 15 -3 13 9 11 12 -6 12 -8 0 -12 -4 -9 -9z"/>
<path d="M84 449 c-6 -10 -7 -10 28 -13 30 -2 29 9 -2 17 -11 3 -23 1 -26 -4z
m16 -4 c0 -3 -2 -5 -5 -5 -3 0 -5 2 -5 5 0 3 2 5 5 5 3 0 5 -2 5 -5z"/>
<path d="M417 449 c7 -7 15 -10 18 -7 3 3 -2 9 -12 12 -14 6 -15 5 -6 -5z"/>
<path d="M790 455 c0 -3 2 -5 5 -5 3 0 5 2 5 5 0 3 -2 5 -5 5 -3 0 -5 -2 -5
-5z"/>
<path d="M210 445 c0 -3 2 -5 5 -5 3 0 5 2 5 5 0 3 -2 5 -5 5 -3 0 -5 -2 -5
-5z"/>
<path d="M533 443 c4 -6 2 -13 -5 -15 -8 -3 -6 -6 4 -10 17 -7 19 15 3 29 -4
4 -5 3 -2 -4z"/>
<path d="M750 445 c0 -3 2 -5 5 -5 3 0 5 2 5 5 0 3 -2 5 -5 5 -3 0 -5 -2 -5
-5z"/>
<path d="M841 447 c2 -1 13 -9 24 -17 19 -14 19 -14 6 3 -7 9 -18 17 -24 17
-6 0 -8 -1 -6 -3z"/>
<path d="M778 433 c15 -6 16 -33 1 -33 -5 0 -7 5 -3 12 5 7 3 8 -6 3 -10 -6
-9 -11 4 -21 24 -17 11 -38 -14 -22 -10 7 -17 15 -14 19 2 4 0 10 -5 14 -13 8
-5 -33 10 -51 9 -11 15 -11 25 -3 11 9 14 7 14 -10 0 -21 1 -21 17 -5 22 22
30 62 9 45 -12 -10 -14 -9 -11 6 1 10 8 17 14 15 9 -2 9 3 1 18 -6 11 -20 20
-33 19 -12 0 -16 -3 -9 -6z m-13 -73 c3 -5 4 -10 1 -10 -3 0 -8 5 -11 10 -3 6
-4 10 -1 10 3 0 8 -4 11 -10z m55 -5 c0 -3 -2 -5 -5 -5 -3 0 -5 2 -5 5 0 3 2
5 5 5 3 0 5 -2 5 -5z"/>
<path d="M190 425 c0 -3 2 -5 5 -5 3 0 5 2 5 5 0 3 -2 5 -5 5 -3 0 -5 -2 -5
-5z"/>
<path d="M230 425 c0 -2 6 -8 13 -14 10 -8 14 -7 14 2 0 8 -6 14 -14 14 -7 0
-13 -1 -13 -2z"/>
<path d="M449 418 c-6 -21 -5 -37 2 -32 5 3 7 9 4 14 -3 4 1 11 7 13 10 4 10
6 1 6 -7 1 -13 0 -14 -1z"/>
<path d="M565 410 c3 -5 8 -10 11 -10 3 0 2 5 -1 10 -3 6 -8 10 -11 10 -3 0
-2 -4 1 -10z"/>
<path d="M125 400 c3 -5 8 -10 11 -10 3 0 2 5 -1 10 -3 6 -8 10 -11 10 -3 0
-2 -4 1 -10z"/>
<path d="M225 400 c3 -5 8 -10 11 -10 3 0 2 5 -1 10 -3 6 -8 10 -11 10 -3 0
-2 -4 1 -10z"/>
<path d="M520 401 c0 -6 4 -13 10 -16 6 -3 7 1 4 9 -7 18 -14 21 -14 7z"/>
<path d="M840 405 c0 -3 2 -5 5 -5 3 0 5 2 5 5 0 3 -2 5 -5 5 -3 0 -5 -2 -5
-5z"/>
<path d="M863 403 c4 -6 3 -13 -3 -15 -6 -2 0 -9 12 -17 22 -13 22 -13 8 4 -8
10 -13 20 -12 22 2 3 0 8 -4 11 -4 4 -4 2 -1 -5z"/>
<path d="M890 405 c0 -3 2 -5 5 -5 3 0 5 2 5 5 0 3 -2 5 -5 5 -3 0 -5 -2 -5
-5z"/>
<path d="M94 388 c-4 -7 -3 -8 4 -4 7 4 12 9 12 12 0 8 -9 4 -16 -8z"/>
<path d="M550 395 c0 -3 2 -5 5 -5 3 0 5 2 5 5 0 3 -2 5 -5 5 -3 0 -5 -2 -5
-5z"/>
<path d="M250 385 c0 -3 2 -5 5 -5 3 0 5 2 5 5 0 3 -2 5 -5 5 -3 0 -5 -2 -5
-5z"/>
<path d="M570 385 c0 -3 2 -5 5 -5 3 0 5 2 5 5 0 3 -2 5 -5 5 -3 0 -5 -2 -5
-5z"/>
<path d="M890 385 c0 -3 2 -5 5 -5 3 0 5 2 5 5 0 3 -2 5 -5 5 -3 0 -5 -2 -5
-5z"/>
<path d="M33 364 c0 -7 4 -11 9 -8 4 3 8 1 8 -5 0 -5 -6 -12 -12 -14 -7 -3 -3
-6 9 -6 16 -1 20 3 16 18 -6 23 -30 35 -30 15z"/>
<path d="M104 368 c-4 -7 -3 -8 4 -4 7 4 12 9 12 12 0 8 -9 4 -16 -8z"/>
<path d="M235 370 c3 -5 8 -10 11 -10 3 0 2 5 -1 10 -3 6 -8 10 -11 10 -3 0
-2 -4 1 -10z"/>
<path d="M355 371 c3 -5 -1 -11 -7 -14 -7 -3 -3 -4 10 -4 25 1 29 12 6 21 -8
3 -13 2 -9 -3z"/>
<path d="M553 373 c4 -6 -2 -19 -13 -31 -19 -20 -19 -21 0 -19 10 1 16 5 14 9
-3 4 0 8 6 8 6 0 8 5 4 12 -5 8 -2 9 9 5 24 -9 21 0 -4 14 -12 6 -19 7 -16 2z"/>
<path d="M679 366 c12 -14 12 -19 2 -25 -9 -6 -7 -10 9 -14 16 -4 20 -2 16 9
-3 8 -1 14 4 14 6 0 10 -4 10 -10 0 -5 5 -10 11 -10 17 0 0 19 -34 37 -30 15
-31 15 -18 -1z"/>
<path d="M210 365 c0 -3 2 -5 5 -5 3 0 5 2 5 5 0 3 -2 5 -5 5 -3 0 -5 -2 -5
-5z"/>
<path d="M530 365 c0 -3 2 -5 5 -5 3 0 5 2 5 5 0 3 -2 5 -5 5 -3 0 -5 -2 -5
-5z"/>
<path d="M850 365 c0 -3 2 -5 5 -5 3 0 5 2 5 5 0 3 -2 5 -5 5 -3 0 -5 -2 -5
-5z"/>
<path d="M70 356 c0 -2 8 -10 18 -17 15 -13 16 -12 3 4 -13 16 -21 21 -21 13z"/>
<path d="M260 355 c0 -3 2 -5 5 -5 3 0 5 2 5 5 0 3 -2 5 -5 5 -3 0 -5 -2 -5
-5z"/>
<path d="M390 356 c0 -2 8 -10 18 -17 15 -13 16 -12 3 4 -13 16 -21 21 -21 13z"/>
<path d="M660 355 c0 -3 2 -5 5 -5 3 0 5 2 5 5 0 3 -2 5 -5 5 -3 0 -5 -2 -5
-5z"/>
<path d="M900 355 c0 -3 2 -5 5 -5 3 0 5 2 5 5 0 3 -2 5 -5 5 -3 0 -5 -2 -5
-5z"/>
<path d="M220 341 c0 -5 -10 -12 -22 -14 -22 -4 -22 -4 -2 -6 12 0 27 6 34 14
9 10 9 15 1 15 -6 0 -11 -4 -11 -9z"/>
<path d="M520 345 c0 -3 2 -5 5 -5 3 0 5 2 5 5 0 3 -2 5 -5 5 -3 0 -5 -2 -5
-5z"/>
<path d="M840 345 c0 -3 2 -5 5 -5 3 0 5 2 5 5 0 3 -2 5 -5 5 -3 0 -5 -2 -5
-5z"/>
<path d="M860 345 c0 -3 2 -5 5 -5 3 0 5 2 5 5 0 3 -2 5 -5 5 -3 0 -5 -2 -5
-5z"/>
<path d="M880 345 c0 -3 2 -5 5 -5 3 0 5 2 5 5 0 3 -2 5 -5 5 -3 0 -5 -2 -5
-5z"/>
<path d="M256 332 c-3 -5 1 -9 9 -9 8 0 12 4 9 9 -3 4 -7 8 -9 8 -2 0 -6 -4
-9 -8z"/>
<path d="M358 333 c6 -2 18 -2 25 0 6 3 1 5 -13 5 -14 0 -19 -2 -12 -5z"/>
<path d="M585 330 c3 -5 8 -10 11 -10 3 0 2 5 -1 10 -3 6 -8 10 -11 10 -3 0
-2 -4 1 -10z"/>
<path d="M905 330 c3 -5 8 -10 11 -10 3 0 2 5 -1 10 -3 6 -8 10 -11 10 -3 0
-2 -4 1 -10z"/>
<path d="M500 325 c0 -3 2 -5 5 -5 3 0 5 2 5 5 0 3 -2 5 -5 5 -3 0 -5 -2 -5
-5z"/>
<path d="M828 323 c6 -2 18 -2 25 0 6 3 1 5 -13 5 -14 0 -19 -2 -12 -5z"/>
<path d="M880 325 c0 -3 2 -5 5 -5 3 0 5 2 5 5 0 3 -2 5 -5 5 -3 0 -5 -2 -5
-5z"/>
<path d="M71 247 c-9 -12 -9 -17 0 -23 8 -4 9 -3 5 4 -4 7 -3 12 3 12 17 0 18
-34 2 -53 -13 -16 -13 -18 -1 -15 8 2 14 -2 13 -9 -2 -7 4 -10 13 -6 9 3 12 9
7 12 -15 11 -11 51 6 52 13 0 14 1 1 6 -8 4 -20 13 -26 21 -9 12 -12 12 -23
-1z m29 -62 c0 -3 -2 -5 -5 -5 -3 0 -5 2 -5 5 0 3 2 5 5 5 3 0 5 -2 5 -5z"/>
<path d="M220 255 c0 -3 2 -5 5 -5 3 0 5 2 5 5 0 3 -2 5 -5 5 -3 0 -5 -2 -5
-5z"/>
<path d="M395 251 c-3 -6 5 -15 17 -21 21 -10 21 -10 6 3 -10 8 -15 17 -11 20
3 4 4 7 0 7 -3 0 -8 -4 -12 -9z"/>
<path d="M540 255 c0 -3 2 -5 5 -5 3 0 5 2 5 5 0 3 -2 5 -5 5 -3 0 -5 -2 -5
-5z"/>
<path d="M711 247 c-9 -12 -9 -17 0 -23 8 -4 9 -3 5 4 -4 7 -3 12 3 12 17 0
18 -34 2 -53 -13 -16 -13 -18 -1 -15 8 2 14 -2 13 -9 -2 -7 4 -10 13 -6 9 3
12 9 7 12 -15 11 -11 51 6 52 13 0 14 1 1 6 -8 4 -20 13 -26 21 -9 12 -12 12
-23 -1z m29 -62 c0 -3 -2 -5 -5 -5 -3 0 -5 2 -5 5 0 3 2 5 5 5 3 0 5 -2 5 -5z"/>
<path d="M860 255 c0 -3 2 -5 5 -5 3 0 5 2 5 5 0 3 -2 5 -5 5 -3 0 -5 -2 -5
-5z"/>
<path d="M235 240 c-3 -5 -11 -8 -18 -6 -7 1 -9 1 -4 -1 4 -3 5 -9 2 -14 -4
-5 1 -6 9 -3 9 3 16 11 16 18 0 7 3 7 8 1 4 -5 13 -11 21 -13 12 -3 12 0 1 12
-14 18 -26 20 -35 6z"/>
<path d="M545 240 c-17 -8 -16 -8 8 -7 15 1 27 5 27 9 0 10 -9 9 -35 -2z"/>
<path d="M875 240 c-3 -5 -11 -8 -18 -6 -7 1 -9 1 -4 -1 4 -3 5 -9 2 -14 -4
-5 1 -6 9 -3 9 3 16 11 16 18 0 7 3 7 8 1 4 -5 13 -11 21 -13 12 -3 12 0 1 12
-14 18 -26 20 -35 6z"/>
<path d="M590 225 c0 -3 2 -5 5 -5 3 0 5 2 5 5 0 3 -2 5 -5 5 -3 0 -5 -2 -5
-5z"/>
<path d="M183 213 c4 -3 10 -3 14 0 3 4 0 7 -7 7 -7 0 -10 -3 -7 -7z"/>
<path d="M515 210 c11 -5 27 -9 35 -9 13 -1 13 0 0 9 -8 5 -24 9 -35 9 l-20 0
20 -9z"/>
<path d="M823 213 c4 -3 10 -3 14 0 3 4 0 7 -7 7 -7 0 -10 -3 -7 -7z"/>
<path d="M123 200 c2 -8 12 -16 23 -17 13 -2 15 -1 4 4 -8 3 -19 11 -23 17 -6
7 -7 6 -4 -4z"/>
<path d="M140 205 c0 -3 2 -5 5 -5 3 0 5 2 5 5 0 3 -2 5 -5 5 -3 0 -5 -2 -5
-5z"/>
<path d="M230 205 c0 -3 2 -5 5 -5 3 0 5 2 5 5 0 3 -2 5 -5 5 -3 0 -5 -2 -5
-5z"/>
<path d="M419 208 c-4 -10 -4 -77 0 -72 6 5 10 74 4 74 -2 0 -3 -1 -4 -2z"/>
<path d="M448 203 c7 -3 16 -2 19 1 4 3 -2 6 -13 5 -11 0 -14 -3 -6 -6z"/>
<path d="M763 200 c2 -8 12 -16 23 -17 13 -2 15 -1 4 4 -8 3 -19 11 -23 17 -6
7 -7 6 -4 -4z"/>
<path d="M780 205 c0 -3 2 -5 5 -5 3 0 5 2 5 5 0 3 -2 5 -5 5 -3 0 -5 -2 -5
-5z"/>
<path d="M870 205 c0 -3 2 -5 5 -5 3 0 5 2 5 5 0 3 -2 5 -5 5 -3 0 -5 -2 -5
-5z"/>
<path d="M170 195 c0 -3 2 -5 5 -5 3 0 5 2 5 5 0 3 -2 5 -5 5 -3 0 -5 -2 -5
-5z"/>
<path d="M190 196 c0 -2 7 -7 16 -10 8 -3 12 -2 9 4 -6 10 -25 14 -25 6z"/>
<path d="M463 190 c-34 -14 -28 -21 7 -9 17 6 30 13 30 15 0 6 -12 4 -37 -6z"/>
<path d="M514 191 c3 -5 16 -11 28 -14 22 -6 22 -5 4 8 -22 17 -40 20 -32 6z"/>
<path d="M810 195 c0 -3 2 -5 5 -5 3 0 5 2 5 5 0 3 -2 5 -5 5 -3 0 -5 -2 -5
-5z"/>
<path d="M830 196 c0 -2 7 -7 16 -10 8 -3 12 -2 9 4 -6 10 -25 14 -25 6z"/>
<path d="M180 170 c8 -5 22 -10 30 -10 13 0 13 1 0 10 -8 5 -22 10 -30 10 -13
0 -13 -1 0 -10z"/>
<path d="M230 175 c0 -3 2 -5 5 -5 3 0 5 2 5 5 0 3 -2 5 -5 5 -3 0 -5 -2 -5
-5z"/>
<path d="M500 170 c8 -5 10 -10 5 -10 -6 0 -11 -9 -12 -20 -1 -11 2 -20 8 -20
5 0 8 3 8 8 -4 21 3 32 19 32 14 0 15 2 2 10 -8 5 -22 10 -30 10 -13 0 -13 -1
0 -10z"/>
<path d="M820 170 c8 -5 22 -10 30 -10 13 0 13 1 0 10 -8 5 -22 10 -30 10 -13
0 -13 -1 0 -10z"/>
<path d="M870 175 c0 -3 2 -5 5 -5 3 0 5 2 5 5 0 3 -2 5 -5 5 -3 0 -5 -2 -5
-5z"/>
<path d="M140 165 c0 -3 2 -5 5 -5 3 0 5 2 5 5 0 3 -2 5 -5 5 -3 0 -5 -2 -5
-5z"/>
<path d="M449 153 c-13 -16 -12 -17 4 -4 16 13 21 21 13 21 -2 0 -10 -8 -17
-17z"/>
<path d="M780 165 c0 -3 2 -5 5 -5 3 0 5 2 5 5 0 3 -2 5 -5 5 -3 0 -5 -2 -5
-5z"/>
<path d="M64 148 c-4 -7 -3 -8 4 -4 12 7 16 16 8 16 -3 0 -8 -5 -12 -12z"/>
<path d="M157 149 c-9 -6 -15 -14 -12 -20 4 -5 0 -9 -7 -9 -10 0 -9 -3 2 -9 8
-6 19 -7 25 -4 5 3 4 0 -2 -8 -7 -7 -13 -25 -13 -40 0 -19 -5 -27 -16 -25 -19
3 -35 26 -27 40 4 5 1 6 -6 2 -15 -10 9 -51 30 -51 8 -1 13 -6 11 -13 -3 -17
13 -15 29 4 18 21 19 53 2 47 -9 -4 -11 0 -7 11 3 9 9 14 13 12 3 -2 7 13 8
35 3 41 -1 45 -30 28z m16 -14 c-3 -9 -8 -14 -10 -11 -3 3 -2 9 2 15 9 16 15
13 8 -4z m4 -102 c-4 -3 -10 -3 -14 0 -3 4 0 7 7 7 7 0 10 -3 7 -7z"/>
<path d="M384 148 c-4 -7 -3 -8 4 -4 7 4 12 9 12 12 0 8 -9 4 -16 -8z"/>
<path d="M704 148 c-4 -7 -3 -8 4 -4 7 4 12 9 12 12 0 8 -9 4 -16 -8z"/>
<path d="M797 149 c-9 -6 -15 -14 -12 -20 4 -5 0 -9 -7 -9 -10 0 -9 -3 2 -9 8
-6 19 -7 25 -4 5 3 4 0 -2 -8 -7 -7 -13 -25 -13 -40 0 -19 -5 -27 -16 -25 -19
3 -35 26 -27 40 4 5 1 6 -6 2 -15 -10 9 -51 30 -51 8 -1 13 -6 12 -13 -4 -17
12 -15 28 4 18 21 19 53 2 47 -9 -4 -11 0 -7 11 3 9 9 14 13 12 3 -2 7 13 8
35 3 41 -1 45 -30 28z m16 -14 c-3 -9 -8 -14 -10 -11 -3 3 -2 9 2 15 9 16 15
13 8 -4z m4 -102 c-4 -3 -10 -3 -14 0 -3 4 0 7 7 7 7 0 10 -3 7 -7z"/>
<path d="M120 145 c0 -3 2 -5 5 -5 3 0 5 2 5 5 0 3 -2 5 -5 5 -3 0 -5 -2 -5
-5z"/>
<path d="M200 145 c0 -3 2 -5 5 -5 3 0 5 2 5 5 0 3 -2 5 -5 5 -3 0 -5 -2 -5
-5z"/>
<path d="M240 145 c0 -3 2 -5 5 -5 3 0 5 2 5 5 0 3 -2 5 -5 5 -3 0 -5 -2 -5
-5z"/>
<path d="M546 138 c3 -5 10 -6 15 -3 13 9 11 12 -6 12 -8 0 -12 -4 -9 -9z"/>
<path d="M760 145 c0 -3 2 -5 5 -5 3 0 5 2 5 5 0 3 -2 5 -5 5 -3 0 -5 -2 -5
-5z"/>
<path d="M840 145 c0 -3 2 -5 5 -5 3 0 5 2 5 5 0 3 -2 5 -5 5 -3 0 -5 -2 -5
-5z"/>
<path d="M880 145 c0 -3 2 -5 5 -5 3 0 5 2 5 5 0 3 -2 5 -5 5 -3 0 -5 -2 -5
-5z"/>
<path d="M97 129 c7 -7 15 -10 18 -7 3 3 -2 9 -12 12 -14 6 -15 5 -6 -5z"/>
<path d="M470 135 c0 -3 2 -5 5 -5 3 0 5 2 5 5 0 3 -2 5 -5 5 -3 0 -5 -2 -5
-5z"/>
<path d="M737 129 c7 -7 15 -10 18 -7 3 3 -2 9 -12 12 -14 6 -15 5 -6 -5z"/>
<path d="M213 123 c4 -6 2 -13 -5 -15 -8 -3 -6 -6 4 -10 17 -7 19 15 3 29 -4
4 -5 3 -2 -4z"/>
<path d="M430 125 c0 -3 2 -5 5 -5 3 0 5 2 5 5 0 3 -2 5 -5 5 -3 0 -5 -2 -5
-5z"/>
<path d="M521 127 c2 -1 13 -9 24 -17 19 -14 19 -14 6 3 -7 9 -18 17 -24 17
-6 0 -8 -1 -6 -3z"/>
<path d="M853 123 c4 -6 2 -13 -5 -15 -8 -3 -6 -6 4 -10 17 -7 19 15 3 29 -4
4 -5 3 -2 -4z"/>
<path d="M458 113 c15 -6 16 -33 1 -33 -5 0 -7 5 -3 12 5 7 3 8 -6 3 -10 -6
-9 -11 4 -21 24 -17 11 -38 -14 -22 -10 7 -17 15 -14 19 2 4 0 10 -5 14 -13 8
-5 -33 10 -51 9 -11 15 -11 25 -3 11 9 14 7 14 -10 0 -21 1 -21 17 -5 22 22
30 62 9 45 -12 -10 -14 -9 -11 6 1 10 8 17 14 15 9 -2 9 3 1 18 -6 11 -20 20
-33 19 -12 0 -16 -3 -9 -6z m-13 -73 c3 -5 4 -10 1 -10 -3 0 -8 5 -11 10 -3 6
-4 10 -1 10 3 0 8 -4 11 -10z m55 -5 c0 -3 -2 -5 -5 -5 -3 0 -5 2 -5 5 0 3 2
5 5 5 3 0 5 -2 5 -5z"/>
<path d="M129 98 c-6 -21 -5 -37 2 -32 5 3 7 9 4 14 -3 4 1 11 7 13 10 4 10 6
1 6 -7 1 -13 0 -14 -1z"/>
<path d="M245 90 c3 -5 8 -10 11 -10 3 0 2 5 -1 10 -3 6 -8 10 -11 10 -3 0 -2
-4 1 -10z"/>
<path d="M769 98 c-6 -21 -5 -37 2 -32 5 3 7 9 4 14 -3 4 1 11 7 13 10 4 10 6
1 6 -7 1 -13 0 -14 -1z"/>
<path d="M885 90 c3 -5 8 -10 11 -10 3 0 2 5 -1 10 -3 6 -8 10 -11 10 -3 0 -2
-4 1 -10z"/>
<path d="M200 81 c0 -6 4 -13 10 -16 6 -3 7 1 4 9 -7 18 -14 21 -14 7z"/>
<path d="M520 85 c0 -3 2 -5 5 -5 3 0 5 2 5 5 0 3 -2 5 -5 5 -3 0 -5 -2 -5 -5z"/>
<path d="M543 83 c4 -6 3 -13 -3 -15 -6 -2 0 -9 12 -17 22 -13 22 -13 8 4 -8
10 -13 20 -12 22 2 3 0 8 -4 11 -4 4 -4 2 -1 -5z"/>
<path d="M570 85 c0 -3 2 -5 5 -5 3 0 5 2 5 5 0 3 -2 5 -5 5 -3 0 -5 -2 -5 -5z"/>
<path d="M840 81 c0 -6 4 -13 10 -16 6 -3 7 1 4 9 -7 18 -14 21 -14 7z"/>
<path d="M230 75 c0 -3 2 -5 5 -5 3 0 5 2 5 5 0 3 -2 5 -5 5 -3 0 -5 -2 -5 -5z"/>
<path d="M870 75 c0 -3 2 -5 5 -5 3 0 5 2 5 5 0 3 -2 5 -5 5 -3 0 -5 -2 -5 -5z"/>
<path d="M250 65 c0 -3 2 -5 5 -5 3 0 5 2 5 5 0 3 -2 5 -5 5 -3 0 -5 -2 -5 -5z"/>
<path d="M570 65 c0 -3 2 -5 5 -5 3 0 5 2 5 5 0 3 -2 5 -5 5 -3 0 -5 -2 -5 -5z"/>
<path d="M890 65 c0 -3 2 -5 5 -5 3 0 5 2 5 5 0 3 -2 5 -5 5 -3 0 -5 -2 -5 -5z"/>
<path d="M35 51 c3 -5 -1 -11 -7 -14 -7 -3 -3 -4 10 -4 25 1 29 12 6 21 -8 3
-13 2 -9 -3z"/>
<path d="M233 53 c4 -6 -2 -19 -13 -31 -19 -20 -19 -21 0 -19 10 1 16 5 14 9
-3 4 0 8 6 8 6 0 8 5 4 12 -5 8 -2 9 9 5 24 -9 21 0 -4 14 -12 6 -19 7 -16 2z"/>
<path d="M359 46 c12 -14 12 -19 2 -25 -9 -6 -7 -10 9 -14 16 -4 20 -2 16 9
-3 8 -1 14 4 14 6 0 10 -4 10 -10 0 -5 5 -10 11 -10 17 0 0 19 -34 37 -30 15
-31 15 -18 -1z"/>
<path d="M675 51 c3 -5 -1 -11 -7 -14 -7 -3 -3 -4 10 -4 25 1 29 12 6 21 -8 3
-13 2 -9 -3z"/>
<path d="M873 53 c4 -6 -2 -19 -13 -31 -19 -20 -19 -21 0 -19 10 1 16 5 14 9
-3 4 0 8 6 8 6 0 8 5 4 12 -5 8 -2 9 9 5 24 -9 21 0 -4 14 -12 6 -19 7 -16 2z"/>
<path d="M210 45 c0 -3 2 -5 5 -5 3 0 5 2 5 5 0 3 -2 5 -5 5 -3 0 -5 -2 -5 -5z"/>
<path d="M530 45 c0 -3 2 -5 5 -5 3 0 5 2 5 5 0 3 -2 5 -5 5 -3 0 -5 -2 -5 -5z"/>
<path d="M850 45 c0 -3 2 -5 5 -5 3 0 5 2 5 5 0 3 -2 5 -5 5 -3 0 -5 -2 -5 -5z"/>
<path d="M70 36 c0 -2 8 -10 18 -17 15 -13 16 -12 3 4 -13 16 -21 21 -21 13z"/>
<path d="M340 35 c0 -3 2 -5 5 -5 3 0 5 2 5 5 0 3 -2 5 -5 5 -3 0 -5 -2 -5 -5z"/>
<path d="M580 35 c0 -3 2 -5 5 -5 3 0 5 2 5 5 0 3 -2 5 -5 5 -3 0 -5 -2 -5 -5z"/>
<path d="M710 36 c0 -2 8 -10 18 -17 15 -13 16 -12 3 4 -13 16 -21 21 -21 13z"/>
<path d="M200 25 c0 -3 2 -5 5 -5 3 0 5 2 5 5 0 3 -2 5 -5 5 -3 0 -5 -2 -5 -5z"/>
<path d="M520 25 c0 -3 2 -5 5 -5 3 0 5 2 5 5 0 3 -2 5 -5 5 -3 0 -5 -2 -5 -5z"/>
<path d="M540 25 c0 -3 2 -5 5 -5 3 0 5 2 5 5 0 3 -2 5 -5 5 -3 0 -5 -2 -5 -5z"/>
<path d="M560 25 c0 -3 2 -5 5 -5 3 0 5 2 5 5 0 3 -2 5 -5 5 -3 0 -5 -2 -5 -5z"/>
<path d="M840 25 c0 -3 2 -5 5 -5 3 0 5 2 5 5 0 3 -2 5 -5 5 -3 0 -5 -2 -5 -5z"/>
<path d="M38 13 c6 -2 18 -2 25 0 6 3 1 5 -13 5 -14 0 -19 -2 -12 -5z"/>
<path d="M265 10 c3 -5 8 -10 11 -10 3 0 2 5 -1 10 -3 6 -8 10 -11 10 -3 0 -2
-4 1 -10z"/>
<path d="M585 10 c3 -5 8 -10 11 -10 3 0 2 5 -1 10 -3 6 -8 10 -11 10 -3 0 -2
-4 1 -10z"/>
<path d="M678 13 c6 -2 18 -2 25 0 6 3 1 5 -13 5 -14 0 -19 -2 -12 -5z"/>
<path d="M905 10 c3 -5 8 -10 11 -10 3 0 2 5 -1 10 -3 6 -8 10 -11 10 -3 0 -2
-4 1 -10z"/>
<path d="M180 5 c0 -3 2 -5 5 -5 3 0 5 2 5 5 0 3 -2 5 -5 5 -3 0 -5 -2 -5 -5z"/>
<path d="M508 3 c6 -2 18 -2 25 0 6 3 1 5 -13 5 -14 0 -19 -2 -12 -5z"/>
<path d="M560 5 c0 -3 2 -5 5 -5 3 0 5 2 5 5 0 3 -2 5 -5 5 -3 0 -5 -2 -5 -5z"/>
<path d="M820 5 c0 -3 2 -5 5 -5 3 0 5 2 5 5 0 3 -2 5 -5 5 -3 0 -5 -2 -5 -5z"/>
</g>
<g transform="translate(0.000000,96.000000) scale(0.100000,-0.100000)"
fill="#b2b2b2" stroke="none">
<path d="M64 878 c-4 -7 -3 -8 5 -4 6 4 20 2 29 -6 15 -12 16 -11 3 5 -16 20
-27 22 -37 5z"/>
<path d="M235 880 c-3 -6 1 -7 9 -4 18 7 21 14 7 14 -6 0 -13 -4 -16 -10z"/>
<path d="M384 878 c-4 -7 -3 -8 5 -4 6 4 20 2 29 -6 15 -12 16 -11 3 5 -16 20
-27 22 -37 5z"/>
<path d="M544 868 l-19 -23 22 19 c20 16 25 17 40 5 16 -13 17 -12 4 4 -18 22
-24 22 -47 -5z"/>
<path d="M710 885 c0 -3 2 -5 5 -5 3 0 5 2 5 5 0 3 -2 5 -5 5 -3 0 -5 -2 -5
-5z"/>
<path d="M875 880 c-3 -6 1 -7 9 -4 18 7 21 14 7 14 -6 0 -13 -4 -16 -10z"/>
<path d="M735 870 c3 -5 8 -10 11 -10 3 0 2 5 -1 10 -3 6 -8 10 -11 10 -3 0
-2 -4 1 -10z"/>
<path d="M270 865 c0 -3 2 -5 5 -5 3 0 5 2 5 5 0 3 -2 5 -5 5 -3 0 -5 -2 -5
-5z"/>
<path d="M910 865 c0 -3 2 -5 5 -5 3 0 5 2 5 5 0 3 -2 5 -5 5 -3 0 -5 -2 -5
-5z"/>
<path d="M210 855 c0 -3 2 -5 5 -5 3 0 5 2 5 5 0 3 -2 5 -5 5 -3 0 -5 -2 -5
-5z"/>
<path d="M837 825 c-24 -50 -20 -58 4 -12 11 22 19 41 17 43 -3 2 -12 -12 -21
-31z"/>
<path d="M120 841 c0 -6 4 -13 10 -16 6 -3 7 1 4 9 -7 18 -14 21 -14 7z"/>
<path d="M440 841 c0 -6 4 -13 10 -16 6 -3 7 1 4 9 -7 18 -14 21 -14 7z"/>
<path d="M760 845 c0 -3 2 -5 5 -5 3 0 5 2 5 5 0 3 -2 5 -5 5 -3 0 -5 -2 -5
-5z"/>
<path d="M200 835 c0 -3 2 -5 5 -5 3 0 5 2 5 5 0 3 -2 5 -5 5 -3 0 -5 -2 -5
-5z"/>
<path d="M520 835 c0 -3 2 -5 5 -5 3 0 5 2 5 5 0 3 -2 5 -5 5 -3 0 -5 -2 -5
-5z"/>
<path d="M770 825 c0 -3 2 -5 5 -5 3 0 5 2 5 5 0 3 -2 5 -5 5 -3 0 -5 -2 -5
-5z"/>
<path d="M182 791 c-6 -17 -16 -31 -21 -31 -7 0 -11 -25 -11 -62 0 -62 12 -75
15 -15 1 17 4 39 8 47 15 42 27 84 23 87 -2 2 -8 -10 -14 -26z m-12 -46 c0 -3
-2 -5 -5 -5 -3 0 -5 2 -5 5 0 3 2 5 5 5 3 0 5 -2 5 -5z"/>
<path d="M500 788 c-11 -30 -13 -31 -20 -13 -8 17 -9 16 -9 -8 -1 -20 3 -26
12 -21 10 6 10 4 0 -7 -7 -7 -13 -33 -13 -58 0 -49 14 -48 16 2 1 18 9 54 18
82 17 56 15 74 -4 23z"/>
<path d="M140 805 c0 -3 2 -5 5 -5 3 0 5 2 5 5 0 3 -2 5 -5 5 -3 0 -5 -2 -5
-5z"/>
<path d="M460 805 c0 -3 2 -5 5 -5 3 0 5 2 5 5 0 3 -2 5 -5 5 -3 0 -5 -2 -5
-5z"/>
<path d="M780 805 c0 -3 2 -5 5 -5 3 0 5 2 5 5 0 3 -2 5 -5 5 -3 0 -5 -2 -5
-5z"/>
<path d="M150 780 c0 -7 3 -10 7 -7 3 4 3 10 0 14 -4 3 -7 0 -7 -7z"/>
<path d="M790 775 c0 -3 2 -5 5 -5 3 0 5 2 5 5 0 3 -2 5 -5 5 -3 0 -5 -2 -5
-5z"/>
<path d="M803 763 c-9 -3 -13 -26 -13 -66 1 -46 3 -58 11 -45 5 9 7 29 5 42
-3 14 -1 28 4 31 5 3 8 14 7 25 -1 11 -1 20 -2 19 0 0 -6 -3 -12 -6z"/>
<path d="M50 670 c6 -11 13 -20 16 -20 2 0 0 9 -6 20 -6 11 -13 20 -16 20 -2
0 0 -9 6 -20z"/>
<path d="M240 686 c0 -2 7 -7 16 -10 8 -3 12 -2 9 4 -6 10 -25 14 -25 6z"/>
<path d="M365 680 c3 -5 8 -10 11 -10 3 0 2 5 -1 10 -3 6 -8 10 -11 10 -3 0
-2 -4 1 -10z"/>
<path d="M553 678 c-20 -26 -24 -42 -5 -19 12 15 24 21 32 16 9 -5 11 -4 6 3
-9 15 -21 15 -33 0z"/>
<path d="M691 670 c14 -31 19 -36 19 -24 0 6 -7 19 -16 30 -14 18 -14 18 -3
-6z"/>
<path d="M880 686 c0 -2 7 -7 16 -10 8 -3 12 -2 9 4 -6 10 -25 14 -25 6z"/>
<path d="M216 653 c-6 -14 -5 -15 5 -6 7 7 10 15 7 18 -3 3 -9 -2 -12 -12z"/>
<path d="M860 665 c0 -3 2 -5 5 -5 3 0 5 2 5 5 0 3 -2 5 -5 5 -3 0 -5 -2 -5
-5z"/>
<path d="M380 655 c0 -3 2 -5 5 -5 3 0 5 2 5 5 0 3 -2 5 -5 5 -3 0 -5 -2 -5
-5z"/>
<path d="M850 645 c0 -3 2 -5 5 -5 3 0 5 2 5 5 0 3 -2 5 -5 5 -3 0 -5 -2 -5
-5z"/>
<path d="M64 558 c-4 -7 -3 -8 5 -4 6 4 20 2 29 -6 15 -12 16 -11 3 5 -16 20
-27 22 -37 5z"/>
<path d="M235 560 c-3 -6 1 -7 9 -4 18 7 21 14 7 14 -6 0 -13 -4 -16 -10z"/>
<path d="M384 558 c-4 -7 -3 -8 5 -4 6 4 20 2 29 -6 15 -12 16 -11 3 5 -16 20
-27 22 -37 5z"/>
<path d="M544 548 l-19 -23 22 19 c20 16 25 17 40 5 16 -13 17 -12 4 4 -18 22
-24 22 -47 -5z"/>
<path d="M710 565 c0 -3 2 -5 5 -5 3 0 5 2 5 5 0 3 -2 5 -5 5 -3 0 -5 -2 -5
-5z"/>
<path d="M875 560 c-3 -6 1 -7 9 -4 18 7 21 14 7 14 -6 0 -13 -4 -16 -10z"/>
<path d="M735 550 c3 -5 8 -10 11 -10 3 0 2 5 -1 10 -3 6 -8 10 -11 10 -3 0
-2 -4 1 -10z"/>
<path d="M270 540 c0 -7 3 -10 7 -7 3 4 3 10 0 14 -4 3 -7 0 -7 -7z"/>
<path d="M910 545 c0 -3 2 -5 5 -5 3 0 5 2 5 5 0 3 -2 5 -5 5 -3 0 -5 -2 -5
-5z"/>
<path d="M201 513 c-10 -26 -10 -27 4 -9 8 11 15 23 15 28 0 15 -7 8 -19 -19z"/>
<path d="M837 505 c-24 -50 -20 -58 4 -12 11 22 19 41 17 43 -3 2 -12 -12 -21
-31z"/>
<path d="M120 525 c0 -3 2 -5 5 -5 3 0 5 2 5 5 0 3 -2 5 -5 5 -3 0 -5 -2 -5
-5z"/>
<path d="M440 521 c0 -6 4 -13 10 -16 6 -3 7 1 4 9 -7 18 -14 21 -14 7z"/>
<path d="M760 525 c0 -3 2 -5 5 -5 3 0 5 2 5 5 0 3 -2 5 -5 5 -3 0 -5 -2 -5
-5z"/>
<path d="M520 515 c0 -3 2 -5 5 -5 3 0 5 2 5 5 0 3 -2 5 -5 5 -3 0 -5 -2 -5
-5z"/>
<path d="M130 501 c0 -6 4 -13 10 -16 6 -3 7 1 4 9 -7 18 -14 21 -14 7z"/>
<path d="M770 505 c0 -3 2 -5 5 -5 3 0 5 2 5 5 0 3 -2 5 -5 5 -3 0 -5 -2 -5
-5z"/>
<path d="M500 468 c-11 -30 -13 -31 -20 -13 -8 17 -9 16 -9 -8 -1 -20 3 -26
12 -21 10 6 10 4 0 -7 -7 -7 -13 -33 -13 -58 0 -49 14 -48 16 2 1 18 9 54 18
82 17 56 15 74 -4 23z"/>
<path d="M460 485 c0 -3 2 -5 5 -5 3 0 5 2 5 5 0 3 -2 5 -5 5 -3 0 -5 -2 -5
-5z"/>
<path d="M780 485 c0 -3 2 -5 5 -5 3 0 5 2 5 5 0 3 -2 5 -5 5 -3 0 -5 -2 -5
-5z"/>
<path d="M180 470 c0 -7 3 -10 7 -7 3 4 3 10 0 14 -4 3 -7 0 -7 -7z"/>
<path d="M151 391 c-1 -74 13 -93 15 -23 1 20 4 47 7 60 3 12 2 20 -3 17 -4
-3 -11 1 -13 7 -3 7 -6 -20 -6 -61z"/>
<path d="M790 455 c0 -3 2 -5 5 -5 3 0 5 2 5 5 0 3 -2 5 -5 5 -3 0 -5 -2 -5
-5z"/>
<path d="M803 443 c-9 -3 -13 -26 -13 -66 1 -46 3 -58 11 -45 5 9 7 29 5 42
-3 14 -1 28 4 31 5 3 8 14 7 25 -1 11 -1 20 -2 19 0 0 -6 -3 -12 -6z"/>
<path d="M50 350 c6 -11 13 -20 16 -20 2 0 0 9 -6 20 -6 11 -13 20 -16 20 -2
0 0 -9 6 -20z"/>
<path d="M240 365 c0 -3 2 -5 5 -5 3 0 5 2 5 5 0 3 -2 5 -5 5 -3 0 -5 -2 -5
-5z"/>
<path d="M365 360 c3 -5 8 -10 11 -10 3 0 2 5 -1 10 -3 6 -8 10 -11 10 -3 0
-2 -4 1 -10z"/>
<path d="M553 358 c-20 -26 -24 -42 -5 -19 12 15 24 21 32 16 9 -5 11 -4 6 3
-9 15 -21 15 -33 0z"/>
<path d="M691 350 c14 -31 19 -36 19 -24 0 6 -7 19 -16 30 -14 18 -14 18 -3
-6z"/>
<path d="M880 365 c0 -3 2 -5 5 -5 3 0 5 2 5 5 0 3 -2 5 -5 5 -3 0 -5 -2 -5
-5z"/>
<path d="M260 355 c0 -3 2 -5 5 -5 3 0 5 2 5 5 0 3 -2 5 -5 5 -3 0 -5 -2 -5
-5z"/>
<path d="M900 355 c0 -3 2 -5 5 -5 3 0 5 2 5 5 0 3 -2 5 -5 5 -3 0 -5 -2 -5
-5z"/>
<path d="M216 333 c-6 -14 -5 -15 5 -6 7 7 10 15 7 18 -3 3 -9 -2 -12 -12z"/>
<path d="M860 345 c0 -3 2 -5 5 -5 3 0 5 2 5 5 0 3 -2 5 -5 5 -3 0 -5 -2 -5
-5z"/>
<path d="M380 335 c0 -3 2 -5 5 -5 3 0 5 2 5 5 0 3 -2 5 -5 5 -3 0 -5 -2 -5
-5z"/>
<path d="M850 325 c0 -3 2 -5 5 -5 3 0 5 2 5 5 0 3 -2 5 -5 5 -3 0 -5 -2 -5
-5z"/>
<path d="M64 238 c-4 -7 -3 -8 5 -4 6 4 20 2 29 -6 15 -12 16 -11 3 5 -16 20
-27 22 -37 5z"/>
<path d="M224 228 l-19 -23 22 19 c20 16 25 17 40 5 16 -13 17 -12 4 4 -18 22
-24 22 -47 -5z"/>
<path d="M390 245 c0 -3 2 -5 5 -5 3 0 5 2 5 5 0 3 -2 5 -5 5 -3 0 -5 -2 -5
-5z"/>
<path d="M555 240 c-3 -6 1 -7 9 -4 18 7 21 14 7 14 -6 0 -13 -4 -16 -10z"/>
<path d="M704 238 c-4 -7 -3 -8 5 -4 6 4 20 2 29 -6 15 -12 16 -11 3 5 -16 20
-27 22 -37 5z"/>
<path d="M864 228 l-19 -23 22 19 c20 16 25 17 40 5 16 -13 17 -12 4 4 -18 22
-24 22 -47 -5z"/>
<path d="M415 230 c3 -5 8 -10 11 -10 3 0 2 5 -1 10 -3 6 -8 10 -11 10 -3 0
-2 -4 1 -10z"/>
<path d="M590 225 c0 -3 2 -5 5 -5 3 0 5 2 5 5 0 3 -2 5 -5 5 -3 0 -5 -2 -5
-5z"/>
<path d="M517 185 c-24 -50 -20 -58 4 -12 11 22 19 41 17 43 -3 2 -12 -12 -21
-31z"/>
<path d="M120 201 c0 -6 4 -13 10 -16 6 -3 7 1 4 9 -7 18 -14 21 -14 7z"/>
<path d="M440 205 c0 -3 2 -5 5 -5 3 0 5 2 5 5 0 3 -2 5 -5 5 -3 0 -5 -2 -5
-5z"/>
<path d="M760 201 c0 -6 4 -13 10 -16 6 -3 7 1 4 9 -7 18 -14 21 -14 7z"/>
<path d="M200 195 c0 -3 2 -5 5 -5 3 0 5 2 5 5 0 3 -2 5 -5 5 -3 0 -5 -2 -5
-5z"/>
<path d="M840 195 c0 -3 2 -5 5 -5 3 0 5 2 5 5 0 3 -2 5 -5 5 -3 0 -5 -2 -5
-5z"/>
<path d="M450 185 c0 -3 2 -5 5 -5 3 0 5 2 5 5 0 3 -2 5 -5 5 -3 0 -5 -2 -5
-5z"/>
<path d="M180 148 c-11 -30 -13 -31 -20 -13 -8 17 -9 16 -9 -8 -1 -20 3 -26
12 -21 10 6 10 4 0 -7 -7 -7 -13 -33 -13 -58 0 -49 14 -48 16 2 1 18 9 54 18
82 17 56 15 74 -4 23z"/>
<path d="M820 148 c-11 -30 -13 -31 -20 -13 -8 17 -9 16 -9 -8 -1 -20 3 -26
12 -21 10 6 10 4 0 -7 -7 -7 -13 -33 -13 -58 0 -49 14 -48 16 2 1 18 9 54 18
82 17 56 15 74 -4 23z"/>
<path d="M140 165 c0 -3 2 -5 5 -5 3 0 5 2 5 5 0 3 -2 5 -5 5 -3 0 -5 -2 -5
-5z"/>
<path d="M460 165 c0 -3 2 -5 5 -5 3 0 5 2 5 5 0 3 -2 5 -5 5 -3 0 -5 -2 -5
-5z"/>
<path d="M780 165 c0 -3 2 -5 5 -5 3 0 5 2 5 5 0 3 -2 5 -5 5 -3 0 -5 -2 -5
-5z"/>
<path d="M470 135 c0 -3 2 -5 5 -5 3 0 5 2 5 5 0 3 -2 5 -5 5 -3 0 -5 -2 -5
-5z"/>
<path d="M483 123 c-9 -3 -13 -26 -13 -66 1 -46 3 -58 11 -45 5 9 7 29 5 42
-3 14 -1 28 4 31 5 3 8 14 7 25 -1 11 -1 20 -2 19 0 0 -6 -3 -12 -6z"/>
<path d="M45 40 c3 -5 8 -10 11 -10 3 0 2 5 -1 10 -3 6 -8 10 -11 10 -3 0 -2
-4 1 -10z"/>
<path d="M233 38 c-20 -26 -24 -42 -5 -19 12 15 24 21 32 16 9 -5 11 -4 6 3
-9 15 -21 15 -33 0z"/>
<path d="M371 30 c14 -31 19 -36 19 -24 0 6 -7 19 -16 30 -14 18 -14 18 -3 -6z"/>
<path d="M560 45 c0 -3 2 -5 5 -5 3 0 5 2 5 5 0 3 -2 5 -5 5 -3 0 -5 -2 -5 -5z"/>
<path d="M685 40 c3 -5 8 -10 11 -10 3 0 2 5 -1 10 -3 6 -8 10 -11 10 -3 0 -2
-4 1 -10z"/>
<path d="M873 38 c-20 -26 -24 -42 -5 -19 12 15 24 21 32 16 9 -5 11 -4 6 3
-9 15 -21 15 -33 0z"/>
<path d="M580 35 c0 -3 2 -5 5 -5 3 0 5 2 5 5 0 3 -2 5 -5 5 -3 0 -5 -2 -5 -5z"/>
<path d="M540 25 c0 -3 2 -5 5 -5 3 0 5 2 5 5 0 3 -2 5 -5 5 -3 0 -5 -2 -5 -5z"/>
<path d="M60 15 c0 -3 2 -5 5 -5 3 0 5 2 5 5 0 3 -2 5 -5 5 -3 0 -5 -2 -5 -5z"/>
<path d="M700 15 c0 -3 2 -5 5 -5 3 0 5 2 5 5 0 3 -2 5 -5 5 -3 0 -5 -2 -5 -5z"/>
<path d="M530 5 c0 -3 2 -5 5 -5 3 0 5 2 5 5 0 3 -2 5 -5 5 -3 0 -5 -2 -5 -5z"/>
</g>
  </g>
</svg>
