<?xml version="1.0" encoding="UTF-8" standalone="no"?>
<!-- Created with Inkscape (http://www.inkscape.org/) -->

<svg
   xmlns:dc="http://purl.org/dc/elements/1.1/"
   xmlns:cc="http://creativecommons.org/ns#"
   xmlns:rdf="http://www.w3.org/1999/02/22-rdf-syntax-ns#"
   xmlns:svg="http://www.w3.org/2000/svg"
   xmlns="http://www.w3.org/2000/svg"
   xmlns:sodipodi="http://sodipodi.sourceforge.net/DTD/sodipodi-0.dtd"
   xmlns:inkscape="http://www.inkscape.org/namespaces/inkscape"
   width="32px"
   height="32px"
   viewBox="0 0 32px 32px"
   version="1.1"
   id="svgMain"
   inkscape:version="0.92.2 (5c3e80d, 2017-08-06)"
   sodipodi:docname="reference_SVG.svg">
  <defs
     id="defs4542" />
  <sodipodi:namedview
     id="base"
     pagecolor="#ffffff"
     bordercolor="#666666"
     borderopacity="1.0"
     inkscape:pageopacity="0.0"
     inkscape:pageshadow="2"
     inkscape:zoom="1"
     inkscape:cx="0"
     inkscape:cy="0"
     inkscape:document-units="px"
     inkscape:current-layer="layer1"
     showgrid="false"
     units="px"
     inkscape:window-width="1024"
     inkscape:window-height="768"
     inkscape:window-x="-8"
     inkscape:window-y="-8"
     inkscape:window-maximized="1" />
  <metadata
     id="metadata1">
    <rdf:RDF>
      <cc:Work
         rdf:about="">
        <dc:format>image/svg+xml</dc:format>
        <dc:type
           rdf:resource="http://purl.org/dc/dcmitype/StillImage" />
        <dc:title />
      </cc:Work>
    </rdf:RDF>
  </metadata>
  <g transform="translate(-32,-32)"
     inkscape:label="Layer 1"
     inkscape:groupmode="layer"
     id="layer1">
    <!-- INSERT MARKER -->
<g transform="translate(0.000000,96.000000) scale(0.100000,-0.100000)"
fill="#707070" stroke="none">
<path d="M20 943 c0 -9 8 -25 17 -35 16 -18 16 -19 -5 -25 -24 -6 -27 -14 -11
-30 16 -16 40 -132 32 -161 l-6 -26 27 18 c40 26 78 15 74 -22 -3 -27 -4 -27
-65 -24 -55 3 -63 2 -63 -14 0 -9 8 -26 17 -36 16 -18 16 -19 -5 -25 -24 -6
-27 -14 -11 -30 16 -16 40 -132 32 -161 l-6 -26 27 18 c40 26 78 15 74 -22 -3
-27 -4 -27 -65 -24 -55 3 -63 2 -63 -14 0 -9 8 -26 17 -36 16 -18 16 -19 -5
-25 -24 -6 -27 -14 -11 -30 16 -16 40 -132 32 -161 l-6 -26 27 18 c38 24 76
15 76 -19 0 -14 5 -25 10 -25 6 0 10 11 10 25 0 30 39 43 76 26 20 -9 24 -8
24 4 0 9 -6 25 -12 36 -11 18 -10 23 11 40 20 16 22 22 11 29 -11 7 -11 11 -1
24 9 11 10 16 2 16 -19 0 -12 39 9 52 24 15 26 28 4 28 -11 0 -15 6 -11 20 5
18 0 20 -54 20 -56 0 -59 1 -59 25 0 30 39 43 76 26 20 -9 24 -8 24 4 0 9 -6
25 -12 36 -11 18 -10 23 11 40 20 16 22 22 11 29 -11 7 -11 11 -1 24 9 11 10
16 2 16 -19 0 -12 39 9 52 24 15 26 28 4 28 -11 0 -15 6 -11 20 5 18 0 20 -54
20 -56 0 -59 1 -59 25 0 30 39 43 76 26 20 -9 24 -8 24 4 0 9 -6 25 -12 36
-11 18 -10 23 11 40 20 16 22 22 11 29 -11 7 -11 11 -1 24 9 11 10 16 2 16
-19 0 -12 39 9 52 24 15 26 28 4 28 -11 0 -15 6 -11 20 5 19 0 19 -129 19
-116 0 -134 -3 -134 -16z m250 -48 c-7 -9 -15 -13 -19 -10 -3 3 1 10 9 15 21
14 24 12 10 -5z m-20 -49 c0 -3 -5 -8 -12 -12 -7 -4 -8 -3 -4 4 7 12 16 16 16
8z m-175 -46 c3 -6 -1 -7 -9 -4 -18 7 -21 14 -7 14 6 0 13 -4 16 -10z m195
-225 c-7 -9 -15 -13 -19 -10 -3 3 1 10 9 15 21 14 24 12 10 -5z m-20 -49 c0
-3 -5 -8 -12 -12 -7 -4 -8 -3 -4 4 7 12 16 16 16 8z m-175 -46 c3 -6 -1 -7 -9
-4 -18 7 -21 14 -7 14 6 0 13 -4 16 -10z m195 -225 c-7 -9 -15 -13 -19 -10 -3
3 1 10 9 15 21 14 24 12 10 -5z m-20 -49 c0 -3 -5 -8 -12 -12 -7 -4 -8 -3 -4
4 7 12 16 16 16 8z m-175 -46 c3 -6 -1 -7 -9 -4 -18 7 -21 14 -7 14 6 0 13 -4
16 -10z"/>
<path d="M340 943 c0 -9 8 -25 17 -35 16 -18 16 -19 -5 -25 -24 -6 -27 -14
-11 -30 16 -16 40 -132 32 -161 l-6 -26 27 18 c40 26 78 15 74 -22 -3 -27 -4
-27 -65 -24 -55 3 -63 2 -63 -14 0 -9 8 -26 17 -36 16 -18 16 -19 -5 -25 -24
-6 -27 -14 -11 -30 16 -16 40 -132 32 -161 l-6 -26 27 18 c40 26 78 15 74 -22
-3 -27 -4 -27 -65 -24 -55 3 -63 2 -63 -14 0 -9 8 -26 17 -36 16 -18 16 -19
-5 -25 -24 -6 -27 -14 -11 -30 16 -16 40 -132 32 -161 l-6 -26 27 18 c38 24
76 15 76 -19 0 -14 5 -25 10 -25 6 0 10 11 10 25 0 30 39 43 76 26 20 -9 24
-8 24 4 0 9 -6 25 -12 36 -11 18 -10 23 11 40 20 16 22 22 11 29 -11 7 -11 11
-1 24 9 11 10 16 2 16 -19 0 -12 39 9 52 24 15 26 28 4 28 -11 0 -15 6 -11 20
5 18 0 20 -54 20 -56 0 -59 1 -59 25 0 30 39 43 76 26 20 -9 24 -8 24 4 0 9
-6 25 -12 36 -11 18 -10 23 11 40 20 16 22 22 11 29 -11 7 -11 11 -1 24 9 11
10 16 2 16 -19 0 -12 39 9 52 24 15 26 28 4 28 -11 0 -15 6 -11 20 5 18 0 20
-54 20 -56 0 -59 1 -59 25 0 30 39 43 76 26 20 -9 24 -8 24 4 0 9 -6 25 -12
36 -11 18 -10 23 11 40 20 16 22 22 11 29 -11 7 -11 11 -1 24 9 11 10 16 2 16
-19 0 -12 39 9 52 24 15 26 28 4 28 -11 0 -15 6 -11 20 5 19 0 19 -129 19
-116 0 -134 -3 -134 -16z m250 -48 c-7 -9 -15 -13 -19 -10 -3 3 1 10 9 15 21
14 24 12 10 -5z m-20 -49 c0 -3 -5 -8 -12 -12 -7 -4 -8 -3 -4 4 7 12 16 16 16
8z m-175 -46 c3 -6 -1 -7 -9 -4 -18 7 -21 14 -7 14 6 0 13 -4 16 -10z m195
-225 c-7 -9 -15 -13 -19 -10 -3 3 1 10 9 15 21 14 24 12 10 -5z m-20 -49 c0
-3 -5 -8 -12 -12 -7 -4 -8 -3 -4 4 7 12 16 16 16 8z m-175 -46 c3 -6 -1 -7 -9
-4 -18 7 -21 14 -7 14 6 0 13 -4 16 -10z m195 -225 c-7 -9 -15 -13 -19 -10 -3
3 1 10 9 15 21 14 24 12 10 -5z m-20 -49 c0 -3 -5 -8 -12 -12 -7 -4 -8 -3 -4
4 7 12 16 16 16 8z m-175 -46 c3 -6 -1 -7 -9 -4 -18 7 -21 14 -7 14 6 0 13 -4
16 -10z"/>
<path d="M660 943 c0 -9 8 -25 17 -35 16 -18 16 -19 -5 -25 -24 -6 -27 -14
-11 -30 16 -16 40 -132 32 -161 l-6 -26 27 18 c40 26 78 15 74 -22 -3 -27 -4
-27 -65 -24 -55 3 -63 2 -63 -14 0 -9 8 -26 17 -36 16 -18 16 -19 -5 -25 -24
-6 -27 -14 -11 -30 16 -16 40 -132 32 -161 l-6 -26 27 18 c40 26 78 15 74 -22
-3 -27 -4 -27 -65 -24 -55 3 -63 2 -63 -14 0 -9 8 -26 17 -36 16 -18 16 -19
-5 -25 -24 -6 -27 -14 -11 -30 16 -16 40 -132 32 -161 l-6 -26 27 18 c38 24
76 15 76 -19 0 -14 5 -25 10 -25 6 0 10 11 10 25 0 30 39 43 76 26 20 -9 24
-8 24 4 0 9 -6 25 -12 36 -11 18 -10 23 11 40 20 16 22 22 11 29 -11 7 -11 11
-1 24 9 11 10 16 2 16 -19 0 -12 39 9 52 24 15 26 28 4 28 -11 0 -15 6 -11 20
5 18 0 20 -54 20 -56 0 -59 1 -59 25 0 30 39 43 76 26 20 -9 24 -8 24 4 0 9
-6 25 -12 36 -11 18 -10 23 11 40 20 16 22 22 11 29 -11 7 -11 11 -1 24 9 11
10 16 2 16 -19 0 -12 39 9 52 24 15 26 28 4 28 -11 0 -15 6 -11 20 5 18 0 20
-54 20 -56 0 -59 1 -59 25 0 30 39 43 76 26 20 -9 24 -8 24 4 0 9 -6 25 -12
36 -11 18 -10 23 11 40 20 16 22 22 11 29 -11 7 -11 11 -1 24 9 11 10 16 2 16
-19 0 -12 39 9 52 24 15 26 28 4 28 -11 0 -15 6 -11 20 5 19 0 19 -129 19
-116 0 -134 -3 -134 -16z m250 -48 c-7 -9 -15 -13 -19 -10 -3 3 1 10 9 15 21
14 24 12 10 -5z m-20 -49 c0 -3 -5 -8 -12 -12 -7 -4 -8 -3 -4 4 7 12 16 16 16
8z m-175 -46 c3 -6 -1 -7 -9 -4 -18 7 -21 14 -7 14 6 0 13 -4 16 -10z m195
-225 c-7 -9 -15 -13 -19 -10 -3 3 1 10 9 15 21 14 24 12 10 -5z m-20 -49 c0
-3 -5 -8 -12 -12 -7 -4 -8 -3 -4 4 7 12 16 16 16 8z m-175 -46 c3 -6 -1 -7 -9
-4 -18 7 -21 14 -7 14 6 0 13 -4 16 -10z m195 -225 c-7 -9 -15 -13 -19 -10 -3
3 1 10 9 15 21 14 24 12 10 -5z m-20 -49 c0 -3 -5 -8 -12 -12 -7 -4 -8 -3 -4
4 7 12 16 16 16 8z m-175 -46 c3 -6 -1 -7 -9 -4 -18 7 -21 14 -7 14 6 0 13 -4
16 -10z"/>
</g>
<g transform="translate(0.000000,96.000000) scale(0.100000,-0.100000)"
fill="#8a8a8a" stroke="none">
<path d="M66 938 c2 -9 1 -19 -4 -22 -6 -3 -12 3 -15 14 -3 11 -10 20 -16 20
-15 0 -14 -27 1 -32 6 -2 11 -20 12 -38 1 -30 4 -35 24 -33 13 2 21 -1 17 -7
-3 -6 -2 -10 3 -10 5 0 12 -11 14 -25 6 -28 4 -29 -23 -15 -14 8 -19 7 -20 -2
0 -7 -4 -4 -9 7 -7 16 -9 17 -9 3 -1 -9 3 -19 9 -23 5 -3 7 -13 4 -23 -3 -9 2
-6 10 8 8 14 15 19 16 12 0 -8 5 -10 13 -6 6 4 1 -3 -12 -16 l-23 -23 46 -20
c33 -14 46 -25 46 -40 0 -38 22 -2 23 37 1 24 6 36 15 36 12 0 12 -3 2 -15 -9
-10 -9 -15 -1 -15 6 0 11 6 12 13 3 41 1 79 -6 85 -5 4 -5 -1 -2 -10 4 -10 3
-18 -2 -18 -13 0 -20 36 -10 51 6 10 9 11 9 2 0 -7 5 -13 10 -13 7 0 7 7 0 21
-8 14 -8 24 -1 33 6 7 8 16 4 19 -3 4 1 7 11 7 9 0 15 -4 12 -9 -3 -4 1 -16 8
-26 12 -17 13 -16 12 6 -1 18 4 24 22 25 13 1 29 7 35 14 10 10 7 10 -11 1
-21 -11 -22 -10 -16 13 5 20 2 26 -10 26 -9 0 -16 -5 -16 -11 0 -5 5 -7 11 -3
7 4 10 1 7 -6 -8 -24 -26 -22 -30 2 -2 19 -10 23 -45 26 -27 2 -43 -1 -43 -8
0 -6 -4 -8 -10 -5 -11 7 -14 -8 -3 -19 4 -3 7 -31 8 -61 0 -44 -3 -55 -17 -58
-19 -5 -25 8 -8 18 6 3 10 22 10 41 0 31 -3 35 -22 32 -19 -2 -23 2 -23 22 0
15 5 24 13 23 6 -2 12 1 12 6 0 5 -11 8 -25 7 -18 -1 -23 -5 -19 -18z m137 -8
c-3 -12 -8 -19 -11 -16 -5 6 5 36 12 36 2 0 2 -9 -1 -20z m-163 5 c0 -3 -2 -5
-5 -5 -3 0 -5 2 -5 5 0 3 2 5 5 5 3 0 5 -2 5 -5z m140 0 c0 -3 -2 -5 -5 -5 -3
0 -5 2 -5 5 0 3 2 5 5 5 3 0 5 -2 5 -5z m53 -14 c3 -13 1 -18 -9 -14 -7 2 -10
11 -7 19 7 19 10 18 16 -5z m-53 -6 c0 -3 -2 -5 -5 -5 -3 0 -5 2 -5 5 0 3 2 5
5 5 3 0 5 -2 5 -5z m-104 -31 c-3 -9 -6 -21 -6 -27 0 -8 -3 -8 -10 -1 -12 12
-3 44 12 44 6 0 7 -7 4 -16z m114 11 c0 -3 -2 -5 -5 -5 -3 0 -5 2 -5 5 0 3 2
5 5 5 3 0 5 -2 5 -5z m-76 -32 c-2 -39 -4 -41 -15 -14 -8 21 -3 34 16 41 1 0
0 -12 -1 -27z m63 -10 c-4 -3 -7 0 -7 7 0 7 3 10 7 7 3 -4 3 -10 0 -14z m-37
-79 c-6 -14 -8 -30 -4 -35 3 -5 0 -9 -5 -9 -6 0 -11 5 -11 11 0 5 -4 7 -10 4
-6 -3 -7 1 -4 9 3 9 10 13 15 10 5 -3 9 4 9 15 0 12 4 21 10 21 6 0 6 -9 0
-26z m47 -21 c-4 -3 -7 0 -7 7 0 7 3 10 7 7 3 -4 3 -10 0 -14z m-80 -30 c-4
-3 -10 -3 -14 0 -3 4 0 7 7 7 7 0 10 -3 7 -7z m33 -8 c0 -3 -2 -5 -5 -5 -3 0
-5 2 -5 5 0 3 2 5 5 5 3 0 5 -2 5 -5z"/>
<path d="M341 950 c0 -8 6 -24 14 -34 8 -11 15 -33 15 -49 l0 -29 -20 23 c-10
13 -19 20 -20 16 0 -4 9 -17 19 -28 21 -22 30 -15 33 25 3 31 15 21 20 -16 2
-15 7 -30 10 -33 10 -10 -15 -65 -29 -65 -7 0 -13 -4 -13 -10 0 -5 7 -10 15
-10 8 0 15 -5 15 -11 0 -5 -4 -7 -10 -4 -5 3 -10 1 -10 -4 0 -14 17 -14 25 -1
3 6 12 10 18 9 9 0 9 -2 0 -6 -14 -5 -18 -24 -5 -21 21 6 52 -15 52 -35 1 -19
2 -20 10 -6 5 9 11 30 12 47 2 23 6 29 20 27 10 -2 20 4 23 15 3 10 12 21 21
24 11 4 13 0 8 -22 -4 -15 -11 -29 -16 -30 -7 -3 28 -42 37 -42 7 0 0 36 -8
41 -5 4 -6 20 -2 37 5 23 10 29 22 25 12 -5 14 -3 7 8 -21 33 -13 109 12 109
25 0 15 16 -12 18 -21 2 -24 -1 -19 -18 4 -11 2 -20 -4 -20 -6 0 -11 12 -11
26 0 14 -4 23 -9 20 -11 -7 -3 -43 17 -73 8 -14 10 -23 4 -23 -12 0 -25 17
-30 40 -8 39 -9 69 -1 64 5 -3 9 0 9 7 0 10 3 10 12 1 15 -15 28 -15 28 -1 0
5 -4 8 -9 4 -5 -3 -12 -2 -15 3 -3 5 -27 9 -53 11 -39 1 -51 -2 -63 -20 -8
-12 -20 -27 -26 -33 -8 -7 -9 -19 -3 -34 5 -13 7 -27 4 -32 -3 -4 2 -10 9 -13
8 -3 17 -1 20 6 2 7 5 -1 5 -18 1 -23 -2 -26 -9 -15 -5 8 -10 11 -10 6 0 -6
-6 -1 -14 9 -8 11 -12 25 -9 32 3 7 0 13 -7 13 -6 0 -9 4 -6 8 6 10 -16 78
-29 89 -4 5 -5 -2 -2 -14 3 -13 3 -23 0 -23 -3 0 -13 10 -24 23 -13 16 -18 18
-18 7z m180 -14 c-8 -10 -9 -16 -1 -21 5 -3 10 -12 10 -18 0 -7 -5 -4 -11 7
-9 15 -13 16 -20 5 -6 -10 -9 -8 -9 9 0 13 4 21 9 17 5 -3 12 -1 16 5 3 5 9
10 12 10 3 0 0 -6 -6 -14z m-161 -1 c0 -3 -2 -5 -5 -5 -3 0 -5 2 -5 5 0 3 2 5
5 5 3 0 5 -2 5 -5z m105 -47 c-8 -46 -15 -48 -15 -5 0 21 5 37 10 37 6 0 8
-13 5 -32z m135 17 c0 -3 -2 -5 -5 -5 -3 0 -5 2 -5 5 0 3 2 5 5 5 3 0 5 -2 5
-5z m-57 -31 c3 -4 1 -16 -5 -27 -8 -16 -8 -19 5 -14 18 7 41 -16 35 -34 -3
-8 -9 -6 -20 5 -12 12 -19 13 -24 4 -4 -6 -2 -14 4 -16 14 -4 6 -22 -9 -22 -6
0 -7 4 -4 10 3 6 -1 7 -9 4 -9 -3 -16 -1 -16 5 0 6 6 11 13 12 10 0 10 2 0 6
-7 2 -13 9 -13 14 0 4 7 6 16 2 14 -5 15 -3 5 16 -16 28 1 55 22 35z m-43 -9
c0 -3 -2 -5 -5 -5 -3 0 -5 2 -5 5 0 3 2 5 5 5 3 0 5 -2 5 -5z m-59 -106 c5 -3
11 -15 14 -28 2 -12 0 -19 -6 -16 -5 4 -9 13 -9 21 0 8 -6 13 -12 12 -13 -3
-14 3 -8 40 2 14 3 14 7 -3 3 -11 9 -23 14 -26z m26 -1 c-3 -8 -6 -5 -6 6 -1
11 2 17 5 13 3 -3 4 -12 1 -19z m57 4 c3 -5 -1 -9 -9 -9 -8 0 -15 4 -15 9 0 4
4 8 9 8 6 0 12 -4 15 -8z"/>
<path d="M520 860 c0 -7 3 -10 7 -7 3 4 3 10 0 14 -4 3 -7 0 -7 -7z"/>
<path d="M555 820 c3 -5 8 -10 11 -10 3 0 2 5 -1 10 -3 6 -8 10 -11 10 -3 0
-2 -4 1 -10z"/>
<path d="M420 755 c0 -3 2 -5 5 -5 3 0 5 2 5 5 0 3 -2 5 -5 5 -3 0 -5 -2 -5
-5z"/>
<path d="M415 950 c-3 -5 -2 -17 3 -26 8 -15 10 -15 15 0 5 12 3 15 -5 10 -8
-5 -9 -2 -5 9 7 19 2 23 -8 7z"/>
<path d="M704 938 c5 -23 -10 -24 -18 -1 -5 12 -10 13 -18 5 -8 -8 -6 -15 6
-27 17 -18 21 -35 8 -35 -5 0 -9 -7 -9 -15 0 -8 4 -15 9 -15 5 0 7 -4 4 -9 -7
-11 13 -9 33 3 10 6 12 5 7 -2 -4 -7 -3 -12 2 -12 5 0 12 -12 15 -26 3 -19 1
-24 -10 -20 -8 3 -16 6 -19 6 -2 0 -1 7 2 15 4 10 0 15 -12 15 -13 0 -15 -3
-7 -8 7 -5 9 -13 3 -21 -5 -9 -3 -23 7 -38 10 -14 11 -23 4 -23 -6 0 -11 -7
-11 -16 0 -14 2 -15 17 -3 13 11 15 11 9 1 -5 -9 -3 -12 5 -11 26 5 57 -12 61
-34 5 -30 -2 -58 -13 -52 -5 4 -9 -1 -9 -10 0 -10 5 -13 12 -9 8 5 9 2 5 -10
-4 -10 -7 -20 -7 -22 0 -2 -6 -4 -14 -4 -9 0 -13 7 -11 19 7 37 -5 59 -31 57
-19 -1 -24 -6 -20 -18 5 -23 -10 -24 -18 -1 -5 12 -10 13 -18 5 -8 -8 -6 -15
6 -27 17 -18 21 -35 8 -35 -5 0 -9 -7 -9 -15 0 -8 4 -15 9 -15 5 0 7 -4 4 -9
-7 -11 13 -9 33 3 10 6 12 5 7 -2 -4 -7 -3 -12 2 -12 5 0 12 -12 15 -26 3 -19
1 -24 -10 -20 -8 3 -16 6 -19 6 -2 0 -1 7 2 15 4 10 0 15 -12 15 -13 0 -15 -3
-7 -8 7 -5 9 -13 3 -21 -5 -9 -3 -23 7 -38 10 -14 11 -23 4 -23 -6 0 -11 -7
-11 -16 0 -14 2 -15 17 -3 13 11 15 11 9 1 -5 -9 -3 -12 5 -11 48 10 83 -46
50 -78 -12 -13 -13 -17 -3 -21 10 -3 10 -7 1 -18 -6 -8 -8 -14 -3 -14 5 0 10
-23 11 -51 3 -42 1 -49 -10 -40 -8 6 -17 8 -20 4 -11 -10 -8 -41 3 -45 6 -2
12 -13 15 -26 2 -13 0 -20 -6 -17 -5 4 -9 13 -9 21 0 8 -6 13 -12 11 -9 -1
-12 8 -10 26 2 18 -1 26 -7 22 -6 -3 -11 -13 -11 -21 0 -8 -7 -14 -15 -14 -8
0 -15 -4 -15 -10 0 -5 7 -10 15 -10 8 0 15 -5 15 -11 0 -5 -4 -7 -10 -4 -5 3
-10 1 -10 -4 0 -14 17 -14 25 -1 3 6 12 10 18 9 9 0 9 -2 0 -6 -14 -5 -18 -24
-5 -21 21 6 52 -15 52 -35 1 -19 2 -20 10 -6 5 9 11 30 12 47 2 23 6 29 20 27
10 -2 20 4 23 15 3 10 12 21 21 24 11 4 13 0 8 -22 -4 -15 -11 -29 -16 -30 -7
-3 28 -42 37 -42 7 0 0 36 -8 41 -5 4 -6 20 -2 37 5 23 10 29 22 25 12 -5 14
-3 7 8 -21 33 -13 109 12 109 25 0 15 16 -12 18 -21 2 -24 -1 -19 -18 3 -11 2
-20 -3 -20 -13 0 -22 63 -10 71 5 3 -10 6 -32 7 -53 2 -61 8 -52 35 5 12 7 32
6 45 -1 15 4 22 16 22 13 0 17 6 13 19 -5 21 17 33 38 21 11 -7 10 -10 -3 -15
-10 -4 -15 -15 -13 -26 3 -16 -1 -19 -17 -17 -12 2 -23 -2 -25 -9 -3 -8 5 -11
26 -8 17 2 31 0 31 -5 0 -18 26 -17 27 1 1 11 -5 19 -13 19 -21 0 -17 18 10
45 22 22 23 25 8 37 -13 11 -15 11 -10 -4 6 -14 4 -15 -20 -2 -23 12 -28 12
-38 -1 -16 -21 -24 -19 -23 8 1 12 -1 31 -5 42 -5 16 -5 16 5 -2 11 -21 50
-26 67 -8 4 4 1 5 -5 1 -8 -4 -13 -1 -13 9 0 10 5 13 13 9 7 -5 7 -1 -3 12
-22 29 -24 30 -17 12 3 -9 -1 -24 -9 -35 -14 -17 -15 -17 -8 6 5 18 3 22 -7
16 -11 -6 -11 -5 -2 5 8 9 9 19 2 32 -5 10 -6 18 -2 17 20 -3 34 2 28 10 -3 6
8 8 25 6 41 -5 38 11 -2 17 -23 4 -37 0 -46 -11 -13 -15 -13 -15 -9 1 4 10 -1
18 -14 21 -15 4 -18 10 -11 29 4 12 7 33 6 46 -1 15 4 22 16 22 13 0 17 6 13
19 -5 21 17 33 38 21 11 -7 10 -10 -3 -15 -10 -4 -15 -15 -13 -26 3 -16 -1
-19 -17 -17 -12 2 -23 -2 -25 -9 -3 -8 5 -11 26 -8 17 2 31 0 31 -5 0 -18 26
-17 27 1 1 11 -5 19 -13 19 -21 0 -17 18 10 45 22 22 23 25 8 37 -13 11 -15
11 -10 -4 6 -14 4 -15 -20 -2 -23 12 -28 12 -38 -1 -16 -21 -24 -19 -23 8 1
12 -1 31 -5 42 -5 16 -5 16 5 -2 11 -21 50 -26 67 -8 4 4 1 5 -5 1 -8 -4 -13
-1 -13 9 0 10 5 13 13 9 7 -5 7 -1 -3 12 -22 29 -24 30 -17 12 3 -9 -1 -24 -9
-35 -14 -17 -15 -17 -8 6 5 18 3 22 -7 16 -11 -6 -11 -5 -2 5 8 9 9 19 2 32
-5 10 -6 18 -2 17 20 -3 34 2 28 10 -3 6 8 8 25 6 41 -5 38 11 -2 17 -23 4
-37 0 -46 -11 -12 -15 -13 -14 -8 2 4 13 0 17 -19 17 -16 0 -25 -6 -25 -16 0
-8 -4 -12 -10 -9 -5 3 -10 -1 -10 -10 0 -10 5 -13 12 -9 8 5 9 2 5 -10 -4 -10
-7 -20 -7 -22 0 -2 -6 -4 -14 -4 -9 0 -13 7 -11 19 7 37 -5 59 -31 57 -19 -1
-24 -6 -20 -18z m113 -20 c-3 -7 -5 -2 -5 12 0 14 2 19 5 13 2 -7 2 -19 0 -25z
m-137 17 c0 -3 -2 -5 -5 -5 -3 0 -5 2 -5 5 0 3 2 5 5 5 3 0 5 -2 5 -5z m60
-22 c-1 -24 -2 -26 -11 -10 -5 9 -7 22 -4 27 10 17 15 11 15 -17z m-28 -48
c-6 -34 -13 -32 -10 4 1 16 5 28 9 26 3 -3 4 -16 1 -30z m118 25 c0 -5 -4 -10
-10 -10 -5 0 -10 5 -10 10 0 6 5 10 10 10 6 0 10 -4 10 -10z m-53 -29 c10 9
13 7 13 -10 0 -12 -4 -19 -10 -16 -5 3 -10 2 -10 -4 0 -5 4 -12 9 -16 11 -6
10 -45 -1 -45 -4 0 -8 7 -8 15 0 8 -4 15 -10 15 -5 0 -9 3 -9 8 1 4 0 9 -1 12
-1 3 -3 15 -4 28 -2 15 1 19 7 13 7 -7 15 -7 24 0z m83 -66 c0 -3 -2 -5 -5 -5
-3 0 -5 2 -5 5 0 3 2 5 5 5 3 0 5 -2 5 -5z m-116 -37 c10 -15 14 -17 10 -5 -8
23 3 22 15 -2 9 -15 7 -20 -9 -24 -11 -3 -18 -1 -15 4 3 4 -3 14 -15 21 -21
13 -27 28 -11 28 5 0 16 -10 25 -22z m83 -5 c-4 -3 -7 0 -7 7 0 7 3 10 7 7 3
-4 3 -10 0 -14z m-50 -40 c-4 -3 -10 -3 -14 0 -3 4 0 7 7 7 7 0 10 -3 7 -7z
m40 -115 c-3 -7 -5 -2 -5 12 0 14 2 19 5 13 2 -7 2 -19 0 -25z m-137 17 c0 -3
-2 -5 -5 -5 -3 0 -5 2 -5 5 0 3 2 5 5 5 3 0 5 -2 5 -5z m60 -22 c-1 -24 -2
-26 -11 -10 -5 9 -7 22 -4 27 10 17 15 11 15 -17z m-28 -48 c-6 -34 -13 -32
-10 4 1 16 5 28 9 26 3 -3 4 -16 1 -30z m118 25 c0 -5 -4 -10 -10 -10 -5 0
-10 5 -10 10 0 6 5 10 10 10 6 0 10 -4 10 -10z m-53 -29 c10 9 13 7 13 -10 0
-12 -4 -19 -10 -16 -5 3 -10 2 -10 -4 0 -5 4 -12 9 -16 11 -6 10 -45 -1 -45
-4 0 -8 7 -8 15 0 8 -4 15 -10 15 -5 0 -9 3 -9 8 1 4 0 9 -1 12 -1 3 -3 15 -4
28 -2 15 1 19 7 13 7 -7 15 -7 24 0z m83 -66 c0 -3 -2 -5 -5 -5 -3 0 -5 2 -5
5 0 3 2 5 5 5 3 0 5 -2 5 -5z m-116 -37 c10 -15 14 -17 10 -5 -8 23 3 22 15
-2 9 -15 7 -20 -9 -24 -11 -3 -18 -1 -15 4 3 4 -3 14 -15 21 -21 13 -27 28
-11 28 5 0 16 -10 25 -22z m83 -5 c-4 -3 -7 0 -7 7 0 7 3 10 7 7 3 -4 3 -10 0
-14z m-50 -40 c-4 -3 -10 -3 -14 0 -3 4 0 7 7 7 7 0 10 -3 7 -7z m64 -97 c-8
-10 -9 -16 -1 -21 5 -3 10 -12 10 -18 0 -7 -5 -4 -11 7 -9 15 -13 16 -20 5 -6
-10 -9 -8 -9 9 0 13 4 21 9 17 5 -3 12 -1 16 5 3 5 9 10 12 10 3 0 0 -6 -6
-14z m35 -28 c-1 -13 6 -34 16 -47 14 -19 16 -26 6 -32 -18 -11 -27 -2 -23 24
4 22 4 22 -11 2 -9 -13 -11 -21 -4 -23 7 -3 7 -9 -2 -20 -10 -12 -10 -16 0
-19 13 -5 7 -23 -9 -23 -6 0 -7 4 -4 10 3 6 -1 7 -9 4 -9 -3 -16 -1 -16 5 0 6
6 11 13 12 10 0 10 2 0 6 -7 2 -13 9 -13 14 0 4 7 6 16 2 14 -5 15 -3 4 16
-10 20 -9 26 9 42 11 11 18 27 16 39 -2 11 0 18 4 16 5 -3 8 -16 7 -28z m44
-3 c0 -3 -2 -5 -5 -5 -3 0 -5 2 -5 5 0 3 2 5 5 5 3 0 5 -2 5 -5z m-100 -40 c0
-3 -2 -5 -5 -5 -3 0 -5 2 -5 5 0 3 2 5 5 5 3 0 5 -2 5 -5z m80 -61 c0 -8 -6
-11 -15 -8 -8 4 -15 9 -15 13 0 4 7 8 15 8 8 0 15 -6 15 -13z m-113 -46 c-3
-8 -6 -5 -6 6 -1 11 2 17 5 13 3 -3 4 -12 1 -19z m57 4 c3 -5 -1 -9 -9 -9 -8
0 -15 4 -15 9 0 10 17 10 24 0z"/>
<path d="M750 835 c0 -3 2 -5 5 -5 3 0 5 2 5 5 0 3 -2 5 -5 5 -3 0 -5 -2 -5
-5z"/>
<path d="M770 805 c0 -3 2 -5 5 -5 3 0 5 2 5 5 0 3 -2 5 -5 5 -3 0 -5 -2 -5
-5z"/>
<path d="M750 515 c0 -3 2 -5 5 -5 3 0 5 2 5 5 0 3 -2 5 -5 5 -3 0 -5 -2 -5
-5z"/>
<path d="M770 485 c0 -3 2 -5 5 -5 3 0 5 2 5 5 0 3 -2 5 -5 5 -3 0 -5 -2 -5
-5z"/>
<path d="M860 235 c0 -3 2 -5 5 -5 3 0 5 2 5 5 0 3 -2 5 -5 5 -3 0 -5 -2 -5
-5z"/>
<path d="M840 220 c0 -7 3 -10 7 -7 3 4 3 10 0 14 -4 3 -7 0 -7 -7z"/>
<path d="M880 215 c0 -3 2 -5 5 -5 3 0 5 2 5 5 0 3 -2 5 -5 5 -3 0 -5 -2 -5
-5z"/>
<path d="M880 195 c0 -3 2 -5 5 -5 3 0 5 2 5 5 0 3 -2 5 -5 5 -3 0 -5 -2 -5
-5z"/>
<path d="M100 920 c0 -7 3 -10 7 -7 3 4 3 10 0 14 -4 3 -7 0 -7 -7z"/>
<path d="M870 915 c-8 -10 -10 -16 -4 -12 7 4 14 -2 17 -13 3 -11 11 -20 19
-20 9 0 10 2 2 8 -7 4 -14 18 -15 31 -4 23 -5 24 -19 6z"/>
<path d="M920 908 c0 -5 -5 -6 -12 -2 -6 4 -8 3 -5 -4 4 -5 16 -8 27 -5 23 6
27 20 5 20 -8 0 -15 -4 -15 -9z"/>
<path d="M760 905 c0 -3 2 -5 5 -5 3 0 5 2 5 5 0 3 -2 5 -5 5 -3 0 -5 -2 -5
-5z"/>
<path d="M253 873 c4 -3 10 -3 14 0 3 4 0 7 -7 7 -7 0 -10 -3 -7 -7z"/>
<path d="M200 860 c0 -7 3 -10 7 -7 3 4 3 10 0 14 -4 3 -7 0 -7 -7z"/>
<path d="M264 844 c4 -11 2 -15 -7 -11 -8 3 -14 -1 -14 -8 0 -10 5 -11 18 -4
16 8 17 39 2 39 -3 0 -2 -7 1 -16z"/>
<path d="M560 855 c0 -3 2 -5 5 -5 3 0 5 2 5 5 0 3 -2 5 -5 5 -3 0 -5 -2 -5
-5z"/>
<path d="M903 841 c0 -11 5 -18 9 -15 4 3 5 11 1 19 -7 21 -12 19 -10 -4z"/>
<path d="M213 820 c-1 -11 6 -26 17 -32 10 -7 16 -18 13 -27 -5 -13 -3 -14 7
-4 8 7 15 23 16 35 2 13 0 18 -2 11 -8 -18 -34 -4 -34 18 0 26 -15 24 -17 -1z"/>
<path d="M63 813 c4 -3 10 -3 14 0 3 4 0 7 -7 7 -7 0 -10 -3 -7 -7z"/>
<path d="M378 813 c6 -2 9 -10 6 -15 -4 -7 -2 -8 4 -4 18 11 14 26 -5 25 -11
0 -13 -3 -5 -6z"/>
<path d="M280 785 c0 -3 2 -5 5 -5 3 0 5 2 5 5 0 3 -2 5 -5 5 -3 0 -5 -2 -5
-5z"/>
<path d="M367 779 c7 -7 15 -10 18 -7 3 3 -2 9 -12 12 -14 6 -15 5 -6 -5z"/>
<path d="M215 770 c-3 -5 -1 -10 4 -10 6 0 11 5 11 10 0 6 -2 10 -4 10 -3 0
-8 -4 -11 -10z"/>
<path d="M216 724 c-4 -12 -2 -15 9 -10 9 3 15 0 15 -8 0 -8 6 -16 13 -19 19
-7 17 25 -2 40 -21 17 -28 16 -35 -3z"/>
<path d="M500 703 c0 -10 4 -14 8 -8 4 6 11 13 16 18 5 4 2 7 -7 7 -10 0 -17
-8 -17 -17z"/>
<path d="M70 690 c0 -7 3 -10 7 -7 3 4 3 10 0 14 -4 3 -7 0 -7 -7z"/>
<path d="M50 675 c0 -3 2 -5 5 -5 3 0 5 2 5 5 0 3 -2 5 -5 5 -3 0 -5 -2 -5 -5z"/>
<path d="M370 675 c0 -3 2 -5 5 -5 3 0 5 2 5 5 0 3 -2 5 -5 5 -3 0 -5 -2 -5
-5z"/>
<path d="M65 622 c6 -20 4 -23 -12 -20 -10 2 -17 10 -15 16 1 7 -2 12 -8 12
-15 0 -12 -26 5 -40 17 -14 21 -45 4 -34 -8 5 -8 1 0 -13 6 -11 7 -24 3 -28
-4 -3 0 -5 8 -3 8 2 18 7 22 13 4 5 10 6 14 2 11 -11 14 -67 3 -67 -5 0 -9 -4
-9 -9 0 -4 17 -7 37 -5 20 1 32 -1 25 -5 -6 -4 -10 -17 -7 -30 3 -19 2 -21
-10 -11 -12 10 -15 9 -15 -3 0 -9 9 -19 20 -22 12 -4 20 -15 20 -28 1 -37 20
6 22 48 1 20 6 39 11 42 6 3 7 1 3 -5 -4 -7 -3 -12 3 -12 6 0 8 -7 5 -15 -4
-10 0 -15 10 -15 9 0 27 -7 40 -15 22 -15 23 -14 22 7 -1 19 -6 23 -31 20 -27
-3 -30 0 -32 25 0 15 3 36 8 46 6 9 6 17 2 16 -22 -4 -33 3 -33 19 0 12 2 14
8 4 5 -7 16 -10 24 -7 9 4 19 2 22 -3 6 -11 46 -4 46 7 0 3 -4 13 -10 21 -5 9
-5 19 1 27 6 7 8 16 5 22 -3 5 3 7 14 4 11 -3 20 -1 20 4 0 5 -12 10 -26 11
-19 1 -25 -2 -20 -13 3 -8 1 -17 -3 -20 -5 -2 -11 9 -13 25 -4 26 -2 29 14 24
10 -3 18 -1 18 5 0 6 -3 10 -7 10 -5 -1 -10 0 -13 1 -18 7 -61 9 -57 3 2 -4 1
-17 -4 -28 -7 -17 -8 -17 -8 8 -1 31 -23 36 -48 11 -13 -12 -13 -18 -4 -24 10
-5 10 -9 2 -14 -6 -4 -9 -12 -5 -17 3 -6 7 -20 8 -32 2 -17 -3 -22 -20 -22
-12 0 -20 4 -17 9 3 4 -1 12 -8 17 -12 8 -12 10 0 18 17 11 23 39 11 46 -5 3
-7 12 -3 20 3 8 0 15 -6 15 -8 0 -10 -12 -5 -36 5 -28 4 -35 -5 -29 -7 4 -10
12 -8 19 3 6 -2 21 -10 31 -15 19 -15 19 -8 -3z m112 -24 c-3 -8 -6 -5 -6 6
-1 11 2 17 5 13 3 -3 4 -12 1 -19z m53 17 c0 -3 -2 -5 -5 -5 -3 0 -5 2 -5 5 0
3 2 5 5 5 3 0 5 -2 5 -5z m5 -25 c4 -6 1 -17 -5 -25 -11 -14 -7 -19 12 -16 4
0 12 -8 18 -19 7 -14 7 -20 0 -20 -5 0 -13 0 -17 0 -5 0 -9 5 -9 10 -1 6 -2
13 -3 17 0 4 -8 -2 -17 -13 -15 -18 -15 -18 -8 5 4 17 3 21 -6 16 -7 -4 -5 4
4 17 9 14 13 28 9 31 -3 4 -1 7 5 7 6 0 14 -5 17 -10z m-165 -31 c0 -16 -4
-28 -9 -25 -8 5 -3 56 5 56 2 0 4 -14 4 -31z m107 4 c-4 -3 -7 0 -7 7 0 7 3
10 7 7 3 -4 3 -10 0 -14z m0 -30 c-4 -3 -7 0 -7 7 0 7 3 10 7 7 3 -4 3 -10 0
-14z m-37 -38 c11 -13 11 -18 0 -28 -10 -10 -12 -8 -6 7 4 13 2 17 -7 13 -8
-3 -14 1 -14 9 0 18 11 18 27 -1z m60 -25 c0 -5 -4 -10 -10 -10 -5 0 -10 5
-10 10 0 6 5 10 10 10 6 0 10 -4 10 -10z"/>
<path d="M240 535 c0 -3 2 -5 5 -5 3 0 5 2 5 5 0 3 -2 5 -5 5 -3 0 -5 -2 -5
-5z"/>
<path d="M240 515 c0 -3 2 -5 5 -5 3 0 5 2 5 5 0 3 -2 5 -5 5 -3 0 -5 -2 -5
-5z"/>
<path d="M376 632 c-4 -4 -12 -8 -17 -8 -5 -1 -11 -2 -14 -3 -3 0 1 -11 8 -23
12 -20 13 -29 8 -54 0 -4 -8 -1 -16 6 -10 9 -15 9 -15 1 0 -10 14 -15 34 -12
5 1 6 -5 3 -13 -3 -8 -1 -17 6 -20 9 -3 9 -5 0 -5 -7 -1 -13 -5 -13 -11 0 -5
7 -6 17 -3 12 5 14 3 8 -8 -6 -11 -5 -11 4 -3 10 9 9 18 -3 43 -11 20 -13 31
-5 31 6 0 8 7 5 16 -3 9 -2 12 5 9 6 -4 8 -13 5 -21 -3 -7 -1 -16 5 -19 5 -4
7 -11 4 -16 -4 -5 -2 -9 4 -9 19 0 22 20 6 49 -8 17 -15 39 -15 50 0 22 -13
34 -24 23z m-16 -17 c0 -3 -2 -5 -5 -5 -3 0 -5 2 -5 5 0 3 2 5 5 5 3 0 5 -2 5
-5z m30 -5 c0 -5 -4 -10 -10 -10 -5 0 -10 5 -10 10 0 6 5 10 10 10 6 0 10 -4
10 -10z"/>
<path d="M415 630 c-3 -5 -3 -15 0 -21 4 -5 8 -21 10 -35 1 -14 8 -31 15 -37
10 -10 11 -5 5 23 -4 19 -7 40 -8 47 0 7 -5 9 -10 6 -6 -4 -8 0 -4 10 7 19 2
23 -8 7z m25 -65 c0 -3 -2 -5 -5 -5 -3 0 -5 2 -5 5 0 3 2 5 5 5 3 0 5 -2 5 -5z"/>
<path d="M460 623 c-11 -13 -11 -18 -2 -21 10 -3 10 -7 1 -18 -6 -8 -8 -14 -3
-14 5 0 10 -23 11 -51 3 -42 1 -49 -10 -40 -8 6 -17 8 -20 4 -11 -10 -8 -41 3
-45 6 -2 12 -13 15 -26 2 -13 0 -20 -6 -17 -5 4 -9 13 -9 21 0 8 -4 13 -9 9
-19 -11 -22 16 -5 50 9 20 14 38 11 42 -3 3 -14 -13 -24 -36 -10 -22 -23 -41
-30 -41 -7 0 -13 -4 -13 -10 0 -5 7 -10 15 -10 8 0 15 -5 15 -11 0 -5 -4 -7
-10 -4 -5 3 -10 1 -10 -4 0 -14 17 -14 25 -1 3 6 12 10 18 9 9 0 9 -2 0 -6
-14 -5 -18 -24 -5 -21 21 6 52 -15 52 -35 1 -19 2 -20 10 -6 5 9 11 30 12 47
2 23 6 29 20 27 10 -2 20 4 23 15 3 10 12 21 21 24 11 4 13 0 8 -22 -4 -15
-11 -29 -16 -30 -7 -3 28 -42 37 -42 7 0 0 36 -8 41 -5 4 -6 20 -2 37 5 23 10
29 22 25 12 -5 14 -3 7 8 -21 33 -13 109 12 109 25 0 15 16 -12 18 -21 2 -24
-1 -19 -18 3 -11 2 -20 -3 -20 -13 0 -22 63 -10 71 5 3 -15 6 -44 7 -38 1 -57
-3 -68 -15z m61 -7 c-8 -10 -9 -16 -1 -21 5 -3 10 -12 10 -18 0 -7 -5 -4 -11
7 -9 15 -13 16 -20 5 -6 -10 -9 -8 -9 9 0 13 4 21 9 17 5 -3 12 -1 16 5 3 5 9
10 12 10 3 0 0 -6 -6 -14z m35 -28 c-1 -13 6 -34 16 -47 14 -19 16 -26 6 -32
-18 -11 -27 -2 -23 24 4 22 4 22 -11 2 -9 -13 -11 -21 -4 -23 7 -3 7 -9 -2
-20 -10 -12 -10 -16 0 -19 13 -5 7 -23 -9 -23 -6 0 -7 4 -4 10 3 6 -1 7 -9 4
-9 -3 -16 -1 -16 5 0 6 6 11 13 12 10 0 10 2 0 6 -7 2 -13 9 -13 14 0 4 7 6
16 2 14 -5 15 -3 4 16 -10 20 -9 26 9 42 11 11 18 27 16 39 -2 11 0 18 4 16 5
-3 8 -16 7 -28z m44 -3 c0 -3 -2 -5 -5 -5 -3 0 -5 2 -5 5 0 3 2 5 5 5 3 0 5
-2 5 -5z m-100 -40 c0 -3 -2 -5 -5 -5 -3 0 -5 2 -5 5 0 3 2 5 5 5 3 0 5 -2 5
-5z m80 -61 c0 -8 -6 -11 -15 -8 -8 4 -15 9 -15 13 0 4 7 8 15 8 8 0 15 -6 15
-13z m-113 -46 c-3 -8 -6 -5 -6 6 -1 11 2 17 5 13 3 -3 4 -12 1 -19z m57 4 c3
-5 -1 -9 -9 -9 -8 0 -15 4 -15 9 0 4 4 8 9 8 6 0 12 -4 15 -8z"/>
<path d="M540 555 c0 -3 2 -5 5 -5 3 0 5 2 5 5 0 3 -2 5 -5 5 -3 0 -5 -2 -5
-5z"/>
<path d="M520 540 c0 -7 3 -10 7 -7 3 4 3 10 0 14 -4 3 -7 0 -7 -7z"/>
<path d="M560 535 c0 -3 2 -5 5 -5 3 0 5 2 5 5 0 3 -2 5 -5 5 -3 0 -5 -2 -5
-5z"/>
<path d="M560 515 c0 -3 2 -5 5 -5 3 0 5 2 5 5 0 3 -2 5 -5 5 -3 0 -5 -2 -5
-5z"/>
<path d="M585 620 c-3 -5 -1 -10 4 -10 6 0 11 5 11 10 0 6 -2 10 -4 10 -3 0
-8 -4 -11 -10z"/>
<path d="M870 595 c-8 -10 -10 -16 -4 -12 7 4 14 -2 17 -13 3 -11 11 -20 19
-20 9 0 10 2 2 8 -7 4 -14 18 -15 31 -4 23 -5 24 -19 6z"/>
<path d="M920 588 c0 -5 -5 -6 -12 -2 -6 4 -8 3 -5 -4 4 -5 16 -8 27 -5 23 6
27 20 5 20 -8 0 -15 -4 -15 -9z"/>
<path d="M120 585 c0 -3 2 -5 5 -5 3 0 5 2 5 5 0 3 -2 5 -5 5 -3 0 -5 -2 -5
-5z"/>
<path d="M760 585 c0 -3 2 -5 5 -5 3 0 5 2 5 5 0 3 -2 5 -5 5 -3 0 -5 -2 -5
-5z"/>
<path d="M114 559 c-3 -6 -1 -16 5 -22 8 -8 11 -5 11 11 0 24 -5 28 -16 11z"/>
<path d="M10 550 c0 -7 3 -10 7 -7 3 4 3 10 0 14 -4 3 -7 0 -7 -7z"/>
<path d="M903 521 c0 -11 5 -18 9 -15 4 3 5 11 1 19 -7 21 -12 19 -10 -4z"/>
<path d="M61 493 c1 -5 1 -15 0 -23 -1 -13 -2 -13 -11 0 -6 9 -10 10 -10 3 0
-12 19 -28 24 -22 11 13 16 49 7 49 -6 0 -10 -3 -10 -7z"/>
<path d="M224 459 c-19 -22 -19 -22 3 -10 20 10 22 9 16 -5 -4 -12 -3 -15 5
-10 7 4 12 14 12 21 0 9 6 12 17 8 11 -4 14 -3 9 5 -11 19 -41 14 -62 -9z"/>
<path d="M367 459 c7 -7 15 -10 18 -7 3 3 -2 9 -12 12 -14 6 -15 5 -6 -5z"/>
<path d="M70 419 c0 -11 5 -19 11 -19 5 0 7 -4 4 -10 -3 -5 -2 -10 3 -10 8 0
18 21 21 48 1 4 -8 8 -19 8 -13 1 -20 -5 -20 -17z m40 6 c0 -3 -2 -5 -5 -5 -3
0 -5 2 -5 5 0 3 2 5 5 5 3 0 5 -2 5 -5z"/>
<path d="M420 435 c0 -3 2 -5 5 -5 3 0 5 2 5 5 0 3 -2 5 -5 5 -3 0 -5 -2 -5
-5z"/>
<path d="M500 383 c0 -10 4 -14 8 -8 4 6 11 13 16 18 5 4 2 7 -7 7 -10 0 -17
-8 -17 -17z"/>
<path d="M180 375 c0 -3 2 -5 5 -5 3 0 5 2 5 5 0 3 -2 5 -5 5 -3 0 -5 -2 -5
-5z"/>
<path d="M55 360 c-3 -6 1 -7 9 -4 18 7 21 14 7 14 -6 0 -13 -4 -16 -10z"/>
<path d="M370 355 c0 -3 2 -5 5 -5 3 0 5 2 5 5 0 3 -2 5 -5 5 -3 0 -5 -2 -5
-5z"/>
<path d="M21 310 c0 -8 6 -24 14 -34 8 -11 15 -33 15 -49 l0 -29 -20 23 c-10
13 -19 20 -20 16 0 -4 9 -17 19 -28 21 -22 30 -15 33 25 3 31 15 21 20 -16 2
-15 7 -30 10 -33 10 -10 -15 -65 -29 -65 -7 0 -13 -4 -13 -10 0 -5 7 -10 15
-10 8 0 15 -5 15 -11 0 -5 -4 -7 -10 -4 -5 3 -10 1 -10 -4 0 -14 17 -14 25 -1
3 5 12 10 18 9 9 0 9 -2 0 -6 -14 -5 -18 -24 -5 -21 21 6 52 -15 52 -35 1 -19
2 -20 10 -6 5 9 11 30 12 47 2 23 6 29 20 27 10 -2 20 4 23 15 3 10 12 21 21
24 11 4 13 0 8 -22 -4 -15 -11 -29 -16 -30 -7 -3 28 -42 37 -42 7 0 0 36 -8
41 -5 4 -6 20 -2 37 5 23 10 29 22 25 12 -5 14 -3 7 8 -21 33 -13 109 12 109
25 0 15 16 -12 18 -21 2 -24 -1 -19 -18 4 -11 2 -20 -4 -20 -6 0 -11 12 -11
26 0 14 -4 23 -9 20 -11 -7 -3 -43 17 -73 8 -14 10 -23 4 -23 -12 0 -25 17
-30 40 -8 39 -9 69 -1 64 5 -3 9 0 9 7 0 10 3 10 12 1 15 -15 28 -15 28 -1 0
5 -4 8 -9 4 -5 -3 -12 -2 -15 3 -3 5 -27 9 -53 11 -39 1 -51 -2 -63 -20 -8
-12 -20 -27 -26 -33 -8 -7 -9 -19 -3 -34 5 -13 7 -27 4 -32 -3 -4 2 -10 9 -13
8 -3 17 -1 20 6 2 7 5 -1 5 -18 1 -23 -2 -26 -9 -15 -5 8 -10 11 -10 6 0 -6
-6 -1 -14 9 -8 11 -12 25 -9 32 3 7 0 13 -7 13 -6 0 -9 4 -6 8 6 10 -16 78
-29 89 -4 5 -5 -2 -2 -14 3 -13 3 -23 0 -23 -3 0 -13 10 -24 23 -13 16 -18 18
-18 7z m180 -14 c-8 -10 -9 -16 -1 -21 5 -3 10 -12 10 -18 0 -7 -5 -4 -11 7
-9 15 -13 16 -20 5 -6 -10 -9 -8 -9 9 0 13 4 21 9 17 5 -3 12 -1 16 5 3 5 9
10 12 10 3 0 0 -6 -6 -14z m-161 -1 c0 -3 -2 -5 -5 -5 -3 0 -5 2 -5 5 0 3 2 5
5 5 3 0 5 -2 5 -5z m105 -47 c-8 -46 -15 -48 -15 -5 0 21 5 37 10 37 6 0 8
-13 5 -32z m135 17 c0 -3 -2 -5 -5 -5 -3 0 -5 2 -5 5 0 3 2 5 5 5 3 0 5 -2 5
-5z m-57 -31 c3 -4 1 -16 -5 -27 -8 -16 -8 -19 5 -14 18 7 41 -16 35 -34 -3
-8 -9 -6 -20 5 -12 12 -19 13 -24 4 -4 -6 -2 -14 4 -16 14 -4 6 -22 -9 -22 -6
0 -7 4 -4 10 3 6 -1 7 -9 4 -9 -3 -16 -1 -16 5 0 6 6 11 13 12 10 0 10 2 0 6
-7 2 -13 9 -13 14 0 4 7 6 16 2 14 -5 15 -3 5 16 -16 28 1 55 22 35z m-43 -9
c0 -3 -2 -5 -5 -5 -3 0 -5 2 -5 5 0 3 2 5 5 5 3 0 5 -2 5 -5z m-59 -106 c5 -3
11 -15 14 -28 2 -12 0 -19 -6 -16 -5 4 -9 13 -9 21 0 8 -6 13 -12 12 -13 -3
-14 3 -8 40 2 14 3 14 7 -3 3 -11 9 -23 14 -26z m26 -1 c-3 -8 -6 -5 -6 6 -1
11 2 17 5 13 3 -3 4 -12 1 -19z m57 4 c3 -5 -1 -9 -9 -9 -8 0 -15 4 -15 9 0
10 17 10 24 0z"/>
<path d="M200 220 c0 -7 3 -10 7 -7 3 4 3 10 0 14 -4 3 -7 0 -7 -7z"/>
<path d="M235 180 c3 -5 8 -10 11 -10 3 0 2 5 -1 10 -3 6 -8 10 -11 10 -3 0
-2 -4 1 -10z"/>
<path d="M100 115 c0 -3 2 -5 5 -5 3 0 5 2 5 5 0 3 -2 5 -5 5 -3 0 -5 -2 -5
-5z"/>
<path d="M95 310 c-3 -5 -2 -17 3 -26 8 -15 10 -15 15 0 5 12 3 15 -5 10 -8
-5 -9 -2 -5 9 7 19 2 23 -8 7z"/>
<path d="M384 298 c5 -23 -10 -24 -18 -1 -5 12 -10 13 -18 5 -8 -8 -6 -15 6
-27 17 -18 21 -35 8 -35 -5 0 -9 -7 -9 -15 0 -8 4 -15 9 -15 5 0 7 -4 4 -9 -7
-11 13 -9 33 3 10 6 12 5 7 -2 -4 -7 -3 -12 2 -12 5 0 12 -12 15 -26 3 -19 1
-24 -10 -20 -8 3 -16 6 -19 6 -2 0 -1 7 2 15 4 10 0 15 -12 15 -13 0 -15 -3
-7 -8 7 -5 9 -13 3 -21 -5 -9 -3 -23 7 -38 10 -14 11 -23 4 -23 -6 0 -11 -7
-11 -16 0 -14 2 -15 17 -3 13 11 15 11 9 1 -5 -9 -3 -12 5 -11 26 5 59 -12 59
-31 0 -10 4 -21 8 -24 8 -5 12 16 15 67 0 18 6 27 18 27 12 0 16 6 12 19 -5
21 17 33 38 21 11 -7 10 -10 -3 -15 -10 -4 -15 -15 -13 -26 3 -16 -1 -19 -17
-17 -12 2 -23 -2 -25 -9 -3 -8 5 -11 26 -8 17 2 31 0 31 -5 0 -18 26 -17 27 1
1 11 -5 19 -13 19 -21 0 -17 18 10 45 22 22 23 25 8 37 -13 11 -15 11 -10 -4
6 -14 4 -15 -20 -2 -23 12 -28 12 -38 -1 -16 -21 -24 -19 -23 8 1 12 -1 31 -5
42 -5 16 -5 16 5 -2 11 -21 50 -26 67 -8 4 4 1 5 -5 1 -8 -4 -13 -1 -13 9 0
10 5 13 13 9 7 -5 7 -1 -3 12 -22 29 -24 30 -17 12 3 -9 -1 -24 -9 -35 -14
-17 -15 -17 -8 6 5 18 3 22 -7 16 -11 -6 -11 -5 -2 5 8 9 9 19 2 32 -5 10 -6
18 -2 17 20 -3 34 2 28 10 -3 6 8 8 25 6 41 -5 38 11 -2 17 -23 4 -37 0 -46
-11 -12 -15 -13 -14 -8 2 4 13 0 17 -19 17 -16 0 -25 -6 -25 -16 0 -8 -4 -12
-10 -9 -5 3 -10 -1 -10 -10 0 -9 5 -13 10 -10 12 7 12 3 4 -19 -9 -23 -34 -20
-29 3 7 37 -5 59 -31 57 -19 -1 -24 -6 -20 -18z m113 -20 c-3 -7 -5 -2 -5 12
0 14 2 19 5 13 2 -7 2 -19 0 -25z m-137 17 c0 -3 -2 -5 -5 -5 -3 0 -5 2 -5 5
0 3 2 5 5 5 3 0 5 -2 5 -5z m60 -22 c-1 -24 -2 -26 -11 -10 -5 9 -7 22 -4 27
10 17 15 11 15 -17z m-28 -48 c-6 -34 -13 -32 -10 4 1 16 5 28 9 26 3 -3 4
-16 1 -30z m118 25 c0 -5 -4 -10 -10 -10 -5 0 -10 5 -10 10 0 6 5 10 10 10 6
0 10 -4 10 -10z m-53 -29 c10 9 13 7 13 -10 0 -12 -4 -19 -10 -16 -5 3 -10 2
-10 -4 0 -5 4 -12 9 -16 11 -6 10 -45 -1 -45 -4 0 -8 7 -8 15 0 8 -4 15 -10
15 -5 0 -9 3 -9 8 1 4 0 9 -1 12 -1 3 -3 15 -4 28 -2 15 1 19 7 13 7 -7 15 -7
24 0z m83 -66 c0 -3 -2 -5 -5 -5 -3 0 -5 2 -5 5 0 3 2 5 5 5 3 0 5 -2 5 -5z
m-116 -37 c10 -15 14 -17 10 -5 -8 23 3 22 15 -2 9 -15 7 -20 -9 -24 -11 -3
-18 -1 -15 4 3 4 -3 14 -15 21 -21 13 -27 28 -11 28 5 0 16 -10 25 -22z m83
-5 c-4 -3 -7 0 -7 7 0 7 3 10 7 7 3 -4 3 -10 0 -14z m-50 -40 c-4 -3 -10 -3
-14 0 -3 4 0 7 7 7 7 0 10 -3 7 -7z"/>
<path d="M430 195 c0 -3 2 -5 5 -5 3 0 5 2 5 5 0 3 -2 5 -5 5 -3 0 -5 -2 -5
-5z"/>
<path d="M450 165 c0 -3 2 -5 5 -5 3 0 5 2 5 5 0 3 -2 5 -5 5 -3 0 -5 -2 -5
-5z"/>
<path d="M695 311 c-3 -6 -12 -8 -20 -4 -8 3 -15 0 -15 -7 0 -16 28 -42 39
-36 10 7 24 -22 16 -34 -3 -5 -1 -11 5 -15 6 -4 8 -11 5 -16 -4 -5 -2 -9 4 -9
19 0 22 20 6 49 -8 17 -15 39 -15 50 0 23 -16 36 -25 22z m-15 -16 c0 -3 -2
-5 -5 -5 -3 0 -5 2 -5 5 0 3 2 5 5 5 3 0 5 -2 5 -5z m30 1 c0 -3 -4 -8 -10
-11 -5 -3 -10 -1 -10 4 0 6 5 11 10 11 6 0 10 -2 10 -4z"/>
<path d="M735 310 c-3 -5 -3 -15 0 -21 4 -5 8 -21 10 -35 1 -14 8 -31 15 -37
10 -10 11 -5 5 23 -4 19 -7 40 -8 47 0 7 -5 9 -10 6 -6 -4 -8 0 -4 10 7 19 2
23 -8 7z m25 -65 c0 -3 -2 -5 -5 -5 -3 0 -5 2 -5 5 0 3 2 5 5 5 3 0 5 -2 5 -5z"/>
<path d="M905 300 c-3 -5 -1 -10 4 -10 6 0 11 5 11 10 0 6 -2 10 -4 10 -3 0
-8 -4 -11 -10z"/>
<path d="M550 275 c-8 -10 -10 -16 -4 -12 7 4 14 -2 17 -13 3 -11 11 -20 19
-20 9 0 10 2 2 8 -7 4 -14 18 -15 31 -4 23 -5 24 -19 6z"/>
<path d="M600 268 c0 -5 -5 -6 -12 -2 -6 4 -8 3 -5 -4 4 -5 16 -8 27 -5 23 6
27 20 5 20 -8 0 -15 -4 -15 -9z"/>
<path d="M440 265 c0 -3 2 -5 5 -5 3 0 5 2 5 5 0 3 -2 5 -5 5 -3 0 -5 -2 -5
-5z"/>
<path d="M681 243 c3 -20 -2 -24 -16 -13 -10 9 -15 9 -15 1 0 -10 14 -15 34
-12 5 1 6 -5 3 -13 -3 -8 -1 -17 6 -20 9 -3 9 -5 0 -5 -7 -1 -13 -5 -13 -11 0
-5 7 -6 17 -3 12 5 14 3 8 -8 -6 -11 -5 -11 4 -3 10 9 9 18 -3 43 -10 19 -12
31 -6 31 6 0 8 5 5 10 -7 12 -26 14 -24 3z"/>
<path d="M240 215 c0 -3 2 -5 5 -5 3 0 5 2 5 5 0 3 -2 5 -5 5 -3 0 -5 -2 -5
-5z"/>
<path d="M583 201 c0 -11 5 -18 9 -15 4 3 5 11 1 19 -7 21 -12 19 -10 -4z"/>
<path d="M747 194 c-4 -4 -7 -14 -7 -23 0 -11 3 -12 11 -4 6 6 10 16 7 23 -2
6 -7 8 -11 4z"/>
<path d="M58 173 c6 -2 9 -10 6 -15 -4 -7 -2 -8 4 -4 18 11 14 26 -5 25 -11 0
-13 -3 -5 -6z"/>
<path d="M47 139 c7 -7 15 -10 18 -7 3 3 -2 9 -12 12 -14 6 -15 5 -6 -5z"/>
<path d="M687 139 c7 -7 15 -10 18 -7 3 3 -2 9 -12 12 -14 6 -15 5 -6 -5z"/>
<path d="M740 115 c0 -3 2 -5 5 -5 3 0 5 2 5 5 0 3 -2 5 -5 5 -3 0 -5 -2 -5
-5z"/>
<path d="M180 63 c0 -10 4 -14 8 -8 4 6 11 13 16 18 5 4 2 7 -7 7 -10 0 -17
-8 -17 -17z"/>
<path d="M820 63 c0 -10 4 -14 8 -8 4 6 11 13 16 18 5 4 2 7 -7 7 -10 0 -17
-8 -17 -17z"/>
<path d="M50 35 c0 -3 2 -5 5 -5 3 0 5 2 5 5 0 3 -2 5 -5 5 -3 0 -5 -2 -5 -5z"/>
<path d="M690 35 c0 -3 2 -5 5 -5 3 0 5 2 5 5 0 3 -2 5 -5 5 -3 0 -5 -2 -5 -5z"/>
</g>
<g transform="translate(0.000000,96.000000) scale(0.100000,-0.100000)"
fill="#5b5b5b" stroke="none">
<path d="M63 937 c1 -15 5 -27 10 -27 10 0 9 22 -2 39 -7 10 -9 7 -8 -12z"/>
<path d="M93 953 c4 -3 10 -3 14 0 3 4 0 7 -7 7 -7 0 -10 -3 -7 -7z"/>
<path d="M150 949 c0 -5 -5 -7 -12 -3 -8 5 -8 3 -2 -7 13 -21 13 -199 0 -192
-6 4 -5 0 2 -9 10 -13 10 -18 1 -24 -7 -4 -9 -3 -6 3 4 6 -3 8 -17 6 -13 -3
-27 1 -31 7 -5 9 -1 10 16 6 13 -3 18 -3 11 0 -6 3 -9 10 -6 16 4 6 -2 6 -14
-1 -12 -6 -24 -16 -28 -23 -4 -6 -3 -8 4 -4 6 3 13 2 16 -3 3 -4 19 -11 35
-14 21 -4 30 -13 33 -29 2 -19 5 -16 15 15 8 28 8 36 0 31 -7 -3 -1 3 13 15
21 17 22 19 5 15 -18 -5 -20 0 -19 53 0 46 4 59 17 61 9 2 17 -2 17 -8 0 -6
-4 -9 -9 -6 -5 3 -11 0 -14 -7 -3 -8 1 -14 9 -14 17 0 24 19 19 48 -6 30 -13
35 -28 19 -8 -9 -8 -11 0 -6 6 3 14 2 17 -3 4 -5 -2 -8 -11 -7 -12 2 -18 13
-19 34 -1 35 7 40 30 17 8 -8 17 -11 20 -7 3 5 -6 14 -20 21 -31 14 -44 14
-44 0z"/>
<path d="M210 956 c0 -2 7 -7 16 -10 8 -3 12 -2 9 4 -6 10 -25 14 -25 6z"/>
<path d="M382 945 c2 -11 -3 -25 -11 -31 -11 -9 -12 -12 -1 -19 9 -5 11 -4 6
3 -4 7 -1 12 8 12 18 0 20 18 5 40 -8 12 -9 11 -7 -5z"/>
<path d="M420 955 c0 -3 2 -5 5 -5 3 0 5 2 5 5 0 3 -2 5 -5 5 -3 0 -5 -2 -5
-5z"/>
<path d="M462 939 c-8 -12 -10 -19 -5 -16 5 3 10 -39 10 -93 2 -109 -3 -117
-62 -106 -15 3 -25 2 -21 -1 4 -4 14 -8 23 -9 50 -8 63 -15 63 -37 1 -20 2
-20 11 -4 6 9 9 26 7 37 -2 10 6 26 17 34 l20 15 -20 -5 c-18 -5 -20 0 -18 43
2 60 0 58 18 43 8 -7 15 -10 15 -7 0 3 3 14 6 24 5 15 4 16 -5 3 -10 -13 -11
-12 -9 5 2 12 -3 20 -11 20 -9 0 -15 12 -16 33 -2 34 2 37 23 23 17 -10 17
-21 2 -31 -9 -5 -9 -9 -1 -14 6 -4 11 -3 11 3 0 6 6 8 14 5 25 -9 12 27 -15
42 -33 18 -42 17 -57 -7z m78 -14 c0 -3 -2 -5 -5 -5 -3 0 -5 2 -5 5 0 3 2 5 5
5 3 0 5 -2 5 -5z m-43 -62 c-4 -3 -10 -3 -14 0 -3 4 0 7 7 7 7 0 10 -3 7 -7z
m-37 -148 c0 -3 -2 -5 -5 -5 -3 0 -5 2 -5 5 0 3 2 5 5 5 3 0 5 -2 5 -5z"/>
<path d="M530 956 c0 -2 7 -7 16 -10 8 -3 12 -2 9 4 -6 10 -25 14 -25 6z"/>
<path d="M700 955 c0 -3 2 -5 5 -5 3 0 5 2 5 5 0 3 -2 5 -5 5 -3 0 -5 -2 -5
-5z"/>
<path d="M733 953 c4 -3 10 -3 14 0 3 4 0 7 -7 7 -7 0 -10 -3 -7 -7z"/>
<path d="M789 930 c-1 -16 -2 -36 -3 -42 -1 -9 -14 -12 -37 -10 -27 2 -36 -1
-36 -12 0 -9 4 -16 9 -16 5 0 6 -4 3 -10 -3 -5 -2 -10 3 -10 5 0 12 -12 15
-26 3 -19 1 -24 -10 -20 -8 3 -11 1 -8 -4 10 -16 42 -12 42 5 0 8 -4 15 -8 15
-4 0 -6 9 -4 20 3 13 0 18 -7 14 -7 -5 -9 -2 -5 9 3 9 1 18 -6 21 -7 2 -2 5
11 5 16 1 21 -3 16 -11 -5 -9 -2 -9 9 1 15 12 17 11 17 -13 0 -18 -4 -25 -12
-20 -7 5 -8 3 -2 -7 11 -18 15 -89 5 -89 -4 0 -8 -7 -8 -15 0 -8 4 -15 9 -15
4 0 8 -10 8 -22 0 -32 12 -14 15 22 1 17 11 37 21 45 18 14 18 14 -1 9 -18 -5
-20 0 -20 55 0 51 3 61 18 61 9 0 17 -5 17 -11 0 -5 -4 -7 -10 -4 -5 3 -10 2
-10 -4 0 -5 5 -13 10 -16 10 -6 11 -2 15 45 4 47 5 51 15 45 6 -3 7 1 4 10 -5
11 -2 14 12 9 16 -5 16 -4 4 5 -21 15 -30 14 -30 -4 0 -8 -8 -15 -17 -15 -15
0 -16 -2 -3 -10 12 -8 12 -10 1 -10 -11 0 -11 -3 0 -16 12 -14 11 -16 -6 -13
-14 3 -19 13 -20 37 -1 23 3 31 13 27 7 -2 10 0 7 5 -13 22 -35 10 -36 -20z"/>
<path d="M20 945 c0 -3 2 -5 5 -5 3 0 5 2 5 5 0 3 -2 5 -5 5 -3 0 -5 -2 -5 -5z"/>
<path d="M270 945 c0 -3 2 -5 5 -5 3 0 5 2 5 5 0 3 -2 5 -5 5 -3 0 -5 -2 -5
-5z"/>
<path d="M340 945 c0 -3 2 -5 5 -5 3 0 5 2 5 5 0 3 -2 5 -5 5 -3 0 -5 -2 -5
-5z"/>
<path d="M590 945 c0 -3 2 -5 5 -5 3 0 5 2 5 5 0 3 -2 5 -5 5 -3 0 -5 -2 -5
-5z"/>
<path d="M910 945 c0 -3 2 -5 5 -5 3 0 5 2 5 5 0 3 -2 5 -5 5 -3 0 -5 -2 -5
-5z"/>
<path d="M34 928 c-4 -7 -3 -8 4 -4 7 4 12 9 12 12 0 8 -9 4 -16 -8z"/>
<path d="M250 935 c0 -3 2 -5 5 -5 3 0 5 2 5 5 0 3 -2 5 -5 5 -3 0 -5 -2 -5
-5z"/>
<path d="M354 928 c-4 -7 -3 -8 4 -4 12 7 16 16 8 16 -3 0 -8 -5 -12 -12z"/>
<path d="M410 935 c0 -3 2 -5 5 -5 3 0 5 2 5 5 0 3 -2 5 -5 5 -3 0 -5 -2 -5
-5z"/>
<path d="M674 928 c-4 -7 -3 -8 4 -4 7 4 12 9 12 12 0 8 -9 4 -16 -8z"/>
<path d="M703 933 c4 -3 -1 -11 -10 -18 -13 -9 -13 -14 -3 -20 9 -5 11 -4 6 3
-4 7 -1 12 7 12 8 0 17 7 21 15 3 10 -1 15 -11 15 -9 0 -13 -3 -10 -7z"/>
<path d="M740 935 c0 -3 2 -5 5 -5 3 0 5 2 5 5 0 3 -2 5 -5 5 -3 0 -5 -2 -5
-5z"/>
<path d="M180 925 c0 -3 2 -5 5 -5 3 0 5 2 5 5 0 3 -2 5 -5 5 -3 0 -5 -2 -5
-5z"/>
<path d="M230 925 c0 -3 2 -5 5 -5 3 0 5 2 5 5 0 3 -2 5 -5 5 -3 0 -5 -2 -5
-5z"/>
<path d="M560 925 c0 -3 2 -5 5 -5 3 0 5 2 5 5 0 3 -2 5 -5 5 -3 0 -5 -2 -5
-5z"/>
<path d="M770 925 c0 -3 2 -5 5 -5 3 0 5 2 5 5 0 3 -2 5 -5 5 -3 0 -5 -2 -5
-5z"/>
<path d="M880 925 c0 -3 2 -5 5 -5 3 0 5 2 5 5 0 3 -2 5 -5 5 -3 0 -5 -2 -5
-5z"/>
<path d="M100 915 c0 -3 2 -5 5 -5 3 0 5 2 5 5 0 3 -2 5 -5 5 -3 0 -5 -2 -5
-5z"/>
<path d="M420 915 c0 -3 2 -5 5 -5 3 0 5 2 5 5 0 3 -2 5 -5 5 -3 0 -5 -2 -5
-5z"/>
<path d="M586 911 c-4 -5 -2 -12 3 -15 5 -4 12 -2 15 3 4 5 2 12 -3 15 -5 4
-12 2 -15 -3z m14 -6 c0 -3 -2 -5 -5 -5 -3 0 -5 2 -5 5 0 3 2 5 5 5 3 0 5 -2
5 -5z"/>
<path d="M749 912 c9 -7 10 -11 2 -15 -7 -4 -8 -5 0 -3 15 2 13 20 -3 24 -10
3 -10 2 1 -6z"/>
<path d="M43 889 c-2 -23 3 -25 10 -4 4 8 3 16 -1 19 -4 3 -9 -4 -9 -15z"/>
<path d="M213 903 c4 -3 10 -3 14 0 3 4 0 7 -7 7 -7 0 -10 -3 -7 -7z"/>
<path d="M266 898 c3 -5 10 -6 15 -3 13 9 11 12 -6 12 -8 0 -12 -4 -9 -9z"/>
<path d="M430 900 c-11 -7 -11 -10 -2 -10 7 0 10 -4 7 -10 -3 -5 -2 -10 4 -10
5 0 9 9 8 20 -1 11 -1 20 -2 20 0 0 -7 -5 -15 -10z"/>
<path d="M620 905 c0 -3 2 -5 5 -5 3 0 5 2 5 5 0 3 -2 5 -5 5 -3 0 -5 -2 -5
-5z"/>
<path d="M860 905 c0 -3 2 -5 5 -5 3 0 5 2 5 5 0 3 -2 5 -5 5 -3 0 -5 -2 -5
-5z"/>
<path d="M906 898 c3 -5 10 -6 15 -3 13 9 11 12 -6 12 -8 0 -12 -4 -9 -9z"/>
<path d="M940 905 c0 -3 2 -5 5 -5 3 0 5 2 5 5 0 3 -2 5 -5 5 -3 0 -5 -2 -5
-5z"/>
<path d="M80 895 c0 -3 2 -5 5 -5 3 0 5 2 5 5 0 3 -2 5 -5 5 -3 0 -5 -2 -5 -5z"/>
<path d="M110 893 c5 -2 8 -9 4 -14 -3 -5 0 -9 6 -9 15 0 7 23 -8 26 -7 1 -8
0 -2 -3z"/>
<path d="M230 890 c-9 -6 -10 -10 -3 -10 6 0 15 5 18 10 8 12 4 12 -15 0z"/>
<path d="M393 893 c4 -3 10 -3 14 0 3 4 0 7 -7 7 -7 0 -10 -3 -7 -7z"/>
<path d="M490 895 c0 -3 2 -5 5 -5 3 0 5 2 5 5 0 3 -2 5 -5 5 -3 0 -5 -2 -5
-5z"/>
<path d="M560 895 c0 -3 2 -5 5 -5 3 0 5 2 5 5 0 3 -2 5 -5 5 -3 0 -5 -2 -5
-5z"/>
<path d="M713 893 c4 -3 10 -3 14 0 3 4 0 7 -7 7 -7 0 -10 -3 -7 -7z"/>
<path d="M880 895 c0 -3 2 -5 5 -5 3 0 5 2 5 5 0 3 -2 5 -5 5 -3 0 -5 -2 -5
-5z"/>
<path d="M528 883 c7 -3 16 -2 19 1 4 3 -2 6 -13 5 -11 0 -14 -3 -6 -6z"/>
<path d="M860 885 c0 -3 2 -5 5 -5 3 0 5 2 5 5 0 3 -2 5 -5 5 -3 0 -5 -2 -5
-5z"/>
<path d="M73 865 c0 -8 4 -15 9 -15 5 0 6 -4 3 -10 -3 -5 -1 -10 4 -10 12 0
14 11 5 34 -8 20 -21 21 -21 1z"/>
<path d="M250 875 c0 -3 2 -5 5 -5 3 0 5 2 5 5 0 3 -2 5 -5 5 -3 0 -5 -2 -5
-5z"/>
<path d="M335 870 c3 -5 8 -10 11 -10 3 0 2 5 -1 10 -3 6 -8 10 -11 10 -3 0
-2 -4 1 -10z"/>
<path d="M370 875 c0 -3 2 -5 5 -5 3 0 5 2 5 5 0 3 -2 5 -5 5 -3 0 -5 -2 -5
-5z"/>
<path d="M402 856 c2 -20 5 -23 16 -13 10 7 10 13 3 15 -6 2 -9 8 -5 13 3 5 0
9 -5 9 -6 0 -10 -11 -9 -24z"/>
<path d="M550 865 c-7 -8 -9 -15 -4 -15 5 0 2 -5 -6 -10 -12 -7 -10 -9 7 -8
15 2 20 8 17 21 -2 13 1 17 12 13 9 -3 12 -1 9 4 -9 14 -21 12 -35 -5z m10
-10 c0 -3 -2 -5 -5 -5 -3 0 -5 2 -5 5 0 3 2 5 5 5 3 0 5 -2 5 -5z"/>
<path d="M678 873 c7 -3 16 -2 19 1 4 3 -2 6 -13 5 -11 0 -14 -3 -6 -6z"/>
<path d="M890 875 c0 -3 2 -5 5 -5 3 0 5 2 5 5 0 3 -2 5 -5 5 -3 0 -5 -2 -5
-5z"/>
<path d="M235 860 c3 -5 8 -10 11 -10 3 0 2 5 -1 10 -3 6 -8 10 -11 10 -3 0
-2 -4 1 -10z"/>
<path d="M866 862 c-3 -5 1 -9 9 -9 8 0 12 4 9 9 -3 4 -7 8 -9 8 -2 0 -6 -4
-9 -8z"/>
<path d="M43 853 c4 -3 10 -3 14 0 3 4 0 7 -7 7 -7 0 -10 -3 -7 -7z"/>
<path d="M120 855 c0 -3 2 -5 5 -5 3 0 5 2 5 5 0 3 -2 5 -5 5 -3 0 -5 -2 -5
-5z"/>
<path d="M370 855 c0 -3 2 -5 5 -5 3 0 5 2 5 5 0 3 -2 5 -5 5 -3 0 -5 -2 -5
-5z"/>
<path d="M443 854 c4 -7 0 -14 -8 -18 -17 -6 -20 -26 -4 -26 5 0 7 5 3 12 -5
7 -2 9 8 5 17 -6 19 16 3 30 -4 4 -5 3 -2 -3z"/>
<path d="M683 853 c4 -3 10 -3 14 0 3 4 0 7 -7 7 -7 0 -10 -3 -7 -7z"/>
<path d="M260 845 c0 -3 2 -5 5 -5 3 0 5 2 5 5 0 3 -2 5 -5 5 -3 0 -5 -2 -5
-5z"/>
<path d="M350 845 c0 -3 2 -5 5 -5 3 0 5 2 5 5 0 3 -2 5 -5 5 -3 0 -5 -2 -5
-5z"/>
<path d="M580 845 c0 -3 2 -5 5 -5 3 0 5 2 5 5 0 3 -2 5 -5 5 -3 0 -5 -2 -5
-5z"/>
<path d="M900 845 c0 -3 2 -5 5 -5 3 0 5 2 5 5 0 3 -2 5 -5 5 -3 0 -5 -2 -5
-5z"/>
<path d="M113 833 c4 -3 10 -3 14 0 3 4 0 7 -7 7 -7 0 -10 -3 -7 -7z"/>
<path d="M213 833 c4 -3 10 -3 14 0 3 4 0 7 -7 7 -7 0 -10 -3 -7 -7z"/>
<path d="M240 835 c0 -3 2 -5 5 -5 3 0 5 2 5 5 0 3 -2 5 -5 5 -3 0 -5 -2 -5
-5z"/>
<path d="M700 835 c0 -3 2 -5 5 -5 3 0 5 2 5 5 0 3 -2 5 -5 5 -3 0 -5 -2 -5
-5z"/>
<path d="M853 833 c4 -3 10 -3 14 0 3 4 0 7 -7 7 -7 0 -10 -3 -7 -7z"/>
<path d="M880 835 c0 -3 2 -5 5 -5 3 0 5 2 5 5 0 3 -2 5 -5 5 -3 0 -5 -2 -5
-5z"/>
<path d="M260 825 c0 -3 2 -5 5 -5 3 0 5 2 5 5 0 3 -2 5 -5 5 -3 0 -5 -2 -5
-5z"/>
<path d="M583 823 c4 -3 10 -3 14 0 3 4 0 7 -7 7 -7 0 -10 -3 -7 -7z"/>
<path d="M900 825 c0 -3 2 -5 5 -5 3 0 5 2 5 5 0 3 -2 5 -5 5 -3 0 -5 -2 -5
-5z"/>
<path d="M63 813 c4 -3 10 -3 14 0 3 4 0 7 -7 7 -7 0 -10 -3 -7 -7z"/>
<path d="M100 815 c0 -3 2 -5 5 -5 3 0 5 2 5 5 0 3 -2 5 -5 5 -3 0 -5 -2 -5
-5z"/>
<path d="M213 813 c4 -3 10 -3 14 0 3 4 0 7 -7 7 -7 0 -10 -3 -7 -7z"/>
<path d="M240 815 c0 -3 2 -5 5 -5 3 0 5 2 5 5 0 3 -2 5 -5 5 -3 0 -5 -2 -5
-5z"/>
<path d="M370 816 c0 -2 7 -6 15 -10 8 -3 15 -1 15 4 0 6 -7 10 -15 10 -8 0
-15 -2 -15 -4z"/>
<path d="M540 815 c0 -3 2 -5 5 -5 3 0 5 2 5 5 0 3 -2 5 -5 5 -3 0 -5 -2 -5
-5z"/>
<path d="M560 815 c0 -3 2 -5 5 -5 3 0 5 2 5 5 0 3 -2 5 -5 5 -3 0 -5 -2 -5
-5z"/>
<path d="M690 816 c0 -2 7 -6 15 -10 8 -3 15 -1 15 4 0 6 -7 10 -15 10 -8 0
-15 -2 -15 -4z"/>
<path d="M40 805 c0 -3 2 -5 5 -5 3 0 5 2 5 5 0 3 -2 5 -5 5 -3 0 -5 -2 -5 -5z"/>
<path d="M260 805 c0 -3 2 -5 5 -5 3 0 5 2 5 5 0 3 -2 5 -5 5 -3 0 -5 -2 -5
-5z"/>
<path d="M500 805 c0 -3 2 -5 5 -5 3 0 5 2 5 5 0 3 -2 5 -5 5 -3 0 -5 -2 -5
-5z"/>
<path d="M580 806 c0 -2 8 -10 18 -17 15 -13 16 -12 3 4 -13 16 -21 21 -21 13z"/>
<path d="M900 806 c0 -2 8 -10 18 -17 15 -13 16 -12 3 4 -13 16 -21 21 -21 13z"/>
<path d="M108 793 c7 -3 16 -2 19 1 4 3 -2 6 -13 5 -11 0 -14 -3 -6 -6z"/>
<path d="M190 795 c0 -3 2 -5 5 -5 3 0 5 2 5 5 0 3 -2 5 -5 5 -3 0 -5 -2 -5
-5z"/>
<path d="M223 785 c0 -8 7 -11 15 -7 11 4 13 1 7 -8 -5 -9 -4 -11 3 -6 17 11
15 23 -6 28 -11 3 -19 0 -19 -7z"/>
<path d="M409 795 c-1 -3 -2 -8 -3 -12 -3 -19 -18 -33 -29 -27 -7 4 -8 3 -4
-1 4 -5 13 -10 20 -11 7 -1 19 -4 27 -6 8 -3 12 -3 7 -1 -4 3 -5 9 -2 14 4 5
-2 6 -11 2 -13 -5 -15 -3 -8 8 9 16 15 39 8 39 -2 0 -5 -2 -5 -5z"/>
<path d="M438 793 c7 -3 16 -2 19 1 4 3 -2 6 -13 5 -11 0 -14 -3 -6 -6z"/>
<path d="M543 793 c4 -3 5 -8 3 -12 -3 -4 4 -7 15 -7 10 0 19 4 19 8 0 4 -4 8
-9 8 -5 0 -15 2 -23 3 -7 2 -10 2 -5 0z"/>
<path d="M840 795 c0 -3 2 -5 5 -5 3 0 5 2 5 5 0 3 -2 5 -5 5 -3 0 -5 -2 -5
-5z"/>
<path d="M872 786 c10 -7 14 -17 10 -21 -4 -5 -1 -5 6 -1 19 11 14 23 -10 29
-21 5 -21 5 -6 -7z"/>
<path d="M50 775 c5 -7 6 -16 2 -21 -4 -5 -3 -5 2 -1 15 12 15 34 0 34 -9 0
-11 -4 -4 -12z"/>
<path d="M83 776 c0 -6 11 -11 24 -11 30 0 30 11 0 17 -13 3 -24 0 -24 -6z"/>
<path d="M280 785 c0 -3 2 -5 5 -5 3 0 5 2 5 5 0 3 -2 5 -5 5 -3 0 -5 -2 -5
-5z"/>
<path d="M365 780 c3 -5 8 -10 11 -10 3 0 2 5 -1 10 -3 6 -8 10 -11 10 -3 0
-2 -4 1 -10z"/>
<path d="M695 781 c-3 -5 7 -19 21 -30 23 -18 21 -26 -7 -23 -3 1 -6 -5 -6
-12 0 -8 7 -12 16 -11 9 2 23 4 31 4 10 1 11 4 4 9 -6 4 -10 15 -8 25 1 9 -2
14 -7 11 -13 -7 -41 15 -33 27 3 5 3 9 0 9 -3 0 -7 -4 -11 -9z m35 -66 c0 -3
-2 -5 -5 -5 -3 0 -5 2 -5 5 0 3 2 5 5 5 3 0 5 -2 5 -5z"/>
<path d="M190 775 c0 -3 2 -5 5 -5 3 0 5 2 5 5 0 3 -2 5 -5 5 -3 0 -5 -2 -5
-5z"/>
<path d="M438 773 c7 -3 16 -2 19 1 4 3 -2 6 -13 5 -11 0 -14 -3 -6 -6z"/>
<path d="M510 775 c0 -3 2 -5 5 -5 3 0 5 2 5 5 0 3 -2 5 -5 5 -3 0 -5 -2 -5
-5z"/>
<path d="M830 775 c0 -3 2 -5 5 -5 3 0 5 2 5 5 0 3 -2 5 -5 5 -3 0 -5 -2 -5
-5z"/>
<path d="M450 750 c0 -7 3 -10 7 -7 3 4 3 10 0 14 -4 3 -7 0 -7 -7z"/>
<path d="M530 755 c0 -3 2 -5 5 -5 3 0 5 2 5 5 0 3 -2 5 -5 5 -3 0 -5 -2 -5
-5z"/>
<path d="M865 739 c3 -13 -2 -19 -15 -19 -10 0 -21 -3 -23 -7 -7 -11 70 -9 80
1 5 5 2 6 -6 1 -16 -9 -35 16 -20 26 7 4 5 8 -4 12 -11 4 -15 0 -12 -14z"/>
<path d="M560 745 c0 -3 2 -5 5 -5 3 0 5 2 5 5 0 3 -2 5 -5 5 -3 0 -5 -2 -5
-5z"/>
<path d="M770 745 c0 -3 2 -5 5 -5 3 0 5 2 5 5 0 3 -2 5 -5 5 -3 0 -5 -2 -5
-5z"/>
<path d="M200 735 c0 -3 2 -5 5 -5 3 0 5 2 5 5 0 3 -2 5 -5 5 -3 0 -5 -2 -5
-5z"/>
<path d="M225 730 c3 -6 1 -10 -6 -10 -7 0 -10 -3 -6 -6 3 -3 13 -2 22 4 16 8
16 9 1 15 -10 4 -15 3 -11 -3z"/>
<path d="M520 735 c0 -3 2 -5 5 -5 3 0 5 2 5 5 0 3 -2 5 -5 5 -3 0 -5 -2 -5
-5z"/>
<path d="M490 725 c0 -3 2 -5 5 -5 3 0 5 2 5 5 0 3 -2 5 -5 5 -3 0 -5 -2 -5
-5z"/>
<path d="M552 721 c-11 -6 -10 -10 4 -15 9 -4 22 -2 28 4 8 8 6 9 -8 4 -13 -5
-17 -4 -12 4 8 14 6 15 -12 3z"/>
<path d="M810 725 c0 -3 2 -5 5 -5 3 0 5 2 5 5 0 3 -2 5 -5 5 -3 0 -5 -2 -5
-5z"/>
<path d="M190 715 c0 -3 2 -5 5 -5 3 0 5 2 5 5 0 3 -2 5 -5 5 -3 0 -5 -2 -5
-5z"/>
<path d="M250 710 c-9 -6 -10 -10 -3 -10 6 0 15 5 18 10 8 12 4 12 -15 0z"/>
<path d="M505 710 c-3 -6 1 -7 9 -4 18 7 21 14 7 14 -6 0 -13 -4 -16 -10z"/>
<path d="M70 695 c0 -3 2 -5 5 -5 3 0 5 2 5 5 0 3 -2 5 -5 5 -3 0 -5 -2 -5 -5z"/>
<path d="M50 675 c0 -3 2 -5 5 -5 3 0 5 2 5 5 0 3 -2 5 -5 5 -3 0 -5 -2 -5 -5z"/>
<path d="M370 675 c0 -3 2 -5 5 -5 3 0 5 2 5 5 0 3 -2 5 -5 5 -3 0 -5 -2 -5
-5z"/>
<path d="M795 638 c-2 -7 -6 -29 -8 -48 -3 -33 -5 -35 -38 -32 -27 2 -36 -1
-36 -12 0 -9 4 -16 9 -16 5 0 6 -4 3 -10 -3 -5 -2 -10 3 -10 5 0 12 -12 15
-26 3 -19 1 -24 -10 -20 -8 3 -11 1 -8 -4 10 -16 42 -12 42 5 0 8 -4 15 -8 15
-4 0 -6 9 -4 20 3 13 0 18 -7 14 -7 -5 -9 -2 -5 9 3 9 1 18 -6 21 -7 2 -2 5
11 5 16 1 21 -3 16 -11 -5 -9 -2 -9 9 1 15 12 17 11 17 -13 0 -18 -4 -25 -12
-20 -7 5 -8 3 -2 -7 11 -18 15 -89 5 -89 -4 0 -8 -7 -8 -15 0 -8 4 -15 9 -15
4 0 8 -10 8 -22 0 -32 12 -14 15 22 1 17 11 37 21 45 18 14 18 14 -1 9 -18 -5
-20 0 -20 55 0 51 3 61 18 61 9 0 17 -5 17 -11 0 -5 -4 -7 -10 -4 -5 3 -10 2
-10 -4 0 -5 5 -13 10 -16 10 -6 11 -2 15 45 4 47 5 51 15 45 6 -3 7 1 4 10 -5
11 -2 14 12 9 16 -5 16 -4 4 5 -21 15 -30 14 -30 -4 0 -8 -8 -15 -17 -15 -15
0 -16 -2 -3 -10 12 -8 12 -10 1 -10 -11 0 -11 -3 0 -16 12 -14 11 -16 -6 -13
-14 3 -19 13 -20 37 -1 24 3 31 14 27 11 -4 12 -3 1 10 -15 18 -19 19 -25 3z"/>
<path d="M64 626 c4 -12 0 -23 -10 -31 -14 -9 -14 -14 -4 -20 9 -5 11 -4 6 3
-4 7 -2 12 3 12 6 0 11 -4 11 -10 0 -5 4 -10 9 -10 10 0 -3 58 -15 69 -4 3 -4
-2 0 -13z"/>
<path d="M93 633 c4 -3 10 -3 14 0 3 4 0 7 -7 7 -7 0 -10 -3 -7 -7z"/>
<path d="M142 619 c-8 -12 -9 -19 -4 -15 5 3 9 -19 9 -49 0 -44 -3 -52 -13
-44 -16 13 -30 6 -37 -21 -4 -15 0 -20 16 -20 12 0 18 4 12 8 -13 9 -17 32 -6
32 16 0 28 -24 29 -61 2 -29 -2 -38 -20 -46 l-23 -10 22 -7 c12 -4 23 -17 26
-29 3 -18 5 -16 14 13 5 19 8 39 5 44 -9 17 -9 71 1 84 6 7 6 12 -1 12 -6 0
-9 8 -8 18 3 19 36 30 36 12 0 -6 -4 -8 -10 -5 -6 4 -7 -1 -3 -11 6 -15 7 -15
15 1 6 9 7 19 4 22 -3 3 -1 13 4 22 7 13 4 17 -13 18 -17 2 -19 0 -7 -7 10 -7
11 -10 3 -10 -23 0 -27 5 -28 33 -1 19 3 26 13 22 7 -2 10 0 7 5 -10 16 -29
11 -43 -11z m28 -214 c0 -3 -2 -5 -5 -5 -3 0 -5 2 -5 5 0 3 2 5 5 5 3 0 5 -2
5 -5z m-30 -10 c0 -3 -2 -5 -5 -5 -3 0 -5 2 -5 5 0 3 2 5 5 5 3 0 5 -2 5 -5z"/>
<path d="M208 622 c-4 -14 1 -18 21 -19 14 0 18 1 9 4 -10 2 -18 8 -18 13 0 5
8 7 18 4 14 -5 15 -4 2 5 -21 15 -27 14 -32 -7z"/>
<path d="M380 635 c0 -3 2 -5 5 -5 3 0 5 2 5 5 0 3 -2 5 -5 5 -3 0 -5 -2 -5
-5z"/>
<path d="M420 635 c0 -3 2 -5 5 -5 3 0 5 2 5 5 0 3 -2 5 -5 5 -3 0 -5 -2 -5
-5z"/>
<path d="M462 619 c-8 -12 -10 -19 -5 -16 5 3 10 -39 10 -93 2 -109 -3 -117
-62 -106 -15 3 -25 2 -21 -1 4 -4 14 -8 23 -9 50 -8 63 -15 63 -37 1 -20 2
-20 11 -4 6 9 9 26 7 37 -2 10 6 26 17 34 l20 15 -20 -5 c-18 -5 -20 0 -18 43
2 60 0 58 18 43 8 -7 15 -10 15 -7 0 3 3 14 6 24 5 15 4 15 -5 3 -7 -9 -11
-11 -11 -3 0 7 8 17 18 22 14 8 12 10 -12 8 -26 -2 -29 1 -31 31 -2 34 2 37
23 23 17 -10 17 -21 2 -31 -9 -5 -9 -9 -1 -14 6 -4 11 -3 11 3 0 6 6 8 14 5
25 -9 12 27 -15 42 -33 18 -42 17 -57 -7z m78 -14 c0 -3 -2 -5 -5 -5 -3 0 -5
2 -5 5 0 3 2 5 5 5 3 0 5 -2 5 -5z m-43 -62 c-4 -3 -10 -3 -14 0 -3 4 0 7 7 7
7 0 10 -3 7 -7z m-37 -148 c0 -3 -2 -5 -5 -5 -3 0 -5 2 -5 5 0 3 2 5 5 5 3 0
5 -2 5 -5z"/>
<path d="M530 636 c0 -2 7 -7 16 -10 8 -3 12 -2 9 4 -6 10 -25 14 -25 6z"/>
<path d="M700 635 c0 -3 2 -5 5 -5 3 0 5 2 5 5 0 3 -2 5 -5 5 -3 0 -5 -2 -5
-5z"/>
<path d="M733 633 c4 -3 10 -3 14 0 3 4 0 7 -7 7 -7 0 -10 -3 -7 -7z"/>
<path d="M20 625 c0 -3 2 -5 5 -5 3 0 5 2 5 5 0 3 -2 5 -5 5 -3 0 -5 -2 -5 -5z"/>
<path d="M270 625 c0 -3 2 -5 5 -5 3 0 5 2 5 5 0 3 -2 5 -5 5 -3 0 -5 -2 -5
-5z"/>
<path d="M590 625 c0 -3 2 -5 5 -5 3 0 5 2 5 5 0 3 -2 5 -5 5 -3 0 -5 -2 -5
-5z"/>
<path d="M910 625 c0 -3 2 -5 5 -5 3 0 5 2 5 5 0 3 -2 5 -5 5 -3 0 -5 -2 -5
-5z"/>
<path d="M90 615 c0 -3 2 -5 5 -5 3 0 5 2 5 5 0 3 -2 5 -5 5 -3 0 -5 -2 -5 -5z"/>
<path d="M354 608 c-4 -7 -3 -8 4 -4 7 4 12 9 12 12 0 8 -9 4 -16 -8z"/>
<path d="M379 602 c-19 -21 -19 -44 1 -49 9 -3 11 -1 5 4 -16 13 -16 33 0 33
8 0 15 7 15 15 0 18 -1 18 -21 -3z"/>
<path d="M410 615 c0 -3 2 -5 5 -5 3 0 5 2 5 5 0 3 -2 5 -5 5 -3 0 -5 -2 -5
-5z"/>
<path d="M674 608 c-4 -7 -3 -8 4 -4 7 4 12 9 12 12 0 8 -9 4 -16 -8z"/>
<path d="M703 613 c4 -3 -1 -11 -10 -18 -13 -9 -13 -14 -3 -20 9 -5 11 -4 6 3
-4 7 -1 12 7 12 8 0 17 7 21 15 3 10 -1 15 -11 15 -9 0 -13 -3 -10 -7z"/>
<path d="M740 615 c0 -3 2 -5 5 -5 3 0 5 2 5 5 0 3 -2 5 -5 5 -3 0 -5 -2 -5
-5z"/>
<path d="M30 605 c0 -3 2 -5 5 -5 3 0 5 2 5 5 0 3 -2 5 -5 5 -3 0 -5 -2 -5 -5z"/>
<path d="M180 605 c0 -3 2 -5 5 -5 3 0 5 2 5 5 0 3 -2 5 -5 5 -3 0 -5 -2 -5
-5z"/>
<path d="M560 605 c0 -3 2 -5 5 -5 3 0 5 2 5 5 0 3 -2 5 -5 5 -3 0 -5 -2 -5
-5z"/>
<path d="M770 605 c0 -3 2 -5 5 -5 3 0 5 2 5 5 0 3 -2 5 -5 5 -3 0 -5 -2 -5
-5z"/>
<path d="M880 605 c0 -3 2 -5 5 -5 3 0 5 2 5 5 0 3 -2 5 -5 5 -3 0 -5 -2 -5
-5z"/>
<path d="M109 592 c11 -8 11 -10 0 -15 -11 -4 -11 -6 -1 -6 7 -1 10 -5 7 -11
-3 -5 -1 -10 4 -10 16 0 7 43 -10 48 -12 3 -12 2 0 -6z"/>
<path d="M269 596 c-1 -3 -2 -11 -3 -18 0 -6 -7 -13 -15 -16 -9 -3 -11 0 -6 8
6 9 4 11 -4 6 -7 -5 -10 -11 -7 -14 3 -3 1 -11 -5 -19 -6 -7 -8 -13 -3 -13 5
0 2 -5 -6 -10 -12 -7 -10 -9 6 -8 13 1 21 8 19 17 -1 8 10 24 23 36 17 15 22
24 14 29 -7 4 -13 5 -13 2z m11 -11 c0 -3 -2 -5 -5 -5 -3 0 -5 2 -5 5 0 3 2 5
5 5 3 0 5 -2 5 -5z m-40 -50 c0 -3 -2 -5 -5 -5 -3 0 -5 2 -5 5 0 3 2 5 5 5 3
0 5 -2 5 -5z"/>
<path d="M423 593 c4 -3 10 -3 14 0 3 4 0 7 -7 7 -7 0 -10 -3 -7 -7z"/>
<path d="M586 591 c-4 -5 -2 -12 3 -15 5 -4 12 -2 15 3 4 5 2 12 -3 15 -5 4
-12 2 -15 -3z m14 -6 c0 -3 -2 -5 -5 -5 -3 0 -5 2 -5 5 0 3 2 5 5 5 3 0 5 -2
5 -5z"/>
<path d="M749 592 c9 -7 10 -11 2 -15 -7 -4 -8 -5 0 -3 15 2 13 20 -3 24 -10
3 -10 2 1 -6z"/>
<path d="M300 585 c0 -3 2 -5 5 -5 3 0 5 2 5 5 0 3 -2 5 -5 5 -3 0 -5 -2 -5
-5z"/>
<path d="M620 585 c0 -3 2 -5 5 -5 3 0 5 2 5 5 0 3 -2 5 -5 5 -3 0 -5 -2 -5
-5z"/>
<path d="M860 585 c0 -3 2 -5 5 -5 3 0 5 2 5 5 0 3 -2 5 -5 5 -3 0 -5 -2 -5
-5z"/>
<path d="M906 578 c3 -5 10 -6 15 -3 13 9 11 12 -6 12 -8 0 -12 -4 -9 -9z"/>
<path d="M940 585 c0 -3 2 -5 5 -5 3 0 5 2 5 5 0 3 -2 5 -5 5 -3 0 -5 -2 -5
-5z"/>
<path d="M396 565 c4 -8 10 -15 15 -15 4 0 6 7 3 15 -4 8 -10 15 -15 15 -4 0
-6 -7 -3 -15z"/>
<path d="M430 573 c5 -2 8 -9 4 -14 -3 -5 0 -9 6 -9 15 0 7 23 -8 26 -7 1 -8
0 -2 -3z"/>
<path d="M490 575 c0 -3 2 -5 5 -5 3 0 5 2 5 5 0 3 -2 5 -5 5 -3 0 -5 -2 -5
-5z"/>
<path d="M559 575 c-1 -3 -2 -8 -3 -12 -1 -5 -5 -14 -9 -20 -5 -7 -5 -13 0
-13 4 0 1 -5 -7 -10 -12 -7 -10 -9 7 -8 15 2 20 8 17 21 -2 14 1 17 14 13 16
-6 16 -5 0 7 -10 8 -15 17 -11 20 3 4 3 7 0 7 -4 0 -8 -2 -8 -5z m1 -40 c0 -3
-2 -5 -5 -5 -3 0 -5 2 -5 5 0 3 2 5 5 5 3 0 5 -2 5 -5z"/>
<path d="M713 573 c4 -3 10 -3 14 0 3 4 0 7 -7 7 -7 0 -10 -3 -7 -7z"/>
<path d="M880 575 c0 -3 2 -5 5 -5 3 0 5 2 5 5 0 3 -2 5 -5 5 -3 0 -5 -2 -5
-5z"/>
<path d="M860 565 c0 -3 2 -5 5 -5 3 0 5 2 5 5 0 3 -2 5 -5 5 -3 0 -5 -2 -5
-5z"/>
<path d="M10 555 c0 -3 2 -5 5 -5 3 0 5 2 5 5 0 3 -2 5 -5 5 -3 0 -5 -2 -5 -5z"/>
<path d="M30 555 c0 -3 2 -5 5 -5 3 0 5 2 5 5 0 3 -2 5 -5 5 -3 0 -5 -2 -5 -5z"/>
<path d="M50 555 c0 -3 2 -5 5 -5 3 0 5 2 5 5 0 3 -2 5 -5 5 -3 0 -5 -2 -5 -5z"/>
<path d="M73 548 c3 -17 19 -28 29 -22 5 3 2 12 -6 20 -18 17 -27 18 -23 2z"/>
<path d="M335 550 c3 -5 8 -10 11 -10 3 0 2 5 -1 10 -3 6 -8 10 -11 10 -3 0
-2 -4 1 -10z"/>
<path d="M678 553 c7 -3 16 -2 19 1 4 3 -2 6 -13 5 -11 0 -14 -3 -6 -6z"/>
<path d="M890 555 c0 -3 2 -5 5 -5 3 0 5 2 5 5 0 3 -2 5 -5 5 -3 0 -5 -2 -5
-5z"/>
<path d="M866 542 c-3 -5 1 -9 9 -9 8 0 12 4 9 9 -3 4 -7 8 -9 8 -2 0 -6 -4
-9 -8z"/>
<path d="M43 533 c4 -3 10 -3 14 0 3 4 0 7 -7 7 -7 0 -10 -3 -7 -7z"/>
<path d="M120 535 c0 -3 2 -5 5 -5 3 0 5 2 5 5 0 3 -2 5 -5 5 -3 0 -5 -2 -5
-5z"/>
<path d="M370 535 c0 -3 2 -5 5 -5 3 0 5 2 5 5 0 3 -2 5 -5 5 -3 0 -5 -2 -5
-5z"/>
<path d="M403 525 c0 -8 4 -15 8 -15 4 0 9 7 13 15 3 9 0 15 -8 15 -7 0 -13
-7 -13 -15z"/>
<path d="M440 535 c0 -3 2 -5 5 -5 3 0 5 2 5 5 0 3 -2 5 -5 5 -3 0 -5 -2 -5
-5z"/>
<path d="M683 533 c4 -3 10 -3 14 0 3 4 0 7 -7 7 -7 0 -10 -3 -7 -7z"/>
<path d="M260 525 c0 -3 2 -5 5 -5 3 0 5 2 5 5 0 3 -2 5 -5 5 -3 0 -5 -2 -5
-5z"/>
<path d="M580 525 c0 -3 2 -5 5 -5 3 0 5 2 5 5 0 3 -2 5 -5 5 -3 0 -5 -2 -5
-5z"/>
<path d="M900 525 c0 -3 2 -5 5 -5 3 0 5 2 5 5 0 3 -2 5 -5 5 -3 0 -5 -2 -5
-5z"/>
<path d="M60 515 c0 -3 2 -5 5 -5 3 0 5 2 5 5 0 3 -2 5 -5 5 -3 0 -5 -2 -5 -5z"/>
<path d="M373 513 c4 -3 10 -3 14 0 3 4 0 7 -7 7 -7 0 -10 -3 -7 -7z"/>
<path d="M430 515 c0 -3 2 -5 5 -5 3 0 5 2 5 5 0 3 -2 5 -5 5 -3 0 -5 -2 -5
-5z"/>
<path d="M700 515 c0 -3 2 -5 5 -5 3 0 5 2 5 5 0 3 -2 5 -5 5 -3 0 -5 -2 -5
-5z"/>
<path d="M853 513 c4 -3 10 -3 14 0 3 4 0 7 -7 7 -7 0 -10 -3 -7 -7z"/>
<path d="M880 515 c0 -3 2 -5 5 -5 3 0 5 2 5 5 0 3 -2 5 -5 5 -3 0 -5 -2 -5
-5z"/>
<path d="M263 503 c4 -3 10 -3 14 0 3 4 0 7 -7 7 -7 0 -10 -3 -7 -7z"/>
<path d="M583 503 c4 -3 10 -3 14 0 3 4 0 7 -7 7 -7 0 -10 -3 -7 -7z"/>
<path d="M900 505 c0 -3 2 -5 5 -5 3 0 5 2 5 5 0 3 -2 5 -5 5 -3 0 -5 -2 -5
-5z"/>
<path d="M65 490 c3 -5 8 -10 11 -10 2 0 4 5 4 10 0 6 -5 10 -11 10 -5 0 -7
-4 -4 -10z"/>
<path d="M240 495 c0 -3 2 -5 5 -5 3 0 5 2 5 5 0 3 -2 5 -5 5 -3 0 -5 -2 -5
-5z"/>
<path d="M366 492 c-2 -4 4 -8 15 -8 10 0 19 4 19 8 0 4 -6 8 -14 8 -8 0 -17
-4 -20 -8z"/>
<path d="M414 483 c-4 -10 -8 -20 -8 -23 -4 -17 -19 -29 -29 -24 -7 4 -8 3 -4
-1 4 -5 13 -10 20 -11 7 -1 19 -4 27 -6 8 -3 12 -3 7 -1 -4 3 -5 9 -2 14 4 5
-2 6 -11 2 -13 -5 -15 -3 -8 8 5 8 9 19 9 24 0 6 11 9 25 8 15 -1 18 0 7 3 -9
3 -15 10 -12 15 4 5 2 9 -3 9 -6 0 -13 -8 -18 -17z"/>
<path d="M540 495 c0 -3 2 -5 5 -5 3 0 5 2 5 5 0 3 -2 5 -5 5 -3 0 -5 -2 -5
-5z"/>
<path d="M560 495 c0 -3 2 -5 5 -5 3 0 5 2 5 5 0 3 -2 5 -5 5 -3 0 -5 -2 -5
-5z"/>
<path d="M690 496 c0 -2 7 -6 15 -10 8 -3 15 -1 15 4 0 6 -7 10 -15 10 -8 0
-15 -2 -15 -4z"/>
<path d="M180 485 c0 -3 2 -5 5 -5 3 0 5 2 5 5 0 3 -2 5 -5 5 -3 0 -5 -2 -5
-5z"/>
<path d="M500 485 c0 -3 2 -5 5 -5 3 0 5 2 5 5 0 3 -2 5 -5 5 -3 0 -5 -2 -5
-5z"/>
<path d="M580 486 c0 -2 8 -10 18 -17 15 -13 16 -12 3 4 -13 16 -21 21 -21 13z"/>
<path d="M900 486 c0 -2 8 -10 18 -17 15 -13 16 -12 3 4 -13 16 -21 21 -21 13z"/>
<path d="M200 475 c0 -3 2 -5 5 -5 3 0 5 2 5 5 0 3 -2 5 -5 5 -3 0 -5 -2 -5
-5z"/>
<path d="M275 470 c3 -5 8 -10 11 -10 3 0 2 5 -1 10 -3 6 -8 10 -11 10 -3 0
-2 -4 1 -10z"/>
<path d="M543 473 c4 -3 5 -8 3 -12 -3 -4 4 -7 15 -7 10 0 19 4 19 8 0 4 -4 8
-9 8 -5 0 -15 2 -23 3 -7 2 -10 2 -5 0z"/>
<path d="M840 475 c0 -3 2 -5 5 -5 3 0 5 2 5 5 0 3 -2 5 -5 5 -3 0 -5 -2 -5
-5z"/>
<path d="M872 466 c10 -7 14 -17 10 -21 -4 -5 -1 -5 6 -1 19 11 14 23 -10 29
-21 5 -21 5 -6 -7z"/>
<path d="M46 458 c3 -5 10 -6 15 -3 13 9 11 12 -6 12 -8 0 -12 -4 -9 -9z"/>
<path d="M225 460 c-4 -6 1 -7 11 -3 13 5 15 3 9 -7 -5 -9 -4 -11 3 -6 7 4 12
11 12 17 0 12 -27 12 -35 -1z"/>
<path d="M365 460 c3 -5 8 -10 11 -10 3 0 2 5 -1 10 -3 6 -8 10 -11 10 -3 0
-2 -4 1 -10z"/>
<path d="M695 461 c-3 -5 7 -19 21 -30 23 -18 21 -26 -7 -23 -3 1 -6 -5 -6
-12 0 -8 7 -12 16 -11 9 2 23 4 31 4 10 1 11 4 4 9 -6 4 -10 15 -8 25 1 9 -2
14 -7 11 -13 -7 -41 15 -33 27 3 5 3 9 0 9 -3 0 -7 -4 -11 -9z m35 -66 c0 -3
-2 -5 -5 -5 -3 0 -5 2 -5 5 0 3 2 5 5 5 3 0 5 -2 5 -5z"/>
<path d="M83 448 c-11 -19 -12 -37 -2 -44 5 -3 6 -11 3 -17 -5 -9 -4 -9 5 -1
6 6 13 20 16 32 3 16 0 19 -12 15 -11 -5 -14 -3 -9 6 5 7 17 11 27 8 10 -3 22
-1 25 4 3 5 -6 9 -20 9 -14 0 -28 -6 -33 -12z m14 -35 c-4 -3 -10 -3 -14 0 -3
4 0 7 7 7 7 0 10 -3 7 -7z"/>
<path d="M189 458 c-5 -18 -6 -38 -1 -34 7 8 12 36 6 36 -2 0 -4 -1 -5 -2z"/>
<path d="M438 453 c7 -3 16 -2 19 1 4 3 -2 6 -13 5 -11 0 -14 -3 -6 -6z"/>
<path d="M510 455 c0 -3 2 -5 5 -5 3 0 5 2 5 5 0 3 -2 5 -5 5 -3 0 -5 -2 -5
-5z"/>
<path d="M830 455 c0 -3 2 -5 5 -5 3 0 5 2 5 5 0 3 -2 5 -5 5 -3 0 -5 -2 -5
-5z"/>
<path d="M450 430 c0 -7 3 -10 7 -7 3 4 3 10 0 14 -4 3 -7 0 -7 -7z"/>
<path d="M530 435 c0 -3 2 -5 5 -5 3 0 5 2 5 5 0 3 -2 5 -5 5 -3 0 -5 -2 -5
-5z"/>
<path d="M865 419 c3 -13 -2 -19 -15 -19 -10 0 -21 -3 -23 -7 -7 -11 70 -9 80
1 5 5 2 6 -6 1 -16 -9 -35 16 -20 26 7 4 5 8 -4 12 -11 4 -15 0 -12 -14z"/>
<path d="M130 425 c0 -3 2 -5 5 -5 3 0 5 2 5 5 0 3 -2 5 -5 5 -3 0 -5 -2 -5
-5z"/>
<path d="M560 425 c0 -3 2 -5 5 -5 3 0 5 2 5 5 0 3 -2 5 -5 5 -3 0 -5 -2 -5
-5z"/>
<path d="M770 425 c0 -3 2 -5 5 -5 3 0 5 2 5 5 0 3 -2 5 -5 5 -3 0 -5 -2 -5
-5z"/>
<path d="M200 415 c0 -3 2 -5 5 -5 3 0 5 2 5 5 0 3 -2 5 -5 5 -3 0 -5 -2 -5
-5z"/>
<path d="M520 415 c0 -3 2 -5 5 -5 3 0 5 2 5 5 0 3 -2 5 -5 5 -3 0 -5 -2 -5
-5z"/>
<path d="M254 402 c4 -7 -6 -9 -31 -7 l-38 5 35 -10 c35 -9 62 1 39 15 -7 5
-10 4 -5 -3z"/>
<path d="M490 405 c0 -3 2 -5 5 -5 3 0 5 2 5 5 0 3 -2 5 -5 5 -3 0 -5 -2 -5
-5z"/>
<path d="M552 401 c-11 -6 -10 -10 4 -15 9 -4 22 -2 28 4 8 8 6 9 -8 4 -13 -5
-17 -4 -12 4 8 14 6 15 -12 3z"/>
<path d="M810 405 c0 -3 2 -5 5 -5 3 0 5 2 5 5 0 3 -2 5 -5 5 -3 0 -5 -2 -5
-5z"/>
<path d="M505 390 c-3 -6 1 -7 9 -4 18 7 21 14 7 14 -6 0 -13 -4 -16 -10z"/>
<path d="M54 358 c-4 -7 -3 -8 4 -4 7 4 12 9 12 12 0 8 -9 4 -16 -8z"/>
<path d="M370 355 c0 -3 2 -5 5 -5 3 0 5 2 5 5 0 3 -2 5 -5 5 -3 0 -5 -2 -5
-5z"/>
<path d="M785 303 c-10 -14 -13 -23 -8 -20 5 3 10 -37 10 -93 2 -109 -3 -117
-62 -106 -15 3 -25 2 -21 -1 4 -4 14 -8 23 -9 50 -8 63 -15 63 -37 1 -20 2
-20 11 -4 6 9 9 26 7 37 -2 10 6 26 17 34 l20 15 -20 -5 c-18 -5 -20 0 -18 43
2 60 0 58 17 44 11 -9 15 -8 20 5 9 23 7 31 -4 14 -6 -9 -10 -10 -10 -3 0 7 8
17 18 22 14 8 12 10 -12 8 -26 -2 -29 1 -31 31 -2 34 2 37 23 23 17 -10 17
-21 2 -31 -9 -5 -9 -9 -1 -14 6 -4 11 -3 11 3 0 6 6 8 14 5 28 -11 10 27 -21
46 l-31 19 -17 -26z m75 -18 c0 -3 -2 -5 -5 -5 -3 0 -5 2 -5 5 0 3 2 5 5 5 3
0 5 -2 5 -5z m-43 -62 c-4 -3 -10 -3 -14 0 -3 4 0 7 7 7 7 0 10 -3 7 -7z m-37
-148 c0 -3 -2 -5 -5 -5 -3 0 -5 2 -5 5 0 3 2 5 5 5 3 0 5 -2 5 -5z"/>
<path d="M62 305 c2 -11 -3 -25 -11 -31 -11 -9 -12 -12 -1 -19 9 -5 11 -4 6 3
-4 7 -1 12 8 12 18 0 20 18 5 40 -8 12 -9 11 -7 -5z"/>
<path d="M100 315 c0 -3 2 -5 5 -5 3 0 5 2 5 5 0 3 -2 5 -5 5 -3 0 -5 -2 -5
-5z"/>
<path d="M142 299 c-8 -12 -10 -19 -5 -16 5 3 10 -39 10 -93 2 -109 -3 -117
-62 -106 -15 3 -25 2 -21 -1 4 -4 14 -8 23 -9 50 -8 63 -15 63 -37 1 -20 2
-20 11 -4 6 9 9 26 7 37 -2 10 6 26 17 34 l20 15 -20 -5 c-18 -5 -20 0 -18 43
2 60 0 58 18 43 8 -7 15 -10 15 -7 0 3 3 14 6 24 5 15 4 16 -5 3 -10 -13 -11
-12 -9 5 2 12 -3 20 -11 20 -9 0 -15 12 -16 33 -2 34 2 37 23 23 17 -10 17
-21 2 -31 -9 -5 -9 -9 -1 -14 6 -4 11 -3 11 3 0 6 6 8 14 5 25 -9 12 27 -15
42 -33 18 -42 17 -57 -7z m78 -14 c0 -3 -2 -5 -5 -5 -3 0 -5 2 -5 5 0 3 2 5 5
5 3 0 5 -2 5 -5z m-43 -62 c-4 -3 -10 -3 -14 0 -3 4 0 7 7 7 7 0 10 -3 7 -7z
m-37 -148 c0 -3 -2 -5 -5 -5 -3 0 -5 2 -5 5 0 3 2 5 5 5 3 0 5 -2 5 -5z"/>
<path d="M210 316 c0 -2 7 -7 16 -10 8 -3 12 -2 9 4 -6 10 -25 14 -25 6z"/>
<path d="M380 315 c0 -3 2 -5 5 -5 3 0 5 2 5 5 0 3 -2 5 -5 5 -3 0 -5 -2 -5
-5z"/>
<path d="M413 313 c4 -3 10 -3 14 0 3 4 0 7 -7 7 -7 0 -10 -3 -7 -7z"/>
<path d="M469 290 c-1 -16 -2 -36 -3 -42 -1 -9 -14 -12 -37 -10 -27 2 -36 -1
-36 -12 0 -9 4 -16 9 -16 5 0 6 -4 3 -10 -3 -5 -2 -10 3 -10 5 0 12 -12 15
-26 3 -19 1 -24 -10 -20 -8 3 -11 1 -8 -4 10 -16 42 -12 42 5 0 8 -4 15 -8 15
-4 0 -6 9 -4 20 3 13 0 18 -7 14 -7 -5 -9 -2 -5 9 3 9 1 18 -6 21 -7 2 -2 5
11 5 16 1 21 -3 16 -11 -5 -9 -2 -9 9 1 15 12 17 11 17 -13 0 -18 -4 -25 -12
-20 -7 5 -8 3 -2 -7 11 -18 15 -89 5 -89 -4 0 -8 -7 -8 -15 0 -8 4 -15 9 -15
4 0 8 -10 8 -22 0 -32 12 -14 15 22 1 17 11 37 21 45 18 14 18 14 -1 9 -18 -5
-20 0 -20 55 0 51 3 61 18 61 9 0 17 -5 17 -11 0 -5 -4 -7 -10 -4 -5 3 -10 2
-10 -4 0 -5 5 -13 10 -16 10 -6 11 -2 15 45 4 47 5 51 15 45 6 -3 7 1 4 10 -5
11 -2 14 12 9 16 -5 16 -4 4 5 -21 15 -30 14 -30 -4 0 -8 -8 -15 -17 -15 -15
0 -16 -2 -3 -10 12 -8 12 -10 1 -10 -11 0 -11 -3 0 -16 12 -14 11 -16 -6 -13
-14 3 -19 13 -20 37 -1 23 3 31 13 27 7 -2 10 0 7 5 -13 22 -35 10 -36 -20z"/>
<path d="M700 315 c0 -3 2 -5 5 -5 3 0 5 2 5 5 0 3 -2 5 -5 5 -3 0 -5 -2 -5
-5z"/>
<path d="M740 315 c0 -3 2 -5 5 -5 3 0 5 2 5 5 0 3 -2 5 -5 5 -3 0 -5 -2 -5
-5z"/>
<path d="M850 316 c0 -2 7 -7 16 -10 8 -3 12 -2 9 4 -6 10 -25 14 -25 6z"/>
<path d="M20 305 c0 -3 2 -5 5 -5 3 0 5 2 5 5 0 3 -2 5 -5 5 -3 0 -5 -2 -5 -5z"/>
<path d="M270 305 c0 -3 2 -5 5 -5 3 0 5 2 5 5 0 3 -2 5 -5 5 -3 0 -5 -2 -5
-5z"/>
<path d="M590 305 c0 -3 2 -5 5 -5 3 0 5 2 5 5 0 3 -2 5 -5 5 -3 0 -5 -2 -5
-5z"/>
<path d="M660 305 c0 -3 2 -5 5 -5 3 0 5 2 5 5 0 3 -2 5 -5 5 -3 0 -5 -2 -5
-5z"/>
<path d="M910 305 c0 -3 2 -5 5 -5 3 0 5 2 5 5 0 3 -2 5 -5 5 -3 0 -5 -2 -5
-5z"/>
<path d="M34 288 c-4 -7 -3 -8 4 -4 12 7 16 16 8 16 -3 0 -8 -5 -12 -12z"/>
<path d="M90 295 c0 -3 2 -5 5 -5 3 0 5 2 5 5 0 3 -2 5 -5 5 -3 0 -5 -2 -5 -5z"/>
<path d="M354 288 c-4 -7 -3 -8 4 -4 12 7 16 16 8 16 -3 0 -8 -5 -12 -12z"/>
<path d="M383 293 c4 -3 -1 -11 -10 -18 -13 -9 -13 -14 -3 -20 9 -5 11 -4 6 3
-4 7 -1 12 7 12 8 0 17 7 21 15 3 10 -1 15 -11 15 -9 0 -13 -3 -10 -7z"/>
<path d="M420 295 c0 -3 2 -5 5 -5 3 0 5 2 5 5 0 3 -2 5 -5 5 -3 0 -5 -2 -5
-5z"/>
<path d="M674 288 c-4 -7 -3 -8 4 -4 7 4 12 9 12 12 0 8 -9 4 -16 -8z"/>
<path d="M730 295 c0 -3 2 -5 5 -5 3 0 5 2 5 5 0 3 -2 5 -5 5 -3 0 -5 -2 -5
-5z"/>
<path d="M240 285 c0 -3 2 -5 5 -5 3 0 5 2 5 5 0 3 -2 5 -5 5 -3 0 -5 -2 -5
-5z"/>
<path d="M450 285 c0 -3 2 -5 5 -5 3 0 5 2 5 5 0 3 -2 5 -5 5 -3 0 -5 -2 -5
-5z"/>
<path d="M560 285 c0 -3 2 -5 5 -5 3 0 5 2 5 5 0 3 -2 5 -5 5 -3 0 -5 -2 -5
-5z"/>
<path d="M695 275 c-14 -11 -15 -13 -3 -9 11 4 18 -1 23 -15 3 -12 11 -21 16
-21 6 0 6 7 1 18 -5 9 -11 23 -13 30 -3 10 -9 9 -24 -3z"/>
<path d="M880 285 c0 -3 2 -5 5 -5 3 0 5 2 5 5 0 3 -2 5 -5 5 -3 0 -5 -2 -5
-5z"/>
<path d="M100 275 c0 -3 2 -5 5 -5 3 0 5 2 5 5 0 3 -2 5 -5 5 -3 0 -5 -2 -5
-5z"/>
<path d="M266 271 c-4 -5 -2 -12 3 -15 5 -4 12 -2 15 3 4 5 2 12 -3 15 -5 4
-12 2 -15 -3z m14 -6 c0 -3 -2 -5 -5 -5 -3 0 -5 2 -5 5 0 3 2 5 5 5 3 0 5 -2
5 -5z"/>
<path d="M429 272 c9 -7 10 -11 2 -15 -7 -4 -8 -5 0 -3 15 2 13 20 -3 24 -10
3 -10 2 1 -6z"/>
<path d="M743 273 c4 -3 10 -3 14 0 3 4 0 7 -7 7 -7 0 -10 -3 -7 -7z"/>
<path d="M906 271 c-4 -5 -2 -12 3 -15 5 -4 12 -2 15 3 4 5 2 12 -3 15 -5 4
-12 2 -15 -3z m14 -6 c0 -3 -2 -5 -5 -5 -3 0 -5 2 -5 5 0 3 2 5 5 5 3 0 5 -2
5 -5z"/>
<path d="M110 260 c-11 -7 -11 -10 -2 -10 7 0 10 -4 7 -10 -3 -5 -2 -10 4 -10
5 0 9 9 8 20 -1 11 -1 20 -2 20 0 0 -7 -5 -15 -10z"/>
<path d="M300 265 c0 -3 2 -5 5 -5 3 0 5 2 5 5 0 3 -2 5 -5 5 -3 0 -5 -2 -5
-5z"/>
<path d="M540 265 c0 -3 2 -5 5 -5 3 0 5 2 5 5 0 3 -2 5 -5 5 -3 0 -5 -2 -5
-5z"/>
<path d="M586 258 c3 -5 10 -6 15 -3 13 9 11 12 -6 12 -8 0 -12 -4 -9 -9z"/>
<path d="M620 265 c0 -3 2 -5 5 -5 3 0 5 2 5 5 0 3 -2 5 -5 5 -3 0 -5 -2 -5
-5z"/>
<path d="M940 265 c0 -3 2 -5 5 -5 3 0 5 2 5 5 0 3 -2 5 -5 5 -3 0 -5 -2 -5
-5z"/>
<path d="M73 253 c4 -3 10 -3 14 0 3 4 0 7 -7 7 -7 0 -10 -3 -7 -7z"/>
<path d="M170 255 c0 -3 2 -5 5 -5 3 0 5 2 5 5 0 3 -2 5 -5 5 -3 0 -5 -2 -5
-5z"/>
<path d="M240 255 c0 -3 2 -5 5 -5 3 0 5 2 5 5 0 3 -2 5 -5 5 -3 0 -5 -2 -5
-5z"/>
<path d="M393 253 c4 -3 10 -3 14 0 3 4 0 7 -7 7 -7 0 -10 -3 -7 -7z"/>
<path d="M560 255 c0 -3 2 -5 5 -5 3 0 5 2 5 5 0 3 -2 5 -5 5 -3 0 -5 -2 -5
-5z"/>
<path d="M750 253 c5 -2 8 -9 4 -14 -3 -5 0 -9 6 -9 15 0 7 23 -8 26 -7 1 -8
0 -2 -3z"/>
<path d="M810 255 c0 -3 2 -5 5 -5 3 0 5 2 5 5 0 3 -2 5 -5 5 -3 0 -5 -2 -5
-5z"/>
<path d="M879 255 c-1 -3 -2 -8 -3 -12 -1 -5 -5 -14 -9 -20 -5 -7 -5 -13 0
-13 4 0 1 -5 -7 -10 -12 -7 -10 -9 7 -8 15 2 20 8 17 21 -2 14 1 17 14 13 16
-6 16 -5 0 7 -10 8 -15 17 -11 20 3 4 3 7 0 7 -4 0 -8 -2 -8 -5z m1 -40 c0 -3
-2 -5 -5 -5 -3 0 -5 2 -5 5 0 3 2 5 5 5 3 0 5 -2 5 -5z"/>
<path d="M208 243 c7 -3 16 -2 19 1 4 3 -2 6 -13 5 -11 0 -14 -3 -6 -6z"/>
<path d="M540 245 c0 -3 2 -5 5 -5 3 0 5 2 5 5 0 3 -2 5 -5 5 -3 0 -5 -2 -5
-5z"/>
<path d="M687 239 c7 -7 15 -10 18 -7 3 3 -2 9 -12 12 -14 6 -15 5 -6 -5z"/>
<path d="M15 230 c3 -5 8 -10 11 -10 3 0 2 5 -1 10 -3 6 -8 10 -11 10 -3 0 -2
-4 1 -10z"/>
<path d="M50 235 c0 -3 2 -5 5 -5 3 0 5 2 5 5 0 3 -2 5 -5 5 -3 0 -5 -2 -5 -5z"/>
<path d="M82 216 c2 -20 5 -23 16 -13 10 7 10 13 3 15 -6 2 -9 8 -5 13 3 5 0
9 -5 9 -6 0 -10 -11 -9 -24z"/>
<path d="M230 225 c-7 -8 -9 -15 -4 -15 5 0 2 -5 -6 -10 -12 -7 -10 -9 7 -8
15 2 20 8 17 21 -2 13 1 17 12 13 9 -3 12 -1 9 4 -9 14 -21 12 -35 -5z m10
-10 c0 -3 -2 -5 -5 -5 -3 0 -5 2 -5 5 0 3 2 5 5 5 3 0 5 -2 5 -5z"/>
<path d="M358 233 c7 -3 16 -2 19 1 4 3 -2 6 -13 5 -11 0 -14 -3 -6 -6z"/>
<path d="M570 235 c0 -3 2 -5 5 -5 3 0 5 2 5 5 0 3 -2 5 -5 5 -3 0 -5 -2 -5
-5z"/>
<path d="M655 230 c3 -5 8 -10 11 -10 3 0 2 5 -1 10 -3 6 -8 10 -11 10 -3 0
-2 -4 1 -10z"/>
<path d="M546 222 c-3 -5 1 -9 9 -9 8 0 12 4 9 9 -3 4 -7 8 -9 8 -2 0 -6 -4
-9 -8z"/>
<path d="M50 215 c0 -3 2 -5 5 -5 3 0 5 2 5 5 0 3 -2 5 -5 5 -3 0 -5 -2 -5 -5z"/>
<path d="M123 214 c4 -7 0 -14 -8 -18 -17 -6 -20 -26 -4 -26 5 0 7 5 3 12 -5
7 -2 9 8 5 17 -6 19 16 3 30 -4 4 -5 3 -2 -3z"/>
<path d="M363 213 c4 -3 10 -3 14 0 3 4 0 7 -7 7 -7 0 -10 -3 -7 -7z"/>
<path d="M690 215 c0 -3 2 -5 5 -5 3 0 5 2 5 5 0 3 -2 5 -5 5 -3 0 -5 -2 -5
-5z"/>
<path d="M723 205 c0 -8 4 -15 8 -15 4 0 9 7 13 15 3 9 0 15 -8 15 -7 0 -13
-7 -13 -15z"/>
<path d="M760 215 c0 -3 2 -5 5 -5 3 0 5 2 5 5 0 3 -2 5 -5 5 -3 0 -5 -2 -5
-5z"/>
<path d="M30 205 c0 -3 2 -5 5 -5 3 0 5 2 5 5 0 3 -2 5 -5 5 -3 0 -5 -2 -5 -5z"/>
<path d="M260 205 c0 -3 2 -5 5 -5 3 0 5 2 5 5 0 3 -2 5 -5 5 -3 0 -5 -2 -5
-5z"/>
<path d="M580 205 c0 -3 2 -5 5 -5 3 0 5 2 5 5 0 3 -2 5 -5 5 -3 0 -5 -2 -5
-5z"/>
<path d="M900 205 c0 -3 2 -5 5 -5 3 0 5 2 5 5 0 3 -2 5 -5 5 -3 0 -5 -2 -5
-5z"/>
<path d="M380 195 c0 -3 2 -5 5 -5 3 0 5 2 5 5 0 3 -2 5 -5 5 -3 0 -5 -2 -5
-5z"/>
<path d="M533 193 c4 -3 10 -3 14 0 3 4 0 7 -7 7 -7 0 -10 -3 -7 -7z"/>
<path d="M560 195 c0 -3 2 -5 5 -5 3 0 5 2 5 5 0 3 -2 5 -5 5 -3 0 -5 -2 -5
-5z"/>
<path d="M693 193 c4 -3 10 -3 14 0 3 4 0 7 -7 7 -7 0 -10 -3 -7 -7z"/>
<path d="M750 195 c0 -3 2 -5 5 -5 3 0 5 2 5 5 0 3 -2 5 -5 5 -3 0 -5 -2 -5
-5z"/>
<path d="M263 183 c4 -3 10 -3 14 0 3 4 0 7 -7 7 -7 0 -10 -3 -7 -7z"/>
<path d="M580 185 c0 -3 2 -5 5 -5 3 0 5 2 5 5 0 3 -2 5 -5 5 -3 0 -5 -2 -5
-5z"/>
<path d="M903 183 c4 -3 10 -3 14 0 3 4 0 7 -7 7 -7 0 -10 -3 -7 -7z"/>
<path d="M50 176 c0 -2 7 -6 15 -10 8 -3 15 -1 15 4 0 6 -7 10 -15 10 -8 0
-15 -2 -15 -4z"/>
<path d="M220 175 c0 -3 2 -5 5 -5 3 0 5 2 5 5 0 3 -2 5 -5 5 -3 0 -5 -2 -5
-5z"/>
<path d="M240 175 c0 -3 2 -5 5 -5 3 0 5 2 5 5 0 3 -2 5 -5 5 -3 0 -5 -2 -5
-5z"/>
<path d="M370 176 c0 -2 7 -6 15 -10 8 -3 15 -1 15 4 0 6 -7 10 -15 10 -8 0
-15 -2 -15 -4z"/>
<path d="M686 172 c-2 -4 4 -8 15 -8 10 0 19 4 19 8 0 4 -6 8 -14 8 -8 0 -17
-4 -20 -8z"/>
<path d="M734 163 c-4 -10 -8 -20 -8 -23 -4 -17 -19 -29 -29 -24 -7 4 -8 3 -4
-1 4 -5 13 -10 20 -11 7 -1 19 -4 27 -6 8 -3 12 -3 7 -1 -4 3 -5 9 -2 14 4 5
-2 6 -11 2 -13 -5 -15 -3 -8 8 5 8 9 19 9 24 0 6 11 9 25 8 15 -1 18 0 7 3 -9
3 -15 10 -12 15 4 5 2 9 -3 9 -6 0 -13 -8 -18 -17z"/>
<path d="M860 175 c0 -3 2 -5 5 -5 3 0 5 2 5 5 0 3 -2 5 -5 5 -3 0 -5 -2 -5
-5z"/>
<path d="M880 175 c0 -3 2 -5 5 -5 3 0 5 2 5 5 0 3 -2 5 -5 5 -3 0 -5 -2 -5
-5z"/>
<path d="M180 165 c0 -3 2 -5 5 -5 3 0 5 2 5 5 0 3 -2 5 -5 5 -3 0 -5 -2 -5
-5z"/>
<path d="M260 166 c0 -2 8 -10 18 -17 15 -13 16 -12 3 4 -13 16 -21 21 -21 13z"/>
<path d="M580 166 c0 -2 8 -10 18 -17 15 -13 16 -12 3 4 -13 16 -21 21 -21 13z"/>
<path d="M820 165 c0 -3 2 -5 5 -5 3 0 5 2 5 5 0 3 -2 5 -5 5 -3 0 -5 -2 -5
-5z"/>
<path d="M900 166 c0 -2 8 -10 18 -17 15 -13 16 -12 3 4 -13 16 -21 21 -21 13z"/>
<path d="M89 155 c-1 -3 -2 -8 -3 -12 -3 -19 -18 -33 -29 -27 -7 4 -8 3 -4 -1
4 -5 13 -10 20 -11 7 -1 19 -4 27 -6 8 -3 12 -3 7 -1 -4 3 -5 9 -2 14 4 5 -2
6 -11 2 -13 -5 -15 -3 -8 8 9 16 15 39 8 39 -2 0 -5 -2 -5 -5z"/>
<path d="M118 153 c7 -3 16 -2 19 1 4 3 -2 6 -13 5 -11 0 -14 -3 -6 -6z"/>
<path d="M223 153 c4 -3 5 -8 3 -12 -3 -4 4 -7 15 -7 10 0 19 4 19 8 0 4 -4 8
-9 8 -5 0 -15 2 -23 3 -7 2 -10 2 -5 0z"/>
<path d="M520 155 c0 -3 2 -5 5 -5 3 0 5 2 5 5 0 3 -2 5 -5 5 -3 0 -5 -2 -5
-5z"/>
<path d="M552 146 c10 -7 14 -17 10 -21 -4 -5 -1 -5 6 -1 19 11 14 23 -10 29
-21 5 -21 5 -6 -7z"/>
<path d="M863 153 c4 -3 5 -8 3 -12 -3 -4 4 -7 15 -7 10 0 19 4 19 8 0 4 -4 8
-9 8 -5 0 -15 2 -23 3 -7 2 -10 2 -5 0z"/>
<path d="M45 140 c3 -5 8 -10 11 -10 3 0 2 5 -1 10 -3 6 -8 10 -11 10 -3 0 -2
-4 1 -10z"/>
<path d="M375 141 c-3 -5 7 -19 21 -30 23 -18 21 -26 -7 -23 -3 1 -6 -5 -6
-12 0 -8 7 -12 16 -11 9 2 23 4 31 4 10 1 11 4 4 9 -6 4 -10 15 -8 25 1 9 -2
14 -7 11 -13 -7 -41 15 -33 27 3 5 3 9 0 9 -3 0 -7 -4 -11 -9z m35 -66 c0 -3
-2 -5 -5 -5 -3 0 -5 2 -5 5 0 3 2 5 5 5 3 0 5 -2 5 -5z"/>
<path d="M685 140 c3 -5 8 -10 11 -10 3 0 2 5 -1 10 -3 6 -8 10 -11 10 -3 0
-2 -4 1 -10z"/>
<path d="M118 133 c7 -3 16 -2 19 1 4 3 -2 6 -13 5 -11 0 -14 -3 -6 -6z"/>
<path d="M190 135 c0 -3 2 -5 5 -5 3 0 5 2 5 5 0 3 -2 5 -5 5 -3 0 -5 -2 -5
-5z"/>
<path d="M510 135 c0 -3 2 -5 5 -5 3 0 5 2 5 5 0 3 -2 5 -5 5 -3 0 -5 -2 -5
-5z"/>
<path d="M758 133 c7 -3 16 -2 19 1 4 3 -2 6 -13 5 -11 0 -14 -3 -6 -6z"/>
<path d="M830 135 c0 -3 2 -5 5 -5 3 0 5 2 5 5 0 3 -2 5 -5 5 -3 0 -5 -2 -5
-5z"/>
<path d="M130 110 c0 -7 3 -10 7 -7 3 4 3 10 0 14 -4 3 -7 0 -7 -7z"/>
<path d="M210 115 c0 -3 2 -5 5 -5 3 0 5 2 5 5 0 3 -2 5 -5 5 -3 0 -5 -2 -5
-5z"/>
<path d="M545 99 c3 -13 -2 -19 -15 -19 -10 0 -21 -3 -23 -7 -7 -11 70 -9 80
1 5 5 2 6 -6 1 -16 -9 -35 16 -20 26 7 4 5 8 -4 12 -11 4 -15 0 -12 -14z"/>
<path d="M770 110 c0 -7 3 -10 7 -7 3 4 3 10 0 14 -4 3 -7 0 -7 -7z"/>
<path d="M850 115 c0 -3 2 -5 5 -5 3 0 5 2 5 5 0 3 -2 5 -5 5 -3 0 -5 -2 -5
-5z"/>
<path d="M240 105 c0 -3 2 -5 5 -5 3 0 5 2 5 5 0 3 -2 5 -5 5 -3 0 -5 -2 -5
-5z"/>
<path d="M450 105 c0 -3 2 -5 5 -5 3 0 5 2 5 5 0 3 -2 5 -5 5 -3 0 -5 -2 -5
-5z"/>
<path d="M880 105 c0 -3 2 -5 5 -5 3 0 5 2 5 5 0 3 -2 5 -5 5 -3 0 -5 -2 -5
-5z"/>
<path d="M200 95 c0 -3 2 -5 5 -5 3 0 5 2 5 5 0 3 -2 5 -5 5 -3 0 -5 -2 -5 -5z"/>
<path d="M840 95 c0 -3 2 -5 5 -5 3 0 5 2 5 5 0 3 -2 5 -5 5 -3 0 -5 -2 -5 -5z"/>
<path d="M170 85 c0 -3 2 -5 5 -5 3 0 5 2 5 5 0 3 -2 5 -5 5 -3 0 -5 -2 -5 -5z"/>
<path d="M232 81 c-11 -6 -10 -10 4 -15 9 -4 22 -2 28 4 8 8 6 9 -8 4 -13 -5
-17 -4 -12 4 8 14 6 15 -12 3z"/>
<path d="M490 85 c0 -3 2 -5 5 -5 3 0 5 2 5 5 0 3 -2 5 -5 5 -3 0 -5 -2 -5 -5z"/>
<path d="M810 85 c0 -3 2 -5 5 -5 3 0 5 2 5 5 0 3 -2 5 -5 5 -3 0 -5 -2 -5 -5z"/>
<path d="M872 81 c-11 -6 -10 -10 4 -15 9 -4 22 -2 28 4 8 8 6 9 -8 4 -13 -5
-17 -4 -12 4 8 14 6 15 -12 3z"/>
<path d="M185 70 c-3 -6 1 -7 9 -4 18 7 21 14 7 14 -6 0 -13 -4 -16 -10z"/>
<path d="M825 70 c-3 -6 1 -7 9 -4 18 7 21 14 7 14 -6 0 -13 -4 -16 -10z"/>
<path d="M50 35 c0 -3 2 -5 5 -5 3 0 5 2 5 5 0 3 -2 5 -5 5 -3 0 -5 -2 -5 -5z"/>
<path d="M690 35 c0 -3 2 -5 5 -5 3 0 5 2 5 5 0 3 -2 5 -5 5 -3 0 -5 -2 -5 -5z"/>
<path d="M480 5 c0 -3 2 -5 5 -5 3 0 5 2 5 5 0 3 -2 5 -5 5 -3 0 -5 -2 -5 -5z"/>
</g>
<g transform="translate(0.000000,96.000000) scale(0.100000,-0.100000)"
fill="#adadad" stroke="none">
<path d="M61 955 c1 -19 18 -51 18 -35 0 8 -4 22 -9 30 -5 8 -9 11 -9 5z"/>
<path d="M150 849 c0 -85 -3 -109 -12 -103 -10 6 -10 4 0 -7 6 -7 12 -29 12
-48 0 -19 3 -31 8 -27 10 10 10 296 0 296 -4 0 -8 -50 -8 -111z"/>
<path d="M210 955 c0 -3 2 -5 5 -5 3 0 5 2 5 5 0 3 -2 5 -5 5 -3 0 -5 -2 -5
-5z"/>
<path d="M381 955 c1 -19 18 -51 18 -35 0 8 -4 22 -9 30 -5 8 -9 11 -9 5z"/>
<path d="M468 843 c-3 -107 5 -211 12 -173 7 32 5 290 -2 290 -4 0 -8 -53 -10
-117z"/>
<path d="M530 955 c0 -3 2 -5 5 -5 3 0 5 2 5 5 0 3 -2 5 -5 5 -3 0 -5 -2 -5
-5z"/>
<path d="M700 955 c0 -3 2 -5 5 -5 3 0 5 2 5 5 0 3 -2 5 -5 5 -3 0 -5 -2 -5
-5z"/>
<path d="M788 843 c-3 -108 5 -217 12 -168 7 45 5 285 -2 285 -4 0 -8 -53 -10
-117z"/>
<path d="M850 950 c0 -7 3 -10 7 -7 3 4 3 10 0 14 -4 3 -7 0 -7 -7z"/>
<path d="M200 930 c0 -7 3 -10 7 -7 3 4 3 10 0 14 -4 3 -7 0 -7 -7z"/>
<path d="M521 933 c-1 -6 -4 -20 -7 -30 -5 -17 -5 -17 6 0 6 10 9 23 6 30 -3
9 -5 9 -5 0z"/>
<path d="M711 924 c0 -11 3 -14 6 -6 3 7 2 16 -1 19 -3 4 -6 -2 -5 -13z"/>
<path d="M836 915 c-9 -26 -7 -32 5 -12 6 10 9 21 6 23 -2 3 -7 -2 -11 -11z"/>
<path d="M190 900 c0 -7 3 -10 7 -7 3 4 3 10 0 14 -4 3 -7 0 -7 -7z"/>
<path d="M80 895 c0 -3 2 -5 5 -5 3 0 5 2 5 5 0 3 -2 5 -5 5 -3 0 -5 -2 -5 -5z"/>
<path d="M400 895 c0 -3 2 -5 5 -5 3 0 5 2 5 5 0 3 -2 5 -5 5 -3 0 -5 -2 -5
-5z"/>
<path d="M720 895 c0 -3 2 -5 5 -5 3 0 5 2 5 5 0 3 -2 5 -5 5 -3 0 -5 -2 -5
-5z"/>
<path d="M81 875 c1 -19 18 -51 18 -35 0 8 -4 22 -9 30 -5 8 -9 11 -9 5z"/>
<path d="M180 875 c0 -3 2 -5 5 -5 3 0 5 2 5 5 0 3 -2 5 -5 5 -3 0 -5 -2 -5
-5z"/>
<path d="M400 875 c0 -5 5 -17 10 -25 5 -8 10 -10 10 -5 0 6 -5 17 -10 25 -5
8 -10 11 -10 5z"/>
<path d="M502 860 c0 -14 2 -19 5 -12 2 6 2 18 0 25 -3 6 -5 1 -5 -13z"/>
<path d="M725 860 c11 -39 33 -90 39 -90 5 0 -33 103 -41 110 -3 3 -2 -6 2
-20z"/>
<path d="M820 875 c0 -3 2 -5 5 -5 3 0 5 2 5 5 0 3 -2 5 -5 5 -3 0 -5 -2 -5
-5z"/>
<path d="M176 843 c-6 -14 -5 -15 5 -6 7 7 10 15 7 18 -3 3 -9 -2 -12 -12z"/>
<path d="M820 850 c0 -7 3 -10 7 -7 3 4 3 10 0 14 -4 3 -7 0 -7 -7z"/>
<path d="M420 820 c0 -7 3 -10 7 -7 3 4 3 10 0 14 -4 3 -7 0 -7 -7z"/>
<path d="M100 815 c0 -3 2 -5 5 -5 3 0 5 2 5 5 0 3 -2 5 -5 5 -3 0 -5 -2 -5
-5z"/>
<path d="M110 795 c0 -3 2 -5 5 -5 3 0 5 2 5 5 0 3 -2 5 -5 5 -3 0 -5 -2 -5
-5z"/>
<path d="M430 795 c0 -3 2 -5 5 -5 3 0 5 2 5 5 0 3 -2 5 -5 5 -3 0 -5 -2 -5
-5z"/>
<path d="M120 770 c0 -7 3 -10 7 -7 3 4 3 10 0 14 -4 3 -7 0 -7 -7z"/>
<path d="M440 775 c0 -3 2 -5 5 -5 3 0 5 2 5 5 0 3 -2 5 -5 5 -3 0 -5 -2 -5
-5z"/>
<path d="M450 750 c0 -7 3 -10 7 -7 3 4 3 10 0 14 -4 3 -7 0 -7 -7z"/>
<path d="M770 745 c0 -3 2 -5 5 -5 3 0 5 2 5 5 0 3 -2 5 -5 5 -3 0 -5 -2 -5
-5z"/>
<path d="M65 615 c4 -17 11 -34 16 -39 5 -5 4 5 -1 24 -12 42 -24 55 -15 15z"/>
<path d="M148 523 c-3 -128 3 -203 14 -168 4 11 6 45 4 75 -1 30 2 61 7 68 5
7 6 12 0 12 -4 0 -8 29 -7 65 0 36 -3 65 -7 65 -4 0 -9 -53 -11 -117z"/>
<path d="M210 630 c0 -7 3 -10 7 -7 3 4 3 10 0 14 -4 3 -7 0 -7 -7z"/>
<path d="M380 635 c0 -3 2 -5 5 -5 3 0 5 2 5 5 0 3 -2 5 -5 5 -3 0 -5 -2 -5
-5z"/>
<path d="M468 523 c-3 -107 5 -211 12 -173 7 32 5 290 -2 290 -4 0 -8 -53 -10
-117z"/>
<path d="M530 635 c0 -3 2 -5 5 -5 3 0 5 2 5 5 0 3 -2 5 -5 5 -3 0 -5 -2 -5
-5z"/>
<path d="M700 635 c0 -3 2 -5 5 -5 3 0 5 2 5 5 0 3 -2 5 -5 5 -3 0 -5 -2 -5
-5z"/>
<path d="M788 523 c-3 -108 5 -217 12 -168 7 45 5 285 -2 285 -4 0 -8 -53 -10
-117z"/>
<path d="M850 630 c0 -7 3 -10 7 -7 3 4 3 10 0 14 -4 3 -7 0 -7 -7z"/>
<path d="M391 604 c0 -11 3 -14 6 -6 3 7 2 16 -1 19 -3 4 -6 -2 -5 -13z"/>
<path d="M521 613 c-1 -6 -4 -20 -7 -30 -5 -17 -5 -17 6 0 6 10 9 23 6 30 -3
9 -5 9 -5 0z"/>
<path d="M711 604 c0 -11 3 -14 6 -6 3 7 2 16 -1 19 -3 4 -6 -2 -5 -13z"/>
<path d="M200 605 c0 -3 2 -5 5 -5 3 0 5 2 5 5 0 3 -2 5 -5 5 -3 0 -5 -2 -5
-5z"/>
<path d="M836 595 c-9 -26 -7 -32 5 -12 6 10 9 21 6 23 -2 3 -7 -2 -11 -11z"/>
<path d="M190 585 c0 -3 2 -5 5 -5 3 0 5 2 5 5 0 3 -2 5 -5 5 -3 0 -5 -2 -5
-5z"/>
<path d="M401 564 c0 -11 3 -14 6 -6 3 7 2 16 -1 19 -3 4 -6 -2 -5 -13z"/>
<path d="M720 575 c0 -3 2 -5 5 -5 3 0 5 2 5 5 0 3 -2 5 -5 5 -3 0 -5 -2 -5
-5z"/>
<path d="M184 558 c-4 -7 -3 -8 4 -4 12 7 16 16 8 16 -3 0 -8 -5 -12 -12z"/>
<path d="M80 555 c0 -5 5 -17 10 -25 5 -8 10 -10 10 -5 0 6 -5 17 -10 25 -5 8
-10 11 -10 5z"/>
<path d="M502 540 c0 -14 2 -19 5 -12 2 6 2 18 0 25 -3 6 -5 1 -5 -13z"/>
<path d="M725 540 c11 -39 33 -90 39 -90 5 0 -33 103 -41 110 -3 3 -2 -6 2
-20z"/>
<path d="M820 555 c0 -3 2 -5 5 -5 3 0 5 2 5 5 0 3 -2 5 -5 5 -3 0 -5 -2 -5
-5z"/>
<path d="M180 535 c0 -3 2 -5 5 -5 3 0 5 2 5 5 0 3 -2 5 -5 5 -3 0 -5 -2 -5
-5z"/>
<path d="M411 524 c0 -11 3 -14 6 -6 3 7 2 16 -1 19 -3 4 -6 -2 -5 -13z"/>
<path d="M820 530 c0 -7 3 -10 7 -7 3 4 3 10 0 14 -4 3 -7 0 -7 -7z"/>
<path d="M100 496 c0 -8 4 -17 9 -20 5 -4 7 3 4 14 -6 23 -13 26 -13 6z"/>
<path d="M420 491 c0 -6 4 -13 10 -16 6 -3 7 1 4 9 -7 18 -14 21 -14 7z"/>
<path d="M120 450 c0 -7 3 -10 7 -7 3 4 3 10 0 14 -4 3 -7 0 -7 -7z"/>
<path d="M440 455 c0 -3 2 -5 5 -5 3 0 5 2 5 5 0 3 -2 5 -5 5 -3 0 -5 -2 -5
-5z"/>
<path d="M450 430 c0 -7 3 -10 7 -7 3 4 3 10 0 14 -4 3 -7 0 -7 -7z"/>
<path d="M130 425 c0 -3 2 -5 5 -5 3 0 5 2 5 5 0 3 -2 5 -5 5 -3 0 -5 -2 -5
-5z"/>
<path d="M770 425 c0 -3 2 -5 5 -5 3 0 5 2 5 5 0 3 -2 5 -5 5 -3 0 -5 -2 -5
-5z"/>
<path d="M61 315 c1 -19 18 -51 18 -35 0 8 -4 22 -9 30 -5 8 -9 11 -9 5z"/>
<path d="M148 203 c-3 -107 5 -211 12 -173 7 32 5 290 -2 290 -4 0 -8 -53 -10
-117z"/>
<path d="M210 315 c0 -3 2 -5 5 -5 3 0 5 2 5 5 0 3 -2 5 -5 5 -3 0 -5 -2 -5
-5z"/>
<path d="M380 315 c0 -3 2 -5 5 -5 3 0 5 2 5 5 0 3 -2 5 -5 5 -3 0 -5 -2 -5
-5z"/>
<path d="M468 203 c-3 -108 5 -217 12 -168 7 45 5 285 -2 285 -4 0 -8 -53 -10
-117z"/>
<path d="M530 310 c0 -7 3 -10 7 -7 3 4 3 10 0 14 -4 3 -7 0 -7 -7z"/>
<path d="M700 315 c0 -3 2 -5 5 -5 3 0 5 2 5 5 0 3 -2 5 -5 5 -3 0 -5 -2 -5
-5z"/>
<path d="M788 203 c-3 -107 5 -211 12 -173 7 32 5 290 -2 290 -4 0 -8 -53 -10
-117z"/>
<path d="M850 315 c0 -3 2 -5 5 -5 3 0 5 2 5 5 0 3 -2 5 -5 5 -3 0 -5 -2 -5
-5z"/>
<path d="M201 293 c-1 -6 -4 -20 -7 -30 -5 -17 -5 -17 6 0 6 10 9 23 6 30 -3
9 -5 9 -5 0z"/>
<path d="M391 284 c0 -11 3 -14 6 -6 3 7 2 16 -1 19 -3 4 -6 -2 -5 -13z"/>
<path d="M841 293 c-1 -6 -4 -20 -7 -30 -5 -17 -5 -17 6 0 6 10 9 23 6 30 -3
9 -5 9 -5 0z"/>
<path d="M516 275 c-9 -26 -7 -32 5 -12 6 10 9 21 6 23 -2 3 -7 -2 -11 -11z"/>
<path d="M711 280 c0 -8 4 -24 9 -35 5 -13 9 -14 9 -5 0 8 -4 24 -9 35 -5 13
-9 14 -9 5z"/>
<path d="M80 255 c0 -3 2 -5 5 -5 3 0 5 2 5 5 0 3 -2 5 -5 5 -3 0 -5 -2 -5 -5z"/>
<path d="M400 255 c0 -3 2 -5 5 -5 3 0 5 2 5 5 0 3 -2 5 -5 5 -3 0 -5 -2 -5
-5z"/>
<path d="M80 235 c0 -5 5 -17 10 -25 5 -8 10 -10 10 -5 0 6 -5 17 -10 25 -5 8
-10 11 -10 5z"/>
<path d="M182 220 c0 -14 2 -19 5 -12 2 6 2 18 0 25 -3 6 -5 1 -5 -13z"/>
<path d="M405 220 c11 -39 33 -90 39 -90 5 0 -33 103 -41 110 -3 3 -2 -6 2
-20z"/>
<path d="M500 235 c0 -3 2 -5 5 -5 3 0 5 2 5 5 0 3 -2 5 -5 5 -3 0 -5 -2 -5
-5z"/>
<path d="M822 220 c0 -14 2 -19 5 -12 2 6 2 18 0 25 -3 6 -5 1 -5 -13z"/>
<path d="M500 210 c0 -7 3 -10 7 -7 3 4 3 10 0 14 -4 3 -7 0 -7 -7z"/>
<path d="M731 204 c0 -11 3 -14 6 -6 3 7 2 16 -1 19 -3 4 -6 -2 -5 -13z"/>
<path d="M100 180 c0 -7 3 -10 7 -7 3 4 3 10 0 14 -4 3 -7 0 -7 -7z"/>
<path d="M740 171 c0 -6 4 -13 10 -16 6 -3 7 1 4 9 -7 18 -14 21 -14 7z"/>
<path d="M110 155 c0 -3 2 -5 5 -5 3 0 5 2 5 5 0 3 -2 5 -5 5 -3 0 -5 -2 -5
-5z"/>
<path d="M120 135 c0 -3 2 -5 5 -5 3 0 5 2 5 5 0 3 -2 5 -5 5 -3 0 -5 -2 -5
-5z"/>
<path d="M760 135 c0 -3 2 -5 5 -5 3 0 5 2 5 5 0 3 -2 5 -5 5 -3 0 -5 -2 -5
-5z"/>
<path d="M130 110 c0 -7 3 -10 7 -7 3 4 3 10 0 14 -4 3 -7 0 -7 -7z"/>
<path d="M770 110 c0 -7 3 -10 7 -7 3 4 3 10 0 14 -4 3 -7 0 -7 -7z"/>
<path d="M450 105 c0 -3 2 -5 5 -5 3 0 5 2 5 5 0 3 -2 5 -5 5 -3 0 -5 -2 -5
-5z"/>
</g>
  </g>
</svg>
