<?xml version="1.0" encoding="UTF-8" standalone="no"?>
<!-- Created with Inkscape (http://www.inkscape.org/) -->

<svg
   xmlns:dc="http://purl.org/dc/elements/1.1/"
   xmlns:cc="http://creativecommons.org/ns#"
   xmlns:rdf="http://www.w3.org/1999/02/22-rdf-syntax-ns#"
   xmlns:svg="http://www.w3.org/2000/svg"
   xmlns="http://www.w3.org/2000/svg"
   xmlns:sodipodi="http://sodipodi.sourceforge.net/DTD/sodipodi-0.dtd"
   xmlns:inkscape="http://www.inkscape.org/namespaces/inkscape"
   width="32px"
   height="32px"
   viewBox="0 0 32px 32px"
   version="1.1"
   id="svgMain"
   inkscape:version="0.92.2 (5c3e80d, 2017-08-06)"
   sodipodi:docname="reference_SVG.svg">
  <defs
     id="defs4542" />
  <sodipodi:namedview
     id="base"
     pagecolor="#ffffff"
     bordercolor="#666666"
     borderopacity="1.0"
     inkscape:pageopacity="0.0"
     inkscape:pageshadow="2"
     inkscape:zoom="1"
     inkscape:cx="0"
     inkscape:cy="0"
     inkscape:document-units="px"
     inkscape:current-layer="layer1"
     showgrid="false"
     units="px"
     inkscape:window-width="1024"
     inkscape:window-height="768"
     inkscape:window-x="-8"
     inkscape:window-y="-8"
     inkscape:window-maximized="1" />
  <metadata
     id="metadata1">
    <rdf:RDF>
      <cc:Work
         rdf:about="">
        <dc:format>image/svg+xml</dc:format>
        <dc:type
           rdf:resource="http://purl.org/dc/dcmitype/StillImage" />
        <dc:title />
      </cc:Work>
    </rdf:RDF>
  </metadata>
  <g transform="translate(-32,-32)"
     inkscape:label="Layer 1"
     inkscape:groupmode="layer"
     id="layer1">
    <!-- INSERT MARKER -->
<g transform="translate(0.000000,96.000000) scale(0.100000,-0.100000)"
fill="#a40308" stroke="none">
<path d="M125 930 c-3 -5 -3 -21 1 -36 l7 -27 -30 18 c-17 10 -38 15 -47 12
-19 -8 -21 -38 -4 -55 10 -10 10 -14 0 -21 -10 -6 -10 -11 3 -21 13 -11 13
-15 3 -21 -10 -7 -10 -9 -1 -9 13 0 83 -102 83 -120 0 -6 5 -10 10 -10 6 0 10
13 10 29 0 18 6 31 17 35 12 5 14 9 6 14 -9 5 -6 17 9 40 l20 32 29 -21 c16
-11 29 -26 29 -33 0 -19 -27 -39 -41 -30 -8 4 -9 3 -5 -4 4 -7 -5 -23 -21 -37
-27 -24 -27 -24 -6 -25 13 0 22 3 20 8 -1 4 17 25 41 46 29 26 39 42 31 46 -6
4 -9 12 -5 18 3 5 -5 13 -19 16 -16 4 -22 11 -18 21 4 11 9 13 18 5 9 -7 12 1
11 37 -1 32 -6 49 -18 57 -24 15 -54 -5 -51 -33 2 -12 -2 -21 -8 -21 -8 0 -8
-5 1 -15 9 -11 17 -12 34 -4 13 7 10 1 -9 -14 -28 -24 -31 -24 -48 -9 -10 9
-16 24 -14 34 3 11 0 18 -9 18 -21 0 -17 18 5 25 32 10 46 32 31 50 -14 17
-56 20 -65 5z m-4 -116 c-15 -11 -21 -23 -18 -36 9 -33 -17 -14 -27 20 -7 26
-5 36 9 52 l19 21 20 -21 20 -20 -23 -16z m23 -77 c13 -9 15 -18 8 -36 l-8
-23 -17 26 c-28 42 -19 60 17 33z"/>
<path d="M445 930 c-3 -5 -3 -21 1 -36 l7 -27 -30 18 c-17 10 -38 15 -47 12
-19 -8 -21 -38 -4 -55 10 -10 10 -14 0 -21 -10 -6 -10 -11 3 -21 13 -11 13
-15 3 -21 -10 -7 -10 -9 -1 -9 13 0 83 -102 83 -120 0 -6 5 -10 10 -10 6 0 10
13 10 29 0 18 6 31 17 35 12 5 14 9 6 14 -9 5 -6 17 9 40 l20 32 29 -21 c16
-11 29 -26 29 -33 0 -19 -27 -39 -41 -30 -8 4 -9 3 -5 -4 4 -7 -5 -23 -21 -37
-27 -24 -27 -24 -6 -25 13 0 22 3 20 8 -1 4 17 25 41 46 29 26 39 42 31 46 -6
4 -9 12 -5 18 3 5 -5 13 -19 16 -16 4 -22 11 -18 21 4 11 9 13 18 5 9 -7 12 1
11 37 -1 32 -6 49 -18 57 -24 15 -54 -5 -51 -33 2 -12 -2 -21 -8 -21 -8 0 -8
-5 1 -15 9 -11 17 -12 34 -4 13 7 10 1 -9 -14 -28 -24 -31 -24 -48 -9 -10 9
-16 24 -14 34 3 11 0 18 -9 18 -21 0 -17 18 5 25 32 10 46 32 31 50 -14 17
-56 20 -65 5z m-4 -116 c-15 -11 -21 -23 -18 -36 9 -33 -17 -14 -27 20 -7 26
-5 36 9 52 l19 21 20 -21 20 -20 -23 -16z m23 -77 c13 -9 15 -18 8 -36 l-8
-23 -17 26 c-28 42 -19 60 17 33z"/>
<path d="M765 930 c-3 -5 -3 -21 1 -36 l7 -27 -30 18 c-17 10 -38 15 -47 12
-19 -8 -21 -38 -4 -55 10 -10 10 -14 0 -21 -10 -6 -10 -11 3 -21 13 -11 13
-15 3 -21 -10 -7 -10 -9 -1 -9 13 0 83 -102 83 -120 0 -6 5 -10 10 -10 6 0 10
13 10 29 0 18 6 31 17 35 12 5 14 9 6 14 -9 5 -6 17 9 40 l20 32 29 -21 c16
-11 29 -26 29 -33 0 -19 -27 -39 -41 -30 -8 4 -9 3 -5 -4 4 -7 -5 -23 -21 -37
-27 -24 -27 -24 -6 -25 13 0 22 3 20 8 -1 4 17 25 41 46 29 26 39 42 31 46 -6
4 -9 12 -5 18 3 5 -5 13 -19 16 -16 4 -22 11 -18 21 4 11 9 13 18 5 9 -7 12 1
11 37 -1 32 -6 49 -18 57 -24 15 -54 -5 -51 -33 2 -12 -2 -21 -8 -21 -8 0 -8
-5 1 -15 9 -11 17 -12 34 -4 13 7 10 1 -9 -14 -28 -24 -31 -24 -48 -9 -10 9
-16 24 -14 34 3 11 0 18 -9 18 -21 0 -17 18 5 25 32 10 46 32 31 50 -14 17
-56 20 -65 5z m-4 -116 c-15 -11 -21 -23 -18 -36 9 -33 -17 -14 -27 20 -7 26
-5 36 9 52 l19 21 20 -21 20 -20 -23 -16z m23 -77 c13 -9 15 -18 8 -36 l-8
-23 -17 26 c-28 42 -19 60 17 33z"/>
<path d="M30 695 c-6 -8 -9 -23 -5 -35 8 -26 79 -29 89 -4 15 39 -57 72 -84
39z"/>
<path d="M350 695 c-6 -8 -9 -23 -5 -35 8 -26 79 -29 89 -4 15 39 -57 72 -84
39z"/>
<path d="M670 695 c-6 -8 -9 -23 -5 -35 8 -26 79 -29 89 -4 15 39 -57 72 -84
39z"/>
<path d="M270 658 c0 -17 2 -18 15 -8 8 7 15 14 15 15 0 2 -7 5 -15 9 -10 4
-15 -1 -15 -16z"/>
<path d="M590 658 c0 -17 2 -18 15 -8 8 7 15 14 15 15 0 2 -7 5 -15 9 -10 4
-15 -1 -15 -16z"/>
<path d="M910 658 c0 -17 2 -18 15 -8 8 7 15 14 15 15 0 2 -7 5 -15 9 -10 4
-15 -1 -15 -16z"/>
<path d="M125 610 c-3 -5 -3 -21 1 -36 l7 -27 -30 18 c-17 10 -38 15 -47 12
-19 -8 -21 -38 -4 -55 10 -10 10 -14 0 -21 -10 -6 -10 -11 3 -21 13 -11 13
-15 3 -21 -10 -7 -10 -9 -1 -9 13 0 83 -102 83 -120 0 -6 5 -10 10 -10 6 0 10
13 10 29 0 18 6 31 17 35 12 5 14 9 6 14 -9 5 -6 17 9 40 l20 32 29 -21 c16
-11 29 -26 29 -33 0 -19 -27 -39 -41 -30 -8 4 -9 3 -5 -4 4 -7 -5 -23 -21 -37
-27 -24 -27 -24 -6 -25 13 0 22 3 20 8 -1 4 17 25 41 46 29 26 39 42 31 46 -6
4 -9 12 -5 18 3 5 -5 13 -19 16 -16 4 -22 11 -18 21 4 11 9 13 18 5 9 -7 12 1
11 37 -1 32 -6 49 -18 57 -24 15 -54 -5 -51 -33 2 -12 -2 -21 -8 -21 -8 0 -8
-5 1 -15 9 -11 17 -12 34 -4 13 7 10 1 -9 -14 -28 -24 -31 -24 -48 -9 -10 9
-16 24 -14 34 3 11 0 18 -9 18 -21 0 -17 18 5 25 32 10 46 32 31 50 -14 17
-56 20 -65 5z m-4 -116 c-15 -11 -21 -23 -18 -36 9 -33 -17 -14 -27 20 -7 26
-5 36 9 52 l19 21 20 -21 20 -20 -23 -16z m23 -77 c13 -9 15 -18 8 -36 l-8
-23 -17 26 c-28 42 -19 60 17 33z"/>
<path d="M445 610 c-3 -5 -3 -21 1 -36 l7 -27 -30 18 c-17 10 -38 15 -47 12
-19 -8 -21 -38 -4 -55 10 -10 10 -14 0 -21 -10 -6 -10 -11 3 -21 13 -11 13
-15 3 -21 -10 -7 -10 -9 -1 -9 13 0 83 -102 83 -120 0 -6 5 -10 10 -10 6 0 10
13 10 29 0 18 6 31 17 35 12 5 14 9 6 14 -9 5 -6 17 9 40 l20 32 29 -21 c16
-11 29 -26 29 -33 0 -19 -27 -39 -41 -30 -8 4 -9 3 -5 -4 4 -7 -5 -23 -21 -37
-27 -24 -27 -24 -6 -25 13 0 22 3 20 8 -1 4 17 25 41 46 29 26 39 42 31 46 -6
4 -9 12 -5 18 3 5 -5 13 -19 16 -16 4 -22 11 -18 21 4 11 9 13 18 5 9 -7 12 1
11 37 -1 32 -6 49 -18 57 -24 15 -54 -5 -51 -33 2 -12 -2 -21 -8 -21 -8 0 -8
-5 1 -15 9 -11 17 -12 34 -4 13 7 10 1 -9 -14 -28 -24 -31 -24 -48 -9 -10 9
-16 24 -14 34 3 11 0 18 -9 18 -21 0 -17 18 5 25 32 10 46 32 31 50 -14 17
-56 20 -65 5z m-4 -116 c-15 -11 -21 -23 -18 -36 9 -33 -17 -14 -27 20 -7 26
-5 36 9 52 l19 21 20 -21 20 -20 -23 -16z m23 -77 c13 -9 15 -18 8 -36 l-8
-23 -17 26 c-28 42 -19 60 17 33z"/>
<path d="M765 610 c-3 -5 -3 -21 1 -36 l7 -27 -30 18 c-17 10 -38 15 -47 12
-19 -8 -21 -38 -4 -55 10 -10 10 -14 0 -21 -10 -6 -10 -11 3 -21 13 -11 13
-15 3 -21 -10 -7 -10 -9 -1 -9 13 0 83 -102 83 -120 0 -6 5 -10 10 -10 6 0 10
13 10 29 0 18 6 31 17 35 12 5 14 9 6 14 -9 5 -6 17 9 40 l20 32 29 -21 c16
-11 29 -26 29 -33 0 -19 -27 -39 -41 -30 -8 4 -9 3 -5 -4 4 -7 -5 -23 -21 -37
-27 -24 -27 -24 -6 -25 13 0 22 3 20 8 -1 4 17 25 41 46 29 26 39 42 31 46 -6
4 -9 12 -5 18 3 5 -5 13 -19 16 -16 4 -22 11 -18 21 4 11 9 13 18 5 9 -7 12 1
11 37 -1 32 -6 49 -18 57 -24 15 -54 -5 -51 -33 2 -12 -2 -21 -8 -21 -8 0 -8
-5 1 -15 9 -11 17 -12 34 -4 13 7 10 1 -9 -14 -28 -24 -31 -24 -48 -9 -10 9
-16 24 -14 34 3 11 0 18 -9 18 -21 0 -17 18 5 25 32 10 46 32 31 50 -14 17
-56 20 -65 5z m-4 -116 c-15 -11 -21 -23 -18 -36 9 -33 -17 -14 -27 20 -7 26
-5 36 9 52 l19 21 20 -21 20 -20 -23 -16z m23 -77 c13 -9 15 -18 8 -36 l-8
-23 -17 26 c-28 42 -19 60 17 33z"/>
<path d="M30 375 c-6 -8 -9 -23 -5 -35 8 -26 79 -29 89 -4 15 39 -57 72 -84
39z"/>
<path d="M350 375 c-6 -8 -9 -23 -5 -35 8 -26 79 -29 89 -4 15 39 -57 72 -84
39z"/>
<path d="M670 375 c-6 -8 -9 -23 -5 -35 8 -26 79 -29 89 -4 15 39 -57 72 -84
39z"/>
<path d="M270 338 c0 -17 2 -18 15 -8 8 7 15 14 15 15 0 2 -7 5 -15 9 -10 4
-15 -1 -15 -16z"/>
<path d="M590 338 c0 -17 2 -18 15 -8 8 7 15 14 15 15 0 2 -7 5 -15 9 -10 4
-15 -1 -15 -16z"/>
<path d="M910 338 c0 -17 2 -18 15 -8 8 7 15 14 15 15 0 2 -7 5 -15 9 -10 4
-15 -1 -15 -16z"/>
<path d="M125 290 c-3 -5 -3 -21 1 -36 l7 -27 -30 18 c-17 10 -38 15 -47 12
-19 -8 -21 -38 -4 -55 10 -10 10 -14 0 -21 -10 -6 -10 -11 3 -21 13 -11 13
-15 3 -21 -10 -7 -10 -9 -1 -9 13 0 83 -102 83 -120 0 -6 5 -10 10 -10 6 0 10
13 10 29 0 18 6 31 17 35 12 5 14 9 6 14 -9 5 -6 17 9 40 l20 32 29 -21 c16
-11 29 -26 29 -33 0 -19 -27 -39 -41 -30 -8 4 -9 3 -5 -4 4 -7 -5 -23 -21 -37
-27 -24 -27 -24 -6 -25 13 0 22 3 20 8 -1 4 17 25 41 46 29 26 39 42 31 46 -6
4 -9 12 -5 18 3 5 -5 13 -19 16 -16 4 -22 11 -18 21 4 11 9 13 18 5 9 -7 12 1
11 37 -1 32 -6 49 -18 57 -24 15 -54 -5 -51 -33 2 -12 -2 -21 -8 -21 -8 0 -8
-5 1 -15 9 -11 17 -12 34 -4 13 7 10 1 -9 -14 -28 -24 -31 -24 -48 -9 -10 9
-16 24 -14 34 3 11 0 18 -9 18 -21 0 -17 18 5 25 32 10 46 32 31 50 -14 17
-56 20 -65 5z m-4 -116 c-15 -11 -21 -23 -18 -36 9 -33 -17 -14 -27 20 -7 26
-5 36 9 52 l19 21 20 -21 20 -20 -23 -16z m23 -77 c13 -9 15 -18 8 -36 l-8
-23 -17 26 c-28 42 -19 60 17 33z"/>
<path d="M445 290 c-3 -5 -3 -21 1 -36 l7 -27 -30 18 c-17 10 -38 15 -47 12
-19 -8 -21 -38 -4 -55 10 -10 10 -14 0 -21 -10 -6 -10 -11 3 -21 13 -11 13
-15 3 -21 -10 -7 -10 -9 -1 -9 13 0 83 -102 83 -120 0 -6 5 -10 10 -10 6 0 10
13 10 29 0 18 6 31 17 35 12 5 14 9 6 14 -9 5 -6 17 9 40 l20 32 29 -21 c16
-11 29 -26 29 -33 0 -19 -27 -39 -41 -30 -8 4 -9 3 -5 -4 4 -7 -5 -23 -21 -37
-27 -24 -27 -24 -6 -25 13 0 22 3 20 8 -1 4 17 25 41 46 29 26 39 42 31 46 -6
4 -9 12 -5 18 3 5 -5 13 -19 16 -16 4 -22 11 -18 21 4 11 9 13 18 5 9 -7 12 1
11 37 -1 32 -6 49 -18 57 -24 15 -54 -5 -51 -33 2 -12 -2 -21 -8 -21 -8 0 -8
-5 1 -15 9 -11 17 -12 34 -4 13 7 10 1 -9 -14 -28 -24 -31 -24 -48 -9 -10 9
-16 24 -14 34 3 11 0 18 -9 18 -21 0 -17 18 5 25 32 10 46 32 31 50 -14 17
-56 20 -65 5z m-4 -116 c-15 -11 -21 -23 -18 -36 9 -33 -17 -14 -27 20 -7 26
-5 36 9 52 l19 21 20 -21 20 -20 -23 -16z m23 -77 c13 -9 15 -18 8 -36 l-8
-23 -17 26 c-28 42 -19 60 17 33z"/>
<path d="M765 290 c-3 -5 -3 -21 1 -36 l7 -27 -30 18 c-17 10 -38 15 -47 12
-19 -8 -21 -38 -4 -55 10 -10 10 -14 0 -21 -10 -6 -10 -11 3 -21 13 -11 13
-15 3 -21 -10 -7 -10 -9 -1 -9 13 0 83 -102 83 -120 0 -6 5 -10 10 -10 6 0 10
13 10 29 0 18 6 31 17 35 12 5 14 9 6 14 -9 5 -6 17 9 40 l20 32 29 -21 c16
-11 29 -26 29 -33 0 -19 -27 -39 -41 -30 -8 4 -9 3 -5 -4 4 -7 -5 -23 -21 -37
-27 -24 -27 -24 -6 -25 13 0 22 3 20 8 -1 4 17 25 41 46 29 26 39 42 31 46 -6
4 -9 12 -5 18 3 5 -5 13 -19 16 -16 4 -22 11 -18 21 4 11 9 13 18 5 9 -7 12 1
11 37 -1 32 -6 49 -18 57 -24 15 -54 -5 -51 -33 2 -12 -2 -21 -8 -21 -8 0 -8
-5 1 -15 9 -11 17 -12 34 -4 13 7 10 1 -9 -14 -28 -24 -31 -24 -48 -9 -10 9
-16 24 -14 34 3 11 0 18 -9 18 -21 0 -17 18 5 25 32 10 46 32 31 50 -14 17
-56 20 -65 5z m-4 -116 c-15 -11 -21 -23 -18 -36 9 -33 -17 -14 -27 20 -7 26
-5 36 9 52 l19 21 20 -21 20 -20 -23 -16z m23 -77 c13 -9 15 -18 8 -36 l-8
-23 -17 26 c-28 42 -19 60 17 33z"/>
<path d="M30 55 c-6 -8 -9 -23 -5 -35 8 -26 79 -29 89 -4 15 39 -57 72 -84 39z"/>
<path d="M350 55 c-6 -8 -9 -23 -5 -35 8 -26 79 -29 89 -4 15 39 -57 72 -84
39z"/>
<path d="M670 55 c-6 -8 -9 -23 -5 -35 8 -26 79 -29 89 -4 15 39 -57 72 -84
39z"/>
<path d="M270 18 c0 -17 2 -18 15 -8 8 7 15 14 15 15 0 2 -7 5 -15 9 -10 4
-15 -1 -15 -16z"/>
<path d="M590 18 c0 -17 2 -18 15 -8 8 7 15 14 15 15 0 2 -7 5 -15 9 -10 4
-15 -1 -15 -16z"/>
<path d="M910 18 c0 -17 2 -18 15 -8 8 7 15 14 15 15 0 2 -7 5 -15 9 -10 4
-15 -1 -15 -16z"/>
</g>
<g transform="translate(0.000000,96.000000) scale(0.100000,-0.100000)"
fill="#e4060c" stroke="none">
<path d="M125 930 c-9 -15 3 -29 23 -25 9 2 21 4 26 4 13 1 -15 31 -30 31 -7
0 -16 -4 -19 -10z m32 -7 c-4 -3 -10 -3 -14 0 -3 4 0 7 7 7 7 0 10 -3 7 -7z"/>
<path d="M447 933 c-15 -14 -6 -30 18 -30 30 0 37 8 24 27 -6 10 -9 11 -9 3 0
-7 -5 -13 -11 -13 -5 0 -7 5 -4 10 7 11 -8 14 -18 3z"/>
<path d="M767 934 c-3 -4 -3 -19 0 -35 5 -26 3 -28 -13 -23 -16 6 -15 3 5 -20
l25 -26 -22 -16 c-21 -14 -33 -52 -13 -39 5 3 12 1 15 -3 3 -5 -4 -9 -16 -8
-17 1 -25 10 -33 37 -8 30 -12 34 -22 24 -10 -10 -9 -16 3 -26 12 -10 12 -14
2 -20 -10 -7 -10 -9 2 -9 13 0 70 -85 78 -117 6 -24 22 -13 22 16 0 18 6 31
17 35 12 5 14 9 6 14 -9 5 -6 17 9 40 l20 32 29 -21 c16 -11 29 -26 29 -33 0
-19 -27 -39 -41 -30 -8 4 -9 3 -5 -4 4 -7 -5 -23 -21 -37 -27 -24 -27 -24 -6
-25 13 0 22 3 20 8 -1 4 17 25 41 46 29 26 39 42 31 46 -6 4 -8 13 -5 19 4 6
4 11 -1 10 -18 -4 -41 13 -36 27 4 11 9 12 19 3 11 -9 14 -9 14 0 0 22 -32 24
-60 3 -27 -21 -28 -21 -45 -2 -10 11 -15 26 -12 35 4 9 1 15 -8 15 -8 0 -15 5
-15 10 0 6 6 10 13 10 7 0 8 3 2 8 -16 12 -15 30 2 28 8 0 17 7 19 18 2 14 0
16 -9 7 -14 -14 -30 -15 -22 -1 7 11 -8 14 -18 4z m28 -145 c-3 -4 -12 -6 -20
-3 -8 4 -13 10 -10 15 3 4 12 6 20 3 8 -4 13 -10 10 -15z m14 -36 c-8 -9 -14
-21 -15 -27 0 -6 -2 -20 -3 -31 -1 -19 -3 -18 -21 5 -21 27 -26 50 -10 50 6 0
21 9 33 20 24 23 37 9 16 -17z"/>
<path d="M47 893 c-12 -12 -7 -33 8 -40 9 -3 21 2 28 11 11 16 15 15 37 -9
l24 -25 -23 -16 c-15 -11 -21 -23 -18 -36 10 -36 -17 -13 -28 24 -8 28 -13 33
-22 23 -9 -10 -9 -15 0 -24 7 -7 12 -15 12 -19 0 -4 17 -33 38 -65 20 -31 37
-62 37 -67 0 -6 5 -10 10 -10 6 0 10 13 10 29 0 18 6 31 17 35 12 5 14 9 6 14
-9 5 -6 17 9 40 l20 32 29 -21 c16 -11 29 -26 29 -33 0 -19 -27 -39 -41 -30
-8 4 -9 3 -5 -4 4 -7 -5 -23 -21 -37 -27 -24 -27 -24 -6 -25 13 0 22 4 20 8
-1 4 14 22 34 40 43 38 48 78 12 87 -15 3 -20 10 -16 20 4 12 9 13 19 4 11 -9
14 -9 14 0 0 22 -32 24 -60 3 -27 -21 -28 -21 -45 -2 -10 11 -15 26 -12 35 4
9 1 15 -8 15 -8 0 -15 5 -15 10 0 6 4 10 10 10 5 0 7 7 3 16 -6 15 -7 15 -17
1 -10 -13 -15 -13 -36 -1 -28 15 -43 17 -53 7z m27 -10 c-5 -5 -12 -12 -16
-18 -4 -6 -8 -2 -8 8 0 9 7 17 17 17 9 0 12 -3 7 -7z m81 -91 c-9 -9 -35 -11
-35 -3 0 14 12 20 26 14 8 -3 12 -8 9 -11z m14 -39 c-8 -9 -14 -21 -15 -27 0
-6 -2 -20 -3 -31 -1 -19 -3 -18 -21 5 -26 33 -25 49 4 60 13 5 28 14 32 21 6
10 9 10 12 1 2 -7 -2 -20 -9 -29z"/>
<path d="M211 887 c-6 -8 -9 -22 -5 -31 4 -9 1 -16 -6 -16 -10 0 -10 -3 0 -14
6 -8 18 -12 26 -9 11 4 12 9 5 16 -14 14 -14 44 0 52 17 11 23 -3 9 -20 -10
-12 -9 -16 5 -21 24 -10 42 12 29 34 -14 22 -47 27 -63 9z m39 -32 c0 -3 -2
-5 -5 -5 -3 0 -5 2 -5 5 0 3 2 5 5 5 3 0 5 -2 5 -5z m20 0 c0 -3 -2 -5 -5 -5
-3 0 -5 2 -5 5 0 3 2 5 5 5 3 0 5 -2 5 -5z"/>
<path d="M364 886 c-3 -8 0 -25 7 -37 9 -18 9 -24 0 -27 -9 -3 -7 -10 6 -24
10 -11 17 -23 17 -27 -1 -3 14 -30 32 -59 19 -29 34 -57 34 -62 0 -6 5 -10 10
-10 6 0 10 14 10 30 0 19 6 33 16 37 9 3 12 8 5 12 -6 4 -2 18 11 39 l20 32
29 -21 c16 -11 29 -26 29 -33 0 -19 -27 -39 -41 -30 -8 4 -9 3 -5 -4 4 -7 -5
-23 -21 -37 -27 -24 -27 -24 -6 -25 13 0 22 3 21 8 -2 4 17 27 42 50 25 24 39
40 31 36 -11 -5 -13 -2 -9 14 4 15 0 22 -18 26 -16 4 -21 11 -17 21 4 12 9 13
19 4 11 -9 14 -9 14 0 0 22 -32 24 -60 3 -27 -21 -28 -21 -45 -2 -10 11 -15
26 -12 35 4 9 1 15 -8 15 -18 0 -20 16 -2 23 9 4 9 6 -1 6 -7 1 -10 7 -7 14 4
6 1 5 -7 -4 -7 -9 -20 -14 -28 -11 -9 3 -5 -6 9 -22 l25 -26 -23 -16 c-15 -11
-21 -23 -18 -36 11 -39 -18 -11 -30 30 -10 36 -9 43 4 51 19 10 10 41 -12 41
-9 0 -18 -6 -21 -14z m20 -11 c-4 -8 -8 -15 -10 -15 -2 0 -4 7 -4 15 0 8 4 15
10 15 5 0 7 -7 4 -15z m102 -91 c19 7 18 -18 -1 -34 -8 -7 -13 -16 -10 -20 3
-5 1 -18 -3 -30 -8 -22 -9 -22 -30 11 -14 22 -17 36 -10 40 6 4 7 12 3 19 -5
8 -1 18 11 27 17 12 19 12 22 -2 2 -10 10 -14 18 -11z"/>
<path d="M446 782 c-3 -6 -1 -14 5 -17 15 -10 25 3 12 16 -7 7 -13 7 -17 1z"/>
<path d="M530 885 c-8 -9 -9 -15 -2 -15 6 0 14 5 17 10 12 20 26 10 15 -10 -6
-11 -9 -20 -8 -21 41 -11 61 8 38 36 -16 19 -44 19 -60 0z m57 -32 c-4 -3 -7
0 -7 7 0 7 3 10 7 7 3 -4 3 -10 0 -14z m-17 2 c0 -3 -2 -5 -5 -5 -3 0 -5 2 -5
5 0 3 2 5 5 5 3 0 5 -2 5 -5z"/>
<path d="M687 893 c-12 -12 -7 -43 7 -43 18 0 39 27 31 40 -7 11 -28 13 -38 3z
m33 -7 c0 -2 -7 -7 -16 -10 -8 -3 -12 -2 -9 4 6 10 25 14 25 6z"/>
<path d="M851 886 c-6 -7 -9 -21 -5 -30 4 -9 1 -16 -6 -16 -10 0 -10 -3 0 -14
6 -8 18 -12 25 -9 12 4 12 8 -1 28 -13 20 -13 24 1 35 20 17 32 5 15 -15 -7
-8 -11 -15 -9 -16 33 -6 41 -5 46 7 13 33 -42 59 -66 30z m59 -21 c0 -3 -2 -5
-5 -5 -3 0 -5 2 -5 5 0 3 2 5 5 5 3 0 5 -2 5 -5z m-20 -10 c0 -3 -2 -5 -5 -5
-3 0 -5 2 -5 5 0 3 2 5 5 5 3 0 5 -2 5 -5z"/>
<path d="M523 845 c-9 -10 -9 -16 0 -24 19 -15 38 0 24 20 -10 13 -15 14 -24
4z"/>
<path d="M32 698 c-17 -17 -15 -31 8 -46 17 -10 23 -9 40 8 11 11 17 26 14 35
-7 18 -45 20 -62 3z m38 -18 c0 -5 -5 -10 -11 -10 -5 0 -7 -5 -3 -12 4 -7 3
-8 -4 -4 -17 10 -15 36 3 36 8 0 15 -4 15 -10z"/>
<path d="M352 698 c-17 -17 -15 -31 6 -44 22 -14 59 12 54 39 -4 20 -42 23
-60 5z m29 -22 c-6 -7 -9 -16 -6 -20 3 -3 0 -2 -5 2 -13 11 -2 44 12 36 5 -4
5 -11 -1 -18z"/>
<path d="M672 698 c-12 -12 -17 -38 -6 -38 3 0 14 10 23 22 12 15 20 18 25 10
4 -7 1 -12 -8 -12 -9 0 -16 -4 -16 -10 0 -12 37 -13 44 -1 19 31 -35 56 -62
29z"/>
<path d="M270 658 c0 -17 2 -18 15 -8 8 7 15 14 15 15 0 2 -7 5 -15 9 -10 4
-15 -1 -15 -16z"/>
<path d="M590 658 c0 -17 2 -18 15 -8 8 7 15 14 15 15 0 2 -7 5 -15 9 -10 4
-15 -1 -15 -16z"/>
<path d="M910 658 c0 -12 3 -17 8 -12 4 5 11 12 15 15 5 3 2 9 -7 12 -12 5
-16 0 -16 -15z"/>
<path d="M100 645 c0 -3 2 -5 5 -5 3 0 5 2 5 5 0 3 -2 5 -5 5 -3 0 -5 -2 -5
-5z"/>
<path d="M420 645 c0 -3 2 -5 5 -5 3 0 5 2 5 5 0 3 -2 5 -5 5 -3 0 -5 -2 -5
-5z"/>
<path d="M690 645 c0 -3 2 -5 5 -5 3 0 5 2 5 5 0 3 -2 5 -5 5 -3 0 -5 -2 -5
-5z"/>
<path d="M740 645 c0 -3 2 -5 5 -5 3 0 5 2 5 5 0 3 -2 5 -5 5 -3 0 -5 -2 -5
-5z"/>
<path d="M127 613 c-15 -14 -6 -30 18 -30 30 0 37 8 24 27 -6 10 -9 11 -9 3 0
-7 -5 -13 -11 -13 -5 0 -7 5 -4 10 7 11 -8 14 -18 3z"/>
<path d="M447 613 c-15 -14 -6 -30 18 -30 30 0 37 8 24 27 -6 10 -9 11 -9 3 0
-7 -5 -13 -11 -13 -5 0 -7 5 -4 10 7 11 -8 14 -18 3z"/>
<path d="M767 614 c-3 -4 -3 -19 0 -35 5 -26 3 -28 -13 -23 -16 6 -15 3 5 -20
l25 -26 -22 -16 c-21 -14 -33 -52 -13 -39 5 3 12 1 15 -3 3 -5 -4 -9 -16 -8
-17 1 -25 10 -33 37 -8 30 -12 34 -22 24 -10 -10 -9 -16 3 -26 12 -10 12 -14
2 -20 -10 -7 -10 -9 2 -9 13 0 70 -85 78 -117 6 -24 22 -13 22 16 0 18 6 31
17 35 12 5 14 9 6 14 -9 5 -6 17 9 40 l20 32 29 -21 c16 -11 29 -26 29 -33 0
-19 -27 -39 -41 -30 -8 4 -9 3 -5 -4 4 -7 -5 -23 -21 -37 -27 -24 -27 -24 -6
-25 13 0 22 3 20 8 -1 4 17 25 41 46 29 26 39 42 31 46 -6 4 -8 13 -5 19 4 6
4 11 -1 10 -18 -4 -41 13 -36 27 4 11 9 12 19 3 11 -9 14 -9 14 0 0 22 -32 24
-60 3 -27 -21 -28 -21 -45 -2 -10 11 -15 26 -12 35 4 9 1 15 -8 15 -8 0 -15 5
-15 10 0 6 6 10 13 10 7 0 8 3 2 8 -16 12 -15 30 2 28 8 0 17 7 19 18 2 14 0
16 -9 7 -14 -14 -30 -15 -22 -1 7 11 -8 14 -18 4z m28 -145 c-3 -4 -12 -6 -20
-3 -8 4 -13 10 -10 15 3 4 12 6 20 3 8 -4 13 -10 10 -15z m14 -36 c-8 -9 -14
-21 -15 -27 0 -6 -2 -20 -3 -31 -1 -19 -3 -18 -21 5 -21 27 -26 50 -10 50 6 0
21 9 33 20 24 23 37 9 16 -17z"/>
<path d="M43 564 c-9 -23 13 -40 32 -24 8 7 15 19 15 26 0 19 -39 18 -47 -2z
m37 2 c0 -2 -7 -6 -15 -10 -8 -3 -15 -1 -15 4 0 6 7 10 15 10 8 0 15 -2 15 -4z"/>
<path d="M134 566 c-3 -9 -13 -12 -22 -9 -12 4 -10 -2 7 -21 l25 -26 -23 -16
c-15 -11 -21 -23 -18 -36 10 -36 -17 -13 -28 24 -8 29 -12 33 -22 23 -10 -10
-9 -16 2 -25 8 -7 15 -17 15 -22 0 -5 16 -34 35 -64 19 -30 35 -59 35 -64 0
-6 5 -10 10 -10 6 0 10 13 10 29 0 18 6 31 17 35 12 5 14 9 6 14 -9 5 -6 17 9
40 l20 32 29 -21 c16 -11 29 -26 29 -32 0 -7 -21 -31 -47 -54 -42 -37 -45 -42
-26 -43 13 0 22 3 20 8 -1 4 17 25 41 46 29 26 39 42 31 46 -6 4 -9 12 -5 18
3 5 -5 13 -19 16 -16 4 -22 11 -18 21 4 12 9 13 19 4 11 -9 14 -9 14 0 0 22
-32 24 -60 3 -27 -21 -28 -21 -45 -2 -10 11 -15 26 -12 35 4 9 1 15 -8 15 -18
0 -20 16 -2 23 9 4 9 6 -1 6 -7 1 -10 6 -7 11 3 6 4 10 0 10 -3 0 -8 -6 -11
-14z m43 -101 c3 -9 -2 -24 -11 -34 -9 -10 -14 -20 -11 -23 3 -3 2 -15 -3 -28
l-8 -22 -18 26 c-19 30 -13 74 8 57 8 -7 15 -4 24 9 11 18 9 19 -18 16 -16 -2
-27 1 -24 5 9 15 54 10 61 -6z"/>
<path d="M211 566 c-6 -7 -9 -21 -5 -30 4 -9 1 -16 -6 -16 -10 0 -10 -3 0 -14
6 -8 18 -12 25 -9 12 4 12 8 -1 28 -13 20 -13 24 1 35 20 17 32 5 15 -15 -7
-8 -11 -15 -9 -16 33 -6 41 -5 46 7 13 33 -42 59 -66 30z m39 -31 c0 -3 -2 -5
-5 -5 -3 0 -5 2 -5 5 0 3 2 5 5 5 3 0 5 -2 5 -5z m20 0 c0 -3 -2 -5 -5 -5 -3
0 -5 2 -5 5 0 3 2 5 5 5 3 0 5 -2 5 -5z"/>
<path d="M364 566 c-3 -8 0 -25 7 -37 9 -18 9 -24 0 -27 -9 -3 -7 -10 6 -24
10 -11 17 -23 17 -27 -1 -3 14 -30 32 -59 19 -29 34 -57 34 -62 0 -6 5 -10 10
-10 6 0 10 14 10 30 0 19 6 33 16 37 9 3 12 8 5 12 -6 4 -2 18 11 39 l20 32
29 -21 c16 -11 29 -26 29 -33 0 -19 -27 -39 -41 -30 -8 4 -9 3 -5 -4 4 -7 -5
-23 -21 -37 -27 -24 -27 -24 -6 -25 13 0 22 3 21 8 -2 4 17 27 42 50 25 24 39
40 31 36 -11 -5 -13 -2 -9 14 4 15 0 22 -18 26 -16 4 -21 11 -17 21 4 12 9 13
19 4 11 -9 14 -9 14 0 0 22 -32 24 -60 3 -27 -21 -28 -21 -45 -2 -10 11 -15
26 -12 35 4 9 1 15 -8 15 -18 0 -20 16 -2 23 9 4 9 6 -1 6 -7 1 -10 7 -7 14 4
6 1 5 -7 -4 -7 -9 -20 -14 -28 -11 -9 3 -5 -6 9 -22 l25 -26 -23 -16 c-15 -11
-21 -23 -18 -36 10 -38 -18 -11 -29 28 -9 32 -9 42 3 56 8 9 12 22 8 27 -9 16
-35 13 -41 -3z m20 -11 c-4 -8 -8 -15 -10 -15 -2 0 -4 7 -4 15 0 8 4 15 10 15
5 0 7 -7 4 -15z m86 -86 c0 -6 7 -9 15 -5 20 7 20 -18 0 -34 -8 -7 -13 -16
-10 -20 3 -5 1 -18 -3 -30 -8 -22 -9 -22 -30 11 -14 22 -17 36 -10 40 6 4 7
12 4 18 -4 6 -4 16 -1 21 8 14 35 13 35 -1z"/>
<path d="M446 462 c-3 -6 -1 -14 5 -17 15 -10 25 3 12 16 -7 7 -13 7 -17 1z"/>
<path d="M530 565 c-8 -9 -9 -15 -2 -15 6 0 14 5 17 10 12 20 26 10 15 -10 -6
-11 -9 -20 -8 -21 41 -11 61 8 38 36 -16 19 -44 19 -60 0z m57 -32 c-4 -3 -7
0 -7 7 0 7 3 10 7 7 3 -4 3 -10 0 -14z m-17 2 c0 -3 -2 -5 -5 -5 -3 0 -5 2 -5
5 0 3 2 5 5 5 3 0 5 -2 5 -5z"/>
<path d="M687 573 c-12 -12 -7 -43 7 -43 18 0 39 27 31 40 -7 11 -28 13 -38 3z
m33 -7 c0 -2 -7 -7 -16 -10 -8 -3 -12 -2 -9 4 6 10 25 14 25 6z"/>
<path d="M851 566 c-6 -7 -9 -21 -5 -30 4 -9 1 -16 -6 -16 -10 0 -10 -3 0 -14
6 -8 18 -12 25 -9 12 4 12 8 -1 28 -13 20 -13 24 1 35 20 17 32 5 15 -15 -7
-8 -11 -15 -9 -16 33 -6 41 -5 46 7 13 33 -42 59 -66 30z m59 -21 c0 -3 -2 -5
-5 -5 -3 0 -5 2 -5 5 0 3 2 5 5 5 3 0 5 -2 5 -5z m-20 -10 c0 -3 -2 -5 -5 -5
-3 0 -5 2 -5 5 0 3 2 5 5 5 3 0 5 -2 5 -5z"/>
<path d="M523 525 c-9 -10 -9 -16 0 -24 19 -15 38 0 24 20 -10 13 -15 14 -24
4z"/>
<path d="M50 455 c0 -3 2 -5 5 -5 3 0 5 2 5 5 0 3 -2 5 -5 5 -3 0 -5 -2 -5 -5z"/>
<path d="M32 378 c-18 -18 -15 -36 9 -49 17 -9 20 -8 14 2 -6 9 -2 11 13 7 12
-4 20 -2 17 2 -3 5 -1 11 4 15 6 3 8 12 4 20 -6 18 -44 20 -61 3z m25 -25
c-15 -16 -17 -16 -17 -1 0 9 6 18 13 21 20 7 22 -2 4 -20z"/>
<path d="M352 378 c-17 -17 -15 -31 6 -44 22 -14 59 12 54 39 -4 20 -42 23
-60 5z m29 -22 c-6 -7 -9 -16 -6 -20 3 -3 0 -2 -5 2 -13 11 -2 44 12 36 5 -4
5 -11 -1 -18z"/>
<path d="M672 378 c-12 -12 -17 -38 -6 -38 3 0 14 10 23 22 12 15 20 18 25 10
4 -7 1 -12 -8 -12 -9 0 -16 -4 -16 -10 0 -12 37 -13 44 -1 19 31 -35 56 -62
29z"/>
<path d="M270 338 c0 -17 2 -18 15 -8 8 7 15 14 15 15 0 2 -7 5 -15 9 -10 4
-15 -1 -15 -16z"/>
<path d="M590 338 c0 -17 2 -18 15 -8 8 7 15 14 15 15 0 2 -7 5 -15 9 -10 4
-15 -1 -15 -16z"/>
<path d="M910 338 c0 -17 2 -18 15 -8 8 7 15 14 15 15 0 2 -7 5 -15 9 -10 4
-15 -1 -15 -16z"/>
<path d="M100 325 c0 -3 2 -5 5 -5 3 0 5 2 5 5 0 3 -2 5 -5 5 -3 0 -5 -2 -5
-5z"/>
<path d="M420 325 c0 -3 2 -5 5 -5 3 0 5 2 5 5 0 3 -2 5 -5 5 -3 0 -5 -2 -5
-5z"/>
<path d="M690 325 c0 -3 2 -5 5 -5 3 0 5 2 5 5 0 3 -2 5 -5 5 -3 0 -5 -2 -5
-5z"/>
<path d="M740 325 c0 -3 2 -5 5 -5 3 0 5 2 5 5 0 3 -2 5 -5 5 -3 0 -5 -2 -5
-5z"/>
<path d="M127 293 c-15 -14 -6 -30 18 -30 30 0 37 8 24 27 -6 10 -9 11 -9 3 0
-7 -5 -13 -11 -13 -5 0 -7 5 -4 10 7 11 -8 14 -18 3z"/>
<path d="M447 294 c-3 -4 -3 -19 0 -35 5 -26 3 -28 -13 -23 -16 6 -15 3 5 -20
l25 -26 -22 -16 c-21 -14 -33 -52 -13 -39 5 3 12 1 15 -3 3 -5 -4 -9 -16 -8
-17 1 -25 10 -33 37 -8 30 -12 34 -22 24 -10 -10 -9 -16 3 -26 12 -10 12 -14
2 -20 -10 -7 -10 -9 2 -9 13 0 70 -85 78 -117 6 -24 22 -13 22 16 0 18 6 31
17 35 12 5 14 9 6 14 -9 5 -6 17 9 40 l20 32 29 -21 c16 -11 29 -26 29 -33 0
-19 -27 -39 -41 -30 -8 4 -9 3 -5 -4 4 -7 -5 -23 -21 -37 -27 -24 -27 -24 -6
-25 13 0 22 3 20 8 -1 4 17 25 41 46 29 26 39 42 31 46 -6 4 -8 13 -5 19 4 6
4 11 -1 10 -18 -4 -41 13 -36 27 4 11 9 12 19 3 11 -9 14 -9 14 0 0 22 -32 24
-60 3 -27 -21 -28 -21 -45 -2 -10 11 -15 26 -12 35 4 9 1 15 -8 15 -8 0 -15 5
-15 10 0 6 6 10 13 10 7 0 8 3 2 8 -16 12 -15 30 2 28 8 0 17 7 19 18 2 14 0
16 -9 7 -14 -14 -30 -15 -22 -1 7 11 -8 14 -18 4z m28 -145 c-3 -4 -12 -6 -20
-3 -8 4 -13 10 -10 15 3 4 12 6 20 3 8 -4 13 -10 10 -15z m14 -36 c-8 -9 -14
-21 -15 -27 0 -6 -2 -20 -3 -31 -1 -19 -3 -18 -21 5 -21 27 -26 50 -10 50 6 0
21 9 33 20 24 23 37 9 16 -17z"/>
<path d="M767 293 c-15 -14 -6 -30 18 -30 30 0 37 8 24 27 -6 10 -9 11 -9 3 0
-7 -5 -13 -11 -13 -5 0 -7 5 -4 10 7 11 -8 14 -18 3z"/>
<path d="M44 246 c-3 -8 0 -25 7 -37 9 -18 9 -24 0 -27 -9 -3 -7 -10 6 -24 10
-11 17 -23 17 -27 -1 -3 14 -30 32 -59 19 -29 34 -57 34 -62 0 -6 5 -10 10
-10 6 0 10 14 10 30 0 19 6 33 16 37 9 3 12 8 5 12 -6 4 -2 18 11 39 l20 32
29 -21 c16 -11 29 -26 29 -33 0 -19 -27 -39 -41 -30 -8 4 -9 3 -5 -4 4 -7 -5
-23 -21 -37 -27 -24 -27 -24 -6 -25 13 0 22 3 21 8 -2 4 17 27 42 50 25 24 39
40 31 36 -11 -5 -13 -2 -9 14 4 15 0 22 -18 26 -16 4 -21 11 -17 21 4 12 9 13
19 4 11 -9 14 -9 14 0 0 22 -32 24 -60 3 -27 -21 -28 -21 -45 -2 -10 11 -15
26 -12 35 4 9 1 15 -8 15 -18 0 -20 16 -2 23 9 4 9 6 -1 6 -7 1 -10 7 -7 14 4
6 1 5 -7 -4 -7 -9 -20 -14 -28 -11 -9 3 -5 -6 9 -22 l25 -26 -23 -16 c-15 -11
-21 -23 -18 -36 11 -39 -18 -11 -30 30 -10 36 -9 43 4 51 19 10 10 41 -12 41
-9 0 -18 -6 -21 -14z m20 -11 c-4 -8 -8 -15 -10 -15 -2 0 -4 7 -4 15 0 8 4 15
10 15 5 0 7 -7 4 -15z m102 -91 c19 7 18 -18 -1 -34 -8 -7 -13 -16 -10 -20 3
-5 1 -18 -3 -30 -8 -22 -9 -22 -30 11 -14 22 -17 36 -10 40 6 4 7 12 3 19 -5
8 -1 18 11 27 17 12 19 12 22 -2 2 -10 10 -14 18 -11z"/>
<path d="M126 142 c-3 -6 -1 -14 5 -17 15 -10 25 3 12 16 -7 7 -13 7 -17 1z"/>
<path d="M210 245 c-8 -9 -9 -15 -2 -15 6 0 14 5 17 10 12 20 26 10 15 -10 -6
-11 -9 -20 -8 -21 41 -11 61 8 38 36 -16 19 -44 19 -60 0z m57 -32 c-4 -3 -7
0 -7 7 0 7 3 10 7 7 3 -4 3 -10 0 -14z m-17 2 c0 -3 -2 -5 -5 -5 -3 0 -5 2 -5
5 0 3 2 5 5 5 3 0 5 -2 5 -5z"/>
<path d="M367 253 c-12 -12 -7 -43 7 -43 18 0 39 27 31 40 -7 11 -28 13 -38 3z
m33 -7 c0 -2 -7 -7 -16 -10 -8 -3 -12 -2 -9 4 6 10 25 14 25 6z"/>
<path d="M531 246 c-6 -7 -9 -21 -5 -30 4 -9 1 -16 -6 -16 -10 0 -10 -3 0 -14
6 -8 18 -12 25 -9 12 4 12 8 -1 28 -13 20 -13 24 1 35 20 17 32 5 15 -15 -7
-8 -11 -15 -9 -16 33 -6 41 -5 46 7 13 33 -42 59 -66 30z m59 -21 c0 -3 -2 -5
-5 -5 -3 0 -5 2 -5 5 0 3 2 5 5 5 3 0 5 -2 5 -5z m-20 -10 c0 -3 -2 -5 -5 -5
-3 0 -5 2 -5 5 0 3 2 5 5 5 3 0 5 -2 5 -5z"/>
<path d="M684 246 c-3 -8 0 -25 7 -37 9 -18 9 -24 0 -27 -9 -3 -7 -10 6 -24
10 -11 17 -23 17 -27 -1 -3 14 -30 32 -59 19 -29 34 -57 34 -62 0 -6 5 -10 10
-10 6 0 10 14 10 30 0 19 6 33 16 37 9 3 12 8 5 12 -6 4 -2 18 11 39 l20 32
29 -21 c16 -11 29 -26 29 -33 0 -19 -27 -39 -41 -30 -8 4 -9 3 -5 -4 4 -7 -5
-23 -21 -37 -27 -24 -27 -24 -6 -25 13 0 22 3 21 8 -2 4 17 27 42 50 25 24 39
40 31 36 -11 -5 -13 -2 -9 14 4 15 0 22 -18 26 -16 4 -21 11 -17 21 4 12 9 13
19 4 11 -9 14 -9 14 0 0 22 -32 24 -60 3 -27 -21 -28 -21 -45 -2 -10 11 -15
26 -12 35 4 9 1 15 -8 15 -18 0 -20 16 -2 23 9 4 9 6 -1 6 -7 1 -10 7 -7 14 4
6 1 5 -7 -4 -7 -9 -20 -14 -28 -11 -9 3 -5 -6 9 -22 l25 -26 -23 -16 c-15 -11
-21 -23 -18 -36 11 -39 -18 -11 -30 30 -10 36 -9 43 4 51 19 10 10 41 -12 41
-9 0 -18 -6 -21 -14z m20 -11 c-4 -8 -8 -15 -10 -15 -2 0 -4 7 -4 15 0 8 4 15
10 15 5 0 7 -7 4 -15z m102 -91 c19 7 18 -18 -1 -34 -8 -7 -13 -16 -10 -20 3
-5 1 -18 -3 -30 -8 -22 -9 -22 -30 11 -14 22 -17 36 -10 40 6 4 7 12 3 19 -5
8 -1 18 11 27 17 12 19 12 22 -2 2 -10 10 -14 18 -11z"/>
<path d="M766 142 c-3 -6 -1 -14 5 -17 15 -10 25 3 12 16 -7 7 -13 7 -17 1z"/>
<path d="M850 245 c-8 -9 -9 -15 -2 -15 6 0 14 5 17 10 12 20 26 10 15 -10 -6
-11 -9 -20 -8 -21 41 -11 61 8 38 36 -16 19 -44 19 -60 0z m57 -32 c-4 -3 -7
0 -7 7 0 7 3 10 7 7 3 -4 3 -10 0 -14z m-17 2 c0 -3 -2 -5 -5 -5 -3 0 -5 2 -5
5 0 3 2 5 5 5 3 0 5 -2 5 -5z"/>
<path d="M203 205 c-9 -10 -9 -16 0 -24 19 -15 38 0 24 20 -10 13 -15 14 -24
4z"/>
<path d="M843 205 c-9 -10 -9 -16 0 -24 19 -15 38 0 24 20 -10 13 -15 14 -24
4z"/>
<path d="M32 58 c-17 -17 -15 -31 6 -44 22 -14 59 12 54 39 -4 20 -42 23 -60
5z m29 -22 c-6 -7 -9 -16 -6 -20 3 -3 0 -2 -5 2 -13 11 -2 44 12 36 5 -4 5
-11 -1 -18z"/>
<path d="M352 58 c-12 -12 -17 -38 -6 -38 3 0 14 10 23 22 12 15 20 18 25 10
4 -7 1 -12 -8 -12 -9 0 -16 -4 -16 -10 0 -12 37 -13 44 -1 19 31 -35 56 -62
29z"/>
<path d="M672 58 c-17 -17 -15 -31 6 -44 22 -14 59 12 54 39 -4 20 -42 23 -60
5z m29 -22 c-6 -7 -9 -16 -6 -20 3 -3 0 -2 -5 2 -13 11 -2 44 12 36 5 -4 5
-11 -1 -18z"/>
<path d="M270 18 c0 -17 2 -18 15 -8 8 7 15 14 15 15 0 2 -7 5 -15 9 -10 4
-15 -1 -15 -16z"/>
<path d="M590 18 c0 -17 2 -18 15 -8 8 7 15 14 15 15 0 2 -7 5 -15 9 -10 4
-15 -1 -15 -16z"/>
<path d="M910 18 c0 -17 2 -18 15 -8 8 7 15 14 15 15 0 2 -7 5 -15 9 -10 4
-15 -1 -15 -16z"/>
<path d="M100 5 c0 -3 2 -5 5 -5 3 0 5 2 5 5 0 3 -2 5 -5 5 -3 0 -5 -2 -5 -5z"/>
<path d="M370 5 c0 -3 2 -5 5 -5 3 0 5 2 5 5 0 3 -2 5 -5 5 -3 0 -5 -2 -5 -5z"/>
<path d="M420 5 c0 -3 2 -5 5 -5 3 0 5 2 5 5 0 3 -2 5 -5 5 -3 0 -5 -2 -5 -5z"/>
<path d="M740 5 c0 -3 2 -5 5 -5 3 0 5 2 5 5 0 3 -2 5 -5 5 -3 0 -5 -2 -5 -5z"/>
</g>
<g transform="translate(0.000000,96.000000) scale(0.100000,-0.100000)"
fill="#205c00" stroke="none">
<path d="M125 930 c-3 -5 -2 -10 4 -10 5 0 13 5 16 10 3 6 2 10 -4 10 -5 0
-13 -4 -16 -10z"/>
<path d="M445 930 c-3 -5 -2 -10 4 -10 5 0 13 5 16 10 3 6 2 10 -4 10 -5 0
-13 -4 -16 -10z"/>
<path d="M765 930 c-3 -5 -2 -10 4 -10 5 0 13 5 16 10 3 6 2 10 -4 10 -5 0
-13 -4 -16 -10z"/>
<path d="M44 888 c-4 -7 -3 -8 4 -4 12 7 16 16 8 16 -3 0 -8 -5 -12 -12z"/>
<path d="M364 888 c-4 -7 -3 -8 4 -4 12 7 16 16 8 16 -3 0 -8 -5 -12 -12z"/>
<path d="M684 888 c-4 -7 -3 -8 4 -4 7 4 12 9 12 12 0 8 -9 4 -16 -8z"/>
<path d="M130 880 c0 -5 -8 -6 -17 -3 -11 4 -4 -9 17 -35 18 -23 34 -42 34
-42 1 0 1 11 1 25 0 14 -6 25 -12 25 -16 0 -17 17 -1 22 7 3 6 7 -5 11 -9 3
-17 2 -17 -3z"/>
<path d="M266 877 c3 -10 9 -15 12 -12 3 3 0 11 -7 18 -10 9 -11 8 -5 -6z"/>
<path d="M450 880 c0 -5 -8 -6 -17 -3 -11 4 -4 -9 17 -35 18 -23 34 -42 34
-42 1 0 1 11 1 25 0 14 -6 25 -12 25 -16 0 -17 17 -1 22 7 3 6 7 -5 11 -9 3
-17 2 -17 -3z"/>
<path d="M586 877 c3 -10 9 -15 12 -12 3 3 0 11 -7 18 -10 9 -11 8 -5 -6z"/>
<path d="M770 880 c0 -5 -8 -6 -17 -3 -11 4 -4 -9 17 -35 18 -23 34 -42 34
-42 1 0 1 11 1 25 0 14 -6 25 -12 25 -16 0 -17 17 -1 22 7 3 6 7 -5 11 -9 3
-17 2 -17 -3z"/>
<path d="M906 877 c3 -10 9 -15 12 -12 3 3 0 11 -7 18 -10 9 -11 8 -5 -6z"/>
<path d="M70 865 c0 -3 2 -5 5 -5 3 0 5 2 5 5 0 3 -2 5 -5 5 -3 0 -5 -2 -5 -5z"/>
<path d="M390 865 c0 -3 2 -5 5 -5 3 0 5 2 5 5 0 3 -2 5 -5 5 -3 0 -5 -2 -5
-5z"/>
<path d="M710 865 c0 -3 2 -5 5 -5 3 0 5 2 5 5 0 3 -2 5 -5 5 -3 0 -5 -2 -5
-5z"/>
<path d="M250 855 c0 -3 2 -5 5 -5 3 0 5 2 5 5 0 3 -2 5 -5 5 -3 0 -5 -2 -5
-5z"/>
<path d="M570 855 c0 -3 2 -5 5 -5 3 0 5 2 5 5 0 3 -2 5 -5 5 -3 0 -5 -2 -5
-5z"/>
<path d="M890 855 c0 -3 2 -5 5 -5 3 0 5 2 5 5 0 3 -2 5 -5 5 -3 0 -5 -2 -5
-5z"/>
<path d="M202 843 c-20 -8 6 -33 26 -26 9 3 6 -3 -8 -13 -14 -10 -28 -18 -32
-16 -5 1 -8 -4 -8 -12 0 -7 -7 -19 -15 -26 -8 -7 -13 -16 -10 -20 3 -5 1 -18
-3 -30 -8 -22 -8 -22 -26 5 -10 15 -15 33 -12 40 2 7 -4 15 -14 18 -12 3 -21
18 -25 40 -6 29 -10 34 -20 24 -11 -10 -11 -15 0 -27 8 -8 14 -19 16 -25 1 -5
17 -34 35 -63 19 -29 34 -57 34 -62 0 -6 5 -10 10 -10 6 0 10 13 10 29 0 18 6
31 17 35 12 5 14 9 6 14 -9 5 -6 17 9 40 l20 32 29 -21 c16 -11 29 -26 29 -33
0 -19 -27 -39 -41 -30 -8 4 -9 3 -5 -4 4 -7 -5 -23 -21 -37 -27 -24 -27 -24
-5 -25 12 0 21 4 20 8 -2 4 13 22 33 40 43 38 48 78 12 87 -15 3 -20 10 -16
20 4 12 9 13 19 4 11 -9 14 -9 14 0 0 6 -8 14 -17 18 -10 3 -25 12 -33 18 -8
7 -21 10 -28 8z"/>
<path d="M522 843 c-20 -8 6 -33 26 -26 9 3 6 -3 -8 -13 -14 -10 -28 -18 -32
-16 -5 1 -8 -4 -8 -12 0 -7 -7 -19 -15 -26 -8 -7 -13 -16 -10 -20 3 -5 1 -18
-3 -30 -8 -22 -9 -22 -30 11 -13 21 -17 36 -11 40 6 3 2 9 -9 12 -14 3 -23 16
-27 40 -6 29 -10 34 -20 24 -11 -10 -11 -15 0 -27 8 -8 14 -19 16 -25 1 -5 17
-34 35 -63 19 -29 34 -57 34 -62 0 -6 5 -10 10 -10 6 0 10 14 10 30 0 19 6 33
16 37 9 3 12 8 5 12 -6 4 -2 18 11 39 l20 32 29 -21 c16 -11 29 -26 29 -33 0
-19 -27 -39 -41 -30 -8 4 -9 3 -5 -4 4 -7 -5 -23 -21 -37 -27 -24 -27 -24 -5
-25 12 0 21 3 20 8 -2 4 17 27 42 50 25 24 39 40 31 36 -11 -5 -13 -2 -9 14 4
15 0 22 -18 26 -16 4 -21 11 -17 21 4 12 9 13 19 4 11 -9 14 -9 14 0 0 6 -8
14 -17 18 -10 3 -25 12 -33 18 -8 7 -21 10 -28 8z"/>
<path d="M842 843 c-20 -8 6 -33 26 -26 9 3 6 -3 -8 -13 -14 -10 -28 -18 -32
-16 -5 1 -8 -4 -8 -12 0 -7 -7 -19 -15 -26 -8 -7 -13 -16 -10 -20 3 -5 1 -18
-3 -30 -8 -22 -8 -22 -26 5 -10 15 -15 33 -12 40 2 7 -4 15 -14 18 -12 3 -21
18 -25 40 -6 29 -10 34 -20 24 -11 -10 -10 -15 2 -28 11 -14 12 -18 1 -22 -10
-4 -9 -6 2 -6 13 -1 70 -87 78 -118 6 -24 22 -13 22 16 0 18 6 31 17 35 12 5
14 9 6 14 -9 5 -6 17 9 40 l20 32 29 -21 c16 -11 29 -26 29 -33 0 -19 -27 -39
-41 -30 -8 4 -9 3 -5 -4 4 -7 -5 -23 -21 -37 -27 -24 -27 -24 -5 -25 12 0 21
3 20 8 -2 4 16 25 40 46 29 26 39 42 31 46 -6 4 -8 13 -5 19 4 6 4 11 -1 10
-18 -4 -41 13 -36 27 4 11 9 12 19 3 11 -9 14 -9 14 0 0 6 -8 14 -17 18 -10 3
-25 12 -33 18 -8 7 -21 10 -28 8z"/>
<path d="M109 803 c-13 -16 -12 -17 4 -4 9 7 17 15 17 17 0 8 -8 3 -21 -13z"/>
<path d="M429 803 c-13 -16 -12 -17 4 -4 9 7 17 15 17 17 0 8 -8 3 -21 -13z"/>
<path d="M749 803 c-13 -16 -12 -17 4 -4 9 7 17 15 17 17 0 8 -8 3 -21 -13z"/>
<path d="M140 775 c0 -3 2 -5 5 -5 3 0 5 2 5 5 0 3 -2 5 -5 5 -3 0 -5 -2 -5
-5z"/>
<path d="M460 775 c0 -3 2 -5 5 -5 3 0 5 2 5 5 0 3 -2 5 -5 5 -3 0 -5 -2 -5
-5z"/>
<path d="M780 775 c0 -3 2 -5 5 -5 3 0 5 2 5 5 0 3 -2 5 -5 5 -3 0 -5 -2 -5
-5z"/>
<path d="M29 693 c-13 -16 -12 -17 4 -4 9 7 17 15 17 17 0 8 -8 3 -21 -13z"/>
<path d="M75 700 c3 -5 8 -10 11 -10 2 0 4 5 4 10 0 6 -5 10 -11 10 -5 0 -7
-4 -4 -10z"/>
<path d="M350 695 c-7 -9 -8 -15 -2 -15 5 0 12 7 16 15 3 8 4 15 2 15 -2 0 -9
-7 -16 -15z"/>
<path d="M395 700 c3 -5 8 -10 11 -10 2 0 4 5 4 10 0 6 -5 10 -11 10 -5 0 -7
-4 -4 -10z"/>
<path d="M669 693 c-13 -16 -12 -17 4 -4 9 7 17 15 17 17 0 8 -8 3 -21 -13z"/>
<path d="M715 700 c3 -5 8 -10 11 -10 2 0 4 5 4 10 0 6 -5 10 -11 10 -5 0 -7
-4 -4 -10z"/>
<path d="M65 670 c-16 -7 -17 -9 -3 -9 9 -1 20 4 23 9 7 11 7 11 -20 0z"/>
<path d="M270 658 c0 -17 2 -18 15 -8 8 7 15 14 15 15 0 2 -7 5 -15 9 -10 4
-15 -1 -15 -16z"/>
<path d="M390 670 c-9 -6 -10 -10 -3 -10 6 0 15 5 18 10 8 12 4 12 -15 0z"/>
<path d="M590 658 c0 -17 2 -18 15 -8 8 7 15 14 15 15 0 2 -7 5 -15 9 -10 4
-15 -1 -15 -16z"/>
<path d="M710 670 c-9 -6 -10 -10 -3 -10 6 0 15 5 18 10 8 12 4 12 -15 0z"/>
<path d="M910 658 c0 -12 3 -17 8 -12 4 5 11 12 15 15 5 3 2 9 -7 12 -12 5
-16 0 -16 -15z"/>
<path d="M100 645 c0 -3 2 -5 5 -5 3 0 5 2 5 5 0 3 -2 5 -5 5 -3 0 -5 -2 -5
-5z"/>
<path d="M420 645 c0 -3 2 -5 5 -5 3 0 5 2 5 5 0 3 -2 5 -5 5 -3 0 -5 -2 -5
-5z"/>
<path d="M740 645 c0 -3 2 -5 5 -5 3 0 5 2 5 5 0 3 -2 5 -5 5 -3 0 -5 -2 -5
-5z"/>
<path d="M125 610 c-3 -5 -2 -10 4 -10 5 0 13 5 16 10 3 6 2 10 -4 10 -5 0
-13 -4 -16 -10z"/>
<path d="M445 610 c-3 -5 -2 -10 4 -10 5 0 13 5 16 10 3 6 2 10 -4 10 -5 0
-13 -4 -16 -10z"/>
<path d="M765 610 c-3 -5 -2 -10 4 -10 5 0 13 5 16 10 3 6 2 10 -4 10 -5 0
-13 -4 -16 -10z"/>
<path d="M44 568 c-4 -7 -3 -8 4 -4 7 4 12 9 12 12 0 8 -9 4 -16 -8z"/>
<path d="M364 568 c-4 -7 -3 -8 4 -4 7 4 12 9 12 12 0 8 -9 4 -16 -8z"/>
<path d="M684 568 c-4 -7 -3 -8 4 -4 7 4 12 9 12 12 0 8 -9 4 -16 -8z"/>
<path d="M130 560 c0 -5 -8 -6 -17 -3 -11 4 -4 -9 17 -35 18 -23 34 -42 34
-42 1 0 1 11 1 25 0 14 -6 25 -12 25 -16 0 -17 17 -1 22 7 3 6 7 -5 11 -9 3
-17 2 -17 -3z"/>
<path d="M266 557 c3 -10 9 -15 12 -12 3 3 0 11 -7 18 -10 9 -11 8 -5 -6z"/>
<path d="M450 560 c0 -5 -8 -6 -17 -3 -11 4 -4 -9 17 -35 18 -23 34 -42 34
-42 1 0 1 11 1 25 0 14 -6 25 -12 25 -16 0 -17 17 -1 22 7 3 6 7 -5 11 -9 3
-17 2 -17 -3z"/>
<path d="M586 557 c3 -10 9 -15 12 -12 3 3 0 11 -7 18 -10 9 -11 8 -5 -6z"/>
<path d="M770 560 c0 -5 -8 -6 -17 -3 -11 4 -4 -9 17 -35 18 -23 34 -42 34
-42 1 0 1 11 1 25 0 14 -6 25 -12 25 -16 0 -17 17 -1 22 7 3 6 7 -5 11 -9 3
-17 2 -17 -3z"/>
<path d="M906 557 c3 -10 9 -15 12 -12 3 3 0 11 -7 18 -10 9 -11 8 -5 -6z"/>
<path d="M70 545 c0 -3 2 -5 5 -5 3 0 5 2 5 5 0 3 -2 5 -5 5 -3 0 -5 -2 -5 -5z"/>
<path d="M390 545 c0 -3 2 -5 5 -5 3 0 5 2 5 5 0 3 -2 5 -5 5 -3 0 -5 -2 -5
-5z"/>
<path d="M710 545 c0 -3 2 -5 5 -5 3 0 5 2 5 5 0 3 -2 5 -5 5 -3 0 -5 -2 -5
-5z"/>
<path d="M250 535 c0 -3 2 -5 5 -5 3 0 5 2 5 5 0 3 -2 5 -5 5 -3 0 -5 -2 -5
-5z"/>
<path d="M570 535 c0 -3 2 -5 5 -5 3 0 5 2 5 5 0 3 -2 5 -5 5 -3 0 -5 -2 -5
-5z"/>
<path d="M890 535 c0 -3 2 -5 5 -5 3 0 5 2 5 5 0 3 -2 5 -5 5 -3 0 -5 -2 -5
-5z"/>
<path d="M202 523 c-20 -8 6 -33 26 -26 9 3 6 -3 -8 -13 -14 -10 -28 -18 -32
-16 -5 1 -8 -4 -8 -12 0 -7 -7 -19 -15 -26 -8 -7 -13 -16 -10 -20 3 -5 1 -18
-3 -30 -8 -22 -8 -22 -26 5 -10 15 -15 33 -12 40 2 7 -4 15 -14 18 -12 3 -21
18 -25 40 -6 29 -10 34 -20 24 -11 -10 -11 -15 1 -28 8 -8 14 -19 14 -23 0 -4
16 -32 35 -62 19 -30 35 -59 35 -64 0 -6 5 -10 10 -10 6 0 10 13 10 29 0 18 6
31 17 35 12 5 14 9 6 14 -9 5 -6 17 9 40 l20 32 29 -21 c16 -11 29 -26 29 -32
0 -7 -21 -31 -47 -54 -42 -37 -45 -42 -25 -43 12 0 21 3 20 8 -2 4 16 25 40
46 29 26 39 42 31 46 -6 4 -9 12 -5 18 3 5 -5 13 -19 16 -16 4 -22 11 -18 21
4 12 9 13 19 4 11 -9 14 -9 14 0 0 6 -8 14 -17 18 -10 3 -25 12 -33 18 -8 7
-21 10 -28 8z"/>
<path d="M522 523 c-20 -8 6 -33 26 -26 9 3 6 -3 -8 -13 -14 -10 -28 -18 -32
-16 -5 1 -8 -4 -8 -12 0 -7 -7 -19 -15 -26 -8 -7 -13 -16 -10 -20 3 -5 1 -18
-3 -30 -8 -22 -9 -22 -30 11 -13 21 -17 36 -11 40 6 3 2 9 -9 12 -14 3 -23 16
-27 40 -6 29 -10 34 -20 24 -11 -10 -11 -15 0 -27 8 -8 14 -19 16 -25 1 -5 17
-34 35 -63 19 -29 34 -57 34 -62 0 -6 5 -10 10 -10 6 0 10 14 10 30 0 19 6 33
16 37 9 3 12 8 5 12 -6 4 -2 18 11 39 l20 32 29 -21 c16 -11 29 -26 29 -33 0
-19 -27 -39 -41 -30 -8 4 -9 3 -5 -4 4 -7 -5 -23 -21 -37 -27 -24 -27 -24 -5
-25 12 0 21 3 20 8 -2 4 17 27 42 50 25 24 39 40 31 36 -11 -5 -13 -2 -9 14 4
15 0 22 -18 26 -16 4 -21 11 -17 21 4 12 9 13 19 4 11 -9 14 -9 14 0 0 6 -8
14 -17 18 -10 3 -25 12 -33 18 -8 7 -21 10 -28 8z"/>
<path d="M842 523 c-20 -8 6 -33 26 -26 9 3 6 -3 -8 -13 -14 -10 -28 -18 -32
-16 -5 1 -8 -4 -8 -12 0 -7 -7 -19 -15 -26 -8 -7 -13 -16 -10 -20 3 -5 1 -18
-3 -30 -8 -22 -8 -22 -26 5 -10 15 -15 33 -12 40 2 7 -4 15 -14 18 -12 3 -21
18 -25 40 -6 29 -10 34 -20 24 -11 -10 -10 -15 2 -28 11 -14 12 -18 1 -22 -10
-4 -9 -6 2 -6 13 -1 70 -87 78 -118 6 -24 22 -13 22 16 0 18 6 31 17 35 12 5
14 9 6 14 -9 5 -6 17 9 40 l20 32 29 -21 c16 -11 29 -26 29 -33 0 -19 -27 -39
-41 -30 -8 4 -9 3 -5 -4 4 -7 -5 -23 -21 -37 -27 -24 -27 -24 -5 -25 12 0 21
3 20 8 -2 4 16 25 40 46 29 26 39 42 31 46 -6 4 -8 13 -5 19 4 6 4 11 -1 10
-18 -4 -41 13 -36 27 4 11 9 12 19 3 11 -9 14 -9 14 0 0 6 -8 14 -17 18 -10 3
-25 12 -33 18 -8 7 -21 10 -28 8z"/>
<path d="M109 483 c-13 -16 -12 -17 4 -4 9 7 17 15 17 17 0 8 -8 3 -21 -13z"/>
<path d="M429 483 c-13 -16 -12 -17 4 -4 9 7 17 15 17 17 0 8 -8 3 -21 -13z"/>
<path d="M749 483 c-13 -16 -12 -17 4 -4 9 7 17 15 17 17 0 8 -8 3 -21 -13z"/>
<path d="M50 455 c0 -3 2 -5 5 -5 3 0 5 2 5 5 0 3 -2 5 -5 5 -3 0 -5 -2 -5 -5z"/>
<path d="M140 455 c0 -3 2 -5 5 -5 3 0 5 2 5 5 0 3 -2 5 -5 5 -3 0 -5 -2 -5
-5z"/>
<path d="M460 455 c0 -3 2 -5 5 -5 3 0 5 2 5 5 0 3 -2 5 -5 5 -3 0 -5 -2 -5
-5z"/>
<path d="M780 455 c0 -3 2 -5 5 -5 3 0 5 2 5 5 0 3 -2 5 -5 5 -3 0 -5 -2 -5
-5z"/>
<path d="M29 373 c-13 -16 -12 -17 4 -4 9 7 17 15 17 17 0 8 -8 3 -21 -13z"/>
<path d="M75 380 c3 -5 8 -10 11 -10 2 0 4 5 4 10 0 6 -5 10 -11 10 -5 0 -7
-4 -4 -10z"/>
<path d="M350 375 c-7 -9 -8 -15 -2 -15 5 0 12 7 16 15 3 8 4 15 2 15 -2 0 -9
-7 -16 -15z"/>
<path d="M395 380 c3 -5 8 -10 11 -10 2 0 4 5 4 10 0 6 -5 10 -11 10 -5 0 -7
-4 -4 -10z"/>
<path d="M669 373 c-13 -16 -12 -17 4 -4 16 13 21 21 13 21 -2 0 -10 -8 -17
-17z"/>
<path d="M715 380 c3 -5 8 -10 11 -10 2 0 4 5 4 10 0 6 -5 10 -11 10 -5 0 -7
-4 -4 -10z"/>
<path d="M70 350 c-9 -6 -10 -10 -3 -10 6 0 15 5 18 10 8 12 4 12 -15 0z"/>
<path d="M270 338 c0 -17 2 -18 15 -8 8 7 15 14 15 15 0 2 -7 5 -15 9 -10 4
-15 -1 -15 -16z"/>
<path d="M390 350 c-9 -6 -10 -10 -3 -10 6 0 15 5 18 10 8 12 4 12 -15 0z"/>
<path d="M590 338 c0 -17 2 -18 15 -8 8 7 15 14 15 15 0 2 -7 5 -15 9 -10 4
-15 -1 -15 -16z"/>
<path d="M710 350 c-9 -6 -10 -10 -3 -10 6 0 15 5 18 10 8 12 4 12 -15 0z"/>
<path d="M910 338 c0 -17 2 -18 15 -8 8 7 15 14 15 15 0 2 -7 5 -15 9 -10 4
-15 -1 -15 -16z"/>
<path d="M100 325 c0 -3 2 -5 5 -5 3 0 5 2 5 5 0 3 -2 5 -5 5 -3 0 -5 -2 -5
-5z"/>
<path d="M420 325 c0 -3 2 -5 5 -5 3 0 5 2 5 5 0 3 -2 5 -5 5 -3 0 -5 -2 -5
-5z"/>
<path d="M740 325 c0 -3 2 -5 5 -5 3 0 5 2 5 5 0 3 -2 5 -5 5 -3 0 -5 -2 -5
-5z"/>
<path d="M125 290 c-3 -5 -2 -10 4 -10 5 0 13 5 16 10 3 6 2 10 -4 10 -5 0
-13 -4 -16 -10z"/>
<path d="M445 290 c-3 -5 -2 -10 4 -10 5 0 13 5 16 10 3 6 2 10 -4 10 -5 0
-13 -4 -16 -10z"/>
<path d="M765 290 c-3 -5 -2 -10 4 -10 5 0 13 5 16 10 3 6 2 10 -4 10 -5 0
-13 -4 -16 -10z"/>
<path d="M44 248 c-4 -7 -3 -8 4 -4 12 7 16 16 8 16 -3 0 -8 -5 -12 -12z"/>
<path d="M364 248 c-4 -7 -3 -8 4 -4 12 7 16 16 8 16 -3 0 -8 -5 -12 -12z"/>
<path d="M684 248 c-4 -7 -3 -8 4 -4 7 4 12 9 12 12 0 8 -9 4 -16 -8z"/>
<path d="M130 240 c0 -5 -8 -6 -17 -3 -11 4 -4 -9 17 -35 18 -23 34 -42 34
-42 1 0 1 11 1 25 0 14 -6 25 -12 25 -16 0 -17 17 -1 22 7 3 6 7 -5 11 -9 3
-17 2 -17 -3z"/>
<path d="M266 237 c3 -10 9 -15 12 -12 3 3 0 11 -7 18 -10 9 -11 8 -5 -6z"/>
<path d="M450 240 c0 -5 -8 -6 -17 -3 -11 4 -4 -9 17 -35 18 -23 34 -42 34
-42 1 0 1 11 1 25 0 14 -6 25 -12 25 -16 0 -17 17 -1 22 7 3 6 7 -5 11 -9 3
-17 2 -17 -3z"/>
<path d="M586 237 c3 -10 9 -15 12 -12 3 3 0 11 -7 18 -10 9 -11 8 -5 -6z"/>
<path d="M770 240 c0 -5 -8 -6 -17 -3 -11 4 -4 -9 17 -35 18 -23 34 -42 34
-42 1 0 1 11 1 25 0 14 -6 25 -12 25 -16 0 -17 17 -1 22 7 3 6 7 -5 11 -9 3
-17 2 -17 -3z"/>
<path d="M906 237 c3 -10 9 -15 12 -12 3 3 0 11 -7 18 -10 9 -11 8 -5 -6z"/>
<path d="M70 225 c0 -3 2 -5 5 -5 3 0 5 2 5 5 0 3 -2 5 -5 5 -3 0 -5 -2 -5 -5z"/>
<path d="M390 225 c0 -3 2 -5 5 -5 3 0 5 2 5 5 0 3 -2 5 -5 5 -3 0 -5 -2 -5
-5z"/>
<path d="M710 225 c0 -3 2 -5 5 -5 3 0 5 2 5 5 0 3 -2 5 -5 5 -3 0 -5 -2 -5
-5z"/>
<path d="M250 215 c0 -3 2 -5 5 -5 3 0 5 2 5 5 0 3 -2 5 -5 5 -3 0 -5 -2 -5
-5z"/>
<path d="M570 215 c0 -3 2 -5 5 -5 3 0 5 2 5 5 0 3 -2 5 -5 5 -3 0 -5 -2 -5
-5z"/>
<path d="M890 215 c0 -3 2 -5 5 -5 3 0 5 2 5 5 0 3 -2 5 -5 5 -3 0 -5 -2 -5
-5z"/>
<path d="M202 203 c-20 -8 6 -33 26 -26 9 3 6 -3 -8 -13 -14 -10 -28 -18 -32
-16 -5 1 -8 -4 -8 -12 0 -7 -7 -19 -15 -26 -8 -7 -13 -16 -10 -20 3 -5 1 -18
-3 -30 -8 -22 -9 -22 -30 11 -13 21 -17 36 -11 40 6 3 2 9 -9 12 -14 3 -23 16
-27 40 -6 29 -10 34 -20 24 -11 -10 -11 -15 0 -27 8 -8 14 -19 16 -25 1 -5 17
-34 35 -63 19 -29 34 -57 34 -62 0 -6 5 -10 10 -10 6 0 10 14 10 30 0 19 6 33
16 37 9 3 12 8 5 12 -6 4 -2 18 11 39 l20 32 29 -21 c16 -11 29 -26 29 -33 0
-19 -27 -39 -41 -30 -8 4 -9 3 -5 -4 4 -7 -5 -23 -21 -37 -27 -24 -27 -24 -5
-25 12 0 21 3 20 8 -2 4 17 27 42 50 25 24 39 40 31 36 -11 -5 -13 -2 -9 14 4
15 0 22 -18 26 -16 4 -21 11 -17 21 4 12 9 13 19 4 11 -9 14 -9 14 0 0 6 -8
14 -17 18 -10 3 -25 12 -33 18 -8 7 -21 10 -28 8z"/>
<path d="M522 203 c-20 -8 6 -33 26 -26 9 3 6 -3 -8 -13 -14 -10 -28 -18 -32
-16 -5 1 -8 -4 -8 -12 0 -7 -7 -19 -15 -26 -8 -7 -13 -16 -10 -20 3 -5 1 -18
-3 -30 -8 -22 -8 -22 -26 5 -10 15 -15 33 -12 40 2 7 -4 15 -14 18 -12 3 -21
18 -25 40 -6 29 -10 34 -20 24 -11 -10 -10 -15 2 -28 11 -14 12 -18 1 -22 -10
-4 -9 -6 2 -6 13 -1 70 -87 78 -119 6 -23 22 -12 22 17 0 18 6 31 17 35 12 5
14 9 6 14 -9 5 -6 17 9 40 l20 32 29 -21 c16 -11 29 -26 29 -33 0 -19 -27 -39
-41 -30 -8 4 -9 3 -5 -4 4 -7 -5 -23 -21 -37 -27 -24 -27 -24 -5 -25 12 0 21
3 20 8 -2 4 16 25 40 46 29 26 39 42 31 46 -6 4 -8 13 -5 19 4 6 4 11 -1 10
-18 -4 -41 13 -36 27 4 11 9 12 19 3 11 -9 14 -9 14 0 0 6 -8 14 -17 18 -10 3
-25 12 -33 18 -8 7 -21 10 -28 8z"/>
<path d="M842 203 c-20 -8 6 -33 26 -26 9 3 6 -3 -8 -13 -14 -10 -28 -18 -32
-16 -5 1 -8 -4 -8 -12 0 -7 -7 -19 -15 -26 -8 -7 -13 -16 -10 -20 3 -5 1 -18
-3 -30 -8 -22 -9 -22 -30 11 -13 21 -17 36 -11 40 6 3 2 9 -9 12 -14 3 -23 16
-27 40 -6 29 -10 34 -20 24 -11 -10 -11 -15 0 -27 8 -8 14 -19 16 -25 1 -5 17
-34 35 -63 19 -29 34 -57 34 -62 0 -6 5 -10 10 -10 6 0 10 14 10 30 0 19 6 33
16 37 9 3 12 8 5 12 -6 4 -2 18 11 39 l20 32 29 -21 c16 -11 29 -26 29 -33 0
-19 -27 -39 -41 -30 -8 4 -9 3 -5 -4 4 -7 -5 -23 -21 -37 -27 -24 -27 -24 -5
-25 12 0 21 3 20 8 -2 4 17 27 42 50 25 24 39 40 31 36 -11 -5 -13 -2 -9 14 4
15 0 22 -18 26 -16 4 -21 11 -17 21 4 12 9 13 19 4 11 -9 14 -9 14 0 0 6 -8
14 -17 18 -10 3 -25 12 -33 18 -8 7 -21 10 -28 8z"/>
<path d="M109 163 c-13 -16 -12 -17 4 -4 9 7 17 15 17 17 0 8 -8 3 -21 -13z"/>
<path d="M429 163 c-13 -16 -12 -17 4 -4 9 7 17 15 17 17 0 8 -8 3 -21 -13z"/>
<path d="M749 163 c-13 -16 -12 -17 4 -4 16 13 21 21 13 21 -2 0 -10 -8 -17
-17z"/>
<path d="M140 135 c0 -3 2 -5 5 -5 3 0 5 2 5 5 0 3 -2 5 -5 5 -3 0 -5 -2 -5
-5z"/>
<path d="M460 135 c0 -3 2 -5 5 -5 3 0 5 2 5 5 0 3 -2 5 -5 5 -3 0 -5 -2 -5
-5z"/>
<path d="M780 135 c0 -3 2 -5 5 -5 3 0 5 2 5 5 0 3 -2 5 -5 5 -3 0 -5 -2 -5
-5z"/>
<path d="M30 55 c-7 -9 -8 -15 -2 -15 5 0 12 7 16 15 3 8 4 15 2 15 -2 0 -9
-7 -16 -15z"/>
<path d="M75 60 c3 -5 8 -10 11 -10 2 0 4 5 4 10 0 6 -5 10 -11 10 -5 0 -7 -4
-4 -10z"/>
<path d="M349 53 c-13 -16 -12 -17 4 -4 16 13 21 21 13 21 -2 0 -10 -8 -17
-17z"/>
<path d="M395 60 c3 -5 8 -10 11 -10 2 0 4 5 4 10 0 6 -5 10 -11 10 -5 0 -7
-4 -4 -10z"/>
<path d="M670 55 c-7 -9 -8 -15 -2 -15 5 0 12 7 16 15 3 8 4 15 2 15 -2 0 -9
-7 -16 -15z"/>
<path d="M715 60 c3 -5 8 -10 11 -10 2 0 4 5 4 10 0 6 -5 10 -11 10 -5 0 -7
-4 -4 -10z"/>
<path d="M70 30 c-9 -6 -10 -10 -3 -10 6 0 15 5 18 10 8 12 4 12 -15 0z"/>
<path d="M270 18 c0 -17 2 -18 15 -8 8 7 15 14 15 15 0 2 -7 5 -15 9 -10 4
-15 -1 -15 -16z"/>
<path d="M390 30 c-9 -6 -10 -10 -3 -10 6 0 15 5 18 10 8 12 4 12 -15 0z"/>
<path d="M590 18 c0 -17 2 -18 15 -8 8 7 15 14 15 15 0 2 -7 5 -15 9 -10 4
-15 -1 -15 -16z"/>
<path d="M710 30 c-9 -6 -10 -10 -3 -10 6 0 15 5 18 10 8 12 4 12 -15 0z"/>
<path d="M910 18 c0 -17 2 -18 15 -8 8 7 15 14 15 15 0 2 -7 5 -15 9 -10 4
-15 -1 -15 -16z"/>
<path d="M100 5 c0 -3 2 -5 5 -5 3 0 5 2 5 5 0 3 -2 5 -5 5 -3 0 -5 -2 -5 -5z"/>
<path d="M420 5 c0 -3 2 -5 5 -5 3 0 5 2 5 5 0 3 -2 5 -5 5 -3 0 -5 -2 -5 -5z"/>
<path d="M740 5 c0 -3 2 -5 5 -5 3 0 5 2 5 5 0 3 -2 5 -5 5 -3 0 -5 -2 -5 -5z"/>
</g>
<g transform="translate(0.000000,96.000000) scale(0.100000,-0.100000)"
fill="#1c8c00" stroke="none">
<path d="M125 930 c-3 -5 -2 -10 4 -10 5 0 13 5 16 10 3 6 2 10 -4 10 -5 0
-13 -4 -16 -10z"/>
<path d="M445 930 c-3 -5 -2 -10 4 -10 5 0 13 5 16 10 3 6 2 10 -4 10 -5 0
-13 -4 -16 -10z"/>
<path d="M765 930 c-3 -5 -2 -10 4 -10 5 0 13 5 16 10 3 6 2 10 -4 10 -5 0
-13 -4 -16 -10z"/>
<path d="M44 888 c-4 -7 -3 -8 4 -4 12 7 16 16 8 16 -3 0 -8 -5 -12 -12z"/>
<path d="M364 888 c-4 -7 -3 -8 4 -4 12 7 16 16 8 16 -3 0 -8 -5 -12 -12z"/>
<path d="M684 888 c-4 -7 -3 -8 4 -4 7 4 12 9 12 12 0 8 -9 4 -16 -8z"/>
<path d="M266 877 c3 -10 9 -15 12 -12 3 3 0 11 -7 18 -10 9 -11 8 -5 -6z"/>
<path d="M586 877 c3 -10 9 -15 12 -12 3 3 0 11 -7 18 -10 9 -11 8 -5 -6z"/>
<path d="M906 877 c3 -10 9 -15 12 -12 3 3 0 11 -7 18 -10 9 -11 8 -5 -6z"/>
<path d="M122 856 c12 -12 29 -31 36 -42 7 -10 5 -3 -5 16 -9 19 -16 37 -16
40 1 3 -7 7 -19 7 -19 2 -19 1 4 -21z"/>
<path d="M442 856 c12 -12 29 -31 36 -42 7 -10 5 -3 -5 16 -9 19 -16 37 -16
40 1 3 -7 7 -19 7 -19 2 -19 1 4 -21z"/>
<path d="M750 864 c15 -18 27 -18 27 -1 0 7 -9 14 -19 14 -16 2 -17 -1 -8 -13z"/>
<path d="M70 865 c0 -3 2 -5 5 -5 3 0 5 2 5 5 0 3 -2 5 -5 5 -3 0 -5 -2 -5 -5z"/>
<path d="M390 865 c0 -3 2 -5 5 -5 3 0 5 2 5 5 0 3 -2 5 -5 5 -3 0 -5 -2 -5
-5z"/>
<path d="M710 865 c0 -3 2 -5 5 -5 3 0 5 2 5 5 0 3 -2 5 -5 5 -3 0 -5 -2 -5
-5z"/>
<path d="M250 855 c0 -3 2 -5 5 -5 3 0 5 2 5 5 0 3 -2 5 -5 5 -3 0 -5 -2 -5
-5z"/>
<path d="M570 855 c0 -3 2 -5 5 -5 3 0 5 2 5 5 0 3 -2 5 -5 5 -3 0 -5 -2 -5
-5z"/>
<path d="M890 855 c0 -3 2 -5 5 -5 3 0 5 2 5 5 0 3 -2 5 -5 5 -3 0 -5 -2 -5
-5z"/>
<path d="M210 841 c0 -6 7 -14 15 -17 12 -5 13 -10 4 -20 -6 -8 -9 -14 -6 -14
2 0 10 6 16 13 8 11 6 18 -9 32 -12 11 -20 13 -20 6z"/>
<path d="M530 840 c0 -6 7 -13 15 -16 13 -5 13 -9 3 -23 -12 -14 -11 -15 5 -2
10 8 22 10 30 5 7 -5 4 -1 -8 8 -44 38 -45 39 -45 28z"/>
<path d="M850 845 c0 -3 2 -5 5 -5 3 0 5 2 5 5 0 3 -2 5 -5 5 -3 0 -5 -2 -5
-5z"/>
<path d="M790 821 c0 -6 4 -13 10 -16 6 -3 7 1 4 9 -7 18 -14 21 -14 7z"/>
<path d="M868 823 c6 -2 9 -10 6 -15 -4 -7 -2 -8 5 -4 6 4 18 4 24 -1 7 -4 4
0 -6 10 -11 9 -24 17 -31 16 -7 0 -6 -2 2 -6z"/>
<path d="M109 803 c-13 -16 -12 -17 4 -4 9 7 17 15 17 17 0 8 -8 3 -21 -13z"/>
<path d="M429 803 c-13 -16 -12 -17 4 -4 9 7 17 15 17 17 0 8 -8 3 -21 -13z"/>
<path d="M749 803 c-13 -16 -12 -17 4 -4 9 7 17 15 17 17 0 8 -8 3 -21 -13z"/>
<path d="M265 800 c3 -5 8 -10 11 -10 3 0 2 5 -1 10 -3 6 -8 10 -11 10 -3 0
-2 -4 1 -10z"/>
<path d="M700 805 c0 -14 40 -83 56 -96 11 -9 7 2 -9 28 -15 24 -27 47 -27 52
0 5 -4 13 -10 16 -5 3 -10 3 -10 0z"/>
<path d="M82 759 c12 -22 29 -46 37 -52 8 -7 2 7 -12 30 -15 24 -27 47 -27 53
0 5 -5 10 -11 10 -5 0 0 -18 13 -41z"/>
<path d="M399 762 c11 -21 27 -45 37 -53 11 -9 7 2 -9 28 -15 24 -27 47 -27
53 0 5 -5 10 -10 10 -6 0 -2 -17 9 -38z"/>
<path d="M183 772 c1 -14 5 -18 11 -12 7 7 6 14 -1 21 -9 9 -12 7 -10 -9z"/>
<path d="M503 772 c1 -14 5 -18 11 -12 7 7 6 14 -1 21 -9 9 -12 7 -10 -9z"/>
<path d="M823 778 c4 -11 -1 -23 -11 -30 -9 -7 -17 -19 -18 -25 -3 -39 -5 -44
-14 -38 -17 10 -11 -2 8 -16 9 -7 14 -10 10 -5 -8 10 10 66 30 89 13 14 13 20
2 30 -10 10 -12 9 -7 -5z"/>
<path d="M140 775 c0 -3 2 -5 5 -5 3 0 5 2 5 5 0 3 -2 5 -5 5 -3 0 -5 -2 -5
-5z"/>
<path d="M253 769 c9 -5 17 -18 18 -27 0 -11 2 -12 6 -4 6 15 -14 42 -31 42
-6 0 -3 -5 7 -11z"/>
<path d="M460 775 c0 -3 2 -5 5 -5 3 0 5 2 5 5 0 3 -2 5 -5 5 -3 0 -5 -2 -5
-5z"/>
<path d="M568 770 c12 -5 22 -17 23 -27 0 -11 3 -13 6 -5 7 17 -15 42 -36 41
-11 0 -9 -3 7 -9z"/>
<path d="M780 775 c0 -3 2 -5 5 -5 3 0 5 2 5 5 0 3 -2 5 -5 5 -3 0 -5 -2 -5
-5z"/>
<path d="M888 770 c12 -5 22 -17 23 -27 0 -11 3 -13 6 -5 7 17 -15 42 -36 41
-11 0 -9 -3 7 -9z"/>
<path d="M155 730 c4 -6 11 -8 16 -5 14 9 11 15 -7 15 -8 0 -12 -5 -9 -10z"/>
<path d="M473 728 c1 -33 -4 -49 -13 -43 -15 9 -12 -1 3 -14 10 -8 14 -7 14 2
0 6 4 24 8 40 4 16 3 27 -3 27 -5 0 -10 -6 -9 -12z"/>
<path d="M222 682 c-40 -34 -42 -38 -21 -39 18 -2 20 0 9 7 -11 7 -9 11 11 20
14 6 30 20 37 31 16 26 14 24 -36 -19z"/>
<path d="M542 682 c-40 -34 -42 -38 -21 -39 14 -1 19 1 12 5 -8 5 -2 14 17 27
17 11 32 26 35 33 6 17 6 16 -43 -26z"/>
<path d="M861 681 c-27 -23 -38 -38 -28 -38 9 0 14 4 11 9 -3 4 3 11 12 15 19
7 58 43 52 48 -2 2 -23 -14 -47 -34z"/>
<path d="M29 693 c-13 -16 -12 -17 4 -4 9 7 17 15 17 17 0 8 -8 3 -21 -13z"/>
<path d="M75 700 c3 -5 8 -10 11 -10 2 0 4 5 4 10 0 6 -5 10 -11 10 -5 0 -7
-4 -4 -10z"/>
<path d="M151 697 c-1 -12 -6 -16 -13 -11 -10 5 -10 4 -1 -6 16 -17 26 -8 20
17 -4 17 -5 17 -6 0z"/>
<path d="M350 695 c-7 -9 -8 -15 -2 -15 5 0 12 7 16 15 3 8 4 15 2 15 -2 0 -9
-7 -16 -15z"/>
<path d="M395 700 c3 -5 8 -10 11 -10 2 0 4 5 4 10 0 6 -5 10 -11 10 -5 0 -7
-4 -4 -10z"/>
<path d="M669 693 c-13 -16 -12 -17 4 -4 9 7 17 15 17 17 0 8 -8 3 -21 -13z"/>
<path d="M715 700 c3 -5 8 -10 11 -10 2 0 4 5 4 10 0 6 -5 10 -11 10 -5 0 -7
-4 -4 -10z"/>
<path d="M65 670 c-16 -7 -17 -9 -3 -9 9 -1 20 4 23 9 7 11 7 11 -20 0z"/>
<path d="M390 670 c-9 -6 -10 -10 -3 -10 6 0 15 5 18 10 8 12 4 12 -15 0z"/>
<path d="M710 670 c-9 -6 -10 -10 -3 -10 6 0 15 5 18 10 8 12 4 12 -15 0z"/>
<path d="M145 650 c-3 -5 -1 -10 4 -10 6 0 11 5 11 10 0 6 -2 10 -4 10 -3 0
-8 -4 -11 -10z"/>
<path d="M420 645 c0 -3 2 -5 5 -5 3 0 5 2 5 5 0 3 -2 5 -5 5 -3 0 -5 -2 -5
-5z"/>
<path d="M463 643 c4 -3 10 -3 14 0 3 4 0 7 -7 7 -7 0 -10 -3 -7 -7z"/>
<path d="M740 645 c0 -3 2 -5 5 -5 3 0 5 2 5 5 0 3 -2 5 -5 5 -3 0 -5 -2 -5
-5z"/>
<path d="M783 643 c4 -3 10 -3 14 0 3 4 0 7 -7 7 -7 0 -10 -3 -7 -7z"/>
<path d="M910 645 c0 -3 2 -5 5 -5 3 0 5 2 5 5 0 3 -2 5 -5 5 -3 0 -5 -2 -5
-5z"/>
<path d="M125 610 c-3 -5 -2 -10 4 -10 5 0 13 5 16 10 3 6 2 10 -4 10 -5 0
-13 -4 -16 -10z"/>
<path d="M445 610 c-3 -5 -2 -10 4 -10 5 0 13 5 16 10 3 6 2 10 -4 10 -5 0
-13 -4 -16 -10z"/>
<path d="M765 610 c-3 -5 -2 -10 4 -10 5 0 13 5 16 10 3 6 2 10 -4 10 -5 0
-13 -4 -16 -10z"/>
<path d="M44 568 c-4 -7 -3 -8 4 -4 7 4 12 9 12 12 0 8 -9 4 -16 -8z"/>
<path d="M364 568 c-4 -7 -3 -8 4 -4 7 4 12 9 12 12 0 8 -9 4 -16 -8z"/>
<path d="M684 568 c-4 -7 -3 -8 4 -4 7 4 12 9 12 12 0 8 -9 4 -16 -8z"/>
<path d="M266 557 c3 -10 9 -15 12 -12 3 3 0 11 -7 18 -10 9 -11 8 -5 -6z"/>
<path d="M586 557 c3 -10 9 -15 12 -12 3 3 0 11 -7 18 -10 9 -11 8 -5 -6z"/>
<path d="M906 557 c3 -10 9 -15 12 -12 3 3 0 11 -7 18 -10 9 -11 8 -5 -6z"/>
<path d="M105 550 c3 -5 16 -15 28 -21 22 -12 22 -12 3 10 -19 21 -43 30 -31
11z"/>
<path d="M442 536 c12 -12 29 -31 36 -42 7 -10 5 -3 -5 16 -9 19 -16 37 -16
40 1 3 -7 7 -19 7 -19 2 -19 1 4 -21z"/>
<path d="M750 544 c15 -18 27 -18 27 -1 0 7 -9 14 -19 14 -16 2 -17 -1 -8 -13z"/>
<path d="M70 545 c0 -3 2 -5 5 -5 3 0 5 2 5 5 0 3 -2 5 -5 5 -3 0 -5 -2 -5 -5z"/>
<path d="M390 545 c0 -3 2 -5 5 -5 3 0 5 2 5 5 0 3 -2 5 -5 5 -3 0 -5 -2 -5
-5z"/>
<path d="M710 545 c0 -3 2 -5 5 -5 3 0 5 2 5 5 0 3 -2 5 -5 5 -3 0 -5 -2 -5
-5z"/>
<path d="M250 535 c0 -3 2 -5 5 -5 3 0 5 2 5 5 0 3 -2 5 -5 5 -3 0 -5 -2 -5
-5z"/>
<path d="M570 535 c0 -3 2 -5 5 -5 3 0 5 2 5 5 0 3 -2 5 -5 5 -3 0 -5 -2 -5
-5z"/>
<path d="M890 535 c0 -3 2 -5 5 -5 3 0 5 2 5 5 0 3 -2 5 -5 5 -3 0 -5 -2 -5
-5z"/>
<path d="M210 520 c0 -6 7 -13 15 -16 12 -5 13 -10 4 -20 -6 -8 -9 -14 -6 -14
2 0 9 6 15 13 9 10 6 17 -8 30 -11 9 -20 12 -20 7z"/>
<path d="M530 520 c0 -6 7 -13 15 -16 13 -5 13 -9 3 -23 -12 -14 -11 -15 5 -2
10 8 22 10 30 5 7 -5 4 -1 -8 8 -44 38 -45 39 -45 28z"/>
<path d="M850 525 c0 -3 2 -5 5 -5 3 0 5 2 5 5 0 3 -2 5 -5 5 -3 0 -5 -2 -5
-5z"/>
<path d="M60 505 c0 -3 2 -5 5 -5 3 0 5 2 5 5 0 3 -2 5 -5 5 -3 0 -5 -2 -5 -5z"/>
<path d="M150 501 c0 -6 4 -13 10 -16 6 -3 7 1 4 9 -7 18 -14 21 -14 7z"/>
<path d="M790 501 c0 -6 4 -13 10 -16 6 -3 7 1 4 9 -7 18 -14 21 -14 7z"/>
<path d="M868 503 c6 -2 9 -10 6 -15 -4 -7 -2 -8 5 -4 6 4 18 4 24 -1 7 -4 4
0 -6 10 -11 9 -24 17 -31 16 -7 0 -6 -2 2 -6z"/>
<path d="M109 483 c-13 -16 -12 -17 4 -4 9 7 17 15 17 17 0 8 -8 3 -21 -13z"/>
<path d="M429 483 c-13 -16 -12 -17 4 -4 9 7 17 15 17 17 0 8 -8 3 -21 -13z"/>
<path d="M749 483 c-13 -16 -12 -17 4 -4 9 7 17 15 17 17 0 8 -8 3 -21 -13z"/>
<path d="M265 480 c3 -5 8 -10 11 -10 3 0 2 5 -1 10 -3 6 -8 10 -11 10 -3 0
-2 -4 1 -10z"/>
<path d="M700 485 c0 -14 40 -83 56 -96 11 -9 7 2 -9 28 -15 24 -27 47 -27 52
0 5 -4 13 -10 16 -5 3 -10 3 -10 0z"/>
<path d="M82 439 c12 -22 29 -46 37 -52 8 -7 2 7 -12 30 -15 24 -27 47 -27 53
0 5 -5 10 -11 10 -5 0 0 -18 13 -41z"/>
<path d="M399 442 c11 -21 27 -45 37 -53 11 -9 7 2 -9 28 -15 24 -27 47 -27
53 0 5 -5 10 -10 10 -6 0 -2 -17 9 -38z"/>
<path d="M180 450 c0 -19 3 -21 12 -12 9 9 9 15 0 24 -9 9 -12 7 -12 -12z"/>
<path d="M503 452 c1 -14 5 -18 11 -12 7 7 6 14 -1 21 -9 9 -12 7 -10 -9z"/>
<path d="M823 458 c4 -11 -1 -23 -11 -30 -9 -7 -17 -19 -18 -25 -3 -39 -5 -44
-14 -38 -17 10 -11 -2 8 -16 9 -7 14 -10 10 -5 -8 10 10 66 30 89 13 14 13 20
2 30 -10 10 -12 9 -7 -5z"/>
<path d="M140 455 c0 -3 2 -5 5 -5 3 0 5 2 5 5 0 3 -2 5 -5 5 -3 0 -5 -2 -5
-5z"/>
<path d="M243 453 c4 -3 10 -3 14 0 3 4 0 7 -7 7 -7 0 -10 -3 -7 -7z"/>
<path d="M460 455 c0 -3 2 -5 5 -5 3 0 5 2 5 5 0 3 -2 5 -5 5 -3 0 -5 -2 -5
-5z"/>
<path d="M568 450 c12 -5 22 -17 23 -27 0 -11 3 -13 6 -5 7 17 -15 42 -36 41
-11 0 -9 -3 7 -9z"/>
<path d="M780 455 c0 -3 2 -5 5 -5 3 0 5 2 5 5 0 3 -2 5 -5 5 -3 0 -5 -2 -5
-5z"/>
<path d="M888 450 c12 -5 22 -17 23 -27 0 -11 3 -13 6 -5 7 17 -15 42 -36 41
-11 0 -9 -3 7 -9z"/>
<path d="M266 425 c4 -8 8 -15 10 -15 2 0 4 7 4 15 0 8 -4 15 -10 15 -5 0 -7
-7 -4 -15z"/>
<path d="M153 408 c1 -36 -4 -49 -15 -42 -9 6 -9 3 0 -9 8 -9 11 -21 7 -27 -3
-5 -2 -10 4 -10 5 0 9 13 9 28 -1 15 4 38 11 50 10 18 9 22 -3 22 -7 0 -14 -6
-13 -12z"/>
<path d="M473 408 c1 -33 -4 -49 -13 -43 -15 9 -12 -1 3 -14 10 -8 14 -7 14 2
0 6 4 24 8 40 4 16 3 27 -3 27 -5 0 -10 -6 -9 -12z"/>
<path d="M222 362 c-40 -34 -42 -38 -21 -39 19 -2 21 0 9 7 -13 8 -12 11 5 16
11 3 28 16 38 30 24 32 20 30 -31 -14z"/>
<path d="M542 362 c-40 -34 -42 -38 -21 -39 14 -1 19 1 12 5 -8 5 -2 14 17 27
17 11 32 26 35 33 6 17 6 16 -43 -26z"/>
<path d="M861 361 c-27 -23 -38 -38 -28 -38 9 0 14 4 11 9 -3 4 3 11 13 15 21
8 66 55 51 53 -2 0 -23 -18 -47 -39z"/>
<path d="M29 373 c-13 -16 -12 -17 4 -4 9 7 17 15 17 17 0 8 -8 3 -21 -13z"/>
<path d="M75 380 c3 -5 8 -10 11 -10 2 0 4 5 4 10 0 6 -5 10 -11 10 -5 0 -7
-4 -4 -10z"/>
<path d="M350 375 c-7 -9 -8 -15 -2 -15 5 0 12 7 16 15 3 8 4 15 2 15 -2 0 -9
-7 -16 -15z"/>
<path d="M395 380 c3 -5 8 -10 11 -10 2 0 4 5 4 10 0 6 -5 10 -11 10 -5 0 -7
-4 -4 -10z"/>
<path d="M669 373 c-13 -16 -12 -17 4 -4 16 13 21 21 13 21 -2 0 -10 -8 -17
-17z"/>
<path d="M715 380 c3 -5 8 -10 11 -10 2 0 4 5 4 10 0 6 -5 10 -11 10 -5 0 -7
-4 -4 -10z"/>
<path d="M70 350 c-9 -6 -10 -10 -3 -10 6 0 15 5 18 10 8 12 4 12 -15 0z"/>
<path d="M390 350 c-9 -6 -10 -10 -3 -10 6 0 15 5 18 10 8 12 4 12 -15 0z"/>
<path d="M710 350 c-9 -6 -10 -10 -3 -10 6 0 15 5 18 10 8 12 4 12 -15 0z"/>
<path d="M270 335 c0 -3 2 -5 5 -5 3 0 5 2 5 5 0 3 -2 5 -5 5 -3 0 -5 -2 -5
-5z"/>
<path d="M420 325 c0 -3 2 -5 5 -5 3 0 5 2 5 5 0 3 -2 5 -5 5 -3 0 -5 -2 -5
-5z"/>
<path d="M463 323 c4 -3 10 -3 14 0 3 4 0 7 -7 7 -7 0 -10 -3 -7 -7z"/>
<path d="M740 325 c0 -3 2 -5 5 -5 3 0 5 2 5 5 0 3 -2 5 -5 5 -3 0 -5 -2 -5
-5z"/>
<path d="M783 323 c4 -3 10 -3 14 0 3 4 0 7 -7 7 -7 0 -10 -3 -7 -7z"/>
<path d="M125 290 c-3 -5 -2 -10 4 -10 5 0 13 5 16 10 3 6 2 10 -4 10 -5 0
-13 -4 -16 -10z"/>
<path d="M445 290 c-3 -5 -2 -10 4 -10 5 0 13 5 16 10 3 6 2 10 -4 10 -5 0
-13 -4 -16 -10z"/>
<path d="M765 290 c-3 -5 -2 -10 4 -10 5 0 13 5 16 10 3 6 2 10 -4 10 -5 0
-13 -4 -16 -10z"/>
<path d="M44 248 c-4 -7 -3 -8 4 -4 12 7 16 16 8 16 -3 0 -8 -5 -12 -12z"/>
<path d="M364 248 c-4 -7 -3 -8 4 -4 12 7 16 16 8 16 -3 0 -8 -5 -12 -12z"/>
<path d="M684 248 c-4 -7 -3 -8 4 -4 7 4 12 9 12 12 0 8 -9 4 -16 -8z"/>
<path d="M266 237 c3 -10 9 -15 12 -12 3 3 0 11 -7 18 -10 9 -11 8 -5 -6z"/>
<path d="M586 237 c3 -10 9 -15 12 -12 3 3 0 11 -7 18 -10 9 -11 8 -5 -6z"/>
<path d="M906 237 c3 -10 9 -15 12 -12 3 3 0 11 -7 18 -10 9 -11 8 -5 -6z"/>
<path d="M122 216 c12 -12 29 -31 36 -42 7 -10 5 -3 -5 16 -9 19 -16 37 -16
40 1 3 -7 7 -19 7 -19 2 -19 1 4 -21z"/>
<path d="M430 224 c15 -18 27 -18 27 -1 0 7 -9 14 -19 14 -16 2 -17 -1 -8 -13z"/>
<path d="M762 216 c12 -12 29 -31 36 -42 7 -10 5 -3 -5 16 -9 19 -16 37 -16
40 1 3 -7 7 -19 7 -19 2 -19 1 4 -21z"/>
<path d="M70 225 c0 -3 2 -5 5 -5 3 0 5 2 5 5 0 3 -2 5 -5 5 -3 0 -5 -2 -5 -5z"/>
<path d="M390 225 c0 -3 2 -5 5 -5 3 0 5 2 5 5 0 3 -2 5 -5 5 -3 0 -5 -2 -5
-5z"/>
<path d="M710 225 c0 -3 2 -5 5 -5 3 0 5 2 5 5 0 3 -2 5 -5 5 -3 0 -5 -2 -5
-5z"/>
<path d="M250 215 c0 -3 2 -5 5 -5 3 0 5 2 5 5 0 3 -2 5 -5 5 -3 0 -5 -2 -5
-5z"/>
<path d="M570 215 c0 -3 2 -5 5 -5 3 0 5 2 5 5 0 3 -2 5 -5 5 -3 0 -5 -2 -5
-5z"/>
<path d="M890 215 c0 -3 2 -5 5 -5 3 0 5 2 5 5 0 3 -2 5 -5 5 -3 0 -5 -2 -5
-5z"/>
<path d="M210 200 c0 -6 7 -13 15 -16 13 -5 13 -9 3 -23 -12 -14 -11 -15 5 -2
10 8 22 10 30 5 7 -5 4 -1 -8 8 -44 38 -45 39 -45 28z"/>
<path d="M530 205 c0 -3 2 -5 5 -5 3 0 5 2 5 5 0 3 -2 5 -5 5 -3 0 -5 -2 -5
-5z"/>
<path d="M850 200 c0 -6 7 -13 15 -16 13 -5 13 -9 3 -23 -12 -14 -11 -15 5 -2
10 8 22 10 30 5 7 -5 4 -1 -8 8 -44 38 -45 39 -45 28z"/>
<path d="M470 181 c0 -6 4 -13 10 -16 6 -3 7 1 4 9 -7 18 -14 21 -14 7z"/>
<path d="M548 183 c6 -2 9 -10 6 -15 -4 -7 -2 -8 5 -4 6 4 18 4 24 -1 7 -4 4
0 -6 10 -11 9 -24 17 -31 16 -7 0 -6 -2 2 -6z"/>
<path d="M109 163 c-13 -16 -12 -17 4 -4 9 7 17 15 17 17 0 8 -8 3 -21 -13z"/>
<path d="M429 163 c-13 -16 -12 -17 4 -4 9 7 17 15 17 17 0 8 -8 3 -21 -13z"/>
<path d="M749 163 c-13 -16 -12 -17 4 -4 16 13 21 21 13 21 -2 0 -10 -8 -17
-17z"/>
<path d="M380 165 c0 -14 40 -83 56 -96 11 -9 7 2 -9 28 -15 24 -27 47 -27 52
0 5 -4 13 -10 16 -5 3 -10 3 -10 0z"/>
<path d="M79 122 c11 -21 27 -45 37 -53 11 -9 7 2 -9 28 -15 24 -27 47 -27 53
0 5 -5 10 -10 10 -6 0 -2 -17 9 -38z"/>
<path d="M719 122 c11 -21 27 -45 37 -53 11 -9 7 2 -9 28 -15 24 -27 47 -27
53 0 5 -5 10 -10 10 -6 0 -2 -17 9 -38z"/>
<path d="M183 132 c1 -14 5 -18 11 -12 7 7 6 14 -1 21 -9 9 -12 7 -10 -9z"/>
<path d="M503 138 c4 -11 -1 -23 -11 -30 -9 -7 -17 -19 -18 -25 -3 -39 -5 -44
-14 -38 -17 10 -11 -2 8 -16 9 -7 14 -10 10 -5 -8 10 10 66 30 89 13 14 13 20
2 30 -10 10 -12 9 -7 -5z"/>
<path d="M823 132 c1 -14 5 -18 11 -12 7 7 6 14 -1 21 -9 9 -12 7 -10 -9z"/>
<path d="M140 135 c0 -3 2 -5 5 -5 3 0 5 2 5 5 0 3 -2 5 -5 5 -3 0 -5 -2 -5
-5z"/>
<path d="M248 130 c12 -5 22 -17 23 -27 0 -11 3 -13 6 -5 7 17 -15 42 -36 41
-11 0 -9 -3 7 -9z"/>
<path d="M460 135 c0 -3 2 -5 5 -5 3 0 5 2 5 5 0 3 -2 5 -5 5 -3 0 -5 -2 -5
-5z"/>
<path d="M568 130 c12 -5 22 -17 23 -27 0 -11 3 -13 6 -5 7 17 -15 42 -36 41
-11 0 -9 -3 7 -9z"/>
<path d="M780 135 c0 -3 2 -5 5 -5 3 0 5 2 5 5 0 3 -2 5 -5 5 -3 0 -5 -2 -5
-5z"/>
<path d="M888 130 c12 -5 22 -17 23 -27 0 -11 3 -13 6 -5 7 17 -15 42 -36 41
-11 0 -9 -3 7 -9z"/>
<path d="M153 88 c1 -33 -4 -49 -13 -43 -15 9 -12 -1 3 -14 10 -8 14 -7 14 2
0 6 4 24 8 40 4 16 3 27 -3 27 -5 0 -10 -6 -9 -12z"/>
<path d="M793 88 c1 -33 -4 -49 -13 -43 -15 9 -12 -1 3 -14 10 -8 14 -7 14 2
0 6 4 24 8 40 4 16 3 27 -3 27 -5 0 -10 -6 -9 -12z"/>
<path d="M222 42 c-40 -34 -42 -38 -21 -39 14 -1 19 1 12 5 -8 5 -2 14 17 27
17 11 32 26 35 33 6 17 6 16 -43 -26z"/>
<path d="M541 41 c-27 -23 -38 -38 -28 -38 9 0 14 4 11 9 -3 4 3 11 13 15 21
8 66 55 51 53 -2 0 -23 -18 -47 -39z"/>
<path d="M862 42 c-40 -34 -42 -38 -21 -39 14 -1 19 1 12 5 -8 5 -2 14 17 27
17 11 32 26 35 33 6 17 6 16 -43 -26z"/>
<path d="M30 55 c-7 -9 -8 -15 -2 -15 5 0 12 7 16 15 3 8 4 15 2 15 -2 0 -9
-7 -16 -15z"/>
<path d="M75 60 c3 -5 8 -10 11 -10 2 0 4 5 4 10 0 6 -5 10 -11 10 -5 0 -7 -4
-4 -10z"/>
<path d="M349 53 c-13 -16 -12 -17 4 -4 16 13 21 21 13 21 -2 0 -10 -8 -17
-17z"/>
<path d="M395 60 c3 -5 8 -10 11 -10 2 0 4 5 4 10 0 6 -5 10 -11 10 -5 0 -7
-4 -4 -10z"/>
<path d="M670 55 c-7 -9 -8 -15 -2 -15 5 0 12 7 16 15 3 8 4 15 2 15 -2 0 -9
-7 -16 -15z"/>
<path d="M715 60 c3 -5 8 -10 11 -10 2 0 4 5 4 10 0 6 -5 10 -11 10 -5 0 -7
-4 -4 -10z"/>
<path d="M70 30 c-9 -6 -10 -10 -3 -10 6 0 15 5 18 10 8 12 4 12 -15 0z"/>
<path d="M390 30 c-9 -6 -10 -10 -3 -10 6 0 15 5 18 10 8 12 4 12 -15 0z"/>
<path d="M710 30 c-9 -6 -10 -10 -3 -10 6 0 15 5 18 10 8 12 4 12 -15 0z"/>
<path d="M100 5 c0 -3 2 -5 5 -5 3 0 5 2 5 5 0 3 -2 5 -5 5 -3 0 -5 -2 -5 -5z"/>
<path d="M143 3 c4 -3 10 -3 14 0 3 4 0 7 -7 7 -7 0 -10 -3 -7 -7z"/>
<path d="M420 5 c0 -3 2 -5 5 -5 3 0 5 2 5 5 0 3 -2 5 -5 5 -3 0 -5 -2 -5 -5z"/>
<path d="M463 3 c4 -3 10 -3 14 0 3 4 0 7 -7 7 -7 0 -10 -3 -7 -7z"/>
<path d="M740 5 c0 -3 2 -5 5 -5 3 0 5 2 5 5 0 3 -2 5 -5 5 -3 0 -5 -2 -5 -5z"/>
<path d="M783 3 c4 -3 10 -3 14 0 3 4 0 7 -7 7 -7 0 -10 -3 -7 -7z"/>
</g>
<g transform="translate(0.000000,96.000000) scale(0.100000,-0.100000)"
fill="#f74540" stroke="none">
<path d="M125 930 c-3 -5 -2 -10 4 -10 5 0 13 5 16 10 3 6 2 10 -4 10 -5 0
-13 -4 -16 -10z"/>
<path d="M445 930 c-3 -5 -2 -10 4 -10 5 0 13 5 16 10 3 6 2 10 -4 10 -5 0
-13 -4 -16 -10z"/>
<path d="M765 930 c-3 -5 -2 -10 4 -10 5 0 13 5 16 10 3 6 2 10 -4 10 -5 0
-13 -4 -16 -10z"/>
<path d="M44 888 c-4 -7 -3 -8 4 -4 12 7 16 16 8 16 -3 0 -8 -5 -12 -12z"/>
<path d="M364 888 c-4 -7 -3 -8 4 -4 12 7 16 16 8 16 -3 0 -8 -5 -12 -12z"/>
<path d="M684 888 c-4 -7 -3 -8 4 -4 7 4 12 9 12 12 0 8 -9 4 -16 -8z"/>
<path d="M266 877 c3 -10 9 -15 12 -12 3 3 0 11 -7 18 -10 9 -11 8 -5 -6z"/>
<path d="M586 877 c3 -10 9 -15 12 -12 3 3 0 11 -7 18 -10 9 -11 8 -5 -6z"/>
<path d="M906 877 c3 -10 9 -15 12 -12 3 3 0 11 -7 18 -10 9 -11 8 -5 -6z"/>
<path d="M70 865 c0 -3 2 -5 5 -5 3 0 5 2 5 5 0 3 -2 5 -5 5 -3 0 -5 -2 -5 -5z"/>
<path d="M390 865 c0 -3 2 -5 5 -5 3 0 5 2 5 5 0 3 -2 5 -5 5 -3 0 -5 -2 -5
-5z"/>
<path d="M710 865 c0 -3 2 -5 5 -5 3 0 5 2 5 5 0 3 -2 5 -5 5 -3 0 -5 -2 -5
-5z"/>
<path d="M250 855 c0 -3 2 -5 5 -5 3 0 5 2 5 5 0 3 -2 5 -5 5 -3 0 -5 -2 -5
-5z"/>
<path d="M570 855 c0 -3 2 -5 5 -5 3 0 5 2 5 5 0 3 -2 5 -5 5 -3 0 -5 -2 -5
-5z"/>
<path d="M890 855 c0 -3 2 -5 5 -5 3 0 5 2 5 5 0 3 -2 5 -5 5 -3 0 -5 -2 -5
-5z"/>
<path d="M109 803 c-13 -16 -12 -17 4 -4 9 7 17 15 17 17 0 8 -8 3 -21 -13z"/>
<path d="M155 810 c3 -5 8 -10 11 -10 3 0 2 5 -1 10 -3 6 -8 10 -11 10 -3 0
-2 -4 1 -10z"/>
<path d="M429 803 c-13 -16 -12 -17 4 -4 9 7 17 15 17 17 0 8 -8 3 -21 -13z"/>
<path d="M475 810 c3 -5 8 -10 11 -10 3 0 2 5 -1 10 -3 6 -8 10 -11 10 -3 0
-2 -4 1 -10z"/>
<path d="M749 803 c-13 -16 -12 -17 4 -4 9 7 17 15 17 17 0 8 -8 3 -21 -13z"/>
<path d="M795 810 c3 -5 8 -10 11 -10 3 0 2 5 -1 10 -3 6 -8 10 -11 10 -3 0
-2 -4 1 -10z"/>
<path d="M140 775 c0 -3 2 -5 5 -5 3 0 5 2 5 5 0 3 -2 5 -5 5 -3 0 -5 -2 -5
-5z"/>
<path d="M460 775 c0 -3 2 -5 5 -5 3 0 5 2 5 5 0 3 -2 5 -5 5 -3 0 -5 -2 -5
-5z"/>
<path d="M780 775 c0 -3 2 -5 5 -5 3 0 5 2 5 5 0 3 -2 5 -5 5 -3 0 -5 -2 -5
-5z"/>
<path d="M29 693 c-13 -16 -12 -17 4 -4 9 7 17 15 17 17 0 8 -8 3 -21 -13z"/>
<path d="M75 700 c3 -5 8 -10 11 -10 2 0 4 5 4 10 0 6 -5 10 -11 10 -5 0 -7
-4 -4 -10z"/>
<path d="M350 695 c-7 -9 -8 -15 -2 -15 5 0 12 7 16 15 3 8 4 15 2 15 -2 0 -9
-7 -16 -15z"/>
<path d="M395 700 c3 -5 8 -10 11 -10 2 0 4 5 4 10 0 6 -5 10 -11 10 -5 0 -7
-4 -4 -10z"/>
<path d="M669 693 c-13 -16 -12 -17 4 -4 9 7 17 15 17 17 0 8 -8 3 -21 -13z"/>
<path d="M715 700 c3 -5 8 -10 11 -10 2 0 4 5 4 10 0 6 -5 10 -11 10 -5 0 -7
-4 -4 -10z"/>
<path d="M65 670 c-16 -7 -17 -9 -3 -9 9 -1 20 4 23 9 7 11 7 11 -20 0z"/>
<path d="M390 670 c-9 -6 -10 -10 -3 -10 6 0 15 5 18 10 8 12 4 12 -15 0z"/>
<path d="M710 670 c-9 -6 -10 -10 -3 -10 6 0 15 5 18 10 8 12 4 12 -15 0z"/>
<path d="M140 645 c0 -3 2 -5 5 -5 3 0 5 2 5 5 0 3 -2 5 -5 5 -3 0 -5 -2 -5
-5z"/>
<path d="M203 643 c4 -3 10 -3 14 0 3 4 0 7 -7 7 -7 0 -10 -3 -7 -7z"/>
<path d="M460 645 c0 -3 2 -5 5 -5 3 0 5 2 5 5 0 3 -2 5 -5 5 -3 0 -5 -2 -5
-5z"/>
<path d="M523 643 c4 -3 10 -3 14 0 3 4 0 7 -7 7 -7 0 -10 -3 -7 -7z"/>
<path d="M780 645 c0 -3 2 -5 5 -5 3 0 5 2 5 5 0 3 -2 5 -5 5 -3 0 -5 -2 -5
-5z"/>
<path d="M840 645 c0 -3 2 -5 5 -5 3 0 5 2 5 5 0 3 -2 5 -5 5 -3 0 -5 -2 -5
-5z"/>
<path d="M125 610 c-3 -5 -2 -10 4 -10 5 0 13 5 16 10 3 6 2 10 -4 10 -5 0
-13 -4 -16 -10z"/>
<path d="M445 610 c-3 -5 -2 -10 4 -10 5 0 13 5 16 10 3 6 2 10 -4 10 -5 0
-13 -4 -16 -10z"/>
<path d="M765 610 c-3 -5 -2 -10 4 -10 5 0 13 5 16 10 3 6 2 10 -4 10 -5 0
-13 -4 -16 -10z"/>
<path d="M44 568 c-4 -7 -3 -8 4 -4 7 4 12 9 12 12 0 8 -9 4 -16 -8z"/>
<path d="M364 568 c-4 -7 -3 -8 4 -4 7 4 12 9 12 12 0 8 -9 4 -16 -8z"/>
<path d="M684 568 c-4 -7 -3 -8 4 -4 7 4 12 9 12 12 0 8 -9 4 -16 -8z"/>
<path d="M266 557 c3 -10 9 -15 12 -12 3 3 0 11 -7 18 -10 9 -11 8 -5 -6z"/>
<path d="M586 557 c3 -10 9 -15 12 -12 3 3 0 11 -7 18 -10 9 -11 8 -5 -6z"/>
<path d="M906 557 c3 -10 9 -15 12 -12 3 3 0 11 -7 18 -10 9 -11 8 -5 -6z"/>
<path d="M70 545 c0 -3 2 -5 5 -5 3 0 5 2 5 5 0 3 -2 5 -5 5 -3 0 -5 -2 -5 -5z"/>
<path d="M390 545 c0 -3 2 -5 5 -5 3 0 5 2 5 5 0 3 -2 5 -5 5 -3 0 -5 -2 -5
-5z"/>
<path d="M710 545 c0 -3 2 -5 5 -5 3 0 5 2 5 5 0 3 -2 5 -5 5 -3 0 -5 -2 -5
-5z"/>
<path d="M250 535 c0 -3 2 -5 5 -5 3 0 5 2 5 5 0 3 -2 5 -5 5 -3 0 -5 -2 -5
-5z"/>
<path d="M570 535 c0 -3 2 -5 5 -5 3 0 5 2 5 5 0 3 -2 5 -5 5 -3 0 -5 -2 -5
-5z"/>
<path d="M890 535 c0 -3 2 -5 5 -5 3 0 5 2 5 5 0 3 -2 5 -5 5 -3 0 -5 -2 -5
-5z"/>
<path d="M109 483 c-13 -16 -12 -17 4 -4 9 7 17 15 17 17 0 8 -8 3 -21 -13z"/>
<path d="M155 490 c3 -5 8 -10 11 -10 3 0 2 5 -1 10 -3 6 -8 10 -11 10 -3 0
-2 -4 1 -10z"/>
<path d="M429 483 c-13 -16 -12 -17 4 -4 9 7 17 15 17 17 0 8 -8 3 -21 -13z"/>
<path d="M475 490 c3 -5 8 -10 11 -10 3 0 2 5 -1 10 -3 6 -8 10 -11 10 -3 0
-2 -4 1 -10z"/>
<path d="M749 483 c-13 -16 -12 -17 4 -4 9 7 17 15 17 17 0 8 -8 3 -21 -13z"/>
<path d="M795 490 c3 -5 8 -10 11 -10 3 0 2 5 -1 10 -3 6 -8 10 -11 10 -3 0
-2 -4 1 -10z"/>
<path d="M140 455 c0 -3 2 -5 5 -5 3 0 5 2 5 5 0 3 -2 5 -5 5 -3 0 -5 -2 -5
-5z"/>
<path d="M460 455 c0 -3 2 -5 5 -5 3 0 5 2 5 5 0 3 -2 5 -5 5 -3 0 -5 -2 -5
-5z"/>
<path d="M780 455 c0 -3 2 -5 5 -5 3 0 5 2 5 5 0 3 -2 5 -5 5 -3 0 -5 -2 -5
-5z"/>
<path d="M29 373 c-13 -16 -12 -17 4 -4 9 7 17 15 17 17 0 8 -8 3 -21 -13z"/>
<path d="M75 380 c3 -5 8 -10 11 -10 2 0 4 5 4 10 0 6 -5 10 -11 10 -5 0 -7
-4 -4 -10z"/>
<path d="M350 375 c-7 -9 -8 -15 -2 -15 5 0 12 7 16 15 3 8 4 15 2 15 -2 0 -9
-7 -16 -15z"/>
<path d="M395 380 c3 -5 8 -10 11 -10 2 0 4 5 4 10 0 6 -5 10 -11 10 -5 0 -7
-4 -4 -10z"/>
<path d="M669 373 c-13 -16 -12 -17 4 -4 16 13 21 21 13 21 -2 0 -10 -8 -17
-17z"/>
<path d="M715 380 c3 -5 8 -10 11 -10 2 0 4 5 4 10 0 6 -5 10 -11 10 -5 0 -7
-4 -4 -10z"/>
<path d="M70 350 c-9 -6 -10 -10 -3 -10 6 0 15 5 18 10 8 12 4 12 -15 0z"/>
<path d="M390 350 c-9 -6 -10 -10 -3 -10 6 0 15 5 18 10 8 12 4 12 -15 0z"/>
<path d="M710 350 c-9 -6 -10 -10 -3 -10 6 0 15 5 18 10 8 12 4 12 -15 0z"/>
<path d="M140 325 c0 -3 2 -5 5 -5 3 0 5 2 5 5 0 3 -2 5 -5 5 -3 0 -5 -2 -5
-5z"/>
<path d="M203 323 c4 -3 10 -3 14 0 3 4 0 7 -7 7 -7 0 -10 -3 -7 -7z"/>
<path d="M460 325 c0 -3 2 -5 5 -5 3 0 5 2 5 5 0 3 -2 5 -5 5 -3 0 -5 -2 -5
-5z"/>
<path d="M523 323 c4 -3 10 -3 14 0 3 4 0 7 -7 7 -7 0 -10 -3 -7 -7z"/>
<path d="M780 325 c0 -3 2 -5 5 -5 3 0 5 2 5 5 0 3 -2 5 -5 5 -3 0 -5 -2 -5
-5z"/>
<path d="M840 325 c0 -3 2 -5 5 -5 3 0 5 2 5 5 0 3 -2 5 -5 5 -3 0 -5 -2 -5
-5z"/>
<path d="M125 290 c-3 -5 -2 -10 4 -10 5 0 13 5 16 10 3 6 2 10 -4 10 -5 0
-13 -4 -16 -10z"/>
<path d="M445 290 c-3 -5 -2 -10 4 -10 5 0 13 5 16 10 3 6 2 10 -4 10 -5 0
-13 -4 -16 -10z"/>
<path d="M765 290 c-3 -5 -2 -10 4 -10 5 0 13 5 16 10 3 6 2 10 -4 10 -5 0
-13 -4 -16 -10z"/>
<path d="M44 248 c-4 -7 -3 -8 4 -4 12 7 16 16 8 16 -3 0 -8 -5 -12 -12z"/>
<path d="M364 248 c-4 -7 -3 -8 4 -4 12 7 16 16 8 16 -3 0 -8 -5 -12 -12z"/>
<path d="M684 248 c-4 -7 -3 -8 4 -4 7 4 12 9 12 12 0 8 -9 4 -16 -8z"/>
<path d="M266 237 c3 -10 9 -15 12 -12 3 3 0 11 -7 18 -10 9 -11 8 -5 -6z"/>
<path d="M586 237 c3 -10 9 -15 12 -12 3 3 0 11 -7 18 -10 9 -11 8 -5 -6z"/>
<path d="M906 237 c3 -10 9 -15 12 -12 3 3 0 11 -7 18 -10 9 -11 8 -5 -6z"/>
<path d="M70 225 c0 -3 2 -5 5 -5 3 0 5 2 5 5 0 3 -2 5 -5 5 -3 0 -5 -2 -5 -5z"/>
<path d="M390 225 c0 -3 2 -5 5 -5 3 0 5 2 5 5 0 3 -2 5 -5 5 -3 0 -5 -2 -5
-5z"/>
<path d="M710 225 c0 -3 2 -5 5 -5 3 0 5 2 5 5 0 3 -2 5 -5 5 -3 0 -5 -2 -5
-5z"/>
<path d="M250 215 c0 -3 2 -5 5 -5 3 0 5 2 5 5 0 3 -2 5 -5 5 -3 0 -5 -2 -5
-5z"/>
<path d="M570 215 c0 -3 2 -5 5 -5 3 0 5 2 5 5 0 3 -2 5 -5 5 -3 0 -5 -2 -5
-5z"/>
<path d="M890 215 c0 -3 2 -5 5 -5 3 0 5 2 5 5 0 3 -2 5 -5 5 -3 0 -5 -2 -5
-5z"/>
<path d="M109 163 c-13 -16 -12 -17 4 -4 9 7 17 15 17 17 0 8 -8 3 -21 -13z"/>
<path d="M155 170 c3 -5 8 -10 11 -10 3 0 2 5 -1 10 -3 6 -8 10 -11 10 -3 0
-2 -4 1 -10z"/>
<path d="M429 163 c-13 -16 -12 -17 4 -4 9 7 17 15 17 17 0 8 -8 3 -21 -13z"/>
<path d="M475 170 c3 -5 8 -10 11 -10 3 0 2 5 -1 10 -3 6 -8 10 -11 10 -3 0
-2 -4 1 -10z"/>
<path d="M749 163 c-13 -16 -12 -17 4 -4 16 13 21 21 13 21 -2 0 -10 -8 -17
-17z"/>
<path d="M795 170 c3 -5 8 -10 11 -10 3 0 2 5 -1 10 -3 6 -8 10 -11 10 -3 0
-2 -4 1 -10z"/>
<path d="M140 135 c0 -3 2 -5 5 -5 3 0 5 2 5 5 0 3 -2 5 -5 5 -3 0 -5 -2 -5
-5z"/>
<path d="M460 135 c0 -3 2 -5 5 -5 3 0 5 2 5 5 0 3 -2 5 -5 5 -3 0 -5 -2 -5
-5z"/>
<path d="M780 135 c0 -3 2 -5 5 -5 3 0 5 2 5 5 0 3 -2 5 -5 5 -3 0 -5 -2 -5
-5z"/>
<path d="M30 55 c-7 -9 -8 -15 -2 -15 5 0 12 7 16 15 3 8 4 15 2 15 -2 0 -9
-7 -16 -15z"/>
<path d="M75 60 c3 -5 8 -10 11 -10 2 0 4 5 4 10 0 6 -5 10 -11 10 -5 0 -7 -4
-4 -10z"/>
<path d="M349 53 c-13 -16 -12 -17 4 -4 16 13 21 21 13 21 -2 0 -10 -8 -17
-17z"/>
<path d="M395 60 c3 -5 8 -10 11 -10 2 0 4 5 4 10 0 6 -5 10 -11 10 -5 0 -7
-4 -4 -10z"/>
<path d="M670 55 c-7 -9 -8 -15 -2 -15 5 0 12 7 16 15 3 8 4 15 2 15 -2 0 -9
-7 -16 -15z"/>
<path d="M715 60 c3 -5 8 -10 11 -10 2 0 4 5 4 10 0 6 -5 10 -11 10 -5 0 -7
-4 -4 -10z"/>
<path d="M70 30 c-9 -6 -10 -10 -3 -10 6 0 15 5 18 10 8 12 4 12 -15 0z"/>
<path d="M390 30 c-9 -6 -10 -10 -3 -10 6 0 15 5 18 10 8 12 4 12 -15 0z"/>
<path d="M710 30 c-9 -6 -10 -10 -3 -10 6 0 15 5 18 10 8 12 4 12 -15 0z"/>
<path d="M140 5 c0 -3 2 -5 5 -5 3 0 5 2 5 5 0 3 -2 5 -5 5 -3 0 -5 -2 -5 -5z"/>
<path d="M203 3 c4 -3 10 -3 14 0 3 4 0 7 -7 7 -7 0 -10 -3 -7 -7z"/>
<path d="M460 5 c0 -3 2 -5 5 -5 3 0 5 2 5 5 0 3 -2 5 -5 5 -3 0 -5 -2 -5 -5z"/>
<path d="M520 5 c0 -3 2 -5 5 -5 3 0 5 2 5 5 0 3 -2 5 -5 5 -3 0 -5 -2 -5 -5z"/>
<path d="M780 5 c0 -3 2 -5 5 -5 3 0 5 2 5 5 0 3 -2 5 -5 5 -3 0 -5 -2 -5 -5z"/>
<path d="M843 3 c4 -3 10 -3 14 0 3 4 0 7 -7 7 -7 0 -10 -3 -7 -7z"/>
</g>
<g transform="translate(0.000000,96.000000) scale(0.100000,-0.100000)"
fill="#043d00" stroke="none">
<path d="M140 645 c0 -3 2 -5 5 -5 3 0 5 2 5 5 0 3 -2 5 -5 5 -3 0 -5 -2 -5
-5z"/>
<path d="M203 643 c4 -3 10 -3 14 0 3 4 0 7 -7 7 -7 0 -10 -3 -7 -7z"/>
<path d="M460 645 c0 -3 2 -5 5 -5 3 0 5 2 5 5 0 3 -2 5 -5 5 -3 0 -5 -2 -5
-5z"/>
<path d="M523 643 c4 -3 10 -3 14 0 3 4 0 7 -7 7 -7 0 -10 -3 -7 -7z"/>
<path d="M780 645 c0 -3 2 -5 5 -5 3 0 5 2 5 5 0 3 -2 5 -5 5 -3 0 -5 -2 -5
-5z"/>
<path d="M840 645 c0 -3 2 -5 5 -5 3 0 5 2 5 5 0 3 -2 5 -5 5 -3 0 -5 -2 -5
-5z"/>
<path d="M140 325 c0 -3 2 -5 5 -5 3 0 5 2 5 5 0 3 -2 5 -5 5 -3 0 -5 -2 -5
-5z"/>
<path d="M203 323 c4 -3 10 -3 14 0 3 4 0 7 -7 7 -7 0 -10 -3 -7 -7z"/>
<path d="M460 325 c0 -3 2 -5 5 -5 3 0 5 2 5 5 0 3 -2 5 -5 5 -3 0 -5 -2 -5
-5z"/>
<path d="M523 323 c4 -3 10 -3 14 0 3 4 0 7 -7 7 -7 0 -10 -3 -7 -7z"/>
<path d="M780 325 c0 -3 2 -5 5 -5 3 0 5 2 5 5 0 3 -2 5 -5 5 -3 0 -5 -2 -5
-5z"/>
<path d="M840 325 c0 -3 2 -5 5 -5 3 0 5 2 5 5 0 3 -2 5 -5 5 -3 0 -5 -2 -5
-5z"/>
<path d="M140 5 c0 -3 2 -5 5 -5 3 0 5 2 5 5 0 3 -2 5 -5 5 -3 0 -5 -2 -5 -5z"/>
<path d="M203 3 c4 -3 10 -3 14 0 3 4 0 7 -7 7 -7 0 -10 -3 -7 -7z"/>
<path d="M460 5 c0 -3 2 -5 5 -5 3 0 5 2 5 5 0 3 -2 5 -5 5 -3 0 -5 -2 -5 -5z"/>
<path d="M520 5 c0 -3 2 -5 5 -5 3 0 5 2 5 5 0 3 -2 5 -5 5 -3 0 -5 -2 -5 -5z"/>
<path d="M780 5 c0 -3 2 -5 5 -5 3 0 5 2 5 5 0 3 -2 5 -5 5 -3 0 -5 -2 -5 -5z"/>
<path d="M843 3 c4 -3 10 -3 14 0 3 4 0 7 -7 7 -7 0 -10 -3 -7 -7z"/>
</g>
  </g>
</svg>
