<?xml version="1.0" encoding="UTF-8" standalone="no"?>
<!-- Created with Inkscape (http://www.inkscape.org/) -->

<svg
   xmlns:dc="http://purl.org/dc/elements/1.1/"
   xmlns:cc="http://creativecommons.org/ns#"
   xmlns:rdf="http://www.w3.org/1999/02/22-rdf-syntax-ns#"
   xmlns:svg="http://www.w3.org/2000/svg"
   xmlns="http://www.w3.org/2000/svg"
   xmlns:sodipodi="http://sodipodi.sourceforge.net/DTD/sodipodi-0.dtd"
   xmlns:inkscape="http://www.inkscape.org/namespaces/inkscape"
   width="16px"
   height="16px"
   viewBox="0 0 16px 16px"
   version="1.1"
   id="svgMain"
   inkscape:version="0.92.2 (5c3e80d, 2017-08-06)"
   sodipodi:docname="reference_SVG.svg">
  <defs
     id="defs4542" />
  <sodipodi:namedview
     id="base"
     pagecolor="#ffffff"
     bordercolor="#666666"
     borderopacity="1.0"
     inkscape:pageopacity="0.0"
     inkscape:pageshadow="2"
     inkscape:zoom="1"
     inkscape:cx="0"
     inkscape:cy="0"
     inkscape:document-units="px"
     inkscape:current-layer="layer1"
     showgrid="false"
     units="px"
     inkscape:window-width="1024"
     inkscape:window-height="768"
     inkscape:window-x="-8"
     inkscape:window-y="-8"
     inkscape:window-maximized="1" />
  <metadata
     id="metadata1">
    <rdf:RDF>
      <cc:Work
         rdf:about="">
        <dc:format>image/svg+xml</dc:format>
        <dc:type
           rdf:resource="http://purl.org/dc/dcmitype/StillImage" />
        <dc:title />
      </cc:Work>
    </rdf:RDF>
  </metadata>
  <g transform="translate(-16,-16) scale(0.5,0.5)"
     inkscape:label="Layer 1"
     inkscape:groupmode="layer"
     id="layer1">
    <!-- INSERT MARKER -->
<g transform="translate(0.000000,96.000000) scale(0.100000,-0.100000)"
fill="#105a00" stroke="none">
<path d="M47 949 c15 -15 3 -61 -19 -67 -14 -3 -16 -7 -7 -18 9 -11 8 -19 -6
-34 -18 -19 -18 -22 -1 -56 12 -27 21 -35 36 -31 11 3 21 -1 24 -9 3 -8 0 -14
-7 -14 -7 0 -3 -8 8 -18 11 -9 30 -28 42 -42 l22 -26 -22 -25 c-16 -19 -28
-24 -41 -19 -19 6 -19 7 2 12 35 10 28 38 -10 38 -22 0 -29 -3 -21 -11 15 -15
3 -61 -19 -67 -14 -3 -16 -7 -7 -18 9 -11 8 -19 -6 -34 -18 -19 -18 -22 -1
-56 12 -27 21 -35 36 -31 11 3 21 -1 24 -9 3 -8 0 -14 -7 -14 -7 0 -3 -8 8
-18 11 -9 30 -28 42 -42 l22 -26 -22 -25 c-16 -19 -28 -24 -41 -19 -19 6 -19
7 2 12 35 10 28 38 -10 38 -22 0 -29 -3 -21 -11 15 -15 3 -61 -19 -67 -14 -3
-16 -7 -7 -18 9 -11 8 -19 -6 -34 -18 -19 -18 -22 -1 -56 12 -27 21 -35 36
-31 11 3 21 -1 24 -9 3 -8 1 -14 -4 -14 -6 0 7 -18 27 -40 35 -37 42 -40 90
-40 46 0 55 3 70 28 10 15 25 32 33 39 10 8 11 12 3 13 -9 0 -8 10 4 35 20 42
26 43 42 9 8 -19 17 -25 31 -21 11 3 21 -1 24 -9 3 -8 1 -14 -4 -14 -6 0 7
-18 27 -40 35 -37 42 -40 90 -40 46 0 55 3 70 28 10 15 25 32 33 39 10 8 11
12 3 13 -9 0 -8 10 4 35 20 42 26 43 42 9 8 -19 17 -25 31 -21 11 3 21 -1 24
-9 3 -8 1 -14 -4 -14 -6 0 7 -18 27 -40 35 -37 42 -40 90 -40 46 0 55 3 70 27
10 16 25 33 33 40 10 8 11 12 3 13 -9 0 -6 15 10 46 l22 46 -23 18 c-13 11
-18 21 -12 25 15 9 12 41 -4 54 -8 7 -12 22 -9 34 4 20 3 20 -7 4 -9 -14 -15
-16 -25 -7 -12 10 -11 17 8 43 12 18 29 37 37 44 10 8 11 12 3 13 -9 0 -6 15
10 46 l22 46 -23 18 c-13 11 -18 21 -12 25 15 9 12 41 -4 54 -8 7 -12 22 -9
34 4 20 3 20 -7 4 -9 -14 -15 -16 -25 -7 -12 10 -11 17 8 43 12 18 29 37 37
44 10 8 11 12 3 13 -9 0 -6 15 10 46 l22 46 -23 18 c-13 11 -18 21 -12 25 15
9 12 41 -4 54 -8 7 -12 21 -9 34 5 21 5 21 -9 4 -13 -17 -15 -17 -27 -3 -9 10
-29 16 -56 16 -35 0 -47 -5 -66 -29 -15 -20 -28 -27 -42 -23 -20 5 -20 5 1 13
35 13 28 39 -10 39 -22 0 -29 -3 -21 -11 15 -15 3 -61 -19 -67 -15 -3 -16 -7
-7 -19 10 -11 9 -17 -3 -30 -15 -14 -18 -14 -38 0 -13 9 -17 17 -11 22 15 9
14 40 -3 54 -8 7 -12 21 -9 34 5 21 5 21 -9 4 -13 -17 -15 -17 -27 -3 -9 10
-29 16 -56 16 -35 0 -47 -5 -66 -29 -15 -20 -28 -27 -42 -23 -20 5 -20 5 1 13
35 13 28 39 -10 39 -22 0 -29 -3 -21 -11 15 -15 3 -61 -19 -67 -15 -3 -16 -7
-7 -19 10 -11 9 -17 -3 -30 -15 -14 -18 -14 -38 0 -13 9 -17 17 -11 22 15 9
14 40 -3 54 -8 7 -12 21 -9 34 5 21 5 21 -9 4 -13 -17 -15 -17 -27 -3 -9 10
-29 16 -56 16 -35 0 -47 -5 -66 -29 -15 -20 -28 -27 -42 -23 -20 5 -20 5 1 13
35 13 28 39 -10 39 -22 0 -29 -3 -21 -11z m292 -185 c8 -19 17 -25 31 -21 11
3 21 -1 24 -9 3 -8 0 -14 -7 -14 -7 0 -3 -8 8 -18 11 -9 30 -28 42 -42 l22
-26 -22 -25 c-16 -19 -28 -24 -41 -19 -19 6 -19 7 2 12 35 10 28 38 -10 38
-22 0 -29 -3 -21 -11 15 -15 3 -61 -19 -67 -15 -3 -16 -7 -7 -19 10 -11 9 -17
-3 -30 -15 -14 -18 -14 -38 0 -13 9 -17 17 -11 22 15 9 14 40 -3 54 -8 7 -12
22 -9 34 4 20 3 20 -7 4 -9 -14 -15 -16 -25 -7 -12 10 -11 17 8 43 12 18 29
37 37 44 10 8 11 12 3 13 -9 0 -8 10 4 35 20 42 26 43 42 9z m320 0 c8 -19 17
-25 31 -21 11 3 21 -1 24 -9 3 -8 0 -14 -7 -14 -7 0 -3 -8 8 -18 11 -9 30 -28
42 -42 l22 -26 -22 -25 c-16 -19 -28 -24 -41 -19 -19 6 -19 7 2 12 35 10 28
38 -10 38 -22 0 -29 -3 -21 -11 15 -15 3 -61 -19 -67 -15 -3 -16 -7 -7 -19 10
-11 9 -17 -3 -30 -15 -14 -18 -14 -38 0 -13 9 -17 17 -11 22 15 9 14 40 -3 54
-8 7 -12 22 -9 34 4 20 3 20 -7 4 -9 -14 -15 -16 -25 -7 -12 10 -11 17 8 43
12 18 29 37 37 44 10 8 11 12 3 13 -9 0 -8 10 4 35 20 42 26 43 42 9z m-320
-320 c8 -19 17 -25 31 -21 11 3 21 -1 24 -9 3 -8 0 -14 -7 -14 -7 0 -3 -8 8
-18 11 -9 30 -28 42 -42 l22 -26 -22 -25 c-16 -19 -28 -24 -41 -19 -19 6 -19
7 2 12 35 10 28 38 -10 38 -22 0 -29 -3 -21 -11 15 -15 3 -61 -19 -67 -15 -3
-16 -7 -7 -19 10 -11 9 -17 -3 -30 -15 -14 -18 -14 -38 0 -13 9 -17 17 -11 22
15 9 14 40 -3 54 -8 7 -12 22 -9 34 4 20 3 20 -7 4 -9 -14 -15 -16 -25 -7 -12
10 -11 17 8 43 12 18 29 37 37 44 10 8 11 12 3 13 -9 0 -8 10 4 35 20 42 26
43 42 9z m320 0 c8 -19 17 -25 31 -21 11 3 21 -1 24 -9 3 -8 0 -14 -7 -14 -7
0 -3 -8 8 -18 11 -9 30 -28 42 -42 l22 -26 -22 -25 c-16 -19 -28 -24 -41 -19
-19 6 -19 7 2 12 35 10 28 38 -10 38 -22 0 -29 -3 -21 -11 15 -15 3 -61 -19
-67 -15 -3 -16 -7 -7 -19 10 -11 9 -17 -3 -30 -15 -14 -18 -14 -38 0 -13 9
-17 17 -11 22 15 9 14 40 -3 54 -8 7 -12 22 -9 34 4 20 3 20 -7 4 -9 -14 -15
-16 -25 -7 -12 10 -11 17 8 43 12 18 29 37 37 44 10 8 11 12 3 13 -9 0 -8 10
4 35 20 42 26 43 42 9z"/>
</g>
<g transform="translate(0.000000,96.000000) scale(0.100000,-0.100000)"
fill="#093a00" stroke="none">
<path d="M47 953 c14 -5 8 -50 -8 -67 -5 -6 -9 -17 -9 -25 0 -8 -8 -23 -17
-33 -15 -17 -15 -21 0 -53 13 -28 21 -34 47 -33 17 1 26 4 20 8 -9 6 -9 9 -1
14 6 4 9 12 6 17 -4 5 -2 9 4 9 10 0 22 26 20 45 -1 6 -5 9 -9 8 -4 -1 -3 8 3
22 8 15 14 20 19 12 4 -7 3 -14 -2 -15 -6 -2 -7 -8 -4 -13 3 -6 11 -5 20 2 8
6 14 7 14 2 0 -5 -9 -16 -19 -25 -12 -10 -18 -26 -17 -42 2 -14 0 -23 -4 -21
-4 3 -10 -6 -12 -20 -3 -13 -1 -22 3 -19 5 3 13 -6 19 -20 5 -14 15 -26 21
-26 7 0 9 3 6 7 -4 3 -2 12 4 20 9 9 8 13 0 14 -26 3 -30 4 -37 12 -4 4 -2 7
4 7 7 0 12 6 12 14 0 9 7 12 20 9 11 -3 20 -10 20 -15 0 -5 -6 -6 -12 -2 -10
6 -10 5 -1 -7 6 -8 10 -24 9 -34 -4 -24 10 -55 25 -55 6 0 8 4 5 9 -3 5 6 12
19 15 14 4 23 11 20 16 -3 5 0 12 6 16 8 4 9 3 5 -4 -4 -7 -2 -12 3 -12 6 0
11 7 11 15 0 8 4 15 10 15 5 0 9 3 9 8 -3 19 2 33 10 27 5 -3 12 4 16 15 9 27
19 25 33 -5 8 -18 18 -24 36 -23 14 1 24 5 24 8 0 3 1 7 2 10 8 19 5 60 -6 64
-7 3 -18 14 -24 25 -9 19 -8 21 15 19 16 -2 24 -7 21 -15 -3 -7 0 -15 6 -19 6
-4 8 -3 4 4 -3 6 -2 13 3 16 5 4 13 2 16 -4 5 -8 11 -8 20 0 8 7 16 7 19 2 7
-11 -21 -25 -34 -17 -14 8 -23 -16 -12 -27 8 -8 8 -17 0 -32 -17 -30 -17 -56
-1 -56 8 0 12 4 9 9 -3 5 2 12 12 16 27 12 42 14 42 5 0 -10 -21 -25 -35 -25
-9 0 -11 -8 -6 -35 0 -5 6 -10 12 -10 6 0 9 6 6 14 -9 23 13 37 31 20 14 -14
16 -13 28 14 6 16 18 33 26 38 9 6 8 0 -4 -17 -25 -40 -28 -90 -3 -69 8 7 21
10 29 7 10 -4 13 -1 10 7 -3 8 -1 17 5 21 6 3 11 13 11 21 0 13 39 59 44 52 2
-1 8 -13 15 -25 15 -30 68 -30 66 1 -1 12 3 24 9 29 7 5 5 12 -6 21 -10 7 -18
18 -18 25 0 15 -9 14 -43 -4 -25 -13 -32 -13 -49 -1 -12 9 -15 16 -9 21 18 10
13 43 -9 58 -11 8 -17 17 -12 22 4 5 2 5 -5 2 -6 -4 -17 -1 -25 6 -7 8 -33 14
-58 15 -42 2 -43 1 -27 -15 14 -14 20 -15 25 -6 6 10 12 10 28 -2 18 -14 18
-16 2 -29 -19 -14 -25 -32 -9 -21 11 6 6 -34 -5 -44 -4 -3 -4 2 -1 11 3 10 1
20 -4 24 -6 3 -8 16 -5 28 4 17 1 22 -12 21 -10 0 -24 -5 -32 -10 -13 -8 -13
-7 0 11 14 18 14 18 -6 1 -11 -9 -24 -14 -29 -10 -4 5 -6 3 -2 -2 3 -6 2 -17
-4 -25 -7 -12 -9 -11 -9 5 -1 18 -2 18 -11 3 -5 -9 -15 -15 -23 -12 -17 7 -41
-22 -26 -31 8 -5 4 -12 -9 -22 -18 -12 -24 -12 -42 0 -13 9 -16 17 -10 22 18
10 13 43 -9 58 -11 8 -17 17 -12 22 4 4 -7 0 -25 -10 -33 -20 -51 -55 -27 -55
8 0 11 -6 7 -17 -5 -12 -3 -14 7 -8 9 6 11 4 5 -5 -6 -10 -11 -9 -21 4 -6 9
-14 13 -16 9 -3 -4 -3 -3 -2 4 2 7 -1 15 -6 18 -6 4 -10 12 -10 18 0 7 4 6 10
-3 9 -13 10 -13 10 0 0 8 -4 20 -8 25 -11 15 -32 17 -32 2 0 -7 -9 -13 -20
-13 -17 0 -18 2 -5 16 8 9 12 20 8 25 -5 4 2 2 15 -4 18 -10 22 -9 22 4 0 19
-33 20 -49 2 -6 -8 -9 -16 -6 -19 3 -3 -4 -13 -15 -23 -13 -12 -20 -14 -20 -5
0 7 -7 10 -15 6 -18 -7 -19 3 -1 26 7 10 17 14 21 10 5 -4 5 -1 1 6 -4 6 -19
12 -34 11 -15 0 -21 -3 -15 -6z m93 -18 c0 -3 -2 -5 -5 -5 -3 0 -5 2 -5 5 0 3
2 5 5 5 3 0 5 -2 5 -5z m420 -10 c0 -3 -2 -5 -5 -5 -3 0 -5 2 -5 5 0 3 2 5 5
5 3 0 5 -2 5 -5z m-90 -34 c-5 -11 -15 -23 -21 -27 -6 -3 -3 5 6 20 20 30 30
35 15 7z m-391 -14 c6 -8 8 -17 4 -20 -3 -4 0 -14 7 -22 11 -13 11 -18 0 -28
-10 -9 -11 -9 -6 1 4 6 2 12 -3 12 -6 0 -11 7 -11 15 0 8 -6 15 -14 15 -9 0
-12 7 -9 20 6 23 16 25 32 7z m86 5 c-3 -3 0 -11 6 -18 7 -9 6 -14 -3 -20 -7
-4 -10 -3 -5 1 4 5 0 16 -8 25 -13 15 -13 17 0 17 8 0 13 -3 10 -5z m275 3 c0
-3 -2 -5 -5 -5 -3 0 -5 2 -5 5 0 3 2 5 5 5 3 0 5 -2 5 -5z m50 0 c0 -3 -2 -5
-5 -5 -3 0 -5 2 -5 5 0 3 2 5 5 5 3 0 5 -2 5 -5z m5 -25 c3 -5 4 -10 1 -10 -3
0 -8 5 -11 10 -3 6 -4 10 -1 10 3 0 8 -4 11 -10z m55 5 c0 -3 -2 -5 -5 -5 -3
0 -5 2 -5 5 0 3 2 5 5 5 3 0 5 -2 5 -5z m10 -19 c0 -11 -19 -15 -25 -6 -3 5 1
10 9 10 9 0 16 -2 16 -4z m-310 -20 c0 -2 -8 -10 -17 -17 -16 -13 -17 -12 -4
4 13 16 21 21 21 13z m311 -9 c-6 -8 -7 -18 -3 -22 4 -5 1 -5 -6 -1 -10 6 -10
11 -1 22 6 8 14 14 16 14 3 0 0 -6 -6 -13z m-341 -31 c0 -3 -5 -8 -12 -12 -7
-4 -8 -3 -4 4 7 12 16 16 16 8z m307 -13 c-4 -3 -7 0 -7 7 0 7 3 10 7 7 3 -4
3 -10 0 -14z m-266 -18 c12 8 11 -6 -1 -25 -8 -13 -10 -12 -10 3 0 29 -27 19
-36 -14 -9 -32 -25 -40 -33 -17 -2 7 0 10 4 6 4 -4 17 11 28 33 16 34 22 38
29 25 5 -9 13 -14 19 -11z m189 20 c0 -3 -2 -5 -5 -5 -3 0 -5 2 -5 5 0 3 2 5
5 5 3 0 5 -2 5 -5z m133 -36 c-4 -15 -8 -17 -14 -8 -8 14 -3 29 11 29 4 0 6
-9 3 -21z m-393 -4 c0 -3 -2 -5 -5 -5 -3 0 -5 2 -5 5 0 3 2 5 5 5 3 0 5 -2 5
-5z m380 -30 c0 -3 -2 -5 -5 -5 -3 0 -5 2 -5 5 0 3 2 5 5 5 3 0 5 -2 5 -5z"/>
<path d="M65 870 c3 -5 8 -10 11 -10 3 0 2 5 -1 10 -3 6 -8 10 -11 10 -3 0 -2
-4 1 -10z"/>
<path d="M195 943 c2 -10 4 -22 4 -27 1 -6 8 -1 17 10 8 10 12 12 8 4 -5 -12
-4 -12 6 -3 16 14 5 33 -20 33 -12 0 -17 -6 -15 -17z m15 -8 c0 -3 -2 -5 -5
-5 -3 0 -5 2 -5 5 0 3 2 5 5 5 3 0 5 -2 5 -5z"/>
<path d="M367 953 c8 -3 11 -14 7 -28 -3 -12 -1 -26 5 -29 7 -4 8 -1 5 8 -3 9
0 18 8 21 25 10 17 35 -11 34 -14 0 -20 -3 -14 -6z"/>
<path d="M590 955 c0 -3 2 -5 5 -5 3 0 5 2 5 5 0 3 -2 5 -5 5 -3 0 -5 -2 -5
-5z"/>
<path d="M687 949 c6 -6 9 -18 6 -25 -3 -8 1 -22 8 -31 12 -14 12 -16 -1 -11
-18 7 -45 -18 -30 -27 6 -3 10 -1 10 4 0 17 56 13 70 -4 8 -10 17 -12 24 -6 7
6 17 6 26 1 13 -9 13 -10 0 -11 -8 -1 -25 -3 -37 -4 -13 -1 -20 2 -16 8 4 6 1
7 -7 2 -9 -6 -11 -4 -5 5 5 9 4 11 -4 6 -8 -5 -6 -15 8 -35 18 -24 18 -30 6
-48 -8 -11 -10 -25 -5 -33 4 -7 6 -19 3 -26 -3 -8 6 -30 18 -51 13 -21 22 -40
21 -41 -2 -2 0 -7 4 -10 4 -4 4 -1 -1 7 -6 10 -4 12 4 7 9 -6 9 -11 0 -22 -14
-17 -23 -18 -13 -1 4 6 -4 2 -18 -11 -17 -15 -28 -20 -33 -13 -3 6 -11 8 -17
5 -6 -4 -8 -1 -6 7 3 8 10 13 16 12 7 -2 9 4 5 14 -5 12 -3 14 7 8 9 -5 11 -4
6 3 -4 7 -19 12 -34 12 -19 0 -23 -3 -15 -11 6 -6 9 -18 6 -25 -3 -8 1 -22 8
-31 12 -14 12 -16 -1 -11 -18 7 -45 -18 -30 -27 6 -3 10 -1 10 4 0 17 56 13
70 -4 8 -10 17 -12 24 -6 7 6 17 6 26 1 15 -10 14 -10 -39 -14 -8 -1 -16 -7
-19 -15 -3 -8 0 -11 6 -7 13 8 7 -30 -7 -48 -6 -7 -6 -17 -1 -26 5 -8 6 -18 3
-23 -7 -11 17 -67 29 -67 16 0 21 30 7 47 -8 10 -9 14 -2 10 6 -4 14 -3 18 3
3 5 1 10 -5 10 -6 0 -8 5 -5 11 5 7 14 3 26 -10 23 -25 33 -27 25 -6 -3 9 0
15 9 15 12 0 12 -5 4 -26 -10 -29 -3 -47 10 -25 5 7 11 12 15 12 20 -3 26 2
32 24 3 14 10 25 15 25 5 0 17 16 26 36 17 35 17 36 -5 54 -13 11 -18 21 -12
25 17 10 11 43 -10 58 -11 8 -18 16 -15 18 2 3 -5 5 -16 6 -14 1 -25 -8 -34
-30 -12 -30 -12 -33 8 -41 14 -5 17 -10 9 -13 -10 -4 -10 -8 0 -21 12 -14 11
-14 -9 -2 -12 8 -21 19 -20 24 1 6 -3 10 -10 9 -6 -1 -10 8 -8 23 1 13 -2 27
-6 30 -5 3 -4 14 2 25 14 27 7 81 -11 87 -13 5 -13 3 0 -13 10 -12 10 -16 2
-11 -10 6 -11 2 -7 -16 5 -18 2 -25 -10 -25 -8 0 -14 5 -12 11 2 6 -5 18 -15
26 -15 12 -18 22 -13 43 4 15 12 27 17 27 6 0 6 6 -2 14 -10 13 -8 13 14 3 16
-7 24 -18 21 -27 -3 -9 5 -21 17 -29 18 -11 20 -11 15 3 -4 10 -1 16 8 16 11
0 12 -5 5 -26 -13 -33 -13 -33 9 -27 22 5 37 61 21 77 -7 7 -10 6 -10 -2 0 -7
-5 -12 -10 -12 -6 0 -5 8 2 20 11 16 14 17 21 5 4 -9 12 -13 18 -10 5 3 6 -1
3 -10 -5 -11 -2 -14 10 -9 9 4 15 9 12 11 -2 3 4 13 15 24 25 25 24 44 -2 62
-13 9 -16 17 -10 22 18 10 13 43 -9 58 -11 8 -18 16 -15 18 2 3 -5 5 -16 6
-14 1 -25 -8 -34 -30 -12 -30 -12 -33 8 -41 14 -5 17 -10 9 -13 -10 -4 -10 -8
0 -21 12 -14 11 -14 -9 -2 -12 8 -21 19 -20 24 1 6 -3 10 -10 9 -6 -1 -10 8
-8 23 1 13 -1 27 -6 30 -4 2 -6 11 -3 19 4 11 11 12 24 5 16 -9 30 -4 30 9 0
4 -20 8 -45 9 -44 2 -66 -10 -44 -24 8 -5 9 -3 4 6 -5 9 -4 11 4 6 9 -6 9 -11
0 -22 -14 -17 -23 -18 -13 -1 4 6 -4 2 -18 -11 -17 -15 -28 -20 -33 -13 -3 6
-11 8 -17 5 -6 -4 -8 -1 -6 7 3 8 10 13 16 12 7 -2 9 4 5 14 -5 12 -3 14 7 8
9 -5 11 -4 6 3 -4 7 -19 12 -34 12 -19 0 -23 -3 -15 -11z m74 -62 c-10 -9 -11
-8 -5 6 3 10 9 15 12 12 3 -3 0 -11 -7 -18z m32 6 c-4 -10 -2 -14 4 -10 5 3
10 -1 10 -9 0 -10 -4 -11 -10 -5 -7 7 -15 7 -26 -2 -10 -8 -9 -4 3 16 21 31
28 35 19 10z m-33 -78 c0 -3 -2 -5 -5 -5 -3 0 -5 2 -5 5 0 3 2 5 5 5 3 0 5 -2
5 -5z m110 -10 c0 -3 -2 -5 -5 -5 -3 0 -5 2 -5 5 0 3 2 5 5 5 3 0 5 -2 5 -5z
m-29 -38 c-10 -9 -11 -8 -5 6 3 10 9 15 12 12 3 -3 0 -11 -7 -18z m-80 -200
c-10 -9 -11 -8 -5 6 3 10 9 15 12 12 3 -3 0 -11 -7 -18z m32 6 c-4 -10 -2 -14
4 -10 5 3 10 -1 10 -9 0 -10 -4 -11 -10 -5 -7 7 -15 7 -26 -2 -10 -8 -9 -4 3
16 21 31 28 35 19 10z m77 -88 c0 -3 -2 -5 -5 -5 -3 0 -5 2 -5 5 0 3 2 5 5 5
3 0 5 -2 5 -5z m-60 -58 c0 -5 -4 -6 -9 -3 -4 3 -17 -4 -27 -15 -16 -17 -16
-23 -5 -42 12 -20 12 -21 -3 -6 -18 17 -13 69 6 69 6 0 6 6 -2 14 -10 13 -8
13 14 3 14 -7 26 -16 26 -20z m93 10 c10 9 8 -10 -2 -25 -6 -10 -10 -8 -15 10
-4 14 -9 18 -13 11 -2 -7 -9 -13 -14 -13 -5 0 -4 9 3 20 11 18 14 18 24 5 6
-8 14 -12 17 -8z m27 -2 c0 -3 -2 -5 -5 -5 -3 0 -5 2 -5 5 0 3 2 5 5 5 3 0 5
-2 5 -5z m-40 -50 c0 -3 -2 -5 -5 -5 -3 0 -5 2 -5 5 0 3 2 5 5 5 3 0 5 -2 5
-5z"/>
<path d="M910 955 c0 -3 2 -5 5 -5 3 0 5 2 5 5 0 3 -2 5 -5 5 -3 0 -5 -2 -5
-5z"/>
<path d="M520 920 c0 -7 3 -10 7 -7 3 4 3 10 0 14 -4 3 -7 0 -7 -7z"/>
<path d="M820 925 c0 -3 2 -5 5 -5 3 0 5 2 5 5 0 3 -2 5 -5 5 -3 0 -5 -2 -5
-5z"/>
<path d="M840 920 c0 -7 3 -10 7 -7 3 4 3 10 0 14 -4 3 -7 0 -7 -7z"/>
<path d="M830 890 c0 -7 3 -10 7 -7 3 4 3 10 0 14 -4 3 -7 0 -7 -7z"/>
<path d="M380 845 c0 -3 2 -5 5 -5 3 0 5 2 5 5 0 3 -2 5 -5 5 -3 0 -5 -2 -5
-5z"/>
<path d="M410 805 c0 -3 2 -5 5 -5 3 0 5 2 5 5 0 3 -2 5 -5 5 -3 0 -5 -2 -5
-5z"/>
<path d="M410 785 c0 -3 2 -5 5 -5 3 0 5 2 5 5 0 3 -2 5 -5 5 -3 0 -5 -2 -5
-5z"/>
<path d="M776 731 c-17 -18 -13 -51 7 -51 6 0 7 3 4 7 -4 3 -2 12 4 20 9 10 8
13 -1 13 -10 0 -10 3 0 15 18 22 6 19 -14 -4z"/>
<path d="M70 710 c0 -7 3 -10 7 -7 3 4 3 10 0 14 -4 3 -7 0 -7 -7z"/>
<path d="M290 715 c0 -3 2 -5 5 -5 3 0 5 2 5 5 0 3 -2 5 -5 5 -3 0 -5 -2 -5
-5z"/>
<path d="M700 715 c0 -3 2 -5 5 -5 3 0 5 2 5 5 0 3 -2 5 -5 5 -3 0 -5 -2 -5
-5z"/>
<path d="M890 709 c0 -5 5 -7 10 -4 6 3 10 8 10 11 0 2 -4 4 -10 4 -5 0 -10
-5 -10 -11z"/>
<path d="M106 688 c7 -22 21 -38 37 -38 12 0 8 8 -19 35 -25 25 -25 25 -18 3z"/>
<path d="M390 705 c0 -3 2 -5 5 -5 3 0 5 2 5 5 0 3 -2 5 -5 5 -3 0 -5 -2 -5
-5z"/>
<path d="M426 690 c7 -28 23 -42 37 -33 5 3 2 10 -6 15 -9 5 -21 16 -27 26 -9
14 -10 12 -4 -8z"/>
<path d="M485 689 c2 -10 6 -23 10 -28 3 -5 -4 -13 -15 -16 -17 -5 -19 -10 -9
-21 16 -20 24 -18 35 9 12 28 7 64 -11 71 -9 3 -12 -1 -10 -15z"/>
<path d="M600 705 c0 -3 2 -5 5 -5 3 0 5 2 5 5 0 3 -2 5 -5 5 -3 0 -5 -2 -5
-5z"/>
<path d="M920 705 c0 -3 2 -5 5 -5 3 0 5 2 5 5 0 3 -2 5 -5 5 -3 0 -5 -2 -5
-5z"/>
<path d="M884 668 l-19 -23 23 19 c21 18 27 26 19 26 -2 0 -12 -10 -23 -22z"/>
<path d="M225 656 c-22 -18 -33 -21 -43 -14 -9 8 -16 8 -25 -1 -9 -9 -9 -14 3
-21 9 -5 17 -5 20 1 4 5 14 3 25 -4 10 -8 15 -19 11 -26 -6 -8 -12 -9 -20 -2
-7 6 -22 12 -34 14 -12 2 -25 7 -29 12 -5 4 -2 5 6 0 10 -5 12 -4 7 4 -11 17
-25 4 -21 -19 3 -13 -1 -17 -11 -13 -9 3 -14 -1 -14 -13 0 -17 -1 -16 -15 2
-9 10 -14 13 -13 5 2 -7 -3 -16 -9 -18 -10 -3 -11 1 -4 19 5 13 13 22 18 21 5
-1 9 7 9 18 0 14 -7 19 -26 19 -16 0 -20 -3 -13 -8 9 -6 10 -17 2 -45 -5 -21
-14 -35 -19 -32 -6 3 -7 -1 -4 -10 4 -9 -2 -25 -12 -36 -16 -18 -17 -21 -1
-54 13 -27 22 -34 42 -33 14 1 25 8 25 15 0 24 1 28 14 43 21 24 31 44 18 36
-17 -11 -23 11 -6 25 8 7 14 8 13 3 -4 -21 2 -26 16 -14 11 9 15 9 15 1 0 -6
-7 -14 -15 -17 -8 -4 -15 -14 -15 -23 0 -9 -6 -25 -13 -36 -7 -11 -12 -27 -11
-35 1 -8 2 -25 3 -37 1 -23 25 -53 43 -53 6 0 8 11 6 25 -4 18 -1 25 10 25 8
0 12 -3 9 -6 -3 -4 -2 -15 4 -25 8 -16 6 -21 -11 -27 -21 -8 -21 -9 -4 -23 10
-8 19 -10 21 -4 14 39 32 60 53 63 24 3 23 2 -8 -24 -31 -24 -32 -27 -15 -40
17 -13 17 -15 1 -28 -19 -14 -25 -32 -9 -21 11 6 6 -34 -5 -44 -4 -3 -4 2 -1
11 3 10 1 20 -4 24 -6 3 -8 17 -5 30 5 18 3 22 -9 18 -8 -4 -15 -11 -15 -18 0
-6 -4 -5 -9 4 -6 8 -7 19 -4 25 4 5 -3 2 -14 -8 -11 -9 -23 -14 -27 -10 -4 4
-4 0 0 -10 6 -17 7 -17 21 0 13 16 13 16 3 -4 -10 -22 -40 -22 -40 -1 0 6 -7
8 -15 4 -8 -3 -15 -1 -15 5 0 5 6 12 13 15 24 9 15 34 -12 34 -17 0 -22 -3
-14 -11 11 -11 6 -56 -8 -65 -5 -3 -9 -12 -9 -21 0 -9 -8 -25 -17 -35 -15 -17
-15 -21 0 -53 13 -27 22 -34 41 -33 14 1 24 5 24 8 0 3 1 7 2 10 7 16 6 60 -2
60 -4 0 -8 7 -8 15 0 8 -3 14 -8 13 -19 -7 -16 38 4 46 12 5 14 1 9 -15 -5
-14 -3 -19 3 -15 6 3 12 1 14 -6 5 -14 48 -21 48 -7 0 5 5 7 11 3 8 -4 3 -11
-12 -20 -13 -7 -27 -10 -30 -8 -4 2 -9 -3 -13 -11 -3 -8 -2 -14 2 -14 19 3 22
-3 10 -23 -17 -32 -17 -58 -1 -58 8 0 12 4 9 9 -3 5 2 12 12 16 27 12 42 14
42 5 0 -10 -31 -36 -39 -32 -6 2 -6 -4 -2 -28 0 -5 6 -10 12 -10 6 0 9 6 6 14
-9 23 13 37 31 20 14 -14 16 -13 28 14 6 16 18 33 26 38 9 6 8 0 -4 -17 -25
-40 -28 -90 -3 -69 8 7 21 10 29 7 10 -4 13 -1 10 7 -3 8 -1 17 5 21 6 3 11
13 11 21 0 13 39 59 44 52 2 -2 8 -13 15 -25 15 -30 68 -30 66 1 -1 12 3 24 9
29 7 5 5 12 -6 21 -10 7 -18 18 -18 25 0 15 -9 14 -43 -4 -25 -13 -32 -13 -49
-1 -12 9 -15 16 -9 21 18 10 13 43 -9 58 -11 8 -17 17 -12 22 4 5 2 5 -5 2 -6
-4 -19 0 -27 9 -15 14 -14 17 4 32 19 16 19 19 4 47 -9 17 -10 25 -3 18 18
-17 29 -16 29 3 0 8 -4 12 -10 9 -5 -3 -10 -1 -10 6 0 7 -9 9 -22 6 -22 -6
-22 -5 -4 8 13 10 24 11 37 4 14 -7 23 -5 40 12 11 11 22 19 23 17 2 -1 9 -13
15 -25 8 -15 20 -22 36 -21 13 1 23 5 23 8 0 3 1 7 2 10 7 16 6 60 -2 60 -4 0
-8 6 -8 14 0 17 -34 14 -56 -4 -10 -9 -18 -8 -34 3 -14 9 -17 17 -11 22 18 10
13 43 -9 58 -11 8 -17 17 -12 22 4 5 2 5 -5 2 -6 -4 -19 0 -27 9 -15 14 -14
17 6 34 34 28 18 24 -17 -4z m15 -51 c0 -3 -2 -5 -5 -5 -3 0 -5 2 -5 5 0 3 2
5 5 5 3 0 5 -2 5 -5z m-87 -32 c-4 -11 -3 -14 6 -9 6 4 11 4 10 -1 -4 -22 3
-24 23 -7 12 10 18 13 14 7 -4 -8 -1 -13 8 -13 9 0 16 -3 17 -7 0 -5 3 -19 5
-33 4 -24 4 -24 -10 -5 -8 11 -12 23 -10 27 3 5 0 8 -5 8 -6 0 -11 -6 -11 -12
0 -9 -4 -8 -10 2 -5 8 -10 11 -10 6 0 -5 -8 -2 -18 7 -10 10 -22 14 -27 10 -4
-5 -2 2 4 15 14 26 23 30 14 5z m37 2 c0 -3 -2 -5 -5 -5 -3 0 -5 2 -5 5 0 3 2
5 5 5 3 0 5 -2 5 -5z m-70 -10 c0 -3 -2 -5 -5 -5 -3 0 -5 2 -5 5 0 3 2 5 5 5
3 0 5 -2 5 -5z m-46 -21 c9 -3 14 -10 11 -14 -3 -5 -1 -11 5 -15 16 -10 12
-25 -5 -19 -8 4 -15 12 -15 20 0 7 -6 11 -13 8 -8 -3 -14 2 -14 11 0 16 7 18
31 9z m156 -79 c0 -3 -2 -5 -5 -5 -3 0 -5 2 -5 5 0 3 2 5 5 5 3 0 5 -2 5 -5z
m-23 -12 c-4 -3 -10 -3 -14 0 -3 4 0 7 7 7 7 0 10 -3 7 -7z m-44 -24 c-26 -9
-37 -26 -18 -26 8 0 11 5 7 11 -3 6 8 0 25 -14 17 -14 28 -29 25 -34 -3 -5
-10 -2 -17 7 -16 22 -69 32 -61 11 3 -8 2 -12 -3 -9 -12 6 -10 45 1 45 4 0 8
6 8 14 0 9 8 12 27 8 25 -5 26 -6 6 -13z m27 -14 c0 -3 -2 -5 -5 -5 -3 0 -5 2
-5 5 0 3 2 5 5 5 3 0 5 -2 5 -5z m30 -9 c0 -3 -4 -8 -10 -11 -5 -3 -10 -1 -10
4 0 6 5 11 10 11 6 0 10 -2 10 -4z m-80 -51 c0 -3 -2 -5 -5 -5 -3 0 -5 2 -5 5
0 3 2 5 5 5 3 0 5 -2 5 -5z m100 -70 c0 -3 -2 -5 -5 -5 -3 0 -5 2 -5 5 0 3 2
5 5 5 3 0 5 -2 5 -5z m-75 -43 c-3 -3 1 -12 7 -21 10 -12 8 -12 -8 1 -16 14
-23 15 -34 5 -12 -10 -12 -9 -2 4 6 9 19 16 27 16 8 0 13 -3 10 -5z m65 -17
c0 -3 -2 -5 -5 -5 -3 0 -5 2 -5 5 0 3 2 5 5 5 3 0 5 -2 5 -5z m10 -19 c0 -11
-19 -15 -25 -6 -3 5 1 10 9 10 9 0 16 -2 16 -4z m1 -29 c-6 -8 -7 -18 -3 -22
4 -5 1 -5 -6 -1 -10 6 -10 11 -1 22 6 8 14 14 16 14 3 0 0 -6 -6 -13z m-34
-44 c-4 -3 -7 0 -7 7 0 7 3 10 7 7 3 -4 3 -10 0 -14z m-77 2 c0 -3 -2 -5 -5
-5 -3 0 -5 2 -5 5 0 3 2 5 5 5 3 0 5 -2 5 -5z m133 -36 c-4 -15 -8 -17 -14 -8
-8 14 -3 29 11 29 4 0 6 -9 3 -21z m-13 -34 c0 -3 -2 -5 -5 -5 -3 0 -5 2 -5 5
0 3 2 5 5 5 3 0 5 -2 5 -5z"/>
<path d="M190 545 c0 -3 2 -5 5 -5 3 0 5 2 5 5 0 3 -2 5 -5 5 -3 0 -5 -2 -5
-5z"/>
<path d="M220 525 c0 -3 2 -5 5 -5 3 0 5 2 5 5 0 3 -2 5 -5 5 -3 0 -5 -2 -5
-5z"/>
<path d="M545 658 c-30 -17 -35 -30 -17 -45 16 -12 16 -14 0 -27 -19 -14 -25
-32 -9 -21 11 6 6 -34 -5 -44 -4 -3 -4 2 -1 11 3 10 1 20 -4 24 -6 3 -8 17 -4
31 4 16 2 22 -5 18 -18 -11 -51 -14 -45 -4 4 5 11 6 17 3 7 -5 8 -2 4 5 -6 9
-12 9 -25 -3 -10 -9 -21 -13 -26 -9 -4 5 -6 3 -2 -2 3 -6 2 -17 -4 -25 -7 -13
-9 -12 -9 3 0 9 -4 17 -10 17 -6 0 -9 -6 -8 -12 2 -7 -4 -12 -13 -10 -21 3
-44 -23 -29 -33 5 -3 10 -1 10 4 0 6 11 10 25 9 16 -2 24 -7 21 -15 -3 -7 -1
-15 5 -19 6 -3 8 -12 5 -20 -3 -8 1 -14 10 -14 12 0 13 -4 2 -22 -17 -32 -17
-58 -1 -58 8 0 12 4 9 9 -3 5 2 12 12 16 27 12 42 14 42 5 0 -10 -31 -36 -39
-32 -6 2 -6 -4 -2 -28 0 -5 6 -10 12 -10 6 0 9 6 6 14 -9 23 13 37 31 20 14
-14 16 -13 28 14 6 16 18 33 26 38 9 6 8 0 -4 -17 -25 -40 -28 -90 -3 -69 8 7
21 10 29 7 10 -4 13 -1 10 7 -3 8 -1 17 5 21 6 3 11 13 11 21 0 13 39 59 44
52 2 -1 8 -13 15 -25 15 -30 68 -30 66 1 -1 12 3 24 9 29 7 5 5 12 -6 21 -10
7 -18 19 -18 25 0 13 -35 6 -57 -11 -8 -7 -19 -5 -33 5 -14 9 -17 17 -11 22
18 10 13 43 -9 58 -11 8 -17 17 -12 22 4 5 2 5 -5 2 -6 -4 -19 0 -28 9 -15 15
-14 17 2 30 22 16 15 18 -12 2z m15 -53 c0 -3 -2 -5 -5 -5 -3 0 -5 2 -5 5 0 3
2 5 5 5 3 0 5 -2 5 -5z m-77 -38 c7 3 9 3 5 -2 -4 -4 -2 -15 4 -24 8 -10 4 -9
-10 3 -12 11 -22 24 -21 30 0 6 3 6 6 -2 2 -6 10 -9 16 -5z m-43 -2 c0 -3 -2
-5 -5 -5 -3 0 -5 2 -5 5 0 3 2 5 5 5 3 0 5 -2 5 -5z m10 -20 c0 -3 -2 -5 -5
-5 -3 0 -5 2 -5 5 0 3 2 5 5 5 3 0 5 -2 5 -5z m100 0 c0 -3 -2 -5 -5 -5 -3 0
-5 2 -5 5 0 3 2 5 5 5 3 0 5 -2 5 -5z m-95 -15 c3 6 11 7 17 4 23 -14 -20 -25
-60 -15 -2 1 0 6 3 11 5 8 11 8 20 0 9 -8 15 -8 20 0z m105 -4 c0 -11 -19 -15
-25 -6 -3 5 1 10 9 10 9 0 16 -2 16 -4z m1 -29 c-6 -8 -7 -18 -3 -22 4 -5 1
-5 -6 -1 -10 6 -10 11 -1 22 6 8 14 14 16 14 3 0 0 -6 -6 -13z m-121 -2 c0 -3
-2 -5 -5 -5 -3 0 -5 2 -5 5 0 3 2 5 5 5 3 0 5 -2 5 -5z m87 -42 c-4 -3 -7 0
-7 7 0 7 3 10 7 7 3 -4 3 -10 0 -14z m-77 2 c0 -3 -2 -5 -5 -5 -3 0 -5 2 -5 5
0 3 2 5 5 5 3 0 5 -2 5 -5z m133 -36 c-4 -15 -8 -17 -14 -8 -8 14 -3 29 11 29
4 0 6 -9 3 -21z m-13 -34 c0 -3 -2 -5 -5 -5 -3 0 -5 2 -5 5 0 3 2 5 5 5 3 0 5
-2 5 -5z"/>
<path d="M845 651 c4 -8 2 -17 -6 -22 -10 -6 -10 -9 -2 -9 7 0 10 -7 6 -17 -3
-12 1 -9 12 5 17 23 17 25 0 40 -10 10 -15 11 -10 3z"/>
<path d="M270 635 c0 -3 2 -5 5 -5 3 0 5 2 5 5 0 3 -2 5 -5 5 -3 0 -5 -2 -5
-5z"/>
<path d="M367 628 c4 -7 6 -20 5 -30 -2 -9 2 -19 7 -23 7 -3 8 0 5 9 -3 9 0
18 8 21 24 9 17 35 -9 35 -17 0 -22 -4 -16 -12z"/>
<path d="M590 635 c0 -3 2 -5 5 -5 3 0 5 2 5 5 0 3 -2 5 -5 5 -3 0 -5 -2 -5
-5z"/>
<path d="M910 635 c0 -3 2 -5 5 -5 3 0 5 2 5 5 0 3 -2 5 -5 5 -3 0 -5 -2 -5
-5z"/>
<path d="M200 600 c0 -7 3 -10 7 -7 3 4 3 10 0 14 -4 3 -7 0 -7 -7z"/>
<path d="M520 600 c0 -7 3 -10 7 -7 3 4 3 10 0 14 -4 3 -7 0 -7 -7z"/>
<path d="M820 605 c0 -3 2 -5 5 -5 3 0 5 2 5 5 0 3 -2 5 -5 5 -3 0 -5 -2 -5
-5z"/>
<path d="M830 570 c0 -7 3 -10 7 -7 3 4 3 10 0 14 -4 3 -7 0 -7 -7z"/>
<path d="M726 531 c-4 -5 -2 -12 3 -15 5 -4 12 -2 15 3 4 5 2 12 -3 15 -5 4
-12 2 -15 -3z m14 -6 c0 -3 -2 -5 -5 -5 -3 0 -5 2 -5 5 0 3 2 5 5 5 3 0 5 -2
5 -5z"/>
<path d="M90 465 c0 -3 2 -5 5 -5 3 0 5 2 5 5 0 3 -2 5 -5 5 -3 0 -5 -2 -5 -5z"/>
<path d="M410 465 c0 -3 2 -5 5 -5 3 0 5 2 5 5 0 3 -2 5 -5 5 -3 0 -5 -2 -5
-5z"/>
<path d="M63 393 c4 -3 10 -3 14 0 3 4 0 7 -7 7 -7 0 -10 -3 -7 -7z"/>
<path d="M700 395 c0 -3 2 -5 5 -5 3 0 5 2 5 5 0 3 -2 5 -5 5 -3 0 -5 -2 -5
-5z"/>
<path d="M280 385 c0 -3 2 -5 5 -5 3 0 5 2 5 5 0 3 -2 5 -5 5 -3 0 -5 -2 -5
-5z"/>
<path d="M390 385 c0 -3 2 -5 5 -5 3 0 5 2 5 5 0 3 -2 5 -5 5 -3 0 -5 -2 -5
-5z"/>
<path d="M426 370 c7 -28 23 -42 37 -33 5 3 2 10 -6 15 -9 5 -21 16 -27 26 -9
14 -10 12 -4 -8z"/>
<path d="M485 369 c2 -10 7 -24 10 -29 3 -6 2 -10 -2 -10 -5 0 -17 -6 -28 -13
-14 -11 -15 -16 -5 -22 9 -6 11 -4 5 5 -5 9 -4 11 4 6 9 -6 9 -11 0 -22 -14
-17 -23 -18 -13 -1 4 6 -4 2 -18 -11 -17 -15 -28 -20 -33 -13 -3 6 -11 8 -17
5 -6 -4 -8 -1 -6 7 3 8 10 13 16 12 7 -2 9 4 5 14 -5 12 -3 14 7 8 9 -5 11 -4
6 3 -4 7 -19 12 -34 12 -19 0 -23 -3 -15 -11 6 -6 9 -18 6 -25 -3 -8 1 -22 8
-31 12 -14 12 -16 -1 -11 -18 7 -45 -18 -30 -27 6 -3 10 -1 10 4 0 17 56 13
70 -4 8 -10 17 -12 24 -6 7 6 17 6 26 1 13 -9 13 -10 0 -11 -8 -1 -25 -3 -37
-4 -13 -1 -20 2 -16 8 4 6 1 7 -7 2 -9 -6 -11 -4 -5 5 5 9 4 11 -4 6 -8 -5 -6
-15 8 -35 18 -24 18 -31 7 -47 -9 -12 -11 -25 -5 -35 4 -9 6 -19 2 -22 -8 -8
17 -67 29 -67 16 0 21 30 7 47 -8 10 -9 14 -2 10 6 -4 14 -3 18 3 3 5 1 10 -5
10 -6 0 -8 5 -5 11 5 7 14 3 26 -10 23 -25 33 -27 25 -6 -3 9 0 15 9 15 12 0
12 -5 4 -26 -10 -29 -3 -47 10 -25 5 7 11 12 15 12 20 -3 26 2 32 24 3 14 10
25 15 25 5 0 15 11 21 25 14 31 22 31 36 0 8 -18 18 -24 36 -23 14 1 24 5 24
8 0 3 1 7 2 10 7 16 6 60 -2 60 -4 0 -8 6 -8 14 0 17 -34 14 -56 -4 -10 -9
-18 -8 -34 3 -14 9 -17 17 -11 22 18 10 13 43 -9 58 -11 8 -18 16 -15 18 2 3
-5 5 -16 6 -14 1 -25 -8 -34 -30 -12 -30 -12 -33 8 -41 14 -5 17 -10 9 -13
-10 -4 -10 -8 0 -21 12 -14 11 -14 -9 -2 -12 8 -21 19 -20 24 1 6 -3 10 -10 9
-6 -1 -10 8 -8 23 1 13 -2 27 -6 30 -5 3 -3 17 4 32 15 32 11 68 -8 76 -9 3
-12 -1 -10 -15z m-44 -122 c-10 -9 -11 -8 -5 6 3 10 9 15 12 12 3 -3 0 -11 -7
-18z m32 6 c-4 -10 -2 -14 4 -10 5 3 10 -1 10 -9 0 -10 -4 -11 -10 -5 -7 7
-15 7 -26 -2 -10 -8 -9 -4 3 16 21 31 28 35 19 10z m-33 -78 c0 -3 -2 -5 -5
-5 -3 0 -5 2 -5 5 0 3 2 5 5 5 3 0 5 -2 5 -5z m110 -10 c0 -3 -2 -5 -5 -5 -3
0 -5 2 -5 5 0 3 2 5 5 5 3 0 5 -2 5 -5z m-60 -58 c0 -5 -4 -6 -9 -3 -4 3 -17
-4 -27 -15 -16 -17 -16 -23 -5 -42 12 -20 12 -21 -3 -6 -18 17 -13 69 6 69 6
0 6 6 -2 14 -10 13 -8 13 14 3 14 -7 26 -16 26 -20z m93 10 c10 9 8 -10 -2
-25 -6 -10 -10 -8 -15 10 -4 14 -9 18 -13 11 -2 -7 -9 -13 -14 -13 -5 0 -4 9
3 20 11 18 14 18 24 5 6 -8 14 -12 17 -8z m27 -2 c0 -3 -2 -5 -5 -5 -3 0 -5 2
-5 5 0 3 2 5 5 5 3 0 5 -2 5 -5z m-40 -50 c0 -3 -2 -5 -5 -5 -3 0 -5 2 -5 5 0
3 2 5 5 5 3 0 5 -2 5 -5z"/>
<path d="M600 385 c0 -3 2 -5 5 -5 3 0 5 2 5 5 0 3 -2 5 -5 5 -3 0 -5 -2 -5
-5z"/>
<path d="M804 355 c6 -29 4 -35 -11 -35 -16 0 -16 -1 0 -17 16 -16 19 -16 27
-3 16 25 12 77 -6 84 -14 5 -15 1 -10 -29z m16 10 c0 -3 -2 -5 -5 -5 -3 0 -5
2 -5 5 0 3 2 5 5 5 3 0 5 -2 5 -5z"/>
<path d="M920 385 c0 -3 2 -5 5 -5 3 0 5 2 5 5 0 3 -2 5 -5 5 -3 0 -5 -2 -5
-5z"/>
<path d="M879 343 c-13 -16 -12 -17 4 -4 16 13 21 21 13 21 -2 0 -10 -8 -17
-17z"/>
<path d="M540 335 c-14 -8 -20 -15 -15 -15 6 0 3 -5 -5 -10 -9 -6 -11 -10 -3
-10 7 0 10 -7 6 -17 -3 -12 1 -10 12 5 9 13 14 26 11 29 -3 3 2 12 12 19 22
18 13 17 -18 -1z"/>
<path d="M837 318 c-2 -7 3 -19 12 -25 15 -12 14 -14 -1 -27 -19 -14 -25 -32
-9 -21 11 6 6 -34 -5 -44 -4 -3 -4 2 -1 11 3 10 1 20 -4 24 -6 3 -8 17 -4 31
4 16 2 22 -5 18 -6 -4 -17 -2 -24 4 -10 8 -17 7 -26 -4 -7 -8 -16 -12 -21 -9
-5 3 -6 -2 -3 -11 6 -14 8 -14 21 2 13 16 13 16 3 -4 -10 -23 -40 -22 -40 1 0
6 -5 3 -11 -6 -5 -9 -15 -15 -23 -12 -17 6 -41 -22 -26 -31 5 -3 10 -1 10 4 0
6 11 10 24 9 14 -1 22 -6 19 -11 -2 -4 1 -14 7 -22 6 -8 9 -19 5 -25 -4 -6 -3
-10 2 -9 20 3 23 -3 11 -23 -17 -32 -17 -58 -1 -58 8 0 12 4 9 9 -3 5 2 12 12
16 27 12 42 14 42 5 0 -10 -22 -28 -35 -29 -9 -1 -10 -6 -6 -31 0 -5 6 -10 12
-10 6 0 9 6 6 14 -9 23 13 37 31 20 14 -14 16 -13 28 14 6 16 18 33 26 38 9 6
8 0 -4 -17 -25 -40 -28 -90 -3 -69 8 7 21 10 29 7 10 -4 13 -1 10 7 -3 8 -1
17 5 21 6 3 11 13 11 21 0 8 9 23 20 34 26 26 25 45 -1 63 -13 9 -16 17 -10
22 18 10 13 43 -9 58 -11 8 -17 17 -12 22 4 5 1 5 -5 1 -7 -4 -20 2 -30 14
-20 23 -30 25 -36 8z m-39 -53 c-3 -3 -9 2 -12 12 -6 14 -5 15 5 6 7 -7 10
-15 7 -18z m82 20 c0 -3 -2 -5 -5 -5 -3 0 -5 2 -5 5 0 3 2 5 5 5 3 0 5 -2 5
-5z m-75 -43 c-3 -3 1 -12 7 -21 10 -12 8 -12 -8 1 -16 14 -23 15 -34 5 -12
-10 -12 -9 -2 4 6 9 19 16 27 16 8 0 13 -3 10 -5z m65 -17 c0 -3 -2 -5 -5 -5
-3 0 -5 2 -5 5 0 3 2 5 5 5 3 0 5 -2 5 -5z m-90 -16 c4 8 10 9 13 4 4 -6 -4
-15 -18 -21 -18 -8 -26 -8 -34 2 -15 17 -1 29 16 14 11 -9 16 -9 23 1z m100
-3 c0 -11 -19 -15 -25 -6 -3 5 1 10 9 10 9 0 16 -2 16 -4z m1 -29 c-6 -8 -7
-18 -3 -22 4 -5 1 -5 -6 -1 -10 6 -10 11 -1 22 6 8 14 14 16 14 3 0 0 -6 -6
-13z m-34 -44 c-4 -3 -7 0 -7 7 0 7 3 10 7 7 3 -4 3 -10 0 -14z m-77 2 c0 -3
-2 -5 -5 -5 -3 0 -5 2 -5 5 0 3 2 5 5 5 3 0 5 -2 5 -5z m133 -36 c-4 -15 -8
-17 -14 -8 -8 14 -3 29 11 29 4 0 6 -9 3 -21z m-13 -34 c0 -3 -2 -5 -5 -5 -3
0 -5 2 -5 5 0 3 2 5 5 5 3 0 5 -2 5 -5z"/>
<path d="M750 195 c0 -3 2 -5 5 -5 3 0 5 2 5 5 0 3 -2 5 -5 5 -3 0 -5 -2 -5
-5z"/>
<path d="M270 315 c0 -3 2 -5 5 -5 3 0 5 2 5 5 0 3 -2 5 -5 5 -3 0 -5 -2 -5
-5z"/>
<path d="M590 315 c0 -3 2 -5 5 -5 3 0 5 2 5 5 0 3 -2 5 -5 5 -3 0 -5 -2 -5
-5z"/>
<path d="M687 313 c8 -3 11 -14 7 -28 -3 -12 -1 -26 5 -29 7 -4 8 -1 5 8 -3 9
0 18 8 21 25 10 17 35 -11 34 -14 0 -20 -3 -14 -6z"/>
<path d="M910 315 c0 -3 2 -5 5 -5 3 0 5 2 5 5 0 3 -2 5 -5 5 -3 0 -5 -2 -5
-5z"/>
<path d="M150 285 c0 -3 2 -5 5 -5 3 0 5 2 5 5 0 3 -2 5 -5 5 -3 0 -5 -2 -5
-5z"/>
<path d="M200 280 c0 -7 3 -10 7 -7 3 4 3 10 0 14 -4 3 -7 0 -7 -7z"/>
<path d="M500 285 c0 -3 2 -5 5 -5 3 0 5 2 5 5 0 3 -2 5 -5 5 -3 0 -5 -2 -5
-5z"/>
<path d="M840 280 c0 -7 3 -10 7 -7 3 4 3 10 0 14 -4 3 -7 0 -7 -7z"/>
<path d="M510 250 c0 -7 3 -10 7 -7 3 4 3 10 0 14 -4 3 -7 0 -7 -7z"/>
<path d="M50 215 c0 -3 2 -5 5 -5 3 0 5 2 5 5 0 3 -2 5 -5 5 -3 0 -5 -2 -5 -5z"/>
<path d="M85 200 c3 -5 8 -10 11 -10 3 0 2 5 -1 10 -3 6 -8 10 -11 10 -3 0 -2
-4 1 -10z"/>
<path d="M110 195 c0 -3 2 -5 5 -5 3 0 5 2 5 5 0 3 -2 5 -5 5 -3 0 -5 -2 -5
-5z"/>
<path d="M90 145 c0 -3 2 -5 5 -5 3 0 5 2 5 5 0 3 -2 5 -5 5 -3 0 -5 -2 -5 -5z"/>
<path d="M730 145 c0 -3 2 -5 5 -5 3 0 5 2 5 5 0 3 -2 5 -5 5 -3 0 -5 -2 -5
-5z"/>
<path d="M380 75 c0 -3 2 -5 5 -5 3 0 5 2 5 5 0 3 -2 5 -5 5 -3 0 -5 -2 -5 -5z"/>
<path d="M70 65 c0 -3 2 -5 5 -5 3 0 5 2 5 5 0 3 -2 5 -5 5 -3 0 -5 -2 -5 -5z"/>
<path d="M106 50 c7 -28 23 -42 37 -33 5 3 2 10 -6 15 -9 5 -21 16 -27 26 -9
14 -10 12 -4 -8z"/>
<path d="M165 49 c2 -10 6 -23 9 -28 4 -5 0 -12 -6 -15 -7 -3 4 -4 25 -2 21 2
44 9 50 16 10 10 7 10 -11 1 -26 -14 -42 -7 -42 19 0 10 -6 20 -14 23 -10 4
-14 0 -11 -14z"/>
<path d="M280 65 c0 -3 2 -5 5 -5 3 0 5 2 5 5 0 3 -2 5 -5 5 -3 0 -5 -2 -5 -5z"/>
<path d="M480 57 c0 -24 13 -57 21 -57 15 0 10 58 -6 64 -8 3 -15 0 -15 -7z
m20 -12 c0 -3 -2 -5 -5 -5 -3 0 -5 2 -5 5 0 3 2 5 5 5 3 0 5 -2 5 -5z"/>
<path d="M600 65 c0 -3 2 -5 5 -5 3 0 5 2 5 5 0 3 -2 5 -5 5 -3 0 -5 -2 -5 -5z"/>
<path d="M710 65 c0 -3 2 -5 5 -5 3 0 5 2 5 5 0 3 -2 5 -5 5 -3 0 -5 -2 -5 -5z"/>
<path d="M746 50 c7 -28 23 -42 37 -33 5 3 2 10 -6 15 -9 5 -21 16 -27 26 -9
14 -10 12 -4 -8z"/>
<path d="M805 49 c2 -10 6 -23 9 -28 4 -5 0 -12 -6 -15 -7 -3 4 -4 25 -2 21 2
44 9 50 16 10 10 7 10 -11 1 -26 -14 -42 -7 -42 19 0 10 -6 20 -14 23 -10 4
-14 0 -11 -14z"/>
<path d="M920 65 c0 -3 2 -5 5 -5 3 0 5 2 5 5 0 3 -2 5 -5 5 -3 0 -5 -2 -5 -5z"/>
<path d="M559 23 c-13 -16 -12 -17 4 -4 16 13 21 21 13 21 -2 0 -10 -8 -17
-17z"/>
<path d="M523 3 c4 -3 10 -3 14 0 3 4 0 7 -7 7 -7 0 -10 -3 -7 -7z"/>
</g>
<g transform="translate(0.000000,96.000000) scale(0.100000,-0.100000)"
fill="#9f0307" stroke="none">
<path d="M47 953 c14 -5 8 -50 -8 -67 -5 -6 -9 -17 -9 -25 0 -8 -8 -23 -17
-33 -15 -17 -15 -21 0 -53 13 -26 22 -34 40 -33 19 2 24 8 26 39 1 28 -3 41
-19 52 -18 12 -19 18 -10 43 19 51 33 73 43 67 6 -3 7 -1 3 5 -4 7 -19 12 -34
11 -15 0 -21 -3 -15 -6z"/>
<path d="M128 922 c-33 -41 -34 -55 -10 -73 14 -11 15 -11 5 1 -19 21 -16 35
13 70 15 17 25 32 23 34 -2 2 -16 -12 -31 -32z"/>
<path d="M193 953 c4 -3 10 -3 14 0 3 4 0 7 -7 7 -7 0 -10 -3 -7 -7z"/>
<path d="M367 953 c8 -3 11 -14 7 -30 -7 -26 -7 -26 13 -7 27 27 24 44 -6 43
-14 0 -20 -3 -14 -6z"/>
<path d="M448 923 c-32 -42 -34 -55 -11 -74 15 -13 15 -12 3 7 -11 19 -10 25
9 53 12 17 27 29 32 26 5 -4 6 1 3 9 -3 9 -7 16 -8 16 0 -1 -13 -17 -28 -37z"/>
<path d="M500 955 c0 -3 2 -5 5 -5 3 0 5 2 5 5 0 3 -2 5 -5 5 -3 0 -5 -2 -5
-5z"/>
<path d="M590 955 c0 -3 2 -5 5 -5 3 0 5 2 5 5 0 3 -2 5 -5 5 -3 0 -5 -2 -5
-5z"/>
<path d="M687 948 c4 -7 6 -22 5 -33 -2 -18 -2 -19 8 -2 6 9 15 15 21 12 5 -4
6 2 2 11 -5 13 -3 15 7 9 9 -5 11 -4 6 3 -4 7 -18 12 -32 12 -18 0 -23 -4 -17
-12z"/>
<path d="M768 922 c-33 -41 -34 -55 -10 -73 14 -11 15 -11 5 1 -19 21 -16 35
13 70 15 17 25 32 23 34 -2 2 -16 -12 -31 -32z"/>
<path d="M820 955 c0 -3 2 -5 5 -5 3 0 5 2 5 5 0 3 -2 5 -5 5 -3 0 -5 -2 -5
-5z"/>
<path d="M910 955 c0 -3 2 -5 5 -5 3 0 5 2 5 5 0 3 -2 5 -5 5 -3 0 -5 -2 -5
-5z"/>
<path d="M236 915 c-27 -25 -34 -45 -15 -45 6 0 8 -7 5 -16 -3 -8 -2 -12 4 -9
6 3 10 1 10 -5 0 -6 5 -8 12 -4 7 4 3 -6 -9 -22 -19 -26 -19 -30 -5 -43 22
-21 61 -20 68 1 8 25 19 22 32 -7 8 -17 19 -24 35 -23 21 2 24 7 23 41 -1 48
-25 69 -56 49 -17 -10 -24 -10 -41 2 -13 9 -16 16 -10 21 18 10 13 43 -9 58
-11 8 -17 17 -13 20 18 19 -8 4 -31 -18z"/>
<path d="M557 916 c-14 -13 -27 -22 -29 -21 -2 2 -3 -7 -3 -20 0 -19 3 -21 14
-12 8 7 12 8 9 2 -7 -11 17 -37 26 -28 3 3 0 -6 -7 -21 -7 -14 -18 -26 -24
-26 -9 0 -7 -6 5 -18 20 -20 70 -18 79 4 8 21 18 17 31 -11 8 -18 18 -24 37
-23 22 2 25 7 25 38 0 19 -6 43 -14 52 -11 15 -15 15 -40 3 -24 -13 -31 -13
-48 -1 -12 9 -15 16 -9 21 18 10 13 43 -9 58 -11 8 -17 17 -13 20 18 19 -8 4
-30 -17z"/>
<path d="M815 930 c3 -5 8 -10 11 -10 3 0 2 5 -1 10 -3 6 -8 10 -11 10 -3 0
-2 -4 1 -10z"/>
<path d="M876 915 c-30 -27 -33 -40 -11 -49 21 -8 19 -62 -2 -75 -17 -10 -17
-10 0 -11 9 0 17 -4 17 -10 0 -5 14 -10 30 -10 23 0 33 6 42 26 11 23 10 29
-10 44 -13 11 -18 21 -12 25 17 10 11 43 -10 58 -11 8 -17 17 -13 20 18 19 -8
4 -31 -18z m24 -80 c0 -3 -2 -5 -5 -5 -3 0 -5 2 -5 5 0 3 2 5 5 5 3 0 5 -2 5
-5z"/>
<path d="M180 925 c0 -3 2 -5 5 -5 3 0 5 2 5 5 0 3 -2 5 -5 5 -3 0 -5 -2 -5
-5z"/>
<path d="M500 925 c0 -3 2 -5 5 -5 3 0 5 2 5 5 0 3 -2 5 -5 5 -3 0 -5 -2 -5
-5z"/>
<path d="M190 905 c0 -3 2 -5 5 -5 3 0 5 2 5 5 0 3 -2 5 -5 5 -3 0 -5 -2 -5
-5z"/>
<path d="M70 895 c0 -3 2 -5 5 -5 3 0 5 2 5 5 0 3 -2 5 -5 5 -3 0 -5 -2 -5 -5z"/>
<path d="M710 895 c0 -3 2 -5 5 -5 3 0 5 2 5 5 0 3 -2 5 -5 5 -3 0 -5 -2 -5
-5z"/>
<path d="M351 877 c-15 -19 -2 -29 15 -12 8 7 14 16 14 19 0 11 -17 6 -29 -7z"/>
<path d="M673 874 c-7 -7 -9 -15 -5 -17 4 -3 13 1 19 9 7 7 9 15 5 17 -4 3
-13 -1 -19 -9z"/>
<path d="M200 855 c0 -3 2 -5 5 -5 3 0 5 2 5 5 0 3 -2 5 -5 5 -3 0 -5 -2 -5
-5z"/>
<path d="M835 851 c-6 -5 -21 -11 -34 -13 -53 -7 -52 -70 1 -76 32 -4 66 41
48 63 -7 8 -9 19 -5 25 8 12 2 13 -10 1z"/>
<path d="M860 845 c0 -3 2 -5 5 -5 3 0 5 2 5 5 0 3 -2 5 -5 5 -3 0 -5 -2 -5
-5z"/>
<path d="M132 828 c-27 -27 -6 -68 35 -68 31 0 60 44 43 65 -15 18 -61 20 -78
3z"/>
<path d="M452 828 c-26 -26 3 -80 38 -71 29 8 54 51 39 69 -14 17 -61 18 -77
2z"/>
<path d="M100 745 c0 -3 2 -5 5 -5 3 0 5 2 5 5 0 3 -2 5 -5 5 -3 0 -5 -2 -5
-5z"/>
<path d="M150 745 c0 -3 2 -5 5 -5 3 0 5 2 5 5 0 3 -2 5 -5 5 -3 0 -5 -2 -5
-5z"/>
<path d="M790 745 c0 -3 2 -5 5 -5 3 0 5 2 5 5 0 3 -2 5 -5 5 -3 0 -5 -2 -5
-5z"/>
<path d="M920 745 c0 -3 2 -5 5 -5 3 0 5 2 5 5 0 3 -2 5 -5 5 -3 0 -5 -2 -5
-5z"/>
<path d="M586 723 c-6 -14 -5 -15 5 -6 7 7 10 15 7 18 -3 3 -9 -2 -12 -12z"/>
<path d="M270 725 c0 -3 2 -5 5 -5 3 0 5 2 5 5 0 3 -2 5 -5 5 -3 0 -5 -2 -5
-5z"/>
<path d="M470 725 c0 -3 2 -5 5 -5 3 0 5 2 5 5 0 3 -2 5 -5 5 -3 0 -5 -2 -5
-5z"/>
<path d="M70 715 c0 -3 2 -5 5 -5 3 0 5 2 5 5 0 3 -2 5 -5 5 -3 0 -5 -2 -5 -5z"/>
<path d="M150 715 c0 -3 2 -5 5 -5 3 0 5 2 5 5 0 3 -2 5 -5 5 -3 0 -5 -2 -5
-5z"/>
<path d="M290 715 c0 -3 2 -5 5 -5 3 0 5 2 5 5 0 3 -2 5 -5 5 -3 0 -5 -2 -5
-5z"/>
<path d="M700 715 c0 -3 2 -5 5 -5 3 0 5 2 5 5 0 3 -2 5 -5 5 -3 0 -5 -2 -5
-5z"/>
<path d="M790 715 c0 -3 2 -5 5 -5 3 0 5 2 5 5 0 3 -2 5 -5 5 -3 0 -5 -2 -5
-5z"/>
<path d="M900 715 c0 -3 2 -5 5 -5 3 0 5 2 5 5 0 3 -2 5 -5 5 -3 0 -5 -2 -5
-5z"/>
<path d="M390 705 c0 -3 2 -5 5 -5 3 0 5 2 5 5 0 3 -2 5 -5 5 -3 0 -5 -2 -5
-5z"/>
<path d="M600 705 c0 -3 2 -5 5 -5 3 0 5 2 5 5 0 3 -2 5 -5 5 -3 0 -5 -2 -5
-5z"/>
<path d="M920 705 c0 -3 2 -5 5 -5 3 0 5 2 5 5 0 3 -2 5 -5 5 -3 0 -5 -2 -5
-5z"/>
<path d="M100 695 c0 -3 2 -5 5 -5 3 0 5 2 5 5 0 3 -2 5 -5 5 -3 0 -5 -2 -5
-5z"/>
<path d="M250 695 c0 -3 2 -5 5 -5 3 0 5 2 5 5 0 3 -2 5 -5 5 -3 0 -5 -2 -5
-5z"/>
<path d="M420 695 c0 -3 2 -5 5 -5 3 0 5 2 5 5 0 3 -2 5 -5 5 -3 0 -5 -2 -5
-5z"/>
<path d="M570 695 c0 -3 2 -5 5 -5 3 0 5 2 5 5 0 3 -2 5 -5 5 -3 0 -5 -2 -5
-5z"/>
<path d="M740 695 c0 -3 2 -5 5 -5 3 0 5 2 5 5 0 3 -2 5 -5 5 -3 0 -5 -2 -5
-5z"/>
<path d="M110 671 c0 -9 30 -24 36 -18 2 1 -6 8 -16 15 -11 7 -20 8 -20 3z"/>
<path d="M430 671 c0 -5 7 -12 16 -15 14 -5 15 -4 4 9 -14 17 -20 19 -20 6z"/>
<path d="M761 663 c7 -12 15 -20 18 -17 3 2 -3 12 -13 22 -17 16 -18 16 -5 -5z"/>
<path d="M47 632 c9 -6 10 -17 2 -45 -5 -21 -14 -35 -19 -32 -6 3 -7 -1 -4
-10 4 -9 -2 -25 -12 -36 -16 -18 -17 -21 -1 -54 13 -27 22 -34 42 -33 22 2 25
7 25 40 0 23 -6 42 -18 50 -20 15 -27 38 -11 38 5 0 8 3 6 8 -7 11 12 54 21
48 4 -2 8 4 8 15 0 14 -7 19 -26 19 -16 0 -20 -3 -13 -8z"/>
<path d="M128 603 c-33 -42 -34 -56 -10 -74 14 -11 15 -11 5 1 -19 20 -16 33
12 66 21 25 32 45 23 44 -2 -1 -15 -17 -30 -37z"/>
<path d="M180 635 c0 -3 2 -5 5 -5 3 0 5 2 5 5 0 3 -2 5 -5 5 -3 0 -5 -2 -5
-5z"/>
<path d="M270 635 c0 -3 2 -5 5 -5 3 0 5 2 5 5 0 3 -2 5 -5 5 -3 0 -5 -2 -5
-5z"/>
<path d="M367 628 c4 -7 6 -21 4 -31 -2 -18 -2 -18 16 0 26 25 24 43 -4 43
-17 0 -22 -4 -16 -12z"/>
<path d="M448 603 c-32 -42 -34 -55 -11 -74 15 -13 15 -12 3 7 -11 19 -10 25
9 53 12 17 27 29 32 26 5 -4 6 1 3 9 -3 9 -7 16 -8 16 0 -1 -13 -17 -28 -37z"/>
<path d="M500 635 c0 -3 2 -5 5 -5 3 0 5 2 5 5 0 3 -2 5 -5 5 -3 0 -5 -2 -5
-5z"/>
<path d="M590 635 c0 -3 2 -5 5 -5 3 0 5 2 5 5 0 3 -2 5 -5 5 -3 0 -5 -2 -5
-5z"/>
<path d="M687 628 c4 -7 6 -22 5 -33 -2 -18 -2 -19 8 -2 6 9 15 15 21 12 5 -4
6 2 2 11 -5 13 -3 15 7 9 9 -5 11 -4 6 3 -4 7 -18 12 -32 12 -18 0 -23 -4 -17
-12z"/>
<path d="M768 602 c-33 -41 -34 -55 -10 -73 14 -11 15 -11 5 1 -19 21 -16 35
13 70 15 17 25 32 23 34 -2 2 -16 -12 -31 -32z"/>
<path d="M820 635 c0 -3 2 -5 5 -5 3 0 5 2 5 5 0 3 -2 5 -5 5 -3 0 -5 -2 -5
-5z"/>
<path d="M910 635 c0 -3 2 -5 5 -5 3 0 5 2 5 5 0 3 -2 5 -5 5 -3 0 -5 -2 -5
-5z"/>
<path d="M170 615 c0 -3 2 -5 5 -5 3 0 5 2 5 5 0 3 -2 5 -5 5 -3 0 -5 -2 -5
-5z"/>
<path d="M237 596 c-19 -18 -28 -21 -38 -12 -15 13 8 -21 30 -43 8 -10 11 -27
7 -52 -5 -28 -2 -38 10 -43 27 -11 54 -7 60 9 9 22 19 18 32 -10 8 -17 19 -24
35 -23 21 2 24 7 23 41 -1 48 -25 69 -56 49 -17 -10 -24 -10 -41 2 -13 9 -16
16 -10 21 18 10 13 43 -9 58 -11 8 -17 17 -13 20 18 19 -8 4 -30 -17z m23 -81
c0 -3 -2 -5 -5 -5 -3 0 -5 2 -5 5 0 3 2 5 5 5 3 0 5 -2 5 -5z"/>
<path d="M557 596 c-14 -13 -27 -22 -29 -21 -2 2 -3 -7 -3 -20 0 -19 3 -21 14
-12 8 7 12 8 9 2 -7 -11 17 -37 26 -28 3 3 0 -6 -7 -21 -7 -14 -18 -26 -24
-26 -9 0 -7 -6 5 -18 20 -20 70 -18 79 4 8 21 18 17 31 -11 8 -18 18 -24 37
-23 22 2 25 7 25 38 0 19 -6 43 -14 52 -11 15 -15 15 -40 3 -24 -13 -31 -13
-48 -1 -12 9 -15 16 -9 21 18 10 13 43 -9 58 -11 8 -17 17 -13 20 18 19 -8 4
-30 -17z"/>
<path d="M815 610 c3 -5 8 -10 11 -10 3 0 2 5 -1 10 -3 6 -8 10 -11 10 -3 0
-2 -4 1 -10z"/>
<path d="M876 595 c-30 -28 -33 -40 -10 -49 19 -7 15 -67 -5 -74 -9 -3 -11 0
-7 7 4 7 2 18 -4 26 -6 8 -8 20 -4 27 6 10 5 10 -7 1 -8 -6 -25 -13 -38 -15
-32 -4 -50 -32 -35 -56 15 -23 41 -27 71 -11 19 10 28 10 43 1 11 -7 27 -12
35 -12 10 0 13 -5 9 -12 -4 -6 -3 -8 3 -5 6 4 16 21 24 38 12 29 11 33 -9 50
-13 10 -18 20 -12 24 17 10 11 43 -10 58 -11 8 -17 17 -13 20 18 19 -8 4 -31
-18z m24 -80 c0 -3 -2 -5 -5 -5 -3 0 -5 2 -5 5 0 3 2 5 5 5 3 0 5 -2 5 -5z"/>
<path d="M500 605 c0 -3 2 -5 5 -5 3 0 5 2 5 5 0 3 -2 5 -5 5 -3 0 -5 -2 -5
-5z"/>
<path d="M710 575 c0 -3 2 -5 5 -5 3 0 5 2 5 5 0 3 -2 5 -5 5 -3 0 -5 -2 -5
-5z"/>
<path d="M351 557 c-15 -19 -2 -29 15 -12 8 7 14 16 14 19 0 11 -17 6 -29 -7z"/>
<path d="M673 554 c-7 -7 -9 -15 -5 -17 4 -3 13 1 19 9 7 7 9 15 5 17 -4 3
-13 -1 -19 -9z"/>
<path d="M203 533 c4 -3 10 -3 14 0 3 4 0 7 -7 7 -7 0 -10 -3 -7 -7z"/>
<path d="M860 525 c0 -3 2 -5 5 -5 3 0 5 2 5 5 0 3 -2 5 -5 5 -3 0 -5 -2 -5
-5z"/>
<path d="M132 508 c-15 -15 -15 -41 0 -56 15 -15 58 -16 58 -2 0 6 6 10 13 10
16 0 19 30 4 48 -12 15 -59 16 -75 0z"/>
<path d="M452 508 c-26 -26 3 -80 38 -71 29 8 54 51 39 69 -14 17 -61 18 -77
2z"/>
<path d="M150 425 c0 -3 2 -5 5 -5 3 0 5 2 5 5 0 3 -2 5 -5 5 -3 0 -5 -2 -5
-5z"/>
<path d="M790 425 c0 -3 2 -5 5 -5 3 0 5 2 5 5 0 3 -2 5 -5 5 -3 0 -5 -2 -5
-5z"/>
<path d="M586 403 c-6 -14 -5 -15 5 -6 7 7 10 15 7 18 -3 3 -9 -2 -12 -12z"/>
<path d="M150 405 c0 -3 2 -5 5 -5 3 0 5 2 5 5 0 3 -2 5 -5 5 -3 0 -5 -2 -5
-5z"/>
<path d="M470 405 c0 -3 2 -5 5 -5 3 0 5 2 5 5 0 3 -2 5 -5 5 -3 0 -5 -2 -5
-5z"/>
<path d="M60 395 c0 -3 2 -5 5 -5 3 0 5 2 5 5 0 3 -2 5 -5 5 -3 0 -5 -2 -5 -5z"/>
<path d="M260 395 c0 -3 2 -5 5 -5 3 0 5 2 5 5 0 3 -2 5 -5 5 -3 0 -5 -2 -5
-5z"/>
<path d="M700 395 c0 -3 2 -5 5 -5 3 0 5 2 5 5 0 3 -2 5 -5 5 -3 0 -5 -2 -5
-5z"/>
<path d="M790 395 c0 -3 2 -5 5 -5 3 0 5 2 5 5 0 3 -2 5 -5 5 -3 0 -5 -2 -5
-5z"/>
<path d="M900 395 c0 -3 2 -5 5 -5 3 0 5 2 5 5 0 3 -2 5 -5 5 -3 0 -5 -2 -5
-5z"/>
<path d="M130 385 c0 -3 2 -5 5 -5 3 0 5 2 5 5 0 3 -2 5 -5 5 -3 0 -5 -2 -5
-5z"/>
<path d="M150 385 c0 -3 2 -5 5 -5 3 0 5 2 5 5 0 3 -2 5 -5 5 -3 0 -5 -2 -5
-5z"/>
<path d="M280 385 c0 -3 2 -5 5 -5 3 0 5 2 5 5 0 3 -2 5 -5 5 -3 0 -5 -2 -5
-5z"/>
<path d="M390 385 c0 -3 2 -5 5 -5 3 0 5 2 5 5 0 3 -2 5 -5 5 -3 0 -5 -2 -5
-5z"/>
<path d="M600 385 c0 -3 2 -5 5 -5 3 0 5 2 5 5 0 3 -2 5 -5 5 -3 0 -5 -2 -5
-5z"/>
<path d="M920 385 c0 -3 2 -5 5 -5 3 0 5 2 5 5 0 3 -2 5 -5 5 -3 0 -5 -2 -5
-5z"/>
<path d="M100 373 c0 -15 28 -43 43 -43 7 0 4 5 -5 11 -10 5 -22 17 -27 27 -6
9 -11 12 -11 5z"/>
<path d="M420 375 c0 -3 2 -5 5 -5 3 0 5 2 5 5 0 3 -2 5 -5 5 -3 0 -5 -2 -5
-5z"/>
<path d="M570 375 c0 -3 2 -5 5 -5 3 0 5 2 5 5 0 3 -2 5 -5 5 -3 0 -5 -2 -5
-5z"/>
<path d="M740 375 c0 -3 2 -5 5 -5 3 0 5 2 5 5 0 3 -2 5 -5 5 -3 0 -5 -2 -5
-5z"/>
<path d="M890 375 c0 -3 2 -5 5 -5 3 0 5 2 5 5 0 3 -2 5 -5 5 -3 0 -5 -2 -5
-5z"/>
<path d="M240 365 c0 -3 2 -5 5 -5 3 0 5 2 5 5 0 3 -2 5 -5 5 -3 0 -5 -2 -5
-5z"/>
<path d="M430 351 c0 -5 7 -12 16 -15 14 -5 15 -4 4 9 -14 17 -20 19 -20 6z"/>
<path d="M756 345 c4 -8 11 -15 16 -15 6 0 5 6 -2 15 -7 8 -14 15 -16 15 -2 0
-1 -7 2 -15z"/>
<path d="M47 309 c11 -11 6 -56 -8 -65 -5 -3 -9 -12 -9 -21 0 -9 -8 -25 -17
-35 -15 -17 -15 -21 0 -53 13 -26 22 -34 40 -33 20 2 24 8 26 40 1 28 -3 40
-19 50 -11 7 -20 16 -20 21 0 4 3 6 8 4 4 -3 8 9 8 26 1 16 8 35 15 41 24 19
21 36 -8 36 -19 0 -24 -3 -16 -11z"/>
<path d="M128 283 c-31 -40 -36 -68 -13 -77 12 -4 13 -2 3 14 -10 16 -9 24 9
47 12 15 26 27 32 26 6 -2 8 4 5 12 -8 19 -4 21 -36 -22z"/>
<path d="M180 315 c0 -3 2 -5 5 -5 3 0 5 2 5 5 0 3 -2 5 -5 5 -3 0 -5 -2 -5
-5z"/>
<path d="M270 315 c0 -3 2 -5 5 -5 3 0 5 2 5 5 0 3 -2 5 -5 5 -3 0 -5 -2 -5
-5z"/>
<path d="M367 308 c4 -7 6 -22 5 -33 -2 -18 -2 -19 8 -2 6 9 15 15 21 12 5 -4
6 2 2 11 -5 13 -3 15 7 9 9 -5 11 -4 6 3 -4 7 -18 12 -32 12 -18 0 -23 -4 -17
-12z"/>
<path d="M448 282 c-33 -41 -34 -55 -10 -73 14 -11 15 -11 5 1 -19 21 -16 35
13 70 15 17 25 32 23 34 -2 2 -16 -12 -31 -32z"/>
<path d="M500 315 c0 -3 2 -5 5 -5 3 0 5 2 5 5 0 3 -2 5 -5 5 -3 0 -5 -2 -5
-5z"/>
<path d="M590 315 c0 -3 2 -5 5 -5 3 0 5 2 5 5 0 3 -2 5 -5 5 -3 0 -5 -2 -5
-5z"/>
<path d="M687 313 c8 -3 11 -14 7 -30 -7 -26 -7 -26 13 -7 27 27 24 44 -6 43
-14 0 -20 -3 -14 -6z"/>
<path d="M768 283 c-32 -42 -34 -55 -11 -74 15 -13 15 -12 2 8 -12 20 -11 26
8 50 12 15 26 27 32 26 6 -2 8 4 5 12 -8 19 -4 21 -36 -22z"/>
<path d="M820 315 c0 -3 2 -5 5 -5 3 0 5 2 5 5 0 3 -2 5 -5 5 -3 0 -5 -2 -5
-5z"/>
<path d="M910 315 c0 -3 2 -5 5 -5 3 0 5 2 5 5 0 3 -2 5 -5 5 -3 0 -5 -2 -5
-5z"/>
<path d="M237 276 c-14 -13 -27 -22 -29 -21 -2 2 -3 -7 -3 -20 0 -19 3 -21 14
-12 8 7 12 8 9 2 -7 -11 17 -37 26 -28 3 3 0 -6 -7 -21 -7 -14 -18 -26 -25
-26 -8 0 -6 -6 5 -18 21 -20 71 -18 80 4 8 21 18 17 31 -11 8 -18 18 -24 37
-23 22 2 25 7 25 38 0 19 -6 43 -14 52 -11 15 -15 15 -40 3 -24 -13 -31 -13
-48 -1 -12 9 -15 16 -9 21 18 10 13 43 -9 58 -11 8 -17 17 -13 20 18 19 -8 4
-30 -17z"/>
<path d="M495 290 c3 -5 8 -10 11 -10 3 0 2 5 -1 10 -3 6 -8 10 -11 10 -3 0
-2 -4 1 -10z"/>
<path d="M556 275 c-30 -28 -33 -40 -10 -49 19 -7 15 -67 -5 -74 -9 -3 -11 0
-7 7 4 7 2 18 -4 26 -6 8 -8 20 -4 27 6 10 5 10 -7 1 -8 -6 -25 -13 -38 -15
-32 -4 -50 -32 -35 -56 15 -23 41 -27 71 -11 19 10 28 10 43 1 11 -7 27 -12
35 -12 10 0 14 -5 10 -12 -4 -7 1 -4 9 6 9 11 16 23 16 28 0 17 17 7 28 -17 8
-17 19 -24 35 -23 21 2 24 7 23 41 -1 48 -25 69 -56 49 -17 -10 -24 -10 -41 2
-13 9 -16 16 -10 21 18 10 13 43 -9 58 -11 8 -17 17 -13 20 18 19 -8 4 -31
-18z m24 -80 c0 -3 -2 -5 -5 -5 -3 0 -5 2 -5 5 0 3 2 5 5 5 3 0 5 -2 5 -5z"/>
<path d="M877 276 c-14 -13 -27 -22 -29 -21 -2 2 -3 -7 -3 -20 0 -19 3 -21 14
-12 8 7 12 8 9 2 -7 -11 17 -37 26 -28 3 3 0 -6 -7 -21 -7 -14 -18 -26 -24
-26 -9 0 -7 -6 5 -18 24 -25 70 -17 85 15 10 22 8 28 -11 43 -13 11 -18 21
-12 25 17 10 11 43 -10 58 -11 8 -17 17 -13 20 18 19 -8 4 -30 -17z"/>
<path d="M180 285 c0 -3 2 -5 5 -5 3 0 5 2 5 5 0 3 -2 5 -5 5 -3 0 -5 -2 -5
-5z"/>
<path d="M820 285 c0 -3 2 -5 5 -5 3 0 5 2 5 5 0 3 -2 5 -5 5 -3 0 -5 -2 -5
-5z"/>
<path d="M390 255 c0 -3 2 -5 5 -5 3 0 5 2 5 5 0 3 -2 5 -5 5 -3 0 -5 -2 -5
-5z"/>
<path d="M353 234 c-7 -7 -9 -15 -5 -17 4 -3 13 1 19 9 7 7 9 15 5 17 -4 3
-13 -1 -19 -9z"/>
<path d="M671 237 c-15 -19 -2 -29 15 -12 8 7 14 16 14 19 0 11 -17 6 -29 -7z"/>
<path d="M540 205 c0 -3 2 -5 5 -5 3 0 5 2 5 5 0 3 -2 5 -5 5 -3 0 -5 -2 -5
-5z"/>
<path d="M132 188 c-26 -26 3 -80 38 -71 29 8 54 51 39 69 -14 17 -61 18 -77
2z"/>
<path d="M772 188 c-26 -26 3 -80 38 -71 29 8 54 51 39 69 -14 17 -61 18 -77
2z"/>
<path d="M470 105 c0 -3 2 -5 5 -5 3 0 5 2 5 5 0 3 -2 5 -5 5 -3 0 -5 -2 -5
-5z"/>
<path d="M266 83 c-6 -14 -5 -15 5 -6 7 7 10 15 7 18 -3 3 -9 -2 -12 -12z"/>
<path d="M906 83 c-6 -14 -5 -15 5 -6 7 7 10 15 7 18 -3 3 -9 -2 -12 -12z"/>
<path d="M150 85 c0 -3 2 -5 5 -5 3 0 5 2 5 5 0 3 -2 5 -5 5 -3 0 -5 -2 -5 -5z"/>
<path d="M790 85 c0 -3 2 -5 5 -5 3 0 5 2 5 5 0 3 -2 5 -5 5 -3 0 -5 -2 -5 -5z"/>
<path d="M380 75 c0 -3 2 -5 5 -5 3 0 5 2 5 5 0 3 -2 5 -5 5 -3 0 -5 -2 -5 -5z"/>
<path d="M470 75 c0 -3 2 -5 5 -5 3 0 5 2 5 5 0 3 -2 5 -5 5 -3 0 -5 -2 -5 -5z"/>
<path d="M580 75 c0 -3 2 -5 5 -5 3 0 5 2 5 5 0 3 -2 5 -5 5 -3 0 -5 -2 -5 -5z"/>
<path d="M70 65 c0 -3 2 -5 5 -5 3 0 5 2 5 5 0 3 -2 5 -5 5 -3 0 -5 -2 -5 -5z"/>
<path d="M280 65 c0 -3 2 -5 5 -5 3 0 5 2 5 5 0 3 -2 5 -5 5 -3 0 -5 -2 -5 -5z"/>
<path d="M600 65 c0 -3 2 -5 5 -5 3 0 5 2 5 5 0 3 -2 5 -5 5 -3 0 -5 -2 -5 -5z"/>
<path d="M710 65 c0 -3 2 -5 5 -5 3 0 5 2 5 5 0 3 -2 5 -5 5 -3 0 -5 -2 -5 -5z"/>
<path d="M920 65 c0 -3 2 -5 5 -5 3 0 5 2 5 5 0 3 -2 5 -5 5 -3 0 -5 -2 -5 -5z"/>
<path d="M100 55 c0 -3 2 -5 5 -5 3 0 5 2 5 5 0 3 -2 5 -5 5 -3 0 -5 -2 -5 -5z"/>
<path d="M250 55 c0 -3 2 -5 5 -5 3 0 5 2 5 5 0 3 -2 5 -5 5 -3 0 -5 -2 -5 -5z"/>
<path d="M420 55 c0 -3 2 -5 5 -5 3 0 5 2 5 5 0 3 -2 5 -5 5 -3 0 -5 -2 -5 -5z"/>
<path d="M570 55 c0 -3 2 -5 5 -5 3 0 5 2 5 5 0 3 -2 5 -5 5 -3 0 -5 -2 -5 -5z"/>
<path d="M740 55 c0 -3 2 -5 5 -5 3 0 5 2 5 5 0 3 -2 5 -5 5 -3 0 -5 -2 -5 -5z"/>
<path d="M890 55 c0 -3 2 -5 5 -5 3 0 5 2 5 5 0 3 -2 5 -5 5 -3 0 -5 -2 -5 -5z"/>
<path d="M110 31 c0 -5 7 -12 16 -15 14 -5 15 -4 4 9 -14 17 -20 19 -20 6z"/>
<path d="M436 25 c4 -8 11 -15 16 -15 6 0 5 6 -2 15 -7 8 -14 15 -16 15 -2 0
-1 -7 2 -15z"/>
<path d="M750 31 c0 -5 7 -12 16 -15 14 -5 15 -4 4 9 -14 17 -20 19 -20 6z"/>
</g>
<g transform="translate(0.000000,96.000000) scale(0.100000,-0.100000)"
fill="#e1060c" stroke="none">
<path d="M128 922 c-33 -41 -34 -55 -10 -73 14 -11 15 -11 5 1 -19 21 -16 35
13 70 15 17 25 32 23 34 -2 2 -16 -12 -31 -32z"/>
<path d="M190 955 c0 -3 2 -5 5 -5 3 0 5 2 5 5 0 3 -2 5 -5 5 -3 0 -5 -2 -5
-5z"/>
<path d="M448 922 c-32 -41 -34 -54 -11 -73 15 -13 15 -12 3 8 -12 19 -11 25
14 58 15 20 26 38 25 40 -2 1 -16 -13 -31 -33z"/>
<path d="M500 955 c0 -3 2 -5 5 -5 3 0 5 2 5 5 0 3 -2 5 -5 5 -3 0 -5 -2 -5
-5z"/>
<path d="M590 955 c0 -3 2 -5 5 -5 3 0 5 2 5 5 0 3 -2 5 -5 5 -3 0 -5 -2 -5
-5z"/>
<path d="M768 922 c-33 -41 -34 -55 -10 -73 14 -11 15 -11 5 1 -19 21 -16 35
13 70 15 17 25 32 23 34 -2 2 -16 -12 -31 -32z"/>
<path d="M820 955 c0 -3 2 -5 5 -5 3 0 5 2 5 5 0 3 -2 5 -5 5 -3 0 -5 -2 -5
-5z"/>
<path d="M910 955 c0 -3 2 -5 5 -5 3 0 5 2 5 5 0 3 -2 5 -5 5 -3 0 -5 -2 -5
-5z"/>
<path d="M90 945 c0 -3 2 -5 5 -5 3 0 5 2 5 5 0 3 -2 5 -5 5 -3 0 -5 -2 -5 -5z"/>
<path d="M692 922 c-1 -14 -1 -24 1 -21 1 2 8 11 15 20 10 13 10 18 -1 22 -8
3 -14 -4 -15 -21z"/>
<path d="M730 945 c0 -3 2 -5 5 -5 3 0 5 2 5 5 0 3 -2 5 -5 5 -3 0 -5 -2 -5
-5z"/>
<path d="M54 923 c-17 -54 -29 -80 -42 -96 -12 -14 -13 -22 -4 -42 10 -22 15
-24 32 -15 11 6 20 20 20 31 0 17 -3 18 -22 9 -21 -10 -21 -9 2 9 14 11 19 21
12 21 -14 0 -10 24 13 73 8 15 9 27 4 27 -5 0 -12 -8 -15 -17z"/>
<path d="M236 915 c-14 -13 -26 -30 -26 -36 0 -7 6 -4 14 7 14 18 15 18 25 -6
5 -14 10 -19 10 -12 1 7 5 11 10 8 5 -3 14 1 20 8 9 11 8 17 -8 28 -12 8 -18
18 -14 21 18 19 -8 4 -31 -18z m39 -15 c3 -6 -1 -7 -9 -4 -18 7 -21 14 -7 14
6 0 13 -4 16 -10z"/>
<path d="M373 925 c-9 -24 1 -27 15 -5 8 13 8 20 2 20 -6 0 -13 -7 -17 -15z"/>
<path d="M557 916 c-14 -13 -27 -22 -29 -21 -2 2 -3 -7 -3 -20 0 -13 3 -21 8
-18 4 2 7 11 7 19 0 16 16 19 25 5 6 -10 43 -7 54 5 3 3 -4 14 -16 24 -12 9
-19 20 -16 24 18 18 -8 2 -30 -18z m37 -15 c4 -5 -3 -7 -14 -4 -23 6 -26 13
-6 13 8 0 17 -4 20 -9z"/>
<path d="M876 915 c-14 -13 -26 -30 -26 -37 0 -10 2 -10 9 0 7 11 12 12 29 1
17 -11 23 -10 37 1 16 13 16 15 -4 31 -11 9 -17 19 -14 23 18 18 -8 2 -31 -19z
m38 -14 c4 -5 -3 -7 -14 -4 -23 6 -26 13 -6 13 8 0 17 -4 20 -9z"/>
<path d="M180 925 c0 -3 2 -5 5 -5 3 0 5 2 5 5 0 3 -2 5 -5 5 -3 0 -5 -2 -5
-5z"/>
<path d="M500 925 c0 -3 2 -5 5 -5 3 0 5 2 5 5 0 3 -2 5 -5 5 -3 0 -5 -2 -5
-5z"/>
<path d="M820 925 c0 -3 2 -5 5 -5 3 0 5 2 5 5 0 3 -2 5 -5 5 -3 0 -5 -2 -5
-5z"/>
<path d="M190 905 c0 -3 2 -5 5 -5 3 0 5 2 5 5 0 3 -2 5 -5 5 -3 0 -5 -2 -5
-5z"/>
<path d="M70 895 c0 -3 2 -5 5 -5 3 0 5 2 5 5 0 3 -2 5 -5 5 -3 0 -5 -2 -5 -5z"/>
<path d="M710 895 c0 -3 2 -5 5 -5 3 0 5 2 5 5 0 3 -2 5 -5 5 -3 0 -5 -2 -5
-5z"/>
<path d="M353 876 c-16 -19 -4 -29 13 -11 8 7 14 16 14 19 0 10 -15 6 -27 -8z"/>
<path d="M676 874 c-8 -22 -4 -25 11 -9 7 8 9 16 4 19 -5 3 -12 -1 -15 -10z"/>
<path d="M200 855 c0 -3 2 -5 5 -5 3 0 5 2 5 5 0 3 -2 5 -5 5 -3 0 -5 -2 -5
-5z"/>
<path d="M240 842 c9 -18 16 -21 33 -16 18 6 20 4 10 -7 -8 -9 -9 -20 -3 -29
8 -13 12 -12 24 5 9 11 16 15 16 8 0 -6 7 -19 16 -28 22 -21 44 -3 44 36 0 31
-25 40 -48 17 -8 -8 -15 -8 -26 1 -8 7 -23 11 -33 9 -10 -2 -24 3 -31 12 -11
13 -11 11 -2 -8z m124 -21 c3 -5 -1 -11 -9 -14 -9 -4 -12 -1 -8 9 6 16 10 17
17 5z"/>
<path d="M560 842 c8 -17 17 -21 33 -17 16 5 18 4 8 -3 -8 -6 -10 -15 -5 -23
6 -12 5 -12 -9 0 -10 8 -17 9 -17 3 0 -17 41 -26 51 -11 8 11 12 11 23 -4 19
-25 50 -18 54 11 3 21 1 22 -17 12 -12 -6 -21 -7 -21 -2 0 6 10 13 23 17 19 6
20 8 4 12 -10 3 -24 -1 -32 -7 -12 -10 -18 -10 -30 0 -8 6 -22 10 -32 8 -10
-2 -24 3 -31 12 -11 13 -11 11 -2 -8z"/>
<path d="M835 851 c-6 -5 -21 -11 -34 -13 -35 -5 -49 -32 -27 -53 16 -17 18
-16 39 6 12 13 21 28 19 32 -1 5 3 15 9 23 13 16 8 19 -6 5z m-30 -41 c-3 -5
-11 -10 -16 -10 -6 0 -7 5 -4 10 3 6 11 10 16 10 6 0 7 -4 4 -10z"/>
<path d="M881 837 c-1 -14 4 -16 27 -11 19 4 23 3 13 -4 -8 -6 -10 -15 -5 -23
6 -12 5 -12 -9 0 -12 9 -17 10 -17 2 0 -21 30 -24 50 -6 16 14 17 21 8 32 -6
8 -22 13 -35 10 -12 -2 -24 1 -27 7 -2 6 -5 3 -5 -7z"/>
<path d="M132 828 c-18 -18 -14 -36 10 -44 16 -5 27 -1 40 16 10 12 15 26 12
31 -8 13 -48 11 -62 -3z m38 -13 c-7 -8 -18 -15 -24 -15 -6 0 -2 7 8 15 25 19
32 19 16 0z"/>
<path d="M452 828 c-16 -16 -15 -33 2 -47 17 -15 68 23 59 44 -6 18 -44 20
-61 3z m33 -18 c-3 -5 -11 -10 -16 -10 -6 0 -7 5 -4 10 3 6 11 10 16 10 6 0 7
-4 4 -10z"/>
<path d="M233 799 c-9 -9 -8 -15 2 -25 7 -8 17 -14 21 -14 5 0 3 5 -4 12 -18
18 -14 32 5 17 14 -12 16 -12 12 0 -7 20 -22 24 -36 10z"/>
<path d="M859 789 c-12 -7 -11 -9 3 -9 9 0 18 -6 21 -12 2 -7 7 -11 10 -8 3 3
0 13 -7 22 -8 11 -17 14 -27 7z"/>
<path d="M189 773 c-13 -16 -12 -17 4 -4 16 13 21 21 13 21 -2 0 -10 -8 -17
-17z"/>
<path d="M546 775 c25 -19 40 -19 24 0 -7 8 -20 15 -28 15 -13 0 -12 -3 4 -15z"/>
<path d="M504 768 c-4 -7 -3 -8 4 -4 12 7 16 16 8 16 -3 0 -8 -5 -12 -12z"/>
<path d="M824 768 c-4 -7 -3 -8 4 -4 12 7 16 16 8 16 -3 0 -8 -5 -12 -12z"/>
<path d="M290 755 c0 -3 2 -5 5 -5 3 0 5 2 5 5 0 3 -2 5 -5 5 -3 0 -5 -2 -5
-5z"/>
<path d="M470 755 c0 -3 2 -5 5 -5 3 0 5 2 5 5 0 3 -2 5 -5 5 -3 0 -5 -2 -5
-5z"/>
<path d="M710 750 c0 -7 3 -10 7 -7 3 4 3 10 0 14 -4 3 -7 0 -7 -7z"/>
<path d="M70 745 c0 -3 2 -5 5 -5 3 0 5 2 5 5 0 3 -2 5 -5 5 -3 0 -5 -2 -5 -5z"/>
<path d="M150 745 c0 -3 2 -5 5 -5 3 0 5 2 5 5 0 3 -2 5 -5 5 -3 0 -5 -2 -5
-5z"/>
<path d="M390 745 c0 -3 2 -5 5 -5 3 0 5 2 5 5 0 3 -2 5 -5 5 -3 0 -5 -2 -5
-5z"/>
<path d="M790 745 c0 -3 2 -5 5 -5 3 0 5 2 5 5 0 3 -2 5 -5 5 -3 0 -5 -2 -5
-5z"/>
<path d="M920 745 c0 -3 2 -5 5 -5 3 0 5 2 5 5 0 3 -2 5 -5 5 -3 0 -5 -2 -5
-5z"/>
<path d="M586 723 c-6 -14 -5 -15 5 -6 7 7 10 15 7 18 -3 3 -9 -2 -12 -12z"/>
<path d="M270 725 c0 -3 2 -5 5 -5 3 0 5 2 5 5 0 3 -2 5 -5 5 -3 0 -5 -2 -5
-5z"/>
<path d="M470 725 c0 -3 2 -5 5 -5 3 0 5 2 5 5 0 3 -2 5 -5 5 -3 0 -5 -2 -5
-5z"/>
<path d="M150 715 c0 -3 2 -5 5 -5 3 0 5 2 5 5 0 3 -2 5 -5 5 -3 0 -5 -2 -5
-5z"/>
<path d="M790 715 c0 -3 2 -5 5 -5 3 0 5 2 5 5 0 3 -2 5 -5 5 -3 0 -5 -2 -5
-5z"/>
<path d="M900 715 c0 -3 2 -5 5 -5 3 0 5 2 5 5 0 3 -2 5 -5 5 -3 0 -5 -2 -5
-5z"/>
<path d="M100 695 c0 -3 2 -5 5 -5 3 0 5 2 5 5 0 3 -2 5 -5 5 -3 0 -5 -2 -5
-5z"/>
<path d="M250 695 c0 -3 2 -5 5 -5 3 0 5 2 5 5 0 3 -2 5 -5 5 -3 0 -5 -2 -5
-5z"/>
<path d="M420 695 c0 -3 2 -5 5 -5 3 0 5 2 5 5 0 3 -2 5 -5 5 -3 0 -5 -2 -5
-5z"/>
<path d="M570 695 c0 -3 2 -5 5 -5 3 0 5 2 5 5 0 3 -2 5 -5 5 -3 0 -5 -2 -5
-5z"/>
<path d="M740 695 c0 -3 2 -5 5 -5 3 0 5 2 5 5 0 3 -2 5 -5 5 -3 0 -5 -2 -5
-5z"/>
<path d="M110 671 c0 -9 30 -24 36 -18 2 1 -6 8 -16 15 -11 7 -20 8 -20 3z"/>
<path d="M430 671 c0 -5 7 -12 16 -15 14 -5 15 -4 4 9 -14 17 -20 19 -20 6z"/>
<path d="M761 663 c7 -12 15 -20 18 -17 3 2 -3 12 -13 22 -17 16 -18 16 -5 -5z"/>
<path d="M128 603 c-33 -42 -34 -56 -10 -74 14 -11 15 -11 5 1 -19 20 -16 33
12 66 21 25 32 45 23 44 -2 -1 -15 -17 -30 -37z"/>
<path d="M180 635 c0 -3 2 -5 5 -5 3 0 5 2 5 5 0 3 -2 5 -5 5 -3 0 -5 -2 -5
-5z"/>
<path d="M270 635 c0 -3 2 -5 5 -5 3 0 5 2 5 5 0 3 -2 5 -5 5 -3 0 -5 -2 -5
-5z"/>
<path d="M448 602 c-32 -41 -34 -54 -11 -73 15 -13 15 -12 3 8 -12 19 -11 25
14 58 15 20 26 38 25 40 -2 1 -16 -13 -31 -33z"/>
<path d="M500 635 c0 -3 2 -5 5 -5 3 0 5 2 5 5 0 3 -2 5 -5 5 -3 0 -5 -2 -5
-5z"/>
<path d="M590 635 c0 -3 2 -5 5 -5 3 0 5 2 5 5 0 3 -2 5 -5 5 -3 0 -5 -2 -5
-5z"/>
<path d="M768 602 c-33 -41 -34 -55 -10 -73 14 -11 15 -11 5 1 -19 21 -16 35
13 70 15 17 25 32 23 34 -2 2 -16 -12 -31 -32z"/>
<path d="M820 635 c0 -3 2 -5 5 -5 3 0 5 2 5 5 0 3 -2 5 -5 5 -3 0 -5 -2 -5
-5z"/>
<path d="M910 635 c0 -3 2 -5 5 -5 3 0 5 2 5 5 0 3 -2 5 -5 5 -3 0 -5 -2 -5
-5z"/>
<path d="M372 602 c-1 -14 -1 -24 1 -21 1 2 8 11 15 20 10 13 10 18 -1 22 -8
3 -14 -4 -15 -21z"/>
<path d="M692 602 c-1 -14 -1 -24 1 -21 1 2 8 11 15 20 10 13 10 18 -1 22 -8
3 -14 -4 -15 -21z"/>
<path d="M730 625 c0 -3 2 -5 5 -5 3 0 5 2 5 5 0 3 -2 5 -5 5 -3 0 -5 -2 -5
-5z"/>
<path d="M54 603 c-17 -54 -29 -80 -42 -96 -12 -13 -13 -22 -4 -41 10 -22 14
-23 35 -13 16 7 22 17 19 29 -3 14 -8 15 -23 7 -11 -5 -19 -6 -19 -1 0 6 10
13 23 17 13 4 17 8 10 12 -16 6 -17 33 -2 33 5 0 8 4 5 8 -3 5 1 20 9 35 8 15
9 27 4 27 -5 0 -12 -8 -15 -17z"/>
<path d="M237 596 c-19 -18 -28 -21 -37 -12 -8 7 -8 3 1 -11 13 -21 13 -21 27
-2 14 20 37 25 46 10 4 -5 -3 -7 -14 -4 -25 7 -26 -8 -2 -24 15 -9 21 -7 30 8
10 15 8 21 -8 32 -11 8 -17 17 -13 20 18 19 -8 4 -30 -17z"/>
<path d="M557 596 c-14 -13 -27 -22 -29 -21 -2 2 -3 -7 -3 -20 0 -13 3 -21 8
-18 4 2 7 11 7 19 0 16 16 19 25 5 6 -10 43 -7 54 5 3 3 -4 14 -16 24 -12 9
-19 20 -16 24 18 18 -8 2 -30 -18z m37 -15 c4 -5 -3 -7 -14 -4 -23 6 -26 13
-6 13 8 0 17 -4 20 -9z"/>
<path d="M876 595 c-14 -13 -26 -30 -26 -37 0 -10 2 -10 9 0 7 11 12 12 29 1
17 -11 23 -10 37 1 16 13 16 15 -4 31 -11 9 -17 19 -14 23 18 18 -8 2 -31 -19z
m38 -14 c4 -5 -3 -7 -14 -4 -23 6 -26 13 -6 13 8 0 17 -4 20 -9z"/>
<path d="M500 605 c0 -3 2 -5 5 -5 3 0 5 2 5 5 0 3 -2 5 -5 5 -3 0 -5 -2 -5
-5z"/>
<path d="M820 605 c0 -3 2 -5 5 -5 3 0 5 2 5 5 0 3 -2 5 -5 5 -3 0 -5 -2 -5
-5z"/>
<path d="M710 575 c0 -3 2 -5 5 -5 3 0 5 2 5 5 0 3 -2 5 -5 5 -3 0 -5 -2 -5
-5z"/>
<path d="M353 556 c-16 -19 -4 -29 13 -11 8 7 14 16 14 19 0 10 -15 6 -27 -8z"/>
<path d="M676 554 c-8 -22 -4 -25 11 -9 7 8 9 16 4 19 -5 3 -12 -1 -15 -10z"/>
<path d="M200 535 c0 -3 2 -5 5 -5 3 0 5 2 5 5 0 3 -2 5 -5 5 -3 0 -5 -2 -5
-5z"/>
<path d="M237 522 c5 -19 10 -22 32 -17 17 4 22 3 12 -4 -8 -5 -10 -14 -5 -22
6 -12 5 -12 -9 0 -12 9 -17 10 -17 2 0 -21 30 -24 50 -6 11 10 20 13 20 7 0
-6 7 -18 16 -27 22 -21 44 -3 44 36 0 31 -25 40 -48 17 -8 -8 -15 -8 -26 1 -8
7 -23 11 -33 9 -10 -2 -23 3 -30 12 -10 13 -11 11 -6 -8z m127 -21 c3 -5 -1
-11 -9 -14 -9 -4 -12 -1 -8 9 6 16 10 17 17 5z"/>
<path d="M560 522 c8 -17 17 -21 33 -17 16 5 18 4 8 -3 -8 -6 -10 -15 -5 -23
6 -12 5 -12 -9 0 -10 8 -17 9 -17 3 0 -17 41 -26 51 -11 8 11 12 11 23 -4 19
-25 50 -18 54 11 3 21 1 22 -17 12 -12 -6 -21 -7 -21 -2 0 6 10 13 23 17 19 6
20 8 4 12 -10 3 -24 -1 -32 -7 -12 -10 -18 -10 -30 0 -8 6 -22 10 -32 8 -10
-2 -24 3 -31 12 -11 13 -11 11 -2 -8z"/>
<path d="M835 531 c-6 -5 -21 -11 -34 -13 -35 -5 -49 -32 -27 -53 16 -17 18
-16 39 6 12 13 21 28 19 32 -1 5 3 15 9 23 13 16 8 19 -6 5z m-30 -41 c-3 -5
-11 -10 -16 -10 -6 0 -7 5 -4 10 3 6 11 10 16 10 6 0 7 -4 4 -10z"/>
<path d="M881 517 c-1 -14 4 -16 27 -11 19 4 23 3 13 -4 -8 -6 -10 -15 -5 -23
6 -12 5 -12 -9 0 -12 9 -17 10 -17 2 0 -21 30 -24 50 -6 16 14 17 21 8 32 -6
8 -22 13 -35 10 -12 -2 -24 1 -27 7 -2 6 -5 3 -5 -7z"/>
<path d="M132 508 c-17 -17 -15 -31 7 -45 15 -10 22 -8 38 11 11 12 18 27 15
34 -5 16 -44 16 -60 0z m33 -18 c-3 -5 -11 -10 -16 -10 -6 0 -7 5 -4 10 3 6
11 10 16 10 6 0 7 -4 4 -10z"/>
<path d="M452 508 c-16 -16 -15 -33 2 -47 17 -15 68 23 59 44 -6 18 -44 20
-61 3z m33 -18 c-3 -5 -11 -10 -16 -10 -6 0 -7 5 -4 10 3 6 11 10 16 10 6 0 7
-4 4 -10z"/>
<path d="M230 468 c0 -9 7 -19 16 -22 15 -6 15 -4 3 11 -7 10 -15 20 -16 22
-2 2 -3 -3 -3 -11z"/>
<path d="M854 470 c-12 -5 -25 -14 -29 -20 -4 -7 1 -7 14 2 17 11 25 10 44 -1
21 -14 21 -13 7 5 -8 10 -14 20 -15 20 0 1 -10 -2 -21 -6z"/>
<path d="M203 463 c4 -3 10 -3 14 0 3 4 0 7 -7 7 -7 0 -10 -3 -7 -7z"/>
<path d="M546 455 c25 -19 40 -19 24 0 -7 8 -20 15 -28 15 -13 0 -12 -3 4 -15z"/>
<path d="M504 448 c-4 -7 -3 -8 4 -4 12 7 16 16 8 16 -3 0 -8 -5 -12 -12z"/>
<path d="M180 445 c0 -3 2 -5 5 -5 3 0 5 2 5 5 0 3 -2 5 -5 5 -3 0 -5 -2 -5
-5z"/>
<path d="M70 430 c0 -7 3 -10 7 -7 3 4 3 10 0 14 -4 3 -7 0 -7 -7z"/>
<path d="M470 435 c0 -3 2 -5 5 -5 3 0 5 2 5 5 0 3 -2 5 -5 5 -3 0 -5 -2 -5
-5z"/>
<path d="M710 430 c0 -7 3 -10 7 -7 3 4 3 10 0 14 -4 3 -7 0 -7 -7z"/>
<path d="M924 428 c-4 -7 -3 -8 4 -4 7 4 12 9 12 12 0 8 -9 4 -16 -8z"/>
<path d="M150 425 c0 -3 2 -5 5 -5 3 0 5 2 5 5 0 3 -2 5 -5 5 -3 0 -5 -2 -5
-5z"/>
<path d="M390 425 c0 -3 2 -5 5 -5 3 0 5 2 5 5 0 3 -2 5 -5 5 -3 0 -5 -2 -5
-5z"/>
<path d="M790 425 c0 -3 2 -5 5 -5 3 0 5 2 5 5 0 3 -2 5 -5 5 -3 0 -5 -2 -5
-5z"/>
<path d="M586 403 c-6 -14 -5 -15 5 -6 7 7 10 15 7 18 -3 3 -9 -2 -12 -12z"/>
<path d="M150 405 c0 -3 2 -5 5 -5 3 0 5 2 5 5 0 3 -2 5 -5 5 -3 0 -5 -2 -5
-5z"/>
<path d="M470 405 c0 -3 2 -5 5 -5 3 0 5 2 5 5 0 3 -2 5 -5 5 -3 0 -5 -2 -5
-5z"/>
<path d="M260 395 c0 -3 2 -5 5 -5 3 0 5 2 5 5 0 3 -2 5 -5 5 -3 0 -5 -2 -5
-5z"/>
<path d="M790 395 c0 -3 2 -5 5 -5 3 0 5 2 5 5 0 3 -2 5 -5 5 -3 0 -5 -2 -5
-5z"/>
<path d="M900 395 c0 -3 2 -5 5 -5 3 0 5 2 5 5 0 3 -2 5 -5 5 -3 0 -5 -2 -5
-5z"/>
<path d="M150 385 c0 -3 2 -5 5 -5 3 0 5 2 5 5 0 3 -2 5 -5 5 -3 0 -5 -2 -5
-5z"/>
<path d="M100 373 c0 -15 28 -43 43 -43 7 0 4 5 -5 11 -10 5 -22 17 -27 27 -6
9 -11 12 -11 5z"/>
<path d="M420 375 c0 -3 2 -5 5 -5 3 0 5 2 5 5 0 3 -2 5 -5 5 -3 0 -5 -2 -5
-5z"/>
<path d="M570 375 c0 -3 2 -5 5 -5 3 0 5 2 5 5 0 3 -2 5 -5 5 -3 0 -5 -2 -5
-5z"/>
<path d="M740 375 c0 -3 2 -5 5 -5 3 0 5 2 5 5 0 3 -2 5 -5 5 -3 0 -5 -2 -5
-5z"/>
<path d="M890 375 c0 -3 2 -5 5 -5 3 0 5 2 5 5 0 3 -2 5 -5 5 -3 0 -5 -2 -5
-5z"/>
<path d="M240 365 c0 -3 2 -5 5 -5 3 0 5 2 5 5 0 3 -2 5 -5 5 -3 0 -5 -2 -5
-5z"/>
<path d="M430 351 c0 -5 7 -12 16 -15 14 -5 15 -4 4 9 -14 17 -20 19 -20 6z"/>
<path d="M756 345 c4 -8 11 -15 16 -15 6 0 5 6 -2 15 -7 8 -14 15 -16 15 -2 0
-1 -7 2 -15z"/>
<path d="M128 282 c-32 -41 -36 -67 -10 -77 14 -5 15 -4 5 6 -19 19 -16 34 13
69 15 17 25 32 23 34 -2 2 -16 -12 -31 -32z"/>
<path d="M180 315 c0 -3 2 -5 5 -5 3 0 5 2 5 5 0 3 -2 5 -5 5 -3 0 -5 -2 -5
-5z"/>
<path d="M270 315 c0 -3 2 -5 5 -5 3 0 5 2 5 5 0 3 -2 5 -5 5 -3 0 -5 -2 -5
-5z"/>
<path d="M448 282 c-33 -41 -34 -55 -10 -73 14 -11 15 -11 5 1 -19 21 -16 35
13 70 15 17 25 32 23 34 -2 2 -16 -12 -31 -32z"/>
<path d="M500 315 c0 -3 2 -5 5 -5 3 0 5 2 5 5 0 3 -2 5 -5 5 -3 0 -5 -2 -5
-5z"/>
<path d="M590 315 c0 -3 2 -5 5 -5 3 0 5 2 5 5 0 3 -2 5 -5 5 -3 0 -5 -2 -5
-5z"/>
<path d="M768 282 c-33 -41 -34 -55 -10 -73 14 -11 15 -11 5 1 -19 21 -16 35
13 70 15 17 25 32 23 34 -2 2 -16 -12 -31 -32z"/>
<path d="M820 315 c0 -3 2 -5 5 -5 3 0 5 2 5 5 0 3 -2 5 -5 5 -3 0 -5 -2 -5
-5z"/>
<path d="M910 315 c0 -3 2 -5 5 -5 3 0 5 2 5 5 0 3 -2 5 -5 5 -3 0 -5 -2 -5
-5z"/>
<path d="M52 286 c-2 -29 -29 -93 -42 -101 -15 -9 -12 -31 6 -50 12 -12 19
-13 30 -4 16 13 19 69 3 69 -11 0 -5 28 16 72 10 20 10 28 1 31 -7 3 -13 -5
-14 -17z m-8 -105 c3 -5 -1 -11 -9 -14 -9 -4 -12 -1 -8 9 6 16 10 17 17 5z"/>
<path d="M372 282 c-1 -14 -1 -24 1 -21 1 2 8 11 15 20 10 13 10 18 -1 22 -8
3 -14 -4 -15 -21z"/>
<path d="M410 305 c0 -3 2 -5 5 -5 3 0 5 2 5 5 0 3 -2 5 -5 5 -3 0 -5 -2 -5
-5z"/>
<path d="M237 276 c-14 -13 -27 -22 -29 -21 -2 2 -3 -7 -3 -20 0 -13 3 -21 8
-18 4 2 7 11 7 19 0 16 16 19 25 5 6 -10 43 -7 54 5 3 3 -4 14 -16 24 -12 9
-19 20 -16 24 18 18 -8 2 -30 -18z m37 -15 c4 -5 -3 -7 -14 -4 -23 6 -26 13
-6 13 8 0 17 -4 20 -9z"/>
<path d="M556 275 c-14 -13 -26 -30 -26 -37 0 -10 2 -10 9 0 7 11 12 12 29 1
17 -11 23 -10 37 1 16 13 16 15 -4 31 -11 9 -17 19 -14 23 18 18 -8 2 -31 -19z
m38 -14 c4 -5 -3 -7 -14 -4 -23 6 -26 13 -6 13 8 0 17 -4 20 -9z"/>
<path d="M693 285 c-9 -24 1 -27 15 -5 8 13 8 20 2 20 -6 0 -13 -7 -17 -15z"/>
<path d="M877 276 c-14 -13 -27 -22 -29 -21 -2 2 -3 -7 -3 -20 0 -13 3 -21 8
-18 4 2 7 11 7 19 0 16 16 19 25 5 6 -10 43 -7 54 5 3 3 -4 14 -16 24 -12 9
-19 20 -16 24 18 18 -8 2 -30 -18z m37 -15 c4 -5 -3 -7 -14 -4 -23 6 -26 13
-6 13 8 0 17 -4 20 -9z"/>
<path d="M180 285 c0 -3 2 -5 5 -5 3 0 5 2 5 5 0 3 -2 5 -5 5 -3 0 -5 -2 -5
-5z"/>
<path d="M500 285 c0 -3 2 -5 5 -5 3 0 5 2 5 5 0 3 -2 5 -5 5 -3 0 -5 -2 -5
-5z"/>
<path d="M820 285 c0 -3 2 -5 5 -5 3 0 5 2 5 5 0 3 -2 5 -5 5 -3 0 -5 -2 -5
-5z"/>
<path d="M390 255 c0 -3 2 -5 5 -5 3 0 5 2 5 5 0 3 -2 5 -5 5 -3 0 -5 -2 -5
-5z"/>
<path d="M356 234 c-8 -22 -4 -25 11 -9 7 8 9 16 4 19 -5 3 -12 -1 -15 -10z"/>
<path d="M673 236 c-16 -19 -4 -29 13 -11 8 7 14 16 14 19 0 10 -15 6 -27 -8z"/>
<path d="M240 202 c8 -17 17 -21 33 -17 16 5 18 4 8 -3 -8 -6 -10 -15 -5 -23
6 -12 5 -12 -9 0 -10 8 -17 9 -17 3 0 -17 41 -26 51 -11 8 11 12 11 23 -4 19
-25 50 -18 54 11 3 21 1 22 -17 12 -12 -6 -21 -7 -21 -2 0 6 10 13 23 17 19 6
20 8 4 12 -10 3 -24 -1 -32 -7 -12 -10 -18 -10 -30 0 -8 6 -22 10 -32 8 -10
-2 -24 3 -31 12 -11 13 -11 11 -2 -8z"/>
<path d="M515 211 c-6 -5 -21 -11 -34 -13 -35 -5 -49 -32 -27 -53 16 -17 18
-16 39 6 12 13 21 28 19 32 -1 5 3 15 9 23 13 16 8 19 -6 5z m-30 -41 c-3 -5
-11 -10 -16 -10 -6 0 -7 5 -4 10 3 6 11 10 16 10 6 0 7 -4 4 -10z"/>
<path d="M880 202 c8 -17 17 -21 33 -17 16 5 18 4 8 -3 -8 -6 -10 -15 -5 -23
6 -12 5 -12 -9 0 -10 8 -17 9 -17 3 0 -19 39 -24 56 -7 13 13 14 18 3 31 -7 8
-22 14 -33 12 -12 -2 -27 4 -34 12 -11 13 -11 11 -2 -8z"/>
<path d="M561 197 c-1 -14 4 -16 27 -11 19 4 23 3 13 -4 -8 -6 -10 -15 -5 -23
6 -12 5 -12 -9 0 -12 9 -17 10 -17 2 0 -21 30 -24 50 -6 11 10 20 13 20 7 0
-6 7 -18 16 -27 22 -21 44 -3 44 36 0 31 -25 40 -48 17 -8 -8 -15 -8 -27 2 -8
7 -24 10 -34 7 -11 -3 -22 0 -25 7 -2 6 -5 3 -5 -7z m123 -16 c3 -5 -1 -11 -9
-14 -9 -4 -12 -1 -8 9 6 16 10 17 17 5z"/>
<path d="M132 188 c-16 -16 -15 -33 2 -47 17 -15 68 23 59 44 -6 18 -44 20
-61 3z m33 -18 c-3 -5 -11 -10 -16 -10 -6 0 -7 5 -4 10 3 6 11 10 16 10 6 0 7
-4 4 -10z"/>
<path d="M772 188 c-16 -16 -15 -33 2 -47 17 -15 68 23 59 44 -6 18 -44 20
-61 3z m33 -18 c-3 -5 -11 -10 -16 -10 -6 0 -7 5 -4 10 3 6 11 10 16 10 6 0 7
-4 4 -10z"/>
<path d="M534 150 c-12 -5 -25 -14 -29 -20 -4 -7 1 -7 14 2 17 11 25 10 44 -1
21 -14 21 -13 7 5 -8 10 -14 20 -15 20 0 1 -10 -2 -21 -6z"/>
<path d="M226 135 c25 -19 40 -19 24 0 -7 8 -20 15 -28 15 -13 0 -12 -3 4 -15z"/>
<path d="M866 135 c25 -19 40 -19 24 0 -7 8 -20 15 -28 15 -13 0 -12 -3 4 -15z"/>
<path d="M184 128 c-4 -7 -3 -8 4 -4 12 7 16 16 8 16 -3 0 -8 -5 -12 -12z"/>
<path d="M824 128 c-4 -7 -3 -8 4 -4 7 4 12 9 12 12 0 8 -9 4 -16 -8z"/>
<path d="M150 115 c0 -3 2 -5 5 -5 3 0 5 2 5 5 0 3 -2 5 -5 5 -3 0 -5 -2 -5
-5z"/>
<path d="M390 110 c0 -7 3 -10 7 -7 3 4 3 10 0 14 -4 3 -7 0 -7 -7z"/>
<path d="M604 108 c-4 -7 -3 -8 4 -4 12 7 16 16 8 16 -3 0 -8 -5 -12 -12z"/>
<path d="M790 115 c0 -3 2 -5 5 -5 3 0 5 2 5 5 0 3 -2 5 -5 5 -3 0 -5 -2 -5
-5z"/>
<path d="M70 105 c0 -3 2 -5 5 -5 3 0 5 2 5 5 0 3 -2 5 -5 5 -3 0 -5 -2 -5 -5z"/>
<path d="M470 105 c0 -3 2 -5 5 -5 3 0 5 2 5 5 0 3 -2 5 -5 5 -3 0 -5 -2 -5
-5z"/>
<path d="M710 105 c0 -3 2 -5 5 -5 3 0 5 2 5 5 0 3 -2 5 -5 5 -3 0 -5 -2 -5
-5z"/>
<path d="M266 83 c-6 -14 -5 -15 5 -6 7 7 10 15 7 18 -3 3 -9 -2 -12 -12z"/>
<path d="M906 83 c-6 -14 -5 -15 5 -6 7 7 10 15 7 18 -3 3 -9 -2 -12 -12z"/>
<path d="M150 85 c0 -3 2 -5 5 -5 3 0 5 2 5 5 0 3 -2 5 -5 5 -3 0 -5 -2 -5 -5z"/>
<path d="M790 85 c0 -3 2 -5 5 -5 3 0 5 2 5 5 0 3 -2 5 -5 5 -3 0 -5 -2 -5 -5z"/>
<path d="M470 75 c0 -3 2 -5 5 -5 3 0 5 2 5 5 0 3 -2 5 -5 5 -3 0 -5 -2 -5 -5z"/>
<path d="M580 75 c0 -3 2 -5 5 -5 3 0 5 2 5 5 0 3 -2 5 -5 5 -3 0 -5 -2 -5 -5z"/>
<path d="M100 55 c0 -3 2 -5 5 -5 3 0 5 2 5 5 0 3 -2 5 -5 5 -3 0 -5 -2 -5 -5z"/>
<path d="M250 55 c0 -3 2 -5 5 -5 3 0 5 2 5 5 0 3 -2 5 -5 5 -3 0 -5 -2 -5 -5z"/>
<path d="M420 55 c0 -3 2 -5 5 -5 3 0 5 2 5 5 0 3 -2 5 -5 5 -3 0 -5 -2 -5 -5z"/>
<path d="M570 55 c0 -3 2 -5 5 -5 3 0 5 2 5 5 0 3 -2 5 -5 5 -3 0 -5 -2 -5 -5z"/>
<path d="M740 55 c0 -3 2 -5 5 -5 3 0 5 2 5 5 0 3 -2 5 -5 5 -3 0 -5 -2 -5 -5z"/>
<path d="M890 55 c0 -3 2 -5 5 -5 3 0 5 2 5 5 0 3 -2 5 -5 5 -3 0 -5 -2 -5 -5z"/>
<path d="M110 31 c0 -5 7 -12 16 -15 14 -5 15 -4 4 9 -14 17 -20 19 -20 6z"/>
<path d="M436 25 c4 -8 11 -15 16 -15 6 0 5 6 -2 15 -7 8 -14 15 -16 15 -2 0
-1 -7 2 -15z"/>
<path d="M750 31 c0 -5 7 -12 16 -15 14 -5 15 -4 4 9 -14 17 -20 19 -20 6z"/>
</g>
<g transform="translate(0.000000,96.000000) scale(0.100000,-0.100000)"
fill="#1e8c00" stroke="none">
<path d="M128 922 c-33 -41 -34 -55 -10 -73 14 -11 15 -11 5 1 -19 21 -16 35
13 70 15 17 25 32 23 34 -2 2 -16 -12 -31 -32z"/>
<path d="M190 955 c0 -3 2 -5 5 -5 3 0 5 2 5 5 0 3 -2 5 -5 5 -3 0 -5 -2 -5
-5z"/>
<path d="M448 922 c-32 -41 -34 -54 -11 -73 15 -13 15 -12 3 8 -12 19 -11 25
14 58 15 20 26 38 25 40 -2 1 -16 -13 -31 -33z"/>
<path d="M500 955 c0 -3 2 -5 5 -5 3 0 5 2 5 5 0 3 -2 5 -5 5 -3 0 -5 -2 -5
-5z"/>
<path d="M590 955 c0 -3 2 -5 5 -5 3 0 5 2 5 5 0 3 -2 5 -5 5 -3 0 -5 -2 -5
-5z"/>
<path d="M768 922 c-33 -41 -34 -55 -10 -73 14 -11 15 -11 5 1 -19 21 -16 35
13 70 15 17 25 32 23 34 -2 2 -16 -12 -31 -32z"/>
<path d="M820 955 c0 -3 2 -5 5 -5 3 0 5 2 5 5 0 3 -2 5 -5 5 -3 0 -5 -2 -5
-5z"/>
<path d="M910 955 c0 -3 2 -5 5 -5 3 0 5 2 5 5 0 3 -2 5 -5 5 -3 0 -5 -2 -5
-5z"/>
<path d="M90 945 c0 -3 2 -5 5 -5 3 0 5 2 5 5 0 3 -2 5 -5 5 -3 0 -5 -2 -5 -5z"/>
<path d="M692 922 c-1 -14 -1 -24 1 -21 1 2 8 11 15 20 10 13 10 18 -1 22 -8
3 -14 -4 -15 -21z"/>
<path d="M730 945 c0 -3 2 -5 5 -5 3 0 5 2 5 5 0 3 -2 5 -5 5 -3 0 -5 -2 -5
-5z"/>
<path d="M54 923 c-17 -54 -29 -80 -43 -98 -16 -20 -16 -20 6 -1 12 10 28 35
34 55 6 20 16 42 22 49 6 8 6 12 -2 12 -6 0 -14 -8 -17 -17z"/>
<path d="M254 928 c-4 -7 -3 -8 4 -4 12 7 16 16 8 16 -3 0 -8 -5 -12 -12z"/>
<path d="M373 925 c-9 -24 1 -27 15 -5 8 13 8 20 2 20 -6 0 -13 -7 -17 -15z"/>
<path d="M574 928 c-4 -7 -3 -8 4 -4 12 7 16 16 8 16 -3 0 -8 -5 -12 -12z"/>
<path d="M894 928 c-4 -7 -3 -8 4 -4 7 4 12 9 12 12 0 8 -9 4 -16 -8z"/>
<path d="M180 925 c0 -3 2 -5 5 -5 3 0 5 2 5 5 0 3 -2 5 -5 5 -3 0 -5 -2 -5
-5z"/>
<path d="M500 925 c0 -3 2 -5 5 -5 3 0 5 2 5 5 0 3 -2 5 -5 5 -3 0 -5 -2 -5
-5z"/>
<path d="M820 925 c0 -3 2 -5 5 -5 3 0 5 2 5 5 0 3 -2 5 -5 5 -3 0 -5 -2 -5
-5z"/>
<path d="M224 908 c-4 -7 -3 -8 4 -4 12 7 16 16 8 16 -3 0 -8 -5 -12 -12z"/>
<path d="M275 910 c3 -5 8 -10 11 -10 3 0 2 5 -1 10 -3 6 -8 10 -11 10 -3 0
-2 -4 1 -10z"/>
<path d="M544 908 c-4 -7 -3 -8 4 -4 12 7 16 16 8 16 -3 0 -8 -5 -12 -12z"/>
<path d="M595 910 c3 -5 8 -10 11 -10 3 0 2 5 -1 10 -3 6 -8 10 -11 10 -3 0
-2 -4 1 -10z"/>
<path d="M864 908 c-4 -7 -3 -8 4 -4 12 7 16 16 8 16 -3 0 -8 -5 -12 -12z"/>
<path d="M915 910 c3 -5 8 -10 11 -10 3 0 2 5 -1 10 -3 6 -8 10 -11 10 -3 0
-2 -4 1 -10z"/>
<path d="M190 905 c0 -3 2 -5 5 -5 3 0 5 2 5 5 0 3 -2 5 -5 5 -3 0 -5 -2 -5
-5z"/>
<path d="M70 895 c0 -3 2 -5 5 -5 3 0 5 2 5 5 0 3 -2 5 -5 5 -3 0 -5 -2 -5 -5z"/>
<path d="M525 875 c0 -13 3 -21 8 -18 4 2 7 10 7 18 0 8 -3 16 -7 18 -5 3 -8
-5 -8 -18z"/>
<path d="M710 895 c0 -3 2 -5 5 -5 3 0 5 2 5 5 0 3 -2 5 -5 5 -3 0 -5 -2 -5
-5z"/>
<path d="M210 880 c0 -7 3 -10 7 -7 3 4 3 10 0 14 -4 3 -7 0 -7 -7z"/>
<path d="M270 885 c0 -3 2 -5 5 -5 3 0 5 2 5 5 0 3 -2 5 -5 5 -3 0 -5 -2 -5
-5z"/>
<path d="M353 876 c-16 -19 -4 -29 13 -11 8 7 14 16 14 19 0 10 -15 6 -27 -8z"/>
<path d="M590 885 c0 -3 2 -5 5 -5 3 0 5 2 5 5 0 3 -2 5 -5 5 -3 0 -5 -2 -5
-5z"/>
<path d="M676 874 c-8 -22 -4 -25 11 -9 7 8 9 16 4 19 -5 3 -12 -1 -15 -10z"/>
<path d="M850 880 c0 -7 3 -10 7 -7 3 4 3 10 0 14 -4 3 -7 0 -7 -7z"/>
<path d="M910 885 c0 -3 2 -5 5 -5 3 0 5 2 5 5 0 3 -2 5 -5 5 -3 0 -5 -2 -5
-5z"/>
<path d="M200 855 c0 -3 2 -5 5 -5 3 0 5 2 5 5 0 3 -2 5 -5 5 -3 0 -5 -2 -5
-5z"/>
<path d="M236 847 c3 -10 9 -15 12 -12 3 3 0 11 -7 18 -10 9 -11 8 -5 -6z"/>
<path d="M556 847 c3 -10 9 -15 12 -12 3 3 0 11 -7 18 -10 9 -11 8 -5 -6z"/>
<path d="M834 848 c-4 -7 -3 -8 4 -4 12 7 16 16 8 16 -3 0 -8 -5 -12 -12z"/>
<path d="M881 834 c0 -11 3 -14 6 -6 3 7 2 16 -1 19 -3 4 -6 -2 -5 -13z"/>
<path d="M129 823 c-13 -17 -13 -17 6 -3 11 8 22 16 24 17 2 2 0 3 -6 3 -6 0
-17 -8 -24 -17z"/>
<path d="M260 835 c0 -3 2 -5 5 -5 3 0 5 2 5 5 0 3 -2 5 -5 5 -3 0 -5 -2 -5
-5z"/>
<path d="M295 830 c3 -5 8 -10 11 -10 3 0 2 5 -1 10 -3 6 -8 10 -11 10 -3 0
-2 -4 1 -10z"/>
<path d="M329 823 c-13 -16 -12 -17 4 -4 9 7 17 15 17 17 0 8 -8 3 -21 -13z"/>
<path d="M449 823 c-13 -17 -13 -17 6 -3 11 8 22 16 24 17 2 2 0 3 -6 3 -6 0
-17 -8 -24 -17z"/>
<path d="M580 835 c0 -3 2 -5 5 -5 3 0 5 2 5 5 0 3 -2 5 -5 5 -3 0 -5 -2 -5
-5z"/>
<path d="M615 830 c3 -5 8 -10 11 -10 3 0 2 5 -1 10 -3 6 -8 10 -11 10 -3 0
-2 -4 1 -10z"/>
<path d="M649 823 c-13 -16 -12 -17 4 -4 9 7 17 15 17 17 0 8 -8 3 -21 -13z"/>
<path d="M769 823 c-13 -17 -13 -17 6 -3 11 8 22 16 24 17 2 2 0 3 -6 3 -6 0
-17 -8 -24 -17z"/>
<path d="M900 835 c0 -3 2 -5 5 -5 3 0 5 2 5 5 0 3 -2 5 -5 5 -3 0 -5 -2 -5
-5z"/>
<path d="M935 830 c3 -5 8 -10 11 -10 3 0 2 5 -1 10 -3 6 -8 10 -11 10 -3 0
-2 -4 1 -10z"/>
<path d="M169 803 c-13 -16 -12 -17 4 -4 16 13 21 21 13 21 -2 0 -10 -8 -17
-17z"/>
<path d="M489 803 c-13 -16 -12 -17 4 -4 9 7 17 15 17 17 0 8 -8 3 -21 -13z"/>
<path d="M809 803 c-13 -16 -12 -17 4 -4 9 7 17 15 17 17 0 8 -8 3 -21 -13z"/>
<path d="M280 805 c0 -3 2 -5 5 -5 3 0 5 2 5 5 0 3 -2 5 -5 5 -3 0 -5 -2 -5
-5z"/>
<path d="M600 805 c0 -3 2 -5 5 -5 3 0 5 2 5 5 0 3 -2 5 -5 5 -3 0 -5 -2 -5
-5z"/>
<path d="M920 805 c0 -3 2 -5 5 -5 3 0 5 2 5 5 0 3 -2 5 -5 5 -3 0 -5 -2 -5
-5z"/>
<path d="M0 795 c0 -3 2 -5 5 -5 3 0 5 2 5 5 0 3 -2 5 -5 5 -3 0 -5 -2 -5 -5z"/>
<path d="M44 788 c-4 -7 -3 -8 4 -4 12 7 16 16 8 16 -3 0 -8 -5 -12 -12z"/>
<path d="M227 794 c-3 -4 1 -13 9 -21 19 -20 26 -13 10 9 -7 10 -16 15 -19 12z"/>
<path d="M320 795 c0 -3 2 -5 5 -5 3 0 5 2 5 5 0 3 -2 5 -5 5 -3 0 -5 -2 -5
-5z"/>
<path d="M364 788 c-4 -7 -3 -8 4 -4 12 7 16 16 8 16 -3 0 -8 -5 -12 -12z"/>
<path d="M640 795 c0 -3 2 -5 5 -5 3 0 5 2 5 5 0 3 -2 5 -5 5 -3 0 -5 -2 -5
-5z"/>
<path d="M684 788 c-4 -7 -3 -8 4 -4 7 4 12 9 12 12 0 8 -9 4 -16 -8z"/>
<path d="M859 789 c-12 -7 -11 -9 3 -9 9 0 18 -6 21 -12 2 -7 7 -11 10 -8 3 3
0 13 -7 22 -8 11 -17 14 -27 7z"/>
<path d="M189 773 c-13 -16 -12 -17 4 -4 16 13 21 21 13 21 -2 0 -10 -8 -17
-17z"/>
<path d="M546 775 c25 -19 40 -19 24 0 -7 8 -20 15 -28 15 -13 0 -12 -3 4 -15z"/>
<path d="M10 775 c0 -3 2 -5 5 -5 3 0 5 2 5 5 0 3 -2 5 -5 5 -3 0 -5 -2 -5 -5z"/>
<path d="M330 775 c0 -3 2 -5 5 -5 3 0 5 2 5 5 0 3 -2 5 -5 5 -3 0 -5 -2 -5
-5z"/>
<path d="M504 768 c-4 -7 -3 -8 4 -4 12 7 16 16 8 16 -3 0 -8 -5 -12 -12z"/>
<path d="M650 775 c0 -3 2 -5 5 -5 3 0 5 2 5 5 0 3 -2 5 -5 5 -3 0 -5 -2 -5
-5z"/>
<path d="M824 768 c-4 -7 -3 -8 4 -4 12 7 16 16 8 16 -3 0 -8 -5 -12 -12z"/>
<path d="M290 755 c0 -3 2 -5 5 -5 3 0 5 2 5 5 0 3 -2 5 -5 5 -3 0 -5 -2 -5
-5z"/>
<path d="M470 755 c0 -3 2 -5 5 -5 3 0 5 2 5 5 0 3 -2 5 -5 5 -3 0 -5 -2 -5
-5z"/>
<path d="M710 750 c0 -7 3 -10 7 -7 3 4 3 10 0 14 -4 3 -7 0 -7 -7z"/>
<path d="M70 745 c0 -3 2 -5 5 -5 3 0 5 2 5 5 0 3 -2 5 -5 5 -3 0 -5 -2 -5 -5z"/>
<path d="M150 745 c0 -3 2 -5 5 -5 3 0 5 2 5 5 0 3 -2 5 -5 5 -3 0 -5 -2 -5
-5z"/>
<path d="M390 745 c0 -3 2 -5 5 -5 3 0 5 2 5 5 0 3 -2 5 -5 5 -3 0 -5 -2 -5
-5z"/>
<path d="M790 745 c0 -3 2 -5 5 -5 3 0 5 2 5 5 0 3 -2 5 -5 5 -3 0 -5 -2 -5
-5z"/>
<path d="M920 745 c0 -3 2 -5 5 -5 3 0 5 2 5 5 0 3 -2 5 -5 5 -3 0 -5 -2 -5
-5z"/>
<path d="M586 723 c-6 -14 -5 -15 5 -6 7 7 10 15 7 18 -3 3 -9 -2 -12 -12z"/>
<path d="M270 725 c0 -3 2 -5 5 -5 3 0 5 2 5 5 0 3 -2 5 -5 5 -3 0 -5 -2 -5
-5z"/>
<path d="M470 725 c0 -3 2 -5 5 -5 3 0 5 2 5 5 0 3 -2 5 -5 5 -3 0 -5 -2 -5
-5z"/>
<path d="M150 715 c0 -3 2 -5 5 -5 3 0 5 2 5 5 0 3 -2 5 -5 5 -3 0 -5 -2 -5
-5z"/>
<path d="M790 715 c0 -3 2 -5 5 -5 3 0 5 2 5 5 0 3 -2 5 -5 5 -3 0 -5 -2 -5
-5z"/>
<path d="M900 715 c0 -3 2 -5 5 -5 3 0 5 2 5 5 0 3 -2 5 -5 5 -3 0 -5 -2 -5
-5z"/>
<path d="M100 695 c0 -3 2 -5 5 -5 3 0 5 2 5 5 0 3 -2 5 -5 5 -3 0 -5 -2 -5
-5z"/>
<path d="M250 695 c0 -3 2 -5 5 -5 3 0 5 2 5 5 0 3 -2 5 -5 5 -3 0 -5 -2 -5
-5z"/>
<path d="M420 695 c0 -3 2 -5 5 -5 3 0 5 2 5 5 0 3 -2 5 -5 5 -3 0 -5 -2 -5
-5z"/>
<path d="M570 695 c0 -3 2 -5 5 -5 3 0 5 2 5 5 0 3 -2 5 -5 5 -3 0 -5 -2 -5
-5z"/>
<path d="M740 695 c0 -3 2 -5 5 -5 3 0 5 2 5 5 0 3 -2 5 -5 5 -3 0 -5 -2 -5
-5z"/>
<path d="M110 671 c0 -9 30 -24 36 -18 2 1 -6 8 -16 15 -11 7 -20 8 -20 3z"/>
<path d="M430 671 c0 -5 7 -12 16 -15 14 -5 15 -4 4 9 -14 17 -20 19 -20 6z"/>
<path d="M761 663 c7 -12 15 -20 18 -17 3 2 -3 12 -13 22 -17 16 -18 16 -5 -5z"/>
<path d="M128 603 c-33 -42 -34 -56 -10 -74 14 -11 15 -11 5 1 -19 20 -16 33
12 66 21 25 32 45 23 44 -2 -1 -15 -17 -30 -37z"/>
<path d="M180 635 c0 -3 2 -5 5 -5 3 0 5 2 5 5 0 3 -2 5 -5 5 -3 0 -5 -2 -5
-5z"/>
<path d="M270 635 c0 -3 2 -5 5 -5 3 0 5 2 5 5 0 3 -2 5 -5 5 -3 0 -5 -2 -5
-5z"/>
<path d="M448 602 c-32 -41 -34 -54 -11 -73 15 -13 15 -12 3 8 -12 19 -11 25
14 58 15 20 26 38 25 40 -2 1 -16 -13 -31 -33z"/>
<path d="M500 635 c0 -3 2 -5 5 -5 3 0 5 2 5 5 0 3 -2 5 -5 5 -3 0 -5 -2 -5
-5z"/>
<path d="M590 635 c0 -3 2 -5 5 -5 3 0 5 2 5 5 0 3 -2 5 -5 5 -3 0 -5 -2 -5
-5z"/>
<path d="M768 602 c-33 -41 -34 -55 -10 -73 14 -11 15 -11 5 1 -19 21 -16 35
13 70 15 17 25 32 23 34 -2 2 -16 -12 -31 -32z"/>
<path d="M820 635 c0 -3 2 -5 5 -5 3 0 5 2 5 5 0 3 -2 5 -5 5 -3 0 -5 -2 -5
-5z"/>
<path d="M910 635 c0 -3 2 -5 5 -5 3 0 5 2 5 5 0 3 -2 5 -5 5 -3 0 -5 -2 -5
-5z"/>
<path d="M372 602 c-1 -14 -1 -24 1 -21 1 2 8 11 15 20 10 13 10 18 -1 22 -8
3 -14 -4 -15 -21z"/>
<path d="M692 602 c-1 -14 -1 -24 1 -21 1 2 8 11 15 20 10 13 10 18 -1 22 -8
3 -14 -4 -15 -21z"/>
<path d="M730 625 c0 -3 2 -5 5 -5 3 0 5 2 5 5 0 3 -2 5 -5 5 -3 0 -5 -2 -5
-5z"/>
<path d="M54 603 c-17 -54 -29 -80 -43 -98 -16 -20 -16 -20 7 -1 12 11 22 25
22 33 0 7 5 13 11 13 5 0 8 4 5 8 -3 5 1 20 9 35 8 15 9 27 4 27 -5 0 -12 -8
-15 -17z"/>
<path d="M254 608 c-4 -7 -3 -8 4 -4 12 7 16 16 8 16 -3 0 -8 -5 -12 -12z"/>
<path d="M574 608 c-4 -7 -3 -8 4 -4 7 4 12 9 12 12 0 8 -9 4 -16 -8z"/>
<path d="M894 608 c-4 -7 -3 -8 4 -4 7 4 12 9 12 12 0 8 -9 4 -16 -8z"/>
<path d="M500 605 c0 -3 2 -5 5 -5 3 0 5 2 5 5 0 3 -2 5 -5 5 -3 0 -5 -2 -5
-5z"/>
<path d="M820 605 c0 -3 2 -5 5 -5 3 0 5 2 5 5 0 3 -2 5 -5 5 -3 0 -5 -2 -5
-5z"/>
<path d="M224 588 c-4 -7 -3 -8 4 -4 12 7 16 16 8 16 -3 0 -8 -5 -12 -12z"/>
<path d="M275 590 c3 -5 8 -10 11 -10 3 0 2 5 -1 10 -3 6 -8 10 -11 10 -3 0
-2 -4 1 -10z"/>
<path d="M544 588 c-4 -7 -3 -8 4 -4 7 4 12 9 12 12 0 8 -9 4 -16 -8z"/>
<path d="M595 590 c3 -5 8 -10 11 -10 3 0 2 5 -1 10 -3 6 -8 10 -11 10 -3 0
-2 -4 1 -10z"/>
<path d="M864 588 c-4 -7 -3 -8 4 -4 7 4 12 9 12 12 0 8 -9 4 -16 -8z"/>
<path d="M915 590 c3 -5 8 -10 11 -10 3 0 2 5 -1 10 -3 6 -8 10 -11 10 -3 0
-2 -4 1 -10z"/>
<path d="M201 573 c7 -12 15 -20 18 -17 3 2 -3 12 -13 22 -17 16 -18 16 -5 -5z"/>
<path d="M525 555 c0 -13 3 -21 8 -18 4 2 7 10 7 18 0 8 -3 16 -7 18 -5 3 -8
-5 -8 -18z"/>
<path d="M710 575 c0 -3 2 -5 5 -5 3 0 5 2 5 5 0 3 -2 5 -5 5 -3 0 -5 -2 -5
-5z"/>
<path d="M270 565 c0 -3 2 -5 5 -5 3 0 5 2 5 5 0 3 -2 5 -5 5 -3 0 -5 -2 -5
-5z"/>
<path d="M353 556 c-16 -19 -4 -29 13 -11 8 7 14 16 14 19 0 10 -15 6 -27 -8z"/>
<path d="M590 565 c0 -3 2 -5 5 -5 3 0 5 2 5 5 0 3 -2 5 -5 5 -3 0 -5 -2 -5
-5z"/>
<path d="M676 554 c-8 -22 -4 -25 11 -9 7 8 9 16 4 19 -5 3 -12 -1 -15 -10z"/>
<path d="M850 560 c0 -7 3 -10 7 -7 3 4 3 10 0 14 -4 3 -7 0 -7 -7z"/>
<path d="M910 565 c0 -3 2 -5 5 -5 3 0 5 2 5 5 0 3 -2 5 -5 5 -3 0 -5 -2 -5
-5z"/>
<path d="M200 535 c0 -3 2 -5 5 -5 3 0 5 2 5 5 0 3 -2 5 -5 5 -3 0 -5 -2 -5
-5z"/>
<path d="M237 519 c4 -13 8 -18 11 -10 2 7 -1 18 -6 23 -8 8 -9 4 -5 -13z"/>
<path d="M556 527 c3 -10 9 -15 12 -12 3 3 0 11 -7 18 -10 9 -11 8 -5 -6z"/>
<path d="M834 528 c-4 -7 -3 -8 4 -4 7 4 12 9 12 12 0 8 -9 4 -16 -8z"/>
<path d="M881 514 c0 -11 3 -14 6 -6 3 7 2 16 -1 19 -3 4 -6 -2 -5 -13z"/>
<path d="M129 503 c-13 -17 -13 -17 6 -3 11 8 22 16 24 17 2 2 0 3 -6 3 -6 0
-17 -8 -24 -17z"/>
<path d="M260 515 c0 -3 2 -5 5 -5 3 0 5 2 5 5 0 3 -2 5 -5 5 -3 0 -5 -2 -5
-5z"/>
<path d="M295 510 c3 -5 8 -10 11 -10 3 0 2 5 -1 10 -3 6 -8 10 -11 10 -3 0
-2 -4 1 -10z"/>
<path d="M329 503 c-13 -16 -12 -17 4 -4 16 13 21 21 13 21 -2 0 -10 -8 -17
-17z"/>
<path d="M449 503 c-13 -17 -13 -17 6 -3 11 8 22 16 24 17 2 2 0 3 -6 3 -6 0
-17 -8 -24 -17z"/>
<path d="M580 515 c0 -3 2 -5 5 -5 3 0 5 2 5 5 0 3 -2 5 -5 5 -3 0 -5 -2 -5
-5z"/>
<path d="M615 510 c3 -5 8 -10 11 -10 3 0 2 5 -1 10 -3 6 -8 10 -11 10 -3 0
-2 -4 1 -10z"/>
<path d="M649 503 c-13 -16 -12 -17 4 -4 16 13 21 21 13 21 -2 0 -10 -8 -17
-17z"/>
<path d="M769 503 c-13 -17 -13 -17 6 -3 11 8 22 16 24 17 2 2 0 3 -6 3 -6 0
-17 -8 -24 -17z"/>
<path d="M900 515 c0 -3 2 -5 5 -5 3 0 5 2 5 5 0 3 -2 5 -5 5 -3 0 -5 -2 -5
-5z"/>
<path d="M935 510 c3 -5 8 -10 11 -10 3 0 2 5 -1 10 -3 6 -8 10 -11 10 -3 0
-2 -4 1 -10z"/>
<path d="M169 483 c-13 -16 -12 -17 4 -4 9 7 17 15 17 17 0 8 -8 3 -21 -13z"/>
<path d="M489 483 c-13 -16 -12 -17 4 -4 9 7 17 15 17 17 0 8 -8 3 -21 -13z"/>
<path d="M809 483 c-13 -16 -12 -17 4 -4 9 7 17 15 17 17 0 8 -8 3 -21 -13z"/>
<path d="M280 485 c0 -3 2 -5 5 -5 3 0 5 2 5 5 0 3 -2 5 -5 5 -3 0 -5 -2 -5
-5z"/>
<path d="M600 485 c0 -3 2 -5 5 -5 3 0 5 2 5 5 0 3 -2 5 -5 5 -3 0 -5 -2 -5
-5z"/>
<path d="M920 485 c0 -3 2 -5 5 -5 3 0 5 2 5 5 0 3 -2 5 -5 5 -3 0 -5 -2 -5
-5z"/>
<path d="M0 475 c0 -3 2 -5 5 -5 3 0 5 2 5 5 0 3 -2 5 -5 5 -3 0 -5 -2 -5 -5z"/>
<path d="M44 468 c-4 -7 -3 -8 4 -4 7 4 12 9 12 12 0 8 -9 4 -16 -8z"/>
<path d="M230 468 c0 -9 7 -19 16 -22 15 -6 15 -4 3 11 -7 10 -15 20 -16 22
-2 2 -3 -3 -3 -11z"/>
<path d="M320 475 c0 -3 2 -5 5 -5 3 0 5 2 5 5 0 3 -2 5 -5 5 -3 0 -5 -2 -5
-5z"/>
<path d="M364 468 c-4 -7 -3 -8 4 -4 7 4 12 9 12 12 0 8 -9 4 -16 -8z"/>
<path d="M640 475 c0 -3 2 -5 5 -5 3 0 5 2 5 5 0 3 -2 5 -5 5 -3 0 -5 -2 -5
-5z"/>
<path d="M684 468 c-4 -7 -3 -8 4 -4 7 4 12 9 12 12 0 8 -9 4 -16 -8z"/>
<path d="M854 470 c-12 -5 -25 -14 -29 -20 -4 -7 1 -7 14 2 17 11 25 10 44 -1
21 -14 21 -13 7 5 -8 10 -14 20 -15 20 0 1 -10 -2 -21 -6z"/>
<path d="M203 463 c4 -3 10 -3 14 0 3 4 0 7 -7 7 -7 0 -10 -3 -7 -7z"/>
<path d="M546 455 c25 -19 40 -19 24 0 -7 8 -20 15 -28 15 -13 0 -12 -3 4 -15z"/>
<path d="M10 455 c0 -3 2 -5 5 -5 3 0 5 2 5 5 0 3 -2 5 -5 5 -3 0 -5 -2 -5 -5z"/>
<path d="M330 455 c0 -3 2 -5 5 -5 3 0 5 2 5 5 0 3 -2 5 -5 5 -3 0 -5 -2 -5
-5z"/>
<path d="M504 448 c-4 -7 -3 -8 4 -4 12 7 16 16 8 16 -3 0 -8 -5 -12 -12z"/>
<path d="M650 455 c0 -3 2 -5 5 -5 3 0 5 2 5 5 0 3 -2 5 -5 5 -3 0 -5 -2 -5
-5z"/>
<path d="M180 445 c0 -3 2 -5 5 -5 3 0 5 2 5 5 0 3 -2 5 -5 5 -3 0 -5 -2 -5
-5z"/>
<path d="M70 430 c0 -7 3 -10 7 -7 3 4 3 10 0 14 -4 3 -7 0 -7 -7z"/>
<path d="M470 435 c0 -3 2 -5 5 -5 3 0 5 2 5 5 0 3 -2 5 -5 5 -3 0 -5 -2 -5
-5z"/>
<path d="M710 430 c0 -7 3 -10 7 -7 3 4 3 10 0 14 -4 3 -7 0 -7 -7z"/>
<path d="M924 428 c-4 -7 -3 -8 4 -4 7 4 12 9 12 12 0 8 -9 4 -16 -8z"/>
<path d="M150 425 c0 -3 2 -5 5 -5 3 0 5 2 5 5 0 3 -2 5 -5 5 -3 0 -5 -2 -5
-5z"/>
<path d="M390 425 c0 -3 2 -5 5 -5 3 0 5 2 5 5 0 3 -2 5 -5 5 -3 0 -5 -2 -5
-5z"/>
<path d="M790 425 c0 -3 2 -5 5 -5 3 0 5 2 5 5 0 3 -2 5 -5 5 -3 0 -5 -2 -5
-5z"/>
<path d="M586 403 c-6 -14 -5 -15 5 -6 7 7 10 15 7 18 -3 3 -9 -2 -12 -12z"/>
<path d="M150 405 c0 -3 2 -5 5 -5 3 0 5 2 5 5 0 3 -2 5 -5 5 -3 0 -5 -2 -5
-5z"/>
<path d="M470 405 c0 -3 2 -5 5 -5 3 0 5 2 5 5 0 3 -2 5 -5 5 -3 0 -5 -2 -5
-5z"/>
<path d="M260 395 c0 -3 2 -5 5 -5 3 0 5 2 5 5 0 3 -2 5 -5 5 -3 0 -5 -2 -5
-5z"/>
<path d="M790 395 c0 -3 2 -5 5 -5 3 0 5 2 5 5 0 3 -2 5 -5 5 -3 0 -5 -2 -5
-5z"/>
<path d="M900 395 c0 -3 2 -5 5 -5 3 0 5 2 5 5 0 3 -2 5 -5 5 -3 0 -5 -2 -5
-5z"/>
<path d="M150 385 c0 -3 2 -5 5 -5 3 0 5 2 5 5 0 3 -2 5 -5 5 -3 0 -5 -2 -5
-5z"/>
<path d="M100 373 c0 -15 28 -43 43 -43 7 0 4 5 -5 11 -10 5 -22 17 -27 27 -6
9 -11 12 -11 5z"/>
<path d="M420 375 c0 -3 2 -5 5 -5 3 0 5 2 5 5 0 3 -2 5 -5 5 -3 0 -5 -2 -5
-5z"/>
<path d="M570 375 c0 -3 2 -5 5 -5 3 0 5 2 5 5 0 3 -2 5 -5 5 -3 0 -5 -2 -5
-5z"/>
<path d="M740 375 c0 -3 2 -5 5 -5 3 0 5 2 5 5 0 3 -2 5 -5 5 -3 0 -5 -2 -5
-5z"/>
<path d="M890 375 c0 -3 2 -5 5 -5 3 0 5 2 5 5 0 3 -2 5 -5 5 -3 0 -5 -2 -5
-5z"/>
<path d="M240 365 c0 -3 2 -5 5 -5 3 0 5 2 5 5 0 3 -2 5 -5 5 -3 0 -5 -2 -5
-5z"/>
<path d="M430 351 c0 -5 7 -12 16 -15 14 -5 15 -4 4 9 -14 17 -20 19 -20 6z"/>
<path d="M756 345 c4 -8 11 -15 16 -15 6 0 5 6 -2 15 -7 8 -14 15 -16 15 -2 0
-1 -7 2 -15z"/>
<path d="M128 282 c-32 -41 -36 -67 -10 -77 14 -5 15 -4 5 6 -19 19 -16 34 13
69 15 17 25 32 23 34 -2 2 -16 -12 -31 -32z"/>
<path d="M180 315 c0 -3 2 -5 5 -5 3 0 5 2 5 5 0 3 -2 5 -5 5 -3 0 -5 -2 -5
-5z"/>
<path d="M270 315 c0 -3 2 -5 5 -5 3 0 5 2 5 5 0 3 -2 5 -5 5 -3 0 -5 -2 -5
-5z"/>
<path d="M448 282 c-33 -41 -34 -55 -10 -73 14 -11 15 -11 5 1 -19 21 -16 35
13 70 15 17 25 32 23 34 -2 2 -16 -12 -31 -32z"/>
<path d="M500 315 c0 -3 2 -5 5 -5 3 0 5 2 5 5 0 3 -2 5 -5 5 -3 0 -5 -2 -5
-5z"/>
<path d="M590 315 c0 -3 2 -5 5 -5 3 0 5 2 5 5 0 3 -2 5 -5 5 -3 0 -5 -2 -5
-5z"/>
<path d="M768 282 c-33 -41 -34 -55 -10 -73 14 -11 15 -11 5 1 -19 21 -16 35
13 70 15 17 25 32 23 34 -2 2 -16 -12 -31 -32z"/>
<path d="M820 315 c0 -3 2 -5 5 -5 3 0 5 2 5 5 0 3 -2 5 -5 5 -3 0 -5 -2 -5
-5z"/>
<path d="M910 315 c0 -3 2 -5 5 -5 3 0 5 2 5 5 0 3 -2 5 -5 5 -3 0 -5 -2 -5
-5z"/>
<path d="M53 287 c-3 -28 -23 -78 -42 -102 -16 -20 -16 -20 6 -1 12 10 28 35
34 55 6 20 16 41 21 47 5 7 4 14 -5 17 -8 3 -14 -3 -14 -16z"/>
<path d="M372 282 c-1 -14 -1 -24 1 -21 1 2 8 11 15 20 10 13 10 18 -1 22 -8
3 -14 -4 -15 -21z"/>
<path d="M410 305 c0 -3 2 -5 5 -5 3 0 5 2 5 5 0 3 -2 5 -5 5 -3 0 -5 -2 -5
-5z"/>
<path d="M254 288 c-4 -7 -3 -8 4 -4 12 7 16 16 8 16 -3 0 -8 -5 -12 -12z"/>
<path d="M574 288 c-4 -7 -3 -8 4 -4 12 7 16 16 8 16 -3 0 -8 -5 -12 -12z"/>
<path d="M693 285 c-9 -24 1 -27 15 -5 8 13 8 20 2 20 -6 0 -13 -7 -17 -15z"/>
<path d="M894 288 c-4 -7 -3 -8 4 -4 7 4 12 9 12 12 0 8 -9 4 -16 -8z"/>
<path d="M180 285 c0 -3 2 -5 5 -5 3 0 5 2 5 5 0 3 -2 5 -5 5 -3 0 -5 -2 -5
-5z"/>
<path d="M500 285 c0 -3 2 -5 5 -5 3 0 5 2 5 5 0 3 -2 5 -5 5 -3 0 -5 -2 -5
-5z"/>
<path d="M820 285 c0 -3 2 -5 5 -5 3 0 5 2 5 5 0 3 -2 5 -5 5 -3 0 -5 -2 -5
-5z"/>
<path d="M224 268 c-4 -7 -3 -8 4 -4 7 4 12 9 12 12 0 8 -9 4 -16 -8z"/>
<path d="M275 270 c3 -5 8 -10 11 -10 3 0 2 5 -1 10 -3 6 -8 10 -11 10 -3 0
-2 -4 1 -10z"/>
<path d="M544 268 c-4 -7 -3 -8 4 -4 12 7 16 16 8 16 -3 0 -8 -5 -12 -12z"/>
<path d="M595 270 c3 -5 8 -10 11 -10 3 0 2 5 -1 10 -3 6 -8 10 -11 10 -3 0
-2 -4 1 -10z"/>
<path d="M864 268 c-4 -7 -3 -8 4 -4 7 4 12 9 12 12 0 8 -9 4 -16 -8z"/>
<path d="M915 270 c3 -5 8 -10 11 -10 3 0 2 5 -1 10 -3 6 -8 10 -11 10 -3 0
-2 -4 1 -10z"/>
<path d="M205 235 c0 -13 3 -21 8 -18 4 2 7 10 7 18 0 8 -3 16 -7 18 -5 3 -8
-5 -8 -18z"/>
<path d="M390 255 c0 -3 2 -5 5 -5 3 0 5 2 5 5 0 3 -2 5 -5 5 -3 0 -5 -2 -5
-5z"/>
<path d="M845 235 c0 -13 3 -21 8 -18 4 2 7 10 7 18 0 8 -3 16 -7 18 -5 3 -8
-5 -8 -18z"/>
<path d="M270 245 c0 -3 2 -5 5 -5 3 0 5 2 5 5 0 3 -2 5 -5 5 -3 0 -5 -2 -5
-5z"/>
<path d="M356 234 c-8 -22 -4 -25 11 -9 7 8 9 16 4 19 -5 3 -12 -1 -15 -10z"/>
<path d="M530 240 c0 -7 3 -10 7 -7 3 4 3 10 0 14 -4 3 -7 0 -7 -7z"/>
<path d="M590 245 c0 -3 2 -5 5 -5 3 0 5 2 5 5 0 3 -2 5 -5 5 -3 0 -5 -2 -5
-5z"/>
<path d="M673 236 c-16 -19 -4 -29 13 -11 8 7 14 16 14 19 0 10 -15 6 -27 -8z"/>
<path d="M910 245 c0 -3 2 -5 5 -5 3 0 5 2 5 5 0 3 -2 5 -5 5 -3 0 -5 -2 -5
-5z"/>
<path d="M236 207 c3 -10 9 -15 12 -12 3 3 0 11 -7 18 -10 9 -11 8 -5 -6z"/>
<path d="M514 208 c-4 -7 -3 -8 4 -4 12 7 16 16 8 16 -3 0 -8 -5 -12 -12z"/>
<path d="M876 207 c3 -10 9 -15 12 -12 3 3 0 11 -7 18 -10 9 -11 8 -5 -6z"/>
<path d="M561 194 c0 -11 3 -14 6 -6 3 7 2 16 -1 19 -3 4 -6 -2 -5 -13z"/>
<path d="M129 183 c-13 -17 -13 -17 6 -3 11 8 22 16 24 17 2 2 0 3 -6 3 -6 0
-17 -8 -24 -17z"/>
<path d="M260 195 c0 -3 2 -5 5 -5 3 0 5 2 5 5 0 3 -2 5 -5 5 -3 0 -5 -2 -5
-5z"/>
<path d="M295 190 c3 -5 8 -10 11 -10 3 0 2 5 -1 10 -3 6 -8 10 -11 10 -3 0
-2 -4 1 -10z"/>
<path d="M329 183 c-13 -16 -12 -17 4 -4 16 13 21 21 13 21 -2 0 -10 -8 -17
-17z"/>
<path d="M449 183 c-13 -17 -13 -17 6 -3 11 8 22 16 24 17 2 2 0 3 -6 3 -6 0
-17 -8 -24 -17z"/>
<path d="M580 195 c0 -3 2 -5 5 -5 3 0 5 2 5 5 0 3 -2 5 -5 5 -3 0 -5 -2 -5
-5z"/>
<path d="M615 190 c3 -5 8 -10 11 -10 3 0 2 5 -1 10 -3 6 -8 10 -11 10 -3 0
-2 -4 1 -10z"/>
<path d="M649 183 c-13 -16 -12 -17 4 -4 16 13 21 21 13 21 -2 0 -10 -8 -17
-17z"/>
<path d="M769 183 c-13 -17 -13 -17 6 -3 11 8 22 16 24 17 2 2 0 3 -6 3 -6 0
-17 -8 -24 -17z"/>
<path d="M900 195 c0 -3 2 -5 5 -5 3 0 5 2 5 5 0 3 -2 5 -5 5 -3 0 -5 -2 -5
-5z"/>
<path d="M935 190 c3 -5 8 -10 11 -10 3 0 2 5 -1 10 -3 6 -8 10 -11 10 -3 0
-2 -4 1 -10z"/>
<path d="M169 163 c-13 -16 -12 -17 4 -4 16 13 21 21 13 21 -2 0 -10 -8 -17
-17z"/>
<path d="M489 163 c-13 -16 -12 -17 4 -4 9 7 17 15 17 17 0 8 -8 3 -21 -13z"/>
<path d="M809 163 c-13 -16 -12 -17 4 -4 9 7 17 15 17 17 0 8 -8 3 -21 -13z"/>
<path d="M280 165 c0 -3 2 -5 5 -5 3 0 5 2 5 5 0 3 -2 5 -5 5 -3 0 -5 -2 -5
-5z"/>
<path d="M600 165 c0 -3 2 -5 5 -5 3 0 5 2 5 5 0 3 -2 5 -5 5 -3 0 -5 -2 -5
-5z"/>
<path d="M920 165 c0 -3 2 -5 5 -5 3 0 5 2 5 5 0 3 -2 5 -5 5 -3 0 -5 -2 -5
-5z"/>
<path d="M0 155 c0 -3 2 -5 5 -5 3 0 5 2 5 5 0 3 -2 5 -5 5 -3 0 -5 -2 -5 -5z"/>
<path d="M44 148 c-4 -7 -3 -8 4 -4 12 7 16 16 8 16 -3 0 -8 -5 -12 -12z"/>
<path d="M320 155 c0 -3 2 -5 5 -5 3 0 5 2 5 5 0 3 -2 5 -5 5 -3 0 -5 -2 -5
-5z"/>
<path d="M364 148 c-4 -7 -3 -8 4 -4 7 4 12 9 12 12 0 8 -9 4 -16 -8z"/>
<path d="M534 150 c-12 -5 -25 -14 -29 -20 -4 -7 1 -7 14 2 17 11 25 10 44 -1
21 -14 21 -13 7 5 -8 10 -14 20 -15 20 0 1 -10 -2 -21 -6z"/>
<path d="M640 155 c0 -3 2 -5 5 -5 3 0 5 2 5 5 0 3 -2 5 -5 5 -3 0 -5 -2 -5
-5z"/>
<path d="M684 148 c-4 -7 -3 -8 4 -4 7 4 12 9 12 12 0 8 -9 4 -16 -8z"/>
<path d="M226 135 c25 -19 40 -19 24 0 -7 8 -20 15 -28 15 -13 0 -12 -3 4 -15z"/>
<path d="M866 135 c25 -19 40 -19 24 0 -7 8 -20 15 -28 15 -13 0 -12 -3 4 -15z"/>
<path d="M10 135 c0 -3 2 -5 5 -5 3 0 5 2 5 5 0 3 -2 5 -5 5 -3 0 -5 -2 -5 -5z"/>
<path d="M184 128 c-4 -7 -3 -8 4 -4 12 7 16 16 8 16 -3 0 -8 -5 -12 -12z"/>
<path d="M330 135 c0 -3 2 -5 5 -5 3 0 5 2 5 5 0 3 -2 5 -5 5 -3 0 -5 -2 -5
-5z"/>
<path d="M650 135 c0 -3 2 -5 5 -5 3 0 5 2 5 5 0 3 -2 5 -5 5 -3 0 -5 -2 -5
-5z"/>
<path d="M824 128 c-4 -7 -3 -8 4 -4 7 4 12 9 12 12 0 8 -9 4 -16 -8z"/>
<path d="M150 115 c0 -3 2 -5 5 -5 3 0 5 2 5 5 0 3 -2 5 -5 5 -3 0 -5 -2 -5
-5z"/>
<path d="M390 110 c0 -7 3 -10 7 -7 3 4 3 10 0 14 -4 3 -7 0 -7 -7z"/>
<path d="M604 108 c-4 -7 -3 -8 4 -4 12 7 16 16 8 16 -3 0 -8 -5 -12 -12z"/>
<path d="M790 115 c0 -3 2 -5 5 -5 3 0 5 2 5 5 0 3 -2 5 -5 5 -3 0 -5 -2 -5
-5z"/>
<path d="M70 105 c0 -3 2 -5 5 -5 3 0 5 2 5 5 0 3 -2 5 -5 5 -3 0 -5 -2 -5 -5z"/>
<path d="M470 105 c0 -3 2 -5 5 -5 3 0 5 2 5 5 0 3 -2 5 -5 5 -3 0 -5 -2 -5
-5z"/>
<path d="M710 105 c0 -3 2 -5 5 -5 3 0 5 2 5 5 0 3 -2 5 -5 5 -3 0 -5 -2 -5
-5z"/>
<path d="M266 83 c-6 -14 -5 -15 5 -6 7 7 10 15 7 18 -3 3 -9 -2 -12 -12z"/>
<path d="M906 83 c-6 -14 -5 -15 5 -6 7 7 10 15 7 18 -3 3 -9 -2 -12 -12z"/>
<path d="M150 85 c0 -3 2 -5 5 -5 3 0 5 2 5 5 0 3 -2 5 -5 5 -3 0 -5 -2 -5 -5z"/>
<path d="M790 85 c0 -3 2 -5 5 -5 3 0 5 2 5 5 0 3 -2 5 -5 5 -3 0 -5 -2 -5 -5z"/>
<path d="M470 75 c0 -3 2 -5 5 -5 3 0 5 2 5 5 0 3 -2 5 -5 5 -3 0 -5 -2 -5 -5z"/>
<path d="M580 75 c0 -3 2 -5 5 -5 3 0 5 2 5 5 0 3 -2 5 -5 5 -3 0 -5 -2 -5 -5z"/>
<path d="M100 55 c0 -3 2 -5 5 -5 3 0 5 2 5 5 0 3 -2 5 -5 5 -3 0 -5 -2 -5 -5z"/>
<path d="M250 55 c0 -3 2 -5 5 -5 3 0 5 2 5 5 0 3 -2 5 -5 5 -3 0 -5 -2 -5 -5z"/>
<path d="M420 55 c0 -3 2 -5 5 -5 3 0 5 2 5 5 0 3 -2 5 -5 5 -3 0 -5 -2 -5 -5z"/>
<path d="M570 55 c0 -3 2 -5 5 -5 3 0 5 2 5 5 0 3 -2 5 -5 5 -3 0 -5 -2 -5 -5z"/>
<path d="M740 55 c0 -3 2 -5 5 -5 3 0 5 2 5 5 0 3 -2 5 -5 5 -3 0 -5 -2 -5 -5z"/>
<path d="M890 55 c0 -3 2 -5 5 -5 3 0 5 2 5 5 0 3 -2 5 -5 5 -3 0 -5 -2 -5 -5z"/>
<path d="M110 31 c0 -5 7 -12 16 -15 14 -5 15 -4 4 9 -14 17 -20 19 -20 6z"/>
<path d="M436 25 c4 -8 11 -15 16 -15 6 0 5 6 -2 15 -7 8 -14 15 -16 15 -2 0
-1 -7 2 -15z"/>
<path d="M750 31 c0 -5 7 -12 16 -15 14 -5 15 -4 4 9 -14 17 -20 19 -20 6z"/>
</g>
<g transform="translate(0.000000,96.000000) scale(0.100000,-0.100000)"
fill="#f74540" stroke="none">
<path d="M224 908 c-4 -7 -3 -8 4 -4 12 7 16 16 8 16 -3 0 -8 -5 -12 -12z"/>
<path d="M275 910 c3 -5 8 -10 11 -10 3 0 2 5 -1 10 -3 6 -8 10 -11 10 -3 0
-2 -4 1 -10z"/>
<path d="M544 908 c-4 -7 -3 -8 4 -4 12 7 16 16 8 16 -3 0 -8 -5 -12 -12z"/>
<path d="M595 910 c3 -5 8 -10 11 -10 3 0 2 5 -1 10 -3 6 -8 10 -11 10 -3 0
-2 -4 1 -10z"/>
<path d="M864 908 c-4 -7 -3 -8 4 -4 12 7 16 16 8 16 -3 0 -8 -5 -12 -12z"/>
<path d="M915 910 c3 -5 8 -10 11 -10 3 0 2 5 -1 10 -3 6 -8 10 -11 10 -3 0
-2 -4 1 -10z"/>
<path d="M270 885 c0 -3 2 -5 5 -5 3 0 5 2 5 5 0 3 -2 5 -5 5 -3 0 -5 -2 -5
-5z"/>
<path d="M590 885 c0 -3 2 -5 5 -5 3 0 5 2 5 5 0 3 -2 5 -5 5 -3 0 -5 -2 -5
-5z"/>
<path d="M910 885 c0 -3 2 -5 5 -5 3 0 5 2 5 5 0 3 -2 5 -5 5 -3 0 -5 -2 -5
-5z"/>
<path d="M9 823 c-13 -16 -12 -17 4 -4 9 7 17 15 17 17 0 8 -8 3 -21 -13z"/>
<path d="M129 823 c-13 -17 -13 -17 6 -3 11 8 22 16 24 17 2 2 0 3 -6 3 -6 0
-17 -8 -24 -17z"/>
<path d="M260 835 c0 -3 2 -5 5 -5 3 0 5 2 5 5 0 3 -2 5 -5 5 -3 0 -5 -2 -5
-5z"/>
<path d="M295 830 c3 -5 8 -10 11 -10 3 0 2 5 -1 10 -3 6 -8 10 -11 10 -3 0
-2 -4 1 -10z"/>
<path d="M329 823 c-13 -16 -12 -17 4 -4 9 7 17 15 17 17 0 8 -8 3 -21 -13z"/>
<path d="M449 823 c-13 -17 -13 -17 6 -3 11 8 22 16 24 17 2 2 0 3 -6 3 -6 0
-17 -8 -24 -17z"/>
<path d="M580 835 c0 -3 2 -5 5 -5 3 0 5 2 5 5 0 3 -2 5 -5 5 -3 0 -5 -2 -5
-5z"/>
<path d="M615 830 c3 -5 8 -10 11 -10 3 0 2 5 -1 10 -3 6 -8 10 -11 10 -3 0
-2 -4 1 -10z"/>
<path d="M649 823 c-13 -16 -12 -17 4 -4 9 7 17 15 17 17 0 8 -8 3 -21 -13z"/>
<path d="M769 823 c-13 -17 -13 -17 6 -3 11 8 22 16 24 17 2 2 0 3 -6 3 -6 0
-17 -8 -24 -17z"/>
<path d="M900 835 c0 -3 2 -5 5 -5 3 0 5 2 5 5 0 3 -2 5 -5 5 -3 0 -5 -2 -5
-5z"/>
<path d="M935 830 c3 -5 8 -10 11 -10 3 0 2 5 -1 10 -3 6 -8 10 -11 10 -3 0
-2 -4 1 -10z"/>
<path d="M169 803 c-13 -16 -12 -17 4 -4 16 13 21 21 13 21 -2 0 -10 -8 -17
-17z"/>
<path d="M489 803 c-13 -16 -12 -17 4 -4 9 7 17 15 17 17 0 8 -8 3 -21 -13z"/>
<path d="M809 803 c-13 -16 -12 -17 4 -4 9 7 17 15 17 17 0 8 -8 3 -21 -13z"/>
<path d="M280 805 c0 -3 2 -5 5 -5 3 0 5 2 5 5 0 3 -2 5 -5 5 -3 0 -5 -2 -5
-5z"/>
<path d="M600 805 c0 -3 2 -5 5 -5 3 0 5 2 5 5 0 3 -2 5 -5 5 -3 0 -5 -2 -5
-5z"/>
<path d="M920 805 c0 -3 2 -5 5 -5 3 0 5 2 5 5 0 3 -2 5 -5 5 -3 0 -5 -2 -5
-5z"/>
<path d="M0 795 c0 -3 2 -5 5 -5 3 0 5 2 5 5 0 3 -2 5 -5 5 -3 0 -5 -2 -5 -5z"/>
<path d="M44 788 c-4 -7 -3 -8 4 -4 12 7 16 16 8 16 -3 0 -8 -5 -12 -12z"/>
<path d="M320 795 c0 -3 2 -5 5 -5 3 0 5 2 5 5 0 3 -2 5 -5 5 -3 0 -5 -2 -5
-5z"/>
<path d="M364 788 c-4 -7 -3 -8 4 -4 12 7 16 16 8 16 -3 0 -8 -5 -12 -12z"/>
<path d="M640 795 c0 -3 2 -5 5 -5 3 0 5 2 5 5 0 3 -2 5 -5 5 -3 0 -5 -2 -5
-5z"/>
<path d="M684 788 c-4 -7 -3 -8 4 -4 7 4 12 9 12 12 0 8 -9 4 -16 -8z"/>
<path d="M10 775 c0 -3 2 -5 5 -5 3 0 5 2 5 5 0 3 -2 5 -5 5 -3 0 -5 -2 -5 -5z"/>
<path d="M330 775 c0 -3 2 -5 5 -5 3 0 5 2 5 5 0 3 -2 5 -5 5 -3 0 -5 -2 -5
-5z"/>
<path d="M650 775 c0 -3 2 -5 5 -5 3 0 5 2 5 5 0 3 -2 5 -5 5 -3 0 -5 -2 -5
-5z"/>
<path d="M224 588 c-4 -7 -3 -8 4 -4 12 7 16 16 8 16 -3 0 -8 -5 -12 -12z"/>
<path d="M275 590 c3 -5 8 -10 11 -10 3 0 2 5 -1 10 -3 6 -8 10 -11 10 -3 0
-2 -4 1 -10z"/>
<path d="M544 588 c-4 -7 -3 -8 4 -4 7 4 12 9 12 12 0 8 -9 4 -16 -8z"/>
<path d="M595 590 c3 -5 8 -10 11 -10 3 0 2 5 -1 10 -3 6 -8 10 -11 10 -3 0
-2 -4 1 -10z"/>
<path d="M864 588 c-4 -7 -3 -8 4 -4 7 4 12 9 12 12 0 8 -9 4 -16 -8z"/>
<path d="M915 590 c3 -5 8 -10 11 -10 3 0 2 5 -1 10 -3 6 -8 10 -11 10 -3 0
-2 -4 1 -10z"/>
<path d="M270 565 c0 -3 2 -5 5 -5 3 0 5 2 5 5 0 3 -2 5 -5 5 -3 0 -5 -2 -5
-5z"/>
<path d="M590 565 c0 -3 2 -5 5 -5 3 0 5 2 5 5 0 3 -2 5 -5 5 -3 0 -5 -2 -5
-5z"/>
<path d="M910 565 c0 -3 2 -5 5 -5 3 0 5 2 5 5 0 3 -2 5 -5 5 -3 0 -5 -2 -5
-5z"/>
<path d="M9 503 c-13 -16 -12 -17 4 -4 9 7 17 15 17 17 0 8 -8 3 -21 -13z"/>
<path d="M129 503 c-13 -17 -13 -17 6 -3 11 8 22 16 24 17 2 2 0 3 -6 3 -6 0
-17 -8 -24 -17z"/>
<path d="M260 515 c0 -3 2 -5 5 -5 3 0 5 2 5 5 0 3 -2 5 -5 5 -3 0 -5 -2 -5
-5z"/>
<path d="M295 510 c3 -5 8 -10 11 -10 3 0 2 5 -1 10 -3 6 -8 10 -11 10 -3 0
-2 -4 1 -10z"/>
<path d="M329 503 c-13 -16 -12 -17 4 -4 16 13 21 21 13 21 -2 0 -10 -8 -17
-17z"/>
<path d="M449 503 c-13 -17 -13 -17 6 -3 11 8 22 16 24 17 2 2 0 3 -6 3 -6 0
-17 -8 -24 -17z"/>
<path d="M580 515 c0 -3 2 -5 5 -5 3 0 5 2 5 5 0 3 -2 5 -5 5 -3 0 -5 -2 -5
-5z"/>
<path d="M615 510 c3 -5 8 -10 11 -10 3 0 2 5 -1 10 -3 6 -8 10 -11 10 -3 0
-2 -4 1 -10z"/>
<path d="M649 503 c-13 -16 -12 -17 4 -4 16 13 21 21 13 21 -2 0 -10 -8 -17
-17z"/>
<path d="M769 503 c-13 -17 -13 -17 6 -3 11 8 22 16 24 17 2 2 0 3 -6 3 -6 0
-17 -8 -24 -17z"/>
<path d="M900 515 c0 -3 2 -5 5 -5 3 0 5 2 5 5 0 3 -2 5 -5 5 -3 0 -5 -2 -5
-5z"/>
<path d="M935 510 c3 -5 8 -10 11 -10 3 0 2 5 -1 10 -3 6 -8 10 -11 10 -3 0
-2 -4 1 -10z"/>
<path d="M169 483 c-13 -16 -12 -17 4 -4 9 7 17 15 17 17 0 8 -8 3 -21 -13z"/>
<path d="M489 483 c-13 -16 -12 -17 4 -4 9 7 17 15 17 17 0 8 -8 3 -21 -13z"/>
<path d="M809 483 c-13 -16 -12 -17 4 -4 9 7 17 15 17 17 0 8 -8 3 -21 -13z"/>
<path d="M280 485 c0 -3 2 -5 5 -5 3 0 5 2 5 5 0 3 -2 5 -5 5 -3 0 -5 -2 -5
-5z"/>
<path d="M600 485 c0 -3 2 -5 5 -5 3 0 5 2 5 5 0 3 -2 5 -5 5 -3 0 -5 -2 -5
-5z"/>
<path d="M920 485 c0 -3 2 -5 5 -5 3 0 5 2 5 5 0 3 -2 5 -5 5 -3 0 -5 -2 -5
-5z"/>
<path d="M0 475 c0 -3 2 -5 5 -5 3 0 5 2 5 5 0 3 -2 5 -5 5 -3 0 -5 -2 -5 -5z"/>
<path d="M44 468 c-4 -7 -3 -8 4 -4 7 4 12 9 12 12 0 8 -9 4 -16 -8z"/>
<path d="M320 475 c0 -3 2 -5 5 -5 3 0 5 2 5 5 0 3 -2 5 -5 5 -3 0 -5 -2 -5
-5z"/>
<path d="M364 468 c-4 -7 -3 -8 4 -4 7 4 12 9 12 12 0 8 -9 4 -16 -8z"/>
<path d="M640 475 c0 -3 2 -5 5 -5 3 0 5 2 5 5 0 3 -2 5 -5 5 -3 0 -5 -2 -5
-5z"/>
<path d="M684 468 c-4 -7 -3 -8 4 -4 7 4 12 9 12 12 0 8 -9 4 -16 -8z"/>
<path d="M10 455 c0 -3 2 -5 5 -5 3 0 5 2 5 5 0 3 -2 5 -5 5 -3 0 -5 -2 -5 -5z"/>
<path d="M330 455 c0 -3 2 -5 5 -5 3 0 5 2 5 5 0 3 -2 5 -5 5 -3 0 -5 -2 -5
-5z"/>
<path d="M650 455 c0 -3 2 -5 5 -5 3 0 5 2 5 5 0 3 -2 5 -5 5 -3 0 -5 -2 -5
-5z"/>
<path d="M224 268 c-4 -7 -3 -8 4 -4 7 4 12 9 12 12 0 8 -9 4 -16 -8z"/>
<path d="M275 270 c3 -5 8 -10 11 -10 3 0 2 5 -1 10 -3 6 -8 10 -11 10 -3 0
-2 -4 1 -10z"/>
<path d="M544 268 c-4 -7 -3 -8 4 -4 12 7 16 16 8 16 -3 0 -8 -5 -12 -12z"/>
<path d="M595 270 c3 -5 8 -10 11 -10 3 0 2 5 -1 10 -3 6 -8 10 -11 10 -3 0
-2 -4 1 -10z"/>
<path d="M864 268 c-4 -7 -3 -8 4 -4 7 4 12 9 12 12 0 8 -9 4 -16 -8z"/>
<path d="M915 270 c3 -5 8 -10 11 -10 3 0 2 5 -1 10 -3 6 -8 10 -11 10 -3 0
-2 -4 1 -10z"/>
<path d="M270 245 c0 -3 2 -5 5 -5 3 0 5 2 5 5 0 3 -2 5 -5 5 -3 0 -5 -2 -5
-5z"/>
<path d="M590 245 c0 -3 2 -5 5 -5 3 0 5 2 5 5 0 3 -2 5 -5 5 -3 0 -5 -2 -5
-5z"/>
<path d="M910 245 c0 -3 2 -5 5 -5 3 0 5 2 5 5 0 3 -2 5 -5 5 -3 0 -5 -2 -5
-5z"/>
<path d="M9 183 c-13 -16 -12 -17 4 -4 9 7 17 15 17 17 0 8 -8 3 -21 -13z"/>
<path d="M129 183 c-13 -17 -13 -17 6 -3 11 8 22 16 24 17 2 2 0 3 -6 3 -6 0
-17 -8 -24 -17z"/>
<path d="M260 195 c0 -3 2 -5 5 -5 3 0 5 2 5 5 0 3 -2 5 -5 5 -3 0 -5 -2 -5
-5z"/>
<path d="M295 190 c3 -5 8 -10 11 -10 3 0 2 5 -1 10 -3 6 -8 10 -11 10 -3 0
-2 -4 1 -10z"/>
<path d="M329 183 c-13 -16 -12 -17 4 -4 16 13 21 21 13 21 -2 0 -10 -8 -17
-17z"/>
<path d="M449 183 c-13 -17 -13 -17 6 -3 11 8 22 16 24 17 2 2 0 3 -6 3 -6 0
-17 -8 -24 -17z"/>
<path d="M580 195 c0 -3 2 -5 5 -5 3 0 5 2 5 5 0 3 -2 5 -5 5 -3 0 -5 -2 -5
-5z"/>
<path d="M615 190 c3 -5 8 -10 11 -10 3 0 2 5 -1 10 -3 6 -8 10 -11 10 -3 0
-2 -4 1 -10z"/>
<path d="M649 183 c-13 -16 -12 -17 4 -4 16 13 21 21 13 21 -2 0 -10 -8 -17
-17z"/>
<path d="M769 183 c-13 -17 -13 -17 6 -3 11 8 22 16 24 17 2 2 0 3 -6 3 -6 0
-17 -8 -24 -17z"/>
<path d="M900 195 c0 -3 2 -5 5 -5 3 0 5 2 5 5 0 3 -2 5 -5 5 -3 0 -5 -2 -5
-5z"/>
<path d="M935 190 c3 -5 8 -10 11 -10 3 0 2 5 -1 10 -3 6 -8 10 -11 10 -3 0
-2 -4 1 -10z"/>
<path d="M169 163 c-13 -16 -12 -17 4 -4 16 13 21 21 13 21 -2 0 -10 -8 -17
-17z"/>
<path d="M489 163 c-13 -16 -12 -17 4 -4 9 7 17 15 17 17 0 8 -8 3 -21 -13z"/>
<path d="M809 163 c-13 -16 -12 -17 4 -4 9 7 17 15 17 17 0 8 -8 3 -21 -13z"/>
<path d="M280 165 c0 -3 2 -5 5 -5 3 0 5 2 5 5 0 3 -2 5 -5 5 -3 0 -5 -2 -5
-5z"/>
<path d="M600 165 c0 -3 2 -5 5 -5 3 0 5 2 5 5 0 3 -2 5 -5 5 -3 0 -5 -2 -5
-5z"/>
<path d="M920 165 c0 -3 2 -5 5 -5 3 0 5 2 5 5 0 3 -2 5 -5 5 -3 0 -5 -2 -5
-5z"/>
<path d="M0 155 c0 -3 2 -5 5 -5 3 0 5 2 5 5 0 3 -2 5 -5 5 -3 0 -5 -2 -5 -5z"/>
<path d="M44 148 c-4 -7 -3 -8 4 -4 12 7 16 16 8 16 -3 0 -8 -5 -12 -12z"/>
<path d="M320 155 c0 -3 2 -5 5 -5 3 0 5 2 5 5 0 3 -2 5 -5 5 -3 0 -5 -2 -5
-5z"/>
<path d="M364 148 c-4 -7 -3 -8 4 -4 7 4 12 9 12 12 0 8 -9 4 -16 -8z"/>
<path d="M640 155 c0 -3 2 -5 5 -5 3 0 5 2 5 5 0 3 -2 5 -5 5 -3 0 -5 -2 -5
-5z"/>
<path d="M684 148 c-4 -7 -3 -8 4 -4 7 4 12 9 12 12 0 8 -9 4 -16 -8z"/>
<path d="M10 135 c0 -3 2 -5 5 -5 3 0 5 2 5 5 0 3 -2 5 -5 5 -3 0 -5 -2 -5 -5z"/>
<path d="M330 135 c0 -3 2 -5 5 -5 3 0 5 2 5 5 0 3 -2 5 -5 5 -3 0 -5 -2 -5
-5z"/>
<path d="M650 135 c0 -3 2 -5 5 -5 3 0 5 2 5 5 0 3 -2 5 -5 5 -3 0 -5 -2 -5
-5z"/>
</g>
  </g>
</svg>
