<?xml version="1.0" encoding="UTF-8" standalone="no"?>
<!-- Created with Inkscape (http://www.inkscape.org/) -->

<svg
   xmlns:dc="http://purl.org/dc/elements/1.1/"
   xmlns:cc="http://creativecommons.org/ns#"
   xmlns:rdf="http://www.w3.org/1999/02/22-rdf-syntax-ns#"
   xmlns:svg="http://www.w3.org/2000/svg"
   xmlns="http://www.w3.org/2000/svg"
   xmlns:sodipodi="http://sodipodi.sourceforge.net/DTD/sodipodi-0.dtd"
   xmlns:inkscape="http://www.inkscape.org/namespaces/inkscape"
   width="16px"
   height="16px"
   viewBox="0 0 16px 16px"
   version="1.1"
   id="svgMain"
   inkscape:version="0.92.2 (5c3e80d, 2017-08-06)"
   sodipodi:docname="reference_SVG.svg">
  <defs
     id="defs4542" />
  <sodipodi:namedview
     id="base"
     pagecolor="#ffffff"
     bordercolor="#666666"
     borderopacity="1.0"
     inkscape:pageopacity="0.0"
     inkscape:pageshadow="2"
     inkscape:zoom="1"
     inkscape:cx="0"
     inkscape:cy="0"
     inkscape:document-units="px"
     inkscape:current-layer="layer1"
     showgrid="false"
     units="px"
     inkscape:window-width="1024"
     inkscape:window-height="768"
     inkscape:window-x="-8"
     inkscape:window-y="-8"
     inkscape:window-maximized="1" />
  <metadata
     id="metadata1">
    <rdf:RDF>
      <cc:Work
         rdf:about="">
        <dc:format>image/svg+xml</dc:format>
        <dc:type
           rdf:resource="http://purl.org/dc/dcmitype/StillImage" />
        <dc:title />
      </cc:Work>
    </rdf:RDF>
  </metadata>
  <g transform="translate(-16,-16) scale(0.5,0.5)"
     inkscape:label="Layer 1"
     inkscape:groupmode="layer"
     id="layer1">
    <!-- INSERT MARKER -->
<g transform="translate(0.000000,96.000000) scale(0.100000,-0.100000)"
fill="#717171" stroke="none">
<path d="M0 480 l0 -480 480 0 480 0 0 480 0 480 -480 0 -480 0 0 -480z"/>
</g>
<g transform="translate(0.000000,96.000000) scale(0.100000,-0.100000)"
fill="#8d8d8d" stroke="none">
<path d="M4 948 c-4 -7 -3 -8 4 -4 12 7 16 16 8 16 -3 0 -8 -5 -12 -12z"/>
<path d="M90 955 c0 -3 2 -5 5 -5 3 0 5 2 5 5 0 3 -2 5 -5 5 -3 0 -5 -2 -5 -5z"/>
<path d="M110 949 c0 -7 -10 -9 -25 -7 -14 3 -28 1 -31 -4 -3 -5 -13 -7 -21
-4 -8 4 -11 1 -8 -5 4 -6 13 -8 21 -5 7 3 16 1 19 -4 7 -11 36 -2 50 15 6 6
17 14 25 18 10 4 8 6 -7 6 -13 1 -23 -4 -23 -10z"/>
<path d="M182 932 c-20 -39 -26 -61 -14 -44 5 7 26 19 46 26 l36 13 -22 19
c-13 12 -18 13 -13 4 7 -12 6 -13 -6 -3 -11 9 -17 6 -27 -15z"/>
<path d="M280 955 c0 -3 2 -5 5 -5 3 0 5 2 5 5 0 3 -2 5 -5 5 -3 0 -5 -2 -5
-5z"/>
<path d="M310 948 c0 -4 4 -8 9 -8 6 0 12 4 15 8 3 5 -1 9 -9 9 -8 0 -15 -4
-15 -9z"/>
<path d="M390 955 c0 -3 2 -5 5 -5 3 0 5 2 5 5 0 3 -2 5 -5 5 -3 0 -5 -2 -5
-5z"/>
<path d="M410 955 c0 -8 29 -12 39 -5 9 5 4 8 -13 8 -14 0 -26 -2 -26 -3z"/>
<path d="M503 947 c1 -41 -4 -58 -15 -51 -7 4 -3 -4 10 -18 26 -29 52 -32 52
-7 0 12 -5 16 -14 13 -14 -5 -33 13 -23 22 5 5 30 11 51 13 15 1 -27 37 -45
38 -9 1 -16 -4 -16 -10z m7 -62 c0 -3 -2 -5 -5 -5 -3 0 -5 2 -5 5 0 3 2 5 5 5
3 0 5 -2 5 -5z"/>
<path d="M639 943 c12 -8 25 -12 28 -9 4 3 1 6 -6 6 -7 0 -10 4 -7 8 2 4 -5 9
-16 9 -21 2 -21 2 1 -14z"/>
<path d="M730 953 c0 -7 -12 -13 -26 -13 -28 0 -25 -15 5 -23 29 -7 45 7 32
29 -6 11 -11 13 -11 7z"/>
<path d="M750 951 c0 -5 9 -7 20 -4 11 3 20 7 20 9 0 2 -9 4 -20 4 -11 0 -20
-4 -20 -9z"/>
<path d="M827 945 c3 -8 -2 -22 -12 -31 -14 -15 -14 -18 0 -34 8 -9 12 -19 9
-23 -4 -4 3 -5 14 -2 12 2 25 -1 28 -7 4 -6 3 -8 -2 -5 -6 3 -10 -4 -11 -16 0
-12 1 -17 3 -11 5 13 54 6 54 -7 0 -5 -5 -8 -11 -6 -24 5 -19 -21 5 -27 33 -8
55 2 53 24 -1 10 -5 16 -9 14 -5 -3 -5 -11 -1 -17 4 -7 0 -6 -10 2 -18 15 -23
26 -7 16 6 -3 10 -2 10 4 0 12 -37 24 -50 16 -5 -3 -12 5 -16 19 -4 17 -15 26
-37 30 -28 6 -30 8 -14 17 10 6 24 9 30 6 7 -2 18 2 26 10 11 12 10 15 -8 20
-11 3 -19 8 -17 12 3 4 -4 7 -14 8 -12 1 -17 -3 -13 -12z"/>
<path d="M950 950 c0 -7 3 -10 7 -7 3 4 3 10 0 14 -4 3 -7 0 -7 -7z"/>
<path d="M124 929 c-10 -17 13 -36 27 -22 12 12 4 33 -11 33 -5 0 -12 -5 -16
-11z"/>
<path d="M275 920 c10 -11 25 -19 34 -18 10 2 16 -4 15 -17 0 -27 52 -31 59
-5 4 14 -1 17 -19 15 -13 -1 -29 4 -35 11 -6 7 -17 10 -25 7 -8 -3 -14 -1 -14
5 0 5 -8 13 -17 16 -15 6 -15 4 2 -14z"/>
<path d="M343 925 c-4 -5 -3 -7 1 -3 5 4 18 3 31 -2 17 -6 27 -5 36 6 10 13 7
14 -25 12 -21 -1 -40 -7 -43 -13z"/>
<path d="M444 929 c-10 -17 13 -36 27 -22 12 12 4 33 -11 33 -5 0 -12 -5 -16
-11z"/>
<path d="M589 924 c-7 -10 -9 -15 -2 -11 6 4 15 2 18 -4 4 -5 13 -8 21 -5 8 3
15 1 15 -4 1 -6 2 -16 3 -22 0 -7 13 -14 29 -15 21 -1 27 2 27 19 0 16 -5 19
-24 14 -17 -4 -26 -1 -30 11 -4 9 -9 13 -13 10 -3 -4 -11 0 -18 9 -10 14 -12
14 -26 -2z m21 1 c0 -3 -2 -5 -5 -5 -3 0 -5 2 -5 5 0 3 2 5 5 5 3 0 5 -2 5 -5z
m50 -50 c0 -3 -2 -5 -5 -5 -3 0 -5 2 -5 5 0 3 2 5 5 5 3 0 5 -2 5 -5z"/>
<path d="M765 930 c-4 -6 -1 -18 6 -26 11 -14 13 -14 21 0 15 26 -12 51 -27
26z"/>
<path d="M920 933 c5 -2 8 -9 5 -13 -3 -5 -1 -11 4 -14 5 -4 8 2 7 11 -2 9 -8
18 -15 19 -6 1 -7 0 -1 -3z"/>
<path d="M0 915 c0 -3 2 -5 5 -5 3 0 5 2 5 5 0 3 -2 5 -5 5 -3 0 -5 -2 -5 -5z"/>
<path d="M220 905 c0 -3 2 -5 5 -5 3 0 5 2 5 5 0 3 -2 5 -5 5 -3 0 -5 -2 -5
-5z"/>
<path d="M4 882 c3 -15 33 -25 47 -16 16 9 -3 32 -26 32 -15 0 -22 -6 -21 -16z
m16 -7 c0 -3 -2 -5 -5 -5 -3 0 -5 2 -5 5 0 3 2 5 5 5 3 0 5 -2 5 -5z"/>
<path d="M63 893 c4 -3 10 -3 14 0 3 4 0 7 -7 7 -7 0 -10 -3 -7 -7z"/>
<path d="M110 895 c0 -3 2 -5 5 -5 3 0 5 2 5 5 0 3 -2 5 -5 5 -3 0 -5 -2 -5
-5z"/>
<path d="M244 889 c-10 -17 13 -36 27 -22 12 12 4 33 -11 33 -5 0 -12 -5 -16
-11z m26 -14 c0 -3 -2 -5 -5 -5 -3 0 -5 2 -5 5 0 3 2 5 5 5 3 0 5 -2 5 -5z"/>
<path d="M420 895 c0 -3 2 -5 5 -5 3 0 5 2 5 5 0 3 -2 5 -5 5 -3 0 -5 -2 -5
-5z"/>
<path d="M564 889 c-10 -17 13 -36 27 -22 12 12 4 33 -11 33 -5 0 -12 -5 -16
-11z"/>
<path d="M884 889 c-10 -17 13 -36 27 -22 12 12 4 33 -11 33 -5 0 -12 -5 -16
-11z"/>
<path d="M180 880 c0 -16 41 -33 53 -21 7 7 2 13 -17 21 -34 12 -36 12 -36 0z"/>
<path d="M84 869 c-10 -17 13 -36 27 -22 12 12 4 33 -11 33 -5 0 -12 -5 -16
-11z"/>
<path d="M290 875 c0 -3 2 -5 5 -5 3 0 5 2 5 5 0 3 -2 5 -5 5 -3 0 -5 -2 -5
-5z"/>
<path d="M404 869 c-11 -19 13 -34 31 -19 13 11 15 10 9 -3 -3 -9 2 -19 13
-25 15 -9 19 -7 20 9 1 12 -9 25 -27 34 -35 18 -37 18 -46 4z"/>
<path d="M724 869 c-10 -17 13 -36 27 -22 12 12 4 33 -11 33 -5 0 -12 -5 -16
-11z"/>
<path d="M130 855 c-10 -12 -10 -19 -2 -27 17 -17 37 5 25 27 -9 15 -11 15
-23 0z"/>
<path d="M766 854 c-9 -23 10 -42 26 -26 9 10 9 16 -4 28 -14 14 -16 14 -22
-2z"/>
<path d="M930 865 c0 -3 2 -5 5 -5 3 0 5 2 5 5 0 3 -2 5 -5 5 -3 0 -5 -2 -5
-5z"/>
<path d="M656 841 c-9 -10 -14 -25 -10 -34 4 -11 0 -14 -13 -12 -10 2 -18 4
-18 5 0 1 -19 3 -43 3 -23 1 -42 -1 -42 -4 0 -10 49 -21 60 -14 6 4 10 1 10
-4 0 -6 9 -11 19 -11 11 0 21 -3 24 -7 2 -5 2 -2 0 5 -2 9 5 13 20 12 38 -4
49 0 45 12 -3 7 -15 13 -28 13 -13 0 -25 7 -28 15 -5 13 -3 13 12 1 15 -13 19
-13 27 0 12 19 11 26 -5 32 -8 3 -21 -2 -30 -12z m28 1 c3 -5 -1 -9 -9 -9 -8
0 -12 4 -9 9 3 4 7 8 9 8 2 0 6 -4 9 -8z"/>
<path d="M12 841 c-5 -3 -10 -18 -10 -33 0 -21 5 -28 19 -28 21 0 25 -15 7
-26 -6 -4 -8 -3 -5 3 3 5 0 10 -7 10 -7 0 -13 -6 -13 -13 0 -7 4 -11 8 -9 3 3
12 -1 18 -9 7 -8 21 -12 32 -9 19 5 19 6 2 26 -13 14 -15 21 -5 24 24 9 12 25
-16 21 -21 -3 -28 0 -29 14 -1 10 2 20 8 23 5 3 6 0 4 -7 -4 -9 2 -14 13 -14
13 0 18 6 15 16 -4 17 -24 22 -41 11z m33 -101 c3 -5 4 -10 1 -10 -3 0 -8 5
-11 10 -3 6 -4 10 -1 10 3 0 8 -4 11 -10z"/>
<path d="M188 831 c-11 -14 -11 -14 4 -3 11 9 18 10 23 2 8 -12 25 -13 25 -1
0 17 -39 19 -52 2z"/>
<path d="M323 832 c-12 -12 -10 -32 3 -32 3 0 2 5 -2 12 -5 7 -3 8 6 3 8 -5
11 -4 6 3 -3 6 -2 14 4 17 6 4 9 2 8 -3 -3 -11 2 -13 35 -11 17 1 18 2 4 6 -9
2 -15 8 -13 12 8 13 -37 7 -51 -7z"/>
<path d="M518 842 c-29 -6 -20 -19 12 -17 17 1 30 -1 30 -4 0 -4 9 -7 20 -7
25 0 27 26 3 27 -10 0 -25 2 -33 3 -8 1 -23 1 -32 -2z m22 -7 c0 -3 -2 -5 -5
-5 -3 0 -5 2 -5 5 0 3 2 5 5 5 3 0 5 -2 5 -5z"/>
<path d="M610 845 c0 -3 2 -5 5 -5 3 0 5 2 5 5 0 3 -2 5 -5 5 -3 0 -5 -2 -5
-5z"/>
<path d="M940 845 c0 -3 2 -5 5 -5 3 0 5 2 5 5 0 3 -2 5 -5 5 -3 0 -5 -2 -5
-5z"/>
<path d="M65 830 c3 -5 8 -10 11 -10 3 0 2 5 -1 10 -3 6 -8 10 -11 10 -3 0 -2
-4 1 -10z"/>
<path d="M250 830 c0 -5 5 -10 10 -10 6 0 10 -5 10 -11 0 -5 -5 -7 -11 -3 -7
4 -10 1 -7 -7 2 -8 20 -19 39 -26 19 -6 33 -16 31 -22 -1 -6 1 -10 5 -9 5 1
19 -4 32 -11 18 -10 22 -10 16 0 -6 9 -3 10 11 5 17 -6 18 -6 3 9 -9 9 -25 17
-37 18 -12 1 -22 5 -22 10 0 5 9 7 19 4 10 -2 24 -1 31 3 15 9 4 31 -13 25
-37 -13 -67 -12 -79 3 -10 12 -10 14 0 8 6 -4 12 -3 12 2 0 10 -23 22 -41 22
-5 0 -9 -4 -9 -10z m105 -80 c3 -5 4 -10 1 -10 -3 0 -8 5 -11 10 -3 6 -4 10
-1 10 3 0 8 -4 11 -10z"/>
<path d="M830 835 c0 -3 2 -5 5 -5 3 0 5 2 5 5 0 3 -2 5 -5 5 -3 0 -5 -2 -5
-5z"/>
<path d="M100 825 c0 -3 2 -5 5 -5 3 0 5 2 5 5 0 3 -2 5 -5 5 -3 0 -5 -2 -5
-5z"/>
<path d="M610 821 c0 -6 4 -13 10 -16 6 -3 7 1 4 9 -7 18 -14 21 -14 7z"/>
<path d="M126 793 c-4 -9 0 -23 9 -32 11 -11 15 -12 15 -3 0 7 5 10 11 6 8 -5
8 -1 0 14 -16 29 -28 35 -35 15z"/>
<path d="M200 799 c0 -5 9 -9 20 -9 11 0 20 2 20 4 0 2 -9 6 -20 9 -11 3 -20
1 -20 -4z"/>
<path d="M300 805 c0 -3 2 -5 5 -5 3 0 5 2 5 5 0 3 -2 5 -5 5 -3 0 -5 -2 -5
-5z"/>
<path d="M400 800 c0 -5 5 -10 11 -10 5 0 7 5 4 10 -3 6 -8 10 -11 10 -2 0 -4
-4 -4 -10z"/>
<path d="M444 801 c4 -6 2 -11 -3 -11 -8 0 -7 -6 1 -19 13 -21 38 -17 38 5 0
7 -10 18 -21 25 -15 8 -19 8 -15 0z m26 -16 c0 -3 -2 -5 -5 -5 -3 0 -5 2 -5 5
0 3 2 5 5 5 3 0 5 -2 5 -5z"/>
<path d="M771 796 c-14 -17 -7 -36 15 -36 15 0 18 18 5 38 -6 10 -10 10 -20
-2z"/>
<path d="M83 793 c4 -3 10 -3 14 0 3 4 0 7 -7 7 -7 0 -10 -3 -7 -7z"/>
<path d="M725 790 c3 -5 8 -10 11 -10 2 0 4 5 4 10 0 6 -5 10 -11 10 -5 0 -7
-4 -4 -10z"/>
<path d="M815 790 c3 -5 8 -10 11 -10 3 0 2 5 -1 10 -3 6 -8 10 -11 10 -3 0
-2 -4 1 -10z"/>
<path d="M848 793 c7 -3 16 -2 19 1 4 3 -2 6 -13 5 -11 0 -14 -3 -6 -6z"/>
<path d="M503 783 c4 -3 10 -3 14 0 3 4 0 7 -7 7 -7 0 -10 -3 -7 -7z"/>
<path d="M200 766 c-8 -10 -6 -15 6 -20 17 -7 34 0 34 14 0 15 -28 19 -40 6z"/>
<path d="M525 770 c-9 -15 3 -29 24 -27 16 1 17 5 10 19 -11 20 -25 23 -34 8z"/>
<path d="M841 762 c-9 -16 -7 -19 12 -18 12 0 22 7 22 15 0 22 -23 24 -34 3z"/>
<path d="M664 750 c1 -17 7 -26 18 -26 9 0 15 2 13 4 -2 3 0 13 6 24 9 17 8
18 -9 9 -15 -8 -22 -8 -25 2 -2 6 -4 1 -3 -13z m26 -5 c0 -3 -2 -5 -5 -5 -3 0
-5 2 -5 5 0 3 2 5 5 5 3 0 5 -2 5 -5z"/>
<path d="M110 755 c0 -3 2 -5 5 -5 3 0 5 2 5 5 0 3 -2 5 -5 5 -3 0 -5 -2 -5
-5z"/>
<path d="M260 748 c0 -7 4 -19 9 -26 6 -10 10 -10 20 2 7 8 10 20 6 26 -9 14
-35 13 -35 -2z"/>
<path d="M425 750 c-3 -5 -1 -10 4 -10 6 0 11 5 11 10 0 6 -2 10 -4 10 -3 0
-8 -4 -11 -10z"/>
<path d="M490 755 c0 -3 2 -5 5 -5 3 0 5 2 5 5 0 3 -2 5 -5 5 -3 0 -5 -2 -5
-5z"/>
<path d="M584 749 c-10 -17 13 -36 27 -22 12 12 4 33 -11 33 -5 0 -12 -5 -16
-11z"/>
<path d="M902 743 c2 -10 10 -18 18 -18 22 0 18 29 -3 33 -14 3 -18 -1 -15
-15z"/>
<path d="M156 741 c-4 -6 -12 -8 -18 -5 -6 4 -6 -2 1 -15 7 -11 16 -21 21 -21
15 0 22 19 12 36 -6 12 -11 13 -16 5z m14 -16 c0 -3 -2 -5 -5 -5 -3 0 -5 2 -5
5 0 3 2 5 5 5 3 0 5 -2 5 -5z"/>
<path d="M790 735 c-10 -12 -10 -19 -2 -27 17 -17 37 5 25 27 -9 15 -11 15
-23 0z m10 -20 c0 -3 -2 -5 -5 -5 -3 0 -5 2 -5 5 0 3 2 5 5 5 3 0 5 -2 5 -5z"/>
<path d="M464 729 c-10 -17 13 -36 27 -22 12 12 4 33 -11 33 -5 0 -12 -5 -16
-11z"/>
<path d="M310 725 c0 -3 2 -5 5 -5 3 0 5 2 5 5 0 3 -2 5 -5 5 -3 0 -5 -2 -5
-5z"/>
<path d="M945 708 c-13 -41 -13 -69 -1 -58 11 8 22 80 12 80 -2 0 -7 -10 -11
-22z m5 -43 c0 -3 -2 -5 -5 -5 -3 0 -5 2 -5 5 0 3 2 5 5 5 3 0 5 -2 5 -5z"/>
<path d="M305 700 c-4 -6 -11 -8 -16 -5 -5 4 -9 1 -9 -4 0 -6 7 -11 15 -11 13
0 14 -2 3 -14 -7 -8 -17 -11 -22 -8 -5 3 -6 0 -2 -7 6 -8 12 -9 20 -2 7 6 16
9 19 6 4 -3 5 -2 2 1 -2 4 0 15 5 25 11 19 -4 37 -15 19z"/>
<path d="M401 696 c-9 -11 -6 -15 12 -18 15 -3 24 0 24 8 0 19 -24 25 -36 10z"/>
<path d="M670 695 c-10 -12 -10 -19 -2 -27 17 -17 37 5 25 27 -9 15 -11 15
-23 0z"/>
<path d="M24 689 c-10 -17 13 -36 27 -22 12 12 4 33 -11 33 -5 0 -12 -5 -16
-11z"/>
<path d="M75 690 c3 -5 13 -10 21 -10 8 0 12 5 9 10 -3 6 -13 10 -21 10 -8 0
-12 -4 -9 -10z"/>
<path d="M245 690 c-3 -5 -20 -10 -37 -10 -25 0 -28 -2 -19 -14 9 -11 9 -16 0
-22 -8 -5 -9 -3 -4 6 5 9 4 11 -4 6 -8 -5 -9 -12 -2 -19 13 -16 2 -69 -13 -61
-6 4 0 -4 14 -18 27 -26 50 -32 50 -12 0 6 -9 14 -21 17 -29 8 -18 32 14 32
33 -1 34 8 5 28 l-23 15 21 20 c12 12 24 19 26 16 3 -2 5 3 5 11 0 18 -3 19
-12 5z m-55 -125 c0 -3 -2 -5 -5 -5 -3 0 -5 2 -5 5 0 3 2 5 5 5 3 0 5 -2 5 -5z"/>
<path d="M344 689 c-10 -17 13 -36 27 -22 12 12 4 33 -11 33 -5 0 -12 -5 -16
-11z"/>
<path d="M584 688 c-3 -4 -19 -8 -35 -8 -20 0 -29 -4 -26 -12 5 -18 29 -16 50
3 10 10 27 14 39 11 13 -3 16 -7 8 -12 -9 -5 -8 -9 2 -12 9 -4 14 2 16 16 1
17 -4 22 -24 22 -14 0 -28 -4 -30 -8z"/>
<path d="M725 690 c-3 -5 1 -10 9 -10 8 0 18 5 21 10 3 6 -1 10 -9 10 -8 0
-18 -4 -21 -10z"/>
<path d="M883 687 c-3 -5 -13 -7 -23 -4 -10 3 -30 -3 -45 -13 -15 -10 -37 -15
-51 -12 -19 3 -26 0 -31 -16 -3 -13 -15 -22 -32 -25 l-26 -3 25 -11 c34 -14
52 -6 45 21 -4 13 -3 16 2 9 7 -10 15 -9 35 1 19 10 29 11 37 3 15 -15 14 -26
-4 -44 -14 -14 -14 -17 0 -33 8 -9 12 -19 9 -23 -4 -4 3 -5 14 -2 12 2 25 -1
28 -7 4 -6 3 -8 -2 -5 -6 3 -10 -4 -11 -16 0 -12 1 -17 3 -11 5 13 54 6 54 -7
0 -5 -5 -8 -11 -6 -24 5 -19 -21 5 -27 33 -8 55 2 53 24 -1 10 -5 16 -9 14 -5
-3 -6 -10 -3 -15 10 -15 -2 -10 -16 8 -10 11 -10 14 -1 9 6 -4 12 -3 12 3 0
12 -37 24 -50 16 -5 -3 -12 5 -16 19 -4 17 -15 26 -37 30 -28 6 -30 8 -14 17
10 6 24 9 30 6 7 -2 18 2 25 9 11 12 9 16 -12 23 -25 10 -44 31 -27 31 5 0 11
-3 14 -7 2 -5 2 -2 0 6 -2 9 2 11 14 7 10 -4 14 -4 11 0 -11 10 16 33 28 23 7
-5 11 -4 11 4 0 15 -25 18 -34 4z m-43 -27 c-24 -15 -36 -11 -14 4 10 8 21 12
24 10 2 -3 -2 -9 -10 -14z"/>
<path d="M120 685 c0 -3 2 -5 5 -5 3 0 5 2 5 5 0 3 -2 5 -5 5 -3 0 -5 -2 -5
-5z"/>
<path d="M770 675 c0 -3 2 -5 5 -5 3 0 5 2 5 5 0 3 -2 5 -5 5 -3 0 -5 -2 -5
-5z"/>
<path d="M80 665 c0 -3 2 -5 5 -5 3 0 5 2 5 5 0 3 -2 5 -5 5 -3 0 -5 -2 -5 -5z"/>
<path d="M496 663 c-4 -5 -24 -8 -43 -8 -20 0 -38 -6 -40 -13 -4 -9 5 -11 31
-7 20 2 40 7 45 10 13 7 20 -17 14 -48 -3 -16 -10 -24 -17 -20 -6 3 -1 -5 12
-19 26 -29 52 -32 52 -7 0 12 -5 16 -14 13 -8 -3 -17 0 -21 6 -9 14 -4 19 25
25 32 6 32 6 -4 43 -18 18 -36 29 -40 25z m25 -20 c13 -16 12 -17 -3 -4 -10 7
-18 15 -18 17 0 8 8 3 21 -13z m-11 -78 c0 -3 -2 -5 -5 -5 -3 0 -5 2 -5 5 0 3
2 5 5 5 3 0 5 -2 5 -5z"/>
<path d="M97 653 c-12 -11 -8 -25 5 -17 6 4 8 3 4 -4 -3 -6 -20 -10 -36 -10
-17 1 -33 -2 -37 -5 -3 -4 -12 1 -20 11 -13 15 -13 15 -4 -5 6 -12 18 -20 28
-18 10 1 23 -1 28 -6 12 -9 98 45 88 55 -8 8 -48 8 -56 -1z"/>
<path d="M629 631 c18 -12 36 -20 39 -17 3 4 0 6 -7 6 -7 0 -10 4 -7 8 3 5 0
9 -7 9 -7 0 -21 4 -32 8 -11 4 -5 -3 14 -14z"/>
<path d="M900 645 c0 -3 2 -5 5 -5 3 0 5 2 5 5 0 3 -2 5 -5 5 -3 0 -5 -2 -5
-5z"/>
<path d="M230 635 c0 -3 2 -5 5 -5 3 0 5 2 5 5 0 3 -2 5 -5 5 -3 0 -5 -2 -5
-5z"/>
<path d="M305 630 c3 -5 8 -10 11 -10 3 0 2 5 -1 10 -3 6 -8 10 -11 10 -3 0
-2 -4 1 -10z"/>
<path d="M950 630 c0 -7 3 -10 7 -7 3 4 3 10 0 14 -4 3 -7 0 -7 -7z"/>
<path d="M360 618 c0 -5 -6 -6 -12 -2 -7 4 -10 4 -6 0 3 -4 9 -7 12 -7 3 1 15
-3 25 -9 14 -7 22 -6 30 4 9 11 5 15 -19 18 -16 3 -30 1 -30 -4z"/>
<path d="M430 625 c0 -3 2 -5 5 -5 3 0 5 2 5 5 0 3 -2 5 -5 5 -3 0 -5 -2 -5
-5z"/>
<path d="M124 609 c-10 -17 13 -36 27 -22 12 12 4 33 -11 33 -5 0 -12 -5 -16
-11z"/>
<path d="M260 615 c0 -3 2 -5 5 -5 3 0 5 2 5 5 0 3 -2 5 -5 5 -3 0 -5 -2 -5
-5z"/>
<path d="M276 603 c-6 -14 -5 -15 5 -6 7 7 10 15 7 18 -3 3 -9 -2 -12 -12z"/>
<path d="M444 609 c-10 -17 13 -36 27 -22 12 12 4 33 -11 33 -5 0 -12 -5 -16
-11z"/>
<path d="M589 604 c-7 -10 -9 -15 -2 -11 6 4 15 2 18 -4 4 -5 13 -8 21 -5 8 3
15 1 15 -4 1 -6 2 -16 3 -22 0 -7 13 -14 29 -15 21 -1 27 2 27 19 0 16 -5 19
-24 14 -17 -4 -26 -1 -30 11 -4 9 -9 13 -13 10 -3 -4 -11 0 -18 9 -10 14 -12
14 -26 -2z m21 1 c0 -3 -2 -5 -5 -5 -3 0 -5 2 -5 5 0 3 2 5 5 5 3 0 5 -2 5 -5z
m50 -50 c0 -3 -2 -5 -5 -5 -3 0 -5 2 -5 5 0 3 2 5 5 5 3 0 5 -2 5 -5z"/>
<path d="M765 610 c-4 -6 -1 -18 6 -26 11 -14 13 -14 21 0 15 26 -12 51 -27
26z"/>
<path d="M920 613 c5 -2 8 -9 5 -13 -3 -5 -1 -11 4 -14 5 -4 8 2 7 11 -2 9 -8
18 -15 19 -6 1 -7 0 -1 -3z"/>
<path d="M304 588 c-4 -7 -3 -8 4 -4 12 7 16 16 8 16 -3 0 -8 -5 -12 -12z"/>
<path d="M3 568 c2 -19 8 -25 29 -26 21 -2 26 2 25 18 -1 15 -6 18 -20 14 -11
-3 -23 -1 -27 6 -5 8 -8 4 -7 -12z"/>
<path d="M220 585 c0 -3 2 -5 5 -5 3 0 5 2 5 5 0 3 -2 5 -5 5 -3 0 -5 -2 -5
-5z"/>
<path d="M90 575 c0 -3 2 -5 5 -5 3 0 5 2 5 5 0 3 -2 5 -5 5 -3 0 -5 -2 -5 -5z"/>
<path d="M244 569 c-10 -17 13 -36 27 -22 12 12 4 33 -11 33 -5 0 -12 -5 -16
-11z"/>
<path d="M330 568 c0 -4 0 -11 0 -15 0 -4 10 -8 24 -10 17 -2 25 2 29 17 4 17
1 20 -24 18 -16 -1 -29 -6 -29 -10z m10 -13 c0 -3 -2 -5 -5 -5 -3 0 -5 2 -5 5
0 3 2 5 5 5 3 0 5 -2 5 -5z"/>
<path d="M420 575 c0 -3 2 -5 5 -5 3 0 5 2 5 5 0 3 -2 5 -5 5 -3 0 -5 -2 -5
-5z"/>
<path d="M564 569 c-10 -17 13 -36 27 -22 12 12 4 33 -11 33 -5 0 -12 -5 -16
-11z"/>
<path d="M884 569 c-10 -17 13 -36 27 -22 12 12 4 33 -11 33 -5 0 -12 -5 -16
-11z"/>
<path d="M87 553 c-13 -12 -7 -22 25 -37 38 -20 48 -20 48 -2 0 8 -14 22 -32
30 -36 19 -33 18 -41 9z m53 -28 c0 -3 -2 -5 -5 -5 -3 0 -5 2 -5 5 0 3 2 5 5
5 3 0 5 -2 5 -5z"/>
<path d="M404 549 c-11 -19 13 -34 31 -19 13 11 15 10 9 -3 -3 -9 2 -19 13
-25 15 -9 19 -7 20 9 1 12 -9 25 -27 34 -35 18 -37 18 -46 4z"/>
<path d="M724 549 c-10 -17 13 -36 27 -22 12 12 4 33 -11 33 -5 0 -12 -5 -16
-11z"/>
<path d="M766 534 c-9 -23 10 -42 26 -26 9 10 9 16 -4 28 -14 14 -16 14 -22
-2z"/>
<path d="M930 545 c0 -3 2 -5 5 -5 3 0 5 2 5 5 0 3 -2 5 -5 5 -3 0 -5 -2 -5
-5z"/>
<path d="M180 535 c0 -3 2 -5 5 -5 3 0 5 2 5 5 0 3 -2 5 -5 5 -3 0 -5 -2 -5
-5z"/>
<path d="M654 519 c-14 -15 -15 -22 -5 -32 10 -9 11 -8 5 8 -7 18 -6 19 10 6
15 -13 19 -13 27 0 12 19 11 26 -5 32 -8 3 -22 -3 -32 -14z m30 3 c3 -5 -1 -9
-9 -9 -8 0 -12 4 -9 9 3 4 7 8 9 8 2 0 6 -4 9 -8z"/>
<path d="M12 518 c-24 -24 -13 -29 51 -19 4 0 7 6 7 12 0 5 -5 7 -10 4 -6 -4
-17 -2 -24 4 -9 7 -16 7 -24 -1z m18 -2 c0 -3 -5 -8 -12 -12 -7 -4 -8 -3 -4 4
7 12 16 16 16 8z"/>
<path d="M192 514 c-11 -8 -10 -10 10 -11 54 -1 68 -4 68 -14 0 -5 -4 -8 -8
-5 -4 2 -14 1 -21 -4 -19 -11 17 -30 52 -26 24 3 32 -4 28 -27 0 -4 2 -6 6 -5
5 1 19 -4 32 -11 18 -10 22 -10 16 0 -6 9 -3 10 11 5 17 -6 18 -6 3 9 -9 9
-25 17 -37 18 -12 1 -22 5 -22 10 0 4 8 7 18 6 49 -5 60 16 12 23 -16 3 -30 0
-30 -5 0 -5 -6 -7 -12 -4 -7 2 -13 9 -13 14 0 6 -4 15 -9 20 -5 4 -6 3 -2 -4
3 -6 2 -14 -4 -18 -6 -3 -10 4 -10 18 0 21 -4 24 -37 23 -20 -1 -43 -6 -51
-12z m28 1 c0 -3 -2 -5 -5 -5 -3 0 -5 2 -5 5 0 3 2 5 5 5 3 0 5 -2 5 -5z m135
-85 c3 -5 4 -10 1 -10 -3 0 -8 5 -11 10 -3 6 -4 10 -1 10 3 0 8 -4 11 -10z"/>
<path d="M319 526 c0 0 -2 -12 -3 -25 l-3 -23 19 23 c10 13 16 17 13 9 -4 -11
1 -16 15 -17 13 -1 18 2 14 9 -5 8 -1 9 12 4 14 -5 16 -4 7 5 -9 9 -70 22 -74
15z m11 -11 c0 -3 -2 -5 -5 -5 -3 0 -5 2 -5 5 0 3 2 5 5 5 3 0 5 -2 5 -5z"/>
<path d="M518 522 c-29 -6 -20 -19 12 -17 17 1 30 -1 30 -4 0 -4 9 -7 20 -7
25 0 27 26 3 27 -10 0 -25 2 -33 3 -8 1 -23 1 -32 -2z m22 -7 c0 -3 -2 -5 -5
-5 -3 0 -5 2 -5 5 0 3 2 5 5 5 3 0 5 -2 5 -5z"/>
<path d="M610 525 c0 -3 2 -5 5 -5 3 0 5 2 5 5 0 3 -2 5 -5 5 -3 0 -5 -2 -5
-5z"/>
<path d="M940 525 c0 -3 2 -5 5 -5 3 0 5 2 5 5 0 3 -2 5 -5 5 -3 0 -5 -2 -5
-5z"/>
<path d="M830 515 c0 -3 2 -5 5 -5 3 0 5 2 5 5 0 3 -2 5 -5 5 -3 0 -5 -2 -5
-5z"/>
<path d="M607 495 c-4 -9 -18 -13 -42 -11 -19 1 -35 -1 -35 -5 0 -10 49 -21
60 -14 6 4 10 1 10 -4 0 -6 9 -11 19 -11 11 0 21 -3 24 -7 2 -5 2 -2 0 5 -2 9
7 12 30 10 23 -2 32 1 32 12 0 8 -6 14 -13 12 -42 -8 -73 -8 -79 1 -3 6 -1 7
5 3 8 -5 10 -2 6 8 -8 20 -10 20 -17 1z"/>
<path d="M35 480 c-11 -4 -23 -6 -27 -3 -5 2 -8 0 -8 -5 0 -13 46 -21 62 -11
19 12 -3 28 -27 19z"/>
<path d="M200 480 c0 -7 3 -10 7 -7 3 4 3 10 0 14 -4 3 -7 0 -7 -7z"/>
<path d="M444 476 c-8 -9 -8 -16 0 -28 13 -17 36 -13 36 7 0 21 -23 35 -36 21z
m26 -11 c0 -3 -2 -5 -5 -5 -3 0 -5 2 -5 5 0 3 2 5 5 5 3 0 5 -2 5 -5z"/>
<path d="M771 476 c-14 -17 -7 -36 15 -36 15 0 18 18 5 38 -6 10 -10 10 -20
-2z"/>
<path d="M85 470 c3 -5 8 -10 11 -10 2 0 4 5 4 10 0 6 -5 10 -11 10 -5 0 -7
-4 -4 -10z"/>
<path d="M124 469 c-3 -6 1 -18 10 -27 11 -11 16 -12 16 -4 0 7 5 10 11 6 8
-4 8 0 0 15 -13 23 -26 27 -37 10z"/>
<path d="M403 473 c4 -3 10 -3 14 0 3 4 0 7 -7 7 -7 0 -10 -3 -7 -7z"/>
<path d="M725 470 c3 -5 8 -10 11 -10 2 0 4 5 4 10 0 6 -5 10 -11 10 -5 0 -7
-4 -4 -10z"/>
<path d="M815 470 c3 -5 8 -10 11 -10 3 0 2 5 -1 10 -3 6 -8 10 -11 10 -3 0
-2 -4 1 -10z"/>
<path d="M848 473 c7 -3 16 -2 19 1 4 3 -2 6 -13 5 -11 0 -14 -3 -6 -6z"/>
<path d="M503 463 c4 -3 10 -3 14 0 3 4 0 7 -7 7 -7 0 -10 -3 -7 -7z"/>
<path d="M204 449 c-3 -6 1 -18 10 -27 11 -11 16 -12 16 -4 0 7 5 10 11 6 8
-4 8 0 0 15 -13 23 -26 27 -37 10z"/>
<path d="M525 450 c-9 -15 3 -29 24 -27 16 1 17 5 10 19 -11 20 -25 23 -34 8z"/>
<path d="M841 442 c-9 -16 -7 -19 12 -18 12 0 22 7 22 15 0 22 -23 24 -34 3z"/>
<path d="M3 435 c0 -8 4 -12 8 -10 13 9 39 -7 32 -19 -4 -7 -1 -7 9 1 8 7 17
11 20 8 2 -3 5 1 5 9 0 9 -9 13 -24 11 -12 -1 -23 2 -23 6 0 5 -6 9 -13 9 -8
0 -14 -7 -14 -15z"/>
<path d="M661 442 c-1 -7 6 -15 14 -18 8 -4 12 -11 8 -18 -4 -6 1 -5 10 3 19
15 12 35 -8 27 -8 -3 -16 0 -19 7 -3 9 -5 8 -5 -1z"/>
<path d="M264 429 c-10 -17 13 -36 27 -22 12 12 4 33 -11 33 -5 0 -12 -5 -16
-11z m16 -14 c0 -3 -2 -5 -5 -5 -3 0 -5 2 -5 5 0 3 2 5 5 5 3 0 5 -2 5 -5z"/>
<path d="M425 430 c-3 -5 -1 -10 4 -10 6 0 11 5 11 10 0 6 -2 10 -4 10 -3 0
-8 -4 -11 -10z"/>
<path d="M490 435 c0 -3 2 -5 5 -5 3 0 5 2 5 5 0 3 -2 5 -5 5 -3 0 -5 -2 -5
-5z"/>
<path d="M584 429 c-10 -17 13 -36 27 -22 12 12 4 33 -11 33 -5 0 -12 -5 -16
-11z"/>
<path d="M750 435 c0 -3 2 -5 5 -5 3 0 5 2 5 5 0 3 -2 5 -5 5 -3 0 -5 -2 -5
-5z"/>
<path d="M902 423 c4 -21 33 -25 33 -3 0 8 -8 16 -18 18 -14 3 -18 -1 -15 -15z"/>
<path d="M185 420 c3 -5 8 -10 11 -10 3 0 2 5 -1 10 -3 6 -8 10 -11 10 -3 0
-2 -4 1 -10z"/>
<path d="M796 421 c-4 -6 -12 -8 -18 -5 -6 4 -6 -2 1 -15 7 -11 16 -21 21 -21
15 0 22 19 12 36 -6 12 -11 13 -16 5z m4 -26 c0 -3 -2 -5 -5 -5 -3 0 -5 2 -5
5 0 3 2 5 5 5 3 0 5 -2 5 -5z"/>
<path d="M144 409 c-10 -17 13 -36 27 -22 12 12 4 33 -11 33 -5 0 -12 -5 -16
-11z"/>
<path d="M464 409 c-10 -17 13 -36 27 -22 12 12 4 33 -11 33 -5 0 -12 -5 -16
-11z"/>
<path d="M660 405 c0 -3 2 -5 5 -5 3 0 5 2 5 5 0 3 -2 5 -5 5 -3 0 -5 -2 -5
-5z"/>
<path d="M946 390 c-4 -14 -10 -34 -12 -45 -4 -18 -3 -18 11 3 9 12 15 32 13
45 -3 22 -4 21 -12 -3z"/>
<path d="M309 391 c-3 -7 -12 -13 -21 -15 -10 -1 -21 -5 -24 -9 -4 -4 -23 -7
-42 -7 -20 0 -43 -7 -53 -16 -13 -12 -22 -13 -38 -5 -20 11 -35 1 -36 -24 0
-5 -11 -12 -25 -13 -14 -2 -28 -8 -33 -13 -4 -5 -4 -7 -1 -4 4 2 15 0 25 -5
14 -8 22 -4 39 18 12 15 19 21 15 15 -8 -17 5 -16 29 2 10 8 23 12 29 8 6 -3
7 -1 3 5 -7 12 6 17 16 6 8 -7 -13 -74 -24 -74 -4 0 -8 -5 -8 -12 0 -6 3 -8 7
-5 3 4 13 -2 20 -13 8 -11 19 -18 24 -15 5 3 6 -1 3 -10 -4 -9 -13 -14 -20
-11 -22 8 -16 -2 7 -15 15 -8 19 -8 15 0 -8 12 6 15 18 4 3 -4 15 -7 26 -8 17
-1 19 4 17 39 -3 39 -19 57 -32 36 -4 -6 1 -20 11 -31 16 -18 16 -19 -4 -19
-17 0 -22 6 -22 26 0 20 -4 24 -19 19 -11 -3 -22 -1 -25 4 -8 13 31 34 50 27
22 -8 17 10 -8 26 -25 17 -19 31 22 51 25 13 31 13 52 -1 13 -8 20 -12 16 -7
-4 4 -4 13 2 19 5 7 5 18 1 25 -6 9 -10 10 -12 2z"/>
<path d="M30 375 c-10 -12 -10 -19 -2 -27 17 -17 37 5 25 27 -9 15 -11 15 -23
0z m20 -10 c0 -3 -2 -5 -5 -5 -3 0 -5 2 -5 5 0 3 2 5 5 5 3 0 5 -2 5 -5z"/>
<path d="M401 376 c-9 -11 -6 -15 12 -18 15 -3 24 0 24 8 0 19 -24 25 -36 10z"/>
<path d="M80 370 c0 -5 6 -10 14 -10 8 0 18 5 21 10 3 6 -3 10 -14 10 -12 0
-21 -4 -21 -10z"/>
<path d="M344 369 c-10 -17 13 -36 27 -22 12 12 4 33 -11 33 -5 0 -12 -5 -16
-11z"/>
<path d="M584 368 c-3 -4 -19 -8 -35 -8 -20 0 -29 -4 -26 -12 5 -18 29 -16 50
3 10 10 27 14 39 11 13 -3 16 -7 8 -12 -9 -5 -8 -9 2 -12 9 -4 14 2 16 16 1
17 -4 22 -24 22 -14 0 -28 -4 -30 -8z"/>
<path d="M664 369 c-10 -17 13 -36 27 -22 12 12 4 33 -11 33 -5 0 -12 -5 -16
-11z"/>
<path d="M720 370 c0 -5 6 -10 14 -10 8 0 18 5 21 10 3 6 -3 10 -14 10 -12 0
-21 -4 -21 -10z"/>
<path d="M883 367 c-3 -5 -13 -7 -23 -4 -11 3 -29 -2 -41 -11 -12 -8 -36 -15
-53 -16 -24 -1 -31 -5 -29 -19 1 -15 -4 -18 -23 -14 -14 2 -27 0 -30 -5 -3 -4
-11 -5 -17 -2 -7 4 -9 4 -5 0 3 -4 8 -7 10 -5 2 1 13 -3 24 -9 18 -9 26 -8 43
7 12 11 18 21 14 23 -4 3 -2 3 5 1 7 -1 22 1 32 7 12 7 21 6 29 -3 12 -15 4
-57 -12 -57 -6 0 4 -13 21 -28 18 -16 32 -33 32 -38 0 -5 -4 -3 -9 4 -6 11
-10 10 -19 0 -11 -14 -1 -18 56 -18 12 0 22 -5 22 -10 0 -6 -3 -9 -7 -9 -5 1
-19 1 -33 0 l-25 -2 24 -10 c14 -5 31 -7 38 -5 7 3 13 1 13 -4 0 -6 9 -10 20
-10 11 0 20 7 20 16 0 8 -4 12 -10 9 -5 -3 -10 -1 -10 5 0 6 -5 8 -12 4 -8 -5
-7 0 2 11 9 11 10 16 3 11 -7 -4 -13 -2 -13 3 0 6 -11 11 -25 11 -20 0 -25 5
-25 23 0 17 -6 23 -20 23 -31 -1 -23 18 12 30 l32 10 -44 27 c-44 26 -50 38
-8 16 16 -9 19 -8 13 2 -6 9 -3 10 11 5 10 -4 15 -4 12 0 -11 10 16 33 28 23
7 -5 11 -4 11 4 0 15 -25 18 -34 4z m-33 -17 c0 -5 -5 -10 -11 -10 -5 0 -7 5
-4 10 3 6 8 10 11 10 2 0 4 -4 4 -10z"/>
<path d="M770 355 c0 -3 2 -5 5 -5 3 0 5 2 5 5 0 3 -2 5 -5 5 -3 0 -5 -2 -5
-5z"/>
<path d="M496 341 c-3 -5 -22 -7 -42 -4 -29 4 -36 1 -41 -16 -3 -12 -15 -21
-32 -24 l-26 -3 25 -11 c33 -14 52 -6 45 21 -2 11 -2 15 1 9 4 -10 13 -10 39
1 32 14 35 13 40 -5 4 -11 0 -26 -10 -35 -14 -15 -14 -18 0 -34 8 -9 12 -19 9
-23 -4 -4 3 -5 14 -2 12 2 25 -1 28 -7 4 -6 3 -8 -2 -5 -6 3 -10 -4 -11 -16 0
-12 1 -17 3 -11 5 13 54 6 54 -7 0 -5 -5 -8 -11 -7 -6 2 -13 -2 -16 -8 -5 -14
39 -26 61 -18 14 6 21 -5 17 -28 0 -5 2 -7 7 -6 4 1 18 -4 31 -11 18 -10 22
-10 16 0 -6 9 -3 10 11 5 17 -6 18 -6 3 9 -9 9 -25 17 -37 18 -12 1 -22 5 -22
10 0 4 8 7 18 6 49 -5 60 16 12 23 -16 3 -30 1 -30 -3 0 -11 -29 -4 -43 11 -9
10 -9 11 1 6 6 -4 12 -3 12 3 0 12 -37 24 -50 16 -5 -3 -12 5 -16 19 -4 17
-15 26 -37 30 -28 6 -30 8 -14 17 10 6 24 9 30 6 7 -2 18 2 25 9 11 12 9 16
-13 24 -14 5 -25 12 -25 15 0 4 6 3 13 -1 6 -4 3 2 -7 14 -22 25 -23 25 -30
13z m19 -11 c3 -5 4 -10 1 -10 -3 0 -8 5 -11 10 -3 6 -4 10 -1 10 3 0 8 -4 11
-10z m160 -220 c3 -5 4 -10 1 -10 -3 0 -8 5 -11 10 -3 6 -4 10 -1 10 3 0 8 -4
11 -10z"/>
<path d="M235 330 c3 -5 8 -10 11 -10 3 0 2 5 -1 10 -3 6 -8 10 -11 10 -3 0
-2 -4 1 -10z"/>
<path d="M290 335 c0 -3 2 -5 5 -5 3 0 5 2 5 5 0 3 -2 5 -5 5 -3 0 -5 -2 -5
-5z"/>
<path d="M603 323 c4 -3 10 -3 14 0 3 4 0 7 -7 7 -7 0 -10 -3 -7 -7z"/>
<path d="M905 320 c3 -5 8 -10 11 -10 3 0 2 5 -1 10 -3 6 -8 10 -11 10 -3 0
-2 -4 1 -10z"/>
<path d="M60 315 c0 -3 2 -5 5 -5 3 0 5 2 5 5 0 3 -2 5 -5 5 -3 0 -5 -2 -5 -5z"/>
<path d="M316 303 c10 -7 23 -13 28 -12 6 0 5 3 -2 6 -6 2 -10 8 -8 12 3 4 -4
7 -15 7 -19 0 -19 -1 -3 -13z"/>
<path d="M630 308 c0 -4 4 -8 9 -8 6 0 12 4 15 8 3 5 -1 9 -9 9 -8 0 -15 -4
-15 -9z"/>
<path d="M880 315 c0 -3 2 -5 5 -5 3 0 5 2 5 5 0 3 -2 5 -5 5 -3 0 -5 -2 -5
-5z"/>
<path d="M945 310 c3 -5 8 -10 11 -10 3 0 2 5 -1 10 -3 6 -8 10 -11 10 -3 0
-2 -4 1 -10z"/>
<path d="M280 305 c0 -3 2 -5 5 -5 3 0 5 2 5 5 0 3 -2 5 -5 5 -3 0 -5 -2 -5
-5z"/>
<path d="M124 289 c-10 -17 13 -36 27 -22 12 12 4 33 -11 33 -5 0 -12 -5 -16
-11z m16 -4 c0 -3 -2 -5 -5 -5 -3 0 -5 2 -5 5 0 3 2 5 5 5 3 0 5 -2 5 -5z"/>
<path d="M445 290 c-4 -6 -1 -18 6 -26 11 -14 13 -14 21 0 15 26 -12 51 -27
26z"/>
<path d="M600 293 c5 -2 8 -9 5 -13 -3 -5 -1 -11 4 -14 5 -4 8 2 7 11 -2 9 -8
18 -15 19 -6 1 -7 0 -1 -3z"/>
<path d="M764 289 c-10 -17 13 -36 27 -22 12 12 4 33 -11 33 -5 0 -12 -5 -16
-11z m16 -4 c0 -3 -2 -5 -5 -5 -3 0 -5 2 -5 5 0 3 2 5 5 5 3 0 5 -2 5 -5z"/>
<path d="M270 280 c0 -9 21 -15 43 -11 7 1 8 -2 11 -31 0 -7 13 -14 29 -15 21
-1 27 2 27 19 0 16 -5 19 -24 14 -16 -4 -26 -1 -30 10 -3 8 -10 12 -16 9 -5
-3 -10 -1 -10 4 0 6 -7 11 -15 11 -8 0 -15 -4 -15 -10z m70 -45 c0 -3 -2 -5
-5 -5 -3 0 -5 2 -5 5 0 3 2 5 5 5 3 0 5 -2 5 -5z"/>
<path d="M920 282 c0 -4 8 -12 18 -19 15 -9 19 -8 19 3 0 7 -4 11 -9 8 -4 -3
-8 0 -8 5 0 6 -4 11 -10 11 -5 0 -10 -3 -10 -8z"/>
<path d="M900 275 c0 -3 2 -5 5 -5 3 0 5 2 5 5 0 3 -2 5 -5 5 -3 0 -5 -2 -5
-5z"/>
<path d="M5 246 c0 -16 6 -22 27 -23 17 0 28 5 31 17 3 13 -1 17 -17 15 -11 0
-25 2 -31 6 -6 4 -10 -2 -10 -15z"/>
<path d="M100 255 c0 -3 2 -5 5 -5 3 0 5 2 5 5 0 3 -2 5 -5 5 -3 0 -5 -2 -5
-5z"/>
<path d="M564 249 c-10 -17 13 -36 27 -22 12 12 4 33 -11 33 -5 0 -12 -5 -16
-11z"/>
<path d="M650 248 c0 -4 0 -11 0 -15 0 -4 10 -8 24 -10 17 -2 25 2 29 17 4 17
1 20 -24 18 -16 -1 -29 -6 -29 -10z m10 -13 c0 -3 -2 -5 -5 -5 -3 0 -5 2 -5 5
0 3 2 5 5 5 3 0 5 -2 5 -5z"/>
<path d="M730 255 c0 -3 2 -5 5 -5 3 0 5 2 5 5 0 3 -2 5 -5 5 -3 0 -5 -2 -5
-5z"/>
<path d="M884 249 c-10 -17 13 -36 27 -22 12 12 4 33 -11 33 -5 0 -12 -5 -16
-11z"/>
<path d="M84 229 c-10 -17 13 -36 27 -22 12 12 4 33 -11 33 -5 0 -12 -5 -16
-11z"/>
<path d="M404 229 c-10 -17 13 -36 27 -22 12 12 4 33 -11 33 -5 0 -12 -5 -16
-11z"/>
<path d="M724 229 c-10 -17 13 -36 27 -22 12 12 4 33 -11 33 -5 0 -12 -5 -16
-11z"/>
<path d="M131 216 c-14 -17 -7 -36 15 -36 15 0 18 18 5 38 -6 10 -10 10 -20
-2z"/>
<path d="M446 214 c-9 -23 10 -42 26 -26 10 9 9 16 -4 28 -14 14 -16 14 -22
-2z"/>
<path d="M610 225 c0 -3 2 -5 5 -5 3 0 5 2 5 5 0 3 -2 5 -5 5 -3 0 -5 -2 -5
-5z"/>
<path d="M770 215 c-11 -13 -11 -19 3 -32 15 -15 17 -15 22 0 4 9 3 23 -2 32
-9 15 -11 15 -23 0z"/>
<path d="M334 199 c-14 -15 -15 -22 -5 -32 10 -9 11 -8 5 8 -7 18 -6 19 10 6
15 -13 19 -13 27 0 12 19 11 26 -5 32 -8 3 -22 -3 -32 -14z m30 3 c3 -5 -1 -9
-9 -9 -8 0 -12 4 -9 9 3 4 7 8 9 8 2 0 6 -4 9 -8z"/>
<path d="M12 200 c-9 -6 -12 -100 -3 -97 3 1 17 -5 30 -12 18 -10 22 -10 16 0
-6 9 -3 10 11 5 17 -6 18 -6 3 9 -9 9 -25 17 -37 18 -12 1 -22 5 -22 10 0 5 9
7 19 4 10 -2 24 -1 31 3 20 12 3 28 -24 23 -18 -4 -24 -1 -22 11 1 8 6 19 10
23 4 4 6 2 4 -6 -2 -9 7 -14 25 -15 23 -1 26 0 13 10 -9 6 -14 13 -11 15 6 7
-34 6 -43 -1z m23 -90 c3 -5 4 -10 1 -10 -3 0 -8 5 -11 10 -3 6 -4 10 -1 10 3
0 8 -4 11 -10z"/>
<path d="M620 205 c0 -3 2 -5 5 -5 3 0 5 2 5 5 0 3 -2 5 -5 5 -3 0 -5 -2 -5
-5z"/>
<path d="M645 202 c3 -3 -2 -14 -12 -24 -9 -10 -13 -18 -10 -18 3 0 16 10 27
23 12 12 19 15 15 7 -4 -11 1 -16 15 -17 13 -1 18 2 14 9 -5 8 -1 9 12 4 14
-5 16 -4 7 5 -6 6 -25 13 -43 14 -17 1 -28 0 -25 -3z"/>
<path d="M510 195 c0 -3 2 -5 5 -5 3 0 5 2 5 5 0 3 -2 5 -5 5 -3 0 -5 -2 -5
-5z"/>
<path d="M287 176 c-4 -9 -12 -16 -19 -15 -7 1 -24 1 -38 0 l-25 -2 24 -10
c14 -5 31 -7 38 -5 7 3 13 1 13 -4 0 -6 9 -10 19 -10 11 0 21 -3 24 -7 2 -5 2
-2 0 5 -2 9 7 12 30 10 23 -2 32 1 32 12 0 8 -6 14 -13 12 -48 -9 -58 -8 -68
11 -10 17 -12 18 -17 3z m13 -11 c0 -3 -2 -5 -5 -5 -3 0 -5 2 -5 5 0 3 2 5 5
5 3 0 5 -2 5 -5z"/>
<path d="M124 156 c-8 -9 -8 -16 0 -28 13 -17 36 -13 36 7 0 21 -23 35 -36 21z
m26 -11 c0 -3 -2 -5 -5 -5 -3 0 -5 2 -5 5 0 3 2 5 5 5 3 0 5 -2 5 -5z"/>
<path d="M451 156 c-14 -17 -7 -36 15 -36 15 0 18 18 5 38 -6 10 -10 10 -20
-2z"/>
<path d="M83 153 c4 -3 10 -3 14 0 3 4 0 7 -7 7 -7 0 -10 -3 -7 -7z"/>
<path d="M184 148 c-4 -7 -3 -8 4 -4 12 7 16 16 8 16 -3 0 -8 -5 -12 -12z"/>
<path d="M405 150 c3 -5 8 -10 11 -10 2 0 4 5 4 10 0 6 -5 10 -11 10 -5 0 -7
-4 -4 -10z"/>
<path d="M495 150 c3 -5 8 -10 11 -10 3 0 2 5 -1 10 -3 6 -8 10 -11 10 -3 0
-2 -4 1 -10z"/>
<path d="M528 153 c7 -3 16 -2 19 1 4 3 -2 6 -13 5 -11 0 -14 -3 -6 -6z"/>
<path d="M723 153 c4 -3 10 -3 14 0 3 4 0 7 -7 7 -7 0 -10 -3 -7 -7z"/>
<path d="M762 152 c-10 -7 -8 -13 7 -26 21 -19 37 -7 27 19 -6 17 -15 18 -34
7z m28 -7 c0 -3 -2 -5 -5 -5 -3 0 -5 2 -5 5 0 3 2 5 5 5 3 0 5 -2 5 -5z"/>
<path d="M823 143 c4 -3 10 -3 14 0 3 4 0 7 -7 7 -7 0 -10 -3 -7 -7z"/>
<path d="M205 130 c-9 -15 3 -29 24 -27 16 1 17 5 10 19 -11 20 -25 23 -34 8z"/>
<path d="M521 122 c-9 -16 -7 -19 12 -18 12 0 22 7 22 15 0 22 -23 24 -34 3z"/>
<path d="M845 130 c-9 -15 3 -29 24 -27 16 1 17 5 10 19 -11 20 -25 23 -34 8z"/>
<path d="M341 122 c-1 -7 6 -15 14 -18 8 -4 12 -11 8 -18 -4 -6 1 -5 10 3 19
15 12 35 -8 27 -8 -3 -16 0 -19 7 -3 9 -5 8 -5 -1z"/>
<path d="M105 110 c-3 -5 -1 -10 4 -10 6 0 11 5 11 10 0 6 -2 10 -4 10 -3 0
-8 -4 -11 -10z"/>
<path d="M264 109 c-10 -17 13 -36 27 -22 12 12 4 33 -11 33 -5 0 -12 -5 -16
-11z"/>
<path d="M430 115 c0 -3 2 -5 5 -5 3 0 5 2 5 5 0 3 -2 5 -5 5 -3 0 -5 -2 -5
-5z"/>
<path d="M582 103 c2 -10 10 -18 18 -18 22 0 18 29 -3 33 -14 3 -18 -1 -15
-15z"/>
<path d="M745 110 c-3 -5 -1 -10 4 -10 6 0 11 5 11 10 0 6 -2 10 -4 10 -3 0
-8 -4 -11 -10z"/>
<path d="M810 115 c0 -3 2 -5 5 -5 3 0 5 2 5 5 0 3 -2 5 -5 5 -3 0 -5 -2 -5
-5z"/>
<path d="M904 109 c-10 -17 13 -36 27 -22 12 12 4 33 -11 33 -5 0 -12 -5 -16
-11z"/>
<path d="M150 95 c-10 -12 -10 -19 -2 -27 17 -17 37 5 25 27 -9 15 -11 15 -23
0z"/>
<path d="M476 101 c-4 -6 -12 -8 -18 -5 -6 4 -6 -2 1 -15 7 -11 16 -21 21 -21
15 0 22 19 12 36 -6 12 -11 13 -16 5z m4 -26 c0 -3 -2 -5 -5 -5 -3 0 -5 2 -5
5 0 3 2 5 5 5 3 0 5 -2 5 -5z"/>
<path d="M784 89 c-10 -17 13 -36 27 -22 12 12 4 33 -11 33 -5 0 -12 -5 -16
-11z"/>
<path d="M340 85 c0 -3 2 -5 5 -5 3 0 5 2 5 5 0 3 -2 5 -5 5 -3 0 -5 -2 -5 -5z"/>
<path d="M625 68 c-15 -47 -14 -50 5 -33 10 9 16 24 13 36 -7 24 -9 24 -18 -3z"/>
<path d="M81 56 c-9 -11 -6 -15 12 -18 15 -3 24 0 24 8 0 19 -24 25 -36 10z"/>
<path d="M721 56 c-9 -11 -6 -15 12 -18 15 -3 24 0 24 8 0 19 -24 25 -36 10z"/>
<path d="M0 55 c0 -3 2 -5 5 -5 3 0 5 2 5 5 0 3 -2 5 -5 5 -3 0 -5 -2 -5 -5z"/>
<path d="M24 49 c-10 -17 13 -36 27 -22 12 12 4 33 -11 33 -5 0 -12 -5 -16
-11z"/>
<path d="M264 48 c-3 -4 -19 -8 -36 -8 -24 0 -29 -3 -24 -16 5 -14 4 -15 -8
-5 -8 7 -17 8 -20 3 -3 -6 -21 -8 -40 -5 -20 2 -37 0 -41 -7 -9 -14 103 -11
123 3 6 5 12 6 12 3 0 -4 9 2 21 12 12 12 28 18 41 14 13 -3 16 -7 8 -12 -9
-5 -8 -9 2 -12 9 -4 14 2 16 16 1 17 -4 22 -24 22 -14 0 -28 -4 -30 -8z m-74
-33 c0 -3 -2 -5 -5 -5 -3 0 -5 2 -5 5 0 3 2 5 5 5 3 0 5 -2 5 -5z"/>
<path d="M344 49 c-10 -17 13 -36 27 -22 12 12 4 33 -11 33 -5 0 -12 -5 -16
-11z"/>
<path d="M400 50 c0 -13 27 -13 35 0 3 6 -3 10 -14 10 -12 0 -21 -4 -21 -10z"/>
<path d="M563 47 c-3 -5 -13 -7 -23 -4 -10 3 -30 -3 -45 -13 -14 -9 -36 -15
-49 -13 -13 3 -27 0 -31 -6 -5 -8 12 -11 58 -9 36 2 63 7 59 12 -3 5 3 6 14 2
10 -4 15 -4 12 0 -11 10 16 33 28 23 7 -5 11 -4 11 4 0 15 -25 18 -34 4z m-43
-27 c-24 -15 -36 -11 -14 4 10 8 21 12 24 10 2 -3 -2 -9 -10 -14z"/>
<path d="M664 49 c-10 -17 13 -36 27 -22 12 12 4 33 -11 33 -5 0 -12 -5 -16
-11z"/>
<path d="M914 48 c-3 -4 5 -8 18 -9 13 0 17 -3 11 -6 -17 -6 -17 -20 0 -20 7
0 14 11 15 23 1 17 -3 22 -19 21 -11 -1 -23 -5 -25 -9z"/>
<path d="M450 35 c0 -3 2 -5 5 -5 3 0 5 2 5 5 0 3 -2 5 -5 5 -3 0 -5 -2 -5 -5z"/>
<path d="M844 24 c5 -14 4 -15 -8 -5 -8 7 -17 8 -20 3 -3 -6 -21 -8 -40 -5
-19 2 -37 -1 -41 -7 -4 -7 14 -10 58 -8 50 2 67 6 76 20 9 15 8 18 -10 18 -15
0 -19 -4 -15 -16z m-14 -9 c0 -3 -2 -5 -5 -5 -3 0 -5 2 -5 5 0 3 2 5 5 5 3 0
5 -2 5 -5z"/>
<path d="M890 35 c0 -3 2 -5 5 -5 3 0 5 2 5 5 0 3 -2 5 -5 5 -3 0 -5 -2 -5 -5z"/>
<path d="M910 25 c0 -3 2 -5 5 -5 3 0 5 2 5 5 0 3 -2 5 -5 5 -3 0 -5 -2 -5 -5z"/>
<path d="M283 3 c4 -3 10 -3 14 0 3 4 0 7 -7 7 -7 0 -10 -3 -7 -7z"/>
<path d="M580 5 c0 -3 2 -5 5 -5 3 0 5 2 5 5 0 3 -2 5 -5 5 -3 0 -5 -2 -5 -5z"/>
<path d="M610 5 c0 -3 2 -5 5 -5 3 0 5 2 5 5 0 3 -2 5 -5 5 -3 0 -5 -2 -5 -5z"/>
<path d="M870 5 c0 -3 2 -5 5 -5 3 0 5 2 5 5 0 3 -2 5 -5 5 -3 0 -5 -2 -5 -5z"/>
</g>
<g transform="translate(0.000000,96.000000) scale(0.100000,-0.100000)"
fill="#007b18" stroke="none">
<path d="M124 929 c-10 -17 13 -36 27 -22 12 12 4 33 -11 33 -5 0 -12 -5 -16
-11z"/>
<path d="M444 929 c-10 -17 13 -36 27 -22 12 12 4 33 -11 33 -5 0 -12 -5 -16
-11z"/>
<path d="M765 930 c-4 -6 -1 -18 6 -26 11 -14 13 -14 21 0 15 26 -12 51 -27
26z"/>
<path d="M110 895 c0 -3 2 -5 5 -5 3 0 5 2 5 5 0 3 -2 5 -5 5 -3 0 -5 -2 -5
-5z"/>
<path d="M244 889 c-10 -17 13 -36 27 -22 12 12 4 33 -11 33 -5 0 -12 -5 -16
-11z m26 -14 c0 -3 -2 -5 -5 -5 -3 0 -5 2 -5 5 0 3 2 5 5 5 3 0 5 -2 5 -5z"/>
<path d="M420 895 c0 -3 2 -5 5 -5 3 0 5 2 5 5 0 3 -2 5 -5 5 -3 0 -5 -2 -5
-5z"/>
<path d="M564 889 c-10 -17 13 -36 27 -22 12 12 4 33 -11 33 -5 0 -12 -5 -16
-11z"/>
<path d="M884 889 c-10 -17 13 -36 27 -22 12 12 4 33 -11 33 -5 0 -12 -5 -16
-11z"/>
<path d="M90 870 c-12 -7 -12 -12 -2 -22 9 -9 15 -9 24 0 16 16 -2 34 -22 22z"/>
<path d="M404 869 c-11 -19 13 -34 31 -19 13 11 15 10 9 -3 -3 -9 2 -19 13
-25 15 -9 19 -7 20 9 1 12 -9 25 -27 34 -35 18 -37 18 -46 4z"/>
<path d="M724 869 c-10 -17 13 -36 27 -22 12 12 4 33 -11 33 -5 0 -12 -5 -16
-11z"/>
<path d="M130 855 c-10 -12 -10 -19 -2 -27 17 -17 37 5 25 27 -9 15 -11 15
-23 0z"/>
<path d="M774 863 c3 -6 2 -13 -4 -15 -6 -2 -6 -9 0 -18 7 -12 12 -12 22 -2
10 10 8 16 -6 30 -11 9 -16 12 -12 5z"/>
<path d="M100 825 c0 -3 2 -5 5 -5 3 0 5 2 5 5 0 3 -2 5 -5 5 -3 0 -5 -2 -5
-5z"/>
<path d="M126 793 c-4 -9 0 -23 9 -32 11 -11 15 -12 15 -3 0 7 5 10 11 6 8 -5
8 -1 0 14 -16 29 -28 35 -35 15z"/>
<path d="M445 803 c3 -7 1 -13 -4 -13 -8 0 -7 -6 1 -19 13 -21 38 -17 38 7 0
8 -3 12 -7 9 -3 -4 -12 1 -20 11 -8 9 -12 11 -8 5z"/>
<path d="M773 799 c-14 -14 -6 -39 13 -39 15 0 18 18 6 37 -6 10 -11 10 -19 2z"/>
<path d="M200 766 c-8 -10 -6 -15 6 -20 17 -7 34 0 34 14 0 15 -28 19 -40 6z"/>
<path d="M526 772 c-7 -12 7 -29 26 -29 13 0 15 4 7 19 -10 19 -24 23 -33 10z"/>
<path d="M841 762 c-8 -16 -6 -18 12 -17 12 1 22 8 22 15 0 21 -23 23 -34 2z"/>
<path d="M260 748 c0 -7 4 -19 9 -26 6 -10 10 -10 20 2 7 8 10 20 6 26 -9 14
-35 13 -35 -2z"/>
<path d="M490 755 c0 -3 2 -5 5 -5 3 0 5 2 5 5 0 3 -2 5 -5 5 -3 0 -5 -2 -5
-5z"/>
<path d="M584 749 c-10 -17 13 -36 27 -22 12 12 4 33 -11 33 -5 0 -12 -5 -16
-11z"/>
<path d="M902 743 c2 -10 10 -18 18 -18 22 0 18 29 -3 33 -14 3 -18 -1 -15
-15z"/>
<path d="M156 741 c-4 -6 -12 -8 -18 -5 -6 4 -6 -2 1 -15 7 -11 16 -21 21 -21
15 0 22 19 12 36 -6 12 -11 13 -16 5z m14 -16 c0 -3 -2 -5 -5 -5 -3 0 -5 2 -5
5 0 3 2 5 5 5 3 0 5 -2 5 -5z"/>
<path d="M791 732 c-8 -15 -8 -23 0 -28 17 -10 33 11 21 32 -9 16 -10 16 -21
-4z m9 -17 c0 -3 -2 -5 -5 -5 -3 0 -5 2 -5 5 0 3 2 5 5 5 3 0 5 -2 5 -5z"/>
<path d="M464 729 c-10 -17 13 -36 27 -22 12 12 4 33 -11 33 -5 0 -12 -5 -16
-11z"/>
<path d="M670 695 c-10 -12 -10 -19 -2 -27 17 -17 37 5 25 27 -9 15 -11 15
-23 0z"/>
<path d="M24 689 c-10 -17 13 -36 27 -22 12 12 4 33 -11 33 -5 0 -12 -5 -16
-11z"/>
<path d="M70 695 c0 -3 2 -5 5 -5 3 0 5 2 5 5 0 3 -2 5 -5 5 -3 0 -5 -2 -5 -5z"/>
<path d="M344 689 c-8 -14 11 -33 25 -25 6 4 11 11 11 16 0 13 -29 20 -36 9z"/>
<path d="M390 685 c0 -3 2 -5 5 -5 3 0 5 2 5 5 0 3 -2 5 -5 5 -3 0 -5 -2 -5
-5z"/>
<path d="M840 685 c0 -3 2 -5 5 -5 3 0 5 2 5 5 0 3 -2 5 -5 5 -3 0 -5 -2 -5
-5z"/>
<path d="M124 609 c-10 -17 13 -36 27 -22 12 12 4 33 -11 33 -5 0 -12 -5 -16
-11z"/>
<path d="M444 609 c-10 -17 13 -36 27 -22 12 12 4 33 -11 33 -5 0 -12 -5 -16
-11z"/>
<path d="M765 610 c-4 -6 -1 -18 6 -26 11 -14 13 -14 21 0 15 26 -12 51 -27
26z"/>
<path d="M90 575 c0 -3 2 -5 5 -5 3 0 5 2 5 5 0 3 -2 5 -5 5 -3 0 -5 -2 -5 -5z"/>
<path d="M244 569 c-10 -17 13 -36 27 -22 12 12 4 33 -11 33 -5 0 -12 -5 -16
-11z"/>
<path d="M420 575 c0 -3 2 -5 5 -5 3 0 5 2 5 5 0 3 -2 5 -5 5 -3 0 -5 -2 -5
-5z"/>
<path d="M564 569 c-10 -17 13 -36 27 -22 12 12 4 33 -11 33 -5 0 -12 -5 -16
-11z"/>
<path d="M884 569 c-10 -17 13 -36 27 -22 12 12 4 33 -11 33 -5 0 -12 -5 -16
-11z"/>
<path d="M85 550 c-11 -18 7 -32 34 -26 14 3 20 3 13 0 -15 -7 -6 -24 14 -24
26 0 15 28 -18 44 -37 19 -35 19 -43 6z"/>
<path d="M404 549 c-11 -19 13 -34 31 -19 13 11 15 10 9 -3 -3 -9 2 -19 13
-25 15 -9 19 -7 20 9 1 12 -9 25 -27 34 -35 18 -37 18 -46 4z"/>
<path d="M724 549 c-10 -17 13 -36 27 -22 12 12 4 33 -11 33 -5 0 -12 -5 -16
-11z"/>
<path d="M774 543 c3 -6 2 -13 -4 -15 -6 -2 -6 -9 0 -18 7 -12 12 -12 22 -2
10 10 8 16 -6 30 -11 9 -16 12 -12 5z"/>
<path d="M444 476 c-8 -9 -8 -16 0 -28 13 -18 36 -13 36 8 0 9 -4 13 -9 9 -5
-3 -11 1 -13 9 -2 11 -5 11 -14 2z"/>
<path d="M771 476 c-14 -17 -7 -36 15 -36 15 0 18 18 5 38 -6 10 -10 10 -20
-2z"/>
<path d="M124 469 c-3 -6 1 -18 10 -27 11 -11 16 -12 16 -4 0 7 5 10 11 6 8
-4 8 0 0 15 -13 23 -26 27 -37 10z"/>
<path d="M205 450 c-3 -6 1 -17 9 -26 9 -9 16 -11 16 -4 0 6 5 8 11 4 8 -4 8
0 0 15 -13 23 -26 27 -36 11z"/>
<path d="M526 452 c-7 -12 7 -29 26 -29 13 0 15 4 7 19 -10 19 -24 23 -33 10z"/>
<path d="M841 442 c-8 -16 -6 -18 12 -17 12 1 22 8 22 15 0 21 -23 23 -34 2z"/>
<path d="M265 431 c-3 -6 -1 -11 5 -11 6 0 8 -5 4 -11 -4 -7 -1 -10 7 -7 17 6
19 30 2 35 -6 2 -14 -1 -18 -6z"/>
<path d="M490 435 c0 -3 2 -5 5 -5 3 0 5 2 5 5 0 3 -2 5 -5 5 -3 0 -5 -2 -5
-5z"/>
<path d="M584 429 c-10 -17 13 -36 27 -22 12 12 4 33 -11 33 -5 0 -12 -5 -16
-11z"/>
<path d="M902 423 c4 -21 33 -25 33 -3 0 8 -8 16 -18 18 -14 3 -18 -1 -15 -15z"/>
<path d="M180 425 c0 -3 2 -5 5 -5 3 0 5 2 5 5 0 3 -2 5 -5 5 -3 0 -5 -2 -5
-5z"/>
<path d="M796 421 c-4 -6 -12 -8 -18 -5 -6 4 -6 -2 1 -15 7 -11 16 -21 21 -21
15 0 22 19 12 36 -6 12 -11 13 -16 5z m4 -26 c0 -3 -2 -5 -5 -5 -3 0 -5 2 -5
5 0 3 2 5 5 5 3 0 5 -2 5 -5z"/>
<path d="M150 410 c-12 -7 -12 -12 -2 -22 9 -9 15 -9 24 0 16 16 -2 34 -22 22z"/>
<path d="M464 409 c-10 -17 13 -36 27 -22 12 12 4 33 -11 33 -5 0 -12 -5 -16
-11z"/>
<path d="M30 375 c-9 -11 -10 -19 -2 -27 11 -11 32 -3 32 13 0 6 -5 7 -12 3
-8 -5 -9 -2 -5 9 8 21 3 22 -13 2z"/>
<path d="M344 369 c-8 -14 11 -33 25 -25 6 4 11 11 11 16 0 13 -29 20 -36 9z"/>
<path d="M666 372 c-8 -13 11 -35 23 -28 6 4 11 11 11 16 0 11 -28 21 -34 12z"/>
<path d="M390 365 c0 -3 2 -5 5 -5 3 0 5 2 5 5 0 3 -2 5 -5 5 -3 0 -5 -2 -5
-5z"/>
<path d="M840 365 c0 -3 2 -5 5 -5 3 0 5 2 5 5 0 3 -2 5 -5 5 -3 0 -5 -2 -5
-5z"/>
<path d="M124 289 c-10 -17 13 -36 27 -22 12 12 4 33 -11 33 -5 0 -12 -5 -16
-11z m16 -4 c0 -3 -2 -5 -5 -5 -3 0 -5 2 -5 5 0 3 2 5 5 5 3 0 5 -2 5 -5z"/>
<path d="M445 290 c-4 -6 -1 -18 6 -26 11 -14 13 -14 21 0 15 26 -12 51 -27
26z"/>
<path d="M764 289 c-10 -17 13 -36 27 -22 12 12 4 33 -11 33 -5 0 -12 -5 -16
-11z m16 -4 c0 -3 -2 -5 -5 -5 -3 0 -5 2 -5 5 0 3 2 5 5 5 3 0 5 -2 5 -5z"/>
<path d="M100 255 c0 -3 2 -5 5 -5 3 0 5 2 5 5 0 3 -2 5 -5 5 -3 0 -5 -2 -5
-5z"/>
<path d="M245 250 c-4 -6 -1 -18 6 -26 11 -14 13 -14 21 0 15 26 -12 51 -27
26z"/>
<path d="M564 249 c-10 -17 13 -36 27 -22 12 12 4 33 -11 33 -5 0 -12 -5 -16
-11z"/>
<path d="M730 255 c0 -3 2 -5 5 -5 3 0 5 2 5 5 0 3 -2 5 -5 5 -3 0 -5 -2 -5
-5z"/>
<path d="M884 249 c-10 -17 13 -36 27 -22 12 12 4 33 -11 33 -5 0 -12 -5 -16
-11z"/>
<path d="M84 229 c-10 -17 13 -36 27 -22 12 12 4 33 -11 33 -5 0 -12 -5 -16
-11z"/>
<path d="M404 229 c-10 -17 13 -36 27 -22 12 12 4 33 -11 33 -5 0 -12 -5 -16
-11z"/>
<path d="M724 229 c-10 -17 13 -36 27 -22 12 12 4 33 -11 33 -5 0 -12 -5 -16
-11z"/>
<path d="M131 216 c-14 -17 -7 -36 15 -36 15 0 18 18 5 38 -6 10 -10 10 -20
-2z"/>
<path d="M454 223 c3 -6 2 -13 -4 -15 -6 -2 -6 -9 0 -18 7 -12 12 -12 22 -2
10 10 8 16 -6 30 -11 9 -16 12 -12 5z"/>
<path d="M770 215 c-11 -13 -11 -19 3 -32 15 -15 17 -15 22 0 4 9 3 23 -2 32
-9 15 -11 15 -23 0z"/>
<path d="M124 156 c-8 -9 -8 -16 0 -28 13 -18 36 -13 36 8 0 9 -4 13 -9 9 -5
-3 -11 1 -13 9 -2 11 -5 11 -14 2z"/>
<path d="M451 156 c-14 -17 -7 -36 15 -36 15 0 18 18 5 38 -6 10 -10 10 -20
-2z"/>
<path d="M762 152 c-10 -3 -9 -8 4 -23 18 -20 34 -17 34 7 0 8 -4 13 -9 10 -5
-4 -11 -2 -13 2 -1 5 -9 7 -16 4z"/>
<path d="M206 132 c-7 -12 7 -29 26 -29 13 0 15 4 7 19 -10 19 -24 23 -33 10z"/>
<path d="M521 122 c-8 -16 -6 -18 12 -17 12 1 22 8 22 15 0 21 -23 23 -34 2z"/>
<path d="M846 132 c-7 -12 7 -29 26 -29 13 0 15 4 7 19 -10 19 -24 23 -33 10z"/>
<path d="M264 109 c-10 -17 13 -36 27 -22 12 12 4 33 -11 33 -5 0 -12 -5 -16
-11z"/>
<path d="M582 103 c2 -10 10 -18 18 -18 22 0 18 29 -3 33 -14 3 -18 -1 -15
-15z"/>
<path d="M810 115 c0 -3 2 -5 5 -5 3 0 5 2 5 5 0 3 -2 5 -5 5 -3 0 -5 -2 -5
-5z"/>
<path d="M904 109 c-10 -17 13 -36 27 -22 12 12 4 33 -11 33 -5 0 -12 -5 -16
-11z"/>
<path d="M150 95 c-10 -12 -10 -19 -2 -27 17 -17 37 5 25 27 -9 15 -11 15 -23
0z"/>
<path d="M476 101 c-4 -6 -12 -8 -18 -5 -6 4 -6 -2 1 -15 7 -11 16 -21 21 -21
15 0 22 19 12 36 -6 12 -11 13 -16 5z m4 -26 c0 -3 -2 -5 -5 -5 -3 0 -5 2 -5
5 0 3 2 5 5 5 3 0 5 -2 5 -5z"/>
<path d="M784 89 c-10 -17 13 -36 27 -22 12 12 4 33 -11 33 -5 0 -12 -5 -16
-11z"/>
<path d="M24 49 c-8 -14 11 -33 25 -25 6 4 11 11 11 16 0 13 -29 20 -36 9z"/>
<path d="M346 52 c-8 -13 11 -35 23 -28 6 4 11 11 11 16 0 11 -28 21 -34 12z"/>
<path d="M664 49 c-8 -14 11 -33 25 -25 6 4 11 11 11 16 0 13 -29 20 -36 9z"/>
<path d="M70 45 c0 -3 2 -5 5 -5 3 0 5 2 5 5 0 3 -2 5 -5 5 -3 0 -5 -2 -5 -5z"/>
<path d="M520 45 c0 -3 2 -5 5 -5 3 0 5 2 5 5 0 3 -2 5 -5 5 -3 0 -5 -2 -5 -5z"/>
<path d="M710 45 c0 -3 2 -5 5 -5 3 0 5 2 5 5 0 3 -2 5 -5 5 -3 0 -5 -2 -5 -5z"/>
</g>
<g transform="translate(0.000000,96.000000) scale(0.100000,-0.100000)"
fill="#d9ffeb" stroke="none">
<path d="M125 929 c-10 -15 1 -23 20 -15 9 3 13 10 10 16 -8 13 -22 13 -30 -1z"/>
<path d="M445 929 c-10 -14 -1 -21 19 -13 9 3 13 10 10 15 -7 12 -21 11 -29
-2z"/>
<path d="M765 930 c-8 -13 15 -24 27 -12 6 6 4 11 -6 15 -8 3 -18 2 -21 -3z"/>
<path d="M245 889 c-10 -14 -1 -21 19 -13 9 3 13 10 10 15 -7 12 -21 11 -29
-2z"/>
<path d="M565 889 c-10 -14 -1 -21 19 -13 9 3 13 10 10 15 -7 12 -21 11 -29
-2z"/>
<path d="M885 889 c-10 -15 1 -23 20 -15 9 3 13 10 10 16 -8 13 -22 13 -30 -1z"/>
<path d="M93 873 c-15 -5 -17 -23 -4 -23 5 0 11 7 15 15 3 8 4 15 3 14 -1 0
-8 -3 -14 -6z"/>
<path d="M407 873 c-12 -12 -7 -22 8 -17 8 4 15 10 15 15 0 11 -14 12 -23 2z"/>
<path d="M727 873 c-10 -9 -9 -23 2 -23 5 0 11 7 15 15 5 15 -5 20 -17 8z"/>
<path d="M125 849 c-9 -14 -2 -20 14 -10 8 6 9 11 3 15 -6 3 -14 1 -17 -5z"/>
<path d="M445 849 c-10 -15 3 -25 16 -12 7 7 7 13 1 17 -6 3 -14 1 -17 -5z"/>
<path d="M771 851 c-8 -6 -9 -11 -3 -15 6 -3 14 -1 17 5 9 14 2 20 -14 10z"/>
<path d="M127 793 c-12 -12 -7 -22 8 -17 8 4 15 10 15 15 0 11 -14 12 -23 2z"/>
<path d="M446 791 c-4 -7 -5 -15 -2 -18 9 -9 19 4 14 18 -4 11 -6 11 -12 0z"/>
<path d="M765 791 c-6 -11 9 -23 19 -14 9 9 7 23 -3 23 -6 0 -12 -4 -16 -9z"/>
<path d="M205 769 c-4 -6 -3 -15 3 -21 6 -6 11 -4 15 6 7 18 -9 31 -18 15z"/>
<path d="M526 772 c-2 -4 -1 -14 3 -21 6 -10 10 -9 14 3 6 16 -8 32 -17 18z"/>
<path d="M845 769 c-4 -6 -5 -13 -2 -16 7 -7 27 6 27 18 0 12 -17 12 -25 -2z"/>
<path d="M267 753 c-10 -9 -9 -23 2 -23 5 0 11 7 15 15 5 15 -5 20 -17 8z"/>
<path d="M585 749 c-4 -6 -5 -13 -2 -16 7 -7 27 6 27 18 0 12 -17 12 -25 -2z"/>
<path d="M907 753 c-12 -12 -7 -22 8 -17 8 4 15 10 15 15 0 11 -14 12 -23 2z"/>
<path d="M146 731 c-4 -7 -5 -15 -2 -18 9 -9 19 4 14 18 -4 11 -6 11 -12 0z"/>
<path d="M466 731 c-4 -5 -2 -12 3 -15 5 -4 12 -2 15 3 4 5 2 12 -3 15 -5 4
-12 2 -15 -3z"/>
<path d="M787 726 c-4 -10 -1 -13 8 -9 8 3 12 9 9 14 -7 12 -11 11 -17 -5z"/>
<path d="M27 693 c-10 -9 -9 -23 2 -23 5 0 11 7 15 15 5 15 -5 20 -17 8z"/>
<path d="M345 689 c-10 -15 3 -25 16 -12 7 7 7 13 1 17 -6 3 -14 1 -17 -5z"/>
<path d="M665 689 c-4 -6 -5 -13 -2 -16 7 -7 27 6 27 18 0 12 -17 12 -25 -2z"/>
<path d="M127 613 c-12 -11 -8 -23 8 -23 8 0 15 7 15 15 0 16 -12 20 -23 8z"/>
<path d="M445 609 c-10 -14 -1 -21 19 -13 9 3 13 10 10 15 -7 12 -21 11 -29
-2z"/>
<path d="M765 610 c-8 -13 15 -24 27 -12 6 6 4 11 -6 15 -8 3 -18 2 -21 -3z"/>
<path d="M245 569 c-10 -15 1 -23 20 -15 9 3 13 10 10 16 -8 13 -22 13 -30 -1z"/>
<path d="M565 569 c-10 -14 -1 -21 19 -13 9 3 13 10 10 15 -7 12 -21 11 -29
-2z"/>
<path d="M885 569 c-10 -15 1 -23 20 -15 9 3 13 10 10 16 -8 13 -22 13 -30 -1z"/>
<path d="M87 553 c-12 -12 -7 -22 8 -17 8 4 15 10 15 15 0 11 -14 12 -23 2z"/>
<path d="M407 553 c-10 -9 -9 -23 2 -23 5 0 11 7 15 15 5 15 -5 20 -17 8z"/>
<path d="M727 553 c-10 -9 -9 -23 2 -23 5 0 11 7 15 15 5 15 -5 20 -17 8z"/>
<path d="M135 530 c3 -5 8 -10 11 -10 2 0 4 5 4 10 0 6 -5 10 -11 10 -5 0 -7
-4 -4 -10z"/>
<path d="M445 529 c-10 -15 3 -25 16 -12 7 7 7 13 1 17 -6 3 -14 1 -17 -5z"/>
<path d="M771 531 c-8 -6 -9 -11 -3 -15 6 -3 14 -1 17 5 9 14 2 20 -14 10z"/>
<path d="M120 515 c0 -3 2 -5 5 -5 3 0 5 2 5 5 0 3 -2 5 -5 5 -3 0 -5 -2 -5
-5z"/>
<path d="M127 473 c-10 -9 -9 -23 2 -23 5 0 11 7 15 15 5 15 -5 20 -17 8z"/>
<path d="M446 471 c-4 -7 -5 -15 -2 -18 9 -9 19 4 14 18 -4 11 -6 11 -12 0z"/>
<path d="M767 473 c-12 -12 -7 -22 8 -17 8 4 15 10 15 15 0 11 -14 12 -23 2z"/>
<path d="M205 449 c-4 -6 -5 -13 -2 -16 7 -7 27 6 27 18 0 12 -17 12 -25 -2z"/>
<path d="M526 452 c-2 -4 -1 -14 3 -21 6 -10 10 -9 14 3 6 16 -8 32 -17 18z"/>
<path d="M845 449 c-4 -6 -5 -13 -2 -16 7 -7 27 6 27 18 0 12 -17 12 -25 -2z"/>
<path d="M265 430 c-3 -5 1 -10 9 -10 9 0 16 5 16 10 0 6 -4 10 -9 10 -6 0
-13 -4 -16 -10z"/>
<path d="M585 429 c-4 -6 -5 -13 -2 -16 7 -7 27 6 27 18 0 12 -17 12 -25 -2z"/>
<path d="M907 433 c-12 -12 -7 -22 8 -17 8 4 15 10 15 15 0 11 -14 12 -23 2z"/>
<path d="M150 410 c-8 -5 -11 -12 -7 -16 4 -4 13 -2 19 4 15 15 7 24 -12 12z"/>
<path d="M466 411 c-4 -5 -2 -12 3 -15 5 -4 12 -2 15 3 4 5 2 12 -3 15 -5 4
-12 2 -15 -3z"/>
<path d="M785 409 c-4 -6 -4 -13 -1 -16 3 -4 6 -1 6 6 0 7 5 9 12 5 7 -4 8 -3
4 4 -9 15 -13 15 -21 1z"/>
<path d="M24 369 c-3 -6 -1 -16 5 -22 8 -8 11 -5 11 11 0 24 -5 28 -16 11z"/>
<path d="M345 369 c-10 -15 3 -25 16 -12 7 7 7 13 1 17 -6 3 -14 1 -17 -5z"/>
<path d="M666 372 c-2 -4 -1 -14 3 -21 6 -10 10 -9 14 3 6 16 -8 32 -17 18z"/>
<path d="M125 289 c-10 -14 -1 -21 19 -13 9 3 13 10 10 15 -7 12 -21 11 -29
-2z m15 -4 c0 -3 -2 -5 -5 -5 -3 0 -5 2 -5 5 0 3 2 5 5 5 3 0 5 -2 5 -5z"/>
<path d="M445 290 c-8 -13 15 -24 27 -12 6 6 4 11 -6 15 -8 3 -18 2 -21 -3z"/>
<path d="M765 289 c-10 -14 -1 -21 19 -13 9 3 13 10 10 15 -7 12 -21 11 -29
-2z m15 -4 c0 -3 -2 -5 -5 -5 -3 0 -5 2 -5 5 0 3 2 5 5 5 3 0 5 -2 5 -5z"/>
<path d="M245 249 c-10 -15 1 -23 20 -15 9 3 13 10 10 16 -8 13 -22 13 -30 -1z"/>
<path d="M565 249 c-10 -15 1 -23 20 -15 9 3 13 10 10 16 -8 13 -22 13 -30 -1z"/>
<path d="M885 249 c-10 -15 1 -23 20 -15 9 3 13 10 10 16 -8 13 -22 13 -30 -1z"/>
<path d="M85 229 c-4 -6 -5 -13 -2 -16 7 -7 27 6 27 18 0 12 -17 12 -25 -2z"/>
<path d="M407 233 c-10 -9 -9 -23 2 -23 5 0 11 7 15 15 5 15 -5 20 -17 8z"/>
<path d="M725 229 c-4 -6 -5 -13 -2 -16 7 -7 27 6 27 18 0 12 -17 12 -25 -2z
m15 -4 c0 -3 -2 -5 -5 -5 -3 0 -5 2 -5 5 0 3 2 5 5 5 3 0 5 -2 5 -5z"/>
<path d="M125 209 c-9 -14 -2 -20 14 -10 8 6 9 11 3 15 -6 3 -14 1 -17 -5z"/>
<path d="M451 211 c-8 -6 -9 -11 -3 -15 6 -3 14 -1 17 5 9 14 2 20 -14 10z"/>
<path d="M765 209 c-9 -14 -2 -20 14 -10 8 6 9 11 3 15 -6 3 -14 1 -17 -5z"/>
<path d="M126 151 c-4 -7 -5 -15 -2 -18 9 -9 19 4 14 18 -4 11 -6 11 -12 0z"/>
<path d="M447 153 c-12 -12 -7 -22 8 -17 8 4 15 10 15 15 0 11 -14 12 -23 2z"/>
<path d="M766 151 c-4 -7 -5 -15 -2 -18 9 -9 19 4 14 18 -4 11 -6 11 -12 0z"/>
<path d="M206 132 c-2 -4 -1 -14 3 -21 6 -10 10 -9 14 3 6 16 -8 32 -17 18z"/>
<path d="M525 129 c-4 -6 -5 -13 -2 -16 7 -7 27 6 27 18 0 12 -17 12 -25 -2z"/>
<path d="M846 132 c-2 -4 -1 -14 3 -21 6 -10 10 -9 14 3 6 16 -8 32 -17 18z"/>
<path d="M265 109 c-4 -6 -5 -13 -2 -16 7 -7 27 6 27 18 0 12 -17 12 -25 -2z"/>
<path d="M587 113 c-12 -12 -7 -22 8 -17 8 4 15 10 15 15 0 11 -14 12 -23 2z"/>
<path d="M905 109 c-4 -6 -5 -13 -2 -16 7 -7 27 6 27 18 0 12 -17 12 -25 -2z"/>
<path d="M146 91 c-4 -5 -2 -12 3 -15 5 -4 12 -2 15 3 4 5 2 12 -3 15 -5 4
-12 2 -15 -3z"/>
<path d="M465 89 c-4 -6 -4 -13 -1 -16 3 -4 6 -1 6 6 0 7 5 9 12 5 7 -4 8 -3
4 4 -9 15 -13 15 -21 1z"/>
<path d="M786 91 c-4 -5 -2 -12 3 -15 5 -4 12 -2 15 3 4 5 2 12 -3 15 -5 4
-12 2 -15 -3z"/>
<path d="M25 49 c-10 -15 3 -25 16 -12 7 7 7 13 1 17 -6 3 -14 1 -17 -5z"/>
<path d="M346 52 c-2 -4 -1 -14 3 -21 6 -10 10 -9 14 3 6 16 -8 32 -17 18z"/>
<path d="M665 49 c-10 -15 3 -25 16 -12 7 7 7 13 1 17 -6 3 -14 1 -17 -5z"/>
</g>
<g transform="translate(0.000000,96.000000) scale(0.100000,-0.100000)"
fill="#17dd62" stroke="none">
<path d="M130 925 c-10 -12 -10 -15 3 -15 19 0 31 16 18 24 -5 3 -14 -1 -21
-9z"/>
<path d="M450 925 c-14 -16 -3 -20 19 -6 8 5 9 11 3 15 -5 3 -15 -1 -22 -9z"/>
<path d="M770 920 c0 -5 4 -10 9 -10 6 0 13 5 16 10 3 6 -1 10 -9 10 -9 0 -16
-4 -16 -10z"/>
<path d="M255 880 c-3 -6 1 -7 9 -4 18 7 21 14 7 14 -6 0 -13 -4 -16 -10z"/>
<path d="M575 880 c-3 -6 1 -7 9 -4 18 7 21 14 7 14 -6 0 -13 -4 -16 -10z"/>
<path d="M895 880 c-3 -5 -2 -10 4 -10 5 0 13 5 16 10 3 6 2 10 -4 10 -5 0
-13 -4 -16 -10z"/>
<path d="M90 860 c0 -7 3 -10 7 -7 3 4 3 10 0 14 -4 3 -7 0 -7 -7z"/>
<path d="M413 863 c4 -3 10 -3 14 0 3 4 0 7 -7 7 -7 0 -10 -3 -7 -7z"/>
<path d="M730 860 c0 -7 3 -10 7 -7 3 4 3 10 0 14 -4 3 -7 0 -7 -7z"/>
<path d="M777 853 c-4 -3 -7 -11 -7 -17 0 -6 5 -5 12 2 6 6 9 14 7 17 -3 3 -9
2 -12 -2z"/>
<path d="M133 843 c4 -3 10 -3 14 0 3 4 0 7 -7 7 -7 0 -10 -3 -7 -7z"/>
<path d="M450 839 c0 -5 5 -7 10 -4 6 3 10 8 10 11 0 2 -4 4 -10 4 -5 0 -10
-5 -10 -11z"/>
<path d="M140 785 c0 -3 2 -5 5 -5 3 0 5 2 5 5 0 3 -2 5 -5 5 -3 0 -5 -2 -5
-5z"/>
<path d="M774 778 c-4 -7 -3 -8 4 -4 12 7 16 16 8 16 -3 0 -8 -5 -12 -12z"/>
<path d="M450 775 c0 -3 2 -5 5 -5 3 0 5 2 5 5 0 3 -2 5 -5 5 -3 0 -5 -2 -5
-5z"/>
<path d="M856 763 c-6 -14 -5 -15 5 -6 7 7 10 15 7 18 -3 3 -9 -2 -12 -12z"/>
<path d="M214 758 c-4 -7 -3 -8 4 -4 12 7 16 16 8 16 -3 0 -8 -5 -12 -12z"/>
<path d="M534 758 c-4 -7 -3 -8 4 -4 12 7 16 16 8 16 -3 0 -8 -5 -12 -12z"/>
<path d="M594 738 c-4 -7 -3 -8 4 -4 12 7 16 16 8 16 -3 0 -8 -5 -12 -12z"/>
<path d="M920 745 c0 -3 2 -5 5 -5 3 0 5 2 5 5 0 3 -2 5 -5 5 -3 0 -5 -2 -5
-5z"/>
<path d="M270 735 c0 -3 2 -5 5 -5 3 0 5 2 5 5 0 3 -2 5 -5 5 -3 0 -5 -2 -5
-5z"/>
<path d="M145 720 c-3 -5 -1 -10 4 -10 6 0 11 5 11 10 0 6 -2 10 -4 10 -3 0
-8 -4 -11 -10z"/>
<path d="M470 719 c0 -5 5 -7 10 -4 6 3 10 8 10 11 0 2 -4 4 -10 4 -5 0 -10
-5 -10 -11z"/>
<path d="M785 720 c-3 -6 1 -7 9 -4 18 7 21 14 7 14 -6 0 -13 -4 -16 -10z"/>
<path d="M354 678 c-4 -7 -3 -8 4 -4 12 7 16 16 8 16 -3 0 -8 -5 -12 -12z"/>
<path d="M674 678 c-4 -7 -3 -8 4 -4 7 4 12 9 12 12 0 8 -9 4 -16 -8z"/>
<path d="M30 675 c0 -3 2 -5 5 -5 3 0 5 2 5 5 0 3 -2 5 -5 5 -3 0 -5 -2 -5 -5z"/>
<path d="M130 605 c-10 -12 -10 -15 4 -15 9 0 16 7 16 15 0 8 -2 15 -4 15 -2
0 -9 -7 -16 -15z"/>
<path d="M450 605 c-14 -16 -3 -20 19 -6 8 5 9 11 3 15 -5 3 -15 -1 -22 -9z"/>
<path d="M770 600 c0 -5 4 -10 9 -10 6 0 13 5 16 10 3 6 -1 10 -9 10 -9 0 -16
-4 -16 -10z"/>
<path d="M255 560 c-3 -5 -2 -10 4 -10 5 0 13 5 16 10 3 6 2 10 -4 10 -5 0
-13 -4 -16 -10z"/>
<path d="M575 560 c-3 -6 1 -7 9 -4 18 7 21 14 7 14 -6 0 -13 -4 -16 -10z"/>
<path d="M895 560 c-3 -5 -2 -10 4 -10 5 0 13 5 16 10 3 6 2 10 -4 10 -5 0
-13 -4 -16 -10z"/>
<path d="M93 543 c4 -3 10 -3 14 0 3 4 0 7 -7 7 -7 0 -10 -3 -7 -7z"/>
<path d="M410 540 c0 -7 3 -10 7 -7 3 4 3 10 0 14 -4 3 -7 0 -7 -7z"/>
<path d="M730 540 c0 -7 3 -10 7 -7 3 4 3 10 0 14 -4 3 -7 0 -7 -7z"/>
<path d="M140 530 c0 -7 3 -10 7 -7 3 4 3 10 0 14 -4 3 -7 0 -7 -7z"/>
<path d="M777 533 c-4 -3 -7 -11 -7 -17 0 -6 5 -5 12 2 6 6 9 14 7 17 -3 3 -9
2 -12 -2z"/>
<path d="M450 519 c0 -5 5 -7 10 -4 6 3 10 8 10 11 0 2 -4 4 -10 4 -5 0 -10
-5 -10 -11z"/>
<path d="M780 465 c0 -3 2 -5 5 -5 3 0 5 2 5 5 0 3 -2 5 -5 5 -3 0 -5 -2 -5
-5z"/>
<path d="M130 455 c0 -3 2 -5 5 -5 3 0 5 2 5 5 0 3 -2 5 -5 5 -3 0 -5 -2 -5
-5z"/>
<path d="M216 443 c-6 -14 -5 -15 5 -6 7 7 10 15 7 18 -3 3 -9 -2 -12 -12z"/>
<path d="M450 455 c0 -3 2 -5 5 -5 3 0 5 2 5 5 0 3 -2 5 -5 5 -3 0 -5 -2 -5
-5z"/>
<path d="M856 443 c-6 -14 -5 -15 5 -6 7 7 10 15 7 18 -3 3 -9 -2 -12 -12z"/>
<path d="M534 438 c-4 -7 -3 -8 4 -4 12 7 16 16 8 16 -3 0 -8 -5 -12 -12z"/>
<path d="M280 425 c0 -3 2 -5 5 -5 3 0 5 2 5 5 0 3 -2 5 -5 5 -3 0 -5 -2 -5
-5z"/>
<path d="M594 418 c-4 -7 -3 -8 4 -4 12 7 16 16 8 16 -3 0 -8 -5 -12 -12z"/>
<path d="M920 425 c0 -3 2 -5 5 -5 3 0 5 2 5 5 0 3 -2 5 -5 5 -3 0 -5 -2 -5
-5z"/>
<path d="M150 405 c-8 -9 -8 -15 -2 -15 12 0 26 19 19 26 -2 2 -10 -2 -17 -11z"/>
<path d="M470 399 c0 -5 5 -7 10 -4 6 3 10 8 10 11 0 2 -4 4 -10 4 -5 0 -10
-5 -10 -11z"/>
<path d="M800 405 c0 -3 2 -5 5 -5 3 0 5 2 5 5 0 3 -2 5 -5 5 -3 0 -5 -2 -5
-5z"/>
<path d="M780 395 c0 -3 2 -5 5 -5 3 0 5 2 5 5 0 3 -2 5 -5 5 -3 0 -5 -2 -5
-5z"/>
<path d="M354 358 c-4 -7 -3 -8 4 -4 12 7 16 16 8 16 -3 0 -8 -5 -12 -12z"/>
<path d="M675 359 c-4 -6 -5 -12 -2 -15 2 -3 7 2 10 11 7 17 1 20 -8 4z"/>
<path d="M30 350 c0 -7 3 -10 7 -7 3 4 3 10 0 14 -4 3 -7 0 -7 -7z"/>
<path d="M132 284 c-14 -16 -5 -18 17 -5 7 5 9 11 5 14 -5 3 -15 -1 -22 -9z"/>
<path d="M772 284 c-14 -16 -5 -18 17 -5 7 5 9 11 5 14 -5 3 -15 -1 -22 -9z"/>
<path d="M450 280 c0 -5 4 -10 9 -10 6 0 13 5 16 10 3 6 -1 10 -9 10 -9 0 -16
-4 -16 -10z"/>
<path d="M255 240 c-3 -5 -2 -10 4 -10 5 0 13 5 16 10 3 6 2 10 -4 10 -5 0
-13 -4 -16 -10z"/>
<path d="M575 240 c-3 -5 -2 -10 4 -10 5 0 13 5 16 10 3 6 2 10 -4 10 -5 0
-13 -4 -16 -10z"/>
<path d="M895 240 c-3 -5 -2 -10 4 -10 5 0 13 5 16 10 3 6 2 10 -4 10 -5 0
-13 -4 -16 -10z"/>
<path d="M90 219 c0 -5 5 -7 10 -4 6 3 10 8 10 11 0 2 -4 4 -10 4 -5 0 -10 -5
-10 -11z"/>
<path d="M410 220 c0 -7 3 -10 7 -7 3 4 3 10 0 14 -4 3 -7 0 -7 -7z"/>
<path d="M734 218 c-4 -7 -3 -8 4 -4 7 4 12 9 12 12 0 8 -9 4 -16 -8z"/>
<path d="M457 213 c-4 -3 -7 -11 -7 -17 0 -6 5 -5 12 2 6 6 9 14 7 17 -3 3 -9
2 -12 -2z"/>
<path d="M133 203 c4 -3 10 -3 14 0 3 4 0 7 -7 7 -7 0 -10 -3 -7 -7z"/>
<path d="M773 203 c4 -3 10 -3 14 0 3 4 0 7 -7 7 -7 0 -10 -3 -7 -7z"/>
<path d="M460 145 c0 -3 2 -5 5 -5 3 0 5 2 5 5 0 3 -2 5 -5 5 -3 0 -5 -2 -5
-5z"/>
<path d="M130 135 c0 -3 2 -5 5 -5 3 0 5 2 5 5 0 3 -2 5 -5 5 -3 0 -5 -2 -5
-5z"/>
<path d="M536 123 c-6 -14 -5 -15 5 -6 7 7 10 15 7 18 -3 3 -9 -2 -12 -12z"/>
<path d="M770 135 c0 -3 2 -5 5 -5 3 0 5 2 5 5 0 3 -2 5 -5 5 -3 0 -5 -2 -5
-5z"/>
<path d="M214 118 c-4 -7 -3 -8 4 -4 12 7 16 16 8 16 -3 0 -8 -5 -12 -12z"/>
<path d="M854 118 c-4 -7 -3 -8 4 -4 7 4 12 9 12 12 0 8 -9 4 -16 -8z"/>
<path d="M274 98 c-4 -7 -3 -8 4 -4 7 4 12 9 12 12 0 8 -9 4 -16 -8z"/>
<path d="M600 105 c0 -3 2 -5 5 -5 3 0 5 2 5 5 0 3 -2 5 -5 5 -3 0 -5 -2 -5
-5z"/>
<path d="M914 98 c-4 -7 -3 -8 4 -4 7 4 12 9 12 12 0 8 -9 4 -16 -8z"/>
<path d="M150 79 c0 -5 5 -7 10 -4 6 3 10 8 10 11 0 2 -4 4 -10 4 -5 0 -10 -5
-10 -11z"/>
<path d="M480 85 c0 -3 2 -5 5 -5 3 0 5 2 5 5 0 3 -2 5 -5 5 -3 0 -5 -2 -5 -5z"/>
<path d="M790 79 c0 -5 5 -7 10 -4 6 3 10 8 10 11 0 2 -4 4 -10 4 -5 0 -10 -5
-10 -11z"/>
<path d="M460 75 c0 -3 2 -5 5 -5 3 0 5 2 5 5 0 3 -2 5 -5 5 -3 0 -5 -2 -5 -5z"/>
<path d="M34 38 c-4 -7 -3 -8 4 -4 12 7 16 16 8 16 -3 0 -8 -5 -12 -12z"/>
<path d="M355 39 c-4 -6 -5 -12 -2 -15 2 -3 7 2 10 11 7 17 1 20 -8 4z"/>
<path d="M674 38 c-4 -7 -3 -8 4 -4 7 4 12 9 12 12 0 8 -9 4 -16 -8z"/>
</g>
  </g>
</svg>
