<?xml version="1.0" encoding="UTF-8" standalone="no"?>
<!-- Created with Inkscape (http://www.inkscape.org/) -->

<svg
   xmlns:dc="http://purl.org/dc/elements/1.1/"
   xmlns:cc="http://creativecommons.org/ns#"
   xmlns:rdf="http://www.w3.org/1999/02/22-rdf-syntax-ns#"
   xmlns:svg="http://www.w3.org/2000/svg"
   xmlns="http://www.w3.org/2000/svg"
   xmlns:sodipodi="http://sodipodi.sourceforge.net/DTD/sodipodi-0.dtd"
   xmlns:inkscape="http://www.inkscape.org/namespaces/inkscape"
   width="32px"
   height="32px"
   viewBox="0 0 32px 32px"
   version="1.1"
   id="svgMain"
   inkscape:version="0.92.2 (5c3e80d, 2017-08-06)"
   sodipodi:docname="reference_SVG.svg">
  <defs
     id="defs4542" />
  <sodipodi:namedview
     id="base"
     pagecolor="#ffffff"
     bordercolor="#666666"
     borderopacity="1.0"
     inkscape:pageopacity="0.0"
     inkscape:pageshadow="2"
     inkscape:zoom="1"
     inkscape:cx="0"
     inkscape:cy="0"
     inkscape:document-units="px"
     inkscape:current-layer="layer1"
     showgrid="false"
     units="px"
     inkscape:window-width="1024"
     inkscape:window-height="768"
     inkscape:window-x="-8"
     inkscape:window-y="-8"
     inkscape:window-maximized="1" />
  <metadata
     id="metadata1">
    <rdf:RDF>
      <cc:Work
         rdf:about="">
        <dc:format>image/svg+xml</dc:format>
        <dc:type
           rdf:resource="http://purl.org/dc/dcmitype/StillImage" />
        <dc:title />
      </cc:Work>
    </rdf:RDF>
  </metadata>
  <g transform="translate(-32,-32)"
     inkscape:label="Layer 1"
     inkscape:groupmode="layer"
     id="layer1">
    <!-- INSERT MARKER -->
<g transform="translate(0.000000,96.000000) scale(0.100000,-0.100000)"
fill="#4adc72" stroke="none">
<path d="M0 480 l0 -480 480 0 480 0 0 480 0 480 -480 0 -480 0 0 -480z"/>
</g>
<g transform="translate(0.000000,96.000000) scale(0.100000,-0.100000)"
fill="#66e98b" stroke="none">
<path d="M2 813 c0 -82 3 -140 5 -130 4 14 8 16 19 6 8 -7 14 -7 14 -1 0 23
29 19 47 -7 l20 -27 -52 1 -52 0 -2 -63 c-1 -43 1 -62 8 -57 6 3 11 24 11 46
0 21 4 39 10 39 5 0 7 -8 4 -17 -5 -17 -5 -17 6 0 6 9 22 17 35 17 13 0 27 5
30 10 3 6 11 10 16 10 6 0 -1 -10 -16 -22 -15 -13 -34 -32 -44 -42 -9 -10 -26
-28 -38 -39 -20 -18 -23 -30 -23 -100 0 -71 1 -77 16 -63 22 22 27 20 13 -6
l-12 -23 20 20 c11 11 18 25 16 30 -2 6 7 -3 21 -20 32 -38 32 -43 0 -39 -15
1 -37 -2 -50 -6 -21 -9 -24 -16 -24 -67 0 -63 19 -64 23 -1 2 34 4 36 35 36
18 0 40 6 49 13 38 31 -2 -17 -54 -65 l-53 -49 0 -81 c1 -60 3 -76 11 -63 5 9
15 17 21 17 6 0 5 -7 -3 -17 -13 -16 -13 -16 10 -1 23 16 25 16 42 -7 11 -13
19 -25 19 -28 0 -7 -57 0 -72 9 -6 4 -8 3 -4 -4 3 -5 0 -13 -6 -15 -7 -3 58
-6 145 -6 143 -1 157 1 157 17 1 47 59 66 85 26 19 -30 19 -33 -2 -28 -10 2
-31 0 -48 -5 -22 -7 14 -10 126 -10 l157 -1 6 31 c5 27 8 30 21 19 13 -11 14
-10 10 2 -9 22 32 16 50 -8 21 -28 19 -30 -25 -28 -22 1 -43 -2 -46 -7 -3 -5
65 -9 150 -9 l156 0 0 480 0 480 -99 -1 -98 0 -51 -54 c-28 -29 -56 -56 -64
-60 -10 -6 -11 -5 0 6 6 7 12 30 12 51 0 38 0 38 39 38 22 0 43 4 46 10 4 6
-104 9 -309 9 l-316 -1 -23 -26 c-13 -15 -38 -40 -56 -57 l-32 -30 10 28 c6
15 8 27 5 27 -4 0 0 8 7 17 12 14 12 16 0 8 -10 -5 -12 -4 -7 3 4 7 22 12 41
12 19 0 37 5 40 10 4 6 -15 10 -49 10 l-55 0 1 -147z m202 100 c-2 -25 0 -32
7 -23 8 14 13 7 10 -13 -1 -5 3 -6 7 -3 5 3 18 -4 28 -17 10 -12 15 -19 10
-15 -5 5 -16 -1 -23 -12 -8 -11 -18 -18 -22 -15 -5 2 -8 -5 -7 -17 0 -12 -5
-23 -11 -25 -16 -6 -18 43 -3 52 20 12 9 20 -26 20 -36 0 -37 1 -38 38 -1 21
4 43 11 49 7 6 13 8 13 5 0 -5 31 4 46 12 1 1 0 -16 -2 -36z m193 -5 c-48 -46
-84 -76 -70 -58 6 8 13 31 15 49 4 31 8 35 39 39 19 2 36 6 38 8 2 2 6 2 9 0
2 -3 -12 -19 -31 -38z m126 31 c-9 -9 -6 -16 9 -29 17 -13 18 -19 8 -25 -9 -6
-11 -4 -5 6 5 8 4 10 0 6 -5 -4 -10 -14 -11 -22 -2 -11 2 -12 16 -5 16 9 30 4
30 -10 0 -8 -10 -10 -73 -15 -44 -3 -47 -1 -41 17 4 13 2 18 -4 14 -6 -3 -9 0
-8 6 3 18 25 55 26 42 0 -5 -6 -16 -12 -24 -7 -7 -1 -5 13 6 15 10 25 22 23
26 -2 3 4 9 13 11 10 3 20 5 23 6 2 0 -1 -4 -7 -10z m316 -6 c-9 -9 -7 -14 5
-19 9 -3 13 -10 10 -15 -3 -5 0 -9 6 -9 6 0 8 -4 5 -10 -3 -5 0 -10 8 -10 8 0
21 -7 28 -17 13 -15 12 -15 -11 -3 -22 12 -24 11 -13 -2 7 -8 10 -18 6 -22 -4
-4 1 -4 11 0 14 5 17 4 11 -5 -4 -7 -18 -11 -30 -9 -16 3 -22 1 -18 -8 2 -7
10 -12 16 -10 7 1 9 1 4 -1 -4 -3 -4 -10 -1 -16 5 -9 4 -9 -6 0 -7 6 -18 9
-25 7 -19 -8 -29 14 -14 32 15 18 12 21 -29 27 -41 7 -50 14 -28 23 9 3 13 10
10 15 -3 5 -10 6 -16 3 -7 -5 -8 -2 -4 5 5 7 15 10 25 7 12 -5 11 -2 -3 9 -17
13 -18 17 -6 28 10 9 12 9 6 0 -8 -14 3 -17 28 -7 9 3 14 9 11 13 -2 4 2 8 10
8 11 0 12 -4 4 -14z m-560 -7 c10 -6 12 -5 7 2 -4 7 -2 10 7 7 12 -5 16 -60 4
-71 -2 -3 -19 13 -37 36 -26 32 -28 40 -13 37 10 -1 24 -7 32 -11z m315 2 c-5
-9 -2 -8 9 1 23 18 25 14 19 -32 -4 -36 -5 -37 -23 -21 -10 9 -16 21 -13 25 3
5 -2 9 -10 9 -9 0 -16 5 -16 11 0 5 -4 7 -10 4 -5 -3 -10 -1 -10 4 0 6 14 11
31 11 21 0 28 -4 23 -12z m335 -2 c5 -4 11 -3 14 1 2 5 2 2 0 -5 -1 -8 -3 -25
-3 -40 l0 -25 -26 24 c-14 13 -30 32 -35 42 -9 15 -6 17 15 13 14 -3 30 -7 35
-10z m-378 -104 c-14 -26 -14 -42 -1 -22 6 9 10 10 10 3 0 -12 -17 -26 -36
-29 -18 -3 -9 47 11 62 23 17 30 12 16 -14z m39 14 c0 -17 -14 -29 -23 -20 -8
8 3 34 14 34 5 0 9 -6 9 -14z m-473 -11 c0 -8 -4 -12 -9 -9 -4 3 -8 -2 -8 -10
0 -9 5 -16 11 -16 8 0 8 -5 -1 -15 -11 -13 -6 -15 35 -15 l48 0 -19 -22 c-10
-12 -13 -18 -6 -14 18 11 15 -3 -6 -22 -10 -10 -11 -12 -2 -7 13 9 13 8 1 -7
-18 -24 -33 -23 -61 7 -13 14 -29 24 -36 21 -7 -3 -11 2 -9 12 2 9 4 22 4 27
1 6 4 5 9 -1 11 -18 49 -26 58 -13 4 7 3 9 -4 5 -6 -3 -13 -2 -17 4 -4 6 -10
8 -15 5 -5 -3 -12 4 -15 16 -5 14 -2 25 6 30 11 7 11 9 1 9 -7 0 -10 5 -7 10
4 6 10 8 15 5 5 -3 11 -1 15 5 9 14 12 13 12 -5z m321 -34 c-3 -23 1 -27 37
-32 22 -3 34 -7 27 -8 -10 -1 -10 -6 -1 -23 11 -21 11 -22 -5 -9 -14 12 -16
12 -10 -3 3 -9 1 -16 -6 -16 -6 0 -8 -4 -5 -10 3 -5 1 -10 -5 -10 -6 0 -8 -4
-5 -10 16 -26 -15 -4 -94 67 -28 24 -31 31 -16 29 11 -2 26 1 33 7 9 7 16 6
25 -3 10 -10 9 -12 -5 -7 -9 3 -22 -1 -29 -9 -10 -13 -8 -14 14 -10 15 3 27 0
27 -5 0 -5 5 -9 11 -9 6 0 7 5 2 13 -4 6 -8 14 -8 17 -4 26 -19 50 -33 50 -13
0 -13 2 4 14 25 19 46 2 42 -33z m302 44 c0 -3 -2 -5 -5 -5 -3 0 -5 2 -5 5 0
3 2 5 5 5 3 0 5 -2 5 -5z m-478 -12 c-10 -4 -9 -10 5 -27 18 -21 18 -21 -3 -3
-11 9 -24 14 -27 11 -4 -4 1 -13 11 -21 15 -13 14 -13 -6 -3 -23 11 -23 12 -6
31 9 10 22 19 28 18 6 0 5 -3 -2 -6z m28 2 c0 -3 -2 -5 -5 -5 -3 0 -5 2 -5 5
0 3 2 5 5 5 3 0 5 -2 5 -5z m467 -30 l-5 -35 41 0 c39 0 40 -1 21 -16 -10 -8
-13 -13 -6 -9 17 9 15 -6 -5 -35 -10 -14 -16 -27 -15 -30 2 -2 0 -6 -5 -7 -4
-2 -36 23 -71 55 -53 49 -61 60 -49 70 11 10 17 9 28 -5 13 -16 12 -17 -3 -5
-23 18 -29 1 -7 -22 17 -18 19 -18 25 -2 4 9 13 15 20 12 16 -6 28 10 14 19
-6 4 -7 11 -4 17 4 6 2 8 -4 4 -6 -3 -13 -2 -16 3 -4 5 4 12 16 14 13 2 24 5
26 6 2 0 2 -15 -1 -34z m-697 10 c0 -8 -5 -14 -12 -12 -15 3 -18 -25 -4 -35 6
-4 7 -10 3 -14 -21 -21 -30 35 -9 59 18 21 22 21 22 2z m305 -5 c-3 -4 1 -11
7 -13 8 -4 7 -6 -4 -6 -11 -1 -16 6 -15 18 0 11 5 17 9 15 5 -3 6 -9 3 -14z
m350 -5 c39 -32 29 -32 -15 0 -19 14 -30 25 -24 25 5 -1 23 -12 39 -25z m-315
0 c0 -3 -2 -5 -5 -5 -3 0 -5 2 -5 5 0 3 2 5 5 5 3 0 5 -2 5 -5z m97 -2 c-4 -3
-10 -3 -14 0 -3 4 0 7 7 7 7 0 10 -3 7 -7z m93 2 c0 -3 -2 -5 -5 -5 -3 0 -5 2
-5 5 0 3 2 5 5 5 3 0 5 -2 5 -5z m330 0 c0 -3 -2 -5 -5 -5 -3 0 -5 2 -5 5 0 3
2 5 5 5 3 0 5 -2 5 -5z m-750 -10 c0 -3 -2 -5 -5 -5 -3 0 -5 2 -5 5 0 3 2 5 5
5 3 0 5 -2 5 -5z m640 0 c0 -3 -2 -5 -5 -5 -3 0 -5 2 -5 5 0 3 2 5 5 5 3 0 5
-2 5 -5z m-750 -10 c0 -3 -2 -5 -5 -5 -3 0 -5 2 -5 5 0 3 2 5 5 5 3 0 5 -2 5
-5z m510 0 c0 -3 -2 -5 -5 -5 -3 0 -5 2 -5 5 0 3 2 5 5 5 3 0 5 -2 5 -5z
m-290 -10 c0 -3 -2 -5 -5 -5 -3 0 -5 2 -5 5 0 3 2 5 5 5 3 0 5 -2 5 -5z m575
-5 c3 -5 4 -10 1 -10 -3 0 -8 5 -11 10 -3 6 -4 10 -1 10 3 0 8 -4 11 -10z
m-545 -5 c0 -3 -2 -5 -5 -5 -3 0 -5 2 -5 5 0 3 2 5 5 5 3 0 5 -2 5 -5z m320
-10 c0 -3 -2 -5 -5 -5 -3 0 -5 2 -5 5 0 3 2 5 5 5 3 0 5 -2 5 -5z m314 -22
c-9 -37 -30 -60 -60 -66 l-25 -4 23 21 c12 11 26 20 30 19 5 -2 7 0 6 5 -2 7
24 52 30 52 1 0 -1 -12 -4 -27z m-644 -13 c-6 -11 -8 -25 -5 -30 4 -6 3 -10
-2 -9 -4 1 -21 -3 -36 -9 -39 -16 -44 -15 -21 7 10 10 22 17 27 14 4 -2 7 2 7
9 0 15 19 38 32 38 5 0 4 -9 -2 -20z m315 -13 c-5 -17 -18 -29 -37 -36 -22 -8
-28 -8 -25 2 2 6 10 11 16 10 6 -2 10 3 9 10 -2 6 4 11 12 9 8 -2 12 0 8 4 -4
4 -3 13 4 21 15 18 20 10 13 -20z m108 -10 l25 -33 -32 1 c-17 1 -40 -2 -52
-6 -21 -7 -23 1 -15 43 0 3 13 5 27 3 18 -2 24 2 20 11 -9 22 0 16 27 -19z
m117 28 c0 -3 -2 -5 -5 -5 -3 0 -5 2 -5 5 0 3 2 5 5 5 3 0 5 -2 5 -5z m-491
-22 c-13 -15 -12 -15 12 1 26 16 27 16 43 -8 9 -14 16 -27 16 -30 0 -5 -46 1
-68 9 -7 3 -11 1 -8 -4 3 -5 -1 -11 -9 -15 -9 -3 -15 0 -15 10 0 22 19 54 32
54 6 0 5 -6 -3 -17z m181 -38 c0 -3 -2 -5 -5 -5 -3 0 -5 2 -5 5 0 3 2 5 5 5 3
0 5 -2 5 -5z m320 0 c0 -3 -2 -5 -5 -5 -3 0 -5 2 -5 5 0 3 2 5 5 5 3 0 5 -2 5
-5z m-646 -36 c-3 -5 -11 -6 -17 -3 -7 4 9 -14 35 -39 25 -26 42 -50 36 -53
-5 -3 -8 -14 -5 -23 2 -10 -1 -18 -8 -18 -8 0 -11 7 -8 16 4 10 0 9 -10 -4
-14 -18 -14 -20 1 -23 9 -2 21 -8 26 -12 5 -5 -8 -5 -27 0 -20 4 -38 6 -41 3
-2 -3 -3 3 -1 14 1 10 8 17 13 16 7 -2 9 4 5 14 -4 11 -3 14 5 9 7 -4 12 -3
12 2 0 5 -20 7 -44 5 -29 -4 -46 -1 -51 7 -5 9 -4 11 3 6 7 -4 12 -1 12 8 0 8
3 23 7 33 6 16 5 16 -10 4 -15 -12 -17 -12 -11 3 3 9 17 16 32 16 14 0 22 3
19 7 -9 9 13 34 24 27 5 -3 7 -10 3 -15z m236 17 c0 -3 -27 -32 -60 -64 -33
-33 -60 -56 -60 -52 0 5 5 12 10 15 6 3 10 23 10 45 0 37 1 38 36 38 20 0 41
5 47 11 12 12 17 14 17 7z m79 -22 c-9 -11 -8 -14 5 -14 9 0 16 -7 16 -15 0
-8 11 -25 25 -37 28 -24 32 -38 10 -38 -8 0 -12 -6 -9 -14 3 -7 -7 -21 -22
-31 -14 -9 -23 -12 -20 -6 9 14 1 14 -27 0 -21 -10 -21 -10 -3 5 11 9 16 16
11 16 -5 0 1 10 13 23 l21 22 -42 0 c-35 0 -42 3 -42 20 -1 11 -3 25 -7 30 -3
6 1 17 10 25 14 13 15 12 9 -4 -7 -17 -6 -17 10 -5 34 27 42 37 35 44 -4 5 -1
5 6 1 10 -6 10 -11 1 -22z m220 0 c-41 -46 -92 -94 -98 -94 -3 0 0 5 7 12 7 7
12 29 12 50 0 38 0 38 39 38 22 0 43 5 46 10 3 6 9 10 12 10 4 0 -4 -12 -18
-26z m100 0 c-9 -11 -8 -15 5 -20 9 -3 13 -10 10 -15 -3 -5 0 -9 6 -9 6 0 8
-4 5 -10 -3 -5 0 -10 8 -10 8 0 21 -7 28 -17 13 -15 12 -15 -11 -3 -22 12 -24
11 -13 -2 7 -8 10 -18 6 -22 -4 -4 1 -4 11 0 14 5 17 4 11 -5 -4 -7 -17 -11
-30 -9 -18 4 -21 1 -17 -14 3 -14 7 -16 12 -8 5 8 10 8 14 2 10 -17 -20 -21
-42 -7 -10 8 -23 11 -28 7 -5 -4 0 3 10 16 23 27 20 31 -27 34 -23 2 -32 7
-26 12 5 6 9 17 9 25 0 14 -2 14 -11 1 -9 -13 -10 -13 -6 0 2 8 13 14 23 13
18 -1 18 -1 0 13 -17 12 -18 16 -6 27 10 9 12 9 6 0 -4 -8 -2 -13 6 -13 14 0
48 20 35 20 -5 0 -5 5 -2 10 4 6 11 8 16 4 6 -4 6 -11 -2 -20z m-689 1 c0 -3
-2 -5 -5 -5 -3 0 -5 2 -5 5 0 3 2 5 5 5 3 0 5 -2 5 -5z m125 -5 c5 -7 11 -8
19 -1 8 7 10 -1 7 -32 l-3 -41 -24 28 c-14 15 -21 32 -18 38 4 6 3 8 -2 5 -6
-3 -16 -2 -24 4 -11 6 -8 9 12 9 15 0 30 -5 33 -10z m215 5 c0 -3 -2 -5 -5 -5
-3 0 -5 2 -5 5 0 3 2 5 5 5 3 0 5 -2 5 -5z m135 -13 c-3 -8 -5 -26 -5 -40 l-1
-27 -25 29 c-20 23 -23 31 -12 38 9 6 6 7 -9 3 -14 -4 -23 -2 -23 4 0 6 17 10
40 8 29 -1 39 -6 35 -15z m304 4 c5 -4 11 -3 14 1 2 5 2 2 0 -5 -1 -8 -3 -25
-3 -40 l0 -25 -26 24 c-14 13 -30 32 -35 42 -9 15 -6 17 15 13 14 -3 30 -7 35
-10z m-829 -71 c0 -3 -2 -5 -5 -5 -3 0 -5 2 -5 5 0 3 2 5 5 5 3 0 5 -2 5 -5z
m-10 -20 c0 -3 -2 -5 -5 -5 -3 0 -5 2 -5 5 0 3 2 5 5 5 3 0 5 -2 5 -5z m20
-21 c-7 -16 -7 -23 0 -19 6 3 10 -1 10 -9 0 -22 -40 -15 -68 11 -14 13 -21 23
-17 23 5 0 19 -10 32 -22 20 -18 23 -19 23 -5 0 9 -6 17 -12 17 -10 0 15 19
39 29 1 1 -2 -11 -7 -25z m325 -22 c1 -23 5 -27 35 -30 19 -2 38 -8 43 -13 4
-5 4 -7 1 -4 -12 8 -33 -16 -27 -31 3 -8 0 -14 -7 -14 -6 0 -9 -4 -6 -9 3 -5
0 -14 -8 -20 -8 -7 -16 -8 -18 -4 -2 6 -81 72 -107 90 -2 2 -1 6 3 10 4 4 11
2 15 -5 4 -7 15 -10 24 -6 13 5 14 10 6 26 -8 15 -14 17 -22 9 -6 -6 -16 -11
-21 -11 -11 1 17 20 31 22 5 0 14 9 22 20 17 25 36 9 36 -30z m323 13 c0 -14
-4 -25 -9 -25 -14 0 -39 31 -33 42 4 6 10 5 15 -3 8 -13 13 -5 10 14 -1 5 3 6
8 3 4 -3 9 -17 9 -31z m-488 20 c0 -3 -2 -5 -5 -5 -3 0 -5 2 -5 5 0 3 2 5 5 5
3 0 5 -2 5 -5z m20 0 c0 -3 -2 -5 -5 -5 -3 0 -5 2 -5 5 0 3 2 5 5 5 3 0 5 -2
5 -5z m409 -18 c6 -8 8 -16 5 -19 -3 -3 7 -8 21 -12 24 -6 36 -26 15 -26 -5 0
-10 4 -10 9 0 5 -9 11 -21 14 -12 3 -18 10 -15 16 4 5 -2 14 -11 20 -10 6 -13
11 -7 11 6 0 17 -6 23 -13z m-529 -12 c0 -3 -2 -5 -5 -5 -3 0 -5 2 -5 5 0 3 2
5 5 5 3 0 5 -2 5 -5z m117 -2 c-4 -3 -10 -3 -14 0 -3 4 0 7 7 7 7 0 10 -3 7
-7z m390 0 c-4 -3 -10 -3 -14 0 -3 4 0 7 7 7 7 0 10 -3 7 -7z m-627 -8 c0 -3
-2 -5 -5 -5 -3 0 -5 2 -5 5 0 3 2 5 5 5 3 0 5 -2 5 -5z m530 0 c0 -3 -2 -5 -5
-5 -3 0 -5 2 -5 5 0 3 2 5 5 5 3 0 5 -2 5 -5z m27 -2 c-4 -3 -10 -3 -14 0 -3
4 0 7 7 7 7 0 10 -3 7 -7z m303 2 c0 -3 -2 -5 -5 -5 -3 0 -5 2 -5 5 0 3 2 5 5
5 3 0 5 -2 5 -5z m-880 -16 c0 -5 5 -7 10 -4 6 3 10 -1 10 -11 0 -14 2 -15 17
-3 9 8 14 9 11 4 -4 -6 5 -15 18 -22 13 -6 24 -7 24 -2 0 5 -7 12 -15 15 -8 4
-15 10 -15 15 0 4 8 5 17 2 10 -4 32 -7 50 -6 29 0 31 -2 23 -22 -5 -13 -6
-26 -2 -31 4 -4 1 -4 -5 0 -9 5 -13 1 -13 -11 0 -15 -2 -16 -10 -3 -8 12 -10
10 -10 -9 0 -22 -2 -21 -45 18 -24 22 -48 41 -52 41 -5 0 -14 9 -21 20 -7 12
-8 20 -2 20 5 0 10 -5 10 -11z m350 6 c0 -3 -2 -5 -5 -5 -3 0 -5 2 -5 5 0 3 2
5 5 5 3 0 5 -2 5 -5z m315 -11 c13 -6 14 -9 3 -16 -9 -7 -7 -8 9 -5 13 3 26 1
29 -4 8 -13 24 -11 22 4 -2 7 11 13 36 15 25 2 36 0 31 -7 -3 -6 -10 -9 -15
-6 -5 3 -7 -4 -5 -15 3 -17 -24 -60 -38 -60 -1 0 -27 23 -57 50 -51 47 -55 59
-15 44z m212 -11 c-4 -3 -7 0 -7 7 0 7 3 10 7 7 3 -4 3 -10 0 -14z m-597 -8
c0 -3 -2 -5 -5 -5 -3 0 -5 2 -5 5 0 3 2 5 5 5 3 0 5 -2 5 -5z m308 -40 c-8
-24 -20 -37 -40 -44 -23 -8 -28 -8 -25 2 2 6 10 11 16 10 6 -2 10 3 9 10 -2 6
4 11 12 9 8 -2 12 0 7 4 -6 6 19 44 29 44 1 0 -3 -16 -8 -35z m222 30 c0 -3
-2 -5 -5 -5 -3 0 -5 2 -5 5 0 3 2 5 5 5 3 0 5 -2 5 -5z m40 0 c0 -3 -2 -5 -5
-5 -3 0 -5 2 -5 5 0 3 2 5 5 5 3 0 5 -2 5 -5z m-591 -51 c-7 -14 -20 -23 -28
-22 -9 1 -23 -1 -31 -6 -8 -5 3 10 25 32 41 41 58 39 34 -4z m211 41 c0 -3 -2
-5 -5 -5 -3 0 -5 2 -5 5 0 3 2 5 5 5 3 0 5 -2 5 -5z m320 0 c0 -3 -2 -5 -5 -5
-3 0 -5 2 -5 5 0 3 2 5 5 5 3 0 5 -2 5 -5z m115 -24 c-17 -34 -20 -36 -57 -45
-26 -6 -25 -4 15 34 50 47 63 50 42 11z m-415 14 c0 -3 -2 -5 -5 -5 -3 0 -5 2
-5 5 0 3 2 5 5 5 3 0 5 -2 5 -5z m215 -56 c-3 -3 -15 -6 -27 -5 -13 1 -33 -1
-45 -6 -17 -5 -23 -4 -23 6 0 24 12 46 21 40 5 -3 9 -1 9 5 0 6 7 7 17 4 12
-5 14 -3 9 8 -4 8 4 1 18 -15 14 -17 23 -33 21 -37z m-330 25 c21 -28 19 -32
-16 -28 -17 2 -39 -1 -50 -6 -15 -9 -19 -7 -19 5 0 49 55 68 85 29z m425 21
c0 -3 -2 -5 -5 -5 -3 0 -5 2 -5 5 0 3 2 5 5 5 3 0 5 -2 5 -5z m-25 -24 c3 -5
2 -12 -3 -15 -5 -3 -9 1 -9 9 0 17 3 19 12 6z m-645 -16 c0 -3 -2 -5 -5 -5 -3
0 -5 2 -5 5 0 3 2 5 5 5 3 0 5 -2 5 -5z m370 -10 c0 -3 -2 -5 -5 -5 -3 0 -5 2
-5 5 0 3 2 5 5 5 3 0 5 -2 5 -5z m-335 -42 c-18 -12 -18 -13 3 -13 13 0 22 -6
22 -15 0 -8 8 -22 18 -32 27 -26 33 -50 17 -63 -8 -7 -12 -16 -9 -21 3 -5 -2
-6 -10 -3 -9 3 -23 -6 -37 -25 -12 -17 -26 -28 -30 -26 -4 3 -5 -4 -2 -15 3
-12 0 -20 -6 -20 -7 0 -9 -4 -6 -10 3 -5 -2 -10 -12 -10 -15 0 -16 -2 -3 -10
8 -5 11 -10 6 -10 -4 0 -35 23 -67 51 -40 34 -56 55 -51 63 5 6 8 19 7 29 -2
9 1 15 6 11 5 -3 7 -10 4 -15 -4 -5 0 -9 7 -10 10 0 10 -2 0 -6 -6 -2 -9 -9
-6 -14 3 -6 11 -5 20 2 11 9 11 15 3 25 -9 11 -7 15 5 20 9 3 13 11 9 18 -3 6
4 1 16 -12 12 -12 21 -30 19 -40 -4 -23 63 -30 82 -8 10 13 10 16 -3 16 -13 0
-13 4 1 34 9 20 20 32 26 29 6 -4 5 0 -1 9 -7 8 -11 18 -8 21 3 4 2 4 -2 1 -5
-3 -9 -10 -9 -15 -1 -5 -2 -13 -3 -19 -1 -13 -51 -13 -71 0 -12 8 -12 10 -1
10 8 0 11 3 8 7 -4 3 -1 13 6 21 6 9 7 13 1 9 -6 -3 -11 0 -11 8 0 8 4 12 8
10 4 -3 10 2 13 10 3 8 9 15 13 14 21 -4 33 2 27 13 -5 7 -3 8 6 3 10 -6 9
-11 -5 -22z m224 1 c-41 -46 -92 -94 -98 -94 -3 0 0 5 7 12 7 7 12 29 12 50 0
38 0 38 39 38 22 0 43 5 46 10 3 6 9 10 12 10 4 0 -4 -12 -18 -26z m100 0 c-9
-11 -8 -15 5 -20 9 -3 13 -10 10 -15 -3 -5 0 -9 6 -9 6 0 8 -4 5 -10 -3 -5 0
-10 8 -10 8 0 21 -7 28 -17 13 -15 12 -15 -11 -3 -22 12 -24 11 -13 -2 7 -8
10 -18 6 -22 -4 -4 1 -4 11 0 14 5 17 4 11 -5 -4 -7 -17 -11 -30 -9 -18 4 -21
1 -17 -14 4 -15 7 -17 13 -6 6 9 9 9 9 1 0 -20 -16 -23 -39 -7 -18 13 -20 19
-10 30 15 19 10 23 -33 26 -19 2 -35 8 -35 15 0 7 4 10 9 7 4 -3 8 2 8 11 0
10 -5 13 -12 9 -7 -5 -8 -3 -4 5 5 7 15 10 25 7 12 -5 11 -2 -3 9 -17 13 -18
17 -6 28 10 9 12 9 6 0 -4 -8 -2 -13 6 -13 14 0 48 20 35 20 -5 0 -5 5 -2 10
4 6 11 8 16 4 6 -4 6 -11 -2 -20z m210 -12 c-19 -20 -47 -48 -64 -61 -16 -14
-24 -18 -17 -11 6 8 12 25 12 40 0 35 10 46 45 48 16 1 34 7 39 12 26 26 15 6
-15 -28z m110 12 c-9 -11 -8 -14 6 -14 13 0 16 -6 12 -21 -3 -12 -3 -18 0 -15
3 3 12 -2 20 -10 9 -8 12 -18 9 -22 -4 -3 -11 0 -16 8 -6 8 -10 11 -10 6 0 -5
-6 -5 -13 0 -7 5 -4 1 6 -9 12 -10 27 -15 38 -12 11 4 19 2 19 -4 0 -6 -7 -11
-15 -11 -8 0 -15 -5 -15 -11 0 -5 5 -7 12 -3 7 5 8 3 3 -6 -6 -10 -11 -9 -22
5 -16 23 -17 12 -2 -18 7 -12 8 -19 4 -15 -5 4 -15 2 -23 -5 -13 -10 -14 -9
-8 1 6 9 3 12 -9 10 -10 -2 -20 4 -22 12 -3 9 -1 11 4 5 4 -5 17 -11 28 -12
20 -1 20 -1 1 13 -13 9 -15 14 -6 14 31 0 -7 19 -42 22 -20 1 -34 6 -32 10 3
5 10 6 15 3 5 -3 6 1 3 9 -3 9 -9 14 -13 11 -4 -2 -8 2 -8 10 0 8 4 12 8 10 3
-3 12 2 19 10 11 13 10 14 -6 9 -20 -8 -19 -6 10 16 13 10 17 10 12 3 -10 -17
2 -16 19 1 8 7 11 17 7 21 -4 5 -1 5 6 1 10 -6 10 -11 1 -22z m-534 -12 c-3
-8 -5 -25 -5 -39 0 -25 -1 -26 -20 -8 -11 10 -22 26 -25 36 -4 11 -11 17 -16
14 -5 -4 -9 -2 -9 3 0 6 18 9 40 9 29 -2 39 -6 35 -15z m304 4 c5 -4 11 -3 14
1 2 5 2 2 0 -5 -1 -8 -3 -25 -3 -40 l0 -25 -26 24 c-14 13 -30 32 -35 42 -9
15 -6 17 15 13 14 -3 30 -7 35 -10z m295 3 c-4 -7 1 -7 16 1 28 15 31 12 23
-33 -5 -36 -7 -37 -24 -21 -10 9 -21 25 -24 35 -4 11 -11 17 -16 14 -5 -4 -9
-1 -9 4 0 6 9 11 21 11 12 0 17 -4 13 -11z m-787 -106 c-4 -3 -7 0 -7 7 0 7 3
10 7 7 3 -4 3 -10 0 -14z m312 -19 c-9 -12 -10 -15 -1 -10 6 4 12 3 12 -2 0
-9 -32 -21 -53 -22 -4 0 -2 10 4 23 7 12 11 24 10 25 -2 2 0 6 3 10 3 3 6 0 6
-7 0 -7 5 -9 10 -6 6 4 7 12 4 18 -5 9 -3 9 6 0 11 -10 11 -15 -1 -29z m326
-9 c1 -25 5 -30 25 -32 14 0 31 -1 39 -2 11 -1 10 -6 -4 -21 -10 -11 -15 -20
-10 -20 4 0 2 -6 -4 -13 -6 -8 -8 -17 -4 -20 3 -4 -2 -7 -13 -7 -16 0 -17 -2
-4 -10 8 -5 11 -10 7 -10 -13 0 -128 102 -122 109 4 3 10 0 14 -7 4 -7 15 -10
24 -6 13 5 14 10 7 25 -8 15 -7 17 5 13 8 -3 12 -10 9 -15 -6 -10 9 -12 19 -2
4 3 -2 12 -13 20 -26 19 -25 31 3 29 17 -1 22 -7 22 -31z m-381 9 c5 -14 4
-15 -9 -4 -17 14 -19 20 -6 20 5 0 12 -7 15 -16z m326 11 c0 -3 -2 -5 -5 -5
-3 0 -5 2 -5 5 0 3 2 5 5 5 3 0 5 -2 5 -5z m-530 -20 c0 -3 -2 -5 -5 -5 -3 0
-5 2 -5 5 0 3 2 5 5 5 3 0 5 -2 5 -5z m320 0 c0 -3 -2 -5 -5 -5 -3 0 -5 2 -5
5 0 3 2 5 5 5 3 0 5 -2 5 -5z m90 0 c0 -3 -2 -5 -5 -5 -3 0 -5 2 -5 5 0 3 2 5
5 5 3 0 5 -2 5 -5z m105 -5 c-3 -5 -12 -10 -18 -10 -7 0 -6 4 3 10 19 12 23
12 15 0z m235 5 c0 -3 -2 -5 -5 -5 -3 0 -5 2 -5 5 0 3 2 5 5 5 3 0 5 -2 5 -5z
m-640 -10 c0 -3 -2 -5 -5 -5 -3 0 -5 2 -5 5 0 3 2 5 5 5 3 0 5 -2 5 -5z m79
-16 c-13 -8 -5 -13 14 -10 5 1 6 -3 2 -9 -3 -6 4 -10 17 -10 18 0 20 2 8 10
-13 9 -13 10 0 11 8 1 24 1 35 1 82 -5 77 -3 58 -25 -10 -11 -13 -17 -6 -14 6
4 15 2 19 -4 4 -7 3 -9 -4 -5 -6 3 -13 -3 -17 -14 -3 -11 -11 -20 -16 -20 -6
0 -7 -4 -4 -10 3 -5 1 -10 -4 -10 -6 0 -11 5 -11 10 0 6 -4 10 -8 10 -5 0 -33
23 -63 51 -30 28 -48 48 -41 45 6 -4 12 -2 12 4 0 6 5 8 11 4 8 -4 7 -9 -2
-15z m541 16 c0 -3 -2 -5 -5 -5 -3 0 -5 2 -5 5 0 3 2 5 5 5 3 0 5 -2 5 -5z
m-320 -10 c0 -3 -2 -5 -5 -5 -3 0 -5 2 -5 5 0 3 2 5 5 5 3 0 5 -2 5 -5z m20 0
c0 -3 -2 -5 -5 -5 -3 0 -5 2 -5 5 0 3 2 5 5 5 3 0 5 -2 5 -5z m100 0 c0 -3 -2
-5 -5 -5 -3 0 -5 2 -5 5 0 3 2 5 5 5 3 0 5 -2 5 -5z m220 0 c0 -3 -2 -5 -5 -5
-3 0 -5 2 -5 5 0 3 2 5 5 5 3 0 5 -2 5 -5z m-624 -73 c-8 -16 -13 -32 -11 -36
3 -3 2 -4 -1 -2 -3 3 -17 0 -31 -5 -19 -7 -24 -6 -20 3 2 7 10 12 16 11 6 -2
10 3 8 10 -1 6 5 11 13 9 8 -2 12 0 7 4 -4 4 0 16 10 26 23 25 27 16 9 -20z
m224 33 c0 -3 -2 -5 -5 -5 -3 0 -5 2 -5 5 0 3 2 5 5 5 3 0 5 -2 5 -5z m100
-20 c-5 -14 -7 -25 -4 -25 18 0 -26 -28 -52 -33 l-32 -6 47 44 c25 25 47 45
48 45 1 0 -2 -11 -7 -25z m220 20 c0 -3 -2 -5 -5 -5 -3 0 -5 2 -5 5 0 3 2 5 5
5 3 0 5 -2 5 -5z m102 -22 c-5 -10 -7 -24 -5 -31 3 -7 1 -12 -4 -11 -4 1 -21
-3 -36 -9 -41 -17 -43 -15 -17 13 12 13 28 22 34 18 6 -3 8 -2 3 2 -4 5 0 17
10 27 19 22 28 17 15 -9z m-402 12 c0 -3 -2 -5 -5 -5 -3 0 -5 2 -5 5 0 3 2 5
5 5 3 0 5 -2 5 -5z m285 -5 c3 -5 4 -10 1 -10 -3 0 -8 5 -11 10 -3 6 -4 10 -1
10 3 0 8 -4 11 -10z m-635 -5 c0 -3 -2 -5 -5 -5 -3 0 -5 2 -5 5 0 3 2 5 5 5 3
0 5 -2 5 -5z m630 -20 c0 -3 -2 -5 -5 -5 -3 0 -5 2 -5 5 0 3 2 5 5 5 3 0 5 -2
5 -5z m-610 -40 c0 -3 -2 -5 -5 -5 -3 0 -5 2 -5 5 0 3 2 5 5 5 3 0 5 -2 5 -5z
m640 0 c0 -3 -2 -5 -5 -5 -3 0 -5 2 -5 5 0 3 2 5 5 5 3 0 5 -2 5 -5z"/>
<path d="M144 918 c-4 -7 -3 -8 4 -4 12 7 16 16 8 16 -3 0 -8 -5 -12 -12z"/>
<path d="M173 923 c4 -3 10 -3 14 0 3 4 0 7 -7 7 -7 0 -10 -3 -7 -7z"/>
<path d="M150 895 c0 -3 2 -5 5 -5 3 0 5 2 5 5 0 3 -2 5 -5 5 -3 0 -5 -2 -5
-5z"/>
<path d="M200 865 c0 -3 2 -5 5 -5 3 0 5 2 5 5 0 3 -2 5 -5 5 -3 0 -5 -2 -5
-5z"/>
<path d="M223 853 c4 -3 10 -3 14 0 3 4 0 7 -7 7 -7 0 -10 -3 -7 -7z"/>
<path d="M220 835 c0 -3 2 -5 5 -5 3 0 5 2 5 5 0 3 -2 5 -5 5 -3 0 -5 -2 -5
-5z"/>
<path d="M350 925 c0 -3 2 -5 5 -5 3 0 5 2 5 5 0 3 -2 5 -5 5 -3 0 -5 -2 -5
-5z"/>
<path d="M850 850 c6 -11 13 -20 16 -20 2 0 0 9 -6 20 -6 11 -13 20 -16 20 -2
0 0 -9 6 -20z"/>
<path d="M830 800 c0 -5 5 -10 11 -10 5 0 7 5 4 10 -3 6 -8 10 -11 10 -2 0 -4
-4 -4 -10z"/>
<path d="M570 925 c0 -3 2 -5 5 -5 3 0 5 2 5 5 0 3 -2 5 -5 5 -3 0 -5 -2 -5
-5z"/>
<path d="M610 925 c0 -3 2 -5 5 -5 3 0 5 2 5 5 0 3 -2 5 -5 5 -3 0 -5 -2 -5
-5z"/>
<path d="M910 915 c0 -3 2 -5 5 -5 3 0 5 2 5 5 0 3 -2 5 -5 5 -3 0 -5 -2 -5
-5z"/>
<path d="M520 815 c0 -3 2 -5 5 -5 3 0 5 2 5 5 0 3 -2 5 -5 5 -3 0 -5 -2 -5
-5z"/>
<path d="M525 790 c3 -5 8 -10 11 -10 3 0 2 5 -1 10 -3 6 -8 10 -11 10 -3 0
-2 -4 1 -10z"/>
<path d="M570 825 c0 -3 2 -5 5 -5 3 0 5 2 5 5 0 3 -2 5 -5 5 -3 0 -5 -2 -5
-5z"/>
<path d="M80 779 c0 -5 5 -7 10 -4 6 3 10 8 10 11 0 2 -4 4 -10 4 -5 0 -10 -5
-10 -11z"/>
<path d="M410 825 c0 -3 2 -5 5 -5 3 0 5 2 5 5 0 3 -2 5 -5 5 -3 0 -5 -2 -5
-5z"/>
<path d="M420 800 c0 -7 3 -10 7 -7 3 4 3 10 0 14 -4 3 -7 0 -7 -7z"/>
<path d="M360 755 c0 -3 2 -5 5 -5 3 0 5 2 5 5 0 3 -2 5 -5 5 -3 0 -5 -2 -5
-5z"/>
<path d="M715 750 c-3 -5 3 -10 14 -10 10 0 22 -6 24 -12 4 -10 6 -10 6 -1 1
17 -36 36 -44 23z"/>
<path d="M782 698 c-15 -15 -15 -28 0 -28 6 0 8 3 5 7 -4 3 -2 12 4 20 14 16
7 17 -9 1z"/>
<path d="M280 705 c0 -3 2 -5 5 -5 3 0 5 2 5 5 0 3 -2 5 -5 5 -3 0 -5 -2 -5
-5z"/>
<path d="M670 675 c0 -3 2 -5 5 -5 3 0 5 2 5 5 0 3 -2 5 -5 5 -3 0 -5 -2 -5
-5z"/>
<path d="M190 625 c0 -3 2 -5 5 -5 3 0 5 2 5 5 0 3 -2 5 -5 5 -3 0 -5 -2 -5
-5z"/>
<path d="M200 565 c0 -3 2 -5 5 -5 3 0 5 2 5 5 0 3 -2 5 -5 5 -3 0 -5 -2 -5
-5z"/>
<path d="M220 551 c0 -10 19 -25 25 -20 1 2 -3 10 -11 17 -8 7 -14 8 -14 3z"/>
<path d="M350 605 c0 -3 2 -5 5 -5 3 0 5 2 5 5 0 3 -2 5 -5 5 -3 0 -5 -2 -5
-5z"/>
<path d="M520 585 c0 -3 2 -5 5 -5 3 0 5 2 5 5 0 3 -2 5 -5 5 -3 0 -5 -2 -5
-5z"/>
<path d="M520 565 c0 -3 2 -5 5 -5 3 0 5 2 5 5 0 3 -2 5 -5 5 -3 0 -5 -2 -5
-5z"/>
<path d="M470 555 c0 -3 2 -5 5 -5 3 0 5 2 5 5 0 3 -2 5 -5 5 -3 0 -5 -2 -5
-5z"/>
<path d="M523 543 c4 -3 10 -3 14 0 3 4 0 7 -7 7 -7 0 -10 -3 -7 -7z"/>
<path d="M550 530 c0 -7 3 -10 7 -7 3 4 3 10 0 14 -4 3 -7 0 -7 -7z"/>
<path d="M570 525 c0 -3 2 -5 5 -5 3 0 5 2 5 5 0 3 -2 5 -5 5 -3 0 -5 -2 -5
-5z"/>
<path d="M540 501 c0 -6 4 -13 10 -16 6 -3 7 1 4 9 -7 18 -14 21 -14 7z"/>
<path d="M510 486 c0 -2 7 -7 16 -10 8 -3 12 -2 9 4 -6 10 -25 14 -25 6z"/>
<path d="M673 603 c4 -3 10 -3 14 0 3 4 0 7 -7 7 -7 0 -10 -3 -7 -7z"/>
<path d="M830 625 c0 -3 2 -5 5 -5 3 0 5 2 5 5 0 3 -2 5 -5 5 -3 0 -5 -2 -5
-5z"/>
<path d="M850 530 c6 -11 13 -20 16 -20 2 0 0 9 -6 20 -6 11 -13 20 -16 20 -2
0 0 -9 6 -20z"/>
<path d="M835 480 c3 -5 8 -10 11 -10 3 0 2 5 -1 10 -3 6 -8 10 -11 10 -3 0
-2 -4 1 -10z"/>
<path d="M600 605 c0 -3 2 -5 5 -5 3 0 5 2 5 5 0 3 -2 5 -5 5 -3 0 -5 -2 -5
-5z"/>
<path d="M910 595 c0 -3 2 -5 5 -5 3 0 5 2 5 5 0 3 -2 5 -5 5 -3 0 -5 -2 -5
-5z"/>
<path d="M410 505 c0 -3 2 -5 5 -5 3 0 5 2 5 5 0 3 -2 5 -5 5 -3 0 -5 -2 -5
-5z"/>
<path d="M402 481 c-10 -6 -9 -11 3 -21 15 -12 14 -15 -7 -27 l-23 -14 23 4
c12 3 22 1 22 -4 0 -5 5 -9 11 -9 8 0 8 4 2 13 -6 6 -9 22 -8 35 2 26 -6 34
-23 23z m18 -6 c0 -3 -2 -5 -5 -5 -3 0 -5 2 -5 5 0 3 2 5 5 5 3 0 5 -2 5 -5z"/>
<path d="M160 415 c0 -3 2 -5 5 -5 3 0 5 2 5 5 0 3 -2 5 -5 5 -3 0 -5 -2 -5
-5z"/>
<path d="M680 435 c0 -3 2 -5 5 -5 3 0 5 2 5 5 0 3 -2 5 -5 5 -3 0 -5 -2 -5
-5z"/>
<path d="M920 385 c0 -3 2 -5 5 -5 3 0 5 2 5 5 0 3 -2 5 -5 5 -3 0 -5 -2 -5
-5z"/>
<path d="M900 360 c0 -7 3 -10 7 -7 3 4 3 10 0 14 -4 3 -7 0 -7 -7z"/>
<path d="M670 355 c0 -3 2 -5 5 -5 3 0 5 2 5 5 0 3 -2 5 -5 5 -3 0 -5 -2 -5
-5z"/>
<path d="M341 364 c0 -11 3 -14 6 -6 3 7 2 16 -1 19 -3 4 -6 -2 -5 -13z"/>
<path d="M160 285 c0 -3 2 -5 5 -5 3 0 5 2 5 5 0 3 -2 5 -5 5 -3 0 -5 -2 -5
-5z"/>
<path d="M200 265 c0 -3 2 -5 5 -5 3 0 5 2 5 5 0 3 -2 5 -5 5 -3 0 -5 -2 -5
-5z"/>
<path d="M224 195 c-19 -15 -19 -15 1 -8 l20 6 -20 -23 -20 -23 22 12 c26 13
39 31 23 31 -6 0 -8 5 -5 10 9 14 2 12 -21 -5z"/>
<path d="M77 158 c18 -22 -16 -54 -37 -35 -12 10 -12 9 -1 -5 8 -11 22 -16 37
-14 13 3 24 0 24 -5 0 -5 5 -9 11 -9 8 0 8 4 2 13 -6 6 -9 19 -8 28 2 8 -7 22
-19 29 -18 12 -19 11 -9 -2z m20 -35 c-4 -3 -10 -3 -14 0 -3 4 0 7 7 7 7 0 10
-3 7 -7z"/>
<path d="M353 283 c4 -3 10 -3 14 0 3 4 0 7 -7 7 -7 0 -10 -3 -7 -7z"/>
<path d="M510 305 c0 -3 2 -5 5 -5 3 0 5 2 5 5 0 3 -2 5 -5 5 -3 0 -5 -2 -5
-5z"/>
<path d="M530 210 c6 -11 13 -20 16 -20 2 0 0 9 -6 20 -6 11 -13 20 -16 20 -2
0 0 -9 6 -20z"/>
<path d="M515 160 c3 -5 8 -10 11 -10 3 0 2 5 -1 10 -3 6 -8 10 -11 10 -3 0
-2 -4 1 -10z"/>
<path d="M840 265 c0 -3 2 -5 5 -5 3 0 5 2 5 5 0 3 -2 5 -5 5 -3 0 -5 -2 -5
-5z"/>
<path d="M280 285 c0 -3 2 -5 5 -5 3 0 5 2 5 5 0 3 -2 5 -5 5 -3 0 -5 -2 -5
-5z"/>
<path d="M590 275 c0 -3 2 -5 5 -5 3 0 5 2 5 5 0 3 -2 5 -5 5 -3 0 -5 -2 -5
-5z"/>
<path d="M400 150 c0 -7 3 -10 7 -7 3 4 3 10 0 14 -4 3 -7 0 -7 -7z"/>
<path d="M740 165 c0 -3 2 -5 5 -5 3 0 5 2 5 5 0 3 -2 5 -5 5 -3 0 -5 -2 -5
-5z"/>
<path d="M740 110 c0 -11 4 -20 9 -20 5 0 7 9 4 20 -3 11 -7 20 -9 20 -2 0 -4
-9 -4 -20z"/>
<path d="M710 110 c-13 -8 -12 -10 3 -10 9 0 17 5 17 10 0 12 -1 12 -20 0z"/>
<path d="M417 103 c3 -7 8 -13 12 -13 4 0 8 6 8 13 0 8 -6 14 -13 14 -7 0 -10
-6 -7 -14z"/>
<path d="M464 58 c-4 -7 -3 -8 4 -4 12 7 16 16 8 16 -3 0 -8 -5 -12 -12z"/>
<path d="M900 35 c0 -3 2 -5 5 -5 3 0 5 2 5 5 0 3 -2 5 -5 5 -3 0 -5 -2 -5 -5z"/>
<path d="M50 925 c0 -3 2 -5 5 -5 3 0 5 2 5 5 0 3 -2 5 -5 5 -3 0 -5 -2 -5 -5z"/>
<path d="M673 923 c4 -3 10 -3 14 0 3 4 0 7 -7 7 -7 0 -10 -3 -7 -7z"/>
<path d="M20 665 c0 -3 2 -5 5 -5 3 0 5 2 5 5 0 3 -2 5 -5 5 -3 0 -5 -2 -5 -5z"/>
<path d="M343 43 c4 -3 10 -3 14 0 3 4 0 7 -7 7 -7 0 -10 -3 -7 -7z"/>
</g>
<g transform="translate(0.000000,96.000000) scale(0.100000,-0.100000)"
fill="#39cb5e" stroke="none">
<path d="M2 923 c1 -37 1 -37 5 -6 4 27 9 32 36 36 31 4 31 4 -5 5 -38 2 -38
2 -36 -35z"/>
<path d="M90 955 c0 -3 2 -5 5 -5 3 0 5 2 5 5 0 3 -2 5 -5 5 -3 0 -5 -2 -5 -5z"/>
<path d="M71 905 c-30 -31 -58 -51 -61 -45 -3 6 -7 -28 -9 -75 -1 -48 2 -85 7
-85 17 0 23 32 10 48 -11 13 -11 14 1 7 11 -6 12 -5 5 6 -19 31 -15 62 10 84
14 12 26 26 26 31 0 9 33 32 95 66 l30 17 -30 0 c-23 1 -42 -11 -84 -54z"/>
<path d="M197 954 c-3 -4 -2 -15 3 -25 6 -9 7 -26 4 -36 -5 -15 -4 -15 5 -3
10 14 16 7 12 -13 -1 -5 3 -6 7 -3 5 3 18 -4 28 -17 10 -12 15 -19 10 -15 -5
5 -16 -1 -23 -12 -8 -11 -18 -18 -23 -15 -4 3 -7 -3 -5 -12 1 -10 -11 -33 -29
-52 -17 -19 -25 -31 -18 -27 18 11 15 -3 -6 -22 -10 -10 -11 -12 -2 -7 13 9
13 8 1 -7 -17 -22 -35 -23 -51 -3 -7 9 -27 26 -44 38 -31 22 -31 22 6 -24 l37
-45 -53 1 -53 0 -2 -50 c-2 -53 7 -60 11 -7 1 18 7 32 14 32 6 0 33 3 60 7
l49 6 -30 -26 c-17 -15 -34 -31 -40 -36 -5 -5 -18 -19 -29 -31 -12 -16 -20
-19 -25 -11 -4 6 -8 -29 -10 -79 l-2 -91 22 22 22 22 29 -33 c35 -42 35 -48 2
-44 -46 5 -74 -12 -73 -43 2 -25 2 -25 6 -5 3 14 11 22 21 21 9 -1 29 1 44 5
54 15 51 -1 -10 -61 l-62 -60 0 -67 c0 -36 3 -66 6 -66 3 0 13 7 22 16 14 15
18 14 44 -17 35 -43 35 -48 -3 -44 -18 3 -39 0 -48 -5 -10 -6 38 -9 142 -10
l157 0 0 25 c0 14 10 35 22 47 l21 21 29 -33 c32 -40 35 -50 11 -44 -10 2 -31
0 -48 -5 -22 -7 14 -10 128 -10 l157 -1 0 23 c0 13 10 34 22 47 l22 23 28 -34
c15 -18 28 -36 28 -39 0 -3 -18 -5 -40 -4 -22 1 -43 -2 -46 -7 -3 -5 65 -9
150 -9 l156 0 -1 318 c0 186 -4 309 -9 297 -5 -11 -9 -33 -9 -50 l-1 -29 -43
42 c-46 45 -57 50 -57 27 0 -8 5 -15 11 -15 5 0 7 -4 4 -10 -3 -5 -1 -10 5
-10 6 0 8 -4 5 -10 -3 -5 0 -10 8 -10 8 0 21 -7 28 -17 13 -15 12 -15 -11 -3
-22 12 -24 11 -13 -2 7 -8 10 -18 6 -22 -4 -4 1 -4 11 0 14 5 17 4 11 -5 -4
-7 -17 -11 -30 -9 -18 4 -21 1 -17 -14 3 -14 7 -16 12 -8 5 9 9 9 14 1 7 -10
-7 -16 -28 -12 -5 1 -15 -7 -23 -19 -8 -11 -18 -18 -23 -15 -5 3 -7 -4 -5 -15
3 -17 -24 -60 -38 -60 -1 0 -28 24 -60 52 -55 52 -57 55 -59 108 -2 104 0 116
25 118 12 1 37 4 55 6 l34 4 -24 -25 c-12 -14 -38 -40 -55 -58 -18 -18 -33
-35 -33 -38 0 -9 40 4 47 16 4 6 1 7 -7 2 -9 -6 -11 -4 -6 4 5 7 13 10 20 8 6
-3 20 1 31 9 10 8 14 14 9 14 -6 0 -16 -6 -23 -12 -11 -11 -13 -10 -9 1 2 8
13 19 23 25 11 6 24 16 30 22 14 16 59 26 125 29 30 1 58 3 63 4 4 0 7 72 6
159 0 97 -4 149 -9 137 -5 -11 -9 -33 -9 -49 l-1 -29 -47 44 -48 44 30 6 c17
3 -7 6 -52 6 -45 0 -80 -3 -78 -7 2 -4 -18 -30 -45 -58 -28 -27 -50 -52 -50
-55 0 -9 40 5 47 16 4 6 1 7 -7 2 -9 -6 -11 -4 -6 4 5 7 14 10 21 7 7 -2 12 2
11 11 0 8 8 20 19 27 11 6 24 16 30 22 5 7 23 15 38 18 23 6 30 3 34 -14 3
-11 10 -20 15 -20 5 0 6 -4 3 -10 -3 -5 -1 -10 5 -10 6 0 8 -4 5 -10 -3 -5 0
-10 8 -10 8 0 21 -7 28 -17 13 -15 12 -15 -11 -3 -22 12 -24 11 -13 -2 7 -8
10 -18 6 -22 -4 -4 1 -4 11 0 14 5 17 4 11 -5 -4 -7 -18 -11 -30 -9 -16 3 -22
1 -18 -8 2 -7 10 -12 16 -10 7 1 9 1 4 -1 -4 -3 -4 -10 0 -16 3 -7 -3 -4 -15
6 -21 19 -26 7 -9 -20 5 -8 3 -11 -5 -8 -8 3 -22 -2 -33 -11 -11 -8 -14 -13
-7 -9 17 9 15 -7 -4 -31 -8 -10 -12 -13 -8 -5 5 10 3 12 -5 7 -9 -6 -9 -11 -1
-21 18 -22 -9 -29 -32 -8 -111 99 -108 94 -110 153 -2 104 0 119 20 115 10 -2
25 1 33 6 9 6 -1 9 -33 7 -26 -1 -45 -5 -43 -8 3 -4 1 -25 -3 -48 l-7 -41 -47
44 -48 44 38 3 c20 3 4 5 -37 5 l-74 2 -60 -60 c-33 -32 -57 -62 -54 -66 4 -3
15 3 25 15 11 12 22 18 26 14 4 -4 7 -2 6 3 -5 22 1 29 11 15 9 -13 10 -13 7
0 -5 18 47 63 77 66 27 3 73 -50 53 -62 -7 -5 -8 -2 -3 7 5 8 4 10 0 6 -5 -4
-10 -14 -11 -22 -2 -11 2 -12 16 -5 17 9 30 4 30 -12 0 -5 -4 -7 -9 -4 -4 3
-17 -1 -27 -10 -18 -14 -17 -14 5 -3 22 10 23 9 17 -7 -5 -11 -10 -26 -13 -34
-4 -13 -4 -13 6 0 6 8 11 10 11 4 0 -6 -8 -18 -17 -25 -10 -8 -14 -9 -10 -2 4
6 2 15 -4 19 -8 4 -9 3 -5 -4 4 -6 -2 -20 -12 -30 -15 -15 -17 -24 -9 -38 9
-17 9 -18 -6 -5 -15 12 -17 12 -11 -3 3 -9 1 -16 -6 -16 -6 0 -8 -4 -5 -10 3
-5 1 -10 -5 -10 -6 0 -8 -4 -5 -10 3 -5 2 -10 -4 -10 -5 0 -11 3 -13 8 -1 4
-28 27 -58 52 -29 24 -50 38 -45 30 5 -9 5 -12 -1 -7 -9 9 -15 52 -16 122 -1
82 1 88 21 82 10 -2 25 -1 32 4 9 6 -1 9 -28 9 -24 0 -44 -3 -44 -7 -1 -5 -3
-25 -4 -46 -1 -21 -4 -39 -6 -42 -2 -2 -25 16 -50 40 l-47 44 32 4 31 4 -31 1
c-17 1 -34 -1 -37 -4z m393 -118 c0 -17 -14 -29 -23 -20 -8 8 3 34 14 34 5 0
9 -6 9 -14z m-328 -13 c-10 -4 -9 -10 5 -27 18 -21 18 -21 -3 -3 -11 9 -24 14
-27 11 -4 -4 1 -13 11 -21 15 -13 14 -13 -6 -3 -23 11 -23 12 -6 31 9 10 22
19 28 18 6 0 5 -3 -2 -6z m28 2 c0 -3 -2 -5 -5 -5 -3 0 -5 2 -5 5 0 3 2 5 5 5
3 0 5 -2 5 -5z m300 -30 c0 -3 -2 -5 -5 -5 -3 0 -5 2 -5 5 0 3 2 5 5 5 3 0 5
-2 5 -5z m330 0 c0 -3 -2 -5 -5 -5 -3 0 -5 2 -5 5 0 3 2 5 5 5 3 0 5 -2 5 -5z
m-350 -20 c0 -3 -2 -5 -5 -5 -3 0 -5 2 -5 5 0 3 2 5 5 5 3 0 5 -2 5 -5z m-290
-10 c0 -3 -2 -5 -5 -5 -3 0 -5 2 -5 5 0 3 2 5 5 5 3 0 5 -2 5 -5z m30 -10 c0
-3 -2 -5 -5 -5 -3 0 -5 2 -5 5 0 3 2 5 5 5 3 0 5 -2 5 -5z m320 -10 c0 -3 -2
-5 -5 -5 -3 0 -5 2 -5 5 0 3 2 5 5 5 3 0 5 -2 5 -5z m314 -22 c-9 -37 -30 -60
-60 -66 -13 -2 -24 -2 -24 0 0 5 82 91 88 92 1 1 -1 -11 -4 -26z m-644 -14
c-6 -11 -8 -24 -5 -29 4 -6 3 -10 -2 -9 -4 1 -21 -3 -36 -9 -45 -19 -50 -4 -9
31 20 18 39 35 40 40 2 4 8 5 13 1 5 -3 5 -13 -1 -25z m120 -50 c0 -4 -13 -5
-30 -3 -16 3 -39 0 -50 -6 -20 -11 -21 -9 -18 17 1 15 12 36 23 46 20 18 21
18 47 -14 16 -18 28 -36 28 -40z m200 64 c-1 -30 -16 -53 -40 -62 -41 -14 -42
-4 -7 34 31 33 47 43 47 28z m98 -31 l30 -38 -31 1 c-18 1 -41 -2 -53 -6 -18
-6 -20 -3 -20 22 0 16 4 29 8 29 5 0 7 4 3 9 -3 5 3 12 12 14 10 3 19 5 20 6
1 0 15 -16 31 -37z m122 23 c0 -3 -2 -5 -5 -5 -3 0 -5 2 -5 5 0 3 2 5 5 5 3 0
5 -2 5 -5z m-310 -60 c0 -3 -2 -5 -5 -5 -3 0 -5 2 -5 5 0 3 2 5 5 5 3 0 5 -2
5 -5z m320 0 c0 -3 -2 -5 -5 -5 -3 0 -5 2 -5 5 0 3 2 5 5 5 3 0 5 -2 5 -5z
m-646 -40 c-4 -9 8 -29 29 -50 19 -19 31 -38 25 -41 -5 -4 -8 -14 -5 -23 2
-10 -1 -18 -8 -18 -8 0 -11 7 -8 16 4 10 0 9 -10 -4 -14 -18 -14 -20 1 -23 9
-2 21 -7 25 -12 5 -4 -4 -5 -19 -2 -18 3 -29 0 -36 -12 -5 -9 -13 -14 -17 -12
-4 3 -6 -8 -5 -25 1 -16 -2 -26 -7 -23 -5 3 -9 -3 -9 -13 0 -15 -2 -16 -10 -3
-8 12 -10 10 -10 -9 0 -22 -3 -21 -48 18 -62 56 -69 61 -75 55 -2 -3 -4 13 -3
35 1 39 39 96 57 86 4 -3 11 4 14 16 4 11 9 18 12 15 3 -3 13 4 22 15 9 11 27
21 40 24 13 2 26 7 29 9 9 10 21 -5 16 -19z m102 0 c-3 -11 -6 -33 -6 -50 l0
-29 -40 39 c-22 21 -40 42 -40 46 0 8 39 15 73 15 13 0 17 -6 13 -21z m134 20
c0 -3 -26 -30 -57 -60 -76 -73 -63 -80 16 -8 64 59 67 60 169 66 l64 3 -6 -29
c-3 -16 -6 -39 -6 -50 0 -18 -7 -14 -45 23 -24 24 -48 40 -52 36 -5 -5 -2 -11
5 -13 6 -3 12 -11 12 -19 0 -8 11 -24 25 -36 28 -24 32 -38 10 -38 -8 0 -12
-6 -9 -14 3 -9 -4 -19 -16 -26 -13 -7 -20 -8 -16 -2 3 6 2 13 -3 17 -6 3 -8
-3 -6 -15 2 -11 -1 -22 -6 -25 -5 -4 -6 -12 -3 -18 4 -7 4 -9 -1 -5 -12 11
-35 -11 -28 -28 3 -8 0 -14 -7 -14 -6 0 -9 -4 -6 -9 3 -5 0 -14 -8 -20 -8 -7
-16 -8 -18 -4 -6 15 -101 88 -107 83 -8 -7 -15 86 -12 169 1 28 4 32 20 28 10
-2 25 -1 32 4 15 9 59 12 59 4z m-170 -130 c0 -3 -2 -5 -5 -5 -3 0 -5 2 -5 5
0 3 2 5 5 5 3 0 5 -2 5 -5z m20 0 c0 -3 -2 -5 -5 -5 -3 0 -5 2 -5 5 0 3 2 5 5
5 3 0 5 -2 5 -5z m-3 -32 c-4 -3 -10 -3 -14 0 -3 4 0 7 7 7 7 0 10 -3 7 -7z
m293 -8 c0 -3 -2 -5 -5 -5 -3 0 -5 2 -5 5 0 3 2 5 5 5 3 0 5 -2 5 -5z m27 -2
c-4 -3 -10 -3 -14 0 -3 4 0 7 7 7 7 0 10 -3 7 -7z m303 2 c0 -3 -2 -5 -5 -5
-3 0 -5 2 -5 5 0 3 2 5 5 5 3 0 5 -2 5 -5z m-3 -32 c-4 -3 -7 0 -7 7 0 7 3 10
7 7 3 -4 3 -10 0 -14z m-604 -25 c-10 -46 -26 -66 -54 -70 -16 -3 -29 -3 -29
-1 0 3 83 92 87 93 0 0 -1 -10 -4 -22z m117 -68 c0 -4 -14 -6 -31 -4 -17 2
-39 -1 -50 -6 -16 -9 -19 -7 -19 13 0 13 9 33 19 44 11 12 19 23 18 25 -1 2
13 -11 31 -30 17 -20 32 -38 32 -42z m198 45 c-8 -23 -20 -37 -39 -44 -15 -5
-30 -7 -33 -4 -4 4 69 83 78 83 2 0 -1 -16 -6 -35z m222 30 c0 -3 -2 -5 -5 -5
-3 0 -5 2 -5 5 0 3 2 5 5 5 3 0 5 -2 5 -5z m40 0 c0 -3 -2 -5 -5 -5 -3 0 -5 2
-5 5 0 3 2 5 5 5 3 0 5 -2 5 -5z m-380 -10 c0 -3 -2 -5 -5 -5 -3 0 -5 2 -5 5
0 3 2 5 5 5 3 0 5 -2 5 -5z m234 -64 c-3 -3 -21 -6 -41 -8 -46 -2 -63 -20 -70
-72 l-6 -42 -41 40 c-45 44 -56 49 -56 26 0 -8 5 -15 11 -15 5 0 7 -4 4 -10
-3 -5 -1 -10 5 -10 6 0 8 -4 5 -10 -3 -5 0 -10 8 -10 8 0 21 -7 28 -17 13 -15
12 -15 -11 -3 -22 12 -24 11 -13 -2 7 -8 10 -18 6 -22 -4 -4 1 -4 11 0 14 5
17 4 11 -5 -4 -7 -17 -11 -30 -9 -18 4 -21 1 -17 -14 4 -16 7 -17 14 -6 8 10
9 10 5 -2 -2 -8 -10 -14 -18 -13 -8 1 -25 -12 -39 -30 -14 -17 -20 -28 -13
-24 6 4 15 2 19 -4 4 -7 3 -9 -4 -5 -6 3 -13 -3 -17 -14 -3 -11 -11 -20 -16
-20 -6 0 -7 -4 -4 -10 3 -5 1 -10 -4 -10 -6 0 -11 5 -11 10 0 6 -4 10 -8 10
-5 0 -32 21 -60 48 -50 45 -52 49 -54 102 -2 104 0 116 25 118 12 1 37 4 55 6
l34 4 -24 -25 c-12 -14 -38 -40 -55 -58 -18 -18 -33 -35 -33 -38 0 -9 40 4 47
16 4 6 1 7 -7 2 -9 -6 -11 -4 -6 4 5 7 13 10 20 8 6 -3 20 1 31 9 10 8 14 14
9 14 -6 0 -16 -6 -23 -12 -11 -11 -13 -10 -9 1 2 8 13 19 23 25 11 6 24 16 30
22 14 16 60 26 127 28 65 2 67 3 70 39 1 15 6 27 11 27 4 0 6 4 2 9 -3 5 3 11
12 14 18 4 78 -51 67 -62z m86 64 c0 -3 -2 -5 -5 -5 -3 0 -5 2 -5 5 0 3 2 5 5
5 3 0 5 -2 5 -5z m115 -24 c-17 -34 -19 -36 -60 -45 l-30 -7 40 40 c49 49 73
55 50 12z m-415 14 c0 -3 -2 -5 -5 -5 -3 0 -5 2 -5 5 0 3 2 5 5 5 3 0 5 -2 5
-5z m310 -10 c0 -3 -2 -5 -5 -5 -3 0 -5 2 -5 5 0 3 2 5 5 5 3 0 5 -2 5 -5z
m-25 -24 c3 -5 2 -12 -3 -15 -5 -3 -9 1 -9 9 0 17 3 19 12 6z m-645 -16 c0 -3
-2 -5 -5 -5 -3 0 -5 2 -5 5 0 3 2 5 5 5 3 0 5 -2 5 -5z m370 -10 c0 -3 -2 -5
-5 -5 -3 0 -5 2 -5 5 0 3 2 5 5 5 3 0 5 -2 5 -5z m-224 -48 c-3 -16 -6 -39 -6
-50 0 -18 -7 -14 -45 23 -24 24 -48 40 -52 36 -5 -5 -2 -11 5 -13 6 -3 12 -11
12 -18 0 -8 8 -22 18 -32 27 -26 33 -50 17 -63 -8 -7 -13 -15 -11 -19 3 -4 -4
-7 -15 -7 -16 0 -15 3 9 23 15 12 21 22 14 23 -7 0 -10 5 -6 11 4 8 0 8 -15 0
-25 -14 -28 -23 -3 -14 13 5 11 0 -7 -20 -14 -15 -21 -27 -18 -27 4 0 0 -11
-9 -25 -9 -14 -20 -23 -24 -20 -5 3 -6 -4 -3 -15 3 -12 0 -20 -6 -20 -7 0 -9
-4 -6 -10 3 -5 -2 -10 -12 -10 -15 0 -16 -2 -3 -10 8 -5 11 -10 7 -10 -5 0
-33 21 -62 46 -30 25 -57 44 -62 42 -4 -2 -9 15 -9 37 -1 35 4 44 57 96 66 62
94 74 181 74 l60 1 -6 -29z m423 -4 c-18 -20 -44 -45 -56 -56 -13 -10 -23 -23
-23 -29 0 -7 4 -7 13 1 8 6 18 7 22 3 5 -4 6 -2 3 3 -3 6 4 19 15 30 18 18 19
18 14 2 -4 -11 -3 -16 4 -12 6 4 8 13 5 21 -3 8 -1 14 4 14 5 0 18 10 30 22
21 23 32 26 128 31 38 1 62 -1 62 -8 0 -5 -3 -27 -7 -48 l-6 -38 -43 42 c-24
24 -47 39 -51 35 -4 -4 -1 -11 6 -16 9 -5 11 -15 7 -26 -4 -10 -4 -15 0 -12 3
4 13 0 21 -8 9 -8 12 -18 9 -22 -4 -3 -11 0 -16 8 -6 8 -10 11 -10 6 0 -5 -6
-5 -13 0 -7 5 -4 1 6 -9 12 -10 27 -15 38 -12 11 4 19 2 19 -4 0 -6 -7 -11
-15 -11 -8 0 -15 -5 -15 -11 0 -5 5 -7 12 -3 7 5 8 3 3 -6 -6 -10 -11 -9 -22
5 -16 23 -17 12 -2 -17 6 -11 7 -18 2 -15 -6 4 -25 -9 -43 -28 -19 -19 -30
-35 -26 -35 5 0 3 -6 -3 -13 -6 -8 -8 -17 -4 -20 3 -4 -2 -7 -13 -7 -16 0 -17
-2 -4 -10 8 -5 11 -10 7 -10 -5 0 -29 18 -54 40 -25 21 -50 38 -56 37 -6 -1
-12 3 -12 8 -1 6 -4 17 -8 25 -6 16 -7 27 -9 75 -3 86 1 107 21 102 10 -2 25
-1 32 4 8 5 25 9 38 9 25 0 24 -1 -10 -37z m-149 -128 c0 -3 -2 -5 -5 -5 -3 0
-5 2 -5 5 0 3 2 5 5 5 3 0 5 -2 5 -5z m340 0 c0 -3 -2 -5 -5 -5 -3 0 -5 2 -5
5 0 3 2 5 5 5 3 0 5 -2 5 -5z m-640 -10 c0 -3 -2 -5 -5 -5 -3 0 -5 2 -5 5 0 3
2 5 5 5 3 0 5 -2 5 -5z m620 0 c0 -3 -2 -5 -5 -5 -3 0 -5 2 -5 5 0 3 2 5 5 5
3 0 5 -2 5 -5z m-320 -10 c0 -3 -2 -5 -5 -5 -3 0 -5 2 -5 5 0 3 2 5 5 5 3 0 5
-2 5 -5z m20 0 c0 -3 -2 -5 -5 -5 -3 0 -5 2 -5 5 0 3 2 5 5 5 3 0 5 -2 5 -5z
m320 0 c0 -3 -2 -5 -5 -5 -3 0 -5 2 -5 5 0 3 2 5 5 5 3 0 5 -2 5 -5z m-610
-40 c0 -4 -7 -19 -15 -34 -8 -16 -12 -31 -10 -35 3 -3 2 -4 -1 -2 -3 3 -16 1
-29 -4 -37 -14 -36 -1 3 40 35 36 52 47 52 35z m210 0 c0 -3 -2 -5 -5 -5 -3 0
-5 2 -5 5 0 3 2 5 5 5 3 0 5 -2 5 -5z m100 -20 c-5 -14 -7 -25 -4 -25 19 0
-27 -28 -56 -33 l-35 -7 48 45 c27 25 50 45 53 45 2 0 -1 -11 -6 -25z m220 20
c0 -3 -2 -5 -5 -5 -3 0 -5 2 -5 5 0 3 2 5 5 5 3 0 5 -2 5 -5z m105 -12 c-4
-10 -7 -26 -7 -35 0 -10 -2 -17 -6 -16 -4 1 -20 -4 -36 -11 -16 -6 -31 -10
-33 -8 -5 6 70 87 81 87 4 0 5 -8 1 -17z m-405 2 c0 -3 -2 -5 -5 -5 -3 0 -5 2
-5 5 0 3 2 5 5 5 3 0 5 -2 5 -5z m285 -5 c3 -5 4 -10 1 -10 -3 0 -8 5 -11 10
-3 6 -4 10 -1 10 3 0 8 -4 11 -10z m-635 -5 c0 -3 -2 -5 -5 -5 -3 0 -5 2 -5 5
0 3 2 5 5 5 3 0 5 -2 5 -5z m630 -20 c0 -3 -2 -5 -5 -5 -3 0 -5 2 -5 5 0 3 2
5 5 5 3 0 5 -2 5 -5z m-610 -40 c0 -3 -2 -5 -5 -5 -3 0 -5 2 -5 5 0 3 2 5 5 5
3 0 5 -2 5 -5z m640 0 c0 -3 -2 -5 -5 -5 -3 0 -5 2 -5 5 0 3 2 5 5 5 3 0 5 -2
5 -5z"/>
<path d="M570 825 c0 -3 2 -5 5 -5 3 0 5 2 5 5 0 3 -2 5 -5 5 -3 0 -5 -2 -5
-5z"/>
<path d="M190 625 c0 -3 2 -5 5 -5 3 0 5 2 5 5 0 3 -2 5 -5 5 -3 0 -5 -2 -5
-5z"/>
<path d="M100 560 c0 -7 3 -10 7 -7 3 4 3 10 0 14 -4 3 -7 0 -7 -7z"/>
<path d="M200 565 c0 -3 2 -5 5 -5 3 0 5 2 5 5 0 3 -2 5 -5 5 -3 0 -5 -2 -5
-5z"/>
<path d="M220 551 c0 -10 19 -25 25 -20 1 2 -3 10 -11 17 -8 7 -14 8 -14 3z"/>
<path d="M50 530 c-9 -6 -10 -10 -3 -10 6 0 15 5 18 10 8 12 4 12 -15 0z"/>
<path d="M205 520 c3 -5 8 -10 11 -10 2 0 4 5 4 10 0 6 -5 10 -11 10 -5 0 -7
-4 -4 -10z"/>
<path d="M123 505 c0 -8 4 -12 9 -9 4 3 8 9 8 15 0 5 -4 9 -8 9 -5 0 -9 -7 -9
-15z"/>
<path d="M153 513 c4 -3 10 -3 14 0 3 4 0 7 -7 7 -7 0 -10 -3 -7 -7z"/>
<path d="M200 495 c0 -3 2 -5 5 -5 3 0 5 2 5 5 0 3 -2 5 -5 5 -3 0 -5 -2 -5
-5z"/>
<path d="M160 415 c0 -3 2 -5 5 -5 3 0 5 2 5 5 0 3 -2 5 -5 5 -3 0 -5 -2 -5
-5z"/>
<path d="M510 625 c0 -3 2 -5 5 -5 3 0 5 2 5 5 0 3 -2 5 -5 5 -3 0 -5 -2 -5
-5z"/>
<path d="M520 585 c0 -3 2 -5 5 -5 3 0 5 2 5 5 0 3 -2 5 -5 5 -3 0 -5 -2 -5
-5z"/>
<path d="M520 565 c0 -3 2 -5 5 -5 3 0 5 2 5 5 0 3 -2 5 -5 5 -3 0 -5 -2 -5
-5z"/>
<path d="M420 555 c0 -3 2 -5 5 -5 3 0 5 2 5 5 0 3 -2 5 -5 5 -3 0 -5 -2 -5
-5z"/>
<path d="M393 543 c4 -3 10 -3 14 0 3 4 0 7 -7 7 -7 0 -10 -3 -7 -7z"/>
<path d="M523 543 c4 -3 10 -3 14 0 3 4 0 7 -7 7 -7 0 -10 -3 -7 -7z"/>
<path d="M550 530 c0 -7 3 -10 7 -7 3 4 3 10 0 14 -4 3 -7 0 -7 -7z"/>
<path d="M524 518 c-4 -7 -3 -8 4 -4 7 4 12 9 12 12 0 8 -9 4 -16 -8z"/>
<path d="M570 525 c0 -3 2 -5 5 -5 3 0 5 2 5 5 0 3 -2 5 -5 5 -3 0 -5 -2 -5
-5z"/>
<path d="M445 509 c-4 -6 -4 -13 -1 -16 3 -4 6 -1 6 5 0 6 8 13 18 15 15 4 15
5 0 6 -9 0 -20 -4 -23 -10z"/>
<path d="M540 501 c0 -6 4 -13 10 -16 6 -3 7 1 4 9 -7 18 -14 21 -14 7z"/>
<path d="M440 450 c0 -7 3 -10 7 -7 3 4 3 10 0 14 -4 3 -7 0 -7 -7z"/>
<path d="M680 395 c0 -3 2 -5 5 -5 3 0 5 2 5 5 0 3 -2 5 -5 5 -3 0 -5 -2 -5
-5z"/>
<path d="M510 305 c0 -3 2 -5 5 -5 3 0 5 2 5 5 0 3 -2 5 -5 5 -3 0 -5 -2 -5
-5z"/>
<path d="M530 210 c6 -11 13 -20 16 -20 2 0 0 9 -6 20 -6 11 -13 20 -16 20 -2
0 0 -9 6 -20z"/>
<path d="M440 182 c0 -12 3 -12 18 -1 9 7 19 14 21 16 2 1 -6 1 -18 0 -11 -1
-21 -8 -21 -15z"/>
<path d="M520 155 c0 -3 2 -5 5 -5 3 0 5 2 5 5 0 3 -2 5 -5 5 -3 0 -5 -2 -5
-5z"/>
<path d="M440 135 c0 -3 2 -5 5 -5 3 0 5 2 5 5 0 3 -2 5 -5 5 -3 0 -5 -2 -5
-5z"/>
<path d="M480 115 c0 -3 2 -5 5 -5 3 0 5 2 5 5 0 3 -2 5 -5 5 -3 0 -5 -2 -5
-5z"/>
<path d="M464 58 c-4 -7 -3 -8 4 -4 12 7 16 16 8 16 -3 0 -8 -5 -12 -12z"/>
<path d="M190 305 c0 -3 2 -5 5 -5 3 0 5 2 5 5 0 3 -2 5 -5 5 -3 0 -5 -2 -5
-5z"/>
<path d="M200 265 c0 -3 2 -5 5 -5 3 0 5 2 5 5 0 3 -2 5 -5 5 -3 0 -5 -2 -5
-5z"/>
<path d="M209 248 c-4 -15 -6 -50 -3 -40 3 6 11 9 17 5 8 -5 8 -2 0 9 -7 8
-10 18 -6 21 3 4 3 7 0 7 -4 0 -7 -1 -8 -2z"/>
<path d="M100 235 c0 -3 2 -5 5 -5 3 0 5 2 5 5 0 3 -2 5 -5 5 -3 0 -5 -2 -5
-5z"/>
<path d="M73 223 c4 -3 10 -3 14 0 3 4 0 7 -7 7 -7 0 -10 -3 -7 -7z"/>
<path d="M120 188 c0 -11 28 -10 35 1 3 6 -4 9 -15 8 -11 -1 -20 -5 -20 -9z"/>
<path d="M120 130 c0 -7 3 -10 7 -7 3 4 3 10 0 14 -4 3 -7 0 -7 -7z"/>
<path d="M20 115 c0 -3 2 -5 5 -5 3 0 5 2 5 5 0 3 -2 5 -5 5 -3 0 -5 -2 -5 -5z"/>
<path d="M830 305 c0 -3 2 -5 5 -5 3 0 5 2 5 5 0 3 -2 5 -5 5 -3 0 -5 -2 -5
-5z"/>
<path d="M840 265 c0 -3 2 -5 5 -5 3 0 5 2 5 5 0 3 -2 5 -5 5 -3 0 -5 -2 -5
-5z"/>
<path d="M740 235 c0 -3 2 -5 5 -5 3 0 5 2 5 5 0 3 -2 5 -5 5 -3 0 -5 -2 -5
-5z"/>
<path d="M765 189 c-4 -6 -4 -13 -1 -16 3 -4 6 -1 6 5 0 6 8 13 18 15 15 4 15
5 0 6 -9 0 -20 -4 -23 -10z"/>
<path d="M840 185 c0 -3 2 -5 5 -5 3 0 5 2 5 5 0 3 -2 5 -5 5 -3 0 -5 -2 -5
-5z"/>
<path d="M843 155 c0 -8 4 -12 9 -9 5 3 6 10 3 15 -9 13 -12 11 -12 -6z"/>
<path d="M760 130 c0 -7 3 -10 7 -7 3 4 3 10 0 14 -4 3 -7 0 -7 -7z"/>
<path d="M670 105 c0 -3 2 -5 5 -5 3 0 5 2 5 5 0 3 -2 5 -5 5 -3 0 -5 -2 -5
-5z"/>
<path d="M270 955 c0 -3 2 -5 5 -5 3 0 5 2 5 5 0 3 -2 5 -5 5 -3 0 -5 -2 -5
-5z"/>
<path d="M290 955 c0 -3 2 -5 5 -5 3 0 5 2 5 5 0 3 -2 5 -5 5 -3 0 -5 -2 -5
-5z"/>
<path d="M600 955 c0 -3 2 -5 5 -5 3 0 5 2 5 5 0 3 -2 5 -5 5 -3 0 -5 -2 -5
-5z"/>
<path d="M923 953 c4 -3 10 -3 14 0 3 4 0 7 -7 7 -7 0 -10 -3 -7 -7z"/>
<path d="M90 880 c0 -7 3 -10 7 -7 3 4 3 10 0 14 -4 3 -7 0 -7 -7z"/>
<path d="M733 883 c4 -3 10 -3 14 0 3 4 0 7 -7 7 -7 0 -10 -3 -7 -7z"/>
<path d="M70 875 c0 -3 2 -5 5 -5 3 0 5 2 5 5 0 3 -2 5 -5 5 -3 0 -5 -2 -5 -5z"/>
<path d="M420 875 c0 -3 2 -5 5 -5 3 0 5 2 5 5 0 3 -2 5 -5 5 -3 0 -5 -2 -5
-5z"/>
<path d="M200 865 c0 -3 2 -5 5 -5 3 0 5 2 5 5 0 3 -2 5 -5 5 -3 0 -5 -2 -5
-5z"/>
<path d="M850 850 c6 -11 13 -20 16 -20 2 0 0 9 -6 20 -6 11 -13 20 -16 20 -2
0 0 -9 6 -20z"/>
<path d="M223 853 c4 -3 10 -3 14 0 3 4 0 7 -7 7 -7 0 -10 -3 -7 -7z"/>
<path d="M50 845 c0 -3 2 -5 5 -5 3 0 5 2 5 5 0 3 -2 5 -5 5 -3 0 -5 -2 -5 -5z"/>
<path d="M200 840 c0 -7 3 -10 7 -7 3 4 3 10 0 14 -4 3 -7 0 -7 -7z"/>
<path d="M138 833 c7 -3 16 -2 19 1 4 3 -2 6 -13 5 -11 0 -14 -3 -6 -6z"/>
<path d="M180 835 c0 -3 2 -5 5 -5 3 0 5 2 5 5 0 3 -2 5 -5 5 -3 0 -5 -2 -5
-5z"/>
<path d="M220 835 c0 -3 2 -5 5 -5 3 0 5 2 5 5 0 3 -2 5 -5 5 -3 0 -5 -2 -5
-5z"/>
<path d="M445 829 c-4 -6 -4 -13 -1 -16 3 -4 6 -1 6 5 0 6 8 13 18 15 15 4 15
5 0 6 -9 0 -20 -4 -23 -10z"/>
<path d="M760 824 c0 -8 5 -12 10 -9 6 3 10 10 10 16 0 5 -4 9 -10 9 -5 0 -10
-7 -10 -16z"/>
<path d="M790 835 c0 -3 2 -5 5 -5 3 0 5 2 5 5 0 3 -2 5 -5 5 -3 0 -5 -2 -5
-5z"/>
<path d="M120 815 c0 -3 2 -5 5 -5 3 0 5 2 5 5 0 3 -2 5 -5 5 -3 0 -5 -2 -5
-5z"/>
<path d="M520 815 c0 -3 2 -5 5 -5 3 0 5 2 5 5 0 3 -2 5 -5 5 -3 0 -5 -2 -5
-5z"/>
<path d="M440 770 c0 -7 3 -10 7 -7 3 4 3 10 0 14 -4 3 -7 0 -7 -7z"/>
<path d="M130 765 c0 -3 2 -5 5 -5 3 0 5 2 5 5 0 3 -2 5 -5 5 -3 0 -5 -2 -5
-5z"/>
<path d="M760 765 c0 -3 2 -5 5 -5 3 0 5 2 5 5 0 3 -2 5 -5 5 -3 0 -5 -2 -5
-5z"/>
<path d="M773 673 c4 -3 10 -3 14 0 3 4 0 7 -7 7 -7 0 -10 -3 -7 -7z"/>
<path d="M830 625 c0 -3 2 -5 5 -5 3 0 5 2 5 5 0 3 -2 5 -5 5 -3 0 -5 -2 -5
-5z"/>
<path d="M850 530 c6 -11 13 -20 16 -20 2 0 0 9 -6 20 -6 11 -13 20 -16 20 -2
0 0 -9 6 -20z"/>
<path d="M760 502 c0 -12 3 -12 18 -1 9 7 19 14 21 16 2 1 -6 1 -18 0 -11 -1
-21 -8 -21 -15z"/>
<path d="M840 475 c0 -3 2 -5 5 -5 3 0 5 2 5 5 0 3 -2 5 -5 5 -3 0 -5 -2 -5
-5z"/>
<path d="M760 455 c0 -3 2 -5 5 -5 3 0 5 2 5 5 0 3 -2 5 -5 5 -3 0 -5 -2 -5
-5z"/>
<path d="M2 240 c0 -14 2 -19 5 -12 2 6 2 18 0 25 -3 6 -5 1 -5 -13z"/>
<path d="M0 45 c0 -3 2 -5 5 -5 3 0 5 2 5 5 0 3 -2 5 -5 5 -3 0 -5 -2 -5 -5z"/>
</g>
<g transform="translate(0.000000,96.000000) scale(0.100000,-0.100000)"
fill="#31ba51" stroke="none">
<path d="M2 923 c1 -37 1 -37 5 -6 4 27 9 32 36 36 31 4 31 4 -5 5 -38 2 -38
2 -36 -35z"/>
<path d="M90 955 c0 -3 2 -5 5 -5 3 0 5 2 5 5 0 3 -2 5 -5 5 -3 0 -5 -2 -5 -5z"/>
<path d="M93 924 c-36 -39 -29 -45 13 -11 15 12 39 27 53 34 l26 11 -30 0
c-21 0 -40 -11 -62 -34z"/>
<path d="M213 953 c9 -2 25 -2 35 0 9 3 1 5 -18 5 -19 0 -27 -2 -17 -5z"/>
<path d="M270 955 c0 -3 2 -5 5 -5 3 0 5 2 5 5 0 3 -2 5 -5 5 -3 0 -5 -2 -5
-5z"/>
<path d="M290 955 c0 -3 2 -5 5 -5 3 0 5 2 5 5 0 3 -2 5 -5 5 -3 0 -5 -2 -5
-5z"/>
<path d="M313 953 c3 -5 0 -37 -5 -73 -6 -36 -10 -75 -9 -87 1 -21 -33 -50
-51 -45 -5 1 -8 -2 -8 -8 0 -5 -6 -7 -14 -4 -11 4 -13 0 -9 -17 5 -17 3 -20
-7 -14 -9 5 -11 4 -6 -3 13 -21 -30 -44 -90 -49 -53 -4 -84 -8 -106 -12 -5 0
-8 -20 -8 -43 0 -47 8 -48 12 -2 2 29 5 31 60 40 32 6 58 7 58 4 0 -3 -29 -34
-65 -69 -46 -45 -65 -71 -65 -89 0 -28 8 -26 13 4 4 29 16 44 31 38 8 -3 17
-1 21 5 4 7 -1 8 -12 4 -16 -6 -16 -5 -4 10 7 9 17 15 21 12 5 -3 12 4 15 16
4 11 9 18 12 15 3 -3 13 4 22 15 9 11 26 21 37 23 12 3 32 15 46 28 13 13 39
37 58 54 19 17 40 40 46 50 10 17 11 15 10 -13 0 -18 -4 -33 -7 -33 -3 0 -4
-13 -1 -30 5 -32 5 -32 -85 -33 -25 0 -27 -28 -3 -50 12 -10 12 -9 1 5 -11 15
-11 19 1 23 23 9 87 11 88 3 2 -62 -2 -108 -9 -104 -4 3 -7 -13 -5 -35 3 -34
-1 -42 -21 -51 -13 -6 -22 -15 -19 -19 9 -16 -23 -10 -36 6 -7 9 -15 13 -18
10 -3 -3 2 -11 11 -18 15 -11 15 -15 -4 -44 -12 -18 -29 -33 -40 -33 -10 0
-52 -5 -94 -11 -72 -11 -75 -12 -74 -38 2 -23 2 -23 6 -4 3 15 12 23 26 23 12
0 40 2 62 6 l40 6 -68 -69 c-46 -48 -67 -76 -67 -93 0 -19 2 -22 9 -10 6 8 7
18 5 22 -6 10 114 128 130 128 13 0 84 49 115 81 40 39 75 92 74 109 -2 17
121 135 141 135 23 0 146 104 146 123 0 5 7 15 15 22 8 7 15 23 15 36 0 17 8
28 26 34 15 6 22 14 18 22 -5 7 -2 9 8 5 10 -3 15 0 14 10 0 8 8 20 19 27 11
6 24 17 28 24 4 6 17 12 27 12 10 0 22 5 25 10 3 6 -4 10 -17 10 -14 0 -46
-23 -90 -67 l-67 -66 4 34 c2 19 4 46 4 61 1 20 5 26 19 23 10 -2 25 1 33 6
10 6 3 9 -22 9 -41 0 -48 -13 -49 -85 0 -22 -4 -47 -10 -55 -5 -9 -5 -17 1
-21 5 -3 -5 -20 -23 -37 -22 -23 -38 -30 -52 -26 -17 4 -18 3 -6 -5 13 -9 13
-11 -2 -11 -10 0 -15 -5 -12 -13 8 -22 -20 -45 -61 -51 -22 -3 -42 -6 -45 -6
-3 -1 3 -5 13 -8 14 -6 7 -18 -47 -71 l-64 -63 3 33 c2 19 4 47 4 62 1 21 6
28 19 26 28 -2 42 0 42 10 0 4 -16 6 -36 4 -34 -3 -35 -2 -32 24 1 15 11 36
21 45 18 16 18 17 -3 38 -15 15 -18 25 -11 38 5 9 6 23 1 32 -4 8 -7 31 -5 50
2 19 4 46 4 59 1 18 5 22 20 18 10 -2 25 -1 32 4 9 6 -1 9 -29 9 -24 0 -41 -3
-39 -7z m377 -98 c0 -3 -2 -5 -5 -5 -3 0 -5 2 -5 5 0 3 2 5 5 5 3 0 5 -2 5 -5z"/>
<path d="M390 895 c-35 -36 -60 -65 -54 -65 5 0 16 9 24 19 7 11 17 18 22 15
5 -3 8 -2 7 3 -4 20 2 27 12 13 9 -13 10 -13 7 0 -5 16 50 66 68 62 7 -1 15 2
19 8 3 6 -4 10 -17 10 -16 0 -45 -22 -88 -65z"/>
<path d="M538 953 c12 -2 30 -2 40 0 9 3 -1 5 -23 4 -22 0 -30 -2 -17 -4z"/>
<path d="M600 955 c0 -3 2 -5 5 -5 3 0 5 2 5 5 0 3 -2 5 -5 5 -3 0 -5 -2 -5
-5z"/>
<path d="M620 955 c0 -3 2 -5 5 -5 3 0 5 2 5 5 0 3 -2 5 -5 5 -3 0 -5 -2 -5
-5z"/>
<path d="M740 955 c0 -3 2 -5 5 -5 3 0 5 2 5 5 0 3 -2 5 -5 5 -3 0 -5 -2 -5
-5z"/>
<path d="M853 953 c9 -2 25 -2 35 0 9 3 1 5 -18 5 -19 0 -27 -2 -17 -5z"/>
<path d="M923 953 c4 -3 10 -3 14 0 3 4 0 7 -7 7 -7 0 -10 -3 -7 -7z"/>
<path d="M200 935 c0 -3 2 -5 5 -5 3 0 5 2 5 5 0 3 -2 5 -5 5 -3 0 -5 -2 -5
-5z"/>
<path d="M952 886 c-2 -44 -4 -47 -19 -35 -13 11 -13 8 3 -16 l19 -29 3 32 c2
17 1 47 -1 65 -3 24 -4 20 -5 -17z"/>
<path d="M875 900 c3 -5 8 -10 11 -10 3 0 2 5 -1 10 -3 6 -8 10 -11 10 -3 0
-2 -4 1 -10z"/>
<path d="M90 880 c0 -7 3 -10 7 -7 3 4 3 10 0 14 -4 3 -7 0 -7 -7z"/>
<path d="M250 885 c0 -3 2 -5 5 -5 3 0 5 2 5 5 0 3 -2 5 -5 5 -3 0 -5 -2 -5
-5z"/>
<path d="M733 883 c4 -3 10 -3 14 0 3 4 0 7 -7 7 -7 0 -10 -3 -7 -7z"/>
<path d="M27 852 c-26 -27 -37 -72 -18 -72 5 0 7 9 4 21 -4 15 2 28 22 45 16
13 26 26 23 29 -2 3 -17 -8 -31 -23z"/>
<path d="M70 875 c0 -3 2 -5 5 -5 3 0 5 2 5 5 0 3 -2 5 -5 5 -3 0 -5 -2 -5 -5z"/>
<path d="M420 875 c0 -3 2 -5 5 -5 3 0 5 2 5 5 0 3 -2 5 -5 5 -3 0 -5 -2 -5
-5z"/>
<path d="M580 875 c0 -3 2 -5 5 -5 3 0 5 2 5 5 0 3 -2 5 -5 5 -3 0 -5 -2 -5
-5z"/>
<path d="M0 860 c0 -7 3 -10 7 -7 3 4 3 10 0 14 -4 3 -7 0 -7 -7z"/>
<path d="M275 860 c3 -5 8 -10 11 -10 3 0 2 5 -1 10 -3 6 -8 10 -11 10 -3 0
-2 -4 1 -10z"/>
<path d="M50 845 c0 -3 2 -5 5 -5 3 0 5 2 5 5 0 3 -2 5 -5 5 -3 0 -5 -2 -5 -5z"/>
<path d="M610 845 c0 -3 2 -5 5 -5 3 0 5 2 5 5 0 3 -2 5 -5 5 -3 0 -5 -2 -5
-5z"/>
<path d="M138 833 c7 -3 16 -2 19 1 4 3 -2 6 -13 5 -11 0 -14 -3 -6 -6z"/>
<path d="M180 835 c0 -3 2 -5 5 -5 3 0 5 2 5 5 0 3 -2 5 -5 5 -3 0 -5 -2 -5
-5z"/>
<path d="M445 829 c-4 -6 -4 -13 -1 -16 3 -4 6 -1 6 5 0 6 8 13 18 15 15 4 15
5 0 6 -9 0 -20 -4 -23 -10z"/>
<path d="M760 824 c0 -8 5 -12 10 -9 6 3 10 10 10 16 0 5 -4 9 -10 9 -5 0 -10
-7 -10 -16z"/>
<path d="M790 835 c0 -3 2 -5 5 -5 3 0 5 2 5 5 0 3 -2 5 -5 5 -3 0 -5 -2 -5
-5z"/>
<path d="M120 815 c0 -3 2 -5 5 -5 3 0 5 2 5 5 0 3 -2 5 -5 5 -3 0 -5 -2 -5
-5z"/>
<path d="M940 774 c6 -14 10 -48 10 -75 l0 -49 -47 -1 c-27 -1 -51 -1 -55 0
-5 0 -8 -4 -8 -9 0 -13 90 -10 108 3 18 14 15 157 -4 157 -10 0 -11 -6 -4 -26z"/>
<path d="M253 783 c4 -3 10 -3 14 0 3 4 0 7 -7 7 -7 0 -10 -3 -7 -7z"/>
<path d="M440 770 c0 -7 3 -10 7 -7 3 4 3 10 0 14 -4 3 -7 0 -7 -7z"/>
<path d="M0 737 c0 -38 13 -50 24 -21 3 9 -1 25 -9 37 -14 21 -15 20 -15 -16z"/>
<path d="M130 765 c0 -3 2 -5 5 -5 3 0 5 2 5 5 0 3 -2 5 -5 5 -3 0 -5 -2 -5
-5z"/>
<path d="M639 768 c-1 -2 -4 -23 -6 -48 -2 -25 -4 -51 -5 -57 -1 -7 -10 -13
-20 -13 -10 0 -18 -4 -18 -9 0 -4 10 -8 22 -7 20 1 23 -3 20 -39 -7 -107 -14
-136 -40 -161 -30 -27 -42 -29 -62 -11 -12 10 -12 9 -3 -3 17 -25 -11 -80 -42
-81 -14 -1 -29 -3 -35 -4 -5 -1 -14 -3 -20 -4 -5 0 -10 -5 -10 -11 0 -5 8 -7
18 -3 9 3 -12 -24 -48 -61 -35 -36 -65 -66 -66 -66 -2 0 -1 15 1 33 2 17 4 44
4 58 1 18 6 26 19 26 34 0 43 3 38 12 -4 5 -20 7 -36 5 -26 -5 -30 -2 -30 19
0 13 8 32 19 43 18 20 18 21 0 43 -11 13 -20 22 -20 20 -2 -5 -7 -65 -8 -98
-1 -19 -5 -23 -26 -19 -14 3 -25 2 -25 -2 0 -3 -14 -5 -30 -2 -18 3 -30 0 -30
-7 0 -8 19 -11 58 -9 l57 3 -3 -45 c-10 -135 -13 -150 -34 -150 -6 0 -16 -7
-23 -16 -10 -14 -16 -14 -36 -5 -23 11 -23 11 -5 -3 17 -14 17 -16 3 -16 -9 0
-14 -6 -11 -13 8 -22 -19 -45 -59 -50 -54 -7 -59 -17 -8 -17 23 0 54 8 69 17
55 35 122 119 122 154 0 12 10 23 26 29 15 6 22 14 18 22 -5 7 -2 9 7 6 8 -3
23 0 34 8 10 8 14 14 9 14 -6 0 -16 -6 -23 -12 -11 -11 -13 -10 -9 1 2 8 13
19 24 25 10 6 23 17 27 24 4 6 15 12 23 12 26 0 154 108 154 129 0 5 4 12 8
15 4 3 7 -12 6 -32 -1 -20 -3 -48 -3 -61 -1 -16 -5 -21 -16 -17 -9 3 -15 0
-15 -10 0 -11 6 -13 21 -9 19 6 21 4 16 -16 -4 -13 -7 -41 -7 -63 0 -35 -2
-37 -17 -25 -11 9 -10 3 6 -18 12 -18 18 -33 12 -33 -6 0 -11 -6 -11 -12 0 -7
-15 -25 -33 -40 -32 -25 -34 -25 -45 -7 -7 10 -18 19 -25 19 -8 0 -8 -3 2 -9
8 -5 10 -14 6 -21 -5 -9 -4 -11 3 -6 7 4 12 1 12 -9 0 -10 -5 -13 -12 -9 -6 4
-8 3 -5 -3 11 -17 -26 -49 -52 -45 -13 2 -28 -1 -34 -7 -22 -22 63 -12 95 11
36 25 88 75 88 84 0 3 9 17 20 31 11 14 17 30 14 35 -8 13 16 39 29 31 5 -3 8
-2 5 3 -3 5 4 18 15 29 18 18 19 18 14 2 -4 -11 -3 -16 4 -12 6 4 8 13 5 21
-3 8 -1 14 4 14 6 0 20 11 32 25 11 13 25 22 30 19 14 -9 148 107 148 129 0 9
2 9 9 -1 5 -9 8 -3 9 17 0 17 -4 31 -9 31 -5 0 -9 -7 -9 -15 0 -17 -34 -37
-45 -27 -5 4 -5 2 -2 -4 10 -18 -20 -25 -33 -8 -7 8 -17 14 -22 14 -5 0 -2 -7
6 -16 17 -16 22 -49 7 -40 -5 3 -12 -5 -15 -19 -5 -21 -12 -25 -41 -25 -32 0
-56 -15 -35 -22 6 -2 -19 -32 -55 -68 -63 -62 -66 -63 -61 -35 2 17 5 45 5 64
1 27 5 32 19 29 9 -3 31 1 47 9 29 13 29 13 -23 10 -52 -4 -52 -4 -50 25 1 15
6 28 11 28 4 0 5 5 1 12 -5 8 0 9 14 6 12 -4 25 -1 29 5 3 7 3 9 -2 5 -13 -12
-45 38 -45 71 0 25 6 34 26 41 15 6 22 14 18 22 -5 7 -2 9 7 6 8 -3 23 0 34 8
10 8 14 14 9 14 -6 0 -16 -6 -23 -12 -11 -11 -13 -10 -9 1 2 8 13 19 24 25 10
6 23 17 27 24 4 6 15 12 23 12 26 0 154 109 154 130 0 6 -7 10 -15 10 -8 0
-15 -4 -15 -10 0 -5 -7 -10 -15 -10 -8 0 -15 -5 -15 -12 0 -6 -9 -1 -20 12
-25 28 -26 19 -3 -18 17 -26 17 -26 0 -13 -10 8 -17 10 -16 5 2 -5 0 -19 -5
-31 -5 -17 -15 -23 -36 -23 -16 0 -35 -3 -44 -6 -22 -8 -20 -25 2 -17 9 3 -12
-24 -48 -61 -35 -36 -65 -66 -66 -66 -2 0 -1 15 1 33 2 17 4 44 4 59 1 21 5
26 20 23 11 -2 27 3 38 11 16 14 14 15 -25 10 -42 -6 -42 -6 -40 24 1 16 6 30
11 30 4 0 5 5 2 10 -5 9 15 15 38 11 4 0 7 0 7 2 0 5 -60 48 -61 45z m51 -233
c0 -3 -2 -5 -5 -5 -3 0 -5 2 -5 5 0 3 2 5 5 5 3 0 5 -2 5 -5z m-320 -320 c0
-3 -2 -5 -5 -5 -3 0 -5 2 -5 5 0 3 2 5 5 5 3 0 5 -2 5 -5z"/>
<path d="M760 765 c0 -3 2 -5 5 -5 3 0 5 2 5 5 0 3 -2 5 -5 5 -3 0 -5 -2 -5
-5z"/>
<path d="M860 755 c0 -3 2 -5 5 -5 3 0 5 2 5 5 0 3 -2 5 -5 5 -3 0 -5 -2 -5
-5z"/>
<path d="M370 725 c0 -3 2 -5 5 -5 3 0 5 2 5 5 0 3 -2 5 -5 5 -3 0 -5 -2 -5
-5z"/>
<path d="M720 696 c0 -2 8 -10 18 -17 15 -13 16 -12 3 4 -13 16 -21 21 -21 13z"/>
<path d="M420 675 c0 -3 2 -5 5 -5 3 0 5 2 5 5 0 3 -2 5 -5 5 -3 0 -5 -2 -5
-5z"/>
<path d="M540 647 l-25 -11 28 -4 c32 -4 46 4 31 17 -5 5 -20 4 -34 -2z m30
-2 c0 -3 -2 -5 -5 -5 -3 0 -5 2 -5 5 0 3 2 5 5 5 3 0 5 -2 5 -5z"/>
<path d="M400 645 c0 -3 2 -5 5 -5 3 0 5 2 5 5 0 3 -2 5 -5 5 -3 0 -5 -2 -5
-5z"/>
<path d="M952 566 c-2 -44 -4 -47 -19 -35 -13 11 -13 8 3 -16 l19 -29 3 32 c2
17 1 47 -1 65 -3 24 -4 20 -5 -17z"/>
<path d="M875 580 c3 -5 8 -10 11 -10 3 0 2 5 -1 10 -3 6 -8 10 -11 10 -3 0
-2 -4 1 -10z"/>
<path d="M100 560 c0 -7 3 -10 7 -7 3 4 3 10 0 14 -4 3 -7 0 -7 -7z"/>
<path d="M570 565 c0 -3 2 -5 5 -5 3 0 5 2 5 5 0 3 -2 5 -5 5 -3 0 -5 -2 -5
-5z"/>
<path d="M260 555 c0 -3 2 -5 5 -5 3 0 5 2 5 5 0 3 -2 5 -5 5 -3 0 -5 -2 -5
-5z"/>
<path d="M420 555 c0 -3 2 -5 5 -5 3 0 5 2 5 5 0 3 -2 5 -5 5 -3 0 -5 -2 -5
-5z"/>
<path d="M0 540 c0 -7 3 -10 7 -7 3 4 3 10 0 14 -4 3 -7 0 -7 -7z"/>
<path d="M393 543 c4 -3 10 -3 14 0 3 4 0 7 -7 7 -7 0 -10 -3 -7 -7z"/>
<path d="M590 546 c0 -2 8 -10 18 -17 15 -13 16 -12 3 4 -13 16 -21 21 -21 13z"/>
<path d="M123 505 c0 -8 4 -12 9 -9 4 3 8 9 8 15 0 5 -4 9 -8 9 -5 0 -9 -7 -9
-15z"/>
<path d="M153 513 c4 -3 10 -3 14 0 3 4 0 7 -7 7 -7 0 -10 -3 -7 -7z"/>
<path d="M445 509 c-4 -6 -4 -13 -1 -16 3 -4 6 -1 6 5 0 6 8 13 18 15 15 4 15
5 0 6 -9 0 -20 -4 -23 -10z"/>
<path d="M760 502 c0 -12 3 -12 18 -1 9 7 19 14 21 16 2 1 -6 1 -18 0 -11 -1
-21 -8 -21 -15z"/>
<path d="M440 450 c0 -7 3 -10 7 -7 3 4 3 10 0 14 -4 3 -7 0 -7 -7z"/>
<path d="M760 455 c0 -3 2 -5 5 -5 3 0 5 2 5 5 0 3 -2 5 -5 5 -3 0 -5 -2 -5
-5z"/>
<path d="M870 455 c0 -3 2 -5 5 -5 3 0 5 2 5 5 0 3 -2 5 -5 5 -3 0 -5 -2 -5
-5z"/>
<path d="M0 410 l0 -40 21 21 21 21 -21 19 -21 20 0 -41z"/>
<path d="M950 400 c0 -7 3 -10 7 -7 3 4 3 10 0 14 -4 3 -7 0 -7 -7z"/>
<path d="M720 375 c0 -3 2 -5 5 -5 3 0 5 2 5 5 0 3 -2 5 -5 5 -3 0 -5 -2 -5
-5z"/>
<path d="M950 355 c0 -16 -6 -25 -15 -25 -8 0 -15 -4 -15 -9 0 -6 9 -9 20 -8
16 1 20 8 20 34 0 18 -2 33 -5 33 -3 0 -5 -11 -5 -25z"/>
<path d="M420 355 c0 -3 2 -5 5 -5 3 0 5 2 5 5 0 3 -2 5 -5 5 -3 0 -5 -2 -5
-5z"/>
<path d="M565 331 c-3 -6 -12 -8 -19 -5 -8 3 -17 1 -21 -5 -4 -7 5 -11 24 -11
31 0 49 14 32 24 -5 4 -12 2 -16 -3z"/>
<path d="M400 325 c0 -3 2 -5 5 -5 3 0 5 2 5 5 0 3 -2 5 -5 5 -3 0 -5 -2 -5
-5z"/>
<path d="M840 318 c0 -11 57 -10 65 2 3 5 -9 9 -30 8 -19 -1 -35 -5 -35 -10z"/>
<path d="M946 213 c-6 -71 -9 -80 -38 -105 -20 -17 -35 -23 -39 -17 -8 13 -18
0 -24 -33 -6 -30 -14 -35 -58 -41 -76 -10 -48 -17 61 -16 l111 2 0 143 c1 79
-1 144 -3 144 -2 0 -6 -35 -10 -77z m2 -145 l-3 -53 -55 -3 c-45 -2 -52 0 -35
9 22 13 85 80 85 92 0 4 3 7 6 7 3 0 4 -24 2 -52z"/>
<path d="M555 260 c3 -5 8 -10 11 -10 3 0 2 5 -1 10 -3 6 -8 10 -11 10 -3 0
-2 -4 1 -10z"/>
<path d="M2 240 c0 -14 2 -19 5 -12 2 6 2 18 0 25 -3 6 -5 1 -5 -13z"/>
<path d="M240 255 c0 -3 2 -5 5 -5 3 0 5 2 5 5 0 3 -2 5 -5 5 -3 0 -5 -2 -5
-5z"/>
<path d="M890 245 c0 -3 2 -5 5 -5 3 0 5 2 5 5 0 3 -2 5 -5 5 -3 0 -5 -2 -5
-5z"/>
<path d="M100 235 c0 -3 2 -5 5 -5 3 0 5 2 5 5 0 3 -2 5 -5 5 -3 0 -5 -2 -5
-5z"/>
<path d="M260 235 c0 -3 2 -5 5 -5 3 0 5 2 5 5 0 3 -2 5 -5 5 -3 0 -5 -2 -5
-5z"/>
<path d="M740 235 c0 -3 2 -5 5 -5 3 0 5 2 5 5 0 3 -2 5 -5 5 -3 0 -5 -2 -5
-5z"/>
<path d="M73 223 c4 -3 10 -3 14 0 3 4 0 7 -7 7 -7 0 -10 -3 -7 -7z"/>
<path d="M925 210 c3 -5 8 -10 11 -10 3 0 2 5 -1 10 -3 6 -8 10 -11 10 -3 0
-2 -4 1 -10z"/>
<path d="M290 205 c0 -3 2 -5 5 -5 3 0 5 2 5 5 0 3 -2 5 -5 5 -3 0 -5 -2 -5
-5z"/>
<path d="M120 188 c0 -11 28 -10 35 1 3 6 -4 9 -15 8 -11 -1 -20 -5 -20 -9z"/>
<path d="M440 182 c0 -12 3 -12 18 -1 9 7 19 14 21 16 2 1 -6 1 -18 0 -11 -1
-21 -8 -21 -15z"/>
<path d="M765 189 c-4 -6 -4 -13 -1 -16 3 -4 6 -1 6 5 0 6 8 13 18 15 15 4 15
5 0 6 -9 0 -20 -4 -23 -10z"/>
<path d="M120 130 c0 -7 3 -10 7 -7 3 4 3 10 0 14 -4 3 -7 0 -7 -7z"/>
<path d="M440 135 c0 -3 2 -5 5 -5 3 0 5 2 5 5 0 3 -2 5 -5 5 -3 0 -5 -2 -5
-5z"/>
<path d="M550 135 c0 -3 2 -5 5 -5 3 0 5 2 5 5 0 3 -2 5 -5 5 -3 0 -5 -2 -5
-5z"/>
<path d="M760 130 c0 -7 3 -10 7 -7 3 4 3 10 0 14 -4 3 -7 0 -7 -7z"/>
<path d="M0 95 c0 -39 4 -42 26 -20 13 13 12 17 -6 35 l-20 20 0 -35z"/>
<path d="M316 121 c-3 -4 -5 -25 -4 -46 1 -28 -4 -43 -20 -55 l-21 -17 24 0
c20 0 25 5 25 24 0 13 11 34 25 47 l25 24 -24 16 c-14 9 -27 12 -30 7z m-6
-106 c0 -3 -2 -5 -5 -5 -3 0 -5 2 -5 5 0 3 2 5 5 5 3 0 5 -2 5 -5z"/>
<path d="M639 130 c-2 -6 -7 -63 -8 -97 -1 -17 -8 -23 -33 -26 -32 -4 -32 -4
5 -5 32 -2 37 1 37 21 0 13 8 32 19 43 18 20 18 21 0 45 -10 13 -19 22 -20 19z"/>
<path d="M560 115 c0 -3 2 -5 5 -5 3 0 5 2 5 5 0 3 -2 5 -5 5 -3 0 -5 -2 -5
-5z"/>
<path d="M870 115 c0 -3 2 -5 5 -5 3 0 5 2 5 5 0 3 -2 5 -5 5 -3 0 -5 -2 -5
-5z"/>
<path d="M50 85 c0 -3 2 -5 5 -5 3 0 5 2 5 5 0 3 -2 5 -5 5 -3 0 -5 -2 -5 -5z"/>
<path d="M400 55 c0 -3 2 -5 5 -5 3 0 5 2 5 5 0 3 -2 5 -5 5 -3 0 -5 -2 -5 -5z"/>
<path d="M0 45 c0 -3 2 -5 5 -5 3 0 5 2 5 5 0 3 -2 5 -5 5 -3 0 -5 -2 -5 -5z"/>
<path d="M100 35 c0 -3 2 -5 5 -5 3 0 5 2 5 5 0 3 -2 5 -5 5 -3 0 -5 -2 -5 -5z"/>
<path d="M740 35 c0 -3 2 -5 5 -5 3 0 5 2 5 5 0 3 -2 5 -5 5 -3 0 -5 -2 -5 -5z"/>
<path d="M245 10 c-3 -5 -1 -10 4 -10 6 0 11 5 11 10 0 6 -2 10 -4 10 -3 0 -8
-4 -11 -10z"/>
<path d="M30 5 c0 -3 2 -5 5 -5 3 0 5 2 5 5 0 3 -2 5 -5 5 -3 0 -5 -2 -5 -5z"/>
<path d="M60 5 c0 -3 2 -5 5 -5 3 0 5 2 5 5 0 3 -2 5 -5 5 -3 0 -5 -2 -5 -5z"/>
<path d="M80 5 c0 -3 2 -5 5 -5 3 0 5 2 5 5 0 3 -2 5 -5 5 -3 0 -5 -2 -5 -5z"/>
<path d="M213 3 c4 -3 10 -3 14 0 3 4 0 7 -7 7 -7 0 -10 -3 -7 -7z"/>
<path d="M343 3 c4 -3 10 -3 14 0 3 4 0 7 -7 7 -7 0 -10 -3 -7 -7z"/>
<path d="M370 5 c0 -3 2 -5 5 -5 3 0 5 2 5 5 0 3 -2 5 -5 5 -3 0 -5 -2 -5 -5z"/>
<path d="M398 3 c7 -3 16 -2 19 1 4 3 -2 6 -13 5 -11 0 -14 -3 -6 -6z"/>
<path d="M528 3 c6 -2 18 -2 25 0 6 3 1 5 -13 5 -14 0 -19 -2 -12 -5z"/>
<path d="M690 5 c0 -3 2 -5 5 -5 3 0 5 2 5 5 0 3 -2 5 -5 5 -3 0 -5 -2 -5 -5z"/>
<path d="M720 5 c0 -3 2 -5 5 -5 3 0 5 2 5 5 0 3 -2 5 -5 5 -3 0 -5 -2 -5 -5z"/>
</g>
<g transform="translate(0.000000,96.000000) scale(0.100000,-0.100000)"
fill="#8ceea8" stroke="none">
<path d="M2 923 c1 -37 1 -37 5 -6 4 27 9 32 36 36 31 4 31 4 -5 5 -38 2 -38
2 -36 -35z"/>
<path d="M90 955 c0 -3 2 -5 5 -5 3 0 5 2 5 5 0 3 -2 5 -5 5 -3 0 -5 -2 -5 -5z"/>
<path d="M99 923 c-33 -34 -24 -37 14 -4 11 9 31 21 45 28 l27 11 -26 1 c-17
1 -36 -11 -60 -36z"/>
<path d="M213 953 c9 -2 25 -2 35 0 9 3 1 5 -18 5 -19 0 -27 -2 -17 -5z"/>
<path d="M270 955 c0 -3 2 -5 5 -5 3 0 5 2 5 5 0 3 -2 5 -5 5 -3 0 -5 -2 -5
-5z"/>
<path d="M290 955 c0 -3 2 -5 5 -5 3 0 5 2 5 5 0 3 -2 5 -5 5 -3 0 -5 -2 -5
-5z"/>
<path d="M319 928 l6 -33 3 28 c3 22 8 28 22 24 10 -2 24 -1 31 4 9 6 0 9 -27
9 -40 0 -40 0 -35 -32z"/>
<path d="M387 892 c-47 -47 -67 -75 -67 -92 0 -19 2 -22 9 -10 6 8 7 18 5 22
-7 11 42 59 51 50 4 -4 6 -2 5 3 -5 22 1 29 11 15 9 -13 10 -13 7 0 -5 16 50
66 68 62 7 -1 15 2 19 8 3 6 -4 10 -17 10 -16 0 -46 -23 -91 -68z"/>
<path d="M538 953 c12 -2 30 -2 40 0 9 3 -1 5 -23 4 -22 0 -30 -2 -17 -4z"/>
<path d="M600 955 c0 -3 2 -5 5 -5 3 0 5 2 5 5 0 3 -2 5 -5 5 -3 0 -5 -2 -5
-5z"/>
<path d="M620 955 c0 -3 2 -5 5 -5 3 0 5 2 5 5 0 3 -2 5 -5 5 -3 0 -5 -2 -5
-5z"/>
<path d="M641 923 c2 -38 2 -38 8 -7 4 21 11 30 22 29 9 -2 23 1 30 6 10 6 2
9 -23 9 -37 0 -38 -1 -37 -37z"/>
<path d="M740 955 c0 -3 2 -5 5 -5 3 0 5 2 5 5 0 3 -2 5 -5 5 -3 0 -5 -2 -5
-5z"/>
<path d="M706 891 c-54 -54 -67 -73 -63 -92 4 -22 4 -22 6 4 1 20 8 30 27 37
15 6 22 14 18 22 -5 7 -2 9 8 5 10 -3 15 0 14 10 0 8 8 20 19 27 11 6 24 17
28 24 4 6 17 12 27 12 10 0 22 5 25 10 3 6 -4 10 -17 10 -16 0 -46 -23 -92
-69z m-16 -36 c0 -3 -2 -5 -5 -5 -3 0 -5 2 -5 5 0 3 2 5 5 5 3 0 5 -2 5 -5z"/>
<path d="M853 953 c9 -2 25 -2 35 0 9 3 1 5 -18 5 -19 0 -27 -2 -17 -5z"/>
<path d="M923 953 c4 -3 10 -3 14 0 3 4 0 7 -7 7 -7 0 -10 -3 -7 -7z"/>
<path d="M90 880 c0 -7 3 -10 7 -7 3 4 3 10 0 14 -4 3 -7 0 -7 -7z"/>
<path d="M321 874 c0 -11 3 -14 6 -6 3 7 2 16 -1 19 -3 4 -6 -2 -5 -13z"/>
<path d="M733 883 c4 -3 10 -3 14 0 3 4 0 7 -7 7 -7 0 -10 -3 -7 -7z"/>
<path d="M27 852 c-26 -27 -37 -72 -18 -72 5 0 7 9 4 21 -4 15 2 28 22 45 16
13 26 26 23 29 -2 3 -17 -8 -31 -23z"/>
<path d="M70 875 c0 -3 2 -5 5 -5 3 0 5 2 5 5 0 3 -2 5 -5 5 -3 0 -5 -2 -5 -5z"/>
<path d="M420 875 c0 -3 2 -5 5 -5 3 0 5 2 5 5 0 3 -2 5 -5 5 -3 0 -5 -2 -5
-5z"/>
<path d="M640 875 c0 -3 2 -5 5 -5 3 0 5 2 5 5 0 3 -2 5 -5 5 -3 0 -5 -2 -5
-5z"/>
<path d="M0 860 c0 -7 3 -10 7 -7 3 4 3 10 0 14 -4 3 -7 0 -7 -7z"/>
<path d="M640 855 c0 -3 2 -5 5 -5 3 0 5 2 5 5 0 3 -2 5 -5 5 -3 0 -5 -2 -5
-5z"/>
<path d="M50 845 c0 -3 2 -5 5 -5 3 0 5 2 5 5 0 3 -2 5 -5 5 -3 0 -5 -2 -5 -5z"/>
<path d="M138 833 c7 -3 16 -2 19 1 4 3 -2 6 -13 5 -11 0 -14 -3 -6 -6z"/>
<path d="M180 835 c0 -3 2 -5 5 -5 3 0 5 2 5 5 0 3 -2 5 -5 5 -3 0 -5 -2 -5
-5z"/>
<path d="M445 829 c-4 -6 -4 -13 -1 -16 3 -4 6 -1 6 5 0 6 8 13 18 15 15 4 15
5 0 6 -9 0 -20 -4 -23 -10z"/>
<path d="M760 824 c0 -8 5 -12 10 -9 6 3 10 10 10 16 0 5 -4 9 -10 9 -5 0 -10
-7 -10 -16z"/>
<path d="M790 835 c0 -3 2 -5 5 -5 3 0 5 2 5 5 0 3 -2 5 -5 5 -3 0 -5 -2 -5
-5z"/>
<path d="M120 815 c0 -3 2 -5 5 -5 3 0 5 2 5 5 0 3 -2 5 -5 5 -3 0 -5 -2 -5
-5z"/>
<path d="M440 770 c0 -7 3 -10 7 -7 3 4 3 10 0 14 -4 3 -7 0 -7 -7z"/>
<path d="M0 737 c0 -38 13 -50 24 -21 3 9 -1 25 -9 37 -14 21 -15 20 -15 -16z"/>
<path d="M130 765 c0 -3 2 -5 5 -5 3 0 5 2 5 5 0 3 -2 5 -5 5 -3 0 -5 -2 -5
-5z"/>
<path d="M320 735 c0 -39 4 -42 26 -20 13 13 12 17 -6 35 l-20 20 0 -35z"/>
<path d="M640 737 c0 -21 5 -37 11 -37 5 0 7 5 4 10 -3 6 1 10 9 10 22 0 20
13 -4 35 -20 18 -20 17 -20 -18z"/>
<path d="M760 765 c0 -3 2 -5 5 -5 3 0 5 2 5 5 0 3 -2 5 -5 5 -3 0 -5 -2 -5
-5z"/>
<path d="M255 708 l-40 -42 37 30 c30 24 55 54 45 54 -2 0 -21 -19 -42 -42z"/>
<path d="M570 705 c-24 -25 -41 -45 -37 -45 9 0 90 81 85 85 -2 3 -24 -16 -48
-40z"/>
<path d="M890 703 c-46 -48 -28 -40 22 10 25 25 33 37 25 37 -2 0 -23 -21 -47
-47z"/>
<path d="M320 685 c0 -3 2 -5 5 -5 3 0 5 2 5 5 0 3 -2 5 -5 5 -3 0 -5 -2 -5
-5z"/>
<path d="M640 685 c0 -3 2 -5 5 -5 3 0 5 2 5 5 0 3 -2 5 -5 5 -3 0 -5 -2 -5
-5z"/>
<path d="M0 598 c0 -47 6 -48 12 -3 2 24 9 31 33 36 29 6 29 6 -7 8 l-38 1 0
-42z"/>
<path d="M67 572 c-45 -45 -67 -75 -67 -91 0 -28 8 -24 13 5 4 29 16 44 31 38
8 -3 17 -1 21 5 4 7 -1 8 -12 4 -16 -6 -16 -5 -4 10 7 9 17 15 21 12 5 -3 12
4 15 16 4 11 9 18 12 16 2 -3 15 6 29 20 13 13 28 22 33 18 5 -3 12 -1 16 5 3
6 -4 10 -17 10 -16 0 -46 -23 -91 -68z"/>
<path d="M204 632 c5 -8 66 -4 66 4 0 2 -16 4 -36 4 -19 0 -33 -4 -30 -8z"/>
<path d="M290 635 c0 -3 2 -5 5 -5 3 0 5 2 5 5 0 3 -2 5 -5 5 -3 0 -5 -2 -5
-5z"/>
<path d="M319 603 l6 -38 3 33 c3 27 7 33 22 29 10 -2 24 -1 31 4 9 6 0 9 -26
9 l-41 0 5 -37z"/>
<path d="M387 572 c-47 -47 -67 -75 -67 -92 0 -19 2 -22 9 -10 6 8 7 18 4 23
-7 12 128 136 143 130 7 -2 15 0 19 6 4 7 -3 11 -17 11 -16 0 -46 -23 -91 -68z"/>
<path d="M533 633 c9 -2 25 -2 35 0 9 3 1 5 -18 5 -19 0 -27 -2 -17 -5z"/>
<path d="M590 635 c0 -3 2 -5 5 -5 3 0 5 2 5 5 0 3 -2 5 -5 5 -3 0 -5 -2 -5
-5z"/>
<path d="M610 635 c0 -3 2 -5 5 -5 3 0 5 2 5 5 0 3 -2 5 -5 5 -3 0 -5 -2 -5
-5z"/>
<path d="M639 603 l5 -38 6 31 c3 21 10 30 21 29 9 -2 23 1 30 6 9 6 1 9 -26
9 l-41 0 5 -37z"/>
<path d="M740 635 c0 -3 2 -5 5 -5 3 0 5 2 5 5 0 3 -2 5 -5 5 -3 0 -5 -2 -5
-5z"/>
<path d="M706 571 c-54 -54 -67 -73 -63 -92 4 -22 4 -22 6 4 1 20 8 30 27 37
15 6 22 14 18 22 -5 7 -2 9 7 6 8 -3 23 0 34 8 10 8 14 14 9 14 -6 0 -16 -6
-23 -12 -11 -11 -13 -10 -9 1 2 8 13 19 24 25 10 6 23 17 27 24 4 6 17 12 27
12 10 0 22 5 25 10 3 6 -4 10 -17 10 -16 0 -46 -23 -92 -69z m-16 -36 c0 -3
-2 -5 -5 -5 -3 0 -5 2 -5 5 0 3 2 5 5 5 3 0 5 -2 5 -5z"/>
<path d="M853 633 c9 -2 25 -2 35 0 9 3 1 5 -18 5 -19 0 -27 -2 -17 -5z"/>
<path d="M923 633 c4 -3 10 -3 14 0 3 4 0 7 -7 7 -7 0 -10 -3 -7 -7z"/>
<path d="M100 560 c0 -7 3 -10 7 -7 3 4 3 10 0 14 -4 3 -7 0 -7 -7z"/>
<path d="M321 544 c0 -11 3 -14 6 -6 3 7 2 16 -1 19 -3 4 -6 -2 -5 -13z"/>
<path d="M420 555 c0 -3 2 -5 5 -5 3 0 5 2 5 5 0 3 -2 5 -5 5 -3 0 -5 -2 -5
-5z"/>
<path d="M640 555 c0 -3 2 -5 5 -5 3 0 5 2 5 5 0 3 -2 5 -5 5 -3 0 -5 -2 -5
-5z"/>
<path d="M0 540 c0 -7 3 -10 7 -7 3 4 3 10 0 14 -4 3 -7 0 -7 -7z"/>
<path d="M393 543 c4 -3 10 -3 14 0 3 4 0 7 -7 7 -7 0 -10 -3 -7 -7z"/>
<path d="M640 535 c0 -3 2 -5 5 -5 3 0 5 2 5 5 0 3 -2 5 -5 5 -3 0 -5 -2 -5
-5z"/>
<path d="M123 505 c0 -8 4 -12 9 -9 4 3 8 9 8 15 0 5 -4 9 -8 9 -5 0 -9 -7 -9
-15z"/>
<path d="M153 513 c4 -3 10 -3 14 0 3 4 0 7 -7 7 -7 0 -10 -3 -7 -7z"/>
<path d="M445 509 c-4 -6 -4 -13 -1 -16 3 -4 6 -1 6 5 0 6 8 13 18 15 15 4 15
5 0 6 -9 0 -20 -4 -23 -10z"/>
<path d="M760 502 c0 -12 3 -12 18 -1 9 7 19 14 21 16 2 1 -6 1 -18 0 -11 -1
-21 -8 -21 -15z"/>
<path d="M440 450 c0 -7 3 -10 7 -7 3 4 3 10 0 14 -4 3 -7 0 -7 -7z"/>
<path d="M760 455 c0 -3 2 -5 5 -5 3 0 5 2 5 5 0 3 -2 5 -5 5 -3 0 -5 -2 -5
-5z"/>
<path d="M0 410 l0 -40 21 21 21 21 -21 19 -21 20 0 -41z"/>
<path d="M320 411 c0 -23 1 -41 3 -41 1 0 10 8 18 18 15 17 14 21 -3 41 l-18
23 0 -41z"/>
<path d="M640 416 c0 -20 5 -36 11 -36 5 0 7 5 3 12 -5 7 0 9 14 6 18 -5 20
-3 12 11 -5 10 -16 23 -24 31 -14 11 -16 8 -16 -24z"/>
<path d="M250 385 c-24 -25 -41 -45 -38 -45 7 0 88 78 88 85 0 10 -7 4 -50
-40z"/>
<path d="M570 385 c-24 -25 -41 -45 -37 -45 9 0 90 81 85 85 -2 3 -24 -16 -48
-40z"/>
<path d="M889 382 c-24 -25 -31 -35 -15 -22 48 41 68 61 64 66 -2 2 -24 -18
-49 -44z"/>
<path d="M640 365 c0 -3 2 -5 5 -5 3 0 5 2 5 5 0 3 -2 5 -5 5 -3 0 -5 -2 -5
-5z"/>
<path d="M1 293 c2 -25 2 -26 6 -5 3 17 10 23 23 19 10 -2 24 -1 31 4 9 6 1 9
-23 9 -35 0 -38 -2 -37 -27z"/>
<path d="M67 252 c-47 -47 -67 -75 -67 -92 0 -19 2 -22 9 -10 6 8 7 18 5 22
-7 12 104 117 140 133 30 13 30 13 6 14 -19 1 -44 -17 -93 -67z"/>
<path d="M213 313 c9 -2 25 -2 35 0 9 3 1 5 -18 5 -19 0 -27 -2 -17 -5z"/>
<path d="M270 315 c0 -3 2 -5 5 -5 3 0 5 2 5 5 0 3 -2 5 -5 5 -3 0 -5 -2 -5
-5z"/>
<path d="M290 315 c0 -3 2 -5 5 -5 3 0 5 2 5 5 0 3 -2 5 -5 5 -3 0 -5 -2 -5
-5z"/>
<path d="M319 283 l5 -38 6 31 c3 21 10 30 21 29 9 -2 23 1 30 6 9 6 1 9 -26
9 l-41 0 5 -37z"/>
<path d="M420 315 c0 -3 2 -5 5 -5 3 0 5 2 5 5 0 3 -2 5 -5 5 -3 0 -5 -2 -5
-5z"/>
<path d="M386 251 c-54 -54 -67 -73 -63 -92 4 -22 4 -22 6 4 1 20 8 30 27 37
15 6 22 14 18 22 -5 7 -2 9 7 6 8 -3 23 0 34 8 10 8 14 14 9 14 -6 0 -16 -6
-23 -12 -11 -11 -13 -10 -9 1 2 8 13 19 24 25 10 6 23 17 27 24 4 6 17 12 27
12 10 0 22 5 25 10 3 6 -4 10 -17 10 -16 0 -46 -23 -92 -69z m-16 -36 c0 -3
-2 -5 -5 -5 -3 0 -5 2 -5 5 0 3 2 5 5 5 3 0 5 -2 5 -5z"/>
<path d="M533 313 c9 -2 25 -2 35 0 9 3 1 5 -18 5 -19 0 -27 -2 -17 -5z"/>
<path d="M603 313 c4 -3 10 -3 14 0 3 4 0 7 -7 7 -7 0 -10 -3 -7 -7z"/>
<path d="M642 278 l1 -43 4 38 c4 32 8 38 23 34 10 -2 24 -1 31 4 9 6 1 9 -23
9 l-38 0 2 -42z"/>
<path d="M707 252 c-47 -47 -67 -75 -67 -92 0 -19 2 -22 9 -10 6 8 7 18 4 22
-7 13 17 39 30 31 5 -3 8 -2 5 3 -3 5 4 18 15 29 18 18 19 18 14 2 -4 -11 -3
-16 4 -12 6 4 8 13 5 21 -3 8 -1 14 4 14 6 0 20 11 31 24 12 14 27 22 34 20 7
-3 16 -1 20 5 4 7 -3 11 -17 11 -16 0 -46 -23 -91 -68z"/>
<path d="M853 313 c9 -2 25 -2 35 0 9 3 1 5 -18 5 -19 0 -27 -2 -17 -5z"/>
<path d="M923 313 c4 -3 10 -3 14 0 3 4 0 7 -7 7 -7 0 -10 -3 -7 -7z"/>
<path d="M950 315 c0 -3 2 -5 5 -5 3 0 5 2 5 5 0 3 -2 5 -5 5 -3 0 -5 -2 -5
-5z"/>
<path d="M2 240 c0 -14 2 -19 5 -12 2 6 2 18 0 25 -3 6 -5 1 -5 -13z"/>
<path d="M100 235 c0 -3 2 -5 5 -5 3 0 5 2 5 5 0 3 -2 5 -5 5 -3 0 -5 -2 -5
-5z"/>
<path d="M320 235 c0 -3 2 -5 5 -5 3 0 5 2 5 5 0 3 -2 5 -5 5 -3 0 -5 -2 -5
-5z"/>
<path d="M740 235 c0 -3 2 -5 5 -5 3 0 5 2 5 5 0 3 -2 5 -5 5 -3 0 -5 -2 -5
-5z"/>
<path d="M73 223 c4 -3 10 -3 14 0 3 4 0 7 -7 7 -7 0 -10 -3 -7 -7z"/>
<path d="M640 225 c0 -3 2 -5 5 -5 3 0 5 2 5 5 0 3 -2 5 -5 5 -3 0 -5 -2 -5
-5z"/>
<path d="M320 215 c0 -3 2 -5 5 -5 3 0 5 2 5 5 0 3 -2 5 -5 5 -3 0 -5 -2 -5
-5z"/>
<path d="M120 188 c0 -11 28 -10 35 1 3 6 -4 9 -15 8 -11 -1 -20 -5 -20 -9z"/>
<path d="M440 182 c0 -12 3 -12 18 -1 9 7 19 14 21 16 2 1 -6 1 -18 0 -11 -1
-21 -8 -21 -15z"/>
<path d="M765 189 c-4 -6 -4 -13 -1 -16 3 -4 6 -1 6 5 0 6 8 13 18 15 15 4 15
5 0 6 -9 0 -20 -4 -23 -10z"/>
<path d="M120 130 c0 -7 3 -10 7 -7 3 4 3 10 0 14 -4 3 -7 0 -7 -7z"/>
<path d="M440 135 c0 -3 2 -5 5 -5 3 0 5 2 5 5 0 3 -2 5 -5 5 -3 0 -5 -2 -5
-5z"/>
<path d="M760 130 c0 -7 3 -10 7 -7 3 4 3 10 0 14 -4 3 -7 0 -7 -7z"/>
<path d="M0 95 c0 -39 4 -42 26 -20 13 13 12 17 -6 35 l-20 20 0 -35z"/>
<path d="M320 92 l0 -42 21 21 21 21 -21 21 -21 21 0 -42z"/>
<path d="M640 88 c0 -41 0 -41 18 -22 17 17 17 21 4 42 -8 12 -16 22 -18 22
-2 0 -4 -19 -4 -42z"/>
<path d="M250 65 c-24 -25 -41 -45 -37 -45 8 0 87 77 87 85 0 10 -6 5 -50 -40z"/>
<path d="M569 63 c-24 -26 -35 -40 -25 -32 33 24 78 70 74 74 -2 3 -24 -16
-49 -42z"/>
<path d="M890 65 c-24 -25 -41 -45 -38 -45 8 0 43 33 72 68 32 37 13 24 -34
-23z"/>
<path d="M0 45 c0 -3 2 -5 5 -5 3 0 5 2 5 5 0 3 -2 5 -5 5 -3 0 -5 -2 -5 -5z"/>
</g>
  </g>
</svg>
