<?xml version="1.0" encoding="UTF-8" standalone="no"?>
<!-- Created with Inkscape (http://www.inkscape.org/) -->

<svg
   xmlns:dc="http://purl.org/dc/elements/1.1/"
   xmlns:cc="http://creativecommons.org/ns#"
   xmlns:rdf="http://www.w3.org/1999/02/22-rdf-syntax-ns#"
   xmlns:svg="http://www.w3.org/2000/svg"
   xmlns="http://www.w3.org/2000/svg"
   xmlns:sodipodi="http://sodipodi.sourceforge.net/DTD/sodipodi-0.dtd"
   xmlns:inkscape="http://www.inkscape.org/namespaces/inkscape"
   width="32px"
   height="32px"
   viewBox="0 0 32px 32px"
   version="1.1"
   id="svgMain"
   inkscape:version="0.92.2 (5c3e80d, 2017-08-06)"
   sodipodi:docname="reference_SVG.svg">
  <defs
     id="defs4542" />
  <sodipodi:namedview
     id="base"
     pagecolor="#ffffff"
     bordercolor="#666666"
     borderopacity="1.0"
     inkscape:pageopacity="0.0"
     inkscape:pageshadow="2"
     inkscape:zoom="1"
     inkscape:cx="0"
     inkscape:cy="0"
     inkscape:document-units="px"
     inkscape:current-layer="layer1"
     showgrid="false"
     units="px"
     inkscape:window-width="1024"
     inkscape:window-height="768"
     inkscape:window-x="-8"
     inkscape:window-y="-8"
     inkscape:window-maximized="1" />
  <metadata
     id="metadata1">
    <rdf:RDF>
      <cc:Work
         rdf:about="">
        <dc:format>image/svg+xml</dc:format>
        <dc:type
           rdf:resource="http://purl.org/dc/dcmitype/StillImage" />
        <dc:title />
      </cc:Work>
    </rdf:RDF>
  </metadata>
  <g transform="translate(-32,-32)"
     inkscape:label="Layer 1"
     inkscape:groupmode="layer"
     id="layer1">
    <!-- INSERT MARKER -->
<g transform="translate(0.000000,96.000000) scale(0.100000,-0.100000)"
fill="#77a9ff" stroke="none">
<path d="M0 480 l0 -480 480 0 480 0 0 480 0 480 -480 0 -480 0 0 -480z"/>
</g>
<g transform="translate(0.000000,96.000000) scale(0.100000,-0.100000)"
fill="#ffffff" stroke="none">
<path d="M134 918 l-19 -23 23 19 c21 18 27 26 19 26 -2 0 -12 -10 -23 -22z"/>
<path d="M454 918 l-19 -23 23 19 c21 18 27 26 19 26 -2 0 -12 -10 -23 -22z"/>
<path d="M774 918 l-19 -23 23 19 c21 18 27 26 19 26 -2 0 -12 -10 -23 -22z"/>
<path d="M44 888 l-29 -33 33 29 c30 28 37 36 29 36 -2 0 -16 -15 -33 -32z"/>
<path d="M364 888 l-29 -33 33 29 c30 28 37 36 29 36 -2 0 -16 -15 -33 -32z"/>
<path d="M684 888 l-29 -33 33 29 c30 28 37 36 29 36 -2 0 -16 -15 -33 -32z"/>
<path d="M140 888 c-11 -12 -20 -30 -20 -40 0 -11 -7 -18 -19 -18 -11 0 -23
-5 -26 -10 -4 -6 -10 -8 -14 -5 -5 2 -17 -5 -27 -18 l-19 -22 23 19 c14 13 22
15 22 6 0 -10 3 -10 14 -1 15 12 52 11 73 -2 12 -8 15 -56 3 -55 -3 0 -15 0
-27 -1 -29 -1 -30 -21 -1 -21 12 0 30 -7 40 -17 18 -16 26 -5 9 13 -14 14 11
77 34 89 33 16 69 49 84 75 10 19 3 15 -27 -14 -35 -34 -43 -37 -57 -26 -9 7
-13 20 -10 29 4 9 -7 4 -22 -12 -16 -15 -32 -27 -36 -27 -16 0 -5 30 18 48 14
11 25 23 25 26 0 13 -20 5 -40 -16z m46 -77 c-22 -21 -46 0 -26 24 10 12 16
13 27 3 12 -10 12 -13 -1 -27z"/>
<path d="M460 888 c-11 -12 -20 -30 -20 -40 0 -11 -7 -18 -19 -18 -11 0 -23
-5 -26 -10 -4 -6 -10 -8 -14 -5 -5 2 -17 -5 -27 -18 l-19 -22 23 19 c14 13 22
15 22 6 0 -10 3 -10 14 -1 15 12 52 11 73 -2 12 -8 15 -56 3 -55 -3 0 -15 0
-27 -1 -29 -1 -30 -21 -1 -21 12 0 30 -7 40 -17 18 -16 26 -5 9 13 -14 14 11
77 34 89 33 16 69 49 84 75 10 19 3 15 -27 -14 -35 -34 -43 -37 -57 -26 -9 7
-13 20 -10 29 4 9 -7 4 -22 -12 -16 -15 -32 -27 -36 -27 -16 0 -5 30 18 48 14
11 25 23 25 26 0 13 -20 5 -40 -16z m46 -77 c-22 -21 -46 0 -26 24 10 12 16
13 27 3 12 -10 12 -13 -1 -27z"/>
<path d="M780 888 c-11 -12 -20 -30 -20 -40 0 -11 -7 -18 -19 -18 -11 0 -23
-5 -26 -10 -4 -6 -10 -8 -14 -5 -5 2 -17 -5 -27 -18 l-19 -22 23 19 c14 13 22
15 22 6 0 -10 3 -10 14 -1 15 12 52 11 73 -2 12 -8 15 -56 3 -55 -3 0 -15 0
-27 -1 -29 -1 -30 -21 -1 -21 12 0 30 -7 40 -17 18 -16 26 -5 9 13 -14 14 11
77 34 89 33 16 69 49 84 75 10 19 3 15 -27 -14 -35 -34 -43 -37 -57 -26 -9 7
-13 20 -10 29 4 9 -7 4 -22 -12 -16 -15 -32 -27 -36 -27 -16 0 -5 30 18 48 14
11 25 23 25 26 0 13 -20 5 -40 -16z m46 -77 c-22 -21 -46 0 -26 24 10 12 16
13 27 3 12 -10 12 -13 -1 -27z"/>
<path d="M235 718 l-40 -43 43 40 c23 21 42 40 42 42 0 8 -9 0 -45 -39z"/>
<path d="M555 718 l-40 -43 43 40 c23 21 42 40 42 42 0 8 -9 0 -45 -39z"/>
<path d="M875 718 l-40 -43 43 40 c23 21 42 40 42 42 0 8 -9 0 -45 -39z"/>
<path d="M14 698 l-19 -23 23 19 c12 11 22 21 22 23 0 8 -8 2 -26 -19z"/>
<path d="M334 698 l-19 -23 23 19 c21 18 27 26 19 26 -2 0 -12 -10 -23 -22z"/>
<path d="M654 698 l-19 -23 23 19 c21 18 27 26 19 26 -2 0 -12 -10 -23 -22z"/>
<path d="M134 598 l-19 -23 23 19 c21 18 27 26 19 26 -2 0 -12 -10 -23 -22z"/>
<path d="M454 598 l-19 -23 23 19 c12 11 22 21 22 23 0 8 -8 2 -26 -19z"/>
<path d="M774 598 l-19 -23 23 19 c21 18 27 26 19 26 -2 0 -12 -10 -23 -22z"/>
<path d="M44 568 l-29 -33 33 29 c30 28 37 36 29 36 -2 0 -16 -15 -33 -32z"/>
<path d="M364 568 l-29 -33 33 29 c30 28 37 36 29 36 -2 0 -16 -15 -33 -32z"/>
<path d="M684 568 l-29 -33 33 29 c17 17 32 31 32 33 0 8 -8 1 -36 -29z"/>
<path d="M140 568 c-11 -12 -20 -30 -20 -40 0 -11 -7 -18 -19 -18 -11 0 -23
-5 -26 -10 -4 -6 -10 -8 -14 -5 -5 2 -17 -5 -27 -18 l-19 -22 23 19 c14 13 22
15 22 6 0 -10 3 -10 14 -1 15 12 52 11 73 -2 12 -8 15 -56 3 -55 -3 0 -15 0
-27 -1 -29 -1 -30 -21 -1 -21 12 0 30 -7 40 -17 18 -16 26 -5 9 13 -14 14 11
77 34 89 33 16 69 49 84 75 10 19 3 15 -27 -14 -35 -34 -43 -37 -57 -26 -9 7
-13 20 -10 29 4 9 -7 4 -22 -12 -16 -15 -32 -27 -36 -27 -16 0 -5 30 18 48 14
11 25 23 25 26 0 13 -20 5 -40 -16z m46 -77 c-22 -21 -46 0 -26 24 10 12 16
13 27 3 12 -10 12 -13 -1 -27z"/>
<path d="M460 568 c-11 -12 -20 -30 -20 -40 0 -11 -7 -18 -19 -18 -11 0 -23
-5 -26 -10 -4 -6 -10 -8 -14 -5 -5 2 -17 -5 -27 -18 l-19 -22 23 19 c14 13 22
15 22 6 0 -10 3 -10 14 -1 15 12 52 11 73 -2 12 -8 15 -56 3 -55 -3 0 -15 0
-27 -1 -29 -1 -30 -21 -1 -21 12 0 30 -7 40 -17 18 -16 26 -5 9 13 -14 14 11
77 34 89 33 16 69 49 84 75 10 19 3 15 -27 -14 -35 -34 -43 -37 -57 -26 -9 7
-13 20 -10 29 4 9 -7 4 -22 -12 -16 -15 -32 -27 -36 -27 -16 0 -5 30 18 48 14
11 25 23 25 26 0 13 -20 5 -40 -16z m46 -77 c-22 -21 -46 0 -26 24 10 12 16
13 27 3 12 -10 12 -13 -1 -27z"/>
<path d="M780 568 c-11 -12 -20 -30 -20 -40 0 -11 -7 -18 -19 -18 -11 0 -23
-5 -26 -10 -4 -6 -10 -8 -14 -5 -5 2 -17 -5 -27 -18 l-19 -22 23 19 c14 13 22
15 22 6 0 -10 3 -10 14 -1 15 12 52 11 73 -2 12 -8 15 -56 3 -55 -3 0 -15 0
-27 -1 -29 -1 -30 -21 -1 -21 12 0 30 -7 40 -17 18 -16 26 -5 9 13 -14 14 11
77 34 89 33 16 69 49 84 75 10 19 3 15 -27 -14 -35 -34 -43 -37 -57 -26 -9 7
-13 20 -10 29 4 9 -7 4 -22 -12 -16 -15 -32 -27 -36 -27 -16 0 -5 30 18 48 14
11 25 23 25 26 0 13 -20 5 -40 -16z m46 -77 c-22 -21 -46 0 -26 24 10 12 16
13 27 3 12 -10 12 -13 -1 -27z"/>
<path d="M235 398 l-40 -43 43 40 c23 21 42 40 42 42 0 8 -9 0 -45 -39z"/>
<path d="M555 398 l-40 -43 43 40 c39 36 47 45 39 45 -2 0 -21 -19 -42 -42z"/>
<path d="M875 398 l-40 -43 43 40 c39 36 47 45 39 45 -2 0 -21 -19 -42 -42z"/>
<path d="M14 378 l-19 -23 23 19 c21 18 27 26 19 26 -2 0 -12 -10 -23 -22z"/>
<path d="M334 378 l-19 -23 23 19 c12 11 22 21 22 23 0 8 -8 2 -26 -19z"/>
<path d="M654 378 l-19 -23 23 19 c21 18 27 26 19 26 -2 0 -12 -10 -23 -22z"/>
<path d="M134 278 l-19 -23 23 19 c21 18 27 26 19 26 -2 0 -12 -10 -23 -22z"/>
<path d="M454 278 l-19 -23 23 19 c21 18 27 26 19 26 -2 0 -12 -10 -23 -22z"/>
<path d="M774 278 l-19 -23 23 19 c21 18 27 26 19 26 -2 0 -12 -10 -23 -22z"/>
<path d="M44 248 l-29 -33 33 29 c17 17 32 31 32 33 0 8 -8 1 -36 -29z"/>
<path d="M364 248 l-29 -33 33 29 c17 17 32 31 32 33 0 8 -8 1 -36 -29z"/>
<path d="M684 248 l-29 -33 33 29 c30 28 37 36 29 36 -2 0 -16 -15 -33 -32z"/>
<path d="M140 248 c-11 -12 -20 -30 -20 -40 0 -11 -7 -18 -19 -18 -11 0 -23
-5 -26 -10 -4 -6 -10 -8 -14 -5 -5 2 -17 -5 -27 -18 l-19 -22 23 19 c14 13 22
15 22 6 0 -10 3 -10 14 -1 15 12 52 11 73 -2 12 -8 15 -56 3 -55 -3 0 -15 0
-27 -1 -29 -1 -30 -21 -1 -21 12 0 30 -7 40 -17 18 -16 26 -5 9 13 -14 14 11
77 34 89 33 16 69 49 84 75 10 19 3 15 -27 -14 -35 -34 -43 -37 -57 -26 -9 7
-13 20 -10 29 4 9 -7 4 -22 -12 -16 -15 -32 -27 -36 -27 -16 0 -5 30 18 48 14
11 25 23 25 26 0 13 -20 5 -40 -16z m46 -77 c-22 -21 -46 0 -26 24 10 12 16
13 27 3 12 -10 12 -13 -1 -27z"/>
<path d="M460 248 c-11 -12 -20 -30 -20 -40 0 -11 -7 -18 -19 -18 -11 0 -23
-5 -26 -10 -4 -6 -10 -8 -14 -5 -5 2 -17 -5 -27 -18 l-19 -22 23 19 c14 13 22
15 22 6 0 -10 3 -10 14 -1 15 12 52 11 73 -2 12 -8 15 -56 3 -55 -3 0 -15 0
-27 -1 -29 -1 -30 -21 -1 -21 12 0 30 -7 40 -17 18 -16 26 -5 9 13 -14 14 11
77 34 89 33 16 69 49 84 75 10 19 3 15 -27 -14 -35 -34 -43 -37 -57 -26 -9 7
-13 20 -10 29 4 9 -7 4 -22 -12 -16 -15 -32 -27 -36 -27 -16 0 -5 30 18 48 14
11 25 23 25 26 0 13 -20 5 -40 -16z m46 -77 c-22 -21 -46 0 -26 24 10 12 16
13 27 3 12 -10 12 -13 -1 -27z"/>
<path d="M780 248 c-11 -12 -20 -30 -20 -40 0 -11 -7 -18 -19 -18 -11 0 -23
-5 -26 -10 -4 -6 -10 -8 -14 -5 -5 2 -17 -5 -27 -18 l-19 -22 23 19 c14 13 22
15 22 6 0 -10 3 -10 14 -1 15 12 52 11 73 -2 12 -8 15 -56 3 -55 -3 0 -15 0
-27 -1 -29 -1 -30 -21 -1 -21 12 0 30 -7 40 -17 18 -16 26 -5 9 13 -14 14 11
77 34 89 33 16 69 49 84 75 10 19 3 15 -27 -14 -35 -34 -43 -37 -57 -26 -9 7
-13 20 -10 29 4 9 -7 4 -22 -12 -16 -15 -32 -27 -36 -27 -16 0 -5 30 18 48 14
11 25 23 25 26 0 13 -20 5 -40 -16z m46 -77 c-22 -21 -46 0 -26 24 10 12 16
13 27 3 12 -10 12 -13 -1 -27z"/>
<path d="M235 78 l-40 -43 43 40 c23 21 42 40 42 42 0 8 -9 0 -45 -39z"/>
<path d="M555 78 l-40 -43 43 40 c23 21 42 40 42 42 0 8 -9 0 -45 -39z"/>
<path d="M875 78 l-40 -43 43 40 c39 36 47 45 39 45 -2 0 -21 -19 -42 -42z"/>
<path d="M14 58 l-19 -23 23 19 c21 18 27 26 19 26 -2 0 -12 -10 -23 -22z"/>
<path d="M334 58 l-19 -23 23 19 c21 18 27 26 19 26 -2 0 -12 -10 -23 -22z"/>
<path d="M654 58 l-19 -23 23 19 c21 18 27 26 19 26 -2 0 -12 -10 -23 -22z"/>
</g>
<g transform="translate(0.000000,96.000000) scale(0.100000,-0.100000)"
fill="#8ebfff" stroke="none">
<path d="M134 918 l-19 -23 23 19 c21 18 27 26 19 26 -2 0 -12 -10 -23 -22z"/>
<path d="M454 918 l-19 -23 23 19 c21 18 27 26 19 26 -2 0 -12 -10 -23 -22z"/>
<path d="M774 918 l-19 -23 23 19 c21 18 27 26 19 26 -2 0 -12 -10 -23 -22z"/>
<path d="M144 878 l-19 -23 25 20 c14 11 27 21 29 22 2 2 0 3 -6 3 -5 0 -18
-10 -29 -22z"/>
<path d="M279 883 c-13 -16 -12 -17 4 -4 9 7 17 15 17 17 0 8 -8 3 -21 -13z"/>
<path d="M464 878 l-19 -23 25 20 c14 11 27 21 29 22 2 2 0 3 -6 3 -5 0 -18
-10 -29 -22z"/>
<path d="M599 883 c-13 -16 -12 -17 4 -4 9 7 17 15 17 17 0 8 -8 3 -21 -13z"/>
<path d="M784 878 l-19 -23 25 20 c14 11 27 21 29 22 2 2 0 3 -6 3 -5 0 -18
-10 -29 -22z"/>
<path d="M919 883 c-13 -16 -12 -17 4 -4 9 7 17 15 17 17 0 8 -8 3 -21 -13z"/>
<path d="M245 840 c-10 -11 -23 -20 -30 -20 -7 0 -20 -10 -31 -22 -19 -23 -19
-23 2 -5 11 9 24 17 28 17 5 0 21 11 38 25 16 14 25 25 20 25 -5 0 -17 -9 -27
-20z"/>
<path d="M565 840 c-10 -11 -23 -20 -30 -20 -7 0 -20 -10 -31 -22 -19 -23 -19
-23 2 -5 11 9 24 17 28 17 5 0 21 11 38 25 16 14 25 25 20 25 -5 0 -17 -9 -27
-20z"/>
<path d="M885 840 c-10 -11 -23 -20 -30 -20 -7 0 -20 -10 -31 -22 -19 -23 -19
-23 2 -5 11 9 24 17 28 17 5 0 21 11 38 25 16 14 25 25 20 25 -5 0 -17 -9 -27
-20z"/>
<path d="M185 840 c3 -5 8 -10 11 -10 3 0 2 5 -1 10 -3 6 -8 10 -11 10 -3 0
-2 -4 1 -10z"/>
<path d="M505 840 c3 -5 8 -10 11 -10 3 0 2 5 -1 10 -3 6 -8 10 -11 10 -3 0
-2 -4 1 -10z"/>
<path d="M825 840 c3 -5 8 -10 11 -10 3 0 2 5 -1 10 -3 6 -8 10 -11 10 -3 0
-2 -4 1 -10z"/>
<path d="M145 830 c-3 -5 -19 -10 -34 -10 -16 0 -35 -8 -42 -17 -13 -16 -12
-17 3 -5 17 14 53 13 78 -3 12 -7 13 -6 3 6 -10 12 -10 18 -1 27 7 7 9 12 6
12 -4 0 -10 -4 -13 -10z"/>
<path d="M465 830 c-3 -5 -19 -10 -34 -10 -16 0 -35 -8 -42 -17 -13 -16 -12
-17 3 -5 17 14 53 13 78 -3 12 -7 13 -6 3 6 -10 12 -10 18 -1 27 7 7 9 12 6
12 -4 0 -10 -4 -13 -10z"/>
<path d="M785 830 c-3 -5 -19 -10 -34 -10 -16 0 -35 -8 -42 -17 -13 -16 -12
-17 3 -5 17 14 53 13 78 -3 12 -7 13 -6 3 6 -10 12 -10 18 -1 27 7 7 9 12 6
12 -4 0 -10 -4 -13 -10z"/>
<path d="M34 798 l-19 -23 23 19 c12 11 22 21 22 23 0 8 -8 2 -26 -19z"/>
<path d="M354 798 l-19 -23 23 19 c21 18 27 26 19 26 -2 0 -12 -10 -23 -22z"/>
<path d="M674 798 l-19 -23 23 19 c21 18 27 26 19 26 -2 0 -12 -10 -23 -22z"/>
<path d="M160 735 c0 -3 2 -5 5 -5 3 0 5 2 5 5 0 3 -2 5 -5 5 -3 0 -5 -2 -5
-5z"/>
<path d="M480 735 c0 -3 2 -5 5 -5 3 0 5 2 5 5 0 3 -2 5 -5 5 -3 0 -5 -2 -5
-5z"/>
<path d="M800 735 c0 -3 2 -5 5 -5 3 0 5 2 5 5 0 3 -2 5 -5 5 -3 0 -5 -2 -5
-5z"/>
<path d="M120 723 c14 -3 34 -12 45 -21 20 -17 20 -17 1 6 -12 13 -29 21 -45
21 l-26 -2 25 -4z"/>
<path d="M440 723 c14 -3 34 -12 45 -21 20 -17 20 -17 1 6 -12 13 -29 21 -45
21 l-26 -2 25 -4z"/>
<path d="M760 723 c14 -3 34 -12 45 -21 20 -17 20 -17 1 6 -12 13 -29 21 -45
21 l-26 -2 25 -4z"/>
<path d="M14 698 l-19 -23 23 19 c12 11 22 21 22 23 0 8 -8 2 -26 -19z"/>
<path d="M334 698 l-19 -23 23 19 c21 18 27 26 19 26 -2 0 -12 -10 -23 -22z"/>
<path d="M654 698 l-19 -23 23 19 c21 18 27 26 19 26 -2 0 -12 -10 -23 -22z"/>
<path d="M204 688 c-4 -7 -3 -8 4 -4 12 7 16 16 8 16 -3 0 -8 -5 -12 -12z"/>
<path d="M524 688 c-4 -7 -3 -8 4 -4 12 7 16 16 8 16 -3 0 -8 -5 -12 -12z"/>
<path d="M844 688 c-4 -7 -3 -8 4 -4 7 4 12 9 12 12 0 8 -9 4 -16 -8z"/>
<path d="M134 598 l-19 -23 23 19 c21 18 27 26 19 26 -2 0 -12 -10 -23 -22z"/>
<path d="M454 598 l-19 -23 23 19 c12 11 22 21 22 23 0 8 -8 2 -26 -19z"/>
<path d="M774 598 l-19 -23 23 19 c21 18 27 26 19 26 -2 0 -12 -10 -23 -22z"/>
<path d="M144 558 l-19 -23 25 20 c14 11 27 21 29 22 2 2 0 3 -6 3 -5 0 -18
-10 -29 -22z"/>
<path d="M279 563 c-13 -16 -12 -17 4 -4 9 7 17 15 17 17 0 8 -8 3 -21 -13z"/>
<path d="M464 558 l-19 -23 25 20 c14 11 27 21 29 22 2 2 0 3 -6 3 -5 0 -18
-10 -29 -22z"/>
<path d="M599 563 c-13 -16 -12 -17 4 -4 9 7 17 15 17 17 0 8 -8 3 -21 -13z"/>
<path d="M784 558 l-19 -23 25 20 c14 11 27 21 29 22 2 2 0 3 -6 3 -5 0 -18
-10 -29 -22z"/>
<path d="M919 563 c-13 -16 -12 -17 4 -4 16 13 21 21 13 21 -2 0 -10 -8 -17
-17z"/>
<path d="M245 520 c-10 -11 -23 -20 -30 -20 -7 0 -20 -10 -31 -22 -19 -23 -19
-23 2 -5 11 9 24 17 28 17 5 0 21 11 38 25 16 14 25 25 20 25 -5 0 -17 -9 -27
-20z"/>
<path d="M565 520 c-10 -11 -23 -20 -30 -20 -7 0 -20 -10 -31 -22 -19 -23 -19
-23 2 -5 11 9 24 17 28 17 5 0 21 11 38 25 16 14 25 25 20 25 -5 0 -17 -9 -27
-20z"/>
<path d="M885 520 c-10 -11 -23 -20 -30 -20 -7 0 -20 -10 -31 -22 -19 -23 -19
-23 2 -5 11 9 24 17 28 17 5 0 21 11 38 25 16 14 25 25 20 25 -5 0 -17 -9 -27
-20z"/>
<path d="M185 520 c3 -5 8 -10 11 -10 3 0 2 5 -1 10 -3 6 -8 10 -11 10 -3 0
-2 -4 1 -10z"/>
<path d="M505 520 c3 -5 8 -10 11 -10 3 0 2 5 -1 10 -3 6 -8 10 -11 10 -3 0
-2 -4 1 -10z"/>
<path d="M825 520 c3 -5 8 -10 11 -10 3 0 2 5 -1 10 -3 6 -8 10 -11 10 -3 0
-2 -4 1 -10z"/>
<path d="M145 510 c-3 -5 -19 -10 -34 -10 -16 0 -35 -8 -42 -17 -13 -16 -12
-17 3 -5 17 14 53 13 78 -3 12 -7 13 -6 3 6 -10 12 -10 18 -1 27 7 7 9 12 6
12 -4 0 -10 -4 -13 -10z"/>
<path d="M465 510 c-3 -5 -19 -10 -34 -10 -16 0 -35 -8 -42 -17 -13 -16 -12
-17 3 -5 17 14 53 13 78 -3 12 -7 13 -6 3 6 -10 12 -10 18 -1 27 7 7 9 12 6
12 -4 0 -10 -4 -13 -10z"/>
<path d="M785 510 c-3 -5 -19 -10 -34 -10 -16 0 -35 -8 -42 -17 -13 -16 -12
-17 3 -5 17 14 53 13 78 -3 12 -7 13 -6 3 6 -10 12 -10 18 -1 27 7 7 9 12 6
12 -4 0 -10 -4 -13 -10z"/>
<path d="M34 478 l-19 -23 23 19 c21 18 27 26 19 26 -2 0 -12 -10 -23 -22z"/>
<path d="M354 478 l-19 -23 23 19 c12 11 22 21 22 23 0 8 -8 2 -26 -19z"/>
<path d="M674 478 l-19 -23 23 19 c21 18 27 26 19 26 -2 0 -12 -10 -23 -22z"/>
<path d="M160 415 c0 -3 2 -5 5 -5 3 0 5 2 5 5 0 3 -2 5 -5 5 -3 0 -5 -2 -5
-5z"/>
<path d="M480 415 c0 -3 2 -5 5 -5 3 0 5 2 5 5 0 3 -2 5 -5 5 -3 0 -5 -2 -5
-5z"/>
<path d="M800 415 c0 -3 2 -5 5 -5 3 0 5 2 5 5 0 3 -2 5 -5 5 -3 0 -5 -2 -5
-5z"/>
<path d="M120 403 c14 -3 34 -12 45 -21 20 -17 20 -17 1 6 -12 13 -29 21 -45
21 l-26 -2 25 -4z"/>
<path d="M440 403 c14 -3 34 -12 45 -21 20 -17 20 -17 1 6 -12 13 -29 21 -45
21 l-26 -2 25 -4z"/>
<path d="M760 403 c14 -3 34 -12 45 -21 20 -17 20 -17 1 6 -12 13 -29 21 -45
21 l-26 -2 25 -4z"/>
<path d="M14 378 l-19 -23 23 19 c21 18 27 26 19 26 -2 0 -12 -10 -23 -22z"/>
<path d="M334 378 l-19 -23 23 19 c12 11 22 21 22 23 0 8 -8 2 -26 -19z"/>
<path d="M654 378 l-19 -23 23 19 c21 18 27 26 19 26 -2 0 -12 -10 -23 -22z"/>
<path d="M204 368 c-4 -7 -3 -8 4 -4 12 7 16 16 8 16 -3 0 -8 -5 -12 -12z"/>
<path d="M524 368 c-4 -7 -3 -8 4 -4 12 7 16 16 8 16 -3 0 -8 -5 -12 -12z"/>
<path d="M844 368 c-4 -7 -3 -8 4 -4 7 4 12 9 12 12 0 8 -9 4 -16 -8z"/>
<path d="M134 278 l-19 -23 23 19 c21 18 27 26 19 26 -2 0 -12 -10 -23 -22z"/>
<path d="M454 278 l-19 -23 23 19 c21 18 27 26 19 26 -2 0 -12 -10 -23 -22z"/>
<path d="M774 278 l-19 -23 23 19 c21 18 27 26 19 26 -2 0 -12 -10 -23 -22z"/>
<path d="M144 238 l-19 -23 25 20 c14 11 27 21 29 22 2 2 0 3 -6 3 -5 0 -18
-10 -29 -22z"/>
<path d="M279 243 c-13 -16 -12 -17 4 -4 9 7 17 15 17 17 0 8 -8 3 -21 -13z"/>
<path d="M464 238 l-19 -23 25 20 c14 11 27 21 29 22 2 2 0 3 -6 3 -5 0 -18
-10 -29 -22z"/>
<path d="M599 243 c-13 -16 -12 -17 4 -4 16 13 21 21 13 21 -2 0 -10 -8 -17
-17z"/>
<path d="M784 238 l-19 -23 25 20 c14 11 27 21 29 22 2 2 0 3 -6 3 -5 0 -18
-10 -29 -22z"/>
<path d="M919 243 c-13 -16 -12 -17 4 -4 16 13 21 21 13 21 -2 0 -10 -8 -17
-17z"/>
<path d="M245 200 c-10 -11 -23 -20 -30 -20 -7 0 -20 -10 -31 -22 -19 -23 -19
-23 2 -5 11 9 24 17 28 17 5 0 21 11 38 25 16 14 25 25 20 25 -5 0 -17 -9 -27
-20z"/>
<path d="M565 200 c-10 -11 -23 -20 -30 -20 -7 0 -20 -10 -31 -22 -19 -23 -19
-23 2 -5 11 9 24 17 28 17 5 0 21 11 38 25 16 14 25 25 20 25 -5 0 -17 -9 -27
-20z"/>
<path d="M885 200 c-10 -11 -23 -20 -30 -20 -7 0 -20 -10 -31 -22 -19 -23 -19
-23 2 -5 11 9 24 17 28 17 5 0 21 11 38 25 16 14 25 25 20 25 -5 0 -17 -9 -27
-20z"/>
<path d="M185 200 c3 -5 8 -10 11 -10 3 0 2 5 -1 10 -3 6 -8 10 -11 10 -3 0
-2 -4 1 -10z"/>
<path d="M505 200 c3 -5 8 -10 11 -10 3 0 2 5 -1 10 -3 6 -8 10 -11 10 -3 0
-2 -4 1 -10z"/>
<path d="M825 200 c3 -5 8 -10 11 -10 3 0 2 5 -1 10 -3 6 -8 10 -11 10 -3 0
-2 -4 1 -10z"/>
<path d="M145 190 c-3 -5 -19 -10 -34 -10 -16 0 -35 -8 -42 -17 -13 -16 -12
-17 3 -5 17 14 53 13 78 -3 12 -7 13 -6 3 6 -10 12 -10 18 -1 27 7 7 9 12 6
12 -4 0 -10 -4 -13 -10z"/>
<path d="M465 190 c-3 -5 -19 -10 -34 -10 -16 0 -35 -8 -42 -17 -13 -16 -12
-17 3 -5 17 14 53 13 78 -3 12 -7 13 -6 3 6 -10 12 -10 18 -1 27 7 7 9 12 6
12 -4 0 -10 -4 -13 -10z"/>
<path d="M785 190 c-3 -5 -19 -10 -34 -10 -16 0 -35 -8 -42 -17 -13 -16 -12
-17 3 -5 17 14 53 13 78 -3 12 -7 13 -6 3 6 -10 12 -10 18 -1 27 7 7 9 12 6
12 -4 0 -10 -4 -13 -10z"/>
<path d="M34 158 l-19 -23 23 19 c21 18 27 26 19 26 -2 0 -12 -10 -23 -22z"/>
<path d="M354 158 l-19 -23 23 19 c21 18 27 26 19 26 -2 0 -12 -10 -23 -22z"/>
<path d="M674 158 l-19 -23 23 19 c21 18 27 26 19 26 -2 0 -12 -10 -23 -22z"/>
<path d="M160 95 c0 -3 2 -5 5 -5 3 0 5 2 5 5 0 3 -2 5 -5 5 -3 0 -5 -2 -5 -5z"/>
<path d="M480 95 c0 -3 2 -5 5 -5 3 0 5 2 5 5 0 3 -2 5 -5 5 -3 0 -5 -2 -5 -5z"/>
<path d="M800 95 c0 -3 2 -5 5 -5 3 0 5 2 5 5 0 3 -2 5 -5 5 -3 0 -5 -2 -5 -5z"/>
<path d="M120 83 c14 -3 34 -12 45 -21 20 -17 20 -17 1 6 -12 13 -29 21 -45
21 l-26 -2 25 -4z"/>
<path d="M440 83 c14 -3 34 -12 45 -21 20 -17 20 -17 1 6 -12 13 -29 21 -45
21 l-26 -2 25 -4z"/>
<path d="M760 83 c14 -3 34 -12 45 -21 20 -17 20 -17 1 6 -12 13 -29 21 -45
21 l-26 -2 25 -4z"/>
<path d="M14 58 l-19 -23 23 19 c21 18 27 26 19 26 -2 0 -12 -10 -23 -22z"/>
<path d="M334 58 l-19 -23 23 19 c21 18 27 26 19 26 -2 0 -12 -10 -23 -22z"/>
<path d="M654 58 l-19 -23 23 19 c21 18 27 26 19 26 -2 0 -12 -10 -23 -22z"/>
<path d="M204 48 c-4 -7 -3 -8 4 -4 12 7 16 16 8 16 -3 0 -8 -5 -12 -12z"/>
<path d="M524 48 c-4 -7 -3 -8 4 -4 12 7 16 16 8 16 -3 0 -8 -5 -12 -12z"/>
<path d="M844 48 c-4 -7 -3 -8 4 -4 7 4 12 9 12 12 0 8 -9 4 -16 -8z"/>
</g>
  </g>
</svg>
