<?xml version="1.0" encoding="UTF-8" standalone="no"?>
<!-- Created with Inkscape (http://www.inkscape.org/) -->

<svg
   xmlns:dc="http://purl.org/dc/elements/1.1/"
   xmlns:cc="http://creativecommons.org/ns#"
   xmlns:rdf="http://www.w3.org/1999/02/22-rdf-syntax-ns#"
   xmlns:svg="http://www.w3.org/2000/svg"
   xmlns="http://www.w3.org/2000/svg"
   xmlns:sodipodi="http://sodipodi.sourceforge.net/DTD/sodipodi-0.dtd"
   xmlns:inkscape="http://www.inkscape.org/namespaces/inkscape"
   width="16px"
   height="16px"
   viewBox="0 0 16px 16px"
   version="1.1"
   id="svgMain"
   inkscape:version="0.92.2 (5c3e80d, 2017-08-06)"
   sodipodi:docname="reference_SVG.svg">
  <defs
     id="defs4542" />
  <sodipodi:namedview
     id="base"
     pagecolor="#ffffff"
     bordercolor="#666666"
     borderopacity="1.0"
     inkscape:pageopacity="0.0"
     inkscape:pageshadow="2"
     inkscape:zoom="1"
     inkscape:cx="0"
     inkscape:cy="0"
     inkscape:document-units="px"
     inkscape:current-layer="layer1"
     showgrid="false"
     units="px"
     inkscape:window-width="1024"
     inkscape:window-height="768"
     inkscape:window-x="-8"
     inkscape:window-y="-8"
     inkscape:window-maximized="1" />
  <metadata
     id="metadata1">
    <rdf:RDF>
      <cc:Work
         rdf:about="">
        <dc:format>image/svg+xml</dc:format>
        <dc:type
           rdf:resource="http://purl.org/dc/dcmitype/StillImage" />
        <dc:title />
      </cc:Work>
    </rdf:RDF>
  </metadata>
  <g transform="translate(-16,-16) scale(0.5,0.5)"
     inkscape:label="Layer 1"
     inkscape:groupmode="layer"
     id="layer1">
    <!-- INSERT MARKER -->
<g transform="translate(0.000000,96.000000) scale(0.100000,-0.100000)"
fill="#cf7a30" stroke="none">
<path d="M140 480 c0 -473 0 -480 20 -480 20 0 20 7 20 480 0 473 0 480 -20
480 -20 0 -20 -7 -20 -480z"/>
<path d="M460 480 c0 -473 0 -480 20 -480 20 0 20 7 20 480 0 473 0 480 -20
480 -20 0 -20 -7 -20 -480z"/>
<path d="M780 480 c0 -473 0 -480 20 -480 20 0 20 7 20 480 0 473 0 480 -20
480 -20 0 -20 -7 -20 -480z"/>
</g>
<g transform="translate(0.000000,96.000000) scale(0.100000,-0.100000)"
fill="#d77f32" stroke="none">
<path d="M140 928 c0 -22 3 -29 9 -20 4 8 12 13 17 12 5 0 11 6 12 16 3 10 0
14 -7 10 -6 -4 -11 -2 -11 3 0 6 -4 11 -10 11 -5 0 -10 -15 -10 -32z"/>
<path d="M460 928 c0 -22 3 -29 9 -20 4 8 12 13 17 12 5 0 11 6 12 16 3 10 0
14 -7 10 -6 -4 -11 -2 -11 3 0 6 -4 11 -10 11 -5 0 -10 -15 -10 -32z"/>
<path d="M780 928 c0 -22 3 -29 9 -20 4 8 12 13 17 12 5 0 11 6 12 16 3 10 0
14 -7 10 -6 -4 -11 -2 -11 3 0 6 -4 11 -10 11 -5 0 -10 -15 -10 -32z"/>
<path d="M158 875 c-10 -13 -18 -30 -18 -37 0 -10 3 -9 10 2 5 8 12 11 16 8
10 -11 -5 -60 -16 -53 -6 3 -10 2 -10 -4 0 -5 5 -13 10 -16 7 -5 8 -11 1 -19
-5 -6 -10 -49 -9 -95 0 -46 4 -78 8 -72 4 7 11 11 16 9 5 -1 10 5 12 16 3 11
0 16 -7 12 -6 -4 -11 -2 -11 3 0 6 5 11 10 11 6 0 10 9 10 21 0 11 -4 18 -9
14 -19 -11 -23 38 -6 80 9 26 15 64 13 93 l-3 50 -17 -23z"/>
<path d="M478 875 c-10 -13 -18 -30 -18 -37 0 -10 3 -9 10 2 5 8 12 11 16 8
10 -11 -5 -60 -16 -53 -6 3 -10 2 -10 -4 0 -5 5 -13 10 -16 7 -5 8 -11 1 -19
-5 -6 -10 -49 -9 -95 0 -46 4 -78 8 -72 4 7 11 11 16 9 5 -1 10 5 12 16 3 11
0 16 -7 12 -6 -4 -11 -2 -11 3 0 6 5 11 10 11 6 0 10 9 10 21 0 11 -4 18 -9
14 -19 -11 -23 38 -6 80 9 26 15 64 13 93 l-3 50 -17 -23z"/>
<path d="M798 875 c-10 -13 -18 -30 -18 -37 0 -10 3 -9 10 2 5 8 12 11 16 8
10 -11 -5 -60 -16 -53 -6 3 -10 2 -10 -4 0 -5 5 -13 10 -16 7 -5 8 -11 1 -19
-5 -6 -10 -49 -9 -95 0 -46 4 -78 8 -72 4 7 11 11 16 9 5 -1 10 5 12 16 3 11
0 16 -7 12 -6 -4 -11 -2 -11 3 0 6 5 11 10 11 6 0 10 9 10 21 0 11 -4 18 -9
14 -19 -11 -23 38 -6 80 9 26 15 64 13 93 l-3 50 -17 -23z"/>
<path d="M164 729 c-3 -6 -1 -16 5 -22 8 -8 11 -5 11 11 0 24 -5 28 -16 11z"/>
<path d="M484 729 c-3 -6 -1 -16 5 -22 8 -8 11 -5 11 11 0 24 -5 28 -16 11z"/>
<path d="M804 729 c-3 -6 -1 -16 5 -22 8 -8 11 -5 11 11 0 24 -5 28 -16 11z"/>
<path d="M158 555 c-10 -13 -18 -30 -18 -37 0 -10 3 -9 10 2 5 8 12 11 16 8
10 -11 -5 -60 -16 -53 -6 3 -10 2 -10 -4 0 -5 5 -13 10 -16 7 -5 8 -11 1 -19
-5 -6 -10 -49 -9 -95 0 -46 4 -78 8 -72 4 7 11 11 16 9 5 -1 10 5 12 16 3 11
0 16 -7 12 -6 -4 -11 -2 -11 3 0 6 5 11 10 11 6 0 10 9 10 21 0 11 -4 18 -9
14 -19 -11 -23 38 -6 80 9 26 15 64 13 93 l-3 50 -17 -23z"/>
<path d="M478 555 c-10 -13 -18 -30 -18 -37 0 -10 3 -9 10 2 5 8 12 11 16 8
10 -11 -5 -60 -16 -53 -6 3 -10 2 -10 -4 0 -5 5 -13 10 -16 7 -5 8 -11 1 -19
-5 -6 -10 -49 -9 -95 0 -46 4 -78 8 -72 4 7 11 11 16 9 5 -1 10 5 12 16 3 11
0 16 -7 12 -6 -4 -11 -2 -11 3 0 6 5 11 10 11 6 0 10 9 10 21 0 11 -4 18 -9
14 -19 -11 -23 38 -6 80 9 26 15 64 13 93 l-3 50 -17 -23z"/>
<path d="M798 555 c-10 -13 -18 -30 -18 -37 0 -10 3 -9 10 2 5 8 12 11 16 8
10 -11 -5 -60 -16 -53 -6 3 -10 2 -10 -4 0 -5 5 -13 10 -16 7 -5 8 -11 1 -19
-5 -6 -10 -49 -9 -95 0 -46 4 -78 8 -72 4 7 11 11 16 9 5 -1 10 5 12 16 3 11
0 16 -7 12 -6 -4 -11 -2 -11 3 0 6 5 11 10 11 6 0 10 9 10 21 0 11 -4 18 -9
14 -19 -11 -23 38 -6 80 9 26 15 64 13 93 l-3 50 -17 -23z"/>
<path d="M164 409 c-3 -6 -1 -16 5 -22 8 -8 11 -5 11 11 0 24 -5 28 -16 11z"/>
<path d="M484 409 c-3 -6 -1 -16 5 -22 8 -8 11 -5 11 11 0 24 -5 28 -16 11z"/>
<path d="M804 409 c-3 -6 -1 -16 5 -22 8 -8 11 -5 11 11 0 24 -5 28 -16 11z"/>
<path d="M158 235 c-10 -13 -18 -30 -18 -37 0 -10 3 -9 10 2 5 8 12 11 16 8
10 -11 -5 -60 -16 -53 -14 8 -13 -8 1 -22 8 -8 8 -13 0 -17 -12 -8 -15 -74 -5
-100 9 -23 34 -20 34 5 0 11 -4 18 -9 14 -19 -11 -23 38 -6 80 9 26 15 64 13
93 l-3 50 -17 -23z"/>
<path d="M478 235 c-10 -13 -18 -30 -18 -37 0 -10 3 -9 10 2 5 8 12 11 16 8
10 -11 -5 -60 -16 -53 -14 8 -13 -8 1 -22 8 -8 8 -13 0 -17 -12 -8 -15 -74 -5
-100 9 -23 34 -20 34 5 0 11 -4 18 -9 14 -19 -11 -23 38 -6 80 9 26 15 64 13
93 l-3 50 -17 -23z"/>
<path d="M798 235 c-10 -13 -18 -30 -18 -37 0 -10 3 -9 10 2 5 8 12 11 16 8
10 -11 -5 -60 -16 -53 -14 8 -13 -8 1 -22 8 -8 8 -13 0 -17 -12 -8 -15 -74 -5
-100 9 -23 34 -20 34 5 0 11 -4 18 -9 14 -19 -11 -23 38 -6 80 9 26 15 64 13
93 l-3 50 -17 -23z"/>
<path d="M164 89 c-3 -6 -1 -16 5 -22 8 -8 11 -5 11 11 0 24 -5 28 -16 11z"/>
<path d="M484 89 c-3 -6 -1 -16 5 -22 8 -8 11 -5 11 11 0 24 -5 28 -16 11z"/>
<path d="M804 89 c-3 -6 -1 -16 5 -22 8 -8 11 -5 11 11 0 24 -5 28 -16 11z"/>
</g>
<g transform="translate(0.000000,96.000000) scale(0.100000,-0.100000)"
fill="#c9762f" stroke="none">
<path d="M167 944 c-4 -4 -7 -14 -7 -23 0 -11 3 -12 11 -4 6 6 10 16 7 23 -2
6 -7 8 -11 4z"/>
<path d="M487 944 c-4 -4 -7 -14 -7 -23 0 -11 3 -12 11 -4 6 6 10 16 7 23 -2
6 -7 8 -11 4z"/>
<path d="M807 944 c-4 -4 -7 -14 -7 -23 0 -11 3 -12 11 -4 6 6 10 16 7 23 -2
6 -7 8 -11 4z"/>
<path d="M171 870 c-1 -3 -4 -30 -6 -60 -4 -41 -2 -51 6 -37 5 9 8 36 6 60 -2
23 -5 40 -6 37z"/>
<path d="M491 870 c-1 -3 -4 -30 -6 -60 -4 -41 -2 -51 6 -37 5 9 8 36 6 60 -2
23 -5 40 -6 37z"/>
<path d="M811 870 c-1 -3 -4 -30 -6 -60 -4 -41 -2 -51 6 -37 5 9 8 36 6 60 -2
23 -5 40 -6 37z"/>
<path d="M164 729 c-3 -6 -1 -16 5 -22 8 -8 11 -5 11 11 0 24 -5 28 -16 11z"/>
<path d="M484 729 c-3 -6 -1 -16 5 -22 8 -8 11 -5 11 11 0 24 -5 28 -16 11z"/>
<path d="M804 729 c-3 -6 -1 -16 5 -22 8 -8 11 -5 11 11 0 24 -5 28 -16 11z"/>
<path d="M165 667 c-4 -10 -5 -21 -1 -24 10 -10 18 4 13 24 -4 17 -4 17 -12 0z"/>
<path d="M485 667 c-4 -10 -5 -21 -1 -24 10 -10 18 4 13 24 -4 17 -4 17 -12 0z"/>
<path d="M805 667 c-4 -10 -5 -21 -1 -24 10 -10 18 4 13 24 -4 17 -4 17 -12 0z"/>
<path d="M167 624 c-4 -4 -7 -14 -7 -23 0 -11 3 -12 11 -4 6 6 10 16 7 23 -2
6 -7 8 -11 4z"/>
<path d="M487 624 c-4 -4 -7 -14 -7 -23 0 -11 3 -12 11 -4 6 6 10 16 7 23 -2
6 -7 8 -11 4z"/>
<path d="M807 624 c-4 -4 -7 -14 -7 -23 0 -11 3 -12 11 -4 6 6 10 16 7 23 -2
6 -7 8 -11 4z"/>
<path d="M171 550 c-1 -3 -4 -30 -6 -60 -4 -41 -2 -51 6 -37 5 9 8 36 6 60 -2
23 -5 40 -6 37z"/>
<path d="M491 550 c-1 -3 -4 -30 -6 -60 -4 -41 -2 -51 6 -37 5 9 8 36 6 60 -2
23 -5 40 -6 37z"/>
<path d="M811 550 c-1 -3 -4 -30 -6 -60 -4 -41 -2 -51 6 -37 5 9 8 36 6 60 -2
23 -5 40 -6 37z"/>
<path d="M164 409 c-3 -6 -1 -16 5 -22 8 -8 11 -5 11 11 0 24 -5 28 -16 11z"/>
<path d="M484 409 c-3 -6 -1 -16 5 -22 8 -8 11 -5 11 11 0 24 -5 28 -16 11z"/>
<path d="M804 409 c-3 -6 -1 -16 5 -22 8 -8 11 -5 11 11 0 24 -5 28 -16 11z"/>
<path d="M165 347 c-4 -10 -5 -21 -1 -24 10 -10 18 4 13 24 -4 17 -4 17 -12 0z"/>
<path d="M485 347 c-4 -10 -5 -21 -1 -24 10 -10 18 4 13 24 -4 17 -4 17 -12 0z"/>
<path d="M805 347 c-4 -10 -5 -21 -1 -24 10 -10 18 4 13 24 -4 17 -4 17 -12 0z"/>
<path d="M167 304 c-4 -4 -7 -14 -7 -23 0 -11 3 -12 11 -4 6 6 10 16 7 23 -2
6 -7 8 -11 4z"/>
<path d="M487 304 c-4 -4 -7 -14 -7 -23 0 -11 3 -12 11 -4 6 6 10 16 7 23 -2
6 -7 8 -11 4z"/>
<path d="M807 304 c-4 -4 -7 -14 -7 -23 0 -11 3 -12 11 -4 6 6 10 16 7 23 -2
6 -7 8 -11 4z"/>
<path d="M171 230 c-1 -3 -4 -30 -6 -60 -4 -41 -2 -51 6 -37 5 9 8 36 6 60 -2
23 -5 40 -6 37z"/>
<path d="M491 230 c-1 -3 -4 -30 -6 -60 -4 -41 -2 -51 6 -37 5 9 8 36 6 60 -2
23 -5 40 -6 37z"/>
<path d="M811 230 c-1 -3 -4 -30 -6 -60 -4 -41 -2 -51 6 -37 5 9 8 36 6 60 -2
23 -5 40 -6 37z"/>
<path d="M164 89 c-3 -6 -1 -16 5 -22 8 -8 11 -5 11 11 0 24 -5 28 -16 11z"/>
<path d="M484 89 c-3 -6 -1 -16 5 -22 8 -8 11 -5 11 11 0 24 -5 28 -16 11z"/>
<path d="M804 89 c-3 -6 -1 -16 5 -22 8 -8 11 -5 11 11 0 24 -5 28 -16 11z"/>
<path d="M165 27 c-4 -10 -5 -21 -1 -24 10 -10 18 4 13 24 -4 17 -4 17 -12 0z"/>
<path d="M485 27 c-4 -10 -5 -21 -1 -24 10 -10 18 4 13 24 -4 17 -4 17 -12 0z"/>
<path d="M805 27 c-4 -10 -5 -21 -1 -24 10 -10 18 4 13 24 -4 17 -4 17 -12 0z"/>
</g>
  </g>
</svg>
