<?xml version="1.0" encoding="UTF-8" standalone="no"?>
<!-- Created with Inkscape (http://www.inkscape.org/) -->

<svg
   xmlns:dc="http://purl.org/dc/elements/1.1/"
   xmlns:cc="http://creativecommons.org/ns#"
   xmlns:rdf="http://www.w3.org/1999/02/22-rdf-syntax-ns#"
   xmlns:svg="http://www.w3.org/2000/svg"
   xmlns="http://www.w3.org/2000/svg"
   xmlns:sodipodi="http://sodipodi.sourceforge.net/DTD/sodipodi-0.dtd"
   xmlns:inkscape="http://www.inkscape.org/namespaces/inkscape"
   width="32px"
   height="32px"
   viewBox="0 0 32px 32px"
   version="1.1"
   id="svgMain"
   inkscape:version="0.92.2 (5c3e80d, 2017-08-06)"
   sodipodi:docname="glass_yellow.svg">
  <defs
     id="defs4542" />
  <sodipodi:namedview
     id="base"
     pagecolor="#ffffff"
     bordercolor="#666666"
     borderopacity="1.0"
     inkscape:pageopacity="0.0"
     inkscape:pageshadow="2"
     inkscape:zoom="4"
     inkscape:cx="-34.980447"
     inkscape:cy="9.7340187"
     inkscape:document-units="px"
     inkscape:current-layer="layer1"
     showgrid="false"
     units="px"
     inkscape:window-width="1680"
     inkscape:window-height="987"
     inkscape:window-x="-8"
     inkscape:window-y="-8"
     inkscape:window-maximized="1" />
  <metadata
     id="metadata1">
    <rdf:RDF>
      <cc:Work
         rdf:about="">
        <dc:format>image/svg+xml</dc:format>
        <dc:type
           rdf:resource="http://purl.org/dc/dcmitype/StillImage" />
        <dc:title />
      </cc:Work>
    </rdf:RDF>
  </metadata>
  <g
     transform="translate(-32,-32)"
     inkscape:label="Layer 1"
     inkscape:groupmode="layer"
     id="layer1">
    <!-- INSERT MARKER -->
    <g
       transform="translate(0.000000,96.000000) scale(0.100000,-0.100000)"
       fill="#e5e533"
       stroke="none"
       id="g37138">
      <path
         d="M0 480 l0 -480 480 0 480 0 0 480 0 480 -480 0 -480 0 0 -480z m180 423 l-45 -48 50 48 c42 39 57 47 88 47 l37 0 0 -77 0 -77 -57 -61 -58 -60 58 55 57 54 0 -67 0 -67 -107 0 -107 0 54 58 55 57 -60 -57 c-52 -49 -66 -58 -98 -58 l-37 0 0 150 0 150 107 0 107 0 -44 -47z m320 0 l-45 -48 50 48 c42 39 57 47 88 47 l37 0 0 -77 0 -77 -57 -61 -58 -60 58 55 57 54 0 -67 0 -67 -107 0 -107 0 54 58 55 57 -60 -57 c-52 -49 -66 -58 -98 -58 l-37 0 0 150 0 150 107 0 107 0 -44 -47z m320 0 l-45 -48 50 48 c42 39 57 47 88 47 l37 0 0 -77 0 -77 -57 -61 -58 -60 58 55 57 54 0 -67 0 -67 -107 0 -107 0 54 58 55 57 -60 -57 c-52 -49 -66 -58 -98 -58 l-37 0 0 150 0 150 107 0 107 0 -44 -47z m-640 -320 l-45 -48 50 48 c42 39 57 47 88 47 l37 0 0 -77 0 -77 -57 -61 -58 -60 58 55 57 54 0 -67 0 -67 -107 0 -107 0 54 58 55 57 -60 -57 c-52 -49 -66 -58 -98 -58 l-37 0 0 150 0 150 107 0 107 0 -44 -47z m320 0 l-45 -48 50 48 c42 39 57 47 88 47 l37 0 0 -77 0 -77 -57 -61 -58 -60 58 55 57 54 0 -67 0 -67 -107 0 -107 0 54 58 55 57 -60 -57 c-52 -49 -66 -58 -98 -58 l-37 0 0 150 0 150 107 0 107 0 -44 -47z m320 0 l-45 -48 50 48 c42 39 57 47 88 47 l37 0 0 -77 0 -77 -57 -61 -58 -60 58 55 57 54 0 -67 0 -67 -107 0 -107 0 54 58 55 57 -60 -57 c-52 -49 -66 -58 -98 -58 l-37 0 0 150 0 150 107 0 107 0 -44 -47z m-640 -320 l-45 -48 50 48 c42 39 57 47 88 47 l37 0 0 -77 0 -77 -57 -61 -58 -60 58 55 57 54 0 -67 0 -67 -107 0 -107 0 54 58 55 57 -60 -58 c-52 -48 -66 -57 -98 -57 l-37 0 0 150 0 150 107 0 107 0 -44 -47z m320 0 l-45 -48 50 48 c42 39 57 47 88 47 l37 0 0 -77 0 -77 -57 -61 -58 -60 58 55 57 54 0 -67 0 -67 -107 0 -107 0 54 58 55 57 -60 -58 c-52 -48 -66 -57 -98 -57 l-37 0 0 150 0 150 107 0 107 0 -44 -47z m320 0 l-45 -48 50 48 c42 39 57 47 88 47 l37 0 0 -77 0 -77 -57 -61 -58 -60 58 55 57 54 0 -67 0 -67 -107 0 -107 0 54 58 55 57 -60 -58 c-52 -48 -66 -57 -98 -57 l-37 0 0 150 0 150 107 0 107 0 -44 -47z"
         id="path37064" />
      <path
         d="M75 858 l-40 -43 43 40 c23 21 42 40 42 42 0 8 -9 0 -45 -39z"
         id="path37066" />
      <path
         d="M244 868 l-29 -33 33 29 c30 28 37 36 29 36 -2 0 -16 -15 -33 -32z"
         id="path37068" />
      <path
         d="M84 788 l-29 -33 33 29 c30 28 37 36 29 36 -2 0 -16 -15 -33 -32z"
         id="path37070" />
      <path
         d="M224 788 c-4 -7 -3 -8 4 -4 12 7 16 16 8 16 -3 0 -8 -5 -12 -12z"
         id="path37072" />
      <path
         d="M395 858 l-40 -43 43 40 c23 21 42 40 42 42 0 8 -9 0 -45 -39z"
         id="path37074" />
      <path
         d="M564 868 l-29 -33 33 29 c30 28 37 36 29 36 -2 0 -16 -15 -33 -32z"
         id="path37076" />
      <path
         d="M404 788 l-29 -33 33 29 c30 28 37 36 29 36 -2 0 -16 -15 -33 -32z"
         id="path37078" />
      <path
         d="M544 788 c-4 -7 -3 -8 4 -4 12 7 16 16 8 16 -3 0 -8 -5 -12 -12z"
         id="path37080" />
      <path
         d="M715 858 l-40 -43 43 40 c23 21 42 40 42 42 0 8 -9 0 -45 -39z"
         id="path37082" />
      <path
         d="M884 868 l-29 -33 33 29 c30 28 37 36 29 36 -2 0 -16 -15 -33 -32z"
         id="path37084" />
      <path
         d="M724 788 l-29 -33 33 29 c30 28 37 36 29 36 -2 0 -16 -15 -33 -32z"
         id="path37086" />
      <path
         d="M864 788 c-4 -7 -3 -8 4 -4 12 7 16 16 8 16 -3 0 -8 -5 -12 -12z"
         id="path37088" />
      <path
         d="M75 538 l-40 -43 43 40 c39 36 47 45 39 45 -2 0 -21 -19 -42 -42z"
         id="path37090" />
      <path
         d="M244 548 l-29 -33 33 29 c30 28 37 36 29 36 -2 0 -16 -15 -33 -32z"
         id="path37092" />
      <path
         d="M84 468 l-29 -33 33 29 c30 28 37 36 29 36 -2 0 -16 -15 -33 -32z"
         id="path37094" />
      <path
         d="M224 468 c-4 -7 -3 -8 4 -4 12 7 16 16 8 16 -3 0 -8 -5 -12 -12z"
         id="path37096" />
      <path
         d="M395 538 l-40 -43 43 40 c39 36 47 45 39 45 -2 0 -21 -19 -42 -42z"
         id="path37098" />
      <path
         d="M564 548 l-29 -33 33 29 c30 28 37 36 29 36 -2 0 -16 -15 -33 -32z"
         id="path37100" />
      <path
         d="M404 468 l-29 -33 33 29 c30 28 37 36 29 36 -2 0 -16 -15 -33 -32z"
         id="path37102" />
      <path
         d="M544 468 c-4 -7 -3 -8 4 -4 7 4 12 9 12 12 0 8 -9 4 -16 -8z"
         id="path37104" />
      <path
         d="M715 538 l-40 -43 43 40 c39 36 47 45 39 45 -2 0 -21 -19 -42 -42z"
         id="path37106" />
      <path
         d="M884 548 l-29 -33 33 29 c17 17 32 31 32 33 0 8 -8 1 -36 -29z"
         id="path37108" />
      <path
         d="M724 468 l-29 -33 33 29 c17 17 32 31 32 33 0 8 -8 1 -36 -29z"
         id="path37110" />
      <path
         d="M864 468 c-4 -7 -3 -8 4 -4 7 4 12 9 12 12 0 8 -9 4 -16 -8z"
         id="path37112" />
      <path
         d="M75 218 l-40 -43 43 40 c39 36 47 45 39 45 -2 0 -21 -19 -42 -42z"
         id="path37114" />
      <path
         d="M244 228 l-29 -33 33 29 c17 17 32 31 32 33 0 8 -8 1 -36 -29z"
         id="path37116" />
      <path
         d="M84 148 l-29 -33 33 29 c17 17 32 31 32 33 0 8 -8 1 -36 -29z"
         id="path37118" />
      <path
         d="M224 148 c-4 -7 -3 -8 4 -4 7 4 12 9 12 12 0 8 -9 4 -16 -8z"
         id="path37120" />
      <path
         d="M395 218 l-40 -43 43 40 c39 36 47 45 39 45 -2 0 -21 -19 -42 -42z"
         id="path37122" />
      <path
         d="M564 228 l-29 -33 33 29 c17 17 32 31 32 33 0 8 -8 1 -36 -29z"
         id="path37124" />
      <path
         d="M404 148 l-29 -33 33 29 c30 28 37 36 29 36 -2 0 -16 -15 -33 -32z"
         id="path37126" />
      <path
         d="M544 148 c-4 -7 -3 -8 4 -4 7 4 12 9 12 12 0 8 -9 4 -16 -8z"
         id="path37128" />
      <path
         d="M715 218 l-40 -43 43 40 c39 36 47 45 39 45 -2 0 -21 -19 -42 -42z"
         id="path37130" />
      <path
         d="M884 228 l-29 -33 33 29 c17 17 32 31 32 33 0 8 -8 1 -36 -29z"
         id="path37132" />
      <path
         d="M724 148 l-29 -33 33 29 c30 28 37 36 29 36 -2 0 -16 -15 -33 -32z"
         id="path37134" />
      <path
         d="M864 148 c-4 -7 -3 -8 4 -4 7 4 12 9 12 12 0 8 -9 4 -16 -8z"
         id="path37136" />
    </g>
    <rect
       style="opacity:1;fill:#ffff00;fill-opacity:0.40000001;stroke:none;stroke-width:0.25;stroke-linecap:butt;stroke-linejoin:bevel;stroke-miterlimit:4;stroke-dasharray:none;stroke-opacity:1"
       id="rect28149"
       width="30"
       height="30"
       x="33"
       y="33"
       ry="0" />
  </g>
</svg>
