<?xml version="1.0" encoding="UTF-8" standalone="no"?>
<!-- Created with Inkscape (http://www.inkscape.org/) -->

<svg
   xmlns:dc="http://purl.org/dc/elements/1.1/"
   xmlns:cc="http://creativecommons.org/ns#"
   xmlns:rdf="http://www.w3.org/1999/02/22-rdf-syntax-ns#"
   xmlns:svg="http://www.w3.org/2000/svg"
   xmlns="http://www.w3.org/2000/svg"
   xmlns:sodipodi="http://sodipodi.sourceforge.net/DTD/sodipodi-0.dtd"
   xmlns:inkscape="http://www.inkscape.org/namespaces/inkscape"
   width="32px"
   height="32px"
   viewBox="0 0 32px 32px"
   version="1.1"
   id="svgMain"
   inkscape:version="0.92.2 (5c3e80d, 2017-08-06)"
   sodipodi:docname="glass_light_blue.svg">
  <defs
     id="defs4542" />
  <sodipodi:namedview
     id="base"
     pagecolor="#ffffff"
     bordercolor="#666666"
     borderopacity="1.0"
     inkscape:pageopacity="0.0"
     inkscape:pageshadow="2"
     inkscape:zoom="4"
     inkscape:cx="-25.764196"
     inkscape:cy="13.876154"
     inkscape:document-units="px"
     inkscape:current-layer="layer1"
     showgrid="false"
     units="px"
     inkscape:window-width="1680"
     inkscape:window-height="987"
     inkscape:window-x="-8"
     inkscape:window-y="-8"
     inkscape:window-maximized="1" />
  <metadata
     id="metadata1">
    <rdf:RDF>
      <cc:Work
         rdf:about="">
        <dc:format>image/svg+xml</dc:format>
        <dc:type
           rdf:resource="http://purl.org/dc/dcmitype/StillImage" />
        <dc:title />
      </cc:Work>
    </rdf:RDF>
  </metadata>
  <g
     transform="translate(-32,-32)"
     inkscape:label="Layer 1"
     inkscape:groupmode="layer"
     id="layer1">
    <!-- INSERT MARKER -->
    <g
       transform="translate(0.000000,96.000000) scale(0.100000,-0.100000)"
       fill="#6699d8"
       stroke="none"
       id="g31468">
      <path
         d="M0 480 l0 -480 480 0 480 0 0 480 0 480 -480 0 -480 0 0 -480z m180 423 l-45 -48 50 48 c42 39 57 47 88 47 l37 0 0 -77 0 -77 -57 -61 -58 -60 58 55 57 54 0 -67 0 -67 -107 0 -107 0 54 58 55 57 -60 -57 c-52 -49 -66 -58 -98 -58 l-37 0 0 150 0 150 107 0 107 0 -44 -47z m320 0 l-45 -48 50 48 c42 39 57 47 88 47 l37 0 0 -77 0 -77 -57 -61 -58 -60 58 55 57 54 0 -67 0 -67 -107 0 -107 0 54 58 55 57 -60 -57 c-52 -49 -66 -58 -98 -58 l-37 0 0 150 0 150 107 0 107 0 -44 -47z m320 0 l-45 -48 50 48 c42 39 57 47 88 47 l37 0 0 -77 0 -77 -57 -61 -58 -60 58 55 57 54 0 -67 0 -67 -107 0 -107 0 54 58 55 57 -60 -57 c-52 -49 -66 -58 -98 -58 l-37 0 0 150 0 150 107 0 107 0 -44 -47z m-640 -320 l-45 -48 50 48 c42 39 57 47 88 47 l37 0 0 -77 0 -77 -57 -61 -58 -60 58 55 57 54 0 -67 0 -67 -107 0 -107 0 54 58 55 57 -60 -57 c-52 -49 -66 -58 -98 -58 l-37 0 0 150 0 150 107 0 107 0 -44 -47z m320 0 l-45 -48 50 48 c42 39 57 47 88 47 l37 0 0 -77 0 -77 -57 -61 -58 -60 58 55 57 54 0 -67 0 -67 -107 0 -107 0 54 58 55 57 -60 -57 c-52 -49 -66 -58 -98 -58 l-37 0 0 150 0 150 107 0 107 0 -44 -47z m320 0 l-45 -48 50 48 c42 39 57 47 88 47 l37 0 0 -77 0 -77 -57 -61 -58 -60 58 55 57 54 0 -67 0 -67 -107 0 -107 0 54 58 55 57 -60 -57 c-52 -49 -66 -58 -98 -58 l-37 0 0 150 0 150 107 0 107 0 -44 -47z m-640 -320 l-45 -48 50 48 c42 39 57 47 88 47 l37 0 0 -77 0 -77 -57 -61 -58 -60 58 55 57 54 0 -67 0 -67 -107 0 -107 0 54 58 55 57 -60 -58 c-52 -48 -66 -57 -98 -57 l-37 0 0 150 0 150 107 0 107 0 -44 -47z m320 0 l-45 -48 50 48 c42 39 57 47 88 47 l37 0 0 -77 0 -77 -57 -61 -58 -60 58 55 57 54 0 -67 0 -67 -107 0 -107 0 54 58 55 57 -60 -58 c-52 -48 -66 -57 -98 -57 l-37 0 0 150 0 150 107 0 107 0 -44 -47z m320 0 l-45 -48 50 48 c42 39 57 47 88 47 l37 0 0 -77 0 -77 -57 -61 -58 -60 58 55 57 54 0 -67 0 -67 -107 0 -107 0 54 58 55 57 -60 -58 c-52 -48 -66 -57 -98 -57 l-37 0 0 150 0 150 107 0 107 0 -44 -47z"
         id="path31394" />
      <path
         d="M75 858 l-40 -43 43 40 c23 21 42 40 42 42 0 8 -9 0 -45 -39z"
         id="path31396" />
      <path
         d="M244 868 l-29 -33 33 29 c30 28 37 36 29 36 -2 0 -16 -15 -33 -32z"
         id="path31398" />
      <path
         d="M84 788 l-29 -33 33 29 c30 28 37 36 29 36 -2 0 -16 -15 -33 -32z"
         id="path31400" />
      <path
         d="M224 788 c-4 -7 -3 -8 4 -4 12 7 16 16 8 16 -3 0 -8 -5 -12 -12z"
         id="path31402" />
      <path
         d="M395 858 l-40 -43 43 40 c23 21 42 40 42 42 0 8 -9 0 -45 -39z"
         id="path31404" />
      <path
         d="M564 868 l-29 -33 33 29 c30 28 37 36 29 36 -2 0 -16 -15 -33 -32z"
         id="path31406" />
      <path
         d="M404 788 l-29 -33 33 29 c30 28 37 36 29 36 -2 0 -16 -15 -33 -32z"
         id="path31408" />
      <path
         d="M544 788 c-4 -7 -3 -8 4 -4 12 7 16 16 8 16 -3 0 -8 -5 -12 -12z"
         id="path31410" />
      <path
         d="M715 858 l-40 -43 43 40 c23 21 42 40 42 42 0 8 -9 0 -45 -39z"
         id="path31412" />
      <path
         d="M884 868 l-29 -33 33 29 c30 28 37 36 29 36 -2 0 -16 -15 -33 -32z"
         id="path31414" />
      <path
         d="M724 788 l-29 -33 33 29 c30 28 37 36 29 36 -2 0 -16 -15 -33 -32z"
         id="path31416" />
      <path
         d="M864 788 c-4 -7 -3 -8 4 -4 12 7 16 16 8 16 -3 0 -8 -5 -12 -12z"
         id="path31418" />
      <path
         d="M75 538 l-40 -43 43 40 c39 36 47 45 39 45 -2 0 -21 -19 -42 -42z"
         id="path31420" />
      <path
         d="M244 548 l-29 -33 33 29 c30 28 37 36 29 36 -2 0 -16 -15 -33 -32z"
         id="path31422" />
      <path
         d="M84 468 l-29 -33 33 29 c30 28 37 36 29 36 -2 0 -16 -15 -33 -32z"
         id="path31424" />
      <path
         d="M224 468 c-4 -7 -3 -8 4 -4 12 7 16 16 8 16 -3 0 -8 -5 -12 -12z"
         id="path31426" />
      <path
         d="M395 538 l-40 -43 43 40 c39 36 47 45 39 45 -2 0 -21 -19 -42 -42z"
         id="path31428" />
      <path
         d="M564 548 l-29 -33 33 29 c30 28 37 36 29 36 -2 0 -16 -15 -33 -32z"
         id="path31430" />
      <path
         d="M404 468 l-29 -33 33 29 c30 28 37 36 29 36 -2 0 -16 -15 -33 -32z"
         id="path31432" />
      <path
         d="M544 468 c-4 -7 -3 -8 4 -4 7 4 12 9 12 12 0 8 -9 4 -16 -8z"
         id="path31434" />
      <path
         d="M715 538 l-40 -43 43 40 c39 36 47 45 39 45 -2 0 -21 -19 -42 -42z"
         id="path31436" />
      <path
         d="M884 548 l-29 -33 33 29 c17 17 32 31 32 33 0 8 -8 1 -36 -29z"
         id="path31438" />
      <path
         d="M724 468 l-29 -33 33 29 c17 17 32 31 32 33 0 8 -8 1 -36 -29z"
         id="path31440" />
      <path
         d="M864 468 c-4 -7 -3 -8 4 -4 7 4 12 9 12 12 0 8 -9 4 -16 -8z"
         id="path31442" />
      <path
         d="M75 218 l-40 -43 43 40 c39 36 47 45 39 45 -2 0 -21 -19 -42 -42z"
         id="path31444" />
      <path
         d="M244 228 l-29 -33 33 29 c17 17 32 31 32 33 0 8 -8 1 -36 -29z"
         id="path31446" />
      <path
         d="M84 148 l-29 -33 33 29 c17 17 32 31 32 33 0 8 -8 1 -36 -29z"
         id="path31448" />
      <path
         d="M224 148 c-4 -7 -3 -8 4 -4 7 4 12 9 12 12 0 8 -9 4 -16 -8z"
         id="path31450" />
      <path
         d="M395 218 l-40 -43 43 40 c39 36 47 45 39 45 -2 0 -21 -19 -42 -42z"
         id="path31452" />
      <path
         d="M564 228 l-29 -33 33 29 c17 17 32 31 32 33 0 8 -8 1 -36 -29z"
         id="path31454" />
      <path
         d="M404 148 l-29 -33 33 29 c30 28 37 36 29 36 -2 0 -16 -15 -33 -32z"
         id="path31456" />
      <path
         d="M544 148 c-4 -7 -3 -8 4 -4 7 4 12 9 12 12 0 8 -9 4 -16 -8z"
         id="path31458" />
      <path
         d="M715 218 l-40 -43 43 40 c39 36 47 45 39 45 -2 0 -21 -19 -42 -42z"
         id="path31460" />
      <path
         d="M884 228 l-29 -33 33 29 c17 17 32 31 32 33 0 8 -8 1 -36 -29z"
         id="path31462" />
      <path
         d="M724 148 l-29 -33 33 29 c30 28 37 36 29 36 -2 0 -16 -15 -33 -32z"
         id="path31464" />
      <path
         d="M864 148 c-4 -7 -3 -8 4 -4 7 4 12 9 12 12 0 8 -9 4 -16 -8z"
         id="path31466" />
    </g>
    <rect
       style="opacity:1;fill:#6699d8;fill-opacity:0.40000001;stroke:none;stroke-width:0.25;stroke-linecap:butt;stroke-linejoin:bevel;stroke-miterlimit:4;stroke-dasharray:none;stroke-opacity:1"
       id="rect28149"
       width="30"
       height="30"
       x="33"
       y="33"
       ry="0" />
  </g>
</svg>
