<?xml version="1.0" encoding="UTF-8" standalone="no"?>
<!-- Created with Inkscape (http://www.inkscape.org/) -->

<svg
   xmlns:dc="http://purl.org/dc/elements/1.1/"
   xmlns:cc="http://creativecommons.org/ns#"
   xmlns:rdf="http://www.w3.org/1999/02/22-rdf-syntax-ns#"
   xmlns:svg="http://www.w3.org/2000/svg"
   xmlns="http://www.w3.org/2000/svg"
   xmlns:sodipodi="http://sodipodi.sourceforge.net/DTD/sodipodi-0.dtd"
   xmlns:inkscape="http://www.inkscape.org/namespaces/inkscape"
   width="32px"
   height="32px"
   viewBox="0 0 32px 32px"
   version="1.1"
   id="svgMain"
   inkscape:version="0.92.2 (5c3e80d, 2017-08-06)"
   sodipodi:docname="reference_SVG.svg">
  <defs
     id="defs4542" />
  <sodipodi:namedview
     id="base"
     pagecolor="#ffffff"
     bordercolor="#666666"
     borderopacity="1.0"
     inkscape:pageopacity="0.0"
     inkscape:pageshadow="2"
     inkscape:zoom="1"
     inkscape:cx="0"
     inkscape:cy="0"
     inkscape:document-units="px"
     inkscape:current-layer="layer1"
     showgrid="false"
     units="px"
     inkscape:window-width="1024"
     inkscape:window-height="768"
     inkscape:window-x="-8"
     inkscape:window-y="-8"
     inkscape:window-maximized="1" />
  <metadata
     id="metadata1">
    <rdf:RDF>
      <cc:Work
         rdf:about="">
        <dc:format>image/svg+xml</dc:format>
        <dc:type
           rdf:resource="http://purl.org/dc/dcmitype/StillImage" />
        <dc:title />
      </cc:Work>
    </rdf:RDF>
  </metadata>
  <g transform="translate(-32,-32)"
     inkscape:label="Layer 1"
     inkscape:groupmode="layer"
     id="layer1">
    <!-- INSERT MARKER -->
<g transform="translate(0.000000,96.000000) scale(0.100000,-0.100000)"
fill="#ce4b44" stroke="none">
<path d="M0 480 l0 -480 480 0 480 0 0 480 0 480 -480 0 -480 0 0 -480z"/>
</g>
<g transform="translate(0.000000,96.000000) scale(0.100000,-0.100000)"
fill="#b02e26" stroke="none">
<path d="M0 828 c0 -130 0 -132 28 -162 l27 -31 -28 24 -27 24 0 -153 c0 -154
0 -154 28 -184 l27 -31 -28 24 -27 24 0 -154 0 -155 30 -29 c36 -35 53 -25 19
11 l-24 26 27 -12 c31 -15 90 -6 113 16 20 21 20 98 -1 118 -19 20 -78 21 -93
2 -7 -8 -11 -27 -9 -43 2 -22 8 -28 28 -28 18 0 24 5 22 18 -3 18 13 23 23 7
11 -18 -5 -48 -28 -54 -25 -6 -61 14 -77 44 -15 27 11 75 51 96 26 13 36 13
60 3 38 -15 79 -64 79 -94 0 -42 -31 -92 -69 -111 l-36 -19 47 -3 c43 -3 52 1
82 30 19 18 36 46 38 61 3 26 4 27 23 13 19 -14 19 -16 -25 -60 l-44 -46 64 0
63 0 -24 27 c-23 27 -23 27 8 -1 39 -35 57 -27 22 10 l-24 26 27 -12 c31 -15
90 -6 113 16 20 21 20 98 -1 118 -19 20 -78 21 -93 2 -7 -8 -11 -27 -9 -43 2
-22 8 -28 28 -28 18 0 24 5 22 18 -3 18 13 23 23 7 11 -18 -5 -48 -28 -54 -25
-6 -61 14 -77 44 -15 27 11 75 51 96 26 13 36 13 60 3 38 -15 79 -64 79 -94 0
-42 -31 -92 -69 -111 l-36 -19 47 -3 c43 -3 52 1 82 30 19 18 36 46 38 61 3
26 4 27 23 13 19 -14 19 -16 -25 -60 l-44 -46 64 0 63 0 -24 28 c-23 26 -23
26 8 -2 39 -35 57 -27 22 10 l-24 26 27 -12 c31 -15 90 -6 113 16 20 21 20 98
-1 118 -19 20 -78 21 -93 2 -7 -8 -11 -27 -9 -43 2 -22 8 -28 28 -28 18 0 24
5 22 18 -3 18 13 23 23 7 11 -18 -5 -48 -28 -54 -25 -6 -61 14 -77 44 -15 27
11 75 51 96 26 13 36 13 60 3 38 -15 79 -64 79 -94 0 -42 -31 -92 -69 -111
l-36 -19 47 -3 c43 -3 52 0 83 31 23 22 35 43 35 61 0 24 2 25 20 16 19 -10
20 -8 20 45 l0 55 -44 12 c-44 12 -44 12 -48 62 -3 45 0 54 24 76 18 16 28 34
28 53 0 25 2 27 20 17 19 -10 20 -8 20 45 l0 55 -44 12 c-44 12 -44 12 -48 62
-3 45 0 54 24 76 18 16 28 34 28 53 0 25 2 27 20 17 19 -10 20 -8 20 45 l0 55
-45 12 c-44 12 -45 13 -45 55 l0 43 -145 0 c-90 0 -145 -4 -145 -10 0 -13 37
-50 50 -50 6 0 10 -12 10 -26 0 -21 -4 -25 -17 -19 -10 3 -30 9 -45 12 -25 5
-28 10 -28 49 l0 44 -145 0 c-90 0 -145 -4 -145 -10 0 -13 37 -50 50 -50 6 0
10 -12 10 -26 0 -21 -4 -25 -17 -19 -10 3 -30 9 -45 12 -25 5 -28 10 -28 49
l0 44 -115 0 -115 0 0 -132z m150 37 c37 -19 70 -62 70 -91 0 -43 -30 -89 -73
-112 -54 -28 -67 -27 -95 9 l-24 29 25 -11 c30 -14 90 -5 112 17 20 21 20 98
-1 118 -19 20 -78 21 -93 2 -7 -8 -11 -27 -9 -43 2 -22 8 -28 28 -28 18 0 24
5 22 18 -3 18 13 23 23 7 11 -18 -5 -48 -28 -54 -25 -6 -61 14 -77 44 -14 26
10 74 48 94 34 19 37 19 72 1z m320 0 c37 -19 70 -62 70 -91 0 -43 -30 -89
-73 -112 -54 -28 -67 -27 -95 9 l-24 29 25 -11 c30 -14 90 -5 112 17 20 21 20
98 -1 118 -19 20 -78 21 -93 2 -7 -8 -11 -27 -9 -43 2 -22 8 -28 28 -28 18 0
24 5 22 18 -3 18 13 23 23 7 11 -18 -5 -48 -28 -54 -25 -6 -61 14 -77 44 -14
26 10 74 48 94 34 19 37 19 72 1z m320 0 c37 -19 70 -62 70 -91 0 -43 -30 -89
-73 -112 -54 -28 -67 -27 -95 9 l-24 29 25 -11 c30 -14 90 -5 112 17 20 21 20
98 -1 118 -19 20 -78 21 -93 2 -7 -8 -11 -27 -9 -43 2 -22 8 -28 28 -28 18 0
24 5 22 18 -3 18 13 23 23 7 11 -18 -5 -48 -28 -54 -25 -6 -61 14 -77 44 -14
26 10 74 48 94 34 19 37 19 72 1z m-470 -132 c0 -4 -19 -27 -42 -50 -23 -24
-37 -43 -31 -43 7 0 15 -9 18 -21 4 -11 18 -25 31 -31 29 -14 36 -65 7 -53
-10 3 -30 9 -45 12 -24 5 -27 10 -30 57 -3 45 -1 54 24 76 18 16 28 34 28 53
0 25 2 27 20 17 11 -6 20 -14 20 -17z m320 0 c0 -4 -19 -27 -42 -50 -23 -24
-37 -43 -31 -43 7 0 15 -9 18 -21 4 -11 18 -25 31 -31 29 -14 36 -65 7 -53
-10 3 -30 9 -45 12 -24 5 -27 10 -30 57 -3 45 -1 54 24 76 18 16 28 34 28 53
0 25 2 27 20 17 11 -6 20 -14 20 -17z m-290 -68 c13 -14 21 -25 18 -25 -2 0
-15 11 -28 25 -13 14 -21 25 -18 25 2 0 15 -11 28 -25z m320 0 c13 -14 21 -25
18 -25 -2 0 -15 11 -28 25 -13 14 -21 25 -18 25 2 0 15 -11 28 -25z m-520
-120 c37 -19 70 -62 70 -91 0 -43 -30 -89 -73 -112 -54 -28 -67 -27 -95 9
l-24 29 25 -11 c30 -14 90 -5 112 17 20 21 20 98 -1 118 -19 20 -78 21 -93 2
-7 -8 -11 -27 -9 -43 2 -22 8 -28 28 -28 18 0 24 5 22 18 -3 18 13 23 23 7 11
-18 -5 -48 -28 -54 -25 -6 -61 14 -77 44 -14 26 10 74 48 94 34 19 37 19 72 1z
m320 0 c37 -19 70 -62 70 -91 0 -43 -30 -89 -73 -112 -54 -28 -67 -27 -95 9
l-24 29 25 -11 c30 -14 90 -5 112 17 20 21 20 98 -1 118 -19 20 -78 21 -93 2
-7 -8 -11 -27 -9 -43 2 -22 8 -28 28 -28 18 0 24 5 22 18 -3 18 13 23 23 7 11
-18 -5 -48 -28 -54 -25 -6 -61 14 -77 44 -14 26 10 74 48 94 34 19 37 19 72 1z
m320 0 c37 -19 70 -62 70 -91 0 -43 -30 -89 -73 -112 -54 -28 -67 -27 -95 9
l-24 29 25 -11 c30 -14 90 -5 112 17 20 21 20 98 -1 118 -19 20 -78 21 -93 2
-7 -8 -11 -27 -9 -43 2 -22 8 -28 28 -28 18 0 24 5 22 18 -3 18 13 23 23 7 11
-18 -5 -48 -28 -54 -25 -6 -61 14 -77 44 -14 26 10 74 48 94 34 19 37 19 72 1z
m-470 -132 c0 -4 -19 -27 -42 -50 -23 -24 -37 -43 -31 -43 7 0 15 -9 18 -21 4
-11 18 -25 31 -31 29 -14 36 -65 7 -53 -10 3 -30 9 -45 12 -24 5 -27 10 -30
57 -3 45 -1 54 24 76 18 16 28 34 28 53 0 25 2 27 20 17 11 -6 20 -14 20 -17z
m320 0 c0 -4 -19 -27 -42 -50 -23 -24 -37 -43 -31 -43 7 0 15 -9 18 -21 4 -11
18 -25 31 -31 29 -14 36 -65 7 -53 -10 3 -30 9 -45 12 -24 5 -27 10 -30 57 -3
45 -1 54 24 76 18 16 28 34 28 53 0 25 2 27 20 17 11 -6 20 -14 20 -17z m-290
-68 c13 -14 21 -25 18 -25 -2 0 -15 11 -28 25 -13 14 -21 25 -18 25 2 0 15
-11 28 -25z m320 0 c13 -14 21 -25 18 -25 -2 0 -15 11 -28 25 -13 14 -21 25
-18 25 2 0 15 -11 28 -25z"/>
<path d="M900 950 c0 -5 9 -19 20 -30 28 -28 40 -25 40 10 0 27 -3 30 -30 30
-16 0 -30 -4 -30 -10z"/>
<path d="M918 683 c-25 -27 -33 -41 -26 -49 37 -42 49 -54 58 -54 6 0 10 30
10 70 0 39 -1 70 -3 70 -2 0 -19 -17 -39 -37z"/>
<path d="M918 363 c-25 -27 -33 -41 -26 -49 37 -42 49 -54 58 -54 6 0 10 30
10 70 0 39 -1 70 -3 70 -2 0 -19 -17 -39 -37z"/>
<path d="M915 40 l-39 -40 42 0 42 0 0 40 c0 22 -1 40 -3 40 -2 0 -21 -18 -42
-40z"/>
<path d="M0 20 c0 -14 7 -20 22 -20 20 0 21 1 3 20 -10 11 -20 20 -22 20 -1 0
-3 -9 -3 -20z"/>
</g>
<g transform="translate(0.000000,96.000000) scale(0.100000,-0.100000)"
fill="#a82b24" stroke="none">
<path d="M0 945 c0 -8 5 -15 11 -15 8 0 9 -11 4 -32 -4 -18 -8 -62 -9 -98 -1
-62 0 -65 31 -86 18 -12 31 -23 28 -25 -2 -2 9 -4 25 -4 15 0 26 4 22 9 -3 5
4 7 15 4 35 -9 46 6 46 66 -1 31 -3 59 -6 62 -10 11 -85 9 -84 -1 1 -5 -2 -9
-8 -8 -5 1 -10 -13 -9 -30 1 -26 5 -31 25 -31 17 0 23 5 21 17 -3 18 13 23 23
7 11 -17 -5 -48 -27 -53 -26 -7 -53 6 -74 38 -14 21 -14 26 1 54 22 44 69 66
106 50 38 -15 79 -64 79 -94 0 -44 -30 -90 -73 -113 -23 -12 -49 -22 -57 -22
-8 0 -31 22 -50 47 -27 35 -36 42 -38 29 -2 -10 9 -31 24 -47 l28 -29 -27 0
c-17 0 -27 -5 -27 -15 0 -8 5 -15 11 -15 8 0 9 -11 4 -32 -4 -18 -8 -62 -9
-98 -1 -62 0 -65 31 -86 18 -12 31 -23 28 -25 -2 -2 9 -4 25 -4 15 0 26 4 22
9 -3 5 4 7 15 4 35 -9 45 6 46 66 0 31 -3 59 -6 62 -10 11 -85 9 -84 -1 1 -5
-2 -9 -8 -8 -5 1 -10 -13 -9 -30 1 -26 5 -31 25 -31 17 0 23 5 21 17 -3 18 13
23 23 7 11 -18 -5 -48 -28 -54 -25 -6 -61 14 -77 44 -15 27 11 75 51 96 38 19
77 7 114 -38 29 -34 31 -64 9 -111 -16 -32 -82 -77 -114 -77 -8 0 -31 22 -50
47 -27 35 -36 42 -38 29 -2 -10 9 -31 24 -47 l28 -29 -27 0 c-17 0 -27 -5 -27
-15 0 -8 5 -15 11 -15 8 0 9 -11 4 -33 -4 -17 -8 -61 -9 -97 -1 -62 0 -65 31
-86 18 -12 31 -23 28 -25 -2 -2 9 -4 25 -4 15 0 26 4 22 9 -3 5 4 7 15 4 35
-9 45 6 46 66 0 31 -3 59 -6 62 -10 11 -85 9 -84 -1 1 -5 -2 -9 -8 -8 -5 1
-10 -13 -9 -30 1 -26 5 -31 25 -31 17 0 23 5 21 17 -3 18 13 23 23 7 11 -18
-5 -48 -28 -54 -25 -6 -61 14 -77 44 -15 27 11 75 51 96 26 13 36 13 60 3 38
-15 79 -64 79 -94 0 -40 -31 -93 -62 -106 -38 -16 -45 -29 -15 -29 39 0 89 82
85 137 -4 48 3 51 59 31 21 -8 33 -19 33 -30 0 -15 -3 -17 -19 -8 -29 15 -31
13 -31 -21 0 -22 -10 -40 -37 -65 -20 -19 -33 -37 -30 -40 11 -11 75 61 79 89
l3 28 52 -34 c29 -19 51 -36 49 -38 -3 -2 8 -4 24 -4 15 0 26 4 22 9 -3 5 4 7
15 4 35 -9 46 6 46 66 0 31 -3 59 -6 62 -10 11 -85 9 -84 -1 1 -5 -2 -9 -8 -8
-5 1 -10 -13 -9 -30 1 -26 5 -31 25 -31 17 0 23 5 21 17 -3 18 13 23 23 7 11
-18 -5 -48 -28 -54 -25 -6 -61 14 -77 44 -15 27 11 75 51 96 26 13 36 13 60 3
38 -15 79 -64 79 -94 0 -40 -31 -93 -62 -106 -38 -16 -45 -29 -15 -29 39 0 89
82 85 138 -4 47 3 50 59 30 21 -8 33 -19 33 -30 0 -15 -3 -17 -19 -8 -29 15
-31 13 -31 -21 0 -22 -10 -40 -37 -65 -20 -19 -33 -37 -30 -40 11 -11 75 61
79 89 l3 28 52 -34 c29 -19 51 -36 49 -38 -3 -2 8 -4 24 -4 15 0 26 4 22 9 -3
5 4 7 15 4 35 -9 45 6 45 66 0 31 -2 59 -5 62 -10 11 -85 9 -84 -1 1 -5 -2 -9
-8 -8 -5 1 -10 -13 -9 -30 1 -26 5 -31 25 -31 17 0 23 5 21 17 -3 18 13 23 23
7 11 -18 -5 -48 -28 -54 -25 -6 -61 14 -77 44 -15 27 11 75 51 96 26 13 36 13
60 3 38 -15 79 -64 79 -94 0 -40 -31 -93 -62 -106 -38 -16 -45 -29 -15 -29 39
0 89 82 85 138 -3 42 -2 43 22 39 14 -3 35 -8 48 -12 19 -6 22 -4 22 19 0 22
-6 28 -44 38 -44 12 -44 12 -48 62 -3 45 0 54 24 76 18 16 28 34 28 53 0 25 2
27 20 17 13 -7 20 -7 20 -1 0 9 -31 31 -44 31 -3 0 -6 -13 -6 -30 0 -22 -11
-41 -41 -71 -52 -52 -67 -47 -28 11 25 36 30 53 27 88 -3 42 -2 43 22 39 14
-3 35 -8 48 -12 19 -6 22 -4 22 19 0 22 -6 28 -44 38 -44 12 -44 12 -48 62 -3
45 0 54 24 76 18 16 28 34 28 53 0 25 2 27 20 17 13 -7 20 -7 20 -1 0 9 -31
31 -44 31 -3 0 -6 -13 -6 -30 0 -22 -11 -41 -41 -71 -52 -52 -67 -47 -28 11
25 36 30 53 27 88 -3 42 -2 43 22 39 14 -3 35 -8 48 -12 19 -6 22 -4 22 19 0
22 -6 28 -45 38 -45 12 -45 12 -46 58 -1 39 -2 41 -8 15 l-7 -30 -7 28 -7 27
-100 0 c-82 0 -100 -3 -100 -15 0 -8 5 -15 10 -15 14 0 12 -43 -2 -63 -11 -14
-19 -14 -55 -4 -42 11 -43 12 -44 57 -1 39 -2 41 -8 15 l-7 -30 -7 28 -7 27
-100 0 c-82 0 -100 -3 -100 -15 0 -8 5 -15 10 -15 14 0 12 -43 -2 -63 -11 -14
-19 -14 -55 -4 -42 11 -43 12 -44 57 -1 39 -2 41 -8 15 l-7 -30 -7 28 -7 27
-100 0 c-82 0 -100 -3 -100 -15z m178 -54 c3 -20 1 -22 -15 -16 -22 11 -73 11
-94 1 -13 -6 -16 -2 -11 19 4 25 7 26 61 23 50 -3 56 -5 59 -27z m320 0 c3
-20 1 -22 -15 -16 -22 11 -73 11 -94 1 -13 -6 -16 -2 -11 19 4 25 7 26 61 23
50 -3 56 -5 59 -27z m320 0 c3 -20 1 -22 -15 -16 -22 11 -73 11 -94 1 -13 -6
-16 -2 -11 19 4 25 7 26 61 23 50 -3 56 -5 59 -27z m-348 -26 c37 -19 70 -62
70 -91 0 -43 -30 -89 -73 -112 -23 -12 -49 -22 -57 -22 -8 0 -30 21 -49 46
l-34 45 -43 -42 c-34 -33 -40 -44 -31 -56 31 -38 48 -53 60 -52 6 0 2 5 -10
11 -36 17 -39 47 -9 76 l26 27 27 -28 28 -27 -28 0 c-17 0 -27 -5 -27 -15 0
-8 5 -15 10 -15 14 0 12 -43 -2 -63 -11 -14 -19 -14 -55 -5 -41 12 -41 12 -45
62 -3 45 0 54 24 76 14 14 28 38 30 53 l3 28 52 -34 c29 -19 51 -36 49 -38 -3
-2 8 -4 24 -4 15 0 26 4 22 9 -3 5 4 7 15 4 35 -9 46 6 46 66 0 31 -3 59 -6
62 -10 11 -85 9 -84 -1 1 -5 -2 -9 -8 -8 -5 1 -10 -13 -9 -30 1 -26 5 -31 25
-31 17 0 23 5 21 17 -3 18 13 23 23 7 11 -18 -5 -48 -28 -54 -25 -6 -61 14
-77 44 -14 26 10 74 48 94 34 19 37 19 72 1z m320 0 c37 -19 70 -62 70 -91 0
-43 -30 -89 -73 -112 -23 -12 -49 -22 -57 -22 -8 0 -30 21 -49 46 l-34 45 -43
-42 c-34 -33 -40 -44 -31 -56 31 -38 48 -53 60 -52 6 0 2 5 -10 11 -36 17 -39
47 -9 76 l26 27 27 -28 28 -27 -28 0 c-17 0 -27 -5 -27 -15 0 -8 5 -15 10 -15
14 0 12 -43 -2 -63 -11 -14 -19 -14 -55 -5 -41 12 -41 12 -45 62 -3 45 0 54
24 76 14 14 28 38 30 53 l3 28 52 -34 c29 -19 51 -36 49 -38 -3 -2 8 -4 24 -4
15 0 26 4 22 9 -3 5 4 7 15 4 35 -9 46 6 46 66 0 31 -3 59 -6 62 -10 11 -85 9
-84 -1 1 -5 -2 -9 -8 -8 -5 1 -10 -13 -9 -30 1 -26 5 -31 25 -31 17 0 23 5 21
17 -3 18 13 23 23 7 11 -18 -5 -48 -28 -54 -25 -6 -61 14 -77 44 -14 26 10 74
48 94 34 19 37 19 72 1z m-503 -57 c21 -8 33 -19 33 -30 0 -15 -3 -17 -19 -8
-28 15 -31 13 -31 -20 0 -22 -11 -41 -41 -71 -52 -52 -67 -47 -28 11 25 36 30
53 27 88 -4 47 3 50 59 30z m320 0 c21 -8 33 -19 33 -30 0 -15 -3 -17 -19 -8
-28 15 -31 13 -31 -20 0 -22 -11 -41 -41 -71 -52 -52 -67 -47 -28 11 25 36 30
53 27 88 -4 47 3 50 59 30z m-527 -43 c0 -3 -2 -5 -5 -5 -3 0 -5 2 -5 5 0 3 2
5 5 5 3 0 5 -2 5 -5z m320 0 c0 -3 -2 -5 -5 -5 -3 0 -5 2 -5 5 0 3 2 5 5 5 3
0 5 -2 5 -5z m320 0 c0 -3 -2 -5 -5 -5 -3 0 -5 2 -5 5 0 3 2 5 5 5 3 0 5 -2 5
-5z m-501 -152 c0 -25 -1 -26 -9 -8 -12 27 -12 35 0 35 6 0 10 -12 9 -27z
m320 0 c0 -25 -1 -26 -9 -8 -12 27 -12 35 0 35 6 0 10 -12 9 -27z m320 0 c0
-25 -1 -26 -9 -8 -12 27 -12 35 0 35 6 0 10 -12 9 -27z m-681 -42 c3 -20 1
-22 -15 -16 -22 11 -73 11 -94 1 -13 -6 -16 -2 -11 19 4 25 7 26 61 23 50 -3
56 -5 59 -27z m320 0 c3 -20 1 -22 -15 -16 -22 11 -73 11 -94 1 -13 -6 -16 -2
-11 19 4 25 7 26 61 23 50 -3 56 -5 59 -27z m320 0 c3 -20 1 -22 -15 -16 -22
11 -73 11 -94 1 -13 -6 -16 -2 -11 19 4 25 7 26 61 23 50 -3 56 -5 59 -27z
m-348 -26 c37 -19 70 -62 70 -91 0 -43 -30 -89 -73 -112 -23 -12 -49 -22 -57
-22 -8 0 -30 21 -49 46 l-34 45 -43 -42 c-34 -33 -40 -44 -31 -56 31 -38 48
-53 60 -52 6 0 2 5 -10 11 -36 17 -39 47 -9 76 l26 27 27 -28 28 -27 -28 0
c-17 0 -27 -5 -27 -15 0 -8 5 -15 10 -15 14 0 12 -43 -2 -63 -11 -14 -19 -14
-55 -5 -41 12 -41 12 -45 62 -3 45 0 54 24 76 14 14 28 38 30 53 l3 28 52 -34
c29 -19 51 -36 49 -38 -3 -2 8 -4 24 -4 15 0 26 4 22 9 -3 5 4 7 15 4 35 -9
46 6 46 66 0 31 -3 59 -6 62 -10 11 -85 9 -84 -1 1 -5 -2 -9 -8 -8 -5 1 -10
-13 -9 -30 1 -26 5 -31 25 -31 17 0 23 5 21 17 -3 18 13 23 23 7 11 -18 -5
-48 -28 -54 -25 -6 -61 14 -77 44 -14 26 10 74 48 94 34 19 37 19 72 1z m320
0 c37 -19 70 -62 70 -91 0 -43 -30 -89 -73 -112 -23 -12 -49 -22 -57 -22 -8 0
-30 21 -49 46 l-34 45 -43 -42 c-34 -33 -40 -44 -31 -56 31 -38 48 -53 60 -52
6 0 2 5 -10 11 -36 17 -39 47 -9 76 l26 27 27 -28 28 -27 -28 0 c-17 0 -27 -5
-27 -15 0 -8 5 -15 10 -15 14 0 12 -43 -2 -63 -11 -14 -19 -14 -55 -5 -41 12
-41 12 -45 62 -3 45 0 54 24 76 14 14 28 38 30 53 l3 28 52 -34 c29 -19 51
-36 49 -38 -3 -2 8 -4 24 -4 15 0 26 4 22 9 -3 5 4 7 15 4 35 -9 46 6 46 66 0
31 -3 59 -6 62 -10 11 -85 9 -84 -1 1 -5 -2 -9 -8 -8 -5 1 -10 -13 -9 -30 1
-26 5 -31 25 -31 17 0 23 5 21 17 -3 18 13 23 23 7 11 -18 -5 -48 -28 -54 -25
-6 -61 14 -77 44 -14 26 10 74 48 94 34 19 37 19 72 1z m-503 -57 c21 -8 33
-19 33 -30 0 -15 -3 -17 -19 -8 -28 15 -31 13 -31 -20 0 -22 -11 -41 -41 -71
-52 -52 -67 -47 -28 11 25 36 30 53 27 88 -4 47 3 50 59 30z m320 0 c21 -8 33
-19 33 -30 0 -15 -3 -17 -19 -8 -28 15 -31 13 -31 -20 0 -22 -11 -41 -41 -71
-52 -52 -67 -47 -28 11 25 36 30 53 27 88 -4 47 3 50 59 30z m-527 -43 c0 -3
-2 -5 -5 -5 -3 0 -5 2 -5 5 0 3 2 5 5 5 3 0 5 -2 5 -5z m320 0 c0 -3 -2 -5 -5
-5 -3 0 -5 2 -5 5 0 3 2 5 5 5 3 0 5 -2 5 -5z m320 0 c0 -3 -2 -5 -5 -5 -3 0
-5 2 -5 5 0 3 2 5 5 5 3 0 5 -2 5 -5z m-501 -152 c0 -25 -1 -26 -9 -8 -12 27
-12 35 0 35 6 0 10 -12 9 -27z m320 0 c0 -25 -1 -26 -9 -8 -12 27 -12 35 0 35
6 0 10 -12 9 -27z m320 0 c0 -25 -1 -26 -9 -8 -12 27 -12 35 0 35 6 0 10 -12
9 -27z m-681 -42 c3 -20 1 -22 -15 -16 -22 11 -73 11 -94 1 -13 -6 -16 -2 -11
19 4 25 7 26 61 23 50 -3 56 -5 59 -27z m320 0 c3 -20 1 -22 -15 -16 -22 11
-73 11 -94 1 -13 -6 -16 -2 -11 19 4 25 7 26 61 23 50 -3 56 -5 59 -27z m320
0 c3 -20 1 -22 -15 -16 -22 11 -73 11 -94 1 -13 -6 -16 -2 -11 19 4 25 7 26
61 23 50 -3 56 -5 59 -27z m-738 -126 c0 -3 -2 -5 -5 -5 -3 0 -5 2 -5 5 0 3 2
5 5 5 3 0 5 -2 5 -5z m320 0 c0 -3 -2 -5 -5 -5 -3 0 -5 2 -5 5 0 3 2 5 5 5 3
0 5 -2 5 -5z m320 0 c0 -3 -2 -5 -5 -5 -3 0 -5 2 -5 5 0 3 2 5 5 5 3 0 5 -2 5
-5z"/>
<path d="M360 695 c0 -3 2 -5 5 -5 3 0 5 2 5 5 0 3 -2 5 -5 5 -3 0 -5 -2 -5
-5z"/>
<path d="M680 695 c0 -3 2 -5 5 -5 3 0 5 2 5 5 0 3 -2 5 -5 5 -3 0 -5 -2 -5
-5z"/>
<path d="M360 375 c0 -3 2 -5 5 -5 3 0 5 2 5 5 0 3 -2 5 -5 5 -3 0 -5 -2 -5
-5z"/>
<path d="M680 375 c0 -3 2 -5 5 -5 3 0 5 2 5 5 0 3 -2 5 -5 5 -3 0 -5 -2 -5
-5z"/>
<path d="M261 953 c-1 -17 35 -53 52 -52 6 0 2 5 -9 11 -12 5 -27 20 -32 32
-6 11 -11 15 -11 9z"/>
<path d="M581 953 c-1 -7 8 -22 19 -33 11 -11 26 -20 33 -19 6 0 2 5 -9 11
-12 5 -27 20 -32 32 -6 11 -11 15 -11 9z"/>
<path d="M901 953 c-1 -17 35 -53 52 -52 6 0 2 5 -9 11 -12 5 -27 20 -32 32
-6 11 -11 15 -11 9z"/>
<path d="M918 683 c-25 -27 -33 -41 -26 -49 38 -44 49 -54 61 -53 6 0 2 5 -10
11 -36 17 -39 46 -8 78 15 16 26 33 23 40 -2 6 -20 -6 -40 -27z"/>
<path d="M40 695 c0 -3 2 -5 5 -5 3 0 5 2 5 5 0 3 -2 5 -5 5 -3 0 -5 -2 -5 -5z"/>
<path d="M918 363 c-25 -27 -33 -41 -26 -49 38 -44 49 -54 61 -53 6 0 2 5 -10
11 -36 17 -39 46 -8 78 15 16 26 33 23 40 -2 6 -20 -6 -40 -27z"/>
<path d="M40 375 c0 -3 2 -5 5 -5 3 0 5 2 5 5 0 3 -2 5 -5 5 -3 0 -5 -2 -5 -5z"/>
<path d="M910 109 c0 -22 -10 -40 -37 -65 -20 -19 -33 -37 -30 -40 12 -13 77
63 77 90 0 24 2 25 20 16 13 -7 20 -7 20 -1 0 9 -31 31 -44 31 -3 0 -6 -14 -6
-31z"/>
<path d="M0 74 c0 -11 13 -33 30 -49 32 -30 55 -28 27 3 -10 10 -15 22 -12 25
3 4 2 5 -1 2 -4 -2 -15 6 -25 18 -18 22 -18 22 -19 1z"/>
<path d="M280 45 c-47 -47 -36 -64 12 -18 l28 27 30 -29 c32 -30 55 -28 27 3
-10 10 -15 22 -12 25 3 4 2 5 -1 2 -4 -2 -14 5 -23 16 -16 20 -17 19 -61 -26z"/>
<path d="M600 45 c-47 -47 -36 -64 12 -18 l28 27 30 -29 c32 -30 55 -28 27 3
-10 10 -15 22 -12 25 3 4 2 5 -1 2 -4 -2 -14 5 -23 16 -16 20 -17 19 -61 -26z"/>
<path d="M915 40 c-24 -25 -33 -40 -24 -40 19 0 72 55 67 70 -2 6 -21 -7 -43
-30z"/>
</g>
<g transform="translate(0.000000,96.000000) scale(0.100000,-0.100000)"
fill="#8e2020" stroke="none">
<path d="M0 945 c0 -8 5 -15 11 -15 7 0 9 -11 5 -32 -19 -88 -18 -103 6 -138
31 -46 68 -59 103 -36 19 13 25 24 23 44 -4 35 -42 39 -44 5 -1 -12 2 -20 7
-17 4 2 6 11 2 19 -6 17 12 21 22 5 11 -17 -5 -48 -27 -53 -26 -7 -53 6 -74
38 -14 21 -14 26 1 54 22 44 69 66 106 50 38 -15 79 -64 79 -94 0 -44 -30 -90
-73 -113 -23 -12 -49 -22 -57 -22 -17 0 -46 39 -41 55 1 5 -1 7 -4 3 -4 -4
-16 3 -26 15 -17 21 -18 21 -19 3 0 -11 12 -33 27 -48 l27 -28 -27 0 c-17 0
-27 -5 -27 -15 0 -8 5 -15 11 -15 7 0 9 -11 5 -32 -19 -88 -18 -103 6 -138 31
-46 68 -59 103 -36 19 13 25 24 23 44 -4 35 -42 39 -44 5 -1 -12 2 -20 7 -17
4 2 6 11 2 19 -6 17 12 21 22 5 11 -18 -5 -48 -28 -54 -25 -6 -61 14 -77 44
-15 27 11 75 51 96 38 19 77 7 114 -38 29 -34 31 -64 9 -111 -15 -32 -82 -77
-114 -77 -17 0 -46 39 -41 55 1 5 -1 7 -4 3 -4 -4 -16 3 -26 15 -17 21 -18 21
-19 3 0 -11 12 -33 27 -48 l27 -28 -27 0 c-17 0 -27 -5 -27 -15 0 -8 5 -15 11
-15 7 0 9 -11 5 -33 -19 -87 -18 -102 6 -137 31 -46 68 -59 103 -36 19 13 25
24 23 44 -4 35 -42 39 -44 5 -1 -12 2 -20 7 -17 4 2 6 11 2 19 -6 17 12 21 22
5 11 -18 -5 -48 -28 -54 -25 -6 -61 14 -77 44 -15 27 11 75 51 96 26 13 36 13
60 3 38 -15 79 -64 79 -94 0 -43 -31 -92 -69 -110 -28 -15 -32 -19 -18 -23 11
-2 30 7 44 20 40 37 56 76 50 125 -5 48 2 52 58 32 19 -7 39 -26 51 -48 10
-19 31 -42 46 -51 25 -13 31 -13 55 0 35 20 41 75 8 75 -14 0 -20 -7 -21 -22
-1 -12 2 -20 7 -17 4 2 6 11 2 19 -6 17 12 21 22 5 11 -18 -5 -48 -28 -54 -25
-6 -61 14 -77 44 -15 27 11 75 51 96 26 13 36 13 60 3 38 -15 79 -64 79 -94 0
-43 -31 -92 -69 -110 -28 -15 -32 -19 -18 -23 11 -2 30 7 44 20 40 37 56 76
50 125 -5 48 2 52 58 32 19 -7 39 -26 51 -48 10 -19 31 -42 47 -51 24 -13 30
-13 55 0 34 20 40 75 7 75 -14 0 -20 -7 -21 -22 -1 -12 2 -20 7 -17 4 2 6 11
2 19 -6 17 12 21 22 5 11 -18 -5 -48 -28 -54 -25 -6 -61 14 -77 44 -15 27 11
75 51 96 26 13 36 13 60 3 38 -15 79 -64 79 -94 0 -43 -31 -92 -69 -110 -28
-15 -32 -19 -18 -23 11 -2 30 7 44 20 40 37 56 76 50 126 -5 43 -4 44 22 39
14 -3 36 -8 49 -12 18 -6 22 -4 22 14 0 16 -10 24 -44 33 -44 12 -44 12 -48
62 -3 45 0 54 24 76 18 16 28 34 28 53 0 25 2 27 23 17 21 -11 21 -10 3 4 -29
23 -36 20 -36 -16 0 -23 -8 -38 -27 -54 -22 -17 -27 -29 -26 -60 2 -37 1 -38
-8 -11 -7 17 -18 27 -31 27 -18 0 -17 3 11 35 36 41 46 72 38 122 -6 34 -5 35
21 30 15 -3 37 -8 50 -12 18 -6 22 -4 22 14 0 16 -10 24 -44 33 -44 12 -44 12
-48 62 -3 45 0 54 24 76 18 16 28 34 28 53 0 25 2 27 23 17 21 -11 21 -10 3 4
-29 23 -36 20 -36 -16 0 -23 -8 -38 -27 -54 -22 -17 -27 -29 -26 -60 2 -37 1
-38 -8 -11 -7 17 -18 27 -31 27 -18 0 -17 3 11 35 36 41 46 72 38 122 -6 34
-5 35 21 30 15 -3 37 -8 50 -12 18 -6 22 -4 22 14 0 17 -10 24 -45 33 -45 12
-45 12 -46 58 -1 39 -2 41 -8 15 l-7 -30 -7 28 -7 27 -100 0 c-82 0 -100 -3
-100 -15 0 -8 5 -15 10 -15 14 0 12 -43 -2 -63 -11 -14 -19 -14 -55 -4 -42 11
-43 12 -44 57 -1 39 -2 41 -8 15 l-7 -30 -7 28 -7 27 -100 0 c-82 0 -100 -3
-100 -15 0 -8 5 -15 10 -15 14 0 12 -43 -2 -63 -11 -14 -19 -14 -55 -4 -42 11
-43 12 -44 57 -1 39 -2 41 -8 15 l-7 -30 -7 28 -7 27 -100 0 c-82 0 -100 -3
-100 -15z m184 -31 c3 -9 6 -24 6 -35 0 -18 -2 -19 -30 -4 -37 19 -53 19 -92
-1 -29 -15 -30 -15 -24 1 3 9 6 25 6 36 0 17 8 19 64 19 49 0 65 -4 70 -16z
m320 0 c3 -9 6 -24 6 -35 0 -18 -2 -19 -30 -4 -37 19 -53 19 -92 -1 -29 -15
-30 -15 -24 1 3 9 6 25 6 36 0 17 8 19 64 19 49 0 65 -4 70 -16z m320 0 c3 -9
6 -24 6 -35 0 -18 -2 -19 -30 -4 -37 19 -53 19 -92 -1 -29 -15 -30 -15 -24 1
3 9 6 25 6 36 0 17 8 19 64 19 49 0 65 -4 70 -16z m-354 -49 c37 -19 70 -62
70 -91 0 -43 -30 -89 -73 -112 -23 -12 -49 -22 -57 -22 -17 0 -46 39 -41 55 1
5 -1 7 -4 3 -4 -4 -15 2 -24 13 -16 20 -17 19 -61 -26 -47 -48 -36 -64 12 -18
l28 27 27 -27 28 -27 -28 0 c-17 0 -27 -5 -27 -15 0 -8 5 -15 10 -15 14 0 12
-43 -2 -63 -11 -14 -19 -14 -55 -5 -41 12 -41 12 -45 62 -3 45 0 54 24 76 18
16 28 34 28 53 0 25 2 27 23 17 21 -11 21 -10 3 4 -29 23 -36 20 -36 -16 0
-23 -8 -38 -27 -54 -22 -17 -27 -29 -26 -60 2 -37 1 -38 -8 -11 -7 17 -18 27
-31 27 -18 0 -17 3 11 35 36 41 46 72 38 121 -5 27 -2 34 10 34 39 0 80 -24
99 -59 10 -19 31 -42 47 -51 24 -13 30 -13 55 0 34 20 40 75 7 75 -14 0 -20
-7 -21 -22 -1 -12 2 -20 7 -17 4 2 6 11 2 19 -6 17 12 21 22 5 11 -18 -5 -48
-28 -54 -25 -6 -61 14 -77 44 -14 26 10 74 48 94 34 19 37 19 72 1z m320 0
c37 -19 70 -62 70 -91 0 -43 -30 -89 -73 -112 -23 -12 -49 -22 -57 -22 -17 0
-46 39 -41 55 1 5 -1 7 -4 3 -4 -4 -15 2 -24 13 -16 20 -17 19 -61 -26 -47
-48 -36 -64 12 -18 l28 27 27 -27 28 -27 -28 0 c-17 0 -27 -5 -27 -15 0 -8 5
-15 10 -15 14 0 12 -43 -2 -63 -11 -14 -19 -14 -55 -5 -41 12 -41 12 -45 62
-3 45 0 54 24 76 18 16 28 34 28 53 0 25 2 27 23 17 21 -11 21 -10 3 4 -29 23
-36 20 -36 -16 0 -23 -8 -38 -27 -54 -22 -17 -27 -29 -26 -60 2 -37 1 -38 -8
-11 -7 17 -18 27 -31 27 -18 0 -17 3 11 35 36 41 46 72 38 121 -5 27 -2 34 10
34 39 0 80 -24 99 -59 10 -19 31 -42 47 -51 24 -13 30 -13 55 0 34 20 40 75 7
75 -14 0 -20 -7 -21 -22 -1 -12 2 -20 7 -17 4 2 6 11 2 19 -6 17 12 21 22 5
11 -18 -5 -48 -28 -54 -25 -6 -61 14 -77 44 -14 26 10 74 48 94 34 19 37 19
72 1z m-606 -271 c3 -9 6 -24 6 -35 0 -18 -2 -19 -30 -4 -37 19 -53 19 -92 -1
-29 -15 -30 -15 -24 1 3 9 6 25 6 36 0 17 8 19 64 19 49 0 65 -4 70 -16z m320
0 c3 -9 6 -24 6 -35 0 -18 -2 -19 -30 -4 -37 19 -53 19 -92 -1 -29 -15 -30
-15 -24 1 3 9 6 25 6 36 0 17 8 19 64 19 49 0 65 -4 70 -16z m320 0 c3 -9 6
-24 6 -35 0 -18 -2 -19 -30 -4 -37 19 -53 19 -92 -1 -29 -15 -30 -15 -24 1 3
9 6 25 6 36 0 17 8 19 64 19 49 0 65 -4 70 -16z m-354 -49 c37 -19 70 -62 70
-91 0 -43 -30 -89 -73 -112 -23 -12 -49 -22 -57 -22 -17 0 -46 39 -41 55 1 5
-1 7 -4 3 -4 -4 -15 2 -24 13 -16 20 -17 19 -61 -26 -47 -48 -36 -64 12 -18
l28 27 27 -27 28 -27 -28 0 c-17 0 -27 -5 -27 -15 0 -8 5 -15 10 -15 14 0 12
-43 -2 -63 -11 -14 -19 -14 -55 -5 -41 12 -41 12 -45 62 -3 45 0 54 24 76 18
16 28 34 28 53 0 25 2 27 23 17 21 -11 21 -10 3 4 -29 23 -36 20 -36 -16 0
-23 -8 -38 -27 -54 -22 -17 -27 -29 -26 -60 2 -37 1 -38 -8 -11 -7 17 -18 27
-31 27 -18 0 -17 3 11 35 36 41 46 72 38 121 -5 27 -2 34 10 34 39 0 80 -24
99 -59 10 -19 31 -42 47 -51 24 -13 30 -13 55 0 34 20 40 75 7 75 -14 0 -20
-7 -21 -22 -1 -12 2 -20 7 -17 4 2 6 11 2 19 -6 17 12 21 22 5 11 -18 -5 -48
-28 -54 -25 -6 -61 14 -77 44 -14 26 10 74 48 94 34 19 37 19 72 1z m320 0
c37 -19 70 -62 70 -91 0 -43 -30 -89 -73 -112 -23 -12 -49 -22 -57 -22 -17 0
-46 39 -41 55 1 5 -1 7 -4 3 -4 -4 -15 2 -24 13 -16 20 -17 19 -61 -26 -47
-48 -36 -64 12 -18 l28 27 27 -27 28 -27 -28 0 c-17 0 -27 -5 -27 -15 0 -8 5
-15 10 -15 14 0 12 -43 -2 -63 -11 -14 -19 -14 -55 -5 -41 12 -41 12 -45 62
-3 45 0 54 24 76 18 16 28 34 28 53 0 25 2 27 23 17 21 -11 21 -10 3 4 -29 23
-36 20 -36 -16 0 -23 -8 -38 -27 -54 -22 -17 -27 -29 -26 -60 2 -37 1 -38 -8
-11 -7 17 -18 27 -31 27 -18 0 -17 3 11 35 36 41 46 72 38 121 -5 27 -2 34 10
34 39 0 80 -24 99 -59 10 -19 31 -42 47 -51 24 -13 30 -13 55 0 34 20 40 75 7
75 -14 0 -20 -7 -21 -22 -1 -12 2 -20 7 -17 4 2 6 11 2 19 -6 17 12 21 22 5
11 -18 -5 -48 -28 -54 -25 -6 -61 14 -77 44 -14 26 10 74 48 94 34 19 37 19
72 1z m-606 -271 c3 -9 6 -24 6 -35 0 -18 -2 -19 -30 -4 -37 19 -53 19 -92 -1
-29 -15 -30 -15 -24 1 3 9 6 25 6 36 0 17 8 19 64 19 49 0 65 -4 70 -16z m320
0 c3 -9 6 -24 6 -35 0 -18 -2 -19 -30 -4 -37 19 -53 19 -92 -1 -29 -15 -30
-15 -24 1 3 9 6 25 6 36 0 17 8 19 64 19 49 0 65 -4 70 -16z m320 0 c3 -9 6
-24 6 -35 0 -18 -2 -19 -30 -4 -37 19 -53 19 -92 -1 -29 -15 -30 -15 -24 1 3
9 6 25 6 36 0 17 8 19 64 19 49 0 65 -4 70 -16z"/>
<path d="M400 835 c0 -3 2 -5 5 -5 3 0 5 2 5 5 0 3 -2 5 -5 5 -3 0 -5 -2 -5
-5z"/>
<path d="M460 834 c0 -7 27 -34 34 -34 11 0 -6 29 -20 34 -8 3 -14 3 -14 0z"/>
<path d="M380 815 c0 -3 2 -5 5 -5 3 0 5 2 5 5 0 3 -2 5 -5 5 -3 0 -5 -2 -5
-5z"/>
<path d="M385 760 c3 -5 8 -10 11 -10 3 0 2 5 -1 10 -3 6 -8 10 -11 10 -3 0
-2 -4 1 -10z"/>
<path d="M473 715 c-17 -19 -16 -26 1 -19 15 6 30 34 18 34 -4 -1 -13 -7 -19
-15z"/>
<path d="M380 685 c0 -3 2 -5 5 -5 3 0 5 2 5 5 0 3 -2 5 -5 5 -3 0 -5 -2 -5
-5z"/>
<path d="M430 685 c0 -3 2 -5 5 -5 3 0 5 2 5 5 0 3 -2 5 -5 5 -3 0 -5 -2 -5
-5z"/>
<path d="M290 590 c8 -5 20 -10 25 -10 6 0 3 5 -5 10 -8 5 -19 10 -25 10 -5 0
-3 -5 5 -10z"/>
<path d="M720 835 c0 -3 2 -5 5 -5 3 0 5 2 5 5 0 3 -2 5 -5 5 -3 0 -5 -2 -5
-5z"/>
<path d="M780 834 c0 -3 6 -12 14 -20 19 -18 27 -18 20 0 -5 14 -34 31 -34 20z"/>
<path d="M700 815 c0 -3 2 -5 5 -5 3 0 5 2 5 5 0 3 -2 5 -5 5 -3 0 -5 -2 -5
-5z"/>
<path d="M705 760 c3 -5 8 -10 11 -10 3 0 2 5 -1 10 -3 6 -8 10 -11 10 -3 0
-2 -4 1 -10z"/>
<path d="M793 715 c-17 -19 -16 -26 1 -19 15 6 30 34 18 34 -4 -1 -13 -7 -19
-15z"/>
<path d="M700 685 c0 -3 2 -5 5 -5 3 0 5 2 5 5 0 3 -2 5 -5 5 -3 0 -5 -2 -5
-5z"/>
<path d="M750 685 c0 -3 2 -5 5 -5 3 0 5 2 5 5 0 3 -2 5 -5 5 -3 0 -5 -2 -5
-5z"/>
<path d="M610 590 c8 -5 20 -10 25 -10 6 0 3 5 -5 10 -8 5 -19 10 -25 10 -5 0
-3 -5 5 -10z"/>
<path d="M400 515 c0 -3 2 -5 5 -5 3 0 5 2 5 5 0 3 -2 5 -5 5 -3 0 -5 -2 -5
-5z"/>
<path d="M460 514 c0 -3 6 -12 14 -20 19 -18 27 -18 20 0 -5 14 -34 31 -34 20z"/>
<path d="M380 495 c0 -3 2 -5 5 -5 3 0 5 2 5 5 0 3 -2 5 -5 5 -3 0 -5 -2 -5
-5z"/>
<path d="M385 440 c3 -5 8 -10 11 -10 3 0 2 5 -1 10 -3 6 -8 10 -11 10 -3 0
-2 -4 1 -10z"/>
<path d="M473 395 c-17 -19 -16 -26 1 -19 15 6 30 34 18 34 -4 -1 -13 -7 -19
-15z"/>
<path d="M380 365 c0 -3 2 -5 5 -5 3 0 5 2 5 5 0 3 -2 5 -5 5 -3 0 -5 -2 -5
-5z"/>
<path d="M430 365 c0 -3 2 -5 5 -5 3 0 5 2 5 5 0 3 -2 5 -5 5 -3 0 -5 -2 -5
-5z"/>
<path d="M290 270 c8 -5 20 -10 25 -10 6 0 3 5 -5 10 -8 5 -19 10 -25 10 -5 0
-3 -5 5 -10z"/>
<path d="M720 515 c0 -3 2 -5 5 -5 3 0 5 2 5 5 0 3 -2 5 -5 5 -3 0 -5 -2 -5
-5z"/>
<path d="M780 514 c0 -7 27 -34 34 -34 11 0 -6 29 -20 34 -8 3 -14 3 -14 0z"/>
<path d="M700 495 c0 -3 2 -5 5 -5 3 0 5 2 5 5 0 3 -2 5 -5 5 -3 0 -5 -2 -5
-5z"/>
<path d="M705 440 c3 -5 8 -10 11 -10 3 0 2 5 -1 10 -3 6 -8 10 -11 10 -3 0
-2 -4 1 -10z"/>
<path d="M793 395 c-17 -19 -16 -26 1 -19 15 6 30 34 18 34 -4 -1 -13 -7 -19
-15z"/>
<path d="M700 365 c0 -3 2 -5 5 -5 3 0 5 2 5 5 0 3 -2 5 -5 5 -3 0 -5 -2 -5
-5z"/>
<path d="M750 365 c0 -3 2 -5 5 -5 3 0 5 2 5 5 0 3 -2 5 -5 5 -3 0 -5 -2 -5
-5z"/>
<path d="M610 270 c8 -5 20 -10 25 -10 6 0 3 5 -5 10 -8 5 -19 10 -25 10 -5 0
-3 -5 5 -10z"/>
<path d="M290 910 c8 -5 20 -10 25 -10 6 0 3 5 -5 10 -8 5 -19 10 -25 10 -5 0
-3 -5 5 -10z"/>
<path d="M610 910 c8 -5 20 -10 25 -10 6 0 3 5 -5 10 -8 5 -19 10 -25 10 -5 0
-3 -5 5 -10z"/>
<path d="M930 910 c8 -5 20 -10 25 -10 6 0 3 5 -5 10 -8 5 -19 10 -25 10 -5 0
-3 -5 5 -10z"/>
<path d="M80 835 c0 -3 2 -5 5 -5 3 0 5 2 5 5 0 3 -2 5 -5 5 -3 0 -5 -2 -5 -5z"/>
<path d="M140 834 c0 -7 27 -34 34 -34 11 0 -6 29 -20 34 -8 3 -14 3 -14 0z"/>
<path d="M60 815 c0 -3 2 -5 5 -5 3 0 5 2 5 5 0 3 -2 5 -5 5 -3 0 -5 -2 -5 -5z"/>
<path d="M65 760 c3 -5 8 -10 11 -10 3 0 2 5 -1 10 -3 6 -8 10 -11 10 -3 0 -2
-4 1 -10z"/>
<path d="M153 715 c-17 -19 -16 -26 1 -19 15 6 30 34 18 34 -4 -1 -13 -7 -19
-15z"/>
<path d="M915 680 c-24 -25 -33 -40 -24 -40 19 0 72 55 67 70 -2 6 -21 -7 -43
-30z"/>
<path d="M60 685 c0 -3 2 -5 5 -5 3 0 5 2 5 5 0 3 -2 5 -5 5 -3 0 -5 -2 -5 -5z"/>
<path d="M110 685 c0 -3 2 -5 5 -5 3 0 5 2 5 5 0 3 -2 5 -5 5 -3 0 -5 -2 -5
-5z"/>
<path d="M930 590 c8 -5 20 -10 25 -10 6 0 3 5 -5 10 -8 5 -19 10 -25 10 -5 0
-3 -5 5 -10z"/>
<path d="M80 515 c0 -3 2 -5 5 -5 3 0 5 2 5 5 0 3 -2 5 -5 5 -3 0 -5 -2 -5 -5z"/>
<path d="M140 514 c0 -7 27 -34 34 -34 11 0 -6 29 -20 34 -8 3 -14 3 -14 0z"/>
<path d="M60 495 c0 -3 2 -5 5 -5 3 0 5 2 5 5 0 3 -2 5 -5 5 -3 0 -5 -2 -5 -5z"/>
<path d="M65 440 c3 -5 8 -10 11 -10 3 0 2 5 -1 10 -3 6 -8 10 -11 10 -3 0 -2
-4 1 -10z"/>
<path d="M153 395 c-17 -19 -16 -26 1 -19 15 6 30 34 18 34 -4 -1 -13 -7 -19
-15z"/>
<path d="M915 360 c-24 -25 -33 -40 -24 -40 19 0 72 55 67 70 -2 6 -21 -7 -43
-30z"/>
<path d="M60 365 c0 -3 2 -5 5 -5 3 0 5 2 5 5 0 3 -2 5 -5 5 -3 0 -5 -2 -5 -5z"/>
<path d="M110 365 c0 -3 2 -5 5 -5 3 0 5 2 5 5 0 3 -2 5 -5 5 -3 0 -5 -2 -5
-5z"/>
<path d="M930 270 c8 -5 20 -10 25 -10 6 0 3 5 -5 10 -8 5 -19 10 -25 10 -5 0
-3 -5 5 -10z"/>
<path d="M80 195 c0 -3 2 -5 5 -5 3 0 5 2 5 5 0 3 -2 5 -5 5 -3 0 -5 -2 -5 -5z"/>
<path d="M140 194 c0 -3 6 -12 14 -20 19 -18 27 -18 20 0 -5 14 -34 31 -34 20z"/>
<path d="M400 195 c0 -3 2 -5 5 -5 3 0 5 2 5 5 0 3 -2 5 -5 5 -3 0 -5 -2 -5
-5z"/>
<path d="M460 194 c0 -7 27 -34 34 -34 3 0 3 6 0 14 -5 14 -34 31 -34 20z"/>
<path d="M720 195 c0 -3 2 -5 5 -5 3 0 5 2 5 5 0 3 -2 5 -5 5 -3 0 -5 -2 -5
-5z"/>
<path d="M780 194 c0 -7 27 -34 34 -34 3 0 3 6 0 14 -5 14 -34 31 -34 20z"/>
<path d="M60 175 c0 -3 2 -5 5 -5 3 0 5 2 5 5 0 3 -2 5 -5 5 -3 0 -5 -2 -5 -5z"/>
<path d="M380 175 c0 -3 2 -5 5 -5 3 0 5 2 5 5 0 3 -2 5 -5 5 -3 0 -5 -2 -5
-5z"/>
<path d="M700 175 c0 -3 2 -5 5 -5 3 0 5 2 5 5 0 3 -2 5 -5 5 -3 0 -5 -2 -5
-5z"/>
<path d="M65 120 c3 -5 8 -10 11 -10 3 0 2 5 -1 10 -3 6 -8 10 -11 10 -3 0 -2
-4 1 -10z"/>
<path d="M270 95 c0 -24 -6 -37 -20 -45 -11 -6 -25 -20 -31 -32 -7 -14 1 -9
25 14 24 23 36 44 36 62 0 24 2 26 23 16 21 -11 21 -10 3 4 -29 23 -36 20 -36
-19z"/>
<path d="M385 120 c3 -5 8 -10 11 -10 3 0 2 5 -1 10 -3 6 -8 10 -11 10 -3 0
-2 -4 1 -10z"/>
<path d="M590 95 c0 -24 -6 -37 -20 -45 -11 -6 -25 -20 -31 -32 -7 -14 1 -9
25 14 24 23 36 44 36 62 0 24 2 26 23 16 21 -11 21 -10 3 4 -29 23 -36 20 -36
-19z"/>
<path d="M705 120 c3 -5 8 -10 11 -10 3 0 2 5 -1 10 -3 6 -8 10 -11 10 -3 0
-2 -4 1 -10z"/>
<path d="M910 95 c0 -24 -6 -37 -20 -45 -11 -6 -25 -20 -31 -32 -7 -14 1 -9
25 14 24 23 36 44 36 62 0 24 2 26 23 16 21 -11 21 -10 3 4 -29 23 -36 20 -36
-19z"/>
<path d="M0 74 c0 -11 13 -33 30 -49 32 -30 55 -28 27 3 -10 10 -15 22 -12 25
3 4 2 5 -1 2 -4 -2 -15 6 -25 18 -18 22 -18 22 -19 1z"/>
<path d="M153 75 c-17 -19 -16 -26 1 -19 15 6 30 34 18 34 -4 -1 -13 -7 -19
-15z"/>
<path d="M280 45 c-47 -47 -36 -64 12 -18 l28 27 30 -29 c32 -30 55 -28 27 3
-10 10 -15 22 -12 25 3 4 2 5 -1 2 -4 -2 -14 5 -23 16 -16 20 -17 19 -61 -26z"/>
<path d="M473 75 c-17 -19 -16 -26 1 -19 15 6 30 34 18 34 -4 -1 -13 -7 -19
-15z"/>
<path d="M600 45 c-47 -47 -36 -64 12 -18 l28 27 30 -29 c32 -30 55 -28 27 3
-10 10 -15 22 -12 25 3 4 2 5 -1 2 -4 -2 -14 5 -23 16 -16 20 -17 19 -61 -26z"/>
<path d="M793 75 c-17 -19 -16 -26 1 -19 15 6 30 34 18 34 -4 -1 -13 -7 -19
-15z"/>
<path d="M915 40 c-24 -25 -33 -40 -24 -40 19 0 72 55 67 70 -2 6 -21 -7 -43
-30z"/>
<path d="M60 45 c0 -3 2 -5 5 -5 3 0 5 2 5 5 0 3 -2 5 -5 5 -3 0 -5 -2 -5 -5z"/>
<path d="M110 45 c0 -3 2 -5 5 -5 3 0 5 2 5 5 0 3 -2 5 -5 5 -3 0 -5 -2 -5 -5z"/>
<path d="M380 45 c0 -3 2 -5 5 -5 3 0 5 2 5 5 0 3 -2 5 -5 5 -3 0 -5 -2 -5 -5z"/>
<path d="M430 45 c0 -3 2 -5 5 -5 3 0 5 2 5 5 0 3 -2 5 -5 5 -3 0 -5 -2 -5 -5z"/>
<path d="M700 45 c0 -3 2 -5 5 -5 3 0 5 2 5 5 0 3 -2 5 -5 5 -3 0 -5 -2 -5 -5z"/>
<path d="M750 45 c0 -3 2 -5 5 -5 3 0 5 2 5 5 0 3 -2 5 -5 5 -3 0 -5 -2 -5 -5z"/>
</g>
<g transform="translate(0.000000,96.000000) scale(0.100000,-0.100000)"
fill="#b82f27" stroke="none">
<path d="M191 960 c0 -3 6 -27 13 -54 12 -48 14 -50 62 -62 27 -7 50 -13 52
-14 1 0 2 5 2 10 0 6 -20 15 -45 22 -45 12 -45 13 -46 58 -2 34 -3 38 -6 15
l-5 -30 -13 30 c-7 17 -14 28 -14 25z"/>
<path d="M511 960 c0 -3 6 -27 13 -54 12 -48 14 -50 62 -62 27 -7 50 -13 52
-14 1 0 2 5 2 10 0 6 -20 15 -45 22 -45 12 -45 13 -46 58 -2 34 -3 38 -6 15
l-5 -30 -13 30 c-7 17 -14 28 -14 25z"/>
<path d="M831 960 c0 -3 6 -27 13 -54 12 -48 14 -50 62 -62 27 -7 50 -13 52
-14 1 0 2 5 2 10 0 6 -20 15 -45 22 -45 12 -45 13 -46 58 -2 34 -3 38 -6 15
l-5 -30 -13 30 c-7 17 -14 28 -14 25z"/>
<path d="M290 910 c8 -5 20 -10 25 -10 6 0 3 5 -5 10 -8 5 -19 10 -25 10 -5 0
-3 -5 5 -10z"/>
<path d="M610 910 c8 -5 20 -10 25 -10 6 0 3 5 -5 10 -8 5 -19 10 -25 10 -5 0
-3 -5 5 -10z"/>
<path d="M930 910 c8 -5 20 -10 25 -10 6 0 3 5 -5 10 -8 5 -19 10 -25 10 -5 0
-3 -5 5 -10z"/>
<path d="M64 871 c-17 -10 -37 -33 -44 -51 -12 -28 -11 -37 1 -59 8 -14 27
-32 42 -41 24 -13 30 -13 55 0 34 20 40 75 7 75 -14 0 -20 -7 -21 -22 -1 -12
2 -20 7 -17 4 2 6 11 2 19 -6 17 12 21 22 5 11 -18 -5 -48 -28 -54 -25 -6 -61
14 -77 44 -15 27 11 75 51 96 26 13 36 13 60 3 38 -15 79 -64 79 -94 0 -42
-31 -92 -67 -109 -20 -9 -33 -19 -30 -22 11 -11 69 28 87 59 39 64 18 137 -50
172 -38 20 -59 19 -96 -4z"/>
<path d="M384 871 c-17 -10 -37 -33 -44 -51 -12 -28 -11 -37 1 -59 8 -14 27
-32 42 -41 24 -13 30 -13 55 0 34 20 40 75 7 75 -14 0 -20 -7 -21 -22 -1 -12
2 -20 7 -17 4 2 6 11 2 19 -6 17 12 21 22 5 11 -18 -5 -48 -28 -54 -25 -6 -61
14 -77 44 -15 27 11 75 51 96 26 13 36 13 60 3 38 -15 79 -64 79 -94 0 -42
-31 -92 -67 -109 -20 -9 -33 -19 -30 -22 11 -11 69 28 87 59 39 64 18 137 -50
172 -38 20 -59 19 -96 -4z"/>
<path d="M704 871 c-17 -10 -37 -33 -44 -51 -12 -28 -11 -37 1 -59 8 -14 27
-32 42 -41 24 -13 30 -13 55 0 34 20 40 75 7 75 -14 0 -20 -7 -21 -22 -1 -12
2 -20 7 -17 4 2 6 11 2 19 -6 17 12 21 22 5 11 -18 -5 -48 -28 -54 -25 -6 -61
14 -77 44 -15 27 11 75 51 96 26 13 36 13 60 3 38 -15 79 -64 79 -94 0 -42
-31 -92 -67 -109 -20 -9 -33 -19 -30 -22 11 -11 69 28 87 59 39 64 18 137 -50
172 -38 20 -59 19 -96 -4z"/>
<path d="M80 835 c0 -3 2 -5 5 -5 3 0 5 2 5 5 0 3 -2 5 -5 5 -3 0 -5 -2 -5 -5z"/>
<path d="M140 834 c0 -7 27 -34 34 -34 11 0 -6 29 -20 34 -8 3 -14 3 -14 0z"/>
<path d="M400 835 c0 -3 2 -5 5 -5 3 0 5 2 5 5 0 3 -2 5 -5 5 -3 0 -5 -2 -5
-5z"/>
<path d="M460 834 c0 -7 27 -34 34 -34 11 0 -6 29 -20 34 -8 3 -14 3 -14 0z"/>
<path d="M720 835 c0 -3 2 -5 5 -5 3 0 5 2 5 5 0 3 -2 5 -5 5 -3 0 -5 -2 -5
-5z"/>
<path d="M780 834 c0 -3 6 -12 14 -20 19 -18 27 -18 20 0 -5 14 -34 31 -34 20z"/>
<path d="M60 815 c0 -3 2 -5 5 -5 3 0 5 2 5 5 0 3 -2 5 -5 5 -3 0 -5 -2 -5 -5z"/>
<path d="M380 815 c0 -3 2 -5 5 -5 3 0 5 2 5 5 0 3 -2 5 -5 5 -3 0 -5 -2 -5
-5z"/>
<path d="M700 815 c0 -3 2 -5 5 -5 3 0 5 2 5 5 0 3 -2 5 -5 5 -3 0 -5 -2 -5
-5z"/>
<path d="M65 760 c3 -5 8 -10 11 -10 3 0 2 5 -1 10 -3 6 -8 10 -11 10 -3 0 -2
-4 1 -10z"/>
<path d="M270 738 c0 -23 -8 -38 -27 -54 -22 -17 -27 -29 -25 -60 l2 -39 -14
30 c-18 38 -18 32 -2 -29 12 -48 14 -50 62 -62 27 -7 50 -13 52 -14 1 0 2 5 2
10 0 6 -20 15 -44 22 -44 12 -44 12 -48 62 -3 45 0 54 24 76 18 16 28 34 28
53 0 25 2 27 23 17 21 -11 21 -10 3 4 -29 23 -36 20 -36 -16z"/>
<path d="M385 760 c3 -5 8 -10 11 -10 3 0 2 5 -1 10 -3 6 -8 10 -11 10 -3 0
-2 -4 1 -10z"/>
<path d="M590 738 c0 -23 -8 -38 -27 -54 -22 -17 -27 -29 -25 -60 l2 -39 -14
30 c-18 38 -18 32 -2 -29 12 -48 14 -50 62 -62 27 -7 50 -13 52 -14 1 0 2 5 2
10 0 6 -20 15 -44 22 -44 12 -44 12 -48 62 -3 45 0 54 24 76 18 16 28 34 28
53 0 25 2 27 23 17 21 -11 21 -10 3 4 -29 23 -36 20 -36 -16z"/>
<path d="M705 760 c3 -5 8 -10 11 -10 3 0 2 5 -1 10 -3 6 -8 10 -11 10 -3 0
-2 -4 1 -10z"/>
<path d="M910 738 c0 -23 -8 -38 -27 -54 -22 -17 -27 -29 -25 -60 l2 -39 -14
30 c-18 38 -18 32 -2 -29 12 -48 14 -50 62 -62 27 -7 50 -13 52 -14 1 0 2 5 2
10 0 6 -20 15 -44 22 -44 12 -44 12 -48 62 -3 45 0 54 24 76 18 16 28 34 28
53 0 25 2 27 23 17 21 -11 21 -10 3 4 -29 23 -36 20 -36 -16z"/>
<path d="M0 714 c0 -11 13 -33 30 -49 32 -30 55 -28 27 3 -10 10 -15 22 -12
25 3 4 2 5 -1 2 -4 -2 -15 6 -25 18 -18 22 -18 22 -19 1z"/>
<path d="M153 715 c-17 -19 -16 -26 1 -19 15 6 30 34 18 34 -4 -1 -13 -7 -19
-15z"/>
<path d="M280 685 c-47 -47 -36 -64 12 -18 l28 27 30 -29 c32 -30 55 -28 27 3
-10 10 -15 22 -12 25 3 4 2 5 -1 2 -4 -2 -14 5 -23 16 -16 20 -17 19 -61 -26z"/>
<path d="M473 715 c-17 -19 -16 -26 1 -19 15 6 30 34 18 34 -4 -1 -13 -7 -19
-15z"/>
<path d="M600 685 c-47 -47 -36 -64 12 -18 l28 27 30 -29 c32 -30 55 -28 27 3
-10 10 -15 22 -12 25 3 4 2 5 -1 2 -4 -2 -14 5 -23 16 -16 20 -17 19 -61 -26z"/>
<path d="M793 715 c-17 -19 -16 -26 1 -19 15 6 30 34 18 34 -4 -1 -13 -7 -19
-15z"/>
<path d="M915 680 c-24 -25 -33 -40 -24 -40 19 0 72 55 67 70 -2 6 -21 -7 -43
-30z"/>
<path d="M60 685 c0 -3 2 -5 5 -5 3 0 5 2 5 5 0 3 -2 5 -5 5 -3 0 -5 -2 -5 -5z"/>
<path d="M110 685 c0 -3 2 -5 5 -5 3 0 5 2 5 5 0 3 -2 5 -5 5 -3 0 -5 -2 -5
-5z"/>
<path d="M380 685 c0 -3 2 -5 5 -5 3 0 5 2 5 5 0 3 -2 5 -5 5 -3 0 -5 -2 -5
-5z"/>
<path d="M430 685 c0 -3 2 -5 5 -5 3 0 5 2 5 5 0 3 -2 5 -5 5 -3 0 -5 -2 -5
-5z"/>
<path d="M700 685 c0 -3 2 -5 5 -5 3 0 5 2 5 5 0 3 -2 5 -5 5 -3 0 -5 -2 -5
-5z"/>
<path d="M750 685 c0 -3 2 -5 5 -5 3 0 5 2 5 5 0 3 -2 5 -5 5 -3 0 -5 -2 -5
-5z"/>
<path d="M290 590 c8 -5 20 -10 25 -10 6 0 3 5 -5 10 -8 5 -19 10 -25 10 -5 0
-3 -5 5 -10z"/>
<path d="M610 590 c8 -5 20 -10 25 -10 6 0 3 5 -5 10 -8 5 -19 10 -25 10 -5 0
-3 -5 5 -10z"/>
<path d="M930 590 c8 -5 20 -10 25 -10 6 0 3 5 -5 10 -8 5 -19 10 -25 10 -5 0
-3 -5 5 -10z"/>
<path d="M64 551 c-17 -10 -37 -33 -44 -51 -12 -28 -11 -37 1 -59 8 -14 27
-32 42 -41 24 -13 30 -13 55 0 34 20 40 75 7 75 -14 0 -20 -7 -21 -22 -1 -12
2 -20 7 -17 4 2 6 11 2 19 -6 17 12 21 22 5 11 -18 -5 -48 -28 -54 -25 -6 -61
14 -77 44 -15 27 11 75 51 96 26 13 36 13 60 3 38 -15 79 -64 79 -94 0 -42
-31 -92 -67 -109 -20 -9 -33 -19 -30 -22 11 -11 69 28 87 59 39 64 18 137 -50
172 -38 20 -59 19 -96 -4z"/>
<path d="M384 551 c-17 -10 -37 -33 -44 -51 -12 -28 -11 -37 1 -59 8 -14 27
-32 42 -41 24 -13 30 -13 55 0 34 20 40 75 7 75 -14 0 -20 -7 -21 -22 -1 -12
2 -20 7 -17 4 2 6 11 2 19 -6 17 12 21 22 5 11 -18 -5 -48 -28 -54 -25 -6 -61
14 -77 44 -15 27 11 75 51 96 26 13 36 13 60 3 38 -15 79 -64 79 -94 0 -42
-31 -92 -67 -109 -20 -9 -33 -19 -30 -22 11 -11 69 28 87 59 39 64 18 137 -50
172 -38 20 -59 19 -96 -4z"/>
<path d="M704 551 c-17 -10 -37 -33 -44 -51 -12 -28 -11 -37 1 -59 8 -14 27
-32 42 -41 24 -13 30 -13 55 0 34 20 40 75 7 75 -14 0 -20 -7 -21 -22 -1 -12
2 -20 7 -17 4 2 6 11 2 19 -6 17 12 21 22 5 11 -18 -5 -48 -28 -54 -25 -6 -61
14 -77 44 -15 27 11 75 51 96 26 13 36 13 60 3 38 -15 79 -64 79 -94 0 -42
-31 -92 -67 -109 -20 -9 -33 -19 -30 -22 11 -11 69 28 87 59 39 64 18 137 -50
172 -38 20 -59 19 -96 -4z"/>
<path d="M80 515 c0 -3 2 -5 5 -5 3 0 5 2 5 5 0 3 -2 5 -5 5 -3 0 -5 -2 -5 -5z"/>
<path d="M140 514 c0 -7 27 -34 34 -34 11 0 -6 29 -20 34 -8 3 -14 3 -14 0z"/>
<path d="M400 515 c0 -3 2 -5 5 -5 3 0 5 2 5 5 0 3 -2 5 -5 5 -3 0 -5 -2 -5
-5z"/>
<path d="M460 514 c0 -3 6 -12 14 -20 19 -18 27 -18 20 0 -5 14 -34 31 -34 20z"/>
<path d="M720 515 c0 -3 2 -5 5 -5 3 0 5 2 5 5 0 3 -2 5 -5 5 -3 0 -5 -2 -5
-5z"/>
<path d="M780 514 c0 -7 27 -34 34 -34 11 0 -6 29 -20 34 -8 3 -14 3 -14 0z"/>
<path d="M60 495 c0 -3 2 -5 5 -5 3 0 5 2 5 5 0 3 -2 5 -5 5 -3 0 -5 -2 -5 -5z"/>
<path d="M380 495 c0 -3 2 -5 5 -5 3 0 5 2 5 5 0 3 -2 5 -5 5 -3 0 -5 -2 -5
-5z"/>
<path d="M700 495 c0 -3 2 -5 5 -5 3 0 5 2 5 5 0 3 -2 5 -5 5 -3 0 -5 -2 -5
-5z"/>
<path d="M65 440 c3 -5 8 -10 11 -10 3 0 2 5 -1 10 -3 6 -8 10 -11 10 -3 0 -2
-4 1 -10z"/>
<path d="M270 418 c0 -23 -8 -38 -27 -54 -22 -17 -27 -29 -25 -60 l2 -39 -14
30 c-18 38 -18 32 -2 -29 12 -48 14 -50 62 -62 27 -7 50 -13 52 -14 1 0 2 5 2
10 0 6 -20 15 -44 22 -44 12 -44 12 -48 62 -3 45 0 54 24 76 18 16 28 34 28
53 0 25 2 27 23 17 21 -11 21 -10 3 4 -29 23 -36 20 -36 -16z"/>
<path d="M385 440 c3 -5 8 -10 11 -10 3 0 2 5 -1 10 -3 6 -8 10 -11 10 -3 0
-2 -4 1 -10z"/>
<path d="M590 418 c0 -23 -8 -38 -27 -54 -22 -17 -27 -29 -25 -60 l2 -39 -14
30 c-18 38 -18 32 -2 -29 12 -48 14 -50 62 -62 27 -7 50 -13 52 -14 1 0 2 5 2
10 0 6 -20 15 -44 22 -44 12 -44 12 -48 62 -3 45 0 54 24 76 18 16 28 34 28
53 0 25 2 27 23 17 21 -11 21 -10 3 4 -29 23 -36 20 -36 -16z"/>
<path d="M705 440 c3 -5 8 -10 11 -10 3 0 2 5 -1 10 -3 6 -8 10 -11 10 -3 0
-2 -4 1 -10z"/>
<path d="M910 418 c0 -23 -8 -38 -27 -54 -22 -17 -27 -29 -25 -60 l2 -39 -14
30 c-18 38 -18 32 -2 -29 12 -48 14 -50 62 -62 27 -7 50 -13 52 -14 1 0 2 5 2
10 0 6 -20 15 -44 22 -44 12 -44 12 -48 62 -3 45 0 54 24 76 18 16 28 34 28
53 0 25 2 27 23 17 21 -11 21 -10 3 4 -29 23 -36 20 -36 -16z"/>
<path d="M0 394 c0 -11 13 -33 30 -49 32 -30 55 -28 27 3 -10 10 -15 22 -12
25 3 4 2 5 -1 2 -4 -2 -15 6 -25 18 -18 22 -18 22 -19 1z"/>
<path d="M153 395 c-17 -19 -16 -26 1 -19 15 6 30 34 18 34 -4 -1 -13 -7 -19
-15z"/>
<path d="M280 365 c-47 -47 -36 -64 12 -18 l28 27 30 -29 c32 -30 55 -28 27 3
-10 10 -15 22 -12 25 3 4 2 5 -1 2 -4 -2 -14 5 -23 16 -16 20 -17 19 -61 -26z"/>
<path d="M473 395 c-17 -19 -16 -26 1 -19 15 6 30 34 18 34 -4 -1 -13 -7 -19
-15z"/>
<path d="M600 365 c-47 -47 -36 -64 12 -18 l28 27 30 -29 c32 -30 55 -28 27 3
-10 10 -15 22 -12 25 3 4 2 5 -1 2 -4 -2 -14 5 -23 16 -16 20 -17 19 -61 -26z"/>
<path d="M793 395 c-17 -19 -16 -26 1 -19 15 6 30 34 18 34 -4 -1 -13 -7 -19
-15z"/>
<path d="M915 360 c-24 -25 -33 -40 -24 -40 19 0 72 55 67 70 -2 6 -21 -7 -43
-30z"/>
<path d="M60 365 c0 -3 2 -5 5 -5 3 0 5 2 5 5 0 3 -2 5 -5 5 -3 0 -5 -2 -5 -5z"/>
<path d="M110 365 c0 -3 2 -5 5 -5 3 0 5 2 5 5 0 3 -2 5 -5 5 -3 0 -5 -2 -5
-5z"/>
<path d="M380 365 c0 -3 2 -5 5 -5 3 0 5 2 5 5 0 3 -2 5 -5 5 -3 0 -5 -2 -5
-5z"/>
<path d="M430 365 c0 -3 2 -5 5 -5 3 0 5 2 5 5 0 3 -2 5 -5 5 -3 0 -5 -2 -5
-5z"/>
<path d="M700 365 c0 -3 2 -5 5 -5 3 0 5 2 5 5 0 3 -2 5 -5 5 -3 0 -5 -2 -5
-5z"/>
<path d="M750 365 c0 -3 2 -5 5 -5 3 0 5 2 5 5 0 3 -2 5 -5 5 -3 0 -5 -2 -5
-5z"/>
<path d="M290 270 c8 -5 20 -10 25 -10 6 0 3 5 -5 10 -8 5 -19 10 -25 10 -5 0
-3 -5 5 -10z"/>
<path d="M610 270 c8 -5 20 -10 25 -10 6 0 3 5 -5 10 -8 5 -19 10 -25 10 -5 0
-3 -5 5 -10z"/>
<path d="M930 270 c8 -5 20 -10 25 -10 6 0 3 5 -5 10 -8 5 -19 10 -25 10 -5 0
-3 -5 5 -10z"/>
<path d="M64 231 c-17 -10 -37 -33 -44 -51 -12 -28 -11 -37 1 -59 8 -14 27
-32 42 -41 24 -13 30 -13 55 0 34 20 40 75 7 75 -14 0 -20 -7 -21 -22 -1 -12
2 -20 7 -17 4 2 6 11 2 19 -6 17 12 21 22 5 11 -18 -5 -48 -28 -54 -25 -6 -61
14 -77 44 -15 27 11 75 51 96 26 13 36 13 60 3 38 -15 79 -64 79 -94 0 -42
-31 -92 -67 -109 -20 -9 -33 -19 -30 -22 11 -11 69 28 87 59 39 64 18 137 -50
172 -38 20 -59 19 -96 -4z"/>
<path d="M384 231 c-17 -10 -37 -33 -44 -51 -12 -28 -11 -37 1 -59 8 -14 27
-32 42 -41 24 -13 30 -13 55 0 34 20 40 75 7 75 -14 0 -20 -7 -21 -22 -1 -12
2 -20 7 -17 4 2 6 11 2 19 -6 17 12 21 22 5 11 -18 -5 -48 -28 -54 -25 -6 -61
14 -77 44 -15 27 11 75 51 96 26 13 36 13 60 3 38 -15 79 -64 79 -94 0 -42
-31 -92 -67 -109 -20 -9 -33 -19 -30 -22 11 -11 69 28 87 59 39 64 18 137 -50
172 -38 20 -59 19 -96 -4z"/>
<path d="M704 231 c-17 -10 -37 -33 -44 -51 -12 -28 -11 -37 1 -59 8 -14 27
-32 42 -41 24 -13 30 -13 55 0 34 20 40 75 7 75 -14 0 -20 -7 -21 -22 -1 -12
2 -20 7 -17 4 2 6 11 2 19 -6 17 12 21 22 5 11 -18 -5 -48 -28 -54 -25 -6 -61
14 -77 44 -15 27 11 75 51 96 26 13 36 13 60 3 38 -15 79 -64 79 -94 0 -42
-31 -92 -67 -109 -20 -9 -33 -19 -30 -22 11 -11 69 28 87 59 39 64 18 137 -50
172 -38 20 -59 19 -96 -4z"/>
<path d="M80 195 c0 -3 2 -5 5 -5 3 0 5 2 5 5 0 3 -2 5 -5 5 -3 0 -5 -2 -5 -5z"/>
<path d="M140 194 c0 -3 6 -12 14 -20 19 -18 27 -18 20 0 -5 14 -34 31 -34 20z"/>
<path d="M400 195 c0 -3 2 -5 5 -5 3 0 5 2 5 5 0 3 -2 5 -5 5 -3 0 -5 -2 -5
-5z"/>
<path d="M460 194 c0 -7 27 -34 34 -34 3 0 3 6 0 14 -5 14 -34 31 -34 20z"/>
<path d="M720 195 c0 -3 2 -5 5 -5 3 0 5 2 5 5 0 3 -2 5 -5 5 -3 0 -5 -2 -5
-5z"/>
<path d="M780 194 c0 -7 27 -34 34 -34 3 0 3 6 0 14 -5 14 -34 31 -34 20z"/>
<path d="M60 175 c0 -3 2 -5 5 -5 3 0 5 2 5 5 0 3 -2 5 -5 5 -3 0 -5 -2 -5 -5z"/>
<path d="M380 175 c0 -3 2 -5 5 -5 3 0 5 2 5 5 0 3 -2 5 -5 5 -3 0 -5 -2 -5
-5z"/>
<path d="M700 175 c0 -3 2 -5 5 -5 3 0 5 2 5 5 0 3 -2 5 -5 5 -3 0 -5 -2 -5
-5z"/>
<path d="M65 120 c3 -5 8 -10 11 -10 3 0 2 5 -1 10 -3 6 -8 10 -11 10 -3 0 -2
-4 1 -10z"/>
<path d="M270 95 c0 -24 -6 -37 -20 -45 -11 -6 -25 -20 -31 -32 -7 -14 1 -9
25 14 24 23 36 44 36 62 0 24 2 26 23 16 21 -11 21 -10 3 4 -29 23 -36 20 -36
-19z"/>
<path d="M385 120 c3 -5 8 -10 11 -10 3 0 2 5 -1 10 -3 6 -8 10 -11 10 -3 0
-2 -4 1 -10z"/>
<path d="M590 95 c0 -24 -6 -37 -20 -45 -11 -6 -25 -20 -31 -32 -7 -14 1 -9
25 14 24 23 36 44 36 62 0 24 2 26 23 16 21 -11 21 -10 3 4 -29 23 -36 20 -36
-19z"/>
<path d="M705 120 c3 -5 8 -10 11 -10 3 0 2 5 -1 10 -3 6 -8 10 -11 10 -3 0
-2 -4 1 -10z"/>
<path d="M910 95 c0 -24 -6 -37 -20 -45 -11 -6 -25 -20 -31 -32 -7 -14 1 -9
25 14 24 23 36 44 36 62 0 24 2 26 23 16 21 -11 21 -10 3 4 -29 23 -36 20 -36
-19z"/>
<path d="M0 74 c0 -11 13 -33 30 -49 32 -30 55 -28 27 3 -10 10 -15 22 -12 25
3 4 2 5 -1 2 -4 -2 -15 6 -25 18 -18 22 -18 22 -19 1z"/>
<path d="M153 75 c-17 -19 -16 -26 1 -19 15 6 30 34 18 34 -4 -1 -13 -7 -19
-15z"/>
<path d="M280 45 c-47 -47 -36 -64 12 -18 l28 27 30 -29 c32 -30 55 -28 27 3
-10 10 -15 22 -12 25 3 4 2 5 -1 2 -4 -2 -14 5 -23 16 -16 20 -17 19 -61 -26z"/>
<path d="M473 75 c-17 -19 -16 -26 1 -19 15 6 30 34 18 34 -4 -1 -13 -7 -19
-15z"/>
<path d="M600 45 c-47 -47 -36 -64 12 -18 l28 27 30 -29 c32 -30 55 -28 27 3
-10 10 -15 22 -12 25 3 4 2 5 -1 2 -4 -2 -14 5 -23 16 -16 20 -17 19 -61 -26z"/>
<path d="M793 75 c-17 -19 -16 -26 1 -19 15 6 30 34 18 34 -4 -1 -13 -7 -19
-15z"/>
<path d="M915 40 c-24 -25 -33 -40 -24 -40 19 0 72 55 67 70 -2 6 -21 -7 -43
-30z"/>
<path d="M60 45 c0 -3 2 -5 5 -5 3 0 5 2 5 5 0 3 -2 5 -5 5 -3 0 -5 -2 -5 -5z"/>
<path d="M110 45 c0 -3 2 -5 5 -5 3 0 5 2 5 5 0 3 -2 5 -5 5 -3 0 -5 -2 -5 -5z"/>
<path d="M380 45 c0 -3 2 -5 5 -5 3 0 5 2 5 5 0 3 -2 5 -5 5 -3 0 -5 -2 -5 -5z"/>
<path d="M430 45 c0 -3 2 -5 5 -5 3 0 5 2 5 5 0 3 -2 5 -5 5 -3 0 -5 -2 -5 -5z"/>
<path d="M700 45 c0 -3 2 -5 5 -5 3 0 5 2 5 5 0 3 -2 5 -5 5 -3 0 -5 -2 -5 -5z"/>
<path d="M750 45 c0 -3 2 -5 5 -5 3 0 5 2 5 5 0 3 -2 5 -5 5 -3 0 -5 -2 -5 -5z"/>
</g>
<g transform="translate(0.000000,96.000000) scale(0.100000,-0.100000)"
fill="#cb423a" stroke="none">
<path d="M191 960 c0 -3 6 -27 13 -54 12 -48 14 -50 62 -62 27 -7 50 -13 52
-14 1 0 2 5 2 10 0 6 -20 15 -45 22 -45 12 -45 13 -46 58 -2 34 -3 38 -6 15
l-5 -30 -13 30 c-7 17 -14 28 -14 25z"/>
<path d="M511 960 c0 -3 6 -27 13 -54 12 -48 14 -50 62 -62 27 -7 50 -13 52
-14 1 0 2 5 2 10 0 6 -20 15 -45 22 -45 12 -45 13 -46 58 -2 34 -3 38 -6 15
l-5 -30 -13 30 c-7 17 -14 28 -14 25z"/>
<path d="M831 960 c0 -3 6 -27 13 -54 12 -48 14 -50 62 -62 27 -7 50 -13 52
-14 1 0 2 5 2 10 0 6 -20 15 -45 22 -45 12 -45 13 -46 58 -2 34 -3 38 -6 15
l-5 -30 -13 30 c-7 17 -14 28 -14 25z"/>
<path d="M90 875 c0 -3 2 -5 5 -5 3 0 5 2 5 5 0 3 -2 5 -5 5 -3 0 -5 -2 -5 -5z"/>
<path d="M130 875 c0 -3 2 -5 5 -5 3 0 5 2 5 5 0 3 -2 5 -5 5 -3 0 -5 -2 -5
-5z"/>
<path d="M410 875 c0 -3 2 -5 5 -5 3 0 5 2 5 5 0 3 -2 5 -5 5 -3 0 -5 -2 -5
-5z"/>
<path d="M450 875 c0 -3 2 -5 5 -5 3 0 5 2 5 5 0 3 -2 5 -5 5 -3 0 -5 -2 -5
-5z"/>
<path d="M730 875 c0 -3 2 -5 5 -5 3 0 5 2 5 5 0 3 -2 5 -5 5 -3 0 -5 -2 -5
-5z"/>
<path d="M770 875 c0 -3 2 -5 5 -5 3 0 5 2 5 5 0 3 -2 5 -5 5 -3 0 -5 -2 -5
-5z"/>
<path d="M70 865 c0 -3 2 -5 5 -5 3 0 5 2 5 5 0 3 -2 5 -5 5 -3 0 -5 -2 -5 -5z"/>
<path d="M150 865 c0 -3 2 -5 5 -5 3 0 5 2 5 5 0 3 -2 5 -5 5 -3 0 -5 -2 -5
-5z"/>
<path d="M390 865 c0 -3 2 -5 5 -5 3 0 5 2 5 5 0 3 -2 5 -5 5 -3 0 -5 -2 -5
-5z"/>
<path d="M470 865 c0 -3 2 -5 5 -5 3 0 5 2 5 5 0 3 -2 5 -5 5 -3 0 -5 -2 -5
-5z"/>
<path d="M710 865 c0 -3 2 -5 5 -5 3 0 5 2 5 5 0 3 -2 5 -5 5 -3 0 -5 -2 -5
-5z"/>
<path d="M790 865 c0 -3 2 -5 5 -5 3 0 5 2 5 5 0 3 -2 5 -5 5 -3 0 -5 -2 -5
-5z"/>
<path d="M44 848 c-4 -7 -3 -8 4 -4 7 4 12 9 12 12 0 8 -9 4 -16 -8z"/>
<path d="M184 841 c21 -23 26 -26 26 -11 0 5 -10 15 -22 21 -23 12 -23 12 -4
-10z"/>
<path d="M364 848 c-4 -7 -3 -8 4 -4 12 7 16 16 8 16 -3 0 -8 -5 -12 -12z"/>
<path d="M504 841 c21 -23 26 -26 26 -11 0 5 -10 15 -22 21 -23 12 -23 12 -4
-10z"/>
<path d="M684 848 c-4 -7 -3 -8 4 -4 12 7 16 16 8 16 -3 0 -8 -5 -12 -12z"/>
<path d="M824 841 c21 -23 26 -26 26 -11 0 5 -10 15 -22 21 -23 12 -23 12 -4
-10z"/>
<path d="M80 835 c0 -3 2 -5 5 -5 3 0 5 2 5 5 0 3 -2 5 -5 5 -3 0 -5 -2 -5 -5z"/>
<path d="M140 835 c0 -3 2 -5 5 -5 3 0 5 2 5 5 0 3 -2 5 -5 5 -3 0 -5 -2 -5
-5z"/>
<path d="M400 835 c0 -3 2 -5 5 -5 3 0 5 2 5 5 0 3 -2 5 -5 5 -3 0 -5 -2 -5
-5z"/>
<path d="M460 835 c0 -3 2 -5 5 -5 3 0 5 2 5 5 0 3 -2 5 -5 5 -3 0 -5 -2 -5
-5z"/>
<path d="M720 835 c0 -3 2 -5 5 -5 3 0 5 2 5 5 0 3 -2 5 -5 5 -3 0 -5 -2 -5
-5z"/>
<path d="M780 835 c0 -3 2 -5 5 -5 3 0 5 2 5 5 0 3 -2 5 -5 5 -3 0 -5 -2 -5
-5z"/>
<path d="M30 825 c0 -3 2 -5 5 -5 3 0 5 2 5 5 0 3 -2 5 -5 5 -3 0 -5 -2 -5 -5z"/>
<path d="M160 825 c0 -3 2 -5 5 -5 3 0 5 2 5 5 0 3 -2 5 -5 5 -3 0 -5 -2 -5
-5z"/>
<path d="M350 825 c0 -3 2 -5 5 -5 3 0 5 2 5 5 0 3 -2 5 -5 5 -3 0 -5 -2 -5
-5z"/>
<path d="M480 825 c0 -3 2 -5 5 -5 3 0 5 2 5 5 0 3 -2 5 -5 5 -3 0 -5 -2 -5
-5z"/>
<path d="M670 825 c0 -3 2 -5 5 -5 3 0 5 2 5 5 0 3 -2 5 -5 5 -3 0 -5 -2 -5
-5z"/>
<path d="M800 825 c0 -3 2 -5 5 -5 3 0 5 2 5 5 0 3 -2 5 -5 5 -3 0 -5 -2 -5
-5z"/>
<path d="M60 815 c0 -3 2 -5 5 -5 3 0 5 2 5 5 0 3 -2 5 -5 5 -3 0 -5 -2 -5 -5z"/>
<path d="M380 815 c0 -3 2 -5 5 -5 3 0 5 2 5 5 0 3 -2 5 -5 5 -3 0 -5 -2 -5
-5z"/>
<path d="M700 815 c0 -3 2 -5 5 -5 3 0 5 2 5 5 0 3 -2 5 -5 5 -3 0 -5 -2 -5
-5z"/>
<path d="M20 805 c0 -3 2 -5 5 -5 3 0 5 2 5 5 0 3 -2 5 -5 5 -3 0 -5 -2 -5 -5z"/>
<path d="M170 805 c0 -3 2 -5 5 -5 3 0 5 2 5 5 0 3 -2 5 -5 5 -3 0 -5 -2 -5
-5z"/>
<path d="M210 805 c0 -3 2 -5 5 -5 3 0 5 2 5 5 0 3 -2 5 -5 5 -3 0 -5 -2 -5
-5z"/>
<path d="M340 805 c0 -3 2 -5 5 -5 3 0 5 2 5 5 0 3 -2 5 -5 5 -3 0 -5 -2 -5
-5z"/>
<path d="M490 805 c0 -3 2 -5 5 -5 3 0 5 2 5 5 0 3 -2 5 -5 5 -3 0 -5 -2 -5
-5z"/>
<path d="M530 805 c0 -3 2 -5 5 -5 3 0 5 2 5 5 0 3 -2 5 -5 5 -3 0 -5 -2 -5
-5z"/>
<path d="M660 805 c0 -3 2 -5 5 -5 3 0 5 2 5 5 0 3 -2 5 -5 5 -3 0 -5 -2 -5
-5z"/>
<path d="M810 805 c0 -3 2 -5 5 -5 3 0 5 2 5 5 0 3 -2 5 -5 5 -3 0 -5 -2 -5
-5z"/>
<path d="M850 805 c0 -3 2 -5 5 -5 3 0 5 2 5 5 0 3 -2 5 -5 5 -3 0 -5 -2 -5
-5z"/>
<path d="M109 798 c-6 -12 -4 -46 2 -42 4 2 5 12 2 21 -5 13 -2 15 11 10 10
-4 15 -3 11 3 -6 9 -23 14 -26 8z"/>
<path d="M429 798 c-6 -12 -4 -46 2 -42 4 2 5 12 2 21 -5 13 -2 15 11 10 10
-4 15 -3 11 3 -6 9 -23 14 -26 8z"/>
<path d="M749 798 c-6 -12 -4 -46 2 -42 4 2 5 12 2 21 -5 13 -2 15 11 10 10
-4 15 -3 11 3 -6 9 -23 14 -26 8z"/>
<path d="M20 775 c0 -3 2 -5 5 -5 3 0 5 2 5 5 0 3 -2 5 -5 5 -3 0 -5 -2 -5 -5z"/>
<path d="M340 775 c0 -3 2 -5 5 -5 3 0 5 2 5 5 0 3 -2 5 -5 5 -3 0 -5 -2 -5
-5z"/>
<path d="M660 775 c0 -3 2 -5 5 -5 3 0 5 2 5 5 0 3 -2 5 -5 5 -3 0 -5 -2 -5
-5z"/>
<path d="M65 760 c3 -5 8 -10 11 -10 3 0 2 5 -1 10 -3 6 -8 10 -11 10 -3 0 -2
-4 1 -10z"/>
<path d="M280 766 c0 -3 9 -10 20 -16 11 -6 20 -8 20 -6 0 3 -9 10 -20 16 -11
6 -20 8 -20 6z"/>
<path d="M385 760 c3 -5 8 -10 11 -10 3 0 2 5 -1 10 -3 6 -8 10 -11 10 -3 0
-2 -4 1 -10z"/>
<path d="M600 766 c0 -3 9 -10 20 -16 11 -6 20 -8 20 -6 0 3 -9 10 -20 16 -11
6 -20 8 -20 6z"/>
<path d="M705 760 c3 -5 8 -10 11 -10 3 0 2 5 -1 10 -3 6 -8 10 -11 10 -3 0
-2 -4 1 -10z"/>
<path d="M920 766 c0 -3 9 -10 20 -16 11 -6 20 -8 20 -6 0 3 -9 10 -20 16 -11
6 -20 8 -20 6z"/>
<path d="M30 756 c0 -2 8 -10 18 -17 15 -13 16 -12 3 4 -13 16 -21 21 -21 13z"/>
<path d="M350 756 c0 -2 8 -10 18 -17 15 -13 16 -12 3 4 -13 16 -21 21 -21 13z"/>
<path d="M670 756 c0 -2 8 -10 18 -17 15 -13 16 -12 3 4 -13 16 -21 21 -21 13z"/>
<path d="M130 745 c0 -3 2 -5 5 -5 3 0 5 2 5 5 0 3 -2 5 -5 5 -3 0 -5 -2 -5
-5z"/>
<path d="M450 745 c0 -3 2 -5 5 -5 3 0 5 2 5 5 0 3 -2 5 -5 5 -3 0 -5 -2 -5
-5z"/>
<path d="M770 745 c0 -3 2 -5 5 -5 3 0 5 2 5 5 0 3 -2 5 -5 5 -3 0 -5 -2 -5
-5z"/>
<path d="M210 735 c0 -3 2 -5 5 -5 3 0 5 2 5 5 0 3 -2 5 -5 5 -3 0 -5 -2 -5
-5z"/>
<path d="M530 735 c0 -3 2 -5 5 -5 3 0 5 2 5 5 0 3 -2 5 -5 5 -3 0 -5 -2 -5
-5z"/>
<path d="M850 735 c0 -3 2 -5 5 -5 3 0 5 2 5 5 0 3 -2 5 -5 5 -3 0 -5 -2 -5
-5z"/>
<path d="M0 714 c0 -11 13 -33 30 -49 32 -30 55 -28 27 3 -10 10 -15 22 -12
25 3 4 2 5 -1 2 -4 -2 -15 6 -25 18 -18 22 -18 22 -19 1z"/>
<path d="M70 725 c0 -3 2 -5 5 -5 3 0 5 2 5 5 0 3 -2 5 -5 5 -3 0 -5 -2 -5 -5z"/>
<path d="M100 725 c0 -3 2 -5 5 -5 3 0 5 2 5 5 0 3 -2 5 -5 5 -3 0 -5 -2 -5
-5z"/>
<path d="M170 725 c0 -3 2 -5 5 -5 3 0 5 2 5 5 0 3 -2 5 -5 5 -3 0 -5 -2 -5
-5z"/>
<path d="M280 685 c-47 -47 -36 -64 12 -18 l28 27 30 -29 c32 -30 55 -28 27 3
-10 10 -15 22 -12 25 3 4 2 5 -1 2 -4 -2 -14 5 -23 16 -16 20 -17 19 -61 -26z"/>
<path d="M390 725 c0 -3 2 -5 5 -5 3 0 5 2 5 5 0 3 -2 5 -5 5 -3 0 -5 -2 -5
-5z"/>
<path d="M420 725 c0 -3 2 -5 5 -5 3 0 5 2 5 5 0 3 -2 5 -5 5 -3 0 -5 -2 -5
-5z"/>
<path d="M490 725 c0 -3 2 -5 5 -5 3 0 5 2 5 5 0 3 -2 5 -5 5 -3 0 -5 -2 -5
-5z"/>
<path d="M600 685 c-47 -47 -36 -64 12 -18 l28 27 30 -29 c32 -30 55 -28 27 3
-10 10 -15 22 -12 25 3 4 2 5 -1 2 -4 -2 -14 5 -23 16 -16 20 -17 19 -61 -26z"/>
<path d="M710 725 c0 -3 2 -5 5 -5 3 0 5 2 5 5 0 3 -2 5 -5 5 -3 0 -5 -2 -5
-5z"/>
<path d="M740 725 c0 -3 2 -5 5 -5 3 0 5 2 5 5 0 3 -2 5 -5 5 -3 0 -5 -2 -5
-5z"/>
<path d="M810 725 c0 -3 2 -5 5 -5 3 0 5 2 5 5 0 3 -2 5 -5 5 -3 0 -5 -2 -5
-5z"/>
<path d="M200 715 c0 -3 2 -5 5 -5 3 0 5 2 5 5 0 3 -2 5 -5 5 -3 0 -5 -2 -5
-5z"/>
<path d="M520 715 c0 -3 2 -5 5 -5 3 0 5 2 5 5 0 3 -2 5 -5 5 -3 0 -5 -2 -5
-5z"/>
<path d="M840 715 c0 -3 2 -5 5 -5 3 0 5 2 5 5 0 3 -2 5 -5 5 -3 0 -5 -2 -5
-5z"/>
<path d="M915 680 c-24 -25 -33 -40 -24 -40 19 0 72 55 67 70 -2 6 -21 -7 -43
-30z"/>
<path d="M160 705 c0 -3 2 -5 5 -5 3 0 5 2 5 5 0 3 -2 5 -5 5 -3 0 -5 -2 -5
-5z"/>
<path d="M480 705 c0 -3 2 -5 5 -5 3 0 5 2 5 5 0 3 -2 5 -5 5 -3 0 -5 -2 -5
-5z"/>
<path d="M800 705 c0 -3 2 -5 5 -5 3 0 5 2 5 5 0 3 -2 5 -5 5 -3 0 -5 -2 -5
-5z"/>
<path d="M140 695 c0 -3 2 -5 5 -5 3 0 5 2 5 5 0 3 -2 5 -5 5 -3 0 -5 -2 -5
-5z"/>
<path d="M190 695 c0 -3 2 -5 5 -5 3 0 5 2 5 5 0 3 -2 5 -5 5 -3 0 -5 -2 -5
-5z"/>
<path d="M239 681 c-18 -14 -23 -27 -21 -57 l2 -39 -14 30 c-18 38 -18 32 -2
-29 12 -48 14 -50 62 -62 27 -7 50 -13 52 -14 1 0 2 5 2 10 0 6 -20 15 -44 22
-44 12 -44 12 -48 62 -3 44 0 54 21 74 29 27 22 29 -10 3z"/>
<path d="M460 695 c0 -3 2 -5 5 -5 3 0 5 2 5 5 0 3 -2 5 -5 5 -3 0 -5 -2 -5
-5z"/>
<path d="M510 695 c0 -3 2 -5 5 -5 3 0 5 2 5 5 0 3 -2 5 -5 5 -3 0 -5 -2 -5
-5z"/>
<path d="M559 681 c-18 -14 -23 -27 -21 -57 l2 -39 -14 30 c-18 38 -18 32 -2
-29 12 -48 14 -50 62 -62 27 -7 50 -13 52 -14 1 0 2 5 2 10 0 6 -20 15 -44 22
-44 12 -44 12 -48 62 -3 44 0 54 21 74 29 27 22 29 -10 3z"/>
<path d="M780 695 c0 -3 2 -5 5 -5 3 0 5 2 5 5 0 3 -2 5 -5 5 -3 0 -5 -2 -5
-5z"/>
<path d="M830 695 c0 -3 2 -5 5 -5 3 0 5 2 5 5 0 3 -2 5 -5 5 -3 0 -5 -2 -5
-5z"/>
<path d="M879 681 c-18 -14 -23 -27 -21 -57 l2 -39 -14 30 c-18 38 -18 32 -2
-29 12 -48 14 -50 62 -62 27 -7 50 -13 52 -14 1 0 2 5 2 10 0 6 -20 15 -44 22
-44 12 -44 12 -48 62 -3 44 0 54 21 74 29 27 22 29 -10 3z"/>
<path d="M60 685 c0 -3 2 -5 5 -5 3 0 5 2 5 5 0 3 -2 5 -5 5 -3 0 -5 -2 -5 -5z"/>
<path d="M110 685 c0 -3 2 -5 5 -5 3 0 5 2 5 5 0 3 -2 5 -5 5 -3 0 -5 -2 -5
-5z"/>
<path d="M380 685 c0 -3 2 -5 5 -5 3 0 5 2 5 5 0 3 -2 5 -5 5 -3 0 -5 -2 -5
-5z"/>
<path d="M430 685 c0 -3 2 -5 5 -5 3 0 5 2 5 5 0 3 -2 5 -5 5 -3 0 -5 -2 -5
-5z"/>
<path d="M700 685 c0 -3 2 -5 5 -5 3 0 5 2 5 5 0 3 -2 5 -5 5 -3 0 -5 -2 -5
-5z"/>
<path d="M750 685 c0 -3 2 -5 5 -5 3 0 5 2 5 5 0 3 -2 5 -5 5 -3 0 -5 -2 -5
-5z"/>
<path d="M170 675 c0 -3 2 -5 5 -5 3 0 5 2 5 5 0 3 -2 5 -5 5 -3 0 -5 -2 -5
-5z"/>
<path d="M490 675 c0 -3 2 -5 5 -5 3 0 5 2 5 5 0 3 -2 5 -5 5 -3 0 -5 -2 -5
-5z"/>
<path d="M810 675 c0 -3 2 -5 5 -5 3 0 5 2 5 5 0 3 -2 5 -5 5 -3 0 -5 -2 -5
-5z"/>
<path d="M150 665 c0 -3 2 -5 5 -5 3 0 5 2 5 5 0 3 -2 5 -5 5 -3 0 -5 -2 -5
-5z"/>
<path d="M470 665 c0 -3 2 -5 5 -5 3 0 5 2 5 5 0 3 -2 5 -5 5 -3 0 -5 -2 -5
-5z"/>
<path d="M790 665 c0 -3 2 -5 5 -5 3 0 5 2 5 5 0 3 -2 5 -5 5 -3 0 -5 -2 -5
-5z"/>
<path d="M124 648 c-4 -7 -3 -8 4 -4 12 7 16 16 8 16 -3 0 -8 -5 -12 -12z"/>
<path d="M444 648 c-4 -7 -3 -8 4 -4 12 7 16 16 8 16 -3 0 -8 -5 -12 -12z"/>
<path d="M764 648 c-4 -7 -3 -8 4 -4 12 7 16 16 8 16 -3 0 -8 -5 -12 -12z"/>
<path d="M90 555 c0 -3 2 -5 5 -5 3 0 5 2 5 5 0 3 -2 5 -5 5 -3 0 -5 -2 -5 -5z"/>
<path d="M130 555 c0 -3 2 -5 5 -5 3 0 5 2 5 5 0 3 -2 5 -5 5 -3 0 -5 -2 -5
-5z"/>
<path d="M410 555 c0 -3 2 -5 5 -5 3 0 5 2 5 5 0 3 -2 5 -5 5 -3 0 -5 -2 -5
-5z"/>
<path d="M450 555 c0 -3 2 -5 5 -5 3 0 5 2 5 5 0 3 -2 5 -5 5 -3 0 -5 -2 -5
-5z"/>
<path d="M730 555 c0 -3 2 -5 5 -5 3 0 5 2 5 5 0 3 -2 5 -5 5 -3 0 -5 -2 -5
-5z"/>
<path d="M770 555 c0 -3 2 -5 5 -5 3 0 5 2 5 5 0 3 -2 5 -5 5 -3 0 -5 -2 -5
-5z"/>
<path d="M70 545 c0 -3 2 -5 5 -5 3 0 5 2 5 5 0 3 -2 5 -5 5 -3 0 -5 -2 -5 -5z"/>
<path d="M150 545 c0 -3 2 -5 5 -5 3 0 5 2 5 5 0 3 -2 5 -5 5 -3 0 -5 -2 -5
-5z"/>
<path d="M390 545 c0 -3 2 -5 5 -5 3 0 5 2 5 5 0 3 -2 5 -5 5 -3 0 -5 -2 -5
-5z"/>
<path d="M470 545 c0 -3 2 -5 5 -5 3 0 5 2 5 5 0 3 -2 5 -5 5 -3 0 -5 -2 -5
-5z"/>
<path d="M710 545 c0 -3 2 -5 5 -5 3 0 5 2 5 5 0 3 -2 5 -5 5 -3 0 -5 -2 -5
-5z"/>
<path d="M790 545 c0 -3 2 -5 5 -5 3 0 5 2 5 5 0 3 -2 5 -5 5 -3 0 -5 -2 -5
-5z"/>
<path d="M44 528 c-4 -7 -3 -8 4 -4 7 4 12 9 12 12 0 8 -9 4 -16 -8z"/>
<path d="M184 521 c21 -23 26 -26 26 -11 0 5 -10 15 -22 21 -23 12 -23 12 -4
-10z"/>
<path d="M364 528 c-4 -7 -3 -8 4 -4 7 4 12 9 12 12 0 8 -9 4 -16 -8z"/>
<path d="M504 521 c21 -23 26 -26 26 -11 0 5 -10 15 -22 21 -23 12 -23 12 -4
-10z"/>
<path d="M684 528 c-4 -7 -3 -8 4 -4 7 4 12 9 12 12 0 8 -9 4 -16 -8z"/>
<path d="M824 521 c21 -23 26 -26 26 -11 0 5 -10 15 -22 21 -23 12 -23 12 -4
-10z"/>
<path d="M80 515 c0 -3 2 -5 5 -5 3 0 5 2 5 5 0 3 -2 5 -5 5 -3 0 -5 -2 -5 -5z"/>
<path d="M140 515 c0 -3 2 -5 5 -5 3 0 5 2 5 5 0 3 -2 5 -5 5 -3 0 -5 -2 -5
-5z"/>
<path d="M400 515 c0 -3 2 -5 5 -5 3 0 5 2 5 5 0 3 -2 5 -5 5 -3 0 -5 -2 -5
-5z"/>
<path d="M460 515 c0 -3 2 -5 5 -5 3 0 5 2 5 5 0 3 -2 5 -5 5 -3 0 -5 -2 -5
-5z"/>
<path d="M720 515 c0 -3 2 -5 5 -5 3 0 5 2 5 5 0 3 -2 5 -5 5 -3 0 -5 -2 -5
-5z"/>
<path d="M780 515 c0 -3 2 -5 5 -5 3 0 5 2 5 5 0 3 -2 5 -5 5 -3 0 -5 -2 -5
-5z"/>
<path d="M30 505 c0 -3 2 -5 5 -5 3 0 5 2 5 5 0 3 -2 5 -5 5 -3 0 -5 -2 -5 -5z"/>
<path d="M160 505 c0 -3 2 -5 5 -5 3 0 5 2 5 5 0 3 -2 5 -5 5 -3 0 -5 -2 -5
-5z"/>
<path d="M350 505 c0 -3 2 -5 5 -5 3 0 5 2 5 5 0 3 -2 5 -5 5 -3 0 -5 -2 -5
-5z"/>
<path d="M480 505 c0 -3 2 -5 5 -5 3 0 5 2 5 5 0 3 -2 5 -5 5 -3 0 -5 -2 -5
-5z"/>
<path d="M670 505 c0 -3 2 -5 5 -5 3 0 5 2 5 5 0 3 -2 5 -5 5 -3 0 -5 -2 -5
-5z"/>
<path d="M800 505 c0 -3 2 -5 5 -5 3 0 5 2 5 5 0 3 -2 5 -5 5 -3 0 -5 -2 -5
-5z"/>
<path d="M60 495 c0 -3 2 -5 5 -5 3 0 5 2 5 5 0 3 -2 5 -5 5 -3 0 -5 -2 -5 -5z"/>
<path d="M380 495 c0 -3 2 -5 5 -5 3 0 5 2 5 5 0 3 -2 5 -5 5 -3 0 -5 -2 -5
-5z"/>
<path d="M700 495 c0 -3 2 -5 5 -5 3 0 5 2 5 5 0 3 -2 5 -5 5 -3 0 -5 -2 -5
-5z"/>
<path d="M20 485 c0 -3 2 -5 5 -5 3 0 5 2 5 5 0 3 -2 5 -5 5 -3 0 -5 -2 -5 -5z"/>
<path d="M170 485 c0 -3 2 -5 5 -5 3 0 5 2 5 5 0 3 -2 5 -5 5 -3 0 -5 -2 -5
-5z"/>
<path d="M210 485 c0 -3 2 -5 5 -5 3 0 5 2 5 5 0 3 -2 5 -5 5 -3 0 -5 -2 -5
-5z"/>
<path d="M340 485 c0 -3 2 -5 5 -5 3 0 5 2 5 5 0 3 -2 5 -5 5 -3 0 -5 -2 -5
-5z"/>
<path d="M490 485 c0 -3 2 -5 5 -5 3 0 5 2 5 5 0 3 -2 5 -5 5 -3 0 -5 -2 -5
-5z"/>
<path d="M530 485 c0 -3 2 -5 5 -5 3 0 5 2 5 5 0 3 -2 5 -5 5 -3 0 -5 -2 -5
-5z"/>
<path d="M660 485 c0 -3 2 -5 5 -5 3 0 5 2 5 5 0 3 -2 5 -5 5 -3 0 -5 -2 -5
-5z"/>
<path d="M810 485 c0 -3 2 -5 5 -5 3 0 5 2 5 5 0 3 -2 5 -5 5 -3 0 -5 -2 -5
-5z"/>
<path d="M850 485 c0 -3 2 -5 5 -5 3 0 5 2 5 5 0 3 -2 5 -5 5 -3 0 -5 -2 -5
-5z"/>
<path d="M109 478 c-6 -12 -4 -46 2 -42 4 2 5 12 2 21 -5 13 -2 15 11 10 10
-4 15 -3 11 3 -6 9 -23 14 -26 8z"/>
<path d="M429 478 c-6 -12 -4 -46 2 -42 4 2 5 12 2 21 -5 13 -2 15 11 10 10
-4 15 -3 11 3 -6 9 -23 14 -26 8z"/>
<path d="M749 478 c-6 -12 -4 -46 2 -42 4 2 5 12 2 21 -5 13 -2 15 11 10 10
-4 15 -3 11 3 -6 9 -23 14 -26 8z"/>
<path d="M20 455 c0 -3 2 -5 5 -5 3 0 5 2 5 5 0 3 -2 5 -5 5 -3 0 -5 -2 -5 -5z"/>
<path d="M340 455 c0 -3 2 -5 5 -5 3 0 5 2 5 5 0 3 -2 5 -5 5 -3 0 -5 -2 -5
-5z"/>
<path d="M660 455 c0 -3 2 -5 5 -5 3 0 5 2 5 5 0 3 -2 5 -5 5 -3 0 -5 -2 -5
-5z"/>
<path d="M65 440 c3 -5 8 -10 11 -10 3 0 2 5 -1 10 -3 6 -8 10 -11 10 -3 0 -2
-4 1 -10z"/>
<path d="M280 446 c0 -3 9 -10 20 -16 11 -6 20 -8 20 -6 0 3 -9 10 -20 16 -11
6 -20 8 -20 6z"/>
<path d="M385 440 c3 -5 8 -10 11 -10 3 0 2 5 -1 10 -3 6 -8 10 -11 10 -3 0
-2 -4 1 -10z"/>
<path d="M600 446 c0 -3 9 -10 20 -16 11 -6 20 -8 20 -6 0 3 -9 10 -20 16 -11
6 -20 8 -20 6z"/>
<path d="M705 440 c3 -5 8 -10 11 -10 3 0 2 5 -1 10 -3 6 -8 10 -11 10 -3 0
-2 -4 1 -10z"/>
<path d="M920 446 c0 -3 9 -10 20 -16 11 -6 20 -8 20 -6 0 3 -9 10 -20 16 -11
6 -20 8 -20 6z"/>
<path d="M30 436 c0 -2 8 -10 18 -17 15 -13 16 -12 3 4 -13 16 -21 21 -21 13z"/>
<path d="M350 436 c0 -2 8 -10 18 -17 15 -13 16 -12 3 4 -13 16 -21 21 -21 13z"/>
<path d="M670 436 c0 -2 8 -10 18 -17 15 -13 16 -12 3 4 -13 16 -21 21 -21 13z"/>
<path d="M130 425 c0 -3 2 -5 5 -5 3 0 5 2 5 5 0 3 -2 5 -5 5 -3 0 -5 -2 -5
-5z"/>
<path d="M450 425 c0 -3 2 -5 5 -5 3 0 5 2 5 5 0 3 -2 5 -5 5 -3 0 -5 -2 -5
-5z"/>
<path d="M770 425 c0 -3 2 -5 5 -5 3 0 5 2 5 5 0 3 -2 5 -5 5 -3 0 -5 -2 -5
-5z"/>
<path d="M210 415 c0 -3 2 -5 5 -5 3 0 5 2 5 5 0 3 -2 5 -5 5 -3 0 -5 -2 -5
-5z"/>
<path d="M530 415 c0 -3 2 -5 5 -5 3 0 5 2 5 5 0 3 -2 5 -5 5 -3 0 -5 -2 -5
-5z"/>
<path d="M850 415 c0 -3 2 -5 5 -5 3 0 5 2 5 5 0 3 -2 5 -5 5 -3 0 -5 -2 -5
-5z"/>
<path d="M0 394 c0 -11 13 -33 30 -49 32 -30 55 -28 27 3 -10 10 -15 22 -12
25 3 4 2 5 -1 2 -4 -2 -15 6 -25 18 -18 22 -18 22 -19 1z"/>
<path d="M70 405 c0 -3 2 -5 5 -5 3 0 5 2 5 5 0 3 -2 5 -5 5 -3 0 -5 -2 -5 -5z"/>
<path d="M100 405 c0 -3 2 -5 5 -5 3 0 5 2 5 5 0 3 -2 5 -5 5 -3 0 -5 -2 -5
-5z"/>
<path d="M170 405 c0 -3 2 -5 5 -5 3 0 5 2 5 5 0 3 -2 5 -5 5 -3 0 -5 -2 -5
-5z"/>
<path d="M280 365 c-47 -47 -36 -64 12 -18 l28 27 30 -29 c32 -30 55 -28 27 3
-10 10 -15 22 -12 25 3 4 2 5 -1 2 -4 -2 -14 5 -23 16 -16 20 -17 19 -61 -26z"/>
<path d="M390 405 c0 -3 2 -5 5 -5 3 0 5 2 5 5 0 3 -2 5 -5 5 -3 0 -5 -2 -5
-5z"/>
<path d="M420 405 c0 -3 2 -5 5 -5 3 0 5 2 5 5 0 3 -2 5 -5 5 -3 0 -5 -2 -5
-5z"/>
<path d="M490 405 c0 -3 2 -5 5 -5 3 0 5 2 5 5 0 3 -2 5 -5 5 -3 0 -5 -2 -5
-5z"/>
<path d="M600 365 c-47 -47 -36 -64 12 -18 l28 27 30 -29 c32 -30 55 -28 27 3
-10 10 -15 22 -12 25 3 4 2 5 -1 2 -4 -2 -14 5 -23 16 -16 20 -17 19 -61 -26z"/>
<path d="M710 405 c0 -3 2 -5 5 -5 3 0 5 2 5 5 0 3 -2 5 -5 5 -3 0 -5 -2 -5
-5z"/>
<path d="M740 405 c0 -3 2 -5 5 -5 3 0 5 2 5 5 0 3 -2 5 -5 5 -3 0 -5 -2 -5
-5z"/>
<path d="M810 405 c0 -3 2 -5 5 -5 3 0 5 2 5 5 0 3 -2 5 -5 5 -3 0 -5 -2 -5
-5z"/>
<path d="M200 395 c0 -3 2 -5 5 -5 3 0 5 2 5 5 0 3 -2 5 -5 5 -3 0 -5 -2 -5
-5z"/>
<path d="M520 395 c0 -3 2 -5 5 -5 3 0 5 2 5 5 0 3 -2 5 -5 5 -3 0 -5 -2 -5
-5z"/>
<path d="M840 395 c0 -3 2 -5 5 -5 3 0 5 2 5 5 0 3 -2 5 -5 5 -3 0 -5 -2 -5
-5z"/>
<path d="M915 360 c-24 -25 -33 -40 -24 -40 19 0 72 55 67 70 -2 6 -21 -7 -43
-30z"/>
<path d="M160 385 c0 -3 2 -5 5 -5 3 0 5 2 5 5 0 3 -2 5 -5 5 -3 0 -5 -2 -5
-5z"/>
<path d="M480 385 c0 -3 2 -5 5 -5 3 0 5 2 5 5 0 3 -2 5 -5 5 -3 0 -5 -2 -5
-5z"/>
<path d="M800 385 c0 -3 2 -5 5 -5 3 0 5 2 5 5 0 3 -2 5 -5 5 -3 0 -5 -2 -5
-5z"/>
<path d="M140 375 c0 -3 2 -5 5 -5 3 0 5 2 5 5 0 3 -2 5 -5 5 -3 0 -5 -2 -5
-5z"/>
<path d="M190 375 c0 -3 2 -5 5 -5 3 0 5 2 5 5 0 3 -2 5 -5 5 -3 0 -5 -2 -5
-5z"/>
<path d="M239 361 c-18 -14 -23 -27 -21 -57 l2 -39 -14 30 c-18 38 -18 32 -2
-29 12 -48 14 -50 62 -62 27 -7 50 -13 52 -14 1 0 2 5 2 10 0 6 -20 15 -44 22
-44 12 -44 12 -48 62 -3 44 0 54 21 74 29 27 22 29 -10 3z"/>
<path d="M460 375 c0 -3 2 -5 5 -5 3 0 5 2 5 5 0 3 -2 5 -5 5 -3 0 -5 -2 -5
-5z"/>
<path d="M510 375 c0 -3 2 -5 5 -5 3 0 5 2 5 5 0 3 -2 5 -5 5 -3 0 -5 -2 -5
-5z"/>
<path d="M559 361 c-18 -14 -23 -27 -21 -57 l2 -39 -14 30 c-18 38 -18 32 -2
-29 12 -48 14 -50 62 -62 27 -7 50 -13 52 -14 1 0 2 5 2 10 0 6 -20 15 -44 22
-44 12 -44 12 -48 62 -3 44 0 54 21 74 29 27 22 29 -10 3z"/>
<path d="M780 375 c0 -3 2 -5 5 -5 3 0 5 2 5 5 0 3 -2 5 -5 5 -3 0 -5 -2 -5
-5z"/>
<path d="M830 375 c0 -3 2 -5 5 -5 3 0 5 2 5 5 0 3 -2 5 -5 5 -3 0 -5 -2 -5
-5z"/>
<path d="M879 361 c-18 -14 -23 -27 -21 -57 l2 -39 -14 30 c-18 38 -18 32 -2
-29 12 -48 14 -50 62 -62 27 -7 50 -13 52 -14 1 0 2 5 2 10 0 6 -20 15 -44 22
-44 12 -44 12 -48 62 -3 44 0 54 21 74 29 27 22 29 -10 3z"/>
<path d="M60 365 c0 -3 2 -5 5 -5 3 0 5 2 5 5 0 3 -2 5 -5 5 -3 0 -5 -2 -5 -5z"/>
<path d="M110 365 c0 -3 2 -5 5 -5 3 0 5 2 5 5 0 3 -2 5 -5 5 -3 0 -5 -2 -5
-5z"/>
<path d="M380 365 c0 -3 2 -5 5 -5 3 0 5 2 5 5 0 3 -2 5 -5 5 -3 0 -5 -2 -5
-5z"/>
<path d="M430 365 c0 -3 2 -5 5 -5 3 0 5 2 5 5 0 3 -2 5 -5 5 -3 0 -5 -2 -5
-5z"/>
<path d="M700 365 c0 -3 2 -5 5 -5 3 0 5 2 5 5 0 3 -2 5 -5 5 -3 0 -5 -2 -5
-5z"/>
<path d="M750 365 c0 -3 2 -5 5 -5 3 0 5 2 5 5 0 3 -2 5 -5 5 -3 0 -5 -2 -5
-5z"/>
<path d="M170 355 c0 -3 2 -5 5 -5 3 0 5 2 5 5 0 3 -2 5 -5 5 -3 0 -5 -2 -5
-5z"/>
<path d="M490 355 c0 -3 2 -5 5 -5 3 0 5 2 5 5 0 3 -2 5 -5 5 -3 0 -5 -2 -5
-5z"/>
<path d="M810 355 c0 -3 2 -5 5 -5 3 0 5 2 5 5 0 3 -2 5 -5 5 -3 0 -5 -2 -5
-5z"/>
<path d="M150 345 c0 -3 2 -5 5 -5 3 0 5 2 5 5 0 3 -2 5 -5 5 -3 0 -5 -2 -5
-5z"/>
<path d="M470 345 c0 -3 2 -5 5 -5 3 0 5 2 5 5 0 3 -2 5 -5 5 -3 0 -5 -2 -5
-5z"/>
<path d="M790 345 c0 -3 2 -5 5 -5 3 0 5 2 5 5 0 3 -2 5 -5 5 -3 0 -5 -2 -5
-5z"/>
<path d="M124 328 c-4 -7 -3 -8 4 -4 7 4 12 9 12 12 0 8 -9 4 -16 -8z"/>
<path d="M444 328 c-4 -7 -3 -8 4 -4 7 4 12 9 12 12 0 8 -9 4 -16 -8z"/>
<path d="M764 328 c-4 -7 -3 -8 4 -4 7 4 12 9 12 12 0 8 -9 4 -16 -8z"/>
<path d="M90 235 c0 -3 2 -5 5 -5 3 0 5 2 5 5 0 3 -2 5 -5 5 -3 0 -5 -2 -5 -5z"/>
<path d="M130 235 c0 -3 2 -5 5 -5 3 0 5 2 5 5 0 3 -2 5 -5 5 -3 0 -5 -2 -5
-5z"/>
<path d="M410 235 c0 -3 2 -5 5 -5 3 0 5 2 5 5 0 3 -2 5 -5 5 -3 0 -5 -2 -5
-5z"/>
<path d="M450 235 c0 -3 2 -5 5 -5 3 0 5 2 5 5 0 3 -2 5 -5 5 -3 0 -5 -2 -5
-5z"/>
<path d="M730 235 c0 -3 2 -5 5 -5 3 0 5 2 5 5 0 3 -2 5 -5 5 -3 0 -5 -2 -5
-5z"/>
<path d="M770 235 c0 -3 2 -5 5 -5 3 0 5 2 5 5 0 3 -2 5 -5 5 -3 0 -5 -2 -5
-5z"/>
<path d="M70 225 c0 -3 2 -5 5 -5 3 0 5 2 5 5 0 3 -2 5 -5 5 -3 0 -5 -2 -5 -5z"/>
<path d="M150 225 c0 -3 2 -5 5 -5 3 0 5 2 5 5 0 3 -2 5 -5 5 -3 0 -5 -2 -5
-5z"/>
<path d="M390 225 c0 -3 2 -5 5 -5 3 0 5 2 5 5 0 3 -2 5 -5 5 -3 0 -5 -2 -5
-5z"/>
<path d="M470 225 c0 -3 2 -5 5 -5 3 0 5 2 5 5 0 3 -2 5 -5 5 -3 0 -5 -2 -5
-5z"/>
<path d="M710 225 c0 -3 2 -5 5 -5 3 0 5 2 5 5 0 3 -2 5 -5 5 -3 0 -5 -2 -5
-5z"/>
<path d="M790 225 c0 -3 2 -5 5 -5 3 0 5 2 5 5 0 3 -2 5 -5 5 -3 0 -5 -2 -5
-5z"/>
<path d="M44 208 c-4 -7 -3 -8 4 -4 12 7 16 16 8 16 -3 0 -8 -5 -12 -12z"/>
<path d="M184 201 c21 -23 26 -26 26 -11 0 5 -10 15 -22 21 -23 12 -23 12 -4
-10z"/>
<path d="M364 208 c-4 -7 -3 -8 4 -4 12 7 16 16 8 16 -3 0 -8 -5 -12 -12z"/>
<path d="M504 201 c21 -23 26 -26 26 -11 0 5 -10 15 -22 21 -23 12 -23 12 -4
-10z"/>
<path d="M684 208 c-4 -7 -3 -8 4 -4 7 4 12 9 12 12 0 8 -9 4 -16 -8z"/>
<path d="M824 201 c21 -23 26 -26 26 -11 0 5 -10 15 -22 21 -23 12 -23 12 -4
-10z"/>
<path d="M80 195 c0 -3 2 -5 5 -5 3 0 5 2 5 5 0 3 -2 5 -5 5 -3 0 -5 -2 -5 -5z"/>
<path d="M140 195 c0 -3 2 -5 5 -5 3 0 5 2 5 5 0 3 -2 5 -5 5 -3 0 -5 -2 -5
-5z"/>
<path d="M400 195 c0 -3 2 -5 5 -5 3 0 5 2 5 5 0 3 -2 5 -5 5 -3 0 -5 -2 -5
-5z"/>
<path d="M460 195 c0 -3 2 -5 5 -5 3 0 5 2 5 5 0 3 -2 5 -5 5 -3 0 -5 -2 -5
-5z"/>
<path d="M720 195 c0 -3 2 -5 5 -5 3 0 5 2 5 5 0 3 -2 5 -5 5 -3 0 -5 -2 -5
-5z"/>
<path d="M780 195 c0 -3 2 -5 5 -5 3 0 5 2 5 5 0 3 -2 5 -5 5 -3 0 -5 -2 -5
-5z"/>
<path d="M30 185 c0 -3 2 -5 5 -5 3 0 5 2 5 5 0 3 -2 5 -5 5 -3 0 -5 -2 -5 -5z"/>
<path d="M160 185 c0 -3 2 -5 5 -5 3 0 5 2 5 5 0 3 -2 5 -5 5 -3 0 -5 -2 -5
-5z"/>
<path d="M350 185 c0 -3 2 -5 5 -5 3 0 5 2 5 5 0 3 -2 5 -5 5 -3 0 -5 -2 -5
-5z"/>
<path d="M480 185 c0 -3 2 -5 5 -5 3 0 5 2 5 5 0 3 -2 5 -5 5 -3 0 -5 -2 -5
-5z"/>
<path d="M670 185 c0 -3 2 -5 5 -5 3 0 5 2 5 5 0 3 -2 5 -5 5 -3 0 -5 -2 -5
-5z"/>
<path d="M800 185 c0 -3 2 -5 5 -5 3 0 5 2 5 5 0 3 -2 5 -5 5 -3 0 -5 -2 -5
-5z"/>
<path d="M60 175 c0 -3 2 -5 5 -5 3 0 5 2 5 5 0 3 -2 5 -5 5 -3 0 -5 -2 -5 -5z"/>
<path d="M380 175 c0 -3 2 -5 5 -5 3 0 5 2 5 5 0 3 -2 5 -5 5 -3 0 -5 -2 -5
-5z"/>
<path d="M700 175 c0 -3 2 -5 5 -5 3 0 5 2 5 5 0 3 -2 5 -5 5 -3 0 -5 -2 -5
-5z"/>
<path d="M20 165 c0 -3 2 -5 5 -5 3 0 5 2 5 5 0 3 -2 5 -5 5 -3 0 -5 -2 -5 -5z"/>
<path d="M170 165 c0 -3 2 -5 5 -5 3 0 5 2 5 5 0 3 -2 5 -5 5 -3 0 -5 -2 -5
-5z"/>
<path d="M210 165 c0 -3 2 -5 5 -5 3 0 5 2 5 5 0 3 -2 5 -5 5 -3 0 -5 -2 -5
-5z"/>
<path d="M340 165 c0 -3 2 -5 5 -5 3 0 5 2 5 5 0 3 -2 5 -5 5 -3 0 -5 -2 -5
-5z"/>
<path d="M490 165 c0 -3 2 -5 5 -5 3 0 5 2 5 5 0 3 -2 5 -5 5 -3 0 -5 -2 -5
-5z"/>
<path d="M530 165 c0 -3 2 -5 5 -5 3 0 5 2 5 5 0 3 -2 5 -5 5 -3 0 -5 -2 -5
-5z"/>
<path d="M660 165 c0 -3 2 -5 5 -5 3 0 5 2 5 5 0 3 -2 5 -5 5 -3 0 -5 -2 -5
-5z"/>
<path d="M810 165 c0 -3 2 -5 5 -5 3 0 5 2 5 5 0 3 -2 5 -5 5 -3 0 -5 -2 -5
-5z"/>
<path d="M850 165 c0 -3 2 -5 5 -5 3 0 5 2 5 5 0 3 -2 5 -5 5 -3 0 -5 -2 -5
-5z"/>
<path d="M109 158 c-6 -12 -4 -46 2 -42 4 2 5 12 2 21 -5 13 -2 15 11 10 10
-4 15 -3 11 3 -6 9 -23 14 -26 8z"/>
<path d="M429 158 c-6 -12 -4 -46 2 -42 4 2 5 12 2 21 -5 13 -2 15 11 10 10
-4 15 -3 11 3 -6 9 -23 14 -26 8z"/>
<path d="M749 158 c-6 -12 -4 -46 2 -42 4 2 5 12 2 21 -5 13 -2 15 11 10 10
-4 15 -3 11 3 -6 9 -23 14 -26 8z"/>
<path d="M20 135 c0 -3 2 -5 5 -5 3 0 5 2 5 5 0 3 -2 5 -5 5 -3 0 -5 -2 -5 -5z"/>
<path d="M340 135 c0 -3 2 -5 5 -5 3 0 5 2 5 5 0 3 -2 5 -5 5 -3 0 -5 -2 -5
-5z"/>
<path d="M660 135 c0 -3 2 -5 5 -5 3 0 5 2 5 5 0 3 -2 5 -5 5 -3 0 -5 -2 -5
-5z"/>
<path d="M65 120 c3 -5 8 -10 11 -10 3 0 2 5 -1 10 -3 6 -8 10 -11 10 -3 0 -2
-4 1 -10z"/>
<path d="M280 126 c0 -3 9 -10 20 -16 11 -6 20 -8 20 -6 0 3 -9 10 -20 16 -11
6 -20 8 -20 6z"/>
<path d="M385 120 c3 -5 8 -10 11 -10 3 0 2 5 -1 10 -3 6 -8 10 -11 10 -3 0
-2 -4 1 -10z"/>
<path d="M600 126 c0 -3 9 -10 20 -16 11 -6 20 -8 20 -6 0 3 -9 10 -20 16 -11
6 -20 8 -20 6z"/>
<path d="M705 120 c3 -5 8 -10 11 -10 3 0 2 5 -1 10 -3 6 -8 10 -11 10 -3 0
-2 -4 1 -10z"/>
<path d="M920 126 c0 -3 9 -10 20 -16 11 -6 20 -8 20 -6 0 3 -9 10 -20 16 -11
6 -20 8 -20 6z"/>
<path d="M30 116 c0 -2 8 -10 18 -17 15 -13 16 -12 3 4 -13 16 -21 21 -21 13z"/>
<path d="M350 116 c0 -2 8 -10 18 -17 15 -13 16 -12 3 4 -13 16 -21 21 -21 13z"/>
<path d="M670 116 c0 -2 8 -10 18 -17 15 -13 16 -12 3 4 -13 16 -21 21 -21 13z"/>
<path d="M130 105 c0 -3 2 -5 5 -5 3 0 5 2 5 5 0 3 -2 5 -5 5 -3 0 -5 -2 -5
-5z"/>
<path d="M450 105 c0 -3 2 -5 5 -5 3 0 5 2 5 5 0 3 -2 5 -5 5 -3 0 -5 -2 -5
-5z"/>
<path d="M770 105 c0 -3 2 -5 5 -5 3 0 5 2 5 5 0 3 -2 5 -5 5 -3 0 -5 -2 -5
-5z"/>
<path d="M210 95 c0 -3 2 -5 5 -5 3 0 5 2 5 5 0 3 -2 5 -5 5 -3 0 -5 -2 -5 -5z"/>
<path d="M530 95 c0 -3 2 -5 5 -5 3 0 5 2 5 5 0 3 -2 5 -5 5 -3 0 -5 -2 -5 -5z"/>
<path d="M850 95 c0 -3 2 -5 5 -5 3 0 5 2 5 5 0 3 -2 5 -5 5 -3 0 -5 -2 -5 -5z"/>
<path d="M0 74 c0 -11 13 -33 30 -49 32 -30 55 -28 27 3 -10 10 -15 22 -12 25
3 4 2 5 -1 2 -4 -2 -15 6 -25 18 -18 22 -18 22 -19 1z"/>
<path d="M70 85 c0 -3 2 -5 5 -5 3 0 5 2 5 5 0 3 -2 5 -5 5 -3 0 -5 -2 -5 -5z"/>
<path d="M100 85 c0 -3 2 -5 5 -5 3 0 5 2 5 5 0 3 -2 5 -5 5 -3 0 -5 -2 -5 -5z"/>
<path d="M170 85 c0 -3 2 -5 5 -5 3 0 5 2 5 5 0 3 -2 5 -5 5 -3 0 -5 -2 -5 -5z"/>
<path d="M280 45 c-47 -47 -36 -64 12 -18 l28 27 30 -29 c32 -30 55 -28 27 3
-10 10 -15 22 -12 25 3 4 2 5 -1 2 -4 -2 -14 5 -23 16 -16 20 -17 19 -61 -26z"/>
<path d="M390 85 c0 -3 2 -5 5 -5 3 0 5 2 5 5 0 3 -2 5 -5 5 -3 0 -5 -2 -5 -5z"/>
<path d="M420 85 c0 -3 2 -5 5 -5 3 0 5 2 5 5 0 3 -2 5 -5 5 -3 0 -5 -2 -5 -5z"/>
<path d="M490 85 c0 -3 2 -5 5 -5 3 0 5 2 5 5 0 3 -2 5 -5 5 -3 0 -5 -2 -5 -5z"/>
<path d="M600 45 c-47 -47 -36 -64 12 -18 l28 27 30 -29 c32 -30 55 -28 27 3
-10 10 -15 22 -12 25 3 4 2 5 -1 2 -4 -2 -14 5 -23 16 -16 20 -17 19 -61 -26z"/>
<path d="M710 85 c0 -3 2 -5 5 -5 3 0 5 2 5 5 0 3 -2 5 -5 5 -3 0 -5 -2 -5 -5z"/>
<path d="M740 85 c0 -3 2 -5 5 -5 3 0 5 2 5 5 0 3 -2 5 -5 5 -3 0 -5 -2 -5 -5z"/>
<path d="M810 85 c0 -3 2 -5 5 -5 3 0 5 2 5 5 0 3 -2 5 -5 5 -3 0 -5 -2 -5 -5z"/>
<path d="M200 75 c0 -3 2 -5 5 -5 3 0 5 2 5 5 0 3 -2 5 -5 5 -3 0 -5 -2 -5 -5z"/>
<path d="M520 75 c0 -3 2 -5 5 -5 3 0 5 2 5 5 0 3 -2 5 -5 5 -3 0 -5 -2 -5 -5z"/>
<path d="M840 75 c0 -3 2 -5 5 -5 3 0 5 2 5 5 0 3 -2 5 -5 5 -3 0 -5 -2 -5 -5z"/>
<path d="M915 40 c-24 -25 -33 -40 -24 -40 19 0 72 55 67 70 -2 6 -21 -7 -43
-30z"/>
<path d="M160 65 c0 -3 2 -5 5 -5 3 0 5 2 5 5 0 3 -2 5 -5 5 -3 0 -5 -2 -5 -5z"/>
<path d="M480 65 c0 -3 2 -5 5 -5 3 0 5 2 5 5 0 3 -2 5 -5 5 -3 0 -5 -2 -5 -5z"/>
<path d="M800 65 c0 -3 2 -5 5 -5 3 0 5 2 5 5 0 3 -2 5 -5 5 -3 0 -5 -2 -5 -5z"/>
<path d="M140 55 c0 -3 2 -5 5 -5 3 0 5 2 5 5 0 3 -2 5 -5 5 -3 0 -5 -2 -5 -5z"/>
<path d="M190 55 c0 -3 2 -5 5 -5 3 0 5 2 5 5 0 3 -2 5 -5 5 -3 0 -5 -2 -5 -5z"/>
<path d="M248 49 c-10 -5 -23 -20 -28 -32 -10 -20 -10 -21 4 -4 8 10 23 25 33
32 21 17 16 19 -9 4z"/>
<path d="M460 55 c0 -3 2 -5 5 -5 3 0 5 2 5 5 0 3 -2 5 -5 5 -3 0 -5 -2 -5 -5z"/>
<path d="M510 55 c0 -3 2 -5 5 -5 3 0 5 2 5 5 0 3 -2 5 -5 5 -3 0 -5 -2 -5 -5z"/>
<path d="M568 49 c-10 -5 -23 -20 -28 -32 -10 -20 -10 -21 4 -4 8 10 23 25 33
32 21 17 16 19 -9 4z"/>
<path d="M780 55 c0 -3 2 -5 5 -5 3 0 5 2 5 5 0 3 -2 5 -5 5 -3 0 -5 -2 -5 -5z"/>
<path d="M830 55 c0 -3 2 -5 5 -5 3 0 5 2 5 5 0 3 -2 5 -5 5 -3 0 -5 -2 -5 -5z"/>
<path d="M888 49 c-10 -5 -23 -20 -28 -32 -10 -20 -10 -21 4 -4 8 10 23 25 33
32 21 17 16 19 -9 4z"/>
<path d="M60 45 c0 -3 2 -5 5 -5 3 0 5 2 5 5 0 3 -2 5 -5 5 -3 0 -5 -2 -5 -5z"/>
<path d="M110 45 c0 -3 2 -5 5 -5 3 0 5 2 5 5 0 3 -2 5 -5 5 -3 0 -5 -2 -5 -5z"/>
<path d="M380 45 c0 -3 2 -5 5 -5 3 0 5 2 5 5 0 3 -2 5 -5 5 -3 0 -5 -2 -5 -5z"/>
<path d="M430 45 c0 -3 2 -5 5 -5 3 0 5 2 5 5 0 3 -2 5 -5 5 -3 0 -5 -2 -5 -5z"/>
<path d="M700 45 c0 -3 2 -5 5 -5 3 0 5 2 5 5 0 3 -2 5 -5 5 -3 0 -5 -2 -5 -5z"/>
<path d="M750 45 c0 -3 2 -5 5 -5 3 0 5 2 5 5 0 3 -2 5 -5 5 -3 0 -5 -2 -5 -5z"/>
<path d="M170 35 c0 -3 2 -5 5 -5 3 0 5 2 5 5 0 3 -2 5 -5 5 -3 0 -5 -2 -5 -5z"/>
<path d="M490 35 c0 -3 2 -5 5 -5 3 0 5 2 5 5 0 3 -2 5 -5 5 -3 0 -5 -2 -5 -5z"/>
<path d="M810 35 c0 -3 2 -5 5 -5 3 0 5 2 5 5 0 3 -2 5 -5 5 -3 0 -5 -2 -5 -5z"/>
<path d="M150 25 c0 -3 2 -5 5 -5 3 0 5 2 5 5 0 3 -2 5 -5 5 -3 0 -5 -2 -5 -5z"/>
<path d="M470 25 c0 -3 2 -5 5 -5 3 0 5 2 5 5 0 3 -2 5 -5 5 -3 0 -5 -2 -5 -5z"/>
<path d="M790 25 c0 -3 2 -5 5 -5 3 0 5 2 5 5 0 3 -2 5 -5 5 -3 0 -5 -2 -5 -5z"/>
<path d="M124 8 c-4 -7 -3 -8 4 -4 7 4 12 9 12 12 0 8 -9 4 -16 -8z"/>
<path d="M444 8 c-4 -7 -3 -8 4 -4 12 7 16 16 8 16 -3 0 -8 -5 -12 -12z"/>
<path d="M764 8 c-4 -7 -3 -8 4 -4 7 4 12 9 12 12 0 8 -9 4 -16 -8z"/>
</g>
<g transform="translate(0.000000,96.000000) scale(0.100000,-0.100000)"
fill="#d15650" stroke="none">
<path d="M191 960 c0 -3 6 -27 13 -54 12 -48 14 -50 62 -62 27 -7 50 -13 52
-14 1 0 2 5 2 10 0 6 -20 15 -45 22 -45 12 -45 13 -46 58 -2 34 -3 38 -6 15
l-5 -30 -13 30 c-7 17 -14 28 -14 25z"/>
<path d="M511 960 c0 -3 6 -27 13 -54 12 -48 14 -50 62 -62 27 -7 50 -13 52
-14 1 0 2 5 2 10 0 6 -20 15 -45 22 -45 12 -45 13 -46 58 -2 34 -3 38 -6 15
l-5 -30 -13 30 c-7 17 -14 28 -14 25z"/>
<path d="M831 960 c0 -3 6 -27 13 -54 12 -48 14 -50 62 -62 27 -7 50 -13 52
-14 1 0 2 5 2 10 0 6 -20 15 -45 22 -45 12 -45 13 -46 58 -2 34 -3 38 -6 15
l-5 -30 -13 30 c-7 17 -14 28 -14 25z"/>
<path d="M90 875 c0 -3 2 -5 5 -5 3 0 5 2 5 5 0 3 -2 5 -5 5 -3 0 -5 -2 -5 -5z"/>
<path d="M410 875 c0 -3 2 -5 5 -5 3 0 5 2 5 5 0 3 -2 5 -5 5 -3 0 -5 -2 -5
-5z"/>
<path d="M730 875 c0 -3 2 -5 5 -5 3 0 5 2 5 5 0 3 -2 5 -5 5 -3 0 -5 -2 -5
-5z"/>
<path d="M70 865 c0 -3 2 -5 5 -5 3 0 5 2 5 5 0 3 -2 5 -5 5 -3 0 -5 -2 -5 -5z"/>
<path d="M390 865 c0 -3 2 -5 5 -5 3 0 5 2 5 5 0 3 -2 5 -5 5 -3 0 -5 -2 -5
-5z"/>
<path d="M710 865 c0 -3 2 -5 5 -5 3 0 5 2 5 5 0 3 -2 5 -5 5 -3 0 -5 -2 -5
-5z"/>
<path d="M195 840 c3 -5 8 -10 11 -10 3 0 2 5 -1 10 -3 6 -8 10 -11 10 -3 0
-2 -4 1 -10z"/>
<path d="M515 840 c3 -5 8 -10 11 -10 3 0 2 5 -1 10 -3 6 -8 10 -11 10 -3 0
-2 -4 1 -10z"/>
<path d="M835 840 c3 -5 8 -10 11 -10 3 0 2 5 -1 10 -3 6 -8 10 -11 10 -3 0
-2 -4 1 -10z"/>
<path d="M210 805 c0 -3 2 -5 5 -5 3 0 5 2 5 5 0 3 -2 5 -5 5 -3 0 -5 -2 -5
-5z"/>
<path d="M530 805 c0 -3 2 -5 5 -5 3 0 5 2 5 5 0 3 -2 5 -5 5 -3 0 -5 -2 -5
-5z"/>
<path d="M850 805 c0 -3 2 -5 5 -5 3 0 5 2 5 5 0 3 -2 5 -5 5 -3 0 -5 -2 -5
-5z"/>
<path d="M130 745 c0 -3 2 -5 5 -5 3 0 5 2 5 5 0 3 -2 5 -5 5 -3 0 -5 -2 -5
-5z"/>
<path d="M450 745 c0 -3 2 -5 5 -5 3 0 5 2 5 5 0 3 -2 5 -5 5 -3 0 -5 -2 -5
-5z"/>
<path d="M770 745 c0 -3 2 -5 5 -5 3 0 5 2 5 5 0 3 -2 5 -5 5 -3 0 -5 -2 -5
-5z"/>
<path d="M100 725 c0 -3 2 -5 5 -5 3 0 5 2 5 5 0 3 -2 5 -5 5 -3 0 -5 -2 -5
-5z"/>
<path d="M420 725 c0 -3 2 -5 5 -5 3 0 5 2 5 5 0 3 -2 5 -5 5 -3 0 -5 -2 -5
-5z"/>
<path d="M740 725 c0 -3 2 -5 5 -5 3 0 5 2 5 5 0 3 -2 5 -5 5 -3 0 -5 -2 -5
-5z"/>
<path d="M0 709 c0 -19 57 -75 67 -65 4 3 -10 23 -30 44 -24 24 -37 31 -37 21z"/>
<path d="M275 680 c-43 -44 -28 -56 17 -13 l28 27 30 -29 c42 -40 51 -22 10
20 -19 19 -37 35 -40 35 -3 0 -24 -18 -45 -40z"/>
<path d="M595 680 c-43 -44 -28 -56 17 -13 l28 27 30 -29 c42 -40 51 -22 10
20 -19 19 -37 35 -40 35 -3 0 -24 -18 -45 -40z"/>
<path d="M915 680 c-24 -25 -33 -40 -24 -40 19 0 72 55 67 70 -2 6 -21 -7 -43
-30z"/>
<path d="M120 645 c0 -3 2 -5 5 -5 3 0 5 2 5 5 0 3 -2 5 -5 5 -3 0 -5 -2 -5
-5z"/>
<path d="M440 645 c0 -3 2 -5 5 -5 3 0 5 2 5 5 0 3 -2 5 -5 5 -3 0 -5 -2 -5
-5z"/>
<path d="M760 645 c0 -3 2 -5 5 -5 3 0 5 2 5 5 0 3 -2 5 -5 5 -3 0 -5 -2 -5
-5z"/>
<path d="M191 640 c0 -3 6 -27 13 -54 12 -48 14 -50 62 -62 27 -7 50 -13 52
-14 1 0 2 5 2 10 0 6 -20 15 -45 22 -45 12 -45 13 -46 58 -2 34 -3 38 -6 15
l-5 -30 -13 30 c-7 17 -14 28 -14 25z"/>
<path d="M511 640 c0 -3 6 -27 13 -54 12 -48 14 -50 62 -62 27 -7 50 -13 52
-14 1 0 2 5 2 10 0 6 -20 15 -45 22 -45 12 -45 13 -46 58 -2 34 -3 38 -6 15
l-5 -30 -13 30 c-7 17 -14 28 -14 25z"/>
<path d="M831 640 c0 -3 6 -27 13 -54 12 -48 14 -50 62 -62 27 -7 50 -13 52
-14 1 0 2 5 2 10 0 6 -20 15 -45 22 -45 12 -45 13 -46 58 -2 34 -3 38 -6 15
l-5 -30 -13 30 c-7 17 -14 28 -14 25z"/>
<path d="M90 555 c0 -3 2 -5 5 -5 3 0 5 2 5 5 0 3 -2 5 -5 5 -3 0 -5 -2 -5 -5z"/>
<path d="M410 555 c0 -3 2 -5 5 -5 3 0 5 2 5 5 0 3 -2 5 -5 5 -3 0 -5 -2 -5
-5z"/>
<path d="M730 555 c0 -3 2 -5 5 -5 3 0 5 2 5 5 0 3 -2 5 -5 5 -3 0 -5 -2 -5
-5z"/>
<path d="M70 545 c0 -3 2 -5 5 -5 3 0 5 2 5 5 0 3 -2 5 -5 5 -3 0 -5 -2 -5 -5z"/>
<path d="M390 545 c0 -3 2 -5 5 -5 3 0 5 2 5 5 0 3 -2 5 -5 5 -3 0 -5 -2 -5
-5z"/>
<path d="M710 545 c0 -3 2 -5 5 -5 3 0 5 2 5 5 0 3 -2 5 -5 5 -3 0 -5 -2 -5
-5z"/>
<path d="M195 520 c3 -5 8 -10 11 -10 3 0 2 5 -1 10 -3 6 -8 10 -11 10 -3 0
-2 -4 1 -10z"/>
<path d="M515 520 c3 -5 8 -10 11 -10 3 0 2 5 -1 10 -3 6 -8 10 -11 10 -3 0
-2 -4 1 -10z"/>
<path d="M835 520 c3 -5 8 -10 11 -10 3 0 2 5 -1 10 -3 6 -8 10 -11 10 -3 0
-2 -4 1 -10z"/>
<path d="M210 485 c0 -3 2 -5 5 -5 3 0 5 2 5 5 0 3 -2 5 -5 5 -3 0 -5 -2 -5
-5z"/>
<path d="M530 485 c0 -3 2 -5 5 -5 3 0 5 2 5 5 0 3 -2 5 -5 5 -3 0 -5 -2 -5
-5z"/>
<path d="M850 485 c0 -3 2 -5 5 -5 3 0 5 2 5 5 0 3 -2 5 -5 5 -3 0 -5 -2 -5
-5z"/>
<path d="M130 425 c0 -3 2 -5 5 -5 3 0 5 2 5 5 0 3 -2 5 -5 5 -3 0 -5 -2 -5
-5z"/>
<path d="M450 425 c0 -3 2 -5 5 -5 3 0 5 2 5 5 0 3 -2 5 -5 5 -3 0 -5 -2 -5
-5z"/>
<path d="M770 425 c0 -3 2 -5 5 -5 3 0 5 2 5 5 0 3 -2 5 -5 5 -3 0 -5 -2 -5
-5z"/>
<path d="M100 405 c0 -3 2 -5 5 -5 3 0 5 2 5 5 0 3 -2 5 -5 5 -3 0 -5 -2 -5
-5z"/>
<path d="M420 405 c0 -3 2 -5 5 -5 3 0 5 2 5 5 0 3 -2 5 -5 5 -3 0 -5 -2 -5
-5z"/>
<path d="M740 405 c0 -3 2 -5 5 -5 3 0 5 2 5 5 0 3 -2 5 -5 5 -3 0 -5 -2 -5
-5z"/>
<path d="M0 389 c0 -19 57 -75 67 -65 4 3 -10 23 -30 44 -24 24 -37 31 -37 21z"/>
<path d="M275 360 c-43 -44 -28 -56 17 -13 l28 27 30 -29 c42 -40 51 -22 10
20 -19 19 -37 35 -40 35 -3 0 -24 -18 -45 -40z"/>
<path d="M595 360 c-43 -44 -28 -56 17 -13 l28 27 30 -29 c42 -40 51 -22 10
20 -19 19 -37 35 -40 35 -3 0 -24 -18 -45 -40z"/>
<path d="M915 360 c-24 -25 -33 -40 -24 -40 19 0 72 55 67 70 -2 6 -21 -7 -43
-30z"/>
<path d="M120 325 c0 -3 2 -5 5 -5 3 0 5 2 5 5 0 3 -2 5 -5 5 -3 0 -5 -2 -5
-5z"/>
<path d="M440 325 c0 -3 2 -5 5 -5 3 0 5 2 5 5 0 3 -2 5 -5 5 -3 0 -5 -2 -5
-5z"/>
<path d="M760 325 c0 -3 2 -5 5 -5 3 0 5 2 5 5 0 3 -2 5 -5 5 -3 0 -5 -2 -5
-5z"/>
<path d="M191 320 c0 -3 6 -27 13 -54 12 -48 14 -50 62 -62 27 -7 50 -13 52
-14 1 0 2 5 2 10 0 6 -20 15 -45 22 -45 12 -45 13 -46 58 -2 34 -3 38 -6 15
l-5 -30 -13 30 c-7 17 -14 28 -14 25z"/>
<path d="M511 320 c0 -3 6 -27 13 -54 12 -48 14 -50 62 -62 27 -7 50 -13 52
-14 1 0 2 5 2 10 0 6 -20 15 -45 22 -45 12 -45 13 -46 58 -2 34 -3 38 -6 15
l-5 -30 -13 30 c-7 17 -14 28 -14 25z"/>
<path d="M831 320 c0 -3 6 -27 13 -54 12 -48 14 -50 62 -62 27 -7 50 -13 52
-14 1 0 2 5 2 10 0 6 -20 15 -45 22 -45 12 -45 13 -46 58 -2 34 -3 38 -6 15
l-5 -30 -13 30 c-7 17 -14 28 -14 25z"/>
<path d="M90 235 c0 -3 2 -5 5 -5 3 0 5 2 5 5 0 3 -2 5 -5 5 -3 0 -5 -2 -5 -5z"/>
<path d="M410 235 c0 -3 2 -5 5 -5 3 0 5 2 5 5 0 3 -2 5 -5 5 -3 0 -5 -2 -5
-5z"/>
<path d="M730 235 c0 -3 2 -5 5 -5 3 0 5 2 5 5 0 3 -2 5 -5 5 -3 0 -5 -2 -5
-5z"/>
<path d="M70 225 c0 -3 2 -5 5 -5 3 0 5 2 5 5 0 3 -2 5 -5 5 -3 0 -5 -2 -5 -5z"/>
<path d="M390 225 c0 -3 2 -5 5 -5 3 0 5 2 5 5 0 3 -2 5 -5 5 -3 0 -5 -2 -5
-5z"/>
<path d="M710 225 c0 -3 2 -5 5 -5 3 0 5 2 5 5 0 3 -2 5 -5 5 -3 0 -5 -2 -5
-5z"/>
<path d="M195 200 c3 -5 8 -10 11 -10 3 0 2 5 -1 10 -3 6 -8 10 -11 10 -3 0
-2 -4 1 -10z"/>
<path d="M515 200 c3 -5 8 -10 11 -10 3 0 2 5 -1 10 -3 6 -8 10 -11 10 -3 0
-2 -4 1 -10z"/>
<path d="M835 200 c3 -5 8 -10 11 -10 3 0 2 5 -1 10 -3 6 -8 10 -11 10 -3 0
-2 -4 1 -10z"/>
<path d="M210 165 c0 -3 2 -5 5 -5 3 0 5 2 5 5 0 3 -2 5 -5 5 -3 0 -5 -2 -5
-5z"/>
<path d="M530 165 c0 -3 2 -5 5 -5 3 0 5 2 5 5 0 3 -2 5 -5 5 -3 0 -5 -2 -5
-5z"/>
<path d="M850 165 c0 -3 2 -5 5 -5 3 0 5 2 5 5 0 3 -2 5 -5 5 -3 0 -5 -2 -5
-5z"/>
<path d="M130 105 c0 -3 2 -5 5 -5 3 0 5 2 5 5 0 3 -2 5 -5 5 -3 0 -5 -2 -5
-5z"/>
<path d="M450 105 c0 -3 2 -5 5 -5 3 0 5 2 5 5 0 3 -2 5 -5 5 -3 0 -5 -2 -5
-5z"/>
<path d="M770 105 c0 -3 2 -5 5 -5 3 0 5 2 5 5 0 3 -2 5 -5 5 -3 0 -5 -2 -5
-5z"/>
<path d="M100 85 c0 -3 2 -5 5 -5 3 0 5 2 5 5 0 3 -2 5 -5 5 -3 0 -5 -2 -5 -5z"/>
<path d="M420 85 c0 -3 2 -5 5 -5 3 0 5 2 5 5 0 3 -2 5 -5 5 -3 0 -5 -2 -5 -5z"/>
<path d="M740 85 c0 -3 2 -5 5 -5 3 0 5 2 5 5 0 3 -2 5 -5 5 -3 0 -5 -2 -5 -5z"/>
<path d="M0 69 c0 -19 57 -75 67 -65 4 3 -10 23 -30 44 -24 24 -37 31 -37 21z"/>
<path d="M275 40 c-43 -44 -28 -56 17 -13 l28 27 30 -29 c42 -40 51 -22 10 20
-19 19 -37 35 -40 35 -3 0 -24 -18 -45 -40z"/>
<path d="M595 40 c-43 -44 -28 -56 17 -13 l28 27 30 -29 c42 -40 51 -22 10 20
-19 19 -37 35 -40 35 -3 0 -24 -18 -45 -40z"/>
<path d="M915 40 c-24 -25 -33 -40 -24 -40 19 0 72 55 67 70 -2 6 -21 -7 -43
-30z"/>
<path d="M120 5 c0 -3 2 -5 5 -5 3 0 5 2 5 5 0 3 -2 5 -5 5 -3 0 -5 -2 -5 -5z"/>
<path d="M440 5 c0 -3 2 -5 5 -5 3 0 5 2 5 5 0 3 -2 5 -5 5 -3 0 -5 -2 -5 -5z"/>
<path d="M760 5 c0 -3 2 -5 5 -5 3 0 5 2 5 5 0 3 -2 5 -5 5 -3 0 -5 -2 -5 -5z"/>
</g>
<g transform="translate(0.000000,96.000000) scale(0.100000,-0.100000)"
fill="#cd917c" stroke="none">
<path d="M191 960 c0 -3 6 -27 13 -54 12 -48 14 -50 62 -62 27 -7 50 -11 52
-9 5 5 -59 25 -79 25 -13 0 -19 7 -19 23 -1 18 -28 92 -29 77z"/>
<path d="M511 960 c0 -3 6 -27 13 -54 12 -48 14 -50 62 -62 27 -7 50 -11 52
-9 5 5 -59 25 -79 25 -13 0 -19 7 -19 23 -1 18 -28 92 -29 77z"/>
<path d="M831 960 c0 -3 6 -27 13 -54 12 -48 14 -50 62 -62 27 -7 50 -11 52
-9 5 5 -59 25 -79 25 -13 0 -19 7 -19 23 -1 18 -28 92 -29 77z"/>
<path d="M195 840 c3 -5 8 -10 11 -10 3 0 2 5 -1 10 -3 6 -8 10 -11 10 -3 0
-2 -4 1 -10z"/>
<path d="M515 840 c3 -5 8 -10 11 -10 3 0 2 5 -1 10 -3 6 -8 10 -11 10 -3 0
-2 -4 1 -10z"/>
<path d="M835 840 c3 -5 8 -10 11 -10 3 0 2 5 -1 10 -3 6 -8 10 -11 10 -3 0
-2 -4 1 -10z"/>
<path d="M0 704 c0 -13 58 -69 65 -63 2 3 -11 21 -30 39 -19 19 -35 29 -35 24z"/>
<path d="M280 675 c-40 -41 -29 -48 12 -8 l28 27 28 -27 c41 -40 52 -33 12 8
-19 19 -37 35 -40 35 -3 0 -21 -16 -40 -35z"/>
<path d="M600 675 c-40 -41 -29 -48 12 -8 l28 27 28 -27 c41 -40 52 -33 12 8
-19 19 -37 35 -40 35 -3 0 -21 -16 -40 -35z"/>
<path d="M920 675 c-19 -19 -29 -35 -24 -35 13 0 69 58 63 65 -3 2 -21 -11
-39 -30z"/>
<path d="M191 640 c0 -3 6 -27 13 -54 12 -48 14 -50 62 -62 27 -7 50 -11 52
-9 5 5 -59 25 -79 25 -13 0 -19 7 -19 23 -1 18 -28 92 -29 77z"/>
<path d="M511 640 c0 -3 6 -27 13 -54 12 -48 14 -50 62 -62 27 -7 50 -11 52
-9 5 5 -59 25 -79 25 -13 0 -19 7 -19 23 -1 18 -28 92 -29 77z"/>
<path d="M831 640 c0 -3 6 -27 13 -54 12 -48 14 -50 62 -62 27 -7 50 -11 52
-9 5 5 -59 25 -79 25 -13 0 -19 7 -19 23 -1 18 -28 92 -29 77z"/>
<path d="M195 520 c3 -5 8 -10 11 -10 3 0 2 5 -1 10 -3 6 -8 10 -11 10 -3 0
-2 -4 1 -10z"/>
<path d="M515 520 c3 -5 8 -10 11 -10 3 0 2 5 -1 10 -3 6 -8 10 -11 10 -3 0
-2 -4 1 -10z"/>
<path d="M835 520 c3 -5 8 -10 11 -10 3 0 2 5 -1 10 -3 6 -8 10 -11 10 -3 0
-2 -4 1 -10z"/>
<path d="M0 384 c0 -13 58 -69 65 -63 2 3 -11 21 -30 39 -19 19 -35 29 -35 24z"/>
<path d="M280 355 c-40 -41 -29 -48 12 -8 l28 27 28 -27 c41 -40 52 -33 12 8
-19 19 -37 35 -40 35 -3 0 -21 -16 -40 -35z"/>
<path d="M600 355 c-40 -41 -29 -48 12 -8 l28 27 28 -27 c41 -40 52 -33 12 8
-19 19 -37 35 -40 35 -3 0 -21 -16 -40 -35z"/>
<path d="M920 355 c-19 -19 -29 -35 -24 -35 13 0 69 58 63 65 -3 2 -21 -11
-39 -30z"/>
<path d="M191 320 c0 -3 6 -27 13 -54 12 -48 14 -50 62 -62 27 -7 50 -11 52
-9 5 5 -59 25 -79 25 -13 0 -19 7 -19 23 -1 18 -28 92 -29 77z"/>
<path d="M511 320 c0 -3 6 -27 13 -54 12 -48 14 -50 62 -62 27 -7 50 -11 52
-9 5 5 -59 25 -79 25 -13 0 -19 7 -19 23 -1 18 -28 92 -29 77z"/>
<path d="M831 320 c0 -3 6 -27 13 -54 12 -48 14 -50 62 -62 27 -7 50 -11 52
-9 5 5 -59 25 -79 25 -13 0 -19 7 -19 23 -1 18 -28 92 -29 77z"/>
<path d="M195 200 c3 -5 8 -10 11 -10 3 0 2 5 -1 10 -3 6 -8 10 -11 10 -3 0
-2 -4 1 -10z"/>
<path d="M515 200 c3 -5 8 -10 11 -10 3 0 2 5 -1 10 -3 6 -8 10 -11 10 -3 0
-2 -4 1 -10z"/>
<path d="M835 200 c3 -5 8 -10 11 -10 3 0 2 5 -1 10 -3 6 -8 10 -11 10 -3 0
-2 -4 1 -10z"/>
<path d="M0 64 c0 -13 58 -69 65 -63 2 3 -11 21 -30 39 -19 19 -35 29 -35 24z"/>
<path d="M280 35 c-40 -41 -29 -48 12 -8 l28 27 28 -27 c41 -40 52 -33 12 8
-19 19 -37 35 -40 35 -3 0 -21 -16 -40 -35z"/>
<path d="M600 35 c-40 -41 -29 -48 12 -8 l28 27 28 -27 c41 -40 52 -33 12 8
-19 19 -37 35 -40 35 -3 0 -21 -16 -40 -35z"/>
<path d="M920 35 c-19 -19 -29 -35 -24 -35 13 0 69 58 63 65 -3 2 -21 -11 -39
-30z"/>
</g>
<g transform="translate(0.000000,96.000000) scale(0.100000,-0.100000)"
fill="#992222" stroke="none">
<path d="M191 960 c0 -3 6 -27 13 -54 12 -48 14 -50 62 -62 27 -7 50 -11 52
-9 5 5 -59 25 -79 25 -13 0 -19 7 -19 23 -1 18 -28 92 -29 77z"/>
<path d="M511 960 c0 -3 6 -27 13 -54 12 -48 14 -50 62 -62 27 -7 50 -11 52
-9 5 5 -59 25 -79 25 -13 0 -19 7 -19 23 -1 18 -28 92 -29 77z"/>
<path d="M831 960 c0 -3 6 -27 13 -54 12 -48 14 -50 62 -62 27 -7 50 -11 52
-9 5 5 -59 25 -79 25 -13 0 -19 7 -19 23 -1 18 -28 92 -29 77z"/>
<path d="M195 840 c3 -5 8 -10 11 -10 3 0 2 5 -1 10 -3 6 -8 10 -11 10 -3 0
-2 -4 1 -10z"/>
<path d="M515 840 c3 -5 8 -10 11 -10 3 0 2 5 -1 10 -3 6 -8 10 -11 10 -3 0
-2 -4 1 -10z"/>
<path d="M835 840 c3 -5 8 -10 11 -10 3 0 2 5 -1 10 -3 6 -8 10 -11 10 -3 0
-2 -4 1 -10z"/>
<path d="M191 640 c0 -3 6 -27 13 -54 12 -48 14 -50 62 -62 27 -7 50 -11 52
-9 5 5 -59 25 -79 25 -13 0 -19 7 -19 23 -1 18 -28 92 -29 77z"/>
<path d="M511 640 c0 -3 6 -27 13 -54 12 -48 14 -50 62 -62 27 -7 50 -11 52
-9 5 5 -59 25 -79 25 -13 0 -19 7 -19 23 -1 18 -28 92 -29 77z"/>
<path d="M831 640 c0 -3 6 -27 13 -54 12 -48 14 -50 62 -62 27 -7 50 -11 52
-9 5 5 -59 25 -79 25 -13 0 -19 7 -19 23 -1 18 -28 92 -29 77z"/>
<path d="M195 520 c3 -5 8 -10 11 -10 3 0 2 5 -1 10 -3 6 -8 10 -11 10 -3 0
-2 -4 1 -10z"/>
<path d="M515 520 c3 -5 8 -10 11 -10 3 0 2 5 -1 10 -3 6 -8 10 -11 10 -3 0
-2 -4 1 -10z"/>
<path d="M835 520 c3 -5 8 -10 11 -10 3 0 2 5 -1 10 -3 6 -8 10 -11 10 -3 0
-2 -4 1 -10z"/>
<path d="M191 320 c0 -3 6 -27 13 -54 12 -48 14 -50 62 -62 27 -7 50 -11 52
-9 5 5 -59 25 -79 25 -13 0 -19 7 -19 23 -1 18 -28 92 -29 77z"/>
<path d="M511 320 c0 -3 6 -27 13 -54 12 -48 14 -50 62 -62 27 -7 50 -11 52
-9 5 5 -59 25 -79 25 -13 0 -19 7 -19 23 -1 18 -28 92 -29 77z"/>
<path d="M831 320 c0 -3 6 -27 13 -54 12 -48 14 -50 62 -62 27 -7 50 -11 52
-9 5 5 -59 25 -79 25 -13 0 -19 7 -19 23 -1 18 -28 92 -29 77z"/>
<path d="M195 200 c3 -5 8 -10 11 -10 3 0 2 5 -1 10 -3 6 -8 10 -11 10 -3 0
-2 -4 1 -10z"/>
<path d="M515 200 c3 -5 8 -10 11 -10 3 0 2 5 -1 10 -3 6 -8 10 -11 10 -3 0
-2 -4 1 -10z"/>
<path d="M835 200 c3 -5 8 -10 11 -10 3 0 2 5 -1 10 -3 6 -8 10 -11 10 -3 0
-2 -4 1 -10z"/>
</g>
<g transform="translate(0.000000,96.000000) scale(0.100000,-0.100000)"
fill="#8b1f1f" stroke="none">
<path d="M214 870 c1 -8 10 -16 21 -17 15 -1 15 0 3 3 -9 3 -19 11 -21 17 -2
7 -3 5 -3 -3z"/>
<path d="M534 870 c1 -8 10 -16 21 -17 15 -1 15 0 3 3 -9 3 -19 11 -21 17 -2
7 -3 5 -3 -3z"/>
<path d="M854 870 c1 -8 10 -16 21 -17 15 -1 15 0 3 3 -9 3 -19 11 -21 17 -2
7 -3 5 -3 -3z"/>
<path d="M214 550 c1 -8 10 -16 21 -17 15 -1 15 0 3 3 -9 3 -19 11 -21 17 -2
7 -3 5 -3 -3z"/>
<path d="M534 550 c1 -8 10 -16 21 -17 15 -1 15 0 3 3 -9 3 -19 11 -21 17 -2
7 -3 5 -3 -3z"/>
<path d="M854 550 c1 -8 10 -16 21 -17 15 -1 15 0 3 3 -9 3 -19 11 -21 17 -2
7 -3 5 -3 -3z"/>
<path d="M214 230 c1 -8 10 -16 21 -17 15 -1 15 0 3 3 -9 3 -19 11 -21 17 -2
7 -3 5 -3 -3z"/>
<path d="M534 230 c1 -8 10 -16 21 -17 15 -1 15 0 3 3 -9 3 -19 11 -21 17 -2
7 -3 5 -3 -3z"/>
<path d="M854 230 c1 -8 10 -16 21 -17 15 -1 15 0 3 3 -9 3 -19 11 -21 17 -2
7 -3 5 -3 -3z"/>
</g>
  </g>
</svg>
