<?xml version="1.0" encoding="UTF-8" standalone="no"?>
<!-- Created with Inkscape (http://www.inkscape.org/) -->

<svg
   xmlns:dc="http://purl.org/dc/elements/1.1/"
   xmlns:cc="http://creativecommons.org/ns#"
   xmlns:rdf="http://www.w3.org/1999/02/22-rdf-syntax-ns#"
   xmlns:svg="http://www.w3.org/2000/svg"
   xmlns="http://www.w3.org/2000/svg"
   xmlns:sodipodi="http://sodipodi.sourceforge.net/DTD/sodipodi-0.dtd"
   xmlns:inkscape="http://www.inkscape.org/namespaces/inkscape"
   width="32px"
   height="32px"
   viewBox="0 0 32px 32px"
   version="1.1"
   id="svgMain"
   inkscape:version="0.92.2 (5c3e80d, 2017-08-06)"
   sodipodi:docname="reference_SVG.svg">
  <defs
     id="defs4542" />
  <sodipodi:namedview
     id="base"
     pagecolor="#ffffff"
     bordercolor="#666666"
     borderopacity="1.0"
     inkscape:pageopacity="0.0"
     inkscape:pageshadow="2"
     inkscape:zoom="1"
     inkscape:cx="0"
     inkscape:cy="0"
     inkscape:document-units="px"
     inkscape:current-layer="layer1"
     showgrid="false"
     units="px"
     inkscape:window-width="1024"
     inkscape:window-height="768"
     inkscape:window-x="-8"
     inkscape:window-y="-8"
     inkscape:window-maximized="1" />
  <metadata
     id="metadata1">
    <rdf:RDF>
      <cc:Work
         rdf:about="">
        <dc:format>image/svg+xml</dc:format>
        <dc:type
           rdf:resource="http://purl.org/dc/dcmitype/StillImage" />
        <dc:title />
      </cc:Work>
    </rdf:RDF>
  </metadata>
  <g transform="translate(-32,-32)"
     inkscape:label="Layer 1"
     inkscape:groupmode="layer"
     id="layer1">
    <!-- INSERT MARKER -->
<g transform="translate(0.000000,96.000000) scale(0.100000,-0.100000)"
fill="#f38baa" stroke="none">
<path d="M0 480 l0 -480 480 0 480 0 0 480 0 480 -480 0 -480 0 0 -480z"/>
</g>
<g transform="translate(0.000000,96.000000) scale(0.100000,-0.100000)"
fill="#f4b5cb" stroke="none">
<path d="M0 855 c0 -85 3 -105 15 -105 28 0 67 -24 81 -51 20 -39 18 -59 -6
-59 -11 0 -20 7 -20 15 0 19 -36 55 -55 55 -13 0 -15 -22 -15 -140 0 -116 3
-140 15 -140 28 0 67 -24 81 -51 20 -39 18 -59 -6 -59 -11 0 -20 7 -20 15 0
19 -36 55 -55 55 -13 0 -15 -22 -15 -139 l0 -138 30 -6 c38 -8 69 -39 77 -77
l5 -30 139 0 c117 0 139 2 139 15 0 19 -36 55 -55 55 -8 0 -15 9 -15 20 0 23
17 25 55 8 27 -12 55 -54 55 -83 0 -13 20 -15 140 -15 118 0 140 2 140 15 0
19 -36 55 -55 55 -8 0 -15 9 -15 20 0 24 20 26 59 6 27 -14 51 -53 51 -81 0
-12 20 -15 105 -15 l105 0 -1 480 0 479 -479 0 -480 1 0 -105z m225 74 c-22
-3 -51 -9 -65 -13 -14 -5 -22 -5 -18 -1 12 12 102 33 113 26 6 -3 -8 -8 -30
-12z m320 0 c-22 -3 -51 -9 -65 -13 -14 -5 -22 -5 -18 -1 12 12 102 33 113 26
6 -3 -8 -8 -30 -12z m320 0 c-22 -3 -51 -9 -65 -13 -14 -5 -22 -5 -18 -1 12
12 102 33 113 26 6 -3 -8 -8 -30 -12z m-762 -51 c-18 -18 -36 -44 -42 -58 -7
-17 -10 -20 -10 -8 -1 17 64 98 77 98 3 0 -8 -15 -25 -32z m107 8 c0 -13 -7
-29 -15 -36 -13 -11 -15 -8 -15 17 0 16 3 33 7 36 13 14 23 6 23 -17z m60 -1
c0 -15 -6 -25 -15 -25 -9 0 -12 6 -8 17 5 12 2 15 -10 10 -11 -4 -17 -1 -17 8
0 9 10 15 25 15 20 0 25 -5 25 -25z m153 -7 c-18 -18 -36 -44 -42 -58 -7 -17
-10 -20 -10 -8 -1 17 64 98 77 98 3 0 -8 -15 -25 -32z m107 8 c0 -13 -7 -29
-15 -36 -13 -11 -15 -8 -15 17 0 16 3 33 7 36 13 14 23 6 23 -17z m60 -1 c0
-15 -6 -25 -15 -25 -9 0 -12 6 -8 17 5 12 2 15 -10 10 -11 -4 -17 -1 -17 8 0
9 10 15 25 15 20 0 25 -5 25 -25z m153 -7 c-18 -18 -36 -44 -42 -58 -7 -17
-10 -20 -10 -8 -1 17 64 98 77 98 3 0 -8 -15 -25 -32z m107 8 c0 -13 -7 -29
-15 -36 -13 -11 -15 -8 -15 17 0 16 3 33 7 36 13 14 23 6 23 -17z m60 -1 c0
-15 -6 -25 -15 -25 -9 0 -12 6 -8 17 5 12 2 15 -10 10 -11 -4 -17 -1 -17 8 0
9 10 15 25 15 20 0 25 -5 25 -25z m-754 -74 c-15 -14 -16 -11 -16 31 0 28 5
48 13 51 19 6 22 -63 3 -82z m155 72 c10 -11 10 -14 2 -9 -9 5 -13 0 -13 -16
-1 -13 -8 -36 -16 -53 -8 -16 -11 -21 -8 -10 3 11 9 39 11 63 3 23 7 42 8 42
1 0 9 -8 16 -17z m165 -72 c-15 -14 -16 -11 -16 31 0 28 5 48 13 51 19 6 22
-63 3 -82z m155 72 c10 -11 10 -14 2 -9 -9 5 -13 0 -13 -16 -1 -13 -8 -36 -16
-53 -8 -16 -11 -21 -8 -10 3 11 9 39 11 63 3 23 7 42 8 42 1 0 9 -8 16 -17z
m165 -72 c-15 -14 -16 -11 -16 31 0 28 5 48 13 51 19 6 22 -63 3 -82z m143 37
c-6 -23 -14 -48 -20 -57 -9 -13 -9 -12 -4 4 4 11 10 39 12 62 3 24 9 40 13 38
4 -3 4 -24 -1 -47z m-823 -77 c-15 -14 -16 -11 -16 35 0 27 6 56 13 63 10 10
13 3 15 -35 2 -33 -2 -52 -12 -63z m320 0 c-15 -14 -16 -11 -16 35 0 27 6 56
13 63 10 10 13 3 15 -35 2 -33 -2 -52 -12 -63z m320 0 c-15 -14 -16 -11 -16
35 0 27 6 56 13 63 10 10 13 3 15 -35 2 -33 -2 -52 -12 -63z m-488 67 c-3 -7
-20 -14 -38 -16 -30 -3 -32 -2 -21 12 16 19 65 22 59 4z m320 0 c-3 -7 -20
-14 -38 -16 -30 -3 -32 -2 -21 12 16 19 65 22 59 4z m320 0 c-3 -7 -20 -14
-38 -16 -30 -3 -32 -2 -21 12 16 19 65 22 59 4z m-765 -110 l52 -3 -39 -9
c-64 -14 -94 16 -80 80 l9 39 3 -52 3 -52 52 -3z m265 25 c-4 -23 -6 -25 -12
-10 -5 9 -5 34 0 55 7 34 8 35 12 10 2 -16 2 -40 0 -55z m320 0 c-4 -23 -6
-25 -12 -10 -5 9 -5 34 0 55 7 34 8 35 12 10 2 -16 2 -40 0 -55z m-474 42 c-4
-10 -20 -15 -51 -15 -39 0 -44 2 -33 15 17 21 92 21 84 0z m320 0 c-4 -10 -20
-15 -51 -15 -39 0 -44 2 -33 15 7 9 29 15 51 15 30 0 37 -3 33 -15z m320 0
c-4 -10 -20 -15 -51 -15 -39 0 -44 2 -33 15 7 9 29 15 51 15 30 0 37 -3 33
-15z m-664 -40 c-8 -10 -30 -15 -62 -15 -44 0 -49 2 -38 15 8 10 30 15 62 15
44 0 49 -2 38 -15z m3 -25 c-23 -22 -50 -40 -60 -40 -12 1 -7 6 12 14 17 7 41
25 54 40 14 14 27 26 30 26 3 0 -13 -18 -36 -40z m317 25 c-8 -10 -30 -15 -62
-15 -44 0 -49 2 -38 15 8 10 30 15 62 15 44 0 49 -2 38 -15z m3 -25 c-23 -22
-50 -40 -60 -40 -12 1 -7 6 12 14 17 7 41 25 54 40 14 14 27 26 30 26 3 0 -13
-18 -36 -40z m317 25 c-8 -10 -30 -15 -62 -15 -44 0 -49 2 -38 15 8 10 30 15
62 15 44 0 49 -2 38 -15z m3 -25 c-23 -22 -50 -40 -60 -40 -12 1 -7 6 12 14
17 7 41 25 54 40 14 14 27 26 30 26 3 0 -13 -18 -36 -40z m-500 8 c12 -6 49
-11 82 -10 50 1 56 0 35 -9 -14 -6 -38 -9 -53 -6 -22 3 -27 1 -21 -12 4 -9 9
-26 11 -38 8 -36 -30 -30 -44 7 -7 18 -21 32 -37 36 -17 4 -26 13 -26 25 0 22
21 24 53 7z m320 0 c12 -6 49 -11 82 -10 50 1 56 0 35 -9 -14 -6 -38 -9 -53
-6 -22 3 -27 1 -21 -12 4 -9 9 -26 11 -38 8 -36 -30 -30 -44 7 -7 18 -21 32
-37 36 -17 4 -26 13 -26 25 0 22 21 24 53 7z m-469 -129 c-21 -3 -50 -8 -64
-12 -20 -5 -19 -4 5 8 17 8 40 14 53 15 16 0 21 4 16 13 -5 7 0 6 11 -3 17
-14 16 -15 -21 -21z m320 0 c-21 -3 -50 -8 -64 -12 -20 -5 -19 -4 5 8 17 8 40
14 53 15 16 0 21 4 16 13 -5 7 0 6 11 -3 17 -14 16 -15 -21 -21z m320 0 c-21
-3 -50 -8 -64 -12 -20 -5 -19 -4 5 8 17 8 40 14 53 15 16 0 21 4 16 13 -5 7 0
6 11 -3 17 -14 16 -15 -21 -21z m-761 -51 c-18 -18 -36 -44 -42 -58 -7 -17
-10 -20 -10 -8 -1 17 64 98 77 98 3 0 -8 -15 -25 -32z m107 8 c0 -13 -7 -29
-15 -36 -13 -11 -15 -8 -15 17 0 16 3 33 7 36 13 14 23 6 23 -17z m60 -1 c0
-15 -6 -25 -15 -25 -9 0 -12 6 -8 17 5 12 2 15 -10 10 -11 -4 -17 -1 -17 8 0
9 10 15 25 15 20 0 25 -5 25 -25z m153 -7 c-18 -18 -36 -44 -42 -58 -7 -17
-10 -20 -10 -8 -1 17 64 98 77 98 3 0 -8 -15 -25 -32z m107 8 c0 -13 -7 -29
-15 -36 -13 -11 -15 -8 -15 17 0 16 3 33 7 36 13 14 23 6 23 -17z m60 -1 c0
-15 -6 -25 -15 -25 -9 0 -12 6 -8 17 5 12 2 15 -10 10 -11 -4 -17 -1 -17 8 0
9 10 15 25 15 20 0 25 -5 25 -25z m153 -7 c-18 -18 -36 -44 -42 -58 -7 -17
-10 -20 -10 -8 -1 17 64 98 77 98 3 0 -8 -15 -25 -32z m107 8 c0 -13 -7 -29
-15 -36 -13 -11 -15 -8 -15 17 0 16 3 33 7 36 13 14 23 6 23 -17z m60 -1 c0
-15 -6 -25 -15 -25 -9 0 -12 6 -8 17 5 12 2 15 -10 10 -11 -4 -17 -1 -17 8 0
9 10 15 25 15 20 0 25 -5 25 -25z m-754 -74 c-15 -14 -16 -11 -16 31 0 28 5
48 13 51 19 6 22 -63 3 -82z m155 72 c10 -11 10 -14 2 -9 -9 5 -13 0 -13 -16
-1 -13 -8 -36 -16 -53 -8 -16 -11 -21 -8 -10 3 11 9 39 11 63 3 23 7 42 8 42
1 0 9 -8 16 -17z m165 -72 c-15 -14 -16 -11 -16 31 0 28 5 48 13 51 19 6 22
-63 3 -82z m155 72 c10 -11 10 -14 2 -9 -9 5 -13 0 -13 -16 -1 -13 -8 -36 -16
-53 -8 -16 -11 -21 -8 -10 3 11 9 39 11 63 3 23 7 42 8 42 1 0 9 -8 16 -17z
m165 -72 c-15 -14 -16 -11 -16 31 0 28 5 48 13 51 19 6 22 -63 3 -82z m143 37
c-6 -23 -14 -48 -20 -57 -9 -13 -9 -12 -4 4 4 11 10 39 12 62 3 24 9 40 13 38
4 -3 4 -24 -1 -47z m-823 -77 c-15 -14 -16 -11 -16 35 0 27 6 56 13 63 10 10
13 3 15 -35 2 -33 -2 -52 -12 -63z m320 0 c-15 -14 -16 -11 -16 35 0 27 6 56
13 63 10 10 13 3 15 -35 2 -33 -2 -52 -12 -63z m320 0 c-15 -14 -16 -11 -16
35 0 27 6 56 13 63 10 10 13 3 15 -35 2 -33 -2 -52 -12 -63z m-488 67 c-3 -7
-20 -14 -38 -16 -30 -3 -32 -2 -21 12 16 19 65 22 59 4z m320 0 c-3 -7 -20
-14 -38 -16 -30 -3 -32 -2 -21 12 16 19 65 22 59 4z m320 0 c-3 -7 -20 -14
-38 -16 -30 -3 -32 -2 -21 12 16 19 65 22 59 4z m-765 -110 l52 -3 -39 -9
c-64 -14 -94 16 -80 80 l9 39 3 -52 3 -52 52 -3z m265 25 c-4 -23 -6 -25 -12
-10 -5 9 -5 34 0 55 7 34 8 35 12 10 2 -16 2 -40 0 -55z m320 0 c-4 -23 -6
-25 -12 -10 -5 9 -5 34 0 55 7 34 8 35 12 10 2 -16 2 -40 0 -55z m-474 42 c-4
-10 -20 -15 -51 -15 -39 0 -44 2 -33 15 17 21 92 21 84 0z m320 0 c-4 -10 -20
-15 -51 -15 -39 0 -44 2 -33 15 7 9 29 15 51 15 30 0 37 -3 33 -15z m320 0
c-4 -10 -20 -15 -51 -15 -39 0 -44 2 -33 15 7 9 29 15 51 15 30 0 37 -3 33
-15z m-664 -40 c-8 -10 -30 -15 -62 -15 -44 0 -49 2 -38 15 8 10 30 15 62 15
44 0 49 -2 38 -15z m3 -25 c-23 -22 -50 -40 -60 -40 -12 1 -7 6 12 14 17 7 41
25 54 40 14 14 27 26 30 26 3 0 -13 -18 -36 -40z m317 25 c-8 -10 -30 -15 -62
-15 -44 0 -49 2 -38 15 8 10 30 15 62 15 44 0 49 -2 38 -15z m3 -25 c-23 -22
-50 -40 -60 -40 -12 1 -7 6 12 14 17 7 41 25 54 40 14 14 27 26 30 26 3 0 -13
-18 -36 -40z m317 25 c-8 -10 -30 -15 -62 -15 -44 0 -49 2 -38 15 8 10 30 15
62 15 44 0 49 -2 38 -15z m3 -25 c-23 -22 -50 -40 -60 -40 -12 1 -7 6 12 14
17 7 41 25 54 40 14 14 27 26 30 26 3 0 -13 -18 -36 -40z m-500 8 c12 -6 49
-11 82 -10 50 1 56 0 35 -9 -14 -6 -38 -9 -53 -6 -22 3 -27 1 -21 -12 4 -9 9
-26 11 -38 8 -36 -30 -30 -44 7 -7 18 -21 32 -37 36 -17 4 -26 13 -26 25 0 22
21 24 53 7z m320 0 c12 -6 49 -11 82 -10 50 1 56 0 35 -9 -14 -6 -38 -9 -53
-6 -22 3 -27 1 -21 -12 4 -9 9 -26 11 -38 8 -36 -30 -30 -44 7 -7 18 -21 32
-37 36 -17 4 -26 13 -26 25 0 22 21 24 53 7z m-469 -129 c-21 -3 -50 -8 -64
-12 -20 -5 -19 -4 5 8 17 8 40 14 53 15 16 0 21 4 16 13 -5 7 0 6 11 -3 17
-14 16 -15 -21 -21z m320 0 c-21 -3 -50 -8 -64 -12 -20 -5 -19 -4 5 8 17 8 40
14 53 15 16 0 21 4 16 13 -5 7 0 6 11 -3 17 -14 16 -15 -21 -21z m320 0 c-21
-3 -50 -8 -64 -12 -20 -5 -19 -4 5 8 17 8 40 14 53 15 16 0 21 4 16 13 -5 7 0
6 11 -3 17 -14 16 -15 -21 -21z m-761 -51 c-18 -18 -36 -44 -42 -58 -7 -17
-10 -20 -10 -8 -1 17 64 98 77 98 3 0 -8 -15 -25 -32z m107 8 c0 -13 -7 -29
-15 -36 -13 -11 -15 -8 -15 17 0 16 3 33 7 36 13 14 23 6 23 -17z m60 -1 c0
-15 -6 -25 -15 -25 -9 0 -12 6 -8 17 5 12 2 15 -10 10 -11 -4 -17 -1 -17 8 0
9 10 15 25 15 20 0 25 -5 25 -25z m153 -7 c-18 -18 -36 -44 -42 -58 -7 -17
-10 -20 -10 -8 -1 17 64 98 77 98 3 0 -8 -15 -25 -32z m107 8 c0 -13 -7 -29
-15 -36 -13 -11 -15 -8 -15 17 0 16 3 33 7 36 13 14 23 6 23 -17z m60 -1 c0
-15 -6 -25 -15 -25 -9 0 -12 6 -8 17 5 12 2 15 -10 10 -11 -4 -17 -1 -17 8 0
9 10 15 25 15 20 0 25 -5 25 -25z m153 -7 c-18 -18 -36 -44 -42 -58 -7 -17
-10 -20 -10 -8 -1 17 64 98 77 98 3 0 -8 -15 -25 -32z m107 8 c0 -13 -7 -29
-15 -36 -13 -11 -15 -8 -15 17 0 16 3 33 7 36 13 14 23 6 23 -17z m60 -1 c0
-15 -6 -25 -15 -25 -9 0 -12 6 -8 17 5 12 2 15 -10 10 -11 -4 -17 -1 -17 8 0
9 10 15 25 15 20 0 25 -5 25 -25z m-754 -74 c-15 -14 -16 -11 -16 31 0 28 5
48 13 51 19 6 22 -63 3 -82z m155 72 c10 -11 10 -14 2 -9 -9 5 -13 0 -13 -16
-1 -13 -8 -36 -16 -53 -8 -16 -11 -21 -8 -10 3 11 9 39 11 63 3 23 7 42 8 42
1 0 9 -8 16 -17z m165 -72 c-15 -14 -16 -11 -16 31 0 28 5 48 13 51 19 6 22
-63 3 -82z m155 72 c10 -11 10 -14 2 -9 -9 5 -13 0 -13 -16 -1 -13 -8 -36 -16
-53 -8 -16 -11 -21 -8 -10 3 11 9 39 11 63 3 23 7 42 8 42 1 0 9 -8 16 -17z
m165 -72 c-15 -14 -16 -11 -16 31 0 28 5 48 13 51 19 6 22 -63 3 -82z m143 37
c-6 -23 -14 -48 -20 -57 -9 -13 -9 -12 -4 4 4 11 10 39 12 62 3 24 9 40 13 38
4 -3 4 -24 -1 -47z m-823 -77 c-15 -14 -16 -11 -16 35 0 27 6 56 13 63 10 10
13 3 15 -35 2 -33 -2 -52 -12 -63z m320 0 c-15 -14 -16 -11 -16 35 0 27 6 56
13 63 10 10 13 3 15 -35 2 -33 -2 -52 -12 -63z m320 0 c-15 -14 -16 -11 -16
35 0 27 6 56 13 63 10 10 13 3 15 -35 2 -33 -2 -52 -12 -63z m-488 67 c-3 -7
-20 -14 -38 -16 -30 -3 -32 -2 -21 12 16 19 65 22 59 4z m320 0 c-3 -7 -20
-14 -38 -16 -30 -3 -32 -2 -21 12 16 19 65 22 59 4z m320 0 c-3 -7 -20 -14
-38 -16 -30 -3 -32 -2 -21 12 16 19 65 22 59 4z m-765 -110 l52 -3 -39 -9
c-41 -9 -62 -2 -79 26 -6 9 -6 30 -1 54 l9 39 3 -52 3 -52 52 -3z m320 0 l52
-3 -39 -9 c-64 -14 -94 16 -80 80 l9 39 3 -52 3 -52 52 -3z m320 0 l52 -3 -39
-9 c-64 -14 -94 16 -80 80 l9 39 3 -52 3 -52 52 -3z m-529 67 c-4 -10 -20 -15
-51 -15 -39 0 -44 2 -33 15 17 21 92 21 84 0z m320 0 c-4 -10 -20 -15 -51 -15
-39 0 -44 2 -33 15 7 9 29 15 51 15 30 0 37 -3 33 -15z m320 0 c-4 -10 -20
-15 -51 -15 -39 0 -44 2 -33 15 7 9 29 15 51 15 30 0 37 -3 33 -15z m-664 -40
c-8 -10 -30 -15 -62 -15 -44 0 -49 2 -38 15 8 10 30 15 62 15 44 0 49 -2 38
-15z m3 -25 c-23 -22 -50 -40 -60 -40 -12 1 -7 6 12 14 17 7 41 25 54 40 14
14 27 26 30 26 3 0 -13 -18 -36 -40z m317 25 c-8 -10 -30 -15 -62 -15 -44 0
-49 2 -38 15 8 10 30 15 62 15 44 0 49 -2 38 -15z m3 -25 c-23 -22 -50 -40
-60 -40 -12 1 -7 6 12 14 17 7 41 25 54 40 14 14 27 26 30 26 3 0 -13 -18 -36
-40z m317 25 c-8 -10 -30 -15 -62 -15 -44 0 -49 2 -38 15 8 10 30 15 62 15 44
0 49 -2 38 -15z m3 -25 c-23 -22 -50 -40 -60 -40 -12 1 -7 6 12 14 17 7 41 25
54 40 14 14 27 26 30 26 3 0 -13 -18 -36 -40z"/>
<path d="M0 35 c0 -33 2 -35 35 -35 41 0 46 19 15 50 -31 31 -50 26 -50 -15z"/>
</g>
<g transform="translate(0.000000,96.000000) scale(0.100000,-0.100000)"
fill="#d6658f" stroke="none">
<path d="M0 923 l0 -37 35 34 c19 19 35 35 35 37 0 2 -16 3 -35 3 -34 0 -35
-1 -35 -37z"/>
<path d="M52 907 c-29 -29 -52 -60 -52 -69 0 -19 43 -33 49 -16 2 6 21 30 41
52 83 91 49 121 -38 33z"/>
<path d="M146 944 c-9 -23 -7 -24 47 -10 54 14 52 26 -4 26 -25 0 -39 -5 -43
-16z"/>
<path d="M283 922 l37 -37 37 37 37 37 -74 0 -73 0 36 -37z"/>
<path d="M375 910 c-34 -35 -52 -47 -61 -40 -8 8 -13 1 -17 -22 -3 -18 -9 -41
-13 -52 -6 -16 -3 -17 17 -12 22 5 22 5 -2 -7 -14 -6 -45 -29 -68 -49 -22 -21
-46 -38 -51 -38 -6 0 -8 -12 -5 -27 l5 -28 -11 28 c-13 32 -61 41 -52 8 3 -13
-13 -35 -56 -76 -34 -32 -61 -66 -61 -75 0 -20 43 -36 49 -18 2 6 20 29 40 51
20 22 42 52 48 66 12 24 12 24 7 2 -5 -20 -4 -23 12 -17 11 4 34 10 52 13 22
4 29 9 23 17 -14 17 96 129 121 123 32 -9 23 39 -9 52 l-28 11 28 -5 c15 -3
27 -1 27 5 0 6 17 29 39 53 82 90 51 124 -34 37z"/>
<path d="M466 944 c-9 -23 -7 -24 47 -10 54 14 52 26 -4 26 -25 0 -39 -5 -43
-16z"/>
<path d="M603 922 l37 -37 37 37 37 37 -74 0 -73 0 36 -37z"/>
<path d="M695 910 c-34 -35 -52 -47 -61 -40 -8 8 -13 1 -17 -22 -3 -18 -9 -41
-13 -52 -6 -16 -3 -17 17 -12 22 5 22 5 -2 -7 -14 -6 -45 -29 -68 -49 -22 -21
-46 -38 -51 -38 -6 0 -8 -12 -5 -27 l5 -28 -11 28 c-13 32 -61 41 -52 9 6 -25
-106 -135 -123 -121 -8 6 -13 -1 -17 -23 -3 -18 -9 -41 -13 -52 -6 -16 -3 -17
17 -12 22 5 22 5 -2 -7 -14 -6 -45 -29 -68 -49 -22 -21 -46 -38 -51 -38 -6 0
-8 -12 -5 -27 l5 -28 -11 28 c-13 32 -61 41 -52 8 3 -13 -13 -35 -56 -76 -34
-32 -61 -66 -61 -75 0 -20 43 -36 49 -18 2 6 20 29 40 51 20 22 42 52 48 66
12 24 12 24 7 2 -5 -20 -4 -23 12 -17 11 4 34 10 52 13 22 4 29 9 23 17 -14
17 96 129 121 123 32 -9 23 39 -9 52 l-28 11 28 -5 c15 -3 27 -1 27 5 0 5 17
29 38 51 20 23 43 54 49 68 12 24 12 24 7 2 -5 -20 -4 -23 12 -17 11 4 34 10
52 13 22 4 29 9 23 17 -14 17 96 129 121 123 32 -9 23 39 -9 52 l-28 11 28 -5
c15 -3 27 -1 27 5 0 6 17 29 39 53 82 90 51 124 -34 37z"/>
<path d="M786 944 c-9 -23 -7 -24 47 -10 54 14 52 26 -4 26 -25 0 -39 -5 -43
-16z"/>
<path d="M921 924 c32 -33 34 -34 37 -14 6 36 -5 50 -40 50 l-32 0 35 -36z"/>
<path d="M185 910 c-3 -6 1 -7 9 -4 18 7 21 14 7 14 -6 0 -13 -4 -16 -10z"/>
<path d="M242 913 c20 -3 28 -11 31 -31 4 -24 4 -24 6 6 1 30 -1 32 -31 31
-30 -2 -30 -2 -6 -6z"/>
<path d="M505 910 c-3 -6 1 -7 9 -4 18 7 21 14 7 14 -6 0 -13 -4 -16 -10z"/>
<path d="M562 913 c20 -3 28 -11 31 -31 4 -24 4 -24 6 6 1 30 -1 32 -31 31
-30 -2 -30 -2 -6 -6z"/>
<path d="M825 910 c-3 -6 1 -7 9 -4 18 7 21 14 7 14 -6 0 -13 -4 -16 -10z"/>
<path d="M882 913 c20 -3 28 -11 31 -31 4 -24 4 -24 6 6 1 30 -1 32 -31 31
-30 -2 -30 -2 -6 -6z"/>
<path d="M150 900 c-9 -6 -10 -10 -3 -10 6 0 15 5 18 10 8 12 4 12 -15 0z"/>
<path d="M470 900 c-9 -6 -10 -10 -3 -10 6 0 15 5 18 10 8 12 4 12 -15 0z"/>
<path d="M790 900 c-9 -6 -10 -10 -3 -10 6 0 15 5 18 10 8 12 4 12 -15 0z"/>
<path d="M109 873 c-13 -16 -12 -17 4 -4 9 7 17 15 17 17 0 8 -8 3 -21 -13z"/>
<path d="M226 881 c-4 -5 -2 -12 3 -15 5 -4 12 -2 15 3 4 5 2 12 -3 15 -5 4
-12 2 -15 -3z m14 -6 c0 -3 -2 -5 -5 -5 -3 0 -5 2 -5 5 0 3 2 5 5 5 3 0 5 -2
5 -5z"/>
<path d="M429 873 c-13 -16 -12 -17 4 -4 9 7 17 15 17 17 0 8 -8 3 -21 -13z"/>
<path d="M546 881 c-4 -5 -2 -12 3 -15 5 -4 12 -2 15 3 4 5 2 12 -3 15 -5 4
-12 2 -15 -3z m14 -6 c0 -3 -2 -5 -5 -5 -3 0 -5 2 -5 5 0 3 2 5 5 5 3 0 5 -2
5 -5z"/>
<path d="M749 873 c-13 -16 -12 -17 4 -4 16 13 21 21 13 21 -2 0 -10 -8 -17
-17z"/>
<path d="M866 881 c-4 -5 -2 -12 3 -15 5 -4 12 -2 15 3 4 5 2 12 -3 15 -5 4
-12 2 -15 -3z m14 -6 c0 -3 -2 -5 -5 -5 -3 0 -5 2 -5 5 0 3 2 5 5 5 3 0 5 -2
5 -5z"/>
<path d="M933 832 c-12 -53 -12 -55 11 -46 11 4 16 18 16 44 0 56 -14 56 -27
2z"/>
<path d="M191 846 c-7 -8 -8 -17 -3 -20 6 -3 15 1 21 8 7 8 8 17 3 20 -6 3
-15 -1 -21 -8z m19 0 c0 -3 -5 -8 -12 -12 -7 -4 -8 -3 -4 4 7 12 16 16 16 8z"/>
<path d="M511 846 c-7 -8 -8 -17 -3 -20 6 -3 15 1 21 8 7 8 8 17 3 20 -6 3
-15 -1 -21 -8z m19 0 c0 -3 -5 -8 -12 -12 -7 -4 -8 -3 -4 4 7 12 16 16 16 8z"/>
<path d="M831 846 c-7 -8 -8 -17 -3 -20 6 -3 15 1 21 8 7 8 8 17 3 20 -6 3
-15 -1 -21 -8z m19 0 c0 -3 -5 -8 -12 -12 -7 -4 -8 -3 -4 4 7 12 16 16 16 8z"/>
<path d="M71 819 c-6 -18 -10 -44 -10 -58 1 -21 3 -20 8 9 4 19 11 45 15 58 4
12 5 22 3 22 -3 0 -10 -14 -16 -31z"/>
<path d="M266 833 c-6 -14 -5 -15 5 -6 7 7 10 15 7 18 -3 3 -9 -2 -12 -12z"/>
<path d="M391 819 c-6 -18 -10 -44 -10 -58 1 -21 3 -20 8 9 4 19 11 45 15 58
4 12 5 22 3 22 -3 0 -10 -14 -16 -31z"/>
<path d="M586 833 c-6 -14 -5 -15 5 -6 7 7 10 15 7 18 -3 3 -9 -2 -12 -12z"/>
<path d="M711 819 c-6 -18 -10 -44 -10 -58 1 -21 3 -20 8 9 4 19 11 45 15 58
4 12 5 22 3 22 -3 0 -10 -14 -16 -31z"/>
<path d="M906 833 c-6 -14 -5 -15 5 -6 7 7 10 15 7 18 -3 3 -9 -2 -12 -12z"/>
<path d="M151 806 c-7 -8 -8 -17 -3 -20 6 -3 15 1 21 8 7 8 8 17 3 20 -6 3
-15 -1 -21 -8z m19 0 c0 -3 -5 -8 -12 -12 -7 -4 -8 -3 -4 4 7 12 16 16 16 8z"/>
<path d="M471 806 c-7 -8 -8 -17 -3 -20 6 -3 15 1 21 8 7 8 8 17 3 20 -6 3
-15 -1 -21 -8z m19 0 c0 -3 -5 -8 -12 -12 -7 -4 -8 -3 -4 4 7 12 16 16 16 8z"/>
<path d="M791 806 c-7 -8 -8 -17 -3 -20 6 -3 15 1 21 8 7 8 8 17 3 20 -6 3
-15 -1 -21 -8z m19 0 c0 -3 -5 -8 -12 -12 -7 -4 -8 -3 -4 4 7 12 16 16 16 8z"/>
<path d="M0 786 c0 -17 7 -25 25 -28 21 -4 25 -1 25 17 0 21 -17 35 -41 35 -5
0 -9 -11 -9 -24z"/>
<path d="M255 799 c-4 -6 -5 -12 -2 -15 2 -3 7 2 10 11 7 17 1 20 -8 4z"/>
<path d="M575 799 c-4 -6 -5 -12 -2 -15 2 -3 7 2 10 11 7 17 1 20 -8 4z"/>
<path d="M895 799 c-4 -6 -5 -12 -2 -15 2 -3 7 2 10 11 7 17 1 20 -8 4z"/>
<path d="M111 766 c-7 -8 -8 -17 -3 -20 6 -3 15 1 21 8 7 8 8 17 3 20 -6 3
-15 -1 -21 -8z m19 0 c0 -3 -5 -8 -12 -12 -7 -4 -8 -3 -4 4 7 12 16 16 16 8z"/>
<path d="M431 766 c-7 -8 -8 -17 -3 -20 6 -3 15 1 21 8 7 8 8 17 3 20 -6 3
-15 -1 -21 -8z m19 0 c0 -3 -5 -8 -12 -12 -7 -4 -8 -3 -4 4 7 12 16 16 16 8z"/>
<path d="M751 766 c-7 -8 -8 -17 -3 -20 6 -3 15 1 21 8 7 8 8 17 3 20 -6 3
-15 -1 -21 -8z m19 0 c0 -3 -5 -8 -12 -12 -7 -4 -8 -3 -4 4 7 12 16 16 16 8z"/>
<path d="M930 773 c-8 -3 -34 -23 -57 -44 -24 -22 -47 -39 -53 -39 -6 0 -8
-12 -5 -27 l5 -28 -11 28 c-13 32 -61 41 -52 9 6 -25 -106 -135 -123 -121 -8
6 -13 -1 -17 -23 -3 -18 -9 -41 -13 -52 -6 -16 -3 -17 17 -12 22 5 22 5 -2 -7
-14 -6 -45 -29 -68 -49 -22 -21 -46 -38 -51 -38 -6 0 -8 -12 -5 -27 l5 -28
-11 28 c-13 32 -61 41 -52 9 6 -25 -106 -135 -123 -121 -8 6 -13 -1 -17 -23
-3 -18 -9 -41 -13 -52 -6 -16 -3 -17 17 -12 22 5 22 5 -2 -7 -14 -6 -44 -28
-66 -48 -22 -20 -45 -38 -51 -40 -18 -6 -2 -49 18 -49 9 0 43 27 75 61 41 43
63 59 76 56 33 -9 24 39 -8 52 l-28 11 28 -5 c15 -3 27 -1 27 5 0 5 17 29 38
51 20 23 43 54 49 68 12 24 12 24 7 2 -5 -20 -4 -23 12 -17 11 4 34 10 52 13
22 4 29 9 23 17 -14 17 96 129 121 123 32 -9 23 39 -9 52 l-28 11 28 -5 c15
-3 27 -1 27 5 0 5 17 29 38 51 20 23 43 54 49 68 12 24 12 24 7 2 -5 -20 -4
-23 12 -17 11 4 34 10 52 13 23 4 30 9 22 17 -7 9 5 27 40 61 59 58 69 96 20
78z"/>
<path d="M229 753 c-13 -16 -12 -17 4 -4 16 13 21 21 13 21 -2 0 -10 -8 -17
-17z"/>
<path d="M549 753 c-13 -16 -12 -17 4 -4 9 7 17 15 17 17 0 8 -8 3 -21 -13z"/>
<path d="M869 753 c-13 -16 -12 -17 4 -4 9 7 17 15 17 17 0 8 -8 3 -21 -13z"/>
<path d="M188 725 c-3 -3 -25 -9 -49 -14 -35 -7 -38 -9 -14 -9 28 -1 103 25
79 27 -6 1 -13 -1 -16 -4z"/>
<path d="M508 725 c-3 -3 -25 -9 -49 -14 -35 -7 -38 -9 -14 -9 28 -1 103 25
79 27 -6 1 -13 -1 -16 -4z"/>
<path d="M828 725 c-3 -3 -25 -9 -49 -14 -35 -7 -38 -9 -14 -9 28 -1 103 25
79 27 -6 1 -13 -1 -16 -4z"/>
<path d="M279 674 l-33 -34 37 -37 37 -37 34 33 c30 30 33 36 24 61 -6 17 -21
32 -38 38 -25 9 -31 6 -61 -24z m41 -39 c0 -3 -2 -5 -5 -5 -3 0 -5 2 -5 5 0 3
2 5 5 5 3 0 5 -2 5 -5z"/>
<path d="M599 674 l-33 -34 37 -37 37 -37 34 33 c30 30 33 36 24 61 -6 17 -21
32 -38 38 -25 9 -31 6 -61 -24z m41 -39 c0 -3 -2 -5 -5 -5 -3 0 -5 2 -5 5 0 3
2 5 5 5 3 0 5 -2 5 -5z"/>
<path d="M920 675 l-34 -35 36 -37 37 -36 0 71 c0 40 -1 72 -3 72 -1 0 -17
-16 -36 -35z"/>
<path d="M0 633 l0 -67 34 33 c30 29 33 37 25 60 -11 27 -26 41 -46 41 -9 0
-13 -20 -13 -67z"/>
<path d="M185 590 c-3 -6 1 -7 9 -4 18 7 21 14 7 14 -6 0 -13 -4 -16 -10z"/>
<path d="M242 593 c20 -3 28 -11 31 -31 4 -24 4 -24 6 6 1 30 -1 32 -31 31
-30 -2 -30 -2 -6 -6z"/>
<path d="M505 590 c-3 -6 1 -7 9 -4 18 7 21 14 7 14 -6 0 -13 -4 -16 -10z"/>
<path d="M562 593 c20 -3 28 -11 31 -31 4 -24 4 -24 6 6 1 30 -1 32 -31 31
-30 -2 -30 -2 -6 -6z"/>
<path d="M825 590 c-3 -6 1 -7 9 -4 18 7 21 14 7 14 -6 0 -13 -4 -16 -10z"/>
<path d="M882 593 c20 -3 28 -11 31 -31 4 -24 4 -24 6 6 1 30 -1 32 -31 31
-30 -2 -30 -2 -6 -6z"/>
<path d="M150 580 c-9 -6 -10 -10 -3 -10 6 0 15 5 18 10 8 12 4 12 -15 0z"/>
<path d="M470 580 c-9 -6 -10 -10 -3 -10 6 0 15 5 18 10 8 12 4 12 -15 0z"/>
<path d="M790 580 c-9 -6 -10 -10 -3 -10 6 0 15 5 18 10 8 12 4 12 -15 0z"/>
<path d="M109 553 c-13 -16 -12 -17 4 -4 9 7 17 15 17 17 0 8 -8 3 -21 -13z"/>
<path d="M226 561 c-4 -5 -2 -12 3 -15 5 -4 12 -2 15 3 4 5 2 12 -3 15 -5 4
-12 2 -15 -3z m14 -6 c0 -3 -2 -5 -5 -5 -3 0 -5 2 -5 5 0 3 2 5 5 5 3 0 5 -2
5 -5z"/>
<path d="M429 553 c-13 -16 -12 -17 4 -4 9 7 17 15 17 17 0 8 -8 3 -21 -13z"/>
<path d="M546 561 c-4 -5 -2 -12 3 -15 5 -4 12 -2 15 3 4 5 2 12 -3 15 -5 4
-12 2 -15 -3z m14 -6 c0 -3 -2 -5 -5 -5 -3 0 -5 2 -5 5 0 3 2 5 5 5 3 0 5 -2
5 -5z"/>
<path d="M749 553 c-13 -16 -12 -17 4 -4 9 7 17 15 17 17 0 8 -8 3 -21 -13z"/>
<path d="M866 561 c-4 -5 -2 -12 3 -15 5 -4 12 -2 15 3 4 5 2 12 -3 15 -5 4
-12 2 -15 -3z m14 -6 c0 -3 -2 -5 -5 -5 -3 0 -5 2 -5 5 0 3 2 5 5 5 3 0 5 -2
5 -5z"/>
<path d="M933 512 c-12 -53 -12 -55 11 -46 11 4 16 18 16 44 0 56 -14 56 -27
2z"/>
<path d="M191 526 c-7 -8 -8 -17 -3 -20 6 -3 15 1 21 8 7 8 8 17 3 20 -6 3
-15 -1 -21 -8z m19 0 c0 -3 -5 -8 -12 -12 -7 -4 -8 -3 -4 4 7 12 16 16 16 8z"/>
<path d="M511 526 c-7 -8 -8 -17 -3 -20 6 -3 15 1 21 8 7 8 8 17 3 20 -6 3
-15 -1 -21 -8z m19 0 c0 -3 -5 -8 -12 -12 -7 -4 -8 -3 -4 4 7 12 16 16 16 8z"/>
<path d="M831 526 c-7 -8 -8 -17 -3 -20 6 -3 15 1 21 8 7 8 8 17 3 20 -6 3
-15 -1 -21 -8z m19 0 c0 -3 -5 -8 -12 -12 -7 -4 -8 -3 -4 4 7 12 16 16 16 8z"/>
<path d="M71 499 c-6 -18 -10 -44 -10 -58 1 -21 3 -20 8 9 4 19 11 45 15 58 4
12 5 22 3 22 -3 0 -10 -14 -16 -31z"/>
<path d="M266 513 c-6 -14 -5 -15 5 -6 7 7 10 15 7 18 -3 3 -9 -2 -12 -12z"/>
<path d="M391 499 c-6 -18 -10 -44 -10 -58 1 -21 3 -20 8 9 4 19 11 45 15 58
4 12 5 22 3 22 -3 0 -10 -14 -16 -31z"/>
<path d="M586 513 c-6 -14 -5 -15 5 -6 7 7 10 15 7 18 -3 3 -9 -2 -12 -12z"/>
<path d="M711 499 c-6 -18 -10 -44 -10 -58 1 -21 3 -20 8 9 4 19 11 45 15 58
4 12 5 22 3 22 -3 0 -10 -14 -16 -31z"/>
<path d="M906 513 c-6 -14 -5 -15 5 -6 7 7 10 15 7 18 -3 3 -9 -2 -12 -12z"/>
<path d="M151 486 c-7 -8 -8 -17 -3 -20 6 -3 15 1 21 8 7 8 8 17 3 20 -6 3
-15 -1 -21 -8z m19 0 c0 -3 -5 -8 -12 -12 -7 -4 -8 -3 -4 4 7 12 16 16 16 8z"/>
<path d="M471 486 c-7 -8 -8 -17 -3 -20 6 -3 15 1 21 8 7 8 8 17 3 20 -6 3
-15 -1 -21 -8z m19 0 c0 -3 -5 -8 -12 -12 -7 -4 -8 -3 -4 4 7 12 16 16 16 8z"/>
<path d="M791 486 c-7 -8 -8 -17 -3 -20 6 -3 15 1 21 8 7 8 8 17 3 20 -6 3
-15 -1 -21 -8z m19 0 c0 -3 -5 -8 -12 -12 -7 -4 -8 -3 -4 4 7 12 16 16 16 8z"/>
<path d="M0 466 c0 -17 7 -25 25 -28 21 -4 25 -1 25 17 0 21 -17 35 -41 35 -5
0 -9 -11 -9 -24z"/>
<path d="M255 479 c-4 -6 -5 -12 -2 -15 2 -3 7 2 10 11 7 17 1 20 -8 4z"/>
<path d="M575 479 c-4 -6 -5 -12 -2 -15 2 -3 7 2 10 11 7 17 1 20 -8 4z"/>
<path d="M895 479 c-4 -6 -5 -12 -2 -15 2 -3 7 2 10 11 7 17 1 20 -8 4z"/>
<path d="M111 446 c-7 -8 -8 -17 -3 -20 6 -3 15 1 21 8 7 8 8 17 3 20 -6 3
-15 -1 -21 -8z m19 0 c0 -3 -5 -8 -12 -12 -7 -4 -8 -3 -4 4 7 12 16 16 16 8z"/>
<path d="M431 446 c-7 -8 -8 -17 -3 -20 6 -3 15 1 21 8 7 8 8 17 3 20 -6 3
-15 -1 -21 -8z m19 0 c0 -3 -5 -8 -12 -12 -7 -4 -8 -3 -4 4 7 12 16 16 16 8z"/>
<path d="M751 446 c-7 -8 -8 -17 -3 -20 6 -3 15 1 21 8 7 8 8 17 3 20 -6 3
-15 -1 -21 -8z m19 0 c0 -3 -5 -8 -12 -12 -7 -4 -8 -3 -4 4 7 12 16 16 16 8z"/>
<path d="M930 453 c-8 -3 -34 -23 -57 -44 -24 -22 -47 -39 -53 -39 -6 0 -8
-12 -5 -27 l5 -28 -11 28 c-13 32 -61 41 -52 9 6 -25 -106 -135 -123 -121 -8
6 -13 -1 -17 -23 -3 -18 -9 -41 -13 -52 -6 -16 -3 -17 17 -12 22 5 22 5 -2 -7
-14 -6 -44 -28 -66 -48 -22 -20 -45 -38 -51 -40 -18 -6 -2 -49 18 -49 9 0 43
27 75 61 41 43 63 59 76 56 33 -9 24 39 -8 52 l-28 11 28 -5 c15 -3 27 -1 27
5 0 5 17 29 38 51 20 23 43 54 49 68 12 24 12 24 7 2 -5 -20 -4 -23 12 -17 11
4 34 10 52 13 23 4 30 9 22 17 -7 9 5 27 40 61 59 58 69 96 20 78z"/>
<path d="M229 433 c-13 -16 -12 -17 4 -4 9 7 17 15 17 17 0 8 -8 3 -21 -13z"/>
<path d="M549 433 c-13 -16 -12 -17 4 -4 16 13 21 21 13 21 -2 0 -10 -8 -17
-17z"/>
<path d="M869 433 c-13 -16 -12 -17 4 -4 9 7 17 15 17 17 0 8 -8 3 -21 -13z"/>
<path d="M188 405 c-3 -3 -25 -9 -49 -14 -35 -7 -38 -9 -14 -9 28 -1 103 25
79 27 -6 1 -13 -1 -16 -4z"/>
<path d="M508 405 c-3 -3 -25 -9 -49 -14 -35 -7 -38 -9 -14 -9 28 -1 103 25
79 27 -6 1 -13 -1 -16 -4z"/>
<path d="M828 405 c-3 -3 -25 -9 -49 -14 -35 -7 -38 -9 -14 -9 28 -1 103 25
79 27 -6 1 -13 -1 -16 -4z"/>
<path d="M279 354 l-33 -34 37 -37 37 -37 34 33 c30 30 33 36 24 61 -6 17 -21
32 -38 38 -25 9 -31 6 -61 -24z m41 -39 c0 -3 -2 -5 -5 -5 -3 0 -5 2 -5 5 0 3
2 5 5 5 3 0 5 -2 5 -5z"/>
<path d="M599 354 l-33 -34 37 -37 37 -37 34 33 c30 30 33 36 24 61 -6 17 -21
32 -38 38 -25 9 -31 6 -61 -24z m41 -39 c0 -3 -2 -5 -5 -5 -3 0 -5 2 -5 5 0 3
2 5 5 5 3 0 5 -2 5 -5z"/>
<path d="M920 355 l-34 -35 36 -37 37 -36 0 71 c0 40 -1 72 -3 72 -1 0 -17
-16 -36 -35z"/>
<path d="M0 313 l0 -67 34 33 c30 29 33 37 25 60 -11 27 -26 41 -46 41 -9 0
-13 -20 -13 -67z"/>
<path d="M185 270 c-3 -6 1 -7 9 -4 18 7 21 14 7 14 -6 0 -13 -4 -16 -10z"/>
<path d="M242 273 c20 -3 28 -11 31 -31 4 -24 4 -24 6 6 1 30 -1 32 -31 31
-30 -2 -30 -2 -6 -6z"/>
<path d="M505 270 c-3 -6 1 -7 9 -4 18 7 21 14 7 14 -6 0 -13 -4 -16 -10z"/>
<path d="M562 273 c20 -3 28 -11 31 -31 4 -24 4 -24 6 6 1 30 -1 32 -31 31
-30 -2 -30 -2 -6 -6z"/>
<path d="M825 270 c-3 -6 1 -7 9 -4 18 7 21 14 7 14 -6 0 -13 -4 -16 -10z"/>
<path d="M882 273 c20 -3 28 -11 31 -31 4 -24 4 -24 6 6 1 30 -1 32 -31 31
-30 -2 -30 -2 -6 -6z"/>
<path d="M150 260 c-9 -6 -10 -10 -3 -10 6 0 15 5 18 10 8 12 4 12 -15 0z"/>
<path d="M470 260 c-9 -6 -10 -10 -3 -10 6 0 15 5 18 10 8 12 4 12 -15 0z"/>
<path d="M790 260 c-9 -6 -10 -10 -3 -10 6 0 15 5 18 10 8 12 4 12 -15 0z"/>
<path d="M109 233 c-13 -16 -12 -17 4 -4 9 7 17 15 17 17 0 8 -8 3 -21 -13z"/>
<path d="M226 241 c-4 -5 -2 -12 3 -15 5 -4 12 -2 15 3 4 5 2 12 -3 15 -5 4
-12 2 -15 -3z m14 -6 c0 -3 -2 -5 -5 -5 -3 0 -5 2 -5 5 0 3 2 5 5 5 3 0 5 -2
5 -5z"/>
<path d="M429 233 c-13 -16 -12 -17 4 -4 9 7 17 15 17 17 0 8 -8 3 -21 -13z"/>
<path d="M546 241 c-4 -5 -2 -12 3 -15 5 -4 12 -2 15 3 4 5 2 12 -3 15 -5 4
-12 2 -15 -3z m14 -6 c0 -3 -2 -5 -5 -5 -3 0 -5 2 -5 5 0 3 2 5 5 5 3 0 5 -2
5 -5z"/>
<path d="M749 233 c-13 -16 -12 -17 4 -4 16 13 21 21 13 21 -2 0 -10 -8 -17
-17z"/>
<path d="M866 241 c-4 -5 -2 -12 3 -15 5 -4 12 -2 15 3 4 5 2 12 -3 15 -5 4
-12 2 -15 -3z m14 -6 c0 -3 -2 -5 -5 -5 -3 0 -5 2 -5 5 0 3 2 5 5 5 3 0 5 -2
5 -5z"/>
<path d="M933 192 c-12 -53 -12 -55 11 -46 11 4 16 18 16 44 0 56 -14 56 -27
2z"/>
<path d="M191 206 c-7 -8 -8 -17 -3 -20 6 -3 15 1 21 8 7 8 8 17 3 20 -6 3
-15 -1 -21 -8z m19 0 c0 -3 -5 -8 -12 -12 -7 -4 -8 -3 -4 4 7 12 16 16 16 8z"/>
<path d="M511 206 c-7 -8 -8 -17 -3 -20 6 -3 15 1 21 8 7 8 8 17 3 20 -6 3
-15 -1 -21 -8z m19 0 c0 -3 -5 -8 -12 -12 -7 -4 -8 -3 -4 4 7 12 16 16 16 8z"/>
<path d="M831 206 c-7 -8 -8 -17 -3 -20 6 -3 15 1 21 8 7 8 8 17 3 20 -6 3
-15 -1 -21 -8z m19 0 c0 -3 -5 -8 -12 -12 -7 -4 -8 -3 -4 4 7 12 16 16 16 8z"/>
<path d="M71 179 c-6 -18 -10 -44 -10 -58 1 -21 3 -20 8 9 4 19 11 45 15 58 4
12 5 22 3 22 -3 0 -10 -14 -16 -31z"/>
<path d="M266 193 c-6 -14 -5 -15 5 -6 7 7 10 15 7 18 -3 3 -9 -2 -12 -12z"/>
<path d="M391 179 c-6 -18 -10 -44 -10 -58 1 -21 3 -20 8 9 4 19 11 45 15 58
4 12 5 22 3 22 -3 0 -10 -14 -16 -31z"/>
<path d="M586 193 c-6 -14 -5 -15 5 -6 7 7 10 15 7 18 -3 3 -9 -2 -12 -12z"/>
<path d="M711 179 c-6 -18 -10 -44 -10 -58 1 -21 3 -20 8 9 4 19 11 45 15 58
4 12 5 22 3 22 -3 0 -10 -14 -16 -31z"/>
<path d="M906 193 c-6 -14 -5 -15 5 -6 7 7 10 15 7 18 -3 3 -9 -2 -12 -12z"/>
<path d="M151 166 c-7 -8 -8 -17 -3 -20 6 -3 15 1 21 8 7 8 8 17 3 20 -6 3
-15 -1 -21 -8z m19 0 c0 -3 -5 -8 -12 -12 -7 -4 -8 -3 -4 4 7 12 16 16 16 8z"/>
<path d="M471 166 c-7 -8 -8 -17 -3 -20 6 -3 15 1 21 8 7 8 8 17 3 20 -6 3
-15 -1 -21 -8z m19 0 c0 -3 -5 -8 -12 -12 -7 -4 -8 -3 -4 4 7 12 16 16 16 8z"/>
<path d="M791 166 c-7 -8 -8 -17 -3 -20 6 -3 15 1 21 8 7 8 8 17 3 20 -6 3
-15 -1 -21 -8z m19 0 c0 -3 -5 -8 -12 -12 -7 -4 -8 -3 -4 4 7 12 16 16 16 8z"/>
<path d="M0 146 c0 -17 7 -25 25 -28 21 -4 25 -1 25 17 0 21 -17 35 -41 35 -5
0 -9 -11 -9 -24z"/>
<path d="M255 159 c-4 -6 -5 -12 -2 -15 2 -3 7 2 10 11 7 17 1 20 -8 4z"/>
<path d="M575 159 c-4 -6 -5 -12 -2 -15 2 -3 7 2 10 11 7 17 1 20 -8 4z"/>
<path d="M895 159 c-4 -6 -5 -12 -2 -15 2 -3 7 2 10 11 7 17 1 20 -8 4z"/>
<path d="M111 126 c-7 -8 -8 -17 -3 -20 6 -3 15 1 21 8 7 8 8 17 3 20 -6 3
-15 -1 -21 -8z m19 0 c0 -3 -5 -8 -12 -12 -7 -4 -8 -3 -4 4 7 12 16 16 16 8z"/>
<path d="M431 126 c-7 -8 -8 -17 -3 -20 6 -3 15 1 21 8 7 8 8 17 3 20 -6 3
-15 -1 -21 -8z m19 0 c0 -3 -5 -8 -12 -12 -7 -4 -8 -3 -4 4 7 12 16 16 16 8z"/>
<path d="M751 126 c-7 -8 -8 -17 -3 -20 6 -3 15 1 21 8 7 8 8 17 3 20 -6 3
-15 -1 -21 -8z m19 0 c0 -3 -5 -8 -12 -12 -7 -4 -8 -3 -4 4 7 12 16 16 16 8z"/>
<path d="M930 133 c-8 -3 -33 -23 -56 -43 -22 -20 -46 -39 -52 -41 -17 -6 -2
-49 17 -49 22 0 121 101 121 123 0 18 -5 19 -30 10z"/>
<path d="M229 113 c-13 -16 -12 -17 4 -4 16 13 21 21 13 21 -2 0 -10 -8 -17
-17z"/>
<path d="M549 113 c-13 -16 -12 -17 4 -4 16 13 21 21 13 21 -2 0 -10 -8 -17
-17z"/>
<path d="M869 113 c-13 -16 -12 -17 4 -4 16 13 21 21 13 21 -2 0 -10 -8 -17
-17z"/>
<path d="M188 85 c-3 -3 -25 -9 -49 -14 -35 -7 -38 -9 -14 -9 28 -1 103 25 79
27 -6 1 -13 -1 -16 -4z"/>
<path d="M508 85 c-3 -3 -25 -9 -49 -14 -35 -7 -38 -9 -14 -9 28 -1 103 25 79
27 -6 1 -13 -1 -16 -4z"/>
<path d="M828 85 c-3 -3 -25 -9 -49 -14 -35 -7 -38 -9 -14 -9 28 -1 103 25 79
27 -6 1 -13 -1 -16 -4z"/>
<path d="M279 34 l-33 -34 67 0 c47 0 67 4 67 13 0 20 -14 35 -41 46 -23 8
-31 5 -60 -25z"/>
<path d="M599 34 l-33 -34 67 0 c47 0 67 4 67 13 0 20 -14 35 -41 46 -23 8
-31 5 -60 -25z"/>
<path d="M920 35 l-34 -35 37 0 c36 0 37 1 37 35 0 19 -1 35 -3 35 -2 0 -18
-16 -37 -35z"/>
<path d="M0 30 c0 -27 3 -30 30 -30 34 0 40 19 14 44 -25 26 -44 20 -44 -14z"/>
<path d="M118 25 c3 -18 11 -25 28 -25 13 0 24 4 24 9 0 24 -14 41 -35 41 -18
0 -21 -4 -17 -25z"/>
<path d="M438 25 c3 -18 11 -25 28 -25 13 0 24 4 24 9 0 24 -14 41 -35 41 -18
0 -21 -4 -17 -25z"/>
<path d="M758 25 c3 -18 11 -25 28 -25 13 0 24 4 24 9 0 24 -14 41 -35 41 -18
0 -21 -4 -17 -25z"/>
</g>
<g transform="translate(0.000000,96.000000) scale(0.100000,-0.100000)"
fill="#d97198" stroke="none">
<path d="M0 923 l0 -37 35 34 c19 19 35 35 35 37 0 2 -16 3 -35 3 -34 0 -35
-1 -35 -37z"/>
<path d="M50 903 l-55 -58 58 55 c53 50 62 60 54 60 -1 0 -27 -26 -57 -57z"/>
<path d="M146 945 c-9 -26 -7 -32 5 -12 6 10 9 21 6 23 -2 3 -7 -2 -11 -11z"/>
<path d="M264 943 l19 -23 -34 -1 c-29 -2 -30 -3 -7 -6 20 -3 28 -11 31 -31 3
-23 4 -22 6 7 1 34 1 34 21 16 20 -19 22 -18 58 19 l37 37 -48 -2 c-32 -2 -44
-6 -37 -13 5 -5 10 -19 10 -30 0 -17 -5 -15 -37 15 -21 18 -29 24 -19 12z"/>
<path d="M370 903 l-55 -58 58 55 c53 50 62 60 54 60 -1 0 -27 -26 -57 -57z"/>
<path d="M466 945 c-9 -26 -7 -32 5 -12 6 10 9 21 6 23 -2 3 -7 -2 -11 -11z"/>
<path d="M584 943 l19 -23 -34 -1 c-29 -2 -30 -3 -7 -6 20 -3 28 -11 31 -31 3
-23 4 -22 6 7 1 34 1 34 21 16 20 -19 22 -18 58 19 l37 37 -48 -2 c-32 -2 -44
-6 -37 -13 5 -5 10 -19 10 -30 0 -17 -5 -15 -37 15 -21 18 -29 24 -19 12z"/>
<path d="M690 903 l-55 -58 58 55 c31 30 57 56 57 57 0 8 -10 -1 -60 -54z"/>
<path d="M786 945 c-9 -26 -7 -32 5 -12 6 10 9 21 6 23 -2 3 -7 -2 -11 -11z"/>
<path d="M905 940 c18 -20 17 -20 -16 -21 -29 -2 -30 -3 -7 -6 20 -3 28 -11
31 -31 3 -23 4 -22 6 7 l1 34 23 -19 c12 -10 6 -2 -12 19 -19 20 -37 37 -40
37 -2 0 4 -9 14 -20z"/>
<path d="M945 950 c3 -5 8 -10 11 -10 3 0 2 5 -1 10 -3 6 -8 10 -11 10 -3 0
-2 -4 1 -10z"/>
<path d="M81 875 c-22 -24 -41 -50 -41 -57 0 -7 6 -4 12 7 6 11 27 37 46 58
20 20 33 37 30 37 -3 0 -24 -20 -47 -45z"/>
<path d="M185 910 c-3 -6 1 -7 9 -4 18 7 21 14 7 14 -6 0 -13 -4 -16 -10z"/>
<path d="M401 875 c-22 -24 -41 -50 -41 -57 0 -7 6 -4 12 7 6 11 27 37 46 58
20 20 33 37 30 37 -3 0 -24 -20 -47 -45z"/>
<path d="M505 910 c-3 -6 1 -7 9 -4 18 7 21 14 7 14 -6 0 -13 -4 -16 -10z"/>
<path d="M721 875 c-22 -24 -41 -50 -41 -57 0 -7 6 -4 12 7 6 11 27 37 46 58
20 20 33 37 30 37 -3 0 -24 -20 -47 -45z"/>
<path d="M825 910 c-3 -6 1 -7 9 -4 18 7 21 14 7 14 -6 0 -13 -4 -16 -10z"/>
<path d="M150 900 c-9 -6 -10 -10 -3 -10 6 0 15 5 18 10 8 12 4 12 -15 0z"/>
<path d="M470 900 c-9 -6 -10 -10 -3 -10 6 0 15 5 18 10 8 12 4 12 -15 0z"/>
<path d="M790 900 c-9 -6 -10 -10 -3 -10 6 0 15 5 18 10 8 12 4 12 -15 0z"/>
<path d="M109 873 c-13 -16 -12 -17 4 -4 9 7 17 15 17 17 0 8 -8 3 -21 -13z"/>
<path d="M226 881 c-4 -5 -2 -12 3 -15 5 -4 12 -2 15 3 4 5 2 12 -3 15 -5 4
-12 2 -15 -3z m14 -6 c0 -3 -2 -5 -5 -5 -3 0 -5 2 -5 5 0 3 2 5 5 5 3 0 5 -2
5 -5z"/>
<path d="M429 873 c-13 -16 -12 -17 4 -4 9 7 17 15 17 17 0 8 -8 3 -21 -13z"/>
<path d="M546 881 c-4 -5 -2 -12 3 -15 5 -4 12 -2 15 3 4 5 2 12 -3 15 -5 4
-12 2 -15 -3z m14 -6 c0 -3 -2 -5 -5 -5 -3 0 -5 2 -5 5 0 3 2 5 5 5 3 0 5 -2
5 -5z"/>
<path d="M749 873 c-13 -16 -12 -17 4 -4 16 13 21 21 13 21 -2 0 -10 -8 -17
-17z"/>
<path d="M866 881 c-4 -5 -2 -12 3 -15 5 -4 12 -2 15 3 4 5 2 12 -3 15 -5 4
-12 2 -15 -3z m14 -6 c0 -3 -2 -5 -5 -5 -3 0 -5 2 -5 5 0 3 2 5 5 5 3 0 5 -2
5 -5z"/>
<path d="M191 846 c-7 -8 -8 -17 -3 -20 6 -3 15 1 21 8 7 8 8 17 3 20 -6 3
-15 -1 -21 -8z m19 0 c0 -3 -5 -8 -12 -12 -7 -4 -8 -3 -4 4 7 12 16 16 16 8z"/>
<path d="M511 846 c-7 -8 -8 -17 -3 -20 6 -3 15 1 21 8 7 8 8 17 3 20 -6 3
-15 -1 -21 -8z m19 0 c0 -3 -5 -8 -12 -12 -7 -4 -8 -3 -4 4 7 12 16 16 16 8z"/>
<path d="M831 846 c-7 -8 -8 -17 -3 -20 6 -3 15 1 21 8 7 8 8 17 3 20 -6 3
-15 -1 -21 -8z m19 0 c0 -3 -5 -8 -12 -12 -7 -4 -8 -3 -4 4 7 12 16 16 16 8z"/>
<path d="M71 819 c-6 -18 -10 -44 -10 -58 1 -21 3 -20 8 9 4 19 11 45 15 58 4
12 5 22 3 22 -3 0 -10 -14 -16 -31z"/>
<path d="M266 833 c-6 -14 -5 -15 5 -6 7 7 10 15 7 18 -3 3 -9 -2 -12 -12z"/>
<path d="M391 819 c-6 -18 -10 -44 -10 -58 1 -21 3 -20 8 9 4 19 11 45 15 58
4 12 5 22 3 22 -3 0 -10 -14 -16 -31z"/>
<path d="M586 833 c-6 -14 -5 -15 5 -6 7 7 10 15 7 18 -3 3 -9 -2 -12 -12z"/>
<path d="M711 819 c-6 -18 -10 -44 -10 -58 1 -21 3 -20 8 9 4 19 11 45 15 58
4 12 5 22 3 22 -3 0 -10 -14 -16 -31z"/>
<path d="M906 833 c-6 -14 -5 -15 5 -6 7 7 10 15 7 18 -3 3 -9 -2 -12 -12z"/>
<path d="M151 806 c-7 -8 -8 -17 -3 -20 6 -3 15 1 21 8 7 8 8 17 3 20 -6 3
-15 -1 -21 -8z m19 0 c0 -3 -5 -8 -12 -12 -7 -4 -8 -3 -4 4 7 12 16 16 16 8z"/>
<path d="M471 806 c-7 -8 -8 -17 -3 -20 6 -3 15 1 21 8 7 8 8 17 3 20 -6 3
-15 -1 -21 -8z m19 0 c0 -3 -5 -8 -12 -12 -7 -4 -8 -3 -4 4 7 12 16 16 16 8z"/>
<path d="M791 806 c-7 -8 -8 -17 -3 -20 6 -3 15 1 21 8 7 8 8 17 3 20 -6 3
-15 -1 -21 -8z m19 0 c0 -3 -5 -8 -12 -12 -7 -4 -8 -3 -4 4 7 12 16 16 16 8z"/>
<path d="M15 800 c27 -12 43 -12 25 0 -8 5 -22 9 -30 9 -10 0 -8 -3 5 -9z"/>
<path d="M255 799 c-4 -6 -5 -12 -2 -15 2 -3 7 2 10 11 7 17 1 20 -8 4z"/>
<path d="M300 794 c-15 -9 -17 -12 -5 -8 11 4 33 7 48 7 20 0 24 3 15 8 -18
12 -29 11 -58 -7z"/>
<path d="M575 799 c-4 -6 -5 -12 -2 -15 2 -3 7 2 10 11 7 17 1 20 -8 4z"/>
<path d="M620 794 c-15 -9 -17 -12 -5 -8 11 4 33 7 48 7 20 0 24 3 15 8 -18
12 -29 11 -58 -7z"/>
<path d="M895 799 c-4 -6 -5 -12 -2 -15 2 -3 7 2 10 11 7 17 1 20 -8 4z"/>
<path d="M930 790 c-8 -5 -10 -10 -5 -10 6 0 17 5 25 10 8 5 11 10 5 10 -5 0
-17 -5 -25 -10z"/>
<path d="M111 766 c-7 -8 -8 -17 -3 -20 6 -3 15 1 21 8 7 8 8 17 3 20 -6 3
-15 -1 -21 -8z m19 0 c0 -3 -5 -8 -12 -12 -7 -4 -8 -3 -4 4 7 12 16 16 16 8z"/>
<path d="M431 766 c-7 -8 -8 -17 -3 -20 6 -3 15 1 21 8 7 8 8 17 3 20 -6 3
-15 -1 -21 -8z m19 0 c0 -3 -5 -8 -12 -12 -7 -4 -8 -3 -4 4 7 12 16 16 16 8z"/>
<path d="M751 766 c-7 -8 -8 -17 -3 -20 6 -3 15 1 21 8 7 8 8 17 3 20 -6 3
-15 -1 -21 -8z m19 0 c0 -3 -5 -8 -12 -12 -7 -4 -8 -3 -4 4 7 12 16 16 16 8z"/>
<path d="M229 753 c-13 -16 -12 -17 4 -4 16 13 21 21 13 21 -2 0 -10 -8 -17
-17z"/>
<path d="M249 744 c-13 -15 -37 -35 -54 -45 -16 -11 -24 -19 -17 -19 13 0 113
89 101 90 -3 0 -16 -12 -30 -26z"/>
<path d="M549 753 c-13 -16 -12 -17 4 -4 9 7 17 15 17 17 0 8 -8 3 -21 -13z"/>
<path d="M569 744 c-13 -15 -37 -35 -54 -45 -16 -11 -24 -19 -17 -19 13 0 113
89 101 90 -3 0 -16 -12 -30 -26z"/>
<path d="M869 753 c-13 -16 -12 -17 4 -4 9 7 17 15 17 17 0 8 -8 3 -21 -13z"/>
<path d="M889 744 c-13 -15 -37 -35 -54 -45 -16 -11 -24 -19 -17 -19 13 0 113
89 101 90 -3 0 -16 -12 -30 -26z"/>
<path d="M260 693 l-55 -58 58 55 c31 30 57 56 57 57 0 8 -10 -1 -60 -54z"/>
<path d="M580 693 l-55 -58 58 55 c31 30 57 56 57 57 0 8 -10 -1 -60 -54z"/>
<path d="M900 693 l-55 -58 58 55 c31 30 57 56 57 57 0 8 -10 -1 -60 -54z"/>
<path d="M188 725 c-3 -3 -25 -9 -49 -14 -35 -7 -38 -9 -14 -9 28 -1 103 25
79 27 -6 1 -13 -1 -16 -4z"/>
<path d="M508 725 c-3 -3 -25 -9 -49 -14 -35 -7 -38 -9 -14 -9 28 -1 103 25
79 27 -6 1 -13 -1 -16 -4z"/>
<path d="M828 725 c-3 -3 -25 -9 -49 -14 -35 -7 -38 -9 -14 -9 28 -1 103 25
79 27 -6 1 -13 -1 -16 -4z"/>
<path d="M279 674 c-32 -33 -32 -34 -14 -54 18 -20 18 -20 -16 -21 -29 -2 -30
-3 -7 -6 20 -3 28 -11 31 -31 3 -23 4 -22 6 7 1 34 1 34 21 16 20 -18 21 -18
54 14 30 30 33 36 24 61 -6 17 -21 32 -38 38 -25 9 -31 6 -61 -24z m79 4 c20
-20 14 -40 -10 -36 -15 2 -24 11 -26 26 -4 24 16 30 36 10z m-40 -72 l3 -30
-31 29 c-16 16 -30 30 -30 32 0 2 13 2 28 1 23 -2 28 -7 30 -32z"/>
<path d="M599 674 c-32 -33 -32 -34 -14 -54 18 -20 18 -20 -16 -21 -29 -2 -30
-3 -7 -6 20 -3 28 -11 31 -31 3 -23 4 -22 6 7 1 34 1 34 21 16 20 -18 21 -18
54 14 30 30 33 36 24 61 -6 17 -21 32 -38 38 -25 9 -31 6 -61 -24z m79 4 c20
-20 14 -40 -10 -36 -15 2 -24 11 -26 26 -4 24 16 30 36 10z m-40 -72 l3 -30
-31 29 c-16 16 -30 30 -30 32 0 2 13 2 28 1 23 -2 28 -7 30 -32z"/>
<path d="M920 675 c-33 -34 -33 -35 -15 -55 18 -20 18 -20 -16 -21 -29 -2 -30
-3 -7 -6 20 -3 28 -11 31 -31 3 -23 4 -22 6 7 l1 34 23 -19 c12 -10 6 -2 -12
19 -30 32 -32 37 -15 37 11 0 25 -5 30 -10 7 -7 11 4 13 35 1 25 0 45 -2 45
-2 0 -18 -16 -37 -35z"/>
<path d="M20 687 c14 -7 26 -21 28 -31 3 -15 -1 -18 -22 -14 -25 5 -26 3 -26
-35 l0 -41 34 33 c30 29 33 37 25 60 -11 28 -26 41 -49 41 -8 0 -4 -6 10 -13z"/>
<path d="M153 665 c0 -16 -3 -39 -7 -50 -4 -11 0 -7 9 9 12 21 14 34 7 50 -8
19 -9 18 -9 -9z"/>
<path d="M473 665 c0 -16 -3 -39 -7 -50 -4 -11 0 -7 9 9 12 21 14 34 7 50 -8
19 -9 18 -9 -9z"/>
<path d="M793 665 c0 -16 -3 -39 -7 -50 -4 -11 0 -7 9 9 12 21 14 34 7 50 -8
19 -9 18 -9 -9z"/>
<path d="M50 583 l-55 -58 58 55 c53 50 62 60 54 60 -1 0 -27 -26 -57 -57z"/>
<path d="M370 583 l-55 -58 58 55 c53 50 62 60 54 60 -1 0 -27 -26 -57 -57z"/>
<path d="M690 583 l-55 -58 58 55 c31 30 57 56 57 57 0 8 -10 -1 -60 -54z"/>
<path d="M81 555 c-22 -24 -41 -50 -41 -57 0 -7 6 -4 12 7 6 11 27 37 46 58
20 20 33 37 30 37 -3 0 -24 -20 -47 -45z"/>
<path d="M185 590 c-3 -6 1 -7 9 -4 18 7 21 14 7 14 -6 0 -13 -4 -16 -10z"/>
<path d="M401 555 c-22 -24 -41 -50 -41 -57 0 -7 6 -4 12 7 6 11 27 37 46 58
20 20 33 37 30 37 -3 0 -24 -20 -47 -45z"/>
<path d="M505 590 c-3 -6 1 -7 9 -4 18 7 21 14 7 14 -6 0 -13 -4 -16 -10z"/>
<path d="M721 555 c-22 -24 -41 -50 -41 -57 0 -7 6 -4 12 7 6 11 27 37 46 58
20 20 33 37 30 37 -3 0 -24 -20 -47 -45z"/>
<path d="M825 590 c-3 -6 1 -7 9 -4 18 7 21 14 7 14 -6 0 -13 -4 -16 -10z"/>
<path d="M150 580 c-9 -6 -10 -10 -3 -10 6 0 15 5 18 10 8 12 4 12 -15 0z"/>
<path d="M470 580 c-9 -6 -10 -10 -3 -10 6 0 15 5 18 10 8 12 4 12 -15 0z"/>
<path d="M790 580 c-9 -6 -10 -10 -3 -10 6 0 15 5 18 10 8 12 4 12 -15 0z"/>
<path d="M109 553 c-13 -16 -12 -17 4 -4 9 7 17 15 17 17 0 8 -8 3 -21 -13z"/>
<path d="M226 561 c-4 -5 -2 -12 3 -15 5 -4 12 -2 15 3 4 5 2 12 -3 15 -5 4
-12 2 -15 -3z m14 -6 c0 -3 -2 -5 -5 -5 -3 0 -5 2 -5 5 0 3 2 5 5 5 3 0 5 -2
5 -5z"/>
<path d="M429 553 c-13 -16 -12 -17 4 -4 9 7 17 15 17 17 0 8 -8 3 -21 -13z"/>
<path d="M546 561 c-4 -5 -2 -12 3 -15 5 -4 12 -2 15 3 4 5 2 12 -3 15 -5 4
-12 2 -15 -3z m14 -6 c0 -3 -2 -5 -5 -5 -3 0 -5 2 -5 5 0 3 2 5 5 5 3 0 5 -2
5 -5z"/>
<path d="M749 553 c-13 -16 -12 -17 4 -4 9 7 17 15 17 17 0 8 -8 3 -21 -13z"/>
<path d="M866 561 c-4 -5 -2 -12 3 -15 5 -4 12 -2 15 3 4 5 2 12 -3 15 -5 4
-12 2 -15 -3z m14 -6 c0 -3 -2 -5 -5 -5 -3 0 -5 2 -5 5 0 3 2 5 5 5 3 0 5 -2
5 -5z"/>
<path d="M191 526 c-7 -8 -8 -17 -3 -20 6 -3 15 1 21 8 7 8 8 17 3 20 -6 3
-15 -1 -21 -8z m19 0 c0 -3 -5 -8 -12 -12 -7 -4 -8 -3 -4 4 7 12 16 16 16 8z"/>
<path d="M511 526 c-7 -8 -8 -17 -3 -20 6 -3 15 1 21 8 7 8 8 17 3 20 -6 3
-15 -1 -21 -8z m19 0 c0 -3 -5 -8 -12 -12 -7 -4 -8 -3 -4 4 7 12 16 16 16 8z"/>
<path d="M831 526 c-7 -8 -8 -17 -3 -20 6 -3 15 1 21 8 7 8 8 17 3 20 -6 3
-15 -1 -21 -8z m19 0 c0 -3 -5 -8 -12 -12 -7 -4 -8 -3 -4 4 7 12 16 16 16 8z"/>
<path d="M71 499 c-6 -18 -10 -44 -10 -58 1 -21 3 -20 8 9 4 19 11 45 15 58 4
12 5 22 3 22 -3 0 -10 -14 -16 -31z"/>
<path d="M266 513 c-6 -14 -5 -15 5 -6 7 7 10 15 7 18 -3 3 -9 -2 -12 -12z"/>
<path d="M391 499 c-6 -18 -10 -44 -10 -58 1 -21 3 -20 8 9 4 19 11 45 15 58
4 12 5 22 3 22 -3 0 -10 -14 -16 -31z"/>
<path d="M586 513 c-6 -14 -5 -15 5 -6 7 7 10 15 7 18 -3 3 -9 -2 -12 -12z"/>
<path d="M711 499 c-6 -18 -10 -44 -10 -58 1 -21 3 -20 8 9 4 19 11 45 15 58
4 12 5 22 3 22 -3 0 -10 -14 -16 -31z"/>
<path d="M906 513 c-6 -14 -5 -15 5 -6 7 7 10 15 7 18 -3 3 -9 -2 -12 -12z"/>
<path d="M151 486 c-7 -8 -8 -17 -3 -20 6 -3 15 1 21 8 7 8 8 17 3 20 -6 3
-15 -1 -21 -8z m19 0 c0 -3 -5 -8 -12 -12 -7 -4 -8 -3 -4 4 7 12 16 16 16 8z"/>
<path d="M471 486 c-7 -8 -8 -17 -3 -20 6 -3 15 1 21 8 7 8 8 17 3 20 -6 3
-15 -1 -21 -8z m19 0 c0 -3 -5 -8 -12 -12 -7 -4 -8 -3 -4 4 7 12 16 16 16 8z"/>
<path d="M791 486 c-7 -8 -8 -17 -3 -20 6 -3 15 1 21 8 7 8 8 17 3 20 -6 3
-15 -1 -21 -8z m19 0 c0 -3 -5 -8 -12 -12 -7 -4 -8 -3 -4 4 7 12 16 16 16 8z"/>
<path d="M15 480 c27 -12 43 -12 25 0 -8 5 -22 9 -30 9 -10 0 -8 -3 5 -9z"/>
<path d="M255 479 c-4 -6 -5 -12 -2 -15 2 -3 7 2 10 11 7 17 1 20 -8 4z"/>
<path d="M300 474 c-15 -9 -17 -12 -5 -8 11 4 33 7 48 7 20 0 24 3 15 8 -18
12 -29 11 -58 -7z"/>
<path d="M575 479 c-4 -6 -5 -12 -2 -15 2 -3 7 2 10 11 7 17 1 20 -8 4z"/>
<path d="M620 474 c-15 -9 -17 -12 -5 -8 11 4 33 7 48 7 20 0 24 3 15 8 -18
12 -29 11 -58 -7z"/>
<path d="M895 479 c-4 -6 -5 -12 -2 -15 2 -3 7 2 10 11 7 17 1 20 -8 4z"/>
<path d="M930 470 c-8 -5 -10 -10 -5 -10 6 0 17 5 25 10 8 5 11 10 5 10 -5 0
-17 -5 -25 -10z"/>
<path d="M111 446 c-7 -8 -8 -17 -3 -20 6 -3 15 1 21 8 7 8 8 17 3 20 -6 3
-15 -1 -21 -8z m19 0 c0 -3 -5 -8 -12 -12 -7 -4 -8 -3 -4 4 7 12 16 16 16 8z"/>
<path d="M431 446 c-7 -8 -8 -17 -3 -20 6 -3 15 1 21 8 7 8 8 17 3 20 -6 3
-15 -1 -21 -8z m19 0 c0 -3 -5 -8 -12 -12 -7 -4 -8 -3 -4 4 7 12 16 16 16 8z"/>
<path d="M751 446 c-7 -8 -8 -17 -3 -20 6 -3 15 1 21 8 7 8 8 17 3 20 -6 3
-15 -1 -21 -8z m19 0 c0 -3 -5 -8 -12 -12 -7 -4 -8 -3 -4 4 7 12 16 16 16 8z"/>
<path d="M229 433 c-13 -16 -12 -17 4 -4 9 7 17 15 17 17 0 8 -8 3 -21 -13z"/>
<path d="M249 424 c-13 -15 -37 -35 -54 -45 -16 -11 -24 -19 -17 -19 13 0 113
89 101 90 -3 0 -16 -12 -30 -26z"/>
<path d="M549 433 c-13 -16 -12 -17 4 -4 16 13 21 21 13 21 -2 0 -10 -8 -17
-17z"/>
<path d="M569 424 c-13 -15 -37 -35 -54 -45 -16 -11 -24 -19 -17 -19 13 0 113
89 101 90 -3 0 -16 -12 -30 -26z"/>
<path d="M869 433 c-13 -16 -12 -17 4 -4 9 7 17 15 17 17 0 8 -8 3 -21 -13z"/>
<path d="M889 424 c-13 -15 -37 -35 -54 -45 -16 -11 -24 -19 -17 -19 13 0 113
89 101 90 -3 0 -16 -12 -30 -26z"/>
<path d="M260 373 l-55 -58 58 55 c53 50 62 60 54 60 -1 0 -27 -26 -57 -57z"/>
<path d="M580 373 l-55 -58 58 55 c53 50 62 60 54 60 -1 0 -27 -26 -57 -57z"/>
<path d="M900 373 l-55 -58 58 55 c53 50 62 60 54 60 -1 0 -27 -26 -57 -57z"/>
<path d="M188 405 c-3 -3 -25 -9 -49 -14 -35 -7 -38 -9 -14 -9 28 -1 103 25
79 27 -6 1 -13 -1 -16 -4z"/>
<path d="M508 405 c-3 -3 -25 -9 -49 -14 -35 -7 -38 -9 -14 -9 28 -1 103 25
79 27 -6 1 -13 -1 -16 -4z"/>
<path d="M828 405 c-3 -3 -25 -9 -49 -14 -35 -7 -38 -9 -14 -9 28 -1 103 25
79 27 -6 1 -13 -1 -16 -4z"/>
<path d="M279 354 c-32 -33 -32 -34 -14 -54 18 -20 18 -20 -16 -21 -29 -2 -30
-3 -7 -6 20 -3 28 -11 31 -31 3 -23 4 -22 6 7 1 34 1 34 21 16 20 -18 21 -18
54 14 30 30 33 36 24 61 -6 17 -21 32 -38 38 -25 9 -31 6 -61 -24z m79 4 c20
-20 14 -40 -10 -36 -15 2 -24 11 -26 26 -4 24 16 30 36 10z m-40 -72 l3 -30
-31 29 c-16 16 -30 30 -30 32 0 2 13 2 28 1 23 -2 28 -7 30 -32z"/>
<path d="M599 354 c-32 -33 -32 -34 -14 -54 18 -20 18 -20 -16 -21 -29 -2 -30
-3 -7 -6 20 -3 28 -11 31 -31 3 -23 4 -22 6 7 1 34 1 34 21 16 20 -18 21 -18
54 14 30 30 33 36 24 61 -6 17 -21 32 -38 38 -25 9 -31 6 -61 -24z m79 4 c20
-20 14 -40 -10 -36 -15 2 -24 11 -26 26 -4 24 16 30 36 10z m-40 -72 l3 -30
-31 29 c-16 16 -30 30 -30 32 0 2 13 2 28 1 23 -2 28 -7 30 -32z"/>
<path d="M920 355 c-33 -34 -33 -35 -15 -55 18 -20 18 -20 -16 -21 -29 -2 -30
-3 -7 -6 20 -3 28 -11 31 -31 3 -23 4 -22 6 7 l1 34 23 -19 c12 -10 6 -2 -12
19 -30 32 -32 37 -15 37 11 0 25 -5 30 -10 7 -7 11 4 13 35 1 25 0 45 -2 45
-2 0 -18 -16 -37 -35z"/>
<path d="M20 367 c14 -7 26 -21 28 -31 3 -15 -1 -18 -22 -14 -25 5 -26 3 -26
-35 l0 -41 34 33 c30 29 33 37 25 60 -11 28 -26 41 -49 41 -8 0 -4 -6 10 -13z"/>
<path d="M153 345 c0 -16 -3 -39 -7 -50 -4 -11 0 -7 9 9 12 21 14 34 7 50 -8
19 -9 18 -9 -9z"/>
<path d="M473 345 c0 -16 -3 -39 -7 -50 -4 -11 0 -7 9 9 12 21 14 34 7 50 -8
19 -9 18 -9 -9z"/>
<path d="M793 345 c0 -16 -3 -39 -7 -50 -4 -11 0 -7 9 9 12 21 14 34 7 50 -8
19 -9 18 -9 -9z"/>
<path d="M50 263 l-55 -58 58 55 c53 50 62 60 54 60 -1 0 -27 -26 -57 -57z"/>
<path d="M370 263 l-55 -58 58 55 c53 50 62 60 54 60 -1 0 -27 -26 -57 -57z"/>
<path d="M690 263 l-55 -58 58 55 c53 50 62 60 54 60 -1 0 -27 -26 -57 -57z"/>
<path d="M81 235 c-22 -24 -41 -50 -41 -57 0 -7 6 -4 12 7 6 11 27 37 46 58
20 20 33 37 30 37 -3 0 -24 -20 -47 -45z"/>
<path d="M185 270 c-3 -6 1 -7 9 -4 18 7 21 14 7 14 -6 0 -13 -4 -16 -10z"/>
<path d="M401 235 c-22 -24 -41 -50 -41 -57 0 -7 6 -4 12 7 6 11 27 37 46 58
20 20 33 37 30 37 -3 0 -24 -20 -47 -45z"/>
<path d="M505 270 c-3 -6 1 -7 9 -4 18 7 21 14 7 14 -6 0 -13 -4 -16 -10z"/>
<path d="M721 235 c-22 -24 -41 -50 -41 -57 0 -7 6 -4 12 7 6 11 27 37 46 58
20 20 33 37 30 37 -3 0 -24 -20 -47 -45z"/>
<path d="M825 270 c-3 -6 1 -7 9 -4 18 7 21 14 7 14 -6 0 -13 -4 -16 -10z"/>
<path d="M150 260 c-9 -6 -10 -10 -3 -10 6 0 15 5 18 10 8 12 4 12 -15 0z"/>
<path d="M470 260 c-9 -6 -10 -10 -3 -10 6 0 15 5 18 10 8 12 4 12 -15 0z"/>
<path d="M790 260 c-9 -6 -10 -10 -3 -10 6 0 15 5 18 10 8 12 4 12 -15 0z"/>
<path d="M109 233 c-13 -16 -12 -17 4 -4 9 7 17 15 17 17 0 8 -8 3 -21 -13z"/>
<path d="M226 241 c-4 -5 -2 -12 3 -15 5 -4 12 -2 15 3 4 5 2 12 -3 15 -5 4
-12 2 -15 -3z m14 -6 c0 -3 -2 -5 -5 -5 -3 0 -5 2 -5 5 0 3 2 5 5 5 3 0 5 -2
5 -5z"/>
<path d="M429 233 c-13 -16 -12 -17 4 -4 9 7 17 15 17 17 0 8 -8 3 -21 -13z"/>
<path d="M546 241 c-4 -5 -2 -12 3 -15 5 -4 12 -2 15 3 4 5 2 12 -3 15 -5 4
-12 2 -15 -3z m14 -6 c0 -3 -2 -5 -5 -5 -3 0 -5 2 -5 5 0 3 2 5 5 5 3 0 5 -2
5 -5z"/>
<path d="M749 233 c-13 -16 -12 -17 4 -4 16 13 21 21 13 21 -2 0 -10 -8 -17
-17z"/>
<path d="M866 241 c-4 -5 -2 -12 3 -15 5 -4 12 -2 15 3 4 5 2 12 -3 15 -5 4
-12 2 -15 -3z m14 -6 c0 -3 -2 -5 -5 -5 -3 0 -5 2 -5 5 0 3 2 5 5 5 3 0 5 -2
5 -5z"/>
<path d="M191 206 c-7 -8 -8 -17 -3 -20 6 -3 15 1 21 8 7 8 8 17 3 20 -6 3
-15 -1 -21 -8z m19 0 c0 -3 -5 -8 -12 -12 -7 -4 -8 -3 -4 4 7 12 16 16 16 8z"/>
<path d="M511 206 c-7 -8 -8 -17 -3 -20 6 -3 15 1 21 8 7 8 8 17 3 20 -6 3
-15 -1 -21 -8z m19 0 c0 -3 -5 -8 -12 -12 -7 -4 -8 -3 -4 4 7 12 16 16 16 8z"/>
<path d="M831 206 c-7 -8 -8 -17 -3 -20 6 -3 15 1 21 8 7 8 8 17 3 20 -6 3
-15 -1 -21 -8z m19 0 c0 -3 -5 -8 -12 -12 -7 -4 -8 -3 -4 4 7 12 16 16 16 8z"/>
<path d="M71 179 c-6 -18 -10 -44 -10 -58 1 -21 3 -20 8 9 4 19 11 45 15 58 4
12 5 22 3 22 -3 0 -10 -14 -16 -31z"/>
<path d="M266 193 c-6 -14 -5 -15 5 -6 7 7 10 15 7 18 -3 3 -9 -2 -12 -12z"/>
<path d="M391 179 c-6 -18 -10 -44 -10 -58 1 -21 3 -20 8 9 4 19 11 45 15 58
4 12 5 22 3 22 -3 0 -10 -14 -16 -31z"/>
<path d="M586 193 c-6 -14 -5 -15 5 -6 7 7 10 15 7 18 -3 3 -9 -2 -12 -12z"/>
<path d="M711 179 c-6 -18 -10 -44 -10 -58 1 -21 3 -20 8 9 4 19 11 45 15 58
4 12 5 22 3 22 -3 0 -10 -14 -16 -31z"/>
<path d="M906 193 c-6 -14 -5 -15 5 -6 7 7 10 15 7 18 -3 3 -9 -2 -12 -12z"/>
<path d="M151 166 c-7 -8 -8 -17 -3 -20 6 -3 15 1 21 8 7 8 8 17 3 20 -6 3
-15 -1 -21 -8z m19 0 c0 -3 -5 -8 -12 -12 -7 -4 -8 -3 -4 4 7 12 16 16 16 8z"/>
<path d="M471 166 c-7 -8 -8 -17 -3 -20 6 -3 15 1 21 8 7 8 8 17 3 20 -6 3
-15 -1 -21 -8z m19 0 c0 -3 -5 -8 -12 -12 -7 -4 -8 -3 -4 4 7 12 16 16 16 8z"/>
<path d="M791 166 c-7 -8 -8 -17 -3 -20 6 -3 15 1 21 8 7 8 8 17 3 20 -6 3
-15 -1 -21 -8z m19 0 c0 -3 -5 -8 -12 -12 -7 -4 -8 -3 -4 4 7 12 16 16 16 8z"/>
<path d="M15 160 c27 -12 43 -12 25 0 -8 5 -22 9 -30 9 -10 0 -8 -3 5 -9z"/>
<path d="M255 159 c-4 -6 -5 -12 -2 -15 2 -3 7 2 10 11 7 17 1 20 -8 4z"/>
<path d="M300 154 c-15 -9 -17 -12 -5 -8 11 4 33 7 48 7 20 0 24 3 15 8 -18
12 -29 11 -58 -7z"/>
<path d="M575 159 c-4 -6 -5 -12 -2 -15 2 -3 7 2 10 11 7 17 1 20 -8 4z"/>
<path d="M620 154 c-15 -9 -17 -12 -5 -8 11 4 33 7 48 7 20 0 24 3 15 8 -18
12 -29 11 -58 -7z"/>
<path d="M895 159 c-4 -6 -5 -12 -2 -15 2 -3 7 2 10 11 7 17 1 20 -8 4z"/>
<path d="M930 150 c-8 -5 -10 -10 -5 -10 6 0 17 5 25 10 8 5 11 10 5 10 -5 0
-17 -5 -25 -10z"/>
<path d="M111 126 c-7 -8 -8 -17 -3 -20 6 -3 15 1 21 8 7 8 8 17 3 20 -6 3
-15 -1 -21 -8z m19 0 c0 -3 -5 -8 -12 -12 -7 -4 -8 -3 -4 4 7 12 16 16 16 8z"/>
<path d="M431 126 c-7 -8 -8 -17 -3 -20 6 -3 15 1 21 8 7 8 8 17 3 20 -6 3
-15 -1 -21 -8z m19 0 c0 -3 -5 -8 -12 -12 -7 -4 -8 -3 -4 4 7 12 16 16 16 8z"/>
<path d="M751 126 c-7 -8 -8 -17 -3 -20 6 -3 15 1 21 8 7 8 8 17 3 20 -6 3
-15 -1 -21 -8z m19 0 c0 -3 -5 -8 -12 -12 -7 -4 -8 -3 -4 4 7 12 16 16 16 8z"/>
<path d="M229 113 c-13 -16 -12 -17 4 -4 16 13 21 21 13 21 -2 0 -10 -8 -17
-17z"/>
<path d="M249 104 c-13 -15 -37 -35 -54 -45 -16 -11 -24 -19 -17 -19 13 0 113
89 101 90 -3 0 -16 -12 -30 -26z"/>
<path d="M549 113 c-13 -16 -12 -17 4 -4 16 13 21 21 13 21 -2 0 -10 -8 -17
-17z"/>
<path d="M569 104 c-13 -15 -37 -35 -54 -45 -16 -11 -24 -19 -17 -19 13 0 113
89 101 90 -3 0 -16 -12 -30 -26z"/>
<path d="M869 113 c-13 -16 -12 -17 4 -4 16 13 21 21 13 21 -2 0 -10 -8 -17
-17z"/>
<path d="M889 104 c-13 -15 -37 -35 -54 -45 -16 -11 -24 -19 -17 -19 13 0 113
89 101 90 -3 0 -16 -12 -30 -26z"/>
<path d="M260 53 l-55 -58 58 55 c53 50 62 60 54 60 -1 0 -27 -26 -57 -57z"/>
<path d="M580 53 l-55 -58 58 55 c53 50 62 60 54 60 -1 0 -27 -26 -57 -57z"/>
<path d="M900 53 l-55 -58 58 55 c31 30 57 56 57 57 0 8 -10 -1 -60 -54z"/>
<path d="M188 85 c-3 -3 -25 -9 -49 -14 -35 -7 -38 -9 -14 -9 28 -1 103 25 79
27 -6 1 -13 -1 -16 -4z"/>
<path d="M508 85 c-3 -3 -25 -9 -49 -14 -35 -7 -38 -9 -14 -9 28 -1 103 25 79
27 -6 1 -13 -1 -16 -4z"/>
<path d="M828 85 c-3 -3 -25 -9 -49 -14 -35 -7 -38 -9 -14 -9 28 -1 103 25 79
27 -6 1 -13 -1 -16 -4z"/>
<path d="M279 34 l-33 -34 41 0 c38 0 40 1 35 26 -4 21 -1 25 14 22 10 -2 24
-14 31 -28 7 -14 13 -18 13 -10 0 23 -13 38 -41 49 -23 8 -31 5 -60 -25z"/>
<path d="M599 34 l-33 -34 41 0 c38 0 40 1 35 26 -4 21 -1 25 14 22 10 -2 24
-14 31 -28 7 -14 13 -18 13 -10 0 23 -13 38 -41 49 -23 8 -31 5 -60 -25z"/>
<path d="M920 35 l-34 -35 37 0 c36 0 37 1 37 35 0 19 -1 35 -3 35 -2 0 -18
-16 -37 -35z"/>
<path d="M18 50 c12 -5 27 -20 32 -32 6 -16 9 -18 9 -6 1 21 -26 48 -47 47
-12 0 -10 -3 6 -9z"/>
<path d="M151 45 c1 -19 18 -51 18 -35 0 8 -4 22 -9 30 -5 8 -9 11 -9 5z"/>
<path d="M471 45 c1 -19 18 -51 18 -35 0 8 -4 22 -9 30 -5 8 -9 11 -9 5z"/>
<path d="M791 45 c1 -19 18 -51 18 -35 0 8 -4 22 -9 30 -5 8 -9 11 -9 5z"/>
<path d="M0 5 c0 -3 2 -5 5 -5 3 0 5 2 5 5 0 3 -2 5 -5 5 -3 0 -5 -2 -5 -5z"/>
</g>
<g transform="translate(0.000000,96.000000) scale(0.100000,-0.100000)"
fill="#f497b3" stroke="none">
<path d="M0 923 l0 -37 35 34 c19 19 35 35 35 37 0 2 -16 3 -35 3 -34 0 -35
-1 -35 -37z"/>
<path d="M320 923 l0 -37 35 34 c19 19 35 35 35 37 0 2 -16 3 -35 3 -34 0 -35
-1 -35 -37z"/>
<path d="M640 923 l0 -37 35 34 c19 19 35 35 35 37 0 2 -16 3 -35 3 -34 0 -35
-1 -35 -37z"/>
<path d="M185 910 c-3 -6 1 -7 9 -4 18 7 21 14 7 14 -6 0 -13 -4 -16 -10z"/>
<path d="M242 913 c20 -3 28 -11 31 -31 4 -24 4 -24 6 6 1 30 -1 32 -31 31
-30 -2 -30 -2 -6 -6z"/>
<path d="M505 910 c-3 -6 1 -7 9 -4 18 7 21 14 7 14 -6 0 -13 -4 -16 -10z"/>
<path d="M562 913 c20 -3 28 -11 31 -31 4 -24 4 -24 6 6 1 30 -1 32 -31 31
-30 -2 -30 -2 -6 -6z"/>
<path d="M825 910 c-3 -6 1 -7 9 -4 18 7 21 14 7 14 -6 0 -13 -4 -16 -10z"/>
<path d="M882 913 c20 -3 28 -11 31 -31 4 -24 4 -24 6 6 1 30 -1 32 -31 31
-30 -2 -30 -2 -6 -6z"/>
<path d="M150 900 c-9 -6 -10 -10 -3 -10 6 0 15 5 18 10 8 12 4 12 -15 0z"/>
<path d="M470 900 c-9 -6 -10 -10 -3 -10 6 0 15 5 18 10 8 12 4 12 -15 0z"/>
<path d="M790 900 c-9 -6 -10 -10 -3 -10 6 0 15 5 18 10 8 12 4 12 -15 0z"/>
<path d="M109 873 c-13 -16 -12 -17 4 -4 9 7 17 15 17 17 0 8 -8 3 -21 -13z"/>
<path d="M226 881 c-4 -5 -2 -12 3 -15 5 -4 12 -2 15 3 4 5 2 12 -3 15 -5 4
-12 2 -15 -3z m14 -6 c0 -3 -2 -5 -5 -5 -3 0 -5 2 -5 5 0 3 2 5 5 5 3 0 5 -2
5 -5z"/>
<path d="M429 873 c-13 -16 -12 -17 4 -4 9 7 17 15 17 17 0 8 -8 3 -21 -13z"/>
<path d="M546 881 c-4 -5 -2 -12 3 -15 5 -4 12 -2 15 3 4 5 2 12 -3 15 -5 4
-12 2 -15 -3z m14 -6 c0 -3 -2 -5 -5 -5 -3 0 -5 2 -5 5 0 3 2 5 5 5 3 0 5 -2
5 -5z"/>
<path d="M749 873 c-13 -16 -12 -17 4 -4 16 13 21 21 13 21 -2 0 -10 -8 -17
-17z"/>
<path d="M866 881 c-4 -5 -2 -12 3 -15 5 -4 12 -2 15 3 4 5 2 12 -3 15 -5 4
-12 2 -15 -3z m14 -6 c0 -3 -2 -5 -5 -5 -3 0 -5 2 -5 5 0 3 2 5 5 5 3 0 5 -2
5 -5z"/>
<path d="M191 846 c-7 -8 -8 -17 -3 -20 6 -3 15 1 21 8 7 8 8 17 3 20 -6 3
-15 -1 -21 -8z m19 0 c0 -3 -5 -8 -12 -12 -7 -4 -8 -3 -4 4 7 12 16 16 16 8z"/>
<path d="M511 846 c-7 -8 -8 -17 -3 -20 6 -3 15 1 21 8 7 8 8 17 3 20 -6 3
-15 -1 -21 -8z m19 0 c0 -3 -5 -8 -12 -12 -7 -4 -8 -3 -4 4 7 12 16 16 16 8z"/>
<path d="M831 846 c-7 -8 -8 -17 -3 -20 6 -3 15 1 21 8 7 8 8 17 3 20 -6 3
-15 -1 -21 -8z m19 0 c0 -3 -5 -8 -12 -12 -7 -4 -8 -3 -4 4 7 12 16 16 16 8z"/>
<path d="M71 819 c-6 -18 -10 -44 -10 -58 1 -21 3 -20 8 9 4 19 11 45 15 58 4
12 5 22 3 22 -3 0 -10 -14 -16 -31z"/>
<path d="M266 833 c-6 -14 -5 -15 5 -6 7 7 10 15 7 18 -3 3 -9 -2 -12 -12z"/>
<path d="M391 819 c-6 -18 -10 -44 -10 -58 1 -21 3 -20 8 9 4 19 11 45 15 58
4 12 5 22 3 22 -3 0 -10 -14 -16 -31z"/>
<path d="M586 833 c-6 -14 -5 -15 5 -6 7 7 10 15 7 18 -3 3 -9 -2 -12 -12z"/>
<path d="M711 819 c-6 -18 -10 -44 -10 -58 1 -21 3 -20 8 9 4 19 11 45 15 58
4 12 5 22 3 22 -3 0 -10 -14 -16 -31z"/>
<path d="M906 833 c-6 -14 -5 -15 5 -6 7 7 10 15 7 18 -3 3 -9 -2 -12 -12z"/>
<path d="M151 806 c-7 -8 -8 -17 -3 -20 6 -3 15 1 21 8 7 8 8 17 3 20 -6 3
-15 -1 -21 -8z m19 0 c0 -3 -5 -8 -12 -12 -7 -4 -8 -3 -4 4 7 12 16 16 16 8z"/>
<path d="M471 806 c-7 -8 -8 -17 -3 -20 6 -3 15 1 21 8 7 8 8 17 3 20 -6 3
-15 -1 -21 -8z m19 0 c0 -3 -5 -8 -12 -12 -7 -4 -8 -3 -4 4 7 12 16 16 16 8z"/>
<path d="M791 806 c-7 -8 -8 -17 -3 -20 6 -3 15 1 21 8 7 8 8 17 3 20 -6 3
-15 -1 -21 -8z m19 0 c0 -3 -5 -8 -12 -12 -7 -4 -8 -3 -4 4 7 12 16 16 16 8z"/>
<path d="M255 799 c-4 -6 -5 -12 -2 -15 2 -3 7 2 10 11 7 17 1 20 -8 4z"/>
<path d="M575 799 c-4 -6 -5 -12 -2 -15 2 -3 7 2 10 11 7 17 1 20 -8 4z"/>
<path d="M895 799 c-4 -6 -5 -12 -2 -15 2 -3 7 2 10 11 7 17 1 20 -8 4z"/>
<path d="M111 766 c-7 -8 -8 -17 -3 -20 6 -3 15 1 21 8 7 8 8 17 3 20 -6 3
-15 -1 -21 -8z m19 0 c0 -3 -5 -8 -12 -12 -7 -4 -8 -3 -4 4 7 12 16 16 16 8z"/>
<path d="M431 766 c-7 -8 -8 -17 -3 -20 6 -3 15 1 21 8 7 8 8 17 3 20 -6 3
-15 -1 -21 -8z m19 0 c0 -3 -5 -8 -12 -12 -7 -4 -8 -3 -4 4 7 12 16 16 16 8z"/>
<path d="M751 766 c-7 -8 -8 -17 -3 -20 6 -3 15 1 21 8 7 8 8 17 3 20 -6 3
-15 -1 -21 -8z m19 0 c0 -3 -5 -8 -12 -12 -7 -4 -8 -3 -4 4 7 12 16 16 16 8z"/>
<path d="M229 753 c-13 -16 -12 -17 4 -4 16 13 21 21 13 21 -2 0 -10 -8 -17
-17z"/>
<path d="M549 753 c-13 -16 -12 -17 4 -4 9 7 17 15 17 17 0 8 -8 3 -21 -13z"/>
<path d="M869 753 c-13 -16 -12 -17 4 -4 9 7 17 15 17 17 0 8 -8 3 -21 -13z"/>
<path d="M188 725 c-3 -3 -25 -9 -49 -14 -35 -7 -38 -9 -14 -9 28 -1 103 25
79 27 -6 1 -13 -1 -16 -4z"/>
<path d="M508 725 c-3 -3 -25 -9 -49 -14 -35 -7 -38 -9 -14 -9 28 -1 103 25
79 27 -6 1 -13 -1 -16 -4z"/>
<path d="M828 725 c-3 -3 -25 -9 -49 -14 -35 -7 -38 -9 -14 -9 28 -1 103 25
79 27 -6 1 -13 -1 -16 -4z"/>
<path d="M281 676 l-35 -36 36 0 c35 0 37 -2 40 -36 l3 -35 34 35 35 36 -36 0
c-35 0 -37 2 -40 36 l-3 35 -34 -35z"/>
<path d="M601 676 l-35 -36 36 0 c35 0 37 -2 40 -36 l3 -35 34 35 35 36 -36 0
c-35 0 -37 2 -40 36 l-3 35 -34 -35z"/>
<path d="M920 675 l-34 -35 37 0 c36 0 37 1 37 35 0 19 -1 35 -3 35 -2 0 -18
-16 -37 -35z"/>
<path d="M0 603 l0 -37 35 34 c19 19 35 35 35 37 0 2 -16 3 -35 3 -34 0 -35
-1 -35 -37z"/>
<path d="M185 590 c-3 -6 1 -7 9 -4 18 7 21 14 7 14 -6 0 -13 -4 -16 -10z"/>
<path d="M242 593 c20 -3 28 -11 31 -31 4 -24 4 -24 6 6 1 30 -1 32 -31 31
-30 -2 -30 -2 -6 -6z"/>
<path d="M505 590 c-3 -6 1 -7 9 -4 18 7 21 14 7 14 -6 0 -13 -4 -16 -10z"/>
<path d="M562 593 c20 -3 28 -11 31 -31 4 -24 4 -24 6 6 1 30 -1 32 -31 31
-30 -2 -30 -2 -6 -6z"/>
<path d="M825 590 c-3 -6 1 -7 9 -4 18 7 21 14 7 14 -6 0 -13 -4 -16 -10z"/>
<path d="M882 593 c20 -3 28 -11 31 -31 4 -24 4 -24 6 6 1 30 -1 32 -31 31
-30 -2 -30 -2 -6 -6z"/>
<path d="M150 580 c-9 -6 -10 -10 -3 -10 6 0 15 5 18 10 8 12 4 12 -15 0z"/>
<path d="M470 580 c-9 -6 -10 -10 -3 -10 6 0 15 5 18 10 8 12 4 12 -15 0z"/>
<path d="M790 580 c-9 -6 -10 -10 -3 -10 6 0 15 5 18 10 8 12 4 12 -15 0z"/>
<path d="M109 553 c-13 -16 -12 -17 4 -4 9 7 17 15 17 17 0 8 -8 3 -21 -13z"/>
<path d="M226 561 c-4 -5 -2 -12 3 -15 5 -4 12 -2 15 3 4 5 2 12 -3 15 -5 4
-12 2 -15 -3z m14 -6 c0 -3 -2 -5 -5 -5 -3 0 -5 2 -5 5 0 3 2 5 5 5 3 0 5 -2
5 -5z"/>
<path d="M429 553 c-13 -16 -12 -17 4 -4 9 7 17 15 17 17 0 8 -8 3 -21 -13z"/>
<path d="M546 561 c-4 -5 -2 -12 3 -15 5 -4 12 -2 15 3 4 5 2 12 -3 15 -5 4
-12 2 -15 -3z m14 -6 c0 -3 -2 -5 -5 -5 -3 0 -5 2 -5 5 0 3 2 5 5 5 3 0 5 -2
5 -5z"/>
<path d="M749 553 c-13 -16 -12 -17 4 -4 9 7 17 15 17 17 0 8 -8 3 -21 -13z"/>
<path d="M866 561 c-4 -5 -2 -12 3 -15 5 -4 12 -2 15 3 4 5 2 12 -3 15 -5 4
-12 2 -15 -3z m14 -6 c0 -3 -2 -5 -5 -5 -3 0 -5 2 -5 5 0 3 2 5 5 5 3 0 5 -2
5 -5z"/>
<path d="M191 526 c-7 -8 -8 -17 -3 -20 6 -3 15 1 21 8 7 8 8 17 3 20 -6 3
-15 -1 -21 -8z m19 0 c0 -3 -5 -8 -12 -12 -7 -4 -8 -3 -4 4 7 12 16 16 16 8z"/>
<path d="M511 526 c-7 -8 -8 -17 -3 -20 6 -3 15 1 21 8 7 8 8 17 3 20 -6 3
-15 -1 -21 -8z m19 0 c0 -3 -5 -8 -12 -12 -7 -4 -8 -3 -4 4 7 12 16 16 16 8z"/>
<path d="M831 526 c-7 -8 -8 -17 -3 -20 6 -3 15 1 21 8 7 8 8 17 3 20 -6 3
-15 -1 -21 -8z m19 0 c0 -3 -5 -8 -12 -12 -7 -4 -8 -3 -4 4 7 12 16 16 16 8z"/>
<path d="M71 499 c-6 -18 -10 -44 -10 -58 1 -21 3 -20 8 9 4 19 11 45 15 58 4
12 5 22 3 22 -3 0 -10 -14 -16 -31z"/>
<path d="M266 513 c-6 -14 -5 -15 5 -6 7 7 10 15 7 18 -3 3 -9 -2 -12 -12z"/>
<path d="M391 499 c-6 -18 -10 -44 -10 -58 1 -21 3 -20 8 9 4 19 11 45 15 58
4 12 5 22 3 22 -3 0 -10 -14 -16 -31z"/>
<path d="M586 513 c-6 -14 -5 -15 5 -6 7 7 10 15 7 18 -3 3 -9 -2 -12 -12z"/>
<path d="M711 499 c-6 -18 -10 -44 -10 -58 1 -21 3 -20 8 9 4 19 11 45 15 58
4 12 5 22 3 22 -3 0 -10 -14 -16 -31z"/>
<path d="M906 513 c-6 -14 -5 -15 5 -6 7 7 10 15 7 18 -3 3 -9 -2 -12 -12z"/>
<path d="M151 486 c-7 -8 -8 -17 -3 -20 6 -3 15 1 21 8 7 8 8 17 3 20 -6 3
-15 -1 -21 -8z m19 0 c0 -3 -5 -8 -12 -12 -7 -4 -8 -3 -4 4 7 12 16 16 16 8z"/>
<path d="M471 486 c-7 -8 -8 -17 -3 -20 6 -3 15 1 21 8 7 8 8 17 3 20 -6 3
-15 -1 -21 -8z m19 0 c0 -3 -5 -8 -12 -12 -7 -4 -8 -3 -4 4 7 12 16 16 16 8z"/>
<path d="M791 486 c-7 -8 -8 -17 -3 -20 6 -3 15 1 21 8 7 8 8 17 3 20 -6 3
-15 -1 -21 -8z m19 0 c0 -3 -5 -8 -12 -12 -7 -4 -8 -3 -4 4 7 12 16 16 16 8z"/>
<path d="M255 479 c-4 -6 -5 -12 -2 -15 2 -3 7 2 10 11 7 17 1 20 -8 4z"/>
<path d="M575 479 c-4 -6 -5 -12 -2 -15 2 -3 7 2 10 11 7 17 1 20 -8 4z"/>
<path d="M895 479 c-4 -6 -5 -12 -2 -15 2 -3 7 2 10 11 7 17 1 20 -8 4z"/>
<path d="M111 446 c-7 -8 -8 -17 -3 -20 6 -3 15 1 21 8 7 8 8 17 3 20 -6 3
-15 -1 -21 -8z m19 0 c0 -3 -5 -8 -12 -12 -7 -4 -8 -3 -4 4 7 12 16 16 16 8z"/>
<path d="M431 446 c-7 -8 -8 -17 -3 -20 6 -3 15 1 21 8 7 8 8 17 3 20 -6 3
-15 -1 -21 -8z m19 0 c0 -3 -5 -8 -12 -12 -7 -4 -8 -3 -4 4 7 12 16 16 16 8z"/>
<path d="M751 446 c-7 -8 -8 -17 -3 -20 6 -3 15 1 21 8 7 8 8 17 3 20 -6 3
-15 -1 -21 -8z m19 0 c0 -3 -5 -8 -12 -12 -7 -4 -8 -3 -4 4 7 12 16 16 16 8z"/>
<path d="M229 433 c-13 -16 -12 -17 4 -4 9 7 17 15 17 17 0 8 -8 3 -21 -13z"/>
<path d="M549 433 c-13 -16 -12 -17 4 -4 16 13 21 21 13 21 -2 0 -10 -8 -17
-17z"/>
<path d="M869 433 c-13 -16 -12 -17 4 -4 9 7 17 15 17 17 0 8 -8 3 -21 -13z"/>
<path d="M188 405 c-3 -3 -25 -9 -49 -14 -35 -7 -38 -9 -14 -9 28 -1 103 25
79 27 -6 1 -13 -1 -16 -4z"/>
<path d="M508 405 c-3 -3 -25 -9 -49 -14 -35 -7 -38 -9 -14 -9 28 -1 103 25
79 27 -6 1 -13 -1 -16 -4z"/>
<path d="M828 405 c-3 -3 -25 -9 -49 -14 -35 -7 -38 -9 -14 -9 28 -1 103 25
79 27 -6 1 -13 -1 -16 -4z"/>
<path d="M281 356 l-35 -36 36 0 c35 0 37 -2 40 -36 l3 -35 34 35 35 36 -36 0
c-35 0 -37 2 -40 36 l-3 35 -34 -35z"/>
<path d="M601 356 l-35 -36 36 0 c35 0 37 -2 40 -36 l3 -35 34 35 35 36 -36 0
c-35 0 -37 2 -40 36 l-3 35 -34 -35z"/>
<path d="M920 355 l-34 -35 37 0 c36 0 37 1 37 35 0 19 -1 35 -3 35 -2 0 -18
-16 -37 -35z"/>
<path d="M0 283 l0 -37 35 34 c19 19 35 35 35 37 0 2 -16 3 -35 3 -34 0 -35
-1 -35 -37z"/>
<path d="M185 270 c-3 -6 1 -7 9 -4 18 7 21 14 7 14 -6 0 -13 -4 -16 -10z"/>
<path d="M242 273 c20 -3 28 -11 31 -31 4 -24 4 -24 6 6 1 30 -1 32 -31 31
-30 -2 -30 -2 -6 -6z"/>
<path d="M505 270 c-3 -6 1 -7 9 -4 18 7 21 14 7 14 -6 0 -13 -4 -16 -10z"/>
<path d="M562 273 c20 -3 28 -11 31 -31 4 -24 4 -24 6 6 1 30 -1 32 -31 31
-30 -2 -30 -2 -6 -6z"/>
<path d="M825 270 c-3 -6 1 -7 9 -4 18 7 21 14 7 14 -6 0 -13 -4 -16 -10z"/>
<path d="M882 273 c20 -3 28 -11 31 -31 4 -24 4 -24 6 6 1 30 -1 32 -31 31
-30 -2 -30 -2 -6 -6z"/>
<path d="M150 260 c-9 -6 -10 -10 -3 -10 6 0 15 5 18 10 8 12 4 12 -15 0z"/>
<path d="M470 260 c-9 -6 -10 -10 -3 -10 6 0 15 5 18 10 8 12 4 12 -15 0z"/>
<path d="M790 260 c-9 -6 -10 -10 -3 -10 6 0 15 5 18 10 8 12 4 12 -15 0z"/>
<path d="M109 233 c-13 -16 -12 -17 4 -4 9 7 17 15 17 17 0 8 -8 3 -21 -13z"/>
<path d="M226 241 c-4 -5 -2 -12 3 -15 5 -4 12 -2 15 3 4 5 2 12 -3 15 -5 4
-12 2 -15 -3z m14 -6 c0 -3 -2 -5 -5 -5 -3 0 -5 2 -5 5 0 3 2 5 5 5 3 0 5 -2
5 -5z"/>
<path d="M429 233 c-13 -16 -12 -17 4 -4 9 7 17 15 17 17 0 8 -8 3 -21 -13z"/>
<path d="M546 241 c-4 -5 -2 -12 3 -15 5 -4 12 -2 15 3 4 5 2 12 -3 15 -5 4
-12 2 -15 -3z m14 -6 c0 -3 -2 -5 -5 -5 -3 0 -5 2 -5 5 0 3 2 5 5 5 3 0 5 -2
5 -5z"/>
<path d="M749 233 c-13 -16 -12 -17 4 -4 16 13 21 21 13 21 -2 0 -10 -8 -17
-17z"/>
<path d="M866 241 c-4 -5 -2 -12 3 -15 5 -4 12 -2 15 3 4 5 2 12 -3 15 -5 4
-12 2 -15 -3z m14 -6 c0 -3 -2 -5 -5 -5 -3 0 -5 2 -5 5 0 3 2 5 5 5 3 0 5 -2
5 -5z"/>
<path d="M191 206 c-7 -8 -8 -17 -3 -20 6 -3 15 1 21 8 7 8 8 17 3 20 -6 3
-15 -1 -21 -8z m19 0 c0 -3 -5 -8 -12 -12 -7 -4 -8 -3 -4 4 7 12 16 16 16 8z"/>
<path d="M511 206 c-7 -8 -8 -17 -3 -20 6 -3 15 1 21 8 7 8 8 17 3 20 -6 3
-15 -1 -21 -8z m19 0 c0 -3 -5 -8 -12 -12 -7 -4 -8 -3 -4 4 7 12 16 16 16 8z"/>
<path d="M831 206 c-7 -8 -8 -17 -3 -20 6 -3 15 1 21 8 7 8 8 17 3 20 -6 3
-15 -1 -21 -8z m19 0 c0 -3 -5 -8 -12 -12 -7 -4 -8 -3 -4 4 7 12 16 16 16 8z"/>
<path d="M71 179 c-6 -18 -10 -44 -10 -58 1 -21 3 -20 8 9 4 19 11 45 15 58 4
12 5 22 3 22 -3 0 -10 -14 -16 -31z"/>
<path d="M266 193 c-6 -14 -5 -15 5 -6 7 7 10 15 7 18 -3 3 -9 -2 -12 -12z"/>
<path d="M391 179 c-6 -18 -10 -44 -10 -58 1 -21 3 -20 8 9 4 19 11 45 15 58
4 12 5 22 3 22 -3 0 -10 -14 -16 -31z"/>
<path d="M586 193 c-6 -14 -5 -15 5 -6 7 7 10 15 7 18 -3 3 -9 -2 -12 -12z"/>
<path d="M711 179 c-6 -18 -10 -44 -10 -58 1 -21 3 -20 8 9 4 19 11 45 15 58
4 12 5 22 3 22 -3 0 -10 -14 -16 -31z"/>
<path d="M906 193 c-6 -14 -5 -15 5 -6 7 7 10 15 7 18 -3 3 -9 -2 -12 -12z"/>
<path d="M151 166 c-7 -8 -8 -17 -3 -20 6 -3 15 1 21 8 7 8 8 17 3 20 -6 3
-15 -1 -21 -8z m19 0 c0 -3 -5 -8 -12 -12 -7 -4 -8 -3 -4 4 7 12 16 16 16 8z"/>
<path d="M471 166 c-7 -8 -8 -17 -3 -20 6 -3 15 1 21 8 7 8 8 17 3 20 -6 3
-15 -1 -21 -8z m19 0 c0 -3 -5 -8 -12 -12 -7 -4 -8 -3 -4 4 7 12 16 16 16 8z"/>
<path d="M791 166 c-7 -8 -8 -17 -3 -20 6 -3 15 1 21 8 7 8 8 17 3 20 -6 3
-15 -1 -21 -8z m19 0 c0 -3 -5 -8 -12 -12 -7 -4 -8 -3 -4 4 7 12 16 16 16 8z"/>
<path d="M255 159 c-4 -6 -5 -12 -2 -15 2 -3 7 2 10 11 7 17 1 20 -8 4z"/>
<path d="M575 159 c-4 -6 -5 -12 -2 -15 2 -3 7 2 10 11 7 17 1 20 -8 4z"/>
<path d="M895 159 c-4 -6 -5 -12 -2 -15 2 -3 7 2 10 11 7 17 1 20 -8 4z"/>
<path d="M111 126 c-7 -8 -8 -17 -3 -20 6 -3 15 1 21 8 7 8 8 17 3 20 -6 3
-15 -1 -21 -8z m19 0 c0 -3 -5 -8 -12 -12 -7 -4 -8 -3 -4 4 7 12 16 16 16 8z"/>
<path d="M431 126 c-7 -8 -8 -17 -3 -20 6 -3 15 1 21 8 7 8 8 17 3 20 -6 3
-15 -1 -21 -8z m19 0 c0 -3 -5 -8 -12 -12 -7 -4 -8 -3 -4 4 7 12 16 16 16 8z"/>
<path d="M751 126 c-7 -8 -8 -17 -3 -20 6 -3 15 1 21 8 7 8 8 17 3 20 -6 3
-15 -1 -21 -8z m19 0 c0 -3 -5 -8 -12 -12 -7 -4 -8 -3 -4 4 7 12 16 16 16 8z"/>
<path d="M229 113 c-13 -16 -12 -17 4 -4 16 13 21 21 13 21 -2 0 -10 -8 -17
-17z"/>
<path d="M549 113 c-13 -16 -12 -17 4 -4 16 13 21 21 13 21 -2 0 -10 -8 -17
-17z"/>
<path d="M869 113 c-13 -16 -12 -17 4 -4 16 13 21 21 13 21 -2 0 -10 -8 -17
-17z"/>
<path d="M188 85 c-3 -3 -25 -9 -49 -14 -35 -7 -38 -9 -14 -9 28 -1 103 25 79
27 -6 1 -13 -1 -16 -4z"/>
<path d="M508 85 c-3 -3 -25 -9 -49 -14 -35 -7 -38 -9 -14 -9 28 -1 103 25 79
27 -6 1 -13 -1 -16 -4z"/>
<path d="M828 85 c-3 -3 -25 -9 -49 -14 -35 -7 -38 -9 -14 -9 28 -1 103 25 79
27 -6 1 -13 -1 -16 -4z"/>
<path d="M280 35 l-34 -35 37 0 c36 0 37 1 37 35 0 19 -1 35 -3 35 -2 0 -18
-16 -37 -35z"/>
<path d="M600 35 l-34 -35 37 0 c36 0 37 1 37 35 0 19 -1 35 -3 35 -2 0 -18
-16 -37 -35z"/>
<path d="M920 35 l-34 -35 37 0 c36 0 37 1 37 35 0 19 -1 35 -3 35 -2 0 -18
-16 -37 -35z"/>
</g>
<g transform="translate(0.000000,96.000000) scale(0.100000,-0.100000)"
fill="#b8b7ad" stroke="none">
<path d="M0 923 l0 -37 35 34 c19 19 35 35 35 37 0 2 -16 3 -35 3 -34 0 -35
-1 -35 -37z"/>
<path d="M320 923 l0 -37 35 34 c19 19 35 35 35 37 0 2 -16 3 -35 3 -34 0 -35
-1 -35 -37z"/>
<path d="M640 923 l0 -37 35 34 c19 19 35 35 35 37 0 2 -16 3 -35 3 -34 0 -35
-1 -35 -37z"/>
<path d="M281 676 l-35 -36 36 0 c35 0 37 -2 40 -36 l3 -35 34 35 35 36 -36 0
c-35 0 -37 2 -40 36 l-3 35 -34 -35z"/>
<path d="M601 676 l-35 -36 36 0 c35 0 37 -2 40 -36 l3 -35 34 35 35 36 -36 0
c-35 0 -37 2 -40 36 l-3 35 -34 -35z"/>
<path d="M920 675 l-34 -35 37 0 c36 0 37 1 37 35 0 19 -1 35 -3 35 -2 0 -18
-16 -37 -35z"/>
<path d="M0 603 l0 -37 35 34 c19 19 35 35 35 37 0 2 -16 3 -35 3 -34 0 -35
-1 -35 -37z"/>
<path d="M281 356 l-35 -36 36 0 c35 0 37 -2 40 -36 l3 -35 34 35 35 36 -36 0
c-35 0 -37 2 -40 36 l-3 35 -34 -35z"/>
<path d="M601 356 l-35 -36 36 0 c35 0 37 -2 40 -36 l3 -35 34 35 35 36 -36 0
c-35 0 -37 2 -40 36 l-3 35 -34 -35z"/>
<path d="M920 355 l-34 -35 37 0 c36 0 37 1 37 35 0 19 -1 35 -3 35 -2 0 -18
-16 -37 -35z"/>
<path d="M0 283 l0 -37 35 34 c19 19 35 35 35 37 0 2 -16 3 -35 3 -34 0 -35
-1 -35 -37z"/>
<path d="M280 35 l-34 -35 37 0 c36 0 37 1 37 35 0 19 -1 35 -3 35 -2 0 -18
-16 -37 -35z"/>
<path d="M600 35 l-34 -35 37 0 c36 0 37 1 37 35 0 19 -1 35 -3 35 -2 0 -18
-16 -37 -35z"/>
<path d="M920 35 l-34 -35 37 0 c36 0 37 1 37 35 0 19 -1 35 -3 35 -2 0 -18
-16 -37 -35z"/>
</g>
<g transform="translate(0.000000,96.000000) scale(0.100000,-0.100000)"
fill="#b4b3a9" stroke="none">
<path d="M29 923 l-34 -38 38 34 c34 33 42 41 34 41 -2 0 -19 -17 -38 -37z"/>
<path d="M349 923 l-34 -38 38 34 c34 33 42 41 34 41 -2 0 -19 -17 -38 -37z"/>
<path d="M669 923 l-34 -38 38 34 c34 33 42 41 34 41 -2 0 -19 -17 -38 -37z"/>
<path d="M279 673 l-34 -38 38 34 c34 33 42 41 34 41 -2 0 -19 -17 -38 -37z"/>
<path d="M599 673 l-34 -38 38 34 c20 19 37 36 37 38 0 8 -8 0 -41 -34z"/>
<path d="M919 673 l-34 -38 38 34 c34 33 42 41 34 41 -2 0 -19 -17 -38 -37z"/>
<path d="M29 603 l-34 -38 38 34 c20 19 37 36 37 38 0 8 -8 0 -41 -34z"/>
<path d="M349 603 l-34 -38 38 34 c34 33 42 41 34 41 -2 0 -19 -17 -38 -37z"/>
<path d="M669 603 l-34 -38 38 34 c34 33 42 41 34 41 -2 0 -19 -17 -38 -37z"/>
<path d="M279 353 l-34 -38 38 34 c20 19 37 36 37 38 0 8 -8 0 -41 -34z"/>
<path d="M599 353 l-34 -38 38 34 c34 33 42 41 34 41 -2 0 -19 -17 -38 -37z"/>
<path d="M919 353 l-34 -38 38 34 c20 19 37 36 37 38 0 8 -8 0 -41 -34z"/>
<path d="M29 283 l-34 -38 38 34 c20 19 37 36 37 38 0 8 -8 0 -41 -34z"/>
<path d="M349 283 l-34 -38 38 34 c20 19 37 36 37 38 0 8 -8 0 -41 -34z"/>
<path d="M669 283 l-34 -38 38 34 c20 19 37 36 37 38 0 8 -8 0 -41 -34z"/>
<path d="M279 33 l-34 -38 38 34 c34 33 42 41 34 41 -2 0 -19 -17 -38 -37z"/>
<path d="M599 33 l-34 -38 38 34 c20 19 37 36 37 38 0 8 -8 0 -41 -34z"/>
<path d="M919 33 l-34 -38 38 34 c20 19 37 36 37 38 0 8 -8 0 -41 -34z"/>
</g>
  </g>
</svg>
