<?xml version="1.0" encoding="UTF-8" standalone="no"?>
<!-- Created with Inkscape (http://www.inkscape.org/) -->

<svg
   xmlns:dc="http://purl.org/dc/elements/1.1/"
   xmlns:cc="http://creativecommons.org/ns#"
   xmlns:rdf="http://www.w3.org/1999/02/22-rdf-syntax-ns#"
   xmlns:svg="http://www.w3.org/2000/svg"
   xmlns="http://www.w3.org/2000/svg"
   xmlns:sodipodi="http://sodipodi.sourceforge.net/DTD/sodipodi-0.dtd"
   xmlns:inkscape="http://www.inkscape.org/namespaces/inkscape"
   width="32px"
   height="32px"
   viewBox="0 0 32px 32px"
   version="1.1"
   id="svgMain"
   inkscape:version="0.92.2 (5c3e80d, 2017-08-06)"
   sodipodi:docname="reference_SVG.svg">
  <defs
     id="defs4542" />
  <sodipodi:namedview
     id="base"
     pagecolor="#ffffff"
     bordercolor="#666666"
     borderopacity="1.0"
     inkscape:pageopacity="0.0"
     inkscape:pageshadow="2"
     inkscape:zoom="1"
     inkscape:cx="0"
     inkscape:cy="0"
     inkscape:document-units="px"
     inkscape:current-layer="layer1"
     showgrid="false"
     units="px"
     inkscape:window-width="1024"
     inkscape:window-height="768"
     inkscape:window-x="-8"
     inkscape:window-y="-8"
     inkscape:window-maximized="1" />
  <metadata
     id="metadata1">
    <rdf:RDF>
      <cc:Work
         rdf:about="">
        <dc:format>image/svg+xml</dc:format>
        <dc:type
           rdf:resource="http://purl.org/dc/dcmitype/StillImage" />
        <dc:title />
      </cc:Work>
    </rdf:RDF>
  </metadata>
  <g transform="translate(-32,-32)"
     inkscape:label="Layer 1"
     inkscape:groupmode="layer"
     id="layer1">
    <!-- INSERT MARKER -->
<g transform="translate(0.000000,96.000000) scale(0.100000,-0.100000)"
fill="#fcf555" stroke="none">
<path d="M0 480 l0 -480 480 0 480 0 0 480 0 480 -480 0 -480 0 0 -480z"/>
</g>
<g transform="translate(0.000000,96.000000) scale(0.100000,-0.100000)"
fill="#f3d437" stroke="none">
<path d="M0 946 c0 -12 6 -13 30 -4 17 5 39 8 49 5 10 -2 25 -1 32 4 9 5 -10
9 -48 9 -48 0 -63 -3 -63 -14z"/>
<path d="M130 950 c0 -7 3 -10 7 -7 3 4 3 10 0 14 -4 3 -7 0 -7 -7z"/>
<path d="M154 951 c6 -8 96 -5 105 5 2 2 -21 4 -53 4 -31 0 -55 -4 -52 -9z"/>
<path d="M286 946 c15 -12 15 -13 0 -19 -20 -8 -21 -31 -2 -46 19 -16 16 -48
-4 -57 -25 -12 -40 -13 -45 -4 -3 5 3 7 15 5 11 -2 23 2 26 8 4 7 4 9 -1 5 -4
-4 -15 -3 -22 4 -11 9 -16 9 -23 -2 -5 -8 -6 -18 -4 -22 3 -4 -2 -5 -10 -2 -9
3 -13 11 -9 17 3 6 1 7 -6 3 -6 -4 -9 -12 -6 -17 4 -5 0 -9 -8 -9 -10 0 -14 7
-11 23 4 19 3 20 -4 3 -10 -23 -51 -29 -59 -9 -3 7 -9 13 -15 13 -5 0 -6 -4
-3 -10 3 -5 0 -7 -9 -4 -8 3 -12 12 -10 19 3 7 1 16 -4 19 -5 3 -9 -10 -8 -28
1 -24 4 -31 12 -25 6 5 14 5 18 1 4 -4 34 -7 65 -8 32 -1 63 -4 69 -8 6 -3 13
-2 17 3 3 6 12 8 20 5 8 -4 13 -10 10 -14 -3 -4 2 -10 10 -14 8 -3 15 -12 15
-21 0 -23 -36 -59 -51 -49 -9 5 -10 2 -6 -10 6 -14 4 -15 -16 -5 l-22 12 20
-23 c11 -13 14 -20 8 -16 -7 4 -13 2 -13 -4 0 -6 -4 -8 -10 -5 -5 3 -10 2 -10
-2 0 -5 -45 -8 -100 -7 -99 1 -100 1 -100 -23 0 -12 5 -23 10 -23 6 0 9 6 8
13 -2 6 3 11 10 9 7 -1 22 2 32 8 11 6 20 7 20 2 0 -5 36 -8 80 -8 67 1 79 4
75 16 -4 11 -1 10 8 -2 11 -14 16 -15 27 -5 10 10 11 9 5 -3 -8 -13 -7 -13 8
-1 18 14 22 5 11 -23 -5 -12 -10 -14 -19 -6 -11 9 -12 6 -7 -12 5 -20 4 -21
-11 -10 -11 9 -21 11 -33 4 -15 -8 -15 -9 0 -15 10 -4 15 -3 11 3 -3 6 -2 10
3 10 16 0 22 -13 11 -26 -7 -8 -7 -14 1 -19 21 -13 9 -23 -25 -20 -28 1 -33
-1 -24 -12 14 -16 -3 -17 -19 -1 -9 9 -15 9 -24 0 -17 -17 -33 -15 -18 3 11
13 10 14 -6 9 -16 -6 -17 -5 -6 7 6 7 12 17 12 23 0 5 -6 1 -14 -9 -8 -11 -12
-23 -10 -27 2 -4 0 -9 -5 -12 -5 -4 -13 -1 -17 5 -5 8 -3 9 6 4 9 -5 11 -4 6
4 -4 6 -2 19 6 28 9 12 9 15 0 9 -7 -4 -12 -2 -12 5 0 7 -3 10 -6 7 -8 -9 -14
-68 -6 -69 45 -7 68 -6 74 4 4 7 8 7 8 2 0 -6 12 -12 26 -13 21 -2 25 2 20 16
-5 14 -4 14 9 -2 8 -11 15 -17 15 -13 0 4 14 1 30 -8 33 -17 41 -54 15 -75
-11 -9 -15 -9 -15 -1 0 7 -5 9 -11 6 -6 -4 -8 -9 -5 -12 7 -7 -20 -33 -34 -33
-6 0 -8 -5 -5 -10 6 -9 -10 -14 -42 -13 -7 1 -13 -2 -13 -6 0 -4 -22 -6 -49
-6 -27 0 -47 3 -45 7 2 4 -9 3 -25 -2 -21 -6 -31 -5 -35 3 -2 7 -5 2 -5 -10
-1 -22 0 -22 116 -17 64 2 119 7 122 9 2 3 10 0 18 -6 9 -8 13 -8 13 -1 0 7 7
9 17 5 12 -5 14 -3 8 7 -5 9 -4 11 3 6 15 -9 15 -39 1 -53 -14 -14 -41 -5 -32
11 3 6 2 7 -3 3 -9 -9 -10 -13 -13 -43 0 -8 -5 -13 -9 -10 -5 3 -9 -1 -9 -9 0
-11 4 -12 13 -4 7 6 18 8 24 4 5 -3 10 1 10 9 0 34 16 14 17 -21 1 -24 -2 -32
-8 -22 -7 11 -9 11 -9 0 0 -7 -6 -11 -14 -8 -7 3 -19 0 -25 -6 -8 -8 -11 -8
-11 1 0 11 13 16 33 13 4 0 7 3 7 9 0 12 -10 13 -30 0 -9 -6 -19 -5 -28 2 -11
9 -11 7 -1 -16 9 -20 18 -26 33 -22 31 8 56 -11 56 -44 0 -17 -5 -30 -11 -30
-5 0 -7 -6 -3 -12 5 -8 0 -7 -11 2 -17 14 -18 13 -12 -2 3 -10 3 -17 -1 -17
-21 3 -32 -2 -26 -13 5 -7 3 -8 -6 -3 -7 4 -16 2 -21 -6 -20 -32 -10 -39 56
-39 56 0 64 2 58 17 -5 12 -3 14 8 8 11 -7 12 -6 2 6 -12 15 -11 134 1 146 3
3 1 14 -5 24 -7 14 -6 19 3 19 10 0 10 2 0 9 -8 4 -11 20 -9 37 3 26 8 29 63
39 32 6 63 12 68 14 5 1 13 -3 17 -11 7 -10 9 -10 9 0 0 10 5 10 20 2 14 -7
20 -7 20 0 0 5 5 10 11 10 5 0 7 -4 4 -10 -3 -5 -1 -10 4 -10 6 0 11 5 11 11
0 8 4 9 13 0 8 -6 16 -8 19 -6 3 3 14 7 26 10 15 3 19 -1 15 -15 -3 -12 -12
-17 -24 -15 -10 2 -19 -1 -19 -6 0 -6 -5 -7 -12 -3 -7 4 -8 3 -4 -5 4 -6 12
-9 17 -6 5 4 9 1 9 -4 0 -6 5 -10 12 -9 7 2 13 -12 15 -32 2 -26 0 -31 -7 -20
-9 13 -10 13 -11 0 -1 -8 -1 -18 0 -22 2 -14 -12 -8 -35 13 l-22 21 -11 -21
c-10 -18 -8 -22 24 -35 20 -9 42 -13 49 -10 20 8 26 -19 10 -47 -7 -13 -13
-20 -14 -15 0 6 -7 1 -16 -10 -8 -10 -12 -13 -8 -5 5 10 3 12 -5 7 -7 -5 -10
-14 -7 -22 3 -8 -1 -14 -9 -14 -8 0 -15 -5 -15 -11 0 -5 5 -7 12 -3 6 4 8 3 5
-3 -4 -6 -24 -10 -44 -8 -21 1 -47 -1 -58 -5 -11 -4 34 -8 99 -8 71 0 114 3
106 8 -11 7 -15 39 -15 139 -1 72 2 136 6 143 5 8 44 13 115 15 59 1 109 5
112 8 3 2 11 0 19 -6 7 -6 13 -7 13 -2 0 5 9 9 20 9 22 0 27 -25 9 -43 -14
-14 -41 -5 -32 11 3 6 2 7 -3 3 -9 -9 -10 -13 -13 -43 0 -8 -5 -13 -9 -10 -5
3 -9 -1 -9 -9 0 -11 4 -12 13 -4 7 6 18 8 24 4 5 -3 10 1 10 9 0 34 16 14 17
-21 1 -24 -2 -32 -8 -22 -7 11 -9 11 -9 0 0 -7 -6 -11 -14 -8 -7 3 -19 0 -25
-6 -8 -8 -11 -8 -11 1 0 11 13 16 33 13 4 0 7 4 7 9 0 12 -10 13 -30 0 -9 -6
-19 -5 -28 2 -11 9 -11 7 -1 -16 9 -20 18 -26 33 -22 31 8 56 -11 56 -44 0
-17 -5 -30 -11 -30 -5 0 -7 -6 -3 -13 5 -7 0 -6 -11 3 -17 14 -18 13 -12 -2 3
-10 3 -17 -1 -17 -21 3 -32 -2 -26 -13 5 -7 3 -8 -6 -3 -7 4 -16 2 -21 -6 -20
-31 -10 -39 51 -39 l60 0 0 478 c0 397 -2 479 -14 479 -8 0 -11 -8 -9 -18 4
-14 0 -17 -16 -14 -12 2 -21 -1 -21 -6 0 -6 -5 -7 -12 -3 -7 4 -8 3 -4 -5 4
-6 12 -9 17 -6 5 4 9 1 9 -4 0 -6 5 -10 12 -9 7 2 13 -12 15 -32 2 -26 0 -31
-7 -20 -9 13 -10 13 -11 0 -1 -8 -1 -18 0 -22 2 -14 -12 -8 -35 13 -22 21 -22
21 -33 1 -11 -21 -6 -32 16 -32 8 0 11 5 8 10 -4 6 -11 8 -16 5 -5 -3 -6 1 -3
10 6 14 8 13 21 -5 8 -11 11 -25 7 -32 -4 -6 -3 -8 4 -4 5 3 13 0 15 -6 4 -10
6 -10 6 -1 1 19 31 3 31 -16 -1 -24 -27 -56 -33 -39 -3 8 -9 2 -17 -14 -7 -16
-17 -28 -22 -28 -4 0 -8 -5 -8 -11 0 -5 5 -7 12 -3 7 4 8 3 4 -5 -4 -7 -17 -9
-29 -6 -20 6 -21 5 -5 -8 10 -8 15 -17 11 -20 -3 -4 -1 -7 5 -7 7 0 12 5 12
11 0 8 4 9 13 0 8 -6 16 -8 19 -6 3 3 14 7 26 10 15 3 19 -1 15 -15 -3 -12
-12 -17 -24 -15 -10 2 -19 -1 -19 -6 0 -6 -5 -7 -12 -3 -7 4 -8 3 -4 -5 4 -6
12 -9 17 -6 5 4 9 1 9 -4 0 -6 5 -10 12 -9 7 2 13 -12 15 -32 2 -26 0 -31 -7
-20 -9 13 -10 13 -11 0 -1 -8 -1 -18 0 -23 2 -13 -12 -7 -35 14 l-22 21 -11
-21 c-10 -18 -8 -22 24 -35 20 -9 42 -13 49 -10 20 8 26 -19 10 -47 -7 -13
-13 -20 -14 -15 0 6 -7 1 -16 -10 -8 -10 -12 -13 -8 -5 5 10 3 12 -5 7 -7 -5
-10 -14 -7 -22 3 -8 -1 -14 -9 -14 -8 0 -15 -5 -15 -11 0 -5 5 -7 12 -3 7 4 8
3 4 -5 -5 -7 -16 -9 -28 -5 -16 5 -19 3 -12 -7 6 -11 5 -12 -7 -2 -12 10 -18
10 -29 0 -10 -9 -11 -9 -6 0 6 10 1 11 -19 3 -34 -13 -58 -13 -50 0 4 6 -2 7
-17 2 -34 -11 -61 -9 -66 7 -3 10 0 11 9 5 11 -6 12 -5 2 7 -12 15 -11 134 1
146 3 3 1 14 -5 24 -7 14 -6 19 3 19 10 0 10 2 0 9 -8 4 -11 20 -9 37 3 26 8
29 63 39 32 6 63 12 68 14 5 1 13 -3 17 -11 7 -10 9 -10 9 0 0 10 5 10 20 2
11 -6 20 -7 20 -2 0 15 -23 30 -40 26 -8 -1 -30 -6 -49 -10 -25 -5 -32 -4 -27
4 5 9 0 10 -16 4 -34 -11 -61 -9 -66 7 -3 10 0 11 9 5 11 -6 12 -5 2 7 -12 15
-11 134 1 146 3 3 1 14 -5 24 -7 14 -6 19 3 19 10 0 10 2 0 9 -8 4 -11 20 -9
37 3 26 8 30 63 40 l59 11 -67 2 c-59 1 -68 -1 -68 -17 0 -10 -5 -23 -11 -29
-14 -14 -41 -5 -32 11 3 6 2 7 -3 3 -9 -9 -10 -13 -13 -43 0 -8 -5 -13 -9 -10
-5 3 -9 -1 -9 -9 0 -11 4 -12 13 -4 7 6 18 8 24 4 5 -3 10 1 10 9 0 34 16 14
17 -21 1 -24 -2 -32 -8 -22 -7 11 -9 11 -9 0 0 -7 -6 -11 -14 -8 -7 3 -19 0
-25 -6 -8 -8 -11 -8 -11 1 0 11 13 16 33 13 4 0 7 4 7 9 0 12 -10 13 -30 0 -9
-6 -19 -5 -28 2 -11 9 -11 7 -1 -16 9 -20 18 -26 33 -22 31 8 56 -11 56 -44 0
-17 -5 -30 -11 -30 -5 0 -7 -6 -3 -12 5 -8 0 -7 -11 2 -17 14 -18 13 -12 -2 3
-10 3 -17 -1 -17 -20 3 -33 -2 -27 -11 3 -5 0 -7 -9 -4 -10 4 -17 -2 -21 -19
-7 -26 -20 -28 -97 -12 -10 2 -18 0 -18 -5 0 -4 -19 -7 -42 -6 l-43 1 -1 140
c0 109 3 142 14 151 8 5 59 11 114 11 55 1 103 4 106 8 3 3 -60 5 -142 4 -120
-1 -144 -3 -130 -13z m14 -46 c0 -5 -5 -10 -11 -10 -5 0 -7 5 -4 10 3 6 8 10
11 10 2 0 4 -4 4 -10z m287 -17 c-4 -3 -7 0 -7 7 0 7 3 10 7 7 3 -4 3 -10 0
-14z m-337 -48 c0 -3 -2 -5 -5 -5 -3 0 -5 2 -5 5 0 3 2 5 5 5 3 0 5 -2 5 -5z
m690 -20 c0 -3 -2 -5 -5 -5 -3 0 -5 2 -5 5 0 3 2 5 5 5 3 0 5 -2 5 -5z m-670
-130 c0 -3 -2 -5 -5 -5 -3 0 -5 2 -5 5 0 3 2 5 5 5 3 0 5 -2 5 -5z m530 -40
c0 -3 -2 -5 -5 -5 -3 0 -5 2 -5 5 0 3 2 5 5 5 3 0 5 -2 5 -5z m-210 -18 c0 5
9 9 20 9 22 0 27 -25 9 -43 -14 -14 -41 -5 -32 11 3 6 2 7 -3 3 -9 -9 -10 -13
-13 -43 0 -8 -5 -13 -9 -10 -5 3 -9 -1 -9 -9 0 -11 4 -12 13 -4 7 6 18 8 24 4
5 -3 10 1 10 9 0 34 16 14 17 -21 1 -24 -2 -32 -8 -22 -7 11 -9 11 -9 0 0 -7
-6 -11 -14 -8 -7 3 -19 0 -25 -6 -8 -8 -11 -8 -11 1 0 11 13 16 33 13 4 0 7 4
7 9 0 12 -10 13 -30 0 -9 -6 -19 -5 -28 2 -11 9 -11 7 -1 -16 9 -20 18 -26 33
-22 31 8 56 -11 56 -44 0 -17 -5 -30 -11 -30 -5 0 -7 -6 -3 -12 5 -8 0 -7 -11
2 -17 14 -18 13 -12 -2 3 -10 3 -17 -1 -17 -20 3 -33 -2 -27 -11 3 -5 0 -7 -9
-4 -10 4 -17 -2 -21 -19 -7 -26 -20 -28 -97 -12 -10 2 -18 0 -18 -5 0 -4 -19
-7 -42 -6 l-43 1 0 140 c-1 116 2 142 15 150 8 5 59 10 114 12 54 1 101 5 104
7 3 3 11 1 19 -5 7 -6 13 -7 13 -2z m-296 -74 c-1 -16 -3 -30 -4 -33 -1 -3 -2
-9 -1 -13 1 -5 -3 -6 -8 -3 -5 4 -11 0 -14 -6 -3 -10 -8 -10 -18 1 -8 8 -9 11
-2 7 17 -9 27 12 13 29 -8 10 -6 17 12 29 12 9 23 16 23 16 1 0 0 -12 -1 -27z
m293 10 c-4 -3 -7 0 -7 7 0 7 3 10 7 7 3 -4 3 -10 0 -14z m-487 -28 c0 -3 -2
-5 -5 -5 -3 0 -5 2 -5 5 0 3 2 5 5 5 3 0 5 -2 5 -5z m780 -40 c14 -18 13 -19
-1 -8 -9 7 -19 10 -23 6 -4 -4 -4 1 0 10 3 10 7 17 8 15 1 -2 8 -12 16 -23z
m60 0 c0 -3 -2 -5 -5 -5 -3 0 -5 2 -5 5 0 3 2 5 5 5 3 0 5 -2 5 -5z m-650 -10
c0 -3 -2 -5 -5 -5 -3 0 -5 2 -5 5 0 3 2 5 5 5 3 0 5 -2 5 -5z m620 -10 c0 -3
-2 -5 -5 -5 -3 0 -5 2 -5 5 0 3 2 5 5 5 3 0 5 -2 5 -5z m-610 -90 c0 -3 -2 -5
-5 -5 -3 0 -5 2 -5 5 0 3 2 5 5 5 3 0 5 -2 5 -5z m630 -30 c0 -3 -2 -5 -5 -5
-3 0 -5 2 -5 5 0 3 2 5 5 5 3 0 5 -2 5 -5z m-630 -10 c0 -3 -2 -5 -5 -5 -3 0
-5 2 -5 5 0 3 2 5 5 5 3 0 5 -2 5 -5z m650 0 c0 -3 -2 -5 -5 -5 -3 0 -5 2 -5
5 0 3 2 5 5 5 3 0 5 -2 5 -5z m-683 -102 c-4 -3 -7 0 -7 7 0 7 3 10 7 7 3 -4
3 -10 0 -14z m640 0 c-4 -3 -7 0 -7 7 0 7 3 10 7 7 3 -4 3 -10 0 -14z m-347
-68 c14 -18 13 -19 -1 -8 -9 7 -19 10 -23 6 -4 -4 -4 1 0 10 3 10 7 17 8 15 1
-2 8 -12 16 -23z m60 0 c0 -3 -2 -5 -5 -5 -3 0 -5 2 -5 5 0 3 2 5 5 5 3 0 5
-2 5 -5z m-30 -20 c0 -3 -2 -5 -5 -5 -3 0 -5 2 -5 5 0 3 2 5 5 5 3 0 5 -2 5
-5z m20 -120 c0 -3 -2 -5 -5 -5 -3 0 -5 2 -5 5 0 3 2 5 5 5 3 0 5 -2 5 -5z
m20 -10 c0 -3 -2 -5 -5 -5 -3 0 -5 2 -5 5 0 3 2 5 5 5 3 0 5 -2 5 -5z"/>
<path d="M600 605 c0 -3 2 -5 5 -5 3 0 5 2 5 5 0 3 -2 5 -5 5 -3 0 -5 -2 -5
-5z"/>
<path d="M440 575 c0 -3 2 -5 5 -5 3 0 5 2 5 5 0 3 -2 5 -5 5 -3 0 -5 -2 -5
-5z"/>
<path d="M420 565 c0 -3 2 -5 5 -5 3 0 5 2 5 5 0 3 -2 5 -5 5 -3 0 -5 -2 -5
-5z"/>
<path d="M440 555 c0 -3 2 -5 5 -5 3 0 5 2 5 5 0 3 -2 5 -5 5 -3 0 -5 -2 -5
-5z"/>
<path d="M530 555 c0 -3 2 -5 5 -5 3 0 5 2 5 5 0 3 -2 5 -5 5 -3 0 -5 -2 -5
-5z"/>
<path d="M400 535 c0 -3 2 -5 5 -5 3 0 5 2 5 5 0 3 -2 5 -5 5 -3 0 -5 -2 -5
-5z"/>
<path d="M424 528 c-4 -7 -3 -8 4 -4 7 4 12 9 12 12 0 8 -9 4 -16 -8z"/>
<path d="M449 528 c-1 -7 -1 -16 0 -20 1 -11 -7 -10 -28 1 -13 7 -18 6 -18 -5
0 -7 3 -14 6 -15 3 0 21 -2 39 -3 19 -1 38 -9 42 -17 8 -12 12 -11 26 3 15 15
15 18 -6 40 -22 22 -22 22 -11 1 17 -33 12 -52 -5 -20 -16 29 -30 37 -20 11 5
-14 4 -15 -8 -5 -8 7 -12 19 -9 27 3 8 2 14 -1 14 -3 0 -7 -6 -7 -12z m-19
-33 c0 -3 -2 -5 -5 -5 -3 0 -5 2 -5 5 0 3 2 5 5 5 3 0 5 -2 5 -5z m30 0 c0 -3
-2 -5 -5 -5 -3 0 -5 2 -5 5 0 3 2 5 5 5 3 0 5 -2 5 -5z"/>
<path d="M600 460 c0 -7 3 -10 7 -7 3 4 3 10 0 14 -4 3 -7 0 -7 -7z"/>
<path d="M266 551 c-4 -5 -2 -12 3 -15 5 -4 12 -2 15 3 4 5 2 12 -3 15 -5 4
-12 2 -15 -3z m14 -6 c0 -3 -2 -5 -5 -5 -3 0 -5 2 -5 5 0 3 2 5 5 5 3 0 5 -2
5 -5z"/>
<path d="M575 950 c3 -5 8 -10 11 -10 2 0 4 5 4 10 0 6 -5 10 -11 10 -5 0 -7
-4 -4 -10z"/>
<path d="M603 953 c4 -3 10 -3 14 0 3 4 0 7 -7 7 -7 0 -10 -3 -7 -7z"/>
<path d="M770 955 c0 -3 2 -5 5 -5 3 0 5 2 5 5 0 3 -2 5 -5 5 -3 0 -5 -2 -5
-5z"/>
<path d="M790 950 c0 -7 3 -10 7 -7 3 4 3 10 0 14 -4 3 -7 0 -7 -7z"/>
<path d="M810 956 c0 -2 7 -6 15 -10 8 -3 15 -1 15 4 0 6 -7 10 -15 10 -8 0
-15 -2 -15 -4z"/>
<path d="M855 950 c-3 -5 -1 -10 4 -10 6 0 11 5 11 10 0 6 -2 10 -4 10 -3 0
-8 -4 -11 -10z"/>
<path d="M885 950 c3 -5 12 -7 20 -3 21 7 19 13 -6 13 -11 0 -18 -4 -14 -10z"/>
<path d="M600 925 c0 -3 2 -5 5 -5 3 0 5 2 5 5 0 3 -2 5 -5 5 -3 0 -5 -2 -5
-5z"/>
<path d="M0 910 c0 -7 3 -10 7 -7 3 4 3 10 0 14 -4 3 -7 0 -7 -7z"/>
<path d="M226 905 c-11 -8 -15 -15 -9 -15 6 0 16 7 23 15 16 19 11 19 -14 0z"/>
<path d="M440 895 c0 -3 2 -5 5 -5 3 0 5 2 5 5 0 3 -2 5 -5 5 -3 0 -5 -2 -5
-5z"/>
<path d="M1 848 c0 -31 3 -37 8 -24 7 18 3 66 -5 66 -2 0 -4 -19 -3 -42z"/>
<path d="M250 880 c0 -6 -3 -9 -7 -9 -19 3 -33 -2 -33 -12 0 -6 5 -7 13 -2 17
10 37 13 37 4 0 -4 7 -8 15 -8 19 0 19 -1 -5 20 -11 9 -20 12 -20 7z"/>
<path d="M420 885 c0 -3 2 -5 5 -5 3 0 5 2 5 5 0 3 -2 5 -5 5 -3 0 -5 -2 -5
-5z"/>
<path d="M875 880 c-4 -6 -11 -7 -17 -4 -7 4 -8 2 -4 -5 6 -9 11 -9 22 0 14
11 18 19 10 19 -3 0 -8 -5 -11 -10z"/>
<path d="M891 869 c-9 -16 -10 -19 0 -13 9 5 10 2 6 -9 -3 -10 -3 -17 1 -17 9
0 33 52 27 58 -3 3 -5 -1 -5 -9 0 -10 -2 -11 -8 -2 -6 9 -11 6 -21 -8z m19 -4
c0 -3 -2 -5 -5 -5 -3 0 -5 2 -5 5 0 3 2 5 5 5 3 0 5 -2 5 -5z"/>
<path d="M440 875 c0 -3 2 -5 5 -5 3 0 5 2 5 5 0 3 -2 5 -5 5 -3 0 -5 -2 -5
-5z"/>
<path d="M530 875 c0 -3 2 -5 5 -5 3 0 5 2 5 5 0 3 -2 5 -5 5 -3 0 -5 -2 -5
-5z"/>
<path d="M724 857 c4 -24 2 -28 -12 -22 -9 3 -13 3 -9 -1 4 -4 1 -14 -6 -22
-10 -13 -9 -14 3 -7 20 12 43 12 52 0 4 -6 8 -2 8 9 0 13 -5 16 -16 12 -14 -5
-15 -4 -4 9 7 8 16 13 20 10 4 -3 10 1 13 8 3 9 -2 13 -16 12 -12 -1 -25 3
-30 9 -4 6 -5 -2 -3 -17z m26 -1 c0 -3 -5 -8 -12 -12 -7 -4 -8 -3 -4 4 7 12
16 16 16 8z"/>
<path d="M404 849 c-4 -7 -3 -9 4 -5 6 3 13 2 16 -3 3 -5 -2 -12 -12 -16 -15
-6 -15 -7 -2 -15 9 -5 28 -7 43 -6 17 2 31 -3 37 -13 8 -15 10 -15 26 1 15 15
15 18 -6 40 -22 22 -22 22 -11 1 15 -29 13 -54 -2 -27 -7 12 -18 19 -26 16 -8
-2 -11 0 -8 5 3 5 1 15 -5 23 -8 13 -9 12 -5 -1 3 -9 0 -22 -6 -28 -16 -16
-32 -14 -18 3 8 10 8 16 -3 25 -11 9 -16 9 -22 0z m56 -34 c0 -3 -2 -5 -5 -5
-3 0 -5 2 -5 5 0 3 2 5 5 5 3 0 5 -2 5 -5z"/>
<path d="M470 855 c0 -3 2 -5 5 -5 3 0 5 2 5 5 0 3 -2 5 -5 5 -3 0 -5 -2 -5
-5z"/>
<path d="M150 835 c0 -3 2 -5 5 -5 3 0 5 2 5 5 0 3 -2 5 -5 5 -3 0 -5 -2 -5
-5z"/>
<path d="M780 825 c0 -3 2 -5 5 -5 3 0 5 2 5 5 0 3 -2 5 -5 5 -3 0 -5 -2 -5
-5z"/>
<path d="M0 790 c0 -7 3 -10 7 -7 3 4 3 10 0 14 -4 3 -7 0 -7 -7z"/>
<path d="M810 795 c0 -3 2 -5 5 -5 3 0 5 2 5 5 0 3 -2 5 -5 5 -3 0 -5 -2 -5
-5z"/>
<path d="M600 780 c0 -7 3 -10 7 -7 3 4 3 10 0 14 -4 3 -7 0 -7 -7z"/>
<path d="M0 765 c0 -3 2 -5 5 -5 3 0 5 2 5 5 0 3 -2 5 -5 5 -3 0 -5 -2 -5 -5z"/>
<path d="M260 720 c0 -7 3 -10 7 -7 3 4 3 10 0 14 -4 3 -7 0 -7 -7z"/>
<path d="M0 715 c0 -3 2 -5 5 -5 3 0 5 2 5 5 0 3 -2 5 -5 5 -3 0 -5 -2 -5 -5z"/>
<path d="M0 695 c0 -3 2 -5 5 -5 3 0 5 2 5 5 0 3 -2 5 -5 5 -3 0 -5 -2 -5 -5z"/>
<path d="M0 670 c0 -7 3 -10 7 -7 3 4 3 10 0 14 -4 3 -7 0 -7 -7z"/>
<path d="M200 675 c0 -3 2 -5 5 -5 3 0 5 2 5 5 0 3 -2 5 -5 5 -3 0 -5 -2 -5
-5z"/>
<path d="M0 580 c0 -7 3 -10 7 -7 3 4 3 10 0 14 -4 3 -7 0 -7 -7z"/>
<path d="M120 565 c0 -3 2 -5 5 -5 3 0 5 2 5 5 0 3 -2 5 -5 5 -3 0 -5 -2 -5
-5z"/>
<path d="M875 560 c-4 -6 -11 -7 -17 -4 -7 4 -8 2 -4 -5 6 -9 11 -9 22 0 14
11 18 19 10 19 -3 0 -8 -5 -11 -10z"/>
<path d="M891 549 c-9 -16 -10 -19 0 -13 9 5 10 2 6 -9 -3 -10 -3 -17 1 -17 9
0 33 52 27 58 -3 3 -5 -1 -5 -9 0 -10 -2 -11 -8 -2 -6 9 -11 6 -21 -8z m19 -4
c0 -3 -2 -5 -5 -5 -3 0 -5 2 -5 5 0 3 2 5 5 5 3 0 5 -2 5 -5z"/>
<path d="M0 550 c0 -7 3 -10 7 -7 3 4 3 10 0 14 -4 3 -7 0 -7 -7z"/>
<path d="M724 537 c4 -24 2 -28 -12 -22 -9 3 -13 3 -9 -1 4 -4 1 -14 -6 -22
-10 -13 -9 -14 3 -7 20 12 43 12 52 0 4 -6 8 -2 8 9 0 13 -5 16 -16 12 -14 -5
-15 -4 -4 9 7 8 16 13 20 10 4 -3 10 1 13 8 3 9 -2 13 -16 12 -12 -1 -25 3
-30 9 -4 6 -5 -2 -3 -17z m26 -1 c0 -3 -5 -8 -12 -12 -7 -4 -8 -3 -4 4 7 12
16 16 16 8z"/>
<path d="M150 535 c0 -3 2 -5 5 -5 3 0 5 2 5 5 0 3 -2 5 -5 5 -3 0 -5 -2 -5
-5z"/>
<path d="M0 520 c0 -7 3 -10 7 -7 3 4 3 10 0 14 -4 3 -7 0 -7 -7z"/>
<path d="M780 505 c0 -3 2 -5 5 -5 3 0 5 2 5 5 0 3 -2 5 -5 5 -3 0 -5 -2 -5
-5z"/>
<path d="M0 490 c0 -7 3 -10 7 -7 3 4 3 10 0 14 -4 3 -7 0 -7 -7z"/>
<path d="M0 465 c0 -3 2 -5 5 -5 3 0 5 2 5 5 0 3 -2 5 -5 5 -3 0 -5 -2 -5 -5z"/>
<path d="M803 463 c4 -3 10 -3 14 0 3 4 0 7 -7 7 -7 0 -10 -3 -7 -7z"/>
<path d="M0 420 c0 -7 3 -10 7 -7 3 4 3 10 0 14 -4 3 -7 0 -7 -7z"/>
<path d="M280 415 c0 -3 2 -5 5 -5 3 0 5 2 5 5 0 3 -2 5 -5 5 -3 0 -5 -2 -5
-5z"/>
<path d="M0 355 c0 -3 2 -5 5 -5 3 0 5 2 5 5 0 3 -2 5 -5 5 -3 0 -5 -2 -5 -5z"/>
<path d="M0 285 c0 -3 2 -5 5 -5 3 0 5 2 5 5 0 3 -2 5 -5 5 -3 0 -5 -2 -5 -5z"/>
<path d="M280 285 c0 -3 2 -5 5 -5 3 0 5 2 5 5 0 3 -2 5 -5 5 -3 0 -5 -2 -5
-5z"/>
<path d="M920 285 c0 -3 2 -5 5 -5 3 0 5 2 5 5 0 3 -2 5 -5 5 -3 0 -5 -2 -5
-5z"/>
<path d="M120 255 c0 -3 2 -5 5 -5 3 0 5 2 5 5 0 3 -2 5 -5 5 -3 0 -5 -2 -5
-5z"/>
<path d="M760 255 c0 -3 2 -5 5 -5 3 0 5 2 5 5 0 3 -2 5 -5 5 -3 0 -5 -2 -5
-5z"/>
<path d="M0 240 c0 -7 3 -10 7 -7 3 4 3 10 0 14 -4 3 -7 0 -7 -7z"/>
<path d="M100 245 c0 -3 2 -5 5 -5 3 0 5 2 5 5 0 3 -2 5 -5 5 -3 0 -5 -2 -5
-5z"/>
<path d="M555 240 c-4 -6 -11 -7 -17 -4 -7 4 -8 2 -4 -5 6 -9 11 -9 22 0 14
11 18 19 10 19 -3 0 -8 -5 -11 -10z"/>
<path d="M571 229 c-9 -16 -10 -19 0 -13 9 5 10 2 6 -9 -3 -10 -3 -17 1 -17 9
0 33 52 27 58 -3 3 -5 -1 -5 -9 0 -10 -2 -11 -8 -2 -6 9 -11 6 -21 -8z m19 -4
c0 -3 -2 -5 -5 -5 -3 0 -5 2 -5 5 0 3 2 5 5 5 3 0 5 -2 5 -5z"/>
<path d="M740 245 c0 -3 2 -5 5 -5 3 0 5 2 5 5 0 3 -2 5 -5 5 -3 0 -5 -2 -5
-5z"/>
<path d="M120 235 c0 -3 2 -5 5 -5 3 0 5 2 5 5 0 3 -2 5 -5 5 -3 0 -5 -2 -5
-5z"/>
<path d="M210 235 c0 -3 2 -5 5 -5 3 0 5 2 5 5 0 3 -2 5 -5 5 -3 0 -5 -2 -5
-5z"/>
<path d="M404 217 c4 -24 2 -28 -12 -22 -9 3 -13 3 -9 -1 4 -4 1 -14 -6 -22
-10 -13 -9 -14 3 -7 20 12 43 12 52 0 4 -6 8 -2 8 9 0 13 -5 16 -16 12 -14 -5
-15 -4 -4 9 7 8 16 13 20 10 4 -3 10 1 13 8 3 9 -2 13 -16 12 -12 -1 -25 3
-30 9 -4 6 -5 -2 -3 -17z m26 -1 c0 -3 -5 -8 -12 -12 -7 -4 -8 -3 -4 4 7 12
16 16 16 8z"/>
<path d="M760 235 c0 -3 2 -5 5 -5 3 0 5 2 5 5 0 3 -2 5 -5 5 -3 0 -5 -2 -5
-5z"/>
<path d="M850 235 c0 -3 2 -5 5 -5 3 0 5 2 5 5 0 3 -2 5 -5 5 -3 0 -5 -2 -5
-5z"/>
<path d="M0 215 c0 -3 2 -5 5 -5 3 0 5 2 5 5 0 3 -2 5 -5 5 -3 0 -5 -2 -5 -5z"/>
<path d="M84 209 c-4 -8 -3 -9 4 -5 16 9 15 -7 0 -22 -12 -12 -9 -13 50 -16
12 -1 27 -8 32 -16 8 -13 11 -13 26 2 15 15 15 18 -6 40 -22 22 -22 22 -11 1
15 -30 13 -53 -2 -25 -10 16 -16 19 -24 11 -9 -9 -18 -5 -36 15 -18 19 -27 23
-33 15z m31 -29 c3 -5 4 -10 1 -10 -3 0 -8 5 -11 10 -3 6 -4 10 -1 10 3 0 8
-4 11 -10z"/>
<path d="M130 205 c0 -8 4 -15 10 -15 5 0 7 7 4 15 -4 8 -8 15 -10 15 -2 0 -4
-7 -4 -15z"/>
<path d="M150 215 c0 -3 2 -5 5 -5 3 0 5 2 5 5 0 3 -2 5 -5 5 -3 0 -5 -2 -5
-5z"/>
<path d="M725 210 c-5 -8 -4 -11 3 -6 6 3 16 -3 22 -14 7 -13 7 -20 0 -20 -5
0 -10 5 -10 11 0 5 -5 7 -11 3 -12 -7 7 -24 29 -24 17 0 15 14 -6 41 -15 17
-21 19 -27 9z"/>
<path d="M774 200 c3 -14 5 -29 5 -33 1 -5 5 -6 10 -2 6 3 14 -3 20 -12 9 -17
11 -17 27 -1 15 15 15 18 -6 40 -22 22 -22 22 -11 1 15 -29 13 -54 -2 -27 -7
12 -18 19 -26 16 -8 -2 -11 0 -8 5 3 5 1 15 -4 23 -7 11 -8 8 -5 -10z"/>
<path d="M790 215 c0 -3 2 -5 5 -5 3 0 5 2 5 5 0 3 -2 5 -5 5 -3 0 -5 -2 -5
-5z"/>
<path d="M1 184 c0 -11 3 -14 6 -6 3 7 2 16 -1 19 -3 4 -6 -2 -5 -13z"/>
<path d="M460 185 c0 -3 2 -5 5 -5 3 0 5 2 5 5 0 3 -2 5 -5 5 -3 0 -5 -2 -5
-5z"/>
<path d="M280 140 c0 -7 3 -10 7 -7 3 4 3 10 0 14 -4 3 -7 0 -7 -7z"/>
<path d="M483 143 c4 -3 10 -3 14 0 3 4 0 7 -7 7 -7 0 -10 -3 -7 -7z"/>
<path d="M920 140 c0 -7 3 -10 7 -7 3 4 3 10 0 14 -4 3 -7 0 -7 -7z"/>
<path d="M0 115 c0 -3 2 -5 5 -5 3 0 5 2 5 5 0 3 -2 5 -5 5 -3 0 -5 -2 -5 -5z"/>
<path d="M0 95 c0 -3 2 -5 5 -5 3 0 5 2 5 5 0 3 -2 5 -5 5 -3 0 -5 -2 -5 -5z"/>
<path d="M0 70 c0 -7 3 -10 7 -7 3 4 3 10 0 14 -4 3 -7 0 -7 -7z"/>
<path d="M0 40 c0 -7 3 -10 7 -7 3 4 3 10 0 14 -4 3 -7 0 -7 -7z"/>
<path d="M7 9 c7 -7 15 -10 18 -7 3 3 -2 9 -12 12 -14 6 -15 5 -6 -5z"/>
<path d="M90 8 c0 -4 21 -8 48 -7 52 1 48 6 -10 11 -21 2 -38 0 -38 -4z"/>
<path d="M385 10 c-16 -7 -17 -9 -3 -9 9 -1 20 4 23 9 7 11 7 11 -20 0z"/>
<path d="M730 8 c0 -4 21 -8 48 -7 52 1 48 6 -10 11 -21 2 -38 0 -38 -4z"/>
<path d="M43 3 c4 -3 10 -3 14 0 3 4 0 7 -7 7 -7 0 -10 -3 -7 -7z"/>
<path d="M343 3 c4 -3 10 -3 14 0 3 4 0 7 -7 7 -7 0 -10 -3 -7 -7z"/>
<path d="M683 3 c4 -3 10 -3 14 0 3 4 0 7 -7 7 -7 0 -10 -3 -7 -7z"/>
</g>
<g transform="translate(0.000000,96.000000) scale(0.100000,-0.100000)"
fill="#e4b72e" stroke="none">
<path d="M0 943 c0 -11 3 -14 8 -8 4 6 29 11 55 12 72 2 70 13 -1 13 -52 0
-62 -3 -62 -17z"/>
<path d="M130 950 c0 -7 3 -10 7 -7 3 4 3 10 0 14 -4 3 -7 0 -7 -7z"/>
<path d="M150 955 c0 -3 2 -5 5 -5 3 0 5 2 5 5 0 3 -2 5 -5 5 -3 0 -5 -2 -5
-5z"/>
<path d="M183 953 c4 -3 10 -3 14 0 3 4 0 7 -7 7 -7 0 -10 -3 -7 -7z"/>
<path d="M250 955 c0 -3 2 -5 5 -5 3 0 5 2 5 5 0 3 -2 5 -5 5 -3 0 -5 -2 -5
-5z"/>
<path d="M320 945 c0 -16 12 -20 24 -8 4 4 28 9 53 10 71 5 64 13 -10 13 -53
0 -67 -3 -67 -15z"/>
<path d="M460 955 c0 -3 2 -5 5 -5 3 0 5 2 5 5 0 3 -2 5 -5 5 -3 0 -5 -2 -5
-5z"/>
<path d="M493 953 c4 -3 10 -3 14 0 3 4 0 7 -7 7 -7 0 -10 -3 -7 -7z"/>
<path d="M520 955 c0 -3 2 -5 5 -5 3 0 5 2 5 5 0 3 -2 5 -5 5 -3 0 -5 -2 -5
-5z"/>
<path d="M550 955 c0 -3 2 -5 5 -5 3 0 5 2 5 5 0 3 -2 5 -5 5 -3 0 -5 -2 -5
-5z"/>
<path d="M610 955 c0 -3 2 -5 5 -5 3 0 5 2 5 5 0 3 -2 5 -5 5 -3 0 -5 -2 -5
-5z"/>
<path d="M630 935 c0 -14 5 -25 10 -25 6 0 9 5 8 12 -2 7 21 16 57 23 l60 12
-67 2 c-66 1 -68 0 -68 -24z"/>
<path d="M770 955 c0 -3 2 -5 5 -5 3 0 5 2 5 5 0 3 -2 5 -5 5 -3 0 -5 -2 -5
-5z"/>
<path d="M790 950 c0 -7 3 -10 7 -7 3 4 3 10 0 14 -4 3 -7 0 -7 -7z"/>
<path d="M810 956 c0 -2 7 -6 15 -10 8 -3 15 -1 15 4 0 6 -7 10 -15 10 -8 0
-15 -2 -15 -4z"/>
<path d="M855 950 c-3 -5 -1 -10 4 -10 6 0 11 5 11 10 0 6 -2 10 -4 10 -3 0
-8 -4 -11 -10z"/>
<path d="M950 955 c0 -3 2 -5 5 -5 3 0 5 2 5 5 0 3 -2 5 -5 5 -3 0 -5 -2 -5
-5z"/>
<path d="M950 935 c0 -3 2 -5 5 -5 3 0 5 2 5 5 0 3 -2 5 -5 5 -3 0 -5 -2 -5
-5z"/>
<path d="M0 910 c0 -7 3 -10 7 -7 3 4 3 10 0 14 -4 3 -7 0 -7 -7z"/>
<path d="M0 885 c0 -3 2 -5 5 -5 3 0 5 2 5 5 0 3 -2 5 -5 5 -3 0 -5 -2 -5 -5z"/>
<path d="M320 880 c0 -7 3 -10 7 -7 3 4 3 10 0 14 -4 3 -7 0 -7 -7z"/>
<path d="M640 865 c0 -3 2 -5 5 -5 3 0 5 2 5 5 0 3 -2 5 -5 5 -3 0 -5 -2 -5
-5z"/>
<path d="M320 855 c0 -3 2 -5 5 -5 3 0 5 2 5 5 0 3 -2 5 -5 5 -3 0 -5 -2 -5
-5z"/>
<path d="M640 845 c0 -3 2 -5 5 -5 3 0 5 2 5 5 0 3 -2 5 -5 5 -3 0 -5 -2 -5
-5z"/>
<path d="M0 835 c0 -3 2 -5 5 -5 3 0 5 2 5 5 0 3 -2 5 -5 5 -3 0 -5 -2 -5 -5z"/>
<path d="M321 824 c0 -11 3 -14 6 -6 3 7 2 16 -1 19 -3 4 -6 -2 -5 -13z"/>
<path d="M0 815 c0 -3 2 -5 5 -5 3 0 5 2 5 5 0 3 -2 5 -5 5 -3 0 -5 -2 -5 -5z"/>
<path d="M0 790 c0 -7 3 -10 7 -7 3 4 3 10 0 14 -4 3 -7 0 -7 -7z"/>
<path d="M641 784 c0 -11 3 -14 6 -6 3 7 2 16 -1 19 -3 4 -6 -2 -5 -13z"/>
<path d="M950 785 c0 -3 2 -5 5 -5 3 0 5 2 5 5 0 3 -2 5 -5 5 -3 0 -5 -2 -5
-5z"/>
<path d="M0 765 c0 -3 2 -5 5 -5 3 0 5 2 5 5 0 3 -2 5 -5 5 -3 0 -5 -2 -5 -5z"/>
<path d="M313 753 c4 -3 10 -3 14 0 3 4 0 7 -7 7 -7 0 -10 -3 -7 -7z"/>
<path d="M628 719 c-3 -64 -4 -68 -12 -76 -5 -4 -6 -3 -3 4 8 13 -18 12 -30
-2 -4 -4 -3 -5 4 -1 6 3 14 2 18 -4 4 -6 11 -8 16 -5 5 4 9 -5 9 -19 0 -14 5
-26 10 -26 6 0 9 5 8 12 -2 7 21 16 57 23 33 7 50 13 37 14 -13 0 -20 5 -17
11 4 6 -2 7 -17 2 -34 -11 -61 -9 -66 7 -3 10 0 11 9 5 11 -6 12 -5 3 7 -6 8
-11 27 -12 43 -3 42 -12 45 -14 5z"/>
<path d="M308 713 c-2 -47 -3 -51 -12 -60 -5 -5 -6 -2 -1 7 7 12 6 13 -6 4 -8
-6 -21 -14 -29 -17 -8 -3 3 -4 25 -4 l40 2 1 48 c1 49 -15 67 -18 20z"/>
<path d="M948 703 c-3 -16 -8 -37 -13 -48 -5 -15 -4 -16 3 -6 8 11 11 10 15
-5 2 -10 5 5 6 34 1 57 -4 68 -11 25z"/>
<path d="M0 715 c0 -3 2 -5 5 -5 3 0 5 2 5 5 0 3 -2 5 -5 5 -3 0 -5 -2 -5 -5z"/>
<path d="M263 705 c0 -8 4 -12 9 -9 5 3 6 10 3 15 -9 13 -12 11 -12 -6z"/>
<path d="M240 705 c0 -3 2 -5 5 -5 3 0 5 2 5 5 0 3 -2 5 -5 5 -3 0 -5 -2 -5
-5z"/>
<path d="M0 695 c0 -3 2 -5 5 -5 3 0 5 2 5 5 0 3 -2 5 -5 5 -3 0 -5 -2 -5 -5z"/>
<path d="M0 670 c0 -7 3 -10 7 -7 3 4 3 10 0 14 -4 3 -7 0 -7 -7z"/>
<path d="M200 675 c0 -3 2 -5 5 -5 3 0 5 2 5 5 0 3 -2 5 -5 5 -3 0 -5 -2 -5
-5z"/>
<path d="M864 662 c5 -14 1 -18 -12 -17 -9 0 -23 4 -29 8 -6 4 -14 3 -18 -2
-3 -6 -12 -8 -20 -4 -8 3 -15 0 -15 -7 0 -6 4 -9 9 -6 5 4 12 0 14 -6 4 -10 6
-10 6 0 1 10 6 10 21 2 14 -7 20 -7 20 0 0 5 5 10 11 10 5 0 7 -4 4 -10 -3 -5
-1 -10 4 -10 6 0 12 3 12 8 6 33 5 52 -3 52 -5 0 -7 -8 -4 -18z m-44 -17 c0
-3 -2 -5 -5 -5 -3 0 -5 2 -5 5 0 3 2 5 5 5 3 0 5 -2 5 -5z"/>
<path d="M220 660 c0 -6 -4 -8 -10 -5 -5 3 -10 1 -10 -5 0 -6 -4 -9 -9 -5 -5
3 -12 1 -16 -4 -7 -12 46 -4 58 8 5 5 4 12 -2 15 -6 4 -11 2 -11 -4z"/>
<path d="M250 665 c0 -3 2 -5 5 -5 3 0 5 2 5 5 0 3 -2 5 -5 5 -3 0 -5 -2 -5
-5z"/>
<path d="M410 650 c0 -6 -15 -8 -40 -5 -31 4 -42 1 -47 -10 -7 -20 2 -29 18
-19 13 8 78 16 136 17 18 0 30 4 27 9 -4 5 -20 8 -38 7 -17 -2 -37 0 -44 5 -7
4 -12 2 -12 -4z"/>
<path d="M897 649 c7 -7 15 -10 18 -7 3 3 -2 9 -12 12 -14 6 -15 5 -6 -5z"/>
<path d="M0 623 c0 -13 5 -23 10 -23 6 0 9 5 8 11 -2 6 6 13 17 15 11 1 33 5
48 7 49 8 39 14 -23 13 -56 0 -60 -1 -60 -23z"/>
<path d="M138 643 c7 -3 16 -2 19 1 4 3 -2 6 -13 5 -11 0 -14 -3 -6 -6z"/>
<path d="M524 638 c-4 -7 -3 -8 4 -4 12 7 16 16 8 16 -3 0 -8 -5 -12 -12z"/>
<path d="M554 638 c-4 -7 -3 -8 4 -4 12 7 16 16 8 16 -3 0 -8 -5 -12 -12z"/>
<path d="M950 615 c0 -3 2 -5 5 -5 3 0 5 2 5 5 0 3 -2 5 -5 5 -3 0 -5 -2 -5
-5z"/>
<path d="M0 580 c0 -7 3 -10 7 -7 3 4 3 10 0 14 -4 3 -7 0 -7 -7z"/>
<path d="M320 570 c0 -7 3 -10 7 -7 3 4 3 10 0 14 -4 3 -7 0 -7 -7z"/>
<path d="M0 550 c0 -7 3 -10 7 -7 3 4 3 10 0 14 -4 3 -7 0 -7 -7z"/>
<path d="M320 545 c0 -3 2 -5 5 -5 3 0 5 2 5 5 0 3 -2 5 -5 5 -3 0 -5 -2 -5
-5z"/>
<path d="M640 545 c0 -3 2 -5 5 -5 3 0 5 2 5 5 0 3 -2 5 -5 5 -3 0 -5 -2 -5
-5z"/>
<path d="M0 520 c0 -7 3 -10 7 -7 3 4 3 10 0 14 -4 3 -7 0 -7 -7z"/>
<path d="M321 514 c0 -11 3 -14 6 -6 3 7 2 16 -1 19 -3 4 -6 -2 -5 -13z"/>
<path d="M640 525 c0 -3 2 -5 5 -5 3 0 5 2 5 5 0 3 -2 5 -5 5 -3 0 -5 -2 -5
-5z"/>
<path d="M0 490 c0 -7 3 -10 7 -7 3 4 3 10 0 14 -4 3 -7 0 -7 -7z"/>
<path d="M320 485 c0 -3 2 -5 5 -5 3 0 5 2 5 5 0 3 -2 5 -5 5 -3 0 -5 -2 -5
-5z"/>
<path d="M641 464 c0 -11 3 -14 6 -6 3 7 2 16 -1 19 -3 4 -6 -2 -5 -13z"/>
<path d="M0 465 c0 -3 2 -5 5 -5 3 0 5 2 5 5 0 3 -2 5 -5 5 -3 0 -5 -2 -5 -5z"/>
<path d="M950 450 c0 -7 3 -10 7 -7 3 4 3 10 0 14 -4 3 -7 0 -7 -7z"/>
<path d="M314 427 c-3 -8 -6 -27 -8 -43 -2 -16 -4 -33 -5 -37 0 -5 -5 -6 -10
-3 -5 3 -15 -2 -22 -12 -7 -9 -9 -14 -5 -10 5 4 16 2 24 -5 13 -10 14 -9 7 2
-5 10 -4 12 3 7 7 -4 12 -18 12 -32 0 -13 5 -24 10 -24 6 0 9 5 8 12 -2 6 21
16 57 22 33 7 64 13 69 15 5 1 13 -3 17 -11 7 -10 9 -10 9 0 0 10 5 10 20 2
13 -7 20 -7 20 -1 0 12 -40 24 -66 20 -11 -2 -25 0 -31 4 -7 5 -13 4 -13 -1 0
-6 -19 -9 -43 -8 l-43 1 2 58 c1 57 -2 68 -12 44z"/>
<path d="M0 420 c0 -7 3 -10 7 -7 3 4 3 10 0 14 -4 3 -7 0 -7 -7z"/>
<path d="M628 399 c-1 -19 -2 -41 -2 -51 0 -10 -6 -15 -18 -13 -9 2 -20 0 -23
-5 -3 -4 3 -7 12 -5 22 3 45 -14 36 -28 -3 -6 -1 -7 6 -3 9 6 69 14 139 19 6
0 12 4 12 8 0 4 -16 5 -37 2 -26 -4 -34 -3 -29 5 5 9 0 10 -16 4 -34 -11 -61
-9 -66 7 -3 10 0 11 9 5 11 -6 12 -5 3 7 -6 8 -11 27 -12 43 -3 42 -12 45 -14
5z"/>
<path d="M950 425 c0 -3 2 -5 5 -5 3 0 5 2 5 5 0 3 -2 5 -5 5 -3 0 -5 -2 -5
-5z"/>
<path d="M947 404 c-3 -3 -3 -13 0 -21 3 -8 0 -19 -7 -23 -17 -11 -21 -38 -8
-47 7 -4 8 -1 3 8 -5 10 -5 11 3 4 6 -5 12 -21 15 -35 2 -14 5 8 6 48 1 71 0
78 -12 66z m3 -59 c0 -3 -2 -5 -5 -5 -3 0 -5 2 -5 5 0 3 2 5 5 5 3 0 5 -2 5
-5z"/>
<path d="M0 355 c0 -3 2 -5 5 -5 3 0 5 2 5 5 0 3 -2 5 -5 5 -3 0 -5 -2 -5 -5z"/>
<path d="M861 353 c0 -5 4 -17 9 -28 8 -17 8 -16 7 8 -1 15 -5 27 -9 27 -4 0
-8 -3 -7 -7z"/>
<path d="M1 321 c-1 -23 0 -23 62 -16 34 4 67 8 74 8 7 0 10 4 7 8 -3 5 -23 7
-44 5 -22 -2 -38 0 -35 4 3 5 -8 5 -24 0 -21 -6 -31 -5 -35 3 -2 7 -5 1 -5
-12z"/>
<path d="M806 332 c-3 -6 -1 -14 5 -17 15 -10 25 3 12 16 -7 7 -13 7 -17 1z
m14 -7 c0 -3 -2 -5 -5 -5 -3 0 -5 2 -5 5 0 3 2 5 5 5 3 0 5 -2 5 -5z"/>
<path d="M895 330 c3 -5 8 -10 11 -10 3 0 2 5 -1 10 -3 6 -8 10 -11 10 -3 0
-2 -4 1 -10z"/>
<path d="M167 319 c7 -7 15 -10 18 -7 3 3 -2 9 -12 12 -14 6 -15 5 -6 -5z"/>
<path d="M200 320 c0 -7 3 -10 7 -7 3 4 3 10 0 14 -4 3 -7 0 -7 -7z"/>
<path d="M234 318 c-4 -7 -3 -8 4 -4 12 7 16 16 8 16 -3 0 -8 -5 -12 -12z"/>
<path d="M533 315 c0 -8 4 -15 9 -15 4 0 8 4 8 9 0 6 -4 12 -8 15 -5 3 -9 -1
-9 -9z"/>
<path d="M560 325 c0 -3 2 -5 5 -5 3 0 5 2 5 5 0 3 -2 5 -5 5 -3 0 -5 -2 -5
-5z"/>
<path d="M840 319 c0 -5 5 -7 10 -4 6 3 10 8 10 11 0 2 -4 4 -10 4 -5 0 -10
-5 -10 -11z"/>
<path d="M0 285 c0 -3 2 -5 5 -5 3 0 5 2 5 5 0 3 -2 5 -5 5 -3 0 -5 -2 -5 -5z"/>
<path d="M0 240 c0 -7 3 -10 7 -7 3 4 3 10 0 14 -4 3 -7 0 -7 -7z"/>
<path d="M640 240 c0 -7 3 -10 7 -7 3 4 3 10 0 14 -4 3 -7 0 -7 -7z"/>
<path d="M320 225 c0 -3 2 -5 5 -5 3 0 5 2 5 5 0 3 -2 5 -5 5 -3 0 -5 -2 -5
-5z"/>
<path d="M0 215 c0 -3 2 -5 5 -5 3 0 5 2 5 5 0 3 -2 5 -5 5 -3 0 -5 -2 -5 -5z"/>
<path d="M640 215 c0 -3 2 -5 5 -5 3 0 5 2 5 5 0 3 -2 5 -5 5 -3 0 -5 -2 -5
-5z"/>
<path d="M320 205 c0 -3 2 -5 5 -5 3 0 5 2 5 5 0 3 -2 5 -5 5 -3 0 -5 -2 -5
-5z"/>
<path d="M1 184 c0 -11 3 -14 6 -6 3 7 2 16 -1 19 -3 4 -6 -2 -5 -13z"/>
<path d="M641 184 c0 -11 3 -14 6 -6 3 7 2 16 -1 19 -3 4 -6 -2 -5 -13z"/>
<path d="M321 144 c0 -11 3 -14 6 -6 3 7 2 16 -1 19 -3 4 -6 -2 -5 -13z"/>
<path d="M634 117 c2 -14 1 -29 -4 -32 -5 -3 -6 -13 -3 -21 3 -9 0 -20 -7 -24
-28 -17 -19 -36 17 -37 22 0 30 2 22 7 -8 5 -13 30 -14 64 0 30 -4 59 -9 63
-4 4 -5 -5 -2 -20z m-4 -92 c0 -3 -2 -5 -5 -5 -3 0 -5 2 -5 5 0 3 2 5 5 5 3 0
5 -2 5 -5z"/>
<path d="M0 115 c0 -3 2 -5 5 -5 3 0 5 2 5 5 0 3 -2 5 -5 5 -3 0 -5 -2 -5 -5z"/>
<path d="M308 79 c-1 -19 -2 -41 -2 -51 0 -10 -6 -15 -18 -13 -9 2 -19 1 -22
-3 -2 -4 11 -8 29 -9 27 -1 33 1 28 14 -5 12 -3 14 8 8 11 -7 12 -6 3 6 -6 8
-11 27 -12 43 -3 42 -12 45 -14 5z"/>
<path d="M948 78 c-1 -18 -2 -40 -2 -50 0 -10 -6 -15 -18 -13 -9 2 -20 1 -22
-3 -2 -4 9 -8 25 -8 29 -2 29 -1 29 52 0 58 -9 75 -12 22z"/>
<path d="M0 95 c0 -3 2 -5 5 -5 3 0 5 2 5 5 0 3 -2 5 -5 5 -3 0 -5 -2 -5 -5z"/>
<path d="M0 70 c0 -7 3 -10 7 -7 3 4 3 10 0 14 -4 3 -7 0 -7 -7z"/>
<path d="M0 40 c0 -7 3 -10 7 -7 3 4 3 10 0 14 -4 3 -7 0 -7 -7z"/>
<path d="M540 33 c0 -5 5 -15 10 -23 7 -12 9 -10 7 8 -1 19 -17 33 -17 15z"/>
<path d="M7 9 c7 -7 15 -10 18 -7 3 3 -2 9 -12 12 -14 6 -15 5 -6 -5z"/>
<path d="M90 10 c0 -5 5 -10 11 -10 5 0 7 5 4 10 -3 6 -8 10 -11 10 -2 0 -4
-4 -4 -10z"/>
<path d="M385 10 c-16 -7 -17 -9 -3 -9 9 -1 20 4 23 9 7 11 7 11 -20 0z"/>
<path d="M486 12 c-3 -5 1 -9 9 -9 8 0 12 4 9 9 -3 4 -7 8 -9 8 -2 0 -6 -4 -9
-8z"/>
<path d="M575 10 c3 -5 8 -10 11 -10 3 0 2 5 -1 10 -3 6 -8 10 -11 10 -3 0 -2
-4 1 -10z"/>
<path d="M730 10 c0 -5 5 -10 11 -10 5 0 7 5 4 10 -3 6 -8 10 -11 10 -2 0 -4
-4 -4 -10z"/>
<path d="M43 3 c4 -3 10 -3 14 0 3 4 0 7 -7 7 -7 0 -10 -3 -7 -7z"/>
<path d="M133 3 c9 -2 25 -2 35 0 9 3 1 5 -18 5 -19 0 -27 -2 -17 -5z"/>
<path d="M210 5 c0 -3 2 -5 5 -5 3 0 5 2 5 5 0 3 -2 5 -5 5 -3 0 -5 -2 -5 -5z"/>
<path d="M240 5 c0 -3 2 -5 5 -5 3 0 5 2 5 5 0 3 -2 5 -5 5 -3 0 -5 -2 -5 -5z"/>
<path d="M343 3 c4 -3 10 -3 14 0 3 4 0 7 -7 7 -7 0 -10 -3 -7 -7z"/>
<path d="M453 3 c4 -3 10 -3 14 0 3 4 0 7 -7 7 -7 0 -10 -3 -7 -7z"/>
<path d="M523 3 c4 -3 10 -3 14 0 3 4 0 7 -7 7 -7 0 -10 -3 -7 -7z"/>
<path d="M683 3 c4 -3 10 -3 14 0 3 4 0 7 -7 7 -7 0 -10 -3 -7 -7z"/>
<path d="M773 3 c9 -2 25 -2 35 0 9 3 1 5 -18 5 -19 0 -27 -2 -17 -5z"/>
<path d="M850 5 c0 -3 2 -5 5 -5 3 0 5 2 5 5 0 3 -2 5 -5 5 -3 0 -5 -2 -5 -5z"/>
<path d="M880 5 c0 -3 2 -5 5 -5 3 0 5 2 5 5 0 3 -2 5 -5 5 -3 0 -5 -2 -5 -5z"/>
</g>
  </g>
</svg>
