<?xml version="1.0" encoding="UTF-8" standalone="no"?>
<!-- Created with Inkscape (http://www.inkscape.org/) -->

<svg
   xmlns:dc="http://purl.org/dc/elements/1.1/"
   xmlns:cc="http://creativecommons.org/ns#"
   xmlns:rdf="http://www.w3.org/1999/02/22-rdf-syntax-ns#"
   xmlns:svg="http://www.w3.org/2000/svg"
   xmlns="http://www.w3.org/2000/svg"
   xmlns:sodipodi="http://sodipodi.sourceforge.net/DTD/sodipodi-0.dtd"
   xmlns:inkscape="http://www.inkscape.org/namespaces/inkscape"
   width="32px"
   height="32px"
   viewBox="0 0 32px 32px"
   version="1.1"
   id="svgMain"
   inkscape:version="0.92.2 (5c3e80d, 2017-08-06)"
   sodipodi:docname="reference_SVG.svg">
  <defs
     id="defs4542" />
  <sodipodi:namedview
     id="base"
     pagecolor="#ffffff"
     bordercolor="#666666"
     borderopacity="1.0"
     inkscape:pageopacity="0.0"
     inkscape:pageshadow="2"
     inkscape:zoom="1"
     inkscape:cx="0"
     inkscape:cy="0"
     inkscape:document-units="px"
     inkscape:current-layer="layer1"
     showgrid="false"
     units="px"
     inkscape:window-width="1024"
     inkscape:window-height="768"
     inkscape:window-x="-8"
     inkscape:window-y="-8"
     inkscape:window-maximized="1" />
  <metadata
     id="metadata1">
    <rdf:RDF>
      <cc:Work
         rdf:about="">
        <dc:format>image/svg+xml</dc:format>
        <dc:type
           rdf:resource="http://purl.org/dc/dcmitype/StillImage" />
        <dc:title />
      </cc:Work>
    </rdf:RDF>
  </metadata>
  <g transform="translate(-32,-32)"
     inkscape:label="Layer 1"
     inkscape:groupmode="layer"
     id="layer1">
    <!-- INSERT MARKER -->
<g transform="translate(0.000000,96.000000) scale(0.100000,-0.100000)"
fill="#946b4a" stroke="none">
<path d="M0 480 l0 -480 480 0 480 0 0 480 0 480 -480 0 -480 0 0 -480z"/>
</g>
<g transform="translate(0.000000,96.000000) scale(0.100000,-0.100000)"
fill="#805b3e" stroke="none">
<path d="M1 933 c0 -16 4 -37 8 -48 5 -11 5 -25 1 -30 -9 -11 16 -52 26 -43 3
4 1 22 -4 42 -8 29 -8 36 3 36 18 0 28 -17 16 -25 -6 -3 -6 -16 1 -35 8 -25
13 -28 29 -20 25 14 24 -1 -1 -23 -25 -21 -30 -21 -30 -2 0 8 -7 15 -15 15
-17 0 -21 -25 -5 -35 5 -3 7 -12 4 -20 -4 -8 -10 -12 -15 -9 -5 3 -7 10 -4 15
4 5 1 17 -4 26 -9 16 -10 15 -11 -7 0 -15 5 -31 11 -37 8 -8 8 -13 0 -17 -17
-11 -13 -26 4 -20 8 4 15 12 15 20 0 8 5 13 12 11 7 -1 12 5 13 13 0 9 11 16
27 18 23 3 27 0 22 -15 -5 -15 -4 -15 5 -3 10 15 55 24 46 9 -3 -4 1 -10 7
-13 10 -5 10 -7 0 -12 -10 -5 -10 -9 0 -22 7 -10 9 -14 4 -10 -5 4 -17 3 -27
-3 -15 -7 -21 -6 -25 6 -3 8 -10 15 -16 15 -5 0 -6 -6 -3 -12 4 -7 1 -6 -7 3
-15 18 -38 14 -38 -7 0 -8 -3 -13 -7 -11 -5 1 -8 -1 -8 -4 0 -4 -8 -16 -19
-28 -15 -16 -17 -29 -12 -58 4 -21 8 -50 10 -65 3 -35 14 -47 26 -28 8 12 10
12 16 -3 3 -9 10 -14 15 -11 5 3 15 2 21 -2 9 -6 5 -10 -11 -14 l-24 -5 24
-22 c13 -12 35 -31 49 -42 14 -11 22 -23 18 -27 -4 -4 -15 -1 -24 7 -13 10
-18 11 -21 2 -2 -7 -11 -9 -19 -6 -7 3 -11 9 -8 14 3 5 -2 6 -10 3 -9 -3 -16
-13 -16 -21 0 -8 -4 -12 -9 -9 -4 3 -17 -1 -27 -9 -18 -15 -18 -15 1 -8 19 6
19 6 3 -14 -20 -22 -23 -50 -8 -87 6 -17 6 -27 -1 -32 -7 -4 -6 -10 1 -19 8
-10 8 -19 0 -36 -7 -12 -8 -19 -2 -15 11 7 26 -22 23 -44 -2 -8 -9 -19 -17
-23 -8 -4 -14 -13 -14 -19 0 -6 9 -3 19 6 19 17 20 17 31 -3 6 -12 15 -19 19
-16 5 2 11 -4 14 -15 3 -11 9 -20 14 -19 4 1 16 -1 26 -6 11 -5 24 -2 36 9 19
17 36 22 27 7 -4 -5 4 -7 16 -4 19 4 20 3 8 -6 -12 -9 -11 -11 8 -11 12 0 22
4 22 8 0 15 -22 30 -36 25 -8 -3 -14 -1 -14 5 0 21 25 18 46 -6 28 -29 79 -40
87 -17 4 8 12 15 18 15 8 0 8 -4 -1 -15 -20 -24 -2 -17 28 10 l26 25 12 -22
c18 -33 61 -31 95 4 l28 30 25 -26 c17 -19 26 -23 29 -14 4 9 6 9 6 -2 1 -20
47 -24 55 -5 3 8 11 15 17 15 8 0 7 -5 -2 -17 -13 -15 -12 -15 9 -4 12 6 22
15 22 20 0 17 -14 20 -34 8 -12 -7 -25 -12 -31 -12 -26 2 -54 17 -59 31 -3 8
-2 12 3 9 5 -3 13 -1 16 5 4 6 16 10 28 8 16 -2 22 2 21 15 -2 14 1 15 12 6
11 -9 14 -7 14 10 0 18 -4 21 -20 16 -11 -4 -20 -2 -20 4 0 6 3 10 8 10 21 -4
23 3 8 26 -9 14 -14 31 -10 37 4 7 3 8 -4 4 -7 -4 -12 -2 -12 4 0 6 7 13 16
17 8 3 13 12 10 19 -3 8 -2 14 3 14 13 0 21 -39 10 -46 -6 -3 -6 -11 1 -19 7
-8 9 -19 5 -24 -3 -6 0 -21 7 -33 14 -27 12 -50 -8 -61 -8 -4 -14 -13 -14 -19
0 -6 9 -3 19 6 19 17 20 17 31 -3 6 -12 15 -19 19 -16 5 2 11 -4 14 -15 3 -11
9 -20 14 -19 4 1 16 -1 26 -6 11 -5 24 -2 36 9 19 17 36 22 27 7 -4 -5 4 -7
16 -4 19 4 20 3 8 -6 -12 -9 -11 -11 8 -11 12 0 22 4 22 8 0 15 -22 30 -36 25
-8 -3 -14 -1 -14 5 0 21 25 18 46 -6 24 -25 84 -41 84 -23 0 10 -15 14 -45 14
-6 0 -12 9 -13 21 0 12 -4 32 -7 44 -4 17 -2 22 7 17 7 -4 4 1 -7 10 -14 12
-16 19 -7 22 6 3 12 9 12 14 0 6 -5 7 -12 3 -7 -4 -8 -3 -4 5 17 27 50 -32 34
-62 -7 -14 -4 -17 15 -17 21 0 24 5 25 39 1 31 -2 40 -18 44 -11 3 -20 11 -20
17 0 9 4 9 13 2 9 -8 12 -4 14 15 1 19 -1 22 -8 12 -6 -10 -9 -11 -9 -1 0 7 6
15 14 18 16 6 17 119 1 119 -24 2 -54 17 -59 31 -3 8 -2 12 3 9 5 -3 13 -1 16
5 4 6 16 10 28 8 17 -2 22 2 23 20 1 12 -3 22 -7 22 -5 0 -9 5 -9 11 0 5 5 7
10 4 6 -3 10 3 10 14 0 11 -5 23 -11 26 -6 4 -8 14 -5 22 3 8 1 11 -4 8 -6 -3
-10 -1 -10 5 0 6 6 13 14 16 16 6 17 119 1 119 -24 2 -54 17 -59 31 -3 8 -2
12 3 9 5 -3 13 -1 16 5 4 6 16 10 28 8 17 -2 22 2 23 20 1 12 -3 22 -7 22 -5
0 -9 5 -9 11 0 5 4 7 10 4 6 -3 10 3 10 14 0 11 -5 23 -11 26 -6 4 -8 14 -5
22 3 8 1 11 -4 8 -6 -3 -10 -1 -10 5 0 6 6 13 13 16 8 3 14 23 15 49 l2 45
-480 0 -480 0 1 -27z m159 -38 c0 -8 -4 -15 -10 -15 -5 0 -7 7 -4 15 4 8 8 15
10 15 2 0 4 -7 4 -15z m316 -12 c-10 -10 -19 5 -10 18 6 11 8 11 12 0 2 -7 1
-15 -2 -18z m324 12 c0 -8 -4 -15 -10 -15 -5 0 -7 7 -4 15 4 8 8 15 10 15 2 0
4 -7 4 -15z m-680 0 c0 -3 -2 -5 -5 -5 -3 0 -5 2 -5 5 0 3 2 5 5 5 3 0 5 -2 5
-5z m155 -4 c3 -5 1 -12 -5 -16 -5 -3 -10 1 -10 9 0 18 6 21 15 7z m58 -11 c3
-11 1 -23 -4 -26 -6 -3 -6 -11 1 -19 7 -8 9 -19 5 -24 -3 -6 0 -21 7 -33 17
-31 12 -45 -25 -81 -34 -32 -17 -27 20 5 21 20 21 20 33 -1 6 -12 15 -19 19
-16 5 2 11 -5 14 -16 3 -12 10 -18 16 -15 5 4 13 1 16 -5 9 -14 -107 -10 -117
5 -4 6 -11 11 -15 11 -23 2 -52 18 -57 31 -3 8 -2 12 3 9 5 -3 13 -1 16 5 4 6
16 10 28 8 16 -2 22 2 21 15 -2 14 1 15 12 6 11 -9 14 -7 14 10 0 17 -4 21
-19 16 -11 -3 -23 0 -27 6 -5 8 -2 10 8 6 24 -9 30 4 13 30 -9 13 -13 29 -9
35 4 7 3 8 -4 4 -7 -4 -12 -2 -12 4 0 6 7 13 16 17 8 3 13 12 10 19 -3 8 -2
14 3 14 5 0 11 -9 14 -20z m75 -38 c15 -50 15 -52 -3 -52 -20 0 -19 -17 3 -35
9 -7 28 -23 42 -34 21 -17 22 -22 11 -30 -10 -7 -19 -4 -29 7 -7 9 -11 12 -7
5 4 -9 -1 -10 -25 -2 -39 14 -46 26 -25 49 13 14 13 19 3 23 -9 4 -6 12 11 27
l24 21 -31 11 c-19 7 -32 20 -35 35 -2 12 0 20 4 17 5 -3 9 0 9 6 0 26 37 -11
48 -48z m152 53 c0 -3 -2 -5 -5 -5 -3 0 -5 2 -5 5 0 3 2 5 5 5 3 0 5 -2 5 -5z
m27 -17 c-3 -8 -6 -5 -6 6 -1 11 2 17 5 13 3 -3 4 -12 1 -19z m66 2 c3 -11 1
-23 -5 -26 -6 -4 -6 -10 1 -17 14 -14 14 -30 1 -22 -16 10 -12 -4 10 -35 l20
-28 -21 -26 c-12 -15 -19 -29 -17 -32 9 -9 53 38 50 53 -3 12 2 14 18 10 12
-3 33 -2 46 3 16 6 24 6 24 -1 0 -6 4 -8 8 -5 4 2 9 -4 9 -15 2 -21 -13 -26
-20 -6 -4 9 -6 9 -6 0 -1 -7 8 -17 19 -23 11 -6 20 -16 20 -23 0 -8 -3 -8 -9
2 -6 9 -11 10 -15 2 -10 -15 -36 -14 -36 2 0 20 -52 14 -85 -10 -38 -27 -81
-26 -83 2 0 11 -4 31 -7 43 -4 17 -2 22 7 17 7 -4 4 1 -7 10 -14 12 -16 19 -7
22 6 3 12 9 12 14 0 6 -5 7 -12 3 -7 -4 -8 -3 -4 5 17 27 50 -32 34 -61 -7
-15 -4 -18 18 -18 20 0 25 4 20 16 -5 14 -4 15 9 4 12 -10 15 -10 15 3 0 29
-13 48 -36 58 -13 4 -24 14 -24 20 0 8 4 8 13 1 9 -8 12 -4 14 15 1 19 -1 22
-8 12 -6 -10 -9 -11 -9 -1 0 7 7 15 16 19 8 3 13 12 10 19 -3 8 -2 14 3 14 5
0 11 -9 14 -20z m53 7 c8 3 14 -1 14 -10 0 -9 3 -22 6 -31 4 -10 1 -16 -9 -16
-8 0 -17 7 -21 15 -3 8 -1 15 4 15 6 0 10 5 10 11 0 8 -5 8 -15 -1 -8 -7 -12
-16 -9 -21 3 -5 0 -9 -6 -9 -5 0 -9 13 -8 30 1 18 6 26 11 21 5 -5 16 -7 23
-4z m54 8 c0 -3 -2 -5 -5 -5 -3 0 -5 2 -5 5 0 3 2 5 5 5 3 0 5 -2 5 -5z m147
-17 c-3 -8 -6 -5 -6 6 -1 11 2 17 5 13 3 -3 4 -12 1 -19z m-397 7 c0 -3 -2 -5
-5 -5 -3 0 -5 2 -5 5 0 3 2 5 5 5 3 0 5 -2 5 -5z m320 0 c0 -3 -2 -5 -5 -5 -3
0 -5 2 -5 5 0 3 2 5 5 5 3 0 5 -2 5 -5z m50 0 c0 -3 -2 -5 -5 -5 -3 0 -5 2 -5
5 0 3 2 5 5 5 3 0 5 -2 5 -5z m-780 -35 c8 12 40 24 40 14 0 -2 -14 -13 -32
-24 -29 -18 -32 -18 -44 -2 -9 13 -9 20 -1 30 9 11 13 9 19 -9 7 -19 11 -21
18 -9z m657 -2 c-15 -9 -19 -4 -11 16 5 14 9 15 15 5 5 -8 3 -17 -4 -21z
m-565 -10 c-19 -19 -14 -33 6 -15 25 23 46 22 37 0 -4 -10 -8 -23 -8 -30 0 -9
-6 -9 -20 -1 -15 8 -18 7 -12 -2 5 -7 -6 -5 -24 6 -38 22 -39 32 -6 40 14 3
25 11 25 17 0 6 3 7 7 4 4 -4 1 -13 -5 -19z m111 -42 c-3 -5 -10 0 -16 10 -6
11 -13 21 -16 24 -3 3 -7 12 -9 20 -2 8 8 2 22 -15 13 -16 22 -34 19 -39z
m142 54 c-3 -5 -10 -10 -16 -10 -5 0 -9 5 -9 10 0 6 7 10 16 10 8 0 12 -4 9
-10z m100 -4 c16 6 17 4 11 -17 -4 -13 -8 -29 -8 -36 -1 -8 -7 -9 -17 -4 -9 5
-21 7 -27 4 -14 -5 -48 33 -40 45 3 6 15 8 26 5 13 -3 20 0 20 8 0 11 2 11 8
1 5 -8 16 -10 27 -6z m49 5 c3 -5 -2 -15 -12 -22 -15 -12 -16 -12 -5 2 7 9 10
19 6 22 -3 4 -4 7 0 7 3 0 8 -4 11 -9z m269 -14 c14 -5 16 -11 8 -26 -6 -10
-8 -20 -6 -23 2 -2 -5 -4 -16 -5 -12 -1 -17 3 -13 9 5 7 2 8 -5 4 -16 -10 -51
22 -44 39 6 17 33 8 33 -12 0 -8 5 -11 10 -8 6 4 8 16 5 28 -4 12 -3 17 2 11
4 -6 16 -13 26 -17z m17 18 c0 -3 -2 -5 -5 -5 -3 0 -5 2 -5 5 0 3 2 5 5 5 3 0
5 -2 5 -5z m48 -25 c13 -16 18 -30 13 -30 -6 0 -14 7 -18 15 -7 12 -10 11 -21
-5 -10 -17 -10 -20 4 -20 12 0 15 -7 11 -26 -3 -20 -1 -24 12 -20 12 5 11 2
-3 -8 -16 -13 -20 -13 -33 -1 -14 15 -13 43 4 85 8 18 7 27 -1 32 -7 5 -7 8 0
8 5 0 20 -13 32 -30z m-548 -21 c0 -5 -10 -9 -21 -9 -18 0 -19 2 -9 15 12 15
30 12 30 -6z m350 6 c6 3 10 -1 10 -9 0 -9 -9 -16 -21 -16 -13 0 -18 -4 -13
-12 4 -7 3 -8 -5 -4 -6 4 -9 12 -6 17 4 5 -1 9 -9 9 -9 0 -16 4 -16 8 0 17 13
21 32 11 10 -5 23 -7 28 -4z m-603 -12 c0 -10 -5 -21 -11 -25 -22 -15 -26 -8
-10 17 19 30 21 30 21 8z m133 2 c-10 -12 -10 -15 4 -15 17 0 20 -22 7 -54 -5
-14 -10 -16 -15 -8 -4 7 -4 17 -1 22 3 6 1 10 -4 10 -6 0 -10 8 -8 18 3 20 16
42 24 42 3 0 0 -7 -7 -15z m187 -4 c1 -11 -6 -21 -17 -24 -18 -5 -18 -3 -3 19
18 29 18 29 20 5z m318 2 c-2 -10 -4 -22 -4 -26 -1 -5 -6 -5 -11 -2 -7 4 -7
13 0 26 13 24 19 24 15 2z m-225 -65 c0 -26 -2 -28 -20 -18 -11 6 -20 18 -20
26 0 8 5 12 10 9 6 -3 10 1 10 10 0 10 -5 13 -12 9 -7 -4 -8 -3 -4 5 12 20 36
-7 36 -41z m-50 37 c0 -3 -2 -5 -5 -5 -3 0 -5 2 -5 5 0 3 2 5 5 5 3 0 5 -2 5
-5z m137 -12 c-4 -3 -7 0 -7 7 0 7 3 10 7 7 3 -4 3 -10 0 -14z m183 12 c0 -3
-2 -5 -5 -5 -3 0 -5 2 -5 5 0 3 2 5 5 5 3 0 5 -2 5 -5z m36 -8 c11 4 14 -2 12
-26 -2 -22 -6 -30 -16 -26 -7 3 -17 5 -21 5 -4 0 -5 15 -3 33 3 17 7 27 9 20
2 -7 11 -9 19 -6z m-628 -27 c-1 -16 -3 -30 -4 -30 -30 0 -47 43 -21 53 24 10
27 7 25 -23z m258 0 c0 -11 -4 -20 -8 -20 -4 0 -8 5 -8 10 0 6 -7 10 -16 10
-8 0 -12 5 -9 10 11 18 41 11 41 -10z m-176 6 c0 -3 -5 -8 -12 -12 -7 -4 -8
-3 -4 4 7 12 16 16 16 8z m-250 -11 c0 -3 -2 -5 -5 -5 -3 0 -5 2 -5 5 0 3 2 5
5 5 3 0 5 -2 5 -5z m520 -30 c0 -3 -2 -5 -5 -5 -3 0 -5 2 -5 5 0 3 2 5 5 5 3
0 5 -2 5 -5z m-486 -30 c4 -14 11 -23 16 -20 6 3 10 1 10 -4 0 -6 -16 -11 -35
-11 -38 0 -44 10 -20 33 8 8 11 17 8 21 -4 3 -2 6 4 6 6 0 14 -11 17 -25z
m146 5 c12 -12 26 -18 32 -14 6 4 8 3 4 -4 -3 -6 2 -13 11 -15 12 -3 9 -5 -8
-6 -16 -1 -29 5 -33 14 -6 18 -37 20 -33 3 1 -7 -8 -14 -20 -16 -13 -2 -23 0
-23 4 0 7 40 52 48 53 1 1 11 -8 22 -19z m260 15 c0 -3 -2 -5 -5 -5 -3 0 -5 2
-5 5 0 3 2 5 5 5 3 0 5 -2 5 -5z m87 -54 c-5 -2 -15 6 -23 17 -8 12 -21 19
-29 16 -8 -4 -15 -2 -15 4 0 6 5 12 12 14 13 5 69 -45 55 -51z m293 39 c12
-12 26 -18 32 -14 6 4 8 3 4 -4 -3 -6 2 -13 11 -15 12 -3 10 -5 -7 -6 -15 -1
-32 7 -40 19 -18 25 -28 26 -26 3 0 -12 -7 -19 -21 -21 -13 -2 -23 0 -23 4 0
6 39 49 48 53 1 1 11 -8 22 -19z m-145 -11 c3 -10 14 -20 23 -22 12 -3 11 -5
-5 -6 -13 0 -23 5 -23 12 0 9 -2 9 -8 -1 -10 -14 -74 -13 -69 2 2 5 9 12 17
14 7 3 10 0 6 -7 -4 -7 -1 -9 8 -5 8 3 12 12 10 19 -4 9 1 13 15 12 12 -1 23
-9 26 -18z m-268 -16 c-4 -3 -7 0 -7 7 0 7 3 10 7 7 3 -4 3 -10 0 -14z m76 7
c23 0 -18 -20 -42 -20 -20 0 -22 2 -11 15 7 9 20 13 27 10 8 -3 20 -5 26 -5z
m244 -12 c-3 -8 -6 -5 -6 6 -1 11 2 17 5 13 3 -3 4 -12 1 -19z m-647 -3 c0 -3
-2 -5 -5 -5 -3 0 -5 2 -5 5 0 3 2 5 5 5 3 0 5 -2 5 -5z m480 0 c0 -3 -2 -5 -5
-5 -3 0 -5 2 -5 5 0 3 2 5 5 5 3 0 5 -2 5 -5z m-134 -82 c-10 -10 -19 5 -10
18 6 11 8 11 12 0 2 -7 1 -15 -2 -18z m324 12 c0 -8 -4 -15 -10 -15 -5 0 -7 7
-4 15 4 8 8 15 10 15 2 0 4 -7 4 -15z m-745 -22 c-4 -13 -3 -13 9 -4 11 9 15
6 20 -15 8 -32 -1 -45 -17 -23 -7 9 -17 14 -23 12 -6 -2 -14 7 -16 21 -3 14
-1 23 3 20 5 -3 9 0 9 6 0 6 5 8 11 5 6 -4 8 -14 4 -22z m65 22 c0 -3 -2 -5
-5 -5 -3 0 -5 2 -5 5 0 3 2 5 5 5 3 0 5 -2 5 -5z m40 -5 c0 -5 -4 -10 -10 -10
-5 0 -10 5 -10 10 0 6 5 10 10 10 6 0 10 -4 10 -10z m107 -12 c-3 -8 -6 -5 -6
6 -1 11 2 17 5 13 3 -3 4 -12 1 -19z m66 2 c3 -11 1 -23 -4 -26 -6 -3 -6 -11
1 -19 7 -8 9 -19 5 -24 -3 -6 0 -21 7 -33 14 -27 12 -50 -8 -61 -8 -4 -14 -13
-14 -19 0 -6 9 -3 19 6 19 17 20 17 31 -3 6 -12 15 -19 19 -16 5 2 11 -5 14
-16 3 -12 10 -18 16 -15 5 4 13 2 16 -4 5 -8 -13 -10 -54 -9 -58 2 -79 14 -72
42 1 5 -3 6 -9 2 -6 -3 -8 -11 -5 -16 11 -16 -3 -10 -30 15 -16 15 -21 26 -14
28 9 3 8 9 -1 25 -7 11 -10 28 -7 37 8 21 37 21 37 0 0 -14 2 -15 17 -3 9 8
19 13 22 13 9 -3 1 20 -11 31 -8 7 -9 6 -4 -2 9 -16 -10 -17 -20 -1 -4 6 -2
14 4 16 6 2 8 10 5 18 -3 7 2 17 12 20 9 4 14 13 11 20 -3 8 -2 14 3 14 5 0
11 -9 14 -20z m75 -38 c15 -50 15 -52 -3 -52 -20 0 -19 -17 3 -35 9 -7 28 -23
42 -34 21 -17 22 -22 11 -30 -10 -7 -19 -4 -29 7 -7 9 -11 12 -7 5 4 -9 -1
-10 -25 -2 -39 14 -46 26 -25 49 13 14 13 19 3 23 -9 4 -6 12 11 27 l24 21
-31 11 c-19 7 -32 20 -35 35 -2 12 0 20 4 17 5 -3 9 0 9 6 0 26 37 -11 48 -48z
m152 53 c0 -3 -2 -5 -5 -5 -3 0 -5 2 -5 5 0 3 2 5 5 5 3 0 5 -2 5 -5z m27 -17
c-3 -8 -6 -5 -6 6 -1 11 2 17 5 13 3 -3 4 -12 1 -19z m66 2 c3 -11 1 -23 -5
-26 -6 -4 -6 -10 1 -17 14 -14 14 -30 1 -22 -5 3 -10 2 -10 -4 0 -5 8 -15 18
-20 9 -6 13 -11 8 -11 -5 0 -3 -6 3 -14 8 -10 6 -20 -10 -40 -28 -36 -19 -42
17 -11 16 14 25 25 20 25 -5 0 -3 7 4 15 9 11 15 12 20 5 5 -7 15 -8 33 -1 19
7 27 7 27 0 0 -6 4 -8 8 -5 4 2 9 -4 9 -15 2 -21 -13 -26 -20 -6 -3 6 -4 2 -4
-10 1 -12 5 -19 10 -16 5 3 8 0 5 -8 -3 -8 -13 -16 -23 -18 -14 -2 -17 2 -12
20 5 20 4 21 -6 7 -9 -14 -12 -14 -22 -2 -9 12 -16 10 -50 -15 -47 -34 -90
-37 -93 -6 0 11 -4 31 -7 43 -4 17 -2 22 7 17 7 -4 4 1 -7 10 -14 12 -16 19
-7 22 6 3 12 9 12 14 0 6 -5 7 -12 3 -7 -4 -8 -3 -4 5 17 27 50 -32 34 -61 -7
-15 -4 -18 18 -18 19 0 25 4 20 15 -3 8 0 14 6 12 6 -1 13 4 15 11 3 6 0 12
-7 12 -6 0 -8 5 -5 10 3 6 -5 14 -19 20 -14 5 -26 15 -26 21 0 8 4 8 13 1 9
-8 12 -4 14 15 1 19 -1 22 -8 12 -6 -10 -9 -11 -9 -1 0 7 7 15 16 19 8 3 13
12 10 19 -3 8 -2 14 3 14 5 0 11 -9 14 -20z m35 -17 c-8 -11 -7 -12 6 -7 10 4
15 13 12 20 -3 8 -2 14 3 14 7 0 23 -51 18 -57 -1 -1 -14 1 -29 4 -17 3 -28
13 -31 29 -2 13 0 21 4 18 5 -3 9 1 9 8 0 10 3 9 10 -2 5 -9 5 -19 -2 -27z
m72 32 c0 -3 -2 -5 -5 -5 -3 0 -5 2 -5 5 0 3 2 5 5 5 3 0 5 -2 5 -5z m147 -17
c-3 -8 -6 -5 -6 6 -1 11 2 17 5 13 3 -3 4 -12 1 -19z m-717 7 c0 -3 -2 -5 -5
-5 -3 0 -5 2 -5 5 0 3 2 5 5 5 3 0 5 -2 5 -5z m50 0 c0 -3 -2 -5 -5 -5 -3 0
-5 2 -5 5 0 3 2 5 5 5 3 0 5 -2 5 -5z m270 0 c0 -3 -2 -5 -5 -5 -3 0 -5 2 -5
5 0 3 2 5 5 5 3 0 5 -2 5 -5z m320 0 c0 -3 -2 -5 -5 -5 -3 0 -5 2 -5 5 0 3 2
5 5 5 3 0 5 -2 5 -5z m50 0 c0 -3 -2 -5 -5 -5 -3 0 -5 2 -5 5 0 3 2 5 5 5 3 0
5 -2 5 -5z m-760 -10 c0 -3 -2 -5 -5 -5 -3 0 -5 2 -5 5 0 3 2 5 5 5 3 0 5 -2
5 -5z m8 -21 c-10 -10 -21 -13 -29 -8 -12 7 0 14 41 23 2 1 -3 -6 -12 -15z
m642 7 c0 -13 -28 -22 -35 -11 -3 4 1 11 7 13 20 8 28 8 28 -2z m-539 -26 c5
4 9 -1 9 -10 0 -12 5 -15 16 -11 14 5 15 4 4 -9 -7 -8 -16 -12 -21 -9 -5 3
-18 -2 -30 -10 -20 -13 -23 -12 -44 12 -19 22 -26 25 -36 15 -11 -11 -10 -13
1 -13 9 0 6 -6 -8 -16 -33 -23 -35 -14 -6 24 27 34 64 43 64 16 0 -8 5 -12 10
-9 6 4 8 16 4 28 -6 20 -6 20 10 4 10 -9 22 -15 27 -12z m47 7 c2 -7 -1 -12
-8 -12 -6 0 -9 4 -6 9 4 5 1 12 -4 14 -6 3 -5 4 2 3 6 -1 14 -8 16 -14z m167
8 c-3 -5 -10 -10 -16 -10 -5 0 -9 5 -9 10 0 6 7 10 16 10 8 0 12 -4 9 -10z
m100 -4 c16 6 17 4 11 -17 -4 -13 -8 -29 -8 -36 -1 -8 -7 -9 -17 -4 -9 5 -21
7 -27 4 -14 -5 -48 33 -40 45 3 6 15 8 26 5 13 -3 20 0 20 8 0 11 2 11 8 1 5
-8 16 -10 27 -6z m49 5 c3 -5 -2 -15 -12 -22 -15 -12 -16 -12 -5 2 7 9 10 19
6 22 -3 4 -4 7 0 7 3 0 8 -4 11 -9z m270 -14 c16 -6 17 -10 4 -30 -8 -12 -13
-39 -12 -60 2 -30 -1 -37 -13 -33 -8 3 -18 6 -22 6 -4 0 -5 14 -3 31 3 22 7
27 13 18 6 -10 8 -7 6 8 0 12 -5 19 -10 16 -13 -8 -46 27 -40 42 6 17 33 8 33
-12 0 -8 5 -11 10 -8 6 4 8 16 5 28 -4 12 -3 17 2 11 4 -6 16 -14 27 -17z m16
18 c0 -3 -2 -5 -5 -5 -3 0 -5 2 -5 5 0 3 2 5 5 5 3 0 5 -2 5 -5z m48 -25 c13
-16 18 -30 13 -30 -6 0 -14 7 -18 15 -7 12 -10 11 -21 -5 -10 -16 -10 -20 0
-20 7 0 18 -11 25 -25 9 -21 8 -27 -5 -34 -10 -6 -20 -4 -29 5 -14 14 -13 42
4 84 8 18 7 27 -1 32 -7 5 -7 8 0 8 5 0 20 -13 32 -30z m-548 -21 c0 -5 -10
-9 -21 -9 -18 0 -19 2 -9 15 12 15 30 12 30 -6z m343 2 c13 8 17 6 17 -6 0 -8
-9 -15 -19 -15 -11 0 -21 -3 -24 -7 -2 -5 -2 -2 -1 5 2 6 -3 12 -11 12 -16 0
-20 12 -8 24 4 4 12 1 18 -8 8 -10 16 -11 28 -5z m-276 -10 c1 -11 -6 -21 -17
-24 -18 -5 -18 -3 -3 19 18 29 18 29 20 5z m318 2 c-2 -10 -4 -21 -4 -25 -1
-5 -8 -8 -16 -8 -14 0 -13 3 1 25 19 30 23 31 19 8z m-535 -18 c0 -3 -2 -5 -5
-5 -3 0 -5 2 -5 5 0 3 2 5 5 5 3 0 5 -2 5 -5z m310 -47 c0 -26 -2 -28 -20 -18
-11 6 -20 18 -20 26 0 8 5 12 10 9 6 -3 10 1 10 10 0 10 -5 13 -12 9 -7 -4 -8
-3 -4 5 12 20 36 -7 36 -41z m330 47 c0 -3 -2 -5 -5 -5 -3 0 -5 2 -5 5 0 3 2
5 5 5 3 0 5 -2 5 -5z m-700 -10 c0 -3 -2 -5 -5 -5 -3 0 -5 2 -5 5 0 3 2 5 5 5
3 0 5 -2 5 -5z m320 0 c0 -3 -2 -5 -5 -5 -3 0 -5 2 -5 5 0 3 2 5 5 5 3 0 5 -2
5 -5z m137 -12 c-4 -3 -7 0 -7 7 0 7 3 10 7 7 3 -4 3 -10 0 -14z m183 12 c0
-3 -2 -5 -5 -5 -3 0 -5 2 -5 5 0 3 2 5 5 5 3 0 5 -2 5 -5z m-592 -35 c-3 -33
-10 -37 -28 -15 -15 18 -6 45 15 45 11 0 15 -9 13 -30z m-63 10 c-7 -12 -45
-14 -45 -2 0 4 11 9 26 10 14 1 23 -2 19 -8z m321 -10 c0 -11 -4 -20 -8 -20
-4 0 -8 5 -8 10 0 6 -7 10 -16 10 -8 0 -12 5 -9 10 11 18 41 11 41 -10z m-306
-8 c0 -13 -12 -22 -22 -16 -10 6 -1 24 13 24 5 0 9 -4 9 -8z m400 -27 c0 -3
-2 -5 -5 -5 -3 0 -5 2 -5 5 0 3 2 5 5 5 3 0 5 -2 5 -5z m150 0 c0 -3 -2 -5 -5
-5 -3 0 -5 2 -5 5 0 3 2 5 5 5 3 0 5 -2 5 -5z m-640 -31 c6 -14 14 -23 19 -19
5 3 12 2 15 -3 2 -4 -13 -8 -35 -9 -44 -2 -43 -3 -27 32 14 31 16 31 28 -1z
m37 9 c-4 -3 -7 0 -7 7 0 7 3 10 7 7 3 -4 3 -10 0 -14z m53 12 c0 -3 -2 -5 -5
-5 -3 0 -5 2 -5 5 0 3 2 5 5 5 3 0 5 -2 5 -5z m55 -4 c-5 -10 28 -34 36 -27 2
2 10 -2 16 -9 10 -11 8 -13 -10 -12 -12 1 -28 9 -35 19 -7 9 -18 15 -26 12 -7
-3 -13 2 -13 11 0 8 9 15 19 15 11 0 17 -4 13 -9z m265 4 c0 -3 -2 -5 -5 -5
-3 0 -5 2 -5 5 0 3 2 5 5 5 3 0 5 -2 5 -5z m87 -54 c-5 -2 -15 6 -23 17 -8 12
-21 19 -29 16 -8 -4 -15 -2 -15 4 0 6 5 12 12 14 13 5 69 -45 55 -51z m230 42
c-4 -3 -7 0 -7 7 0 7 3 10 7 7 3 -4 3 -10 0 -14z m68 -8 c16 -18 25 -22 28
-13 4 8 6 7 6 -4 1 -24 -21 -23 -37 2 -15 25 -30 26 -28 3 0 -12 -7 -19 -21
-21 -13 -2 -23 0 -23 4 0 7 40 52 48 53 2 1 14 -10 27 -24z m-175 11 c0 -3 -4
-8 -10 -11 -5 -3 -10 -1 -10 4 0 6 5 11 10 11 6 0 10 -2 10 -4z m34 -46 c-3
-2 -9 2 -14 10 -7 10 -10 11 -10 3 0 -7 -9 -13 -20 -13 -11 0 -20 5 -20 11 0
8 -6 7 -17 -2 -14 -12 -16 -12 -11 1 3 8 14 14 26 13 11 -1 26 5 33 13 11 14
14 13 25 -8 7 -13 10 -25 8 -28z m-536 23 c18 -4 20 -8 10 -14 -21 -14 -48
-10 -48 6 0 17 4 18 38 8z m259 -10 c-4 -3 -7 0 -7 7 0 7 3 10 7 7 3 -4 3 -10
0 -14z m76 7 c23 0 -18 -20 -42 -20 -20 0 -22 2 -11 15 7 9 20 13 27 10 8 -3
20 -5 26 -5z m247 5 c0 -3 -2 -5 -5 -5 -3 0 -5 2 -5 5 0 3 2 5 5 5 3 0 5 -2 5
-5z m-640 -10 c0 -3 -2 -5 -5 -5 -3 0 -5 2 -5 5 0 3 2 5 5 5 3 0 5 -2 5 -5z
m470 -10 c0 -3 -2 -5 -5 -5 -3 0 -5 2 -5 5 0 3 2 5 5 5 3 0 5 -2 5 -5z m150 0
c0 -3 -2 -5 -5 -5 -3 0 -5 2 -5 5 0 3 2 5 5 5 3 0 5 -2 5 -5z m20 0 c0 -3 -2
-5 -5 -5 -3 0 -5 2 -5 5 0 3 2 5 5 5 3 0 5 -2 5 -5z m150 0 c0 -3 -2 -5 -5 -5
-3 0 -5 2 -5 5 0 3 2 5 5 5 3 0 5 -2 5 -5z m-774 -82 c-10 -10 -19 5 -10 18 6
11 8 11 12 0 2 -7 1 -15 -2 -18z m324 12 c0 -8 -4 -15 -10 -15 -5 0 -7 7 -4
15 4 8 8 15 10 15 2 0 4 -7 4 -15z m316 -12 c-10 -10 -19 5 -10 18 6 11 8 11
12 0 2 -7 1 -15 -2 -18z m-708 -41 c15 -50 15 -52 -3 -52 -20 0 -19 -17 3 -35
9 -7 28 -23 42 -34 21 -17 22 -22 11 -30 -10 -7 -19 -4 -29 7 -7 9 -11 12 -7
5 4 -9 -1 -10 -25 -2 -39 14 -46 26 -25 49 13 14 13 19 3 23 -9 4 -6 12 11 27
l24 21 -31 11 c-19 7 -32 20 -35 35 -2 12 0 20 4 17 5 -3 9 0 9 6 0 26 37 -11
48 -48z m152 53 c0 -3 -2 -5 -5 -5 -3 0 -5 2 -5 5 0 3 2 5 5 5 3 0 5 -2 5 -5z
m27 -17 c-3 -8 -6 -5 -6 6 -1 11 2 17 5 13 3 -3 4 -12 1 -19z m66 2 c3 -11 1
-23 -5 -26 -6 -4 -6 -10 1 -17 14 -14 14 -30 1 -22 -5 3 -10 2 -10 -4 0 -5 8
-15 18 -20 9 -6 13 -11 8 -11 -5 0 -3 -6 3 -14 8 -10 6 -20 -10 -40 -28 -36
-19 -42 17 -11 16 14 25 25 20 25 -5 0 -3 7 4 15 9 11 15 12 20 5 5 -7 15 -8
33 -1 19 7 27 7 27 0 0 -6 4 -8 8 -5 4 2 9 -4 9 -15 2 -21 -13 -26 -20 -6 -3
6 -4 2 -4 -10 1 -12 5 -19 10 -16 5 3 8 0 5 -8 -3 -8 -13 -16 -23 -18 -14 -2
-17 2 -12 20 5 22 5 22 -7 6 -12 -15 -14 -16 -20 -2 -5 13 -10 14 -27 4 -16
-8 -18 -13 -9 -19 9 -5 9 -9 1 -14 -6 -4 -11 -2 -11 4 0 7 -7 6 -22 -2 -36
-21 -74 -17 -76 7 0 11 -4 31 -7 43 -4 17 -2 22 7 17 7 -4 4 1 -7 10 -14 12
-16 19 -7 22 6 3 12 9 12 14 0 6 -5 7 -12 3 -7 -4 -8 -3 -4 5 17 27 50 -32 34
-61 -7 -15 -4 -18 18 -18 19 0 25 4 20 15 -3 8 0 14 6 12 6 -1 13 4 15 11 3 6
0 12 -7 12 -6 0 -8 5 -5 10 3 6 -5 14 -19 20 -14 5 -26 15 -26 21 0 8 4 8 13
1 9 -8 12 -4 14 15 1 19 -1 22 -8 12 -6 -10 -9 -11 -9 -1 0 7 7 15 16 19 8 3
13 12 10 19 -3 8 -2 14 3 14 5 0 11 -9 14 -20z m35 -17 c-8 -11 -7 -12 6 -7
10 4 15 13 12 20 -3 8 -2 14 3 14 7 0 23 -51 18 -57 -1 -1 -14 1 -29 4 -17 3
-28 13 -31 29 -2 13 0 21 4 18 5 -3 9 1 9 8 0 10 3 9 10 -2 5 -9 5 -19 -2 -27z
m72 32 c0 -3 -2 -5 -5 -5 -3 0 -5 2 -5 5 0 3 2 5 5 5 3 0 5 -2 5 -5z m147 -17
c-3 -8 -6 -5 -6 6 -1 11 2 17 5 13 3 -3 4 -12 1 -19z m141 -36 c15 -50 15 -52
-3 -52 -20 0 -19 -17 3 -35 9 -7 28 -23 42 -34 21 -17 22 -22 11 -30 -10 -7
-19 -4 -29 7 -7 9 -11 12 -7 5 4 -9 -1 -10 -25 -2 -39 14 -46 26 -25 49 13 14
13 19 3 23 -9 4 -6 12 11 27 l24 21 -31 11 c-19 7 -32 20 -35 35 -2 12 0 20 4
17 5 -3 9 0 9 6 0 26 37 -11 48 -48z m152 53 c0 -3 -2 -5 -5 -5 -3 0 -5 2 -5
5 0 3 2 5 5 5 3 0 5 -2 5 -5z m27 -17 c-3 -8 -6 -5 -6 6 -1 11 2 17 5 13 3 -3
4 -12 1 -19z m-717 7 c0 -3 -2 -5 -5 -5 -3 0 -5 2 -5 5 0 3 2 5 5 5 3 0 5 -2
5 -5z m320 0 c0 -3 -2 -5 -5 -5 -3 0 -5 2 -5 5 0 3 2 5 5 5 3 0 5 -2 5 -5z
m50 0 c0 -3 -2 -5 -5 -5 -3 0 -5 2 -5 5 0 3 2 5 5 5 3 0 5 -2 5 -5z m270 0 c0
-3 -2 -5 -5 -5 -3 0 -5 2 -5 5 0 3 2 5 5 5 3 0 5 -2 5 -5z m-380 -24 c0 -13
-28 -22 -35 -11 -3 4 1 11 7 13 20 8 28 8 28 -2z m-325 -11 c-3 -5 -10 -10
-16 -10 -5 0 -9 5 -9 10 0 6 7 10 16 10 8 0 12 -4 9 -10z m100 -4 c16 6 17 4
11 -17 -4 -13 -8 -29 -8 -36 -1 -8 -7 -9 -17 -4 -9 5 -21 7 -27 4 -14 -5 -48
33 -40 45 3 6 15 8 26 5 13 -3 20 0 20 8 0 11 2 11 8 1 5 -8 16 -10 27 -6z
m49 5 c3 -5 -2 -15 -12 -22 -15 -12 -16 -12 -5 2 7 9 10 19 6 22 -3 4 -4 7 0
7 3 0 8 -4 11 -9z m270 -14 c16 -6 17 -10 4 -30 -8 -12 -13 -39 -12 -60 2 -30
-1 -37 -13 -33 -8 3 -18 6 -22 6 -4 0 -5 14 -3 31 3 22 7 27 13 18 6 -10 8 -7
6 8 0 12 -5 19 -10 16 -13 -8 -46 27 -40 42 6 17 33 8 33 -12 0 -8 5 -11 10
-8 6 4 8 16 5 28 -4 12 -3 17 2 11 4 -6 16 -14 27 -17z m16 18 c0 -3 -2 -5 -5
-5 -3 0 -5 2 -5 5 0 3 2 5 5 5 3 0 5 -2 5 -5z m48 -25 c13 -16 18 -30 13 -30
-6 0 -14 7 -18 15 -7 12 -10 11 -21 -5 -10 -16 -10 -20 0 -20 7 0 18 -11 25
-25 9 -21 8 -27 -5 -34 -10 -6 -20 -4 -29 5 -14 14 -13 42 4 84 8 18 7 27 -1
32 -7 5 -7 8 0 8 5 0 20 -13 32 -30z m157 20 c-3 -5 -10 -10 -16 -10 -5 0 -9
5 -9 10 0 6 7 10 16 10 8 0 12 -4 9 -10z m100 -4 c16 6 17 4 11 -17 -4 -13 -8
-29 -8 -36 -1 -8 -7 -9 -17 -4 -9 5 -21 7 -27 4 -14 -5 -48 33 -40 45 3 6 15
8 26 5 13 -3 20 0 20 8 0 11 2 11 8 1 5 -8 16 -10 27 -6z m49 5 c3 -5 -2 -15
-12 -22 -15 -12 -16 -12 -5 2 7 9 10 19 6 22 -3 4 -4 7 0 7 3 0 8 -4 11 -9z
m-854 -42 c0 -5 -10 -9 -21 -9 -18 0 -19 2 -9 15 12 15 30 12 30 -6z m343 2
c13 8 17 6 17 -6 0 -8 -9 -15 -19 -15 -11 0 -21 -3 -24 -7 -2 -5 -2 -2 -1 5 2
6 -3 12 -11 12 -16 0 -20 12 -8 24 4 4 12 1 18 -8 8 -10 16 -11 28 -5z m297
-2 c0 -5 -10 -9 -21 -9 -18 0 -19 2 -9 15 12 15 30 12 30 -6z m-573 -8 c1 -11
-6 -21 -17 -24 -18 -5 -18 -3 -3 19 18 29 18 29 20 5z m318 2 c-2 -10 -4 -21
-4 -25 -1 -5 -8 -8 -16 -8 -14 0 -13 3 1 25 19 30 23 31 19 8z m322 -2 c1 -11
-6 -21 -17 -24 -18 -5 -18 -3 -3 19 18 29 18 29 20 5z m-547 -63 c0 -26 -2
-28 -20 -18 -11 6 -20 18 -20 26 0 8 5 12 10 9 6 -3 10 1 10 10 0 10 -5 13
-12 9 -7 -4 -8 -3 -4 5 12 20 36 -7 36 -41z m330 47 c0 -3 -2 -5 -5 -5 -3 0
-5 2 -5 5 0 3 2 5 5 5 3 0 5 -2 5 -5z m310 -47 c0 -26 -2 -28 -20 -18 -11 6
-20 18 -20 26 0 8 5 12 10 9 6 -3 10 1 10 10 0 10 -5 13 -12 9 -7 -4 -8 -3 -4
5 12 20 36 -7 36 -41z m-690 37 c0 -3 -2 -5 -5 -5 -3 0 -5 2 -5 5 0 3 2 5 5 5
3 0 5 -2 5 -5z m137 -12 c-4 -3 -7 0 -7 7 0 7 3 10 7 7 3 -4 3 -10 0 -14z
m183 12 c0 -3 -2 -5 -5 -5 -3 0 -5 2 -5 5 0 3 2 5 5 5 3 0 5 -2 5 -5z m320 0
c0 -3 -2 -5 -5 -5 -3 0 -5 2 -5 5 0 3 2 5 5 5 3 0 5 -2 5 -5z m137 -12 c-4 -3
-7 0 -7 7 0 7 3 10 7 7 3 -4 3 -10 0 -14z m-791 -23 c0 -11 -4 -20 -8 -20 -4
0 -8 5 -8 10 0 6 -7 10 -16 10 -8 0 -12 5 -9 10 11 18 41 11 41 -10z m640 0
c0 -11 -4 -20 -8 -20 -4 0 -8 5 -8 10 0 6 -7 10 -16 10 -8 0 -12 5 -9 10 11
18 41 11 41 -10z m-546 -35 c0 -3 -2 -5 -5 -5 -3 0 -5 2 -5 5 0 3 2 5 5 5 3 0
5 -2 5 -5z m150 0 c0 -3 -2 -5 -5 -5 -3 0 -5 2 -5 5 0 3 2 5 5 5 3 0 5 -2 5
-5z m490 0 c0 -3 -2 -5 -5 -5 -3 0 -5 2 -5 5 0 3 2 5 5 5 3 0 5 -2 5 -5z
m-720 -10 c0 -3 -2 -5 -5 -5 -3 0 -5 2 -5 5 0 3 2 5 5 5 3 0 5 -2 5 -5z m317
-12 c-4 -3 -7 0 -7 7 0 7 3 10 7 7 3 -4 3 -10 0 -14z m323 12 c0 -3 -2 -5 -5
-5 -3 0 -5 2 -5 5 0 3 2 5 5 5 3 0 5 -2 5 -5z m-673 -42 c-4 -3 -7 0 -7 7 0 7
3 10 7 7 3 -4 3 -10 0 -14z m323 12 c0 -3 -2 -5 -5 -5 -3 0 -5 2 -5 5 0 3 2 5
5 5 3 0 5 -2 5 -5z m317 -12 c-4 -3 -7 0 -7 7 0 7 3 10 7 7 3 -4 3 -10 0 -14z"/>
<path d="M280 695 c0 -3 2 -5 5 -5 3 0 5 2 5 5 0 3 -2 5 -5 5 -3 0 -5 -2 -5
-5z"/>
<path d="M334 675 c-18 -15 -18 -15 0 -8 13 4 17 3 12 -5 -4 -7 -3 -12 3 -12
15 0 24 21 14 31 -5 5 -17 3 -29 -6z"/>
<path d="M370 865 c-11 -13 -10 -14 4 -9 9 3 16 10 16 15 0 13 -6 11 -20 -6z"/>
<path d="M393 713 c4 -3 10 -3 14 0 3 4 0 7 -7 7 -7 0 -10 -3 -7 -7z"/>
<path d="M750 735 c0 -3 2 -5 5 -5 3 0 5 2 5 5 0 3 -2 5 -5 5 -3 0 -5 -2 -5
-5z"/>
<path d="M710 720 c0 -5 5 -10 11 -10 5 0 7 5 4 10 -3 6 -8 10 -11 10 -2 0 -4
-4 -4 -10z"/>
<path d="M600 695 c0 -3 2 -5 5 -5 3 0 5 2 5 5 0 3 -2 5 -5 5 -3 0 -5 -2 -5
-5z"/>
<path d="M620 685 c0 -3 2 -5 5 -5 3 0 5 2 5 5 0 3 -2 5 -5 5 -3 0 -5 -2 -5
-5z"/>
<path d="M506 833 c-3 -4 -6 -11 -6 -16 0 -6 3 -7 7 -4 3 4 12 2 20 -4 17 -15
17 -2 -1 16 -7 8 -16 11 -20 8z"/>
<path d="M890 755 c0 -3 2 -5 5 -5 3 0 5 2 5 5 0 3 -2 5 -5 5 -3 0 -5 -2 -5
-5z"/>
<path d="M190 735 c0 -3 2 -5 5 -5 3 0 5 2 5 5 0 3 -2 5 -5 5 -3 0 -5 -2 -5
-5z"/>
<path d="M180 655 c0 -3 2 -5 5 -5 3 0 5 2 5 5 0 3 -2 5 -5 5 -3 0 -5 -2 -5
-5z"/>
<path d="M824 658 c-4 -7 -3 -8 4 -4 12 7 16 16 8 16 -3 0 -8 -5 -12 -12z"/>
<path d="M500 655 c0 -3 2 -5 5 -5 3 0 5 2 5 5 0 3 -2 5 -5 5 -3 0 -5 -2 -5
-5z"/>
<path d="M302 439 c-14 -5 -20 -13 -16 -20 4 -8 3 -9 -4 -5 -7 4 -12 2 -12 -3
0 -6 7 -11 15 -11 24 0 30 4 29 18 -2 10 1 10 12 1 11 -9 14 -7 14 10 0 23 -4
24 -38 10z"/>
<path d="M260 435 c0 -3 2 -5 5 -5 3 0 5 2 5 5 0 3 -2 5 -5 5 -3 0 -5 -2 -5
-5z"/>
<path d="M334 355 c-18 -15 -18 -15 0 -8 13 4 17 3 12 -5 -4 -7 -3 -12 3 -12
15 0 24 21 14 31 -5 5 -17 3 -29 -6z"/>
<path d="M370 545 c-11 -13 -10 -14 4 -9 9 3 16 10 16 15 0 13 -6 11 -20 -6z"/>
<path d="M393 393 c4 -3 10 -3 14 0 3 4 0 7 -7 7 -7 0 -10 -3 -7 -7z"/>
<path d="M650 415 c0 -3 2 -5 5 -5 3 0 5 2 5 5 0 3 -2 5 -5 5 -3 0 -5 -2 -5
-5z"/>
<path d="M600 375 c0 -3 2 -5 5 -5 3 0 5 2 5 5 0 3 -2 5 -5 5 -3 0 -5 -2 -5
-5z"/>
<path d="M620 365 c0 -3 2 -5 5 -5 3 0 5 2 5 5 0 3 -2 5 -5 5 -3 0 -5 -2 -5
-5z"/>
<path d="M190 475 c0 -3 2 -5 5 -5 3 0 5 2 5 5 0 3 -2 5 -5 5 -3 0 -5 -2 -5
-5z"/>
<path d="M506 513 c-3 -4 -6 -11 -6 -16 0 -6 3 -7 7 -4 3 4 12 2 20 -4 17 -15
17 -2 -1 16 -7 8 -16 11 -20 8z"/>
<path d="M890 435 c0 -3 2 -5 5 -5 3 0 5 2 5 5 0 3 -2 5 -5 5 -3 0 -5 -2 -5
-5z"/>
<path d="M913 423 c4 -3 10 -3 14 0 3 4 0 7 -7 7 -7 0 -10 -3 -7 -7z"/>
<path d="M190 435 c0 -3 2 -5 5 -5 3 0 5 2 5 5 0 3 -2 5 -5 5 -3 0 -5 -2 -5
-5z"/>
<path d="M60 355 c0 -3 2 -5 5 -5 3 0 5 2 5 5 0 3 -2 5 -5 5 -3 0 -5 -2 -5 -5z"/>
<path d="M824 338 c-4 -7 -3 -8 4 -4 7 4 12 9 12 12 0 8 -9 4 -16 -8z"/>
<path d="M180 335 c0 -3 2 -5 5 -5 3 0 5 2 5 5 0 3 -2 5 -5 5 -3 0 -5 -2 -5
-5z"/>
<path d="M500 335 c0 -3 2 -5 5 -5 3 0 5 2 5 5 0 3 -2 5 -5 5 -3 0 -5 -2 -5
-5z"/>
<path d="M50 225 c-11 -13 -10 -14 4 -9 9 3 16 10 16 15 0 13 -6 11 -20 -6z"/>
<path d="M73 73 c4 -3 10 -3 14 0 3 4 0 7 -7 7 -7 0 -10 -3 -7 -7z"/>
<path d="M330 95 c0 -3 2 -5 5 -5 3 0 5 2 5 5 0 3 -2 5 -5 5 -3 0 -5 -2 -5 -5z"/>
<path d="M280 55 c0 -3 2 -5 5 -5 3 0 5 2 5 5 0 3 -2 5 -5 5 -3 0 -5 -2 -5 -5z"/>
<path d="M300 45 c0 -3 2 -5 5 -5 3 0 5 2 5 5 0 3 -2 5 -5 5 -3 0 -5 -2 -5 -5z"/>
<path d="M690 225 c-11 -13 -10 -14 4 -9 9 3 16 10 16 15 0 13 -6 11 -20 -6z"/>
<path d="M713 73 c4 -3 10 -3 14 0 3 4 0 7 -7 7 -7 0 -10 -3 -7 -7z"/>
<path d="M186 193 c-3 -4 -6 -11 -6 -16 0 -6 3 -7 7 -4 3 4 12 2 20 -4 17 -15
17 -2 -1 16 -7 8 -16 11 -20 8z"/>
<path d="M570 115 c0 -3 2 -5 5 -5 3 0 5 2 5 5 0 3 -2 5 -5 5 -3 0 -5 -2 -5
-5z"/>
<path d="M593 103 c4 -3 10 -3 14 0 3 4 0 7 -7 7 -7 0 -10 -3 -7 -7z"/>
<path d="M826 193 c-3 -4 -6 -11 -6 -16 0 -6 3 -7 7 -4 3 4 12 2 20 -4 17 -15
17 -2 -1 16 -7 8 -16 11 -20 8z"/>
<path d="M0 810 c0 -5 5 -10 11 -10 5 0 7 5 4 10 -3 6 -8 10 -11 10 -2 0 -4
-4 -4 -10z"/>
<path d="M125 730 c3 -5 8 -10 11 -10 2 0 4 5 4 10 0 6 -5 10 -11 10 -5 0 -7
-4 -4 -10z"/>
<path d="M120 695 c0 -3 2 -5 5 -5 3 0 5 2 5 5 0 3 -2 5 -5 5 -3 0 -5 -2 -5
-5z"/>
<path d="M910 695 c0 -3 2 -5 5 -5 3 0 5 2 5 5 0 3 -2 5 -5 5 -3 0 -5 -2 -5
-5z"/>
<path d="M0 665 c0 -3 2 -5 5 -5 3 0 5 2 5 5 0 3 -2 5 -5 5 -3 0 -5 -2 -5 -5z"/>
<path d="M2 456 c-1 -19 3 -38 9 -42 9 -5 10 2 5 26 -3 19 -5 32 -3 29 1 -2 8
-11 15 -20 10 -13 8 -21 -9 -43 -30 -39 -18 -42 22 -5 19 17 27 27 19 23 -13
-7 -13 -5 -2 8 9 11 10 18 2 23 -6 3 -8 11 -5 16 4 5 0 9 -9 9 -8 0 -21 2 -28
5 -10 4 -15 -4 -16 -29z"/>
<path d="M0 116 c0 -8 5 -18 10 -21 6 -3 10 3 10 14 0 12 -4 21 -10 21 -5 0
-10 -6 -10 -14z"/>
<path d="M920 55 c0 -3 2 -5 5 -5 3 0 5 2 5 5 0 3 -2 5 -5 5 -3 0 -5 -2 -5 -5z"/>
<path d="M14 35 c-18 -15 -18 -15 1 -8 18 6 19 5 5 -12 -14 -17 -14 -18 8 -6
12 6 22 16 22 21 0 17 -17 19 -36 5z"/>
<path d="M940 45 c0 -3 2 -5 5 -5 3 0 5 2 5 5 0 3 -2 5 -5 5 -3 0 -5 -2 -5 -5z"/>
<path d="M509 23 c-13 -17 -13 -17 5 -3 18 14 19 13 13 -2 -5 -13 -1 -18 13
-18 23 0 26 10 8 28 -16 16 -23 15 -39 -5z"/>
<path d="M390 10 c0 -7 3 -10 7 -7 3 4 3 10 0 14 -4 3 -7 0 -7 -7z"/>
</g>
<g transform="translate(0.000000,96.000000) scale(0.100000,-0.100000)"
fill="#735037" stroke="none">
<path d="M0 937 c0 -31 18 -47 52 -47 18 0 28 -5 28 -15 0 -8 7 -15 16 -15 10
0 14 6 11 15 -4 8 -1 17 5 21 6 4 8 3 5 -3 -4 -6 0 -14 9 -17 15 -6 15 -8 -1
-26 -10 -11 -15 -23 -11 -27 4 -4 11 -1 15 6 5 7 14 10 20 7 6 -4 11 0 11 8 0
10 9 16 21 16 15 0 19 -5 15 -15 -3 -8 -1 -15 4 -15 6 0 10 7 10 17 0 13 3 12
19 -6 l19 -21 4 25 c5 25 -7 35 -15 13 -2 -7 -4 -1 -4 13 0 20 4 25 21 24 11
-1 21 -7 21 -12 0 -21 11 -22 24 -1 10 16 10 19 -1 13 -10 -6 -11 -5 0 6 19
21 35 -3 36 -55 1 -40 3 -43 17 -30 9 8 19 11 22 7 4 -3 7 -1 7 5 0 7 -6 12
-14 12 -16 0 -28 49 -12 51 24 3 41 -3 49 -17 9 -16 27 -19 27 -3 0 5 -4 7
-10 4 -16 -10 -11 1 7 16 9 8 14 9 10 3 -4 -7 0 -15 8 -18 13 -4 13 -9 3 -25
-6 -10 -18 -17 -25 -14 -7 3 -13 0 -13 -7 0 -6 -5 -8 -12 -4 -7 4 -8 3 -4 -5
4 -6 12 -9 17 -6 5 4 9 0 9 -7 0 -7 11 0 23 16 15 19 29 27 40 23 9 -3 18 1
21 10 5 11 10 12 19 4 10 -8 17 -7 25 1 9 9 12 6 13 -12 1 -19 3 -16 8 10 4
22 12 34 20 32 7 -1 18 1 25 6 20 15 39 8 43 -17 2 -14 -2 -28 -9 -33 -9 -5
-8 -8 6 -8 12 0 16 -5 12 -16 -3 -8 -2 -13 3 -10 5 4 7 25 4 47 -6 40 -5 41
18 34 13 -4 30 -15 37 -24 10 -12 15 -13 18 -3 3 6 12 12 21 12 32 0 -1 -34
-52 -53 -5 -3 -7 -8 -3 -12 4 -4 15 -2 25 6 15 12 16 12 10 -4 -4 -11 -3 -16
3 -12 6 3 10 13 10 21 0 8 5 12 10 9 6 -3 10 0 10 7 0 8 9 14 20 15 13 1 18
-2 13 -10 -3 -7 2 -5 13 4 20 16 54 15 54 -2 0 -6 -5 -7 -11 -4 -6 4 -5 -2 2
-14 14 -21 32 -10 22 15 -3 7 8 15 26 19 17 4 29 11 25 16 -3 5 -12 6 -21 0
-18 -10 -53 -3 -53 10 0 5 12 7 26 5 37 -7 64 10 64 39 l0 25 -480 0 -480 0 0
-23z m120 -22 c0 -3 -2 -5 -5 -5 -3 0 -5 2 -5 5 0 3 2 5 5 5 3 0 5 -2 5 -5z
m36 -32 c-10 -10 -19 5 -10 18 6 11 8 11 12 0 2 -7 1 -15 -2 -18z m324 5 c0
-16 -3 -19 -11 -11 -6 6 -8 16 -5 22 11 17 16 13 16 -11z m320 0 c0 -16 -3
-19 -11 -11 -6 6 -8 16 -5 22 11 17 16 13 16 -11z m-243 -5 c-4 -3 -7 0 -7 7
0 7 3 10 7 7 3 -4 3 -10 0 -14z m203 12 c0 -3 -2 -5 -5 -5 -3 0 -5 2 -5 5 0 3
2 5 5 5 3 0 5 -2 5 -5z m-570 -9 c0 -3 -5 -8 -12 -12 -7 -4 -8 -3 -4 4 7 12
16 16 16 8z m320 -1 c0 -3 -2 -5 -5 -5 -3 0 -5 2 -5 5 0 3 2 5 5 5 3 0 5 -2 5
-5z m320 0 c0 -3 -2 -5 -5 -5 -3 0 -5 2 -5 5 0 3 2 5 5 5 3 0 5 -2 5 -5z
m-400 -60 c0 -3 -2 -5 -5 -5 -3 0 -5 2 -5 5 0 3 2 5 5 5 3 0 5 -2 5 -5z"/>
<path d="M608 886 c-23 -17 -23 -22 2 -29 11 -3 18 -1 15 3 -3 5 1 11 7 13 10
4 10 6 0 6 -7 1 -10 6 -7 11 8 13 4 12 -17 -4z m12 -11 c0 -3 -2 -5 -5 -5 -3
0 -5 2 -5 5 0 3 2 5 5 5 3 0 5 -2 5 -5z"/>
<path d="M19 857 c6 -14 5 -31 -1 -43 -10 -17 -9 -17 5 -4 16 15 13 70 -4 70
-5 0 -5 -10 0 -23z"/>
<path d="M90 845 c0 -3 2 -5 5 -5 3 0 5 2 5 5 0 3 -2 5 -5 5 -3 0 -5 -2 -5 -5z"/>
<path d="M285 840 c3 -5 8 -10 11 -10 3 0 2 5 -1 10 -3 6 -8 10 -11 10 -3 0
-2 -4 1 -10z"/>
<path d="M923 833 c4 -3 10 -3 14 0 3 4 0 7 -7 7 -7 0 -10 -3 -7 -7z"/>
<path d="M69 813 c-13 -15 -12 -15 9 -4 23 12 28 21 13 21 -5 0 -15 -7 -22
-17z"/>
<path d="M504 818 c-4 -7 -3 -8 4 -4 12 7 16 16 8 16 -3 0 -8 -5 -12 -12z"/>
<path d="M690 825 c0 -3 2 -5 5 -5 3 0 5 2 5 5 0 3 -2 5 -5 5 -3 0 -5 -2 -5
-5z"/>
<path d="M267 806 c-4 -10 -3 -15 2 -12 5 3 11 -10 13 -29 2 -20 0 -35 -7 -36
-5 0 -1 -4 10 -8 24 -10 30 -7 19 11 -15 24 -14 48 2 48 8 0 12 5 9 10 -4 6
-10 8 -15 5 -5 -3 -13 2 -18 11 -8 15 -10 15 -15 0z"/>
<path d="M560 815 c0 -3 2 -5 5 -5 3 0 5 2 5 5 0 3 -2 5 -5 5 -3 0 -5 -2 -5
-5z"/>
<path d="M780 808 c0 -9 -12 -26 -27 -37 -20 -15 -22 -19 -8 -14 11 3 25 9 30
12 27 15 37 9 30 -17 -4 -15 -12 -30 -18 -34 -7 -5 -3 -8 12 -8 16 0 21 -4 18
-14 -3 -8 2 -16 14 -19 17 -4 18 -3 8 9 -18 22 8 18 33 -6 12 -10 26 -16 31
-13 6 3 0 10 -12 15 -18 6 -22 28 -5 28 3 0 2 -5 -2 -12 -4 -6 -3 -8 4 -5 11
7 10 20 -3 50 -11 25 -23 21 -20 -8 2 -16 -2 -25 -10 -25 -30 0 -41 11 -38 38
2 16 -4 37 -17 52 -15 19 -20 21 -20 8z"/>
<path d="M820 815 c0 -3 2 -5 5 -5 3 0 5 2 5 5 0 3 -2 5 -5 5 -3 0 -5 -2 -5
-5z"/>
<path d="M906 805 c-3 -9 -2 -13 4 -10 6 3 10 0 10 -8 0 -11 7 -13 22 -9 16 4
18 7 8 10 -8 2 -20 11 -26 18 -10 13 -13 12 -18 -1z"/>
<path d="M380 805 c0 -3 2 -5 5 -5 3 0 5 2 5 5 0 3 -2 5 -5 5 -3 0 -5 -2 -5
-5z"/>
<path d="M438 780 c-26 -26 -27 -29 -10 -41 15 -13 16 -12 3 4 -12 15 -11 17
3 17 20 0 57 31 50 42 -8 12 -16 8 -46 -22z"/>
<path d="M34 767 c2 -21 6 -40 10 -42 3 -3 4 -2 1 2 -3 3 5 18 17 31 13 14 17
22 10 18 -8 -5 -19 -1 -27 10 -13 17 -14 15 -11 -19z"/>
<path d="M144 784 c3 -9 6 -19 6 -22 0 -9 20 21 20 31 0 4 -7 7 -16 7 -11 0
-14 -5 -10 -16z"/>
<path d="M350 783 c0 -28 31 -31 51 -5 13 15 12 16 -4 3 -15 -12 -19 -12 -32
5 -14 18 -14 18 -15 -3z"/>
<path d="M680 795 c0 -3 2 -5 5 -5 3 0 5 2 5 5 0 3 -2 5 -5 5 -3 0 -5 -2 -5
-5z"/>
<path d="M830 795 c0 -3 2 -5 5 -5 3 0 5 2 5 5 0 3 -2 5 -5 5 -3 0 -5 -2 -5
-5z"/>
<path d="M544 778 c-4 -7 -3 -8 4 -4 12 7 16 16 8 16 -3 0 -8 -5 -12 -12z"/>
<path d="M618 783 c7 -3 16 -2 19 1 4 3 -2 6 -13 5 -11 0 -14 -3 -6 -6z"/>
<path d="M860 780 c-8 -5 -10 -10 -5 -10 6 0 17 5 25 10 8 5 11 10 5 10 -5 0
-17 -5 -25 -10z"/>
<path d="M120 769 c0 -5 5 -7 10 -4 6 3 10 8 10 11 0 2 -4 4 -10 4 -5 0 -10
-5 -10 -11z"/>
<path d="M190 775 c0 -3 2 -5 5 -5 3 0 5 2 5 5 0 3 -2 5 -5 5 -3 0 -5 -2 -5
-5z"/>
<path d="M210 775 c0 -3 2 -5 5 -5 3 0 5 2 5 5 0 3 -2 5 -5 5 -3 0 -5 -2 -5
-5z"/>
<path d="M511 764 c0 -11 3 -14 6 -6 3 7 2 16 -1 19 -3 4 -6 -2 -5 -13z"/>
<path d="M672 766 c7 -8 16 -12 21 -9 11 7 -2 23 -19 23 -12 0 -12 -2 -2 -14z"/>
<path d="M830 775 c0 -3 2 -5 5 -5 3 0 5 2 5 5 0 3 -2 5 -5 5 -3 0 -5 -2 -5
-5z"/>
<path d="M10 760 c0 -7 3 -10 7 -7 3 4 3 10 0 14 -4 3 -7 0 -7 -7z"/>
<path d="M100 765 c0 -3 2 -5 5 -5 3 0 5 2 5 5 0 3 -2 5 -5 5 -3 0 -5 -2 -5
-5z"/>
<path d="M330 765 c0 -3 2 -5 5 -5 3 0 5 2 5 5 0 3 -2 5 -5 5 -3 0 -5 -2 -5
-5z"/>
<path d="M483 750 c-10 -14 -9 -21 3 -31 27 -22 12 -44 -30 -44 -24 0 -41 -5
-44 -14 -3 -8 0 -11 6 -7 6 3 13 2 17 -4 4 -6 -13 -10 -45 -10 -38 0 -49 3
-44 13 5 8 2 8 -9 -2 -11 -9 -17 -10 -17 -2 0 6 -7 11 -16 11 -8 0 -12 -4 -9
-10 9 -15 -128 -13 -144 3 -11 10 -14 10 -18 0 -3 -9 -27 -13 -70 -13 l-66 0
8 -37 c4 -21 8 -50 9 -65 1 -31 10 -43 26 -33 9 6 9 9 0 15 -8 5 -10 18 -6 36
7 28 8 28 22 10 10 -14 14 -16 14 -5 1 10 3 9 11 -3 12 -22 33 -24 26 -3 -4 8
-2 17 3 20 6 4 10 -1 10 -9 0 -9 5 -16 11 -16 8 0 8 -5 -1 -15 -7 -8 -20 -15
-29 -15 -14 0 -14 -2 -1 -10 10 -6 16 -6 18 0 2 6 10 10 18 10 8 0 25 7 39 16
22 14 24 14 33 -3 15 -27 49 -27 47 0 -1 11 -7 23 -13 25 -27 9 -9 17 37 19
54 1 60 -5 56 -65 -2 -29 0 -31 15 -17 9 8 20 12 23 8 4 -3 7 -1 7 5 0 7 -6
12 -14 12 -16 0 -28 49 -12 51 24 3 41 -3 49 -17 9 -16 27 -19 27 -3 0 5 -6 7
-12 3 -9 -5 -9 -2 1 9 14 18 26 23 17 8 -3 -5 1 -12 9 -15 13 -4 13 -9 3 -25
-6 -10 -18 -17 -25 -14 -7 3 -13 0 -13 -7 0 -6 -5 -8 -12 -4 -7 4 -8 3 -4 -5
4 -6 12 -9 17 -6 5 4 9 0 9 -7 0 -7 11 0 23 16 15 19 29 27 40 23 9 -3 18 1
21 10 5 11 10 12 19 4 10 -8 17 -7 25 1 9 9 12 6 13 -12 1 -19 3 -16 8 10 4
22 12 34 20 32 7 -1 18 1 25 6 10 7 32 9 39 2 1 -1 15 -4 31 -6 15 -1 34 -11
42 -21 12 -16 15 -16 24 -3 5 8 10 11 10 5 0 -5 9 1 20 15 l20 25 0 -23 c0
-13 -4 -21 -9 -18 -5 3 -12 -1 -15 -10 -3 -8 -19 -20 -36 -25 -16 -6 -27 -15
-24 -20 3 -6 11 -5 20 2 12 10 13 9 8 -6 -5 -13 -4 -16 4 -11 7 4 12 14 12 22
0 8 5 12 10 9 6 -3 10 0 10 7 0 8 9 14 20 15 13 1 18 -2 13 -10 -3 -7 2 -5 13
4 20 16 54 15 54 -2 0 -6 -5 -7 -11 -4 -6 4 -5 -2 2 -14 14 -21 32 -10 22 15
-3 7 8 15 26 19 17 4 29 11 25 16 -3 5 -12 6 -21 0 -18 -10 -53 -3 -53 10 0 5
12 7 26 5 42 -8 66 10 62 46 -2 17 -9 34 -17 36 -8 3 -11 0 -7 -6 4 -7 -38
-11 -134 -11 -107 0 -139 3 -133 12 5 9 3 9 -8 0 -11 -9 -18 -8 -33 3 -23 16
-36 18 -36 5 0 -5 8 -12 18 -14 9 -3 -20 -5 -64 -6 -65 -1 -84 2 -95 16 -13
15 -11 16 12 10 36 -9 51 11 43 59 -7 48 -7 47 -21 24z m-363 -145 c0 -3 -2
-5 -5 -5 -3 0 -5 2 -5 5 0 3 2 5 5 5 3 0 5 -2 5 -5z m36 -42 c-10 -10 -19 5
-10 18 6 11 8 11 12 0 2 -7 1 -15 -2 -18z m324 5 c0 -16 -3 -19 -11 -11 -6 6
-8 16 -5 22 11 17 16 13 16 -11z m77 -5 c-4 -3 -7 0 -7 7 0 7 3 10 7 7 3 -4 3
-10 0 -14z m203 12 c0 -3 -2 -5 -5 -5 -3 0 -5 2 -5 5 0 3 2 5 5 5 3 0 5 -2 5
-5z m-730 -10 c0 -3 -2 -5 -5 -5 -3 0 -5 2 -5 5 0 3 2 5 5 5 3 0 5 -2 5 -5z
m160 1 c0 -3 -5 -8 -12 -12 -7 -4 -8 -3 -4 4 7 12 16 16 16 8z m320 -1 c0 -3
-2 -5 -5 -5 -3 0 -5 2 -5 5 0 3 2 5 5 5 3 0 5 -2 5 -5z m320 0 c0 -3 -2 -5 -5
-5 -3 0 -5 2 -5 5 0 3 2 5 5 5 3 0 5 -2 5 -5z m-400 -60 c0 -3 -2 -5 -5 -5 -3
0 -5 2 -5 5 0 3 2 5 5 5 3 0 5 -2 5 -5z"/>
<path d="M550 745 c11 -13 10 -18 -5 -29 -13 -9 -15 -15 -7 -20 7 -4 12 -2 12
3 0 6 4 11 9 11 5 0 7 -8 4 -19 -3 -10 -1 -21 4 -24 11 -7 10 50 -2 76 -4 9
-12 17 -17 17 -6 0 -5 -7 2 -15z"/>
<path d="M610 760 c-9 -31 -6 -40 13 -40 13 0 17 3 11 8 -6 4 -14 14 -17 22
-3 8 -6 13 -7 10z"/>
<path d="M630 755 c0 -3 2 -5 5 -5 3 0 5 2 5 5 0 3 -2 5 -5 5 -3 0 -5 -2 -5
-5z"/>
<path d="M920 749 c0 -5 6 -7 13 -3 9 6 9 4 -1 -8 -10 -13 -10 -17 2 -21 19
-7 28 6 20 27 -7 18 -34 22 -34 5z"/>
<path d="M160 740 c13 -9 13 -11 0 -20 -13 -8 -12 -10 3 -10 19 0 20 -2 11
-24 -7 -19 -25 -22 -20 -3 1 6 1 9 -1 5 -7 -13 -63 -9 -63 4 0 6 -3 9 -6 5
-10 -10 6 -44 21 -44 8 0 15 5 15 10 0 5 10 7 23 4 12 -3 29 0 38 6 15 11 15
17 3 45 -7 18 -19 32 -26 32 -9 0 -9 -3 2 -10z"/>
<path d="M229 749 c-7 -33 -3 -57 12 -72 11 -10 19 -14 19 -10 0 4 5 1 10 -7
7 -10 10 -11 10 -2 0 7 -11 18 -25 24 -29 13 -32 23 -9 36 14 8 14 10 0 21 -9
8 -16 12 -17 10z"/>
<path d="M325 740 c3 -5 8 -10 11 -10 3 0 2 5 -1 10 -3 6 -8 10 -11 10 -3 0
-2 -4 1 -10z"/>
<path d="M10 735 c0 -3 2 -5 5 -5 3 0 5 2 5 5 0 3 -2 5 -5 5 -3 0 -5 -2 -5 -5z"/>
<path d="M100 735 c0 -3 2 -5 5 -5 3 0 5 2 5 5 0 3 -2 5 -5 5 -3 0 -5 -2 -5
-5z"/>
<path d="M750 735 c0 -3 2 -5 5 -5 3 0 5 2 5 5 0 3 -2 5 -5 5 -3 0 -5 -2 -5
-5z"/>
<path d="M20 715 c0 -3 2 -5 5 -5 3 0 5 2 5 5 0 3 -2 5 -5 5 -3 0 -5 -2 -5 -5z"/>
<path d="M60 710 c-9 -6 -10 -10 -3 -10 6 0 15 5 18 10 8 12 4 12 -15 0z"/>
<path d="M340 715 c0 -3 2 -5 5 -5 3 0 5 2 5 5 0 3 -2 5 -5 5 -3 0 -5 -2 -5
-5z"/>
<path d="M380 710 c-8 -5 -12 -12 -9 -15 4 -3 12 1 19 10 14 17 11 19 -10 5z"/>
<path d="M460 715 c0 -3 2 -5 5 -5 3 0 5 2 5 5 0 3 -2 5 -5 5 -3 0 -5 -2 -5
-5z"/>
<path d="M660 715 c0 -3 2 -5 5 -5 3 0 5 2 5 5 0 3 -2 5 -5 5 -3 0 -5 -2 -5
-5z"/>
<path d="M700 710 c-9 -6 -10 -10 -3 -10 6 0 15 5 18 10 8 12 4 12 -15 0z"/>
<path d="M250 705 c0 -3 2 -5 5 -5 3 0 5 2 5 5 0 3 -2 5 -5 5 -3 0 -5 -2 -5
-5z"/>
<path d="M740 705 c0 -3 2 -5 5 -5 3 0 5 2 5 5 0 3 -2 5 -5 5 -3 0 -5 -2 -5
-5z"/>
<path d="M400 690 c0 -7 3 -10 7 -7 3 4 3 10 0 14 -4 3 -7 0 -7 -7z"/>
<path d="M720 690 c0 -15 13 -40 22 -43 3 -1 12 4 21 11 9 8 20 11 25 8 5 -3
9 1 9 9 0 10 -8 12 -30 8 -19 -4 -32 -1 -38 8 -7 12 -9 12 -9 -1z"/>
<path d="M30 675 c0 -3 2 -5 5 -5 3 0 5 2 5 5 0 3 -2 5 -5 5 -3 0 -5 -2 -5 -5z"/>
<path d="M355 670 c3 -5 8 -10 11 -10 3 0 2 5 -1 10 -3 6 -8 10 -11 10 -3 0
-2 -4 1 -10z"/>
<path d="M670 675 c0 -3 2 -5 5 -5 3 0 5 2 5 5 0 3 -2 5 -5 5 -3 0 -5 -2 -5
-5z"/>
<path d="M0 665 c0 -3 2 -5 5 -5 3 0 5 2 5 5 0 3 -2 5 -5 5 -3 0 -5 -2 -5 -5z"/>
<path d="M530 665 c0 -3 2 -5 5 -5 3 0 5 2 5 5 0 3 -2 5 -5 5 -3 0 -5 -2 -5
-5z"/>
<path d="M640 665 c0 -3 2 -5 5 -5 3 0 5 2 5 5 0 3 -2 5 -5 5 -3 0 -5 -2 -5
-5z"/>
<path d="M20 655 c0 -3 2 -5 5 -5 3 0 5 2 5 5 0 3 -2 5 -5 5 -3 0 -5 -2 -5 -5z"/>
<path d="M230 655 c0 -3 2 -5 5 -5 3 0 5 2 5 5 0 3 -2 5 -5 5 -3 0 -5 -2 -5
-5z"/>
<path d="M550 655 c0 -3 2 -5 5 -5 3 0 5 2 5 5 0 3 -2 5 -5 5 -3 0 -5 -2 -5
-5z"/>
<path d="M910 655 c0 -3 2 -5 5 -5 3 0 5 2 5 5 0 3 -2 5 -5 5 -3 0 -5 -2 -5
-5z"/>
<path d="M608 566 c-23 -17 -23 -22 2 -29 11 -3 18 -1 15 3 -3 5 1 11 7 13 10
4 10 6 0 6 -7 1 -10 6 -7 11 8 13 4 12 -17 -4z m12 -11 c0 -3 -2 -5 -5 -5 -3
0 -5 2 -5 5 0 3 2 5 5 5 3 0 5 -2 5 -5z"/>
<path d="M280 554 c-10 -11 -10 -17 -2 -25 7 -5 10 -6 7 -3 -3 4 3 12 12 19
10 7 12 14 6 18 -6 4 -16 0 -23 -9z"/>
<path d="M653 546 c1 -14 6 -26 11 -26 4 0 5 -7 2 -16 -3 -8 -2 -12 4 -9 6 3
7 18 4 33 -9 38 -22 49 -21 18z"/>
<path d="M700 555 c0 -3 2 -5 5 -5 3 0 5 2 5 5 0 3 -2 5 -5 5 -3 0 -5 -2 -5
-5z"/>
<path d="M173 523 c4 -3 10 -3 14 0 3 4 0 7 -7 7 -7 0 -10 -3 -7 -7z"/>
<path d="M923 513 c4 -3 10 -3 14 0 3 4 0 7 -7 7 -7 0 -10 -3 -7 -7z"/>
<path d="M60 494 c0 -8 5 -12 10 -9 6 4 8 11 5 16 -9 14 -15 11 -15 -7z"/>
<path d="M504 498 c-4 -7 -3 -8 4 -4 7 4 12 9 12 12 0 8 -9 4 -16 -8z"/>
<path d="M180 495 c0 -3 2 -5 5 -5 3 0 5 2 5 5 0 3 -2 5 -5 5 -3 0 -5 -2 -5
-5z"/>
<path d="M240 495 c0 -3 2 -5 5 -5 3 0 5 2 5 5 0 3 -2 5 -5 5 -3 0 -5 -2 -5
-5z"/>
<path d="M251 479 l-23 -19 29 6 c29 6 30 4 28 -30 -1 -37 21 -58 31 -31 4 8
11 12 17 8 6 -3 7 -1 3 6 -4 6 -12 8 -18 5 -6 -4 -14 0 -19 7 -13 21 -11 32 7
25 10 -4 14 -1 12 6 -3 7 -10 13 -17 13 -6 0 -15 5 -19 12 -5 8 -14 6 -31 -8z"/>
<path d="M560 495 c0 -3 2 -5 5 -5 3 0 5 2 5 5 0 3 -2 5 -5 5 -3 0 -5 -2 -5
-5z"/>
<path d="M777 479 c-3 -11 -15 -23 -26 -26 -12 -3 -21 -9 -21 -14 0 -8 27 -2
45 11 6 4 18 6 27 5 14 -3 16 0 8 15 -15 29 -27 32 -33 9z"/>
<path d="M820 495 c0 -3 2 -5 5 -5 3 0 5 2 5 5 0 3 -2 5 -5 5 -3 0 -5 -2 -5
-5z"/>
<path d="M906 485 c-3 -9 -2 -13 4 -10 6 3 10 0 10 -8 0 -11 7 -13 22 -9 16 4
18 7 8 10 -8 2 -20 11 -26 18 -10 13 -13 12 -18 -1z"/>
<path d="M100 485 c0 -3 2 -5 5 -5 3 0 5 2 5 5 0 3 -2 5 -5 5 -3 0 -5 -2 -5
-5z"/>
<path d="M150 480 c0 -5 -12 -16 -27 -24 -16 -9 -22 -15 -12 -16 8 0 20 5 27
12 11 11 17 2 14 -24 -1 -3 5 -9 13 -12 9 -3 15 1 15 9 0 8 -4 15 -10 15 -5 0
-10 5 -10 11 0 5 5 7 11 3 8 -4 8 0 0 15 -12 22 -21 27 -21 11z"/>
<path d="M380 485 c0 -3 2 -5 5 -5 3 0 5 2 5 5 0 3 -2 5 -5 5 -3 0 -5 -2 -5
-5z"/>
<path d="M438 460 c-26 -26 -27 -29 -10 -41 15 -13 16 -12 3 4 -12 15 -11 17
3 17 20 0 57 31 50 42 -8 12 -16 8 -46 -22z"/>
<path d="M700 485 c0 -3 2 -5 5 -5 3 0 5 2 5 5 0 3 -2 5 -5 5 -3 0 -5 -2 -5
-5z"/>
<path d="M190 475 c0 -3 2 -5 5 -5 3 0 5 2 5 5 0 3 -2 5 -5 5 -3 0 -5 -2 -5
-5z"/>
<path d="M350 463 c0 -28 31 -31 51 -5 13 15 12 16 -4 3 -15 -12 -19 -12 -32
5 -14 18 -14 18 -15 -3z"/>
<path d="M672 468 c-17 -21 11 -40 34 -23 18 13 18 13 -1 12 -11 -1 -19 3 -17
11 1 6 0 12 -2 12 -2 0 -8 -6 -14 -12z"/>
<path d="M830 475 c0 -3 2 -5 5 -5 3 0 5 2 5 5 0 3 -2 5 -5 5 -3 0 -5 -2 -5
-5z"/>
<path d="M544 458 c-4 -7 -3 -8 4 -4 7 4 12 9 12 12 0 8 -9 4 -16 -8z"/>
<path d="M618 463 c6 -2 18 -2 25 0 6 3 1 5 -13 5 -14 0 -19 -2 -12 -5z"/>
<path d="M870 459 c0 -5 -5 -7 -12 -3 -7 4 -8 3 -4 -4 12 -20 15 -51 5 -57 -5
-4 -18 -4 -28 0 -13 4 -17 12 -13 27 3 14 1 19 -6 14 -15 -9 -16 -46 -1 -46 6
0 9 -6 6 -14 -3 -8 2 -16 14 -19 17 -4 18 -3 8 9 -17 21 6 18 31 -3 11 -10 23
-16 27 -15 3 2 10 -2 15 -10 8 -10 9 -10 5 2 -2 8 -10 14 -16 12 -8 -1 -11 7
-8 26 3 15 -2 36 -9 47 -10 13 -11 22 -3 32 8 9 8 13 0 13 -6 0 -11 -5 -11
-11z m20 -73 c0 -3 -4 -8 -10 -11 -5 -3 -10 -1 -10 4 0 6 5 11 10 11 6 0 10
-2 10 -4z"/>
<path d="M30 450 c0 -5 7 -10 16 -10 8 0 12 5 9 10 -3 6 -10 10 -16 10 -5 0
-9 -4 -9 -10z"/>
<path d="M190 455 c0 -3 2 -5 5 -5 3 0 5 2 5 5 0 3 -2 5 -5 5 -3 0 -5 -2 -5
-5z"/>
<path d="M511 444 c0 -11 3 -14 6 -6 3 7 2 16 -1 19 -3 4 -6 -2 -5 -13z"/>
<path d="M830 455 c0 -3 2 -5 5 -5 3 0 5 2 5 5 0 3 -2 5 -5 5 -3 0 -5 -2 -5
-5z"/>
<path d="M330 445 c0 -3 2 -5 5 -5 3 0 5 2 5 5 0 3 -2 5 -5 5 -3 0 -5 -2 -5
-5z"/>
<path d="M483 430 c-10 -14 -9 -21 3 -31 27 -22 12 -44 -30 -44 -24 0 -41 -5
-44 -14 -3 -8 0 -11 6 -7 6 3 13 2 17 -4 4 -6 -13 -10 -45 -10 -38 0 -49 3
-44 13 5 9 4 9 -6 1 -9 -9 -21 -7 -51 9 -21 11 -39 25 -39 29 0 5 -5 6 -10 3
-5 -3 -10 -11 -10 -16 0 -6 5 -7 10 -4 6 3 10 1 10 -5 0 -6 3 -9 8 -7 4 3 13
-2 21 -10 12 -14 5 -15 -63 -11 -59 3 -81 8 -91 21 -15 21 -47 23 -39 2 4 -8
10 -13 14 -10 5 3 11 1 15 -5 4 -6 -16 -10 -56 -10 l-62 0 8 -42 c3 -24 7 -60
8 -80 1 -33 3 -35 18 -22 8 8 19 11 22 7 4 -3 7 -1 7 5 0 7 -6 12 -14 12 -16
0 -28 49 -12 51 24 3 41 -3 49 -17 9 -16 27 -19 27 -3 0 5 -4 7 -10 4 -16 -10
-11 1 7 16 9 8 14 9 10 3 -4 -7 0 -15 8 -18 13 -4 13 -9 3 -25 -6 -10 -18 -17
-25 -14 -7 3 -13 0 -13 -7 0 -6 -5 -8 -12 -4 -7 4 -8 3 -4 -5 4 -6 12 -9 17
-6 5 4 9 0 9 -7 0 -7 11 0 23 16 15 19 29 27 40 23 9 -3 18 1 21 10 5 11 10
12 19 4 10 -8 17 -7 25 1 9 9 12 6 13 -12 1 -19 3 -16 8 10 4 22 12 34 20 32
7 -1 18 1 25 6 10 7 32 9 39 2 1 -1 15 -4 31 -6 15 -1 34 -11 42 -21 12 -16
15 -16 24 -3 5 8 10 11 10 5 0 -5 9 1 20 15 l20 25 0 -23 c0 -13 -4 -21 -9
-18 -5 3 -12 -1 -15 -10 -3 -8 -19 -20 -36 -25 -16 -6 -27 -15 -24 -20 3 -6
11 -5 20 2 12 10 13 9 8 -6 -5 -13 -4 -16 4 -11 7 4 12 14 12 22 0 8 5 12 10
9 6 -3 10 0 10 7 0 8 9 14 20 15 13 1 18 -2 13 -10 -3 -7 2 -5 13 4 20 16 54
15 54 -2 0 -6 -5 -7 -11 -4 -6 4 -5 -2 2 -14 14 -21 32 -10 22 15 -3 7 8 15
26 19 17 4 29 11 25 16 -3 5 -12 6 -21 0 -18 -10 -53 -3 -53 10 0 5 12 7 26 5
15 -3 35 -1 46 5 15 8 20 5 27 -13 4 -13 7 -38 6 -56 -2 -29 0 -31 15 -17 9 8
20 12 23 8 4 -3 7 -1 7 5 0 7 -6 12 -14 12 -16 0 -28 49 -12 51 24 3 41 -3 49
-17 9 -16 27 -19 27 -3 0 5 -4 7 -10 4 -16 -10 -11 1 7 16 9 8 14 9 10 3 -4
-7 0 -15 8 -18 13 -4 13 -9 3 -25 -6 -10 -18 -17 -25 -14 -7 3 -13 0 -13 -7 0
-6 -5 -8 -12 -4 -7 4 -8 3 -4 -5 4 -6 12 -9 17 -6 5 4 9 0 9 -7 0 -7 11 0 23
16 15 19 29 27 40 23 9 -3 18 1 21 10 5 11 10 12 19 4 10 -8 17 -7 25 1 9 9
12 6 13 -13 1 -18 3 -15 8 11 4 22 12 34 20 32 7 -1 20 3 29 10 13 11 14 11 7
-1 -5 -10 -4 -12 3 -7 19 11 15 86 -4 86 -8 0 -12 -4 -9 -10 10 -17 -284 -12
-309 5 -24 17 -36 19 -36 6 0 -5 8 -12 18 -14 9 -3 -20 -5 -64 -6 -65 -1 -84
2 -95 16 -13 15 -11 16 12 10 36 -9 51 11 43 59 -7 48 -7 47 -21 24z m-323
-182 c0 -16 -3 -19 -11 -11 -6 6 -8 16 -5 22 11 17 16 13 16 -11z m640 0 c0
-16 -3 -19 -11 -11 -6 6 -8 16 -5 22 11 17 16 13 16 -11z m-563 -5 c-4 -3 -7
0 -7 7 0 7 3 10 7 7 3 -4 3 -10 0 -14z m203 12 c0 -3 -2 -5 -5 -5 -3 0 -5 2
-5 5 0 3 2 5 5 5 3 0 5 -2 5 -5z m437 -12 c-4 -3 -7 0 -7 7 0 7 3 10 7 7 3 -4
3 -10 0 -14z m-687 2 c0 -3 -2 -5 -5 -5 -3 0 -5 2 -5 5 0 3 2 5 5 5 3 0 5 -2
5 -5z m320 0 c0 -3 -2 -5 -5 -5 -3 0 -5 2 -5 5 0 3 2 5 5 5 3 0 5 -2 5 -5z
m320 0 c0 -3 -2 -5 -5 -5 -3 0 -5 2 -5 5 0 3 2 5 5 5 3 0 5 -2 5 -5z m-720
-60 c0 -3 -2 -5 -5 -5 -3 0 -5 2 -5 5 0 3 2 5 5 5 3 0 5 -2 5 -5z m640 0 c0
-3 -2 -5 -5 -5 -3 0 -5 2 -5 5 0 3 2 5 5 5 3 0 5 -2 5 -5z"/>
<path d="M190 435 c0 -3 2 -5 5 -5 3 0 5 2 5 5 0 3 -2 5 -5 5 -3 0 -5 -2 -5
-5z"/>
<path d="M224 418 c1 -15 -6 -24 -18 -26 -26 -5 -49 -29 -36 -37 6 -3 13 1 16
9 3 9 14 16 23 16 9 0 23 6 32 13 14 10 15 16 4 30 -17 23 -23 21 -21 -5z"/>
<path d="M550 425 c11 -13 10 -18 -5 -29 -13 -9 -15 -15 -7 -20 7 -4 12 -2 12
3 0 6 4 11 9 11 5 0 7 -8 4 -19 -3 -10 -1 -21 4 -24 11 -7 10 50 -2 76 -4 9
-12 17 -17 17 -6 0 -5 -7 2 -15z"/>
<path d="M610 440 c-9 -31 -6 -40 13 -40 13 0 17 3 11 8 -6 4 -14 14 -17 22
-3 8 -6 13 -7 10z"/>
<path d="M636 428 c3 -5 10 -6 15 -3 13 9 11 12 -6 12 -8 0 -12 -4 -9 -9z"/>
<path d="M929 438 c-7 -23 -4 -38 7 -42 7 -3 16 -1 19 5 4 5 -1 12 -9 15 -9 3
-13 10 -10 15 3 5 3 9 0 9 -3 0 -6 -1 -7 -2z"/>
<path d="M10 415 c0 -3 2 -5 5 -5 3 0 5 2 5 5 0 3 -2 5 -5 5 -3 0 -5 -2 -5 -5z"/>
<path d="M110 415 c0 -3 2 -5 5 -5 3 0 5 2 5 5 0 3 -2 5 -5 5 -3 0 -5 -2 -5
-5z"/>
<path d="M13 393 c4 -3 10 -3 14 0 3 4 0 7 -7 7 -7 0 -10 -3 -7 -7z"/>
<path d="M60 390 c-8 -5 -12 -12 -9 -15 4 -3 12 1 19 10 14 17 11 19 -10 5z"/>
<path d="M340 395 c0 -3 2 -5 5 -5 3 0 5 2 5 5 0 3 -2 5 -5 5 -3 0 -5 -2 -5
-5z"/>
<path d="M380 390 c-8 -5 -12 -12 -9 -15 4 -3 12 1 19 10 14 17 11 19 -10 5z"/>
<path d="M460 395 c0 -3 2 -5 5 -5 3 0 5 2 5 5 0 3 -2 5 -5 5 -3 0 -5 -2 -5
-5z"/>
<path d="M660 395 c0 -3 2 -5 5 -5 3 0 5 2 5 5 0 3 -2 5 -5 5 -3 0 -5 -2 -5
-5z"/>
<path d="M700 390 c-8 -5 -12 -12 -9 -15 4 -3 12 1 19 10 14 17 11 19 -10 5z"/>
<path d="M774 388 c-4 -7 -3 -8 4 -4 7 4 12 9 12 12 0 8 -9 4 -16 -8z"/>
<path d="M400 370 c0 -7 3 -10 7 -7 3 4 3 10 0 14 -4 3 -7 0 -7 -7z"/>
<path d="M727 362 c1 -8 3 -17 3 -21 0 -4 11 -7 24 -7 15 0 22 5 19 13 -3 7
-13 13 -23 13 -10 0 -20 3 -23 8 -2 4 -2 1 0 -6z"/>
<path d="M782 358 c2 -6 10 -13 16 -14 7 -1 8 0 2 3 -5 2 -8 9 -4 14 3 5 0 9
-6 9 -7 0 -10 -5 -8 -12z"/>
<path d="M60 355 c0 -3 2 -5 5 -5 3 0 5 2 5 5 0 3 -2 5 -5 5 -3 0 -5 -2 -5 -5z"/>
<path d="M145 350 c3 -5 8 -10 11 -10 3 0 2 5 -1 10 -3 6 -8 10 -11 10 -3 0
-2 -4 1 -10z"/>
<path d="M355 350 c3 -5 8 -10 11 -10 3 0 2 5 -1 10 -3 6 -8 10 -11 10 -3 0
-2 -4 1 -10z"/>
<path d="M690 355 c0 -3 2 -5 5 -5 3 0 5 2 5 5 0 3 -2 5 -5 5 -3 0 -5 -2 -5
-5z"/>
<path d="M530 345 c0 -3 2 -5 5 -5 3 0 5 2 5 5 0 3 -2 5 -5 5 -3 0 -5 -2 -5
-5z"/>
<path d="M640 345 c0 -3 2 -5 5 -5 3 0 5 2 5 5 0 3 -2 5 -5 5 -3 0 -5 -2 -5
-5z"/>
<path d="M664 338 c-4 -7 -3 -8 4 -4 7 4 12 9 12 12 0 8 -9 4 -16 -8z"/>
<path d="M20 335 c0 -3 2 -5 5 -5 3 0 5 2 5 5 0 3 -2 5 -5 5 -3 0 -5 -2 -5 -5z"/>
<path d="M180 335 c0 -3 2 -5 5 -5 3 0 5 2 5 5 0 3 -2 5 -5 5 -3 0 -5 -2 -5
-5z"/>
<path d="M230 335 c0 -3 2 -5 5 -5 3 0 5 2 5 5 0 3 -2 5 -5 5 -3 0 -5 -2 -5
-5z"/>
<path d="M550 335 c0 -3 2 -5 5 -5 3 0 5 2 5 5 0 3 -2 5 -5 5 -3 0 -5 -2 -5
-5z"/>
<path d="M870 335 c0 -3 2 -5 5 -5 3 0 5 2 5 5 0 3 -2 5 -5 5 -3 0 -5 -2 -5
-5z"/>
<path d="M288 246 c-23 -17 -23 -22 2 -29 11 -3 18 -1 15 3 -3 5 1 11 7 13 10
4 10 6 0 6 -7 1 -10 6 -7 11 8 13 4 12 -17 -4z m12 -11 c0 -3 -2 -5 -5 -5 -3
0 -5 2 -5 5 0 3 2 5 5 5 3 0 5 -2 5 -5z"/>
<path d="M333 226 c1 -14 6 -26 11 -26 4 0 5 -7 2 -16 -3 -8 -2 -12 4 -9 6 3
7 18 4 33 -9 38 -22 49 -21 18z"/>
<path d="M923 243 c-19 -7 -16 -20 7 -26 11 -3 18 -1 15 3 -3 5 0 10 7 12 8 3
8 6 -3 10 -7 3 -20 3 -26 1z m17 -8 c0 -3 -2 -5 -5 -5 -3 0 -5 2 -5 5 0 3 2 5
5 5 3 0 5 -2 5 -5z"/>
<path d="M380 235 c0 -3 2 -5 5 -5 3 0 5 2 5 5 0 3 -2 5 -5 5 -3 0 -5 -2 -5
-5z"/>
<path d="M603 193 c4 -3 10 -3 14 0 3 4 0 7 -7 7 -7 0 -10 -3 -7 -7z"/>
<path d="M184 178 c-4 -7 -3 -8 4 -4 7 4 12 9 12 12 0 8 -9 4 -16 -8z"/>
<path d="M824 178 c-4 -7 -3 -8 4 -4 7 4 12 9 12 12 0 8 -9 4 -16 -8z"/>
<path d="M240 175 c0 -3 2 -5 5 -5 3 0 5 2 5 5 0 3 -2 5 -5 5 -3 0 -5 -2 -5
-5z"/>
<path d="M457 159 c-3 -11 -15 -23 -26 -26 -12 -3 -21 -9 -21 -14 0 -8 27 -2
45 11 6 4 18 6 27 5 14 -3 16 0 8 15 -15 29 -27 32 -33 9z"/>
<path d="M500 175 c0 -3 2 -5 5 -5 3 0 5 2 5 5 0 3 -2 5 -5 5 -3 0 -5 -2 -5
-5z"/>
<path d="M586 165 c-3 -9 -2 -13 4 -10 6 3 10 0 10 -8 0 -11 7 -13 22 -9 16 4
18 7 8 10 -8 2 -20 11 -26 18 -10 13 -13 12 -18 -1z"/>
<path d="M880 175 c0 -3 2 -5 5 -5 3 0 5 2 5 5 0 3 -2 5 -5 5 -3 0 -5 -2 -5
-5z"/>
<path d="M60 165 c0 -3 2 -5 5 -5 3 0 5 2 5 5 0 3 -2 5 -5 5 -3 0 -5 -2 -5 -5z"/>
<path d="M118 140 c-26 -26 -27 -29 -10 -41 15 -13 16 -12 3 4 -12 15 -11 17
3 17 20 0 57 31 50 42 -8 12 -16 8 -46 -22z"/>
<path d="M380 165 c0 -3 2 -5 5 -5 3 0 5 2 5 5 0 3 -2 5 -5 5 -3 0 -5 -2 -5
-5z"/>
<path d="M700 165 c0 -3 2 -5 5 -5 3 0 5 2 5 5 0 3 -2 5 -5 5 -3 0 -5 -2 -5
-5z"/>
<path d="M758 140 c-26 -26 -27 -29 -10 -41 15 -13 16 -12 3 4 -12 15 -11 17
3 17 20 0 57 31 50 42 -8 12 -16 8 -46 -22z"/>
<path d="M30 143 c0 -28 31 -31 51 -5 13 15 12 16 -4 3 -15 -12 -19 -12 -32 5
-14 18 -14 18 -15 -3z"/>
<path d="M352 148 c-17 -21 11 -40 34 -23 18 13 18 13 -1 12 -11 -1 -19 3 -17
11 1 6 0 12 -2 12 -2 0 -8 -6 -14 -12z"/>
<path d="M510 155 c0 -3 2 -5 5 -5 3 0 5 2 5 5 0 3 -2 5 -5 5 -3 0 -5 -2 -5
-5z"/>
<path d="M670 143 c0 -28 31 -31 51 -5 13 15 12 16 -4 3 -15 -12 -19 -12 -32
5 -14 18 -14 18 -15 -3z"/>
<path d="M224 138 c-4 -7 -3 -8 4 -4 12 7 16 16 8 16 -3 0 -8 -5 -12 -12z"/>
<path d="M298 143 c6 -2 18 -2 25 0 6 3 1 5 -13 5 -14 0 -19 -2 -12 -5z"/>
<path d="M550 139 c0 -5 -5 -7 -12 -3 -7 4 -8 3 -4 -4 12 -20 15 -51 5 -57 -5
-4 -18 -4 -28 0 -13 4 -17 12 -13 27 3 14 1 19 -6 14 -15 -9 -16 -46 -1 -46 6
0 9 -6 6 -14 -3 -8 2 -16 14 -19 17 -4 18 -3 8 9 -17 21 6 18 31 -4 11 -9 23
-15 27 -14 3 2 10 -2 15 -10 8 -10 9 -10 5 2 -2 8 -10 14 -16 12 -8 -1 -11 7
-8 26 3 15 -2 36 -9 47 -10 13 -11 22 -3 32 8 9 8 13 0 13 -6 0 -11 -5 -11
-11z m20 -73 c0 -3 -4 -8 -10 -11 -5 -3 -10 -1 -10 4 0 6 5 11 10 11 6 0 10
-2 10 -4z"/>
<path d="M864 138 c-4 -7 -3 -8 4 -4 7 4 12 9 12 12 0 8 -9 4 -16 -8z"/>
<path d="M938 143 c7 -3 16 -2 19 1 4 3 -2 6 -13 5 -11 0 -14 -3 -6 -6z"/>
<path d="M191 124 c0 -11 3 -14 6 -6 3 7 2 16 -1 19 -3 4 -6 -2 -5 -13z"/>
<path d="M510 135 c0 -3 2 -5 5 -5 3 0 5 2 5 5 0 3 -2 5 -5 5 -3 0 -5 -2 -5
-5z"/>
<path d="M831 124 c0 -11 3 -14 6 -6 3 7 2 16 -1 19 -3 4 -6 -2 -5 -13z"/>
<path d="M10 125 c0 -3 2 -5 5 -5 3 0 5 2 5 5 0 3 -2 5 -5 5 -3 0 -5 -2 -5 -5z"/>
<path d="M163 110 c-10 -14 -9 -21 3 -31 27 -22 12 -44 -30 -44 -24 0 -41 -5
-44 -14 -3 -8 0 -11 6 -7 6 3 13 2 17 -4 3 -5 11 -10 17 -10 6 0 5 7 -3 17
-13 15 -11 16 12 10 36 -9 51 11 43 59 -7 48 -7 47 -21 24z"/>
<path d="M650 125 c0 -3 2 -5 5 -5 3 0 5 2 5 5 0 3 -2 5 -5 5 -3 0 -5 -2 -5
-5z"/>
<path d="M803 110 c-10 -14 -9 -21 3 -31 27 -22 12 -44 -30 -44 -24 0 -41 -5
-44 -14 -3 -8 0 -11 6 -7 6 3 13 2 17 -4 3 -5 11 -10 17 -10 6 0 5 7 -3 17
-13 15 -11 16 12 10 36 -9 51 11 43 59 -7 48 -7 47 -21 24z"/>
<path d="M230 105 c11 -13 10 -18 -5 -29 -13 -9 -15 -15 -7 -20 7 -4 12 -2 12
3 0 6 4 11 9 11 5 0 7 -8 4 -19 -3 -10 -1 -21 4 -24 11 -7 10 50 -2 76 -4 9
-12 17 -17 17 -6 0 -5 -7 2 -15z"/>
<path d="M290 120 c-9 -31 -6 -40 13 -40 13 0 17 3 11 8 -6 4 -14 14 -17 22
-3 8 -6 13 -7 10z"/>
<path d="M316 108 c3 -5 10 -6 15 -3 13 9 11 12 -6 12 -8 0 -12 -4 -9 -9z"/>
<path d="M609 118 c-7 -23 -4 -38 7 -42 7 -3 16 -1 19 5 4 5 -1 12 -9 15 -9 3
-13 10 -10 15 3 5 3 9 0 9 -3 0 -6 -1 -7 -2z"/>
<path d="M870 105 c11 -13 10 -18 -5 -29 -13 -9 -15 -15 -7 -20 7 -4 12 -2 12
3 0 6 4 11 9 11 5 0 7 -8 4 -19 -3 -10 -1 -21 4 -24 11 -7 10 50 -2 76 -4 9
-12 17 -17 17 -6 0 -5 -7 2 -15z"/>
<path d="M930 120 c-9 -31 -6 -40 13 -40 13 0 17 3 11 8 -6 4 -14 14 -17 22
-3 8 -6 13 -7 10z"/>
<path d="M950 115 c0 -3 2 -5 5 -5 3 0 5 2 5 5 0 3 -2 5 -5 5 -3 0 -5 -2 -5
-5z"/>
<path d="M5 100 c3 -5 8 -10 11 -10 3 0 2 5 -1 10 -3 6 -8 10 -11 10 -3 0 -2
-4 1 -10z"/>
<path d="M645 100 c3 -5 8 -10 11 -10 3 0 2 5 -1 10 -3 6 -8 10 -11 10 -3 0
-2 -4 1 -10z"/>
<path d="M20 75 c0 -3 2 -5 5 -5 3 0 5 2 5 5 0 3 -2 5 -5 5 -3 0 -5 -2 -5 -5z"/>
<path d="M60 70 c-8 -5 -12 -12 -9 -15 4 -3 12 1 19 10 14 17 11 19 -10 5z"/>
<path d="M140 75 c0 -3 2 -5 5 -5 3 0 5 2 5 5 0 3 -2 5 -5 5 -3 0 -5 -2 -5 -5z"/>
<path d="M340 75 c0 -3 2 -5 5 -5 3 0 5 2 5 5 0 3 -2 5 -5 5 -3 0 -5 -2 -5 -5z"/>
<path d="M380 70 c-8 -5 -12 -12 -9 -15 4 -3 12 1 19 10 14 17 11 19 -10 5z"/>
<path d="M454 68 c-4 -7 -3 -8 4 -4 12 7 16 16 8 16 -3 0 -8 -5 -12 -12z"/>
<path d="M660 75 c0 -3 2 -5 5 -5 3 0 5 2 5 5 0 3 -2 5 -5 5 -3 0 -5 -2 -5 -5z"/>
<path d="M700 70 c-8 -5 -12 -12 -9 -15 4 -3 12 1 19 10 14 17 11 19 -10 5z"/>
<path d="M780 75 c0 -3 2 -5 5 -5 3 0 5 2 5 5 0 3 -2 5 -5 5 -3 0 -5 -2 -5 -5z"/>
<path d="M80 50 c0 -7 3 -10 7 -7 3 4 3 10 0 14 -4 3 -7 0 -7 -7z"/>
<path d="M407 42 c1 -8 3 -18 3 -23 0 -6 4 -8 9 -4 5 3 12 1 16 -5 9 -15 25
-2 18 15 -3 8 -13 15 -23 15 -10 0 -20 3 -23 8 -2 4 -2 1 0 -6z m43 -27 c0 -3
-2 -5 -5 -5 -3 0 -5 2 -5 5 0 3 2 5 5 5 3 0 5 -2 5 -5z"/>
<path d="M720 50 c0 -7 3 -10 7 -7 3 4 3 10 0 14 -4 3 -7 0 -7 -7z"/>
<path d="M462 38 c2 -6 10 -13 16 -14 7 -1 8 0 2 3 -5 2 -8 9 -4 14 3 5 0 9
-6 9 -7 0 -10 -5 -8 -12z"/>
<path d="M35 30 c3 -5 8 -10 11 -10 3 0 2 5 -1 10 -3 6 -8 10 -11 10 -3 0 -2
-4 1 -10z"/>
<path d="M370 35 c0 -3 2 -5 5 -5 3 0 5 2 5 5 0 3 -2 5 -5 5 -3 0 -5 -2 -5 -5z"/>
<path d="M675 30 c3 -5 8 -10 11 -10 3 0 2 5 -1 10 -3 6 -8 10 -11 10 -3 0 -2
-4 1 -10z"/>
<path d="M210 25 c0 -3 2 -5 5 -5 3 0 5 2 5 5 0 3 -2 5 -5 5 -3 0 -5 -2 -5 -5z"/>
<path d="M270 20 c0 -5 4 -10 9 -10 5 0 18 -3 28 -6 16 -5 16 -4 -1 10 -23 18
-36 20 -36 6z"/>
<path d="M320 25 c0 -3 2 -5 5 -5 3 0 5 2 5 5 0 3 -2 5 -5 5 -3 0 -5 -2 -5 -5z"/>
<path d="M344 18 c-4 -7 -3 -8 4 -4 7 4 12 9 12 12 0 8 -9 4 -16 -8z"/>
<path d="M850 25 c0 -3 2 -5 5 -5 3 0 5 2 5 5 0 3 -2 5 -5 5 -3 0 -5 -2 -5 -5z"/>
<path d="M910 20 c0 -5 4 -10 9 -10 5 0 18 -3 28 -6 16 -5 16 -4 -1 10 -23 18
-36 20 -36 6z"/>
<path d="M14 8 c-4 -7 -3 -8 4 -4 12 7 16 16 8 16 -3 0 -8 -5 -12 -12z"/>
<path d="M230 15 c0 -3 2 -5 5 -5 3 0 5 2 5 5 0 3 -2 5 -5 5 -3 0 -5 -2 -5 -5z"/>
<path d="M550 15 c0 -3 2 -5 5 -5 3 0 5 2 5 5 0 3 -2 5 -5 5 -3 0 -5 -2 -5 -5z"/>
<path d="M615 10 c3 -5 10 -10 16 -10 5 0 9 5 9 10 0 6 -7 10 -16 10 -8 0 -12
-4 -9 -10z"/>
<path d="M654 8 c-4 -7 -3 -8 4 -4 12 7 16 16 8 16 -3 0 -8 -5 -12 -12z"/>
<path d="M870 15 c0 -3 2 -5 5 -5 3 0 5 2 5 5 0 3 -2 5 -5 5 -3 0 -5 -2 -5 -5z"/>
</g>
<g transform="translate(0.000000,96.000000) scale(0.100000,-0.100000)"
fill="#eff8f8" stroke="none">
<path d="M2 938 c2 -13 10 -23 18 -24 21 0 54 -15 62 -28 4 -6 9 -4 12 7 18
54 17 53 27 28 8 -19 12 -21 24 -11 13 10 15 9 15 -10 0 -20 2 -21 16 -9 14
11 19 10 34 -9 10 -12 21 -18 24 -13 4 5 2 13 -4 16 -8 5 -7 11 1 21 8 10 16
11 31 3 14 -8 23 -8 31 0 15 15 40 14 31 -1 -6 -10 -4 -10 8 0 14 11 21 11 40
0 13 -7 26 -17 30 -23 4 -5 9 -3 12 5 17 56 17 57 27 31 8 -19 12 -21 24 -11
13 10 15 9 15 -10 0 -20 2 -21 16 -9 14 11 19 10 34 -9 10 -12 21 -18 24 -13
4 5 2 13 -4 16 -8 5 -7 11 1 21 8 10 16 11 31 3 13 -7 23 -7 32 0 19 16 106
-1 106 -21 0 -5 4 -6 10 -3 6 3 10 15 10 25 0 10 5 22 12 26 7 5 9 2 5 -9 -7
-19 16 -30 32 -14 8 8 11 5 11 -12 0 -19 3 -21 15 -11 11 9 18 9 35 -3 11 -7
17 -17 13 -20 -3 -4 -1 -7 5 -7 15 0 16 17 2 25 -20 13 10 36 31 25 23 -13 59
7 59 32 0 17 -29 18 -481 18 l-480 0 3 -22z"/>
<path d="M20 900 c0 -5 7 -10 16 -10 8 0 12 5 9 10 -3 6 -10 10 -16 10 -5 0
-9 -4 -9 -10z"/>
<path d="M345 900 c-3 -5 -1 -10 4 -10 6 0 11 5 11 10 0 6 -2 10 -4 10 -3 0
-8 -4 -11 -10z"/>
<path d="M665 899 c-4 -6 -5 -12 -2 -15 2 -3 7 2 10 11 7 17 1 20 -8 4z"/>
<path d="M900 865 c0 -3 2 -5 5 -5 3 0 5 2 5 5 0 3 -2 5 -5 5 -3 0 -5 -2 -5
-5z"/>
<path d="M620 855 c0 -3 2 -5 5 -5 3 0 5 2 5 5 0 3 -2 5 -5 5 -3 0 -5 -2 -5
-5z"/>
<path d="M90 845 c0 -3 2 -5 5 -5 3 0 5 2 5 5 0 3 -2 5 -5 5 -3 0 -5 -2 -5 -5z"/>
<path d="M150 835 c0 -3 2 -5 5 -5 3 0 5 2 5 5 0 3 -2 5 -5 5 -3 0 -5 -2 -5
-5z"/>
<path d="M200 835 c0 -3 2 -5 5 -5 3 0 5 2 5 5 0 3 -2 5 -5 5 -3 0 -5 -2 -5
-5z"/>
<path d="M410 835 c0 -3 2 -5 5 -5 3 0 5 2 5 5 0 3 -2 5 -5 5 -3 0 -5 -2 -5
-5z"/>
<path d="M720 830 c-9 -6 -10 -10 -3 -10 6 0 15 5 18 10 8 12 4 12 -15 0z"/>
<path d="M870 835 c0 -3 2 -5 5 -5 3 0 5 2 5 5 0 3 -2 5 -5 5 -3 0 -5 -2 -5
-5z"/>
<path d="M80 820 c0 -7 3 -10 7 -7 3 4 3 10 0 14 -4 3 -7 0 -7 -7z"/>
<path d="M395 820 c3 -5 8 -10 11 -10 3 0 2 5 -1 10 -3 6 -8 10 -11 10 -3 0
-2 -4 1 -10z"/>
<path d="M420 815 c0 -3 2 -5 5 -5 3 0 5 2 5 5 0 3 -2 5 -5 5 -3 0 -5 -2 -5
-5z"/>
<path d="M60 805 c0 -3 2 -5 5 -5 3 0 5 2 5 5 0 3 -2 5 -5 5 -3 0 -5 -2 -5 -5z"/>
<path d="M380 805 c0 -3 2 -5 5 -5 3 0 5 2 5 5 0 3 -2 5 -5 5 -3 0 -5 -2 -5
-5z"/>
<path d="M280 749 c0 -5 5 -7 10 -4 6 3 10 8 10 11 0 2 -4 4 -10 4 -5 0 -10
-5 -10 -11z"/>
<path d="M510 755 c0 -3 2 -5 5 -5 3 0 5 2 5 5 0 3 -2 5 -5 5 -3 0 -5 -2 -5
-5z"/>
<path d="M610 750 c0 -7 3 -10 7 -7 3 4 3 10 0 14 -4 3 -7 0 -7 -7z"/>
<path d="M928 753 c7 -3 16 -2 19 1 4 3 -2 6 -13 5 -11 0 -14 -3 -6 -6z"/>
<path d="M150 745 c0 -3 2 -5 5 -5 3 0 5 2 5 5 0 3 -2 5 -5 5 -3 0 -5 -2 -5
-5z"/>
<path d="M100 735 c0 -3 2 -5 5 -5 3 0 5 2 5 5 0 3 -2 5 -5 5 -3 0 -5 -2 -5
-5z"/>
<path d="M166 723 c-6 -14 -5 -15 5 -6 7 7 10 15 7 18 -3 3 -9 -2 -12 -12z"/>
<path d="M430 735 c0 -3 2 -5 5 -5 3 0 5 2 5 5 0 3 -2 5 -5 5 -3 0 -5 -2 -5
-5z"/>
<path d="M475 730 c3 -5 13 -10 21 -10 8 0 12 5 9 10 -3 6 -13 10 -21 10 -8 0
-12 -4 -9 -10z"/>
<path d="M750 735 c0 -3 2 -5 5 -5 3 0 5 2 5 5 0 3 -2 5 -5 5 -3 0 -5 -2 -5
-5z"/>
<path d="M796 725 c-3 -8 -1 -15 3 -15 5 0 11 7 15 15 3 8 1 15 -3 15 -5 0
-11 -7 -15 -15z"/>
<path d="M80 685 c0 -3 2 -5 5 -5 3 0 5 2 5 5 0 3 -2 5 -5 5 -3 0 -5 -2 -5 -5z"/>
<path d="M400 685 c0 -3 2 -5 5 -5 3 0 5 2 5 5 0 3 -2 5 -5 5 -3 0 -5 -2 -5
-5z"/>
<path d="M570 685 c0 -3 2 -5 5 -5 3 0 5 2 5 5 0 3 -2 5 -5 5 -3 0 -5 -2 -5
-5z"/>
<path d="M720 685 c0 -3 2 -5 5 -5 3 0 5 2 5 5 0 3 -2 5 -5 5 -3 0 -5 -2 -5
-5z"/>
<path d="M840 675 c0 -3 2 -5 5 -5 3 0 5 2 5 5 0 3 -2 5 -5 5 -3 0 -5 -2 -5
-5z"/>
<path d="M760 665 c0 -3 2 -5 5 -5 3 0 5 2 5 5 0 3 -2 5 -5 5 -3 0 -5 -2 -5
-5z"/>
<path d="M130 650 c0 -6 -29 -10 -66 -10 -62 0 -65 -1 -62 -22 2 -13 10 -23
18 -24 27 -2 60 -16 60 -26 0 -5 5 -6 10 -3 6 3 10 15 10 25 0 10 5 22 12 26
7 5 9 2 5 -9 -7 -19 16 -30 32 -14 8 8 11 5 11 -12 0 -20 2 -22 16 -10 14 12
20 9 40 -16 17 -22 24 -25 24 -13 0 9 -5 20 -10 23 -8 5 -7 11 1 21 8 10 16
11 31 3 14 -8 23 -8 31 0 15 15 40 14 31 -1 -6 -10 -4 -10 8 0 14 11 21 11 40
0 13 -7 26 -17 30 -23 4 -5 9 -3 12 5 17 56 17 57 27 31 8 -19 12 -21 24 -11
13 10 15 9 15 -10 0 -20 2 -21 16 -9 14 11 19 10 34 -9 10 -12 21 -18 24 -13
4 5 2 13 -4 16 -8 5 -7 11 1 21 8 10 16 11 31 3 13 -7 23 -7 32 0 19 16 106
-1 106 -21 0 -5 5 -6 10 -3 6 3 10 15 10 25 0 10 5 22 12 26 7 5 9 2 5 -9 -7
-19 16 -30 32 -14 8 8 11 5 11 -12 0 -19 3 -21 15 -11 11 9 18 9 35 -3 11 -7
17 -17 13 -20 -3 -4 -1 -7 5 -7 15 0 16 17 2 25 -20 13 10 36 31 25 23 -13 59
7 59 32 0 20 37 19 -508 18 -207 0 -311 3 -307 10 3 5 1 10 -4 10 -6 0 -11 -4
-11 -10z"/>
<path d="M20 575 c-11 -13 -10 -14 4 -9 9 3 16 10 16 15 0 13 -6 11 -20 -6z"/>
<path d="M345 580 c-3 -5 -1 -10 4 -10 6 0 11 5 11 10 0 6 -2 10 -4 10 -3 0
-8 -4 -11 -10z"/>
<path d="M660 575 c-11 -13 -10 -14 4 -9 9 3 16 10 16 15 0 13 -6 11 -20 -6z"/>
<path d="M900 545 c0 -3 2 -5 5 -5 3 0 5 2 5 5 0 3 -2 5 -5 5 -3 0 -5 -2 -5
-5z"/>
<path d="M620 535 c0 -3 2 -5 5 -5 3 0 5 2 5 5 0 3 -2 5 -5 5 -3 0 -5 -2 -5
-5z"/>
<path d="M93 513 c4 -3 10 -3 14 0 3 4 0 7 -7 7 -7 0 -10 -3 -7 -7z"/>
<path d="M220 515 c0 -3 2 -5 5 -5 3 0 5 2 5 5 0 3 -2 5 -5 5 -3 0 -5 -2 -5
-5z"/>
<path d="M410 515 c0 -3 2 -5 5 -5 3 0 5 2 5 5 0 3 -2 5 -5 5 -3 0 -5 -2 -5
-5z"/>
<path d="M720 510 c-9 -6 -10 -10 -3 -10 6 0 15 5 18 10 8 12 4 12 -15 0z"/>
<path d="M870 515 c0 -3 2 -5 5 -5 3 0 5 2 5 5 0 3 -2 5 -5 5 -3 0 -5 -2 -5
-5z"/>
<path d="M60 505 c0 -3 2 -5 5 -5 3 0 5 2 5 5 0 3 -2 5 -5 5 -3 0 -5 -2 -5 -5z"/>
<path d="M395 500 c3 -5 8 -10 11 -10 3 0 2 5 -1 10 -3 6 -8 10 -11 10 -3 0
-2 -4 1 -10z"/>
<path d="M420 495 c0 -3 2 -5 5 -5 3 0 5 2 5 5 0 3 -2 5 -5 5 -3 0 -5 -2 -5
-5z"/>
<path d="M60 485 c0 -3 2 -5 5 -5 3 0 5 2 5 5 0 3 -2 5 -5 5 -3 0 -5 -2 -5 -5z"/>
<path d="M380 485 c0 -3 2 -5 5 -5 3 0 5 2 5 5 0 3 -2 5 -5 5 -3 0 -5 -2 -5
-5z"/>
<path d="M700 485 c0 -3 2 -5 5 -5 3 0 5 2 5 5 0 3 -2 5 -5 5 -3 0 -5 -2 -5
-5z"/>
<path d="M190 435 c0 -3 2 -5 5 -5 3 0 5 2 5 5 0 3 -2 5 -5 5 -3 0 -5 -2 -5
-5z"/>
<path d="M290 430 c0 -7 3 -10 7 -7 3 4 3 10 0 14 -4 3 -7 0 -7 -7z"/>
<path d="M510 435 c0 -3 2 -5 5 -5 3 0 5 2 5 5 0 3 -2 5 -5 5 -3 0 -5 -2 -5
-5z"/>
<path d="M610 430 c0 -7 3 -10 7 -7 3 4 3 10 0 14 -4 3 -7 0 -7 -7z"/>
<path d="M930 435 c0 -3 2 -5 5 -5 3 0 5 2 5 5 0 3 -2 5 -5 5 -3 0 -5 -2 -5
-5z"/>
<path d="M110 415 c0 -3 2 -5 5 -5 3 0 5 2 5 5 0 3 -2 5 -5 5 -3 0 -5 -2 -5
-5z"/>
<path d="M170 415 c0 -3 2 -5 5 -5 3 0 5 2 5 5 0 3 -2 5 -5 5 -3 0 -5 -2 -5
-5z"/>
<path d="M430 415 c0 -3 2 -5 5 -5 3 0 5 2 5 5 0 3 -2 5 -5 5 -3 0 -5 -2 -5
-5z"/>
<path d="M475 410 c3 -5 13 -10 21 -10 8 0 12 5 9 10 -3 6 -13 10 -21 10 -8 0
-12 -4 -9 -10z"/>
<path d="M800 405 c0 -8 2 -15 4 -15 2 0 6 7 10 15 3 8 1 15 -4 15 -6 0 -10
-7 -10 -15z"/>
<path d="M770 385 c0 -3 2 -5 5 -5 3 0 5 2 5 5 0 3 -2 5 -5 5 -3 0 -5 -2 -5
-5z"/>
<path d="M400 365 c0 -3 2 -5 5 -5 3 0 5 2 5 5 0 3 -2 5 -5 5 -3 0 -5 -2 -5
-5z"/>
<path d="M570 365 c0 -3 2 -5 5 -5 3 0 5 2 5 5 0 3 -2 5 -5 5 -3 0 -5 -2 -5
-5z"/>
<path d="M60 355 c0 -3 2 -5 5 -5 3 0 5 2 5 5 0 3 -2 5 -5 5 -3 0 -5 -2 -5 -5z"/>
<path d="M690 355 c0 -3 2 -5 5 -5 3 0 5 2 5 5 0 3 -2 5 -5 5 -3 0 -5 -2 -5
-5z"/>
<path d="M840 355 c0 -3 2 -5 5 -5 3 0 5 2 5 5 0 3 -2 5 -5 5 -3 0 -5 -2 -5
-5z"/>
<path d="M120 331 c0 -7 -22 -11 -60 -11 l-60 0 2 -29 c2 -22 5 -27 14 -20 13
10 51 -5 66 -26 4 -5 9 -3 12 5 17 56 17 57 27 31 8 -19 12 -21 24 -11 13 10
15 9 15 -10 0 -20 2 -21 16 -9 14 11 19 10 34 -9 10 -12 21 -18 24 -13 4 5 2
13 -4 16 -8 5 -7 11 1 21 8 10 16 11 31 3 13 -7 23 -7 32 0 19 16 106 -1 106
-21 0 -5 5 -6 10 -3 6 3 10 15 10 25 0 10 5 22 12 26 7 5 9 2 5 -9 -7 -19 16
-30 32 -14 8 8 11 5 11 -12 0 -19 3 -21 15 -11 11 9 18 9 35 -3 11 -7 17 -17
13 -20 -3 -4 -1 -7 5 -7 15 0 16 17 2 25 -8 5 -7 11 1 21 8 10 16 11 31 3 14
-8 23 -8 31 0 15 15 40 14 31 -1 -6 -10 -4 -10 8 0 14 11 21 11 40 0 13 -7 26
-17 30 -23 4 -5 9 -2 12 8 18 54 17 53 27 28 8 -19 12 -21 24 -11 13 10 15 9
15 -10 0 -20 2 -21 16 -9 14 11 19 10 34 -9 10 -12 21 -18 24 -13 4 5 2 13 -4
16 -20 13 9 36 31 25 23 -13 59 7 59 32 0 16 -11 18 -96 18 -73 0 -93 3 -88
13 6 9 5 9 -7 0 -21 -17 -616 -18 -636 -2 -9 8 -13 8 -13 0z"/>
<path d="M25 260 c-3 -5 -1 -10 4 -10 6 0 11 5 11 10 0 6 -2 10 -4 10 -3 0 -8
-4 -11 -10z"/>
<path d="M340 255 c-11 -13 -10 -14 4 -9 9 3 16 10 16 15 0 13 -6 11 -20 -6z"/>
<path d="M665 260 c-3 -5 -1 -10 4 -10 6 0 11 5 11 10 0 6 -2 10 -4 10 -3 0
-8 -4 -11 -10z"/>
<path d="M580 225 c0 -3 2 -5 5 -5 3 0 5 2 5 5 0 3 -2 5 -5 5 -3 0 -5 -2 -5
-5z"/>
<path d="M300 215 c0 -3 2 -5 5 -5 3 0 5 2 5 5 0 3 -2 5 -5 5 -3 0 -5 -2 -5
-5z"/>
<path d="M940 215 c0 -3 2 -5 5 -5 3 0 5 2 5 5 0 3 -2 5 -5 5 -3 0 -5 -2 -5
-5z"/>
<path d="M90 195 c0 -3 2 -5 5 -5 3 0 5 2 5 5 0 3 -2 5 -5 5 -3 0 -5 -2 -5 -5z"/>
<path d="M400 190 c-9 -6 -10 -10 -3 -10 6 0 15 5 18 10 8 12 4 12 -15 0z"/>
<path d="M550 195 c0 -3 2 -5 5 -5 3 0 5 2 5 5 0 3 -2 5 -5 5 -3 0 -5 -2 -5
-5z"/>
<path d="M730 195 c0 -3 2 -5 5 -5 3 0 5 2 5 5 0 3 -2 5 -5 5 -3 0 -5 -2 -5
-5z"/>
<path d="M75 180 c3 -5 8 -10 11 -10 3 0 2 5 -1 10 -3 6 -8 10 -11 10 -3 0 -2
-4 1 -10z"/>
<path d="M715 180 c3 -5 8 -10 11 -10 3 0 2 5 -1 10 -3 6 -8 10 -11 10 -3 0
-2 -4 1 -10z"/>
<path d="M100 175 c0 -3 2 -5 5 -5 3 0 5 2 5 5 0 3 -2 5 -5 5 -3 0 -5 -2 -5
-5z"/>
<path d="M740 175 c0 -3 2 -5 5 -5 3 0 5 2 5 5 0 3 -2 5 -5 5 -3 0 -5 -2 -5
-5z"/>
<path d="M60 165 c0 -3 2 -5 5 -5 3 0 5 2 5 5 0 3 -2 5 -5 5 -3 0 -5 -2 -5 -5z"/>
<path d="M380 165 c0 -3 2 -5 5 -5 3 0 5 2 5 5 0 3 -2 5 -5 5 -3 0 -5 -2 -5
-5z"/>
<path d="M700 165 c0 -3 2 -5 5 -5 3 0 5 2 5 5 0 3 -2 5 -5 5 -3 0 -5 -2 -5
-5z"/>
<path d="M190 115 c0 -3 2 -5 5 -5 3 0 5 2 5 5 0 3 -2 5 -5 5 -3 0 -5 -2 -5
-5z"/>
<path d="M290 110 c0 -7 3 -10 7 -7 3 4 3 10 0 14 -4 3 -7 0 -7 -7z"/>
<path d="M610 115 c0 -3 2 -5 5 -5 3 0 5 2 5 5 0 3 -2 5 -5 5 -3 0 -5 -2 -5
-5z"/>
<path d="M830 115 c0 -3 2 -5 5 -5 3 0 5 2 5 5 0 3 -2 5 -5 5 -3 0 -5 -2 -5
-5z"/>
<path d="M930 110 c0 -7 3 -10 7 -7 3 4 3 10 0 14 -4 3 -7 0 -7 -7z"/>
<path d="M110 95 c0 -3 2 -5 5 -5 3 0 5 2 5 5 0 3 -2 5 -5 5 -3 0 -5 -2 -5 -5z"/>
<path d="M155 90 c3 -5 13 -10 21 -10 8 0 12 5 9 10 -3 6 -13 10 -21 10 -8 0
-12 -4 -9 -10z"/>
<path d="M480 85 c0 -8 2 -15 4 -15 2 0 6 7 10 15 3 8 1 15 -4 15 -6 0 -10 -7
-10 -15z"/>
<path d="M750 95 c0 -3 2 -5 5 -5 3 0 5 2 5 5 0 3 -2 5 -5 5 -3 0 -5 -2 -5 -5z"/>
<path d="M795 90 c3 -5 13 -10 21 -10 8 0 12 5 9 10 -3 6 -13 10 -21 10 -8 0
-12 -4 -9 -10z"/>
<path d="M450 65 c0 -3 2 -5 5 -5 3 0 5 2 5 5 0 3 -2 5 -5 5 -3 0 -5 -2 -5 -5z"/>
<path d="M80 45 c0 -3 2 -5 5 -5 3 0 5 2 5 5 0 3 -2 5 -5 5 -3 0 -5 -2 -5 -5z"/>
<path d="M250 45 c0 -3 2 -5 5 -5 3 0 5 2 5 5 0 3 -2 5 -5 5 -3 0 -5 -2 -5 -5z"/>
<path d="M720 45 c0 -3 2 -5 5 -5 3 0 5 2 5 5 0 3 -2 5 -5 5 -3 0 -5 -2 -5 -5z"/>
<path d="M890 45 c0 -3 2 -5 5 -5 3 0 5 2 5 5 0 3 -2 5 -5 5 -3 0 -5 -2 -5 -5z"/>
<path d="M370 35 c0 -3 2 -5 5 -5 3 0 5 2 5 5 0 3 -2 5 -5 5 -3 0 -5 -2 -5 -5z"/>
<path d="M520 35 c0 -3 2 -5 5 -5 3 0 5 2 5 5 0 3 -2 5 -5 5 -3 0 -5 -2 -5 -5z"/>
<path d="M444 8 c-4 -7 -3 -8 4 -4 12 7 16 16 8 16 -3 0 -8 -5 -12 -12z"/>
<path d="M123 3 c4 -3 10 -3 14 0 3 4 0 7 -7 7 -7 0 -10 -3 -7 -7z"/>
<path d="M763 3 c4 -3 10 -3 14 0 3 4 0 7 -7 7 -7 0 -10 -3 -7 -7z"/>
</g>
<g transform="translate(0.000000,96.000000) scale(0.100000,-0.100000)"
fill="#bccbcb" stroke="none">
<path d="M104 938 c-4 -7 -3 -8 4 -4 12 7 16 16 8 16 -3 0 -8 -5 -12 -12z"/>
<path d="M424 938 c-4 -7 -3 -8 4 -4 12 7 16 16 8 16 -3 0 -8 -5 -12 -12z"/>
<path d="M744 938 c-4 -7 -3 -8 4 -4 7 4 12 9 12 12 0 8 -9 4 -16 -8z"/>
<path d="M910 935 c0 -3 2 -5 5 -5 3 0 5 2 5 5 0 3 -2 5 -5 5 -3 0 -5 -2 -5
-5z"/>
<path d="M13 909 c13 -20 21 -22 51 -10 19 7 18 8 -5 16 -48 15 -59 14 -46 -6z
m32 1 c3 -6 -1 -7 -9 -4 -18 7 -21 14 -7 14 6 0 13 -4 16 -10z"/>
<path d="M145 920 c-4 -6 -11 -7 -17 -4 -7 4 -8 2 -4 -5 6 -9 11 -9 22 0 14
11 18 19 10 19 -3 0 -8 -5 -11 -10z"/>
<path d="M229 912 c-11 -14 -11 -15 1 -5 9 9 19 9 33 2 13 -8 22 -8 30 0 15
15 40 14 31 -1 -6 -10 -4 -10 7 0 18 17 34 15 19 -3 -9 -10 -9 -15 -1 -15 6 0
11 4 11 9 0 5 10 7 23 4 20 -4 20 -4 -3 9 -31 17 -70 20 -86 7 -9 -7 -19 -7
-32 0 -16 8 -23 7 -33 -7z"/>
<path d="M465 920 c-4 -6 -11 -7 -17 -4 -7 4 -8 2 -4 -5 6 -9 11 -9 22 0 14
11 18 19 10 19 -3 0 -8 -5 -11 -10z"/>
<path d="M549 912 c-11 -14 -11 -15 1 -5 9 9 19 9 32 2 12 -7 24 -7 31 -1 17
14 72 13 58 -1 -6 -6 -11 -16 -11 -21 0 -6 5 -4 10 6 6 10 18 14 32 11 19 -4
17 -2 -6 11 -33 19 -67 21 -83 5 -8 -8 -17 -8 -31 0 -16 8 -23 7 -33 -7z"/>
<path d="M785 920 c-3 -5 -12 -7 -20 -3 -8 3 -15 3 -15 0 0 -13 30 -14 40 -1
7 8 10 14 7 14 -3 0 -8 -4 -12 -10z"/>
<path d="M869 912 c-11 -14 -11 -15 1 -5 9 8 19 9 32 2 13 -7 24 -6 40 6 13 8
18 15 12 15 -5 0 -15 -5 -21 -11 -8 -8 -17 -8 -31 0 -16 8 -23 7 -33 -7z"/>
<path d="M169 893 c-13 -17 -13 -17 5 -3 16 13 20 12 36 -8 10 -12 21 -18 24
-13 3 5 -5 16 -19 25 -30 20 -30 20 -46 -1z"/>
<path d="M489 893 c-13 -17 -13 -17 5 -3 16 13 20 12 36 -8 10 -12 21 -18 24
-13 3 5 -5 16 -19 25 -30 20 -30 20 -46 -1z"/>
<path d="M809 893 c-13 -16 -12 -17 3 -5 14 12 20 11 38 -1 11 -7 17 -17 13
-20 -3 -4 -1 -7 5 -7 20 0 13 17 -13 34 -30 20 -30 20 -46 -1z"/>
<path d="M84 888 c-4 -7 -3 -8 4 -4 12 7 16 16 8 16 -3 0 -8 -5 -12 -12z"/>
<path d="M404 888 c-4 -7 -3 -8 4 -4 12 7 16 16 8 16 -3 0 -8 -5 -12 -12z"/>
<path d="M724 888 c-4 -7 -3 -8 4 -4 12 7 16 16 8 16 -3 0 -8 -5 -12 -12z"/>
<path d="M900 865 c0 -3 2 -5 5 -5 3 0 5 2 5 5 0 3 -2 5 -5 5 -3 0 -5 -2 -5
-5z"/>
<path d="M620 855 c0 -3 2 -5 5 -5 3 0 5 2 5 5 0 3 -2 5 -5 5 -3 0 -5 -2 -5
-5z"/>
<path d="M90 845 c0 -3 2 -5 5 -5 3 0 5 2 5 5 0 3 -2 5 -5 5 -3 0 -5 -2 -5 -5z"/>
<path d="M150 835 c0 -3 2 -5 5 -5 3 0 5 2 5 5 0 3 -2 5 -5 5 -3 0 -5 -2 -5
-5z"/>
<path d="M200 835 c0 -3 2 -5 5 -5 3 0 5 2 5 5 0 3 -2 5 -5 5 -3 0 -5 -2 -5
-5z"/>
<path d="M410 835 c0 -3 2 -5 5 -5 3 0 5 2 5 5 0 3 -2 5 -5 5 -3 0 -5 -2 -5
-5z"/>
<path d="M720 830 c-9 -6 -10 -10 -3 -10 6 0 15 5 18 10 8 12 4 12 -15 0z"/>
<path d="M870 835 c0 -3 2 -5 5 -5 3 0 5 2 5 5 0 3 -2 5 -5 5 -3 0 -5 -2 -5
-5z"/>
<path d="M80 820 c0 -7 3 -10 7 -7 3 4 3 10 0 14 -4 3 -7 0 -7 -7z"/>
<path d="M395 820 c3 -5 8 -10 11 -10 3 0 2 5 -1 10 -3 6 -8 10 -11 10 -3 0
-2 -4 1 -10z"/>
<path d="M420 815 c0 -3 2 -5 5 -5 3 0 5 2 5 5 0 3 -2 5 -5 5 -3 0 -5 -2 -5
-5z"/>
<path d="M60 805 c0 -3 2 -5 5 -5 3 0 5 2 5 5 0 3 -2 5 -5 5 -3 0 -5 -2 -5 -5z"/>
<path d="M380 805 c0 -3 2 -5 5 -5 3 0 5 2 5 5 0 3 -2 5 -5 5 -3 0 -5 -2 -5
-5z"/>
<path d="M280 749 c0 -5 5 -7 10 -4 6 3 10 8 10 11 0 2 -4 4 -10 4 -5 0 -10
-5 -10 -11z"/>
<path d="M510 755 c0 -3 2 -5 5 -5 3 0 5 2 5 5 0 3 -2 5 -5 5 -3 0 -5 -2 -5
-5z"/>
<path d="M610 750 c0 -7 3 -10 7 -7 3 4 3 10 0 14 -4 3 -7 0 -7 -7z"/>
<path d="M928 753 c7 -3 16 -2 19 1 4 3 -2 6 -13 5 -11 0 -14 -3 -6 -6z"/>
<path d="M150 745 c0 -3 2 -5 5 -5 3 0 5 2 5 5 0 3 -2 5 -5 5 -3 0 -5 -2 -5
-5z"/>
<path d="M100 735 c0 -3 2 -5 5 -5 3 0 5 2 5 5 0 3 -2 5 -5 5 -3 0 -5 -2 -5
-5z"/>
<path d="M166 723 c-6 -14 -5 -15 5 -6 7 7 10 15 7 18 -3 3 -9 -2 -12 -12z"/>
<path d="M430 735 c0 -3 2 -5 5 -5 3 0 5 2 5 5 0 3 -2 5 -5 5 -3 0 -5 -2 -5
-5z"/>
<path d="M475 730 c3 -5 13 -10 21 -10 8 0 12 5 9 10 -3 6 -13 10 -21 10 -8 0
-12 -4 -9 -10z"/>
<path d="M750 735 c0 -3 2 -5 5 -5 3 0 5 2 5 5 0 3 -2 5 -5 5 -3 0 -5 -2 -5
-5z"/>
<path d="M796 725 c-3 -8 -1 -15 3 -15 5 0 11 7 15 15 3 8 1 15 -3 15 -5 0
-11 -7 -15 -15z"/>
<path d="M80 685 c0 -3 2 -5 5 -5 3 0 5 2 5 5 0 3 -2 5 -5 5 -3 0 -5 -2 -5 -5z"/>
<path d="M400 685 c0 -3 2 -5 5 -5 3 0 5 2 5 5 0 3 -2 5 -5 5 -3 0 -5 -2 -5
-5z"/>
<path d="M570 685 c0 -3 2 -5 5 -5 3 0 5 2 5 5 0 3 -2 5 -5 5 -3 0 -5 -2 -5
-5z"/>
<path d="M720 685 c0 -3 2 -5 5 -5 3 0 5 2 5 5 0 3 -2 5 -5 5 -3 0 -5 -2 -5
-5z"/>
<path d="M840 675 c0 -3 2 -5 5 -5 3 0 5 2 5 5 0 3 -2 5 -5 5 -3 0 -5 -2 -5
-5z"/>
<path d="M760 665 c0 -3 2 -5 5 -5 3 0 5 2 5 5 0 3 -2 5 -5 5 -3 0 -5 -2 -5
-5z"/>
<path d="M130 649 c0 -5 5 -7 10 -4 6 3 10 8 10 11 0 2 -4 4 -10 4 -5 0 -10
-5 -10 -11z"/>
<path d="M443 643 c4 -3 10 -3 14 0 3 4 0 7 -7 7 -7 0 -10 -3 -7 -7z"/>
<path d="M760 645 c0 -3 2 -5 5 -5 3 0 5 2 5 5 0 3 -2 5 -5 5 -3 0 -5 -2 -5
-5z"/>
<path d="M104 618 c-4 -7 -3 -8 4 -4 12 7 16 16 8 16 -3 0 -8 -5 -12 -12z"/>
<path d="M424 618 c-4 -7 -3 -8 4 -4 7 4 12 9 12 12 0 8 -9 4 -16 -8z"/>
<path d="M744 618 c-4 -7 -3 -8 4 -4 12 7 16 16 8 16 -3 0 -8 -5 -12 -12z"/>
<path d="M910 615 c0 -3 2 -5 5 -5 3 0 5 2 5 5 0 3 -2 5 -5 5 -3 0 -5 -2 -5
-5z"/>
<path d="M6 599 c2 -5 12 -5 22 -2 15 6 14 3 -2 -16 -17 -18 -17 -21 -3 -15 9
3 17 10 17 14 0 5 10 6 23 3 20 -4 20 -4 -3 9 -28 16 -62 20 -54 7z"/>
<path d="M145 600 c-3 -5 -12 -7 -20 -3 -8 3 -15 3 -15 0 0 -13 30 -14 40 -1
7 8 10 14 7 14 -3 0 -8 -4 -12 -10z"/>
<path d="M229 592 c-11 -14 -11 -15 1 -5 9 9 19 9 33 2 13 -8 22 -8 30 0 15
15 40 14 31 -1 -6 -10 -4 -10 7 0 18 17 34 15 19 -3 -9 -10 -9 -15 -1 -15 6 0
11 4 11 9 0 5 10 7 23 4 20 -4 20 -4 -3 9 -31 17 -70 20 -86 7 -9 -7 -19 -7
-32 0 -16 8 -23 7 -33 -7z"/>
<path d="M465 600 c-4 -6 -11 -7 -17 -4 -7 4 -8 2 -4 -5 6 -9 11 -9 22 0 14
11 18 19 10 19 -3 0 -8 -5 -11 -10z"/>
<path d="M549 592 c-11 -14 -11 -15 1 -5 9 9 19 9 32 2 12 -7 24 -7 31 -1 7 5
25 10 40 10 27 0 27 -1 10 -20 -16 -17 -16 -18 0 -12 9 3 17 10 17 14 0 5 10
6 23 3 13 -4 19 -2 14 3 -5 5 -13 10 -18 10 -5 1 -10 3 -11 4 -9 8 -64 7 -74
-1 -9 -7 -19 -7 -32 0 -16 8 -23 7 -33 -7z"/>
<path d="M785 600 c-3 -5 -12 -7 -20 -3 -8 3 -15 3 -15 0 0 -13 30 -14 40 -1
7 8 10 14 7 14 -3 0 -8 -4 -12 -10z"/>
<path d="M869 592 c-11 -14 -11 -15 1 -5 9 8 19 9 32 2 13 -7 24 -6 40 6 13 8
18 15 12 15 -5 0 -15 -5 -21 -11 -8 -8 -17 -8 -31 0 -16 8 -23 7 -33 -7z"/>
<path d="M169 573 c-13 -17 -13 -17 5 -3 17 13 21 12 42 -15 17 -21 24 -25 24
-14 0 9 -11 24 -25 33 -30 20 -30 20 -46 -1z"/>
<path d="M489 573 c-13 -17 -13 -17 5 -3 16 13 20 12 36 -8 10 -12 21 -18 24
-13 3 5 -5 16 -19 25 -30 20 -30 20 -46 -1z"/>
<path d="M809 573 c-13 -16 -12 -17 3 -5 14 12 20 11 38 -1 11 -7 17 -17 13
-20 -3 -4 -1 -7 5 -7 20 0 13 17 -13 34 -30 20 -30 20 -46 -1z"/>
<path d="M84 568 c-4 -7 -3 -8 4 -4 7 4 12 9 12 12 0 8 -9 4 -16 -8z"/>
<path d="M404 568 c-4 -7 -3 -8 4 -4 7 4 12 9 12 12 0 8 -9 4 -16 -8z"/>
<path d="M724 568 c-4 -7 -3 -8 4 -4 7 4 12 9 12 12 0 8 -9 4 -16 -8z"/>
<path d="M900 545 c0 -3 2 -5 5 -5 3 0 5 2 5 5 0 3 -2 5 -5 5 -3 0 -5 -2 -5
-5z"/>
<path d="M620 535 c0 -3 2 -5 5 -5 3 0 5 2 5 5 0 3 -2 5 -5 5 -3 0 -5 -2 -5
-5z"/>
<path d="M93 513 c4 -3 10 -3 14 0 3 4 0 7 -7 7 -7 0 -10 -3 -7 -7z"/>
<path d="M220 515 c0 -3 2 -5 5 -5 3 0 5 2 5 5 0 3 -2 5 -5 5 -3 0 -5 -2 -5
-5z"/>
<path d="M410 515 c0 -3 2 -5 5 -5 3 0 5 2 5 5 0 3 -2 5 -5 5 -3 0 -5 -2 -5
-5z"/>
<path d="M720 510 c-9 -6 -10 -10 -3 -10 6 0 15 5 18 10 8 12 4 12 -15 0z"/>
<path d="M870 515 c0 -3 2 -5 5 -5 3 0 5 2 5 5 0 3 -2 5 -5 5 -3 0 -5 -2 -5
-5z"/>
<path d="M60 505 c0 -3 2 -5 5 -5 3 0 5 2 5 5 0 3 -2 5 -5 5 -3 0 -5 -2 -5 -5z"/>
<path d="M395 500 c3 -5 8 -10 11 -10 3 0 2 5 -1 10 -3 6 -8 10 -11 10 -3 0
-2 -4 1 -10z"/>
<path d="M420 495 c0 -3 2 -5 5 -5 3 0 5 2 5 5 0 3 -2 5 -5 5 -3 0 -5 -2 -5
-5z"/>
<path d="M60 485 c0 -3 2 -5 5 -5 3 0 5 2 5 5 0 3 -2 5 -5 5 -3 0 -5 -2 -5 -5z"/>
<path d="M380 485 c0 -3 2 -5 5 -5 3 0 5 2 5 5 0 3 -2 5 -5 5 -3 0 -5 -2 -5
-5z"/>
<path d="M700 485 c0 -3 2 -5 5 -5 3 0 5 2 5 5 0 3 -2 5 -5 5 -3 0 -5 -2 -5
-5z"/>
<path d="M190 435 c0 -3 2 -5 5 -5 3 0 5 2 5 5 0 3 -2 5 -5 5 -3 0 -5 -2 -5
-5z"/>
<path d="M290 430 c0 -7 3 -10 7 -7 3 4 3 10 0 14 -4 3 -7 0 -7 -7z"/>
<path d="M510 435 c0 -3 2 -5 5 -5 3 0 5 2 5 5 0 3 -2 5 -5 5 -3 0 -5 -2 -5
-5z"/>
<path d="M610 430 c0 -7 3 -10 7 -7 3 4 3 10 0 14 -4 3 -7 0 -7 -7z"/>
<path d="M930 435 c0 -3 2 -5 5 -5 3 0 5 2 5 5 0 3 -2 5 -5 5 -3 0 -5 -2 -5
-5z"/>
<path d="M110 415 c0 -3 2 -5 5 -5 3 0 5 2 5 5 0 3 -2 5 -5 5 -3 0 -5 -2 -5
-5z"/>
<path d="M170 415 c0 -3 2 -5 5 -5 3 0 5 2 5 5 0 3 -2 5 -5 5 -3 0 -5 -2 -5
-5z"/>
<path d="M430 415 c0 -3 2 -5 5 -5 3 0 5 2 5 5 0 3 -2 5 -5 5 -3 0 -5 -2 -5
-5z"/>
<path d="M475 410 c3 -5 13 -10 21 -10 8 0 12 5 9 10 -3 6 -13 10 -21 10 -8 0
-12 -4 -9 -10z"/>
<path d="M800 405 c0 -8 2 -15 4 -15 2 0 6 7 10 15 3 8 1 15 -4 15 -6 0 -10
-7 -10 -15z"/>
<path d="M770 385 c0 -3 2 -5 5 -5 3 0 5 2 5 5 0 3 -2 5 -5 5 -3 0 -5 -2 -5
-5z"/>
<path d="M400 365 c0 -3 2 -5 5 -5 3 0 5 2 5 5 0 3 -2 5 -5 5 -3 0 -5 -2 -5
-5z"/>
<path d="M570 365 c0 -3 2 -5 5 -5 3 0 5 2 5 5 0 3 -2 5 -5 5 -3 0 -5 -2 -5
-5z"/>
<path d="M60 355 c0 -3 2 -5 5 -5 3 0 5 2 5 5 0 3 -2 5 -5 5 -3 0 -5 -2 -5 -5z"/>
<path d="M690 355 c0 -3 2 -5 5 -5 3 0 5 2 5 5 0 3 -2 5 -5 5 -3 0 -5 -2 -5
-5z"/>
<path d="M840 355 c0 -3 2 -5 5 -5 3 0 5 2 5 5 0 3 -2 5 -5 5 -3 0 -5 -2 -5
-5z"/>
<path d="M120 330 c0 -5 5 -10 11 -10 5 0 7 5 4 10 -3 6 -8 10 -11 10 -2 0 -4
-4 -4 -10z"/>
<path d="M764 328 c-4 -7 -3 -8 4 -4 7 4 12 9 12 12 0 8 -9 4 -16 -8z"/>
<path d="M443 323 c4 -3 10 -3 14 0 3 4 0 7 -7 7 -7 0 -10 -3 -7 -7z"/>
<path d="M104 298 c-4 -7 -3 -8 4 -4 12 7 16 16 8 16 -3 0 -8 -5 -12 -12z"/>
<path d="M424 298 c-4 -7 -3 -8 4 -4 12 7 16 16 8 16 -3 0 -8 -5 -12 -12z"/>
<path d="M744 298 c-4 -7 -3 -8 4 -4 7 4 12 9 12 12 0 8 -9 4 -16 -8z"/>
<path d="M590 295 c0 -3 2 -5 5 -5 3 0 5 2 5 5 0 3 -2 5 -5 5 -3 0 -5 -2 -5
-5z"/>
<path d="M3 273 c0 -9 4 -10 11 -3 16 16 30 12 16 -5 -9 -10 -9 -15 -1 -15 6
0 11 4 11 9 0 5 10 7 23 4 20 -4 20 -4 -3 9 -33 18 -57 19 -57 1z"/>
<path d="M145 280 c-4 -6 -11 -7 -17 -4 -7 4 -8 2 -4 -5 6 -9 11 -9 22 0 14
11 18 19 10 19 -3 0 -8 -5 -11 -10z"/>
<path d="M229 272 c-11 -14 -11 -15 1 -5 9 9 19 9 32 2 12 -7 24 -7 31 -1 7 5
25 10 40 10 27 0 27 -1 10 -20 -16 -17 -16 -18 0 -12 9 3 17 10 17 14 0 5 10
6 23 3 13 -4 19 -2 14 3 -5 5 -13 10 -18 10 -5 1 -10 3 -11 4 -9 8 -64 7 -74
-1 -9 -7 -19 -7 -32 0 -16 8 -23 7 -33 -7z"/>
<path d="M465 280 c-3 -5 -12 -7 -20 -3 -8 3 -15 3 -15 0 0 -13 30 -14 40 -1
7 8 10 14 7 14 -3 0 -8 -4 -12 -10z"/>
<path d="M549 272 c-11 -14 -11 -15 1 -5 9 9 19 9 33 2 13 -8 22 -8 30 0 15
15 40 14 31 -1 -6 -10 -4 -10 7 0 18 17 34 15 19 -3 -9 -10 -9 -15 -1 -15 6 0
11 4 11 9 0 5 10 7 23 4 20 -4 20 -4 -3 9 -31 17 -70 20 -86 7 -9 -7 -19 -7
-32 0 -16 8 -23 7 -33 -7z"/>
<path d="M785 280 c-4 -6 -11 -7 -17 -4 -7 4 -8 2 -4 -5 6 -9 11 -9 22 0 14
11 18 19 10 19 -3 0 -8 -5 -11 -10z"/>
<path d="M869 272 c-11 -14 -11 -15 1 -5 9 8 19 9 32 2 13 -7 24 -6 40 6 13 8
18 15 12 15 -5 0 -15 -5 -21 -11 -8 -8 -17 -8 -31 0 -16 8 -23 7 -33 -7z"/>
<path d="M169 253 c-13 -17 -13 -17 5 -3 16 13 20 12 36 -8 10 -12 21 -18 24
-13 3 5 -5 16 -19 25 -30 20 -30 20 -46 -1z"/>
<path d="M489 253 c-13 -16 -12 -17 3 -5 14 12 20 11 38 -1 11 -7 17 -17 13
-20 -3 -4 -1 -7 5 -7 20 0 13 17 -13 34 -30 20 -30 20 -46 -1z"/>
<path d="M809 253 c-13 -17 -13 -17 5 -3 16 13 20 12 36 -8 10 -12 21 -18 24
-13 3 5 -5 16 -19 25 -30 20 -30 20 -46 -1z"/>
<path d="M84 248 c-4 -7 -3 -8 4 -4 7 4 12 9 12 12 0 8 -9 4 -16 -8z"/>
<path d="M404 248 c-4 -7 -3 -8 4 -4 12 7 16 16 8 16 -3 0 -8 -5 -12 -12z"/>
<path d="M724 248 c-4 -7 -3 -8 4 -4 7 4 12 9 12 12 0 8 -9 4 -16 -8z"/>
<path d="M580 225 c0 -3 2 -5 5 -5 3 0 5 2 5 5 0 3 -2 5 -5 5 -3 0 -5 -2 -5
-5z"/>
<path d="M300 215 c0 -3 2 -5 5 -5 3 0 5 2 5 5 0 3 -2 5 -5 5 -3 0 -5 -2 -5
-5z"/>
<path d="M940 215 c0 -3 2 -5 5 -5 3 0 5 2 5 5 0 3 -2 5 -5 5 -3 0 -5 -2 -5
-5z"/>
<path d="M90 195 c0 -3 2 -5 5 -5 3 0 5 2 5 5 0 3 -2 5 -5 5 -3 0 -5 -2 -5 -5z"/>
<path d="M400 190 c-9 -6 -10 -10 -3 -10 6 0 15 5 18 10 8 12 4 12 -15 0z"/>
<path d="M550 195 c0 -3 2 -5 5 -5 3 0 5 2 5 5 0 3 -2 5 -5 5 -3 0 -5 -2 -5
-5z"/>
<path d="M730 195 c0 -3 2 -5 5 -5 3 0 5 2 5 5 0 3 -2 5 -5 5 -3 0 -5 -2 -5
-5z"/>
<path d="M75 180 c3 -5 8 -10 11 -10 3 0 2 5 -1 10 -3 6 -8 10 -11 10 -3 0 -2
-4 1 -10z"/>
<path d="M715 180 c3 -5 8 -10 11 -10 3 0 2 5 -1 10 -3 6 -8 10 -11 10 -3 0
-2 -4 1 -10z"/>
<path d="M100 175 c0 -3 2 -5 5 -5 3 0 5 2 5 5 0 3 -2 5 -5 5 -3 0 -5 -2 -5
-5z"/>
<path d="M740 175 c0 -3 2 -5 5 -5 3 0 5 2 5 5 0 3 -2 5 -5 5 -3 0 -5 -2 -5
-5z"/>
<path d="M60 165 c0 -3 2 -5 5 -5 3 0 5 2 5 5 0 3 -2 5 -5 5 -3 0 -5 -2 -5 -5z"/>
<path d="M380 165 c0 -3 2 -5 5 -5 3 0 5 2 5 5 0 3 -2 5 -5 5 -3 0 -5 -2 -5
-5z"/>
<path d="M700 165 c0 -3 2 -5 5 -5 3 0 5 2 5 5 0 3 -2 5 -5 5 -3 0 -5 -2 -5
-5z"/>
<path d="M190 115 c0 -3 2 -5 5 -5 3 0 5 2 5 5 0 3 -2 5 -5 5 -3 0 -5 -2 -5
-5z"/>
<path d="M290 110 c0 -7 3 -10 7 -7 3 4 3 10 0 14 -4 3 -7 0 -7 -7z"/>
<path d="M610 115 c0 -3 2 -5 5 -5 3 0 5 2 5 5 0 3 -2 5 -5 5 -3 0 -5 -2 -5
-5z"/>
<path d="M830 115 c0 -3 2 -5 5 -5 3 0 5 2 5 5 0 3 -2 5 -5 5 -3 0 -5 -2 -5
-5z"/>
<path d="M930 110 c0 -7 3 -10 7 -7 3 4 3 10 0 14 -4 3 -7 0 -7 -7z"/>
<path d="M110 95 c0 -3 2 -5 5 -5 3 0 5 2 5 5 0 3 -2 5 -5 5 -3 0 -5 -2 -5 -5z"/>
<path d="M155 90 c3 -5 13 -10 21 -10 8 0 12 5 9 10 -3 6 -13 10 -21 10 -8 0
-12 -4 -9 -10z"/>
<path d="M480 85 c0 -8 2 -15 4 -15 2 0 6 7 10 15 3 8 1 15 -4 15 -6 0 -10 -7
-10 -15z"/>
<path d="M750 95 c0 -3 2 -5 5 -5 3 0 5 2 5 5 0 3 -2 5 -5 5 -3 0 -5 -2 -5 -5z"/>
<path d="M795 90 c3 -5 13 -10 21 -10 8 0 12 5 9 10 -3 6 -13 10 -21 10 -8 0
-12 -4 -9 -10z"/>
<path d="M450 65 c0 -3 2 -5 5 -5 3 0 5 2 5 5 0 3 -2 5 -5 5 -3 0 -5 -2 -5 -5z"/>
<path d="M80 45 c0 -3 2 -5 5 -5 3 0 5 2 5 5 0 3 -2 5 -5 5 -3 0 -5 -2 -5 -5z"/>
<path d="M250 45 c0 -3 2 -5 5 -5 3 0 5 2 5 5 0 3 -2 5 -5 5 -3 0 -5 -2 -5 -5z"/>
<path d="M720 45 c0 -3 2 -5 5 -5 3 0 5 2 5 5 0 3 -2 5 -5 5 -3 0 -5 -2 -5 -5z"/>
<path d="M890 45 c0 -3 2 -5 5 -5 3 0 5 2 5 5 0 3 -2 5 -5 5 -3 0 -5 -2 -5 -5z"/>
<path d="M370 35 c0 -3 2 -5 5 -5 3 0 5 2 5 5 0 3 -2 5 -5 5 -3 0 -5 -2 -5 -5z"/>
<path d="M520 35 c0 -3 2 -5 5 -5 3 0 5 2 5 5 0 3 -2 5 -5 5 -3 0 -5 -2 -5 -5z"/>
<path d="M444 8 c-4 -7 -3 -8 4 -4 12 7 16 16 8 16 -3 0 -8 -5 -12 -12z"/>
<path d="M123 3 c4 -3 10 -3 14 0 3 4 0 7 -7 7 -7 0 -10 -3 -7 -7z"/>
<path d="M763 3 c4 -3 10 -3 14 0 3 4 0 7 -7 7 -7 0 -10 -3 -7 -7z"/>
</g>
<g transform="translate(0.000000,96.000000) scale(0.100000,-0.100000)"
fill="#746256" stroke="none">
<path d="M750 915 c0 -3 2 -5 5 -5 3 0 5 2 5 5 0 3 -2 5 -5 5 -3 0 -5 -2 -5
-5z"/>
<path d="M20 900 c0 -5 7 -10 16 -10 8 0 12 5 9 10 -3 6 -10 10 -16 10 -5 0
-9 -4 -9 -10z"/>
<path d="M320 905 c0 -3 2 -5 5 -5 3 0 5 2 5 5 0 3 -2 5 -5 5 -3 0 -5 -2 -5
-5z"/>
<path d="M345 900 c-3 -5 -1 -10 4 -10 6 0 11 5 11 10 0 6 -2 10 -4 10 -3 0
-8 -4 -11 -10z"/>
<path d="M665 899 c-4 -6 -5 -12 -2 -15 2 -3 7 2 10 11 7 17 1 20 -8 4z"/>
<path d="M220 874 c0 -8 5 -12 10 -9 6 4 8 11 5 16 -9 14 -15 11 -15 -7z"/>
<path d="M540 874 c0 -8 5 -12 10 -9 6 4 8 11 5 16 -9 14 -15 11 -15 -7z"/>
<path d="M863 875 c0 -8 4 -15 9 -15 4 0 8 4 8 9 0 6 -4 12 -8 15 -5 3 -9 -1
-9 -9z"/>
<path d="M900 865 c0 -3 2 -5 5 -5 3 0 5 2 5 5 0 3 -2 5 -5 5 -3 0 -5 -2 -5
-5z"/>
<path d="M620 855 c0 -3 2 -5 5 -5 3 0 5 2 5 5 0 3 -2 5 -5 5 -3 0 -5 -2 -5
-5z"/>
<path d="M90 845 c0 -3 2 -5 5 -5 3 0 5 2 5 5 0 3 -2 5 -5 5 -3 0 -5 -2 -5 -5z"/>
<path d="M150 835 c0 -3 2 -5 5 -5 3 0 5 2 5 5 0 3 -2 5 -5 5 -3 0 -5 -2 -5
-5z"/>
<path d="M200 835 c0 -3 2 -5 5 -5 3 0 5 2 5 5 0 3 -2 5 -5 5 -3 0 -5 -2 -5
-5z"/>
<path d="M410 835 c0 -3 2 -5 5 -5 3 0 5 2 5 5 0 3 -2 5 -5 5 -3 0 -5 -2 -5
-5z"/>
<path d="M720 830 c-9 -6 -10 -10 -3 -10 6 0 15 5 18 10 8 12 4 12 -15 0z"/>
<path d="M870 835 c0 -3 2 -5 5 -5 3 0 5 2 5 5 0 3 -2 5 -5 5 -3 0 -5 -2 -5
-5z"/>
<path d="M80 820 c0 -7 3 -10 7 -7 3 4 3 10 0 14 -4 3 -7 0 -7 -7z"/>
<path d="M395 820 c3 -5 8 -10 11 -10 3 0 2 5 -1 10 -3 6 -8 10 -11 10 -3 0
-2 -4 1 -10z"/>
<path d="M420 815 c0 -3 2 -5 5 -5 3 0 5 2 5 5 0 3 -2 5 -5 5 -3 0 -5 -2 -5
-5z"/>
<path d="M60 805 c0 -3 2 -5 5 -5 3 0 5 2 5 5 0 3 -2 5 -5 5 -3 0 -5 -2 -5 -5z"/>
<path d="M380 805 c0 -3 2 -5 5 -5 3 0 5 2 5 5 0 3 -2 5 -5 5 -3 0 -5 -2 -5
-5z"/>
<path d="M280 749 c0 -5 5 -7 10 -4 6 3 10 8 10 11 0 2 -4 4 -10 4 -5 0 -10
-5 -10 -11z"/>
<path d="M510 755 c0 -3 2 -5 5 -5 3 0 5 2 5 5 0 3 -2 5 -5 5 -3 0 -5 -2 -5
-5z"/>
<path d="M610 750 c0 -7 3 -10 7 -7 3 4 3 10 0 14 -4 3 -7 0 -7 -7z"/>
<path d="M928 753 c7 -3 16 -2 19 1 4 3 -2 6 -13 5 -11 0 -14 -3 -6 -6z"/>
<path d="M150 745 c0 -3 2 -5 5 -5 3 0 5 2 5 5 0 3 -2 5 -5 5 -3 0 -5 -2 -5
-5z"/>
<path d="M100 735 c0 -3 2 -5 5 -5 3 0 5 2 5 5 0 3 -2 5 -5 5 -3 0 -5 -2 -5
-5z"/>
<path d="M166 723 c-6 -14 -5 -15 5 -6 7 7 10 15 7 18 -3 3 -9 -2 -12 -12z"/>
<path d="M430 735 c0 -3 2 -5 5 -5 3 0 5 2 5 5 0 3 -2 5 -5 5 -3 0 -5 -2 -5
-5z"/>
<path d="M475 730 c3 -5 13 -10 21 -10 8 0 12 5 9 10 -3 6 -13 10 -21 10 -8 0
-12 -4 -9 -10z"/>
<path d="M750 735 c0 -3 2 -5 5 -5 3 0 5 2 5 5 0 3 -2 5 -5 5 -3 0 -5 -2 -5
-5z"/>
<path d="M796 725 c-3 -8 -1 -15 3 -15 5 0 11 7 15 15 3 8 1 15 -3 15 -5 0
-11 -7 -15 -15z"/>
<path d="M80 685 c0 -3 2 -5 5 -5 3 0 5 2 5 5 0 3 -2 5 -5 5 -3 0 -5 -2 -5 -5z"/>
<path d="M400 685 c0 -3 2 -5 5 -5 3 0 5 2 5 5 0 3 -2 5 -5 5 -3 0 -5 -2 -5
-5z"/>
<path d="M570 685 c0 -3 2 -5 5 -5 3 0 5 2 5 5 0 3 -2 5 -5 5 -3 0 -5 -2 -5
-5z"/>
<path d="M720 685 c0 -3 2 -5 5 -5 3 0 5 2 5 5 0 3 -2 5 -5 5 -3 0 -5 -2 -5
-5z"/>
<path d="M840 675 c0 -3 2 -5 5 -5 3 0 5 2 5 5 0 3 -2 5 -5 5 -3 0 -5 -2 -5
-5z"/>
<path d="M760 665 c0 -3 2 -5 5 -5 3 0 5 2 5 5 0 3 -2 5 -5 5 -3 0 -5 -2 -5
-5z"/>
<path d="M130 649 c0 -5 5 -7 10 -4 6 3 10 8 10 11 0 2 -4 4 -10 4 -5 0 -10
-5 -10 -11z"/>
<path d="M443 643 c4 -3 10 -3 14 0 3 4 0 7 -7 7 -7 0 -10 -3 -7 -7z"/>
<path d="M760 645 c0 -3 2 -5 5 -5 3 0 5 2 5 5 0 3 -2 5 -5 5 -3 0 -5 -2 -5
-5z"/>
<path d="M110 595 c0 -3 2 -5 5 -5 3 0 5 2 5 5 0 3 -2 5 -5 5 -3 0 -5 -2 -5
-5z"/>
<path d="M750 595 c0 -3 2 -5 5 -5 3 0 5 2 5 5 0 3 -2 5 -5 5 -3 0 -5 -2 -5
-5z"/>
<path d="M20 575 c-11 -13 -10 -14 4 -9 9 3 16 10 16 15 0 13 -6 11 -20 -6z"/>
<path d="M320 585 c0 -3 2 -5 5 -5 3 0 5 2 5 5 0 3 -2 5 -5 5 -3 0 -5 -2 -5
-5z"/>
<path d="M345 580 c-3 -5 -1 -10 4 -10 6 0 11 5 11 10 0 6 -2 10 -4 10 -3 0
-8 -4 -11 -10z"/>
<path d="M660 575 c-11 -13 -10 -14 4 -9 9 3 16 10 16 15 0 13 -6 11 -20 -6z"/>
<path d="M220 556 c0 -8 5 -18 10 -21 6 -3 10 1 10 9 0 8 -4 18 -10 21 -5 3
-10 -1 -10 -9z"/>
<path d="M540 554 c0 -8 5 -12 10 -9 6 4 8 11 5 16 -9 14 -15 11 -15 -7z"/>
<path d="M863 555 c0 -8 4 -15 9 -15 4 0 8 4 8 9 0 6 -4 12 -8 15 -5 3 -9 -1
-9 -9z"/>
<path d="M900 545 c0 -3 2 -5 5 -5 3 0 5 2 5 5 0 3 -2 5 -5 5 -3 0 -5 -2 -5
-5z"/>
<path d="M620 535 c0 -3 2 -5 5 -5 3 0 5 2 5 5 0 3 -2 5 -5 5 -3 0 -5 -2 -5
-5z"/>
<path d="M93 513 c4 -3 10 -3 14 0 3 4 0 7 -7 7 -7 0 -10 -3 -7 -7z"/>
<path d="M220 515 c0 -3 2 -5 5 -5 3 0 5 2 5 5 0 3 -2 5 -5 5 -3 0 -5 -2 -5
-5z"/>
<path d="M410 515 c0 -3 2 -5 5 -5 3 0 5 2 5 5 0 3 -2 5 -5 5 -3 0 -5 -2 -5
-5z"/>
<path d="M720 510 c-9 -6 -10 -10 -3 -10 6 0 15 5 18 10 8 12 4 12 -15 0z"/>
<path d="M870 515 c0 -3 2 -5 5 -5 3 0 5 2 5 5 0 3 -2 5 -5 5 -3 0 -5 -2 -5
-5z"/>
<path d="M60 505 c0 -3 2 -5 5 -5 3 0 5 2 5 5 0 3 -2 5 -5 5 -3 0 -5 -2 -5 -5z"/>
<path d="M395 500 c3 -5 8 -10 11 -10 3 0 2 5 -1 10 -3 6 -8 10 -11 10 -3 0
-2 -4 1 -10z"/>
<path d="M420 495 c0 -3 2 -5 5 -5 3 0 5 2 5 5 0 3 -2 5 -5 5 -3 0 -5 -2 -5
-5z"/>
<path d="M60 485 c0 -3 2 -5 5 -5 3 0 5 2 5 5 0 3 -2 5 -5 5 -3 0 -5 -2 -5 -5z"/>
<path d="M380 485 c0 -3 2 -5 5 -5 3 0 5 2 5 5 0 3 -2 5 -5 5 -3 0 -5 -2 -5
-5z"/>
<path d="M700 485 c0 -3 2 -5 5 -5 3 0 5 2 5 5 0 3 -2 5 -5 5 -3 0 -5 -2 -5
-5z"/>
<path d="M190 435 c0 -3 2 -5 5 -5 3 0 5 2 5 5 0 3 -2 5 -5 5 -3 0 -5 -2 -5
-5z"/>
<path d="M290 430 c0 -7 3 -10 7 -7 3 4 3 10 0 14 -4 3 -7 0 -7 -7z"/>
<path d="M510 435 c0 -3 2 -5 5 -5 3 0 5 2 5 5 0 3 -2 5 -5 5 -3 0 -5 -2 -5
-5z"/>
<path d="M610 430 c0 -7 3 -10 7 -7 3 4 3 10 0 14 -4 3 -7 0 -7 -7z"/>
<path d="M930 435 c0 -3 2 -5 5 -5 3 0 5 2 5 5 0 3 -2 5 -5 5 -3 0 -5 -2 -5
-5z"/>
<path d="M110 415 c0 -3 2 -5 5 -5 3 0 5 2 5 5 0 3 -2 5 -5 5 -3 0 -5 -2 -5
-5z"/>
<path d="M170 415 c0 -3 2 -5 5 -5 3 0 5 2 5 5 0 3 -2 5 -5 5 -3 0 -5 -2 -5
-5z"/>
<path d="M430 415 c0 -3 2 -5 5 -5 3 0 5 2 5 5 0 3 -2 5 -5 5 -3 0 -5 -2 -5
-5z"/>
<path d="M475 410 c3 -5 13 -10 21 -10 8 0 12 5 9 10 -3 6 -13 10 -21 10 -8 0
-12 -4 -9 -10z"/>
<path d="M800 405 c0 -8 2 -15 4 -15 2 0 6 7 10 15 3 8 1 15 -4 15 -6 0 -10
-7 -10 -15z"/>
<path d="M770 385 c0 -3 2 -5 5 -5 3 0 5 2 5 5 0 3 -2 5 -5 5 -3 0 -5 -2 -5
-5z"/>
<path d="M400 365 c0 -3 2 -5 5 -5 3 0 5 2 5 5 0 3 -2 5 -5 5 -3 0 -5 -2 -5
-5z"/>
<path d="M570 365 c0 -3 2 -5 5 -5 3 0 5 2 5 5 0 3 -2 5 -5 5 -3 0 -5 -2 -5
-5z"/>
<path d="M60 355 c0 -3 2 -5 5 -5 3 0 5 2 5 5 0 3 -2 5 -5 5 -3 0 -5 -2 -5 -5z"/>
<path d="M690 355 c0 -3 2 -5 5 -5 3 0 5 2 5 5 0 3 -2 5 -5 5 -3 0 -5 -2 -5
-5z"/>
<path d="M840 355 c0 -3 2 -5 5 -5 3 0 5 2 5 5 0 3 -2 5 -5 5 -3 0 -5 -2 -5
-5z"/>
<path d="M120 330 c0 -5 5 -10 11 -10 5 0 7 5 4 10 -3 6 -8 10 -11 10 -2 0 -4
-4 -4 -10z"/>
<path d="M764 328 c-4 -7 -3 -8 4 -4 7 4 12 9 12 12 0 8 -9 4 -16 -8z"/>
<path d="M443 323 c4 -3 10 -3 14 0 3 4 0 7 -7 7 -7 0 -10 -3 -7 -7z"/>
<path d="M430 275 c0 -3 2 -5 5 -5 3 0 5 2 5 5 0 3 -2 5 -5 5 -3 0 -5 -2 -5
-5z"/>
<path d="M0 265 c0 -3 2 -5 5 -5 3 0 5 2 5 5 0 3 -2 5 -5 5 -3 0 -5 -2 -5 -5z"/>
<path d="M25 260 c-3 -5 -1 -10 4 -10 6 0 11 5 11 10 0 6 -2 10 -4 10 -3 0 -8
-4 -11 -10z"/>
<path d="M340 255 c-11 -13 -10 -14 4 -9 9 3 16 10 16 15 0 13 -6 11 -20 -6z"/>
<path d="M640 265 c0 -3 2 -5 5 -5 3 0 5 2 5 5 0 3 -2 5 -5 5 -3 0 -5 -2 -5
-5z"/>
<path d="M665 260 c-3 -5 -1 -10 4 -10 6 0 11 5 11 10 0 6 -2 10 -4 10 -3 0
-8 -4 -11 -10z"/>
<path d="M220 234 c0 -8 5 -12 10 -9 6 4 8 11 5 16 -9 14 -15 11 -15 -7z"/>
<path d="M543 235 c0 -8 4 -15 9 -15 4 0 8 4 8 9 0 6 -4 12 -8 15 -5 3 -9 -1
-9 -9z"/>
<path d="M860 234 c0 -8 5 -12 10 -9 6 4 8 11 5 16 -9 14 -15 11 -15 -7z"/>
<path d="M580 225 c0 -3 2 -5 5 -5 3 0 5 2 5 5 0 3 -2 5 -5 5 -3 0 -5 -2 -5
-5z"/>
<path d="M300 215 c0 -3 2 -5 5 -5 3 0 5 2 5 5 0 3 -2 5 -5 5 -3 0 -5 -2 -5
-5z"/>
<path d="M940 215 c0 -3 2 -5 5 -5 3 0 5 2 5 5 0 3 -2 5 -5 5 -3 0 -5 -2 -5
-5z"/>
<path d="M90 195 c0 -3 2 -5 5 -5 3 0 5 2 5 5 0 3 -2 5 -5 5 -3 0 -5 -2 -5 -5z"/>
<path d="M400 190 c-9 -6 -10 -10 -3 -10 6 0 15 5 18 10 8 12 4 12 -15 0z"/>
<path d="M550 195 c0 -3 2 -5 5 -5 3 0 5 2 5 5 0 3 -2 5 -5 5 -3 0 -5 -2 -5
-5z"/>
<path d="M730 195 c0 -3 2 -5 5 -5 3 0 5 2 5 5 0 3 -2 5 -5 5 -3 0 -5 -2 -5
-5z"/>
<path d="M75 180 c3 -5 8 -10 11 -10 3 0 2 5 -1 10 -3 6 -8 10 -11 10 -3 0 -2
-4 1 -10z"/>
<path d="M715 180 c3 -5 8 -10 11 -10 3 0 2 5 -1 10 -3 6 -8 10 -11 10 -3 0
-2 -4 1 -10z"/>
<path d="M100 175 c0 -3 2 -5 5 -5 3 0 5 2 5 5 0 3 -2 5 -5 5 -3 0 -5 -2 -5
-5z"/>
<path d="M740 175 c0 -3 2 -5 5 -5 3 0 5 2 5 5 0 3 -2 5 -5 5 -3 0 -5 -2 -5
-5z"/>
<path d="M60 165 c0 -3 2 -5 5 -5 3 0 5 2 5 5 0 3 -2 5 -5 5 -3 0 -5 -2 -5 -5z"/>
<path d="M380 165 c0 -3 2 -5 5 -5 3 0 5 2 5 5 0 3 -2 5 -5 5 -3 0 -5 -2 -5
-5z"/>
<path d="M700 165 c0 -3 2 -5 5 -5 3 0 5 2 5 5 0 3 -2 5 -5 5 -3 0 -5 -2 -5
-5z"/>
<path d="M190 115 c0 -3 2 -5 5 -5 3 0 5 2 5 5 0 3 -2 5 -5 5 -3 0 -5 -2 -5
-5z"/>
<path d="M290 110 c0 -7 3 -10 7 -7 3 4 3 10 0 14 -4 3 -7 0 -7 -7z"/>
<path d="M610 115 c0 -3 2 -5 5 -5 3 0 5 2 5 5 0 3 -2 5 -5 5 -3 0 -5 -2 -5
-5z"/>
<path d="M830 115 c0 -3 2 -5 5 -5 3 0 5 2 5 5 0 3 -2 5 -5 5 -3 0 -5 -2 -5
-5z"/>
<path d="M930 110 c0 -7 3 -10 7 -7 3 4 3 10 0 14 -4 3 -7 0 -7 -7z"/>
<path d="M110 95 c0 -3 2 -5 5 -5 3 0 5 2 5 5 0 3 -2 5 -5 5 -3 0 -5 -2 -5 -5z"/>
<path d="M155 90 c3 -5 13 -10 21 -10 8 0 12 5 9 10 -3 6 -13 10 -21 10 -8 0
-12 -4 -9 -10z"/>
<path d="M480 85 c0 -8 2 -15 4 -15 2 0 6 7 10 15 3 8 1 15 -4 15 -6 0 -10 -7
-10 -15z"/>
<path d="M750 95 c0 -3 2 -5 5 -5 3 0 5 2 5 5 0 3 -2 5 -5 5 -3 0 -5 -2 -5 -5z"/>
<path d="M795 90 c3 -5 13 -10 21 -10 8 0 12 5 9 10 -3 6 -13 10 -21 10 -8 0
-12 -4 -9 -10z"/>
<path d="M450 65 c0 -3 2 -5 5 -5 3 0 5 2 5 5 0 3 -2 5 -5 5 -3 0 -5 -2 -5 -5z"/>
<path d="M80 45 c0 -3 2 -5 5 -5 3 0 5 2 5 5 0 3 -2 5 -5 5 -3 0 -5 -2 -5 -5z"/>
<path d="M250 45 c0 -3 2 -5 5 -5 3 0 5 2 5 5 0 3 -2 5 -5 5 -3 0 -5 -2 -5 -5z"/>
<path d="M720 45 c0 -3 2 -5 5 -5 3 0 5 2 5 5 0 3 -2 5 -5 5 -3 0 -5 -2 -5 -5z"/>
<path d="M890 45 c0 -3 2 -5 5 -5 3 0 5 2 5 5 0 3 -2 5 -5 5 -3 0 -5 -2 -5 -5z"/>
<path d="M370 35 c0 -3 2 -5 5 -5 3 0 5 2 5 5 0 3 -2 5 -5 5 -3 0 -5 -2 -5 -5z"/>
<path d="M520 35 c0 -3 2 -5 5 -5 3 0 5 2 5 5 0 3 -2 5 -5 5 -3 0 -5 -2 -5 -5z"/>
<path d="M444 8 c-4 -7 -3 -8 4 -4 12 7 16 16 8 16 -3 0 -8 -5 -12 -12z"/>
<path d="M123 3 c4 -3 10 -3 14 0 3 4 0 7 -7 7 -7 0 -10 -3 -7 -7z"/>
<path d="M763 3 c4 -3 10 -3 14 0 3 4 0 7 -7 7 -7 0 -10 -3 -7 -7z"/>
</g>
<g transform="translate(0.000000,96.000000) scale(0.100000,-0.100000)"
fill="#8b8078" stroke="none">
<path d="M660 885 c0 -3 2 -5 5 -5 3 0 5 2 5 5 0 3 -2 5 -5 5 -3 0 -5 -2 -5
-5z"/>
<path d="M620 855 c0 -3 2 -5 5 -5 3 0 5 2 5 5 0 3 -2 5 -5 5 -3 0 -5 -2 -5
-5z"/>
<path d="M150 835 c0 -3 2 -5 5 -5 3 0 5 2 5 5 0 3 -2 5 -5 5 -3 0 -5 -2 -5
-5z"/>
<path d="M200 835 c0 -3 2 -5 5 -5 3 0 5 2 5 5 0 3 -2 5 -5 5 -3 0 -5 -2 -5
-5z"/>
<path d="M410 835 c0 -3 2 -5 5 -5 3 0 5 2 5 5 0 3 -2 5 -5 5 -3 0 -5 -2 -5
-5z"/>
<path d="M720 830 c-9 -6 -10 -10 -3 -10 6 0 15 5 18 10 8 12 4 12 -15 0z"/>
<path d="M870 835 c0 -3 2 -5 5 -5 3 0 5 2 5 5 0 3 -2 5 -5 5 -3 0 -5 -2 -5
-5z"/>
<path d="M390 825 c0 -3 2 -5 5 -5 3 0 5 2 5 5 0 3 -2 5 -5 5 -3 0 -5 -2 -5
-5z"/>
<path d="M60 805 c0 -3 2 -5 5 -5 3 0 5 2 5 5 0 3 -2 5 -5 5 -3 0 -5 -2 -5 -5z"/>
<path d="M380 805 c0 -3 2 -5 5 -5 3 0 5 2 5 5 0 3 -2 5 -5 5 -3 0 -5 -2 -5
-5z"/>
<path d="M283 753 c4 -3 10 -3 14 0 3 4 0 7 -7 7 -7 0 -10 -3 -7 -7z"/>
<path d="M510 755 c0 -3 2 -5 5 -5 3 0 5 2 5 5 0 3 -2 5 -5 5 -3 0 -5 -2 -5
-5z"/>
<path d="M610 750 c0 -7 3 -10 7 -7 3 4 3 10 0 14 -4 3 -7 0 -7 -7z"/>
<path d="M923 753 c4 -3 10 -3 14 0 3 4 0 7 -7 7 -7 0 -10 -3 -7 -7z"/>
<path d="M100 735 c0 -3 2 -5 5 -5 3 0 5 2 5 5 0 3 -2 5 -5 5 -3 0 -5 -2 -5
-5z"/>
<path d="M430 735 c0 -3 2 -5 5 -5 3 0 5 2 5 5 0 3 -2 5 -5 5 -3 0 -5 -2 -5
-5z"/>
<path d="M750 735 c0 -3 2 -5 5 -5 3 0 5 2 5 5 0 3 -2 5 -5 5 -3 0 -5 -2 -5
-5z"/>
<path d="M800 725 c0 -3 2 -5 5 -5 3 0 5 2 5 5 0 3 -2 5 -5 5 -3 0 -5 -2 -5
-5z"/>
<path d="M840 675 c0 -3 2 -5 5 -5 3 0 5 2 5 5 0 3 -2 5 -5 5 -3 0 -5 -2 -5
-5z"/>
<path d="M130 650 c0 -7 3 -10 7 -7 3 4 3 10 0 14 -4 3 -7 0 -7 -7z"/>
<path d="M443 643 c4 -3 10 -3 14 0 3 4 0 7 -7 7 -7 0 -10 -3 -7 -7z"/>
<path d="M760 645 c0 -3 2 -5 5 -5 3 0 5 2 5 5 0 3 -2 5 -5 5 -3 0 -5 -2 -5
-5z"/>
<path d="M620 535 c0 -3 2 -5 5 -5 3 0 5 2 5 5 0 3 -2 5 -5 5 -3 0 -5 -2 -5
-5z"/>
<path d="M90 515 c0 -3 2 -5 5 -5 3 0 5 2 5 5 0 3 -2 5 -5 5 -3 0 -5 -2 -5 -5z"/>
<path d="M220 515 c0 -3 2 -5 5 -5 3 0 5 2 5 5 0 3 -2 5 -5 5 -3 0 -5 -2 -5
-5z"/>
<path d="M410 515 c0 -3 2 -5 5 -5 3 0 5 2 5 5 0 3 -2 5 -5 5 -3 0 -5 -2 -5
-5z"/>
<path d="M720 510 c-9 -6 -10 -10 -3 -10 6 0 15 5 18 10 8 12 4 12 -15 0z"/>
<path d="M870 515 c0 -3 2 -5 5 -5 3 0 5 2 5 5 0 3 -2 5 -5 5 -3 0 -5 -2 -5
-5z"/>
<path d="M390 505 c0 -3 2 -5 5 -5 3 0 5 2 5 5 0 3 -2 5 -5 5 -3 0 -5 -2 -5
-5z"/>
<path d="M60 485 c0 -3 2 -5 5 -5 3 0 5 2 5 5 0 3 -2 5 -5 5 -3 0 -5 -2 -5 -5z"/>
<path d="M380 485 c0 -3 2 -5 5 -5 3 0 5 2 5 5 0 3 -2 5 -5 5 -3 0 -5 -2 -5
-5z"/>
<path d="M700 485 c0 -3 2 -5 5 -5 3 0 5 2 5 5 0 3 -2 5 -5 5 -3 0 -5 -2 -5
-5z"/>
<path d="M190 435 c0 -3 2 -5 5 -5 3 0 5 2 5 5 0 3 -2 5 -5 5 -3 0 -5 -2 -5
-5z"/>
<path d="M290 430 c0 -7 3 -10 7 -7 3 4 3 10 0 14 -4 3 -7 0 -7 -7z"/>
<path d="M510 435 c0 -3 2 -5 5 -5 3 0 5 2 5 5 0 3 -2 5 -5 5 -3 0 -5 -2 -5
-5z"/>
<path d="M610 430 c0 -7 3 -10 7 -7 3 4 3 10 0 14 -4 3 -7 0 -7 -7z"/>
<path d="M930 435 c0 -3 2 -5 5 -5 3 0 5 2 5 5 0 3 -2 5 -5 5 -3 0 -5 -2 -5
-5z"/>
<path d="M110 415 c0 -3 2 -5 5 -5 3 0 5 2 5 5 0 3 -2 5 -5 5 -3 0 -5 -2 -5
-5z"/>
<path d="M430 415 c0 -3 2 -5 5 -5 3 0 5 2 5 5 0 3 -2 5 -5 5 -3 0 -5 -2 -5
-5z"/>
<path d="M800 415 c0 -3 2 -5 5 -5 3 0 5 2 5 5 0 3 -2 5 -5 5 -3 0 -5 -2 -5
-5z"/>
<path d="M770 385 c0 -3 2 -5 5 -5 3 0 5 2 5 5 0 3 -2 5 -5 5 -3 0 -5 -2 -5
-5z"/>
<path d="M60 355 c0 -3 2 -5 5 -5 3 0 5 2 5 5 0 3 -2 5 -5 5 -3 0 -5 -2 -5 -5z"/>
<path d="M690 355 c0 -3 2 -5 5 -5 3 0 5 2 5 5 0 3 -2 5 -5 5 -3 0 -5 -2 -5
-5z"/>
<path d="M840 355 c0 -3 2 -5 5 -5 3 0 5 2 5 5 0 3 -2 5 -5 5 -3 0 -5 -2 -5
-5z"/>
<path d="M764 328 c-4 -7 -3 -8 4 -4 7 4 12 9 12 12 0 8 -9 4 -16 -8z"/>
<path d="M123 323 c4 -3 10 -3 14 0 3 4 0 7 -7 7 -7 0 -10 -3 -7 -7z"/>
<path d="M443 323 c4 -3 10 -3 14 0 3 4 0 7 -7 7 -7 0 -10 -3 -7 -7z"/>
<path d="M300 215 c0 -3 2 -5 5 -5 3 0 5 2 5 5 0 3 -2 5 -5 5 -3 0 -5 -2 -5
-5z"/>
<path d="M940 215 c0 -3 2 -5 5 -5 3 0 5 2 5 5 0 3 -2 5 -5 5 -3 0 -5 -2 -5
-5z"/>
<path d="M90 195 c0 -3 2 -5 5 -5 3 0 5 2 5 5 0 3 -2 5 -5 5 -3 0 -5 -2 -5 -5z"/>
<path d="M400 190 c-9 -6 -10 -10 -3 -10 6 0 15 5 18 10 8 12 4 12 -15 0z"/>
<path d="M550 195 c0 -3 2 -5 5 -5 3 0 5 2 5 5 0 3 -2 5 -5 5 -3 0 -5 -2 -5
-5z"/>
<path d="M730 195 c0 -3 2 -5 5 -5 3 0 5 2 5 5 0 3 -2 5 -5 5 -3 0 -5 -2 -5
-5z"/>
<path d="M70 185 c0 -3 2 -5 5 -5 3 0 5 2 5 5 0 3 -2 5 -5 5 -3 0 -5 -2 -5 -5z"/>
<path d="M710 185 c0 -3 2 -5 5 -5 3 0 5 2 5 5 0 3 -2 5 -5 5 -3 0 -5 -2 -5
-5z"/>
<path d="M60 165 c0 -3 2 -5 5 -5 3 0 5 2 5 5 0 3 -2 5 -5 5 -3 0 -5 -2 -5 -5z"/>
<path d="M380 165 c0 -3 2 -5 5 -5 3 0 5 2 5 5 0 3 -2 5 -5 5 -3 0 -5 -2 -5
-5z"/>
<path d="M700 165 c0 -3 2 -5 5 -5 3 0 5 2 5 5 0 3 -2 5 -5 5 -3 0 -5 -2 -5
-5z"/>
<path d="M190 115 c0 -3 2 -5 5 -5 3 0 5 2 5 5 0 3 -2 5 -5 5 -3 0 -5 -2 -5
-5z"/>
<path d="M290 110 c0 -7 3 -10 7 -7 3 4 3 10 0 14 -4 3 -7 0 -7 -7z"/>
<path d="M610 115 c0 -3 2 -5 5 -5 3 0 5 2 5 5 0 3 -2 5 -5 5 -3 0 -5 -2 -5
-5z"/>
<path d="M830 115 c0 -3 2 -5 5 -5 3 0 5 2 5 5 0 3 -2 5 -5 5 -3 0 -5 -2 -5
-5z"/>
<path d="M930 110 c0 -7 3 -10 7 -7 3 4 3 10 0 14 -4 3 -7 0 -7 -7z"/>
<path d="M110 95 c0 -3 2 -5 5 -5 3 0 5 2 5 5 0 3 -2 5 -5 5 -3 0 -5 -2 -5 -5z"/>
<path d="M480 95 c0 -3 2 -5 5 -5 3 0 5 2 5 5 0 3 -2 5 -5 5 -3 0 -5 -2 -5 -5z"/>
<path d="M750 95 c0 -3 2 -5 5 -5 3 0 5 2 5 5 0 3 -2 5 -5 5 -3 0 -5 -2 -5 -5z"/>
<path d="M450 65 c0 -3 2 -5 5 -5 3 0 5 2 5 5 0 3 -2 5 -5 5 -3 0 -5 -2 -5 -5z"/>
<path d="M370 35 c0 -3 2 -5 5 -5 3 0 5 2 5 5 0 3 -2 5 -5 5 -3 0 -5 -2 -5 -5z"/>
<path d="M520 35 c0 -3 2 -5 5 -5 3 0 5 2 5 5 0 3 -2 5 -5 5 -3 0 -5 -2 -5 -5z"/>
<path d="M444 8 c-4 -7 -3 -8 4 -4 12 7 16 16 8 16 -3 0 -8 -5 -12 -12z"/>
<path d="M123 3 c4 -3 10 -3 14 0 3 4 0 7 -7 7 -7 0 -10 -3 -7 -7z"/>
<path d="M763 3 c4 -3 10 -3 14 0 3 4 0 7 -7 7 -7 0 -10 -3 -7 -7z"/>
</g>
  </g>
</svg>
