<?xml version="1.0" encoding="UTF-8" standalone="no"?>
<!-- Created with Inkscape (http://www.inkscape.org/) -->

<svg
   xmlns:dc="http://purl.org/dc/elements/1.1/"
   xmlns:cc="http://creativecommons.org/ns#"
   xmlns:rdf="http://www.w3.org/1999/02/22-rdf-syntax-ns#"
   xmlns:svg="http://www.w3.org/2000/svg"
   xmlns="http://www.w3.org/2000/svg"
   xmlns:sodipodi="http://sodipodi.sourceforge.net/DTD/sodipodi-0.dtd"
   xmlns:inkscape="http://www.inkscape.org/namespaces/inkscape"
   width="32px"
   height="32px"
   viewBox="0 0 32px 32px"
   version="1.1"
   id="svgMain"
   inkscape:version="0.92.2 (5c3e80d, 2017-08-06)"
   sodipodi:docname="reference_SVG.svg">
  <defs
     id="defs4542" />
  <sodipodi:namedview
     id="base"
     pagecolor="#ffffff"
     bordercolor="#666666"
     borderopacity="1.0"
     inkscape:pageopacity="0.0"
     inkscape:pageshadow="2"
     inkscape:zoom="1"
     inkscape:cx="0"
     inkscape:cy="0"
     inkscape:document-units="px"
     inkscape:current-layer="layer1"
     showgrid="false"
     units="px"
     inkscape:window-width="1024"
     inkscape:window-height="768"
     inkscape:window-x="-8"
     inkscape:window-y="-8"
     inkscape:window-maximized="1" />
  <metadata
     id="metadata1">
    <rdf:RDF>
      <cc:Work
         rdf:about="">
        <dc:format>image/svg+xml</dc:format>
        <dc:type
           rdf:resource="http://purl.org/dc/dcmitype/StillImage" />
        <dc:title />
      </cc:Work>
    </rdf:RDF>
  </metadata>
  <g transform="translate(-32,-32)"
     inkscape:label="Layer 1"
     inkscape:groupmode="layer"
     id="layer1">
    <!-- INSERT MARKER -->
<g transform="translate(0.000000,96.000000) scale(0.100000,-0.100000)"
fill="#686663" stroke="none">
<path d="M0 480 l0 -480 480 0 480 0 0 480 0 480 -480 0 -480 0 0 -480z"/>
</g>
<g transform="translate(0.000000,96.000000) scale(0.100000,-0.100000)"
fill="#817f7f" stroke="none">
<path d="M40 945 c0 -9 -9 -25 -20 -37 -21 -23 -29 -93 -9 -86 6 2 10 7 9 12
-1 5 4 12 10 16 8 5 7 11 -4 22 -8 9 -13 18 -10 21 7 6 44 -29 44 -42 0 -4
-13 -22 -30 -39 -19 -20 -30 -42 -30 -59 0 -22 2 -25 10 -13 5 8 10 10 10 5 0
-6 -6 -17 -13 -24 -10 -10 -8 -15 8 -28 16 -12 16 -14 3 -10 -14 5 -17 1 -14
-16 1 -12 9 -22 16 -22 21 0 20 -32 -1 -59 -10 -13 -19 -38 -19 -55 0 -29 2
-31 20 -21 24 13 26 38 5 46 -8 4 -12 10 -10 15 6 9 45 -26 45 -40 0 -5 -13
-23 -30 -39 -27 -28 -44 -82 -20 -67 5 3 10 2 10 -4 0 -5 -4 -12 -8 -15 -5 -3
-9 -19 -10 -36 0 -24 3 -30 14 -26 7 3 13 0 11 -6 -1 -6 4 -13 12 -16 9 -3 11
0 7 7 -4 6 -4 11 1 10 26 -4 35 1 24 15 -7 9 -23 13 -39 10 -26 -5 -26 -5 -8
15 23 25 36 27 36 6 0 -9 7 -18 15 -21 23 -9 19 -44 -5 -44 -11 0 -20 -5 -20
-10 0 -6 -11 -20 -25 -32 -19 -17 -25 -31 -25 -62 1 -36 2 -39 14 -24 7 10 15
16 17 14 2 -3 4 6 4 19 0 15 -4 21 -14 17 -8 -3 -12 -1 -8 5 4 6 20 13 36 16
24 5 29 11 26 28 -3 17 0 20 15 16 11 -3 20 0 21 6 0 7 4 2 9 -10 9 -22 30
-32 30 -14 0 5 11 9 25 9 32 0 39 6 31 27 -7 20 -36 31 -45 18 -7 -12 -45 -1
-55 16 -5 7 -1 8 9 5 9 -4 25 2 35 11 17 15 20 16 20 3 0 -17 34 -30 57 -21 8
3 12 11 9 18 -3 8 2 11 14 8 29 -8 31 -29 4 -41 -14 -7 -21 -17 -18 -26 3 -8
-2 -25 -10 -38 -9 -14 -13 -28 -9 -31 3 -4 2 -7 -4 -7 -14 0 -34 25 -26 33 3
4 -4 7 -16 7 -12 0 -24 -7 -28 -16 -3 -8 -12 -13 -19 -10 -7 3 -16 1 -19 -4
-4 -6 0 -10 8 -10 8 0 20 -7 27 -15 16 -19 34 -19 26 0 -4 10 1 15 14 15 14 0
20 -7 20 -23 0 -27 -27 -30 -55 -7 -12 10 -19 10 -27 2 -9 -9 -9 -12 0 -12 7
0 17 -12 23 -26 9 -25 10 -26 28 -10 13 11 21 14 26 7 10 -18 28 -12 21 6 -6
16 -6 16 12 0 23 -21 56 -12 47 11 -4 12 -1 11 15 -3 16 -15 19 -15 15 -3 -5
12 -1 14 19 11 19 -4 26 -1 26 10 0 20 19 32 30 21 5 -5 -4 -23 -20 -41 -15
-17 -31 -29 -34 -26 -3 4 -6 1 -6 -5 0 -7 -6 -11 -12 -9 -7 1 -12 -3 -11 -9 1
-7 -6 -10 -16 -7 -15 4 -17 -1 -14 -29 3 -27 2 -30 -7 -13 -5 11 -14 32 -20
47 -6 19 -14 26 -24 22 -14 -5 -14 -9 -1 -34 8 -16 15 -31 15 -35 0 -12 -70
-4 -83 10 -13 13 -17 12 -29 -7 -10 -14 -20 -19 -31 -15 -21 8 -22 27 -2 27 8
0 25 6 36 12 17 10 23 10 26 1 6 -16 33 -17 33 -2 0 5 5 7 10 4 6 -3 10 -2 10
4 0 6 -12 13 -27 17 -16 4 -33 13 -40 21 -10 13 -13 12 -22 -5 -14 -27 -68
-49 -84 -33 -8 8 -7 11 5 11 9 0 18 9 21 20 3 12 11 18 19 15 9 -4 20 8 30 30
14 31 14 36 1 31 -8 -3 -23 -2 -33 4 -15 8 -17 6 -13 -9 5 -19 -34 -69 -50
-63 -4 1 -7 -20 -6 -48 2 -53 15 -63 43 -34 14 14 16 14 16 0 0 -18 -36 -40
-50 -31 -6 3 -10 -4 -10 -16 0 -12 3 -19 7 -16 3 4 11 3 18 -3 16 -13 53 -1
58 19 3 11 5 9 6 -6 1 -13 7 -23 16 -23 18 0 20 21 3 38 -10 10 -5 11 20 6 27
-6 31 -4 26 10 -3 9 -1 16 5 16 6 0 11 -11 11 -25 0 -16 -6 -25 -15 -25 -8 0
-15 -4 -15 -10 0 -5 16 -10 37 -10 36 0 36 0 17 21 -18 20 -18 20 10 13 21 -5
27 -4 22 5 -4 6 -2 11 4 11 6 0 9 4 6 9 -3 4 6 6 19 3 31 -5 31 -7 -1 -37
l-27 -25 51 2 c28 2 48 6 46 9 -2 4 3 10 12 13 8 3 12 2 9 -4 -10 -17 23 -23
39 -7 11 11 12 17 3 28 -10 11 -9 11 6 0 9 -7 17 -19 17 -26 0 -8 18 -13 55
-14 55 -1 67 7 41 28 -10 8 -16 9 -21 1 -9 -15 -41 -12 -54 4 -10 12 -9 14 6
10 23 -6 49 42 27 50 -8 3 -14 2 -14 -3 0 -10 -40 -22 -51 -15 -11 7 28 44 46
44 8 0 15 -5 15 -11 0 -6 12 -9 28 -7 20 2 28 9 30 28 3 21 2 22 -11 11 -12
-9 -21 -10 -36 -1 -24 12 -28 22 -7 14 7 -3 21 2 30 11 19 20 21 36 3 29 -8
-3 -20 2 -27 10 -7 9 -16 13 -21 10 -5 -3 -9 0 -9 6 0 7 6 10 13 7 6 -2 20 0
31 5 14 8 17 7 10 -4 -6 -11 -5 -11 9 1 15 12 17 10 17 -28 0 -26 4 -40 10
-36 6 4 7 12 3 18 -3 7 3 4 14 -5 28 -25 57 -24 50 3 -4 16 -3 18 9 8 11 -9
14 -9 14 1 0 9 3 10 14 1 16 -14 30 0 40 41 3 15 15 29 25 33 13 4 18 13 16
25 -5 27 19 26 44 -2 18 -19 21 -19 27 -4 4 10 13 14 24 11 10 -3 24 4 36 17
10 13 15 20 10 16 -5 -5 -16 1 -24 13 -10 15 -17 18 -25 10 -15 -15 -42 -14
-56 3 -10 12 -9 14 6 10 23 -6 49 42 27 50 -8 3 -14 2 -14 -3 0 -10 -40 -22
-51 -15 -11 7 28 44 46 44 8 0 15 -4 15 -10 0 -16 48 -12 57 5 6 9 13 11 23 5
11 -7 11 -11 1 -24 -8 -9 -19 -16 -27 -16 -23 0 -26 -19 -5 -41 17 -19 23 -20
36 -9 9 7 14 19 11 27 -3 7 1 13 10 13 11 0 14 6 10 16 -3 9 -9 27 -12 40 -3
13 -11 21 -17 17 -6 -3 -7 -1 -3 5 4 7 3 12 -2 12 -5 0 -9 7 -9 15 0 13 2 13
17 0 25 -23 54 -20 47 6 -4 16 -3 18 9 8 11 -9 14 -9 14 0 0 7 4 9 10 6 20
-12 11 81 -10 108 -18 22 -18 25 -2 23 12 -1 18 8 20 31 3 27 1 31 -17 26 -17
-4 -21 -1 -21 18 0 15 3 19 8 12 14 -23 34 3 29 38 -4 30 -5 32 -12 12 -8 -26
-16 -28 -33 -11 -9 9 -12 9 -12 0 0 -7 4 -12 9 -12 6 0 6 -12 1 -31 -5 -18 -7
-36 -3 -42 3 -5 -2 -16 -11 -23 -22 -16 -28 -71 -8 -79 18 -7 32 2 32 21 0 8
5 12 10 9 6 -3 10 -18 10 -33 0 -20 -8 -33 -31 -46 -31 -18 -59 -16 -59 5 0 9
4 9 14 0 10 -8 16 -9 21 -1 3 6 11 8 16 5 5 -4 9 -1 9 5 0 6 -8 10 -17 8 -11
-2 -17 2 -15 11 2 9 -4 12 -20 8 -17 -5 -27 -1 -35 12 -13 21 -8 31 17 31 9 0
17 7 17 15 0 8 -3 13 -5 10 -3 -3 -12 4 -20 16 -10 15 -17 18 -25 10 -15 -15
-42 -14 -56 3 -10 12 -9 14 6 10 23 -6 49 42 27 50 -8 3 -14 2 -14 -3 0 -11
-40 -22 -52 -15 -10 6 34 44 51 44 6 0 11 -5 11 -11 0 -6 12 -9 28 -7 20 2 27
9 28 26 1 17 -2 20 -12 11 -9 -7 -19 -7 -33 1 -24 12 -28 25 -6 16 8 -3 22 2
31 11 13 14 17 14 25 2 5 -8 7 -20 4 -26 -2 -7 3 -17 12 -22 14 -8 15 -12 4
-25 -7 -9 -19 -16 -27 -16 -23 0 -26 -19 -5 -41 17 -19 23 -20 36 -9 9 7 14
19 11 27 -3 7 1 13 10 13 11 0 14 6 10 16 -3 9 -9 27 -12 40 -3 13 -10 24 -14
24 -4 0 -10 9 -13 21 -5 19 -4 20 12 5 26 -24 55 -21 48 5 -4 16 -3 18 9 8 11
-9 14 -9 14 0 0 7 4 9 10 6 16 -10 12 78 -6 103 -9 14 -26 22 -42 22 -24 0
-27 -4 -26 -27 1 -35 33 -45 41 -14 7 28 23 16 23 -17 0 -20 -8 -33 -31 -46
-31 -19 -60 -16 -58 6 0 10 2 10 6 1 3 -9 10 -10 22 -3 10 5 21 6 25 3 3 -3 6
-1 6 5 0 7 -9 12 -21 12 -13 0 -18 4 -13 11 5 8 0 10 -17 6 -18 -5 -28 -1 -36
12 -14 22 -8 31 19 31 11 0 16 5 13 10 -3 6 -26 10 -51 10 -38 0 -45 -3 -42
-17 2 -11 11 -17 23 -15 15 2 17 1 6 -6 -7 -6 -10 -15 -7 -21 4 -6 4 -11 -1
-10 -14 4 -43 -13 -43 -24 0 -6 7 -18 15 -27 17 -19 9 -60 -12 -60 -7 0 -23
-9 -35 -20 -17 -16 -24 -17 -36 -8 -12 10 -11 14 7 22 12 5 21 16 21 24 0 9 3
13 6 9 8 -7 34 17 34 32 0 5 -13 19 -30 31 -30 21 -30 21 -10 42 11 12 16 26
13 32 -4 6 4 3 19 -6 25 -16 26 -16 21 2 -9 33 -83 18 -83 -15 0 -9 -10 -15
-26 -15 -14 0 -23 -4 -19 -10 3 -5 1 -10 -5 -10 -6 0 -9 -4 -5 -10 7 -12 -53
-43 -71 -36 -8 3 -14 11 -14 17 0 9 3 9 14 0 11 -9 13 -6 11 17 -2 21 2 29 13
28 9 0 21 10 28 22 7 14 14 19 17 13 3 -7 4 -6 3 1 -1 7 -13 14 -27 16 -19 2
-27 -4 -39 -30 -8 -18 -13 -36 -12 -40 1 -5 -3 -8 -9 -8 -6 0 -13 9 -16 19 -7
27 -28 33 -45 13 -16 -19 -17 -31 -4 -50 7 -12 4 -12 -14 -2 -29 16 -36 7 -12
-16 10 -11 22 -27 26 -38 6 -18 7 -18 25 -2 13 11 21 14 26 7 10 -18 28 -12
21 6 -6 15 -5 15 13 -1 24 -22 56 -14 47 11 -6 15 -4 15 13 -1 20 -18 21 -18
51 14 21 22 34 30 41 23 7 -7 0 -20 -20 -40 -17 -17 -33 -28 -36 -25 -3 3 -5
0 -5 -6 0 -7 -6 -11 -12 -10 -7 2 -12 -2 -11 -8 1 -7 -6 -10 -17 -7 -28 8 -16
-20 16 -37 17 -10 21 -17 14 -24 -8 -8 -15 -5 -26 8 -10 15 -14 16 -15 5 0
-15 -11 5 -29 53 -6 19 -14 26 -24 22 -14 -5 -14 -9 -1 -34 8 -16 15 -31 15
-35 0 -12 -70 -4 -83 10 -13 13 -17 12 -29 -7 -10 -14 -20 -19 -31 -15 -21 8
-22 27 -2 27 8 0 25 6 36 13 17 10 23 10 26 0 6 -16 33 -17 33 -2 0 5 4 7 10
4 6 -3 10 -2 10 4 0 6 -12 13 -27 17 -16 4 -33 13 -40 21 -9 12 -13 11 -25 -6
-20 -29 -65 -48 -80 -33 -9 9 -8 12 4 12 9 0 18 9 21 21 4 13 10 18 17 14 14
-8 30 11 30 36 0 9 -11 21 -24 27 -21 9 -23 8 -19 -7 3 -10 -6 -29 -19 -44
-19 -20 -27 -23 -42 -15 -16 9 -18 8 -13 -11 7 -27 -7 -35 -35 -20 -22 11 -22
11 -6 -7 11 -13 14 -24 8 -34 -7 -12 -11 -10 -18 9 -8 24 -9 24 -28 4 -10 -11
-27 -23 -36 -26 -25 -9 -22 -30 7 -43 21 -10 25 -9 31 8 7 22 41 20 35 -3 -2
-8 -4 -20 -4 -26 0 -7 -4 -13 -9 -13 -4 0 -8 -5 -8 -11 0 -6 -9 -23 -19 -38
-16 -22 -17 -29 -6 -44 16 -23 26 -9 19 29 -3 20 -2 25 5 15 19 -30 49 6 42
51 0 4 11 3 25 -3 15 -5 29 -7 32 -4 3 3 0 5 -7 5 -7 0 -9 5 -5 11 4 8 9 8 17
0 18 -18 31 -13 16 7 -11 14 -11 15 1 5 20 -18 38 -16 43 5 4 13 5 11 6 -5 1
-16 -5 -23 -18 -23 -11 0 -22 -9 -26 -19 -3 -11 -21 -26 -40 -35 -23 -11 -32
-21 -28 -32 3 -8 2 -14 -3 -13 -5 2 -21 -3 -36 -11 -22 -10 -30 -11 -43 0 -12
10 -15 10 -15 -4 0 -13 -6 -15 -27 -10 -35 8 -37 10 -28 23 9 15 28 14 20 -1
-4 -7 1 -4 9 6 37 45 0 79 -39 36 -10 -11 -22 -17 -28 -13 -6 3 -7 1 -3 -6 4
-6 11 -9 16 -6 5 3 11 1 14 -4 14 -22 -38 -18 -79 6 -20 12 -20 12 3 33 12 12
20 26 16 32 -4 5 4 4 17 -3 32 -18 41 -18 61 -1 14 12 18 12 18 2 0 -7 3 -10
7 -7 3 4 13 1 21 -6 13 -10 15 -9 9 5 -3 10 -2 20 4 24 14 8 -20 33 -40 29 -9
-2 -22 -4 -29 -4 -7 -1 -10 -5 -7 -11 3 -6 2 -10 -4 -10 -5 0 -11 -6 -14 -12
-2 -7 -2 -2 0 10 2 13 -2 31 -9 40 -9 11 -9 14 -1 9 7 -5 24 0 39 9 25 17 25
18 8 31 -16 12 -15 13 10 13 15 0 25 4 21 10 -6 10 6 14 39 10 11 -1 17 3 14
11 -5 16 -46 19 -61 4 -9 -9 -17 -7 -32 8 -13 13 -15 18 -5 15 8 -3 24 2 34
11 14 12 20 13 23 4 3 -7 9 -13 14 -13 4 0 6 8 2 18 -6 15 -4 15 15 -2 24 -21
57 -15 48 9 -5 15 18 17 40 2 17 -10 46 37 32 51 -15 15 -8 21 25 24 22 2 26
6 22 25 -5 30 17 30 44 1 18 -19 21 -19 27 -4 4 10 13 14 24 11 9 -3 23 1 30
10 10 13 2 14 -69 14 -46 0 -81 -5 -81 -10 0 -6 -4 -7 -10 -4 -5 3 -7 0 -4 -8
7 -20 -25 -30 -44 -15 -13 11 -15 10 -10 -9 5 -17 -1 -29 -24 -48 -35 -29 -53
-32 -67 -7 -9 15 -10 15 -11 -4 0 -15 -6 -20 -22 -20 -21 1 -58 28 -58 43 0 4
5 2 12 -5 9 -9 17 -7 35 10 29 27 29 40 1 36 -13 -2 -22 -8 -21 -14 1 -6 -5
-11 -13 -11 -7 0 -14 6 -14 14 0 7 7 13 15 13 7 0 19 8 24 18 6 9 11 12 11 6
0 -14 39 -13 43 1 1 6 -16 11 -38 13 -29 3 -43 -1 -52 -14 -12 -16 -13 -16
-13 -1 0 13 -9 17 -35 17 -25 0 -35 -4 -35 -15z m65 -54 c0 -29 6 -47 18 -55
15 -12 15 -15 2 -26 -8 -7 -12 -17 -8 -23 4 -6 -4 -8 -20 -5 -15 3 -24 1 -21
-4 6 -10 -14 -38 -27 -38 -20 0 -7 36 19 54 27 18 39 46 20 46 -4 0 -8 6 -8
13 0 7 -9 18 -19 24 -20 12 -20 13 2 38 30 33 42 27 42 -24z m225 4 c0 -3 -2
-5 -5 -5 -3 0 -5 2 -5 5 0 3 2 5 5 5 3 0 5 -2 5 -5z m343 -9 c4 -10 1 -13 -8
-9 -8 3 -12 9 -9 14 7 12 11 11 17 -5z m-153 -29 c0 -16 -6 -23 -20 -23 -14 0
-19 6 -18 23 2 15 9 23 20 23 12 0 18 -8 18 -23z m294 11 c-5 -9 -2 -9 9 1 15
12 17 11 17 -11 0 -27 -25 -34 -50 -13 -8 7 -22 15 -30 19 -9 4 -6 5 6 2 12
-2 28 0 35 5 19 12 21 11 13 -3z m-187 -45 c-4 -3 -7 0 -7 7 0 7 3 10 7 7 3
-4 3 -10 0 -14z m163 2 c0 -3 -2 -5 -5 -5 -3 0 -5 2 -5 5 0 3 2 5 5 5 3 0 5
-2 5 -5z m-760 -60 c0 -3 -2 -5 -5 -5 -3 0 -5 2 -5 5 0 3 2 5 5 5 3 0 5 -2 5
-5z m104 -17 c-15 -27 -37 -47 -45 -42 -16 9 -10 42 9 47 33 9 43 7 36 -5z
m206 -3 c0 -3 -2 -5 -5 -5 -3 0 -5 2 -5 5 0 3 2 5 5 5 3 0 5 -2 5 -5z m317
-12 c-4 -3 -7 0 -7 7 0 7 3 10 7 7 3 -4 3 -10 0 -14z m-340 -20 c-15 -15 -37
-11 -37 7 0 10 31 19 43 12 5 -2 2 -11 -6 -19z m323 22 c0 -3 -2 -5 -5 -5 -3
0 -5 2 -5 5 0 3 2 5 5 5 3 0 5 -2 5 -5z m-260 -20 c0 -19 -39 -40 -52 -27 -6
6 0 12 16 16 14 3 26 11 26 16 0 6 2 10 5 10 3 0 5 -7 5 -15z m-310 1 c0 -2
-7 -9 -15 -16 -12 -10 -15 -10 -15 4 0 9 7 16 15 16 8 0 15 -2 15 -4z m630 -3
c-1 -25 -43 -42 -55 -23 -3 5 3 10 14 10 12 0 21 5 21 10 0 6 5 10 10 10 6 0
10 -3 10 -7z m-210 -30 c0 -17 -6 -23 -21 -23 -11 0 -18 -4 -15 -9 3 -5 -1
-11 -9 -14 -9 -4 -12 -1 -8 9 3 8 0 21 -7 29 -11 13 -8 14 21 8 29 -5 32 -4
22 9 -10 12 -10 15 2 15 9 0 15 -10 15 -24z m110 8 c0 -4 -9 -14 -20 -24 -11
-9 -20 -25 -20 -34 0 -10 -7 -27 -15 -37 -8 -10 -12 -23 -9 -27 9 -15 -13 -10
-25 5 -8 10 -9 16 -1 21 6 3 8 10 5 15 -3 4 2 13 10 20 13 10 12 15 -8 32 -18
16 -19 19 -4 14 18 -6 51 16 41 26 -3 3 7 3 21 1 14 -3 25 -8 25 -12z m-510
-32 c9 -16 7 -19 -11 -19 -17 0 -19 3 -10 13 8 10 7 17 -2 27 -9 10 -9 11 0 6
7 -4 18 -16 23 -27z m300 26 c0 -3 -2 -5 -5 -5 -3 0 -5 2 -5 5 0 3 2 5 5 5 3
0 5 -2 5 -5z m340 -29 c0 -6 -14 -17 -30 -23 -17 -6 -29 -17 -28 -24 2 -7 -8
-15 -22 -18 -14 -4 -29 -17 -35 -29 -17 -37 -85 -54 -85 -20 0 7 5 7 14 -1 11
-9 13 -6 11 18 -2 20 1 28 10 25 7 -3 20 4 28 16 10 14 20 19 29 14 7 -4 4 2
-6 14 -20 23 -9 31 13 10 7 -7 12 -8 11 -3 -5 22 0 36 10 30 6 -4 8 -10 6 -14
-8 -13 36 -10 50 3 10 10 10 16 1 27 -10 11 -9 11 6 0 9 -7 17 -19 17 -25z
m-690 10 c0 -2 -7 -7 -16 -10 -8 -3 -12 -2 -9 4 6 10 25 14 25 6z m640 -1 c0
-3 -2 -5 -5 -5 -3 0 -5 2 -5 5 0 3 2 5 5 5 3 0 5 -2 5 -5z m107 -58 c11 4 5
-7 -14 -25 -37 -36 -40 -47 -17 -60 19 -11 9 -62 -13 -62 -7 0 -23 -9 -35 -20
-17 -15 -24 -17 -35 -8 -12 10 -11 13 7 23 11 6 17 14 14 18 -4 4 -2 7 5 7 6
0 21 8 31 18 20 18 19 19 -15 46 -34 27 -34 28 -15 48 11 12 16 26 13 32 -4 6
4 3 19 -6 25 -17 26 -17 22 5 l-5 22 10 -22 c7 -16 16 -21 28 -16z m-352 6
c14 -14 20 -14 37 -4 16 10 23 10 32 0 8 -9 7 -11 -6 -6 -16 6 -45 -19 -43
-38 1 -18 16 -35 26 -29 5 3 7 10 4 15 -4 5 3 9 14 9 15 0 21 -6 21 -23 0 -26
-27 -30 -53 -9 -8 7 -28 14 -44 16 -17 1 -35 6 -41 10 -6 4 -8 -1 -5 -13 3
-11 -5 -29 -20 -45 -23 -24 -26 -25 -41 -11 -20 20 -21 29 -2 22 17 -7 51 39
36 48 -18 11 -10 22 19 28 23 5 29 11 26 27 -5 25 17 27 40 3z m247 -109 c-15
-17 -30 -29 -34 -27 -5 2 -8 -1 -8 -6 0 -6 -6 -10 -12 -8 -7 1 -12 -3 -11 -9
1 -7 -6 -10 -17 -7 -25 7 -25 2 -2 -25 14 -15 22 -18 30 -10 8 8 10 6 8 -8 -4
-24 -24 -30 -32 -9 -5 12 -9 13 -14 5 -5 -8 -12 2 -20 26 -17 52 -18 54 -35
48 -13 -5 -13 -10 0 -34 8 -16 15 -31 15 -35 0 -12 -70 -4 -83 10 -13 13 -17
12 -29 -7 -10 -14 -20 -19 -31 -15 -21 8 -22 27 -2 27 8 0 25 6 36 13 17 10
23 10 26 0 6 -16 33 -17 33 -2 0 5 5 7 10 4 6 -3 10 -2 10 4 0 6 -12 14 -27
17 -16 4 -34 11 -41 17 -9 7 -18 4 -32 -11 -25 -26 -59 -37 -73 -23 -8 8 -7
11 5 11 9 0 18 9 21 20 3 11 9 20 14 19 21 -4 31 2 36 21 3 13 11 18 20 14 9
-3 14 -11 11 -18 -3 -7 2 -18 9 -25 12 -9 18 -8 30 4 10 9 18 11 22 5 11 -17
28 -11 21 8 -5 15 -5 15 8 -1 17 -22 52 -18 50 4 -1 12 7 15 36 12 31 -3 38 0
43 17 3 13 0 23 -9 27 -8 3 -12 9 -9 13 3 5 16 -1 29 -13 l24 -21 -26 -32z
m-462 61 c0 -3 -2 -5 -5 -5 -3 0 -5 2 -5 5 0 3 2 5 5 5 3 0 5 -2 5 -5z m594
-17 c-5 -9 -2 -9 9 1 15 12 17 10 17 -22 0 -19 3 -43 7 -53 4 -11 3 -15 -5
-10 -6 3 -13 2 -17 -4 -8 -14 -18 -13 -41 5 -13 11 -14 13 -3 9 9 -3 24 2 33
11 19 20 21 36 3 29 -8 -3 -20 2 -27 10 -7 9 -16 13 -21 10 -5 -3 -9 0 -9 6 0
7 6 10 13 7 8 -3 20 -1 28 4 19 12 22 11 13 -3z m-689 -29 c-3 -4 3 -17 13
-29 18 -22 19 -22 37 -4 13 13 20 15 23 6 2 -6 8 -12 14 -12 6 0 7 8 4 17 -6
16 -6 16 12 0 30 -28 48 -20 43 18 -1 6 10 -3 24 -20 16 -20 21 -31 13 -34
-22 -7 -38 -29 -39 -53 0 -14 -3 -17 -6 -8 -15 44 -37 83 -40 73 -7 -19 -80
-16 -91 3 -8 14 -12 13 -29 -9 -23 -30 -67 -45 -78 -26 -5 7 -4 10 2 6 6 -4
13 3 16 14 3 12 10 18 16 15 5 -4 17 6 27 22 9 16 22 29 30 29 7 0 11 -4 9 -8z
m665 -14 c0 -3 -2 -5 -5 -5 -3 0 -5 2 -5 5 0 3 2 5 5 5 3 0 5 -2 5 -5z m-570
-80 c0 -20 -5 -25 -26 -25 -14 0 -34 5 -45 11 -17 8 -24 6 -40 -12 -16 -19
-22 -21 -29 -9 -6 9 -2 20 12 32 22 18 64 25 53 9 -3 -5 7 -8 22 -7 15 2 29 8
31 15 7 21 22 11 22 -14z m120 0 c0 -3 -2 -5 -5 -5 -3 0 -5 2 -5 5 0 3 2 5 5
5 3 0 5 -2 5 -5z m317 -12 c-4 -3 -7 0 -7 7 0 7 3 10 7 7 3 -4 3 -10 0 -14z
m-338 -19 c-6 -8 -18 -14 -25 -14 -8 0 -14 6 -14 14 0 8 10 14 25 14 20 0 23
-3 14 -14z m61 1 c0 -19 -39 -40 -52 -27 -6 6 0 12 16 16 14 3 26 11 26 16 0
6 2 10 5 10 3 0 5 -7 5 -15z m316 -12 c-6 -20 -42 -28 -51 -12 -4 5 3 9 15 9
11 0 23 7 27 15 8 22 16 11 9 -12z m-206 -20 c0 -17 -6 -23 -21 -23 -11 0 -18
-4 -15 -9 4 -5 1 -11 -6 -13 -6 -2 -9 -12 -5 -21 4 -11 12 -14 24 -10 11 4 5
-7 -14 -25 -37 -36 -40 -47 -17 -60 19 -11 9 -62 -13 -62 -7 0 -23 -9 -35 -20
-17 -15 -24 -17 -35 -8 -12 10 -11 13 7 23 11 6 17 14 14 18 -4 4 -2 7 5 7 6
0 21 8 31 18 20 18 19 19 -15 46 -34 27 -34 28 -15 48 11 12 16 26 13 32 -4 6
4 4 17 -5 25 -16 25 -16 25 15 0 17 -4 37 -8 43 -6 10 0 11 25 6 29 -5 31 -4
21 9 -10 12 -10 15 2 15 9 0 15 -10 15 -24z m110 10 c0 -3 -10 -15 -22 -28
-24 -25 -30 -72 -10 -80 18 -7 32 2 32 21 0 8 5 12 10 9 6 -3 10 -18 10 -33 0
-20 -8 -33 -31 -46 -31 -19 -60 -16 -58 6 0 10 2 10 6 1 3 -9 10 -10 22 -3 10
5 21 6 25 3 3 -3 6 -1 6 6 0 6 -8 11 -17 9 -11 -2 -17 2 -15 11 2 9 -4 12 -20
8 -17 -5 -27 -1 -35 12 -13 22 -8 31 19 31 22 0 19 18 -7 43 -18 17 -18 18 -2
13 18 -6 51 16 41 26 -3 3 7 3 21 1 14 -3 25 -8 25 -10z m-210 -8 c0 -3 -2 -5
-5 -5 -3 0 -5 2 -5 5 0 3 2 5 5 5 3 0 5 -2 5 -5z m340 -31 c0 -8 -7 -14 -15
-14 -8 0 -15 5 -15 10 0 6 5 10 11 10 8 0 7 6 -2 18 -13 15 -12 16 4 3 9 -7
17 -20 17 -27z m-320 8 c0 -10 -12 -22 -30 -29 -17 -6 -29 -17 -28 -24 2 -8
-8 -15 -22 -17 -28 -4 -42 -20 -35 -39 2 -7 1 -12 -3 -11 -4 1 -17 -4 -30 -11
-25 -14 -52 -9 -52 10 0 8 4 8 15 -1 9 -7 18 -10 22 -6 3 3 0 6 -7 6 -7 0 -10
3 -7 7 4 3 3 11 -3 17 -5 7 -5 17 0 26 7 10 10 11 10 3 0 -20 28 -15 35 6 4
14 12 18 23 14 14 -5 14 -3 -3 17 -11 13 -15 20 -8 16 7 -4 24 0 37 9 19 13
29 14 45 6 26 -14 31 -14 31 4 0 8 2 15 5 15 3 0 5 -8 5 -18z m255 -2 c-3 -6
0 -13 9 -16 17 -6 10 -34 -11 -47 -7 -4 -13 -13 -13 -18 0 -6 5 -7 10 -4 6 3
10 1 10 -4 0 -22 -21 -10 -31 16 -6 16 -18 36 -27 46 -16 18 -15 18 12 11 20
-5 27 -3 22 4 -3 6 0 13 6 15 19 8 20 8 13 -3z m105 -14 c0 -3 -5 -8 -12 -12
-7 -4 -8 -3 -4 4 7 12 16 16 16 8z m-450 -71 c0 -3 -2 -5 -5 -5 -3 0 -5 2 -5
5 0 3 2 5 5 5 3 0 5 -2 5 -5z m33 -9 c4 -10 1 -13 -8 -9 -8 3 -12 9 -9 14 7
12 11 11 17 -5z m117 -61 c0 -3 -2 -5 -5 -5 -3 0 -5 2 -5 5 0 3 2 5 5 5 3 0 5
-2 5 -5z m-450 -80 c0 -3 -2 -5 -5 -5 -3 0 -5 2 -5 5 0 3 2 5 5 5 3 0 5 -2 5
-5z m317 -12 c-4 -3 -7 0 -7 7 0 7 3 10 7 7 3 -4 3 -10 0 -14z m-26 -26 c-12
-12 -31 0 -31 19 0 12 3 12 20 2 11 -7 16 -16 11 -21z m9 28 c0 -3 -2 -5 -5
-5 -3 0 -5 2 -5 5 0 3 2 5 5 5 3 0 5 -2 5 -5z m56 -32 c-6 -20 -42 -28 -51
-12 -4 5 3 9 15 9 11 0 23 7 27 15 8 22 16 11 9 -12z m-306 -18 c0 -3 -2 -5
-5 -5 -3 0 -5 2 -5 5 0 3 2 5 5 5 3 0 5 -2 5 -5z m-25 -25 c3 -5 4 -10 1 -10
-3 0 -8 5 -11 10 -3 6 -4 10 -1 10 3 0 8 -4 11 -10z"/>
<path d="M790 855 c0 -3 2 -5 5 -5 3 0 5 2 5 5 0 3 -2 5 -5 5 -3 0 -5 -2 -5
-5z"/>
<path d="M565 560 c3 -5 11 -10 16 -10 6 0 7 5 4 10 -3 6 -11 10 -16 10 -6 0
-7 -4 -4 -10z"/>
<path d="M750 585 c0 -3 2 -5 5 -5 3 0 5 2 5 5 0 3 -2 5 -5 5 -3 0 -5 -2 -5
-5z"/>
<path d="M426 571 c-4 -5 -2 -12 3 -15 5 -4 12 -2 15 3 4 5 2 12 -3 15 -5 4
-12 2 -15 -3z"/>
<path d="M350 565 c0 -3 2 -5 5 -5 3 0 5 2 5 5 0 3 -2 5 -5 5 -3 0 -5 -2 -5
-5z"/>
<path d="M350 525 c0 -3 2 -5 5 -5 3 0 5 2 5 5 0 3 -2 5 -5 5 -3 0 -5 -2 -5
-5z"/>
<path d="M620 495 c0 -3 2 -5 5 -5 3 0 5 2 5 5 0 3 -2 5 -5 5 -3 0 -5 -2 -5
-5z"/>
<path d="M385 470 c3 -5 8 -10 11 -10 3 0 2 5 -1 10 -3 6 -8 10 -11 10 -3 0
-2 -4 1 -10z"/>
<path d="M790 535 c0 -3 2 -5 5 -5 3 0 5 2 5 5 0 3 -2 5 -5 5 -3 0 -5 -2 -5
-5z"/>
<path d="M70 455 c0 -3 2 -5 5 -5 3 0 5 2 5 5 0 3 -2 5 -5 5 -3 0 -5 -2 -5 -5z"/>
<path d="M430 265 c0 -3 2 -5 5 -5 3 0 5 2 5 5 0 3 -2 5 -5 5 -3 0 -5 -2 -5
-5z"/>
<path d="M345 330 c3 -5 11 -10 16 -10 6 0 7 5 4 10 -3 6 -11 10 -16 10 -6 0
-7 -4 -4 -10z"/>
<path d="M314 318 c-4 -7 -3 -8 4 -4 7 4 12 9 12 12 0 8 -9 4 -16 -8z"/>
<path d="M244 241 c21 -23 26 -26 26 -11 0 5 -10 15 -22 21 -23 12 -23 12 -4
-10z"/>
<path d="M230 925 c-12 -19 -29 -35 -38 -36 -12 0 -10 -3 6 -9 12 -5 22 -15
22 -22 0 -9 3 -9 9 2 6 8 7 19 4 25 -4 5 4 1 17 -10 l23 -20 -7 22 c-4 12 -2
24 4 28 5 3 10 15 10 26 0 13 4 18 12 13 7 -4 8 -3 4 4 -14 23 -44 12 -66 -23z
m10 -20 c0 -3 -2 -5 -5 -5 -3 0 -5 2 -5 5 0 3 2 5 5 5 3 0 5 -2 5 -5z m-20
-20 c0 -3 -2 -5 -5 -5 -3 0 -5 2 -5 5 0 3 2 5 5 5 3 0 5 -2 5 -5z"/>
<path d="M310 955 c0 -3 2 -5 5 -5 3 0 5 2 5 5 0 3 -2 5 -5 5 -3 0 -5 -2 -5
-5z"/>
<path d="M630 950 c0 -7 3 -10 7 -7 3 4 3 10 0 14 -4 3 -7 0 -7 -7z"/>
<path d="M0 945 c0 -3 2 -5 5 -5 3 0 5 2 5 5 0 3 -2 5 -5 5 -3 0 -5 -2 -5 -5z"/>
<path d="M750 905 c0 -3 2 -5 5 -5 3 0 5 2 5 5 0 3 -2 5 -5 5 -3 0 -5 -2 -5
-5z"/>
<path d="M425 890 c-3 -5 1 -10 10 -10 9 0 13 5 10 10 -3 6 -8 10 -10 10 -2 0
-7 -4 -10 -10z"/>
<path d="M565 880 c3 -5 11 -10 16 -10 6 0 7 5 4 10 -3 6 -11 10 -16 10 -6 0
-7 -4 -4 -10z"/>
<path d="M180 865 c0 -3 2 -5 5 -5 3 0 5 2 5 5 0 3 -2 5 -5 5 -3 0 -5 -2 -5
-5z"/>
<path d="M350 845 c0 -3 2 -5 5 -5 3 0 5 2 5 5 0 3 -2 5 -5 5 -3 0 -5 -2 -5
-5z"/>
<path d="M385 790 c3 -5 8 -10 11 -10 3 0 2 5 -1 10 -3 6 -8 10 -11 10 -3 0
-2 -4 1 -10z"/>
<path d="M290 621 c0 -5 7 -15 17 -22 15 -13 15 -12 4 9 -12 23 -21 28 -21 13z"/>
<path d="M250 555 c7 -9 15 -13 17 -11 7 7 -7 26 -19 26 -6 0 -6 -6 2 -15z"/>
<path d="M941 473 c3 -20 -2 -34 -11 -28 -5 3 -10 3 -11 -2 0 -4 -3 -17 -6
-28 -2 -11 -5 -31 -6 -44 -1 -13 -8 -26 -14 -29 -7 -2 -13 -13 -13 -25 0 -12
-7 -31 -15 -41 -8 -10 -12 -23 -9 -27 3 -5 0 -9 -6 -9 -7 0 -14 9 -17 19 -7
27 -28 33 -46 13 -18 -20 -19 -32 -5 -50 9 -10 6 -11 -14 -3 -14 5 -28 7 -31
5 -3 -3 -14 -1 -25 5 -17 9 -19 8 -15 -8 6 -24 -35 -67 -59 -63 -12 2 -18 -3
-18 -17 0 -24 -10 -27 -28 -9 -9 9 -12 9 -12 0 0 -7 4 -12 9 -12 6 0 6 -12 1
-31 -5 -16 -7 -36 -4 -43 3 -8 -2 -16 -11 -20 -9 -3 -14 -10 -11 -15 7 -11 76
-12 76 -1 0 14 33 21 44 10 8 -8 6 -9 -5 -5 -10 4 -20 2 -23 -3 -3 -5 5 -8 17
-7 12 1 28 3 35 4 6 0 12 9 12 19 0 14 2 15 9 2 6 -8 7 -18 5 -22 -3 -4 2 -8
10 -8 19 0 21 21 4 38 -10 10 -5 11 20 6 27 -6 31 -4 26 10 -3 9 -1 16 5 16 6
0 11 -11 11 -25 0 -19 -5 -25 -21 -25 -11 0 -17 -5 -14 -10 3 -6 22 -10 42
-10 l36 0 -19 22 c-18 21 -18 21 0 15 19 -8 49 9 41 23 -2 4 7 5 20 2 31 -6
31 -9 -1 -39 l-26 -24 44 3 c40 3 43 5 46 35 2 24 -1 31 -15 29 -10 0 -19 7
-21 19 -3 16 -1 18 9 8 19 -19 25 -16 27 17 2 21 -2 30 -13 30 -8 0 -15 -5
-15 -11 0 -8 -4 -8 -15 1 -12 10 -13 6 -9 -27 l4 -38 -14 30 c-9 17 -15 36
-16 43 0 6 -9 12 -20 12 -19 0 -20 -2 -5 -30 8 -16 15 -31 15 -35 0 -12 -70
-4 -84 10 -13 14 -16 13 -26 -5 -11 -21 -35 -27 -45 -10 -3 5 10 18 30 27 29
14 38 15 44 4 5 -8 17 -11 30 -6 29 9 26 23 -6 31 -16 4 -33 13 -40 21 -9 12
-13 11 -25 -6 -20 -29 -65 -48 -80 -33 -9 9 -8 12 4 12 9 0 18 9 21 20 3 13
11 18 21 14 10 -4 17 2 21 19 8 31 32 25 46 -11 9 -23 10 -24 28 -8 13 11 21
14 26 7 10 -18 28 -12 21 6 -6 16 -6 16 12 0 23 -21 56 -12 48 12 -4 10 1 8
13 -6 16 -19 20 -20 25 -7 10 26 7 94 -5 94 -5 0 -7 -4 -4 -10 3 -5 1 -10 -4
-10 -6 0 -11 -6 -11 -14 0 -16 -54 -41 -69 -31 -17 10 -13 25 4 19 8 -4 15 -1
15 6 0 10 3 10 15 0 8 -7 15 -8 15 -2 0 5 -10 17 -22 26 -13 8 -16 13 -7 10
10 -3 23 3 31 15 8 12 18 18 21 14 4 -3 7 -2 7 3 0 6 -5 15 -11 21 -9 9 -7 10
10 6 18 -5 21 -1 21 30 0 30 -3 34 -20 30 -14 -4 -20 0 -20 11 0 9 8 16 20 16
16 0 20 7 20 35 0 19 -4 35 -10 35 -5 0 -9 -3 -9 -7z m-101 -256 c0 -16 -6
-23 -20 -23 -14 0 -19 6 -18 23 3 32 38 32 38 0z m107 -34 c-4 -3 -7 0 -7 7 0
7 3 10 7 7 3 -4 3 -10 0 -14z m-287 -78 c0 -3 -2 -5 -5 -5 -3 0 -5 2 -5 5 0 3
2 5 5 5 3 0 5 -2 5 -5z m-27 -17 c20 5 20 4 8 -11 -19 -24 -41 -21 -40 6 0 12
3 17 5 11 3 -7 15 -9 27 -6z m63 -25 c-3 -10 -15 -19 -26 -20 -30 -2 -33 14
-5 21 14 4 25 12 25 18 0 6 3 9 6 5 3 -3 3 -14 0 -24z m14 -18 c0 -3 -2 -5 -5
-5 -3 0 -5 2 -5 5 0 3 2 5 5 5 3 0 5 -2 5 -5z"/>
<path d="M900 450 c0 -7 3 -10 7 -7 3 4 3 10 0 14 -4 3 -7 0 -7 -7z"/>
<path d="M0 310 c0 -7 3 -10 7 -7 3 4 3 10 0 14 -4 3 -7 0 -7 -7z"/>
<path d="M950 305 c0 -3 2 -5 5 -5 3 0 5 2 5 5 0 3 -2 5 -5 5 -3 0 -5 -2 -5
-5z"/>
<path d="M745 250 c-3 -5 1 -10 10 -10 9 0 13 5 10 10 -3 6 -8 10 -10 10 -2 0
-7 -4 -10 -10z"/>
<path d="M470 215 c0 -3 2 -5 5 -5 3 0 5 2 5 5 0 3 -2 5 -5 5 -3 0 -5 -2 -5
-5z"/>
<path d="M65 150 c3 -5 8 -10 11 -10 3 0 2 5 -1 10 -3 6 -8 10 -11 10 -3 0 -2
-4 1 -10z"/>
<path d="M530 141 c0 -11 6 -21 13 -24 15 -5 -9 -37 -29 -37 -23 0 -26 -19 -5
-41 17 -19 23 -20 36 -9 9 7 14 19 11 27 -3 7 1 13 10 13 16 0 15 10 -7 68
-10 27 -29 29 -29 3z"/>
<path d="M705 150 c3 -5 8 -10 11 -10 3 0 2 5 -1 10 -3 6 -8 10 -11 10 -3 0
-2 -4 1 -10z"/>
<path d="M530 5 c0 -3 2 -5 5 -5 3 0 5 2 5 5 0 3 -2 5 -5 5 -3 0 -5 -2 -5 -5z"/>
</g>
<g transform="translate(0.000000,96.000000) scale(0.100000,-0.100000)"
fill="#999593" stroke="none">
<path d="M40 930 c0 -36 16 -40 22 -6 3 15 0 27 -8 30 -10 4 -14 -3 -14 -24z"/>
<path d="M140 944 c0 -8 5 -12 10 -9 6 3 10 10 10 16 0 5 -4 9 -10 9 -5 0 -10
-7 -10 -16z"/>
<path d="M190 949 c0 -5 5 -7 10 -4 6 3 10 8 10 11 0 2 -4 4 -10 4 -5 0 -10
-5 -10 -11z"/>
<path d="M258 946 c-17 -12 -25 -46 -12 -46 13 0 35 31 32 44 -2 12 -6 12 -20
2z"/>
<path d="M460 949 c0 -5 5 -7 10 -4 6 3 10 8 10 11 0 2 -4 4 -10 4 -5 0 -10
-5 -10 -11z"/>
<path d="M505 950 c-3 -5 -2 -10 4 -10 5 0 13 5 16 10 3 6 2 10 -4 10 -5 0
-13 -4 -16 -10z"/>
<path d="M569 958 c0 -2 -2 -16 -4 -31 -4 -33 14 -32 31 1 6 12 14 19 19 14 5
-4 5 -1 1 6 -6 10 -44 18 -47 10z m11 -13 c0 -3 -2 -5 -5 -5 -3 0 -5 2 -5 5 0
3 2 5 5 5 3 0 5 -2 5 -5z"/>
<path d="M727 949 c7 -7 15 -10 18 -7 3 3 -2 9 -12 12 -14 6 -15 5 -6 -5z"/>
<path d="M780 950 c0 -5 5 -10 10 -10 6 0 10 5 10 10 0 6 -4 10 -10 10 -5 0
-10 -4 -10 -10z"/>
<path d="M825 950 c-3 -6 1 -7 9 -4 18 7 21 14 7 14 -6 0 -13 -4 -16 -10z"/>
<path d="M884 947 c-7 -20 1 -47 15 -47 5 0 14 14 20 30 6 18 6 30 0 30 -5 0
-9 -6 -9 -12 0 -9 -3 -8 -10 2 -8 12 -10 12 -16 -3z"/>
<path d="M367 943 c-4 -3 -7 -15 -7 -25 0 -27 23 -17 25 10 2 22 -6 28 -18 15z"/>
<path d="M687 943 c-4 -3 -7 -15 -7 -26 0 -19 1 -19 20 -2 11 10 17 22 14 26
-6 11 -18 12 -27 2z"/>
<path d="M163 913 c4 -3 10 -3 14 0 3 4 0 7 -7 7 -7 0 -10 -3 -7 -7z"/>
<path d="M340 905 c0 -3 2 -5 5 -5 3 0 5 2 5 5 0 3 -2 5 -5 5 -3 0 -5 -2 -5
-5z"/>
<path d="M650 905 c0 -3 2 -5 5 -5 3 0 5 2 5 5 0 3 -2 5 -5 5 -3 0 -5 -2 -5
-5z"/>
<path d="M7 893 c-11 -11 -8 -75 3 -68 6 4 9 22 8 41 -2 38 -2 37 -11 27z"/>
<path d="M140 885 c-10 -12 -10 -15 3 -15 9 0 19 5 22 10 4 6 11 7 17 4 7 -4
8 -2 4 4 -10 16 -31 15 -46 -3z"/>
<path d="M465 890 c-3 -5 -1 -11 4 -14 5 -4 12 -2 16 4 4 6 12 7 18 4 7 -4 8
-3 4 1 -11 12 -36 15 -42 5z"/>
<path d="M626 883 c-4 -13 -14 -23 -21 -23 -8 0 -17 -6 -21 -12 -4 -7 -4 -10
0 -6 5 4 18 3 30 -2 14 -5 28 -3 39 5 21 15 22 35 3 35 -8 0 -16 6 -19 13 -2
7 -7 2 -11 -10z"/>
<path d="M795 890 c3 -5 1 -10 -6 -10 -7 0 -9 -3 -6 -6 4 -4 13 -2 20 4 8 7
18 8 22 4 5 -4 5 -1 1 6 -4 6 -14 12 -22 12 -8 0 -12 -4 -9 -10z"/>
<path d="M940 871 c0 -17 5 -31 10 -31 6 0 10 11 10 24 0 14 -4 28 -10 31 -6
4 -10 -7 -10 -24z"/>
<path d="M221 874 c0 -11 3 -14 6 -6 3 7 2 16 -1 19 -3 4 -6 -2 -5 -13z"/>
<path d="M240 885 c0 -3 2 -5 5 -5 3 0 5 2 5 5 0 3 -2 5 -5 5 -3 0 -5 -2 -5
-5z"/>
<path d="M296 874 c-9 -8 -16 -18 -16 -21 0 -4 3 -3 6 0 4 4 15 -3 25 -14 18
-21 19 -21 25 -3 4 11 9 22 11 26 2 4 -5 12 -16 17 -15 8 -23 7 -35 -5z"/>
<path d="M536 881 c-4 -5 -2 -12 3 -15 5 -4 12 -2 15 3 4 5 2 12 -3 15 -5 4
-12 2 -15 -3z m14 -6 c0 -3 -2 -5 -5 -5 -3 0 -5 2 -5 5 0 3 2 5 5 5 3 0 5 -2
5 -5z"/>
<path d="M110 875 c0 -3 2 -5 5 -5 3 0 5 2 5 5 0 3 -2 5 -5 5 -3 0 -5 -2 -5
-5z"/>
<path d="M573 873 c4 -3 10 -3 14 0 3 4 0 7 -7 7 -7 0 -10 -3 -7 -7z"/>
<path d="M860 875 c0 -3 2 -5 5 -5 3 0 5 2 5 5 0 3 -2 5 -5 5 -3 0 -5 -2 -5
-5z"/>
<path d="M385 851 c3 -5 -1 -16 -10 -24 -13 -13 -12 -15 4 -20 11 -2 23 3 30
15 13 21 7 38 -15 38 -8 0 -13 -4 -9 -9z"/>
<path d="M686 818 c-15 -21 -26 -42 -23 -45 10 -10 27 8 27 30 0 16 3 18 12 9
9 -9 14 -7 24 6 17 22 17 29 1 35 -7 2 -25 -13 -41 -35z"/>
<path d="M920 855 c0 -3 2 -5 5 -5 3 0 5 2 5 5 0 3 -2 5 -5 5 -3 0 -5 -2 -5
-5z"/>
<path d="M57 836 c-3 -8 0 -19 7 -26 10 -8 15 -6 20 6 7 17 0 34 -14 34 -4 0
-10 -6 -13 -14z"/>
<path d="M248 836 c-11 -8 -14 -17 -8 -26 11 -19 34 0 28 23 -2 13 -6 13 -20
3z"/>
<path d="M148 829 c-10 -6 -18 -14 -18 -19 0 -13 21 -12 40 0 22 14 0 32 -22
19z"/>
<path d="M210 835 c0 -3 2 -5 5 -5 3 0 5 2 5 5 0 3 -2 5 -5 5 -3 0 -5 -2 -5
-5z"/>
<path d="M460 818 c0 -21 11 -23 28 -6 17 17 15 24 -8 24 -13 0 -20 -7 -20
-18z"/>
<path d="M530 835 c0 -3 2 -5 5 -5 3 0 5 2 5 5 0 3 -2 5 -5 5 -3 0 -5 -2 -5
-5z"/>
<path d="M887 831 c-17 -6 -17 -8 -3 -20 13 -11 17 -11 22 3 8 21 4 25 -19 17z"/>
<path d="M552 818 c6 -18 25 -20 31 -3 5 10 0 15 -14 15 -12 0 -19 -5 -17 -12z"/>
<path d="M787 823 c-12 -11 -8 -23 8 -23 8 0 15 7 15 15 0 16 -12 20 -23 8z"/>
<path d="M200 810 c0 -7 3 -10 7 -7 3 4 3 10 0 14 -4 3 -7 0 -7 -7z"/>
<path d="M840 815 c0 -3 2 -5 5 -5 3 0 5 2 5 5 0 3 -2 5 -5 5 -3 0 -5 -2 -5
-5z"/>
<path d="M760 805 c0 -3 2 -5 5 -5 3 0 5 2 5 5 0 3 -2 5 -5 5 -3 0 -5 -2 -5
-5z"/>
<path d="M27 793 c-12 -12 -7 -22 8 -17 8 4 15 10 15 15 0 11 -14 12 -23 2z"/>
<path d="M336 790 c-17 -6 -18 -7 -3 -13 9 -3 19 -2 23 4 9 15 2 18 -20 9z"/>
<path d="M765 780 c3 -5 8 -10 11 -10 3 0 2 5 -1 10 -3 6 -8 10 -11 10 -3 0
-2 -4 1 -10z"/>
<path d="M150 775 c0 -3 2 -5 5 -5 3 0 5 2 5 5 0 3 -2 5 -5 5 -3 0 -5 -2 -5
-5z"/>
<path d="M470 775 c0 -3 2 -5 5 -5 3 0 5 2 5 5 0 3 -2 5 -5 5 -3 0 -5 -2 -5
-5z"/>
<path d="M640 775 c0 -3 2 -5 5 -5 3 0 5 2 5 5 0 3 -2 5 -5 5 -3 0 -5 -2 -5
-5z"/>
<path d="M860 775 c0 -3 2 -5 5 -5 3 0 5 2 5 5 0 3 -2 5 -5 5 -3 0 -5 -2 -5
-5z"/>
<path d="M85 760 c-3 -5 1 -10 9 -10 8 0 18 5 21 10 3 6 -1 10 -9 10 -8 0 -18
-4 -21 -10z"/>
<path d="M130 765 c0 -3 2 -5 5 -5 3 0 5 2 5 5 0 3 -2 5 -5 5 -3 0 -5 -2 -5
-5z"/>
<path d="M160 755 c-10 -12 -9 -15 4 -15 10 0 15 4 11 9 -3 5 3 12 12 14 15 4
15 5 2 6 -9 0 -22 -6 -29 -14z"/>
<path d="M220 765 c0 -3 2 -5 5 -5 3 0 5 2 5 5 0 3 -2 5 -5 5 -3 0 -5 -2 -5
-5z"/>
<path d="M410 760 c-8 -5 -12 -11 -9 -14 3 -3 14 1 25 9 21 16 8 20 -16 5z"/>
<path d="M450 765 c0 -3 2 -5 5 -5 3 0 5 2 5 5 0 3 -2 5 -5 5 -3 0 -5 -2 -5
-5z"/>
<path d="M480 755 c-8 -9 -8 -15 -2 -15 12 0 26 19 19 26 -2 2 -10 -2 -17 -11z"/>
<path d="M540 759 c0 -18 39 -71 40 -54 0 6 -9 24 -20 40 -13 20 -20 24 -20
14z"/>
<path d="M724 762 c-6 -4 -14 -16 -17 -27 -6 -17 -5 -18 5 -4 7 8 22 21 33 27
14 8 16 11 5 12 -8 0 -20 -4 -26 -8z"/>
<path d="M821 754 c0 -11 3 -14 6 -6 3 7 2 16 -1 19 -3 4 -6 -2 -5 -13z"/>
<path d="M936 757 c-14 -10 -16 -16 -7 -22 15 -9 35 8 30 24 -3 8 -10 7 -23
-2z"/>
<path d="M0 750 c0 -7 3 -10 7 -7 3 4 3 10 0 14 -4 3 -7 0 -7 -7z"/>
<path d="M17 733 c-7 -36 -1 -41 20 -20 16 16 16 18 1 33 -14 14 -16 13 -21
-13z"/>
<path d="M232 743 c-10 -17 -9 -22 5 -27 20 -8 21 -6 13 24 -6 25 -6 25 -18 3z"/>
<path d="M277 741 c-4 -17 -2 -18 24 -9 35 12 38 28 5 28 -15 0 -26 -7 -29
-19z"/>
<path d="M340 755 c0 -3 2 -5 5 -5 3 0 5 2 5 5 0 3 -2 5 -5 5 -3 0 -5 -2 -5
-5z"/>
<path d="M610 745 c0 -18 8 -18 40 0 l25 14 -32 1 c-23 0 -33 -5 -33 -15z"/>
<path d="M795 750 c-3 -5 -1 -10 4 -10 6 0 11 5 11 10 0 6 -2 10 -4 10 -3 0
-8 -4 -11 -10z"/>
<path d="M590 745 c0 -3 2 -5 5 -5 3 0 5 2 5 5 0 3 -2 5 -5 5 -3 0 -5 -2 -5
-5z"/>
<path d="M867 743 c-4 -6 0 -16 8 -23 21 -17 28 -8 11 15 -8 11 -15 14 -19 8z"/>
<path d="M70 735 c0 -3 2 -5 5 -5 3 0 5 2 5 5 0 3 -2 5 -5 5 -3 0 -5 -2 -5 -5z"/>
<path d="M345 732 c-6 -4 -21 -20 -33 -36 -14 -19 -22 -23 -22 -13 0 9 -4 19
-10 22 -7 4 -7 -2 -1 -18 6 -14 7 -28 4 -31 -11 -11 12 -6 28 7 9 7 14 18 12
25 -3 6 2 12 10 12 7 0 22 9 32 20 14 15 15 20 4 20 -8 0 -19 -4 -24 -8z"/>
<path d="M650 720 c-8 -15 -8 -20 3 -20 14 0 37 19 37 32 0 16 -30 7 -40 -12z"/>
<path d="M115 710 c-22 -11 -38 -20 -35 -20 41 -10 72 1 78 28 3 15 5 15 -43
-8z"/>
<path d="M590 725 c0 -3 2 -5 5 -5 3 0 5 2 5 5 0 3 -2 5 -5 5 -3 0 -5 -2 -5
-5z"/>
<path d="M176 703 c-6 -14 -5 -15 5 -6 7 7 10 15 7 18 -3 3 -9 -2 -12 -12z"/>
<path d="M195 703 c-8 -23 13 -42 25 -23 13 21 12 27 -4 33 -8 3 -17 -1 -21
-10z"/>
<path d="M435 710 c-4 -6 -16 -8 -27 -4 -17 5 -19 4 -8 -7 19 -21 57 -20 63 2
5 20 -17 27 -28 9z"/>
<path d="M480 715 c0 -3 2 -5 5 -5 3 0 5 2 5 5 0 3 -2 5 -5 5 -3 0 -5 -2 -5
-5z"/>
<path d="M509 717 c-8 -17 -4 -37 9 -42 16 -6 34 12 29 29 -3 8 -35 18 -38 13z"/>
<path d="M745 710 c3 -5 1 -10 -4 -10 -22 0 -10 -15 13 -16 16 -1 26 5 29 17
4 15 0 19 -20 19 -13 0 -21 -4 -18 -10z"/>
<path d="M826 713 c-3 -3 -1 -14 5 -25 8 -16 13 -17 25 -7 8 7 13 17 11 22 -3
11 -33 18 -41 10z"/>
<path d="M710 705 c0 -3 2 -5 5 -5 3 0 5 2 5 5 0 3 -2 5 -5 5 -3 0 -5 -2 -5
-5z"/>
<path d="M922 697 c12 -9 14 -18 7 -30 -11 -20 1 -23 19 -5 18 18 15 23 -15
37 -24 9 -25 9 -11 -2z"/>
<path d="M604 688 c-5 -7 -3 -8 6 -3 8 5 11 3 8 -6 -3 -8 -12 -13 -22 -11 -9
2 -16 -3 -16 -9 0 -7 3 -9 6 -6 4 3 16 2 27 -4 14 -8 18 -8 13 0 -7 10 6 16
27 12 14 -2 -3 18 -23 29 -13 7 -21 7 -26 -2z"/>
<path d="M38 684 c-3 -3 -4 -14 -1 -25 5 -18 6 -18 18 -2 17 23 2 47 -17 27z"/>
<path d="M355 680 c-20 -9 -17 -11 23 -15 18 -2 20 0 11 11 -6 8 -12 14 -13
13 0 0 -10 -4 -21 -9z"/>
<path d="M670 679 c0 -4 6 -11 13 -17 9 -8 16 -6 24 7 9 14 7 17 -13 17 -13 0
-24 -3 -24 -7z"/>
<path d="M0 675 c0 -3 2 -5 5 -5 3 0 5 2 5 5 0 3 -2 5 -5 5 -3 0 -5 -2 -5 -5z"/>
<path d="M136 644 c-10 -25 -7 -34 9 -28 8 4 15 15 15 25 0 23 -16 25 -24 3z"/>
<path d="M184 639 c0 -10 4 -19 8 -19 10 0 10 27 0 34 -4 2 -8 -4 -8 -15z"/>
<path d="M460 639 c0 -11 5 -17 10 -14 6 3 10 13 10 21 0 8 -4 14 -10 14 -5 0
-10 -9 -10 -21z"/>
<path d="M893 653 c4 -3 10 -3 14 0 3 4 0 7 -7 7 -7 0 -10 -3 -7 -7z"/>
<path d="M500 645 c0 -3 2 -5 5 -5 3 0 5 2 5 5 0 3 -2 5 -5 5 -3 0 -5 -2 -5
-5z"/>
<path d="M780 635 c0 -8 5 -15 10 -15 6 0 10 7 10 15 0 8 -4 15 -10 15 -5 0
-10 -7 -10 -15z"/>
<path d="M247 633 c-12 -11 -7 -24 6 -17 8 5 7 2 -2 -9 -16 -21 -11 -30 13
-21 19 7 22 54 3 54 -8 0 -17 -3 -20 -7z"/>
<path d="M510 630 c-9 -6 -10 -10 -3 -10 6 0 15 5 18 10 8 12 4 12 -15 0z"/>
<path d="M569 638 c0 -2 -2 -16 -4 -31 -4 -33 14 -32 31 1 6 12 14 19 19 14 5
-4 5 -1 1 6 -6 10 -44 18 -47 10z m11 -13 c0 -3 -2 -5 -5 -5 -3 0 -5 2 -5 5 0
3 2 5 5 5 3 0 5 -2 5 -5z"/>
<path d="M698 628 c-18 -15 -31 -48 -19 -48 12 0 35 29 37 46 3 17 2 17 -18 2z"/>
<path d="M825 630 c-3 -6 1 -7 9 -4 18 7 21 14 7 14 -6 0 -13 -4 -16 -10z"/>
<path d="M884 627 c-8 -22 3 -50 18 -45 14 5 30 58 17 58 -5 0 -9 -6 -9 -12 0
-9 -3 -8 -10 2 -8 12 -10 12 -16 -3z"/>
<path d="M43 618 c-14 -23 -11 -36 7 -31 12 3 16 11 13 21 -5 11 -3 13 7 7 9
-5 11 -4 6 3 -9 16 -23 15 -33 0z"/>
<path d="M90 625 c0 -3 2 -5 5 -5 3 0 5 2 5 5 0 3 -2 5 -5 5 -3 0 -5 -2 -5 -5z"/>
<path d="M361 608 c-10 -27 -7 -33 14 -24 9 3 13 10 10 16 -3 5 -1 10 5 10 6
0 8 5 5 10 -10 17 -25 11 -34 -12z"/>
<path d="M733 623 c4 -3 10 -3 14 0 3 4 0 7 -7 7 -7 0 -10 -3 -7 -7z"/>
<path d="M630 585 c0 -3 2 -5 5 -5 3 0 5 2 5 5 0 3 -2 5 -5 5 -3 0 -5 -2 -5
-5z"/>
<path d="M7 573 c-13 -12 -8 -55 6 -50 6 2 10 11 8 18 -2 8 -4 20 -4 27 0 14
-1 14 -10 5z"/>
<path d="M145 570 c-4 -6 -10 -8 -15 -5 -5 3 -11 2 -14 -3 -2 -4 6 -9 19 -10
13 -1 27 3 30 8 4 6 11 7 17 4 7 -4 8 -2 4 4 -9 15 -33 16 -41 2z"/>
<path d="M302 554 c-1 -14 5 -32 13 -41 13 -13 16 -12 24 9 7 17 4 27 -10 41
-23 22 -24 22 -27 -9z"/>
<path d="M465 569 c-10 -16 3 -23 18 -11 8 7 18 8 22 4 5 -4 5 -1 1 6 -9 15
-32 16 -41 1z"/>
<path d="M650 575 c0 -3 2 -5 5 -5 3 0 5 2 5 5 0 3 -2 5 -5 5 -3 0 -5 -2 -5
-5z"/>
<path d="M800 570 c0 -5 -7 -10 -17 -10 -9 0 -14 -3 -10 -6 3 -4 14 -3 24 1
10 5 22 7 26 6 5 -1 6 3 2 9 -8 13 -25 13 -25 0z"/>
<path d="M940 551 c0 -17 5 -31 10 -31 6 0 10 11 10 24 0 14 -4 28 -10 31 -6
4 -10 -7 -10 -24z"/>
<path d="M536 561 c-4 -5 -2 -12 3 -15 5 -4 12 -2 15 3 4 5 2 12 -3 15 -5 4
-12 2 -15 -3z"/>
<path d="M620 556 c0 -9 -6 -16 -14 -16 -8 0 -18 -5 -21 -10 -4 -6 -3 -10 2
-9 4 1 10 0 13 -1 23 -9 41 -5 56 11 19 21 18 24 -13 33 -17 6 -23 3 -23 -8z"/>
<path d="M260 555 c0 -3 2 -5 5 -5 3 0 5 2 5 5 0 3 -2 5 -5 5 -3 0 -5 -2 -5
-5z"/>
<path d="M580 555 c0 -3 2 -5 5 -5 3 0 5 2 5 5 0 3 -2 5 -5 5 -3 0 -5 -2 -5
-5z"/>
<path d="M855 550 c3 -5 8 -10 11 -10 3 0 2 5 -1 10 -3 6 -8 10 -11 10 -3 0
-2 -4 1 -10z"/>
<path d="M52 501 c-34 -42 -38 -51 -23 -51 5 0 13 9 16 21 4 11 12 18 18 16
13 -4 36 21 37 41 0 22 -16 13 -48 -27z"/>
<path d="M273 533 c4 -3 10 -3 14 0 3 4 0 7 -7 7 -7 0 -10 -3 -7 -7z"/>
<path d="M385 531 c3 -5 1 -13 -5 -16 -8 -5 -7 -11 1 -21 10 -12 14 -11 27 7
12 18 13 23 1 30 -18 11 -32 11 -24 0z"/>
<path d="M920 535 c0 -3 2 -5 5 -5 3 0 5 2 5 5 0 3 -2 5 -5 5 -3 0 -5 -2 -5
-5z"/>
<path d="M135 508 c6 -27 9 -30 29 -22 23 9 20 19 -8 32 -22 10 -24 9 -21 -10z"/>
<path d="M700 515 c-7 -9 -10 -19 -6 -22 8 -9 38 9 44 25 5 17 -23 15 -38 -3z"/>
<path d="M248 513 c-10 -3 -18 -8 -18 -13 0 -16 15 -18 33 -5 20 14 12 24 -15
18z"/>
<path d="M460 500 c0 -23 13 -26 29 -6 9 11 8 15 -5 20 -23 9 -24 8 -24 -14z"/>
<path d="M520 515 c0 -3 2 -5 5 -5 3 0 5 2 5 5 0 3 -2 5 -5 5 -3 0 -5 -2 -5
-5z"/>
<path d="M850 515 c0 -3 2 -5 5 -5 3 0 5 2 5 5 0 3 -2 5 -5 5 -3 0 -5 -2 -5
-5z"/>
<path d="M888 511 c-12 -4 -15 -10 -8 -21 7 -11 12 -12 21 -3 16 16 8 32 -13
24z"/>
<path d="M556 495 c4 -8 10 -15 14 -15 4 0 10 7 14 15 4 10 -1 15 -14 15 -13
0 -18 -5 -14 -15z"/>
<path d="M787 503 c-12 -11 -8 -23 7 -23 8 0 16 7 20 15 5 15 -14 21 -27 8z"/>
<path d="M342 475 c-19 -10 -20 -14 -8 -18 10 -4 20 1 26 13 6 11 9 20 8 19
-2 -1 -13 -7 -26 -14z"/>
<path d="M666 474 c-8 -21 -4 -25 14 -14 11 7 12 12 4 20 -8 8 -13 7 -18 -6z"/>
<path d="M760 485 c0 -3 2 -5 5 -5 3 0 5 2 5 5 0 3 -2 5 -5 5 -3 0 -5 -2 -5
-5z"/>
<path d="M840 485 c0 -3 2 -5 5 -5 3 0 5 2 5 5 0 3 -2 5 -5 5 -3 0 -5 -2 -5
-5z"/>
<path d="M640 460 c0 -7 3 -10 7 -7 3 4 3 10 0 14 -4 3 -7 0 -7 -7z"/>
<path d="M0 455 c0 -3 2 -5 5 -5 3 0 5 2 5 5 0 3 -2 5 -5 5 -3 0 -5 -2 -5 -5z"/>
<path d="M93 444 c-18 -9 -33 -23 -33 -32 0 -12 6 -10 28 9 15 13 31 27 37 31
14 12 3 9 -32 -8z"/>
<path d="M160 450 c0 -6 7 -10 15 -10 8 0 15 2 15 4 0 2 -7 6 -15 10 -8 3 -15
1 -15 -4z"/>
<path d="M470 455 c0 -3 2 -5 5 -5 3 0 5 2 5 5 0 3 -2 5 -5 5 -3 0 -5 -2 -5
-5z"/>
<path d="M770 450 c0 -7 3 -10 7 -7 3 4 3 10 0 14 -4 3 -7 0 -7 -7z"/>
<path d="M298 436 c-10 -7 -15 -15 -12 -18 7 -8 44 3 44 13 0 15 -15 17 -32 5z"/>
<path d="M410 440 c-8 -5 -12 -11 -9 -14 3 -3 14 1 25 9 21 16 8 20 -16 5z"/>
<path d="M450 445 c0 -3 2 -5 5 -5 3 0 5 2 5 5 0 3 -2 5 -5 5 -3 0 -5 -2 -5
-5z"/>
<path d="M480 435 c-8 -9 -8 -15 -2 -15 12 0 26 19 19 26 -2 2 -10 -2 -17 -11z"/>
<path d="M540 439 c0 -18 39 -71 40 -54 0 6 -9 24 -20 40 -13 20 -20 24 -20
14z"/>
<path d="M723 443 c-7 -2 -13 -12 -13 -20 0 -14 -3 -13 -25 1 -32 21 -75 21
-75 0 0 -10 5 -14 15 -10 51 20 49 21 30 -7 -15 -23 -15 -27 -2 -27 8 0 20 7
27 15 6 8 15 13 19 12 3 -1 19 8 35 21 26 20 20 28 -11 15z"/>
<path d="M804 434 c-18 -15 -18 -15 2 -5 12 6 25 7 29 3 5 -4 5 -1 1 6 -9 15
-8 15 -32 -4z"/>
<path d="M931 436 c-21 -12 -22 -14 -6 -20 20 -7 39 6 34 22 -3 7 -13 6 -28
-2z"/>
<path d="M16 426 c18 -14 18 -15 2 -21 -10 -4 -18 -11 -18 -16 0 -14 26 -10
40 6 15 18 -2 45 -28 45 -13 0 -12 -3 4 -14z"/>
<path d="M224 418 c1 -16 -4 -23 -16 -22 -10 1 -15 -2 -12 -7 3 -5 0 -9 -7 -9
-8 0 -8 -4 1 -15 18 -21 29 -19 36 9 4 15 11 23 19 19 11 -4 12 0 2 21 -15 32
-24 33 -23 4z"/>
<path d="M340 435 c0 -3 2 -5 5 -5 3 0 5 2 5 5 0 3 -2 5 -5 5 -3 0 -5 -2 -5
-5z"/>
<path d="M150 425 c0 -3 2 -5 5 -5 3 0 5 2 5 5 0 3 -2 5 -5 5 -3 0 -5 -2 -5
-5z"/>
<path d="M180 425 c0 -3 2 -5 5 -5 3 0 5 2 5 5 0 3 -2 5 -5 5 -3 0 -5 -2 -5
-5z"/>
<path d="M590 425 c0 -3 2 -5 5 -5 3 0 5 2 5 5 0 3 -2 5 -5 5 -3 0 -5 -2 -5
-5z"/>
<path d="M860 409 c-7 -12 -18 -18 -26 -15 -18 7 -18 -5 1 -30 13 -16 16 -17
25 -4 5 8 8 21 5 28 -3 10 1 11 16 7 18 -6 20 -5 10 14 -14 26 -18 26 -31 0z"/>
<path d="M328 397 c-14 -13 -28 -30 -31 -38 -4 -11 -6 -10 -6 3 -1 9 -5 19 -9
22 -5 3 -6 -8 -4 -25 4 -29 16 -37 26 -20 3 5 17 9 31 9 13 0 23 -4 20 -8 -2
-4 7 -5 21 -2 19 3 22 7 13 18 -7 9 -18 10 -34 4 -23 -9 -35 -5 -35 12 0 4 6
8 13 8 8 0 22 9 32 20 27 30 -5 27 -37 -3z"/>
<path d="M590 405 c0 -3 2 -5 5 -5 3 0 5 2 5 5 0 3 -2 5 -5 5 -3 0 -5 -2 -5
-5z"/>
<path d="M105 387 c-17 -13 -17 -14 4 -20 14 -3 24 0 28 9 3 8 9 11 14 8 5 -3
9 0 9 5 0 15 -33 14 -55 -2z"/>
<path d="M435 390 c-4 -6 -16 -8 -27 -4 -17 5 -19 4 -8 -7 19 -21 57 -20 63 2
5 20 -17 27 -28 9z"/>
<path d="M480 395 c0 -3 2 -5 5 -5 3 0 5 2 5 5 0 3 -2 5 -5 5 -3 0 -5 -2 -5
-5z"/>
<path d="M509 397 c-8 -17 -4 -37 9 -42 16 -6 34 12 29 29 -3 8 -35 18 -38 13z"/>
<path d="M745 390 c3 -5 0 -10 -7 -10 -9 0 -9 -3 2 -10 23 -15 37 -12 43 10 4
16 0 20 -20 20 -13 0 -21 -4 -18 -10z"/>
<path d="M70 385 c0 -3 2 -5 5 -5 3 0 5 2 5 5 0 3 -2 5 -5 5 -3 0 -5 -2 -5 -5z"/>
<path d="M710 385 c0 -3 2 -5 5 -5 3 0 5 2 5 5 0 3 -2 5 -5 5 -3 0 -5 -2 -5
-5z"/>
<path d="M922 378 c15 -11 15 -14 -10 -30 l-26 -17 24 1 c26 2 50 15 50 28 0
4 -12 12 -27 18 -22 9 -24 9 -11 0z m8 -33 c0 -3 -2 -5 -5 -5 -3 0 -5 2 -5 5
0 3 2 5 5 5 3 0 5 -2 5 -5z"/>
<path d="M604 368 c-5 -7 -3 -8 6 -3 8 5 11 3 8 -6 -3 -8 -12 -13 -22 -11 -9
2 -16 -1 -16 -7 0 -12 48 -7 62 7 7 7 4 14 -10 21 -15 8 -23 8 -28 -1z"/>
<path d="M42 362 c-17 -5 -5 -22 17 -22 10 0 18 6 18 13 0 14 -12 17 -35 9z"/>
<path d="M685 362 c-16 -11 -15 -29 0 -29 16 0 28 24 17 31 -5 3 -12 2 -17 -2z"/>
<path d="M15 340 c10 -11 20 -20 23 -20 3 0 -3 9 -13 20 -10 11 -20 20 -23 20
-3 0 3 -9 13 -20z"/>
<path d="M260 345 c0 -3 2 -5 5 -5 3 0 5 2 5 5 0 3 -2 5 -5 5 -3 0 -5 -2 -5
-5z"/>
<path d="M189 338 c-10 -33 1 -52 16 -28 3 6 1 10 -5 10 -6 0 -8 5 -5 10 3 6
4 10 1 10 -3 0 -6 -1 -7 -2z"/>
<path d="M460 320 c0 -11 5 -20 10 -20 6 0 10 9 10 20 0 11 -4 20 -10 20 -5 0
-10 -9 -10 -20z"/>
<path d="M140 315 c0 -8 -5 -15 -12 -15 -6 0 -9 -3 -5 -6 3 -3 15 0 26 8 12 8
18 18 14 21 -11 12 -23 8 -23 -8z"/>
<path d="M257 312 c4 -10 2 -13 -5 -8 -8 5 -10 1 -5 -10 4 -12 3 -15 -5 -10
-8 5 -10 2 -6 -9 8 -20 26 -14 40 13 6 12 14 19 19 14 5 -4 5 -2 2 4 -4 7 -15
14 -26 17 -15 3 -18 1 -14 -11z"/>
<path d="M503 315 c0 -7 6 -11 14 -8 7 3 13 6 13 8 0 2 -6 5 -13 8 -8 3 -14
-1 -14 -8z"/>
<path d="M780 314 c0 -8 5 -12 10 -9 6 3 10 10 10 16 0 5 -4 9 -10 9 -5 0 -10
-7 -10 -16z"/>
<path d="M378 308 c-18 -15 -31 -48 -19 -48 12 0 35 29 37 46 3 17 2 17 -18 2z"/>
<path d="M564 307 c-8 -22 3 -50 18 -45 14 5 30 58 17 58 -5 0 -9 -6 -9 -12 0
-9 -3 -8 -10 2 -8 12 -10 12 -16 -3z"/>
<path d="M825 310 c-3 -5 -2 -10 4 -10 5 0 13 5 16 10 3 6 2 10 -4 10 -5 0
-13 -4 -16 -10z"/>
<path d="M889 303 c-12 -15 -12 -16 1 -8 13 8 13 7 1 -8 -23 -29 -2 -33 24 -5
13 14 21 29 18 32 -11 11 -30 6 -44 -11z"/>
<path d="M47 303 c-4 -3 -7 -15 -7 -25 0 -26 24 -17 28 10 3 21 -8 29 -21 15z"/>
<path d="M413 303 c4 -3 10 -3 14 0 3 4 0 7 -7 7 -7 0 -10 -3 -7 -7z"/>
<path d="M687 303 c-4 -3 -7 -15 -7 -25 0 -27 23 -17 25 10 2 22 -6 28 -18 15z"/>
<path d="M160 275 c0 -3 2 -5 5 -5 3 0 5 2 5 5 0 3 -2 5 -5 5 -3 0 -5 -2 -5
-5z"/>
<path d="M180 275 c0 -3 2 -5 5 -5 3 0 5 2 5 5 0 3 -2 5 -5 5 -3 0 -5 -2 -5
-5z"/>
<path d="M10 265 c0 -3 2 -5 5 -5 3 0 5 2 5 5 0 3 -2 5 -5 5 -3 0 -5 -2 -5 -5z"/>
<path d="M650 259 c0 -6 -7 -9 -15 -5 -20 7 -20 -40 0 -60 12 -13 15 -12 25 7
8 14 9 24 2 31 -6 6 -8 17 -5 24 3 8 2 14 -1 14 -3 0 -6 -5 -6 -11z"/>
<path d="M145 249 c-10 -16 3 -23 18 -11 8 7 18 8 22 4 5 -4 5 -1 1 6 -9 15
-32 16 -41 1z"/>
<path d="M214 243 c2 -10 6 -17 10 -16 15 3 16 11 2 22 -12 10 -14 9 -12 -6z
m16 -8 c0 -3 -2 -5 -5 -5 -3 0 -5 2 -5 5 0 3 2 5 5 5 3 0 5 -2 5 -5z"/>
<path d="M330 255 c0 -3 2 -5 5 -5 3 0 5 2 5 5 0 3 -2 5 -5 5 -3 0 -5 -2 -5
-5z"/>
<path d="M480 250 c0 -5 -7 -10 -17 -10 -9 0 -14 -3 -10 -6 3 -4 14 -3 24 1
10 5 22 7 26 6 5 -1 6 3 2 9 -8 13 -25 13 -25 0z"/>
<path d="M785 250 c-3 -5 -1 -11 4 -14 5 -4 12 -2 16 4 4 6 12 7 18 4 7 -4 8
-3 4 1 -11 12 -36 15 -42 5z"/>
<path d="M0 214 c1 -36 2 -38 15 -20 19 25 19 31 0 46 -13 11 -15 7 -15 -26z"/>
<path d="M296 229 c-20 -24 -20 -26 3 -32 17 -4 51 19 51 35 0 16 -40 13 -54
-3z"/>
<path d="M940 239 c0 -7 -8 -18 -17 -25 -16 -12 -15 -13 10 -14 22 0 27 4 27
25 0 14 -4 25 -10 25 -5 0 -10 -5 -10 -11z"/>
<path d="M535 230 c3 -5 8 -10 11 -10 3 0 2 5 -1 10 -3 6 -8 10 -11 10 -3 0
-2 -4 1 -10z"/>
<path d="M858 233 c7 -3 16 -2 19 1 4 3 -2 6 -13 5 -11 0 -14 -3 -6 -6z"/>
<path d="M890 235 c0 -3 2 -5 5 -5 3 0 5 2 5 5 0 3 -2 5 -5 5 -3 0 -5 -2 -5
-5z"/>
<path d="M65 211 c3 -5 -10 -25 -30 -44 -24 -23 -30 -34 -18 -34 8 0 18 9 21
19 3 13 11 18 22 15 9 -2 22 4 29 15 13 21 7 38 -15 38 -8 0 -13 -4 -9 -9z"/>
<path d="M600 215 c0 -3 2 -5 5 -5 3 0 5 2 5 5 0 3 -2 5 -5 5 -3 0 -5 -2 -5
-5z"/>
<path d="M705 211 c3 -5 -1 -16 -10 -24 -13 -13 -12 -15 4 -20 11 -2 23 3 30
15 13 21 7 38 -15 38 -8 0 -13 -4 -9 -9z"/>
<path d="M380 195 c-7 -9 -10 -19 -6 -22 8 -9 38 9 44 25 5 17 -23 15 -38 -3z"/>
<path d="M140 180 c0 -23 13 -26 29 -6 9 11 8 15 -5 20 -23 9 -24 8 -24 -14z"/>
<path d="M237 191 c-17 -6 -17 -8 -3 -20 13 -11 18 -10 30 2 18 18 2 28 -27
18z"/>
<path d="M530 195 c0 -3 2 -5 5 -5 3 0 5 2 5 5 0 3 -2 5 -5 5 -3 0 -5 -2 -5
-5z"/>
<path d="M568 191 c-12 -4 -15 -10 -8 -21 7 -11 12 -12 21 -3 16 16 8 32 -13
24z"/>
<path d="M780 178 c0 -21 11 -23 28 -6 17 17 15 24 -8 24 -13 0 -20 -7 -20
-18z"/>
<path d="M850 195 c0 -3 2 -5 5 -5 3 0 5 2 5 5 0 3 -2 5 -5 5 -3 0 -5 -2 -5
-5z"/>
<path d="M467 183 c-12 -11 -8 -23 7 -23 8 0 16 7 20 15 5 15 -14 21 -27 8z"/>
<path d="M872 178 c6 -18 25 -20 31 -3 5 10 0 15 -14 15 -12 0 -19 -5 -17 -12z"/>
<path d="M346 154 c-8 -21 -4 -25 14 -14 11 7 12 12 4 20 -8 8 -13 7 -18 -6z"/>
<path d="M440 165 c0 -3 2 -5 5 -5 3 0 5 2 5 5 0 3 -2 5 -5 5 -3 0 -5 -2 -5
-5z"/>
<path d="M520 165 c0 -3 2 -5 5 -5 3 0 5 2 5 5 0 3 -2 5 -5 5 -3 0 -5 -2 -5
-5z"/>
<path d="M637 133 c-23 -17 -34 -30 -28 -36 6 -6 18 -3 32 7 13 9 18 16 11 16
-7 0 -10 5 -7 10 4 6 10 8 15 5 5 -3 12 0 15 6 14 21 -2 18 -38 -8z"/>
<path d="M114 142 c4 -7 1 -12 -7 -12 -8 0 -20 -7 -27 -15 -18 -21 3 -19 31 3
17 15 19 21 9 27 -9 5 -11 4 -6 -3z"/>
<path d="M320 140 c0 -7 3 -10 7 -7 3 4 3 10 0 14 -4 3 -7 0 -7 -7z"/>
<path d="M450 130 c0 -7 3 -10 7 -7 3 4 3 10 0 14 -4 3 -7 0 -7 -7z"/>
<path d="M737 124 c-16 -9 -27 -18 -24 -21 3 -2 16 1 29 8 12 7 27 12 31 11 5
-1 6 2 2 8 -7 12 -4 13 -38 -6z"/>
<path d="M860 130 c0 -7 3 -10 7 -7 3 4 3 10 0 14 -4 3 -7 0 -7 -7z"/>
<path d="M160 115 c-8 -9 -8 -15 -2 -15 12 0 26 19 19 26 -2 2 -10 -2 -17 -11z"/>
<path d="M220 119 c0 -18 39 -71 40 -54 0 6 -9 24 -20 40 -13 20 -20 24 -20
14z"/>
<path d="M403 123 c-7 -2 -13 -12 -13 -20 0 -14 -3 -13 -25 1 -32 21 -75 21
-75 0 0 -10 5 -14 15 -10 51 20 49 21 30 -7 -15 -23 -15 -27 -2 -27 8 0 20 7
27 15 6 8 15 13 19 12 3 -1 19 8 35 21 26 20 20 28 -11 15z"/>
<path d="M484 114 c-18 -15 -18 -15 2 -5 12 6 25 7 29 3 5 -4 5 -1 1 6 -9 15
-8 15 -32 -4z"/>
<path d="M801 117 c-8 -10 -7 -14 4 -14 8 0 12 4 9 8 -2 4 2 10 8 12 8 4 9 6
2 6 -6 1 -17 -5 -23 -12z"/>
<path d="M0 110 c0 -7 3 -10 7 -7 3 4 3 10 0 14 -4 3 -7 0 -7 -7z"/>
<path d="M20 115 c0 -3 2 -5 5 -5 3 0 5 2 5 5 0 3 -2 5 -5 5 -3 0 -5 -2 -5 -5z"/>
<path d="M925 111 c-3 -5 -1 -12 5 -16 12 -7 30 2 30 16 0 12 -27 12 -35 0z"/>
<path d="M547 103 c-4 -6 0 -16 8 -23 21 -17 28 -8 11 15 -8 11 -15 14 -19 8z"/>
<path d="M870 91 c10 -21 30 -37 30 -26 0 14 -21 45 -31 45 -6 0 -6 -7 1 -19z"/>
<path d="M14 83 c-11 -12 -13 -18 -5 -21 13 -4 41 16 41 29 0 14 -17 10 -36
-8z"/>
<path d="M654 86 c-22 -17 -11 -35 13 -20 19 12 29 34 16 34 -5 0 -18 -6 -29
-14z"/>
<path d="M270 85 c0 -3 2 -5 5 -5 3 0 5 2 5 5 0 3 -2 5 -5 5 -3 0 -5 -2 -5 -5z"/>
<path d="M910 85 c0 -3 2 -5 5 -5 3 0 5 2 5 5 0 3 -2 5 -5 5 -3 0 -5 -2 -5 -5z"/>
<path d="M115 70 c-4 -6 -16 -8 -28 -4 -18 5 -20 4 -10 -6 20 -22 60 -21 66 1
5 20 -17 27 -28 9z"/>
<path d="M175 70 c-3 -4 5 -16 16 -26 17 -16 22 -16 29 -4 6 8 8 19 7 24 -4
11 -46 16 -52 6z m15 -5 c0 -3 -2 -5 -5 -5 -3 0 -5 2 -5 5 0 3 2 5 5 5 3 0 5
-2 5 -5z"/>
<path d="M425 70 c3 -5 0 -10 -7 -10 -9 0 -9 -3 2 -10 23 -15 37 -12 43 10 4
16 0 20 -20 20 -13 0 -21 -4 -18 -10z"/>
<path d="M500 70 c0 -3 7 -15 15 -26 13 -16 16 -17 25 -4 5 8 8 19 7 24 -4 11
-47 16 -47 6z"/>
<path d="M755 69 c-4 -6 -14 -8 -22 -5 -8 4 -13 1 -11 -5 2 -7 16 -13 30 -15
19 -2 27 3 31 17 6 20 -17 27 -28 8z"/>
<path d="M816 71 c-3 -4 4 -17 15 -27 17 -16 22 -16 29 -4 6 8 10 18 10 22 0
12 -18 19 -25 8 -3 -5 -12 -10 -18 -10 -7 0 -6 4 3 10 9 6 10 10 3 10 -6 0
-14 -4 -17 -9z"/>
<path d="M390 65 c0 -3 2 -5 5 -5 3 0 5 2 5 5 0 3 -2 5 -5 5 -3 0 -5 -2 -5 -5z"/>
<path d="M604 55 c11 -8 15 -15 10 -15 -6 0 -11 -7 -11 -15 0 -17 13 -20 22
-5 3 5 26 7 51 4 43 -5 44 -4 32 15 -7 11 -15 16 -18 12 -9 -16 -35 -15 -70 2
-26 14 -30 14 -16 2z"/>
<path d="M288 53 c6 -2 12 -9 12 -14 0 -6 -4 -8 -8 -5 -5 3 -9 -1 -9 -9 0 -19
14 -19 33 0 13 12 12 15 -5 25 -11 5 -23 10 -28 9 -4 0 -2 -3 5 -6z"/>
<path d="M924 48 c-4 -7 -3 -8 4 -4 16 9 15 -7 0 -22 -9 -9 -8 -12 5 -12 9 0
17 2 17 4 0 2 3 11 6 19 6 17 -22 31 -32 15z"/>
<path d="M35 40 c-20 -9 -17 -11 23 -15 18 -2 20 0 11 11 -6 8 -12 14 -13 13
0 0 -10 -4 -21 -9z"/>
<path d="M365 42 c-16 -11 -15 -29 0 -29 16 0 28 24 17 31 -5 3 -12 2 -17 -2z"/>
<path d="M0 35 c0 -3 2 -5 5 -5 3 0 5 2 5 5 0 3 -2 5 -5 5 -3 0 -5 -2 -5 -5z"/>
<path d="M900 20 c0 -7 3 -10 7 -7 3 4 3 10 0 14 -4 3 -7 0 -7 -7z"/>
<path d="M140 10 c0 -5 5 -10 10 -10 6 0 10 5 10 10 0 6 -4 10 -10 10 -5 0
-10 -4 -10 -10z"/>
<path d="M260 15 c0 -3 2 -5 5 -5 3 0 5 2 5 5 0 3 -2 5 -5 5 -3 0 -5 -2 -5 -5z"/>
<path d="M570 9 c0 -5 5 -7 10 -4 6 3 10 8 10 11 0 2 -4 4 -10 4 -5 0 -10 -5
-10 -11z"/>
<path d="M780 10 c0 -5 5 -10 10 -10 6 0 10 5 10 10 0 6 -4 10 -10 10 -5 0
-10 -4 -10 -10z"/>
<path d="M170 5 c0 -3 2 -5 5 -5 3 0 5 2 5 5 0 3 -2 5 -5 5 -3 0 -5 -2 -5 -5z"/>
<path d="M190 5 c0 -3 2 -5 5 -5 3 0 5 2 5 5 0 3 -2 5 -5 5 -3 0 -5 -2 -5 -5z"/>
<path d="M463 3 c4 -3 10 -3 14 0 3 4 0 7 -7 7 -7 0 -10 -3 -7 -7z"/>
<path d="M810 5 c0 -3 2 -5 5 -5 3 0 5 2 5 5 0 3 -2 5 -5 5 -3 0 -5 -2 -5 -5z"/>
<path d="M830 5 c0 -3 2 -5 5 -5 3 0 5 2 5 5 0 3 -2 5 -5 5 -3 0 -5 -2 -5 -5z"/>
</g>
  </g>
</svg>
