<?xml version="1.0" encoding="UTF-8" standalone="no"?>
<!-- Created with Inkscape (http://www.inkscape.org/) -->

<svg
   xmlns:dc="http://purl.org/dc/elements/1.1/"
   xmlns:cc="http://creativecommons.org/ns#"
   xmlns:rdf="http://www.w3.org/1999/02/22-rdf-syntax-ns#"
   xmlns:svg="http://www.w3.org/2000/svg"
   xmlns="http://www.w3.org/2000/svg"
   xmlns:sodipodi="http://sodipodi.sourceforge.net/DTD/sodipodi-0.dtd"
   xmlns:inkscape="http://www.inkscape.org/namespaces/inkscape"
   width="16px"
   height="16px"
   viewBox="0 0 16px 16px"
   version="1.1"
   id="svgMain"
   inkscape:version="0.92.2 (5c3e80d, 2017-08-06)"
   sodipodi:docname="reference_SVG.svg">
  <defs
     id="defs4542" />
  <sodipodi:namedview
     id="base"
     pagecolor="#ffffff"
     bordercolor="#666666"
     borderopacity="1.0"
     inkscape:pageopacity="0.0"
     inkscape:pageshadow="2"
     inkscape:zoom="1"
     inkscape:cx="0"
     inkscape:cy="0"
     inkscape:document-units="px"
     inkscape:current-layer="layer1"
     showgrid="false"
     units="px"
     inkscape:window-width="1024"
     inkscape:window-height="768"
     inkscape:window-x="-8"
     inkscape:window-y="-8"
     inkscape:window-maximized="1" />
  <metadata
     id="metadata1">
    <rdf:RDF>
      <cc:Work
         rdf:about="">
        <dc:format>image/svg+xml</dc:format>
        <dc:type
           rdf:resource="http://purl.org/dc/dcmitype/StillImage" />
        <dc:title />
      </cc:Work>
    </rdf:RDF>
  </metadata>
  <g transform="translate(-16,-16) scale(0.5,0.5)"
     inkscape:label="Layer 1"
     inkscape:groupmode="layer"
     id="layer1">
    <!-- INSERT MARKER -->
<g transform="translate(0.000000,96.000000) scale(0.100000,-0.100000)"
fill="#8f3c2f" stroke="none">
<path d="M0 480 l0 -480 480 0 480 0 0 480 0 480 -480 0 -480 0 0 -480z"/>
</g>
<g transform="translate(0.000000,96.000000) scale(0.100000,-0.100000)"
fill="#924131" stroke="none">
<path d="M107 946 c-10 -8 -28 -11 -40 -8 -12 3 -18 1 -14 -4 12 -13 60 -13
76 0 8 6 16 10 18 9 1 -2 3 0 4 5 0 13 -26 12 -44 -2z"/>
<path d="M190 950 c13 -9 13 -11 0 -20 -11 -7 -7 -10 18 -10 17 0 32 5 32 11
0 6 -6 9 -14 6 -8 -3 -17 1 -20 9 -3 8 -11 14 -18 14 -9 0 -9 -3 2 -10z"/>
<path d="M437 954 c-3 -3 -3 -12 0 -19 6 -17 33 -8 33 11 0 14 -21 19 -33 8z"/>
<path d="M755 950 c-3 -5 -15 -10 -26 -10 -10 0 -19 -4 -19 -9 0 -14 48 -10
54 4 3 8 14 11 28 8 18 -4 20 -3 8 6 -19 13 -37 14 -45 1z"/>
<path d="M830 940 c-7 -12 -7 -20 -2 -16 6 3 13 0 15 -6 4 -10 6 -10 6 0 1 10
8 9 31 -5 23 -13 32 -15 42 -5 9 9 8 12 -5 12 -19 0 -58 20 -68 34 -4 5 -12
-1 -19 -14z m20 -5 c0 -3 -2 -5 -5 -5 -3 0 -5 2 -5 5 0 3 2 5 5 5 3 0 5 -2 5
-5z"/>
<path d="M480 945 c0 -3 2 -5 5 -5 3 0 5 2 5 5 0 3 -2 5 -5 5 -3 0 -5 -2 -5
-5z"/>
<path d="M500 945 c0 -3 2 -5 5 -5 3 0 5 2 5 5 0 3 -2 5 -5 5 -3 0 -5 -2 -5
-5z"/>
<path d="M508 930 c-16 -15 -15 -16 16 -12 19 2 37 -1 40 -7 9 -14 26 -14 26
-1 0 6 -7 10 -15 10 -8 0 -15 4 -15 9 0 17 -35 18 -52 1z"/>
<path d="M370 935 c0 -3 2 -5 5 -5 3 0 5 2 5 5 0 3 -2 5 -5 5 -3 0 -5 -2 -5
-5z"/>
<path d="M255 910 c-3 -5 1 -10 9 -10 8 0 18 5 21 10 3 6 -1 10 -9 10 -8 0
-18 -4 -21 -10z"/>
<path d="M645 890 c3 -5 8 -10 11 -10 3 0 2 5 -1 10 -3 6 -8 10 -11 10 -3 0
-2 -4 1 -10z"/>
<path d="M670 895 c0 -3 2 -5 5 -5 3 0 5 2 5 5 0 3 -2 5 -5 5 -3 0 -5 -2 -5
-5z"/>
<path d="M16 879 c3 -5 12 -9 21 -9 19 0 9 13 -12 16 -8 1 -13 -2 -9 -7z"/>
<path d="M215 881 c-27 -6 -28 -8 -12 -17 10 -6 31 -8 47 -6 25 4 27 6 15 18
-7 8 -15 13 -17 13 -2 -1 -16 -4 -33 -8z"/>
<path d="M344 875 c11 -8 22 -12 25 -9 6 6 -19 24 -34 24 -5 -1 -1 -7 9 -15z"/>
<path d="M858 882 c-46 -6 -31 -23 17 -21 25 2 45 4 45 6 0 8 -39 18 -62 15z"/>
<path d="M517 860 c11 -13 21 -16 27 -10 6 6 21 10 35 10 40 0 15 12 -34 17
-45 4 -45 3 -28 -17z m23 -5 c0 -3 -2 -5 -5 -5 -3 0 -5 2 -5 5 0 3 2 5 5 5 3
0 5 -2 5 -5z"/>
<path d="M610 875 c0 -3 2 -5 5 -5 3 0 5 2 5 5 0 3 -2 5 -5 5 -3 0 -5 -2 -5
-5z"/>
<path d="M685 870 c-3 -5 1 -10 10 -10 9 0 13 5 10 10 -3 6 -8 10 -10 10 -2 0
-7 -4 -10 -10z"/>
<path d="M383 863 c4 -3 10 -3 14 0 3 4 0 7 -7 7 -7 0 -10 -3 -7 -7z"/>
<path d="M254 839 c-8 -14 18 -31 30 -19 9 9 0 30 -14 30 -5 0 -12 -5 -16 -11z
m26 -4 c0 -3 -2 -5 -5 -5 -3 0 -5 2 -5 5 0 3 2 5 5 5 3 0 5 -2 5 -5z"/>
<path d="M580 842 c0 -7 -4 -10 -10 -7 -5 3 -10 2 -10 -3 0 -5 9 -12 20 -15
22 -6 25 0 10 23 -7 11 -10 11 -10 2z"/>
<path d="M897 836 c-6 -16 19 -30 28 -16 7 11 -2 30 -15 30 -4 0 -10 -6 -13
-14z"/>
<path d="M16 828 c3 -4 9 -8 15 -8 5 0 9 4 9 8 0 5 -7 9 -15 9 -8 0 -12 -4 -9
-9z"/>
<path d="M163 833 c4 -3 10 -3 14 0 3 4 0 7 -7 7 -7 0 -10 -3 -7 -7z"/>
<path d="M346 831 c-4 -5 -2 -12 3 -15 5 -4 12 -2 15 3 4 5 2 12 -3 15 -5 4
-12 2 -15 -3z m14 -6 c0 -3 -2 -5 -5 -5 -3 0 -5 2 -5 5 0 3 2 5 5 5 3 0 5 -2
5 -5z"/>
<path d="M390 835 c0 -3 2 -5 5 -5 3 0 5 2 5 5 0 3 -2 5 -5 5 -3 0 -5 -2 -5
-5z"/>
<path d="M460 836 c0 -9 30 -14 35 -6 4 6 -3 10 -14 10 -12 0 -21 -2 -21 -4z"/>
<path d="M670 835 c0 -3 2 -5 5 -5 3 0 5 2 5 5 0 3 -2 5 -5 5 -3 0 -5 -2 -5
-5z"/>
<path d="M790 830 c-13 -8 -12 -10 3 -10 9 0 17 5 17 10 0 12 -1 12 -20 0z"/>
<path d="M314 818 c-4 -7 -3 -8 4 -4 12 7 16 16 8 16 -3 0 -8 -5 -12 -12z"/>
<path d="M630 825 c0 -3 2 -5 5 -5 3 0 5 2 5 5 0 3 -2 5 -5 5 -3 0 -5 -2 -5
-5z"/>
<path d="M235 802 c-11 -2 -24 -8 -30 -14 -7 -7 1 -8 23 -3 21 4 32 3 32 -5 0
-6 5 -8 10 -5 6 3 10 2 10 -3 0 -15 29 -10 35 7 5 13 7 14 16 1 9 -12 10 -12
7 -1 -2 8 -18 15 -34 16 -16 1 -34 4 -39 6 -6 3 -19 4 -30 1z m65 -17 c0 -3
-2 -5 -5 -5 -3 0 -5 2 -5 5 0 3 2 5 5 5 3 0 5 -2 5 -5z"/>
<path d="M571 804 c-1 -6 -12 -9 -26 -6 -15 2 -25 0 -25 -7 0 -7 -5 -9 -12 -5
-7 4 -8 3 -4 -5 6 -9 11 -9 21 -1 8 7 21 7 38 1 14 -5 28 -7 31 -4 3 4 6 1 6
-6 0 -9 5 -9 22 0 19 10 20 12 4 21 -9 5 -23 7 -31 4 -8 -3 -16 0 -19 7 -3 8
-5 8 -5 1z"/>
<path d="M865 802 c-41 -5 -55 -21 -15 -18 17 1 42 -3 55 -10 19 -10 27 -9 42
2 10 7 16 14 13 14 -3 0 -19 3 -35 8 -17 4 -43 6 -60 4z"/>
<path d="M30 790 c0 -13 20 -13 40 0 12 8 9 10 -12 10 -16 0 -28 -4 -28 -10z"/>
<path d="M360 790 c0 -5 4 -10 9 -10 6 0 13 5 16 10 3 6 -1 10 -9 10 -9 0 -16
-4 -16 -10z"/>
<path d="M660 793 c8 -3 18 -10 21 -15 3 -5 12 -2 19 7 11 13 8 15 -21 14 -19
0 -27 -3 -19 -6z"/>
<path d="M730 790 c0 -7 3 -10 7 -7 3 4 3 10 0 14 -4 3 -7 0 -7 -7z"/>
<path d="M0 785 c0 -3 2 -5 5 -5 3 0 5 2 5 5 0 3 -2 5 -5 5 -3 0 -5 -2 -5 -5z"/>
<path d="M50 751 c0 -5 7 -12 16 -15 14 -5 15 -4 4 9 -14 17 -20 19 -20 6z"/>
<path d="M220 753 c0 -11 50 -33 73 -33 10 0 15 5 12 10 -3 6 -17 10 -31 10
-13 0 -24 5 -24 10 0 6 -7 10 -15 10 -8 0 -15 -3 -15 -7z"/>
<path d="M330 755 c0 -3 2 -5 5 -5 3 0 5 2 5 5 0 3 -2 5 -5 5 -3 0 -5 -2 -5
-5z"/>
<path d="M540 752 c0 -7 57 -32 73 -32 4 0 7 5 7 11 0 6 -6 9 -14 6 -8 -3 -20
1 -26 9 -13 15 -40 19 -40 6z"/>
<path d="M685 750 c3 -5 8 -10 11 -10 2 0 4 5 4 10 0 6 -5 10 -11 10 -5 0 -7
-4 -4 -10z"/>
<path d="M858 753 c-10 -2 -18 -9 -18 -14 0 -6 -6 -9 -14 -7 -8 2 -15 0 -15
-4 -1 -11 9 -10 42 5 15 6 27 15 27 19 0 5 -1 7 -2 7 -2 -1 -11 -3 -20 -6z"/>
<path d="M770 745 c0 -3 2 -5 5 -5 3 0 5 2 5 5 0 3 -2 5 -5 5 -3 0 -5 -2 -5
-5z"/>
<path d="M890 742 c0 -19 30 -27 43 -12 9 10 9 12 -4 7 -9 -3 -22 0 -28 6 -8
8 -11 8 -11 -1z"/>
<path d="M180 730 c0 -5 7 -7 15 -4 8 4 15 8 15 10 0 2 -7 4 -15 4 -8 0 -15
-4 -15 -10z"/>
<path d="M330 735 c0 -3 2 -5 5 -5 3 0 5 2 5 5 0 3 -2 5 -5 5 -3 0 -5 -2 -5
-5z"/>
<path d="M485 730 c-2 -3 5 -6 15 -7 11 -1 22 2 25 7 3 5 -4 8 -16 7 -11 -1
-22 -4 -24 -7z"/>
<path d="M710 735 c0 -3 2 -5 5 -5 3 0 5 2 5 5 0 3 -2 5 -5 5 -3 0 -5 -2 -5
-5z"/>
<path d="M160 725 c0 -3 2 -5 5 -5 3 0 5 2 5 5 0 3 -2 5 -5 5 -3 0 -5 -2 -5
-5z"/>
<path d="M630 725 c0 -3 2 -5 5 -5 3 0 5 2 5 5 0 3 -2 5 -5 5 -3 0 -5 -2 -5
-5z"/>
<path d="M180 705 c0 -3 2 -5 5 -5 3 0 5 2 5 5 0 3 -2 5 -5 5 -3 0 -5 -2 -5
-5z"/>
<path d="M0 695 c0 -3 2 -5 5 -5 3 0 5 2 5 5 0 3 -2 5 -5 5 -3 0 -5 -2 -5 -5z"/>
<path d="M30 691 c0 -5 18 -8 39 -7 22 0 37 4 35 8 -7 11 -74 10 -74 -1z"/>
<path d="M340 696 c0 -2 7 -9 15 -16 12 -10 15 -10 15 4 0 9 -7 16 -15 16 -8
0 -15 -2 -15 -4z"/>
<path d="M395 690 c-3 -5 1 -10 9 -10 9 0 16 5 16 10 0 6 -4 10 -9 10 -6 0
-13 -4 -16 -10z"/>
<path d="M630 696 c0 -2 7 -9 15 -16 13 -11 14 -10 9 4 -5 14 -24 23 -24 12z"/>
<path d="M665 690 c3 -5 8 -10 11 -10 2 0 4 5 4 10 0 6 -5 10 -11 10 -5 0 -7
-4 -4 -10z"/>
<path d="M696 692 c-3 -5 1 -9 9 -9 8 0 12 4 9 9 -3 4 -7 8 -9 8 -2 0 -6 -4
-9 -8z"/>
<path d="M603 683 c4 -3 10 -3 14 0 3 4 0 7 -7 7 -7 0 -10 -3 -7 -7z"/>
<path d="M198 667 c16 -7 26 -7 34 1 8 8 2 10 -23 10 -31 -1 -32 -2 -11 -11z"/>
<path d="M535 670 c4 -6 11 -8 16 -5 14 9 11 15 -7 15 -8 0 -12 -5 -9 -10z"/>
<path d="M815 670 c-3 -6 1 -7 9 -4 18 7 21 14 7 14 -6 0 -13 -4 -16 -10z"/>
<path d="M855 670 c-3 -5 -2 -10 4 -10 5 0 13 5 16 10 3 6 2 10 -4 10 -5 0
-13 -4 -16 -10z"/>
<path d="M95 649 c-11 -17 1 -21 15 -4 8 9 8 15 2 15 -6 0 -14 -5 -17 -11z"/>
<path d="M135 650 c3 -5 11 -10 16 -10 6 0 7 5 4 10 -3 6 -11 10 -16 10 -6 0
-7 -4 -4 -10z"/>
<path d="M415 651 c-3 -6 1 -11 10 -11 9 0 14 -4 11 -8 -12 -20 10 -30 34 -15
15 8 17 12 6 8 -16 -5 -17 -3 -6 10 10 12 10 15 -3 15 -8 0 -22 3 -30 6 -8 3
-18 1 -22 -5z"/>
<path d="M620 655 c0 -3 2 -5 5 -5 3 0 5 2 5 5 0 3 -2 5 -5 5 -3 0 -5 -2 -5
-5z"/>
<path d="M760 640 c-6 -11 -19 -20 -30 -20 -10 0 -22 -4 -25 -10 -4 -6 7 -10
25 -10 18 0 29 4 25 10 -6 10 6 14 38 10 17 -1 17 -1 0 19 -21 26 -20 25 -33
1z"/>
<path d="M350 645 c0 -3 2 -5 5 -5 3 0 5 2 5 5 0 3 -2 5 -5 5 -3 0 -5 -2 -5
-5z"/>
<path d="M733 643 c4 -3 10 -3 14 0 3 4 0 7 -7 7 -7 0 -10 -3 -7 -7z"/>
<path d="M187 620 c-3 -13 0 -20 9 -20 15 0 19 26 5 34 -5 3 -11 -3 -14 -14z"/>
<path d="M508 633 c6 -2 12 -11 12 -19 0 -9 -5 -12 -12 -8 -6 4 -8 3 -5 -4 4
-5 16 -8 26 -5 10 3 28 0 39 -6 14 -7 23 -8 27 -1 3 5 -3 10 -14 10 -12 0 -21
5 -21 11 0 6 -6 9 -14 6 -8 -3 -17 1 -20 9 -3 8 -11 14 -18 13 -10 0 -10 -2 0
-6z"/>
<path d="M829 634 c6 -3 7 -12 4 -20 -3 -8 0 -14 7 -14 15 0 9 33 -8 36 -7 1
-8 0 -3 -2z"/>
<path d="M92 623 c-12 -2 -20 -9 -17 -14 9 -14 32 -11 39 6 3 8 4 14 3 14 -1
-1 -12 -4 -25 -6z"/>
<path d="M160 625 c0 -3 2 -5 5 -5 3 0 5 2 5 5 0 3 -2 5 -5 5 -3 0 -5 -2 -5
-5z"/>
<path d="M220 610 c0 -5 5 -10 10 -10 6 0 10 5 10 10 0 6 -4 10 -10 10 -5 0
-10 -4 -10 -10z"/>
<path d="M375 610 c3 -5 8 -10 11 -10 3 0 2 5 -1 10 -3 6 -8 10 -11 10 -3 0
-2 -4 1 -10z"/>
<path d="M860 612 c0 -4 14 -16 30 -26 21 -12 30 -13 28 -5 -2 8 -14 19 -27
26 -27 15 -31 16 -31 5z"/>
<path d="M265 591 c-3 -5 -1 -12 5 -16 5 -3 10 1 10 9 0 18 -6 21 -15 7z"/>
<path d="M810 595 c0 -3 2 -5 5 -5 3 0 5 2 5 5 0 3 -2 5 -5 5 -3 0 -5 -2 -5
-5z"/>
<path d="M490 585 c0 -3 2 -5 5 -5 3 0 5 2 5 5 0 3 -2 5 -5 5 -3 0 -5 -2 -5
-5z"/>
<path d="M41 563 c-1 -16 5 -23 17 -23 10 0 13 3 6 8 -6 4 -14 14 -17 22 -4
10 -6 8 -6 -7z"/>
<path d="M350 575 c0 -3 2 -5 5 -5 3 0 5 2 5 5 0 3 -2 5 -5 5 -3 0 -5 -2 -5
-5z"/>
<path d="M670 575 c0 -3 2 -5 5 -5 3 0 5 2 5 5 0 3 -2 5 -5 5 -3 0 -5 -2 -5
-5z"/>
<path d="M10 565 c0 -3 2 -5 5 -5 3 0 5 2 5 5 0 3 -2 5 -5 5 -3 0 -5 -2 -5 -5z"/>
<path d="M210 561 l-34 -6 27 -12 c23 -11 29 -10 34 2 4 12 8 13 19 4 8 -7 17
-9 20 -6 12 11 -32 23 -66 18z m20 -16 c0 -3 -2 -5 -5 -5 -3 0 -5 2 -5 5 0 3
2 5 5 5 3 0 5 -2 5 -5z"/>
<path d="M650 565 c0 -3 2 -5 5 -5 3 0 5 2 5 5 0 3 -2 5 -5 5 -3 0 -5 -2 -5
-5z"/>
<path d="M855 560 c-23 -5 -26 -8 -13 -14 9 -4 31 -6 50 -4 30 3 31 4 13 14
-11 6 -33 7 -50 4z"/>
<path d="M290 555 c0 -3 2 -5 5 -5 3 0 5 2 5 5 0 3 -2 5 -5 5 -3 0 -5 -2 -5
-5z"/>
<path d="M350 550 c8 -5 24 -10 34 -10 26 0 18 6 -19 14 -22 5 -26 4 -15 -4z"/>
<path d="M513 554 c9 -3 17 -13 17 -22 0 -12 3 -13 12 -4 7 7 23 12 37 12 42
0 14 13 -36 16 -27 2 -40 1 -30 -2z"/>
<path d="M610 555 c0 -3 2 -5 5 -5 3 0 5 2 5 5 0 3 -2 5 -5 5 -3 0 -5 -2 -5
-5z"/>
<path d="M686 552 c-3 -4 4 -9 15 -9 23 -2 25 3 4 10 -8 4 -16 3 -19 -1z"/>
<path d="M930 555 c0 -3 2 -5 5 -5 3 0 5 2 5 5 0 3 -2 5 -5 5 -3 0 -5 -2 -5
-5z"/>
<path d="M240 520 c-23 -7 -19 -11 13 -14 6 -1 15 -5 19 -11 5 -6 8 -5 8 3 0
8 5 10 13 6 8 -5 8 -2 -2 9 -15 19 -15 19 -51 7z"/>
<path d="M576 520 c-17 -6 -18 -7 -3 -13 9 -3 17 -11 17 -17 0 -6 -4 -8 -10
-5 -5 3 -10 2 -10 -3 0 -5 -11 -7 -25 -4 -14 2 -25 0 -25 -5 0 -5 10 -9 23
-10 28 0 51 -6 57 -15 3 -4 12 -3 20 3 13 8 12 11 -4 24 -10 7 -16 18 -13 22
10 16 -8 30 -27 23z m24 -15 c0 -3 -2 -5 -5 -5 -3 0 -5 2 -5 5 0 3 2 5 5 5 3
0 5 -2 5 -5z"/>
<path d="M896 523 c-9 -10 -7 -25 3 -19 5 4 12 0 14 -6 4 -10 6 -10 6 0 1 7 6
10 11 7 6 -3 10 -4 10 -1 0 9 -37 25 -44 19z"/>
<path d="M3 507 c-3 -7 -3 -9 2 -5 4 4 14 3 21 -3 8 -7 14 -7 19 1 3 5 5 10 3
11 -27 6 -39 5 -45 -4z"/>
<path d="M135 509 c-3 -4 1 -9 9 -12 8 -3 17 0 19 7 5 13 -21 18 -28 5z"/>
<path d="M335 510 c-19 -8 -19 -9 3 -9 12 -1 22 4 22 9 0 6 -1 10 -2 9 -2 0
-12 -4 -23 -9z"/>
<path d="M390 515 c0 -3 2 -5 5 -5 3 0 5 2 5 5 0 3 -2 5 -5 5 -3 0 -5 -2 -5
-5z"/>
<path d="M470 510 c0 -5 4 -10 9 -10 6 0 13 5 16 10 3 6 -1 10 -9 10 -9 0 -16
-4 -16 -10z"/>
<path d="M670 515 c0 -3 2 -5 5 -5 3 0 5 2 5 5 0 3 -2 5 -5 5 -3 0 -5 -2 -5
-5z"/>
<path d="M790 510 c-8 -5 -10 -10 -5 -10 6 0 17 5 25 10 8 5 11 10 5 10 -5 0
-17 -5 -25 -10z"/>
<path d="M240 480 c-7 -4 -21 -5 -33 -2 -14 4 -18 2 -13 -7 4 -7 15 -10 24 -8
10 2 29 -2 44 -10 19 -9 29 -10 33 -2 4 6 13 8 21 5 8 -3 14 1 14 10 0 8 -4
13 -9 10 -4 -3 -22 -2 -38 3 -17 5 -36 5 -43 1z"/>
<path d="M885 481 c-2 -4 -19 -6 -39 -6 -19 1 -33 -2 -30 -7 3 -4 21 -8 40 -8
20 0 43 -4 53 -9 19 -11 47 2 37 17 -7 12 -55 22 -61 13z"/>
<path d="M27 469 c8 -8 16 -8 30 0 16 9 14 10 -11 11 -22 0 -27 -3 -19 -11z"/>
<path d="M85 470 c3 -5 8 -10 11 -10 3 0 2 5 -1 10 -3 6 -8 10 -11 10 -3 0 -2
-4 1 -10z"/>
<path d="M360 465 c0 -8 4 -15 8 -15 5 0 9 7 9 15 0 8 -4 15 -9 15 -4 0 -8 -7
-8 -15z"/>
<path d="M670 465 c12 -15 30 -12 30 6 0 5 -10 9 -21 9 -18 0 -19 -2 -9 -15z"/>
<path d="M730 470 c0 -5 5 -10 11 -10 5 0 7 5 4 10 -3 6 -8 10 -11 10 -2 0 -4
-4 -4 -10z"/>
<path d="M0 465 c0 -3 2 -5 5 -5 3 0 5 2 5 5 0 3 -2 5 -5 5 -3 0 -5 -2 -5 -5z"/>
<path d="M500 460 c0 -7 3 -10 7 -7 3 4 3 10 0 14 -4 3 -7 0 -7 -7z"/>
<path d="M50 431 c0 -5 7 -12 16 -15 14 -5 15 -4 4 9 -14 17 -20 19 -20 6z"/>
<path d="M540 430 c0 -5 9 -10 19 -10 11 0 22 -4 25 -9 3 -5 18 -8 33 -8 l28
0 -25 9 c-14 6 -33 14 -42 19 -23 12 -38 11 -38 -1z"/>
<path d="M690 430 c0 -7 3 -10 7 -7 3 4 3 10 0 14 -4 3 -7 0 -7 -7z"/>
<path d="M860 429 c0 -5 5 -7 10 -4 6 3 10 8 10 11 0 2 -4 4 -10 4 -5 0 -10
-5 -10 -11z"/>
<path d="M100 425 c0 -3 2 -5 5 -5 3 0 5 2 5 5 0 3 -2 5 -5 5 -3 0 -5 -2 -5
-5z"/>
<path d="M180 418 c-22 -10 -23 -12 -6 -16 10 -2 21 0 25 6 3 5 13 12 21 15
13 5 13 5 0 6 -8 0 -26 -5 -40 -11z"/>
<path d="M247 419 c6 -8 26 -16 44 -17 39 -3 34 7 -7 14 -15 3 -32 8 -38 11
-6 4 -6 0 1 -8z"/>
<path d="M330 420 c0 -7 3 -10 7 -7 3 4 3 10 0 14 -4 3 -7 0 -7 -7z"/>
<path d="M760 425 c0 -3 2 -5 5 -5 3 0 5 2 5 5 0 3 -2 5 -5 5 -3 0 -5 -2 -5
-5z"/>
<path d="M836 413 c-6 -14 -9 -15 -15 -4 -6 8 -11 9 -15 3 -3 -6 -1 -14 5 -17
12 -8 47 21 37 30 -3 3 -9 -2 -12 -12z"/>
<path d="M10 415 c0 -3 2 -5 5 -5 3 0 5 2 5 5 0 3 -2 5 -5 5 -3 0 -5 -2 -5 -5z"/>
<path d="M500 410 c0 -5 4 -10 9 -10 6 0 13 5 16 10 3 6 -1 10 -9 10 -9 0 -16
-4 -16 -10z"/>
<path d="M660 415 c0 -3 2 -5 5 -5 3 0 5 2 5 5 0 3 -2 5 -5 5 -3 0 -5 -2 -5
-5z"/>
<path d="M710 415 c0 -3 2 -5 5 -5 3 0 5 2 5 5 0 3 -2 5 -5 5 -3 0 -5 -2 -5
-5z"/>
<path d="M895 410 c3 -5 15 -10 26 -10 10 0 19 5 19 10 0 6 -12 10 -26 10 -14
0 -23 -4 -19 -10z"/>
<path d="M480 405 c0 -3 2 -5 5 -5 3 0 5 2 5 5 0 3 -2 5 -5 5 -3 0 -5 -2 -5
-5z"/>
<path d="M950 405 c0 -3 2 -5 5 -5 3 0 5 2 5 5 0 3 -2 5 -5 5 -3 0 -5 -2 -5
-5z"/>
<path d="M180 385 c0 -3 2 -5 5 -5 3 0 5 2 5 5 0 3 -2 5 -5 5 -3 0 -5 -2 -5
-5z"/>
<path d="M296 374 c-11 -8 -16 -14 -10 -14 13 0 39 18 34 24 -3 2 -14 -2 -24
-10z"/>
<path d="M25 371 c3 -6 17 -10 30 -9 29 3 23 11 -11 16 -16 2 -23 -1 -19 -7z"/>
<path d="M95 370 c4 -6 11 -8 16 -5 14 9 11 15 -7 15 -8 0 -12 -5 -9 -10z"/>
<path d="M355 360 c10 -11 19 -20 19 -20 1 0 2 9 3 20 1 14 -4 20 -19 20 -20
0 -21 -1 -3 -20z m15 5 c0 -3 -2 -5 -5 -5 -3 0 -5 2 -5 5 0 3 2 5 5 5 3 0 5
-2 5 -5z"/>
<path d="M405 370 c3 -5 11 -10 16 -10 6 0 7 5 4 10 -3 6 -11 10 -16 10 -6 0
-7 -4 -4 -10z"/>
<path d="M615 370 c-17 -8 -17 -9 7 -7 15 1 24 5 22 9 -3 4 -6 8 -7 7 -1 0
-11 -4 -22 -9z"/>
<path d="M660 370 c0 -5 5 -10 10 -10 6 0 10 5 10 10 0 6 -4 10 -10 10 -5 0
-10 -4 -10 -10z"/>
<path d="M690 370 c0 -5 7 -7 15 -4 8 4 15 8 15 10 0 2 -7 4 -15 4 -8 0 -15
-4 -15 -10z"/>
<path d="M195 350 c3 -5 8 -10 11 -10 2 0 4 5 4 10 0 6 -5 10 -11 10 -5 0 -7
-4 -4 -10z"/>
<path d="M510 355 c0 -3 2 -5 5 -5 3 0 5 2 5 5 0 3 -2 5 -5 5 -3 0 -5 -2 -5
-5z"/>
<path d="M535 350 c4 -6 11 -8 16 -5 14 9 11 15 -7 15 -8 0 -12 -5 -9 -10z"/>
<path d="M823 353 c4 -3 10 -3 14 0 3 4 0 7 -7 7 -7 0 -10 -3 -7 -7z"/>
<path d="M855 350 c4 -6 11 -8 16 -5 14 9 11 15 -7 15 -8 0 -12 -5 -9 -10z"/>
<path d="M103 333 c4 -3 10 -3 14 0 3 4 0 7 -7 7 -7 0 -10 -3 -7 -7z"/>
<path d="M415 330 c-3 -6 -3 -9 2 -8 4 2 9 -1 11 -7 2 -5 -5 -12 -15 -13 -33
-7 -36 -21 -5 -20 17 1 33 7 36 14 3 7 15 11 28 8 13 -2 17 -2 10 2 -6 3 -10
10 -6 15 3 5 -1 9 -10 9 -8 0 -21 3 -29 6 -8 3 -18 0 -22 -6z"/>
<path d="M769 332 c-1 -4 -1 -10 0 -14 0 -5 -3 -8 -9 -8 -5 0 -7 -6 -4 -14 3
-8 12 -12 19 -10 19 8 25 42 9 48 -8 3 -15 2 -15 -2z"/>
<path d="M190 320 c-10 -6 -11 -10 -2 -10 6 0 12 -7 12 -16 0 -8 -4 -13 -9 -9
-5 3 -12 1 -15 -4 -7 -10 20 -9 30 2 4 4 18 0 32 -9 17 -11 27 -13 35 -5 8 8
5 11 -11 11 -12 0 -22 4 -22 9 0 5 -9 11 -21 14 -12 3 -18 10 -14 16 8 13 4
14 -15 1z"/>
<path d="M733 323 c4 -3 10 -3 14 0 3 4 0 7 -7 7 -7 0 -10 -3 -7 -7z"/>
<path d="M117 314 c-3 -3 -3 -12 0 -19 6 -17 33 -8 33 11 0 14 -21 19 -33 8z"/>
<path d="M507 300 c-3 -12 1 -17 12 -15 9 1 28 -5 43 -13 22 -13 30 -14 40 -4
9 9 6 12 -15 12 -15 0 -27 3 -27 8 0 4 -11 12 -24 18 -21 10 -25 9 -29 -6z"/>
<path d="M828 313 c6 -2 12 -11 12 -19 0 -9 -4 -13 -9 -9 -5 3 -12 1 -15 -4
-4 -5 2 -8 11 -7 25 4 30 46 6 45 -10 0 -13 -3 -5 -6z"/>
<path d="M160 305 c0 -3 2 -5 5 -5 3 0 5 2 5 5 0 3 -2 5 -5 5 -3 0 -5 -2 -5
-5z"/>
<path d="M800 305 c0 -3 2 -5 5 -5 3 0 5 2 5 5 0 3 -2 5 -5 5 -3 0 -5 -2 -5
-5z"/>
<path d="M723 293 c4 -3 10 -3 14 0 3 4 0 7 -7 7 -7 0 -10 -3 -7 -7z"/>
<path d="M860 292 c0 -4 10 -13 21 -20 17 -11 24 -11 33 -1 8 9 7 10 -7 6 -11
-4 -20 -1 -23 8 -6 15 -24 21 -24 7z"/>
<path d="M63 283 c4 -3 10 -3 14 0 3 4 0 7 -7 7 -7 0 -10 -3 -7 -7z"/>
<path d="M27 247 c-3 -9 1 -18 9 -21 16 -6 18 2 5 22 -7 11 -9 11 -14 -1z"/>
<path d="M350 255 c0 -3 2 -5 5 -5 3 0 5 2 5 5 0 3 -2 5 -5 5 -3 0 -5 -2 -5
-5z"/>
<path d="M330 245 c0 -3 2 -5 5 -5 3 0 5 2 5 5 0 3 -2 5 -5 5 -3 0 -5 -2 -5
-5z"/>
<path d="M538 242 c-46 -6 -32 -22 19 -22 25 0 44 1 42 3 -2 1 -11 7 -19 13
-8 5 -27 8 -42 6z"/>
<path d="M664 234 c11 -8 24 -14 30 -14 16 0 -12 24 -31 26 -16 2 -16 1 1 -12z"/>
<path d="M198 221 c14 -14 20 -15 32 -6 8 7 23 11 33 10 9 -2 15 0 12 5 -2 4
-25 8 -49 8 -43 1 -45 0 -28 -17z"/>
<path d="M290 235 c0 -3 2 -5 5 -5 3 0 5 2 5 5 0 3 -2 5 -5 5 -3 0 -5 -2 -5
-5z"/>
<path d="M366 232 c-3 -4 4 -9 15 -9 23 -2 25 3 4 10 -8 4 -16 3 -19 -1z"/>
<path d="M610 235 c0 -3 2 -5 5 -5 3 0 5 2 5 5 0 3 -2 5 -5 5 -3 0 -5 -2 -5
-5z"/>
<path d="M750 235 c0 -3 2 -5 5 -5 3 0 5 2 5 5 0 3 -2 5 -5 5 -3 0 -5 -2 -5
-5z"/>
<path d="M837 222 c10 -10 20 -14 21 -10 2 4 17 8 33 8 48 0 25 17 -26 18 -43
2 -44 1 -28 -16z"/>
<path d="M930 235 c0 -3 2 -5 5 -5 3 0 5 2 5 5 0 3 -2 5 -5 5 -3 0 -5 -2 -5
-5z"/>
<path d="M63 223 c4 -3 10 -3 14 0 3 4 0 7 -7 7 -7 0 -10 -3 -7 -7z"/>
<path d="M710 225 c0 -3 2 -5 5 -5 3 0 5 2 5 5 0 3 -2 5 -5 5 -3 0 -5 -2 -5
-5z"/>
<path d="M576 203 c-9 -10 -7 -25 3 -19 5 4 12 0 14 -6 4 -10 6 -10 6 0 1 7 6
10 11 7 6 -3 10 -4 10 -1 0 9 -37 25 -44 19z"/>
<path d="M26 191 c-4 -5 -2 -12 3 -15 5 -4 12 -2 15 3 4 5 2 12 -3 15 -5 4
-12 2 -15 -3z m14 -6 c0 -3 -2 -5 -5 -5 -3 0 -5 2 -5 5 0 3 2 5 5 5 3 0 5 -2
5 -5z"/>
<path d="M70 195 c0 -3 2 -5 5 -5 3 0 5 2 5 5 0 3 -2 5 -5 5 -3 0 -5 -2 -5 -5z"/>
<path d="M140 196 c0 -9 30 -14 35 -6 4 6 -3 10 -14 10 -12 0 -21 -2 -21 -4z"/>
<path d="M254 185 c21 -16 32 -13 21 4 -3 6 -14 11 -23 11 -15 -1 -15 -2 2
-15z"/>
<path d="M350 195 c0 -3 2 -5 5 -5 3 0 5 2 5 5 0 3 -2 5 -5 5 -3 0 -5 -2 -5
-5z"/>
<path d="M470 190 c-13 -8 -12 -10 3 -10 9 0 17 5 17 10 0 12 -1 12 -20 0z"/>
<path d="M665 190 c-3 -5 1 -10 10 -10 9 0 13 5 10 10 -3 6 -8 10 -10 10 -2 0
-7 -4 -10 -10z"/>
<path d="M780 195 c0 -3 2 -5 5 -5 3 0 5 2 5 5 0 3 -2 5 -5 5 -3 0 -5 -2 -5
-5z"/>
<path d="M803 193 c4 -3 10 -3 14 0 3 4 0 7 -7 7 -7 0 -10 -3 -7 -7z"/>
<path d="M880 189 c0 -4 8 -9 18 -11 11 -3 19 0 19 8 0 7 -9 12 -19 11 -10 -1
-18 -4 -18 -8z"/>
<path d="M0 185 c0 -3 2 -5 5 -5 3 0 5 2 5 5 0 3 -2 5 -5 5 -3 0 -5 -2 -5 -5z"/>
<path d="M310 185 c0 -3 2 -5 5 -5 3 0 5 2 5 5 0 3 -2 5 -5 5 -3 0 -5 -2 -5
-5z"/>
<path d="M640 185 c0 -3 2 -5 5 -5 3 0 5 2 5 5 0 3 -2 5 -5 5 -3 0 -5 -2 -5
-5z"/>
<path d="M950 175 c0 -3 2 -5 5 -5 3 0 5 2 5 5 0 3 -2 5 -5 5 -3 0 -5 -2 -5
-5z"/>
<path d="M250 161 c0 -5 -11 -6 -25 -3 -15 2 -25 0 -25 -7 0 -7 -5 -9 -12 -5
-7 4 -8 3 -4 -5 6 -9 11 -9 21 -1 8 7 21 7 38 1 14 -5 28 -7 31 -4 3 4 6 1 6
-6 0 -9 5 -9 21 -1 11 7 19 14 16 16 -9 10 -67 22 -67 15z m50 -16 c0 -3 -2
-5 -5 -5 -3 0 -5 2 -5 5 0 3 2 5 5 5 3 0 5 -2 5 -5z"/>
<path d="M565 162 c-21 -21 32 -44 64 -27 23 12 22 12 -17 22 -23 6 -44 8 -47
5z m45 -27 c0 -3 -2 -5 -5 -5 -3 0 -5 2 -5 5 0 3 2 5 5 5 3 0 5 -2 5 -5z"/>
<path d="M875 162 c-32 -6 -42 -22 -15 -22 43 0 60 -3 60 -12 0 -5 10 -4 22 3
19 10 20 12 4 21 -9 5 -23 7 -31 4 -8 -3 -15 -2 -17 2 -2 4 -12 6 -23 4z"/>
<path d="M0 151 c0 -6 4 -13 10 -16 6 -3 7 1 4 9 -7 18 -14 21 -14 7z"/>
<path d="M40 145 c0 -8 4 -15 8 -15 5 0 9 7 9 15 0 8 -4 15 -9 15 -4 0 -8 -7
-8 -15z"/>
<path d="M330 155 c0 -3 2 -5 5 -5 3 0 5 2 5 5 0 3 -2 5 -5 5 -3 0 -5 -2 -5
-5z"/>
<path d="M352 149 c2 -6 8 -10 13 -10 5 0 11 4 13 10 2 6 -4 11 -13 11 -9 0
-15 -5 -13 -11z"/>
<path d="M410 150 c0 -5 5 -10 11 -10 5 0 7 5 4 10 -3 6 -8 10 -11 10 -2 0 -4
-4 -4 -10z"/>
<path d="M497 148 c6 -11 53 -10 53 2 0 5 -13 8 -29 7 -16 -1 -27 -5 -24 -9z"/>
<path d="M676 145 c4 -8 7 -15 9 -15 2 0 5 7 9 15 3 9 0 15 -9 15 -9 0 -12 -6
-9 -15z"/>
<path d="M815 140 c-3 -5 -1 -10 4 -10 6 0 11 5 11 10 0 6 -2 10 -4 10 -3 0
-8 -4 -11 -10z"/>
<path d="M10 115 c0 -3 2 -5 5 -5 3 0 5 2 5 5 0 3 -2 5 -5 5 -3 0 -5 -2 -5 -5z"/>
<path d="M220 110 c0 -5 9 -10 19 -10 11 0 23 -4 26 -10 3 -5 13 -10 21 -10 8
0 14 5 14 10 0 6 -9 10 -19 10 -11 0 -23 5 -26 10 -3 6 -13 10 -21 10 -8 0
-14 -4 -14 -10z"/>
<path d="M365 110 c3 -5 8 -10 11 -10 2 0 4 5 4 10 0 6 -5 10 -11 10 -5 0 -7
-4 -4 -10z"/>
<path d="M540 110 c0 -5 5 -10 10 -10 6 0 10 5 10 10 0 6 -4 10 -10 10 -5 0
-10 -4 -10 -10z"/>
<path d="M653 113 c4 -3 10 -3 14 0 3 4 0 7 -7 7 -7 0 -10 -3 -7 -7z"/>
<path d="M860 109 c0 -5 4 -8 9 -4 5 3 16 -1 24 -9 8 -8 24 -14 35 -13 25 2
18 17 -8 17 -10 0 -22 5 -25 10 -8 13 -35 13 -35 -1z"/>
<path d="M193 103 c-15 -5 -17 -23 -4 -23 5 0 11 7 15 15 3 8 4 15 3 14 -1 0
-8 -3 -14 -6z"/>
<path d="M450 105 c0 -3 2 -5 5 -5 3 0 5 2 5 5 0 3 -2 5 -5 5 -3 0 -5 -2 -5
-5z"/>
<path d="M516 93 c-6 -14 -9 -15 -15 -4 -6 8 -11 9 -15 3 -3 -6 -1 -14 5 -17
12 -8 47 21 37 30 -3 3 -9 -2 -12 -12z"/>
<path d="M572 100 c5 -18 48 -26 48 -10 0 7 -6 10 -14 7 -7 -3 -19 0 -26 6
-10 9 -11 9 -8 -3z"/>
<path d="M824 95 c-16 -12 -17 -14 -3 -15 9 0 19 7 23 15 7 19 5 19 -20 0z"/>
<path d="M10 95 c0 -3 2 -5 5 -5 3 0 5 2 5 5 0 3 -2 5 -5 5 -3 0 -5 -2 -5 -5z"/>
<path d="M390 95 c0 -3 2 -5 5 -5 3 0 5 2 5 5 0 3 -2 5 -5 5 -3 0 -5 -2 -5 -5z"/>
<path d="M650 95 c0 -3 2 -5 5 -5 3 0 5 2 5 5 0 3 -2 5 -5 5 -3 0 -5 -2 -5 -5z"/>
<path d="M160 85 c0 -3 2 -5 5 -5 3 0 5 2 5 5 0 3 -2 5 -5 5 -3 0 -5 -2 -5 -5z"/>
<path d="M310 85 c0 -3 2 -5 5 -5 3 0 5 2 5 5 0 3 -2 5 -5 5 -3 0 -5 -2 -5 -5z"/>
<path d="M630 85 c0 -3 2 -5 5 -5 3 0 5 2 5 5 0 3 -2 5 -5 5 -3 0 -5 -2 -5 -5z"/>
<path d="M20 56 c0 -2 7 -9 15 -16 12 -10 15 -10 15 4 0 9 -7 16 -15 16 -8 0
-15 -2 -15 -4z"/>
<path d="M76 52 c-2 -4 4 -9 15 -9 11 -1 17 2 14 8 -7 11 -22 12 -29 1z"/>
<path d="M315 50 c3 -5 8 -10 11 -10 3 0 2 5 -1 10 -3 6 -8 10 -11 10 -3 0 -2
-4 1 -10z"/>
<path d="M340 50 c0 -5 5 -10 10 -10 6 0 10 5 10 10 0 6 -4 10 -10 10 -5 0
-10 -4 -10 -10z"/>
<path d="M370 52 c0 -5 7 -9 15 -9 8 0 12 4 9 9 -7 10 -24 10 -24 0z"/>
<path d="M664 53 c10 -11 36 -12 36 -2 0 5 -10 9 -22 9 -12 0 -18 -3 -14 -7z"/>
<path d="M710 52 c0 -4 9 -8 20 -9 11 -1 18 2 15 8 -7 11 -35 12 -35 1z"/>
<path d="M950 55 c0 -3 2 -5 5 -5 3 0 5 2 5 5 0 3 -2 5 -5 5 -3 0 -5 -2 -5 -5z"/>
<path d="M283 43 c4 -3 10 -3 14 0 3 4 0 7 -7 7 -7 0 -10 -3 -7 -7z"/>
<path d="M923 43 c4 -3 10 -3 14 0 3 4 0 7 -7 7 -7 0 -10 -3 -7 -7z"/>
<path d="M190 35 c0 -3 2 -5 5 -5 3 0 5 2 5 5 0 3 -2 5 -5 5 -3 0 -5 -2 -5 -5z"/>
<path d="M215 30 c4 -6 11 -8 16 -5 14 9 11 15 -7 15 -8 0 -12 -5 -9 -10z"/>
<path d="M495 30 c-3 -6 1 -7 9 -4 18 7 21 14 7 14 -6 0 -13 -4 -16 -10z"/>
<path d="M535 30 c4 -6 11 -8 16 -5 14 9 11 15 -7 15 -8 0 -12 -5 -9 -10z"/>
<path d="M840 36 c0 -9 30 -14 35 -6 4 6 -3 10 -14 10 -12 0 -21 -2 -21 -4z"/>
<path d="M96 11 c-3 -4 9 -8 25 -9 16 -1 29 1 29 5 0 10 -49 13 -54 4z"/>
<path d="M300 15 c0 -3 2 -5 5 -5 3 0 5 2 5 5 0 3 -2 5 -5 5 -3 0 -5 -2 -5 -5z"/>
<path d="M445 10 c-3 -5 1 -10 10 -10 9 0 13 5 10 10 -3 6 -8 10 -10 10 -2 0
-7 -4 -10 -10z"/>
<path d="M736 11 c-3 -4 11 -8 31 -9 20 -1 33 1 29 5 -9 10 -55 13 -60 4z"/>
<path d="M30 5 c0 -3 2 -5 5 -5 3 0 5 2 5 5 0 3 -2 5 -5 5 -3 0 -5 -2 -5 -5z"/>
<path d="M413 3 c4 -3 10 -3 14 0 3 4 0 7 -7 7 -7 0 -10 -3 -7 -7z"/>
<path d="M670 5 c0 -3 2 -5 5 -5 3 0 5 2 5 5 0 3 -2 5 -5 5 -3 0 -5 -2 -5 -5z"/>
</g>
  </g>
</svg>
