<?xml version="1.0" encoding="UTF-8" standalone="no"?>
<!-- Created with Inkscape (http://www.inkscape.org/) -->

<svg
   xmlns:dc="http://purl.org/dc/elements/1.1/"
   xmlns:cc="http://creativecommons.org/ns#"
   xmlns:rdf="http://www.w3.org/1999/02/22-rdf-syntax-ns#"
   xmlns:svg="http://www.w3.org/2000/svg"
   xmlns="http://www.w3.org/2000/svg"
   xmlns:sodipodi="http://sodipodi.sourceforge.net/DTD/sodipodi-0.dtd"
   xmlns:inkscape="http://www.inkscape.org/namespaces/inkscape"
   width="32px"
   height="32px"
   viewBox="0 0 32px 32px"
   version="1.1"
   id="svgMain"
   inkscape:version="0.92.2 (5c3e80d, 2017-08-06)"
   sodipodi:docname="reference_SVG.svg">
  <defs
     id="defs4542" />
  <sodipodi:namedview
     id="base"
     pagecolor="#ffffff"
     bordercolor="#666666"
     borderopacity="1.0"
     inkscape:pageopacity="0.0"
     inkscape:pageshadow="2"
     inkscape:zoom="1"
     inkscape:cx="0"
     inkscape:cy="0"
     inkscape:document-units="px"
     inkscape:current-layer="layer1"
     showgrid="false"
     units="px"
     inkscape:window-width="1024"
     inkscape:window-height="768"
     inkscape:window-x="-8"
     inkscape:window-y="-8"
     inkscape:window-maximized="1" />
  <metadata
     id="metadata1">
    <rdf:RDF>
      <cc:Work
         rdf:about="">
        <dc:format>image/svg+xml</dc:format>
        <dc:type
           rdf:resource="http://purl.org/dc/dcmitype/StillImage" />
        <dc:title />
      </cc:Work>
    </rdf:RDF>
  </metadata>
  <g transform="translate(-32,-32)"
     inkscape:label="Layer 1"
     inkscape:groupmode="layer"
     id="layer1">
    <!-- INSERT MARKER -->
<g transform="translate(0.000000,96.000000) scale(0.100000,-0.100000)"
fill="#3d3d3d" stroke="none">
<path d="M0 480 l0 -480 480 0 480 0 0 480 0 480 -480 0 -480 0 0 -480z m280
320 l0 -120 -120 0 -120 0 0 120 0 120 120 0 120 0 0 -120z m320 0 l0 -120
-120 0 -120 0 0 120 0 120 120 0 120 0 0 -120z m320 0 l0 -120 -120 0 -120 0
0 120 0 120 120 0 120 0 0 -120z m-640 -320 l0 -120 -120 0 -120 0 0 120 0
120 120 0 120 0 0 -120z m320 0 l0 -120 -120 0 -120 0 0 120 0 120 120 0 120
0 0 -120z m320 0 l0 -120 -120 0 -120 0 0 120 0 120 120 0 120 0 0 -120z
m-640 -320 l0 -120 -120 0 -120 0 0 120 0 120 120 0 120 0 0 -120z m320 0 l0
-120 -120 0 -120 0 0 120 0 120 120 0 120 0 0 -120z m320 0 l0 -120 -120 0
-120 0 0 120 0 120 120 0 120 0 0 -120z"/>
</g>
<g transform="translate(0.000000,96.000000) scale(0.100000,-0.100000)"
fill="#494949" stroke="none">
<path d="M0 480 l0 -480 480 0 480 0 -1 300 c0 190 -3 299 -9 295 -6 -4 -10
-19 -10 -34 0 -15 -6 -33 -12 -40 -10 -11 -10 -13 0 -7 11 7 18 -13 12 -39 -1
-5 -2 -37 -2 -71 l0 -61 -34 -1 c-21 -1 -34 3 -34 11 0 7 -3 8 -8 2 -11 -16
-42 -17 -60 -3 -10 8 -13 9 -9 1 5 -8 -12 -12 -63 -12 -66 0 -70 1 -70 22 0
13 6 29 12 35 10 10 10 17 0 33 -8 12 -12 51 -11 103 l2 84 69 1 c45 1 67 -2
63 -9 -3 -5 1 -10 10 -10 9 0 13 5 9 11 -4 7 17 10 70 7 l76 -3 -1 153 c0 93
-4 150 -10 147 -5 -4 -9 -19 -9 -34 0 -15 -6 -33 -12 -40 -10 -11 -10 -13 0
-7 11 7 18 -13 12 -39 -1 -5 -2 -38 -2 -72 0 -49 -3 -63 -14 -63 -9 0 -12 5
-9 11 4 6 -3 5 -14 -3 -18 -11 -23 -11 -31 2 -5 8 -10 10 -10 5 0 -15 -41 -16
-59 -2 -11 9 -13 9 -8 0 5 -8 -12 -12 -63 -12 -66 0 -70 1 -70 22 0 13 6 29
12 35 10 10 10 17 0 33 -8 12 -12 51 -11 103 l2 84 69 1 c45 1 67 -2 63 -9 -3
-5 1 -10 10 -10 9 0 13 5 9 11 -4 7 17 10 70 7 55 -2 76 0 76 9 0 10 -108 12
-480 13 l-480 0 0 -480z m206 459 c106 0 121 -4 103 -25 -6 -7 -11 -35 -12
-61 0 -27 -5 -51 -11 -55 -8 -6 -8 -8 0 -8 7 0 11 -25 12 -65 l1 -64 -42 2
c-23 1 -45 6 -49 12 -5 7 -8 7 -8 0 0 -6 -38 -11 -91 -13 -100 -2 -100 -2 -74
62 6 12 5 17 -2 13 -6 -4 -11 30 -12 98 l-1 104 37 3 c21 2 41 2 45 0 4 -2 51
-3 104 -3z m424 -7 c-1 -4 -5 -26 -9 -49 -6 -32 -5 -48 7 -64 9 -12 10 -19 4
-15 -9 5 -12 -5 -12 -34 0 -30 -3 -39 -12 -34 -10 6 -10 4 0 -7 6 -7 12 -25
12 -40 l0 -26 -140 0 -140 0 2 29 c1 16 6 32 10 34 5 3 3 14 -2 25 -6 10 -10
57 -9 103 l2 84 143 1 c79 0 144 -3 144 -7z m-310 -117 c0 -3 -2 -5 -5 -5 -3
0 -5 2 -5 5 0 3 2 5 5 5 3 0 5 -2 5 -5z m347 -82 c-4 -3 -7 0 -7 7 0 7 3 10 7
7 3 -4 3 -10 0 -14z m-317 2 c0 -3 -2 -5 -5 -5 -3 0 -5 2 -5 5 0 3 2 5 5 5 3
0 5 -2 5 -5z m-270 -90 c0 -3 -2 -5 -5 -5 -3 0 -5 2 -5 5 0 3 2 5 5 5 3 0 5
-2 5 -5z m340 -10 c0 -3 -2 -5 -5 -5 -3 0 -5 2 -5 5 0 3 2 5 5 5 3 0 5 -2 5
-5z m320 0 c0 -3 -2 -5 -5 -5 -3 0 -5 2 -5 5 0 3 2 5 5 5 3 0 5 -2 5 -5z
m-586 -26 c-3 -5 0 -9 5 -9 6 0 11 5 11 10 0 12 138 12 145 0 3 -4 -1 -13 -8
-19 -9 -7 -12 -27 -9 -62 3 -40 1 -50 -8 -44 -10 6 -11 4 -4 -6 5 -8 10 -41
10 -75 1 -61 1 -61 -28 -62 -17 0 -26 3 -22 10 4 7 0 7 -12 0 -23 -11 -94 -10
-113 2 -10 6 -12 5 -7 -2 5 -9 -8 -12 -43 -12 l-51 0 0 38 c0 28 3 33 10 22 8
-12 9 -10 7 7 -2 12 -6 26 -10 29 -4 4 -7 47 -7 95 l0 88 33 3 c48 5 108 -3
101 -13z m476 3 c-1 -4 -5 -26 -9 -49 -6 -32 -5 -48 7 -64 9 -12 10 -19 4 -15
-9 5 -12 -5 -12 -34 0 -30 -3 -39 -12 -34 -10 6 -10 4 0 -7 6 -7 12 -25 12
-40 l0 -26 -140 0 -140 0 2 29 c1 16 6 32 10 34 5 3 4 14 -2 24 -14 27 -12
133 3 149 10 11 10 13 0 7 -9 -5 -13 0 -13 13 0 20 5 21 145 20 80 0 145 -3
145 -7z m-310 -117 c0 -3 -2 -5 -5 -5 -3 0 -5 2 -5 5 0 3 2 5 5 5 3 0 5 -2 5
-5z m0 -20 c0 -3 -2 -5 -5 -5 -3 0 -5 2 -5 5 0 3 2 5 5 5 3 0 5 -2 5 -5z
m-290 -50 c0 -3 -2 -5 -5 -5 -3 0 -5 2 -5 5 0 3 2 5 5 5 3 0 5 -2 5 -5z m637
-12 c-4 -3 -7 0 -7 7 0 7 3 10 7 7 3 -4 3 -10 0 -14z m-317 2 c0 -3 -2 -5 -5
-5 -3 0 -5 2 -5 5 0 3 2 5 5 5 3 0 5 -2 5 -5z m-250 -100 c0 -3 -2 -5 -5 -5
-3 0 -5 2 -5 5 0 3 2 5 5 5 3 0 5 -2 5 -5z m320 0 c0 -3 -2 -5 -5 -5 -3 0 -5
2 -5 5 0 3 2 5 5 5 3 0 5 -2 5 -5z m320 0 c0 -3 -2 -5 -5 -5 -3 0 -5 2 -5 5 0
3 2 5 5 5 3 0 5 -2 5 -5z m-430 -23 c-1 -4 -5 -26 -9 -49 -6 -32 -5 -48 7 -64
9 -12 10 -19 4 -15 -9 5 -12 -5 -12 -34 0 -30 -3 -39 -12 -34 -10 6 -10 4 0
-7 6 -7 12 -25 12 -40 l0 -26 -140 0 -140 0 2 29 c1 16 6 32 10 34 5 3 3 14
-2 25 -6 10 -10 57 -9 103 l2 84 143 1 c79 0 144 -3 144 -7z m165 -2 c-3 -5 1
-10 10 -10 9 0 13 5 10 10 -4 7 19 10 64 9 68 -1 93 -10 71 -24 -5 -3 -10 -19
-10 -34 0 -15 -6 -33 -12 -40 -10 -11 -10 -13 0 -7 7 5 12 1 12 -9 0 -10 5
-13 13 -9 8 6 8 3 -2 -9 -8 -10 -13 -41 -13 -80 l0 -64 -34 -1 c-21 -1 -34 3
-34 11 0 7 -3 8 -8 2 -11 -16 -42 -17 -60 -3 -10 8 -13 9 -9 1 5 -8 -12 -12
-63 -12 -66 0 -70 1 -70 22 0 13 6 29 12 35 10 10 10 17 0 33 -8 12 -12 51
-11 103 l2 84 69 1 c45 1 67 -2 63 -9z m470 -23 c-7 -37 -9 -68 -5 -82 1 -5 2
-29 1 -53 -1 -31 -4 -41 -13 -36 -10 6 -10 4 0 -7 6 -7 12 -25 12 -40 l0 -26
-140 0 -140 0 2 29 c1 16 6 32 10 34 5 3 3 14 -2 25 -6 10 -10 57 -9 103 l2
84 144 1 144 0 -6 -32z m-598 -174 c-4 -3 -7 0 -7 7 0 7 3 10 7 7 3 -4 3 -10
0 -14z m-317 2 c0 -3 -2 -5 -5 -5 -3 0 -5 2 -5 5 0 3 2 5 5 5 3 0 5 -2 5 -5z
m640 0 c0 -3 -2 -5 -5 -5 -3 0 -5 2 -5 5 0 3 2 5 5 5 3 0 5 -2 5 -5z"/>
<path d="M50 925 c0 -3 2 -5 5 -5 3 0 5 2 5 5 0 3 -2 5 -5 5 -3 0 -5 -2 -5 -5z"/>
<path d="M113 923 c4 -3 10 -3 14 0 3 4 0 7 -7 7 -7 0 -10 -3 -7 -7z"/>
<path d="M158 923 c7 -3 16 -2 19 1 4 3 -2 6 -13 5 -11 0 -14 -3 -6 -6z"/>
<path d="M270 925 c0 -3 2 -5 5 -5 3 0 5 2 5 5 0 3 -2 5 -5 5 -3 0 -5 -2 -5
-5z"/>
<path d="M300 925 c0 -3 2 -5 5 -5 3 0 5 2 5 5 0 3 -2 5 -5 5 -3 0 -5 -2 -5
-5z"/>
<path d="M30 905 c0 -3 2 -5 5 -5 3 0 5 2 5 5 0 3 -2 5 -5 5 -3 0 -5 -2 -5 -5z"/>
<path d="M30 880 c0 -7 3 -10 7 -7 3 4 3 10 0 14 -4 3 -7 0 -7 -7z"/>
<path d="M280 885 c0 -3 2 -5 5 -5 3 0 5 2 5 5 0 3 -2 5 -5 5 -3 0 -5 -2 -5
-5z"/>
<path d="M30 855 c0 -3 2 -5 5 -5 3 0 5 2 5 5 0 3 -2 5 -5 5 -3 0 -5 -2 -5 -5z"/>
<path d="M90 675 c0 -3 2 -5 5 -5 3 0 5 2 5 5 0 3 -2 5 -5 5 -3 0 -5 -2 -5 -5z"/>
<path d="M240 675 c0 -3 2 -5 5 -5 3 0 5 2 5 5 0 3 -2 5 -5 5 -3 0 -5 -2 -5
-5z"/>
<path d="M433 923 c4 -3 10 -3 14 0 3 4 0 7 -7 7 -7 0 -10 -3 -7 -7z"/>
<path d="M478 923 c7 -3 16 -2 19 1 4 3 -2 6 -13 5 -11 0 -14 -3 -6 -6z"/>
<path d="M570 925 c0 -3 2 -5 5 -5 3 0 5 2 5 5 0 3 -2 5 -5 5 -3 0 -5 -2 -5
-5z"/>
<path d="M350 895 c0 -3 2 -5 5 -5 3 0 5 2 5 5 0 3 -2 5 -5 5 -3 0 -5 -2 -5
-5z"/>
<path d="M350 875 c0 -3 2 -5 5 -5 3 0 5 2 5 5 0 3 -2 5 -5 5 -3 0 -5 -2 -5
-5z"/>
<path d="M350 855 c0 -3 2 -5 5 -5 3 0 5 2 5 5 0 3 -2 5 -5 5 -3 0 -5 -2 -5
-5z"/>
<path d="M600 790 c0 -7 3 -10 7 -7 3 4 3 10 0 14 -4 3 -7 0 -7 -7z"/>
<path d="M590 675 c0 -3 2 -5 5 -5 3 0 5 2 5 5 0 3 -2 5 -5 5 -3 0 -5 -2 -5
-5z"/>
<path d="M40 605 c0 -3 2 -5 5 -5 3 0 5 2 5 5 0 3 -2 5 -5 5 -3 0 -5 -2 -5 -5z"/>
<path d="M60 605 c0 -3 2 -5 5 -5 3 0 5 2 5 5 0 3 -2 5 -5 5 -3 0 -5 -2 -5 -5z"/>
<path d="M120 605 c0 -3 2 -5 5 -5 3 0 5 2 5 5 0 3 -2 5 -5 5 -3 0 -5 -2 -5
-5z"/>
<path d="M30 585 c0 -3 2 -5 5 -5 3 0 5 2 5 5 0 3 -2 5 -5 5 -3 0 -5 -2 -5 -5z"/>
<path d="M30 555 c0 -3 2 -5 5 -5 3 0 5 2 5 5 0 3 -2 5 -5 5 -3 0 -5 -2 -5 -5z"/>
<path d="M30 535 c0 -3 2 -5 5 -5 3 0 5 2 5 5 0 3 -2 5 -5 5 -3 0 -5 -2 -5 -5z"/>
<path d="M433 603 c4 -3 10 -3 14 0 3 4 0 7 -7 7 -7 0 -10 -3 -7 -7z"/>
<path d="M478 603 c7 -3 16 -2 19 1 4 3 -2 6 -13 5 -11 0 -14 -3 -6 -6z"/>
<path d="M570 605 c0 -3 2 -5 5 -5 3 0 5 2 5 5 0 3 -2 5 -5 5 -3 0 -5 -2 -5
-5z"/>
<path d="M350 555 c0 -3 2 -5 5 -5 3 0 5 2 5 5 0 3 -2 5 -5 5 -3 0 -5 -2 -5
-5z"/>
<path d="M350 535 c0 -3 2 -5 5 -5 3 0 5 2 5 5 0 3 -2 5 -5 5 -3 0 -5 -2 -5
-5z"/>
<path d="M600 470 c0 -7 3 -10 7 -7 3 4 3 10 0 14 -4 3 -7 0 -7 -7z"/>
<path d="M590 355 c0 -3 2 -5 5 -5 3 0 5 2 5 5 0 3 -2 5 -5 5 -3 0 -5 -2 -5
-5z"/>
<path d="M113 283 c4 -3 10 -3 14 0 3 4 0 7 -7 7 -7 0 -10 -3 -7 -7z"/>
<path d="M158 283 c7 -3 16 -2 19 1 4 3 -2 6 -13 5 -11 0 -14 -3 -6 -6z"/>
<path d="M250 285 c0 -3 2 -5 5 -5 3 0 5 2 5 5 0 3 -2 5 -5 5 -3 0 -5 -2 -5
-5z"/>
<path d="M30 255 c0 -3 2 -5 5 -5 3 0 5 2 5 5 0 3 -2 5 -5 5 -3 0 -5 -2 -5 -5z"/>
<path d="M30 235 c0 -3 2 -5 5 -5 3 0 5 2 5 5 0 3 -2 5 -5 5 -3 0 -5 -2 -5 -5z"/>
<path d="M30 215 c0 -3 2 -5 5 -5 3 0 5 2 5 5 0 3 -2 5 -5 5 -3 0 -5 -2 -5 -5z"/>
<path d="M280 150 c0 -7 3 -10 7 -7 3 4 3 10 0 14 -4 3 -7 0 -7 -7z"/>
<path d="M270 35 c0 -3 2 -5 5 -5 3 0 5 2 5 5 0 3 -2 5 -5 5 -3 0 -5 -2 -5 -5z"/>
<path d="M433 283 c4 -3 10 -3 14 0 3 4 0 7 -7 7 -7 0 -10 -3 -7 -7z"/>
<path d="M520 285 c0 -3 2 -5 5 -5 3 0 5 2 5 5 0 3 -2 5 -5 5 -3 0 -5 -2 -5
-5z"/>
<path d="M350 255 c0 -3 2 -5 5 -5 3 0 5 2 5 5 0 3 -2 5 -5 5 -3 0 -5 -2 -5
-5z"/>
<path d="M350 220 c0 -7 3 -10 7 -7 3 4 3 10 0 14 -4 3 -7 0 -7 -7z"/>
<path d="M601 154 c0 -11 3 -14 6 -6 3 7 2 16 -1 19 -3 4 -6 -2 -5 -13z"/>
<path d="M450 35 c0 -3 2 -5 5 -5 3 0 5 2 5 5 0 3 -2 5 -5 5 -3 0 -5 -2 -5 -5z"/>
<path d="M560 35 c0 -3 2 -5 5 -5 3 0 5 2 5 5 0 3 -2 5 -5 5 -3 0 -5 -2 -5 -5z"/>
<path d="M753 283 c4 -3 10 -3 14 0 3 4 0 7 -7 7 -7 0 -10 -3 -7 -7z"/>
<path d="M798 283 c7 -3 16 -2 19 1 4 3 -2 6 -13 5 -11 0 -14 -3 -6 -6z"/>
<path d="M890 285 c0 -3 2 -5 5 -5 3 0 5 2 5 5 0 3 -2 5 -5 5 -3 0 -5 -2 -5
-5z"/>
<path d="M670 255 c0 -3 2 -5 5 -5 3 0 5 2 5 5 0 3 -2 5 -5 5 -3 0 -5 -2 -5
-5z"/>
<path d="M670 235 c0 -3 2 -5 5 -5 3 0 5 2 5 5 0 3 -2 5 -5 5 -3 0 -5 -2 -5
-5z"/>
<path d="M670 215 c0 -3 2 -5 5 -5 3 0 5 2 5 5 0 3 -2 5 -5 5 -3 0 -5 -2 -5
-5z"/>
<path d="M920 150 c0 -7 3 -10 7 -7 3 4 3 10 0 14 -4 3 -7 0 -7 -7z"/>
<path d="M910 35 c0 -3 2 -5 5 -5 3 0 5 2 5 5 0 3 -2 5 -5 5 -3 0 -5 -2 -5 -5z"/>
<path d="M753 923 c4 -3 10 -3 14 0 3 4 0 7 -7 7 -7 0 -10 -3 -7 -7z"/>
<path d="M840 925 c0 -3 2 -5 5 -5 3 0 5 2 5 5 0 3 -2 5 -5 5 -3 0 -5 -2 -5
-5z"/>
<path d="M670 895 c0 -3 2 -5 5 -5 3 0 5 2 5 5 0 3 -2 5 -5 5 -3 0 -5 -2 -5
-5z"/>
<path d="M670 860 c0 -7 3 -10 7 -7 3 4 3 10 0 14 -4 3 -7 0 -7 -7z"/>
<path d="M921 794 c0 -11 3 -14 6 -6 3 7 2 16 -1 19 -3 4 -6 -2 -5 -13z"/>
<path d="M770 675 c0 -3 2 -5 5 -5 3 0 5 2 5 5 0 3 -2 5 -5 5 -3 0 -5 -2 -5
-5z"/>
<path d="M753 603 c4 -3 10 -3 14 0 3 4 0 7 -7 7 -7 0 -10 -3 -7 -7z"/>
<path d="M840 605 c0 -3 2 -5 5 -5 3 0 5 2 5 5 0 3 -2 5 -5 5 -3 0 -5 -2 -5
-5z"/>
<path d="M670 575 c0 -3 2 -5 5 -5 3 0 5 2 5 5 0 3 -2 5 -5 5 -3 0 -5 -2 -5
-5z"/>
<path d="M670 540 c0 -7 3 -10 7 -7 3 4 3 10 0 14 -4 3 -7 0 -7 -7z"/>
<path d="M921 474 c0 -11 3 -14 6 -6 3 7 2 16 -1 19 -3 4 -6 -2 -5 -13z"/>
<path d="M770 355 c0 -3 2 -5 5 -5 3 0 5 2 5 5 0 3 -2 5 -5 5 -3 0 -5 -2 -5
-5z"/>
<path d="M880 355 c0 -3 2 -5 5 -5 3 0 5 2 5 5 0 3 -2 5 -5 5 -3 0 -5 -2 -5
-5z"/>
</g>
<g transform="translate(0.000000,96.000000) scale(0.100000,-0.100000)"
fill="#515151" stroke="none">
<path d="M24 949 c-3 -5 7 -9 22 -9 15 0 24 3 20 7 -11 11 -35 12 -42 2z"/>
<path d="M105 950 c7 -12 35 -13 53 -1 8 5 0 8 -23 9 -21 1 -33 -3 -30 -8z"/>
<path d="M190 950 c0 -7 3 -10 7 -7 3 4 3 10 0 14 -4 3 -7 0 -7 -7z"/>
<path d="M213 953 c4 -3 10 -3 14 0 3 4 0 7 -7 7 -7 0 -10 -3 -7 -7z"/>
<path d="M250 956 c0 -2 7 -7 16 -10 8 -3 12 -2 9 4 -6 10 -25 14 -25 6z"/>
<path d="M305 950 c3 -5 8 -10 11 -10 3 0 2 5 -1 10 -3 6 -8 10 -11 10 -3 0
-2 -4 1 -10z"/>
<path d="M350 950 c-12 -8 -9 -9 12 -8 15 1 24 6 22 10 -7 10 -16 10 -34 -2z"/>
<path d="M425 950 c7 -12 42 -13 49 -2 2 4 -9 9 -25 10 -19 2 -28 -2 -24 -8z"/>
<path d="M495 949 c-3 -4 2 -6 10 -5 21 3 28 13 10 13 -9 0 -18 -4 -20 -8z"/>
<path d="M540 955 c0 -3 2 -5 5 -5 3 0 5 2 5 5 0 3 -2 5 -5 5 -3 0 -5 -2 -5
-5z"/>
<path d="M575 950 c3 -5 11 -10 16 -10 6 0 7 5 4 10 -3 6 -11 10 -16 10 -6 0
-7 -4 -4 -10z"/>
<path d="M616 952 c-3 -5 1 -9 9 -9 8 0 12 4 9 9 -3 4 -7 8 -9 8 -2 0 -6 -4
-9 -8z"/>
<path d="M670 950 c0 -5 7 -10 16 -10 8 0 12 5 9 10 -3 6 -10 10 -16 10 -5 0
-9 -4 -9 -10z"/>
<path d="M745 950 c7 -12 52 -14 58 -2 3 4 -11 8 -30 10 -21 1 -32 -2 -28 -8z"/>
<path d="M845 950 c3 -5 8 -10 11 -10 3 0 2 5 -1 10 -3 6 -8 10 -11 10 -3 0
-2 -4 1 -10z"/>
<path d="M870 955 c0 -3 2 -5 5 -5 3 0 5 2 5 5 0 3 -2 5 -5 5 -3 0 -5 -2 -5
-5z"/>
<path d="M895 950 c3 -5 14 -10 23 -10 15 0 15 2 2 10 -20 13 -33 13 -25 0z"/>
<path d="M945 950 c3 -5 8 -10 11 -10 2 0 4 5 4 10 0 6 -5 10 -11 10 -5 0 -7
-4 -4 -10z"/>
<path d="M305 911 c-3 -6 5 -15 17 -22 20 -11 21 -10 11 3 -7 8 -10 18 -6 21
3 4 1 7 -5 7 -6 0 -13 -4 -17 -9z"/>
<path d="M626 912 c-3 -5 1 -15 9 -22 11 -9 12 -16 5 -25 -6 -8 -5 -18 4 -30
11 -16 13 -13 12 23 -1 42 -18 73 -30 54z m24 -17 c0 -3 -2 -5 -5 -5 -3 0 -5
2 -5 5 0 3 2 5 5 5 3 0 5 -2 5 -5z m0 -40 c0 -3 -2 -5 -5 -5 -3 0 -5 2 -5 5 0
3 2 5 5 5 3 0 5 -2 5 -5z"/>
<path d="M945 911 c-3 -5 -1 -12 5 -16 5 -3 10 1 10 9 0 18 -6 21 -15 7z"/>
<path d="M0 905 c0 -3 2 -5 5 -5 3 0 5 2 5 5 0 3 -2 5 -5 5 -3 0 -5 -2 -5 -5z"/>
<path d="M0 865 c0 -14 4 -25 9 -25 4 0 6 11 3 25 -2 14 -6 25 -8 25 -2 0 -4
-11 -4 -25z"/>
<path d="M620 875 c0 -3 2 -5 5 -5 3 0 5 2 5 5 0 3 -2 5 -5 5 -3 0 -5 -2 -5
-5z"/>
<path d="M320 854 c0 -8 5 -12 10 -9 6 3 10 10 10 16 0 5 -4 9 -10 9 -5 0 -10
-7 -10 -16z"/>
<path d="M0 825 c0 -3 2 -5 5 -5 3 0 5 2 5 5 0 3 -2 5 -5 5 -3 0 -5 -2 -5 -5z"/>
<path d="M325 820 c-3 -5 -1 -10 4 -10 6 0 11 5 11 10 0 6 -2 10 -4 10 -3 0
-8 -4 -11 -10z"/>
<path d="M640 805 c0 -3 2 -5 5 -5 3 0 5 2 5 5 0 3 -2 5 -5 5 -3 0 -5 -2 -5
-5z"/>
<path d="M0 795 c0 -3 2 -5 5 -5 3 0 5 2 5 5 0 3 -2 5 -5 5 -3 0 -5 -2 -5 -5z"/>
<path d="M623 783 c1 -13 5 -23 9 -23 4 0 8 -5 8 -11 0 -5 -5 -7 -12 -3 -7 4
-8 3 -4 -5 6 -9 11 -9 22 0 8 7 11 15 6 18 -5 3 -14 15 -20 26 -11 19 -11 19
-9 -2z"/>
<path d="M303 770 c-2 -25 15 -36 30 -20 9 10 8 12 -6 7 -15 -6 -17 -3 -12 13
4 11 3 20 -2 20 -5 0 -9 -9 -10 -20z"/>
<path d="M943 770 c-1 -11 2 -20 8 -20 5 0 9 9 9 20 0 11 -4 20 -8 20 -4 0 -8
-9 -9 -20z"/>
<path d="M0 754 c0 -8 5 -12 10 -9 6 4 8 11 5 16 -9 14 -15 11 -15 -7z"/>
<path d="M950 735 c0 -3 2 -5 5 -5 3 0 5 2 5 5 0 3 -2 5 -5 5 -3 0 -5 -2 -5
-5z"/>
<path d="M1 700 c0 -29 1 -32 10 -17 7 11 7 23 0 35 -9 14 -10 11 -10 -18z"/>
<path d="M306 719 c3 -5 11 -6 17 -2 8 5 8 2 0 -9 -13 -15 -8 -28 9 -28 17 0
3 43 -15 46 -9 1 -15 -2 -11 -7z"/>
<path d="M638 698 c4 -16 2 -19 -8 -13 -8 5 -11 4 -6 -3 3 -6 -2 -16 -11 -22
-13 -8 -14 -13 -5 -16 6 -3 10 -9 8 -13 -3 -4 2 -8 10 -8 10 0 11 4 4 11 -14
14 -13 29 3 20 6 -4 9 -4 5 1 -4 4 -1 14 7 22 19 18 19 43 1 43 -10 0 -12 -7
-8 -22z"/>
<path d="M950 715 c0 -3 2 -5 5 -5 3 0 5 2 5 5 0 3 -2 5 -5 5 -3 0 -5 -2 -5
-5z"/>
<path d="M940 695 c0 -3 2 -5 5 -5 3 0 5 2 5 5 0 3 -2 5 -5 5 -3 0 -5 -2 -5
-5z"/>
<path d="M293 663 c-7 -3 -13 -9 -13 -14 0 -6 4 -8 9 -4 6 3 14 -3 20 -12 10
-16 10 -16 8 4 -4 27 -8 32 -24 26z m17 -8 c0 -3 -2 -5 -5 -5 -3 0 -5 2 -5 5
0 3 2 5 5 5 3 0 5 -2 5 -5z"/>
<path d="M926 661 c-11 -4 -15 -10 -9 -14 5 -3 19 0 29 8 20 15 11 18 -20 6z"/>
<path d="M20 645 c5 -7 8 -14 5 -16 -2 -3 6 -5 18 -6 20 -2 21 -1 5 11 -10 7
-16 15 -13 18 3 2 -2 5 -10 5 -10 0 -12 -4 -5 -12z"/>
<path d="M105 640 c3 -21 53 -26 61 -6 7 19 25 22 21 4 -1 -6 6 -14 16 -16 26
-5 21 25 -5 32 -37 9 -48 7 -42 -9 5 -11 2 -13 -10 -9 -9 3 -14 10 -11 14 3 5
-3 8 -14 7 -11 0 -18 -8 -16 -17z m102 -7 c-4 -3 -10 -3 -14 0 -3 4 0 7 7 7 7
0 10 -3 7 -7z"/>
<path d="M230 655 c0 -3 2 -5 5 -5 3 0 5 2 5 5 0 3 -2 5 -5 5 -3 0 -5 -2 -5
-5z"/>
<path d="M338 649 c6 -9 10 -18 7 -20 -2 -3 7 -6 21 -7 16 -1 23 2 19 9 -4 6
-10 8 -13 5 -3 -3 -15 2 -26 11 -15 14 -18 14 -8 2z"/>
<path d="M412 651 c8 -27 35 -36 62 -21 29 15 34 30 11 30 -8 0 -14 -3 -12 -7
1 -5 -2 -8 -8 -8 -5 0 -9 3 -7 8 3 11 -16 8 -24 -4 -4 -8 -9 -7 -16 2 -8 12
-9 11 -6 0z"/>
<path d="M503 641 c-10 -16 -9 -19 5 -16 9 2 18 4 20 5 1 2 6 3 12 4 5 0 15 8
22 16 11 12 11 12 -4 2 -11 -9 -18 -10 -23 -2 -9 15 -19 12 -32 -9z m17 -6 c0
-3 -2 -5 -5 -5 -3 0 -5 2 -5 5 0 3 2 5 5 5 3 0 5 -2 5 -5z"/>
<path d="M737 638 c20 -23 59 -23 72 -1 9 17 11 17 29 -1 20 -17 20 -17 18 1
-3 15 -13 18 -69 19 -64 0 -66 -1 -50 -18z m13 7 c0 -3 -2 -5 -5 -5 -3 0 -5 2
-5 5 0 3 2 5 5 5 3 0 5 -2 5 -5z m50 -7 c0 -4 -4 -8 -9 -8 -6 0 -12 4 -15 8
-3 5 1 9 9 9 8 0 15 -4 15 -9z"/>
<path d="M256 635 c4 -8 11 -15 16 -15 6 0 5 6 -2 15 -7 8 -14 15 -16 15 -2 0
-1 -7 2 -15z"/>
<path d="M666 635 c4 -8 12 -15 20 -15 20 0 17 7 -6 20 -16 9 -18 8 -14 -5z"/>
<path d="M230 635 c0 -3 2 -5 5 -5 3 0 5 2 5 5 0 3 -2 5 -5 5 -3 0 -5 -2 -5
-5z"/>
<path d="M575 630 c3 -5 11 -10 16 -10 6 0 7 5 4 10 -3 6 -11 10 -16 10 -6 0
-7 -4 -4 -10z"/>
<path d="M870 635 c0 -3 2 -5 5 -5 3 0 5 2 5 5 0 3 -2 5 -5 5 -3 0 -5 -2 -5
-5z"/>
<path d="M895 630 c3 -5 14 -10 23 -10 15 0 15 2 2 10 -20 13 -33 13 -25 0z"/>
<path d="M945 630 c3 -5 8 -10 11 -10 2 0 4 5 4 10 0 6 -5 10 -11 10 -5 0 -7
-4 -4 -10z"/>
<path d="M290 625 c0 -3 2 -5 5 -5 3 0 5 2 5 5 0 3 -2 5 -5 5 -3 0 -5 -2 -5
-5z"/>
<path d="M10 595 c0 -3 2 -5 5 -5 3 0 5 2 5 5 0 3 -2 5 -5 5 -3 0 -5 -2 -5 -5z"/>
<path d="M304 588 c-3 -4 -4 -8 -2 -9 25 -6 35 -5 35 5 0 14 -25 17 -33 4z"/>
<path d="M626 592 c-3 -5 1 -15 9 -22 11 -9 12 -16 5 -25 -6 -8 -5 -18 4 -30
11 -16 13 -13 12 23 -1 42 -18 73 -30 54z m24 -17 c0 -3 -2 -5 -5 -5 -3 0 -5
2 -5 5 0 3 2 5 5 5 3 0 5 -2 5 -5z m0 -40 c0 -3 -2 -5 -5 -5 -3 0 -5 2 -5 5 0
3 2 5 5 5 3 0 5 -2 5 -5z"/>
<path d="M945 591 c-3 -5 -1 -12 5 -16 5 -3 10 1 10 9 0 18 -6 21 -15 7z"/>
<path d="M3 531 c1 -27 4 -48 8 -46 7 5 5 83 -3 91 -3 2 -5 -18 -5 -45z"/>
<path d="M320 534 c0 -14 4 -23 9 -20 5 3 7 15 4 26 -7 28 -13 25 -13 -6z"/>
<path d="M620 555 c0 -3 2 -5 5 -5 3 0 5 2 5 5 0 3 -2 5 -5 5 -3 0 -5 -2 -5
-5z"/>
<path d="M323 493 c4 -3 10 -3 14 0 3 4 0 7 -7 7 -7 0 -10 -3 -7 -7z"/>
<path d="M640 485 c0 -3 2 -5 5 -5 3 0 5 2 5 5 0 3 -2 5 -5 5 -3 0 -5 -2 -5
-5z"/>
<path d="M623 463 c1 -13 5 -23 9 -23 4 0 8 -5 8 -11 0 -5 -5 -7 -12 -3 -7 4
-8 3 -4 -5 6 -9 11 -9 22 0 8 7 11 15 6 18 -5 3 -14 15 -20 26 -11 19 -11 19
-9 -2z"/>
<path d="M300 443 c0 -22 2 -25 10 -13 13 20 13 40 0 40 -5 0 -10 -12 -10 -27z"/>
<path d="M943 450 c-1 -11 2 -20 8 -20 5 0 9 9 9 20 0 11 -4 20 -8 20 -4 0 -8
-9 -9 -20z"/>
<path d="M0 434 c0 -8 5 -12 10 -9 6 4 8 11 5 16 -9 14 -15 11 -15 -7z"/>
<path d="M320 429 c0 -5 5 -7 10 -4 6 3 10 8 10 11 0 2 -4 4 -10 4 -5 0 -10
-5 -10 -11z"/>
<path d="M950 415 c0 -3 2 -5 5 -5 3 0 5 2 5 5 0 3 -2 5 -5 5 -3 0 -5 -2 -5
-5z"/>
<path d="M0 380 c0 -18 4 -29 10 -25 6 3 10 15 10 25 0 10 -4 22 -10 25 -6 4
-10 -7 -10 -25z"/>
<path d="M319 404 c5 -3 7 -14 4 -24 -3 -12 0 -20 7 -20 15 0 9 43 -8 46 -7 1
-8 0 -3 -2z"/>
<path d="M638 378 c4 -16 2 -19 -8 -13 -8 5 -11 4 -6 -3 3 -6 -2 -15 -11 -21
-10 -5 -14 -13 -9 -18 5 -4 11 -2 13 5 3 6 10 9 16 5 7 -3 9 -3 5 2 -4 4 -1
14 7 22 19 18 19 43 1 43 -10 0 -12 -7 -8 -22z"/>
<path d="M950 395 c0 -3 2 -5 5 -5 3 0 5 2 5 5 0 3 -2 5 -5 5 -3 0 -5 -2 -5
-5z"/>
<path d="M300 375 c0 -3 2 -5 5 -5 3 0 5 2 5 5 0 3 -2 5 -5 5 -3 0 -5 -2 -5
-5z"/>
<path d="M940 375 c0 -3 2 -5 5 -5 3 0 5 2 5 5 0 3 -2 5 -5 5 -3 0 -5 -2 -5
-5z"/>
<path d="M950 355 c0 -3 2 -5 5 -5 3 0 5 2 5 5 0 3 -2 5 -5 5 -3 0 -5 -2 -5
-5z"/>
<path d="M310 340 c0 -7 3 -10 7 -7 3 4 3 10 0 14 -4 3 -7 0 -7 -7z"/>
<path d="M97 318 c9 -10 23 -18 31 -18 9 0 24 8 35 18 18 15 20 15 14 0 -5
-14 8 -17 33 -8 3 1 8 2 13 1 4 0 7 3 7 9 0 6 -8 10 -17 10 -10 0 -28 3 -41 6
-13 4 -22 3 -20 -2 2 -5 -1 -9 -7 -9 -5 0 -9 3 -8 6 1 3 -11 6 -27 5 -26 -1
-27 -2 -13 -18z m103 -3 c0 -3 -2 -5 -5 -5 -3 0 -5 2 -5 5 0 3 2 5 5 5 3 0 5
-2 5 -5z"/>
<path d="M282 326 c10 -7 16 -15 13 -18 -3 -2 1 -5 9 -5 11 0 12 4 3 19 -7 10
-19 18 -27 18 -12 -1 -12 -3 2 -14z"/>
<path d="M342 320 c7 -11 18 -20 25 -20 19 0 16 6 -12 24 -25 17 -25 16 -13
-4z"/>
<path d="M410 335 c0 -18 22 -35 45 -35 21 0 45 17 45 32 0 4 -7 8 -15 8 -9 0
-12 -6 -8 -16 4 -12 2 -15 -8 -12 -8 3 -13 11 -11 17 3 14 -15 14 -24 0 -4 -8
-9 -7 -15 2 -5 8 -9 9 -9 4z"/>
<path d="M510 332 c0 -5 6 -15 14 -21 12 -10 14 -9 12 5 -3 19 -26 33 -26 16z"/>
<path d="M555 329 c-4 -6 -5 -12 -2 -15 2 -3 7 2 10 11 7 17 1 20 -8 4z"/>
<path d="M737 318 c20 -22 41 -23 65 -1 15 14 21 14 31 3 8 -9 9 -11 0 -6 -6
3 -14 2 -17 -3 -5 -8 15 -8 34 -1 3 1 10 2 15 0 6 -1 4 5 -3 12 -8 8 -38 13
-77 14 -62 0 -64 -1 -48 -18z m13 7 c0 -3 -2 -5 -5 -5 -3 0 -5 2 -5 5 0 3 2 5
5 5 3 0 5 -2 5 -5z m50 -1 c0 -8 -19 -13 -24 -6 -3 5 1 9 9 9 8 0 15 -2 15 -3z"/>
<path d="M915 330 c4 -6 11 -7 17 -4 7 5 9 2 6 -8 -4 -8 -1 -15 6 -15 23 0 12
33 -12 35 -13 1 -20 -2 -17 -8z"/>
<path d="M20 325 c0 -3 2 -5 5 -5 3 0 5 2 5 5 0 3 -2 5 -5 5 -3 0 -5 -2 -5 -5z"/>
<path d="M663 317 c0 -7 12 -13 26 -14 14 -1 19 1 11 4 -8 3 -20 10 -26 14 -6
5 -11 4 -11 -4z"/>
<path d="M30 310 c-12 -8 -9 -9 12 -8 15 1 24 6 22 10 -7 10 -16 10 -34 -2z"/>
<path d="M255 310 c3 -5 11 -10 16 -10 6 0 7 5 4 10 -3 6 -11 10 -16 10 -6 0
-7 -4 -4 -10z"/>
<path d="M575 310 c3 -5 14 -10 23 -10 15 0 15 2 2 10 -20 13 -33 13 -25 0z"/>
<path d="M625 310 c3 -5 8 -10 11 -10 2 0 4 5 4 10 0 6 -5 10 -11 10 -5 0 -7
-4 -4 -10z"/>
<path d="M895 310 c3 -5 11 -10 16 -10 6 0 7 5 4 10 -3 6 -11 10 -16 10 -6 0
-7 -4 -4 -10z"/>
<path d="M0 275 c0 -3 2 -5 5 -5 3 0 5 2 5 5 0 3 -2 5 -5 5 -3 0 -5 -2 -5 -5z"/>
<path d="M306 272 c-3 -5 1 -15 9 -22 11 -9 12 -16 5 -25 -6 -8 -5 -18 4 -30
11 -16 13 -13 12 23 -1 42 -18 73 -30 54z m24 -17 c0 -3 -2 -5 -5 -5 -3 0 -5
2 -5 5 0 3 2 5 5 5 3 0 5 -2 5 -5z m0 -40 c0 -3 -2 -5 -5 -5 -3 0 -5 2 -5 5 0
3 2 5 5 5 3 0 5 -2 5 -5z"/>
<path d="M625 271 c-3 -6 5 -15 17 -22 20 -11 21 -10 11 3 -7 8 -10 18 -6 21
3 4 1 7 -5 7 -6 0 -13 -4 -17 -9z"/>
<path d="M945 271 c-3 -5 -1 -12 5 -16 5 -3 10 1 10 9 0 18 -6 21 -15 7z"/>
<path d="M5 250 c3 -5 8 -10 11 -10 3 0 2 5 -1 10 -3 6 -8 10 -11 10 -3 0 -2
-4 1 -10z"/>
<path d="M300 235 c0 -3 2 -5 5 -5 3 0 5 2 5 5 0 3 -2 5 -5 5 -3 0 -5 -2 -5
-5z"/>
<path d="M940 235 c0 -3 2 -5 5 -5 3 0 5 2 5 5 0 3 -2 5 -5 5 -3 0 -5 -2 -5
-5z"/>
<path d="M0 214 c0 -8 5 -12 10 -9 6 3 10 10 10 16 0 5 -4 9 -10 9 -5 0 -10
-7 -10 -16z"/>
<path d="M640 214 c0 -8 5 -12 10 -9 6 3 10 10 10 16 0 5 -4 9 -10 9 -5 0 -10
-7 -10 -16z"/>
<path d="M950 215 c0 -3 2 -5 5 -5 3 0 5 2 5 5 0 3 -2 5 -5 5 -3 0 -5 -2 -5
-5z"/>
<path d="M5 180 c-3 -5 -1 -10 4 -10 6 0 11 5 11 10 0 6 -2 10 -4 10 -3 0 -8
-4 -11 -10z"/>
<path d="M645 180 c-3 -5 -1 -10 4 -10 6 0 11 5 11 10 0 6 -2 10 -4 10 -3 0
-8 -4 -11 -10z"/>
<path d="M320 165 c0 -3 2 -5 5 -5 3 0 5 2 5 5 0 3 -2 5 -5 5 -3 0 -5 -2 -5
-5z"/>
<path d="M303 143 c1 -13 5 -23 9 -23 4 0 8 -5 8 -11 0 -5 -5 -7 -12 -3 -7 4
-8 3 -4 -5 6 -9 11 -9 22 0 8 7 11 15 6 18 -5 3 -14 15 -20 26 -11 19 -11 19
-9 -2z"/>
<path d="M943 142 c0 -12 5 -22 9 -22 11 0 10 12 -2 30 -7 12 -9 10 -7 -8z"/>
<path d="M623 130 c-1 -11 2 -20 6 -20 4 0 7 -17 7 -39 -1 -27 2 -37 11 -34
16 6 17 39 3 48 -8 5 -7 11 1 21 8 10 8 14 0 14 -6 0 -11 7 -11 15 0 23 -16
18 -17 -5z m27 -55 c0 -3 -2 -5 -5 -5 -3 0 -5 2 -5 5 0 3 2 5 5 5 3 0 5 -2 5
-5z"/>
<path d="M0 109 c0 -5 5 -7 10 -4 5 3 10 8 10 11 0 2 -4 4 -10 4 -5 0 -10 -5
-10 -11z"/>
<path d="M945 100 c3 -5 8 -10 11 -10 3 0 2 5 -1 10 -3 6 -8 10 -11 10 -3 0
-2 -4 1 -10z"/>
<path d="M2 64 c-1 -13 3 -24 8 -24 12 0 14 37 2 44 -4 2 -9 -6 -10 -20z"/>
<path d="M318 58 c4 -16 2 -19 -8 -13 -8 5 -11 4 -6 -3 3 -6 -2 -15 -11 -21
-10 -5 -14 -13 -9 -18 5 -4 11 -2 13 5 3 6 10 9 16 5 7 -3 9 -3 5 2 -4 4 -1
14 7 22 19 18 19 43 1 43 -10 0 -12 -7 -8 -22z"/>
<path d="M950 75 c0 -3 2 -5 5 -5 3 0 5 2 5 5 0 3 -2 5 -5 5 -3 0 -5 -2 -5 -5z"/>
<path d="M620 55 c0 -3 2 -5 5 -5 3 0 5 2 5 5 0 3 -2 5 -5 5 -3 0 -5 -2 -5 -5z"/>
<path d="M944 43 c3 -6 -2 -16 -11 -22 -10 -5 -14 -13 -9 -18 5 -4 11 -2 13 5
3 6 8 10 13 7 11 -7 7 22 -5 32 -4 4 -5 3 -1 -4z"/>
<path d="M15 10 c3 -5 8 -10 11 -10 3 0 2 5 -1 10 -3 6 -8 10 -11 10 -3 0 -2
-4 1 -10z"/>
<path d="M90 10 c0 -7 3 -10 7 -7 3 4 3 10 0 14 -4 3 -7 0 -7 -7z"/>
<path d="M115 10 c-3 -5 -2 -10 4 -10 5 0 13 5 16 10 3 6 2 10 -4 10 -5 0 -13
-4 -16 -10z"/>
<path d="M155 10 c3 -5 10 -10 16 -10 5 0 9 5 9 10 0 6 -7 10 -16 10 -8 0 -12
-4 -9 -10z"/>
<path d="M190 10 c0 -5 7 -10 16 -10 8 0 12 5 9 10 -3 6 -10 10 -16 10 -5 0
-9 -4 -9 -10z"/>
<path d="M234 8 c-4 -7 -3 -8 4 -4 7 4 12 9 12 12 0 8 -9 4 -16 -8z"/>
<path d="M406 11 c3 -3 34 -6 70 -7 35 0 62 2 58 5 -3 3 -34 6 -70 7 -35 0
-61 -2 -58 -5z"/>
<path d="M594 11 c4 -5 13 -8 21 -7 25 4 25 12 -1 14 -14 1 -23 -2 -20 -7z"/>
<path d="M655 10 c3 -5 8 -10 11 -10 3 0 2 5 -1 10 -3 6 -8 10 -11 10 -3 0 -2
-4 1 -10z"/>
<path d="M730 10 c0 -7 3 -10 7 -7 3 4 3 10 0 14 -4 3 -7 0 -7 -7z"/>
<path d="M755 10 c-3 -5 -2 -10 4 -10 5 0 13 5 16 10 3 6 2 10 -4 10 -5 0 -13
-4 -16 -10z"/>
<path d="M795 10 c3 -5 10 -10 16 -10 5 0 9 5 9 10 0 6 -7 10 -16 10 -8 0 -12
-4 -9 -10z"/>
<path d="M830 10 c0 -5 7 -10 16 -10 8 0 12 5 9 10 -3 6 -10 10 -16 10 -5 0
-9 -4 -9 -10z"/>
<path d="M874 8 c-4 -7 -3 -8 4 -4 12 7 16 16 8 16 -3 0 -8 -5 -12 -12z"/>
<path d="M340 5 c0 -3 2 -5 5 -5 3 0 5 2 5 5 0 3 -2 5 -5 5 -3 0 -5 -2 -5 -5z"/>
</g>
  </g>
</svg>
