<?xml version="1.0" encoding="UTF-8" standalone="no"?>
<!-- Created with Inkscape (http://www.inkscape.org/) -->

<svg
   xmlns:dc="http://purl.org/dc/elements/1.1/"
   xmlns:cc="http://creativecommons.org/ns#"
   xmlns:rdf="http://www.w3.org/1999/02/22-rdf-syntax-ns#"
   xmlns:svg="http://www.w3.org/2000/svg"
   xmlns="http://www.w3.org/2000/svg"
   xmlns:sodipodi="http://sodipodi.sourceforge.net/DTD/sodipodi-0.dtd"
   xmlns:inkscape="http://www.inkscape.org/namespaces/inkscape"
   width="32px"
   height="32px"
   viewBox="0 0 32px 32px"
   version="1.1"
   id="svgMain"
   inkscape:version="0.92.2 (5c3e80d, 2017-08-06)"
   sodipodi:docname="reference_SVG.svg">
  <defs
     id="defs4542" />
  <sodipodi:namedview
     id="base"
     pagecolor="#ffffff"
     bordercolor="#666666"
     borderopacity="1.0"
     inkscape:pageopacity="0.0"
     inkscape:pageshadow="2"
     inkscape:zoom="1"
     inkscape:cx="0"
     inkscape:cy="0"
     inkscape:document-units="px"
     inkscape:current-layer="layer1"
     showgrid="false"
     units="px"
     inkscape:window-width="1024"
     inkscape:window-height="768"
     inkscape:window-x="-8"
     inkscape:window-y="-8"
     inkscape:window-maximized="1" />
  <metadata
     id="metadata1">
    <rdf:RDF>
      <cc:Work
         rdf:about="">
        <dc:format>image/svg+xml</dc:format>
        <dc:type
           rdf:resource="http://purl.org/dc/dcmitype/StillImage" />
        <dc:title />
      </cc:Work>
    </rdf:RDF>
  </metadata>
  <g transform="translate(-32,-32)"
     inkscape:label="Layer 1"
     inkscape:groupmode="layer"
     id="layer1">
    <!-- INSERT MARKER -->
<g transform="translate(0.000000,96.000000) scale(0.100000,-0.100000)"
fill="#9f844d" stroke="none">
<path d="M33 945 c-15 -17 -17 -45 -3 -45 6 0 10 -9 10 -20 0 -11 -4 -20 -10
-20 -5 0 -10 -9 -10 -20 0 -11 5 -20 10 -20 6 0 10 -9 10 -20 0 -11 -4 -20
-10 -20 -5 0 -10 -9 -10 -20 0 -11 5 -20 10 -20 6 0 10 -9 10 -20 0 -11 -4
-20 -10 -20 -5 0 -10 -9 -10 -20 0 -11 5 -20 10 -20 6 0 10 -9 10 -20 0 -11
-4 -20 -10 -20 -5 0 -10 -9 -10 -20 0 -11 5 -20 10 -20 6 0 10 -9 10 -20 0
-11 -4 -20 -10 -20 -5 0 -10 -9 -10 -20 0 -11 5 -20 10 -20 6 0 10 -9 10 -20
0 -11 -4 -20 -10 -20 -5 0 -10 -9 -10 -20 0 -11 5 -20 10 -20 6 0 10 -9 10
-20 0 -11 -4 -20 -10 -20 -5 0 -10 -9 -10 -20 0 -11 5 -20 10 -20 6 0 10 -9
10 -20 0 -11 -4 -20 -10 -20 -5 0 -10 -9 -10 -20 0 -11 5 -20 10 -20 6 0 10
-9 10 -20 0 -11 -4 -20 -10 -20 -5 0 -10 -9 -10 -20 0 -11 5 -20 10 -20 6 0
10 -9 10 -20 0 -11 -4 -20 -10 -20 -5 0 -10 -9 -10 -20 0 -11 5 -20 10 -20 6
0 10 -9 10 -20 0 -11 -4 -20 -10 -20 -15 0 -12 -29 4 -46 17 -16 46 -19 46 -4
0 6 33 10 80 10 47 0 80 -4 80 -10 0 -15 29 -12 46 4 16 17 19 46 4 46 -5 0
-10 9 -10 20 0 11 5 20 10 20 6 0 10 9 10 20 0 11 -4 20 -10 20 -5 0 -10 9
-10 20 0 11 5 20 10 20 6 0 10 9 10 20 0 11 -4 20 -10 20 -5 0 -10 9 -10 20 0
11 5 20 10 20 6 0 10 9 10 20 0 11 -4 20 -10 20 -5 0 -10 9 -10 20 0 11 5 20
10 20 6 0 10 9 10 20 0 11 -4 20 -10 20 -5 0 -10 9 -10 20 0 11 5 20 10 20 6
0 10 9 10 20 0 11 -4 20 -10 20 -5 0 -10 9 -10 20 0 11 5 20 10 20 6 0 10 9
10 20 0 11 -4 20 -10 20 -5 0 -10 9 -10 20 0 11 5 20 10 20 6 0 10 9 10 20 0
11 -4 20 -10 20 -5 0 -10 9 -10 20 0 11 5 20 10 20 6 0 10 9 10 20 0 11 -4 20
-10 20 -5 0 -10 9 -10 20 0 11 5 20 10 20 6 0 10 9 10 20 0 11 -4 20 -10 20
-5 0 -10 9 -10 20 0 11 5 20 10 20 6 0 10 9 10 20 0 11 -4 20 -10 20 -5 0 -10
9 -10 20 0 11 5 20 10 20 15 0 12 29 -4 46 -17 16 -46 19 -46 4 0 -6 -33 -10
-80 -10 -47 0 -80 4 -80 10 0 15 -33 11 -47 -5z m207 -65 c0 -18 -7 -20 -80
-20 -73 0 -80 2 -80 20 0 18 7 20 80 20 73 0 80 -2 80 -20z m0 -80 c0 -18 -7
-20 -80 -20 -73 0 -80 2 -80 20 0 18 7 20 80 20 73 0 80 -2 80 -20z m0 -80 c0
-18 -7 -20 -80 -20 -73 0 -80 2 -80 20 0 18 7 20 80 20 73 0 80 -2 80 -20z m0
-80 c0 -18 -7 -20 -80 -20 -73 0 -80 2 -80 20 0 18 7 20 80 20 73 0 80 -2 80
-20z m0 -80 c0 -18 -7 -20 -80 -20 -73 0 -80 2 -80 20 0 18 7 20 80 20 73 0
80 -2 80 -20z m0 -80 c0 -18 -7 -20 -80 -20 -73 0 -80 2 -80 20 0 18 7 20 80
20 73 0 80 -2 80 -20z m0 -80 c0 -18 -7 -20 -80 -20 -73 0 -80 2 -80 20 0 18
7 20 80 20 73 0 80 -2 80 -20z m0 -80 c0 -18 -7 -20 -80 -20 -73 0 -80 2 -80
20 0 18 7 20 80 20 73 0 80 -2 80 -20z m0 -80 c0 -18 -7 -20 -80 -20 -73 0
-80 2 -80 20 0 18 7 20 80 20 73 0 80 -2 80 -20z m0 -80 c0 -18 -7 -20 -80
-20 -73 0 -80 2 -80 20 0 18 7 20 80 20 73 0 80 -2 80 -20z m0 -80 c0 -18 -7
-20 -80 -20 -73 0 -80 2 -80 20 0 18 7 20 80 20 73 0 80 -2 80 -20z"/>
<path d="M353 945 c-15 -17 -17 -45 -3 -45 6 0 10 -9 10 -20 0 -11 -4 -20 -10
-20 -5 0 -10 -9 -10 -20 0 -11 5 -20 10 -20 6 0 10 -9 10 -20 0 -11 -4 -20
-10 -20 -5 0 -10 -9 -10 -20 0 -11 5 -20 10 -20 6 0 10 -9 10 -20 0 -11 -4
-20 -10 -20 -5 0 -10 -9 -10 -20 0 -11 5 -20 10 -20 6 0 10 -9 10 -20 0 -11
-4 -20 -10 -20 -5 0 -10 -9 -10 -20 0 -11 5 -20 10 -20 6 0 10 -9 10 -20 0
-11 -4 -20 -10 -20 -5 0 -10 -9 -10 -20 0 -11 5 -20 10 -20 6 0 10 -9 10 -20
0 -11 -4 -20 -10 -20 -5 0 -10 -9 -10 -20 0 -11 5 -20 10 -20 6 0 10 -9 10
-20 0 -11 -4 -20 -10 -20 -5 0 -10 -9 -10 -20 0 -11 5 -20 10 -20 6 0 10 -9
10 -20 0 -11 -4 -20 -10 -20 -5 0 -10 -9 -10 -20 0 -11 5 -20 10 -20 6 0 10
-9 10 -20 0 -11 -4 -20 -10 -20 -5 0 -10 -9 -10 -20 0 -11 5 -20 10 -20 6 0
10 -9 10 -20 0 -11 -4 -20 -10 -20 -5 0 -10 -9 -10 -20 0 -11 5 -20 10 -20 6
0 10 -9 10 -20 0 -11 -4 -20 -10 -20 -15 0 -12 -29 4 -46 17 -16 46 -19 46 -4
0 6 33 10 80 10 47 0 80 -4 80 -10 0 -15 29 -12 46 4 16 17 19 46 4 46 -5 0
-10 9 -10 20 0 11 5 20 10 20 6 0 10 9 10 20 0 11 -4 20 -10 20 -5 0 -10 9
-10 20 0 11 5 20 10 20 6 0 10 9 10 20 0 11 -4 20 -10 20 -5 0 -10 9 -10 20 0
11 5 20 10 20 6 0 10 9 10 20 0 11 -4 20 -10 20 -5 0 -10 9 -10 20 0 11 5 20
10 20 6 0 10 9 10 20 0 11 -4 20 -10 20 -5 0 -10 9 -10 20 0 11 5 20 10 20 6
0 10 9 10 20 0 11 -4 20 -10 20 -5 0 -10 9 -10 20 0 11 5 20 10 20 6 0 10 9
10 20 0 11 -4 20 -10 20 -5 0 -10 9 -10 20 0 11 5 20 10 20 6 0 10 9 10 20 0
11 -4 20 -10 20 -5 0 -10 9 -10 20 0 11 5 20 10 20 6 0 10 9 10 20 0 11 -4 20
-10 20 -5 0 -10 9 -10 20 0 11 5 20 10 20 6 0 10 9 10 20 0 11 -4 20 -10 20
-5 0 -10 9 -10 20 0 11 5 20 10 20 6 0 10 9 10 20 0 11 -4 20 -10 20 -5 0 -10
9 -10 20 0 11 5 20 10 20 15 0 12 29 -4 46 -17 16 -46 19 -46 4 0 -6 -33 -10
-80 -10 -47 0 -80 4 -80 10 0 15 -33 11 -47 -5z m207 -65 c0 -18 -7 -20 -80
-20 -73 0 -80 2 -80 20 0 18 7 20 80 20 73 0 80 -2 80 -20z m0 -80 c0 -18 -7
-20 -80 -20 -73 0 -80 2 -80 20 0 18 7 20 80 20 73 0 80 -2 80 -20z m0 -80 c0
-18 -7 -20 -80 -20 -73 0 -80 2 -80 20 0 18 7 20 80 20 73 0 80 -2 80 -20z m0
-80 c0 -18 -7 -20 -80 -20 -73 0 -80 2 -80 20 0 18 7 20 80 20 73 0 80 -2 80
-20z m0 -80 c0 -18 -7 -20 -80 -20 -73 0 -80 2 -80 20 0 18 7 20 80 20 73 0
80 -2 80 -20z m0 -80 c0 -18 -7 -20 -80 -20 -73 0 -80 2 -80 20 0 18 7 20 80
20 73 0 80 -2 80 -20z m0 -80 c0 -18 -7 -20 -80 -20 -73 0 -80 2 -80 20 0 18
7 20 80 20 73 0 80 -2 80 -20z m0 -80 c0 -18 -7 -20 -80 -20 -73 0 -80 2 -80
20 0 18 7 20 80 20 73 0 80 -2 80 -20z m0 -80 c0 -18 -7 -20 -80 -20 -73 0
-80 2 -80 20 0 18 7 20 80 20 73 0 80 -2 80 -20z m0 -80 c0 -18 -7 -20 -80
-20 -73 0 -80 2 -80 20 0 18 7 20 80 20 73 0 80 -2 80 -20z m0 -80 c0 -18 -7
-20 -80 -20 -73 0 -80 2 -80 20 0 18 7 20 80 20 73 0 80 -2 80 -20z"/>
<path d="M673 945 c-15 -17 -17 -45 -3 -45 6 0 10 -9 10 -20 0 -11 -4 -20 -10
-20 -5 0 -10 -9 -10 -20 0 -11 5 -20 10 -20 6 0 10 -9 10 -20 0 -11 -4 -20
-10 -20 -5 0 -10 -9 -10 -20 0 -11 5 -20 10 -20 6 0 10 -9 10 -20 0 -11 -4
-20 -10 -20 -5 0 -10 -9 -10 -20 0 -11 5 -20 10 -20 6 0 10 -9 10 -20 0 -11
-4 -20 -10 -20 -5 0 -10 -9 -10 -20 0 -11 5 -20 10 -20 6 0 10 -9 10 -20 0
-11 -4 -20 -10 -20 -5 0 -10 -9 -10 -20 0 -11 5 -20 10 -20 6 0 10 -9 10 -20
0 -11 -4 -20 -10 -20 -5 0 -10 -9 -10 -20 0 -11 5 -20 10 -20 6 0 10 -9 10
-20 0 -11 -4 -20 -10 -20 -5 0 -10 -9 -10 -20 0 -11 5 -20 10 -20 6 0 10 -9
10 -20 0 -11 -4 -20 -10 -20 -5 0 -10 -9 -10 -20 0 -11 5 -20 10 -20 6 0 10
-9 10 -20 0 -11 -4 -20 -10 -20 -5 0 -10 -9 -10 -20 0 -11 5 -20 10 -20 6 0
10 -9 10 -20 0 -11 -4 -20 -10 -20 -5 0 -10 -9 -10 -20 0 -11 5 -20 10 -20 6
0 10 -9 10 -20 0 -11 -4 -20 -10 -20 -15 0 -12 -29 4 -46 17 -16 46 -19 46 -4
0 6 33 10 80 10 47 0 80 -4 80 -10 0 -15 29 -12 46 4 16 17 19 46 4 46 -5 0
-10 9 -10 20 0 11 5 20 10 20 6 0 10 9 10 20 0 11 -4 20 -10 20 -5 0 -10 9
-10 20 0 11 5 20 10 20 6 0 10 9 10 20 0 11 -4 20 -10 20 -5 0 -10 9 -10 20 0
11 5 20 10 20 6 0 10 9 10 20 0 11 -4 20 -10 20 -5 0 -10 9 -10 20 0 11 5 20
10 20 6 0 10 9 10 20 0 11 -4 20 -10 20 -5 0 -10 9 -10 20 0 11 5 20 10 20 6
0 10 9 10 20 0 11 -4 20 -10 20 -5 0 -10 9 -10 20 0 11 5 20 10 20 6 0 10 9
10 20 0 11 -4 20 -10 20 -5 0 -10 9 -10 20 0 11 5 20 10 20 6 0 10 9 10 20 0
11 -4 20 -10 20 -5 0 -10 9 -10 20 0 11 5 20 10 20 6 0 10 9 10 20 0 11 -4 20
-10 20 -5 0 -10 9 -10 20 0 11 5 20 10 20 6 0 10 9 10 20 0 11 -4 20 -10 20
-5 0 -10 9 -10 20 0 11 5 20 10 20 6 0 10 9 10 20 0 11 -4 20 -10 20 -5 0 -10
9 -10 20 0 11 5 20 10 20 15 0 12 29 -4 46 -17 16 -46 19 -46 4 0 -6 -33 -10
-80 -10 -47 0 -80 4 -80 10 0 15 -33 11 -47 -5z m207 -65 c0 -18 -7 -20 -80
-20 -73 0 -80 2 -80 20 0 18 7 20 80 20 73 0 80 -2 80 -20z m0 -80 c0 -18 -7
-20 -80 -20 -73 0 -80 2 -80 20 0 18 7 20 80 20 73 0 80 -2 80 -20z m0 -80 c0
-18 -7 -20 -80 -20 -73 0 -80 2 -80 20 0 18 7 20 80 20 73 0 80 -2 80 -20z m0
-80 c0 -18 -7 -20 -80 -20 -73 0 -80 2 -80 20 0 18 7 20 80 20 73 0 80 -2 80
-20z m0 -80 c0 -18 -7 -20 -80 -20 -73 0 -80 2 -80 20 0 18 7 20 80 20 73 0
80 -2 80 -20z m0 -80 c0 -18 -7 -20 -80 -20 -73 0 -80 2 -80 20 0 18 7 20 80
20 73 0 80 -2 80 -20z m0 -80 c0 -18 -7 -20 -80 -20 -73 0 -80 2 -80 20 0 18
7 20 80 20 73 0 80 -2 80 -20z m0 -80 c0 -18 -7 -20 -80 -20 -73 0 -80 2 -80
20 0 18 7 20 80 20 73 0 80 -2 80 -20z m0 -80 c0 -18 -7 -20 -80 -20 -73 0
-80 2 -80 20 0 18 7 20 80 20 73 0 80 -2 80 -20z m0 -80 c0 -18 -7 -20 -80
-20 -73 0 -80 2 -80 20 0 18 7 20 80 20 73 0 80 -2 80 -20z m0 -80 c0 -18 -7
-20 -80 -20 -73 0 -80 2 -80 20 0 18 7 20 80 20 73 0 80 -2 80 -20z"/>
</g>
<g transform="translate(0.000000,96.000000) scale(0.100000,-0.100000)"
fill="#bc9862" stroke="none">
<path d="M50 950 c0 -5 7 -10 15 -10 8 0 15 5 15 10 0 6 -7 10 -15 10 -8 0
-15 -4 -15 -10z"/>
<path d="M238 948 c-3 -9 -34 -13 -102 -14 -65 -1 -101 -5 -109 -14 -9 -10 -9
-13 1 -17 16 -6 16 -40 0 -46 -7 -2 7 -9 32 -15 l45 -12 -42 4 c-24 2 -43 0
-43 -5 0 -5 5 -9 10 -9 6 0 10 -9 10 -20 0 -12 7 -20 16 -20 10 0 14 5 10 16
-3 8 -2 12 4 9 6 -3 10 -1 10 6 0 8 28 10 98 9 53 -2 103 -2 110 -1 17 2 15
41 -3 41 -8 0 -15 7 -15 15 0 9 7 18 15 21 25 10 17 23 -17 27 l-33 4 33 1
c30 2 32 4 18 17 -18 18 -43 20 -48 3z m-98 -28 c11 -8 7 -9 -15 -4 -37 8 -45
14 -19 14 10 0 26 -5 34 -10z m63 -7 c-7 -2 -21 -2 -30 0 -10 3 -4 5 12 5 17
0 24 -2 18 -5z m44 -29 c3 -9 0 -20 -8 -25 -10 -6 -3 -9 21 -10 31 -1 29 -2
-15 -10 -27 -4 -51 -6 -54 -3 -2 2 4 4 15 4 15 0 16 2 5 9 -16 10 -42 3 -53
-13 -5 -7 -8 -5 -8 5 0 10 -10 15 -35 15 -40 0 -50 7 -42 29 9 23 165 22 174
-1z m-190 -16 c-3 -8 -6 -5 -6 6 -1 11 2 17 5 13 3 -3 4 -12 1 -19z"/>
<path d="M370 950 c0 -5 7 -10 15 -10 8 0 15 5 15 10 0 6 -7 10 -15 10 -8 0
-15 -4 -15 -10z"/>
<path d="M558 948 c-3 -9 -34 -13 -102 -14 -65 -1 -101 -5 -109 -14 -9 -10 -9
-13 1 -17 6 -3 12 -13 12 -23 0 -10 -6 -20 -12 -23 -7 -2 7 -9 32 -15 l45 -12
-42 4 c-24 2 -43 0 -43 -5 0 -5 5 -9 10 -9 6 0 10 -9 10 -20 0 -12 7 -20 16
-20 10 0 14 5 10 16 -3 8 -2 12 4 9 6 -3 10 -1 10 6 0 8 28 10 98 9 53 -2 103
-2 110 -1 17 2 15 41 -3 41 -8 0 -15 7 -15 15 0 9 7 18 15 21 25 10 17 23 -17
27 l-33 4 33 1 c30 2 32 4 18 17 -18 18 -43 20 -48 3z m-98 -28 c11 -8 7 -9
-15 -4 -37 8 -45 14 -19 14 10 0 26 -5 34 -10z m63 -7 c-7 -2 -21 -2 -30 0
-10 3 -4 5 12 5 17 0 24 -2 18 -5z m44 -29 c3 -9 0 -20 -8 -25 -10 -6 -3 -9
21 -10 31 -1 29 -2 -15 -10 -27 -4 -51 -6 -54 -3 -2 2 4 4 15 4 15 0 16 2 5 9
-16 10 -42 3 -53 -13 -5 -7 -8 -5 -8 5 0 10 -10 15 -35 15 -40 0 -50 7 -42 29
9 23 165 22 174 -1z m-190 -16 c-3 -8 -6 -5 -6 6 -1 11 2 17 5 13 3 -3 4 -12
1 -19z"/>
<path d="M690 950 c0 -5 7 -10 15 -10 8 0 15 5 15 10 0 6 -7 10 -15 10 -8 0
-15 -4 -15 -10z"/>
<path d="M878 948 c-3 -9 -34 -13 -102 -14 -65 -1 -101 -5 -109 -14 -9 -10 -9
-13 1 -17 6 -3 12 -13 12 -23 0 -10 -6 -20 -12 -23 -7 -2 7 -9 32 -15 l45 -12
-42 4 c-24 2 -43 0 -43 -5 0 -5 5 -9 10 -9 6 0 10 -9 10 -20 0 -12 7 -20 16
-20 10 0 14 5 10 16 -3 8 -2 12 4 9 6 -3 10 -1 10 6 0 8 28 10 98 9 53 -2 103
-2 110 -1 17 2 15 41 -3 41 -8 0 -15 7 -15 15 0 9 7 18 15 21 25 10 17 23 -17
27 l-33 4 33 1 c30 2 32 4 18 17 -18 18 -43 20 -48 3z m-98 -28 c11 -8 7 -9
-15 -4 -37 8 -45 14 -19 14 10 0 26 -5 34 -10z m63 -7 c-7 -2 -21 -2 -30 0
-10 3 -4 5 12 5 17 0 24 -2 18 -5z m44 -29 c3 -9 0 -20 -8 -25 -10 -6 -3 -9
21 -10 31 -1 29 -2 -15 -10 -27 -4 -51 -6 -54 -3 -2 2 4 4 15 4 15 0 16 2 5 9
-16 10 -42 3 -53 -13 -5 -7 -8 -5 -8 5 0 10 -10 15 -35 15 -40 0 -50 7 -42 29
9 23 165 22 174 -1z m-190 -16 c-3 -8 -6 -5 -6 6 -1 11 2 17 5 13 3 -3 4 -12
1 -19z"/>
<path d="M242 782 c5 -17 1 -18 -38 -11 -24 5 -65 6 -91 4 -27 -2 -58 -4 -70
-5 -22 0 -34 -30 -13 -30 6 0 10 -9 10 -20 0 -11 -5 -20 -12 -20 -22 0 2 -13
39 -21 l38 -8 -42 3 c-24 2 -43 0 -43 -5 0 -12 7 -12 123 -9 99 2 99 2 95 -21
-3 -23 -6 -24 -78 -23 -62 1 -69 0 -41 -8 50 -14 33 -17 -27 -5 -41 9 -55 8
-65 -2 -9 -11 -9 -14 1 -18 16 -6 16 -40 0 -46 -7 -2 7 -9 32 -15 l45 -12 -42
4 c-24 2 -43 0 -43 -5 0 -5 5 -9 10 -9 6 0 10 -9 10 -20 0 -12 7 -20 16 -20
10 0 14 5 10 16 -3 8 -2 12 4 9 6 -3 10 -1 10 6 0 8 28 10 98 9 53 -2 103 -2
110 -1 17 2 15 41 -3 41 -8 0 -15 7 -15 15 0 9 7 18 15 21 26 10 16 24 -17 25
l-33 2 35 7 c19 4 29 8 23 9 -15 1 -18 41 -3 41 15 0 12 30 -4 36 -15 6 -10
44 5 44 19 0 8 19 -13 23 l-23 4 23 2 c19 1 21 3 10 15 -9 10 -15 11 -20 2 -6
-8 -8 -8 -8 2 0 6 -5 12 -11 12 -6 0 -9 -8 -7 -18z m-57 -22 c27 -7 27 -8 5
-8 -14 0 -36 4 -50 8 -20 6 -21 8 -5 8 11 0 34 -4 50 -8z m53 -45 c-5 -22 -2
-25 25 -25 42 0 31 -6 -22 -13 -29 -4 -40 -2 -30 4 10 6 5 9 -18 9 -17 0 -34
-6 -36 -12 -3 -8 -6 -6 -6 5 -1 9 -8 17 -17 17 -8 0 -12 -5 -9 -10 4 -6 -5 -5
-19 2 -14 6 -26 19 -26 30 0 16 9 18 81 18 l81 0 -4 -25z m19 -7 c-3 -8 -6 -5
-6 6 -1 11 2 17 5 13 3 -3 4 -12 1 -19z m-190 -5 c-4 -3 -7 0 -7 7 0 7 3 10 7
7 3 -4 3 -10 0 -14z m203 -58 c0 -3 -2 -5 -5 -5 -3 0 -5 2 -5 5 0 3 2 5 5 5 3
0 5 -2 5 -5z m-67 -52 c-7 -2 -21 -2 -30 0 -10 3 -4 5 12 5 17 0 24 -2 18 -5z
m44 -29 c3 -9 0 -20 -8 -25 -10 -6 -3 -9 21 -10 31 -1 29 -2 -15 -10 -27 -4
-51 -6 -54 -3 -2 2 4 4 15 4 15 0 16 2 5 9 -16 10 -42 3 -53 -13 -5 -7 -8 -5
-8 5 0 10 -10 15 -35 15 -40 0 -50 7 -42 29 9 23 165 22 174 -1z m-190 -16
c-3 -8 -6 -5 -6 6 -1 11 2 17 5 13 3 -3 4 -12 1 -19z"/>
<path d="M562 782 c5 -17 1 -18 -38 -11 -24 5 -65 6 -91 4 -27 -2 -58 -4 -70
-5 -22 0 -34 -30 -13 -30 6 0 10 -9 10 -20 0 -11 -5 -20 -12 -20 -22 0 2 -13
39 -21 l38 -8 -42 3 c-24 2 -43 0 -43 -5 0 -12 7 -12 123 -9 99 2 99 2 95 -21
-3 -23 -6 -24 -78 -23 -62 1 -69 0 -41 -8 50 -14 33 -17 -27 -5 -41 9 -55 8
-65 -2 -9 -11 -9 -14 1 -18 6 -3 12 -13 12 -23 0 -10 -6 -20 -12 -23 -7 -2 7
-9 32 -15 l45 -12 -42 4 c-24 2 -43 0 -43 -5 0 -5 5 -9 10 -9 6 0 10 -9 10
-20 0 -12 7 -20 16 -20 10 0 14 5 10 16 -3 8 -2 12 4 9 6 -3 10 -1 10 6 0 8
28 10 98 9 53 -2 103 -2 110 -1 17 2 15 41 -3 41 -8 0 -15 7 -15 15 0 9 7 18
15 21 26 10 16 24 -17 25 l-33 2 35 7 c19 4 29 8 23 9 -15 1 -18 41 -3 41 15
0 12 30 -4 36 -15 6 -10 44 5 44 19 0 8 19 -13 23 l-23 4 23 2 c19 1 21 3 10
15 -9 10 -15 11 -20 2 -6 -8 -8 -8 -8 2 0 6 -5 12 -11 12 -6 0 -9 -8 -7 -18z
m-57 -22 c27 -7 27 -8 5 -8 -14 0 -36 4 -50 8 -20 6 -21 8 -5 8 11 0 34 -4 50
-8z m53 -45 c-5 -22 -2 -25 25 -25 42 0 31 -6 -22 -13 -29 -4 -40 -2 -30 4 10
6 5 9 -18 9 -17 0 -34 -6 -36 -12 -3 -8 -6 -6 -6 5 -1 9 -8 17 -17 17 -8 0
-12 -5 -9 -10 4 -6 -5 -5 -19 2 -14 6 -26 19 -26 30 0 16 9 18 81 18 l81 0 -4
-25z m19 -7 c-3 -8 -6 -5 -6 6 -1 11 2 17 5 13 3 -3 4 -12 1 -19z m-190 -5
c-4 -3 -7 0 -7 7 0 7 3 10 7 7 3 -4 3 -10 0 -14z m203 -58 c0 -3 -2 -5 -5 -5
-3 0 -5 2 -5 5 0 3 2 5 5 5 3 0 5 -2 5 -5z m-67 -52 c-7 -2 -21 -2 -30 0 -10
3 -4 5 12 5 17 0 24 -2 18 -5z m44 -29 c3 -9 0 -20 -8 -25 -10 -6 -3 -9 21
-10 31 -1 29 -2 -15 -10 -27 -4 -51 -6 -54 -3 -2 2 4 4 15 4 15 0 16 2 5 9
-16 10 -42 3 -53 -13 -5 -7 -8 -5 -8 5 0 10 -10 15 -35 15 -40 0 -50 7 -42 29
9 23 165 22 174 -1z m-190 -16 c-3 -8 -6 -5 -6 6 -1 11 2 17 5 13 3 -3 4 -12
1 -19z"/>
<path d="M882 782 c5 -17 1 -18 -38 -11 -24 5 -65 6 -91 4 -27 -2 -58 -4 -70
-5 -22 0 -34 -30 -13 -30 6 0 10 -9 10 -20 0 -11 -5 -20 -12 -20 -22 0 2 -13
39 -21 l38 -8 -42 3 c-24 2 -43 0 -43 -5 0 -12 7 -12 123 -9 99 2 99 2 95 -21
-3 -23 -6 -24 -78 -23 -62 1 -69 0 -41 -8 50 -14 33 -17 -27 -5 -41 9 -55 8
-65 -2 -9 -11 -9 -14 1 -18 6 -3 12 -13 12 -23 0 -10 -6 -20 -12 -23 -7 -2 7
-9 32 -15 l45 -12 -42 4 c-24 2 -43 0 -43 -5 0 -5 5 -9 10 -9 6 0 10 -9 10
-20 0 -12 7 -20 16 -20 10 0 14 5 10 16 -3 8 -2 12 4 9 6 -3 10 -1 10 6 0 8
28 10 98 9 53 -2 103 -2 110 -1 17 2 15 41 -3 41 -8 0 -15 7 -15 15 0 9 7 18
15 21 26 10 16 24 -17 25 l-33 2 35 7 c19 4 29 8 23 9 -15 1 -18 41 -3 41 15
0 12 30 -4 36 -15 6 -10 44 5 44 19 0 8 19 -13 23 l-23 4 23 2 c19 1 21 3 10
15 -9 10 -15 11 -20 2 -6 -8 -8 -8 -8 2 0 6 -5 12 -11 12 -6 0 -9 -8 -7 -18z
m-57 -22 c27 -7 27 -8 5 -8 -14 0 -36 4 -50 8 -20 6 -21 8 -5 8 11 0 34 -4 50
-8z m53 -45 c-5 -22 -2 -25 25 -25 42 0 31 -6 -22 -13 -29 -4 -40 -2 -30 4 10
6 5 9 -18 9 -17 0 -34 -6 -36 -12 -3 -8 -6 -6 -6 5 -1 9 -8 17 -17 17 -8 0
-12 -5 -9 -10 4 -6 -5 -5 -19 2 -14 6 -26 19 -26 30 0 16 9 18 81 18 l81 0 -4
-25z m19 -7 c-3 -8 -6 -5 -6 6 -1 11 2 17 5 13 3 -3 4 -12 1 -19z m-190 -5
c-4 -3 -7 0 -7 7 0 7 3 10 7 7 3 -4 3 -10 0 -14z m203 -58 c0 -3 -2 -5 -5 -5
-3 0 -5 2 -5 5 0 3 2 5 5 5 3 0 5 -2 5 -5z m-67 -52 c-7 -2 -21 -2 -30 0 -10
3 -4 5 12 5 17 0 24 -2 18 -5z m44 -29 c3 -9 0 -20 -8 -25 -10 -6 -3 -9 21
-10 31 -1 29 -2 -15 -10 -27 -4 -51 -6 -54 -3 -2 2 4 4 15 4 15 0 16 2 5 9
-16 10 -42 3 -53 -13 -5 -7 -8 -5 -8 5 0 10 -10 15 -35 15 -40 0 -50 7 -42 29
9 23 165 22 174 -1z m-190 -16 c-3 -8 -6 -5 -6 6 -1 11 2 17 5 13 3 -3 4 -12
1 -19z"/>
<path d="M50 630 c0 -5 7 -10 15 -10 8 0 15 5 15 10 0 6 -7 10 -15 10 -8 0
-15 -4 -15 -10z"/>
<path d="M370 630 c0 -5 7 -10 15 -10 8 0 15 5 15 10 0 6 -7 10 -15 10 -8 0
-15 -4 -15 -10z"/>
<path d="M690 630 c0 -5 7 -10 15 -10 8 0 15 5 15 10 0 6 -7 10 -15 10 -8 0
-15 -4 -15 -10z"/>
<path d="M242 462 c5 -17 1 -18 -38 -11 -24 5 -65 6 -91 4 -27 -2 -58 -4 -70
-5 -22 0 -34 -30 -13 -30 6 0 10 -9 10 -20 0 -11 -5 -20 -12 -20 -22 0 2 -13
39 -21 l38 -8 -42 3 c-24 2 -43 0 -43 -5 0 -12 7 -12 123 -9 99 2 99 2 95 -21
-3 -23 -6 -24 -78 -23 -62 1 -69 0 -41 -8 50 -14 33 -17 -27 -5 -41 9 -55 8
-65 -2 -9 -11 -9 -14 1 -18 16 -6 16 -40 0 -46 -7 -2 7 -9 32 -15 l45 -12 -42
4 c-24 2 -43 0 -43 -5 0 -5 5 -9 10 -9 6 0 10 -9 10 -20 0 -12 7 -20 16 -20
10 0 14 5 10 16 -3 8 -2 12 4 9 6 -3 10 -1 10 6 0 8 28 10 98 9 53 -2 103 -2
110 -1 17 2 15 41 -3 41 -8 0 -15 7 -15 15 0 9 7 18 15 21 26 10 16 24 -17 25
l-33 2 35 7 c19 4 29 8 23 9 -15 1 -18 41 -3 41 15 0 12 30 -4 36 -15 6 -10
44 5 44 19 0 8 19 -13 23 l-23 4 23 2 c19 1 21 3 10 15 -9 10 -15 11 -20 2 -6
-8 -8 -8 -8 2 0 6 -5 12 -11 12 -6 0 -9 -8 -7 -18z m-57 -22 c27 -7 27 -8 5
-8 -14 0 -36 4 -50 8 -20 6 -21 8 -5 8 11 0 34 -4 50 -8z m53 -45 c-5 -22 -2
-25 25 -25 42 0 31 -6 -22 -13 -29 -4 -40 -2 -30 4 10 6 5 9 -18 9 -17 0 -34
-6 -36 -12 -3 -8 -6 -6 -6 5 -1 9 -8 17 -17 17 -8 0 -12 -5 -9 -10 4 -6 -5 -5
-19 2 -14 6 -26 19 -26 30 0 16 9 18 81 18 l81 0 -4 -25z m19 -7 c-3 -8 -6 -5
-6 6 -1 11 2 17 5 13 3 -3 4 -12 1 -19z m-190 -5 c-4 -3 -7 0 -7 7 0 7 3 10 7
7 3 -4 3 -10 0 -14z m203 -58 c0 -3 -2 -5 -5 -5 -3 0 -5 2 -5 5 0 3 2 5 5 5 3
0 5 -2 5 -5z m-67 -52 c-7 -2 -21 -2 -30 0 -10 3 -4 5 12 5 17 0 24 -2 18 -5z
m44 -29 c3 -9 0 -20 -8 -25 -10 -6 -3 -9 21 -10 31 -1 29 -2 -15 -10 -27 -4
-51 -6 -54 -3 -2 2 4 4 15 4 15 0 16 2 5 9 -16 10 -42 3 -53 -13 -5 -7 -8 -5
-8 5 0 10 -10 15 -35 15 -40 0 -50 7 -42 29 9 23 165 22 174 -1z m-190 -16
c-3 -8 -6 -5 -6 6 -1 11 2 17 5 13 3 -3 4 -12 1 -19z"/>
<path d="M562 462 c5 -17 1 -18 -38 -11 -24 5 -65 6 -91 4 -27 -2 -58 -4 -70
-5 -22 0 -34 -30 -13 -30 6 0 10 -9 10 -20 0 -11 -5 -20 -12 -20 -22 0 2 -13
39 -21 l38 -8 -42 3 c-24 2 -43 0 -43 -5 0 -12 7 -12 123 -9 99 2 99 2 95 -21
-3 -23 -6 -24 -78 -23 -62 1 -69 0 -41 -8 50 -14 33 -17 -27 -5 -41 9 -55 8
-65 -2 -9 -11 -9 -14 1 -18 6 -3 12 -13 12 -23 0 -10 -6 -20 -12 -23 -7 -2 7
-9 32 -15 l45 -12 -42 4 c-24 2 -43 0 -43 -5 0 -5 5 -9 10 -9 6 0 10 -9 10
-20 0 -12 7 -20 16 -20 10 0 14 5 10 16 -3 8 -2 12 4 9 6 -3 10 -1 10 6 0 8
28 10 98 9 53 -2 103 -2 110 -1 17 2 15 41 -3 41 -8 0 -15 7 -15 15 0 9 7 18
15 21 26 10 16 24 -17 25 l-33 2 35 7 c19 4 29 8 23 9 -15 1 -18 41 -3 41 15
0 12 30 -4 36 -15 6 -10 44 5 44 19 0 8 19 -13 23 l-23 4 23 2 c19 1 21 3 10
15 -9 10 -15 11 -20 2 -6 -8 -8 -8 -8 2 0 6 -5 12 -11 12 -6 0 -9 -8 -7 -18z
m-57 -22 c27 -7 27 -8 5 -8 -14 0 -36 4 -50 8 -20 6 -21 8 -5 8 11 0 34 -4 50
-8z m53 -45 c-5 -22 -2 -25 25 -25 42 0 31 -6 -22 -13 -29 -4 -40 -2 -30 4 10
6 5 9 -18 9 -17 0 -34 -6 -36 -12 -3 -8 -6 -6 -6 5 -1 9 -8 17 -17 17 -8 0
-12 -5 -9 -10 4 -6 -5 -5 -19 2 -14 6 -26 19 -26 30 0 16 9 18 81 18 l81 0 -4
-25z m19 -7 c-3 -8 -6 -5 -6 6 -1 11 2 17 5 13 3 -3 4 -12 1 -19z m-190 -5
c-4 -3 -7 0 -7 7 0 7 3 10 7 7 3 -4 3 -10 0 -14z m203 -58 c0 -3 -2 -5 -5 -5
-3 0 -5 2 -5 5 0 3 2 5 5 5 3 0 5 -2 5 -5z m-67 -52 c-7 -2 -21 -2 -30 0 -10
3 -4 5 12 5 17 0 24 -2 18 -5z m44 -29 c3 -9 0 -20 -8 -25 -10 -6 -3 -9 21
-10 31 -1 29 -2 -15 -10 -27 -4 -51 -6 -54 -3 -2 2 4 4 15 4 15 0 16 2 5 9
-16 10 -42 3 -53 -13 -5 -7 -8 -5 -8 5 0 10 -10 15 -35 15 -40 0 -50 7 -42 29
9 23 165 22 174 -1z m-190 -16 c-3 -8 -6 -5 -6 6 -1 11 2 17 5 13 3 -3 4 -12
1 -19z"/>
<path d="M882 462 c5 -17 1 -18 -38 -11 -24 5 -65 6 -91 4 -27 -2 -58 -4 -70
-5 -22 0 -34 -30 -13 -30 6 0 10 -9 10 -20 0 -11 -5 -20 -12 -20 -22 0 2 -13
39 -21 l38 -8 -42 3 c-24 2 -43 0 -43 -5 0 -12 7 -12 123 -9 99 2 99 2 95 -21
-3 -23 -6 -24 -78 -23 -62 1 -69 0 -41 -8 50 -14 33 -17 -27 -5 -41 9 -55 8
-65 -2 -9 -11 -9 -14 1 -18 6 -3 12 -13 12 -23 0 -10 -6 -20 -12 -23 -7 -2 7
-9 32 -15 l45 -12 -42 4 c-24 2 -43 0 -43 -5 0 -5 5 -9 10 -9 6 0 10 -9 10
-20 0 -12 7 -20 16 -20 10 0 14 5 10 16 -3 8 -2 12 4 9 6 -3 10 -1 10 6 0 8
28 10 98 9 53 -2 103 -2 110 -1 17 2 15 41 -3 41 -8 0 -15 7 -15 15 0 9 7 18
15 21 26 10 16 24 -17 25 l-33 2 35 7 c19 4 29 8 23 9 -15 1 -18 41 -3 41 15
0 12 30 -4 36 -15 6 -10 44 5 44 19 0 8 19 -13 23 l-23 4 23 2 c19 1 21 3 10
15 -9 10 -15 11 -20 2 -6 -8 -8 -8 -8 2 0 6 -5 12 -11 12 -6 0 -9 -8 -7 -18z
m-57 -22 c27 -7 27 -8 5 -8 -14 0 -36 4 -50 8 -20 6 -21 8 -5 8 11 0 34 -4 50
-8z m53 -45 c-5 -22 -2 -25 25 -25 42 0 31 -6 -22 -13 -29 -4 -40 -2 -30 4 10
6 5 9 -18 9 -17 0 -34 -6 -36 -12 -3 -8 -6 -6 -6 5 -1 9 -8 17 -17 17 -8 0
-12 -5 -9 -10 4 -6 -5 -5 -19 2 -14 6 -26 19 -26 30 0 16 9 18 81 18 l81 0 -4
-25z m19 -7 c-3 -8 -6 -5 -6 6 -1 11 2 17 5 13 3 -3 4 -12 1 -19z m-190 -5
c-4 -3 -7 0 -7 7 0 7 3 10 7 7 3 -4 3 -10 0 -14z m203 -58 c0 -3 -2 -5 -5 -5
-3 0 -5 2 -5 5 0 3 2 5 5 5 3 0 5 -2 5 -5z m-67 -52 c-7 -2 -21 -2 -30 0 -10
3 -4 5 12 5 17 0 24 -2 18 -5z m44 -29 c3 -9 0 -20 -8 -25 -10 -6 -3 -9 21
-10 31 -1 29 -2 -15 -10 -27 -4 -51 -6 -54 -3 -2 2 4 4 15 4 15 0 16 2 5 9
-16 10 -42 3 -53 -13 -5 -7 -8 -5 -8 5 0 10 -10 15 -35 15 -40 0 -50 7 -42 29
9 23 165 22 174 -1z m-190 -16 c-3 -8 -6 -5 -6 6 -1 11 2 17 5 13 3 -3 4 -12
1 -19z"/>
<path d="M50 310 c0 -5 7 -10 15 -10 8 0 15 5 15 10 0 6 -7 10 -15 10 -8 0
-15 -4 -15 -10z"/>
<path d="M370 310 c0 -5 7 -10 15 -10 8 0 15 5 15 10 0 6 -7 10 -15 10 -8 0
-15 -4 -15 -10z"/>
<path d="M690 310 c0 -5 7 -10 15 -10 8 0 15 5 15 10 0 6 -7 10 -15 10 -8 0
-15 -4 -15 -10z"/>
<path d="M242 142 c5 -17 1 -18 -38 -11 -24 5 -65 6 -91 4 -27 -2 -58 -4 -70
-5 -22 0 -34 -30 -13 -30 6 0 10 -9 10 -20 0 -11 -5 -20 -12 -20 -22 0 2 -13
39 -21 l38 -8 -42 3 c-24 2 -43 0 -43 -5 0 -12 7 -12 123 -9 68 1 97 -1 97 -9
0 -14 30 -10 48 6 16 15 15 32 -2 39 -15 6 -10 44 5 44 19 0 8 19 -13 23 l-23
4 23 2 c19 1 21 3 10 15 -9 10 -15 11 -20 2 -6 -8 -8 -8 -8 2 0 6 -5 12 -11
12 -6 0 -9 -8 -7 -18z m-57 -22 c27 -7 27 -8 5 -8 -14 0 -36 4 -50 8 -20 6
-21 8 -5 8 11 0 34 -4 50 -8z m53 -45 c-5 -22 -2 -25 25 -25 42 0 31 -6 -22
-13 -29 -4 -40 -2 -30 4 10 6 5 9 -18 9 -17 0 -34 -6 -36 -12 -3 -8 -6 -6 -6
5 -1 9 -8 17 -17 17 -8 0 -12 -5 -9 -10 4 -6 -5 -5 -19 2 -14 6 -26 19 -26 30
0 16 9 18 81 18 l81 0 -4 -25z m19 -7 c-3 -8 -6 -5 -6 6 -1 11 2 17 5 13 3 -3
4 -12 1 -19z m-190 -5 c-4 -3 -7 0 -7 7 0 7 3 10 7 7 3 -4 3 -10 0 -14z"/>
<path d="M562 142 c5 -17 1 -18 -38 -11 -24 5 -65 6 -91 4 -27 -2 -58 -4 -70
-5 -22 0 -34 -30 -13 -30 6 0 10 -9 10 -20 0 -11 -5 -20 -12 -20 -22 0 2 -13
39 -21 l38 -8 -42 3 c-24 2 -43 0 -43 -5 0 -12 7 -12 123 -9 68 1 97 -1 97 -9
0 -14 30 -10 48 6 16 15 15 32 -2 39 -15 6 -10 44 5 44 19 0 8 19 -13 23 l-23
4 23 2 c19 1 21 3 10 15 -9 10 -15 11 -20 2 -6 -8 -8 -8 -8 2 0 6 -5 12 -11
12 -6 0 -9 -8 -7 -18z m-57 -22 c27 -7 27 -8 5 -8 -14 0 -36 4 -50 8 -20 6
-21 8 -5 8 11 0 34 -4 50 -8z m53 -45 c-5 -22 -2 -25 25 -25 42 0 31 -6 -22
-13 -29 -4 -40 -2 -30 4 10 6 5 9 -18 9 -17 0 -34 -6 -36 -12 -3 -8 -6 -6 -6
5 -1 9 -8 17 -17 17 -8 0 -12 -5 -9 -10 4 -6 -5 -5 -19 2 -14 6 -26 19 -26 30
0 16 9 18 81 18 l81 0 -4 -25z m19 -7 c-3 -8 -6 -5 -6 6 -1 11 2 17 5 13 3 -3
4 -12 1 -19z m-190 -5 c-4 -3 -7 0 -7 7 0 7 3 10 7 7 3 -4 3 -10 0 -14z"/>
<path d="M882 142 c5 -17 1 -18 -38 -11 -24 5 -65 6 -91 4 -27 -2 -58 -4 -70
-5 -22 0 -34 -30 -13 -30 6 0 10 -9 10 -20 0 -11 -5 -20 -12 -20 -22 0 2 -13
39 -21 l38 -8 -42 3 c-24 2 -43 0 -43 -5 0 -12 7 -12 123 -9 68 1 97 -1 97 -9
0 -14 30 -10 48 6 16 15 15 32 -2 39 -15 6 -10 44 5 44 19 0 8 19 -13 23 l-23
4 23 2 c19 1 21 3 10 15 -9 10 -15 11 -20 2 -6 -8 -8 -8 -8 2 0 6 -5 12 -11
12 -6 0 -9 -8 -7 -18z m-57 -22 c27 -7 27 -8 5 -8 -14 0 -36 4 -50 8 -20 6
-21 8 -5 8 11 0 34 -4 50 -8z m53 -45 c-5 -22 -2 -25 25 -25 42 0 31 -6 -22
-13 -29 -4 -40 -2 -30 4 10 6 5 9 -18 9 -17 0 -34 -6 -36 -12 -3 -8 -6 -6 -6
5 -1 9 -8 17 -17 17 -8 0 -12 -5 -9 -10 4 -6 -5 -5 -19 2 -14 6 -26 19 -26 30
0 16 9 18 81 18 l81 0 -4 -25z m19 -7 c-3 -8 -6 -5 -6 6 -1 11 2 17 5 13 3 -3
4 -12 1 -19z m-190 -5 c-4 -3 -7 0 -7 7 0 7 3 10 7 7 3 -4 3 -10 0 -14z"/>
</g>
<g transform="translate(0.000000,96.000000) scale(0.100000,-0.100000)"
fill="#b4905a" stroke="none">
<path d="M50 950 c0 -7 3 -10 7 -7 3 4 3 10 0 14 -4 3 -7 0 -7 -7z"/>
<path d="M242 945 c-7 -8 -28 -15 -47 -15 -19 0 -37 -4 -40 -10 -3 -5 -22 -10
-41 -10 -21 0 -33 4 -29 10 4 6 -7 10 -27 9 -27 0 -30 -2 -13 -9 18 -8 18 -9
-5 -10 l-25 -1 22 -11 c13 -6 23 -18 24 -27 0 -10 3 -8 9 7 9 20 16 22 90 22
65 0 82 -3 87 -16 3 -9 0 -20 -8 -25 -11 -7 -11 -9 4 -9 10 0 17 7 17 18 0 11
10 24 23 30 19 9 17 11 -23 11 -33 1 -41 4 -30 11 8 5 26 10 40 11 17 1 20 3
7 6 -9 2 -15 9 -12 14 10 15 -9 10 -23 -6z m-39 -32 c-7 -2 -21 -2 -30 0 -10
3 -4 5 12 5 17 0 24 -2 18 -5z"/>
<path d="M370 950 c0 -7 3 -10 7 -7 3 4 3 10 0 14 -4 3 -7 0 -7 -7z"/>
<path d="M562 945 c-7 -8 -28 -15 -47 -15 -19 0 -37 -4 -40 -10 -3 -5 -22 -10
-41 -10 -21 0 -33 4 -29 10 4 6 -7 10 -27 9 -27 0 -30 -2 -13 -9 18 -8 18 -9
-5 -10 l-25 -1 23 -11 c12 -6 22 -18 23 -27 0 -10 3 -8 9 7 9 20 16 22 90 22
65 0 82 -3 87 -16 3 -9 0 -20 -8 -25 -11 -7 -11 -9 4 -9 10 0 17 7 17 18 0 11
10 24 23 30 19 9 17 11 -23 11 -33 1 -41 4 -30 11 8 5 26 10 40 11 17 1 20 3
7 6 -9 2 -15 9 -12 14 10 15 -9 10 -23 -6z m-39 -32 c-7 -2 -21 -2 -30 0 -10
3 -4 5 12 5 17 0 24 -2 18 -5z"/>
<path d="M690 950 c0 -7 3 -10 7 -7 3 4 3 10 0 14 -4 3 -7 0 -7 -7z"/>
<path d="M882 945 c-7 -8 -28 -15 -47 -15 -19 0 -37 -4 -40 -10 -3 -5 -22 -10
-41 -10 -21 0 -33 4 -29 10 4 6 -7 10 -27 9 -27 0 -30 -2 -13 -9 18 -8 18 -9
-5 -10 l-25 -1 23 -11 c12 -6 22 -18 23 -27 0 -10 3 -8 9 7 9 20 16 22 90 22
65 0 82 -3 87 -16 3 -9 0 -20 -8 -25 -11 -7 -11 -9 4 -9 10 0 17 7 17 18 0 11
10 24 23 30 19 9 17 11 -23 11 -33 1 -41 4 -30 11 8 5 26 10 40 11 17 1 20 3
7 6 -9 2 -15 9 -12 14 10 15 -9 10 -23 -6z m-39 -32 c-7 -2 -21 -2 -30 0 -10
3 -4 5 12 5 17 0 24 -2 18 -5z"/>
<path d="M113 933 c4 -3 10 -3 14 0 3 4 0 7 -7 7 -7 0 -10 -3 -7 -7z"/>
<path d="M433 933 c4 -3 10 -3 14 0 3 4 0 7 -7 7 -7 0 -10 -3 -7 -7z"/>
<path d="M753 933 c4 -3 10 -3 14 0 3 4 0 7 -7 7 -7 0 -10 -3 -7 -7z"/>
<path d="M90 855 c0 -3 2 -5 5 -5 3 0 5 2 5 5 0 3 -2 5 -5 5 -3 0 -5 -2 -5 -5z"/>
<path d="M133 853 c4 -3 10 -3 14 0 3 4 0 7 -7 7 -7 0 -10 -3 -7 -7z"/>
<path d="M185 851 c-3 -5 5 -12 17 -15 13 -2 -4 -4 -37 -3 -33 0 -80 0 -104
-1 -40 -2 -43 -3 -26 -15 10 -8 15 -19 11 -25 -4 -7 -1 -12 9 -12 11 0 15 5
11 15 -8 22 32 29 129 23 45 -3 89 -2 96 3 10 6 6 9 -14 9 -15 0 -41 7 -57 15
-16 9 -31 11 -35 6z"/>
<path d="M410 855 c0 -3 2 -5 5 -5 3 0 5 2 5 5 0 3 -2 5 -5 5 -3 0 -5 -2 -5
-5z"/>
<path d="M453 853 c4 -3 10 -3 14 0 3 4 0 7 -7 7 -7 0 -10 -3 -7 -7z"/>
<path d="M505 851 c-3 -5 5 -12 17 -15 13 -2 -4 -4 -37 -3 -33 0 -80 0 -104
-1 -40 -2 -43 -3 -26 -15 10 -8 15 -19 11 -25 -4 -7 -1 -12 9 -12 11 0 15 5
11 15 -8 22 32 29 129 23 45 -3 89 -2 96 3 10 6 6 9 -14 9 -15 0 -41 7 -57 15
-16 9 -31 11 -35 6z"/>
<path d="M730 855 c0 -3 2 -5 5 -5 3 0 5 2 5 5 0 3 -2 5 -5 5 -3 0 -5 -2 -5
-5z"/>
<path d="M773 853 c4 -3 10 -3 14 0 3 4 0 7 -7 7 -7 0 -10 -3 -7 -7z"/>
<path d="M825 851 c-3 -5 5 -12 17 -15 13 -2 -4 -4 -37 -3 -33 0 -80 0 -104
-1 -40 -2 -43 -3 -26 -15 10 -8 15 -19 11 -25 -4 -7 -1 -12 9 -12 11 0 15 5
11 15 -8 22 32 29 129 23 45 -3 89 -2 96 3 10 6 6 9 -14 9 -15 0 -41 7 -57 15
-16 9 -31 11 -35 6z"/>
<path d="M50 845 c0 -3 2 -5 5 -5 3 0 5 2 5 5 0 3 -2 5 -5 5 -3 0 -5 -2 -5 -5z"/>
<path d="M290 845 c0 -3 2 -5 5 -5 3 0 5 2 5 5 0 3 -2 5 -5 5 -3 0 -5 -2 -5
-5z"/>
<path d="M370 845 c0 -3 2 -5 5 -5 3 0 5 2 5 5 0 3 -2 5 -5 5 -3 0 -5 -2 -5
-5z"/>
<path d="M610 845 c0 -3 2 -5 5 -5 3 0 5 2 5 5 0 3 -2 5 -5 5 -3 0 -5 -2 -5
-5z"/>
<path d="M690 845 c0 -3 2 -5 5 -5 3 0 5 2 5 5 0 3 -2 5 -5 5 -3 0 -5 -2 -5
-5z"/>
<path d="M930 845 c0 -3 2 -5 5 -5 3 0 5 2 5 5 0 3 -2 5 -5 5 -3 0 -5 -2 -5
-5z"/>
<path d="M45 771 c-30 -4 -30 -4 -5 -11 l25 -8 -25 -1 -24 -1 23 -16 c17 -12
26 -13 34 -5 14 14 167 15 167 0 0 -5 5 -7 10 -4 5 3 10 -1 10 -9 0 -8 -8 -17
-17 -19 -17 -4 -17 -5 0 -6 10 -1 21 9 27 23 5 13 15 26 22 29 7 3 -7 6 -31 6
-48 1 -50 9 -5 17 16 3 30 6 31 8 4 4 -209 1 -242 -3z m140 -11 c22 -6 12 -8
-40 -8 -49 0 -62 2 -45 8 31 10 46 10 85 0z"/>
<path d="M365 771 c-30 -4 -30 -4 -5 -11 l25 -8 -25 -1 -24 -1 23 -16 c17 -12
26 -13 34 -5 14 14 167 15 167 0 0 -5 5 -7 10 -4 6 3 10 -1 10 -9 0 -8 -8 -17
-17 -19 -17 -4 -17 -5 0 -6 10 -1 21 9 27 23 5 13 15 26 22 29 7 3 -7 6 -31 6
-48 1 -50 9 -5 17 16 3 30 6 31 8 4 4 -209 1 -242 -3z m140 -11 c22 -6 12 -8
-40 -8 -49 0 -62 2 -45 8 31 10 46 10 85 0z"/>
<path d="M685 771 c-30 -4 -30 -4 -5 -11 l25 -8 -25 -1 -24 -1 23 -16 c17 -12
26 -13 34 -5 14 14 167 15 167 0 0 -5 5 -7 10 -4 6 3 10 -1 10 -9 0 -8 -8 -17
-17 -19 -17 -4 -17 -5 0 -6 10 -1 21 9 27 23 5 13 15 26 22 29 7 3 -7 6 -31 6
-48 1 -50 9 -5 17 16 3 30 6 31 8 4 4 -209 1 -242 -3z m140 -11 c22 -6 12 -8
-40 -8 -49 0 -62 2 -45 8 31 10 46 10 85 0z"/>
<path d="M40 695 c0 -3 2 -5 5 -5 3 0 5 2 5 5 0 3 -2 5 -5 5 -3 0 -5 -2 -5 -5z"/>
<path d="M128 693 c7 -3 16 -2 19 1 4 3 -2 6 -13 5 -11 0 -14 -3 -6 -6z"/>
<path d="M285 690 c3 -5 8 -10 11 -10 3 0 2 5 -1 10 -3 6 -8 10 -11 10 -3 0
-2 -4 1 -10z"/>
<path d="M360 695 c0 -3 2 -5 5 -5 3 0 5 2 5 5 0 3 -2 5 -5 5 -3 0 -5 -2 -5
-5z"/>
<path d="M448 693 c7 -3 16 -2 19 1 4 3 -2 6 -13 5 -11 0 -14 -3 -6 -6z"/>
<path d="M605 690 c3 -5 8 -10 11 -10 3 0 2 5 -1 10 -3 6 -8 10 -11 10 -3 0
-2 -4 1 -10z"/>
<path d="M680 695 c0 -3 2 -5 5 -5 3 0 5 2 5 5 0 3 -2 5 -5 5 -3 0 -5 -2 -5
-5z"/>
<path d="M768 693 c7 -3 16 -2 19 1 4 3 -2 6 -13 5 -11 0 -14 -3 -6 -6z"/>
<path d="M925 690 c3 -5 8 -10 11 -10 3 0 2 5 -1 10 -3 6 -8 10 -11 10 -3 0
-2 -4 1 -10z"/>
<path d="M68 683 c6 -2 18 -2 25 0 6 3 1 5 -13 5 -14 0 -19 -2 -12 -5z"/>
<path d="M200 680 c21 -8 19 -9 -20 -8 -100 2 -165 -3 -152 -11 7 -4 58 -6
112 -3 88 4 100 3 106 -13 9 -22 -11 -35 -53 -35 -17 0 -35 -4 -38 -10 -3 -5
-22 -10 -41 -10 -21 0 -33 4 -29 10 4 6 -7 10 -27 9 -27 0 -30 -2 -13 -9 18
-8 18 -9 -5 -10 l-25 -1 23 -11 c12 -6 22 -18 23 -27 0 -10 3 -8 9 7 9 20 16
22 90 22 65 0 82 -3 87 -16 3 -9 0 -20 -8 -25 -11 -7 -11 -9 4 -9 10 0 17 7
17 18 0 11 10 24 23 30 19 9 17 11 -23 11 -33 1 -41 4 -30 11 8 5 26 10 40 11
17 0 20 3 10 7 -23 11 -22 30 3 38 20 7 19 9 -13 15 -19 5 -48 10 -65 13 -28
5 -28 5 -5 -4z m3 -87 c-7 -2 -21 -2 -30 0 -10 3 -4 5 12 5 17 0 24 -2 18 -5z"/>
<path d="M388 683 c6 -2 18 -2 25 0 6 3 1 5 -13 5 -14 0 -19 -2 -12 -5z"/>
<path d="M520 680 c21 -8 19 -9 -20 -8 -100 2 -165 -3 -152 -11 7 -4 58 -6
112 -3 88 4 100 3 106 -13 9 -22 -11 -35 -53 -35 -17 0 -35 -4 -38 -10 -3 -5
-22 -10 -41 -10 -21 0 -33 4 -29 10 4 6 -7 10 -27 9 -27 0 -30 -2 -13 -9 18
-8 18 -9 -5 -10 l-25 -1 23 -11 c12 -6 22 -18 23 -27 0 -10 3 -8 9 7 9 20 16
22 90 22 65 0 82 -3 87 -16 3 -9 0 -20 -8 -25 -11 -7 -11 -9 4 -9 10 0 17 7
17 18 0 11 10 24 23 30 19 9 17 11 -23 11 -33 1 -41 4 -30 11 8 5 26 10 40 11
17 0 20 3 10 7 -23 11 -22 30 3 38 20 7 19 9 -13 15 -19 5 -48 10 -65 13 -28
5 -28 5 -5 -4z m3 -87 c-7 -2 -21 -2 -30 0 -10 3 -4 5 12 5 17 0 24 -2 18 -5z"/>
<path d="M708 683 c6 -2 18 -2 25 0 6 3 1 5 -13 5 -14 0 -19 -2 -12 -5z"/>
<path d="M840 680 c21 -8 19 -9 -20 -8 -100 2 -165 -3 -152 -11 7 -4 58 -6
112 -3 88 4 100 3 106 -13 9 -22 -11 -35 -53 -35 -17 0 -35 -4 -38 -10 -3 -5
-22 -10 -41 -10 -21 0 -33 4 -29 10 4 6 -7 10 -27 9 -27 0 -30 -2 -13 -9 18
-8 18 -9 -5 -10 l-25 -1 23 -11 c12 -6 22 -18 23 -27 0 -10 3 -8 9 7 9 20 16
22 90 22 65 0 82 -3 87 -16 3 -9 0 -20 -8 -25 -11 -7 -11 -9 4 -9 10 0 17 7
17 18 0 11 10 24 23 30 19 9 17 11 -23 11 -33 1 -41 4 -30 11 8 5 26 10 40 11
17 0 20 3 10 7 -23 11 -22 30 3 38 20 7 19 9 -13 15 -19 5 -48 10 -65 13 -28
5 -28 5 -5 -4z m3 -87 c-7 -2 -21 -2 -30 0 -10 3 -4 5 12 5 17 0 24 -2 18 -5z"/>
<path d="M50 630 c0 -7 3 -10 7 -7 3 4 3 10 0 14 -4 3 -7 0 -7 -7z"/>
<path d="M370 630 c0 -7 3 -10 7 -7 3 4 3 10 0 14 -4 3 -7 0 -7 -7z"/>
<path d="M690 630 c0 -7 3 -10 7 -7 3 4 3 10 0 14 -4 3 -7 0 -7 -7z"/>
<path d="M113 613 c4 -3 10 -3 14 0 3 4 0 7 -7 7 -7 0 -10 -3 -7 -7z"/>
<path d="M433 613 c4 -3 10 -3 14 0 3 4 0 7 -7 7 -7 0 -10 -3 -7 -7z"/>
<path d="M753 613 c4 -3 10 -3 14 0 3 4 0 7 -7 7 -7 0 -10 -3 -7 -7z"/>
<path d="M90 535 c0 -3 2 -5 5 -5 3 0 5 2 5 5 0 3 -2 5 -5 5 -3 0 -5 -2 -5 -5z"/>
<path d="M133 533 c4 -3 10 -3 14 0 3 4 0 7 -7 7 -7 0 -10 -3 -7 -7z"/>
<path d="M185 531 c-3 -5 5 -12 17 -15 13 -2 -4 -4 -37 -3 -33 0 -80 0 -104
-1 -40 -2 -43 -3 -26 -15 10 -8 15 -19 11 -25 -4 -7 -1 -12 9 -12 11 0 15 5
11 15 -8 22 32 29 129 23 45 -3 89 -2 96 3 10 6 6 9 -14 9 -15 0 -41 7 -57 15
-16 9 -31 11 -35 6z"/>
<path d="M410 535 c0 -3 2 -5 5 -5 3 0 5 2 5 5 0 3 -2 5 -5 5 -3 0 -5 -2 -5
-5z"/>
<path d="M453 533 c4 -3 10 -3 14 0 3 4 0 7 -7 7 -7 0 -10 -3 -7 -7z"/>
<path d="M505 531 c-3 -5 5 -12 17 -15 13 -2 -4 -4 -37 -3 -33 0 -80 0 -104
-1 -40 -2 -43 -3 -26 -15 10 -8 15 -19 11 -25 -4 -7 -1 -12 9 -12 11 0 15 5
11 15 -8 22 32 29 129 23 45 -3 89 -2 96 3 10 6 6 9 -14 9 -15 0 -41 7 -57 15
-16 9 -31 11 -35 6z"/>
<path d="M730 535 c0 -3 2 -5 5 -5 3 0 5 2 5 5 0 3 -2 5 -5 5 -3 0 -5 -2 -5
-5z"/>
<path d="M773 533 c4 -3 10 -3 14 0 3 4 0 7 -7 7 -7 0 -10 -3 -7 -7z"/>
<path d="M825 531 c-3 -5 5 -12 17 -15 13 -2 -4 -4 -37 -3 -33 0 -80 0 -104
-1 -40 -2 -43 -3 -26 -15 10 -8 15 -19 11 -25 -4 -7 -1 -12 9 -12 11 0 15 5
11 15 -8 22 32 29 129 23 45 -3 89 -2 96 3 10 6 6 9 -14 9 -15 0 -41 7 -57 15
-16 9 -31 11 -35 6z"/>
<path d="M50 525 c0 -3 2 -5 5 -5 3 0 5 2 5 5 0 3 -2 5 -5 5 -3 0 -5 -2 -5 -5z"/>
<path d="M290 525 c0 -3 2 -5 5 -5 3 0 5 2 5 5 0 3 -2 5 -5 5 -3 0 -5 -2 -5
-5z"/>
<path d="M370 525 c0 -3 2 -5 5 -5 3 0 5 2 5 5 0 3 -2 5 -5 5 -3 0 -5 -2 -5
-5z"/>
<path d="M610 525 c0 -3 2 -5 5 -5 3 0 5 2 5 5 0 3 -2 5 -5 5 -3 0 -5 -2 -5
-5z"/>
<path d="M690 525 c0 -3 2 -5 5 -5 3 0 5 2 5 5 0 3 -2 5 -5 5 -3 0 -5 -2 -5
-5z"/>
<path d="M930 525 c0 -3 2 -5 5 -5 3 0 5 2 5 5 0 3 -2 5 -5 5 -3 0 -5 -2 -5
-5z"/>
<path d="M45 451 c-30 -4 -30 -4 -5 -11 l25 -8 -25 -1 -24 -1 23 -16 c17 -12
26 -13 34 -5 14 14 167 15 167 0 0 -5 5 -7 10 -4 5 3 10 -1 10 -9 0 -8 -8 -17
-17 -19 -17 -4 -17 -5 0 -6 10 -1 21 9 27 23 5 13 15 26 22 29 7 3 -7 6 -31 6
-48 1 -50 9 -5 17 16 3 30 6 31 8 4 4 -209 1 -242 -3z m140 -11 c22 -6 12 -8
-40 -8 -49 0 -62 2 -45 8 31 10 46 10 85 0z"/>
<path d="M365 451 c-30 -4 -30 -4 -5 -11 l25 -8 -25 -1 -24 -1 23 -16 c17 -12
26 -13 34 -5 14 14 167 15 167 0 0 -5 5 -7 10 -4 6 3 10 -1 10 -9 0 -8 -8 -17
-17 -19 -17 -4 -17 -5 0 -6 10 -1 21 9 27 23 5 13 15 26 22 29 7 3 -7 6 -31 6
-48 1 -50 9 -5 17 16 3 30 6 31 8 4 4 -209 1 -242 -3z m140 -11 c22 -6 12 -8
-40 -8 -49 0 -62 2 -45 8 31 10 46 10 85 0z"/>
<path d="M685 451 c-30 -4 -30 -4 -5 -11 l25 -8 -25 -1 -24 -1 23 -16 c17 -12
26 -13 34 -5 14 14 167 15 167 0 0 -5 5 -7 10 -4 6 3 10 -1 10 -9 0 -8 -8 -17
-17 -19 -17 -4 -17 -5 0 -6 10 -1 21 9 27 23 5 13 15 26 22 29 7 3 -7 6 -31 6
-48 1 -50 9 -5 17 16 3 30 6 31 8 4 4 -209 1 -242 -3z m140 -11 c22 -6 12 -8
-40 -8 -49 0 -62 2 -45 8 31 10 46 10 85 0z"/>
<path d="M40 375 c0 -3 2 -5 5 -5 3 0 5 2 5 5 0 3 -2 5 -5 5 -3 0 -5 -2 -5 -5z"/>
<path d="M128 373 c7 -3 16 -2 19 1 4 3 -2 6 -13 5 -11 0 -14 -3 -6 -6z"/>
<path d="M285 370 c3 -5 8 -10 11 -10 3 0 2 5 -1 10 -3 6 -8 10 -11 10 -3 0
-2 -4 1 -10z"/>
<path d="M360 375 c0 -3 2 -5 5 -5 3 0 5 2 5 5 0 3 -2 5 -5 5 -3 0 -5 -2 -5
-5z"/>
<path d="M448 373 c7 -3 16 -2 19 1 4 3 -2 6 -13 5 -11 0 -14 -3 -6 -6z"/>
<path d="M605 370 c3 -5 8 -10 11 -10 3 0 2 5 -1 10 -3 6 -8 10 -11 10 -3 0
-2 -4 1 -10z"/>
<path d="M680 375 c0 -3 2 -5 5 -5 3 0 5 2 5 5 0 3 -2 5 -5 5 -3 0 -5 -2 -5
-5z"/>
<path d="M768 373 c7 -3 16 -2 19 1 4 3 -2 6 -13 5 -11 0 -14 -3 -6 -6z"/>
<path d="M925 370 c3 -5 8 -10 11 -10 3 0 2 5 -1 10 -3 6 -8 10 -11 10 -3 0
-2 -4 1 -10z"/>
<path d="M68 363 c6 -2 18 -2 25 0 6 3 1 5 -13 5 -14 0 -19 -2 -12 -5z"/>
<path d="M200 360 c21 -8 19 -9 -20 -8 -100 2 -165 -3 -152 -11 7 -4 58 -6
112 -3 88 4 100 3 106 -13 9 -22 -11 -35 -53 -35 -17 0 -35 -4 -38 -10 -3 -5
-22 -10 -41 -10 -21 0 -33 4 -29 10 4 6 -7 10 -27 9 -27 0 -30 -2 -13 -9 18
-8 18 -9 -5 -10 l-25 -1 23 -11 c12 -6 22 -18 23 -27 0 -10 3 -8 9 7 9 20 16
22 90 22 65 0 82 -3 87 -16 3 -9 0 -20 -8 -25 -11 -7 -11 -9 4 -9 10 0 17 7
17 18 0 11 10 24 23 30 19 9 17 11 -23 11 -33 1 -41 4 -30 11 8 5 26 10 40 11
17 0 20 3 10 7 -23 11 -22 30 3 38 20 7 19 9 -13 15 -19 5 -48 10 -65 13 -28
5 -28 5 -5 -4z m3 -87 c-7 -2 -21 -2 -30 0 -10 3 -4 5 12 5 17 0 24 -2 18 -5z"/>
<path d="M388 363 c6 -2 18 -2 25 0 6 3 1 5 -13 5 -14 0 -19 -2 -12 -5z"/>
<path d="M520 360 c21 -8 19 -9 -20 -8 -100 2 -165 -3 -152 -11 7 -4 58 -6
112 -3 88 4 100 3 106 -13 9 -22 -11 -35 -53 -35 -17 0 -35 -4 -38 -10 -3 -5
-22 -10 -41 -10 -21 0 -33 4 -29 10 4 6 -7 10 -27 9 -27 0 -30 -2 -13 -9 18
-8 18 -9 -5 -10 l-25 -1 23 -11 c12 -6 22 -18 23 -27 0 -10 3 -8 9 7 9 20 16
22 90 22 65 0 82 -3 87 -16 3 -9 0 -20 -8 -25 -11 -7 -11 -9 4 -9 10 0 17 7
17 18 0 11 10 24 23 30 19 9 17 11 -23 11 -33 1 -41 4 -30 11 8 5 26 10 40 11
17 0 20 3 10 7 -23 11 -22 30 3 38 20 7 19 9 -13 15 -19 5 -48 10 -65 13 -28
5 -28 5 -5 -4z m3 -87 c-7 -2 -21 -2 -30 0 -10 3 -4 5 12 5 17 0 24 -2 18 -5z"/>
<path d="M708 363 c6 -2 18 -2 25 0 6 3 1 5 -13 5 -14 0 -19 -2 -12 -5z"/>
<path d="M840 360 c21 -8 19 -9 -20 -8 -100 2 -165 -3 -152 -11 7 -4 58 -6
112 -3 88 4 100 3 106 -13 9 -22 -11 -35 -53 -35 -17 0 -35 -4 -38 -10 -3 -5
-22 -10 -41 -10 -21 0 -33 4 -29 10 4 6 -7 10 -27 9 -27 0 -30 -2 -13 -9 18
-8 18 -9 -5 -10 l-25 -1 23 -11 c12 -6 22 -18 23 -27 0 -10 3 -8 9 7 9 20 16
22 90 22 65 0 82 -3 87 -16 3 -9 0 -20 -8 -25 -11 -7 -11 -9 4 -9 10 0 17 7
17 18 0 11 10 24 23 30 19 9 17 11 -23 11 -33 1 -41 4 -30 11 8 5 26 10 40 11
17 0 20 3 10 7 -23 11 -22 30 3 38 20 7 19 9 -13 15 -19 5 -48 10 -65 13 -28
5 -28 5 -5 -4z m3 -87 c-7 -2 -21 -2 -30 0 -10 3 -4 5 12 5 17 0 24 -2 18 -5z"/>
<path d="M50 310 c0 -7 3 -10 7 -7 3 4 3 10 0 14 -4 3 -7 0 -7 -7z"/>
<path d="M370 310 c0 -7 3 -10 7 -7 3 4 3 10 0 14 -4 3 -7 0 -7 -7z"/>
<path d="M690 310 c0 -7 3 -10 7 -7 3 4 3 10 0 14 -4 3 -7 0 -7 -7z"/>
<path d="M113 293 c4 -3 10 -3 14 0 3 4 0 7 -7 7 -7 0 -10 -3 -7 -7z"/>
<path d="M433 293 c4 -3 10 -3 14 0 3 4 0 7 -7 7 -7 0 -10 -3 -7 -7z"/>
<path d="M753 293 c4 -3 10 -3 14 0 3 4 0 7 -7 7 -7 0 -10 -3 -7 -7z"/>
<path d="M90 215 c0 -3 2 -5 5 -5 3 0 5 2 5 5 0 3 -2 5 -5 5 -3 0 -5 -2 -5 -5z"/>
<path d="M133 213 c4 -3 10 -3 14 0 3 4 0 7 -7 7 -7 0 -10 -3 -7 -7z"/>
<path d="M185 211 c-3 -5 5 -12 17 -15 13 -2 -4 -4 -37 -3 -33 0 -80 0 -104
-1 -40 -2 -43 -3 -26 -15 10 -8 15 -19 11 -25 -4 -7 -1 -12 9 -12 11 0 15 5
11 15 -8 22 32 29 129 23 45 -3 89 -2 96 3 10 6 6 9 -14 9 -15 0 -41 7 -57 15
-16 9 -31 11 -35 6z"/>
<path d="M410 215 c0 -3 2 -5 5 -5 3 0 5 2 5 5 0 3 -2 5 -5 5 -3 0 -5 -2 -5
-5z"/>
<path d="M453 213 c4 -3 10 -3 14 0 3 4 0 7 -7 7 -7 0 -10 -3 -7 -7z"/>
<path d="M505 211 c-3 -5 5 -12 17 -15 13 -2 -4 -4 -37 -3 -33 0 -80 0 -104
-1 -40 -2 -43 -3 -26 -15 10 -8 15 -19 11 -25 -4 -7 -1 -12 9 -12 11 0 15 5
11 15 -8 22 32 29 129 23 45 -3 89 -2 96 3 10 6 6 9 -14 9 -15 0 -41 7 -57 15
-16 9 -31 11 -35 6z"/>
<path d="M730 215 c0 -3 2 -5 5 -5 3 0 5 2 5 5 0 3 -2 5 -5 5 -3 0 -5 -2 -5
-5z"/>
<path d="M773 213 c4 -3 10 -3 14 0 3 4 0 7 -7 7 -7 0 -10 -3 -7 -7z"/>
<path d="M825 211 c-3 -5 5 -12 17 -15 13 -2 -4 -4 -37 -3 -33 0 -80 0 -104
-1 -40 -2 -43 -3 -26 -15 10 -8 15 -19 11 -25 -4 -7 -1 -12 9 -12 11 0 15 5
11 15 -8 22 32 29 129 23 45 -3 89 -2 96 3 10 6 6 9 -14 9 -15 0 -41 7 -57 15
-16 9 -31 11 -35 6z"/>
<path d="M50 205 c0 -3 2 -5 5 -5 3 0 5 2 5 5 0 3 -2 5 -5 5 -3 0 -5 -2 -5 -5z"/>
<path d="M290 205 c0 -3 2 -5 5 -5 3 0 5 2 5 5 0 3 -2 5 -5 5 -3 0 -5 -2 -5
-5z"/>
<path d="M370 205 c0 -3 2 -5 5 -5 3 0 5 2 5 5 0 3 -2 5 -5 5 -3 0 -5 -2 -5
-5z"/>
<path d="M610 205 c0 -3 2 -5 5 -5 3 0 5 2 5 5 0 3 -2 5 -5 5 -3 0 -5 -2 -5
-5z"/>
<path d="M690 205 c0 -3 2 -5 5 -5 3 0 5 2 5 5 0 3 -2 5 -5 5 -3 0 -5 -2 -5
-5z"/>
<path d="M930 205 c0 -3 2 -5 5 -5 3 0 5 2 5 5 0 3 -2 5 -5 5 -3 0 -5 -2 -5
-5z"/>
<path d="M45 131 c-30 -4 -30 -4 -5 -11 l25 -8 -25 -1 -24 -1 23 -16 c17 -12
26 -13 34 -5 14 14 167 15 167 0 0 -5 5 -7 10 -4 5 3 10 -1 10 -9 0 -8 -8 -17
-17 -19 -17 -4 -17 -5 0 -6 10 -1 21 9 27 23 5 13 15 26 22 29 7 3 -7 6 -31 6
-48 1 -50 9 -5 17 16 3 30 6 31 8 4 4 -209 1 -242 -3z m140 -11 c22 -6 12 -8
-40 -8 -49 0 -62 2 -45 8 31 10 46 10 85 0z"/>
<path d="M365 131 c-30 -4 -30 -4 -5 -11 l25 -8 -25 -1 -24 -1 23 -16 c17 -12
26 -13 34 -5 14 14 167 15 167 0 0 -5 5 -7 10 -4 6 3 10 -1 10 -9 0 -8 -8 -17
-17 -19 -17 -4 -17 -5 0 -6 10 -1 21 9 27 23 5 13 15 26 22 29 7 3 -7 6 -31 6
-48 1 -50 9 -5 17 16 3 30 6 31 8 4 4 -209 1 -242 -3z m140 -11 c22 -6 12 -8
-40 -8 -49 0 -62 2 -45 8 31 10 46 10 85 0z"/>
<path d="M685 131 c-30 -4 -30 -4 -5 -11 l25 -8 -25 -1 -24 -1 23 -16 c17 -12
26 -13 34 -5 14 14 167 15 167 0 0 -5 5 -7 10 -4 6 3 10 -1 10 -9 0 -8 -8 -17
-17 -19 -17 -4 -17 -5 0 -6 10 -1 21 9 27 23 5 13 15 26 22 29 7 3 -7 6 -31 6
-48 1 -50 9 -5 17 16 3 30 6 31 8 4 4 -209 1 -242 -3z m140 -11 c22 -6 12 -8
-40 -8 -49 0 -62 2 -45 8 31 10 46 10 85 0z"/>
<path d="M40 55 c0 -3 2 -5 5 -5 3 0 5 2 5 5 0 3 -2 5 -5 5 -3 0 -5 -2 -5 -5z"/>
<path d="M128 53 c7 -3 16 -2 19 1 4 3 -2 6 -13 5 -11 0 -14 -3 -6 -6z"/>
<path d="M285 50 c3 -5 8 -10 11 -10 3 0 2 5 -1 10 -3 6 -8 10 -11 10 -3 0 -2
-4 1 -10z"/>
<path d="M360 55 c0 -3 2 -5 5 -5 3 0 5 2 5 5 0 3 -2 5 -5 5 -3 0 -5 -2 -5 -5z"/>
<path d="M448 53 c7 -3 16 -2 19 1 4 3 -2 6 -13 5 -11 0 -14 -3 -6 -6z"/>
<path d="M605 50 c3 -5 8 -10 11 -10 3 0 2 5 -1 10 -3 6 -8 10 -11 10 -3 0 -2
-4 1 -10z"/>
<path d="M680 55 c0 -3 2 -5 5 -5 3 0 5 2 5 5 0 3 -2 5 -5 5 -3 0 -5 -2 -5 -5z"/>
<path d="M768 53 c7 -3 16 -2 19 1 4 3 -2 6 -13 5 -11 0 -14 -3 -6 -6z"/>
<path d="M925 50 c3 -5 8 -10 11 -10 3 0 2 5 -1 10 -3 6 -8 10 -11 10 -3 0 -2
-4 1 -10z"/>
<path d="M68 43 c6 -2 18 -2 25 0 6 3 1 5 -13 5 -14 0 -19 -2 -12 -5z"/>
<path d="M200 40 c21 -8 19 -9 -20 -8 -101 2 -165 -3 -152 -11 8 -4 56 -6 108
-3 58 3 98 1 106 -6 9 -7 20 -7 37 3 l24 12 -34 6 c-19 3 -47 8 -64 11 -28 5
-28 5 -5 -4z"/>
<path d="M388 43 c6 -2 18 -2 25 0 6 3 1 5 -13 5 -14 0 -19 -2 -12 -5z"/>
<path d="M520 40 c21 -8 19 -9 -20 -8 -101 2 -165 -3 -152 -11 8 -4 56 -6 108
-3 58 3 98 1 106 -6 9 -7 20 -7 37 3 l24 12 -34 6 c-19 3 -47 8 -64 11 -28 5
-28 5 -5 -4z"/>
<path d="M708 43 c6 -2 18 -2 25 0 6 3 1 5 -13 5 -14 0 -19 -2 -12 -5z"/>
<path d="M840 40 c21 -8 19 -9 -20 -8 -101 2 -165 -3 -152 -11 8 -4 56 -6 108
-3 58 3 98 1 106 -6 9 -7 20 -7 37 3 l24 12 -34 6 c-19 3 -47 8 -64 11 -28 5
-28 5 -5 -4z"/>
</g>
<g transform="translate(0.000000,96.000000) scale(0.100000,-0.100000)"
fill="#695433" stroke="none">
<path d="M230 935 c0 -3 2 -5 5 -5 3 0 5 2 5 5 0 3 -2 5 -5 5 -3 0 -5 -2 -5
-5z"/>
<path d="M550 935 c0 -3 2 -5 5 -5 3 0 5 2 5 5 0 3 -2 5 -5 5 -3 0 -5 -2 -5
-5z"/>
<path d="M870 935 c0 -3 2 -5 5 -5 3 0 5 2 5 5 0 3 -2 5 -5 5 -3 0 -5 -2 -5
-5z"/>
<path d="M50 925 c0 -3 2 -5 5 -5 3 0 5 2 5 5 0 3 -2 5 -5 5 -3 0 -5 -2 -5 -5z"/>
<path d="M370 925 c0 -3 2 -5 5 -5 3 0 5 2 5 5 0 3 -2 5 -5 5 -3 0 -5 -2 -5
-5z"/>
<path d="M690 925 c0 -3 2 -5 5 -5 3 0 5 2 5 5 0 3 -2 5 -5 5 -3 0 -5 -2 -5
-5z"/>
<path d="M115 909 c-55 -3 -93 -6 -85 -8 28 -5 260 -4 266 1 9 10 -77 13 -181
7z"/>
<path d="M435 909 c-55 -3 -93 -6 -85 -8 28 -5 260 -4 266 1 9 10 -77 13 -181
7z"/>
<path d="M755 909 c-55 -3 -93 -6 -85 -8 28 -5 260 -4 266 1 9 10 -77 13 -181
7z"/>
<path d="M190 855 c0 -3 2 -5 5 -5 3 0 5 2 5 5 0 3 -2 5 -5 5 -3 0 -5 -2 -5
-5z"/>
<path d="M510 855 c0 -3 2 -5 5 -5 3 0 5 2 5 5 0 3 -2 5 -5 5 -3 0 -5 -2 -5
-5z"/>
<path d="M830 855 c0 -3 2 -5 5 -5 3 0 5 2 5 5 0 3 -2 5 -5 5 -3 0 -5 -2 -5
-5z"/>
<path d="M50 845 c0 -3 2 -5 5 -5 3 0 5 2 5 5 0 3 -2 5 -5 5 -3 0 -5 -2 -5 -5z"/>
<path d="M370 845 c0 -3 2 -5 5 -5 3 0 5 2 5 5 0 3 -2 5 -5 5 -3 0 -5 -2 -5
-5z"/>
<path d="M690 845 c0 -3 2 -5 5 -5 3 0 5 2 5 5 0 3 -2 5 -5 5 -3 0 -5 -2 -5
-5z"/>
<path d="M23 824 c9 -9 256 -11 270 -2 7 4 -53 8 -132 8 -79 0 -141 -3 -138
-6z"/>
<path d="M343 824 c9 -9 256 -11 270 -2 7 4 -53 8 -132 8 -79 0 -141 -3 -138
-6z"/>
<path d="M663 824 c9 -9 256 -11 270 -2 7 4 -53 8 -132 8 -79 0 -141 -3 -138
-6z"/>
<path d="M70 775 c0 -3 2 -5 5 -5 3 0 5 2 5 5 0 3 -2 5 -5 5 -3 0 -5 -2 -5 -5z"/>
<path d="M390 775 c0 -3 2 -5 5 -5 3 0 5 2 5 5 0 3 -2 5 -5 5 -3 0 -5 -2 -5
-5z"/>
<path d="M710 775 c0 -3 2 -5 5 -5 3 0 5 2 5 5 0 3 -2 5 -5 5 -3 0 -5 -2 -5
-5z"/>
<path d="M250 765 c0 -3 2 -5 5 -5 3 0 5 2 5 5 0 3 -2 5 -5 5 -3 0 -5 -2 -5
-5z"/>
<path d="M570 765 c0 -3 2 -5 5 -5 3 0 5 2 5 5 0 3 -2 5 -5 5 -3 0 -5 -2 -5
-5z"/>
<path d="M890 765 c0 -3 2 -5 5 -5 3 0 5 2 5 5 0 3 -2 5 -5 5 -3 0 -5 -2 -5
-5z"/>
<path d="M40 735 c18 -9 29 -10 38 -3 8 7 48 9 106 6 52 -3 100 -1 108 3 7 5
-50 9 -132 8 -129 0 -142 -1 -120 -14z"/>
<path d="M360 735 c18 -9 29 -10 38 -3 8 7 48 9 106 6 52 -3 100 -1 108 3 7 5
-50 9 -132 8 -129 0 -142 -1 -120 -14z"/>
<path d="M680 735 c18 -9 29 -10 38 -3 8 7 48 9 106 6 52 -3 100 -1 108 3 7 5
-50 9 -132 8 -129 0 -142 -1 -120 -14z"/>
<path d="M40 695 c0 -3 2 -5 5 -5 3 0 5 2 5 5 0 3 -2 5 -5 5 -3 0 -5 -2 -5 -5z"/>
<path d="M360 695 c0 -3 2 -5 5 -5 3 0 5 2 5 5 0 3 -2 5 -5 5 -3 0 -5 -2 -5
-5z"/>
<path d="M680 695 c0 -3 2 -5 5 -5 3 0 5 2 5 5 0 3 -2 5 -5 5 -3 0 -5 -2 -5
-5z"/>
<path d="M180 685 c0 -3 2 -5 5 -5 3 0 5 2 5 5 0 3 -2 5 -5 5 -3 0 -5 -2 -5
-5z"/>
<path d="M500 685 c0 -3 2 -5 5 -5 3 0 5 2 5 5 0 3 -2 5 -5 5 -3 0 -5 -2 -5
-5z"/>
<path d="M820 685 c0 -3 2 -5 5 -5 3 0 5 2 5 5 0 3 -2 5 -5 5 -3 0 -5 -2 -5
-5z"/>
<path d="M23 664 c9 -9 256 -11 270 -2 7 4 -53 8 -132 8 -79 0 -141 -3 -138
-6z"/>
<path d="M343 664 c9 -9 256 -11 270 -2 7 4 -53 8 -132 8 -79 0 -141 -3 -138
-6z"/>
<path d="M663 664 c9 -9 256 -11 270 -2 7 4 -53 8 -132 8 -79 0 -141 -3 -138
-6z"/>
<path d="M230 615 c0 -3 2 -5 5 -5 3 0 5 2 5 5 0 3 -2 5 -5 5 -3 0 -5 -2 -5
-5z"/>
<path d="M550 615 c0 -3 2 -5 5 -5 3 0 5 2 5 5 0 3 -2 5 -5 5 -3 0 -5 -2 -5
-5z"/>
<path d="M870 615 c0 -3 2 -5 5 -5 3 0 5 2 5 5 0 3 -2 5 -5 5 -3 0 -5 -2 -5
-5z"/>
<path d="M50 605 c0 -3 2 -5 5 -5 3 0 5 2 5 5 0 3 -2 5 -5 5 -3 0 -5 -2 -5 -5z"/>
<path d="M370 605 c0 -3 2 -5 5 -5 3 0 5 2 5 5 0 3 -2 5 -5 5 -3 0 -5 -2 -5
-5z"/>
<path d="M690 605 c0 -3 2 -5 5 -5 3 0 5 2 5 5 0 3 -2 5 -5 5 -3 0 -5 -2 -5
-5z"/>
<path d="M115 589 c-55 -3 -93 -6 -85 -8 28 -5 260 -4 266 1 9 10 -77 13 -181
7z"/>
<path d="M435 589 c-55 -3 -93 -6 -85 -8 28 -5 260 -4 266 1 9 10 -77 13 -181
7z"/>
<path d="M755 589 c-55 -3 -93 -6 -85 -8 28 -5 260 -4 266 1 9 10 -77 13 -181
7z"/>
<path d="M190 535 c0 -3 2 -5 5 -5 3 0 5 2 5 5 0 3 -2 5 -5 5 -3 0 -5 -2 -5
-5z"/>
<path d="M510 535 c0 -3 2 -5 5 -5 3 0 5 2 5 5 0 3 -2 5 -5 5 -3 0 -5 -2 -5
-5z"/>
<path d="M830 535 c0 -3 2 -5 5 -5 3 0 5 2 5 5 0 3 -2 5 -5 5 -3 0 -5 -2 -5
-5z"/>
<path d="M50 525 c0 -3 2 -5 5 -5 3 0 5 2 5 5 0 3 -2 5 -5 5 -3 0 -5 -2 -5 -5z"/>
<path d="M370 525 c0 -3 2 -5 5 -5 3 0 5 2 5 5 0 3 -2 5 -5 5 -3 0 -5 -2 -5
-5z"/>
<path d="M690 525 c0 -3 2 -5 5 -5 3 0 5 2 5 5 0 3 -2 5 -5 5 -3 0 -5 -2 -5
-5z"/>
<path d="M23 504 c9 -9 256 -11 270 -2 7 4 -53 8 -132 8 -79 0 -141 -3 -138
-6z"/>
<path d="M343 504 c9 -9 256 -11 270 -2 7 4 -53 8 -132 8 -79 0 -141 -3 -138
-6z"/>
<path d="M663 504 c9 -9 256 -11 270 -2 7 4 -53 8 -132 8 -79 0 -141 -3 -138
-6z"/>
<path d="M70 455 c0 -3 2 -5 5 -5 3 0 5 2 5 5 0 3 -2 5 -5 5 -3 0 -5 -2 -5 -5z"/>
<path d="M390 455 c0 -3 2 -5 5 -5 3 0 5 2 5 5 0 3 -2 5 -5 5 -3 0 -5 -2 -5
-5z"/>
<path d="M710 455 c0 -3 2 -5 5 -5 3 0 5 2 5 5 0 3 -2 5 -5 5 -3 0 -5 -2 -5
-5z"/>
<path d="M250 445 c0 -3 2 -5 5 -5 3 0 5 2 5 5 0 3 -2 5 -5 5 -3 0 -5 -2 -5
-5z"/>
<path d="M570 445 c0 -3 2 -5 5 -5 3 0 5 2 5 5 0 3 -2 5 -5 5 -3 0 -5 -2 -5
-5z"/>
<path d="M890 445 c0 -3 2 -5 5 -5 3 0 5 2 5 5 0 3 -2 5 -5 5 -3 0 -5 -2 -5
-5z"/>
<path d="M40 415 c18 -9 29 -10 38 -3 8 7 48 9 106 6 52 -3 100 -1 108 3 7 5
-50 9 -132 8 -129 0 -142 -1 -120 -14z"/>
<path d="M360 415 c18 -9 29 -10 38 -3 8 7 48 9 106 6 52 -3 100 -1 108 3 7 5
-50 9 -132 8 -129 0 -142 -1 -120 -14z"/>
<path d="M680 415 c18 -9 29 -10 38 -3 8 7 48 9 106 6 52 -3 100 -1 108 3 7 5
-50 9 -132 8 -129 0 -142 -1 -120 -14z"/>
<path d="M40 375 c0 -3 2 -5 5 -5 3 0 5 2 5 5 0 3 -2 5 -5 5 -3 0 -5 -2 -5 -5z"/>
<path d="M360 375 c0 -3 2 -5 5 -5 3 0 5 2 5 5 0 3 -2 5 -5 5 -3 0 -5 -2 -5
-5z"/>
<path d="M680 375 c0 -3 2 -5 5 -5 3 0 5 2 5 5 0 3 -2 5 -5 5 -3 0 -5 -2 -5
-5z"/>
<path d="M180 365 c0 -3 2 -5 5 -5 3 0 5 2 5 5 0 3 -2 5 -5 5 -3 0 -5 -2 -5
-5z"/>
<path d="M500 365 c0 -3 2 -5 5 -5 3 0 5 2 5 5 0 3 -2 5 -5 5 -3 0 -5 -2 -5
-5z"/>
<path d="M820 365 c0 -3 2 -5 5 -5 3 0 5 2 5 5 0 3 -2 5 -5 5 -3 0 -5 -2 -5
-5z"/>
<path d="M23 344 c9 -9 256 -11 270 -2 7 4 -53 8 -132 8 -79 0 -141 -3 -138
-6z"/>
<path d="M343 344 c9 -9 256 -11 270 -2 7 4 -53 8 -132 8 -79 0 -141 -3 -138
-6z"/>
<path d="M663 344 c9 -9 256 -11 270 -2 7 4 -53 8 -132 8 -79 0 -141 -3 -138
-6z"/>
<path d="M230 295 c0 -3 2 -5 5 -5 3 0 5 2 5 5 0 3 -2 5 -5 5 -3 0 -5 -2 -5
-5z"/>
<path d="M550 295 c0 -3 2 -5 5 -5 3 0 5 2 5 5 0 3 -2 5 -5 5 -3 0 -5 -2 -5
-5z"/>
<path d="M870 295 c0 -3 2 -5 5 -5 3 0 5 2 5 5 0 3 -2 5 -5 5 -3 0 -5 -2 -5
-5z"/>
<path d="M50 285 c0 -3 2 -5 5 -5 3 0 5 2 5 5 0 3 -2 5 -5 5 -3 0 -5 -2 -5 -5z"/>
<path d="M370 285 c0 -3 2 -5 5 -5 3 0 5 2 5 5 0 3 -2 5 -5 5 -3 0 -5 -2 -5
-5z"/>
<path d="M690 285 c0 -3 2 -5 5 -5 3 0 5 2 5 5 0 3 -2 5 -5 5 -3 0 -5 -2 -5
-5z"/>
<path d="M115 269 c-55 -3 -93 -6 -85 -8 28 -5 260 -4 266 1 9 10 -77 13 -181
7z"/>
<path d="M435 269 c-55 -3 -93 -6 -85 -8 28 -5 260 -4 266 1 9 10 -77 13 -181
7z"/>
<path d="M755 269 c-55 -3 -93 -6 -85 -8 28 -5 260 -4 266 1 9 10 -77 13 -181
7z"/>
<path d="M190 215 c0 -3 2 -5 5 -5 3 0 5 2 5 5 0 3 -2 5 -5 5 -3 0 -5 -2 -5
-5z"/>
<path d="M510 215 c0 -3 2 -5 5 -5 3 0 5 2 5 5 0 3 -2 5 -5 5 -3 0 -5 -2 -5
-5z"/>
<path d="M830 215 c0 -3 2 -5 5 -5 3 0 5 2 5 5 0 3 -2 5 -5 5 -3 0 -5 -2 -5
-5z"/>
<path d="M50 205 c0 -3 2 -5 5 -5 3 0 5 2 5 5 0 3 -2 5 -5 5 -3 0 -5 -2 -5 -5z"/>
<path d="M370 205 c0 -3 2 -5 5 -5 3 0 5 2 5 5 0 3 -2 5 -5 5 -3 0 -5 -2 -5
-5z"/>
<path d="M690 205 c0 -3 2 -5 5 -5 3 0 5 2 5 5 0 3 -2 5 -5 5 -3 0 -5 -2 -5
-5z"/>
<path d="M23 184 c9 -9 256 -11 270 -2 7 4 -53 8 -132 8 -79 0 -141 -3 -138
-6z"/>
<path d="M343 184 c9 -9 256 -11 270 -2 7 4 -53 8 -132 8 -79 0 -141 -3 -138
-6z"/>
<path d="M663 184 c9 -9 256 -11 270 -2 7 4 -53 8 -132 8 -79 0 -141 -3 -138
-6z"/>
<path d="M70 135 c0 -3 2 -5 5 -5 3 0 5 2 5 5 0 3 -2 5 -5 5 -3 0 -5 -2 -5 -5z"/>
<path d="M390 135 c0 -3 2 -5 5 -5 3 0 5 2 5 5 0 3 -2 5 -5 5 -3 0 -5 -2 -5
-5z"/>
<path d="M710 135 c0 -3 2 -5 5 -5 3 0 5 2 5 5 0 3 -2 5 -5 5 -3 0 -5 -2 -5
-5z"/>
<path d="M250 125 c0 -3 2 -5 5 -5 3 0 5 2 5 5 0 3 -2 5 -5 5 -3 0 -5 -2 -5
-5z"/>
<path d="M570 125 c0 -3 2 -5 5 -5 3 0 5 2 5 5 0 3 -2 5 -5 5 -3 0 -5 -2 -5
-5z"/>
<path d="M890 125 c0 -3 2 -5 5 -5 3 0 5 2 5 5 0 3 -2 5 -5 5 -3 0 -5 -2 -5
-5z"/>
<path d="M40 95 c18 -9 29 -10 38 -3 8 7 48 9 106 6 52 -3 100 -1 108 3 7 5
-50 9 -132 8 -129 0 -142 -1 -120 -14z"/>
<path d="M360 95 c18 -9 29 -10 38 -3 8 7 48 9 106 6 52 -3 100 -1 108 3 7 5
-50 9 -132 8 -129 0 -142 -1 -120 -14z"/>
<path d="M680 95 c18 -9 29 -10 38 -3 8 7 48 9 106 6 52 -3 100 -1 108 3 7 5
-50 9 -132 8 -129 0 -142 -1 -120 -14z"/>
<path d="M40 55 c0 -3 2 -5 5 -5 3 0 5 2 5 5 0 3 -2 5 -5 5 -3 0 -5 -2 -5 -5z"/>
<path d="M360 55 c0 -3 2 -5 5 -5 3 0 5 2 5 5 0 3 -2 5 -5 5 -3 0 -5 -2 -5 -5z"/>
<path d="M680 55 c0 -3 2 -5 5 -5 3 0 5 2 5 5 0 3 -2 5 -5 5 -3 0 -5 -2 -5 -5z"/>
<path d="M180 45 c0 -3 2 -5 5 -5 3 0 5 2 5 5 0 3 -2 5 -5 5 -3 0 -5 -2 -5 -5z"/>
<path d="M500 45 c0 -3 2 -5 5 -5 3 0 5 2 5 5 0 3 -2 5 -5 5 -3 0 -5 -2 -5 -5z"/>
<path d="M820 45 c0 -3 2 -5 5 -5 3 0 5 2 5 5 0 3 -2 5 -5 5 -3 0 -5 -2 -5 -5z"/>
<path d="M23 24 c9 -9 256 -11 270 -2 7 4 -53 8 -132 8 -79 0 -141 -3 -138 -6z"/>
<path d="M343 24 c9 -9 256 -11 270 -2 7 4 -53 8 -132 8 -79 0 -141 -3 -138
-6z"/>
<path d="M663 24 c9 -9 256 -11 270 -2 7 4 -53 8 -132 8 -79 0 -141 -3 -138
-6z"/>
</g>
<g transform="translate(0.000000,96.000000) scale(0.100000,-0.100000)"
fill="#735e39" stroke="none">
<path d="M230 935 c0 -3 2 -5 5 -5 3 0 5 2 5 5 0 3 -2 5 -5 5 -3 0 -5 -2 -5
-5z"/>
<path d="M550 935 c0 -3 2 -5 5 -5 3 0 5 2 5 5 0 3 -2 5 -5 5 -3 0 -5 -2 -5
-5z"/>
<path d="M870 935 c0 -3 2 -5 5 -5 3 0 5 2 5 5 0 3 -2 5 -5 5 -3 0 -5 -2 -5
-5z"/>
<path d="M50 925 c0 -3 2 -5 5 -5 3 0 5 2 5 5 0 3 -2 5 -5 5 -3 0 -5 -2 -5 -5z"/>
<path d="M370 925 c0 -3 2 -5 5 -5 3 0 5 2 5 5 0 3 -2 5 -5 5 -3 0 -5 -2 -5
-5z"/>
<path d="M690 925 c0 -3 2 -5 5 -5 3 0 5 2 5 5 0 3 -2 5 -5 5 -3 0 -5 -2 -5
-5z"/>
<path d="M210 915 c0 -3 2 -5 5 -5 3 0 5 2 5 5 0 3 -2 5 -5 5 -3 0 -5 -2 -5
-5z"/>
<path d="M530 915 c0 -3 2 -5 5 -5 3 0 5 2 5 5 0 3 -2 5 -5 5 -3 0 -5 -2 -5
-5z"/>
<path d="M850 915 c0 -3 2 -5 5 -5 3 0 5 2 5 5 0 3 -2 5 -5 5 -3 0 -5 -2 -5
-5z"/>
<path d="M50 900 c-12 -8 -10 -10 8 -10 13 0 20 4 17 10 -7 12 -6 12 -25 0z"/>
<path d="M118 903 c18 -2 45 -2 60 0 15 2 0 4 -33 4 -33 0 -45 -2 -27 -4z"/>
<path d="M290 905 c0 -3 2 -5 5 -5 3 0 5 2 5 5 0 3 -2 5 -5 5 -3 0 -5 -2 -5
-5z"/>
<path d="M370 900 c-12 -8 -10 -10 8 -10 13 0 20 4 17 10 -7 12 -6 12 -25 0z"/>
<path d="M438 903 c18 -2 45 -2 60 0 15 2 0 4 -33 4 -33 0 -45 -2 -27 -4z"/>
<path d="M610 905 c0 -3 2 -5 5 -5 3 0 5 2 5 5 0 3 -2 5 -5 5 -3 0 -5 -2 -5
-5z"/>
<path d="M690 900 c-12 -8 -10 -10 8 -10 13 0 20 4 17 10 -7 12 -6 12 -25 0z"/>
<path d="M758 903 c18 -2 45 -2 60 0 15 2 0 4 -33 4 -33 0 -45 -2 -27 -4z"/>
<path d="M930 905 c0 -3 2 -5 5 -5 3 0 5 2 5 5 0 3 -2 5 -5 5 -3 0 -5 -2 -5
-5z"/>
<path d="M248 893 c6 -2 18 -2 25 0 6 3 1 5 -13 5 -14 0 -19 -2 -12 -5z"/>
<path d="M568 893 c6 -2 18 -2 25 0 6 3 1 5 -13 5 -14 0 -19 -2 -12 -5z"/>
<path d="M888 893 c6 -2 18 -2 25 0 6 3 1 5 -13 5 -14 0 -19 -2 -12 -5z"/>
<path d="M190 855 c0 -3 2 -5 5 -5 3 0 5 2 5 5 0 3 -2 5 -5 5 -3 0 -5 -2 -5
-5z"/>
<path d="M510 855 c0 -3 2 -5 5 -5 3 0 5 2 5 5 0 3 -2 5 -5 5 -3 0 -5 -2 -5
-5z"/>
<path d="M830 855 c0 -3 2 -5 5 -5 3 0 5 2 5 5 0 3 -2 5 -5 5 -3 0 -5 -2 -5
-5z"/>
<path d="M50 845 c0 -3 2 -5 5 -5 3 0 5 2 5 5 0 3 -2 5 -5 5 -3 0 -5 -2 -5 -5z"/>
<path d="M370 845 c0 -3 2 -5 5 -5 3 0 5 2 5 5 0 3 -2 5 -5 5 -3 0 -5 -2 -5
-5z"/>
<path d="M690 845 c0 -3 2 -5 5 -5 3 0 5 2 5 5 0 3 -2 5 -5 5 -3 0 -5 -2 -5
-5z"/>
<path d="M20 825 c0 -3 2 -5 5 -5 3 0 5 2 5 5 0 3 -2 5 -5 5 -3 0 -5 -2 -5 -5z"/>
<path d="M153 823 c9 -2 25 -2 35 0 9 3 1 5 -18 5 -19 0 -27 -2 -17 -5z"/>
<path d="M260 820 c-21 -7 -21 -8 -5 -9 11 0 27 4 35 9 18 11 5 11 -30 0z"/>
<path d="M340 825 c0 -3 2 -5 5 -5 3 0 5 2 5 5 0 3 -2 5 -5 5 -3 0 -5 -2 -5
-5z"/>
<path d="M473 823 c9 -2 25 -2 35 0 9 3 1 5 -18 5 -19 0 -27 -2 -17 -5z"/>
<path d="M580 820 c-21 -7 -21 -8 -5 -9 11 0 27 4 35 9 18 11 5 11 -30 0z"/>
<path d="M660 825 c0 -3 2 -5 5 -5 3 0 5 2 5 5 0 3 -2 5 -5 5 -3 0 -5 -2 -5
-5z"/>
<path d="M793 823 c9 -2 25 -2 35 0 9 3 1 5 -18 5 -19 0 -27 -2 -17 -5z"/>
<path d="M900 820 c-21 -7 -21 -8 -5 -9 11 0 27 4 35 9 18 11 5 11 -30 0z"/>
<path d="M48 813 c6 -2 18 -2 25 0 6 3 1 5 -13 5 -14 0 -19 -2 -12 -5z"/>
<path d="M368 813 c6 -2 18 -2 25 0 6 3 1 5 -13 5 -14 0 -19 -2 -12 -5z"/>
<path d="M688 813 c6 -2 18 -2 25 0 6 3 1 5 -13 5 -14 0 -19 -2 -12 -5z"/>
<path d="M70 775 c0 -3 2 -5 5 -5 3 0 5 2 5 5 0 3 -2 5 -5 5 -3 0 -5 -2 -5 -5z"/>
<path d="M390 775 c0 -3 2 -5 5 -5 3 0 5 2 5 5 0 3 -2 5 -5 5 -3 0 -5 -2 -5
-5z"/>
<path d="M710 775 c0 -3 2 -5 5 -5 3 0 5 2 5 5 0 3 -2 5 -5 5 -3 0 -5 -2 -5
-5z"/>
<path d="M250 765 c0 -3 2 -5 5 -5 3 0 5 2 5 5 0 3 -2 5 -5 5 -3 0 -5 -2 -5
-5z"/>
<path d="M570 765 c0 -3 2 -5 5 -5 3 0 5 2 5 5 0 3 -2 5 -5 5 -3 0 -5 -2 -5
-5z"/>
<path d="M890 765 c0 -3 2 -5 5 -5 3 0 5 2 5 5 0 3 -2 5 -5 5 -3 0 -5 -2 -5
-5z"/>
<path d="M46 741 c-3 -5 0 -11 8 -14 15 -6 26 1 26 15 0 11 -27 10 -34 -1z"/>
<path d="M140 745 c0 -3 2 -5 5 -5 3 0 5 2 5 5 0 3 -2 5 -5 5 -3 0 -5 -2 -5
-5z"/>
<path d="M170 745 c0 -3 2 -5 5 -5 3 0 5 2 5 5 0 3 -2 5 -5 5 -3 0 -5 -2 -5
-5z"/>
<path d="M215 740 c17 -4 39 -8 50 -8 16 0 15 2 -5 8 -14 4 -36 8 -50 8 -22 0
-22 -1 5 -8z"/>
<path d="M366 741 c-3 -5 0 -11 8 -14 15 -6 26 1 26 15 0 11 -27 10 -34 -1z"/>
<path d="M460 745 c0 -3 2 -5 5 -5 3 0 5 2 5 5 0 3 -2 5 -5 5 -3 0 -5 -2 -5
-5z"/>
<path d="M490 745 c0 -3 2 -5 5 -5 3 0 5 2 5 5 0 3 -2 5 -5 5 -3 0 -5 -2 -5
-5z"/>
<path d="M535 740 c17 -4 39 -8 50 -8 16 0 15 2 -5 8 -14 4 -36 8 -50 8 -22 0
-22 -1 5 -8z"/>
<path d="M686 741 c-3 -5 0 -11 8 -14 15 -6 26 1 26 15 0 11 -27 10 -34 -1z"/>
<path d="M780 745 c0 -3 2 -5 5 -5 3 0 5 2 5 5 0 3 -2 5 -5 5 -3 0 -5 -2 -5
-5z"/>
<path d="M810 745 c0 -3 2 -5 5 -5 3 0 5 2 5 5 0 3 -2 5 -5 5 -3 0 -5 -2 -5
-5z"/>
<path d="M855 740 c17 -4 39 -8 50 -8 16 0 15 2 -5 8 -14 4 -36 8 -50 8 -22 0
-22 -1 5 -8z"/>
<path d="M40 695 c0 -3 2 -5 5 -5 3 0 5 2 5 5 0 3 -2 5 -5 5 -3 0 -5 -2 -5 -5z"/>
<path d="M360 695 c0 -3 2 -5 5 -5 3 0 5 2 5 5 0 3 -2 5 -5 5 -3 0 -5 -2 -5
-5z"/>
<path d="M680 695 c0 -3 2 -5 5 -5 3 0 5 2 5 5 0 3 -2 5 -5 5 -3 0 -5 -2 -5
-5z"/>
<path d="M180 685 c0 -3 2 -5 5 -5 3 0 5 2 5 5 0 3 -2 5 -5 5 -3 0 -5 -2 -5
-5z"/>
<path d="M500 685 c0 -3 2 -5 5 -5 3 0 5 2 5 5 0 3 -2 5 -5 5 -3 0 -5 -2 -5
-5z"/>
<path d="M820 685 c0 -3 2 -5 5 -5 3 0 5 2 5 5 0 3 -2 5 -5 5 -3 0 -5 -2 -5
-5z"/>
<path d="M30 660 c20 -13 50 -13 50 0 0 6 -15 10 -32 10 -25 0 -29 -3 -18 -10z"/>
<path d="M90 665 c0 -3 2 -5 5 -5 3 0 5 2 5 5 0 3 -2 5 -5 5 -3 0 -5 -2 -5 -5z"/>
<path d="M128 663 c7 -3 16 -2 19 1 4 3 -2 6 -13 5 -11 0 -14 -3 -6 -6z"/>
<path d="M160 665 c0 -3 2 -5 5 -5 3 0 5 2 5 5 0 3 -2 5 -5 5 -3 0 -5 -2 -5
-5z"/>
<path d="M198 663 c7 -3 16 -2 19 1 4 3 -2 6 -13 5 -11 0 -14 -3 -6 -6z"/>
<path d="M245 660 c-4 -6 3 -10 14 -10 25 0 27 6 6 13 -8 4 -17 2 -20 -3z"/>
<path d="M350 660 c20 -13 50 -13 50 0 0 6 -15 10 -32 10 -25 0 -29 -3 -18
-10z"/>
<path d="M410 665 c0 -3 2 -5 5 -5 3 0 5 2 5 5 0 3 -2 5 -5 5 -3 0 -5 -2 -5
-5z"/>
<path d="M448 663 c7 -3 16 -2 19 1 4 3 -2 6 -13 5 -11 0 -14 -3 -6 -6z"/>
<path d="M480 665 c0 -3 2 -5 5 -5 3 0 5 2 5 5 0 3 -2 5 -5 5 -3 0 -5 -2 -5
-5z"/>
<path d="M518 663 c7 -3 16 -2 19 1 4 3 -2 6 -13 5 -11 0 -14 -3 -6 -6z"/>
<path d="M565 660 c-4 -6 3 -10 14 -10 25 0 27 6 6 13 -8 4 -17 2 -20 -3z"/>
<path d="M670 660 c20 -13 50 -13 50 0 0 6 -15 10 -32 10 -25 0 -29 -3 -18
-10z"/>
<path d="M730 665 c0 -3 2 -5 5 -5 3 0 5 2 5 5 0 3 -2 5 -5 5 -3 0 -5 -2 -5
-5z"/>
<path d="M768 663 c7 -3 16 -2 19 1 4 3 -2 6 -13 5 -11 0 -14 -3 -6 -6z"/>
<path d="M800 665 c0 -3 2 -5 5 -5 3 0 5 2 5 5 0 3 -2 5 -5 5 -3 0 -5 -2 -5
-5z"/>
<path d="M838 663 c7 -3 16 -2 19 1 4 3 -2 6 -13 5 -11 0 -14 -3 -6 -6z"/>
<path d="M885 660 c-4 -6 3 -10 14 -10 25 0 27 6 6 13 -8 4 -17 2 -20 -3z"/>
<path d="M230 615 c0 -3 2 -5 5 -5 3 0 5 2 5 5 0 3 -2 5 -5 5 -3 0 -5 -2 -5
-5z"/>
<path d="M550 615 c0 -3 2 -5 5 -5 3 0 5 2 5 5 0 3 -2 5 -5 5 -3 0 -5 -2 -5
-5z"/>
<path d="M870 615 c0 -3 2 -5 5 -5 3 0 5 2 5 5 0 3 -2 5 -5 5 -3 0 -5 -2 -5
-5z"/>
<path d="M50 605 c0 -3 2 -5 5 -5 3 0 5 2 5 5 0 3 -2 5 -5 5 -3 0 -5 -2 -5 -5z"/>
<path d="M370 605 c0 -3 2 -5 5 -5 3 0 5 2 5 5 0 3 -2 5 -5 5 -3 0 -5 -2 -5
-5z"/>
<path d="M690 605 c0 -3 2 -5 5 -5 3 0 5 2 5 5 0 3 -2 5 -5 5 -3 0 -5 -2 -5
-5z"/>
<path d="M210 595 c0 -3 2 -5 5 -5 3 0 5 2 5 5 0 3 -2 5 -5 5 -3 0 -5 -2 -5
-5z"/>
<path d="M530 595 c0 -3 2 -5 5 -5 3 0 5 2 5 5 0 3 -2 5 -5 5 -3 0 -5 -2 -5
-5z"/>
<path d="M850 595 c0 -3 2 -5 5 -5 3 0 5 2 5 5 0 3 -2 5 -5 5 -3 0 -5 -2 -5
-5z"/>
<path d="M50 580 c-12 -8 -10 -10 8 -10 13 0 20 4 17 10 -7 12 -6 12 -25 0z"/>
<path d="M118 583 c18 -2 45 -2 60 0 15 2 0 4 -33 4 -33 0 -45 -2 -27 -4z"/>
<path d="M290 585 c0 -3 2 -5 5 -5 3 0 5 2 5 5 0 3 -2 5 -5 5 -3 0 -5 -2 -5
-5z"/>
<path d="M370 580 c-12 -8 -10 -10 8 -10 13 0 20 4 17 10 -7 12 -6 12 -25 0z"/>
<path d="M438 583 c18 -2 45 -2 60 0 15 2 0 4 -33 4 -33 0 -45 -2 -27 -4z"/>
<path d="M610 585 c0 -3 2 -5 5 -5 3 0 5 2 5 5 0 3 -2 5 -5 5 -3 0 -5 -2 -5
-5z"/>
<path d="M690 580 c-12 -8 -10 -10 8 -10 13 0 20 4 17 10 -7 12 -6 12 -25 0z"/>
<path d="M758 583 c18 -2 45 -2 60 0 15 2 0 4 -33 4 -33 0 -45 -2 -27 -4z"/>
<path d="M930 585 c0 -3 2 -5 5 -5 3 0 5 2 5 5 0 3 -2 5 -5 5 -3 0 -5 -2 -5
-5z"/>
<path d="M248 573 c6 -2 18 -2 25 0 6 3 1 5 -13 5 -14 0 -19 -2 -12 -5z"/>
<path d="M568 573 c6 -2 18 -2 25 0 6 3 1 5 -13 5 -14 0 -19 -2 -12 -5z"/>
<path d="M888 573 c6 -2 18 -2 25 0 6 3 1 5 -13 5 -14 0 -19 -2 -12 -5z"/>
<path d="M190 535 c0 -3 2 -5 5 -5 3 0 5 2 5 5 0 3 -2 5 -5 5 -3 0 -5 -2 -5
-5z"/>
<path d="M510 535 c0 -3 2 -5 5 -5 3 0 5 2 5 5 0 3 -2 5 -5 5 -3 0 -5 -2 -5
-5z"/>
<path d="M830 535 c0 -3 2 -5 5 -5 3 0 5 2 5 5 0 3 -2 5 -5 5 -3 0 -5 -2 -5
-5z"/>
<path d="M50 525 c0 -3 2 -5 5 -5 3 0 5 2 5 5 0 3 -2 5 -5 5 -3 0 -5 -2 -5 -5z"/>
<path d="M370 525 c0 -3 2 -5 5 -5 3 0 5 2 5 5 0 3 -2 5 -5 5 -3 0 -5 -2 -5
-5z"/>
<path d="M690 525 c0 -3 2 -5 5 -5 3 0 5 2 5 5 0 3 -2 5 -5 5 -3 0 -5 -2 -5
-5z"/>
<path d="M20 505 c0 -3 2 -5 5 -5 3 0 5 2 5 5 0 3 -2 5 -5 5 -3 0 -5 -2 -5 -5z"/>
<path d="M153 503 c9 -2 25 -2 35 0 9 3 1 5 -18 5 -19 0 -27 -2 -17 -5z"/>
<path d="M260 500 c-21 -7 -21 -8 -5 -9 11 0 27 4 35 9 18 11 5 11 -30 0z"/>
<path d="M340 505 c0 -3 2 -5 5 -5 3 0 5 2 5 5 0 3 -2 5 -5 5 -3 0 -5 -2 -5
-5z"/>
<path d="M473 503 c9 -2 25 -2 35 0 9 3 1 5 -18 5 -19 0 -27 -2 -17 -5z"/>
<path d="M580 500 c-21 -7 -21 -8 -5 -9 11 0 27 4 35 9 18 11 5 11 -30 0z"/>
<path d="M660 505 c0 -3 2 -5 5 -5 3 0 5 2 5 5 0 3 -2 5 -5 5 -3 0 -5 -2 -5
-5z"/>
<path d="M793 503 c9 -2 25 -2 35 0 9 3 1 5 -18 5 -19 0 -27 -2 -17 -5z"/>
<path d="M900 500 c-21 -7 -21 -8 -5 -9 11 0 27 4 35 9 18 11 5 11 -30 0z"/>
<path d="M48 493 c6 -2 18 -2 25 0 6 3 1 5 -13 5 -14 0 -19 -2 -12 -5z"/>
<path d="M368 493 c6 -2 18 -2 25 0 6 3 1 5 -13 5 -14 0 -19 -2 -12 -5z"/>
<path d="M688 493 c6 -2 18 -2 25 0 6 3 1 5 -13 5 -14 0 -19 -2 -12 -5z"/>
<path d="M70 455 c0 -3 2 -5 5 -5 3 0 5 2 5 5 0 3 -2 5 -5 5 -3 0 -5 -2 -5 -5z"/>
<path d="M390 455 c0 -3 2 -5 5 -5 3 0 5 2 5 5 0 3 -2 5 -5 5 -3 0 -5 -2 -5
-5z"/>
<path d="M710 455 c0 -3 2 -5 5 -5 3 0 5 2 5 5 0 3 -2 5 -5 5 -3 0 -5 -2 -5
-5z"/>
<path d="M250 445 c0 -3 2 -5 5 -5 3 0 5 2 5 5 0 3 -2 5 -5 5 -3 0 -5 -2 -5
-5z"/>
<path d="M570 445 c0 -3 2 -5 5 -5 3 0 5 2 5 5 0 3 -2 5 -5 5 -3 0 -5 -2 -5
-5z"/>
<path d="M890 445 c0 -3 2 -5 5 -5 3 0 5 2 5 5 0 3 -2 5 -5 5 -3 0 -5 -2 -5
-5z"/>
<path d="M46 421 c-3 -5 0 -11 8 -14 15 -6 26 1 26 15 0 11 -27 10 -34 -1z"/>
<path d="M140 425 c0 -3 2 -5 5 -5 3 0 5 2 5 5 0 3 -2 5 -5 5 -3 0 -5 -2 -5
-5z"/>
<path d="M170 425 c0 -3 2 -5 5 -5 3 0 5 2 5 5 0 3 -2 5 -5 5 -3 0 -5 -2 -5
-5z"/>
<path d="M215 420 c17 -4 39 -8 50 -8 16 0 15 2 -5 8 -14 4 -36 8 -50 8 -22 0
-22 -1 5 -8z"/>
<path d="M366 421 c-3 -5 0 -11 8 -14 15 -6 26 1 26 15 0 11 -27 10 -34 -1z"/>
<path d="M460 425 c0 -3 2 -5 5 -5 3 0 5 2 5 5 0 3 -2 5 -5 5 -3 0 -5 -2 -5
-5z"/>
<path d="M490 425 c0 -3 2 -5 5 -5 3 0 5 2 5 5 0 3 -2 5 -5 5 -3 0 -5 -2 -5
-5z"/>
<path d="M535 420 c17 -4 39 -8 50 -8 16 0 15 2 -5 8 -14 4 -36 8 -50 8 -22 0
-22 -1 5 -8z"/>
<path d="M686 421 c-3 -5 0 -11 8 -14 15 -6 26 1 26 15 0 11 -27 10 -34 -1z"/>
<path d="M780 425 c0 -3 2 -5 5 -5 3 0 5 2 5 5 0 3 -2 5 -5 5 -3 0 -5 -2 -5
-5z"/>
<path d="M810 425 c0 -3 2 -5 5 -5 3 0 5 2 5 5 0 3 -2 5 -5 5 -3 0 -5 -2 -5
-5z"/>
<path d="M855 420 c17 -4 39 -8 50 -8 16 0 15 2 -5 8 -14 4 -36 8 -50 8 -22 0
-22 -1 5 -8z"/>
<path d="M40 375 c0 -3 2 -5 5 -5 3 0 5 2 5 5 0 3 -2 5 -5 5 -3 0 -5 -2 -5 -5z"/>
<path d="M360 375 c0 -3 2 -5 5 -5 3 0 5 2 5 5 0 3 -2 5 -5 5 -3 0 -5 -2 -5
-5z"/>
<path d="M680 375 c0 -3 2 -5 5 -5 3 0 5 2 5 5 0 3 -2 5 -5 5 -3 0 -5 -2 -5
-5z"/>
<path d="M180 365 c0 -3 2 -5 5 -5 3 0 5 2 5 5 0 3 -2 5 -5 5 -3 0 -5 -2 -5
-5z"/>
<path d="M500 365 c0 -3 2 -5 5 -5 3 0 5 2 5 5 0 3 -2 5 -5 5 -3 0 -5 -2 -5
-5z"/>
<path d="M820 365 c0 -3 2 -5 5 -5 3 0 5 2 5 5 0 3 -2 5 -5 5 -3 0 -5 -2 -5
-5z"/>
<path d="M30 340 c20 -13 50 -13 50 0 0 6 -15 10 -32 10 -25 0 -29 -3 -18 -10z"/>
<path d="M90 345 c0 -3 2 -5 5 -5 3 0 5 2 5 5 0 3 -2 5 -5 5 -3 0 -5 -2 -5 -5z"/>
<path d="M128 343 c7 -3 16 -2 19 1 4 3 -2 6 -13 5 -11 0 -14 -3 -6 -6z"/>
<path d="M160 345 c0 -3 2 -5 5 -5 3 0 5 2 5 5 0 3 -2 5 -5 5 -3 0 -5 -2 -5
-5z"/>
<path d="M198 343 c7 -3 16 -2 19 1 4 3 -2 6 -13 5 -11 0 -14 -3 -6 -6z"/>
<path d="M245 340 c-4 -6 3 -10 14 -10 25 0 27 6 6 13 -8 4 -17 2 -20 -3z"/>
<path d="M350 340 c20 -13 50 -13 50 0 0 6 -15 10 -32 10 -25 0 -29 -3 -18
-10z"/>
<path d="M410 345 c0 -3 2 -5 5 -5 3 0 5 2 5 5 0 3 -2 5 -5 5 -3 0 -5 -2 -5
-5z"/>
<path d="M448 343 c7 -3 16 -2 19 1 4 3 -2 6 -13 5 -11 0 -14 -3 -6 -6z"/>
<path d="M480 345 c0 -3 2 -5 5 -5 3 0 5 2 5 5 0 3 -2 5 -5 5 -3 0 -5 -2 -5
-5z"/>
<path d="M518 343 c7 -3 16 -2 19 1 4 3 -2 6 -13 5 -11 0 -14 -3 -6 -6z"/>
<path d="M565 340 c-4 -6 3 -10 14 -10 25 0 27 6 6 13 -8 4 -17 2 -20 -3z"/>
<path d="M670 340 c20 -13 50 -13 50 0 0 6 -15 10 -32 10 -25 0 -29 -3 -18
-10z"/>
<path d="M730 345 c0 -3 2 -5 5 -5 3 0 5 2 5 5 0 3 -2 5 -5 5 -3 0 -5 -2 -5
-5z"/>
<path d="M768 343 c7 -3 16 -2 19 1 4 3 -2 6 -13 5 -11 0 -14 -3 -6 -6z"/>
<path d="M800 345 c0 -3 2 -5 5 -5 3 0 5 2 5 5 0 3 -2 5 -5 5 -3 0 -5 -2 -5
-5z"/>
<path d="M838 343 c7 -3 16 -2 19 1 4 3 -2 6 -13 5 -11 0 -14 -3 -6 -6z"/>
<path d="M885 340 c-4 -6 3 -10 14 -10 25 0 27 6 6 13 -8 4 -17 2 -20 -3z"/>
<path d="M230 295 c0 -3 2 -5 5 -5 3 0 5 2 5 5 0 3 -2 5 -5 5 -3 0 -5 -2 -5
-5z"/>
<path d="M550 295 c0 -3 2 -5 5 -5 3 0 5 2 5 5 0 3 -2 5 -5 5 -3 0 -5 -2 -5
-5z"/>
<path d="M870 295 c0 -3 2 -5 5 -5 3 0 5 2 5 5 0 3 -2 5 -5 5 -3 0 -5 -2 -5
-5z"/>
<path d="M50 285 c0 -3 2 -5 5 -5 3 0 5 2 5 5 0 3 -2 5 -5 5 -3 0 -5 -2 -5 -5z"/>
<path d="M370 285 c0 -3 2 -5 5 -5 3 0 5 2 5 5 0 3 -2 5 -5 5 -3 0 -5 -2 -5
-5z"/>
<path d="M690 285 c0 -3 2 -5 5 -5 3 0 5 2 5 5 0 3 -2 5 -5 5 -3 0 -5 -2 -5
-5z"/>
<path d="M210 275 c0 -3 2 -5 5 -5 3 0 5 2 5 5 0 3 -2 5 -5 5 -3 0 -5 -2 -5
-5z"/>
<path d="M530 275 c0 -3 2 -5 5 -5 3 0 5 2 5 5 0 3 -2 5 -5 5 -3 0 -5 -2 -5
-5z"/>
<path d="M850 275 c0 -3 2 -5 5 -5 3 0 5 2 5 5 0 3 -2 5 -5 5 -3 0 -5 -2 -5
-5z"/>
<path d="M50 260 c-12 -8 -10 -10 8 -10 13 0 20 4 17 10 -7 12 -6 12 -25 0z"/>
<path d="M118 263 c18 -2 45 -2 60 0 15 2 0 4 -33 4 -33 0 -45 -2 -27 -4z"/>
<path d="M290 265 c0 -3 2 -5 5 -5 3 0 5 2 5 5 0 3 -2 5 -5 5 -3 0 -5 -2 -5
-5z"/>
<path d="M370 260 c-12 -8 -10 -10 8 -10 13 0 20 4 17 10 -7 12 -6 12 -25 0z"/>
<path d="M438 263 c18 -2 45 -2 60 0 15 2 0 4 -33 4 -33 0 -45 -2 -27 -4z"/>
<path d="M610 265 c0 -3 2 -5 5 -5 3 0 5 2 5 5 0 3 -2 5 -5 5 -3 0 -5 -2 -5
-5z"/>
<path d="M690 260 c-12 -8 -10 -10 8 -10 13 0 20 4 17 10 -7 12 -6 12 -25 0z"/>
<path d="M758 263 c18 -2 45 -2 60 0 15 2 0 4 -33 4 -33 0 -45 -2 -27 -4z"/>
<path d="M930 265 c0 -3 2 -5 5 -5 3 0 5 2 5 5 0 3 -2 5 -5 5 -3 0 -5 -2 -5
-5z"/>
<path d="M248 253 c6 -2 18 -2 25 0 6 3 1 5 -13 5 -14 0 -19 -2 -12 -5z"/>
<path d="M568 253 c6 -2 18 -2 25 0 6 3 1 5 -13 5 -14 0 -19 -2 -12 -5z"/>
<path d="M888 253 c6 -2 18 -2 25 0 6 3 1 5 -13 5 -14 0 -19 -2 -12 -5z"/>
<path d="M190 215 c0 -3 2 -5 5 -5 3 0 5 2 5 5 0 3 -2 5 -5 5 -3 0 -5 -2 -5
-5z"/>
<path d="M510 215 c0 -3 2 -5 5 -5 3 0 5 2 5 5 0 3 -2 5 -5 5 -3 0 -5 -2 -5
-5z"/>
<path d="M830 215 c0 -3 2 -5 5 -5 3 0 5 2 5 5 0 3 -2 5 -5 5 -3 0 -5 -2 -5
-5z"/>
<path d="M50 205 c0 -3 2 -5 5 -5 3 0 5 2 5 5 0 3 -2 5 -5 5 -3 0 -5 -2 -5 -5z"/>
<path d="M370 205 c0 -3 2 -5 5 -5 3 0 5 2 5 5 0 3 -2 5 -5 5 -3 0 -5 -2 -5
-5z"/>
<path d="M690 205 c0 -3 2 -5 5 -5 3 0 5 2 5 5 0 3 -2 5 -5 5 -3 0 -5 -2 -5
-5z"/>
<path d="M20 185 c0 -3 2 -5 5 -5 3 0 5 2 5 5 0 3 -2 5 -5 5 -3 0 -5 -2 -5 -5z"/>
<path d="M153 183 c9 -2 25 -2 35 0 9 3 1 5 -18 5 -19 0 -27 -2 -17 -5z"/>
<path d="M260 180 c-21 -7 -21 -8 -5 -9 11 0 27 4 35 9 18 11 5 11 -30 0z"/>
<path d="M340 185 c0 -3 2 -5 5 -5 3 0 5 2 5 5 0 3 -2 5 -5 5 -3 0 -5 -2 -5
-5z"/>
<path d="M473 183 c9 -2 25 -2 35 0 9 3 1 5 -18 5 -19 0 -27 -2 -17 -5z"/>
<path d="M580 180 c-21 -7 -21 -8 -5 -9 11 0 27 4 35 9 18 11 5 11 -30 0z"/>
<path d="M660 185 c0 -3 2 -5 5 -5 3 0 5 2 5 5 0 3 -2 5 -5 5 -3 0 -5 -2 -5
-5z"/>
<path d="M793 183 c9 -2 25 -2 35 0 9 3 1 5 -18 5 -19 0 -27 -2 -17 -5z"/>
<path d="M900 180 c-21 -7 -21 -8 -5 -9 11 0 27 4 35 9 18 11 5 11 -30 0z"/>
<path d="M48 173 c6 -2 18 -2 25 0 6 3 1 5 -13 5 -14 0 -19 -2 -12 -5z"/>
<path d="M368 173 c6 -2 18 -2 25 0 6 3 1 5 -13 5 -14 0 -19 -2 -12 -5z"/>
<path d="M688 173 c6 -2 18 -2 25 0 6 3 1 5 -13 5 -14 0 -19 -2 -12 -5z"/>
<path d="M70 135 c0 -3 2 -5 5 -5 3 0 5 2 5 5 0 3 -2 5 -5 5 -3 0 -5 -2 -5 -5z"/>
<path d="M390 135 c0 -3 2 -5 5 -5 3 0 5 2 5 5 0 3 -2 5 -5 5 -3 0 -5 -2 -5
-5z"/>
<path d="M710 135 c0 -3 2 -5 5 -5 3 0 5 2 5 5 0 3 -2 5 -5 5 -3 0 -5 -2 -5
-5z"/>
<path d="M250 125 c0 -3 2 -5 5 -5 3 0 5 2 5 5 0 3 -2 5 -5 5 -3 0 -5 -2 -5
-5z"/>
<path d="M570 125 c0 -3 2 -5 5 -5 3 0 5 2 5 5 0 3 -2 5 -5 5 -3 0 -5 -2 -5
-5z"/>
<path d="M890 125 c0 -3 2 -5 5 -5 3 0 5 2 5 5 0 3 -2 5 -5 5 -3 0 -5 -2 -5
-5z"/>
<path d="M46 101 c-3 -5 0 -11 8 -14 15 -6 26 1 26 15 0 11 -27 10 -34 -1z"/>
<path d="M140 105 c0 -3 2 -5 5 -5 3 0 5 2 5 5 0 3 -2 5 -5 5 -3 0 -5 -2 -5
-5z"/>
<path d="M170 105 c0 -3 2 -5 5 -5 3 0 5 2 5 5 0 3 -2 5 -5 5 -3 0 -5 -2 -5
-5z"/>
<path d="M215 100 c17 -4 39 -8 50 -8 16 0 15 2 -5 8 -14 4 -36 8 -50 8 -22 0
-22 -1 5 -8z"/>
<path d="M366 101 c-3 -5 0 -11 8 -14 15 -6 26 1 26 15 0 11 -27 10 -34 -1z"/>
<path d="M460 105 c0 -3 2 -5 5 -5 3 0 5 2 5 5 0 3 -2 5 -5 5 -3 0 -5 -2 -5
-5z"/>
<path d="M490 105 c0 -3 2 -5 5 -5 3 0 5 2 5 5 0 3 -2 5 -5 5 -3 0 -5 -2 -5
-5z"/>
<path d="M535 100 c17 -4 39 -8 50 -8 16 0 15 2 -5 8 -14 4 -36 8 -50 8 -22 0
-22 -1 5 -8z"/>
<path d="M686 101 c-3 -5 0 -11 8 -14 15 -6 26 1 26 15 0 11 -27 10 -34 -1z"/>
<path d="M780 105 c0 -3 2 -5 5 -5 3 0 5 2 5 5 0 3 -2 5 -5 5 -3 0 -5 -2 -5
-5z"/>
<path d="M810 105 c0 -3 2 -5 5 -5 3 0 5 2 5 5 0 3 -2 5 -5 5 -3 0 -5 -2 -5
-5z"/>
<path d="M855 100 c17 -4 39 -8 50 -8 16 0 15 2 -5 8 -14 4 -36 8 -50 8 -22 0
-22 -1 5 -8z"/>
<path d="M40 55 c0 -3 2 -5 5 -5 3 0 5 2 5 5 0 3 -2 5 -5 5 -3 0 -5 -2 -5 -5z"/>
<path d="M360 55 c0 -3 2 -5 5 -5 3 0 5 2 5 5 0 3 -2 5 -5 5 -3 0 -5 -2 -5 -5z"/>
<path d="M680 55 c0 -3 2 -5 5 -5 3 0 5 2 5 5 0 3 -2 5 -5 5 -3 0 -5 -2 -5 -5z"/>
<path d="M180 45 c0 -3 2 -5 5 -5 3 0 5 2 5 5 0 3 -2 5 -5 5 -3 0 -5 -2 -5 -5z"/>
<path d="M500 45 c0 -3 2 -5 5 -5 3 0 5 2 5 5 0 3 -2 5 -5 5 -3 0 -5 -2 -5 -5z"/>
<path d="M820 45 c0 -3 2 -5 5 -5 3 0 5 2 5 5 0 3 -2 5 -5 5 -3 0 -5 -2 -5 -5z"/>
<path d="M30 20 c20 -13 50 -13 50 0 0 6 -15 10 -32 10 -25 0 -29 -3 -18 -10z"/>
<path d="M90 25 c0 -3 2 -5 5 -5 3 0 5 2 5 5 0 3 -2 5 -5 5 -3 0 -5 -2 -5 -5z"/>
<path d="M128 23 c7 -3 16 -2 19 1 4 3 -2 6 -13 5 -11 0 -14 -3 -6 -6z"/>
<path d="M160 25 c0 -3 2 -5 5 -5 3 0 5 2 5 5 0 3 -2 5 -5 5 -3 0 -5 -2 -5 -5z"/>
<path d="M198 23 c7 -3 16 -2 19 1 4 3 -2 6 -13 5 -11 0 -14 -3 -6 -6z"/>
<path d="M245 20 c-4 -6 3 -10 14 -10 25 0 27 6 6 13 -8 4 -17 2 -20 -3z"/>
<path d="M350 20 c20 -13 50 -13 50 0 0 6 -15 10 -32 10 -25 0 -29 -3 -18 -10z"/>
<path d="M410 25 c0 -3 2 -5 5 -5 3 0 5 2 5 5 0 3 -2 5 -5 5 -3 0 -5 -2 -5 -5z"/>
<path d="M448 23 c7 -3 16 -2 19 1 4 3 -2 6 -13 5 -11 0 -14 -3 -6 -6z"/>
<path d="M480 25 c0 -3 2 -5 5 -5 3 0 5 2 5 5 0 3 -2 5 -5 5 -3 0 -5 -2 -5 -5z"/>
<path d="M518 23 c7 -3 16 -2 19 1 4 3 -2 6 -13 5 -11 0 -14 -3 -6 -6z"/>
<path d="M565 20 c-4 -6 3 -10 14 -10 25 0 27 6 6 13 -8 4 -17 2 -20 -3z"/>
<path d="M670 20 c20 -13 50 -13 50 0 0 6 -15 10 -32 10 -25 0 -29 -3 -18 -10z"/>
<path d="M730 25 c0 -3 2 -5 5 -5 3 0 5 2 5 5 0 3 -2 5 -5 5 -3 0 -5 -2 -5 -5z"/>
<path d="M768 23 c7 -3 16 -2 19 1 4 3 -2 6 -13 5 -11 0 -14 -3 -6 -6z"/>
<path d="M800 25 c0 -3 2 -5 5 -5 3 0 5 2 5 5 0 3 -2 5 -5 5 -3 0 -5 -2 -5 -5z"/>
<path d="M838 23 c7 -3 16 -2 19 1 4 3 -2 6 -13 5 -11 0 -14 -3 -6 -6z"/>
<path d="M885 20 c-4 -6 3 -10 14 -10 25 0 27 6 6 13 -8 4 -17 2 -20 -3z"/>
</g>
<g transform="translate(0.000000,96.000000) scale(0.100000,-0.100000)"
fill="#836a44" stroke="none">
<path d="M48 893 c6 -2 18 -2 25 0 6 3 1 5 -13 5 -14 0 -19 -2 -12 -5z"/>
<path d="M248 893 c6 -2 18 -2 25 0 6 3 1 5 -13 5 -14 0 -19 -2 -12 -5z"/>
<path d="M368 893 c6 -2 18 -2 25 0 6 3 1 5 -13 5 -14 0 -19 -2 -12 -5z"/>
<path d="M568 893 c6 -2 18 -2 25 0 6 3 1 5 -13 5 -14 0 -19 -2 -12 -5z"/>
<path d="M688 893 c6 -2 18 -2 25 0 6 3 1 5 -13 5 -14 0 -19 -2 -12 -5z"/>
<path d="M888 893 c6 -2 18 -2 25 0 6 3 1 5 -13 5 -14 0 -19 -2 -12 -5z"/>
<path d="M48 813 c6 -2 18 -2 25 0 6 3 1 5 -13 5 -14 0 -19 -2 -12 -5z"/>
<path d="M248 813 c6 -2 18 -2 25 0 6 3 1 5 -13 5 -14 0 -19 -2 -12 -5z"/>
<path d="M368 813 c6 -2 18 -2 25 0 6 3 1 5 -13 5 -14 0 -19 -2 -12 -5z"/>
<path d="M568 813 c6 -2 18 -2 25 0 6 3 1 5 -13 5 -14 0 -19 -2 -12 -5z"/>
<path d="M688 813 c6 -2 18 -2 25 0 6 3 1 5 -13 5 -14 0 -19 -2 -12 -5z"/>
<path d="M888 813 c6 -2 18 -2 25 0 6 3 1 5 -13 5 -14 0 -19 -2 -12 -5z"/>
<path d="M48 733 c6 -2 18 -2 25 0 6 3 1 5 -13 5 -14 0 -19 -2 -12 -5z"/>
<path d="M248 733 c6 -2 18 -2 25 0 6 3 1 5 -13 5 -14 0 -19 -2 -12 -5z"/>
<path d="M368 733 c6 -2 18 -2 25 0 6 3 1 5 -13 5 -14 0 -19 -2 -12 -5z"/>
<path d="M568 733 c6 -2 18 -2 25 0 6 3 1 5 -13 5 -14 0 -19 -2 -12 -5z"/>
<path d="M688 733 c6 -2 18 -2 25 0 6 3 1 5 -13 5 -14 0 -19 -2 -12 -5z"/>
<path d="M888 733 c6 -2 18 -2 25 0 6 3 1 5 -13 5 -14 0 -19 -2 -12 -5z"/>
<path d="M50 660 c-12 -8 -11 -10 8 -10 12 0 22 5 22 10 0 13 -11 13 -30 0z"/>
<path d="M90 665 c0 -3 2 -5 5 -5 3 0 5 2 5 5 0 3 -2 5 -5 5 -3 0 -5 -2 -5 -5z"/>
<path d="M128 663 c7 -3 16 -2 19 1 4 3 -2 6 -13 5 -11 0 -14 -3 -6 -6z"/>
<path d="M245 660 c-4 -6 3 -10 14 -10 25 0 27 6 6 13 -8 4 -17 2 -20 -3z"/>
<path d="M370 660 c-12 -8 -11 -10 8 -10 12 0 22 5 22 10 0 13 -11 13 -30 0z"/>
<path d="M410 665 c0 -3 2 -5 5 -5 3 0 5 2 5 5 0 3 -2 5 -5 5 -3 0 -5 -2 -5
-5z"/>
<path d="M448 663 c7 -3 16 -2 19 1 4 3 -2 6 -13 5 -11 0 -14 -3 -6 -6z"/>
<path d="M565 660 c-4 -6 3 -10 14 -10 25 0 27 6 6 13 -8 4 -17 2 -20 -3z"/>
<path d="M690 660 c-12 -8 -11 -10 8 -10 12 0 22 5 22 10 0 13 -11 13 -30 0z"/>
<path d="M730 665 c0 -3 2 -5 5 -5 3 0 5 2 5 5 0 3 -2 5 -5 5 -3 0 -5 -2 -5
-5z"/>
<path d="M768 663 c7 -3 16 -2 19 1 4 3 -2 6 -13 5 -11 0 -14 -3 -6 -6z"/>
<path d="M885 660 c-4 -6 3 -10 14 -10 25 0 27 6 6 13 -8 4 -17 2 -20 -3z"/>
<path d="M48 573 c6 -2 18 -2 25 0 6 3 1 5 -13 5 -14 0 -19 -2 -12 -5z"/>
<path d="M248 573 c6 -2 18 -2 25 0 6 3 1 5 -13 5 -14 0 -19 -2 -12 -5z"/>
<path d="M368 573 c6 -2 18 -2 25 0 6 3 1 5 -13 5 -14 0 -19 -2 -12 -5z"/>
<path d="M568 573 c6 -2 18 -2 25 0 6 3 1 5 -13 5 -14 0 -19 -2 -12 -5z"/>
<path d="M688 573 c6 -2 18 -2 25 0 6 3 1 5 -13 5 -14 0 -19 -2 -12 -5z"/>
<path d="M888 573 c6 -2 18 -2 25 0 6 3 1 5 -13 5 -14 0 -19 -2 -12 -5z"/>
<path d="M48 493 c6 -2 18 -2 25 0 6 3 1 5 -13 5 -14 0 -19 -2 -12 -5z"/>
<path d="M248 493 c6 -2 18 -2 25 0 6 3 1 5 -13 5 -14 0 -19 -2 -12 -5z"/>
<path d="M368 493 c6 -2 18 -2 25 0 6 3 1 5 -13 5 -14 0 -19 -2 -12 -5z"/>
<path d="M568 493 c6 -2 18 -2 25 0 6 3 1 5 -13 5 -14 0 -19 -2 -12 -5z"/>
<path d="M688 493 c6 -2 18 -2 25 0 6 3 1 5 -13 5 -14 0 -19 -2 -12 -5z"/>
<path d="M888 493 c6 -2 18 -2 25 0 6 3 1 5 -13 5 -14 0 -19 -2 -12 -5z"/>
<path d="M48 413 c6 -2 18 -2 25 0 6 3 1 5 -13 5 -14 0 -19 -2 -12 -5z"/>
<path d="M248 413 c6 -2 18 -2 25 0 6 3 1 5 -13 5 -14 0 -19 -2 -12 -5z"/>
<path d="M368 413 c6 -2 18 -2 25 0 6 3 1 5 -13 5 -14 0 -19 -2 -12 -5z"/>
<path d="M568 413 c6 -2 18 -2 25 0 6 3 1 5 -13 5 -14 0 -19 -2 -12 -5z"/>
<path d="M688 413 c6 -2 18 -2 25 0 6 3 1 5 -13 5 -14 0 -19 -2 -12 -5z"/>
<path d="M888 413 c6 -2 18 -2 25 0 6 3 1 5 -13 5 -14 0 -19 -2 -12 -5z"/>
<path d="M50 340 c-12 -8 -11 -10 8 -10 12 0 22 5 22 10 0 13 -11 13 -30 0z"/>
<path d="M90 345 c0 -3 2 -5 5 -5 3 0 5 2 5 5 0 3 -2 5 -5 5 -3 0 -5 -2 -5 -5z"/>
<path d="M128 343 c7 -3 16 -2 19 1 4 3 -2 6 -13 5 -11 0 -14 -3 -6 -6z"/>
<path d="M245 340 c-4 -6 3 -10 14 -10 25 0 27 6 6 13 -8 4 -17 2 -20 -3z"/>
<path d="M370 340 c-12 -8 -11 -10 8 -10 12 0 22 5 22 10 0 13 -11 13 -30 0z"/>
<path d="M410 345 c0 -3 2 -5 5 -5 3 0 5 2 5 5 0 3 -2 5 -5 5 -3 0 -5 -2 -5
-5z"/>
<path d="M448 343 c7 -3 16 -2 19 1 4 3 -2 6 -13 5 -11 0 -14 -3 -6 -6z"/>
<path d="M565 340 c-4 -6 3 -10 14 -10 25 0 27 6 6 13 -8 4 -17 2 -20 -3z"/>
<path d="M690 340 c-12 -8 -11 -10 8 -10 12 0 22 5 22 10 0 13 -11 13 -30 0z"/>
<path d="M730 345 c0 -3 2 -5 5 -5 3 0 5 2 5 5 0 3 -2 5 -5 5 -3 0 -5 -2 -5
-5z"/>
<path d="M768 343 c7 -3 16 -2 19 1 4 3 -2 6 -13 5 -11 0 -14 -3 -6 -6z"/>
<path d="M885 340 c-4 -6 3 -10 14 -10 25 0 27 6 6 13 -8 4 -17 2 -20 -3z"/>
<path d="M48 253 c6 -2 18 -2 25 0 6 3 1 5 -13 5 -14 0 -19 -2 -12 -5z"/>
<path d="M248 253 c6 -2 18 -2 25 0 6 3 1 5 -13 5 -14 0 -19 -2 -12 -5z"/>
<path d="M368 253 c6 -2 18 -2 25 0 6 3 1 5 -13 5 -14 0 -19 -2 -12 -5z"/>
<path d="M568 253 c6 -2 18 -2 25 0 6 3 1 5 -13 5 -14 0 -19 -2 -12 -5z"/>
<path d="M688 253 c6 -2 18 -2 25 0 6 3 1 5 -13 5 -14 0 -19 -2 -12 -5z"/>
<path d="M888 253 c6 -2 18 -2 25 0 6 3 1 5 -13 5 -14 0 -19 -2 -12 -5z"/>
<path d="M48 173 c6 -2 18 -2 25 0 6 3 1 5 -13 5 -14 0 -19 -2 -12 -5z"/>
<path d="M248 173 c6 -2 18 -2 25 0 6 3 1 5 -13 5 -14 0 -19 -2 -12 -5z"/>
<path d="M368 173 c6 -2 18 -2 25 0 6 3 1 5 -13 5 -14 0 -19 -2 -12 -5z"/>
<path d="M568 173 c6 -2 18 -2 25 0 6 3 1 5 -13 5 -14 0 -19 -2 -12 -5z"/>
<path d="M688 173 c6 -2 18 -2 25 0 6 3 1 5 -13 5 -14 0 -19 -2 -12 -5z"/>
<path d="M888 173 c6 -2 18 -2 25 0 6 3 1 5 -13 5 -14 0 -19 -2 -12 -5z"/>
<path d="M48 93 c6 -2 18 -2 25 0 6 3 1 5 -13 5 -14 0 -19 -2 -12 -5z"/>
<path d="M248 93 c6 -2 18 -2 25 0 6 3 1 5 -13 5 -14 0 -19 -2 -12 -5z"/>
<path d="M368 93 c6 -2 18 -2 25 0 6 3 1 5 -13 5 -14 0 -19 -2 -12 -5z"/>
<path d="M568 93 c6 -2 18 -2 25 0 6 3 1 5 -13 5 -14 0 -19 -2 -12 -5z"/>
<path d="M688 93 c6 -2 18 -2 25 0 6 3 1 5 -13 5 -14 0 -19 -2 -12 -5z"/>
<path d="M888 93 c6 -2 18 -2 25 0 6 3 1 5 -13 5 -14 0 -19 -2 -12 -5z"/>
<path d="M50 20 c-12 -8 -11 -10 8 -10 12 0 22 5 22 10 0 13 -11 13 -30 0z"/>
<path d="M90 25 c0 -3 2 -5 5 -5 3 0 5 2 5 5 0 3 -2 5 -5 5 -3 0 -5 -2 -5 -5z"/>
<path d="M128 23 c7 -3 16 -2 19 1 4 3 -2 6 -13 5 -11 0 -14 -3 -6 -6z"/>
<path d="M245 20 c-4 -6 3 -10 14 -10 25 0 27 6 6 13 -8 4 -17 2 -20 -3z"/>
<path d="M370 20 c-12 -8 -11 -10 8 -10 12 0 22 5 22 10 0 13 -11 13 -30 0z"/>
<path d="M410 25 c0 -3 2 -5 5 -5 3 0 5 2 5 5 0 3 -2 5 -5 5 -3 0 -5 -2 -5 -5z"/>
<path d="M448 23 c7 -3 16 -2 19 1 4 3 -2 6 -13 5 -11 0 -14 -3 -6 -6z"/>
<path d="M565 20 c-4 -6 3 -10 14 -10 25 0 27 6 6 13 -8 4 -17 2 -20 -3z"/>
<path d="M690 20 c-12 -8 -11 -10 8 -10 12 0 22 5 22 10 0 13 -11 13 -30 0z"/>
<path d="M730 25 c0 -3 2 -5 5 -5 3 0 5 2 5 5 0 3 -2 5 -5 5 -3 0 -5 -2 -5 -5z"/>
<path d="M768 23 c7 -3 16 -2 19 1 4 3 -2 6 -13 5 -11 0 -14 -3 -6 -6z"/>
<path d="M885 20 c-4 -6 3 -10 14 -10 25 0 27 6 6 13 -8 4 -17 2 -20 -3z"/>
</g>
<g transform="translate(0.000000,96.000000) scale(0.100000,-0.100000)"
fill="#6f5c36" stroke="none">
<path d="M58 893 c7 -3 16 -2 19 1 4 3 -2 6 -13 5 -11 0 -14 -3 -6 -6z"/>
<path d="M243 893 c4 -3 10 -3 14 0 3 4 0 7 -7 7 -7 0 -10 -3 -7 -7z"/>
<path d="M270 895 c0 -3 2 -5 5 -5 3 0 5 2 5 5 0 3 -2 5 -5 5 -3 0 -5 -2 -5
-5z"/>
<path d="M378 893 c7 -3 16 -2 19 1 4 3 -2 6 -13 5 -11 0 -14 -3 -6 -6z"/>
<path d="M563 893 c4 -3 10 -3 14 0 3 4 0 7 -7 7 -7 0 -10 -3 -7 -7z"/>
<path d="M590 895 c0 -3 2 -5 5 -5 3 0 5 2 5 5 0 3 -2 5 -5 5 -3 0 -5 -2 -5
-5z"/>
<path d="M698 893 c7 -3 16 -2 19 1 4 3 -2 6 -13 5 -11 0 -14 -3 -6 -6z"/>
<path d="M883 893 c4 -3 10 -3 14 0 3 4 0 7 -7 7 -7 0 -10 -3 -7 -7z"/>
<path d="M910 895 c0 -3 2 -5 5 -5 3 0 5 2 5 5 0 3 -2 5 -5 5 -3 0 -5 -2 -5
-5z"/>
<path d="M53 813 c4 -3 10 -3 14 0 3 4 0 7 -7 7 -7 0 -10 -3 -7 -7z"/>
<path d="M240 815 c0 -3 2 -5 5 -5 3 0 5 2 5 5 0 3 -2 5 -5 5 -3 0 -5 -2 -5
-5z"/>
<path d="M260 815 c0 -3 2 -5 5 -5 3 0 5 2 5 5 0 3 -2 5 -5 5 -3 0 -5 -2 -5
-5z"/>
<path d="M373 813 c4 -3 10 -3 14 0 3 4 0 7 -7 7 -7 0 -10 -3 -7 -7z"/>
<path d="M560 815 c0 -3 2 -5 5 -5 3 0 5 2 5 5 0 3 -2 5 -5 5 -3 0 -5 -2 -5
-5z"/>
<path d="M580 815 c0 -3 2 -5 5 -5 3 0 5 2 5 5 0 3 -2 5 -5 5 -3 0 -5 -2 -5
-5z"/>
<path d="M693 813 c4 -3 10 -3 14 0 3 4 0 7 -7 7 -7 0 -10 -3 -7 -7z"/>
<path d="M880 815 c0 -3 2 -5 5 -5 3 0 5 2 5 5 0 3 -2 5 -5 5 -3 0 -5 -2 -5
-5z"/>
<path d="M900 815 c0 -3 2 -5 5 -5 3 0 5 2 5 5 0 3 -2 5 -5 5 -3 0 -5 -2 -5
-5z"/>
<path d="M53 733 c4 -3 10 -3 14 0 3 4 0 7 -7 7 -7 0 -10 -3 -7 -7z"/>
<path d="M248 733 c7 -3 16 -2 19 1 4 3 -2 6 -13 5 -11 0 -14 -3 -6 -6z"/>
<path d="M373 733 c4 -3 10 -3 14 0 3 4 0 7 -7 7 -7 0 -10 -3 -7 -7z"/>
<path d="M568 733 c7 -3 16 -2 19 1 4 3 -2 6 -13 5 -11 0 -14 -3 -6 -6z"/>
<path d="M693 733 c4 -3 10 -3 14 0 3 4 0 7 -7 7 -7 0 -10 -3 -7 -7z"/>
<path d="M888 733 c7 -3 16 -2 19 1 4 3 -2 6 -13 5 -11 0 -14 -3 -6 -6z"/>
<path d="M55 660 c-3 -6 1 -7 9 -4 18 7 21 14 7 14 -6 0 -13 -4 -16 -10z"/>
<path d="M90 665 c0 -3 2 -5 5 -5 3 0 5 2 5 5 0 3 -2 5 -5 5 -3 0 -5 -2 -5 -5z"/>
<path d="M128 663 c7 -3 16 -2 19 1 4 3 -2 6 -13 5 -11 0 -14 -3 -6 -6z"/>
<path d="M250 660 c0 -5 5 -10 11 -10 5 0 7 5 4 10 -3 6 -8 10 -11 10 -2 0 -4
-4 -4 -10z"/>
<path d="M375 660 c-3 -6 1 -7 9 -4 18 7 21 14 7 14 -6 0 -13 -4 -16 -10z"/>
<path d="M410 665 c0 -3 2 -5 5 -5 3 0 5 2 5 5 0 3 -2 5 -5 5 -3 0 -5 -2 -5
-5z"/>
<path d="M448 663 c7 -3 16 -2 19 1 4 3 -2 6 -13 5 -11 0 -14 -3 -6 -6z"/>
<path d="M570 660 c0 -5 5 -10 11 -10 5 0 7 5 4 10 -3 6 -8 10 -11 10 -2 0 -4
-4 -4 -10z"/>
<path d="M695 660 c-3 -6 1 -7 9 -4 18 7 21 14 7 14 -6 0 -13 -4 -16 -10z"/>
<path d="M730 665 c0 -3 2 -5 5 -5 3 0 5 2 5 5 0 3 -2 5 -5 5 -3 0 -5 -2 -5
-5z"/>
<path d="M768 663 c7 -3 16 -2 19 1 4 3 -2 6 -13 5 -11 0 -14 -3 -6 -6z"/>
<path d="M890 660 c0 -5 5 -10 11 -10 5 0 7 5 4 10 -3 6 -8 10 -11 10 -2 0 -4
-4 -4 -10z"/>
<path d="M58 573 c7 -3 16 -2 19 1 4 3 -2 6 -13 5 -11 0 -14 -3 -6 -6z"/>
<path d="M243 573 c4 -3 10 -3 14 0 3 4 0 7 -7 7 -7 0 -10 -3 -7 -7z"/>
<path d="M270 575 c0 -3 2 -5 5 -5 3 0 5 2 5 5 0 3 -2 5 -5 5 -3 0 -5 -2 -5
-5z"/>
<path d="M378 573 c7 -3 16 -2 19 1 4 3 -2 6 -13 5 -11 0 -14 -3 -6 -6z"/>
<path d="M563 573 c4 -3 10 -3 14 0 3 4 0 7 -7 7 -7 0 -10 -3 -7 -7z"/>
<path d="M590 575 c0 -3 2 -5 5 -5 3 0 5 2 5 5 0 3 -2 5 -5 5 -3 0 -5 -2 -5
-5z"/>
<path d="M698 573 c7 -3 16 -2 19 1 4 3 -2 6 -13 5 -11 0 -14 -3 -6 -6z"/>
<path d="M883 573 c4 -3 10 -3 14 0 3 4 0 7 -7 7 -7 0 -10 -3 -7 -7z"/>
<path d="M910 575 c0 -3 2 -5 5 -5 3 0 5 2 5 5 0 3 -2 5 -5 5 -3 0 -5 -2 -5
-5z"/>
<path d="M53 493 c4 -3 10 -3 14 0 3 4 0 7 -7 7 -7 0 -10 -3 -7 -7z"/>
<path d="M240 495 c0 -3 2 -5 5 -5 3 0 5 2 5 5 0 3 -2 5 -5 5 -3 0 -5 -2 -5
-5z"/>
<path d="M260 495 c0 -3 2 -5 5 -5 3 0 5 2 5 5 0 3 -2 5 -5 5 -3 0 -5 -2 -5
-5z"/>
<path d="M373 493 c4 -3 10 -3 14 0 3 4 0 7 -7 7 -7 0 -10 -3 -7 -7z"/>
<path d="M560 495 c0 -3 2 -5 5 -5 3 0 5 2 5 5 0 3 -2 5 -5 5 -3 0 -5 -2 -5
-5z"/>
<path d="M580 495 c0 -3 2 -5 5 -5 3 0 5 2 5 5 0 3 -2 5 -5 5 -3 0 -5 -2 -5
-5z"/>
<path d="M693 493 c4 -3 10 -3 14 0 3 4 0 7 -7 7 -7 0 -10 -3 -7 -7z"/>
<path d="M880 495 c0 -3 2 -5 5 -5 3 0 5 2 5 5 0 3 -2 5 -5 5 -3 0 -5 -2 -5
-5z"/>
<path d="M900 495 c0 -3 2 -5 5 -5 3 0 5 2 5 5 0 3 -2 5 -5 5 -3 0 -5 -2 -5
-5z"/>
<path d="M53 413 c4 -3 10 -3 14 0 3 4 0 7 -7 7 -7 0 -10 -3 -7 -7z"/>
<path d="M248 413 c7 -3 16 -2 19 1 4 3 -2 6 -13 5 -11 0 -14 -3 -6 -6z"/>
<path d="M373 413 c4 -3 10 -3 14 0 3 4 0 7 -7 7 -7 0 -10 -3 -7 -7z"/>
<path d="M568 413 c7 -3 16 -2 19 1 4 3 -2 6 -13 5 -11 0 -14 -3 -6 -6z"/>
<path d="M693 413 c4 -3 10 -3 14 0 3 4 0 7 -7 7 -7 0 -10 -3 -7 -7z"/>
<path d="M888 413 c7 -3 16 -2 19 1 4 3 -2 6 -13 5 -11 0 -14 -3 -6 -6z"/>
<path d="M55 340 c-3 -6 1 -7 9 -4 18 7 21 14 7 14 -6 0 -13 -4 -16 -10z"/>
<path d="M90 345 c0 -3 2 -5 5 -5 3 0 5 2 5 5 0 3 -2 5 -5 5 -3 0 -5 -2 -5 -5z"/>
<path d="M128 343 c7 -3 16 -2 19 1 4 3 -2 6 -13 5 -11 0 -14 -3 -6 -6z"/>
<path d="M250 340 c0 -5 5 -10 11 -10 5 0 7 5 4 10 -3 6 -8 10 -11 10 -2 0 -4
-4 -4 -10z"/>
<path d="M375 340 c-3 -6 1 -7 9 -4 18 7 21 14 7 14 -6 0 -13 -4 -16 -10z"/>
<path d="M410 345 c0 -3 2 -5 5 -5 3 0 5 2 5 5 0 3 -2 5 -5 5 -3 0 -5 -2 -5
-5z"/>
<path d="M448 343 c7 -3 16 -2 19 1 4 3 -2 6 -13 5 -11 0 -14 -3 -6 -6z"/>
<path d="M570 340 c0 -5 5 -10 11 -10 5 0 7 5 4 10 -3 6 -8 10 -11 10 -2 0 -4
-4 -4 -10z"/>
<path d="M695 340 c-3 -6 1 -7 9 -4 18 7 21 14 7 14 -6 0 -13 -4 -16 -10z"/>
<path d="M730 345 c0 -3 2 -5 5 -5 3 0 5 2 5 5 0 3 -2 5 -5 5 -3 0 -5 -2 -5
-5z"/>
<path d="M768 343 c7 -3 16 -2 19 1 4 3 -2 6 -13 5 -11 0 -14 -3 -6 -6z"/>
<path d="M890 340 c0 -5 5 -10 11 -10 5 0 7 5 4 10 -3 6 -8 10 -11 10 -2 0 -4
-4 -4 -10z"/>
<path d="M58 253 c7 -3 16 -2 19 1 4 3 -2 6 -13 5 -11 0 -14 -3 -6 -6z"/>
<path d="M243 253 c4 -3 10 -3 14 0 3 4 0 7 -7 7 -7 0 -10 -3 -7 -7z"/>
<path d="M270 255 c0 -3 2 -5 5 -5 3 0 5 2 5 5 0 3 -2 5 -5 5 -3 0 -5 -2 -5
-5z"/>
<path d="M378 253 c7 -3 16 -2 19 1 4 3 -2 6 -13 5 -11 0 -14 -3 -6 -6z"/>
<path d="M563 253 c4 -3 10 -3 14 0 3 4 0 7 -7 7 -7 0 -10 -3 -7 -7z"/>
<path d="M590 255 c0 -3 2 -5 5 -5 3 0 5 2 5 5 0 3 -2 5 -5 5 -3 0 -5 -2 -5
-5z"/>
<path d="M698 253 c7 -3 16 -2 19 1 4 3 -2 6 -13 5 -11 0 -14 -3 -6 -6z"/>
<path d="M883 253 c4 -3 10 -3 14 0 3 4 0 7 -7 7 -7 0 -10 -3 -7 -7z"/>
<path d="M910 255 c0 -3 2 -5 5 -5 3 0 5 2 5 5 0 3 -2 5 -5 5 -3 0 -5 -2 -5
-5z"/>
<path d="M53 173 c4 -3 10 -3 14 0 3 4 0 7 -7 7 -7 0 -10 -3 -7 -7z"/>
<path d="M240 175 c0 -3 2 -5 5 -5 3 0 5 2 5 5 0 3 -2 5 -5 5 -3 0 -5 -2 -5
-5z"/>
<path d="M260 175 c0 -3 2 -5 5 -5 3 0 5 2 5 5 0 3 -2 5 -5 5 -3 0 -5 -2 -5
-5z"/>
<path d="M373 173 c4 -3 10 -3 14 0 3 4 0 7 -7 7 -7 0 -10 -3 -7 -7z"/>
<path d="M560 175 c0 -3 2 -5 5 -5 3 0 5 2 5 5 0 3 -2 5 -5 5 -3 0 -5 -2 -5
-5z"/>
<path d="M580 175 c0 -3 2 -5 5 -5 3 0 5 2 5 5 0 3 -2 5 -5 5 -3 0 -5 -2 -5
-5z"/>
<path d="M693 173 c4 -3 10 -3 14 0 3 4 0 7 -7 7 -7 0 -10 -3 -7 -7z"/>
<path d="M880 175 c0 -3 2 -5 5 -5 3 0 5 2 5 5 0 3 -2 5 -5 5 -3 0 -5 -2 -5
-5z"/>
<path d="M900 175 c0 -3 2 -5 5 -5 3 0 5 2 5 5 0 3 -2 5 -5 5 -3 0 -5 -2 -5
-5z"/>
<path d="M53 93 c4 -3 10 -3 14 0 3 4 0 7 -7 7 -7 0 -10 -3 -7 -7z"/>
<path d="M248 93 c7 -3 16 -2 19 1 4 3 -2 6 -13 5 -11 0 -14 -3 -6 -6z"/>
<path d="M373 93 c4 -3 10 -3 14 0 3 4 0 7 -7 7 -7 0 -10 -3 -7 -7z"/>
<path d="M568 93 c7 -3 16 -2 19 1 4 3 -2 6 -13 5 -11 0 -14 -3 -6 -6z"/>
<path d="M693 93 c4 -3 10 -3 14 0 3 4 0 7 -7 7 -7 0 -10 -3 -7 -7z"/>
<path d="M888 93 c7 -3 16 -2 19 1 4 3 -2 6 -13 5 -11 0 -14 -3 -6 -6z"/>
<path d="M55 20 c-3 -6 1 -7 9 -4 18 7 21 14 7 14 -6 0 -13 -4 -16 -10z"/>
<path d="M90 25 c0 -3 2 -5 5 -5 3 0 5 2 5 5 0 3 -2 5 -5 5 -3 0 -5 -2 -5 -5z"/>
<path d="M128 23 c7 -3 16 -2 19 1 4 3 -2 6 -13 5 -11 0 -14 -3 -6 -6z"/>
<path d="M250 20 c0 -5 5 -10 11 -10 5 0 7 5 4 10 -3 6 -8 10 -11 10 -2 0 -4
-4 -4 -10z"/>
<path d="M375 20 c-3 -6 1 -7 9 -4 18 7 21 14 7 14 -6 0 -13 -4 -16 -10z"/>
<path d="M410 25 c0 -3 2 -5 5 -5 3 0 5 2 5 5 0 3 -2 5 -5 5 -3 0 -5 -2 -5 -5z"/>
<path d="M448 23 c7 -3 16 -2 19 1 4 3 -2 6 -13 5 -11 0 -14 -3 -6 -6z"/>
<path d="M570 20 c0 -5 5 -10 11 -10 5 0 7 5 4 10 -3 6 -8 10 -11 10 -2 0 -4
-4 -4 -10z"/>
<path d="M695 20 c-3 -6 1 -7 9 -4 18 7 21 14 7 14 -6 0 -13 -4 -16 -10z"/>
<path d="M730 25 c0 -3 2 -5 5 -5 3 0 5 2 5 5 0 3 -2 5 -5 5 -3 0 -5 -2 -5 -5z"/>
<path d="M768 23 c7 -3 16 -2 19 1 4 3 -2 6 -13 5 -11 0 -14 -3 -6 -6z"/>
<path d="M890 20 c0 -5 5 -10 11 -10 5 0 7 5 4 10 -3 6 -8 10 -11 10 -2 0 -4
-4 -4 -10z"/>
</g>
<g transform="translate(0.000000,96.000000) scale(0.100000,-0.100000)"
fill="#7e653f" stroke="none">
<path d="M60 895 c0 -3 2 -5 5 -5 3 0 5 2 5 5 0 3 -2 5 -5 5 -3 0 -5 -2 -5 -5z"/>
<path d="M250 895 c0 -3 2 -5 5 -5 3 0 5 2 5 5 0 3 -2 5 -5 5 -3 0 -5 -2 -5
-5z"/>
<path d="M380 895 c0 -3 2 -5 5 -5 3 0 5 2 5 5 0 3 -2 5 -5 5 -3 0 -5 -2 -5
-5z"/>
<path d="M570 895 c0 -3 2 -5 5 -5 3 0 5 2 5 5 0 3 -2 5 -5 5 -3 0 -5 -2 -5
-5z"/>
<path d="M700 895 c0 -3 2 -5 5 -5 3 0 5 2 5 5 0 3 -2 5 -5 5 -3 0 -5 -2 -5
-5z"/>
<path d="M890 895 c0 -3 2 -5 5 -5 3 0 5 2 5 5 0 3 -2 5 -5 5 -3 0 -5 -2 -5
-5z"/>
<path d="M50 815 c0 -3 2 -5 5 -5 3 0 5 2 5 5 0 3 -2 5 -5 5 -3 0 -5 -2 -5 -5z"/>
<path d="M240 815 c0 -3 2 -5 5 -5 3 0 5 2 5 5 0 3 -2 5 -5 5 -3 0 -5 -2 -5
-5z"/>
<path d="M260 815 c0 -3 2 -5 5 -5 3 0 5 2 5 5 0 3 -2 5 -5 5 -3 0 -5 -2 -5
-5z"/>
<path d="M370 815 c0 -3 2 -5 5 -5 3 0 5 2 5 5 0 3 -2 5 -5 5 -3 0 -5 -2 -5
-5z"/>
<path d="M560 815 c0 -3 2 -5 5 -5 3 0 5 2 5 5 0 3 -2 5 -5 5 -3 0 -5 -2 -5
-5z"/>
<path d="M580 815 c0 -3 2 -5 5 -5 3 0 5 2 5 5 0 3 -2 5 -5 5 -3 0 -5 -2 -5
-5z"/>
<path d="M690 815 c0 -3 2 -5 5 -5 3 0 5 2 5 5 0 3 -2 5 -5 5 -3 0 -5 -2 -5
-5z"/>
<path d="M880 815 c0 -3 2 -5 5 -5 3 0 5 2 5 5 0 3 -2 5 -5 5 -3 0 -5 -2 -5
-5z"/>
<path d="M900 815 c0 -3 2 -5 5 -5 3 0 5 2 5 5 0 3 -2 5 -5 5 -3 0 -5 -2 -5
-5z"/>
<path d="M50 735 c0 -3 2 -5 5 -5 3 0 5 2 5 5 0 3 -2 5 -5 5 -3 0 -5 -2 -5 -5z"/>
<path d="M240 735 c0 -3 2 -5 5 -5 3 0 5 2 5 5 0 3 -2 5 -5 5 -3 0 -5 -2 -5
-5z"/>
<path d="M370 735 c0 -3 2 -5 5 -5 3 0 5 2 5 5 0 3 -2 5 -5 5 -3 0 -5 -2 -5
-5z"/>
<path d="M560 735 c0 -3 2 -5 5 -5 3 0 5 2 5 5 0 3 -2 5 -5 5 -3 0 -5 -2 -5
-5z"/>
<path d="M690 735 c0 -3 2 -5 5 -5 3 0 5 2 5 5 0 3 -2 5 -5 5 -3 0 -5 -2 -5
-5z"/>
<path d="M880 735 c0 -3 2 -5 5 -5 3 0 5 2 5 5 0 3 -2 5 -5 5 -3 0 -5 -2 -5
-5z"/>
<path d="M63 663 c4 -3 10 -3 14 0 3 4 0 7 -7 7 -7 0 -10 -3 -7 -7z"/>
<path d="M90 665 c0 -3 2 -5 5 -5 3 0 5 2 5 5 0 3 -2 5 -5 5 -3 0 -5 -2 -5 -5z"/>
<path d="M128 663 c7 -3 16 -2 19 1 4 3 -2 6 -13 5 -11 0 -14 -3 -6 -6z"/>
<path d="M250 660 c0 -7 3 -10 7 -7 3 4 3 10 0 14 -4 3 -7 0 -7 -7z"/>
<path d="M383 663 c4 -3 10 -3 14 0 3 4 0 7 -7 7 -7 0 -10 -3 -7 -7z"/>
<path d="M410 665 c0 -3 2 -5 5 -5 3 0 5 2 5 5 0 3 -2 5 -5 5 -3 0 -5 -2 -5
-5z"/>
<path d="M448 663 c7 -3 16 -2 19 1 4 3 -2 6 -13 5 -11 0 -14 -3 -6 -6z"/>
<path d="M570 660 c0 -7 3 -10 7 -7 3 4 3 10 0 14 -4 3 -7 0 -7 -7z"/>
<path d="M703 663 c4 -3 10 -3 14 0 3 4 0 7 -7 7 -7 0 -10 -3 -7 -7z"/>
<path d="M730 665 c0 -3 2 -5 5 -5 3 0 5 2 5 5 0 3 -2 5 -5 5 -3 0 -5 -2 -5
-5z"/>
<path d="M768 663 c7 -3 16 -2 19 1 4 3 -2 6 -13 5 -11 0 -14 -3 -6 -6z"/>
<path d="M890 660 c0 -7 3 -10 7 -7 3 4 3 10 0 14 -4 3 -7 0 -7 -7z"/>
<path d="M60 575 c0 -3 2 -5 5 -5 3 0 5 2 5 5 0 3 -2 5 -5 5 -3 0 -5 -2 -5 -5z"/>
<path d="M250 575 c0 -3 2 -5 5 -5 3 0 5 2 5 5 0 3 -2 5 -5 5 -3 0 -5 -2 -5
-5z"/>
<path d="M380 575 c0 -3 2 -5 5 -5 3 0 5 2 5 5 0 3 -2 5 -5 5 -3 0 -5 -2 -5
-5z"/>
<path d="M570 575 c0 -3 2 -5 5 -5 3 0 5 2 5 5 0 3 -2 5 -5 5 -3 0 -5 -2 -5
-5z"/>
<path d="M700 575 c0 -3 2 -5 5 -5 3 0 5 2 5 5 0 3 -2 5 -5 5 -3 0 -5 -2 -5
-5z"/>
<path d="M890 575 c0 -3 2 -5 5 -5 3 0 5 2 5 5 0 3 -2 5 -5 5 -3 0 -5 -2 -5
-5z"/>
<path d="M50 495 c0 -3 2 -5 5 -5 3 0 5 2 5 5 0 3 -2 5 -5 5 -3 0 -5 -2 -5 -5z"/>
<path d="M240 495 c0 -3 2 -5 5 -5 3 0 5 2 5 5 0 3 -2 5 -5 5 -3 0 -5 -2 -5
-5z"/>
<path d="M260 495 c0 -3 2 -5 5 -5 3 0 5 2 5 5 0 3 -2 5 -5 5 -3 0 -5 -2 -5
-5z"/>
<path d="M370 495 c0 -3 2 -5 5 -5 3 0 5 2 5 5 0 3 -2 5 -5 5 -3 0 -5 -2 -5
-5z"/>
<path d="M560 495 c0 -3 2 -5 5 -5 3 0 5 2 5 5 0 3 -2 5 -5 5 -3 0 -5 -2 -5
-5z"/>
<path d="M580 495 c0 -3 2 -5 5 -5 3 0 5 2 5 5 0 3 -2 5 -5 5 -3 0 -5 -2 -5
-5z"/>
<path d="M690 495 c0 -3 2 -5 5 -5 3 0 5 2 5 5 0 3 -2 5 -5 5 -3 0 -5 -2 -5
-5z"/>
<path d="M880 495 c0 -3 2 -5 5 -5 3 0 5 2 5 5 0 3 -2 5 -5 5 -3 0 -5 -2 -5
-5z"/>
<path d="M900 495 c0 -3 2 -5 5 -5 3 0 5 2 5 5 0 3 -2 5 -5 5 -3 0 -5 -2 -5
-5z"/>
<path d="M50 415 c0 -3 2 -5 5 -5 3 0 5 2 5 5 0 3 -2 5 -5 5 -3 0 -5 -2 -5 -5z"/>
<path d="M240 415 c0 -3 2 -5 5 -5 3 0 5 2 5 5 0 3 -2 5 -5 5 -3 0 -5 -2 -5
-5z"/>
<path d="M370 415 c0 -3 2 -5 5 -5 3 0 5 2 5 5 0 3 -2 5 -5 5 -3 0 -5 -2 -5
-5z"/>
<path d="M560 415 c0 -3 2 -5 5 -5 3 0 5 2 5 5 0 3 -2 5 -5 5 -3 0 -5 -2 -5
-5z"/>
<path d="M690 415 c0 -3 2 -5 5 -5 3 0 5 2 5 5 0 3 -2 5 -5 5 -3 0 -5 -2 -5
-5z"/>
<path d="M880 415 c0 -3 2 -5 5 -5 3 0 5 2 5 5 0 3 -2 5 -5 5 -3 0 -5 -2 -5
-5z"/>
<path d="M63 343 c4 -3 10 -3 14 0 3 4 0 7 -7 7 -7 0 -10 -3 -7 -7z"/>
<path d="M90 345 c0 -3 2 -5 5 -5 3 0 5 2 5 5 0 3 -2 5 -5 5 -3 0 -5 -2 -5 -5z"/>
<path d="M128 343 c7 -3 16 -2 19 1 4 3 -2 6 -13 5 -11 0 -14 -3 -6 -6z"/>
<path d="M250 340 c0 -7 3 -10 7 -7 3 4 3 10 0 14 -4 3 -7 0 -7 -7z"/>
<path d="M383 343 c4 -3 10 -3 14 0 3 4 0 7 -7 7 -7 0 -10 -3 -7 -7z"/>
<path d="M410 345 c0 -3 2 -5 5 -5 3 0 5 2 5 5 0 3 -2 5 -5 5 -3 0 -5 -2 -5
-5z"/>
<path d="M448 343 c7 -3 16 -2 19 1 4 3 -2 6 -13 5 -11 0 -14 -3 -6 -6z"/>
<path d="M570 340 c0 -7 3 -10 7 -7 3 4 3 10 0 14 -4 3 -7 0 -7 -7z"/>
<path d="M703 343 c4 -3 10 -3 14 0 3 4 0 7 -7 7 -7 0 -10 -3 -7 -7z"/>
<path d="M730 345 c0 -3 2 -5 5 -5 3 0 5 2 5 5 0 3 -2 5 -5 5 -3 0 -5 -2 -5
-5z"/>
<path d="M768 343 c7 -3 16 -2 19 1 4 3 -2 6 -13 5 -11 0 -14 -3 -6 -6z"/>
<path d="M890 340 c0 -7 3 -10 7 -7 3 4 3 10 0 14 -4 3 -7 0 -7 -7z"/>
<path d="M60 255 c0 -3 2 -5 5 -5 3 0 5 2 5 5 0 3 -2 5 -5 5 -3 0 -5 -2 -5 -5z"/>
<path d="M250 255 c0 -3 2 -5 5 -5 3 0 5 2 5 5 0 3 -2 5 -5 5 -3 0 -5 -2 -5
-5z"/>
<path d="M380 255 c0 -3 2 -5 5 -5 3 0 5 2 5 5 0 3 -2 5 -5 5 -3 0 -5 -2 -5
-5z"/>
<path d="M570 255 c0 -3 2 -5 5 -5 3 0 5 2 5 5 0 3 -2 5 -5 5 -3 0 -5 -2 -5
-5z"/>
<path d="M700 255 c0 -3 2 -5 5 -5 3 0 5 2 5 5 0 3 -2 5 -5 5 -3 0 -5 -2 -5
-5z"/>
<path d="M890 255 c0 -3 2 -5 5 -5 3 0 5 2 5 5 0 3 -2 5 -5 5 -3 0 -5 -2 -5
-5z"/>
<path d="M50 175 c0 -3 2 -5 5 -5 3 0 5 2 5 5 0 3 -2 5 -5 5 -3 0 -5 -2 -5 -5z"/>
<path d="M240 175 c0 -3 2 -5 5 -5 3 0 5 2 5 5 0 3 -2 5 -5 5 -3 0 -5 -2 -5
-5z"/>
<path d="M260 175 c0 -3 2 -5 5 -5 3 0 5 2 5 5 0 3 -2 5 -5 5 -3 0 -5 -2 -5
-5z"/>
<path d="M370 175 c0 -3 2 -5 5 -5 3 0 5 2 5 5 0 3 -2 5 -5 5 -3 0 -5 -2 -5
-5z"/>
<path d="M560 175 c0 -3 2 -5 5 -5 3 0 5 2 5 5 0 3 -2 5 -5 5 -3 0 -5 -2 -5
-5z"/>
<path d="M580 175 c0 -3 2 -5 5 -5 3 0 5 2 5 5 0 3 -2 5 -5 5 -3 0 -5 -2 -5
-5z"/>
<path d="M690 175 c0 -3 2 -5 5 -5 3 0 5 2 5 5 0 3 -2 5 -5 5 -3 0 -5 -2 -5
-5z"/>
<path d="M880 175 c0 -3 2 -5 5 -5 3 0 5 2 5 5 0 3 -2 5 -5 5 -3 0 -5 -2 -5
-5z"/>
<path d="M900 175 c0 -3 2 -5 5 -5 3 0 5 2 5 5 0 3 -2 5 -5 5 -3 0 -5 -2 -5
-5z"/>
<path d="M50 95 c0 -3 2 -5 5 -5 3 0 5 2 5 5 0 3 -2 5 -5 5 -3 0 -5 -2 -5 -5z"/>
<path d="M240 95 c0 -3 2 -5 5 -5 3 0 5 2 5 5 0 3 -2 5 -5 5 -3 0 -5 -2 -5 -5z"/>
<path d="M370 95 c0 -3 2 -5 5 -5 3 0 5 2 5 5 0 3 -2 5 -5 5 -3 0 -5 -2 -5 -5z"/>
<path d="M560 95 c0 -3 2 -5 5 -5 3 0 5 2 5 5 0 3 -2 5 -5 5 -3 0 -5 -2 -5 -5z"/>
<path d="M690 95 c0 -3 2 -5 5 -5 3 0 5 2 5 5 0 3 -2 5 -5 5 -3 0 -5 -2 -5 -5z"/>
<path d="M880 95 c0 -3 2 -5 5 -5 3 0 5 2 5 5 0 3 -2 5 -5 5 -3 0 -5 -2 -5 -5z"/>
<path d="M63 23 c4 -3 10 -3 14 0 3 4 0 7 -7 7 -7 0 -10 -3 -7 -7z"/>
<path d="M90 25 c0 -3 2 -5 5 -5 3 0 5 2 5 5 0 3 -2 5 -5 5 -3 0 -5 -2 -5 -5z"/>
<path d="M128 23 c7 -3 16 -2 19 1 4 3 -2 6 -13 5 -11 0 -14 -3 -6 -6z"/>
<path d="M250 20 c0 -7 3 -10 7 -7 3 4 3 10 0 14 -4 3 -7 0 -7 -7z"/>
<path d="M383 23 c4 -3 10 -3 14 0 3 4 0 7 -7 7 -7 0 -10 -3 -7 -7z"/>
<path d="M410 25 c0 -3 2 -5 5 -5 3 0 5 2 5 5 0 3 -2 5 -5 5 -3 0 -5 -2 -5 -5z"/>
<path d="M448 23 c7 -3 16 -2 19 1 4 3 -2 6 -13 5 -11 0 -14 -3 -6 -6z"/>
<path d="M570 20 c0 -7 3 -10 7 -7 3 4 3 10 0 14 -4 3 -7 0 -7 -7z"/>
<path d="M703 23 c4 -3 10 -3 14 0 3 4 0 7 -7 7 -7 0 -10 -3 -7 -7z"/>
<path d="M730 25 c0 -3 2 -5 5 -5 3 0 5 2 5 5 0 3 -2 5 -5 5 -3 0 -5 -2 -5 -5z"/>
<path d="M768 23 c7 -3 16 -2 19 1 4 3 -2 6 -13 5 -11 0 -14 -3 -6 -6z"/>
<path d="M890 20 c0 -7 3 -10 7 -7 3 4 3 10 0 14 -4 3 -7 0 -7 -7z"/>
</g>
<g transform="translate(0.000000,96.000000) scale(0.100000,-0.100000)"
fill="#7c623e" stroke="none">
<path d="M63 663 c4 -3 10 -3 14 0 3 4 0 7 -7 7 -7 0 -10 -3 -7 -7z"/>
<path d="M90 665 c0 -3 2 -5 5 -5 3 0 5 2 5 5 0 3 -2 5 -5 5 -3 0 -5 -2 -5 -5z"/>
<path d="M128 663 c7 -3 16 -2 19 1 4 3 -2 6 -13 5 -11 0 -14 -3 -6 -6z"/>
<path d="M250 665 c0 -3 2 -5 5 -5 3 0 5 2 5 5 0 3 -2 5 -5 5 -3 0 -5 -2 -5
-5z"/>
<path d="M383 663 c4 -3 10 -3 14 0 3 4 0 7 -7 7 -7 0 -10 -3 -7 -7z"/>
<path d="M410 665 c0 -3 2 -5 5 -5 3 0 5 2 5 5 0 3 -2 5 -5 5 -3 0 -5 -2 -5
-5z"/>
<path d="M448 663 c7 -3 16 -2 19 1 4 3 -2 6 -13 5 -11 0 -14 -3 -6 -6z"/>
<path d="M570 665 c0 -3 2 -5 5 -5 3 0 5 2 5 5 0 3 -2 5 -5 5 -3 0 -5 -2 -5
-5z"/>
<path d="M703 663 c4 -3 10 -3 14 0 3 4 0 7 -7 7 -7 0 -10 -3 -7 -7z"/>
<path d="M730 665 c0 -3 2 -5 5 -5 3 0 5 2 5 5 0 3 -2 5 -5 5 -3 0 -5 -2 -5
-5z"/>
<path d="M768 663 c7 -3 16 -2 19 1 4 3 -2 6 -13 5 -11 0 -14 -3 -6 -6z"/>
<path d="M890 665 c0 -3 2 -5 5 -5 3 0 5 2 5 5 0 3 -2 5 -5 5 -3 0 -5 -2 -5
-5z"/>
<path d="M63 343 c4 -3 10 -3 14 0 3 4 0 7 -7 7 -7 0 -10 -3 -7 -7z"/>
<path d="M90 345 c0 -3 2 -5 5 -5 3 0 5 2 5 5 0 3 -2 5 -5 5 -3 0 -5 -2 -5 -5z"/>
<path d="M128 343 c7 -3 16 -2 19 1 4 3 -2 6 -13 5 -11 0 -14 -3 -6 -6z"/>
<path d="M250 345 c0 -3 2 -5 5 -5 3 0 5 2 5 5 0 3 -2 5 -5 5 -3 0 -5 -2 -5
-5z"/>
<path d="M383 343 c4 -3 10 -3 14 0 3 4 0 7 -7 7 -7 0 -10 -3 -7 -7z"/>
<path d="M410 345 c0 -3 2 -5 5 -5 3 0 5 2 5 5 0 3 -2 5 -5 5 -3 0 -5 -2 -5
-5z"/>
<path d="M448 343 c7 -3 16 -2 19 1 4 3 -2 6 -13 5 -11 0 -14 -3 -6 -6z"/>
<path d="M570 345 c0 -3 2 -5 5 -5 3 0 5 2 5 5 0 3 -2 5 -5 5 -3 0 -5 -2 -5
-5z"/>
<path d="M703 343 c4 -3 10 -3 14 0 3 4 0 7 -7 7 -7 0 -10 -3 -7 -7z"/>
<path d="M730 345 c0 -3 2 -5 5 -5 3 0 5 2 5 5 0 3 -2 5 -5 5 -3 0 -5 -2 -5
-5z"/>
<path d="M768 343 c7 -3 16 -2 19 1 4 3 -2 6 -13 5 -11 0 -14 -3 -6 -6z"/>
<path d="M890 345 c0 -3 2 -5 5 -5 3 0 5 2 5 5 0 3 -2 5 -5 5 -3 0 -5 -2 -5
-5z"/>
<path d="M63 23 c4 -3 10 -3 14 0 3 4 0 7 -7 7 -7 0 -10 -3 -7 -7z"/>
<path d="M90 25 c0 -3 2 -5 5 -5 3 0 5 2 5 5 0 3 -2 5 -5 5 -3 0 -5 -2 -5 -5z"/>
<path d="M128 23 c7 -3 16 -2 19 1 4 3 -2 6 -13 5 -11 0 -14 -3 -6 -6z"/>
<path d="M250 25 c0 -3 2 -5 5 -5 3 0 5 2 5 5 0 3 -2 5 -5 5 -3 0 -5 -2 -5 -5z"/>
<path d="M383 23 c4 -3 10 -3 14 0 3 4 0 7 -7 7 -7 0 -10 -3 -7 -7z"/>
<path d="M410 25 c0 -3 2 -5 5 -5 3 0 5 2 5 5 0 3 -2 5 -5 5 -3 0 -5 -2 -5 -5z"/>
<path d="M448 23 c7 -3 16 -2 19 1 4 3 -2 6 -13 5 -11 0 -14 -3 -6 -6z"/>
<path d="M570 25 c0 -3 2 -5 5 -5 3 0 5 2 5 5 0 3 -2 5 -5 5 -3 0 -5 -2 -5 -5z"/>
<path d="M703 23 c4 -3 10 -3 14 0 3 4 0 7 -7 7 -7 0 -10 -3 -7 -7z"/>
<path d="M730 25 c0 -3 2 -5 5 -5 3 0 5 2 5 5 0 3 -2 5 -5 5 -3 0 -5 -2 -5 -5z"/>
<path d="M768 23 c7 -3 16 -2 19 1 4 3 -2 6 -13 5 -11 0 -14 -3 -6 -6z"/>
<path d="M890 25 c0 -3 2 -5 5 -5 3 0 5 2 5 5 0 3 -2 5 -5 5 -3 0 -5 -2 -5 -5z"/>
</g>
<g transform="translate(0.000000,96.000000) scale(0.100000,-0.100000)"
fill="#4c3d26" stroke="none">
<path d="M250 665 c0 -3 2 -5 5 -5 3 0 5 2 5 5 0 3 -2 5 -5 5 -3 0 -5 -2 -5
-5z"/>
<path d="M570 665 c0 -3 2 -5 5 -5 3 0 5 2 5 5 0 3 -2 5 -5 5 -3 0 -5 -2 -5
-5z"/>
<path d="M890 665 c0 -3 2 -5 5 -5 3 0 5 2 5 5 0 3 -2 5 -5 5 -3 0 -5 -2 -5
-5z"/>
<path d="M250 345 c0 -3 2 -5 5 -5 3 0 5 2 5 5 0 3 -2 5 -5 5 -3 0 -5 -2 -5
-5z"/>
<path d="M570 345 c0 -3 2 -5 5 -5 3 0 5 2 5 5 0 3 -2 5 -5 5 -3 0 -5 -2 -5
-5z"/>
<path d="M890 345 c0 -3 2 -5 5 -5 3 0 5 2 5 5 0 3 -2 5 -5 5 -3 0 -5 -2 -5
-5z"/>
<path d="M250 25 c0 -3 2 -5 5 -5 3 0 5 2 5 5 0 3 -2 5 -5 5 -3 0 -5 -2 -5 -5z"/>
<path d="M570 25 c0 -3 2 -5 5 -5 3 0 5 2 5 5 0 3 -2 5 -5 5 -3 0 -5 -2 -5 -5z"/>
<path d="M890 25 c0 -3 2 -5 5 -5 3 0 5 2 5 5 0 3 -2 5 -5 5 -3 0 -5 -2 -5 -5z"/>
</g>
  </g>
</svg>
