<?xml version="1.0" encoding="UTF-8" standalone="no"?>
<!-- Created with Inkscape (http://www.inkscape.org/) -->

<svg
   xmlns:dc="http://purl.org/dc/elements/1.1/"
   xmlns:cc="http://creativecommons.org/ns#"
   xmlns:rdf="http://www.w3.org/1999/02/22-rdf-syntax-ns#"
   xmlns:svg="http://www.w3.org/2000/svg"
   xmlns="http://www.w3.org/2000/svg"
   xmlns:sodipodi="http://sodipodi.sourceforge.net/DTD/sodipodi-0.dtd"
   xmlns:inkscape="http://www.inkscape.org/namespaces/inkscape"
   width="32px"
   height="32px"
   viewBox="0 0 32px 32px"
   version="1.1"
   id="svgMain"
   inkscape:version="0.92.2 (5c3e80d, 2017-08-06)"
   sodipodi:docname="reference_SVG.svg">
  <defs
     id="defs4542" />
  <sodipodi:namedview
     id="base"
     pagecolor="#ffffff"
     bordercolor="#666666"
     borderopacity="1.0"
     inkscape:pageopacity="0.0"
     inkscape:pageshadow="2"
     inkscape:zoom="1"
     inkscape:cx="0"
     inkscape:cy="0"
     inkscape:document-units="px"
     inkscape:current-layer="layer1"
     showgrid="false"
     units="px"
     inkscape:window-width="1024"
     inkscape:window-height="768"
     inkscape:window-x="-8"
     inkscape:window-y="-8"
     inkscape:window-maximized="1" />
  <metadata
     id="metadata1">
    <rdf:RDF>
      <cc:Work
         rdf:about="">
        <dc:format>image/svg+xml</dc:format>
        <dc:type
           rdf:resource="http://purl.org/dc/dcmitype/StillImage" />
        <dc:title />
      </cc:Work>
    </rdf:RDF>
  </metadata>
  <g transform="translate(-32,-32)"
     inkscape:label="Layer 1"
     inkscape:groupmode="layer"
     id="layer1">
    <!-- INSERT MARKER -->
<g transform="translate(0.000000,96.000000) scale(0.100000,-0.100000)"
fill="#777777" stroke="none">
<path d="M0 480 l0 -480 480 0 480 0 0 480 0 480 -480 0 -480 0 0 -480z"/>
</g>
<g transform="translate(0.000000,96.000000) scale(0.100000,-0.100000)"
fill="#8f8f8f" stroke="none">
<path d="M114 950 c-5 -5 -26 -10 -46 -12 -36 -2 -37 -3 -24 -23 8 -11 21 -19
29 -17 9 1 18 -2 22 -8 12 -19 33 -11 28 10 -6 23 21 28 47 9 12 -9 11 -10 -7
-6 -22 5 -32 -11 -17 -26 11 -11 46 14 40 29 -4 10 3 14 24 14 31 0 40 14 16
23 -7 3 -23 -1 -35 -9 -15 -11 -26 -12 -38 -5 -11 6 -13 11 -5 11 17 0 5 20
-12 20 -6 0 -16 -4 -22 -10z"/>
<path d="M190 955 c0 -3 2 -5 5 -5 3 0 5 2 5 5 0 3 -2 5 -5 5 -3 0 -5 -2 -5
-5z"/>
<path d="M428 950 c-1 -5 -15 -11 -30 -12 -15 -1 -24 -6 -22 -10 3 -4 0 -8 -7
-8 -7 0 -5 -8 6 -20 13 -14 21 -17 26 -9 5 8 8 8 13 0 11 -18 26 -13 26 9 0
13 7 20 20 20 11 0 20 -5 20 -11 0 -5 -5 -7 -11 -3 -7 4 -10 -1 -7 -11 4 -25
44 -27 45 -3 1 11 -3 16 -9 12 -7 -4 -8 -2 -4 4 9 15 53 16 61 2 3 -5 15 -10
26 -10 10 0 19 5 19 10 0 6 -9 10 -19 10 -11 0 -21 6 -24 13 -3 9 -11 9 -37 0
-21 -8 -39 -9 -49 -3 -11 6 -12 9 -3 10 7 0 10 5 7 10 -8 13 -42 13 -47 0z"/>
<path d="M510 949 c0 -5 5 -7 10 -4 6 3 10 8 10 11 0 2 -4 4 -10 4 -5 0 -10
-5 -10 -11z"/>
<path d="M640 955 c0 -3 2 -5 5 -5 3 0 5 2 5 5 0 3 -2 5 -5 5 -3 0 -5 -2 -5
-5z"/>
<path d="M755 950 c-3 -5 -20 -10 -36 -10 -18 0 -28 -4 -24 -10 3 -5 1 -10 -5
-10 -6 0 -8 -5 -4 -12 5 -7 2 -9 -9 -5 -9 3 -18 -1 -21 -10 -8 -19 -8 -18 22
-28 19 -5 23 -3 20 12 -3 19 12 21 45 8 13 -5 17 -2 17 12 0 10 9 25 19 33 11
7 18 17 15 22 -7 11 -32 10 -39 -2z"/>
<path d="M826 945 c11 -27 94 -59 94 -35 0 6 -9 10 -20 10 -11 0 -20 5 -20 10
0 6 -9 10 -20 10 -11 0 -20 5 -20 10 0 6 -4 10 -10 10 -5 0 -7 -7 -4 -15z"/>
<path d="M850 955 c0 -3 2 -5 5 -5 3 0 5 2 5 5 0 3 -2 5 -5 5 -3 0 -5 -2 -5
-5z"/>
<path d="M0 945 c0 -3 2 -5 5 -5 3 0 5 2 5 5 0 3 -2 5 -5 5 -3 0 -5 -2 -5 -5z"/>
<path d="M330 945 c0 -3 2 -5 5 -5 3 0 5 2 5 5 0 3 -2 5 -5 5 -3 0 -5 -2 -5
-5z"/>
<path d="M280 935 c0 -3 2 -5 5 -5 3 0 5 2 5 5 0 3 -2 5 -5 5 -3 0 -5 -2 -5
-5z"/>
<path d="M350 935 c0 -3 2 -5 5 -5 3 0 5 2 5 5 0 3 -2 5 -5 5 -3 0 -5 -2 -5
-5z"/>
<path d="M794 915 c3 -8 2 -14 -2 -14 -19 3 -23 -2 -12 -15 6 -8 17 -13 25
-10 7 3 16 1 19 -5 4 -6 14 -7 23 -4 13 5 13 3 -2 -20 -17 -26 -17 -27 5 -27
13 0 24 8 27 20 5 18 15 24 36 21 4 0 7 3 7 9 0 11 -17 14 -68 11 -21 -1 -31
2 -27 9 3 5 1 10 -5 10 -6 0 -9 4 -6 9 3 5 -1 12 -10 15 -12 4 -15 2 -10 -9z"/>
<path d="M240 910 c0 -5 9 -10 20 -10 11 0 20 5 20 10 0 6 -9 10 -20 10 -11 0
-20 -4 -20 -10z"/>
<path d="M630 915 c0 -3 2 -5 5 -5 3 0 5 2 5 5 0 3 -2 5 -5 5 -3 0 -5 -2 -5
-5z"/>
<path d="M200 905 c0 -3 2 -5 5 -5 3 0 5 2 5 5 0 3 -2 5 -5 5 -3 0 -5 -2 -5
-5z"/>
<path d="M220 905 c0 -3 2 -5 5 -5 3 0 5 2 5 5 0 3 -2 5 -5 5 -3 0 -5 -2 -5
-5z"/>
<path d="M20 890 c-17 -10 -14 -15 18 -24 24 -8 25 -6 16 18 -7 18 -13 19 -34
6z"/>
<path d="M333 880 c1 -11 10 -17 24 -17 24 0 28 5 15 23 -11 17 -41 13 -39 -6z"/>
<path d="M630 895 c0 -3 2 -5 5 -5 3 0 5 2 5 5 0 3 -2 5 -5 5 -3 0 -5 -2 -5
-5z"/>
<path d="M80 885 c0 -3 2 -5 5 -5 3 0 5 2 5 5 0 3 -2 5 -5 5 -3 0 -5 -2 -5 -5z"/>
<path d="M206 880 c-14 -4 -16 -9 -8 -14 8 -5 9 -13 2 -26 -9 -17 -5 -19 50
-22 50 -2 58 -1 43 10 -9 6 -23 12 -31 12 -7 0 -20 7 -28 15 -13 13 -12 14 15
9 17 -4 31 -4 31 -1 0 11 -56 24 -74 17z"/>
<path d="M523 865 c4 -8 2 -17 -3 -20 -22 -14 -7 -23 35 -23 31 0 45 4 45 13
0 8 -7 11 -19 8 -10 -3 -21 2 -24 10 -4 10 1 13 19 9 14 -2 24 0 24 7 0 6 -17
11 -41 11 -32 0 -40 -3 -36 -15z"/>
<path d="M610 875 c0 -3 2 -5 5 -5 3 0 5 2 5 5 0 3 -2 5 -5 5 -3 0 -5 -2 -5
-5z"/>
<path d="M80 840 l-25 -20 35 -1 c66 -3 79 3 60 26 -17 20 -40 19 -70 -5z"/>
<path d="M406 845 c-22 -16 -50 -20 -42 -6 4 5 -2 8 -11 7 -12 -2 -18 -12 -18
-27 0 -23 -17 -32 -40 -20 -5 3 -18 6 -27 6 -14 1 -17 -3 -11 -19 3 -12 5 -36
4 -53 -2 -36 12 -42 42 -19 16 12 16 14 1 20 -9 3 -21 3 -27 0 -7 -3 -4 1 6 9
18 15 24 33 8 22 -5 -3 -12 -2 -15 3 -2 4 19 8 47 8 47 0 52 2 55 23 3 21 8
23 41 18 21 -2 45 0 55 5 16 9 16 11 -1 24 -23 17 -43 17 -67 -1z m-56 -10 c0
-3 -2 -5 -5 -5 -3 0 -5 2 -5 5 0 3 2 5 5 5 3 0 5 -2 5 -5z"/>
<path d="M735 850 c-4 -6 -10 -8 -15 -5 -4 3 -10 -2 -14 -10 -4 -11 1 -15 18
-15 14 0 30 -2 38 -5 7 -3 19 -1 27 4 12 8 12 12 2 25 -15 18 -47 21 -56 6z"/>
<path d="M13 839 c-7 -7 -13 -17 -13 -23 0 -5 7 -1 15 10 15 19 15 19 8 -1 -3
-11 -10 -26 -16 -32 -7 -10 -2 -13 21 -13 41 0 47 13 20 45 -19 21 -25 24 -35
14z"/>
<path d="M690 845 c0 -3 2 -5 5 -5 3 0 5 2 5 5 0 3 -2 5 -5 5 -3 0 -5 -2 -5
-5z"/>
<path d="M891 836 c-9 -11 -7 -15 8 -19 24 -6 31 0 24 19 -7 18 -17 18 -32 0z"/>
<path d="M645 832 c-3 -3 0 -11 7 -19 17 -21 2 -27 -42 -15 -22 5 -40 7 -40 3
0 -3 -25 -5 -55 -5 -46 1 -55 -1 -55 -16 0 -10 6 -23 14 -29 8 -7 13 -23 10
-37 -3 -17 1 -26 13 -31 10 -4 21 -11 24 -16 4 -6 15 -6 25 -2 17 7 17 9 3 12
-11 3 -15 11 -12 24 3 10 0 19 -6 19 -6 0 -11 5 -11 10 0 6 3 9 8 9 22 -4 32
3 32 21 0 11 5 20 11 20 6 0 10 -10 9 -22 -4 -44 0 -56 18 -54 24 2 32 17 21
38 -7 13 -4 20 12 28 12 7 29 10 39 7 32 -8 45 8 28 35 -15 23 -41 32 -53 20z
m15 -7 c0 -3 -2 -5 -5 -5 -3 0 -5 2 -5 5 0 3 2 5 5 5 3 0 5 -2 5 -5z m-55 -45
c3 -5 4 -10 1 -10 -3 0 -8 5 -11 10 -3 6 -4 10 -1 10 3 0 8 -4 11 -10z m-55
-15 c0 -3 -2 -5 -5 -5 -3 0 -5 2 -5 5 0 3 2 5 5 5 3 0 5 -2 5 -5z m55 -25 c3
-5 4 -10 1 -10 -3 0 -8 5 -11 10 -3 6 -4 10 -1 10 3 0 8 -4 11 -10z"/>
<path d="M943 813 c4 -3 10 -3 14 0 3 4 0 7 -7 7 -7 0 -10 -3 -7 -7z"/>
<path d="M80 806 c0 -2 8 -10 18 -17 15 -13 16 -12 3 4 -13 16 -21 21 -21 13z"/>
<path d="M400 801 c0 -5 5 -13 10 -16 6 -3 10 -2 10 4 0 5 -4 13 -10 16 -5 3
-10 2 -10 -4z"/>
<path d="M850 799 c-25 -3 -50 -4 -56 -2 -21 8 -24 -13 -6 -38 9 -13 15 -34
14 -45 -2 -12 2 -25 8 -29 5 -3 7 -12 3 -18 -4 -7 4 -5 17 5 19 12 24 23 22
48 -2 26 1 31 14 26 8 -3 20 -6 26 -6 6 0 8 -11 6 -25 -4 -21 -3 -23 14 -14
14 7 20 6 24 -6 8 -20 24 -20 24 1 0 8 -4 12 -10 9 -14 -9 -13 58 2 73 7 7 10
12 7 12 -2 0 -18 4 -34 8 -17 4 -50 5 -75 1z m50 -34 c0 -8 -4 -15 -9 -15 -13
0 -22 16 -14 24 11 11 23 6 23 -9z m30 10 c0 -3 -2 -5 -5 -5 -3 0 -5 2 -5 5 0
3 2 5 5 5 3 0 5 -2 5 -5z m-2 -40 c-3 -3 -9 2 -12 12 -6 14 -5 15 5 6 7 -7 10
-15 7 -18z"/>
<path d="M140 779 c0 -9 6 -22 14 -28 7 -6 11 -22 9 -35 -4 -17 2 -28 18 -40
26 -18 59 -21 59 -6 0 6 -7 10 -15 10 -11 0 -12 5 -5 26 7 16 7 23 0 19 -6 -3
-10 -1 -10 4 0 6 6 11 13 11 7 0 14 13 15 30 2 30 2 30 -48 28 -39 -2 -50 -6
-50 -19z"/>
<path d="M735 790 c3 -5 8 -10 11 -10 3 0 2 5 -1 10 -3 6 -8 10 -11 10 -3 0
-2 -4 1 -10z"/>
<path d="M0 760 c0 -7 3 -10 7 -7 3 4 3 10 0 14 -4 3 -7 0 -7 -7z"/>
<path d="M44 739 c0 -14 8 -19 28 -19 47 0 45 34 -2 36 -19 1 -26 -3 -26 -17z"/>
<path d="M115 750 c3 -5 8 -10 11 -10 3 0 2 5 -1 10 -3 6 -8 10 -11 10 -3 0
-2 -4 1 -10z"/>
<path d="M323 753 c4 -3 10 -3 14 0 3 4 0 7 -7 7 -7 0 -10 -3 -7 -7z"/>
<path d="M375 751 c3 -2 0 -10 -6 -18 -9 -10 -5 -13 20 -13 17 0 31 5 31 10 0
6 1 13 3 18 1 4 -10 7 -25 7 -15 1 -25 -1 -23 -4z"/>
<path d="M680 755 c0 -3 2 -5 5 -5 3 0 5 2 5 5 0 3 -2 5 -5 5 -3 0 -5 -2 -5
-5z"/>
<path d="M701 740 l-23 -20 31 0 c24 0 31 4 31 20 0 25 -8 25 -39 0z"/>
<path d="M760 745 c7 -9 15 -13 17 -11 7 7 -7 26 -19 26 -6 0 -6 -6 2 -15z"/>
<path d="M20 745 c0 -3 2 -5 5 -5 3 0 5 2 5 5 0 3 -2 5 -5 5 -3 0 -5 -2 -5 -5z"/>
<path d="M350 745 c0 -3 2 -5 5 -5 3 0 5 2 5 5 0 3 -2 5 -5 5 -3 0 -5 -2 -5
-5z"/>
<path d="M90 709 c-19 -10 -29 -19 -22 -19 6 0 12 -7 12 -15 0 -8 7 -16 15
-16 28 -3 33 -4 41 -11 4 -5 14 -8 23 -7 10 0 8 3 -6 9 -15 6 -21 15 -17 25 4
8 1 21 -5 29 -6 7 -8 16 -4 19 10 11 0 7 -37 -14z m20 -34 c0 -3 -2 -5 -5 -5
-3 0 -5 2 -5 5 0 3 2 5 5 5 3 0 5 -2 5 -5z"/>
<path d="M412 710 c-21 -17 -22 -50 -1 -50 5 0 8 -6 7 -12 -2 -7 4 -12 12 -10
10 2 12 0 5 -7 -6 -6 -23 -12 -37 -13 -15 -1 -24 -7 -21 -12 4 -5 -1 -7 -12
-2 -14 5 -16 4 -6 -7 8 -11 5 -16 -15 -26 -30 -14 -30 -16 10 -25 23 -6 27 -4
23 8 -6 16 29 30 39 15 10 -16 24 -10 24 11 0 14 7 20 23 20 18 0 19 2 7 10
-8 5 -10 10 -3 10 6 0 10 8 8 18 -2 9 -4 21 -4 25 -1 5 -5 5 -11 2 -5 -3 -7 0
-4 9 3 8 0 24 -8 34 -13 19 -14 19 -36 2z m28 -35 c0 -3 -2 -5 -5 -5 -3 0 -5
2 -5 5 0 3 2 5 5 5 3 0 5 -2 5 -5z"/>
<path d="M550 725 c0 -3 2 -5 5 -5 3 0 5 2 5 5 0 3 -2 5 -5 5 -3 0 -5 -2 -5
-5z"/>
<path d="M950 725 c0 -3 2 -5 5 -5 3 0 5 2 5 5 0 3 -2 5 -5 5 -3 0 -5 -2 -5
-5z"/>
<path d="M735 710 c-3 -5 -15 -10 -26 -10 -19 0 -19 0 1 -20 11 -11 27 -20 36
-20 32 0 10 -35 -24 -38 -18 -2 -30 -8 -27 -13 4 -5 1 -9 -5 -9 -6 0 -8 -5 -4
-12 5 -7 2 -9 -9 -5 -9 3 -18 -1 -21 -10 -8 -19 -8 -18 22 -28 19 -5 23 -3 20
12 -3 19 12 21 45 8 12 -5 17 -2 17 10 0 10 8 25 18 34 10 9 17 22 16 29 -1 6
-2 17 -3 23 0 5 -5 7 -11 4 -6 -3 -7 1 -4 10 11 27 -27 58 -41 35z"/>
<path d="M0 695 c0 -3 2 -5 5 -5 3 0 5 2 5 5 0 3 -2 5 -5 5 -3 0 -5 -2 -5 -5z"/>
<path d="M285 690 c-3 -5 3 -10 14 -10 12 0 21 5 21 10 0 6 -6 10 -14 10 -8 0
-18 -4 -21 -10z"/>
<path d="M350 686 c7 -7 13 -7 20 0 6 6 3 10 -10 10 -13 0 -16 -4 -10 -10z"/>
<path d="M615 690 l-20 -9 20 0 c11 0 29 4 40 9 l20 9 -20 0 c-11 0 -29 -4
-40 -9z"/>
<path d="M40 685 c0 -3 2 -5 5 -5 3 0 5 2 5 5 0 3 -2 5 -5 5 -3 0 -5 -2 -5 -5z"/>
<path d="M573 683 c4 -3 10 -3 14 0 3 4 0 7 -7 7 -7 0 -10 -3 -7 -7z"/>
<path d="M0 670 c0 -7 3 -10 7 -7 3 4 3 10 0 14 -4 3 -7 0 -7 -7z"/>
<path d="M850 662 c0 -12 3 -12 15 -2 8 7 15 13 15 15 0 1 -7 2 -15 2 -8 0
-15 -7 -15 -15z"/>
<path d="M40 665 c0 -3 2 -5 5 -5 3 0 5 2 5 5 0 3 -2 5 -5 5 -3 0 -5 -2 -5 -5z"/>
<path d="M320 665 c0 -3 2 -5 5 -5 3 0 5 2 5 5 0 3 -2 5 -5 5 -3 0 -5 -2 -5
-5z"/>
<path d="M630 660 c0 -7 3 -10 7 -7 3 4 3 10 0 14 -4 3 -7 0 -7 -7z"/>
<path d="M190 651 c10 -7 11 -11 3 -11 -7 0 -10 -6 -7 -14 3 -8 0 -17 -5 -21
-6 -3 -9 -10 -6 -15 3 -5 -4 -7 -15 -5 -19 4 -28 -14 -14 -28 11 -11 46 14 40
29 -6 16 39 20 49 4 3 -5 15 -10 26 -10 10 0 19 5 19 10 0 6 -9 10 -20 10 -11
0 -20 5 -20 10 0 6 -9 10 -20 10 -14 0 -20 6 -18 16 2 10 -4 19 -12 21 -13 4
-13 3 0 -6z"/>
<path d="M490 655 c0 -3 2 -5 5 -5 3 0 5 2 5 5 0 3 -2 5 -5 5 -3 0 -5 -2 -5
-5z"/>
<path d="M831 652 c0 -7 -6 -10 -13 -6 -6 4 -4 -3 4 -15 26 -37 98 -67 98 -41
0 6 -9 10 -20 10 -11 0 -20 5 -20 10 0 6 -9 10 -19 10 -12 0 -21 8 -24 23 -2
12 -5 16 -6 9z"/>
<path d="M511 634 c-1 -23 -34 -58 -44 -47 -4 3 -7 0 -7 -9 0 -23 11 -28 32
-17 11 6 17 17 14 25 -4 10 3 14 24 14 17 0 30 -4 30 -9 0 -5 9 -11 20 -14 13
-3 20 0 20 9 0 8 -7 14 -16 14 -9 0 -25 10 -35 22 -13 14 -19 17 -20 7 0 -8
-4 -6 -9 6 -8 20 -9 20 -9 -1z m-11 -49 c0 -3 -2 -5 -5 -5 -3 0 -5 2 -5 5 0 3
2 5 5 5 3 0 5 -2 5 -5z"/>
<path d="M730 645 c0 -3 2 -5 5 -5 3 0 5 2 5 5 0 3 -2 5 -5 5 -3 0 -5 -2 -5
-5z"/>
<path d="M0 635 c0 -3 2 -5 5 -5 3 0 5 2 5 5 0 3 -2 5 -5 5 -3 0 -5 -2 -5 -5z"/>
<path d="M117 633 c-6 -5 -17 -8 -60 -12 -5 -1 -5 -5 -2 -11 3 -5 1 -10 -6
-10 -9 0 -9 -3 1 -14 6 -8 17 -13 25 -10 7 3 16 1 20 -5 10 -18 25 -12 25 9 0
14 7 20 23 20 18 0 19 2 7 10 -13 9 -13 10 0 10 13 0 13 1 0 10 -18 12 -24 12
-33 3z"/>
<path d="M640 635 c0 -3 2 -5 5 -5 3 0 5 2 5 5 0 3 -2 5 -5 5 -3 0 -5 -2 -5
-5z"/>
<path d="M850 635 c0 -3 2 -5 5 -5 3 0 5 2 5 5 0 3 -2 5 -5 5 -3 0 -5 -2 -5
-5z"/>
<path d="M20 605 c0 -3 2 -5 5 -5 3 0 5 2 5 5 0 3 -2 5 -5 5 -3 0 -5 -2 -5 -5z"/>
<path d="M794 595 c3 -8 2 -14 -2 -14 -19 3 -23 -2 -12 -15 6 -8 17 -13 25
-10 7 3 16 1 19 -5 4 -6 14 -7 23 -4 13 5 13 3 -2 -20 -17 -26 -17 -27 5 -27
13 0 24 8 27 20 5 18 15 24 36 21 4 0 7 3 7 9 0 11 -17 14 -68 11 -21 -1 -31
2 -27 9 3 5 1 10 -5 10 -6 0 -9 4 -6 9 3 5 -1 12 -10 15 -12 4 -15 2 -10 -9z"/>
<path d="M630 585 c0 -3 2 -5 5 -5 3 0 5 2 5 5 0 3 -2 5 -5 5 -3 0 -5 -2 -5
-5z"/>
<path d="M20 570 c-17 -10 -14 -15 18 -24 24 -8 25 -6 16 18 -7 18 -13 19 -34
6z"/>
<path d="M80 565 c0 -3 2 -5 5 -5 3 0 5 2 5 5 0 3 -2 5 -5 5 -3 0 -5 -2 -5 -5z"/>
<path d="M529 559 c-6 -4 -9 -11 -6 -16 3 -5 2 -15 -2 -22 -7 -11 -16 -10 -45
4 -29 14 -42 15 -59 7 -12 -6 -35 -10 -52 -9 -20 1 -30 -3 -31 -13 -2 -35 -5
-40 -20 -40 -8 0 -13 4 -10 8 3 5 -11 8 -32 6 -20 -2 -58 -4 -84 -5 -39 -2
-48 -6 -48 -20 0 -10 4 -21 10 -24 6 -3 10 -19 10 -35 0 -16 5 -32 10 -35 6
-4 8 -10 5 -15 -3 -5 0 -12 7 -16 7 -4 10 -4 6 1 -5 5 1 14 12 22 23 16 26 38
8 47 -10 5 -10 7 0 12 6 3 9 10 6 16 -4 5 5 2 20 -7 14 -10 26 -27 27 -39 0
-11 3 -16 5 -9 3 7 12 9 20 6 20 -8 18 24 -3 37 -17 11 -17 11 0 6 15 -5 17
-2 12 14 -5 17 -2 19 37 17 43 -2 43 -2 41 32 -1 19 2 29 6 23 7 -11 34 -13
143 -11 31 0 62 -2 67 -6 6 -3 11 2 11 13 0 15 -5 19 -19 15 -10 -3 -21 2 -24
10 -4 10 1 13 19 9 13 -2 24 0 24 6 0 12 -55 21 -71 11z m-179 -44 c0 -3 -2
-5 -5 -5 -3 0 -5 2 -5 5 0 3 2 5 5 5 3 0 5 -2 5 -5z m-90 -76 c0 -11 -4 -17
-10 -14 -5 3 -10 13 -10 21 0 8 5 14 10 14 6 0 10 -9 10 -21z m20 6 c0 -3 -2
-5 -5 -5 -3 0 -5 2 -5 5 0 3 2 5 5 5 3 0 5 -2 5 -5z"/>
<path d="M198 548 c7 -7 8 -17 1 -29 -8 -16 -5 -18 24 -17 19 1 39 -2 45 -6 8
-5 12 1 12 14 0 17 -4 20 -21 15 -16 -5 -20 -3 -17 6 3 8 12 13 22 11 9 -2 16
2 16 8 0 5 -21 10 -47 10 -35 0 -44 -3 -35 -12z"/>
<path d="M290 550 c0 -7 3 -10 7 -7 3 4 3 10 0 14 -4 3 -7 0 -7 -7z"/>
<path d="M610 555 c0 -3 2 -5 5 -5 3 0 5 2 5 5 0 3 -2 5 -5 5 -3 0 -5 -2 -5
-5z"/>
<path d="M83 526 c-33 -16 -28 -23 17 -28 51 -5 69 4 51 26 -15 18 -36 19 -68
2z"/>
<path d="M735 530 c-4 -6 -10 -8 -15 -5 -4 3 -10 -2 -14 -10 -4 -11 1 -15 18
-15 14 0 30 -2 38 -5 7 -3 19 -1 27 4 12 8 12 12 2 25 -15 18 -47 21 -56 6z"/>
<path d="M23 517 c1 -7 -5 -11 -13 -9 -12 3 -13 1 -2 -9 14 -15 16 -33 2 -24
-6 3 -10 1 -10 -4 0 -6 16 -11 35 -11 39 0 39 0 24 34 -12 26 -41 44 -36 23z"/>
<path d="M690 525 c0 -3 2 -5 5 -5 3 0 5 2 5 5 0 3 -2 5 -5 5 -3 0 -5 -2 -5
-5z"/>
<path d="M891 516 c-9 -11 -7 -15 8 -19 24 -6 31 0 24 19 -7 18 -17 18 -32 0z"/>
<path d="M645 512 c-3 -3 0 -11 7 -19 17 -21 2 -27 -42 -15 -22 5 -40 7 -40 3
0 -3 -25 -5 -55 -5 -46 1 -55 -1 -55 -16 0 -10 6 -23 14 -29 8 -7 13 -23 10
-37 -3 -17 1 -26 13 -31 10 -4 21 -11 24 -16 4 -6 15 -6 25 -2 17 7 17 9 3 12
-11 3 -15 11 -12 24 3 10 0 19 -6 19 -6 0 -11 5 -11 10 0 6 3 9 8 9 24 -4 34
3 29 21 -3 13 0 20 9 20 11 0 14 -11 11 -45 -2 -35 -1 -42 9 -34 7 6 17 8 23
5 5 -3 11 1 15 9 3 8 1 15 -4 15 -5 0 -8 9 -7 20 1 19 47 38 65 26 4 -2 14 -1
22 4 11 7 11 12 -2 32 -15 23 -41 32 -53 20z m15 -7 c0 -3 -2 -5 -5 -5 -3 0
-5 2 -5 5 0 3 2 5 5 5 3 0 5 -2 5 -5z m-60 -40 c0 -3 -2 -5 -5 -5 -3 0 -5 2
-5 5 0 3 2 5 5 5 3 0 5 -2 5 -5z m0 -40 c0 -3 -2 -5 -5 -5 -3 0 -5 2 -5 5 0 3
2 5 5 5 3 0 5 -2 5 -5z"/>
<path d="M620 505 c0 -3 2 -5 5 -5 3 0 5 2 5 5 0 3 -2 5 -5 5 -3 0 -5 -2 -5
-5z"/>
<path d="M943 493 c4 -3 10 -3 14 0 3 4 0 7 -7 7 -7 0 -10 -3 -7 -7z"/>
<path d="M400 481 c0 -5 5 -13 10 -16 6 -3 10 -2 10 4 0 5 -4 13 -10 16 -5 3
-10 2 -10 -4z"/>
<path d="M850 479 c-25 -3 -50 -4 -56 -2 -21 8 -24 -13 -6 -38 9 -13 15 -34
14 -45 -2 -12 2 -25 8 -29 5 -3 7 -11 4 -17 -4 -6 3 -5 15 2 28 15 38 40 20
51 -11 7 -11 9 -1 9 8 0 10 5 6 12 -5 8 -2 9 10 5 10 -4 24 -7 32 -7 10 0 11
-6 3 -26 -5 -15 -7 -29 -4 -32 3 -3 5 0 5 6 0 7 9 12 20 12 11 0 20 -4 20 -10
0 -5 5 -10 10 -10 6 0 10 7 10 15 0 8 -5 14 -11 13 -6 -2 -14 3 -16 10 -3 8 2
10 14 6 16 -5 17 -5 1 6 -10 6 -15 17 -11 27 5 12 2 15 -9 11 -8 -4 -15 -1
-15 6 0 8 10 11 25 8 16 -3 23 -1 19 5 -9 15 -54 20 -107 12z m50 -34 c0 -8
-4 -15 -10 -15 -5 0 -10 7 -10 15 0 8 5 15 10 15 6 0 10 -7 10 -15z m-30 0 c0
-3 -2 -5 -5 -5 -3 0 -5 2 -5 5 0 3 2 5 5 5 3 0 5 -2 5 -5z"/>
<path d="M85 470 c3 -5 8 -10 11 -10 2 0 4 5 4 10 0 6 -5 10 -11 10 -5 0 -7
-4 -4 -10z"/>
<path d="M735 470 c3 -5 8 -10 11 -10 3 0 2 5 -1 10 -3 6 -8 10 -11 10 -3 0
-2 -4 1 -10z"/>
<path d="M0 445 c0 -3 2 -5 5 -5 3 0 5 2 5 5 0 3 -2 5 -5 5 -3 0 -5 -2 -5 -5z"/>
<path d="M44 420 c0 -15 7 -20 28 -20 15 0 28 5 28 10 0 6 10 10 22 10 26 0
19 9 -12 15 -13 3 -29 0 -37 -6 -9 -8 -13 -8 -13 0 0 6 -4 11 -8 11 -4 0 -8
-9 -8 -20z"/>
<path d="M323 433 c4 -3 10 -3 14 0 3 4 0 7 -7 7 -7 0 -10 -3 -7 -7z"/>
<path d="M375 431 c3 -2 0 -10 -6 -18 -9 -10 -5 -13 20 -13 17 0 31 5 31 10 0
6 1 13 3 18 1 4 -10 7 -25 7 -15 1 -25 -1 -23 -4z"/>
<path d="M680 435 c0 -3 2 -5 5 -5 3 0 5 2 5 5 0 3 -2 5 -5 5 -3 0 -5 -2 -5
-5z"/>
<path d="M701 420 l-23 -20 31 0 c24 0 31 4 31 20 0 25 -8 25 -39 0z"/>
<path d="M760 425 c7 -9 15 -13 17 -11 7 7 -7 26 -19 26 -6 0 -6 -6 2 -15z"/>
<path d="M10 425 c0 -3 2 -5 5 -5 3 0 5 2 5 5 0 3 -2 5 -5 5 -3 0 -5 -2 -5 -5z"/>
<path d="M350 425 c0 -3 2 -5 5 -5 3 0 5 2 5 5 0 3 -2 5 -5 5 -3 0 -5 -2 -5
-5z"/>
<path d="M97 392 c-22 -24 -21 -41 3 -62 19 -17 19 -17 -5 -28 -13 -6 -33 -9
-44 -7 -18 3 -19 1 -12 -14 6 -10 18 -24 27 -32 12 -9 15 -9 10 -1 -4 6 -3 12
3 12 5 0 13 -4 16 -10 10 -17 25 -11 25 10 0 13 7 20 20 20 11 0 20 -5 20 -11
0 -5 -4 -7 -10 -4 -11 7 -14 -18 -4 -28 9 -8 44 11 44 24 0 6 -5 7 -12 3 -7
-4 -8 -3 -4 4 9 15 66 16 66 2 0 -5 9 -10 20 -10 11 0 20 5 20 10 0 6 -9 10
-20 10 -11 0 -20 4 -20 9 0 5 -9 11 -21 14 -13 4 -18 10 -13 18 5 8 3 10 -5 5
-7 -5 -10 -14 -7 -21 6 -18 -21 -28 -42 -15 -14 8 -14 10 -2 10 12 1 11 3 -3
14 -11 9 -14 17 -8 20 11 7 5 30 -14 59 -11 16 -13 16 -28 -1z m23 -47 c0 -3
-2 -5 -5 -5 -3 0 -5 2 -5 5 0 3 2 5 5 5 3 0 5 -2 5 -5z m20 0 c0 -3 -2 -5 -5
-5 -3 0 -5 2 -5 5 0 3 2 5 5 5 3 0 5 -2 5 -5z m-75 -65 c3 -5 4 -10 1 -10 -3
0 -8 5 -11 10 -3 6 -4 10 -1 10 3 0 8 -4 11 -10z"/>
<path d="M412 390 c-21 -18 -22 -50 0 -50 5 0 6 -4 3 -10 -3 -5 2 -10 12 -10
15 0 16 -2 3 -10 -8 -5 -25 -10 -38 -10 -13 0 -20 -4 -17 -10 3 -5 1 -10 -5
-10 -6 0 -8 -5 -4 -12 5 -7 2 -9 -9 -5 -16 6 -30 -14 -19 -29 4 -5 15 -10 25
-12 13 -2 17 2 15 15 -3 19 2 20 40 8 17 -5 22 -2 22 11 0 9 10 25 22 35 11
11 18 19 13 19 -4 0 -2 6 4 14 9 11 8 15 -4 20 -9 3 -14 2 -11 -2 3 -5 -1 -9
-8 -9 -11 0 -12 4 -4 17 8 13 7 23 -3 38 -14 19 -15 19 -37 2z m18 -35 c0 -3
-2 -5 -5 -5 -3 0 -5 2 -5 5 0 3 2 5 5 5 3 0 5 -2 5 -5z"/>
<path d="M550 405 c0 -3 2 -5 5 -5 3 0 5 2 5 5 0 3 -2 5 -5 5 -3 0 -5 -2 -5
-5z"/>
<path d="M298 379 c-17 -18 -17 -19 2 -19 13 0 20 7 20 20 0 24 0 24 -22 -1z"/>
<path d="M735 390 c-3 -5 -15 -10 -26 -10 -19 0 -19 0 1 -20 11 -11 27 -20 35
-20 35 0 7 -40 -31 -44 -19 -3 -29 -9 -28 -20 1 -8 -7 -18 -18 -22 -15 -4 -17
-9 -7 -20 15 -18 43 -18 36 0 -6 16 30 30 39 15 10 -16 24 -10 24 11 0 13 7
20 20 20 11 0 20 -5 20 -11 0 -5 -4 -7 -10 -4 -5 3 -10 -1 -10 -9 0 -22 15
-27 36 -11 12 9 14 14 6 15 -24 0 -1 20 23 20 13 0 27 -4 30 -10 3 -5 15 -10
26 -10 10 0 19 5 19 10 0 6 -9 10 -20 10 -11 0 -20 5 -20 10 0 6 -9 10 -21 10
-11 0 -18 4 -15 8 2 4 0 14 -6 22 -8 13 -9 12 -5 -2 3 -9 0 -24 -7 -33 -10
-14 -17 -16 -32 -7 -10 6 -14 12 -7 12 6 0 10 8 8 18 -2 9 -4 21 -4 25 -1 5
-5 5 -11 2 -6 -3 -7 1 -4 10 11 27 -27 58 -41 35z m-35 -105 c0 -3 -2 -5 -5
-5 -3 0 -5 2 -5 5 0 3 2 5 5 5 3 0 5 -2 5 -5z"/>
<path d="M0 375 c0 -3 2 -5 5 -5 3 0 5 2 5 5 0 3 -2 5 -5 5 -3 0 -5 -2 -5 -5z"/>
<path d="M23 359 c-2 -23 3 -25 10 -4 4 8 3 16 -1 19 -4 3 -9 -4 -9 -15z"/>
<path d="M350 366 c7 -7 13 -7 20 0 6 6 3 10 -10 10 -13 0 -16 -4 -10 -10z"/>
<path d="M615 370 c-17 -4 -22 -8 -11 -9 13 -1 16 -6 12 -18 -5 -14 -2 -13 11
3 10 12 25 24 33 27 24 9 -8 6 -45 -3z"/>
<path d="M205 350 c-3 -5 1 -10 9 -10 9 0 16 5 16 10 0 6 -4 10 -9 10 -6 0
-13 -4 -16 -10z"/>
<path d="M850 342 c0 -12 3 -12 15 -2 8 7 15 13 15 15 0 1 -7 2 -15 2 -8 0
-15 -7 -15 -15z"/>
<path d="M0 345 c0 -3 2 -5 5 -5 3 0 5 2 5 5 0 3 -2 5 -5 5 -3 0 -5 -2 -5 -5z"/>
<path d="M300 345 c0 -3 2 -5 5 -5 3 0 5 2 5 5 0 3 -2 5 -5 5 -3 0 -5 -2 -5
-5z"/>
<path d="M320 345 c0 -3 2 -5 5 -5 3 0 5 2 5 5 0 3 -2 5 -5 5 -3 0 -5 -2 -5
-5z"/>
<path d="M940 345 c0 -3 2 -5 5 -5 3 0 5 2 5 5 0 3 -2 5 -5 5 -3 0 -5 -2 -5
-5z"/>
<path d="M160 325 c0 -3 2 -5 5 -5 3 0 5 2 5 5 0 3 -2 5 -5 5 -3 0 -5 -2 -5
-5z"/>
<path d="M504 317 c3 -10 6 -20 6 -22 0 -2 17 -12 38 -21 20 -10 40 -19 45
-21 4 -2 7 3 7 11 0 9 -9 16 -20 16 -11 0 -20 5 -20 10 0 6 -7 10 -16 10 -9 0
-23 8 -31 18 -14 16 -14 16 -9 -1z"/>
<path d="M730 325 c0 -3 2 -5 5 -5 3 0 5 2 5 5 0 3 -2 5 -5 5 -3 0 -5 -2 -5
-5z"/>
<path d="M810 325 c0 -3 2 -5 5 -5 3 0 5 2 5 5 0 3 -2 5 -5 5 -3 0 -5 -2 -5
-5z"/>
<path d="M320 315 c0 -3 2 -5 5 -5 3 0 5 2 5 5 0 3 -2 5 -5 5 -3 0 -5 -2 -5
-5z"/>
<path d="M530 315 c0 -3 2 -5 5 -5 3 0 5 2 5 5 0 3 -2 5 -5 5 -3 0 -5 -2 -5
-5z"/>
<path d="M465 270 c-9 -29 2 -42 26 -30 24 13 24 26 0 40 -16 8 -21 6 -26 -10z
m15 -5 c0 -3 -2 -5 -5 -5 -3 0 -5 2 -5 5 0 3 2 5 5 5 3 0 5 -2 5 -5z m20 0 c0
-3 -2 -5 -5 -5 -3 0 -5 2 -5 5 0 3 2 5 5 5 3 0 5 -2 5 -5z"/>
<path d="M300 270 c0 -7 3 -10 7 -7 3 4 3 10 0 14 -4 3 -7 0 -7 -7z"/>
<path d="M950 275 c0 -3 2 -5 5 -5 3 0 5 2 5 5 0 3 -2 5 -5 5 -3 0 -5 -2 -5
-5z"/>
<path d="M19 258 c-8 -28 -4 -35 18 -35 17 0 23 4 19 14 -3 8 -6 17 -6 19 0 4
-29 6 -31 2z"/>
<path d="M950 255 c0 -3 2 -5 5 -5 3 0 5 2 5 5 0 3 -2 5 -5 5 -3 0 -5 -2 -5
-5z"/>
<path d="M209 239 c-6 -4 -9 -11 -6 -16 3 -5 2 -15 -3 -22 -6 -11 -14 -11 -40
3 -42 20 -49 20 -80 -4 l-25 -20 35 -1 c19 -1 40 0 45 1 21 5 124 2 134 -4 10
-7 12 -2 11 22 -1 4 -9 6 -19 4 -10 -2 -21 3 -24 11 -4 10 1 13 19 9 13 -2 24
0 24 6 0 12 -55 21 -71 11z"/>
<path d="M528 242 c-10 -2 -18 -7 -18 -12 0 -5 7 -7 16 -3 15 5 15 3 -1 -20
l-17 -26 34 0 c18 0 44 -2 57 -5 23 -5 23 -5 6 14 -9 10 -23 16 -31 13 -8 -3
-14 0 -14 6 0 6 9 11 20 11 11 0 20 4 20 9 0 10 -46 18 -72 13z"/>
<path d="M849 239 c-6 -4 -9 -11 -6 -16 3 -5 2 -15 -3 -22 -6 -11 -14 -11 -40
3 -42 20 -49 20 -80 -4 l-25 -20 35 -1 c19 -1 42 -1 50 0 8 2 43 2 78 2 46 0
62 3 62 13 0 9 -7 12 -19 9 -10 -3 -21 2 -24 10 -4 10 1 13 19 9 13 -2 24 0
24 6 0 12 -55 21 -71 11z"/>
<path d="M290 235 c0 -3 2 -5 5 -5 3 0 5 2 5 5 0 3 -2 5 -5 5 -3 0 -5 -2 -5
-5z"/>
<path d="M930 235 c0 -3 2 -5 5 -5 3 0 5 2 5 5 0 3 -2 5 -5 5 -3 0 -5 -2 -5
-5z"/>
<path d="M640 225 c0 -3 2 -5 5 -5 3 0 5 2 5 5 0 3 -2 5 -5 5 -3 0 -5 -2 -5
-5z"/>
<path d="M400 200 l-25 -20 27 0 c14 0 32 -2 40 -5 7 -3 19 -1 27 4 12 8 12
12 2 25 -18 21 -41 20 -71 -4z"/>
<path d="M19 207 c-1 -4 -2 -16 -3 -26 0 -11 -4 -23 -9 -27 -13 -14 -7 -20 21
-19 34 2 41 34 12 60 -11 10 -21 15 -21 12z m11 -12 c0 -3 -2 -5 -5 -5 -3 0
-5 2 -5 5 0 3 2 5 5 5 3 0 5 -2 5 -5z"/>
<path d="M370 205 c0 -3 2 -5 5 -5 3 0 5 2 5 5 0 3 -2 5 -5 5 -3 0 -5 -2 -5
-5z"/>
<path d="M659 201 c-1 -3 -2 -13 -3 -21 0 -8 -7 -14 -14 -12 -8 1 -11 -1 -9
-5 3 -5 -35 -7 -84 -6 -49 0 -91 -2 -94 -6 -2 -4 3 -19 13 -32 9 -13 15 -32
14 -42 -2 -10 2 -24 8 -32 7 -8 9 -19 5 -25 -12 -19 7 -10 26 13 20 24 24 44
9 49 -20 7 7 27 29 21 19 -5 22 -11 17 -35 -5 -27 -5 -28 11 -12 15 15 18 15
28 0 15 -20 25 -20 25 0 0 8 -4 13 -9 10 -13 -8 -19 15 -11 44 5 20 12 25 40
26 36 0 47 14 34 42 -4 9 -7 20 -6 23 1 7 -28 7 -29 0z m11 -6 c0 -3 -2 -5 -5
-5 -3 0 -5 2 -5 5 0 3 2 5 5 5 3 0 5 -2 5 -5z m-65 -55 c3 -5 4 -10 1 -10 -3
0 -8 5 -11 10 -3 6 -4 10 -1 10 3 0 8 -4 11 -10z m-25 -15 c0 -9 -6 -12 -15
-9 -8 4 -12 10 -9 15 8 14 24 10 24 -6z m25 -15 c3 -5 4 -10 1 -10 -3 0 -8 5
-11 10 -3 6 -4 10 -1 10 3 0 8 -4 11 -10z"/>
<path d="M325 192 c-3 -3 0 -11 7 -19 17 -21 2 -27 -42 -15 -22 5 -40 7 -40 3
0 -3 -25 -5 -55 -5 -46 1 -55 -1 -55 -16 0 -10 6 -23 14 -29 8 -7 13 -23 10
-37 -3 -17 1 -26 13 -31 10 -4 21 -11 24 -16 4 -6 15 -6 25 -2 16 7 17 9 3 12
-11 3 -15 12 -11 30 3 18 1 24 -7 19 -6 -4 -11 -2 -11 3 0 6 10 11 21 11 16 0
20 5 16 20 -3 13 0 20 10 20 9 0 14 -8 13 -22 -1 -13 -2 -30 -1 -38 1 -19 38
-21 45 -3 3 7 1 13 -4 13 -5 0 -8 9 -7 20 1 19 47 38 65 26 4 -2 14 -1 22 4
11 7 11 12 -2 32 -15 23 -41 32 -53 20z m15 -7 c0 -3 -2 -5 -5 -5 -3 0 -5 2
-5 5 0 3 2 5 5 5 3 0 5 -2 5 -5z m-60 -40 c0 -3 -2 -5 -5 -5 -3 0 -5 2 -5 5 0
3 2 5 5 5 3 0 5 -2 5 -5z m0 -40 c0 -3 -2 -5 -5 -5 -3 0 -5 2 -5 5 0 3 2 5 5
5 3 0 5 -2 5 -5z"/>
<path d="M80 161 c0 -5 5 -13 10 -16 6 -3 10 -2 10 4 0 5 -4 13 -10 16 -5 3
-10 2 -10 -4z"/>
<path d="M406 157 c3 -10 9 -15 12 -12 3 3 0 11 -7 18 -10 9 -11 8 -5 -6z"/>
<path d="M720 161 c0 -5 5 -13 10 -16 6 -3 10 -2 10 4 0 5 -4 13 -10 16 -5 3
-10 2 -10 -4z"/>
<path d="M890 162 c0 -4 -25 -6 -55 -6 -46 1 -55 -1 -55 -16 0 -10 6 -23 14
-29 8 -7 13 -23 10 -37 -3 -17 1 -26 13 -31 10 -4 21 -11 24 -16 4 -6 15 -6
25 -2 17 7 17 9 3 12 -11 3 -15 11 -12 24 3 10 0 19 -6 19 -6 0 -11 5 -11 10
0 5 3 9 8 9 22 -4 32 3 32 21 0 11 5 20 11 20 6 0 10 -10 9 -22 -4 -44 0 -56
18 -54 24 2 32 17 21 37 -7 13 -5 20 8 28 10 5 15 12 12 16 -10 9 -69 24 -69
17z m35 -22 c3 -5 4 -10 1 -10 -3 0 -8 5 -11 10 -3 6 -4 10 -1 10 3 0 8 -4 11
-10z m-55 -15 c0 -3 -2 -5 -5 -5 -3 0 -5 2 -5 5 0 3 2 5 5 5 3 0 5 -2 5 -5z
m55 -25 c3 -5 4 -10 1 -10 -3 0 -8 5 -11 10 -3 6 -4 10 -1 10 3 0 8 -4 11 -10z"/>
<path d="M3 113 c4 -3 10 -3 14 0 3 4 0 7 -7 7 -7 0 -10 -3 -7 -7z"/>
<path d="M55 111 c3 -2 0 -10 -6 -18 -9 -10 -5 -13 20 -13 17 0 31 5 31 10 0
6 1 13 3 18 1 4 -10 7 -25 7 -15 1 -25 -1 -23 -4z"/>
<path d="M360 115 c0 -3 2 -5 5 -5 3 0 5 2 5 5 0 3 -2 5 -5 5 -3 0 -5 -2 -5
-5z"/>
<path d="M381 100 l-23 -20 31 0 c24 0 31 4 31 20 0 25 -8 25 -39 0z"/>
<path d="M440 105 c7 -9 15 -13 17 -11 7 7 -7 26 -19 26 -6 0 -6 -6 2 -15z"/>
<path d="M643 113 c4 -3 10 -3 14 0 3 4 0 7 -7 7 -7 0 -10 -3 -7 -7z"/>
<path d="M692 110 c2 -19 -4 -23 -13 -10 -9 13 -10 13 -6 0 5 -21 54 -25 73
-6 8 9 12 17 7 17 -27 5 -62 4 -61 -1z"/>
<path d="M30 105 c0 -3 2 -5 5 -5 3 0 5 2 5 5 0 3 -2 5 -5 5 -3 0 -5 -2 -5 -5z"/>
<path d="M92 70 c-21 -18 -22 -50 0 -50 5 0 6 -4 3 -10 -4 -6 8 -10 29 -10 37
0 56 14 30 24 -8 3 -13 2 -10 -2 3 -5 -1 -9 -8 -9 -11 0 -12 4 -4 17 8 13 7
23 -3 38 -14 19 -15 19 -37 2z m18 -35 c0 -3 -2 -5 -5 -5 -3 0 -5 2 -5 5 0 3
2 5 5 5 3 0 5 -2 5 -5z"/>
<path d="M230 85 c0 -3 2 -5 5 -5 3 0 5 2 5 5 0 3 -2 5 -5 5 -3 0 -5 -2 -5 -5z"/>
<path d="M630 85 c0 -3 2 -5 5 -5 3 0 5 2 5 5 0 3 -2 5 -5 5 -3 0 -5 -2 -5 -5z"/>
<path d="M870 85 c0 -3 2 -5 5 -5 3 0 5 2 5 5 0 3 -2 5 -5 5 -3 0 -5 -2 -5 -5z"/>
<path d="M415 70 c-3 -5 -16 -11 -28 -11 -17 -1 -18 -2 -4 -6 9 -2 17 -11 17
-19 0 -8 9 -14 20 -14 11 0 20 -4 20 -10 0 -5 9 -10 20 -10 22 0 27 15 8 26
-7 5 -8 3 -3 -6 5 -8 4 -11 -3 -6 -6 4 -9 13 -5 21 5 15 -13 45 -28 45 -4 0
-11 -4 -14 -10z"/>
<path d="M726 61 c-15 -17 -15 -20 -2 -34 8 -8 12 -17 9 -21 -4 -3 10 -6 30
-6 28 0 35 3 31 15 -4 8 -10 12 -15 9 -5 -3 -6 2 -3 11 6 15 -11 45 -26 45 -4
0 -15 -8 -24 -19z"/>
<path d="M300 54 l-25 -14 28 0 c17 0 27 5 27 15 0 8 -1 15 -2 14 -2 -1 -14
-7 -28 -15z"/>
<path d="M30 46 c7 -7 13 -7 20 0 6 6 3 10 -10 10 -13 0 -16 -4 -10 -10z"/>
<path d="M670 46 c7 -7 13 -7 20 0 6 6 3 10 -10 10 -13 0 -16 -4 -10 -10z"/>
<path d="M935 50 c-19 -8 -19 -9 3 -9 12 -1 22 4 22 9 0 6 -1 10 -2 9 -2 0
-12 -4 -23 -9z"/>
<path d="M253 43 c4 -3 10 -3 14 0 3 4 0 7 -7 7 -7 0 -10 -3 -7 -7z"/>
<path d="M350 45 c0 -3 2 -5 5 -5 3 0 5 2 5 5 0 3 -2 5 -5 5 -3 0 -5 -2 -5 -5z"/>
<path d="M893 43 c4 -3 10 -3 14 0 3 4 0 7 -7 7 -7 0 -10 -3 -7 -7z"/>
<path d="M530 30 c0 -5 4 -10 9 -10 6 0 13 5 16 10 3 6 -1 10 -9 10 -9 0 -16
-4 -16 -10z"/>
<path d="M0 25 c0 -3 2 -5 5 -5 3 0 5 2 5 5 0 3 -2 5 -5 5 -3 0 -5 -2 -5 -5z"/>
<path d="M294 18 c-4 -7 -3 -8 4 -4 12 7 16 16 8 16 -3 0 -8 -5 -12 -12z"/>
<path d="M620 25 c0 -3 2 -5 5 -5 3 0 5 2 5 5 0 3 -2 5 -5 5 -3 0 -5 -2 -5 -5z"/>
<path d="M640 25 c0 -3 2 -5 5 -5 3 0 5 2 5 5 0 3 -2 5 -5 5 -3 0 -5 -2 -5 -5z"/>
<path d="M950 20 c0 -7 3 -10 7 -7 3 4 3 10 0 14 -4 3 -7 0 -7 -7z"/>
<path d="M810 15 c0 -3 2 -5 5 -5 3 0 5 2 5 5 0 3 -2 5 -5 5 -3 0 -5 -2 -5 -5z"/>
<path d="M180 5 c0 -3 2 -5 5 -5 3 0 5 2 5 5 0 3 -2 5 -5 5 -3 0 -5 -2 -5 -5z"/>
<path d="M410 5 c0 -3 2 -5 5 -5 3 0 5 2 5 5 0 3 -2 5 -5 5 -3 0 -5 -2 -5 -5z"/>
<path d="M520 5 c0 -3 2 -5 5 -5 3 0 5 2 5 5 0 3 -2 5 -5 5 -3 0 -5 -2 -5 -5z"/>
<path d="M830 5 c0 -3 2 -5 5 -5 3 0 5 2 5 5 0 3 -2 5 -5 5 -3 0 -5 -2 -5 -5z"/>
</g>
<g transform="translate(0.000000,96.000000) scale(0.100000,-0.100000)"
fill="#1e4aa0" stroke="none">
<path d="M45 910 c3 -5 15 -10 25 -10 10 0 22 -4 25 -10 10 -17 25 -11 25 10
0 17 -7 20 -41 20 -24 0 -38 -4 -34 -10z"/>
<path d="M240 910 c0 -5 9 -10 20 -10 11 0 20 5 20 10 0 6 -9 10 -20 10 -11 0
-20 -4 -20 -10z"/>
<path d="M365 910 c3 -5 15 -10 25 -10 10 0 22 -4 25 -10 10 -17 25 -11 25 10
0 17 -7 20 -41 20 -24 0 -38 -4 -34 -10z"/>
<path d="M560 910 c0 -5 9 -10 20 -10 11 0 20 5 20 10 0 6 -9 10 -20 10 -11 0
-20 -4 -20 -10z"/>
<path d="M685 910 c3 -5 15 -10 25 -10 10 0 22 -4 25 -10 10 -17 25 -11 25 10
0 17 -7 20 -41 20 -24 0 -38 -4 -34 -10z"/>
<path d="M880 910 c0 -5 9 -10 20 -10 11 0 20 5 20 10 0 6 -9 10 -20 10 -11 0
-20 -4 -20 -10z"/>
<path d="M140 894 c0 -20 15 -25 35 -10 17 12 16 13 -8 18 -18 4 -27 1 -27 -8z"/>
<path d="M460 894 c0 -20 15 -25 35 -10 17 12 16 13 -8 18 -18 4 -27 1 -27 -8z"/>
<path d="M780 894 c0 -20 15 -25 35 -10 17 12 16 13 -8 18 -18 4 -27 1 -27 -8z"/>
<path d="M270 865 c0 -3 2 -5 5 -5 3 0 5 2 5 5 0 3 -2 5 -5 5 -3 0 -5 -2 -5
-5z"/>
<path d="M590 865 c0 -3 2 -5 5 -5 3 0 5 2 5 5 0 3 -2 5 -5 5 -3 0 -5 -2 -5
-5z"/>
<path d="M910 865 c0 -3 2 -5 5 -5 3 0 5 2 5 5 0 3 -2 5 -5 5 -3 0 -5 -2 -5
-5z"/>
<path d="M80 840 c-14 -11 -32 -20 -41 -20 -9 0 -19 -9 -22 -20 -4 -16 0 -20
19 -20 17 0 24 6 24 20 0 17 7 20 50 20 51 0 60 6 38 28 -17 17 -39 15 -68 -8z"/>
<path d="M200 839 c-10 -18 -9 -20 12 -17 12 2 24 11 26 21 5 24 -25 22 -38
-4z"/>
<path d="M400 840 c-14 -11 -32 -20 -41 -20 -9 0 -19 -9 -22 -20 -4 -16 0 -20
19 -20 17 0 24 6 24 20 0 17 7 20 50 20 51 0 60 6 38 28 -17 17 -39 15 -68 -8z"/>
<path d="M520 839 c-10 -18 -9 -20 12 -17 12 2 24 11 26 21 5 24 -25 22 -38
-4z"/>
<path d="M720 840 c-14 -11 -32 -20 -41 -20 -9 0 -19 -9 -22 -20 -4 -16 0 -20
19 -20 17 0 24 6 24 20 0 17 7 20 50 20 51 0 60 6 38 28 -17 17 -39 15 -68 -8z"/>
<path d="M840 839 c-10 -18 -9 -20 12 -17 12 2 24 11 26 21 5 24 -25 22 -38
-4z"/>
<path d="M140 780 c0 -24 21 -40 50 -40 30 0 50 17 50 42 0 15 -8 18 -50 16
-38 -2 -50 -6 -50 -18z"/>
<path d="M460 780 c0 -24 21 -40 50 -40 30 0 50 17 50 42 0 15 -8 18 -50 16
-38 -2 -50 -6 -50 -18z m90 -15 c0 -3 -2 -5 -5 -5 -3 0 -5 2 -5 5 0 3 2 5 5 5
3 0 5 -2 5 -5z"/>
<path d="M780 780 c0 -38 55 -54 84 -24 31 30 20 44 -34 42 -38 -2 -50 -6 -50
-18z"/>
<path d="M262 738 c-2 -32 1 -39 15 -36 10 2 19 12 21 22 3 15 0 17 -14 12
-18 -6 -18 -5 0 9 20 15 17 27 -8 31 -8 1 -13 -11 -14 -38z m28 27 c0 -3 -2
-5 -5 -5 -3 0 -5 2 -5 5 0 3 2 5 5 5 3 0 5 -2 5 -5z"/>
<path d="M580 742 c0 -31 3 -38 21 -38 16 0 20 6 17 31 -2 28 -13 44 -30 45
-5 0 -8 -17 -8 -38z m25 -2 c3 -5 4 -10 1 -10 -3 0 -8 5 -11 10 -3 6 -4 10 -1
10 3 0 8 -4 11 -10z"/>
<path d="M900 741 c0 -34 3 -40 20 -38 38 3 23 77 -16 77 -2 0 -4 -18 -4 -39z
m28 -6 c-3 -3 -9 2 -12 12 -6 14 -5 15 5 6 7 -7 10 -15 7 -18z"/>
<path d="M60 740 l-25 -20 33 0 c25 0 32 4 32 20 0 25 -8 25 -40 0z"/>
<path d="M380 740 l-25 -20 33 0 c25 0 32 4 32 20 0 25 -8 25 -40 0z"/>
<path d="M701 740 l-23 -20 31 0 c24 0 31 4 31 20 0 25 -8 25 -39 0z"/>
<path d="M92 708 c-22 -22 -14 -48 13 -48 30 0 43 24 25 45 -15 18 -22 19 -38
3z m18 -33 c0 -3 -2 -5 -5 -5 -3 0 -5 2 -5 5 0 3 2 5 5 5 3 0 5 -2 5 -5z"/>
<path d="M165 710 c-9 -15 2 -27 28 -32 18 -4 23 0 25 19 1 18 -3 23 -23 23
-13 0 -27 -4 -30 -10z"/>
<path d="M412 708 c-7 -7 -12 -20 -12 -30 0 -15 7 -18 34 -16 34 2 38 14 13
46 -12 15 -20 15 -35 0z m28 -33 c0 -3 -2 -5 -5 -5 -3 0 -5 2 -5 5 0 3 2 5 5
5 3 0 5 -2 5 -5z"/>
<path d="M485 710 c-9 -15 2 -27 28 -32 18 -4 23 0 25 19 1 18 -3 23 -23 23
-13 0 -27 -4 -30 -10z"/>
<path d="M732 708 c-7 -7 -12 -20 -12 -30 0 -15 7 -18 34 -16 34 2 38 14 13
46 -12 15 -20 15 -35 0z"/>
<path d="M805 710 c-9 -15 2 -27 28 -32 18 -4 23 0 25 19 1 18 -3 23 -23 23
-13 0 -27 -4 -30 -10z"/>
<path d="M45 590 c3 -5 15 -10 25 -10 10 0 22 -4 25 -10 10 -17 25 -11 25 10
0 17 -7 20 -41 20 -24 0 -38 -4 -34 -10z"/>
<path d="M240 590 c0 -5 9 -10 20 -10 11 0 20 5 20 10 0 6 -9 10 -20 10 -11 0
-20 -4 -20 -10z"/>
<path d="M365 590 c3 -5 15 -10 25 -10 10 0 22 -4 25 -10 10 -17 25 -11 25 10
0 17 -7 20 -41 20 -24 0 -38 -4 -34 -10z"/>
<path d="M560 590 c0 -5 9 -10 20 -10 11 0 20 5 20 10 0 6 -9 10 -20 10 -11 0
-20 -4 -20 -10z"/>
<path d="M685 590 c3 -5 15 -10 25 -10 10 0 22 -4 25 -10 10 -17 25 -11 25 10
0 17 -7 20 -41 20 -24 0 -38 -4 -34 -10z"/>
<path d="M880 590 c0 -5 9 -10 20 -10 11 0 20 5 20 10 0 6 -9 10 -20 10 -11 0
-20 -4 -20 -10z"/>
<path d="M140 574 c0 -20 15 -25 35 -10 17 12 16 13 -8 18 -18 4 -27 1 -27 -8z"/>
<path d="M460 574 c0 -20 15 -25 35 -10 17 12 16 13 -8 18 -18 4 -27 1 -27 -8z"/>
<path d="M780 574 c0 -20 15 -25 35 -10 17 12 16 13 -8 18 -18 4 -27 1 -27 -8z"/>
<path d="M270 545 c0 -3 2 -5 5 -5 3 0 5 2 5 5 0 3 -2 5 -5 5 -3 0 -5 -2 -5
-5z"/>
<path d="M590 545 c0 -3 2 -5 5 -5 3 0 5 2 5 5 0 3 -2 5 -5 5 -3 0 -5 -2 -5
-5z"/>
<path d="M910 545 c0 -3 2 -5 5 -5 3 0 5 2 5 5 0 3 -2 5 -5 5 -3 0 -5 -2 -5
-5z"/>
<path d="M80 520 c-14 -11 -32 -20 -41 -20 -9 0 -19 -9 -22 -20 -4 -16 0 -20
19 -20 17 0 24 6 24 20 0 17 7 20 50 20 51 0 60 6 38 28 -17 17 -39 15 -68 -8z"/>
<path d="M200 519 c-10 -18 -9 -20 12 -17 12 2 24 11 26 21 5 24 -25 22 -38
-4z"/>
<path d="M400 520 c-14 -11 -32 -20 -41 -20 -9 0 -19 -9 -22 -20 -4 -16 0 -20
19 -20 17 0 24 6 24 20 0 17 7 20 50 20 51 0 60 6 38 28 -17 17 -39 15 -68 -8z"/>
<path d="M520 519 c-10 -18 -9 -20 12 -17 12 2 24 11 26 21 5 24 -25 22 -38
-4z"/>
<path d="M720 520 c-14 -11 -32 -20 -41 -20 -9 0 -19 -9 -22 -20 -4 -16 0 -20
19 -20 17 0 24 6 24 20 0 17 7 20 50 20 51 0 60 6 38 28 -17 17 -39 15 -68 -8z"/>
<path d="M840 519 c-10 -18 -9 -20 12 -17 12 2 24 11 26 21 5 24 -25 22 -38
-4z"/>
<path d="M620 505 c0 -3 2 -5 5 -5 3 0 5 2 5 5 0 3 -2 5 -5 5 -3 0 -5 -2 -5
-5z"/>
<path d="M140 460 c0 -24 21 -40 50 -40 30 0 50 17 50 42 0 15 -8 18 -50 16
-38 -2 -50 -6 -50 -18z m80 -25 c0 -3 -2 -5 -5 -5 -3 0 -5 2 -5 5 0 3 2 5 5 5
3 0 5 -2 5 -5z"/>
<path d="M460 460 c0 -24 21 -40 51 -40 29 0 41 12 46 42 2 15 -4 18 -47 16
-38 -2 -50 -6 -50 -18z"/>
<path d="M782 456 c7 -47 89 -45 96 2 3 21 0 22 -48 20 -44 -2 -50 -5 -48 -22z
m88 -11 c0 -3 -2 -5 -5 -5 -3 0 -5 2 -5 5 0 3 2 5 5 5 3 0 5 -2 5 -5z"/>
<path d="M260 422 c0 -31 4 -38 20 -39 25 -2 26 22 3 37 -17 11 -17 11 1 6 14
-5 17 -2 12 10 -3 8 -6 18 -6 20 0 2 -7 4 -15 4 -11 0 -15 -11 -15 -38z m20
23 c0 -3 -2 -5 -5 -5 -3 0 -5 2 -5 5 0 3 2 5 5 5 3 0 5 -2 5 -5z"/>
<path d="M580 422 c0 -31 4 -38 20 -38 16 0 19 6 15 31 -2 16 -4 33 -4 38 -1
4 -8 7 -16 7 -11 0 -15 -11 -15 -38z m20 3 c0 -3 -2 -5 -5 -5 -3 0 -5 2 -5 5
0 3 2 5 5 5 3 0 5 -2 5 -5z"/>
<path d="M902 420 c0 -30 4 -40 17 -40 11 0 16 10 17 36 1 27 -2 34 -13 30 -8
-3 -11 -1 -8 4 3 6 2 10 -4 10 -5 0 -9 -18 -9 -40z"/>
<path d="M60 420 l-25 -20 33 0 c25 0 32 4 32 20 0 25 -8 25 -40 0z"/>
<path d="M380 420 l-25 -20 33 0 c25 0 32 4 32 20 0 25 -8 25 -40 0z"/>
<path d="M701 420 l-23 -20 31 0 c24 0 31 4 31 20 0 25 -8 25 -39 0z"/>
<path d="M92 388 c-7 -7 -12 -20 -12 -29 0 -14 8 -17 34 -16 34 2 37 13 13 45
-12 15 -20 15 -35 0z"/>
<path d="M165 390 c-9 -15 2 -27 28 -32 18 -4 23 0 25 19 1 18 -3 23 -23 23
-13 0 -27 -4 -30 -10z"/>
<path d="M412 388 c-7 -7 -12 -20 -12 -30 0 -15 7 -18 34 -16 34 2 38 14 13
46 -12 15 -20 15 -35 0z m18 -33 c0 -3 -2 -5 -5 -5 -3 0 -5 2 -5 5 0 3 2 5 5
5 3 0 5 -2 5 -5z"/>
<path d="M485 390 c-9 -15 2 -27 28 -32 18 -4 23 0 25 19 1 18 -3 23 -23 23
-13 0 -27 -4 -30 -10z"/>
<path d="M732 388 c-7 -7 -12 -20 -12 -30 0 -15 7 -18 34 -16 34 2 38 14 13
46 -12 15 -20 15 -35 0z"/>
<path d="M805 390 c-9 -15 2 -27 28 -32 18 -4 23 0 25 19 1 18 -3 23 -23 23
-13 0 -27 -4 -30 -10z"/>
<path d="M46 268 c3 -4 14 -8 24 -8 10 0 22 -4 25 -10 10 -17 25 -11 25 10 0
17 -6 20 -40 18 -21 -1 -37 -5 -34 -10z"/>
<path d="M240 270 c0 -5 9 -10 20 -10 11 0 20 5 20 10 0 6 -9 10 -20 10 -11 0
-20 -4 -20 -10z"/>
<path d="M365 270 c3 -5 15 -10 25 -10 10 0 22 -4 25 -10 10 -17 25 -11 25 10
0 17 -7 20 -41 20 -24 0 -38 -4 -34 -10z"/>
<path d="M560 270 c0 -5 9 -10 20 -10 11 0 20 5 20 10 0 6 -9 10 -20 10 -11 0
-20 -4 -20 -10z"/>
<path d="M685 270 c3 -5 15 -10 25 -10 10 0 22 -4 25 -10 10 -17 25 -11 25 10
0 17 -7 20 -41 20 -24 0 -38 -4 -34 -10z"/>
<path d="M880 270 c0 -5 9 -10 20 -10 11 0 20 5 20 10 0 6 -9 10 -20 10 -11 0
-20 -4 -20 -10z"/>
<path d="M140 254 c0 -20 15 -25 35 -10 17 12 16 13 -8 18 -18 4 -27 1 -27 -8z"/>
<path d="M460 254 c0 -20 15 -25 35 -10 17 12 16 13 -8 18 -18 4 -27 1 -27 -8z"/>
<path d="M780 254 c0 -20 15 -25 35 -10 17 12 16 13 -8 18 -18 4 -27 1 -27 -8z"/>
<path d="M270 225 c0 -3 2 -5 5 -5 3 0 5 2 5 5 0 3 -2 5 -5 5 -3 0 -5 -2 -5
-5z"/>
<path d="M590 225 c0 -3 2 -5 5 -5 3 0 5 2 5 5 0 3 -2 5 -5 5 -3 0 -5 -2 -5
-5z"/>
<path d="M910 225 c0 -3 2 -5 5 -5 3 0 5 2 5 5 0 3 -2 5 -5 5 -3 0 -5 -2 -5
-5z"/>
<path d="M80 200 c-14 -11 -32 -20 -41 -20 -9 0 -19 -9 -22 -20 -4 -16 0 -20
19 -20 17 0 24 6 24 20 0 17 7 20 50 20 51 0 60 6 38 28 -17 17 -39 15 -68 -8z"/>
<path d="M200 199 c-10 -18 -9 -20 12 -17 12 2 24 11 26 21 5 24 -25 22 -38
-4z"/>
<path d="M400 200 c-14 -11 -32 -20 -41 -20 -9 0 -19 -9 -22 -20 -4 -16 0 -20
19 -20 17 0 24 6 24 20 0 17 7 20 50 20 51 0 60 6 38 28 -17 17 -39 15 -68 -8z"/>
<path d="M520 199 c-10 -18 -9 -20 12 -17 12 2 24 11 26 21 5 24 -25 22 -38
-4z"/>
<path d="M720 200 c-14 -11 -32 -20 -41 -20 -9 0 -19 -9 -22 -20 -4 -16 0 -20
19 -20 17 0 24 6 24 20 0 17 7 20 50 20 51 0 60 6 38 28 -17 17 -39 15 -68 -8z"/>
<path d="M840 199 c-10 -18 -9 -20 12 -17 12 2 24 11 26 21 5 24 -25 22 -38
-4z"/>
<path d="M280 195 c0 -3 2 -5 5 -5 3 0 5 2 5 5 0 3 -2 5 -5 5 -3 0 -5 -2 -5
-5z"/>
<path d="M140 140 c0 -24 21 -40 51 -40 29 0 41 12 46 42 2 15 -4 18 -47 16
-38 -2 -50 -6 -50 -18z"/>
<path d="M460 140 c0 -38 55 -54 84 -24 31 30 20 44 -34 42 -38 -2 -50 -6 -50
-18z"/>
<path d="M780 140 c0 -24 21 -40 50 -40 30 0 50 17 50 42 0 15 -8 18 -50 16
-38 -2 -50 -6 -50 -18z m90 -15 c0 -3 -2 -5 -5 -5 -3 0 -5 2 -5 5 0 3 2 5 5 5
3 0 5 -2 5 -5z"/>
<path d="M260 102 c0 -31 4 -38 20 -38 16 0 19 6 15 31 -2 16 -4 33 -4 38 -1
4 -8 7 -16 7 -11 0 -15 -11 -15 -38z m20 3 c0 -3 -2 -5 -5 -5 -3 0 -5 2 -5 5
0 3 2 5 5 5 3 0 5 -2 5 -5z"/>
<path d="M580 101 c0 -33 3 -40 19 -38 33 2 23 76 -11 77 -5 0 -8 -18 -8 -39z
m25 9 c3 -5 4 -10 1 -10 -3 0 -8 5 -11 10 -3 6 -4 10 -1 10 3 0 8 -4 11 -10z"/>
<path d="M900 102 c0 -31 3 -38 21 -38 16 0 20 6 17 31 -2 28 -13 44 -30 45
-5 0 -8 -17 -8 -38z m25 -2 c3 -5 4 -10 1 -10 -3 0 -8 5 -11 10 -3 6 -4 10 -1
10 3 0 8 -4 11 -10z"/>
<path d="M60 100 l-25 -20 33 0 c25 0 32 4 32 20 0 25 -8 25 -40 0z"/>
<path d="M381 100 l-23 -20 31 0 c24 0 31 4 31 20 0 25 -8 25 -39 0z"/>
<path d="M700 100 l-25 -20 33 0 c25 0 32 4 32 20 0 25 -8 25 -40 0z"/>
<path d="M92 68 c-7 -7 -12 -20 -12 -30 0 -15 7 -18 34 -16 34 2 38 14 13 46
-12 15 -20 15 -35 0z m18 -33 c0 -3 -2 -5 -5 -5 -3 0 -5 2 -5 5 0 3 2 5 5 5 3
0 5 -2 5 -5z"/>
<path d="M165 70 c-9 -15 2 -27 28 -32 18 -4 23 0 25 19 1 18 -3 23 -23 23
-13 0 -27 -4 -30 -10z"/>
<path d="M412 68 c-7 -7 -12 -20 -12 -30 0 -15 7 -18 34 -16 34 2 38 14 13 46
-12 15 -20 15 -35 0z"/>
<path d="M485 70 c-9 -15 2 -27 28 -32 18 -4 23 0 25 19 1 18 -3 23 -23 23
-13 0 -27 -4 -30 -10z"/>
<path d="M732 68 c-7 -7 -12 -20 -12 -30 0 -15 7 -18 34 -16 34 2 38 14 13 46
-12 15 -20 15 -35 0z"/>
<path d="M805 70 c-9 -15 2 -27 28 -32 18 -4 23 0 25 19 1 18 -3 23 -23 23
-13 0 -27 -4 -30 -10z"/>
</g>
<g transform="translate(0.000000,96.000000) scale(0.100000,-0.100000)"
fill="#1533a9" stroke="none">
<path d="M45 910 c3 -5 8 -10 11 -10 2 0 4 5 4 10 0 6 -5 10 -11 10 -5 0 -7
-4 -4 -10z"/>
<path d="M70 912 c0 -4 10 -13 21 -21 19 -11 21 -11 15 4 -3 9 -6 19 -6 21 0
2 -7 4 -15 4 -8 0 -15 -3 -15 -8z"/>
<path d="M260 915 c0 -3 2 -5 5 -5 3 0 5 2 5 5 0 3 -2 5 -5 5 -3 0 -5 -2 -5
-5z"/>
<path d="M397 898 c44 -22 49 -22 34 -5 -6 8 -8 16 -5 19 3 4 -11 6 -31 5
l-35 -1 37 -18z"/>
<path d="M560 910 c0 -5 7 -10 16 -10 8 0 12 5 9 10 -3 6 -10 10 -16 10 -5 0
-9 -4 -9 -10z"/>
<path d="M686 908 c3 -4 14 -8 24 -8 10 0 22 -4 25 -10 3 -5 10 -10 16 -10 5
0 4 8 -2 18 -7 11 -23 19 -40 19 -15 0 -26 -4 -23 -9z"/>
<path d="M880 912 c0 -5 7 -9 15 -9 8 0 12 4 9 9 -3 4 -9 8 -15 8 -5 0 -9 -4
-9 -8z"/>
<path d="M240 905 c0 -3 2 -5 5 -5 3 0 5 2 5 5 0 3 -2 5 -5 5 -3 0 -5 -2 -5
-5z"/>
<path d="M82 840 c-18 -11 -39 -20 -46 -20 -8 0 -16 -9 -19 -20 -4 -16 0 -20
19 -20 17 0 24 6 24 20 0 17 7 20 39 20 34 0 40 3 38 20 -2 25 -13 25 -55 0z
m-42 -35 c0 -3 -2 -5 -5 -5 -3 0 -5 2 -5 5 0 3 2 5 5 5 3 0 5 -2 5 -5z"/>
<path d="M392 836 c-18 -13 -33 -28 -33 -32 1 -5 -3 -9 -8 -9 -20 0 -19 -11 1
-12 12 -1 22 5 25 18 4 15 14 19 44 19 32 0 39 3 39 20 0 27 -26 25 -68 -4z"/>
<path d="M720 840 c-14 -11 -33 -20 -42 -20 -10 0 -18 -5 -18 -11 0 -6 7 -8
16 -5 14 5 15 4 4 -9 -10 -12 -10 -15 4 -15 9 0 16 8 16 20 0 17 7 20 39 20
24 0 41 5 44 14 12 31 -26 35 -63 6z"/>
<path d="M470 825 c0 -3 2 -5 5 -5 3 0 5 2 5 5 0 3 -2 5 -5 5 -3 0 -5 -2 -5
-5z"/>
<path d="M530 825 c0 -3 2 -5 5 -5 3 0 5 2 5 5 0 3 -2 5 -5 5 -3 0 -5 -2 -5
-5z"/>
<path d="M140 790 c0 -5 5 -10 11 -10 5 0 7 5 4 10 -3 6 -8 10 -11 10 -2 0 -4
-4 -4 -10z"/>
<path d="M230 795 c0 -3 2 -5 5 -5 3 0 5 2 5 5 0 3 -2 5 -5 5 -3 0 -5 -2 -5
-5z"/>
<path d="M460 790 c0 -7 3 -10 7 -7 3 4 3 10 0 14 -4 3 -7 0 -7 -7z"/>
<path d="M783 782 c1 -14 5 -18 11 -12 7 7 6 14 -1 21 -9 9 -12 7 -10 -9z"/>
<path d="M650 785 c0 -3 2 -5 5 -5 3 0 5 2 5 5 0 3 -2 5 -5 5 -3 0 -5 -2 -5
-5z"/>
<path d="M480 775 c0 -3 2 -5 5 -5 3 0 5 2 5 5 0 3 -2 5 -5 5 -3 0 -5 -2 -5
-5z"/>
<path d="M155 761 c-3 -5 0 -13 6 -17 7 -4 9 -3 5 4 -3 5 0 13 6 15 9 4 10 6
1 6 -6 1 -14 -3 -18 -8z"/>
<path d="M68 746 c-24 -18 -22 -28 4 -24 13 2 24 11 26 21 4 20 -6 21 -30 3z"/>
<path d="M393 745 c-18 -20 -16 -25 7 -25 13 0 20 7 20 20 0 23 -10 25 -27 5z"/>
<path d="M480 750 c0 -5 5 -10 10 -10 6 0 10 5 10 10 0 6 -4 10 -10 10 -5 0
-10 -4 -10 -10z"/>
<path d="M715 750 c-7 -12 2 -30 16 -30 5 0 9 9 9 20 0 21 -15 27 -25 10z"/>
<path d="M92 708 c-19 -19 -14 -28 11 -24 12 3 26 5 31 5 10 1 -13 31 -23 31
-4 0 -12 -5 -19 -12z"/>
<path d="M165 711 c-9 -16 1 -28 29 -33 21 -4 23 -2 16 16 -8 23 -35 33 -45
17z m35 -6 c0 -3 -2 -5 -5 -5 -3 0 -5 2 -5 5 0 3 2 5 5 5 3 0 5 -2 5 -5z"/>
<path d="M412 708 c-19 -19 -14 -27 16 -24 15 2 29 4 31 5 6 2 -21 31 -28 31
-4 0 -12 -5 -19 -12z"/>
<path d="M484 709 c-3 -6 -2 -15 3 -20 5 -5 14 0 21 11 10 17 10 20 -2 20 -8
0 -18 -5 -22 -11z"/>
<path d="M732 708 c-22 -22 -15 -37 13 -25 24 12 29 27 9 34 -5 2 -15 -2 -22
-9z"/>
<path d="M805 710 c-3 -5 -3 -14 0 -20 8 -13 35 -13 35 1 0 5 6 7 13 3 8 -5 8
-2 -2 9 -15 19 -37 22 -46 7z"/>
<path d="M46 588 c3 -4 14 -8 24 -8 10 0 22 -4 25 -10 3 -5 10 -10 16 -10 5 0
4 8 -2 18 -7 11 -23 19 -40 19 -15 0 -26 -4 -23 -9z"/>
<path d="M245 590 c-3 -5 1 -10 10 -10 9 0 13 5 10 10 -3 6 -8 10 -10 10 -2 0
-7 -4 -10 -10z"/>
<path d="M366 588 c3 -4 13 -8 23 -8 9 0 22 -5 28 -11 9 -9 12 -7 10 8 -1 17
-8 21 -33 20 -18 -1 -31 -5 -28 -9z"/>
<path d="M560 590 c0 -5 7 -10 16 -10 8 0 12 5 9 10 -3 6 -10 10 -16 10 -5 0
-9 -4 -9 -10z"/>
<path d="M686 588 c3 -4 14 -8 24 -8 10 0 22 -4 25 -10 3 -5 10 -10 16 -10 5
0 4 8 -2 18 -7 11 -23 19 -40 19 -15 0 -26 -4 -23 -9z"/>
<path d="M880 592 c0 -5 7 -9 15 -9 8 0 12 4 9 9 -3 4 -9 8 -15 8 -5 0 -9 -4
-9 -8z"/>
<path d="M81 520 l-23 -20 29 0 c28 0 53 15 53 32 0 15 -35 7 -59 -12z"/>
<path d="M400 520 c-14 -11 -30 -20 -37 -20 -7 0 -10 -7 -6 -17 4 -10 2 -14
-5 -9 -6 3 -13 3 -16 -2 -2 -4 5 -9 16 -9 12 -1 22 6 25 18 4 14 14 19 43 19
23 0 40 5 43 14 12 31 -26 35 -63 6z"/>
<path d="M720 520 c-14 -11 -33 -20 -42 -20 -10 0 -18 -5 -18 -11 0 -6 7 -8
16 -5 14 5 15 4 4 -9 -10 -12 -10 -15 4 -15 9 0 16 8 16 20 0 17 7 20 39 20
24 0 41 5 44 14 12 31 -26 35 -63 6z"/>
<path d="M470 505 c0 -3 2 -5 5 -5 3 0 5 2 5 5 0 3 -2 5 -5 5 -3 0 -5 -2 -5
-5z"/>
<path d="M17 480 c-4 -16 0 -19 19 -18 27 3 33 18 7 18 -15 0 -16 2 -3 10 13
8 13 10 -1 10 -9 0 -19 -9 -22 -20z"/>
<path d="M140 470 c0 -5 6 -10 13 -10 9 0 9 -2 -1 -9 -10 -6 -10 -10 3 -21 22
-18 28 -7 14 24 -12 26 -29 35 -29 16z m30 -35 c0 -3 -2 -5 -5 -5 -3 0 -5 2
-5 5 0 3 2 5 5 5 3 0 5 -2 5 -5z"/>
<path d="M460 470 c0 -7 3 -10 7 -7 3 4 3 10 0 14 -4 3 -7 0 -7 -7z"/>
<path d="M783 462 c1 -14 5 -18 11 -12 7 7 6 14 -1 21 -9 9 -12 7 -10 -9z"/>
<path d="M650 465 c0 -3 2 -5 5 -5 3 0 5 2 5 5 0 3 -2 5 -5 5 -3 0 -5 -2 -5
-5z"/>
<path d="M180 455 c0 -3 2 -5 5 -5 3 0 5 2 5 5 0 3 -2 5 -5 5 -3 0 -5 -2 -5
-5z"/>
<path d="M483 435 c0 -8 4 -15 9 -15 4 0 8 4 8 9 0 6 -4 12 -8 15 -5 3 -9 -1
-9 -9z"/>
<path d="M68 426 c-20 -15 -14 -26 13 -26 12 0 17 7 16 20 -2 23 -6 24 -29 6z"/>
<path d="M200 435 c0 -3 2 -5 5 -5 3 0 5 2 5 5 0 3 -2 5 -5 5 -3 0 -5 -2 -5
-5z"/>
<path d="M393 425 c-18 -20 -16 -25 7 -25 13 0 20 7 20 20 0 23 -10 25 -27 5z"/>
<path d="M715 430 c-7 -12 2 -30 16 -30 5 0 9 9 9 20 0 21 -15 27 -25 10z"/>
<path d="M810 430 c0 -7 3 -10 7 -7 3 4 3 10 0 14 -4 3 -7 0 -7 -7z"/>
<path d="M92 388 c-19 -19 -14 -25 18 -25 17 0 30 3 30 7 0 8 -22 30 -30 30
-3 0 -11 -5 -18 -12z"/>
<path d="M164 389 c-14 -23 14 -31 37 -10 l23 21 -27 0 c-14 0 -29 -5 -33 -11z"/>
<path d="M412 388 c-24 -24 -10 -29 47 -19 6 1 -21 31 -28 31 -4 0 -12 -5 -19
-12z"/>
<path d="M484 389 c-3 -6 -2 -15 3 -20 5 -5 14 0 21 11 10 17 10 20 -2 20 -8
0 -18 -5 -22 -11z"/>
<path d="M732 388 c-7 -7 -12 -18 -12 -25 0 -11 5 -10 23 2 13 8 28 12 32 8 5
-5 3 0 -4 10 -16 20 -23 21 -39 5z"/>
<path d="M805 391 c-3 -6 -3 -15 0 -21 8 -13 35 -13 35 1 0 5 5 7 11 3 7 -4
10 -1 7 7 -6 17 -44 24 -53 10z"/>
<path d="M930 385 c0 -3 2 -5 5 -5 3 0 5 2 5 5 0 3 -2 5 -5 5 -3 0 -5 -2 -5
-5z"/>
<path d="M430 345 c0 -3 2 -5 5 -5 3 0 5 2 5 5 0 3 -2 5 -5 5 -3 0 -5 -2 -5
-5z"/>
<path d="M67 273 c-4 -3 5 -12 19 -20 33 -17 39 -17 25 0 -6 8 -8 17 -4 20 3
4 -3 7 -14 7 -11 0 -23 -3 -26 -7z"/>
<path d="M240 270 c0 -5 5 -10 10 -10 6 0 10 5 10 10 0 6 -4 10 -10 10 -5 0
-10 -4 -10 -10z"/>
<path d="M366 268 c3 -4 14 -8 24 -8 10 0 22 -4 25 -10 3 -5 11 -10 17 -10 7
0 7 4 -1 13 -6 8 -9 16 -6 18 2 3 -11 5 -30 5 -18 0 -31 -4 -29 -8z"/>
<path d="M560 272 c0 -5 7 -9 15 -9 8 0 12 4 9 9 -3 4 -9 8 -15 8 -5 0 -9 -4
-9 -8z"/>
<path d="M683 273 c4 -3 10 -3 14 0 3 4 0 7 -7 7 -7 0 -10 -3 -7 -7z"/>
<path d="M710 274 c0 -9 32 -33 44 -34 5 0 3 6 -3 13 -6 8 -8 17 -4 20 3 4 -3
7 -15 7 -12 0 -22 -3 -22 -6z"/>
<path d="M880 270 c0 -5 7 -10 16 -10 8 0 12 5 9 10 -3 6 -10 10 -16 10 -5 0
-9 -4 -9 -10z"/>
<path d="M140 245 c0 -3 2 -5 5 -5 3 0 5 2 5 5 0 3 -2 5 -5 5 -3 0 -5 -2 -5
-5z"/>
<path d="M80 200 c-14 -11 -32 -20 -40 -20 -13 0 -13 -1 0 -10 14 -9 13 -11
-9 -14 -20 -2 -19 -12 1 -13 12 -1 22 5 25 18 4 15 14 19 44 19 32 0 39 3 39
20 0 26 -27 26 -60 0z"/>
<path d="M400 200 c-14 -11 -33 -20 -42 -20 -10 0 -18 -5 -18 -11 0 -5 6 -7
13 -4 6 4 4 0 -6 -8 -16 -14 -16 -15 8 -14 18 0 25 5 25 18 0 15 8 19 39 19
24 0 41 5 44 14 12 31 -26 35 -63 6z"/>
<path d="M714 197 c-17 -12 -29 -28 -27 -34 3 -7 0 -13 -5 -13 -6 0 -12 5 -14
12 -3 7 -7 6 -11 -5 -5 -13 -1 -17 14 -17 12 0 23 8 26 20 4 16 14 20 44 20
32 0 39 3 39 20 0 26 -26 25 -66 -3z"/>
<path d="M790 185 c0 -3 2 -5 5 -5 3 0 5 2 5 5 0 3 -2 5 -5 5 -3 0 -5 -2 -5
-5z"/>
<path d="M850 185 c0 -3 2 -5 5 -5 3 0 5 2 5 5 0 3 -2 5 -5 5 -3 0 -5 -2 -5
-5z"/>
<path d="M140 150 c0 -7 3 -10 7 -7 3 4 3 10 0 14 -4 3 -7 0 -7 -7z"/>
<path d="M463 142 c1 -14 5 -18 11 -12 7 7 6 14 -1 21 -9 9 -12 7 -10 -9z"/>
<path d="M780 151 c0 -5 7 -12 16 -15 14 -5 15 -4 4 9 -14 17 -20 19 -20 6z"/>
<path d="M163 115 c0 -8 4 -15 9 -15 4 0 8 4 8 9 0 6 -4 12 -8 15 -5 3 -9 -1
-9 -9z"/>
<path d="M73 105 c-18 -20 -16 -25 7 -25 13 0 20 7 20 20 0 23 -10 25 -27 5z"/>
<path d="M397 114 c-8 -8 3 -34 14 -34 5 0 9 9 9 20 0 19 -11 26 -23 14z"/>
<path d="M490 115 c0 -3 2 -5 5 -5 3 0 5 2 5 5 0 3 -2 5 -5 5 -3 0 -5 -2 -5
-5z"/>
<path d="M713 105 c-18 -20 -16 -25 7 -25 13 0 20 7 20 20 0 23 -10 25 -27 5z"/>
<path d="M800 110 c0 -5 5 -10 10 -10 6 0 10 5 10 10 0 6 -4 10 -10 10 -5 0
-10 -4 -10 -10z"/>
<path d="M92 68 c-24 -24 -10 -29 47 -19 6 1 -21 31 -28 31 -4 0 -12 -5 -19
-12z"/>
<path d="M164 69 c-3 -6 -2 -15 3 -20 5 -5 14 0 21 11 10 17 10 20 -2 20 -8 0
-18 -5 -22 -11z"/>
<path d="M412 68 c-7 -7 -12 -19 -12 -27 0 -12 3 -12 12 -3 7 7 21 12 31 12
16 0 17 3 7 15 -15 18 -22 19 -38 3z"/>
<path d="M485 70 c-3 -5 -3 -14 0 -20 8 -13 35 -13 35 1 0 5 4 7 10 4 6 -3 7
1 4 9 -7 18 -39 21 -49 6z"/>
<path d="M730 65 c-15 -18 -5 -34 11 -18 6 6 19 9 28 5 14 -5 14 -4 2 11 -17
21 -25 21 -41 2z"/>
<path d="M804 69 c-3 -6 -2 -15 3 -20 5 -5 14 0 21 11 10 17 10 20 -2 20 -8 0
-18 -5 -22 -11z"/>
<path d="M110 25 c0 -3 2 -5 5 -5 3 0 5 2 5 5 0 3 -2 5 -5 5 -3 0 -5 -2 -5 -5z"/>
</g>
<g transform="translate(0.000000,96.000000) scale(0.100000,-0.100000)"
fill="#1c53c4" stroke="none">
<path d="M45 910 c3 -5 8 -10 11 -10 2 0 4 5 4 10 0 6 -5 10 -11 10 -5 0 -7
-4 -4 -10z"/>
<path d="M70 912 c0 -4 10 -13 21 -21 19 -11 21 -11 15 4 -3 9 -6 19 -6 21 0
2 -7 4 -15 4 -8 0 -15 -3 -15 -8z"/>
<path d="M397 898 c44 -22 49 -22 34 -5 -6 8 -8 16 -5 19 3 4 -11 6 -31 5
l-35 -1 37 -18z"/>
<path d="M686 908 c3 -4 14 -8 24 -8 10 0 22 -4 25 -10 3 -5 10 -10 16 -10 5
0 4 8 -2 18 -7 11 -23 19 -40 19 -15 0 -26 -4 -23 -9z"/>
<path d="M75 834 c-22 -14 -32 -23 -22 -20 10 3 25 6 33 6 9 0 12 5 8 12 -5 7
-3 8 7 2 27 -17 40 -14 29 7 -6 10 -12 19 -13 19 -1 0 -20 -12 -42 -26z"/>
<path d="M395 835 c-22 -13 -35 -25 -28 -25 6 0 14 4 17 8 3 5 20 8 39 8 28
-1 33 2 29 16 -6 23 -9 23 -57 -7z m25 0 c0 -3 -2 -5 -5 -5 -3 0 -5 2 -5 5 0
3 2 5 5 5 3 0 5 -2 5 -5z"/>
<path d="M740 845 c0 -9 -6 -15 -12 -14 -14 2 -68 -18 -68 -25 0 -2 19 2 43 9
23 7 50 11 59 10 18 -3 20 15 3 27 -16 12 -25 9 -25 -7z"/>
<path d="M20 800 c0 -7 3 -10 7 -7 3 4 3 10 0 14 -4 3 -7 0 -7 -7z"/>
<path d="M45 790 c3 -5 8 -10 11 -10 3 0 2 5 -1 10 -3 6 -8 10 -11 10 -3 0 -2
-4 1 -10z"/>
<path d="M140 795 c0 -3 2 -5 5 -5 3 0 5 2 5 5 0 3 -2 5 -5 5 -3 0 -5 -2 -5
-5z"/>
<path d="M230 795 c0 -3 2 -5 5 -5 3 0 5 2 5 5 0 3 -2 5 -5 5 -3 0 -5 -2 -5
-5z"/>
<path d="M684 788 c-4 -7 -3 -8 4 -4 7 4 12 9 12 12 0 8 -9 4 -16 -8z"/>
<path d="M160 765 c0 -3 2 -5 5 -5 3 0 5 2 5 5 0 3 -2 5 -5 5 -3 0 -5 -2 -5
-5z"/>
<path d="M490 745 c0 -3 2 -5 5 -5 3 0 5 2 5 5 0 3 -2 5 -5 5 -3 0 -5 -2 -5
-5z"/>
<path d="M46 588 c3 -4 14 -8 24 -8 10 0 22 -4 25 -10 3 -5 10 -10 16 -10 5 0
4 8 -2 18 -7 11 -23 19 -40 19 -15 0 -26 -4 -23 -9z"/>
<path d="M366 588 c3 -4 13 -8 23 -8 9 0 22 -5 28 -11 9 -9 12 -7 10 8 -1 17
-8 21 -33 20 -18 -1 -31 -5 -28 -9z"/>
<path d="M686 588 c3 -4 14 -8 24 -8 10 0 22 -4 25 -10 3 -5 10 -10 16 -10 5
0 4 8 -2 18 -7 11 -23 19 -40 19 -15 0 -26 -4 -23 -9z"/>
<path d="M99 533 c-1 -5 -1 -12 0 -16 1 -5 -2 -6 -7 -3 -4 2 -14 0 -22 -5 -11
-7 -7 -9 15 -7 19 2 31 9 33 21 2 9 -1 17 -7 17 -6 0 -12 -3 -12 -7z"/>
<path d="M422 532 c-6 -2 -9 -9 -5 -15 4 -7 0 -8 -11 -4 -9 4 -14 3 -11 -2 9
-15 58 -6 61 11 2 15 -10 18 -34 10z"/>
<path d="M740 525 c0 -9 -6 -15 -12 -14 -14 2 -68 -18 -68 -25 0 -2 19 2 43 9
23 7 50 11 59 10 18 -3 20 15 3 27 -16 12 -25 9 -25 -7z"/>
<path d="M130 525 c0 -3 2 -5 5 -5 3 0 5 2 5 5 0 3 -2 5 -5 5 -3 0 -5 -2 -5
-5z"/>
<path d="M20 495 c0 -3 2 -5 5 -5 3 0 5 2 5 5 0 3 -2 5 -5 5 -3 0 -5 -2 -5 -5z"/>
<path d="M40 495 c0 -3 2 -5 5 -5 3 0 5 2 5 5 0 3 -2 5 -5 5 -3 0 -5 -2 -5 -5z"/>
<path d="M365 490 c3 -5 8 -10 11 -10 2 0 4 5 4 10 0 6 -5 10 -11 10 -5 0 -7
-4 -4 -10z"/>
<path d="M684 468 c-4 -7 -3 -8 4 -4 7 4 12 9 12 12 0 8 -9 4 -16 -8z"/>
<path d="M10 465 c0 -3 2 -5 5 -5 3 0 5 2 5 5 0 3 -2 5 -5 5 -3 0 -5 -2 -5 -5z"/>
<path d="M30 465 c0 -3 2 -5 5 -5 3 0 5 2 5 5 0 3 -2 5 -5 5 -3 0 -5 -2 -5 -5z"/>
<path d="M155 449 c-4 -6 -5 -12 -2 -15 2 -3 7 2 10 11 7 17 1 20 -8 4z"/>
<path d="M840 395 c0 -3 2 -5 5 -5 3 0 5 2 5 5 0 3 -2 5 -5 5 -3 0 -5 -2 -5
-5z"/>
<path d="M67 273 c-4 -3 5 -12 19 -20 33 -17 39 -17 25 0 -6 8 -8 17 -4 20 3
4 -3 7 -14 7 -11 0 -23 -3 -26 -7z"/>
<path d="M366 268 c3 -4 14 -8 24 -8 10 0 22 -4 25 -10 3 -5 11 -10 17 -10 7
0 7 4 -1 13 -6 8 -9 16 -6 18 2 3 -11 5 -30 5 -18 0 -31 -4 -29 -8z"/>
<path d="M683 273 c4 -3 10 -3 14 0 3 4 0 7 -7 7 -7 0 -10 -3 -7 -7z"/>
<path d="M710 274 c0 -9 32 -33 44 -34 5 0 3 6 -3 13 -6 8 -8 17 -4 20 3 4 -3
7 -15 7 -12 0 -22 -3 -22 -6z"/>
<path d="M71 194 c-28 -15 -37 -24 -27 -27 8 -3 16 -1 19 6 2 6 18 12 37 12
22 0 34 6 35 16 4 22 -15 20 -64 -7z m29 1 c0 -3 -2 -5 -5 -5 -3 0 -5 2 -5 5
0 3 2 5 5 5 3 0 5 -2 5 -5z"/>
<path d="M420 204 c0 -9 -6 -14 -13 -11 -26 10 -55 -31 -34 -47 4 -3 5 -3 2 0
-13 18 16 40 49 39 34 -2 43 11 21 27 -16 12 -25 9 -25 -8z"/>
<path d="M743 213 c-22 -8 -14 -31 10 -29 17 1 23 6 19 19 -4 18 -8 19 -29 10z"/>
<path d="M697 186 c-10 -8 -14 -16 -10 -19 5 -3 14 3 21 14 14 22 13 23 -11 5z"/>
<path d="M340 165 c0 -3 2 -5 5 -5 3 0 5 2 5 5 0 3 -2 5 -5 5 -3 0 -5 -2 -5
-5z"/>
<path d="M660 165 c0 -3 2 -5 5 -5 3 0 5 2 5 5 0 3 -2 5 -5 5 -3 0 -5 -2 -5
-5z"/>
<path d="M810 105 c0 -3 2 -5 5 -5 3 0 5 2 5 5 0 3 -2 5 -5 5 -3 0 -5 -2 -5
-5z"/>
</g>
  </g>
</svg>
