<?xml version="1.0" encoding="UTF-8" standalone="no"?>
<!-- Created with Inkscape (http://www.inkscape.org/) -->

<svg
   xmlns:dc="http://purl.org/dc/elements/1.1/"
   xmlns:cc="http://creativecommons.org/ns#"
   xmlns:rdf="http://www.w3.org/1999/02/22-rdf-syntax-ns#"
   xmlns:svg="http://www.w3.org/2000/svg"
   xmlns="http://www.w3.org/2000/svg"
   xmlns:sodipodi="http://sodipodi.sourceforge.net/DTD/sodipodi-0.dtd"
   xmlns:inkscape="http://www.inkscape.org/namespaces/inkscape"
   width="16px"
   height="16px"
   viewBox="0 0 16px 16px"
   version="1.1"
   id="svgMain"
   inkscape:version="0.92.2 (5c3e80d, 2017-08-06)"
   sodipodi:docname="reference_SVG.svg">
  <defs
     id="defs4542" />
  <sodipodi:namedview
     id="base"
     pagecolor="#ffffff"
     bordercolor="#666666"
     borderopacity="1.0"
     inkscape:pageopacity="0.0"
     inkscape:pageshadow="2"
     inkscape:zoom="1"
     inkscape:cx="0"
     inkscape:cy="0"
     inkscape:document-units="px"
     inkscape:current-layer="layer1"
     showgrid="false"
     units="px"
     inkscape:window-width="1024"
     inkscape:window-height="768"
     inkscape:window-x="-8"
     inkscape:window-y="-8"
     inkscape:window-maximized="1" />
  <metadata
     id="metadata1">
    <rdf:RDF>
      <cc:Work
         rdf:about="">
        <dc:format>image/svg+xml</dc:format>
        <dc:type
           rdf:resource="http://purl.org/dc/dcmitype/StillImage" />
        <dc:title />
      </cc:Work>
    </rdf:RDF>
  </metadata>
  <g transform="translate(-16,-16) scale(0.5,0.5)"
     inkscape:label="Layer 1"
     inkscape:groupmode="layer"
     id="layer1">
    <!-- INSERT MARKER -->
<g transform="translate(0.000000,96.000000) scale(0.100000,-0.100000)"
fill="#143496" stroke="none">
<path d="M0 480 l0 -480 480 0 480 0 0 480 0 480 -480 0 -480 0 0 -480z"/>
</g>
<g transform="translate(0.000000,96.000000) scale(0.100000,-0.100000)"
fill="#204995" stroke="none">
<path d="M0 480 l0 -480 39 0 c22 0 42 5 44 13 4 9 6 9 6 0 1 -10 37 -13 147
-13 121 0 145 2 141 14 -4 10 0 12 14 9 11 -3 22 -9 25 -14 9 -15 301 -11 307
4 4 9 6 9 6 0 1 -10 31 -13 116 -13 l115 0 0 59 c0 44 -4 60 -16 65 -11 4 -14
15 -10 36 2 19 0 30 -7 30 -8 0 -8 3 -2 8 18 13 17 35 0 28 -9 -3 -21 -6 -26
-6 -6 0 -7 -5 -3 -11 3 -6 -6 -3 -22 7 -38 23 -43 29 -22 21 26 -9 30 7 6 32
-25 28 -10 52 16 26 9 -10 25 -15 35 -12 10 2 26 0 35 -5 16 -9 17 5 15 176
-2 141 -5 189 -15 197 -15 12 -8 33 7 23 6 -3 9 50 8 140 l-2 146 -479 0 -478
0 0 -480z m315 424 c0 -26 -4 -40 -11 -37 -6 2 -11 -3 -11 -12 0 -9 5 -14 11
-12 7 3 11 -12 11 -38 1 -32 -3 -41 -13 -37 -10 3 -11 7 -2 12 9 6 9 9 0 15
-6 4 -9 13 -6 21 3 7 1 16 -5 19 -5 4 -7 11 -4 16 4 5 -3 9 -14 9 -10 0 -21
-5 -23 -12 -2 -6 -15 -13 -29 -15 -18 -2 -20 -1 -9 6 8 5 18 7 22 5 4 -3 8 0
8 5 0 6 -5 11 -11 11 -5 0 -7 6 -3 13 4 6 4 9 -1 5 -12 -11 -35 11 -28 28 3 8
11 14 19 14 8 0 14 6 15 13 0 6 5 1 10 -12 8 -19 12 -21 24 -11 8 7 15 18 15
26 0 7 8 12 18 11 13 -1 17 -10 17 -43z m245 24 c0 -6 11 -8 25 -6 14 3 33 -1
42 -8 11 -8 13 -13 6 -14 -7 0 -13 -5 -13 -11 0 -5 5 -7 11 -3 8 5 9 2 2 -10
-5 -9 -6 -39 -3 -67 4 -33 3 -48 -4 -46 -6 2 -11 17 -11 33 1 16 -4 32 -10 36
-7 5 -7 8 1 8 6 0 11 7 11 15 0 10 -6 14 -14 10 -8 -3 -19 -5 -24 -5 -6 0 -7
-5 -3 -11 3 -6 -6 -3 -22 7 -38 23 -43 29 -22 21 26 -9 30 7 7 32 -11 12 -17
26 -14 31 7 11 35 2 35 -12z m-390 7 c0 -3 -2 -5 -5 -5 -3 0 -5 2 -5 5 0 3 2
5 5 5 3 0 5 -2 5 -5z m288 -15 c14 0 15 -2 2 -9 -8 -6 -17 -8 -20 -6 -4 2 -7
-2 -7 -9 0 -7 6 -13 13 -13 7 0 10 5 7 10 -3 6 -1 7 4 4 6 -4 10 -27 8 -52 -1
-25 0 -43 3 -40 3 2 14 -12 25 -33 11 -20 24 -40 30 -44 7 -4 7 -11 -1 -21 -7
-8 -10 -22 -6 -31 4 -11 1 -16 -14 -16 -11 0 -22 6 -25 13 -5 14 -45 16 -66 3
-10 -7 -12 -1 -6 24 5 21 4 30 -3 26 -13 -8 -42 3 -42 16 0 5 -7 17 -16 26
-15 14 -15 17 2 29 9 7 28 11 41 9 14 -3 22 0 20 7 -1 7 7 12 18 11 14 0 20 7
21 23 1 13 -2 20 -7 17 -11 -6 -15 18 -9 64 1 10 3 12 7 5 2 -7 12 -13 21 -13z
m212 15 c0 -3 -2 -5 -5 -5 -3 0 -5 2 -5 5 0 3 2 5 5 5 3 0 5 -2 5 -5z m250 -7
c0 -4 6 -8 13 -8 8 0 12 -19 13 -58 1 -43 -3 -59 -13 -59 -9 0 -10 4 -3 11 5
5 10 17 10 25 0 8 -3 11 -6 8 -4 -3 -16 -1 -28 5 -11 7 -28 14 -36 15 -8 2
-20 5 -27 6 -7 2 -16 7 -20 12 -4 4 -2 5 5 1 6 -4 12 -3 12 2 0 5 11 15 25 22
13 7 22 17 19 21 -2 4 5 7 16 6 11 -1 20 -5 20 -9z m-80 -13 c0 -3 -2 -5 -5
-5 -3 0 -5 2 -5 5 0 3 2 5 5 5 3 0 5 -2 5 -5z m-660 -35 c0 -5 -5 -10 -11 -10
-5 0 -7 5 -4 10 3 6 8 10 11 10 2 0 4 -4 4 -10z m526 -27 c15 -24 15 -26 0
-20 -14 5 -15 3 -6 -13 15 -28 12 -36 -6 -14 -8 10 -13 13 -9 7 3 -8 0 -13 -8
-13 -9 0 -14 11 -15 30 0 16 2 29 6 29 21 -3 24 3 6 16 -15 12 -15 14 -2 9 9
-3 24 -17 34 -31z m104 32 c0 -3 -2 -5 -5 -5 -3 0 -5 2 -5 5 0 3 2 5 5 5 3 0
5 -2 5 -5z m-749 -16 c11 -5 17 -14 14 -20 -10 -15 42 -10 55 6 11 13 10 14
-4 9 -9 -3 -16 -1 -16 5 0 17 37 13 44 -5 3 -8 11 -12 17 -8 8 4 9 3 5 -5 -4
-6 -12 -8 -18 -5 -6 4 -14 0 -19 -7 -14 -23 -10 -32 8 -18 12 10 15 10 9 1 -4
-7 0 -19 8 -28 9 -9 13 -20 10 -26 -4 -5 4 -4 17 2 23 13 24 12 7 -7 -23 -25
-22 -29 2 -36 14 -4 20 -13 19 -34 -1 -28 -1 -28 -8 -3 -6 22 -8 23 -14 7 -4
-11 -4 -24 0 -30 3 -7 3 -9 -2 -5 -4 4 -14 3 -22 -3 -10 -9 -13 -7 -13 11 0
19 -2 20 -15 10 -9 -7 -15 -8 -15 -2 0 11 -18 11 -37 -1 -12 -7 -16 3 -12 30
1 7 -32 27 -46 28 -14 0 -19 74 -6 89 7 9 7 16 -1 24 -9 9 -7 12 8 13 18 0 18
1 -1 9 -11 5 -14 9 -7 9 7 1 22 -4 33 -10z m334 -9 c-3 -5 1 -10 7 -13 11 -3
11 -7 0 -19 -13 -16 -62 -13 -62 4 0 6 9 8 20 5 14 -3 18 -1 13 6 -14 23 -11
35 8 30 10 -3 17 -9 14 -13z m346 1 c18 17 49 23 49 10 0 -6 7 -8 15 -5 8 4
15 2 15 -4 0 -12 -28 -24 -40 -17 -4 3 -6 -4 -3 -16 4 -16 8 -17 14 -7 6 10 9
8 9 -7 0 -21 45 -48 64 -39 6 3 1 -3 -11 -14 -27 -24 -30 -37 -7 -28 15 6 15
4 3 -11 -8 -9 -9 -14 -2 -10 6 4 14 3 17 -1 3 -5 -6 -15 -19 -22 -14 -7 -25
-17 -25 -22 0 -4 -4 -8 -10 -8 -5 0 -10 6 -10 14 0 9 -10 13 -32 11 -26 -2
-33 -7 -32 -24 1 -25 -31 -29 -40 -5 -5 14 -4 15 9 4 13 -11 15 -9 16 11 2 39
-2 53 -18 69 -14 13 -15 13 -8 0 6 -12 5 -12 -5 -3 -16 15 -5 47 14 40 9 -4
13 2 12 16 -1 12 2 27 6 34 5 6 5 14 -2 18 -5 3 -10 14 -9 23 0 15 1 14 8 -2
6 -16 9 -16 22 -5z m-536 -1 c3 -5 4 -10 1 -10 -3 0 -8 5 -11 10 -3 6 -4 10
-1 10 3 0 8 -4 11 -10z m285 -10 c-6 -11 -13 -20 -15 -20 -2 0 -3 9 -2 20 1
11 7 20 14 20 11 0 11 -5 3 -20z m44 -5 c3 -8 1 -15 -4 -15 -6 0 -10 7 -10 15
0 8 2 15 4 15 2 0 6 -7 10 -15z m321 5 c3 -5 4 -10 1 -10 -3 0 -8 5 -11 10 -3
6 -4 10 -1 10 3 0 8 -4 11 -10z m5 -32 c0 -6 -6 -5 -15 2 -8 7 -15 14 -15 16
0 2 7 1 15 -2 8 -4 15 -11 15 -16z m-350 7 c0 -3 -2 -5 -5 -5 -3 0 -5 2 -5 5
0 3 2 5 5 5 3 0 5 -2 5 -5z m-283 -12 c-4 -3 -2 -12 4 -19 8 -9 5 -11 -10 -7
-20 5 -19 33 2 33 6 0 7 -3 4 -7z m340 -8 c0 -7 -7 -11 -15 -7 -11 4 -13 1 -7
-9 5 -8 4 -11 0 -6 -16 14 -13 33 5 34 9 1 17 -4 17 -12z m253 10 c0 -3 -2 -5
-5 -5 -3 0 -5 2 -5 5 0 3 2 5 5 5 3 0 5 -2 5 -5z m76 -7 c4 -7 3 -8 -4 -4 -7
4 -12 2 -12 -3 0 -6 -5 -11 -11 -11 -8 0 -8 5 1 15 15 18 17 18 26 3z m-706
-3 c0 -3 -2 -5 -5 -5 -3 0 -5 2 -5 5 0 3 2 5 5 5 3 0 5 -2 5 -5z m60 0 c0 -3
-2 -5 -5 -5 -3 0 -5 2 -5 5 0 3 2 5 5 5 3 0 5 -2 5 -5z m250 0 c0 -3 -2 -5 -5
-5 -3 0 -5 2 -5 5 0 3 2 5 5 5 3 0 5 -2 5 -5z m90 0 c0 -3 -2 -5 -5 -5 -3 0
-5 2 -5 5 0 3 2 5 5 5 3 0 5 -2 5 -5z m260 -10 c0 -3 -2 -5 -5 -5 -3 0 -5 2
-5 5 0 3 2 5 5 5 3 0 5 -2 5 -5z m-660 -10 c0 -3 -2 -5 -5 -5 -3 0 -5 2 -5 5
0 3 2 5 5 5 3 0 5 -2 5 -5z m320 0 c0 -3 -2 -5 -5 -5 -3 0 -5 2 -5 5 0 3 2 5
5 5 3 0 5 -2 5 -5z m425 -5 c3 -5 4 -10 1 -10 -3 0 -8 5 -11 10 -3 6 -4 10 -1
10 3 0 8 -4 11 -10z m-408 -25 c0 -8 -4 -12 -9 -9 -4 3 -8 9 -8 15 0 5 4 9 8
9 5 0 9 -7 9 -15z m63 10 c0 -3 -2 -5 -5 -5 -3 0 -5 2 -5 5 0 3 2 5 5 5 3 0 5
-2 5 -5z m320 0 c0 -3 -2 -5 -5 -5 -3 0 -5 2 -5 5 0 3 2 5 5 5 3 0 5 -2 5 -5z
m-703 -22 c-4 -3 -10 -3 -14 0 -3 4 0 7 7 7 7 0 10 -3 7 -7z m143 2 c0 -3 -2
-5 -5 -5 -3 0 -5 2 -5 5 0 3 2 5 5 5 3 0 5 -2 5 -5z m330 -20 c0 -3 -2 -5 -5
-5 -3 0 -5 2 -5 5 0 3 2 5 5 5 3 0 5 -2 5 -5z m220 0 c0 -3 -2 -5 -5 -5 -3 0
-5 2 -5 5 0 3 2 5 5 5 3 0 5 -2 5 -5z m-360 -40 c0 -3 -2 -5 -5 -5 -3 0 -5 2
-5 5 0 3 2 5 5 5 3 0 5 -2 5 -5z m327 -12 c-4 -3 -7 0 -7 7 0 7 3 10 7 7 3 -4
3 -10 0 -14z m-557 2 c0 -3 -2 -5 -5 -5 -3 0 -5 2 -5 5 0 3 2 5 5 5 3 0 5 -2
5 -5z m-190 -10 c0 -3 -2 -5 -5 -5 -3 0 -5 2 -5 5 0 3 2 5 5 5 3 0 5 -2 5 -5z
m640 0 c0 -3 -2 -5 -5 -5 -3 0 -5 2 -5 5 0 3 2 5 5 5 3 0 5 -2 5 -5z m90 0 c0
-3 -2 -5 -5 -5 -3 0 -5 2 -5 5 0 3 2 5 5 5 3 0 5 -2 5 -5z m-755 -15 c3 -5 1
-10 -4 -10 -6 0 -11 5 -11 10 0 6 2 10 4 10 3 0 8 -4 11 -10z m312 -7 c-4 -3
-7 0 -7 7 0 7 3 10 7 7 3 -4 3 -10 0 -14z m-90 -20 c-4 -3 -7 0 -7 7 0 7 3 10
7 7 3 -4 3 -10 0 -14z m-63 -27 c17 22 42 26 57 8 9 -11 9 -14 -1 -14 -9 0 -9
-4 1 -17 10 -11 10 -14 2 -9 -16 9 -17 -6 -2 -21 7 -7 -2 -9 -33 -6 -24 3 -45
8 -48 12 -5 6 -20 7 -37 1 -5 -1 -11 -2 -15 -1 -5 0 -8 -6 -8 -15 0 -9 -5 -13
-12 -10 -7 3 -21 9 -30 12 -20 7 -23 20 -8 29 6 4 8 10 5 15 -3 5 -1 12 5 15
6 4 10 3 9 -2 -1 -4 2 -18 6 -31 6 -18 10 -20 21 -11 8 6 14 8 14 4 0 -4 7 -2
14 5 11 8 12 18 6 35 -7 19 -6 23 4 19 8 -3 18 1 22 8 6 9 10 5 12 -15 3 -26
5 -27 16 -11z m306 13 c0 -5 15 -9 34 -9 33 0 57 -14 37 -22 -13 -4 -18 -53
-6 -51 6 1 11 -7 12 -17 1 -13 -3 -17 -13 -13 -7 3 -12 9 -9 13 3 5 1 11 -5
15 -6 4 -7 12 -3 18 5 9 3 9 -8 1 -16 -13 -39 -11 -66 6 -16 10 -16 11 5 7 27
-6 28 3 1 31 -11 12 -17 27 -14 32 7 11 35 2 35 -11z m110 6 c0 -3 -2 -5 -5
-5 -3 0 -5 2 -5 5 0 3 2 5 5 5 3 0 5 -2 5 -5z m250 -7 c0 -4 6 -8 13 -8 8 0
12 -19 13 -58 1 -43 -3 -59 -13 -59 -9 0 -10 4 -3 11 5 5 10 17 10 25 0 8 -3
11 -6 8 -4 -3 -16 -1 -28 5 -11 7 -28 14 -36 15 -8 2 -20 5 -27 6 -7 2 -16 7
-20 12 -4 4 -2 5 5 1 6 -4 12 -3 12 2 0 5 11 15 25 22 13 7 22 17 19 21 -2 4
5 7 16 6 11 -1 20 -5 20 -9z m-475 -8 c4 -6 11 -7 17 -4 7 4 8 2 4 -4 -4 -7
-14 -12 -21 -12 -9 0 -12 -6 -8 -17 4 -11 8 -12 11 -5 2 7 8 12 13 12 6 0 8
-18 3 -46 -4 -32 -3 -45 4 -40 5 3 8 15 5 25 -3 13 3 23 19 32 22 11 22 11 7
-7 -22 -26 -25 -86 -4 -78 12 5 14 2 8 -12 -6 -17 -5 -18 12 -4 17 14 18 14 5
-9 -11 -21 -10 -23 5 -17 16 6 16 5 1 -18 -9 -14 -13 -32 -10 -40 4 -11 0 -16
-14 -16 -11 0 -22 6 -25 13 -5 14 -45 16 -66 3 -10 -7 -12 -1 -6 24 5 21 4 30
-3 26 -13 -8 -42 3 -42 16 0 5 -7 17 -16 26 -15 14 -15 17 0 27 8 7 17 26 18
43 2 26 7 32 25 32 12 0 25 -5 29 -12 4 -7 3 -8 -4 -4 -8 5 -10 2 -6 -9 4 -9
3 -15 -2 -14 -20 3 -31 -2 -31 -14 0 -8 6 -14 13 -14 7 0 10 7 6 16 -5 14 -4
14 12 2 15 -12 17 -12 14 0 -2 8 3 13 10 11 8 -1 11 2 7 8 -3 5 0 10 7 10 10
0 10 2 -1 9 -8 5 -15 23 -16 40 -2 31 8 41 20 21z m395 -5 c0 -3 -2 -5 -5 -5
-3 0 -5 2 -5 5 0 3 2 5 5 5 3 0 5 -2 5 -5z m-200 -30 c0 -3 -2 -5 -5 -5 -3 0
-5 2 -5 5 0 3 2 5 5 5 3 0 5 -2 5 -5z m66 -32 c15 -24 15 -26 0 -20 -14 5 -15
3 -6 -13 15 -28 12 -36 -6 -14 -8 10 -13 13 -9 7 3 -8 0 -13 -8 -13 -9 0 -14
11 -15 30 0 16 2 29 6 29 21 -3 24 3 6 16 -15 12 -15 14 -2 9 9 -3 24 -17 34
-31z m104 32 c0 -3 -2 -5 -5 -5 -3 0 -5 2 -5 5 0 3 2 5 5 5 3 0 5 -2 5 -5z
m-320 -10 c0 -3 -2 -5 -5 -5 -3 0 -5 2 -5 5 0 3 2 5 5 5 3 0 5 -2 5 -5z m251
-14 c18 17 49 23 49 10 0 -6 7 -8 15 -5 8 4 15 2 15 -4 0 -12 -28 -24 -40 -17
-4 3 -6 -4 -3 -16 4 -16 8 -17 14 -7 7 10 9 9 10 -4 1 -10 2 -23 3 -30 0 -6 7
-13 14 -16 7 -2 11 2 10 8 -2 7 4 15 12 17 12 4 12 3 1 -5 -16 -12 2 -27 22
-17 6 4 4 0 -5 -8 -10 -8 -14 -18 -10 -22 4 -5 1 -5 -6 -1 -7 4 -9 13 -6 19 4
7 3 8 -1 4 -11 -9 -16 -39 -6 -33 15 9 33 -13 36 -42 2 -29 1 -30 -18 -20 -16
8 -22 8 -25 -1 -5 -16 -22 -14 -22 3 0 15 -46 16 -70 1 -10 -6 -12 -2 -8 18 4
19 -1 32 -15 44 -15 13 -18 14 -12 3 6 -12 5 -12 -5 -3 -16 15 -5 47 14 40 9
-4 13 2 12 16 -1 12 2 27 6 34 5 6 5 14 -2 18 -5 3 -10 14 -9 23 0 15 1 14 8
-2 6 -16 9 -16 22 -5z m-641 4 c0 -3 -2 -5 -5 -5 -3 0 -5 2 -5 5 0 3 2 5 5 5
3 0 5 -2 5 -5z m540 0 c0 -3 -2 -5 -5 -5 -3 0 -5 2 -5 5 0 3 2 5 5 5 3 0 5 -2
5 -5z m-590 -10 c0 -3 -2 -5 -5 -5 -3 0 -5 2 -5 5 0 3 2 5 5 5 3 0 5 -2 5 -5z
m193 -22 c8 -18 6 -27 -9 -44 -11 -12 -26 -18 -37 -15 -18 4 -18 4 0 -16 10
-12 12 -18 6 -14 -7 4 -13 3 -13 -2 0 -5 9 -12 21 -15 12 -3 18 -10 15 -15 -3
-6 0 -13 6 -16 7 -3 1 -3 -14 0 -16 4 -28 2 -28 -4 0 -12 -55 -21 -72 -11 -6
4 -20 3 -30 -2 -19 -10 -27 5 -8 16 6 3 10 11 10 16 0 6 -5 7 -12 3 -7 -4 -8
-3 -4 5 9 14 -17 41 -38 41 -12 0 -16 10 -16 39 l0 38 55 -3 c34 -2 53 1 50 6
-4 6 -2 10 3 10 14 0 22 -38 8 -44 -6 -2 -1 -5 12 -5 20 -1 21 -3 11 -23 -11
-22 -11 -22 6 -8 10 8 26 14 37 12 19 -3 39 33 31 56 -4 9 -9 8 -19 -5 -12
-17 -13 -17 -11 3 1 28 26 26 40 -3z m612 17 c3 -5 4 -10 1 -10 -3 0 -8 5 -11
10 -3 6 -4 10 -1 10 3 0 8 -4 11 -10z m-316 -12 c-3 -27 1 -37 14 -32 8 3 14
-1 14 -9 0 -14 -35 -12 -38 2 -6 29 -5 51 3 51 5 0 8 -6 7 -12z m-226 -5 c-9
-3 -10 -10 -3 -23 11 -20 -2 -36 -19 -26 -18 11 1 57 22 55 9 0 9 -2 0 -6z
m262 -11 c-3 -3 -11 0 -18 7 -9 10 -8 11 6 5 10 -3 15 -9 12 -12z m285 -4 c0
-6 -6 -5 -15 2 -8 7 -15 14 -15 16 0 2 7 1 15 -2 8 -4 15 -11 15 -16z m-40 -3
c0 -3 -2 -5 -5 -5 -3 0 -5 2 -5 5 0 3 2 5 5 5 3 0 5 -2 5 -5z m76 -7 c4 -7 3
-8 -4 -4 -7 4 -12 2 -12 -3 0 -6 -5 -11 -11 -11 -8 0 -8 5 1 15 15 18 17 18
26 3z m-676 -4 c0 -8 -19 -13 -24 -6 -3 5 1 9 9 9 8 0 15 -2 15 -3z m412 -23
c5 -16 4 -21 -4 -19 -6 2 -15 14 -20 27 -5 16 -4 21 4 19 6 -2 15 -14 20 -27z
m-132 14 c0 -3 -2 -5 -5 -5 -3 0 -5 2 -5 5 0 3 2 5 5 5 3 0 5 -2 5 -5z m-230
-20 c0 -3 -2 -5 -5 -5 -3 0 -5 2 -5 5 0 3 2 5 5 5 3 0 5 -2 5 -5z m640 0 c0
-3 -2 -5 -5 -5 -3 0 -5 2 -5 5 0 3 2 5 5 5 3 0 5 -2 5 -5z m30 0 c0 -3 -2 -5
-5 -5 -3 0 -5 2 -5 5 0 3 2 5 5 5 3 0 5 -2 5 -5z m-350 -10 c0 -3 -2 -5 -5 -5
-3 0 -5 2 -5 5 0 3 2 5 5 5 3 0 5 -2 5 -5z m-240 -20 c0 -3 -2 -5 -5 -5 -3 0
-5 2 -5 5 0 3 2 5 5 5 3 0 5 -2 5 -5z m330 -20 c0 -3 -2 -5 -5 -5 -3 0 -5 2
-5 5 0 3 2 5 5 5 3 0 5 -2 5 -5z m-620 -40 c0 -3 -2 -5 -5 -5 -3 0 -5 2 -5 5
0 3 2 5 5 5 3 0 5 -2 5 -5z m150 0 c0 -3 -2 -5 -5 -5 -3 0 -5 2 -5 5 0 3 2 5
5 5 3 0 5 -2 5 -5z m330 0 c0 -3 -2 -5 -5 -5 -3 0 -5 2 -5 5 0 3 2 5 5 5 3 0
5 -2 5 -5z m410 -15 c0 -5 -5 -10 -11 -10 -5 0 -7 5 -4 10 3 6 8 10 11 10 2 0
4 -4 4 -10z m-643 -7 c-4 -3 -10 -3 -14 0 -3 4 0 7 7 7 7 0 10 -3 7 -7z m429
-14 c3 -5 -4 -9 -14 -9 -11 0 -22 6 -25 14 -4 10 0 12 14 9 11 -3 22 -9 25
-14z m24 16 c0 -3 -2 -5 -5 -5 -3 0 -5 2 -5 5 0 3 2 5 5 5 3 0 5 -2 5 -5z
m-665 -14 c3 -6 -3 -9 -14 -8 -11 0 -17 5 -15 9 7 11 22 10 29 -1z m312 -8
c-4 -3 -7 0 -7 7 0 7 3 10 7 7 3 -4 3 -10 0 -14z m-167 -35 c0 -6 11 -8 25 -6
14 3 33 -1 42 -8 11 -8 13 -13 6 -14 -7 0 -13 -5 -13 -11 0 -5 5 -7 11 -3 8 5
9 2 2 -10 -5 -9 -6 -39 -3 -67 4 -33 3 -48 -4 -46 -6 2 -11 17 -11 33 1 16 -4
32 -10 36 -7 5 -7 8 1 8 6 0 11 7 11 15 0 10 -6 14 -14 10 -8 -3 -19 -5 -24
-5 -6 0 -7 -5 -3 -11 3 -6 -6 -3 -22 7 -38 23 -43 29 -22 21 26 -9 30 7 7 32
-11 12 -17 26 -14 31 7 11 35 2 35 -12z m400 17 c0 -3 -2 -5 -5 -5 -3 0 -5 2
-5 5 0 3 2 5 5 5 3 0 5 -2 5 -5z m-502 -29 c10 4 13 2 7 -3 -5 -4 -12 -17 -13
-28 -5 -26 -8 -29 -22 -20 -8 5 -5 11 7 21 17 13 17 14 -1 7 -16 -5 -18 -3
-13 11 4 10 8 23 8 29 1 7 3 4 6 -5 3 -11 11 -15 21 -12z m212 19 c0 -3 -2 -5
-5 -5 -3 0 -5 2 -5 5 0 3 2 5 5 5 3 0 5 -2 5 -5z m250 -7 c0 -4 6 -8 14 -8 8
0 18 -5 22 -12 4 -7 3 -8 -4 -4 -10 6 -10 -41 0 -83 2 -7 -5 -15 -16 -16 -14
-3 -16 -1 -7 8 6 6 11 18 11 26 0 8 -3 11 -6 8 -4 -3 -16 -1 -28 5 -11 7 -28
14 -36 15 -8 2 -20 5 -27 6 -7 2 -16 7 -20 12 -4 4 -2 5 5 1 6 -4 12 -3 12 2
0 5 11 15 25 22 13 7 22 17 19 21 -2 4 5 7 16 6 11 -1 20 -5 20 -9z m178 -8
c14 0 15 -2 2 -9 -18 -12 -30 -5 -29 17 0 11 3 12 6 5 2 -7 12 -13 21 -13z
m-258 -5 c0 -3 -2 -5 -5 -5 -3 0 -5 2 -5 5 0 3 2 5 5 5 3 0 5 -2 5 -5z m220
-10 c0 -3 -2 -5 -5 -5 -3 0 -5 2 -5 5 0 3 2 5 5 5 3 0 5 -2 5 -5z m-585 -25
c-5 -15 -3 -18 9 -14 12 5 15 2 10 -10 -4 -10 -12 -15 -20 -12 -25 9 -20 -19
10 -64 17 -25 35 -48 40 -52 6 -4 5 -12 -2 -21 -7 -8 -10 -22 -6 -31 4 -11 1
-16 -14 -16 -11 0 -22 6 -25 13 -5 14 -45 16 -66 3 -10 -7 -12 -1 -6 24 5 21
4 30 -3 26 -13 -8 -42 3 -42 16 0 5 -7 16 -16 25 -19 20 -7 33 37 40 42 6 45
9 29 28 -7 9 -21 13 -31 10 -13 -5 -19 -1 -19 10 0 9 5 13 10 10 6 -3 10 -2
10 4 0 5 12 -1 27 -15 l27 -25 21 35 c23 40 29 46 20 16z m628 -38 c-3 -26 -2
-44 2 -40 4 4 17 -9 28 -30 11 -20 24 -40 30 -44 7 -4 7 -11 -1 -21 -7 -8 -10
-22 -6 -31 4 -11 1 -16 -14 -16 -11 0 -22 6 -25 13 -5 14 -45 16 -66 3 -10 -7
-12 -1 -6 24 5 21 4 30 -3 26 -13 -8 -42 3 -42 16 0 5 -7 17 -16 26 -15 14
-15 17 1 28 9 7 27 11 40 9 14 -1 22 2 19 6 -3 5 3 12 13 16 19 7 33 22 33 36
0 5 -4 6 -9 3 -5 -3 -12 1 -15 10 -4 12 -2 15 9 10 8 -3 15 -1 15 5 0 6 4 8 9
4 6 -3 7 -27 4 -53z m-397 11 c15 -24 15 -26 0 -20 -14 5 -15 3 -6 -13 15 -28
12 -36 -6 -14 -8 10 -13 13 -9 7 3 -8 0 -13 -8 -13 -9 0 -14 11 -15 30 0 16 2
29 6 29 21 -3 24 3 6 16 -15 12 -15 14 -2 9 9 -3 24 -17 34 -31z m104 32 c0
-3 -2 -5 -5 -5 -3 0 -5 2 -5 5 0 3 2 5 5 5 3 0 5 -2 5 -5z m-400 -10 c0 -3 -2
-5 -5 -5 -3 0 -5 2 -5 5 0 3 2 5 5 5 3 0 5 -2 5 -5z m331 -14 c18 17 49 23 49
10 0 -6 7 -8 15 -5 8 4 15 2 15 -4 0 -12 -28 -24 -40 -17 -4 3 -6 -4 -3 -16 4
-16 8 -17 14 -7 7 10 9 9 10 -4 1 -10 2 -23 3 -30 0 -6 7 -13 14 -16 7 -2 11
2 10 8 -2 7 4 15 12 17 12 4 12 3 1 -5 -16 -12 2 -27 22 -17 6 4 4 0 -5 -8
-10 -8 -14 -18 -10 -22 4 -5 1 -5 -6 -1 -7 4 -9 13 -6 19 4 7 3 8 -1 4 -11 -9
-16 -39 -6 -33 15 9 33 -13 36 -42 2 -29 1 -30 -18 -20 -16 8 -22 8 -25 -1 -5
-16 -22 -14 -22 3 0 15 -46 16 -70 1 -10 -6 -12 -2 -8 18 4 19 -1 32 -15 44
-15 13 -18 14 -12 3 6 -12 5 -12 -5 -3 -16 15 -5 47 14 40 9 -4 13 2 12 16 -1
12 2 27 6 34 5 6 5 14 -2 18 -5 3 -10 14 -9 23 0 15 1 14 8 -2 6 -16 9 -16 22
-5z m305 -26 c-2 -5 -9 -9 -15 -7 -6 1 -11 -2 -11 -7 0 -5 -9 -7 -20 -4 -11 3
-20 10 -20 15 0 5 5 6 10 3 6 -3 10 4 10 16 0 22 0 22 23 3 12 -10 16 -12 10
-4 -7 8 -13 19 -13 25 0 5 7 1 15 -10 9 -10 14 -24 11 -30z m83 13 c-17 -34
-19 -34 -17 -5 1 15 8 27 16 27 10 0 10 -5 1 -22z m-595 -3 c3 -8 1 -15 -4
-15 -6 0 -10 7 -10 15 0 8 2 15 4 15 2 0 6 -7 10 -15z m321 5 c3 -5 4 -10 1
-10 -3 0 -8 5 -11 10 -3 6 -4 10 -1 10 3 0 8 -4 11 -10z m319 -5 c3 -8 1 -15
-4 -15 -6 0 -10 7 -10 15 0 8 2 15 4 15 2 0 6 -7 10 -15z m-770 -14 c3 -5 -3
-11 -15 -14 -16 -4 -18 -3 -8 9 13 16 16 17 23 5z m456 -13 c0 -6 -6 -5 -15 2
-8 7 -15 14 -15 16 0 2 7 1 15 -2 8 -4 15 -11 15 -16z m-385 2 c3 -5 4 -10 1
-10 -3 0 -8 5 -11 10 -3 6 -4 10 -1 10 3 0 8 -4 11 -10z m35 5 c0 -3 -2 -5 -5
-5 -3 0 -5 2 -5 5 0 3 2 5 5 5 3 0 5 -2 5 -5z m640 0 c0 -3 -2 -5 -5 -5 -3 0
-5 2 -5 5 0 3 2 5 5 5 3 0 5 -2 5 -5z m-583 -20 c0 -7 -7 -11 -15 -7 -11 4
-13 1 -7 -9 5 -8 4 -11 0 -6 -16 14 -13 33 5 34 9 1 17 -4 17 -12z m253 10 c0
-3 -2 -5 -5 -5 -3 0 -5 2 -5 5 0 3 2 5 5 5 3 0 5 -2 5 -5z m76 -7 c4 -7 3 -8
-4 -4 -7 4 -12 2 -12 -3 0 -6 -5 -11 -11 -11 -8 0 -8 5 1 15 15 18 17 18 26 3z
m311 -3 c0 -7 -7 -11 -15 -7 -11 4 -13 1 -7 -9 5 -8 4 -11 0 -6 -16 14 -13 33
5 34 9 1 17 -4 17 -12z m-707 0 c0 -3 -2 -5 -5 -5 -3 0 -5 2 -5 5 0 3 2 5 5 5
3 0 5 -2 5 -5z m90 0 c0 -3 -2 -5 -5 -5 -3 0 -5 2 -5 5 0 3 2 5 5 5 3 0 5 -2
5 -5z m550 0 c0 -3 -2 -5 -5 -5 -3 0 -5 2 -5 5 0 3 2 5 5 5 3 0 5 -2 5 -5z
m90 0 c0 -3 -2 -5 -5 -5 -3 0 -5 2 -5 5 0 3 2 5 5 5 3 0 5 -2 5 -5z m-720 -20
c0 -3 -2 -5 -5 -5 -3 0 -5 2 -5 5 0 3 2 5 5 5 3 0 5 -2 5 -5z m640 0 c0 -3 -2
-5 -5 -5 -3 0 -5 2 -5 5 0 3 2 5 5 5 3 0 5 -2 5 -5z m-240 -10 c0 -3 -2 -5 -5
-5 -3 0 -5 2 -5 5 0 3 2 5 5 5 3 0 5 -2 5 -5z m30 0 c0 -3 -2 -5 -5 -5 -3 0
-5 2 -5 5 0 3 2 5 5 5 3 0 5 -2 5 -5z m-413 -20 c0 -8 -4 -12 -9 -9 -4 3 -8 9
-8 15 0 5 4 9 8 9 5 0 9 -7 9 -15z m63 10 c0 -3 -2 -5 -5 -5 -3 0 -5 2 -5 5 0
3 2 5 5 5 3 0 5 -2 5 -5z m577 -10 c0 -8 -4 -12 -9 -9 -4 3 -8 9 -8 15 0 5 4
9 8 9 5 0 9 -7 9 -15z m63 10 c0 -3 -2 -5 -5 -5 -3 0 -5 2 -5 5 0 3 2 5 5 5 3
0 5 -2 5 -5z m-880 -20 c0 -3 -2 -5 -5 -5 -3 0 -5 2 -5 5 0 3 2 5 5 5 3 0 5
-2 5 -5z m640 0 c0 -3 -2 -5 -5 -5 -3 0 -5 2 -5 5 0 3 2 5 5 5 3 0 5 -2 5 -5z
m-310 -20 c0 -3 -2 -5 -5 -5 -3 0 -5 2 -5 5 0 3 2 5 5 5 3 0 5 -2 5 -5z m-140
-40 c0 -3 -2 -5 -5 -5 -3 0 -5 2 -5 5 0 3 2 5 5 5 3 0 5 -2 5 -5z m640 0 c0
-3 -2 -5 -5 -5 -3 0 -5 2 -5 5 0 3 2 5 5 5 3 0 5 -2 5 -5z m-230 -15 c0 -5 -5
-10 -11 -10 -5 0 -7 5 -4 10 3 6 8 10 11 10 2 0 4 -4 4 -10z m-190 -5 c0 -3
-2 -5 -5 -5 -3 0 -5 2 -5 5 0 3 2 5 5 5 3 0 5 -2 5 -5z"/>
<path d="M300 915 c0 -3 2 -5 5 -5 3 0 5 2 5 5 0 3 -2 5 -5 5 -3 0 -5 -2 -5
-5z"/>
<path d="M280 892 c0 -5 7 -9 15 -9 8 0 12 4 9 9 -3 4 -9 8 -15 8 -5 0 -9 -4
-9 -8z"/>
<path d="M300 805 c0 -3 2 -5 5 -5 3 0 5 2 5 5 0 3 -2 5 -5 5 -3 0 -5 -2 -5
-5z"/>
<path d="M588 903 c7 -3 16 -2 19 1 4 3 -2 6 -13 5 -11 0 -14 -3 -6 -6z"/>
<path d="M590 885 c0 -3 2 -5 5 -5 3 0 5 2 5 5 0 3 -2 5 -5 5 -3 0 -5 -2 -5
-5z"/>
<path d="M400 785 c0 -3 2 -5 5 -5 3 0 5 2 5 5 0 3 -2 5 -5 5 -3 0 -5 -2 -5
-5z"/>
<path d="M423 753 c4 -3 10 -3 14 0 3 4 0 7 -7 7 -7 0 -10 -3 -7 -7z"/>
<path d="M480 755 c0 -3 2 -5 5 -5 3 0 5 2 5 5 0 3 -2 5 -5 5 -3 0 -5 -2 -5
-5z"/>
<path d="M375 740 c3 -5 8 -10 11 -10 2 0 4 5 4 10 0 6 -5 10 -11 10 -5 0 -7
-4 -4 -10z"/>
<path d="M430 715 c0 -3 2 -5 5 -5 3 0 5 2 5 5 0 3 -2 5 -5 5 -3 0 -5 -2 -5
-5z"/>
<path d="M910 905 c0 -3 2 -5 5 -5 3 0 5 2 5 5 0 3 -2 5 -5 5 -3 0 -5 -2 -5
-5z"/>
<path d="M924 858 c-4 -7 -3 -8 4 -4 12 7 16 16 8 16 -3 0 -8 -5 -12 -12z"/>
<path d="M59 855 c-1 -3 -2 -8 -3 -12 -1 -5 -5 -15 -11 -23 -8 -13 -7 -13 9
-1 15 13 17 12 12 -13 -3 -15 -1 -24 5 -21 5 4 9 13 9 21 0 8 5 12 10 9 6 -3
10 -2 10 3 0 5 -9 12 -21 15 -12 3 -18 10 -14 16 3 6 4 11 1 11 -3 0 -7 -2 -7
-5z"/>
<path d="M30 795 c0 -3 2 -5 5 -5 3 0 5 2 5 5 0 3 -2 5 -5 5 -3 0 -5 -2 -5 -5z"/>
<path d="M90 790 c0 -7 3 -10 7 -7 3 4 3 10 0 14 -4 3 -7 0 -7 -7z"/>
<path d="M50 755 c0 -3 2 -5 5 -5 3 0 5 2 5 5 0 3 -2 5 -5 5 -3 0 -5 -2 -5 -5z"/>
<path d="M86 741 c-3 -4 1 -17 10 -27 14 -18 14 -17 3 5 -10 21 -9 23 5 18 9
-4 16 -2 16 3 0 12 -27 13 -34 1z"/>
<path d="M390 835 c0 -3 2 -5 5 -5 3 0 5 2 5 5 0 3 -2 5 -5 5 -3 0 -5 -2 -5
-5z"/>
<path d="M745 852 c-14 -10 -17 -32 -5 -32 11 0 26 28 18 35 -2 2 -8 1 -13 -3z"/>
<path d="M730 785 c0 -3 2 -5 5 -5 3 0 5 2 5 5 0 3 -2 5 -5 5 -3 0 -5 -2 -5
-5z"/>
<path d="M750 768 c0 -4 -1 -11 -2 -15 -2 -3 5 -7 15 -9 11 -1 16 0 13 3 -3 4
-2 11 4 17 6 8 3 12 -11 12 -10 0 -19 -4 -19 -8z"/>
<path d="M810 776 c0 -2 7 -7 16 -10 8 -3 12 -2 9 4 -6 10 -25 14 -25 6z"/>
<path d="M800 755 c0 -3 2 -5 5 -5 3 0 5 2 5 5 0 3 -2 5 -5 5 -3 0 -5 -2 -5
-5z"/>
<path d="M733 713 c4 -3 10 -3 14 0 3 4 0 7 -7 7 -7 0 -10 -3 -7 -7z"/>
<path d="M264 598 c-4 -7 -3 -8 4 -4 12 7 16 16 8 16 -3 0 -8 -5 -12 -12z"/>
<path d="M265 570 c3 -5 8 -10 11 -10 3 0 2 5 -1 10 -3 6 -8 10 -11 10 -3 0
-2 -4 1 -10z"/>
<path d="M130 555 c0 -3 2 -5 5 -5 3 0 5 2 5 5 0 3 -2 5 -5 5 -3 0 -5 -2 -5
-5z"/>
<path d="M590 585 c0 -3 2 -5 5 -5 3 0 5 2 5 5 0 3 -2 5 -5 5 -3 0 -5 -2 -5
-5z"/>
<path d="M590 565 c0 -3 2 -5 5 -5 3 0 5 2 5 5 0 3 -2 5 -5 5 -3 0 -5 -2 -5
-5z"/>
<path d="M910 585 c0 -3 2 -5 5 -5 3 0 5 2 5 5 0 3 -2 5 -5 5 -3 0 -5 -2 -5
-5z"/>
<path d="M924 538 c-4 -7 -3 -8 4 -4 7 4 12 9 12 12 0 8 -9 4 -16 -8z"/>
<path d="M380 535 c0 -3 2 -5 5 -5 3 0 5 2 5 5 0 3 -2 5 -5 5 -3 0 -5 -2 -5
-5z"/>
<path d="M400 465 c0 -3 2 -5 5 -5 3 0 5 2 5 5 0 3 -2 5 -5 5 -3 0 -5 -2 -5
-5z"/>
<path d="M423 433 c4 -3 10 -3 14 0 3 4 0 7 -7 7 -7 0 -10 -3 -7 -7z"/>
<path d="M480 435 c0 -3 2 -5 5 -5 3 0 5 2 5 5 0 3 -2 5 -5 5 -3 0 -5 -2 -5
-5z"/>
<path d="M375 420 c3 -5 8 -10 11 -10 2 0 4 5 4 10 0 6 -5 10 -11 10 -5 0 -7
-4 -4 -10z"/>
<path d="M430 395 c0 -3 2 -5 5 -5 3 0 5 2 5 5 0 3 -2 5 -5 5 -3 0 -5 -2 -5
-5z"/>
<path d="M745 532 c-14 -10 -17 -32 -5 -32 11 0 26 28 18 35 -2 2 -8 1 -13 -3z"/>
<path d="M730 465 c0 -3 2 -5 5 -5 3 0 5 2 5 5 0 3 -2 5 -5 5 -3 0 -5 -2 -5
-5z"/>
<path d="M750 448 c0 -4 -1 -11 -2 -15 -2 -3 5 -7 15 -9 11 -1 16 0 13 3 -3 4
-2 11 4 17 6 8 3 12 -11 12 -10 0 -19 -4 -19 -8z"/>
<path d="M740 385 c0 -3 2 -5 5 -5 3 0 5 2 5 5 0 3 -2 5 -5 5 -3 0 -5 -2 -5
-5z"/>
<path d="M847 383 c-10 -9 -9 -23 1 -23 5 0 9 7 9 15 0 17 -1 18 -10 8z"/>
<path d="M55 490 c4 -6 11 -8 16 -5 14 9 11 15 -7 15 -8 0 -12 -5 -9 -10z"/>
<path d="M33 473 c4 -3 10 -3 14 0 3 4 0 7 -7 7 -7 0 -10 -3 -7 -7z"/>
<path d="M76 471 c-3 -5 1 -11 9 -14 9 -4 12 -1 8 9 -6 16 -10 17 -17 5z"/>
<path d="M104 438 c-4 -7 -4 -10 1 -6 4 4 14 3 22 -3 10 -9 13 -8 13 5 0 19
-26 22 -36 4z"/>
<path d="M90 415 c0 -3 2 -5 5 -5 3 0 5 2 5 5 0 3 -2 5 -5 5 -3 0 -5 -2 -5 -5z"/>
<path d="M110 385 c0 -3 2 -5 5 -5 3 0 5 2 5 5 0 3 -2 5 -5 5 -3 0 -5 -2 -5
-5z"/>
<path d="M290 495 c0 -3 2 -5 5 -5 3 0 5 2 5 5 0 3 -2 5 -5 5 -3 0 -5 -2 -5
-5z"/>
<path d="M300 475 c0 -3 2 -5 5 -5 3 0 5 2 5 5 0 3 -2 5 -5 5 -3 0 -5 -2 -5
-5z"/>
<path d="M268 263 c7 -3 16 -2 19 1 4 3 -2 6 -13 5 -11 0 -14 -3 -6 -6z"/>
<path d="M270 245 c0 -3 2 -5 5 -5 3 0 5 2 5 5 0 3 -2 5 -5 5 -3 0 -5 -2 -5
-5z"/>
<path d="M110 265 c0 -3 2 -5 5 -5 3 0 5 2 5 5 0 3 -2 5 -5 5 -3 0 -5 -2 -5
-5z"/>
<path d="M590 265 c0 -3 2 -5 5 -5 3 0 5 2 5 5 0 3 -2 5 -5 5 -3 0 -5 -2 -5
-5z"/>
<path d="M604 218 c-4 -7 -3 -8 4 -4 12 7 16 16 8 16 -3 0 -8 -5 -12 -12z"/>
<path d="M620 175 c0 -3 2 -5 5 -5 3 0 5 2 5 5 0 3 -2 5 -5 5 -3 0 -5 -2 -5
-5z"/>
<path d="M80 145 c0 -3 2 -5 5 -5 3 0 5 2 5 5 0 3 -2 5 -5 5 -3 0 -5 -2 -5 -5z"/>
<path d="M103 113 c4 -3 10 -3 14 0 3 4 0 7 -7 7 -7 0 -10 -3 -7 -7z"/>
<path d="M160 115 c0 -3 2 -5 5 -5 3 0 5 2 5 5 0 3 -2 5 -5 5 -3 0 -5 -2 -5
-5z"/>
<path d="M55 100 c3 -5 8 -10 11 -10 2 0 4 5 4 10 0 6 -5 10 -11 10 -5 0 -7
-4 -4 -10z"/>
<path d="M110 75 c0 -3 2 -5 5 -5 3 0 5 2 5 5 0 3 -2 5 -5 5 -3 0 -5 -2 -5 -5z"/>
<path d="M720 145 c0 -3 2 -5 5 -5 3 0 5 2 5 5 0 3 -2 5 -5 5 -3 0 -5 -2 -5
-5z"/>
<path d="M743 113 c4 -3 10 -3 14 0 3 4 0 7 -7 7 -7 0 -10 -3 -7 -7z"/>
<path d="M800 115 c0 -3 2 -5 5 -5 3 0 5 2 5 5 0 3 -2 5 -5 5 -3 0 -5 -2 -5
-5z"/>
<path d="M695 100 c3 -5 8 -10 11 -10 2 0 4 5 4 10 0 6 -5 10 -11 10 -5 0 -7
-4 -4 -10z"/>
<path d="M750 75 c0 -3 2 -5 5 -5 3 0 5 2 5 5 0 3 -2 5 -5 5 -3 0 -5 -2 -5 -5z"/>
<path d="M425 212 c-14 -10 -17 -32 -5 -32 11 0 26 28 18 35 -2 2 -8 1 -13 -3z"/>
<path d="M410 145 c0 -3 2 -5 5 -5 3 0 5 2 5 5 0 3 -2 5 -5 5 -3 0 -5 -2 -5
-5z"/>
<path d="M430 128 c0 -4 -1 -11 -2 -15 -2 -3 5 -7 15 -9 11 -1 16 0 13 3 -3 4
-2 11 4 17 6 8 3 12 -11 12 -10 0 -19 -4 -19 -8z"/>
<path d="M420 65 c0 -3 2 -5 5 -5 3 0 5 2 5 5 0 3 -2 5 -5 5 -3 0 -5 -2 -5 -5z"/>
<path d="M527 63 c-10 -9 -9 -23 1 -23 5 0 9 7 9 15 0 17 -1 18 -10 8z"/>
<path d="M945 660 c3 -5 8 -10 11 -10 3 0 2 5 -1 10 -3 6 -8 10 -11 10 -3 0
-2 -4 1 -10z"/>
<path d="M903 263 c4 -3 10 -3 14 0 3 4 0 7 -7 7 -7 0 -10 -3 -7 -7z"/>
<path d="M938 252 c5 -9 10 -39 11 -67 1 -27 4 -52 7 -55 3 -2 4 26 3 62 -1
46 -6 69 -16 72 -10 4 -11 1 -5 -12z"/>
<path d="M910 245 c0 -3 2 -5 5 -5 3 0 5 2 5 5 0 3 -2 5 -5 5 -3 0 -5 -2 -5
-5z"/>
</g>
<g transform="translate(0.000000,96.000000) scale(0.100000,-0.100000)"
fill="#224478" stroke="none">
<path d="M251 939 c-7 -12 -8 -18 -3 -15 6 3 12 1 14 -6 3 -8 6 -7 10 3 10 27
-6 40 -21 18z m19 -4 c0 -3 -2 -5 -5 -5 -3 0 -5 2 -5 5 0 3 2 5 5 5 3 0 5 -2
5 -5z"/>
<path d="M770 950 c0 -7 3 -10 7 -7 3 4 3 10 0 14 -4 3 -7 0 -7 -7z"/>
<path d="M790 955 c0 -3 2 -5 5 -5 3 0 5 2 5 5 0 3 -2 5 -5 5 -3 0 -5 -2 -5
-5z"/>
<path d="M880 949 c0 -4 6 -9 13 -12 8 -3 14 0 14 7 0 7 -6 13 -14 13 -7 0
-13 -4 -13 -8z"/>
<path d="M920 955 c0 -3 2 -5 5 -5 3 0 5 2 5 5 0 3 -2 5 -5 5 -3 0 -5 -2 -5
-5z"/>
<path d="M580 938 c0 -4 4 -8 9 -8 6 0 12 4 15 8 3 5 -1 9 -9 9 -8 0 -15 -4
-15 -9z"/>
<path d="M860 945 c0 -3 2 -5 5 -5 3 0 5 2 5 5 0 3 -2 5 -5 5 -3 0 -5 -2 -5
-5z"/>
<path d="M170 935 c0 -3 2 -5 5 -5 3 0 5 2 5 5 0 3 -2 5 -5 5 -3 0 -5 -2 -5
-5z"/>
<path d="M309 928 c-1 -7 -1 -23 -2 -36 0 -17 -7 -24 -28 -29 -23 -4 -27 -10
-26 -32 1 -15 -3 -25 -9 -24 -7 1 -11 -3 -10 -10 0 -7 -3 -13 -8 -14 -14 -2
-25 -26 -17 -38 4 -5 8 -26 9 -45 1 -30 0 -31 -6 -10 -7 22 -9 23 -15 7 -4
-11 -4 -24 0 -30 3 -7 3 -9 -2 -5 -4 4 -14 3 -22 -3 -10 -9 -13 -7 -13 11 0
19 -2 20 -15 10 -9 -7 -15 -8 -15 -2 0 11 -18 11 -38 -1 -6 -5 -12 -5 -12 0 0
4 -4 2 -9 -5 -7 -11 -9 -11 -14 2 -4 9 -1 15 5 13 5 -1 12 6 13 16 2 12 -2 17
-13 15 -9 -2 -22 3 -29 12 -6 8 -14 12 -17 9 -11 -10 -15 -70 -5 -64 5 4 9 1
9 -4 0 -6 -5 -11 -11 -11 -5 0 -7 -4 -4 -10 8 -13 75 -13 75 0 0 11 40 -8 52
-25 5 -7 8 -6 8 1 0 16 91 18 101 2 7 -10 11 -10 21 0 6 6 36 12 65 12 55 0
67 12 41 39 -11 11 -9 11 10 2 13 -7 26 -19 29 -27 4 -11 33 -14 149 -14 79 0
144 2 144 4 0 3 -5 17 -11 32 -10 28 -10 28 11 9 20 -18 21 -18 14 0 -5 12 -4
16 4 11 13 -8 6 20 -10 40 -8 11 -61 7 -54 -5 2 -3 0 -15 -5 -26 -7 -15 -8
-13 -5 12 3 25 -1 35 -20 48 -15 10 -22 21 -17 28 12 20 12 37 0 37 -8 0 -8 3
-2 8 6 4 11 13 13 21 2 10 -1 12 -10 5 -22 -16 -63 -11 -60 7 2 16 -15 28 -48
35 -10 2 -16 -4 -16 -16 0 -15 3 -17 15 -7 12 10 13 8 6 -13 -4 -14 -10 -27
-14 -30 -14 -12 -7 -36 10 -35 27 2 31 9 20 38 -8 21 -7 25 4 20 8 -3 13 -9
10 -13 -3 -5 -1 -11 5 -15 6 -4 8 -11 5 -16 -3 -5 1 -6 10 -2 12 4 13 8 5 13
-8 5 -6 9 6 14 10 4 15 4 12 0 -4 -4 -2 -16 4 -28 6 -11 7 -18 3 -14 -5 5 -15
-1 -23 -13 -10 -15 -17 -18 -25 -10 -14 14 -27 14 -27 0 0 -5 5 -7 10 -4 6 3
10 2 10 -4 0 -5 -5 -13 -10 -16 -8 -5 -7 -11 1 -21 9 -10 9 -17 0 -28 -6 -7
-9 -21 -5 -30 4 -11 1 -16 -14 -16 -11 0 -22 6 -25 13 -5 13 -45 16 -64 4 -12
-8 -23 1 -23 20 0 8 5 11 10 8 6 -3 10 0 10 7 0 7 -11 14 -25 14 -14 1 -25 -2
-25 -7 0 -4 -7 -5 -17 -2 -9 4 -14 2 -10 -3 3 -6 2 -16 -2 -22 -5 -8 -8 3 -9
25 -1 23 -9 43 -19 52 -13 10 -14 12 -3 9 13 -5 16 7 16 78 0 46 -1 84 -3 84
-2 0 -4 -6 -4 -12z m221 -43 c7 -9 8 -15 2 -15 -5 0 -12 7 -16 15 -3 8 -4 15
-2 15 2 0 9 -7 16 -15z m-235 -35 c-3 -5 -1 -10 4 -10 6 0 10 -11 9 -24 -1
-14 -6 -22 -11 -19 -5 3 -6 11 -3 19 3 7 1 16 -5 19 -9 6 -4 25 7 25 3 0 2 -4
-1 -10z m255 -5 c0 -3 -2 -5 -5 -5 -3 0 -5 2 -5 5 0 3 2 5 5 5 3 0 5 -2 5 -5z
m-30 -26 c0 -6 -4 -7 -10 -4 -5 3 -10 11 -10 16 0 6 5 7 10 4 6 -3 10 -11 10
-16z m67 -56 c-4 -3 -7 0 -7 7 0 7 3 10 7 7 3 -4 3 -10 0 -14z m-57 -18 c0 -3
-2 -5 -5 -5 -3 0 -5 2 -5 5 0 3 2 5 5 5 3 0 5 -2 5 -5z m175 -15 c3 -5 4 -10
1 -10 -3 0 -8 5 -11 10 -3 6 -4 10 -1 10 3 0 8 -4 11 -10z m-25 -5 c0 -3 -2
-5 -5 -5 -3 0 -5 2 -5 5 0 3 2 5 5 5 3 0 5 -2 5 -5z m-663 -32 c-4 -3 -7 0 -7
7 0 7 3 10 7 7 3 -4 3 -10 0 -14z m223 12 c0 -3 -2 -5 -5 -5 -3 0 -5 2 -5 5 0
3 2 5 5 5 3 0 5 -2 5 -5z m-200 -20 c0 -3 -2 -5 -5 -5 -3 0 -5 2 -5 5 0 3 2 5
5 5 3 0 5 -2 5 -5z m500 0 c0 -3 -2 -5 -5 -5 -3 0 -5 2 -5 5 0 3 2 5 5 5 3 0
5 -2 5 -5z m-230 -10 c0 -3 -2 -5 -5 -5 -3 0 -5 2 -5 5 0 3 2 5 5 5 3 0 5 -2
5 -5z m350 0 c0 -3 -2 -5 -5 -5 -3 0 -5 2 -5 5 0 3 2 5 5 5 3 0 5 -2 5 -5z
m-540 -10 c0 -3 -2 -5 -5 -5 -3 0 -5 2 -5 5 0 3 2 5 5 5 3 0 5 -2 5 -5z m320
0 c0 -3 -2 -5 -5 -5 -3 0 -5 2 -5 5 0 3 2 5 5 5 3 0 5 -2 5 -5z m-100 -10 c0
-3 -2 -5 -5 -5 -3 0 -5 2 -5 5 0 3 2 5 5 5 3 0 5 -2 5 -5z m-80 -20 c0 -3 -2
-5 -5 -5 -3 0 -5 2 -5 5 0 3 2 5 5 5 3 0 5 -2 5 -5z"/>
<path d="M784 928 c-4 -7 -3 -8 4 -4 7 4 12 9 12 12 0 8 -9 4 -16 -8z"/>
<path d="M820 935 c0 -3 2 -5 5 -5 3 0 5 2 5 5 0 3 -2 5 -5 5 -3 0 -5 -2 -5
-5z"/>
<path d="M948 923 c0 -10 -2 -24 -2 -30 -1 -7 -9 -20 -18 -29 -14 -15 -19 -15
-33 -4 -15 12 -16 11 -13 -6 2 -14 -2 -18 -17 -17 -11 1 -14 0 -7 -3 6 -3 9
-10 6 -16 -4 -6 1 -6 14 1 29 15 23 -7 -11 -44 -28 -31 -36 -52 -14 -39 7 5 6
0 -3 -11 -8 -10 -10 -16 -3 -12 6 4 14 3 17 -1 3 -5 -6 -15 -19 -22 -14 -7
-25 -17 -25 -22 0 -4 -4 -8 -10 -8 -5 0 -10 6 -10 13 0 19 -64 14 -68 -6 -2
-10 5 -20 15 -24 10 -4 21 -11 25 -17 6 -8 8 -8 8 0 0 6 23 11 50 13 28 1 50
-2 50 -7 0 -6 7 -13 16 -16 14 -5 15 -4 5 8 -11 13 -9 15 7 11 27 -5 60 19 42
30 -9 6 -11 4 -5 -5 5 -9 4 -11 -4 -6 -6 4 -9 12 -5 17 3 5 10 7 15 4 5 -4 9
47 8 129 -1 75 -3 136 -5 136 -2 0 -5 -8 -6 -17z m-1 -86 c0 -21 -5 -34 -14
-34 -9 0 -10 4 -2 13 7 8 7 14 -1 19 -8 5 -8 11 1 21 16 19 16 19 16 -19z
m-12 -57 c3 -5 4 -10 1 -10 -3 0 -8 5 -11 10 -3 6 -4 10 -1 10 3 0 8 -4 11
-10z m-28 -27 c-4 -3 -7 0 -7 7 0 7 3 10 7 7 3 -4 3 -10 0 -14z m-7 -28 c0 -3
-2 -5 -5 -5 -3 0 -5 2 -5 5 0 3 2 5 5 5 3 0 5 -2 5 -5z m-33 -52 c-4 -3 -7 0
-7 7 0 7 3 10 7 7 3 -4 3 -10 0 -14z m-107 -8 c0 -3 -2 -5 -5 -5 -3 0 -5 2 -5
5 0 3 2 5 5 5 3 0 5 -2 5 -5z m90 0 c0 -3 -2 -5 -5 -5 -3 0 -5 2 -5 5 0 3 2 5
5 5 3 0 5 -2 5 -5z"/>
<path d="M930 845 c0 -3 2 -5 5 -5 3 0 5 2 5 5 0 3 -2 5 -5 5 -3 0 -5 -2 -5
-5z"/>
<path d="M190 925 c0 -3 2 -5 5 -5 3 0 5 2 5 5 0 3 -2 5 -5 5 -3 0 -5 -2 -5
-5z"/>
<path d="M630 920 c0 -7 3 -10 7 -7 3 4 3 10 0 14 -4 3 -7 0 -7 -7z"/>
<path d="M760 925 c0 -3 2 -5 5 -5 3 0 5 2 5 5 0 3 -2 5 -5 5 -3 0 -5 -2 -5
-5z"/>
<path d="M880 925 c0 -3 2 -5 5 -5 3 0 5 2 5 5 0 3 -2 5 -5 5 -3 0 -5 -2 -5
-5z"/>
<path d="M147 903 c-11 -11 -8 -20 8 -20 8 0 11 5 8 11 -4 6 1 5 10 -3 15 -12
17 -11 17 3 0 16 -30 22 -43 9z"/>
<path d="M580 905 c0 -3 2 -5 5 -5 3 0 5 2 5 5 0 3 -2 5 -5 5 -3 0 -5 -2 -5
-5z"/>
<path d="M800 900 c0 -5 5 -10 10 -10 6 0 10 5 10 10 0 6 -4 10 -10 10 -5 0
-10 -4 -10 -10z"/>
<path d="M910 905 c0 -3 2 -5 5 -5 3 0 5 2 5 5 0 3 -2 5 -5 5 -3 0 -5 -2 -5
-5z"/>
<path d="M120 895 c0 -3 2 -5 5 -5 3 0 5 2 5 5 0 3 -2 5 -5 5 -3 0 -5 -2 -5
-5z"/>
<path d="M440 895 c0 -3 2 -5 5 -5 3 0 5 2 5 5 0 3 -2 5 -5 5 -3 0 -5 -2 -5
-5z"/>
<path d="M627 838 c7 -85 15 -88 12 -5 -1 37 -5 67 -9 67 -4 0 -5 -28 -3 -62z"/>
<path d="M590 885 c0 -3 2 -5 5 -5 3 0 5 2 5 5 0 3 -2 5 -5 5 -3 0 -5 -2 -5
-5z"/>
<path d="M207 861 c5 -13 3 -14 -8 -3 -14 13 -30 16 -28 5 1 -5 0 -10 -1 -13
-7 -19 -7 -41 0 -45 5 -3 7 3 5 15 -2 11 -1 19 3 19 20 -3 32 3 41 19 7 14 6
19 -4 19 -8 0 -11 -7 -8 -16z"/>
<path d="M800 875 c0 -3 2 -5 5 -5 3 0 5 2 5 5 0 3 -2 5 -5 5 -3 0 -5 -2 -5
-5z"/>
<path d="M814 855 c-9 -19 -8 -27 5 -41 15 -16 15 -16 -4 -10 -16 6 -17 5 -8
-5 10 -10 15 -9 27 1 18 14 11 34 -7 24 -7 -3 -3 2 8 10 11 9 25 14 32 12 7
-3 10 1 7 8 -3 7 -11 13 -19 13 -8 0 -12 -5 -9 -11 3 -6 -1 -4 -8 5 -12 15
-15 15 -24 -6z m6 -20 c0 -3 -2 -5 -5 -5 -3 0 -5 2 -5 5 0 3 2 5 5 5 3 0 5 -2
5 -5z m20 -20 c0 -3 -2 -5 -5 -5 -3 0 -5 2 -5 5 0 3 2 5 5 5 3 0 5 -2 5 -5z"/>
<path d="M227 847 c-3 -9 -13 -17 -22 -17 -18 0 -20 -16 -3 -26 7 -4 8 -3 4 4
-4 7 -2 13 3 13 6 1 16 2 21 3 11 1 14 10 8 28 -3 7 -7 5 -11 -5z m13 -12 c0
-3 -2 -5 -5 -5 -3 0 -5 2 -5 5 0 3 2 5 5 5 3 0 5 -2 5 -5z"/>
<path d="M550 795 c0 -3 2 -5 5 -5 3 0 5 2 5 5 0 3 -2 5 -5 5 -3 0 -5 -2 -5
-5z"/>
<path d="M490 785 c0 -3 2 -5 5 -5 3 0 5 2 5 5 0 3 -2 5 -5 5 -3 0 -5 -2 -5
-5z"/>
<path d="M840 780 c0 -5 -8 -7 -17 -4 -14 5 -15 4 -4 -4 15 -11 41 -5 41 9 0
5 -4 9 -10 9 -5 0 -10 -4 -10 -10z"/>
<path d="M750 750 c0 -7 3 -10 7 -7 3 4 3 10 0 14 -4 3 -7 0 -7 -7z"/>
<path d="M86 741 c-3 -4 1 -17 10 -27 14 -18 14 -17 3 5 -10 21 -9 23 5 18 9
-4 16 -2 16 3 0 12 -27 13 -34 1z"/>
<path d="M187 739 c7 -7 15 -10 18 -7 3 3 -2 9 -12 12 -14 6 -15 5 -6 -5z"/>
<path d="M375 740 c3 -5 8 -10 11 -10 2 0 4 5 4 10 0 6 -5 10 -11 10 -5 0 -7
-4 -4 -10z"/>
<path d="M770 745 c0 -3 2 -5 5 -5 3 0 5 2 5 5 0 3 -2 5 -5 5 -3 0 -5 -2 -5
-5z"/>
<path d="M430 715 c0 -3 2 -5 5 -5 3 0 5 2 5 5 0 3 -2 5 -5 5 -3 0 -5 -2 -5
-5z"/>
<path d="M733 713 c4 -3 10 -3 14 0 3 4 0 7 -7 7 -7 0 -10 -3 -7 -7z"/>
<path d="M580 618 c0 -4 4 -8 9 -8 6 0 12 4 15 8 3 5 -1 9 -9 9 -8 0 -15 -4
-15 -9z"/>
<path d="M860 625 c0 -3 2 -5 5 -5 3 0 5 2 5 5 0 3 -2 5 -5 5 -3 0 -5 -2 -5
-5z"/>
<path d="M305 610 c3 -5 8 -10 11 -10 2 0 4 5 4 10 0 6 -5 10 -11 10 -5 0 -7
-4 -4 -10z"/>
<path d="M784 608 c-4 -7 -3 -8 4 -4 7 4 12 9 12 12 0 8 -9 4 -16 -8z"/>
<path d="M820 615 c0 -3 2 -5 5 -5 3 0 5 2 5 5 0 3 -2 5 -5 5 -3 0 -5 -2 -5
-5z"/>
<path d="M948 603 c0 -10 -2 -24 -2 -30 -1 -7 -9 -20 -18 -29 -14 -15 -19 -15
-33 -4 -15 12 -16 11 -13 -6 2 -14 -2 -18 -17 -17 -11 1 -14 0 -7 -3 6 -3 9
-10 6 -16 -4 -6 1 -6 14 1 16 9 20 8 18 -4 -3 -18 -36 -55 -50 -55 -6 0 -4 4
4 10 8 5 11 12 7 17 -5 4 -12 1 -16 -6 -5 -8 -11 -9 -15 -3 -3 5 1 15 9 22 17
14 10 34 -8 24 -7 -3 -5 1 4 8 13 11 14 17 5 30 -10 14 -13 13 -23 -8 -8 -18
-8 -26 3 -35 11 -9 12 -15 3 -26 -10 -11 -8 -17 10 -29 12 -9 19 -19 16 -24
-3 -4 0 -10 6 -12 6 -2 12 -18 14 -36 2 -29 1 -31 -18 -20 -16 8 -22 8 -25 -1
-5 -16 -22 -14 -22 3 0 14 -46 16 -68 2 -15 -9 -27 13 -13 27 17 17 -14 45
-44 39 -14 -2 -23 -7 -21 -11 2 -3 0 -15 -5 -26 -7 -16 -8 -14 -5 10 2 21 -4
36 -21 52 -24 23 -30 43 -13 43 6 0 15 -10 20 -22 l9 -23 0 23 c1 12 -6 25
-14 28 -8 4 -13 10 -10 14 7 11 -15 25 -40 25 -31 2 -77 24 -70 35 9 15 17 12
9 -2 -4 -7 -4 -10 1 -6 4 4 17 3 29 -3 17 -8 17 -7 -3 8 -35 26 -60 27 -54 3
3 -11 10 -20 16 -20 5 0 2 -9 -7 -19 -11 -12 -14 -21 -7 -26 6 -3 11 -3 11 2
0 4 5 1 10 -7 8 -12 10 -12 10 -1 0 11 3 11 15 1 14 -11 19 -7 16 12 0 4 6 5
14 2 11 -5 12 -11 4 -25 -5 -10 -6 -19 -2 -19 4 0 1 -4 -7 -10 -9 -6 -20 -5
-29 3 -12 10 -14 9 -8 -6 4 -10 3 -16 -2 -12 -5 3 -13 0 -17 -7 -4 -7 -4 -10
1 -6 4 4 14 3 22 -3 11 -10 11 -15 -2 -35 -8 -13 -12 -30 -9 -38 4 -11 0 -16
-14 -16 -11 0 -22 6 -25 13 -5 13 -45 16 -64 4 -12 -8 -23 1 -23 20 0 8 5 11
10 8 6 -3 10 0 10 7 0 7 -11 14 -25 14 -14 1 -25 -2 -25 -7 0 -4 -7 -5 -17 -2
-9 4 -14 2 -10 -3 3 -6 2 -16 -3 -24 -7 -12 -9 -11 -9 5 2 58 -5 135 -11 135
-4 0 -6 -12 -4 -26 1 -14 -2 -24 -8 -22 -18 6 -18 37 0 51 17 12 27 77 13 77
-5 0 -8 -12 -7 -27 1 -26 -1 -28 -34 -24 -19 1 -38 8 -42 15 -5 6 -8 7 -8 1 0
-6 -9 -11 -20 -12 -24 -2 -25 1 -5 21 21 20 3 29 -21 10 -10 -9 -13 -13 -6 -9
19 10 8 -36 -13 -51 -16 -12 -16 -13 4 -11 11 1 21 5 21 9 0 4 6 7 12 6 7 -2
12 3 10 10 -1 8 2 11 8 7 17 -10 11 -25 -15 -37 -24 -11 -33 -32 -17 -42 4 -2
14 0 22 6 12 8 12 9 -2 4 -26 -8 -22 11 5 25 12 7 24 12 27 11 3 0 4 6 2 14
-2 8 2 14 8 14 6 0 8 -5 5 -10 -3 -5 2 -10 12 -10 11 0 14 -3 7 -8 -6 -4 -14
-15 -17 -25 -4 -11 -16 -21 -28 -24 -12 -4 -18 -11 -15 -20 3 -8 1 -11 -4 -8
-6 3 -10 2 -10 -3 0 -5 9 -12 21 -15 12 -3 18 -10 15 -15 -3 -6 0 -13 6 -16 7
-3 2 -3 -11 0 -13 3 -26 1 -30 -4 -9 -15 -55 -22 -72 -12 -20 13 -43 -9 -28
-26 9 -11 45 -14 150 -14 143 0 159 5 127 39 -11 11 -9 11 10 2 13 -7 26 -19
29 -27 3 -8 14 -14 24 -14 10 0 19 -6 19 -12 0 -9 3 -9 8 -2 9 13 102 19 102
6 0 -6 7 -13 16 -16 13 -5 14 -3 6 6 -8 11 2 14 51 16 34 2 63 5 65 6 1 2 -2
16 -8 32 l-11 29 33 -32 34 -33 107 0 107 0 -1 150 c-1 83 -3 150 -5 150 -2 0
-5 -8 -6 -17z m-1 -86 c0 -21 -5 -34 -14 -34 -9 0 -10 4 -2 13 7 8 7 14 -1 19
-8 5 -8 11 1 21 16 19 16 19 16 -19z m-717 18 c0 -3 -2 -5 -5 -5 -3 0 -5 2 -5
5 0 3 2 5 5 5 3 0 5 -2 5 -5z m317 -20 c0 -10 -4 -12 -12 -5 -7 5 -15 7 -19 3
-4 -4 -4 0 -1 9 8 20 32 14 32 -7z m-47 0 c0 -3 -2 -5 -5 -5 -3 0 -5 2 -5 5 0
3 2 5 5 5 3 0 5 -2 5 -5z m320 0 c0 -3 -2 -5 -5 -5 -3 0 -5 2 -5 5 0 3 2 5 5
5 3 0 5 -2 5 -5z m-590 -10 c0 -3 -2 -5 -5 -5 -3 0 -5 2 -5 5 0 3 2 5 5 5 3 0
5 -2 5 -5z m370 0 c0 -3 -2 -5 -5 -5 -3 0 -5 2 -5 5 0 3 2 5 5 5 3 0 5 -2 5
-5z m240 -10 c0 -3 -2 -5 -5 -5 -3 0 -5 2 -5 5 0 3 2 5 5 5 3 0 5 -2 5 -5z
m-573 -52 c-4 -3 -7 0 -7 7 0 7 3 10 7 7 3 -4 3 -10 0 -14z m643 12 c0 -3 -2
-5 -5 -5 -3 0 -5 2 -5 5 0 3 2 5 5 5 3 0 5 -2 5 -5z m30 0 c0 -3 -2 -5 -5 -5
-3 0 -5 2 -5 5 0 3 2 5 5 5 3 0 5 -2 5 -5z m-350 -10 c0 -3 -2 -5 -5 -5 -3 0
-5 2 -5 5 0 3 2 5 5 5 3 0 5 -2 5 -5z m320 -10 c0 -3 -2 -5 -5 -5 -3 0 -5 2
-5 5 0 3 2 5 5 5 3 0 5 -2 5 -5z m-205 -25 c3 -5 4 -10 1 -10 -3 0 -8 5 -11
10 -3 6 -4 10 -1 10 3 0 8 -4 11 -10z m-25 -5 c0 -3 -2 -5 -5 -5 -3 0 -5 2 -5
5 0 3 2 5 5 5 3 0 5 -2 5 -5z m-470 -40 c0 -3 -2 -5 -5 -5 -3 0 -5 2 -5 5 0 3
2 5 5 5 3 0 5 -2 5 -5z m330 0 c0 -3 -2 -5 -5 -5 -3 0 -5 2 -5 5 0 3 2 5 5 5
3 0 5 -2 5 -5z m120 -10 c0 -3 -2 -5 -5 -5 -3 0 -5 2 -5 5 0 3 2 5 5 5 3 0 5
-2 5 -5z m290 -5 c0 -5 -5 -10 -11 -10 -5 0 -7 5 -4 10 3 6 8 10 11 10 2 0 4
-4 4 -10z m-643 -7 c-4 -3 -10 -3 -14 0 -3 4 0 7 7 7 7 0 10 -3 7 -7z m133 2
c0 -3 -2 -5 -5 -5 -3 0 -5 2 -5 5 0 3 2 5 5 5 3 0 5 -2 5 -5z m320 0 c0 -3 -2
-5 -5 -5 -3 0 -5 2 -5 5 0 3 2 5 5 5 3 0 5 -2 5 -5z m-420 -10 c0 -3 -2 -5 -5
-5 -3 0 -5 2 -5 5 0 3 2 5 5 5 3 0 5 -2 5 -5z"/>
<path d="M930 525 c0 -3 2 -5 5 -5 3 0 5 2 5 5 0 3 -2 5 -5 5 -3 0 -5 -2 -5
-5z"/>
<path d="M133 603 c4 -3 10 -3 14 0 3 4 0 7 -7 7 -7 0 -10 -3 -7 -7z"/>
<path d="M255 600 c3 -5 8 -10 11 -10 3 0 2 5 -1 10 -3 6 -8 10 -11 10 -3 0
-2 -4 1 -10z"/>
<path d="M630 600 c0 -7 3 -10 7 -7 3 4 3 10 0 14 -4 3 -7 0 -7 -7z"/>
<path d="M760 605 c0 -3 2 -5 5 -5 3 0 5 2 5 5 0 3 -2 5 -5 5 -3 0 -5 -2 -5
-5z"/>
<path d="M880 605 c0 -3 2 -5 5 -5 3 0 5 2 5 5 0 3 -2 5 -5 5 -3 0 -5 -2 -5
-5z"/>
<path d="M150 585 c0 -3 2 -5 5 -5 3 0 5 2 5 5 0 3 -2 5 -5 5 -3 0 -5 -2 -5
-5z"/>
<path d="M590 585 c0 -3 2 -5 5 -5 3 0 5 2 5 5 0 3 -2 5 -5 5 -3 0 -5 -2 -5
-5z"/>
<path d="M800 580 c0 -5 5 -10 10 -10 6 0 10 5 10 10 0 6 -4 10 -10 10 -5 0
-10 -4 -10 -10z"/>
<path d="M910 585 c0 -3 2 -5 5 -5 3 0 5 2 5 5 0 3 -2 5 -5 5 -3 0 -5 -2 -5
-5z"/>
<path d="M260 575 c0 -3 2 -5 5 -5 3 0 5 2 5 5 0 3 -2 5 -5 5 -3 0 -5 -2 -5
-5z"/>
<path d="M440 575 c0 -3 2 -5 5 -5 3 0 5 2 5 5 0 3 -2 5 -5 5 -3 0 -5 -2 -5
-5z"/>
<path d="M618 555 c-3 -14 0 -29 6 -34 8 -7 12 0 12 25 0 40 -11 45 -18 9z"/>
<path d="M590 565 c0 -3 2 -5 5 -5 3 0 5 2 5 5 0 3 -2 5 -5 5 -3 0 -5 -2 -5
-5z"/>
<path d="M800 555 c0 -3 2 -5 5 -5 3 0 5 2 5 5 0 3 -2 5 -5 5 -3 0 -5 -2 -5
-5z"/>
<path d="M840 544 c0 -2 9 -8 20 -14 15 -8 18 -8 14 3 -4 11 -34 21 -34 11z"/>
<path d="M290 495 c0 -3 2 -5 5 -5 3 0 5 2 5 5 0 3 -2 5 -5 5 -3 0 -5 -2 -5
-5z"/>
<path d="M150 485 c0 -3 2 -5 5 -5 3 0 5 2 5 5 0 3 -2 5 -5 5 -3 0 -5 -2 -5
-5z"/>
<path d="M492 476 c7 -8 15 -12 17 -11 5 6 -10 25 -20 25 -5 0 -4 -6 3 -14z"/>
<path d="M800 485 c0 -3 2 -5 5 -5 3 0 5 2 5 5 0 3 -2 5 -5 5 -3 0 -5 -2 -5
-5z"/>
<path d="M220 475 c0 -3 2 -5 5 -5 3 0 5 2 5 5 0 3 -2 5 -5 5 -3 0 -5 -2 -5
-5z"/>
<path d="M480 465 c0 -3 2 -5 5 -5 3 0 5 2 5 5 0 3 -2 5 -5 5 -3 0 -5 -2 -5
-5z"/>
<path d="M750 430 c0 -7 3 -10 7 -7 3 4 3 10 0 14 -4 3 -7 0 -7 -7z"/>
<path d="M375 420 c3 -5 8 -10 11 -10 2 0 4 5 4 10 0 6 -5 10 -11 10 -5 0 -7
-4 -4 -10z"/>
<path d="M770 425 c0 -3 2 -5 5 -5 3 0 5 2 5 5 0 3 -2 5 -5 5 -3 0 -5 -2 -5
-5z"/>
<path d="M32 404 c-7 -8 -17 -12 -21 -10 -11 7 -8 -38 4 -46 6 -5 5 -8 -2 -8
-7 0 -13 -4 -13 -10 0 -5 14 -10 31 -10 28 0 31 3 26 25 -2 14 -2 24 1 21 5
-6 32 19 32 29 0 3 -5 3 -12 -1 -7 -5 -9 -2 -6 7 8 20 -23 22 -40 3z m25 -11
c-4 -3 -7 0 -7 7 0 7 3 10 7 7 3 -4 3 -10 0 -14z m-17 -18 c0 -3 -2 -5 -5 -5
-3 0 -5 2 -5 5 0 3 2 5 5 5 3 0 5 -2 5 -5z"/>
<path d="M90 415 c0 -3 2 -5 5 -5 3 0 5 2 5 5 0 3 -2 5 -5 5 -3 0 -5 -2 -5 -5z"/>
<path d="M520 415 c0 -3 2 -5 5 -5 3 0 5 2 5 5 0 3 -2 5 -5 5 -3 0 -5 -2 -5
-5z"/>
<path d="M820 415 c0 -3 2 -5 5 -5 3 0 5 2 5 5 0 3 -2 5 -5 5 -3 0 -5 -2 -5
-5z"/>
<path d="M430 395 c0 -3 2 -5 5 -5 3 0 5 2 5 5 0 3 -2 5 -5 5 -3 0 -5 -2 -5
-5z"/>
<path d="M110 385 c0 -3 2 -5 5 -5 3 0 5 2 5 5 0 3 -2 5 -5 5 -3 0 -5 -2 -5
-5z"/>
<path d="M740 385 c0 -3 2 -5 5 -5 3 0 5 2 5 5 0 3 -2 5 -5 5 -3 0 -5 -2 -5
-5z"/>
<path d="M847 383 c-10 -9 -9 -23 1 -23 5 0 9 7 9 15 0 17 -1 18 -10 8z"/>
<path d="M70 325 c0 -3 2 -5 5 -5 3 0 5 2 5 5 0 3 -2 5 -5 5 -3 0 -5 -2 -5 -5z"/>
<path d="M260 298 c0 -4 4 -8 9 -8 6 0 12 4 15 8 3 5 -1 9 -9 9 -8 0 -15 -4
-15 -9z"/>
<path d="M540 305 c0 -3 2 -5 5 -5 3 0 5 2 5 5 0 3 -2 5 -5 5 -3 0 -5 -2 -5
-5z"/>
<path d="M900 298 c0 -4 4 -8 9 -8 6 0 12 4 15 8 3 5 -1 9 -9 9 -8 0 -15 -4
-15 -9z"/>
<path d="M464 288 c-4 -7 -3 -8 4 -4 12 7 16 16 8 16 -3 0 -8 -5 -12 -12z"/>
<path d="M500 295 c0 -3 2 -5 5 -5 3 0 5 2 5 5 0 3 -2 5 -5 5 -3 0 -5 -2 -5
-5z"/>
<path d="M628 283 c0 -10 -2 -24 -2 -30 -1 -7 -9 -20 -18 -29 -14 -15 -19 -15
-33 -4 -15 12 -16 11 -13 -6 2 -14 -2 -18 -17 -17 -11 1 -14 0 -7 -3 6 -3 9
-10 6 -16 -4 -6 1 -6 14 1 16 9 20 8 18 -4 -3 -18 -36 -55 -50 -55 -6 0 -4 4
4 10 8 5 11 12 7 17 -5 4 -12 1 -16 -6 -5 -8 -11 -9 -15 -3 -3 5 1 15 9 22 17
14 10 34 -8 24 -7 -3 -5 1 4 8 13 11 14 17 5 30 -10 14 -13 13 -23 -8 -8 -18
-8 -26 3 -35 11 -9 12 -15 3 -26 -10 -11 -8 -17 10 -29 12 -9 19 -19 16 -24
-3 -4 0 -10 6 -12 6 -2 12 -18 14 -36 2 -29 1 -31 -18 -20 -16 8 -22 8 -25 -1
-5 -16 -22 -14 -22 3 0 14 -46 16 -68 2 -15 -9 -27 13 -13 27 17 17 -14 45
-44 39 -14 -2 -23 -7 -21 -11 2 -3 0 -15 -5 -26 -7 -15 -8 -13 -5 12 3 25 -1
35 -20 48 -15 10 -22 21 -17 28 12 20 12 37 0 37 -8 0 -8 3 -2 8 6 4 11 13 13
21 2 10 -1 12 -10 5 -22 -16 -63 -11 -60 7 2 16 -15 28 -48 35 -10 2 -16 -4
-16 -16 0 -15 3 -17 15 -7 12 10 13 8 6 -13 -4 -14 -10 -27 -14 -30 -14 -12
-7 -36 10 -35 27 2 31 9 20 38 -8 21 -7 25 4 20 8 -3 13 -9 10 -13 -3 -5 -1
-11 5 -15 6 -4 8 -11 5 -16 -3 -5 1 -6 10 -2 12 4 13 8 5 13 -8 5 -6 9 6 14
10 4 15 4 12 0 -4 -4 -2 -16 4 -28 6 -11 7 -18 3 -14 -5 5 -15 -1 -23 -13 -10
-15 -17 -18 -25 -10 -14 14 -27 14 -27 0 0 -5 5 -7 10 -4 6 3 10 2 10 -4 0 -5
-5 -13 -10 -16 -8 -5 -7 -11 1 -21 9 -10 9 -17 0 -28 -6 -7 -9 -21 -5 -30 4
-11 1 -16 -14 -16 -11 0 -22 6 -25 13 -5 13 -45 16 -64 4 -12 -8 -23 1 -23 20
0 8 5 11 10 8 6 -3 10 0 10 7 0 7 -11 14 -25 14 -14 1 -25 -2 -25 -6 0 -4 -7
-7 -16 -6 -12 1 -18 -9 -20 -37 -4 -35 -3 -37 26 -37 32 0 39 16 18 39 -11 11
-9 11 10 2 13 -7 26 -19 29 -27 4 -11 33 -14 149 -14 79 0 144 2 144 4 0 3 -5
17 -11 33 l-10 28 33 -32 34 -33 137 0 c141 0 157 5 125 39 -11 11 -9 11 10 2
13 -7 26 -19 29 -27 4 -11 29 -14 119 -14 l114 0 0 58 c0 47 -4 60 -20 70 -13
8 -18 17 -13 25 12 20 12 37 0 37 -8 0 -8 3 -2 8 6 4 11 13 13 21 2 10 -1 12
-10 5 -22 -16 -63 -11 -60 7 2 16 -15 28 -48 35 -10 2 -16 -4 -16 -16 0 -15 3
-17 15 -7 12 10 13 8 6 -13 -4 -14 -10 -27 -14 -30 -14 -12 -7 -36 10 -35 27
2 31 9 20 38 -8 21 -7 25 4 20 8 -3 13 -9 10 -13 -3 -5 -1 -11 5 -15 6 -4 8
-11 5 -16 -3 -5 1 -6 10 -2 12 4 13 8 5 13 -8 5 -6 9 6 14 10 4 15 4 12 0 -4
-4 -2 -16 4 -28 6 -11 7 -18 3 -14 -5 5 -15 -1 -23 -13 -10 -15 -17 -18 -25
-10 -14 14 -27 14 -27 0 0 -5 5 -7 10 -4 6 3 10 2 10 -4 0 -5 -5 -13 -10 -16
-8 -5 -7 -11 1 -21 9 -10 9 -17 0 -28 -6 -7 -9 -21 -5 -30 4 -11 1 -16 -14
-16 -11 0 -22 6 -25 13 -5 13 -45 16 -64 4 -12 -8 -23 1 -23 20 0 8 5 11 10 8
6 -3 10 0 10 7 0 7 -11 14 -25 14 -14 1 -25 -2 -25 -7 0 -4 -7 -5 -17 -2 -9 4
-14 2 -10 -3 3 -6 2 -16 -3 -24 -7 -12 -9 -11 -9 5 2 62 -4 245 -7 245 -2 0
-5 -8 -6 -17z m-418 -38 c7 -9 8 -15 2 -15 -5 0 -12 7 -16 15 -3 8 -4 15 -2
15 2 0 9 -7 16 -15z m640 0 c7 -9 8 -15 2 -15 -5 0 -12 7 -16 15 -3 8 -4 15
-2 15 2 0 9 -7 16 -15z m-223 -48 c0 -21 -5 -34 -14 -34 -9 0 -10 4 -2 13 7 8
7 14 -1 19 -8 5 -8 11 1 21 16 19 16 19 16 -19z m-397 8 c0 -3 -2 -5 -5 -5 -3
0 -5 2 -5 5 0 3 2 5 5 5 3 0 5 -2 5 -5z m640 0 c0 -3 -2 -5 -5 -5 -3 0 -5 2
-5 5 0 3 2 5 5 5 3 0 5 -2 5 -5z m-670 -26 c0 -6 -4 -7 -10 -4 -5 3 -10 11
-10 16 0 6 5 7 10 4 6 -3 10 -11 10 -16z m300 16 c0 -3 -2 -5 -5 -5 -3 0 -5 2
-5 5 0 3 2 5 5 5 3 0 5 -2 5 -5z m340 -16 c0 -6 -4 -7 -10 -4 -5 3 -10 11 -10
16 0 6 5 7 10 4 6 -3 10 -11 10 -16z m-320 -4 c0 -3 -2 -5 -5 -5 -3 0 -5 2 -5
5 0 3 2 5 5 5 3 0 5 -2 5 -5z m-253 -52 c-4 -3 -7 0 -7 7 0 7 3 10 7 7 3 -4 3
-10 0 -14z m323 12 c0 -3 -2 -5 -5 -5 -3 0 -5 2 -5 5 0 3 2 5 5 5 3 0 5 -2 5
-5z m30 0 c0 -3 -2 -5 -5 -5 -3 0 -5 2 -5 5 0 3 2 5 5 5 3 0 5 -2 5 -5z m287
-12 c-4 -3 -7 0 -7 7 0 7 3 10 7 7 3 -4 3 -10 0 -14z m-317 -8 c0 -3 -2 -5 -5
-5 -3 0 -5 2 -5 5 0 3 2 5 5 5 3 0 5 -2 5 -5z m-380 -10 c0 -3 -2 -5 -5 -5 -3
0 -5 2 -5 5 0 3 2 5 5 5 3 0 5 -2 5 -5z m640 0 c0 -3 -2 -5 -5 -5 -3 0 -5 2
-5 5 0 3 2 5 5 5 3 0 5 -2 5 -5z m-465 -15 c3 -5 4 -10 1 -10 -3 0 -8 5 -11
10 -3 6 -4 10 -1 10 3 0 8 -4 11 -10z m-25 -5 c0 -3 -2 -5 -5 -5 -3 0 -5 2 -5
5 0 3 2 5 5 5 3 0 5 -2 5 -5z m-340 -20 c0 -3 -2 -5 -5 -5 -3 0 -5 2 -5 5 0 3
2 5 5 5 3 0 5 -2 5 -5z m200 -20 c0 -3 -2 -5 -5 -5 -3 0 -5 2 -5 5 0 3 2 5 5
5 3 0 5 -2 5 -5z m640 0 c0 -3 -2 -5 -5 -5 -3 0 -5 2 -5 5 0 3 2 5 5 5 3 0 5
-2 5 -5z m-520 -10 c0 -3 -2 -5 -5 -5 -3 0 -5 2 -5 5 0 3 2 5 5 5 3 0 5 -2 5
-5z m290 -5 c0 -5 -5 -10 -11 -10 -5 0 -7 5 -4 10 3 6 8 10 11 10 2 0 4 -4 4
-10z m-510 -5 c0 -3 -2 -5 -5 -5 -3 0 -5 2 -5 5 0 3 2 5 5 5 3 0 5 -2 5 -5z
m320 0 c0 -3 -2 -5 -5 -5 -3 0 -5 2 -5 5 0 3 2 5 5 5 3 0 5 -2 5 -5z m320 0
c0 -3 -2 -5 -5 -5 -3 0 -5 2 -5 5 0 3 2 5 5 5 3 0 5 -2 5 -5z m-740 -10 c0 -3
-2 -5 -5 -5 -3 0 -5 2 -5 5 0 3 2 5 5 5 3 0 5 -2 5 -5z m640 0 c0 -3 -2 -5 -5
-5 -3 0 -5 2 -5 5 0 3 2 5 5 5 3 0 5 -2 5 -5z"/>
<path d="M610 205 c0 -3 2 -5 5 -5 3 0 5 2 5 5 0 3 -2 5 -5 5 -3 0 -5 -2 -5
-5z"/>
<path d="M310 280 c0 -7 3 -10 7 -7 3 4 3 10 0 14 -4 3 -7 0 -7 -7z"/>
<path d="M440 285 c0 -3 2 -5 5 -5 3 0 5 2 5 5 0 3 -2 5 -5 5 -3 0 -5 -2 -5
-5z"/>
<path d="M560 285 c0 -3 2 -5 5 -5 3 0 5 2 5 5 0 3 -2 5 -5 5 -3 0 -5 -2 -5
-5z"/>
<path d="M950 280 c0 -7 3 -10 7 -7 3 4 3 10 0 14 -4 3 -7 0 -7 -7z"/>
<path d="M260 265 c0 -3 2 -5 5 -5 3 0 5 2 5 5 0 3 -2 5 -5 5 -3 0 -5 -2 -5
-5z"/>
<path d="M480 260 c0 -5 5 -10 10 -10 6 0 10 5 10 10 0 6 -4 10 -10 10 -5 0
-10 -4 -10 -10z"/>
<path d="M590 265 c0 -3 2 -5 5 -5 3 0 5 2 5 5 0 3 -2 5 -5 5 -3 0 -5 -2 -5
-5z"/>
<path d="M900 265 c0 -3 2 -5 5 -5 3 0 5 2 5 5 0 3 -2 5 -5 5 -3 0 -5 -2 -5
-5z"/>
<path d="M120 255 c0 -3 2 -5 5 -5 3 0 5 2 5 5 0 3 -2 5 -5 5 -3 0 -5 -2 -5
-5z"/>
<path d="M307 198 c7 -85 15 -88 12 -5 -1 37 -5 67 -9 67 -4 0 -5 -28 -3 -62z"/>
<path d="M760 255 c0 -3 2 -5 5 -5 3 0 5 2 5 5 0 3 -2 5 -5 5 -3 0 -5 -2 -5
-5z"/>
<path d="M947 198 c7 -85 15 -88 12 -5 -1 37 -5 67 -9 67 -4 0 -5 -28 -3 -62z"/>
<path d="M270 245 c0 -3 2 -5 5 -5 3 0 5 2 5 5 0 3 -2 5 -5 5 -3 0 -5 -2 -5
-5z"/>
<path d="M910 245 c0 -3 2 -5 5 -5 3 0 5 2 5 5 0 3 -2 5 -5 5 -3 0 -5 -2 -5
-5z"/>
<path d="M480 235 c0 -3 2 -5 5 -5 3 0 5 2 5 5 0 3 -2 5 -5 5 -3 0 -5 -2 -5
-5z"/>
<path d="M520 224 c0 -2 9 -8 20 -14 15 -8 18 -8 14 3 -4 11 -34 21 -34 11z"/>
<path d="M480 165 c0 -3 2 -5 5 -5 3 0 5 2 5 5 0 3 -2 5 -5 5 -3 0 -5 -2 -5
-5z"/>
<path d="M230 155 c0 -3 2 -5 5 -5 3 0 5 2 5 5 0 3 -2 5 -5 5 -3 0 -5 -2 -5
-5z"/>
<path d="M870 155 c0 -3 2 -5 5 -5 3 0 5 2 5 5 0 3 -2 5 -5 5 -3 0 -5 -2 -5
-5z"/>
<path d="M170 145 c0 -3 2 -5 5 -5 3 0 5 2 5 5 0 3 -2 5 -5 5 -3 0 -5 -2 -5
-5z"/>
<path d="M810 145 c0 -3 2 -5 5 -5 3 0 5 2 5 5 0 3 -2 5 -5 5 -3 0 -5 -2 -5
-5z"/>
<path d="M430 110 c0 -7 3 -10 7 -7 3 4 3 10 0 14 -4 3 -7 0 -7 -7z"/>
<path d="M55 100 c3 -5 8 -10 11 -10 2 0 4 5 4 10 0 6 -5 10 -11 10 -5 0 -7
-4 -4 -10z"/>
<path d="M450 105 c0 -3 2 -5 5 -5 3 0 5 2 5 5 0 3 -2 5 -5 5 -3 0 -5 -2 -5
-5z"/>
<path d="M695 100 c3 -5 8 -10 11 -10 2 0 4 5 4 10 0 6 -5 10 -11 10 -5 0 -7
-4 -4 -10z"/>
<path d="M500 95 c0 -3 2 -5 5 -5 3 0 5 2 5 5 0 3 -2 5 -5 5 -3 0 -5 -2 -5 -5z"/>
<path d="M110 75 c0 -3 2 -5 5 -5 3 0 5 2 5 5 0 3 -2 5 -5 5 -3 0 -5 -2 -5 -5z"/>
<path d="M750 75 c0 -3 2 -5 5 -5 3 0 5 2 5 5 0 3 -2 5 -5 5 -3 0 -5 -2 -5 -5z"/>
<path d="M420 65 c0 -3 2 -5 5 -5 3 0 5 2 5 5 0 3 -2 5 -5 5 -3 0 -5 -2 -5 -5z"/>
<path d="M527 63 c-10 -9 -9 -23 1 -23 5 0 9 7 9 15 0 17 -1 18 -10 8z"/>
</g>
<g transform="translate(0.000000,96.000000) scale(0.100000,-0.100000)"
fill="#173672" stroke="none">
<path d="M309 930 c-1 -5 -2 -20 -2 -32 -1 -13 -10 -28 -21 -35 -12 -7 -16
-12 -10 -13 7 0 9 -11 7 -27 -3 -21 -2 -24 6 -13 5 8 7 18 5 22 -3 4 0 8 5 8
7 0 9 -16 7 -40 -2 -22 -1 -42 3 -44 3 -2 7 38 7 90 0 52 -1 94 -3 94 -2 0 -3
-4 -4 -10z m-9 -75 c0 -3 -2 -5 -5 -5 -3 0 -5 2 -5 5 0 3 2 5 5 5 3 0 5 -2 5
-5z"/>
<path d="M900 935 c0 -3 2 -5 5 -5 3 0 5 2 5 5 0 3 -2 5 -5 5 -3 0 -5 -2 -5
-5z"/>
<path d="M950 935 c0 -3 2 -5 5 -5 3 0 5 2 5 5 0 3 -2 5 -5 5 -3 0 -5 -2 -5
-5z"/>
<path d="M880 925 c0 -3 2 -5 5 -5 3 0 5 2 5 5 0 3 -2 5 -5 5 -3 0 -5 -2 -5
-5z"/>
<path d="M260 915 c0 -3 2 -5 5 -5 3 0 5 2 5 5 0 3 -2 5 -5 5 -3 0 -5 -2 -5
-5z"/>
<path d="M630 915 c0 -3 2 -5 5 -5 3 0 5 2 5 5 0 3 -2 5 -5 5 -3 0 -5 -2 -5
-5z"/>
<path d="M945 910 c-3 -5 -4 -14 -1 -19 3 -5 -1 -14 -9 -21 -15 -13 -10 -35 6
-25 5 4 9 -1 9 -9 0 -9 -5 -15 -12 -13 -14 2 -15 -19 -4 -45 15 -34 25 -7 24
67 -1 76 -2 83 -13 65z m5 -44 c0 -3 -5 -8 -12 -12 -7 -4 -8 -3 -4 4 7 12 16
16 16 8z m-5 -56 c3 -5 4 -10 1 -10 -3 0 -8 5 -11 10 -3 6 -4 10 -1 10 3 0 8
-4 11 -10z"/>
<path d="M174 898 c-4 -7 -3 -8 4 -4 12 7 16 16 8 16 -3 0 -8 -5 -12 -12z"/>
<path d="M580 905 c0 -3 2 -5 5 -5 3 0 5 2 5 5 0 3 -2 5 -5 5 -3 0 -5 -2 -5
-5z"/>
<path d="M805 900 c3 -5 8 -10 11 -10 2 0 4 5 4 10 0 6 -5 10 -11 10 -5 0 -7
-4 -4 -10z"/>
<path d="M910 905 c0 -3 2 -5 5 -5 3 0 5 2 5 5 0 3 -2 5 -5 5 -3 0 -5 -2 -5
-5z"/>
<path d="M627 838 c7 -85 15 -88 12 -5 -1 37 -5 67 -9 67 -4 0 -5 -28 -3 -62z"/>
<path d="M590 885 c0 -3 2 -5 5 -5 3 0 5 2 5 5 0 3 -2 5 -5 5 -3 0 -5 -2 -5
-5z"/>
<path d="M210 860 c-6 -11 -8 -20 -6 -20 3 0 10 9 16 20 6 11 8 20 6 20 -3 0
-10 -9 -16 -20z"/>
<path d="M480 875 c0 -3 2 -5 5 -5 3 0 5 2 5 5 0 3 -2 5 -5 5 -3 0 -5 -2 -5
-5z"/>
<path d="M504 868 c-3 -5 -2 -8 3 -7 20 3 34 -2 28 -11 -4 -6 -3 -10 2 -9 4 1
15 1 23 0 13 -1 13 -2 0 -12 -10 -7 -11 -9 -2 -7 8 2 13 7 12 12 -1 5 4 13 12
17 9 6 5 8 -12 7 -14 -2 -24 2 -23 7 2 13 -36 14 -43 3z"/>
<path d="M820 870 c0 -7 3 -10 7 -7 3 4 3 10 0 14 -4 3 -7 0 -7 -7z"/>
<path d="M173 863 c4 -3 10 -3 14 0 3 4 0 7 -7 7 -7 0 -10 -3 -7 -7z"/>
<path d="M607 863 c-10 -9 -9 -23 1 -23 5 0 9 7 9 15 0 17 -1 18 -10 8z"/>
<path d="M840 865 c0 -3 2 -5 5 -5 3 0 5 2 5 5 0 3 -2 5 -5 5 -3 0 -5 -2 -5
-5z"/>
<path d="M863 858 c3 -9 1 -19 -6 -22 -9 -3 -8 -5 1 -5 7 -1 10 -6 6 -12 -4
-8 0 -8 15 0 25 14 28 23 4 14 -9 -4 -14 -2 -10 3 3 6 1 16 -5 24 -8 12 -9 12
-5 -2z"/>
<path d="M880 865 c0 -3 2 -5 5 -5 3 0 5 2 5 5 0 3 -2 5 -5 5 -3 0 -5 -2 -5
-5z"/>
<path d="M160 835 c0 -3 2 -5 5 -5 3 0 5 2 5 5 0 3 -2 5 -5 5 -3 0 -5 -2 -5
-5z"/>
<path d="M800 835 c0 -3 2 -5 5 -5 3 0 5 2 5 5 0 3 -2 5 -5 5 -3 0 -5 -2 -5
-5z"/>
<path d="M190 825 c0 -3 2 -5 5 -5 3 0 5 2 5 5 0 3 -2 5 -5 5 -3 0 -5 -2 -5
-5z"/>
<path d="M210 825 c0 -3 2 -5 5 -5 3 0 5 2 5 5 0 3 -2 5 -5 5 -3 0 -5 -2 -5
-5z"/>
<path d="M230 825 c0 -3 2 -5 5 -5 3 0 5 2 5 5 0 3 -2 5 -5 5 -3 0 -5 -2 -5
-5z"/>
<path d="M250 825 c0 -3 2 -5 5 -5 3 0 5 2 5 5 0 3 -2 5 -5 5 -3 0 -5 -2 -5
-5z"/>
<path d="M490 825 c0 -3 2 -5 5 -5 3 0 5 2 5 5 0 3 -2 5 -5 5 -3 0 -5 -2 -5
-5z"/>
<path d="M520 820 c0 -7 3 -10 7 -7 3 4 3 10 0 14 -4 3 -7 0 -7 -7z"/>
<path d="M593 820 c-13 -5 -23 -13 -23 -16 0 -4 3 -4 7 -1 3 4 12 2 20 -4 7
-6 13 -10 14 -8 5 24 7 39 6 38 -1 0 -12 -4 -24 -9z"/>
<path d="M830 825 c0 -3 2 -5 5 -5 3 0 5 2 5 5 0 3 -2 5 -5 5 -3 0 -5 -2 -5
-5z"/>
<path d="M230 805 c0 -3 2 -5 5 -5 3 0 5 2 5 5 0 3 -2 5 -5 5 -3 0 -5 -2 -5
-5z"/>
<path d="M550 795 c0 -3 2 -5 5 -5 3 0 5 2 5 5 0 3 -2 5 -5 5 -3 0 -5 -2 -5
-5z"/>
<path d="M490 785 c0 -3 2 -5 5 -5 3 0 5 2 5 5 0 3 -2 5 -5 5 -3 0 -5 -2 -5
-5z"/>
<path d="M510 779 c0 -5 5 -7 10 -4 6 3 10 8 10 11 0 2 -4 4 -10 4 -5 0 -10
-5 -10 -11z"/>
<path d="M600 764 c0 -8 5 -12 10 -9 6 4 8 11 5 16 -9 14 -15 11 -15 -7z"/>
<path d="M204 758 c-4 -7 -3 -8 4 -4 12 7 16 16 8 16 -3 0 -8 -5 -12 -12z"/>
<path d="M519 753 c-13 -16 -12 -17 4 -4 9 7 17 15 17 17 0 8 -8 3 -21 -13z"/>
<path d="M86 741 c-3 -4 1 -17 10 -27 14 -18 14 -17 3 5 -10 21 -9 23 5 18 9
-4 16 -2 16 3 0 12 -27 13 -34 1z"/>
<path d="M187 739 c7 -7 15 -10 18 -7 3 3 -2 9 -12 12 -14 6 -15 5 -6 -5z"/>
<path d="M374 741 c4 -5 1 -12 -4 -14 -6 -3 -5 -4 2 -3 15 3 23 26 8 26 -6 0
-9 -4 -6 -9z"/>
<path d="M626 705 c-4 -25 -12 -45 -18 -45 -5 0 -8 7 -4 15 3 8 1 15 -5 15 -5
0 -12 -7 -15 -15 -9 -22 -24 -18 -24 6 0 18 -2 19 -15 9 -13 -11 -14 -10 -9 4
5 12 2 15 -10 10 -11 -4 -15 -13 -11 -25 8 -25 -23 -26 -41 -1 -13 16 -13 16
-14 -2 0 -14 -5 -17 -25 -12 -18 5 -25 2 -25 -9 0 -13 19 -15 115 -15 l115 0
0 55 c0 30 -2 55 -4 55 -2 0 -7 -20 -10 -45z"/>
<path d="M685 741 c-3 -5 -2 -12 3 -15 5 -3 9 1 9 9 0 17 -3 19 -12 6z"/>
<path d="M305 720 c2 -11 1 -19 -3 -19 -21 3 -31 -3 -26 -15 3 -9 12 -12 21
-9 11 4 14 2 9 -5 -4 -7 -20 -12 -37 -12 -28 0 -36 15 -30 53 0 4 -4 7 -9 7
-5 0 -10 -12 -11 -27 l-1 -28 -7 25 c-6 22 -8 23 -14 7 -4 -11 -4 -24 0 -29 3
-6 1 -8 -5 -4 -6 3 -13 3 -16 -2 -6 -11 -66 -3 -63 8 1 4 -2 8 -8 9 -5 1 -10
-7 -10 -16 0 -16 13 -18 113 -21 l112 -3 0 51 c0 27 -4 50 -9 50 -6 0 -8 -9
-6 -20z m-195 -45 c0 -3 -2 -5 -5 -5 -3 0 -5 2 -5 5 0 3 2 5 5 5 3 0 5 -2 5
-5z"/>
<path d="M950 719 c0 -11 -4 -17 -10 -14 -6 4 -7 -1 -3 -11 4 -12 3 -15 -6
-10 -7 5 -21 0 -32 -10 -18 -16 -19 -16 -19 2 0 15 -2 16 -9 5 -7 -11 -10 -11
-12 3 -4 16 -6 15 -26 -3 -12 -12 -30 -21 -39 -21 -14 0 -15 2 -3 17 12 14 10
14 -14 -2 -15 -10 -27 -13 -25 -7 2 5 -1 10 -7 11 -5 1 -10 -7 -10 -16 0 -16
12 -18 110 -18 l110 0 3 48 c2 26 1 47 -2 47 -3 0 -6 -9 -6 -21z m-3 -54 c0
-7 -10 -10 -24 -7 -12 2 -20 8 -18 13 8 12 42 7 42 -6z m-97 0 c0 -3 -2 -5 -5
-5 -3 0 -5 2 -5 5 0 3 2 5 5 5 3 0 5 -2 5 -5z"/>
<path d="M401 714 c0 -11 3 -14 6 -6 3 7 2 16 -1 19 -3 4 -6 -2 -5 -13z"/>
<path d="M70 715 c0 -3 2 -5 5 -5 3 0 5 2 5 5 0 3 -2 5 -5 5 -3 0 -5 -2 -5 -5z"/>
<path d="M250 715 c0 -3 2 -5 5 -5 3 0 5 2 5 5 0 3 -2 5 -5 5 -3 0 -5 -2 -5
-5z"/>
<path d="M430 715 c0 -3 2 -5 5 -5 3 0 5 2 5 5 0 3 -2 5 -5 5 -3 0 -5 -2 -5
-5z"/>
<path d="M605 710 c3 -5 8 -10 11 -10 3 0 2 5 -1 10 -3 6 -8 10 -11 10 -3 0
-2 -4 1 -10z"/>
<path d="M733 713 c4 -3 10 -3 14 0 3 4 0 7 -7 7 -7 0 -10 -3 -7 -7z"/>
<path d="M840 715 c0 -3 2 -5 5 -5 3 0 5 2 5 5 0 3 -2 5 -5 5 -3 0 -5 -2 -5
-5z"/>
<path d="M865 710 c3 -5 8 -10 11 -10 2 0 4 5 4 10 0 6 -5 10 -11 10 -5 0 -7
-4 -4 -10z"/>
<path d="M900 715 c0 -3 2 -5 5 -5 3 0 5 2 5 5 0 3 -2 5 -5 5 -3 0 -5 -2 -5
-5z"/>
<path d="M720 695 c0 -3 2 -5 5 -5 3 0 5 2 5 5 0 3 -2 5 -5 5 -3 0 -5 -2 -5
-5z"/>
<path d="M144 678 c-4 -7 -3 -8 4 -4 12 7 16 16 8 16 -3 0 -8 -5 -12 -12z"/>
<path d="M420 685 c0 -3 2 -5 5 -5 3 0 5 2 5 5 0 3 -2 5 -5 5 -3 0 -5 -2 -5
-5z"/>
<path d="M343 660 c-1 -12 4 -20 13 -20 12 0 12 4 4 20 -6 11 -12 20 -13 20
-2 0 -3 -9 -4 -20z"/>
<path d="M666 659 c-19 -19 -19 -19 7 -19 28 0 32 6 19 26 -5 8 -13 5 -26 -7z"/>
<path d="M710 675 c0 -3 2 -5 5 -5 3 0 5 2 5 5 0 3 -2 5 -5 5 -3 0 -5 -2 -5
-5z"/>
<path d="M305 610 c3 -5 8 -10 11 -10 2 0 4 5 4 10 0 6 -5 10 -11 10 -5 0 -7
-4 -4 -10z"/>
<path d="M900 615 c0 -3 2 -5 5 -5 3 0 5 2 5 5 0 3 -2 5 -5 5 -3 0 -5 -2 -5
-5z"/>
<path d="M950 615 c0 -3 2 -5 5 -5 3 0 5 2 5 5 0 3 -2 5 -5 5 -3 0 -5 -2 -5
-5z"/>
<path d="M140 605 c0 -3 2 -5 5 -5 3 0 5 2 5 5 0 3 -2 5 -5 5 -3 0 -5 -2 -5
-5z"/>
<path d="M880 605 c0 -3 2 -5 5 -5 3 0 5 2 5 5 0 3 -2 5 -5 5 -3 0 -5 -2 -5
-5z"/>
<path d="M630 595 c0 -3 2 -5 5 -5 3 0 5 2 5 5 0 3 -2 5 -5 5 -3 0 -5 -2 -5
-5z"/>
<path d="M945 590 c-3 -5 -4 -14 -1 -19 3 -5 -1 -14 -9 -21 -15 -13 -10 -35 6
-25 5 4 9 -1 9 -9 0 -9 -3 -15 -7 -13 -5 1 -9 -2 -9 -8 -1 -5 3 -9 8 -7 6 2 8
-7 4 -23 -4 -17 -3 -24 3 -21 8 6 13 156 5 156 -1 0 -6 -4 -9 -10z m5 -44 c0
-3 -5 -8 -12 -12 -7 -4 -8 -3 -4 4 7 12 16 16 16 8z m-10 -51 c0 -3 -2 -5 -5
-5 -3 0 -5 2 -5 5 0 3 2 5 5 5 3 0 5 -2 5 -5z"/>
<path d="M150 585 c0 -3 2 -5 5 -5 3 0 5 2 5 5 0 3 -2 5 -5 5 -3 0 -5 -2 -5
-5z"/>
<path d="M304 568 c1 -13 -6 -34 -16 -47 -21 -28 -23 -44 -5 -38 6 2 12 9 12
16 0 6 5 15 10 19 12 8 17 72 6 72 -5 0 -8 -10 -7 -22z m-14 -73 c0 -3 -2 -5
-5 -5 -3 0 -5 2 -5 5 0 3 2 5 5 5 3 0 5 -2 5 -5z"/>
<path d="M805 580 c3 -5 8 -10 11 -10 2 0 4 5 4 10 0 6 -5 10 -11 10 -5 0 -7
-4 -4 -10z"/>
<path d="M910 585 c0 -3 2 -5 5 -5 3 0 5 2 5 5 0 3 -2 5 -5 5 -3 0 -5 -2 -5
-5z"/>
<path d="M200 575 c0 -3 2 -5 5 -5 3 0 5 2 5 5 0 3 -2 5 -5 5 -3 0 -5 -2 -5
-5z"/>
<path d="M260 575 c0 -3 2 -5 5 -5 3 0 5 2 5 5 0 3 -2 5 -5 5 -3 0 -5 -2 -5
-5z"/>
<path d="M440 575 c0 -3 2 -5 5 -5 3 0 5 2 5 5 0 3 -2 5 -5 5 -3 0 -5 -2 -5
-5z"/>
<path d="M620 561 c0 -11 -4 -23 -10 -26 -16 -10 -11 -24 8 -22 13 1 18 9 18
34 0 18 -4 33 -8 33 -4 0 -8 -9 -8 -19z m0 -36 c0 -3 -2 -5 -5 -5 -3 0 -5 2
-5 5 0 3 2 5 5 5 3 0 5 -2 5 -5z"/>
<path d="M180 555 c0 -3 2 -5 5 -5 3 0 5 2 5 5 0 3 -2 5 -5 5 -3 0 -5 -2 -5
-5z"/>
<path d="M220 551 c0 -6 4 -13 10 -16 6 -3 7 1 4 9 -7 18 -14 21 -14 7z"/>
<path d="M493 553 c4 -3 10 -3 14 0 3 4 0 7 -7 7 -7 0 -10 -3 -7 -7z"/>
<path d="M550 555 c0 -3 2 -5 5 -5 3 0 5 2 5 5 0 3 -2 5 -5 5 -3 0 -5 -2 -5
-5z"/>
<path d="M820 550 c0 -7 3 -10 7 -7 3 4 3 10 0 14 -4 3 -7 0 -7 -7z"/>
<path d="M200 545 c0 -3 2 -5 5 -5 3 0 5 2 5 5 0 3 -2 5 -5 5 -3 0 -5 -2 -5
-5z"/>
<path d="M525 540 c3 -5 11 -10 16 -10 6 0 7 5 4 10 -3 6 -11 10 -16 10 -6 0
-7 -4 -4 -10z"/>
<path d="M840 545 c0 -3 2 -5 5 -5 3 0 5 2 5 5 0 3 -2 5 -5 5 -3 0 -5 -2 -5
-5z"/>
<path d="M863 538 c3 -9 1 -19 -6 -22 -9 -3 -8 -5 1 -5 7 -1 10 -6 6 -12 -4
-8 0 -8 15 0 25 14 28 23 4 14 -9 -4 -14 -2 -10 3 3 6 1 16 -5 24 -8 12 -9 12
-5 -2z"/>
<path d="M880 545 c0 -3 2 -5 5 -5 3 0 5 2 5 5 0 3 -2 5 -5 5 -3 0 -5 -2 -5
-5z"/>
<path d="M565 530 c-3 -5 -1 -10 4 -10 6 0 11 5 11 10 0 6 -2 10 -4 10 -3 0
-8 -4 -11 -10z"/>
<path d="M190 515 c0 -3 2 -5 5 -5 3 0 5 2 5 5 0 3 -2 5 -5 5 -3 0 -5 -2 -5
-5z"/>
<path d="M540 515 c0 -3 2 -5 5 -5 3 0 5 2 5 5 0 3 -2 5 -5 5 -3 0 -5 -2 -5
-5z"/>
<path d="M800 515 c0 -3 2 -5 5 -5 3 0 5 2 5 5 0 3 -2 5 -5 5 -3 0 -5 -2 -5
-5z"/>
<path d="M143 503 c4 -3 10 -3 14 0 3 4 0 7 -7 7 -7 0 -10 -3 -7 -7z"/>
<path d="M170 505 c0 -3 2 -5 5 -5 3 0 5 2 5 5 0 3 -2 5 -5 5 -3 0 -5 -2 -5
-5z"/>
<path d="M305 488 c1 -13 -2 -26 -7 -29 -5 -3 -2 -11 6 -18 13 -11 15 -7 14
28 0 23 -4 41 -8 41 -3 0 -6 -10 -5 -22z"/>
<path d="M510 500 c0 -7 3 -10 7 -7 3 4 3 10 0 14 -4 3 -7 0 -7 -7z"/>
<path d="M830 505 c0 -3 2 -5 5 -5 3 0 5 2 5 5 0 3 -2 5 -5 5 -3 0 -5 -2 -5
-5z"/>
<path d="M200 495 c0 -3 2 -5 5 -5 3 0 5 2 5 5 0 3 -2 5 -5 5 -3 0 -5 -2 -5
-5z"/>
<path d="M220 495 c0 -3 2 -5 5 -5 3 0 5 2 5 5 0 3 -2 5 -5 5 -3 0 -5 -2 -5
-5z"/>
<path d="M540 495 c0 -3 2 -5 5 -5 3 0 5 2 5 5 0 3 -2 5 -5 5 -3 0 -5 -2 -5
-5z"/>
<path d="M575 490 c4 -6 15 -8 26 -5 14 5 22 0 29 -17 l10 -23 -3 25 c-2 20
-8 26 -36 28 -22 2 -31 0 -26 -8z"/>
<path d="M150 485 c0 -3 2 -5 5 -5 3 0 5 2 5 5 0 3 -2 5 -5 5 -3 0 -5 -2 -5
-5z"/>
<path d="M500 465 c0 -3 2 -5 5 -5 3 0 5 2 5 5 0 3 -2 5 -5 5 -3 0 -5 -2 -5
-5z"/>
<path d="M520 465 c0 -3 2 -5 5 -5 3 0 5 2 5 5 0 3 -2 5 -5 5 -3 0 -5 -2 -5
-5z"/>
<path d="M600 455 c0 -8 4 -15 10 -15 5 0 7 7 4 15 -4 8 -8 15 -10 15 -2 0 -4
-7 -4 -15z"/>
<path d="M200 440 c0 -7 3 -10 7 -7 3 4 3 10 0 14 -4 3 -7 0 -7 -7z"/>
<path d="M515 440 c3 -5 8 -10 11 -10 3 0 2 5 -1 10 -3 6 -8 10 -11 10 -3 0
-2 -4 1 -10z"/>
<path d="M630 409 c0 -16 -4 -28 -9 -25 -4 3 -6 -6 -3 -19 2 -15 0 -25 -7 -25
-7 0 -10 4 -6 9 3 5 1 12 -5 16 -6 3 -13 -1 -16 -9 -9 -23 -24 -20 -24 5 0 18
-2 19 -15 9 -13 -11 -14 -10 -9 4 5 12 2 15 -10 10 -11 -4 -15 -13 -11 -25 8
-25 -23 -26 -41 -1 -13 16 -13 16 -14 -2 0 -14 -5 -17 -25 -12 -18 5 -25 2
-25 -9 0 -13 19 -15 115 -15 l115 0 0 60 c0 33 -2 60 -5 60 -3 0 -5 -14 -5
-31z"/>
<path d="M374 421 c4 -5 1 -12 -4 -14 -6 -3 -5 -4 2 -3 15 3 23 26 8 26 -6 0
-9 -4 -6 -9z"/>
<path d="M685 421 c-3 -5 -2 -12 3 -15 5 -3 9 1 9 9 0 17 -3 19 -12 6z"/>
<path d="M90 415 c0 -3 2 -5 5 -5 3 0 5 2 5 5 0 3 -2 5 -5 5 -3 0 -5 -2 -5 -5z"/>
<path d="M270 415 c0 -3 2 -5 5 -5 3 0 5 2 5 5 0 3 -2 5 -5 5 -3 0 -5 -2 -5
-5z"/>
<path d="M520 415 c0 -3 2 -5 5 -5 3 0 5 2 5 5 0 3 -2 5 -5 5 -3 0 -5 -2 -5
-5z"/>
<path d="M947 393 c-3 -16 -1 -32 4 -37 5 -6 9 4 9 27 0 44 -6 48 -13 10z"/>
<path d="M401 394 c0 -11 3 -14 6 -6 3 7 2 16 -1 19 -3 4 -6 -2 -5 -13z"/>
<path d="M51 384 c6 -7 17 -10 25 -7 22 8 16 19 -11 19 -18 0 -22 -3 -14 -12z"/>
<path d="M250 395 c0 -3 2 -5 5 -5 3 0 5 2 5 5 0 3 -2 5 -5 5 -3 0 -5 -2 -5
-5z"/>
<path d="M309 398 c-7 -25 -7 -48 1 -53 6 -4 10 7 10 24 0 17 -2 31 -5 31 -3
0 -5 -1 -6 -2z"/>
<path d="M430 395 c0 -3 2 -5 5 -5 3 0 5 2 5 5 0 3 -2 5 -5 5 -3 0 -5 -2 -5
-5z"/>
<path d="M580 395 c0 -3 2 -5 5 -5 3 0 5 2 5 5 0 3 -2 5 -5 5 -3 0 -5 -2 -5
-5z"/>
<path d="M720 395 c0 -3 2 -5 5 -5 3 0 5 2 5 5 0 3 -2 5 -5 5 -3 0 -5 -2 -5
-5z"/>
<path d="M873 393 c4 -3 10 -3 14 0 3 4 0 7 -7 7 -7 0 -10 -3 -7 -7z"/>
<path d="M920 390 c0 -7 3 -10 7 -7 3 4 3 10 0 14 -4 3 -7 0 -7 -7z"/>
<path d="M110 385 c0 -3 2 -5 5 -5 3 0 5 2 5 5 0 3 -2 5 -5 5 -3 0 -5 -2 -5
-5z"/>
<path d="M740 385 c0 -3 2 -5 5 -5 3 0 5 2 5 5 0 3 -2 5 -5 5 -3 0 -5 -2 -5
-5z"/>
<path d="M847 383 c-10 -9 -9 -23 1 -23 5 0 9 7 9 15 0 17 -1 18 -10 8z"/>
<path d="M191 373 c-1 -7 -8 -13 -17 -13 -8 0 -13 -4 -10 -9 7 -10 -13 -9 -31
2 -6 4 -15 2 -18 -4 -4 -5 -14 -8 -22 -4 -13 4 -14 3 -3 -10 9 -11 34 -15 106
-15 51 0 96 4 99 10 3 6 -5 10 -19 10 -35 0 -57 10 -49 23 4 6 0 8 -10 4 -9
-3 -18 -1 -21 6 -3 9 -5 9 -5 0z m6 -30 c-4 -3 -10 -3 -14 0 -3 4 0 7 7 7 7 0
10 -3 7 -7z"/>
<path d="M275 370 c3 -5 8 -10 11 -10 2 0 4 5 4 10 0 6 -5 10 -11 10 -5 0 -7
-4 -4 -10z"/>
<path d="M38 345 c2 -14 8 -25 13 -25 14 0 11 26 -5 39 -11 9 -12 6 -8 -14z"/>
<path d="M100 360 c0 -7 3 -10 7 -7 3 4 3 10 0 14 -4 3 -7 0 -7 -7z"/>
<path d="M420 365 c0 -3 2 -5 5 -5 3 0 5 2 5 5 0 3 -2 5 -5 5 -3 0 -5 -2 -5
-5z"/>
<path d="M735 360 c-4 -6 -12 -7 -18 -3 -7 3 -3 -3 7 -15 17 -20 29 -22 118
-22 59 0 98 4 98 10 0 6 -13 10 -30 10 -21 0 -30 5 -30 16 0 8 -5 12 -10 9 -6
-4 -7 -11 -4 -17 4 -5 -4 -4 -17 2 -17 10 -24 10 -27 1 -2 -6 -13 -11 -24 -11
-18 0 -19 2 -7 17 13 16 13 16 -11 0 -13 -9 -29 -17 -35 -17 -5 0 -4 4 4 9 8
5 9 11 3 15 -6 3 -13 2 -17 -4z"/>
<path d="M140 355 c0 -3 2 -5 5 -5 3 0 5 2 5 5 0 3 -2 5 -5 5 -3 0 -5 -2 -5
-5z"/>
<path d="M343 340 c-1 -12 4 -20 13 -20 12 0 12 4 4 20 -6 11 -12 20 -13 20
-2 0 -3 -9 -4 -20z"/>
<path d="M900 355 c0 -3 2 -5 5 -5 3 0 5 2 5 5 0 3 -2 5 -5 5 -3 0 -5 -2 -5
-5z"/>
<path d="M664 335 c-18 -14 -18 -14 9 -15 15 0 27 4 27 9 0 18 -17 20 -36 6z"/>
<path d="M70 325 c0 -3 2 -5 5 -5 3 0 5 2 5 5 0 3 -2 5 -5 5 -3 0 -5 -2 -5 -5z"/>
<path d="M580 295 c0 -3 2 -5 5 -5 3 0 5 2 5 5 0 3 -2 5 -5 5 -3 0 -5 -2 -5
-5z"/>
<path d="M630 295 c0 -3 2 -5 5 -5 3 0 5 2 5 5 0 3 -2 5 -5 5 -3 0 -5 -2 -5
-5z"/>
<path d="M560 285 c0 -3 2 -5 5 -5 3 0 5 2 5 5 0 3 -2 5 -5 5 -3 0 -5 -2 -5
-5z"/>
<path d="M310 275 c0 -3 2 -5 5 -5 3 0 5 2 5 5 0 3 -2 5 -5 5 -3 0 -5 -2 -5
-5z"/>
<path d="M625 270 c-3 -5 -4 -14 -1 -19 3 -5 -1 -14 -9 -21 -15 -13 -10 -35 6
-25 5 4 9 -1 9 -9 0 -9 -3 -15 -7 -13 -5 1 -9 -2 -9 -8 -1 -5 3 -9 8 -7 6 2 8
-7 4 -23 -4 -17 -3 -24 3 -21 8 6 13 156 5 156 -1 0 -6 -4 -9 -10z m5 -44 c0
-3 -5 -8 -12 -12 -7 -4 -8 -3 -4 4 7 12 16 16 16 8z m-10 -51 c0 -3 -2 -5 -5
-5 -3 0 -5 2 -5 5 0 3 2 5 5 5 3 0 5 -2 5 -5z"/>
<path d="M950 275 c0 -3 2 -5 5 -5 3 0 5 2 5 5 0 3 -2 5 -5 5 -3 0 -5 -2 -5
-5z"/>
<path d="M260 265 c0 -3 2 -5 5 -5 3 0 5 2 5 5 0 3 -2 5 -5 5 -3 0 -5 -2 -5
-5z"/>
<path d="M485 260 c3 -5 8 -10 11 -10 2 0 4 5 4 10 0 6 -5 10 -11 10 -5 0 -7
-4 -4 -10z"/>
<path d="M590 265 c0 -3 2 -5 5 -5 3 0 5 2 5 5 0 3 -2 5 -5 5 -3 0 -5 -2 -5
-5z"/>
<path d="M900 265 c0 -3 2 -5 5 -5 3 0 5 2 5 5 0 3 -2 5 -5 5 -3 0 -5 -2 -5
-5z"/>
<path d="M120 255 c0 -3 2 -5 5 -5 3 0 5 2 5 5 0 3 -2 5 -5 5 -3 0 -5 -2 -5
-5z"/>
<path d="M307 198 c7 -85 15 -88 12 -5 -1 37 -5 67 -9 67 -4 0 -5 -28 -3 -62z"/>
<path d="M947 198 c7 -85 15 -88 12 -5 -1 37 -5 67 -9 67 -4 0 -5 -28 -3 -62z"/>
<path d="M270 245 c0 -3 2 -5 5 -5 3 0 5 2 5 5 0 3 -2 5 -5 5 -3 0 -5 -2 -5
-5z"/>
<path d="M910 245 c0 -3 2 -5 5 -5 3 0 5 2 5 5 0 3 -2 5 -5 5 -3 0 -5 -2 -5
-5z"/>
<path d="M160 235 c0 -3 2 -5 5 -5 3 0 5 2 5 5 0 3 -2 5 -5 5 -3 0 -5 -2 -5
-5z"/>
<path d="M184 228 c-3 -5 -2 -8 3 -7 20 3 34 -2 28 -11 -4 -6 -3 -10 2 -9 4 1
15 1 23 0 13 -1 13 -2 0 -12 -10 -7 -11 -9 -2 -7 8 2 13 7 12 12 -1 5 4 13 12
17 9 6 5 8 -12 7 -14 -2 -24 2 -23 7 2 13 -36 14 -43 3z"/>
<path d="M500 230 c0 -7 3 -10 7 -7 3 4 3 10 0 14 -4 3 -7 0 -7 -7z"/>
<path d="M800 235 c0 -3 2 -5 5 -5 3 0 5 2 5 5 0 3 -2 5 -5 5 -3 0 -5 -2 -5
-5z"/>
<path d="M824 228 c-3 -5 -2 -8 3 -7 20 3 34 -2 28 -11 -4 -6 -3 -10 2 -9 4 1
15 1 23 0 13 -1 13 -2 0 -12 -10 -7 -11 -9 -2 -7 8 2 13 7 12 12 -1 5 4 13 12
17 9 6 5 8 -12 7 -14 -2 -24 2 -23 7 2 13 -36 14 -43 3z"/>
<path d="M287 223 c-10 -9 -9 -23 1 -23 5 0 9 7 9 15 0 17 -1 18 -10 8z"/>
<path d="M520 225 c0 -3 2 -5 5 -5 3 0 5 2 5 5 0 3 -2 5 -5 5 -3 0 -5 -2 -5
-5z"/>
<path d="M543 218 c3 -9 1 -19 -6 -22 -9 -3 -8 -5 1 -5 7 -1 10 -6 6 -12 -4
-8 0 -8 15 0 25 14 28 23 4 14 -9 -4 -14 -2 -10 3 3 6 1 16 -5 24 -8 12 -9 12
-5 -2z"/>
<path d="M560 225 c0 -3 2 -5 5 -5 3 0 5 2 5 5 0 3 -2 5 -5 5 -3 0 -5 -2 -5
-5z"/>
<path d="M927 223 c-10 -9 -9 -23 1 -23 5 0 9 7 9 15 0 17 -1 18 -10 8z"/>
<path d="M480 195 c0 -3 2 -5 5 -5 3 0 5 2 5 5 0 3 -2 5 -5 5 -3 0 -5 -2 -5
-5z"/>
<path d="M170 185 c0 -3 2 -5 5 -5 3 0 5 2 5 5 0 3 -2 5 -5 5 -3 0 -5 -2 -5
-5z"/>
<path d="M200 180 c0 -7 3 -10 7 -7 3 4 3 10 0 14 -4 3 -7 0 -7 -7z"/>
<path d="M273 180 c-13 -5 -23 -13 -23 -16 0 -4 3 -4 7 -1 3 4 12 2 20 -4 7
-6 13 -10 14 -8 5 24 7 39 6 38 -1 0 -12 -4 -24 -9z"/>
<path d="M510 185 c0 -3 2 -5 5 -5 3 0 5 2 5 5 0 3 -2 5 -5 5 -3 0 -5 -2 -5
-5z"/>
<path d="M810 185 c0 -3 2 -5 5 -5 3 0 5 2 5 5 0 3 -2 5 -5 5 -3 0 -5 -2 -5
-5z"/>
<path d="M840 180 c0 -7 3 -10 7 -7 3 4 3 10 0 14 -4 3 -7 0 -7 -7z"/>
<path d="M913 180 c-13 -5 -23 -13 -23 -16 0 -4 3 -4 7 -1 3 4 12 2 20 -4 7
-6 13 -10 14 -8 5 24 7 39 6 38 -1 0 -12 -4 -24 -9z"/>
<path d="M230 155 c0 -3 2 -5 5 -5 3 0 5 2 5 5 0 3 -2 5 -5 5 -3 0 -5 -2 -5
-5z"/>
<path d="M870 155 c0 -3 2 -5 5 -5 3 0 5 2 5 5 0 3 -2 5 -5 5 -3 0 -5 -2 -5
-5z"/>
<path d="M170 145 c0 -3 2 -5 5 -5 3 0 5 2 5 5 0 3 -2 5 -5 5 -3 0 -5 -2 -5
-5z"/>
<path d="M190 139 c0 -5 5 -7 10 -4 6 3 10 8 10 11 0 2 -4 4 -10 4 -5 0 -10
-5 -10 -11z"/>
<path d="M810 145 c0 -3 2 -5 5 -5 3 0 5 2 5 5 0 3 -2 5 -5 5 -3 0 -5 -2 -5
-5z"/>
<path d="M830 139 c0 -5 5 -7 10 -4 6 3 10 8 10 11 0 2 -4 4 -10 4 -5 0 -10
-5 -10 -11z"/>
<path d="M280 124 c0 -8 5 -12 10 -9 6 4 8 11 5 16 -9 14 -15 11 -15 -7z"/>
<path d="M920 124 c0 -8 5 -12 10 -9 6 4 8 11 5 16 -9 14 -15 11 -15 -7z"/>
<path d="M199 113 c-13 -16 -12 -17 4 -4 16 13 21 21 13 21 -2 0 -10 -8 -17
-17z"/>
<path d="M839 113 c-13 -16 -12 -17 4 -4 16 13 21 21 13 21 -2 0 -10 -8 -17
-17z"/>
<path d="M54 101 c4 -5 1 -12 -4 -14 -6 -3 -5 -4 2 -3 15 3 23 26 8 26 -6 0
-9 -4 -6 -9z"/>
<path d="M306 65 c-4 -25 -12 -45 -18 -45 -5 0 -8 7 -4 15 3 8 1 15 -5 15 -5
0 -12 -7 -15 -15 -9 -22 -24 -18 -24 6 0 18 -2 19 -15 9 -13 -11 -14 -10 -9 4
5 12 2 15 -10 10 -11 -4 -15 -13 -11 -25 8 -25 -23 -26 -41 -1 -13 16 -13 16
-14 -2 0 -14 -5 -17 -25 -12 -18 5 -25 2 -25 -9 0 -13 19 -15 115 -15 l115 0
0 55 c0 30 -2 55 -4 55 -2 0 -7 -20 -10 -45z"/>
<path d="M365 101 c-3 -5 -2 -12 3 -15 5 -3 9 1 9 9 0 17 -3 19 -12 6z"/>
<path d="M694 101 c4 -5 1 -12 -4 -14 -6 -3 -5 -4 2 -3 15 3 23 26 8 26 -6 0
-9 -4 -6 -9z"/>
<path d="M946 65 c-4 -25 -12 -45 -18 -45 -5 0 -8 7 -4 15 3 8 1 15 -5 15 -5
0 -12 -7 -15 -15 -9 -22 -24 -18 -24 6 0 18 -2 19 -15 9 -13 -11 -14 -10 -9 4
5 12 2 15 -10 10 -11 -4 -15 -13 -11 -25 8 -25 -23 -26 -41 -1 -13 16 -13 16
-14 -2 0 -14 -5 -17 -25 -12 -18 5 -25 2 -25 -9 0 -13 19 -15 115 -15 l115 0
0 55 c0 30 -2 55 -4 55 -2 0 -7 -20 -10 -45z"/>
<path d="M627 73 c-3 -16 -1 -32 4 -38 5 -5 9 5 9 28 0 44 -6 48 -13 10z"/>
<path d="M81 74 c0 -11 3 -14 6 -6 3 7 2 16 -1 19 -3 4 -6 -2 -5 -13z"/>
<path d="M721 74 c0 -11 3 -14 6 -6 3 7 2 16 -1 19 -3 4 -6 -2 -5 -13z"/>
<path d="M110 75 c0 -3 2 -5 5 -5 3 0 5 2 5 5 0 3 -2 5 -5 5 -3 0 -5 -2 -5 -5z"/>
<path d="M285 70 c3 -5 8 -10 11 -10 3 0 2 5 -1 10 -3 6 -8 10 -11 10 -3 0 -2
-4 1 -10z"/>
<path d="M400 75 c0 -3 2 -5 5 -5 3 0 5 2 5 5 0 3 -2 5 -5 5 -3 0 -5 -2 -5 -5z"/>
<path d="M553 73 c4 -3 10 -3 14 0 3 4 0 7 -7 7 -7 0 -10 -3 -7 -7z"/>
<path d="M600 70 c0 -7 3 -10 7 -7 3 4 3 10 0 14 -4 3 -7 0 -7 -7z"/>
<path d="M750 75 c0 -3 2 -5 5 -5 3 0 5 2 5 5 0 3 -2 5 -5 5 -3 0 -5 -2 -5 -5z"/>
<path d="M925 70 c3 -5 8 -10 11 -10 3 0 2 5 -1 10 -3 6 -8 10 -11 10 -3 0 -2
-4 1 -10z"/>
<path d="M420 65 c0 -3 2 -5 5 -5 3 0 5 2 5 5 0 3 -2 5 -5 5 -3 0 -5 -2 -5 -5z"/>
<path d="M527 63 c-10 -9 -9 -23 1 -23 5 0 9 7 9 15 0 17 -1 18 -10 8z"/>
<path d="M100 45 c0 -3 2 -5 5 -5 3 0 5 2 5 5 0 3 -2 5 -5 5 -3 0 -5 -2 -5 -5z"/>
<path d="M415 40 c-4 -6 -12 -7 -18 -3 -7 3 -3 -3 7 -15 17 -20 29 -22 118
-22 59 0 98 4 98 10 0 6 -13 10 -30 10 -21 0 -30 5 -30 16 0 8 -5 12 -10 9 -6
-4 -7 -11 -4 -17 4 -5 -4 -4 -17 2 -17 10 -24 10 -27 1 -2 -6 -13 -11 -24 -11
-18 0 -19 2 -7 17 13 16 13 16 -11 0 -13 -9 -29 -17 -35 -17 -5 0 -4 4 4 9 8
5 9 11 3 15 -6 3 -13 2 -17 -4z"/>
<path d="M740 45 c0 -3 2 -5 5 -5 3 0 5 2 5 5 0 3 -2 5 -5 5 -3 0 -5 -2 -5 -5z"/>
<path d="M23 20 c-1 -12 4 -20 13 -20 12 0 12 4 4 20 -6 11 -12 20 -13 20 -2
0 -3 -9 -4 -20z"/>
<path d="M580 35 c0 -3 2 -5 5 -5 3 0 5 2 5 5 0 3 -2 5 -5 5 -3 0 -5 -2 -5 -5z"/>
<path d="M663 20 c-1 -12 4 -20 13 -20 12 0 12 4 4 20 -6 11 -12 20 -13 20 -2
0 -3 -9 -4 -20z"/>
<path d="M344 15 c-18 -14 -18 -14 9 -15 15 0 27 4 27 9 0 18 -17 20 -36 6z"/>
</g>
  </g>
</svg>
