<?xml version="1.0" encoding="UTF-8" standalone="no"?>
<!-- Created with Inkscape (http://www.inkscape.org/) -->

<svg
   xmlns:dc="http://purl.org/dc/elements/1.1/"
   xmlns:cc="http://creativecommons.org/ns#"
   xmlns:rdf="http://www.w3.org/1999/02/22-rdf-syntax-ns#"
   xmlns:svg="http://www.w3.org/2000/svg"
   xmlns="http://www.w3.org/2000/svg"
   xmlns:sodipodi="http://sodipodi.sourceforge.net/DTD/sodipodi-0.dtd"
   xmlns:inkscape="http://www.inkscape.org/namespaces/inkscape"
   width="32px"
   height="32px"
   viewBox="0 0 32px 32px"
   version="1.1"
   id="svgMain"
   inkscape:version="0.92.2 (5c3e80d, 2017-08-06)"
   sodipodi:docname="reference_SVG.svg">
  <defs
     id="defs4542" />
  <sodipodi:namedview
     id="base"
     pagecolor="#ffffff"
     bordercolor="#666666"
     borderopacity="1.0"
     inkscape:pageopacity="0.0"
     inkscape:pageshadow="2"
     inkscape:zoom="1"
     inkscape:cx="0"
     inkscape:cy="0"
     inkscape:document-units="px"
     inkscape:current-layer="layer1"
     showgrid="false"
     units="px"
     inkscape:window-width="1024"
     inkscape:window-height="768"
     inkscape:window-x="-8"
     inkscape:window-y="-8"
     inkscape:window-maximized="1" />
  <metadata
     id="metadata1">
    <rdf:RDF>
      <cc:Work
         rdf:about="">
        <dc:format>image/svg+xml</dc:format>
        <dc:type
           rdf:resource="http://purl.org/dc/dcmitype/StillImage" />
        <dc:title />
      </cc:Work>
    </rdf:RDF>
  </metadata>
  <g transform="translate(-32,-32)"
     inkscape:label="Layer 1"
     inkscape:groupmode="layer"
     id="layer1">
    <!-- INSERT MARKER -->
<g transform="translate(0.000000,96.000000) scale(0.100000,-0.100000)"
fill="#1c2933" stroke="none">
<path d="M0 480 l0 -480 480 0 480 0 0 480 0 480 -480 0 -480 0 0 -480z m40
450 c0 -5 -4 -10 -10 -10 -5 0 -10 5 -10 10 0 6 5 10 10 10 6 0 10 -4 10 -10z
m60 0 c0 -5 -9 -10 -20 -10 -11 0 -20 5 -20 10 0 6 9 10 20 10 11 0 20 -4 20
-10z m100 0 c0 -5 -18 -10 -40 -10 -22 0 -40 5 -40 10 0 6 18 10 40 10 22 0
40 -4 40 -10z m60 0 c0 -5 -9 -10 -20 -10 -11 0 -20 5 -20 10 0 6 9 10 20 10
11 0 20 -4 20 -10z m40 0 c0 -5 -4 -10 -10 -10 -5 0 -10 5 -10 10 0 6 5 10 10
10 6 0 10 -4 10 -10z m60 0 c0 -5 -4 -10 -10 -10 -5 0 -10 5 -10 10 0 6 5 10
10 10 6 0 10 -4 10 -10z m60 0 c0 -5 -9 -10 -20 -10 -11 0 -20 5 -20 10 0 6 9
10 20 10 11 0 20 -4 20 -10z m100 0 c0 -5 -18 -10 -40 -10 -22 0 -40 5 -40 10
0 6 18 10 40 10 22 0 40 -4 40 -10z m60 0 c0 -5 -9 -10 -20 -10 -11 0 -20 5
-20 10 0 6 9 10 20 10 11 0 20 -4 20 -10z m40 0 c0 -5 -4 -10 -10 -10 -5 0
-10 5 -10 10 0 6 5 10 10 10 6 0 10 -4 10 -10z m60 0 c0 -5 -4 -10 -10 -10 -5
0 -10 5 -10 10 0 6 5 10 10 10 6 0 10 -4 10 -10z m60 0 c0 -5 -9 -10 -20 -10
-11 0 -20 5 -20 10 0 6 9 10 20 10 11 0 20 -4 20 -10z m100 0 c0 -5 -18 -10
-40 -10 -22 0 -40 5 -40 10 0 6 18 10 40 10 22 0 40 -4 40 -10z m60 0 c0 -5
-9 -10 -20 -10 -11 0 -20 5 -20 10 0 6 9 10 20 10 11 0 20 -4 20 -10z m40 0
c0 -5 -4 -10 -10 -10 -5 0 -10 5 -10 10 0 6 5 10 10 10 6 0 10 -4 10 -10z
m-900 -50 c0 -11 -4 -20 -10 -20 -5 0 -10 9 -10 20 0 11 5 20 10 20 6 0 10 -9
10 -20z m60 0 c0 -13 -7 -20 -20 -20 -13 0 -20 7 -20 20 0 13 7 20 20 20 13 0
20 -7 20 -20z m100 0 c0 -17 -7 -20 -40 -20 -33 0 -40 3 -40 20 0 17 7 20 40
20 33 0 40 -3 40 -20z m60 0 c0 -13 -7 -20 -20 -20 -13 0 -20 7 -20 20 0 13 7
20 20 20 13 0 20 -7 20 -20z m40 0 c0 -11 -4 -20 -10 -20 -5 0 -10 9 -10 20 0
11 5 20 10 20 6 0 10 -9 10 -20z m60 0 c0 -11 -4 -20 -10 -20 -5 0 -10 9 -10
20 0 11 5 20 10 20 6 0 10 -9 10 -20z m60 0 c0 -13 -7 -20 -20 -20 -13 0 -20
7 -20 20 0 13 7 20 20 20 13 0 20 -7 20 -20z m100 0 c0 -17 -7 -20 -40 -20
-33 0 -40 3 -40 20 0 17 7 20 40 20 33 0 40 -3 40 -20z m60 0 c0 -13 -7 -20
-20 -20 -13 0 -20 7 -20 20 0 13 7 20 20 20 13 0 20 -7 20 -20z m40 0 c0 -11
-4 -20 -10 -20 -5 0 -10 9 -10 20 0 11 5 20 10 20 6 0 10 -9 10 -20z m60 0 c0
-11 -4 -20 -10 -20 -5 0 -10 9 -10 20 0 11 5 20 10 20 6 0 10 -9 10 -20z m60
0 c0 -13 -7 -20 -20 -20 -13 0 -20 7 -20 20 0 13 7 20 20 20 13 0 20 -7 20
-20z m100 0 c0 -17 -7 -20 -40 -20 -33 0 -40 3 -40 20 0 17 7 20 40 20 33 0
40 -3 40 -20z m60 0 c0 -13 -7 -20 -20 -20 -13 0 -20 7 -20 20 0 13 7 20 20
20 13 0 20 -7 20 -20z m40 0 c0 -11 -4 -20 -10 -20 -5 0 -10 9 -10 20 0 11 5
20 10 20 6 0 10 -9 10 -20z m-900 -80 c0 -22 -4 -40 -10 -40 -5 0 -10 18 -10
40 0 22 5 40 10 40 6 0 10 -18 10 -40z m60 0 c0 -33 -3 -40 -20 -40 -17 0 -20
7 -20 40 0 33 3 40 20 40 17 0 20 -7 20 -40z m100 0 l0 -40 -40 0 -40 0 0 40
0 40 40 0 40 0 0 -40z m60 0 c0 -33 -3 -40 -20 -40 -17 0 -20 7 -20 40 0 33 3
40 20 40 17 0 20 -7 20 -40z m40 0 c0 -22 -4 -40 -10 -40 -5 0 -10 18 -10 40
0 22 5 40 10 40 6 0 10 -18 10 -40z m60 0 c0 -22 -4 -40 -10 -40 -5 0 -10 18
-10 40 0 22 5 40 10 40 6 0 10 -18 10 -40z m60 0 c0 -33 -3 -40 -20 -40 -17 0
-20 7 -20 40 0 33 3 40 20 40 17 0 20 -7 20 -40z m100 0 l0 -40 -40 0 -40 0 0
40 0 40 40 0 40 0 0 -40z m60 0 c0 -33 -3 -40 -20 -40 -17 0 -20 7 -20 40 0
33 3 40 20 40 17 0 20 -7 20 -40z m40 0 c0 -22 -4 -40 -10 -40 -5 0 -10 18
-10 40 0 22 5 40 10 40 6 0 10 -18 10 -40z m60 0 c0 -22 -4 -40 -10 -40 -5 0
-10 18 -10 40 0 22 5 40 10 40 6 0 10 -18 10 -40z m60 0 c0 -33 -3 -40 -20
-40 -17 0 -20 7 -20 40 0 33 3 40 20 40 17 0 20 -7 20 -40z m100 0 l0 -40 -40
0 -40 0 0 40 0 40 40 0 40 0 0 -40z m60 0 c0 -33 -3 -40 -20 -40 -17 0 -20 7
-20 40 0 33 3 40 20 40 17 0 20 -7 20 -40z m40 0 c0 -22 -4 -40 -10 -40 -5 0
-10 18 -10 40 0 22 5 40 10 40 6 0 10 -18 10 -40z m-900 -80 c0 -11 -4 -20
-10 -20 -5 0 -10 9 -10 20 0 11 5 20 10 20 6 0 10 -9 10 -20z m60 0 c0 -13 -7
-20 -20 -20 -13 0 -20 7 -20 20 0 13 7 20 20 20 13 0 20 -7 20 -20z m100 0 c0
-17 -7 -20 -40 -20 -33 0 -40 3 -40 20 0 17 7 20 40 20 33 0 40 -3 40 -20z
m60 0 c0 -13 -7 -20 -20 -20 -13 0 -20 7 -20 20 0 13 7 20 20 20 13 0 20 -7
20 -20z m40 0 c0 -11 -4 -20 -10 -20 -5 0 -10 9 -10 20 0 11 5 20 10 20 6 0
10 -9 10 -20z m60 0 c0 -11 -4 -20 -10 -20 -5 0 -10 9 -10 20 0 11 5 20 10 20
6 0 10 -9 10 -20z m60 0 c0 -13 -7 -20 -20 -20 -13 0 -20 7 -20 20 0 13 7 20
20 20 13 0 20 -7 20 -20z m100 0 c0 -17 -7 -20 -40 -20 -33 0 -40 3 -40 20 0
17 7 20 40 20 33 0 40 -3 40 -20z m60 0 c0 -13 -7 -20 -20 -20 -13 0 -20 7
-20 20 0 13 7 20 20 20 13 0 20 -7 20 -20z m40 0 c0 -11 -4 -20 -10 -20 -5 0
-10 9 -10 20 0 11 5 20 10 20 6 0 10 -9 10 -20z m60 0 c0 -11 -4 -20 -10 -20
-5 0 -10 9 -10 20 0 11 5 20 10 20 6 0 10 -9 10 -20z m60 0 c0 -13 -7 -20 -20
-20 -13 0 -20 7 -20 20 0 13 7 20 20 20 13 0 20 -7 20 -20z m100 0 c0 -17 -7
-20 -40 -20 -33 0 -40 3 -40 20 0 17 7 20 40 20 33 0 40 -3 40 -20z m60 0 c0
-13 -7 -20 -20 -20 -13 0 -20 7 -20 20 0 13 7 20 20 20 13 0 20 -7 20 -20z
m40 0 c0 -11 -4 -20 -10 -20 -5 0 -10 9 -10 20 0 11 5 20 10 20 6 0 10 -9 10
-20z m-900 -50 c0 -5 -4 -10 -10 -10 -5 0 -10 5 -10 10 0 6 5 10 10 10 6 0 10
-4 10 -10z m60 0 c0 -5 -9 -10 -20 -10 -11 0 -20 5 -20 10 0 6 9 10 20 10 11
0 20 -4 20 -10z m100 0 c0 -5 -18 -10 -40 -10 -22 0 -40 5 -40 10 0 6 18 10
40 10 22 0 40 -4 40 -10z m60 0 c0 -5 -9 -10 -20 -10 -11 0 -20 5 -20 10 0 6
9 10 20 10 11 0 20 -4 20 -10z m40 0 c0 -5 -4 -10 -10 -10 -5 0 -10 5 -10 10
0 6 5 10 10 10 6 0 10 -4 10 -10z m60 0 c0 -5 -4 -10 -10 -10 -5 0 -10 5 -10
10 0 6 5 10 10 10 6 0 10 -4 10 -10z m60 0 c0 -5 -9 -10 -20 -10 -11 0 -20 5
-20 10 0 6 9 10 20 10 11 0 20 -4 20 -10z m100 0 c0 -5 -18 -10 -40 -10 -22 0
-40 5 -40 10 0 6 18 10 40 10 22 0 40 -4 40 -10z m60 0 c0 -5 -9 -10 -20 -10
-11 0 -20 5 -20 10 0 6 9 10 20 10 11 0 20 -4 20 -10z m40 0 c0 -5 -4 -10 -10
-10 -5 0 -10 5 -10 10 0 6 5 10 10 10 6 0 10 -4 10 -10z m60 0 c0 -5 -4 -10
-10 -10 -5 0 -10 5 -10 10 0 6 5 10 10 10 6 0 10 -4 10 -10z m60 0 c0 -5 -9
-10 -20 -10 -11 0 -20 5 -20 10 0 6 9 10 20 10 11 0 20 -4 20 -10z m100 0 c0
-5 -18 -10 -40 -10 -22 0 -40 5 -40 10 0 6 18 10 40 10 22 0 40 -4 40 -10z
m60 0 c0 -5 -9 -10 -20 -10 -11 0 -20 5 -20 10 0 6 9 10 20 10 11 0 20 -4 20
-10z m40 0 c0 -5 -4 -10 -10 -10 -5 0 -10 5 -10 10 0 6 5 10 10 10 6 0 10 -4
10 -10z m-900 -60 c0 -5 -4 -10 -10 -10 -5 0 -10 5 -10 10 0 6 5 10 10 10 6 0
10 -4 10 -10z m60 0 c0 -5 -9 -10 -20 -10 -11 0 -20 5 -20 10 0 6 9 10 20 10
11 0 20 -4 20 -10z m100 0 c0 -5 -18 -10 -40 -10 -22 0 -40 5 -40 10 0 6 18
10 40 10 22 0 40 -4 40 -10z m60 0 c0 -5 -9 -10 -20 -10 -11 0 -20 5 -20 10 0
6 9 10 20 10 11 0 20 -4 20 -10z m40 0 c0 -5 -4 -10 -10 -10 -5 0 -10 5 -10
10 0 6 5 10 10 10 6 0 10 -4 10 -10z m60 0 c0 -5 -4 -10 -10 -10 -5 0 -10 5
-10 10 0 6 5 10 10 10 6 0 10 -4 10 -10z m60 0 c0 -5 -9 -10 -20 -10 -11 0
-20 5 -20 10 0 6 9 10 20 10 11 0 20 -4 20 -10z m100 0 c0 -5 -18 -10 -40 -10
-22 0 -40 5 -40 10 0 6 18 10 40 10 22 0 40 -4 40 -10z m60 0 c0 -5 -9 -10
-20 -10 -11 0 -20 5 -20 10 0 6 9 10 20 10 11 0 20 -4 20 -10z m40 0 c0 -5 -4
-10 -10 -10 -5 0 -10 5 -10 10 0 6 5 10 10 10 6 0 10 -4 10 -10z m60 0 c0 -5
-4 -10 -10 -10 -5 0 -10 5 -10 10 0 6 5 10 10 10 6 0 10 -4 10 -10z m60 0 c0
-5 -9 -10 -20 -10 -11 0 -20 5 -20 10 0 6 9 10 20 10 11 0 20 -4 20 -10z m100
0 c0 -5 -18 -10 -40 -10 -22 0 -40 5 -40 10 0 6 18 10 40 10 22 0 40 -4 40
-10z m60 0 c0 -5 -9 -10 -20 -10 -11 0 -20 5 -20 10 0 6 9 10 20 10 11 0 20
-4 20 -10z m40 0 c0 -5 -4 -10 -10 -10 -5 0 -10 5 -10 10 0 6 5 10 10 10 6 0
10 -4 10 -10z m-900 -50 c0 -11 -4 -20 -10 -20 -5 0 -10 9 -10 20 0 11 5 20
10 20 6 0 10 -9 10 -20z m60 0 c0 -13 -7 -20 -20 -20 -13 0 -20 7 -20 20 0 13
7 20 20 20 13 0 20 -7 20 -20z m100 0 c0 -17 -7 -20 -40 -20 -33 0 -40 3 -40
20 0 17 7 20 40 20 33 0 40 -3 40 -20z m60 0 c0 -13 -7 -20 -20 -20 -13 0 -20
7 -20 20 0 13 7 20 20 20 13 0 20 -7 20 -20z m40 0 c0 -11 -4 -20 -10 -20 -5
0 -10 9 -10 20 0 11 5 20 10 20 6 0 10 -9 10 -20z m60 0 c0 -11 -4 -20 -10
-20 -5 0 -10 9 -10 20 0 11 5 20 10 20 6 0 10 -9 10 -20z m60 0 c0 -13 -7 -20
-20 -20 -13 0 -20 7 -20 20 0 13 7 20 20 20 13 0 20 -7 20 -20z m100 0 c0 -17
-7 -20 -40 -20 -33 0 -40 3 -40 20 0 17 7 20 40 20 33 0 40 -3 40 -20z m60 0
c0 -13 -7 -20 -20 -20 -13 0 -20 7 -20 20 0 13 7 20 20 20 13 0 20 -7 20 -20z
m40 0 c0 -11 -4 -20 -10 -20 -5 0 -10 9 -10 20 0 11 5 20 10 20 6 0 10 -9 10
-20z m60 0 c0 -11 -4 -20 -10 -20 -5 0 -10 9 -10 20 0 11 5 20 10 20 6 0 10
-9 10 -20z m60 0 c0 -13 -7 -20 -20 -20 -13 0 -20 7 -20 20 0 13 7 20 20 20
13 0 20 -7 20 -20z m100 0 c0 -17 -7 -20 -40 -20 -33 0 -40 3 -40 20 0 17 7
20 40 20 33 0 40 -3 40 -20z m60 0 c0 -13 -7 -20 -20 -20 -13 0 -20 7 -20 20
0 13 7 20 20 20 13 0 20 -7 20 -20z m40 0 c0 -11 -4 -20 -10 -20 -5 0 -10 9
-10 20 0 11 5 20 10 20 6 0 10 -9 10 -20z m-900 -80 c0 -22 -4 -40 -10 -40 -5
0 -10 18 -10 40 0 22 5 40 10 40 6 0 10 -18 10 -40z m60 0 c0 -33 -3 -40 -20
-40 -17 0 -20 7 -20 40 0 33 3 40 20 40 17 0 20 -7 20 -40z m100 0 l0 -40 -40
0 -40 0 0 40 0 40 40 0 40 0 0 -40z m60 0 c0 -33 -3 -40 -20 -40 -17 0 -20 7
-20 40 0 33 3 40 20 40 17 0 20 -7 20 -40z m40 0 c0 -22 -4 -40 -10 -40 -5 0
-10 18 -10 40 0 22 5 40 10 40 6 0 10 -18 10 -40z m60 0 c0 -22 -4 -40 -10
-40 -5 0 -10 18 -10 40 0 22 5 40 10 40 6 0 10 -18 10 -40z m60 0 c0 -33 -3
-40 -20 -40 -17 0 -20 7 -20 40 0 33 3 40 20 40 17 0 20 -7 20 -40z m100 0 l0
-40 -40 0 -40 0 0 40 0 40 40 0 40 0 0 -40z m60 0 c0 -33 -3 -40 -20 -40 -17
0 -20 7 -20 40 0 33 3 40 20 40 17 0 20 -7 20 -40z m40 0 c0 -22 -4 -40 -10
-40 -5 0 -10 18 -10 40 0 22 5 40 10 40 6 0 10 -18 10 -40z m60 0 c0 -22 -4
-40 -10 -40 -5 0 -10 18 -10 40 0 22 5 40 10 40 6 0 10 -18 10 -40z m60 0 c0
-33 -3 -40 -20 -40 -17 0 -20 7 -20 40 0 33 3 40 20 40 17 0 20 -7 20 -40z
m100 0 l0 -40 -40 0 -40 0 0 40 0 40 40 0 40 0 0 -40z m60 0 c0 -33 -3 -40
-20 -40 -17 0 -20 7 -20 40 0 33 3 40 20 40 17 0 20 -7 20 -40z m40 0 c0 -22
-4 -40 -10 -40 -5 0 -10 18 -10 40 0 22 5 40 10 40 6 0 10 -18 10 -40z m-900
-80 c0 -11 -4 -20 -10 -20 -5 0 -10 9 -10 20 0 11 5 20 10 20 6 0 10 -9 10
-20z m60 0 c0 -13 -7 -20 -20 -20 -13 0 -20 7 -20 20 0 13 7 20 20 20 13 0 20
-7 20 -20z m100 0 c0 -17 -7 -20 -40 -20 -33 0 -40 3 -40 20 0 17 7 20 40 20
33 0 40 -3 40 -20z m60 0 c0 -13 -7 -20 -20 -20 -13 0 -20 7 -20 20 0 13 7 20
20 20 13 0 20 -7 20 -20z m40 0 c0 -11 -4 -20 -10 -20 -5 0 -10 9 -10 20 0 11
5 20 10 20 6 0 10 -9 10 -20z m60 0 c0 -11 -4 -20 -10 -20 -5 0 -10 9 -10 20
0 11 5 20 10 20 6 0 10 -9 10 -20z m60 0 c0 -13 -7 -20 -20 -20 -13 0 -20 7
-20 20 0 13 7 20 20 20 13 0 20 -7 20 -20z m100 0 c0 -17 -7 -20 -40 -20 -33
0 -40 3 -40 20 0 17 7 20 40 20 33 0 40 -3 40 -20z m60 0 c0 -13 -7 -20 -20
-20 -13 0 -20 7 -20 20 0 13 7 20 20 20 13 0 20 -7 20 -20z m40 0 c0 -11 -4
-20 -10 -20 -5 0 -10 9 -10 20 0 11 5 20 10 20 6 0 10 -9 10 -20z m60 0 c0
-11 -4 -20 -10 -20 -5 0 -10 9 -10 20 0 11 5 20 10 20 6 0 10 -9 10 -20z m60
0 c0 -13 -7 -20 -20 -20 -13 0 -20 7 -20 20 0 13 7 20 20 20 13 0 20 -7 20
-20z m100 0 c0 -17 -7 -20 -40 -20 -33 0 -40 3 -40 20 0 17 7 20 40 20 33 0
40 -3 40 -20z m60 0 c0 -13 -7 -20 -20 -20 -13 0 -20 7 -20 20 0 13 7 20 20
20 13 0 20 -7 20 -20z m40 0 c0 -11 -4 -20 -10 -20 -5 0 -10 9 -10 20 0 11 5
20 10 20 6 0 10 -9 10 -20z m-900 -50 c0 -5 -4 -10 -10 -10 -5 0 -10 5 -10 10
0 6 5 10 10 10 6 0 10 -4 10 -10z m60 0 c0 -5 -9 -10 -20 -10 -11 0 -20 5 -20
10 0 6 9 10 20 10 11 0 20 -4 20 -10z m100 0 c0 -5 -18 -10 -40 -10 -22 0 -40
5 -40 10 0 6 18 10 40 10 22 0 40 -4 40 -10z m60 0 c0 -5 -9 -10 -20 -10 -11
0 -20 5 -20 10 0 6 9 10 20 10 11 0 20 -4 20 -10z m40 0 c0 -5 -4 -10 -10 -10
-5 0 -10 5 -10 10 0 6 5 10 10 10 6 0 10 -4 10 -10z m60 0 c0 -5 -4 -10 -10
-10 -5 0 -10 5 -10 10 0 6 5 10 10 10 6 0 10 -4 10 -10z m60 0 c0 -5 -9 -10
-20 -10 -11 0 -20 5 -20 10 0 6 9 10 20 10 11 0 20 -4 20 -10z m100 0 c0 -5
-18 -10 -40 -10 -22 0 -40 5 -40 10 0 6 18 10 40 10 22 0 40 -4 40 -10z m60 0
c0 -5 -9 -10 -20 -10 -11 0 -20 5 -20 10 0 6 9 10 20 10 11 0 20 -4 20 -10z
m40 0 c0 -5 -4 -10 -10 -10 -5 0 -10 5 -10 10 0 6 5 10 10 10 6 0 10 -4 10
-10z m60 0 c0 -5 -4 -10 -10 -10 -5 0 -10 5 -10 10 0 6 5 10 10 10 6 0 10 -4
10 -10z m60 0 c0 -5 -9 -10 -20 -10 -11 0 -20 5 -20 10 0 6 9 10 20 10 11 0
20 -4 20 -10z m100 0 c0 -5 -18 -10 -40 -10 -22 0 -40 5 -40 10 0 6 18 10 40
10 22 0 40 -4 40 -10z m60 0 c0 -5 -9 -10 -20 -10 -11 0 -20 5 -20 10 0 6 9
10 20 10 11 0 20 -4 20 -10z m40 0 c0 -5 -4 -10 -10 -10 -5 0 -10 5 -10 10 0
6 5 10 10 10 6 0 10 -4 10 -10z m-900 -60 c0 -5 -4 -10 -10 -10 -5 0 -10 5
-10 10 0 6 5 10 10 10 6 0 10 -4 10 -10z m60 0 c0 -5 -9 -10 -20 -10 -11 0
-20 5 -20 10 0 6 9 10 20 10 11 0 20 -4 20 -10z m100 0 c0 -5 -18 -10 -40 -10
-22 0 -40 5 -40 10 0 6 18 10 40 10 22 0 40 -4 40 -10z m60 0 c0 -5 -9 -10
-20 -10 -11 0 -20 5 -20 10 0 6 9 10 20 10 11 0 20 -4 20 -10z m40 0 c0 -5 -4
-10 -10 -10 -5 0 -10 5 -10 10 0 6 5 10 10 10 6 0 10 -4 10 -10z m60 0 c0 -5
-4 -10 -10 -10 -5 0 -10 5 -10 10 0 6 5 10 10 10 6 0 10 -4 10 -10z m60 0 c0
-5 -9 -10 -20 -10 -11 0 -20 5 -20 10 0 6 9 10 20 10 11 0 20 -4 20 -10z m100
0 c0 -5 -18 -10 -40 -10 -22 0 -40 5 -40 10 0 6 18 10 40 10 22 0 40 -4 40
-10z m60 0 c0 -5 -9 -10 -20 -10 -11 0 -20 5 -20 10 0 6 9 10 20 10 11 0 20
-4 20 -10z m40 0 c0 -5 -4 -10 -10 -10 -5 0 -10 5 -10 10 0 6 5 10 10 10 6 0
10 -4 10 -10z m60 0 c0 -5 -4 -10 -10 -10 -5 0 -10 5 -10 10 0 6 5 10 10 10 6
0 10 -4 10 -10z m60 0 c0 -5 -9 -10 -20 -10 -11 0 -20 5 -20 10 0 6 9 10 20
10 11 0 20 -4 20 -10z m100 0 c0 -5 -18 -10 -40 -10 -22 0 -40 5 -40 10 0 6
18 10 40 10 22 0 40 -4 40 -10z m60 0 c0 -5 -9 -10 -20 -10 -11 0 -20 5 -20
10 0 6 9 10 20 10 11 0 20 -4 20 -10z m40 0 c0 -5 -4 -10 -10 -10 -5 0 -10 5
-10 10 0 6 5 10 10 10 6 0 10 -4 10 -10z m-900 -50 c0 -11 -4 -20 -10 -20 -5
0 -10 9 -10 20 0 11 5 20 10 20 6 0 10 -9 10 -20z m60 0 c0 -13 -7 -20 -20
-20 -13 0 -20 7 -20 20 0 13 7 20 20 20 13 0 20 -7 20 -20z m100 0 c0 -17 -7
-20 -40 -20 -33 0 -40 3 -40 20 0 17 7 20 40 20 33 0 40 -3 40 -20z m60 0 c0
-13 -7 -20 -20 -20 -13 0 -20 7 -20 20 0 13 7 20 20 20 13 0 20 -7 20 -20z
m40 0 c0 -11 -4 -20 -10 -20 -5 0 -10 9 -10 20 0 11 5 20 10 20 6 0 10 -9 10
-20z m60 0 c0 -11 -4 -20 -10 -20 -5 0 -10 9 -10 20 0 11 5 20 10 20 6 0 10
-9 10 -20z m60 0 c0 -13 -7 -20 -20 -20 -13 0 -20 7 -20 20 0 13 7 20 20 20
13 0 20 -7 20 -20z m100 0 c0 -17 -7 -20 -40 -20 -33 0 -40 3 -40 20 0 17 7
20 40 20 33 0 40 -3 40 -20z m60 0 c0 -13 -7 -20 -20 -20 -13 0 -20 7 -20 20
0 13 7 20 20 20 13 0 20 -7 20 -20z m40 0 c0 -11 -4 -20 -10 -20 -5 0 -10 9
-10 20 0 11 5 20 10 20 6 0 10 -9 10 -20z m60 0 c0 -11 -4 -20 -10 -20 -5 0
-10 9 -10 20 0 11 5 20 10 20 6 0 10 -9 10 -20z m60 0 c0 -13 -7 -20 -20 -20
-13 0 -20 7 -20 20 0 13 7 20 20 20 13 0 20 -7 20 -20z m100 0 c0 -17 -7 -20
-40 -20 -33 0 -40 3 -40 20 0 17 7 20 40 20 33 0 40 -3 40 -20z m60 0 c0 -13
-7 -20 -20 -20 -13 0 -20 7 -20 20 0 13 7 20 20 20 13 0 20 -7 20 -20z m40 0
c0 -11 -4 -20 -10 -20 -5 0 -10 9 -10 20 0 11 5 20 10 20 6 0 10 -9 10 -20z
m-900 -80 c0 -22 -4 -40 -10 -40 -5 0 -10 18 -10 40 0 22 5 40 10 40 6 0 10
-18 10 -40z m60 0 c0 -33 -3 -40 -20 -40 -17 0 -20 7 -20 40 0 33 3 40 20 40
17 0 20 -7 20 -40z m100 0 l0 -40 -40 0 -40 0 0 40 0 40 40 0 40 0 0 -40z m60
0 c0 -33 -3 -40 -20 -40 -17 0 -20 7 -20 40 0 33 3 40 20 40 17 0 20 -7 20
-40z m40 0 c0 -22 -4 -40 -10 -40 -5 0 -10 18 -10 40 0 22 5 40 10 40 6 0 10
-18 10 -40z m60 0 c0 -22 -4 -40 -10 -40 -5 0 -10 18 -10 40 0 22 5 40 10 40
6 0 10 -18 10 -40z m60 0 c0 -33 -3 -40 -20 -40 -17 0 -20 7 -20 40 0 33 3 40
20 40 17 0 20 -7 20 -40z m100 0 l0 -40 -40 0 -40 0 0 40 0 40 40 0 40 0 0
-40z m60 0 c0 -33 -3 -40 -20 -40 -17 0 -20 7 -20 40 0 33 3 40 20 40 17 0 20
-7 20 -40z m40 0 c0 -22 -4 -40 -10 -40 -5 0 -10 18 -10 40 0 22 5 40 10 40 6
0 10 -18 10 -40z m60 0 c0 -22 -4 -40 -10 -40 -5 0 -10 18 -10 40 0 22 5 40
10 40 6 0 10 -18 10 -40z m60 0 c0 -33 -3 -40 -20 -40 -17 0 -20 7 -20 40 0
33 3 40 20 40 17 0 20 -7 20 -40z m100 0 l0 -40 -40 0 -40 0 0 40 0 40 40 0
40 0 0 -40z m60 0 c0 -33 -3 -40 -20 -40 -17 0 -20 7 -20 40 0 33 3 40 20 40
17 0 20 -7 20 -40z m40 0 c0 -22 -4 -40 -10 -40 -5 0 -10 18 -10 40 0 22 5 40
10 40 6 0 10 -18 10 -40z m-900 -80 c0 -11 -4 -20 -10 -20 -5 0 -10 9 -10 20
0 11 5 20 10 20 6 0 10 -9 10 -20z m60 0 c0 -13 -7 -20 -20 -20 -13 0 -20 7
-20 20 0 13 7 20 20 20 13 0 20 -7 20 -20z m100 0 c0 -17 -7 -20 -40 -20 -33
0 -40 3 -40 20 0 17 7 20 40 20 33 0 40 -3 40 -20z m60 0 c0 -13 -7 -20 -20
-20 -13 0 -20 7 -20 20 0 13 7 20 20 20 13 0 20 -7 20 -20z m40 0 c0 -11 -4
-20 -10 -20 -5 0 -10 9 -10 20 0 11 5 20 10 20 6 0 10 -9 10 -20z m60 0 c0
-11 -4 -20 -10 -20 -5 0 -10 9 -10 20 0 11 5 20 10 20 6 0 10 -9 10 -20z m60
0 c0 -13 -7 -20 -20 -20 -13 0 -20 7 -20 20 0 13 7 20 20 20 13 0 20 -7 20
-20z m100 0 c0 -17 -7 -20 -40 -20 -33 0 -40 3 -40 20 0 17 7 20 40 20 33 0
40 -3 40 -20z m60 0 c0 -13 -7 -20 -20 -20 -13 0 -20 7 -20 20 0 13 7 20 20
20 13 0 20 -7 20 -20z m40 0 c0 -11 -4 -20 -10 -20 -5 0 -10 9 -10 20 0 11 5
20 10 20 6 0 10 -9 10 -20z m60 0 c0 -11 -4 -20 -10 -20 -5 0 -10 9 -10 20 0
11 5 20 10 20 6 0 10 -9 10 -20z m60 0 c0 -13 -7 -20 -20 -20 -13 0 -20 7 -20
20 0 13 7 20 20 20 13 0 20 -7 20 -20z m100 0 c0 -17 -7 -20 -40 -20 -33 0
-40 3 -40 20 0 17 7 20 40 20 33 0 40 -3 40 -20z m60 0 c0 -13 -7 -20 -20 -20
-13 0 -20 7 -20 20 0 13 7 20 20 20 13 0 20 -7 20 -20z m40 0 c0 -11 -4 -20
-10 -20 -5 0 -10 9 -10 20 0 11 5 20 10 20 6 0 10 -9 10 -20z m-900 -50 c0 -5
-4 -10 -10 -10 -5 0 -10 5 -10 10 0 6 5 10 10 10 6 0 10 -4 10 -10z m60 0 c0
-5 -9 -10 -20 -10 -11 0 -20 5 -20 10 0 6 9 10 20 10 11 0 20 -4 20 -10z m100
0 c0 -5 -18 -10 -40 -10 -22 0 -40 5 -40 10 0 6 18 10 40 10 22 0 40 -4 40
-10z m60 0 c0 -5 -9 -10 -20 -10 -11 0 -20 5 -20 10 0 6 9 10 20 10 11 0 20
-4 20 -10z m40 0 c0 -5 -4 -10 -10 -10 -5 0 -10 5 -10 10 0 6 5 10 10 10 6 0
10 -4 10 -10z m60 0 c0 -5 -4 -10 -10 -10 -5 0 -10 5 -10 10 0 6 5 10 10 10 6
0 10 -4 10 -10z m60 0 c0 -5 -9 -10 -20 -10 -11 0 -20 5 -20 10 0 6 9 10 20
10 11 0 20 -4 20 -10z m100 0 c0 -5 -18 -10 -40 -10 -22 0 -40 5 -40 10 0 6
18 10 40 10 22 0 40 -4 40 -10z m60 0 c0 -5 -9 -10 -20 -10 -11 0 -20 5 -20
10 0 6 9 10 20 10 11 0 20 -4 20 -10z m40 0 c0 -5 -4 -10 -10 -10 -5 0 -10 5
-10 10 0 6 5 10 10 10 6 0 10 -4 10 -10z m60 0 c0 -5 -4 -10 -10 -10 -5 0 -10
5 -10 10 0 6 5 10 10 10 6 0 10 -4 10 -10z m60 0 c0 -5 -9 -10 -20 -10 -11 0
-20 5 -20 10 0 6 9 10 20 10 11 0 20 -4 20 -10z m100 0 c0 -5 -18 -10 -40 -10
-22 0 -40 5 -40 10 0 6 18 10 40 10 22 0 40 -4 40 -10z m60 0 c0 -5 -9 -10
-20 -10 -11 0 -20 5 -20 10 0 6 9 10 20 10 11 0 20 -4 20 -10z m40 0 c0 -5 -4
-10 -10 -10 -5 0 -10 5 -10 10 0 6 5 10 10 10 6 0 10 -4 10 -10z"/>
</g>
<g transform="translate(0.000000,96.000000) scale(0.100000,-0.100000)"
fill="#263540" stroke="none">
<path d="M1 478 c1 -266 4 -473 6 -460 2 12 13 27 24 32 11 6 18 20 18 33 l-2
22 -4 -22 c-2 -12 -11 -24 -18 -27 -12 -4 -14 16 -12 122 l2 127 153 3 152 3
-1 -83 c-1 -60 -4 -75 -9 -53 -7 28 -8 28 -9 -12 0 -23 -7 -44 -13 -46 -10 -4
-10 -6 0 -6 6 -1 12 -12 12 -25 0 -13 -6 -27 -12 -29 -8 -3 -6 -6 4 -6 13 -1
18 10 21 47 3 38 4 33 7 -28 2 -41 5 -63 7 -48 3 20 10 28 24 28 13 0 19 7 18
23 -1 16 -2 18 -6 4 -2 -9 -11 -17 -18 -17 -11 0 -14 26 -14 124 l0 124 155 1
154 1 0 -38 c0 -27 -3 -33 -10 -22 -8 12 -10 11 -10 -7 0 -12 -6 -24 -12 -26
-8 -4 -7 -6 4 -6 9 -1 19 5 21 12 3 6 5 -13 5 -43 -1 -53 -1 -54 -8 -15 l-7
40 -2 -42 c0 -23 -7 -44 -14 -47 -6 -4 -2 -4 11 -2 12 2 22 0 22 -5 0 -5 -4
-9 -10 -9 -5 0 -10 -9 -10 -19 0 -11 -6 -22 -13 -24 -7 -3 -6 -6 5 -6 10 -1
18 8 21 22 2 12 6 0 7 -28 1 -27 5 -40 7 -27 2 12 13 27 24 32 11 6 18 20 18
33 l-2 22 -4 -22 c-2 -12 -11 -24 -18 -27 -12 -4 -14 16 -12 122 l2 127 65 2
c36 1 106 2 155 3 50 1 85 4 79 6 -7 3 -9 15 -6 26 5 20 4 20 -10 7 -9 -7 -14
-17 -11 -22 2 -4 -29 -6 -69 -6 -58 1 -66 3 -38 9 33 7 32 7 -15 9 -36 0 -46
-2 -35 -9 11 -7 -5 -10 -52 -10 -66 0 -68 1 -68 25 0 18 5 25 20 25 14 0 20 6
19 23 -1 16 -2 18 -6 5 -2 -10 -11 -18 -18 -18 -11 0 -14 26 -14 124 l0 124
151 1 c83 0 153 3 155 4 2 2 -1 15 -6 28 -5 13 -10 18 -10 12 -1 -7 -7 -13
-15 -13 -8 0 -17 6 -19 13 -4 10 -6 10 -6 0 -1 -7 -11 -14 -23 -15 -13 0 0 -4
27 -8 43 -6 38 -7 -35 -7 -61 0 -75 2 -50 7 33 7 32 7 -15 9 -36 0 -46 -2 -35
-9 11 -7 -5 -10 -52 -10 -66 0 -68 1 -68 25 0 18 5 25 20 25 14 0 20 6 19 23
-1 16 -2 18 -6 5 -2 -10 -11 -18 -18 -18 -11 0 -14 26 -14 124 l0 124 151 1
c83 0 153 3 156 6 3 3 -211 5 -476 5 l-482 0 1 -482z m316 315 l2 -153 -77 1
c-42 1 -67 4 -54 6 13 3 22 11 21 21 0 11 -3 12 -6 5 -2 -7 -23 -13 -46 -14
-36 -1 -39 -2 -17 -9 17 -6 1 -8 -50 -7 l-75 2 -2 153 -3 152 153 -2 152 -3 2
-152z m322 74 c-1 -59 -4 -74 -9 -52 -7 28 -8 27 -9 -12 -1 -27 -6 -43 -13
-44 -10 0 -10 -2 0 -6 6 -2 12 -15 12 -28 0 -13 -6 -26 -12 -28 -8 -3 -6 -6 4
-6 13 -1 18 10 21 47 2 30 4 20 4 -28 0 -41 -2 -65 -4 -53 -3 18 -7 20 -18 10
-9 -8 -10 -14 -2 -19 6 -4 -51 -7 -128 -7 -85 0 -134 4 -125 9 8 5 12 12 8 15
-3 3 -13 -1 -22 -10 -15 -15 -16 -15 -16 4 0 11 9 25 20 31 12 6 19 20 19 33
l-2 22 -4 -22 c-2 -12 -10 -24 -18 -27 -11 -4 -14 18 -14 123 l0 129 155 1
154 1 -1 -83z m-339 -257 c-17 -15 -19 -20 -7 -20 8 0 18 6 20 13 3 7 6 5 6
-5 1 -10 -3 -18 -9 -18 -5 0 -10 -9 -10 -19 0 -11 -6 -22 -12 -24 -8 -3 -7 -6
4 -6 10 -1 18 8 21 22 2 12 5 5 5 -18 1 -29 -1 -36 -8 -25 -7 11 -9 1 -9 -35
2 -47 2 -48 9 -15 6 28 8 20 9 -38 0 -40 -2 -71 -6 -69 -5 3 -15 -2 -22 -11
-13 -14 -12 -15 7 -10 12 4 22 2 22 -3 0 -5 -56 -8 -127 -7 -83 1 -102 3 -55
5 60 3 72 7 72 21 0 12 -3 14 -8 4 -6 -8 -30 -12 -72 -11 -40 1 -66 -3 -68
-10 -2 -6 -14 -11 -27 -11 l-24 0 0 154 -1 154 157 1 156 1 -23 -20z m60 5 c0
-8 -6 -15 -12 -16 -10 0 -10 -2 0 -6 6 -2 12 -16 12 -29 0 -13 -6 -24 -12 -25
-10 0 -10 -2 0 -6 15 -6 17 -89 2 -96 -6 -3 -5 -4 2 -3 8 2 14 21 16 49 3 40
6 47 25 48 l22 2 -22 4 c-20 4 -23 11 -23 48 l0 44 135 0 135 1 -1 -83 c-1
-59 -4 -74 -9 -52 -7 28 -8 27 -9 -12 -1 -27 -6 -43 -13 -44 -10 0 -10 -2 0
-6 6 -2 12 -15 12 -28 0 -13 -6 -26 -12 -28 -8 -3 -6 -6 4 -6 13 -1 18 10 21
47 2 30 4 20 4 -28 0 -41 -2 -65 -4 -53 -3 18 -7 20 -18 10 -9 -8 -10 -14 -2
-19 6 -4 -51 -7 -128 -7 -85 0 -134 4 -125 9 8 5 12 12 8 15 -3 3 -13 -1 -22
-10 -15 -15 -16 -15 -16 4 0 11 9 25 20 31 12 6 19 20 19 33 l-2 22 -4 -22
c-2 -12 -10 -24 -18 -27 -11 -4 -14 18 -14 125 0 105 3 129 15 129 8 0 14 -7
14 -15z"/>
<path d="M33 924 c-18 -19 -18 -19 32 -19 39 0 45 3 44 20 0 11 -3 14 -6 8 -5
-15 -50 -18 -55 -4 -1 5 -9 3 -15 -5z"/>
<path d="M200 931 c0 -6 -19 -12 -42 -14 l-43 -4 48 -1 c36 -2 47 2 47 13 0 8
-2 15 -5 15 -3 0 -5 -4 -5 -9z"/>
<path d="M260 932 c0 -7 -10 -13 -22 -13 -19 -1 -20 -2 -4 -6 20 -5 44 12 33
24 -4 3 -7 1 -7 -5z"/>
<path d="M296 925 c-3 -8 -1 -15 4 -15 6 0 10 7 10 15 0 8 -2 15 -4 15 -2 0
-6 -7 -10 -15z"/>
<path d="M41 883 c0 -12 -7 -24 -13 -26 -10 -4 -10 -6 0 -6 16 -1 16 -88 0
-94 -8 -3 -6 -6 5 -6 14 -1 17 8 17 48 0 49 1 50 33 54 l32 4 -32 1 c-24 2
-33 7 -36 25 -4 22 -4 22 -6 0z"/>
<path d="M260 890 c0 -7 3 -10 7 -7 3 4 3 10 0 14 -4 3 -7 0 -7 -7z"/>
<path d="M300 881 c0 -11 -6 -22 -12 -24 -8 -3 -6 -6 5 -6 12 -1 17 7 17 24 0
14 -2 25 -5 25 -3 0 -5 -9 -5 -19z"/>
<path d="M100 879 c0 -5 5 -7 10 -4 6 3 10 8 10 11 0 2 -4 4 -10 4 -5 0 -10
-5 -10 -11z"/>
<path d="M200 871 c0 -6 -19 -11 -42 -11 -23 0 -38 -3 -35 -7 4 -3 23 -6 44
-5 39 2 62 15 44 26 -6 4 -11 2 -11 -3z"/>
<path d="M243 853 c4 -3 10 -3 14 0 3 4 0 7 -7 7 -7 0 -10 -3 -7 -7z"/>
<path d="M102 810 c0 -19 2 -27 5 -17 2 9 2 25 0 35 -3 9 -5 1 -5 -18z"/>
<path d="M262 810 c0 -19 2 -27 5 -17 2 9 2 25 0 35 -3 9 -5 1 -5 -18z"/>
<path d="M300 801 c0 -22 -5 -42 -12 -44 -8 -3 -6 -6 5 -6 14 -1 17 8 17 44 0
25 -2 45 -5 45 -3 0 -5 -18 -5 -39z"/>
<path d="M200 795 c0 -34 -1 -35 -42 -35 -25 0 -38 -4 -31 -8 7 -4 29 -6 48
-4 33 4 35 6 35 43 0 21 -2 39 -5 39 -3 0 -5 -16 -5 -35z"/>
<path d="M78 753 c6 -2 18 -2 25 0 6 3 1 5 -13 5 -14 0 -19 -2 -12 -5z"/>
<path d="M248 753 c7 -3 16 -2 19 1 4 3 -2 6 -13 5 -11 0 -14 -3 -6 -6z"/>
<path d="M102 715 c0 -16 2 -22 5 -12 2 9 2 23 0 30 -3 6 -5 -1 -5 -18z"/>
<path d="M262 715 c0 -16 2 -22 5 -12 2 9 2 23 0 30 -3 6 -5 -1 -5 -18z"/>
<path d="M300 721 c0 -11 -6 -22 -12 -24 -10 -4 -10 -6 0 -6 6 -1 12 -7 12
-15 0 -8 -6 -17 -12 -19 -8 -3 -6 -6 5 -6 14 -1 17 8 17 44 0 25 -2 45 -5 45
-3 0 -5 -9 -5 -19z"/>
<path d="M40 718 c0 -9 -6 -19 -12 -21 -10 -4 -10 -6 0 -6 14 -1 28 26 18 36
-3 4 -6 -1 -6 -9z"/>
<path d="M200 725 c0 -3 2 -5 5 -5 3 0 5 2 5 5 0 3 -2 5 -5 5 -3 0 -5 -2 -5
-5z"/>
<path d="M63 693 c4 -3 10 -3 14 0 3 4 0 7 -7 7 -7 0 -10 -3 -7 -7z"/>
<path d="M138 693 c12 -2 32 -2 45 0 12 2 2 4 -23 4 -25 0 -35 -2 -22 -4z"/>
<path d="M223 693 c4 -3 10 -3 14 0 3 4 0 7 -7 7 -7 0 -10 -3 -7 -7z"/>
<path d="M32 665 c-11 -12 -10 -15 3 -15 8 0 15 7 15 15 0 18 -2 18 -18 0z"/>
<path d="M100 671 c0 -5 -10 -12 -22 -14 -20 -4 -19 -4 5 -6 18 -1 27 4 27 14
0 8 -2 15 -5 15 -3 0 -5 -4 -5 -9z"/>
<path d="M260 671 c0 -5 -10 -12 -22 -14 -20 -4 -19 -4 5 -6 18 -1 27 4 27 14
0 8 -2 15 -5 15 -3 0 -5 -4 -5 -9z"/>
<path d="M352 924 c-7 -8 -8 -14 -2 -14 14 0 13 -47 -2 -53 -10 -4 -10 -6 0
-6 15 -1 17 -87 2 -94 -6 -3 -5 -4 2 -3 8 2 14 21 16 49 3 38 7 46 25 50 l22
4 -22 2 c-18 1 -22 8 -25 40 -2 32 -5 37 -16 25z"/>
<path d="M421 933 c-1 -7 -11 -13 -23 -13 -35 0 -14 -10 23 -11 86 -3 109 1
108 19 0 10 -3 12 -6 5 -3 -8 -23 -13 -48 -13 -25 0 -45 5 -48 13 -4 10 -6 10
-6 0z"/>
<path d="M580 930 c0 -7 3 -10 7 -7 3 4 3 10 0 14 -4 3 -7 0 -7 -7z"/>
<path d="M612 925 c-7 -9 -8 -15 -2 -15 14 0 13 -47 -2 -53 -8 -3 -6 -6 5 -6
14 -1 17 8 17 44 0 50 0 50 -18 30z"/>
<path d="M548 913 c7 -3 16 -2 19 1 4 3 -2 6 -13 5 -11 0 -14 -3 -6 -6z"/>
<path d="M580 890 c0 -7 3 -10 7 -7 3 4 3 10 0 14 -4 3 -7 0 -7 -7z"/>
<path d="M422 870 c0 -14 2 -19 5 -12 2 6 2 18 0 25 -3 6 -5 1 -5 -13z"/>
<path d="M516 865 c-3 -8 -1 -15 4 -15 6 0 10 7 10 15 0 8 -2 15 -4 15 -2 0
-6 -7 -10 -15z"/>
<path d="M453 853 c9 -2 25 -2 35 0 9 3 1 5 -18 5 -19 0 -27 -2 -17 -5z"/>
<path d="M553 853 c9 -2 23 -2 30 0 6 3 -1 5 -18 5 -16 0 -22 -2 -12 -5z"/>
<path d="M421 803 c-1 -31 -6 -43 -18 -46 -10 -2 14 -4 53 -5 l72 -2 4 36 c2
19 0 37 -4 40 -4 3 -8 -11 -8 -31 l0 -36 -42 3 c-42 3 -43 4 -49 43 l-6 40 -2
-42z"/>
<path d="M580 798 c0 -21 2 -38 4 -38 9 0 12 50 5 62 -6 8 -9 -1 -9 -24z"/>
<path d="M543 753 c4 -3 10 -3 14 0 3 4 0 7 -7 7 -7 0 -10 -3 -7 -7z"/>
<path d="M580 730 c0 -7 3 -10 7 -7 3 4 3 10 0 14 -4 3 -7 0 -7 -7z"/>
<path d="M420 710 c0 -7 3 -10 7 -7 3 4 3 10 0 14 -4 3 -7 0 -7 -7z"/>
<path d="M521 704 c0 -11 3 -14 6 -6 3 7 2 16 -1 19 -3 4 -6 -2 -5 -13z"/>
<path d="M383 693 c4 -3 10 -3 14 0 3 4 0 7 -7 7 -7 0 -10 -3 -7 -7z"/>
<path d="M453 693 c9 -2 25 -2 35 0 9 3 1 5 -18 5 -19 0 -27 -2 -17 -5z"/>
<path d="M553 693 c9 -2 23 -2 30 0 6 3 -1 5 -18 5 -16 0 -22 -2 -12 -5z"/>
<path d="M420 671 c0 -5 -10 -12 -22 -14 -20 -4 -19 -4 5 -6 18 -1 27 4 27 14
0 8 -2 15 -5 15 -3 0 -5 -4 -5 -9z"/>
<path d="M520 671 c0 -6 -19 -12 -42 -14 l-43 -4 48 -1 c36 -2 47 2 47 13 0 8
-2 15 -5 15 -3 0 -5 -4 -5 -9z"/>
<path d="M580 671 c0 -5 -10 -12 -22 -14 -20 -4 -19 -4 5 -6 18 -1 27 4 27 14
0 8 -2 15 -5 15 -3 0 -5 -4 -5 -9z"/>
<path d="M33 605 c-8 -9 -9 -16 -3 -20 14 -9 12 -45 -2 -45 -9 0 -9 -3 0 -12
16 -16 15 -85 -1 -91 -7 -3 -5 -6 6 -6 14 -1 17 8 17 48 0 47 2 50 28 53 21 2
28 9 30 30 3 24 8 27 49 30 28 2 47 8 49 16 1 7 0 8 -3 2 -7 -15 -90 -13 -96
3 -4 10 -6 10 -6 0 -1 -15 -48 -18 -53 -4 -1 5 -9 3 -15 -4z m67 -40 c0 -20
-5 -25 -24 -25 -17 0 -25 7 -28 25 -5 22 -2 25 23 25 24 0 29 -4 29 -25z"/>
<path d="M260 611 c0 -5 -8 -12 -17 -14 -14 -4 -12 -5 5 -6 13 -1 22 5 22 14
0 8 -2 15 -5 15 -3 0 -5 -4 -5 -9z"/>
<path d="M201 563 c-1 -20 -7 -23 -43 -24 l-43 -2 35 -6 c40 -8 64 7 57 35 -4
16 -5 15 -6 -3z"/>
<path d="M260 550 c0 -7 3 -10 7 -7 3 4 3 10 0 14 -4 3 -7 0 -7 -7z"/>
<path d="M223 533 c4 -3 10 -3 14 0 3 4 0 7 -7 7 -7 0 -10 -3 -7 -7z"/>
<path d="M103 480 c0 -25 2 -35 4 -22 2 12 2 32 0 45 -2 12 -4 2 -4 -23z"/>
<path d="M261 483 c-1 -35 -5 -42 -23 -46 -22 -4 -22 -4 -2 -6 30 -2 41 18 33
59 l-6 35 -2 -42z"/>
<path d="M201 478 c-1 -37 -2 -38 -41 -38 -22 0 -40 -3 -40 -8 0 -13 81 -1 86
13 3 7 4 26 1 42 -3 23 -4 22 -6 -9z"/>
<path d="M68 433 c7 -3 16 -2 19 1 4 3 -2 6 -13 5 -11 0 -14 -3 -6 -6z"/>
<path d="M100 410 c0 -7 3 -10 7 -7 3 4 3 10 0 14 -4 3 -7 0 -7 -7z"/>
<path d="M260 410 c0 -7 3 -10 7 -7 3 4 3 10 0 14 -4 3 -7 0 -7 -7z"/>
<path d="M300 401 c0 -11 -6 -22 -12 -24 -8 -3 -6 -6 5 -6 12 -1 17 7 17 24 0
14 -2 25 -5 25 -3 0 -5 -9 -5 -19z"/>
<path d="M36 385 c-3 -8 -1 -15 4 -15 6 0 10 7 10 15 0 8 -2 15 -4 15 -2 0 -6
-7 -10 -15z"/>
<path d="M200 391 c0 -6 -19 -12 -42 -14 l-43 -4 46 -1 c34 -2 48 2 53 13 3 8
1 15 -4 15 -6 0 -10 -4 -10 -9z"/>
<path d="M73 373 c9 -2 23 -2 30 0 6 3 -1 5 -18 5 -16 0 -22 -2 -12 -5z"/>
<path d="M243 373 c4 -3 10 -3 14 0 3 4 0 7 -7 7 -7 0 -10 -3 -7 -7z"/>
<path d="M32 345 c-11 -12 -10 -15 3 -15 8 0 15 7 15 15 0 18 -2 18 -18 0z"/>
<path d="M260 351 c0 -5 -10 -12 -22 -14 -20 -4 -19 -4 5 -6 18 -1 27 4 27 14
0 8 -2 15 -5 15 -3 0 -5 -4 -5 -9z"/>
<path d="M421 613 c-1 -7 -11 -13 -23 -13 -35 0 -14 -10 23 -11 86 -3 109 1
108 19 0 10 -3 12 -6 5 -3 -8 -23 -13 -48 -13 -25 0 -45 5 -48 13 -4 10 -6 10
-6 0z"/>
<path d="M580 610 c0 -7 3 -10 7 -7 3 4 3 10 0 14 -4 3 -7 0 -7 -7z"/>
<path d="M612 605 c-7 -9 -8 -15 -2 -15 14 0 13 -47 -2 -53 -8 -3 -6 -6 5 -6
14 -1 17 8 17 44 0 50 0 50 -18 30z"/>
<path d="M548 593 c7 -3 16 -2 19 1 4 3 -2 6 -13 5 -11 0 -14 -3 -6 -6z"/>
<path d="M580 570 c0 -7 3 -10 7 -7 3 4 3 10 0 14 -4 3 -7 0 -7 -7z"/>
<path d="M422 550 c0 -14 2 -19 5 -12 2 6 2 18 0 25 -3 6 -5 1 -5 -13z"/>
<path d="M516 545 c-3 -8 -1 -15 4 -15 6 0 10 7 10 15 0 8 -2 15 -4 15 -2 0
-6 -7 -10 -15z"/>
<path d="M453 533 c9 -2 25 -2 35 0 9 3 1 5 -18 5 -19 0 -27 -2 -17 -5z"/>
<path d="M553 533 c9 -2 23 -2 30 0 6 3 -1 5 -18 5 -16 0 -22 -2 -12 -5z"/>
<path d="M421 483 c-1 -31 -6 -43 -18 -46 -10 -2 14 -4 53 -5 l72 -2 4 36 c2
19 0 37 -4 40 -4 3 -8 -11 -8 -31 l0 -36 -42 3 c-42 3 -43 4 -49 43 l-6 40 -2
-42z"/>
<path d="M580 478 c0 -21 2 -38 4 -38 9 0 12 50 5 62 -6 8 -9 -1 -9 -24z"/>
<path d="M543 433 c4 -3 10 -3 14 0 3 4 0 7 -7 7 -7 0 -10 -3 -7 -7z"/>
<path d="M580 410 c0 -7 3 -10 7 -7 3 4 3 10 0 14 -4 3 -7 0 -7 -7z"/>
<path d="M420 390 c0 -7 3 -10 7 -7 3 4 3 10 0 14 -4 3 -7 0 -7 -7z"/>
<path d="M521 384 c0 -11 3 -14 6 -6 3 7 2 16 -1 19 -3 4 -6 -2 -5 -13z"/>
<path d="M383 373 c4 -3 10 -3 14 0 3 4 0 7 -7 7 -7 0 -10 -3 -7 -7z"/>
<path d="M453 373 c9 -2 25 -2 35 0 9 3 1 5 -18 5 -19 0 -27 -2 -17 -5z"/>
<path d="M553 373 c9 -2 23 -2 30 0 6 3 -1 5 -18 5 -16 0 -22 -2 -12 -5z"/>
<path d="M420 351 c0 -5 -10 -12 -22 -14 -20 -4 -19 -4 5 -6 18 -1 27 4 27 14
0 8 -2 15 -5 15 -3 0 -5 -4 -5 -9z"/>
<path d="M520 351 c0 -6 -19 -12 -42 -14 l-43 -4 48 -1 c36 -2 47 2 47 13 0 8
-2 15 -5 15 -3 0 -5 -4 -5 -9z"/>
<path d="M580 351 c0 -5 -10 -12 -22 -14 -20 -4 -19 -4 5 -6 18 -1 27 4 27 14
0 8 -2 15 -5 15 -3 0 -5 -4 -5 -9z"/>
<path d="M741 932 c-1 -8 -13 -12 -36 -10 -19 1 -37 -1 -41 -5 -4 -4 -2 -7 4
-7 7 0 12 -11 12 -25 0 -14 -4 -25 -10 -25 -5 0 -10 -4 -10 -9 0 -5 8 -8 18
-6 9 2 29 4 45 4 15 1 27 5 27 9 0 5 -13 7 -30 4 -27 -4 -30 -1 -30 22 0 26 0
26 80 26 70 0 80 2 79 18 0 10 -3 12 -6 5 -3 -8 -23 -13 -48 -13 -25 0 -45 5
-48 13 -4 9 -6 9 -6 -1z"/>
<path d="M932 925 c-11 -12 -10 -15 3 -15 8 0 15 7 15 15 0 18 -2 18 -18 0z"/>
<path d="M888 913 c7 -3 16 -2 19 1 4 3 -2 6 -13 5 -11 0 -14 -3 -6 -6z"/>
<path d="M740 890 c0 -7 3 -10 7 -7 3 4 3 10 0 14 -4 3 -7 0 -7 -7z"/>
<path d="M841 884 c0 -11 3 -14 6 -6 3 7 2 16 -1 19 -3 4 -6 -2 -5 -13z"/>
<path d="M940 883 c0 -12 -6 -24 -12 -26 -8 -4 -7 -6 3 -6 21 -1 30 21 18 40
-7 11 -9 9 -9 -8z"/>
<path d="M900 870 c0 -11 2 -20 4 -20 2 0 6 9 9 20 3 11 1 20 -4 20 -5 0 -9
-9 -9 -20z"/>
<path d="M778 853 c12 -2 32 -2 45 0 12 2 2 4 -23 4 -25 0 -35 -2 -22 -4z"/>
<path d="M863 853 c4 -3 10 -3 14 0 3 4 0 7 -7 7 -7 0 -10 -3 -7 -7z"/>
<path d="M741 803 c-1 -37 -4 -43 -23 -44 -17 -1 -18 -3 -6 -6 31 -8 44 9 37
52 l-6 40 -2 -42z"/>
<path d="M842 803 c-2 -41 -3 -42 -39 -46 l-38 -4 38 -1 c43 -2 51 9 44 60 -3
30 -4 29 -5 -9z"/>
<path d="M902 803 c-1 -24 -6 -43 -12 -43 -5 0 -10 -5 -10 -12 0 -8 5 -7 16 3
10 11 14 29 11 55 l-4 39 -1 -42z"/>
<path d="M941 803 c0 -23 -7 -44 -13 -46 -8 -3 -7 -6 4 -6 22 -1 25 7 17 54
l-6 40 -2 -42z"/>
<path d="M681 798 c0 -20 -7 -39 -13 -41 -10 -4 -10 -6 0 -6 17 -1 24 21 19
56 -3 24 -4 23 -6 -9z"/>
<path d="M740 730 c0 -7 3 -10 7 -7 3 4 3 10 0 14 -4 3 -7 0 -7 -7z"/>
<path d="M841 723 c-1 -20 -7 -23 -43 -24 l-43 -2 35 -6 c40 -8 64 7 57 35 -4
16 -5 15 -6 -3z"/>
<path d="M940 721 c0 -11 -6 -22 -12 -24 -8 -4 -7 -6 3 -6 10 -1 19 9 21 24 3
14 1 25 -3 25 -5 0 -9 -9 -9 -19z"/>
<path d="M900 710 c0 -7 3 -10 7 -7 3 4 3 10 0 14 -4 3 -7 0 -7 -7z"/>
<path d="M718 693 c7 -3 16 -2 19 1 4 3 -2 6 -13 5 -11 0 -14 -3 -6 -6z"/>
<path d="M863 693 c4 -3 10 -3 14 0 3 4 0 7 -7 7 -7 0 -10 -3 -7 -7z"/>
<path d="M672 665 c-11 -12 -10 -15 3 -15 8 0 15 7 15 15 0 18 -2 18 -18 0z"/>
<path d="M740 671 c0 -5 -10 -12 -22 -14 -20 -4 -19 -4 5 -6 18 -1 27 4 27 14
0 8 -2 15 -5 15 -3 0 -5 -4 -5 -9z"/>
<path d="M741 612 c-1 -8 -13 -12 -36 -10 -19 1 -37 -1 -41 -5 -4 -4 -2 -7 4
-7 7 0 12 -11 12 -25 0 -14 -4 -25 -10 -25 -5 0 -10 -4 -10 -9 0 -5 8 -8 18
-6 9 2 29 4 45 4 15 1 27 5 27 9 0 5 -13 7 -30 4 -27 -4 -30 -1 -30 22 0 26 0
26 80 26 70 0 80 2 79 18 0 10 -3 12 -6 5 -3 -8 -23 -13 -48 -13 -25 0 -45 5
-48 13 -4 9 -6 9 -6 -1z"/>
<path d="M932 605 c-11 -12 -10 -15 3 -15 8 0 15 7 15 15 0 18 -2 18 -18 0z"/>
<path d="M888 593 c7 -3 16 -2 19 1 4 3 -2 6 -13 5 -11 0 -14 -3 -6 -6z"/>
<path d="M740 570 c0 -7 3 -10 7 -7 3 4 3 10 0 14 -4 3 -7 0 -7 -7z"/>
<path d="M841 564 c0 -11 3 -14 6 -6 3 7 2 16 -1 19 -3 4 -6 -2 -5 -13z"/>
<path d="M940 563 c0 -12 -6 -24 -12 -26 -8 -4 -7 -6 3 -6 21 -1 30 21 18 40
-7 11 -9 9 -9 -8z"/>
<path d="M900 550 c0 -11 2 -20 4 -20 2 0 6 9 9 20 3 11 1 20 -4 20 -5 0 -9
-9 -9 -20z"/>
<path d="M778 533 c12 -2 32 -2 45 0 12 2 2 4 -23 4 -25 0 -35 -2 -22 -4z"/>
<path d="M863 533 c4 -3 10 -3 14 0 3 4 0 7 -7 7 -7 0 -10 -3 -7 -7z"/>
<path d="M741 483 c-1 -37 -4 -43 -23 -44 -17 -1 -18 -3 -6 -6 31 -8 44 9 37
52 l-6 40 -2 -42z"/>
<path d="M842 483 c-2 -41 -3 -42 -39 -46 l-38 -4 38 -1 c43 -2 51 9 44 60 -3
30 -4 29 -5 -9z"/>
<path d="M902 483 c-1 -24 -6 -43 -12 -43 -5 0 -10 -5 -10 -12 0 -8 5 -7 16 3
10 11 14 29 11 55 l-4 39 -1 -42z"/>
<path d="M941 483 c0 -23 -7 -44 -13 -46 -8 -3 -7 -6 4 -6 22 -1 25 7 17 54
l-6 40 -2 -42z"/>
<path d="M681 478 c0 -20 -7 -39 -13 -41 -10 -4 -10 -6 0 -6 17 -1 24 21 19
56 -3 24 -4 23 -6 -9z"/>
<path d="M740 410 c0 -7 3 -10 7 -7 3 4 3 10 0 14 -4 3 -7 0 -7 -7z"/>
<path d="M841 403 c-1 -20 -7 -23 -43 -24 l-43 -2 35 -6 c40 -8 64 7 57 35 -4
16 -5 15 -6 -3z"/>
<path d="M940 401 c0 -11 -6 -22 -12 -24 -8 -4 -7 -6 3 -6 10 -1 19 9 21 24 3
14 1 25 -3 25 -5 0 -9 -9 -9 -19z"/>
<path d="M900 390 c0 -7 3 -10 7 -7 3 4 3 10 0 14 -4 3 -7 0 -7 -7z"/>
<path d="M718 373 c7 -3 16 -2 19 1 4 3 -2 6 -13 5 -11 0 -14 -3 -6 -6z"/>
<path d="M863 373 c4 -3 10 -3 14 0 3 4 0 7 -7 7 -7 0 -10 -3 -7 -7z"/>
<path d="M672 345 c-11 -12 -10 -15 3 -15 8 0 15 7 15 15 0 18 -2 18 -18 0z"/>
<path d="M740 351 c0 -5 -10 -12 -22 -14 -20 -4 -19 -4 5 -6 18 -1 27 4 27 14
0 8 -2 15 -5 15 -3 0 -5 -4 -5 -9z"/>
<path d="M900 351 c0 -5 -10 -12 -22 -14 -20 -4 -19 -4 5 -6 18 -1 27 4 27 14
0 8 -2 15 -5 15 -3 0 -5 -4 -5 -9z"/>
<path d="M32 284 c-11 -12 -6 -14 28 -15 128 -4 150 -1 149 19 0 10 -3 12 -6
5 -3 -8 -23 -13 -48 -13 -25 0 -45 5 -48 13 -4 10 -6 10 -6 0 -1 -15 -48 -18
-53 -4 -1 5 -9 3 -16 -5z"/>
<path d="M260 290 c0 -7 3 -10 7 -7 3 4 3 10 0 14 -4 3 -7 0 -7 -7z"/>
<path d="M292 285 c-7 -9 -8 -15 -2 -15 14 0 13 -47 -2 -53 -8 -3 -6 -6 5 -6
14 -1 17 8 17 44 0 50 0 50 -18 30z"/>
<path d="M421 292 c-1 -8 -13 -12 -36 -10 -19 1 -37 -1 -41 -5 -4 -4 -2 -7 4
-7 7 0 12 -11 12 -25 0 -14 -4 -25 -10 -25 -5 0 -10 -4 -10 -9 0 -5 8 -8 18
-6 9 2 29 4 45 4 15 1 27 5 27 9 0 5 -13 7 -30 4 -27 -4 -30 -1 -30 22 0 26 0
26 80 26 70 0 80 2 79 18 0 10 -3 12 -6 5 -3 -8 -23 -13 -48 -13 -25 0 -45 5
-48 13 -4 9 -6 9 -6 -1z"/>
<path d="M612 285 c-11 -12 -10 -15 3 -15 8 0 15 7 15 15 0 18 -2 18 -18 0z"/>
<path d="M672 284 c-11 -12 -6 -14 28 -15 128 -4 150 -1 149 19 0 10 -3 12 -6
5 -3 -8 -23 -13 -48 -13 -25 0 -45 5 -48 13 -4 10 -6 10 -6 0 -1 -15 -48 -18
-53 -4 -1 5 -9 3 -16 -5z"/>
<path d="M900 290 c0 -7 3 -10 7 -7 3 4 3 10 0 14 -4 3 -7 0 -7 -7z"/>
<path d="M932 285 c-7 -9 -8 -15 -2 -15 14 0 13 -47 -2 -53 -8 -3 -6 -6 5 -6
14 -1 17 8 17 44 0 50 0 50 -18 30z"/>
<path d="M228 273 c7 -3 16 -2 19 1 4 3 -2 6 -13 5 -11 0 -14 -3 -6 -6z"/>
<path d="M568 273 c7 -3 16 -2 19 1 4 3 -2 6 -13 5 -11 0 -14 -3 -6 -6z"/>
<path d="M868 273 c7 -3 16 -2 19 1 4 3 -2 6 -13 5 -11 0 -14 -3 -6 -6z"/>
<path d="M41 243 c0 -12 -7 -24 -13 -26 -10 -4 -10 -6 0 -6 15 -1 17 -87 2
-94 -6 -3 -5 -4 2 -3 8 2 14 21 16 49 3 38 7 46 25 50 l22 4 -22 2 c-14 1 -23
9 -26 24 -4 22 -4 22 -6 0z"/>
<path d="M260 250 c0 -7 3 -10 7 -7 3 4 3 10 0 14 -4 3 -7 0 -7 -7z"/>
<path d="M420 250 c0 -7 3 -10 7 -7 3 4 3 10 0 14 -4 3 -7 0 -7 -7z"/>
<path d="M521 244 c0 -11 3 -14 6 -6 3 7 2 16 -1 19 -3 4 -6 -2 -5 -13z"/>
<path d="M681 243 c0 -12 -7 -24 -13 -26 -10 -4 -10 -6 0 -6 15 -1 17 -87 2
-94 -6 -3 -5 -4 2 -3 8 2 14 21 16 49 3 38 7 46 25 50 l22 4 -22 2 c-14 1 -23
9 -26 24 -4 22 -4 22 -6 0z"/>
<path d="M900 250 c0 -7 3 -10 7 -7 3 4 3 10 0 14 -4 3 -7 0 -7 -7z"/>
<path d="M102 230 c0 -14 2 -19 5 -12 2 6 2 18 0 25 -3 6 -5 1 -5 -13z"/>
<path d="M580 230 c0 -11 2 -20 4 -20 2 0 6 9 9 20 3 11 1 20 -4 20 -5 0 -9
-9 -9 -20z"/>
<path d="M742 230 c0 -14 2 -19 5 -12 2 6 2 18 0 25 -3 6 -5 1 -5 -13z"/>
<path d="M196 225 c-3 -8 -1 -15 4 -15 6 0 10 7 10 15 0 8 -2 15 -4 15 -2 0
-6 -7 -10 -15z"/>
<path d="M836 225 c-3 -8 -1 -15 4 -15 6 0 10 7 10 15 0 8 -2 15 -4 15 -2 0
-6 -7 -10 -15z"/>
<path d="M133 213 c9 -2 25 -2 35 0 9 3 1 5 -18 5 -19 0 -27 -2 -17 -5z"/>
<path d="M233 213 c9 -2 23 -2 30 0 6 3 -1 5 -18 5 -16 0 -22 -2 -12 -5z"/>
<path d="M458 213 c12 -2 32 -2 45 0 12 2 2 4 -23 4 -25 0 -35 -2 -22 -4z"/>
<path d="M543 213 c4 -3 10 -3 14 0 3 4 0 7 -7 7 -7 0 -10 -3 -7 -7z"/>
<path d="M773 213 c9 -2 25 -2 35 0 9 3 1 5 -18 5 -19 0 -27 -2 -17 -5z"/>
<path d="M873 213 c9 -2 23 -2 30 0 6 3 -1 5 -18 5 -16 0 -22 -2 -12 -5z"/>
<path d="M101 163 c-1 -31 -6 -43 -18 -46 -10 -2 14 -4 53 -5 l72 -2 4 36 c2
19 0 37 -4 40 -4 3 -8 -11 -8 -31 l0 -36 -42 3 c-42 3 -43 4 -49 43 l-6 40 -2
-42z"/>
<path d="M421 163 c-1 -37 -4 -43 -23 -44 -17 -1 -18 -3 -6 -6 31 -8 44 9 37
52 l-6 40 -2 -42z"/>
<path d="M522 163 c-2 -41 -3 -42 -39 -46 l-38 -4 38 -1 c43 -2 51 9 44 60 -3
30 -4 29 -5 -9z"/>
<path d="M582 163 c-1 -24 -6 -43 -12 -43 -5 0 -10 -5 -10 -12 0 -8 5 -7 16 3
10 11 14 29 11 55 l-4 39 -1 -42z"/>
<path d="M741 163 c-1 -31 -6 -43 -18 -46 -10 -2 14 -4 53 -5 l72 -2 4 36 c2
19 0 37 -4 40 -4 3 -8 -11 -8 -31 l0 -36 -42 3 c-42 3 -43 4 -49 43 l-6 40 -2
-42z"/>
<path d="M941 163 c0 -23 -7 -44 -13 -46 -10 -4 -10 -6 0 -6 6 -1 12 -12 12
-25 0 -13 -6 -27 -12 -29 -8 -4 -7 -6 4 -6 12 -1 17 10 20 48 1 26 0 61 -3 77
-6 26 -7 24 -8 -13z"/>
<path d="M260 158 c0 -21 2 -38 4 -38 9 0 12 50 5 62 -6 8 -9 -1 -9 -24z"/>
<path d="M361 158 c0 -20 -7 -39 -13 -41 -10 -4 -10 -6 0 -6 17 -1 24 21 19
56 -3 24 -4 23 -6 -9z"/>
<path d="M900 158 c0 -21 2 -38 4 -38 9 0 12 50 5 62 -6 8 -9 -1 -9 -24z"/>
<path d="M223 113 c4 -3 10 -3 14 0 3 4 0 7 -7 7 -7 0 -10 -3 -7 -7z"/>
<path d="M863 113 c4 -3 10 -3 14 0 3 4 0 7 -7 7 -7 0 -10 -3 -7 -7z"/>
<path d="M260 90 c0 -7 3 -10 7 -7 3 4 3 10 0 14 -4 3 -7 0 -7 -7z"/>
<path d="M420 90 c0 -7 3 -10 7 -7 3 4 3 10 0 14 -4 3 -7 0 -7 -7z"/>
<path d="M521 83 c-1 -20 -7 -23 -43 -24 l-43 -2 35 -6 c40 -8 64 7 57 35 -4
16 -5 15 -6 -3z"/>
<path d="M900 90 c0 -7 3 -10 7 -7 3 4 3 10 0 14 -4 3 -7 0 -7 -7z"/>
<path d="M100 70 c0 -7 3 -10 7 -7 3 4 3 10 0 14 -4 3 -7 0 -7 -7z"/>
<path d="M201 64 c0 -11 3 -14 6 -6 3 7 2 16 -1 19 -3 4 -6 -2 -5 -13z"/>
<path d="M580 70 c0 -7 3 -10 7 -7 3 4 3 10 0 14 -4 3 -7 0 -7 -7z"/>
<path d="M740 70 c0 -7 3 -10 7 -7 3 4 3 10 0 14 -4 3 -7 0 -7 -7z"/>
<path d="M841 64 c0 -11 3 -14 6 -6 3 7 2 16 -1 19 -3 4 -6 -2 -5 -13z"/>
<path d="M63 53 c4 -3 10 -3 14 0 3 4 0 7 -7 7 -7 0 -10 -3 -7 -7z"/>
<path d="M133 53 c9 -2 25 -2 35 0 9 3 1 5 -18 5 -19 0 -27 -2 -17 -5z"/>
<path d="M233 53 c9 -2 23 -2 30 0 6 3 -1 5 -18 5 -16 0 -22 -2 -12 -5z"/>
<path d="M398 53 c7 -3 16 -2 19 1 4 3 -2 6 -13 5 -11 0 -14 -3 -6 -6z"/>
<path d="M543 53 c4 -3 10 -3 14 0 3 4 0 7 -7 7 -7 0 -10 -3 -7 -7z"/>
<path d="M703 53 c4 -3 10 -3 14 0 3 4 0 7 -7 7 -7 0 -10 -3 -7 -7z"/>
<path d="M773 53 c9 -2 25 -2 35 0 9 3 1 5 -18 5 -19 0 -27 -2 -17 -5z"/>
<path d="M873 53 c9 -2 23 -2 30 0 6 3 -1 5 -18 5 -16 0 -22 -2 -12 -5z"/>
<path d="M101 33 c0 -7 -11 -13 -23 -13 -12 0 -19 -2 -16 -5 3 -3 39 -6 79 -6
127 -1 129 0 129 19 0 10 -3 13 -8 6 -4 -6 -17 -13 -29 -16 -17 -5 -23 -2 -23
10 0 11 -3 13 -8 6 -4 -6 -26 -13 -49 -16 -32 -2 -43 0 -47 12 -2 8 -4 10 -5
3z"/>
<path d="M293 26 c-10 -11 -9 -15 2 -20 10 -4 15 1 15 14 0 23 -1 24 -17 6z"/>
<path d="M352 25 c-11 -12 -10 -15 3 -15 8 0 15 7 15 15 0 18 -2 18 -18 0z"/>
<path d="M420 31 c0 -5 -10 -12 -22 -14 -20 -4 -19 -4 5 -6 18 -1 27 4 27 14
0 8 -2 15 -5 15 -3 0 -5 -4 -5 -9z"/>
<path d="M580 31 c0 -5 -10 -12 -22 -14 -20 -4 -19 -4 5 -6 18 -1 27 4 27 14
0 8 -2 15 -5 15 -3 0 -5 -4 -5 -9z"/>
<path d="M613 25 c-8 -9 -9 -16 -3 -20 6 -3 13 1 16 10 9 21 2 26 -13 10z"/>
<path d="M741 33 c0 -7 -11 -13 -23 -13 -12 0 -19 -2 -16 -5 3 -3 39 -6 79 -6
127 -1 129 0 129 19 0 10 -3 13 -8 6 -4 -6 -17 -13 -29 -16 -17 -5 -23 -2 -23
10 0 11 -3 13 -8 6 -4 -6 -26 -13 -49 -16 -32 -2 -43 0 -47 12 -2 8 -4 10 -5
3z"/>
<path d="M933 26 c-10 -11 -9 -15 2 -20 10 -4 15 1 15 14 0 23 -1 24 -17 6z"/>
<path d="M30 20 c-8 -5 -12 -11 -9 -14 2 -3 11 -1 19 4 8 5 12 11 9 14 -2 3
-11 1 -19 -4z"/>
<path d="M670 20 c-8 -5 -12 -11 -9 -14 2 -3 11 -1 19 4 8 5 12 11 9 14 -2 3
-11 1 -19 -4z"/>
<path d="M444 13 c7 -7 77 -5 85 2 2 3 -17 5 -44 5 -27 0 -45 -3 -41 -7z"/>
</g>
  </g>
</svg>
