<?xml version="1.0" encoding="UTF-8" standalone="no"?>
<!-- Created with Inkscape (http://www.inkscape.org/) -->

<svg
   xmlns:dc="http://purl.org/dc/elements/1.1/"
   xmlns:cc="http://creativecommons.org/ns#"
   xmlns:rdf="http://www.w3.org/1999/02/22-rdf-syntax-ns#"
   xmlns:svg="http://www.w3.org/2000/svg"
   xmlns="http://www.w3.org/2000/svg"
   xmlns:sodipodi="http://sodipodi.sourceforge.net/DTD/sodipodi-0.dtd"
   xmlns:inkscape="http://www.inkscape.org/namespaces/inkscape"
   width="16px"
   height="16px"
   viewBox="0 0 16px 16px"
   version="1.1"
   id="svgMain"
   inkscape:version="0.92.2 (5c3e80d, 2017-08-06)"
   sodipodi:docname="reference_SVG.svg">
  <defs
     id="defs4542" />
  <sodipodi:namedview
     id="base"
     pagecolor="#ffffff"
     bordercolor="#666666"
     borderopacity="1.0"
     inkscape:pageopacity="0.0"
     inkscape:pageshadow="2"
     inkscape:zoom="1"
     inkscape:cx="0"
     inkscape:cy="0"
     inkscape:document-units="px"
     inkscape:current-layer="layer1"
     showgrid="false"
     units="px"
     inkscape:window-width="1024"
     inkscape:window-height="768"
     inkscape:window-x="-8"
     inkscape:window-y="-8"
     inkscape:window-maximized="1" />
  <metadata
     id="metadata1">
    <rdf:RDF>
      <cc:Work
         rdf:about="">
        <dc:format>image/svg+xml</dc:format>
        <dc:type
           rdf:resource="http://purl.org/dc/dcmitype/StillImage" />
        <dc:title />
      </cc:Work>
    </rdf:RDF>
  </metadata>
  <g transform="translate(-16,-16) scale(0.5,0.5)"
     inkscape:label="Layer 1"
     inkscape:groupmode="layer"
     id="layer1">
    <!-- INSERT MARKER -->
<g transform="translate(0.000000,96.000000) scale(0.100000,-0.100000)"
fill="#725643" stroke="none">
<path d="M112 748 c-20 -20 -15 -59 8 -65 11 -3 20 -14 20 -24 0 -12 7 -19 20
-19 13 0 20 7 20 19 0 10 9 21 20 24 23 6 28 45 8 65 -16 16 -80 16 -96 0z"/>
<path d="M432 748 c-20 -20 -15 -59 8 -65 11 -3 20 -14 20 -24 0 -12 7 -19 20
-19 13 0 20 7 20 19 0 10 9 21 20 24 23 6 28 45 8 65 -16 16 -80 16 -96 0z"/>
<path d="M752 748 c-20 -20 -15 -59 8 -65 11 -3 20 -14 20 -24 0 -12 7 -19 20
-19 13 0 20 7 20 19 0 10 9 21 20 24 23 6 28 45 8 65 -16 16 -80 16 -96 0z"/>
<path d="M112 428 c-20 -20 -15 -59 8 -65 11 -3 20 -14 20 -24 0 -12 7 -19 20
-19 13 0 20 7 20 19 0 10 9 21 20 24 23 6 28 45 8 65 -16 16 -80 16 -96 0z"/>
<path d="M432 428 c-20 -20 -15 -59 8 -65 11 -3 20 -14 20 -24 0 -12 7 -19 20
-19 13 0 20 7 20 19 0 10 9 21 20 24 13 3 20 14 20 29 0 34 -18 48 -60 48 -20
0 -41 -5 -48 -12z"/>
<path d="M752 428 c-20 -20 -15 -59 8 -65 11 -3 20 -14 20 -24 0 -12 7 -19 20
-19 13 0 20 7 20 19 0 10 9 21 20 24 13 3 20 14 20 29 0 34 -18 48 -60 48 -20
0 -41 -5 -48 -12z"/>
<path d="M112 108 c-20 -20 -15 -59 8 -65 11 -3 20 -14 20 -24 0 -12 7 -19 20
-19 13 0 20 7 20 19 0 10 9 21 20 24 23 6 28 45 8 65 -16 16 -80 16 -96 0z"/>
<path d="M432 108 c-20 -20 -15 -59 8 -65 11 -3 20 -14 20 -24 0 -12 7 -19 20
-19 13 0 20 7 20 19 0 10 9 21 20 24 23 6 28 45 8 65 -16 16 -80 16 -96 0z"/>
<path d="M752 108 c-20 -20 -15 -59 8 -65 11 -3 20 -14 20 -24 0 -12 7 -19 20
-19 13 0 20 7 20 19 0 10 9 21 20 24 23 6 28 45 8 65 -16 16 -80 16 -96 0z"/>
</g>
<g transform="translate(0.000000,96.000000) scale(0.100000,-0.100000)"
fill="#916d55" stroke="none">
<path d="M112 748 c-6 -6 -12 -22 -12 -35 0 -20 4 -23 28 -17 31 7 73 34 76
49 2 15 -77 18 -92 3z"/>
<path d="M432 748 c-6 -6 -12 -22 -12 -35 0 -20 4 -23 28 -17 31 7 73 34 76
49 2 15 -77 18 -92 3z"/>
<path d="M752 748 c-6 -6 -12 -22 -12 -35 0 -20 4 -23 28 -17 31 7 73 34 76
49 2 15 -77 18 -92 3z"/>
<path d="M140 660 c0 -13 7 -20 20 -20 13 0 20 7 20 20 0 13 -7 20 -20 20 -13
0 -20 -7 -20 -20z"/>
<path d="M460 660 c0 -13 7 -20 20 -20 13 0 20 7 20 20 0 13 -7 20 -20 20 -13
0 -20 -7 -20 -20z"/>
<path d="M780 660 c0 -13 7 -20 20 -20 13 0 20 7 20 20 0 13 -7 20 -20 20 -13
0 -20 -7 -20 -20z"/>
<path d="M112 428 c-6 -6 -12 -22 -12 -35 0 -20 4 -23 28 -17 31 7 73 34 76
49 2 15 -77 18 -92 3z"/>
<path d="M432 428 c-6 -6 -12 -22 -12 -35 0 -20 4 -23 28 -17 31 7 73 34 76
49 2 15 -77 18 -92 3z"/>
<path d="M752 428 c-6 -6 -12 -22 -12 -35 0 -20 4 -23 28 -17 31 7 73 34 76
49 2 15 -77 18 -92 3z"/>
<path d="M140 340 c0 -13 7 -20 20 -20 13 0 20 7 20 20 0 13 -7 20 -20 20 -13
0 -20 -7 -20 -20z"/>
<path d="M460 340 c0 -13 7 -20 20 -20 13 0 20 7 20 20 0 13 -7 20 -20 20 -13
0 -20 -7 -20 -20z"/>
<path d="M780 340 c0 -13 7 -20 20 -20 13 0 20 7 20 20 0 13 -7 20 -20 20 -13
0 -20 -7 -20 -20z"/>
<path d="M112 108 c-6 -6 -12 -22 -12 -35 0 -20 4 -23 28 -17 31 7 73 34 76
49 2 15 -77 18 -92 3z"/>
<path d="M432 108 c-6 -6 -12 -22 -12 -35 0 -20 4 -23 28 -17 31 7 73 34 76
49 2 15 -77 18 -92 3z"/>
<path d="M752 108 c-6 -6 -12 -22 -12 -35 0 -20 4 -23 28 -17 31 7 73 34 76
49 2 15 -77 18 -92 3z"/>
<path d="M140 20 c0 -13 7 -20 20 -20 13 0 20 7 20 20 0 13 -7 20 -20 20 -13
0 -20 -7 -20 -20z"/>
<path d="M460 20 c0 -13 7 -20 20 -20 13 0 20 7 20 20 0 13 -7 20 -20 20 -13
0 -20 -7 -20 -20z"/>
<path d="M780 20 c0 -13 7 -20 20 -20 13 0 20 7 20 20 0 13 -7 20 -20 20 -13
0 -20 -7 -20 -20z"/>
</g>
<g transform="translate(0.000000,96.000000) scale(0.100000,-0.100000)"
fill="#cc9978" stroke="none">
<path d="M112 748 c-7 -7 -12 -18 -12 -25 0 -9 12 -7 40 8 22 12 40 23 40 25
0 10 -57 3 -68 -8z"/>
<path d="M432 748 c-7 -7 -12 -18 -12 -25 0 -9 12 -7 40 8 22 12 40 23 40 25
0 10 -57 3 -68 -8z"/>
<path d="M752 748 c-7 -7 -12 -18 -12 -25 0 -9 12 -7 40 8 22 12 40 23 40 25
0 10 -57 3 -68 -8z"/>
<path d="M140 660 c0 -13 7 -20 20 -20 13 0 20 7 20 20 0 13 -7 20 -20 20 -13
0 -20 -7 -20 -20z"/>
<path d="M460 660 c0 -13 7 -20 20 -20 13 0 20 7 20 20 0 13 -7 20 -20 20 -13
0 -20 -7 -20 -20z"/>
<path d="M780 660 c0 -13 7 -20 20 -20 13 0 20 7 20 20 0 13 -7 20 -20 20 -13
0 -20 -7 -20 -20z"/>
<path d="M112 428 c-7 -7 -12 -18 -12 -25 0 -9 12 -7 40 8 22 12 40 23 40 25
0 10 -57 3 -68 -8z"/>
<path d="M432 428 c-7 -7 -12 -18 -12 -25 0 -9 12 -7 40 8 22 12 40 23 40 25
0 10 -57 3 -68 -8z"/>
<path d="M752 428 c-7 -7 -12 -18 -12 -25 0 -9 12 -7 40 8 22 12 40 23 40 25
0 10 -57 3 -68 -8z"/>
<path d="M140 340 c0 -13 7 -20 20 -20 13 0 20 7 20 20 0 13 -7 20 -20 20 -13
0 -20 -7 -20 -20z"/>
<path d="M460 340 c0 -13 7 -20 20 -20 13 0 20 7 20 20 0 13 -7 20 -20 20 -13
0 -20 -7 -20 -20z"/>
<path d="M780 340 c0 -13 7 -20 20 -20 13 0 20 7 20 20 0 13 -7 20 -20 20 -13
0 -20 -7 -20 -20z"/>
<path d="M112 108 c-7 -7 -12 -18 -12 -25 0 -9 12 -7 40 8 22 12 40 23 40 25
0 10 -57 3 -68 -8z"/>
<path d="M432 108 c-7 -7 -12 -18 -12 -25 0 -9 12 -7 40 8 22 12 40 23 40 25
0 10 -57 3 -68 -8z"/>
<path d="M752 108 c-7 -7 -12 -18 -12 -25 0 -9 12 -7 40 8 22 12 40 23 40 25
0 10 -57 3 -68 -8z"/>
<path d="M140 20 c0 -13 7 -20 20 -20 13 0 20 7 20 20 0 13 -7 20 -20 20 -13
0 -20 -7 -20 -20z"/>
<path d="M460 20 c0 -13 7 -20 20 -20 13 0 20 7 20 20 0 13 -7 20 -20 20 -13
0 -20 -7 -20 -20z"/>
<path d="M780 20 c0 -13 7 -20 20 -20 13 0 20 7 20 20 0 13 -7 20 -20 20 -13
0 -20 -7 -20 -20z"/>
</g>
<g transform="translate(0.000000,96.000000) scale(0.100000,-0.100000)"
fill="#685b52" stroke="none">
<path d="M140 660 c0 -13 7 -20 20 -20 13 0 20 7 20 20 0 13 -7 20 -20 20 -13
0 -20 -7 -20 -20z"/>
<path d="M460 660 c0 -13 7 -20 20 -20 13 0 20 7 20 20 0 13 -7 20 -20 20 -13
0 -20 -7 -20 -20z"/>
<path d="M780 660 c0 -13 7 -20 20 -20 13 0 20 7 20 20 0 13 -7 20 -20 20 -13
0 -20 -7 -20 -20z"/>
<path d="M140 340 c0 -13 7 -20 20 -20 13 0 20 7 20 20 0 13 -7 20 -20 20 -13
0 -20 -7 -20 -20z"/>
<path d="M460 340 c0 -13 7 -20 20 -20 13 0 20 7 20 20 0 13 -7 20 -20 20 -13
0 -20 -7 -20 -20z"/>
<path d="M780 340 c0 -13 7 -20 20 -20 13 0 20 7 20 20 0 13 -7 20 -20 20 -13
0 -20 -7 -20 -20z"/>
<path d="M140 20 c0 -13 7 -20 20 -20 13 0 20 7 20 20 0 13 -7 20 -20 20 -13
0 -20 -7 -20 -20z"/>
<path d="M460 20 c0 -13 7 -20 20 -20 13 0 20 7 20 20 0 13 -7 20 -20 20 -13
0 -20 -7 -20 -20z"/>
<path d="M780 20 c0 -13 7 -20 20 -20 13 0 20 7 20 20 0 13 -7 20 -20 20 -13
0 -20 -7 -20 -20z"/>
</g>
<g transform="translate(0.000000,96.000000) scale(0.100000,-0.100000)"
fill="#49403a" stroke="none">
<path d="M155 661 c3 -22 25 -26 25 -3 0 10 -6 19 -14 19 -7 0 -13 -7 -11 -16z
m15 -6 c0 -3 -2 -5 -5 -5 -3 0 -5 2 -5 5 0 3 2 5 5 5 3 0 5 -2 5 -5z"/>
<path d="M475 661 c3 -22 25 -26 25 -3 0 10 -6 19 -14 19 -7 0 -13 -7 -11 -16z
m15 -6 c0 -3 -2 -5 -5 -5 -3 0 -5 2 -5 5 0 3 2 5 5 5 3 0 5 -2 5 -5z"/>
<path d="M795 661 c3 -22 25 -26 25 -3 0 10 -6 19 -14 19 -7 0 -13 -7 -11 -16z
m15 -6 c0 -3 -2 -5 -5 -5 -3 0 -5 2 -5 5 0 3 2 5 5 5 3 0 5 -2 5 -5z"/>
<path d="M155 341 c3 -22 25 -26 25 -3 0 10 -6 19 -14 19 -7 0 -13 -7 -11 -16z
m15 -6 c0 -3 -2 -5 -5 -5 -3 0 -5 2 -5 5 0 3 2 5 5 5 3 0 5 -2 5 -5z"/>
<path d="M475 341 c3 -22 25 -26 25 -3 0 10 -6 19 -14 19 -7 0 -13 -7 -11 -16z
m15 -6 c0 -3 -2 -5 -5 -5 -3 0 -5 2 -5 5 0 3 2 5 5 5 3 0 5 -2 5 -5z"/>
<path d="M795 341 c3 -22 25 -26 25 -3 0 10 -6 19 -14 19 -7 0 -13 -7 -11 -16z
m15 -6 c0 -3 -2 -5 -5 -5 -3 0 -5 2 -5 5 0 3 2 5 5 5 3 0 5 -2 5 -5z"/>
<path d="M155 21 c3 -22 25 -26 25 -4 0 11 -6 20 -14 20 -7 0 -13 -7 -11 -16z
m15 -6 c0 -3 -2 -5 -5 -5 -3 0 -5 2 -5 5 0 3 2 5 5 5 3 0 5 -2 5 -5z"/>
<path d="M475 21 c3 -22 25 -26 25 -4 0 11 -6 20 -14 20 -7 0 -13 -7 -11 -16z
m15 -6 c0 -3 -2 -5 -5 -5 -3 0 -5 2 -5 5 0 3 2 5 5 5 3 0 5 -2 5 -5z"/>
<path d="M795 21 c3 -22 25 -26 25 -4 0 11 -6 20 -14 20 -7 0 -13 -7 -11 -16z
m15 -6 c0 -3 -2 -5 -5 -5 -3 0 -5 2 -5 5 0 3 2 5 5 5 3 0 5 -2 5 -5z"/>
</g>
  </g>
</svg>
