<?xml version="1.0" encoding="UTF-8" standalone="no"?>
<!-- Created with Inkscape (http://www.inkscape.org/) -->

<svg
   xmlns:dc="http://purl.org/dc/elements/1.1/"
   xmlns:cc="http://creativecommons.org/ns#"
   xmlns:rdf="http://www.w3.org/1999/02/22-rdf-syntax-ns#"
   xmlns:svg="http://www.w3.org/2000/svg"
   xmlns="http://www.w3.org/2000/svg"
   xmlns:sodipodi="http://sodipodi.sourceforge.net/DTD/sodipodi-0.dtd"
   xmlns:inkscape="http://www.inkscape.org/namespaces/inkscape"
   width="16px"
   height="16px"
   viewBox="0 0 16px 16px"
   version="1.1"
   id="svgMain"
   inkscape:version="0.92.2 (5c3e80d, 2017-08-06)"
   sodipodi:docname="reference_SVG.svg">
  <defs
     id="defs4542" />
  <sodipodi:namedview
     id="base"
     pagecolor="#ffffff"
     bordercolor="#666666"
     borderopacity="1.0"
     inkscape:pageopacity="0.0"
     inkscape:pageshadow="2"
     inkscape:zoom="1"
     inkscape:cx="0"
     inkscape:cy="0"
     inkscape:document-units="px"
     inkscape:current-layer="layer1"
     showgrid="false"
     units="px"
     inkscape:window-width="1024"
     inkscape:window-height="768"
     inkscape:window-x="-8"
     inkscape:window-y="-8"
     inkscape:window-maximized="1" />
  <metadata
     id="metadata1">
    <rdf:RDF>
      <cc:Work
         rdf:about="">
        <dc:format>image/svg+xml</dc:format>
        <dc:type
           rdf:resource="http://purl.org/dc/dcmitype/StillImage" />
        <dc:title />
      </cc:Work>
    </rdf:RDF>
  </metadata>
  <g transform="translate(-16,-16) scale(0.5,0.5)"
     inkscape:label="Layer 1"
     inkscape:groupmode="layer"
     id="layer1">
    <!-- INSERT MARKER -->
<g transform="translate(0.000000,96.000000) scale(0.100000,-0.100000)"
fill="#70081c" stroke="none">
<path d="M192 748 c-15 -15 -16 -44 -2 -53 6 -3 10 -17 10 -31 0 -20 5 -24 30
-24 23 0 30 4 30 20 0 11 6 29 12 40 10 15 10 25 2 38 -13 21 -64 28 -82 10z"/>
<path d="M512 748 c-15 -15 -16 -44 -2 -53 6 -3 10 -17 10 -31 0 -20 5 -24 30
-24 23 0 30 4 30 20 0 11 6 29 12 40 10 15 10 25 2 38 -13 21 -64 28 -82 10z"/>
<path d="M832 748 c-15 -15 -16 -44 -2 -53 6 -3 10 -17 10 -31 0 -20 5 -24 30
-24 23 0 30 4 30 20 0 11 6 29 12 40 10 15 10 25 2 38 -13 21 -64 28 -82 10z"/>
<path d="M52 728 c-26 -26 0 -88 38 -88 31 0 59 53 43 79 -13 20 -64 26 -81 9z"/>
<path d="M372 728 c-26 -26 0 -88 38 -88 31 0 59 53 43 79 -13 20 -64 26 -81
9z"/>
<path d="M692 728 c-26 -26 0 -88 38 -88 31 0 59 53 43 79 -13 20 -64 26 -81
9z"/>
<path d="M145 650 c-3 -5 3 -10 15 -10 12 0 18 5 15 10 -3 6 -10 10 -15 10 -5
0 -12 -4 -15 -10z"/>
<path d="M465 650 c-3 -5 3 -10 15 -10 12 0 18 5 15 10 -3 6 -10 10 -15 10 -5
0 -12 -4 -15 -10z"/>
<path d="M785 650 c-3 -5 3 -10 15 -10 12 0 18 5 15 10 -3 6 -10 10 -15 10 -5
0 -12 -4 -15 -10z"/>
<path d="M192 428 c-15 -15 -16 -44 -2 -53 6 -3 10 -17 10 -31 0 -20 5 -24 30
-24 23 0 30 4 30 20 0 11 6 29 12 40 10 15 10 25 2 38 -13 21 -64 28 -82 10z"/>
<path d="M512 428 c-15 -15 -16 -44 -2 -53 6 -3 10 -17 10 -31 0 -20 5 -24 30
-24 23 0 30 4 30 20 0 11 6 29 12 40 10 15 10 25 2 38 -13 21 -64 28 -82 10z"/>
<path d="M832 428 c-15 -15 -16 -44 -2 -53 6 -3 10 -17 10 -31 0 -20 5 -24 30
-24 23 0 30 4 30 20 0 11 6 29 12 40 10 15 10 25 2 38 -13 21 -64 28 -82 10z"/>
<path d="M52 408 c-26 -26 0 -88 38 -88 31 0 59 53 43 79 -13 20 -64 26 -81 9z"/>
<path d="M372 408 c-26 -26 0 -88 38 -88 31 0 59 53 43 79 -13 20 -64 26 -81
9z"/>
<path d="M692 408 c-26 -26 0 -88 38 -88 31 0 59 53 43 79 -13 20 -64 26 -81
9z"/>
<path d="M145 330 c-3 -5 3 -10 15 -10 12 0 18 5 15 10 -3 6 -10 10 -15 10 -5
0 -12 -4 -15 -10z"/>
<path d="M465 330 c-3 -5 3 -10 15 -10 12 0 18 5 15 10 -3 6 -10 10 -15 10 -5
0 -12 -4 -15 -10z"/>
<path d="M785 330 c-3 -5 3 -10 15 -10 12 0 18 5 15 10 -3 6 -10 10 -15 10 -5
0 -12 -4 -15 -10z"/>
<path d="M192 108 c-15 -15 -16 -44 -2 -53 6 -3 10 -17 10 -31 0 -20 5 -24 30
-24 23 0 30 4 30 20 0 11 6 29 12 40 10 15 10 25 2 38 -13 21 -64 28 -82 10z"/>
<path d="M512 108 c-15 -15 -16 -44 -2 -53 6 -3 10 -17 10 -31 0 -20 5 -24 30
-24 23 0 30 4 30 20 0 11 6 29 12 40 10 15 10 25 2 38 -13 21 -64 28 -82 10z"/>
<path d="M832 108 c-15 -15 -16 -44 -2 -53 6 -3 10 -17 10 -31 0 -20 5 -24 30
-24 23 0 30 4 30 20 0 11 6 29 12 40 10 15 10 25 2 38 -13 21 -64 28 -82 10z"/>
<path d="M52 88 c-26 -26 0 -88 38 -88 31 0 59 53 43 79 -13 20 -64 26 -81 9z"/>
<path d="M372 88 c-26 -26 0 -88 38 -88 31 0 59 53 43 79 -13 20 -64 26 -81 9z"/>
<path d="M692 88 c-26 -26 0 -88 38 -88 31 0 59 53 43 79 -13 20 -64 26 -81 9z"/>
<path d="M145 10 c-3 -5 3 -10 15 -10 12 0 18 5 15 10 -3 6 -10 10 -15 10 -5
0 -12 -4 -15 -10z"/>
<path d="M465 10 c-3 -5 3 -10 15 -10 12 0 18 5 15 10 -3 6 -10 10 -15 10 -5
0 -12 -4 -15 -10z"/>
<path d="M785 10 c-3 -5 3 -10 15 -10 12 0 18 5 15 10 -3 6 -10 10 -15 10 -5
0 -12 -4 -15 -10z"/>
</g>
<g transform="translate(0.000000,96.000000) scale(0.100000,-0.100000)"
fill="#93283c" stroke="none">
<path d="M192 748 c-15 -15 -16 -44 -2 -53 6 -3 11 -18 11 -33 1 -23 3 -22 8
8 4 22 12 35 21 35 9 0 17 -13 21 -35 4 -22 7 -26 8 -12 0 12 7 31 13 42 10
15 10 25 2 38 -13 21 -64 28 -82 10z"/>
<path d="M512 748 c-15 -15 -16 -44 -2 -53 6 -3 11 -18 11 -33 1 -23 3 -22 8
8 4 22 12 35 21 35 9 0 17 -13 21 -35 4 -22 7 -26 8 -12 0 12 7 31 13 42 10
15 10 25 2 38 -13 21 -64 28 -82 10z"/>
<path d="M832 748 c-15 -15 -16 -44 -2 -53 6 -3 11 -18 11 -33 1 -23 3 -22 8
8 4 22 12 35 21 35 9 0 17 -13 21 -35 4 -22 7 -26 8 -12 0 12 7 31 13 42 10
15 10 25 2 38 -13 21 -64 28 -82 10z"/>
<path d="M52 728 c-16 -16 -15 -30 4 -64 l16 -29 -5 26 c-3 22 2 30 30 43 32
15 33 15 33 -4 0 -11 -4 -20 -10 -20 -5 0 -10 -10 -10 -22 0 -20 3 -18 17 11
12 24 14 38 6 50 -12 20 -64 26 -81 9z"/>
<path d="M372 728 c-16 -16 -15 -30 4 -64 l16 -29 -5 26 c-3 22 2 30 30 43 32
15 33 15 33 -4 0 -11 -4 -20 -10 -20 -5 0 -10 -10 -10 -22 0 -20 3 -18 17 11
12 24 14 38 6 50 -12 20 -64 26 -81 9z"/>
<path d="M692 728 c-16 -16 -15 -30 4 -64 l16 -29 -5 26 c-3 22 2 30 30 43 32
15 33 15 33 -4 0 -11 -4 -20 -10 -20 -5 0 -10 -10 -10 -22 0 -20 3 -18 17 11
12 24 14 38 6 50 -12 20 -64 26 -81 9z"/>
<path d="M145 651 c-3 -6 3 -9 14 -8 11 0 17 5 15 9 -7 11 -22 10 -29 -1z"/>
<path d="M465 651 c-3 -6 3 -9 14 -8 11 0 17 5 15 9 -7 11 -22 10 -29 -1z"/>
<path d="M785 651 c-3 -6 3 -9 14 -8 11 0 17 5 15 9 -7 11 -22 10 -29 -1z"/>
<path d="M192 428 c-15 -15 -16 -44 -2 -53 6 -3 11 -18 11 -33 1 -23 3 -22 8
8 8 47 34 47 42 0 4 -22 7 -26 8 -12 0 12 7 31 13 42 10 15 10 25 2 38 -13 21
-64 28 -82 10z"/>
<path d="M512 428 c-15 -15 -16 -44 -2 -53 6 -3 11 -18 11 -33 1 -23 3 -22 8
8 4 22 12 35 21 35 9 0 17 -13 21 -35 4 -22 7 -26 8 -12 0 12 7 31 13 42 10
15 10 25 2 38 -13 21 -64 28 -82 10z"/>
<path d="M832 428 c-15 -15 -16 -44 -2 -53 6 -3 11 -18 11 -33 1 -23 3 -22 8
8 4 22 12 35 21 35 9 0 17 -13 21 -35 4 -22 7 -26 8 -12 0 12 7 31 13 42 10
15 10 25 2 38 -13 21 -64 28 -82 10z"/>
<path d="M52 408 c-16 -16 -15 -30 4 -64 l16 -29 -5 26 c-3 22 2 30 30 43 32
15 33 15 33 -4 0 -11 -4 -20 -10 -20 -5 0 -10 -10 -10 -22 0 -20 3 -18 17 11
12 24 14 38 6 50 -12 20 -64 26 -81 9z"/>
<path d="M372 408 c-16 -16 -15 -30 4 -64 l16 -29 -5 26 c-3 22 2 30 30 43 32
15 33 15 33 -4 0 -11 -4 -20 -10 -20 -5 0 -10 -10 -10 -22 0 -20 3 -18 17 11
12 24 14 38 6 50 -12 20 -64 26 -81 9z"/>
<path d="M692 408 c-16 -16 -15 -30 4 -64 l16 -29 -5 26 c-3 22 2 30 30 43 32
15 33 15 33 -4 0 -11 -4 -20 -10 -20 -5 0 -10 -10 -10 -22 0 -20 3 -18 17 11
12 24 14 38 6 50 -12 20 -64 26 -81 9z"/>
<path d="M145 331 c-3 -6 3 -9 14 -8 11 0 17 5 15 9 -7 11 -22 10 -29 -1z"/>
<path d="M465 331 c-3 -6 3 -9 14 -8 11 0 17 5 15 9 -7 11 -22 10 -29 -1z"/>
<path d="M785 331 c-3 -6 3 -9 14 -8 11 0 17 5 15 9 -7 11 -22 10 -29 -1z"/>
<path d="M192 108 c-15 -15 -16 -44 -2 -53 6 -3 11 -18 11 -33 1 -23 3 -22 8
8 8 47 34 47 42 0 4 -22 7 -26 8 -12 0 12 7 31 13 42 10 15 10 25 2 38 -13 21
-64 28 -82 10z"/>
<path d="M512 108 c-15 -15 -16 -44 -2 -53 6 -3 11 -18 11 -33 1 -23 3 -22 8
8 4 22 12 35 21 35 9 0 17 -13 21 -35 4 -22 7 -26 8 -12 0 12 7 31 13 42 10
15 10 25 2 38 -13 21 -64 28 -82 10z"/>
<path d="M832 108 c-15 -15 -16 -44 -2 -53 6 -3 11 -18 11 -33 1 -23 3 -22 8
8 4 22 12 35 21 35 9 0 17 -13 21 -35 4 -22 7 -26 8 -12 0 12 7 31 13 42 10
15 10 25 2 38 -13 21 -64 28 -82 10z"/>
<path d="M52 88 c-16 -16 -15 -30 4 -64 l16 -29 -5 26 c-3 22 2 30 30 43 32
15 33 15 33 -4 0 -11 -4 -20 -10 -20 -5 0 -10 -10 -10 -22 0 -20 3 -18 17 11
12 24 14 38 6 50 -12 20 -64 26 -81 9z"/>
<path d="M372 88 c-16 -16 -15 -30 4 -64 l16 -29 -5 26 c-3 22 2 30 30 43 32
15 33 15 33 -4 0 -11 -4 -20 -10 -20 -5 0 -10 -10 -10 -22 0 -20 3 -18 17 11
12 24 14 38 6 50 -12 20 -64 26 -81 9z"/>
<path d="M692 88 c-16 -16 -15 -30 4 -64 l16 -29 -5 26 c-3 22 2 30 30 43 32
15 33 15 33 -4 0 -11 -4 -20 -10 -20 -5 0 -10 -10 -10 -22 0 -20 3 -18 17 11
12 24 14 38 6 50 -12 20 -64 26 -81 9z"/>
<path d="M145 11 c-3 -6 3 -9 14 -8 11 0 17 5 15 9 -7 11 -22 10 -29 -1z"/>
<path d="M465 11 c-3 -6 3 -9 14 -8 11 0 17 5 15 9 -7 11 -22 10 -29 -1z"/>
<path d="M785 11 c-3 -6 3 -9 14 -8 11 0 17 5 15 9 -7 11 -22 10 -29 -1z"/>
</g>
<g transform="translate(0.000000,96.000000) scale(0.100000,-0.100000)"
fill="#6d1021" stroke="none">
<path d="M192 748 c-14 -14 -16 -40 -3 -53 5 -6 11 -21 14 -35 4 -21 4 -20 6
8 0 17 -3 32 -9 32 -13 0 -13 37 -1 45 5 3 12 1 16 -5 3 -5 13 -10 21 -10 8 0
12 5 9 10 -3 6 -2 10 4 10 17 0 22 -18 7 -27 -10 -6 -12 -18 -6 -48 4 -22 8
-30 9 -17 0 12 7 31 13 42 10 15 10 25 2 38 -13 21 -64 28 -82 10z"/>
<path d="M512 748 c-14 -14 -16 -40 -3 -53 5 -6 11 -21 14 -35 4 -21 4 -20 6
8 0 17 -3 32 -9 32 -13 0 -13 37 -1 45 5 3 12 1 16 -5 3 -5 13 -10 21 -10 8 0
12 5 9 10 -3 6 -2 10 4 10 17 0 22 -18 7 -27 -10 -6 -12 -18 -6 -48 4 -22 8
-30 9 -17 0 12 7 31 13 42 10 15 10 25 2 38 -13 21 -64 28 -82 10z"/>
<path d="M832 748 c-14 -14 -16 -40 -3 -53 5 -6 11 -21 14 -35 4 -21 4 -20 6
8 0 17 -3 32 -9 32 -13 0 -13 37 -1 45 5 3 12 1 16 -5 3 -5 13 -10 21 -10 8 0
12 5 9 10 -3 6 -2 10 4 10 17 0 22 -18 7 -27 -10 -6 -12 -18 -6 -48 4 -22 8
-30 9 -17 0 12 7 31 13 42 10 15 10 25 2 38 -13 21 -64 28 -82 10z"/>
<path d="M52 728 c-16 -16 -15 -29 3 -64 14 -27 15 -27 15 -6 0 12 -5 22 -11
22 -6 0 -9 10 -7 23 2 18 9 22 38 22 29 0 36 -4 38 -22 2 -13 -1 -23 -7 -23
-6 0 -11 -10 -11 -22 0 -20 3 -18 17 11 12 24 14 38 6 50 -12 20 -64 26 -81 9z"/>
<path d="M372 728 c-16 -16 -15 -29 3 -64 14 -27 15 -27 15 -6 0 12 -5 22 -11
22 -6 0 -9 10 -7 23 2 18 9 22 38 22 29 0 36 -4 38 -22 2 -13 -1 -23 -7 -23
-6 0 -11 -10 -11 -22 0 -20 3 -18 17 11 12 24 14 38 6 50 -12 20 -64 26 -81 9z"/>
<path d="M692 728 c-16 -16 -15 -29 3 -64 14 -27 15 -27 15 -6 0 12 -5 22 -11
22 -6 0 -9 10 -7 23 2 18 9 22 38 22 29 0 36 -4 38 -22 2 -13 -1 -23 -7 -23
-6 0 -11 -10 -11 -22 0 -20 3 -18 17 11 12 24 14 38 6 50 -12 20 -64 26 -81 9z"/>
<path d="M146 652 c-2 -4 4 -8 14 -8 10 0 16 4 14 8 -3 4 -9 8 -14 8 -5 0 -11
-4 -14 -8z"/>
<path d="M466 652 c-2 -4 4 -8 14 -8 10 0 16 4 14 8 -3 4 -9 8 -14 8 -5 0 -11
-4 -14 -8z"/>
<path d="M786 652 c-2 -4 4 -8 14 -8 10 0 16 4 14 8 -3 4 -9 8 -14 8 -5 0 -11
-4 -14 -8z"/>
<path d="M192 428 c-14 -14 -16 -40 -3 -53 5 -6 11 -21 14 -35 4 -21 4 -20 6
8 0 17 -3 32 -9 32 -13 0 -13 37 -1 45 5 3 12 1 16 -5 3 -5 13 -10 21 -10 8 0
12 5 9 10 -3 6 -2 10 4 10 17 0 22 -18 7 -27 -10 -6 -12 -18 -6 -48 4 -22 8
-30 9 -17 0 12 7 31 13 42 10 15 10 25 2 38 -13 21 -64 28 -82 10z"/>
<path d="M512 428 c-14 -14 -16 -40 -3 -53 5 -6 11 -21 14 -35 4 -21 4 -20 6
8 0 17 -3 32 -9 32 -13 0 -13 37 -1 45 5 3 12 1 16 -5 3 -5 13 -10 21 -10 8 0
12 5 9 10 -3 6 -2 10 4 10 17 0 22 -18 7 -27 -10 -6 -12 -18 -6 -48 4 -22 8
-30 9 -17 0 12 7 31 13 42 10 15 10 25 2 38 -13 21 -64 28 -82 10z"/>
<path d="M832 428 c-14 -14 -16 -40 -3 -53 5 -6 11 -21 14 -35 4 -21 4 -20 6
8 0 17 -3 32 -9 32 -13 0 -13 37 -1 45 5 3 12 1 16 -5 3 -5 13 -10 21 -10 8 0
12 5 9 10 -3 6 -2 10 4 10 17 0 22 -18 7 -27 -10 -6 -12 -18 -6 -48 4 -22 8
-30 9 -17 0 12 7 31 13 42 10 15 10 25 2 38 -13 21 -64 28 -82 10z"/>
<path d="M52 408 c-16 -16 -15 -29 3 -64 14 -27 15 -27 15 -6 0 12 -5 22 -11
22 -6 0 -9 10 -7 23 2 18 9 22 38 22 29 0 36 -4 38 -22 2 -13 -1 -23 -7 -23
-6 0 -11 -10 -11 -22 0 -20 3 -18 17 11 12 24 14 38 6 50 -12 20 -64 26 -81 9z"/>
<path d="M372 408 c-16 -16 -15 -29 3 -64 14 -27 15 -27 15 -6 0 12 -5 22 -11
22 -6 0 -9 10 -7 23 2 18 9 22 38 22 29 0 36 -4 38 -22 2 -13 -1 -23 -7 -23
-6 0 -11 -10 -11 -22 0 -20 3 -18 17 11 12 24 14 38 6 50 -12 20 -64 26 -81 9z"/>
<path d="M692 408 c-16 -16 -15 -29 3 -64 14 -27 15 -27 15 -6 0 12 -5 22 -11
22 -6 0 -9 10 -7 23 2 18 9 22 38 22 29 0 36 -4 38 -22 2 -13 -1 -23 -7 -23
-6 0 -11 -10 -11 -22 0 -20 3 -18 17 11 12 24 14 38 6 50 -12 20 -64 26 -81 9z"/>
<path d="M146 332 c-2 -4 4 -8 14 -8 10 0 16 4 14 8 -3 4 -9 8 -14 8 -5 0 -11
-4 -14 -8z"/>
<path d="M466 332 c-2 -4 4 -8 14 -8 10 0 16 4 14 8 -3 4 -9 8 -14 8 -5 0 -11
-4 -14 -8z"/>
<path d="M786 332 c-2 -4 4 -8 14 -8 10 0 16 4 14 8 -3 4 -9 8 -14 8 -5 0 -11
-4 -14 -8z"/>
<path d="M192 108 c-14 -14 -16 -40 -3 -53 5 -6 11 -21 14 -35 4 -21 4 -20 6
8 0 17 -3 32 -9 32 -13 0 -13 37 -1 45 5 3 12 1 16 -5 3 -5 13 -10 21 -10 8 0
12 5 9 10 -3 6 -2 10 4 10 17 0 22 -18 7 -27 -10 -6 -12 -18 -6 -48 4 -22 8
-30 9 -17 0 12 7 31 13 42 10 15 10 25 2 38 -13 21 -64 28 -82 10z"/>
<path d="M512 108 c-14 -14 -16 -40 -3 -53 5 -6 11 -21 14 -35 4 -21 4 -20 6
8 0 17 -3 32 -9 32 -13 0 -13 37 -1 45 5 3 12 1 16 -5 3 -5 13 -10 21 -10 8 0
12 5 9 10 -3 6 -2 10 4 10 17 0 22 -18 7 -27 -10 -6 -12 -18 -6 -48 4 -22 8
-30 9 -17 0 12 7 31 13 42 10 15 10 25 2 38 -13 21 -64 28 -82 10z"/>
<path d="M832 108 c-14 -14 -16 -40 -3 -53 5 -6 11 -21 14 -35 4 -21 4 -20 6
8 0 17 -3 32 -9 32 -13 0 -13 37 -1 45 5 3 12 1 16 -5 3 -5 13 -10 21 -10 8 0
12 5 9 10 -3 6 -2 10 4 10 17 0 22 -18 7 -27 -10 -6 -12 -18 -6 -48 4 -22 8
-30 9 -17 0 12 7 31 13 42 10 15 10 25 2 38 -13 21 -64 28 -82 10z"/>
<path d="M52 88 c-16 -16 -15 -29 3 -64 14 -27 15 -27 15 -6 0 12 -5 22 -11
22 -6 0 -9 10 -7 23 2 18 9 22 38 22 29 0 36 -4 38 -22 2 -13 -1 -23 -7 -23
-6 0 -11 -10 -11 -22 0 -20 3 -18 17 11 12 24 14 38 6 50 -12 20 -64 26 -81 9z"/>
<path d="M372 88 c-16 -16 -15 -29 3 -64 14 -27 15 -27 15 -6 0 12 -5 22 -11
22 -6 0 -9 10 -7 23 2 18 9 22 38 22 29 0 36 -4 38 -22 2 -13 -1 -23 -7 -23
-6 0 -11 -10 -11 -22 0 -20 3 -18 17 11 12 24 14 38 6 50 -12 20 -64 26 -81 9z"/>
<path d="M692 88 c-16 -16 -15 -29 3 -64 14 -27 15 -27 15 -6 0 12 -5 22 -11
22 -6 0 -9 10 -7 23 2 18 9 22 38 22 29 0 36 -4 38 -22 2 -13 -1 -23 -7 -23
-6 0 -11 -10 -11 -22 0 -20 3 -18 17 11 12 24 14 38 6 50 -12 20 -64 26 -81 9z"/>
<path d="M146 12 c-2 -4 4 -8 14 -8 10 0 16 4 14 8 -7 10 -21 10 -28 0z"/>
<path d="M466 12 c-2 -4 4 -8 14 -8 10 0 16 4 14 8 -7 10 -21 10 -28 0z"/>
<path d="M786 12 c-2 -4 4 -8 14 -8 10 0 16 4 14 8 -7 10 -21 10 -28 0z"/>
</g>
<g transform="translate(0.000000,96.000000) scale(0.100000,-0.100000)"
fill="#5c0615" stroke="none">
<path d="M215 740 c3 -5 13 -10 21 -10 8 0 12 5 9 10 -3 6 -13 10 -21 10 -8 0
-12 -4 -9 -10z"/>
<path d="M535 740 c3 -5 13 -10 21 -10 8 0 12 5 9 10 -3 6 -13 10 -21 10 -8 0
-12 -4 -9 -10z"/>
<path d="M855 740 c3 -5 13 -10 21 -10 8 0 12 5 9 10 -3 6 -13 10 -21 10 -8 0
-12 -4 -9 -10z"/>
<path d="M128 705 c2 -15 0 -25 -7 -25 -6 0 -11 -10 -11 -22 0 -21 1 -21 15 6
17 32 19 52 6 60 -4 3 -6 -6 -3 -19z"/>
<path d="M254 722 c-8 -5 -9 -20 -4 -47 6 -30 8 -33 9 -13 0 15 6 30 11 33 12
7 14 35 3 35 -5 0 -13 -4 -19 -8z"/>
<path d="M448 705 c2 -15 0 -25 -7 -25 -6 0 -11 -10 -11 -22 0 -21 1 -21 15 6
17 32 19 52 6 60 -4 3 -6 -6 -3 -19z"/>
<path d="M574 722 c-8 -5 -9 -20 -4 -47 6 -30 8 -33 9 -13 0 15 6 30 11 33 12
7 14 35 3 35 -5 0 -13 -4 -19 -8z"/>
<path d="M768 705 c2 -15 0 -25 -7 -25 -6 0 -11 -10 -11 -22 0 -21 1 -21 15 6
17 32 19 52 6 60 -4 3 -6 -6 -3 -19z"/>
<path d="M894 722 c-8 -5 -9 -20 -4 -47 6 -30 8 -33 9 -13 0 15 6 30 11 33 12
7 14 35 3 35 -5 0 -13 -4 -19 -8z"/>
<path d="M202 670 c0 -19 2 -27 5 -17 2 9 2 25 0 35 -3 9 -5 1 -5 -18z"/>
<path d="M522 670 c0 -19 2 -27 5 -17 2 9 2 25 0 35 -3 9 -5 1 -5 -18z"/>
<path d="M842 670 c0 -19 2 -27 5 -17 2 9 2 25 0 35 -3 9 -5 1 -5 -18z"/>
<path d="M57 660 c3 -11 7 -20 9 -20 2 0 4 9 4 20 0 11 -4 20 -9 20 -5 0 -7
-9 -4 -20z"/>
<path d="M377 660 c3 -11 7 -20 9 -20 2 0 4 9 4 20 0 11 -4 20 -9 20 -5 0 -7
-9 -4 -20z"/>
<path d="M697 660 c3 -11 7 -20 9 -20 2 0 4 9 4 20 0 11 -4 20 -9 20 -5 0 -7
-9 -4 -20z"/>
<path d="M146 652 c-2 -4 4 -8 14 -8 10 0 16 4 14 8 -3 4 -9 8 -14 8 -5 0 -11
-4 -14 -8z"/>
<path d="M466 652 c-2 -4 4 -8 14 -8 10 0 16 4 14 8 -3 4 -9 8 -14 8 -5 0 -11
-4 -14 -8z"/>
<path d="M786 652 c-2 -4 4 -8 14 -8 10 0 16 4 14 8 -3 4 -9 8 -14 8 -5 0 -11
-4 -14 -8z"/>
<path d="M215 420 c3 -5 13 -10 21 -10 8 0 12 5 9 10 -3 6 -13 10 -21 10 -8 0
-12 -4 -9 -10z"/>
<path d="M535 420 c3 -5 13 -10 21 -10 8 0 12 5 9 10 -3 6 -13 10 -21 10 -8 0
-12 -4 -9 -10z"/>
<path d="M855 420 c3 -5 13 -10 21 -10 8 0 12 5 9 10 -3 6 -13 10 -21 10 -8 0
-12 -4 -9 -10z"/>
<path d="M128 385 c2 -15 0 -25 -7 -25 -6 0 -11 -10 -11 -22 0 -21 1 -21 15 6
17 32 19 52 6 60 -4 3 -6 -6 -3 -19z"/>
<path d="M254 402 c-8 -5 -9 -20 -4 -47 6 -30 8 -33 9 -13 0 15 6 30 11 33 12
7 14 35 3 35 -5 0 -13 -4 -19 -8z"/>
<path d="M448 385 c2 -15 0 -25 -7 -25 -6 0 -11 -10 -11 -22 0 -21 1 -21 15 6
17 32 19 52 6 60 -4 3 -6 -6 -3 -19z"/>
<path d="M574 402 c-8 -5 -9 -20 -4 -47 6 -30 8 -33 9 -13 0 15 6 30 11 33 12
7 14 35 3 35 -5 0 -13 -4 -19 -8z"/>
<path d="M768 385 c2 -15 0 -25 -7 -25 -6 0 -11 -10 -11 -22 0 -21 1 -21 15 6
17 32 19 52 6 60 -4 3 -6 -6 -3 -19z"/>
<path d="M894 402 c-8 -5 -9 -20 -4 -47 6 -30 8 -33 9 -13 0 15 6 30 11 33 12
7 14 35 3 35 -5 0 -13 -4 -19 -8z"/>
<path d="M202 350 c0 -19 2 -27 5 -17 2 9 2 25 0 35 -3 9 -5 1 -5 -18z"/>
<path d="M522 350 c0 -19 2 -27 5 -17 2 9 2 25 0 35 -3 9 -5 1 -5 -18z"/>
<path d="M842 350 c0 -19 2 -27 5 -17 2 9 2 25 0 35 -3 9 -5 1 -5 -18z"/>
<path d="M57 340 c3 -11 7 -20 9 -20 2 0 4 9 4 20 0 11 -4 20 -9 20 -5 0 -7
-9 -4 -20z"/>
<path d="M377 340 c3 -11 7 -20 9 -20 2 0 4 9 4 20 0 11 -4 20 -9 20 -5 0 -7
-9 -4 -20z"/>
<path d="M697 340 c3 -11 7 -20 9 -20 2 0 4 9 4 20 0 11 -4 20 -9 20 -5 0 -7
-9 -4 -20z"/>
<path d="M146 332 c-2 -4 4 -8 14 -8 10 0 16 4 14 8 -3 4 -9 8 -14 8 -5 0 -11
-4 -14 -8z"/>
<path d="M466 332 c-2 -4 4 -8 14 -8 10 0 16 4 14 8 -3 4 -9 8 -14 8 -5 0 -11
-4 -14 -8z"/>
<path d="M786 332 c-2 -4 4 -8 14 -8 10 0 16 4 14 8 -3 4 -9 8 -14 8 -5 0 -11
-4 -14 -8z"/>
<path d="M215 100 c3 -5 13 -10 21 -10 8 0 12 5 9 10 -3 6 -13 10 -21 10 -8 0
-12 -4 -9 -10z"/>
<path d="M535 100 c3 -5 13 -10 21 -10 8 0 12 5 9 10 -3 6 -13 10 -21 10 -8 0
-12 -4 -9 -10z"/>
<path d="M855 100 c3 -5 13 -10 21 -10 8 0 12 5 9 10 -3 6 -13 10 -21 10 -8 0
-12 -4 -9 -10z"/>
<path d="M128 65 c2 -15 0 -25 -7 -25 -6 0 -11 -10 -11 -22 0 -21 1 -21 15 6
17 32 19 52 6 60 -4 3 -6 -6 -3 -19z"/>
<path d="M254 82 c-8 -5 -9 -20 -4 -47 6 -30 8 -33 9 -13 0 15 6 30 11 33 12
7 14 35 3 35 -5 0 -13 -4 -19 -8z"/>
<path d="M448 65 c2 -15 0 -25 -7 -25 -6 0 -11 -10 -11 -22 0 -21 1 -21 15 6
17 32 19 52 6 60 -4 3 -6 -6 -3 -19z"/>
<path d="M574 82 c-8 -5 -9 -20 -4 -47 6 -30 8 -33 9 -13 0 15 6 30 11 33 12
7 14 35 3 35 -5 0 -13 -4 -19 -8z"/>
<path d="M768 65 c2 -15 0 -25 -7 -25 -6 0 -11 -10 -11 -22 0 -21 1 -21 15 6
17 32 19 52 6 60 -4 3 -6 -6 -3 -19z"/>
<path d="M894 82 c-8 -5 -9 -20 -4 -47 6 -30 8 -33 9 -13 0 15 6 30 11 33 12
7 14 35 3 35 -5 0 -13 -4 -19 -8z"/>
<path d="M202 30 c0 -19 2 -27 5 -17 2 9 2 25 0 35 -3 9 -5 1 -5 -18z"/>
<path d="M522 30 c0 -19 2 -27 5 -17 2 9 2 25 0 35 -3 9 -5 1 -5 -18z"/>
<path d="M842 30 c0 -19 2 -27 5 -17 2 9 2 25 0 35 -3 9 -5 1 -5 -18z"/>
<path d="M57 20 c3 -11 7 -20 9 -20 2 0 4 9 4 20 0 11 -4 20 -9 20 -5 0 -7 -9
-4 -20z"/>
<path d="M377 20 c3 -11 7 -20 9 -20 2 0 4 9 4 20 0 11 -4 20 -9 20 -5 0 -7
-9 -4 -20z"/>
<path d="M697 20 c3 -11 7 -20 9 -20 2 0 4 9 4 20 0 11 -4 20 -9 20 -5 0 -7
-9 -4 -20z"/>
<path d="M146 12 c-2 -4 4 -8 14 -8 10 0 16 4 14 8 -7 10 -21 10 -28 0z"/>
<path d="M466 12 c-2 -4 4 -8 14 -8 10 0 16 4 14 8 -7 10 -21 10 -28 0z"/>
<path d="M786 12 c-2 -4 4 -8 14 -8 10 0 16 4 14 8 -7 10 -21 10 -28 0z"/>
</g>
<g transform="translate(0.000000,96.000000) scale(0.100000,-0.100000)"
fill="#400000" stroke="none">
<path d="M215 740 c3 -5 13 -10 21 -10 8 0 12 5 9 10 -3 6 -13 10 -21 10 -8 0
-12 -4 -9 -10z"/>
<path d="M535 740 c3 -5 13 -10 21 -10 8 0 12 5 9 10 -3 6 -13 10 -21 10 -8 0
-12 -4 -9 -10z"/>
<path d="M855 740 c3 -5 13 -10 21 -10 8 0 12 5 9 10 -3 6 -13 10 -21 10 -8 0
-12 -4 -9 -10z"/>
<path d="M253 723 c-18 -7 -16 -23 2 -23 8 0 15 7 15 15 0 8 -1 15 -2 14 -2 0
-9 -3 -15 -6z"/>
<path d="M573 723 c-18 -7 -16 -23 2 -23 8 0 15 7 15 15 0 8 -1 15 -2 14 -2 0
-9 -3 -15 -6z"/>
<path d="M893 723 c-18 -7 -16 -23 2 -23 8 0 15 7 15 15 0 8 -1 15 -2 14 -2 0
-9 -3 -15 -6z"/>
<path d="M62 660 c0 -14 2 -19 5 -12 2 6 2 18 0 25 -3 6 -5 1 -5 -13z"/>
<path d="M112 660 c0 -14 2 -19 5 -12 2 6 2 18 0 25 -3 6 -5 1 -5 -13z"/>
<path d="M202 660 c0 -14 2 -19 5 -12 2 6 2 18 0 25 -3 6 -5 1 -5 -13z"/>
<path d="M252 660 c0 -14 2 -19 5 -12 2 6 2 18 0 25 -3 6 -5 1 -5 -13z"/>
<path d="M382 660 c0 -14 2 -19 5 -12 2 6 2 18 0 25 -3 6 -5 1 -5 -13z"/>
<path d="M432 660 c0 -14 2 -19 5 -12 2 6 2 18 0 25 -3 6 -5 1 -5 -13z"/>
<path d="M522 660 c0 -14 2 -19 5 -12 2 6 2 18 0 25 -3 6 -5 1 -5 -13z"/>
<path d="M572 660 c0 -14 2 -19 5 -12 2 6 2 18 0 25 -3 6 -5 1 -5 -13z"/>
<path d="M702 660 c0 -14 2 -19 5 -12 2 6 2 18 0 25 -3 6 -5 1 -5 -13z"/>
<path d="M752 660 c0 -14 2 -19 5 -12 2 6 2 18 0 25 -3 6 -5 1 -5 -13z"/>
<path d="M842 660 c0 -14 2 -19 5 -12 2 6 2 18 0 25 -3 6 -5 1 -5 -13z"/>
<path d="M892 660 c0 -14 2 -19 5 -12 2 6 2 18 0 25 -3 6 -5 1 -5 -13z"/>
<path d="M165 650 c3 -5 8 -10 11 -10 3 0 2 5 -1 10 -3 6 -8 10 -11 10 -3 0
-2 -4 1 -10z"/>
<path d="M485 650 c3 -5 8 -10 11 -10 3 0 2 5 -1 10 -3 6 -8 10 -11 10 -3 0
-2 -4 1 -10z"/>
<path d="M805 650 c3 -5 8 -10 11 -10 3 0 2 5 -1 10 -3 6 -8 10 -11 10 -3 0
-2 -4 1 -10z"/>
<path d="M215 420 c3 -5 13 -10 21 -10 8 0 12 5 9 10 -3 6 -13 10 -21 10 -8 0
-12 -4 -9 -10z"/>
<path d="M535 420 c3 -5 13 -10 21 -10 8 0 12 5 9 10 -3 6 -13 10 -21 10 -8 0
-12 -4 -9 -10z"/>
<path d="M855 420 c3 -5 13 -10 21 -10 8 0 12 5 9 10 -3 6 -13 10 -21 10 -8 0
-12 -4 -9 -10z"/>
<path d="M253 403 c-18 -7 -16 -23 2 -23 8 0 15 7 15 15 0 8 -1 15 -2 14 -2 0
-9 -3 -15 -6z"/>
<path d="M573 403 c-18 -7 -16 -23 2 -23 8 0 15 7 15 15 0 8 -1 15 -2 14 -2 0
-9 -3 -15 -6z"/>
<path d="M893 403 c-18 -7 -16 -23 2 -23 8 0 15 7 15 15 0 8 -1 15 -2 14 -2 0
-9 -3 -15 -6z"/>
<path d="M62 340 c0 -14 2 -19 5 -12 2 6 2 18 0 25 -3 6 -5 1 -5 -13z"/>
<path d="M112 340 c0 -14 2 -19 5 -12 2 6 2 18 0 25 -3 6 -5 1 -5 -13z"/>
<path d="M202 340 c0 -14 2 -19 5 -12 2 6 2 18 0 25 -3 6 -5 1 -5 -13z"/>
<path d="M252 340 c0 -14 2 -19 5 -12 2 6 2 18 0 25 -3 6 -5 1 -5 -13z"/>
<path d="M382 340 c0 -14 2 -19 5 -12 2 6 2 18 0 25 -3 6 -5 1 -5 -13z"/>
<path d="M432 340 c0 -14 2 -19 5 -12 2 6 2 18 0 25 -3 6 -5 1 -5 -13z"/>
<path d="M522 340 c0 -14 2 -19 5 -12 2 6 2 18 0 25 -3 6 -5 1 -5 -13z"/>
<path d="M572 340 c0 -14 2 -19 5 -12 2 6 2 18 0 25 -3 6 -5 1 -5 -13z"/>
<path d="M702 340 c0 -14 2 -19 5 -12 2 6 2 18 0 25 -3 6 -5 1 -5 -13z"/>
<path d="M752 340 c0 -14 2 -19 5 -12 2 6 2 18 0 25 -3 6 -5 1 -5 -13z"/>
<path d="M842 340 c0 -14 2 -19 5 -12 2 6 2 18 0 25 -3 6 -5 1 -5 -13z"/>
<path d="M892 340 c0 -14 2 -19 5 -12 2 6 2 18 0 25 -3 6 -5 1 -5 -13z"/>
<path d="M165 330 c3 -5 8 -10 11 -10 3 0 2 5 -1 10 -3 6 -8 10 -11 10 -3 0
-2 -4 1 -10z"/>
<path d="M485 330 c3 -5 8 -10 11 -10 3 0 2 5 -1 10 -3 6 -8 10 -11 10 -3 0
-2 -4 1 -10z"/>
<path d="M805 330 c3 -5 8 -10 11 -10 3 0 2 5 -1 10 -3 6 -8 10 -11 10 -3 0
-2 -4 1 -10z"/>
<path d="M215 100 c3 -5 13 -10 21 -10 8 0 12 5 9 10 -3 6 -13 10 -21 10 -8 0
-12 -4 -9 -10z"/>
<path d="M535 100 c3 -5 13 -10 21 -10 8 0 12 5 9 10 -3 6 -13 10 -21 10 -8 0
-12 -4 -9 -10z"/>
<path d="M855 100 c3 -5 13 -10 21 -10 8 0 12 5 9 10 -3 6 -13 10 -21 10 -8 0
-12 -4 -9 -10z"/>
<path d="M253 83 c-18 -7 -16 -23 2 -23 8 0 15 7 15 15 0 8 -1 15 -2 14 -2 0
-9 -3 -15 -6z"/>
<path d="M573 83 c-18 -7 -16 -23 2 -23 8 0 15 7 15 15 0 8 -1 15 -2 14 -2 0
-9 -3 -15 -6z"/>
<path d="M893 83 c-18 -7 -16 -23 2 -23 8 0 15 7 15 15 0 8 -1 15 -2 14 -2 0
-9 -3 -15 -6z"/>
<path d="M62 20 c0 -14 2 -19 5 -12 2 6 2 18 0 25 -3 6 -5 1 -5 -13z"/>
<path d="M112 20 c0 -14 2 -19 5 -12 2 6 2 18 0 25 -3 6 -5 1 -5 -13z"/>
<path d="M202 20 c0 -14 2 -19 5 -12 2 6 2 18 0 25 -3 6 -5 1 -5 -13z"/>
<path d="M252 20 c0 -14 2 -19 5 -12 2 6 2 18 0 25 -3 6 -5 1 -5 -13z"/>
<path d="M382 20 c0 -14 2 -19 5 -12 2 6 2 18 0 25 -3 6 -5 1 -5 -13z"/>
<path d="M432 20 c0 -14 2 -19 5 -12 2 6 2 18 0 25 -3 6 -5 1 -5 -13z"/>
<path d="M522 20 c0 -14 2 -19 5 -12 2 6 2 18 0 25 -3 6 -5 1 -5 -13z"/>
<path d="M572 20 c0 -14 2 -19 5 -12 2 6 2 18 0 25 -3 6 -5 1 -5 -13z"/>
<path d="M702 20 c0 -14 2 -19 5 -12 2 6 2 18 0 25 -3 6 -5 1 -5 -13z"/>
<path d="M752 20 c0 -14 2 -19 5 -12 2 6 2 18 0 25 -3 6 -5 1 -5 -13z"/>
<path d="M842 20 c0 -14 2 -19 5 -12 2 6 2 18 0 25 -3 6 -5 1 -5 -13z"/>
<path d="M892 20 c0 -14 2 -19 5 -12 2 6 2 18 0 25 -3 6 -5 1 -5 -13z"/>
<path d="M165 10 c3 -5 8 -10 11 -10 3 0 2 5 -1 10 -3 6 -8 10 -11 10 -3 0 -2
-4 1 -10z"/>
<path d="M485 10 c3 -5 8 -10 11 -10 3 0 2 5 -1 10 -3 6 -8 10 -11 10 -3 0 -2
-4 1 -10z"/>
<path d="M805 10 c3 -5 8 -10 11 -10 3 0 2 5 -1 10 -3 6 -8 10 -11 10 -3 0 -2
-4 1 -10z"/>
</g>
<g transform="translate(0.000000,96.000000) scale(0.100000,-0.100000)"
fill="#730015" stroke="none">
<path d="M215 740 c3 -5 13 -10 21 -10 8 0 12 5 9 10 -3 6 -13 10 -21 10 -8 0
-12 -4 -9 -10z"/>
<path d="M535 740 c3 -5 13 -10 21 -10 8 0 12 5 9 10 -3 6 -13 10 -21 10 -8 0
-12 -4 -9 -10z"/>
<path d="M855 740 c3 -5 13 -10 21 -10 8 0 12 5 9 10 -3 6 -13 10 -21 10 -8 0
-12 -4 -9 -10z"/>
<path d="M253 723 c-18 -7 -16 -23 2 -23 8 0 15 7 15 15 0 8 -1 15 -2 14 -2 0
-9 -3 -15 -6z"/>
<path d="M573 723 c-18 -7 -16 -23 2 -23 8 0 15 7 15 15 0 8 -1 15 -2 14 -2 0
-9 -3 -15 -6z"/>
<path d="M893 723 c-18 -7 -16 -23 2 -23 8 0 15 7 15 15 0 8 -1 15 -2 14 -2 0
-9 -3 -15 -6z"/>
<path d="M200 670 c0 -7 3 -10 7 -7 3 4 3 10 0 14 -4 3 -7 0 -7 -7z"/>
<path d="M250 670 c0 -7 3 -10 7 -7 3 4 3 10 0 14 -4 3 -7 0 -7 -7z"/>
<path d="M520 670 c0 -7 3 -10 7 -7 3 4 3 10 0 14 -4 3 -7 0 -7 -7z"/>
<path d="M570 670 c0 -7 3 -10 7 -7 3 4 3 10 0 14 -4 3 -7 0 -7 -7z"/>
<path d="M840 670 c0 -7 3 -10 7 -7 3 4 3 10 0 14 -4 3 -7 0 -7 -7z"/>
<path d="M890 670 c0 -7 3 -10 7 -7 3 4 3 10 0 14 -4 3 -7 0 -7 -7z"/>
<path d="M165 650 c3 -5 8 -10 11 -10 3 0 2 5 -1 10 -3 6 -8 10 -11 10 -3 0
-2 -4 1 -10z"/>
<path d="M485 650 c3 -5 8 -10 11 -10 3 0 2 5 -1 10 -3 6 -8 10 -11 10 -3 0
-2 -4 1 -10z"/>
<path d="M805 650 c3 -5 8 -10 11 -10 3 0 2 5 -1 10 -3 6 -8 10 -11 10 -3 0
-2 -4 1 -10z"/>
<path d="M215 420 c3 -5 13 -10 21 -10 8 0 12 5 9 10 -3 6 -13 10 -21 10 -8 0
-12 -4 -9 -10z"/>
<path d="M535 420 c3 -5 13 -10 21 -10 8 0 12 5 9 10 -3 6 -13 10 -21 10 -8 0
-12 -4 -9 -10z"/>
<path d="M855 420 c3 -5 13 -10 21 -10 8 0 12 5 9 10 -3 6 -13 10 -21 10 -8 0
-12 -4 -9 -10z"/>
<path d="M253 403 c-18 -7 -16 -23 2 -23 8 0 15 7 15 15 0 8 -1 15 -2 14 -2 0
-9 -3 -15 -6z"/>
<path d="M573 403 c-18 -7 -16 -23 2 -23 8 0 15 7 15 15 0 8 -1 15 -2 14 -2 0
-9 -3 -15 -6z"/>
<path d="M893 403 c-18 -7 -16 -23 2 -23 8 0 15 7 15 15 0 8 -1 15 -2 14 -2 0
-9 -3 -15 -6z"/>
<path d="M200 350 c0 -7 3 -10 7 -7 3 4 3 10 0 14 -4 3 -7 0 -7 -7z"/>
<path d="M250 350 c0 -7 3 -10 7 -7 3 4 3 10 0 14 -4 3 -7 0 -7 -7z"/>
<path d="M520 350 c0 -7 3 -10 7 -7 3 4 3 10 0 14 -4 3 -7 0 -7 -7z"/>
<path d="M570 350 c0 -7 3 -10 7 -7 3 4 3 10 0 14 -4 3 -7 0 -7 -7z"/>
<path d="M840 350 c0 -7 3 -10 7 -7 3 4 3 10 0 14 -4 3 -7 0 -7 -7z"/>
<path d="M890 350 c0 -7 3 -10 7 -7 3 4 3 10 0 14 -4 3 -7 0 -7 -7z"/>
<path d="M165 330 c3 -5 8 -10 11 -10 3 0 2 5 -1 10 -3 6 -8 10 -11 10 -3 0
-2 -4 1 -10z"/>
<path d="M485 330 c3 -5 8 -10 11 -10 3 0 2 5 -1 10 -3 6 -8 10 -11 10 -3 0
-2 -4 1 -10z"/>
<path d="M805 330 c3 -5 8 -10 11 -10 3 0 2 5 -1 10 -3 6 -8 10 -11 10 -3 0
-2 -4 1 -10z"/>
<path d="M215 100 c3 -5 13 -10 21 -10 8 0 12 5 9 10 -3 6 -13 10 -21 10 -8 0
-12 -4 -9 -10z"/>
<path d="M535 100 c3 -5 13 -10 21 -10 8 0 12 5 9 10 -3 6 -13 10 -21 10 -8 0
-12 -4 -9 -10z"/>
<path d="M855 100 c3 -5 13 -10 21 -10 8 0 12 5 9 10 -3 6 -13 10 -21 10 -8 0
-12 -4 -9 -10z"/>
<path d="M253 83 c-18 -7 -16 -23 2 -23 8 0 15 7 15 15 0 8 -1 15 -2 14 -2 0
-9 -3 -15 -6z"/>
<path d="M573 83 c-18 -7 -16 -23 2 -23 8 0 15 7 15 15 0 8 -1 15 -2 14 -2 0
-9 -3 -15 -6z"/>
<path d="M893 83 c-18 -7 -16 -23 2 -23 8 0 15 7 15 15 0 8 -1 15 -2 14 -2 0
-9 -3 -15 -6z"/>
<path d="M200 30 c0 -7 3 -10 7 -7 3 4 3 10 0 14 -4 3 -7 0 -7 -7z"/>
<path d="M250 30 c0 -7 3 -10 7 -7 3 4 3 10 0 14 -4 3 -7 0 -7 -7z"/>
<path d="M520 30 c0 -7 3 -10 7 -7 3 4 3 10 0 14 -4 3 -7 0 -7 -7z"/>
<path d="M570 30 c0 -7 3 -10 7 -7 3 4 3 10 0 14 -4 3 -7 0 -7 -7z"/>
<path d="M840 30 c0 -7 3 -10 7 -7 3 4 3 10 0 14 -4 3 -7 0 -7 -7z"/>
<path d="M890 30 c0 -7 3 -10 7 -7 3 4 3 10 0 14 -4 3 -7 0 -7 -7z"/>
<path d="M165 10 c3 -5 8 -10 11 -10 3 0 2 5 -1 10 -3 6 -8 10 -11 10 -3 0 -2
-4 1 -10z"/>
<path d="M485 10 c3 -5 8 -10 11 -10 3 0 2 5 -1 10 -3 6 -8 10 -11 10 -3 0 -2
-4 1 -10z"/>
<path d="M805 10 c3 -5 8 -10 11 -10 3 0 2 5 -1 10 -3 6 -8 10 -11 10 -3 0 -2
-4 1 -10z"/>
</g>
<g transform="translate(0.000000,96.000000) scale(0.100000,-0.100000)"
fill="#b9304a" stroke="none">
<path d="M215 740 c3 -5 13 -10 21 -10 8 0 12 5 9 10 -3 6 -13 10 -21 10 -8 0
-12 -4 -9 -10z"/>
<path d="M535 740 c3 -5 13 -10 21 -10 8 0 12 5 9 10 -3 6 -13 10 -21 10 -8 0
-12 -4 -9 -10z"/>
<path d="M855 740 c3 -5 13 -10 21 -10 8 0 12 5 9 10 -3 6 -13 10 -21 10 -8 0
-12 -4 -9 -10z"/>
<path d="M200 670 c0 -7 3 -10 7 -7 3 4 3 10 0 14 -4 3 -7 0 -7 -7z"/>
<path d="M250 670 c0 -7 3 -10 7 -7 3 4 3 10 0 14 -4 3 -7 0 -7 -7z"/>
<path d="M520 670 c0 -7 3 -10 7 -7 3 4 3 10 0 14 -4 3 -7 0 -7 -7z"/>
<path d="M570 670 c0 -7 3 -10 7 -7 3 4 3 10 0 14 -4 3 -7 0 -7 -7z"/>
<path d="M840 670 c0 -7 3 -10 7 -7 3 4 3 10 0 14 -4 3 -7 0 -7 -7z"/>
<path d="M890 670 c0 -7 3 -10 7 -7 3 4 3 10 0 14 -4 3 -7 0 -7 -7z"/>
<path d="M165 650 c3 -5 8 -10 11 -10 3 0 2 5 -1 10 -3 6 -8 10 -11 10 -3 0
-2 -4 1 -10z"/>
<path d="M485 650 c3 -5 8 -10 11 -10 3 0 2 5 -1 10 -3 6 -8 10 -11 10 -3 0
-2 -4 1 -10z"/>
<path d="M805 650 c3 -5 8 -10 11 -10 3 0 2 5 -1 10 -3 6 -8 10 -11 10 -3 0
-2 -4 1 -10z"/>
<path d="M215 420 c3 -5 13 -10 21 -10 8 0 12 5 9 10 -3 6 -13 10 -21 10 -8 0
-12 -4 -9 -10z"/>
<path d="M535 420 c3 -5 13 -10 21 -10 8 0 12 5 9 10 -3 6 -13 10 -21 10 -8 0
-12 -4 -9 -10z"/>
<path d="M855 420 c3 -5 13 -10 21 -10 8 0 12 5 9 10 -3 6 -13 10 -21 10 -8 0
-12 -4 -9 -10z"/>
<path d="M200 350 c0 -7 3 -10 7 -7 3 4 3 10 0 14 -4 3 -7 0 -7 -7z"/>
<path d="M250 350 c0 -7 3 -10 7 -7 3 4 3 10 0 14 -4 3 -7 0 -7 -7z"/>
<path d="M520 350 c0 -7 3 -10 7 -7 3 4 3 10 0 14 -4 3 -7 0 -7 -7z"/>
<path d="M570 350 c0 -7 3 -10 7 -7 3 4 3 10 0 14 -4 3 -7 0 -7 -7z"/>
<path d="M840 350 c0 -7 3 -10 7 -7 3 4 3 10 0 14 -4 3 -7 0 -7 -7z"/>
<path d="M890 350 c0 -7 3 -10 7 -7 3 4 3 10 0 14 -4 3 -7 0 -7 -7z"/>
<path d="M165 330 c3 -5 8 -10 11 -10 3 0 2 5 -1 10 -3 6 -8 10 -11 10 -3 0
-2 -4 1 -10z"/>
<path d="M485 330 c3 -5 8 -10 11 -10 3 0 2 5 -1 10 -3 6 -8 10 -11 10 -3 0
-2 -4 1 -10z"/>
<path d="M805 330 c3 -5 8 -10 11 -10 3 0 2 5 -1 10 -3 6 -8 10 -11 10 -3 0
-2 -4 1 -10z"/>
<path d="M215 100 c3 -5 13 -10 21 -10 8 0 12 5 9 10 -3 6 -13 10 -21 10 -8 0
-12 -4 -9 -10z"/>
<path d="M535 100 c3 -5 13 -10 21 -10 8 0 12 5 9 10 -3 6 -13 10 -21 10 -8 0
-12 -4 -9 -10z"/>
<path d="M855 100 c3 -5 13 -10 21 -10 8 0 12 5 9 10 -3 6 -13 10 -21 10 -8 0
-12 -4 -9 -10z"/>
<path d="M200 30 c0 -7 3 -10 7 -7 3 4 3 10 0 14 -4 3 -7 0 -7 -7z"/>
<path d="M250 30 c0 -7 3 -10 7 -7 3 4 3 10 0 14 -4 3 -7 0 -7 -7z"/>
<path d="M520 30 c0 -7 3 -10 7 -7 3 4 3 10 0 14 -4 3 -7 0 -7 -7z"/>
<path d="M570 30 c0 -7 3 -10 7 -7 3 4 3 10 0 14 -4 3 -7 0 -7 -7z"/>
<path d="M840 30 c0 -7 3 -10 7 -7 3 4 3 10 0 14 -4 3 -7 0 -7 -7z"/>
<path d="M890 30 c0 -7 3 -10 7 -7 3 4 3 10 0 14 -4 3 -7 0 -7 -7z"/>
<path d="M165 10 c3 -5 8 -10 11 -10 3 0 2 5 -1 10 -3 6 -8 10 -11 10 -3 0 -2
-4 1 -10z"/>
<path d="M485 10 c3 -5 8 -10 11 -10 3 0 2 5 -1 10 -3 6 -8 10 -11 10 -3 0 -2
-4 1 -10z"/>
<path d="M805 10 c3 -5 8 -10 11 -10 3 0 2 5 -1 10 -3 6 -8 10 -11 10 -3 0 -2
-4 1 -10z"/>
</g>
<g transform="translate(0.000000,96.000000) scale(0.100000,-0.100000)"
fill="#46040e" stroke="none">
<path d="M200 670 c0 -7 3 -10 7 -7 3 4 3 10 0 14 -4 3 -7 0 -7 -7z"/>
<path d="M250 670 c0 -7 3 -10 7 -7 3 4 3 10 0 14 -4 3 -7 0 -7 -7z"/>
<path d="M520 670 c0 -7 3 -10 7 -7 3 4 3 10 0 14 -4 3 -7 0 -7 -7z"/>
<path d="M570 670 c0 -7 3 -10 7 -7 3 4 3 10 0 14 -4 3 -7 0 -7 -7z"/>
<path d="M840 670 c0 -7 3 -10 7 -7 3 4 3 10 0 14 -4 3 -7 0 -7 -7z"/>
<path d="M890 670 c0 -7 3 -10 7 -7 3 4 3 10 0 14 -4 3 -7 0 -7 -7z"/>
<path d="M165 650 c3 -5 8 -10 11 -10 3 0 2 5 -1 10 -3 6 -8 10 -11 10 -3 0
-2 -4 1 -10z"/>
<path d="M485 650 c3 -5 8 -10 11 -10 3 0 2 5 -1 10 -3 6 -8 10 -11 10 -3 0
-2 -4 1 -10z"/>
<path d="M805 650 c3 -5 8 -10 11 -10 3 0 2 5 -1 10 -3 6 -8 10 -11 10 -3 0
-2 -4 1 -10z"/>
<path d="M200 350 c0 -7 3 -10 7 -7 3 4 3 10 0 14 -4 3 -7 0 -7 -7z"/>
<path d="M250 350 c0 -7 3 -10 7 -7 3 4 3 10 0 14 -4 3 -7 0 -7 -7z"/>
<path d="M520 350 c0 -7 3 -10 7 -7 3 4 3 10 0 14 -4 3 -7 0 -7 -7z"/>
<path d="M570 350 c0 -7 3 -10 7 -7 3 4 3 10 0 14 -4 3 -7 0 -7 -7z"/>
<path d="M840 350 c0 -7 3 -10 7 -7 3 4 3 10 0 14 -4 3 -7 0 -7 -7z"/>
<path d="M890 350 c0 -7 3 -10 7 -7 3 4 3 10 0 14 -4 3 -7 0 -7 -7z"/>
<path d="M165 330 c3 -5 8 -10 11 -10 3 0 2 5 -1 10 -3 6 -8 10 -11 10 -3 0
-2 -4 1 -10z"/>
<path d="M485 330 c3 -5 8 -10 11 -10 3 0 2 5 -1 10 -3 6 -8 10 -11 10 -3 0
-2 -4 1 -10z"/>
<path d="M805 330 c3 -5 8 -10 11 -10 3 0 2 5 -1 10 -3 6 -8 10 -11 10 -3 0
-2 -4 1 -10z"/>
<path d="M200 30 c0 -7 3 -10 7 -7 3 4 3 10 0 14 -4 3 -7 0 -7 -7z"/>
<path d="M250 30 c0 -7 3 -10 7 -7 3 4 3 10 0 14 -4 3 -7 0 -7 -7z"/>
<path d="M520 30 c0 -7 3 -10 7 -7 3 4 3 10 0 14 -4 3 -7 0 -7 -7z"/>
<path d="M570 30 c0 -7 3 -10 7 -7 3 4 3 10 0 14 -4 3 -7 0 -7 -7z"/>
<path d="M840 30 c0 -7 3 -10 7 -7 3 4 3 10 0 14 -4 3 -7 0 -7 -7z"/>
<path d="M890 30 c0 -7 3 -10 7 -7 3 4 3 10 0 14 -4 3 -7 0 -7 -7z"/>
<path d="M165 10 c3 -5 8 -10 11 -10 3 0 2 5 -1 10 -3 6 -8 10 -11 10 -3 0 -2
-4 1 -10z"/>
<path d="M485 10 c3 -5 8 -10 11 -10 3 0 2 5 -1 10 -3 6 -8 10 -11 10 -3 0 -2
-4 1 -10z"/>
<path d="M805 10 c3 -5 8 -10 11 -10 3 0 2 5 -1 10 -3 6 -8 10 -11 10 -3 0 -2
-4 1 -10z"/>
</g>
  </g>
</svg>
