<?xml version="1.0" encoding="UTF-8" standalone="no"?>
<!-- Created with Inkscape (http://www.inkscape.org/) -->

<svg
   xmlns:dc="http://purl.org/dc/elements/1.1/"
   xmlns:cc="http://creativecommons.org/ns#"
   xmlns:rdf="http://www.w3.org/1999/02/22-rdf-syntax-ns#"
   xmlns:svg="http://www.w3.org/2000/svg"
   xmlns="http://www.w3.org/2000/svg"
   xmlns:sodipodi="http://sodipodi.sourceforge.net/DTD/sodipodi-0.dtd"
   xmlns:inkscape="http://www.inkscape.org/namespaces/inkscape"
   width="32px"
   height="32px"
   viewBox="0 0 32px 32px"
   version="1.1"
   id="svgMain"
   inkscape:version="0.92.2 (5c3e80d, 2017-08-06)"
   sodipodi:docname="reference_SVG.svg">
  <defs
     id="defs4542" />
  <sodipodi:namedview
     id="base"
     pagecolor="#ffffff"
     bordercolor="#666666"
     borderopacity="1.0"
     inkscape:pageopacity="0.0"
     inkscape:pageshadow="2"
     inkscape:zoom="1"
     inkscape:cx="0"
     inkscape:cy="0"
     inkscape:document-units="px"
     inkscape:current-layer="layer1"
     showgrid="false"
     units="px"
     inkscape:window-width="1024"
     inkscape:window-height="768"
     inkscape:window-x="-8"
     inkscape:window-y="-8"
     inkscape:window-maximized="1" />
  <metadata
     id="metadata1">
    <rdf:RDF>
      <cc:Work
         rdf:about="">
        <dc:format>image/svg+xml</dc:format>
        <dc:type
           rdf:resource="http://purl.org/dc/dcmitype/StillImage" />
        <dc:title />
      </cc:Work>
    </rdf:RDF>
  </metadata>
  <g transform="translate(-32,-32)"
     inkscape:label="Layer 1"
     inkscape:groupmode="layer"
     id="layer1">
    <!-- INSERT MARKER -->
<g transform="translate(0.000000,96.000000) scale(0.100000,-0.100000)"
fill="#009f1b" stroke="none">
<path d="M176 798 c-9 -12 -16 -28 -16 -35 0 -19 -14 -16 -28 7 -13 22 -42 26
-59 9 -8 -8 -17 -7 -34 5 -13 9 -27 16 -31 16 -13 0 -9 -33 6 -62 9 -16 11
-30 5 -33 -16 -11 -10 -36 8 -33 12 2 18 -3 17 -14 -2 -16 10 -18 115 -18
l117 0 22 39 c26 46 28 66 6 57 -15 -6 -15 -4 -3 11 7 10 14 19 15 21 1 2 9
-10 17 -27 9 -18 11 -33 6 -37 -16 -10 -10 -35 9 -32 11 2 17 -3 16 -14 -2
-16 10 -18 115 -18 l117 0 22 39 c26 46 28 66 6 57 -15 -6 -15 -4 -3 11 7 10
14 19 15 21 1 2 9 -10 17 -27 9 -18 11 -33 6 -37 -16 -10 -10 -35 9 -32 11 2
17 -3 16 -14 -2 -16 10 -18 115 -18 l117 0 22 39 c26 46 28 65 7 57 -14 -5
-14 -4 0 16 35 51 -2 66 -54 23 l-30 -26 -7 36 c-7 41 -22 41 -44 -1 -8 -16
-16 -31 -18 -33 -1 -3 -9 5 -18 17 -16 24 -43 29 -61 11 -8 -8 -17 -7 -34 5
-34 23 -73 20 -108 -9 l-30 -26 -7 36 c-7 41 -22 41 -44 -1 -8 -16 -16 -31
-18 -33 -1 -3 -9 5 -18 17 -16 24 -43 29 -61 11 -8 -8 -17 -7 -34 5 -34 23
-73 20 -108 -9 l-30 -26 -7 36 c-7 41 -17 44 -38 13z m-26 -63 c0 -3 -2 -5 -5
-5 -3 0 -5 2 -5 5 0 3 2 5 5 5 3 0 5 -2 5 -5z m320 0 c0 -3 -2 -5 -5 -5 -3 0
-5 2 -5 5 0 3 2 5 5 5 3 0 5 -2 5 -5z m320 0 c0 -3 -2 -5 -5 -5 -3 0 -5 2 -5
5 0 3 2 5 5 5 3 0 5 -2 5 -5z"/>
<path d="M176 478 c-9 -12 -16 -28 -16 -35 0 -19 -14 -16 -28 7 -13 22 -42 26
-59 9 -8 -8 -17 -7 -34 5 -13 9 -27 16 -31 16 -13 0 -9 -33 6 -62 9 -16 11
-30 5 -33 -16 -11 -10 -36 8 -33 12 2 18 -3 17 -14 -2 -16 10 -18 115 -18
l117 0 22 39 c26 46 28 66 6 57 -15 -6 -15 -4 -3 11 7 10 14 19 15 21 1 2 9
-10 17 -27 9 -18 11 -33 6 -37 -16 -10 -10 -35 9 -32 11 2 17 -3 16 -14 -2
-16 10 -18 115 -18 l117 0 22 39 c26 46 28 66 6 57 -15 -6 -15 -4 -3 11 7 10
14 19 15 21 1 2 9 -10 17 -27 9 -18 11 -33 6 -37 -16 -10 -10 -35 9 -32 11 2
17 -3 16 -14 -2 -16 10 -18 115 -18 l117 0 22 39 c26 46 28 65 7 57 -14 -5
-14 -4 0 16 35 51 -2 66 -54 23 l-30 -26 -7 36 c-7 41 -22 41 -44 -1 -8 -16
-16 -31 -18 -33 -1 -3 -9 5 -18 17 -16 24 -43 29 -61 11 -8 -8 -17 -7 -34 5
-34 23 -73 20 -108 -9 l-30 -26 -7 36 c-7 41 -22 41 -44 -1 -8 -16 -16 -31
-18 -33 -1 -3 -9 5 -18 17 -16 24 -43 29 -61 11 -8 -8 -17 -7 -34 5 -34 23
-73 20 -108 -9 l-30 -26 -7 36 c-7 41 -17 44 -38 13z m-26 -63 c0 -3 -2 -5 -5
-5 -3 0 -5 2 -5 5 0 3 2 5 5 5 3 0 5 -2 5 -5z m320 0 c0 -3 -2 -5 -5 -5 -3 0
-5 2 -5 5 0 3 2 5 5 5 3 0 5 -2 5 -5z m320 0 c0 -3 -2 -5 -5 -5 -3 0 -5 2 -5
5 0 3 2 5 5 5 3 0 5 -2 5 -5z"/>
<path d="M176 158 c-9 -12 -16 -28 -16 -35 0 -19 -14 -16 -28 7 -13 22 -42 26
-59 9 -8 -8 -17 -7 -34 5 -13 9 -27 16 -31 16 -13 0 -9 -33 6 -62 9 -16 11
-30 5 -33 -16 -11 -10 -36 8 -33 12 2 18 -3 17 -14 -2 -16 10 -18 115 -18
l117 0 22 39 c26 46 28 66 6 57 -15 -6 -15 -4 -3 11 7 10 14 19 15 21 1 2 9
-10 17 -27 9 -18 11 -33 6 -37 -16 -10 -10 -35 9 -32 11 2 17 -3 16 -14 -2
-16 10 -18 115 -18 l117 0 22 39 c26 46 28 66 6 57 -15 -6 -15 -4 -3 11 7 10
14 19 15 21 1 2 9 -10 17 -27 9 -18 11 -33 6 -37 -16 -10 -10 -35 9 -32 11 2
17 -3 16 -14 -2 -16 10 -18 115 -18 l117 0 22 39 c26 46 28 65 7 57 -14 -5
-14 -4 0 16 35 51 -2 66 -54 23 l-30 -26 -7 36 c-7 41 -22 41 -44 -1 -8 -16
-16 -31 -18 -33 -1 -3 -9 5 -18 17 -16 24 -43 29 -61 11 -8 -8 -17 -7 -34 5
-34 23 -73 20 -108 -9 l-30 -26 -7 36 c-7 41 -22 41 -44 -1 -8 -16 -16 -31
-18 -33 -1 -3 -9 5 -18 17 -16 24 -43 29 -61 11 -8 -8 -17 -7 -34 5 -34 23
-73 20 -108 -9 l-30 -26 -7 36 c-7 41 -17 44 -38 13z m-26 -63 c0 -3 -2 -5 -5
-5 -3 0 -5 2 -5 5 0 3 2 5 5 5 3 0 5 -2 5 -5z m320 0 c0 -3 -2 -5 -5 -5 -3 0
-5 2 -5 5 0 3 2 5 5 5 3 0 5 -2 5 -5z m320 0 c0 -3 -2 -5 -5 -5 -3 0 -5 2 -5
5 0 3 2 5 5 5 3 0 5 -2 5 -5z"/>
</g>
<g transform="translate(0.000000,96.000000) scale(0.100000,-0.100000)"
fill="#00ce1b" stroke="none">
<path d="M175 796 c-9 -13 -14 -29 -13 -37 5 -19 32 -46 42 -41 5 3 6 0 2 -6
-4 -7 -2 -12 3 -12 6 0 11 7 11 15 0 8 6 15 14 15 26 0 26 -17 1 -30 -13 -7
-22 -17 -18 -23 4 -6 -7 -8 -28 -4 -21 3 -40 0 -50 -9 -14 -12 -15 -10 -11 19
4 28 6 29 13 12 9 -20 9 -20 6 0 -2 14 -9 19 -22 17 -18 -2 -17 -1 4 16 l23
19 -23 21 c-26 25 -42 28 -58 9 -14 -18 -2 -30 15 -16 16 13 44 5 44 -13 0 -9
-3 -9 -12 0 -15 15 -28 15 -28 1 0 -5 5 -7 10 -4 6 3 10 2 10 -3 0 -5 -11 -9
-25 -9 -13 0 -23 3 -20 7 6 9 -40 60 -55 60 -19 0 -10 -30 20 -62 17 -17 30
-37 30 -45 0 -8 6 -13 13 -10 6 2 11 12 9 21 -3 15 0 16 17 6 22 -11 28 -29
11 -31 -5 -1 -14 -3 -20 -4 -5 -1 -16 -3 -24 -4 -8 0 -16 -8 -20 -16 -5 -13
12 -15 112 -15 101 0 119 2 128 18 10 15 7 17 -22 16 -25 -2 -31 2 -27 13 5
11 8 12 14 2 10 -16 39 5 39 29 0 13 -3 12 -16 -4 -8 -10 -13 -14 -10 -7 4 6
2 14 -4 18 -17 11 -11 22 13 21 14 -1 21 4 19 13 -2 8 3 18 10 22 7 4 9 11 5
15 -12 12 -55 -13 -62 -36 l-7 -22 -20 22 c-12 12 -18 29 -15 41 7 26 -9 24
-28 -5z m105 -36 c0 -5 -5 -10 -11 -10 -5 0 -7 5 -4 10 3 6 8 10 11 10 2 0 4
-4 4 -10z m-75 -10 c3 -5 4 -10 1 -10 -3 0 -8 5 -11 10 -3 6 -4 10 -1 10 3 0
8 -4 11 -10z"/>
<path d="M496 798 c-16 -23 -21 -50 -10 -61 10 -10 34 4 27 17 -3 6 3 2 15 -8
24 -21 31 -6 8 17 -9 8 -12 24 -9 36 7 28 -12 27 -31 -1z m4 -43 c0 -3 -2 -5
-5 -5 -3 0 -5 2 -5 5 0 3 2 5 5 5 3 0 5 -2 5 -5z"/>
<path d="M820 805 c-33 -40 -29 -125 5 -125 21 0 19 9 -7 31 -20 16 -20 18 -5
19 9 0 17 -4 17 -9 0 -5 7 -11 15 -15 8 -3 14 0 12 6 -1 7 3 12 8 13 6 0 15 3
20 6 16 8 35 5 34 -6 0 -5 -7 -9 -15 -7 -8 2 -14 -5 -14 -17 0 -11 -4 -23 -10
-26 -6 -3 -7 1 -4 10 5 11 2 14 -10 9 -9 -3 -16 -12 -16 -20 0 -10 -6 -11 -26
-3 -21 7 -31 6 -44 -6 -12 -11 -20 -13 -25 -6 -3 6 -1 11 4 11 6 0 11 10 11
23 0 18 2 19 11 7 9 -13 10 -13 6 0 -5 21 -33 19 -29 -2 2 -10 -1 -18 -5 -19
-4 0 -17 -2 -27 -4 -26 -5 -58 13 -50 27 4 6 1 9 -7 6 -8 -3 -15 -13 -16 -24
-2 -10 0 -14 3 -7 4 9 10 10 24 1 14 -9 16 -16 8 -25 -8 -11 12 -13 108 -13
113 0 120 1 133 23 13 20 13 21 -3 8 -32 -27 -31 1 2 30 29 26 32 34 10 30 -5
0 -8 11 -8 25 0 14 4 23 10 19 6 -3 10 1 10 9 0 9 -6 16 -13 16 -23 0 -57 -31
-57 -53 -1 -22 -1 -22 -12 -2 -6 11 -16 23 -21 26 -5 4 -7 16 -4 28 6 24 -5
28 -23 6z m10 -45 c0 -5 -5 -10 -11 -10 -5 0 -7 5 -4 10 3 6 8 10 11 10 2 0 4
-4 4 -10z m82 -12 c-7 -7 -12 -8 -12 -2 0 14 12 26 19 19 2 -3 -1 -11 -7 -17z
m-57 -7 c3 -5 2 -12 -3 -15 -5 -3 -9 1 -9 9 0 17 3 19 12 6z m52 -48 c-4 -3
-7 0 -7 7 0 7 3 10 7 7 3 -4 3 -10 0 -14z"/>
<path d="M320 780 c0 -10 12 -31 28 -45 15 -14 27 -30 27 -37 0 -22 22 -19 30
4 4 13 7 26 6 30 0 4 8 5 18 3 10 -2 24 1 32 6 8 5 11 9 7 10 -5 1 -12 3 -18
4 -5 1 -16 3 -22 4 -10 1 -10 3 0 10 11 6 10 10 -4 15 -10 4 -24 0 -33 -9 -14
-13 -14 -15 2 -15 11 0 14 -5 10 -17 -4 -11 -8 -13 -11 -5 -2 7 -9 9 -14 6 -7
-4 -8 -2 -4 4 7 12 -27 52 -44 52 -5 0 -10 -9 -10 -20z"/>
<path d="M576 777 c-23 -21 -24 -25 -11 -44 13 -18 13 -22 0 -27 -8 -3 -15
-11 -15 -18 0 -9 3 -9 11 2 9 13 10 13 6 0 -2 -8 -10 -14 -16 -12 -6 1 -14 -4
-17 -13 -5 -12 -9 -12 -30 2 -22 14 -26 14 -43 -1 -9 -9 -21 -13 -24 -10 -11
11 35 45 47 36 22 -17 45 -21 52 -9 4 7 3 9 -1 4 -5 -4 -22 5 -38 20 -17 16
-27 23 -24 17 4 -7 0 -15 -9 -18 -8 -3 -13 -2 -10 3 3 5 -1 11 -8 14 -19 7
-38 -16 -30 -36 4 -12 -1 -15 -23 -13 -22 1 -29 -3 -29 -16 0 -16 11 -18 116
-18 105 0 116 2 128 21 12 19 11 19 -8 9 -22 -12 -27 -1 -9 17 6 6 19 9 28 6
12 -4 13 -3 3 5 -8 5 -13 12 -13 16 3 17 0 19 -11 5 -7 -8 -12 -12 -11 -10 2
2 -2 10 -8 17 -12 15 -4 34 14 34 7 0 6 -4 -3 -11 -12 -9 -12 -10 3 -5 10 3
22 6 25 6 4 0 0 4 -8 10 -19 12 -6 25 17 15 10 -5 21 -7 26 -7 4 1 7 -4 7 -10
0 -7 14 -29 29 -48 l29 -35 -2 32 c-1 18 0 30 3 28 2 -3 11 1 19 8 16 13 16
13 -4 -39 -4 -8 6 -3 22 13 16 15 28 30 27 32 -6 9 -48 8 -71 0 -14 -5 -21 -5
-17 0 3 5 19 12 35 16 17 4 30 11 30 16 0 13 -34 11 -47 -2 -8 -8 -17 -7 -34
5 -33 23 -74 20 -103 -7z m-139 -78 c2 -16 -1 -19 -9 -11 -5 5 -7 15 -4 21 10
15 12 14 13 -10z"/>
<path d="M940 755 c0 -3 2 -5 5 -5 3 0 5 2 5 5 0 3 -2 5 -5 5 -3 0 -5 -2 -5
-5z"/>
<path d="M305 730 c-3 -5 -1 -10 4 -10 6 0 11 5 11 10 0 6 -2 10 -4 10 -3 0
-8 -4 -11 -10z"/>
<path d="M513 732 c-7 -5 -9 -13 -4 -21 12 -19 30 -10 22 11 -3 10 -11 14 -18
10z"/>
<path d="M630 735 c0 -3 2 -5 5 -5 3 0 5 2 5 5 0 3 -2 5 -5 5 -3 0 -5 -2 -5
-5z"/>
<path d="M157 710 c3 -12 12 -24 20 -27 24 -9 24 3 -1 26 l-25 23 6 -22z"/>
<path d="M17 703 c-4 -3 -7 -13 -7 -22 1 -13 3 -13 11 2 11 19 8 33 -4 20z"/>
<path d="M333 695 c-9 -24 1 -27 15 -5 8 13 8 20 2 20 -6 0 -13 -7 -17 -15z"/>
<path d="M300 695 c0 -3 2 -5 5 -5 3 0 5 2 5 5 0 3 -2 5 -5 5 -3 0 -5 -2 -5
-5z"/>
<path d="M940 695 c0 -3 2 -5 5 -5 3 0 5 2 5 5 0 3 -2 5 -5 5 -3 0 -5 -2 -5
-5z"/>
<path d="M176 478 c-18 -25 -21 -42 -7 -33 5 3 12 1 16 -5 3 -5 0 -10 -8 -10
-22 0 -27 -24 -12 -54 12 -23 12 -26 -4 -26 -9 0 -22 -5 -29 -12 -14 -14 -15
-12 -2 30 7 28 7 33 -5 28 -9 -3 -15 1 -15 10 0 8 4 13 8 10 4 -2 14 -1 21 3
9 6 6 14 -15 30 -32 25 -38 26 -55 4 -13 -15 -11 -16 18 -10 18 3 35 2 38 -3
4 -6 -2 -7 -12 -3 -10 3 -15 3 -11 -1 4 -5 3 -19 -3 -33 -5 -15 -5 -22 0 -18
10 6 26 -13 18 -21 -12 -12 -61 -13 -76 -2 -14 12 -14 11 -3 -4 8 -9 11 -22 7
-28 -4 -7 32 -10 112 -10 112 0 119 1 132 23 13 20 13 21 -3 8 -25 -21 -32 -4
-8 22 20 21 24 48 9 63 -13 13 -7 23 13 21 11 -1 20 -5 20 -9 0 -4 12 -18 27
-32 24 -22 45 -75 25 -62 -4 2 -8 -4 -8 -15 0 -18 8 -19 116 -19 105 0 116 2
128 21 12 19 11 19 -8 9 -22 -12 -27 -1 -9 17 6 6 19 9 28 6 12 -4 13 -3 3 5
-8 5 -13 12 -13 16 3 17 0 19 -11 5 -7 -8 -12 -12 -11 -10 2 2 -2 10 -8 17
-12 15 -4 34 14 34 7 0 6 -4 -3 -11 -12 -9 -12 -10 3 -5 10 3 22 6 25 6 4 0 0
4 -8 10 -19 12 -6 25 17 15 10 -5 21 -7 26 -7 4 1 7 -4 7 -10 0 -7 14 -29 29
-48 l29 -35 -2 32 c-1 18 0 30 3 28 2 -3 11 1 19 8 16 13 16 13 -4 -39 -4 -8
6 -3 22 13 16 15 28 30 27 32 -6 9 -48 8 -71 0 -14 -5 -21 -5 -17 0 3 5 19 12
35 16 17 4 30 11 30 16 0 13 -34 11 -47 -2 -8 -8 -17 -7 -34 5 -33 23 -74 20
-103 -7 -23 -21 -24 -25 -11 -44 13 -18 13 -22 0 -27 -8 -3 -15 -11 -15 -18 0
-9 3 -9 11 2 9 13 10 13 6 0 -2 -8 -10 -14 -16 -12 -6 1 -14 -4 -17 -13 -5
-12 -9 -12 -30 2 -22 14 -26 14 -43 -1 -9 -9 -21 -13 -24 -10 -11 11 35 45 47
36 22 -17 45 -21 52 -9 4 7 3 9 -1 4 -5 -4 -22 5 -38 20 -17 16 -27 23 -24 17
4 -7 0 -15 -9 -18 -9 -4 -13 -2 -8 5 4 7 1 10 -7 7 -8 -3 -13 -14 -11 -24 2
-18 2 -18 -14 1 -16 20 -16 20 -10 -1 4 -14 2 -21 -8 -21 -19 0 -4 42 15 42 8
1 13 6 12 13 -2 7 0 11 5 11 19 -3 35 2 28 9 -7 7 -11 8 -38 11 -10 1 -10 3 0
10 11 6 10 10 -4 15 -10 4 -24 0 -33 -9 -14 -13 -14 -15 2 -15 11 0 14 -5 10
-15 -7 -20 -25 -14 -29 9 -4 27 -19 38 -58 42 -26 3 -41 -1 -60 -19 -14 -13
-23 -27 -20 -30 3 -3 8 -23 9 -44 2 -21 1 -30 -2 -20 -5 18 -6 18 -19 -2 -16
-23 -39 -29 -31 -8 2 6 -5 22 -16 35 -11 12 -15 22 -9 22 7 0 12 -4 12 -10 0
-5 7 -10 16 -10 11 0 15 -6 11 -20 -3 -12 -1 -18 5 -14 5 3 8 15 5 25 -3 10
-1 22 4 25 13 8 11 21 -7 39 -9 9 -14 25 -11 35 7 27 -8 25 -27 -2z m111 -66
c0 -9 -6 -23 -14 -30 -13 -13 -15 -9 -15 23 0 29 2 34 15 29 8 -3 14 -12 14
-22z m-73 -3 c-3 -5 -10 -7 -15 -3 -5 3 -7 10 -3 15 3 5 10 7 15 3 5 -3 7 -10
3 -15z m206 6 c0 -3 -2 -5 -5 -5 -3 0 -5 2 -5 5 0 3 2 5 5 5 3 0 5 -2 5 -5z"/>
<path d="M260 415 c0 -3 2 -5 5 -5 3 0 5 2 5 5 0 3 -2 5 -5 5 -3 0 -5 -2 -5
-5z"/>
<path d="M260 395 c0 -3 2 -5 5 -5 3 0 5 2 5 5 0 3 -2 5 -5 5 -3 0 -5 -2 -5
-5z"/>
<path d="M200 415 c0 -3 2 -5 5 -5 3 0 5 2 5 5 0 3 -2 5 -5 5 -3 0 -5 -2 -5
-5z"/>
<path d="M496 478 c-9 -12 -16 -29 -16 -38 1 -20 35 -60 51 -60 7 0 9 3 6 7
-4 3 -2 12 3 18 11 14 3 45 -11 45 -5 0 -7 11 -5 25 6 31 -8 32 -28 3z m4 -43
c0 -3 -2 -5 -5 -5 -3 0 -5 2 -5 5 0 3 2 5 5 5 3 0 5 -2 5 -5z m25 -16 c-4 -5
-12 -9 -18 -8 -9 0 -8 2 1 6 6 2 9 10 6 15 -4 7 -2 8 5 4 6 -4 9 -12 6 -17z"/>
<path d="M816 478 c-9 -12 -16 -32 -16 -43 0 -26 -11 -40 -30 -40 -9 0 -14 -7
-12 -17 2 -10 -1 -18 -5 -19 -4 0 -17 -2 -27 -4 -26 -5 -58 13 -50 27 4 6 1 9
-7 6 -8 -3 -15 -13 -16 -24 -2 -10 0 -14 3 -7 4 9 10 10 24 1 14 -9 16 -16 8
-25 -8 -11 12 -13 108 -13 113 0 120 1 133 23 13 20 13 21 -3 8 -32 -27 -31 1
2 30 29 26 32 34 10 30 -5 0 -8 11 -8 25 0 14 4 23 10 19 6 -3 10 1 10 9 0 9
-6 16 -13 16 -23 0 -57 -31 -57 -53 -1 -22 -1 -22 -12 -2 -6 11 -16 23 -21 26
-5 4 -7 16 -4 28 7 28 -8 27 -27 -1z m14 -38 c0 -5 -5 -10 -11 -10 -5 0 -7 5
-4 10 3 6 8 10 11 10 2 0 4 -4 4 -10z m82 -12 c-7 -7 -12 -8 -12 -2 0 14 12
26 19 19 2 -3 -1 -11 -7 -17z m-28 -20 c7 11 29 11 34 -1 1 -4 -2 -15 -8 -25
-11 -16 -11 -16 -6 1 3 9 1 17 -4 17 -6 0 -10 -9 -10 -19 0 -11 -4 -23 -10
-26 -6 -3 -7 1 -4 10 5 11 2 14 -10 9 -9 -3 -16 -12 -16 -20 0 -10 -6 -11 -26
-3 -21 7 -31 6 -44 -6 -12 -11 -20 -13 -25 -6 -3 6 -1 11 4 11 6 0 11 10 11
23 0 18 2 19 10 7 9 -13 10 -13 10 0 1 12 3 11 11 -2 5 -10 17 -18 24 -18 21
0 19 9 -7 31 -20 16 -20 18 -5 19 9 0 17 -4 17 -9 0 -5 7 -12 16 -15 10 -4 13
-2 7 7 -16 26 -12 39 7 22 11 -10 20 -12 24 -7z"/>
<path d="M850 405 c0 -3 2 -5 5 -5 3 0 5 2 5 5 0 3 -2 5 -5 5 -3 0 -5 -2 -5
-5z"/>
<path d="M0 466 c0 -24 12 -46 21 -40 5 3 16 -11 26 -30 20 -44 32 -46 29 -7
-1 17 1 28 5 25 4 -2 10 0 14 6 3 5 -1 10 -11 10 -9 0 -27 11 -40 25 -26 28
-44 32 -44 11z"/>
<path d="M940 435 c0 -3 2 -5 5 -5 3 0 5 2 5 5 0 3 -2 5 -5 5 -3 0 -5 -2 -5
-5z"/>
<path d="M380 425 c0 -3 2 -5 5 -5 3 0 5 2 5 5 0 3 -2 5 -5 5 -3 0 -5 -2 -5
-5z"/>
<path d="M630 415 c0 -3 2 -5 5 -5 3 0 5 2 5 5 0 3 -2 5 -5 5 -3 0 -5 -2 -5
-5z"/>
<path d="M13 375 c-3 -9 -3 -19 1 -22 3 -4 6 1 6 10 0 8 6 18 13 20 9 4 9 6
-1 6 -7 1 -15 -6 -19 -14z"/>
<path d="M333 375 c-9 -24 1 -27 15 -5 8 13 8 20 2 20 -6 0 -13 -7 -17 -15z"/>
<path d="M140 370 c0 -7 3 -10 7 -7 3 4 3 10 0 14 -4 3 -7 0 -7 -7z"/>
<path d="M300 375 c0 -3 2 -5 5 -5 3 0 5 2 5 5 0 3 -2 5 -5 5 -3 0 -5 -2 -5
-5z"/>
<path d="M940 375 c0 -3 2 -5 5 -5 3 0 5 2 5 5 0 3 -2 5 -5 5 -3 0 -5 -2 -5
-5z"/>
<path d="M176 158 c-16 -23 -21 -50 -10 -61 10 -10 34 4 27 17 -3 6 3 2 15 -8
24 -21 31 -6 8 17 -9 8 -12 24 -9 36 7 28 -12 27 -31 -1z m4 -43 c0 -3 -2 -5
-5 -5 -3 0 -5 2 -5 5 0 3 2 5 5 5 3 0 5 -2 5 -5z"/>
<path d="M500 165 c-33 -40 -29 -125 5 -125 21 0 19 9 -7 31 -20 16 -20 18 -5
19 9 0 17 -4 17 -9 0 -5 7 -11 15 -15 8 -3 14 0 12 6 -1 7 3 12 8 13 6 0 15 3
20 6 16 8 35 5 34 -6 0 -5 -7 -9 -15 -7 -8 2 -14 -5 -14 -17 0 -11 -4 -23 -10
-26 -6 -3 -7 1 -4 10 5 11 2 14 -10 9 -9 -3 -16 -12 -16 -20 0 -10 -6 -11 -26
-3 -21 7 -31 6 -44 -6 -12 -11 -20 -13 -25 -6 -3 6 -1 11 4 11 6 0 11 10 11
23 0 18 2 19 11 7 9 -13 10 -13 6 0 -5 21 -33 19 -29 -3 2 -9 -1 -17 -5 -18
-4 0 -17 -2 -27 -4 -26 -5 -58 13 -50 27 4 6 1 9 -7 6 -8 -3 -15 -13 -16 -24
-2 -10 0 -14 3 -7 4 9 10 10 24 1 14 -9 16 -16 8 -25 -8 -11 12 -13 108 -13
113 0 120 1 133 22 13 21 13 22 -3 9 -32 -27 -31 1 2 30 29 26 32 34 10 30 -5
0 -8 11 -8 25 0 14 4 23 10 19 6 -3 10 1 10 9 0 9 -6 16 -13 16 -23 0 -57 -31
-57 -53 -1 -22 -1 -22 -12 -2 -6 11 -16 23 -21 26 -5 4 -7 16 -4 28 6 24 -5
28 -23 6z m10 -45 c0 -5 -5 -10 -11 -10 -5 0 -7 5 -4 10 3 6 8 10 11 10 2 0 4
-4 4 -10z m82 -12 c-7 -7 -12 -8 -12 -2 0 14 12 26 19 19 2 -3 -1 -11 -7 -17z
m-57 -7 c3 -5 2 -12 -3 -15 -5 -3 -9 1 -9 9 0 17 3 19 12 6z m52 -48 c-4 -3
-7 0 -7 7 0 7 3 10 7 7 3 -4 3 -10 0 -14z"/>
<path d="M816 158 c-16 -23 -21 -50 -10 -61 10 -9 34 4 27 16 -4 6 -1 7 7 2
10 -6 10 -10 -2 -19 -18 -13 -12 -36 10 -36 8 0 12 3 9 7 -4 3 -2 12 3 18 11
14 3 45 -11 45 -5 0 -7 11 -5 25 6 31 -8 32 -28 3z m4 -43 c0 -3 -2 -5 -5 -5
-3 0 -5 2 -5 5 0 3 2 5 5 5 3 0 5 -2 5 -5z"/>
<path d="M0 140 c0 -10 12 -31 28 -45 15 -14 27 -30 27 -37 0 -22 22 -19 30 4
4 13 7 26 6 30 0 4 8 5 18 3 10 -2 24 1 32 6 8 5 11 9 7 10 -5 1 -12 3 -18 4
-5 1 -16 3 -22 4 -10 1 -10 3 0 10 11 6 10 10 -4 15 -10 4 -24 0 -33 -9 -14
-13 -14 -15 2 -15 11 0 14 -5 10 -17 -4 -11 -8 -13 -11 -5 -2 7 -9 9 -14 6 -7
-4 -8 -2 -4 4 7 12 -27 52 -44 52 -5 0 -10 -9 -10 -20z"/>
<path d="M256 137 c-23 -21 -24 -25 -11 -44 13 -19 13 -22 -1 -27 -10 -4 -14
-13 -10 -22 3 -8 2 -12 -4 -9 -6 3 -13 -1 -16 -9 -5 -14 -9 -14 -30 1 -22 14
-26 14 -43 -1 -9 -9 -21 -13 -24 -10 -11 11 35 45 47 36 22 -17 45 -21 52 -9
4 7 3 9 -1 4 -5 -4 -22 5 -38 20 -17 16 -27 23 -24 17 4 -7 0 -15 -9 -18 -8
-3 -13 -2 -10 3 3 5 -1 11 -8 14 -19 7 -38 -16 -30 -36 4 -12 -1 -15 -23 -13
-22 1 -29 -3 -29 -16 0 -16 11 -18 116 -18 105 0 116 2 128 21 12 18 11 19 -6
10 -14 -7 -21 -5 -32 12 -12 20 -12 21 3 9 10 -8 17 -9 21 -3 4 6 14 8 24 5
13 -5 14 -4 4 4 -8 5 -13 12 -13 16 3 18 0 18 -13 0 -14 -18 -15 -18 -12 0 1
10 10 24 20 31 13 10 14 14 4 18 -7 2 -10 8 -6 12 4 4 15 4 25 0 10 -5 21 -7
26 -7 4 1 7 -4 7 -10 0 -7 14 -29 29 -48 l29 -35 -2 32 c-1 18 0 30 3 28 2 -3
11 1 19 8 16 13 16 13 -4 -39 -4 -8 6 -3 22 13 16 15 28 30 27 32 -6 9 -48 8
-71 0 -14 -5 -21 -5 -17 0 3 5 19 12 35 16 17 4 30 11 30 16 0 13 -34 11 -47
-2 -8 -8 -17 -7 -34 5 -33 23 -74 20 -103 -7z m14 -32 c-7 -9 -15 -13 -17 -11
-7 7 7 26 19 26 6 0 6 -6 -2 -15z m-153 -46 c2 -16 -1 -19 -9 -11 -5 5 -7 15
-4 21 10 15 12 14 13 -10z"/>
<path d="M640 140 c0 -10 12 -31 28 -45 15 -14 27 -30 27 -37 0 -21 22 -19 28
2 3 11 11 19 19 18 7 -2 12 3 10 10 -1 6 1 11 5 11 20 -3 36 2 29 9 -7 7 -11
8 -38 11 -10 1 -10 3 0 10 11 6 10 10 -4 15 -10 4 -24 0 -33 -9 -14 -13 -14
-15 2 -15 11 0 14 -5 10 -15 -7 -21 -25 -14 -29 10 -3 19 -30 45 -46 45 -4 0
-8 -9 -8 -20z m100 -45 c0 -3 -2 -5 -5 -5 -3 0 -5 2 -5 5 0 3 2 5 5 5 3 0 5
-2 5 -5z"/>
<path d="M896 137 c-23 -21 -24 -25 -11 -44 13 -18 13 -22 0 -27 -8 -3 -15
-11 -15 -18 0 -9 3 -8 10 2 5 8 10 10 10 4 0 -18 -13 -24 -27 -13 -7 6 -13 8
-13 3 0 -4 -14 5 -32 22 -17 16 -28 24 -25 18 4 -7 0 -15 -9 -18 -9 -4 -13 -2
-8 5 4 7 1 10 -7 7 -8 -3 -13 -14 -11 -24 2 -18 2 -18 -14 1 -16 20 -16 20
-10 -2 6 -18 3 -21 -21 -19 -22 1 -29 -3 -29 -16 0 -16 11 -18 116 -18 105 0
116 2 128 21 12 19 11 19 -8 9 -22 -12 -27 -1 -9 17 6 6 19 9 28 6 12 -4 13
-3 3 5 -8 5 -13 12 -13 16 3 17 0 19 -11 5 -7 -8 -12 -12 -11 -10 2 2 -2 10
-8 17 -12 15 -4 34 14 34 7 0 6 -4 -3 -10 -8 -5 -10 -10 -5 -10 6 0 17 5 25
10 10 6 11 10 3 10 -7 0 -13 5 -13 11 0 6 9 9 20 6 13 -3 20 0 20 9 0 22 -36
17 -64 -9z m-44 -101 c4 3 5 -2 2 -10 -5 -14 -9 -13 -30 1 -22 14 -26 14 -43
-1 -9 -9 -21 -13 -24 -10 -4 4 3 15 14 25 18 15 23 16 46 4 15 -8 30 -12 35
-9z"/>
<path d="M620 115 c0 -3 2 -5 5 -5 3 0 5 2 5 5 0 3 -2 5 -5 5 -3 0 -5 -2 -5
-5z"/>
<path d="M700 105 c0 -3 2 -5 5 -5 3 0 5 2 5 5 0 3 -2 5 -5 5 -3 0 -5 -2 -5
-5z"/>
<path d="M193 92 c-7 -5 -9 -13 -4 -21 12 -19 30 -10 22 11 -3 10 -11 14 -18
10z"/>
<path d="M310 95 c0 -3 2 -5 5 -5 3 0 5 2 5 5 0 3 -2 5 -5 5 -3 0 -5 -2 -5 -5z"/>
<path d="M950 95 c0 -3 2 -5 5 -5 3 0 5 2 5 5 0 3 -2 5 -5 5 -3 0 -5 -2 -5 -5z"/>
<path d="M13 55 c-9 -24 1 -27 15 -5 8 13 8 20 2 20 -6 0 -13 -7 -17 -15z"/>
<path d="M653 55 c-9 -24 1 -27 15 -5 8 13 8 20 2 20 -6 0 -13 -7 -17 -15z"/>
<path d="M620 55 c0 -3 2 -5 5 -5 3 0 5 2 5 5 0 3 -2 5 -5 5 -3 0 -5 -2 -5 -5z"/>
</g>
<g transform="translate(0.000000,96.000000) scale(0.100000,-0.100000)"
fill="#007613" stroke="none">
<path d="M520 795 c0 -3 2 -5 5 -5 3 0 5 2 5 5 0 3 -2 5 -5 5 -3 0 -5 -2 -5
-5z"/>
<path d="M190 772 c0 -4 7 -16 15 -26 15 -19 15 -19 15 1 0 11 -7 23 -15 27
-8 3 -15 2 -15 -2z"/>
<path d="M510 771 c0 -5 7 -14 15 -21 12 -10 15 -10 15 3 0 8 -7 17 -15 21 -8
3 -15 2 -15 -3z"/>
<path d="M630 775 c0 -3 2 -5 5 -5 3 0 5 2 5 5 0 3 -2 5 -5 5 -3 0 -5 -2 -5
-5z"/>
<path d="M830 771 c0 -5 7 -14 15 -21 12 -10 15 -10 15 3 0 8 -7 17 -15 21 -8
3 -15 2 -15 -3z"/>
<path d="M940 775 c0 -3 2 -5 5 -5 3 0 5 2 5 5 0 3 -2 5 -5 5 -3 0 -5 -2 -5
-5z"/>
<path d="M130 749 c0 -11 4 -18 10 -14 5 3 7 12 3 20 -7 21 -13 19 -13 -6z"/>
<path d="M85 740 c-10 -11 -13 -20 -8 -20 6 0 14 7 17 16 3 8 11 12 17 8 8 -4
9 -3 5 4 -9 16 -10 15 -31 -8z"/>
<path d="M284 748 c-4 -7 -3 -8 4 -4 12 7 16 16 8 16 -3 0 -8 -5 -12 -12z"/>
<path d="M408 743 c-9 -11 -13 -12 -19 -1 -6 8 -9 9 -9 2 0 -6 7 -17 15 -24
12 -10 15 -10 15 4 0 11 9 16 32 16 17 0 28 3 24 7 -12 12 -46 10 -58 -4z"/>
<path d="M610 755 c0 -3 2 -5 5 -5 3 0 5 2 5 5 0 3 -2 5 -5 5 -3 0 -5 -2 -5
-5z"/>
<path d="M734 749 c-2 -5 -10 -7 -17 -5 -7 1 -9 1 -4 -1 4 -3 4 -10 0 -16 -4
-7 1 -5 11 3 11 8 31 13 45 11 14 -1 23 1 18 5 -10 11 -47 13 -53 3z"/>
<path d="M940 755 c0 -3 2 -5 5 -5 3 0 5 2 5 5 0 3 -2 5 -5 5 -3 0 -5 -2 -5
-5z"/>
<path d="M60 745 c0 -3 2 -5 5 -5 3 0 5 2 5 5 0 3 -2 5 -5 5 -3 0 -5 -2 -5 -5z"/>
<path d="M660 745 c0 -3 2 -5 5 -5 3 0 5 2 5 5 0 3 -2 5 -5 5 -3 0 -5 -2 -5
-5z"/>
<path d="M924 739 c1 -7 10 -13 19 -15 9 -1 15 2 11 7 -3 5 -9 7 -14 4 -4 -3
-11 0 -13 5 -3 6 -4 5 -3 -1z"/>
<path d="M190 735 c0 -3 2 -5 5 -5 3 0 5 2 5 5 0 3 -2 5 -5 5 -3 0 -5 -2 -5
-5z"/>
<path d="M310 730 c0 -7 3 -10 7 -7 3 4 3 10 0 14 -4 3 -7 0 -7 -7z"/>
<path d="M350 735 c0 -3 2 -5 5 -5 3 0 5 2 5 5 0 3 -2 5 -5 5 -3 0 -5 -2 -5
-5z"/>
<path d="M630 735 c0 -3 2 -5 5 -5 3 0 5 2 5 5 0 3 -2 5 -5 5 -3 0 -5 -2 -5
-5z"/>
<path d="M794 728 c-4 -7 -3 -8 4 -4 7 4 12 9 12 12 0 8 -9 4 -16 -8z"/>
<path d="M150 725 c0 -3 2 -5 5 -5 3 0 5 2 5 5 0 3 -2 5 -5 5 -3 0 -5 -2 -5
-5z"/>
<path d="M280 725 c0 -3 2 -5 5 -5 3 0 5 2 5 5 0 3 -2 5 -5 5 -3 0 -5 -2 -5
-5z"/>
<path d="M470 725 c0 -3 2 -5 5 -5 3 0 5 2 5 5 0 3 -2 5 -5 5 -3 0 -5 -2 -5
-5z"/>
<path d="M600 725 c0 -3 2 -5 5 -5 3 0 5 2 5 5 0 3 -2 5 -5 5 -3 0 -5 -2 -5
-5z"/>
<path d="M756 705 c2 -14 1 -25 -3 -26 -5 0 -17 -2 -27 -4 -11 -2 -29 1 -40 6
-19 9 -19 9 -4 -4 13 -10 15 -16 6 -25 -9 -9 17 -12 108 -12 113 0 120 1 133
23 13 20 13 21 -3 8 -15 -13 -19 -13 -26 -1 -5 8 -12 11 -16 7 -4 -4 -13 -2
-21 4 -10 9 -13 8 -13 -3 0 -10 -8 -13 -30 -10 -17 2 -36 -1 -44 -7 -10 -8
-16 -9 -21 -1 -3 5 -1 10 4 10 6 0 11 9 11 21 0 11 5 17 10 14 6 -3 10 -4 10
-1 0 3 -9 10 -19 16 -17 9 -19 7 -15 -15z"/>
<path d="M123 714 c-7 -3 -9 -12 -6 -20 3 -8 0 -15 -6 -15 -6 -1 -15 -3 -21
-4 -5 -1 -16 -3 -24 -4 -8 0 -16 -8 -20 -16 -5 -13 12 -15 112 -15 101 0 119
2 128 18 10 15 7 17 -20 16 -17 -1 -37 4 -45 10 -11 8 -13 8 -7 -1 5 -10 -3
-13 -31 -13 -22 0 -44 -5 -49 -10 -7 -7 -9 -1 -6 20 2 17 9 27 15 23 6 -3 7
-1 3 5 -4 7 -8 12 -9 11 -1 0 -7 -3 -14 -5z"/>
<path d="M255 709 c-4 -6 -5 -12 -2 -15 2 -3 7 2 10 11 7 17 1 20 -8 4z"/>
<path d="M437 714 c-3 -3 -3 -13 0 -22 4 -10 2 -13 -5 -8 -7 4 -12 3 -12 -2 0
-6 -13 -9 -28 -8 -21 1 -28 -3 -28 -16 0 -16 11 -18 116 -18 105 0 116 2 128
21 12 19 11 19 -8 9 -15 -8 -20 -8 -20 1 0 6 -6 9 -14 6 -7 -3 -18 -1 -24 5
-6 6 -12 6 -17 -3 -5 -8 -4 -10 3 -5 8 5 10 1 6 -9 -5 -12 -10 -13 -17 -6 -14
14 -50 14 -64 0 -8 -8 -13 -8 -17 0 -4 6 -2 11 3 11 6 0 11 9 11 21 0 13 4 18
12 13 7 -4 8 -3 4 4 -8 13 -19 15 -29 6z"/>
<path d="M575 709 c-4 -6 -5 -12 -2 -15 2 -3 7 2 10 11 7 17 1 20 -8 4z"/>
<path d="M895 709 c-4 -6 -5 -12 -2 -15 2 -3 7 2 10 11 7 17 1 20 -8 4z"/>
<path d="M70 695 c0 -3 2 -5 5 -5 3 0 5 2 5 5 0 3 -2 5 -5 5 -3 0 -5 -2 -5 -5z"/>
<path d="M230 690 c0 -7 3 -10 7 -7 3 4 3 10 0 14 -4 3 -7 0 -7 -7z"/>
<path d="M300 695 c0 -3 2 -5 5 -5 3 0 5 2 5 5 0 3 -2 5 -5 5 -3 0 -5 -2 -5
-5z"/>
<path d="M370 695 c0 -3 2 -5 5 -5 3 0 5 2 5 5 0 3 -2 5 -5 5 -3 0 -5 -2 -5
-5z"/>
<path d="M550 690 c0 -7 3 -10 7 -7 3 4 3 10 0 14 -4 3 -7 0 -7 -7z"/>
<path d="M613 693 c4 -3 10 -3 14 0 3 4 0 7 -7 7 -7 0 -10 -3 -7 -7z"/>
<path d="M870 690 c0 -7 3 -10 7 -7 3 4 3 10 0 14 -4 3 -7 0 -7 -7z"/>
<path d="M940 695 c0 -3 2 -5 5 -5 3 0 5 2 5 5 0 3 -2 5 -5 5 -3 0 -5 -2 -5
-5z"/>
<path d="M520 475 c0 -3 2 -5 5 -5 3 0 5 2 5 5 0 3 -2 5 -5 5 -3 0 -5 -2 -5
-5z"/>
<path d="M190 451 c0 -5 7 -14 15 -21 12 -10 15 -10 15 3 0 8 -7 17 -15 21 -8
3 -15 2 -15 -3z"/>
<path d="M300 455 c0 -3 2 -5 5 -5 3 0 5 2 5 5 0 3 -2 5 -5 5 -3 0 -5 -2 -5
-5z"/>
<path d="M510 452 c0 -4 7 -16 15 -26 15 -19 15 -19 15 1 0 11 -7 23 -15 27
-8 3 -15 2 -15 -2z"/>
<path d="M630 455 c0 -3 2 -5 5 -5 3 0 5 2 5 5 0 3 -2 5 -5 5 -3 0 -5 -2 -5
-5z"/>
<path d="M830 451 c0 -5 7 -14 15 -21 12 -10 15 -10 15 3 0 8 -7 17 -15 21 -8
3 -15 2 -15 -3z"/>
<path d="M940 455 c0 -3 2 -5 5 -5 3 0 5 2 5 5 0 3 -2 5 -5 5 -3 0 -5 -2 -5
-5z"/>
<path d="M94 429 c-2 -5 -11 -6 -19 -2 -8 3 -15 0 -15 -5 0 -18 17 -23 29 -8
7 8 22 11 39 8 15 -2 24 -1 19 4 -10 10 -47 13 -53 3z m-14 -14 c0 -3 -2 -5
-5 -5 -3 0 -5 2 -5 5 0 3 2 5 5 5 3 0 5 -2 5 -5z"/>
<path d="M404 419 c-10 -11 -12 -19 -5 -24 6 -3 11 1 11 9 0 11 10 16 32 16
17 0 28 3 24 7 -13 13 -46 9 -62 -8z"/>
<path d="M610 435 c0 -3 2 -5 5 -5 3 0 5 2 5 5 0 3 -2 5 -5 5 -3 0 -5 -2 -5
-5z"/>
<path d="M734 429 c-2 -5 -10 -7 -17 -5 -7 1 -9 1 -4 -1 4 -3 4 -10 0 -16 -4
-7 1 -5 11 3 11 8 31 13 45 11 14 -1 23 1 18 5 -10 11 -47 13 -53 3z"/>
<path d="M940 435 c0 -3 2 -5 5 -5 3 0 5 2 5 5 0 3 -2 5 -5 5 -3 0 -5 -2 -5
-5z"/>
<path d="M285 421 c-3 -5 -2 -12 3 -15 5 -3 9 1 9 9 0 17 -3 19 -12 6z"/>
<path d="M380 425 c0 -3 2 -5 5 -5 3 0 5 2 5 5 0 3 -2 5 -5 5 -3 0 -5 -2 -5
-5z"/>
<path d="M660 425 c0 -3 2 -5 5 -5 3 0 5 2 5 5 0 3 -2 5 -5 5 -3 0 -5 -2 -5
-5z"/>
<path d="M924 419 c1 -7 10 -13 19 -15 9 -1 15 2 11 7 -3 5 -9 7 -14 4 -4 -3
-11 0 -13 5 -3 6 -4 5 -3 -1z"/>
<path d="M154 408 c-4 -7 -3 -8 4 -4 7 4 12 9 12 12 0 8 -9 4 -16 -8z"/>
<path d="M350 415 c0 -3 2 -5 5 -5 3 0 5 2 5 5 0 3 -2 5 -5 5 -3 0 -5 -2 -5
-5z"/>
<path d="M630 415 c0 -3 2 -5 5 -5 3 0 5 2 5 5 0 3 -2 5 -5 5 -3 0 -5 -2 -5
-5z"/>
<path d="M794 408 c-4 -7 -3 -8 4 -4 7 4 12 9 12 12 0 8 -9 4 -16 -8z"/>
<path d="M420 405 c0 -3 2 -5 5 -5 3 0 5 2 5 5 0 3 -2 5 -5 5 -3 0 -5 -2 -5
-5z"/>
<path d="M470 405 c0 -3 2 -5 5 -5 3 0 5 2 5 5 0 3 -2 5 -5 5 -3 0 -5 -2 -5
-5z"/>
<path d="M600 405 c0 -3 2 -5 5 -5 3 0 5 2 5 5 0 3 -2 5 -5 5 -3 0 -5 -2 -5
-5z"/>
<path d="M756 385 c2 -14 1 -25 -3 -26 -5 0 -17 -2 -27 -4 -11 -2 -29 1 -40 6
-19 9 -19 9 -4 -4 13 -10 15 -16 6 -25 -9 -9 17 -12 108 -12 113 0 120 1 133
23 13 20 13 21 -3 8 -15 -13 -19 -13 -26 -1 -5 8 -12 11 -16 7 -4 -4 -13 -2
-21 4 -10 9 -13 8 -13 -3 0 -10 -8 -13 -30 -10 -17 2 -36 -1 -44 -7 -10 -8
-16 -9 -21 -1 -3 5 -1 10 4 10 6 0 11 9 11 21 0 11 5 17 10 14 6 -3 10 -4 10
-1 0 3 -9 10 -19 16 -17 9 -19 7 -15 -15z"/>
<path d="M117 394 c-3 -3 -3 -12 0 -20 3 -8 1 -14 -3 -15 -5 0 -20 -2 -33 -5
-13 -2 -31 1 -40 8 -14 12 -14 11 -3 -4 8 -9 11 -22 7 -28 -4 -7 32 -10 112
-10 112 0 119 1 132 23 13 21 13 21 -4 7 -14 -11 -19 -12 -22 -2 -3 6 -9 10
-14 6 -5 -3 -9 3 -9 13 0 15 -2 14 -15 -4 -12 -18 -22 -21 -45 -16 -18 3 -36
0 -45 -7 -18 -15 -18 -14 -6 28 9 29 3 41 -12 26z"/>
<path d="M255 389 c-4 -6 -5 -12 -2 -15 2 -3 7 2 10 11 7 17 1 20 -8 4z"/>
<path d="M437 394 c-3 -3 -3 -13 0 -22 4 -10 2 -13 -5 -8 -7 4 -12 3 -12 -2 0
-5 -13 -8 -28 -7 -21 2 -28 -2 -28 -16 0 -17 10 -19 116 -19 105 0 116 2 128
21 12 19 11 19 -8 9 -15 -8 -20 -8 -20 1 0 6 -6 9 -14 6 -7 -3 -18 -1 -24 5
-6 6 -12 6 -17 -3 -5 -8 -4 -10 3 -5 8 5 10 1 6 -9 -5 -12 -10 -13 -17 -6 -14
14 -50 14 -64 0 -8 -8 -13 -8 -17 0 -4 6 -2 11 3 11 6 0 11 9 11 21 0 13 4 18
12 13 7 -4 8 -3 4 4 -8 13 -19 15 -29 6z"/>
<path d="M575 389 c-4 -6 -5 -12 -2 -15 2 -3 7 2 10 11 7 17 1 20 -8 4z"/>
<path d="M895 389 c-4 -6 -5 -12 -2 -15 2 -3 7 2 10 11 7 17 1 20 -8 4z"/>
<path d="M300 375 c0 -3 2 -5 5 -5 3 0 5 2 5 5 0 3 -2 5 -5 5 -3 0 -5 -2 -5
-5z"/>
<path d="M370 375 c0 -3 2 -5 5 -5 3 0 5 2 5 5 0 3 -2 5 -5 5 -3 0 -5 -2 -5
-5z"/>
<path d="M550 370 c0 -7 3 -10 7 -7 3 4 3 10 0 14 -4 3 -7 0 -7 -7z"/>
<path d="M613 373 c4 -3 10 -3 14 0 3 4 0 7 -7 7 -7 0 -10 -3 -7 -7z"/>
<path d="M870 370 c0 -7 3 -10 7 -7 3 4 3 10 0 14 -4 3 -7 0 -7 -7z"/>
<path d="M940 375 c0 -3 2 -5 5 -5 3 0 5 2 5 5 0 3 -2 5 -5 5 -3 0 -5 -2 -5
-5z"/>
<path d="M204 358 c-4 -7 -3 -8 4 -4 12 7 16 16 8 16 -3 0 -8 -5 -12 -12z"/>
<path d="M200 155 c0 -3 2 -5 5 -5 3 0 5 2 5 5 0 3 -2 5 -5 5 -3 0 -5 -2 -5
-5z"/>
<path d="M840 155 c0 -3 2 -5 5 -5 3 0 5 2 5 5 0 3 -2 5 -5 5 -3 0 -5 -2 -5
-5z"/>
<path d="M190 131 c0 -5 7 -14 15 -21 12 -10 15 -10 15 3 0 8 -7 17 -15 21 -8
3 -15 2 -15 -3z"/>
<path d="M310 135 c0 -3 2 -5 5 -5 3 0 5 2 5 5 0 3 -2 5 -5 5 -3 0 -5 -2 -5
-5z"/>
<path d="M510 131 c0 -5 7 -14 15 -21 12 -10 15 -10 15 3 0 8 -7 17 -15 21 -8
3 -15 2 -15 -3z"/>
<path d="M620 135 c0 -3 2 -5 5 -5 3 0 5 2 5 5 0 3 -2 5 -5 5 -3 0 -5 -2 -5
-5z"/>
<path d="M830 132 c0 -4 7 -16 15 -26 15 -19 15 -19 15 1 0 11 -7 23 -15 27
-8 3 -15 2 -15 -2z"/>
<path d="M950 135 c0 -3 2 -5 5 -5 3 0 5 2 5 5 0 3 -2 5 -5 5 -3 0 -5 -2 -5
-5z"/>
<path d="M88 103 c-9 -11 -13 -12 -19 -1 -6 8 -9 9 -9 2 0 -6 7 -17 15 -24 12
-10 15 -10 15 4 0 11 9 16 32 16 17 0 28 3 24 7 -12 12 -46 10 -58 -4z"/>
<path d="M290 115 c0 -3 2 -5 5 -5 3 0 5 2 5 5 0 3 -2 5 -5 5 -3 0 -5 -2 -5
-5z"/>
<path d="M414 109 c-2 -5 -10 -7 -17 -5 -7 1 -9 1 -4 -1 4 -3 4 -10 0 -16 -4
-7 1 -5 11 3 11 8 31 13 45 11 14 -1 23 1 18 5 -10 11 -47 13 -53 3z"/>
<path d="M620 115 c0 -3 2 -5 5 -5 3 0 5 2 5 5 0 3 -2 5 -5 5 -3 0 -5 -2 -5
-5z"/>
<path d="M724 99 c-10 -11 -12 -19 -5 -24 6 -3 11 1 11 9 0 11 10 16 32 16 17
0 28 3 24 7 -13 13 -46 9 -62 -8z"/>
<path d="M930 115 c0 -3 2 -5 5 -5 3 0 5 2 5 5 0 3 -2 5 -5 5 -3 0 -5 -2 -5
-5z"/>
<path d="M340 105 c0 -3 2 -5 5 -5 3 0 5 2 5 5 0 3 -2 5 -5 5 -3 0 -5 -2 -5
-5z"/>
<path d="M604 99 c1 -7 10 -13 19 -15 9 -1 15 2 11 7 -3 5 -9 7 -14 4 -4 -3
-11 0 -13 5 -3 6 -4 5 -3 -1z"/>
<path d="M700 105 c0 -3 2 -5 5 -5 3 0 5 2 5 5 0 3 -2 5 -5 5 -3 0 -5 -2 -5
-5z"/>
<path d="M30 95 c0 -3 2 -5 5 -5 3 0 5 2 5 5 0 3 -2 5 -5 5 -3 0 -5 -2 -5 -5z"/>
<path d="M310 95 c0 -3 2 -5 5 -5 3 0 5 2 5 5 0 3 -2 5 -5 5 -3 0 -5 -2 -5 -5z"/>
<path d="M474 88 c-4 -7 -3 -8 4 -4 7 4 12 9 12 12 0 8 -9 4 -16 -8z"/>
<path d="M670 95 c0 -3 2 -5 5 -5 3 0 5 2 5 5 0 3 -2 5 -5 5 -3 0 -5 -2 -5 -5z"/>
<path d="M950 95 c0 -3 2 -5 5 -5 3 0 5 2 5 5 0 3 -2 5 -5 5 -3 0 -5 -2 -5 -5z"/>
<path d="M150 85 c0 -3 2 -5 5 -5 3 0 5 2 5 5 0 3 -2 5 -5 5 -3 0 -5 -2 -5 -5z"/>
<path d="M280 85 c0 -3 2 -5 5 -5 3 0 5 2 5 5 0 3 -2 5 -5 5 -3 0 -5 -2 -5 -5z"/>
<path d="M436 65 c2 -14 1 -25 -3 -26 -5 0 -17 -2 -27 -4 -11 -2 -29 1 -40 6
-19 9 -19 9 -4 -4 13 -10 15 -16 6 -25 -9 -9 17 -12 108 -12 113 0 120 1 133
22 13 21 13 22 -3 9 -15 -13 -19 -13 -26 -1 -5 8 -12 11 -16 7 -4 -4 -13 -2
-21 4 -10 9 -13 8 -13 -3 0 -10 -8 -13 -30 -10 -17 2 -36 -1 -44 -7 -10 -8
-16 -9 -21 -1 -3 5 -1 10 4 10 6 0 11 9 11 21 0 11 5 17 10 14 6 -3 10 -4 10
-1 0 3 -9 10 -19 16 -17 9 -19 7 -15 -15z"/>
<path d="M740 85 c0 -3 2 -5 5 -5 3 0 5 2 5 5 0 3 -2 5 -5 5 -3 0 -5 -2 -5 -5z"/>
<path d="M790 85 c0 -3 2 -5 5 -5 3 0 5 2 5 5 0 3 -2 5 -5 5 -3 0 -5 -2 -5 -5z"/>
<path d="M920 85 c0 -3 2 -5 5 -5 3 0 5 2 5 5 0 3 -2 5 -5 5 -3 0 -5 -2 -5 -5z"/>
<path d="M117 74 c-3 -3 -3 -13 0 -22 4 -10 2 -13 -5 -8 -7 4 -12 3 -12 -2 0
-6 -13 -9 -28 -8 -21 1 -28 -3 -28 -16 0 -16 11 -18 116 -18 105 0 116 2 128
21 12 19 11 19 -8 9 -15 -8 -20 -8 -20 1 0 6 -6 9 -14 6 -7 -3 -18 -1 -24 5
-6 6 -12 6 -17 -3 -5 -8 -4 -10 3 -5 8 5 10 1 6 -9 -5 -12 -10 -13 -17 -6 -14
14 -50 14 -64 0 -8 -8 -13 -8 -17 0 -4 6 -2 11 3 11 6 0 11 9 11 21 0 13 4 18
12 13 7 -4 8 -3 4 4 -8 13 -19 15 -29 6z"/>
<path d="M255 69 c-4 -6 -5 -12 -2 -15 2 -3 7 2 10 11 7 17 1 20 -8 4z"/>
<path d="M575 69 c-4 -6 -5 -12 -2 -15 2 -3 7 2 10 11 7 17 1 20 -8 4z"/>
<path d="M757 74 c-3 -3 -3 -13 0 -22 4 -10 2 -13 -5 -8 -7 4 -12 3 -12 -2 0
-6 -13 -9 -28 -8 -21 1 -28 -3 -28 -16 0 -16 11 -18 116 -18 105 0 116 2 128
21 12 19 11 19 -8 9 -15 -8 -20 -8 -20 1 0 6 -6 9 -14 6 -7 -3 -18 -1 -24 5
-6 6 -12 6 -17 -3 -5 -8 -4 -10 3 -5 8 5 10 1 6 -9 -5 -12 -10 -13 -17 -6 -14
14 -50 14 -64 0 -8 -8 -13 -8 -17 0 -4 6 -2 11 3 11 6 0 11 9 11 21 0 13 4 18
12 13 7 -4 8 -3 4 4 -8 13 -19 15 -29 6z"/>
<path d="M895 69 c-4 -6 -5 -12 -2 -15 2 -3 7 2 10 11 7 17 1 20 -8 4z"/>
<path d="M50 55 c0 -3 2 -5 5 -5 3 0 5 2 5 5 0 3 -2 5 -5 5 -3 0 -5 -2 -5 -5z"/>
<path d="M230 50 c0 -7 3 -10 7 -7 3 4 3 10 0 14 -4 3 -7 0 -7 -7z"/>
<path d="M293 53 c4 -3 10 -3 14 0 3 4 0 7 -7 7 -7 0 -10 -3 -7 -7z"/>
<path d="M550 50 c0 -7 3 -10 7 -7 3 4 3 10 0 14 -4 3 -7 0 -7 -7z"/>
<path d="M620 55 c0 -3 2 -5 5 -5 3 0 5 2 5 5 0 3 -2 5 -5 5 -3 0 -5 -2 -5 -5z"/>
<path d="M690 55 c0 -3 2 -5 5 -5 3 0 5 2 5 5 0 3 -2 5 -5 5 -3 0 -5 -2 -5 -5z"/>
<path d="M870 50 c0 -7 3 -10 7 -7 3 4 3 10 0 14 -4 3 -7 0 -7 -7z"/>
<path d="M933 53 c4 -3 10 -3 14 0 3 4 0 7 -7 7 -7 0 -10 -3 -7 -7z"/>
</g>
<g transform="translate(0.000000,96.000000) scale(0.100000,-0.100000)"
fill="#9fa634" stroke="none">
<path d="M190 771 c0 -5 7 -15 17 -22 15 -13 15 -12 4 9 -12 23 -21 28 -21 13z"/>
<path d="M510 771 c0 -5 7 -15 17 -22 15 -13 15 -12 4 9 -12 23 -21 28 -21 13z"/>
<path d="M830 771 c0 -5 7 -15 17 -22 15 -13 15 -12 4 9 -12 23 -21 28 -21 13z"/>
<path d="M89 743 c-13 -16 -12 -17 4 -4 16 13 21 21 13 21 -2 0 -10 -8 -17
-17z"/>
<path d="M409 743 c-13 -16 -12 -17 4 -4 9 7 17 15 17 17 0 8 -8 3 -21 -13z"/>
<path d="M729 743 c-13 -16 -12 -17 4 -4 9 7 17 15 17 17 0 8 -8 3 -21 -13z"/>
<path d="M660 745 c0 -3 2 -5 5 -5 3 0 5 2 5 5 0 3 -2 5 -5 5 -3 0 -5 -2 -5
-5z"/>
<path d="M190 735 c0 -3 2 -5 5 -5 3 0 5 2 5 5 0 3 -2 5 -5 5 -3 0 -5 -2 -5
-5z"/>
<path d="M350 735 c0 -3 2 -5 5 -5 3 0 5 2 5 5 0 3 -2 5 -5 5 -3 0 -5 -2 -5
-5z"/>
<path d="M380 735 c0 -3 2 -5 5 -5 3 0 5 2 5 5 0 3 -2 5 -5 5 -3 0 -5 -2 -5
-5z"/>
<path d="M150 725 c0 -3 2 -5 5 -5 3 0 5 2 5 5 0 3 -2 5 -5 5 -3 0 -5 -2 -5
-5z"/>
<path d="M470 725 c0 -3 2 -5 5 -5 3 0 5 2 5 5 0 3 -2 5 -5 5 -3 0 -5 -2 -5
-5z"/>
<path d="M750 725 c0 -3 2 -5 5 -5 3 0 5 2 5 5 0 3 -2 5 -5 5 -3 0 -5 -2 -5
-5z"/>
<path d="M790 725 c0 -3 2 -5 5 -5 3 0 5 2 5 5 0 3 -2 5 -5 5 -3 0 -5 -2 -5
-5z"/>
<path d="M255 709 c-4 -6 -5 -12 -2 -15 2 -3 7 2 10 11 7 17 1 20 -8 4z"/>
<path d="M575 709 c-4 -6 -5 -12 -2 -15 2 -3 7 2 10 11 7 17 1 20 -8 4z"/>
<path d="M895 709 c-4 -6 -5 -12 -2 -15 2 -3 7 2 10 11 7 17 1 20 -8 4z"/>
<path d="M122 690 c0 -14 2 -19 5 -12 2 6 2 18 0 25 -3 6 -5 1 -5 -13z"/>
<path d="M442 690 c0 -14 2 -19 5 -12 2 6 2 18 0 25 -3 6 -5 1 -5 -13z"/>
<path d="M762 690 c0 -14 2 -19 5 -12 2 6 2 18 0 25 -3 6 -5 1 -5 -13z"/>
<path d="M70 695 c0 -3 2 -5 5 -5 3 0 5 2 5 5 0 3 -2 5 -5 5 -3 0 -5 -2 -5 -5z"/>
<path d="M230 689 c0 -5 -4 -7 -10 -4 -5 3 -7 0 -4 -8 8 -22 -12 -30 -36 -15
-16 10 -24 10 -41 0 -15 -10 -24 -11 -32 -3 -16 16 -42 14 -57 -4 -11 -13 2
-15 110 -15 108 0 121 2 110 15 -7 8 -19 15 -26 15 -8 0 -11 6 -8 15 4 8 3 15
0 15 -3 0 -6 -5 -6 -11z"/>
<path d="M550 689 c0 -5 -4 -7 -10 -4 -5 3 -7 0 -4 -8 8 -22 -12 -30 -36 -15
-16 10 -24 10 -41 0 -15 -10 -24 -11 -32 -3 -16 16 -42 14 -57 -4 -11 -13 2
-15 110 -15 108 0 121 2 110 15 -7 8 -19 15 -26 15 -8 0 -11 6 -8 15 4 8 3 15
0 15 -3 0 -6 -5 -6 -11z"/>
<path d="M870 689 c0 -5 -4 -7 -10 -4 -5 3 -7 0 -4 -8 8 -22 -12 -30 -36 -15
-16 10 -24 10 -41 0 -15 -10 -24 -11 -32 -3 -16 16 -42 14 -57 -4 -11 -13 2
-15 110 -15 108 0 121 2 110 15 -7 8 -19 15 -26 15 -8 0 -11 6 -8 15 4 8 3 15
0 15 -3 0 -6 -5 -6 -11z"/>
<path d="M190 451 c0 -5 7 -15 17 -22 15 -13 15 -12 4 9 -12 23 -21 28 -21 13z"/>
<path d="M510 451 c0 -5 7 -15 17 -22 15 -13 15 -12 4 9 -12 23 -21 28 -21 13z"/>
<path d="M830 451 c0 -5 7 -15 17 -22 15 -13 15 -12 4 9 -12 23 -21 28 -21 13z"/>
<path d="M89 423 c-13 -16 -12 -17 4 -4 9 7 17 15 17 17 0 8 -8 3 -21 -13z"/>
<path d="M409 423 c-13 -16 -12 -17 4 -4 9 7 17 15 17 17 0 8 -8 3 -21 -13z"/>
<path d="M729 423 c-13 -16 -12 -17 4 -4 16 13 21 21 13 21 -2 0 -10 -8 -17
-17z"/>
<path d="M660 425 c0 -3 2 -5 5 -5 3 0 5 2 5 5 0 3 -2 5 -5 5 -3 0 -5 -2 -5
-5z"/>
<path d="M60 415 c0 -3 2 -5 5 -5 3 0 5 2 5 5 0 3 -2 5 -5 5 -3 0 -5 -2 -5 -5z"/>
<path d="M350 415 c0 -3 2 -5 5 -5 3 0 5 2 5 5 0 3 -2 5 -5 5 -3 0 -5 -2 -5
-5z"/>
<path d="M150 405 c0 -3 2 -5 5 -5 3 0 5 2 5 5 0 3 -2 5 -5 5 -3 0 -5 -2 -5
-5z"/>
<path d="M420 405 c0 -3 2 -5 5 -5 3 0 5 2 5 5 0 3 -2 5 -5 5 -3 0 -5 -2 -5
-5z"/>
<path d="M470 405 c0 -3 2 -5 5 -5 3 0 5 2 5 5 0 3 -2 5 -5 5 -3 0 -5 -2 -5
-5z"/>
<path d="M750 405 c0 -3 2 -5 5 -5 3 0 5 2 5 5 0 3 -2 5 -5 5 -3 0 -5 -2 -5
-5z"/>
<path d="M790 405 c0 -3 2 -5 5 -5 3 0 5 2 5 5 0 3 -2 5 -5 5 -3 0 -5 -2 -5
-5z"/>
<path d="M255 389 c-4 -6 -5 -12 -2 -15 2 -3 7 2 10 11 7 17 1 20 -8 4z"/>
<path d="M575 389 c-4 -6 -5 -12 -2 -15 2 -3 7 2 10 11 7 17 1 20 -8 4z"/>
<path d="M895 389 c-4 -6 -5 -12 -2 -15 2 -3 7 2 10 11 7 17 1 20 -8 4z"/>
<path d="M122 370 c0 -14 2 -19 5 -12 2 6 2 18 0 25 -3 6 -5 1 -5 -13z"/>
<path d="M442 370 c0 -14 2 -19 5 -12 2 6 2 18 0 25 -3 6 -5 1 -5 -13z"/>
<path d="M762 370 c0 -14 2 -19 5 -12 2 6 2 18 0 25 -3 6 -5 1 -5 -13z"/>
<path d="M230 369 c0 -5 -4 -7 -10 -4 -5 3 -7 0 -4 -8 8 -22 -12 -30 -36 -15
-16 10 -24 10 -41 0 -15 -10 -24 -11 -32 -3 -16 16 -42 14 -57 -4 -11 -13 2
-15 110 -15 108 0 121 2 110 15 -7 8 -19 15 -26 15 -8 0 -11 6 -8 15 4 8 3 15
0 15 -3 0 -6 -5 -6 -11z"/>
<path d="M550 369 c0 -5 -4 -7 -10 -4 -5 3 -7 0 -4 -8 8 -22 -12 -30 -36 -15
-16 10 -24 10 -41 0 -13 -8 -25 -10 -32 -4 -25 19 -44 20 -55 1 -12 -18 -8
-19 109 -19 107 0 120 2 109 15 -7 8 -19 15 -26 15 -8 0 -11 6 -8 15 4 8 3 15
0 15 -3 0 -6 -5 -6 -11z"/>
<path d="M870 369 c0 -5 -4 -7 -10 -4 -5 3 -7 0 -4 -8 8 -22 -12 -30 -36 -15
-16 10 -24 10 -41 0 -15 -10 -24 -11 -32 -3 -16 16 -42 14 -57 -4 -11 -13 2
-15 110 -15 108 0 121 2 110 15 -7 8 -19 15 -26 15 -8 0 -11 6 -8 15 4 8 3 15
0 15 -3 0 -6 -5 -6 -11z"/>
<path d="M190 131 c0 -5 7 -15 17 -22 15 -13 15 -12 4 9 -12 23 -21 28 -21 13z"/>
<path d="M510 131 c0 -5 7 -15 17 -22 15 -13 15 -12 4 9 -12 23 -21 28 -21 13z"/>
<path d="M830 131 c0 -5 7 -15 17 -22 15 -13 15 -12 4 9 -12 23 -21 28 -21 13z"/>
<path d="M89 103 c-13 -16 -12 -17 4 -4 9 7 17 15 17 17 0 8 -8 3 -21 -13z"/>
<path d="M409 103 c-13 -16 -12 -17 4 -4 16 13 21 21 13 21 -2 0 -10 -8 -17
-17z"/>
<path d="M729 103 c-13 -16 -12 -17 4 -4 9 7 17 15 17 17 0 8 -8 3 -21 -13z"/>
<path d="M340 105 c0 -3 2 -5 5 -5 3 0 5 2 5 5 0 3 -2 5 -5 5 -3 0 -5 -2 -5
-5z"/>
<path d="M30 95 c0 -3 2 -5 5 -5 3 0 5 2 5 5 0 3 -2 5 -5 5 -3 0 -5 -2 -5 -5z"/>
<path d="M60 95 c0 -3 2 -5 5 -5 3 0 5 2 5 5 0 3 -2 5 -5 5 -3 0 -5 -2 -5 -5z"/>
<path d="M670 95 c0 -3 2 -5 5 -5 3 0 5 2 5 5 0 3 -2 5 -5 5 -3 0 -5 -2 -5 -5z"/>
<path d="M150 85 c0 -3 2 -5 5 -5 3 0 5 2 5 5 0 3 -2 5 -5 5 -3 0 -5 -2 -5 -5z"/>
<path d="M430 85 c0 -3 2 -5 5 -5 3 0 5 2 5 5 0 3 -2 5 -5 5 -3 0 -5 -2 -5 -5z"/>
<path d="M470 85 c0 -3 2 -5 5 -5 3 0 5 2 5 5 0 3 -2 5 -5 5 -3 0 -5 -2 -5 -5z"/>
<path d="M740 85 c0 -3 2 -5 5 -5 3 0 5 2 5 5 0 3 -2 5 -5 5 -3 0 -5 -2 -5 -5z"/>
<path d="M790 85 c0 -3 2 -5 5 -5 3 0 5 2 5 5 0 3 -2 5 -5 5 -3 0 -5 -2 -5 -5z"/>
<path d="M255 69 c-4 -6 -5 -12 -2 -15 2 -3 7 2 10 11 7 17 1 20 -8 4z"/>
<path d="M575 69 c-4 -6 -5 -12 -2 -15 2 -3 7 2 10 11 7 17 1 20 -8 4z"/>
<path d="M895 69 c-4 -6 -5 -12 -2 -15 2 -3 7 2 10 11 7 17 1 20 -8 4z"/>
<path d="M122 50 c0 -14 2 -19 5 -12 2 6 2 18 0 25 -3 6 -5 1 -5 -13z"/>
<path d="M442 50 c0 -14 2 -19 5 -12 2 6 2 18 0 25 -3 6 -5 1 -5 -13z"/>
<path d="M762 50 c0 -14 2 -19 5 -12 2 6 2 18 0 25 -3 6 -5 1 -5 -13z"/>
<path d="M230 49 c0 -5 -4 -7 -10 -4 -5 3 -7 0 -4 -8 8 -22 -12 -30 -36 -15
-16 10 -24 10 -41 0 -15 -10 -24 -11 -32 -3 -16 16 -42 14 -57 -4 -11 -13 2
-15 110 -15 108 0 121 2 110 15 -7 8 -19 15 -26 15 -8 0 -11 6 -8 15 4 8 3 15
0 15 -3 0 -6 -5 -6 -11z"/>
<path d="M550 49 c0 -5 -4 -7 -10 -4 -5 3 -7 0 -4 -8 8 -22 -12 -30 -36 -15
-16 10 -24 10 -41 0 -15 -10 -24 -11 -32 -3 -16 16 -42 14 -57 -4 -11 -13 2
-15 110 -15 108 0 121 2 110 15 -7 8 -19 15 -26 15 -8 0 -11 6 -8 15 4 8 3 15
0 15 -3 0 -6 -5 -6 -11z"/>
<path d="M870 49 c0 -5 -4 -7 -10 -4 -5 3 -7 0 -4 -8 8 -22 -12 -30 -36 -15
-16 10 -24 10 -41 0 -15 -10 -24 -11 -32 -3 -16 16 -42 14 -57 -4 -11 -13 2
-15 110 -15 108 0 121 2 110 15 -7 8 -19 15 -26 15 -8 0 -11 6 -8 15 4 8 3 15
0 15 -3 0 -6 -5 -6 -11z"/>
</g>
<g transform="translate(0.000000,96.000000) scale(0.100000,-0.100000)"
fill="#3aa649" stroke="none">
<path d="M190 771 c0 -5 7 -15 17 -22 15 -13 15 -12 4 9 -12 23 -21 28 -21 13z"/>
<path d="M510 771 c0 -5 7 -15 17 -22 15 -13 15 -12 4 9 -12 23 -21 28 -21 13z"/>
<path d="M830 771 c0 -5 7 -15 17 -22 15 -13 15 -12 4 9 -12 23 -21 28 -21 13z"/>
<path d="M89 743 c-13 -16 -12 -17 4 -4 16 13 21 21 13 21 -2 0 -10 -8 -17
-17z"/>
<path d="M409 743 c-13 -16 -12 -17 4 -4 9 7 17 15 17 17 0 8 -8 3 -21 -13z"/>
<path d="M729 743 c-13 -16 -12 -17 4 -4 9 7 17 15 17 17 0 8 -8 3 -21 -13z"/>
<path d="M660 745 c0 -3 2 -5 5 -5 3 0 5 2 5 5 0 3 -2 5 -5 5 -3 0 -5 -2 -5
-5z"/>
<path d="M190 735 c0 -3 2 -5 5 -5 3 0 5 2 5 5 0 3 -2 5 -5 5 -3 0 -5 -2 -5
-5z"/>
<path d="M350 735 c0 -3 2 -5 5 -5 3 0 5 2 5 5 0 3 -2 5 -5 5 -3 0 -5 -2 -5
-5z"/>
<path d="M380 735 c0 -3 2 -5 5 -5 3 0 5 2 5 5 0 3 -2 5 -5 5 -3 0 -5 -2 -5
-5z"/>
<path d="M150 725 c0 -3 2 -5 5 -5 3 0 5 2 5 5 0 3 -2 5 -5 5 -3 0 -5 -2 -5
-5z"/>
<path d="M470 725 c0 -3 2 -5 5 -5 3 0 5 2 5 5 0 3 -2 5 -5 5 -3 0 -5 -2 -5
-5z"/>
<path d="M750 725 c0 -3 2 -5 5 -5 3 0 5 2 5 5 0 3 -2 5 -5 5 -3 0 -5 -2 -5
-5z"/>
<path d="M790 725 c0 -3 2 -5 5 -5 3 0 5 2 5 5 0 3 -2 5 -5 5 -3 0 -5 -2 -5
-5z"/>
<path d="M255 709 c-4 -6 -5 -12 -2 -15 2 -3 7 2 10 11 7 17 1 20 -8 4z"/>
<path d="M575 709 c-4 -6 -5 -12 -2 -15 2 -3 7 2 10 11 7 17 1 20 -8 4z"/>
<path d="M895 709 c-4 -6 -5 -12 -2 -15 2 -3 7 2 10 11 7 17 1 20 -8 4z"/>
<path d="M122 690 c0 -14 2 -19 5 -12 2 6 2 18 0 25 -3 6 -5 1 -5 -13z"/>
<path d="M442 690 c0 -14 2 -19 5 -12 2 6 2 18 0 25 -3 6 -5 1 -5 -13z"/>
<path d="M762 690 c0 -14 2 -19 5 -12 2 6 2 18 0 25 -3 6 -5 1 -5 -13z"/>
<path d="M70 695 c0 -3 2 -5 5 -5 3 0 5 2 5 5 0 3 -2 5 -5 5 -3 0 -5 -2 -5 -5z"/>
<path d="M230 691 c0 -7 -5 -9 -12 -5 -7 5 -8 3 -3 -5 5 -9 10 -10 18 -2 6 6
8 14 4 18 -4 3 -7 1 -7 -6z"/>
<path d="M550 691 c0 -7 -5 -9 -12 -5 -7 5 -8 3 -3 -5 5 -9 10 -10 18 -2 6 6
8 14 4 18 -4 3 -7 1 -7 -6z"/>
<path d="M870 691 c0 -7 -5 -9 -12 -5 -7 5 -8 3 -3 -5 5 -9 10 -10 18 -2 6 6
8 14 4 18 -4 3 -7 1 -7 -6z"/>
<path d="M380 655 c-10 -13 -9 -15 8 -15 15 0 20 5 16 15 -4 8 -7 15 -9 15 -1
0 -8 -7 -15 -15z"/>
<path d="M780 655 c-10 -13 -9 -15 8 -15 15 0 20 5 16 15 -4 8 -7 15 -9 15 -1
0 -8 -7 -15 -15z"/>
<path d="M55 649 c-4 -5 3 -9 14 -9 26 0 35 15 11 17 -11 1 -22 -2 -25 -8z"/>
<path d="M135 649 c-4 -5 3 -9 14 -9 26 0 35 15 11 17 -11 1 -22 -2 -25 -8z"/>
<path d="M215 650 c-3 -5 3 -10 15 -10 12 0 18 5 15 10 -3 6 -10 10 -15 10 -5
0 -12 -4 -15 -10z"/>
<path d="M455 650 c-3 -5 3 -10 15 -10 12 0 18 5 15 10 -3 6 -10 10 -15 10 -5
0 -12 -4 -15 -10z"/>
<path d="M535 650 c-3 -5 3 -10 15 -10 12 0 18 5 15 10 -3 6 -10 10 -15 10 -5
0 -12 -4 -15 -10z"/>
<path d="M695 650 c-3 -5 3 -10 15 -10 12 0 18 5 15 10 -3 6 -10 10 -15 10 -5
0 -12 -4 -15 -10z"/>
<path d="M850 650 c0 -5 9 -10 21 -10 11 0 17 5 14 10 -3 6 -13 10 -21 10 -8
0 -14 -4 -14 -10z"/>
<path d="M190 451 c0 -5 7 -15 17 -22 15 -13 15 -12 4 9 -12 23 -21 28 -21 13z"/>
<path d="M510 451 c0 -5 7 -15 17 -22 15 -13 15 -12 4 9 -12 23 -21 28 -21 13z"/>
<path d="M830 451 c0 -5 7 -15 17 -22 15 -13 15 -12 4 9 -12 23 -21 28 -21 13z"/>
<path d="M89 423 c-13 -16 -12 -17 4 -4 9 7 17 15 17 17 0 8 -8 3 -21 -13z"/>
<path d="M409 423 c-13 -16 -12 -17 4 -4 9 7 17 15 17 17 0 8 -8 3 -21 -13z"/>
<path d="M729 423 c-13 -16 -12 -17 4 -4 16 13 21 21 13 21 -2 0 -10 -8 -17
-17z"/>
<path d="M660 425 c0 -3 2 -5 5 -5 3 0 5 2 5 5 0 3 -2 5 -5 5 -3 0 -5 -2 -5
-5z"/>
<path d="M60 415 c0 -3 2 -5 5 -5 3 0 5 2 5 5 0 3 -2 5 -5 5 -3 0 -5 -2 -5 -5z"/>
<path d="M350 415 c0 -3 2 -5 5 -5 3 0 5 2 5 5 0 3 -2 5 -5 5 -3 0 -5 -2 -5
-5z"/>
<path d="M150 405 c0 -3 2 -5 5 -5 3 0 5 2 5 5 0 3 -2 5 -5 5 -3 0 -5 -2 -5
-5z"/>
<path d="M420 405 c0 -3 2 -5 5 -5 3 0 5 2 5 5 0 3 -2 5 -5 5 -3 0 -5 -2 -5
-5z"/>
<path d="M470 405 c0 -3 2 -5 5 -5 3 0 5 2 5 5 0 3 -2 5 -5 5 -3 0 -5 -2 -5
-5z"/>
<path d="M750 405 c0 -3 2 -5 5 -5 3 0 5 2 5 5 0 3 -2 5 -5 5 -3 0 -5 -2 -5
-5z"/>
<path d="M790 405 c0 -3 2 -5 5 -5 3 0 5 2 5 5 0 3 -2 5 -5 5 -3 0 -5 -2 -5
-5z"/>
<path d="M255 389 c-4 -6 -5 -12 -2 -15 2 -3 7 2 10 11 7 17 1 20 -8 4z"/>
<path d="M575 389 c-4 -6 -5 -12 -2 -15 2 -3 7 2 10 11 7 17 1 20 -8 4z"/>
<path d="M895 389 c-4 -6 -5 -12 -2 -15 2 -3 7 2 10 11 7 17 1 20 -8 4z"/>
<path d="M122 370 c0 -14 2 -19 5 -12 2 6 2 18 0 25 -3 6 -5 1 -5 -13z"/>
<path d="M442 370 c0 -14 2 -19 5 -12 2 6 2 18 0 25 -3 6 -5 1 -5 -13z"/>
<path d="M762 370 c0 -14 2 -19 5 -12 2 6 2 18 0 25 -3 6 -5 1 -5 -13z"/>
<path d="M230 371 c0 -7 -5 -9 -12 -5 -7 5 -8 3 -3 -5 5 -9 10 -10 18 -2 6 6
8 14 4 18 -4 3 -7 1 -7 -6z"/>
<path d="M550 371 c0 -7 -5 -9 -12 -5 -7 5 -8 3 -3 -5 5 -9 10 -10 18 -2 6 6
8 14 4 18 -4 3 -7 1 -7 -6z"/>
<path d="M870 371 c0 -7 -5 -9 -12 -5 -7 5 -8 3 -3 -5 5 -9 10 -10 18 -2 6 6
8 14 4 18 -4 3 -7 1 -7 -6z"/>
<path d="M380 355 c0 -3 2 -5 5 -5 3 0 5 2 5 5 0 3 -2 5 -5 5 -3 0 -5 -2 -5
-5z"/>
<path d="M60 335 c-10 -13 -9 -15 8 -15 15 0 20 5 16 15 -4 8 -7 15 -9 15 -1
0 -8 -7 -15 -15z"/>
<path d="M136 335 c-4 -10 1 -15 16 -15 17 0 18 2 8 15 -7 8 -14 15 -15 15 -2
0 -5 -7 -9 -15z"/>
<path d="M780 335 c-10 -13 -9 -15 8 -15 15 0 20 5 16 15 -4 8 -7 15 -9 15 -1
0 -8 -7 -15 -15z"/>
<path d="M215 330 c-3 -5 3 -10 15 -10 12 0 18 5 15 10 -3 6 -10 10 -15 10 -5
0 -12 -4 -15 -10z"/>
<path d="M370 330 c0 -5 9 -10 21 -10 11 0 17 5 14 10 -3 6 -13 10 -21 10 -8
0 -14 -4 -14 -10z"/>
<path d="M455 330 c-3 -5 3 -10 15 -10 12 0 18 5 15 10 -3 6 -10 10 -15 10 -5
0 -12 -4 -15 -10z"/>
<path d="M535 330 c-3 -5 3 -10 15 -10 12 0 18 5 15 10 -3 6 -10 10 -15 10 -5
0 -12 -4 -15 -10z"/>
<path d="M695 330 c-3 -5 3 -10 15 -10 12 0 18 5 15 10 -3 6 -10 10 -15 10 -5
0 -12 -4 -15 -10z"/>
<path d="M850 330 c0 -5 9 -10 21 -10 11 0 17 5 14 10 -3 6 -13 10 -21 10 -8
0 -14 -4 -14 -10z"/>
<path d="M190 131 c0 -5 7 -15 17 -22 15 -13 15 -12 4 9 -12 23 -21 28 -21 13z"/>
<path d="M510 131 c0 -5 7 -15 17 -22 15 -13 15 -12 4 9 -12 23 -21 28 -21 13z"/>
<path d="M830 131 c0 -5 7 -15 17 -22 15 -13 15 -12 4 9 -12 23 -21 28 -21 13z"/>
<path d="M89 103 c-13 -16 -12 -17 4 -4 9 7 17 15 17 17 0 8 -8 3 -21 -13z"/>
<path d="M409 103 c-13 -16 -12 -17 4 -4 16 13 21 21 13 21 -2 0 -10 -8 -17
-17z"/>
<path d="M729 103 c-13 -16 -12 -17 4 -4 9 7 17 15 17 17 0 8 -8 3 -21 -13z"/>
<path d="M340 105 c0 -3 2 -5 5 -5 3 0 5 2 5 5 0 3 -2 5 -5 5 -3 0 -5 -2 -5
-5z"/>
<path d="M30 95 c0 -3 2 -5 5 -5 3 0 5 2 5 5 0 3 -2 5 -5 5 -3 0 -5 -2 -5 -5z"/>
<path d="M60 95 c0 -3 2 -5 5 -5 3 0 5 2 5 5 0 3 -2 5 -5 5 -3 0 -5 -2 -5 -5z"/>
<path d="M670 95 c0 -3 2 -5 5 -5 3 0 5 2 5 5 0 3 -2 5 -5 5 -3 0 -5 -2 -5 -5z"/>
<path d="M150 85 c0 -3 2 -5 5 -5 3 0 5 2 5 5 0 3 -2 5 -5 5 -3 0 -5 -2 -5 -5z"/>
<path d="M430 85 c0 -3 2 -5 5 -5 3 0 5 2 5 5 0 3 -2 5 -5 5 -3 0 -5 -2 -5 -5z"/>
<path d="M470 85 c0 -3 2 -5 5 -5 3 0 5 2 5 5 0 3 -2 5 -5 5 -3 0 -5 -2 -5 -5z"/>
<path d="M740 85 c0 -3 2 -5 5 -5 3 0 5 2 5 5 0 3 -2 5 -5 5 -3 0 -5 -2 -5 -5z"/>
<path d="M790 85 c0 -3 2 -5 5 -5 3 0 5 2 5 5 0 3 -2 5 -5 5 -3 0 -5 -2 -5 -5z"/>
<path d="M255 69 c-4 -6 -5 -12 -2 -15 2 -3 7 2 10 11 7 17 1 20 -8 4z"/>
<path d="M575 69 c-4 -6 -5 -12 -2 -15 2 -3 7 2 10 11 7 17 1 20 -8 4z"/>
<path d="M895 69 c-4 -6 -5 -12 -2 -15 2 -3 7 2 10 11 7 17 1 20 -8 4z"/>
<path d="M122 50 c0 -14 2 -19 5 -12 2 6 2 18 0 25 -3 6 -5 1 -5 -13z"/>
<path d="M442 50 c0 -14 2 -19 5 -12 2 6 2 18 0 25 -3 6 -5 1 -5 -13z"/>
<path d="M762 50 c0 -14 2 -19 5 -12 2 6 2 18 0 25 -3 6 -5 1 -5 -13z"/>
<path d="M230 51 c0 -7 -5 -9 -12 -5 -7 5 -8 3 -3 -5 5 -9 10 -10 18 -2 6 6 8
14 4 18 -4 3 -7 1 -7 -6z"/>
<path d="M550 51 c0 -7 -5 -9 -12 -5 -7 5 -8 3 -3 -5 5 -9 10 -10 18 -2 6 6 8
14 4 18 -4 3 -7 1 -7 -6z"/>
<path d="M870 51 c0 -7 -5 -9 -12 -5 -7 5 -8 3 -3 -5 5 -9 10 -10 18 -2 6 6 8
14 4 18 -4 3 -7 1 -7 -6z"/>
<path d="M60 15 c-10 -13 -9 -15 8 -15 15 0 20 5 16 15 -4 8 -7 15 -9 15 -1 0
-8 -7 -15 -15z"/>
<path d="M460 15 c-10 -13 -9 -15 8 -15 15 0 20 5 16 15 -8 19 -9 19 -24 0z"/>
<path d="M700 15 c-10 -13 -9 -15 8 -15 15 0 20 5 16 15 -4 8 -7 15 -9 15 -1
0 -8 -7 -15 -15z"/>
<path d="M135 10 c-3 -5 3 -10 15 -10 12 0 18 5 15 10 -3 6 -10 10 -15 10 -5
0 -12 -4 -15 -10z"/>
<path d="M215 10 c-3 -5 3 -10 15 -10 12 0 18 5 15 10 -3 6 -10 10 -15 10 -5
0 -12 -4 -15 -10z"/>
<path d="M375 10 c-3 -5 3 -10 15 -10 12 0 18 5 15 10 -3 6 -10 10 -15 10 -5
0 -12 -4 -15 -10z"/>
<path d="M530 10 c0 -5 9 -10 21 -10 11 0 17 4 14 10 -8 13 -35 13 -35 0z"/>
<path d="M775 10 c-3 -5 3 -10 15 -10 12 0 18 5 15 10 -3 6 -10 10 -15 10 -5
0 -12 -4 -15 -10z"/>
<path d="M855 10 c-3 -5 3 -10 15 -10 12 0 18 5 15 10 -3 6 -10 10 -15 10 -5
0 -12 -4 -15 -10z"/>
</g>
<g transform="translate(0.000000,96.000000) scale(0.100000,-0.100000)"
fill="#c1cf58" stroke="none">
<path d="M380 655 c-10 -13 -9 -15 8 -15 15 0 20 5 16 15 -4 8 -7 15 -9 15 -1
0 -8 -7 -15 -15z"/>
<path d="M780 655 c-10 -13 -9 -15 8 -15 15 0 20 5 16 15 -4 8 -7 15 -9 15 -1
0 -8 -7 -15 -15z"/>
<path d="M55 649 c-4 -5 3 -9 14 -9 26 0 35 15 11 17 -11 1 -22 -2 -25 -8z"/>
<path d="M135 649 c-4 -5 3 -9 14 -9 26 0 35 15 11 17 -11 1 -22 -2 -25 -8z"/>
<path d="M215 650 c-3 -5 3 -10 15 -10 12 0 18 5 15 10 -3 6 -10 10 -15 10 -5
0 -12 -4 -15 -10z"/>
<path d="M455 650 c-3 -5 3 -10 15 -10 12 0 18 5 15 10 -3 6 -10 10 -15 10 -5
0 -12 -4 -15 -10z"/>
<path d="M535 650 c-3 -5 3 -10 15 -10 12 0 18 5 15 10 -3 6 -10 10 -15 10 -5
0 -12 -4 -15 -10z"/>
<path d="M695 650 c-3 -5 3 -10 15 -10 12 0 18 5 15 10 -3 6 -10 10 -15 10 -5
0 -12 -4 -15 -10z"/>
<path d="M850 650 c0 -5 9 -10 21 -10 11 0 17 5 14 10 -3 6 -13 10 -21 10 -8
0 -14 -4 -14 -10z"/>
<path d="M60 335 c-10 -13 -9 -15 8 -15 15 0 20 5 16 15 -4 8 -7 15 -9 15 -1
0 -8 -7 -15 -15z"/>
<path d="M136 335 c-4 -10 1 -15 16 -15 17 0 18 2 8 15 -7 8 -14 15 -15 15 -2
0 -5 -7 -9 -15z"/>
<path d="M780 335 c-10 -13 -9 -15 8 -15 15 0 20 5 16 15 -4 8 -7 15 -9 15 -1
0 -8 -7 -15 -15z"/>
<path d="M215 330 c-3 -5 3 -10 15 -10 12 0 18 5 15 10 -3 6 -10 10 -15 10 -5
0 -12 -4 -15 -10z"/>
<path d="M370 330 c0 -5 9 -10 21 -10 11 0 17 5 14 10 -3 6 -13 10 -21 10 -8
0 -14 -4 -14 -10z"/>
<path d="M455 330 c-3 -5 3 -10 15 -10 12 0 18 5 15 10 -3 6 -10 10 -15 10 -5
0 -12 -4 -15 -10z"/>
<path d="M535 330 c-3 -5 3 -10 15 -10 12 0 18 5 15 10 -3 6 -10 10 -15 10 -5
0 -12 -4 -15 -10z"/>
<path d="M695 330 c-3 -5 3 -10 15 -10 12 0 18 5 15 10 -3 6 -10 10 -15 10 -5
0 -12 -4 -15 -10z"/>
<path d="M850 330 c0 -5 9 -10 21 -10 11 0 17 5 14 10 -3 6 -13 10 -21 10 -8
0 -14 -4 -14 -10z"/>
<path d="M60 15 c-10 -13 -9 -15 8 -15 15 0 20 5 16 15 -4 8 -7 15 -9 15 -1 0
-8 -7 -15 -15z"/>
<path d="M460 15 c-10 -13 -9 -15 8 -15 15 0 20 5 16 15 -8 19 -9 19 -24 0z"/>
<path d="M700 15 c-10 -13 -9 -15 8 -15 15 0 20 5 16 15 -4 8 -7 15 -9 15 -1
0 -8 -7 -15 -15z"/>
<path d="M135 10 c-3 -5 3 -10 15 -10 12 0 18 5 15 10 -3 6 -10 10 -15 10 -5
0 -12 -4 -15 -10z"/>
<path d="M215 10 c-3 -5 3 -10 15 -10 12 0 18 5 15 10 -3 6 -10 10 -15 10 -5
0 -12 -4 -15 -10z"/>
<path d="M375 10 c-3 -5 3 -10 15 -10 12 0 18 5 15 10 -3 6 -10 10 -15 10 -5
0 -12 -4 -15 -10z"/>
<path d="M530 10 c0 -5 9 -10 21 -10 11 0 17 4 14 10 -8 13 -35 13 -35 0z"/>
<path d="M775 10 c-3 -5 3 -10 15 -10 12 0 18 5 15 10 -3 6 -10 10 -15 10 -5
0 -12 -4 -15 -10z"/>
<path d="M855 10 c-3 -5 3 -10 15 -10 12 0 18 5 15 10 -3 6 -10 10 -15 10 -5
0 -12 -4 -15 -10z"/>
</g>
  </g>
</svg>
