<?xml version="1.0" encoding="UTF-8" standalone="no"?>
<!-- Created with Inkscape (http://www.inkscape.org/) -->

<svg
   xmlns:dc="http://purl.org/dc/elements/1.1/"
   xmlns:cc="http://creativecommons.org/ns#"
   xmlns:rdf="http://www.w3.org/1999/02/22-rdf-syntax-ns#"
   xmlns:svg="http://www.w3.org/2000/svg"
   xmlns="http://www.w3.org/2000/svg"
   xmlns:sodipodi="http://sodipodi.sourceforge.net/DTD/sodipodi-0.dtd"
   xmlns:inkscape="http://www.inkscape.org/namespaces/inkscape"
   width="16px"
   height="16px"
   viewBox="0 0 16px 16px"
   version="1.1"
   id="svgMain"
   inkscape:version="0.92.2 (5c3e80d, 2017-08-06)"
   sodipodi:docname="reference_SVG.svg">
  <defs
     id="defs4542" />
  <sodipodi:namedview
     id="base"
     pagecolor="#ffffff"
     bordercolor="#666666"
     borderopacity="1.0"
     inkscape:pageopacity="0.0"
     inkscape:pageshadow="2"
     inkscape:zoom="1"
     inkscape:cx="0"
     inkscape:cy="0"
     inkscape:document-units="px"
     inkscape:current-layer="layer1"
     showgrid="false"
     units="px"
     inkscape:window-width="1024"
     inkscape:window-height="768"
     inkscape:window-x="-8"
     inkscape:window-y="-8"
     inkscape:window-maximized="1" />
  <metadata
     id="metadata1">
    <rdf:RDF>
      <cc:Work
         rdf:about="">
        <dc:format>image/svg+xml</dc:format>
        <dc:type
           rdf:resource="http://purl.org/dc/dcmitype/StillImage" />
        <dc:title />
      </cc:Work>
    </rdf:RDF>
  </metadata>
  <g transform="translate(-16,-16) scale(0.5,0.5)"
     inkscape:label="Layer 1"
     inkscape:groupmode="layer"
     id="layer1">
    <!-- INSERT MARKER -->
<g transform="translate(0.000000,96.000000) scale(0.100000,-0.100000)"
fill="#b18f59" stroke="none">
<path d="M220 916 c0 -19 -85 -67 -98 -54 -5 5 -14 3 -21 -6 -7 -9 -8 -17 -2
-20 13 -8 -37 -96 -55 -96 -8 0 -14 -9 -14 -20 0 -11 4 -20 8 -20 5 0 7 -13 4
-30 -4 -25 -1 -30 17 -30 16 0 21 6 21 25 0 14 4 25 8 25 5 0 42 -11 82 -25
151 -51 176 -26 125 125 -14 40 -25 77 -25 82 0 4 11 8 25 8 19 0 25 5 25 21
0 18 -5 21 -30 17 -16 -3 -30 -1 -30 4 0 4 -9 8 -20 8 -11 0 -20 -6 -20 -14z
m37 -131 c12 -38 22 -70 20 -71 -2 -2 -29 23 -61 55 l-58 59 28 16 c16 8 33
14 38 12 5 -1 20 -33 33 -71z m-11 -102 c-4 -4 -129 38 -139 47 -5 4 -1 22 8
40 l17 33 59 -59 c32 -32 57 -59 55 -61z"/>
<path d="M540 916 c0 -19 -85 -67 -98 -54 -5 5 -14 3 -21 -6 -7 -9 -8 -17 -2
-20 13 -8 -37 -96 -55 -96 -8 0 -14 -9 -14 -20 0 -11 4 -20 8 -20 5 0 7 -13 4
-30 -4 -25 -1 -30 17 -30 16 0 21 6 21 25 0 14 4 25 8 25 5 0 42 -11 82 -25
151 -51 176 -26 125 125 -14 40 -25 77 -25 82 0 4 11 8 25 8 19 0 25 5 25 21
0 18 -5 21 -30 17 -16 -3 -30 -1 -30 4 0 4 -9 8 -20 8 -11 0 -20 -6 -20 -14z
m37 -131 c12 -38 22 -70 20 -71 -2 -2 -29 23 -61 55 l-58 59 28 16 c16 8 33
14 38 12 5 -1 20 -33 33 -71z m-11 -102 c-4 -4 -129 38 -139 47 -5 4 -1 22 8
40 l17 33 59 -59 c32 -32 57 -59 55 -61z"/>
<path d="M860 916 c0 -19 -85 -67 -98 -54 -5 5 -14 3 -21 -6 -7 -9 -8 -17 -2
-20 13 -8 -37 -96 -55 -96 -8 0 -14 -9 -14 -20 0 -11 4 -20 8 -20 5 0 7 -13 4
-30 -4 -25 -1 -30 17 -30 16 0 21 6 21 25 0 14 4 25 8 25 5 0 42 -11 82 -25
151 -51 176 -26 125 125 -14 40 -25 77 -25 82 0 4 11 8 25 8 19 0 25 5 25 21
0 18 -5 21 -30 17 -16 -3 -30 -1 -30 4 0 4 -9 8 -20 8 -11 0 -20 -6 -20 -14z
m37 -131 c12 -38 22 -70 20 -71 -2 -2 -29 23 -61 55 l-58 59 28 16 c16 8 33
14 38 12 5 -1 20 -33 33 -71z m-11 -102 c-4 -4 -129 38 -139 47 -5 4 -1 22 8
40 l17 33 59 -59 c32 -32 57 -59 55 -61z"/>
<path d="M220 596 c0 -19 -85 -67 -98 -54 -5 5 -14 3 -21 -6 -7 -9 -8 -17 -2
-20 13 -8 -37 -96 -55 -96 -8 0 -14 -9 -14 -20 0 -11 4 -20 8 -20 5 0 7 -13 4
-30 -4 -25 -1 -30 17 -30 16 0 21 6 21 25 0 14 4 25 8 25 5 0 42 -11 82 -25
151 -51 176 -26 125 125 -14 40 -25 77 -25 82 0 4 11 8 25 8 19 0 25 5 25 21
0 18 -5 21 -30 17 -16 -3 -30 -1 -30 4 0 4 -9 8 -20 8 -11 0 -20 -6 -20 -14z
m37 -131 c12 -38 22 -70 20 -71 -2 -2 -29 23 -61 55 l-58 59 28 16 c16 8 33
14 38 12 5 -1 20 -33 33 -71z m-11 -102 c-4 -4 -129 38 -139 47 -5 4 -1 22 8
40 l17 33 59 -59 c32 -32 57 -59 55 -61z"/>
<path d="M540 596 c0 -19 -85 -67 -98 -54 -5 5 -14 3 -21 -6 -7 -9 -8 -17 -2
-20 13 -8 -37 -96 -55 -96 -8 0 -14 -9 -14 -20 0 -11 4 -20 8 -20 5 0 7 -13 4
-30 -4 -25 -1 -30 17 -30 16 0 21 6 21 25 0 14 4 25 8 25 5 0 42 -11 82 -25
151 -51 176 -26 125 125 -14 40 -25 77 -25 82 0 4 11 8 25 8 19 0 25 5 25 21
0 18 -5 21 -30 17 -16 -3 -30 -1 -30 4 0 4 -9 8 -20 8 -11 0 -20 -6 -20 -14z
m37 -131 c12 -38 22 -70 20 -71 -2 -2 -29 23 -61 55 l-58 59 28 16 c16 8 33
14 38 12 5 -1 20 -33 33 -71z m-11 -102 c-4 -4 -129 38 -139 47 -5 4 -1 22 8
40 l17 33 59 -59 c32 -32 57 -59 55 -61z"/>
<path d="M860 596 c0 -19 -85 -67 -98 -54 -5 5 -14 3 -21 -6 -7 -9 -8 -17 -2
-20 13 -8 -37 -96 -55 -96 -8 0 -14 -9 -14 -20 0 -11 4 -20 8 -20 5 0 7 -13 4
-30 -4 -25 -1 -30 17 -30 16 0 21 6 21 25 0 14 4 25 8 25 5 0 42 -11 82 -25
151 -51 176 -26 125 125 -14 40 -25 77 -25 82 0 4 11 8 25 8 19 0 25 5 25 21
0 18 -5 21 -30 17 -16 -3 -30 -1 -30 4 0 4 -9 8 -20 8 -11 0 -20 -6 -20 -14z
m37 -131 c12 -38 22 -70 20 -71 -2 -2 -29 23 -61 55 l-58 59 28 16 c16 8 33
14 38 12 5 -1 20 -33 33 -71z m-11 -102 c-4 -4 -129 38 -139 47 -5 4 -1 22 8
40 l17 33 59 -59 c32 -32 57 -59 55 -61z"/>
<path d="M220 276 c0 -19 -85 -67 -98 -54 -5 5 -14 3 -21 -6 -7 -9 -8 -17 -2
-20 13 -8 -37 -96 -55 -96 -8 0 -14 -9 -14 -20 0 -11 4 -20 8 -20 5 0 7 -14 4
-30 -4 -25 -1 -30 17 -30 16 0 21 6 21 25 0 31 0 31 90 0 151 -51 176 -26 125
125 -14 40 -25 77 -25 82 0 4 11 8 25 8 19 0 25 5 25 21 0 18 -5 21 -30 17
-16 -3 -30 -1 -30 4 0 4 -9 8 -20 8 -11 0 -20 -6 -20 -14z m37 -131 c12 -38
22 -70 20 -71 -2 -2 -29 23 -61 55 l-58 59 28 16 c16 8 33 14 38 12 5 -1 20
-33 33 -71z m-11 -102 c-4 -4 -129 38 -139 47 -5 4 -1 22 8 40 l17 33 59 -59
c32 -32 57 -59 55 -61z"/>
<path d="M540 276 c0 -19 -85 -67 -98 -54 -5 5 -14 3 -21 -6 -7 -9 -8 -17 -2
-20 13 -8 -37 -96 -55 -96 -8 0 -14 -9 -14 -20 0 -11 4 -20 8 -20 5 0 7 -14 4
-30 -4 -25 -1 -30 17 -30 16 0 21 6 21 25 0 31 0 31 90 0 151 -51 176 -26 125
125 -14 40 -25 77 -25 82 0 4 11 8 25 8 19 0 25 5 25 21 0 18 -5 21 -30 17
-16 -3 -30 -1 -30 4 0 4 -9 8 -20 8 -11 0 -20 -6 -20 -14z m37 -131 c12 -38
22 -70 20 -71 -2 -2 -29 23 -61 55 l-58 59 28 16 c16 8 33 14 38 12 5 -1 20
-33 33 -71z m-11 -102 c-4 -4 -129 38 -139 47 -5 4 -1 22 8 40 l17 33 59 -59
c32 -32 57 -59 55 -61z"/>
<path d="M860 276 c0 -19 -85 -67 -98 -54 -5 5 -14 3 -21 -6 -7 -9 -8 -17 -2
-20 13 -8 -37 -96 -55 -96 -8 0 -14 -9 -14 -20 0 -11 4 -20 8 -20 5 0 7 -14 4
-30 -4 -25 -1 -30 17 -30 16 0 21 6 21 25 0 31 0 31 90 0 151 -51 176 -26 125
125 -14 40 -25 77 -25 82 0 4 11 8 25 8 19 0 25 5 25 21 0 18 -5 21 -30 17
-16 -3 -30 -1 -30 4 0 4 -9 8 -20 8 -11 0 -20 -6 -20 -14z m37 -131 c12 -38
22 -70 20 -71 -2 -2 -29 23 -61 55 l-58 59 28 16 c16 8 33 14 38 12 5 -1 20
-33 33 -71z m-11 -102 c-4 -4 -129 38 -139 47 -5 4 -1 22 8 40 l17 33 59 -59
c32 -32 57 -59 55 -61z"/>
</g>
<g transform="translate(0.000000,96.000000) scale(0.100000,-0.100000)"
fill="#b1b1b1" stroke="none">
<path d="M220 918 c0 -10 -16 -26 -38 -37 -21 -11 -44 -27 -51 -35 -11 -13
-17 -14 -30 -4 -13 10 -14 10 -4 -1 9 -10 5 -24 -18 -63 -16 -27 -29 -53 -29
-58 0 -4 -6 -11 -12 -13 -7 -3 -8 -6 -2 -6 6 -1 9 -14 6 -31 -4 -25 -1 -30 17
-30 16 0 21 6 21 25 0 31 0 31 91 0 84 -29 136 -30 131 -2 -2 9 2 17 8 17 5 0
10 11 10 25 0 19 -5 25 -21 25 -16 0 -20 5 -16 20 3 11 2 18 -2 16 -4 -3 -15
17 -23 44 -14 42 -14 50 -2 50 8 0 14 5 14 10 0 6 11 10 25 10 19 0 25 5 25
21 0 20 -4 21 -42 15 -29 -5 -44 -3 -50 6 -6 10 -8 9 -8 -4z m30 -114 c32 -92
32 -91 13 -98 -12 -5 -33 9 -72 46 l-56 53 57 -60 c49 -52 55 -62 42 -73 -12
-11 -24 -10 -72 6 -67 22 -77 47 -40 102 25 37 85 83 102 77 5 -2 17 -25 26
-53z m45 -144 c3 -5 1 -10 -4 -10 -6 0 -11 5 -11 10 0 6 2 10 4 10 3 0 8 -4
11 -10z"/>
<path d="M180 785 c0 -3 2 -5 5 -5 3 0 5 2 5 5 0 3 -2 5 -5 5 -3 0 -5 -2 -5
-5z"/>
<path d="M195 690 c3 -5 8 -10 11 -10 3 0 2 5 -1 10 -3 6 -8 10 -11 10 -3 0
-2 -4 1 -10z"/>
<path d="M540 915 c0 -8 -17 -23 -38 -34 -21 -11 -44 -27 -51 -35 -11 -13 -17
-14 -30 -4 -13 10 -14 10 -4 -1 9 -10 5 -24 -18 -63 -16 -27 -29 -53 -29 -58
0 -4 -6 -11 -12 -13 -7 -3 -8 -6 -2 -6 6 -1 9 -14 6 -31 -4 -25 -1 -30 17 -30
16 0 21 6 21 25 0 31 0 31 91 0 84 -29 136 -30 131 -2 -2 9 2 17 8 17 6 0 10
12 8 28 -2 19 -8 26 -20 24 -21 -3 -24 18 -5 38 9 11 8 11 -7 0 -18 -14 -19
-13 -14 8 4 12 3 20 -1 17 -4 -2 -13 11 -19 30 -8 28 -7 35 4 35 8 0 14 5 14
10 0 6 11 10 25 10 19 0 25 5 25 21 0 20 -4 21 -46 14 -32 -4 -44 -3 -39 4 3
6 1 11 -4 11 -6 0 -11 -7 -11 -15z m30 -111 c32 -92 32 -91 13 -98 -12 -5 -33
9 -72 46 l-56 53 57 -60 c47 -50 54 -62 43 -72 -11 -10 -26 -9 -72 5 -49 15
-58 22 -61 43 -2 14 7 40 20 59 25 37 85 83 102 77 5 -2 17 -25 26 -53z m45
-144 c3 -5 1 -10 -4 -10 -6 0 -11 5 -11 10 0 6 2 10 4 10 3 0 8 -4 11 -10z"/>
<path d="M500 785 c0 -3 2 -5 5 -5 3 0 5 2 5 5 0 3 -2 5 -5 5 -3 0 -5 -2 -5
-5z"/>
<path d="M480 695 c0 -3 2 -5 5 -5 3 0 5 2 5 5 0 3 -2 5 -5 5 -3 0 -5 -2 -5
-5z"/>
<path d="M520 685 c0 -3 2 -5 5 -5 3 0 5 2 5 5 0 3 -2 5 -5 5 -3 0 -5 -2 -5
-5z"/>
<path d="M860 918 c0 -10 -16 -26 -38 -37 -21 -11 -44 -27 -51 -35 -11 -13
-17 -14 -30 -4 -13 10 -14 10 -4 -1 9 -10 5 -24 -18 -63 -16 -27 -29 -53 -29
-58 0 -4 -6 -11 -12 -13 -7 -3 -8 -6 -2 -6 6 -1 9 -14 6 -31 -4 -25 -1 -30 17
-30 16 0 21 6 21 25 0 31 0 31 91 0 84 -29 136 -30 131 -2 -2 9 2 17 8 17 5 0
10 11 10 25 0 18 -5 25 -20 25 -20 0 -23 18 -5 33 6 5 4 7 -6 4 -12 -4 -20 7
-31 44 -14 41 -14 49 -2 49 8 0 14 5 14 10 0 6 11 10 25 10 19 0 25 5 25 21 0
20 -4 21 -42 15 -29 -5 -44 -3 -50 6 -6 10 -8 9 -8 -4z m30 -114 c32 -92 32
-91 13 -98 -12 -5 -33 9 -72 46 l-56 53 57 -60 c43 -46 54 -63 44 -71 -14 -13
-59 -8 -64 6 -2 6 -7 8 -12 5 -5 -3 -20 -1 -34 5 -23 8 -26 15 -24 49 2 22 5
38 7 35 2 -2 13 8 24 22 23 29 77 66 91 61 5 -2 17 -25 26 -53z m45 -144 c3
-5 1 -10 -4 -10 -6 0 -11 5 -11 10 0 6 2 10 4 10 3 0 8 -4 11 -10z"/>
<path d="M820 785 c0 -3 2 -5 5 -5 3 0 5 2 5 5 0 3 -2 5 -5 5 -3 0 -5 -2 -5
-5z"/>
<path d="M840 685 c0 -3 2 -5 5 -5 3 0 5 2 5 5 0 3 -2 5 -5 5 -3 0 -5 -2 -5
-5z"/>
<path d="M890 925 c0 -3 2 -5 5 -5 3 0 5 2 5 5 0 3 -2 5 -5 5 -3 0 -5 -2 -5
-5z"/>
<path d="M290 785 c0 -3 2 -5 5 -5 3 0 5 2 5 5 0 3 -2 5 -5 5 -3 0 -5 -2 -5
-5z"/>
<path d="M300 745 c0 -3 2 -5 5 -5 3 0 5 2 5 5 0 3 -2 5 -5 5 -3 0 -5 -2 -5
-5z"/>
<path d="M350 735 c0 -3 2 -5 5 -5 3 0 5 2 5 5 0 3 -2 5 -5 5 -3 0 -5 -2 -5
-5z"/>
<path d="M220 595 c0 -8 -17 -23 -38 -34 -21 -11 -44 -27 -51 -35 -11 -13 -17
-14 -30 -4 -13 10 -14 10 -4 -1 9 -10 5 -24 -18 -63 -16 -27 -29 -53 -29 -58
0 -4 -6 -11 -12 -13 -7 -3 -8 -6 -2 -6 6 -1 9 -14 6 -31 -4 -25 -1 -30 17 -30
16 0 21 6 21 25 0 31 0 31 91 0 84 -29 136 -30 131 -2 -2 9 2 17 8 17 5 0 10
11 10 25 0 19 -5 25 -21 25 -16 0 -20 5 -16 20 3 13 1 18 -6 13 -6 -4 -8 2 -5
15 4 12 3 20 -1 17 -4 -2 -13 11 -19 30 -8 28 -7 35 4 35 8 0 14 5 14 10 0 6
11 10 25 10 19 0 25 5 25 21 0 19 -4 21 -45 16 -28 -4 -43 -2 -40 3 4 6 1 10
-4 10 -6 0 -11 -7 -11 -15z m30 -111 c32 -92 32 -91 13 -98 -12 -5 -33 9 -72
46 l-56 53 57 -60 c52 -55 55 -61 40 -75 -9 -8 -17 -14 -17 -13 0 2 -25 11
-55 21 -65 22 -75 47 -38 102 25 37 85 83 102 77 5 -2 17 -25 26 -53z m37
-151 c-4 -3 -7 0 -7 7 0 7 3 10 7 7 3 -4 3 -10 0 -14z"/>
<path d="M180 465 c0 -3 2 -5 5 -5 3 0 5 2 5 5 0 3 -2 5 -5 5 -3 0 -5 -2 -5
-5z"/>
<path d="M120 395 c0 -3 2 -5 5 -5 3 0 5 2 5 5 0 3 -2 5 -5 5 -3 0 -5 -2 -5
-5z"/>
<path d="M200 365 c0 -3 2 -5 5 -5 3 0 5 2 5 5 0 3 -2 5 -5 5 -3 0 -5 -2 -5
-5z"/>
<path d="M540 598 c0 -10 -16 -26 -37 -37 -47 -24 -83 -62 -114 -121 -13 -25
-28 -48 -34 -52 -6 -5 -6 -8 1 -8 6 0 9 -13 6 -30 -4 -25 -1 -30 17 -30 16 0
21 6 21 25 0 31 0 31 91 0 84 -29 136 -30 131 -2 -2 9 2 17 8 17 6 0 10 12 8
28 -2 19 -8 26 -20 24 -21 -3 -24 18 -5 38 9 11 8 11 -7 0 -18 -14 -19 -13
-14 8 4 12 3 20 -1 17 -4 -2 -13 11 -19 30 -8 28 -7 35 4 35 8 0 14 5 14 10 0
6 11 10 25 10 19 0 25 5 25 21 0 20 -4 21 -42 15 -29 -5 -44 -3 -50 6 -6 10
-8 9 -8 -4z m30 -114 c32 -92 32 -91 13 -98 -12 -5 -33 9 -72 46 l-56 53 57
-60 c46 -49 54 -62 43 -72 -16 -15 -124 13 -132 34 -13 34 36 110 92 141 30
17 37 11 55 -44z m45 -144 c3 -5 1 -10 -4 -10 -6 0 -11 5 -11 10 0 6 2 10 4
10 3 0 8 -4 11 -10z"/>
<path d="M500 465 c0 -3 2 -5 5 -5 3 0 5 2 5 5 0 3 -2 5 -5 5 -3 0 -5 -2 -5
-5z"/>
<path d="M480 375 c0 -3 2 -5 5 -5 3 0 5 2 5 5 0 3 -2 5 -5 5 -3 0 -5 -2 -5
-5z"/>
<path d="M520 365 c0 -3 2 -5 5 -5 3 0 5 2 5 5 0 3 -2 5 -5 5 -3 0 -5 -2 -5
-5z"/>
<path d="M860 598 c0 -10 -16 -26 -38 -37 -21 -11 -44 -27 -51 -35 -11 -13
-17 -14 -30 -4 -13 10 -14 10 -4 -1 9 -10 5 -24 -18 -63 -16 -27 -29 -53 -29
-58 0 -4 -6 -11 -12 -13 -7 -3 -8 -6 -2 -6 6 -1 9 -14 6 -31 -4 -25 -1 -30 17
-30 16 0 21 6 21 25 0 31 0 31 91 0 84 -29 136 -30 131 -2 -2 9 2 17 8 17 5 0
10 11 10 25 0 18 -5 25 -20 25 -20 0 -23 18 -5 33 6 5 4 7 -6 4 -12 -4 -20 7
-31 44 -14 41 -14 49 -2 49 8 0 14 5 14 10 0 6 11 10 25 10 19 0 25 5 25 21 0
20 -4 21 -42 15 -29 -5 -44 -3 -50 6 -6 10 -8 9 -8 -4z m30 -114 c32 -92 32
-91 13 -98 -12 -5 -33 9 -72 46 l-56 53 57 -60 c43 -46 54 -63 44 -71 -14 -13
-59 -8 -64 6 -2 6 -7 8 -12 5 -5 -3 -20 -1 -34 5 -23 8 -26 15 -24 49 2 22 5
38 7 35 2 -2 13 8 24 22 23 29 77 66 91 61 5 -2 17 -25 26 -53z m45 -144 c3
-5 1 -10 -4 -10 -6 0 -11 5 -11 10 0 6 2 10 4 10 3 0 8 -4 11 -10z"/>
<path d="M820 465 c0 -3 2 -5 5 -5 3 0 5 2 5 5 0 3 -2 5 -5 5 -3 0 -5 -2 -5
-5z"/>
<path d="M840 365 c0 -3 2 -5 5 -5 3 0 5 2 5 5 0 3 -2 5 -5 5 -3 0 -5 -2 -5
-5z"/>
<path d="M890 605 c0 -3 2 -5 5 -5 3 0 5 2 5 5 0 3 -2 5 -5 5 -3 0 -5 -2 -5
-5z"/>
<path d="M415 520 c3 -5 8 -10 11 -10 2 0 4 5 4 10 0 6 -5 10 -11 10 -5 0 -7
-4 -4 -10z"/>
<path d="M300 435 c0 -3 2 -5 5 -5 3 0 5 2 5 5 0 3 -2 5 -5 5 -3 0 -5 -2 -5
-5z"/>
<path d="M350 415 c0 -3 2 -5 5 -5 3 0 5 2 5 5 0 3 -2 5 -5 5 -3 0 -5 -2 -5
-5z"/>
<path d="M220 275 c0 -8 -17 -23 -37 -34 -47 -24 -83 -62 -114 -121 -13 -25
-28 -48 -34 -52 -6 -5 -6 -8 1 -8 6 0 9 -13 6 -30 -4 -25 -1 -30 17 -30 16 0
21 6 21 25 0 31 0 31 91 0 84 -29 136 -30 131 -2 -2 9 2 17 8 17 6 0 10 12 8
27 -2 20 -8 27 -20 25 -21 -3 -24 18 -5 38 9 11 8 11 -7 0 -18 -14 -19 -13
-14 8 4 12 3 20 -1 17 -4 -2 -13 11 -19 30 -8 28 -7 35 4 35 8 0 14 5 14 10 0
6 11 10 25 10 19 0 25 5 25 21 0 20 -4 21 -46 14 -32 -4 -44 -3 -39 4 3 6 1
11 -4 11 -6 0 -11 -7 -11 -15z m20 -30 c0 -3 -2 -5 -5 -5 -3 0 -5 2 -5 5 0 3
2 5 5 5 3 0 5 -2 5 -5z m10 -81 c32 -92 32 -91 13 -98 -12 -5 -33 9 -72 46
l-56 53 57 -60 c47 -50 54 -62 43 -72 -11 -10 -26 -9 -72 5 -49 15 -58 22 -61
43 -2 14 7 40 20 59 25 37 85 83 102 77 5 -2 17 -25 26 -53z m45 -144 c3 -5 1
-10 -4 -10 -6 0 -11 5 -11 10 0 6 2 10 4 10 3 0 8 -4 11 -10z"/>
<path d="M180 145 c0 -3 2 -5 5 -5 3 0 5 2 5 5 0 3 -2 5 -5 5 -3 0 -5 -2 -5
-5z"/>
<path d="M160 55 c0 -3 2 -5 5 -5 3 0 5 2 5 5 0 3 -2 5 -5 5 -3 0 -5 -2 -5 -5z"/>
<path d="M200 45 c0 -3 2 -5 5 -5 3 0 5 2 5 5 0 3 -2 5 -5 5 -3 0 -5 -2 -5 -5z"/>
<path d="M540 278 c0 -10 -16 -26 -38 -37 -21 -11 -44 -27 -51 -35 -11 -13
-17 -14 -30 -4 -13 10 -14 10 -4 -1 9 -10 5 -24 -18 -63 -16 -27 -29 -53 -29
-58 0 -4 -6 -11 -12 -13 -7 -3 -8 -6 -2 -6 6 -1 9 -14 6 -31 -4 -25 -1 -30 17
-30 16 0 21 6 21 25 0 31 0 31 91 0 84 -29 136 -30 131 -2 -2 9 2 17 8 17 5 0
10 11 10 25 0 18 -5 25 -20 25 -20 0 -23 18 -5 33 6 5 4 7 -6 4 -12 -4 -20 7
-31 44 -14 41 -14 49 -2 49 8 0 14 5 14 10 0 6 11 10 25 10 19 0 25 5 25 21 0
20 -4 21 -42 15 -29 -5 -44 -3 -50 6 -6 10 -8 9 -8 -4z m30 -114 c32 -92 32
-91 13 -98 -12 -5 -33 9 -72 46 l-56 53 57 -60 c43 -46 54 -63 44 -71 -14 -13
-59 -8 -64 6 -2 6 -7 8 -12 5 -5 -3 -20 -1 -34 5 -23 8 -26 15 -24 49 2 22 5
38 7 35 2 -2 13 8 24 22 23 29 77 66 91 61 5 -2 17 -25 26 -53z m45 -144 c3
-5 1 -10 -4 -10 -6 0 -11 5 -11 10 0 6 2 10 4 10 3 0 8 -4 11 -10z"/>
<path d="M500 145 c0 -3 2 -5 5 -5 3 0 5 2 5 5 0 3 -2 5 -5 5 -3 0 -5 -2 -5
-5z"/>
<path d="M520 45 c0 -3 2 -5 5 -5 3 0 5 2 5 5 0 3 -2 5 -5 5 -3 0 -5 -2 -5 -5z"/>
<path d="M570 285 c0 -3 2 -5 5 -5 3 0 5 2 5 5 0 3 -2 5 -5 5 -3 0 -5 -2 -5
-5z"/>
<path d="M860 278 c0 -10 -16 -26 -38 -37 -21 -11 -44 -27 -51 -35 -11 -13
-17 -14 -30 -4 -13 10 -14 10 -4 -1 9 -10 5 -24 -18 -63 -16 -27 -29 -53 -29
-58 0 -4 -6 -11 -12 -13 -7 -3 -8 -6 -2 -6 6 -1 9 -14 6 -31 -4 -25 -1 -30 17
-30 16 0 21 6 21 25 0 31 0 31 91 0 84 -29 136 -30 131 -2 -2 9 2 17 8 17 6 0
10 12 8 27 -2 20 -8 27 -20 25 -21 -3 -24 18 -5 38 9 11 8 11 -7 0 -18 -14
-19 -13 -14 8 4 12 3 20 -1 17 -4 -2 -13 11 -19 30 -8 28 -7 35 4 35 8 0 14 5
14 10 0 6 11 10 25 10 19 0 25 5 25 21 0 20 -4 21 -42 15 -29 -5 -44 -3 -50 6
-6 10 -8 9 -8 -4z m30 -114 c32 -92 32 -91 13 -98 -12 -5 -33 9 -72 46 l-56
53 57 -60 c46 -49 54 -62 43 -72 -16 -15 -124 13 -132 34 -13 34 36 110 92
141 30 17 37 11 55 -44z m45 -144 c3 -5 1 -10 -4 -10 -6 0 -11 5 -11 10 0 6 2
10 4 10 3 0 8 -4 11 -10z"/>
<path d="M820 145 c0 -3 2 -5 5 -5 3 0 5 2 5 5 0 3 -2 5 -5 5 -3 0 -5 -2 -5
-5z"/>
<path d="M800 55 c0 -3 2 -5 5 -5 3 0 5 2 5 5 0 3 -2 5 -5 5 -3 0 -5 -2 -5 -5z"/>
<path d="M840 45 c0 -3 2 -5 5 -5 3 0 5 2 5 5 0 3 -2 5 -5 5 -3 0 -5 -2 -5 -5z"/>
<path d="M95 200 c3 -5 8 -10 11 -10 2 0 4 5 4 10 0 6 -5 10 -11 10 -5 0 -7
-4 -4 -10z"/>
<path d="M30 95 c0 -3 2 -5 5 -5 3 0 5 2 5 5 0 3 -2 5 -5 5 -3 0 -5 -2 -5 -5z"/>
<path d="M670 95 c0 -3 2 -5 5 -5 3 0 5 2 5 5 0 3 -2 5 -5 5 -3 0 -5 -2 -5 -5z"/>
</g>
<g transform="translate(0.000000,96.000000) scale(0.100000,-0.100000)"
fill="#595959" stroke="none">
<path d="M221 914 c0 -11 3 -14 6 -6 3 7 2 16 -1 19 -3 4 -6 -2 -5 -13z"/>
<path d="M541 914 c0 -11 3 -14 6 -6 3 7 2 16 -1 19 -3 4 -6 -2 -5 -13z"/>
<path d="M861 914 c0 -11 3 -14 6 -6 3 7 2 16 -1 19 -3 4 -6 -2 -5 -13z"/>
<path d="M265 890 c-4 -6 -10 -8 -15 -5 -14 9 -106 -42 -129 -70 -39 -51 -76
-175 -51 -175 6 0 10 11 10 25 0 14 4 25 8 25 5 0 42 -11 82 -25 40 -14 77
-25 81 -25 4 0 10 11 13 25 4 15 16 27 31 31 30 8 33 34 4 34 -16 0 -20 5 -16
20 3 11 2 18 -2 16 -4 -3 -15 17 -23 44 -14 42 -14 50 -2 50 8 0 14 5 14 10 0
6 11 10 25 10 14 0 25 5 25 10 0 13 -47 13 -55 0z m-15 -86 c32 -92 32 -91 13
-98 -12 -5 -33 9 -72 46 l-56 53 57 -60 c49 -52 55 -62 42 -73 -12 -11 -24
-10 -72 6 -67 22 -77 47 -40 102 25 37 85 83 102 77 5 -2 17 -25 26 -53z"/>
<path d="M180 785 c0 -3 2 -5 5 -5 3 0 5 2 5 5 0 3 -2 5 -5 5 -3 0 -5 -2 -5
-5z"/>
<path d="M195 690 c3 -5 8 -10 11 -10 3 0 2 5 -1 10 -3 6 -8 10 -11 10 -3 0
-2 -4 1 -10z"/>
<path d="M570 891 c-41 -13 -104 -48 -121 -67 -43 -49 -87 -184 -60 -184 6 0
11 11 11 25 0 14 4 25 8 25 5 0 42 -11 82 -25 40 -14 77 -25 81 -25 4 0 10 11
13 25 4 15 16 27 32 31 28 7 30 41 1 36 -20 -3 -22 18 -4 38 9 11 8 11 -7 0
-18 -14 -19 -13 -14 8 4 12 3 20 -1 17 -4 -2 -13 11 -19 30 -8 28 -7 35 4 35
8 0 14 5 14 10 0 6 11 10 25 10 14 0 25 5 25 10 0 11 -33 12 -70 1z m0 -87
c32 -92 32 -91 13 -98 -12 -5 -33 9 -72 46 l-56 53 57 -60 c47 -50 54 -62 43
-72 -11 -10 -26 -9 -72 5 -49 15 -58 22 -61 43 -2 14 7 40 20 59 25 37 85 83
102 77 5 -2 17 -25 26 -53z"/>
<path d="M500 785 c0 -3 2 -5 5 -5 3 0 5 2 5 5 0 3 -2 5 -5 5 -3 0 -5 -2 -5
-5z"/>
<path d="M480 695 c0 -3 2 -5 5 -5 3 0 5 2 5 5 0 3 -2 5 -5 5 -3 0 -5 -2 -5
-5z"/>
<path d="M520 685 c0 -3 2 -5 5 -5 3 0 5 2 5 5 0 3 -2 5 -5 5 -3 0 -5 -2 -5
-5z"/>
<path d="M855 875 c-60 -24 -121 -77 -110 -95 4 -6 2 -10 -3 -10 -12 0 -29
-43 -38 -92 -4 -25 -2 -38 5 -38 6 0 11 11 11 25 0 14 4 25 8 25 5 0 42 -11
82 -25 40 -14 77 -25 81 -25 4 0 10 11 13 25 4 15 16 27 31 31 30 7 34 34 5
34 -20 0 -23 18 -5 33 6 5 4 7 -6 4 -12 -4 -20 7 -31 44 -14 41 -14 49 -2 49
8 0 14 5 14 10 0 6 11 10 25 10 14 0 25 5 25 10 0 17 -42 11 -105 -15z m35
-71 c32 -92 32 -91 13 -98 -12 -5 -33 9 -72 46 l-56 53 57 -60 c43 -46 54 -63
44 -71 -14 -13 -59 -8 -64 6 -2 6 -7 8 -12 5 -5 -3 -20 -1 -34 5 -33 12 -34
45 -3 91 24 36 84 82 101 76 5 -2 17 -25 26 -53z"/>
<path d="M820 785 c0 -3 2 -5 5 -5 3 0 5 2 5 5 0 3 -2 5 -5 5 -3 0 -5 -2 -5
-5z"/>
<path d="M840 685 c0 -3 2 -5 5 -5 3 0 5 2 5 5 0 3 -2 5 -5 5 -3 0 -5 -2 -5
-5z"/>
<path d="M95 840 c3 -5 8 -10 11 -10 3 0 2 5 -1 10 -3 6 -8 10 -11 10 -3 0 -2
-4 1 -10z"/>
<path d="M415 840 c3 -5 8 -10 11 -10 3 0 2 5 -1 10 -3 6 -8 10 -11 10 -3 0
-2 -4 1 -10z"/>
<path d="M735 840 c3 -5 8 -10 11 -10 3 0 2 5 -1 10 -3 6 -8 10 -11 10 -3 0
-2 -4 1 -10z"/>
<path d="M290 785 c0 -3 2 -5 5 -5 3 0 5 2 5 5 0 3 -2 5 -5 5 -3 0 -5 -2 -5
-5z"/>
<path d="M300 745 c0 -3 2 -5 5 -5 3 0 5 2 5 5 0 3 -2 5 -5 5 -3 0 -5 -2 -5
-5z"/>
<path d="M50 735 c0 -3 2 -5 5 -5 3 0 5 2 5 5 0 3 -2 5 -5 5 -3 0 -5 -2 -5 -5z"/>
<path d="M370 735 c0 -3 2 -5 5 -5 3 0 5 2 5 5 0 3 -2 5 -5 5 -3 0 -5 -2 -5
-5z"/>
<path d="M690 735 c0 -3 2 -5 5 -5 3 0 5 2 5 5 0 3 -2 5 -5 5 -3 0 -5 -2 -5
-5z"/>
<path d="M33 703 c4 -3 10 -3 14 0 3 4 0 7 -7 7 -7 0 -10 -3 -7 -7z"/>
<path d="M353 703 c4 -3 10 -3 14 0 3 4 0 7 -7 7 -7 0 -10 -3 -7 -7z"/>
<path d="M673 703 c4 -3 10 -3 14 0 3 4 0 7 -7 7 -7 0 -10 -3 -7 -7z"/>
<path d="M293 668 c3 -9 1 -19 -6 -22 -9 -3 -9 -5 0 -5 18 -1 23 13 11 29 -8
12 -9 12 -5 -2z"/>
<path d="M613 668 c3 -9 1 -19 -6 -22 -9 -3 -9 -5 0 -5 18 -1 23 13 11 29 -8
12 -9 12 -5 -2z"/>
<path d="M933 668 c3 -9 1 -19 -6 -22 -9 -3 -9 -5 0 -5 18 -1 23 13 11 29 -8
12 -9 12 -5 -2z"/>
<path d="M221 594 c0 -11 3 -14 6 -6 3 7 2 16 -1 19 -3 4 -6 -2 -5 -13z"/>
<path d="M541 594 c0 -11 3 -14 6 -6 3 7 2 16 -1 19 -3 4 -6 -2 -5 -13z"/>
<path d="M861 594 c0 -11 3 -14 6 -6 3 7 2 16 -1 19 -3 4 -6 -2 -5 -13z"/>
<path d="M250 571 c-42 -13 -104 -48 -121 -67 -43 -51 -87 -184 -60 -184 6 0
11 11 11 25 0 14 4 25 8 25 5 0 42 -11 82 -25 40 -14 77 -25 81 -25 4 0 10 11
13 25 4 15 16 27 31 31 30 8 33 34 4 34 -16 0 -20 5 -16 20 3 13 1 18 -6 13
-6 -4 -8 2 -5 15 4 12 3 20 -1 17 -4 -2 -13 11 -19 30 -8 28 -7 35 4 35 8 0
14 5 14 10 0 6 11 10 25 10 14 0 25 5 25 10 0 11 -33 12 -70 1z m0 -87 c32
-92 32 -91 13 -98 -12 -5 -33 9 -72 46 l-56 53 57 -60 c52 -55 55 -61 40 -75
-9 -8 -17 -14 -17 -13 0 2 -25 11 -55 21 -65 22 -75 47 -38 102 25 37 85 83
102 77 5 -2 17 -25 26 -53z"/>
<path d="M180 465 c0 -3 2 -5 5 -5 3 0 5 2 5 5 0 3 -2 5 -5 5 -3 0 -5 -2 -5
-5z"/>
<path d="M120 395 c0 -3 2 -5 5 -5 3 0 5 2 5 5 0 3 -2 5 -5 5 -3 0 -5 -2 -5
-5z"/>
<path d="M200 365 c0 -3 2 -5 5 -5 3 0 5 2 5 5 0 3 -2 5 -5 5 -3 0 -5 -2 -5
-5z"/>
<path d="M537 556 c-72 -30 -93 -48 -123 -108 -28 -55 -42 -128 -25 -128 6 0
11 11 11 25 0 14 4 25 8 25 5 0 42 -11 82 -25 40 -14 77 -25 81 -25 4 0 10 11
13 25 4 15 16 27 32 31 28 7 30 41 1 36 -20 -3 -22 18 -4 38 9 11 8 11 -7 0
-18 -14 -19 -13 -14 8 4 12 3 20 -1 17 -4 -2 -13 11 -19 30 -8 28 -7 35 4 35
8 0 14 5 14 10 0 6 11 10 25 10 14 0 25 5 25 10 0 17 -42 11 -103 -14z m33
-72 c32 -92 32 -91 13 -98 -12 -5 -33 9 -72 46 l-56 53 57 -60 c46 -49 54 -62
43 -72 -16 -15 -124 13 -132 34 -13 34 36 110 92 141 30 17 37 11 55 -44z"/>
<path d="M500 465 c0 -3 2 -5 5 -5 3 0 5 2 5 5 0 3 -2 5 -5 5 -3 0 -5 -2 -5
-5z"/>
<path d="M480 375 c0 -3 2 -5 5 -5 3 0 5 2 5 5 0 3 -2 5 -5 5 -3 0 -5 -2 -5
-5z"/>
<path d="M520 365 c0 -3 2 -5 5 -5 3 0 5 2 5 5 0 3 -2 5 -5 5 -3 0 -5 -2 -5
-5z"/>
<path d="M855 555 c-60 -24 -121 -77 -110 -95 4 -6 2 -10 -3 -10 -12 0 -29
-43 -38 -92 -4 -25 -2 -38 5 -38 6 0 11 11 11 25 0 14 4 25 8 25 5 0 42 -11
82 -25 40 -14 77 -25 81 -25 4 0 10 11 13 25 4 15 16 27 31 31 30 7 34 34 5
34 -20 0 -23 18 -5 33 6 5 4 7 -6 4 -12 -4 -20 7 -31 44 -14 41 -14 49 -2 49
8 0 14 5 14 10 0 6 11 10 25 10 14 0 25 5 25 10 0 17 -42 11 -105 -15z m35
-71 c32 -92 32 -91 13 -98 -12 -5 -33 9 -72 46 l-56 53 57 -60 c43 -46 54 -63
44 -71 -14 -13 -59 -8 -64 6 -2 6 -7 8 -12 5 -5 -3 -20 -1 -34 5 -33 12 -34
45 -3 91 24 36 84 82 101 76 5 -2 17 -25 26 -53z"/>
<path d="M820 465 c0 -3 2 -5 5 -5 3 0 5 2 5 5 0 3 -2 5 -5 5 -3 0 -5 -2 -5
-5z"/>
<path d="M840 365 c0 -3 2 -5 5 -5 3 0 5 2 5 5 0 3 -2 5 -5 5 -3 0 -5 -2 -5
-5z"/>
<path d="M95 520 c3 -5 8 -10 11 -10 3 0 2 5 -1 10 -3 6 -8 10 -11 10 -3 0 -2
-4 1 -10z"/>
<path d="M415 520 c3 -5 8 -10 11 -10 3 0 2 5 -1 10 -3 6 -8 10 -11 10 -3 0
-2 -4 1 -10z"/>
<path d="M735 520 c3 -5 8 -10 11 -10 3 0 2 5 -1 10 -3 6 -8 10 -11 10 -3 0
-2 -4 1 -10z"/>
<path d="M300 435 c0 -3 2 -5 5 -5 3 0 5 2 5 5 0 3 -2 5 -5 5 -3 0 -5 -2 -5
-5z"/>
<path d="M50 415 c0 -3 2 -5 5 -5 3 0 5 2 5 5 0 3 -2 5 -5 5 -3 0 -5 -2 -5 -5z"/>
<path d="M370 415 c0 -3 2 -5 5 -5 3 0 5 2 5 5 0 3 -2 5 -5 5 -3 0 -5 -2 -5
-5z"/>
<path d="M690 415 c0 -3 2 -5 5 -5 3 0 5 2 5 5 0 3 -2 5 -5 5 -3 0 -5 -2 -5
-5z"/>
<path d="M33 383 c4 -3 10 -3 14 0 3 4 0 7 -7 7 -7 0 -10 -3 -7 -7z"/>
<path d="M353 383 c4 -3 10 -3 14 0 3 4 0 7 -7 7 -7 0 -10 -3 -7 -7z"/>
<path d="M673 383 c4 -3 10 -3 14 0 3 4 0 7 -7 7 -7 0 -10 -3 -7 -7z"/>
<path d="M293 348 c3 -9 1 -19 -6 -22 -9 -3 -9 -5 0 -5 18 -1 23 13 11 29 -8
12 -9 12 -5 -2z"/>
<path d="M613 348 c3 -9 1 -19 -6 -22 -9 -3 -9 -5 0 -5 18 -1 23 13 11 29 -8
12 -9 12 -5 -2z"/>
<path d="M933 348 c3 -9 1 -19 -6 -22 -9 -3 -9 -5 0 -5 18 -1 23 13 11 29 -8
12 -9 12 -5 -2z"/>
<path d="M221 274 c0 -11 3 -14 6 -6 3 7 2 16 -1 19 -3 4 -6 -2 -5 -13z"/>
<path d="M541 274 c0 -11 3 -14 6 -6 3 7 2 16 -1 19 -3 4 -6 -2 -5 -13z"/>
<path d="M861 274 c0 -11 3 -14 6 -6 3 7 2 16 -1 19 -3 4 -6 -2 -5 -13z"/>
<path d="M217 236 c-72 -30 -93 -48 -123 -108 -28 -55 -42 -128 -25 -128 6 0
11 11 11 25 0 31 0 31 90 0 40 -14 77 -25 81 -25 4 0 10 11 13 25 4 15 16 27
32 31 28 7 30 41 1 36 -20 -3 -22 18 -4 38 9 11 8 11 -7 0 -18 -14 -19 -13
-14 8 4 12 3 20 -1 17 -4 -2 -13 11 -19 30 -8 28 -7 35 4 35 8 0 14 5 14 10 0
6 11 10 25 10 14 0 25 5 25 10 0 17 -42 11 -103 -14z m33 -72 c32 -92 32 -91
13 -98 -12 -5 -33 9 -72 46 l-56 53 57 -60 c47 -50 54 -62 43 -72 -11 -10 -26
-9 -72 5 -49 15 -58 22 -61 43 -2 14 7 40 20 59 25 37 85 83 102 77 5 -2 17
-25 26 -53z"/>
<path d="M180 145 c0 -3 2 -5 5 -5 3 0 5 2 5 5 0 3 -2 5 -5 5 -3 0 -5 -2 -5
-5z"/>
<path d="M160 55 c0 -3 2 -5 5 -5 3 0 5 2 5 5 0 3 -2 5 -5 5 -3 0 -5 -2 -5 -5z"/>
<path d="M200 45 c0 -3 2 -5 5 -5 3 0 5 2 5 5 0 3 -2 5 -5 5 -3 0 -5 -2 -5 -5z"/>
<path d="M535 235 c-60 -24 -121 -77 -110 -95 4 -6 2 -10 -3 -10 -12 0 -29
-43 -38 -92 -4 -25 -2 -38 5 -38 6 0 11 11 11 25 0 31 0 31 90 0 40 -14 77
-25 81 -25 4 0 10 11 13 25 4 15 16 27 31 31 30 7 34 34 5 34 -20 0 -23 18 -5
33 6 5 4 7 -6 4 -12 -4 -20 7 -31 44 -14 41 -14 49 -2 49 8 0 14 5 14 10 0 6
11 10 25 10 14 0 25 5 25 10 0 17 -42 11 -105 -15z m35 -71 c32 -92 32 -91 13
-98 -12 -5 -33 9 -72 46 l-56 53 57 -60 c43 -46 54 -63 44 -71 -14 -13 -59 -8
-64 6 -2 6 -7 8 -12 5 -5 -3 -20 -1 -34 5 -33 12 -34 45 -3 91 24 36 84 82
101 76 5 -2 17 -25 26 -53z"/>
<path d="M500 145 c0 -3 2 -5 5 -5 3 0 5 2 5 5 0 3 -2 5 -5 5 -3 0 -5 -2 -5
-5z"/>
<path d="M520 45 c0 -3 2 -5 5 -5 3 0 5 2 5 5 0 3 -2 5 -5 5 -3 0 -5 -2 -5 -5z"/>
<path d="M857 236 c-72 -30 -93 -48 -123 -108 -28 -55 -42 -128 -25 -128 6 0
11 11 11 25 0 31 0 31 90 0 40 -14 77 -25 81 -25 4 0 10 11 13 25 4 15 16 27
32 31 28 7 30 41 1 36 -20 -3 -22 18 -4 38 9 11 8 11 -7 0 -18 -14 -19 -13
-14 8 4 12 3 20 -1 17 -4 -2 -13 11 -19 30 -8 28 -7 35 4 35 8 0 14 5 14 10 0
6 11 10 25 10 14 0 25 5 25 10 0 17 -42 11 -103 -14z m33 -72 c32 -92 32 -91
13 -98 -12 -5 -33 9 -72 46 l-56 53 57 -60 c46 -49 54 -62 43 -72 -16 -15
-124 13 -132 34 -13 34 36 110 92 141 30 17 37 11 55 -44z"/>
<path d="M820 145 c0 -3 2 -5 5 -5 3 0 5 2 5 5 0 3 -2 5 -5 5 -3 0 -5 -2 -5
-5z"/>
<path d="M800 55 c0 -3 2 -5 5 -5 3 0 5 2 5 5 0 3 -2 5 -5 5 -3 0 -5 -2 -5 -5z"/>
<path d="M840 45 c0 -3 2 -5 5 -5 3 0 5 2 5 5 0 3 -2 5 -5 5 -3 0 -5 -2 -5 -5z"/>
<path d="M95 200 c3 -5 8 -10 11 -10 3 0 2 5 -1 10 -3 6 -8 10 -11 10 -3 0 -2
-4 1 -10z"/>
<path d="M415 200 c3 -5 8 -10 11 -10 3 0 2 5 -1 10 -3 6 -8 10 -11 10 -3 0
-2 -4 1 -10z"/>
<path d="M735 200 c3 -5 8 -10 11 -10 3 0 2 5 -1 10 -3 6 -8 10 -11 10 -3 0
-2 -4 1 -10z"/>
<path d="M50 95 c0 -3 2 -5 5 -5 3 0 5 2 5 5 0 3 -2 5 -5 5 -3 0 -5 -2 -5 -5z"/>
<path d="M370 95 c0 -3 2 -5 5 -5 3 0 5 2 5 5 0 3 -2 5 -5 5 -3 0 -5 -2 -5 -5z"/>
<path d="M690 95 c0 -3 2 -5 5 -5 3 0 5 2 5 5 0 3 -2 5 -5 5 -3 0 -5 -2 -5 -5z"/>
<path d="M33 63 c4 -3 10 -3 14 0 3 4 0 7 -7 7 -7 0 -10 -3 -7 -7z"/>
<path d="M353 63 c4 -3 10 -3 14 0 3 4 0 7 -7 7 -7 0 -10 -3 -7 -7z"/>
<path d="M673 63 c4 -3 10 -3 14 0 3 4 0 7 -7 7 -7 0 -10 -3 -7 -7z"/>
<path d="M293 28 c3 -9 1 -19 -6 -22 -9 -3 -9 -5 0 -5 18 -1 23 13 11 29 -8
12 -9 12 -5 -2z"/>
<path d="M613 28 c3 -9 1 -19 -6 -22 -9 -3 -9 -5 0 -5 18 -1 23 13 11 29 -8
12 -9 12 -5 -2z"/>
<path d="M933 28 c3 -9 1 -19 -6 -22 -9 -3 -9 -5 0 -5 18 -1 23 13 11 29 -8
12 -9 12 -5 -2z"/>
</g>
<g transform="translate(0.000000,96.000000) scale(0.100000,-0.100000)"
fill="#715b37" stroke="none">
<path d="M221 914 c0 -11 3 -14 6 -6 3 7 2 16 -1 19 -3 4 -6 -2 -5 -13z"/>
<path d="M540 925 c0 -3 2 -5 5 -5 3 0 5 2 5 5 0 3 -2 5 -5 5 -3 0 -5 -2 -5
-5z"/>
<path d="M861 914 c0 -11 3 -14 6 -6 3 7 2 16 -1 19 -3 4 -6 -2 -5 -13z"/>
<path d="M540 905 c0 -3 2 -5 5 -5 3 0 5 2 5 5 0 3 -2 5 -5 5 -3 0 -5 -2 -5
-5z"/>
<path d="M630 895 c0 -3 2 -5 5 -5 3 0 5 2 5 5 0 3 -2 5 -5 5 -3 0 -5 -2 -5
-5z"/>
<path d="M270 885 c0 -3 2 -5 5 -5 3 0 5 2 5 5 0 3 -2 5 -5 5 -3 0 -5 -2 -5
-5z"/>
<path d="M550 885 c0 -3 2 -5 5 -5 3 0 5 2 5 5 0 3 -2 5 -5 5 -3 0 -5 -2 -5
-5z"/>
<path d="M237 867 c-2 -7 7 -44 20 -83 22 -65 26 -71 46 -66 22 7 22 7 -1 10
-18 3 -23 8 -19 23 3 10 2 17 -2 15 -4 -3 -15 17 -23 44 -15 45 -15 49 1 52
15 3 15 4 -1 10 -9 4 -18 2 -21 -5z"/>
<path d="M876 871 c-3 -5 6 -42 20 -84 23 -67 27 -74 47 -69 l22 6 -23 5 c-26
7 -30 19 -10 33 10 8 9 9 -3 5 -12 -4 -20 7 -31 43 -15 45 -14 49 1 52 14 3
14 4 -1 10 -10 4 -20 3 -22 -1z"/>
<path d="M530 865 c0 -3 2 -5 5 -5 3 0 5 2 5 5 0 3 -2 5 -5 5 -3 0 -5 -2 -5
-5z"/>
<path d="M552 858 c3 -7 15 -43 27 -80 12 -36 27 -65 34 -64 7 1 13 6 14 11 1
6 -5 9 -13 7 -17 -4 -18 19 -1 38 9 11 8 11 -7 0 -18 -14 -19 -13 -14 8 4 12
3 20 -1 17 -4 -2 -13 11 -18 30 -9 29 -8 35 6 38 10 3 7 5 -8 6 -15 1 -21 -4
-19 -11z"/>
<path d="M95 840 c3 -5 8 -10 11 -10 3 0 2 5 -1 10 -3 6 -8 10 -11 10 -3 0 -2
-4 1 -10z"/>
<path d="M170 845 c0 -3 2 -5 5 -5 3 0 5 2 5 5 0 3 -2 5 -5 5 -3 0 -5 -2 -5
-5z"/>
<path d="M415 840 c3 -5 8 -10 11 -10 3 0 2 5 -1 10 -3 6 -8 10 -11 10 -3 0
-2 -4 1 -10z"/>
<path d="M735 840 c3 -5 8 -10 11 -10 3 0 2 5 -1 10 -3 6 -8 10 -11 10 -3 0
-2 -4 1 -10z"/>
<path d="M142 817 c-9 -10 2 -27 48 -72 50 -49 62 -57 72 -46 11 11 10 12 0 6
-21 -11 -125 94 -110 112 6 7 8 13 5 13 -2 0 -9 -6 -15 -13z"/>
<path d="M464 818 c-4 -7 -3 -8 4 -4 12 7 16 16 8 16 -3 0 -8 -5 -12 -12z"/>
<path d="M782 817 c-9 -10 2 -27 48 -72 50 -49 62 -57 72 -46 11 11 10 12 0 6
-21 -11 -125 94 -110 112 6 7 8 13 5 13 -2 0 -9 -6 -15 -13z"/>
<path d="M512 745 c48 -49 60 -57 70 -46 11 11 10 12 0 6 -9 -5 -33 11 -70 46
l-57 54 57 -60z"/>
<path d="M180 785 c0 -3 2 -5 5 -5 3 0 5 2 5 5 0 3 -2 5 -5 5 -3 0 -5 -2 -5
-5z"/>
<path d="M290 785 c0 -3 2 -5 5 -5 3 0 5 2 5 5 0 3 -2 5 -5 5 -3 0 -5 -2 -5
-5z"/>
<path d="M430 785 c0 -3 2 -5 5 -5 3 0 5 2 5 5 0 3 -2 5 -5 5 -3 0 -5 -2 -5
-5z"/>
<path d="M500 785 c0 -3 2 -5 5 -5 3 0 5 2 5 5 0 3 -2 5 -5 5 -3 0 -5 -2 -5
-5z"/>
<path d="M820 785 c0 -3 2 -5 5 -5 3 0 5 2 5 5 0 3 -2 5 -5 5 -3 0 -5 -2 -5
-5z"/>
<path d="M300 745 c0 -3 2 -5 5 -5 3 0 5 2 5 5 0 3 -2 5 -5 5 -3 0 -5 -2 -5
-5z"/>
<path d="M50 735 c0 -3 2 -5 5 -5 3 0 5 2 5 5 0 3 -2 5 -5 5 -3 0 -5 -2 -5 -5z"/>
<path d="M370 735 c0 -3 2 -5 5 -5 3 0 5 2 5 5 0 3 -2 5 -5 5 -3 0 -5 -2 -5
-5z"/>
<path d="M690 735 c0 -3 2 -5 5 -5 3 0 5 2 5 5 0 3 -2 5 -5 5 -3 0 -5 -2 -5
-5z"/>
<path d="M91 713 c-1 -18 11 -25 74 -46 41 -14 75 -25 76 -24 0 1 2 10 4 20 4
19 -11 24 -17 6 -6 -19 -119 21 -128 46 -9 20 -9 20 -9 -2z"/>
<path d="M399 714 c-8 -11 -9 -15 -1 -10 6 4 12 3 12 -3 0 -10 146 -62 154
-54 2 3 2 12 -1 20 -4 9 -8 11 -12 4 -11 -17 -121 18 -130 42 -7 18 -8 18 -22
1z"/>
<path d="M726 711 c-4 -5 -2 -12 4 -16 12 -7 150 -55 151 -52 6 16 5 37 -2 37
-5 0 -9 -4 -9 -9 0 -10 -51 -4 -60 7 -3 4 -16 8 -30 10 -14 1 -30 9 -37 18 -6
9 -14 11 -17 5z"/>
<path d="M33 703 c4 -3 10 -3 14 0 3 4 0 7 -7 7 -7 0 -10 -3 -7 -7z"/>
<path d="M353 703 c4 -3 10 -3 14 0 3 4 0 7 -7 7 -7 0 -10 -3 -7 -7z"/>
<path d="M680 705 c0 -3 2 -5 5 -5 3 0 5 2 5 5 0 3 -2 5 -5 5 -3 0 -5 -2 -5
-5z"/>
<path d="M195 690 c3 -5 8 -10 11 -10 3 0 2 5 -1 10 -3 6 -8 10 -11 10 -3 0
-2 -4 1 -10z"/>
<path d="M480 695 c0 -3 2 -5 5 -5 3 0 5 2 5 5 0 3 -2 5 -5 5 -3 0 -5 -2 -5
-5z"/>
<path d="M520 685 c0 -3 2 -5 5 -5 3 0 5 2 5 5 0 3 -2 5 -5 5 -3 0 -5 -2 -5
-5z"/>
<path d="M840 685 c0 -3 2 -5 5 -5 3 0 5 2 5 5 0 3 -2 5 -5 5 -3 0 -5 -2 -5
-5z"/>
<path d="M293 668 c3 -9 1 -19 -6 -22 -9 -3 -9 -5 0 -5 18 -1 23 13 11 29 -8
12 -9 12 -5 -2z"/>
<path d="M613 668 c3 -9 1 -19 -6 -22 -9 -3 -9 -5 0 -5 18 -1 23 13 11 29 -8
12 -9 12 -5 -2z"/>
<path d="M710 675 c0 -3 2 -5 5 -5 3 0 5 2 5 5 0 3 -2 5 -5 5 -3 0 -5 -2 -5
-5z"/>
<path d="M933 668 c3 -9 1 -19 -6 -22 -9 -3 -9 -5 0 -5 18 -1 23 13 11 29 -8
12 -9 12 -5 -2z"/>
<path d="M221 594 c0 -11 3 -14 6 -6 3 7 2 16 -1 19 -3 4 -6 -2 -5 -13z"/>
<path d="M541 594 c0 -11 3 -14 6 -6 3 7 2 16 -1 19 -3 4 -6 -2 -5 -13z"/>
<path d="M861 594 c0 -11 3 -14 6 -6 3 7 2 16 -1 19 -3 4 -6 -2 -5 -13z"/>
<path d="M243 555 c-10 -11 -7 -29 13 -88 23 -68 27 -74 47 -69 22 7 22 7 -1
10 -18 3 -23 8 -19 23 3 12 1 17 -6 12 -6 -4 -8 2 -5 15 4 12 3 20 -1 17 -4
-2 -13 11 -18 30 -9 27 -8 35 3 37 7 2 10 8 6 14 -5 9 -10 8 -19 -1z"/>
<path d="M280 565 c0 -3 2 -5 5 -5 3 0 5 2 5 5 0 3 -2 5 -5 5 -3 0 -5 -2 -5
-5z"/>
<path d="M560 565 c0 -3 2 -5 5 -5 3 0 5 2 5 5 0 3 -2 5 -5 5 -3 0 -5 -2 -5
-5z"/>
<path d="M876 551 c-3 -5 6 -42 20 -84 23 -67 27 -74 47 -69 l22 6 -23 5 c-26
7 -30 19 -10 33 10 8 9 9 -3 5 -12 -4 -20 7 -31 43 -15 45 -14 49 1 52 14 3
14 4 -1 10 -10 4 -20 3 -22 -1z"/>
<path d="M552 538 c3 -7 15 -43 27 -80 12 -36 27 -65 34 -64 7 1 13 6 14 11 1
6 -5 9 -13 7 -17 -4 -18 19 -1 38 9 11 8 11 -7 0 -18 -14 -19 -13 -14 8 4 12
3 20 -1 17 -4 -2 -13 11 -18 30 -9 29 -8 35 6 38 10 3 7 5 -8 6 -15 1 -21 -4
-19 -11z"/>
<path d="M180 535 c0 -3 2 -5 5 -5 3 0 5 2 5 5 0 3 -2 5 -5 5 -3 0 -5 -2 -5
-5z"/>
<path d="M95 520 c3 -5 8 -10 11 -10 3 0 2 5 -1 10 -3 6 -8 10 -11 10 -3 0 -2
-4 1 -10z"/>
<path d="M415 520 c3 -5 8 -10 11 -10 3 0 2 5 -1 10 -3 6 -8 10 -11 10 -3 0
-2 -4 1 -10z"/>
<path d="M735 520 c3 -5 8 -10 11 -10 3 0 2 5 -1 10 -3 6 -8 10 -11 10 -3 0
-2 -4 1 -10z"/>
<path d="M142 498 c-10 -10 0 -25 45 -70 54 -55 83 -71 83 -47 0 5 -5 7 -11 3
-6 -3 -35 17 -65 47 -41 40 -51 56 -42 66 13 16 6 17 -10 1z"/>
<path d="M465 500 c-3 -5 -1 -10 4 -10 6 0 11 5 11 10 0 6 -2 10 -4 10 -3 0
-8 -4 -11 -10z"/>
<path d="M782 497 c-9 -10 2 -27 48 -72 50 -49 62 -57 72 -46 11 11 10 12 0 6
-21 -11 -125 94 -110 112 6 7 8 13 5 13 -2 0 -9 -6 -15 -13z"/>
<path d="M430 485 c0 -3 2 -5 5 -5 3 0 5 2 5 5 0 3 -2 5 -5 5 -3 0 -5 -2 -5
-5z"/>
<path d="M512 425 c48 -49 60 -57 70 -46 11 11 10 12 0 6 -9 -5 -33 11 -70 46
l-57 54 57 -60z"/>
<path d="M110 465 c0 -3 2 -5 5 -5 3 0 5 2 5 5 0 3 -2 5 -5 5 -3 0 -5 -2 -5
-5z"/>
<path d="M180 465 c0 -3 2 -5 5 -5 3 0 5 2 5 5 0 3 -2 5 -5 5 -3 0 -5 -2 -5
-5z"/>
<path d="M430 465 c0 -3 2 -5 5 -5 3 0 5 2 5 5 0 3 -2 5 -5 5 -3 0 -5 -2 -5
-5z"/>
<path d="M500 465 c0 -3 2 -5 5 -5 3 0 5 2 5 5 0 3 -2 5 -5 5 -3 0 -5 -2 -5
-5z"/>
<path d="M820 465 c0 -3 2 -5 5 -5 3 0 5 2 5 5 0 3 -2 5 -5 5 -3 0 -5 -2 -5
-5z"/>
<path d="M300 435 c0 -3 2 -5 5 -5 3 0 5 2 5 5 0 3 -2 5 -5 5 -3 0 -5 -2 -5
-5z"/>
<path d="M50 415 c0 -3 2 -5 5 -5 3 0 5 2 5 5 0 3 -2 5 -5 5 -3 0 -5 -2 -5 -5z"/>
<path d="M370 415 c0 -3 2 -5 5 -5 3 0 5 2 5 5 0 3 -2 5 -5 5 -3 0 -5 -2 -5
-5z"/>
<path d="M690 415 c0 -3 2 -5 5 -5 3 0 5 2 5 5 0 3 -2 5 -5 5 -3 0 -5 -2 -5
-5z"/>
<path d="M87 404 c-11 -19 10 -34 80 -58 69 -23 71 -24 76 -5 3 10 1 19 -4 19
-5 0 -9 -4 -9 -9 0 -22 -120 18 -129 43 -4 10 -10 15 -14 10z"/>
<path d="M399 394 c-8 -11 -9 -15 -1 -10 6 4 12 3 12 -3 0 -10 146 -62 154
-54 2 3 2 12 -1 20 -4 9 -8 11 -12 4 -11 -17 -121 18 -130 42 -7 18 -8 18 -22
1z"/>
<path d="M120 395 c0 -3 2 -5 5 -5 3 0 5 2 5 5 0 3 -2 5 -5 5 -3 0 -5 -2 -5
-5z"/>
<path d="M726 391 c-8 -13 1 -18 83 -46 67 -22 69 -23 74 -4 3 10 1 19 -4 19
-5 0 -9 -4 -9 -9 0 -10 -51 -4 -60 7 -3 4 -16 8 -30 10 -14 1 -30 9 -37 18 -6
9 -14 11 -17 5z"/>
<path d="M33 383 c4 -3 10 -3 14 0 3 4 0 7 -7 7 -7 0 -10 -3 -7 -7z"/>
<path d="M353 383 c4 -3 10 -3 14 0 3 4 0 7 -7 7 -7 0 -10 -3 -7 -7z"/>
<path d="M680 385 c0 -3 2 -5 5 -5 3 0 5 2 5 5 0 3 -2 5 -5 5 -3 0 -5 -2 -5
-5z"/>
<path d="M480 375 c0 -3 2 -5 5 -5 3 0 5 2 5 5 0 3 -2 5 -5 5 -3 0 -5 -2 -5
-5z"/>
<path d="M200 365 c0 -3 2 -5 5 -5 3 0 5 2 5 5 0 3 -2 5 -5 5 -3 0 -5 -2 -5
-5z"/>
<path d="M520 365 c0 -3 2 -5 5 -5 3 0 5 2 5 5 0 3 -2 5 -5 5 -3 0 -5 -2 -5
-5z"/>
<path d="M840 365 c0 -3 2 -5 5 -5 3 0 5 2 5 5 0 3 -2 5 -5 5 -3 0 -5 -2 -5
-5z"/>
<path d="M293 348 c3 -9 1 -19 -6 -22 -9 -3 -9 -5 0 -5 18 -1 23 13 11 29 -8
12 -9 12 -5 -2z"/>
<path d="M613 348 c3 -9 1 -19 -6 -22 -9 -3 -9 -5 0 -5 18 -1 23 13 11 29 -8
12 -9 12 -5 -2z"/>
<path d="M710 355 c0 -3 2 -5 5 -5 3 0 5 2 5 5 0 3 -2 5 -5 5 -3 0 -5 -2 -5
-5z"/>
<path d="M930 355 c0 -3 2 -5 5 -5 3 0 5 2 5 5 0 3 -2 5 -5 5 -3 0 -5 -2 -5
-5z"/>
<path d="M930 330 c-9 -6 -10 -10 -3 -10 6 0 15 5 18 10 8 12 4 12 -15 0z"/>
<path d="M220 280 c0 -7 3 -10 7 -7 3 4 3 10 0 14 -4 3 -7 0 -7 -7z"/>
<path d="M541 274 c0 -11 3 -14 6 -6 3 7 2 16 -1 19 -3 4 -6 -2 -5 -13z"/>
<path d="M861 274 c0 -11 3 -14 6 -6 3 7 2 16 -1 19 -3 4 -6 -2 -5 -13z"/>
<path d="M950 255 c0 -3 2 -5 5 -5 3 0 5 2 5 5 0 3 -2 5 -5 5 -3 0 -5 -2 -5
-5z"/>
<path d="M240 245 c0 -3 2 -5 5 -5 3 0 5 2 5 5 0 3 -2 5 -5 5 -3 0 -5 -2 -5
-5z"/>
<path d="M556 231 c-3 -5 6 -42 20 -84 23 -67 27 -74 47 -69 l22 6 -23 5 c-26
7 -30 19 -10 33 10 8 9 9 -3 5 -12 -4 -20 7 -31 43 -15 45 -14 49 1 52 14 3
14 4 -1 10 -10 4 -20 3 -22 -1z"/>
<path d="M232 218 c3 -7 15 -43 27 -80 12 -36 27 -65 34 -64 7 1 13 6 14 11 1
6 -5 9 -13 7 -17 -4 -18 19 -1 38 9 11 8 11 -7 0 -18 -14 -19 -13 -14 8 4 12
3 20 -1 17 -4 -2 -13 11 -18 30 -9 29 -8 35 6 38 10 3 7 5 -8 6 -15 1 -21 -4
-19 -11z"/>
<path d="M850 225 c0 -3 2 -5 5 -5 3 0 5 2 5 5 0 3 -2 5 -5 5 -3 0 -5 -2 -5
-5z"/>
<path d="M872 218 c3 -7 15 -43 27 -80 12 -36 27 -65 34 -64 7 1 13 6 14 11 1
6 -5 9 -13 7 -17 -4 -18 19 -1 38 9 11 8 11 -7 0 -18 -14 -19 -13 -14 8 4 12
3 20 -1 17 -4 -2 -13 11 -18 30 -9 29 -8 35 6 38 10 3 7 5 -8 6 -15 1 -21 -4
-19 -11z"/>
<path d="M95 200 c3 -5 8 -10 11 -10 3 0 2 5 -1 10 -3 6 -8 10 -11 10 -3 0 -2
-4 1 -10z"/>
<path d="M415 200 c3 -5 8 -10 11 -10 3 0 2 5 -1 10 -3 6 -8 10 -11 10 -3 0
-2 -4 1 -10z"/>
<path d="M735 200 c3 -5 8 -10 11 -10 3 0 2 5 -1 10 -3 6 -8 10 -11 10 -3 0
-2 -4 1 -10z"/>
<path d="M142 177 c-9 -10 2 -27 48 -72 50 -49 62 -57 72 -46 11 11 10 12 0 6
-21 -11 -125 94 -110 112 6 7 8 13 5 13 -2 0 -9 -6 -15 -13z"/>
<path d="M462 177 c-9 -10 2 -27 48 -72 50 -49 62 -57 72 -46 11 11 10 12 0 6
-21 -11 -125 94 -110 112 6 7 8 13 5 13 -2 0 -9 -6 -15 -13z"/>
<path d="M785 180 c-3 -5 -1 -10 4 -10 6 0 11 5 11 10 0 6 -2 10 -4 10 -3 0
-8 -4 -11 -10z"/>
<path d="M110 165 c0 -3 2 -5 5 -5 3 0 5 2 5 5 0 3 -2 5 -5 5 -3 0 -5 -2 -5
-5z"/>
<path d="M750 165 c0 -3 2 -5 5 -5 3 0 5 2 5 5 0 3 -2 5 -5 5 -3 0 -5 -2 -5
-5z"/>
<path d="M832 105 c48 -49 60 -57 70 -46 11 11 10 12 0 6 -9 -5 -33 11 -70 46
l-57 54 57 -60z"/>
<path d="M110 145 c0 -3 2 -5 5 -5 3 0 5 2 5 5 0 3 -2 5 -5 5 -3 0 -5 -2 -5
-5z"/>
<path d="M180 145 c0 -3 2 -5 5 -5 3 0 5 2 5 5 0 3 -2 5 -5 5 -3 0 -5 -2 -5
-5z"/>
<path d="M500 145 c0 -3 2 -5 5 -5 3 0 5 2 5 5 0 3 -2 5 -5 5 -3 0 -5 -2 -5
-5z"/>
<path d="M750 145 c0 -3 2 -5 5 -5 3 0 5 2 5 5 0 3 -2 5 -5 5 -3 0 -5 -2 -5
-5z"/>
<path d="M820 145 c0 -3 2 -5 5 -5 3 0 5 2 5 5 0 3 -2 5 -5 5 -3 0 -5 -2 -5
-5z"/>
<path d="M50 95 c0 -3 2 -5 5 -5 3 0 5 2 5 5 0 3 -2 5 -5 5 -3 0 -5 -2 -5 -5z"/>
<path d="M370 95 c0 -3 2 -5 5 -5 3 0 5 2 5 5 0 3 -2 5 -5 5 -3 0 -5 -2 -5 -5z"/>
<path d="M690 95 c0 -3 2 -5 5 -5 3 0 5 2 5 5 0 3 -2 5 -5 5 -3 0 -5 -2 -5 -5z"/>
<path d="M79 74 c-8 -11 -9 -15 -1 -10 6 4 12 3 12 -3 0 -10 146 -62 154 -54
2 3 2 12 -1 20 -4 9 -8 11 -12 4 -11 -17 -121 18 -130 42 -7 18 -8 18 -22 1z"/>
<path d="M719 74 c-8 -11 -9 -15 -1 -10 6 4 12 3 12 -3 0 -10 146 -62 154 -54
2 3 2 12 -1 20 -4 9 -8 11 -12 4 -11 -17 -121 18 -130 42 -7 18 -8 18 -22 1z"/>
<path d="M406 71 c-8 -13 1 -18 83 -46 67 -22 69 -23 74 -4 3 10 1 19 -4 19
-5 0 -9 -4 -9 -9 0 -10 -51 -4 -60 7 -3 4 -16 8 -30 10 -14 1 -30 9 -37 18 -6
9 -14 11 -17 5z"/>
<path d="M33 63 c4 -3 10 -3 14 0 3 4 0 7 -7 7 -7 0 -10 -3 -7 -7z"/>
<path d="M360 65 c0 -3 2 -5 5 -5 3 0 5 2 5 5 0 3 -2 5 -5 5 -3 0 -5 -2 -5 -5z"/>
<path d="M673 63 c4 -3 10 -3 14 0 3 4 0 7 -7 7 -7 0 -10 -3 -7 -7z"/>
<path d="M160 55 c0 -3 2 -5 5 -5 3 0 5 2 5 5 0 3 -2 5 -5 5 -3 0 -5 -2 -5 -5z"/>
<path d="M800 55 c0 -3 2 -5 5 -5 3 0 5 2 5 5 0 3 -2 5 -5 5 -3 0 -5 -2 -5 -5z"/>
<path d="M200 45 c0 -3 2 -5 5 -5 3 0 5 2 5 5 0 3 -2 5 -5 5 -3 0 -5 -2 -5 -5z"/>
<path d="M520 45 c0 -3 2 -5 5 -5 3 0 5 2 5 5 0 3 -2 5 -5 5 -3 0 -5 -2 -5 -5z"/>
<path d="M840 45 c0 -3 2 -5 5 -5 3 0 5 2 5 5 0 3 -2 5 -5 5 -3 0 -5 -2 -5 -5z"/>
<path d="M293 28 c3 -9 1 -19 -6 -22 -9 -3 -9 -5 0 -5 18 -1 23 13 11 29 -8
12 -9 12 -5 -2z"/>
<path d="M390 35 c0 -3 2 -5 5 -5 3 0 5 2 5 5 0 3 -2 5 -5 5 -3 0 -5 -2 -5 -5z"/>
<path d="M610 35 c0 -3 2 -5 5 -5 3 0 5 2 5 5 0 3 -2 5 -5 5 -3 0 -5 -2 -5 -5z"/>
<path d="M933 28 c3 -9 1 -19 -6 -22 -9 -3 -9 -5 0 -5 18 -1 23 13 11 29 -8
12 -9 12 -5 -2z"/>
<path d="M610 10 c-9 -6 -10 -10 -3 -10 6 0 15 5 18 10 8 12 4 12 -15 0z"/>
</g>
<g transform="translate(0.000000,96.000000) scale(0.100000,-0.100000)"
fill="#836a43" stroke="none">
<path d="M220 925 c0 -3 2 -5 5 -5 3 0 5 2 5 5 0 3 -2 5 -5 5 -3 0 -5 -2 -5
-5z"/>
<path d="M540 925 c0 -3 2 -5 5 -5 3 0 5 2 5 5 0 3 -2 5 -5 5 -3 0 -5 -2 -5
-5z"/>
<path d="M861 914 c0 -11 3 -14 6 -6 3 7 2 16 -1 19 -3 4 -6 -2 -5 -13z"/>
<path d="M220 905 c0 -3 2 -5 5 -5 3 0 5 2 5 5 0 3 -2 5 -5 5 -3 0 -5 -2 -5
-5z"/>
<path d="M540 905 c0 -3 2 -5 5 -5 3 0 5 2 5 5 0 3 -2 5 -5 5 -3 0 -5 -2 -5
-5z"/>
<path d="M630 895 c0 -3 2 -5 5 -5 3 0 5 2 5 5 0 3 -2 5 -5 5 -3 0 -5 -2 -5
-5z"/>
<path d="M270 885 c0 -3 2 -5 5 -5 3 0 5 2 5 5 0 3 -2 5 -5 5 -3 0 -5 -2 -5
-5z"/>
<path d="M550 885 c0 -3 2 -5 5 -5 3 0 5 2 5 5 0 3 -2 5 -5 5 -3 0 -5 -2 -5
-5z"/>
<path d="M240 875 c0 -3 2 -5 5 -5 3 0 5 2 5 5 0 3 -2 5 -5 5 -3 0 -5 -2 -5
-5z"/>
<path d="M874 868 c-4 -7 -3 -8 4 -4 7 4 12 9 12 12 0 8 -9 4 -16 -8z"/>
<path d="M530 865 c0 -3 2 -5 5 -5 3 0 5 2 5 5 0 3 -2 5 -5 5 -3 0 -5 -2 -5
-5z"/>
<path d="M550 860 c0 -5 7 -7 15 -4 8 4 15 8 15 10 0 2 -7 4 -15 4 -8 0 -15
-4 -15 -10z"/>
<path d="M170 845 c0 -3 2 -5 5 -5 3 0 5 2 5 5 0 3 -2 5 -5 5 -3 0 -5 -2 -5
-5z"/>
<path d="M420 835 c0 -3 2 -5 5 -5 3 0 5 2 5 5 0 3 -2 5 -5 5 -3 0 -5 -2 -5
-5z"/>
<path d="M139 813 c-13 -16 -12 -17 4 -4 9 7 17 15 17 17 0 8 -8 3 -21 -13z"/>
<path d="M464 818 c-4 -7 -3 -8 4 -4 12 7 16 16 8 16 -3 0 -8 -5 -12 -12z"/>
<path d="M566 817 c3 -10 9 -15 12 -12 3 3 0 11 -7 18 -10 9 -11 8 -5 -6z"/>
<path d="M790 825 c0 -3 2 -5 5 -5 3 0 5 2 5 5 0 3 -2 5 -5 5 -3 0 -5 -2 -5
-5z"/>
<path d="M250 810 c0 -7 3 -10 7 -7 3 4 3 10 0 14 -4 3 -7 0 -7 -7z"/>
<path d="M890 810 c0 -7 3 -10 7 -7 3 4 3 10 0 14 -4 3 -7 0 -7 -7z"/>
<path d="M770 805 c0 -3 2 -5 5 -5 3 0 5 2 5 5 0 3 -2 5 -5 5 -3 0 -5 -2 -5
-5z"/>
<path d="M584 788 c-4 -7 -3 -8 4 -4 12 7 16 16 8 16 -3 0 -8 -5 -12 -12z"/>
<path d="M180 785 c0 -3 2 -5 5 -5 3 0 5 2 5 5 0 3 -2 5 -5 5 -3 0 -5 -2 -5
-5z"/>
<path d="M290 785 c0 -3 2 -5 5 -5 3 0 5 2 5 5 0 3 -2 5 -5 5 -3 0 -5 -2 -5
-5z"/>
<path d="M430 785 c0 -3 2 -5 5 -5 3 0 5 2 5 5 0 3 -2 5 -5 5 -3 0 -5 -2 -5
-5z"/>
<path d="M165 770 c3 -5 8 -10 11 -10 3 0 2 5 -1 10 -3 6 -8 10 -11 10 -3 0
-2 -4 1 -10z"/>
<path d="M485 770 c3 -5 8 -10 11 -10 3 0 2 5 -1 10 -3 6 -8 10 -11 10 -3 0
-2 -4 1 -10z"/>
<path d="M604 768 c-4 -7 -3 -8 4 -4 12 7 16 16 8 16 -3 0 -8 -5 -12 -12z"/>
<path d="M815 760 c10 -11 20 -20 23 -20 3 0 -3 9 -13 20 -10 11 -20 20 -23
20 -3 0 3 -9 13 -20z"/>
<path d="M280 765 c0 -3 2 -5 5 -5 3 0 5 2 5 5 0 3 -2 5 -5 5 -3 0 -5 -2 -5
-5z"/>
<path d="M930 765 c0 -3 2 -5 5 -5 3 0 5 2 5 5 0 3 -2 5 -5 5 -3 0 -5 -2 -5
-5z"/>
<path d="M190 745 c0 -3 2 -5 5 -5 3 0 5 2 5 5 0 3 -2 5 -5 5 -3 0 -5 -2 -5
-5z"/>
<path d="M300 745 c0 -3 2 -5 5 -5 3 0 5 2 5 5 0 3 -2 5 -5 5 -3 0 -5 -2 -5
-5z"/>
<path d="M515 740 c3 -5 8 -10 11 -10 3 0 2 5 -1 10 -3 6 -8 10 -11 10 -3 0
-2 -4 1 -10z"/>
<path d="M920 745 c0 -3 2 -5 5 -5 3 0 5 2 5 5 0 3 -2 5 -5 5 -3 0 -5 -2 -5
-5z"/>
<path d="M370 735 c0 -3 2 -5 5 -5 3 0 5 2 5 5 0 3 -2 5 -5 5 -3 0 -5 -2 -5
-5z"/>
<path d="M613 733 c-17 -6 -17 -20 0 -20 8 0 14 6 14 14 0 7 -1 13 -1 12 -1 0
-7 -3 -13 -6z"/>
<path d="M690 735 c0 -3 2 -5 5 -5 3 0 5 2 5 5 0 3 -2 5 -5 5 -3 0 -5 -2 -5
-5z"/>
<path d="M90 720 c0 -7 3 -10 7 -7 3 4 3 10 0 14 -4 3 -7 0 -7 -7z"/>
<path d="M210 725 c0 -3 2 -5 5 -5 3 0 5 2 5 5 0 3 -2 5 -5 5 -3 0 -5 -2 -5
-5z"/>
<path d="M280 720 c0 -7 3 -10 7 -7 3 4 3 10 0 14 -4 3 -7 0 -7 -7z"/>
<path d="M399 713 c-13 -16 -12 -17 4 -4 9 7 17 15 17 17 0 8 -8 3 -21 -13z"/>
<path d="M920 720 c0 -7 3 -10 7 -7 3 4 3 10 0 14 -4 3 -7 0 -7 -7z"/>
<path d="M725 711 c-3 -5 -2 -12 3 -15 5 -3 9 1 9 9 0 17 -3 19 -12 6z"/>
<path d="M40 705 c0 -3 2 -5 5 -5 3 0 5 2 5 5 0 3 -2 5 -5 5 -3 0 -5 -2 -5 -5z"/>
<path d="M254 698 c-4 -7 -3 -8 4 -4 12 7 16 16 8 16 -3 0 -8 -5 -12 -12z"/>
<path d="M360 705 c0 -3 2 -5 5 -5 3 0 5 2 5 5 0 3 -2 5 -5 5 -3 0 -5 -2 -5
-5z"/>
<path d="M680 705 c0 -3 2 -5 5 -5 3 0 5 2 5 5 0 3 -2 5 -5 5 -3 0 -5 -2 -5
-5z"/>
<path d="M894 698 c-4 -7 -3 -8 4 -4 12 7 16 16 8 16 -3 0 -8 -5 -12 -12z"/>
<path d="M90 695 c0 -3 2 -5 5 -5 3 0 5 2 5 5 0 3 -2 5 -5 5 -3 0 -5 -2 -5 -5z"/>
<path d="M190 695 c0 -3 2 -5 5 -5 3 0 5 2 5 5 0 3 -2 5 -5 5 -3 0 -5 -2 -5
-5z"/>
<path d="M410 695 c0 -3 2 -5 5 -5 3 0 5 2 5 5 0 3 -2 5 -5 5 -3 0 -5 -2 -5
-5z"/>
<path d="M480 695 c0 -3 2 -5 5 -5 3 0 5 2 5 5 0 3 -2 5 -5 5 -3 0 -5 -2 -5
-5z"/>
<path d="M570 695 c0 -3 2 -5 5 -5 3 0 5 2 5 5 0 3 -2 5 -5 5 -3 0 -5 -2 -5
-5z"/>
<path d="M770 685 c0 -3 2 -5 5 -5 3 0 5 2 5 5 0 3 -2 5 -5 5 -3 0 -5 -2 -5
-5z"/>
<path d="M800 685 c0 -3 2 -5 5 -5 3 0 5 2 5 5 0 3 -2 5 -5 5 -3 0 -5 -2 -5
-5z"/>
<path d="M240 675 c0 -3 2 -5 5 -5 3 0 5 2 5 5 0 3 -2 5 -5 5 -3 0 -5 -2 -5
-5z"/>
<path d="M710 675 c0 -3 2 -5 5 -5 3 0 5 2 5 5 0 3 -2 5 -5 5 -3 0 -5 -2 -5
-5z"/>
<path d="M880 675 c0 -3 2 -5 5 -5 3 0 5 2 5 5 0 3 -2 5 -5 5 -3 0 -5 -2 -5
-5z"/>
<path d="M513 663 c4 -3 10 -3 14 0 3 4 0 7 -7 7 -7 0 -10 -3 -7 -7z"/>
<path d="M820 665 c0 -3 2 -5 5 -5 3 0 5 2 5 5 0 3 -2 5 -5 5 -3 0 -5 -2 -5
-5z"/>
<path d="M850 665 c0 -3 2 -5 5 -5 3 0 5 2 5 5 0 3 -2 5 -5 5 -3 0 -5 -2 -5
-5z"/>
<path d="M234 648 c-4 -7 -3 -8 4 -4 12 7 16 16 8 16 -3 0 -8 -5 -12 -12z"/>
<path d="M550 649 c0 -5 5 -7 10 -4 6 3 10 8 10 11 0 2 -4 4 -10 4 -5 0 -10
-5 -10 -11z"/>
<path d="M620 655 c0 -3 2 -5 5 -5 3 0 5 2 5 5 0 3 -2 5 -5 5 -3 0 -5 -2 -5
-5z"/>
<path d="M874 648 c-4 -7 -3 -8 4 -4 7 4 12 9 12 12 0 8 -9 4 -16 -8z"/>
<path d="M600 645 c0 -3 2 -5 5 -5 3 0 5 2 5 5 0 3 -2 5 -5 5 -3 0 -5 -2 -5
-5z"/>
<path d="M923 643 c4 -3 10 -3 14 0 3 4 0 7 -7 7 -7 0 -10 -3 -7 -7z"/>
<path d="M221 594 c0 -11 3 -14 6 -6 3 7 2 16 -1 19 -3 4 -6 -2 -5 -13z"/>
<path d="M540 605 c0 -3 2 -5 5 -5 3 0 5 2 5 5 0 3 -2 5 -5 5 -3 0 -5 -2 -5
-5z"/>
<path d="M861 594 c0 -11 3 -14 6 -6 3 7 2 16 -1 19 -3 4 -6 -2 -5 -13z"/>
<path d="M242 555 c-11 -12 -10 -15 3 -15 8 0 15 7 15 15 0 18 -2 18 -18 0z"/>
<path d="M280 565 c0 -3 2 -5 5 -5 3 0 5 2 5 5 0 3 -2 5 -5 5 -3 0 -5 -2 -5
-5z"/>
<path d="M560 565 c0 -3 2 -5 5 -5 3 0 5 2 5 5 0 3 -2 5 -5 5 -3 0 -5 -2 -5
-5z"/>
<path d="M874 548 c-4 -7 -3 -8 4 -4 7 4 12 9 12 12 0 8 -9 4 -16 -8z"/>
<path d="M550 539 c0 -5 5 -7 10 -4 6 3 10 8 10 11 0 2 -4 4 -10 4 -5 0 -10
-5 -10 -11z"/>
<path d="M180 535 c0 -3 2 -5 5 -5 3 0 5 2 5 5 0 3 -2 5 -5 5 -3 0 -5 -2 -5
-5z"/>
<path d="M90 525 c0 -3 2 -5 5 -5 3 0 5 2 5 5 0 3 -2 5 -5 5 -3 0 -5 -2 -5 -5z"/>
<path d="M246 497 c3 -10 9 -15 12 -12 3 3 0 11 -7 18 -10 9 -11 8 -5 -6z"/>
<path d="M465 500 c-3 -5 -1 -10 4 -10 6 0 11 5 11 10 0 6 -2 10 -4 10 -3 0
-8 -4 -11 -10z"/>
<path d="M566 497 c3 -10 9 -15 12 -12 3 3 0 11 -7 18 -10 9 -11 8 -5 -6z"/>
<path d="M790 505 c0 -3 2 -5 5 -5 3 0 5 2 5 5 0 3 -2 5 -5 5 -3 0 -5 -2 -5
-5z"/>
<path d="M134 488 c-4 -7 -3 -8 4 -4 12 7 16 16 8 16 -3 0 -8 -5 -12 -12z"/>
<path d="M890 490 c0 -7 3 -10 7 -7 3 4 3 10 0 14 -4 3 -7 0 -7 -7z"/>
<path d="M430 485 c0 -3 2 -5 5 -5 3 0 5 2 5 5 0 3 -2 5 -5 5 -3 0 -5 -2 -5
-5z"/>
<path d="M770 485 c0 -3 2 -5 5 -5 3 0 5 2 5 5 0 3 -2 5 -5 5 -3 0 -5 -2 -5
-5z"/>
<path d="M264 468 c-4 -7 -3 -8 4 -4 12 7 16 16 8 16 -3 0 -8 -5 -12 -12z"/>
<path d="M584 468 c-4 -7 -3 -8 4 -4 7 4 12 9 12 12 0 8 -9 4 -16 -8z"/>
<path d="M110 465 c0 -3 2 -5 5 -5 3 0 5 2 5 5 0 3 -2 5 -5 5 -3 0 -5 -2 -5
-5z"/>
<path d="M180 465 c0 -3 2 -5 5 -5 3 0 5 2 5 5 0 3 -2 5 -5 5 -3 0 -5 -2 -5
-5z"/>
<path d="M430 465 c0 -3 2 -5 5 -5 3 0 5 2 5 5 0 3 -2 5 -5 5 -3 0 -5 -2 -5
-5z"/>
<path d="M165 450 c3 -5 8 -10 11 -10 3 0 2 5 -1 10 -3 6 -8 10 -11 10 -3 0
-2 -4 1 -10z"/>
<path d="M485 450 c3 -5 8 -10 11 -10 3 0 2 5 -1 10 -3 6 -8 10 -11 10 -3 0
-2 -4 1 -10z"/>
<path d="M604 448 c-4 -7 -3 -8 4 -4 12 7 16 16 8 16 -3 0 -8 -5 -12 -12z"/>
<path d="M815 440 c10 -11 20 -20 23 -20 3 0 -3 9 -13 20 -10 11 -20 20 -23
20 -3 0 3 -9 13 -20z"/>
<path d="M930 445 c0 -3 2 -5 5 -5 3 0 5 2 5 5 0 3 -2 5 -5 5 -3 0 -5 -2 -5
-5z"/>
<path d="M300 435 c0 -3 2 -5 5 -5 3 0 5 2 5 5 0 3 -2 5 -5 5 -3 0 -5 -2 -5
-5z"/>
<path d="M190 426 c0 -2 8 -10 18 -17 15 -13 16 -12 3 4 -13 16 -21 21 -21 13z"/>
<path d="M515 420 c3 -5 8 -10 11 -10 3 0 2 5 -1 10 -3 6 -8 10 -11 10 -3 0
-2 -4 1 -10z"/>
<path d="M920 425 c0 -3 2 -5 5 -5 3 0 5 2 5 5 0 3 -2 5 -5 5 -3 0 -5 -2 -5
-5z"/>
<path d="M50 415 c0 -3 2 -5 5 -5 3 0 5 2 5 5 0 3 -2 5 -5 5 -3 0 -5 -2 -5 -5z"/>
<path d="M370 415 c0 -3 2 -5 5 -5 3 0 5 2 5 5 0 3 -2 5 -5 5 -3 0 -5 -2 -5
-5z"/>
<path d="M613 413 c-17 -6 -17 -20 0 -20 8 0 14 6 14 14 0 7 -1 13 -1 12 -1 0
-7 -3 -13 -6z"/>
<path d="M690 415 c0 -3 2 -5 5 -5 3 0 5 2 5 5 0 3 -2 5 -5 5 -3 0 -5 -2 -5
-5z"/>
<path d="M84 398 c-4 -7 -3 -8 4 -4 12 7 16 16 8 16 -3 0 -8 -5 -12 -12z"/>
<path d="M280 400 c0 -7 3 -10 7 -7 3 4 3 10 0 14 -4 3 -7 0 -7 -7z"/>
<path d="M399 393 c-13 -16 -12 -17 4 -4 9 7 17 15 17 17 0 8 -8 3 -21 -13z"/>
<path d="M920 400 c0 -7 3 -10 7 -7 3 4 3 10 0 14 -4 3 -7 0 -7 -7z"/>
<path d="M120 395 c0 -3 2 -5 5 -5 3 0 5 2 5 5 0 3 -2 5 -5 5 -3 0 -5 -2 -5
-5z"/>
<path d="M725 391 c-3 -5 -2 -12 3 -15 5 -3 9 1 9 9 0 17 -3 19 -12 6z"/>
<path d="M33 383 c4 -3 10 -3 14 0 3 4 0 7 -7 7 -7 0 -10 -3 -7 -7z"/>
<path d="M255 380 c-3 -5 -1 -10 4 -10 6 0 11 5 11 10 0 6 -2 10 -4 10 -3 0
-8 -4 -11 -10z"/>
<path d="M360 385 c0 -3 2 -5 5 -5 3 0 5 2 5 5 0 3 -2 5 -5 5 -3 0 -5 -2 -5
-5z"/>
<path d="M680 385 c0 -3 2 -5 5 -5 3 0 5 2 5 5 0 3 -2 5 -5 5 -3 0 -5 -2 -5
-5z"/>
<path d="M900 385 c0 -3 2 -5 5 -5 3 0 5 2 5 5 0 3 -2 5 -5 5 -3 0 -5 -2 -5
-5z"/>
<path d="M90 375 c0 -3 2 -5 5 -5 3 0 5 2 5 5 0 3 -2 5 -5 5 -3 0 -5 -2 -5 -5z"/>
<path d="M410 375 c0 -3 2 -5 5 -5 3 0 5 2 5 5 0 3 -2 5 -5 5 -3 0 -5 -2 -5
-5z"/>
<path d="M480 375 c0 -3 2 -5 5 -5 3 0 5 2 5 5 0 3 -2 5 -5 5 -3 0 -5 -2 -5
-5z"/>
<path d="M570 375 c0 -3 2 -5 5 -5 3 0 5 2 5 5 0 3 -2 5 -5 5 -3 0 -5 -2 -5
-5z"/>
<path d="M130 365 c0 -3 2 -5 5 -5 3 0 5 2 5 5 0 3 -2 5 -5 5 -3 0 -5 -2 -5
-5z"/>
<path d="M770 365 c0 -3 2 -5 5 -5 3 0 5 2 5 5 0 3 -2 5 -5 5 -3 0 -5 -2 -5
-5z"/>
<path d="M800 365 c0 -3 2 -5 5 -5 3 0 5 2 5 5 0 3 -2 5 -5 5 -3 0 -5 -2 -5
-5z"/>
<path d="M240 355 c0 -3 2 -5 5 -5 3 0 5 2 5 5 0 3 -2 5 -5 5 -3 0 -5 -2 -5
-5z"/>
<path d="M710 355 c0 -3 2 -5 5 -5 3 0 5 2 5 5 0 3 -2 5 -5 5 -3 0 -5 -2 -5
-5z"/>
<path d="M880 355 c0 -3 2 -5 5 -5 3 0 5 2 5 5 0 3 -2 5 -5 5 -3 0 -5 -2 -5
-5z"/>
<path d="M180 345 c0 -3 2 -5 5 -5 3 0 5 2 5 5 0 3 -2 5 -5 5 -3 0 -5 -2 -5
-5z"/>
<path d="M210 345 c0 -3 2 -5 5 -5 3 0 5 2 5 5 0 3 -2 5 -5 5 -3 0 -5 -2 -5
-5z"/>
<path d="M513 343 c4 -3 10 -3 14 0 3 4 0 7 -7 7 -7 0 -10 -3 -7 -7z"/>
<path d="M820 345 c0 -3 2 -5 5 -5 3 0 5 2 5 5 0 3 -2 5 -5 5 -3 0 -5 -2 -5
-5z"/>
<path d="M850 345 c0 -3 2 -5 5 -5 3 0 5 2 5 5 0 3 -2 5 -5 5 -3 0 -5 -2 -5
-5z"/>
<path d="M550 329 c0 -5 5 -7 10 -4 6 3 10 8 10 11 0 2 -4 4 -10 4 -5 0 -10
-5 -10 -11z"/>
<path d="M620 335 c0 -3 2 -5 5 -5 3 0 5 2 5 5 0 3 -2 5 -5 5 -3 0 -5 -2 -5
-5z"/>
<path d="M230 325 c0 -3 2 -5 5 -5 3 0 5 2 5 5 0 3 -2 5 -5 5 -3 0 -5 -2 -5
-5z"/>
<path d="M600 325 c0 -3 2 -5 5 -5 3 0 5 2 5 5 0 3 -2 5 -5 5 -3 0 -5 -2 -5
-5z"/>
<path d="M870 325 c0 -3 2 -5 5 -5 3 0 5 2 5 5 0 3 -2 5 -5 5 -3 0 -5 -2 -5
-5z"/>
<path d="M923 323 c4 -3 10 -3 14 0 3 4 0 7 -7 7 -7 0 -10 -3 -7 -7z"/>
<path d="M220 285 c0 -3 2 -5 5 -5 3 0 5 2 5 5 0 3 -2 5 -5 5 -3 0 -5 -2 -5
-5z"/>
<path d="M541 274 c0 -11 3 -14 6 -6 3 7 2 16 -1 19 -3 4 -6 -2 -5 -13z"/>
<path d="M860 285 c0 -3 2 -5 5 -5 3 0 5 2 5 5 0 3 -2 5 -5 5 -3 0 -5 -2 -5
-5z"/>
<path d="M950 255 c0 -3 2 -5 5 -5 3 0 5 2 5 5 0 3 -2 5 -5 5 -3 0 -5 -2 -5
-5z"/>
<path d="M240 245 c0 -3 2 -5 5 -5 3 0 5 2 5 5 0 3 -2 5 -5 5 -3 0 -5 -2 -5
-5z"/>
<path d="M554 228 c-4 -7 -3 -8 4 -4 12 7 16 16 8 16 -3 0 -8 -5 -12 -12z"/>
<path d="M230 219 c0 -5 5 -7 10 -4 6 3 10 8 10 11 0 2 -4 4 -10 4 -5 0 -10
-5 -10 -11z"/>
<path d="M850 225 c0 -3 2 -5 5 -5 3 0 5 2 5 5 0 3 -2 5 -5 5 -3 0 -5 -2 -5
-5z"/>
<path d="M870 220 c0 -5 7 -7 15 -4 8 4 15 8 15 10 0 2 -7 4 -15 4 -8 0 -15
-4 -15 -10z"/>
<path d="M730 205 c0 -3 2 -5 5 -5 3 0 5 2 5 5 0 3 -2 5 -5 5 -3 0 -5 -2 -5
-5z"/>
<path d="M100 195 c0 -3 2 -5 5 -5 3 0 5 2 5 5 0 3 -2 5 -5 5 -3 0 -5 -2 -5
-5z"/>
<path d="M139 173 c-13 -16 -12 -17 4 -4 9 7 17 15 17 17 0 8 -8 3 -21 -13z"/>
<path d="M246 177 c3 -10 9 -15 12 -12 3 3 0 11 -7 18 -10 9 -11 8 -5 -6z"/>
<path d="M470 185 c0 -3 2 -5 5 -5 3 0 5 2 5 5 0 3 -2 5 -5 5 -3 0 -5 -2 -5
-5z"/>
<path d="M785 180 c-3 -5 -1 -10 4 -10 6 0 11 5 11 10 0 6 -2 10 -4 10 -3 0
-8 -4 -11 -10z"/>
<path d="M886 177 c3 -10 9 -15 12 -12 3 3 0 11 -7 18 -10 9 -11 8 -5 -6z"/>
<path d="M570 170 c0 -7 3 -10 7 -7 3 4 3 10 0 14 -4 3 -7 0 -7 -7z"/>
<path d="M110 165 c0 -3 2 -5 5 -5 3 0 5 2 5 5 0 3 -2 5 -5 5 -3 0 -5 -2 -5
-5z"/>
<path d="M450 165 c0 -3 2 -5 5 -5 3 0 5 2 5 5 0 3 -2 5 -5 5 -3 0 -5 -2 -5
-5z"/>
<path d="M750 165 c0 -3 2 -5 5 -5 3 0 5 2 5 5 0 3 -2 5 -5 5 -3 0 -5 -2 -5
-5z"/>
<path d="M264 148 c-4 -7 -3 -8 4 -4 7 4 12 9 12 12 0 8 -9 4 -16 -8z"/>
<path d="M904 148 c-4 -7 -3 -8 4 -4 7 4 12 9 12 12 0 8 -9 4 -16 -8z"/>
<path d="M110 145 c0 -3 2 -5 5 -5 3 0 5 2 5 5 0 3 -2 5 -5 5 -3 0 -5 -2 -5
-5z"/>
<path d="M750 145 c0 -3 2 -5 5 -5 3 0 5 2 5 5 0 3 -2 5 -5 5 -3 0 -5 -2 -5
-5z"/>
<path d="M165 130 c3 -5 8 -10 11 -10 3 0 2 5 -1 10 -3 6 -8 10 -11 10 -3 0
-2 -4 1 -10z"/>
<path d="M284 128 c-4 -7 -3 -8 4 -4 12 7 16 16 8 16 -3 0 -8 -5 -12 -12z"/>
<path d="M495 120 c10 -11 20 -20 23 -20 3 0 -3 9 -13 20 -10 11 -20 20 -23
20 -3 0 3 -9 13 -20z"/>
<path d="M805 130 c3 -5 8 -10 11 -10 3 0 2 5 -1 10 -3 6 -8 10 -11 10 -3 0
-2 -4 1 -10z"/>
<path d="M924 128 c-4 -7 -3 -8 4 -4 7 4 12 9 12 12 0 8 -9 4 -16 -8z"/>
<path d="M610 125 c0 -3 2 -5 5 -5 3 0 5 2 5 5 0 3 -2 5 -5 5 -3 0 -5 -2 -5
-5z"/>
<path d="M195 100 c3 -5 8 -10 11 -10 3 0 2 5 -1 10 -3 6 -8 10 -11 10 -3 0
-2 -4 1 -10z"/>
<path d="M600 105 c0 -3 2 -5 5 -5 3 0 5 2 5 5 0 3 -2 5 -5 5 -3 0 -5 -2 -5
-5z"/>
<path d="M835 100 c3 -5 8 -10 11 -10 3 0 2 5 -1 10 -3 6 -8 10 -11 10 -3 0
-2 -4 1 -10z"/>
<path d="M50 95 c0 -3 2 -5 5 -5 3 0 5 2 5 5 0 3 -2 5 -5 5 -3 0 -5 -2 -5 -5z"/>
<path d="M293 93 c-17 -6 -17 -20 0 -20 8 0 14 6 14 14 0 7 -1 13 -1 12 -1 0
-7 -3 -13 -6z"/>
<path d="M370 95 c0 -3 2 -5 5 -5 3 0 5 2 5 5 0 3 -2 5 -5 5 -3 0 -5 -2 -5 -5z"/>
<path d="M690 95 c0 -3 2 -5 5 -5 3 0 5 2 5 5 0 3 -2 5 -5 5 -3 0 -5 -2 -5 -5z"/>
<path d="M933 93 c-17 -6 -17 -20 0 -20 8 0 14 6 14 14 0 7 -1 13 -1 12 -1 0
-7 -3 -13 -6z"/>
<path d="M79 73 c-13 -16 -12 -17 4 -4 9 7 17 15 17 17 0 8 -8 3 -21 -13z"/>
<path d="M600 80 c0 -7 3 -10 7 -7 3 4 3 10 0 14 -4 3 -7 0 -7 -7z"/>
<path d="M719 73 c-13 -16 -12 -17 4 -4 9 7 17 15 17 17 0 8 -8 3 -21 -13z"/>
<path d="M405 71 c-3 -5 -2 -12 3 -15 5 -3 9 1 9 9 0 17 -3 19 -12 6z"/>
<path d="M40 65 c0 -3 2 -5 5 -5 3 0 5 2 5 5 0 3 -2 5 -5 5 -3 0 -5 -2 -5 -5z"/>
<path d="M360 65 c0 -3 2 -5 5 -5 3 0 5 2 5 5 0 3 -2 5 -5 5 -3 0 -5 -2 -5 -5z"/>
<path d="M580 65 c0 -3 2 -5 5 -5 3 0 5 2 5 5 0 3 -2 5 -5 5 -3 0 -5 -2 -5 -5z"/>
<path d="M680 65 c0 -3 2 -5 5 -5 3 0 5 2 5 5 0 3 -2 5 -5 5 -3 0 -5 -2 -5 -5z"/>
<path d="M90 55 c0 -3 2 -5 5 -5 3 0 5 2 5 5 0 3 -2 5 -5 5 -3 0 -5 -2 -5 -5z"/>
<path d="M160 55 c0 -3 2 -5 5 -5 3 0 5 2 5 5 0 3 -2 5 -5 5 -3 0 -5 -2 -5 -5z"/>
<path d="M250 55 c0 -3 2 -5 5 -5 3 0 5 2 5 5 0 3 -2 5 -5 5 -3 0 -5 -2 -5 -5z"/>
<path d="M730 55 c0 -3 2 -5 5 -5 3 0 5 2 5 5 0 3 -2 5 -5 5 -3 0 -5 -2 -5 -5z"/>
<path d="M800 55 c0 -3 2 -5 5 -5 3 0 5 2 5 5 0 3 -2 5 -5 5 -3 0 -5 -2 -5 -5z"/>
<path d="M890 55 c0 -3 2 -5 5 -5 3 0 5 2 5 5 0 3 -2 5 -5 5 -3 0 -5 -2 -5 -5z"/>
<path d="M450 45 c0 -3 2 -5 5 -5 3 0 5 2 5 5 0 3 -2 5 -5 5 -3 0 -5 -2 -5 -5z"/>
<path d="M480 45 c0 -3 2 -5 5 -5 3 0 5 2 5 5 0 3 -2 5 -5 5 -3 0 -5 -2 -5 -5z"/>
<path d="M390 35 c0 -3 2 -5 5 -5 3 0 5 2 5 5 0 3 -2 5 -5 5 -3 0 -5 -2 -5 -5z"/>
<path d="M560 35 c0 -3 2 -5 5 -5 3 0 5 2 5 5 0 3 -2 5 -5 5 -3 0 -5 -2 -5 -5z"/>
<path d="M193 23 c4 -3 10 -3 14 0 3 4 0 7 -7 7 -7 0 -10 -3 -7 -7z"/>
<path d="M500 25 c0 -3 2 -5 5 -5 3 0 5 2 5 5 0 3 -2 5 -5 5 -3 0 -5 -2 -5 -5z"/>
<path d="M530 25 c0 -3 2 -5 5 -5 3 0 5 2 5 5 0 3 -2 5 -5 5 -3 0 -5 -2 -5 -5z"/>
<path d="M833 23 c4 -3 10 -3 14 0 3 4 0 7 -7 7 -7 0 -10 -3 -7 -7z"/>
<path d="M230 9 c0 -5 5 -7 10 -4 6 3 10 8 10 11 0 2 -4 4 -10 4 -5 0 -10 -5
-10 -11z"/>
<path d="M300 15 c0 -3 2 -5 5 -5 3 0 5 2 5 5 0 3 -2 5 -5 5 -3 0 -5 -2 -5 -5z"/>
<path d="M870 9 c0 -5 5 -7 10 -4 6 3 10 8 10 11 0 2 -4 4 -10 4 -5 0 -10 -5
-10 -11z"/>
<path d="M940 15 c0 -3 2 -5 5 -5 3 0 5 2 5 5 0 3 -2 5 -5 5 -3 0 -5 -2 -5 -5z"/>
<path d="M280 5 c0 -3 2 -5 5 -5 3 0 5 2 5 5 0 3 -2 5 -5 5 -3 0 -5 -2 -5 -5z"/>
<path d="M550 5 c0 -3 2 -5 5 -5 3 0 5 2 5 5 0 3 -2 5 -5 5 -3 0 -5 -2 -5 -5z"/>
<path d="M603 3 c4 -3 10 -3 14 0 3 4 0 7 -7 7 -7 0 -10 -3 -7 -7z"/>
<path d="M920 5 c0 -3 2 -5 5 -5 3 0 5 2 5 5 0 3 -2 5 -5 5 -3 0 -5 -2 -5 -5z"/>
</g>
<g transform="translate(0.000000,96.000000) scale(0.100000,-0.100000)"
fill="#493b24" stroke="none">
<path d="M270 885 c0 -3 2 -5 5 -5 3 0 5 2 5 5 0 3 -2 5 -5 5 -3 0 -5 -2 -5
-5z"/>
<path d="M240 875 c0 -3 2 -5 5 -5 3 0 5 2 5 5 0 3 -2 5 -5 5 -3 0 -5 -2 -5
-5z"/>
<path d="M874 868 c-4 -7 -3 -8 4 -4 7 4 12 9 12 12 0 8 -9 4 -16 -8z"/>
<path d="M530 865 c0 -3 2 -5 5 -5 3 0 5 2 5 5 0 3 -2 5 -5 5 -3 0 -5 -2 -5
-5z"/>
<path d="M550 865 c0 -3 2 -5 5 -5 3 0 5 2 5 5 0 3 -2 5 -5 5 -3 0 -5 -2 -5
-5z"/>
<path d="M170 845 c0 -3 2 -5 5 -5 3 0 5 2 5 5 0 3 -2 5 -5 5 -3 0 -5 -2 -5
-5z"/>
<path d="M130 805 c0 -3 2 -5 5 -5 3 0 5 2 5 5 0 3 -2 5 -5 5 -3 0 -5 -2 -5
-5z"/>
<path d="M770 805 c0 -3 2 -5 5 -5 3 0 5 2 5 5 0 3 -2 5 -5 5 -3 0 -5 -2 -5
-5z"/>
<path d="M430 785 c0 -3 2 -5 5 -5 3 0 5 2 5 5 0 3 -2 5 -5 5 -3 0 -5 -2 -5
-5z"/>
<path d="M280 720 c0 -7 3 -10 7 -7 3 4 3 10 0 14 -4 3 -7 0 -7 -7z"/>
<path d="M600 720 c0 -7 3 -10 7 -7 3 4 3 10 0 14 -4 3 -7 0 -7 -7z"/>
<path d="M920 720 c0 -7 3 -10 7 -7 3 4 3 10 0 14 -4 3 -7 0 -7 -7z"/>
<path d="M400 715 c0 -3 2 -5 5 -5 3 0 5 2 5 5 0 3 -2 5 -5 5 -3 0 -5 -2 -5
-5z"/>
<path d="M620 715 c0 -3 2 -5 5 -5 3 0 5 2 5 5 0 3 -2 5 -5 5 -3 0 -5 -2 -5
-5z"/>
<path d="M725 700 c3 -5 8 -10 11 -10 3 0 2 5 -1 10 -3 6 -8 10 -11 10 -3 0
-2 -4 1 -10z"/>
<path d="M90 695 c0 -3 2 -5 5 -5 3 0 5 2 5 5 0 3 -2 5 -5 5 -3 0 -5 -2 -5 -5z"/>
<path d="M410 695 c0 -3 2 -5 5 -5 3 0 5 2 5 5 0 3 -2 5 -5 5 -3 0 -5 -2 -5
-5z"/>
<path d="M240 675 c0 -3 2 -5 5 -5 3 0 5 2 5 5 0 3 -2 5 -5 5 -3 0 -5 -2 -5
-5z"/>
<path d="M710 675 c0 -3 2 -5 5 -5 3 0 5 2 5 5 0 3 -2 5 -5 5 -3 0 -5 -2 -5
-5z"/>
<path d="M880 675 c0 -3 2 -5 5 -5 3 0 5 2 5 5 0 3 -2 5 -5 5 -3 0 -5 -2 -5
-5z"/>
<path d="M234 648 c-4 -7 -3 -8 4 -4 12 7 16 16 8 16 -3 0 -8 -5 -12 -12z"/>
<path d="M554 648 c-4 -7 -3 -8 4 -4 12 7 16 16 8 16 -3 0 -8 -5 -12 -12z"/>
<path d="M620 655 c0 -3 2 -5 5 -5 3 0 5 2 5 5 0 3 -2 5 -5 5 -3 0 -5 -2 -5
-5z"/>
<path d="M874 648 c-4 -7 -3 -8 4 -4 7 4 12 9 12 12 0 8 -9 4 -16 -8z"/>
<path d="M280 565 c0 -3 2 -5 5 -5 3 0 5 2 5 5 0 3 -2 5 -5 5 -3 0 -5 -2 -5
-5z"/>
<path d="M250 555 c0 -3 2 -5 5 -5 3 0 5 2 5 5 0 3 -2 5 -5 5 -3 0 -5 -2 -5
-5z"/>
<path d="M874 548 c-4 -7 -3 -8 4 -4 7 4 12 9 12 12 0 8 -9 4 -16 -8z"/>
<path d="M230 545 c0 -3 2 -5 5 -5 3 0 5 2 5 5 0 3 -2 5 -5 5 -3 0 -5 -2 -5
-5z"/>
<path d="M550 545 c0 -3 2 -5 5 -5 3 0 5 2 5 5 0 3 -2 5 -5 5 -3 0 -5 -2 -5
-5z"/>
<path d="M130 485 c0 -3 2 -5 5 -5 3 0 5 2 5 5 0 3 -2 5 -5 5 -3 0 -5 -2 -5
-5z"/>
<path d="M770 485 c0 -3 2 -5 5 -5 3 0 5 2 5 5 0 3 -2 5 -5 5 -3 0 -5 -2 -5
-5z"/>
<path d="M110 465 c0 -3 2 -5 5 -5 3 0 5 2 5 5 0 3 -2 5 -5 5 -3 0 -5 -2 -5
-5z"/>
<path d="M430 465 c0 -3 2 -5 5 -5 3 0 5 2 5 5 0 3 -2 5 -5 5 -3 0 -5 -2 -5
-5z"/>
<path d="M280 400 c0 -7 3 -10 7 -7 3 4 3 10 0 14 -4 3 -7 0 -7 -7z"/>
<path d="M600 400 c0 -7 3 -10 7 -7 3 4 3 10 0 14 -4 3 -7 0 -7 -7z"/>
<path d="M920 400 c0 -7 3 -10 7 -7 3 4 3 10 0 14 -4 3 -7 0 -7 -7z"/>
<path d="M80 395 c0 -3 2 -5 5 -5 3 0 5 2 5 5 0 3 -2 5 -5 5 -3 0 -5 -2 -5 -5z"/>
<path d="M400 395 c0 -3 2 -5 5 -5 3 0 5 2 5 5 0 3 -2 5 -5 5 -3 0 -5 -2 -5
-5z"/>
<path d="M620 395 c0 -3 2 -5 5 -5 3 0 5 2 5 5 0 3 -2 5 -5 5 -3 0 -5 -2 -5
-5z"/>
<path d="M725 380 c3 -5 8 -10 11 -10 3 0 2 5 -1 10 -3 6 -8 10 -11 10 -3 0
-2 -4 1 -10z"/>
<path d="M90 375 c0 -3 2 -5 5 -5 3 0 5 2 5 5 0 3 -2 5 -5 5 -3 0 -5 -2 -5 -5z"/>
<path d="M260 375 c0 -3 2 -5 5 -5 3 0 5 2 5 5 0 3 -2 5 -5 5 -3 0 -5 -2 -5
-5z"/>
<path d="M410 375 c0 -3 2 -5 5 -5 3 0 5 2 5 5 0 3 -2 5 -5 5 -3 0 -5 -2 -5
-5z"/>
<path d="M240 355 c0 -3 2 -5 5 -5 3 0 5 2 5 5 0 3 -2 5 -5 5 -3 0 -5 -2 -5
-5z"/>
<path d="M710 355 c0 -3 2 -5 5 -5 3 0 5 2 5 5 0 3 -2 5 -5 5 -3 0 -5 -2 -5
-5z"/>
<path d="M880 355 c0 -3 2 -5 5 -5 3 0 5 2 5 5 0 3 -2 5 -5 5 -3 0 -5 -2 -5
-5z"/>
<path d="M554 328 c-4 -7 -3 -8 4 -4 12 7 16 16 8 16 -3 0 -8 -5 -12 -12z"/>
<path d="M620 335 c0 -3 2 -5 5 -5 3 0 5 2 5 5 0 3 -2 5 -5 5 -3 0 -5 -2 -5
-5z"/>
<path d="M230 325 c0 -3 2 -5 5 -5 3 0 5 2 5 5 0 3 -2 5 -5 5 -3 0 -5 -2 -5
-5z"/>
<path d="M870 325 c0 -3 2 -5 5 -5 3 0 5 2 5 5 0 3 -2 5 -5 5 -3 0 -5 -2 -5
-5z"/>
<path d="M554 228 c-4 -7 -3 -8 4 -4 12 7 16 16 8 16 -3 0 -8 -5 -12 -12z"/>
<path d="M230 225 c0 -3 2 -5 5 -5 3 0 5 2 5 5 0 3 -2 5 -5 5 -3 0 -5 -2 -5
-5z"/>
<path d="M850 225 c0 -3 2 -5 5 -5 3 0 5 2 5 5 0 3 -2 5 -5 5 -3 0 -5 -2 -5
-5z"/>
<path d="M870 225 c0 -3 2 -5 5 -5 3 0 5 2 5 5 0 3 -2 5 -5 5 -3 0 -5 -2 -5
-5z"/>
<path d="M130 165 c0 -3 2 -5 5 -5 3 0 5 2 5 5 0 3 -2 5 -5 5 -3 0 -5 -2 -5
-5z"/>
<path d="M450 165 c0 -3 2 -5 5 -5 3 0 5 2 5 5 0 3 -2 5 -5 5 -3 0 -5 -2 -5
-5z"/>
<path d="M110 145 c0 -3 2 -5 5 -5 3 0 5 2 5 5 0 3 -2 5 -5 5 -3 0 -5 -2 -5
-5z"/>
<path d="M750 145 c0 -3 2 -5 5 -5 3 0 5 2 5 5 0 3 -2 5 -5 5 -3 0 -5 -2 -5
-5z"/>
<path d="M280 80 c0 -7 3 -10 7 -7 3 4 3 10 0 14 -4 3 -7 0 -7 -7z"/>
<path d="M600 80 c0 -7 3 -10 7 -7 3 4 3 10 0 14 -4 3 -7 0 -7 -7z"/>
<path d="M920 80 c0 -7 3 -10 7 -7 3 4 3 10 0 14 -4 3 -7 0 -7 -7z"/>
<path d="M80 75 c0 -3 2 -5 5 -5 3 0 5 2 5 5 0 3 -2 5 -5 5 -3 0 -5 -2 -5 -5z"/>
<path d="M300 75 c0 -3 2 -5 5 -5 3 0 5 2 5 5 0 3 -2 5 -5 5 -3 0 -5 -2 -5 -5z"/>
<path d="M720 75 c0 -3 2 -5 5 -5 3 0 5 2 5 5 0 3 -2 5 -5 5 -3 0 -5 -2 -5 -5z"/>
<path d="M940 75 c0 -3 2 -5 5 -5 3 0 5 2 5 5 0 3 -2 5 -5 5 -3 0 -5 -2 -5 -5z"/>
<path d="M405 60 c3 -5 8 -10 11 -10 3 0 2 5 -1 10 -3 6 -8 10 -11 10 -3 0 -2
-4 1 -10z"/>
<path d="M90 55 c0 -3 2 -5 5 -5 3 0 5 2 5 5 0 3 -2 5 -5 5 -3 0 -5 -2 -5 -5z"/>
<path d="M730 55 c0 -3 2 -5 5 -5 3 0 5 2 5 5 0 3 -2 5 -5 5 -3 0 -5 -2 -5 -5z"/>
<path d="M390 35 c0 -3 2 -5 5 -5 3 0 5 2 5 5 0 3 -2 5 -5 5 -3 0 -5 -2 -5 -5z"/>
<path d="M560 35 c0 -3 2 -5 5 -5 3 0 5 2 5 5 0 3 -2 5 -5 5 -3 0 -5 -2 -5 -5z"/>
<path d="M234 8 c-4 -7 -3 -8 4 -4 7 4 12 9 12 12 0 8 -9 4 -16 -8z"/>
<path d="M300 15 c0 -3 2 -5 5 -5 3 0 5 2 5 5 0 3 -2 5 -5 5 -3 0 -5 -2 -5 -5z"/>
<path d="M874 8 c-4 -7 -3 -8 4 -4 12 7 16 16 8 16 -3 0 -8 -5 -12 -12z"/>
<path d="M940 15 c0 -3 2 -5 5 -5 3 0 5 2 5 5 0 3 -2 5 -5 5 -3 0 -5 -2 -5 -5z"/>
<path d="M550 5 c0 -3 2 -5 5 -5 3 0 5 2 5 5 0 3 -2 5 -5 5 -3 0 -5 -2 -5 -5z"/>
</g>
<g transform="translate(0.000000,96.000000) scale(0.100000,-0.100000)"
fill="#3f321f" stroke="none">
<path d="M920 720 c0 -7 3 -10 7 -7 3 4 3 10 0 14 -4 3 -7 0 -7 -7z"/>
<path d="M600 715 c0 -3 2 -5 5 -5 3 0 5 2 5 5 0 3 -2 5 -5 5 -3 0 -5 -2 -5
-5z"/>
<path d="M410 695 c0 -3 2 -5 5 -5 3 0 5 2 5 5 0 3 -2 5 -5 5 -3 0 -5 -2 -5
-5z"/>
<path d="M730 695 c0 -3 2 -5 5 -5 3 0 5 2 5 5 0 3 -2 5 -5 5 -3 0 -5 -2 -5
-5z"/>
<path d="M130 485 c0 -3 2 -5 5 -5 3 0 5 2 5 5 0 3 -2 5 -5 5 -3 0 -5 -2 -5
-5z"/>
<path d="M280 395 c0 -3 2 -5 5 -5 3 0 5 2 5 5 0 3 -2 5 -5 5 -3 0 -5 -2 -5
-5z"/>
<path d="M600 395 c0 -3 2 -5 5 -5 3 0 5 2 5 5 0 3 -2 5 -5 5 -3 0 -5 -2 -5
-5z"/>
<path d="M920 395 c0 -3 2 -5 5 -5 3 0 5 2 5 5 0 3 -2 5 -5 5 -3 0 -5 -2 -5
-5z"/>
<path d="M410 375 c0 -3 2 -5 5 -5 3 0 5 2 5 5 0 3 -2 5 -5 5 -3 0 -5 -2 -5
-5z"/>
<path d="M730 375 c0 -3 2 -5 5 -5 3 0 5 2 5 5 0 3 -2 5 -5 5 -3 0 -5 -2 -5
-5z"/>
<path d="M280 75 c0 -3 2 -5 5 -5 3 0 5 2 5 5 0 3 -2 5 -5 5 -3 0 -5 -2 -5 -5z"/>
<path d="M600 75 c0 -3 2 -5 5 -5 3 0 5 2 5 5 0 3 -2 5 -5 5 -3 0 -5 -2 -5 -5z"/>
<path d="M920 75 c0 -3 2 -5 5 -5 3 0 5 2 5 5 0 3 -2 5 -5 5 -3 0 -5 -2 -5 -5z"/>
<path d="M90 55 c0 -3 2 -5 5 -5 3 0 5 2 5 5 0 3 -2 5 -5 5 -3 0 -5 -2 -5 -5z"/>
<path d="M410 55 c0 -3 2 -5 5 -5 3 0 5 2 5 5 0 3 -2 5 -5 5 -3 0 -5 -2 -5 -5z"/>
<path d="M730 55 c0 -3 2 -5 5 -5 3 0 5 2 5 5 0 3 -2 5 -5 5 -3 0 -5 -2 -5 -5z"/>
</g>
  </g>
</svg>
