<?xml version="1.0" encoding="UTF-8" standalone="no"?>
<!-- Created with Inkscape (http://www.inkscape.org/) -->

<svg
   xmlns:dc="http://purl.org/dc/elements/1.1/"
   xmlns:cc="http://creativecommons.org/ns#"
   xmlns:rdf="http://www.w3.org/1999/02/22-rdf-syntax-ns#"
   xmlns:svg="http://www.w3.org/2000/svg"
   xmlns="http://www.w3.org/2000/svg"
   xmlns:sodipodi="http://sodipodi.sourceforge.net/DTD/sodipodi-0.dtd"
   xmlns:inkscape="http://www.inkscape.org/namespaces/inkscape"
   width="32px"
   height="32px"
   viewBox="0 0 32px 32px"
   version="1.1"
   id="svgMain"
   inkscape:version="0.92.2 (5c3e80d, 2017-08-06)"
   sodipodi:docname="reference_SVG.svg">
  <defs
     id="defs4542" />
  <sodipodi:namedview
     id="base"
     pagecolor="#ffffff"
     bordercolor="#666666"
     borderopacity="1.0"
     inkscape:pageopacity="0.0"
     inkscape:pageshadow="2"
     inkscape:zoom="1"
     inkscape:cx="0"
     inkscape:cy="0"
     inkscape:document-units="px"
     inkscape:current-layer="layer1"
     showgrid="false"
     units="px"
     inkscape:window-width="1024"
     inkscape:window-height="768"
     inkscape:window-x="-8"
     inkscape:window-y="-8"
     inkscape:window-maximized="1" />
  <metadata
     id="metadata1">
    <rdf:RDF>
      <cc:Work
         rdf:about="">
        <dc:format>image/svg+xml</dc:format>
        <dc:type
           rdf:resource="http://purl.org/dc/dcmitype/StillImage" />
        <dc:title />
      </cc:Work>
    </rdf:RDF>
  </metadata>
  <g transform="translate(-32,-32)"
     inkscape:label="Layer 1"
     inkscape:groupmode="layer"
     id="layer1">
    <!-- INSERT MARKER -->
<g transform="translate(0.000000,96.000000) scale(0.100000,-0.100000)"
fill="#747474" stroke="none">
<path d="M0 480 l0 -480 480 0 480 0 0 480 0 480 -480 0 -480 0 0 -480z"/>
</g>
<g transform="translate(0.000000,96.000000) scale(0.100000,-0.100000)"
fill="#7f7f7f" stroke="none">
<path d="M0 954 c0 -3 5 -15 11 -26 7 -13 7 -18 1 -14 -7 4 -10 -5 -10 -24 1
-27 4 -30 32 -30 29 -1 30 -2 13 -15 -11 -7 -25 -11 -33 -8 -11 4 -14 -8 -14
-56 0 -60 0 -61 28 -61 15 0 37 7 49 15 19 13 22 13 27 -1 4 -11 13 -14 30
-10 20 5 25 1 30 -19 4 -16 11 -23 19 -20 7 4 3 -1 -7 -9 -11 -9 -37 -16 -57
-16 -21 0 -41 -4 -44 -10 -3 -5 1 -10 10 -10 9 0 13 -4 10 -10 -9 -14 -58 -13
-73 2 -17 17 -25 3 -12 -22 7 -13 8 -20 2 -16 -7 4 -10 -5 -10 -24 1 -27 4
-30 32 -30 29 -1 30 -2 13 -15 -11 -7 -25 -11 -33 -8 -11 4 -14 -8 -14 -56 0
-60 0 -61 28 -61 15 0 37 7 49 15 19 13 22 13 27 -1 4 -11 13 -14 30 -10 20 5
25 1 30 -19 4 -16 11 -23 19 -20 7 4 3 -1 -7 -9 -11 -9 -37 -16 -57 -16 -21 0
-41 -4 -44 -10 -3 -6 1 -10 10 -10 9 0 13 -5 10 -10 -9 -14 -58 -13 -73 2 -17
17 -25 3 -12 -22 7 -13 8 -20 2 -16 -7 4 -10 -5 -10 -24 1 -27 4 -30 32 -30
29 -1 30 -2 13 -15 -11 -7 -25 -11 -33 -8 -11 4 -14 -8 -14 -56 0 -60 0 -61
28 -61 15 0 37 7 49 15 19 13 22 13 27 -1 4 -11 13 -14 30 -10 20 5 25 1 30
-19 4 -16 11 -23 19 -20 7 4 3 -1 -7 -9 -11 -9 -37 -16 -57 -16 -21 0 -41 -4
-44 -10 -9 -15 128 -13 143 2 7 7 12 9 12 4 0 -4 7 0 16 8 8 9 24 16 35 16 17
0 18 -3 8 -22 -10 -19 -9 -20 7 -13 11 4 37 11 59 15 22 4 32 8 22 9 -10 0
-16 5 -13 10 3 5 25 6 50 4 26 -3 46 -1 50 6 7 11 -30 16 -86 12 -15 -1 -36 2
-45 8 -15 9 -13 10 12 11 17 0 40 7 52 15 19 13 22 13 27 -1 4 -11 13 -14 30
-10 20 5 25 1 30 -19 4 -16 11 -23 19 -20 7 4 3 -1 -7 -9 -11 -9 -37 -16 -57
-16 -21 0 -41 -4 -44 -10 -9 -15 128 -13 143 2 7 7 12 9 12 4 0 -4 7 0 16 8 8
9 24 16 35 16 17 0 18 -3 8 -22 -10 -19 -9 -20 7 -13 11 4 37 11 59 15 22 4
32 8 22 9 -10 0 -16 5 -13 10 3 5 25 6 50 4 26 -3 46 -1 50 6 7 11 -30 16 -86
12 -15 -1 -36 2 -45 8 -15 9 -13 10 12 11 17 0 40 7 52 15 19 13 22 13 27 -1
4 -11 13 -14 30 -10 20 5 25 1 30 -19 4 -16 11 -23 19 -20 7 4 3 -1 -7 -9 -11
-9 -37 -16 -57 -16 -21 0 -41 -4 -44 -10 -9 -15 128 -13 143 2 7 7 12 9 12 4
0 -4 7 0 16 8 8 9 24 16 35 16 17 0 18 -3 8 -22 -10 -18 -9 -20 6 -15 9 4 19
7 21 7 3 0 4 52 3 115 l-1 115 -37 1 c-20 1 -45 3 -56 4 -11 1 -27 3 -35 3
-10 2 -11 5 -3 13 7 7 22 9 40 4 43 -12 93 -11 93 1 0 14 -59 44 -75 38 -16
-7 -39 22 -25 31 5 3 10 3 10 0 0 -4 7 1 16 9 8 9 24 16 35 16 16 0 18 -4 10
-18 -7 -14 -5 -21 10 -30 11 -7 19 -8 19 -2 0 5 -6 10 -12 10 -10 0 -10 2 0 8
9 6 12 39 11 120 l-1 112 -37 1 c-20 1 -45 3 -56 4 -11 1 -27 3 -35 3 -10 2
-11 5 -3 13 7 7 22 9 40 4 43 -12 93 -11 93 1 0 14 -59 44 -75 38 -16 -7 -39
22 -25 31 5 3 10 3 10 0 0 -4 7 1 16 9 8 9 24 16 35 16 16 0 18 -4 10 -18 -7
-14 -5 -21 10 -30 11 -7 19 -8 19 -2 0 5 -6 10 -12 10 -10 0 -10 2 0 8 9 6 12
39 11 120 l-1 112 -37 1 c-20 1 -45 3 -56 4 -11 1 -27 3 -35 3 -10 2 -11 5 -3
13 7 7 22 9 40 4 43 -12 93 -11 93 1 0 15 -59 44 -76 37 -6 -2 -15 0 -19 6 -8
14 -122 14 -130 1 -3 -5 -19 -10 -35 -10 -16 0 -32 5 -35 10 -3 6 -16 10 -27
10 l-22 0 22 -20 c12 -12 22 -23 22 -25 0 -5 -26 4 -59 21 -13 7 -29 10 -36 8
-7 -3 -16 -1 -20 5 -8 14 -122 14 -130 1 -3 -5 -19 -10 -35 -10 -16 0 -32 5
-35 10 -3 6 -16 10 -27 10 l-22 0 22 -20 c12 -12 22 -23 22 -25 0 -5 -26 4
-59 21 -13 7 -29 10 -36 8 -7 -3 -16 -1 -20 5 -8 14 -122 14 -130 1 -3 -5 -19
-10 -35 -10 -16 0 -32 5 -35 10 -7 11 -25 14 -25 4z m171 -35 c-25 -20 -67
-27 -55 -8 8 14 67 39 74 32 3 -2 -6 -13 -19 -24z m320 0 c-25 -20 -67 -27
-55 -8 8 14 67 39 74 32 3 -2 -6 -13 -19 -24z m320 0 c-25 -20 -67 -27 -55 -8
8 14 67 39 74 32 3 -2 -6 -13 -19 -24z m-541 6 c0 -3 -2 -5 -5 -5 -3 0 -5 2
-5 5 0 3 2 5 5 5 3 0 5 -2 5 -5z m320 0 c0 -3 -2 -5 -5 -5 -3 0 -5 2 -5 5 0 3
2 5 5 5 3 0 5 -2 5 -5z m320 0 c0 -3 -2 -5 -5 -5 -3 0 -5 2 -5 5 0 3 2 5 5 5
3 0 5 -2 5 -5z m-835 -15 c3 -5 -3 -10 -14 -10 -11 0 -23 5 -26 10 -3 6 3 10
14 10 11 0 23 -4 26 -10z m320 0 c3 -5 -3 -10 -14 -10 -11 0 -23 5 -26 10 -3
6 3 10 14 10 11 0 23 -4 26 -10z m320 0 c3 -5 -3 -10 -14 -10 -11 0 -23 5 -26
10 -3 6 3 10 14 10 11 0 23 -4 26 -10z m-433 -13 c20 -1 40 -6 45 -11 4 -4
-26 -5 -67 -3 -90 6 -83 5 -74 18 3 6 18 8 33 5 14 -4 43 -8 63 -9z m320 0
c20 -1 40 -6 45 -11 4 -4 -26 -5 -67 -3 -90 6 -83 5 -74 18 3 6 18 8 33 5 14
-4 43 -8 63 -9z m-572 -2 c0 -3 -2 -5 -5 -5 -3 0 -5 2 -5 5 0 3 2 5 5 5 3 0 5
-2 5 -5z m320 0 c0 -3 -2 -5 -5 -5 -3 0 -5 2 -5 5 0 3 2 5 5 5 3 0 5 -2 5 -5z
m320 0 c0 -3 -2 -5 -5 -5 -3 0 -5 2 -5 5 0 3 2 5 5 5 3 0 5 -2 5 -5z m-536
-19 c44 8 64 -3 39 -21 -12 -9 -22 -10 -30 -4 -6 6 -23 7 -37 3 -16 -4 -32 -1
-41 6 -21 17 -8 32 16 20 10 -6 35 -8 53 -4z m320 0 c44 8 64 -3 39 -21 -12
-9 -22 -10 -30 -4 -6 6 -23 7 -37 3 -16 -4 -32 -1 -41 6 -21 17 -8 32 16 20
10 -6 35 -8 53 -4z m320 0 c44 8 64 -3 39 -21 -12 -9 -22 -10 -30 -4 -6 6 -23
7 -37 3 -16 -4 -32 -1 -41 6 -21 17 -8 32 16 20 10 -6 35 -8 53 -4z m-504 -20
c0 -11 -19 -15 -25 -6 -3 5 1 10 9 10 9 0 16 -2 16 -4z m97 -10 c-10 -8 -27
-12 -37 -9 -29 8 -13 23 23 23 29 -1 30 -2 14 -14z m223 10 c0 -11 -19 -15
-25 -6 -3 5 1 10 9 10 9 0 16 -2 16 -4z m97 -10 c-10 -8 -27 -12 -37 -9 -29 8
-13 23 23 23 29 -1 30 -2 14 -14z m223 10 c0 -11 -19 -15 -25 -6 -3 5 1 10 9
10 9 0 16 -2 16 -4z m-620 -11 c0 -3 -2 -5 -5 -5 -3 0 -5 2 -5 5 0 3 2 5 5 5
3 0 5 -2 5 -5z m320 0 c0 -3 -2 -5 -5 -5 -3 0 -5 2 -5 5 0 3 2 5 5 5 3 0 5 -2
5 -5z m320 0 c0 -3 -2 -5 -5 -5 -3 0 -5 2 -5 5 0 3 2 5 5 5 3 0 5 -2 5 -5z
m-774 -45 l-38 -16 26 -14 c17 -9 23 -17 17 -23 -7 -7 -15 -7 -23 0 -14 11
-50 14 -58 4 -3 -4 -21 1 -40 10 l-35 17 43 -2 c23 -1 47 1 53 5 18 11 -12 23
-51 21 -33 -2 -34 -1 -10 9 14 6 42 8 62 6 21 -3 40 -1 43 3 3 4 15 6 27 2 20
-5 18 -7 -16 -22z m320 0 l-38 -16 26 -14 c17 -9 23 -17 17 -23 -7 -7 -15 -7
-23 0 -14 11 -50 14 -58 4 -3 -4 -21 1 -40 10 l-35 17 43 -2 c23 -1 47 1 53 5
18 11 -12 23 -51 21 -33 -2 -34 -1 -10 9 14 6 42 8 62 6 21 -3 40 -1 43 3 3 4
15 6 27 2 20 -5 18 -7 -16 -22z m320 0 l-38 -16 26 -14 c17 -9 23 -17 17 -23
-7 -7 -15 -7 -23 0 -14 11 -50 14 -58 4 -3 -4 -21 1 -40 10 l-35 17 43 -2 c23
-1 47 1 53 5 18 11 -12 23 -51 21 -33 -2 -34 -1 -10 9 14 6 42 8 62 6 21 -3
40 -1 43 3 3 4 15 6 27 2 20 -5 18 -7 -16 -22z m-522 12 c3 -5 -13 -9 -34 -10
-22 -1 -40 3 -40 8 0 12 67 13 74 2z m320 0 c3 -5 -13 -9 -34 -10 -22 -1 -40
3 -40 8 0 12 67 13 74 2z m320 0 c3 -5 -13 -9 -34 -10 -22 -1 -40 3 -40 8 0
12 67 13 74 2z m-644 -42 c16 -10 14 -11 -27 -15 -16 -1 -36 -5 -45 -9 -26
-12 -22 7 5 20 29 15 48 16 67 4z m320 0 c16 -10 14 -11 -27 -15 -16 -1 -36
-5 -45 -9 -26 -12 -22 7 5 20 29 15 48 16 67 4z m320 0 c16 -10 14 -11 -27
-15 -16 -1 -36 -5 -45 -9 -26 -12 -22 7 5 20 29 15 48 16 67 4z m-455 -46 c18
5 24 1 29 -19 4 -16 11 -23 19 -20 7 4 3 -1 -7 -9 -11 -9 -37 -16 -57 -16 -21
0 -41 -4 -44 -10 -3 -5 1 -10 10 -10 9 0 13 -4 10 -10 -3 -5 -19 -10 -35 -10
-16 0 -32 5 -35 10 -3 6 -16 10 -28 10 -37 0 2 19 43 21 19 1 27 3 17 6 -34 9
-7 21 37 16 26 -3 46 -1 50 6 7 11 -30 16 -86 12 -15 -1 -36 2 -45 8 -15 9
-13 10 13 11 16 0 39 6 50 14 16 13 20 12 27 -1 6 -9 17 -13 32 -9z m320 0
c18 5 24 1 29 -19 4 -16 11 -23 19 -20 7 4 3 -1 -7 -9 -11 -9 -37 -16 -57 -16
-21 0 -41 -4 -44 -10 -3 -5 1 -10 10 -10 9 0 13 -4 10 -10 -3 -5 -19 -10 -35
-10 -16 0 -32 5 -35 10 -3 6 -16 10 -28 10 -37 0 2 19 43 21 19 1 27 3 17 6
-34 9 -7 21 37 16 26 -3 46 -1 50 6 7 11 -30 16 -86 12 -15 -1 -36 2 -45 8
-15 9 -13 10 13 11 16 0 39 6 50 14 16 13 20 12 27 -1 6 -9 17 -13 32 -9z
m-465 -20 c0 -2 -7 -4 -15 -4 -8 0 -15 4 -15 10 0 5 7 7 15 4 8 -4 15 -8 15
-10z m320 0 c0 -2 -7 -4 -15 -4 -8 0 -15 4 -15 10 0 5 7 7 15 4 8 -4 15 -8 15
-10z m320 0 c0 -2 -7 -4 -15 -4 -8 0 -15 4 -15 10 0 5 7 7 15 4 8 -4 15 -8 15
-10z m-710 -19 c0 -3 -2 -5 -5 -5 -3 0 -5 2 -5 5 0 3 2 5 5 5 3 0 5 -2 5 -5z
m320 0 c0 -3 -2 -5 -5 -5 -3 0 -5 2 -5 5 0 3 2 5 5 5 3 0 5 -2 5 -5z m320 0
c0 -3 -2 -5 -5 -5 -3 0 -5 2 -5 5 0 3 2 5 5 5 3 0 5 -2 5 -5z m-589 -24 c-8
-14 -5 -21 14 -31 29 -15 43 -42 17 -33 -9 4 -28 12 -41 19 -13 7 -29 10 -36
8 -6 -3 -18 2 -25 11 -11 14 -11 16 5 15 3 -1 13 6 21 15 9 8 24 15 35 15 16
0 18 -3 10 -19z m320 0 c-8 -14 -5 -21 14 -31 29 -15 43 -42 17 -33 -9 4 -28
12 -41 19 -13 7 -29 10 -36 8 -6 -3 -18 2 -25 11 -11 14 -11 16 5 15 3 -1 13
6 21 15 9 8 24 15 35 15 16 0 18 -3 10 -19z m-440 -62 c-25 -20 -67 -27 -55
-8 8 14 67 39 74 32 3 -2 -6 -13 -19 -24z m320 0 c-25 -20 -67 -27 -55 -8 8
14 67 39 74 32 3 -2 -6 -13 -19 -24z m320 0 c-25 -20 -67 -27 -55 -8 8 14 67
39 74 32 3 -2 -6 -13 -19 -24z m-541 6 c0 -3 -2 -5 -5 -5 -3 0 -5 2 -5 5 0 3
2 5 5 5 3 0 5 -2 5 -5z m320 0 c0 -3 -2 -5 -5 -5 -3 0 -5 2 -5 5 0 3 2 5 5 5
3 0 5 -2 5 -5z m320 0 c0 -3 -2 -5 -5 -5 -3 0 -5 2 -5 5 0 3 2 5 5 5 3 0 5 -2
5 -5z m-835 -15 c3 -5 -3 -10 -14 -10 -11 0 -23 5 -26 10 -3 6 3 10 14 10 11
0 23 -4 26 -10z m320 0 c3 -5 -3 -10 -14 -10 -11 0 -23 5 -26 10 -3 6 3 10 14
10 11 0 23 -4 26 -10z m320 0 c3 -5 -3 -10 -14 -10 -11 0 -23 5 -26 10 -3 6 3
10 14 10 11 0 23 -4 26 -10z m-433 -13 c20 -1 40 -6 45 -11 4 -4 -26 -5 -67
-3 -90 6 -83 5 -74 18 3 6 18 8 33 5 14 -4 43 -8 63 -9z m320 0 c20 -1 40 -6
45 -11 4 -4 -26 -5 -67 -3 -90 6 -83 5 -74 18 3 6 18 8 33 5 14 -4 43 -8 63
-9z m-572 -2 c0 -3 -2 -5 -5 -5 -3 0 -5 2 -5 5 0 3 2 5 5 5 3 0 5 -2 5 -5z
m320 0 c0 -3 -2 -5 -5 -5 -3 0 -5 2 -5 5 0 3 2 5 5 5 3 0 5 -2 5 -5z m320 0
c0 -3 -2 -5 -5 -5 -3 0 -5 2 -5 5 0 3 2 5 5 5 3 0 5 -2 5 -5z m-536 -19 c44 8
64 -3 39 -21 -12 -9 -22 -10 -30 -4 -6 6 -23 7 -37 3 -16 -4 -32 -1 -41 6 -21
17 -8 32 16 20 10 -6 35 -8 53 -4z m320 0 c44 8 64 -3 39 -21 -12 -9 -22 -10
-30 -4 -6 6 -23 7 -37 3 -16 -4 -32 -1 -41 6 -21 17 -8 32 16 20 10 -6 35 -8
53 -4z m320 0 c44 8 64 -3 39 -21 -12 -9 -22 -10 -30 -4 -6 6 -23 7 -37 3 -16
-4 -32 -1 -41 6 -21 17 -8 32 16 20 10 -6 35 -8 53 -4z m-504 -20 c0 -11 -19
-15 -25 -6 -3 5 1 10 9 10 9 0 16 -2 16 -4z m97 -10 c-10 -8 -27 -12 -37 -9
-29 8 -13 23 23 23 29 -1 30 -2 14 -14z m223 10 c0 -11 -19 -15 -25 -6 -3 5 1
10 9 10 9 0 16 -2 16 -4z m97 -10 c-10 -8 -27 -12 -37 -9 -29 8 -13 23 23 23
29 -1 30 -2 14 -14z m223 10 c0 -11 -19 -15 -25 -6 -3 5 1 10 9 10 9 0 16 -2
16 -4z m-620 -11 c0 -3 -2 -5 -5 -5 -3 0 -5 2 -5 5 0 3 2 5 5 5 3 0 5 -2 5 -5z
m320 0 c0 -3 -2 -5 -5 -5 -3 0 -5 2 -5 5 0 3 2 5 5 5 3 0 5 -2 5 -5z m320 0
c0 -3 -2 -5 -5 -5 -3 0 -5 2 -5 5 0 3 2 5 5 5 3 0 5 -2 5 -5z m-774 -45 l-38
-16 26 -14 c17 -9 23 -17 17 -23 -7 -7 -15 -7 -23 0 -14 11 -50 14 -58 4 -3
-4 -21 1 -40 10 l-35 17 43 -2 c23 -1 47 1 53 5 18 11 -12 23 -51 21 -33 -2
-34 -1 -10 9 14 6 42 8 62 6 21 -3 40 -1 43 3 3 4 15 6 27 2 20 -5 18 -7 -16
-22z m320 0 l-38 -16 26 -14 c17 -9 23 -17 17 -23 -7 -7 -15 -7 -23 0 -14 11
-50 14 -58 4 -3 -4 -21 1 -40 10 l-35 17 43 -2 c23 -1 47 1 53 5 18 11 -12 23
-51 21 -33 -2 -34 -1 -10 9 14 6 42 8 62 6 21 -3 40 -1 43 3 3 4 15 6 27 2 20
-5 18 -7 -16 -22z m320 0 l-38 -16 26 -14 c17 -9 23 -17 17 -23 -7 -7 -15 -7
-23 0 -14 11 -50 14 -58 4 -3 -4 -21 1 -40 10 l-35 17 43 -2 c23 -1 47 1 53 5
18 11 -12 23 -51 21 -33 -2 -34 -1 -10 9 14 6 42 8 62 6 21 -3 40 -1 43 3 3 4
15 6 27 2 20 -5 18 -7 -16 -22z m-522 12 c3 -5 -13 -9 -34 -10 -22 -1 -40 3
-40 8 0 12 67 13 74 2z m320 0 c3 -5 -13 -9 -34 -10 -22 -1 -40 3 -40 8 0 12
67 13 74 2z m320 0 c3 -5 -13 -9 -34 -10 -22 -1 -40 3 -40 8 0 12 67 13 74 2z
m-644 -42 c16 -10 14 -11 -27 -15 -16 -1 -36 -5 -45 -9 -26 -12 -22 7 5 20 29
15 48 16 67 4z m320 0 c16 -10 14 -11 -27 -15 -16 -1 -36 -5 -45 -9 -26 -12
-22 7 5 20 29 15 48 16 67 4z m320 0 c16 -10 14 -11 -27 -15 -16 -1 -36 -5
-45 -9 -26 -12 -22 7 5 20 29 15 48 16 67 4z m-455 -46 c18 5 24 1 29 -19 4
-16 11 -23 19 -20 7 4 3 -1 -7 -9 -11 -9 -37 -16 -57 -16 -21 0 -41 -4 -44
-10 -3 -5 1 -10 10 -10 9 0 13 -4 10 -10 -3 -5 -19 -10 -35 -10 -16 0 -32 5
-35 10 -3 6 -16 10 -28 10 -37 0 2 19 43 21 19 1 27 3 17 6 -34 9 -7 21 37 16
26 -3 46 -1 50 6 7 11 -30 16 -86 12 -15 -1 -36 2 -45 8 -15 9 -13 10 13 11
16 0 39 6 50 14 16 13 20 12 27 -1 6 -9 17 -13 32 -9z m320 0 c18 5 24 1 29
-19 4 -16 11 -23 19 -20 7 4 3 -1 -7 -9 -11 -9 -37 -16 -57 -16 -21 0 -41 -4
-44 -10 -3 -5 1 -10 10 -10 9 0 13 -4 10 -10 -3 -5 -19 -10 -35 -10 -16 0 -32
5 -35 10 -3 6 -16 10 -28 10 -37 0 2 19 43 21 19 1 27 3 17 6 -34 9 -7 21 37
16 26 -3 46 -1 50 6 7 11 -30 16 -86 12 -15 -1 -36 2 -45 8 -15 9 -13 10 13
11 16 0 39 6 50 14 16 13 20 12 27 -1 6 -9 17 -13 32 -9z m-465 -20 c0 -2 -7
-4 -15 -4 -8 0 -15 4 -15 10 0 5 7 7 15 4 8 -4 15 -8 15 -10z m320 0 c0 -2 -7
-4 -15 -4 -8 0 -15 4 -15 10 0 5 7 7 15 4 8 -4 15 -8 15 -10z m320 0 c0 -2 -7
-4 -15 -4 -8 0 -15 4 -15 10 0 5 7 7 15 4 8 -4 15 -8 15 -10z m-710 -19 c0 -3
-2 -5 -5 -5 -3 0 -5 2 -5 5 0 3 2 5 5 5 3 0 5 -2 5 -5z m320 0 c0 -3 -2 -5 -5
-5 -3 0 -5 2 -5 5 0 3 2 5 5 5 3 0 5 -2 5 -5z m320 0 c0 -3 -2 -5 -5 -5 -3 0
-5 2 -5 5 0 3 2 5 5 5 3 0 5 -2 5 -5z m-589 -24 c-8 -14 -5 -21 14 -31 29 -15
43 -42 17 -33 -9 4 -28 12 -41 19 -13 7 -29 10 -36 8 -6 -3 -18 2 -25 11 -11
14 -11 16 5 15 3 -1 13 6 21 15 9 8 24 15 35 15 16 0 18 -3 10 -19z m320 0
c-8 -14 -5 -21 14 -31 29 -15 43 -42 17 -33 -9 4 -28 12 -41 19 -13 7 -29 10
-36 8 -6 -3 -18 2 -25 11 -11 14 -11 16 5 15 3 -1 13 6 21 15 9 8 24 15 35 15
16 0 18 -3 10 -19z m-440 -62 c-25 -20 -67 -27 -55 -8 8 14 67 39 74 32 3 -2
-6 -13 -19 -24z m320 0 c-25 -20 -67 -27 -55 -8 8 14 67 39 74 32 3 -2 -6 -13
-19 -24z m320 0 c-25 -20 -67 -27 -55 -8 8 14 67 39 74 32 3 -2 -6 -13 -19
-24z m-541 6 c0 -3 -2 -5 -5 -5 -3 0 -5 2 -5 5 0 3 2 5 5 5 3 0 5 -2 5 -5z
m320 0 c0 -3 -2 -5 -5 -5 -3 0 -5 2 -5 5 0 3 2 5 5 5 3 0 5 -2 5 -5z m320 0
c0 -3 -2 -5 -5 -5 -3 0 -5 2 -5 5 0 3 2 5 5 5 3 0 5 -2 5 -5z m-835 -15 c3 -5
-3 -10 -14 -10 -11 0 -23 5 -26 10 -3 6 3 10 14 10 11 0 23 -4 26 -10z m320 0
c3 -5 -3 -10 -14 -10 -11 0 -23 5 -26 10 -3 6 3 10 14 10 11 0 23 -4 26 -10z
m320 0 c3 -5 -3 -10 -14 -10 -11 0 -23 5 -26 10 -3 6 3 10 14 10 11 0 23 -4
26 -10z m-433 -13 c20 -1 40 -6 45 -11 4 -4 -26 -5 -67 -3 -90 6 -83 5 -74 18
3 6 18 8 33 5 14 -4 43 -8 63 -9z m320 0 c20 -1 40 -6 45 -11 4 -4 -26 -5 -67
-3 -90 6 -83 5 -74 18 3 6 18 8 33 5 14 -4 43 -8 63 -9z m-572 -2 c0 -3 -2 -5
-5 -5 -3 0 -5 2 -5 5 0 3 2 5 5 5 3 0 5 -2 5 -5z m320 0 c0 -3 -2 -5 -5 -5 -3
0 -5 2 -5 5 0 3 2 5 5 5 3 0 5 -2 5 -5z m320 0 c0 -3 -2 -5 -5 -5 -3 0 -5 2
-5 5 0 3 2 5 5 5 3 0 5 -2 5 -5z m-536 -19 c44 8 64 -3 39 -21 -12 -9 -22 -10
-30 -4 -6 6 -23 7 -37 3 -16 -4 -32 -1 -41 6 -21 17 -8 32 16 20 10 -6 35 -8
53 -4z m320 0 c44 8 64 -3 39 -21 -12 -9 -22 -10 -30 -4 -6 6 -23 7 -37 3 -16
-4 -32 -1 -41 6 -21 17 -8 32 16 20 10 -6 35 -8 53 -4z m320 0 c44 8 64 -3 39
-21 -12 -9 -22 -10 -30 -4 -6 6 -23 7 -37 3 -16 -4 -32 -1 -41 6 -21 17 -8 32
16 20 10 -6 35 -8 53 -4z m-504 -20 c0 -11 -19 -15 -25 -6 -3 5 1 10 9 10 9 0
16 -2 16 -4z m97 -10 c-10 -8 -27 -12 -37 -9 -29 8 -13 23 23 23 29 -1 30 -2
14 -14z m223 10 c0 -11 -19 -15 -25 -6 -3 5 1 10 9 10 9 0 16 -2 16 -4z m97
-10 c-10 -8 -27 -12 -37 -9 -29 8 -13 23 23 23 29 -1 30 -2 14 -14z m223 10
c0 -11 -19 -15 -25 -6 -3 5 1 10 9 10 9 0 16 -2 16 -4z m-620 -11 c0 -3 -2 -5
-5 -5 -3 0 -5 2 -5 5 0 3 2 5 5 5 3 0 5 -2 5 -5z m320 0 c0 -3 -2 -5 -5 -5 -3
0 -5 2 -5 5 0 3 2 5 5 5 3 0 5 -2 5 -5z m320 0 c0 -3 -2 -5 -5 -5 -3 0 -5 2
-5 5 0 3 2 5 5 5 3 0 5 -2 5 -5z m-774 -45 l-38 -16 26 -14 c17 -9 23 -17 17
-23 -7 -7 -15 -7 -23 0 -14 11 -50 14 -58 4 -3 -4 -21 1 -40 10 l-35 17 43 -2
c23 -1 47 1 53 5 18 11 -12 23 -51 21 -33 -2 -34 -1 -10 9 14 6 42 8 62 6 21
-3 40 -1 43 3 3 4 15 6 27 2 20 -5 18 -7 -16 -22z m320 0 l-38 -16 26 -14 c17
-9 23 -17 17 -23 -7 -7 -15 -7 -23 0 -14 11 -50 14 -58 4 -3 -4 -21 1 -40 10
l-35 17 43 -2 c23 -1 47 1 53 5 18 11 -12 23 -51 21 -33 -2 -34 -1 -10 9 14 6
42 8 62 6 21 -3 40 -1 43 3 3 4 15 6 27 2 20 -5 18 -7 -16 -22z m320 0 l-38
-16 26 -14 c17 -9 23 -17 17 -23 -7 -7 -15 -7 -23 0 -14 11 -50 14 -58 4 -3
-4 -21 1 -40 10 l-35 17 43 -2 c23 -1 47 1 53 5 18 11 -12 23 -51 21 -33 -2
-34 -1 -10 9 14 6 42 8 62 6 21 -3 40 -1 43 3 3 4 15 6 27 2 20 -5 18 -7 -16
-22z m-522 12 c3 -5 -13 -9 -34 -10 -22 -1 -40 3 -40 8 0 12 67 13 74 2z m320
0 c3 -5 -13 -9 -34 -10 -22 -1 -40 3 -40 8 0 12 67 13 74 2z m320 0 c3 -5 -13
-9 -34 -10 -22 -1 -40 3 -40 8 0 12 67 13 74 2z m-644 -42 c16 -10 14 -11 -27
-15 -16 -1 -36 -5 -45 -9 -26 -12 -22 7 5 20 29 15 48 16 67 4z m320 0 c16
-10 14 -11 -27 -15 -16 -1 -36 -5 -45 -9 -26 -12 -22 7 5 20 29 15 48 16 67 4z
m320 0 c16 -10 14 -11 -27 -15 -16 -1 -36 -5 -45 -9 -26 -12 -22 7 5 20 29 15
48 16 67 4z m-600 -66 c0 -2 -7 -4 -15 -4 -8 0 -15 4 -15 10 0 5 7 7 15 4 8
-4 15 -8 15 -10z m320 0 c0 -2 -7 -4 -15 -4 -8 0 -15 4 -15 10 0 5 7 7 15 4 8
-4 15 -8 15 -10z m320 0 c0 -2 -7 -4 -15 -4 -8 0 -15 4 -15 10 0 5 7 7 15 4 8
-4 15 -8 15 -10z m-710 -19 c0 -3 -2 -5 -5 -5 -3 0 -5 2 -5 5 0 3 2 5 5 5 3 0
5 -2 5 -5z m320 0 c0 -3 -2 -5 -5 -5 -3 0 -5 2 -5 5 0 3 2 5 5 5 3 0 5 -2 5
-5z m320 0 c0 -3 -2 -5 -5 -5 -3 0 -5 2 -5 5 0 3 2 5 5 5 3 0 5 -2 5 -5z"/>
<path d="M340 845 c0 -3 2 -5 5 -5 3 0 5 2 5 5 0 3 -2 5 -5 5 -3 0 -5 -2 -5
-5z"/>
<path d="M660 845 c0 -3 2 -5 5 -5 3 0 5 2 5 5 0 3 -2 5 -5 5 -3 0 -5 -2 -5
-5z"/>
<path d="M340 525 c0 -3 2 -5 5 -5 3 0 5 2 5 5 0 3 -2 5 -5 5 -3 0 -5 -2 -5
-5z"/>
<path d="M660 525 c0 -3 2 -5 5 -5 3 0 5 2 5 5 0 3 -2 5 -5 5 -3 0 -5 -2 -5
-5z"/>
<path d="M340 205 c0 -3 2 -5 5 -5 3 0 5 2 5 5 0 3 -2 5 -5 5 -3 0 -5 -2 -5
-5z"/>
<path d="M660 205 c0 -3 2 -5 5 -5 3 0 5 2 5 5 0 3 -2 5 -5 5 -3 0 -5 -2 -5
-5z"/>
<path d="M945 950 c3 -5 8 -10 11 -10 2 0 4 5 4 10 0 6 -5 10 -11 10 -5 0 -7
-4 -4 -10z"/>
<path d="M20 845 c0 -3 2 -5 5 -5 3 0 5 2 5 5 0 3 -2 5 -5 5 -3 0 -5 -2 -5 -5z"/>
<path d="M0 683 c0 -20 5 -23 38 -22 20 1 29 3 19 6 -34 9 -7 21 37 16 26 -3
46 -1 50 6 5 7 -3 11 -21 12 -15 0 -49 2 -75 3 -44 1 -48 0 -48 -21z"/>
<path d="M20 525 c0 -3 2 -5 5 -5 3 0 5 2 5 5 0 3 -2 5 -5 5 -3 0 -5 -2 -5 -5z"/>
<path d="M0 363 c0 -20 5 -23 38 -22 20 1 29 3 19 6 -34 9 -7 21 37 16 26 -3
46 -1 50 6 5 7 -3 11 -21 12 -15 0 -49 2 -75 3 -44 1 -48 0 -48 -21z"/>
<path d="M20 205 c0 -3 2 -5 5 -5 3 0 5 2 5 5 0 3 -2 5 -5 5 -3 0 -5 -2 -5 -5z"/>
<path d="M0 43 c0 -20 5 -23 38 -22 20 1 29 3 19 6 -34 9 -7 21 37 16 26 -3
46 -1 50 6 5 7 -3 11 -21 12 -15 0 -49 2 -75 3 -44 1 -48 0 -48 -21z"/>
</g>
<g transform="translate(0.000000,96.000000) scale(0.100000,-0.100000)"
fill="#8f8f8f" stroke="none">
<path d="M115 950 c-3 -5 -20 -10 -37 -10 -31 0 -31 0 -12 -21 10 -11 27 -25
38 -31 15 -8 18 -7 13 5 -7 18 7 31 46 46 38 15 35 -4 -5 -29 -27 -16 -29 -20
-14 -26 11 -4 25 1 40 15 22 21 63 30 51 11 -3 -5 -3 -10 2 -11 4 0 16 -2 25
-4 9 -2 19 3 22 11 3 8 -1 14 -9 14 -8 0 -15 6 -15 14 0 9 -8 12 -24 9 -13 -3
-27 0 -30 6 -9 14 -83 15 -91 1z"/>
<path d="M435 950 c-3 -5 -20 -10 -37 -10 -31 0 -31 0 -12 -21 10 -11 27 -25
38 -31 15 -8 18 -7 13 5 -7 18 7 31 46 46 38 15 35 -4 -5 -29 -27 -16 -29 -20
-14 -26 11 -4 25 1 40 15 22 21 63 30 51 11 -3 -5 -3 -10 2 -11 4 0 16 -2 25
-4 9 -2 19 3 22 11 3 8 -1 14 -9 14 -8 0 -15 6 -15 14 0 9 -8 12 -24 9 -13 -3
-27 0 -30 6 -9 14 -83 15 -91 1z"/>
<path d="M755 950 c-3 -5 -20 -10 -37 -10 -31 0 -31 0 -12 -21 10 -11 27 -25
38 -31 15 -8 18 -7 13 5 -7 18 7 31 46 46 38 15 35 -4 -5 -29 -27 -16 -29 -20
-14 -26 11 -4 25 1 40 15 22 21 63 30 51 11 -3 -5 -3 -10 2 -11 4 0 16 -2 25
-4 9 -2 19 3 22 11 3 8 -1 14 -9 14 -8 0 -15 6 -15 14 0 9 -8 12 -24 9 -13 -3
-27 0 -30 6 -9 14 -83 15 -91 1z"/>
<path d="M12 920 c2 -8 8 -18 13 -22 6 -5 4 -8 -5 -8 -11 -1 -10 -4 4 -15 27
-20 35 -19 29 4 -6 24 -46 63 -41 41z"/>
<path d="M332 920 c2 -8 8 -18 13 -22 6 -5 4 -8 -5 -8 -11 -1 -10 -4 4 -15 27
-20 35 -19 29 4 -6 24 -46 63 -41 41z"/>
<path d="M652 920 c2 -8 8 -18 13 -22 6 -5 4 -8 -5 -8 -11 -1 -10 -4 4 -15 27
-20 35 -19 29 4 -6 24 -46 63 -41 41z"/>
<path d="M205 881 c-19 -6 -27 -32 -13 -46 8 -8 -1 -36 -11 -31 -3 2 -15 -5
-25 -15 -16 -16 -17 -19 -3 -24 10 -5 14 -15 10 -36 -3 -20 0 -31 11 -35 9 -3
14 -10 11 -14 -7 -11 32 -23 45 -15 6 4 8 10 5 15 -3 4 6 11 20 14 14 4 25 11
25 16 0 6 19 10 43 10 31 0 38 3 27 10 -8 5 -31 10 -50 10 -20 0 -41 5 -48 12
-9 9 -18 9 -37 0 -31 -14 -35 -15 -35 -3 0 17 60 34 83 24 17 -8 30 -7 47 2
24 13 24 13 -11 20 -19 5 -49 7 -66 6 -19 -1 -33 3 -33 9 0 7 16 11 38 10 20
-1 59 -2 86 -1 42 1 47 3 36 16 -9 11 -16 12 -25 5 -8 -6 -21 -7 -36 -2 l-24
9 23 7 c33 11 27 26 -10 27 -18 0 -40 2 -48 3 -8 2 -24 0 -35 -3z m5 -26 c0
-3 -2 -5 -5 -5 -3 0 -5 2 -5 5 0 3 2 5 5 5 3 0 5 -2 5 -5z m60 1 c0 -11 -19
-15 -25 -6 -3 5 1 10 9 10 9 0 16 -2 16 -4z m80 -21 c0 -3 -2 -5 -5 -5 -3 0
-5 2 -5 5 0 3 2 5 5 5 3 0 5 -2 5 -5z m-130 -100 c0 -3 -2 -5 -5 -5 -3 0 -5 2
-5 5 0 3 2 5 5 5 3 0 5 -2 5 -5z"/>
<path d="M525 881 c-19 -6 -27 -32 -13 -46 8 -8 -1 -36 -11 -31 -3 2 -15 -5
-25 -15 -16 -16 -17 -19 -3 -24 10 -5 14 -15 10 -36 -3 -20 0 -31 11 -35 9 -3
14 -10 11 -14 -7 -11 32 -23 45 -15 6 4 8 10 5 15 -3 4 6 11 20 14 14 4 25 11
25 16 0 6 19 10 43 10 31 0 38 3 27 10 -8 5 -31 10 -50 10 -20 0 -41 5 -48 12
-9 9 -18 9 -37 0 -31 -14 -35 -15 -35 -3 0 17 60 34 83 24 17 -8 30 -7 47 2
24 13 24 13 -11 20 -19 5 -49 7 -66 6 -19 -1 -33 3 -33 9 0 7 16 11 38 10 20
-1 59 -2 86 -1 42 1 47 3 36 16 -9 11 -16 12 -25 5 -8 -6 -21 -7 -36 -2 l-24
9 23 7 c33 11 27 26 -10 27 -18 0 -40 2 -48 3 -8 2 -24 0 -35 -3z m5 -26 c0
-3 -2 -5 -5 -5 -3 0 -5 2 -5 5 0 3 2 5 5 5 3 0 5 -2 5 -5z m60 1 c0 -11 -19
-15 -25 -6 -3 5 1 10 9 10 9 0 16 -2 16 -4z m80 -21 c0 -3 -2 -5 -5 -5 -3 0
-5 2 -5 5 0 3 2 5 5 5 3 0 5 -2 5 -5z m-130 -100 c0 -3 -2 -5 -5 -5 -3 0 -5 2
-5 5 0 3 2 5 5 5 3 0 5 -2 5 -5z"/>
<path d="M845 881 c-19 -6 -27 -32 -13 -46 8 -8 -1 -36 -11 -31 -3 2 -15 -5
-25 -15 -16 -16 -17 -19 -3 -24 10 -5 14 -15 10 -36 -3 -20 0 -31 11 -35 9 -3
14 -10 11 -14 -7 -11 32 -23 45 -15 6 4 8 10 5 15 -3 4 6 11 20 14 14 4 25 11
25 16 0 6 9 10 20 10 11 0 20 5 20 10 0 6 -13 10 -28 10 -15 0 -33 5 -40 12
-9 9 -18 9 -37 0 -31 -14 -35 -15 -35 -3 0 18 60 34 84 23 18 -8 28 -7 42 2
17 13 16 14 -7 21 -13 5 -41 7 -61 7 -21 -1 -38 3 -38 8 0 5 25 9 55 9 62 -2
80 6 44 19 l-24 9 23 7 c33 11 27 26 -10 27 -18 0 -40 2 -48 3 -8 2 -24 0 -35
-3z m5 -26 c0 -3 -2 -5 -5 -5 -3 0 -5 2 -5 5 0 3 2 5 5 5 3 0 5 -2 5 -5z m60
1 c0 -11 -19 -15 -25 -6 -3 5 1 10 9 10 9 0 16 -2 16 -4z m-50 -121 c0 -3 -2
-5 -5 -5 -3 0 -5 2 -5 5 0 3 2 5 5 5 3 0 5 -2 5 -5z"/>
<path d="M88 847 c-16 -6 -28 -14 -28 -18 0 -12 74 -16 92 -5 15 9 15 11 0 23
-20 15 -28 15 -64 0z"/>
<path d="M408 847 c-16 -6 -28 -14 -28 -18 0 -12 74 -16 92 -5 15 9 15 11 0
23 -20 15 -28 15 -64 0z"/>
<path d="M728 847 c-16 -6 -28 -14 -28 -18 0 -12 74 -16 92 -5 15 9 15 11 0
23 -20 15 -28 15 -64 0z"/>
<path d="M10 835 c-11 -13 -8 -15 15 -15 23 0 26 2 15 15 -7 8 -14 15 -15 15
-1 0 -8 -7 -15 -15z m20 0 c0 -3 -2 -5 -5 -5 -3 0 -5 2 -5 5 0 3 2 5 5 5 3 0
5 -2 5 -5z"/>
<path d="M52 802 c-43 -4 -37 -27 7 -27 18 0 37 3 42 6 18 11 -15 24 -49 21z"/>
<path d="M372 802 c-43 -4 -37 -27 7 -27 18 0 37 3 42 6 18 11 -15 24 -49 21z"/>
<path d="M692 802 c-43 -4 -37 -27 7 -27 18 0 37 3 42 6 18 11 -15 24 -49 21z"/>
<path d="M0 785 c0 -3 2 -5 5 -5 3 0 5 2 5 5 0 3 -2 5 -5 5 -3 0 -5 -2 -5 -5z"/>
<path d="M54 745 c10 -8 24 -11 30 -7 6 3 22 5 35 3 13 -1 21 2 17 7 -8 13
-56 12 -56 -1 0 -7 -4 -7 -12 1 -7 7 -17 12 -22 12 -6 0 -2 -7 8 -15z"/>
<path d="M374 745 c10 -8 24 -11 30 -7 6 3 22 5 35 3 13 -1 21 2 17 7 -8 13
-56 12 -56 -1 0 -7 -4 -7 -12 1 -7 7 -17 12 -22 12 -6 0 -2 -7 8 -15z"/>
<path d="M694 745 c10 -8 24 -11 30 -7 6 3 22 5 35 3 13 -1 21 2 17 7 -8 13
-56 12 -56 -1 0 -7 -4 -7 -12 1 -7 7 -17 12 -22 12 -6 0 -2 -7 8 -15z"/>
<path d="M0 730 c0 -5 10 -10 23 -10 18 0 19 2 7 10 -19 13 -30 13 -30 0z"/>
<path d="M45 700 c-36 -9 -33 -11 22 -16 23 -2 45 1 48 6 3 6 2 10 -4 10 -5 0
-15 2 -23 4 -7 2 -26 0 -43 -4z"/>
<path d="M295 694 c-18 -14 -18 -14 2 -14 23 0 39 15 26 23 -5 3 -17 -1 -28
-9z"/>
<path d="M365 700 c-36 -9 -33 -11 22 -16 23 -2 45 1 48 6 3 6 2 10 -4 10 -5
0 -15 2 -23 4 -7 2 -26 0 -43 -4z"/>
<path d="M615 694 c-18 -14 -18 -14 2 -14 23 0 39 15 26 23 -5 3 -17 -1 -28
-9z"/>
<path d="M685 700 c-36 -9 -33 -11 22 -16 23 -2 45 1 48 6 3 6 2 10 -4 10 -5
0 -15 2 -23 4 -7 2 -26 0 -43 -4z"/>
<path d="M936 695 c-19 -15 -19 -15 2 -15 13 0 22 6 22 15 0 18 0 18 -24 0z"/>
<path d="M0 695 c0 -3 2 -5 5 -5 3 0 5 2 5 5 0 3 -2 5 -5 5 -3 0 -5 -2 -5 -5z"/>
<path d="M75 650 c-4 -6 5 -10 20 -10 15 0 24 -4 20 -10 -3 -5 -20 -10 -37
-10 -31 0 -31 0 -12 -21 10 -11 27 -25 38 -31 15 -8 18 -7 13 5 -7 18 7 31 46
46 38 15 35 -4 -5 -29 -27 -16 -29 -20 -14 -26 11 -4 25 1 40 15 22 21 63 30
51 11 -3 -5 -3 -10 2 -11 4 0 16 -2 25 -4 9 -2 19 3 22 11 3 8 -1 14 -9 14 -8
0 -15 7 -15 15 0 9 -6 12 -16 8 -8 -3 -25 -1 -37 4 -74 35 -120 43 -132 23z"/>
<path d="M395 650 c-4 -6 5 -10 20 -10 15 0 24 -4 20 -10 -3 -5 -20 -10 -37
-10 -31 0 -31 0 -12 -21 10 -11 27 -25 38 -31 15 -8 18 -7 13 5 -7 18 7 31 46
46 38 15 35 -4 -5 -29 -27 -16 -29 -20 -14 -26 11 -4 25 1 40 15 22 21 63 30
51 11 -3 -5 -3 -10 2 -11 4 0 16 -2 25 -4 9 -2 19 3 22 11 3 8 -1 14 -9 14 -8
0 -15 7 -15 15 0 9 -6 12 -16 8 -8 -3 -25 -1 -37 4 -74 35 -120 43 -132 23z"/>
<path d="M715 650 c-4 -6 5 -10 20 -10 15 0 24 -4 20 -10 -3 -5 -20 -10 -37
-10 -31 0 -31 0 -12 -21 10 -11 27 -25 38 -31 15 -8 18 -7 13 5 -7 18 7 31 46
46 38 15 35 -4 -5 -29 -27 -16 -29 -20 -14 -26 11 -4 25 1 40 15 22 21 63 30
51 11 -3 -5 -3 -10 2 -11 4 0 16 -2 25 -4 9 -2 19 3 22 11 3 8 -1 14 -9 14 -8
0 -15 7 -15 15 0 9 -6 12 -16 8 -8 -3 -25 -1 -37 4 -74 35 -120 43 -132 23z"/>
<path d="M12 600 c2 -8 8 -18 13 -22 6 -5 4 -8 -5 -8 -11 -1 -10 -4 4 -15 27
-20 35 -19 29 4 -6 24 -46 63 -41 41z"/>
<path d="M332 600 c2 -8 8 -18 13 -22 6 -5 4 -8 -5 -8 -11 -1 -10 -4 4 -15 27
-20 35 -19 29 4 -6 24 -46 63 -41 41z"/>
<path d="M652 600 c2 -8 8 -18 13 -22 6 -5 4 -8 -5 -8 -11 -1 -10 -4 4 -15 27
-20 35 -19 29 4 -6 24 -46 63 -41 41z"/>
<path d="M205 561 c-19 -6 -27 -32 -13 -46 8 -8 -1 -36 -11 -31 -3 2 -15 -5
-25 -15 -16 -16 -17 -19 -3 -24 10 -5 14 -15 10 -36 -3 -20 0 -31 11 -35 9 -3
14 -10 11 -14 -7 -11 32 -23 45 -15 6 4 8 10 5 15 -3 4 6 11 20 14 14 4 25 11
25 16 0 6 19 10 43 10 31 0 38 3 27 10 -8 5 -31 10 -50 10 -20 0 -41 5 -48 12
-9 9 -18 9 -37 0 -31 -14 -35 -15 -35 -3 0 17 60 34 83 24 17 -8 30 -7 47 2
24 13 24 13 -11 20 -19 5 -49 7 -66 6 -19 -1 -33 3 -33 9 0 7 16 11 38 10 20
-1 59 -2 86 -1 42 1 47 3 36 16 -9 11 -16 12 -25 5 -8 -6 -21 -7 -36 -2 l-24
9 23 7 c33 11 27 26 -10 27 -18 0 -40 2 -48 3 -8 2 -24 0 -35 -3z m5 -26 c0
-3 -2 -5 -5 -5 -3 0 -5 2 -5 5 0 3 2 5 5 5 3 0 5 -2 5 -5z m60 1 c0 -11 -19
-15 -25 -6 -3 5 1 10 9 10 9 0 16 -2 16 -4z m80 -21 c0 -3 -2 -5 -5 -5 -3 0
-5 2 -5 5 0 3 2 5 5 5 3 0 5 -2 5 -5z m-130 -100 c0 -3 -2 -5 -5 -5 -3 0 -5 2
-5 5 0 3 2 5 5 5 3 0 5 -2 5 -5z"/>
<path d="M525 561 c-19 -6 -27 -32 -13 -46 8 -8 -1 -36 -11 -31 -3 2 -15 -5
-25 -15 -16 -16 -17 -19 -3 -24 10 -5 14 -15 10 -36 -3 -20 0 -31 11 -35 9 -3
14 -10 11 -14 -7 -11 32 -23 45 -15 6 4 8 10 5 15 -3 4 6 11 20 14 14 4 25 11
25 16 0 6 19 10 43 10 31 0 38 3 27 10 -8 5 -31 10 -50 10 -20 0 -41 5 -48 12
-9 9 -18 9 -37 0 -31 -14 -35 -15 -35 -3 0 17 60 34 83 24 17 -8 30 -7 47 2
24 13 24 13 -11 20 -19 5 -49 7 -66 6 -19 -1 -33 3 -33 9 0 7 16 11 38 10 20
-1 59 -2 86 -1 42 1 47 3 36 16 -9 11 -16 12 -25 5 -8 -6 -21 -7 -36 -2 l-24
9 23 7 c33 11 27 26 -10 27 -18 0 -40 2 -48 3 -8 2 -24 0 -35 -3z m5 -26 c0
-3 -2 -5 -5 -5 -3 0 -5 2 -5 5 0 3 2 5 5 5 3 0 5 -2 5 -5z m60 1 c0 -11 -19
-15 -25 -6 -3 5 1 10 9 10 9 0 16 -2 16 -4z m80 -21 c0 -3 -2 -5 -5 -5 -3 0
-5 2 -5 5 0 3 2 5 5 5 3 0 5 -2 5 -5z m-130 -100 c0 -3 -2 -5 -5 -5 -3 0 -5 2
-5 5 0 3 2 5 5 5 3 0 5 -2 5 -5z"/>
<path d="M845 561 c-19 -6 -27 -32 -13 -46 8 -8 -1 -36 -11 -31 -3 2 -15 -5
-25 -15 -16 -16 -17 -19 -3 -24 10 -5 14 -15 10 -36 -3 -20 0 -31 11 -35 9 -3
14 -10 11 -14 -7 -11 32 -23 45 -15 6 4 8 10 5 15 -3 4 6 11 20 14 14 4 25 11
25 16 0 6 9 10 20 10 11 0 20 5 20 10 0 6 -13 10 -28 10 -15 0 -33 5 -40 12
-9 9 -18 9 -37 0 -31 -14 -35 -15 -35 -3 0 18 60 34 84 23 18 -8 28 -7 42 2
17 13 16 14 -7 21 -13 5 -41 7 -61 7 -21 -1 -38 3 -38 8 0 5 25 9 55 9 62 -2
80 6 44 19 l-24 9 23 7 c33 11 27 26 -10 27 -18 0 -40 2 -48 3 -8 2 -24 0 -35
-3z m5 -26 c0 -3 -2 -5 -5 -5 -3 0 -5 2 -5 5 0 3 2 5 5 5 3 0 5 -2 5 -5z m60
1 c0 -11 -19 -15 -25 -6 -3 5 1 10 9 10 9 0 16 -2 16 -4z m-50 -121 c0 -3 -2
-5 -5 -5 -3 0 -5 2 -5 5 0 3 2 5 5 5 3 0 5 -2 5 -5z"/>
<path d="M88 527 c-16 -6 -28 -14 -28 -18 0 -12 74 -16 92 -5 15 9 15 11 0 23
-20 15 -28 15 -64 0z"/>
<path d="M408 527 c-16 -6 -28 -14 -28 -18 0 -12 74 -16 92 -5 15 9 15 11 0
23 -20 15 -28 15 -64 0z"/>
<path d="M728 527 c-16 -6 -28 -14 -28 -18 0 -12 74 -16 92 -5 15 9 15 11 0
23 -20 15 -28 15 -64 0z"/>
<path d="M10 515 c-11 -13 -8 -15 15 -15 23 0 26 2 15 15 -7 8 -14 15 -15 15
-1 0 -8 -7 -15 -15z m20 0 c0 -3 -2 -5 -5 -5 -3 0 -5 2 -5 5 0 3 2 5 5 5 3 0
5 -2 5 -5z"/>
<path d="M52 482 c-43 -4 -37 -27 7 -27 18 0 37 3 42 6 18 11 -15 24 -49 21z"/>
<path d="M372 482 c-43 -4 -37 -27 7 -27 18 0 37 3 42 6 18 11 -15 24 -49 21z"/>
<path d="M692 482 c-43 -4 -37 -27 7 -27 18 0 37 3 42 6 18 11 -15 24 -49 21z"/>
<path d="M0 465 c0 -3 2 -5 5 -5 3 0 5 2 5 5 0 3 -2 5 -5 5 -3 0 -5 -2 -5 -5z"/>
<path d="M54 425 c10 -8 24 -11 30 -7 6 3 22 5 35 3 13 -1 21 2 17 7 -8 13
-56 12 -56 -1 0 -7 -4 -7 -12 1 -7 7 -17 12 -22 12 -6 0 -2 -7 8 -15z"/>
<path d="M374 425 c10 -8 24 -11 30 -7 6 3 22 5 35 3 13 -1 21 2 17 7 -8 13
-56 12 -56 -1 0 -7 -4 -7 -12 1 -7 7 -17 12 -22 12 -6 0 -2 -7 8 -15z"/>
<path d="M694 425 c10 -8 24 -11 30 -7 6 3 22 5 35 3 13 -1 21 2 17 7 -8 13
-56 12 -56 -1 0 -7 -4 -7 -12 1 -7 7 -17 12 -22 12 -6 0 -2 -7 8 -15z"/>
<path d="M0 410 c0 -5 10 -10 23 -10 18 0 19 2 7 10 -19 13 -30 13 -30 0z"/>
<path d="M45 380 c-36 -9 -33 -11 22 -16 23 -2 45 1 48 6 3 6 2 10 -4 10 -5 0
-15 2 -23 4 -7 2 -26 0 -43 -4z"/>
<path d="M295 374 c-18 -14 -18 -14 2 -14 23 0 39 15 26 23 -5 3 -17 -1 -28
-9z"/>
<path d="M365 380 c-36 -9 -33 -11 22 -16 23 -2 45 1 48 6 3 6 2 10 -4 10 -5
0 -15 2 -23 4 -7 2 -26 0 -43 -4z"/>
<path d="M615 374 c-18 -14 -18 -14 2 -14 23 0 39 15 26 23 -5 3 -17 -1 -28
-9z"/>
<path d="M685 380 c-36 -9 -33 -11 22 -16 23 -2 45 1 48 6 3 6 2 10 -4 10 -5
0 -15 2 -23 4 -7 2 -26 0 -43 -4z"/>
<path d="M936 375 c-19 -15 -19 -15 2 -15 13 0 22 6 22 15 0 18 0 18 -24 0z"/>
<path d="M0 375 c0 -3 2 -5 5 -5 3 0 5 2 5 5 0 3 -2 5 -5 5 -3 0 -5 -2 -5 -5z"/>
<path d="M75 330 c-4 -6 5 -10 20 -10 15 0 24 -4 20 -10 -3 -5 -20 -10 -37
-10 -31 0 -31 0 -12 -21 10 -11 27 -25 38 -31 15 -8 18 -7 13 5 -7 18 7 31 46
46 38 15 35 -4 -5 -29 -27 -16 -29 -20 -14 -26 11 -4 25 1 40 15 22 21 63 30
51 11 -3 -5 -3 -10 2 -11 4 0 16 -2 25 -4 9 -2 19 3 22 11 3 8 -1 14 -9 14 -8
0 -15 7 -15 15 0 9 -6 12 -16 8 -8 -3 -25 -1 -37 4 -74 35 -120 43 -132 23z"/>
<path d="M395 330 c-4 -6 5 -10 20 -10 15 0 24 -4 20 -10 -3 -5 -20 -10 -37
-10 -31 0 -31 0 -12 -21 10 -11 27 -25 38 -31 15 -8 18 -7 13 5 -7 18 7 31 46
46 38 15 35 -4 -5 -29 -27 -16 -29 -20 -14 -26 11 -4 25 1 40 15 22 21 63 30
51 11 -3 -5 -3 -10 2 -11 4 0 16 -2 25 -4 9 -2 19 3 22 11 3 8 -1 14 -9 14 -8
0 -15 7 -15 15 0 9 -6 12 -16 8 -8 -3 -25 -1 -37 4 -74 35 -120 43 -132 23z"/>
<path d="M715 330 c-4 -6 5 -10 20 -10 15 0 24 -4 20 -10 -3 -5 -20 -10 -37
-10 -31 0 -31 0 -12 -21 10 -11 27 -25 38 -31 15 -8 18 -7 13 5 -7 18 7 31 46
46 38 15 35 -4 -5 -29 -27 -16 -29 -20 -14 -26 11 -4 25 1 40 15 22 21 63 30
51 11 -3 -5 -3 -10 2 -11 4 0 16 -2 25 -4 9 -2 19 3 22 11 3 8 -1 14 -9 14 -8
0 -15 7 -15 15 0 9 -6 12 -16 8 -8 -3 -25 -1 -37 4 -74 35 -120 43 -132 23z"/>
<path d="M12 280 c2 -8 8 -18 13 -22 6 -5 4 -8 -5 -8 -11 -1 -10 -4 4 -15 27
-20 35 -19 29 4 -6 24 -46 63 -41 41z"/>
<path d="M332 280 c2 -8 8 -18 13 -22 6 -5 4 -8 -5 -8 -11 -1 -10 -4 4 -15 27
-20 35 -19 29 4 -6 24 -46 63 -41 41z"/>
<path d="M652 280 c2 -8 8 -18 13 -22 6 -5 4 -8 -5 -8 -11 -1 -10 -4 4 -15 27
-20 35 -19 29 4 -6 24 -46 63 -41 41z"/>
<path d="M205 241 c-19 -6 -27 -32 -13 -46 8 -8 -1 -36 -11 -31 -3 2 -15 -5
-25 -15 -16 -16 -17 -19 -3 -24 10 -5 14 -15 10 -36 -3 -20 0 -31 11 -35 9 -3
14 -10 11 -14 -7 -11 32 -23 45 -15 6 4 8 10 5 15 -3 4 6 11 20 14 14 4 25 11
25 16 0 6 19 10 43 10 31 0 38 3 27 10 -8 5 -31 10 -50 10 -20 0 -41 5 -48 12
-9 9 -18 9 -37 0 -31 -14 -35 -15 -35 -3 0 17 60 34 83 24 17 -8 30 -7 47 2
24 13 24 13 -11 20 -19 5 -49 7 -66 6 -19 -1 -33 3 -33 9 0 7 16 11 38 10 20
-1 59 -2 86 -1 42 1 47 3 36 16 -9 11 -16 12 -25 5 -8 -6 -21 -7 -36 -2 l-24
9 23 7 c33 11 27 26 -10 27 -18 0 -40 2 -48 3 -8 2 -24 0 -35 -3z m5 -26 c0
-3 -2 -5 -5 -5 -3 0 -5 2 -5 5 0 3 2 5 5 5 3 0 5 -2 5 -5z m60 1 c0 -11 -19
-15 -25 -6 -3 5 1 10 9 10 9 0 16 -2 16 -4z m80 -21 c0 -3 -2 -5 -5 -5 -3 0
-5 2 -5 5 0 3 2 5 5 5 3 0 5 -2 5 -5z m-130 -100 c0 -3 -2 -5 -5 -5 -3 0 -5 2
-5 5 0 3 2 5 5 5 3 0 5 -2 5 -5z"/>
<path d="M525 241 c-19 -6 -27 -32 -13 -46 8 -8 -1 -36 -11 -31 -3 2 -15 -5
-25 -15 -16 -16 -17 -19 -3 -24 10 -5 14 -15 10 -36 -3 -20 0 -31 11 -35 9 -3
14 -10 11 -14 -7 -11 32 -23 45 -15 6 4 8 10 5 15 -3 4 6 11 20 14 14 4 25 11
25 16 0 6 19 10 43 10 31 0 38 3 27 10 -8 5 -31 10 -50 10 -20 0 -41 5 -48 12
-9 9 -18 9 -37 0 -31 -14 -35 -15 -35 -3 0 17 60 34 83 24 17 -8 30 -7 47 2
24 13 24 13 -11 20 -19 5 -49 7 -66 6 -19 -1 -33 3 -33 9 0 7 16 11 38 10 20
-1 59 -2 86 -1 42 1 47 3 36 16 -9 11 -16 12 -25 5 -8 -6 -21 -7 -36 -2 l-24
9 23 7 c33 11 27 26 -10 27 -18 0 -40 2 -48 3 -8 2 -24 0 -35 -3z m5 -26 c0
-3 -2 -5 -5 -5 -3 0 -5 2 -5 5 0 3 2 5 5 5 3 0 5 -2 5 -5z m60 1 c0 -11 -19
-15 -25 -6 -3 5 1 10 9 10 9 0 16 -2 16 -4z m80 -21 c0 -3 -2 -5 -5 -5 -3 0
-5 2 -5 5 0 3 2 5 5 5 3 0 5 -2 5 -5z m-130 -100 c0 -3 -2 -5 -5 -5 -3 0 -5 2
-5 5 0 3 2 5 5 5 3 0 5 -2 5 -5z"/>
<path d="M845 241 c-19 -6 -27 -32 -13 -46 8 -8 -1 -36 -11 -31 -3 2 -15 -5
-25 -15 -16 -16 -17 -19 -3 -24 10 -5 14 -15 10 -36 -3 -20 0 -31 11 -35 9 -3
14 -10 11 -14 -7 -11 32 -23 45 -15 6 4 8 10 5 15 -3 4 6 11 20 14 14 4 25 11
25 16 0 6 9 10 20 10 11 0 20 5 20 10 0 6 -13 10 -28 10 -15 0 -33 5 -40 12
-9 9 -18 9 -37 0 -31 -14 -35 -15 -35 -3 0 18 60 34 84 23 18 -8 28 -7 42 2
17 13 16 14 -7 21 -13 5 -41 7 -61 7 -21 -1 -38 3 -38 8 0 5 25 9 55 9 62 -2
80 6 44 19 l-24 9 23 7 c33 11 27 26 -10 27 -18 0 -40 2 -48 3 -8 2 -24 0 -35
-3z m5 -26 c0 -3 -2 -5 -5 -5 -3 0 -5 2 -5 5 0 3 2 5 5 5 3 0 5 -2 5 -5z m60
1 c0 -11 -19 -15 -25 -6 -3 5 1 10 9 10 9 0 16 -2 16 -4z m-50 -121 c0 -3 -2
-5 -5 -5 -3 0 -5 2 -5 5 0 3 2 5 5 5 3 0 5 -2 5 -5z"/>
<path d="M88 207 c-16 -6 -28 -14 -28 -18 0 -12 74 -16 92 -5 15 9 15 11 0 23
-20 15 -28 15 -64 0z"/>
<path d="M408 207 c-16 -6 -28 -14 -28 -18 0 -12 74 -16 92 -5 15 9 15 11 0
23 -20 15 -28 15 -64 0z"/>
<path d="M728 207 c-16 -6 -28 -14 -28 -18 0 -12 74 -16 92 -5 15 9 15 11 0
23 -20 15 -28 15 -64 0z"/>
<path d="M10 195 c-11 -13 -8 -15 15 -15 23 0 26 2 15 15 -7 8 -14 15 -15 15
-1 0 -8 -7 -15 -15z m20 0 c0 -3 -2 -5 -5 -5 -3 0 -5 2 -5 5 0 3 2 5 5 5 3 0
5 -2 5 -5z"/>
<path d="M52 162 c-43 -4 -37 -27 7 -27 18 0 37 3 42 6 18 11 -15 24 -49 21z"/>
<path d="M372 162 c-43 -4 -37 -27 7 -27 18 0 37 3 42 6 18 11 -15 24 -49 21z"/>
<path d="M692 162 c-43 -4 -37 -27 7 -27 18 0 37 3 42 6 18 11 -15 24 -49 21z"/>
<path d="M0 145 c0 -3 2 -5 5 -5 3 0 5 2 5 5 0 3 -2 5 -5 5 -3 0 -5 -2 -5 -5z"/>
<path d="M54 105 c10 -8 24 -11 30 -7 6 3 22 5 35 3 13 -1 21 2 17 7 -8 13
-56 12 -56 -1 0 -7 -4 -7 -12 1 -7 7 -17 12 -22 12 -6 0 -2 -7 8 -15z"/>
<path d="M374 105 c10 -8 24 -11 30 -7 6 3 22 5 35 3 13 -1 21 2 17 7 -8 13
-56 12 -56 -1 0 -7 -4 -7 -12 1 -7 7 -17 12 -22 12 -6 0 -2 -7 8 -15z"/>
<path d="M694 105 c10 -8 24 -11 30 -7 6 3 22 5 35 3 13 -1 21 2 17 7 -8 13
-56 12 -56 -1 0 -7 -4 -7 -12 1 -7 7 -17 12 -22 12 -6 0 -2 -7 8 -15z"/>
<path d="M0 90 c0 -5 10 -10 23 -10 18 0 19 2 7 10 -19 13 -30 13 -30 0z"/>
<path d="M45 60 c-36 -9 -33 -11 22 -16 23 -2 45 1 48 6 3 6 2 10 -4 10 -5 0
-15 2 -23 4 -7 2 -26 0 -43 -4z"/>
<path d="M295 54 c-18 -14 -18 -14 2 -14 23 0 39 15 26 23 -5 3 -17 -1 -28 -9z"/>
<path d="M365 60 c-36 -9 -33 -11 22 -16 23 -2 45 1 48 6 3 6 2 10 -4 10 -5 0
-15 2 -23 4 -7 2 -26 0 -43 -4z"/>
<path d="M615 54 c-18 -14 -18 -14 2 -14 23 0 39 15 26 23 -5 3 -17 -1 -28 -9z"/>
<path d="M685 60 c-36 -9 -33 -11 22 -16 23 -2 45 1 48 6 3 6 2 10 -4 10 -5 0
-15 2 -23 4 -7 2 -26 0 -43 -4z"/>
<path d="M936 55 c-19 -15 -19 -15 2 -15 13 0 22 6 22 15 0 18 0 18 -24 0z"/>
<path d="M0 55 c0 -3 2 -5 5 -5 3 0 5 2 5 5 0 3 -2 5 -5 5 -3 0 -5 -2 -5 -5z"/>
<path d="M75 10 c-4 -6 12 -10 42 -10 35 0 44 3 33 10 -20 13 -67 13 -75 0z"/>
<path d="M395 10 c-4 -6 12 -10 42 -10 35 0 44 3 33 10 -20 13 -67 13 -75 0z"/>
<path d="M715 10 c-4 -6 12 -10 42 -10 35 0 44 3 33 10 -20 13 -67 13 -75 0z"/>
</g>
<g transform="translate(0.000000,96.000000) scale(0.100000,-0.100000)"
fill="#686868" stroke="none">
<path d="M150 956 c0 -2 7 -6 15 -10 8 -3 15 -1 15 4 0 6 -7 10 -15 10 -8 0
-15 -2 -15 -4z"/>
<path d="M470 956 c0 -2 7 -6 15 -10 8 -3 15 -1 15 4 0 6 -7 10 -15 10 -8 0
-15 -2 -15 -4z"/>
<path d="M790 956 c0 -2 7 -6 15 -10 8 -3 15 -1 15 4 0 6 -7 10 -15 10 -8 0
-15 -2 -15 -4z"/>
<path d="M249 948 c-1 -5 -2 -11 -3 -15 -1 -5 -5 -13 -9 -19 -8 -14 15 -25 30
-16 6 5 4 16 -4 32 -7 14 -13 22 -14 18z"/>
<path d="M569 948 c-1 -5 -2 -11 -3 -15 -1 -5 -5 -13 -9 -19 -8 -14 15 -25 30
-16 6 5 4 16 -4 32 -7 14 -13 22 -14 18z"/>
<path d="M889 948 c-1 -5 -2 -11 -3 -15 -1 -5 -5 -13 -9 -19 -8 -14 15 -25 30
-16 6 5 4 16 -4 32 -7 14 -13 22 -14 18z"/>
<path d="M13 915 c0 -8 7 -15 15 -15 12 0 12 3 2 15 -7 8 -13 15 -15 15 -1 0
-2 -7 -2 -15z"/>
<path d="M82 921 c-11 -6 -11 -10 0 -18 24 -18 38 -24 38 -16 0 20 -25 42 -38
34z"/>
<path d="M333 915 c0 -8 7 -15 15 -15 12 0 12 3 2 15 -7 8 -13 15 -15 15 -1 0
-2 -7 -2 -15z"/>
<path d="M402 921 c-11 -6 -11 -10 0 -18 24 -18 38 -24 38 -16 0 20 -25 42
-38 34z"/>
<path d="M653 915 c0 -8 7 -15 15 -15 12 0 12 3 2 15 -7 8 -13 15 -15 15 -1 0
-2 -7 -2 -15z"/>
<path d="M722 921 c-11 -6 -11 -10 0 -18 24 -18 38 -24 38 -16 0 20 -25 42
-38 34z"/>
<path d="M140 900 c-12 -8 -12 -10 2 -15 20 -8 41 2 33 16 -8 11 -16 11 -35
-1z"/>
<path d="M460 900 c-12 -8 -12 -10 2 -15 20 -8 41 2 33 16 -8 11 -16 11 -35
-1z"/>
<path d="M780 900 c-12 -8 -12 -10 2 -15 20 -8 41 2 33 16 -8 11 -16 11 -35
-1z"/>
<path d="M286 865 c-11 -8 -15 -15 -9 -15 19 0 43 12 43 21 0 13 -12 11 -34
-6z"/>
<path d="M606 865 c-11 -8 -15 -15 -9 -15 19 0 43 12 43 21 0 13 -12 11 -34
-6z"/>
<path d="M926 865 c-11 -8 -15 -15 -9 -15 19 0 43 12 43 21 0 13 -12 11 -34
-6z"/>
<path d="M88 847 c-38 -15 -35 -27 6 -27 50 0 69 9 55 26 -13 16 -23 16 -61 1z"/>
<path d="M185 849 c-3 -4 -1 -10 4 -14 11 -6 3 -37 -8 -31 -3 2 -15 -5 -25
-15 -17 -17 -17 -19 -3 -25 9 -3 14 -10 11 -15 -3 -5 0 -9 5 -9 6 0 11 4 11 9
0 5 9 13 21 16 15 5 18 10 10 18 -18 18 -13 35 12 39 33 4 28 33 -6 34 -15 1
-30 -2 -32 -7z"/>
<path d="M408 847 c-38 -15 -35 -27 6 -27 50 0 69 9 55 26 -13 16 -23 16 -61
1z"/>
<path d="M505 849 c-3 -4 -1 -10 4 -14 11 -6 3 -37 -8 -31 -3 2 -15 -5 -25
-15 -17 -17 -17 -19 -3 -25 9 -3 14 -10 11 -15 -3 -5 0 -9 5 -9 6 0 11 4 11 9
0 5 9 13 21 16 15 5 18 10 10 18 -18 18 -13 35 12 39 33 4 28 33 -6 34 -15 1
-30 -2 -32 -7z"/>
<path d="M728 847 c-38 -15 -35 -27 6 -27 50 0 69 9 55 26 -13 16 -23 16 -61
1z"/>
<path d="M825 849 c-3 -4 -1 -10 4 -14 11 -6 3 -37 -8 -31 -3 2 -15 -5 -25
-15 -17 -17 -17 -19 -3 -25 9 -3 14 -10 11 -15 -3 -5 0 -9 5 -9 6 0 11 4 11 9
0 5 9 13 21 16 15 5 18 10 10 18 -18 18 -13 35 12 39 33 4 28 33 -6 34 -15 1
-30 -2 -32 -7z"/>
<path d="M290 830 c20 -13 33 -13 25 0 -3 6 -14 10 -23 10 -15 0 -15 -2 -2
-10z"/>
<path d="M610 830 c20 -13 33 -13 25 0 -3 6 -14 10 -23 10 -15 0 -15 -2 -2
-10z"/>
<path d="M930 830 c20 -13 33 -13 25 0 -3 6 -14 10 -23 10 -15 0 -15 -2 -2
-10z"/>
<path d="M10 825 c0 -3 2 -5 5 -5 3 0 5 2 5 5 0 3 -2 5 -5 5 -3 0 -5 -2 -5 -5z"/>
<path d="M330 825 c0 -3 2 -5 5 -5 3 0 5 2 5 5 0 3 -2 5 -5 5 -3 0 -5 -2 -5
-5z"/>
<path d="M650 825 c0 -3 2 -5 5 -5 3 0 5 2 5 5 0 3 -2 5 -5 5 -3 0 -5 -2 -5
-5z"/>
<path d="M27 794 c-11 -11 3 -24 18 -18 8 4 12 10 9 15 -6 11 -18 12 -27 3z"/>
<path d="M70 791 c0 -5 5 -13 10 -16 6 -3 10 -2 10 4 0 5 -4 13 -10 16 -5 3
-10 2 -10 -4z"/>
<path d="M347 794 c-11 -11 3 -24 18 -18 8 4 12 10 9 15 -6 11 -18 12 -27 3z"/>
<path d="M390 791 c0 -5 5 -13 10 -16 6 -3 10 -2 10 4 0 5 -4 13 -10 16 -5 3
-10 2 -10 -4z"/>
<path d="M667 794 c-11 -11 3 -24 18 -18 8 4 12 10 9 15 -6 11 -18 12 -27 3z"/>
<path d="M710 791 c0 -5 5 -13 10 -16 6 -3 10 -2 10 4 0 5 -4 13 -10 16 -5 3
-10 2 -10 -4z"/>
<path d="M80 749 c0 -5 5 -7 10 -4 6 3 10 8 10 11 0 2 -4 4 -10 4 -5 0 -10 -5
-10 -11z"/>
<path d="M400 749 c0 -5 5 -7 10 -4 6 3 10 8 10 11 0 2 -4 4 -10 4 -5 0 -10
-5 -10 -11z"/>
<path d="M720 749 c0 -5 5 -7 10 -4 6 3 10 8 10 11 0 2 -4 4 -10 4 -5 0 -10
-5 -10 -11z"/>
<path d="M0 730 c0 -5 10 -10 23 -10 18 0 19 2 7 10 -19 13 -30 13 -30 0z"/>
<path d="M190 724 c-33 -15 -34 -16 -16 -30 24 -17 33 -17 75 -3 34 12 37 19
19 37 -16 16 -35 15 -78 -4z"/>
<path d="M305 730 c3 -5 18 -10 33 -10 21 0 24 2 12 10 -20 13 -53 13 -45 0z"/>
<path d="M510 724 c-33 -15 -34 -16 -16 -30 24 -17 33 -17 75 -3 34 12 37 19
19 37 -16 16 -35 15 -78 -4z"/>
<path d="M625 730 c3 -5 18 -10 33 -10 21 0 24 2 12 10 -20 13 -53 13 -45 0z"/>
<path d="M830 724 c-33 -15 -34 -16 -16 -30 24 -17 33 -17 75 -3 34 12 37 19
19 37 -16 16 -35 15 -78 -4z"/>
<path d="M945 730 c3 -5 8 -10 11 -10 2 0 4 5 4 10 0 6 -5 10 -11 10 -5 0 -7
-4 -4 -10z"/>
<path d="M65 700 c-8 -13 20 -24 36 -15 8 6 7 10 -2 16 -18 11 -26 11 -34 -1z"/>
<path d="M385 700 c-8 -13 20 -24 36 -15 8 6 7 10 -2 16 -18 11 -26 11 -34 -1z"/>
<path d="M705 700 c-8 -13 20 -24 36 -15 8 6 7 10 -2 16 -18 11 -26 11 -34 -1z"/>
<path d="M75 650 c-3 -5 -2 -10 4 -10 5 0 13 5 16 10 3 6 2 10 -4 10 -5 0 -13
-4 -16 -10z"/>
<path d="M395 650 c-3 -5 -2 -10 4 -10 5 0 13 5 16 10 3 6 2 10 -4 10 -5 0
-13 -4 -16 -10z"/>
<path d="M715 650 c-3 -5 -2 -10 4 -10 5 0 13 5 16 10 3 6 2 10 -4 10 -5 0
-13 -4 -16 -10z"/>
<path d="M150 636 c0 -2 7 -6 15 -10 8 -3 15 -1 15 4 0 6 -7 10 -15 10 -8 0
-15 -2 -15 -4z"/>
<path d="M470 636 c0 -2 7 -6 15 -10 8 -3 15 -1 15 4 0 6 -7 10 -15 10 -8 0
-15 -2 -15 -4z"/>
<path d="M790 636 c0 -2 7 -6 15 -10 8 -3 15 -1 15 4 0 6 -7 10 -15 10 -8 0
-15 -2 -15 -4z"/>
<path d="M249 628 c-1 -5 -2 -11 -3 -15 -1 -5 -5 -13 -9 -19 -8 -14 15 -25 30
-16 6 5 4 16 -4 32 -7 14 -13 22 -14 18z"/>
<path d="M569 628 c-1 -5 -2 -11 -3 -15 -1 -5 -5 -13 -9 -19 -8 -14 15 -25 30
-16 6 5 4 16 -4 32 -7 14 -13 22 -14 18z"/>
<path d="M889 628 c-1 -5 -2 -11 -3 -15 -1 -5 -5 -13 -9 -19 -8 -14 15 -25 30
-16 6 5 4 16 -4 32 -7 14 -13 22 -14 18z"/>
<path d="M13 595 c0 -8 7 -15 15 -15 12 0 12 3 2 15 -7 8 -13 15 -15 15 -1 0
-2 -7 -2 -15z"/>
<path d="M82 601 c-11 -6 -11 -10 0 -18 24 -18 38 -24 38 -16 0 20 -25 42 -38
34z"/>
<path d="M333 595 c0 -8 7 -15 15 -15 12 0 12 3 2 15 -7 8 -13 15 -15 15 -1 0
-2 -7 -2 -15z"/>
<path d="M402 601 c-11 -6 -11 -10 0 -18 24 -18 38 -24 38 -16 0 20 -25 42
-38 34z"/>
<path d="M653 595 c0 -8 7 -15 15 -15 12 0 12 3 2 15 -7 8 -13 15 -15 15 -1 0
-2 -7 -2 -15z"/>
<path d="M722 601 c-11 -6 -11 -10 0 -18 24 -18 38 -24 38 -16 0 20 -25 42
-38 34z"/>
<path d="M140 580 c-12 -8 -12 -10 2 -15 20 -8 41 2 33 16 -8 11 -16 11 -35
-1z"/>
<path d="M460 580 c-12 -8 -12 -10 2 -15 20 -8 41 2 33 16 -8 11 -16 11 -35
-1z"/>
<path d="M780 580 c-12 -8 -12 -10 2 -15 20 -8 41 2 33 16 -8 11 -16 11 -35
-1z"/>
<path d="M286 545 c-11 -8 -15 -15 -9 -15 19 0 43 12 43 21 0 13 -12 11 -34
-6z"/>
<path d="M606 545 c-11 -8 -15 -15 -9 -15 19 0 43 12 43 21 0 13 -12 11 -34
-6z"/>
<path d="M926 545 c-11 -8 -15 -15 -9 -15 19 0 43 12 43 21 0 13 -12 11 -34
-6z"/>
<path d="M88 527 c-38 -15 -35 -27 6 -27 50 0 69 9 55 26 -13 16 -23 16 -61 1z"/>
<path d="M185 529 c-3 -4 -1 -10 4 -14 11 -6 3 -37 -8 -31 -3 2 -15 -5 -25
-15 -17 -17 -17 -19 -3 -25 9 -3 14 -10 11 -15 -3 -5 0 -9 5 -9 6 0 11 4 11 9
0 5 9 13 21 16 15 5 18 10 10 18 -18 18 -13 35 12 39 33 4 28 33 -6 34 -15 1
-30 -2 -32 -7z"/>
<path d="M408 527 c-38 -15 -35 -27 6 -27 50 0 69 9 55 26 -13 16 -23 16 -61
1z"/>
<path d="M505 529 c-3 -4 -1 -10 4 -14 11 -6 3 -37 -8 -31 -3 2 -15 -5 -25
-15 -17 -17 -17 -19 -3 -25 9 -3 14 -10 11 -15 -3 -5 0 -9 5 -9 6 0 11 4 11 9
0 5 9 13 21 16 15 5 18 10 10 18 -18 18 -13 35 12 39 33 4 28 33 -6 34 -15 1
-30 -2 -32 -7z"/>
<path d="M728 527 c-38 -15 -35 -27 6 -27 50 0 69 9 55 26 -13 16 -23 16 -61
1z"/>
<path d="M825 529 c-3 -4 -1 -10 4 -14 11 -6 3 -37 -8 -31 -3 2 -15 -5 -25
-15 -17 -17 -17 -19 -3 -25 9 -3 14 -10 11 -15 -3 -5 0 -9 5 -9 6 0 11 4 11 9
0 5 9 13 21 16 15 5 18 10 10 18 -18 18 -13 35 12 39 33 4 28 33 -6 34 -15 1
-30 -2 -32 -7z"/>
<path d="M290 510 c20 -13 33 -13 25 0 -3 6 -14 10 -23 10 -15 0 -15 -2 -2
-10z"/>
<path d="M610 510 c20 -13 33 -13 25 0 -3 6 -14 10 -23 10 -15 0 -15 -2 -2
-10z"/>
<path d="M930 510 c20 -13 33 -13 25 0 -3 6 -14 10 -23 10 -15 0 -15 -2 -2
-10z"/>
<path d="M10 505 c0 -3 2 -5 5 -5 3 0 5 2 5 5 0 3 -2 5 -5 5 -3 0 -5 -2 -5 -5z"/>
<path d="M330 505 c0 -3 2 -5 5 -5 3 0 5 2 5 5 0 3 -2 5 -5 5 -3 0 -5 -2 -5
-5z"/>
<path d="M650 505 c0 -3 2 -5 5 -5 3 0 5 2 5 5 0 3 -2 5 -5 5 -3 0 -5 -2 -5
-5z"/>
<path d="M27 474 c-11 -11 3 -24 18 -18 8 4 12 10 9 15 -6 11 -18 12 -27 3z"/>
<path d="M70 471 c0 -5 5 -13 10 -16 6 -3 10 -2 10 4 0 5 -4 13 -10 16 -5 3
-10 2 -10 -4z"/>
<path d="M347 474 c-11 -11 3 -24 18 -18 8 4 12 10 9 15 -6 11 -18 12 -27 3z"/>
<path d="M390 471 c0 -5 5 -13 10 -16 6 -3 10 -2 10 4 0 5 -4 13 -10 16 -5 3
-10 2 -10 -4z"/>
<path d="M667 474 c-11 -11 3 -24 18 -18 8 4 12 10 9 15 -6 11 -18 12 -27 3z"/>
<path d="M710 471 c0 -5 5 -13 10 -16 6 -3 10 -2 10 4 0 5 -4 13 -10 16 -5 3
-10 2 -10 -4z"/>
<path d="M80 429 c0 -5 5 -7 10 -4 6 3 10 8 10 11 0 2 -4 4 -10 4 -5 0 -10 -5
-10 -11z"/>
<path d="M400 429 c0 -5 5 -7 10 -4 6 3 10 8 10 11 0 2 -4 4 -10 4 -5 0 -10
-5 -10 -11z"/>
<path d="M720 429 c0 -5 5 -7 10 -4 6 3 10 8 10 11 0 2 -4 4 -10 4 -5 0 -10
-5 -10 -11z"/>
<path d="M0 410 c0 -5 10 -10 23 -10 18 0 19 2 7 10 -19 13 -30 13 -30 0z"/>
<path d="M190 404 c-33 -15 -34 -16 -16 -30 24 -17 33 -17 75 -3 34 12 37 19
19 37 -16 16 -35 15 -78 -4z"/>
<path d="M305 410 c3 -5 18 -10 33 -10 21 0 24 2 12 10 -20 13 -53 13 -45 0z"/>
<path d="M510 404 c-33 -15 -34 -16 -16 -30 24 -17 33 -17 75 -3 34 12 37 19
19 37 -16 16 -35 15 -78 -4z"/>
<path d="M625 410 c3 -5 18 -10 33 -10 21 0 24 2 12 10 -20 13 -53 13 -45 0z"/>
<path d="M830 404 c-33 -15 -34 -16 -16 -30 24 -17 33 -17 75 -3 34 12 37 19
19 37 -16 16 -35 15 -78 -4z"/>
<path d="M945 410 c3 -5 8 -10 11 -10 2 0 4 5 4 10 0 6 -5 10 -11 10 -5 0 -7
-4 -4 -10z"/>
<path d="M65 380 c-8 -13 20 -24 36 -15 8 6 7 10 -2 16 -18 11 -26 11 -34 -1z"/>
<path d="M385 380 c-8 -13 20 -24 36 -15 8 6 7 10 -2 16 -18 11 -26 11 -34 -1z"/>
<path d="M705 380 c-8 -13 20 -24 36 -15 8 6 7 10 -2 16 -18 11 -26 11 -34 -1z"/>
<path d="M75 330 c-3 -5 -2 -10 4 -10 5 0 13 5 16 10 3 6 2 10 -4 10 -5 0 -13
-4 -16 -10z"/>
<path d="M395 330 c-3 -5 -2 -10 4 -10 5 0 13 5 16 10 3 6 2 10 -4 10 -5 0
-13 -4 -16 -10z"/>
<path d="M715 330 c-3 -5 -2 -10 4 -10 5 0 13 5 16 10 3 6 2 10 -4 10 -5 0
-13 -4 -16 -10z"/>
<path d="M150 316 c0 -2 7 -6 15 -10 8 -3 15 -1 15 4 0 6 -7 10 -15 10 -8 0
-15 -2 -15 -4z"/>
<path d="M470 316 c0 -2 7 -6 15 -10 8 -3 15 -1 15 4 0 6 -7 10 -15 10 -8 0
-15 -2 -15 -4z"/>
<path d="M790 316 c0 -2 7 -6 15 -10 8 -3 15 -1 15 4 0 6 -7 10 -15 10 -8 0
-15 -2 -15 -4z"/>
<path d="M249 308 c-1 -5 -2 -11 -3 -15 -1 -5 -5 -13 -9 -19 -8 -14 15 -25 30
-16 6 5 4 16 -4 32 -7 14 -13 22 -14 18z"/>
<path d="M569 308 c-1 -5 -2 -11 -3 -15 -1 -5 -5 -13 -9 -19 -8 -14 15 -25 30
-16 6 5 4 16 -4 32 -7 14 -13 22 -14 18z"/>
<path d="M889 308 c-1 -5 -2 -11 -3 -15 -1 -5 -5 -13 -9 -19 -8 -14 15 -25 30
-16 6 5 4 16 -4 32 -7 14 -13 22 -14 18z"/>
<path d="M13 275 c0 -8 7 -15 15 -15 12 0 12 3 2 15 -7 8 -13 15 -15 15 -1 0
-2 -7 -2 -15z"/>
<path d="M82 281 c-11 -6 -11 -10 0 -18 24 -18 38 -24 38 -16 0 20 -25 42 -38
34z"/>
<path d="M333 275 c0 -8 7 -15 15 -15 12 0 12 3 2 15 -7 8 -13 15 -15 15 -1 0
-2 -7 -2 -15z"/>
<path d="M402 281 c-11 -6 -11 -10 0 -18 24 -18 38 -24 38 -16 0 20 -25 42
-38 34z"/>
<path d="M653 275 c0 -8 7 -15 15 -15 12 0 12 3 2 15 -7 8 -13 15 -15 15 -1 0
-2 -7 -2 -15z"/>
<path d="M722 281 c-11 -6 -11 -10 0 -18 24 -18 38 -24 38 -16 0 20 -25 42
-38 34z"/>
<path d="M140 260 c-12 -8 -12 -10 2 -15 20 -8 41 2 33 16 -8 11 -16 11 -35
-1z"/>
<path d="M460 260 c-12 -8 -12 -10 2 -15 20 -8 41 2 33 16 -8 11 -16 11 -35
-1z"/>
<path d="M780 260 c-12 -8 -12 -10 2 -15 20 -8 41 2 33 16 -8 11 -16 11 -35
-1z"/>
<path d="M286 225 c-11 -8 -15 -15 -9 -15 19 0 43 12 43 21 0 13 -12 11 -34
-6z"/>
<path d="M606 225 c-11 -8 -15 -15 -9 -15 19 0 43 12 43 21 0 13 -12 11 -34
-6z"/>
<path d="M926 225 c-11 -8 -15 -15 -9 -15 19 0 43 12 43 21 0 13 -12 11 -34
-6z"/>
<path d="M88 207 c-38 -15 -35 -27 6 -27 50 0 69 9 55 26 -13 16 -23 16 -61 1z"/>
<path d="M185 209 c-3 -4 -1 -10 4 -14 11 -6 3 -37 -8 -31 -3 2 -15 -5 -25
-15 -17 -17 -17 -19 -3 -25 9 -3 14 -10 11 -15 -3 -5 0 -9 5 -9 6 0 11 4 11 9
0 5 9 13 21 16 15 5 18 10 10 18 -18 18 -13 35 12 39 33 4 28 33 -6 34 -15 1
-30 -2 -32 -7z"/>
<path d="M408 207 c-38 -15 -35 -27 6 -27 50 0 69 9 55 26 -13 16 -23 16 -61
1z"/>
<path d="M505 209 c-3 -4 -1 -10 4 -14 11 -6 3 -37 -8 -31 -3 2 -15 -5 -25
-15 -17 -17 -17 -19 -3 -25 9 -3 14 -10 11 -15 -3 -5 0 -9 5 -9 6 0 11 4 11 9
0 5 9 13 21 16 15 5 18 10 10 18 -18 18 -13 35 12 39 33 4 28 33 -6 34 -15 1
-30 -2 -32 -7z"/>
<path d="M728 207 c-38 -15 -35 -27 6 -27 50 0 69 9 55 26 -13 16 -23 16 -61
1z"/>
<path d="M825 209 c-3 -4 -1 -10 4 -14 11 -6 3 -37 -8 -31 -3 2 -15 -5 -25
-15 -17 -17 -17 -19 -3 -25 9 -3 14 -10 11 -15 -3 -5 0 -9 5 -9 6 0 11 4 11 9
0 5 9 13 21 16 15 5 18 10 10 18 -18 18 -13 35 12 39 33 4 28 33 -6 34 -15 1
-30 -2 -32 -7z"/>
<path d="M290 190 c20 -13 33 -13 25 0 -3 6 -14 10 -23 10 -15 0 -15 -2 -2
-10z"/>
<path d="M610 190 c20 -13 33 -13 25 0 -3 6 -14 10 -23 10 -15 0 -15 -2 -2
-10z"/>
<path d="M930 190 c20 -13 33 -13 25 0 -3 6 -14 10 -23 10 -15 0 -15 -2 -2
-10z"/>
<path d="M10 185 c0 -3 2 -5 5 -5 3 0 5 2 5 5 0 3 -2 5 -5 5 -3 0 -5 -2 -5 -5z"/>
<path d="M330 185 c0 -3 2 -5 5 -5 3 0 5 2 5 5 0 3 -2 5 -5 5 -3 0 -5 -2 -5
-5z"/>
<path d="M650 185 c0 -3 2 -5 5 -5 3 0 5 2 5 5 0 3 -2 5 -5 5 -3 0 -5 -2 -5
-5z"/>
<path d="M27 154 c-11 -11 3 -24 18 -18 8 4 12 10 9 15 -6 11 -18 12 -27 3z"/>
<path d="M70 151 c0 -5 5 -13 10 -16 6 -3 10 -2 10 4 0 5 -4 13 -10 16 -5 3
-10 2 -10 -4z"/>
<path d="M347 154 c-11 -11 3 -24 18 -18 8 4 12 10 9 15 -6 11 -18 12 -27 3z"/>
<path d="M390 151 c0 -5 5 -13 10 -16 6 -3 10 -2 10 4 0 5 -4 13 -10 16 -5 3
-10 2 -10 -4z"/>
<path d="M667 154 c-11 -11 3 -24 18 -18 8 4 12 10 9 15 -6 11 -18 12 -27 3z"/>
<path d="M710 151 c0 -5 5 -13 10 -16 6 -3 10 -2 10 4 0 5 -4 13 -10 16 -5 3
-10 2 -10 -4z"/>
<path d="M80 109 c0 -5 5 -7 10 -4 6 3 10 8 10 11 0 2 -4 4 -10 4 -5 0 -10 -5
-10 -11z"/>
<path d="M400 109 c0 -5 5 -7 10 -4 6 3 10 8 10 11 0 2 -4 4 -10 4 -5 0 -10
-5 -10 -11z"/>
<path d="M720 109 c0 -5 5 -7 10 -4 6 3 10 8 10 11 0 2 -4 4 -10 4 -5 0 -10
-5 -10 -11z"/>
<path d="M0 90 c0 -5 10 -10 23 -10 18 0 19 2 7 10 -19 13 -30 13 -30 0z"/>
<path d="M190 84 c-33 -15 -34 -16 -16 -30 24 -17 33 -17 75 -3 34 12 37 19
19 37 -16 16 -35 15 -78 -4z"/>
<path d="M305 90 c3 -5 18 -10 33 -10 21 0 24 2 12 10 -20 13 -53 13 -45 0z"/>
<path d="M510 84 c-33 -15 -34 -16 -16 -30 24 -17 33 -17 75 -3 34 12 37 19
19 37 -16 16 -35 15 -78 -4z"/>
<path d="M625 90 c3 -5 18 -10 33 -10 21 0 24 2 12 10 -20 13 -53 13 -45 0z"/>
<path d="M830 84 c-33 -15 -34 -16 -16 -30 24 -17 33 -17 75 -3 34 12 37 19
19 37 -16 16 -35 15 -78 -4z"/>
<path d="M945 90 c3 -5 8 -10 11 -10 2 0 4 5 4 10 0 6 -5 10 -11 10 -5 0 -7
-4 -4 -10z"/>
<path d="M65 60 c-8 -13 20 -24 36 -15 8 6 7 10 -2 16 -18 11 -26 11 -34 -1z"/>
<path d="M385 60 c-8 -13 20 -24 36 -15 8 6 7 10 -2 16 -18 11 -26 11 -34 -1z"/>
<path d="M705 60 c-8 -13 20 -24 36 -15 8 6 7 10 -2 16 -18 11 -26 11 -34 -1z"/>
<path d="M75 10 c-3 -5 -2 -10 4 -10 5 0 13 5 16 10 3 6 2 10 -4 10 -5 0 -13
-4 -16 -10z"/>
<path d="M395 10 c-3 -5 -2 -10 4 -10 5 0 13 5 16 10 3 6 2 10 -4 10 -5 0 -13
-4 -16 -10z"/>
<path d="M715 10 c-3 -5 -2 -10 4 -10 5 0 13 5 16 10 3 6 2 10 -4 10 -5 0 -13
-4 -16 -10z"/>
</g>
<g transform="translate(0.000000,96.000000) scale(0.100000,-0.100000)"
fill="#970303" stroke="none">
<path d="M81 921 c-10 -7 -10 -10 -1 -16 6 -4 16 -3 22 3 13 13 -4 23 -21 13z"/>
<path d="M401 921 c-10 -7 -10 -10 -1 -16 6 -4 16 -3 22 3 13 13 -4 23 -21 13z"/>
<path d="M721 921 c-10 -7 -10 -10 -1 -16 6 -4 16 -3 22 3 13 13 -4 23 -21 13z"/>
<path d="M236 911 c-3 -5 0 -11 7 -13 17 -7 38 2 31 13 -7 12 -31 12 -38 0z"/>
<path d="M556 911 c-3 -5 0 -11 7 -13 17 -7 38 2 31 13 -7 12 -31 12 -38 0z"/>
<path d="M876 911 c-3 -5 0 -11 7 -13 17 -7 38 2 31 13 -7 12 -31 12 -38 0z"/>
<path d="M140 900 c-12 -8 -12 -10 2 -15 20 -8 41 2 33 16 -8 11 -16 11 -35
-1z"/>
<path d="M460 900 c-12 -8 -12 -10 2 -15 20 -8 41 2 33 16 -8 11 -16 11 -35
-1z"/>
<path d="M780 900 c-12 -8 -12 -10 2 -15 20 -8 41 2 33 16 -8 11 -16 11 -35
-1z"/>
<path d="M88 847 c-38 -15 -35 -27 6 -27 50 0 69 9 55 26 -13 16 -23 16 -61 1z"/>
<path d="M200 846 c-10 -13 -9 -17 4 -22 22 -8 49 3 44 19 -7 18 -33 20 -48 3z"/>
<path d="M270 855 c0 -3 2 -5 5 -5 3 0 5 2 5 5 0 3 -2 5 -5 5 -3 0 -5 -2 -5
-5z"/>
<path d="M408 847 c-38 -15 -35 -27 6 -27 50 0 69 9 55 26 -13 16 -23 16 -61
1z"/>
<path d="M520 846 c-10 -13 -9 -17 4 -22 22 -8 49 3 44 19 -7 18 -33 20 -48 3z"/>
<path d="M590 855 c0 -3 2 -5 5 -5 3 0 5 2 5 5 0 3 -2 5 -5 5 -3 0 -5 -2 -5
-5z"/>
<path d="M728 847 c-38 -15 -35 -27 6 -27 50 0 69 9 55 26 -13 16 -23 16 -61
1z"/>
<path d="M840 846 c-10 -13 -9 -17 4 -22 22 -8 49 3 44 19 -7 18 -33 20 -48 3z"/>
<path d="M910 855 c0 -3 2 -5 5 -5 3 0 5 2 5 5 0 3 -2 5 -5 5 -3 0 -5 -2 -5
-5z"/>
<path d="M27 794 c-11 -11 3 -24 18 -18 8 4 12 10 9 15 -6 11 -18 12 -27 3z"/>
<path d="M154 786 c-18 -14 -18 -15 -1 -21 9 -4 29 -4 43 -1 21 6 24 9 14 21
-16 19 -31 19 -56 1z"/>
<path d="M347 794 c-11 -11 3 -24 18 -18 8 4 12 10 9 15 -6 11 -18 12 -27 3z"/>
<path d="M474 786 c-18 -14 -18 -15 -1 -21 9 -4 29 -4 43 -1 21 6 24 9 14 21
-16 19 -31 19 -56 1z"/>
<path d="M667 794 c-11 -11 3 -24 18 -18 8 4 12 10 9 15 -6 11 -18 12 -27 3z"/>
<path d="M794 786 c-18 -14 -18 -15 -1 -21 9 -4 29 -4 43 -1 21 6 24 9 14 21
-16 19 -31 19 -56 1z"/>
<path d="M80 749 c0 -5 5 -7 10 -4 6 3 10 8 10 11 0 2 -4 4 -10 4 -5 0 -10 -5
-10 -11z"/>
<path d="M400 749 c0 -5 5 -7 10 -4 6 3 10 8 10 11 0 2 -4 4 -10 4 -5 0 -10
-5 -10 -11z"/>
<path d="M720 749 c0 -5 5 -7 10 -4 6 3 10 8 10 11 0 2 -4 4 -10 4 -5 0 -10
-5 -10 -11z"/>
<path d="M190 724 c-33 -15 -34 -16 -16 -30 24 -17 33 -17 75 -3 34 12 37 19
19 37 -16 16 -35 15 -78 -4z"/>
<path d="M510 724 c-33 -15 -34 -16 -16 -30 24 -17 33 -17 75 -3 34 12 37 19
19 37 -16 16 -35 15 -78 -4z"/>
<path d="M830 724 c-33 -15 -34 -16 -16 -30 24 -17 33 -17 75 -3 34 12 37 19
19 37 -16 16 -35 15 -78 -4z"/>
<path d="M65 700 c-8 -13 20 -24 36 -15 8 6 7 10 -2 16 -18 11 -26 11 -34 -1z"/>
<path d="M385 700 c-8 -13 20 -24 36 -15 8 6 7 10 -2 16 -18 11 -26 11 -34 -1z"/>
<path d="M705 700 c-8 -13 20 -24 36 -15 8 6 7 10 -2 16 -18 11 -26 11 -34 -1z"/>
<path d="M81 601 c-10 -7 -10 -10 -1 -16 6 -4 16 -3 22 3 13 13 -4 23 -21 13z"/>
<path d="M401 601 c-10 -7 -10 -10 -1 -16 6 -4 16 -3 22 3 13 13 -4 23 -21 13z"/>
<path d="M721 601 c-10 -7 -10 -10 -1 -16 6 -4 16 -3 22 3 13 13 -4 23 -21 13z"/>
<path d="M236 591 c-3 -5 0 -11 7 -13 17 -7 38 2 31 13 -7 12 -31 12 -38 0z"/>
<path d="M556 591 c-3 -5 0 -11 7 -13 17 -7 38 2 31 13 -7 12 -31 12 -38 0z"/>
<path d="M876 591 c-3 -5 0 -11 7 -13 17 -7 38 2 31 13 -7 12 -31 12 -38 0z"/>
<path d="M140 580 c-12 -8 -12 -10 2 -15 20 -8 41 2 33 16 -8 11 -16 11 -35
-1z"/>
<path d="M460 580 c-12 -8 -12 -10 2 -15 20 -8 41 2 33 16 -8 11 -16 11 -35
-1z"/>
<path d="M780 580 c-12 -8 -12 -10 2 -15 20 -8 41 2 33 16 -8 11 -16 11 -35
-1z"/>
<path d="M88 527 c-38 -15 -35 -27 6 -27 50 0 69 9 55 26 -13 16 -23 16 -61 1z"/>
<path d="M200 526 c-10 -13 -9 -17 4 -22 22 -8 49 3 44 19 -7 18 -33 20 -48 3z"/>
<path d="M270 535 c0 -3 2 -5 5 -5 3 0 5 2 5 5 0 3 -2 5 -5 5 -3 0 -5 -2 -5
-5z"/>
<path d="M408 527 c-38 -15 -35 -27 6 -27 50 0 69 9 55 26 -13 16 -23 16 -61
1z"/>
<path d="M520 526 c-10 -13 -9 -17 4 -22 22 -8 49 3 44 19 -7 18 -33 20 -48 3z"/>
<path d="M590 535 c0 -3 2 -5 5 -5 3 0 5 2 5 5 0 3 -2 5 -5 5 -3 0 -5 -2 -5
-5z"/>
<path d="M728 527 c-38 -15 -35 -27 6 -27 50 0 69 9 55 26 -13 16 -23 16 -61
1z"/>
<path d="M840 526 c-10 -13 -9 -17 4 -22 22 -8 49 3 44 19 -7 18 -33 20 -48 3z"/>
<path d="M910 535 c0 -3 2 -5 5 -5 3 0 5 2 5 5 0 3 -2 5 -5 5 -3 0 -5 -2 -5
-5z"/>
<path d="M27 474 c-11 -11 3 -24 18 -18 8 4 12 10 9 15 -6 11 -18 12 -27 3z"/>
<path d="M154 466 c-18 -14 -18 -15 -1 -21 9 -4 29 -4 43 -1 21 6 24 9 14 21
-16 19 -31 19 -56 1z"/>
<path d="M347 474 c-11 -11 3 -24 18 -18 8 4 12 10 9 15 -6 11 -18 12 -27 3z"/>
<path d="M474 466 c-18 -14 -18 -15 -1 -21 9 -4 29 -4 43 -1 21 6 24 9 14 21
-16 19 -31 19 -56 1z"/>
<path d="M667 474 c-11 -11 3 -24 18 -18 8 4 12 10 9 15 -6 11 -18 12 -27 3z"/>
<path d="M794 466 c-18 -14 -18 -15 -1 -21 9 -4 29 -4 43 -1 21 6 24 9 14 21
-16 19 -31 19 -56 1z"/>
<path d="M80 429 c0 -5 5 -7 10 -4 6 3 10 8 10 11 0 2 -4 4 -10 4 -5 0 -10 -5
-10 -11z"/>
<path d="M400 429 c0 -5 5 -7 10 -4 6 3 10 8 10 11 0 2 -4 4 -10 4 -5 0 -10
-5 -10 -11z"/>
<path d="M720 429 c0 -5 5 -7 10 -4 6 3 10 8 10 11 0 2 -4 4 -10 4 -5 0 -10
-5 -10 -11z"/>
<path d="M190 404 c-33 -15 -34 -16 -16 -30 24 -17 33 -17 75 -3 34 12 37 19
19 37 -16 16 -35 15 -78 -4z"/>
<path d="M510 404 c-33 -15 -34 -16 -16 -30 24 -17 33 -17 75 -3 34 12 37 19
19 37 -16 16 -35 15 -78 -4z"/>
<path d="M830 404 c-33 -15 -34 -16 -16 -30 24 -17 33 -17 75 -3 34 12 37 19
19 37 -16 16 -35 15 -78 -4z"/>
<path d="M65 380 c-8 -13 20 -24 36 -15 8 6 7 10 -2 16 -18 11 -26 11 -34 -1z"/>
<path d="M385 380 c-8 -13 20 -24 36 -15 8 6 7 10 -2 16 -18 11 -26 11 -34 -1z"/>
<path d="M705 380 c-8 -13 20 -24 36 -15 8 6 7 10 -2 16 -18 11 -26 11 -34 -1z"/>
<path d="M81 281 c-10 -7 -10 -10 -1 -16 6 -4 16 -3 22 3 13 13 -4 23 -21 13z"/>
<path d="M401 281 c-10 -7 -10 -10 -1 -16 6 -4 16 -3 22 3 13 13 -4 23 -21 13z"/>
<path d="M721 281 c-10 -7 -10 -10 -1 -16 6 -4 16 -3 22 3 13 13 -4 23 -21 13z"/>
<path d="M236 271 c-3 -5 0 -11 7 -13 17 -7 38 2 31 13 -7 12 -31 12 -38 0z"/>
<path d="M556 271 c-3 -5 0 -11 7 -13 17 -7 38 2 31 13 -7 12 -31 12 -38 0z"/>
<path d="M876 271 c-3 -5 0 -11 7 -13 17 -7 38 2 31 13 -7 12 -31 12 -38 0z"/>
<path d="M140 260 c-12 -8 -12 -10 2 -15 20 -8 41 2 33 16 -8 11 -16 11 -35
-1z"/>
<path d="M460 260 c-12 -8 -12 -10 2 -15 20 -8 41 2 33 16 -8 11 -16 11 -35
-1z"/>
<path d="M780 260 c-12 -8 -12 -10 2 -15 20 -8 41 2 33 16 -8 11 -16 11 -35
-1z"/>
<path d="M88 207 c-38 -15 -35 -27 6 -27 50 0 69 9 55 26 -13 16 -23 16 -61 1z"/>
<path d="M200 206 c-10 -13 -9 -17 4 -22 22 -8 49 3 44 19 -7 18 -33 20 -48 3z"/>
<path d="M270 215 c0 -3 2 -5 5 -5 3 0 5 2 5 5 0 3 -2 5 -5 5 -3 0 -5 -2 -5
-5z"/>
<path d="M408 207 c-38 -15 -35 -27 6 -27 50 0 69 9 55 26 -13 16 -23 16 -61
1z"/>
<path d="M520 206 c-10 -13 -9 -17 4 -22 22 -8 49 3 44 19 -7 18 -33 20 -48 3z"/>
<path d="M590 215 c0 -3 2 -5 5 -5 3 0 5 2 5 5 0 3 -2 5 -5 5 -3 0 -5 -2 -5
-5z"/>
<path d="M728 207 c-38 -15 -35 -27 6 -27 50 0 69 9 55 26 -13 16 -23 16 -61
1z"/>
<path d="M840 206 c-10 -13 -9 -17 4 -22 22 -8 49 3 44 19 -7 18 -33 20 -48 3z"/>
<path d="M910 215 c0 -3 2 -5 5 -5 3 0 5 2 5 5 0 3 -2 5 -5 5 -3 0 -5 -2 -5
-5z"/>
<path d="M27 154 c-11 -11 3 -24 18 -18 8 4 12 10 9 15 -6 11 -18 12 -27 3z"/>
<path d="M154 146 c-18 -14 -18 -15 -1 -21 9 -4 29 -4 43 -1 21 6 24 9 14 21
-16 19 -31 19 -56 1z"/>
<path d="M347 154 c-11 -11 3 -24 18 -18 8 4 12 10 9 15 -6 11 -18 12 -27 3z"/>
<path d="M474 146 c-18 -14 -18 -15 -1 -21 9 -4 29 -4 43 -1 21 6 24 9 14 21
-16 19 -31 19 -56 1z"/>
<path d="M667 154 c-11 -11 3 -24 18 -18 8 4 12 10 9 15 -6 11 -18 12 -27 3z"/>
<path d="M794 146 c-18 -14 -18 -15 -1 -21 9 -4 29 -4 43 -1 21 6 24 9 14 21
-16 19 -31 19 -56 1z"/>
<path d="M80 109 c0 -5 5 -7 10 -4 6 3 10 8 10 11 0 2 -4 4 -10 4 -5 0 -10 -5
-10 -11z"/>
<path d="M400 109 c0 -5 5 -7 10 -4 6 3 10 8 10 11 0 2 -4 4 -10 4 -5 0 -10
-5 -10 -11z"/>
<path d="M720 109 c0 -5 5 -7 10 -4 6 3 10 8 10 11 0 2 -4 4 -10 4 -5 0 -10
-5 -10 -11z"/>
<path d="M190 84 c-33 -15 -34 -16 -16 -30 24 -17 33 -17 75 -3 34 12 37 19
19 37 -16 16 -35 15 -78 -4z"/>
<path d="M510 84 c-33 -15 -34 -16 -16 -30 24 -17 33 -17 75 -3 34 12 37 19
19 37 -16 16 -35 15 -78 -4z"/>
<path d="M830 84 c-33 -15 -34 -16 -16 -30 24 -17 33 -17 75 -3 34 12 37 19
19 37 -16 16 -35 15 -78 -4z"/>
<path d="M65 60 c-8 -13 20 -24 36 -15 8 6 7 10 -2 16 -18 11 -26 11 -34 -1z"/>
<path d="M385 60 c-8 -13 20 -24 36 -15 8 6 7 10 -2 16 -18 11 -26 11 -34 -1z"/>
<path d="M705 60 c-8 -13 20 -24 36 -15 8 6 7 10 -2 16 -18 11 -26 11 -34 -1z"/>
</g>
<g transform="translate(0.000000,96.000000) scale(0.100000,-0.100000)"
fill="#aa0404" stroke="none">
<path d="M82 921 c-11 -7 -11 -9 0 -14 9 -3 15 1 15 9 0 8 -1 14 -1 14 -1 0
-7 -4 -14 -9z"/>
<path d="M402 921 c-11 -7 -11 -9 0 -14 9 -3 15 1 15 9 0 8 -1 14 -1 14 -1 0
-7 -4 -14 -9z"/>
<path d="M722 921 c-11 -7 -11 -9 0 -14 9 -3 15 1 15 9 0 8 -1 14 -1 14 -1 0
-7 -4 -14 -9z"/>
<path d="M236 911 c-3 -5 1 -11 9 -15 15 -6 29 7 18 18 -9 9 -21 8 -27 -3z
m24 -6 c0 -3 -2 -5 -5 -5 -3 0 -5 2 -5 5 0 3 2 5 5 5 3 0 5 -2 5 -5z"/>
<path d="M556 911 c-3 -5 1 -11 9 -15 15 -6 29 7 18 18 -9 9 -21 8 -27 -3z
m24 -6 c0 -3 -2 -5 -5 -5 -3 0 -5 2 -5 5 0 3 2 5 5 5 3 0 5 -2 5 -5z"/>
<path d="M876 911 c-3 -5 1 -11 9 -15 15 -6 29 7 18 18 -9 9 -21 8 -27 -3z
m24 -6 c0 -3 -2 -5 -5 -5 -3 0 -5 2 -5 5 0 3 2 5 5 5 3 0 5 -2 5 -5z"/>
<path d="M139 900 c-11 -7 -10 -10 4 -16 10 -4 23 -2 28 3 14 14 -13 24 -32
13z m21 -5 c0 -3 -2 -5 -5 -5 -3 0 -5 2 -5 5 0 3 2 5 5 5 3 0 5 -2 5 -5z"/>
<path d="M459 900 c-11 -7 -10 -10 4 -16 10 -4 23 -2 28 3 14 14 -13 24 -32
13z m21 -5 c0 -3 -2 -5 -5 -5 -3 0 -5 2 -5 5 0 3 2 5 5 5 3 0 5 -2 5 -5z"/>
<path d="M779 900 c-11 -7 -10 -10 4 -16 10 -4 23 -2 28 3 14 14 -13 24 -32
13z m21 -5 c0 -3 -2 -5 -5 -5 -3 0 -5 2 -5 5 0 3 2 5 5 5 3 0 5 -2 5 -5z"/>
<path d="M88 847 c-32 -12 -38 -33 -8 -23 55 17 65 18 50 6 -13 -10 -12 -11 3
-6 10 3 21 6 24 6 2 0 -2 7 -11 15 -17 17 -20 17 -58 2z"/>
<path d="M200 845 c-15 -18 0 -20 19 -2 11 10 13 9 7 -6 -4 -13 -2 -17 6 -15
18 6 16 32 -3 36 -9 1 -22 -4 -29 -13z"/>
<path d="M408 847 c-32 -12 -38 -33 -8 -23 55 17 65 18 50 6 -13 -10 -12 -11
3 -6 10 3 21 6 24 6 2 0 -2 7 -11 15 -17 17 -20 17 -58 2z"/>
<path d="M520 845 c-15 -18 0 -20 19 -2 11 10 13 9 7 -6 -4 -13 -2 -17 6 -15
18 6 16 32 -3 36 -9 1 -22 -4 -29 -13z"/>
<path d="M728 847 c-32 -12 -38 -33 -8 -23 55 17 65 18 50 6 -13 -10 -12 -11
3 -6 10 3 21 6 24 6 2 0 -2 7 -11 15 -17 17 -20 17 -58 2z"/>
<path d="M840 845 c-15 -18 0 -20 19 -2 11 10 13 9 7 -6 -4 -13 -2 -17 6 -15
18 6 16 32 -3 36 -9 1 -22 -4 -29 -13z"/>
<path d="M25 791 c-3 -5 -2 -12 3 -15 5 -3 9 1 9 9 0 17 -3 19 -12 6z"/>
<path d="M157 789 c-24 -14 -14 -25 20 -23 45 2 46 3 33 19 -14 17 -28 18 -53
4z m40 -16 c-4 -3 -10 -3 -14 0 -3 4 0 7 7 7 7 0 10 -3 7 -7z"/>
<path d="M345 791 c-3 -5 -2 -12 3 -15 5 -3 9 1 9 9 0 17 -3 19 -12 6z"/>
<path d="M477 789 c-24 -14 -14 -25 20 -23 45 2 46 3 33 19 -14 17 -28 18 -53
4z m40 -16 c-4 -3 -10 -3 -14 0 -3 4 0 7 7 7 7 0 10 -3 7 -7z"/>
<path d="M665 791 c-3 -5 -2 -12 3 -15 5 -3 9 1 9 9 0 17 -3 19 -12 6z"/>
<path d="M797 789 c-24 -14 -14 -25 20 -23 45 2 46 3 33 19 -14 17 -28 18 -53
4z m40 -16 c-4 -3 -10 -3 -14 0 -3 4 0 7 7 7 7 0 10 -3 7 -7z"/>
<path d="M50 785 c0 -3 2 -5 5 -5 3 0 5 2 5 5 0 3 -2 5 -5 5 -3 0 -5 -2 -5 -5z"/>
<path d="M370 785 c0 -3 2 -5 5 -5 3 0 5 2 5 5 0 3 -2 5 -5 5 -3 0 -5 -2 -5
-5z"/>
<path d="M690 785 c0 -3 2 -5 5 -5 3 0 5 2 5 5 0 3 -2 5 -5 5 -3 0 -5 -2 -5
-5z"/>
<path d="M80 755 c0 -3 2 -5 5 -5 3 0 5 2 5 5 0 3 -2 5 -5 5 -3 0 -5 -2 -5 -5z"/>
<path d="M400 755 c0 -3 2 -5 5 -5 3 0 5 2 5 5 0 3 -2 5 -5 5 -3 0 -5 -2 -5
-5z"/>
<path d="M720 755 c0 -3 2 -5 5 -5 3 0 5 2 5 5 0 3 -2 5 -5 5 -3 0 -5 -2 -5
-5z"/>
<path d="M190 724 c-33 -15 -34 -16 -16 -30 24 -17 33 -17 75 -3 34 12 37 19
19 37 -16 16 -35 15 -78 -4z m75 -3 c7 -12 -2 -17 -45 -26 l-35 -6 30 20 c34
23 41 25 50 12z"/>
<path d="M510 724 c-33 -15 -34 -16 -16 -30 24 -17 33 -17 75 -3 34 12 37 19
19 37 -16 16 -35 15 -78 -4z m75 -3 c7 -12 -2 -17 -45 -26 l-35 -6 30 20 c34
23 41 25 50 12z"/>
<path d="M830 724 c-33 -15 -34 -16 -16 -30 24 -17 33 -17 75 -3 34 12 37 19
19 37 -16 16 -35 15 -78 -4z m75 -3 c7 -12 -2 -17 -45 -26 l-35 -6 30 20 c34
23 41 25 50 12z"/>
<path d="M65 700 c-3 -5 -2 -10 4 -10 5 0 13 5 16 10 3 6 2 10 -4 10 -5 0 -13
-4 -16 -10z"/>
<path d="M385 700 c-3 -5 -2 -10 4 -10 5 0 13 5 16 10 3 6 2 10 -4 10 -5 0
-13 -4 -16 -10z"/>
<path d="M705 700 c-3 -5 -2 -10 4 -10 5 0 13 5 16 10 3 6 2 10 -4 10 -5 0
-13 -4 -16 -10z"/>
<path d="M94 688 c-4 -7 -3 -8 4 -4 12 7 16 16 8 16 -3 0 -8 -5 -12 -12z"/>
<path d="M414 688 c-4 -7 -3 -8 4 -4 12 7 16 16 8 16 -3 0 -8 -5 -12 -12z"/>
<path d="M734 688 c-4 -7 -3 -8 4 -4 7 4 12 9 12 12 0 8 -9 4 -16 -8z"/>
<path d="M82 601 c-11 -7 -11 -9 0 -14 9 -3 15 1 15 9 0 8 -1 14 -1 14 -1 0
-7 -4 -14 -9z"/>
<path d="M402 601 c-11 -7 -11 -9 0 -14 9 -3 15 1 15 9 0 8 -1 14 -1 14 -1 0
-7 -4 -14 -9z"/>
<path d="M722 601 c-11 -7 -11 -9 0 -14 9 -3 15 1 15 9 0 8 -1 14 -1 14 -1 0
-7 -4 -14 -9z"/>
<path d="M236 591 c-3 -5 1 -11 9 -15 15 -6 29 7 18 18 -9 9 -21 8 -27 -3z
m24 -6 c0 -3 -2 -5 -5 -5 -3 0 -5 2 -5 5 0 3 2 5 5 5 3 0 5 -2 5 -5z"/>
<path d="M556 591 c-3 -5 1 -11 9 -15 15 -6 29 7 18 18 -9 9 -21 8 -27 -3z
m24 -6 c0 -3 -2 -5 -5 -5 -3 0 -5 2 -5 5 0 3 2 5 5 5 3 0 5 -2 5 -5z"/>
<path d="M876 591 c-3 -5 1 -11 9 -15 15 -6 29 7 18 18 -9 9 -21 8 -27 -3z
m24 -6 c0 -3 -2 -5 -5 -5 -3 0 -5 2 -5 5 0 3 2 5 5 5 3 0 5 -2 5 -5z"/>
<path d="M139 580 c-11 -7 -10 -10 4 -16 10 -4 23 -2 28 3 14 14 -13 24 -32
13z m21 -5 c0 -3 -2 -5 -5 -5 -3 0 -5 2 -5 5 0 3 2 5 5 5 3 0 5 -2 5 -5z"/>
<path d="M459 580 c-11 -7 -10 -10 4 -16 10 -4 23 -2 28 3 14 14 -13 24 -32
13z m21 -5 c0 -3 -2 -5 -5 -5 -3 0 -5 2 -5 5 0 3 2 5 5 5 3 0 5 -2 5 -5z"/>
<path d="M779 580 c-11 -7 -10 -10 4 -16 10 -4 23 -2 28 3 14 14 -13 24 -32
13z m21 -5 c0 -3 -2 -5 -5 -5 -3 0 -5 2 -5 5 0 3 2 5 5 5 3 0 5 -2 5 -5z"/>
<path d="M88 527 c-32 -12 -38 -33 -8 -23 55 17 65 18 50 6 -13 -10 -12 -11 3
-6 10 3 21 6 24 6 2 0 -2 7 -11 15 -17 17 -20 17 -58 2z"/>
<path d="M200 525 c-15 -18 0 -20 19 -2 11 10 13 9 7 -6 -4 -13 -2 -17 6 -15
18 6 16 32 -3 36 -9 1 -22 -4 -29 -13z"/>
<path d="M408 527 c-32 -12 -38 -33 -8 -23 55 17 65 18 50 6 -13 -10 -12 -11
3 -6 10 3 21 6 24 6 2 0 -2 7 -11 15 -17 17 -20 17 -58 2z"/>
<path d="M520 525 c-15 -18 0 -20 19 -2 11 10 13 9 7 -6 -4 -13 -2 -17 6 -15
18 6 16 32 -3 36 -9 1 -22 -4 -29 -13z"/>
<path d="M728 527 c-32 -12 -38 -33 -8 -23 55 17 65 18 50 6 -13 -10 -12 -11
3 -6 10 3 21 6 24 6 2 0 -2 7 -11 15 -17 17 -20 17 -58 2z"/>
<path d="M840 525 c-15 -18 0 -20 19 -2 11 10 13 9 7 -6 -4 -13 -2 -17 6 -15
18 6 16 32 -3 36 -9 1 -22 -4 -29 -13z"/>
<path d="M25 471 c-3 -5 -2 -12 3 -15 5 -3 9 1 9 9 0 17 -3 19 -12 6z"/>
<path d="M157 469 c-24 -14 -14 -25 20 -23 45 2 46 3 33 19 -14 17 -28 18 -53
4z m40 -16 c-4 -3 -10 -3 -14 0 -3 4 0 7 7 7 7 0 10 -3 7 -7z"/>
<path d="M345 471 c-3 -5 -2 -12 3 -15 5 -3 9 1 9 9 0 17 -3 19 -12 6z"/>
<path d="M477 469 c-24 -14 -14 -25 20 -23 45 2 46 3 33 19 -14 17 -28 18 -53
4z m40 -16 c-4 -3 -10 -3 -14 0 -3 4 0 7 7 7 7 0 10 -3 7 -7z"/>
<path d="M665 471 c-3 -5 -2 -12 3 -15 5 -3 9 1 9 9 0 17 -3 19 -12 6z"/>
<path d="M797 469 c-24 -14 -14 -25 20 -23 45 2 46 3 33 19 -14 17 -28 18 -53
4z m40 -16 c-4 -3 -10 -3 -14 0 -3 4 0 7 7 7 7 0 10 -3 7 -7z"/>
<path d="M50 465 c0 -3 2 -5 5 -5 3 0 5 2 5 5 0 3 -2 5 -5 5 -3 0 -5 -2 -5 -5z"/>
<path d="M370 465 c0 -3 2 -5 5 -5 3 0 5 2 5 5 0 3 -2 5 -5 5 -3 0 -5 -2 -5
-5z"/>
<path d="M690 465 c0 -3 2 -5 5 -5 3 0 5 2 5 5 0 3 -2 5 -5 5 -3 0 -5 -2 -5
-5z"/>
<path d="M80 435 c0 -3 2 -5 5 -5 3 0 5 2 5 5 0 3 -2 5 -5 5 -3 0 -5 -2 -5 -5z"/>
<path d="M400 435 c0 -3 2 -5 5 -5 3 0 5 2 5 5 0 3 -2 5 -5 5 -3 0 -5 -2 -5
-5z"/>
<path d="M720 435 c0 -3 2 -5 5 -5 3 0 5 2 5 5 0 3 -2 5 -5 5 -3 0 -5 -2 -5
-5z"/>
<path d="M190 404 c-33 -15 -34 -16 -16 -30 24 -17 33 -17 75 -3 34 12 37 19
19 37 -16 16 -35 15 -78 -4z m75 -3 c7 -12 -2 -17 -45 -26 l-35 -6 30 20 c34
23 41 25 50 12z"/>
<path d="M510 404 c-33 -15 -34 -16 -16 -30 24 -17 33 -17 75 -3 34 12 37 19
19 37 -16 16 -35 15 -78 -4z m75 -3 c7 -12 -2 -17 -45 -26 l-35 -6 30 20 c34
23 41 25 50 12z"/>
<path d="M830 404 c-33 -15 -34 -16 -16 -30 24 -17 33 -17 75 -3 34 12 37 19
19 37 -16 16 -35 15 -78 -4z m75 -3 c7 -12 -2 -17 -45 -26 l-35 -6 30 20 c34
23 41 25 50 12z"/>
<path d="M65 380 c-3 -5 -2 -10 4 -10 5 0 13 5 16 10 3 6 2 10 -4 10 -5 0 -13
-4 -16 -10z"/>
<path d="M385 380 c-3 -5 -2 -10 4 -10 5 0 13 5 16 10 3 6 2 10 -4 10 -5 0
-13 -4 -16 -10z"/>
<path d="M705 380 c-3 -5 -2 -10 4 -10 5 0 13 5 16 10 3 6 2 10 -4 10 -5 0
-13 -4 -16 -10z"/>
<path d="M94 368 c-4 -7 -3 -8 4 -4 7 4 12 9 12 12 0 8 -9 4 -16 -8z"/>
<path d="M414 368 c-4 -7 -3 -8 4 -4 12 7 16 16 8 16 -3 0 -8 -5 -12 -12z"/>
<path d="M734 368 c-4 -7 -3 -8 4 -4 7 4 12 9 12 12 0 8 -9 4 -16 -8z"/>
<path d="M82 281 c-11 -7 -11 -9 0 -14 9 -3 15 1 15 9 0 8 -1 14 -1 14 -1 0
-7 -4 -14 -9z"/>
<path d="M402 281 c-11 -7 -11 -9 0 -14 9 -3 15 1 15 9 0 8 -1 14 -1 14 -1 0
-7 -4 -14 -9z"/>
<path d="M722 281 c-11 -7 -11 -9 0 -14 9 -3 15 1 15 9 0 8 -1 14 -1 14 -1 0
-7 -4 -14 -9z"/>
<path d="M236 271 c-3 -5 1 -11 9 -15 15 -6 29 7 18 18 -9 9 -21 8 -27 -3z
m24 -6 c0 -3 -2 -5 -5 -5 -3 0 -5 2 -5 5 0 3 2 5 5 5 3 0 5 -2 5 -5z"/>
<path d="M556 271 c-3 -5 1 -11 9 -15 15 -6 29 7 18 18 -9 9 -21 8 -27 -3z
m24 -6 c0 -3 -2 -5 -5 -5 -3 0 -5 2 -5 5 0 3 2 5 5 5 3 0 5 -2 5 -5z"/>
<path d="M876 271 c-3 -5 1 -11 9 -15 15 -6 29 7 18 18 -9 9 -21 8 -27 -3z
m24 -6 c0 -3 -2 -5 -5 -5 -3 0 -5 2 -5 5 0 3 2 5 5 5 3 0 5 -2 5 -5z"/>
<path d="M139 260 c-11 -7 -10 -10 4 -16 10 -4 23 -2 28 3 14 14 -13 24 -32
13z m21 -5 c0 -3 -2 -5 -5 -5 -3 0 -5 2 -5 5 0 3 2 5 5 5 3 0 5 -2 5 -5z"/>
<path d="M459 260 c-11 -7 -10 -10 4 -16 10 -4 23 -2 28 3 14 14 -13 24 -32
13z m21 -5 c0 -3 -2 -5 -5 -5 -3 0 -5 2 -5 5 0 3 2 5 5 5 3 0 5 -2 5 -5z"/>
<path d="M779 260 c-11 -7 -10 -10 4 -16 10 -4 23 -2 28 3 14 14 -13 24 -32
13z m21 -5 c0 -3 -2 -5 -5 -5 -3 0 -5 2 -5 5 0 3 2 5 5 5 3 0 5 -2 5 -5z"/>
<path d="M88 207 c-32 -12 -38 -33 -8 -23 55 17 65 18 50 6 -13 -10 -12 -11 3
-6 10 3 21 6 24 6 2 0 -2 7 -11 15 -17 17 -20 17 -58 2z"/>
<path d="M200 205 c-15 -18 0 -20 19 -2 11 10 13 9 7 -6 -4 -13 -2 -17 6 -15
18 6 16 32 -3 36 -9 1 -22 -4 -29 -13z"/>
<path d="M408 207 c-32 -12 -38 -33 -8 -23 55 17 65 18 50 6 -13 -10 -12 -11
3 -6 10 3 21 6 24 6 2 0 -2 7 -11 15 -17 17 -20 17 -58 2z"/>
<path d="M520 205 c-15 -18 0 -20 19 -2 11 10 13 9 7 -6 -4 -13 -2 -17 6 -15
18 6 16 32 -3 36 -9 1 -22 -4 -29 -13z"/>
<path d="M728 207 c-32 -12 -38 -33 -8 -23 55 17 65 18 50 6 -13 -10 -12 -11
3 -6 10 3 21 6 24 6 2 0 -2 7 -11 15 -17 17 -20 17 -58 2z"/>
<path d="M840 205 c-15 -18 0 -20 19 -2 11 10 13 9 7 -6 -4 -13 -2 -17 6 -15
18 6 16 32 -3 36 -9 1 -22 -4 -29 -13z"/>
<path d="M25 151 c-3 -5 -2 -12 3 -15 5 -3 9 1 9 9 0 17 -3 19 -12 6z"/>
<path d="M157 149 c-24 -14 -14 -25 20 -23 45 2 46 3 33 19 -14 17 -28 18 -53
4z m40 -16 c-4 -3 -10 -3 -14 0 -3 4 0 7 7 7 7 0 10 -3 7 -7z"/>
<path d="M345 151 c-3 -5 -2 -12 3 -15 5 -3 9 1 9 9 0 17 -3 19 -12 6z"/>
<path d="M477 149 c-24 -14 -14 -25 20 -23 45 2 46 3 33 19 -14 17 -28 18 -53
4z m40 -16 c-4 -3 -10 -3 -14 0 -3 4 0 7 7 7 7 0 10 -3 7 -7z"/>
<path d="M665 151 c-3 -5 -2 -12 3 -15 5 -3 9 1 9 9 0 17 -3 19 -12 6z"/>
<path d="M797 149 c-24 -14 -14 -25 20 -23 45 2 46 3 33 19 -14 17 -28 18 -53
4z m40 -16 c-4 -3 -10 -3 -14 0 -3 4 0 7 7 7 7 0 10 -3 7 -7z"/>
<path d="M50 145 c0 -3 2 -5 5 -5 3 0 5 2 5 5 0 3 -2 5 -5 5 -3 0 -5 -2 -5 -5z"/>
<path d="M370 145 c0 -3 2 -5 5 -5 3 0 5 2 5 5 0 3 -2 5 -5 5 -3 0 -5 -2 -5
-5z"/>
<path d="M690 145 c0 -3 2 -5 5 -5 3 0 5 2 5 5 0 3 -2 5 -5 5 -3 0 -5 -2 -5
-5z"/>
<path d="M80 115 c0 -3 2 -5 5 -5 3 0 5 2 5 5 0 3 -2 5 -5 5 -3 0 -5 -2 -5 -5z"/>
<path d="M400 115 c0 -3 2 -5 5 -5 3 0 5 2 5 5 0 3 -2 5 -5 5 -3 0 -5 -2 -5
-5z"/>
<path d="M720 115 c0 -3 2 -5 5 -5 3 0 5 2 5 5 0 3 -2 5 -5 5 -3 0 -5 -2 -5
-5z"/>
<path d="M190 84 c-33 -15 -34 -16 -16 -30 24 -17 33 -17 75 -3 34 12 37 19
19 37 -16 16 -35 15 -78 -4z m75 -3 c7 -12 -2 -17 -45 -26 l-35 -6 30 20 c34
23 41 25 50 12z"/>
<path d="M510 84 c-33 -15 -34 -16 -16 -30 24 -17 33 -17 75 -3 34 12 37 19
19 37 -16 16 -35 15 -78 -4z m75 -3 c7 -12 -2 -17 -45 -26 l-35 -6 30 20 c34
23 41 25 50 12z"/>
<path d="M830 84 c-33 -15 -34 -16 -16 -30 24 -17 33 -17 75 -3 34 12 37 19
19 37 -16 16 -35 15 -78 -4z m75 -3 c7 -12 -2 -17 -45 -26 l-35 -6 30 20 c34
23 41 25 50 12z"/>
<path d="M65 60 c-3 -5 -2 -10 4 -10 5 0 13 5 16 10 3 6 2 10 -4 10 -5 0 -13
-4 -16 -10z"/>
<path d="M385 60 c-3 -5 -2 -10 4 -10 5 0 13 5 16 10 3 6 2 10 -4 10 -5 0 -13
-4 -16 -10z"/>
<path d="M705 60 c-3 -5 -2 -10 4 -10 5 0 13 5 16 10 3 6 2 10 -4 10 -5 0 -13
-4 -16 -10z"/>
<path d="M94 48 c-4 -7 -3 -8 4 -4 7 4 12 9 12 12 0 8 -9 4 -16 -8z"/>
<path d="M414 48 c-4 -7 -3 -8 4 -4 7 4 12 9 12 12 0 8 -9 4 -16 -8z"/>
<path d="M734 48 c-4 -7 -3 -8 4 -4 7 4 12 9 12 12 0 8 -9 4 -16 -8z"/>
</g>
<g transform="translate(0.000000,96.000000) scale(0.100000,-0.100000)"
fill="#8f0303" stroke="none">
<path d="M90 925 c0 -3 2 -5 5 -5 3 0 5 2 5 5 0 3 -2 5 -5 5 -3 0 -5 -2 -5 -5z"/>
<path d="M410 925 c0 -3 2 -5 5 -5 3 0 5 2 5 5 0 3 -2 5 -5 5 -3 0 -5 -2 -5
-5z"/>
<path d="M730 925 c0 -3 2 -5 5 -5 3 0 5 2 5 5 0 3 -2 5 -5 5 -3 0 -5 -2 -5
-5z"/>
<path d="M70 915 c0 -3 2 -5 5 -5 3 0 5 2 5 5 0 3 -2 5 -5 5 -3 0 -5 -2 -5 -5z"/>
<path d="M234 908 c-4 -7 -3 -8 4 -4 12 7 16 16 8 16 -3 0 -8 -5 -12 -12z"/>
<path d="M390 915 c0 -3 2 -5 5 -5 3 0 5 2 5 5 0 3 -2 5 -5 5 -3 0 -5 -2 -5
-5z"/>
<path d="M554 908 c-4 -7 -3 -8 4 -4 12 7 16 16 8 16 -3 0 -8 -5 -12 -12z"/>
<path d="M710 915 c0 -3 2 -5 5 -5 3 0 5 2 5 5 0 3 -2 5 -5 5 -3 0 -5 -2 -5
-5z"/>
<path d="M874 908 c-4 -7 -3 -8 4 -4 12 7 16 16 8 16 -3 0 -8 -5 -12 -12z"/>
<path d="M90 905 c0 -3 2 -5 5 -5 3 0 5 2 5 5 0 3 -2 5 -5 5 -3 0 -5 -2 -5 -5z"/>
<path d="M254 898 c-4 -7 -3 -8 4 -4 12 7 16 16 8 16 -3 0 -8 -5 -12 -12z"/>
<path d="M410 905 c0 -3 2 -5 5 -5 3 0 5 2 5 5 0 3 -2 5 -5 5 -3 0 -5 -2 -5
-5z"/>
<path d="M574 898 c-4 -7 -3 -8 4 -4 12 7 16 16 8 16 -3 0 -8 -5 -12 -12z"/>
<path d="M730 905 c0 -3 2 -5 5 -5 3 0 5 2 5 5 0 3 -2 5 -5 5 -3 0 -5 -2 -5
-5z"/>
<path d="M894 898 c-4 -7 -3 -8 4 -4 12 7 16 16 8 16 -3 0 -8 -5 -12 -12z"/>
<path d="M130 895 c0 -3 2 -5 5 -5 3 0 5 2 5 5 0 3 -2 5 -5 5 -3 0 -5 -2 -5
-5z"/>
<path d="M450 895 c0 -3 2 -5 5 -5 3 0 5 2 5 5 0 3 -2 5 -5 5 -3 0 -5 -2 -5
-5z"/>
<path d="M770 895 c0 -3 2 -5 5 -5 3 0 5 2 5 5 0 3 -2 5 -5 5 -3 0 -5 -2 -5
-5z"/>
<path d="M160 885 c0 -3 2 -5 5 -5 3 0 5 2 5 5 0 3 -2 5 -5 5 -3 0 -5 -2 -5
-5z"/>
<path d="M480 885 c0 -3 2 -5 5 -5 3 0 5 2 5 5 0 3 -2 5 -5 5 -3 0 -5 -2 -5
-5z"/>
<path d="M800 885 c0 -3 2 -5 5 -5 3 0 5 2 5 5 0 3 -2 5 -5 5 -3 0 -5 -2 -5
-5z"/>
<path d="M88 847 c-16 -6 -28 -14 -28 -19 0 -11 0 -11 45 12 41 21 30 26 -17
7z"/>
<path d="M204 848 c-4 -7 -3 -8 4 -4 12 7 16 16 8 16 -3 0 -8 -5 -12 -12z"/>
<path d="M408 847 c-16 -6 -28 -14 -28 -19 0 -11 0 -11 45 12 41 21 30 26 -17
7z"/>
<path d="M524 848 c-4 -7 -3 -8 4 -4 12 7 16 16 8 16 -3 0 -8 -5 -12 -12z"/>
<path d="M728 847 c-16 -6 -28 -14 -28 -19 0 -11 0 -11 45 12 41 21 30 26 -17
7z"/>
<path d="M844 848 c-4 -7 -3 -8 4 -4 12 7 16 16 8 16 -3 0 -8 -5 -12 -12z"/>
<path d="M230 835 c-8 -9 -8 -15 -2 -15 12 0 26 19 19 26 -2 2 -10 -2 -17 -11z"/>
<path d="M550 835 c-8 -9 -8 -15 -2 -15 12 0 26 19 19 26 -2 2 -10 -2 -17 -11z"/>
<path d="M870 835 c-8 -9 -8 -15 -2 -15 12 0 26 19 19 26 -2 2 -10 -2 -17 -11z"/>
<path d="M130 830 c-8 -5 -10 -10 -5 -10 6 0 17 5 25 10 8 5 11 10 5 10 -5 0
-17 -5 -25 -10z"/>
<path d="M450 830 c-8 -5 -10 -10 -5 -10 6 0 17 5 25 10 8 5 11 10 5 10 -5 0
-17 -5 -25 -10z"/>
<path d="M770 830 c-8 -5 -10 -10 -5 -10 6 0 17 5 25 10 8 5 11 10 5 10 -5 0
-17 -5 -25 -10z"/>
<path d="M154 784 c-18 -14 -18 -14 6 -3 31 14 36 19 24 19 -6 0 -19 -7 -30
-16z"/>
<path d="M474 784 c-18 -14 -18 -14 6 -3 31 14 36 19 24 19 -6 0 -19 -7 -30
-16z"/>
<path d="M794 784 c-18 -14 -18 -14 6 -3 31 14 36 19 24 19 -6 0 -19 -7 -30
-16z"/>
<path d="M25 780 c3 -5 8 -10 11 -10 3 0 2 5 -1 10 -3 6 -8 10 -11 10 -3 0 -2
-4 1 -10z"/>
<path d="M50 785 c0 -3 2 -5 5 -5 3 0 5 2 5 5 0 3 -2 5 -5 5 -3 0 -5 -2 -5 -5z"/>
<path d="M192 774 c-14 -16 -5 -18 17 -5 7 5 9 11 5 14 -5 3 -15 -1 -22 -9z"/>
<path d="M345 780 c3 -5 8 -10 11 -10 3 0 2 5 -1 10 -3 6 -8 10 -11 10 -3 0
-2 -4 1 -10z"/>
<path d="M370 785 c0 -3 2 -5 5 -5 3 0 5 2 5 5 0 3 -2 5 -5 5 -3 0 -5 -2 -5
-5z"/>
<path d="M512 774 c-14 -16 -5 -18 17 -5 7 5 9 11 5 14 -5 3 -15 -1 -22 -9z"/>
<path d="M665 780 c3 -5 8 -10 11 -10 3 0 2 5 -1 10 -3 6 -8 10 -11 10 -3 0
-2 -4 1 -10z"/>
<path d="M690 785 c0 -3 2 -5 5 -5 3 0 5 2 5 5 0 3 -2 5 -5 5 -3 0 -5 -2 -5
-5z"/>
<path d="M832 774 c-14 -16 -5 -18 17 -5 7 5 9 11 5 14 -5 3 -15 -1 -22 -9z"/>
<path d="M190 724 c-33 -15 -34 -16 -16 -30 24 -17 33 -17 75 -3 34 12 37 19
19 37 -16 16 -35 15 -78 -4z m72 -9 c-4 -14 -53 -26 -77 -18 -18 6 -17 8 10
19 34 15 71 14 67 -1z"/>
<path d="M510 724 c-33 -15 -34 -16 -16 -30 24 -17 33 -17 75 -3 34 12 37 19
19 37 -16 16 -35 15 -78 -4z m72 -9 c-4 -14 -53 -26 -77 -18 -18 6 -17 8 10
19 34 15 71 14 67 -1z"/>
<path d="M830 724 c-33 -15 -34 -16 -16 -30 24 -17 33 -17 75 -3 34 12 37 19
19 37 -16 16 -35 15 -78 -4z m72 -9 c-4 -14 -53 -26 -77 -18 -18 6 -17 8 10
19 34 15 71 14 67 -1z"/>
<path d="M64 698 c-4 -7 -3 -8 4 -4 7 4 12 9 12 12 0 8 -9 4 -16 -8z"/>
<path d="M384 698 c-4 -7 -3 -8 4 -4 12 7 16 16 8 16 -3 0 -8 -5 -12 -12z"/>
<path d="M704 698 c-4 -7 -3 -8 4 -4 12 7 16 16 8 16 -3 0 -8 -5 -12 -12z"/>
<path d="M94 688 c-4 -7 -3 -8 4 -4 12 7 16 16 8 16 -3 0 -8 -5 -12 -12z"/>
<path d="M414 688 c-4 -7 -3 -8 4 -4 12 7 16 16 8 16 -3 0 -8 -5 -12 -12z"/>
<path d="M734 688 c-4 -7 -3 -8 4 -4 7 4 12 9 12 12 0 8 -9 4 -16 -8z"/>
<path d="M90 605 c0 -3 2 -5 5 -5 3 0 5 2 5 5 0 3 -2 5 -5 5 -3 0 -5 -2 -5 -5z"/>
<path d="M410 605 c0 -3 2 -5 5 -5 3 0 5 2 5 5 0 3 -2 5 -5 5 -3 0 -5 -2 -5
-5z"/>
<path d="M730 605 c0 -3 2 -5 5 -5 3 0 5 2 5 5 0 3 -2 5 -5 5 -3 0 -5 -2 -5
-5z"/>
<path d="M70 595 c0 -3 2 -5 5 -5 3 0 5 2 5 5 0 3 -2 5 -5 5 -3 0 -5 -2 -5 -5z"/>
<path d="M234 588 c-4 -7 -3 -8 4 -4 12 7 16 16 8 16 -3 0 -8 -5 -12 -12z"/>
<path d="M390 595 c0 -3 2 -5 5 -5 3 0 5 2 5 5 0 3 -2 5 -5 5 -3 0 -5 -2 -5
-5z"/>
<path d="M554 588 c-4 -7 -3 -8 4 -4 12 7 16 16 8 16 -3 0 -8 -5 -12 -12z"/>
<path d="M710 595 c0 -3 2 -5 5 -5 3 0 5 2 5 5 0 3 -2 5 -5 5 -3 0 -5 -2 -5
-5z"/>
<path d="M874 588 c-4 -7 -3 -8 4 -4 12 7 16 16 8 16 -3 0 -8 -5 -12 -12z"/>
<path d="M90 585 c0 -3 2 -5 5 -5 3 0 5 2 5 5 0 3 -2 5 -5 5 -3 0 -5 -2 -5 -5z"/>
<path d="M254 578 c-4 -7 -3 -8 4 -4 12 7 16 16 8 16 -3 0 -8 -5 -12 -12z"/>
<path d="M410 585 c0 -3 2 -5 5 -5 3 0 5 2 5 5 0 3 -2 5 -5 5 -3 0 -5 -2 -5
-5z"/>
<path d="M574 578 c-4 -7 -3 -8 4 -4 7 4 12 9 12 12 0 8 -9 4 -16 -8z"/>
<path d="M730 585 c0 -3 2 -5 5 -5 3 0 5 2 5 5 0 3 -2 5 -5 5 -3 0 -5 -2 -5
-5z"/>
<path d="M894 578 c-4 -7 -3 -8 4 -4 7 4 12 9 12 12 0 8 -9 4 -16 -8z"/>
<path d="M130 575 c0 -3 2 -5 5 -5 3 0 5 2 5 5 0 3 -2 5 -5 5 -3 0 -5 -2 -5
-5z"/>
<path d="M450 575 c0 -3 2 -5 5 -5 3 0 5 2 5 5 0 3 -2 5 -5 5 -3 0 -5 -2 -5
-5z"/>
<path d="M770 575 c0 -3 2 -5 5 -5 3 0 5 2 5 5 0 3 -2 5 -5 5 -3 0 -5 -2 -5
-5z"/>
<path d="M160 565 c0 -3 2 -5 5 -5 3 0 5 2 5 5 0 3 -2 5 -5 5 -3 0 -5 -2 -5
-5z"/>
<path d="M480 565 c0 -3 2 -5 5 -5 3 0 5 2 5 5 0 3 -2 5 -5 5 -3 0 -5 -2 -5
-5z"/>
<path d="M800 565 c0 -3 2 -5 5 -5 3 0 5 2 5 5 0 3 -2 5 -5 5 -3 0 -5 -2 -5
-5z"/>
<path d="M88 527 c-16 -6 -28 -14 -28 -19 0 -11 0 -11 45 12 41 21 30 26 -17
7z"/>
<path d="M204 528 c-4 -7 -3 -8 4 -4 12 7 16 16 8 16 -3 0 -8 -5 -12 -12z"/>
<path d="M408 527 c-16 -6 -28 -14 -28 -19 0 -11 0 -11 45 12 41 21 30 26 -17
7z"/>
<path d="M524 528 c-4 -7 -3 -8 4 -4 7 4 12 9 12 12 0 8 -9 4 -16 -8z"/>
<path d="M728 527 c-16 -6 -28 -14 -28 -19 0 -11 0 -11 45 12 41 21 30 26 -17
7z"/>
<path d="M844 528 c-4 -7 -3 -8 4 -4 7 4 12 9 12 12 0 8 -9 4 -16 -8z"/>
<path d="M230 515 c-8 -9 -8 -15 -2 -15 12 0 26 19 19 26 -2 2 -10 -2 -17 -11z"/>
<path d="M550 515 c-8 -9 -8 -15 -2 -15 12 0 26 19 19 26 -2 2 -10 -2 -17 -11z"/>
<path d="M870 515 c-8 -9 -8 -15 -2 -15 12 0 26 19 19 26 -2 2 -10 -2 -17 -11z"/>
<path d="M130 510 c-8 -5 -10 -10 -5 -10 6 0 17 5 25 10 8 5 11 10 5 10 -5 0
-17 -5 -25 -10z"/>
<path d="M450 510 c-8 -5 -10 -10 -5 -10 6 0 17 5 25 10 8 5 11 10 5 10 -5 0
-17 -5 -25 -10z"/>
<path d="M770 510 c-8 -5 -10 -10 -5 -10 6 0 17 5 25 10 8 5 11 10 5 10 -5 0
-17 -5 -25 -10z"/>
<path d="M154 464 c-18 -14 -18 -14 6 -3 31 14 36 19 24 19 -6 0 -19 -7 -30
-16z"/>
<path d="M474 464 c-18 -14 -18 -14 6 -3 31 14 36 19 24 19 -6 0 -19 -7 -30
-16z"/>
<path d="M794 464 c-18 -14 -18 -14 6 -3 31 14 36 19 24 19 -6 0 -19 -7 -30
-16z"/>
<path d="M25 460 c3 -5 8 -10 11 -10 3 0 2 5 -1 10 -3 6 -8 10 -11 10 -3 0 -2
-4 1 -10z"/>
<path d="M50 465 c0 -3 2 -5 5 -5 3 0 5 2 5 5 0 3 -2 5 -5 5 -3 0 -5 -2 -5 -5z"/>
<path d="M192 454 c-14 -16 -5 -18 17 -5 7 5 9 11 5 14 -5 3 -15 -1 -22 -9z"/>
<path d="M345 460 c3 -5 8 -10 11 -10 3 0 2 5 -1 10 -3 6 -8 10 -11 10 -3 0
-2 -4 1 -10z"/>
<path d="M370 465 c0 -3 2 -5 5 -5 3 0 5 2 5 5 0 3 -2 5 -5 5 -3 0 -5 -2 -5
-5z"/>
<path d="M512 454 c-14 -16 -5 -18 17 -5 7 5 9 11 5 14 -5 3 -15 -1 -22 -9z"/>
<path d="M665 460 c3 -5 8 -10 11 -10 3 0 2 5 -1 10 -3 6 -8 10 -11 10 -3 0
-2 -4 1 -10z"/>
<path d="M690 465 c0 -3 2 -5 5 -5 3 0 5 2 5 5 0 3 -2 5 -5 5 -3 0 -5 -2 -5
-5z"/>
<path d="M832 454 c-14 -16 -5 -18 17 -5 7 5 9 11 5 14 -5 3 -15 -1 -22 -9z"/>
<path d="M190 404 c-33 -15 -34 -16 -16 -30 24 -17 33 -17 75 -3 34 12 37 19
19 37 -16 16 -35 15 -78 -4z m72 -9 c-4 -14 -53 -26 -77 -18 -18 6 -17 8 10
19 34 15 71 14 67 -1z"/>
<path d="M510 404 c-33 -15 -34 -16 -16 -30 24 -17 33 -17 75 -3 34 12 37 19
19 37 -16 16 -35 15 -78 -4z m72 -9 c-4 -14 -53 -26 -77 -18 -18 6 -17 8 10
19 34 15 71 14 67 -1z"/>
<path d="M830 404 c-33 -15 -34 -16 -16 -30 24 -17 33 -17 75 -3 34 12 37 19
19 37 -16 16 -35 15 -78 -4z m72 -9 c-4 -14 -53 -26 -77 -18 -18 6 -17 8 10
19 34 15 71 14 67 -1z"/>
<path d="M64 378 c-4 -7 -3 -8 4 -4 12 7 16 16 8 16 -3 0 -8 -5 -12 -12z"/>
<path d="M384 378 c-4 -7 -3 -8 4 -4 12 7 16 16 8 16 -3 0 -8 -5 -12 -12z"/>
<path d="M704 378 c-4 -7 -3 -8 4 -4 7 4 12 9 12 12 0 8 -9 4 -16 -8z"/>
<path d="M94 368 c-4 -7 -3 -8 4 -4 7 4 12 9 12 12 0 8 -9 4 -16 -8z"/>
<path d="M414 368 c-4 -7 -3 -8 4 -4 12 7 16 16 8 16 -3 0 -8 -5 -12 -12z"/>
<path d="M734 368 c-4 -7 -3 -8 4 -4 7 4 12 9 12 12 0 8 -9 4 -16 -8z"/>
<path d="M90 285 c0 -3 2 -5 5 -5 3 0 5 2 5 5 0 3 -2 5 -5 5 -3 0 -5 -2 -5 -5z"/>
<path d="M410 285 c0 -3 2 -5 5 -5 3 0 5 2 5 5 0 3 -2 5 -5 5 -3 0 -5 -2 -5
-5z"/>
<path d="M730 285 c0 -3 2 -5 5 -5 3 0 5 2 5 5 0 3 -2 5 -5 5 -3 0 -5 -2 -5
-5z"/>
<path d="M70 275 c0 -3 2 -5 5 -5 3 0 5 2 5 5 0 3 -2 5 -5 5 -3 0 -5 -2 -5 -5z"/>
<path d="M234 268 c-4 -7 -3 -8 4 -4 7 4 12 9 12 12 0 8 -9 4 -16 -8z"/>
<path d="M390 275 c0 -3 2 -5 5 -5 3 0 5 2 5 5 0 3 -2 5 -5 5 -3 0 -5 -2 -5
-5z"/>
<path d="M554 268 c-4 -7 -3 -8 4 -4 12 7 16 16 8 16 -3 0 -8 -5 -12 -12z"/>
<path d="M710 275 c0 -3 2 -5 5 -5 3 0 5 2 5 5 0 3 -2 5 -5 5 -3 0 -5 -2 -5
-5z"/>
<path d="M874 268 c-4 -7 -3 -8 4 -4 7 4 12 9 12 12 0 8 -9 4 -16 -8z"/>
<path d="M90 265 c0 -3 2 -5 5 -5 3 0 5 2 5 5 0 3 -2 5 -5 5 -3 0 -5 -2 -5 -5z"/>
<path d="M254 258 c-4 -7 -3 -8 4 -4 12 7 16 16 8 16 -3 0 -8 -5 -12 -12z"/>
<path d="M410 265 c0 -3 2 -5 5 -5 3 0 5 2 5 5 0 3 -2 5 -5 5 -3 0 -5 -2 -5
-5z"/>
<path d="M574 258 c-4 -7 -3 -8 4 -4 12 7 16 16 8 16 -3 0 -8 -5 -12 -12z"/>
<path d="M730 265 c0 -3 2 -5 5 -5 3 0 5 2 5 5 0 3 -2 5 -5 5 -3 0 -5 -2 -5
-5z"/>
<path d="M894 258 c-4 -7 -3 -8 4 -4 7 4 12 9 12 12 0 8 -9 4 -16 -8z"/>
<path d="M130 255 c0 -3 2 -5 5 -5 3 0 5 2 5 5 0 3 -2 5 -5 5 -3 0 -5 -2 -5
-5z"/>
<path d="M450 255 c0 -3 2 -5 5 -5 3 0 5 2 5 5 0 3 -2 5 -5 5 -3 0 -5 -2 -5
-5z"/>
<path d="M770 255 c0 -3 2 -5 5 -5 3 0 5 2 5 5 0 3 -2 5 -5 5 -3 0 -5 -2 -5
-5z"/>
<path d="M160 245 c0 -3 2 -5 5 -5 3 0 5 2 5 5 0 3 -2 5 -5 5 -3 0 -5 -2 -5
-5z"/>
<path d="M480 245 c0 -3 2 -5 5 -5 3 0 5 2 5 5 0 3 -2 5 -5 5 -3 0 -5 -2 -5
-5z"/>
<path d="M800 245 c0 -3 2 -5 5 -5 3 0 5 2 5 5 0 3 -2 5 -5 5 -3 0 -5 -2 -5
-5z"/>
<path d="M88 207 c-16 -6 -28 -14 -28 -19 0 -11 0 -11 45 12 41 21 30 26 -17
7z"/>
<path d="M204 208 c-4 -7 -3 -8 4 -4 7 4 12 9 12 12 0 8 -9 4 -16 -8z"/>
<path d="M408 207 c-16 -6 -28 -14 -28 -19 0 -11 0 -11 45 12 41 21 30 26 -17
7z"/>
<path d="M524 208 c-4 -7 -3 -8 4 -4 12 7 16 16 8 16 -3 0 -8 -5 -12 -12z"/>
<path d="M728 207 c-16 -6 -28 -14 -28 -19 0 -11 0 -11 45 12 41 21 30 26 -17
7z"/>
<path d="M844 208 c-4 -7 -3 -8 4 -4 7 4 12 9 12 12 0 8 -9 4 -16 -8z"/>
<path d="M230 195 c-8 -9 -8 -15 -2 -15 12 0 26 19 19 26 -2 2 -10 -2 -17 -11z"/>
<path d="M550 195 c-8 -9 -8 -15 -2 -15 12 0 26 19 19 26 -2 2 -10 -2 -17 -11z"/>
<path d="M870 195 c-8 -9 -8 -15 -2 -15 12 0 26 19 19 26 -2 2 -10 -2 -17 -11z"/>
<path d="M130 190 c-8 -5 -10 -10 -5 -10 6 0 17 5 25 10 8 5 11 10 5 10 -5 0
-17 -5 -25 -10z"/>
<path d="M450 190 c-8 -5 -10 -10 -5 -10 6 0 17 5 25 10 8 5 11 10 5 10 -5 0
-17 -5 -25 -10z"/>
<path d="M770 190 c-8 -5 -10 -10 -5 -10 6 0 17 5 25 10 8 5 11 10 5 10 -5 0
-17 -5 -25 -10z"/>
<path d="M154 144 c-18 -14 -18 -14 6 -3 31 14 36 19 24 19 -6 0 -19 -7 -30
-16z"/>
<path d="M474 144 c-18 -14 -18 -14 6 -3 31 14 36 19 24 19 -6 0 -19 -7 -30
-16z"/>
<path d="M794 144 c-18 -14 -18 -14 6 -3 31 14 36 19 24 19 -6 0 -19 -7 -30
-16z"/>
<path d="M25 140 c3 -5 8 -10 11 -10 3 0 2 5 -1 10 -3 6 -8 10 -11 10 -3 0 -2
-4 1 -10z"/>
<path d="M50 145 c0 -3 2 -5 5 -5 3 0 5 2 5 5 0 3 -2 5 -5 5 -3 0 -5 -2 -5 -5z"/>
<path d="M192 134 c-14 -16 -5 -18 17 -5 7 5 9 11 5 14 -5 3 -15 -1 -22 -9z"/>
<path d="M345 140 c3 -5 8 -10 11 -10 3 0 2 5 -1 10 -3 6 -8 10 -11 10 -3 0
-2 -4 1 -10z"/>
<path d="M370 145 c0 -3 2 -5 5 -5 3 0 5 2 5 5 0 3 -2 5 -5 5 -3 0 -5 -2 -5
-5z"/>
<path d="M512 134 c-14 -16 -5 -18 17 -5 7 5 9 11 5 14 -5 3 -15 -1 -22 -9z"/>
<path d="M665 140 c3 -5 8 -10 11 -10 3 0 2 5 -1 10 -3 6 -8 10 -11 10 -3 0
-2 -4 1 -10z"/>
<path d="M690 145 c0 -3 2 -5 5 -5 3 0 5 2 5 5 0 3 -2 5 -5 5 -3 0 -5 -2 -5
-5z"/>
<path d="M832 134 c-14 -16 -5 -18 17 -5 7 5 9 11 5 14 -5 3 -15 -1 -22 -9z"/>
<path d="M190 84 c-33 -15 -34 -16 -16 -30 24 -17 33 -17 75 -3 34 12 37 19
19 37 -16 16 -35 15 -78 -4z m72 -9 c-4 -14 -53 -26 -77 -18 -18 6 -17 8 10
19 34 15 71 14 67 -1z"/>
<path d="M510 84 c-33 -15 -34 -16 -16 -30 24 -17 33 -17 75 -3 34 12 37 19
19 37 -16 16 -35 15 -78 -4z m72 -9 c-4 -14 -53 -26 -77 -18 -18 6 -17 8 10
19 34 15 71 14 67 -1z"/>
<path d="M830 84 c-33 -15 -34 -16 -16 -30 24 -17 33 -17 75 -3 34 12 37 19
19 37 -16 16 -35 15 -78 -4z m72 -9 c-4 -14 -53 -26 -77 -18 -18 6 -17 8 10
19 34 15 71 14 67 -1z"/>
<path d="M64 58 c-4 -7 -3 -8 4 -4 7 4 12 9 12 12 0 8 -9 4 -16 -8z"/>
<path d="M384 58 c-4 -7 -3 -8 4 -4 12 7 16 16 8 16 -3 0 -8 -5 -12 -12z"/>
<path d="M704 58 c-4 -7 -3 -8 4 -4 7 4 12 9 12 12 0 8 -9 4 -16 -8z"/>
<path d="M94 48 c-4 -7 -3 -8 4 -4 7 4 12 9 12 12 0 8 -9 4 -16 -8z"/>
<path d="M414 48 c-4 -7 -3 -8 4 -4 7 4 12 9 12 12 0 8 -9 4 -16 -8z"/>
<path d="M734 48 c-4 -7 -3 -8 4 -4 7 4 12 9 12 12 0 8 -9 4 -16 -8z"/>
</g>
<g transform="translate(0.000000,96.000000) scale(0.100000,-0.100000)"
fill="#ff0000" stroke="none">
<path d="M70 915 c0 -3 2 -5 5 -5 3 0 5 2 5 5 0 3 -2 5 -5 5 -3 0 -5 -2 -5 -5z"/>
<path d="M240 915 c0 -3 2 -5 5 -5 3 0 5 2 5 5 0 3 -2 5 -5 5 -3 0 -5 -2 -5
-5z"/>
<path d="M390 915 c0 -3 2 -5 5 -5 3 0 5 2 5 5 0 3 -2 5 -5 5 -3 0 -5 -2 -5
-5z"/>
<path d="M560 915 c0 -3 2 -5 5 -5 3 0 5 2 5 5 0 3 -2 5 -5 5 -3 0 -5 -2 -5
-5z"/>
<path d="M710 915 c0 -3 2 -5 5 -5 3 0 5 2 5 5 0 3 -2 5 -5 5 -3 0 -5 -2 -5
-5z"/>
<path d="M880 915 c0 -3 2 -5 5 -5 3 0 5 2 5 5 0 3 -2 5 -5 5 -3 0 -5 -2 -5
-5z"/>
<path d="M130 895 c0 -3 2 -5 5 -5 3 0 5 2 5 5 0 3 -2 5 -5 5 -3 0 -5 -2 -5
-5z"/>
<path d="M450 895 c0 -3 2 -5 5 -5 3 0 5 2 5 5 0 3 -2 5 -5 5 -3 0 -5 -2 -5
-5z"/>
<path d="M770 895 c0 -3 2 -5 5 -5 3 0 5 2 5 5 0 3 -2 5 -5 5 -3 0 -5 -2 -5
-5z"/>
<path d="M88 847 c-16 -6 -28 -14 -28 -19 0 -11 0 -11 45 12 41 21 30 26 -17
7z"/>
<path d="M204 848 c-4 -7 -3 -8 4 -4 12 7 16 16 8 16 -3 0 -8 -5 -12 -12z"/>
<path d="M408 847 c-16 -6 -28 -14 -28 -19 0 -11 0 -11 45 12 41 21 30 26 -17
7z"/>
<path d="M524 848 c-4 -7 -3 -8 4 -4 12 7 16 16 8 16 -3 0 -8 -5 -12 -12z"/>
<path d="M728 847 c-16 -6 -28 -14 -28 -19 0 -11 0 -11 45 12 41 21 30 26 -17
7z"/>
<path d="M844 848 c-4 -7 -3 -8 4 -4 12 7 16 16 8 16 -3 0 -8 -5 -12 -12z"/>
<path d="M154 784 c-18 -14 -18 -14 6 -3 31 14 36 19 24 19 -6 0 -19 -7 -30
-16z"/>
<path d="M474 784 c-18 -14 -18 -14 6 -3 31 14 36 19 24 19 -6 0 -19 -7 -30
-16z"/>
<path d="M794 784 c-18 -14 -18 -14 6 -3 31 14 36 19 24 19 -6 0 -19 -7 -30
-16z"/>
<path d="M20 785 c0 -3 2 -5 5 -5 3 0 5 2 5 5 0 3 -2 5 -5 5 -3 0 -5 -2 -5 -5z"/>
<path d="M340 785 c0 -3 2 -5 5 -5 3 0 5 2 5 5 0 3 -2 5 -5 5 -3 0 -5 -2 -5
-5z"/>
<path d="M660 785 c0 -3 2 -5 5 -5 3 0 5 2 5 5 0 3 -2 5 -5 5 -3 0 -5 -2 -5
-5z"/>
<path d="M193 725 c-18 -8 -33 -16 -33 -19 0 -5 71 22 79 30 9 8 -15 3 -46
-11z"/>
<path d="M513 725 c-18 -8 -33 -16 -33 -19 0 -5 71 22 79 30 9 8 -15 3 -46
-11z"/>
<path d="M833 725 c-18 -8 -33 -16 -33 -19 0 -5 71 22 79 30 9 8 -15 3 -46
-11z"/>
<path d="M64 698 c-4 -7 -3 -8 4 -4 7 4 12 9 12 12 0 8 -9 4 -16 -8z"/>
<path d="M384 698 c-4 -7 -3 -8 4 -4 12 7 16 16 8 16 -3 0 -8 -5 -12 -12z"/>
<path d="M704 698 c-4 -7 -3 -8 4 -4 12 7 16 16 8 16 -3 0 -8 -5 -12 -12z"/>
<path d="M70 595 c0 -3 2 -5 5 -5 3 0 5 2 5 5 0 3 -2 5 -5 5 -3 0 -5 -2 -5 -5z"/>
<path d="M240 595 c0 -3 2 -5 5 -5 3 0 5 2 5 5 0 3 -2 5 -5 5 -3 0 -5 -2 -5
-5z"/>
<path d="M390 595 c0 -3 2 -5 5 -5 3 0 5 2 5 5 0 3 -2 5 -5 5 -3 0 -5 -2 -5
-5z"/>
<path d="M560 595 c0 -3 2 -5 5 -5 3 0 5 2 5 5 0 3 -2 5 -5 5 -3 0 -5 -2 -5
-5z"/>
<path d="M710 595 c0 -3 2 -5 5 -5 3 0 5 2 5 5 0 3 -2 5 -5 5 -3 0 -5 -2 -5
-5z"/>
<path d="M880 595 c0 -3 2 -5 5 -5 3 0 5 2 5 5 0 3 -2 5 -5 5 -3 0 -5 -2 -5
-5z"/>
<path d="M130 575 c0 -3 2 -5 5 -5 3 0 5 2 5 5 0 3 -2 5 -5 5 -3 0 -5 -2 -5
-5z"/>
<path d="M450 575 c0 -3 2 -5 5 -5 3 0 5 2 5 5 0 3 -2 5 -5 5 -3 0 -5 -2 -5
-5z"/>
<path d="M770 575 c0 -3 2 -5 5 -5 3 0 5 2 5 5 0 3 -2 5 -5 5 -3 0 -5 -2 -5
-5z"/>
<path d="M88 527 c-16 -6 -28 -14 -28 -19 0 -11 0 -11 45 12 41 21 30 26 -17
7z"/>
<path d="M204 528 c-4 -7 -3 -8 4 -4 12 7 16 16 8 16 -3 0 -8 -5 -12 -12z"/>
<path d="M408 527 c-16 -6 -28 -14 -28 -19 0 -11 0 -11 45 12 41 21 30 26 -17
7z"/>
<path d="M524 528 c-4 -7 -3 -8 4 -4 7 4 12 9 12 12 0 8 -9 4 -16 -8z"/>
<path d="M728 527 c-16 -6 -28 -14 -28 -19 0 -11 0 -11 45 12 41 21 30 26 -17
7z"/>
<path d="M844 528 c-4 -7 -3 -8 4 -4 7 4 12 9 12 12 0 8 -9 4 -16 -8z"/>
<path d="M154 464 c-18 -14 -18 -14 6 -3 31 14 36 19 24 19 -6 0 -19 -7 -30
-16z"/>
<path d="M474 464 c-18 -14 -18 -14 6 -3 31 14 36 19 24 19 -6 0 -19 -7 -30
-16z"/>
<path d="M794 464 c-18 -14 -18 -14 6 -3 31 14 36 19 24 19 -6 0 -19 -7 -30
-16z"/>
<path d="M20 465 c0 -3 2 -5 5 -5 3 0 5 2 5 5 0 3 -2 5 -5 5 -3 0 -5 -2 -5 -5z"/>
<path d="M340 465 c0 -3 2 -5 5 -5 3 0 5 2 5 5 0 3 -2 5 -5 5 -3 0 -5 -2 -5
-5z"/>
<path d="M660 465 c0 -3 2 -5 5 -5 3 0 5 2 5 5 0 3 -2 5 -5 5 -3 0 -5 -2 -5
-5z"/>
<path d="M193 405 c-18 -8 -33 -16 -33 -19 0 -5 71 22 79 30 9 8 -15 3 -46
-11z"/>
<path d="M513 405 c-18 -8 -33 -16 -33 -19 0 -5 71 22 79 30 9 8 -15 3 -46
-11z"/>
<path d="M833 405 c-18 -8 -33 -16 -33 -19 0 -5 71 22 79 30 9 8 -15 3 -46
-11z"/>
<path d="M64 378 c-4 -7 -3 -8 4 -4 12 7 16 16 8 16 -3 0 -8 -5 -12 -12z"/>
<path d="M384 378 c-4 -7 -3 -8 4 -4 12 7 16 16 8 16 -3 0 -8 -5 -12 -12z"/>
<path d="M704 378 c-4 -7 -3 -8 4 -4 7 4 12 9 12 12 0 8 -9 4 -16 -8z"/>
<path d="M70 275 c0 -3 2 -5 5 -5 3 0 5 2 5 5 0 3 -2 5 -5 5 -3 0 -5 -2 -5 -5z"/>
<path d="M240 275 c0 -3 2 -5 5 -5 3 0 5 2 5 5 0 3 -2 5 -5 5 -3 0 -5 -2 -5
-5z"/>
<path d="M390 275 c0 -3 2 -5 5 -5 3 0 5 2 5 5 0 3 -2 5 -5 5 -3 0 -5 -2 -5
-5z"/>
<path d="M560 275 c0 -3 2 -5 5 -5 3 0 5 2 5 5 0 3 -2 5 -5 5 -3 0 -5 -2 -5
-5z"/>
<path d="M710 275 c0 -3 2 -5 5 -5 3 0 5 2 5 5 0 3 -2 5 -5 5 -3 0 -5 -2 -5
-5z"/>
<path d="M880 275 c0 -3 2 -5 5 -5 3 0 5 2 5 5 0 3 -2 5 -5 5 -3 0 -5 -2 -5
-5z"/>
<path d="M130 255 c0 -3 2 -5 5 -5 3 0 5 2 5 5 0 3 -2 5 -5 5 -3 0 -5 -2 -5
-5z"/>
<path d="M450 255 c0 -3 2 -5 5 -5 3 0 5 2 5 5 0 3 -2 5 -5 5 -3 0 -5 -2 -5
-5z"/>
<path d="M770 255 c0 -3 2 -5 5 -5 3 0 5 2 5 5 0 3 -2 5 -5 5 -3 0 -5 -2 -5
-5z"/>
<path d="M88 207 c-16 -6 -28 -14 -28 -19 0 -11 0 -11 45 12 41 21 30 26 -17
7z"/>
<path d="M204 208 c-4 -7 -3 -8 4 -4 7 4 12 9 12 12 0 8 -9 4 -16 -8z"/>
<path d="M408 207 c-16 -6 -28 -14 -28 -19 0 -11 0 -11 45 12 41 21 30 26 -17
7z"/>
<path d="M524 208 c-4 -7 -3 -8 4 -4 12 7 16 16 8 16 -3 0 -8 -5 -12 -12z"/>
<path d="M728 207 c-16 -6 -28 -14 -28 -19 0 -11 0 -11 45 12 41 21 30 26 -17
7z"/>
<path d="M844 208 c-4 -7 -3 -8 4 -4 7 4 12 9 12 12 0 8 -9 4 -16 -8z"/>
<path d="M154 144 c-18 -14 -18 -14 6 -3 31 14 36 19 24 19 -6 0 -19 -7 -30
-16z"/>
<path d="M474 144 c-18 -14 -18 -14 6 -3 31 14 36 19 24 19 -6 0 -19 -7 -30
-16z"/>
<path d="M794 144 c-18 -14 -18 -14 6 -3 31 14 36 19 24 19 -6 0 -19 -7 -30
-16z"/>
<path d="M20 145 c0 -3 2 -5 5 -5 3 0 5 2 5 5 0 3 -2 5 -5 5 -3 0 -5 -2 -5 -5z"/>
<path d="M340 145 c0 -3 2 -5 5 -5 3 0 5 2 5 5 0 3 -2 5 -5 5 -3 0 -5 -2 -5
-5z"/>
<path d="M660 145 c0 -3 2 -5 5 -5 3 0 5 2 5 5 0 3 -2 5 -5 5 -3 0 -5 -2 -5
-5z"/>
<path d="M193 85 c-18 -8 -33 -16 -33 -19 0 -5 71 22 79 30 9 8 -15 3 -46 -11z"/>
<path d="M513 85 c-18 -8 -33 -16 -33 -19 0 -5 71 22 79 30 9 8 -15 3 -46 -11z"/>
<path d="M833 85 c-18 -8 -33 -16 -33 -19 0 -5 71 22 79 30 9 8 -15 3 -46 -11z"/>
<path d="M64 58 c-4 -7 -3 -8 4 -4 7 4 12 9 12 12 0 8 -9 4 -16 -8z"/>
<path d="M384 58 c-4 -7 -3 -8 4 -4 12 7 16 16 8 16 -3 0 -8 -5 -12 -12z"/>
<path d="M704 58 c-4 -7 -3 -8 4 -4 7 4 12 9 12 12 0 8 -9 4 -16 -8z"/>
</g>
<g transform="translate(0.000000,96.000000) scale(0.100000,-0.100000)"
fill="#808080" stroke="none">
<path d="M60 830 c0 -5 5 -10 11 -10 5 0 7 5 4 10 -3 6 -8 10 -11 10 -2 0 -4
-4 -4 -10z"/>
<path d="M380 830 c0 -5 5 -10 11 -10 5 0 7 5 4 10 -3 6 -8 10 -11 10 -2 0 -4
-4 -4 -10z"/>
<path d="M700 830 c0 -5 5 -10 11 -10 5 0 7 5 4 10 -3 6 -8 10 -11 10 -2 0 -4
-4 -4 -10z"/>
<path d="M60 510 c0 -5 5 -10 11 -10 5 0 7 5 4 10 -3 6 -8 10 -11 10 -2 0 -4
-4 -4 -10z"/>
<path d="M380 510 c0 -5 5 -10 11 -10 5 0 7 5 4 10 -3 6 -8 10 -11 10 -2 0 -4
-4 -4 -10z"/>
<path d="M700 510 c0 -5 5 -10 11 -10 5 0 7 5 4 10 -3 6 -8 10 -11 10 -2 0 -4
-4 -4 -10z"/>
<path d="M60 190 c0 -5 5 -10 11 -10 5 0 7 5 4 10 -3 6 -8 10 -11 10 -2 0 -4
-4 -4 -10z"/>
<path d="M380 190 c0 -5 5 -10 11 -10 5 0 7 5 4 10 -3 6 -8 10 -11 10 -2 0 -4
-4 -4 -10z"/>
<path d="M700 190 c0 -5 5 -10 11 -10 5 0 7 5 4 10 -3 6 -8 10 -11 10 -2 0 -4
-4 -4 -10z"/>
</g>
  </g>
</svg>
