<?xml version="1.0" encoding="UTF-8" standalone="no"?>
<!-- Created with Inkscape (http://www.inkscape.org/) -->

<svg
   xmlns:dc="http://purl.org/dc/elements/1.1/"
   xmlns:cc="http://creativecommons.org/ns#"
   xmlns:rdf="http://www.w3.org/1999/02/22-rdf-syntax-ns#"
   xmlns:svg="http://www.w3.org/2000/svg"
   xmlns="http://www.w3.org/2000/svg"
   xmlns:sodipodi="http://sodipodi.sourceforge.net/DTD/sodipodi-0.dtd"
   xmlns:inkscape="http://www.inkscape.org/namespaces/inkscape"
   width="16px"
   height="16px"
   viewBox="0 0 16px 16px"
   version="1.1"
   id="svgMain"
   inkscape:version="0.92.2 (5c3e80d, 2017-08-06)"
   sodipodi:docname="reference_SVG.svg">
  <defs
     id="defs4542" />
  <sodipodi:namedview
     id="base"
     pagecolor="#ffffff"
     bordercolor="#666666"
     borderopacity="1.0"
     inkscape:pageopacity="0.0"
     inkscape:pageshadow="2"
     inkscape:zoom="1"
     inkscape:cx="0"
     inkscape:cy="0"
     inkscape:document-units="px"
     inkscape:current-layer="layer1"
     showgrid="false"
     units="px"
     inkscape:window-width="1024"
     inkscape:window-height="768"
     inkscape:window-x="-8"
     inkscape:window-y="-8"
     inkscape:window-maximized="1" />
  <metadata
     id="metadata1">
    <rdf:RDF>
      <cc:Work
         rdf:about="">
        <dc:format>image/svg+xml</dc:format>
        <dc:type
           rdf:resource="http://purl.org/dc/dcmitype/StillImage" />
        <dc:title />
      </cc:Work>
    </rdf:RDF>
  </metadata>
  <g transform="translate(-16,-16) scale(0.5,0.5)"
     inkscape:label="Layer 1"
     inkscape:groupmode="layer"
     id="layer1">
    <!-- INSERT MARKER -->
<g transform="translate(0.000000,96.000000) scale(0.100000,-0.100000)"
fill="#365535" stroke="none">
<path d="M132 908 c-9 -9 -9 -15 0 -25 9 -11 7 -18 -5 -30 -13 -14 -19 -14
-32 -3 -14 12 -20 9 -47 -17 l-30 -30 30 -14 c24 -10 28 -16 20 -27 -9 -10 -7
-14 8 -18 10 -3 30 -27 43 -55 26 -55 50 -63 71 -23 8 14 23 30 33 35 15 9 16
13 5 26 -11 13 -9 18 10 31 21 14 29 42 15 55 -3 4 -12 2 -19 -4 -26 -21 -37
2 -13 27 18 19 19 24 6 24 -9 0 -19 -4 -22 -10 -3 -5 -10 -10 -16 -10 -12 0
-12 37 1 45 8 5 7 11 -1 21 -14 17 -41 18 -57 2z m-12 -92 c0 -3 -4 -8 -10
-11 -5 -3 -10 -1 -10 4 0 6 5 11 10 11 6 0 10 -2 10 -4z"/>
<path d="M452 908 c-9 -9 -9 -15 0 -25 9 -11 7 -18 -5 -30 -13 -14 -19 -14
-32 -3 -14 12 -20 9 -47 -17 l-30 -30 30 -14 c24 -10 28 -16 20 -27 -9 -10 -7
-14 8 -18 10 -3 30 -27 43 -55 26 -55 50 -63 71 -23 8 14 23 30 33 35 15 9 16
13 5 26 -11 13 -9 18 10 31 21 14 29 42 15 55 -3 4 -12 2 -19 -4 -26 -21 -37
2 -13 27 18 19 19 24 6 24 -9 0 -19 -4 -22 -10 -3 -5 -10 -10 -16 -10 -12 0
-12 37 1 45 8 5 7 11 -1 21 -14 17 -41 18 -57 2z m-12 -92 c0 -3 -4 -8 -10
-11 -5 -3 -10 -1 -10 4 0 6 5 11 10 11 6 0 10 -2 10 -4z"/>
<path d="M772 908 c-9 -9 -9 -15 0 -25 9 -11 7 -18 -5 -30 -13 -14 -19 -14
-32 -3 -14 12 -20 9 -47 -17 l-30 -30 30 -14 c24 -10 28 -16 20 -27 -9 -10 -7
-14 8 -18 10 -3 30 -27 43 -55 26 -55 50 -63 71 -23 8 14 23 30 33 35 15 9 16
13 5 26 -11 13 -9 18 10 31 21 14 29 42 15 55 -3 4 -12 2 -19 -4 -26 -21 -37
2 -13 27 18 19 19 24 6 24 -9 0 -19 -4 -22 -10 -3 -5 -10 -10 -16 -10 -12 0
-12 37 1 45 8 5 7 11 -1 21 -14 17 -41 18 -57 2z m-12 -92 c0 -3 -4 -8 -10
-11 -5 -3 -10 -1 -10 4 0 6 5 11 10 11 6 0 10 -2 10 -4z"/>
<path d="M132 588 c-9 -9 -9 -15 0 -25 9 -11 7 -18 -5 -30 -13 -14 -19 -14
-32 -3 -14 12 -20 9 -47 -17 l-30 -30 30 -14 c24 -10 28 -16 20 -27 -9 -10 -7
-14 8 -18 10 -3 30 -27 43 -55 26 -55 50 -63 71 -23 8 14 23 30 33 35 15 9 16
13 5 26 -11 13 -9 18 10 31 21 14 29 42 15 55 -3 4 -12 2 -19 -4 -26 -21 -37
2 -13 27 18 19 19 24 6 24 -9 0 -19 -4 -22 -10 -3 -5 -10 -10 -16 -10 -12 0
-12 37 1 45 8 5 7 11 -1 21 -14 17 -41 18 -57 2z m-12 -92 c0 -3 -4 -8 -10
-11 -5 -3 -10 -1 -10 4 0 6 5 11 10 11 6 0 10 -2 10 -4z"/>
<path d="M452 588 c-9 -9 -9 -15 0 -25 9 -11 7 -18 -5 -30 -13 -14 -19 -14
-32 -3 -14 12 -20 9 -47 -17 l-30 -30 30 -14 c24 -10 28 -16 20 -27 -9 -10 -7
-14 8 -18 10 -3 30 -27 43 -55 26 -55 50 -63 71 -23 8 14 23 30 33 35 15 9 16
13 5 26 -11 13 -9 18 10 31 21 14 29 42 15 55 -3 4 -12 2 -19 -4 -26 -21 -37
2 -13 27 18 19 19 24 6 24 -9 0 -19 -4 -22 -10 -3 -5 -10 -10 -16 -10 -12 0
-12 37 1 45 8 5 7 11 -1 21 -14 17 -41 18 -57 2z m-12 -92 c0 -3 -4 -8 -10
-11 -5 -3 -10 -1 -10 4 0 6 5 11 10 11 6 0 10 -2 10 -4z"/>
<path d="M772 588 c-9 -9 -9 -15 0 -25 9 -11 7 -18 -5 -30 -13 -14 -19 -14
-32 -3 -14 12 -20 9 -47 -17 l-30 -30 30 -14 c24 -10 28 -16 20 -27 -9 -10 -7
-14 8 -18 10 -3 30 -27 43 -55 26 -55 50 -63 71 -23 8 14 23 30 33 35 15 9 16
13 5 26 -11 13 -9 18 10 31 21 14 29 42 15 55 -3 4 -12 2 -19 -4 -26 -21 -37
2 -13 27 18 19 19 24 6 24 -9 0 -19 -4 -22 -10 -3 -5 -10 -10 -16 -10 -12 0
-12 37 1 45 8 5 7 11 -1 21 -14 17 -41 18 -57 2z m-12 -92 c0 -3 -4 -8 -10
-11 -5 -3 -10 -1 -10 4 0 6 5 11 10 11 6 0 10 -2 10 -4z"/>
<path d="M132 268 c-9 -9 -9 -15 0 -25 9 -11 7 -18 -5 -30 -13 -14 -19 -14
-32 -3 -14 12 -20 9 -47 -17 l-30 -30 30 -14 c24 -10 28 -16 20 -27 -9 -10 -7
-14 8 -18 10 -3 30 -27 43 -55 26 -55 50 -63 71 -23 8 14 23 30 33 35 15 9 16
13 5 26 -11 13 -9 18 10 31 21 14 29 42 15 55 -3 4 -12 2 -19 -4 -26 -21 -37
2 -13 27 18 19 19 24 6 24 -9 0 -19 -4 -22 -10 -3 -5 -10 -10 -16 -10 -12 0
-12 37 1 45 8 5 7 11 -1 21 -14 17 -41 18 -57 2z m-12 -92 c0 -3 -4 -8 -10
-11 -5 -3 -10 -1 -10 4 0 6 5 11 10 11 6 0 10 -2 10 -4z"/>
<path d="M452 268 c-9 -9 -9 -15 0 -25 9 -11 7 -18 -5 -30 -13 -14 -19 -14
-32 -3 -14 12 -20 9 -47 -17 l-30 -30 30 -14 c24 -10 28 -16 20 -27 -9 -10 -7
-14 8 -18 10 -3 30 -27 43 -55 26 -55 50 -63 71 -23 8 14 23 30 33 35 15 9 16
13 5 26 -11 13 -9 18 10 31 21 14 29 42 15 55 -3 4 -12 2 -19 -4 -26 -21 -37
2 -13 27 18 19 19 24 6 24 -9 0 -19 -4 -22 -10 -3 -5 -10 -10 -16 -10 -12 0
-12 37 1 45 8 5 7 11 -1 21 -14 17 -41 18 -57 2z m-12 -92 c0 -3 -4 -8 -10
-11 -5 -3 -10 -1 -10 4 0 6 5 11 10 11 6 0 10 -2 10 -4z"/>
<path d="M772 268 c-9 -9 -9 -15 0 -25 9 -11 7 -18 -5 -30 -13 -14 -19 -14
-32 -3 -14 12 -20 9 -47 -17 l-30 -30 30 -14 c24 -10 28 -16 20 -27 -9 -10 -7
-14 8 -18 10 -3 30 -27 43 -55 26 -55 50 -63 71 -23 8 14 23 30 33 35 15 9 16
13 5 26 -11 13 -9 18 10 31 21 14 29 42 15 55 -3 4 -12 2 -19 -4 -26 -21 -37
2 -13 27 18 19 19 24 6 24 -9 0 -19 -4 -22 -10 -3 -5 -10 -10 -16 -10 -12 0
-12 37 1 45 8 5 7 11 -1 21 -14 17 -41 18 -57 2z m-12 -92 c0 -3 -4 -8 -10
-11 -5 -3 -10 -1 -10 4 0 6 5 11 10 11 6 0 10 -2 10 -4z"/>
</g>
<g transform="translate(0.000000,96.000000) scale(0.100000,-0.100000)"
fill="#242413" stroke="none">
<path d="M143 913 c-9 -3 -11 -17 -7 -42 4 -28 2 -42 -11 -54 -15 -16 -15 -17
2 -17 15 0 16 -2 3 -10 -8 -5 -23 -10 -34 -10 -15 0 -16 3 -6 15 7 9 9 19 5
23 -4 4 -10 1 -12 -5 -3 -9 -10 -10 -24 -3 -13 7 -19 7 -19 0 0 -5 7 -10 17
-10 9 0 13 -3 10 -7 -4 -3 10 -22 30 -40 l37 -34 14 27 c8 15 22 36 32 46 16
17 18 17 24 3 3 -9 2 -14 -3 -11 -10 6 -31 -17 -51 -56 -7 -16 -17 -28 -22
-28 -5 0 -7 4 -3 9 3 5 1 12 -4 16 -12 7 -6 -32 10 -62 14 -26 49 -31 49 -8 0
8 5 15 11 15 5 0 7 5 4 10 -4 6 -11 7 -17 4 -7 -5 -8 -2 -4 5 5 7 14 10 20 8
7 -3 18 4 25 15 11 18 10 18 -11 7 l-23 -12 20 24 c11 13 24 27 29 30 5 4 6
12 2 18 -5 7 -1 9 8 5 9 -3 16 -1 16 5 0 6 -11 11 -23 11 -42 0 -78 66 -47 85
6 4 8 11 4 16 -4 6 -11 6 -20 -2 -13 -10 -18 -6 -15 14 0 4 0 7 -1 6 -2 0 -9
-3 -15 -6z m4 -30 c-4 -3 -7 0 -7 7 0 7 3 10 7 7 3 -4 3 -10 0 -14z m43 12 c0
-3 -2 -5 -5 -5 -3 0 -5 2 -5 5 0 3 2 5 5 5 3 0 5 -2 5 -5z m-80 -130 c0 -3 -2
-5 -5 -5 -3 0 -5 2 -5 5 0 3 2 5 5 5 3 0 5 -2 5 -5z m30 -10 c0 -3 -2 -5 -5
-5 -3 0 -5 2 -5 5 0 3 2 5 5 5 3 0 5 -2 5 -5z m54 -3 c3 -5 -1 -9 -9 -9 -8 0
-12 4 -9 9 3 4 7 8 9 8 2 0 6 -4 9 -8z m-24 -37 c0 -3 -2 -5 -5 -5 -3 0 -5 2
-5 5 0 3 2 5 5 5 3 0 5 -2 5 -5z"/>
<path d="M456 912 c-2 -4 -2 -29 0 -55 4 -39 2 -47 -12 -47 -12 0 -14 -3 -6
-13 8 -10 6 -13 -10 -14 -32 -3 -35 -13 -8 -35 14 -11 24 -25 22 -30 -1 -5 3
-6 9 -3 6 4 9 16 6 26 -3 10 -1 17 3 16 12 -3 60 57 51 63 -5 3 -8 25 -6 50 2
25 0 38 -5 31 -4 -8 -12 -11 -18 -7 -6 3 -13 0 -15 -6 -4 -8 -6 -7 -6 4 -1 9
5 19 12 21 9 4 9 6 0 6 -6 1 -14 -2 -17 -7z m-26 -147 c0 -3 -2 -5 -5 -5 -3 0
-5 2 -5 5 0 3 2 5 5 5 3 0 5 -2 5 -5z"/>
<path d="M770 903 c-13 -15 -12 -16 3 -10 14 5 16 2 12 -16 -3 -12 -7 -32 -8
-44 0 -13 -5 -23 -9 -23 -4 0 -8 -7 -8 -15 0 -8 -9 -15 -20 -15 -29 0 -25 -15
12 -41 l31 -23 -5 22 c-3 12 -2 20 2 19 4 -1 17 9 29 22 21 24 22 24 39 6 15
-16 15 -17 0 -6 -14 10 -19 8 -35 -14 -26 -38 -56 -72 -47 -56 5 9 3 12 -5 7
-6 -4 -10 -10 -8 -14 22 -48 33 -62 50 -62 14 0 18 5 14 20 -3 13 -1 18 6 13
6 -4 8 0 4 10 -4 10 -1 17 5 17 6 0 8 3 4 7 -3 4 11 24 31 45 31 31 35 41 23
48 -8 5 -17 7 -22 4 -16 -10 -48 22 -48 49 0 19 -4 26 -12 22 -7 -4 -5 0 5 8
9 8 17 18 17 22 0 4 -7 2 -15 -5 -14 -11 -19 -7 -16 13 2 12 -13 7 -29 -10z
m10 -108 c0 -3 -2 -5 -5 -5 -3 0 -5 2 -5 5 0 3 2 5 5 5 3 0 5 -2 5 -5z m100
-10 c0 -3 -2 -5 -5 -5 -3 0 -5 2 -5 5 0 3 2 5 5 5 3 0 5 -2 5 -5z m-130 -20
c0 -3 -2 -5 -5 -5 -3 0 -5 2 -5 5 0 3 2 5 5 5 3 0 5 -2 5 -5z m100 -11 c0 -8
-19 -13 -24 -6 -3 5 1 9 9 9 8 0 15 -2 15 -3z m-40 -39 c0 -3 -2 -5 -5 -5 -3
0 -5 2 -5 5 0 3 2 5 5 5 3 0 5 -2 5 -5z"/>
<path d="M550 855 c0 -3 2 -5 5 -5 3 0 5 2 5 5 0 3 -2 5 -5 5 -3 0 -5 -2 -5
-5z"/>
<path d="M60 825 c0 -3 2 -5 5 -5 3 0 5 2 5 5 0 3 -2 5 -5 5 -3 0 -5 -2 -5 -5z"/>
<path d="M377 815 c-3 -6 -1 -18 3 -25 7 -11 11 -11 24 -1 9 8 16 17 16 21 0
13 -39 18 -43 5z m20 -12 c-4 -3 -10 -3 -14 0 -3 4 0 7 7 7 7 0 10 -3 7 -7z"/>
<path d="M700 804 c0 -26 10 -30 28 -12 17 17 15 25 -8 31 -16 4 -20 0 -20
-19z m20 1 c0 -3 -2 -5 -5 -5 -3 0 -5 2 -5 5 0 3 2 5 5 5 3 0 5 -2 5 -5z"/>
<path d="M680 810 c0 -7 3 -10 7 -7 3 4 3 10 0 14 -4 3 -7 0 -7 -7z"/>
<path d="M499 774 c-13 -14 -23 -29 -22 -32 1 -4 -7 -18 -18 -31 -18 -20 -19
-27 -8 -47 14 -26 49 -33 49 -9 0 8 5 15 11 15 6 0 7 5 2 13 -11 18 -13 37 -3
37 5 0 10 -7 12 -15 2 -12 6 -11 16 6 8 11 9 18 3 14 -23 -14 -10 24 14 39 33
22 32 36 -3 36 -18 0 -38 -10 -53 -26z m31 11 c0 -3 -2 -5 -5 -5 -3 0 -5 2 -5
5 0 3 2 5 5 5 3 0 5 -2 5 -5z m30 0 c0 -3 -2 -5 -5 -5 -3 0 -5 2 -5 5 0 3 2 5
5 5 3 0 5 -2 5 -5z m-45 -35 c3 -5 4 -10 1 -10 -3 0 -8 5 -11 10 -3 6 -4 10
-1 10 3 0 8 -4 11 -10z m-25 -35 c0 -3 -2 -5 -5 -5 -3 0 -5 2 -5 5 0 3 2 5 5
5 3 0 5 -2 5 -5z"/>
<path d="M851 721 c-8 -5 -9 -11 -3 -15 5 -3 12 1 16 9 6 17 6 18 -13 6z"/>
<path d="M420 715 c0 -3 2 -5 5 -5 3 0 5 2 5 5 0 3 -2 5 -5 5 -3 0 -5 -2 -5
-5z"/>
<path d="M456 592 c-2 -4 -2 -29 0 -55 4 -39 2 -47 -12 -47 -12 0 -14 -3 -6
-13 8 -10 6 -13 -10 -14 -32 -3 -35 -13 -8 -35 14 -11 24 -25 22 -30 -1 -5 3
-6 9 -3 6 4 9 16 6 26 -3 10 -1 17 3 16 12 -3 60 57 51 63 -5 3 -8 25 -6 50 2
25 0 38 -5 31 -4 -8 -12 -11 -18 -7 -6 3 -13 0 -15 -6 -4 -8 -6 -7 -6 4 -1 9
5 19 12 21 9 4 9 6 0 6 -6 1 -14 -2 -17 -7z m-26 -147 c0 -3 -2 -5 -5 -5 -3 0
-5 2 -5 5 0 3 2 5 5 5 3 0 5 -2 5 -5z"/>
<path d="M770 583 c-13 -15 -12 -16 3 -10 14 5 16 2 12 -16 -3 -12 -7 -32 -8
-44 0 -13 -5 -23 -9 -23 -4 0 -8 -7 -8 -15 0 -8 -9 -15 -20 -15 -29 0 -25 -15
12 -41 l31 -23 -5 22 c-3 12 -2 20 2 19 4 -1 17 9 29 22 18 20 24 22 34 11 7
-7 7 -10 1 -7 -11 6 -48 -25 -40 -34 2 -2 -8 -15 -22 -29 -13 -14 -21 -19 -17
-11 6 9 4 12 -4 7 -6 -4 -10 -10 -8 -14 22 -48 33 -62 50 -62 14 0 18 5 14 20
-3 13 -1 18 6 13 6 -4 8 0 4 10 -4 10 -1 17 5 17 6 0 8 3 4 7 -3 4 11 24 31
45 31 31 35 41 23 48 -8 5 -17 7 -22 4 -16 -10 -48 22 -48 49 0 19 -4 26 -12
22 -7 -4 -5 0 5 8 9 8 17 18 17 22 0 4 -7 2 -15 -5 -14 -11 -19 -7 -16 13 2
12 -13 7 -29 -10z m10 -108 c0 -3 -2 -5 -5 -5 -3 0 -5 2 -5 5 0 3 2 5 5 5 3 0
5 -2 5 -5z m100 -10 c0 -3 -2 -5 -5 -5 -3 0 -5 2 -5 5 0 3 2 5 5 5 3 0 5 -2 5
-5z m-130 -20 c0 -3 -2 -5 -5 -5 -3 0 -5 2 -5 5 0 3 2 5 5 5 3 0 5 -2 5 -5z
m100 -11 c0 -8 -19 -13 -24 -6 -3 5 1 9 9 9 8 0 15 -2 15 -3z m-40 -39 c0 -3
-2 -5 -5 -5 -3 0 -5 2 -5 5 0 3 2 5 5 5 3 0 5 -2 5 -5z"/>
<path d="M136 548 c6 -34 5 -40 -7 -33 -12 8 -12 6 0 -8 12 -15 11 -17 -3 -17
-10 0 -14 -5 -11 -10 4 -6 11 -7 17 -4 7 4 8 2 4 -4 -4 -7 -16 -12 -26 -12
-32 0 -32 -17 0 -40 30 -21 39 -40 19 -40 -5 0 -7 5 -3 12 4 7 3 8 -5 4 -6 -4
-10 -10 -8 -14 21 -46 33 -62 48 -62 9 0 20 7 23 16 9 23 7 36 -3 30 -5 -4 -4
5 2 18 8 16 14 20 19 13 4 -6 4 -15 1 -21 -3 -5 -1 -6 5 -2 17 10 15 23 -9 45
l-21 20 21 -6 c20 -5 61 20 61 37 0 16 -30 18 -45 4 -8 -9 -15 -12 -15 -8 0 4
-9 -1 -20 -11 -11 -10 -20 -24 -20 -32 0 -7 -4 -13 -10 -13 -18 0 -11 16 20
48 30 32 39 49 20 37 -6 -4 -10 8 -10 29 0 19 5 38 10 41 6 4 8 11 4 16 -4 6
-11 6 -19 -1 -9 -8 -15 -8 -20 0 -15 24 -25 8 -19 -32z m14 27 c0 -3 -2 -5 -5
-5 -3 0 -5 2 -5 5 0 3 2 5 5 5 3 0 5 -2 5 -5z m40 1 c0 -2 -8 -10 -17 -17 -16
-13 -17 -12 -4 4 13 16 21 21 21 13z m50 -111 c0 -3 -2 -5 -5 -5 -3 0 -5 2 -5
5 0 3 2 5 5 5 3 0 5 -2 5 -5z m-130 -20 c0 -3 -2 -5 -5 -5 -3 0 -5 2 -5 5 0 3
2 5 5 5 3 0 5 -2 5 -5z"/>
<path d="M550 535 c0 -3 2 -5 5 -5 3 0 5 2 5 5 0 3 -2 5 -5 5 -3 0 -5 -2 -5
-5z"/>
<path d="M54 496 c-17 -18 12 -42 31 -26 8 7 15 16 15 20 0 13 -35 17 -46 6z
m26 -11 c0 -3 -2 -5 -5 -5 -3 0 -5 2 -5 5 0 3 2 5 5 5 3 0 5 -2 5 -5z"/>
<path d="M380 484 c0 -26 10 -30 28 -12 17 17 15 25 -8 31 -16 4 -20 0 -20
-19z m20 1 c0 -3 -2 -5 -5 -5 -3 0 -5 2 -5 5 0 3 2 5 5 5 3 0 5 -2 5 -5z"/>
<path d="M700 484 c0 -26 10 -30 28 -12 17 17 15 25 -8 31 -16 4 -20 0 -20
-19z m20 1 c0 -3 -2 -5 -5 -5 -3 0 -5 2 -5 5 0 3 2 5 5 5 3 0 5 -2 5 -5z"/>
<path d="M680 490 c0 -7 3 -10 7 -7 3 4 3 10 0 14 -4 3 -7 0 -7 -7z"/>
<path d="M360 485 c0 -3 2 -5 5 -5 3 0 5 2 5 5 0 3 -2 5 -5 5 -3 0 -5 -2 -5
-5z"/>
<path d="M499 454 c-13 -14 -23 -29 -22 -32 1 -4 -7 -18 -18 -31 -18 -20 -19
-27 -8 -47 14 -26 49 -33 49 -9 0 8 5 15 11 15 6 0 7 5 2 13 -11 18 -13 37 -3
37 5 0 10 -7 12 -15 2 -12 6 -11 16 6 8 11 9 18 3 14 -23 -14 -10 24 14 39 33
22 32 36 -3 36 -18 0 -38 -10 -53 -26z m31 11 c0 -3 -2 -5 -5 -5 -3 0 -5 2 -5
5 0 3 2 5 5 5 3 0 5 -2 5 -5z m30 0 c0 -3 -2 -5 -5 -5 -3 0 -5 2 -5 5 0 3 2 5
5 5 3 0 5 -2 5 -5z m-45 -35 c3 -5 4 -10 1 -10 -3 0 -8 5 -11 10 -3 6 -4 10
-1 10 3 0 8 -4 11 -10z m-25 -35 c0 -3 -2 -5 -5 -5 -3 0 -5 2 -5 5 0 3 2 5 5
5 3 0 5 -2 5 -5z"/>
<path d="M851 401 c-8 -5 -9 -11 -3 -15 5 -3 12 1 16 9 6 17 6 18 -13 6z"/>
<path d="M420 395 c0 -3 2 -5 5 -5 3 0 5 2 5 5 0 3 -2 5 -5 5 -3 0 -5 -2 -5
-5z"/>
<path d="M136 272 c-2 -4 -2 -28 0 -54 2 -26 0 -49 -6 -53 -6 -4 -8 -10 -6
-14 3 -4 -5 -8 -16 -8 -32 -3 -35 -13 -8 -35 14 -11 24 -25 22 -30 -1 -5 3 -6
9 -3 6 4 9 16 6 26 -3 10 -1 17 3 16 12 -3 60 57 51 63 -5 3 -8 25 -6 50 2 25
0 38 -5 31 -4 -8 -12 -11 -18 -7 -6 3 -13 0 -15 -6 -4 -8 -6 -7 -6 4 -1 9 5
19 12 21 9 4 9 6 0 6 -6 1 -14 -2 -17 -7z m-26 -147 c0 -3 -2 -5 -5 -5 -3 0
-5 2 -5 5 0 3 2 5 5 5 3 0 5 -2 5 -5z"/>
<path d="M450 263 c-13 -15 -12 -16 3 -10 14 5 16 2 12 -16 -3 -12 -7 -32 -8
-44 0 -13 -5 -23 -9 -23 -4 0 -8 -7 -8 -15 0 -8 -9 -15 -20 -15 -29 0 -25 -15
12 -41 l31 -23 -5 22 c-3 12 -2 20 2 19 4 -1 17 9 29 22 18 20 24 22 34 11 7
-7 7 -10 1 -7 -11 6 -48 -25 -40 -34 2 -2 -8 -15 -22 -29 -13 -14 -21 -19 -17
-11 6 9 4 12 -4 7 -6 -4 -10 -10 -8 -14 22 -48 33 -62 50 -62 14 0 18 5 14 20
-3 13 -1 18 6 13 6 -4 8 0 4 10 -4 10 -1 17 5 17 6 0 8 3 4 7 -3 4 11 24 31
45 31 31 35 41 23 48 -8 5 -17 7 -22 4 -16 -10 -48 22 -48 49 0 19 -4 26 -12
22 -7 -4 -5 0 5 8 9 8 17 18 17 22 0 4 -7 2 -15 -5 -14 -11 -19 -7 -16 13 2
12 -13 7 -29 -10z m10 -108 c0 -3 -2 -5 -5 -5 -3 0 -5 2 -5 5 0 3 2 5 5 5 3 0
5 -2 5 -5z m100 -10 c0 -3 -2 -5 -5 -5 -3 0 -5 2 -5 5 0 3 2 5 5 5 3 0 5 -2 5
-5z m-130 -20 c0 -3 -2 -5 -5 -5 -3 0 -5 2 -5 5 0 3 2 5 5 5 3 0 5 -2 5 -5z
m100 -11 c0 -8 -19 -13 -24 -6 -3 5 1 9 9 9 8 0 15 -2 15 -3z m-40 -39 c0 -3
-2 -5 -5 -5 -3 0 -5 2 -5 5 0 3 2 5 5 5 3 0 5 -2 5 -5z"/>
<path d="M776 272 c-2 -4 -3 -25 -1 -46 4 -45 -3 -68 -19 -59 -7 5 -7 2 1 -8
10 -12 8 -15 -9 -16 -32 -3 -35 -13 -8 -35 14 -11 24 -25 22 -30 -1 -5 3 -6 9
-3 6 4 9 16 6 26 -3 10 -1 17 3 16 12 -3 60 57 51 63 -5 3 -8 25 -6 50 2 25 0
38 -5 31 -4 -8 -12 -11 -18 -7 -6 3 -13 0 -15 -6 -4 -8 -6 -7 -6 4 -1 9 5 19
12 21 9 4 9 6 0 6 -6 1 -14 -2 -17 -7z m-26 -147 c0 -3 -2 -5 -5 -5 -3 0 -5 2
-5 5 0 3 2 5 5 5 3 0 5 -2 5 -5z"/>
<path d="M230 215 c0 -3 2 -5 5 -5 3 0 5 2 5 5 0 3 -2 5 -5 5 -3 0 -5 -2 -5
-5z"/>
<path d="M870 215 c0 -3 2 -5 5 -5 3 0 5 2 5 5 0 3 -2 5 -5 5 -3 0 -5 -2 -5
-5z"/>
<path d="M67 193 c-4 -3 -1 -13 6 -21 11 -13 9 -14 -13 -2 -24 13 -24 12 -10
-6 8 -10 16 -21 17 -23 4 -6 33 20 33 30 0 5 -7 9 -16 9 -8 0 -12 5 -9 10 7
11 2 13 -8 3z"/>
<path d="M380 164 c0 -26 10 -30 28 -12 17 17 15 25 -8 31 -16 4 -20 0 -20
-19z m20 1 c0 -3 -2 -5 -5 -5 -3 0 -5 2 -5 5 0 3 2 5 5 5 3 0 5 -2 5 -5z"/>
<path d="M700 164 c0 -26 10 -30 28 -12 17 17 15 25 -8 31 -16 4 -20 0 -20
-19z m20 1 c0 -3 -2 -5 -5 -5 -3 0 -5 2 -5 5 0 3 2 5 5 5 3 0 5 -2 5 -5z"/>
<path d="M120 175 c0 -3 2 -5 5 -5 3 0 5 2 5 5 0 3 -2 5 -5 5 -3 0 -5 -2 -5
-5z"/>
<path d="M360 170 c0 -7 3 -10 7 -7 3 4 3 10 0 14 -4 3 -7 0 -7 -7z"/>
<path d="M680 165 c0 -3 2 -5 5 -5 3 0 5 2 5 5 0 3 -2 5 -5 5 -3 0 -5 -2 -5
-5z"/>
<path d="M179 134 c-13 -14 -23 -29 -22 -32 1 -4 -7 -18 -18 -31 -18 -20 -19
-27 -8 -47 14 -26 49 -33 49 -9 0 8 5 15 11 15 6 0 7 5 2 13 -11 18 -13 37 -3
37 5 0 10 -7 12 -15 2 -12 6 -11 16 6 8 11 9 18 3 14 -23 -14 -10 24 14 39 33
22 32 36 -3 36 -18 0 -38 -10 -53 -26z m31 11 c0 -3 -2 -5 -5 -5 -3 0 -5 2 -5
5 0 3 2 5 5 5 3 0 5 -2 5 -5z m30 0 c0 -3 -2 -5 -5 -5 -3 0 -5 2 -5 5 0 3 2 5
5 5 3 0 5 -2 5 -5z m-45 -35 c3 -5 4 -10 1 -10 -3 0 -8 5 -11 10 -3 6 -4 10
-1 10 3 0 8 -4 11 -10z m-25 -35 c0 -3 -2 -5 -5 -5 -3 0 -5 2 -5 5 0 3 2 5 5
5 3 0 5 -2 5 -5z"/>
<path d="M819 134 c-13 -14 -23 -29 -22 -32 1 -4 -7 -18 -18 -31 -18 -20 -19
-27 -8 -47 14 -26 49 -33 49 -9 0 8 5 15 11 15 6 0 7 5 2 13 -11 18 -13 37 -3
37 5 0 10 -7 12 -15 2 -12 6 -11 16 6 8 11 9 18 3 14 -23 -14 -10 24 14 39 33
22 32 36 -3 36 -18 0 -38 -10 -53 -26z m31 11 c0 -3 -2 -5 -5 -5 -3 0 -5 2 -5
5 0 3 2 5 5 5 3 0 5 -2 5 -5z m30 0 c0 -3 -2 -5 -5 -5 -3 0 -5 2 -5 5 0 3 2 5
5 5 3 0 5 -2 5 -5z m-45 -35 c3 -5 4 -10 1 -10 -3 0 -8 5 -11 10 -3 6 -4 10
-1 10 3 0 8 -4 11 -10z m-25 -35 c0 -3 -2 -5 -5 -5 -3 0 -5 2 -5 5 0 3 2 5 5
5 3 0 5 -2 5 -5z"/>
<path d="M531 81 c-8 -5 -9 -11 -3 -15 5 -3 12 1 16 9 6 17 6 18 -13 6z"/>
<path d="M100 75 c0 -3 2 -5 5 -5 3 0 5 2 5 5 0 3 -2 5 -5 5 -3 0 -5 -2 -5 -5z"/>
<path d="M740 75 c0 -3 2 -5 5 -5 3 0 5 2 5 5 0 3 -2 5 -5 5 -3 0 -5 -2 -5 -5z"/>
</g>
<g transform="translate(0.000000,96.000000) scale(0.100000,-0.100000)"
fill="#4e361a" stroke="none">
<path d="M160 885 c0 -3 2 -5 5 -5 3 0 5 2 5 5 0 3 -2 5 -5 5 -3 0 -5 -2 -5
-5z"/>
<path d="M480 885 c0 -3 2 -5 5 -5 3 0 5 2 5 5 0 3 -2 5 -5 5 -3 0 -5 -2 -5
-5z"/>
<path d="M140 870 c0 -5 5 -10 11 -10 5 0 7 5 4 10 -3 6 -8 10 -11 10 -2 0 -4
-4 -4 -10z"/>
<path d="M460 870 c0 -5 5 -10 11 -10 5 0 7 5 4 10 -3 6 -8 10 -11 10 -2 0 -4
-4 -4 -10z"/>
<path d="M780 870 c0 -7 3 -10 7 -7 3 4 3 10 0 14 -4 3 -7 0 -7 -7z"/>
<path d="M60 825 c0 -3 2 -5 5 -5 3 0 5 2 5 5 0 3 -2 5 -5 5 -3 0 -5 -2 -5 -5z"/>
<path d="M130 825 c0 -3 2 -5 5 -5 3 0 5 2 5 5 0 3 -2 5 -5 5 -3 0 -5 -2 -5
-5z"/>
<path d="M180 825 c0 -3 2 -5 5 -5 3 0 5 2 5 5 0 3 -2 5 -5 5 -3 0 -5 -2 -5
-5z"/>
<path d="M390 815 c8 -10 7 -14 -2 -18 -7 -2 -10 -8 -6 -12 8 -8 38 12 38 25
0 4 -9 10 -21 13 -16 4 -18 3 -9 -8z"/>
<path d="M702 804 c-2 -26 7 -31 26 -12 17 17 15 25 -6 30 -13 4 -18 -1 -20
-18z m18 1 c0 -3 -2 -5 -5 -5 -3 0 -5 2 -5 5 0 3 2 5 5 5 3 0 5 -2 5 -5z"/>
<path d="M80 810 c0 -5 -8 -7 -17 -4 -15 5 -16 4 -3 -5 8 -6 11 -11 6 -11 -5
0 6 -15 25 -32 19 -18 33 -36 32 -40 -6 -17 7 -7 18 14 9 17 9 20 -4 15 -17
-6 -61 39 -47 48 13 8 13 25 0 25 -5 0 -10 -4 -10 -10z"/>
<path d="M120 805 c0 -3 2 -5 5 -5 3 0 5 2 5 5 0 3 -2 5 -5 5 -3 0 -5 -2 -5
-5z"/>
<path d="M143 800 c1 -5 -7 -15 -17 -23 -13 -10 -15 -16 -8 -21 7 -4 12 -2 12
4 0 6 5 8 12 4 7 -4 8 -3 4 4 -9 15 25 16 42 2 6 -6 10 -7 7 -4 -3 4 1 14 8
23 10 14 10 14 -5 3 -12 -10 -17 -10 -20 -1 -5 14 -39 22 -35 9z m27 -5 c0 -3
-2 -5 -5 -5 -3 0 -5 2 -5 5 0 3 2 5 5 5 3 0 5 -2 5 -5z"/>
<path d="M459 803 c-1 -5 -1 -12 0 -17 1 -5 -5 -6 -13 -3 -11 4 -14 0 -11 -16
4 -21 4 -21 -10 -3 -8 11 -18 16 -22 12 -5 -4 3 -17 17 -28 14 -11 24 -26 22
-32 -2 -7 2 -6 10 2 10 10 10 16 -1 34 -11 18 -11 20 3 15 9 -4 16 -2 16 3 0
6 7 10 16 10 8 0 13 -4 10 -9 -4 -5 -1 -20 4 -33 10 -21 10 -21 5 5 -3 16 -2
26 3 23 5 -3 9 1 9 9 0 8 -4 12 -8 10 -4 -3 -9 2 -13 10 -5 15 -35 21 -37 8z
m28 -9 c-3 -3 -12 -4 -19 -1 -8 3 -5 6 6 6 11 1 17 -2 13 -5z m-37 -49 c0 -3
-2 -5 -5 -5 -3 0 -5 2 -5 5 0 3 2 5 5 5 3 0 5 -2 5 -5z"/>
<path d="M760 805 c0 -3 2 -5 5 -5 3 0 5 2 5 5 0 3 -2 5 -5 5 -3 0 -5 -2 -5
-5z"/>
<path d="M785 801 c8 -13 -24 -29 -46 -24 -11 3 -19 1 -19 -5 0 -11 66 -10 77
1 14 14 20 6 18 -27 0 -19 3 -32 8 -29 5 3 6 16 2 30 -3 14 -2 22 3 19 5 -3 9
1 9 9 0 8 -4 12 -9 9 -4 -3 -8 0 -8 6 0 6 -4 8 -10 5 -5 -3 -10 -1 -10 4 0 6
-5 11 -11 11 -5 0 -8 -4 -4 -9z m5 -26 c0 -3 -2 -5 -5 -5 -3 0 -5 2 -5 5 0 3
2 5 5 5 3 0 5 -2 5 -5z"/>
<path d="M830 805 c0 -3 2 -5 5 -5 3 0 5 2 5 5 0 3 -2 5 -5 5 -3 0 -5 -2 -5
-5z"/>
<path d="M220 796 c0 -2 9 -6 20 -9 11 -3 20 -1 20 4 0 5 -9 9 -20 9 -11 0
-20 -2 -20 -4z"/>
<path d="M554 793 c15 -4 16 -7 5 -15 -12 -8 -12 -9 0 -6 25 7 24 28 -1 27
-19 -1 -20 -2 -4 -6z"/>
<path d="M874 793 c15 -4 16 -7 5 -15 -12 -8 -12 -9 0 -6 25 7 24 28 -1 27
-19 -1 -20 -2 -4 -6z"/>
<path d="M210 775 c0 -3 2 -5 5 -5 3 0 5 2 5 5 0 3 -2 5 -5 5 -3 0 -5 -2 -5
-5z"/>
<path d="M230 775 c0 -3 2 -5 5 -5 3 0 5 2 5 5 0 3 -2 5 -5 5 -3 0 -5 -2 -5
-5z"/>
<path d="M530 775 c0 -3 2 -5 5 -5 3 0 5 2 5 5 0 3 -2 5 -5 5 -3 0 -5 -2 -5
-5z"/>
<path d="M170 755 c0 -3 2 -5 5 -5 3 0 5 2 5 5 0 3 -2 5 -5 5 -3 0 -5 -2 -5
-5z"/>
<path d="M740 749 c0 -4 7 -10 16 -13 9 -4 14 -9 11 -13 -4 -3 -2 -14 4 -24 7
-13 6 -19 -1 -19 -6 0 -8 -5 -5 -11 5 -6 12 -4 20 8 10 13 10 20 2 25 -7 4
-12 13 -13 20 -2 30 -5 35 -19 35 -8 0 -15 -4 -15 -8z"/>
<path d="M200 745 c0 -3 2 -5 5 -5 3 0 5 2 5 5 0 3 -2 5 -5 5 -3 0 -5 -2 -5
-5z"/>
<path d="M520 745 c0 -3 2 -5 5 -5 3 0 5 2 5 5 0 3 -2 5 -5 5 -3 0 -5 -2 -5
-5z"/>
<path d="M840 745 c0 -3 2 -5 5 -5 3 0 5 2 5 5 0 3 -2 5 -5 5 -3 0 -5 -2 -5
-5z"/>
<path d="M180 730 c0 -7 3 -10 7 -7 3 4 3 10 0 14 -4 3 -7 0 -7 -7z"/>
<path d="M790 735 c0 -3 2 -5 5 -5 3 0 5 2 5 5 0 3 -2 5 -5 5 -3 0 -5 -2 -5
-5z"/>
<path d="M160 725 c0 -3 2 -5 5 -5 3 0 5 2 5 5 0 3 -2 5 -5 5 -3 0 -5 -2 -5
-5z"/>
<path d="M194 708 c-4 -7 -3 -8 4 -4 12 7 16 16 8 16 -3 0 -8 -5 -12 -12z"/>
<path d="M520 715 c0 -3 2 -5 5 -5 3 0 5 2 5 5 0 3 -2 5 -5 5 -3 0 -5 -2 -5
-5z"/>
<path d="M840 715 c0 -3 2 -5 5 -5 3 0 5 2 5 5 0 3 -2 5 -5 5 -3 0 -5 -2 -5
-5z"/>
<path d="M133 685 c-7 -8 -9 -16 -5 -19 4 -3 13 4 20 15 14 22 3 25 -15 4z"/>
<path d="M450 683 c-13 -15 -12 -16 4 -10 10 4 20 7 22 7 2 0 4 5 4 10 0 15
-13 12 -30 -7z"/>
<path d="M490 675 c0 -3 2 -5 5 -5 3 0 5 2 5 5 0 3 -2 5 -5 5 -3 0 -5 -2 -5
-5z"/>
<path d="M160 565 c0 -3 2 -5 5 -5 3 0 5 2 5 5 0 3 -2 5 -5 5 -3 0 -5 -2 -5
-5z"/>
<path d="M480 565 c0 -3 2 -5 5 -5 3 0 5 2 5 5 0 3 -2 5 -5 5 -3 0 -5 -2 -5
-5z"/>
<path d="M140 550 c0 -5 5 -10 11 -10 5 0 7 5 4 10 -3 6 -8 10 -11 10 -2 0 -4
-4 -4 -10z"/>
<path d="M460 550 c0 -5 5 -10 11 -10 5 0 7 5 4 10 -3 6 -8 10 -11 10 -2 0 -4
-4 -4 -10z"/>
<path d="M780 550 c0 -7 3 -10 7 -7 3 4 3 10 0 14 -4 3 -7 0 -7 -7z"/>
<path d="M140 525 c0 -3 2 -5 5 -5 3 0 5 2 5 5 0 3 -2 5 -5 5 -3 0 -5 -2 -5
-5z"/>
<path d="M62 484 c-2 -26 7 -31 26 -12 17 17 15 25 -6 30 -13 4 -18 -1 -20
-18z m18 1 c0 -3 -2 -5 -5 -5 -3 0 -5 2 -5 5 0 3 2 5 5 5 3 0 5 -2 5 -5z"/>
<path d="M382 484 c-2 -26 7 -31 26 -12 17 17 15 25 -6 30 -13 4 -18 -1 -20
-18z m18 1 c0 -3 -2 -5 -5 -5 -3 0 -5 2 -5 5 0 3 2 5 5 5 3 0 5 -2 5 -5z"/>
<path d="M702 484 c-2 -26 7 -31 26 -12 17 17 15 25 -6 30 -13 4 -18 -1 -20
-18z m18 1 c0 -3 -2 -5 -5 -5 -3 0 -5 2 -5 5 0 3 2 5 5 5 3 0 5 -2 5 -5z"/>
<path d="M155 481 c17 -7 16 -9 -10 -16 -28 -8 -38 -10 -59 -13 -5 -1 2 -11
15 -23 13 -12 23 -25 22 -30 -2 -4 4 -6 12 -2 12 4 13 9 5 18 -8 9 -8 15 0 20
6 3 8 11 5 16 -4 5 3 9 15 9 16 0 20 -5 16 -17 -3 -10 -1 -25 5 -33 8 -12 9
-10 4 8 -3 12 -2 22 3 22 5 0 9 7 9 15 0 8 -4 12 -8 10 -4 -3 -9 2 -13 10 -3
8 -13 15 -23 14 -16 0 -16 -1 2 -8z m-15 -36 c0 -7 -30 -13 -34 -7 -3 4 4 9
15 9 10 1 19 0 19 -2z"/>
<path d="M459 483 c-1 -5 -1 -12 0 -17 1 -5 -5 -6 -13 -3 -11 4 -14 0 -11 -16
4 -21 4 -21 -10 -3 -8 11 -18 16 -22 12 -5 -4 3 -17 17 -28 14 -11 24 -26 22
-32 -2 -7 2 -6 10 2 10 10 10 16 -1 34 -11 18 -11 20 3 15 9 -4 16 -2 16 3 0
6 7 10 16 10 8 0 13 -4 10 -9 -4 -5 -1 -20 4 -33 10 -21 10 -21 5 5 -3 16 -2
26 3 23 5 -3 9 1 9 9 0 8 -4 12 -8 10 -4 -3 -9 2 -13 10 -5 15 -35 21 -37 8z
m28 -9 c-3 -3 -12 -4 -19 -1 -8 3 -5 6 6 6 11 1 17 -2 13 -5z m-37 -49 c0 -3
-2 -5 -5 -5 -3 0 -5 2 -5 5 0 3 2 5 5 5 3 0 5 -2 5 -5z"/>
<path d="M760 485 c0 -3 2 -5 5 -5 3 0 5 2 5 5 0 3 -2 5 -5 5 -3 0 -5 -2 -5
-5z"/>
<path d="M785 481 c8 -13 -24 -29 -46 -24 -11 3 -19 1 -19 -5 0 -11 59 -10 79
2 6 4 18 3 25 -3 9 -8 13 -7 13 4 0 8 -4 12 -9 9 -4 -3 -8 0 -8 6 0 6 -4 8
-10 5 -5 -3 -10 -1 -10 4 0 6 -5 11 -11 11 -5 0 -8 -4 -4 -9z m5 -26 c0 -3 -2
-5 -5 -5 -3 0 -5 2 -5 5 0 3 2 5 5 5 3 0 5 -2 5 -5z"/>
<path d="M830 485 c0 -3 2 -5 5 -5 3 0 5 2 5 5 0 3 -2 5 -5 5 -3 0 -5 -2 -5
-5z"/>
<path d="M120 475 c0 -3 2 -5 5 -5 3 0 5 2 5 5 0 3 -2 5 -5 5 -3 0 -5 -2 -5
-5z"/>
<path d="M234 473 c15 -4 16 -7 5 -15 -12 -8 -12 -9 0 -6 25 7 24 28 -1 27
-19 -1 -20 -2 -4 -6z"/>
<path d="M554 473 c15 -4 16 -7 5 -15 -12 -8 -12 -9 0 -6 25 7 24 28 -1 27
-19 -1 -20 -2 -4 -6z"/>
<path d="M874 473 c15 -4 16 -7 5 -15 -12 -8 -12 -9 0 -6 25 7 24 28 -1 27
-19 -1 -20 -2 -4 -6z"/>
<path d="M210 455 c0 -3 2 -5 5 -5 3 0 5 2 5 5 0 3 -2 5 -5 5 -3 0 -5 -2 -5
-5z"/>
<path d="M530 455 c0 -3 2 -5 5 -5 3 0 5 2 5 5 0 3 -2 5 -5 5 -3 0 -5 -2 -5
-5z"/>
<path d="M850 455 c0 -3 2 -5 5 -5 3 0 5 2 5 5 0 3 -2 5 -5 5 -3 0 -5 -2 -5
-5z"/>
<path d="M740 429 c0 -4 7 -10 16 -13 9 -4 14 -9 11 -13 -4 -3 -2 -14 4 -24 7
-13 6 -19 -1 -19 -6 0 -8 -5 -5 -11 5 -6 12 -4 20 8 10 13 10 20 2 25 -7 4
-12 13 -13 20 -2 30 -5 35 -19 35 -8 0 -15 -4 -15 -8z"/>
<path d="M803 433 c4 -3 10 -3 14 0 3 4 0 7 -7 7 -7 0 -10 -3 -7 -7z"/>
<path d="M520 425 c0 -3 2 -5 5 -5 3 0 5 2 5 5 0 3 -2 5 -5 5 -3 0 -5 -2 -5
-5z"/>
<path d="M840 425 c0 -3 2 -5 5 -5 3 0 5 2 5 5 0 3 -2 5 -5 5 -3 0 -5 -2 -5
-5z"/>
<path d="M795 410 c3 -5 8 -10 11 -10 3 0 2 5 -1 10 -3 6 -8 10 -11 10 -3 0
-2 -4 1 -10z"/>
<path d="M820 410 c0 -7 3 -10 7 -7 3 4 3 10 0 14 -4 3 -7 0 -7 -7z"/>
<path d="M200 395 c0 -3 2 -5 5 -5 3 0 5 2 5 5 0 3 -2 5 -5 5 -3 0 -5 -2 -5
-5z"/>
<path d="M520 395 c0 -3 2 -5 5 -5 3 0 5 2 5 5 0 3 -2 5 -5 5 -3 0 -5 -2 -5
-5z"/>
<path d="M840 395 c0 -3 2 -5 5 -5 3 0 5 2 5 5 0 3 -2 5 -5 5 -3 0 -5 -2 -5
-5z"/>
<path d="M140 377 c0 -9 -5 -17 -11 -17 -5 0 -7 -5 -4 -10 4 -6 12 -4 22 6 12
11 13 18 4 27 -8 8 -11 7 -11 -6z"/>
<path d="M450 363 c-13 -15 -12 -16 4 -10 10 4 20 7 22 7 2 0 4 5 4 10 0 15
-13 12 -30 -7z"/>
<path d="M490 355 c0 -3 2 -5 5 -5 3 0 5 2 5 5 0 3 -2 5 -5 5 -3 0 -5 -2 -5
-5z"/>
<path d="M160 245 c0 -3 2 -5 5 -5 3 0 5 2 5 5 0 3 -2 5 -5 5 -3 0 -5 -2 -5
-5z"/>
<path d="M800 245 c0 -3 2 -5 5 -5 3 0 5 2 5 5 0 3 -2 5 -5 5 -3 0 -5 -2 -5
-5z"/>
<path d="M140 230 c0 -5 5 -10 11 -10 5 0 7 5 4 10 -3 6 -8 10 -11 10 -2 0 -4
-4 -4 -10z"/>
<path d="M460 230 c0 -7 3 -10 7 -7 3 4 3 10 0 14 -4 3 -7 0 -7 -7z"/>
<path d="M780 230 c0 -5 5 -10 11 -10 5 0 7 5 4 10 -3 6 -8 10 -11 10 -2 0 -4
-4 -4 -10z"/>
<path d="M62 164 c-2 -26 7 -31 26 -12 17 17 15 25 -6 30 -13 4 -18 -1 -20
-18z m18 1 c0 -3 -2 -5 -5 -5 -3 0 -5 2 -5 5 0 3 2 5 5 5 3 0 5 -2 5 -5z"/>
<path d="M382 164 c-2 -26 7 -31 26 -12 17 17 15 25 -6 30 -13 4 -18 -1 -20
-18z m18 1 c0 -3 -2 -5 -5 -5 -3 0 -5 2 -5 5 0 3 2 5 5 5 3 0 5 -2 5 -5z"/>
<path d="M702 164 c-2 -26 7 -31 26 -12 17 17 15 25 -6 30 -13 4 -18 -1 -20
-18z m18 1 c0 -3 -2 -5 -5 -5 -3 0 -5 2 -5 5 0 3 2 5 5 5 3 0 5 -2 5 -5z"/>
<path d="M139 163 c-1 -5 -1 -12 0 -17 1 -5 -5 -6 -13 -3 -11 4 -14 0 -11 -16
4 -21 4 -21 -10 -3 -8 11 -18 16 -22 12 -5 -4 3 -17 17 -28 14 -11 24 -26 22
-32 -2 -7 2 -6 10 2 10 10 10 16 -1 34 -11 18 -11 20 3 15 9 -4 16 -2 16 3 0
6 7 10 16 10 8 0 13 -4 10 -9 -4 -5 -1 -20 4 -33 10 -21 10 -21 5 5 -3 16 -2
26 3 23 5 -3 9 1 9 9 0 8 -4 12 -8 10 -4 -3 -9 2 -13 10 -5 15 -35 21 -37 8z
m28 -9 c-3 -3 -12 -4 -19 -1 -8 3 -5 6 6 6 11 1 17 -2 13 -5z m-37 -49 c0 -3
-2 -5 -5 -5 -3 0 -5 2 -5 5 0 3 2 5 5 5 3 0 5 -2 5 -5z"/>
<path d="M440 165 c0 -3 2 -5 5 -5 3 0 5 2 5 5 0 3 -2 5 -5 5 -3 0 -5 -2 -5
-5z"/>
<path d="M465 161 c8 -13 -24 -29 -46 -24 -11 3 -19 1 -19 -5 0 -11 59 -10 79
2 6 4 18 3 25 -3 9 -8 13 -7 13 4 0 8 -4 12 -9 9 -4 -3 -8 0 -8 6 0 6 -4 8
-10 5 -5 -3 -10 -1 -10 4 0 6 -5 11 -11 11 -5 0 -8 -4 -4 -9z m5 -26 c0 -3 -2
-5 -5 -5 -3 0 -5 2 -5 5 0 3 2 5 5 5 3 0 5 -2 5 -5z"/>
<path d="M510 165 c0 -3 2 -5 5 -5 3 0 5 2 5 5 0 3 -2 5 -5 5 -3 0 -5 -2 -5
-5z"/>
<path d="M779 163 c-1 -5 -1 -12 0 -17 1 -5 -5 -6 -13 -3 -11 4 -14 0 -11 -16
4 -21 4 -21 -10 -3 -8 11 -18 16 -22 12 -5 -4 3 -17 17 -28 14 -11 24 -26 22
-32 -2 -7 2 -6 10 2 10 10 10 16 -1 34 -11 18 -11 20 3 15 9 -4 16 -2 16 3 0
6 7 10 16 10 8 0 13 -4 10 -9 -4 -5 -1 -20 4 -33 10 -21 10 -21 5 5 -3 16 -2
26 3 23 5 -3 9 1 9 9 0 8 -4 12 -8 10 -4 -3 -9 2 -13 10 -5 15 -35 21 -37 8z
m28 -9 c-3 -3 -12 -4 -19 -1 -8 3 -5 6 6 6 11 1 17 -2 13 -5z m-37 -49 c0 -3
-2 -5 -5 -5 -3 0 -5 2 -5 5 0 3 2 5 5 5 3 0 5 -2 5 -5z"/>
<path d="M234 153 c15 -4 16 -7 5 -15 -12 -8 -12 -9 0 -6 25 7 24 28 -1 27
-19 -1 -20 -2 -4 -6z"/>
<path d="M554 153 c15 -4 16 -7 5 -15 -12 -8 -12 -9 0 -6 25 7 24 28 -1 27
-19 -1 -20 -2 -4 -6z"/>
<path d="M874 153 c15 -4 16 -7 5 -15 -12 -8 -12 -9 0 -6 25 7 24 28 -1 27
-19 -1 -20 -2 -4 -6z"/>
<path d="M210 135 c0 -3 2 -5 5 -5 3 0 5 2 5 5 0 3 -2 5 -5 5 -3 0 -5 -2 -5
-5z"/>
<path d="M530 135 c0 -3 2 -5 5 -5 3 0 5 2 5 5 0 3 -2 5 -5 5 -3 0 -5 -2 -5
-5z"/>
<path d="M850 135 c0 -3 2 -5 5 -5 3 0 5 2 5 5 0 3 -2 5 -5 5 -3 0 -5 -2 -5
-5z"/>
<path d="M420 109 c0 -4 7 -10 16 -13 9 -4 14 -9 11 -13 -4 -3 -2 -14 4 -24 7
-13 6 -19 -1 -19 -6 0 -8 -5 -5 -11 5 -6 12 -4 20 8 10 13 10 20 2 25 -7 4
-12 13 -13 20 -2 30 -5 35 -19 35 -8 0 -15 -4 -15 -8z"/>
<path d="M483 113 c4 -3 10 -3 14 0 3 4 0 7 -7 7 -7 0 -10 -3 -7 -7z"/>
<path d="M200 105 c0 -3 2 -5 5 -5 3 0 5 2 5 5 0 3 -2 5 -5 5 -3 0 -5 -2 -5
-5z"/>
<path d="M520 105 c0 -3 2 -5 5 -5 3 0 5 2 5 5 0 3 -2 5 -5 5 -3 0 -5 -2 -5
-5z"/>
<path d="M840 105 c0 -3 2 -5 5 -5 3 0 5 2 5 5 0 3 -2 5 -5 5 -3 0 -5 -2 -5
-5z"/>
<path d="M475 90 c3 -5 8 -10 11 -10 3 0 2 5 -1 10 -3 6 -8 10 -11 10 -3 0 -2
-4 1 -10z"/>
<path d="M500 90 c0 -7 3 -10 7 -7 3 4 3 10 0 14 -4 3 -7 0 -7 -7z"/>
<path d="M200 75 c0 -3 2 -5 5 -5 3 0 5 2 5 5 0 3 -2 5 -5 5 -3 0 -5 -2 -5 -5z"/>
<path d="M520 75 c0 -3 2 -5 5 -5 3 0 5 2 5 5 0 3 -2 5 -5 5 -3 0 -5 -2 -5 -5z"/>
<path d="M840 75 c0 -3 2 -5 5 -5 3 0 5 2 5 5 0 3 -2 5 -5 5 -3 0 -5 -2 -5 -5z"/>
<path d="M130 43 c-13 -15 -12 -16 4 -10 10 4 20 7 22 7 2 0 4 5 4 10 0 15
-13 12 -30 -7z"/>
<path d="M770 43 c-13 -15 -12 -16 4 -10 10 4 20 7 22 7 2 0 4 5 4 10 0 15
-13 12 -30 -7z"/>
<path d="M170 35 c0 -3 2 -5 5 -5 3 0 5 2 5 5 0 3 -2 5 -5 5 -3 0 -5 -2 -5 -5z"/>
<path d="M810 35 c0 -3 2 -5 5 -5 3 0 5 2 5 5 0 3 -2 5 -5 5 -3 0 -5 -2 -5 -5z"/>
</g>
  </g>
</svg>
