<?xml version="1.0" encoding="UTF-8" standalone="no"?>
<!-- Created with Inkscape (http://www.inkscape.org/) -->

<svg
   xmlns:dc="http://purl.org/dc/elements/1.1/"
   xmlns:cc="http://creativecommons.org/ns#"
   xmlns:rdf="http://www.w3.org/1999/02/22-rdf-syntax-ns#"
   xmlns:svg="http://www.w3.org/2000/svg"
   xmlns="http://www.w3.org/2000/svg"
   xmlns:sodipodi="http://sodipodi.sourceforge.net/DTD/sodipodi-0.dtd"
   xmlns:inkscape="http://www.inkscape.org/namespaces/inkscape"
   width="16px"
   height="16px"
   viewBox="0 0 16px 16px"
   version="1.1"
   id="svgMain"
   inkscape:version="0.92.2 (5c3e80d, 2017-08-06)"
   sodipodi:docname="reference_SVG.svg">
  <defs
     id="defs4542" />
  <sodipodi:namedview
     id="base"
     pagecolor="#ffffff"
     bordercolor="#666666"
     borderopacity="1.0"
     inkscape:pageopacity="0.0"
     inkscape:pageshadow="2"
     inkscape:zoom="1"
     inkscape:cx="0"
     inkscape:cy="0"
     inkscape:document-units="px"
     inkscape:current-layer="layer1"
     showgrid="false"
     units="px"
     inkscape:window-width="1024"
     inkscape:window-height="768"
     inkscape:window-x="-8"
     inkscape:window-y="-8"
     inkscape:window-maximized="1" />
  <metadata
     id="metadata1">
    <rdf:RDF>
      <cc:Work
         rdf:about="">
        <dc:format>image/svg+xml</dc:format>
        <dc:type
           rdf:resource="http://purl.org/dc/dcmitype/StillImage" />
        <dc:title />
      </cc:Work>
    </rdf:RDF>
  </metadata>
  <g transform="translate(-16,-16) scale(0.5,0.5)"
     inkscape:label="Layer 1"
     inkscape:groupmode="layer"
     id="layer1">
    <!-- INSERT MARKER -->
<g transform="translate(0.000000,96.000000) scale(0.100000,-0.100000)"
fill="#1f6519" stroke="none">
<path d="M44 938 c-3 -5 -1 -15 5 -21 12 -12 15 -41 4 -34 -5 3 -17 1 -28 -3
-18 -7 -16 -10 18 -26 35 -17 54 -43 22 -30 -8 3 -22 3 -30 0 -22 -9 43 -87
67 -81 16 5 18 -2 18 -49 l0 -54 40 0 40 0 0 58 c0 55 9 86 25 82 4 -2 20 7
37 20 28 20 28 22 11 35 -10 7 -15 17 -10 21 4 4 0 16 -10 26 -9 10 -12 18 -8
18 4 0 0 9 -10 20 -14 15 -21 17 -32 9 -7 -6 -13 -8 -13 -4 0 5 -9 0 -19 -9
-11 -10 -24 -15 -30 -12 -16 10 -24 -33 -9 -51 11 -15 11 -16 -5 -10 -10 4
-20 7 -23 7 -2 0 1 11 6 24 6 16 4 30 -5 44 -17 23 -52 35 -61 20z m137 -91
c-16 -16 -26 0 -10 19 9 11 15 12 17 4 2 -6 -1 -17 -7 -23z"/>
<path d="M364 938 c-3 -5 -1 -15 5 -21 12 -12 15 -41 4 -34 -5 3 -17 1 -28 -3
-18 -7 -16 -10 18 -26 35 -17 54 -43 22 -30 -8 3 -22 3 -30 0 -22 -9 43 -87
67 -81 16 5 18 -2 18 -49 l0 -54 40 0 40 0 0 58 c0 55 9 86 25 82 4 -2 20 7
37 20 28 20 28 22 11 35 -10 7 -15 17 -10 21 4 4 0 16 -10 26 -9 10 -12 18 -8
18 4 0 0 9 -10 20 -14 15 -21 17 -32 9 -7 -6 -13 -8 -13 -4 0 5 -9 0 -19 -9
-11 -10 -24 -15 -30 -12 -16 10 -24 -33 -9 -51 11 -15 11 -16 -5 -10 -10 4
-20 7 -23 7 -2 0 1 11 6 24 6 16 4 30 -5 44 -17 23 -52 35 -61 20z m137 -91
c-16 -16 -26 0 -10 19 9 11 15 12 17 4 2 -6 -1 -17 -7 -23z"/>
<path d="M684 938 c-3 -5 -1 -15 5 -21 12 -12 15 -41 4 -34 -5 3 -17 1 -28 -3
-18 -7 -16 -10 18 -26 35 -17 54 -43 22 -30 -8 3 -22 3 -30 0 -22 -9 43 -87
67 -81 16 5 18 -2 18 -49 l0 -54 40 0 40 0 0 58 c0 55 9 86 25 82 4 -2 20 7
37 20 28 20 28 22 11 35 -10 7 -15 17 -10 21 4 4 0 16 -10 26 -9 10 -12 18 -8
18 4 0 0 9 -10 20 -14 15 -21 17 -32 9 -7 -6 -13 -8 -13 -4 0 5 -9 0 -19 -9
-11 -10 -24 -15 -30 -12 -16 10 -24 -33 -9 -51 11 -15 11 -16 -5 -10 -10 4
-20 7 -23 7 -2 0 1 11 6 24 6 16 4 30 -5 44 -17 23 -52 35 -61 20z m137 -91
c-16 -16 -26 0 -10 19 9 11 15 12 17 4 2 -6 -1 -17 -7 -23z"/>
<path d="M44 618 c-3 -5 -1 -15 5 -21 12 -12 15 -41 4 -34 -5 3 -17 1 -28 -3
-18 -7 -16 -10 18 -26 35 -17 54 -43 22 -30 -8 3 -22 3 -30 0 -22 -9 43 -87
67 -81 16 5 18 -2 18 -49 l0 -54 40 0 40 0 0 58 c0 55 9 86 25 82 4 -2 20 7
37 20 28 20 28 22 11 35 -10 7 -15 17 -10 21 4 4 0 16 -10 26 -9 10 -12 18 -8
18 4 0 0 9 -10 20 -14 15 -21 17 -32 9 -7 -6 -13 -8 -13 -4 0 5 -9 0 -19 -9
-11 -10 -24 -15 -30 -12 -16 10 -24 -33 -9 -51 11 -15 11 -16 -5 -10 -10 4
-20 7 -23 7 -2 0 1 11 6 24 6 16 4 30 -5 44 -17 23 -52 35 -61 20z m137 -91
c-16 -16 -26 0 -10 19 9 11 15 12 17 4 2 -6 -1 -17 -7 -23z"/>
<path d="M364 618 c-3 -5 -1 -15 5 -21 12 -12 15 -41 4 -34 -5 3 -17 1 -28 -3
-18 -7 -16 -10 18 -26 35 -17 54 -43 22 -30 -8 3 -22 3 -30 0 -22 -9 43 -87
67 -81 16 5 18 -2 18 -49 l0 -54 40 0 40 0 0 58 c0 55 9 86 25 82 4 -2 20 7
37 20 28 20 28 22 11 35 -10 7 -15 17 -10 21 4 4 0 16 -10 26 -9 10 -12 18 -8
18 4 0 0 9 -10 20 -14 15 -21 17 -32 9 -7 -6 -13 -8 -13 -4 0 5 -9 0 -19 -9
-11 -10 -24 -15 -30 -12 -16 10 -24 -33 -9 -51 11 -15 11 -16 -5 -10 -10 4
-20 7 -23 7 -2 0 1 11 6 24 6 16 4 30 -5 44 -17 23 -52 35 -61 20z m137 -91
c-16 -16 -26 0 -10 19 9 11 15 12 17 4 2 -6 -1 -17 -7 -23z"/>
<path d="M684 618 c-3 -5 -1 -15 5 -21 12 -12 15 -41 4 -34 -5 3 -17 1 -28 -3
-18 -7 -16 -10 18 -26 35 -17 54 -43 22 -30 -8 3 -22 3 -30 0 -22 -9 43 -87
67 -81 16 5 18 -2 18 -49 l0 -54 40 0 40 0 0 58 c0 55 9 86 25 82 4 -2 20 7
37 20 28 20 28 22 11 35 -10 7 -15 17 -10 21 4 4 0 16 -10 26 -9 10 -12 18 -8
18 4 0 0 9 -10 20 -14 15 -21 17 -32 9 -7 -6 -13 -8 -13 -4 0 5 -9 0 -19 -9
-11 -10 -24 -15 -30 -12 -16 10 -24 -33 -9 -51 11 -15 11 -16 -5 -10 -10 4
-20 7 -23 7 -2 0 1 11 6 24 6 16 4 30 -5 44 -17 23 -52 35 -61 20z m137 -91
c-16 -16 -26 0 -10 19 9 11 15 12 17 4 2 -6 -1 -17 -7 -23z"/>
<path d="M44 298 c-3 -5 -1 -15 5 -21 12 -12 15 -41 4 -34 -5 3 -17 1 -28 -3
-18 -7 -16 -10 18 -26 35 -17 54 -43 22 -30 -8 3 -22 3 -30 0 -22 -9 43 -87
67 -81 16 5 18 -2 18 -49 l0 -54 40 0 40 0 0 58 c0 55 9 86 25 82 4 -2 20 7
37 20 28 20 28 22 11 35 -10 7 -15 17 -10 21 4 4 0 16 -10 26 -9 10 -12 18 -8
18 4 0 0 9 -10 20 -14 15 -21 17 -32 9 -7 -6 -13 -8 -13 -4 0 5 -9 0 -19 -9
-11 -10 -24 -15 -30 -12 -16 10 -24 -33 -9 -51 11 -15 11 -16 -5 -10 -10 4
-20 7 -23 7 -2 0 1 11 6 24 6 16 4 30 -5 44 -17 23 -52 35 -61 20z m137 -91
c-16 -16 -26 0 -10 19 9 11 15 12 17 4 2 -6 -1 -17 -7 -23z"/>
<path d="M364 298 c-3 -5 -1 -15 5 -21 12 -12 15 -41 4 -34 -5 3 -17 1 -28 -3
-18 -7 -16 -10 18 -26 35 -17 54 -43 22 -30 -8 3 -22 3 -30 0 -22 -9 43 -87
67 -81 16 5 18 -2 18 -49 l0 -54 40 0 40 0 0 58 c0 55 9 86 25 82 4 -2 20 7
37 20 28 20 28 22 11 35 -10 7 -15 17 -10 21 4 4 0 16 -10 26 -9 10 -12 18 -8
18 4 0 0 9 -10 20 -14 15 -21 17 -32 9 -7 -6 -13 -8 -13 -4 0 5 -9 0 -19 -9
-11 -10 -24 -15 -30 -12 -16 10 -24 -33 -9 -51 11 -15 11 -16 -5 -10 -10 4
-20 7 -23 7 -2 0 1 11 6 24 6 16 4 30 -5 44 -17 23 -52 35 -61 20z m137 -91
c-16 -16 -26 0 -10 19 9 11 15 12 17 4 2 -6 -1 -17 -7 -23z"/>
<path d="M684 298 c-3 -5 -1 -15 5 -21 12 -12 15 -41 4 -34 -5 3 -17 1 -28 -3
-18 -7 -16 -10 18 -26 35 -17 54 -43 22 -30 -8 3 -22 3 -30 0 -22 -9 43 -87
67 -81 16 5 18 -2 18 -49 l0 -54 40 0 40 0 0 58 c0 55 9 86 25 82 4 -2 20 7
37 20 28 20 28 22 11 35 -10 7 -15 17 -10 21 4 4 0 16 -10 26 -9 10 -12 18 -8
18 4 0 0 9 -10 20 -14 15 -21 17 -32 9 -7 -6 -13 -8 -13 -4 0 5 -9 0 -19 -9
-11 -10 -24 -15 -30 -12 -16 10 -24 -33 -9 -51 11 -15 11 -16 -5 -10 -10 4
-20 7 -23 7 -2 0 1 11 6 24 6 16 4 30 -5 44 -17 23 -52 35 -61 20z m137 -91
c-16 -16 -26 0 -10 19 9 11 15 12 17 4 2 -6 -1 -17 -7 -23z"/>
</g>
<g transform="translate(0.000000,96.000000) scale(0.100000,-0.100000)"
fill="#553a1a" stroke="none">
<path d="M206 933 c-10 -10 -7 -33 5 -33 5 0 8 4 5 9 -4 5 -1 11 6 13 8 3 9 6
1 11 -5 4 -13 4 -17 0z"/>
<path d="M524 929 c-3 -6 -2 -15 3 -20 5 -5 9 -1 10 11 2 22 -2 25 -13 9z"/>
<path d="M690 924 c0 -8 5 -12 10 -9 6 4 8 11 5 16 -9 14 -15 11 -15 -7z"/>
<path d="M845 930 c-10 -16 7 -31 23 -21 10 6 10 10 -2 20 -10 9 -16 9 -21 1z
m15 -15 c0 -3 -2 -5 -5 -5 -3 0 -5 2 -5 5 0 3 2 5 5 5 3 0 5 -2 5 -5z"/>
<path d="M50 919 c0 -5 5 -7 10 -4 6 3 10 8 10 11 0 2 -4 4 -10 4 -5 0 -10 -5
-10 -11z"/>
<path d="M370 921 c0 -5 4 -11 10 -13 5 -1 7 -13 4 -25 -4 -13 -10 -20 -15
-17 -5 3 -9 0 -9 -5 0 -10 14 -15 33 -12 4 0 7 -5 7 -11 0 -9 3 -9 9 1 5 8 7
20 4 27 -2 6 1 15 6 19 6 3 9 11 5 16 -3 5 -10 7 -15 4 -5 -4 -12 1 -15 9 -7
17 -24 22 -24 7z"/>
<path d="M64 884 c-3 -13 -11 -24 -18 -24 -6 0 -5 -4 4 -9 8 -6 18 -7 22 -5 4
3 8 -1 8 -8 0 -10 3 -9 9 2 6 8 7 18 4 22 -2 5 1 15 7 23 7 8 11 15 9 16 -35
7 -40 5 -45 -17z"/>
<path d="M705 889 c-4 -10 -4 -23 0 -29 3 -6 -1 -7 -12 -4 -10 3 -7 -1 7 -9
18 -11 27 -12 32 -4 6 9 8 9 8 0 0 -7 5 -13 12 -13 6 0 3 9 -7 20 -15 16 -15
22 -5 35 7 8 11 15 9 16 -32 6 -39 5 -44 -12z"/>
<path d="M170 895 c0 -3 2 -5 5 -5 3 0 5 2 5 5 0 3 -2 5 -5 5 -3 0 -5 -2 -5
-5z"/>
<path d="M490 890 c0 -7 3 -10 7 -7 3 4 3 10 0 14 -4 3 -7 0 -7 -7z"/>
<path d="M130 875 c-7 -8 -8 -15 -2 -15 5 0 15 7 22 15 7 8 8 15 2 15 -5 0
-15 -7 -22 -15z"/>
<path d="M450 875 c-7 -8 -8 -15 -2 -15 5 0 15 7 22 15 7 8 8 15 2 15 -5 0
-15 -7 -22 -15z"/>
<path d="M771 876 c-9 -11 -9 -16 1 -22 7 -4 9 -3 5 1 -4 5 3 15 15 22 17 9
19 12 7 13 -9 0 -22 -6 -28 -14z"/>
<path d="M194 873 c3 -4 -4 -17 -16 -30 -25 -27 -6 -32 26 -8 11 8 28 13 38 9
21 -6 24 9 6 23 -14 10 -64 16 -54 6z"/>
<path d="M516 869 c2 -4 -9 -18 -25 -32 -17 -14 -29 -26 -28 -29 1 -2 -2 0 -7
4 -15 12 -38 10 -31 -3 4 -6 1 -10 -6 -8 -34 4 -47 -2 -42 -19 6 -26 42 -47
56 -33 8 8 6 11 -8 11 -14 0 -16 3 -8 11 9 9 16 8 27 -4 10 -10 12 -18 6 -22
-5 -3 -10 -28 -10 -56 l0 -49 40 0 40 0 0 63 c0 68 -10 93 -33 84 -10 -4 -13
0 -10 11 6 21 68 53 88 46 18 -7 20 11 3 23 -16 10 -58 11 -52 2z"/>
<path d="M836 869 c2 -4 -9 -18 -25 -32 -17 -14 -29 -26 -28 -29 1 -2 -2 0 -7
4 -15 12 -38 9 -30 -3 4 -7 0 -9 -13 -5 -12 4 -25 1 -33 -9 -9 -11 -9 -15 -1
-15 7 0 10 -4 6 -9 -3 -6 4 -15 16 -21 17 -9 24 -8 40 6 10 9 19 12 19 6 0 -6
-4 -14 -10 -17 -5 -3 -10 -28 -10 -56 l0 -49 40 0 40 0 0 62 c0 50 -4 66 -22
85 -12 13 -20 24 -17 25 28 18 69 38 74 38 4 0 1 -10 -8 -23 -14 -21 -13 -23
5 -24 14 -1 18 3 14 14 -4 9 -1 20 6 24 10 7 10 11 0 21 -13 13 -64 19 -56 7z
m-36 -84 c0 -3 -2 -5 -5 -5 -3 0 -5 2 -5 5 0 3 2 5 5 5 3 0 5 -2 5 -5z m-40
-15 c0 -5 -7 -10 -16 -10 -8 0 -12 5 -9 10 3 6 10 10 16 10 5 0 9 -4 9 -10z"/>
<path d="M105 840 c-4 -6 3 -10 14 -10 25 0 27 6 6 13 -8 4 -17 2 -20 -3z"/>
<path d="M425 840 c-3 -5 -1 -10 4 -10 6 0 11 5 11 10 0 6 -2 10 -4 10 -3 0
-8 -4 -11 -10z"/>
<path d="M450 835 c0 -3 2 -5 5 -5 3 0 5 2 5 5 0 3 -2 5 -5 5 -3 0 -5 -2 -5
-5z"/>
<path d="M770 835 c0 -3 2 -5 5 -5 3 0 5 2 5 5 0 3 -2 5 -5 5 -3 0 -5 -2 -5
-5z"/>
<path d="M213 813 c0 -7 6 -13 14 -13 7 0 13 6 13 13 0 8 -6 14 -13 14 -8 0
-14 -6 -14 -14z"/>
<path d="M364 818 c-4 -7 -3 -8 4 -4 12 7 16 16 8 16 -3 0 -8 -5 -12 -12z"/>
<path d="M526 823 c-3 -3 -3 -10 0 -14 7 -12 34 -11 34 0 0 11 -26 22 -34 14z
m14 -8 c0 -3 -2 -5 -5 -5 -3 0 -5 2 -5 5 0 3 2 5 5 5 3 0 5 -2 5 -5z"/>
<path d="M685 820 c3 -5 8 -10 11 -10 3 0 2 5 -1 10 -3 6 -8 10 -11 10 -3 0
-2 -4 1 -10z"/>
<path d="M30 815 c0 -3 2 -5 5 -5 3 0 5 2 5 5 0 3 -2 5 -5 5 -3 0 -5 -2 -5 -5z"/>
<path d="M100 810 c0 -6 -6 -10 -12 -9 -29 3 -37 -2 -31 -18 11 -28 35 -42 55
-32 24 13 34 11 20 -3 -7 -7 -12 -34 -12 -60 l0 -48 41 0 40 0 -2 75 c-1 41
-5 72 -9 70 -4 -3 -13 2 -20 10 -7 8 -16 13 -20 10 -5 -3 -11 -1 -15 5 -8 13
-35 13 -35 0z m-20 -25 c0 -3 -2 -5 -5 -5 -3 0 -5 2 -5 5 0 3 2 5 5 5 3 0 5
-2 5 -5z m80 0 c0 -3 -2 -5 -5 -5 -3 0 -5 2 -5 5 0 3 2 5 5 5 3 0 5 -2 5 -5z
m-40 -15 c0 -5 -7 -10 -16 -10 -8 0 -12 5 -9 10 3 6 10 10 16 10 5 0 9 -4 9
-10z"/>
<path d="M190 805 c0 -3 2 -5 5 -5 3 0 5 2 5 5 0 3 -2 5 -5 5 -3 0 -5 -2 -5
-5z"/>
<path d="M206 611 c-3 -5 1 -11 9 -15 8 -3 15 -1 15 4 0 13 -18 22 -24 11z"/>
<path d="M524 609 c-3 -6 -2 -15 3 -20 5 -5 9 -1 10 11 2 22 -2 25 -13 9z"/>
<path d="M690 604 c0 -8 5 -12 10 -9 6 4 8 11 5 16 -9 14 -15 11 -15 -7z"/>
<path d="M845 610 c-10 -16 7 -31 23 -21 10 6 10 10 -2 20 -10 9 -16 9 -21 1z
m15 -15 c0 -3 -2 -5 -5 -5 -3 0 -5 2 -5 5 0 3 2 5 5 5 3 0 5 -2 5 -5z"/>
<path d="M50 601 c0 -5 4 -11 10 -13 5 -1 7 -13 3 -26 -3 -14 -11 -21 -19 -18
-22 8 -16 -2 7 -15 17 -9 20 -8 14 3 -3 7 1 4 9 -6 9 -11 16 -14 16 -7 0 7 5
9 13 5 8 -5 8 -2 -2 9 -11 14 -11 20 -1 32 11 14 7 19 -13 16 -4 -1 -10 6 -13
14 -7 16 -24 21 -24 6z"/>
<path d="M370 601 c0 -5 4 -11 10 -13 5 -1 7 -13 4 -25 -4 -13 -10 -20 -15
-17 -5 3 -9 0 -9 -5 0 -10 14 -15 33 -12 4 0 7 -5 7 -11 0 -9 3 -9 9 1 5 8 7
20 4 27 -2 6 1 15 6 19 6 3 9 11 5 16 -3 5 -10 7 -15 4 -5 -4 -12 1 -15 9 -7
17 -24 22 -24 7z"/>
<path d="M705 569 c-4 -10 -4 -23 0 -29 3 -6 -1 -7 -12 -4 -10 3 -7 -1 7 -9
18 -11 27 -12 32 -4 6 9 8 9 8 0 0 -7 5 -13 12 -13 6 0 3 9 -7 20 -15 16 -15
22 -5 35 7 8 11 15 9 16 -32 6 -39 5 -44 -12z"/>
<path d="M133 558 c-9 -11 -11 -18 -5 -18 7 0 12 5 12 10 0 6 6 10 14 10 8 0
17 4 20 8 10 17 -24 8 -41 -10z"/>
<path d="M490 570 c0 -7 3 -10 7 -7 3 4 3 10 0 14 -4 3 -7 0 -7 -7z"/>
<path d="M450 555 c-7 -8 -8 -15 -2 -15 5 0 15 7 22 15 7 8 8 15 2 15 -5 0
-15 -7 -22 -15z"/>
<path d="M771 556 c-9 -11 -9 -16 1 -22 7 -4 9 -3 5 1 -4 5 3 15 15 22 17 9
19 12 7 13 -9 0 -22 -6 -28 -14z"/>
<path d="M194 553 c3 -4 -4 -17 -16 -30 -25 -27 -6 -32 26 -8 11 8 28 13 38 9
21 -6 24 9 6 23 -14 10 -64 16 -54 6z"/>
<path d="M516 549 c2 -4 -9 -18 -25 -32 -17 -14 -29 -26 -28 -29 1 -2 -2 0 -7
4 -15 12 -38 10 -31 -3 4 -6 1 -10 -6 -8 -34 4 -47 -2 -42 -19 6 -26 42 -47
56 -33 8 8 6 11 -8 11 -14 0 -16 3 -8 11 9 9 16 8 27 -4 10 -10 12 -18 6 -22
-5 -3 -10 -28 -10 -56 l0 -49 40 0 40 0 0 63 c0 68 -10 93 -33 84 -10 -4 -13
0 -10 11 6 21 68 53 88 46 18 -7 20 11 3 23 -16 10 -58 11 -52 2z"/>
<path d="M836 549 c2 -4 -9 -18 -25 -32 -17 -14 -29 -26 -28 -29 1 -2 -2 0 -7
4 -15 12 -38 9 -30 -3 4 -7 0 -9 -13 -5 -12 4 -25 1 -33 -9 -9 -11 -9 -15 -1
-15 7 0 10 -4 6 -9 -3 -6 4 -15 16 -21 17 -9 24 -8 40 6 10 9 19 12 19 6 0 -6
-4 -14 -10 -17 -5 -3 -10 -28 -10 -56 l0 -49 40 0 40 0 0 62 c0 50 -4 66 -22
85 -12 13 -20 24 -17 25 28 18 69 38 74 38 4 0 1 -10 -8 -23 -14 -21 -13 -23
5 -24 14 -1 18 3 14 14 -4 9 -1 20 6 24 10 7 10 11 0 21 -13 13 -64 19 -56 7z
m-36 -84 c0 -3 -2 -5 -5 -5 -3 0 -5 2 -5 5 0 3 2 5 5 5 3 0 5 -2 5 -5z m-40
-15 c0 -5 -7 -10 -16 -10 -8 0 -12 5 -9 10 3 6 10 10 16 10 5 0 9 -4 9 -10z"/>
<path d="M150 535 c0 -3 2 -5 5 -5 3 0 5 2 5 5 0 3 -2 5 -5 5 -3 0 -5 -2 -5
-5z"/>
<path d="M425 520 c-3 -5 -1 -10 4 -10 6 0 11 5 11 10 0 6 -2 10 -4 10 -3 0
-8 -4 -11 -10z"/>
<path d="M130 515 c0 -3 2 -5 5 -5 3 0 5 2 5 5 0 3 -2 5 -5 5 -3 0 -5 -2 -5
-5z"/>
<path d="M450 515 c0 -3 2 -5 5 -5 3 0 5 2 5 5 0 3 -2 5 -5 5 -3 0 -5 -2 -5
-5z"/>
<path d="M770 515 c0 -3 2 -5 5 -5 3 0 5 2 5 5 0 3 -2 5 -5 5 -3 0 -5 -2 -5
-5z"/>
<path d="M50 505 c0 -3 2 -5 5 -5 3 0 5 2 5 5 0 3 -2 5 -5 5 -3 0 -5 -2 -5 -5z"/>
<path d="M250 505 c0 -3 2 -5 5 -5 3 0 5 2 5 5 0 3 -2 5 -5 5 -3 0 -5 -2 -5
-5z"/>
<path d="M364 498 c-4 -7 -3 -8 4 -4 7 4 12 9 12 12 0 8 -9 4 -16 -8z"/>
<path d="M526 503 c-3 -3 -3 -10 0 -14 7 -12 34 -11 34 0 0 11 -26 22 -34 14z
m14 -8 c0 -3 -2 -5 -5 -5 -3 0 -5 2 -5 5 0 3 2 5 5 5 3 0 5 -2 5 -5z"/>
<path d="M685 500 c3 -5 8 -10 11 -10 3 0 2 5 -1 10 -3 6 -8 10 -11 10 -3 0
-2 -4 1 -10z"/>
<path d="M104 491 c4 -5 -2 -7 -12 -4 -10 2 -24 -3 -31 -11 -10 -12 -10 -16
-2 -16 7 0 10 -4 6 -9 -9 -15 28 -31 46 -20 20 13 35 11 21 -3 -7 -7 -12 -34
-12 -60 l0 -48 41 0 40 0 -2 75 c-1 41 -6 72 -10 69 -5 -3 -9 -1 -9 3 0 5 -9
14 -21 21 -17 11 -20 11 -14 0 6 -10 5 -11 -6 0 -15 14 -43 17 -35 3z m61 -31
c3 -5 4 -10 1 -10 -3 0 -8 5 -11 10 -3 6 -4 10 -1 10 3 0 8 -4 11 -10z m-40
-10 c-3 -5 -13 -10 -21 -10 -8 0 -12 5 -9 10 3 6 13 10 21 10 8 0 12 -4 9 -10z"/>
<path d="M205 491 c-3 -6 4 -9 15 -8 11 1 20 5 20 9 0 11 -28 10 -35 -1z"/>
<path d="M204 289 c-3 -6 -2 -15 3 -20 5 -5 9 -1 10 11 2 22 -2 25 -13 9z"/>
<path d="M370 284 c0 -8 5 -12 10 -9 6 4 8 11 5 16 -9 14 -15 11 -15 -7z"/>
<path d="M525 290 c-10 -16 7 -31 23 -21 10 6 10 10 -2 20 -10 9 -16 9 -21 1z
m15 -15 c0 -3 -2 -5 -5 -5 -3 0 -5 2 -5 5 0 3 2 5 5 5 3 0 5 -2 5 -5z"/>
<path d="M844 289 c-3 -6 -2 -15 3 -20 5 -5 9 -1 10 11 2 22 -2 25 -13 9z"/>
<path d="M50 281 c0 -5 4 -11 10 -13 5 -1 7 -13 4 -25 -4 -13 -10 -20 -15 -17
-5 3 -9 0 -9 -5 0 -10 14 -15 33 -12 4 0 7 -5 7 -12 0 -8 3 -8 9 2 5 8 7 20 4
27 -2 6 1 15 6 19 6 3 9 11 5 16 -3 5 -10 7 -15 4 -5 -4 -12 1 -15 9 -7 17
-24 22 -24 7z"/>
<path d="M690 281 c0 -5 4 -11 10 -13 5 -1 7 -13 4 -25 -4 -13 -10 -20 -15
-17 -5 3 -9 0 -9 -5 0 -10 14 -15 33 -12 4 0 7 -5 7 -12 0 -8 3 -8 9 2 5 8 7
20 4 27 -2 6 1 15 6 19 6 3 9 11 5 16 -3 5 -10 7 -15 4 -5 -4 -12 1 -15 9 -7
17 -24 22 -24 7z"/>
<path d="M385 249 c-4 -10 -4 -23 0 -29 3 -6 -1 -7 -12 -4 -10 3 -7 -1 7 -9
18 -11 27 -12 32 -4 6 9 8 9 8 0 0 -7 5 -13 12 -13 6 0 3 9 -7 20 -15 16 -15
22 -5 35 7 8 11 15 9 16 -32 6 -39 5 -44 -12z"/>
<path d="M170 250 c0 -7 3 -10 7 -7 3 4 3 10 0 14 -4 3 -7 0 -7 -7z"/>
<path d="M810 250 c0 -7 3 -10 7 -7 3 4 3 10 0 14 -4 3 -7 0 -7 -7z"/>
<path d="M130 235 c-7 -8 -8 -15 -2 -15 5 0 15 7 22 15 7 8 8 15 2 15 -5 0
-15 -7 -22 -15z"/>
<path d="M451 236 c-9 -11 -9 -16 1 -22 7 -4 9 -3 5 1 -4 5 3 15 15 22 17 9
19 12 7 13 -9 0 -22 -6 -28 -14z"/>
<path d="M770 235 c-7 -8 -8 -15 -2 -15 5 0 15 7 22 15 7 8 8 15 2 15 -5 0
-15 -7 -22 -15z"/>
<path d="M196 229 c2 -4 -9 -18 -25 -32 -17 -14 -29 -26 -28 -29 1 -2 -2 0 -7
4 -15 12 -38 10 -31 -3 4 -6 1 -10 -6 -8 -34 4 -47 -2 -42 -19 6 -26 42 -47
56 -33 8 8 6 11 -8 11 -14 0 -16 3 -8 11 9 9 16 8 27 -4 10 -10 12 -18 6 -22
-5 -3 -10 -28 -10 -56 l0 -49 40 0 40 0 0 63 c0 68 -10 93 -33 84 -10 -4 -13
0 -10 11 6 21 68 53 88 46 18 -7 20 11 3 23 -16 10 -58 11 -52 2z"/>
<path d="M516 229 c2 -4 -9 -18 -25 -32 -17 -14 -29 -26 -28 -29 1 -2 -2 0 -7
4 -15 12 -38 9 -30 -3 4 -7 0 -9 -13 -5 -12 4 -25 1 -33 -9 -9 -11 -9 -15 -1
-15 7 0 10 -4 6 -9 -3 -6 4 -15 16 -21 17 -9 24 -8 40 6 10 9 19 12 19 6 0 -6
-4 -14 -10 -17 -5 -3 -10 -28 -10 -56 l0 -49 40 0 40 0 0 62 c0 50 -4 66 -22
85 -12 13 -20 24 -17 25 28 18 69 38 74 38 4 0 1 -10 -8 -23 -14 -21 -13 -23
5 -24 14 -1 18 3 14 14 -4 9 -1 20 6 24 10 7 10 11 0 21 -13 13 -64 19 -56 7z
m-36 -84 c0 -3 -2 -5 -5 -5 -3 0 -5 2 -5 5 0 3 2 5 5 5 3 0 5 -2 5 -5z m-40
-15 c0 -5 -7 -10 -16 -10 -8 0 -12 5 -9 10 3 6 10 10 16 10 5 0 9 -4 9 -10z"/>
<path d="M836 229 c2 -4 -9 -18 -25 -32 -17 -14 -29 -26 -28 -29 1 -2 -2 0 -7
4 -15 12 -38 10 -31 -3 4 -6 1 -10 -6 -8 -34 4 -47 -2 -42 -19 6 -26 42 -47
56 -33 8 8 6 11 -8 11 -14 0 -16 3 -8 11 9 9 16 8 27 -4 10 -10 12 -18 6 -22
-5 -3 -10 -28 -10 -56 l0 -49 40 0 40 0 0 63 c0 68 -10 93 -33 84 -10 -4 -13
0 -10 11 6 21 68 53 88 46 18 -7 20 11 3 23 -16 10 -58 11 -52 2z"/>
<path d="M105 200 c-3 -5 -1 -10 4 -10 6 0 11 5 11 10 0 6 -2 10 -4 10 -3 0
-8 -4 -11 -10z"/>
<path d="M745 200 c-3 -5 -1 -10 4 -10 6 0 11 5 11 10 0 6 -2 10 -4 10 -3 0
-8 -4 -11 -10z"/>
<path d="M130 195 c0 -3 2 -5 5 -5 3 0 5 2 5 5 0 3 -2 5 -5 5 -3 0 -5 -2 -5
-5z"/>
<path d="M450 195 c0 -3 2 -5 5 -5 3 0 5 2 5 5 0 3 -2 5 -5 5 -3 0 -5 -2 -5
-5z"/>
<path d="M770 195 c0 -3 2 -5 5 -5 3 0 5 2 5 5 0 3 -2 5 -5 5 -3 0 -5 -2 -5
-5z"/>
<path d="M44 178 c-4 -7 -3 -8 4 -4 12 7 16 16 8 16 -3 0 -8 -5 -12 -12z"/>
<path d="M206 183 c-3 -3 -3 -10 0 -14 7 -12 34 -11 34 0 0 11 -26 22 -34 14z
m14 -8 c0 -3 -2 -5 -5 -5 -3 0 -5 2 -5 5 0 3 2 5 5 5 3 0 5 -2 5 -5z"/>
<path d="M365 180 c3 -5 8 -10 11 -10 3 0 2 5 -1 10 -3 6 -8 10 -11 10 -3 0
-2 -4 1 -10z"/>
<path d="M684 178 c-4 -7 -3 -8 4 -4 7 4 12 9 12 12 0 8 -9 4 -16 -8z"/>
<path d="M846 183 c-3 -3 -3 -10 0 -14 7 -12 34 -11 34 0 0 11 -26 22 -34 14z
m14 -8 c0 -3 -2 -5 -5 -5 -3 0 -5 2 -5 5 0 3 2 5 5 5 3 0 5 -2 5 -5z"/>
</g>
<g transform="translate(0.000000,96.000000) scale(0.100000,-0.100000)"
fill="#694c28" stroke="none">
<path d="M206 933 c-10 -10 -7 -33 5 -33 5 0 8 4 5 9 -4 5 -1 11 6 13 8 3 9 6
1 11 -5 4 -13 4 -17 0z"/>
<path d="M524 929 c-3 -6 -2 -15 3 -20 5 -5 9 -1 10 11 2 22 -2 25 -13 9z"/>
<path d="M690 924 c0 -8 5 -12 10 -9 6 4 8 11 5 16 -9 14 -15 11 -15 -7z"/>
<path d="M845 930 c-10 -16 7 -31 23 -21 10 6 10 10 -2 20 -10 9 -16 9 -21 1z
m15 -15 c0 -3 -2 -5 -5 -5 -3 0 -5 2 -5 5 0 3 2 5 5 5 3 0 5 -2 5 -5z"/>
<path d="M50 919 c0 -5 5 -7 10 -4 6 3 10 8 10 11 0 2 -4 4 -10 4 -5 0 -10 -5
-10 -11z"/>
<path d="M370 920 c0 -5 5 -10 10 -10 6 0 10 5 10 10 0 6 -4 10 -10 10 -5 0
-10 -4 -10 -10z"/>
<path d="M66 894 c-8 -22 -8 -24 8 -24 19 0 40 26 26 35 -5 3 -10 -1 -10 -9 0
-9 -4 -16 -10 -16 -5 0 -7 7 -4 15 4 8 4 15 1 15 -3 0 -8 -7 -11 -16z"/>
<path d="M409 908 c0 -2 -2 -11 -4 -21 -3 -15 -1 -16 11 -6 7 6 11 15 8 20 -5
9 -13 12 -15 7z"/>
<path d="M710 905 c0 -3 2 -5 5 -5 3 0 5 2 5 5 0 3 -2 5 -5 5 -3 0 -5 -2 -5
-5z"/>
<path d="M170 895 c0 -3 2 -5 5 -5 3 0 5 2 5 5 0 3 -2 5 -5 5 -3 0 -5 -2 -5
-5z"/>
<path d="M490 890 c0 -7 3 -10 7 -7 3 4 3 10 0 14 -4 3 -7 0 -7 -7z"/>
<path d="M730 885 c-7 -9 -11 -17 -9 -20 3 -2 10 5 17 15 14 24 10 26 -8 5z"/>
<path d="M130 875 c-7 -8 -8 -15 -2 -15 5 0 15 7 22 15 7 8 8 15 2 15 -5 0
-15 -7 -22 -15z"/>
<path d="M450 875 c-7 -8 -8 -15 -2 -15 5 0 15 7 22 15 7 8 8 15 2 15 -5 0
-15 -7 -22 -15z"/>
<path d="M700 880 c0 -7 3 -10 7 -7 3 4 3 10 0 14 -4 3 -7 0 -7 -7z"/>
<path d="M771 876 c-9 -11 -9 -16 1 -22 7 -4 9 -3 5 1 -4 5 3 15 15 22 17 9
19 12 7 13 -9 0 -22 -6 -28 -14z"/>
<path d="M193 873 c4 -3 10 -3 14 0 3 4 0 7 -7 7 -7 0 -10 -3 -7 -7z"/>
<path d="M237 869 c7 -9 10 -19 6 -22 -3 -4 -1 -7 5 -7 17 0 15 16 -5 31 -16
12 -17 12 -6 -2z"/>
<path d="M514 873 c3 -6 -7 -22 -23 -36 -20 -17 -26 -28 -20 -38 7 -11 9 -11
9 3 0 9 12 26 27 38 22 17 24 23 13 33 -9 8 -11 8 -6 0z"/>
<path d="M543 873 c4 -3 10 -3 14 0 3 4 0 7 -7 7 -7 0 -10 -3 -7 -7z"/>
<path d="M830 875 c0 -3 2 -5 5 -5 3 0 5 2 5 5 0 3 -2 5 -5 5 -3 0 -5 -2 -5
-5z"/>
<path d="M870 865 c10 -12 9 -19 -3 -38 -14 -21 -13 -23 5 -24 14 -1 18 3 14
14 -4 9 -1 20 6 24 9 6 9 11 -1 23 -8 9 -18 16 -23 16 -6 0 -5 -7 2 -15z"/>
<path d="M360 861 c0 -5 7 -11 15 -15 8 -3 15 -1 15 3 0 5 -7 11 -15 15 -8 3
-15 1 -15 -3z"/>
<path d="M40 856 c0 -2 7 -6 15 -10 8 -3 15 -1 15 4 0 6 -7 10 -15 10 -8 0
-15 -2 -15 -4z"/>
<path d="M200 855 c0 -3 2 -5 5 -5 3 0 5 2 5 5 0 3 -2 5 -5 5 -3 0 -5 -2 -5
-5z"/>
<path d="M570 850 c0 -7 3 -10 7 -7 3 4 3 10 0 14 -4 3 -7 0 -7 -7z"/>
<path d="M690 850 c8 -5 20 -10 25 -10 6 0 3 5 -5 10 -8 5 -19 10 -25 10 -5 0
-3 -5 5 -10z"/>
<path d="M808 836 c-15 -13 -25 -26 -22 -29 2 -2 -14 -3 -36 -2 -24 1 -44 -3
-51 -11 -9 -11 -8 -14 0 -14 7 0 10 -4 6 -9 -3 -6 4 -15 16 -21 16 -9 24 -8
37 3 13 12 22 13 36 5 14 -8 17 -7 12 1 -4 6 0 11 10 11 16 0 16 2 -2 21 -10
12 -14 23 -9 27 12 8 39 42 34 42 -2 0 -16 -11 -31 -24z m-8 -51 c0 -3 -2 -5
-5 -5 -3 0 -5 2 -5 5 0 3 2 5 5 5 3 0 5 -2 5 -5z m-40 -15 c0 -5 -7 -10 -16
-10 -8 0 -12 5 -9 10 3 6 10 10 16 10 5 0 9 -4 9 -10z"/>
<path d="M105 840 c-4 -6 3 -10 14 -10 25 0 27 6 6 13 -8 4 -17 2 -20 -3z"/>
<path d="M180 845 c0 -3 2 -5 5 -5 3 0 5 2 5 5 0 3 -2 5 -5 5 -3 0 -5 -2 -5
-5z"/>
<path d="M425 840 c-3 -5 -1 -10 4 -10 6 0 11 5 11 10 0 6 -2 10 -4 10 -3 0
-8 -4 -11 -10z"/>
<path d="M740 840 c0 -5 5 -10 11 -10 5 0 7 5 4 10 -3 6 -8 10 -11 10 -2 0 -4
-4 -4 -10z"/>
<path d="M450 835 c0 -3 2 -5 5 -5 3 0 5 2 5 5 0 3 -2 5 -5 5 -3 0 -5 -2 -5
-5z"/>
<path d="M770 835 c0 -3 2 -5 5 -5 3 0 5 2 5 5 0 3 -2 5 -5 5 -3 0 -5 -2 -5
-5z"/>
<path d="M213 813 c0 -7 6 -13 14 -13 7 0 13 6 13 13 0 8 -6 14 -13 14 -8 0
-14 -6 -14 -14z"/>
<path d="M364 818 c-4 -7 -3 -8 4 -4 12 7 16 16 8 16 -3 0 -8 -5 -12 -12z"/>
<path d="M526 823 c-3 -3 -3 -10 0 -14 7 -12 34 -11 34 0 0 11 -26 22 -34 14z
m14 -8 c0 -3 -2 -5 -5 -5 -3 0 -5 2 -5 5 0 3 2 5 5 5 3 0 5 -2 5 -5z"/>
<path d="M685 820 c3 -5 8 -10 11 -10 3 0 2 5 -1 10 -3 6 -8 10 -11 10 -3 0
-2 -4 1 -10z"/>
<path d="M30 815 c0 -3 2 -5 5 -5 3 0 5 2 5 5 0 3 -2 5 -5 5 -3 0 -5 -2 -5 -5z"/>
<path d="M117 813 c-4 -3 -17 -7 -30 -9 -12 -1 -25 -3 -29 -3 -11 -1 4 -35 21
-48 10 -7 22 -8 33 -2 9 5 25 9 35 9 11 0 26 6 34 13 8 6 12 11 10 9 -2 -1
-13 5 -23 15 -10 9 -18 13 -18 8 0 -4 -6 -2 -13 4 -8 6 -17 8 -20 4z m-37 -28
c0 -3 -2 -5 -5 -5 -3 0 -5 2 -5 5 0 3 2 5 5 5 3 0 5 -2 5 -5z m80 0 c0 -3 -2
-5 -5 -5 -3 0 -5 2 -5 5 0 3 2 5 5 5 3 0 5 -2 5 -5z m-40 -15 c0 -5 -7 -10
-16 -10 -8 0 -12 5 -9 10 3 6 10 10 16 10 5 0 9 -4 9 -10z"/>
<path d="M190 805 c0 -3 2 -5 5 -5 3 0 5 2 5 5 0 3 -2 5 -5 5 -3 0 -5 -2 -5
-5z"/>
<path d="M389 802 c-22 -4 -14 -34 12 -50 11 -7 25 -9 31 -6 8 5 7 9 -4 13
-15 5 -15 8 -2 25 14 19 14 19 14 -3 0 -16 5 -21 14 -18 7 3 19 0 26 -6 10 -9
11 -9 6 1 -4 7 -1 12 8 12 9 0 16 5 16 11 0 5 -8 9 -17 7 -10 -1 -24 1 -31 6
-15 9 -50 13 -73 8z"/>
<path d="M134 742 c4 -7 2 -12 -3 -12 -6 0 -11 -20 -11 -46 0 -38 3 -45 16
-40 9 3 21 6 28 6 7 0 12 14 12 34 0 31 -2 33 -19 24 -16 -8 -18 -7 -13 10 4
12 2 24 -5 28 -8 4 -9 3 -5 -4z m16 -77 c0 -3 -2 -5 -5 -5 -3 0 -5 2 -5 5 0 3
2 5 5 5 3 0 5 -2 5 -5z"/>
<path d="M446 743 c-10 -10 -7 -103 4 -103 6 0 10 7 10 16 0 14 3 14 15 4 17
-14 17 -15 19 27 1 22 -2 29 -8 23 -16 -16 -25 -12 -19 9 5 19 -9 36 -21 24z"/>
<path d="M772 738 c-7 -7 -12 -32 -12 -56 0 -37 2 -42 14 -33 7 6 20 9 27 6
10 -4 14 5 15 31 1 20 -1 32 -5 28 -3 -5 -14 -10 -24 -12 -16 -3 -17 0 -7 18
14 25 9 35 -8 18z"/>
<path d="M206 611 c-3 -5 1 -11 9 -15 8 -3 15 -1 15 4 0 13 -18 22 -24 11z"/>
<path d="M524 609 c-3 -6 -2 -15 3 -20 5 -5 9 -1 10 11 2 22 -2 25 -13 9z"/>
<path d="M690 604 c0 -8 5 -12 10 -9 6 4 8 11 5 16 -9 14 -15 11 -15 -7z"/>
<path d="M845 610 c-10 -16 7 -31 23 -21 10 6 10 10 -2 20 -10 9 -16 9 -21 1z
m15 -15 c0 -3 -2 -5 -5 -5 -3 0 -5 2 -5 5 0 3 2 5 5 5 3 0 5 -2 5 -5z"/>
<path d="M50 600 c0 -5 5 -10 10 -10 6 0 10 5 10 10 0 6 -4 10 -10 10 -5 0
-10 -4 -10 -10z"/>
<path d="M370 600 c0 -5 5 -10 10 -10 6 0 10 5 10 10 0 6 -4 10 -10 10 -5 0
-10 -4 -10 -10z"/>
<path d="M409 588 c0 -2 -2 -11 -4 -21 -3 -15 -1 -16 11 -6 7 6 11 15 8 20 -5
9 -13 12 -15 7z"/>
<path d="M710 585 c0 -3 2 -5 5 -5 3 0 5 2 5 5 0 3 -2 5 -5 5 -3 0 -5 -2 -5
-5z"/>
<path d="M65 570 c-4 -6 1 -7 11 -3 12 4 15 3 10 -5 -10 -17 -1 -15 14 3 10
13 9 15 -8 15 -12 0 -24 -4 -27 -10z"/>
<path d="M133 558 c-9 -11 -11 -18 -5 -18 7 0 12 5 12 10 0 6 6 10 14 10 8 0
17 4 20 8 10 17 -24 8 -41 -10z"/>
<path d="M490 570 c0 -7 3 -10 7 -7 3 4 3 10 0 14 -4 3 -7 0 -7 -7z"/>
<path d="M730 565 c-7 -9 -11 -17 -9 -20 3 -2 10 5 17 15 14 24 10 26 -8 5z"/>
<path d="M450 555 c-7 -8 -8 -15 -2 -15 5 0 15 7 22 15 7 8 8 15 2 15 -5 0
-15 -7 -22 -15z"/>
<path d="M700 560 c0 -7 3 -10 7 -7 3 4 3 10 0 14 -4 3 -7 0 -7 -7z"/>
<path d="M771 556 c-9 -11 -9 -16 1 -22 7 -4 9 -3 5 1 -4 5 3 15 15 22 17 9
19 12 7 13 -9 0 -22 -6 -28 -14z"/>
<path d="M193 553 c4 -3 1 -13 -6 -22 -11 -14 -10 -14 6 -2 20 15 22 31 5 31
-6 0 -8 -3 -5 -7z"/>
<path d="M220 549 c0 -5 4 -8 9 -5 5 3 12 -1 15 -10 4 -9 9 -14 13 -11 7 8
-15 37 -28 37 -5 0 -9 -5 -9 -11z"/>
<path d="M514 553 c3 -6 -7 -22 -23 -36 -20 -17 -26 -28 -20 -38 7 -11 9 -11
9 3 0 9 12 26 27 38 22 17 24 23 13 33 -9 8 -11 8 -6 0z"/>
<path d="M543 553 c4 -3 10 -3 14 0 3 4 0 7 -7 7 -7 0 -10 -3 -7 -7z"/>
<path d="M830 555 c0 -3 2 -5 5 -5 3 0 5 2 5 5 0 3 -2 5 -5 5 -3 0 -5 -2 -5
-5z"/>
<path d="M870 545 c10 -12 9 -19 -3 -38 -14 -21 -13 -23 5 -24 14 -1 18 3 14
14 -4 9 -1 20 6 24 9 6 9 11 -1 23 -8 9 -18 16 -23 16 -6 0 -5 -7 2 -15z"/>
<path d="M30 546 c0 -3 9 -10 20 -16 11 -6 20 -8 20 -6 0 3 -9 10 -20 16 -11
6 -20 8 -20 6z"/>
<path d="M360 541 c0 -5 7 -11 15 -15 8 -3 15 -1 15 3 0 5 -7 11 -15 15 -8 3
-15 1 -15 -3z"/>
<path d="M150 535 c0 -3 2 -5 5 -5 3 0 5 2 5 5 0 3 -2 5 -5 5 -3 0 -5 -2 -5
-5z"/>
<path d="M570 530 c0 -7 3 -10 7 -7 3 4 3 10 0 14 -4 3 -7 0 -7 -7z"/>
<path d="M690 530 c8 -5 20 -10 25 -10 6 0 3 5 -5 10 -8 5 -19 10 -25 10 -5 0
-3 -5 5 -10z"/>
<path d="M808 516 c-15 -13 -25 -26 -22 -29 2 -2 -14 -3 -36 -2 -24 1 -44 -3
-51 -11 -9 -11 -8 -14 0 -14 7 0 10 -4 6 -9 -3 -6 4 -15 16 -21 16 -9 24 -8
37 3 13 12 22 13 36 5 14 -8 17 -7 12 1 -4 6 0 11 10 11 16 0 16 2 -2 21 -10
12 -14 23 -9 27 12 8 39 42 34 42 -2 0 -16 -11 -31 -24z m-8 -51 c0 -3 -2 -5
-5 -5 -3 0 -5 2 -5 5 0 3 2 5 5 5 3 0 5 -2 5 -5z m-40 -15 c0 -5 -7 -10 -16
-10 -8 0 -12 5 -9 10 3 6 10 10 16 10 5 0 9 -4 9 -10z"/>
<path d="M100 525 c0 -3 2 -5 5 -5 3 0 5 2 5 5 0 3 -2 5 -5 5 -3 0 -5 -2 -5
-5z"/>
<path d="M425 520 c-3 -5 -1 -10 4 -10 6 0 11 5 11 10 0 6 -2 10 -4 10 -3 0
-8 -4 -11 -10z"/>
<path d="M740 520 c0 -5 5 -10 11 -10 5 0 7 5 4 10 -3 6 -8 10 -11 10 -2 0 -4
-4 -4 -10z"/>
<path d="M130 515 c0 -3 2 -5 5 -5 3 0 5 2 5 5 0 3 -2 5 -5 5 -3 0 -5 -2 -5
-5z"/>
<path d="M450 515 c0 -3 2 -5 5 -5 3 0 5 2 5 5 0 3 -2 5 -5 5 -3 0 -5 -2 -5
-5z"/>
<path d="M770 515 c0 -3 2 -5 5 -5 3 0 5 2 5 5 0 3 -2 5 -5 5 -3 0 -5 -2 -5
-5z"/>
<path d="M50 505 c0 -3 2 -5 5 -5 3 0 5 2 5 5 0 3 -2 5 -5 5 -3 0 -5 -2 -5 -5z"/>
<path d="M160 505 c0 -3 2 -5 5 -5 3 0 5 2 5 5 0 3 -2 5 -5 5 -3 0 -5 -2 -5
-5z"/>
<path d="M250 505 c0 -3 2 -5 5 -5 3 0 5 2 5 5 0 3 -2 5 -5 5 -3 0 -5 -2 -5
-5z"/>
<path d="M364 498 c-4 -7 -3 -8 4 -4 7 4 12 9 12 12 0 8 -9 4 -16 -8z"/>
<path d="M526 503 c-3 -3 -3 -10 0 -14 7 -12 34 -11 34 0 0 11 -26 22 -34 14z
m14 -8 c0 -3 -2 -5 -5 -5 -3 0 -5 2 -5 5 0 3 2 5 5 5 3 0 5 -2 5 -5z"/>
<path d="M685 500 c3 -5 8 -10 11 -10 3 0 2 5 -1 10 -3 6 -8 10 -11 10 -3 0
-2 -4 1 -10z"/>
<path d="M144 491 c4 -6 -7 -8 -32 -5 -27 3 -43 0 -52 -11 -9 -11 -9 -15 -1
-15 7 0 10 -4 6 -9 -11 -18 25 -28 61 -17 23 7 32 16 29 25 -5 11 -3 12 10 1
13 -11 18 -11 28 0 9 10 9 11 0 6 -7 -4 -13 -3 -13 1 0 5 -9 14 -21 21 -12 8
-18 9 -15 3z m-19 -41 c-3 -5 -13 -10 -21 -10 -8 0 -12 5 -9 10 3 6 13 10 21
10 8 0 12 -4 9 -10z"/>
<path d="M205 491 c-3 -6 4 -9 15 -8 11 1 20 5 20 9 0 11 -28 10 -35 -1z"/>
<path d="M389 482 c-22 -4 -14 -34 12 -50 11 -7 25 -9 31 -6 8 5 7 9 -4 13
-15 5 -15 8 -2 25 14 19 14 19 14 -3 0 -16 5 -21 14 -18 7 3 19 0 26 -6 10 -9
11 -9 6 1 -4 7 -1 12 8 12 9 0 16 5 16 11 0 5 -8 9 -17 7 -10 -1 -24 1 -31 6
-15 9 -50 13 -73 8z"/>
<path d="M126 423 c-3 -3 -6 -29 -6 -57 0 -37 3 -47 11 -39 6 6 17 9 24 7 17
-7 31 16 15 26 -9 5 -9 9 -1 14 6 4 11 15 11 24 -1 16 -1 16 -11 0 -5 -10 -15
-18 -22 -18 -7 0 -6 4 3 10 11 7 11 10 2 10 -7 0 -11 4 -7 9 6 11 -9 23 -19
14z"/>
<path d="M446 423 c-10 -10 -7 -103 4 -103 6 0 10 7 10 16 0 14 3 14 15 4 17
-14 17 -15 19 27 1 22 -2 29 -8 23 -16 -16 -25 -12 -19 9 5 19 -9 36 -21 24z"/>
<path d="M772 418 c-7 -7 -12 -32 -12 -56 0 -37 2 -42 14 -33 7 6 20 9 27 6
10 -4 14 5 15 31 1 20 -1 32 -5 28 -3 -5 -14 -10 -24 -12 -16 -3 -17 0 -7 18
14 25 9 35 -8 18z"/>
<path d="M204 289 c-3 -6 -2 -15 3 -20 5 -5 9 -1 10 11 2 22 -2 25 -13 9z"/>
<path d="M370 284 c0 -8 5 -12 10 -9 6 4 8 11 5 16 -9 14 -15 11 -15 -7z"/>
<path d="M525 290 c-10 -16 7 -31 23 -21 10 6 10 10 -2 20 -10 9 -16 9 -21 1z
m15 -15 c0 -3 -2 -5 -5 -5 -3 0 -5 2 -5 5 0 3 2 5 5 5 3 0 5 -2 5 -5z"/>
<path d="M844 289 c-3 -6 -2 -15 3 -20 5 -5 9 -1 10 11 2 22 -2 25 -13 9z"/>
<path d="M50 280 c0 -5 5 -10 10 -10 6 0 10 5 10 10 0 6 -4 10 -10 10 -5 0
-10 -4 -10 -10z"/>
<path d="M690 280 c0 -5 5 -10 10 -10 6 0 10 5 10 10 0 6 -4 10 -10 10 -5 0
-10 -4 -10 -10z"/>
<path d="M89 268 c0 -2 -2 -11 -4 -21 -3 -15 -1 -16 11 -6 7 6 11 15 8 20 -5
9 -13 12 -15 7z"/>
<path d="M390 265 c0 -3 2 -5 5 -5 3 0 5 2 5 5 0 3 -2 5 -5 5 -3 0 -5 -2 -5
-5z"/>
<path d="M729 268 c0 -2 -2 -11 -4 -21 -3 -15 -1 -16 11 -6 7 6 11 15 8 20 -5
9 -13 12 -15 7z"/>
<path d="M170 250 c0 -7 3 -10 7 -7 3 4 3 10 0 14 -4 3 -7 0 -7 -7z"/>
<path d="M410 245 c-7 -9 -11 -17 -9 -20 3 -2 10 5 17 15 14 24 10 26 -8 5z"/>
<path d="M810 250 c0 -7 3 -10 7 -7 3 4 3 10 0 14 -4 3 -7 0 -7 -7z"/>
<path d="M130 235 c-7 -8 -8 -15 -2 -15 5 0 15 7 22 15 7 8 8 15 2 15 -5 0
-15 -7 -22 -15z"/>
<path d="M380 240 c0 -7 3 -10 7 -7 3 4 3 10 0 14 -4 3 -7 0 -7 -7z"/>
<path d="M451 236 c-9 -11 -9 -16 1 -22 7 -4 9 -3 5 1 -4 5 3 15 15 22 17 9
19 12 7 13 -9 0 -22 -6 -28 -14z"/>
<path d="M770 235 c-7 -8 -8 -15 -2 -15 5 0 15 7 22 15 7 8 8 15 2 15 -5 0
-15 -7 -22 -15z"/>
<path d="M194 233 c3 -6 -7 -22 -23 -36 -20 -17 -26 -28 -20 -38 7 -11 9 -11
9 3 0 9 12 26 27 38 22 17 24 23 13 33 -9 8 -11 8 -6 0z"/>
<path d="M223 233 c4 -3 10 -3 14 0 3 4 0 7 -7 7 -7 0 -10 -3 -7 -7z"/>
<path d="M510 235 c0 -3 2 -5 5 -5 3 0 5 2 5 5 0 3 -2 5 -5 5 -3 0 -5 -2 -5
-5z"/>
<path d="M550 225 c10 -12 9 -19 -3 -38 -14 -21 -13 -23 5 -24 14 -1 18 3 14
14 -4 9 -1 20 6 24 9 6 9 11 -1 23 -8 9 -18 16 -23 16 -6 0 -5 -7 2 -15z"/>
<path d="M834 233 c3 -6 -7 -22 -23 -36 -20 -17 -26 -28 -20 -38 7 -11 9 -11
9 3 0 9 12 26 27 38 22 17 24 23 13 33 -9 8 -11 8 -6 0z"/>
<path d="M863 233 c4 -3 10 -3 14 0 3 4 0 7 -7 7 -7 0 -10 -3 -7 -7z"/>
<path d="M40 221 c0 -5 7 -11 15 -15 8 -3 15 -1 15 3 0 5 -7 11 -15 15 -8 3
-15 1 -15 -3z"/>
<path d="M680 221 c0 -5 7 -11 15 -15 8 -3 15 -1 15 3 0 5 -7 11 -15 15 -8 3
-15 1 -15 -3z"/>
<path d="M250 210 c0 -7 3 -10 7 -7 3 4 3 10 0 14 -4 3 -7 0 -7 -7z"/>
<path d="M370 210 c8 -5 20 -10 25 -10 6 0 3 5 -5 10 -8 5 -19 10 -25 10 -5 0
-3 -5 5 -10z"/>
<path d="M488 196 c-15 -13 -25 -26 -22 -29 2 -2 -14 -3 -36 -2 -24 1 -44 -3
-51 -11 -9 -11 -8 -14 0 -14 7 0 10 -4 6 -9 -3 -6 4 -15 16 -21 16 -9 24 -8
37 3 13 12 22 13 36 5 14 -8 17 -7 12 1 -4 6 0 11 10 11 16 0 16 2 -2 21 -10
12 -14 23 -9 27 12 8 39 42 34 42 -2 0 -16 -11 -31 -24z m-8 -51 c0 -3 -2 -5
-5 -5 -3 0 -5 2 -5 5 0 3 2 5 5 5 3 0 5 -2 5 -5z m-40 -15 c0 -5 -7 -10 -16
-10 -8 0 -12 5 -9 10 3 6 10 10 16 10 5 0 9 -4 9 -10z"/>
<path d="M890 210 c0 -7 3 -10 7 -7 3 4 3 10 0 14 -4 3 -7 0 -7 -7z"/>
<path d="M105 200 c-3 -5 -1 -10 4 -10 6 0 11 5 11 10 0 6 -2 10 -4 10 -3 0
-8 -4 -11 -10z"/>
<path d="M420 200 c0 -5 5 -10 11 -10 5 0 7 5 4 10 -3 6 -8 10 -11 10 -2 0 -4
-4 -4 -10z"/>
<path d="M745 200 c-3 -5 -1 -10 4 -10 6 0 11 5 11 10 0 6 -2 10 -4 10 -3 0
-8 -4 -11 -10z"/>
<path d="M130 195 c0 -3 2 -5 5 -5 3 0 5 2 5 5 0 3 -2 5 -5 5 -3 0 -5 -2 -5
-5z"/>
<path d="M450 195 c0 -3 2 -5 5 -5 3 0 5 2 5 5 0 3 -2 5 -5 5 -3 0 -5 -2 -5
-5z"/>
<path d="M770 195 c0 -3 2 -5 5 -5 3 0 5 2 5 5 0 3 -2 5 -5 5 -3 0 -5 -2 -5
-5z"/>
<path d="M44 178 c-4 -7 -3 -8 4 -4 12 7 16 16 8 16 -3 0 -8 -5 -12 -12z"/>
<path d="M206 183 c-3 -3 -3 -10 0 -14 7 -12 34 -11 34 0 0 11 -26 22 -34 14z
m14 -8 c0 -3 -2 -5 -5 -5 -3 0 -5 2 -5 5 0 3 2 5 5 5 3 0 5 -2 5 -5z"/>
<path d="M365 180 c3 -5 8 -10 11 -10 3 0 2 5 -1 10 -3 6 -8 10 -11 10 -3 0
-2 -4 1 -10z"/>
<path d="M684 178 c-4 -7 -3 -8 4 -4 7 4 12 9 12 12 0 8 -9 4 -16 -8z"/>
<path d="M846 183 c-3 -3 -3 -10 0 -14 7 -12 34 -11 34 0 0 11 -26 22 -34 14z
m14 -8 c0 -3 -2 -5 -5 -5 -3 0 -5 2 -5 5 0 3 2 5 5 5 3 0 5 -2 5 -5z"/>
<path d="M69 162 c-22 -4 -14 -34 12 -50 11 -7 25 -9 31 -6 8 5 7 9 -4 13 -15
5 -15 8 -2 25 14 19 14 19 14 -3 0 -16 5 -21 14 -18 7 3 19 0 26 -6 10 -9 11
-9 6 1 -4 7 -1 12 8 12 9 0 16 5 16 11 0 5 -8 9 -17 7 -10 -1 -24 1 -31 6 -15
9 -50 13 -73 8z"/>
<path d="M709 162 c-22 -4 -14 -34 12 -50 11 -7 25 -9 31 -6 8 5 7 9 -4 13
-15 5 -15 8 -2 25 14 19 14 19 14 -3 0 -16 5 -21 14 -18 7 3 19 0 26 -6 10 -9
11 -9 6 1 -4 7 -1 12 8 12 9 0 16 5 16 11 0 5 -8 9 -17 7 -10 -1 -24 1 -31 6
-15 9 -50 13 -73 8z"/>
<path d="M126 103 c-10 -10 -7 -103 4 -103 6 0 10 7 10 16 0 14 3 14 15 4 17
-14 17 -15 19 27 1 22 -2 29 -8 23 -16 -16 -25 -12 -19 9 5 19 -9 36 -21 24z"/>
<path d="M452 98 c-7 -7 -12 -32 -12 -56 0 -37 2 -42 14 -33 7 6 20 9 27 6 10
-4 14 5 15 31 1 20 -1 32 -5 28 -3 -5 -14 -10 -24 -12 -16 -3 -17 0 -7 18 14
25 9 35 -8 18z"/>
<path d="M766 103 c-10 -10 -7 -103 4 -103 6 0 10 7 10 16 0 14 3 14 15 4 17
-14 17 -15 19 27 1 22 -2 29 -8 23 -16 -16 -25 -12 -19 9 5 19 -9 36 -21 24z"/>
</g>
<g transform="translate(0.000000,96.000000) scale(0.100000,-0.100000)"
fill="#459633" stroke="none">
<path d="M206 933 c-10 -10 -7 -33 5 -33 5 0 8 4 5 9 -4 5 -1 11 6 13 8 3 9 6
1 11 -5 4 -13 4 -17 0z"/>
<path d="M524 929 c-3 -6 -2 -15 3 -20 5 -5 9 -1 10 11 2 22 -2 25 -13 9z"/>
<path d="M690 924 c0 -8 5 -12 10 -9 6 4 8 11 5 16 -9 14 -15 11 -15 -7z"/>
<path d="M845 930 c-10 -16 7 -31 23 -21 10 6 10 10 -2 20 -10 9 -16 9 -21 1z
m15 -15 c0 -3 -2 -5 -5 -5 -3 0 -5 2 -5 5 0 3 2 5 5 5 3 0 5 -2 5 -5z"/>
<path d="M50 919 c0 -5 5 -7 10 -4 6 3 10 8 10 11 0 2 -4 4 -10 4 -5 0 -10 -5
-10 -11z"/>
<path d="M370 920 c0 -5 5 -10 10 -10 6 0 10 5 10 10 0 6 -4 10 -10 10 -5 0
-10 -4 -10 -10z"/>
<path d="M89 883 c-13 -16 -12 -17 4 -4 9 7 17 15 17 17 0 8 -8 3 -21 -13z"/>
<path d="M170 895 c0 -3 2 -5 5 -5 3 0 5 2 5 5 0 3 -2 5 -5 5 -3 0 -5 -2 -5
-5z"/>
<path d="M409 883 c-13 -16 -12 -17 4 -4 9 7 17 15 17 17 0 8 -8 3 -21 -13z"/>
<path d="M490 890 c0 -7 3 -10 7 -7 3 4 3 10 0 14 -4 3 -7 0 -7 -7z"/>
<path d="M729 883 c-13 -16 -12 -17 4 -4 9 7 17 15 17 17 0 8 -8 3 -21 -13z"/>
<path d="M130 875 c-7 -8 -8 -15 -2 -15 5 0 15 7 22 15 7 8 8 15 2 15 -5 0
-15 -7 -22 -15z"/>
<path d="M450 875 c-7 -8 -8 -15 -2 -15 5 0 15 7 22 15 7 8 8 15 2 15 -5 0
-15 -7 -22 -15z"/>
<path d="M771 876 c-9 -11 -9 -16 1 -22 7 -4 9 -3 5 1 -4 5 3 15 15 22 17 9
19 12 7 13 -9 0 -22 -6 -28 -14z"/>
<path d="M193 873 c4 -3 10 -3 14 0 3 4 0 7 -7 7 -7 0 -10 -3 -7 -7z"/>
<path d="M510 875 c0 -3 2 -5 5 -5 3 0 5 2 5 5 0 3 -2 5 -5 5 -3 0 -5 -2 -5
-5z"/>
<path d="M830 875 c0 -3 2 -5 5 -5 3 0 5 2 5 5 0 3 -2 5 -5 5 -3 0 -5 -2 -5
-5z"/>
<path d="M360 861 c0 -5 7 -11 15 -15 8 -3 15 -1 15 3 0 5 -7 11 -15 15 -8 3
-15 1 -15 -3z"/>
<path d="M40 856 c0 -2 7 -6 15 -10 8 -3 15 -1 15 4 0 6 -7 10 -15 10 -8 0
-15 -2 -15 -4z"/>
<path d="M690 850 c8 -5 20 -10 25 -10 6 0 3 5 -5 10 -8 5 -19 10 -25 10 -5 0
-3 -5 5 -10z"/>
<path d="M105 840 c-4 -6 3 -10 14 -10 25 0 27 6 6 13 -8 4 -17 2 -20 -3z"/>
<path d="M425 840 c-3 -5 -1 -10 4 -10 6 0 11 5 11 10 0 6 -2 10 -4 10 -3 0
-8 -4 -11 -10z"/>
<path d="M740 840 c0 -5 5 -10 11 -10 5 0 7 5 4 10 -3 6 -8 10 -11 10 -2 0 -4
-4 -4 -10z"/>
<path d="M450 835 c0 -3 2 -5 5 -5 3 0 5 2 5 5 0 3 -2 5 -5 5 -3 0 -5 -2 -5
-5z"/>
<path d="M770 835 c0 -3 2 -5 5 -5 3 0 5 2 5 5 0 3 -2 5 -5 5 -3 0 -5 -2 -5
-5z"/>
<path d="M863 822 c-9 -15 -7 -18 8 -19 20 -2 23 5 11 24 -6 9 -11 8 -19 -5z"/>
<path d="M213 813 c0 -7 6 -13 14 -13 7 0 13 6 13 13 0 8 -6 14 -13 14 -8 0
-14 -6 -14 -14z"/>
<path d="M364 818 c-4 -7 -3 -8 4 -4 12 7 16 16 8 16 -3 0 -8 -5 -12 -12z"/>
<path d="M526 823 c-3 -3 -3 -10 0 -14 7 -12 34 -11 34 0 0 11 -26 22 -34 14z
m14 -8 c0 -3 -2 -5 -5 -5 -3 0 -5 2 -5 5 0 3 2 5 5 5 3 0 5 -2 5 -5z"/>
<path d="M685 820 c3 -5 8 -10 11 -10 3 0 2 5 -1 10 -3 6 -8 10 -11 10 -3 0
-2 -4 1 -10z"/>
<path d="M30 815 c0 -3 2 -5 5 -5 3 0 5 2 5 5 0 3 -2 5 -5 5 -3 0 -5 -2 -5 -5z"/>
<path d="M472 795 c11 -24 38 -35 38 -15 0 6 -7 10 -15 10 -8 0 -15 7 -15 15
0 8 -4 15 -10 15 -6 0 -5 -10 2 -25z"/>
<path d="M792 795 c6 -14 17 -25 25 -25 11 0 10 6 -4 25 -23 32 -36 32 -21 0z"/>
<path d="M63 802 c-7 -4 -9 -13 -4 -21 6 -10 10 -9 15 5 8 20 4 25 -11 16z"/>
<path d="M100 805 c0 -3 2 -5 5 -5 3 0 5 2 5 5 0 3 -2 5 -5 5 -3 0 -5 -2 -5
-5z"/>
<path d="M153 797 c4 -10 7 -21 7 -23 0 -10 29 -3 36 9 4 6 3 9 -1 4 -5 -4
-17 1 -28 10 -20 17 -20 17 -14 0z"/>
<path d="M190 805 c0 -3 2 -5 5 -5 3 0 5 2 5 5 0 3 -2 5 -5 5 -3 0 -5 -2 -5
-5z"/>
<path d="M388 802 c-12 -5 -14 -12 -9 -21 7 -11 11 -9 20 8 7 11 10 21 9 20
-2 0 -11 -3 -20 -7z"/>
<path d="M700 795 c-10 -12 -10 -15 3 -15 8 0 17 7 21 15 3 8 2 15 -3 15 -5 0
-14 -7 -21 -15z"/>
<path d="M120 771 c0 -5 -10 -11 -22 -13 -13 -2 -18 -6 -13 -10 6 -3 21 -1 34
6 15 9 20 16 12 20 -6 4 -11 3 -11 -3z"/>
<path d="M440 771 c0 -6 -10 -11 -22 -11 -16 0 -19 -3 -11 -11 8 -8 17 -7 33
4 13 9 17 17 11 22 -6 3 -11 1 -11 -4z"/>
<path d="M760 772 c0 -7 -12 -12 -27 -12 -25 -1 -26 -2 -9 -11 14 -9 22 -7 34
5 9 8 13 19 9 22 -4 4 -7 2 -7 -4z"/>
<path d="M206 611 c-3 -5 1 -11 9 -15 8 -3 15 -1 15 4 0 13 -18 22 -24 11z"/>
<path d="M524 609 c-3 -6 -2 -15 3 -20 5 -5 9 -1 10 11 2 22 -2 25 -13 9z"/>
<path d="M690 604 c0 -8 5 -12 10 -9 6 4 8 11 5 16 -9 14 -15 11 -15 -7z"/>
<path d="M845 610 c-10 -16 7 -31 23 -21 10 6 10 10 -2 20 -10 9 -16 9 -21 1z
m15 -15 c0 -3 -2 -5 -5 -5 -3 0 -5 2 -5 5 0 3 2 5 5 5 3 0 5 -2 5 -5z"/>
<path d="M50 600 c0 -5 5 -10 10 -10 6 0 10 5 10 10 0 6 -4 10 -10 10 -5 0
-10 -4 -10 -10z"/>
<path d="M370 600 c0 -5 5 -10 10 -10 6 0 10 5 10 10 0 6 -4 10 -10 10 -5 0
-10 -4 -10 -10z"/>
<path d="M89 563 c-13 -16 -12 -17 4 -4 9 7 17 15 17 17 0 8 -8 3 -21 -13z"/>
<path d="M133 558 c-9 -11 -11 -18 -5 -18 7 0 12 5 12 10 0 6 6 10 14 10 8 0
17 4 20 8 10 17 -24 8 -41 -10z"/>
<path d="M409 563 c-13 -16 -12 -17 4 -4 9 7 17 15 17 17 0 8 -8 3 -21 -13z"/>
<path d="M490 570 c0 -7 3 -10 7 -7 3 4 3 10 0 14 -4 3 -7 0 -7 -7z"/>
<path d="M729 563 c-13 -16 -12 -17 4 -4 16 13 21 21 13 21 -2 0 -10 -8 -17
-17z"/>
<path d="M450 555 c-7 -8 -8 -15 -2 -15 5 0 15 7 22 15 7 8 8 15 2 15 -5 0
-15 -7 -22 -15z"/>
<path d="M771 556 c-9 -11 -9 -16 1 -22 7 -4 9 -3 5 1 -4 5 3 15 15 22 17 9
19 12 7 13 -9 0 -22 -6 -28 -14z"/>
<path d="M193 553 c4 -3 10 -3 14 0 3 4 0 7 -7 7 -7 0 -10 -3 -7 -7z"/>
<path d="M510 555 c0 -3 2 -5 5 -5 3 0 5 2 5 5 0 3 -2 5 -5 5 -3 0 -5 -2 -5
-5z"/>
<path d="M830 555 c0 -3 2 -5 5 -5 3 0 5 2 5 5 0 3 -2 5 -5 5 -3 0 -5 -2 -5
-5z"/>
<path d="M30 546 c0 -3 9 -10 20 -16 11 -6 20 -8 20 -6 0 3 -9 10 -20 16 -11
6 -20 8 -20 6z"/>
<path d="M360 541 c0 -5 7 -11 15 -15 8 -3 15 -1 15 3 0 5 -7 11 -15 15 -8 3
-15 1 -15 -3z"/>
<path d="M150 535 c0 -3 2 -5 5 -5 3 0 5 2 5 5 0 3 -2 5 -5 5 -3 0 -5 -2 -5
-5z"/>
<path d="M690 530 c8 -5 20 -10 25 -10 6 0 3 5 -5 10 -8 5 -19 10 -25 10 -5 0
-3 -5 5 -10z"/>
<path d="M100 525 c0 -3 2 -5 5 -5 3 0 5 2 5 5 0 3 -2 5 -5 5 -3 0 -5 -2 -5
-5z"/>
<path d="M425 520 c-3 -5 -1 -10 4 -10 6 0 11 5 11 10 0 6 -2 10 -4 10 -3 0
-8 -4 -11 -10z"/>
<path d="M740 520 c0 -5 5 -10 11 -10 5 0 7 5 4 10 -3 6 -8 10 -11 10 -2 0 -4
-4 -4 -10z"/>
<path d="M130 515 c0 -3 2 -5 5 -5 3 0 5 2 5 5 0 3 -2 5 -5 5 -3 0 -5 -2 -5
-5z"/>
<path d="M450 515 c0 -3 2 -5 5 -5 3 0 5 2 5 5 0 3 -2 5 -5 5 -3 0 -5 -2 -5
-5z"/>
<path d="M770 515 c0 -3 2 -5 5 -5 3 0 5 2 5 5 0 3 -2 5 -5 5 -3 0 -5 -2 -5
-5z"/>
<path d="M863 502 c-9 -15 -7 -18 8 -19 20 -2 23 5 11 24 -6 9 -11 8 -19 -5z"/>
<path d="M50 505 c0 -3 2 -5 5 -5 3 0 5 2 5 5 0 3 -2 5 -5 5 -3 0 -5 -2 -5 -5z"/>
<path d="M250 505 c0 -3 2 -5 5 -5 3 0 5 2 5 5 0 3 -2 5 -5 5 -3 0 -5 -2 -5
-5z"/>
<path d="M364 498 c-4 -7 -3 -8 4 -4 7 4 12 9 12 12 0 8 -9 4 -16 -8z"/>
<path d="M526 503 c-3 -3 -3 -10 0 -14 7 -12 34 -11 34 0 0 11 -26 22 -34 14z
m14 -8 c0 -3 -2 -5 -5 -5 -3 0 -5 2 -5 5 0 3 2 5 5 5 3 0 5 -2 5 -5z"/>
<path d="M685 500 c3 -5 8 -10 11 -10 3 0 2 5 -1 10 -3 6 -8 10 -11 10 -3 0
-2 -4 1 -10z"/>
<path d="M149 481 c15 -28 31 -35 44 -21 9 10 9 11 0 6 -7 -4 -13 -3 -13 1 0
5 -9 14 -21 21 -19 12 -19 11 -10 -7z"/>
<path d="M205 491 c-3 -6 4 -9 15 -8 11 1 20 5 20 9 0 11 -28 10 -35 -1z"/>
<path d="M472 475 c11 -24 38 -35 38 -15 0 6 -7 10 -15 10 -8 0 -15 7 -15 15
0 8 -4 15 -10 15 -6 0 -5 -10 2 -25z"/>
<path d="M792 475 c6 -14 17 -25 25 -25 11 0 10 6 -4 25 -23 32 -36 32 -21 0z"/>
<path d="M60 475 c-9 -11 -10 -15 -1 -15 7 0 19 7 27 15 13 13 13 15 1 15 -8
0 -20 -7 -27 -15z"/>
<path d="M388 482 c-12 -5 -14 -12 -9 -21 7 -11 11 -9 20 8 7 11 10 21 9 20
-2 0 -11 -3 -20 -7z"/>
<path d="M700 475 c-10 -12 -10 -15 3 -15 8 0 17 7 21 15 3 8 2 15 -3 15 -5 0
-14 -7 -21 -15z"/>
<path d="M440 451 c0 -6 -10 -11 -22 -11 -16 0 -19 -3 -11 -11 8 -8 17 -7 33
4 13 9 17 17 11 22 -6 3 -11 1 -11 -4z"/>
<path d="M760 452 c0 -7 -12 -12 -27 -12 -25 -1 -26 -2 -9 -11 14 -9 22 -7 34
5 9 8 13 19 9 22 -4 4 -7 2 -7 -4z"/>
<path d="M95 441 c-21 -5 -25 -8 -14 -13 8 -3 26 0 40 8 26 14 21 15 -26 5z"/>
<path d="M204 289 c-3 -6 -2 -15 3 -20 5 -5 9 -1 10 11 2 22 -2 25 -13 9z"/>
<path d="M370 284 c0 -8 5 -12 10 -9 6 4 8 11 5 16 -9 14 -15 11 -15 -7z"/>
<path d="M525 290 c-10 -16 7 -31 23 -21 10 6 10 10 -2 20 -10 9 -16 9 -21 1z
m15 -15 c0 -3 -2 -5 -5 -5 -3 0 -5 2 -5 5 0 3 2 5 5 5 3 0 5 -2 5 -5z"/>
<path d="M844 289 c-3 -6 -2 -15 3 -20 5 -5 9 -1 10 11 2 22 -2 25 -13 9z"/>
<path d="M50 280 c0 -5 5 -10 10 -10 6 0 10 5 10 10 0 6 -4 10 -10 10 -5 0
-10 -4 -10 -10z"/>
<path d="M690 280 c0 -5 5 -10 10 -10 6 0 10 5 10 10 0 6 -4 10 -10 10 -5 0
-10 -4 -10 -10z"/>
<path d="M89 243 c-13 -16 -12 -17 4 -4 9 7 17 15 17 17 0 8 -8 3 -21 -13z"/>
<path d="M170 250 c0 -7 3 -10 7 -7 3 4 3 10 0 14 -4 3 -7 0 -7 -7z"/>
<path d="M409 243 c-13 -16 -12 -17 4 -4 16 13 21 21 13 21 -2 0 -10 -8 -17
-17z"/>
<path d="M729 243 c-13 -16 -12 -17 4 -4 16 13 21 21 13 21 -2 0 -10 -8 -17
-17z"/>
<path d="M810 250 c0 -7 3 -10 7 -7 3 4 3 10 0 14 -4 3 -7 0 -7 -7z"/>
<path d="M130 235 c-7 -8 -8 -15 -2 -15 5 0 15 7 22 15 7 8 8 15 2 15 -5 0
-15 -7 -22 -15z"/>
<path d="M451 236 c-9 -11 -9 -16 1 -22 7 -4 9 -3 5 1 -4 5 3 15 15 22 17 9
19 12 7 13 -9 0 -22 -6 -28 -14z"/>
<path d="M770 235 c-7 -8 -8 -15 -2 -15 5 0 15 7 22 15 7 8 8 15 2 15 -5 0
-15 -7 -22 -15z"/>
<path d="M190 235 c0 -3 2 -5 5 -5 3 0 5 2 5 5 0 3 -2 5 -5 5 -3 0 -5 -2 -5
-5z"/>
<path d="M510 235 c0 -3 2 -5 5 -5 3 0 5 2 5 5 0 3 -2 5 -5 5 -3 0 -5 -2 -5
-5z"/>
<path d="M830 235 c0 -3 2 -5 5 -5 3 0 5 2 5 5 0 3 -2 5 -5 5 -3 0 -5 -2 -5
-5z"/>
<path d="M40 221 c0 -5 7 -11 15 -15 8 -3 15 -1 15 3 0 5 -7 11 -15 15 -8 3
-15 1 -15 -3z"/>
<path d="M680 221 c0 -5 7 -11 15 -15 8 -3 15 -1 15 3 0 5 -7 11 -15 15 -8 3
-15 1 -15 -3z"/>
<path d="M370 210 c8 -5 20 -10 25 -10 6 0 3 5 -5 10 -8 5 -19 10 -25 10 -5 0
-3 -5 5 -10z"/>
<path d="M105 200 c-3 -5 -1 -10 4 -10 6 0 11 5 11 10 0 6 -2 10 -4 10 -3 0
-8 -4 -11 -10z"/>
<path d="M420 200 c0 -5 5 -10 11 -10 5 0 7 5 4 10 -3 6 -8 10 -11 10 -2 0 -4
-4 -4 -10z"/>
<path d="M745 200 c-3 -5 -1 -10 4 -10 6 0 11 5 11 10 0 6 -2 10 -4 10 -3 0
-8 -4 -11 -10z"/>
<path d="M130 195 c0 -3 2 -5 5 -5 3 0 5 2 5 5 0 3 -2 5 -5 5 -3 0 -5 -2 -5
-5z"/>
<path d="M450 195 c0 -3 2 -5 5 -5 3 0 5 2 5 5 0 3 -2 5 -5 5 -3 0 -5 -2 -5
-5z"/>
<path d="M543 182 c-9 -15 -7 -18 8 -19 20 -2 23 5 11 24 -6 9 -11 8 -19 -5z"/>
<path d="M770 195 c0 -3 2 -5 5 -5 3 0 5 2 5 5 0 3 -2 5 -5 5 -3 0 -5 -2 -5
-5z"/>
<path d="M44 178 c-4 -7 -3 -8 4 -4 12 7 16 16 8 16 -3 0 -8 -5 -12 -12z"/>
<path d="M206 183 c-3 -3 -3 -10 0 -14 7 -12 34 -11 34 0 0 11 -26 22 -34 14z
m14 -8 c0 -3 -2 -5 -5 -5 -3 0 -5 2 -5 5 0 3 2 5 5 5 3 0 5 -2 5 -5z"/>
<path d="M365 180 c3 -5 8 -10 11 -10 3 0 2 5 -1 10 -3 6 -8 10 -11 10 -3 0
-2 -4 1 -10z"/>
<path d="M684 178 c-4 -7 -3 -8 4 -4 7 4 12 9 12 12 0 8 -9 4 -16 -8z"/>
<path d="M846 183 c-3 -3 -3 -10 0 -14 7 -12 34 -11 34 0 0 11 -26 22 -34 14z
m14 -8 c0 -3 -2 -5 -5 -5 -3 0 -5 2 -5 5 0 3 2 5 5 5 3 0 5 -2 5 -5z"/>
<path d="M152 155 c11 -24 38 -35 38 -15 0 6 -7 10 -15 10 -8 0 -15 7 -15 15
0 8 -4 15 -10 15 -6 0 -5 -10 2 -25z"/>
<path d="M472 155 c6 -14 17 -25 25 -25 11 0 10 6 -4 25 -23 32 -36 32 -21 0z"/>
<path d="M792 155 c11 -24 38 -35 38 -15 0 6 -7 10 -15 10 -8 0 -15 7 -15 15
0 8 -4 15 -10 15 -6 0 -5 -10 2 -25z"/>
<path d="M68 162 c-12 -5 -14 -12 -9 -21 7 -11 11 -9 20 8 7 11 10 21 9 20 -2
0 -11 -3 -20 -7z"/>
<path d="M380 155 c-10 -12 -10 -15 3 -15 8 0 17 7 21 15 3 8 2 15 -3 15 -5 0
-14 -7 -21 -15z"/>
<path d="M708 162 c-12 -5 -14 -12 -9 -21 7 -11 11 -9 20 8 7 11 10 21 9 20
-2 0 -11 -3 -20 -7z"/>
<path d="M120 131 c0 -6 -10 -11 -22 -11 -16 0 -19 -3 -11 -11 8 -8 17 -7 33
4 13 9 17 17 11 22 -6 3 -11 1 -11 -4z"/>
<path d="M440 132 c0 -7 -12 -12 -27 -12 -25 -1 -26 -2 -9 -11 14 -9 22 -7 34
5 9 8 13 19 9 22 -4 4 -7 2 -7 -4z"/>
<path d="M760 131 c0 -6 -10 -11 -22 -11 -16 0 -19 -3 -11 -11 8 -8 17 -7 33
4 13 9 17 17 11 22 -6 3 -11 1 -11 -4z"/>
</g>
  </g>
</svg>
