<?xml version="1.0" encoding="UTF-8" standalone="no"?>
<!-- Created with Inkscape (http://www.inkscape.org/) -->

<svg
   xmlns:dc="http://purl.org/dc/elements/1.1/"
   xmlns:cc="http://creativecommons.org/ns#"
   xmlns:rdf="http://www.w3.org/1999/02/22-rdf-syntax-ns#"
   xmlns:svg="http://www.w3.org/2000/svg"
   xmlns="http://www.w3.org/2000/svg"
   xmlns:sodipodi="http://sodipodi.sourceforge.net/DTD/sodipodi-0.dtd"
   xmlns:inkscape="http://www.inkscape.org/namespaces/inkscape"
   width="16px"
   height="16px"
   viewBox="0 0 16px 16px"
   version="1.1"
   id="svgMain"
   inkscape:version="0.92.2 (5c3e80d, 2017-08-06)"
   sodipodi:docname="reference_SVG.svg">
  <defs
     id="defs4542" />
  <sodipodi:namedview
     id="base"
     pagecolor="#ffffff"
     bordercolor="#666666"
     borderopacity="1.0"
     inkscape:pageopacity="0.0"
     inkscape:pageshadow="2"
     inkscape:zoom="1"
     inkscape:cx="0"
     inkscape:cy="0"
     inkscape:document-units="px"
     inkscape:current-layer="layer1"
     showgrid="false"
     units="px"
     inkscape:window-width="1024"
     inkscape:window-height="768"
     inkscape:window-x="-8"
     inkscape:window-y="-8"
     inkscape:window-maximized="1" />
  <metadata
     id="metadata1">
    <rdf:RDF>
      <cc:Work
         rdf:about="">
        <dc:format>image/svg+xml</dc:format>
        <dc:type
           rdf:resource="http://purl.org/dc/dcmitype/StillImage" />
        <dc:title />
      </cc:Work>
    </rdf:RDF>
  </metadata>
  <g transform="translate(-16,-16) scale(0.5,0.5)"
     inkscape:label="Layer 1"
     inkscape:groupmode="layer"
     id="layer1">
    <!-- INSERT MARKER -->
<g transform="translate(0.000000,96.000000) scale(0.100000,-0.100000)"
fill="#7bcb67" stroke="none">
<path d="M0 480 l0 -480 480 0 480 0 0 480 0 480 -480 0 -480 0 0 -480z"/>
</g>
<g transform="translate(0.000000,96.000000) scale(0.100000,-0.100000)"
fill="#83d06f" stroke="none">
<path d="M24 935 c1 -13 -4 -19 -14 -17 -8 2 -11 0 -7 -4 11 -11 38 -14 31 -3
-3 5 0 9 6 9 6 0 9 -8 6 -17 -3 -10 -1 -25 4 -33 7 -12 12 -11 31 5 12 11 19
14 15 8 -5 -9 -2 -11 11 -6 20 7 53 38 53 50 0 4 -5 2 -12 -5 -7 -7 -17 -8
-30 -1 -14 7 -18 6 -18 -6 0 -18 -19 -21 -21 -2 -1 6 -2 19 -3 27 0 9 -11 15
-27 15 -20 1 -26 -4 -25 -20z m36 10 c0 -3 -2 -5 -5 -5 -3 0 -5 2 -5 5 0 3 2
5 5 5 3 0 5 -2 5 -5z m-20 -10 c0 -3 -2 -5 -5 -5 -3 0 -5 2 -5 5 0 3 2 5 5 5
3 0 5 -2 5 -5z m80 -30 c0 -3 -2 -5 -5 -5 -3 0 -5 2 -5 5 0 3 2 5 5 5 3 0 5
-2 5 -5z m-50 -20 c0 -3 -2 -5 -5 -5 -3 0 -5 2 -5 5 0 3 2 5 5 5 3 0 5 -2 5
-5z"/>
<path d="M120 945 c0 -8 2 -15 4 -15 2 0 6 7 10 15 3 8 1 15 -4 15 -6 0 -10
-7 -10 -15z"/>
<path d="M153 947 c-3 -6 -1 -7 4 -4 13 8 40 -23 40 -45 0 -9 -4 -15 -9 -12
-19 12 -45 -7 -42 -31 1 -17 -5 -29 -19 -37 l-22 -12 23 -5 c13 -3 23 -9 23
-13 -1 -5 -2 -7 -3 -6 -2 1 -13 -4 -25 -10 -21 -12 -26 -8 -33 23 -9 40 -42
60 -53 31 -6 -16 19 -30 35 -20 6 4 2 -5 -7 -19 -9 -14 -15 -28 -13 -31 2 -2
-1 -8 -5 -13 -5 -4 -8 -3 -7 2 6 29 -2 53 -20 58 -17 4 -20 0 -20 -28 0 -18 6
-36 13 -38 8 -4 8 -6 -2 -6 -11 -1 -10 -5 5 -16 22 -17 48 -20 39 -5 -4 6 -3
10 2 9 22 -4 34 2 27 13 -11 17 -13 48 -3 48 4 0 9 -6 12 -13 7 -18 57 -14 72
6 7 9 20 17 29 17 9 0 16 4 16 9 0 5 -8 8 -17 7 -11 0 -17 6 -17 16 1 10 -2
16 -6 13 -5 -3 -11 -1 -15 5 -3 5 -1 10 5 10 7 0 9 7 6 16 -6 14 -4 15 10 4
13 -12 17 -11 24 0 5 8 6 18 4 22 -3 4 -1 8 5 8 16 0 19 -24 4 -42 -12 -13
-12 -20 -1 -37 7 -12 19 -19 26 -16 10 4 12 -2 7 -25 -6 -29 -6 -30 19 -20 20
7 24 6 19 -5 -3 -8 -9 -13 -13 -10 -5 3 -11 1 -15 -5 -4 -6 -11 -7 -17 -4 -6
4 -8 2 -4 -4 9 -15 -7 -23 -24 -12 -12 7 -11 12 3 28 16 17 16 20 2 25 -8 4
-15 2 -15 -3 0 -6 -7 -10 -15 -10 -13 0 -14 -4 -5 -20 9 -16 8 -19 -6 -13 -12
4 -15 2 -12 -8 3 -8 15 -13 26 -12 27 3 69 -46 50 -59 -9 -5 -6 -8 10 -8 20 0
22 4 18 35 -3 19 0 35 5 35 5 0 9 -6 10 -12 0 -7 7 2 15 20 16 35 29 43 21 12
-3 -11 0 -23 5 -27 6 -3 8 -1 4 5 -3 6 -2 13 4 17 6 4 10 -5 10 -19 0 -16 -6
-26 -15 -26 -8 0 -15 5 -15 11 0 6 -7 3 -16 -6 -10 -10 -14 -25 -10 -43 3 -15
3 -21 0 -14 -4 9 -15 4 -34 -18 -18 -20 -33 -29 -41 -24 -8 5 -10 3 -5 -5 5
-8 0 -14 -13 -18 -11 -3 -18 -9 -15 -14 3 -5 17 -1 32 9 15 11 46 27 69 37 23
10 45 25 48 33 5 13 3 13 -12 1 -10 -7 -7 -1 6 14 28 31 33 33 25 12 -4 -10 0
-15 12 -15 17 -1 18 -1 2 -10 -9 -6 -15 -19 -13 -29 2 -11 -5 -27 -17 -37 -19
-18 -20 -18 -37 5 -15 20 -19 21 -24 7 -4 -9 -13 -16 -22 -16 -8 0 -15 -4 -15
-10 0 -5 15 -9 33 -8 52 1 60 -1 53 -17 -3 -9 0 -15 8 -15 8 0 16 9 19 20 3
11 1 20 -5 20 -5 0 -7 4 -4 9 3 5 15 7 26 4 13 -3 20 0 20 8 0 10 3 10 12 1 7
-7 23 -12 36 -12 20 0 22 -3 13 -14 -9 -11 -9 -16 0 -22 8 -5 9 -3 4 6 -5 9
-4 11 3 6 17 -10 15 -27 -5 -42 -17 -13 -17 -13 -1 -14 18 0 14 -30 -4 -30 -5
0 -6 6 -2 13 5 8 2 7 -9 -2 -13 -10 -14 -17 -6 -27 15 -18 3 -33 -21 -27 -15
4 -18 9 -10 17 18 22 9 86 -14 98 -12 6 -18 7 -14 3 4 -5 3 -14 -3 -21 -8 -10
-8 -15 3 -19 16 -6 22 -51 8 -60 -6 -4 -9 -3 -8 2 4 16 -13 51 -27 57 -8 3
-15 2 -15 -3 0 -12 -32 -9 -46 4 -7 6 -10 13 -8 17 3 4 -9 14 -25 23 -28 14
-50 7 -37 -13 2 -4 1 -14 -4 -21 -10 -17 -33 -4 -26 15 3 8 0 13 -7 11 -7 -1
-11 7 -9 23 5 33 -5 22 -12 -13 -3 -18 -1 -25 6 -21 7 4 8 2 4 -4 -4 -6 -13
-9 -20 -6 -8 3 -17 1 -21 -5 -3 -6 -1 -11 5 -11 6 0 18 -7 27 -15 12 -12 18
-13 29 -4 9 8 14 8 14 1 0 -6 -5 -14 -10 -17 -6 -4 -8 -11 -5 -16 4 -5 -5 -9
-19 -9 -14 0 -26 4 -26 10 0 5 7 7 15 4 25 -10 17 12 -9 24 -22 10 -24 9 -21
-9 2 -11 0 -17 -6 -14 -5 4 -9 14 -9 23 0 15 -2 15 -10 2 -7 -11 -10 -7 -10
17 0 35 -10 46 -34 37 -15 -6 -14 -10 4 -39 18 -29 18 -34 5 -45 -10 -9 -15
-9 -15 -1 0 6 4 11 10 11 5 0 -1 11 -14 25 -31 33 -36 32 -36 -11 0 -21 4 -33
10 -29 5 3 10 2 10 -4 0 -5 -6 -12 -13 -14 -9 -4 -9 -6 1 -6 15 -1 16 -33 0
-49 -9 -9 -9 -12 0 -12 7 0 12 5 12 11 0 5 5 7 11 3 8 -5 6 -10 -5 -16 -22
-13 -20 -31 3 -23 11 3 23 0 27 -6 4 -7 3 -9 -4 -5 -6 3 -17 -3 -25 -14 -7
-11 -18 -17 -23 -12 -5 4 0 -3 10 -15 21 -25 42 -30 49 -10 4 8 6 7 6 -4 1
-11 9 -14 31 -11 19 3 30 0 30 -7 0 -7 5 -9 10 -6 19 12 4 -35 -16 -50 -16
-12 -17 -14 -3 -15 24 0 31 -26 8 -27 -13 -1 -17 2 -12 10 4 7 0 6 -10 -2 -17
-13 -14 -36 4 -26 5 4 17 1 26 -5 16 -10 16 -11 -4 -7 -12 3 -24 -1 -27 -8 -3
-8 -13 -11 -26 -8 -14 4 -18 9 -10 17 17 22 9 86 -13 98 -14 7 -17 7 -13 -1 4
-6 3 -11 -1 -11 -5 0 -9 -8 -9 -19 0 -10 5 -17 11 -15 14 6 18 -43 3 -52 -6
-4 -8 -3 -4 4 3 6 2 13 -4 17 -5 3 -10 -1 -10 -9 0 -9 -5 -16 -10 -16 -7 0 -7
6 0 19 11 21 4 51 -11 51 -5 0 -9 -22 -8 -50 1 -27 6 -47 11 -44 4 3 8 0 8 -5
0 -6 9 -11 21 -11 11 0 18 4 15 8 -3 5 1 9 9 9 15 0 20 -15 17 -50 -1 -10 2
-16 7 -12 5 3 12 1 16 -5 3 -5 28 -10 56 -10 48 0 49 1 49 30 0 17 -4 30 -10
30 -5 0 -9 -3 -7 -8 1 -4 -2 -8 -8 -10 -5 -2 -11 1 -13 6 -2 6 6 13 17 17 12
4 18 12 14 21 -3 7 0 14 6 14 6 0 11 -3 11 -7 0 -5 18 -8 40 -9 21 0 37 2 36
5 -2 3 3 12 12 20 13 13 14 12 10 -12 -3 -15 -1 -27 3 -27 5 0 9 8 10 18 0 15
1 15 8 -2 7 -18 40 -32 42 -18 0 4 3 16 5 27 3 11 6 26 6 33 2 22 17 13 24
-15 5 -17 3 -28 -4 -31 -7 -2 -12 -17 -12 -34 0 -26 2 -29 16 -18 13 11 16 10
21 -9 5 -19 12 -21 50 -19 24 1 46 5 48 8 6 9 -11 31 -21 28 -20 -7 -15 18 5
28 32 16 34 21 9 19 -13 -1 -29 5 -36 12 -9 9 -18 10 -26 5 -7 -6 -18 -2 -31
11 l-20 20 21 -11 c11 -6 30 -8 42 -5 14 3 22 1 22 -6 0 -7 8 -11 18 -10 9 1
25 -1 35 -6 17 -7 17 -8 0 -21 -17 -13 -17 -15 4 -33 16 -14 19 -21 10 -30 -8
-8 -8 -11 0 -11 16 0 23 26 11 38 -11 11 25 27 41 18 5 -3 7 3 4 14 -3 11 -10
20 -15 20 -5 0 -6 -4 -3 -10 3 -5 2 -10 -4 -10 -14 0 -23 18 -12 24 5 3 21 7
36 8 34 3 58 44 34 58 -8 5 -15 5 -17 1 -5 -16 -39 0 -52 24 -7 13 -18 21 -26
18 -8 -3 -14 0 -14 6 0 10 22 16 44 12 5 -1 19 8 33 20 18 18 26 20 35 11 16
-16 38 -15 38 2 0 10 -7 13 -20 11 -13 -3 -18 0 -14 7 4 6 3 8 -3 5 -12 -8
-36 17 -27 26 4 4 -3 5 -15 2 -11 -2 -21 0 -21 6 0 18 -15 9 -27 -17 -11 -24
-10 -26 7 -21 17 4 18 2 10 -13 -14 -26 -27 -32 -33 -16 -6 14 -57 19 -57 5 0
-4 11 -6 25 -3 28 5 34 -12 10 -30 -21 -16 -8 -56 19 -57 11 -1 25 -1 31 1 5
1 2 -7 -8 -18 -9 -10 -17 -25 -17 -32 0 -10 -5 -9 -18 3 -10 10 -22 14 -25 10
-4 -3 -7 -1 -7 6 0 7 -4 10 -9 7 -5 -4 -8 9 -7 29 2 19 0 32 -5 30 -4 -3 -10
-1 -14 5 -3 5 -2 10 4 10 6 0 8 7 5 15 -7 18 -30 20 -40 3 -5 -8 -2 -9 9 -5
13 5 16 1 14 -14 -2 -11 -10 -25 -18 -30 -12 -8 -12 -10 1 -19 13 -9 13 -11 1
-19 -9 -6 -22 -6 -32 0 -27 14 -33 29 -12 29 17 1 17 1 0 11 -9 6 -15 14 -12
20 4 5 3 9 -2 9 -11 -1 -44 -26 -46 -37 -1 -4 -8 -7 -14 -7 -7 1 -13 -1 -13
-5 0 -4 -10 -7 -22 -5 -13 1 -27 3 -31 3 -4 1 -7 7 -6 14 3 23 -1 34 -13 34
-7 0 -20 2 -28 4 -8 2 -15 -4 -17 -16 -1 -11 -3 -30 -5 -43 -1 -12 -9 -22 -16
-22 -8 0 -12 -6 -8 -15 3 -8 1 -15 -4 -15 -6 0 -10 9 -10 20 0 11 5 20 10 20
15 0 12 30 -4 36 -9 4 -12 15 -9 35 3 22 0 29 -12 29 -14 0 -14 2 0 23 8 13
12 27 8 30 -3 4 1 7 10 7 9 0 19 -4 22 -10 8 -14 42 -13 51 2 4 6 1 16 -7 22
-14 11 -21 29 -22 54 0 8 -7 10 -16 7 -13 -5 -13 -4 -4 6 10 10 16 9 31 -4 10
-9 22 -14 26 -10 4 4 4 -1 0 -12 -7 -20 -7 -20 17 0 32 27 40 38 35 52 -3 6 2
14 10 17 8 3 14 -1 14 -9 0 -8 5 -15 10 -15 6 0 10 -9 10 -20 0 -12 -6 -20
-12 -19 -32 4 -48 -2 -49 -18 0 -11 -3 -13 -6 -5 -9 22 -20 4 -15 -27 4 -27
32 -54 32 -31 0 6 5 10 11 10 5 0 8 -4 5 -8 -3 -5 1 -9 9 -9 10 0 12 4 5 12
-5 7 -6 16 -2 20 4 5 1 5 -5 1 -26 -15 -12 11 17 33 17 12 28 26 25 32 -4 5 1
9 10 9 9 0 14 4 11 8 -3 5 1 9 9 9 8 0 15 -4 15 -8 0 -4 3 -15 7 -24 5 -14 2
-16 -16 -10 -13 4 -28 2 -36 -5 -20 -17 -19 -30 3 -30 16 -1 16 -1 0 -11 -10
-5 -18 -16 -18 -24 0 -7 -14 -20 -30 -29 -17 -8 -28 -10 -25 -5 10 15 -9 10
-35 -11 l-25 -20 33 3 c17 2 35 7 39 10 14 15 25 6 21 -18 -6 -29 7 -33 21 -6
8 15 7 20 -5 25 -8 3 -13 10 -9 16 6 10 43 -6 56 -24 4 -4 10 -3 13 3 4 6 18
11 30 11 13 0 29 7 36 15 7 8 17 12 23 8 6 -3 7 -1 3 5 -7 11 6 17 28 13 6 -1
21 0 34 4 18 4 21 9 13 19 -16 19 17 27 65 16 20 -5 42 -6 49 -4 7 3 16 0 21
-7 4 -7 3 -10 -2 -6 -6 3 -16 2 -24 -3 -11 -7 -8 -11 13 -19 16 -6 27 -18 27
-29 0 -15 6 -18 31 -14 24 4 30 2 24 -8 -5 -9 -4 -11 4 -6 6 4 9 11 7 15 -3 4
4 18 15 29 16 18 17 22 4 22 -8 0 -15 -4 -15 -9 0 -5 -10 -7 -22 -3 -17 4 -20
2 -15 -11 4 -11 2 -14 -9 -10 -13 5 -18 17 -15 37 1 5 -6 17 -15 27 -10 11
-12 19 -6 19 6 0 9 7 6 15 -4 8 -10 12 -16 9 -10 -6 -37 23 -38 40 0 6 6 1 14
-9 16 -23 49 -14 39 11 -5 13 -3 15 7 9 9 -5 11 -4 6 3 -4 6 -2 20 4 31 5 11
6 22 1 25 -4 3 -7 17 -6 30 4 29 -19 26 -35 -5 -6 -10 -17 -16 -25 -13 -8 4
-15 2 -15 -3 0 -5 -13 -8 -30 -5 -16 2 -30 8 -30 13 0 5 -8 9 -17 9 -13 0 -14
3 -6 8 9 6 7 11 -7 20 -23 14 -41 -4 -19 -20 11 -8 10 -9 -3 -4 -15 4 -16 0
-11 -27 4 -25 3 -30 -7 -20 -7 6 -14 26 -15 45 -2 18 -3 36 -4 41 -1 4 -8 7
-16 7 -19 0 -19 24 0 43 11 12 12 17 2 20 -8 4 -8 6 -1 6 17 1 59 -23 61 -36
1 -6 -9 -10 -22 -10 -14 0 -22 4 -18 10 3 6 1 7 -5 3 -9 -5 -9 -12 0 -29 9
-17 12 -19 17 -7 3 9 16 15 29 14 18 -1 20 1 11 12 -13 16 -1 18 20 5 12 -8
12 -12 2 -25 -11 -13 -9 -14 13 -12 14 1 29 6 33 9 14 15 25 6 21 -18 -6 -28
3 -32 21 -11 10 12 8 19 -8 35 -12 12 -24 20 -29 19 -17 -5 -70 27 -65 40 3 8
-3 15 -15 18 -14 4 -18 11 -14 27 4 16 2 19 -11 14 -16 -6 -45 19 -33 30 3 3
6 1 6 -7 0 -10 3 -10 15 0 12 10 20 7 45 -13 27 -23 26 -48 -2 -31 -7 4 -8 3
-4 -4 4 -7 14 -12 22 -12 8 0 14 -8 14 -18 0 -26 11 -34 28 -19 12 9 16 9 19
0 7 -21 22 -15 16 7 -3 10 -8 19 -12 18 -21 -2 -31 5 -46 34 -15 31 -15 33 7
50 18 13 20 18 8 22 -22 7 -50 4 -44 -5 2 -5 12 -5 22 -2 15 6 15 5 3 -11 -13
-16 -15 -16 -23 -1 -5 8 -13 13 -19 10 -5 -4 -5 4 1 19 6 17 6 26 0 26 -6 0
-10 8 -9 18 0 9 3 12 5 6 3 -7 15 -10 27 -8 12 2 16 2 10 -2 -22 -10 -15 -36
7 -29 12 4 20 2 20 -5 0 -6 6 -10 13 -8 20 5 56 -37 46 -53 -8 -12 -11 -12
-19 1 -5 8 -11 19 -13 24 -4 12 -27 -2 -27 -16 0 -5 7 -8 15 -4 8 3 15 1 15
-4 0 -6 -7 -10 -15 -10 -8 0 -15 -9 -15 -20 0 -17 7 -20 48 -20 37 -1 43 -3
30 -11 -10 -5 -18 -16 -18 -24 0 -11 6 -12 30 -4 35 13 36 16 13 41 -9 10 -11
18 -5 18 6 0 9 7 5 16 -5 13 -9 12 -31 -8 l-25 -23 17 27 c10 14 24 29 32 32
8 3 14 11 13 18 -3 27 1 38 15 38 22 0 29 -19 15 -36 -14 -17 -19 -78 -5 -64
5 5 15 6 23 3 11 -5 11 -9 -4 -26 -10 -11 -13 -17 -6 -14 6 4 14 1 16 -5 4
-10 6 -10 6 -1 1 7 11 18 24 24 l22 12 -19 -22 c-17 -19 -17 -21 -3 -15 13 5
16 2 11 -12 -4 -12 -3 -15 3 -7 6 9 19 9 53 1 25 -6 47 -12 49 -14 8 -7 -21
-34 -30 -28 -5 3 -9 1 -9 -5 0 -17 59 -9 77 12 17 19 17 19 -4 13 -17 -5 -23
-3 -23 8 0 21 21 31 31 15 6 -11 9 -8 9 8 0 17 -5 21 -20 18 -11 -2 -20 0 -20
6 0 17 -18 9 -23 -11 -3 -11 -10 -20 -16 -20 -6 0 -8 7 -5 15 4 9 -1 18 -11
21 -9 4 -15 16 -14 28 4 29 -10 68 -22 61 -5 -4 -9 -1 -9 4 0 10 20 14 38 9 4
-2 7 -12 7 -23 0 -11 6 -30 13 -43 16 -28 37 -20 22 9 -10 17 -7 23 11 21 3
-1 4 11 1 25 -5 25 -6 25 -18 8 -8 -10 -17 -15 -21 -12 -3 4 -3 7 2 7 4 0 0 9
-10 20 -17 19 -52 29 -41 12 3 -5 -11 -26 -31 -48 -31 -34 -32 -35 -13 -6 l21
32 -20 0 c-12 0 -21 5 -21 11 0 5 5 7 11 4 18 -12 48 25 47 57 -1 24 -3 27
-10 14 -6 -11 -16 -15 -29 -11 -11 4 -19 2 -19 -5 0 -6 4 -8 10 -5 5 3 10 0
10 -8 0 -8 -7 -18 -16 -21 -18 -7 -65 -7 -49 0 6 2 9 20 7 38 -4 32 -6 34 -28
24 -12 -6 -22 -16 -21 -21 1 -6 -19 -13 -45 -14 -42 -4 -48 -2 -48 16 0 11 -9
22 -20 26 -11 4 -18 10 -15 15 3 5 -3 11 -12 13 -14 3 -10 8 15 18 34 14 43
29 17 29 -10 0 -15 7 -13 18 2 13 -5 17 -32 18 -53 2 -57 -7 -11 -28 38 -17
59 -37 26 -24 -8 3 -14 1 -12 -5 1 -5 -13 -16 -30 -24 -20 -8 -33 -10 -33 -4
0 6 -5 7 -10 4 -8 -5 -7 -12 2 -23 8 -10 9 -13 1 -9 -6 4 -14 3 -17 -2 -9 -15
4 -40 24 -46 12 -4 17 -12 13 -21 -4 -11 -8 -12 -13 -4 -5 9 -9 9 -14 1 -4 -6
0 -14 8 -17 9 -3 13 -10 10 -16 -3 -5 -14 -2 -25 8 -15 14 -17 20 -6 32 10 13
9 14 -10 3 -20 -10 -23 -9 -24 6 -3 43 -5 48 -18 48 -7 0 -17 -10 -22 -22 -7
-18 -5 -21 9 -16 9 3 14 3 10 -1 -3 -4 -2 -20 2 -36 6 -21 5 -30 -6 -34 -8 -3
-13 -2 -10 3 3 5 -1 12 -10 15 -9 4 -13 13 -10 23 7 23 -8 50 -18 34 -4 -6
-11 -9 -16 -6 -5 3 -20 0 -32 -6 -21 -11 -22 -11 -9 5 12 15 12 19 -2 34 -12
11 -17 12 -17 4 0 -7 -4 -11 -9 -8 -5 3 -7 15 -4 26 3 11 -2 31 -11 45 -17 26
-9 34 12 13 10 -10 15 -10 21 1 5 7 14 10 20 7 6 -4 11 -2 11 3 0 6 5 11 11
11 5 0 7 -6 3 -12 -4 -7 -4 -10 1 -6 4 4 14 3 21 -3 8 -7 14 -7 19 1 3 5 -1
10 -9 10 -9 0 -16 6 -16 13 0 8 -6 14 -12 14 -7 0 -20 4 -30 8 -11 4 -18 0
-24 -17 l-7 -23 -8 22 c-6 18 -15 22 -44 21 -20 -1 -39 -6 -42 -11z m373 -90
c4 -4 1 -7 -7 -7 -10 -1 -8 -5 6 -17 14 -11 15 -14 4 -10 -13 4 -15 -1 -13
-24 2 -18 0 -28 -6 -24 -6 3 -10 13 -10 21 0 8 -7 17 -15 20 -20 8 -19 34 1
34 8 0 13 4 10 9 -7 10 20 9 30 -2z m-366 -32 c0 -3 -2 -5 -5 -5 -3 0 -5 2 -5
5 0 3 2 5 5 5 3 0 5 -2 5 -5z m297 -2 c-4 -3 -10 -3 -14 0 -3 4 0 7 7 7 7 0
10 -3 7 -7z m103 2 c0 -3 -2 -5 -5 -5 -3 0 -5 2 -5 5 0 3 2 5 5 5 3 0 5 -2 5
-5z m-290 -10 c0 -3 -2 -5 -5 -5 -3 0 -5 2 -5 5 0 3 2 5 5 5 3 0 5 -2 5 -5z
m427 -40 c-1 -13 -5 -27 -8 -30 -7 -6 -9 25 -3 43 6 22 15 13 11 -13z m-272
-26 c4 -5 0 -18 -9 -28 -18 -20 -21 -36 -6 -26 6 3 7 -1 4 -10 -4 -9 -13 -14
-21 -11 -8 3 -21 6 -30 6 -8 0 -13 6 -10 13 2 6 9 11 15 10 6 -2 16 6 22 17 6
11 8 20 5 20 -4 0 -3 5 0 10 8 13 22 13 30 -1z m76 -6 c13 -16 12 -17 -3 -4
-10 7 -18 15 -18 17 0 8 8 3 21 -13z m156 -20 c-4 -3 -7 0 -7 7 0 7 3 10 7 7
3 -4 3 -10 0 -14z m-367 -3 c0 -5 -7 -7 -15 -4 -8 4 -15 8 -15 10 0 2 7 4 15
4 8 0 15 -4 15 -10z m190 5 c0 -3 -2 -5 -5 -5 -3 0 -5 2 -5 5 0 3 2 5 5 5 3 0
5 -2 5 -5z m-33 -12 c-4 -3 -10 -3 -14 0 -3 4 0 7 7 7 7 0 10 -3 7 -7z m395
-18 c10 -14 -14 -26 -29 -13 -7 6 -13 14 -13 18 0 11 34 7 42 -5z m-372 1 c0
-2 -7 -6 -15 -10 -8 -3 -15 -1 -15 4 0 6 7 10 15 10 8 0 15 -2 15 -4z m6 -65
c-8 -9 -16 -20 -17 -26 -1 -5 -10 -9 -21 -7 -10 2 -18 -2 -18 -7 0 -6 -5 -11
-11 -11 -5 0 -7 5 -4 10 3 6 2 10 -4 10 -6 0 -8 7 -4 15 3 9 -2 22 -13 31 -18
13 -17 14 11 11 20 -3 30 -9 29 -20 -1 -9 2 -14 7 -11 5 3 9 0 9 -5 0 -6 8 -3
18 7 14 12 16 22 10 37 -9 20 -9 20 6 1 14 -17 14 -22 2 -35z m424 34 c0 -3
-2 -5 -5 -5 -3 0 -5 2 -5 5 0 3 2 5 5 5 3 0 5 -2 5 -5z m-60 -19 c0 -3 -5 -8
-12 -12 -7 -4 -8 -3 -4 4 7 12 16 16 16 8z m-330 -11 c0 -3 -2 -5 -5 -5 -3 0
-5 2 -5 5 0 3 2 5 5 5 3 0 5 -2 5 -5z m-130 -39 c0 -3 -5 -8 -12 -12 -7 -4 -8
-3 -4 4 7 12 16 16 16 8z m110 -75 c0 -6 -4 -13 -10 -16 -5 -3 -10 1 -10 9 0
9 5 16 10 16 6 0 10 -4 10 -9z m-250 -21 c0 -5 -5 -10 -11 -10 -5 0 -7 5 -4
10 3 6 8 10 11 10 2 0 4 -4 4 -10z m330 -38 c-11 -4 -14 -32 -4 -32 3 0 14 5
25 10 15 8 19 8 17 -2 -2 -8 4 -12 15 -10 11 2 17 -4 17 -17 0 -11 5 -23 10
-26 20 -12 9 -25 -20 -25 -16 0 -30 -5 -30 -10 0 -6 -8 -5 -19 2 -18 11 -18
13 -4 23 10 8 13 17 8 25 -5 9 -4 11 3 6 7 -4 12 -2 12 3 0 6 -7 11 -16 11
-10 0 -14 -6 -11 -15 4 -8 2 -17 -3 -20 -9 -6 -14 8 -11 27 0 4 -6 5 -15 1
-14 -5 -15 -3 -5 15 8 15 8 22 1 22 -5 0 -10 5 -10 11 0 5 5 7 10 4 6 -3 13 1
16 10 6 13 8 14 15 3 5 -7 4 -14 -1 -16z m-300 10 c0 -3 -8 -11 -17 -18 -17
-12 -17 -14 1 -31 16 -16 18 -16 13 -1 -3 9 0 19 8 22 11 4 12 0 5 -19 -6 -16
-5 -25 2 -27 7 -3 5 -7 -5 -11 -10 -4 -16 -2 -14 4 1 6 -6 16 -16 22 -14 10
-20 9 -27 -3 -5 -8 -12 -12 -15 -8 -9 9 36 75 52 75 7 0 13 -2 13 -5z m427
-17 c-4 -36 -12 -38 -15 -5 -1 17 2 30 8 30 6 0 9 -11 7 -25z m-467 11 c0 -11
-19 -15 -25 -6 -3 5 1 10 9 10 9 0 16 -2 16 -4z m111 -43 c-12 -20 -14 -14 -5
12 4 9 9 14 11 11 3 -2 0 -13 -6 -23z m-241 7 c0 -5 0 -13 -1 -17 0 -4 8 -11
18 -15 14 -6 13 -7 -7 -5 -21 2 -25 -2 -25 -25 -1 -23 2 -25 14 -15 12 10 13
9 1 -13 -12 -23 -12 -24 3 -11 15 12 17 11 17 -10 0 -18 3 -20 12 -11 17 17
33 15 18 -3 -7 -8 -9 -15 -6 -15 4 0 4 -5 1 -10 -4 -7 -13 -7 -26 0 -16 9 -19
7 -19 -11 0 -18 -2 -19 -15 -9 -18 15 -20 35 -3 24 13 -8 3 12 -20 39 -8 9
-10 17 -5 17 6 0 14 7 17 16 5 13 1 15 -19 10 -14 -4 -25 -4 -25 0 0 10 28 34
40 34 6 0 8 5 5 10 -7 12 2 30 16 30 5 0 9 -4 9 -10z m402 -10 c11 -12 11 -12
-4 -1 -21 16 -39 6 -31 -17 3 -9 4 -15 2 -12 -44 52 -43 48 -10 46 17 -1 36
-8 43 -16z m168 15 c0 -3 -2 -5 -5 -5 -3 0 -5 2 -5 5 0 3 2 5 5 5 3 0 5 -2 5
-5z m-507 -32 c-7 -2 -13 -12 -13 -20 0 -9 -3 -14 -6 -10 -10 10 4 37 18 36
10 0 10 -2 1 -6z m351 -25 c-5 -7 -2 -9 7 -6 8 3 25 -3 37 -13 22 -18 22 -18
3 -28 -27 -15 -31 -14 -31 10 0 14 -5 19 -14 16 -17 -7 -30 20 -13 27 18 7 19
7 11 -6z m-47 -5 c-4 -3 -10 -3 -14 0 -3 4 0 7 7 7 7 0 10 -3 7 -7z m-337 -8
c0 -3 -2 -5 -5 -5 -3 0 -5 2 -5 5 0 3 2 5 5 5 3 0 5 -2 5 -5z m348 -30 c-3 -3
-9 2 -12 12 -6 14 -5 15 5 6 7 -7 10 -15 7 -18z m202 11 c0 -2 -7 -7 -16 -10
-8 -3 -12 -2 -9 4 6 10 25 14 25 6z m-520 -11 c0 -3 -2 -5 -5 -5 -3 0 -5 2 -5
5 0 3 2 5 5 5 3 0 5 -2 5 -5z m31 -18 c-10 -9 -11 -8 -5 6 3 10 9 15 12 12 3
-3 0 -11 -7 -18z m209 16 c0 -13 49 -32 56 -22 3 5 10 9 16 9 6 0 3 -10 -8
-22 -10 -13 -12 -17 -4 -10 8 6 19 12 25 12 5 0 2 -7 -8 -15 -11 -7 -25 -11
-33 -8 -8 3 -20 0 -28 -6 -10 -9 -13 -6 -12 11 1 13 -8 31 -19 40 -18 16 -18
17 -2 18 9 0 17 -3 17 -7z m20 2 c0 -3 -2 -5 -5 -5 -3 0 -5 2 -5 5 0 3 2 5 5
5 3 0 5 -2 5 -5z m-133 -32 c-4 -3 -7 0 -7 7 0 7 3 10 7 7 3 -4 3 -10 0 -14z
m223 12 c0 -3 -2 -5 -5 -5 -3 0 -5 2 -5 5 0 3 2 5 5 5 3 0 5 -2 5 -5z m-456
-34 c3 -5 -3 -11 -15 -14 -16 -4 -18 -3 -8 9 13 16 16 17 23 5z m580 0 c6 -10
-22 -37 -29 -29 -8 7 5 38 15 38 5 0 11 -4 14 -9z m-244 -21 c7 -14 7 -20 0
-20 -5 0 -10 6 -10 14 0 8 -8 17 -17 19 -17 4 -17 5 -1 6 10 0 22 -8 28 -19z
m50 5 c0 -3 -2 -5 -5 -5 -3 0 -5 2 -5 5 0 3 2 5 5 5 3 0 5 -2 5 -5z m-200 -80
c0 -3 -2 -5 -5 -5 -3 0 -5 2 -5 5 0 3 2 5 5 5 3 0 5 -2 5 -5z m20 0 c0 -3 -2
-5 -5 -5 -3 0 -5 2 -5 5 0 3 2 5 5 5 3 0 5 -2 5 -5z m220 0 c0 -3 -2 -5 -5 -5
-3 0 -5 2 -5 5 0 3 2 5 5 5 3 0 5 -2 5 -5z m107 -12 c-4 -3 -10 -3 -14 0 -3 4
0 7 7 7 7 0 10 -3 7 -7z m-347 -24 c0 7 5 9 11 5 8 -4 8 -9 0 -17 -17 -17 -13
-26 9 -20 11 3 20 1 20 -4 0 -5 -14 -10 -31 -11 -25 -2 -30 1 -25 13 3 8 1 15
-4 15 -6 0 -10 7 -10 16 0 14 3 14 15 4 11 -9 15 -9 15 -1z m137 -14 c-1 -13
-5 -27 -8 -30 -7 -6 -9 25 -3 43 6 22 15 13 11 -13z m233 -10 c0 -2 -9 -9 -20
-15 -12 -6 -20 -7 -20 -1 0 5 8 12 18 14 9 3 18 5 20 6 1 0 2 -1 2 -4z m-453
-52 c-4 -3 -7 0 -7 7 0 7 3 10 7 7 3 -4 3 -10 0 -14z m33 12 c0 -3 -2 -5 -5
-5 -3 0 -5 2 -5 5 0 3 2 5 5 5 3 0 5 -2 5 -5z m247 -12 c-4 -3 -7 0 -7 7 0 7
3 10 7 7 3 -4 3 -10 0 -14z m43 13 c0 -3 -5 -8 -12 -12 -7 -4 -8 -3 -4 4 7 12
16 16 16 8z m10 -21 c0 -3 -2 -5 -5 -5 -3 0 -5 2 -5 5 0 3 2 5 5 5 3 0 5 -2 5
-5z m80 0 c0 -3 -2 -5 -5 -5 -3 0 -5 2 -5 5 0 3 2 5 5 5 3 0 5 -2 5 -5z m-425
-14 c-3 -5 -1 -12 5 -16 5 -3 10 -11 10 -18 0 -6 -6 -2 -14 8 -13 18 -13 35 0
35 3 0 3 -4 -1 -9z m275 4 c0 -3 -2 -5 -5 -5 -3 0 -5 2 -5 5 0 3 2 5 5 5 3 0
5 -2 5 -5z m40 1 c0 -3 -5 -8 -12 -12 -7 -4 -8 -3 -4 4 7 12 16 16 16 8z m17
-43 c-4 -3 -7 0 -7 7 0 7 3 10 7 7 3 -4 3 -10 0 -14z m53 2 c0 -3 -2 -5 -5 -5
-3 0 -5 2 -5 5 0 3 2 5 5 5 3 0 5 -2 5 -5z"/>
<path d="M490 835 c0 -3 2 -5 5 -5 3 0 5 2 5 5 0 3 -2 5 -5 5 -3 0 -5 -2 -5
-5z"/>
<path d="M605 391 c-3 -5 -2 -12 3 -15 5 -3 9 1 9 9 0 17 -3 19 -12 6z"/>
<path d="M420 305 c0 -3 2 -5 5 -5 3 0 5 2 5 5 0 3 -2 5 -5 5 -3 0 -5 -2 -5
-5z"/>
<path d="M333 953 c4 -3 10 -3 14 0 3 4 0 7 -7 7 -7 0 -10 -3 -7 -7z"/>
<path d="M357 946 c-14 -11 -15 -15 -4 -25 8 -6 18 -7 22 -3 5 4 5 1 1 -6 -5
-7 -11 -11 -14 -8 -3 3 -14 -1 -24 -11 -20 -18 -24 -58 -7 -69 7 -4 10 5 7 27
-2 29 0 33 16 31 10 -2 23 2 28 10 7 9 8 6 4 -11 -4 -18 -2 -21 7 -12 6 6 22
11 35 11 13 0 21 4 18 9 -3 4 5 7 18 6 19 -2 23 1 19 16 -6 20 -23 27 -23 9 0
-7 -6 -7 -20 0 -16 9 -20 8 -20 -5 0 -9 -6 -15 -12 -12 -7 2 -13 14 -13 27 0
28 -14 34 -38 16z m23 -1 c0 -3 -2 -5 -5 -5 -3 0 -5 2 -5 5 0 3 2 5 5 5 3 0 5
-2 5 -5z"/>
<path d="M410 955 c0 -3 2 -5 5 -5 3 0 5 2 5 5 0 3 -2 5 -5 5 -3 0 -5 -2 -5
-5z"/>
<path d="M580 953 c1 -19 19 -35 35 -30 9 4 14 3 10 -3 -3 -6 2 -10 12 -11 16
0 16 -1 -2 -8 -11 -5 -26 -6 -32 -4 -14 5 -18 -23 -5 -31 4 -2 23 9 42 25 26
21 30 29 18 29 -12 0 -18 8 -18 23 0 18 -2 19 -10 7 -9 -13 -10 -13 -10 0 0
13 -1 13 -10 0 -6 -10 -10 -11 -10 -2 0 6 -4 12 -10 12 -5 0 -10 -3 -10 -7z"/>
<path d="M664 943 c3 -20 13 -25 36 -18 12 4 19 12 17 18 -5 16 -55 16 -53 0z"/>
<path d="M746 951 c-4 -5 1 -8 9 -7 21 3 31 16 12 16 -9 0 -18 -4 -21 -9z"/>
<path d="M784 939 c-9 -10 -23 -19 -30 -19 -7 0 -15 -6 -17 -12 -4 -10 -7 -10
-15 0 -6 10 -15 10 -36 2 -27 -10 -28 -30 0 -30 8 0 14 -4 14 -10 0 -5 5 -10
12 -10 9 0 9 3 0 12 -17 17 -15 33 3 18 19 -16 69 -4 62 14 -6 14 10 36 26 36
5 0 3 -8 -4 -17 -12 -14 -12 -16 0 -8 8 4 28 8 45 9 20 1 31 6 31 16 0 23 -70
23 -91 -1z"/>
<path d="M893 935 c-10 -23 -9 -25 12 -25 13 0 27 -5 30 -11 4 -6 1 -9 -6 -8
-8 1 -22 -1 -33 -6 -12 -5 -21 -3 -28 6 -8 11 -8 10 -4 -5 4 -11 0 -23 -8 -30
-9 -7 -13 -21 -10 -37 5 -21 11 -25 35 -23 31 2 39 -10 14 -20 -8 -3 -15 -12
-15 -21 0 -14 3 -14 25 1 23 15 24 15 20 -3 -2 -11 1 -26 7 -34 8 -11 9 -11 4
3 -3 10 1 21 10 26 21 12 13 47 -9 46 -9 -1 -17 5 -17 13 0 8 -4 11 -10 8 -5
-3 -10 1 -10 9 0 9 -7 16 -16 16 -9 0 -14 6 -11 13 2 6 14 11 26 9 13 -2 31 4
42 14 21 19 25 35 8 32 -6 -2 -14 3 -17 11 -3 10 0 12 12 8 10 -4 16 -1 16 8
0 8 -8 12 -20 10 -11 -2 -20 0 -20 6 0 18 -15 9 -27 -16z"/>
<path d="M440 945 c0 -3 2 -5 5 -5 3 0 5 2 5 5 0 3 -2 5 -5 5 -3 0 -5 -2 -5
-5z"/>
<path d="M80 925 c0 -3 2 -5 5 -5 3 0 5 2 5 5 0 3 -2 5 -5 5 -3 0 -5 -2 -5 -5z"/>
<path d="M400 920 c0 -7 3 -10 7 -7 3 4 3 10 0 14 -4 3 -7 0 -7 -7z"/>
<path d="M170 905 c0 -3 2 -5 5 -5 3 0 5 2 5 5 0 3 -2 5 -5 5 -3 0 -5 -2 -5
-5z"/>
<path d="M263 886 c-11 -17 20 -23 38 -8 11 9 19 17 19 17 0 5 -54 -3 -57 -9z"/>
<path d="M800 895 c0 -3 2 -5 5 -5 3 0 5 2 5 5 0 3 -2 5 -5 5 -3 0 -5 -2 -5
-5z"/>
<path d="M823 881 c1 -15 4 -17 14 -9 17 14 16 28 -1 28 -8 0 -14 -9 -13 -19z
m17 4 c0 -3 -2 -5 -5 -5 -3 0 -5 2 -5 5 0 3 2 5 5 5 3 0 5 -2 5 -5z"/>
<path d="M2 854 c-1 -13 2 -24 7 -24 14 0 20 38 7 43 -7 3 -13 -5 -14 -19z"/>
<path d="M565 870 c-3 -5 -1 -10 4 -10 6 0 11 5 11 10 0 6 -2 10 -4 10 -3 0
-8 -4 -11 -10z"/>
<path d="M640 855 c0 -30 6 -32 19 -6 8 14 7 20 -4 25 -11 4 -15 -2 -15 -19z"/>
<path d="M765 871 c-3 -6 -1 -11 5 -11 7 0 10 -6 7 -13 -3 -8 1 -14 8 -14 15
0 14 39 -2 44 -6 2 -14 -1 -18 -6z m25 -6 c0 -3 -2 -5 -5 -5 -3 0 -5 2 -5 5 0
3 2 5 5 5 3 0 5 -2 5 -5z"/>
<path d="M300 865 c0 -3 2 -5 5 -5 3 0 5 2 5 5 0 3 -2 5 -5 5 -3 0 -5 -2 -5
-5z"/>
<path d="M85 850 c3 -5 8 -10 11 -10 3 0 2 5 -1 10 -3 6 -8 10 -11 10 -3 0 -2
-4 1 -10z"/>
<path d="M936 851 c-3 -5 1 -11 9 -14 9 -4 12 -1 8 9 -6 16 -10 17 -17 5z"/>
<path d="M910 845 c0 -3 2 -5 5 -5 3 0 5 2 5 5 0 3 -2 5 -5 5 -3 0 -5 -2 -5
-5z"/>
<path d="M830 795 c0 -3 2 -5 5 -5 3 0 5 2 5 5 0 3 -2 5 -5 5 -3 0 -5 -2 -5
-5z"/>
<path d="M230 785 c0 -3 2 -5 5 -5 3 0 5 2 5 5 0 3 -2 5 -5 5 -3 0 -5 -2 -5
-5z"/>
<path d="M350 760 c0 -5 5 -10 11 -10 5 0 7 5 4 10 -3 6 -8 10 -11 10 -2 0 -4
-4 -4 -10z"/>
<path d="M98 726 c-17 -29 -21 -66 -8 -66 6 0 8 -6 4 -12 -5 -9 -2 -9 9 1 15
12 17 10 17 -15 0 -22 3 -25 10 -14 10 16 50 23 50 9 0 -14 -42 -38 -56 -32
-8 3 -20 0 -28 -6 -11 -9 -15 -8 -20 5 -4 9 -4 19 -1 22 3 3 5 -1 5 -8 0 -7 3
-11 6 -8 3 4 -1 17 -10 30 -15 23 -16 26 -16 51 0 6 -11 -1 -25 -17 -30 -35
-30 -35 -2 -29 21 4 21 4 4 -10 -12 -10 -15 -17 -7 -22 8 -5 6 -13 -7 -27 -9
-11 -13 -19 -8 -18 20 4 48 0 42 -7 -4 -3 -2 -12 4 -20 13 -15 49 -18 49 -4 0
6 -9 8 -21 6 -13 -3 -19 0 -16 8 2 7 16 13 31 15 20 3 26 0 21 -9 -5 -8 -4
-10 4 -5 6 4 9 11 6 16 -9 14 44 49 65 43 11 -3 27 1 36 8 14 12 14 14 -3 20
-10 3 -19 11 -19 18 -1 6 -2 16 -3 22 0 6 -7 9 -15 6 -16 -6 -60 40 -46 48 17
11 11 20 -15 21 -17 1 -30 -6 -37 -20z m19 -13 c-4 -3 -7 0 -7 7 0 7 3 10 7 7
3 -4 3 -10 0 -14z m20 -20 c-4 -3 -10 -3 -14 0 -3 4 0 7 7 7 7 0 10 -3 7 -7z
m18 -23 c3 -5 4 -10 1 -10 -3 0 -8 5 -11 10 -3 6 -4 10 -1 10 3 0 8 -4 11 -10z
m-95 -75 c0 -3 -2 -5 -5 -5 -3 0 -5 2 -5 5 0 3 2 5 5 5 3 0 5 -2 5 -5z"/>
<path d="M12 684 c-7 -8 -12 -19 -10 -25 2 -6 12 -2 21 9 10 11 15 22 10 25
-4 3 -14 -2 -21 -9z"/>
<path d="M520 695 c0 -3 2 -5 5 -5 3 0 5 2 5 5 0 3 -2 5 -5 5 -3 0 -5 -2 -5
-5z"/>
<path d="M938 683 c-10 -2 -18 -13 -18 -24 0 -29 35 -20 36 9 1 12 1 21 0 21
0 -1 -9 -3 -18 -6z"/>
<path d="M100 625 c0 -3 2 -5 5 -5 3 0 5 2 5 5 0 3 -2 5 -5 5 -3 0 -5 -2 -5
-5z"/>
<path d="M144 618 c-4 -7 -3 -8 4 -4 7 4 12 9 12 12 0 8 -9 4 -16 -8z"/>
<path d="M5 590 c4 -6 11 -8 16 -5 14 9 11 15 -7 15 -8 0 -12 -5 -9 -10z"/>
<path d="M325 590 c3 -5 8 -10 11 -10 3 0 2 5 -1 10 -3 6 -8 10 -11 10 -3 0
-2 -4 1 -10z"/>
<path d="M610 595 c0 -3 2 -5 5 -5 3 0 5 2 5 5 0 3 -2 5 -5 5 -3 0 -5 -2 -5
-5z"/>
<path d="M695 590 c-4 -6 -10 -8 -15 -5 -5 3 -12 0 -15 -6 -4 -6 2 -13 14 -16
12 -3 21 -10 21 -16 0 -7 4 -7 12 1 7 7 23 12 37 12 13 0 22 -3 18 -6 -3 -4 1
-13 9 -21 13 -13 11 -19 -15 -45 -24 -24 -29 -37 -24 -59 3 -18 1 -29 -6 -29
-6 0 -11 -16 -11 -36 0 -31 2 -35 15 -24 12 10 16 9 21 -4 3 -9 15 -16 27 -16
11 0 17 -3 14 -7 -8 -7 38 -33 59 -33 21 0 28 22 11 35 -10 7 -17 20 -17 30 0
11 -5 15 -16 11 -11 -4 -14 -1 -12 11 2 9 9 18 17 21 8 3 11 0 7 -7 -4 -6 -4
-10 1 -9 4 1 18 -4 30 -12 16 -11 19 -17 11 -27 -7 -9 -7 -13 0 -13 18 0 24
20 12 35 -10 12 -10 15 0 15 7 0 10 8 7 20 -3 11 -1 20 5 20 5 0 6 5 3 10 -4
6 -11 8 -16 5 -5 -4 -9 -2 -9 3 0 5 9 12 20 15 11 3 18 0 17 -6 -1 -6 6 -13
16 -15 26 -5 24 48 -3 55 -11 3 -20 10 -20 15 0 5 -4 6 -10 3 -5 -3 -10 2 -10
13 0 10 -6 19 -12 19 -7 0 -20 2 -28 4 -11 3 -14 -3 -12 -20 3 -31 3 -30 35
-33 23 -2 24 -4 13 -18 -15 -17 -30 -51 -28 -62 3 -12 -16 -10 -23 2 -4 6 -11
8 -16 5 -5 -4 -9 -1 -9 4 0 6 -7 11 -15 11 -8 0 -15 5 -15 10 0 14 27 13 32
-1 3 -8 13 -9 28 -4 22 7 23 8 6 21 -10 7 -25 10 -33 7 -12 -5 -14 -1 -8 16 4
14 2 23 -8 26 -16 7 -19 35 -4 35 6 0 3 8 -7 19 -9 10 -14 25 -10 34 4 12 0
15 -19 13 -13 -2 -30 -7 -37 -11 -9 -5 -11 -4 -6 3 4 7 1 12 -8 12 -8 0 -18
-5 -21 -10z m20 -20 c3 -5 1 -10 -4 -10 -6 0 -11 5 -11 10 0 6 2 10 4 10 3 0
8 -4 11 -10z m75 -25 c0 -3 -2 -5 -5 -5 -3 0 -5 2 -5 5 0 3 2 5 5 5 3 0 5 -2
5 -5z m-10 -69 c0 -3 -4 -8 -10 -11 -5 -3 -10 -1 -10 4 0 6 5 11 10 11 6 0 10
-2 10 -4z m-9 -41 c5 4 9 1 9 -4 0 -6 -4 -11 -8 -11 -12 0 -32 22 -32 35 0 5
5 2 11 -8 6 -9 14 -15 20 -12z m19 20 c0 -3 -2 -5 -5 -5 -3 0 -5 2 -5 5 0 3 2
5 5 5 3 0 5 -2 5 -5z m50 -10 c0 -3 -2 -5 -5 -5 -3 0 -5 2 -5 5 0 3 2 5 5 5 3
0 5 -2 5 -5z m50 -35 c0 -5 -5 -10 -11 -10 -5 0 -7 5 -4 10 3 6 8 10 11 10 2
0 4 -4 4 -10z m-133 -17 c-4 -3 -7 0 -7 7 0 7 3 10 7 7 3 -4 3 -10 0 -14z m43
13 c0 -3 -5 -8 -12 -12 -7 -4 -8 -3 -4 4 7 12 16 16 16 8z m7 -33 c-4 -3 -7 0
-7 7 0 7 3 10 7 7 3 -4 3 -10 0 -14z m83 12 c0 -3 -2 -5 -5 -5 -3 0 -5 2 -5 5
0 3 2 5 5 5 3 0 5 -2 5 -5z m-150 -10 c0 -3 -2 -5 -5 -5 -3 0 -5 2 -5 5 0 3 2
5 5 5 3 0 5 -2 5 -5z m35 -5 c3 -5 4 -10 1 -10 -3 0 -8 5 -11 10 -3 6 -4 10
-1 10 3 0 8 -4 11 -10z m22 -37 c-4 -3 -7 0 -7 7 0 7 3 10 7 7 3 -4 3 -10 0
-14z m38 -13 c-3 -5 -12 -10 -18 -10 -7 0 -6 4 3 10 19 12 23 12 15 0z"/>
<path d="M930 595 c0 -3 2 -5 5 -5 3 0 5 2 5 5 0 3 -2 5 -5 5 -3 0 -5 -2 -5
-5z"/>
<path d="M170 585 c0 -3 2 -5 5 -5 3 0 5 2 5 5 0 3 -2 5 -5 5 -3 0 -5 -2 -5
-5z"/>
<path d="M300 569 c0 -5 5 -7 10 -4 6 3 10 8 10 11 0 2 -4 4 -10 4 -5 0 -10
-5 -10 -11z"/>
<path d="M820 572 c0 -10 38 -13 44 -3 3 3 -6 8 -20 9 -13 1 -24 -2 -24 -6z"/>
<path d="M375 550 c-3 -5 1 -10 9 -10 9 0 16 -4 16 -10 0 -5 5 -10 10 -10 6 0
5 8 -2 20 -14 22 -24 25 -33 10z"/>
<path d="M7 543 c-4 -3 -7 -13 -7 -22 0 -11 3 -12 11 -4 6 6 19 9 28 5 14 -5
14 -4 -1 11 -18 19 -22 20 -31 10z"/>
<path d="M820 545 c0 -3 2 -5 5 -5 3 0 5 2 5 5 0 3 -2 5 -5 5 -3 0 -5 -2 -5
-5z"/>
<path d="M925 530 c-13 -6 -15 -9 -5 -9 8 0 22 4 30 9 18 12 2 12 -25 0z"/>
<path d="M813 513 c4 -3 10 -3 14 0 3 4 0 7 -7 7 -7 0 -10 -3 -7 -7z"/>
<path d="M184 498 c-4 -7 -3 -8 4 -4 12 7 16 16 8 16 -3 0 -8 -5 -12 -12z"/>
<path d="M90 495 c0 -3 2 -5 5 -5 3 0 5 2 5 5 0 3 -2 5 -5 5 -3 0 -5 -2 -5 -5z"/>
<path d="M730 495 c0 -3 2 -5 5 -5 3 0 5 2 5 5 0 3 -2 5 -5 5 -3 0 -5 -2 -5
-5z"/>
<path d="M410 485 c0 -3 2 -5 5 -5 3 0 5 2 5 5 0 3 -2 5 -5 5 -3 0 -5 -2 -5
-5z"/>
<path d="M830 475 c0 -3 2 -5 5 -5 3 0 5 2 5 5 0 3 -2 5 -5 5 -3 0 -5 -2 -5
-5z"/>
<path d="M870 465 c0 -3 2 -5 5 -5 3 0 5 2 5 5 0 3 -2 5 -5 5 -3 0 -5 -2 -5
-5z"/>
<path d="M923 388 c0 -13 1 -17 4 -10 3 6 9 10 13 7 5 -3 12 0 16 6 4 8 3 9
-4 5 -7 -4 -12 -2 -12 3 0 22 -16 10 -17 -11z"/>
<path d="M320 385 c0 -3 2 -5 5 -5 3 0 5 2 5 5 0 3 -2 5 -5 5 -3 0 -5 -2 -5
-5z"/>
<path d="M216 357 c3 -10 9 -15 12 -12 3 3 0 11 -7 18 -10 9 -11 8 -5 -6z"/>
<path d="M940 364 c-9 -3 -23 -22 -33 -44 -9 -22 -21 -40 -26 -40 -5 0 -11 -7
-14 -14 -4 -11 -1 -13 11 -9 9 4 19 10 22 13 3 4 15 10 27 14 17 5 21 3 19
-11 -2 -10 -9 -19 -17 -19 -8 -1 -18 -3 -24 -4 -5 -1 -14 -2 -18 -1 -5 1 -6
-3 -3 -8 4 -5 0 -12 -6 -14 -7 -3 1 -4 19 -3 42 3 60 20 61 55 0 24 -3 29 -19
26 -25 -5 -25 11 0 18 13 3 19 13 18 26 -1 12 -1 20 -2 20 0 -1 -7 -3 -15 -5z"/>
<path d="M233 323 c4 -3 10 -3 14 0 3 4 0 7 -7 7 -7 0 -10 -3 -7 -7z"/>
<path d="M760 300 c0 -7 3 -10 7 -7 3 4 3 10 0 14 -4 3 -7 0 -7 -7z"/>
<path d="M227 266 c-4 -10 0 -12 14 -9 22 6 26 23 5 23 -8 0 -16 -6 -19 -14z"/>
<path d="M160 265 c0 -3 2 -5 5 -5 3 0 5 2 5 5 0 3 -2 5 -5 5 -3 0 -5 -2 -5
-5z"/>
<path d="M185 262 c3 -3 0 -11 -6 -18 -7 -8 -7 -14 1 -19 6 -4 9 -1 8 7 -2 7
2 12 8 11 6 -1 11 4 11 11 0 7 -6 13 -14 13 -7 0 -11 -3 -8 -5z"/>
<path d="M800 265 c0 -3 2 -5 5 -5 3 0 5 2 5 5 0 3 -2 5 -5 5 -3 0 -5 -2 -5
-5z"/>
<path d="M825 262 c3 -3 0 -11 -6 -18 -7 -8 -7 -14 1 -19 6 -4 9 -1 8 7 -2 7
2 12 8 11 6 -1 11 4 11 11 0 7 -6 13 -14 13 -7 0 -11 -3 -8 -5z"/>
<path d="M788 228 c0 -7 -2 -18 -2 -25 -1 -7 -10 -19 -21 -27 -17 -13 -17 -15
-4 -16 9 0 19 -7 23 -15 4 -12 2 -13 -13 -5 -14 7 -22 6 -32 -6 -7 -8 -8 -14
-3 -13 26 5 44 -3 43 -18 0 -11 -3 -13 -6 -5 -13 32 -43 1 -47 -48 -1 -9 -9
-14 -19 -12 -19 3 -47 -14 -47 -29 0 -5 9 -9 21 -9 12 0 17 4 14 11 -5 7 4 8
26 4 104 -21 143 -18 133 10 -4 9 -12 14 -19 11 -7 -2 -18 1 -24 7 -14 14 -15
30 -1 22 5 -3 18 -1 27 4 10 6 15 11 10 11 -4 0 0 11 9 25 10 15 12 25 5 25
-6 0 -11 8 -11 17 0 13 3 14 12 5 9 -9 14 -7 24 6 17 22 18 49 2 49 -7 0 -20
2 -28 4 -13 4 -20 -15 -21 -62 0 -9 -6 -16 -13 -16 -8 0 -11 8 -8 19 2 10 -2
20 -11 24 -10 4 -14 15 -10 35 2 16 2 29 -1 29 -3 0 -7 -6 -8 -12z m92 -43 c0
-3 -2 -5 -5 -5 -3 0 -5 2 -5 5 0 3 2 5 5 5 3 0 5 -2 5 -5z m-120 -50 c0 -3 -2
-5 -5 -5 -3 0 -5 2 -5 5 0 3 2 5 5 5 3 0 5 -2 5 -5z m61 -32 c13 -15 12 -15
-8 -4 -24 12 -29 21 -14 21 5 0 15 -7 22 -17z m-61 -18 c0 -3 -2 -5 -5 -5 -3
0 -5 2 -5 5 0 3 2 5 5 5 3 0 5 -2 5 -5z m40 0 c0 -3 -2 -5 -5 -5 -3 0 -5 2 -5
5 0 3 2 5 5 5 3 0 5 -2 5 -5z m-13 -32 c-4 -3 -10 -3 -14 0 -3 4 0 7 7 7 7 0
10 -3 7 -7z m10 -40 c-4 -3 -7 0 -7 7 0 7 3 10 7 7 3 -4 3 -10 0 -14z m53 2
c0 -3 -2 -5 -5 -5 -3 0 -5 2 -5 5 0 3 2 5 5 5 3 0 5 -2 5 -5z"/>
<path d="M5 217 c-4 -10 -5 -21 -1 -24 10 -10 18 4 13 24 -4 17 -4 17 -12 0z"/>
<path d="M500 225 c0 -3 2 -5 5 -5 3 0 5 2 5 5 0 3 -2 5 -5 5 -3 0 -5 -2 -5
-5z"/>
<path d="M620 213 c-25 -9 -28 -12 -8 -8 16 3 28 0 31 -8 6 -16 20 -3 15 16
-3 12 -8 12 -38 0z"/>
<path d="M80 205 c0 -3 2 -5 5 -5 3 0 5 2 5 5 0 3 -2 5 -5 5 -3 0 -5 -2 -5 -5z"/>
<path d="M682 205 c4 -5 3 -14 -3 -21 -9 -10 -7 -15 5 -20 9 -3 13 -10 10 -15
-3 -5 -2 -9 3 -9 4 0 8 -13 8 -30 0 -29 -10 -39 -23 -24 -4 4 -1 4 6 0 6 -4
12 -2 12 3 0 6 -5 11 -11 11 -5 0 -8 4 -4 9 3 5 1 12 -5 16 -9 6 -14 -8 -11
-28 1 -5 -3 -6 -8 -3 -5 3 -15 -1 -22 -10 -11 -14 -10 -15 7 -12 12 2 19 -3
19 -12 0 -10 -12 -16 -32 -18 -25 -2 -33 -8 -33 -23 0 -30 26 -22 71 21 23 22
46 40 51 40 5 0 6 5 2 12 -4 7 -7 32 -7 55 1 35 -3 45 -20 54 -12 7 -19 8 -15
4z"/>
<path d="M720 205 c0 -3 2 -5 5 -5 3 0 5 2 5 5 0 3 -2 5 -5 5 -3 0 -5 -2 -5
-5z"/>
<path d="M930 205 c0 -3 2 -5 5 -5 3 0 5 2 5 5 0 3 -2 5 -5 5 -3 0 -5 -2 -5
-5z"/>
<path d="M170 196 c0 -2 7 -7 16 -10 8 -3 12 -2 9 4 -6 10 -25 14 -25 6z"/>
<path d="M280 195 c0 -3 2 -5 5 -5 3 0 5 2 5 5 0 3 -2 5 -5 5 -3 0 -5 -2 -5
-5z"/>
<path d="M810 189 c0 -5 5 -7 10 -4 6 3 10 8 10 11 0 2 -4 4 -10 4 -5 0 -10
-5 -10 -11z"/>
<path d="M950 195 c0 -3 2 -5 5 -5 3 0 5 2 5 5 0 3 -2 5 -5 5 -3 0 -5 -2 -5
-5z"/>
<path d="M90 175 c0 -3 2 -5 5 -5 3 0 5 2 5 5 0 3 -2 5 -5 5 -3 0 -5 -2 -5 -5z"/>
<path d="M730 175 c0 -3 2 -5 5 -5 3 0 5 2 5 5 0 3 -2 5 -5 5 -3 0 -5 -2 -5
-5z"/>
<path d="M910 175 c0 -3 2 -5 5 -5 3 0 5 2 5 5 0 3 -2 5 -5 5 -3 0 -5 -2 -5
-5z"/>
<path d="M510 155 c0 -3 2 -5 5 -5 3 0 5 2 5 5 0 3 -2 5 -5 5 -3 0 -5 -2 -5
-5z"/>
<path d="M893 153 c4 -3 2 -12 -5 -20 -15 -18 -4 -27 19 -14 15 8 20 7 20 -5
0 -8 -6 -13 -13 -10 -8 3 -16 1 -20 -5 -11 -18 0 -18 34 -2 46 22 41 56 -7 60
-19 2 -31 0 -28 -4z"/>
<path d="M550 145 c0 -3 2 -5 5 -5 3 0 5 2 5 5 0 3 -2 5 -5 5 -3 0 -5 -2 -5
-5z"/>
<path d="M862 78 c2 -40 34 -67 34 -29 0 11 -4 17 -8 15 -7 -5 -12 10 -9 29 0
4 -3 7 -8 7 -6 0 -9 -10 -9 -22z"/>
<path d="M223 66 c-4 -5 4 -17 16 -27 20 -17 20 -18 4 -28 -16 -9 -16 -10 5
-11 26 0 30 25 5 39 -15 9 -16 10 -2 11 9 0 16 6 16 13 0 15 -36 17 -44 3z"/>
<path d="M950 75 c0 -3 2 -5 5 -5 3 0 5 2 5 5 0 3 -2 5 -5 5 -3 0 -5 -2 -5 -5z"/>
<path d="M285 60 c3 -5 8 -10 11 -10 3 0 2 5 -1 10 -3 6 -8 10 -11 10 -3 0 -2
-4 1 -10z"/>
<path d="M925 60 c3 -5 8 -10 11 -10 3 0 2 5 -1 10 -3 6 -8 10 -11 10 -3 0 -2
-4 1 -10z"/>
<path d="M335 50 c-3 -5 -17 -10 -31 -10 -17 0 -24 -5 -24 -20 0 -17 7 -20 50
-20 28 0 50 3 51 8 0 4 2 15 4 25 4 20 -13 23 -21 3 -3 -8 -13 -17 -22 -21
-14 -5 -13 -3 2 14 10 11 13 21 7 25 -5 4 -12 2 -16 -4z"/>
<path d="M520 55 c0 -3 2 -5 5 -5 3 0 5 2 5 5 0 3 -2 5 -5 5 -3 0 -5 -2 -5 -5z"/>
<path d="M840 55 c0 -3 2 -5 5 -5 3 0 5 2 5 5 0 3 -2 5 -5 5 -3 0 -5 -2 -5 -5z"/>
<path d="M9 39 c-20 -12 -1 -39 27 -39 15 0 24 3 21 7 -4 3 1 11 10 18 14 11
12 13 -15 17 -17 2 -37 1 -43 -3z m12 -22 c-10 -9 -11 -8 -5 6 3 10 9 15 12
12 3 -3 0 -11 -7 -18z"/>
<path d="M920 20 c0 -13 7 -20 20 -20 13 0 20 7 20 20 0 13 -7 20 -20 20 -13
0 -20 -7 -20 -20z"/>
<path d="M875 10 c-3 -5 3 -10 14 -10 12 0 21 5 21 10 0 6 -6 10 -14 10 -8 0
-18 -4 -21 -10z"/>
</g>
<g transform="translate(0.000000,96.000000) scale(0.100000,-0.100000)"
fill="#69b954" stroke="none">
<path d="M44 949 c-10 -17 13 -36 27 -22 12 12 4 33 -11 33 -5 0 -12 -5 -16
-11z m16 -4 c0 -3 -2 -5 -5 -5 -3 0 -5 2 -5 5 0 3 2 5 5 5 3 0 5 -2 5 -5z"/>
<path d="M185 951 c-10 -17 4 -31 31 -31 19 0 25 5 22 18 -4 19 -43 29 -53 13z"/>
<path d="M364 949 c-10 -17 13 -36 27 -22 12 12 4 33 -11 33 -5 0 -12 -5 -16
-11z m16 -4 c0 -3 -2 -5 -5 -5 -3 0 -5 2 -5 5 0 3 2 5 5 5 3 0 5 -2 5 -5z"/>
<path d="M505 950 c-9 -15 3 -30 25 -30 18 0 34 23 23 34 -10 10 -41 7 -48 -4z"/>
<path d="M684 949 c-3 -6 -2 -15 2 -19 12 -12 38 5 30 19 -9 14 -23 14 -32 0z"/>
<path d="M825 950 c-4 -7 -3 -16 3 -22 14 -14 47 -6 47 12 0 18 -40 26 -50 10z"/>
<path d="M740 945 c0 -3 2 -5 5 -5 3 0 5 2 5 5 0 3 -2 5 -5 5 -3 0 -5 -2 -5
-5z"/>
<path d="M97 909 c-6 -21 14 -36 33 -24 15 10 12 23 -9 34 -15 9 -20 7 -24
-10z m23 -4 c0 -3 -2 -5 -5 -5 -3 0 -5 2 -5 5 0 3 2 5 5 5 3 0 5 -2 5 -5z"/>
<path d="M417 909 c-6 -21 14 -36 33 -24 15 10 12 23 -9 34 -15 9 -20 7 -24
-10z m33 -14 c0 -3 -2 -5 -5 -5 -3 0 -5 2 -5 5 0 3 2 5 5 5 3 0 5 -2 5 -5z"/>
<path d="M737 906 c-4 -9 -2 -18 3 -21 13 -8 41 6 37 19 -6 17 -34 19 -40 2z"/>
<path d="M170 905 c0 -3 2 -5 5 -5 3 0 5 2 5 5 0 3 -2 5 -5 5 -3 0 -5 -2 -5
-5z"/>
<path d="M475 900 c3 -5 8 -10 11 -10 3 0 2 5 -1 10 -3 6 -8 10 -11 10 -3 0
-2 -4 1 -10z"/>
<path d="M266 893 c-10 -10 -7 -21 8 -26 8 -3 17 0 20 8 5 14 -17 28 -28 18z"/>
<path d="M592 886 c1 -10 8 -17 13 -17 15 1 12 24 -3 29 -9 3 -13 -2 -10 -12z"/>
<path d="M640 895 c0 -3 2 -5 5 -5 3 0 5 2 5 5 0 3 -2 5 -5 5 -3 0 -5 -2 -5
-5z"/>
<path d="M800 895 c0 -3 2 -5 5 -5 3 0 5 2 5 5 0 3 -2 5 -5 5 -3 0 -5 -2 -5
-5z"/>
<path d="M904 889 c-8 -14 11 -33 25 -25 6 4 11 11 11 16 0 13 -29 20 -36 9z"/>
<path d="M330 885 c0 -3 2 -5 5 -5 3 0 5 2 5 5 0 3 -2 5 -5 5 -3 0 -5 -2 -5
-5z"/>
<path d="M50 865 c0 -3 2 -5 5 -5 3 0 5 2 5 5 0 3 -2 5 -5 5 -3 0 -5 -2 -5 -5z"/>
<path d="M160 865 c0 -3 2 -5 5 -5 3 0 5 2 5 5 0 3 -2 5 -5 5 -3 0 -5 -2 -5
-5z"/>
<path d="M480 865 c0 -3 2 -5 5 -5 3 0 5 2 5 5 0 3 -2 5 -5 5 -3 0 -5 -2 -5
-5z"/>
<path d="M204 849 c-3 -6 -1 -16 5 -22 9 -9 14 -8 21 3 9 15 4 30 -10 30 -5 0
-12 -5 -16 -11z"/>
<path d="M520 850 c-10 -6 -8 -10 7 -19 19 -10 33 -6 33 10 0 12 -26 18 -40 9z"/>
<path d="M844 849 c-8 -14 11 -33 25 -25 11 7 4 36 -9 36 -5 0 -12 -5 -16 -11z"/>
<path d="M434 838 c-4 -7 -3 -8 4 -4 12 7 16 16 8 16 -3 0 -8 -5 -12 -12z"/>
<path d="M42 823 c2 -10 13 -18 25 -19 19 -1 21 2 12 17 -13 24 -42 25 -37 2z"/>
<path d="M150 835 c0 -3 2 -5 5 -5 3 0 5 2 5 5 0 3 -2 5 -5 5 -3 0 -5 -2 -5
-5z"/>
<path d="M367 834 c-14 -14 -7 -35 11 -32 9 2 17 10 17 17 0 16 -18 25 -28 15z"/>
<path d="M460 835 c0 -3 2 -5 5 -5 3 0 5 2 5 5 0 3 -2 5 -5 5 -3 0 -5 -2 -5
-5z"/>
<path d="M680 821 c-10 -19 -8 -21 15 -21 19 0 26 5 23 17 -5 25 -25 27 -38 4z"/>
<path d="M790 835 c0 -3 2 -5 5 -5 3 0 5 2 5 5 0 3 -2 5 -5 5 -3 0 -5 -2 -5
-5z"/>
<path d="M146 812 c-2 -4 2 -15 9 -25 11 -16 13 -16 19 -1 10 25 -14 48 -28
26z"/>
<path d="M466 811 c-4 -6 3 -20 14 -31 l21 -21 -3 27 c-3 29 -22 43 -32 25z"/>
<path d="M791 810 c-13 -7 -13 -11 -1 -25 12 -15 14 -15 23 0 11 21 -3 37 -22
25z"/>
<path d="M287 792 c-10 -15 0 -47 14 -47 17 0 19 47 2 52 -6 2 -14 0 -16 -5z"/>
<path d="M604 786 c-9 -24 3 -47 21 -40 18 7 16 45 -2 52 -7 2 -16 -3 -19 -12z"/>
<path d="M850 795 c0 -3 2 -5 5 -5 3 0 5 2 5 5 0 3 -2 5 -5 5 -3 0 -5 -2 -5
-5z"/>
<path d="M927 792 c-8 -11 -2 -48 6 -44 4 1 12 2 18 2 14 0 7 42 -8 47 -6 2
-14 0 -16 -5z"/>
<path d="M230 785 c0 -3 2 -5 5 -5 3 0 5 2 5 5 0 3 -2 5 -5 5 -3 0 -5 -2 -5
-5z"/>
<path d="M520 785 c0 -3 2 -5 5 -5 3 0 5 2 5 5 0 3 -2 5 -5 5 -3 0 -5 -2 -5
-5z"/>
<path d="M540 785 c0 -3 2 -5 5 -5 3 0 5 2 5 5 0 3 -2 5 -5 5 -3 0 -5 -2 -5
-5z"/>
<path d="M560 775 c0 -3 2 -5 5 -5 3 0 5 2 5 5 0 3 -2 5 -5 5 -3 0 -5 -2 -5
-5z"/>
<path d="M220 765 c0 -3 2 -5 5 -5 3 0 5 2 5 5 0 3 -2 5 -5 5 -3 0 -5 -2 -5
-5z"/>
<path d="M540 765 c0 -3 2 -5 5 -5 3 0 5 2 5 5 0 3 -2 5 -5 5 -3 0 -5 -2 -5
-5z"/>
<path d="M20 760 c-7 -31 -6 -39 6 -44 20 -8 25 9 9 30 -8 10 -15 17 -15 14z"/>
<path d="M649 744 c-12 -15 -12 -17 0 -9 11 6 13 4 8 -7 -4 -11 0 -15 11 -13
9 1 16 9 14 16 -6 25 -19 30 -33 13z"/>
<path d="M332 741 c-8 -4 -5 -11 8 -19 16 -10 20 -10 20 2 0 19 -13 27 -28 17z"/>
<path d="M484 727 c1 -12 7 -22 15 -22 22 0 23 19 2 32 -16 10 -18 8 -17 -10z"/>
<path d="M170 730 c-12 -7 -12 -12 -2 -22 9 -9 15 -9 24 0 16 16 -2 34 -22 22z
m20 -5 c0 -3 -2 -5 -5 -5 -3 0 -5 2 -5 5 0 3 2 5 5 5 3 0 5 -2 5 -5z"/>
<path d="M807 727 c-3 -9 -2 -19 3 -22 12 -7 30 2 30 16 0 6 -4 8 -9 5 -5 -4
-11 -1 -13 6 -3 8 -7 6 -11 -5z"/>
<path d="M89 718 c-7 -23 -4 -39 7 -49 11 -9 15 -8 20 5 7 19 -2 46 -16 46 -5
0 -10 -1 -11 -2z"/>
<path d="M224 709 c-10 -17 13 -36 27 -22 12 12 4 33 -11 33 -5 0 -12 -5 -16
-11z"/>
<path d="M407 714 c-10 -10 -9 -26 2 -20 5 3 8 0 7 -7 0 -6 4 -13 9 -14 13 -4
13 39 -1 44 -5 2 -13 0 -17 -3z"/>
<path d="M542 703 c4 -22 24 -28 32 -8 3 9 2 13 -4 10 -6 -3 -10 -1 -10 4 0 6
-5 11 -11 11 -6 0 -9 -8 -7 -17z"/>
<path d="M728 715 c-10 -11 4 -45 19 -45 9 0 13 8 11 22 -3 21 -19 34 -30 23z"/>
<path d="M864 709 c-3 -6 -1 -16 5 -22 9 -9 14 -8 21 3 9 15 4 30 -10 30 -5 0
-12 -5 -16 -11z"/>
<path d="M320 705 c0 -3 2 -5 5 -5 3 0 5 2 5 5 0 3 -2 5 -5 5 -3 0 -5 -2 -5
-5z"/>
<path d="M610 700 c0 -7 3 -10 7 -7 3 4 3 10 0 14 -4 3 -7 0 -7 -7z"/>
<path d="M280 695 c0 -3 2 -5 5 -5 3 0 5 2 5 5 0 3 -2 5 -5 5 -3 0 -5 -2 -5
-5z"/>
<path d="M300 695 c0 -3 2 -5 5 -5 3 0 5 2 5 5 0 3 -2 5 -5 5 -3 0 -5 -2 -5
-5z"/>
<path d="M630 695 c0 -3 2 -5 5 -5 3 0 5 2 5 5 0 3 -2 5 -5 5 -3 0 -5 -2 -5
-5z"/>
<path d="M938 683 c-10 -2 -18 -13 -18 -24 0 -29 35 -20 36 9 1 12 1 21 0 21
0 -1 -9 -3 -18 -6z"/>
<path d="M280 660 c0 -13 7 -20 20 -20 13 0 20 7 20 20 0 13 -7 20 -20 20 -13
0 -20 -7 -20 -20z"/>
<path d="M600 660 c0 -13 7 -20 20 -20 13 0 20 7 20 20 0 13 -7 20 -20 20 -13
0 -20 -7 -20 -20z"/>
<path d="M44 629 c-3 -6 -1 -16 5 -22 9 -9 14 -8 21 3 9 15 4 30 -10 30 -5 0
-12 -5 -16 -11z"/>
<path d="M182 623 c4 -21 36 -29 51 -14 9 9 8 14 -3 21 -25 16 -52 12 -48 -7z"/>
<path d="M364 629 c-10 -17 13 -36 27 -22 12 12 4 33 -11 33 -5 0 -12 -5 -16
-11z"/>
<path d="M505 630 c-4 -7 -3 -16 3 -22 14 -14 47 -6 47 12 0 18 -40 26 -50 10z"/>
<path d="M684 629 c-3 -6 -2 -15 2 -19 12 -12 38 5 30 19 -9 14 -23 14 -32 0z"/>
<path d="M825 630 c-4 -7 -3 -16 3 -22 14 -14 47 -6 47 12 0 18 -40 26 -50 10z"/>
<path d="M100 625 c0 -3 2 -5 5 -5 3 0 5 2 5 5 0 3 -2 5 -5 5 -3 0 -5 -2 -5
-5z"/>
<path d="M420 625 c0 -3 2 -5 5 -5 3 0 5 2 5 5 0 3 -2 5 -5 5 -3 0 -5 -2 -5
-5z"/>
<path d="M740 625 c0 -3 2 -5 5 -5 3 0 5 2 5 5 0 3 -2 5 -5 5 -3 0 -5 -2 -5
-5z"/>
<path d="M95 590 c-4 -7 -3 -16 3 -22 14 -14 45 -2 40 15 -6 16 -34 21 -43 7z"/>
<path d="M416 585 c-3 -9 1 -18 10 -22 19 -7 39 11 30 26 -10 16 -33 13 -40
-4z"/>
<path d="M740 590 c-11 -7 -12 -12 -3 -21 14 -14 46 -4 41 13 -6 16 -20 19
-38 8z"/>
<path d="M800 595 c0 -3 2 -5 5 -5 3 0 5 2 5 5 0 3 -2 5 -5 5 -3 0 -5 -2 -5
-5z"/>
<path d="M170 585 c0 -3 2 -5 5 -5 3 0 5 2 5 5 0 3 -2 5 -5 5 -3 0 -5 -2 -5
-5z"/>
<path d="M484 578 c-4 -7 -3 -8 4 -4 12 7 16 16 8 16 -3 0 -8 -5 -12 -12z"/>
<path d="M264 569 c-8 -14 11 -33 25 -25 11 7 4 36 -9 36 -5 0 -12 -5 -16 -11z"/>
<path d="M584 569 c-8 -14 18 -31 30 -19 9 9 0 30 -14 30 -5 0 -12 -5 -16 -11z"/>
<path d="M904 569 c-8 -14 11 -33 25 -25 6 4 11 11 11 16 0 13 -29 20 -36 9z"/>
<path d="M10 565 c0 -3 2 -5 5 -5 3 0 5 2 5 5 0 3 -2 5 -5 5 -3 0 -5 -2 -5 -5z"/>
<path d="M330 565 c0 -3 2 -5 5 -5 3 0 5 2 5 5 0 3 -2 5 -5 5 -3 0 -5 -2 -5
-5z"/>
<path d="M50 545 c0 -3 2 -5 5 -5 3 0 5 2 5 5 0 3 -2 5 -5 5 -3 0 -5 -2 -5 -5z"/>
<path d="M370 545 c0 -3 2 -5 5 -5 3 0 5 2 5 5 0 3 -2 5 -5 5 -3 0 -5 -2 -5
-5z"/>
<path d="M480 545 c0 -3 2 -5 5 -5 3 0 5 2 5 5 0 3 -2 5 -5 5 -3 0 -5 -2 -5
-5z"/>
<path d="M100 535 c0 -3 2 -5 5 -5 3 0 5 2 5 5 0 3 -2 5 -5 5 -3 0 -5 -2 -5
-5z"/>
<path d="M204 529 c-8 -14 11 -33 25 -25 6 4 11 11 11 16 0 13 -29 20 -36 9z"/>
<path d="M435 530 c3 -5 8 -10 11 -10 3 0 2 5 -1 10 -3 6 -8 10 -11 10 -3 0
-2 -4 1 -10z"/>
<path d="M527 533 c-4 -3 -7 -10 -7 -14 0 -11 29 -19 35 -10 6 11 -20 33 -28
24z"/>
<path d="M844 529 c-8 -14 11 -33 25 -25 6 4 11 11 11 16 0 13 -29 20 -36 9z"/>
<path d="M43 504 c-8 -20 8 -36 26 -25 15 10 8 41 -9 41 -6 0 -13 -7 -17 -16z"/>
<path d="M150 515 c0 -3 2 -5 5 -5 3 0 5 2 5 5 0 3 -2 5 -5 5 -3 0 -5 -2 -5
-5z"/>
<path d="M367 514 c-14 -14 -7 -35 11 -32 9 2 17 10 17 17 0 16 -18 25 -28 15z"/>
<path d="M460 515 c0 -3 2 -5 5 -5 3 0 5 2 5 5 0 3 -2 5 -5 5 -3 0 -5 -2 -5
-5z"/>
<path d="M680 500 c-10 -19 -9 -21 12 -18 13 2 23 9 23 17 0 23 -23 24 -35 1z"/>
<path d="M790 515 c0 -3 2 -5 5 -5 3 0 5 2 5 5 0 3 -2 5 -5 5 -3 0 -5 -2 -5
-5z"/>
<path d="M90 495 c0 -3 2 -5 5 -5 3 0 5 2 5 5 0 3 -2 5 -5 5 -3 0 -5 -2 -5 -5z"/>
<path d="M145 490 c-4 -6 -1 -17 5 -25 9 -11 15 -12 25 -2 9 8 10 16 3 25 -13
15 -25 15 -33 2z"/>
<path d="M465 490 c-4 -6 3 -21 15 -32 l22 -20 -4 28 c-3 29 -22 43 -33 24z"/>
<path d="M730 495 c0 -3 2 -5 5 -5 3 0 5 2 5 5 0 3 -2 5 -5 5 -3 0 -5 -2 -5
-5z"/>
<path d="M785 490 c-4 -7 1 -21 12 -31 19 -19 19 -19 18 7 0 29 -18 43 -30 24z"/>
<path d="M410 485 c0 -3 2 -5 5 -5 3 0 5 2 5 5 0 3 -2 5 -5 5 -3 0 -5 -2 -5
-5z"/>
<path d="M210 475 c0 -3 2 -5 5 -5 3 0 5 2 5 5 0 3 -2 5 -5 5 -3 0 -5 -2 -5
-5z"/>
<path d="M287 472 c-10 -15 0 -47 14 -47 17 0 19 47 2 52 -6 2 -14 0 -16 -5z"/>
<path d="M607 472 c-8 -11 -2 -48 6 -44 4 1 12 2 18 2 14 0 7 42 -8 47 -6 2
-14 0 -16 -5z"/>
<path d="M750 475 c0 -3 2 -5 5 -5 3 0 5 2 5 5 0 3 -2 5 -5 5 -3 0 -5 -2 -5
-5z"/>
<path d="M927 472 c-10 -15 0 -47 14 -47 17 0 19 47 2 52 -6 2 -14 0 -16 -5z"/>
<path d="M224 458 c-4 -7 -3 -8 4 -4 7 4 12 9 12 12 0 8 -9 4 -16 -8z"/>
<path d="M520 465 c0 -3 2 -5 5 -5 3 0 5 2 5 5 0 3 -2 5 -5 5 -3 0 -5 -2 -5
-5z"/>
<path d="M540 465 c0 -3 2 -5 5 -5 3 0 5 2 5 5 0 3 -2 5 -5 5 -3 0 -5 -2 -5
-5z"/>
<path d="M870 465 c0 -3 2 -5 5 -5 3 0 5 2 5 5 0 3 -2 5 -5 5 -3 0 -5 -2 -5
-5z"/>
<path d="M560 455 c0 -3 2 -5 5 -5 3 0 5 2 5 5 0 3 -2 5 -5 5 -3 0 -5 -2 -5
-5z"/>
<path d="M540 445 c0 -3 2 -5 5 -5 3 0 5 2 5 5 0 3 -2 5 -5 5 -3 0 -5 -2 -5
-5z"/>
<path d="M18 422 c-4 -12 0 -23 8 -26 20 -8 25 8 10 29 -12 17 -13 17 -18 -3z"/>
<path d="M340 419 c0 -5 -6 -7 -12 -4 -7 4 -4 0 6 -9 22 -18 38 -12 29 9 -6
17 -23 20 -23 4z"/>
<path d="M483 409 c-1 -11 6 -23 16 -28 23 -13 26 21 2 36 -14 9 -17 7 -18 -8z"/>
<path d="M647 423 c-8 -7 25 -33 35 -27 4 3 5 11 1 19 -5 16 -25 20 -36 8z"/>
<path d="M167 405 c-8 -18 11 -31 25 -17 11 11 3 32 -12 32 -4 0 -10 -7 -13
-15z"/>
<path d="M806 411 c-5 -7 -4 -17 2 -23 11 -11 32 -3 32 13 0 6 -4 8 -9 5 -5
-4 -11 -1 -13 6 -3 9 -6 9 -12 -1z"/>
<path d="M85 390 c-8 -13 14 -52 26 -45 14 9 11 42 -6 48 -8 4 -17 2 -20 -3z
m25 -35 c0 -3 -2 -5 -5 -5 -3 0 -5 2 -5 5 0 3 2 5 5 5 3 0 5 -2 5 -5z"/>
<path d="M222 376 c2 -19 5 -22 15 -15 7 6 17 8 24 4 8 -6 8 -2 0 14 -16 29
-41 27 -39 -3z"/>
<path d="M405 391 c-9 -16 15 -55 27 -43 12 12 7 44 -9 49 -6 2 -14 -1 -18 -6z"/>
<path d="M540 387 c0 -8 3 -16 6 -20 8 -8 34 3 34 15 0 5 -4 6 -10 3 -5 -3
-10 -1 -10 4 0 6 -4 11 -10 11 -5 0 -10 -6 -10 -13z"/>
<path d="M640 395 c0 -3 2 -5 5 -5 3 0 5 2 5 5 0 3 -2 5 -5 5 -3 0 -5 -2 -5
-5z"/>
<path d="M724 386 c-7 -19 3 -36 22 -36 10 0 14 8 12 22 -4 26 -26 36 -34 14z
m16 -11 c0 -3 -2 -5 -5 -5 -3 0 -5 2 -5 5 0 3 2 5 5 5 3 0 5 -2 5 -5z"/>
<path d="M864 389 c-10 -17 13 -36 27 -22 12 12 4 33 -11 33 -5 0 -12 -5 -16
-11z m26 -4 c0 -3 -2 -5 -5 -5 -3 0 -5 2 -5 5 0 3 2 5 5 5 3 0 5 -2 5 -5z"/>
<path d="M320 385 c0 -3 2 -5 5 -5 3 0 5 2 5 5 0 3 -2 5 -5 5 -3 0 -5 -2 -5
-5z"/>
<path d="M280 375 c0 -3 2 -5 5 -5 3 0 5 2 5 5 0 3 -2 5 -5 5 -3 0 -5 -2 -5
-5z"/>
<path d="M610 375 c0 -3 2 -5 5 -5 3 0 5 2 5 5 0 3 -2 5 -5 5 -3 0 -5 -2 -5
-5z"/>
<path d="M920 375 c0 -3 2 -5 5 -5 3 0 5 2 5 5 0 3 -2 5 -5 5 -3 0 -5 -2 -5
-5z"/>
<path d="M180 360 c0 -7 3 -10 7 -7 3 4 3 10 0 14 -4 3 -7 0 -7 -7z"/>
<path d="M298 362 c-22 -4 -24 -42 -3 -42 16 0 30 23 23 38 -1 4 -11 6 -20 4z"/>
<path d="M939 363 c-10 -2 -19 -13 -22 -24 -4 -16 -1 -20 16 -17 15 2 22 10
23 26 1 12 1 21 0 21 0 -1 -8 -3 -17 -6z"/>
<path d="M600 340 c0 -13 7 -20 20 -20 13 0 20 7 20 20 0 13 -7 20 -20 20 -13
0 -20 -7 -20 -20z"/>
<path d="M420 325 c0 -3 2 -5 5 -5 3 0 5 2 5 5 0 3 -2 5 -5 5 -3 0 -5 -2 -5
-5z"/>
<path d="M44 309 c-10 -17 13 -36 27 -22 12 12 4 33 -11 33 -5 0 -12 -5 -16
-11z m16 -4 c0 -3 -2 -5 -5 -5 -3 0 -5 2 -5 5 0 3 2 5 5 5 3 0 5 -2 5 -5z"/>
<path d="M185 310 c-4 -7 -3 -16 3 -22 14 -14 47 -6 47 12 0 18 -40 26 -50 10z"/>
<path d="M364 309 c-10 -17 13 -36 27 -22 12 12 4 33 -11 33 -5 0 -12 -5 -16
-11z"/>
<path d="M505 310 c-4 -7 -3 -16 3 -22 14 -14 47 -6 47 12 0 18 -40 26 -50 10z"/>
<path d="M684 309 c-10 -17 13 -36 27 -22 12 12 4 33 -11 33 -5 0 -12 -5 -16
-11z m16 -4 c0 -3 -2 -5 -5 -5 -3 0 -5 2 -5 5 0 3 2 5 5 5 3 0 5 -2 5 -5z"/>
<path d="M825 310 c-4 -7 -3 -16 3 -22 14 -14 47 -6 47 12 0 18 -40 26 -50 10z"/>
<path d="M420 305 c0 -3 2 -5 5 -5 3 0 5 2 5 5 0 3 -2 5 -5 5 -3 0 -5 -2 -5
-5z"/>
<path d="M100 265 c0 -19 5 -26 17 -23 25 5 27 25 4 38 -19 10 -21 8 -21 -15z"/>
<path d="M415 270 c-4 -7 -3 -16 3 -22 14 -14 45 -2 40 15 -6 16 -34 21 -43 7z
m25 -5 c0 -3 -2 -5 -5 -5 -3 0 -5 2 -5 5 0 3 2 5 5 5 3 0 5 -2 5 -5z"/>
<path d="M736 265 c-3 -9 1 -18 10 -22 19 -7 39 11 30 26 -10 16 -33 13 -40
-4z m14 -10 c0 -3 -2 -5 -5 -5 -3 0 -5 2 -5 5 0 3 2 5 5 5 3 0 5 -2 5 -5z"/>
<path d="M160 265 c0 -3 2 -5 5 -5 3 0 5 2 5 5 0 3 -2 5 -5 5 -3 0 -5 -2 -5
-5z"/>
<path d="M480 265 c0 -3 2 -5 5 -5 3 0 5 2 5 5 0 3 -2 5 -5 5 -3 0 -5 -2 -5
-5z"/>
<path d="M800 265 c0 -3 2 -5 5 -5 3 0 5 2 5 5 0 3 -2 5 -5 5 -3 0 -5 -2 -5
-5z"/>
<path d="M264 249 c-8 -14 18 -31 30 -19 9 9 0 30 -14 30 -5 0 -12 -5 -16 -11z
m26 -4 c0 -3 -2 -5 -5 -5 -3 0 -5 2 -5 5 0 3 2 5 5 5 3 0 5 -2 5 -5z"/>
<path d="M320 255 c0 -3 2 -5 5 -5 3 0 5 2 5 5 0 3 -2 5 -5 5 -3 0 -5 -2 -5
-5z"/>
<path d="M584 249 c-8 -14 11 -33 25 -25 6 4 11 11 11 16 0 13 -29 20 -36 9z"/>
<path d="M904 248 c-4 -5 -1 -14 7 -18 14 -9 29 -4 29 10 0 13 -29 20 -36 8z"/>
<path d="M204 209 c-8 -14 11 -33 25 -25 6 4 11 11 11 16 0 13 -29 20 -36 9z"/>
<path d="M524 209 c-8 -14 11 -33 25 -25 11 7 4 36 -9 36 -5 0 -12 -5 -16 -11z"/>
<path d="M844 209 c-8 -14 11 -33 25 -25 6 4 11 11 11 16 0 13 -29 20 -36 9z"/>
<path d="M47 194 c-14 -14 -7 -35 11 -32 9 2 17 10 17 17 0 16 -18 25 -28 15z"/>
<path d="M150 195 c0 -3 2 -5 5 -5 3 0 5 2 5 5 0 3 -2 5 -5 5 -3 0 -5 -2 -5
-5z"/>
<path d="M360 180 c-10 -19 -9 -21 12 -18 13 2 23 9 23 17 0 23 -23 24 -35 1z"/>
<path d="M470 195 c0 -3 2 -5 5 -5 3 0 5 2 5 5 0 3 -2 5 -5 5 -3 0 -5 -2 -5
-5z"/>
<path d="M687 194 c-14 -14 -7 -35 11 -32 9 2 17 10 17 17 0 16 -18 25 -28 15z"/>
<path d="M790 195 c0 -3 2 -5 5 -5 3 0 5 2 5 5 0 3 -2 5 -5 5 -3 0 -5 -2 -5
-5z"/>
<path d="M90 175 c0 -3 2 -5 5 -5 3 0 5 2 5 5 0 3 -2 5 -5 5 -3 0 -5 -2 -5 -5z"/>
<path d="M145 171 c-8 -15 3 -31 21 -31 9 0 14 7 12 17 -4 20 -24 28 -33 14z"/>
<path d="M410 175 c0 -3 2 -5 5 -5 3 0 5 2 5 5 0 3 -2 5 -5 5 -3 0 -5 -2 -5
-5z"/>
<path d="M465 170 c-4 -7 1 -21 12 -31 19 -19 19 -19 18 7 0 29 -18 43 -30 24z"/>
<path d="M730 175 c0 -3 2 -5 5 -5 3 0 5 2 5 5 0 3 -2 5 -5 5 -3 0 -5 -2 -5
-5z"/>
<path d="M785 170 c-4 -7 1 -21 12 -32 20 -19 20 -19 19 8 -1 29 -19 43 -31
24z"/>
<path d="M284 145 c-7 -18 2 -45 15 -45 12 0 24 37 16 50 -9 15 -25 12 -31 -5z"/>
<path d="M607 152 c-10 -15 0 -47 14 -47 17 0 19 47 2 52 -6 2 -14 0 -16 -5z"/>
<path d="M927 152 c-8 -11 -2 -48 6 -44 4 1 12 2 18 2 14 0 7 42 -8 47 -6 2
-14 0 -16 -5z"/>
<path d="M200 145 c0 -3 2 -5 5 -5 3 0 5 2 5 5 0 3 -2 5 -5 5 -3 0 -5 -2 -5
-5z"/>
<path d="M230 145 c0 -3 2 -5 5 -5 3 0 5 2 5 5 0 3 -2 5 -5 5 -3 0 -5 -2 -5
-5z"/>
<path d="M550 145 c0 -3 2 -5 5 -5 3 0 5 2 5 5 0 3 -2 5 -5 5 -3 0 -5 -2 -5
-5z"/>
<path d="M840 145 c0 -3 2 -5 5 -5 3 0 5 2 5 5 0 3 -2 5 -5 5 -3 0 -5 -2 -5
-5z"/>
<path d="M870 145 c0 -3 2 -5 5 -5 3 0 5 2 5 5 0 3 -2 5 -5 5 -3 0 -5 -2 -5
-5z"/>
<path d="M170 125 c0 -3 2 -5 5 -5 3 0 5 2 5 5 0 3 -2 5 -5 5 -3 0 -5 -2 -5
-5z"/>
<path d="M220 125 c0 -3 2 -5 5 -5 3 0 5 2 5 5 0 3 -2 5 -5 5 -3 0 -5 -2 -5
-5z"/>
<path d="M860 125 c0 -3 2 -5 5 -5 3 0 5 2 5 5 0 3 -2 5 -5 5 -3 0 -5 -2 -5
-5z"/>
<path d="M330 103 c-8 -10 -10 -15 -6 -11 5 4 14 0 21 -9 7 -9 14 -12 18 -6 4
6 1 18 -6 27 -12 17 -14 17 -27 -1z"/>
<path d="M17 96 c-21 -22 -21 -23 0 -21 20 1 26 10 21 27 -3 7 -10 4 -21 -6z"/>
<path d="M651 92 c-7 -14 -6 -18 10 -18 12 0 19 7 19 18 0 10 -4 18 -10 18 -5
0 -14 -8 -19 -18z m19 3 c0 -3 -2 -5 -5 -5 -3 0 -5 2 -5 5 0 3 2 5 5 5 3 0 5
-2 5 -5z"/>
<path d="M167 94 c-12 -12 -8 -23 12 -33 15 -9 18 -7 17 11 -1 22 -17 34 -29
22z m23 -9 c0 -3 -2 -5 -5 -5 -3 0 -5 2 -5 5 0 3 2 5 5 5 3 0 5 -2 5 -5z"/>
<path d="M486 91 c-5 -7 -4 -17 2 -23 11 -11 32 -3 32 13 0 6 -4 8 -9 5 -5 -4
-11 -1 -13 6 -3 9 -6 9 -12 -1z"/>
<path d="M804 89 c-8 -14 11 -33 25 -25 6 4 11 11 11 16 0 13 -29 20 -36 9z"/>
<path d="M85 71 c-9 -16 15 -55 27 -43 12 12 7 44 -9 49 -6 2 -14 -1 -18 -6z"/>
<path d="M225 70 c-9 -15 4 -30 20 -23 8 3 15 9 15 13 0 12 -29 20 -35 10z"/>
<path d="M320 75 c0 -3 2 -5 5 -5 3 0 5 2 5 5 0 3 -2 5 -5 5 -3 0 -5 -2 -5 -5z"/>
<path d="M404 65 c-7 -18 0 -28 22 -31 10 -2 14 4 12 19 -4 26 -26 34 -34 12z
m16 -10 c0 -3 -2 -5 -5 -5 -3 0 -5 2 -5 5 0 3 2 5 5 5 3 0 5 -2 5 -5z"/>
<path d="M544 69 c-10 -17 13 -36 27 -22 12 12 4 33 -11 33 -5 0 -12 -5 -16
-11z m26 -4 c0 -3 -2 -5 -5 -5 -3 0 -5 2 -5 5 0 3 2 5 5 5 3 0 5 -2 5 -5z"/>
<path d="M725 71 c-9 -16 15 -55 27 -43 12 12 7 44 -9 49 -6 2 -14 -1 -18 -6z"/>
<path d="M866 72 c-8 -13 0 -32 14 -32 4 0 11 7 14 16 3 8 2 13 -3 9 -5 -3
-11 0 -13 7 -3 9 -6 9 -12 0z"/>
<path d="M615 60 c3 -5 8 -10 11 -10 3 0 2 5 -1 10 -3 6 -8 10 -11 10 -3 0 -2
-4 1 -10z"/>
<path d="M290 55 c0 -3 2 -5 5 -5 3 0 5 2 5 5 0 3 -2 5 -5 5 -3 0 -5 -2 -5 -5z"/>
<path d="M930 55 c0 -3 2 -5 5 -5 3 0 5 2 5 5 0 3 -2 5 -5 5 -3 0 -5 -2 -5 -5z"/>
<path d="M280 20 c0 -13 7 -20 20 -20 13 0 20 7 20 20 0 13 -7 20 -20 20 -13
0 -20 -7 -20 -20z"/>
<path d="M600 19 c0 -25 33 -22 38 4 2 12 -3 17 -17 17 -15 0 -21 -6 -21 -21z"/>
<path d="M920 20 c0 -13 7 -20 20 -20 13 0 20 7 20 20 0 13 -7 20 -20 20 -13
0 -20 -7 -20 -20z"/>
</g>
  </g>
</svg>
