<?xml version="1.0" encoding="UTF-8" standalone="no"?>
<!-- Created with Inkscape (http://www.inkscape.org/) -->

<svg
   xmlns:dc="http://purl.org/dc/elements/1.1/"
   xmlns:cc="http://creativecommons.org/ns#"
   xmlns:rdf="http://www.w3.org/1999/02/22-rdf-syntax-ns#"
   xmlns:svg="http://www.w3.org/2000/svg"
   xmlns="http://www.w3.org/2000/svg"
   xmlns:sodipodi="http://sodipodi.sourceforge.net/DTD/sodipodi-0.dtd"
   xmlns:inkscape="http://www.inkscape.org/namespaces/inkscape"
   width="32px"
   height="32px"
   viewBox="0 0 32px 32px"
   version="1.1"
   id="svgMain"
   inkscape:version="0.92.2 (5c3e80d, 2017-08-06)"
   sodipodi:docname="reference_SVG.svg">
  <defs
     id="defs4542" />
  <sodipodi:namedview
     id="base"
     pagecolor="#ffffff"
     bordercolor="#666666"
     borderopacity="1.0"
     inkscape:pageopacity="0.0"
     inkscape:pageshadow="2"
     inkscape:zoom="1"
     inkscape:cx="0"
     inkscape:cy="0"
     inkscape:document-units="px"
     inkscape:current-layer="layer1"
     showgrid="false"
     units="px"
     inkscape:window-width="1024"
     inkscape:window-height="768"
     inkscape:window-x="-8"
     inkscape:window-y="-8"
     inkscape:window-maximized="1" />
  <metadata
     id="metadata1">
    <rdf:RDF>
      <cc:Work
         rdf:about="">
        <dc:format>image/svg+xml</dc:format>
        <dc:type
           rdf:resource="http://purl.org/dc/dcmitype/StillImage" />
        <dc:title />
      </cc:Work>
    </rdf:RDF>
  </metadata>
  <g transform="translate(-32,-32)"
     inkscape:label="Layer 1"
     inkscape:groupmode="layer"
     id="layer1">
    <!-- INSERT MARKER -->
<g transform="translate(0.000000,96.000000) scale(0.100000,-0.100000)"
fill="#362419" stroke="none">
<path d="M0 480 l0 -480 480 0 480 0 0 480 0 480 -480 0 -480 0 0 -480z"/>
</g>
<g transform="translate(0.000000,96.000000) scale(0.100000,-0.100000)"
fill="#483529" stroke="none">
<path d="M0 901 c0 -54 2 -59 20 -54 16 4 18 9 9 24 -6 13 -6 19 1 19 5 0 11
-7 11 -15 3 -28 4 -31 22 -49 26 -27 11 -33 -16 -8 -18 17 -26 19 -35 10 -16
-16 -15 -55 1 -61 9 -3 9 -7 1 -18 -6 -8 -12 -61 -13 -121 -2 -100 -1 -106 17
-101 14 3 18 11 14 31 -3 15 -2 25 1 22 3 -3 7 -17 9 -32 2 -15 12 -36 22 -47
11 -12 15 -21 9 -21 -5 0 -18 9 -28 20 -14 15 -21 17 -32 9 -16 -14 -17 -56 0
-62 9 -3 9 -7 1 -18 -6 -8 -12 -61 -13 -121 -2 -100 -1 -106 17 -101 14 3 18
11 14 31 -3 15 -2 25 1 22 3 -3 7 -17 9 -32 4 -30 26 -60 38 -53 5 3 11 2 14
-3 10 -17 -33 -10 -50 9 -13 14 -20 16 -31 8 -18 -16 -17 -58 3 -66 12 -4 13
-7 3 -14 -8 -4 -15 -31 -17 -59 l-3 -50 86 1 c51 1 83 5 79 11 -3 5 -12 7 -20
4 -16 -6 -18 3 -5 22 6 10 15 8 38 -12 38 -32 50 -32 81 -3 l25 22 -6 -23 c-5
-22 -5 -23 104 -21 64 1 106 6 103 11 -3 5 -12 7 -20 4 -8 -3 -14 -1 -14 5 0
20 32 21 54 0 26 -25 49 -27 66 -6 16 20 34 19 26 0 -5 -13 10 -15 104 -14 68
0 108 5 104 11 -3 5 -12 7 -20 4 -18 -7 -18 2 0 19 11 12 17 10 36 -11 28 -29
51 -31 75 -4 23 26 39 26 25 0 -9 -18 -8 -20 15 -20 l25 0 0 131 c0 101 -3
129 -12 123 -10 -6 -10 -5 -1 7 16 20 17 310 0 321 -9 6 -9 8 1 8 9 0 12 33
12 131 0 101 -3 129 -12 123 -10 -6 -10 -4 0 7 14 16 16 53 2 44 -6 -3 -10 -1
-10 4 0 6 5 11 10 11 6 0 10 11 10 25 0 24 -3 25 -53 25 -29 0 -58 -5 -65 -12
-9 -9 -12 -9 -12 0 0 7 -8 12 -17 12 -16 -1 -16 -3 2 -18 25 -21 40 -53 22
-49 -6 1 -24 17 -39 36 -16 19 -28 28 -28 22 0 -7 -5 -9 -12 -5 -24 15 -53 11
-72 -10 l-18 -21 6 23 c7 21 5 22 -66 22 -44 0 -79 -5 -86 -12 -9 -9 -12 -9
-12 0 0 7 -8 12 -17 12 -15 -1 -15 -3 5 -19 12 -11 22 -24 22 -30 0 -6 5 -11
10 -11 6 0 10 4 10 10 0 13 60 43 68 34 4 -4 1 -9 -6 -11 -6 -3 -10 -8 -7 -13
3 -4 -4 -6 -15 -3 -16 4 -19 2 -14 -12 11 -26 -56 -16 -79 12 -10 13 -26 23
-35 23 -14 0 -14 2 -3 9 9 6 0 8 -28 6 -26 -2 -48 -10 -57 -21 -14 -18 -15
-18 -9 4 6 21 4 22 -67 22 -44 0 -79 -5 -86 -12 -9 -9 -12 -9 -12 0 0 7 -8 12
-17 12 -15 -1 -15 -3 5 -19 12 -11 22 -24 22 -30 0 -16 10 -13 28 8 10 11 28
23 42 27 22 6 23 5 11 -10 -7 -9 -20 -16 -27 -16 -7 0 -11 -6 -8 -13 3 -9 -6
-13 -28 -15 -27 -1 -38 5 -58 32 -16 22 -28 30 -32 23 -4 -7 -8 -7 -8 -2 0 18
-55 11 -73 -10 -18 -20 -18 -20 -12 3 5 18 2 22 -14 22 -19 0 -21 -6 -21 -59z
m930 39 c0 -5 -11 -12 -24 -16 -17 -4 -23 -11 -19 -22 4 -9 2 -13 -4 -9 -6 4
-14 1 -16 -5 -3 -7 -6 -3 -6 9 -1 15 9 28 27 37 32 18 42 19 42 6z m-844 -48
c-23 -23 -33 -6 -10 19 12 13 20 16 22 9 3 -7 -3 -19 -12 -28z m59 -1 c-10
-16 -25 -3 -25 22 0 20 1 20 16 5 9 -9 13 -21 9 -27z m170 22 c-2 -10 -4 -19
-4 -21 -1 -2 -6 0 -11 3 -8 5 -7 11 1 21 15 18 18 18 14 -3z m91 -21 c-23 -23
-33 -6 -10 19 12 13 20 16 22 9 3 -7 -3 -19 -12 -28z m59 -1 c-10 -16 -25 -3
-25 22 0 20 1 20 16 5 9 -9 13 -21 9 -27z m261 1 c-23 -23 -33 -6 -10 19 12
13 20 16 22 9 3 -7 -3 -19 -12 -28z m59 -1 c-10 -16 -25 -3 -25 22 0 20 1 20
16 5 9 -9 13 -21 9 -27z m-145 15 c0 -3 -5 -8 -12 -12 -7 -4 -8 -3 -4 4 7 12
16 16 16 8z m-370 -11 c0 -3 -2 -5 -5 -5 -3 0 -5 2 -5 5 0 3 2 5 5 5 3 0 5 -2
5 -5z m93 -47 c-2 -4 10 -14 27 -23 35 -18 36 -20 11 -22 -11 -1 -27 7 -37 18
-12 14 -20 16 -30 8 -10 -8 -13 -6 -11 9 1 13 7 18 18 15 14 -4 17 0 13 19 -4
20 -3 21 5 3 4 -11 7 -23 4 -27z m359 -32 c10 5 10 4 1 -6 -11 -11 -17 -10
-36 8 -17 16 -26 19 -35 10 -8 -8 -11 -6 -9 9 1 14 6 19 18 16 14 -4 17 0 13
19 -3 12 4 4 15 -20 14 -29 25 -41 33 -36z m-594 52 c19 -19 14 -25 -18 -25
-16 0 -30 6 -30 12 0 26 28 33 48 13z m320 0 c19 -19 14 -25 -18 -25 -16 0
-30 6 -30 12 0 26 28 33 48 13z m320 0 c19 -19 14 -25 -18 -25 -16 0 -30 6
-30 12 0 26 28 33 48 13z m142 7 c0 -3 -2 -5 -5 -5 -3 0 -5 2 -5 5 0 3 2 5 5
5 3 0 5 -2 5 -5z m20 0 c0 -3 -2 -5 -5 -5 -3 0 -5 2 -5 5 0 3 2 5 5 5 3 0 5
-2 5 -5z m-750 -10 c0 -3 -2 -5 -5 -5 -3 0 -5 2 -5 5 0 3 2 5 5 5 3 0 5 -2 5
-5z m316 -21 c-4 -9 -9 -15 -11 -12 -3 3 -3 13 1 22 4 9 9 15 11 12 3 -3 3
-13 -1 -22z m124 21 c0 -3 -2 -5 -5 -5 -3 0 -5 2 -5 5 0 3 2 5 5 5 3 0 5 -2 5
-5z m209 -40 c0 -5 -3 -4 -8 4 -12 18 -25 -4 -26 -42 -1 -26 0 -27 12 -11 7
10 13 13 13 7 0 -7 -5 -15 -10 -18 -6 -4 -8 -10 -5 -15 3 -5 1 -11 -4 -14 -8
-5 -26 40 -23 57 1 4 -6 7 -15 7 -13 1 -11 5 9 15 15 8 30 25 34 37 7 22 7 22
15 3 4 -11 8 -24 8 -30z m-579 20 c0 -8 -2 -15 -4 -15 -2 0 -11 -3 -20 -6 -10
-4 -16 -1 -16 9 0 14 13 24 33 26 4 1 7 -6 7 -14z m320 0 c0 -8 -2 -15 -4 -15
-2 0 -11 -3 -20 -6 -10 -4 -16 -1 -16 9 0 14 13 24 33 26 4 1 7 -6 7 -14z
m320 0 c0 -8 -2 -15 -4 -15 -2 0 -11 -3 -20 -6 -10 -4 -16 -1 -16 9 0 14 13
24 33 26 4 1 7 -6 7 -14z m-700 -12 c0 -10 -4 -14 -8 -8 -4 6 -11 13 -16 18
-5 4 -2 7 7 7 10 0 17 -8 17 -17z m440 12 c0 -3 -2 -5 -5 -5 -3 0 -5 2 -5 5 0
3 2 5 5 5 3 0 5 -2 5 -5z m-474 -49 c-1 -19 2 -32 6 -30 5 3 8 -2 8 -10 0 -27
-18 -26 -26 2 -4 15 -7 30 -6 35 1 4 -4 7 -10 7 -8 0 -5 7 6 15 25 19 24 20
22 -19z m144 24 c8 -5 12 -12 9 -15 -8 -8 -39 5 -39 16 0 11 11 11 30 -1z
m210 5 c0 -3 -2 -5 -5 -5 -3 0 -5 2 -5 5 0 3 2 5 5 5 3 0 5 -2 5 -5z m110 -10
c14 -16 10 -18 -14 -9 -9 3 -16 10 -16 15 0 14 16 11 30 -6z m320 0 c14 -16
10 -18 -14 -9 -9 3 -16 10 -16 15 0 14 16 11 30 -6z m-467 -14 c-2 -6 5 -11
14 -11 15 0 14 -2 -3 -16 -10 -8 -14 -13 -7 -10 7 4 10 -1 8 -11 -2 -10 -4
-20 -4 -23 -1 -3 -8 8 -16 24 -8 15 -12 33 -8 39 3 6 1 7 -5 3 -13 -8 -17 6
-5 18 10 9 28 1 26 -13z m-373 4 c0 -3 -2 -5 -5 -5 -3 0 -5 2 -5 5 0 3 2 5 5
5 3 0 5 -2 5 -5z m180 -18 c24 -19 24 -47 1 -47 -11 0 -23 5 -26 10 -4 6 -15
8 -26 5 -14 -5 -19 -2 -19 13 0 10 3 22 7 25 10 11 47 7 63 -6z m326 -3 c10
-8 12 -12 4 -8 -12 6 -13 4 -2 -7 28 -30 -7 -42 -40 -12 -11 9 -18 11 -18 5 0
-7 -4 -12 -10 -12 -11 0 -14 33 -3 43 12 12 49 7 69 -9z m318 -6 c9 -12 16
-26 16 -30 0 -12 -38 -10 -45 2 -4 6 -14 9 -23 8 -15 -3 -23 17 -15 35 8 16
53 6 67 -15z m-744 7 c0 -3 -2 -5 -5 -5 -3 0 -5 2 -5 5 0 3 2 5 5 5 3 0 5 -2
5 -5z m-120 -19 c0 -3 -5 -8 -12 -12 -7 -4 -8 -3 -4 4 7 12 16 16 16 8z m57
-42 c-10 -10 -37 16 -37 34 0 13 4 12 22 -5 12 -13 19 -25 15 -29z m233 31 c0
-2 -7 -5 -15 -9 -9 -3 -15 0 -15 9 0 9 6 12 15 9 8 -4 15 -7 15 -9z m87 -31
c-10 -10 -37 16 -37 34 0 13 4 12 22 -5 12 -13 19 -25 15 -29z m233 31 c0 -2
-7 -5 -15 -9 -9 -3 -15 0 -15 9 0 9 6 12 15 9 8 -4 15 -7 15 -9z m87 -31 c-10
-10 -37 16 -37 34 0 13 4 12 22 -5 12 -13 19 -25 15 -29z m-502 -27 c11 -3 6
-5 -12 -4 -18 1 -30 3 -27 6 2 2 -6 16 -18 30 l-23 26 30 -27 c17 -14 39 -28
50 -31z m580 43 c3 -5 4 -10 1 -10 -3 0 -8 5 -11 10 -3 6 -4 10 -1 10 3 0 8
-4 11 -10z m-784 -33 c-8 -8 -11 -7 -11 4 0 20 13 34 18 19 3 -7 -1 -17 -7
-23z m320 0 c-8 -8 -11 -7 -11 4 0 20 13 34 18 19 3 -7 -1 -17 -7 -23z m320 0
c-8 -8 -11 -7 -11 4 0 20 13 34 18 19 3 -7 -1 -17 -7 -23z m-127 -16 c-2 -2
-12 3 -22 12 -10 10 -22 14 -27 10 -4 -5 -5 -2 -1 5 6 9 13 8 31 -5 13 -10 21
-20 19 -22z m-455 15 c10 -11 6 -17 -19 -29 -28 -14 -30 -14 -30 2 0 17 18 41
31 41 4 0 12 -6 18 -14z m218 -3 c-4 -3 -7 0 -7 7 0 7 3 10 7 7 3 -4 3 -10 0
-14z m102 3 c10 -11 6 -17 -19 -29 -28 -14 -30 -14 -30 2 0 17 18 41 31 41 4
0 12 -6 18 -14z m221 4 c0 -5 -2 -10 -4 -10 -3 0 -8 5 -11 10 -3 6 -1 10 4 10
6 0 11 -4 11 -10z m99 -4 c10 -11 6 -17 -19 -29 -28 -14 -30 -14 -30 2 0 17
18 41 31 41 4 0 12 -6 18 -14z m135 -15 c-2 -3 -12 3 -22 13 -16 17 -16 18 5
5 12 -7 20 -15 17 -18z m-717 2 c-4 -3 -10 -3 -14 0 -3 4 0 7 7 7 7 0 10 -3 7
-7z m310 1 c-3 -3 7 -17 24 -31 16 -14 27 -29 23 -34 -3 -5 -15 0 -27 11 -12
11 -27 18 -34 16 -7 -3 -13 -1 -13 4 0 6 5 10 10 10 6 0 9 3 9 8 -2 13 1 22 8
22 3 0 4 -3 0 -6z m123 -35 c-6 -10 -18 -19 -26 -19 -13 0 -12 4 3 24 21 28
38 24 23 -5z m233 -7 c12 -13 15 -22 8 -27 -6 -3 -11 -1 -11 4 0 6 -6 11 -14
11 -8 0 -17 8 -21 18 -6 15 -9 13 -19 -10 -9 -20 -15 -25 -26 -18 -11 7 -11
10 -2 10 7 0 17 11 24 25 12 27 28 23 61 -13z m77 33 c0 -3 -2 -5 -5 -5 -3 0
-5 2 -5 5 0 3 2 5 5 5 3 0 5 -2 5 -5z m30 0 c0 -3 -2 -5 -5 -5 -3 0 -5 2 -5 5
0 3 2 5 5 5 3 0 5 -2 5 -5z m-751 -29 c14 -15 19 -26 12 -31 -6 -3 -11 -1 -11
4 0 6 -6 11 -14 11 -8 0 -16 5 -18 12 -5 13 -28 2 -28 -13 0 -6 4 -7 10 -4 14
9 59 -27 60 -47 0 -22 -16 -24 -24 -3 -3 8 -19 23 -35 33 l-31 19 21 21 c25
28 30 27 58 -2z m88 -1 c-4 -8 -14 -15 -23 -15 -16 0 -16 2 1 20 20 22 31 20
22 -5z m641 3 c-3 -7 -13 -15 -24 -17 -16 -3 -17 -1 -5 13 16 19 34 21 29 4z
m-862 -33 c-8 -8 -17 -15 -20 -15 -3 0 -3 7 0 15 4 8 13 15 21 15 12 0 12 -2
-1 -15z m41 8 c-4 -3 -10 -3 -14 0 -3 4 0 7 7 7 7 0 10 -3 7 -7z m276 -13
c-19 -22 -26 -21 -17 4 3 9 12 16 20 16 11 0 10 -4 -3 -20z m37 15 c0 -3 -2
-5 -5 -5 -3 0 -5 2 -5 5 0 3 2 5 5 5 3 0 5 -2 5 -5z m88 -15 c12 -8 22 -20 22
-27 0 -7 5 -13 10 -13 6 0 10 4 10 10 0 13 60 43 68 34 4 -4 1 -9 -6 -11 -6
-3 -10 -8 -7 -13 3 -4 -4 -6 -15 -3 -16 4 -19 2 -14 -12 6 -14 1 -16 -27 -14
-19 2 -40 12 -47 22 -8 9 -28 24 -45 31 l-32 13 30 -1 c17 -1 40 -8 53 -16z
m202 11 c0 -5 -7 -14 -15 -21 -16 -14 -18 -10 -9 14 6 17 24 22 24 7z m30 4
c0 -3 -2 -5 -5 -5 -3 0 -5 2 -5 5 0 3 2 5 5 5 3 0 5 -2 5 -5z m85 -13 c25 -20
40 -53 23 -49 -13 2 -58 50 -58 61 0 11 14 6 35 -12z m-532 -11 c-3 -13 -12
-17 -26 -15 -12 2 -16 2 -9 -2 17 -8 5 -24 -19 -24 -26 0 -13 26 22 45 33 18
38 18 32 -4z m635 0 c-6 -10 -18 -17 -25 -14 -9 4 -11 0 -6 -13 4 -11 3 -15
-4 -11 -6 4 -14 1 -17 -5 -3 -7 -4 -2 -3 12 1 15 12 29 27 37 35 18 42 16 28
-6z m-832 -39 c-23 -23 -33 -6 -10 19 12 13 20 16 22 9 3 -7 -3 -19 -12 -28z
m59 -1 c-10 -16 -25 -3 -25 22 0 20 1 20 16 5 9 -9 13 -21 9 -27z m261 1 c-23
-23 -33 -6 -10 19 12 13 20 16 22 9 3 -7 -3 -19 -12 -28z m59 -1 c-10 -16 -25
-3 -25 22 0 20 1 20 16 5 9 -9 13 -21 9 -27z m261 1 c-23 -23 -33 -6 -10 19
12 13 20 16 22 9 3 -7 -3 -19 -12 -28z m62 6 c-6 -17 -23 -9 -24 12 -1 16 1
18 13 9 7 -7 12 -16 11 -21z m-461 5 c-4 -3 -10 -3 -14 0 -3 4 0 7 7 7 7 0 10
-3 7 -7z m313 3 c0 -3 -5 -8 -12 -12 -7 -4 -8 -3 -4 4 7 12 16 16 16 8z m20
-1 c0 -3 -2 -5 -5 -5 -3 0 -5 2 -5 5 0 3 2 5 5 5 3 0 5 -2 5 -5z m-297 -42 c4
-26 26 -55 37 -48 5 3 11 2 14 -3 10 -17 -33 -10 -50 9 -13 14 -20 16 -31 8
-10 -9 -13 -8 -13 1 0 6 9 14 19 17 17 4 18 9 10 32 -7 18 -7 23 0 16 6 -6 12
-20 14 -32z m319 2 c4 -27 29 -55 42 -48 6 3 5 0 -1 -7 -11 -11 -17 -10 -36 8
-17 16 -26 19 -35 10 -8 -8 -11 -6 -9 9 1 14 6 19 18 16 14 -4 16 0 12 19 -3
12 -3 21 0 18 3 -3 7 -14 9 -25z m-554 3 c19 -19 14 -25 -18 -25 -16 0 -30 6
-30 12 0 26 28 33 48 13z m320 0 c19 -19 14 -25 -18 -25 -16 0 -30 6 -30 12 0
26 28 33 48 13z m320 0 c19 -19 14 -25 -18 -25 -16 0 -30 6 -30 12 0 26 28 33
48 13z m-583 -46 c-3 -3 -5 0 -5 8 0 10 -3 10 -15 0 -14 -11 -14 -15 2 -34 17
-20 17 -20 -1 -6 -18 14 -19 14 -9 -5 11 -23 11 -45 1 -45 -5 0 -8 2 -8 5 0 3
-6 18 -15 35 -14 27 -14 30 4 40 11 5 23 20 27 32 l7 23 9 -24 c4 -13 6 -26 3
-29z m307 16 c-8 -8 -9 -4 -5 13 4 13 8 18 11 10 2 -7 -1 -18 -6 -23z m128 27
c0 -3 -2 -5 -5 -5 -3 0 -5 2 -5 5 0 3 2 5 5 5 3 0 5 -2 5 -5z m209 -40 c0 -5
-3 -4 -8 4 -12 18 -25 -4 -26 -42 -1 -26 0 -27 12 -11 7 10 13 13 13 7 0 -7
-5 -15 -10 -18 -6 -4 -8 -10 -5 -15 3 -5 1 -12 -5 -15 -6 -4 -9 -3 -8 2 1 4
-6 22 -15 40 -16 31 -16 33 2 43 11 5 23 20 27 32 7 22 7 22 15 3 4 -11 8 -24
8 -30z m-579 20 c0 -8 -2 -15 -4 -15 -2 0 -11 -3 -20 -6 -10 -4 -16 -1 -16 9
0 14 13 24 33 26 4 1 7 -6 7 -14z m320 0 c0 -8 -2 -15 -4 -15 -2 0 -11 -3 -20
-6 -10 -4 -16 -1 -16 9 0 14 13 24 33 26 4 1 7 -6 7 -14z m320 0 c0 -8 -2 -15
-4 -15 -2 0 -11 -3 -20 -6 -10 -4 -16 -1 -16 9 0 14 13 24 33 26 4 1 7 -6 7
-14z m-580 0 c0 -3 -2 -5 -5 -5 -3 0 -5 2 -5 5 0 3 2 5 5 5 3 0 5 -2 5 -5z
m-10 -30 c14 -16 10 -18 -14 -9 -9 3 -16 10 -16 15 0 14 16 11 30 -6z m210 10
c0 -3 -2 -5 -5 -5 -3 0 -5 2 -5 5 0 3 2 5 5 5 3 0 5 -2 5 -5z m108 -13 c2 -7
-2 -10 -12 -6 -9 3 -16 11 -16 16 0 13 23 5 28 -10z m322 3 c14 -16 10 -18
-14 -9 -9 3 -16 10 -16 15 0 14 16 11 30 -6z m-466 -27 c0 -19 4 -25 15 -21
14 4 14 4 1 -6 -8 -6 -11 -11 -7 -11 5 0 5 -5 2 -11 -4 -6 -13 1 -21 16 -8 15
-11 32 -7 38 3 6 1 7 -5 3 -13 -8 -17 6 -5 18 13 13 28 -1 27 -26z m-374 17
c0 -3 -2 -5 -5 -5 -3 0 -5 2 -5 5 0 3 2 5 5 5 3 0 5 -2 5 -5z m650 0 c0 -3 -2
-5 -5 -5 -3 0 -5 2 -5 5 0 3 2 5 5 5 3 0 5 -2 5 -5z m-466 -27 c9 -12 16 -26
16 -30 0 -12 -38 -10 -45 3 -4 6 -13 8 -21 5 -16 -6 -28 10 -20 29 8 23 53 18
70 -7z m322 6 c10 -8 12 -12 4 -8 -12 6 -13 4 -2 -7 6 -7 12 -17 12 -21 0 -12
-38 -10 -46 3 -3 6 -15 9 -25 6 -13 -4 -19 0 -19 12 0 10 3 21 7 24 12 12 49
7 69 -9z m318 -6 c19 -26 6 -45 -21 -32 -10 4 -25 8 -33 8 -14 1 -21 22 -13
39 8 16 53 6 67 -15z m-424 7 c0 -3 -2 -5 -5 -5 -3 0 -5 2 -5 5 0 3 2 5 5 5 3
0 5 -2 5 -5z m-383 -61 c-10 -10 -37 16 -37 34 0 13 4 12 22 -5 12 -13 19 -25
15 -29z m218 37 c3 -5 1 -12 -5 -16 -5 -3 -10 1 -10 9 0 18 6 21 15 7z m102
-37 c-10 -10 -37 16 -37 34 0 13 4 12 22 -5 12 -13 19 -25 15 -29z m223 37 c0
-6 -4 -13 -10 -16 -5 -3 -10 1 -10 9 0 9 5 16 10 16 6 0 10 -4 10 -9z m97 -37
c-10 -10 -37 16 -37 34 0 13 4 12 22 -5 12 -13 19 -25 15 -29z m-562 16 c3 -5
4 -10 1 -10 -3 0 -8 5 -11 10 -3 6 -4 10 -1 10 3 0 8 -4 11 -10z m640 0 c3 -5
4 -10 1 -10 -3 0 -8 5 -11 10 -3 6 -4 10 -1 10 3 0 8 -4 11 -10z m-784 -33
c-8 -8 -11 -7 -11 4 0 20 13 34 18 19 3 -7 -1 -17 -7 -23z m320 0 c-8 -8 -11
-7 -11 4 0 9 3 19 7 23 4 4 9 2 11 -4 3 -7 -1 -17 -7 -23z m320 0 c-8 -8 -11
-7 -11 4 0 20 13 34 18 19 3 -7 -1 -17 -7 -23z m-363 -2 c-3 -3 -9 2 -12 12
-6 14 -5 15 5 6 7 -7 10 -15 7 -18z m236 -14 c-2 -2 -12 3 -22 12 -10 10 -22
14 -27 10 -4 -5 -5 -2 -1 5 6 9 13 8 31 -5 13 -10 21 -20 19 -22z m-456 17
c17 -17 15 -28 -6 -28 -10 0 -23 -5 -30 -12 -9 -9 -12 -8 -12 8 0 19 17 44 30
44 3 0 11 -5 18 -12z m117 2 c3 -5 4 -10 1 -10 -3 0 -8 5 -11 10 -3 6 -4 10
-1 10 3 0 8 -4 11 -10z m204 -4 c10 -11 6 -17 -19 -29 -28 -14 -30 -14 -30 2
0 17 18 41 31 41 4 0 12 -6 18 -14z m218 -3 c-4 -3 -7 0 -7 7 0 7 3 10 7 7 3
-4 3 -10 0 -14z m102 3 c10 -11 6 -17 -19 -29 -28 -14 -30 -14 -30 2 0 17 18
41 31 41 4 0 12 -6 18 -14z m135 -15 c-2 -3 -12 3 -22 13 -16 17 -16 18 5 5
12 -7 20 -15 17 -18z m-719 0 c-2 -5 7 -18 20 -31 13 -13 22 -27 19 -31 -3 -5
-15 0 -26 11 -26 24 -32 25 -49 4 -12 -15 -11 -16 6 -11 21 6 65 -22 65 -42 0
-6 5 -11 10 -11 6 0 10 4 10 10 0 5 13 16 30 25 36 19 46 19 31 2 -6 -8 -8
-16 -5 -20 3 -3 -4 -3 -15 0 -16 4 -20 2 -16 -9 4 -10 -4 -14 -26 -16 -22 -2
-36 4 -50 22 -10 13 -30 26 -43 30 l-24 6 29 31 c16 17 26 36 22 42 -3 6 -1 7
6 3 6 -4 9 -11 6 -15z m85 4 c0 -3 -2 -5 -5 -5 -3 0 -5 2 -5 5 0 3 2 5 5 5 3
0 5 -2 5 -5z m227 -1 c-3 -3 7 -17 24 -31 16 -14 27 -29 23 -34 -3 -5 -15 0
-27 11 -12 11 -27 18 -34 16 -7 -3 -13 -1 -13 4 0 6 5 10 10 10 6 0 9 3 9 8
-2 13 1 22 8 22 3 0 4 -3 0 -6z m123 1 c0 -3 -2 -5 -5 -5 -3 0 -5 2 -5 5 0 3
2 5 5 5 3 0 5 -2 5 -5z m200 0 c0 -3 -2 -5 -5 -5 -3 0 -5 2 -5 5 0 3 2 5 5 5
3 0 5 -2 5 -5z m-170 -10 c0 -3 -2 -5 -5 -5 -3 0 -5 2 -5 5 0 3 2 5 5 5 3 0 5
-2 5 -5z m-354 -34 c-4 -6 -15 -11 -24 -11 -16 1 -16 2 0 14 10 7 16 15 14 18
-1 3 1 2 7 -2 5 -5 6 -13 3 -19z m324 9 c-6 -11 -18 -20 -27 -20 -14 0 -14 2
2 20 10 11 22 20 27 20 5 0 4 -9 -2 -20z m229 -4 c14 -15 19 -26 12 -31 -6 -3
-11 -1 -11 4 0 6 -6 11 -14 11 -8 0 -16 6 -19 13 -3 9 -10 7 -23 -7 -19 -18
-19 -18 1 -12 21 5 65 -23 65 -43 0 -6 5 -11 10 -11 6 0 10 4 10 10 0 5 13 16
30 25 36 19 46 19 31 2 -6 -8 -8 -16 -5 -20 3 -3 -4 -3 -15 0 -16 4 -20 2 -16
-9 10 -25 -56 -18 -77 8 -10 12 -29 25 -42 28 l-25 6 22 24 c28 31 39 31 66 2z
m71 19 c0 -3 -2 -5 -5 -5 -3 0 -5 2 -5 5 0 3 2 5 5 5 3 0 5 -2 5 -5z m17 -20
c-4 -8 -14 -15 -23 -15 -16 0 -16 2 2 19 21 21 29 19 21 -4z m-864 -35 c-19
-22 -26 -21 -17 4 3 9 12 16 20 16 11 0 10 -4 -3 -20z m37 15 c0 -3 -2 -5 -5
-5 -3 0 -5 2 -5 5 0 3 2 5 5 5 3 0 5 -2 5 -5z m284 -14 c-22 -21 -27 -21 -18
3 3 9 13 16 22 16 13 0 12 -3 -4 -19z m53 13 c-3 -3 -12 -4 -19 -1 -8 3 -5 6
6 6 11 1 17 -2 13 -5z m69 -14 c24 -18 37 -47 21 -46 -7 1 -26 15 -44 32 -23
23 -27 31 -15 30 9 -1 26 -8 38 -16z m204 11 c0 -5 -7 -14 -15 -21 -16 -14
-18 -10 -9 14 6 17 24 22 24 7z m30 4 c0 -3 -2 -5 -5 -5 -3 0 -5 2 -5 5 0 3 2
5 5 5 3 0 5 -2 5 -5z m-120 -15 c0 -5 -11 -12 -24 -16 -17 -4 -23 -11 -19 -22
4 -9 2 -13 -4 -9 -6 4 -14 1 -16 -5 -4 -9 -6 -8 -6 2 -1 20 9 34 34 48 25 14
35 15 35 2z m-524 -48 c-23 -23 -33 -6 -10 19 12 13 20 16 22 9 3 -7 -3 -19
-12 -28z m59 -1 c-10 -16 -25 -3 -25 22 0 20 1 20 16 5 9 -9 13 -21 9 -27z
m175 34 c0 -3 -2 -5 -5 -5 -3 0 -5 2 -5 5 0 3 2 5 5 5 3 0 5 -2 5 -5z m86 -33
c-23 -23 -33 -6 -10 19 12 13 20 16 22 9 3 -7 -3 -19 -12 -28z m320 0 c-23
-23 -33 -6 -10 19 12 13 20 16 22 9 3 -7 -3 -19 -12 -28z m59 -1 c-10 -16 -25
-3 -25 22 0 20 1 20 16 5 9 -9 13 -21 9 -27z m-320 11 c0 -18 -20 -15 -23 4
-3 10 1 15 10 12 7 -3 13 -10 13 -16z m-145 4 c0 -3 -5 -8 -12 -12 -7 -4 -8
-3 -4 4 7 12 16 16 16 8z m340 0 c0 -2 -9 -6 -20 -9 -11 -3 -20 -1 -20 4 0 5
9 9 20 9 11 0 20 -2 20 -4z m-275 -83 c7 -7 15 -10 19 -8 3 3 2 0 -4 -7 -7 -9
-16 -6 -33 10 -18 17 -26 19 -35 10 -9 -9 -12 -9 -12 0 0 7 7 15 15 18 8 4 15
16 16 28 0 17 3 15 11 -9 6 -16 17 -35 23 -42z m292 50 c-4 -3 -7 0 -7 7 0 7
3 10 7 7 3 -4 3 -10 0 -14z m-549 -5 c19 -19 14 -25 -18 -25 -16 0 -30 6 -30
12 0 26 28 33 48 13z m320 0 c19 -19 14 -25 -18 -25 -16 0 -30 6 -30 12 0 26
28 33 48 13z m142 7 c0 -3 -2 -5 -5 -5 -3 0 -5 2 -5 5 0 3 2 5 5 5 3 0 5 -2 5
-5z m20 0 c0 -3 -2 -5 -5 -5 -3 0 -5 2 -5 5 0 3 2 5 5 5 3 0 5 -2 5 -5z m158
-7 c19 -19 14 -25 -18 -25 -16 0 -30 6 -30 12 0 26 28 33 48 13z m-592 -24
c-4 -9 -9 -15 -11 -12 -3 3 -3 13 1 22 4 9 9 15 11 12 3 -3 3 -13 -1 -22z
m114 21 c0 -3 -2 -5 -5 -5 -3 0 -5 2 -5 5 0 3 2 5 5 5 3 0 5 -2 5 -5z m219
-40 c0 -5 -3 -4 -8 4 -12 18 -24 -2 -25 -41 -1 -25 0 -26 12 -11 6 9 12 12 12
6 0 -7 -5 -15 -10 -18 -6 -4 -8 -10 -5 -15 3 -5 1 -11 -4 -14 -8 -5 -18 20
-27 67 -2 9 1 17 6 17 6 0 16 12 22 26 11 23 13 24 19 7 4 -10 8 -22 8 -28z
m307 19 c-4 -9 -9 -15 -11 -12 -3 3 -3 13 1 22 4 9 9 15 11 12 3 -3 3 -13 -1
-22z m114 21 c0 -3 -2 -5 -5 -5 -3 0 -5 2 -5 5 0 3 2 5 5 5 3 0 5 -2 5 -5z
m-680 -20 c0 -8 -2 -15 -4 -15 -2 0 -11 -3 -20 -6 -10 -4 -16 -1 -16 9 0 14
13 24 33 26 4 1 7 -6 7 -14z m320 0 c0 -8 -2 -15 -4 -15 -2 0 -11 -3 -20 -6
-10 -4 -16 -1 -16 9 0 14 13 24 33 26 4 1 7 -6 7 -14z m70 11 c0 -3 -5 -8 -12
-12 -7 -4 -8 -3 -4 4 7 12 16 16 16 8z m47 -3 c-9 -8 23 -44 34 -38 4 3 10 2
13 -3 10 -17 -33 -10 -50 9 -13 14 -20 16 -31 8 -10 -9 -13 -8 -13 0 0 6 10
16 23 21 28 11 32 12 24 3z m203 -8 c0 -8 -2 -15 -4 -15 -2 0 -11 -3 -20 -6
-10 -4 -16 -1 -16 9 0 14 13 24 33 26 4 1 7 -6 7 -14z m-580 0 c0 -3 -2 -5 -5
-5 -3 0 -5 2 -5 5 0 3 2 5 5 5 3 0 5 -2 5 -5z m640 0 c0 -3 -2 -5 -5 -5 -3 0
-5 2 -5 5 0 3 2 5 5 5 3 0 5 -2 5 -5z m-760 -20 c0 -3 -2 -5 -5 -5 -3 0 -5 2
-5 5 0 3 2 5 5 5 3 0 5 -2 5 -5z m87 -12 c-4 -3 -7 0 -7 7 0 7 3 10 7 7 3 -4
3 -10 0 -14z m343 2 c14 -16 10 -18 -14 -9 -9 3 -16 10 -16 15 0 14 16 11 30
-6z m210 10 c0 -3 -2 -5 -5 -5 -3 0 -5 2 -5 5 0 3 2 5 5 5 3 0 5 -2 5 -5z m87
-12 c-4 -3 -7 0 -7 7 0 7 3 10 7 7 3 -4 3 -10 0 -14z m-762 -14 c1 -8 7 -13
13 -11 10 2 10 -3 3 -17 -6 -10 -8 -21 -5 -24 3 -3 0 -8 -7 -13 -9 -5 -11 -1
-7 14 4 12 2 19 -3 16 -10 -6 -29 36 -22 49 7 12 28 2 28 -14z m150 11 c3 -5
1 -10 -4 -10 -6 0 -11 5 -11 10 0 6 2 10 4 10 3 0 8 -4 11 -10z m492 -13 c1
-9 5 -25 7 -34 7 -36 -7 -34 -25 3 -9 21 -15 42 -12 47 8 13 26 3 30 -16z
m148 13 c3 -5 1 -10 -4 -10 -6 0 -11 5 -11 10 0 6 2 10 4 10 3 0 8 -4 11 -10z
m-664 -20 c25 -14 25 -50 0 -50 -11 0 -23 5 -26 10 -4 6 -14 9 -23 8 -15 -3
-23 17 -15 35 6 10 41 9 64 -3z m325 -6 c10 -8 12 -12 4 -8 -13 7 -13 5 -1 -9
11 -14 11 -18 -3 -23 -9 -3 -23 -1 -31 6 -8 6 -19 9 -24 6 -13 -8 -24 11 -17
29 7 20 47 19 72 -1z m310 1 c4 -8 10 -12 15 -9 5 3 9 -4 9 -15 0 -22 -33 -30
-45 -11 -4 6 -15 8 -26 5 -16 -5 -18 -2 -15 17 3 13 5 24 5 26 3 10 53 -1 57
-13z m-96 0 c0 -3 -2 -5 -5 -5 -3 0 -5 2 -5 5 0 3 2 5 5 5 3 0 5 -2 5 -5z
m-750 -10 c0 -3 -2 -5 -5 -5 -3 0 -5 2 -5 5 0 3 2 5 5 5 3 0 5 -2 5 -5z m583
-10 c4 -8 2 -17 -3 -20 -6 -4 -10 3 -10 14 0 25 6 27 13 6z m-536 -41 c-10
-10 -37 16 -37 34 0 13 4 12 22 -5 12 -13 19 -25 15 -29z m233 31 c0 -2 -7 -5
-15 -9 -9 -3 -15 0 -15 9 0 9 6 12 15 9 8 -4 15 -7 15 -9z m87 -31 c-10 -10
-37 16 -37 34 0 13 4 12 22 -5 12 -13 19 -25 15 -29z m320 0 c-10 -10 -37 16
-37 34 0 13 4 12 22 -5 12 -13 19 -25 15 -29z m-707 31 c0 -3 -2 -5 -5 -5 -3
0 -5 2 -5 5 0 3 2 5 5 5 3 0 5 -2 5 -5z m1 -48 c-8 -8 -11 -7 -11 4 0 20 13
34 18 19 3 -7 -1 -17 -7 -23z m193 -16 c-2 -2 -12 3 -22 12 -10 10 -21 15 -24
12 -2 -3 -5 1 -5 9 0 11 7 9 27 -7 15 -12 26 -24 24 -26z m127 16 c-8 -8 -11
-7 -11 4 0 20 13 34 18 19 3 -7 -1 -17 -7 -23z m149 28 c0 -3 -2 -5 -5 -5 -3
0 -5 2 -5 5 0 3 2 5 5 5 3 0 5 -2 5 -5z m171 -28 c-8 -8 -11 -7 -11 4 0 20 13
34 18 19 3 -7 -1 -17 -7 -23z m193 -16 c-2 -2 -12 3 -22 12 -10 10 -22 14 -27
10 -4 -5 -5 -2 -1 5 6 9 13 8 31 -5 13 -10 21 -20 19 -22z m-775 15 c10 -11 6
-17 -19 -29 -28 -14 -30 -14 -30 2 0 17 18 41 31 41 4 0 12 -6 18 -14z m51 9
c0 -3 -2 -5 -5 -5 -3 0 -5 2 -5 5 0 3 2 5 5 5 3 0 5 -2 5 -5z m167 -12 c-4 -3
-7 0 -7 7 0 7 3 10 7 7 3 -4 3 -10 0 -14z m102 3 c10 -11 6 -17 -19 -29 -28
-14 -30 -14 -30 2 0 17 18 41 31 41 4 0 12 -6 18 -14z m135 -15 c-2 -3 -12 3
-22 13 -16 17 -16 18 5 5 12 -7 20 -15 17 -18z m83 12 c-4 -3 -7 0 -7 7 0 7 3
10 7 7 3 -4 3 -10 0 -14z m102 3 c10 -11 6 -17 -19 -29 -28 -14 -30 -14 -30 2
0 17 18 41 31 41 4 0 12 -6 18 -14z m51 9 c0 -3 -2 -5 -5 -5 -3 0 -5 2 -5 5 0
3 2 5 5 5 3 0 5 -2 5 -5z m-630 -20 c0 -3 -2 -5 -5 -5 -3 0 -5 2 -5 5 0 3 2 5
5 5 3 0 5 -2 5 -5z m130 0 c0 -3 -2 -5 -5 -5 -3 0 -5 2 -5 5 0 3 2 5 5 5 3 0
5 -2 5 -5z m180 0 c0 -3 -2 -5 -5 -5 -3 0 -5 2 -5 5 0 3 2 5 5 5 3 0 5 -2 5
-5z m120 0 c0 -3 -2 -5 -5 -5 -3 0 -5 2 -5 5 0 3 2 5 5 5 3 0 5 -2 5 -5z"/>
<path d="M300 905 c0 -3 2 -5 5 -5 3 0 5 2 5 5 0 3 -2 5 -5 5 -3 0 -5 -2 -5
-5z"/>
<path d="M720 905 c0 -3 2 -5 5 -5 3 0 5 2 5 5 0 3 -2 5 -5 5 -3 0 -5 -2 -5
-5z"/>
<path d="M790 125 c0 -3 2 -5 5 -5 3 0 5 2 5 5 0 3 -2 5 -5 5 -3 0 -5 -2 -5
-5z"/>
<path d="M280 135 c0 -3 2 -5 5 -5 3 0 5 2 5 5 0 3 -2 5 -5 5 -3 0 -5 -2 -5
-5z"/>
</g>
<g transform="translate(0.000000,96.000000) scale(0.100000,-0.100000)"
fill="#5c483b" stroke="none">
<path d="M0 950 c0 -5 4 -10 9 -10 6 0 13 5 16 10 3 6 -1 10 -9 10 -9 0 -16
-4 -16 -10z"/>
<path d="M175 950 c3 -5 8 -10 11 -10 3 0 2 5 -1 10 -3 6 -8 10 -11 10 -3 0
-2 -4 1 -10z"/>
<path d="M212 948 c-12 -12 -17 -48 -6 -48 10 0 42 45 37 52 -6 11 -17 10 -31
-4z"/>
<path d="M278 953 c21 -4 32 -23 13 -23 -19 0 -17 -26 3 -45 12 -11 20 -18 19
-16 -2 2 5 10 15 18 16 12 15 13 -7 11 -36 -4 -37 19 -2 37 17 8 31 18 31 20
0 3 -21 4 -47 4 -27 -1 -38 -4 -25 -6z"/>
<path d="M495 950 c3 -5 8 -10 11 -10 3 0 2 5 -1 10 -3 6 -8 10 -11 10 -3 0
-2 -4 1 -10z"/>
<path d="M532 948 c-12 -12 -17 -48 -6 -48 10 0 42 45 37 52 -6 11 -17 10 -31
-4z"/>
<path d="M610 950 c14 -4 20 -8 13 -9 -7 -1 -18 -11 -24 -23 -12 -22 -11 -22
8 -5 21 19 38 23 28 7 -3 -5 -1 -10 5 -10 7 0 10 6 7 13 -2 6 3 17 12 24 13
10 8 12 -29 12 -37 -1 -41 -2 -20 -9z"/>
<path d="M815 950 c3 -5 8 -10 11 -10 3 0 2 5 -1 10 -3 6 -8 10 -11 10 -3 0
-2 -4 1 -10z"/>
<path d="M852 948 c-12 -12 -17 -48 -6 -48 10 0 42 45 37 52 -6 11 -17 10 -31
-4z"/>
<path d="M922 953 c14 -4 15 -8 5 -23 -9 -15 -9 -22 1 -32 6 -6 12 -21 12 -32
0 -24 13 -13 17 15 2 11 -1 18 -6 14 -18 -10 -23 16 -7 34 23 25 20 31 -11 30
-17 -1 -21 -3 -11 -6z"/>
<path d="M62 939 c-49 -18 -10 -129 46 -129 39 0 84 88 57 110 -22 18 -78 28
-103 19z m24 -47 c-23 -23 -33 -6 -10 19 12 13 20 16 22 9 3 -7 -3 -19 -12
-28z m57 -19 c-5 -28 -9 -33 -34 -33 -34 0 -41 29 -9 37 14 4 20 14 20 31 0
23 2 24 14 12 9 -10 12 -27 9 -47z"/>
<path d="M367 933 c-17 -16 -6 -75 18 -98 42 -43 80 -27 103 42 9 26 7 34 -7
47 -18 16 -101 23 -114 9z m39 -41 c-23 -23 -33 -6 -10 19 12 13 20 16 22 9 3
-7 -3 -19 -12 -28z m57 -19 c-5 -32 -30 -47 -53 -33 -17 10 -5 40 15 40 10 0
15 9 15 27 0 24 2 25 14 13 9 -9 12 -27 9 -47z"/>
<path d="M687 933 c-17 -16 -6 -75 18 -98 41 -42 80 -27 102 40 14 43 -10 65
-69 65 -24 0 -48 -3 -51 -7z m39 -41 c-23 -23 -33 -6 -10 19 12 13 20 16 22 9
3 -7 -3 -19 -12 -28z m59 -1 c-10 -16 -25 -3 -25 22 0 20 1 20 16 5 9 -9 13
-21 9 -27z m-7 -32 c3 -18 -29 -31 -48 -19 -7 4 -10 16 -7 25 9 21 51 16 55
-6z"/>
<path d="M0 920 c0 -7 3 -10 7 -7 3 4 3 10 0 14 -4 3 -7 0 -7 -7z"/>
<path d="M313 913 c4 -3 10 -3 14 0 3 4 0 7 -7 7 -7 0 -10 -3 -7 -7z"/>
<path d="M950 915 c0 -3 2 -5 5 -5 3 0 5 2 5 5 0 3 -2 5 -5 5 -3 0 -5 -2 -5
-5z"/>
<path d="M13 903 c-16 -6 -17 -29 -1 -39 7 -4 8 -3 4 5 -4 6 -2 18 4 26 13 16
12 16 -7 8z"/>
<path d="M645 901 c-11 -5 -23 -7 -27 -5 -3 2 -4 -5 -1 -16 4 -13 13 -19 28
-18 13 1 21 6 19 10 -3 4 -12 4 -22 1 -10 -4 -7 2 8 15 27 23 26 25 -5 13z"/>
<path d="M188 884 c-4 -3 -4 -22 -1 -41 4 -24 3 -34 -4 -30 -7 4 -10 -5 -9
-25 1 -39 51 -88 88 -88 32 0 58 29 58 63 0 19 4 25 15 21 8 -4 12 -11 9 -16
-4 -6 2 -5 14 1 32 17 33 26 8 50 -17 16 -26 19 -31 11 -4 -7 -10 -8 -14 -3
-22 32 -118 73 -133 57z m62 -39 c0 -8 -2 -15 -4 -15 -2 0 -11 -3 -20 -6 -10
-4 -16 -1 -16 9 0 14 13 24 33 26 4 1 7 -6 7 -14z m44 -11 c9 -3 16 -13 16
-21 0 -10 -6 -13 -16 -9 -9 3 -18 6 -20 6 -2 0 -4 7 -4 15 0 17 2 18 24 9z
m-13 -44 c25 -14 25 -50 0 -50 -11 0 -23 5 -26 10 -4 6 -15 8 -25 5 -23 -7
-35 11 -20 30 15 18 43 19 71 5z m-41 -55 c0 -3 -2 -5 -5 -5 -3 0 -5 2 -5 5 0
3 2 5 5 5 3 0 5 -2 5 -5z"/>
<path d="M508 884 c-4 -3 -4 -21 -1 -39 3 -20 1 -35 -7 -40 -9 -6 -11 -4 -5 5
6 9 4 11 -5 5 -10 -6 -10 -10 3 -20 10 -7 12 -16 7 -24 -11 -18 50 -71 82 -71
30 0 58 28 58 58 0 19 4 21 25 16 33 -8 44 19 20 46 -13 14 -22 17 -31 10 -6
-6 -14 -7 -16 -3 -11 28 -114 73 -130 57z m62 -39 c0 -8 -2 -15 -4 -15 -2 0
-11 -3 -20 -6 -10 -4 -16 -1 -16 9 0 14 13 24 33 26 4 1 7 -6 7 -14z m44 -11
c9 -3 16 -13 16 -21 0 -10 -6 -13 -16 -9 -9 3 -18 6 -20 6 -2 0 -4 7 -4 15 0
17 2 18 24 9z m-6 -46 c19 -19 15 -48 -7 -48 -11 0 -23 5 -26 10 -4 6 -15 8
-25 5 -23 -7 -35 11 -20 30 15 18 61 20 78 3z m42 7 c0 -3 -2 -5 -5 -5 -3 0
-5 2 -5 5 0 3 2 5 5 5 3 0 5 -2 5 -5z"/>
<path d="M828 884 c-4 -3 -4 -22 -1 -41 4 -25 3 -34 -5 -29 -6 3 -13 2 -17 -4
-3 -6 1 -13 9 -16 11 -4 13 -11 7 -21 -6 -12 0 -24 24 -44 62 -55 115 -29 115
57 0 44 -3 51 -33 70 -36 23 -89 39 -99 28z m62 -39 c0 -8 -2 -15 -4 -15 -2 0
-11 -3 -20 -6 -10 -4 -16 -1 -16 9 0 14 13 24 33 26 4 1 7 -6 7 -14z m44 -11
c9 -3 16 -13 16 -21 0 -10 -6 -13 -16 -9 -9 3 -18 6 -20 6 -2 0 -4 7 -4 15 0
17 2 18 24 9z m-13 -44 c25 -14 25 -50 0 -50 -11 0 -23 5 -26 10 -4 6 -15 8
-25 5 -23 -7 -35 11 -20 30 15 18 43 19 71 5z"/>
<path d="M335 870 c-3 -5 -1 -10 4 -10 6 0 11 5 11 10 0 6 -2 10 -4 10 -3 0
-8 -4 -11 -10z"/>
<path d="M14 828 c-12 -19 -16 -50 -5 -44 5 3 12 -1 15 -10 5 -13 9 -14 21 -4
20 17 19 33 -4 54 -15 14 -21 15 -27 4z"/>
<path d="M50 755 c-18 -19 -36 -33 -39 -31 -3 2 -7 -21 -9 -51 -2 -41 1 -54
10 -50 7 2 12 12 11 22 -1 12 2 14 10 6 6 -6 26 -11 43 -11 46 0 78 41 69 90
-13 70 -44 78 -95 25z m67 -31 c-10 -10 -37 16 -37 34 0 13 4 12 22 -5 12 -13
19 -25 15 -29z m-66 -17 c-8 -8 -11 -7 -11 4 0 20 13 34 18 19 3 -7 -1 -17 -7
-23z m63 -10 c8 -13 6 -21 -7 -34 -10 -10 -17 -12 -17 -5 0 6 -7 9 -15 6 -19
-7 -21 26 -3 44 15 15 28 11 42 -11z"/>
<path d="M381 766 c-13 -14 -28 -23 -35 -22 -6 2 -8 1 -4 -1 3 -2 0 -16 -7
-30 -8 -15 -12 -30 -9 -35 3 -5 2 -7 -3 -6 -12 3 -53 -21 -53 -32 0 -6 10 -10
23 -11 12 0 16 -3 9 -6 -7 -2 -17 -13 -22 -24 -8 -14 -1 -12 34 11 28 19 57
30 79 30 49 0 81 40 72 90 -12 65 -44 78 -84 36z m56 -42 c-10 -10 -37 16 -37
34 0 13 4 12 22 -5 12 -13 19 -25 15 -29z m-66 -17 c-8 -8 -11 -7 -11 4 0 20
13 34 18 19 3 -7 -1 -17 -7 -23z m57 1 c17 -17 15 -35 -4 -42 -10 -4 -13 -2
-8 7 5 9 4 9 -7 0 -18 -18 -29 -16 -29 5 0 17 18 42 30 42 3 0 11 -5 18 -12z
m-78 -53 c0 -3 -2 -5 -5 -5 -3 0 -5 2 -5 5 0 3 2 5 5 5 3 0 5 -2 5 -5z"/>
<path d="M705 770 c-10 -11 -22 -17 -28 -13 -5 3 -7 1 -4 -4 4 -6 0 -16 -8
-23 -8 -7 -15 -18 -15 -26 0 -7 -13 -22 -30 -34 -36 -25 -38 -40 -7 -41 12 0
16 -3 9 -6 -7 -2 -17 -13 -22 -24 -9 -16 -5 -15 27 7 49 33 48 31 32 51 -13
17 -13 17 7 1 54 -46 132 1 119 72 -12 62 -45 79 -80 40z m52 -46 c-10 -10
-37 16 -37 34 0 13 4 12 22 -5 12 -13 19 -25 15 -29z m-66 -17 c-8 -8 -11 -7
-11 4 0 20 13 34 18 19 3 -7 -1 -17 -7 -23z m57 1 c14 -14 16 -42 2 -33 -5 3
-10 2 -10 -2 0 -5 -9 -9 -20 -10 -13 -1 -20 4 -20 16 0 16 18 41 30 41 3 0 11
-5 18 -12z"/>
<path d="M10 745 c0 -3 2 -5 5 -5 3 0 5 2 5 5 0 3 -2 5 -5 5 -3 0 -5 -2 -5 -5z"/>
<path d="M650 745 c0 -3 2 -5 5 -5 3 0 5 2 5 5 0 3 -2 5 -5 5 -3 0 -5 -2 -5
-5z"/>
<path d="M171 718 c9 -17 9 -23 0 -26 -8 -3 -5 -12 9 -27 18 -20 26 -22 45
-13 23 10 23 10 -16 49 -44 44 -55 49 -38 17z"/>
<path d="M489 726 c6 -7 8 -21 5 -30 -7 -18 23 -59 37 -50 5 3 9 1 9 -5 0 -5
-4 -13 -10 -16 -11 -7 -14 -45 -4 -45 3 0 14 10 24 23 14 17 16 25 7 36 -9 11
-9 15 0 18 7 3 -5 21 -28 44 -37 37 -64 54 -40 25z"/>
<path d="M806 725 c4 -8 11 -15 18 -15 6 0 3 -7 -6 -14 -16 -12 -16 -15 7 -36
23 -21 27 -22 41 -9 13 14 11 19 -20 52 -37 40 -49 46 -40 22z"/>
<path d="M630 705 c0 -3 2 -5 5 -5 3 0 5 2 5 5 0 3 -2 5 -5 5 -3 0 -5 -2 -5
-5z"/>
<path d="M950 705 c0 -3 2 -5 5 -5 3 0 5 2 5 5 0 3 -2 5 -5 5 -3 0 -5 -2 -5
-5z"/>
<path d="M933 663 c-26 -18 -30 -33 -8 -33 19 0 19 -7 -1 -27 -14 -15 -14 -17
0 -25 9 -5 16 -16 16 -23 0 -23 16 -18 17 5 1 11 -2 18 -7 15 -17 -11 -23 18
-6 31 11 8 16 23 14 42 -3 28 -4 29 -25 15z"/>
<path d="M217 632 c-17 -19 -23 -52 -9 -52 14 1 40 47 33 59 -5 8 -12 6 -24
-7z"/>
<path d="M173 633 c4 -3 10 -3 14 0 3 4 0 7 -7 7 -7 0 -10 -3 -7 -7z"/>
<path d="M495 630 c3 -5 8 -10 11 -10 3 0 2 5 -1 10 -3 6 -8 10 -11 10 -3 0
-2 -4 1 -10z"/>
<path d="M815 630 c3 -5 8 -10 11 -10 3 0 2 5 -1 10 -3 6 -8 10 -11 10 -3 0
-2 -4 1 -10z"/>
<path d="M852 628 c-12 -12 -17 -48 -6 -48 8 0 43 43 44 53 0 11 -25 8 -38 -5z"/>
<path d="M47 613 c-17 -16 -6 -75 18 -98 42 -43 80 -27 103 42 9 28 8 33 -13
47 -24 16 -96 22 -108 9z m39 -41 c-23 -23 -33 -6 -10 19 12 13 20 16 22 9 3
-7 -3 -19 -12 -28z m57 -19 c-5 -32 -30 -47 -53 -33 -17 10 -5 40 15 40 10 0
15 9 15 27 0 24 2 25 14 13 9 -9 12 -27 9 -47z"/>
<path d="M100 525 c0 -3 2 -5 5 -5 3 0 5 2 5 5 0 3 -2 5 -5 5 -3 0 -5 -2 -5
-5z"/>
<path d="M367 613 c-17 -16 -6 -75 18 -98 42 -43 80 -27 103 42 9 26 7 34 -7
47 -18 16 -101 23 -114 9z m39 -41 c-23 -23 -33 -6 -10 19 12 13 20 16 22 9 3
-7 -3 -19 -12 -28z m57 -19 c-5 -32 -30 -47 -53 -33 -17 10 -5 40 15 40 10 0
15 9 15 27 0 24 2 25 14 13 9 -9 12 -27 9 -47z"/>
<path d="M687 613 c-17 -16 -6 -75 18 -98 41 -42 80 -27 102 40 14 43 -10 65
-69 65 -24 0 -48 -3 -51 -7z m39 -41 c-23 -23 -33 -6 -10 19 12 13 20 16 22 9
3 -7 -3 -19 -12 -28z m58 -4 c-5 -7 -7 -20 -6 -29 3 -18 -29 -31 -48 -19 -17
10 -5 40 15 40 10 0 15 9 15 27 0 25 1 26 16 11 10 -10 13 -21 8 -30z"/>
<path d="M0 600 c0 -7 3 -10 7 -7 3 4 3 10 0 14 -4 3 -7 0 -7 -7z"/>
<path d="M315 600 c-3 -5 1 -10 10 -10 9 0 13 5 10 10 -3 6 -8 10 -10 10 -2 0
-7 -4 -10 -10z"/>
<path d="M633 593 c4 -3 10 -3 14 0 3 4 0 7 -7 7 -7 0 -10 -3 -7 -7z"/>
<path d="M950 595 c0 -3 2 -5 5 -5 3 0 5 2 5 5 0 3 -2 5 -5 5 -3 0 -5 -2 -5
-5z"/>
<path d="M11 581 c-8 -5 -11 -16 -7 -26 8 -21 19 -13 21 15 1 11 1 20 1 20 -1
0 -7 -4 -15 -9z m9 -26 c0 -3 -2 -5 -5 -5 -3 0 -5 2 -5 5 0 3 2 5 5 5 3 0 5
-2 5 -5z"/>
<path d="M645 581 c-11 -5 -23 -7 -27 -5 -3 2 -4 -5 -1 -16 4 -13 13 -19 28
-18 13 1 21 6 19 10 -3 4 -12 4 -22 1 -10 -4 -7 2 8 15 27 23 26 25 -5 13z"/>
<path d="M283 566 c-4 -5 -1 -6 4 -3 6 4 13 1 16 -7 9 -22 -4 -27 -29 -11 -13
8 -38 16 -56 17 -32 3 -33 2 -30 -35 2 -21 0 -36 -5 -35 -12 4 -15 -5 -7 -25
3 -10 4 -20 1 -23 -11 -11 61 -64 85 -64 32 0 58 29 58 66 1 26 2 27 14 12 12
-16 15 -16 35 -2 l22 16 -22 24 c-14 15 -26 20 -33 15 -7 -6 -16 -4 -24 5 -10
11 -9 15 7 23 10 6 22 7 26 3 5 -4 5 -2 1 5 -4 7 -14 9 -24 6 -13 -4 -13 -2 3
10 19 16 19 16 -8 14 -16 -1 -31 -6 -34 -11z m-33 -41 c0 -8 -2 -15 -4 -15 -2
0 -11 -3 -20 -6 -10 -4 -16 -1 -16 9 0 14 13 24 33 26 4 1 7 -6 7 -14z m44
-11 c9 -3 16 -13 16 -21 0 -10 -6 -13 -16 -9 -9 3 -18 6 -20 6 -2 0 -4 7 -4
15 0 17 2 18 24 9z m-13 -44 c25 -14 25 -50 0 -50 -11 0 -23 5 -26 10 -4 6
-15 8 -25 5 -23 -7 -35 11 -20 30 15 18 43 19 71 5z"/>
<path d="M507 564 c-4 -4 -4 -18 -1 -31 5 -17 1 -29 -12 -39 -11 -9 -13 -12
-6 -9 10 5 13 0 10 -21 -4 -35 46 -84 84 -84 30 0 58 28 58 58 0 12 5 22 10
22 6 0 10 -5 10 -10 0 -7 6 -7 20 0 25 13 25 32 1 54 -14 13 -21 14 -26 6 -4
-7 -10 -8 -14 -3 -22 33 -118 73 -134 57z m63 -39 c0 -8 -2 -15 -4 -15 -2 0
-11 -3 -20 -6 -10 -4 -16 -1 -16 9 0 14 13 24 33 26 4 1 7 -6 7 -14z m44 -11
c9 -3 16 -13 16 -21 0 -10 -6 -13 -16 -9 -9 3 -18 6 -20 6 -2 0 -4 7 -4 15 0
17 2 18 24 9z m-6 -46 c19 -19 15 -48 -7 -48 -11 0 -23 5 -26 10 -4 6 -15 8
-25 5 -23 -7 -35 11 -20 30 15 18 61 20 78 3z m42 7 c0 -3 -2 -5 -5 -5 -3 0
-5 2 -5 5 0 3 2 5 5 5 3 0 5 -2 5 -5z"/>
<path d="M828 564 c-4 -3 -4 -20 -1 -37 5 -25 3 -29 -9 -24 -19 7 -18 -20 0
-32 6 -4 8 -12 3 -20 -12 -18 49 -71 81 -71 38 0 58 29 58 86 0 44 -3 51 -33
70 -36 24 -89 38 -99 28z m62 -39 c0 -8 -2 -15 -4 -15 -2 0 -11 -3 -20 -6 -10
-4 -16 -1 -16 9 0 14 13 24 33 26 4 1 7 -6 7 -14z m44 -11 c9 -3 16 -13 16
-21 0 -10 -6 -13 -16 -9 -9 3 -18 6 -20 6 -2 0 -4 7 -4 15 0 17 2 18 24 9z
m-114 -29 c0 -3 -2 -5 -5 -5 -3 0 -5 2 -5 5 0 3 2 5 5 5 3 0 5 -2 5 -5z m101
-15 c25 -14 25 -50 0 -50 -11 0 -23 5 -26 10 -4 6 -15 8 -25 5 -23 -7 -35 11
-20 30 15 18 43 19 71 5z"/>
<path d="M11 506 c-21 -25 -4 -56 32 -56 23 0 22 32 -2 54 -15 14 -20 14 -30
2z"/>
<path d="M46 431 c-30 -31 -39 -49 -44 -86 -4 -38 -2 -47 9 -43 8 3 13 10 12
14 -1 5 16 8 38 6 46 -5 66 9 86 57 10 24 17 31 25 23 8 -8 8 -15 0 -25 -9
-11 -6 -19 13 -37 23 -21 27 -22 41 -9 13 14 11 19 -20 52 -22 24 -40 35 -50
31 -11 -4 -16 0 -16 13 0 23 -18 43 -40 43 -9 0 -33 -18 -54 -39z m71 -27
c-10 -10 -37 16 -37 34 0 13 4 12 22 -5 12 -13 19 -25 15 -29z m-66 -17 c-8
-8 -11 -7 -11 4 0 20 13 34 18 19 3 -7 -1 -17 -7 -23z m57 1 c17 -17 15 -35
-4 -42 -10 -4 -13 -2 -8 7 5 9 4 9 -7 0 -18 -18 -29 -16 -29 5 0 17 18 42 30
42 3 0 11 -5 18 -12z"/>
<path d="M370 435 c-18 -19 -36 -32 -40 -30 -3 2 -5 -9 -4 -26 1 -16 -1 -27
-5 -24 -10 5 -51 -23 -51 -36 0 -5 7 -9 15 -9 14 0 13 -3 -1 -25 l-17 -26 42
28 c28 18 40 32 36 42 -5 13 -4 14 6 4 7 -7 28 -13 45 -13 46 0 78 41 69 90
-13 70 -44 78 -95 25z m67 -31 c-10 -10 -37 16 -37 34 0 13 4 12 22 -5 12 -13
19 -25 15 -29z m-66 -17 c-8 -8 -11 -7 -11 4 0 9 3 19 7 23 4 4 9 2 11 -4 3
-7 -1 -17 -7 -23z m57 1 c17 -17 15 -35 -4 -42 -9 -4 -13 -2 -8 5 4 8 0 7 -15
0 -18 -10 -21 -9 -21 7 0 17 18 42 30 42 3 0 11 -5 18 -12z"/>
<path d="M687 432 c-20 -21 -37 -43 -37 -48 0 -6 -9 -19 -20 -29 -11 -10 -20
-14 -20 -9 0 11 -20 -17 -20 -28 0 -5 7 -8 15 -8 13 0 13 -3 3 -20 -10 -15
-10 -22 0 -32 6 -6 12 -20 12 -31 0 -10 5 -15 10 -12 6 4 7 12 3 18 -4 7 2 5
13 -3 10 -8 16 -11 12 -6 -4 5 -3 17 2 26 11 20 -13 50 -25 30 -3 -5 2 -10 12
-11 16 0 16 -1 -2 -9 -11 -4 -24 -4 -29 1 -11 10 11 39 30 39 20 0 27 19 13
38 -12 15 -12 15 7 0 54 -46 132 1 119 72 -14 71 -43 78 -98 22z m70 -28 c-10
-10 -37 16 -37 34 0 13 4 12 22 -5 12 -13 19 -25 15 -29z m-66 -17 c-8 -8 -11
-7 -11 4 0 20 13 34 18 19 3 -7 -1 -17 -7 -23z m57 1 c14 -14 16 -42 2 -33 -5
3 -10 2 -10 -2 0 -5 -9 -9 -20 -10 -13 -1 -20 4 -20 16 0 16 18 41 30 41 3 0
11 -5 18 -12z"/>
<path d="M10 425 c0 -3 2 -5 5 -5 3 0 5 2 5 5 0 3 -2 5 -5 5 -3 0 -5 -2 -5 -5z"/>
<path d="M330 425 c0 -3 2 -5 5 -5 3 0 5 2 5 5 0 3 -2 5 -5 5 -3 0 -5 -2 -5
-5z"/>
<path d="M650 425 c0 -3 2 -5 5 -5 3 0 5 2 5 5 0 3 -2 5 -5 5 -3 0 -5 -2 -5
-5z"/>
<path d="M489 406 c6 -7 8 -21 5 -30 -7 -18 23 -59 37 -50 5 3 9 1 9 -5 0 -5
-4 -13 -10 -16 -11 -7 -14 -45 -4 -45 3 0 14 10 24 23 14 17 16 25 7 36 -9 11
-9 15 0 18 7 3 -5 21 -28 44 -37 37 -64 54 -40 25z"/>
<path d="M806 405 c4 -8 11 -15 18 -15 6 0 3 -7 -6 -14 -16 -12 -16 -15 7 -36
l25 -24 22 22 c19 19 20 22 6 22 -10 0 -27 14 -40 30 -23 32 -41 40 -32 15z"/>
<path d="M304 378 c-4 -7 -3 -8 4 -4 12 7 16 16 8 16 -3 0 -8 -5 -12 -12z"/>
<path d="M950 385 c0 -3 2 -5 5 -5 3 0 5 2 5 5 0 3 -2 5 -5 5 -3 0 -5 -2 -5
-5z"/>
<path d="M630 375 c0 -3 2 -5 5 -5 3 0 5 2 5 5 0 3 -2 5 -5 5 -3 0 -5 -2 -5
-5z"/>
<path d="M934 351 c3 -5 -1 -11 -9 -15 -20 -7 -19 -26 0 -26 13 0 13 -4 -2
-27 l-18 -28 27 20 c32 23 41 85 12 85 -8 0 -13 -4 -10 -9z"/>
<path d="M250 345 c0 -3 2 -5 5 -5 3 0 5 2 5 5 0 3 -2 5 -5 5 -3 0 -5 -2 -5
-5z"/>
<path d="M175 310 c3 -5 8 -10 11 -10 2 0 4 5 4 10 0 6 -5 10 -11 10 -5 0 -7
-4 -4 -10z"/>
<path d="M212 308 c-12 -12 -17 -48 -6 -48 8 0 43 43 44 53 0 11 -25 8 -38 -5z"/>
<path d="M495 310 c3 -5 8 -10 11 -10 3 0 2 5 -1 10 -3 6 -8 10 -11 10 -3 0
-2 -4 1 -10z"/>
<path d="M815 310 c3 -5 8 -10 11 -10 3 0 2 5 -1 10 -3 6 -8 10 -11 10 -3 0
-2 -4 1 -10z"/>
<path d="M852 308 c-12 -12 -17 -48 -6 -48 10 0 42 45 37 52 -6 11 -17 10 -31
-4z"/>
<path d="M382 299 c-49 -18 -10 -129 46 -129 39 0 82 84 55 109 -21 19 -75 30
-101 20z m24 -47 c-23 -23 -33 -6 -10 19 12 13 20 16 22 9 3 -7 -3 -19 -12
-28z m58 -4 c-5 -7 -7 -20 -6 -29 3 -18 -29 -31 -48 -19 -17 10 -5 40 15 40
10 0 15 9 15 27 0 25 1 26 16 11 10 -10 13 -21 8 -30z"/>
<path d="M47 293 c-17 -16 -6 -75 18 -98 42 -42 80 -27 102 41 9 26 8 33 -10
47 -21 17 -97 24 -110 10z m39 -41 c-23 -23 -33 -6 -10 19 12 13 20 16 22 9 3
-7 -3 -19 -12 -28z m57 -19 c-5 -32 -30 -47 -53 -33 -17 10 -5 40 15 40 10 0
15 9 15 27 0 24 2 25 14 13 9 -9 12 -27 9 -47z"/>
<path d="M687 293 c-17 -16 -6 -75 18 -98 42 -43 80 -27 103 42 9 26 7 34 -7
47 -18 16 -101 23 -114 9z m39 -41 c-23 -23 -33 -6 -10 19 12 13 20 16 22 9 3
-7 -3 -19 -12 -28z m57 -19 c-5 -32 -30 -47 -53 -33 -17 10 -5 40 15 40 10 0
15 9 15 27 0 24 2 25 14 13 9 -9 12 -27 9 -47z"/>
<path d="M0 280 c0 -7 3 -10 7 -7 3 4 3 10 0 14 -4 3 -7 0 -7 -7z"/>
<path d="M315 280 c-3 -5 -1 -10 4 -10 6 0 11 5 11 10 0 6 -2 10 -4 10 -3 0
-8 -4 -11 -10z"/>
<path d="M950 275 c0 -3 2 -5 5 -5 3 0 5 2 5 5 0 3 -2 5 -5 5 -3 0 -5 -2 -5
-5z"/>
<path d="M10 259 c-11 -8 -12 -12 -2 -16 6 -2 9 -10 5 -16 -3 -7 -2 -9 2 -4 7
5 16 48 11 47 -1 0 -8 -5 -16 -11z"/>
<path d="M325 261 c-11 -5 -23 -7 -27 -5 -3 2 -4 -5 -1 -16 4 -13 13 -19 28
-18 13 1 21 6 19 10 -3 4 -12 4 -22 1 -10 -4 -7 2 8 15 27 23 26 25 -5 13z"/>
<path d="M938 238 c2 -10 7 -18 11 -18 4 0 7 8 8 18 1 10 -4 19 -11 19 -8 0
-11 -8 -8 -19z"/>
<path d="M188 244 c-4 -3 -4 -22 -1 -41 4 -23 2 -34 -4 -30 -5 3 -10 0 -10 -8
0 -8 4 -15 9 -15 5 0 5 -7 0 -16 -12 -22 45 -74 80 -74 30 0 58 28 58 58 0 19
4 21 25 16 33 -8 44 19 19 47 -17 19 -19 19 -31 3 -10 -14 -13 -14 -13 -3 0
27 -114 82 -132 63z m62 -39 c0 -8 -2 -15 -4 -15 -2 0 -11 -3 -20 -6 -10 -4
-16 -1 -16 9 0 14 13 24 33 26 4 1 7 -6 7 -14z m44 -11 c9 -3 16 -13 16 -21 0
-10 -6 -13 -16 -9 -9 3 -18 6 -20 6 -2 0 -4 7 -4 15 0 17 2 18 24 9z m-6 -46
c19 -19 15 -48 -7 -48 -11 0 -23 5 -26 10 -4 6 -15 8 -25 5 -23 -7 -35 11 -20
30 15 18 61 20 78 3z m42 7 c0 -3 -2 -5 -5 -5 -3 0 -5 2 -5 5 0 3 2 5 5 5 3 0
5 -2 5 -5z"/>
<path d="M508 244 c-4 -3 -4 -22 -1 -41 4 -25 3 -34 -5 -29 -6 3 -13 2 -17 -4
-3 -6 1 -13 9 -16 11 -4 13 -11 7 -21 -11 -21 47 -73 81 -73 30 0 58 28 58 58
0 23 14 29 25 12 8 -13 35 6 35 25 0 20 -37 48 -45 35 -4 -7 -10 -8 -14 -3
-22 32 -118 73 -133 57z m62 -39 c0 -8 -2 -15 -4 -15 -2 0 -11 -3 -20 -6 -10
-4 -16 -1 -16 9 0 14 13 24 33 26 4 1 7 -6 7 -14z m44 -11 c9 -3 16 -13 16
-21 0 -10 -6 -13 -16 -9 -9 3 -18 6 -20 6 -2 0 -4 7 -4 15 0 17 2 18 24 9z
m33 -41 c-4 -3 -7 0 -7 7 0 7 3 10 7 7 3 -4 3 -10 0 -14z m-46 -3 c25 -14 25
-50 0 -50 -11 0 -23 5 -26 10 -4 6 -15 8 -25 5 -23 -7 -35 11 -20 30 15 18 43
19 71 5z"/>
<path d="M828 244 c-4 -3 -4 -22 -1 -41 4 -23 2 -34 -4 -30 -5 3 -10 0 -10 -8
0 -8 4 -15 9 -15 5 0 5 -7 0 -16 -7 -13 -2 -24 23 -45 62 -55 115 -29 115 57
0 44 -3 51 -33 70 -36 23 -89 39 -99 28z m62 -39 c0 -8 -2 -15 -4 -15 -2 0
-11 -3 -20 -6 -10 -4 -16 -1 -16 9 0 14 13 24 33 26 4 1 7 -6 7 -14z m44 -11
c9 -3 16 -13 16 -21 0 -10 -6 -13 -16 -9 -9 3 -18 6 -20 6 -2 0 -4 7 -4 15 0
17 2 18 24 9z m-6 -46 c19 -19 15 -48 -7 -48 -11 0 -23 5 -26 10 -4 6 -15 8
-25 5 -23 -7 -35 11 -20 30 15 18 61 20 78 3z"/>
<path d="M12 188 c-7 -9 -7 -21 2 -42 11 -28 11 -28 34 -9 l23 18 -24 23 c-19
18 -26 20 -35 10z"/>
<path d="M61 126 c-13 -14 -28 -23 -35 -22 -6 2 -8 1 -4 -1 3 -2 0 -16 -8 -31
-8 -15 -14 -37 -14 -49 0 -21 5 -23 54 -23 47 0 57 4 76 27 17 22 20 35 15 63
-12 65 -44 78 -84 36z m56 -42 c-10 -10 -37 16 -37 34 0 13 4 12 22 -5 12 -13
19 -25 15 -29z m-66 -17 c-8 -8 -11 -7 -11 4 0 20 13 34 18 19 3 -7 -1 -17 -7
-23z m57 1 c14 -14 16 -42 2 -33 -5 3 -10 2 -10 -2 0 -5 -9 -9 -20 -10 -13 -1
-20 4 -20 16 0 16 18 41 30 41 3 0 11 -5 18 -12z m-83 -48 c3 -5 4 -10 1 -10
-3 0 -8 5 -11 10 -3 6 -4 10 -1 10 3 0 8 -4 11 -10z"/>
<path d="M385 130 c-10 -11 -22 -17 -28 -13 -5 3 -7 1 -4 -4 4 -6 0 -16 -8
-23 -8 -7 -15 -18 -15 -25 0 -8 -15 -25 -32 -39 l-33 -26 44 0 c40 0 42 1 30
18 -13 16 -13 16 7 -1 54 -45 132 2 119 73 -12 62 -45 79 -80 40z m52 -46
c-10 -10 -37 16 -37 34 0 13 4 12 22 -5 12 -13 19 -25 15 -29z m-66 -17 c-8
-8 -11 -7 -11 4 0 20 13 34 18 19 3 -7 -1 -17 -7 -23z m63 -9 c7 -12 5 -20 -7
-33 -9 -9 -17 -12 -17 -6 0 6 -6 8 -14 5 -22 -8 -27 10 -10 35 17 24 32 24 48
-1z"/>
<path d="M690 115 c-18 -19 -37 -32 -41 -29 -5 3 -6 -3 -2 -12 5 -13 3 -15 -8
-9 -12 8 -12 6 0 -8 11 -15 11 -17 -1 -17 -8 0 -23 -9 -32 -19 -18 -19 -16
-20 63 -20 75 0 82 1 102 27 15 20 19 36 15 60 -11 70 -45 80 -96 27z m67 -31
c-10 -10 -37 16 -37 34 0 13 4 12 22 -5 12 -13 19 -25 15 -29z m-66 -17 c-8
-8 -11 -7 -11 4 0 20 13 34 18 19 3 -7 -1 -17 -7 -23z m57 1 c14 -14 16 -42 2
-33 -5 3 -10 2 -10 -2 0 -5 -9 -9 -20 -10 -13 -1 -20 4 -20 16 0 16 18 41 30
41 3 0 11 -5 18 -12z"/>
<path d="M330 105 c0 -3 2 -5 5 -5 3 0 5 2 5 5 0 3 -2 5 -5 5 -3 0 -5 -2 -5
-5z"/>
<path d="M650 105 c0 -3 2 -5 5 -5 3 0 5 2 5 5 0 3 -2 5 -5 5 -3 0 -5 -2 -5
-5z"/>
<path d="M170 85 c9 -11 10 -19 1 -28 -16 -20 32 -65 52 -49 8 7 17 9 20 5 4
-3 7 -4 7 -2 0 8 -78 89 -85 89 -4 0 -2 -7 5 -15z"/>
<path d="M483 85 c0 -8 4 -12 8 -9 4 2 10 0 13 -5 3 -5 -2 -12 -11 -15 -14 -6
-13 -9 7 -31 23 -25 36 -27 55 -11 8 7 0 21 -27 48 -43 43 -45 44 -45 23z"/>
<path d="M808 87 c6 -7 9 -22 6 -33 -3 -12 2 -27 14 -38 17 -14 24 -15 40 -5
18 11 17 14 -19 50 -37 37 -64 54 -41 26z"/>
<path d="M300 55 c0 -3 2 -5 5 -5 3 0 5 2 5 5 0 3 -2 5 -5 5 -3 0 -5 -2 -5 -5z"/>
<path d="M940 55 c0 -3 2 -5 5 -5 3 0 5 2 5 5 0 3 -2 5 -5 5 -3 0 -5 -2 -5 -5z"/>
<path d="M290 35 c0 -3 2 -5 5 -5 3 0 5 2 5 5 0 3 -2 5 -5 5 -3 0 -5 -2 -5 -5z"/>
<path d="M935 32 c3 -3 -3 -11 -13 -18 -15 -12 -14 -13 11 -14 20 0 27 5 27
18 0 10 -7 19 -15 19 -8 0 -13 -3 -10 -5z"/>
</g>
<g transform="translate(0.000000,96.000000) scale(0.100000,-0.100000)"
fill="#715a4b" stroke="none">
<path d="M0 949 c0 -5 5 -7 10 -4 5 3 10 8 10 11 0 2 -4 4 -10 4 -5 0 -10 -5
-10 -11z"/>
<path d="M224 948 c-4 -7 -3 -8 4 -4 12 7 16 16 8 16 -3 0 -8 -5 -12 -12z"/>
<path d="M308 948 c9 -9 15 -9 24 0 9 9 7 12 -12 12 -19 0 -21 -3 -12 -12z"/>
<path d="M544 948 c-4 -7 -3 -8 4 -4 12 7 16 16 8 16 -3 0 -8 -5 -12 -12z"/>
<path d="M628 948 c9 -9 15 -9 24 0 9 9 7 12 -12 12 -19 0 -21 -3 -12 -12z"/>
<path d="M930 956 c0 -2 7 -6 15 -10 8 -3 15 -1 15 4 0 6 -7 10 -15 10 -8 0
-15 -2 -15 -4z"/>
<path d="M847 943 c-11 -11 -8 -45 4 -38 6 4 8 13 5 20 -3 8 0 16 7 19 7 3 8
5 1 5 -6 1 -14 -2 -17 -6z"/>
<path d="M46 924 c-8 -22 -8 -24 6 -24 6 0 8 3 5 7 -4 3 1 12 11 19 15 12 15
13 1 14 -9 0 -20 -7 -23 -16z"/>
<path d="M98 928 c9 -9 7 -17 -10 -35 -21 -22 -16 -31 9 -15 19 12 21 62 1 62
-9 0 -9 -3 0 -12z"/>
<path d="M130 931 c0 -5 5 -13 10 -16 6 -3 10 -2 10 4 0 5 -4 13 -10 16 -5 3
-10 2 -10 -4z"/>
<path d="M200 920 c0 -19 3 -21 12 -12 9 9 9 15 0 24 -9 9 -12 7 -12 -12z"/>
<path d="M366 924 c-12 -32 -5 -66 19 -89 28 -29 56 -32 77 -7 22 25 31 55 16
50 -7 -3 -13 -13 -13 -24 0 -15 -7 -19 -36 -19 -41 -1 -43 16 -5 47 18 15 18
18 4 18 -9 0 -21 -7 -26 -16 -5 -9 -14 -14 -21 -10 -13 8 -15 36 -2 36 5 0 11
7 15 15 3 9 0 15 -8 15 -8 0 -17 -7 -20 -16z m84 -99 c0 -3 -2 -5 -5 -5 -3 0
-5 2 -5 5 0 3 2 5 5 5 3 0 5 -2 5 -5z"/>
<path d="M416 925 c4 -8 10 -15 15 -15 4 0 6 7 3 15 -4 8 -10 15 -15 15 -4 0
-6 -7 -3 -15z"/>
<path d="M450 925 c7 -9 15 -13 17 -11 7 7 -7 26 -19 26 -6 0 -6 -6 2 -15z"/>
<path d="M520 920 c0 -19 3 -21 12 -12 9 9 9 15 0 24 -9 9 -12 7 -12 -12z"/>
<path d="M686 924 c-9 -22 3 -32 14 -14 12 19 12 30 1 30 -5 0 -12 -7 -15 -16z"/>
<path d="M735 930 c3 -5 8 -10 11 -10 2 0 4 5 4 10 0 6 -5 10 -11 10 -5 0 -7
-4 -4 -10z"/>
<path d="M770 925 c7 -9 15 -13 17 -11 7 7 -7 26 -19 26 -6 0 -6 -6 2 -15z"/>
<path d="M0 915 c0 -3 2 -5 5 -5 3 0 5 2 5 5 0 3 -2 5 -5 5 -3 0 -5 -2 -5 -5z"/>
<path d="M313 913 c4 -3 10 -3 14 0 3 4 0 7 -7 7 -7 0 -10 -3 -7 -7z"/>
<path d="M630 915 c0 -3 2 -5 5 -5 3 0 5 2 5 5 0 3 -2 5 -5 5 -3 0 -5 -2 -5
-5z"/>
<path d="M950 915 c0 -3 2 -5 5 -5 3 0 5 2 5 5 0 3 -2 5 -5 5 -3 0 -5 -2 -5
-5z"/>
<path d="M730 895 c-17 -21 -8 -28 15 -11 11 8 14 15 8 19 -6 4 -16 0 -23 -8z"/>
<path d="M0 889 c0 -5 5 -7 10 -4 5 3 10 8 10 11 0 2 -4 4 -10 4 -5 0 -10 -5
-10 -11z"/>
<path d="M305 890 c-3 -5 1 -10 9 -10 8 0 18 5 21 10 3 6 -1 10 -9 10 -8 0
-18 -4 -21 -10z"/>
<path d="M625 890 c-3 -5 1 -10 9 -10 8 0 18 5 21 10 3 6 -1 10 -9 10 -8 0
-18 -4 -21 -10z"/>
<path d="M945 890 c-3 -5 -1 -10 4 -10 6 0 11 5 11 10 0 6 -2 10 -4 10 -3 0
-8 -4 -11 -10z"/>
<path d="M40 875 c0 -22 45 -65 68 -65 20 0 45 24 55 53 5 13 3 17 -5 15 -7
-3 -13 -13 -13 -24 0 -18 -7 -20 -57 -16 -10 1 -17 5 -16 10 2 12 -14 42 -23
42 -5 0 -9 -7 -9 -15z"/>
<path d="M190 880 c0 -7 3 -10 7 -7 3 4 3 10 0 14 -4 3 -7 0 -7 -7z"/>
<path d="M517 880 c-4 -8 -8 -37 -11 -63 -2 -27 -6 -51 -9 -54 -3 -2 9 -17 26
-33 29 -25 34 -27 48 -14 14 12 18 13 22 2 3 -10 9 -10 23 -2 14 8 20 25 22
65 2 52 1 55 -34 77 -20 13 -45 22 -55 19 -10 -3 -20 0 -22 7 -3 7 -7 6 -10
-4z m46 -19 c4 -1 7 -8 7 -17 0 -10 6 -14 15 -10 25 9 45 -5 45 -31 0 -16 -4
-22 -12 -17 -10 5 -10 4 -1 -6 28 -30 -25 -56 -57 -27 -12 10 -12 9 -1 -6 22
-28 7 -30 -19 -2 -23 24 -23 25 -5 45 10 11 13 20 7 20 -7 0 -12 -4 -12 -10 0
-5 -5 -10 -11 -10 -8 0 -8 5 1 15 7 8 10 25 6 39 -5 19 -2 24 12 21 9 -2 20
-4 25 -4z"/>
<path d="M550 825 c0 -3 2 -5 5 -5 3 0 5 2 5 5 0 3 -2 5 -5 5 -3 0 -5 -2 -5
-5z"/>
<path d="M587 809 c7 -7 15 -10 18 -7 3 3 -2 9 -12 12 -14 6 -15 5 -6 -5z"/>
<path d="M680 875 c0 -25 48 -67 72 -63 27 4 38 30 12 28 -31 -4 -70 1 -57 7
9 3 10 10 3 24 -13 23 -30 25 -30 4z"/>
<path d="M792 877 c-6 -7 -7 -19 -3 -26 6 -9 10 -6 14 10 8 28 3 34 -11 16z"/>
<path d="M239 861 c24 -13 30 -20 20 -25 -8 -3 -5 -4 6 -1 27 6 49 -9 42 -30
-4 -9 -3 -14 3 -10 19 12 10 34 -23 59 -19 15 -45 26 -58 26 -22 -1 -21 -2 10
-19z"/>
<path d="M830 875 c0 -3 2 -5 5 -5 3 0 5 2 5 5 0 3 -2 5 -5 5 -3 0 -5 -2 -5
-5z"/>
<path d="M873 864 c21 -11 27 -21 24 -35 -3 -10 0 -22 5 -26 6 -3 8 -2 5 3 -9
16 8 35 26 28 9 -3 18 -13 20 -22 4 -13 5 -13 6 3 1 24 -58 65 -91 65 -21 -1
-21 -2 5 -16z"/>
<path d="M189 838 c-3 -46 -6 -69 -12 -74 -11 -11 57 -63 69 -53 6 5 19 7 28
3 9 -3 23 -1 31 6 17 14 21 60 5 60 -5 0 -10 -8 -10 -18 0 -10 -12 -22 -29
-29 -25 -9 -32 -8 -47 8 -9 10 -19 17 -23 15 -3 -2 -6 6 -6 19 0 13 5 21 11
18 7 -2 15 1 20 8 4 8 3 10 -4 5 -8 -5 -12 1 -12 18 0 32 -20 45 -21 14z"/>
<path d="M829 838 c-3 -46 -6 -69 -12 -74 -3 -3 9 -18 26 -34 29 -25 34 -27
48 -14 14 12 18 13 22 2 3 -10 9 -10 23 -2 25 14 31 69 9 78 -11 4 -14 2 -8
-7 14 -22 12 -38 -5 -43 -9 -3 -24 -9 -33 -14 -12 -6 -23 -2 -37 13 -24 27
-38 67 -23 67 14 0 14 37 1 45 -5 3 -11 -4 -11 -17z"/>
<path d="M334 825 c-8 -21 7 -50 27 -50 8 0 15 8 17 18 2 10 -2 16 -9 15 -7
-2 -13 2 -14 9 0 21 -14 26 -21 8z m16 0 c0 -3 -2 -5 -5 -5 -3 0 -5 2 -5 5 0
3 2 5 5 5 3 0 5 -2 5 -5z"/>
<path d="M664 833 c3 -6 0 -13 -6 -16 -15 -5 0 -38 20 -45 23 -7 24 27 1 50
-12 13 -19 18 -15 11z"/>
<path d="M10 810 c0 -22 25 -44 40 -35 16 10 12 35 -6 35 -8 0 -13 4 -10 8 3
5 -1 9 -9 9 -8 0 -15 -8 -15 -17z"/>
<path d="M260 810 c0 -7 3 -10 7 -7 3 4 3 10 0 14 -4 3 -7 0 -7 -7z"/>
<path d="M280 805 c0 -3 2 -5 5 -5 3 0 5 2 5 5 0 3 -2 5 -5 5 -3 0 -5 -2 -5
-5z"/>
<path d="M860 805 c0 -3 2 -5 5 -5 3 0 5 2 5 5 0 3 -2 5 -5 5 -3 0 -5 -2 -5
-5z"/>
<path d="M58 759 c-18 -16 -25 -26 -15 -23 19 7 25 -20 7 -31 -6 -3 -10 -1
-10 5 0 7 -7 4 -16 -5 -15 -15 -15 -18 6 -41 14 -14 35 -24 50 -24 32 0 63 31
58 57 -3 14 -7 12 -19 -12 -15 -30 -39 -35 -66 -13 -9 7 -5 16 15 34 19 17 24
26 15 32 -7 4 -8 13 -4 20 6 9 12 7 26 -8 10 -11 22 -20 27 -20 13 0 9 38 -4
47 -24 14 -36 11 -70 -18z m42 16 c0 -3 -2 -5 -5 -5 -3 0 -5 2 -5 5 0 3 2 5 5
5 3 0 5 -2 5 -5z"/>
<path d="M420 779 c0 -5 -4 -8 -9 -4 -5 3 -22 -6 -38 -21 -18 -16 -22 -24 -10
-20 10 3 17 0 17 -8 0 -20 -12 -27 -26 -15 -26 21 -29 -20 -4 -47 28 -29 70
-31 93 -6 19 20 23 52 7 52 -5 0 -10 -8 -10 -19 0 -27 -21 -40 -47 -30 -28 10
-30 30 -4 46 13 8 17 20 14 40 l-4 28 25 -27 c24 -27 25 -27 31 -7 4 11 1 26
-5 34 -15 17 -30 20 -30 4z m-65 -79 c3 -5 4 -10 1 -10 -3 0 -8 5 -11 10 -3 6
-4 10 -1 10 3 0 8 -4 11 -10z"/>
<path d="M734 775 c2 -17 26 -45 37 -45 14 0 11 38 -3 47 -21 12 -36 12 -34
-2z"/>
<path d="M687 752 c-22 -24 -22 -39 -1 -21 14 12 16 11 12 -6 -2 -14 -10 -19
-26 -17 -14 2 -22 -2 -22 -11 0 -22 44 -57 72 -57 30 0 61 31 56 57 -3 14 -7
12 -19 -12 -15 -31 -39 -35 -66 -13 -10 8 -7 15 13 30 17 14 22 24 15 31 -5 5
-7 16 -4 23 7 20 -11 17 -30 -4z"/>
<path d="M237 749 c7 -7 15 -10 18 -7 3 3 -2 9 -12 12 -14 6 -15 5 -6 -5z"/>
<path d="M870 755 c0 -3 2 -5 5 -5 3 0 5 2 5 5 0 3 -2 5 -5 5 -3 0 -5 -2 -5
-5z"/>
<path d="M110 715 c0 -3 2 -5 5 -5 3 0 5 2 5 5 0 3 -2 5 -5 5 -3 0 -5 -2 -5
-5z"/>
<path d="M180 695 c-19 -23 3 -43 24 -22 13 12 13 17 2 26 -10 8 -17 7 -26 -4z"/>
<path d="M500 695 c-18 -22 0 -39 24 -22 15 11 16 15 3 25 -11 10 -17 9 -27
-3z"/>
<path d="M820 695 c-20 -24 4 -45 26 -24 13 14 13 17 1 27 -11 10 -17 9 -27
-3z"/>
<path d="M290 658 c-14 -11 -20 -17 -13 -14 6 4 18 -1 27 -10 17 -16 36 -11
36 10 0 28 -24 35 -50 14z"/>
<path d="M616 664 c-11 -7 -16 -17 -13 -21 4 -3 7 -2 7 2 0 5 6 1 13 -10 15
-19 37 -13 37 9 0 25 -24 35 -44 20z"/>
<path d="M933 662 l-23 -17 25 -12 c24 -10 25 -9 25 18 0 34 1 33 -27 11z"/>
<path d="M0 645 c0 -15 4 -24 10 -20 13 8 13 32 0 40 -6 4 -10 -5 -10 -20z"/>
<path d="M544 628 c-4 -7 -3 -8 4 -4 7 4 12 9 12 12 0 8 -9 4 -16 -8z"/>
<path d="M213 623 c-7 -2 -13 -14 -13 -24 0 -25 16 -17 23 11 3 11 4 20 4 19
-1 0 -8 -3 -14 -6z"/>
<path d="M847 623 c-11 -11 -8 -45 4 -38 6 4 8 13 5 20 -3 8 0 16 7 19 7 3 8
5 1 5 -6 1 -14 -2 -17 -6z"/>
<path d="M49 613 c-9 -63 -8 -75 16 -99 28 -28 56 -31 77 -6 22 25 31 55 16
49 -7 -2 -12 -11 -10 -21 2 -9 -3 -17 -10 -17 -57 -6 -66 -4 -61 11 3 8 11 20
18 25 17 15 24 40 14 56 -7 12 -10 12 -21 0 -8 -9 -9 -11 -1 -7 21 12 23 -11
2 -30 -17 -16 -22 -16 -29 -4 -6 9 -6 16 0 18 13 5 13 32 0 32 -5 0 -11 -3
-11 -7z"/>
<path d="M130 611 c0 -5 5 -13 10 -16 6 -3 10 -2 10 4 0 5 -4 13 -10 16 -5 3
-10 2 -10 -4z"/>
<path d="M366 604 c-12 -32 -5 -66 19 -89 28 -29 56 -32 77 -7 22 25 31 55 16
50 -7 -3 -13 -13 -13 -24 0 -15 -7 -19 -36 -19 -29 -1 -36 2 -31 15 2 8 13 22
23 30 19 15 17 60 -3 60 -5 0 -5 -7 0 -17 12 -24 -21 -58 -37 -39 -7 9 -6 19
5 34 13 19 13 22 1 22 -8 0 -18 -7 -21 -16z m84 -99 c0 -3 -2 -5 -5 -5 -3 0
-5 2 -5 5 0 3 2 5 5 5 3 0 5 -2 5 -5z"/>
<path d="M450 605 c7 -9 15 -13 17 -11 7 7 -7 26 -19 26 -6 0 -6 -6 2 -15z"/>
<path d="M520 600 c0 -19 3 -21 12 -12 9 9 9 15 0 24 -9 9 -12 7 -12 -12z"/>
<path d="M686 604 c-9 -22 3 -32 14 -14 12 19 12 30 1 30 -5 0 -12 -7 -15 -16z"/>
<path d="M726 612 c-3 -5 1 -9 9 -9 8 0 15 4 15 9 0 4 -4 8 -9 8 -6 0 -12 -4
-15 -8z"/>
<path d="M770 605 c7 -9 15 -13 17 -11 7 7 -7 26 -19 26 -6 0 -6 -6 2 -15z"/>
<path d="M313 593 c4 -3 10 -3 14 0 3 4 0 7 -7 7 -7 0 -10 -3 -7 -7z"/>
<path d="M633 593 c4 -3 10 -3 14 0 3 4 0 7 -7 7 -7 0 -10 -3 -7 -7z"/>
<path d="M950 595 c0 -3 2 -5 5 -5 3 0 5 2 5 5 0 3 -2 5 -5 5 -3 0 -5 -2 -5
-5z"/>
<path d="M729 572 c-10 -16 -16 -18 -26 -10 -20 16 -28 2 -15 -27 13 -29 53
-51 76 -42 22 9 20 29 -1 26 -40 -4 -52 1 -46 17 3 9 14 19 24 22 12 5 15 12
10 21 -7 11 -12 10 -22 -7z"/>
<path d="M0 569 c0 -5 5 -7 10 -4 5 3 10 8 10 11 0 2 -4 4 -10 4 -5 0 -10 -5
-10 -11z"/>
<path d="M305 570 c-3 -5 1 -10 9 -10 8 0 18 5 21 10 3 6 -1 10 -9 10 -8 0
-18 -4 -21 -10z"/>
<path d="M625 570 c-3 -5 1 -10 9 -10 8 0 18 5 21 10 3 6 -1 10 -9 10 -8 0
-18 -4 -21 -10z"/>
<path d="M945 570 c-3 -5 -1 -10 4 -10 6 0 11 5 11 10 0 6 -2 10 -4 10 -3 0
-8 -4 -11 -10z"/>
<path d="M531 554 c6 -8 18 -14 25 -14 13 0 18 -12 15 -37 -1 -6 3 -14 9 -18
5 -3 7 0 4 8 -3 8 -1 18 4 21 19 11 42 -6 42 -31 0 -16 -4 -22 -12 -17 -10 5
-10 4 -1 -6 26 -29 -23 -56 -55 -30 -9 7 -9 7 -2 -2 21 -25 9 -29 -19 -6 l-29
23 22 25 c11 13 14 19 6 13 -13 -10 -15 -6 -15 24 0 20 -4 38 -10 40 -6 2 -10
-16 -9 -42 0 -24 -3 -50 -7 -56 -4 -6 7 -23 25 -39 28 -26 33 -27 47 -14 14
12 18 13 22 2 3 -10 9 -10 23 -2 14 8 20 25 22 65 3 52 1 55 -30 74 -18 11
-45 23 -61 26 -22 5 -25 4 -16 -7z"/>
<path d="M792 557 c-6 -7 -7 -19 -3 -26 6 -9 10 -6 14 10 8 28 3 34 -11 16z"/>
<path d="M189 530 c-3 -58 -6 -80 -12 -86 -11 -11 57 -63 69 -53 6 5 19 7 28
3 24 -9 46 14 45 50 l-1 31 -11 -27 c-15 -38 -60 -53 -83 -27 -9 10 -21 16
-25 13 -13 -7 2 30 15 38 8 5 7 8 -1 8 -6 0 -9 8 -7 18 3 9 1 28 -5 42 -9 24
-10 24 -12 -10z m11 -55 c0 -3 -2 -5 -5 -5 -3 0 -5 2 -5 5 0 3 2 5 5 5 3 0 5
-2 5 -5z"/>
<path d="M210 548 c0 -6 3 -8 6 -5 10 10 45 -13 38 -25 -4 -6 0 -8 12 -4 22 6
38 -2 47 -24 4 -11 6 -9 6 5 0 12 -13 29 -34 43 -37 24 -75 29 -75 10z"/>
<path d="M829 558 c0 -2 -1 -27 -3 -55 -1 -29 -5 -55 -8 -59 -4 -3 8 -18 25
-34 29 -25 34 -27 48 -14 14 12 18 13 22 2 8 -22 42 5 45 36 3 27 -19 55 -43
56 -5 0 0 -7 12 -15 25 -18 24 -49 -3 -54 -10 -2 -24 -7 -30 -12 -13 -11 -48
25 -59 60 -6 19 -4 23 8 18 11 -4 13 0 9 16 -2 12 -9 27 -13 33 -5 6 -6 14 -2
17 3 4 3 7 0 7 -4 0 -7 -1 -8 -2z"/>
<path d="M850 550 c0 -5 3 -9 8 -9 22 4 42 -2 37 -11 -4 -6 -3 -9 2 -8 17 4
52 -14 56 -30 4 -14 5 -13 6 3 0 13 -12 28 -34 43 -36 23 -75 29 -75 12z"/>
<path d="M655 499 c-7 -20 9 -49 27 -49 19 0 19 29 -1 49 -20 20 -20 20 -26 0z"/>
<path d="M10 491 c0 -22 25 -45 40 -36 15 9 12 26 -7 41 -25 18 -33 17 -33 -5z"/>
<path d="M333 494 c-7 -19 20 -49 36 -40 17 11 13 30 -9 44 -17 10 -21 10 -27
-4z"/>
<path d="M870 505 c0 -3 2 -5 5 -5 3 0 5 2 5 5 0 3 -2 5 -5 5 -3 0 -5 -2 -5
-5z"/>
<path d="M890 499 c0 -5 5 -7 10 -4 6 3 10 8 10 11 0 2 -4 4 -10 4 -5 0 -10
-5 -10 -11z"/>
<path d="M253 493 c4 -3 10 -3 14 0 3 4 0 7 -7 7 -7 0 -10 -3 -7 -7z"/>
<path d="M285 480 c3 -5 8 -10 11 -10 3 0 2 5 -1 10 -3 6 -8 10 -11 10 -3 0
-2 -4 1 -10z"/>
<path d="M600 485 c0 -3 2 -5 5 -5 3 0 5 2 5 5 0 3 -2 5 -5 5 -3 0 -5 -2 -5
-5z"/>
<path d="M61 443 c-17 -13 -31 -29 -31 -35 0 -6 7 -5 16 3 14 12 16 11 12 -6
-2 -12 -10 -19 -20 -17 -28 4 -31 -18 -7 -44 27 -28 69 -31 92 -6 18 20 20
109 3 120 -21 13 -33 10 -65 -15z m37 10 c-1 -5 5 -20 15 -34 13 -20 15 -32 8
-52 -12 -32 -21 -37 -48 -26 -29 11 -29 30 -2 47 15 10 18 17 11 24 -8 8 -8
17 -1 30 10 18 21 25 17 11z"/>
<path d="M100 395 c0 -3 2 -5 5 -5 3 0 5 2 5 5 0 3 -2 5 -5 5 -3 0 -5 -2 -5
-5z"/>
<path d="M420 459 c0 -5 -4 -8 -9 -4 -5 3 -22 -6 -38 -21 -19 -18 -22 -24 -10
-20 14 4 18 1 15 -12 -2 -9 -11 -17 -20 -17 -29 0 -32 -14 -8 -40 28 -30 70
-33 93 -7 19 20 23 52 7 52 -5 0 -10 -8 -10 -18 0 -38 -32 -47 -67 -19 -10 7
-7 14 11 28 17 14 22 26 19 46 l-4 28 25 -27 c24 -27 25 -27 31 -7 4 11 1 26
-5 34 -15 17 -30 20 -30 4z"/>
<path d="M734 455 c2 -17 26 -45 37 -45 14 0 11 38 -3 47 -21 12 -36 12 -34
-2z"/>
<path d="M687 432 c-22 -24 -22 -39 -1 -21 14 12 16 11 12 -6 -2 -14 -10 -19
-26 -17 -14 2 -22 -2 -22 -11 0 -22 44 -57 72 -57 30 0 61 31 56 57 -3 14 -7
12 -19 -12 -15 -30 -39 -35 -66 -13 -9 7 -5 16 15 35 17 15 23 26 15 29 -7 3
-9 12 -6 20 7 20 -11 17 -30 -4z"/>
<path d="M230 435 c0 -3 2 -5 5 -5 3 0 5 2 5 5 0 3 -2 5 -5 5 -3 0 -5 -2 -5
-5z"/>
<path d="M870 435 c0 -3 2 -5 5 -5 3 0 5 2 5 5 0 3 -2 5 -5 5 -3 0 -5 -2 -5
-5z"/>
<path d="M180 375 c-18 -22 0 -39 24 -22 15 11 16 15 3 25 -11 10 -17 9 -27
-3z"/>
<path d="M500 375 c-18 -22 0 -39 24 -22 15 11 16 15 3 25 -11 10 -17 9 -27
-3z"/>
<path d="M820 375 c-20 -24 4 -45 26 -24 13 14 13 17 1 27 -11 10 -17 9 -27
-3z"/>
<path d="M292 343 l-22 -16 26 -13 c28 -15 44 -11 44 10 0 26 -24 35 -48 19z"/>
<path d="M615 344 c-20 -15 -20 -15 -1 -30 11 -8 23 -14 27 -14 14 0 19 34 7
46 -10 10 -17 10 -33 -2z m5 -19 c0 -3 -2 -5 -5 -5 -3 0 -5 2 -5 5 0 3 2 5 5
5 3 0 5 -2 5 -5z"/>
<path d="M933 342 l-23 -17 25 -12 c24 -10 25 -9 25 18 0 34 1 33 -27 11z"/>
<path d="M0 325 c0 -15 4 -24 10 -20 13 8 13 32 0 40 -6 4 -10 -5 -10 -20z"/>
<path d="M532 304 c-7 -8 -12 -22 -9 -32 3 -13 7 -10 16 12 13 33 11 40 -7 20z"/>
<path d="M857 305 c-10 -7 -17 -22 -15 -32 3 -14 7 -11 20 15 9 17 16 32 15
32 -1 0 -10 -7 -20 -15z"/>
<path d="M213 303 c-7 -2 -13 -14 -13 -24 0 -25 16 -17 23 11 3 11 4 20 4 19
-1 0 -8 -3 -14 -6z"/>
<path d="M46 284 c-12 -32 -5 -66 19 -89 28 -29 56 -32 77 -7 22 25 31 55 16
50 -7 -3 -13 -13 -13 -24 0 -15 -7 -19 -36 -19 -29 -1 -36 2 -31 15 2 8 13 22
23 30 19 15 17 60 -3 60 -5 0 -5 -7 0 -17 10 -20 -19 -56 -34 -44 -12 9 -16
31 -5 31 5 0 11 7 15 15 3 9 0 15 -8 15 -8 0 -17 -7 -20 -16z m84 -99 c0 -3
-2 -5 -5 -5 -3 0 -5 2 -5 5 0 3 2 5 5 5 3 0 5 -2 5 -5z"/>
<path d="M130 285 c7 -9 15 -13 17 -11 7 7 -7 26 -19 26 -6 0 -6 -6 2 -15z"/>
<path d="M366 284 c-9 -22 3 -32 14 -14 12 19 12 30 1 30 -5 0 -12 -7 -15 -16z"/>
<path d="M419 283 c7 -13 5 -20 -7 -29 -10 -7 -14 -15 -11 -19 4 -3 14 1 22 9
16 16 12 56 -5 56 -5 0 -5 -7 1 -17z"/>
<path d="M455 280 c10 -11 20 -20 22 -20 2 0 -1 9 -7 20 -6 11 -16 20 -22 20
-6 0 -3 -9 7 -20z"/>
<path d="M689 293 c-9 -63 -8 -75 16 -99 28 -28 56 -31 77 -6 22 25 31 55 16
50 -7 -3 -13 -13 -13 -24 0 -15 -7 -19 -36 -19 -29 -1 -36 2 -31 15 2 8 13 22
23 30 19 15 17 60 -3 60 -5 0 -5 -7 0 -17 6 -13 4 -23 -8 -34 -24 -23 -41 -13
-29 17 5 14 9 27 9 30 0 7 -20 4 -21 -3z m81 -108 c0 -3 -2 -5 -5 -5 -3 0 -5
2 -5 5 0 3 2 5 5 5 3 0 5 -2 5 -5z"/>
<path d="M770 285 c7 -9 15 -13 17 -11 7 7 -7 26 -19 26 -6 0 -6 -6 2 -15z"/>
<path d="M0 275 c0 -3 2 -5 5 -5 3 0 5 2 5 5 0 3 -2 5 -5 5 -3 0 -5 -2 -5 -5z"/>
<path d="M310 275 c0 -3 2 -5 5 -5 3 0 5 2 5 5 0 3 -2 5 -5 5 -3 0 -5 -2 -5
-5z"/>
<path d="M633 273 c4 -3 10 -3 14 0 3 4 0 7 -7 7 -7 0 -10 -3 -7 -7z"/>
<path d="M950 275 c0 -3 2 -5 5 -5 3 0 5 2 5 5 0 3 -2 5 -5 5 -3 0 -5 -2 -5
-5z"/>
<path d="M170 265 c0 -3 2 -5 5 -5 3 0 5 2 5 5 0 3 -2 5 -5 5 -3 0 -5 -2 -5
-5z"/>
<path d="M0 249 c0 -5 5 -7 10 -4 5 3 10 8 10 11 0 2 -4 4 -10 4 -5 0 -10 -5
-10 -11z"/>
<path d="M305 250 c-3 -5 1 -10 9 -10 8 0 18 5 21 10 3 6 -1 10 -9 10 -8 0
-18 -4 -21 -10z"/>
<path d="M625 250 c-3 -5 1 -10 9 -10 8 0 18 5 21 10 3 6 -1 10 -9 10 -8 0
-18 -4 -21 -10z"/>
<path d="M945 250 c-3 -5 -1 -10 4 -10 6 0 11 5 11 10 0 6 -2 10 -4 10 -3 0
-8 -4 -11 -10z"/>
<path d="M360 235 c0 -25 48 -67 72 -63 38 6 32 27 -7 24 -23 -2 -34 1 -32 8
5 14 -11 46 -23 46 -6 0 -10 -7 -10 -15z"/>
<path d="M472 237 c-6 -7 -7 -19 -3 -26 6 -9 10 -6 14 10 8 28 3 34 -11 16z"/>
<path d="M835 237 c-5 -7 -10 -30 -9 -52 0 -22 -3 -46 -7 -54 -9 -19 52 -73
67 -60 6 5 19 7 28 3 29 -11 46 14 44 68 -1 43 -4 52 -34 75 -21 15 -42 23
-54 20 -10 -3 -20 -1 -22 3 -2 4 -7 3 -13 -3z m48 -16 c4 -1 7 -8 7 -17 0 -10
6 -13 18 -10 26 8 43 -7 38 -35 -3 -13 -5 -31 -5 -39 -1 -9 -14 -21 -30 -27
-26 -9 -32 -8 -49 11 -25 26 -38 66 -22 66 6 0 8 -4 5 -10 -11 -18 1 -11 21
12 15 19 16 20 2 9 -15 -11 -18 -11 -18 2 0 8 -3 22 -6 30 -4 11 0 14 13 12
10 -2 21 -4 26 -4z"/>
<path d="M900 175 c0 -3 2 -5 5 -5 3 0 5 2 5 5 0 3 -2 5 -5 5 -3 0 -5 -2 -5
-5z"/>
<path d="M920 165 c0 -3 2 -5 5 -5 3 0 5 2 5 5 0 3 -2 5 -5 5 -3 0 -5 -2 -5
-5z"/>
<path d="M875 110 c3 -5 8 -10 11 -10 2 0 4 5 4 10 0 6 -5 10 -11 10 -5 0 -7
-4 -4 -10z"/>
<path d="M194 233 c-5 -2 -9 -23 -8 -48 0 -24 -3 -50 -7 -56 -4 -6 7 -23 25
-39 28 -26 33 -27 47 -14 14 12 18 13 22 2 3 -10 9 -10 23 -2 14 8 19 24 21
63 1 47 -1 53 -31 76 -29 22 -61 28 -92 18z m49 -12 c4 -1 7 -8 7 -17 0 -10 6
-13 18 -10 26 8 46 -9 37 -30 -4 -11 -7 -29 -6 -41 2 -18 -3 -23 -21 -23 -13
0 -30 6 -38 13 -12 10 -12 9 -1 -6 21 -26 7 -30 -16 -4 -25 27 -39 67 -23 67
6 0 8 -4 5 -10 -11 -18 1 -11 21 12 15 19 16 20 2 9 -15 -11 -18 -11 -18 2 0
8 -3 22 -6 30 -4 11 0 14 13 12 10 -2 21 -4 26 -4z m67 -76 c0 -3 -2 -5 -5 -5
-3 0 -5 2 -5 5 0 3 2 5 5 5 3 0 5 -2 5 -5z"/>
<path d="M260 175 c0 -3 2 -5 5 -5 3 0 5 2 5 5 0 3 -2 5 -5 5 -3 0 -5 -2 -5
-5z"/>
<path d="M280 165 c0 -3 2 -5 5 -5 3 0 5 2 5 5 0 3 -2 5 -5 5 -3 0 -5 -2 -5
-5z"/>
<path d="M510 235 c0 -3 2 -5 5 -5 3 0 5 2 5 5 0 3 -2 5 -5 5 -3 0 -5 -2 -5
-5z"/>
<path d="M553 224 c21 -11 27 -21 24 -35 -3 -10 0 -22 5 -26 6 -3 8 -2 5 3 -9
16 8 35 26 28 9 -3 18 -15 20 -27 4 -20 4 -19 6 3 1 29 -53 70 -91 70 -21 -1
-21 -2 5 -16z"/>
<path d="M509 198 c-3 -46 -6 -69 -12 -74 -11 -11 57 -63 69 -53 6 5 19 7 28
3 42 -16 63 51 24 75 -18 10 -20 11 -10 0 27 -29 1 -73 -28 -46 -10 9 -11 9
-6 0 3 -6 2 -14 -2 -17 -12 -7 -56 40 -48 52 3 6 0 13 -6 16 -10 5 -10 7 0 12
14 7 16 40 2 49 -5 3 -11 -4 -11 -17z m16 -88 c3 -5 4 -10 1 -10 -3 0 -8 5
-11 10 -3 6 -4 10 -1 10 3 0 8 -4 11 -10z"/>
<path d="M13 184 c-8 -20 9 -49 28 -49 8 0 15 8 17 18 2 10 -3 17 -12 17 -8 0
-18 5 -22 12 -5 7 -3 8 6 3 9 -5 11 -4 6 3 -10 16 -15 15 -23 -4z"/>
<path d="M657 193 c-20 -20 4 -66 29 -56 18 7 18 33 0 33 -8 0 -18 5 -22 12
-5 7 -3 8 6 3 9 -5 11 -4 6 3 -8 14 -10 14 -19 5z"/>
<path d="M330 171 c0 -22 25 -45 40 -36 14 9 13 24 -4 41 -20 20 -36 18 -36
-5z"/>
<path d="M540 165 c0 -3 2 -5 5 -5 3 0 5 2 5 5 0 3 -2 5 -5 5 -3 0 -5 -2 -5
-5z"/>
<path d="M90 136 c0 -7 11 -23 25 -36 l25 -23 0 26 c0 25 -12 40 -37 43 -7 1
-13 -3 -13 -10z"/>
<path d="M414 135 c2 -17 26 -45 37 -45 14 0 11 38 -3 47 -21 12 -36 12 -34
-2z"/>
<path d="M740 139 c0 -5 -4 -8 -9 -4 -5 3 -22 -6 -38 -21 -19 -18 -22 -24 -10
-20 13 4 18 1 15 -11 -2 -9 -11 -17 -21 -19 -30 -4 -32 -13 -7 -39 14 -15 35
-25 50 -25 32 0 63 31 58 57 -3 14 -7 12 -19 -12 -15 -31 -39 -35 -64 -12 -9
9 -7 16 12 30 16 13 21 23 14 31 -5 6 -6 17 -2 24 6 9 12 7 26 -8 10 -11 22
-20 27 -20 12 0 10 34 -4 48 -15 15 -28 15 -28 1z"/>
<path d="M45 110 c-17 -18 -17 -20 -2 -14 11 4 17 1 17 -8 0 -22 -12 -29 -26
-17 -11 9 -15 7 -20 -5 -9 -24 33 -66 66 -66 32 0 63 31 57 57 -3 15 -6 14
-15 -9 -14 -33 -22 -38 -49 -27 -28 10 -30 30 -4 46 13 8 17 19 14 37 -6 31
-14 32 -38 6z m-10 -50 c3 -5 4 -10 1 -10 -3 0 -8 5 -11 10 -3 6 -4 10 -1 10
3 0 8 -4 11 -10z"/>
<path d="M367 112 c-22 -24 -22 -39 -1 -21 14 12 16 11 12 -6 -2 -14 -10 -19
-26 -17 -14 2 -22 -2 -22 -11 0 -22 44 -57 72 -57 30 0 61 31 56 57 -3 14 -7
12 -19 -12 -15 -31 -39 -35 -66 -13 -10 8 -7 15 13 30 17 14 22 24 15 31 -5 5
-7 16 -4 23 7 20 -11 17 -30 -4z"/>
<path d="M550 115 c0 -3 2 -5 5 -5 3 0 5 2 5 5 0 3 -2 5 -5 5 -3 0 -5 -2 -5
-5z"/>
<path d="M420 75 c0 -3 2 -5 5 -5 3 0 5 2 5 5 0 3 -2 5 -5 5 -3 0 -5 -2 -5 -5z"/>
<path d="M180 55 c-20 -24 4 -45 26 -24 13 14 13 17 1 27 -11 10 -17 9 -27 -3z"/>
<path d="M500 55 c-20 -24 4 -45 26 -24 13 14 13 17 1 27 -11 10 -17 9 -27 -3z"/>
<path d="M820 55 c-18 -22 0 -39 24 -22 15 11 16 15 3 25 -11 10 -17 9 -27 -3z"/>
<path d="M291 19 l-23 -19 36 0 c37 0 45 10 24 28 -9 7 -20 5 -37 -9z"/>
<path d="M610 20 l-25 -20 38 0 c38 0 47 10 24 28 -9 8 -19 5 -37 -8z"/>
<path d="M932 22 l-23 -18 26 -2 c19 -1 25 3 25 18 0 24 1 24 -28 2z"/>
<path d="M0 16 c0 -9 5 -16 10 -16 6 0 10 4 10 9 0 6 -4 13 -10 16 -5 3 -10
-1 -10 -9z"/>
</g>
<g transform="translate(0.000000,96.000000) scale(0.100000,-0.100000)"
fill="#887161" stroke="none">
<path d="M310 955 c0 -3 2 -5 5 -5 3 0 5 2 5 5 0 3 -2 5 -5 5 -3 0 -5 -2 -5
-5z"/>
<path d="M630 955 c0 -3 2 -5 5 -5 3 0 5 2 5 5 0 3 -2 5 -5 5 -3 0 -5 -2 -5
-5z"/>
<path d="M950 955 c0 -3 2 -5 5 -5 3 0 5 2 5 5 0 3 -2 5 -5 5 -3 0 -5 -2 -5
-5z"/>
<path d="M200 925 c0 -8 4 -15 10 -15 5 0 7 7 4 15 -4 8 -8 15 -10 15 -2 0 -4
-7 -4 -15z"/>
<path d="M140 920 c0 -7 3 -10 7 -7 3 4 3 10 0 14 -4 3 -7 0 -7 -7z"/>
<path d="M520 920 c0 -5 5 -10 10 -10 6 0 10 5 10 10 0 6 -4 10 -10 10 -5 0
-10 -4 -10 -10z"/>
<path d="M840 914 c0 -8 5 -12 10 -9 6 3 10 10 10 16 0 5 -4 9 -10 9 -5 0 -10
-7 -10 -16z"/>
<path d="M0 889 c0 -5 5 -7 10 -4 5 3 10 8 10 11 0 2 -4 4 -10 4 -5 0 -10 -5
-10 -11z"/>
<path d="M305 890 c-3 -5 1 -10 9 -10 8 0 18 5 21 10 3 6 -1 10 -9 10 -8 0
-18 -4 -21 -10z"/>
<path d="M625 890 c-3 -5 1 -10 9 -10 8 0 18 5 21 10 3 6 -1 10 -9 10 -8 0
-18 -4 -21 -10z"/>
<path d="M945 890 c-3 -5 -1 -10 4 -10 6 0 11 5 11 10 0 6 -2 10 -4 10 -3 0
-8 -4 -11 -10z"/>
<path d="M80 885 c0 -3 2 -5 5 -5 3 0 5 2 5 5 0 3 -2 5 -5 5 -3 0 -5 -2 -5 -5z"/>
<path d="M40 875 c0 -3 2 -5 5 -5 3 0 5 2 5 5 0 3 -2 5 -5 5 -3 0 -5 -2 -5 -5z"/>
<path d="M150 865 c0 -8 2 -15 4 -15 2 0 6 7 10 15 3 8 1 15 -4 15 -6 0 -10
-7 -10 -15z"/>
<path d="M230 870 c0 -5 7 -10 15 -10 8 0 15 5 15 10 0 6 -7 10 -15 10 -8 0
-15 -4 -15 -10z"/>
<path d="M360 875 c0 -3 2 -5 5 -5 3 0 5 2 5 5 0 3 -2 5 -5 5 -3 0 -5 -2 -5
-5z"/>
<path d="M400 875 c0 -3 2 -5 5 -5 3 0 5 2 5 5 0 3 -2 5 -5 5 -3 0 -5 -2 -5
-5z"/>
<path d="M471 871 c-8 -5 -9 -11 -3 -15 5 -3 12 1 16 9 6 17 6 18 -13 6z"/>
<path d="M550 870 c20 -13 33 -13 25 0 -3 6 -14 10 -23 10 -15 0 -15 -2 -2
-10z"/>
<path d="M680 875 c0 -3 2 -5 5 -5 3 0 5 2 5 5 0 3 -2 5 -5 5 -3 0 -5 -2 -5
-5z"/>
<path d="M790 870 c0 -7 3 -10 7 -7 3 4 3 10 0 14 -4 3 -7 0 -7 -7z"/>
<path d="M870 870 c19 -13 30 -13 30 0 0 6 -10 10 -22 10 -19 0 -20 -2 -8 -10z"/>
<path d="M70 855 c0 -3 2 -5 5 -5 3 0 5 2 5 5 0 3 -2 5 -5 5 -3 0 -5 -2 -5 -5z"/>
<path d="M270 851 c0 -5 9 -11 21 -14 16 -4 18 -3 8 9 -13 16 -29 19 -29 5z"/>
<path d="M600 845 c7 -9 15 -13 17 -11 7 7 -7 26 -19 26 -6 0 -6 -6 2 -15z"/>
<path d="M703 853 c4 -3 10 -3 14 0 3 4 0 7 -7 7 -7 0 -10 -3 -7 -7z"/>
<path d="M830 841 c0 -12 5 -21 10 -21 6 0 10 6 10 14 0 8 -4 18 -10 21 -5 3
-10 -3 -10 -14z"/>
<path d="M910 850 c0 -5 7 -10 16 -10 8 0 12 5 9 10 -3 6 -10 10 -16 10 -5 0
-9 -4 -9 -10z"/>
<path d="M190 835 c0 -8 5 -15 10 -15 6 0 10 7 10 15 0 8 -4 15 -10 15 -5 0
-10 -7 -10 -15z"/>
<path d="M510 836 c0 -9 5 -16 10 -16 6 0 10 4 10 9 0 6 -4 13 -10 16 -5 3
-10 -1 -10 -9z"/>
<path d="M790 845 c0 -3 2 -5 5 -5 3 0 5 2 5 5 0 3 -2 5 -5 5 -3 0 -5 -2 -5
-5z"/>
<path d="M402 831 c-11 -6 -10 -10 4 -15 20 -8 32 0 18 14 -5 5 -15 5 -22 1z"/>
<path d="M85 820 c3 -5 10 -10 16 -10 5 0 9 5 9 10 0 6 -7 10 -16 10 -8 0 -12
-4 -9 -10z"/>
<path d="M450 825 c0 -3 2 -5 5 -5 3 0 5 2 5 5 0 3 -2 5 -5 5 -3 0 -5 -2 -5
-5z"/>
<path d="M725 820 c3 -5 10 -10 16 -10 5 0 9 5 9 10 0 6 -7 10 -16 10 -8 0
-12 -4 -9 -10z"/>
<path d="M950 825 c0 -3 2 -5 5 -5 3 0 5 2 5 5 0 3 -2 5 -5 5 -3 0 -5 -2 -5
-5z"/>
<path d="M16 811 c-8 -13 20 -45 32 -37 7 4 12 10 12 14 0 12 -39 32 -44 23z"/>
<path d="M310 815 c0 -3 2 -5 5 -5 3 0 5 2 5 5 0 3 -2 5 -5 5 -3 0 -5 -2 -5
-5z"/>
<path d="M340 802 c0 -31 17 -36 31 -10 6 13 8 20 4 16 -5 -4 -14 -3 -22 3
-10 9 -13 7 -13 -9z"/>
<path d="M660 796 c0 -9 7 -16 16 -16 9 0 14 5 12 12 -6 18 -28 21 -28 4z"/>
<path d="M820 805 c0 -3 2 -5 5 -5 3 0 5 2 5 5 0 3 -2 5 -5 5 -3 0 -5 -2 -5
-5z"/>
<path d="M504 778 c-4 -7 -3 -8 4 -4 12 7 16 16 8 16 -3 0 -8 -5 -12 -12z"/>
<path d="M113 773 c4 -3 10 -3 14 0 3 4 0 7 -7 7 -7 0 -10 -3 -7 -7z"/>
<path d="M445 770 c3 -5 8 -10 11 -10 3 0 2 5 -1 10 -3 6 -8 10 -11 10 -3 0
-2 -4 1 -10z"/>
<path d="M736 771 c-3 -5 1 -14 8 -20 12 -10 13 -8 9 8 -6 23 -9 25 -17 12z"/>
<path d="M819 763 c-13 -16 -12 -17 4 -4 9 7 17 15 17 17 0 8 -8 3 -21 -13z"/>
<path d="M70 765 c0 -3 2 -5 5 -5 3 0 5 2 5 5 0 3 -2 5 -5 5 -3 0 -5 -2 -5 -5z"/>
<path d="M90 766 c0 -2 8 -10 18 -17 15 -13 16 -12 3 4 -13 16 -21 21 -21 13z"/>
<path d="M178 764 c-3 -5 10 -21 28 -37 18 -15 31 -22 30 -15 -3 21 -17 39
-26 33 -5 -3 -13 2 -18 11 -5 9 -11 13 -14 8z"/>
<path d="M410 766 c0 -2 7 -9 15 -16 13 -11 14 -10 9 4 -5 14 -24 23 -24 12z"/>
<path d="M700 765 c0 -3 2 -5 5 -5 3 0 5 2 5 5 0 3 -2 5 -5 5 -3 0 -5 -2 -5
-5z"/>
<path d="M770 765 c0 -3 2 -5 5 -5 3 0 5 2 5 5 0 3 -2 5 -5 5 -3 0 -5 -2 -5
-5z"/>
<path d="M500 755 c0 -3 2 -5 5 -5 3 0 5 2 5 5 0 3 -2 5 -5 5 -3 0 -5 -2 -5
-5z"/>
<path d="M630 755 c0 -3 2 -5 5 -5 3 0 5 2 5 5 0 3 -2 5 -5 5 -3 0 -5 -2 -5
-5z"/>
<path d="M57 735 c3 -8 9 -12 14 -9 12 7 11 11 -5 17 -10 4 -13 1 -9 -8z"/>
<path d="M297 735 c-8 -8 -17 -11 -21 -8 -3 4 -6 1 -6 -5 0 -19 28 -14 40 8
13 24 7 26 -13 5z"/>
<path d="M844 731 c20 -22 36 -27 36 -13 0 5 -12 14 -27 21 -28 13 -28 13 -9
-8z"/>
<path d="M927 736 c-19 -15 -22 -26 -6 -26 15 0 41 28 31 33 -4 3 -15 0 -25
-7z"/>
<path d="M385 730 c-3 -5 -1 -10 4 -10 6 0 11 5 11 10 0 6 -2 10 -4 10 -3 0
-8 -4 -11 -10z"/>
<path d="M535 720 c10 -11 20 -20 22 -20 2 0 -1 9 -7 20 -6 11 -16 20 -22 20
-6 0 -3 -9 7 -20z"/>
<path d="M600 725 c-9 -11 -10 -15 -1 -15 7 0 19 7 27 15 13 13 13 15 1 15 -8
0 -20 -7 -27 -15z"/>
<path d="M705 730 c3 -5 11 -10 16 -10 6 0 7 5 4 10 -3 6 -11 10 -16 10 -6 0
-7 -4 -4 -10z"/>
<path d="M180 695 c-11 -13 -11 -18 0 -28 10 -10 12 -9 7 4 -4 13 -1 16 16 11
20 -5 20 -4 8 11 -16 21 -16 21 -31 2z"/>
<path d="M500 695 c-16 -19 -5 -32 13 -17 8 7 18 8 23 4 4 -4 2 1 -5 11 -16
21 -16 21 -31 2z m20 0 c0 -3 -2 -5 -5 -5 -3 0 -5 2 -5 5 0 3 2 5 5 5 3 0 5
-2 5 -5z"/>
<path d="M822 698 c-16 -16 -15 -25 3 -25 8 0 15 4 15 9 0 5 6 6 13 2 8 -5 8
-2 -2 9 -16 20 -14 20 -29 5z m18 -3 c0 -3 -2 -5 -5 -5 -3 0 -5 2 -5 5 0 3 2
5 5 5 3 0 5 -2 5 -5z"/>
<path d="M20 692 c0 -15 27 -45 37 -41 5 2 -1 14 -14 27 -12 12 -23 19 -23 14z"/>
<path d="M340 691 c0 -12 29 -41 41 -41 5 0 -1 11 -13 25 -24 27 -28 30 -28
16z"/>
<path d="M115 671 c-3 -11 -14 -22 -23 -24 -14 -4 -14 -5 -1 -6 20 -1 54 35
40 43 -5 4 -12 -2 -16 -13z"/>
<path d="M431 663 c-13 -27 -13 -28 8 -9 11 10 18 23 15 27 -8 13 -10 12 -23
-18z"/>
<path d="M670 670 c6 -11 17 -20 25 -20 12 0 12 4 -2 20 -10 11 -21 20 -26 20
-4 0 -3 -9 3 -20z"/>
<path d="M751 663 c-13 -27 -13 -28 8 -9 11 10 18 23 15 27 -8 13 -10 12 -23
-18z"/>
<path d="M623 665 c-10 -10 -9 -16 3 -26 19 -16 30 -4 18 20 -7 16 -11 17 -21
6z m17 -20 c0 -3 -2 -5 -5 -5 -3 0 -5 2 -5 5 0 3 2 5 5 5 3 0 5 -2 5 -5z"/>
<path d="M310 662 c0 -6 -8 -9 -17 -6 -15 5 -15 3 1 -10 23 -19 48 -4 28 16
-9 9 -12 9 -12 0z m10 -17 c0 -3 -2 -5 -5 -5 -3 0 -5 2 -5 5 0 3 2 5 5 5 3 0
5 -2 5 -5z"/>
<path d="M950 659 c0 -5 -4 -7 -10 -4 -14 9 -12 -1 3 -13 10 -8 13 -6 14 9 1
10 0 19 -3 19 -2 0 -4 -5 -4 -11z"/>
<path d="M3 653 c4 -3 10 -3 14 0 3 4 0 7 -7 7 -7 0 -10 -3 -7 -7z"/>
<path d="M135 610 c3 -5 8 -10 11 -10 3 0 2 5 -1 10 -3 6 -8 10 -11 10 -3 0
-2 -4 1 -10z"/>
<path d="M200 594 c0 -8 5 -12 10 -9 6 4 8 11 5 16 -9 14 -15 11 -15 -7z"/>
<path d="M520 600 c0 -5 5 -10 10 -10 6 0 10 5 10 10 0 6 -4 10 -10 10 -5 0
-10 -4 -10 -10z"/>
<path d="M840 594 c0 -8 5 -12 10 -9 6 3 10 10 10 16 0 5 -4 9 -10 9 -5 0 -10
-7 -10 -16z"/>
<path d="M0 575 c0 -3 2 -5 5 -5 3 0 5 2 5 5 0 3 -2 5 -5 5 -3 0 -5 -2 -5 -5z"/>
<path d="M310 570 c0 -5 4 -10 9 -10 6 0 13 5 16 10 3 6 -1 10 -9 10 -9 0 -16
-4 -16 -10z"/>
<path d="M625 570 c-3 -5 1 -10 9 -10 8 0 18 5 21 10 3 6 -1 10 -9 10 -8 0
-18 -4 -21 -10z"/>
<path d="M950 570 c0 -7 3 -10 7 -7 3 4 3 10 0 14 -4 3 -7 0 -7 -7z"/>
<path d="M150 549 c0 -5 5 -7 10 -4 6 3 10 8 10 11 0 2 -4 4 -10 4 -5 0 -10
-5 -10 -11z"/>
<path d="M230 552 c0 -8 61 -34 67 -28 4 3 -54 36 -64 36 -1 0 -3 -4 -3 -8z"/>
<path d="M400 555 c0 -3 2 -5 5 -5 3 0 5 2 5 5 0 3 -2 5 -5 5 -3 0 -5 -2 -5
-5z"/>
<path d="M555 550 c3 -5 11 -10 16 -10 6 0 7 5 4 10 -3 6 -11 10 -16 10 -6 0
-7 -4 -4 -10z"/>
<path d="M680 555 c0 -3 2 -5 5 -5 3 0 5 2 5 5 0 3 -2 5 -5 5 -3 0 -5 -2 -5
-5z"/>
<path d="M790 550 c0 -7 3 -10 7 -7 3 4 3 10 0 14 -4 3 -7 0 -7 -7z"/>
<path d="M870 550 c19 -13 30 -13 30 0 0 6 -10 10 -22 10 -19 0 -20 -2 -8 -10z"/>
<path d="M465 540 c3 -5 8 -10 11 -10 2 0 4 5 4 10 0 6 -5 10 -11 10 -5 0 -7
-4 -4 -10z"/>
<path d="M595 530 c3 -5 11 -10 16 -10 6 0 7 5 4 10 -3 6 -11 10 -16 10 -6 0
-7 -4 -4 -10z"/>
<path d="M910 531 c0 -5 9 -11 21 -14 16 -4 18 -3 8 9 -13 16 -29 19 -29 5z"/>
<path d="M150 525 c0 -3 2 -5 5 -5 3 0 5 2 5 5 0 3 -2 5 -5 5 -3 0 -5 -2 -5
-5z"/>
<path d="M190 516 c0 -8 5 -18 10 -21 6 -3 10 3 10 14 0 12 -4 21 -10 21 -5 0
-10 -6 -10 -14z"/>
<path d="M510 521 c0 -5 5 -13 10 -16 6 -3 10 -2 10 4 0 5 -4 13 -10 16 -5 3
-10 2 -10 -4z"/>
<path d="M790 525 c0 -3 2 -5 5 -5 3 0 5 2 5 5 0 3 -2 5 -5 5 -3 0 -5 -2 -5
-5z"/>
<path d="M830 516 c0 -9 5 -16 10 -16 6 0 10 4 10 9 0 6 -4 13 -10 16 -5 3
-10 -1 -10 -9z"/>
<path d="M406 512 c-3 -6 -1 -14 5 -17 15 -10 25 3 12 16 -7 7 -13 7 -17 1z"/>
<path d="M85 500 c3 -5 10 -10 16 -10 5 0 9 5 9 10 0 6 -7 10 -16 10 -8 0 -12
-4 -9 -10z"/>
<path d="M310 505 c0 -3 2 -5 5 -5 3 0 5 2 5 5 0 3 -2 5 -5 5 -3 0 -5 -2 -5
-5z"/>
<path d="M450 505 c0 -3 2 -5 5 -5 3 0 5 2 5 5 0 3 -2 5 -5 5 -3 0 -5 -2 -5
-5z"/>
<path d="M725 500 c3 -5 10 -10 16 -10 5 0 9 5 9 10 0 6 -7 10 -16 10 -8 0
-12 -4 -9 -10z"/>
<path d="M340 481 c0 -12 6 -21 15 -21 8 0 15 4 15 9 0 5 -7 14 -15 21 -13 10
-15 9 -15 -9z"/>
<path d="M22 476 c1 -10 8 -17 13 -17 15 1 12 24 -3 29 -9 3 -13 -2 -10 -12z"/>
<path d="M660 476 c0 -9 7 -16 16 -16 17 0 14 22 -4 28 -7 2 -12 -3 -12 -12z"/>
<path d="M102 451 c-10 -6 -10 -10 3 -21 13 -11 14 -10 8 5 -5 15 -3 17 11 12
10 -4 15 -3 11 3 -7 12 -16 12 -33 1z"/>
<path d="M190 455 c0 -3 2 -5 5 -5 3 0 5 2 5 5 0 3 -2 5 -5 5 -3 0 -5 -2 -5
-5z"/>
<path d="M445 450 c3 -5 8 -10 11 -10 3 0 2 5 -1 10 -3 6 -8 10 -11 10 -3 0
-2 -4 1 -10z"/>
<path d="M505 449 c-4 -6 -5 -12 -2 -15 2 -3 7 2 10 11 7 17 1 20 -8 4z"/>
<path d="M736 451 c-3 -5 1 -14 8 -20 12 -10 13 -8 9 8 -6 23 -9 25 -17 12z"/>
<path d="M760 455 c0 -3 2 -5 5 -5 3 0 5 2 5 5 0 3 -2 5 -5 5 -3 0 -5 -2 -5
-5z"/>
<path d="M819 443 c-13 -16 -12 -17 4 -4 9 7 17 15 17 17 0 8 -8 3 -21 -13z"/>
<path d="M410 446 c0 -2 7 -9 15 -16 13 -11 14 -10 9 4 -5 14 -24 23 -24 12z"/>
<path d="M700 445 c0 -3 2 -5 5 -5 3 0 5 2 5 5 0 3 -2 5 -5 5 -3 0 -5 -2 -5
-5z"/>
<path d="M170 436 c0 -2 7 -7 16 -10 8 -3 12 -2 9 4 -6 10 -25 14 -25 6z"/>
<path d="M630 435 c0 -3 2 -5 5 -5 3 0 5 2 5 5 0 3 -2 5 -5 5 -3 0 -5 -2 -5
-5z"/>
<path d="M210 418 c0 -9 5 -20 11 -23 17 -11 18 -2 3 19 -12 17 -14 17 -14 4z"/>
<path d="M844 411 c20 -22 36 -27 36 -13 0 5 -12 14 -27 21 -28 13 -28 13 -9
-8z"/>
<path d="M941 423 c-1 -7 -8 -13 -16 -13 -8 0 -15 -4 -15 -10 0 -12 10 -13 29
-1 7 5 11 15 8 22 -4 10 -6 10 -6 2z"/>
<path d="M63 405 c0 -8 4 -12 9 -9 4 3 8 9 8 15 0 5 -4 9 -8 9 -5 0 -9 -7 -9
-15z"/>
<path d="M275 411 c-10 -17 11 -21 31 -6 18 14 18 14 -3 15 -12 0 -24 -4 -28
-9z m15 -6 c0 -3 -2 -5 -5 -5 -3 0 -5 2 -5 5 0 3 2 5 5 5 3 0 5 -2 5 -5z"/>
<path d="M385 410 c-3 -5 -1 -10 4 -10 6 0 11 5 11 10 0 6 -2 10 -4 10 -3 0
-8 -4 -11 -10z"/>
<path d="M535 400 c10 -11 20 -20 22 -20 2 0 -1 9 -7 20 -6 11 -16 20 -22 20
-6 0 -3 -9 7 -20z"/>
<path d="M600 405 c-9 -11 -10 -15 -1 -15 7 0 19 7 27 15 13 13 13 15 1 15 -8
0 -20 -7 -27 -15z"/>
<path d="M705 410 c3 -5 8 -10 11 -10 2 0 4 5 4 10 0 6 -5 10 -11 10 -5 0 -7
-4 -4 -10z"/>
<path d="M250 405 c0 -3 2 -5 5 -5 3 0 5 2 5 5 0 3 -2 5 -5 5 -3 0 -5 -2 -5
-5z"/>
<path d="M182 378 c-16 -16 -15 -28 2 -28 16 0 29 27 17 34 -4 3 -13 0 -19 -6z
m18 -2 c0 -3 -5 -8 -12 -12 -7 -4 -8 -3 -4 4 7 12 16 16 16 8z"/>
<path d="M500 375 c-16 -19 -5 -32 13 -17 8 7 18 8 23 4 4 -4 2 1 -5 11 -16
21 -16 21 -31 2z m20 0 c0 -3 -2 -5 -5 -5 -3 0 -5 2 -5 5 0 3 2 5 5 5 3 0 5
-2 5 -5z"/>
<path d="M822 378 c-16 -16 -15 -25 3 -25 8 0 15 4 15 9 0 5 6 6 13 2 8 -5 8
-2 -2 9 -16 20 -14 20 -29 5z m18 -3 c0 -3 -2 -5 -5 -5 -3 0 -5 2 -5 5 0 3 2
5 5 5 3 0 5 -2 5 -5z"/>
<path d="M20 373 c1 -14 30 -47 36 -41 3 4 -4 16 -15 27 -12 12 -21 18 -21 14z"/>
<path d="M340 374 c0 -15 27 -50 34 -43 4 3 -2 17 -13 30 -11 13 -20 19 -21
13z"/>
<path d="M431 343 c-13 -27 -13 -28 8 -9 11 10 18 23 15 27 -8 13 -10 12 -23
-18z"/>
<path d="M670 350 c6 -11 17 -20 25 -20 12 0 12 4 -2 20 -10 11 -21 20 -26 20
-4 0 -3 -9 3 -20z"/>
<path d="M751 343 c-13 -27 -13 -28 8 -9 11 10 18 23 15 27 -8 13 -10 12 -23
-18z"/>
<path d="M107 340 c-9 -11 -13 -20 -8 -20 4 0 16 9 26 20 10 11 14 20 9 20 -5
0 -17 -9 -27 -20z"/>
<path d="M623 345 c-10 -10 -9 -16 2 -25 16 -14 30 3 18 24 -7 11 -10 12 -20
1z m17 -20 c0 -3 -2 -5 -5 -5 -3 0 -5 2 -5 5 0 3 2 5 5 5 3 0 5 -2 5 -5z"/>
<path d="M305 340 c-3 -5 -5 -10 -3 -11 33 -8 38 -7 27 7 -14 17 -16 17 -24 4z"/>
<path d="M0 330 c0 -7 3 -10 7 -7 3 4 3 10 0 14 -4 3 -7 0 -7 -7z"/>
<path d="M940 329 c0 -5 5 -7 10 -4 6 3 10 8 10 11 0 2 -4 4 -10 4 -5 0 -10
-5 -10 -11z"/>
<path d="M130 295 c0 -3 2 -5 5 -5 3 0 5 2 5 5 0 3 -2 5 -5 5 -3 0 -5 -2 -5
-5z"/>
<path d="M200 274 c0 -8 5 -12 10 -9 6 4 8 11 5 16 -9 14 -15 11 -15 -7z"/>
<path d="M521 274 c0 -11 3 -14 6 -6 3 7 2 16 -1 19 -3 4 -6 -2 -5 -13z"/>
<path d="M840 280 c0 -5 5 -10 11 -10 5 0 7 5 4 10 -3 6 -8 10 -11 10 -2 0 -4
-4 -4 -10z"/>
<path d="M0 250 c0 -7 3 -10 7 -7 3 4 3 10 0 14 -4 3 -7 0 -7 -7z"/>
<path d="M305 250 c-3 -5 1 -10 9 -10 8 0 18 5 21 10 3 6 -1 10 -9 10 -8 0
-18 -4 -21 -10z"/>
<path d="M625 250 c-8 -13 5 -13 25 0 13 8 13 10 -2 10 -9 0 -20 -4 -23 -10z"/>
<path d="M945 250 c-3 -5 -1 -10 4 -10 6 0 11 5 11 10 0 6 -2 10 -4 10 -3 0
-8 -4 -11 -10z"/>
<path d="M400 245 c0 -3 2 -5 5 -5 3 0 5 2 5 5 0 3 -2 5 -5 5 -3 0 -5 -2 -5
-5z"/>
<path d="M80 235 c0 -3 2 -5 5 -5 3 0 5 2 5 5 0 3 -2 5 -5 5 -3 0 -5 -2 -5 -5z"/>
<path d="M151 231 c-8 -5 -9 -11 -3 -15 5 -3 12 1 16 9 6 17 6 18 -13 6z"/>
<path d="M230 230 c20 -13 33 -13 25 0 -3 6 -14 10 -23 10 -15 0 -15 -2 -2
-10z"/>
<path d="M360 235 c0 -3 2 -5 5 -5 3 0 5 2 5 5 0 3 -2 5 -5 5 -3 0 -5 -2 -5
-5z"/>
<path d="M470 230 c0 -7 3 -10 7 -7 3 4 3 10 0 14 -4 3 -7 0 -7 -7z"/>
<path d="M550 230 c19 -13 30 -13 30 0 0 6 -10 10 -22 10 -19 0 -20 -2 -8 -10z"/>
<path d="M720 235 c0 -3 2 -5 5 -5 3 0 5 2 5 5 0 3 -2 5 -5 5 -3 0 -5 -2 -5
-5z"/>
<path d="M791 231 c-8 -5 -9 -11 -3 -15 5 -3 12 1 16 9 6 17 6 18 -13 6z"/>
<path d="M870 230 c20 -13 33 -13 25 0 -3 6 -14 10 -23 10 -15 0 -15 -2 -2
-10z"/>
<path d="M270 215 c0 -2 10 -10 23 -16 20 -11 21 -11 8 4 -13 16 -31 23 -31
12z"/>
<path d="M390 215 c0 -3 2 -5 5 -5 3 0 5 2 5 5 0 3 -2 5 -5 5 -3 0 -5 -2 -5
-5z"/>
<path d="M510 201 c0 -12 5 -21 10 -21 6 0 10 6 10 14 0 8 -4 18 -10 21 -5 3
-10 -3 -10 -14z"/>
<path d="M590 210 c0 -5 7 -10 16 -10 8 0 12 5 9 10 -3 6 -10 10 -16 10 -5 0
-9 -4 -9 -10z"/>
<path d="M910 215 c0 -2 10 -10 23 -16 20 -11 21 -11 8 4 -13 16 -31 23 -31
12z"/>
<path d="M190 196 c0 -9 5 -16 10 -16 6 0 10 4 10 9 0 6 -4 13 -10 16 -5 3
-10 -1 -10 -9z"/>
<path d="M470 205 c0 -3 2 -5 5 -5 3 0 5 2 5 5 0 3 -2 5 -5 5 -3 0 -5 -2 -5
-5z"/>
<path d="M830 196 c0 -9 5 -16 10 -16 6 0 10 4 10 9 0 6 -4 13 -10 16 -5 3
-10 -1 -10 -9z"/>
<path d="M86 192 c-3 -6 -1 -14 5 -17 15 -10 25 3 12 16 -7 7 -13 7 -17 1z"/>
<path d="M726 192 c-3 -6 -1 -14 5 -17 15 -10 25 3 12 16 -7 7 -13 7 -17 1z"/>
<path d="M130 185 c0 -3 2 -5 5 -5 3 0 5 2 5 5 0 3 -2 5 -5 5 -3 0 -5 -2 -5
-5z"/>
<path d="M403 179 c11 -7 23 -7 28 -2 5 5 -3 9 -19 11 -24 1 -25 0 -9 -9z"/>
<path d="M630 185 c0 -3 2 -5 5 -5 3 0 5 2 5 5 0 3 -2 5 -5 5 -3 0 -5 -2 -5
-5z"/>
<path d="M770 185 c0 -3 2 -5 5 -5 3 0 5 2 5 5 0 3 -2 5 -5 5 -3 0 -5 -2 -5
-5z"/>
<path d="M12 158 c3 -7 13 -15 22 -16 12 -3 17 1 14 10 -3 7 -13 15 -22 16
-12 3 -17 -1 -14 -10z"/>
<path d="M180 165 c0 -3 2 -5 5 -5 3 0 5 2 5 5 0 3 -2 5 -5 5 -3 0 -5 -2 -5
-5z"/>
<path d="M340 156 c0 -9 7 -16 16 -16 9 0 14 5 12 12 -6 18 -28 21 -28 4z"/>
<path d="M500 165 c0 -3 2 -5 5 -5 3 0 5 2 5 5 0 3 -2 5 -5 5 -3 0 -5 -2 -5
-5z"/>
<path d="M650 160 c0 -14 26 -23 41 -15 8 6 7 10 -2 16 -19 12 -39 11 -39 -1z"/>
<path d="M820 165 c0 -3 2 -5 5 -5 3 0 5 2 5 5 0 3 -2 5 -5 5 -3 0 -5 -2 -5
-5z"/>
<path d="M184 138 c-4 -7 -3 -8 4 -4 12 7 16 16 8 16 -3 0 -8 -5 -12 -12z"/>
<path d="M824 138 c-4 -7 -3 -8 4 -4 7 4 12 9 12 12 0 8 -9 4 -16 -8z"/>
<path d="M125 130 c3 -5 8 -10 11 -10 3 0 2 5 -1 10 -3 6 -8 10 -11 10 -3 0
-2 -4 1 -10z"/>
<path d="M416 131 c-3 -5 1 -14 8 -20 12 -10 13 -8 9 8 -6 23 -9 25 -17 12z"/>
<path d="M504 132 c3 -5 0 -13 -6 -15 -9 -4 -10 -6 -1 -6 17 -1 25 16 12 25
-7 4 -9 3 -5 -4z"/>
<path d="M765 130 c3 -5 8 -10 11 -10 3 0 2 5 -1 10 -3 6 -8 10 -11 10 -3 0
-2 -4 1 -10z"/>
<path d="M60 125 c0 -3 2 -5 5 -5 3 0 5 2 5 5 0 3 -2 5 -5 5 -3 0 -5 -2 -5 -5z"/>
<path d="M90 126 c0 -2 7 -9 15 -16 13 -11 14 -10 9 4 -5 14 -24 23 -24 12z"/>
<path d="M380 125 c0 -3 2 -5 5 -5 3 0 5 2 5 5 0 3 -2 5 -5 5 -3 0 -5 -2 -5
-5z"/>
<path d="M450 125 c0 -3 2 -5 5 -5 3 0 5 2 5 5 0 3 -2 5 -5 5 -3 0 -5 -2 -5
-5z"/>
<path d="M710 125 c0 -3 2 -5 5 -5 3 0 5 2 5 5 0 3 -2 5 -5 5 -3 0 -5 -2 -5
-5z"/>
<path d="M730 126 c0 -2 7 -9 15 -16 13 -11 14 -10 9 4 -5 14 -24 23 -24 12z"/>
<path d="M170 115 c0 -3 2 -5 5 -5 3 0 5 2 5 5 0 3 -2 5 -5 5 -3 0 -5 -2 -5
-5z"/>
<path d="M310 115 c0 -3 2 -5 5 -5 3 0 5 2 5 5 0 3 -2 5 -5 5 -3 0 -5 -2 -5
-5z"/>
<path d="M820 115 c0 -3 2 -5 5 -5 3 0 5 2 5 5 0 3 -2 5 -5 5 -3 0 -5 -2 -5
-5z"/>
<path d="M950 115 c0 -3 2 -5 5 -5 3 0 5 2 5 5 0 3 -2 5 -5 5 -3 0 -5 -2 -5
-5z"/>
<path d="M50 105 c0 -3 2 -5 5 -5 3 0 5 2 5 5 0 3 -2 5 -5 5 -3 0 -5 -2 -5 -5z"/>
<path d="M190 105 c0 -3 2 -5 5 -5 3 0 5 2 5 5 0 3 -2 5 -5 5 -3 0 -5 -2 -5
-5z"/>
<path d="M526 102 c-3 -5 1 -15 9 -22 21 -17 27 -9 10 13 -7 10 -16 14 -19 9z"/>
<path d="M65 90 c-3 -5 -1 -10 4 -10 6 0 11 5 11 10 0 6 -2 10 -4 10 -3 0 -8
-4 -11 -10z"/>
<path d="M210 91 c0 -5 6 -14 13 -20 10 -8 14 -7 14 4 0 8 -6 16 -14 19 -7 3
-13 2 -13 -3z"/>
<path d="M290 89 c0 -5 -4 -7 -10 -4 -5 3 -10 1 -10 -4 0 -15 11 -13 34 4 17
13 18 15 3 15 -9 0 -17 -5 -17 -11z"/>
<path d="M385 90 c3 -5 11 -10 16 -10 6 0 7 5 4 10 -3 6 -11 10 -16 10 -6 0
-7 -4 -4 -10z"/>
<path d="M608 92 c-10 -2 -18 -8 -18 -13 0 -11 11 -11 30 1 18 11 11 18 -12
12z"/>
<path d="M705 90 c-3 -5 -1 -10 4 -10 6 0 11 5 11 10 0 6 -2 10 -4 10 -3 0 -8
-4 -11 -10z"/>
<path d="M855 80 c10 -11 20 -20 22 -20 7 0 -2 25 -12 32 -21 16 -27 7 -10
-12z"/>
<path d="M920 85 c-16 -19 -1 -19 24 0 16 12 17 15 4 15 -8 0 -21 -7 -28 -15z"/>
<path d="M180 55 c-11 -13 -11 -18 0 -28 10 -9 11 -9 6 1 -7 11 6 17 28 13 5
-1 4 5 -4 13 -15 19 -15 19 -30 1z m20 0 c0 -3 -2 -5 -5 -5 -3 0 -5 2 -5 5 0
3 2 5 5 5 3 0 5 -2 5 -5z"/>
<path d="M820 55 c-16 -19 -5 -32 13 -17 8 7 18 8 23 4 4 -4 2 1 -5 11 -16 21
-16 21 -31 2z m20 0 c0 -3 -2 -5 -5 -5 -3 0 -5 2 -5 5 0 3 2 5 5 5 3 0 5 -2 5
-5z"/>
<path d="M20 51 c0 -12 29 -41 41 -41 5 0 -1 11 -13 25 -24 27 -28 30 -28 16z"/>
<path d="M495 51 c-3 -5 0 -13 7 -17 6 -4 14 -2 16 4 2 7 9 9 14 6 7 -4 8 -2
4 4 -9 14 -33 16 -41 3z m15 -6 c0 -3 -2 -5 -5 -5 -3 0 -5 2 -5 5 0 3 2 5 5 5
3 0 5 -2 5 -5z"/>
<path d="M660 54 c0 -12 38 -50 44 -43 2 2 -7 15 -20 29 -13 13 -24 20 -24 14z"/>
<path d="M120 41 c0 -5 -7 -17 -16 -25 -8 -9 -11 -16 -6 -16 16 0 44 38 33 45
-6 3 -11 2 -11 -4z"/>
<path d="M350 30 c6 -11 18 -20 27 -20 14 0 14 2 -2 20 -10 11 -22 20 -27 20
-5 0 -4 -9 2 -20z"/>
<path d="M427 24 c-10 -13 -14 -24 -9 -24 14 0 44 37 35 43 -4 3 -16 -6 -26
-19z"/>
<path d="M760 41 c0 -5 -7 -17 -16 -25 -8 -9 -11 -16 -6 -16 16 0 44 38 33 45
-6 3 -11 2 -11 -4z"/>
<path d="M310 35 c0 -3 2 -5 5 -5 3 0 5 2 5 5 0 3 -2 5 -5 5 -3 0 -5 -2 -5 -5z"/>
<path d="M950 35 c0 -3 2 -5 5 -5 3 0 5 2 5 5 0 3 -2 5 -5 5 -3 0 -5 -2 -5 -5z"/>
<path d="M0 10 c0 -7 3 -10 7 -7 3 4 3 10 0 14 -4 3 -7 0 -7 -7z"/>
<path d="M300 10 c19 -13 30 -13 30 0 0 6 -10 10 -22 10 -19 0 -20 -2 -8 -10z"/>
<path d="M625 10 c3 -5 10 -10 16 -10 5 0 9 5 9 10 0 6 -7 10 -16 10 -8 0 -12
-4 -9 -10z"/>
<path d="M930 16 c0 -2 7 -6 15 -10 8 -3 15 -1 15 4 0 6 -7 10 -15 10 -8 0
-15 -2 -15 -4z"/>
</g>
<g transform="translate(0.000000,96.000000) scale(0.100000,-0.100000)"
fill="#9a8273" stroke="none">
<path d="M890 865 c0 -3 2 -5 5 -5 3 0 5 2 5 5 0 3 -2 5 -5 5 -3 0 -5 -2 -5
-5z"/>
<path d="M920 845 c0 -3 2 -5 5 -5 3 0 5 2 5 5 0 3 -2 5 -5 5 -3 0 -5 -2 -5
-5z"/>
<path d="M665 801 c-3 -5 -1 -12 5 -16 5 -3 10 1 10 9 0 18 -6 21 -15 7z"/>
<path d="M343 793 c4 -3 10 -3 14 0 3 4 0 7 -7 7 -7 0 -10 -3 -7 -7z"/>
<path d="M540 725 c0 -3 2 -5 5 -5 3 0 5 2 5 5 0 3 -2 5 -5 5 -3 0 -5 -2 -5
-5z"/>
<path d="M0 575 c0 -3 2 -5 5 -5 3 0 5 2 5 5 0 3 -2 5 -5 5 -3 0 -5 -2 -5 -5z"/>
<path d="M550 555 c0 -3 2 -5 5 -5 3 0 5 2 5 5 0 3 -2 5 -5 5 -3 0 -5 -2 -5
-5z"/>
<path d="M31 474 c0 -11 3 -14 6 -6 3 7 2 16 -1 19 -3 4 -6 -2 -5 -13z"/>
<path d="M665 481 c-3 -5 -1 -12 5 -16 5 -3 10 1 10 9 0 18 -6 21 -15 7z"/>
<path d="M343 473 c4 -3 10 -3 14 0 3 4 0 7 -7 7 -7 0 -10 -3 -7 -7z"/>
<path d="M530 415 c0 -3 2 -5 5 -5 3 0 5 2 5 5 0 3 -2 5 -5 5 -3 0 -5 -2 -5
-5z"/>
<path d="M570 225 c0 -3 2 -5 5 -5 3 0 5 2 5 5 0 3 -2 5 -5 5 -3 0 -5 -2 -5
-5z"/>
<path d="M600 205 c0 -3 2 -5 5 -5 3 0 5 2 5 5 0 3 -2 5 -5 5 -3 0 -5 -2 -5
-5z"/>
<path d="M25 160 c-3 -5 -1 -10 4 -10 6 0 11 5 11 10 0 6 -2 10 -4 10 -3 0 -8
-4 -11 -10z"/>
<path d="M345 161 c-3 -5 -1 -12 5 -16 5 -3 10 1 10 9 0 18 -6 21 -15 7z"/>
<path d="M665 160 c-3 -5 -1 -10 4 -10 6 0 11 5 11 10 0 6 -2 10 -4 10 -3 0
-8 -4 -11 -10z"/>
<path d="M210 85 c0 -3 2 -5 5 -5 3 0 5 2 5 5 0 3 -2 5 -5 5 -3 0 -5 -2 -5 -5z"/>
</g>
  </g>
</svg>
