<?xml version="1.0" encoding="UTF-8" standalone="no"?>
<!-- Created with Inkscape (http://www.inkscape.org/) -->

<svg
   xmlns:dc="http://purl.org/dc/elements/1.1/"
   xmlns:cc="http://creativecommons.org/ns#"
   xmlns:rdf="http://www.w3.org/1999/02/22-rdf-syntax-ns#"
   xmlns:svg="http://www.w3.org/2000/svg"
   xmlns="http://www.w3.org/2000/svg"
   xmlns:sodipodi="http://sodipodi.sourceforge.net/DTD/sodipodi-0.dtd"
   xmlns:inkscape="http://www.inkscape.org/namespaces/inkscape"
   width="16px"
   height="16px"
   viewBox="0 0 16px 16px"
   version="1.1"
   id="svgMain"
   inkscape:version="0.92.2 (5c3e80d, 2017-08-06)"
   sodipodi:docname="stone.svg">
  <defs
     id="defs4542" />
  <sodipodi:namedview
     id="base"
     pagecolor="#ffffff"
     bordercolor="#666666"
     borderopacity="1.0"
     inkscape:pageopacity="0.0"
     inkscape:pageshadow="2"
     inkscape:zoom="8"
     inkscape:cx="8.4056364"
     inkscape:cy="9.6304653"
     inkscape:document-units="px"
     inkscape:current-layer="layer1"
     showgrid="false"
     units="px"
     inkscape:window-width="1680"
     inkscape:window-height="987"
     inkscape:window-x="-8"
     inkscape:window-y="-8"
     inkscape:window-maximized="1" />
  <metadata
     id="metadata1">
    <rdf:RDF>
      <cc:Work
         rdf:about="">
        <dc:format>image/svg+xml</dc:format>
        <dc:type
           rdf:resource="http://purl.org/dc/dcmitype/StillImage" />
        <dc:title />
      </cc:Work>
    </rdf:RDF>
  </metadata>
  <g
     transform="translate(-16,-16) scale(0.5,0.5)"
     inkscape:label="Layer 1"
     inkscape:groupmode="layer"
     id="layer1">
    <!-- INSERT MARKER -->
    <g
       id="g1898">
      <g
         id="g7"
         stroke="none"
         fill="#747474"
         transform="translate(0.000000,96.000000) scale(0.100000,-0.100000)">
        <path
           id="path5"
           d="M0 480 l0 -480 480 0 480 0 0 480 0 480 -480 0 -480 0 0 -480z" />
      </g>
      <g
         fill="#7f7f7f"
         stroke="none"
         id="g73"
         transform="translate(0.000000,96.000000) scale(0.100000,-0.100000)">
        <path
           id="path9"
           d="M0 954 c0 -3 5 -15 11 -26 7 -13 7 -18 1 -14 -7 4 -10 -5 -10 -24 1 -27 4 -30 32 -30 29 -1 30 -2 13 -15 -11 -7 -25 -11 -33 -8 -11 4 -14 -8 -14 -56 0 -60 0 -61 28 -61 15 0 33 4 41 9 15 10 8 16 -39 38 -24 11 -23 11 15 11 67 0 71 0 57 14 -7 7 -29 12 -50 11 l-37 -2 44 14 c33 11 48 12 58 4 9 -8 17 -8 26 -1 6 5 21 6 32 2 17 -6 14 -9 -19 -20 l-38 -12 27 -18 c17 -11 23 -20 16 -25 -7 -4 -19 -1 -27 6 -11 9 -18 9 -26 1 -15 -15 1 -35 24 -28 12 2 27 -2 35 -10 18 -17 37 -19 27 -1 -4 6 -4 9 0 5 4 -3 20 -3 35 2 17 5 38 3 57 -5 l29 -13 -32 -1 c-17 -1 -35 -6 -39 -12 -3 -6 -16 -8 -28 -5 -11 2 -30 -2 -40 -10 -11 -8 -37 -14 -57 -14 -21 0 -41 -4 -44 -10 -3 -5 1 -10 10 -10 9 0 13 -4 10 -10 -9 -14 -58 -13 -73 2 -17 17 -25 3 -12 -22 7 -13 8 -20 2 -16 -7 4 -10 -5 -10 -24 1 -27 4 -30 32 -30 29 -1 30 -2 13 -15 -11 -7 -25 -11 -33 -8 -11 4 -14 -8 -14 -56 0 -60 0 -61 28 -61 15 0 33 4 41 9 15 10 8 16 -39 38 -24 11 -23 11 15 11 67 0 71 0 57 14 -7 7 -29 12 -50 11 l-37 -2 44 14 c33 11 48 12 58 4 9 -8 17 -8 26 -1 6 5 21 6 32 2 17 -6 14 -9 -19 -20 l-38 -12 27 -18 c17 -11 23 -20 16 -25 -7 -4 -19 -1 -27 6 -11 9 -18 9 -26 1 -15 -15 1 -35 24 -28 12 2 27 -2 35 -10 18 -17 37 -19 27 -1 -4 6 -4 9 0 5 4 -3 20 -3 35 2 17 5 38 3 57 -5 l29 -13 -32 -1 c-17 -1 -35 -6 -39 -12 -3 -6 -16 -8 -28 -5 -11 2 -30 -2 -40 -10 -11 -8 -37 -14 -57 -14 -21 0 -41 -4 -44 -10 -3 -6 1 -10 10 -10 9 0 13 -5 10 -10 -9 -14 -58 -13 -73 2 -17 17 -25 3 -12 -22 7 -13 8 -20 2 -16 -7 4 -10 -5 -10 -24 1 -27 4 -30 32 -30 29 -1 30 -2 13 -15 -11 -7 -25 -11 -33 -8 -11 4 -14 -8 -14 -56 0 -60 0 -61 28 -61 15 0 33 4 41 9 15 10 8 16 -39 38 -24 11 -23 11 15 11 67 0 71 0 57 14 -7 7 -29 12 -50 11 l-37 -2 44 14 c33 11 48 12 58 4 9 -8 17 -8 26 -1 6 5 21 6 32 2 17 -6 14 -9 -19 -20 l-38 -12 27 -18 c17 -11 23 -20 16 -25 -7 -4 -19 -1 -27 6 -11 9 -18 9 -26 1 -15 -15 1 -35 24 -28 12 2 27 -2 35 -10 18 -17 37 -19 27 -1 -4 6 -4 9 0 5 4 -3 20 -3 35 2 17 5 38 3 57 -5 l29 -13 -32 -1 c-17 -1 -35 -6 -39 -12 -3 -6 -16 -8 -28 -5 -11 2 -30 -2 -40 -10 -11 -8 -37 -14 -57 -14 -21 0 -41 -4 -44 -10 -9 -15 128 -13 143 2 7 7 12 9 12 4 0 -4 7 0 16 8 8 9 24 16 35 16 17 0 18 -3 8 -22 -10 -19 -9 -20 7 -13 11 4 37 11 59 15 22 4 32 8 22 9 -10 0 -16 5 -13 10 3 5 25 6 50 4 26 -3 46 -1 50 6 5 8 -12 11 -56 11 -35 0 -70 5 -78 10 -12 7 -8 10 15 10 17 0 36 4 44 9 15 10 8 16 -39 38 -24 11 -23 11 15 11 67 0 71 0 57 14 -7 7 -29 12 -50 11 l-37 -2 44 14 c33 11 48 12 58 4 9 -8 17 -8 26 -1 6 5 21 6 32 2 17 -6 14 -9 -19 -20 l-38 -12 27 -18 c17 -11 23 -20 16 -25 -7 -4 -19 -1 -27 6 -11 9 -18 9 -26 1 -15 -15 1 -35 24 -28 12 2 27 -2 35 -10 18 -17 37 -19 27 -1 -4 6 -4 9 0 5 4 -3 20 -3 35 2 17 5 38 3 57 -5 l29 -13 -32 -1 c-17 -1 -35 -6 -39 -12 -3 -6 -16 -8 -28 -5 -11 2 -30 -2 -40 -10 -11 -8 -37 -14 -57 -14 -21 0 -41 -4 -44 -10 -9 -15 128 -13 143 2 7 7 12 9 12 4 0 -4 7 0 16 8 8 9 24 16 35 16 17 0 18 -3 8 -22 -10 -19 -9 -20 7 -13 11 4 37 11 59 15 22 4 32 8 22 9 -10 0 -16 5 -13 10 3 5 25 6 50 4 26 -3 46 -1 50 6 5 8 -12 11 -56 11 -35 0 -70 5 -78 10 -12 7 -8 10 15 10 17 0 36 4 44 9 15 10 8 16 -39 38 -24 11 -23 11 15 11 67 0 71 0 57 14 -7 7 -29 12 -50 11 l-37 -2 44 14 c33 11 48 12 58 4 9 -8 17 -8 26 -1 6 5 21 6 32 2 17 -6 14 -9 -19 -20 l-38 -12 27 -18 c17 -11 23 -20 16 -25 -7 -4 -19 -1 -27 6 -11 9 -18 9 -26 1 -15 -15 1 -35 24 -28 12 2 27 -2 35 -10 18 -17 37 -19 27 -1 -4 6 -4 9 0 5 4 -3 20 -3 35 2 17 5 38 3 57 -5 l29 -13 -32 -1 c-17 -1 -35 -6 -39 -12 -3 -6 -16 -8 -28 -5 -11 2 -30 -2 -40 -10 -11 -8 -37 -14 -57 -14 -21 0 -41 -4 -44 -10 -9 -15 128 -13 143 2 7 7 12 9 12 4 0 -4 7 0 16 8 8 9 24 16 35 16 17 0 18 -3 8 -22 -10 -18 -9 -20 6 -15 9 4 19 7 21 7 3 0 4 52 3 115 l-1 115 -37 1 c-32 1 -45 2 -89 7 -7 1 -10 7 -6 13 4 7 20 8 43 4 62 -12 91 -12 91 1 0 14 -59 44 -75 38 -16 -7 -39 22 -25 31 5 3 10 3 10 0 0 -4 7 1 16 9 8 9 24 16 35 16 16 0 18 -4 10 -18 -7 -14 -5 -21 10 -30 11 -7 19 -8 19 -2 0 5 -6 10 -12 10 -10 0 -10 2 0 8 9 6 12 39 11 120 l-1 112 -37 1 c-32 1 -45 2 -89 7 -7 1 -10 7 -6 13 4 7 20 8 43 4 62 -12 91 -12 91 1 0 14 -59 44 -75 38 -16 -7 -39 22 -25 31 5 3 10 3 10 0 0 -4 7 1 16 9 8 9 24 16 35 16 16 0 18 -4 10 -18 -7 -14 -5 -21 10 -30 11 -7 19 -8 19 -2 0 5 -6 10 -12 10 -10 0 -10 2 0 8 9 6 12 39 11 120 l-1 112 -37 1 c-32 1 -45 2 -89 7 -7 1 -10 7 -6 13 4 7 20 8 43 4 62 -12 91 -12 91 1 0 14 -59 44 -76 37 -6 -2 -15 0 -19 6 -8 14 -122 14 -130 1 -3 -5 -19 -10 -35 -10 -16 0 -32 5 -35 10 -3 6 -16 10 -27 10 l-22 0 22 -20 c12 -12 22 -23 22 -25 0 -5 -26 4 -59 21 -13 7 -29 10 -36 8 -7 -3 -16 -1 -20 5 -8 14 -122 14 -130 1 -3 -5 -19 -10 -35 -10 -16 0 -32 5 -35 10 -3 6 -16 10 -27 10 l-22 0 22 -20 c12 -12 22 -23 22 -25 0 -5 -26 4 -59 21 -13 7 -29 10 -36 8 -7 -3 -16 -1 -20 5 -8 14 -122 14 -130 1 -3 -5 -19 -10 -35 -10 -16 0 -32 5 -35 10 -7 11 -25 14 -25 4z m170 -39 c-12 -13 -27 -22 -33 -18 -6 3 -29 5 -53 5 -23 -1 -46 2 -49 8 -4 6 10 9 36 7 26 -2 56 4 78 15 43 22 52 16 21 -17z m320 0 c-12 -13 -27 -22 -33 -18 -6 3 -29 5 -53 5 -23 -1 -46 2 -49 8 -4 6 10 9 36 7 26 -2 56 4 78 15 43 22 52 16 21 -17z m320 0 c-12 -13 -27 -22 -33 -18 -6 3 -29 5 -53 5 -23 -1 -46 2 -49 8 -4 6 10 9 36 7 26 -2 56 4 78 15 43 22 52 16 21 -17z m-540 10 c0 -3 -2 -5 -5 -5 -3 0 -5 2 -5 5 0 3 2 5 5 5 3 0 5 -2 5 -5z m320 0 c0 -3 -2 -5 -5 -5 -3 0 -5 2 -5 5 0 3 2 5 5 5 3 0 5 -2 5 -5z m320 0 c0 -3 -2 -5 -5 -5 -3 0 -5 2 -5 5 0 3 2 5 5 5 3 0 5 -2 5 -5z m-618 -29 c15 -1 31 -6 35 -10 4 -4 -26 -5 -67 -3 -90 6 -83 5 -74 18 4 7 20 8 43 4 20 -4 48 -8 63 -9z m320 0 c15 -1 31 -6 35 -10 4 -4 -26 -5 -67 -3 -90 6 -83 5 -74 18 4 7 20 8 43 4 20 -4 48 -8 63 -9z m-582 -1 c0 -3 -2 -5 -5 -5 -3 0 -5 2 -5 5 0 3 2 5 5 5 3 0 5 -2 5 -5z m320 0 c0 -3 -2 -5 -5 -5 -3 0 -5 2 -5 5 0 3 2 5 5 5 3 0 5 -2 5 -5z m320 0 c0 -3 -2 -5 -5 -5 -3 0 -5 2 -5 5 0 3 2 5 5 5 3 0 5 -2 5 -5z m-536 -19 c46 8 64 -3 36 -23 -24 -17 -82 -12 -106 8 -20 16 -7 31 17 19 10 -6 35 -8 53 -4z m320 0 c46 8 64 -3 36 -23 -24 -17 -82 -12 -106 8 -20 16 -7 31 17 19 10 -6 35 -8 53 -4z m320 0 c46 8 64 -3 36 -23 -24 -17 -82 -12 -106 8 -20 16 -7 31 17 19 10 -6 35 -8 53 -4z m-490 -24 c6 -10 -40 -10 -50 1 -4 4 4 7 19 7 14 0 28 -4 31 -8z m83 -6 c-10 -8 -27 -12 -37 -9 -29 8 -13 23 23 23 29 -1 30 -2 14 -14z m237 6 c6 -10 -40 -10 -50 1 -4 4 4 7 19 7 14 0 28 -4 31 -8z m83 -6 c-10 -8 -27 -12 -37 -9 -29 8 -13 23 23 23 29 -1 30 -2 14 -14z m237 6 c6 -10 -40 -10 -50 1 -4 4 4 7 19 7 14 0 28 -4 31 -8z m-486 -34 c8 -8 15 -8 24 -1 7 6 22 7 33 3 17 -6 14 -9 -19 -20 l-38 -12 27 -18 c17 -11 23 -20 16 -25 -7 -4 -19 -1 -27 6 -11 9 -18 9 -26 1 -15 -15 1 -35 24 -28 12 2 27 -2 35 -10 18 -17 37 -19 27 -1 -4 6 -4 9 0 5 4 -3 20 -3 35 2 17 5 38 3 57 -5 l29 -13 -32 -1 c-17 -1 -35 -6 -39 -12 -3 -6 -16 -8 -28 -5 -11 2 -30 -2 -40 -10 -11 -8 -37 -14 -57 -14 -21 0 -41 -4 -44 -10 -3 -5 1 -10 10 -10 9 0 13 -4 10 -10 -3 -5 -19 -10 -35 -10 -16 0 -32 5 -35 10 -3 6 -16 10 -28 10 -37 0 2 19 43 21 19 1 27 3 17 6 -34 9 -7 21 37 16 26 -3 46 -1 50 6 5 8 -12 11 -56 11 -35 0 -70 5 -78 10 -12 7 -8 10 15 10 17 0 36 4 44 9 15 10 8 16 -39 38 -24 11 -23 11 15 11 67 0 71 0 57 14 -7 7 -29 12 -50 11 l-37 -2 40 14 c51 17 49 17 63 3z m320 0 c8 -8 15 -8 24 -1 7 6 22 7 33 3 17 -6 14 -9 -19 -20 l-38 -12 27 -18 c17 -11 23 -20 16 -25 -7 -4 -19 -1 -27 6 -11 9 -18 9 -26 1 -15 -15 1 -35 24 -28 12 2 27 -2 35 -10 18 -17 37 -19 27 -1 -4 6 -4 9 0 5 4 -3 20 -3 35 2 17 5 38 3 57 -5 l29 -13 -32 -1 c-17 -1 -35 -6 -39 -12 -3 -6 -16 -8 -28 -5 -11 2 -30 -2 -40 -10 -11 -8 -37 -14 -57 -14 -21 0 -41 -4 -44 -10 -3 -5 1 -10 10 -10 9 0 13 -4 10 -10 -3 -5 -19 -10 -35 -10 -16 0 -32 5 -35 10 -3 6 -16 10 -28 10 -37 0 2 19 43 21 19 1 27 3 17 6 -34 9 -7 21 37 16 26 -3 46 -1 50 6 5 8 -12 11 -56 11 -35 0 -70 5 -78 10 -12 7 -8 10 15 10 17 0 36 4 44 9 15 10 8 16 -39 38 -24 11 -23 11 15 11 67 0 71 0 57 14 -7 7 -29 12 -50 11 l-37 -2 40 14 c51 17 49 17 63 3z m-484 -6 c3 -5 -13 -9 -34 -10 -22 -1 -40 3 -40 8 0 12 67 13 74 2z m320 0 c3 -5 -13 -9 -34 -10 -22 -1 -40 3 -40 8 0 12 67 13 74 2z m320 0 c3 -5 -13 -9 -34 -10 -22 -1 -40 3 -40 8 0 12 67 13 74 2z m-644 -42 c16 -10 14 -11 -27 -15 -16 -1 -36 -5 -45 -9 -11 -5 -18 -4 -18 3 0 6 7 11 15 11 8 0 15 5 15 10 0 13 40 13 60 0z m320 0 c16 -10 14 -11 -27 -15 -16 -1 -36 -5 -45 -9 -11 -5 -18 -4 -18 3 0 6 7 11 15 11 8 0 15 5 15 10 0 13 40 13 60 0z m320 0 c16 -10 14 -11 -27 -15 -16 -1 -36 -5 -45 -9 -11 -5 -18 -4 -18 3 0 6 7 11 15 11 8 0 15 5 15 10 0 13 40 13 60 0z m-619 -109 c-8 -14 -5 -21 14 -31 29 -15 43 -42 17 -33 -9 4 -28 12 -41 19 -13 7 -29 10 -36 8 -6 -3 -18 2 -25 11 -11 14 -11 16 5 15 3 -1 13 6 21 15 9 8 24 15 35 15 16 0 18 -3 10 -19z m320 0 c-8 -14 -5 -21 14 -31 29 -15 43 -42 17 -33 -9 4 -28 12 -41 19 -13 7 -29 10 -36 8 -6 -3 -18 2 -25 11 -11 14 -11 16 5 15 3 -1 13 6 21 15 9 8 24 15 35 15 16 0 18 -3 10 -19z m-441 -66 c-12 -13 -27 -22 -33 -18 -6 3 -29 5 -53 5 -23 -1 -46 2 -49 8 -4 6 10 9 36 7 26 -2 56 4 78 15 43 22 52 16 21 -17z m320 0 c-12 -13 -27 -22 -33 -18 -6 3 -29 5 -53 5 -23 -1 -46 2 -49 8 -4 6 10 9 36 7 26 -2 56 4 78 15 43 22 52 16 21 -17z m320 0 c-12 -13 -27 -22 -33 -18 -6 3 -29 5 -53 5 -23 -1 -46 2 -49 8 -4 6 10 9 36 7 26 -2 56 4 78 15 43 22 52 16 21 -17z m-540 10 c0 -3 -2 -5 -5 -5 -3 0 -5 2 -5 5 0 3 2 5 5 5 3 0 5 -2 5 -5z m320 0 c0 -3 -2 -5 -5 -5 -3 0 -5 2 -5 5 0 3 2 5 5 5 3 0 5 -2 5 -5z m320 0 c0 -3 -2 -5 -5 -5 -3 0 -5 2 -5 5 0 3 2 5 5 5 3 0 5 -2 5 -5z m-618 -29 c15 -1 31 -6 35 -10 4 -4 -26 -5 -67 -3 -90 6 -83 5 -74 18 4 7 20 8 43 4 20 -4 48 -8 63 -9z m320 0 c15 -1 31 -6 35 -10 4 -4 -26 -5 -67 -3 -90 6 -83 5 -74 18 4 7 20 8 43 4 20 -4 48 -8 63 -9z m-582 -1 c0 -3 -2 -5 -5 -5 -3 0 -5 2 -5 5 0 3 2 5 5 5 3 0 5 -2 5 -5z m320 0 c0 -3 -2 -5 -5 -5 -3 0 -5 2 -5 5 0 3 2 5 5 5 3 0 5 -2 5 -5z m320 0 c0 -3 -2 -5 -5 -5 -3 0 -5 2 -5 5 0 3 2 5 5 5 3 0 5 -2 5 -5z m-536 -19 c46 8 64 -3 36 -23 -24 -17 -82 -12 -106 8 -20 16 -7 31 17 19 10 -6 35 -8 53 -4z m320 0 c46 8 64 -3 36 -23 -24 -17 -82 -12 -106 8 -20 16 -7 31 17 19 10 -6 35 -8 53 -4z m320 0 c46 8 64 -3 36 -23 -24 -17 -82 -12 -106 8 -20 16 -7 31 17 19 10 -6 35 -8 53 -4z m-490 -24 c6 -10 -40 -10 -50 1 -4 4 4 7 19 7 14 0 28 -4 31 -8z m83 -6 c-10 -8 -27 -12 -37 -9 -29 8 -13 23 23 23 29 -1 30 -2 14 -14z m237 6 c6 -10 -40 -10 -50 1 -4 4 4 7 19 7 14 0 28 -4 31 -8z m83 -6 c-10 -8 -27 -12 -37 -9 -29 8 -13 23 23 23 29 -1 30 -2 14 -14z m237 6 c6 -10 -40 -10 -50 1 -4 4 4 7 19 7 14 0 28 -4 31 -8z m-486 -34 c8 -8 15 -8 24 -1 7 6 22 7 33 3 17 -6 14 -9 -19 -20 l-38 -12 27 -18 c17 -11 23 -20 16 -25 -7 -4 -19 -1 -27 6 -11 9 -18 9 -26 1 -15 -15 1 -35 24 -28 12 2 27 -2 35 -10 18 -17 37 -19 27 -1 -4 6 -4 9 0 5 4 -3 20 -3 35 2 17 5 38 3 57 -5 l29 -13 -32 -1 c-17 -1 -35 -6 -39 -12 -3 -6 -16 -8 -28 -5 -11 2 -30 -2 -40 -10 -11 -8 -37 -14 -57 -14 -21 0 -41 -4 -44 -10 -3 -5 1 -10 10 -10 9 0 13 -4 10 -10 -8 -13 -62 -13 -70 0 -3 6 -16 10 -28 10 -37 0 2 19 43 21 19 1 27 3 17 6 -34 9 -7 21 37 16 26 -3 46 -1 50 6 5 8 -12 11 -56 11 -35 0 -70 5 -78 10 -12 7 -8 10 15 10 17 0 36 4 44 9 15 10 8 16 -39 38 -24 11 -23 11 15 11 67 0 71 0 57 14 -7 7 -29 12 -50 11 l-37 -2 40 14 c51 17 49 17 63 3z m320 0 c8 -8 15 -8 24 -1 7 6 22 7 33 3 17 -6 14 -9 -19 -20 l-38 -12 27 -18 c17 -11 23 -20 16 -25 -7 -4 -19 -1 -27 6 -11 9 -18 9 -26 1 -15 -15 1 -35 24 -28 12 2 27 -2 35 -10 18 -17 37 -19 27 -1 -4 6 -4 9 0 5 4 -3 20 -3 35 2 17 5 38 3 57 -5 l29 -13 -32 -1 c-17 -1 -35 -6 -39 -12 -3 -6 -16 -8 -28 -5 -11 2 -30 -2 -40 -10 -11 -8 -37 -14 -57 -14 -21 0 -41 -4 -44 -10 -3 -5 1 -10 10 -10 9 0 13 -4 10 -10 -8 -13 -62 -13 -70 0 -3 6 -16 10 -28 10 -37 0 2 19 43 21 19 1 27 3 17 6 -34 9 -7 21 37 16 26 -3 46 -1 50 6 5 8 -12 11 -56 11 -35 0 -70 5 -78 10 -12 7 -8 10 15 10 17 0 36 4 44 9 15 10 8 16 -39 38 -24 11 -23 11 15 11 67 0 71 0 57 14 -7 7 -29 12 -50 11 l-37 -2 40 14 c51 17 49 17 63 3z m-484 -6 c3 -5 -13 -9 -34 -10 -22 -1 -40 3 -40 8 0 12 67 13 74 2z m320 0 c3 -5 -13 -9 -34 -10 -22 -1 -40 3 -40 8 0 12 67 13 74 2z m320 0 c3 -5 -13 -9 -34 -10 -22 -1 -40 3 -40 8 0 12 67 13 74 2z m-644 -42 c16 -10 14 -11 -27 -15 -16 -1 -36 -5 -45 -9 -11 -5 -18 -4 -18 3 0 6 7 11 15 11 8 0 15 5 15 10 0 13 40 13 60 0z m320 0 c16 -10 14 -11 -27 -15 -16 -1 -36 -5 -45 -9 -11 -5 -18 -4 -18 3 0 6 7 11 15 11 8 0 15 5 15 10 0 13 40 13 60 0z m320 0 c16 -10 14 -11 -27 -15 -16 -1 -36 -5 -45 -9 -11 -5 -18 -4 -18 3 0 6 7 11 15 11 8 0 15 5 15 10 0 13 40 13 60 0z m-619 -109 c-8 -14 -5 -21 14 -31 29 -15 43 -42 17 -33 -9 4 -28 12 -41 19 -13 7 -29 10 -36 8 -6 -3 -18 2 -25 11 -11 14 -11 16 5 15 3 -1 13 6 21 15 9 8 24 15 35 15 16 0 18 -3 10 -19z m320 0 c-8 -14 -5 -21 14 -31 29 -15 43 -42 17 -33 -9 4 -28 12 -41 19 -13 7 -29 10 -36 8 -6 -3 -18 2 -25 11 -11 14 -11 16 5 15 3 -1 13 6 21 15 9 8 24 15 35 15 16 0 18 -3 10 -19z m-441 -66 c-12 -13 -27 -22 -33 -18 -6 3 -29 5 -53 5 -23 -1 -46 2 -49 8 -4 6 10 9 36 7 26 -2 56 4 78 15 43 22 52 16 21 -17z m320 0 c-12 -13 -27 -22 -33 -18 -6 3 -29 5 -53 5 -23 -1 -46 2 -49 8 -4 6 10 9 36 7 26 -2 56 4 78 15 43 22 52 16 21 -17z m320 0 c-12 -13 -27 -22 -33 -18 -6 3 -29 5 -53 5 -23 -1 -46 2 -49 8 -4 6 10 9 36 7 26 -2 56 4 78 15 43 22 52 16 21 -17z m-540 10 c0 -3 -2 -5 -5 -5 -3 0 -5 2 -5 5 0 3 2 5 5 5 3 0 5 -2 5 -5z m320 0 c0 -3 -2 -5 -5 -5 -3 0 -5 2 -5 5 0 3 2 5 5 5 3 0 5 -2 5 -5z m320 0 c0 -3 -2 -5 -5 -5 -3 0 -5 2 -5 5 0 3 2 5 5 5 3 0 5 -2 5 -5z m-618 -29 c15 -1 31 -6 35 -10 4 -4 -26 -5 -67 -3 -90 6 -83 5 -74 18 4 7 20 8 43 4 20 -4 48 -8 63 -9z m320 0 c15 -1 31 -6 35 -10 4 -4 -26 -5 -67 -3 -90 6 -83 5 -74 18 4 7 20 8 43 4 20 -4 48 -8 63 -9z m-582 -1 c0 -3 -2 -5 -5 -5 -3 0 -5 2 -5 5 0 3 2 5 5 5 3 0 5 -2 5 -5z m320 0 c0 -3 -2 -5 -5 -5 -3 0 -5 2 -5 5 0 3 2 5 5 5 3 0 5 -2 5 -5z m320 0 c0 -3 -2 -5 -5 -5 -3 0 -5 2 -5 5 0 3 2 5 5 5 3 0 5 -2 5 -5z m-536 -19 c46 8 64 -3 36 -23 -24 -17 -82 -12 -106 8 -20 16 -7 31 17 19 10 -6 35 -8 53 -4z m320 0 c46 8 64 -3 36 -23 -24 -17 -82 -12 -106 8 -20 16 -7 31 17 19 10 -6 35 -8 53 -4z m320 0 c46 8 64 -3 36 -23 -24 -17 -82 -12 -106 8 -20 16 -7 31 17 19 10 -6 35 -8 53 -4z m-490 -24 c6 -10 -40 -10 -50 1 -4 4 4 7 19 7 14 0 28 -4 31 -8z m83 -6 c-10 -8 -27 -12 -37 -9 -29 8 -13 23 23 23 29 -1 30 -2 14 -14z m237 6 c6 -10 -40 -10 -50 1 -4 4 4 7 19 7 14 0 28 -4 31 -8z m83 -6 c-10 -8 -27 -12 -37 -9 -29 8 -13 23 23 23 29 -1 30 -2 14 -14z m237 6 c6 -10 -40 -10 -50 1 -4 4 4 7 19 7 14 0 28 -4 31 -8z m-650 -40 c3 -5 -13 -9 -34 -10 -22 -1 -40 3 -40 8 0 12 67 13 74 2z m320 0 c3 -5 -13 -9 -34 -10 -22 -1 -40 3 -40 8 0 12 67 13 74 2z m320 0 c3 -5 -13 -9 -34 -10 -22 -1 -40 3 -40 8 0 12 67 13 74 2z m-644 -42 c16 -10 14 -11 -27 -15 -16 -1 -36 -5 -45 -9 -11 -5 -18 -4 -18 3 0 6 7 11 15 11 8 0 15 5 15 10 0 13 40 13 60 0z m320 0 c16 -10 14 -11 -27 -15 -16 -1 -36 -5 -45 -9 -11 -5 -18 -4 -18 3 0 6 7 11 15 11 8 0 15 5 15 10 0 13 40 13 60 0z m320 0 c16 -10 14 -11 -27 -15 -16 -1 -36 -5 -45 -9 -11 -5 -18 -4 -18 3 0 6 7 11 15 11 8 0 15 5 15 10 0 13 40 13 60 0z" />
        <path
           id="path11"
           d="M340 845 c0 -3 2 -5 5 -5 3 0 5 2 5 5 0 3 -2 5 -5 5 -3 0 -5 -2 -5 -5z" />
        <path
           id="path13"
           d="M660 845 c0 -3 2 -5 5 -5 3 0 5 2 5 5 0 3 -2 5 -5 5 -3 0 -5 -2 -5 -5z" />
        <path
           id="path15"
           d="M535 700 c3 -5 8 -10 11 -10 3 0 2 5 -1 10 -3 6 -8 10 -11 10 -3 0 -2 -4 1 -10z" />
        <path
           id="path17"
           d="M490 685 c0 -3 2 -5 5 -5 3 0 5 2 5 5 0 3 -2 5 -5 5 -3 0 -5 -2 -5 -5z" />
        <path
           id="path19"
           d="M855 700 c3 -5 8 -10 11 -10 3 0 2 5 -1 10 -3 6 -8 10 -11 10 -3 0 -2 -4 1 -10z" />
        <path
           id="path21"
           d="M810 685 c0 -3 2 -5 5 -5 3 0 5 2 5 5 0 3 -2 5 -5 5 -3 0 -5 -2 -5 -5z" />
        <path
           id="path23"
           d="M340 525 c0 -3 2 -5 5 -5 3 0 5 2 5 5 0 3 -2 5 -5 5 -3 0 -5 -2 -5 -5z" />
        <path
           id="path25"
           d="M660 525 c0 -3 2 -5 5 -5 3 0 5 2 5 5 0 3 -2 5 -5 5 -3 0 -5 -2 -5 -5z" />
        <path
           id="path27"
           d="M535 380 c3 -5 8 -10 11 -10 3 0 2 5 -1 10 -3 6 -8 10 -11 10 -3 0 -2 -4 1 -10z" />
        <path
           id="path29"
           d="M490 365 c0 -3 2 -5 5 -5 3 0 5 2 5 5 0 3 -2 5 -5 5 -3 0 -5 -2 -5 -5z" />
        <path
           id="path31"
           d="M855 380 c3 -5 8 -10 11 -10 3 0 2 5 -1 10 -3 6 -8 10 -11 10 -3 0 -2 -4 1 -10z" />
        <path
           id="path33"
           d="M810 365 c0 -3 2 -5 5 -5 3 0 5 2 5 5 0 3 -2 5 -5 5 -3 0 -5 -2 -5 -5z" />
        <path
           id="path35"
           d="M340 205 c0 -3 2 -5 5 -5 3 0 5 2 5 5 0 3 -2 5 -5 5 -3 0 -5 -2 -5 -5z" />
        <path
           id="path37"
           d="M660 205 c0 -3 2 -5 5 -5 3 0 5 2 5 5 0 3 -2 5 -5 5 -3 0 -5 -2 -5 -5z" />
        <path
           id="path39"
           d="M945 950 c3 -5 8 -10 11 -10 2 0 4 5 4 10 0 6 -5 10 -11 10 -5 0 -7 -4 -4 -10z" />
        <path
           id="path41"
           d="M20 845 c0 -3 2 -5 5 -5 3 0 5 2 5 5 0 3 -2 5 -5 5 -3 0 -5 -2 -5 -5z" />
        <path
           id="path43"
           d="M0 686 c0 -24 3 -26 38 -25 20 1 29 3 19 6 -34 9 -7 21 37 16 26 -3 46 -1 50 6 5 8 -11 11 -53 11 -32 0 -66 3 -75 6 -12 5 -16 0 -16 -20z" />
        <path
           id="path45"
           d="M215 700 c3 -5 8 -10 11 -10 3 0 2 5 -1 10 -3 6 -8 10 -11 10 -3 0 -2 -4 1 -10z" />
        <path
           id="path47"
           d="M170 685 c0 -3 2 -5 5 -5 3 0 5 2 5 5 0 3 -2 5 -5 5 -3 0 -5 -2 -5 -5z" />
        <path
           id="path49"
           d="M20 525 c0 -3 2 -5 5 -5 3 0 5 2 5 5 0 3 -2 5 -5 5 -3 0 -5 -2 -5 -5z" />
        <path
           id="path51"
           d="M0 366 c0 -24 3 -26 38 -25 20 1 29 3 19 6 -34 9 -7 21 37 16 26 -3 46 -1 50 6 5 8 -11 11 -53 11 -32 0 -66 3 -75 6 -12 5 -16 0 -16 -20z" />
        <path
           id="path53"
           d="M215 380 c3 -5 8 -10 11 -10 3 0 2 5 -1 10 -3 6 -8 10 -11 10 -3 0 -2 -4 1 -10z" />
        <path
           id="path55"
           d="M170 365 c0 -3 2 -5 5 -5 3 0 5 2 5 5 0 3 -2 5 -5 5 -3 0 -5 -2 -5 -5z" />
        <path
           id="path57"
           d="M20 205 c0 -3 2 -5 5 -5 3 0 5 2 5 5 0 3 -2 5 -5 5 -3 0 -5 -2 -5 -5z" />
        <path
           id="path59"
           d="M0 46 c0 -24 3 -26 38 -25 20 1 29 3 19 6 -34 9 -7 21 37 16 26 -3 46 -1 50 6 5 8 -11 11 -53 11 -32 0 -66 3 -75 6 -12 5 -16 0 -16 -20z" />
        <path
           id="path61"
           d="M215 60 c3 -5 8 -10 11 -10 3 0 2 5 -1 10 -3 6 -8 10 -11 10 -3 0 -2 -4 1 -10z" />
        <path
           id="path63"
           d="M535 60 c3 -5 8 -10 11 -10 3 0 2 5 -1 10 -3 6 -8 10 -11 10 -3 0 -2 -4 1 -10z" />
        <path
           id="path65"
           d="M855 60 c3 -5 8 -10 11 -10 3 0 2 5 -1 10 -3 6 -8 10 -11 10 -3 0 -2 -4 1 -10z" />
        <path
           id="path67"
           d="M170 45 c0 -3 2 -5 5 -5 3 0 5 2 5 5 0 3 -2 5 -5 5 -3 0 -5 -2 -5 -5z" />
        <path
           id="path69"
           d="M490 45 c0 -3 2 -5 5 -5 3 0 5 2 5 5 0 3 -2 5 -5 5 -3 0 -5 -2 -5 -5z" />
        <path
           id="path71"
           d="M810 45 c0 -3 2 -5 5 -5 3 0 5 2 5 5 0 3 -2 5 -5 5 -3 0 -5 -2 -5 -5z" />
      </g>
      <g
         id="g393"
         stroke="none"
         fill="#8f8f8f"
         transform="translate(0.000000,96.000000) scale(0.100000,-0.100000)">
        <path
           id="path75"
           d="M115 950 c-3 -5 -20 -10 -38 -10 -19 0 -27 -4 -22 -9 17 -16 58 -15 95 2 46 20 50 14 14 -25 l-29 -31 43 23 c41 23 44 23 71 7 25 -15 30 -15 35 -2 3 9 0 15 -9 15 -8 0 -15 6 -15 14 0 9 -8 12 -24 9 -13 -3 -27 0 -30 6 -9 14 -83 15 -91 1z" />
        <path
           id="path77"
           d="M435 950 c-3 -5 -20 -10 -38 -10 -19 0 -27 -4 -21 -9 16 -16 57 -15 94 2 46 20 50 14 14 -25 l-29 -31 43 23 c41 23 44 23 71 7 25 -15 30 -15 35 -2 3 9 0 15 -9 15 -8 0 -15 6 -15 14 0 9 -8 12 -24 9 -13 -3 -27 0 -30 6 -9 14 -83 15 -91 1z" />
        <path
           id="path79"
           d="M755 950 c-3 -5 -20 -10 -38 -10 -19 0 -27 -4 -21 -9 16 -16 57 -15 94 2 46 20 50 14 14 -25 l-29 -31 43 23 c41 23 44 23 71 7 25 -15 30 -15 35 -2 3 9 0 15 -9 15 -8 0 -15 6 -15 14 0 9 -8 12 -24 9 -13 -3 -27 0 -30 6 -9 14 -83 15 -91 1z" />
        <path
           id="path81"
           d="M12 920 c2 -8 8 -18 13 -22 6 -5 4 -8 -5 -8 -11 -1 -10 -4 4 -15 27 -20 35 -19 29 4 -6 24 -46 63 -41 41z" />
        <path
           id="path83"
           d="M332 920 c2 -8 8 -18 13 -22 6 -5 4 -8 -5 -8 -11 -1 -10 -4 4 -15 27 -20 35 -19 29 4 -6 24 -46 63 -41 41z" />
        <path
           id="path85"
           d="M652 920 c2 -8 8 -18 13 -22 6 -5 4 -8 -5 -8 -11 -1 -10 -4 4 -15 27 -20 35 -19 29 4 -6 24 -46 63 -41 41z" />
        <path
           id="path87"
           d="M96 901 c-3 -5 1 -11 9 -15 8 -3 15 -1 15 4 0 13 -18 22 -24 11z" />
        <path
           id="path89"
           d="M416 901 c-3 -5 1 -11 9 -15 8 -3 15 -1 15 4 0 13 -18 22 -24 11z" />
        <path
           id="path91"
           d="M736 901 c-3 -5 1 -11 9 -15 8 -3 15 -1 15 4 0 13 -18 22 -24 11z" />
        <path
           id="path93"
           d="M205 881 c-20 -6 -32 -41 -14 -41 5 0 9 4 9 10 0 5 22 8 50 6 45 -2 81 6 70 17 -8 8 -94 13 -115 8z" />
        <path
           id="path95"
           d="M525 881 c-20 -6 -32 -41 -14 -41 5 0 9 4 9 10 0 5 22 8 50 6 45 -2 81 6 70 17 -8 8 -94 13 -115 8z" />
        <path
           id="path97"
           d="M845 881 c-20 -6 -32 -41 -14 -41 5 0 9 4 9 10 0 5 22 8 50 6 45 -2 81 6 70 17 -8 8 -94 13 -115 8z" />
        <path
           id="path99"
           d="M10 835 c-11 -13 -8 -15 15 -15 23 0 26 2 15 15 -7 8 -14 15 -15 15 -1 0 -8 -7 -15 -15z m20 0 c0 -3 -2 -5 -5 -5 -3 0 -5 2 -5 5 0 3 2 5 5 5 3 0 5 -2 5 -5z" />
        <path
           id="path101"
           d="M240 841 l-25 -7 30 -10 c17 -5 52 -8 78 -6 41 3 47 5 36 18 -8 10 -15 11 -24 4 -9 -7 -21 -7 -39 0 -15 5 -28 10 -29 9 -1 -1 -13 -4 -27 -8z m110 -6 c0 -3 -2 -5 -5 -5 -3 0 -5 2 -5 5 0 3 2 5 5 5 3 0 5 -2 5 -5z" />
        <path
           id="path103"
           d="M560 841 l-25 -7 30 -10 c17 -5 52 -8 78 -6 41 3 47 5 36 18 -8 10 -15 11 -24 4 -9 -7 -21 -7 -39 0 -15 5 -28 10 -29 9 -1 -1 -13 -4 -27 -8z m110 -6 c0 -3 -2 -5 -5 -5 -3 0 -5 2 -5 5 0 3 2 5 5 5 3 0 5 -2 5 -5z" />
        <path
           id="path105"
           d="M880 841 l-25 -7 30 -10 c17 -6 41 -7 55 -4 l25 7 -28 12 c-16 6 -29 11 -30 10 -1 -1 -13 -4 -27 -8z" />
        <path
           id="path107"
           d="M60 830 c0 -5 5 -10 10 -10 6 0 10 5 10 10 0 6 -4 10 -10 10 -5 0 -10 -4 -10 -10z" />
        <path
           id="path109"
           d="M112 824 c15 -15 18 -15 39 0 23 16 23 16 -16 16 -36 0 -38 -1 -23 -16z" />
        <path
           id="path111"
           d="M380 830 c0 -5 5 -10 10 -10 6 0 10 5 10 10 0 6 -4 10 -10 10 -5 0 -10 -4 -10 -10z" />
        <path
           id="path113"
           d="M432 824 c15 -15 18 -15 39 0 23 16 23 16 -16 16 -36 0 -38 -1 -23 -16z" />
        <path
           id="path115"
           d="M700 830 c0 -5 5 -10 10 -10 6 0 10 5 10 10 0 6 -4 10 -10 10 -5 0 -10 -4 -10 -10z" />
        <path
           id="path117"
           d="M752 824 c15 -15 18 -15 39 0 23 16 23 16 -16 16 -36 0 -38 -1 -23 -16z" />
        <path
           id="path119"
           d="M187 800 c-3 -12 -10 -19 -16 -16 -13 9 -10 -67 4 -76 15 -11 25 -10 23 3 -5 21 30 35 52 21 11 -6 41 -12 67 -12 35 0 44 3 33 10 -8 5 -31 10 -50 10 -20 0 -41 5 -48 12 -9 9 -18 9 -38 -1 -30 -13 -39 -9 -31 14 7 17 58 21 85 6 11 -6 26 -5 41 4 l25 13 -35 7 c-19 5 -47 7 -63 6 -16 -1 -33 3 -36 10 -5 6 -9 2 -13 -11z" />
        <path
           id="path121"
           d="M507 800 c-3 -12 -10 -19 -16 -16 -13 9 -10 -67 4 -76 15 -11 25 -10 23 3 -5 21 30 35 52 21 11 -6 41 -12 67 -12 35 0 44 3 33 10 -8 5 -31 10 -50 10 -20 0 -41 5 -48 12 -9 9 -18 9 -38 -1 -30 -13 -39 -9 -31 14 7 17 58 21 85 6 11 -6 26 -5 41 4 l25 13 -35 7 c-19 5 -47 7 -63 6 -16 -1 -33 3 -36 10 -5 6 -9 2 -13 -11z" />
        <path
           id="path123"
           d="M827 800 c-3 -12 -10 -19 -16 -16 -13 9 -10 -67 4 -76 15 -11 25 -10 23 3 -5 21 30 35 52 21 24 -14 70 -16 70 -2 0 6 -13 10 -28 10 -15 0 -33 5 -40 12 -9 9 -18 9 -38 -1 -30 -13 -39 -9 -31 14 7 17 63 21 86 6 9 -6 22 -6 35 1 18 10 18 11 1 20 -9 6 -36 10 -58 10 -23 -1 -44 4 -48 9 -3 6 -9 1 -12 -11z" />
        <path
           id="path125"
           d="M53 802 c-18 -2 -33 -7 -33 -13 0 -5 3 -9 8 -10 39 -4 64 -4 73 2 18 10 -14 25 -48 21z" />
        <path
           id="path127"
           d="M170 805 c0 -3 2 -5 5 -5 3 0 5 2 5 5 0 3 -2 5 -5 5 -3 0 -5 -2 -5 -5z" />
        <path
           id="path129"
           d="M373 802 c-18 -2 -33 -7 -33 -13 0 -5 3 -9 8 -10 39 -4 64 -4 73 2 18 10 -14 25 -48 21z" />
        <path
           id="path131"
           d="M490 805 c0 -3 2 -5 5 -5 3 0 5 2 5 5 0 3 -2 5 -5 5 -3 0 -5 -2 -5 -5z" />
        <path
           id="path133"
           d="M693 802 c-18 -2 -33 -7 -33 -13 0 -5 3 -9 8 -10 39 -4 64 -4 73 2 18 10 -14 25 -48 21z" />
        <path
           id="path135"
           d="M810 805 c0 -3 2 -5 5 -5 3 0 5 2 5 5 0 3 -2 5 -5 5 -3 0 -5 -2 -5 -5z" />
        <path
           id="path137"
           d="M0 785 c0 -3 2 -5 5 -5 3 0 5 2 5 5 0 3 -2 5 -5 5 -3 0 -5 -2 -5 -5z" />
        <path
           id="path139"
           d="M40 755 c0 -2 10 -10 23 -16 20 -11 21 -11 8 4 -13 16 -31 23 -31 12z" />
        <path
           id="path141"
           d="M105 750 c-3 -5 3 -10 15 -10 12 0 18 5 15 10 -3 6 -10 10 -15 10 -5 0 -12 -4 -15 -10z" />
        <path
           id="path143"
           d="M360 755 c0 -2 10 -10 23 -16 20 -11 21 -11 8 4 -13 16 -31 23 -31 12z" />
        <path
           id="path145"
           d="M425 750 c-3 -5 3 -10 15 -10 12 0 18 5 15 10 -3 6 -10 10 -15 10 -5 0 -12 -4 -15 -10z" />
        <path
           id="path147"
           d="M680 755 c0 -2 10 -10 23 -16 20 -11 21 -11 8 4 -13 16 -31 23 -31 12z" />
        <path
           id="path149"
           d="M745 750 c-3 -5 3 -10 15 -10 12 0 18 5 15 10 -3 6 -10 10 -15 10 -5 0 -12 -4 -15 -10z" />
        <path
           id="path151"
           d="M0 730 c0 -5 10 -10 23 -10 18 0 19 2 7 10 -19 13 -30 13 -30 0z" />
        <path
           id="path153"
           d="M215 700 c3 -5 8 -10 11 -10 3 0 2 5 -1 10 -3 6 -8 10 -11 10 -3 0 -2 -4 1 -10z" />
        <path
           id="path155"
           d="M295 694 c-18 -14 -18 -14 2 -14 23 0 39 15 26 23 -5 3 -17 -1 -28 -9z" />
        <path
           id="path157"
           d="M535 700 c3 -5 8 -10 11 -10 3 0 2 5 -1 10 -3 6 -8 10 -11 10 -3 0 -2 -4 1 -10z" />
        <path
           id="path159"
           d="M615 694 c-18 -14 -18 -14 2 -14 23 0 39 15 26 23 -5 3 -17 -1 -28 -9z" />
        <path
           id="path161"
           d="M855 700 c3 -5 8 -10 11 -10 3 0 2 5 -1 10 -3 6 -8 10 -11 10 -3 0 -2 -4 1 -10z" />
        <path
           id="path163"
           d="M936 695 c-19 -15 -19 -15 2 -15 13 0 22 6 22 15 0 18 0 18 -24 0z" />
        <path
           id="path165"
           d="M0 695 c0 -3 2 -5 5 -5 3 0 5 2 5 5 0 3 -2 5 -5 5 -3 0 -5 -2 -5 -5z" />
        <path
           id="path167"
           d="M24 693 c11 -12 84 -14 91 -3 4 6 -14 10 -46 10 -29 0 -49 -3 -45 -7z" />
        <path
           id="path169"
           d="M344 693 c11 -12 84 -14 91 -3 4 6 -14 10 -46 10 -29 0 -49 -3 -45 -7z" />
        <path
           id="path171"
           d="M664 693 c11 -12 84 -14 91 -3 4 6 -14 10 -46 10 -29 0 -49 -3 -45 -7z" />
        <path
           id="path173"
           d="M186 681 c-9 -14 34 -25 47 -12 8 8 8 11 0 11 -6 0 -18 3 -26 6 -8 3 -18 1 -21 -5z" />
        <path
           id="path175"
           d="M506 681 c-9 -14 34 -25 47 -12 8 8 8 11 0 11 -6 0 -18 3 -26 6 -8 3 -18 1 -21 -5z" />
        <path
           id="path177"
           d="M826 681 c-9 -14 34 -25 47 -12 8 8 8 11 0 11 -6 0 -18 3 -26 6 -8 3 -18 1 -21 -5z" />
        <path
           id="path179"
           d="M75 650 c-4 -6 5 -10 20 -10 15 0 24 -4 20 -10 -3 -5 -20 -10 -38 -10 -19 0 -27 -4 -21 -9 16 -16 57 -15 94 2 46 20 50 14 14 -25 l-29 -31 43 23 c41 23 44 23 71 7 25 -15 30 -15 35 -2 3 9 0 15 -9 15 -8 0 -15 7 -15 15 0 9 -6 12 -16 8 -8 -3 -25 -1 -37 4 -74 35 -120 43 -132 23z" />
        <path
           id="path181"
           d="M395 650 c-4 -6 5 -10 20 -10 15 0 24 -4 20 -10 -3 -5 -20 -10 -38 -10 -19 0 -27 -4 -21 -9 16 -16 57 -15 94 2 46 20 50 14 14 -25 l-29 -31 43 23 c41 23 44 23 71 7 25 -15 30 -15 35 -2 3 9 0 15 -9 15 -8 0 -15 7 -15 15 0 9 -6 12 -16 8 -8 -3 -25 -1 -37 4 -74 35 -120 43 -132 23z" />
        <path
           id="path183"
           d="M715 650 c-4 -6 5 -10 20 -10 15 0 24 -4 20 -10 -3 -5 -20 -10 -38 -10 -19 0 -27 -4 -21 -9 16 -16 57 -15 94 2 46 20 50 14 14 -25 l-29 -31 43 23 c41 23 44 23 71 7 25 -15 30 -15 35 -2 3 9 0 15 -9 15 -8 0 -15 7 -15 15 0 9 -6 12 -16 8 -8 -3 -25 -1 -37 4 -74 35 -120 43 -132 23z" />
        <path
           id="path185"
           d="M12 600 c2 -8 8 -18 13 -22 6 -5 4 -8 -5 -8 -11 -1 -10 -4 4 -15 27 -20 35 -19 29 4 -6 24 -46 63 -41 41z" />
        <path
           id="path187"
           d="M332 600 c2 -8 8 -18 13 -22 6 -5 4 -8 -5 -8 -11 -1 -10 -4 4 -15 27 -20 35 -19 29 4 -6 24 -46 63 -41 41z" />
        <path
           id="path189"
           d="M652 600 c2 -8 8 -18 13 -22 6 -5 4 -8 -5 -8 -11 -1 -10 -4 4 -15 27 -20 35 -19 29 4 -6 24 -46 63 -41 41z" />
        <path
           id="path191"
           d="M96 581 c-3 -5 1 -11 9 -15 8 -3 15 -1 15 4 0 13 -18 22 -24 11z" />
        <path
           id="path193"
           d="M416 581 c-3 -5 1 -11 9 -15 8 -3 15 -1 15 4 0 13 -18 22 -24 11z" />
        <path
           id="path195"
           d="M736 581 c-3 -5 1 -11 9 -15 8 -3 15 -1 15 4 0 13 -18 22 -24 11z" />
        <path
           id="path197"
           d="M205 561 c-20 -6 -32 -41 -14 -41 5 0 9 4 9 10 0 5 22 8 50 6 45 -2 81 6 70 17 -8 8 -94 13 -115 8z" />
        <path
           id="path199"
           d="M525 561 c-20 -6 -32 -41 -14 -41 5 0 9 4 9 10 0 5 22 8 50 6 45 -2 81 6 70 17 -8 8 -94 13 -115 8z" />
        <path
           id="path201"
           d="M845 561 c-20 -6 -32 -41 -14 -41 5 0 9 4 9 10 0 5 22 8 50 6 45 -2 81 6 70 17 -8 8 -94 13 -115 8z" />
        <path
           id="path203"
           d="M10 515 c-11 -13 -8 -15 15 -15 23 0 26 2 15 15 -7 8 -14 15 -15 15 -1 0 -8 -7 -15 -15z m20 0 c0 -3 -2 -5 -5 -5 -3 0 -5 2 -5 5 0 3 2 5 5 5 3 0 5 -2 5 -5z" />
        <path
           id="path205"
           d="M240 521 l-25 -7 30 -10 c17 -5 52 -8 78 -6 41 3 47 5 36 18 -8 10 -15 11 -24 4 -9 -7 -21 -7 -39 0 -15 5 -28 10 -29 9 -1 -1 -13 -4 -27 -8z m110 -6 c0 -3 -2 -5 -5 -5 -3 0 -5 2 -5 5 0 3 2 5 5 5 3 0 5 -2 5 -5z" />
        <path
           id="path207"
           d="M560 521 l-25 -7 30 -10 c17 -5 52 -8 78 -6 41 3 47 5 36 18 -8 10 -15 11 -24 4 -9 -7 -21 -7 -39 0 -15 5 -28 10 -29 9 -1 -1 -13 -4 -27 -8z m110 -6 c0 -3 -2 -5 -5 -5 -3 0 -5 2 -5 5 0 3 2 5 5 5 3 0 5 -2 5 -5z" />
        <path
           id="path209"
           d="M880 521 l-25 -7 30 -10 c17 -6 41 -7 55 -4 l25 7 -28 12 c-16 6 -29 11 -30 10 -1 -1 -13 -4 -27 -8z" />
        <path
           id="path211"
           d="M60 510 c0 -5 5 -10 10 -10 6 0 10 5 10 10 0 6 -4 10 -10 10 -5 0 -10 -4 -10 -10z" />
        <path
           id="path213"
           d="M112 504 c15 -15 18 -15 39 0 23 16 23 16 -16 16 -36 0 -38 -1 -23 -16z" />
        <path
           id="path215"
           d="M380 510 c0 -5 5 -10 10 -10 6 0 10 5 10 10 0 6 -4 10 -10 10 -5 0 -10 -4 -10 -10z" />
        <path
           id="path217"
           d="M432 504 c15 -15 18 -15 39 0 23 16 23 16 -16 16 -36 0 -38 -1 -23 -16z" />
        <path
           id="path219"
           d="M700 510 c0 -5 5 -10 10 -10 6 0 10 5 10 10 0 6 -4 10 -10 10 -5 0 -10 -4 -10 -10z" />
        <path
           id="path221"
           d="M752 504 c15 -15 18 -15 39 0 23 16 23 16 -16 16 -36 0 -38 -1 -23 -16z" />
        <path
           id="path223"
           d="M187 480 c-3 -12 -10 -19 -16 -16 -13 9 -10 -67 4 -76 15 -11 25 -10 23 3 -5 21 30 35 52 21 11 -6 41 -12 67 -12 35 0 44 3 33 10 -8 5 -31 10 -50 10 -20 0 -41 5 -48 12 -9 9 -18 9 -38 -1 -30 -13 -39 -9 -31 14 7 17 58 21 85 6 11 -6 26 -5 41 4 l25 13 -35 7 c-19 5 -47 7 -63 6 -16 -1 -33 3 -36 10 -5 6 -9 2 -13 -11z" />
        <path
           id="path225"
           d="M507 480 c-3 -12 -10 -19 -16 -16 -13 9 -10 -67 4 -76 15 -11 25 -10 23 3 -5 21 30 35 52 21 11 -6 41 -12 67 -12 35 0 44 3 33 10 -8 5 -31 10 -50 10 -20 0 -41 5 -48 12 -9 9 -18 9 -38 -1 -30 -13 -39 -9 -31 14 7 17 58 21 85 6 11 -6 26 -5 41 4 l25 13 -35 7 c-19 5 -47 7 -63 6 -16 -1 -33 3 -36 10 -5 6 -9 2 -13 -11z" />
        <path
           id="path227"
           d="M827 480 c-3 -12 -10 -19 -16 -16 -13 9 -10 -67 4 -76 15 -11 25 -10 23 3 -5 21 30 35 52 21 24 -14 70 -16 70 -2 0 6 -13 10 -28 10 -15 0 -33 5 -40 12 -9 9 -18 9 -38 -1 -30 -13 -39 -9 -31 14 7 17 63 21 86 6 9 -6 22 -6 35 1 18 10 18 11 1 20 -9 6 -36 10 -58 10 -23 -1 -44 4 -48 9 -3 6 -9 1 -12 -11z" />
        <path
           id="path229"
           d="M53 482 c-18 -2 -33 -7 -33 -13 0 -5 3 -9 8 -10 39 -4 64 -4 73 2 18 10 -14 25 -48 21z" />
        <path
           id="path231"
           d="M170 485 c0 -3 2 -5 5 -5 3 0 5 2 5 5 0 3 -2 5 -5 5 -3 0 -5 -2 -5 -5z" />
        <path
           id="path233"
           d="M373 482 c-18 -2 -33 -7 -33 -13 0 -5 3 -9 8 -10 39 -4 64 -4 73 2 18 10 -14 25 -48 21z" />
        <path
           id="path235"
           d="M490 485 c0 -3 2 -5 5 -5 3 0 5 2 5 5 0 3 -2 5 -5 5 -3 0 -5 -2 -5 -5z" />
        <path
           id="path237"
           d="M693 482 c-18 -2 -33 -7 -33 -13 0 -5 3 -9 8 -10 39 -4 64 -4 73 2 18 10 -14 25 -48 21z" />
        <path
           id="path239"
           d="M810 485 c0 -3 2 -5 5 -5 3 0 5 2 5 5 0 3 -2 5 -5 5 -3 0 -5 -2 -5 -5z" />
        <path
           id="path241"
           d="M0 465 c0 -3 2 -5 5 -5 3 0 5 2 5 5 0 3 -2 5 -5 5 -3 0 -5 -2 -5 -5z" />
        <path
           id="path243"
           d="M40 435 c0 -2 10 -10 23 -16 20 -11 21 -11 8 4 -13 16 -31 23 -31 12z" />
        <path
           id="path245"
           d="M105 430 c-3 -5 3 -10 15 -10 12 0 18 5 15 10 -3 6 -10 10 -15 10 -5 0 -12 -4 -15 -10z" />
        <path
           id="path247"
           d="M360 435 c0 -2 10 -10 23 -16 20 -11 21 -11 8 4 -13 16 -31 23 -31 12z" />
        <path
           id="path249"
           d="M425 430 c-3 -5 3 -10 15 -10 12 0 18 5 15 10 -3 6 -10 10 -15 10 -5 0 -12 -4 -15 -10z" />
        <path
           id="path251"
           d="M680 435 c0 -2 10 -10 23 -16 20 -11 21 -11 8 4 -13 16 -31 23 -31 12z" />
        <path
           id="path253"
           d="M745 430 c-3 -5 3 -10 15 -10 12 0 18 5 15 10 -3 6 -10 10 -15 10 -5 0 -12 -4 -15 -10z" />
        <path
           id="path255"
           d="M0 410 c0 -5 10 -10 23 -10 18 0 19 2 7 10 -19 13 -30 13 -30 0z" />
        <path
           id="path257"
           d="M215 380 c3 -5 8 -10 11 -10 3 0 2 5 -1 10 -3 6 -8 10 -11 10 -3 0 -2 -4 1 -10z" />
        <path
           id="path259"
           d="M295 374 c-18 -14 -18 -14 2 -14 23 0 39 15 26 23 -5 3 -17 -1 -28 -9z" />
        <path
           id="path261"
           d="M535 380 c3 -5 8 -10 11 -10 3 0 2 5 -1 10 -3 6 -8 10 -11 10 -3 0 -2 -4 1 -10z" />
        <path
           id="path263"
           d="M615 374 c-18 -14 -18 -14 2 -14 23 0 39 15 26 23 -5 3 -17 -1 -28 -9z" />
        <path
           id="path265"
           d="M855 380 c3 -5 8 -10 11 -10 3 0 2 5 -1 10 -3 6 -8 10 -11 10 -3 0 -2 -4 1 -10z" />
        <path
           id="path267"
           d="M936 375 c-19 -15 -19 -15 2 -15 13 0 22 6 22 15 0 18 0 18 -24 0z" />
        <path
           id="path269"
           d="M0 375 c0 -3 2 -5 5 -5 3 0 5 2 5 5 0 3 -2 5 -5 5 -3 0 -5 -2 -5 -5z" />
        <path
           id="path271"
           d="M24 373 c11 -12 84 -14 91 -3 4 6 -14 10 -46 10 -29 0 -49 -3 -45 -7z" />
        <path
           id="path273"
           d="M344 373 c11 -12 84 -14 91 -3 4 6 -14 10 -46 10 -29 0 -49 -3 -45 -7z" />
        <path
           id="path275"
           d="M664 373 c11 -12 84 -14 91 -3 4 6 -14 10 -46 10 -29 0 -49 -3 -45 -7z" />
        <path
           id="path277"
           d="M186 361 c-9 -14 34 -25 47 -12 8 8 8 11 0 11 -6 0 -18 3 -26 6 -8 3 -18 1 -21 -5z" />
        <path
           id="path279"
           d="M506 361 c-9 -14 34 -25 47 -12 8 8 8 11 0 11 -6 0 -18 3 -26 6 -8 3 -18 1 -21 -5z" />
        <path
           id="path281"
           d="M826 361 c-9 -14 34 -25 47 -12 8 8 8 11 0 11 -6 0 -18 3 -26 6 -8 3 -18 1 -21 -5z" />
        <path
           id="path283"
           d="M75 330 c-4 -6 5 -10 20 -10 15 0 24 -4 20 -10 -3 -5 -20 -10 -38 -10 -19 0 -27 -4 -21 -9 16 -16 57 -15 94 2 46 20 50 14 14 -25 l-29 -31 43 23 c41 23 44 23 71 7 25 -15 30 -15 35 -2 3 9 0 15 -9 15 -8 0 -15 7 -15 15 0 9 -6 12 -16 8 -8 -3 -25 -1 -37 4 -74 35 -120 43 -132 23z" />
        <path
           id="path285"
           d="M395 330 c-4 -6 5 -10 20 -10 15 0 24 -4 20 -10 -3 -5 -20 -10 -38 -10 -19 0 -27 -4 -21 -9 16 -16 57 -15 94 2 46 20 50 14 14 -25 l-29 -31 43 23 c41 23 44 23 71 7 25 -15 30 -15 35 -2 3 9 0 15 -9 15 -8 0 -15 7 -15 15 0 9 -6 12 -16 8 -8 -3 -25 -1 -37 4 -74 35 -120 43 -132 23z" />
        <path
           id="path287"
           d="M715 330 c-4 -6 5 -10 20 -10 15 0 24 -4 20 -10 -3 -5 -20 -10 -38 -10 -19 0 -27 -4 -21 -9 16 -16 57 -15 94 2 46 20 50 14 14 -25 l-29 -31 43 23 c41 23 44 23 71 7 25 -15 30 -15 35 -2 3 9 0 15 -9 15 -8 0 -15 7 -15 15 0 9 -6 12 -16 8 -8 -3 -25 -1 -37 4 -74 35 -120 43 -132 23z" />
        <path
           id="path289"
           d="M12 280 c2 -8 8 -18 13 -22 6 -5 4 -8 -5 -8 -11 -1 -10 -4 4 -15 27 -20 35 -19 29 4 -6 24 -46 63 -41 41z" />
        <path
           id="path291"
           d="M332 280 c2 -8 8 -18 13 -22 6 -5 4 -8 -5 -8 -11 -1 -10 -4 4 -15 27 -20 35 -19 29 4 -6 24 -46 63 -41 41z" />
        <path
           id="path293"
           d="M652 280 c2 -8 8 -18 13 -22 6 -5 4 -8 -5 -8 -11 -1 -10 -4 4 -15 27 -20 35 -19 29 4 -6 24 -46 63 -41 41z" />
        <path
           id="path295"
           d="M96 261 c-3 -5 1 -11 9 -15 8 -3 15 -1 15 4 0 13 -18 22 -24 11z" />
        <path
           id="path297"
           d="M416 261 c-3 -5 1 -11 9 -15 8 -3 15 -1 15 4 0 13 -18 22 -24 11z" />
        <path
           id="path299"
           d="M736 261 c-3 -5 1 -11 9 -15 8 -3 15 -1 15 4 0 13 -18 22 -24 11z" />
        <path
           id="path301"
           d="M205 241 c-20 -6 -32 -41 -14 -41 5 0 9 4 9 10 0 5 22 8 50 6 45 -2 81 6 70 17 -8 8 -94 13 -115 8z" />
        <path
           id="path303"
           d="M525 241 c-20 -6 -32 -41 -14 -41 5 0 9 4 9 10 0 5 22 8 50 6 45 -2 81 6 70 17 -8 8 -94 13 -115 8z" />
        <path
           id="path305"
           d="M845 241 c-20 -6 -32 -41 -14 -41 5 0 9 4 9 10 0 5 22 8 50 6 45 -2 81 6 70 17 -8 8 -94 13 -115 8z" />
        <path
           id="path307"
           d="M10 195 c-11 -13 -8 -15 15 -15 23 0 26 2 15 15 -7 8 -14 15 -15 15 -1 0 -8 -7 -15 -15z m20 0 c0 -3 -2 -5 -5 -5 -3 0 -5 2 -5 5 0 3 2 5 5 5 3 0 5 -2 5 -5z" />
        <path
           id="path309"
           d="M240 201 l-25 -7 30 -10 c17 -5 52 -8 78 -6 41 3 47 5 36 18 -8 10 -15 11 -24 4 -9 -7 -21 -7 -39 0 -15 5 -28 10 -29 9 -1 -1 -13 -4 -27 -8z m110 -6 c0 -3 -2 -5 -5 -5 -3 0 -5 2 -5 5 0 3 2 5 5 5 3 0 5 -2 5 -5z" />
        <path
           id="path311"
           d="M560 201 l-25 -7 30 -10 c17 -5 52 -8 78 -6 41 3 47 5 36 18 -8 10 -15 11 -24 4 -9 -7 -21 -7 -39 0 -15 5 -28 10 -29 9 -1 -1 -13 -4 -27 -8z m110 -6 c0 -3 -2 -5 -5 -5 -3 0 -5 2 -5 5 0 3 2 5 5 5 3 0 5 -2 5 -5z" />
        <path
           id="path313"
           d="M880 201 l-25 -7 30 -10 c17 -6 41 -7 55 -4 l25 7 -28 12 c-16 6 -29 11 -30 10 -1 -1 -13 -4 -27 -8z" />
        <path
           id="path315"
           d="M60 190 c0 -5 5 -10 10 -10 6 0 10 5 10 10 0 6 -4 10 -10 10 -5 0 -10 -4 -10 -10z" />
        <path
           id="path317"
           d="M112 184 c15 -15 18 -15 39 0 23 16 23 16 -16 16 -36 0 -38 -1 -23 -16z" />
        <path
           id="path319"
           d="M380 190 c0 -5 5 -10 10 -10 6 0 10 5 10 10 0 6 -4 10 -10 10 -5 0 -10 -4 -10 -10z" />
        <path
           id="path321"
           d="M432 184 c15 -15 18 -15 39 0 23 16 23 16 -16 16 -36 0 -38 -1 -23 -16z" />
        <path
           id="path323"
           d="M700 190 c0 -5 5 -10 10 -10 6 0 10 5 10 10 0 6 -4 10 -10 10 -5 0 -10 -4 -10 -10z" />
        <path
           id="path325"
           d="M752 184 c15 -15 18 -15 39 0 23 16 23 16 -16 16 -36 0 -38 -1 -23 -16z" />
        <path
           id="path327"
           d="M187 160 c-3 -12 -10 -19 -16 -16 -13 9 -10 -67 4 -76 15 -11 25 -10 23 3 -5 21 30 35 52 21 11 -6 41 -12 67 -12 35 0 44 3 33 10 -8 5 -31 10 -50 10 -20 0 -41 5 -48 12 -9 9 -18 9 -38 -1 -30 -13 -39 -9 -31 14 7 17 58 21 85 6 11 -6 26 -5 41 4 l25 13 -35 7 c-19 5 -47 7 -63 6 -16 -1 -33 3 -36 10 -5 6 -9 2 -13 -11z" />
        <path
           id="path329"
           d="M507 160 c-3 -12 -10 -19 -16 -16 -13 9 -10 -67 4 -76 15 -11 25 -10 23 3 -5 21 30 35 52 21 11 -6 41 -12 67 -12 35 0 44 3 33 10 -8 5 -31 10 -50 10 -20 0 -41 5 -48 12 -9 9 -18 9 -38 -1 -30 -13 -39 -9 -31 14 7 17 58 21 85 6 11 -6 26 -5 41 4 l25 13 -35 7 c-19 5 -47 7 -63 6 -16 -1 -33 3 -36 10 -5 6 -9 2 -13 -11z" />
        <path
           id="path331"
           d="M827 160 c-3 -12 -10 -19 -16 -16 -13 9 -10 -67 4 -76 15 -11 25 -10 23 3 -5 21 30 35 52 21 24 -14 70 -16 70 -2 0 6 -13 10 -28 10 -15 0 -33 5 -40 12 -9 9 -18 9 -38 -1 -30 -13 -39 -9 -31 14 7 17 63 21 86 6 9 -6 22 -6 35 1 18 10 18 11 1 20 -9 6 -36 10 -58 10 -23 -1 -44 4 -48 9 -3 6 -9 1 -12 -11z" />
        <path
           id="path333"
           d="M53 162 c-18 -2 -33 -7 -33 -13 0 -5 3 -9 8 -10 39 -4 64 -4 73 2 18 10 -14 25 -48 21z" />
        <path
           id="path335"
           d="M170 165 c0 -3 2 -5 5 -5 3 0 5 2 5 5 0 3 -2 5 -5 5 -3 0 -5 -2 -5 -5z" />
        <path
           id="path337"
           d="M373 162 c-18 -2 -33 -7 -33 -13 0 -5 3 -9 8 -10 39 -4 64 -4 73 2 18 10 -14 25 -48 21z" />
        <path
           id="path339"
           d="M490 165 c0 -3 2 -5 5 -5 3 0 5 2 5 5 0 3 -2 5 -5 5 -3 0 -5 -2 -5 -5z" />
        <path
           id="path341"
           d="M693 162 c-18 -2 -33 -7 -33 -13 0 -5 3 -9 8 -10 39 -4 64 -4 73 2 18 10 -14 25 -48 21z" />
        <path
           id="path343"
           d="M810 165 c0 -3 2 -5 5 -5 3 0 5 2 5 5 0 3 -2 5 -5 5 -3 0 -5 -2 -5 -5z" />
        <path
           id="path345"
           d="M0 145 c0 -3 2 -5 5 -5 3 0 5 2 5 5 0 3 -2 5 -5 5 -3 0 -5 -2 -5 -5z" />
        <path
           id="path347"
           d="M40 115 c0 -2 10 -10 23 -16 20 -11 21 -11 8 4 -13 16 -31 23 -31 12z" />
        <path
           id="path349"
           d="M105 110 c-3 -5 3 -10 15 -10 12 0 18 5 15 10 -3 6 -10 10 -15 10 -5 0 -12 -4 -15 -10z" />
        <path
           id="path351"
           d="M360 115 c0 -2 10 -10 23 -16 20 -11 21 -11 8 4 -13 16 -31 23 -31 12z" />
        <path
           id="path353"
           d="M425 110 c-3 -5 3 -10 15 -10 12 0 18 5 15 10 -3 6 -10 10 -15 10 -5 0 -12 -4 -15 -10z" />
        <path
           id="path355"
           d="M680 115 c0 -2 10 -10 23 -16 20 -11 21 -11 8 4 -13 16 -31 23 -31 12z" />
        <path
           id="path357"
           d="M745 110 c-3 -5 3 -10 15 -10 12 0 18 5 15 10 -3 6 -10 10 -15 10 -5 0 -12 -4 -15 -10z" />
        <path
           id="path359"
           d="M0 90 c0 -5 10 -10 23 -10 18 0 19 2 7 10 -19 13 -30 13 -30 0z" />
        <path
           id="path361"
           d="M215 60 c3 -5 8 -10 11 -10 3 0 2 5 -1 10 -3 6 -8 10 -11 10 -3 0 -2 -4 1 -10z" />
        <path
           id="path363"
           d="M295 54 c-18 -14 -18 -14 2 -14 23 0 39 15 26 23 -5 3 -17 -1 -28 -9z" />
        <path
           id="path365"
           d="M535 60 c3 -5 8 -10 11 -10 3 0 2 5 -1 10 -3 6 -8 10 -11 10 -3 0 -2 -4 1 -10z" />
        <path
           id="path367"
           d="M615 54 c-18 -14 -18 -14 2 -14 23 0 39 15 26 23 -5 3 -17 -1 -28 -9z" />
        <path
           id="path369"
           d="M855 60 c3 -5 8 -10 11 -10 3 0 2 5 -1 10 -3 6 -8 10 -11 10 -3 0 -2 -4 1 -10z" />
        <path
           id="path371"
           d="M936 55 c-19 -15 -19 -15 2 -15 13 0 22 6 22 15 0 18 0 18 -24 0z" />
        <path
           id="path373"
           d="M0 55 c0 -3 2 -5 5 -5 3 0 5 2 5 5 0 3 -2 5 -5 5 -3 0 -5 -2 -5 -5z" />
        <path
           id="path375"
           d="M24 53 c11 -12 84 -14 91 -3 4 6 -14 10 -46 10 -29 0 -49 -3 -45 -7z" />
        <path
           id="path377"
           d="M344 53 c11 -12 84 -14 91 -3 4 6 -14 10 -46 10 -29 0 -49 -3 -45 -7z" />
        <path
           id="path379"
           d="M664 53 c11 -12 84 -14 91 -3 4 6 -14 10 -46 10 -29 0 -49 -3 -45 -7z" />
        <path
           id="path381"
           d="M186 41 c-9 -14 34 -25 47 -12 8 8 8 11 0 11 -6 0 -18 3 -26 6 -8 3 -18 1 -21 -5z" />
        <path
           id="path383"
           d="M506 41 c-9 -14 34 -25 47 -12 8 8 8 11 0 11 -6 0 -18 3 -26 6 -8 3 -18 1 -21 -5z" />
        <path
           id="path385"
           d="M826 41 c-9 -14 34 -25 47 -12 8 8 8 11 0 11 -6 0 -18 3 -26 6 -8 3 -18 1 -21 -5z" />
        <path
           id="path387"
           d="M75 10 c-4 -6 12 -10 42 -10 35 0 44 3 33 10 -20 13 -67 13 -75 0z" />
        <path
           id="path389"
           d="M395 10 c-4 -6 12 -10 42 -10 35 0 44 3 33 10 -20 13 -67 13 -75 0z" />
        <path
           id="path391"
           d="M715 10 c-4 -6 12 -10 42 -10 35 0 44 3 33 10 -20 13 -67 13 -75 0z" />
      </g>
      <g
         id="g707"
         stroke="none"
         fill="#686868"
         transform="translate(0.000000,96.000000) scale(0.100000,-0.100000)">
        <path
           id="path395"
           d="M150 956 c0 -2 7 -6 15 -10 8 -3 15 -1 15 4 0 6 -7 10 -15 10 -8 0 -15 -2 -15 -4z" />
        <path
           id="path397"
           d="M470 956 c0 -2 7 -6 15 -10 8 -3 15 -1 15 4 0 6 -7 10 -15 10 -8 0 -15 -2 -15 -4z" />
        <path
           id="path399"
           d="M790 956 c0 -2 7 -6 15 -10 8 -3 15 -1 15 4 0 6 -7 10 -15 10 -8 0 -15 -2 -15 -4z" />
        <path
           id="path401"
           d="M245 941 c-3 -5 -1 -12 5 -16 5 -3 10 1 10 9 0 18 -6 21 -15 7z" />
        <path
           id="path403"
           d="M565 941 c-3 -5 -1 -12 5 -16 5 -3 10 1 10 9 0 18 -6 21 -15 7z" />
        <path
           id="path405"
           d="M885 941 c-3 -5 -1 -12 5 -16 5 -3 10 1 10 9 0 18 -6 21 -15 7z" />
        <path
           id="path407"
           d="M13 915 c0 -8 7 -15 15 -15 12 0 12 3 2 15 -7 8 -13 15 -15 15 -1 0 -2 -7 -2 -15z" />
        <path
           id="path409"
           d="M333 915 c0 -8 7 -15 15 -15 12 0 12 3 2 15 -7 8 -13 15 -15 15 -1 0 -2 -7 -2 -15z" />
        <path
           id="path411"
           d="M653 915 c0 -8 7 -15 15 -15 12 0 12 3 2 15 -7 8 -13 15 -15 15 -1 0 -2 -7 -2 -15z" />
        <path
           id="path413"
           d="M96 901 c-3 -5 1 -11 9 -15 8 -3 15 -1 15 4 0 13 -18 22 -24 11z" />
        <path
           id="path415"
           d="M416 901 c-3 -5 1 -11 9 -15 8 -3 15 -1 15 4 0 13 -18 22 -24 11z" />
        <path
           id="path417"
           d="M736 901 c-3 -5 1 -11 9 -15 8 -3 15 -1 15 4 0 13 -18 22 -24 11z" />
        <path
           id="path419"
           d="M290 865 c-14 -16 -10 -18 14 -9 9 3 16 10 16 15 0 14 -16 11 -30 -6z" />
        <path
           id="path421"
           d="M610 865 c-14 -16 -10 -18 14 -9 9 3 16 10 16 15 0 14 -16 11 -30 -6z" />
        <path
           id="path423"
           d="M930 865 c-14 -16 -10 -18 14 -9 9 3 16 10 16 15 0 14 -16 11 -30 -6z" />
        <path
           id="path425"
           d="M185 850 c-3 -5 -1 -10 4 -10 6 0 11 5 11 10 0 6 -2 10 -4 10 -3 0 -8 -4 -11 -10z" />
        <path
           id="path427"
           d="M505 850 c-3 -5 -1 -10 4 -10 6 0 11 5 11 10 0 6 -2 10 -4 10 -3 0 -8 -4 -11 -10z" />
        <path
           id="path429"
           d="M825 850 c-3 -5 -1 -10 4 -10 6 0 11 5 11 10 0 6 -2 10 -4 10 -3 0 -8 -4 -11 -10z" />
        <path
           id="path431"
           d="M60 830 c0 -5 5 -10 10 -10 6 0 10 5 10 10 0 6 -4 10 -10 10 -5 0 -10 -4 -10 -10z" />
        <path
           id="path433"
           d="M290 830 c20 -13 33 -13 25 0 -3 6 -14 10 -23 10 -15 0 -15 -2 -2 -10z" />
        <path
           id="path435"
           d="M380 830 c0 -5 5 -10 10 -10 6 0 10 5 10 10 0 6 -4 10 -10 10 -5 0 -10 -4 -10 -10z" />
        <path
           id="path437"
           d="M610 830 c20 -13 33 -13 25 0 -3 6 -14 10 -23 10 -15 0 -15 -2 -2 -10z" />
        <path
           id="path439"
           d="M700 830 c0 -5 5 -10 10 -10 6 0 10 5 10 10 0 6 -4 10 -10 10 -5 0 -10 -4 -10 -10z" />
        <path
           id="path441"
           d="M930 830 c20 -13 33 -13 25 0 -3 6 -14 10 -23 10 -15 0 -15 -2 -2 -10z" />
        <path
           id="path443"
           d="M10 825 c0 -3 2 -5 5 -5 3 0 5 2 5 5 0 3 -2 5 -5 5 -3 0 -5 -2 -5 -5z" />
        <path
           id="path445"
           d="M330 825 c0 -3 2 -5 5 -5 3 0 5 2 5 5 0 3 -2 5 -5 5 -3 0 -5 -2 -5 -5z" />
        <path
           id="path447"
           d="M650 825 c0 -3 2 -5 5 -5 3 0 5 2 5 5 0 3 -2 5 -5 5 -3 0 -5 -2 -5 -5z" />
        <path
           id="path449"
           d="M190 810 c0 -7 3 -10 7 -7 3 4 3 10 0 14 -4 3 -7 0 -7 -7z" />
        <path
           id="path451"
           d="M510 810 c0 -7 3 -10 7 -7 3 4 3 10 0 14 -4 3 -7 0 -7 -7z" />
        <path
           id="path453"
           d="M830 810 c0 -7 3 -10 7 -7 3 4 3 10 0 14 -4 3 -7 0 -7 -7z" />
        <path
           id="path455"
           d="M170 805 c0 -3 2 -5 5 -5 3 0 5 2 5 5 0 3 -2 5 -5 5 -3 0 -5 -2 -5 -5z" />
        <path
           id="path457"
           d="M490 805 c0 -3 2 -5 5 -5 3 0 5 2 5 5 0 3 -2 5 -5 5 -3 0 -5 -2 -5 -5z" />
        <path
           id="path459"
           d="M810 805 c0 -3 2 -5 5 -5 3 0 5 2 5 5 0 3 -2 5 -5 5 -3 0 -5 -2 -5 -5z" />
        <path
           id="path461"
           d="M70 791 c0 -5 5 -13 10 -16 6 -3 10 -2 10 4 0 5 -4 13 -10 16 -5 3 -10 2 -10 -4z" />
        <path
           id="path463"
           d="M390 791 c0 -5 5 -13 10 -16 6 -3 10 -2 10 4 0 5 -4 13 -10 16 -5 3 -10 2 -10 -4z" />
        <path
           id="path465"
           d="M710 791 c0 -5 5 -13 10 -16 6 -3 10 -2 10 4 0 5 -4 13 -10 16 -5 3 -10 2 -10 -4z" />
        <path
           id="path467"
           d="M162 765 c3 -30 14 -33 21 -6 3 11 -1 22 -9 25 -10 4 -13 -2 -12 -19z" />
        <path
           id="path469"
           d="M482 765 c3 -30 14 -33 21 -6 3 11 -1 22 -9 25 -10 4 -13 -2 -12 -19z" />
        <path
           id="path471"
           d="M802 765 c3 -30 14 -33 21 -6 3 11 -1 22 -9 25 -10 4 -13 -2 -12 -19z" />
        <path
           id="path473"
           d="M0 730 c0 -5 10 -10 23 -10 18 0 19 2 7 10 -19 13 -30 13 -30 0z" />
        <path
           id="path475"
           d="M305 730 c3 -5 18 -10 33 -10 21 0 24 2 12 10 -20 13 -53 13 -45 0z" />
        <path
           id="path477"
           d="M625 730 c3 -5 18 -10 33 -10 21 0 24 2 12 10 -20 13 -53 13 -45 0z" />
        <path
           id="path479"
           d="M945 730 c3 -5 8 -10 11 -10 2 0 4 5 4 10 0 6 -5 10 -11 10 -5 0 -7 -4 -4 -10z" />
        <path
           id="path481"
           d="M215 700 c3 -5 8 -10 11 -10 3 0 2 5 -1 10 -3 6 -8 10 -11 10 -3 0 -2 -4 1 -10z" />
        <path
           id="path483"
           d="M535 700 c3 -5 8 -10 11 -10 3 0 2 5 -1 10 -3 6 -8 10 -11 10 -3 0 -2 -4 1 -10z" />
        <path
           id="path485"
           d="M855 700 c3 -5 8 -10 11 -10 3 0 2 5 -1 10 -3 6 -8 10 -11 10 -3 0 -2 -4 1 -10z" />
        <path
           id="path487"
           d="M193 683 c4 -3 10 -3 14 0 3 4 0 7 -7 7 -7 0 -10 -3 -7 -7z" />
        <path
           id="path489"
           d="M513 683 c4 -3 10 -3 14 0 3 4 0 7 -7 7 -7 0 -10 -3 -7 -7z" />
        <path
           id="path491"
           d="M833 683 c4 -3 10 -3 14 0 3 4 0 7 -7 7 -7 0 -10 -3 -7 -7z" />
        <path
           id="path493"
           d="M75 650 c-3 -5 -2 -10 4 -10 5 0 13 5 16 10 3 6 2 10 -4 10 -5 0 -13 -4 -16 -10z" />
        <path
           id="path495"
           d="M395 650 c-3 -5 -2 -10 4 -10 5 0 13 5 16 10 3 6 2 10 -4 10 -5 0 -13 -4 -16 -10z" />
        <path
           id="path497"
           d="M715 650 c-3 -5 -2 -10 4 -10 5 0 13 5 16 10 3 6 2 10 -4 10 -5 0 -13 -4 -16 -10z" />
        <path
           id="path499"
           d="M150 636 c0 -2 7 -6 15 -10 8 -3 15 -1 15 4 0 6 -7 10 -15 10 -8 0 -15 -2 -15 -4z" />
        <path
           id="path501"
           d="M470 636 c0 -2 7 -6 15 -10 8 -3 15 -1 15 4 0 6 -7 10 -15 10 -8 0 -15 -2 -15 -4z" />
        <path
           id="path503"
           d="M790 636 c0 -2 7 -6 15 -10 8 -3 15 -1 15 4 0 6 -7 10 -15 10 -8 0 -15 -2 -15 -4z" />
        <path
           id="path505"
           d="M245 621 c-3 -5 -1 -12 5 -16 5 -3 10 1 10 9 0 18 -6 21 -15 7z" />
        <path
           id="path507"
           d="M565 621 c-3 -5 -1 -12 5 -16 5 -3 10 1 10 9 0 18 -6 21 -15 7z" />
        <path
           id="path509"
           d="M885 621 c-3 -5 -1 -12 5 -16 5 -3 10 1 10 9 0 18 -6 21 -15 7z" />
        <path
           id="path511"
           d="M13 595 c0 -8 7 -15 15 -15 12 0 12 3 2 15 -7 8 -13 15 -15 15 -1 0 -2 -7 -2 -15z" />
        <path
           id="path513"
           d="M333 595 c0 -8 7 -15 15 -15 12 0 12 3 2 15 -7 8 -13 15 -15 15 -1 0 -2 -7 -2 -15z" />
        <path
           id="path515"
           d="M653 595 c0 -8 7 -15 15 -15 12 0 12 3 2 15 -7 8 -13 15 -15 15 -1 0 -2 -7 -2 -15z" />
        <path
           id="path517"
           d="M96 581 c-3 -5 1 -11 9 -15 8 -3 15 -1 15 4 0 13 -18 22 -24 11z" />
        <path
           id="path519"
           d="M416 581 c-3 -5 1 -11 9 -15 8 -3 15 -1 15 4 0 13 -18 22 -24 11z" />
        <path
           id="path521"
           d="M736 581 c-3 -5 1 -11 9 -15 8 -3 15 -1 15 4 0 13 -18 22 -24 11z" />
        <path
           id="path523"
           d="M290 545 c-14 -16 -10 -18 14 -9 9 3 16 10 16 15 0 14 -16 11 -30 -6z" />
        <path
           id="path525"
           d="M610 545 c-14 -16 -10 -18 14 -9 9 3 16 10 16 15 0 14 -16 11 -30 -6z" />
        <path
           id="path527"
           d="M930 545 c-14 -16 -10 -18 14 -9 9 3 16 10 16 15 0 14 -16 11 -30 -6z" />
        <path
           id="path529"
           d="M185 530 c-3 -5 -1 -10 4 -10 6 0 11 5 11 10 0 6 -2 10 -4 10 -3 0 -8 -4 -11 -10z" />
        <path
           id="path531"
           d="M505 530 c-3 -5 -1 -10 4 -10 6 0 11 5 11 10 0 6 -2 10 -4 10 -3 0 -8 -4 -11 -10z" />
        <path
           id="path533"
           d="M825 530 c-3 -5 -1 -10 4 -10 6 0 11 5 11 10 0 6 -2 10 -4 10 -3 0 -8 -4 -11 -10z" />
        <path
           id="path535"
           d="M60 510 c0 -5 5 -10 10 -10 6 0 10 5 10 10 0 6 -4 10 -10 10 -5 0 -10 -4 -10 -10z" />
        <path
           id="path537"
           d="M290 510 c20 -13 33 -13 25 0 -3 6 -14 10 -23 10 -15 0 -15 -2 -2 -10z" />
        <path
           id="path539"
           d="M380 510 c0 -5 5 -10 10 -10 6 0 10 5 10 10 0 6 -4 10 -10 10 -5 0 -10 -4 -10 -10z" />
        <path
           id="path541"
           d="M610 510 c20 -13 33 -13 25 0 -3 6 -14 10 -23 10 -15 0 -15 -2 -2 -10z" />
        <path
           id="path543"
           d="M700 510 c0 -5 5 -10 10 -10 6 0 10 5 10 10 0 6 -4 10 -10 10 -5 0 -10 -4 -10 -10z" />
        <path
           id="path545"
           d="M930 510 c20 -13 33 -13 25 0 -3 6 -14 10 -23 10 -15 0 -15 -2 -2 -10z" />
        <path
           id="path547"
           d="M10 505 c0 -3 2 -5 5 -5 3 0 5 2 5 5 0 3 -2 5 -5 5 -3 0 -5 -2 -5 -5z" />
        <path
           id="path549"
           d="M330 505 c0 -3 2 -5 5 -5 3 0 5 2 5 5 0 3 -2 5 -5 5 -3 0 -5 -2 -5 -5z" />
        <path
           id="path551"
           d="M650 505 c0 -3 2 -5 5 -5 3 0 5 2 5 5 0 3 -2 5 -5 5 -3 0 -5 -2 -5 -5z" />
        <path
           id="path553"
           d="M190 490 c0 -7 3 -10 7 -7 3 4 3 10 0 14 -4 3 -7 0 -7 -7z" />
        <path
           id="path555"
           d="M510 490 c0 -7 3 -10 7 -7 3 4 3 10 0 14 -4 3 -7 0 -7 -7z" />
        <path
           id="path557"
           d="M830 490 c0 -7 3 -10 7 -7 3 4 3 10 0 14 -4 3 -7 0 -7 -7z" />
        <path
           id="path559"
           d="M170 485 c0 -3 2 -5 5 -5 3 0 5 2 5 5 0 3 -2 5 -5 5 -3 0 -5 -2 -5 -5z" />
        <path
           id="path561"
           d="M490 485 c0 -3 2 -5 5 -5 3 0 5 2 5 5 0 3 -2 5 -5 5 -3 0 -5 -2 -5 -5z" />
        <path
           id="path563"
           d="M810 485 c0 -3 2 -5 5 -5 3 0 5 2 5 5 0 3 -2 5 -5 5 -3 0 -5 -2 -5 -5z" />
        <path
           id="path565"
           d="M70 471 c0 -5 5 -13 10 -16 6 -3 10 -2 10 4 0 5 -4 13 -10 16 -5 3 -10 2 -10 -4z" />
        <path
           id="path567"
           d="M390 471 c0 -5 5 -13 10 -16 6 -3 10 -2 10 4 0 5 -4 13 -10 16 -5 3 -10 2 -10 -4z" />
        <path
           id="path569"
           d="M710 471 c0 -5 5 -13 10 -16 6 -3 10 -2 10 4 0 5 -4 13 -10 16 -5 3 -10 2 -10 -4z" />
        <path
           id="path571"
           d="M162 445 c3 -30 14 -33 21 -6 3 11 -1 22 -9 25 -10 4 -13 -2 -12 -19z" />
        <path
           id="path573"
           d="M482 445 c3 -30 14 -33 21 -6 3 11 -1 22 -9 25 -10 4 -13 -2 -12 -19z" />
        <path
           id="path575"
           d="M802 445 c3 -30 14 -33 21 -6 3 11 -1 22 -9 25 -10 4 -13 -2 -12 -19z" />
        <path
           id="path577"
           d="M0 410 c0 -5 10 -10 23 -10 18 0 19 2 7 10 -19 13 -30 13 -30 0z" />
        <path
           id="path579"
           d="M305 410 c3 -5 18 -10 33 -10 21 0 24 2 12 10 -20 13 -53 13 -45 0z" />
        <path
           id="path581"
           d="M625 410 c3 -5 18 -10 33 -10 21 0 24 2 12 10 -20 13 -53 13 -45 0z" />
        <path
           id="path583"
           d="M945 410 c3 -5 8 -10 11 -10 2 0 4 5 4 10 0 6 -5 10 -11 10 -5 0 -7 -4 -4 -10z" />
        <path
           id="path585"
           d="M215 380 c3 -5 8 -10 11 -10 3 0 2 5 -1 10 -3 6 -8 10 -11 10 -3 0 -2 -4 1 -10z" />
        <path
           id="path587"
           d="M535 380 c3 -5 8 -10 11 -10 3 0 2 5 -1 10 -3 6 -8 10 -11 10 -3 0 -2 -4 1 -10z" />
        <path
           id="path589"
           d="M855 380 c3 -5 8 -10 11 -10 3 0 2 5 -1 10 -3 6 -8 10 -11 10 -3 0 -2 -4 1 -10z" />
        <path
           id="path591"
           d="M193 363 c4 -3 10 -3 14 0 3 4 0 7 -7 7 -7 0 -10 -3 -7 -7z" />
        <path
           id="path593"
           d="M513 363 c4 -3 10 -3 14 0 3 4 0 7 -7 7 -7 0 -10 -3 -7 -7z" />
        <path
           id="path595"
           d="M833 363 c4 -3 10 -3 14 0 3 4 0 7 -7 7 -7 0 -10 -3 -7 -7z" />
        <path
           id="path597"
           d="M75 330 c-3 -5 -2 -10 4 -10 5 0 13 5 16 10 3 6 2 10 -4 10 -5 0 -13 -4 -16 -10z" />
        <path
           id="path599"
           d="M395 330 c-3 -5 -2 -10 4 -10 5 0 13 5 16 10 3 6 2 10 -4 10 -5 0 -13 -4 -16 -10z" />
        <path
           id="path601"
           d="M715 330 c-3 -5 -2 -10 4 -10 5 0 13 5 16 10 3 6 2 10 -4 10 -5 0 -13 -4 -16 -10z" />
        <path
           id="path603"
           d="M150 316 c0 -2 7 -6 15 -10 8 -3 15 -1 15 4 0 6 -7 10 -15 10 -8 0 -15 -2 -15 -4z" />
        <path
           id="path605"
           d="M470 316 c0 -2 7 -6 15 -10 8 -3 15 -1 15 4 0 6 -7 10 -15 10 -8 0 -15 -2 -15 -4z" />
        <path
           id="path607"
           d="M790 316 c0 -2 7 -6 15 -10 8 -3 15 -1 15 4 0 6 -7 10 -15 10 -8 0 -15 -2 -15 -4z" />
        <path
           id="path609"
           d="M245 301 c-3 -5 -1 -12 5 -16 5 -3 10 1 10 9 0 18 -6 21 -15 7z" />
        <path
           id="path611"
           d="M565 301 c-3 -5 -1 -12 5 -16 5 -3 10 1 10 9 0 18 -6 21 -15 7z" />
        <path
           id="path613"
           d="M885 301 c-3 -5 -1 -12 5 -16 5 -3 10 1 10 9 0 18 -6 21 -15 7z" />
        <path
           id="path615"
           d="M13 275 c0 -8 7 -15 15 -15 12 0 12 3 2 15 -7 8 -13 15 -15 15 -1 0 -2 -7 -2 -15z" />
        <path
           id="path617"
           d="M333 275 c0 -8 7 -15 15 -15 12 0 12 3 2 15 -7 8 -13 15 -15 15 -1 0 -2 -7 -2 -15z" />
        <path
           id="path619"
           d="M653 275 c0 -8 7 -15 15 -15 12 0 12 3 2 15 -7 8 -13 15 -15 15 -1 0 -2 -7 -2 -15z" />
        <path
           id="path621"
           d="M96 261 c-3 -5 1 -11 9 -15 8 -3 15 -1 15 4 0 13 -18 22 -24 11z" />
        <path
           id="path623"
           d="M416 261 c-3 -5 1 -11 9 -15 8 -3 15 -1 15 4 0 13 -18 22 -24 11z" />
        <path
           id="path625"
           d="M736 261 c-3 -5 1 -11 9 -15 8 -3 15 -1 15 4 0 13 -18 22 -24 11z" />
        <path
           id="path627"
           d="M290 225 c-14 -16 -10 -18 14 -9 9 3 16 10 16 15 0 14 -16 11 -30 -6z" />
        <path
           id="path629"
           d="M610 225 c-14 -16 -10 -18 14 -9 9 3 16 10 16 15 0 14 -16 11 -30 -6z" />
        <path
           id="path631"
           d="M930 225 c-14 -16 -10 -18 14 -9 9 3 16 10 16 15 0 14 -16 11 -30 -6z" />
        <path
           id="path633"
           d="M185 210 c-3 -5 -1 -10 4 -10 6 0 11 5 11 10 0 6 -2 10 -4 10 -3 0 -8 -4 -11 -10z" />
        <path
           id="path635"
           d="M505 210 c-3 -5 -1 -10 4 -10 6 0 11 5 11 10 0 6 -2 10 -4 10 -3 0 -8 -4 -11 -10z" />
        <path
           id="path637"
           d="M825 210 c-3 -5 -1 -10 4 -10 6 0 11 5 11 10 0 6 -2 10 -4 10 -3 0 -8 -4 -11 -10z" />
        <path
           id="path639"
           d="M60 190 c0 -5 5 -10 10 -10 6 0 10 5 10 10 0 6 -4 10 -10 10 -5 0 -10 -4 -10 -10z" />
        <path
           id="path641"
           d="M290 190 c20 -13 33 -13 25 0 -3 6 -14 10 -23 10 -15 0 -15 -2 -2 -10z" />
        <path
           id="path643"
           d="M380 190 c0 -5 5 -10 10 -10 6 0 10 5 10 10 0 6 -4 10 -10 10 -5 0 -10 -4 -10 -10z" />
        <path
           id="path645"
           d="M610 190 c20 -13 33 -13 25 0 -3 6 -14 10 -23 10 -15 0 -15 -2 -2 -10z" />
        <path
           id="path647"
           d="M700 190 c0 -5 5 -10 10 -10 6 0 10 5 10 10 0 6 -4 10 -10 10 -5 0 -10 -4 -10 -10z" />
        <path
           id="path649"
           d="M930 190 c20 -13 33 -13 25 0 -3 6 -14 10 -23 10 -15 0 -15 -2 -2 -10z" />
        <path
           id="path651"
           d="M10 185 c0 -3 2 -5 5 -5 3 0 5 2 5 5 0 3 -2 5 -5 5 -3 0 -5 -2 -5 -5z" />
        <path
           id="path653"
           d="M330 185 c0 -3 2 -5 5 -5 3 0 5 2 5 5 0 3 -2 5 -5 5 -3 0 -5 -2 -5 -5z" />
        <path
           id="path655"
           d="M650 185 c0 -3 2 -5 5 -5 3 0 5 2 5 5 0 3 -2 5 -5 5 -3 0 -5 -2 -5 -5z" />
        <path
           id="path657"
           d="M190 170 c0 -7 3 -10 7 -7 3 4 3 10 0 14 -4 3 -7 0 -7 -7z" />
        <path
           id="path659"
           d="M510 170 c0 -7 3 -10 7 -7 3 4 3 10 0 14 -4 3 -7 0 -7 -7z" />
        <path
           id="path661"
           d="M830 170 c0 -7 3 -10 7 -7 3 4 3 10 0 14 -4 3 -7 0 -7 -7z" />
        <path
           id="path663"
           d="M170 165 c0 -3 2 -5 5 -5 3 0 5 2 5 5 0 3 -2 5 -5 5 -3 0 -5 -2 -5 -5z" />
        <path
           id="path665"
           d="M490 165 c0 -3 2 -5 5 -5 3 0 5 2 5 5 0 3 -2 5 -5 5 -3 0 -5 -2 -5 -5z" />
        <path
           id="path667"
           d="M810 165 c0 -3 2 -5 5 -5 3 0 5 2 5 5 0 3 -2 5 -5 5 -3 0 -5 -2 -5 -5z" />
        <path
           id="path669"
           d="M70 151 c0 -5 5 -13 10 -16 6 -3 10 -2 10 4 0 5 -4 13 -10 16 -5 3 -10 2 -10 -4z" />
        <path
           id="path671"
           d="M390 151 c0 -5 5 -13 10 -16 6 -3 10 -2 10 4 0 5 -4 13 -10 16 -5 3 -10 2 -10 -4z" />
        <path
           id="path673"
           d="M710 151 c0 -5 5 -13 10 -16 6 -3 10 -2 10 4 0 5 -4 13 -10 16 -5 3 -10 2 -10 -4z" />
        <path
           id="path675"
           d="M162 125 c3 -30 14 -33 21 -6 3 11 -1 22 -9 25 -10 4 -13 -2 -12 -19z" />
        <path
           id="path677"
           d="M482 125 c3 -30 14 -33 21 -6 3 11 -1 22 -9 25 -10 4 -13 -2 -12 -19z" />
        <path
           id="path679"
           d="M802 125 c3 -30 14 -33 21 -6 3 11 -1 22 -9 25 -10 4 -13 -2 -12 -19z" />
        <path
           id="path681"
           d="M0 90 c0 -5 10 -10 23 -10 18 0 19 2 7 10 -19 13 -30 13 -30 0z" />
        <path
           id="path683"
           d="M305 90 c3 -5 18 -10 33 -10 21 0 24 2 12 10 -20 13 -53 13 -45 0z" />
        <path
           id="path685"
           d="M625 90 c3 -5 18 -10 33 -10 21 0 24 2 12 10 -20 13 -53 13 -45 0z" />
        <path
           id="path687"
           d="M945 90 c3 -5 8 -10 11 -10 2 0 4 5 4 10 0 6 -5 10 -11 10 -5 0 -7 -4 -4 -10z" />
        <path
           id="path689"
           d="M215 60 c3 -5 8 -10 11 -10 3 0 2 5 -1 10 -3 6 -8 10 -11 10 -3 0 -2 -4 1 -10z" />
        <path
           id="path691"
           d="M535 60 c3 -5 8 -10 11 -10 3 0 2 5 -1 10 -3 6 -8 10 -11 10 -3 0 -2 -4 1 -10z" />
        <path
           id="path693"
           d="M855 60 c3 -5 8 -10 11 -10 3 0 2 5 -1 10 -3 6 -8 10 -11 10 -3 0 -2 -4 1 -10z" />
        <path
           id="path695"
           d="M193 43 c4 -3 10 -3 14 0 3 4 0 7 -7 7 -7 0 -10 -3 -7 -7z" />
        <path
           id="path697"
           d="M513 43 c4 -3 10 -3 14 0 3 4 0 7 -7 7 -7 0 -10 -3 -7 -7z" />
        <path
           id="path699"
           d="M833 43 c4 -3 10 -3 14 0 3 4 0 7 -7 7 -7 0 -10 -3 -7 -7z" />
        <path
           id="path701"
           d="M75 10 c-3 -5 -2 -10 4 -10 5 0 13 5 16 10 3 6 2 10 -4 10 -5 0 -13 -4 -16 -10z" />
        <path
           id="path703"
           d="M395 10 c-3 -5 -2 -10 4 -10 5 0 13 5 16 10 3 6 2 10 -4 10 -5 0 -13 -4 -16 -10z" />
        <path
           id="path705"
           d="M715 10 c-3 -5 -2 -10 4 -10 5 0 13 5 16 10 3 6 2 10 -4 10 -5 0 -13 -4 -16 -10z" />
      </g>
      <g
         id="g727"
         stroke="none"
         fill="#808080"
         transform="translate(0.000000,96.000000) scale(0.100000,-0.100000)">
        <path
           id="path709"
           d="M60 830 c0 -5 5 -10 10 -10 6 0 10 5 10 10 0 6 -4 10 -10 10 -5 0 -10 -4 -10 -10z" />
        <path
           id="path711"
           d="M380 830 c0 -5 5 -10 10 -10 6 0 10 5 10 10 0 6 -4 10 -10 10 -5 0 -10 -4 -10 -10z" />
        <path
           id="path713"
           d="M700 830 c0 -5 5 -10 10 -10 6 0 10 5 10 10 0 6 -4 10 -10 10 -5 0 -10 -4 -10 -10z" />
        <path
           id="path715"
           d="M60 510 c0 -5 5 -10 10 -10 6 0 10 5 10 10 0 6 -4 10 -10 10 -5 0 -10 -4 -10 -10z" />
        <path
           id="path717"
           d="M380 510 c0 -5 5 -10 10 -10 6 0 10 5 10 10 0 6 -4 10 -10 10 -5 0 -10 -4 -10 -10z" />
        <path
           id="path719"
           d="M700 510 c0 -5 5 -10 10 -10 6 0 10 5 10 10 0 6 -4 10 -10 10 -5 0 -10 -4 -10 -10z" />
        <path
           id="path721"
           d="M60 190 c0 -5 5 -10 10 -10 6 0 10 5 10 10 0 6 -4 10 -10 10 -5 0 -10 -4 -10 -10z" />
        <path
           id="path723"
           d="M380 190 c0 -5 5 -10 10 -10 6 0 10 5 10 10 0 6 -4 10 -10 10 -5 0 -10 -4 -10 -10z" />
        <path
           id="path725"
           d="M700 190 c0 -5 5 -10 10 -10 6 0 10 5 10 10 0 6 -4 10 -10 10 -5 0 -10 -4 -10 -10z" />
      </g>
    </g>
  </g>
</svg>
