<?xml version="1.0" encoding="UTF-8" standalone="no"?>
<!-- Created with Inkscape (http://www.inkscape.org/) -->

<svg
   xmlns:dc="http://purl.org/dc/elements/1.1/"
   xmlns:cc="http://creativecommons.org/ns#"
   xmlns:rdf="http://www.w3.org/1999/02/22-rdf-syntax-ns#"
   xmlns:svg="http://www.w3.org/2000/svg"
   xmlns="http://www.w3.org/2000/svg"
   xmlns:sodipodi="http://sodipodi.sourceforge.net/DTD/sodipodi-0.dtd"
   xmlns:inkscape="http://www.inkscape.org/namespaces/inkscape"
   width="32px"
   height="32px"
   viewBox="0 0 32px 32px"
   version="1.1"
   id="svgMain"
   inkscape:version="0.92.2 (5c3e80d, 2017-08-06)"
   sodipodi:docname="reference_SVG.svg">
  <defs
     id="defs4542" />
  <sodipodi:namedview
     id="base"
     pagecolor="#ffffff"
     bordercolor="#666666"
     borderopacity="1.0"
     inkscape:pageopacity="0.0"
     inkscape:pageshadow="2"
     inkscape:zoom="1"
     inkscape:cx="0"
     inkscape:cy="0"
     inkscape:document-units="px"
     inkscape:current-layer="layer1"
     showgrid="false"
     units="px"
     inkscape:window-width="1024"
     inkscape:window-height="768"
     inkscape:window-x="-8"
     inkscape:window-y="-8"
     inkscape:window-maximized="1" />
  <metadata
     id="metadata1">
    <rdf:RDF>
      <cc:Work
         rdf:about="">
        <dc:format>image/svg+xml</dc:format>
        <dc:type
           rdf:resource="http://purl.org/dc/dcmitype/StillImage" />
        <dc:title />
      </cc:Work>
    </rdf:RDF>
  </metadata>
  <g transform="translate(-32,-32)"
     inkscape:label="Layer 1"
     inkscape:groupmode="layer"
     id="layer1">
    <!-- INSERT MARKER -->
<g transform="translate(0.000000,96.000000) scale(0.100000,-0.100000)"
fill="#101010" stroke="none">
<path d="M0 480 l0 -480 480 0 480 0 0 480 0 480 -480 0 -480 0 0 -480z"/>
</g>
<g transform="translate(0.000000,96.000000) scale(0.100000,-0.100000)"
fill="#261d2a" stroke="none">
<path d="M0 480 l0 -480 480 0 480 0 0 480 0 480 -480 0 -480 0 0 -480z m310
320 l0 -150 -150 0 -150 0 0 150 0 150 150 0 150 0 0 -150z m320 0 l0 -150
-150 0 -150 0 0 150 0 150 150 0 150 0 0 -150z m320 0 l0 -150 -150 0 -150 0
0 150 0 150 150 0 150 0 0 -150z m-640 -320 l0 -150 -150 0 -150 0 0 150 0
150 150 0 150 0 0 -150z m320 0 l0 -150 -150 0 -150 0 0 150 0 150 150 0 150
0 0 -150z m320 0 l0 -150 -150 0 -150 0 0 150 0 150 150 0 150 0 0 -150z
m-640 -320 l0 -150 -150 0 -150 0 0 150 0 150 150 0 150 0 0 -150z m320 0 l0
-150 -150 0 -150 0 0 150 0 150 150 0 150 0 0 -150z m320 0 l0 -150 -150 0
-150 0 0 150 0 150 150 0 150 0 0 -150z"/>
<path d="M92 920 c-18 -11 -41 -34 -52 -52 -71 -117 71 -259 188 -188 42 26
72 76 72 120 0 71 -69 140 -140 140 -19 0 -50 -9 -68 -20z m38 -20 c0 -23 -4
-30 -20 -30 -13 0 -20 -7 -20 -20 0 -16 -7 -20 -30 -20 l-31 0 16 30 c12 24
67 70 83 70 1 0 2 -13 2 -30z m40 0 c0 -16 -4 -30 -10 -30 -5 0 -10 14 -10 30
0 17 5 30 10 30 6 0 10 -13 10 -30z m103 -38 l19 -32 -31 0 c-24 0 -31 4 -31
20 0 13 -7 20 -20 20 -16 0 -20 7 -20 31 l0 31 32 -19 c18 -10 41 -33 51 -51z
m-63 -62 l0 -50 -50 0 -50 0 0 50 0 50 50 0 50 0 0 -50z m-120 0 c0 -5 -13
-10 -30 -10 -16 0 -30 5 -30 10 0 6 14 10 30 10 17 0 30 -4 30 -10z m200 0 c0
-5 -13 -10 -30 -10 -16 0 -30 5 -30 10 0 6 14 10 30 10 17 0 30 -4 30 -10z
m-200 -50 c0 -13 7 -20 20 -20 16 0 20 -7 20 -31 l0 -31 -32 19 c-18 10 -41
33 -51 51 l-19 32 31 0 c24 0 31 -4 31 -20z m183 -12 c-10 -18 -33 -41 -51
-51 l-32 -19 0 31 c0 24 4 31 20 31 13 0 20 7 20 20 0 16 7 20 31 20 l31 0
-19 -32z m-103 -38 c0 -16 -4 -30 -10 -30 -5 0 -10 14 -10 30 0 17 5 30 10 30
6 0 10 -13 10 -30z"/>
<path d="M36 921 c-4 -5 -2 -12 3 -15 5 -4 12 -2 15 3 4 5 2 12 -3 15 -5 4
-12 2 -15 -3z"/>
<path d="M266 921 c-4 -5 -2 -12 3 -15 5 -4 12 -2 15 3 4 5 2 12 -3 15 -5 4
-12 2 -15 -3z"/>
<path d="M36 691 c-4 -5 -2 -12 3 -15 5 -4 12 -2 15 3 4 5 2 12 -3 15 -5 4
-12 2 -15 -3z"/>
<path d="M266 691 c-4 -5 -2 -12 3 -15 5 -4 12 -2 15 3 4 5 2 12 -3 15 -5 4
-12 2 -15 -3z"/>
<path d="M412 920 c-18 -11 -41 -34 -52 -52 -71 -117 71 -259 188 -188 42 26
72 76 72 120 0 71 -69 140 -140 140 -19 0 -50 -9 -68 -20z m38 -20 c0 -23 -4
-30 -20 -30 -13 0 -20 -7 -20 -20 0 -16 -7 -20 -30 -20 l-31 0 16 30 c12 24
67 70 83 70 1 0 2 -13 2 -30z m40 0 c0 -16 -4 -30 -10 -30 -5 0 -10 14 -10 30
0 17 5 30 10 30 6 0 10 -13 10 -30z m103 -38 l19 -32 -31 0 c-24 0 -31 4 -31
20 0 13 -7 20 -20 20 -16 0 -20 7 -20 31 l0 31 32 -19 c18 -10 41 -33 51 -51z
m-63 -62 l0 -50 -50 0 -50 0 0 50 0 50 50 0 50 0 0 -50z m-120 0 c0 -5 -13
-10 -30 -10 -16 0 -30 5 -30 10 0 6 14 10 30 10 17 0 30 -4 30 -10z m200 0 c0
-5 -13 -10 -30 -10 -16 0 -30 5 -30 10 0 6 14 10 30 10 17 0 30 -4 30 -10z
m-200 -50 c0 -13 7 -20 20 -20 16 0 20 -7 20 -31 l0 -31 -32 19 c-18 10 -41
33 -51 51 l-19 32 31 0 c24 0 31 -4 31 -20z m183 -12 c-10 -18 -33 -41 -51
-51 l-32 -19 0 31 c0 24 4 31 20 31 13 0 20 7 20 20 0 16 7 20 31 20 l31 0
-19 -32z m-103 -38 c0 -16 -4 -30 -10 -30 -5 0 -10 14 -10 30 0 17 5 30 10 30
6 0 10 -13 10 -30z"/>
<path d="M356 921 c-4 -5 -2 -12 3 -15 5 -4 12 -2 15 3 4 5 2 12 -3 15 -5 4
-12 2 -15 -3z"/>
<path d="M586 921 c-4 -5 -2 -12 3 -15 5 -4 12 -2 15 3 4 5 2 12 -3 15 -5 4
-12 2 -15 -3z"/>
<path d="M356 691 c-4 -5 -2 -12 3 -15 5 -4 12 -2 15 3 4 5 2 12 -3 15 -5 4
-12 2 -15 -3z"/>
<path d="M586 691 c-4 -5 -2 -12 3 -15 5 -4 12 -2 15 3 4 5 2 12 -3 15 -5 4
-12 2 -15 -3z"/>
<path d="M732 920 c-18 -11 -41 -34 -52 -52 -71 -117 71 -259 188 -188 42 26
72 76 72 120 0 71 -69 140 -140 140 -19 0 -50 -9 -68 -20z m38 -20 c0 -23 -4
-30 -20 -30 -13 0 -20 -7 -20 -20 0 -16 -7 -20 -30 -20 l-31 0 16 30 c12 24
67 70 83 70 1 0 2 -13 2 -30z m40 0 c0 -16 -4 -30 -10 -30 -5 0 -10 14 -10 30
0 17 5 30 10 30 6 0 10 -13 10 -30z m103 -38 l19 -32 -31 0 c-24 0 -31 4 -31
20 0 13 -7 20 -20 20 -16 0 -20 7 -20 31 l0 31 32 -19 c18 -10 41 -33 51 -51z
m-63 -62 l0 -50 -50 0 -50 0 0 50 0 50 50 0 50 0 0 -50z m-120 0 c0 -5 -13
-10 -30 -10 -16 0 -30 5 -30 10 0 6 14 10 30 10 17 0 30 -4 30 -10z m200 0 c0
-5 -13 -10 -30 -10 -16 0 -30 5 -30 10 0 6 14 10 30 10 17 0 30 -4 30 -10z
m-200 -50 c0 -13 7 -20 20 -20 16 0 20 -7 20 -31 l0 -31 -32 19 c-18 10 -41
33 -51 51 l-19 32 31 0 c24 0 31 -4 31 -20z m183 -12 c-10 -18 -33 -41 -51
-51 l-32 -19 0 31 c0 24 4 31 20 31 13 0 20 7 20 20 0 16 7 20 31 20 l31 0
-19 -32z m-103 -38 c0 -16 -4 -30 -10 -30 -5 0 -10 14 -10 30 0 17 5 30 10 30
6 0 10 -13 10 -30z"/>
<path d="M676 921 c-4 -5 -2 -12 3 -15 5 -4 12 -2 15 3 4 5 2 12 -3 15 -5 4
-12 2 -15 -3z"/>
<path d="M906 921 c-4 -5 -2 -12 3 -15 5 -4 12 -2 15 3 4 5 2 12 -3 15 -5 4
-12 2 -15 -3z"/>
<path d="M676 691 c-4 -5 -2 -12 3 -15 5 -4 12 -2 15 3 4 5 2 12 -3 15 -5 4
-12 2 -15 -3z"/>
<path d="M906 691 c-4 -5 -2 -12 3 -15 5 -4 12 -2 15 3 4 5 2 12 -3 15 -5 4
-12 2 -15 -3z"/>
<path d="M92 600 c-94 -57 -94 -183 0 -240 117 -71 259 71 188 188 -42 68
-124 91 -188 52z m38 -20 c0 -23 -4 -30 -20 -30 -13 0 -20 -7 -20 -20 0 -16
-7 -20 -30 -20 l-31 0 16 30 c12 24 67 70 83 70 1 0 2 -13 2 -30z m40 0 c0
-16 -4 -30 -10 -30 -5 0 -10 14 -10 30 0 17 5 30 10 30 6 0 10 -13 10 -30z
m103 -38 l19 -32 -31 0 c-24 0 -31 4 -31 20 0 13 -7 20 -20 20 -16 0 -20 7
-20 31 l0 31 32 -19 c18 -10 41 -33 51 -51z m-63 -62 l0 -50 -50 0 -50 0 0 50
0 50 50 0 50 0 0 -50z m-120 0 c0 -5 -13 -10 -30 -10 -16 0 -30 5 -30 10 0 6
14 10 30 10 17 0 30 -4 30 -10z m200 0 c0 -5 -13 -10 -30 -10 -16 0 -30 5 -30
10 0 6 14 10 30 10 17 0 30 -4 30 -10z m-200 -50 c0 -13 7 -20 20 -20 16 0 20
-7 20 -31 l0 -31 -32 19 c-18 10 -41 33 -51 51 l-19 32 31 0 c24 0 31 -4 31
-20z m183 -12 c-10 -18 -33 -41 -51 -51 l-32 -19 0 31 c0 24 4 31 20 31 13 0
20 7 20 20 0 16 7 20 31 20 l31 0 -19 -32z m-103 -38 c0 -16 -4 -30 -10 -30
-5 0 -10 14 -10 30 0 17 5 30 10 30 6 0 10 -13 10 -30z"/>
<path d="M36 601 c-4 -5 -2 -12 3 -15 5 -4 12 -2 15 3 4 5 2 12 -3 15 -5 4
-12 2 -15 -3z"/>
<path d="M266 601 c-4 -5 -2 -12 3 -15 5 -4 12 -2 15 3 4 5 2 12 -3 15 -5 4
-12 2 -15 -3z"/>
<path d="M36 371 c-4 -5 -2 -12 3 -15 5 -4 12 -2 15 3 4 5 2 12 -3 15 -5 4
-12 2 -15 -3z"/>
<path d="M266 371 c-4 -5 -2 -12 3 -15 5 -4 12 -2 15 3 4 5 2 12 -3 15 -5 4
-12 2 -15 -3z"/>
<path d="M412 600 c-94 -57 -94 -183 0 -240 64 -39 146 -16 188 52 71 117 -71
259 -188 188z m38 -20 c0 -23 -4 -30 -20 -30 -13 0 -20 -7 -20 -20 0 -16 -7
-20 -30 -20 l-31 0 16 30 c12 24 67 70 83 70 1 0 2 -13 2 -30z m40 0 c0 -16
-4 -30 -10 -30 -5 0 -10 14 -10 30 0 17 5 30 10 30 6 0 10 -13 10 -30z m103
-38 l19 -32 -31 0 c-24 0 -31 4 -31 20 0 13 -7 20 -20 20 -16 0 -20 7 -20 31
l0 31 32 -19 c18 -10 41 -33 51 -51z m-63 -62 l0 -50 -50 0 -50 0 0 50 0 50
50 0 50 0 0 -50z m-120 0 c0 -5 -13 -10 -30 -10 -16 0 -30 5 -30 10 0 6 14 10
30 10 17 0 30 -4 30 -10z m200 0 c0 -5 -13 -10 -30 -10 -16 0 -30 5 -30 10 0
6 14 10 30 10 17 0 30 -4 30 -10z m-200 -50 c0 -13 7 -20 20 -20 16 0 20 -7
20 -31 l0 -31 -32 19 c-18 10 -41 33 -51 51 l-19 32 31 0 c24 0 31 -4 31 -20z
m183 -12 c-10 -18 -33 -41 -51 -51 l-32 -19 0 31 c0 24 4 31 20 31 13 0 20 7
20 20 0 16 7 20 31 20 l31 0 -19 -32z m-103 -38 c0 -16 -4 -30 -10 -30 -5 0
-10 14 -10 30 0 17 5 30 10 30 6 0 10 -13 10 -30z"/>
<path d="M356 601 c-4 -5 -2 -12 3 -15 5 -4 12 -2 15 3 4 5 2 12 -3 15 -5 4
-12 2 -15 -3z"/>
<path d="M586 601 c-4 -5 -2 -12 3 -15 5 -4 12 -2 15 3 4 5 2 12 -3 15 -5 4
-12 2 -15 -3z"/>
<path d="M356 371 c-4 -5 -2 -12 3 -15 5 -4 12 -2 15 3 4 5 2 12 -3 15 -5 4
-12 2 -15 -3z"/>
<path d="M586 371 c-4 -5 -2 -12 3 -15 5 -4 12 -2 15 3 4 5 2 12 -3 15 -5 4
-12 2 -15 -3z"/>
<path d="M732 600 c-18 -11 -41 -34 -52 -52 -71 -117 71 -259 188 -188 42 26
72 76 72 120 0 103 -121 173 -208 120z m38 -20 c0 -23 -4 -30 -20 -30 -13 0
-20 -7 -20 -20 0 -16 -7 -20 -30 -20 l-31 0 16 30 c12 24 67 70 83 70 1 0 2
-13 2 -30z m40 0 c0 -16 -4 -30 -10 -30 -5 0 -10 14 -10 30 0 17 5 30 10 30 6
0 10 -13 10 -30z m103 -38 l19 -32 -31 0 c-24 0 -31 4 -31 20 0 13 -7 20 -20
20 -16 0 -20 7 -20 31 l0 31 32 -19 c18 -10 41 -33 51 -51z m-63 -62 l0 -50
-50 0 -50 0 0 50 0 50 50 0 50 0 0 -50z m-120 0 c0 -5 -13 -10 -30 -10 -16 0
-30 5 -30 10 0 6 14 10 30 10 17 0 30 -4 30 -10z m200 0 c0 -5 -13 -10 -30
-10 -16 0 -30 5 -30 10 0 6 14 10 30 10 17 0 30 -4 30 -10z m-200 -50 c0 -13
7 -20 20 -20 16 0 20 -7 20 -31 l0 -31 -32 19 c-18 10 -41 33 -51 51 l-19 32
31 0 c24 0 31 -4 31 -20z m183 -12 c-10 -18 -33 -41 -51 -51 l-32 -19 0 31 c0
24 4 31 20 31 13 0 20 7 20 20 0 16 7 20 31 20 l31 0 -19 -32z m-103 -38 c0
-16 -4 -30 -10 -30 -5 0 -10 14 -10 30 0 17 5 30 10 30 6 0 10 -13 10 -30z"/>
<path d="M676 601 c-4 -5 -2 -12 3 -15 5 -4 12 -2 15 3 4 5 2 12 -3 15 -5 4
-12 2 -15 -3z"/>
<path d="M906 601 c-4 -5 -2 -12 3 -15 5 -4 12 -2 15 3 4 5 2 12 -3 15 -5 4
-12 2 -15 -3z"/>
<path d="M676 371 c-4 -5 -2 -12 3 -15 5 -4 12 -2 15 3 4 5 2 12 -3 15 -5 4
-12 2 -15 -3z"/>
<path d="M906 371 c-4 -5 -2 -12 3 -15 5 -4 12 -2 15 3 4 5 2 12 -3 15 -5 4
-12 2 -15 -3z"/>
<path d="M92 280 c-94 -57 -94 -183 0 -240 64 -39 146 -16 188 52 71 117 -71
259 -188 188z m38 -20 c0 -23 -4 -30 -20 -30 -13 0 -20 -7 -20 -20 0 -16 -7
-20 -30 -20 l-31 0 16 30 c12 24 67 70 83 70 1 0 2 -13 2 -30z m40 0 c0 -16
-4 -30 -10 -30 -5 0 -10 14 -10 30 0 17 5 30 10 30 6 0 10 -13 10 -30z m103
-38 l19 -32 -31 0 c-24 0 -31 4 -31 20 0 13 -7 20 -20 20 -16 0 -20 7 -20 31
l0 31 32 -19 c18 -10 41 -33 51 -51z m-63 -62 l0 -50 -50 0 -50 0 0 50 0 50
50 0 50 0 0 -50z m-120 0 c0 -5 -13 -10 -30 -10 -16 0 -30 5 -30 10 0 6 14 10
30 10 17 0 30 -4 30 -10z m200 0 c0 -5 -13 -10 -30 -10 -16 0 -30 5 -30 10 0
6 14 10 30 10 17 0 30 -4 30 -10z m-200 -50 c0 -13 7 -20 20 -20 16 0 20 -7
20 -31 l0 -31 -32 19 c-18 10 -41 33 -51 51 l-19 32 31 0 c24 0 31 -4 31 -20z
m183 -12 c-10 -18 -33 -41 -51 -51 l-32 -19 0 31 c0 24 4 31 20 31 13 0 20 7
20 20 0 16 7 20 31 20 l31 0 -19 -32z m-103 -38 c0 -16 -4 -30 -10 -30 -5 0
-10 14 -10 30 0 17 5 30 10 30 6 0 10 -13 10 -30z"/>
<path d="M36 281 c-4 -5 -2 -12 3 -15 5 -4 12 -2 15 3 4 5 2 12 -3 15 -5 4
-12 2 -15 -3z"/>
<path d="M266 281 c-4 -5 -2 -12 3 -15 5 -4 12 -2 15 3 4 5 2 12 -3 15 -5 4
-12 2 -15 -3z"/>
<path d="M36 51 c-4 -5 -2 -12 3 -15 5 -4 12 -2 15 3 4 5 2 12 -3 15 -5 4 -12
2 -15 -3z"/>
<path d="M266 51 c-4 -5 -2 -12 3 -15 5 -4 12 -2 15 3 4 5 2 12 -3 15 -5 4
-12 2 -15 -3z"/>
<path d="M412 280 c-94 -57 -94 -183 0 -240 117 -71 259 71 188 188 -42 68
-124 91 -188 52z m38 -20 c0 -23 -4 -30 -20 -30 -13 0 -20 -7 -20 -20 0 -16
-7 -20 -30 -20 l-31 0 16 30 c12 24 67 70 83 70 1 0 2 -13 2 -30z m40 0 c0
-16 -4 -30 -10 -30 -5 0 -10 14 -10 30 0 17 5 30 10 30 6 0 10 -13 10 -30z
m103 -38 l19 -32 -31 0 c-24 0 -31 4 -31 20 0 13 -7 20 -20 20 -16 0 -20 7
-20 31 l0 31 32 -19 c18 -10 41 -33 51 -51z m-63 -62 l0 -50 -50 0 -50 0 0 50
0 50 50 0 50 0 0 -50z m-120 0 c0 -5 -13 -10 -30 -10 -16 0 -30 5 -30 10 0 6
14 10 30 10 17 0 30 -4 30 -10z m200 0 c0 -5 -13 -10 -30 -10 -16 0 -30 5 -30
10 0 6 14 10 30 10 17 0 30 -4 30 -10z m-200 -50 c0 -13 7 -20 20 -20 16 0 20
-7 20 -31 l0 -31 -32 19 c-18 10 -41 33 -51 51 l-19 32 31 0 c24 0 31 -4 31
-20z m183 -12 c-10 -18 -33 -41 -51 -51 l-32 -19 0 31 c0 24 4 31 20 31 13 0
20 7 20 20 0 16 7 20 31 20 l31 0 -19 -32z m-103 -38 c0 -16 -4 -30 -10 -30
-5 0 -10 14 -10 30 0 17 5 30 10 30 6 0 10 -13 10 -30z"/>
<path d="M356 281 c-4 -5 -2 -12 3 -15 5 -4 12 -2 15 3 4 5 2 12 -3 15 -5 4
-12 2 -15 -3z"/>
<path d="M586 281 c-4 -5 -2 -12 3 -15 5 -4 12 -2 15 3 4 5 2 12 -3 15 -5 4
-12 2 -15 -3z"/>
<path d="M356 51 c-4 -5 -2 -12 3 -15 5 -4 12 -2 15 3 4 5 2 12 -3 15 -5 4
-12 2 -15 -3z"/>
<path d="M586 51 c-4 -5 -2 -12 3 -15 5 -4 12 -2 15 3 4 5 2 12 -3 15 -5 4
-12 2 -15 -3z"/>
<path d="M732 280 c-68 -42 -91 -124 -52 -188 57 -94 183 -94 240 0 39 64 16
146 -52 188 -42 25 -94 25 -136 0z m38 -20 c0 -23 -4 -30 -20 -30 -13 0 -20
-7 -20 -20 0 -16 -7 -20 -30 -20 l-31 0 16 30 c12 24 67 70 83 70 1 0 2 -13 2
-30z m40 0 c0 -16 -4 -30 -10 -30 -5 0 -10 14 -10 30 0 17 5 30 10 30 6 0 10
-13 10 -30z m103 -38 l19 -32 -31 0 c-24 0 -31 4 -31 20 0 13 -7 20 -20 20
-16 0 -20 7 -20 31 l0 31 32 -19 c18 -10 41 -33 51 -51z m-63 -62 l0 -50 -50
0 -50 0 0 50 0 50 50 0 50 0 0 -50z m-120 0 c0 -5 -13 -10 -30 -10 -16 0 -30
5 -30 10 0 6 14 10 30 10 17 0 30 -4 30 -10z m200 0 c0 -5 -13 -10 -30 -10
-16 0 -30 5 -30 10 0 6 14 10 30 10 17 0 30 -4 30 -10z m-200 -50 c0 -13 7
-20 20 -20 16 0 20 -7 20 -31 l0 -31 -32 19 c-18 10 -41 33 -51 51 l-19 32 31
0 c24 0 31 -4 31 -20z m183 -12 c-10 -18 -33 -41 -51 -51 l-32 -19 0 31 c0 24
4 31 20 31 13 0 20 7 20 20 0 16 7 20 31 20 l31 0 -19 -32z m-103 -38 c0 -16
-4 -30 -10 -30 -5 0 -10 14 -10 30 0 17 5 30 10 30 6 0 10 -13 10 -30z"/>
<path d="M676 281 c-4 -5 -2 -12 3 -15 5 -4 12 -2 15 3 4 5 2 12 -3 15 -5 4
-12 2 -15 -3z"/>
<path d="M906 281 c-4 -5 -2 -12 3 -15 5 -4 12 -2 15 3 4 5 2 12 -3 15 -5 4
-12 2 -15 -3z"/>
<path d="M676 51 c-4 -5 -2 -12 3 -15 5 -4 12 -2 15 3 4 5 2 12 -3 15 -5 4
-12 2 -15 -3z"/>
<path d="M906 51 c-4 -5 -2 -12 3 -15 5 -4 12 -2 15 3 4 5 2 12 -3 15 -5 4
-12 2 -15 -3z"/>
</g>
<g transform="translate(0.000000,96.000000) scale(0.100000,-0.100000)"
fill="#967896" stroke="none">
<path d="M0 955 c0 -3 2 -5 5 -5 3 0 5 2 5 5 0 3 -2 5 -5 5 -3 0 -5 -2 -5 -5z"/>
<path d="M313 953 c4 -3 10 -3 14 0 3 4 0 7 -7 7 -7 0 -10 -3 -7 -7z"/>
<path d="M633 953 c4 -3 10 -3 14 0 3 4 0 7 -7 7 -7 0 -10 -3 -7 -7z"/>
<path d="M950 955 c0 -3 2 -5 5 -5 3 0 5 2 5 5 0 3 -2 5 -5 5 -3 0 -5 -2 -5
-5z"/>
<path d="M92 920 c-18 -11 -41 -34 -52 -52 -71 -117 71 -259 188 -188 42 26
72 76 72 120 0 71 -69 140 -140 140 -19 0 -50 -9 -68 -20z m48 -20 c0 -25 -4
-30 -25 -30 -20 0 -25 -5 -25 -25 0 -21 -5 -25 -30 -25 -35 0 -35 1 -15 41 14
27 68 69 88 69 4 0 7 -13 7 -30z m30 0 c0 -16 -4 -30 -10 -30 -5 0 -10 14 -10
30 0 17 5 30 10 30 6 0 10 -13 10 -30z m51 15 c27 -14 69 -68 69 -87 0 -5 -13
-8 -30 -8 -25 0 -30 4 -30 25 0 20 -5 25 -25 25 -21 0 -25 5 -25 30 0 35 1 35
41 15z m-11 -115 l0 -50 -50 0 -50 0 0 50 0 50 50 0 50 0 0 -50z m-120 0 c0
-5 -13 -10 -30 -10 -16 0 -30 5 -30 10 0 6 14 10 30 10 17 0 30 -4 30 -10z
m200 0 c0 -5 -13 -10 -30 -10 -16 0 -30 5 -30 10 0 6 14 10 30 10 17 0 30 -4
30 -10z m-200 -45 c0 -20 5 -25 25 -25 21 0 25 -5 25 -30 0 -16 -3 -30 -7 -30
-20 0 -74 42 -88 69 -20 40 -20 41 15 41 25 0 30 -4 30 -25z m200 18 c0 -20
-42 -74 -69 -88 -40 -20 -41 -20 -41 15 0 25 4 30 25 30 20 0 25 5 25 25 0 21
5 25 30 25 17 0 30 -3 30 -7z m-120 -73 c0 -16 -4 -30 -10 -30 -5 0 -10 14
-10 30 0 17 5 30 10 30 6 0 10 -13 10 -30z"/>
<path d="M412 920 c-18 -11 -41 -34 -52 -52 -71 -117 71 -259 188 -188 42 26
72 76 72 120 0 71 -69 140 -140 140 -19 0 -50 -9 -68 -20z m48 -20 c0 -25 -4
-30 -25 -30 -20 0 -25 -5 -25 -25 0 -21 -5 -25 -30 -25 -35 0 -35 1 -15 41 14
27 68 69 88 69 4 0 7 -13 7 -30z m30 0 c0 -16 -4 -30 -10 -30 -5 0 -10 14 -10
30 0 17 5 30 10 30 6 0 10 -13 10 -30z m51 15 c27 -14 69 -68 69 -87 0 -5 -13
-8 -30 -8 -25 0 -30 4 -30 25 0 20 -5 25 -25 25 -21 0 -25 5 -25 30 0 35 1 35
41 15z m-11 -115 l0 -50 -50 0 -50 0 0 50 0 50 50 0 50 0 0 -50z m-120 0 c0
-5 -13 -10 -30 -10 -16 0 -30 5 -30 10 0 6 14 10 30 10 17 0 30 -4 30 -10z
m200 0 c0 -5 -13 -10 -30 -10 -16 0 -30 5 -30 10 0 6 14 10 30 10 17 0 30 -4
30 -10z m-200 -45 c0 -20 5 -25 25 -25 21 0 25 -5 25 -30 0 -16 -3 -30 -7 -30
-20 0 -74 42 -88 69 -20 40 -20 41 15 41 25 0 30 -4 30 -25z m200 18 c0 -20
-42 -74 -69 -88 -40 -20 -41 -20 -41 15 0 25 4 30 25 30 20 0 25 5 25 25 0 21
5 25 30 25 17 0 30 -3 30 -7z m-120 -73 c0 -16 -4 -30 -10 -30 -5 0 -10 14
-10 30 0 17 5 30 10 30 6 0 10 -13 10 -30z"/>
<path d="M732 920 c-18 -11 -41 -34 -52 -52 -71 -117 71 -259 188 -188 42 26
72 76 72 120 0 71 -69 140 -140 140 -19 0 -50 -9 -68 -20z m48 -20 c0 -25 -4
-30 -25 -30 -20 0 -25 -5 -25 -25 0 -21 -5 -25 -30 -25 -35 0 -35 1 -15 41 14
27 68 69 88 69 4 0 7 -13 7 -30z m30 0 c0 -16 -4 -30 -10 -30 -5 0 -10 14 -10
30 0 17 5 30 10 30 6 0 10 -13 10 -30z m51 15 c27 -14 69 -68 69 -87 0 -5 -13
-8 -30 -8 -25 0 -30 4 -30 25 0 20 -5 25 -25 25 -21 0 -25 5 -25 30 0 35 1 35
41 15z m-11 -115 l0 -50 -50 0 -50 0 0 50 0 50 50 0 50 0 0 -50z m-120 0 c0
-5 -13 -10 -30 -10 -16 0 -30 5 -30 10 0 6 14 10 30 10 17 0 30 -4 30 -10z
m200 0 c0 -5 -13 -10 -30 -10 -16 0 -30 5 -30 10 0 6 14 10 30 10 17 0 30 -4
30 -10z m-200 -45 c0 -20 5 -25 25 -25 21 0 25 -5 25 -30 0 -16 -3 -30 -7 -30
-20 0 -74 42 -88 69 -20 40 -20 41 15 41 25 0 30 -4 30 -25z m200 18 c0 -20
-42 -74 -69 -88 -40 -20 -41 -20 -41 15 0 25 4 30 25 30 20 0 25 5 25 25 0 21
5 25 30 25 17 0 30 -3 30 -7z m-120 -73 c0 -16 -4 -30 -10 -30 -5 0 -10 14
-10 30 0 17 5 30 10 30 6 0 10 -13 10 -30z"/>
<path d="M40 915 c0 -3 2 -5 5 -5 3 0 5 2 5 5 0 3 -2 5 -5 5 -3 0 -5 -2 -5 -5z"/>
<path d="M270 915 c0 -3 2 -5 5 -5 3 0 5 2 5 5 0 3 -2 5 -5 5 -3 0 -5 -2 -5
-5z"/>
<path d="M360 915 c0 -3 2 -5 5 -5 3 0 5 2 5 5 0 3 -2 5 -5 5 -3 0 -5 -2 -5
-5z"/>
<path d="M590 915 c0 -3 2 -5 5 -5 3 0 5 2 5 5 0 3 -2 5 -5 5 -3 0 -5 -2 -5
-5z"/>
<path d="M680 915 c0 -3 2 -5 5 -5 3 0 5 2 5 5 0 3 -2 5 -5 5 -3 0 -5 -2 -5
-5z"/>
<path d="M910 915 c0 -3 2 -5 5 -5 3 0 5 2 5 5 0 3 -2 5 -5 5 -3 0 -5 -2 -5
-5z"/>
<path d="M40 685 c0 -3 2 -5 5 -5 3 0 5 2 5 5 0 3 -2 5 -5 5 -3 0 -5 -2 -5 -5z"/>
<path d="M270 685 c0 -3 2 -5 5 -5 3 0 5 2 5 5 0 3 -2 5 -5 5 -3 0 -5 -2 -5
-5z"/>
<path d="M360 685 c0 -3 2 -5 5 -5 3 0 5 2 5 5 0 3 -2 5 -5 5 -3 0 -5 -2 -5
-5z"/>
<path d="M590 685 c0 -3 2 -5 5 -5 3 0 5 2 5 5 0 3 -2 5 -5 5 -3 0 -5 -2 -5
-5z"/>
<path d="M680 685 c0 -3 2 -5 5 -5 3 0 5 2 5 5 0 3 -2 5 -5 5 -3 0 -5 -2 -5
-5z"/>
<path d="M910 685 c0 -3 2 -5 5 -5 3 0 5 2 5 5 0 3 -2 5 -5 5 -3 0 -5 -2 -5
-5z"/>
<path d="M0 640 c0 -7 3 -10 7 -7 3 4 3 10 0 14 -4 3 -7 0 -7 -7z"/>
<path d="M310 640 c0 -5 5 -10 10 -10 6 0 10 5 10 10 0 6 -4 10 -10 10 -5 0
-10 -4 -10 -10z"/>
<path d="M630 640 c0 -5 5 -10 10 -10 6 0 10 5 10 10 0 6 -4 10 -10 10 -5 0
-10 -4 -10 -10z"/>
<path d="M950 640 c0 -7 3 -10 7 -7 3 4 3 10 0 14 -4 3 -7 0 -7 -7z"/>
<path d="M92 600 c-94 -57 -94 -183 0 -240 117 -71 259 71 188 188 -42 68
-124 91 -188 52z m48 -20 c0 -25 -4 -30 -25 -30 -20 0 -25 -5 -25 -25 0 -21
-5 -25 -30 -25 -35 0 -35 1 -15 41 14 27 68 69 88 69 4 0 7 -13 7 -30z m30 0
c0 -16 -4 -30 -10 -30 -5 0 -10 14 -10 30 0 17 5 30 10 30 6 0 10 -13 10 -30z
m51 15 c27 -14 69 -68 69 -87 0 -5 -13 -8 -30 -8 -25 0 -30 4 -30 25 0 20 -5
25 -25 25 -21 0 -25 5 -25 30 0 35 1 35 41 15z m-11 -115 l0 -50 -50 0 -50 0
0 50 0 50 50 0 50 0 0 -50z m-120 0 c0 -5 -13 -10 -30 -10 -16 0 -30 5 -30 10
0 6 14 10 30 10 17 0 30 -4 30 -10z m200 0 c0 -5 -13 -10 -30 -10 -16 0 -30 5
-30 10 0 6 14 10 30 10 17 0 30 -4 30 -10z m-200 -45 c0 -20 5 -25 25 -25 21
0 25 -5 25 -30 0 -16 -3 -30 -7 -30 -20 0 -74 42 -88 69 -20 40 -20 41 15 41
25 0 30 -4 30 -25z m200 18 c0 -20 -42 -74 -69 -88 -40 -20 -41 -20 -41 15 0
25 4 30 25 30 20 0 25 5 25 25 0 21 5 25 30 25 17 0 30 -3 30 -7z m-120 -73
c0 -16 -4 -30 -10 -30 -5 0 -10 14 -10 30 0 17 5 30 10 30 6 0 10 -13 10 -30z"/>
<path d="M412 600 c-94 -57 -94 -183 0 -240 64 -39 146 -16 188 52 71 117 -71
259 -188 188z m48 -20 c0 -25 -4 -30 -25 -30 -20 0 -25 -5 -25 -25 0 -21 -5
-25 -30 -25 -35 0 -35 1 -15 41 14 27 68 69 88 69 4 0 7 -13 7 -30z m30 0 c0
-16 -4 -30 -10 -30 -5 0 -10 14 -10 30 0 17 5 30 10 30 6 0 10 -13 10 -30z
m51 15 c27 -14 69 -68 69 -87 0 -5 -13 -8 -30 -8 -25 0 -30 4 -30 25 0 20 -5
25 -25 25 -21 0 -25 5 -25 30 0 35 1 35 41 15z m-11 -115 l0 -50 -50 0 -50 0
0 50 0 50 50 0 50 0 0 -50z m-120 0 c0 -5 -13 -10 -30 -10 -16 0 -30 5 -30 10
0 6 14 10 30 10 17 0 30 -4 30 -10z m200 0 c0 -5 -13 -10 -30 -10 -16 0 -30 5
-30 10 0 6 14 10 30 10 17 0 30 -4 30 -10z m-200 -45 c0 -20 5 -25 25 -25 21
0 25 -5 25 -30 0 -16 -3 -30 -7 -30 -20 0 -74 42 -88 69 -20 40 -20 41 15 41
25 0 30 -4 30 -25z m200 18 c0 -20 -42 -74 -69 -88 -40 -20 -41 -20 -41 15 0
25 4 30 25 30 20 0 25 5 25 25 0 21 5 25 30 25 17 0 30 -3 30 -7z m-120 -73
c0 -16 -4 -30 -10 -30 -5 0 -10 14 -10 30 0 17 5 30 10 30 6 0 10 -13 10 -30z"/>
<path d="M732 600 c-18 -11 -41 -34 -52 -52 -71 -117 71 -259 188 -188 42 26
72 76 72 120 0 103 -121 173 -208 120z m48 -20 c0 -25 -4 -30 -25 -30 -20 0
-25 -5 -25 -25 0 -21 -5 -25 -30 -25 -35 0 -35 1 -15 41 14 27 68 69 88 69 4
0 7 -13 7 -30z m30 0 c0 -16 -4 -30 -10 -30 -5 0 -10 14 -10 30 0 17 5 30 10
30 6 0 10 -13 10 -30z m51 15 c27 -14 69 -68 69 -87 0 -5 -13 -8 -30 -8 -25 0
-30 4 -30 25 0 20 -5 25 -25 25 -21 0 -25 5 -25 30 0 35 1 35 41 15z m-11
-115 l0 -50 -50 0 -50 0 0 50 0 50 50 0 50 0 0 -50z m-120 0 c0 -5 -13 -10
-30 -10 -16 0 -30 5 -30 10 0 6 14 10 30 10 17 0 30 -4 30 -10z m200 0 c0 -5
-13 -10 -30 -10 -16 0 -30 5 -30 10 0 6 14 10 30 10 17 0 30 -4 30 -10z m-200
-45 c0 -20 5 -25 25 -25 21 0 25 -5 25 -30 0 -16 -3 -30 -7 -30 -20 0 -74 42
-88 69 -20 40 -20 41 15 41 25 0 30 -4 30 -25z m200 18 c0 -20 -42 -74 -69
-88 -40 -20 -41 -20 -41 15 0 25 4 30 25 30 20 0 25 5 25 25 0 21 5 25 30 25
17 0 30 -3 30 -7z m-120 -73 c0 -16 -4 -30 -10 -30 -5 0 -10 14 -10 30 0 17 5
30 10 30 6 0 10 -13 10 -30z"/>
<path d="M40 595 c0 -3 2 -5 5 -5 3 0 5 2 5 5 0 3 -2 5 -5 5 -3 0 -5 -2 -5 -5z"/>
<path d="M270 595 c0 -3 2 -5 5 -5 3 0 5 2 5 5 0 3 -2 5 -5 5 -3 0 -5 -2 -5
-5z"/>
<path d="M360 595 c0 -3 2 -5 5 -5 3 0 5 2 5 5 0 3 -2 5 -5 5 -3 0 -5 -2 -5
-5z"/>
<path d="M590 595 c0 -3 2 -5 5 -5 3 0 5 2 5 5 0 3 -2 5 -5 5 -3 0 -5 -2 -5
-5z"/>
<path d="M680 595 c0 -3 2 -5 5 -5 3 0 5 2 5 5 0 3 -2 5 -5 5 -3 0 -5 -2 -5
-5z"/>
<path d="M910 595 c0 -3 2 -5 5 -5 3 0 5 2 5 5 0 3 -2 5 -5 5 -3 0 -5 -2 -5
-5z"/>
<path d="M40 365 c0 -3 2 -5 5 -5 3 0 5 2 5 5 0 3 -2 5 -5 5 -3 0 -5 -2 -5 -5z"/>
<path d="M270 365 c0 -3 2 -5 5 -5 3 0 5 2 5 5 0 3 -2 5 -5 5 -3 0 -5 -2 -5
-5z"/>
<path d="M360 365 c0 -3 2 -5 5 -5 3 0 5 2 5 5 0 3 -2 5 -5 5 -3 0 -5 -2 -5
-5z"/>
<path d="M590 365 c0 -3 2 -5 5 -5 3 0 5 2 5 5 0 3 -2 5 -5 5 -3 0 -5 -2 -5
-5z"/>
<path d="M680 365 c0 -3 2 -5 5 -5 3 0 5 2 5 5 0 3 -2 5 -5 5 -3 0 -5 -2 -5
-5z"/>
<path d="M910 365 c0 -3 2 -5 5 -5 3 0 5 2 5 5 0 3 -2 5 -5 5 -3 0 -5 -2 -5
-5z"/>
<path d="M0 320 c0 -7 3 -10 7 -7 3 4 3 10 0 14 -4 3 -7 0 -7 -7z"/>
<path d="M310 320 c0 -5 5 -10 10 -10 6 0 10 5 10 10 0 6 -4 10 -10 10 -5 0
-10 -4 -10 -10z"/>
<path d="M630 320 c0 -5 5 -10 10 -10 6 0 10 5 10 10 0 6 -4 10 -10 10 -5 0
-10 -4 -10 -10z"/>
<path d="M950 320 c0 -7 3 -10 7 -7 3 4 3 10 0 14 -4 3 -7 0 -7 -7z"/>
<path d="M92 280 c-94 -57 -94 -183 0 -240 64 -39 146 -16 188 52 71 117 -71
259 -188 188z m48 -20 c0 -25 -4 -30 -25 -30 -20 0 -25 -5 -25 -25 0 -21 -5
-25 -30 -25 -35 0 -35 1 -15 41 14 27 68 69 88 69 4 0 7 -13 7 -30z m30 0 c0
-16 -4 -30 -10 -30 -5 0 -10 14 -10 30 0 17 5 30 10 30 6 0 10 -13 10 -30z
m51 15 c27 -14 69 -68 69 -87 0 -5 -13 -8 -30 -8 -25 0 -30 4 -30 25 0 20 -5
25 -25 25 -21 0 -25 5 -25 30 0 35 1 35 41 15z m-11 -115 l0 -50 -50 0 -50 0
0 50 0 50 50 0 50 0 0 -50z m-120 0 c0 -5 -13 -10 -30 -10 -16 0 -30 5 -30 10
0 6 14 10 30 10 17 0 30 -4 30 -10z m200 0 c0 -5 -13 -10 -30 -10 -16 0 -30 5
-30 10 0 6 14 10 30 10 17 0 30 -4 30 -10z m-200 -45 c0 -20 5 -25 25 -25 21
0 25 -5 25 -30 0 -16 -3 -30 -7 -30 -20 0 -74 42 -88 69 -20 40 -20 41 15 41
25 0 30 -4 30 -25z m200 18 c0 -20 -42 -74 -69 -88 -40 -20 -41 -20 -41 15 0
25 4 30 25 30 20 0 25 5 25 25 0 21 5 25 30 25 17 0 30 -3 30 -7z m-120 -73
c0 -16 -4 -30 -10 -30 -5 0 -10 14 -10 30 0 17 5 30 10 30 6 0 10 -13 10 -30z"/>
<path d="M412 280 c-94 -57 -94 -183 0 -240 117 -71 259 71 188 188 -42 68
-124 91 -188 52z m48 -20 c0 -25 -4 -30 -25 -30 -20 0 -25 -5 -25 -25 0 -21
-5 -25 -30 -25 -35 0 -35 1 -15 41 14 27 68 69 88 69 4 0 7 -13 7 -30z m30 0
c0 -16 -4 -30 -10 -30 -5 0 -10 14 -10 30 0 17 5 30 10 30 6 0 10 -13 10 -30z
m51 15 c27 -14 69 -68 69 -87 0 -5 -13 -8 -30 -8 -25 0 -30 4 -30 25 0 20 -5
25 -25 25 -21 0 -25 5 -25 30 0 35 1 35 41 15z m-11 -115 l0 -50 -50 0 -50 0
0 50 0 50 50 0 50 0 0 -50z m-120 0 c0 -5 -13 -10 -30 -10 -16 0 -30 5 -30 10
0 6 14 10 30 10 17 0 30 -4 30 -10z m200 0 c0 -5 -13 -10 -30 -10 -16 0 -30 5
-30 10 0 6 14 10 30 10 17 0 30 -4 30 -10z m-200 -45 c0 -20 5 -25 25 -25 21
0 25 -5 25 -30 0 -16 -3 -30 -7 -30 -20 0 -74 42 -88 69 -20 40 -20 41 15 41
25 0 30 -4 30 -25z m200 18 c0 -20 -42 -74 -69 -88 -40 -20 -41 -20 -41 15 0
25 4 30 25 30 20 0 25 5 25 25 0 21 5 25 30 25 17 0 30 -3 30 -7z m-120 -73
c0 -16 -4 -30 -10 -30 -5 0 -10 14 -10 30 0 17 5 30 10 30 6 0 10 -13 10 -30z"/>
<path d="M732 280 c-68 -42 -91 -124 -52 -188 57 -94 183 -94 240 0 39 64 16
146 -52 188 -42 25 -94 25 -136 0z m48 -20 c0 -25 -4 -30 -25 -30 -20 0 -25
-5 -25 -25 0 -21 -5 -25 -30 -25 -35 0 -35 1 -15 41 14 27 68 69 88 69 4 0 7
-13 7 -30z m30 0 c0 -16 -4 -30 -10 -30 -5 0 -10 14 -10 30 0 17 5 30 10 30 6
0 10 -13 10 -30z m51 15 c27 -14 69 -68 69 -87 0 -5 -13 -8 -30 -8 -25 0 -30
4 -30 25 0 20 -5 25 -25 25 -21 0 -25 5 -25 30 0 35 1 35 41 15z m-11 -115 l0
-50 -50 0 -50 0 0 50 0 50 50 0 50 0 0 -50z m-120 0 c0 -5 -13 -10 -30 -10
-16 0 -30 5 -30 10 0 6 14 10 30 10 17 0 30 -4 30 -10z m200 0 c0 -5 -13 -10
-30 -10 -16 0 -30 5 -30 10 0 6 14 10 30 10 17 0 30 -4 30 -10z m-200 -45 c0
-20 5 -25 25 -25 21 0 25 -5 25 -30 0 -16 -3 -30 -7 -30 -20 0 -74 42 -88 69
-20 40 -20 41 15 41 25 0 30 -4 30 -25z m200 18 c0 -20 -42 -74 -69 -88 -40
-20 -41 -20 -41 15 0 25 4 30 25 30 20 0 25 5 25 25 0 21 5 25 30 25 17 0 30
-3 30 -7z m-120 -73 c0 -16 -4 -30 -10 -30 -5 0 -10 14 -10 30 0 17 5 30 10
30 6 0 10 -13 10 -30z"/>
<path d="M40 275 c0 -3 2 -5 5 -5 3 0 5 2 5 5 0 3 -2 5 -5 5 -3 0 -5 -2 -5 -5z"/>
<path d="M270 275 c0 -3 2 -5 5 -5 3 0 5 2 5 5 0 3 -2 5 -5 5 -3 0 -5 -2 -5
-5z"/>
<path d="M360 275 c0 -3 2 -5 5 -5 3 0 5 2 5 5 0 3 -2 5 -5 5 -3 0 -5 -2 -5
-5z"/>
<path d="M590 275 c0 -3 2 -5 5 -5 3 0 5 2 5 5 0 3 -2 5 -5 5 -3 0 -5 -2 -5
-5z"/>
<path d="M680 275 c0 -3 2 -5 5 -5 3 0 5 2 5 5 0 3 -2 5 -5 5 -3 0 -5 -2 -5
-5z"/>
<path d="M910 275 c0 -3 2 -5 5 -5 3 0 5 2 5 5 0 3 -2 5 -5 5 -3 0 -5 -2 -5
-5z"/>
<path d="M40 45 c0 -3 2 -5 5 -5 3 0 5 2 5 5 0 3 -2 5 -5 5 -3 0 -5 -2 -5 -5z"/>
<path d="M270 45 c0 -3 2 -5 5 -5 3 0 5 2 5 5 0 3 -2 5 -5 5 -3 0 -5 -2 -5 -5z"/>
<path d="M360 45 c0 -3 2 -5 5 -5 3 0 5 2 5 5 0 3 -2 5 -5 5 -3 0 -5 -2 -5 -5z"/>
<path d="M590 45 c0 -3 2 -5 5 -5 3 0 5 2 5 5 0 3 -2 5 -5 5 -3 0 -5 -2 -5 -5z"/>
<path d="M680 45 c0 -3 2 -5 5 -5 3 0 5 2 5 5 0 3 -2 5 -5 5 -3 0 -5 -2 -5 -5z"/>
<path d="M910 45 c0 -3 2 -5 5 -5 3 0 5 2 5 5 0 3 -2 5 -5 5 -3 0 -5 -2 -5 -5z"/>
<path d="M0 5 c0 -3 2 -5 5 -5 3 0 5 2 5 5 0 3 -2 5 -5 5 -3 0 -5 -2 -5 -5z"/>
<path d="M313 3 c4 -3 10 -3 14 0 3 4 0 7 -7 7 -7 0 -10 -3 -7 -7z"/>
<path d="M633 3 c4 -3 10 -3 14 0 3 4 0 7 -7 7 -7 0 -10 -3 -7 -7z"/>
<path d="M950 5 c0 -3 2 -5 5 -5 3 0 5 2 5 5 0 3 -2 5 -5 5 -3 0 -5 -2 -5 -5z"/>
</g>
<g transform="translate(0.000000,96.000000) scale(0.100000,-0.100000)"
fill="#6f5a71" stroke="none">
<path d="M0 955 c0 -3 2 -5 5 -5 3 0 5 2 5 5 0 3 -2 5 -5 5 -3 0 -5 -2 -5 -5z"/>
<path d="M313 953 c4 -3 10 -3 14 0 3 4 0 7 -7 7 -7 0 -10 -3 -7 -7z"/>
<path d="M633 953 c4 -3 10 -3 14 0 3 4 0 7 -7 7 -7 0 -10 -3 -7 -7z"/>
<path d="M950 955 c0 -3 2 -5 5 -5 3 0 5 2 5 5 0 3 -2 5 -5 5 -3 0 -5 -2 -5
-5z"/>
<path d="M142 903 c-2 -28 -6 -33 -27 -33 -20 0 -25 -5 -25 -24 0 -20 -6 -25
-32 -29 l-33 -4 33 -1 c17 -1 32 -6 32 -11 0 -6 -15 -12 -32 -14 l-33 -4 33
-1 c27 -2 32 -6 32 -27 0 -20 5 -25 24 -25 20 0 25 -6 29 -32 l4 -33 1 33 c1
17 6 32 11 32 6 0 12 -15 14 -32 l4 -33 1 33 c2 27 6 32 27 32 20 0 25 5 25
24 0 20 6 25 33 29 l32 4 -32 1 c-18 1 -33 6 -33 11 0 6 15 12 33 14 l32 4
-32 1 c-28 2 -33 6 -33 27 0 20 -5 25 -24 25 -20 0 -25 6 -29 33 l-4 32 -1
-32 c-1 -18 -6 -33 -11 -33 -6 0 -12 15 -14 33 l-4 32 -1 -32z m68 -103 l0
-50 -50 0 -50 0 0 50 0 50 50 0 50 0 0 -50z"/>
<path d="M462 903 c-2 -28 -6 -33 -27 -33 -20 0 -25 -5 -25 -24 0 -20 -6 -25
-32 -29 l-33 -4 33 -1 c17 -1 32 -6 32 -11 0 -6 -15 -12 -32 -14 l-33 -4 33
-1 c27 -2 32 -6 32 -27 0 -20 5 -25 24 -25 20 0 25 -6 29 -32 l4 -33 1 33 c1
17 6 32 11 32 6 0 12 -15 14 -32 l4 -33 1 33 c2 27 6 32 27 32 20 0 25 5 25
24 0 20 6 25 33 29 l32 4 -32 1 c-18 1 -33 6 -33 11 0 6 15 12 33 14 l32 4
-32 1 c-28 2 -33 6 -33 27 0 20 -5 25 -24 25 -20 0 -25 6 -29 33 l-4 32 -1
-32 c-1 -18 -6 -33 -11 -33 -6 0 -12 15 -14 33 l-4 32 -1 -32z m68 -103 l0
-50 -50 0 -50 0 0 50 0 50 50 0 50 0 0 -50z"/>
<path d="M782 903 c-2 -28 -6 -33 -27 -33 -20 0 -25 -5 -25 -24 0 -20 -6 -25
-32 -29 l-33 -4 33 -1 c17 -1 32 -6 32 -11 0 -6 -15 -12 -32 -14 l-33 -4 33
-1 c27 -2 32 -6 32 -27 0 -20 5 -25 24 -25 20 0 25 -6 29 -32 l4 -33 1 33 c1
17 6 32 11 32 6 0 12 -15 14 -32 l4 -33 1 33 c2 27 6 32 27 32 20 0 25 5 25
24 0 20 6 25 33 29 l32 4 -32 1 c-18 1 -33 6 -33 11 0 6 15 12 33 14 l32 4
-32 1 c-28 2 -33 6 -33 27 0 20 -5 25 -24 25 -20 0 -25 6 -29 33 l-4 32 -1
-32 c-1 -18 -6 -33 -11 -33 -6 0 -12 15 -14 33 l-4 32 -1 -32z m68 -103 l0
-50 -50 0 -50 0 0 50 0 50 50 0 50 0 0 -50z"/>
<path d="M40 915 c0 -3 2 -5 5 -5 3 0 5 2 5 5 0 3 -2 5 -5 5 -3 0 -5 -2 -5 -5z"/>
<path d="M270 915 c0 -3 2 -5 5 -5 3 0 5 2 5 5 0 3 -2 5 -5 5 -3 0 -5 -2 -5
-5z"/>
<path d="M360 915 c0 -3 2 -5 5 -5 3 0 5 2 5 5 0 3 -2 5 -5 5 -3 0 -5 -2 -5
-5z"/>
<path d="M590 915 c0 -3 2 -5 5 -5 3 0 5 2 5 5 0 3 -2 5 -5 5 -3 0 -5 -2 -5
-5z"/>
<path d="M680 915 c0 -3 2 -5 5 -5 3 0 5 2 5 5 0 3 -2 5 -5 5 -3 0 -5 -2 -5
-5z"/>
<path d="M910 915 c0 -3 2 -5 5 -5 3 0 5 2 5 5 0 3 -2 5 -5 5 -3 0 -5 -2 -5
-5z"/>
<path d="M40 685 c0 -3 2 -5 5 -5 3 0 5 2 5 5 0 3 -2 5 -5 5 -3 0 -5 -2 -5 -5z"/>
<path d="M270 685 c0 -3 2 -5 5 -5 3 0 5 2 5 5 0 3 -2 5 -5 5 -3 0 -5 -2 -5
-5z"/>
<path d="M360 685 c0 -3 2 -5 5 -5 3 0 5 2 5 5 0 3 -2 5 -5 5 -3 0 -5 -2 -5
-5z"/>
<path d="M590 685 c0 -3 2 -5 5 -5 3 0 5 2 5 5 0 3 -2 5 -5 5 -3 0 -5 -2 -5
-5z"/>
<path d="M680 685 c0 -3 2 -5 5 -5 3 0 5 2 5 5 0 3 -2 5 -5 5 -3 0 -5 -2 -5
-5z"/>
<path d="M910 685 c0 -3 2 -5 5 -5 3 0 5 2 5 5 0 3 -2 5 -5 5 -3 0 -5 -2 -5
-5z"/>
<path d="M0 640 c0 -7 3 -10 7 -7 3 4 3 10 0 14 -4 3 -7 0 -7 -7z"/>
<path d="M310 640 c0 -5 5 -10 10 -10 6 0 10 5 10 10 0 6 -4 10 -10 10 -5 0
-10 -4 -10 -10z"/>
<path d="M630 640 c0 -5 5 -10 10 -10 6 0 10 5 10 10 0 6 -4 10 -10 10 -5 0
-10 -4 -10 -10z"/>
<path d="M950 640 c0 -7 3 -10 7 -7 3 4 3 10 0 14 -4 3 -7 0 -7 -7z"/>
<path d="M142 583 c-2 -28 -6 -33 -27 -33 -20 0 -25 -5 -25 -24 0 -20 -6 -25
-32 -29 l-33 -4 33 -1 c17 -1 32 -6 32 -11 0 -6 -15 -12 -32 -14 l-33 -4 33
-1 c27 -2 32 -6 32 -27 0 -20 5 -25 24 -25 20 0 25 -6 29 -32 l4 -33 1 33 c1
17 6 32 11 32 6 0 12 -15 14 -32 l4 -33 1 33 c2 27 6 32 27 32 20 0 25 5 25
24 0 20 6 25 33 29 l32 4 -32 1 c-18 1 -33 6 -33 11 0 6 15 12 33 14 l32 4
-32 1 c-28 2 -33 6 -33 27 0 20 -5 25 -24 25 -20 0 -25 6 -29 33 l-4 32 -1
-32 c-1 -18 -6 -33 -11 -33 -6 0 -12 15 -14 33 l-4 32 -1 -32z m68 -103 l0
-50 -50 0 -50 0 0 50 0 50 50 0 50 0 0 -50z"/>
<path d="M462 583 c-2 -28 -6 -33 -27 -33 -20 0 -25 -5 -25 -24 0 -20 -6 -25
-32 -29 l-33 -4 33 -1 c17 -1 32 -6 32 -11 0 -6 -15 -12 -32 -14 l-33 -4 33
-1 c27 -2 32 -6 32 -27 0 -20 5 -25 24 -25 20 0 25 -6 29 -32 l4 -33 1 33 c1
17 6 32 11 32 6 0 12 -15 14 -32 l4 -33 1 33 c2 27 6 32 27 32 20 0 25 5 25
24 0 20 6 25 33 29 l32 4 -32 1 c-18 1 -33 6 -33 11 0 6 15 12 33 14 l32 4
-32 1 c-28 2 -33 6 -33 27 0 20 -5 25 -24 25 -20 0 -25 6 -29 33 l-4 32 -1
-32 c-1 -18 -6 -33 -11 -33 -6 0 -12 15 -14 33 l-4 32 -1 -32z m68 -103 l0
-50 -50 0 -50 0 0 50 0 50 50 0 50 0 0 -50z"/>
<path d="M782 583 c-2 -28 -6 -33 -27 -33 -20 0 -25 -5 -25 -24 0 -20 -6 -25
-32 -29 l-33 -4 33 -1 c17 -1 32 -6 32 -11 0 -6 -15 -12 -32 -14 l-33 -4 33
-1 c27 -2 32 -6 32 -27 0 -20 5 -25 24 -25 20 0 25 -6 29 -32 l4 -33 1 33 c1
17 6 32 11 32 6 0 12 -15 14 -32 l4 -33 1 33 c2 27 6 32 27 32 20 0 25 5 25
24 0 20 6 25 33 29 l32 4 -32 1 c-18 1 -33 6 -33 11 0 6 15 12 33 14 l32 4
-32 1 c-28 2 -33 6 -33 27 0 20 -5 25 -24 25 -20 0 -25 6 -29 33 l-4 32 -1
-32 c-1 -18 -6 -33 -11 -33 -6 0 -12 15 -14 33 l-4 32 -1 -32z m68 -103 l0
-50 -50 0 -50 0 0 50 0 50 50 0 50 0 0 -50z"/>
<path d="M40 595 c0 -3 2 -5 5 -5 3 0 5 2 5 5 0 3 -2 5 -5 5 -3 0 -5 -2 -5 -5z"/>
<path d="M270 595 c0 -3 2 -5 5 -5 3 0 5 2 5 5 0 3 -2 5 -5 5 -3 0 -5 -2 -5
-5z"/>
<path d="M360 595 c0 -3 2 -5 5 -5 3 0 5 2 5 5 0 3 -2 5 -5 5 -3 0 -5 -2 -5
-5z"/>
<path d="M590 595 c0 -3 2 -5 5 -5 3 0 5 2 5 5 0 3 -2 5 -5 5 -3 0 -5 -2 -5
-5z"/>
<path d="M680 595 c0 -3 2 -5 5 -5 3 0 5 2 5 5 0 3 -2 5 -5 5 -3 0 -5 -2 -5
-5z"/>
<path d="M910 595 c0 -3 2 -5 5 -5 3 0 5 2 5 5 0 3 -2 5 -5 5 -3 0 -5 -2 -5
-5z"/>
<path d="M40 365 c0 -3 2 -5 5 -5 3 0 5 2 5 5 0 3 -2 5 -5 5 -3 0 -5 -2 -5 -5z"/>
<path d="M270 365 c0 -3 2 -5 5 -5 3 0 5 2 5 5 0 3 -2 5 -5 5 -3 0 -5 -2 -5
-5z"/>
<path d="M360 365 c0 -3 2 -5 5 -5 3 0 5 2 5 5 0 3 -2 5 -5 5 -3 0 -5 -2 -5
-5z"/>
<path d="M590 365 c0 -3 2 -5 5 -5 3 0 5 2 5 5 0 3 -2 5 -5 5 -3 0 -5 -2 -5
-5z"/>
<path d="M680 365 c0 -3 2 -5 5 -5 3 0 5 2 5 5 0 3 -2 5 -5 5 -3 0 -5 -2 -5
-5z"/>
<path d="M910 365 c0 -3 2 -5 5 -5 3 0 5 2 5 5 0 3 -2 5 -5 5 -3 0 -5 -2 -5
-5z"/>
<path d="M0 320 c0 -7 3 -10 7 -7 3 4 3 10 0 14 -4 3 -7 0 -7 -7z"/>
<path d="M310 320 c0 -5 5 -10 10 -10 6 0 10 5 10 10 0 6 -4 10 -10 10 -5 0
-10 -4 -10 -10z"/>
<path d="M630 320 c0 -5 5 -10 10 -10 6 0 10 5 10 10 0 6 -4 10 -10 10 -5 0
-10 -4 -10 -10z"/>
<path d="M950 320 c0 -7 3 -10 7 -7 3 4 3 10 0 14 -4 3 -7 0 -7 -7z"/>
<path d="M142 263 c-2 -28 -6 -33 -27 -33 -20 0 -25 -5 -25 -24 0 -20 -6 -25
-32 -29 l-33 -4 33 -1 c17 -1 32 -6 32 -11 0 -6 -15 -12 -32 -14 l-33 -4 33
-1 c27 -2 32 -6 32 -27 0 -20 5 -25 24 -25 20 0 25 -6 29 -32 l4 -33 1 33 c1
17 6 32 11 32 6 0 12 -15 14 -32 l4 -33 1 33 c2 27 6 32 27 32 20 0 25 5 25
24 0 20 6 25 33 29 l32 4 -32 1 c-43 2 -43 20 0 25 l32 4 -32 1 c-28 2 -33 6
-33 27 0 20 -5 25 -24 25 -20 0 -25 6 -29 33 l-4 32 -1 -32 c-1 -18 -6 -33
-11 -33 -6 0 -12 15 -14 33 l-4 32 -1 -32z m68 -103 l0 -50 -50 0 -50 0 0 50
0 50 50 0 50 0 0 -50z"/>
<path d="M462 263 c-2 -28 -6 -33 -27 -33 -20 0 -25 -5 -25 -24 0 -20 -6 -25
-32 -29 l-33 -4 33 -1 c17 -1 32 -6 32 -11 0 -6 -15 -12 -32 -14 l-33 -4 33
-1 c27 -2 32 -6 32 -27 0 -20 5 -25 24 -25 20 0 25 -6 29 -32 l4 -33 1 33 c1
17 6 32 11 32 6 0 12 -15 14 -32 l4 -33 1 33 c2 27 6 32 27 32 20 0 25 5 25
24 0 20 6 25 33 29 l32 4 -32 1 c-18 1 -33 6 -33 11 0 6 15 12 33 14 l32 4
-32 1 c-28 2 -33 6 -33 27 0 20 -5 25 -24 25 -20 0 -25 6 -29 33 l-4 32 -1
-32 c-1 -18 -6 -33 -11 -33 -6 0 -12 15 -14 33 l-4 32 -1 -32z m68 -103 l0
-50 -50 0 -50 0 0 50 0 50 50 0 50 0 0 -50z"/>
<path d="M782 263 c-2 -28 -6 -33 -27 -33 -20 0 -25 -5 -25 -24 0 -20 -6 -25
-32 -29 l-33 -4 33 -1 c17 -1 32 -6 32 -11 0 -6 -15 -12 -32 -14 l-33 -4 33
-1 c27 -2 32 -6 32 -27 0 -20 5 -25 24 -25 20 0 25 -6 29 -32 l4 -33 1 33 c1
17 6 32 11 32 6 0 12 -15 14 -32 l4 -33 1 33 c2 27 6 32 27 32 20 0 25 5 25
24 0 20 6 25 33 29 l32 4 -32 1 c-18 1 -33 6 -33 11 0 6 15 12 33 14 l32 4
-32 1 c-28 2 -33 6 -33 27 0 20 -5 25 -24 25 -20 0 -25 6 -29 33 l-4 32 -1
-32 c-1 -18 -6 -33 -11 -33 -6 0 -12 15 -14 33 l-4 32 -1 -32z m68 -103 l0
-50 -50 0 -50 0 0 50 0 50 50 0 50 0 0 -50z"/>
<path d="M40 275 c0 -3 2 -5 5 -5 3 0 5 2 5 5 0 3 -2 5 -5 5 -3 0 -5 -2 -5 -5z"/>
<path d="M270 275 c0 -3 2 -5 5 -5 3 0 5 2 5 5 0 3 -2 5 -5 5 -3 0 -5 -2 -5
-5z"/>
<path d="M360 275 c0 -3 2 -5 5 -5 3 0 5 2 5 5 0 3 -2 5 -5 5 -3 0 -5 -2 -5
-5z"/>
<path d="M590 275 c0 -3 2 -5 5 -5 3 0 5 2 5 5 0 3 -2 5 -5 5 -3 0 -5 -2 -5
-5z"/>
<path d="M680 275 c0 -3 2 -5 5 -5 3 0 5 2 5 5 0 3 -2 5 -5 5 -3 0 -5 -2 -5
-5z"/>
<path d="M910 275 c0 -3 2 -5 5 -5 3 0 5 2 5 5 0 3 -2 5 -5 5 -3 0 -5 -2 -5
-5z"/>
<path d="M40 45 c0 -3 2 -5 5 -5 3 0 5 2 5 5 0 3 -2 5 -5 5 -3 0 -5 -2 -5 -5z"/>
<path d="M270 45 c0 -3 2 -5 5 -5 3 0 5 2 5 5 0 3 -2 5 -5 5 -3 0 -5 -2 -5 -5z"/>
<path d="M360 45 c0 -3 2 -5 5 -5 3 0 5 2 5 5 0 3 -2 5 -5 5 -3 0 -5 -2 -5 -5z"/>
<path d="M590 45 c0 -3 2 -5 5 -5 3 0 5 2 5 5 0 3 -2 5 -5 5 -3 0 -5 -2 -5 -5z"/>
<path d="M680 45 c0 -3 2 -5 5 -5 3 0 5 2 5 5 0 3 -2 5 -5 5 -3 0 -5 -2 -5 -5z"/>
<path d="M910 45 c0 -3 2 -5 5 -5 3 0 5 2 5 5 0 3 -2 5 -5 5 -3 0 -5 -2 -5 -5z"/>
<path d="M0 5 c0 -3 2 -5 5 -5 3 0 5 2 5 5 0 3 -2 5 -5 5 -3 0 -5 -2 -5 -5z"/>
<path d="M313 3 c4 -3 10 -3 14 0 3 4 0 7 -7 7 -7 0 -10 -3 -7 -7z"/>
<path d="M633 3 c4 -3 10 -3 14 0 3 4 0 7 -7 7 -7 0 -10 -3 -7 -7z"/>
<path d="M950 5 c0 -3 2 -5 5 -5 3 0 5 2 5 5 0 3 -2 5 -5 5 -3 0 -5 -2 -5 -5z"/>
</g>
<g transform="translate(0.000000,96.000000) scale(0.100000,-0.100000)"
fill="#151316" stroke="none">
<path d="M0 955 c0 -3 2 -5 5 -5 3 0 5 2 5 5 0 3 -2 5 -5 5 -3 0 -5 -2 -5 -5z"/>
<path d="M313 953 c4 -3 10 -3 14 0 3 4 0 7 -7 7 -7 0 -10 -3 -7 -7z"/>
<path d="M633 953 c4 -3 10 -3 14 0 3 4 0 7 -7 7 -7 0 -10 -3 -7 -7z"/>
<path d="M950 955 c0 -3 2 -5 5 -5 3 0 5 2 5 5 0 3 -2 5 -5 5 -3 0 -5 -2 -5
-5z"/>
<path d="M142 900 c0 -19 2 -27 5 -17 2 9 2 25 0 35 -3 9 -5 1 -5 -18z"/>
<path d="M172 900 c0 -19 2 -27 5 -17 2 9 2 25 0 35 -3 9 -5 1 -5 -18z"/>
<path d="M462 900 c0 -19 2 -27 5 -17 2 9 2 25 0 35 -3 9 -5 1 -5 -18z"/>
<path d="M492 900 c0 -19 2 -27 5 -17 2 9 2 25 0 35 -3 9 -5 1 -5 -18z"/>
<path d="M782 900 c0 -19 2 -27 5 -17 2 9 2 25 0 35 -3 9 -5 1 -5 -18z"/>
<path d="M812 900 c0 -19 2 -27 5 -17 2 9 2 25 0 35 -3 9 -5 1 -5 -18z"/>
<path d="M40 915 c0 -3 2 -5 5 -5 3 0 5 2 5 5 0 3 -2 5 -5 5 -3 0 -5 -2 -5 -5z"/>
<path d="M270 915 c0 -3 2 -5 5 -5 3 0 5 2 5 5 0 3 -2 5 -5 5 -3 0 -5 -2 -5
-5z"/>
<path d="M360 915 c0 -3 2 -5 5 -5 3 0 5 2 5 5 0 3 -2 5 -5 5 -3 0 -5 -2 -5
-5z"/>
<path d="M590 915 c0 -3 2 -5 5 -5 3 0 5 2 5 5 0 3 -2 5 -5 5 -3 0 -5 -2 -5
-5z"/>
<path d="M680 915 c0 -3 2 -5 5 -5 3 0 5 2 5 5 0 3 -2 5 -5 5 -3 0 -5 -2 -5
-5z"/>
<path d="M910 915 c0 -3 2 -5 5 -5 3 0 5 2 5 5 0 3 -2 5 -5 5 -3 0 -5 -2 -5
-5z"/>
<path d="M100 800 l0 -60 60 0 60 0 0 60 0 60 -60 0 -60 0 0 -60z m110 0 l0
-50 -50 0 -50 0 0 50 0 50 50 0 50 0 0 -50z"/>
<path d="M420 800 l0 -60 60 0 60 0 0 60 0 60 -60 0 -60 0 0 -60z m110 0 l0
-50 -50 0 -50 0 0 50 0 50 50 0 50 0 0 -50z"/>
<path d="M740 800 l0 -60 60 0 60 0 0 60 0 60 -60 0 -60 0 0 -60z m110 0 l0
-50 -50 0 -50 0 0 50 0 50 50 0 50 0 0 -50z"/>
<path d="M43 813 c9 -2 25 -2 35 0 9 3 1 5 -18 5 -19 0 -27 -2 -17 -5z"/>
<path d="M243 813 c9 -2 25 -2 35 0 9 3 1 5 -18 5 -19 0 -27 -2 -17 -5z"/>
<path d="M363 813 c9 -2 25 -2 35 0 9 3 1 5 -18 5 -19 0 -27 -2 -17 -5z"/>
<path d="M563 813 c9 -2 25 -2 35 0 9 3 1 5 -18 5 -19 0 -27 -2 -17 -5z"/>
<path d="M683 813 c9 -2 25 -2 35 0 9 3 1 5 -18 5 -19 0 -27 -2 -17 -5z"/>
<path d="M883 813 c9 -2 25 -2 35 0 9 3 1 5 -18 5 -19 0 -27 -2 -17 -5z"/>
<path d="M43 783 c9 -2 25 -2 35 0 9 3 1 5 -18 5 -19 0 -27 -2 -17 -5z"/>
<path d="M243 783 c9 -2 25 -2 35 0 9 3 1 5 -18 5 -19 0 -27 -2 -17 -5z"/>
<path d="M363 783 c9 -2 25 -2 35 0 9 3 1 5 -18 5 -19 0 -27 -2 -17 -5z"/>
<path d="M563 783 c9 -2 25 -2 35 0 9 3 1 5 -18 5 -19 0 -27 -2 -17 -5z"/>
<path d="M683 783 c9 -2 25 -2 35 0 9 3 1 5 -18 5 -19 0 -27 -2 -17 -5z"/>
<path d="M883 783 c9 -2 25 -2 35 0 9 3 1 5 -18 5 -19 0 -27 -2 -17 -5z"/>
<path d="M142 700 c0 -19 2 -27 5 -17 2 9 2 25 0 35 -3 9 -5 1 -5 -18z"/>
<path d="M172 700 c0 -19 2 -27 5 -17 2 9 2 25 0 35 -3 9 -5 1 -5 -18z"/>
<path d="M462 700 c0 -19 2 -27 5 -17 2 9 2 25 0 35 -3 9 -5 1 -5 -18z"/>
<path d="M492 700 c0 -19 2 -27 5 -17 2 9 2 25 0 35 -3 9 -5 1 -5 -18z"/>
<path d="M782 700 c0 -19 2 -27 5 -17 2 9 2 25 0 35 -3 9 -5 1 -5 -18z"/>
<path d="M812 700 c0 -19 2 -27 5 -17 2 9 2 25 0 35 -3 9 -5 1 -5 -18z"/>
<path d="M40 685 c0 -3 2 -5 5 -5 3 0 5 2 5 5 0 3 -2 5 -5 5 -3 0 -5 -2 -5 -5z"/>
<path d="M270 685 c0 -3 2 -5 5 -5 3 0 5 2 5 5 0 3 -2 5 -5 5 -3 0 -5 -2 -5
-5z"/>
<path d="M360 685 c0 -3 2 -5 5 -5 3 0 5 2 5 5 0 3 -2 5 -5 5 -3 0 -5 -2 -5
-5z"/>
<path d="M590 685 c0 -3 2 -5 5 -5 3 0 5 2 5 5 0 3 -2 5 -5 5 -3 0 -5 -2 -5
-5z"/>
<path d="M680 685 c0 -3 2 -5 5 -5 3 0 5 2 5 5 0 3 -2 5 -5 5 -3 0 -5 -2 -5
-5z"/>
<path d="M910 685 c0 -3 2 -5 5 -5 3 0 5 2 5 5 0 3 -2 5 -5 5 -3 0 -5 -2 -5
-5z"/>
<path d="M0 640 c0 -7 3 -10 7 -7 3 4 3 10 0 14 -4 3 -7 0 -7 -7z"/>
<path d="M310 640 c0 -5 5 -10 10 -10 6 0 10 5 10 10 0 6 -4 10 -10 10 -5 0
-10 -4 -10 -10z"/>
<path d="M630 640 c0 -5 5 -10 10 -10 6 0 10 5 10 10 0 6 -4 10 -10 10 -5 0
-10 -4 -10 -10z"/>
<path d="M950 640 c0 -7 3 -10 7 -7 3 4 3 10 0 14 -4 3 -7 0 -7 -7z"/>
<path d="M142 580 c0 -19 2 -27 5 -17 2 9 2 25 0 35 -3 9 -5 1 -5 -18z"/>
<path d="M172 580 c0 -19 2 -27 5 -17 2 9 2 25 0 35 -3 9 -5 1 -5 -18z"/>
<path d="M462 580 c0 -19 2 -27 5 -17 2 9 2 25 0 35 -3 9 -5 1 -5 -18z"/>
<path d="M492 580 c0 -19 2 -27 5 -17 2 9 2 25 0 35 -3 9 -5 1 -5 -18z"/>
<path d="M782 580 c0 -19 2 -27 5 -17 2 9 2 25 0 35 -3 9 -5 1 -5 -18z"/>
<path d="M812 580 c0 -19 2 -27 5 -17 2 9 2 25 0 35 -3 9 -5 1 -5 -18z"/>
<path d="M40 595 c0 -3 2 -5 5 -5 3 0 5 2 5 5 0 3 -2 5 -5 5 -3 0 -5 -2 -5 -5z"/>
<path d="M270 595 c0 -3 2 -5 5 -5 3 0 5 2 5 5 0 3 -2 5 -5 5 -3 0 -5 -2 -5
-5z"/>
<path d="M360 595 c0 -3 2 -5 5 -5 3 0 5 2 5 5 0 3 -2 5 -5 5 -3 0 -5 -2 -5
-5z"/>
<path d="M590 595 c0 -3 2 -5 5 -5 3 0 5 2 5 5 0 3 -2 5 -5 5 -3 0 -5 -2 -5
-5z"/>
<path d="M680 595 c0 -3 2 -5 5 -5 3 0 5 2 5 5 0 3 -2 5 -5 5 -3 0 -5 -2 -5
-5z"/>
<path d="M910 595 c0 -3 2 -5 5 -5 3 0 5 2 5 5 0 3 -2 5 -5 5 -3 0 -5 -2 -5
-5z"/>
<path d="M100 480 l0 -60 60 0 60 0 0 60 0 60 -60 0 -60 0 0 -60z m110 0 l0
-50 -50 0 -50 0 0 50 0 50 50 0 50 0 0 -50z"/>
<path d="M420 480 l0 -60 60 0 60 0 0 60 0 60 -60 0 -60 0 0 -60z m110 0 l0
-50 -50 0 -50 0 0 50 0 50 50 0 50 0 0 -50z"/>
<path d="M740 480 l0 -60 60 0 60 0 0 60 0 60 -60 0 -60 0 0 -60z m110 0 l0
-50 -50 0 -50 0 0 50 0 50 50 0 50 0 0 -50z"/>
<path d="M43 493 c9 -2 25 -2 35 0 9 3 1 5 -18 5 -19 0 -27 -2 -17 -5z"/>
<path d="M243 493 c9 -2 25 -2 35 0 9 3 1 5 -18 5 -19 0 -27 -2 -17 -5z"/>
<path d="M363 493 c9 -2 25 -2 35 0 9 3 1 5 -18 5 -19 0 -27 -2 -17 -5z"/>
<path d="M563 493 c9 -2 25 -2 35 0 9 3 1 5 -18 5 -19 0 -27 -2 -17 -5z"/>
<path d="M683 493 c9 -2 25 -2 35 0 9 3 1 5 -18 5 -19 0 -27 -2 -17 -5z"/>
<path d="M883 493 c9 -2 25 -2 35 0 9 3 1 5 -18 5 -19 0 -27 -2 -17 -5z"/>
<path d="M43 463 c9 -2 25 -2 35 0 9 3 1 5 -18 5 -19 0 -27 -2 -17 -5z"/>
<path d="M243 463 c9 -2 25 -2 35 0 9 3 1 5 -18 5 -19 0 -27 -2 -17 -5z"/>
<path d="M363 463 c9 -2 25 -2 35 0 9 3 1 5 -18 5 -19 0 -27 -2 -17 -5z"/>
<path d="M563 463 c9 -2 25 -2 35 0 9 3 1 5 -18 5 -19 0 -27 -2 -17 -5z"/>
<path d="M683 463 c9 -2 25 -2 35 0 9 3 1 5 -18 5 -19 0 -27 -2 -17 -5z"/>
<path d="M883 463 c9 -2 25 -2 35 0 9 3 1 5 -18 5 -19 0 -27 -2 -17 -5z"/>
<path d="M142 380 c0 -19 2 -27 5 -17 2 9 2 25 0 35 -3 9 -5 1 -5 -18z"/>
<path d="M172 380 c0 -19 2 -27 5 -17 2 9 2 25 0 35 -3 9 -5 1 -5 -18z"/>
<path d="M462 380 c0 -19 2 -27 5 -17 2 9 2 25 0 35 -3 9 -5 1 -5 -18z"/>
<path d="M492 380 c0 -19 2 -27 5 -17 2 9 2 25 0 35 -3 9 -5 1 -5 -18z"/>
<path d="M782 380 c0 -19 2 -27 5 -17 2 9 2 25 0 35 -3 9 -5 1 -5 -18z"/>
<path d="M812 380 c0 -19 2 -27 5 -17 2 9 2 25 0 35 -3 9 -5 1 -5 -18z"/>
<path d="M40 365 c0 -3 2 -5 5 -5 3 0 5 2 5 5 0 3 -2 5 -5 5 -3 0 -5 -2 -5 -5z"/>
<path d="M270 365 c0 -3 2 -5 5 -5 3 0 5 2 5 5 0 3 -2 5 -5 5 -3 0 -5 -2 -5
-5z"/>
<path d="M360 365 c0 -3 2 -5 5 -5 3 0 5 2 5 5 0 3 -2 5 -5 5 -3 0 -5 -2 -5
-5z"/>
<path d="M590 365 c0 -3 2 -5 5 -5 3 0 5 2 5 5 0 3 -2 5 -5 5 -3 0 -5 -2 -5
-5z"/>
<path d="M680 365 c0 -3 2 -5 5 -5 3 0 5 2 5 5 0 3 -2 5 -5 5 -3 0 -5 -2 -5
-5z"/>
<path d="M910 365 c0 -3 2 -5 5 -5 3 0 5 2 5 5 0 3 -2 5 -5 5 -3 0 -5 -2 -5
-5z"/>
<path d="M0 320 c0 -7 3 -10 7 -7 3 4 3 10 0 14 -4 3 -7 0 -7 -7z"/>
<path d="M310 320 c0 -5 5 -10 10 -10 6 0 10 5 10 10 0 6 -4 10 -10 10 -5 0
-10 -4 -10 -10z"/>
<path d="M630 320 c0 -5 5 -10 10 -10 6 0 10 5 10 10 0 6 -4 10 -10 10 -5 0
-10 -4 -10 -10z"/>
<path d="M950 320 c0 -7 3 -10 7 -7 3 4 3 10 0 14 -4 3 -7 0 -7 -7z"/>
<path d="M142 260 c0 -19 2 -27 5 -17 2 9 2 25 0 35 -3 9 -5 1 -5 -18z"/>
<path d="M172 260 c0 -19 2 -27 5 -17 2 9 2 25 0 35 -3 9 -5 1 -5 -18z"/>
<path d="M462 260 c0 -19 2 -27 5 -17 2 9 2 25 0 35 -3 9 -5 1 -5 -18z"/>
<path d="M492 260 c0 -19 2 -27 5 -17 2 9 2 25 0 35 -3 9 -5 1 -5 -18z"/>
<path d="M782 260 c0 -19 2 -27 5 -17 2 9 2 25 0 35 -3 9 -5 1 -5 -18z"/>
<path d="M812 260 c0 -19 2 -27 5 -17 2 9 2 25 0 35 -3 9 -5 1 -5 -18z"/>
<path d="M40 275 c0 -3 2 -5 5 -5 3 0 5 2 5 5 0 3 -2 5 -5 5 -3 0 -5 -2 -5 -5z"/>
<path d="M270 275 c0 -3 2 -5 5 -5 3 0 5 2 5 5 0 3 -2 5 -5 5 -3 0 -5 -2 -5
-5z"/>
<path d="M360 275 c0 -3 2 -5 5 -5 3 0 5 2 5 5 0 3 -2 5 -5 5 -3 0 -5 -2 -5
-5z"/>
<path d="M590 275 c0 -3 2 -5 5 -5 3 0 5 2 5 5 0 3 -2 5 -5 5 -3 0 -5 -2 -5
-5z"/>
<path d="M680 275 c0 -3 2 -5 5 -5 3 0 5 2 5 5 0 3 -2 5 -5 5 -3 0 -5 -2 -5
-5z"/>
<path d="M910 275 c0 -3 2 -5 5 -5 3 0 5 2 5 5 0 3 -2 5 -5 5 -3 0 -5 -2 -5
-5z"/>
<path d="M100 160 l0 -60 60 0 60 0 0 60 0 60 -60 0 -60 0 0 -60z m110 0 l0
-50 -50 0 -50 0 0 50 0 50 50 0 50 0 0 -50z"/>
<path d="M420 160 l0 -60 60 0 60 0 0 60 0 60 -60 0 -60 0 0 -60z m110 0 l0
-50 -50 0 -50 0 0 50 0 50 50 0 50 0 0 -50z"/>
<path d="M740 160 l0 -60 60 0 60 0 0 60 0 60 -60 0 -60 0 0 -60z m110 0 l0
-50 -50 0 -50 0 0 50 0 50 50 0 50 0 0 -50z"/>
<path d="M43 173 c9 -2 25 -2 35 0 9 3 1 5 -18 5 -19 0 -27 -2 -17 -5z"/>
<path d="M243 173 c9 -2 25 -2 35 0 9 3 1 5 -18 5 -19 0 -27 -2 -17 -5z"/>
<path d="M363 173 c9 -2 25 -2 35 0 9 3 1 5 -18 5 -19 0 -27 -2 -17 -5z"/>
<path d="M563 173 c9 -2 25 -2 35 0 9 3 1 5 -18 5 -19 0 -27 -2 -17 -5z"/>
<path d="M683 173 c9 -2 25 -2 35 0 9 3 1 5 -18 5 -19 0 -27 -2 -17 -5z"/>
<path d="M883 173 c9 -2 25 -2 35 0 9 3 1 5 -18 5 -19 0 -27 -2 -17 -5z"/>
<path d="M43 143 c9 -2 25 -2 35 0 9 3 1 5 -18 5 -19 0 -27 -2 -17 -5z"/>
<path d="M243 143 c9 -2 25 -2 35 0 9 3 1 5 -18 5 -19 0 -27 -2 -17 -5z"/>
<path d="M363 143 c9 -2 25 -2 35 0 9 3 1 5 -18 5 -19 0 -27 -2 -17 -5z"/>
<path d="M563 143 c9 -2 25 -2 35 0 9 3 1 5 -18 5 -19 0 -27 -2 -17 -5z"/>
<path d="M683 143 c9 -2 25 -2 35 0 9 3 1 5 -18 5 -19 0 -27 -2 -17 -5z"/>
<path d="M883 143 c9 -2 25 -2 35 0 9 3 1 5 -18 5 -19 0 -27 -2 -17 -5z"/>
<path d="M142 60 c0 -19 2 -27 5 -17 2 9 2 25 0 35 -3 9 -5 1 -5 -18z"/>
<path d="M172 60 c0 -19 2 -27 5 -17 2 9 2 25 0 35 -3 9 -5 1 -5 -18z"/>
<path d="M462 60 c0 -19 2 -27 5 -17 2 9 2 25 0 35 -3 9 -5 1 -5 -18z"/>
<path d="M492 60 c0 -19 2 -27 5 -17 2 9 2 25 0 35 -3 9 -5 1 -5 -18z"/>
<path d="M782 60 c0 -19 2 -27 5 -17 2 9 2 25 0 35 -3 9 -5 1 -5 -18z"/>
<path d="M812 60 c0 -19 2 -27 5 -17 2 9 2 25 0 35 -3 9 -5 1 -5 -18z"/>
<path d="M40 45 c0 -3 2 -5 5 -5 3 0 5 2 5 5 0 3 -2 5 -5 5 -3 0 -5 -2 -5 -5z"/>
<path d="M270 45 c0 -3 2 -5 5 -5 3 0 5 2 5 5 0 3 -2 5 -5 5 -3 0 -5 -2 -5 -5z"/>
<path d="M360 45 c0 -3 2 -5 5 -5 3 0 5 2 5 5 0 3 -2 5 -5 5 -3 0 -5 -2 -5 -5z"/>
<path d="M590 45 c0 -3 2 -5 5 -5 3 0 5 2 5 5 0 3 -2 5 -5 5 -3 0 -5 -2 -5 -5z"/>
<path d="M680 45 c0 -3 2 -5 5 -5 3 0 5 2 5 5 0 3 -2 5 -5 5 -3 0 -5 -2 -5 -5z"/>
<path d="M910 45 c0 -3 2 -5 5 -5 3 0 5 2 5 5 0 3 -2 5 -5 5 -3 0 -5 -2 -5 -5z"/>
<path d="M0 5 c0 -3 2 -5 5 -5 3 0 5 2 5 5 0 3 -2 5 -5 5 -3 0 -5 -2 -5 -5z"/>
<path d="M313 3 c4 -3 10 -3 14 0 3 4 0 7 -7 7 -7 0 -10 -3 -7 -7z"/>
<path d="M633 3 c4 -3 10 -3 14 0 3 4 0 7 -7 7 -7 0 -10 -3 -7 -7z"/>
<path d="M950 5 c0 -3 2 -5 5 -5 3 0 5 2 5 5 0 3 -2 5 -5 5 -3 0 -5 -2 -5 -5z"/>
</g>
<g transform="translate(0.000000,96.000000) scale(0.100000,-0.100000)"
fill="#d7c2d7" stroke="none">
<path d="M0 955 c0 -3 2 -5 5 -5 3 0 5 2 5 5 0 3 -2 5 -5 5 -3 0 -5 -2 -5 -5z"/>
<path d="M313 953 c4 -3 10 -3 14 0 3 4 0 7 -7 7 -7 0 -10 -3 -7 -7z"/>
<path d="M633 953 c4 -3 10 -3 14 0 3 4 0 7 -7 7 -7 0 -10 -3 -7 -7z"/>
<path d="M950 955 c0 -3 2 -5 5 -5 3 0 5 2 5 5 0 3 -2 5 -5 5 -3 0 -5 -2 -5
-5z"/>
<path d="M40 915 c0 -3 2 -5 5 -5 3 0 5 2 5 5 0 3 -2 5 -5 5 -3 0 -5 -2 -5 -5z"/>
<path d="M270 915 c0 -3 2 -5 5 -5 3 0 5 2 5 5 0 3 -2 5 -5 5 -3 0 -5 -2 -5
-5z"/>
<path d="M360 915 c0 -3 2 -5 5 -5 3 0 5 2 5 5 0 3 -2 5 -5 5 -3 0 -5 -2 -5
-5z"/>
<path d="M590 915 c0 -3 2 -5 5 -5 3 0 5 2 5 5 0 3 -2 5 -5 5 -3 0 -5 -2 -5
-5z"/>
<path d="M680 915 c0 -3 2 -5 5 -5 3 0 5 2 5 5 0 3 -2 5 -5 5 -3 0 -5 -2 -5
-5z"/>
<path d="M910 915 c0 -3 2 -5 5 -5 3 0 5 2 5 5 0 3 -2 5 -5 5 -3 0 -5 -2 -5
-5z"/>
<path d="M100 800 l0 -60 60 0 60 0 0 60 0 60 -60 0 -60 0 0 -60z m110 0 l0
-50 -50 0 -50 0 0 50 0 50 50 0 50 0 0 -50z"/>
<path d="M420 800 l0 -60 60 0 60 0 0 60 0 60 -60 0 -60 0 0 -60z m110 0 l0
-50 -50 0 -50 0 0 50 0 50 50 0 50 0 0 -50z"/>
<path d="M740 800 l0 -60 60 0 60 0 0 60 0 60 -60 0 -60 0 0 -60z m110 0 l0
-50 -50 0 -50 0 0 50 0 50 50 0 50 0 0 -50z"/>
<path d="M40 685 c0 -3 2 -5 5 -5 3 0 5 2 5 5 0 3 -2 5 -5 5 -3 0 -5 -2 -5 -5z"/>
<path d="M270 685 c0 -3 2 -5 5 -5 3 0 5 2 5 5 0 3 -2 5 -5 5 -3 0 -5 -2 -5
-5z"/>
<path d="M360 685 c0 -3 2 -5 5 -5 3 0 5 2 5 5 0 3 -2 5 -5 5 -3 0 -5 -2 -5
-5z"/>
<path d="M590 685 c0 -3 2 -5 5 -5 3 0 5 2 5 5 0 3 -2 5 -5 5 -3 0 -5 -2 -5
-5z"/>
<path d="M680 685 c0 -3 2 -5 5 -5 3 0 5 2 5 5 0 3 -2 5 -5 5 -3 0 -5 -2 -5
-5z"/>
<path d="M910 685 c0 -3 2 -5 5 -5 3 0 5 2 5 5 0 3 -2 5 -5 5 -3 0 -5 -2 -5
-5z"/>
<path d="M0 640 c0 -7 3 -10 7 -7 3 4 3 10 0 14 -4 3 -7 0 -7 -7z"/>
<path d="M310 640 c0 -5 5 -10 10 -10 6 0 10 5 10 10 0 6 -4 10 -10 10 -5 0
-10 -4 -10 -10z"/>
<path d="M630 640 c0 -5 5 -10 10 -10 6 0 10 5 10 10 0 6 -4 10 -10 10 -5 0
-10 -4 -10 -10z"/>
<path d="M950 640 c0 -7 3 -10 7 -7 3 4 3 10 0 14 -4 3 -7 0 -7 -7z"/>
<path d="M40 595 c0 -3 2 -5 5 -5 3 0 5 2 5 5 0 3 -2 5 -5 5 -3 0 -5 -2 -5 -5z"/>
<path d="M270 595 c0 -3 2 -5 5 -5 3 0 5 2 5 5 0 3 -2 5 -5 5 -3 0 -5 -2 -5
-5z"/>
<path d="M360 595 c0 -3 2 -5 5 -5 3 0 5 2 5 5 0 3 -2 5 -5 5 -3 0 -5 -2 -5
-5z"/>
<path d="M590 595 c0 -3 2 -5 5 -5 3 0 5 2 5 5 0 3 -2 5 -5 5 -3 0 -5 -2 -5
-5z"/>
<path d="M680 595 c0 -3 2 -5 5 -5 3 0 5 2 5 5 0 3 -2 5 -5 5 -3 0 -5 -2 -5
-5z"/>
<path d="M910 595 c0 -3 2 -5 5 -5 3 0 5 2 5 5 0 3 -2 5 -5 5 -3 0 -5 -2 -5
-5z"/>
<path d="M100 480 l0 -60 60 0 60 0 0 60 0 60 -60 0 -60 0 0 -60z m110 0 l0
-50 -50 0 -50 0 0 50 0 50 50 0 50 0 0 -50z"/>
<path d="M420 480 l0 -60 60 0 60 0 0 60 0 60 -60 0 -60 0 0 -60z m110 0 l0
-50 -50 0 -50 0 0 50 0 50 50 0 50 0 0 -50z"/>
<path d="M740 480 l0 -60 60 0 60 0 0 60 0 60 -60 0 -60 0 0 -60z m110 0 l0
-50 -50 0 -50 0 0 50 0 50 50 0 50 0 0 -50z"/>
<path d="M40 365 c0 -3 2 -5 5 -5 3 0 5 2 5 5 0 3 -2 5 -5 5 -3 0 -5 -2 -5 -5z"/>
<path d="M270 365 c0 -3 2 -5 5 -5 3 0 5 2 5 5 0 3 -2 5 -5 5 -3 0 -5 -2 -5
-5z"/>
<path d="M360 365 c0 -3 2 -5 5 -5 3 0 5 2 5 5 0 3 -2 5 -5 5 -3 0 -5 -2 -5
-5z"/>
<path d="M590 365 c0 -3 2 -5 5 -5 3 0 5 2 5 5 0 3 -2 5 -5 5 -3 0 -5 -2 -5
-5z"/>
<path d="M680 365 c0 -3 2 -5 5 -5 3 0 5 2 5 5 0 3 -2 5 -5 5 -3 0 -5 -2 -5
-5z"/>
<path d="M910 365 c0 -3 2 -5 5 -5 3 0 5 2 5 5 0 3 -2 5 -5 5 -3 0 -5 -2 -5
-5z"/>
<path d="M0 320 c0 -7 3 -10 7 -7 3 4 3 10 0 14 -4 3 -7 0 -7 -7z"/>
<path d="M310 320 c0 -5 5 -10 10 -10 6 0 10 5 10 10 0 6 -4 10 -10 10 -5 0
-10 -4 -10 -10z"/>
<path d="M630 320 c0 -5 5 -10 10 -10 6 0 10 5 10 10 0 6 -4 10 -10 10 -5 0
-10 -4 -10 -10z"/>
<path d="M950 320 c0 -7 3 -10 7 -7 3 4 3 10 0 14 -4 3 -7 0 -7 -7z"/>
<path d="M40 275 c0 -3 2 -5 5 -5 3 0 5 2 5 5 0 3 -2 5 -5 5 -3 0 -5 -2 -5 -5z"/>
<path d="M270 275 c0 -3 2 -5 5 -5 3 0 5 2 5 5 0 3 -2 5 -5 5 -3 0 -5 -2 -5
-5z"/>
<path d="M360 275 c0 -3 2 -5 5 -5 3 0 5 2 5 5 0 3 -2 5 -5 5 -3 0 -5 -2 -5
-5z"/>
<path d="M590 275 c0 -3 2 -5 5 -5 3 0 5 2 5 5 0 3 -2 5 -5 5 -3 0 -5 -2 -5
-5z"/>
<path d="M680 275 c0 -3 2 -5 5 -5 3 0 5 2 5 5 0 3 -2 5 -5 5 -3 0 -5 -2 -5
-5z"/>
<path d="M910 275 c0 -3 2 -5 5 -5 3 0 5 2 5 5 0 3 -2 5 -5 5 -3 0 -5 -2 -5
-5z"/>
<path d="M100 160 l0 -60 60 0 60 0 0 60 0 60 -60 0 -60 0 0 -60z m110 0 l0
-50 -50 0 -50 0 0 50 0 50 50 0 50 0 0 -50z"/>
<path d="M420 160 l0 -60 60 0 60 0 0 60 0 60 -60 0 -60 0 0 -60z m110 0 l0
-50 -50 0 -50 0 0 50 0 50 50 0 50 0 0 -50z"/>
<path d="M740 160 l0 -60 60 0 60 0 0 60 0 60 -60 0 -60 0 0 -60z m110 0 l0
-50 -50 0 -50 0 0 50 0 50 50 0 50 0 0 -50z"/>
<path d="M40 45 c0 -3 2 -5 5 -5 3 0 5 2 5 5 0 3 -2 5 -5 5 -3 0 -5 -2 -5 -5z"/>
<path d="M270 45 c0 -3 2 -5 5 -5 3 0 5 2 5 5 0 3 -2 5 -5 5 -3 0 -5 -2 -5 -5z"/>
<path d="M360 45 c0 -3 2 -5 5 -5 3 0 5 2 5 5 0 3 -2 5 -5 5 -3 0 -5 -2 -5 -5z"/>
<path d="M590 45 c0 -3 2 -5 5 -5 3 0 5 2 5 5 0 3 -2 5 -5 5 -3 0 -5 -2 -5 -5z"/>
<path d="M680 45 c0 -3 2 -5 5 -5 3 0 5 2 5 5 0 3 -2 5 -5 5 -3 0 -5 -2 -5 -5z"/>
<path d="M910 45 c0 -3 2 -5 5 -5 3 0 5 2 5 5 0 3 -2 5 -5 5 -3 0 -5 -2 -5 -5z"/>
<path d="M0 5 c0 -3 2 -5 5 -5 3 0 5 2 5 5 0 3 -2 5 -5 5 -3 0 -5 -2 -5 -5z"/>
<path d="M313 3 c4 -3 10 -3 14 0 3 4 0 7 -7 7 -7 0 -10 -3 -7 -7z"/>
<path d="M633 3 c4 -3 10 -3 14 0 3 4 0 7 -7 7 -7 0 -10 -3 -7 -7z"/>
<path d="M950 5 c0 -3 2 -5 5 -5 3 0 5 2 5 5 0 3 -2 5 -5 5 -3 0 -5 -2 -5 -5z"/>
</g>
<g transform="translate(0.000000,96.000000) scale(0.100000,-0.100000)"
fill="#d7b3d7" stroke="none">
<path d="M0 955 c0 -3 2 -5 5 -5 3 0 5 2 5 5 0 3 -2 5 -5 5 -3 0 -5 -2 -5 -5z"/>
<path d="M313 953 c4 -3 10 -3 14 0 3 4 0 7 -7 7 -7 0 -10 -3 -7 -7z"/>
<path d="M633 953 c4 -3 10 -3 14 0 3 4 0 7 -7 7 -7 0 -10 -3 -7 -7z"/>
<path d="M950 955 c0 -3 2 -5 5 -5 3 0 5 2 5 5 0 3 -2 5 -5 5 -3 0 -5 -2 -5
-5z"/>
<path d="M40 915 c0 -3 2 -5 5 -5 3 0 5 2 5 5 0 3 -2 5 -5 5 -3 0 -5 -2 -5 -5z"/>
<path d="M270 915 c0 -3 2 -5 5 -5 3 0 5 2 5 5 0 3 -2 5 -5 5 -3 0 -5 -2 -5
-5z"/>
<path d="M360 915 c0 -3 2 -5 5 -5 3 0 5 2 5 5 0 3 -2 5 -5 5 -3 0 -5 -2 -5
-5z"/>
<path d="M590 915 c0 -3 2 -5 5 -5 3 0 5 2 5 5 0 3 -2 5 -5 5 -3 0 -5 -2 -5
-5z"/>
<path d="M680 915 c0 -3 2 -5 5 -5 3 0 5 2 5 5 0 3 -2 5 -5 5 -3 0 -5 -2 -5
-5z"/>
<path d="M910 915 c0 -3 2 -5 5 -5 3 0 5 2 5 5 0 3 -2 5 -5 5 -3 0 -5 -2 -5
-5z"/>
<path d="M101 828 c2 -30 2 -30 6 -6 3 20 11 28 31 31 24 4 24 4 -5 6 -31 1
-33 -1 -32 -31z"/>
<path d="M421 828 c2 -30 2 -30 6 -6 3 20 11 28 31 31 24 4 24 4 -5 6 -31 1
-33 -1 -32 -31z"/>
<path d="M741 828 c2 -30 2 -30 6 -6 3 20 11 28 31 31 24 4 24 4 -5 6 -31 1
-33 -1 -32 -31z"/>
<path d="M210 776 c0 -19 -6 -26 -27 -29 -26 -4 -26 -4 5 -6 29 -1 32 2 32 29
0 17 -2 30 -5 30 -3 0 -5 -11 -5 -24z"/>
<path d="M530 776 c0 -19 -6 -26 -27 -29 -26 -4 -26 -4 5 -6 29 -1 32 2 32 29
0 17 -2 30 -5 30 -3 0 -5 -11 -5 -24z"/>
<path d="M850 776 c0 -19 -6 -26 -27 -29 -26 -4 -26 -4 5 -6 29 -1 32 2 32 29
0 17 -2 30 -5 30 -3 0 -5 -11 -5 -24z"/>
<path d="M40 685 c0 -3 2 -5 5 -5 3 0 5 2 5 5 0 3 -2 5 -5 5 -3 0 -5 -2 -5 -5z"/>
<path d="M270 685 c0 -3 2 -5 5 -5 3 0 5 2 5 5 0 3 -2 5 -5 5 -3 0 -5 -2 -5
-5z"/>
<path d="M360 685 c0 -3 2 -5 5 -5 3 0 5 2 5 5 0 3 -2 5 -5 5 -3 0 -5 -2 -5
-5z"/>
<path d="M590 685 c0 -3 2 -5 5 -5 3 0 5 2 5 5 0 3 -2 5 -5 5 -3 0 -5 -2 -5
-5z"/>
<path d="M680 685 c0 -3 2 -5 5 -5 3 0 5 2 5 5 0 3 -2 5 -5 5 -3 0 -5 -2 -5
-5z"/>
<path d="M910 685 c0 -3 2 -5 5 -5 3 0 5 2 5 5 0 3 -2 5 -5 5 -3 0 -5 -2 -5
-5z"/>
<path d="M0 640 c0 -7 3 -10 7 -7 3 4 3 10 0 14 -4 3 -7 0 -7 -7z"/>
<path d="M310 640 c0 -5 5 -10 10 -10 6 0 10 5 10 10 0 6 -4 10 -10 10 -5 0
-10 -4 -10 -10z"/>
<path d="M630 640 c0 -5 5 -10 10 -10 6 0 10 5 10 10 0 6 -4 10 -10 10 -5 0
-10 -4 -10 -10z"/>
<path d="M950 640 c0 -7 3 -10 7 -7 3 4 3 10 0 14 -4 3 -7 0 -7 -7z"/>
<path d="M40 595 c0 -3 2 -5 5 -5 3 0 5 2 5 5 0 3 -2 5 -5 5 -3 0 -5 -2 -5 -5z"/>
<path d="M270 595 c0 -3 2 -5 5 -5 3 0 5 2 5 5 0 3 -2 5 -5 5 -3 0 -5 -2 -5
-5z"/>
<path d="M360 595 c0 -3 2 -5 5 -5 3 0 5 2 5 5 0 3 -2 5 -5 5 -3 0 -5 -2 -5
-5z"/>
<path d="M590 595 c0 -3 2 -5 5 -5 3 0 5 2 5 5 0 3 -2 5 -5 5 -3 0 -5 -2 -5
-5z"/>
<path d="M680 595 c0 -3 2 -5 5 -5 3 0 5 2 5 5 0 3 -2 5 -5 5 -3 0 -5 -2 -5
-5z"/>
<path d="M910 595 c0 -3 2 -5 5 -5 3 0 5 2 5 5 0 3 -2 5 -5 5 -3 0 -5 -2 -5
-5z"/>
<path d="M101 508 c2 -30 2 -30 6 -6 3 20 11 28 31 31 24 4 24 4 -5 6 -31 1
-33 -1 -32 -31z"/>
<path d="M421 508 c2 -30 2 -30 6 -6 3 20 11 28 31 31 24 4 24 4 -5 6 -31 1
-33 -1 -32 -31z"/>
<path d="M741 508 c2 -30 2 -30 6 -6 3 20 11 28 31 31 24 4 24 4 -5 6 -31 1
-33 -1 -32 -31z"/>
<path d="M210 456 c0 -19 -6 -26 -27 -29 -26 -4 -26 -4 5 -6 29 -1 32 2 32 29
0 17 -2 30 -5 30 -3 0 -5 -11 -5 -24z"/>
<path d="M530 456 c0 -19 -6 -26 -27 -29 -26 -4 -26 -4 5 -6 29 -1 32 2 32 29
0 17 -2 30 -5 30 -3 0 -5 -11 -5 -24z"/>
<path d="M850 456 c0 -19 -6 -26 -27 -29 -26 -4 -26 -4 5 -6 29 -1 32 2 32 29
0 17 -2 30 -5 30 -3 0 -5 -11 -5 -24z"/>
<path d="M40 365 c0 -3 2 -5 5 -5 3 0 5 2 5 5 0 3 -2 5 -5 5 -3 0 -5 -2 -5 -5z"/>
<path d="M270 365 c0 -3 2 -5 5 -5 3 0 5 2 5 5 0 3 -2 5 -5 5 -3 0 -5 -2 -5
-5z"/>
<path d="M360 365 c0 -3 2 -5 5 -5 3 0 5 2 5 5 0 3 -2 5 -5 5 -3 0 -5 -2 -5
-5z"/>
<path d="M590 365 c0 -3 2 -5 5 -5 3 0 5 2 5 5 0 3 -2 5 -5 5 -3 0 -5 -2 -5
-5z"/>
<path d="M680 365 c0 -3 2 -5 5 -5 3 0 5 2 5 5 0 3 -2 5 -5 5 -3 0 -5 -2 -5
-5z"/>
<path d="M910 365 c0 -3 2 -5 5 -5 3 0 5 2 5 5 0 3 -2 5 -5 5 -3 0 -5 -2 -5
-5z"/>
<path d="M0 320 c0 -7 3 -10 7 -7 3 4 3 10 0 14 -4 3 -7 0 -7 -7z"/>
<path d="M310 320 c0 -5 5 -10 10 -10 6 0 10 5 10 10 0 6 -4 10 -10 10 -5 0
-10 -4 -10 -10z"/>
<path d="M630 320 c0 -5 5 -10 10 -10 6 0 10 5 10 10 0 6 -4 10 -10 10 -5 0
-10 -4 -10 -10z"/>
<path d="M950 320 c0 -7 3 -10 7 -7 3 4 3 10 0 14 -4 3 -7 0 -7 -7z"/>
<path d="M40 275 c0 -3 2 -5 5 -5 3 0 5 2 5 5 0 3 -2 5 -5 5 -3 0 -5 -2 -5 -5z"/>
<path d="M270 275 c0 -3 2 -5 5 -5 3 0 5 2 5 5 0 3 -2 5 -5 5 -3 0 -5 -2 -5
-5z"/>
<path d="M360 275 c0 -3 2 -5 5 -5 3 0 5 2 5 5 0 3 -2 5 -5 5 -3 0 -5 -2 -5
-5z"/>
<path d="M590 275 c0 -3 2 -5 5 -5 3 0 5 2 5 5 0 3 -2 5 -5 5 -3 0 -5 -2 -5
-5z"/>
<path d="M680 275 c0 -3 2 -5 5 -5 3 0 5 2 5 5 0 3 -2 5 -5 5 -3 0 -5 -2 -5
-5z"/>
<path d="M910 275 c0 -3 2 -5 5 -5 3 0 5 2 5 5 0 3 -2 5 -5 5 -3 0 -5 -2 -5
-5z"/>
<path d="M101 188 c2 -30 2 -30 6 -6 3 20 11 28 31 31 24 4 24 4 -5 6 -31 1
-33 -1 -32 -31z"/>
<path d="M421 188 c2 -30 2 -30 6 -6 3 20 11 28 31 31 24 4 24 4 -5 6 -31 1
-33 -1 -32 -31z"/>
<path d="M741 188 c2 -30 2 -30 6 -6 3 20 11 28 31 31 24 4 24 4 -5 6 -31 1
-33 -1 -32 -31z"/>
<path d="M210 136 c0 -19 -6 -26 -27 -29 -26 -4 -26 -4 5 -6 29 -1 32 2 32 29
0 17 -2 30 -5 30 -3 0 -5 -11 -5 -24z"/>
<path d="M530 136 c0 -19 -6 -26 -27 -29 -26 -4 -26 -4 5 -6 29 -1 32 2 32 29
0 17 -2 30 -5 30 -3 0 -5 -11 -5 -24z"/>
<path d="M850 136 c0 -19 -6 -26 -27 -29 -26 -4 -26 -4 5 -6 29 -1 32 2 32 29
0 17 -2 30 -5 30 -3 0 -5 -11 -5 -24z"/>
<path d="M40 45 c0 -3 2 -5 5 -5 3 0 5 2 5 5 0 3 -2 5 -5 5 -3 0 -5 -2 -5 -5z"/>
<path d="M270 45 c0 -3 2 -5 5 -5 3 0 5 2 5 5 0 3 -2 5 -5 5 -3 0 -5 -2 -5 -5z"/>
<path d="M360 45 c0 -3 2 -5 5 -5 3 0 5 2 5 5 0 3 -2 5 -5 5 -3 0 -5 -2 -5 -5z"/>
<path d="M590 45 c0 -3 2 -5 5 -5 3 0 5 2 5 5 0 3 -2 5 -5 5 -3 0 -5 -2 -5 -5z"/>
<path d="M680 45 c0 -3 2 -5 5 -5 3 0 5 2 5 5 0 3 -2 5 -5 5 -3 0 -5 -2 -5 -5z"/>
<path d="M910 45 c0 -3 2 -5 5 -5 3 0 5 2 5 5 0 3 -2 5 -5 5 -3 0 -5 -2 -5 -5z"/>
<path d="M0 5 c0 -3 2 -5 5 -5 3 0 5 2 5 5 0 3 -2 5 -5 5 -3 0 -5 -2 -5 -5z"/>
<path d="M313 3 c4 -3 10 -3 14 0 3 4 0 7 -7 7 -7 0 -10 -3 -7 -7z"/>
<path d="M633 3 c4 -3 10 -3 14 0 3 4 0 7 -7 7 -7 0 -10 -3 -7 -7z"/>
<path d="M950 5 c0 -3 2 -5 5 -5 3 0 5 2 5 5 0 3 -2 5 -5 5 -3 0 -5 -2 -5 -5z"/>
</g>
<g transform="translate(0.000000,96.000000) scale(0.100000,-0.100000)"
fill="#211a24" stroke="none">
<path d="M0 955 c0 -3 2 -5 5 -5 3 0 5 2 5 5 0 3 -2 5 -5 5 -3 0 -5 -2 -5 -5z"/>
<path d="M313 953 c4 -3 10 -3 14 0 3 4 0 7 -7 7 -7 0 -10 -3 -7 -7z"/>
<path d="M633 953 c4 -3 10 -3 14 0 3 4 0 7 -7 7 -7 0 -10 -3 -7 -7z"/>
<path d="M950 955 c0 -3 2 -5 5 -5 3 0 5 2 5 5 0 3 -2 5 -5 5 -3 0 -5 -2 -5
-5z"/>
<path d="M40 915 c0 -3 2 -5 5 -5 3 0 5 2 5 5 0 3 -2 5 -5 5 -3 0 -5 -2 -5 -5z"/>
<path d="M270 915 c0 -3 2 -5 5 -5 3 0 5 2 5 5 0 3 -2 5 -5 5 -3 0 -5 -2 -5
-5z"/>
<path d="M360 915 c0 -3 2 -5 5 -5 3 0 5 2 5 5 0 3 -2 5 -5 5 -3 0 -5 -2 -5
-5z"/>
<path d="M590 915 c0 -3 2 -5 5 -5 3 0 5 2 5 5 0 3 -2 5 -5 5 -3 0 -5 -2 -5
-5z"/>
<path d="M680 915 c0 -3 2 -5 5 -5 3 0 5 2 5 5 0 3 -2 5 -5 5 -3 0 -5 -2 -5
-5z"/>
<path d="M910 915 c0 -3 2 -5 5 -5 3 0 5 2 5 5 0 3 -2 5 -5 5 -3 0 -5 -2 -5
-5z"/>
<path d="M40 685 c0 -3 2 -5 5 -5 3 0 5 2 5 5 0 3 -2 5 -5 5 -3 0 -5 -2 -5 -5z"/>
<path d="M270 685 c0 -3 2 -5 5 -5 3 0 5 2 5 5 0 3 -2 5 -5 5 -3 0 -5 -2 -5
-5z"/>
<path d="M360 685 c0 -3 2 -5 5 -5 3 0 5 2 5 5 0 3 -2 5 -5 5 -3 0 -5 -2 -5
-5z"/>
<path d="M590 685 c0 -3 2 -5 5 -5 3 0 5 2 5 5 0 3 -2 5 -5 5 -3 0 -5 -2 -5
-5z"/>
<path d="M680 685 c0 -3 2 -5 5 -5 3 0 5 2 5 5 0 3 -2 5 -5 5 -3 0 -5 -2 -5
-5z"/>
<path d="M910 685 c0 -3 2 -5 5 -5 3 0 5 2 5 5 0 3 -2 5 -5 5 -3 0 -5 -2 -5
-5z"/>
<path d="M0 640 c0 -7 3 -10 7 -7 3 4 3 10 0 14 -4 3 -7 0 -7 -7z"/>
<path d="M310 640 c0 -5 5 -10 10 -10 6 0 10 5 10 10 0 6 -4 10 -10 10 -5 0
-10 -4 -10 -10z"/>
<path d="M630 640 c0 -5 5 -10 10 -10 6 0 10 5 10 10 0 6 -4 10 -10 10 -5 0
-10 -4 -10 -10z"/>
<path d="M950 640 c0 -7 3 -10 7 -7 3 4 3 10 0 14 -4 3 -7 0 -7 -7z"/>
<path d="M40 595 c0 -3 2 -5 5 -5 3 0 5 2 5 5 0 3 -2 5 -5 5 -3 0 -5 -2 -5 -5z"/>
<path d="M270 595 c0 -3 2 -5 5 -5 3 0 5 2 5 5 0 3 -2 5 -5 5 -3 0 -5 -2 -5
-5z"/>
<path d="M360 595 c0 -3 2 -5 5 -5 3 0 5 2 5 5 0 3 -2 5 -5 5 -3 0 -5 -2 -5
-5z"/>
<path d="M590 595 c0 -3 2 -5 5 -5 3 0 5 2 5 5 0 3 -2 5 -5 5 -3 0 -5 -2 -5
-5z"/>
<path d="M680 595 c0 -3 2 -5 5 -5 3 0 5 2 5 5 0 3 -2 5 -5 5 -3 0 -5 -2 -5
-5z"/>
<path d="M910 595 c0 -3 2 -5 5 -5 3 0 5 2 5 5 0 3 -2 5 -5 5 -3 0 -5 -2 -5
-5z"/>
<path d="M40 365 c0 -3 2 -5 5 -5 3 0 5 2 5 5 0 3 -2 5 -5 5 -3 0 -5 -2 -5 -5z"/>
<path d="M270 365 c0 -3 2 -5 5 -5 3 0 5 2 5 5 0 3 -2 5 -5 5 -3 0 -5 -2 -5
-5z"/>
<path d="M360 365 c0 -3 2 -5 5 -5 3 0 5 2 5 5 0 3 -2 5 -5 5 -3 0 -5 -2 -5
-5z"/>
<path d="M590 365 c0 -3 2 -5 5 -5 3 0 5 2 5 5 0 3 -2 5 -5 5 -3 0 -5 -2 -5
-5z"/>
<path d="M680 365 c0 -3 2 -5 5 -5 3 0 5 2 5 5 0 3 -2 5 -5 5 -3 0 -5 -2 -5
-5z"/>
<path d="M910 365 c0 -3 2 -5 5 -5 3 0 5 2 5 5 0 3 -2 5 -5 5 -3 0 -5 -2 -5
-5z"/>
<path d="M0 320 c0 -7 3 -10 7 -7 3 4 3 10 0 14 -4 3 -7 0 -7 -7z"/>
<path d="M310 320 c0 -5 5 -10 10 -10 6 0 10 5 10 10 0 6 -4 10 -10 10 -5 0
-10 -4 -10 -10z"/>
<path d="M630 320 c0 -5 5 -10 10 -10 6 0 10 5 10 10 0 6 -4 10 -10 10 -5 0
-10 -4 -10 -10z"/>
<path d="M950 320 c0 -7 3 -10 7 -7 3 4 3 10 0 14 -4 3 -7 0 -7 -7z"/>
<path d="M40 275 c0 -3 2 -5 5 -5 3 0 5 2 5 5 0 3 -2 5 -5 5 -3 0 -5 -2 -5 -5z"/>
<path d="M270 275 c0 -3 2 -5 5 -5 3 0 5 2 5 5 0 3 -2 5 -5 5 -3 0 -5 -2 -5
-5z"/>
<path d="M360 275 c0 -3 2 -5 5 -5 3 0 5 2 5 5 0 3 -2 5 -5 5 -3 0 -5 -2 -5
-5z"/>
<path d="M590 275 c0 -3 2 -5 5 -5 3 0 5 2 5 5 0 3 -2 5 -5 5 -3 0 -5 -2 -5
-5z"/>
<path d="M680 275 c0 -3 2 -5 5 -5 3 0 5 2 5 5 0 3 -2 5 -5 5 -3 0 -5 -2 -5
-5z"/>
<path d="M910 275 c0 -3 2 -5 5 -5 3 0 5 2 5 5 0 3 -2 5 -5 5 -3 0 -5 -2 -5
-5z"/>
<path d="M40 45 c0 -3 2 -5 5 -5 3 0 5 2 5 5 0 3 -2 5 -5 5 -3 0 -5 -2 -5 -5z"/>
<path d="M270 45 c0 -3 2 -5 5 -5 3 0 5 2 5 5 0 3 -2 5 -5 5 -3 0 -5 -2 -5 -5z"/>
<path d="M360 45 c0 -3 2 -5 5 -5 3 0 5 2 5 5 0 3 -2 5 -5 5 -3 0 -5 -2 -5 -5z"/>
<path d="M590 45 c0 -3 2 -5 5 -5 3 0 5 2 5 5 0 3 -2 5 -5 5 -3 0 -5 -2 -5 -5z"/>
<path d="M680 45 c0 -3 2 -5 5 -5 3 0 5 2 5 5 0 3 -2 5 -5 5 -3 0 -5 -2 -5 -5z"/>
<path d="M910 45 c0 -3 2 -5 5 -5 3 0 5 2 5 5 0 3 -2 5 -5 5 -3 0 -5 -2 -5 -5z"/>
<path d="M0 5 c0 -3 2 -5 5 -5 3 0 5 2 5 5 0 3 -2 5 -5 5 -3 0 -5 -2 -5 -5z"/>
<path d="M313 3 c4 -3 10 -3 14 0 3 4 0 7 -7 7 -7 0 -10 -3 -7 -7z"/>
<path d="M633 3 c4 -3 10 -3 14 0 3 4 0 7 -7 7 -7 0 -10 -3 -7 -7z"/>
<path d="M950 5 c0 -3 2 -5 5 -5 3 0 5 2 5 5 0 3 -2 5 -5 5 -3 0 -5 -2 -5 -5z"/>
</g>
<g transform="translate(0.000000,96.000000) scale(0.100000,-0.100000)"
fill="#333333" stroke="none">
<path d="M0 955 c0 -3 2 -5 5 -5 3 0 5 2 5 5 0 3 -2 5 -5 5 -3 0 -5 -2 -5 -5z"/>
<path d="M313 953 c4 -3 10 -3 14 0 3 4 0 7 -7 7 -7 0 -10 -3 -7 -7z"/>
<path d="M633 953 c4 -3 10 -3 14 0 3 4 0 7 -7 7 -7 0 -10 -3 -7 -7z"/>
<path d="M950 955 c0 -3 2 -5 5 -5 3 0 5 2 5 5 0 3 -2 5 -5 5 -3 0 -5 -2 -5
-5z"/>
<path d="M0 640 c0 -7 3 -10 7 -7 3 4 3 10 0 14 -4 3 -7 0 -7 -7z"/>
<path d="M310 640 c0 -5 5 -10 10 -10 6 0 10 5 10 10 0 6 -4 10 -10 10 -5 0
-10 -4 -10 -10z"/>
<path d="M630 640 c0 -5 5 -10 10 -10 6 0 10 5 10 10 0 6 -4 10 -10 10 -5 0
-10 -4 -10 -10z"/>
<path d="M950 640 c0 -7 3 -10 7 -7 3 4 3 10 0 14 -4 3 -7 0 -7 -7z"/>
<path d="M0 320 c0 -7 3 -10 7 -7 3 4 3 10 0 14 -4 3 -7 0 -7 -7z"/>
<path d="M310 320 c0 -5 5 -10 10 -10 6 0 10 5 10 10 0 6 -4 10 -10 10 -5 0
-10 -4 -10 -10z"/>
<path d="M630 320 c0 -5 5 -10 10 -10 6 0 10 5 10 10 0 6 -4 10 -10 10 -5 0
-10 -4 -10 -10z"/>
<path d="M950 320 c0 -7 3 -10 7 -7 3 4 3 10 0 14 -4 3 -7 0 -7 -7z"/>
<path d="M0 5 c0 -3 2 -5 5 -5 3 0 5 2 5 5 0 3 -2 5 -5 5 -3 0 -5 -2 -5 -5z"/>
<path d="M313 3 c4 -3 10 -3 14 0 3 4 0 7 -7 7 -7 0 -10 -3 -7 -7z"/>
<path d="M633 3 c4 -3 10 -3 14 0 3 4 0 7 -7 7 -7 0 -10 -3 -7 -7z"/>
<path d="M950 5 c0 -3 2 -5 5 -5 3 0 5 2 5 5 0 3 -2 5 -5 5 -3 0 -5 -2 -5 -5z"/>
</g>
<g transform="translate(0.000000,96.000000) scale(0.100000,-0.100000)"
fill="#353635" stroke="none">
<path d="M310 955 c0 -3 2 -5 5 -5 3 0 5 2 5 5 0 3 -2 5 -5 5 -3 0 -5 -2 -5
-5z"/>
<path d="M630 955 c0 -3 2 -5 5 -5 3 0 5 2 5 5 0 3 -2 5 -5 5 -3 0 -5 -2 -5
-5z"/>
<path d="M950 955 c0 -3 2 -5 5 -5 3 0 5 2 5 5 0 3 -2 5 -5 5 -3 0 -5 -2 -5
-5z"/>
<path d="M310 635 c0 -3 2 -5 5 -5 3 0 5 2 5 5 0 3 -2 5 -5 5 -3 0 -5 -2 -5
-5z"/>
<path d="M630 635 c0 -3 2 -5 5 -5 3 0 5 2 5 5 0 3 -2 5 -5 5 -3 0 -5 -2 -5
-5z"/>
<path d="M950 635 c0 -3 2 -5 5 -5 3 0 5 2 5 5 0 3 -2 5 -5 5 -3 0 -5 -2 -5
-5z"/>
<path d="M310 315 c0 -3 2 -5 5 -5 3 0 5 2 5 5 0 3 -2 5 -5 5 -3 0 -5 -2 -5
-5z"/>
<path d="M630 315 c0 -3 2 -5 5 -5 3 0 5 2 5 5 0 3 -2 5 -5 5 -3 0 -5 -2 -5
-5z"/>
<path d="M950 315 c0 -3 2 -5 5 -5 3 0 5 2 5 5 0 3 -2 5 -5 5 -3 0 -5 -2 -5
-5z"/>
</g>
  </g>
</svg>
