<?xml version="1.0" encoding="UTF-8" standalone="no"?>
<!-- Created with Inkscape (http://www.inkscape.org/) -->

<svg
   xmlns:dc="http://purl.org/dc/elements/1.1/"
   xmlns:cc="http://creativecommons.org/ns#"
   xmlns:rdf="http://www.w3.org/1999/02/22-rdf-syntax-ns#"
   xmlns:svg="http://www.w3.org/2000/svg"
   xmlns="http://www.w3.org/2000/svg"
   xmlns:sodipodi="http://sodipodi.sourceforge.net/DTD/sodipodi-0.dtd"
   xmlns:inkscape="http://www.inkscape.org/namespaces/inkscape"
   width="32px"
   height="32px"
   viewBox="0 0 32px 32px"
   version="1.1"
   id="svgMain"
   inkscape:version="0.92.2 (5c3e80d, 2017-08-06)"
   sodipodi:docname="reference_SVG.svg">
  <defs
     id="defs4542" />
  <sodipodi:namedview
     id="base"
     pagecolor="#ffffff"
     bordercolor="#666666"
     borderopacity="1.0"
     inkscape:pageopacity="0.0"
     inkscape:pageshadow="2"
     inkscape:zoom="1"
     inkscape:cx="0"
     inkscape:cy="0"
     inkscape:document-units="px"
     inkscape:current-layer="layer1"
     showgrid="false"
     units="px"
     inkscape:window-width="1024"
     inkscape:window-height="768"
     inkscape:window-x="-8"
     inkscape:window-y="-8"
     inkscape:window-maximized="1" />
  <metadata
     id="metadata1">
    <rdf:RDF>
      <cc:Work
         rdf:about="">
        <dc:format>image/svg+xml</dc:format>
        <dc:type
           rdf:resource="http://purl.org/dc/dcmitype/StillImage" />
        <dc:title />
      </cc:Work>
    </rdf:RDF>
  </metadata>
  <g transform="translate(-32,-32)"
     inkscape:label="Layer 1"
     inkscape:groupmode="layer"
     id="layer1">
    <!-- INSERT MARKER -->
<g transform="translate(0.000000,96.000000) scale(0.100000,-0.100000)"
fill="#6b6b6b" stroke="none">
<path d="M52 927 c6 -17 15 -40 20 -51 17 -32 -6 -41 -41 -17 l-31 22 0 -38
c1 -34 2 -36 14 -20 13 16 14 16 30 -7 15 -24 15 -27 -5 -61 -12 -19 -25 -35
-30 -35 -5 0 -9 -7 -9 -15 0 -19 9 -19 34 0 14 11 23 12 33 4 10 -9 9 -16 -7
-39 -20 -28 -17 -57 12 -114 17 -32 -6 -41 -41 -17 l-31 22 0 -38 c1 -34 2
-36 14 -20 13 16 14 16 30 -7 15 -24 15 -27 -5 -61 -12 -19 -25 -35 -30 -35
-5 0 -9 -7 -9 -15 0 -19 9 -19 34 0 14 11 23 12 33 4 10 -9 9 -16 -7 -39 -20
-28 -17 -57 12 -114 17 -32 -6 -41 -41 -17 l-31 22 0 -38 c1 -34 2 -36 14 -20
13 16 14 16 30 -7 15 -24 15 -27 -5 -61 -12 -19 -25 -35 -30 -35 -5 0 -9 -7
-9 -15 0 -19 9 -19 34 0 14 11 23 12 33 4 10 -9 9 -16 -7 -39 l-20 -29 30 1
c16 1 30 6 30 13 0 27 21 32 58 14 20 -11 42 -19 49 -19 26 0 12 20 -27 40
-42 21 -47 29 -29 47 8 8 7 17 -2 32 -12 18 -10 24 25 56 33 30 42 34 53 22
11 -11 10 -20 -7 -54 -25 -53 -25 -74 0 -106 11 -14 20 -30 20 -36 0 -6 5 -11
10 -11 6 0 10 6 10 13 0 9 3 8 9 -2 5 -7 14 -10 20 -6 9 5 9 10 0 21 -9 11 -8
14 2 14 8 0 31 9 50 19 48 26 67 11 38 -30 l-19 -28 30 1 c16 1 30 6 30 13 0
27 21 32 58 14 20 -11 42 -19 49 -19 26 0 12 20 -27 40 -42 21 -47 29 -29 47
8 8 7 17 -2 32 -12 18 -10 24 25 56 33 30 42 34 53 22 11 -11 10 -20 -7 -54
-25 -53 -25 -74 0 -106 11 -14 20 -30 20 -36 0 -6 5 -11 10 -11 6 0 10 6 10
13 0 9 3 8 9 -2 5 -7 14 -10 20 -6 9 5 9 10 0 21 -9 11 -8 14 2 14 8 0 31 9
50 19 48 26 67 11 38 -30 l-19 -28 30 1 c16 1 30 6 30 13 0 27 21 32 58 14 20
-11 42 -19 49 -19 26 0 12 20 -27 40 -42 21 -47 29 -29 47 8 8 7 17 -2 32 -12
18 -10 24 25 56 33 30 42 34 53 22 11 -11 10 -20 -7 -54 -25 -53 -25 -74 0
-106 11 -14 20 -30 20 -36 0 -6 5 -11 10 -11 6 0 10 6 10 13 0 9 3 8 9 -2 5
-7 14 -10 20 -6 9 5 9 10 1 20 -8 9 -5 14 10 18 11 3 20 12 20 21 0 9 -6 13
-15 10 -10 -4 -16 3 -21 23 -4 15 -11 34 -17 40 -6 9 -5 18 3 28 11 13 11 20
0 39 -7 13 -10 30 -8 38 3 7 15 -6 29 -32 l24 -45 3 32 c2 21 -4 42 -19 62
-19 26 -21 34 -11 55 8 19 8 27 0 32 -7 5 -4 10 10 15 12 5 22 15 22 23 0 9
-6 13 -15 10 -10 -4 -16 3 -21 23 -4 15 -11 34 -17 41 -6 8 -5 17 3 27 11 13
11 20 0 39 -7 13 -10 30 -8 38 3 7 15 -6 29 -32 l24 -45 3 32 c2 21 -4 42 -19
62 -19 26 -21 34 -11 55 8 19 8 27 0 32 -7 5 -4 10 10 15 12 5 22 15 22 23 0
9 -6 13 -15 10 -10 -4 -16 3 -21 23 -4 15 -11 34 -17 41 -6 8 -5 17 3 27 11
13 11 20 0 39 -7 13 -10 30 -8 38 3 7 15 -6 29 -32 l24 -45 3 32 c2 21 -4 42
-19 62 -12 17 -19 36 -15 46 5 13 0 16 -26 13 -24 -2 -34 -9 -36 -23 -7 -37
-20 -39 -62 -10 -24 16 -58 30 -80 32 l-38 3 10 -33 c6 -17 15 -40 20 -51 19
-36 -8 -40 -55 -7 -45 31 -64 61 -52 82 5 7 -4 9 -26 7 -25 -2 -35 -9 -37 -23
-7 -37 -20 -39 -62 -10 -24 16 -58 30 -80 32 l-38 3 10 -33 c6 -17 15 -40 20
-51 19 -36 -8 -40 -55 -7 -45 31 -64 61 -52 82 5 7 -4 9 -26 7 -25 -2 -35 -9
-37 -23 -7 -37 -20 -39 -62 -10 -24 16 -58 30 -80 32 l-38 3 10 -33z m100 -26
l33 -30 -32 -33 -33 -33 0 32 c0 18 -4 35 -10 38 -13 8 -13 55 0 55 5 0 24
-13 42 -29z m320 0 l33 -30 -32 -33 -33 -33 0 32 c0 18 -4 35 -10 38 -13 8
-13 55 0 55 5 0 24 -13 42 -29z m320 0 l33 -30 -32 -33 -33 -33 0 32 c0 18 -4
35 -10 38 -13 8 -13 55 0 55 5 0 24 -13 42 -29z m-555 -28 c-4 -3 -7 0 -7 7 0
7 3 10 7 7 3 -4 3 -10 0 -14z m53 -23 c22 -43 34 -49 48 -24 7 13 11 12 25
-10 16 -24 16 -27 -4 -61 -12 -19 -25 -35 -29 -35 -5 0 -15 -3 -24 -6 -11 -4
-17 2 -22 23 -4 15 -11 33 -16 40 -6 7 -4 19 4 32 10 16 10 23 0 33 -12 12
-17 48 -7 48 2 0 14 -18 25 -40z m267 23 c-4 -3 -7 0 -7 7 0 7 3 10 7 7 3 -4
3 -10 0 -14z m53 -23 c22 -43 34 -49 48 -24 7 13 11 12 25 -10 16 -24 16 -27
-4 -61 -12 -19 -25 -35 -29 -35 -5 0 -15 -3 -24 -6 -11 -4 -17 2 -22 23 -4 15
-11 33 -16 40 -6 7 -4 19 4 32 10 16 10 23 0 33 -12 12 -17 48 -7 48 2 0 14
-18 25 -40z m267 23 c-4 -3 -7 0 -7 7 0 7 3 10 7 7 3 -4 3 -10 0 -14z m-648
-26 c8 -10 6 -24 -9 -55 -25 -52 -25 -73 2 -107 17 -22 19 -31 10 -46 -7 -10
-12 -25 -12 -33 0 -29 -21 -27 -70 5 -51 33 -59 46 -39 66 7 7 21 5 47 -8 20
-11 42 -19 49 -19 26 0 12 20 -27 40 -42 21 -47 29 -29 47 8 8 7 17 -2 32 -12
19 -10 24 21 55 41 39 44 40 59 23z m320 0 c8 -10 6 -24 -9 -55 -25 -52 -25
-73 2 -107 17 -22 19 -31 10 -46 -7 -10 -12 -25 -12 -33 0 -29 -21 -27 -70 5
-51 33 -59 46 -39 66 7 7 21 5 47 -8 20 -11 42 -19 49 -19 26 0 12 20 -27 40
-42 21 -47 29 -29 47 8 8 7 17 -2 32 -12 19 -10 24 21 55 41 39 44 40 59 23z
m320 0 c8 -10 6 -24 -9 -55 -25 -52 -25 -73 2 -107 17 -22 19 -31 10 -46 -7
-10 -12 -25 -12 -33 0 -29 -21 -27 -70 5 -51 33 -59 46 -39 66 7 7 21 5 47 -8
20 -11 42 -19 49 -19 26 0 12 20 -27 40 -42 21 -47 29 -29 47 8 8 7 17 -2 32
-12 19 -10 24 21 55 41 39 44 40 59 23z m-753 -115 c-15 -15 -16 -13 -16 23 0
39 0 39 16 16 15 -21 15 -24 0 -39z m320 0 c-15 -15 -16 -13 -16 23 0 39 0 39
16 16 15 -21 15 -24 0 -39z m320 0 c-15 -15 -16 -13 -16 23 0 39 0 39 16 16
15 -21 15 -24 0 -39z m-517 1 c0 -34 -1 -36 -11 -16 -6 12 -8 29 -5 37 11 27
17 18 16 -21z m320 0 c0 -34 -1 -36 -11 -16 -6 12 -8 29 -5 37 11 27 17 18 16
-21z m320 0 c0 -34 -1 -36 -11 -16 -6 12 -8 29 -5 37 11 27 17 18 16 -21z
m-499 -63 c-20 -28 -17 -57 12 -114 19 -36 -8 -40 -55 -7 -50 34 -64 60 -48
89 7 13 7 22 -1 30 -9 9 -8 12 3 12 8 0 30 8 49 19 47 25 68 11 40 -29z m320
0 c-20 -28 -17 -57 12 -114 19 -36 -8 -40 -55 -7 -50 34 -64 60 -48 89 7 13 7
22 -1 30 -9 9 -8 12 3 12 8 0 30 8 49 19 47 25 68 11 40 -29z m-433 -27 c-4
-3 -7 0 -7 7 0 7 3 10 7 7 3 -4 3 -10 0 -14z m320 0 c-4 -3 -7 0 -7 7 0 7 3
10 7 7 3 -4 3 -10 0 -14z m320 0 c-4 -3 -7 0 -7 7 0 7 3 10 7 7 3 -4 3 -10 0
-14z m-830 -10 c-4 -3 -7 0 -7 7 0 7 3 10 7 7 3 -4 3 -10 0 -14z m320 0 c-4
-3 -7 0 -7 7 0 7 3 10 7 7 3 -4 3 -10 0 -14z m320 0 c-4 -3 -7 0 -7 7 0 7 3
10 7 7 3 -4 3 -10 0 -14z m-565 -52 l33 -30 -32 -33 -33 -33 0 32 c0 18 -4 35
-10 38 -13 8 -13 55 0 55 5 0 24 -13 42 -29z m320 0 l33 -30 -32 -33 -33 -33
0 32 c0 18 -4 35 -10 38 -13 8 -13 55 0 55 5 0 24 -13 42 -29z m320 0 l33 -30
-32 -33 -33 -33 0 32 c0 18 -4 35 -10 38 -13 8 -13 55 0 55 5 0 24 -13 42 -29z
m-555 -28 c-4 -3 -7 0 -7 7 0 7 3 10 7 7 3 -4 3 -10 0 -14z m53 -23 c22 -43
34 -49 48 -24 7 13 11 12 25 -10 16 -24 16 -27 -4 -61 -12 -19 -25 -35 -29
-35 -5 0 -15 -3 -24 -6 -11 -4 -17 2 -22 23 -4 15 -11 33 -16 40 -6 7 -4 19 4
32 10 16 10 23 0 33 -12 12 -17 48 -7 48 2 0 14 -18 25 -40z m267 23 c-4 -3
-7 0 -7 7 0 7 3 10 7 7 3 -4 3 -10 0 -14z m53 -23 c22 -43 34 -49 48 -24 7 13
11 12 25 -10 16 -24 16 -27 -4 -61 -12 -19 -25 -35 -29 -35 -5 0 -15 -3 -24
-6 -11 -4 -17 2 -22 23 -4 15 -11 33 -16 40 -6 7 -4 19 4 32 10 16 10 23 0 33
-12 12 -17 48 -7 48 2 0 14 -18 25 -40z m267 23 c-4 -3 -7 0 -7 7 0 7 3 10 7
7 3 -4 3 -10 0 -14z m-648 -26 c8 -10 6 -24 -9 -55 -25 -52 -25 -73 2 -107 17
-22 19 -31 10 -46 -7 -10 -12 -25 -12 -33 0 -29 -21 -27 -70 5 -51 33 -59 46
-39 66 7 7 21 5 47 -8 20 -11 42 -19 49 -19 26 0 12 20 -27 40 -42 21 -47 29
-29 47 8 8 7 17 -2 32 -12 19 -10 24 21 55 41 39 44 40 59 23z m320 0 c8 -10
6 -24 -9 -55 -25 -52 -25 -73 2 -107 17 -22 19 -31 10 -46 -7 -10 -12 -25 -12
-33 0 -29 -21 -27 -70 5 -51 33 -59 46 -39 66 7 7 21 5 47 -8 20 -11 42 -19
49 -19 26 0 12 20 -27 40 -42 21 -47 29 -29 47 8 8 7 17 -2 32 -12 19 -10 24
21 55 41 39 44 40 59 23z m320 0 c8 -10 6 -24 -9 -55 -25 -52 -25 -73 2 -107
17 -22 19 -31 10 -46 -7 -10 -12 -25 -12 -33 0 -29 -21 -27 -70 5 -51 33 -59
46 -39 66 7 7 21 5 47 -8 20 -11 42 -19 49 -19 26 0 12 20 -27 40 -42 21 -47
29 -29 47 8 8 7 17 -2 32 -12 19 -10 24 21 55 41 39 44 40 59 23z m-753 -115
c-15 -15 -16 -13 -16 23 0 39 0 39 16 16 15 -21 15 -24 0 -39z m320 0 c-15
-15 -16 -13 -16 23 0 39 0 39 16 16 15 -21 15 -24 0 -39z m320 0 c-15 -15 -16
-13 -16 23 0 39 0 39 16 16 15 -21 15 -24 0 -39z m-517 1 c0 -34 -1 -36 -11
-16 -6 12 -8 29 -5 37 11 27 17 18 16 -21z m320 0 c0 -34 -1 -36 -11 -16 -6
12 -8 29 -5 37 11 27 17 18 16 -21z m320 0 c0 -34 -1 -36 -11 -16 -6 12 -8 29
-5 37 11 27 17 18 16 -21z m-499 -63 c-20 -28 -17 -57 12 -114 19 -36 -8 -40
-55 -7 -50 34 -64 60 -48 89 7 13 7 22 -1 30 -9 9 -8 12 3 12 8 0 30 8 49 19
47 25 68 11 40 -29z m320 0 c-20 -28 -17 -57 12 -114 19 -36 -8 -40 -55 -7
-50 34 -64 60 -48 89 7 13 7 22 -1 30 -9 9 -8 12 3 12 8 0 30 8 49 19 47 25
68 11 40 -29z m-433 -27 c-4 -3 -7 0 -7 7 0 7 3 10 7 7 3 -4 3 -10 0 -14z
m320 0 c-4 -3 -7 0 -7 7 0 7 3 10 7 7 3 -4 3 -10 0 -14z m320 0 c-4 -3 -7 0
-7 7 0 7 3 10 7 7 3 -4 3 -10 0 -14z m-830 -10 c-4 -3 -7 0 -7 7 0 7 3 10 7 7
3 -4 3 -10 0 -14z m320 0 c-4 -3 -7 0 -7 7 0 7 3 10 7 7 3 -4 3 -10 0 -14z
m320 0 c-4 -3 -7 0 -7 7 0 7 3 10 7 7 3 -4 3 -10 0 -14z m-565 -52 l33 -30
-32 -33 -33 -33 0 32 c0 18 -4 35 -10 38 -13 8 -13 55 0 55 5 0 24 -13 42 -29z
m320 0 l33 -30 -32 -33 -33 -33 0 32 c0 18 -4 35 -10 38 -13 8 -13 55 0 55 5
0 24 -13 42 -29z m320 0 l33 -30 -32 -33 -33 -33 0 32 c0 18 -4 35 -10 38 -13
8 -13 55 0 55 5 0 24 -13 42 -29z m-555 -28 c-4 -3 -7 0 -7 7 0 7 3 10 7 7 3
-4 3 -10 0 -14z m53 -23 c22 -43 34 -49 48 -24 7 13 11 12 25 -10 16 -24 16
-27 -4 -61 -12 -19 -25 -35 -29 -35 -5 0 -15 -3 -24 -6 -11 -4 -17 2 -22 23
-4 15 -11 33 -16 40 -6 7 -4 19 4 32 10 16 10 23 0 33 -12 12 -17 48 -7 48 2
0 14 -18 25 -40z m267 23 c-4 -3 -7 0 -7 7 0 7 3 10 7 7 3 -4 3 -10 0 -14z
m53 -23 c22 -43 34 -49 48 -24 7 13 11 12 25 -10 16 -24 16 -27 -4 -61 -12
-19 -25 -35 -29 -35 -5 0 -15 -3 -24 -6 -11 -4 -17 2 -22 23 -4 15 -11 33 -16
40 -6 7 -4 19 4 32 10 16 10 23 0 33 -12 12 -17 48 -7 48 2 0 14 -18 25 -40z
m267 23 c-4 -3 -7 0 -7 7 0 7 3 10 7 7 3 -4 3 -10 0 -14z m-761 -141 c-15 -15
-16 -13 -16 23 0 39 0 39 16 16 15 -21 15 -24 0 -39z m320 0 c-15 -15 -16 -13
-16 23 0 39 0 39 16 16 15 -21 15 -24 0 -39z m320 0 c-15 -15 -16 -13 -16 23
0 39 0 39 16 16 15 -21 15 -24 0 -39z m-517 1 c0 -34 -1 -36 -11 -16 -6 12 -8
29 -5 37 11 27 17 18 16 -21z m320 0 c0 -34 -1 -36 -11 -16 -6 12 -8 29 -5 37
11 27 17 18 16 -21z m320 0 c0 -34 -1 -36 -11 -16 -6 12 -8 29 -5 37 11 27 17
18 16 -21z"/>
</g>
<g transform="translate(0.000000,96.000000) scale(0.100000,-0.100000)"
fill="#838383" stroke="none">
<path d="M56 948 c4 -7 8 -24 9 -38 1 -29 28 -73 38 -63 4 3 7 -5 7 -19 0 -14
-7 -28 -15 -32 -8 -3 -15 -16 -16 -28 -1 -22 -1 -22 -8 2 l-7 25 -19 -30 c-10
-16 -25 -36 -34 -42 -12 -11 -13 -13 0 -13 12 0 12 -2 -1 -11 -13 -9 -13 -10
0 -6 8 2 14 9 13 15 -4 19 24 34 45 23 25 -13 32 -5 32 33 l0 30 16 -22 c14
-20 14 -24 -4 -47 -17 -22 -21 -23 -40 -9 -13 9 -23 11 -27 4 -4 -6 -3 -10 2
-9 4 1 16 -1 25 -5 15 -7 15 -9 -4 -28 -14 -14 -18 -27 -13 -41 4 -12 8 -34 9
-48 2 -29 30 -72 39 -62 4 3 7 -5 7 -19 0 -14 -7 -28 -15 -32 -8 -3 -15 -16
-16 -28 -1 -22 -1 -22 -8 2 l-7 25 -19 -30 c-10 -16 -25 -36 -34 -42 -12 -11
-13 -13 0 -13 12 0 12 -2 -1 -11 -13 -9 -13 -10 0 -6 8 2 14 9 13 15 -4 19 24
34 45 23 25 -13 32 -5 32 33 l0 30 16 -22 c14 -20 14 -24 -4 -47 -17 -22 -21
-23 -40 -9 -13 9 -23 11 -27 4 -4 -6 -3 -10 2 -9 4 1 16 -1 25 -5 15 -7 15 -9
-4 -28 -14 -14 -18 -27 -13 -41 4 -12 8 -34 9 -48 2 -29 30 -72 39 -62 4 3 7
-5 7 -19 0 -14 -7 -28 -15 -32 -8 -3 -15 -16 -16 -28 -1 -22 -1 -22 -8 2 l-7
25 -19 -30 c-10 -16 -25 -36 -34 -42 -12 -11 -13 -13 0 -13 12 0 12 -2 -1 -11
-13 -9 -13 -10 0 -6 8 2 15 9 15 15 0 22 22 34 43 23 25 -13 32 -6 32 33 l0
30 16 -22 c14 -20 14 -24 -4 -47 -17 -22 -21 -23 -40 -9 -13 9 -23 11 -27 4
-4 -6 -3 -10 2 -9 4 1 16 -1 25 -5 15 -7 15 -9 -3 -27 -40 -40 -17 -53 29 -14
23 19 32 22 42 12 10 -9 11 -9 6 0 -4 8 -1 13 8 13 9 0 13 -6 10 -14 -6 -16
36 -30 50 -16 5 5 -9 17 -33 29 -43 22 -48 30 -30 48 8 8 7 17 -3 32 -12 20
-10 24 12 42 23 20 36 49 21 49 -14 0 -45 -40 -48 -62 -6 -38 -10 -30 -11 19
-1 26 -6 49 -12 51 -5 2 -10 17 -10 34 0 26 3 29 22 22 13 -4 35 -19 49 -33
45 -44 89 -74 89 -60 0 7 3 9 7 6 7 -8 -16 -57 -28 -57 -4 0 -5 10 -2 23 4 15
2 19 -5 12 -16 -15 -19 -50 -4 -48 6 2 12 -5 12 -15 1 -15 2 -15 16 3 15 19
15 19 12 -10 -2 -20 -8 -29 -17 -27 -12 3 -12 0 -1 -13 11 -13 10 -15 -3 -9
-11 4 -14 0 -12 -13 2 -10 4 -24 4 -30 1 -21 21 -15 21 6 0 10 7 24 15 31 17
14 12 63 -7 87 -6 7 -5 19 3 32 11 17 10 23 -5 40 -11 12 -16 21 -11 21 4 0 2
7 -5 15 -7 8 -17 12 -24 9 -6 -3 -2 2 8 10 24 19 38 21 34 4 -4 -21 42 -100
55 -95 7 2 12 11 11 19 -1 8 5 15 12 15 7 0 11 -4 8 -8 -3 -5 5 -18 17 -30 17
-17 23 -19 30 -8 4 7 4 18 -1 25 -6 6 -6 15 -2 19 4 5 1 5 -6 1 -12 -7 -55 18
-99 57 -20 18 -21 22 -8 47 13 25 13 30 -1 41 -13 11 -15 10 -14 -2 5 -36 -1
-56 -17 -56 -10 0 -21 5 -25 11 -5 6 -8 2 -8 -11 0 -32 -18 -38 -48 -16 -39
29 -73 45 -70 34 5 -17 -17 -12 -30 7 -10 16 -10 22 -1 28 8 4 9 3 5 -4 -12
-20 10 -13 29 8 15 16 21 18 33 7 13 -9 14 -9 8 1 -4 7 -1 12 8 12 9 0 13 -6
10 -14 -6 -16 36 -30 50 -16 5 5 -9 17 -33 29 -43 22 -48 30 -30 48 8 8 7 17
-3 32 -12 20 -10 24 12 42 23 20 36 49 21 49 -14 0 -45 -40 -48 -62 -6 -38
-10 -30 -11 19 -1 26 -6 49 -12 51 -5 2 -10 17 -10 34 0 26 3 29 22 22 13 -4
35 -19 49 -33 45 -44 89 -74 89 -60 0 7 3 9 7 6 7 -8 -16 -57 -28 -57 -4 0 -5
10 -2 23 4 15 2 19 -5 12 -16 -15 -19 -50 -4 -47 6 1 12 -6 12 -15 1 -16 2
-16 16 2 15 19 15 19 12 -10 -2 -20 -8 -29 -17 -27 -12 3 -12 0 -1 -13 11 -13
10 -15 -3 -9 -11 4 -14 0 -12 -13 2 -10 4 -26 4 -36 1 -23 21 -12 21 12 0 10
7 24 15 31 17 14 12 63 -7 87 -6 7 -5 19 3 32 11 17 10 23 -5 40 -11 12 -16
21 -11 21 4 0 2 7 -5 15 -7 8 -17 12 -24 9 -6 -3 -2 2 8 10 24 19 38 21 34 4
-4 -21 42 -100 55 -95 7 2 12 11 11 19 -1 8 5 15 12 15 7 0 11 -4 8 -8 -3 -5
5 -18 17 -30 17 -17 23 -19 30 -8 4 7 4 18 -1 25 -6 6 -6 15 -2 19 4 5 1 5 -6
1 -12 -7 -55 18 -99 57 -20 18 -21 22 -8 47 13 25 13 30 -1 41 -13 11 -15 10
-14 -2 5 -36 -1 -56 -17 -56 -10 0 -21 5 -25 11 -5 6 -8 2 -8 -11 0 -32 -18
-38 -48 -16 -37 27 -73 46 -70 36 6 -17 -18 -13 -30 5 -10 16 -10 22 -1 28 8
4 9 3 5 -4 -12 -20 10 -13 29 8 15 16 21 18 33 7 13 -9 14 -9 8 1 -4 7 -1 12
8 12 9 0 13 -6 10 -14 -6 -16 36 -30 50 -16 5 5 -9 17 -33 29 -43 22 -48 30
-30 48 8 8 7 17 -3 32 -12 20 -10 24 12 42 23 20 36 49 21 49 -14 0 -45 -40
-48 -62 -6 -38 -10 -30 -11 19 -1 26 -6 49 -12 51 -5 2 -10 17 -10 34 0 26 3
29 22 22 13 -4 35 -19 49 -33 45 -44 89 -74 89 -60 0 7 3 9 7 6 7 -8 -16 -57
-28 -57 -4 0 -5 10 -2 23 4 15 2 19 -5 12 -16 -15 -19 -50 -4 -48 6 2 12 -5
12 -15 1 -15 2 -15 16 3 15 19 15 19 12 -10 -2 -20 -8 -29 -17 -27 -12 3 -12
0 -1 -13 11 -13 10 -15 -3 -9 -11 4 -14 0 -12 -13 2 -10 4 -26 4 -36 1 -23 21
-12 21 12 0 10 7 24 15 31 17 14 12 63 -7 87 -6 7 -5 19 3 32 11 17 10 23 -5
40 -11 12 -16 21 -11 21 4 0 2 7 -5 15 -7 8 -17 12 -24 9 -6 -3 -2 2 8 10 24
19 38 21 34 4 -4 -21 42 -100 55 -95 7 2 11 11 11 19 -1 8 5 15 12 15 7 0 11
-4 8 -8 -3 -5 5 -18 17 -30 17 -17 23 -19 30 -8 4 7 4 18 -1 25 -6 6 -6 15 -2
19 4 5 1 5 -6 1 -12 -7 -55 18 -99 57 -17 15 -20 24 -12 38 6 13 6 19 -1 19
-5 0 -10 -6 -10 -13 0 -16 -32 -18 -42 -3 -5 6 -8 2 -8 -11 0 -32 -18 -38 -48
-16 -38 28 -76 47 -68 35 10 -17 -11 -23 -24 -7 -15 18 -34 20 -24 3z m74 -13
c0 -3 -2 -5 -5 -5 -3 0 -5 2 -5 5 0 3 2 5 5 5 3 0 5 -2 5 -5z m98 -48 c6 0 12
-9 12 -19 0 -18 -2 -18 -32 3 -45 31 -46 33 -18 24 14 -5 31 -8 38 -8z m102
-59 c0 -20 -17 -4 -37 35 l-23 42 30 -35 c17 -19 30 -38 30 -42z m-250 57 c0
-3 -2 -5 -5 -5 -3 0 -5 2 -5 5 0 3 2 5 5 5 3 0 5 -2 5 -5z m99 -48 c-2 -1 -13
-9 -24 -17 -19 -14 -19 -14 -6 3 7 9 18 17 24 17 6 0 8 -1 6 -3z m191 -2 c0
-3 -2 -5 -5 -5 -3 0 -5 2 -5 5 0 3 2 5 5 5 3 0 5 -2 5 -5z m20 -9 c0 -3 -5 -8
-12 -12 -7 -4 -8 -3 -4 4 7 12 16 16 16 8z m-160 -51 c0 -3 -2 -5 -5 -5 -3 0
-5 2 -5 5 0 3 2 5 5 5 3 0 5 -2 5 -5z m-101 -59 c-12 -20 -24 -34 -27 -31 -3
3 4 19 17 35 12 17 19 36 15 43 -5 9 -4 9 5 1 9 -9 7 -20 -10 -48z m11 -21 c0
-3 -2 -5 -5 -5 -3 0 -5 2 -5 5 0 3 2 5 5 5 3 0 5 -2 5 -5z m55 -25 c3 -6 -1
-7 -9 -4 -18 7 -21 14 -7 14 6 0 13 -4 16 -10z m-65 -55 c0 -3 -2 -5 -5 -5 -3
0 -5 2 -5 5 0 3 2 5 5 5 3 0 5 -2 5 -5z m98 -48 c6 0 12 -9 12 -19 0 -18 -2
-18 -32 3 -45 31 -46 33 -18 24 14 -5 31 -8 38 -8z m102 -59 c0 -20 -17 -4
-37 35 l-23 42 30 -35 c17 -19 30 -38 30 -42z m-250 57 c0 -3 -2 -5 -5 -5 -3
0 -5 2 -5 5 0 3 2 5 5 5 3 0 5 -2 5 -5z m99 -48 c-2 -1 -13 -9 -24 -17 -19
-14 -19 -14 -6 3 7 9 18 17 24 17 6 0 8 -1 6 -3z m191 -2 c0 -3 -2 -5 -5 -5
-3 0 -5 2 -5 5 0 3 2 5 5 5 3 0 5 -2 5 -5z m20 -9 c0 -3 -5 -8 -12 -12 -7 -4
-8 -3 -4 4 7 12 16 16 16 8z m-160 -51 c0 -3 -2 -5 -5 -5 -3 0 -5 2 -5 5 0 3
2 5 5 5 3 0 5 -2 5 -5z m-101 -59 c-12 -20 -24 -34 -27 -31 -3 3 4 19 17 35
12 17 19 36 15 43 -5 9 -4 9 5 1 9 -9 7 -20 -10 -48z m11 -21 c0 -3 -2 -5 -5
-5 -3 0 -5 2 -5 5 0 3 2 5 5 5 3 0 5 -2 5 -5z m55 -25 c3 -6 -1 -7 -9 -4 -18
7 -21 14 -7 14 6 0 13 -4 16 -10z m-65 -55 c0 -3 -2 -5 -5 -5 -3 0 -5 2 -5 5
0 3 2 5 5 5 3 0 5 -2 5 -5z m98 -48 c6 0 12 -9 12 -19 0 -18 -2 -18 -32 3 -45
31 -46 33 -18 24 14 -5 31 -8 38 -8z m102 -59 c0 -20 -17 -4 -37 35 l-23 42
30 -35 c17 -19 30 -38 30 -42z m-250 57 c0 -3 -2 -5 -5 -5 -3 0 -5 2 -5 5 0 3
2 5 5 5 3 0 5 -2 5 -5z m99 -48 c-2 -1 -13 -9 -24 -17 -19 -14 -19 -14 -6 3 7
9 18 17 24 17 6 0 8 -1 6 -3z m191 -2 c0 -3 -2 -5 -5 -5 -3 0 -5 2 -5 5 0 3 2
5 5 5 3 0 5 -2 5 -5z m20 -9 c0 -3 -5 -8 -12 -12 -7 -4 -8 -3 -4 4 7 12 16 16
16 8z m-160 -51 c0 -3 -2 -5 -5 -5 -3 0 -5 2 -5 5 0 3 2 5 5 5 3 0 5 -2 5 -5z
m-101 -59 c-12 -20 -24 -34 -27 -31 -3 3 4 19 17 35 12 17 19 36 15 43 -5 9
-4 9 5 1 9 -9 7 -20 -10 -48z m11 -21 c0 -3 -2 -5 -5 -5 -3 0 -5 2 -5 5 0 3 2
5 5 5 3 0 5 -2 5 -5z m55 -25 c3 -6 -1 -7 -9 -4 -18 7 -21 14 -7 14 6 0 13 -4
16 -10z m-115 -4 c0 -3 -5 -8 -12 -12 -7 -4 -8 -3 -4 4 7 12 16 16 16 8z"/>
<path d="M240 955 c0 -3 2 -5 5 -5 3 0 5 2 5 5 0 3 -2 5 -5 5 -3 0 -5 -2 -5
-5z"/>
<path d="M376 948 c4 -7 8 -24 9 -38 1 -29 28 -73 38 -63 4 3 7 -5 7 -19 0
-14 -7 -28 -15 -32 -8 -3 -15 -16 -16 -28 -1 -22 -1 -22 -8 2 l-8 25 -22 -36
c-12 -20 -31 -39 -42 -42 -12 -3 -18 -10 -14 -16 3 -6 -2 -11 -12 -12 -10 0
-13 -3 -7 -5 16 -7 66 14 60 25 -11 17 21 33 42 22 25 -13 32 -5 32 33 l0 30
16 -22 c14 -20 14 -24 -4 -47 -17 -22 -21 -23 -40 -9 -13 9 -23 11 -27 4 -4
-6 -3 -10 2 -9 4 1 16 -1 25 -5 15 -7 15 -9 -4 -28 -14 -14 -18 -27 -13 -41 4
-12 8 -34 9 -48 2 -29 30 -72 39 -62 4 3 7 -5 7 -19 0 -14 -7 -28 -15 -32 -8
-3 -15 -16 -16 -28 -1 -22 -1 -22 -8 2 l-8 25 -22 -36 c-12 -20 -31 -39 -42
-42 -12 -3 -18 -10 -14 -16 3 -6 -2 -11 -12 -12 -10 0 -13 -3 -7 -5 16 -7 66
14 60 25 -11 17 21 33 42 22 25 -13 32 -5 32 33 l0 30 16 -22 c14 -20 14 -24
-4 -47 -17 -22 -21 -23 -40 -9 -13 9 -23 11 -27 4 -4 -6 -3 -10 2 -9 4 1 16
-1 25 -5 15 -7 15 -9 -4 -28 -14 -14 -18 -27 -13 -41 4 -12 8 -34 9 -48 2 -29
30 -72 39 -62 4 3 7 -5 7 -19 0 -14 -7 -28 -15 -32 -8 -3 -15 -16 -16 -28 -1
-22 -1 -22 -8 2 l-8 25 -22 -36 c-12 -20 -31 -39 -42 -42 -12 -3 -18 -10 -15
-15 3 -5 -3 -12 -14 -15 -18 -5 -26 -47 -8 -47 13 0 18 19 6 26 -8 5 1 12 23
19 18 7 34 17 34 23 0 22 22 34 43 23 25 -13 32 -6 32 33 l0 30 16 -22 c14
-20 14 -24 -4 -47 -17 -22 -21 -23 -40 -9 -13 9 -23 11 -27 4 -4 -6 -3 -10 2
-9 4 1 16 -1 25 -5 15 -7 15 -9 -3 -27 -40 -40 -17 -53 29 -14 23 19 32 22 42
12 10 -9 11 -9 6 0 -4 8 -1 13 8 13 9 0 13 -6 10 -14 -6 -16 36 -30 50 -16 5
5 -9 17 -33 29 -43 22 -48 30 -30 48 8 8 7 17 -3 32 -12 20 -10 24 12 42 23
20 36 49 21 49 -14 0 -45 -40 -48 -62 -6 -38 -10 -30 -11 19 -1 26 -6 49 -12
51 -5 2 -10 17 -10 34 0 26 3 29 22 22 13 -4 35 -19 49 -33 45 -44 89 -74 89
-60 0 7 3 9 7 6 7 -8 -16 -57 -28 -57 -4 0 -5 10 -2 23 4 15 2 19 -5 12 -16
-15 -19 -50 -4 -48 6 2 12 -5 12 -15 1 -15 2 -15 16 3 15 19 15 19 12 -10 -2
-20 -8 -29 -17 -27 -12 3 -12 0 -1 -13 11 -13 10 -15 -3 -9 -11 4 -14 0 -12
-13 2 -10 4 -24 4 -30 1 -21 21 -15 21 6 0 10 7 24 15 31 17 14 12 63 -7 87
-6 7 -5 19 3 32 11 17 10 23 -5 40 -11 12 -16 21 -11 21 4 0 2 7 -5 15 -7 8
-17 12 -24 9 -6 -3 -2 2 8 10 24 19 38 21 34 4 -4 -21 42 -100 55 -95 7 2 12
11 11 19 -1 8 5 15 12 15 7 0 11 -4 8 -8 -3 -5 5 -18 17 -30 17 -17 23 -19 30
-8 4 7 4 18 -1 25 -6 6 -6 15 -2 19 4 5 1 5 -6 1 -12 -7 -55 18 -99 57 -20 18
-21 22 -8 47 13 25 13 30 -1 41 -13 11 -15 10 -14 -2 5 -36 -1 -56 -17 -56
-10 0 -21 5 -25 11 -5 6 -8 2 -8 -11 0 -32 -18 -38 -48 -16 -39 29 -73 45 -70
34 5 -17 -17 -12 -30 7 -10 16 -10 22 -1 28 8 4 9 3 5 -4 -12 -20 10 -13 29 8
15 16 21 18 33 7 13 -9 14 -9 8 1 -4 7 -1 12 8 12 9 0 13 -6 10 -14 -6 -16 36
-30 50 -16 5 5 -9 17 -33 29 -43 22 -48 30 -30 48 8 8 7 17 -3 32 -12 20 -10
24 12 42 23 20 36 49 21 49 -14 0 -45 -40 -48 -62 -6 -38 -10 -30 -11 19 -1
26 -6 49 -12 51 -5 2 -10 17 -10 34 0 26 3 29 22 22 13 -4 35 -19 49 -33 45
-44 89 -74 89 -60 0 7 3 9 7 6 7 -8 -16 -57 -28 -57 -4 0 -5 10 -2 23 4 15 2
19 -5 12 -16 -15 -19 -50 -4 -47 6 1 12 -6 12 -15 1 -16 2 -16 16 2 15 19 15
19 12 -10 -2 -20 -8 -29 -17 -27 -12 3 -12 0 -1 -13 11 -13 10 -15 -3 -9 -11
4 -14 0 -12 -13 2 -10 4 -26 4 -36 1 -23 21 -12 21 12 0 10 7 24 15 31 17 14
12 63 -7 87 -6 7 -5 19 3 32 11 17 10 23 -5 40 -11 12 -16 21 -11 21 4 0 2 7
-5 15 -7 8 -17 12 -24 9 -6 -3 -2 2 8 10 24 19 38 21 34 4 -4 -21 42 -100 55
-95 7 2 12 11 11 19 -1 8 5 15 12 15 7 0 11 -4 8 -8 -3 -5 5 -18 17 -30 17
-17 23 -19 30 -8 4 7 4 18 -1 25 -6 6 -6 15 -2 19 4 5 1 5 -6 1 -12 -7 -55 18
-99 57 -20 18 -21 22 -8 47 13 25 13 30 -1 41 -13 11 -15 10 -14 -2 5 -36 -1
-56 -17 -56 -10 0 -21 5 -25 11 -5 6 -8 2 -8 -11 0 -32 -18 -38 -48 -16 -37
27 -73 46 -70 36 6 -17 -18 -13 -30 5 -10 16 -10 22 -1 28 8 4 9 3 5 -4 -12
-20 10 -13 29 8 15 16 21 18 33 7 13 -9 14 -9 8 1 -4 7 -1 12 8 12 9 0 13 -6
10 -14 -6 -16 36 -30 50 -16 5 5 -9 17 -33 29 -43 22 -48 30 -30 48 8 8 7 17
-3 32 -12 20 -10 24 12 42 23 20 36 49 21 49 -14 0 -45 -40 -48 -62 -6 -38
-10 -30 -11 19 -1 26 -6 49 -12 51 -5 2 -10 17 -10 34 0 26 3 29 22 22 13 -4
35 -19 49 -33 45 -44 89 -74 89 -60 0 7 3 9 7 6 7 -8 -16 -57 -28 -57 -4 0 -5
10 -2 23 4 15 2 19 -5 12 -16 -15 -19 -50 -4 -48 6 2 12 -5 12 -15 1 -15 2
-15 16 3 15 19 15 19 12 -10 -2 -20 -8 -29 -17 -27 -12 3 -12 0 -1 -13 11 -13
10 -15 -3 -9 -11 4 -14 0 -12 -13 2 -10 4 -26 4 -36 1 -23 21 -12 21 12 0 10
7 24 15 31 17 14 12 63 -7 87 -6 7 -5 19 3 32 11 17 10 23 -5 40 -11 12 -16
21 -11 21 4 0 2 7 -5 15 -7 8 -17 12 -24 9 -6 -3 -2 2 8 10 24 19 38 21 34 4
-4 -21 42 -100 55 -95 7 2 12 11 11 19 -1 8 5 15 12 15 7 0 11 -4 8 -8 -3 -5
5 -18 17 -30 17 -17 23 -19 30 -8 4 7 4 18 -1 25 -6 6 -6 15 -2 19 4 5 1 5 -6
1 -12 -7 -55 18 -99 57 -17 15 -20 24 -12 38 6 13 6 19 -1 19 -5 0 -10 -6 -10
-13 0 -16 -32 -18 -42 -3 -5 6 -8 2 -8 -11 0 -32 -18 -38 -48 -16 -38 28 -76
47 -68 35 10 -17 -11 -23 -24 -7 -15 18 -34 20 -24 3z m74 -13 c0 -3 -2 -5 -5
-5 -3 0 -5 2 -5 5 0 3 2 5 5 5 3 0 5 -2 5 -5z m98 -48 c6 0 12 -9 12 -19 0
-18 -2 -18 -32 3 -45 31 -46 33 -18 24 14 -5 31 -8 38 -8z m102 -59 c0 -20
-17 -4 -37 35 l-23 42 30 -35 c17 -19 30 -38 30 -42z m-250 57 c0 -3 -2 -5 -5
-5 -3 0 -5 2 -5 5 0 3 2 5 5 5 3 0 5 -2 5 -5z m99 -48 c-2 -1 -13 -9 -24 -17
-19 -14 -19 -14 -6 3 7 9 18 17 24 17 6 0 8 -1 6 -3z m191 -2 c0 -3 -2 -5 -5
-5 -3 0 -5 2 -5 5 0 3 2 5 5 5 3 0 5 -2 5 -5z m20 -9 c0 -3 -5 -8 -12 -12 -7
-4 -8 -3 -4 4 7 12 16 16 16 8z m-160 -51 c0 -3 -2 -5 -5 -5 -3 0 -5 2 -5 5 0
3 2 5 5 5 3 0 5 -2 5 -5z m-101 -59 c-12 -20 -24 -34 -27 -31 -3 3 4 19 17 35
12 17 19 36 15 43 -5 9 -4 9 5 1 9 -9 7 -20 -10 -48z m-112 -12 c-3 -3 -12 -4
-19 -1 -8 3 -5 6 6 6 11 1 17 -2 13 -5z m123 -9 c0 -3 -2 -5 -5 -5 -3 0 -5 2
-5 5 0 3 2 5 5 5 3 0 5 -2 5 -5z m55 -25 c3 -6 -1 -7 -9 -4 -18 7 -21 14 -7
14 6 0 13 -4 16 -10z m-65 -55 c0 -3 -2 -5 -5 -5 -3 0 -5 2 -5 5 0 3 2 5 5 5
3 0 5 -2 5 -5z m98 -48 c6 0 12 -9 12 -19 0 -18 -2 -18 -32 3 -45 31 -46 33
-18 24 14 -5 31 -8 38 -8z m102 -59 c0 -20 -17 -4 -37 35 l-23 42 30 -35 c17
-19 30 -38 30 -42z m-250 57 c0 -3 -2 -5 -5 -5 -3 0 -5 2 -5 5 0 3 2 5 5 5 3
0 5 -2 5 -5z m99 -48 c-2 -1 -13 -9 -24 -17 -19 -14 -19 -14 -6 3 7 9 18 17
24 17 6 0 8 -1 6 -3z m191 -2 c0 -3 -2 -5 -5 -5 -3 0 -5 2 -5 5 0 3 2 5 5 5 3
0 5 -2 5 -5z m20 -9 c0 -3 -5 -8 -12 -12 -7 -4 -8 -3 -4 4 7 12 16 16 16 8z
m-160 -51 c0 -3 -2 -5 -5 -5 -3 0 -5 2 -5 5 0 3 2 5 5 5 3 0 5 -2 5 -5z m-101
-59 c-12 -20 -24 -34 -27 -31 -3 3 4 19 17 35 12 17 19 36 15 43 -5 9 -4 9 5
1 9 -9 7 -20 -10 -48z m-112 -12 c-3 -3 -12 -4 -19 -1 -8 3 -5 6 6 6 11 1 17
-2 13 -5z m123 -9 c0 -3 -2 -5 -5 -5 -3 0 -5 2 -5 5 0 3 2 5 5 5 3 0 5 -2 5
-5z m55 -25 c3 -6 -1 -7 -9 -4 -18 7 -21 14 -7 14 6 0 13 -4 16 -10z m-65 -55
c0 -3 -2 -5 -5 -5 -3 0 -5 2 -5 5 0 3 2 5 5 5 3 0 5 -2 5 -5z m98 -48 c6 0 12
-9 12 -19 0 -18 -2 -18 -32 3 -45 31 -46 33 -18 24 14 -5 31 -8 38 -8z m102
-59 c0 -20 -17 -4 -37 35 l-23 42 30 -35 c17 -19 30 -38 30 -42z m-250 57 c0
-3 -2 -5 -5 -5 -3 0 -5 2 -5 5 0 3 2 5 5 5 3 0 5 -2 5 -5z m99 -48 c-2 -1 -13
-9 -24 -17 -19 -14 -19 -14 -6 3 7 9 18 17 24 17 6 0 8 -1 6 -3z m191 -2 c0
-3 -2 -5 -5 -5 -3 0 -5 2 -5 5 0 3 2 5 5 5 3 0 5 -2 5 -5z m20 -9 c0 -3 -5 -8
-12 -12 -7 -4 -8 -3 -4 4 7 12 16 16 16 8z m-160 -51 c0 -3 -2 -5 -5 -5 -3 0
-5 2 -5 5 0 3 2 5 5 5 3 0 5 -2 5 -5z m-101 -59 c-12 -20 -24 -34 -27 -31 -3
3 4 19 17 35 12 17 19 36 15 43 -5 9 -4 9 5 1 9 -9 7 -20 -10 -48z m-112 -12
c-3 -3 -12 -4 -19 -1 -8 3 -5 6 6 6 11 1 17 -2 13 -5z m123 -9 c0 -3 -2 -5 -5
-5 -3 0 -5 2 -5 5 0 3 2 5 5 5 3 0 5 -2 5 -5z m55 -25 c3 -6 -1 -7 -9 -4 -18
7 -21 14 -7 14 6 0 13 -4 16 -10z m-115 -4 c0 -3 -5 -8 -12 -12 -7 -4 -8 -3
-4 4 7 12 16 16 16 8z"/>
<path d="M560 955 c0 -3 2 -5 5 -5 3 0 5 2 5 5 0 3 -2 5 -5 5 -3 0 -5 -2 -5
-5z"/>
<path d="M696 948 c4 -7 8 -24 9 -38 1 -29 28 -73 38 -63 4 3 7 -5 7 -19 0
-14 -7 -28 -15 -32 -8 -3 -15 -16 -16 -28 -1 -22 -1 -22 -8 2 l-8 25 -22 -36
c-12 -20 -31 -39 -42 -42 -12 -3 -18 -10 -14 -16 3 -6 -2 -11 -12 -12 -10 0
-13 -3 -7 -5 16 -7 66 14 60 25 -11 17 21 33 42 22 25 -13 32 -5 32 33 l0 30
16 -22 c14 -20 14 -24 -4 -47 -17 -22 -21 -23 -40 -9 -13 9 -23 11 -27 4 -4
-6 -3 -10 2 -9 4 1 16 -1 25 -5 15 -7 15 -9 -4 -28 -14 -14 -18 -27 -13 -41 4
-12 8 -34 9 -48 2 -29 30 -72 39 -62 4 3 7 -5 7 -19 0 -14 -7 -28 -15 -32 -8
-3 -15 -16 -16 -28 -1 -22 -1 -22 -8 2 l-8 25 -22 -36 c-12 -20 -31 -39 -42
-42 -12 -3 -18 -10 -14 -16 3 -6 -2 -11 -12 -12 -10 0 -13 -3 -7 -5 16 -7 66
14 60 25 -11 17 21 33 42 22 25 -13 32 -5 32 33 l0 30 16 -22 c14 -20 14 -24
-4 -47 -17 -22 -21 -23 -40 -9 -13 9 -23 11 -27 4 -4 -6 -3 -10 2 -9 4 1 16
-1 25 -5 15 -7 15 -9 -4 -28 -14 -14 -18 -27 -13 -41 4 -12 8 -34 9 -48 2 -29
30 -72 39 -62 4 3 7 -5 7 -19 0 -14 -7 -28 -15 -32 -8 -3 -15 -16 -16 -28 -1
-22 -1 -22 -8 2 l-8 25 -22 -36 c-12 -20 -31 -39 -42 -42 -12 -3 -18 -10 -15
-15 3 -5 -3 -12 -14 -15 -18 -5 -26 -47 -8 -47 13 0 18 19 6 26 -8 5 1 12 23
19 18 7 34 17 34 23 0 22 22 34 43 23 25 -13 32 -6 32 33 l0 30 16 -22 c14
-20 14 -24 -4 -47 -17 -22 -21 -23 -40 -9 -13 9 -23 11 -27 4 -4 -6 -3 -10 2
-9 4 1 16 -1 25 -5 15 -7 15 -9 -3 -27 -40 -40 -17 -53 29 -14 23 19 32 22 42
12 10 -9 11 -9 6 0 -4 8 -1 13 8 13 9 0 13 -6 10 -14 -6 -16 36 -30 50 -16 5
5 -9 17 -33 29 -43 22 -48 30 -30 48 8 8 7 17 -3 32 -12 20 -10 24 12 42 23
20 36 49 21 49 -14 0 -45 -40 -48 -62 -6 -38 -10 -30 -11 19 -1 26 -6 49 -12
51 -5 2 -10 17 -10 34 0 26 3 29 22 22 13 -4 35 -19 49 -33 45 -44 89 -74 89
-60 0 7 3 9 7 6 7 -8 -16 -57 -28 -57 -4 0 -5 10 -2 23 4 15 2 19 -5 12 -16
-15 -19 -50 -4 -48 6 2 12 -5 12 -15 1 -15 2 -15 16 3 15 19 15 19 12 -10 -2
-20 -8 -29 -17 -27 -12 3 -12 0 -1 -13 11 -13 10 -15 -3 -9 -11 4 -14 0 -12
-13 2 -10 4 -24 4 -30 1 -21 21 -15 21 6 0 10 7 24 15 31 17 14 12 63 -7 87
-6 7 -5 19 3 32 11 17 10 23 -5 40 -11 12 -16 21 -11 21 4 0 2 7 -5 15 -7 8
-17 12 -24 9 -6 -3 -2 2 8 10 24 19 38 21 34 4 -2 -14 39 -98 47 -98 3 0 -1
13 -10 30 -19 37 -19 51 0 26 12 -15 15 -16 15 -5 0 9 -11 26 -25 39 -22 21
-23 25 -10 50 13 25 13 30 -1 41 -13 11 -15 10 -14 -2 5 -36 -1 -56 -17 -56
-10 0 -21 5 -25 11 -5 6 -8 2 -8 -11 0 -32 -18 -38 -48 -16 -39 29 -73 45 -70
34 5 -17 -17 -12 -30 7 -10 16 -10 22 -1 28 8 4 9 3 5 -4 -12 -20 10 -13 29 8
15 16 21 18 33 7 13 -9 14 -9 8 1 -4 7 -1 12 8 12 9 0 13 -6 10 -14 -6 -16 36
-30 50 -16 5 5 -9 17 -33 29 -43 22 -48 30 -30 48 8 8 7 17 -3 32 -12 20 -10
24 12 42 23 20 36 49 21 49 -14 0 -45 -40 -48 -62 -6 -38 -10 -30 -11 19 -1
26 -6 49 -12 51 -5 2 -10 17 -10 34 0 26 3 29 22 22 13 -4 35 -19 49 -33 45
-44 89 -74 89 -60 0 7 3 9 7 6 7 -8 -16 -57 -28 -57 -4 0 -5 10 -2 23 4 15 2
19 -5 12 -16 -15 -19 -50 -4 -47 6 1 12 -6 12 -15 1 -16 2 -16 16 2 15 19 15
19 12 -10 -2 -20 -8 -29 -17 -27 -12 3 -12 0 -1 -13 11 -13 10 -15 -3 -9 -11
4 -14 0 -12 -13 2 -10 4 -26 4 -36 1 -23 21 -12 21 12 0 10 7 24 15 31 17 14
12 63 -7 87 -6 7 -5 19 3 32 11 17 10 23 -5 40 -11 12 -16 21 -11 21 4 0 2 7
-5 15 -7 8 -17 12 -24 9 -6 -3 -2 2 8 10 24 19 38 21 34 4 -2 -14 39 -98 47
-98 3 0 -1 13 -10 30 -19 37 -19 51 0 26 12 -15 15 -16 15 -5 0 9 -11 26 -25
39 -22 21 -23 25 -10 50 13 25 13 30 -1 41 -13 11 -15 10 -14 -2 5 -36 -1 -56
-17 -56 -10 0 -21 5 -25 11 -5 6 -8 2 -8 -11 0 -32 -18 -38 -48 -16 -37 27
-73 46 -70 36 6 -17 -18 -13 -30 5 -10 16 -10 22 -1 28 8 4 9 3 5 -4 -12 -20
10 -13 29 8 15 16 21 18 33 7 13 -9 14 -9 8 1 -4 7 -1 12 8 12 9 0 13 -6 10
-14 -6 -16 36 -30 50 -16 5 5 -9 17 -33 29 -43 22 -48 30 -30 48 8 8 7 17 -3
32 -12 20 -10 24 12 42 23 20 36 49 21 49 -14 0 -45 -40 -48 -62 -6 -38 -10
-30 -11 19 -1 26 -6 49 -12 51 -5 2 -10 17 -10 34 0 26 3 29 22 22 13 -4 35
-19 49 -33 45 -44 89 -74 89 -60 0 7 3 9 7 6 7 -8 -16 -57 -28 -57 -4 0 -5 10
-2 23 4 15 2 19 -5 12 -16 -15 -19 -50 -4 -48 6 2 12 -5 12 -15 1 -15 2 -15
16 3 15 19 15 19 12 -10 -2 -20 -8 -29 -17 -27 -12 3 -12 0 -1 -13 11 -13 10
-15 -3 -9 -11 4 -14 0 -12 -13 2 -10 4 -26 4 -36 1 -23 21 -12 21 12 0 10 7
24 15 31 17 14 12 63 -7 87 -6 7 -5 19 3 32 11 17 10 23 -5 40 -11 12 -16 21
-11 21 4 0 2 7 -5 15 -7 8 -17 12 -24 9 -6 -3 -2 2 8 10 24 19 38 21 34 4 -2
-14 39 -98 47 -98 3 0 -1 13 -10 30 -19 37 -19 51 0 26 12 -15 15 -16 15 -5 0
9 -11 26 -25 39 -19 18 -22 27 -14 41 6 13 6 19 -1 19 -5 0 -10 -6 -10 -13 0
-16 -32 -18 -42 -3 -5 6 -8 2 -8 -11 0 -32 -18 -38 -48 -16 -38 28 -76 47 -68
35 10 -17 -11 -23 -24 -7 -15 18 -34 20 -24 3z m74 -13 c0 -3 -2 -5 -5 -5 -3
0 -5 2 -5 5 0 3 2 5 5 5 3 0 5 -2 5 -5z m98 -48 c6 0 12 -9 12 -19 0 -18 -2
-18 -32 3 -45 31 -46 33 -18 24 14 -5 31 -8 38 -8z m57 3 c3 -5 4 -10 1 -10
-3 0 -8 5 -11 10 -3 6 -4 10 -1 10 3 0 8 -4 11 -10z m-205 -5 c0 -3 -2 -5 -5
-5 -3 0 -5 2 -5 5 0 3 2 5 5 5 3 0 5 -2 5 -5z m99 -48 c-2 -1 -13 -9 -24 -17
-19 -14 -19 -14 -6 3 7 9 18 17 24 17 6 0 8 -1 6 -3z m51 -62 c0 -3 -2 -5 -5
-5 -3 0 -5 2 -5 5 0 3 2 5 5 5 3 0 5 -2 5 -5z m-101 -59 c-12 -20 -24 -34 -27
-31 -3 3 4 19 17 35 12 17 19 36 15 43 -5 9 -4 9 5 1 9 -9 7 -20 -10 -48z
m-112 -12 c-3 -3 -12 -4 -19 -1 -8 3 -5 6 6 6 11 1 17 -2 13 -5z m123 -9 c0
-3 -2 -5 -5 -5 -3 0 -5 2 -5 5 0 3 2 5 5 5 3 0 5 -2 5 -5z m55 -25 c3 -6 -1
-7 -9 -4 -18 7 -21 14 -7 14 6 0 13 -4 16 -10z m-65 -55 c0 -3 -2 -5 -5 -5 -3
0 -5 2 -5 5 0 3 2 5 5 5 3 0 5 -2 5 -5z m98 -48 c6 0 12 -9 12 -19 0 -18 -2
-18 -32 3 -45 31 -46 33 -18 24 14 -5 31 -8 38 -8z m57 3 c3 -5 4 -10 1 -10
-3 0 -8 5 -11 10 -3 6 -4 10 -1 10 3 0 8 -4 11 -10z m-205 -5 c0 -3 -2 -5 -5
-5 -3 0 -5 2 -5 5 0 3 2 5 5 5 3 0 5 -2 5 -5z m99 -48 c-2 -1 -13 -9 -24 -17
-19 -14 -19 -14 -6 3 7 9 18 17 24 17 6 0 8 -1 6 -3z m51 -62 c0 -3 -2 -5 -5
-5 -3 0 -5 2 -5 5 0 3 2 5 5 5 3 0 5 -2 5 -5z m-101 -59 c-12 -20 -24 -34 -27
-31 -3 3 4 19 17 35 12 17 19 36 15 43 -5 9 -4 9 5 1 9 -9 7 -20 -10 -48z
m-112 -12 c-3 -3 -12 -4 -19 -1 -8 3 -5 6 6 6 11 1 17 -2 13 -5z m123 -9 c0
-3 -2 -5 -5 -5 -3 0 -5 2 -5 5 0 3 2 5 5 5 3 0 5 -2 5 -5z m55 -25 c3 -6 -1
-7 -9 -4 -18 7 -21 14 -7 14 6 0 13 -4 16 -10z m-65 -55 c0 -3 -2 -5 -5 -5 -3
0 -5 2 -5 5 0 3 2 5 5 5 3 0 5 -2 5 -5z m98 -48 c6 0 12 -9 12 -19 0 -18 -2
-18 -32 3 -45 31 -46 33 -18 24 14 -5 31 -8 38 -8z m57 3 c3 -5 4 -10 1 -10
-3 0 -8 5 -11 10 -3 6 -4 10 -1 10 3 0 8 -4 11 -10z m-205 -5 c0 -3 -2 -5 -5
-5 -3 0 -5 2 -5 5 0 3 2 5 5 5 3 0 5 -2 5 -5z m99 -48 c-2 -1 -13 -9 -24 -17
-19 -14 -19 -14 -6 3 7 9 18 17 24 17 6 0 8 -1 6 -3z m51 -62 c0 -3 -2 -5 -5
-5 -3 0 -5 2 -5 5 0 3 2 5 5 5 3 0 5 -2 5 -5z m-101 -59 c-12 -20 -24 -34 -27
-31 -3 3 4 19 17 35 12 17 19 36 15 43 -5 9 -4 9 5 1 9 -9 7 -20 -10 -48z
m-112 -12 c-3 -3 -12 -4 -19 -1 -8 3 -5 6 6 6 11 1 17 -2 13 -5z m123 -9 c0
-3 -2 -5 -5 -5 -3 0 -5 2 -5 5 0 3 2 5 5 5 3 0 5 -2 5 -5z m55 -25 c3 -6 -1
-7 -9 -4 -18 7 -21 14 -7 14 6 0 13 -4 16 -10z m-115 -4 c0 -3 -5 -8 -12 -12
-7 -4 -8 -3 -4 4 7 12 16 16 16 8z"/>
<path d="M880 955 c0 -3 2 -5 5 -5 3 0 5 2 5 5 0 3 -2 5 -5 5 -3 0 -5 -2 -5
-5z"/>
<path d="M2 847 c2 -19 7 -33 11 -30 5 3 6 11 4 17 -3 7 1 13 9 13 7 0 11 -4
8 -8 -3 -5 5 -18 17 -30 17 -17 23 -19 30 -8 4 7 4 18 -1 25 -6 6 -6 15 -2 19
4 5 1 5 -6 1 -7 -4 -25 2 -42 14 l-30 21 2 -34z m48 -12 c0 -3 -2 -5 -5 -5 -3
0 -5 2 -5 5 0 3 2 5 5 5 3 0 5 -2 5 -5z m20 -9 c0 -3 -5 -8 -12 -12 -7 -4 -8
-3 -4 4 7 12 16 16 16 8z"/>
<path d="M205 745 c4 -11 7 -28 7 -37 0 -10 3 -20 8 -23 13 -8 2 57 -11 69 -9
8 -10 6 -4 -9z"/>
<path d="M525 745 c4 -11 7 -28 7 -37 0 -10 3 -20 8 -23 13 -8 2 57 -11 69 -9
8 -10 6 -4 -9z"/>
<path d="M845 745 c4 -11 7 -28 7 -37 0 -10 3 -20 8 -23 13 -8 2 57 -11 69 -9
8 -10 6 -4 -9z"/>
<path d="M945 710 c-3 -5 -3 -10 2 -11 4 0 -1 -5 -12 -10 -19 -8 -19 -9 -1 -6
11 1 20 10 22 20 3 19 -2 22 -11 7z"/>
<path d="M2 527 c2 -19 7 -33 11 -30 5 3 6 11 4 17 -3 7 1 13 9 13 7 0 11 -4
8 -8 -3 -5 5 -18 17 -30 17 -17 23 -19 30 -8 4 7 4 18 -1 25 -6 6 -6 15 -2 19
4 5 1 5 -6 1 -7 -4 -25 2 -42 14 l-30 21 2 -34z m48 -12 c0 -3 -2 -5 -5 -5 -3
0 -5 2 -5 5 0 3 2 5 5 5 3 0 5 -2 5 -5z m20 -9 c0 -3 -5 -8 -12 -12 -7 -4 -8
-3 -4 4 7 12 16 16 16 8z"/>
<path d="M205 425 c4 -11 7 -28 7 -37 0 -10 3 -20 8 -23 13 -8 2 57 -11 69 -9
8 -10 6 -4 -9z"/>
<path d="M525 425 c4 -11 7 -28 7 -37 0 -10 3 -20 8 -23 13 -8 2 57 -11 69 -9
8 -10 6 -4 -9z"/>
<path d="M845 425 c4 -11 7 -28 7 -37 0 -10 3 -20 8 -23 13 -8 2 57 -11 69 -9
8 -10 6 -4 -9z"/>
<path d="M945 390 c-3 -5 -3 -10 2 -11 4 0 -1 -5 -12 -10 -19 -8 -19 -9 -1 -6
11 1 20 10 22 20 3 19 -2 22 -11 7z"/>
<path d="M2 207 c2 -19 7 -33 11 -30 5 3 6 11 4 17 -3 7 1 13 9 13 7 0 11 -4
8 -8 -3 -5 5 -18 17 -30 17 -17 23 -19 30 -8 4 7 4 18 -1 25 -6 6 -6 15 -2 19
4 5 1 5 -6 1 -7 -4 -25 2 -42 14 l-30 21 2 -34z m48 -12 c0 -3 -2 -5 -5 -5 -3
0 -5 2 -5 5 0 3 2 5 5 5 3 0 5 -2 5 -5z m20 -9 c0 -3 -5 -8 -12 -12 -7 -4 -8
-3 -4 4 7 12 16 16 16 8z"/>
<path d="M205 105 c4 -11 7 -28 7 -37 0 -10 3 -20 8 -23 13 -8 2 57 -11 69 -9
8 -10 6 -4 -9z"/>
<path d="M525 105 c4 -11 7 -28 7 -37 0 -10 3 -20 8 -23 13 -8 2 57 -11 69 -9
8 -10 6 -4 -9z"/>
<path d="M845 105 c4 -11 7 -28 7 -37 0 -10 3 -20 8 -23 13 -8 2 57 -11 69 -9
8 -10 6 -4 -9z"/>
<path d="M945 70 c-3 -5 -3 -10 2 -11 4 0 -2 -4 -14 -9 -20 -8 -30 -50 -11
-50 13 0 18 19 6 26 -8 5 -6 9 7 14 10 4 19 14 21 23 3 19 -2 22 -11 7z"/>
</g>
<g transform="translate(0.000000,96.000000) scale(0.100000,-0.100000)"
fill="#545454" stroke="none">
<path d="M65 945 c2 -11 7 -31 11 -44 6 -18 4 -22 -6 -16 -9 5 -11 4 -6 -4 6
-9 11 -9 22 0 19 16 18 32 -6 60 -17 22 -19 22 -15 4z m15 -10 c0 -3 -2 -5 -5
-5 -3 0 -5 2 -5 5 0 3 2 5 5 5 3 0 5 -2 5 -5z m10 -20 c0 -3 -2 -5 -5 -5 -3 0
-5 2 -5 5 0 3 2 5 5 5 3 0 5 -2 5 -5z"/>
<path d="M275 949 c-4 -6 -5 -12 -2 -15 2 -3 7 2 10 11 7 17 1 20 -8 4z"/>
<path d="M385 945 c2 -11 7 -31 11 -44 6 -18 4 -22 -6 -16 -9 5 -11 4 -6 -4 6
-9 11 -9 22 0 19 16 18 32 -6 60 -17 22 -19 22 -15 4z m15 -10 c0 -3 -2 -5 -5
-5 -3 0 -5 2 -5 5 0 3 2 5 5 5 3 0 5 -2 5 -5z m10 -20 c0 -3 -2 -5 -5 -5 -3 0
-5 2 -5 5 0 3 2 5 5 5 3 0 5 -2 5 -5z"/>
<path d="M595 949 c-4 -6 -5 -12 -2 -15 2 -3 7 2 10 11 7 17 1 20 -8 4z"/>
<path d="M705 945 c2 -11 7 -31 11 -44 6 -18 4 -22 -6 -16 -9 5 -11 4 -6 -4 6
-9 11 -9 22 0 19 16 18 32 -6 60 -17 22 -19 22 -15 4z m15 -10 c0 -3 -2 -5 -5
-5 -3 0 -5 2 -5 5 0 3 2 5 5 5 3 0 5 -2 5 -5z m10 -20 c0 -3 -2 -5 -5 -5 -3 0
-5 2 -5 5 0 3 2 5 5 5 3 0 5 -2 5 -5z"/>
<path d="M915 949 c-4 -6 -5 -12 -2 -15 2 -3 7 2 10 11 7 17 1 20 -8 4z"/>
<path d="M220 945 c0 -3 2 -5 5 -5 3 0 5 2 5 5 0 3 -2 5 -5 5 -3 0 -5 -2 -5
-5z"/>
<path d="M540 945 c0 -3 2 -5 5 -5 3 0 5 2 5 5 0 3 -2 5 -5 5 -3 0 -5 -2 -5
-5z"/>
<path d="M860 945 c0 -3 2 -5 5 -5 3 0 5 2 5 5 0 3 -2 5 -5 5 -3 0 -5 -2 -5
-5z"/>
<path d="M121 928 c15 -7 37 -24 49 -38 l22 -25 -22 33 c-12 17 -25 32 -30 32
-5 0 -17 2 -27 5 -10 3 -6 0 8 -7z"/>
<path d="M441 928 c15 -7 37 -24 49 -38 l22 -25 -22 33 c-12 17 -25 32 -30 32
-5 0 -17 2 -27 5 -10 3 -6 0 8 -7z"/>
<path d="M761 928 c15 -7 37 -24 49 -38 l22 -25 -22 33 c-12 17 -25 32 -30 32
-5 0 -17 2 -27 5 -10 3 -6 0 8 -7z"/>
<path d="M216 913 c-6 -14 -5 -15 5 -6 7 7 10 15 7 18 -3 3 -9 -2 -12 -12z"/>
<path d="M536 913 c-6 -14 -5 -15 5 -6 7 7 10 15 7 18 -3 3 -9 -2 -12 -12z"/>
<path d="M856 913 c-6 -14 -5 -15 5 -6 7 7 10 15 7 18 -3 3 -9 -2 -12 -12z"/>
<path d="M289 896 c13 -16 51 -41 51 -33 0 2 -15 14 -32 27 -21 15 -28 17 -19
6z"/>
<path d="M609 896 c13 -16 51 -41 51 -33 0 2 -15 14 -32 27 -21 15 -28 17 -19
6z"/>
<path d="M935 890 c10 -11 20 -20 23 -20 3 0 -3 9 -13 20 -10 11 -20 20 -23
20 -3 0 3 -9 13 -20z"/>
<path d="M224 888 c-4 -7 -3 -8 4 -4 12 7 16 16 8 16 -3 0 -8 -5 -12 -12z"/>
<path d="M286 856 c27 -48 41 -56 50 -31 5 12 11 10 33 -12 14 -16 32 -39 39
-53 7 -14 10 -17 7 -7 -8 30 6 41 22 18 8 -12 19 -19 24 -16 14 9 11 0 -11
-38 -15 -25 -26 -34 -39 -30 -10 3 -21 1 -24 -4 -7 -11 38 -11 49 -1 4 4 14 2
23 -5 14 -11 14 -10 2 5 -11 15 -11 22 3 43 14 21 14 28 4 46 -11 18 -10 23
12 40 23 20 39 56 18 43 -5 -3 -7 -8 -4 -11 3 -3 -6 -14 -19 -25 -14 -11 -25
-27 -25 -36 0 -15 -2 -15 -10 -2 -5 8 -17 15 -27 15 -12 0 -17 7 -15 20 2 16
1 17 -7 6 -8 -12 -13 -11 -30 10 -17 21 -20 22 -26 7 -10 -26 -21 -22 -35 12
-7 16 -18 35 -26 41 -8 6 -2 -9 12 -35z m174 -91 c0 -3 -2 -5 -5 -5 -3 0 -5 2
-5 5 0 3 2 5 5 5 3 0 5 -2 5 -5z"/>
<path d="M544 888 c-4 -7 -3 -8 4 -4 12 7 16 16 8 16 -3 0 -8 -5 -12 -12z"/>
<path d="M606 856 c27 -48 41 -56 50 -31 5 12 11 10 33 -12 14 -16 32 -39 39
-53 7 -14 10 -17 7 -7 -8 30 6 41 22 18 8 -12 19 -19 24 -16 14 9 11 0 -11
-38 -15 -25 -26 -34 -39 -30 -10 3 -21 1 -24 -4 -7 -11 38 -11 49 -1 4 4 14 2
23 -5 14 -11 14 -10 2 5 -11 15 -11 22 3 43 14 21 14 28 4 46 -11 18 -10 23
12 40 23 20 39 56 18 43 -5 -3 -7 -8 -4 -11 3 -3 -6 -14 -19 -25 -14 -11 -25
-27 -25 -36 0 -15 -2 -15 -10 -2 -5 8 -17 15 -27 15 -12 0 -17 7 -15 20 2 16
1 17 -7 6 -8 -12 -13 -11 -30 10 -17 21 -20 22 -26 7 -10 -26 -21 -22 -35 12
-7 16 -18 35 -26 41 -8 6 -2 -9 12 -35z m174 -91 c0 -3 -2 -5 -5 -5 -3 0 -5 2
-5 5 0 3 2 5 5 5 3 0 5 -2 5 -5z"/>
<path d="M864 888 c-4 -7 -3 -8 4 -4 12 7 16 16 8 16 -3 0 -8 -5 -12 -12z"/>
<path d="M926 855 c14 -25 28 -45 30 -45 7 0 -35 78 -45 85 -6 3 2 -15 15 -40z"/>
<path d="M5 870 c3 -5 8 -10 11 -10 3 0 2 5 -1 10 -3 6 -8 10 -11 10 -3 0 -2
-4 1 -10z"/>
<path d="M240 866 c0 -16 -3 -17 -12 -8 -7 7 -17 12 -22 12 -13 -1 24 -23 42
-26 14 -3 15 6 2 26 -8 13 -10 12 -10 -4z"/>
<path d="M560 866 c0 -16 -3 -17 -12 -8 -7 7 -17 12 -22 12 -13 -1 24 -23 42
-26 14 -3 15 6 2 26 -8 13 -10 12 -10 -4z"/>
<path d="M880 866 c0 -16 -3 -17 -12 -8 -7 7 -17 12 -22 12 -13 -1 24 -23 42
-26 14 -3 15 6 2 26 -8 13 -10 12 -10 -4z"/>
<path d="M110 855 c0 -3 2 -5 5 -5 3 0 5 2 5 5 0 3 -2 5 -5 5 -3 0 -5 -2 -5
-5z"/>
<path d="M175 850 c-3 -5 -3 -10 1 -10 4 0 -5 -9 -20 -21 -14 -11 -26 -28 -26
-37 0 -14 -2 -14 -13 2 -7 9 -19 16 -27 14 -10 -2 -14 4 -12 17 2 16 1 17 -7
6 -8 -13 -13 -11 -29 9 l-19 24 -12 -25 c-10 -20 -10 -22 1 -8 13 16 16 15 38
-10 14 -14 31 -37 38 -51 7 -14 10 -17 7 -7 -8 30 6 41 22 18 8 -12 19 -19 24
-16 14 9 11 0 -11 -38 -15 -25 -26 -34 -39 -30 -10 3 -21 1 -24 -4 -7 -11 38
-11 49 -1 4 4 14 2 23 -5 14 -11 14 -10 2 5 -11 15 -11 22 3 43 14 21 14 28 4
46 -11 18 -10 23 12 40 13 11 25 27 26 35 3 16 -2 18 -11 4z m-35 -85 c0 -3
-2 -5 -5 -5 -3 0 -5 2 -5 5 0 3 2 5 5 5 3 0 5 -2 5 -5z"/>
<path d="M430 855 c0 -3 2 -5 5 -5 3 0 5 2 5 5 0 3 -2 5 -5 5 -3 0 -5 -2 -5
-5z"/>
<path d="M750 855 c0 -3 2 -5 5 -5 3 0 5 2 5 5 0 3 -2 5 -5 5 -3 0 -5 -2 -5
-5z"/>
<path d="M111 824 c0 -11 3 -14 6 -6 3 7 2 16 -1 19 -3 4 -6 -2 -5 -13z"/>
<path d="M431 824 c0 -11 3 -14 6 -6 3 7 2 16 -1 19 -3 4 -6 -2 -5 -13z"/>
<path d="M751 824 c0 -11 3 -14 6 -6 3 7 2 16 -1 19 -3 4 -6 -2 -5 -13z"/>
<path d="M266 813 c-6 -14 -5 -15 5 -6 7 7 10 15 7 18 -3 3 -9 -2 -12 -12z"/>
<path d="M586 813 c-6 -14 -5 -15 5 -6 7 7 10 15 7 18 -3 3 -9 -2 -12 -12z"/>
<path d="M906 813 c-6 -14 -5 -15 5 -6 7 7 10 15 7 18 -3 3 -9 -2 -12 -12z"/>
<path d="M225 809 c-4 -6 -5 -12 -2 -15 2 -3 7 2 10 11 7 17 1 20 -8 4z"/>
<path d="M545 809 c-4 -6 -5 -12 -2 -15 2 -3 7 2 10 11 7 17 1 20 -8 4z"/>
<path d="M865 809 c-4 -6 -5 -12 -2 -15 2 -3 7 2 10 11 7 17 1 20 -8 4z"/>
<path d="M41 762 c-7 -12 -8 -22 -4 -21 21 3 24 -2 12 -18 -7 -10 -9 -15 -5
-11 5 4 16 2 25 -5 14 -10 14 -10 4 4 -8 10 -9 19 -3 25 7 7 5 17 -4 29 -13
18 -14 18 -25 -3z m23 -8 c3 -8 2 -12 -4 -9 -6 3 -10 10 -10 16 0 14 7 11 14
-7z"/>
<path d="M224 768 c-4 -7 -3 -8 4 -4 12 7 16 16 8 16 -3 0 -8 -5 -12 -12z"/>
<path d="M249 762 c-13 -15 -12 -16 3 -4 14 11 17 10 21 -5 4 -16 5 -16 6 -1
2 25 -15 30 -30 10z"/>
<path d="M361 762 c-7 -12 -8 -22 -4 -21 21 3 24 -2 12 -18 -7 -10 -9 -15 -5
-11 5 4 16 2 25 -5 14 -10 14 -10 4 4 -8 10 -9 19 -3 25 7 7 5 17 -4 29 -13
18 -14 18 -25 -3z m23 -8 c3 -8 2 -12 -4 -9 -6 3 -10 10 -10 16 0 14 7 11 14
-7z"/>
<path d="M544 768 c-4 -7 -3 -8 4 -4 12 7 16 16 8 16 -3 0 -8 -5 -12 -12z"/>
<path d="M569 762 c-13 -15 -12 -16 3 -4 14 11 17 10 21 -5 4 -16 5 -16 6 -1
2 25 -15 30 -30 10z"/>
<path d="M681 762 c-7 -12 -8 -22 -4 -21 21 3 24 -2 12 -18 -7 -10 -9 -15 -5
-11 5 4 16 2 25 -5 14 -10 14 -10 4 4 -8 10 -9 19 -3 25 7 7 5 17 -4 29 -13
18 -14 18 -25 -3z m23 -8 c3 -8 2 -12 -4 -9 -6 3 -10 10 -10 16 0 14 7 11 14
-7z"/>
<path d="M864 768 c-4 -7 -3 -8 4 -4 12 7 16 16 8 16 -3 0 -8 -5 -12 -12z"/>
<path d="M889 762 c-13 -15 -12 -16 3 -4 14 11 17 10 21 -5 4 -16 5 -16 6 -1
2 25 -15 30 -30 10z"/>
<path d="M212 722 c1 -17 7 -37 15 -43 7 -6 13 -8 13 -3 0 5 5 2 10 -6 8 -13
10 -13 10 1 0 9 7 22 15 29 8 7 15 17 15 23 0 5 -8 1 -18 -11 -21 -23 -37 -18
-51 18 -9 24 -9 24 -9 -8z m23 -32 c3 -5 4 -10 1 -10 -3 0 -8 5 -11 10 -3 6
-4 10 -1 10 3 0 8 -4 11 -10z"/>
<path d="M532 722 c1 -17 7 -37 15 -43 7 -6 13 -8 13 -3 0 5 5 2 10 -6 8 -13
10 -13 10 1 0 9 7 22 15 29 8 7 15 17 15 23 0 5 -8 1 -18 -11 -21 -23 -37 -18
-51 18 -9 24 -9 24 -9 -8z m23 -32 c3 -5 4 -10 1 -10 -3 0 -8 5 -11 10 -3 6
-4 10 -1 10 3 0 8 -4 11 -10z"/>
<path d="M852 722 c1 -17 7 -37 15 -43 7 -6 13 -8 13 -3 0 5 5 2 10 -6 8 -13
10 -13 10 1 0 9 7 22 15 29 8 7 15 17 15 23 0 5 -8 1 -18 -11 -21 -23 -37 -18
-51 18 -9 24 -9 24 -9 -8z m23 -32 c3 -5 4 -10 1 -10 -3 0 -8 5 -11 10 -3 6
-4 10 -1 10 3 0 8 -4 11 -10z"/>
<path d="M105 719 c-4 -6 -5 -12 -2 -15 2 -3 7 2 10 11 7 17 1 20 -8 4z"/>
<path d="M425 719 c-4 -6 -5 -12 -2 -15 2 -3 7 2 10 11 7 17 1 20 -8 4z"/>
<path d="M745 719 c-4 -6 -5 -12 -2 -15 2 -3 7 2 10 11 7 17 1 20 -8 4z"/>
<path d="M10 700 c-9 -6 -10 -10 -3 -10 6 0 15 5 18 10 8 12 4 12 -15 0z"/>
<path d="M330 703 c-8 -3 -26 -10 -39 -15 -17 -6 -20 -12 -13 -21 7 -8 7 -18
2 -27 -6 -8 -10 -19 -9 -25 0 -5 6 1 14 15 9 16 10 29 4 37 -7 8 -1 13 20 18
17 4 33 11 36 16 7 10 7 10 -15 2z"/>
<path d="M650 703 c-8 -3 -26 -10 -39 -15 -17 -6 -20 -12 -13 -21 7 -8 7 -18
2 -27 -6 -8 -10 -19 -9 -25 0 -5 6 1 14 15 9 16 10 29 4 37 -7 8 -1 13 20 18
17 4 33 11 36 16 7 10 7 10 -15 2z"/>
<path d="M153 693 c4 -3 10 -3 14 0 3 4 0 7 -7 7 -7 0 -10 -3 -7 -7z"/>
<path d="M473 693 c4 -3 10 -3 14 0 3 4 0 7 -7 7 -7 0 -10 -3 -7 -7z"/>
<path d="M793 693 c4 -3 10 -3 14 0 3 4 0 7 -7 7 -7 0 -10 -3 -7 -7z"/>
<path d="M931 689 c-17 -7 -21 -12 -13 -22 7 -8 7 -18 2 -27 -6 -8 -10 -19 -9
-25 0 -5 6 1 14 15 9 18 10 29 3 37 -8 10 -6 13 5 13 9 0 19 5 22 10 7 12 7
12 -24 -1z"/>
<path d="M175 660 c27 -12 43 -12 25 0 -8 5 -22 9 -30 9 -10 0 -8 -3 5 -9z"/>
<path d="M495 660 c27 -12 43 -12 25 0 -8 5 -22 9 -30 9 -10 0 -8 -3 5 -9z"/>
<path d="M815 660 c27 -12 43 -12 25 0 -8 5 -22 9 -30 9 -10 0 -8 -3 5 -9z"/>
<path d="M56 648 c3 -4 7 -16 9 -25 2 -10 7 -29 11 -42 6 -18 4 -22 -6 -16 -9
6 -11 4 -5 -4 6 -10 11 -9 24 3 15 15 15 19 -2 47 -9 17 -15 34 -12 38 2 4 -2
8 -10 8 -8 0 -12 -4 -9 -9z m24 -33 c0 -3 -2 -5 -5 -5 -3 0 -5 2 -5 5 0 3 2 5
5 5 3 0 5 -2 5 -5z m10 -20 c0 -3 -2 -5 -5 -5 -3 0 -5 2 -5 5 0 3 2 5 5 5 3 0
5 -2 5 -5z"/>
<path d="M376 648 c3 -4 7 -16 9 -25 2 -10 7 -29 11 -42 6 -18 4 -22 -6 -16
-9 6 -11 4 -5 -4 6 -10 11 -9 24 3 15 15 15 19 -2 47 -9 17 -15 34 -12 38 2 4
-2 8 -10 8 -8 0 -12 -4 -9 -9z m24 -33 c0 -3 -2 -5 -5 -5 -3 0 -5 2 -5 5 0 3
2 5 5 5 3 0 5 -2 5 -5z m10 -20 c0 -3 -2 -5 -5 -5 -3 0 -5 2 -5 5 0 3 2 5 5 5
3 0 5 -2 5 -5z"/>
<path d="M696 648 c3 -4 7 -16 9 -25 2 -10 7 -29 11 -42 6 -18 4 -22 -6 -16
-9 6 -11 4 -5 -4 6 -10 11 -9 24 3 15 15 15 19 -2 47 -9 17 -15 34 -12 38 2 4
-2 8 -10 8 -8 0 -12 -4 -9 -9z m24 -33 c0 -3 -2 -5 -5 -5 -3 0 -5 2 -5 5 0 3
2 5 5 5 3 0 5 -2 5 -5z m10 -20 c0 -3 -2 -5 -5 -5 -3 0 -5 2 -5 5 0 3 2 5 5 5
3 0 5 -2 5 -5z"/>
<path d="M220 625 c0 -3 2 -5 5 -5 3 0 5 2 5 5 0 3 -2 5 -5 5 -3 0 -5 -2 -5
-5z"/>
<path d="M540 625 c0 -3 2 -5 5 -5 3 0 5 2 5 5 0 3 -2 5 -5 5 -3 0 -5 -2 -5
-5z"/>
<path d="M860 625 c0 -3 2 -5 5 -5 3 0 5 2 5 5 0 3 -2 5 -5 5 -3 0 -5 -2 -5
-5z"/>
<path d="M121 608 c15 -7 37 -24 49 -38 l22 -25 -22 33 c-12 17 -25 32 -30 32
-5 0 -17 2 -27 5 -10 3 -6 0 8 -7z"/>
<path d="M441 608 c15 -7 37 -24 49 -38 l22 -25 -22 33 c-12 17 -25 32 -30 32
-5 0 -17 2 -27 5 -10 3 -6 0 8 -7z"/>
<path d="M761 608 c15 -7 37 -24 49 -38 l22 -25 -22 33 c-12 17 -25 32 -30 32
-5 0 -17 2 -27 5 -10 3 -6 0 8 -7z"/>
<path d="M216 593 c-6 -14 -5 -15 5 -6 7 7 10 15 7 18 -3 3 -9 -2 -12 -12z"/>
<path d="M536 593 c-6 -14 -5 -15 5 -6 7 7 10 15 7 18 -3 3 -9 -2 -12 -12z"/>
<path d="M856 593 c-6 -14 -5 -15 5 -6 7 7 10 15 7 18 -3 3 -9 -2 -12 -12z"/>
<path d="M289 576 c13 -16 51 -41 51 -33 0 2 -15 14 -32 27 -21 15 -28 17 -19
6z"/>
<path d="M609 576 c13 -16 51 -41 51 -33 0 2 -15 14 -32 27 -21 15 -28 17 -19
6z"/>
<path d="M935 570 c10 -11 20 -20 23 -20 3 0 -3 9 -13 20 -10 11 -20 20 -23
20 -3 0 3 -9 13 -20z"/>
<path d="M224 568 c-4 -7 -3 -8 4 -4 7 4 12 9 12 12 0 8 -9 4 -16 -8z"/>
<path d="M286 536 c27 -48 41 -56 50 -31 5 12 11 10 33 -12 14 -16 32 -39 39
-53 7 -14 10 -17 7 -7 -8 30 6 41 22 18 8 -12 19 -19 24 -16 14 9 11 0 -11
-38 -15 -25 -26 -34 -39 -30 -10 3 -21 1 -24 -4 -7 -11 38 -11 49 -1 4 4 14 2
23 -5 14 -11 14 -10 2 5 -11 15 -11 22 3 43 14 21 14 28 4 46 -11 18 -10 23
12 40 23 20 39 56 18 43 -5 -3 -7 -8 -4 -11 3 -3 -6 -14 -19 -25 -14 -11 -25
-27 -25 -36 0 -15 -2 -15 -10 -2 -5 8 -17 15 -27 15 -12 0 -17 7 -15 20 2 16
1 17 -7 6 -8 -12 -13 -11 -30 10 -17 21 -20 22 -26 7 -10 -26 -21 -22 -35 12
-7 16 -18 35 -26 41 -8 6 -2 -9 12 -35z m174 -91 c0 -3 -2 -5 -5 -5 -3 0 -5 2
-5 5 0 3 2 5 5 5 3 0 5 -2 5 -5z"/>
<path d="M544 568 c-4 -7 -3 -8 4 -4 7 4 12 9 12 12 0 8 -9 4 -16 -8z"/>
<path d="M606 536 c27 -48 41 -56 50 -31 5 12 11 10 33 -12 14 -16 32 -39 39
-53 7 -14 10 -17 7 -7 -8 30 6 41 22 18 8 -12 19 -19 24 -16 14 9 11 0 -11
-38 -15 -25 -26 -34 -39 -30 -10 3 -21 1 -24 -4 -7 -11 38 -11 49 -1 4 4 14 2
23 -5 14 -11 14 -10 2 5 -11 15 -11 22 3 43 14 21 14 28 4 46 -11 18 -10 23
12 40 23 20 39 56 18 43 -5 -3 -7 -8 -4 -11 3 -3 -6 -14 -19 -25 -14 -11 -25
-27 -25 -36 0 -15 -2 -15 -10 -2 -5 8 -17 15 -27 15 -12 0 -17 7 -15 20 2 16
1 17 -7 6 -8 -12 -13 -11 -30 10 -17 21 -20 22 -26 7 -10 -26 -21 -22 -35 12
-7 16 -18 35 -26 41 -8 6 -2 -9 12 -35z m174 -91 c0 -3 -2 -5 -5 -5 -3 0 -5 2
-5 5 0 3 2 5 5 5 3 0 5 -2 5 -5z"/>
<path d="M864 568 c-4 -7 -3 -8 4 -4 7 4 12 9 12 12 0 8 -9 4 -16 -8z"/>
<path d="M926 535 c14 -25 28 -45 30 -45 7 0 -35 78 -45 85 -6 3 2 -15 15 -40z"/>
<path d="M5 550 c3 -5 8 -10 11 -10 3 0 2 5 -1 10 -3 6 -8 10 -11 10 -3 0 -2
-4 1 -10z"/>
<path d="M240 546 c0 -16 -3 -17 -12 -8 -7 7 -17 12 -22 12 -13 -1 24 -23 42
-26 14 -3 15 6 2 26 -8 13 -10 12 -10 -4z"/>
<path d="M560 546 c0 -16 -3 -17 -12 -8 -7 7 -17 12 -22 12 -13 -1 24 -23 42
-26 14 -3 15 6 2 26 -8 13 -10 12 -10 -4z"/>
<path d="M880 546 c0 -16 -3 -17 -12 -8 -7 7 -17 12 -22 12 -13 -1 24 -23 42
-26 14 -3 15 6 2 26 -8 13 -10 12 -10 -4z"/>
<path d="M110 535 c0 -3 2 -5 5 -5 3 0 5 2 5 5 0 3 -2 5 -5 5 -3 0 -5 -2 -5
-5z"/>
<path d="M175 530 c-3 -5 -3 -10 1 -10 4 0 -5 -9 -20 -21 -14 -11 -26 -28 -26
-37 0 -14 -2 -14 -13 2 -7 9 -19 16 -27 14 -10 -2 -14 4 -12 17 2 16 1 17 -7
6 -8 -13 -13 -11 -29 9 l-19 24 -12 -25 c-10 -20 -10 -22 1 -8 13 16 16 15 38
-10 14 -14 31 -37 38 -51 7 -14 10 -17 7 -7 -8 30 6 41 22 18 8 -12 19 -19 24
-16 14 9 11 0 -11 -38 -15 -25 -26 -34 -39 -30 -10 3 -21 1 -24 -4 -7 -11 38
-11 49 -1 4 4 14 2 23 -5 14 -11 14 -10 2 5 -11 15 -11 22 3 43 14 21 14 28 4
46 -11 18 -10 23 12 40 13 11 25 27 26 35 3 16 -2 18 -11 4z m-35 -85 c0 -3
-2 -5 -5 -5 -3 0 -5 2 -5 5 0 3 2 5 5 5 3 0 5 -2 5 -5z"/>
<path d="M430 535 c0 -3 2 -5 5 -5 3 0 5 2 5 5 0 3 -2 5 -5 5 -3 0 -5 -2 -5
-5z"/>
<path d="M750 535 c0 -3 2 -5 5 -5 3 0 5 2 5 5 0 3 -2 5 -5 5 -3 0 -5 -2 -5
-5z"/>
<path d="M111 504 c0 -11 3 -14 6 -6 3 7 2 16 -1 19 -3 4 -6 -2 -5 -13z"/>
<path d="M431 504 c0 -11 3 -14 6 -6 3 7 2 16 -1 19 -3 4 -6 -2 -5 -13z"/>
<path d="M751 504 c0 -11 3 -14 6 -6 3 7 2 16 -1 19 -3 4 -6 -2 -5 -13z"/>
<path d="M266 493 c-6 -14 -5 -15 5 -6 7 7 10 15 7 18 -3 3 -9 -2 -12 -12z"/>
<path d="M586 493 c-6 -14 -5 -15 5 -6 7 7 10 15 7 18 -3 3 -9 -2 -12 -12z"/>
<path d="M906 493 c-6 -14 -5 -15 5 -6 7 7 10 15 7 18 -3 3 -9 -2 -12 -12z"/>
<path d="M225 489 c-4 -6 -5 -12 -2 -15 2 -3 7 2 10 11 7 17 1 20 -8 4z"/>
<path d="M545 489 c-4 -6 -5 -12 -2 -15 2 -3 7 2 10 11 7 17 1 20 -8 4z"/>
<path d="M865 489 c-4 -6 -5 -12 -2 -15 2 -3 7 2 10 11 7 17 1 20 -8 4z"/>
<path d="M41 442 c-7 -12 -8 -22 -4 -21 21 3 24 -2 12 -18 -7 -10 -9 -15 -5
-11 5 4 16 2 25 -5 14 -10 14 -10 4 4 -8 10 -9 19 -3 25 7 7 5 17 -4 29 -13
18 -14 18 -25 -3z m23 -8 c3 -8 2 -12 -4 -9 -6 3 -10 10 -10 16 0 14 7 11 14
-7z"/>
<path d="M224 448 c-4 -7 -3 -8 4 -4 12 7 16 16 8 16 -3 0 -8 -5 -12 -12z"/>
<path d="M249 442 c-13 -15 -12 -16 3 -4 14 11 17 10 21 -5 4 -16 5 -16 6 -1
2 25 -15 30 -30 10z"/>
<path d="M361 442 c-7 -12 -8 -22 -4 -21 21 3 24 -2 12 -18 -7 -10 -9 -15 -5
-11 5 4 16 2 25 -5 14 -10 14 -10 4 4 -8 10 -9 19 -3 25 7 7 5 17 -4 29 -13
18 -14 18 -25 -3z m23 -8 c3 -8 2 -12 -4 -9 -6 3 -10 10 -10 16 0 14 7 11 14
-7z"/>
<path d="M544 448 c-4 -7 -3 -8 4 -4 12 7 16 16 8 16 -3 0 -8 -5 -12 -12z"/>
<path d="M569 442 c-13 -15 -12 -16 3 -4 14 11 17 10 21 -5 4 -16 5 -16 6 -1
2 25 -15 30 -30 10z"/>
<path d="M681 442 c-7 -12 -8 -22 -4 -21 21 3 24 -2 12 -18 -7 -10 -9 -15 -5
-11 5 4 16 2 25 -5 14 -10 14 -10 4 4 -8 10 -9 19 -3 25 7 7 5 17 -4 29 -13
18 -14 18 -25 -3z m23 -8 c3 -8 2 -12 -4 -9 -6 3 -10 10 -10 16 0 14 7 11 14
-7z"/>
<path d="M864 448 c-4 -7 -3 -8 4 -4 7 4 12 9 12 12 0 8 -9 4 -16 -8z"/>
<path d="M889 442 c-13 -15 -12 -16 3 -4 14 11 17 10 21 -5 4 -16 5 -16 6 -1
2 25 -15 30 -30 10z"/>
<path d="M212 402 c1 -17 7 -37 15 -43 7 -6 13 -8 13 -3 0 5 5 2 10 -6 8 -13
10 -13 10 1 0 9 7 22 15 29 8 7 15 17 15 23 0 5 -8 1 -18 -11 -21 -23 -37 -18
-51 18 -9 24 -9 24 -9 -8z m23 -32 c3 -5 4 -10 1 -10 -3 0 -8 5 -11 10 -3 6
-4 10 -1 10 3 0 8 -4 11 -10z"/>
<path d="M532 402 c1 -17 7 -37 15 -43 7 -6 13 -8 13 -3 0 5 5 2 10 -6 8 -13
10 -13 10 1 0 9 7 22 15 29 8 7 15 17 15 23 0 5 -8 1 -18 -11 -21 -23 -37 -18
-51 18 -9 24 -9 24 -9 -8z m23 -32 c3 -5 4 -10 1 -10 -3 0 -8 5 -11 10 -3 6
-4 10 -1 10 3 0 8 -4 11 -10z"/>
<path d="M852 402 c1 -17 7 -37 15 -43 7 -6 13 -8 13 -3 0 5 5 2 10 -6 8 -13
10 -13 10 1 0 9 7 22 15 29 8 7 15 17 15 23 0 5 -8 1 -18 -11 -21 -23 -37 -18
-51 18 -9 24 -9 24 -9 -8z m23 -32 c3 -5 4 -10 1 -10 -3 0 -8 5 -11 10 -3 6
-4 10 -1 10 3 0 8 -4 11 -10z"/>
<path d="M105 399 c-4 -6 -5 -12 -2 -15 2 -3 7 2 10 11 7 17 1 20 -8 4z"/>
<path d="M425 399 c-4 -6 -5 -12 -2 -15 2 -3 7 2 10 11 7 17 1 20 -8 4z"/>
<path d="M745 399 c-4 -6 -5 -12 -2 -15 2 -3 7 2 10 11 7 17 1 20 -8 4z"/>
<path d="M10 380 c-9 -6 -10 -10 -3 -10 6 0 15 5 18 10 8 12 4 12 -15 0z"/>
<path d="M330 383 c-8 -3 -26 -10 -39 -15 -17 -6 -20 -12 -13 -21 7 -8 7 -18
2 -27 -6 -8 -10 -19 -9 -25 0 -5 6 1 14 15 9 16 10 29 4 37 -7 8 -1 13 20 18
17 4 33 11 36 16 7 10 7 10 -15 2z"/>
<path d="M650 383 c-8 -3 -26 -10 -39 -15 -17 -6 -20 -12 -13 -21 7 -8 7 -18
2 -27 -6 -8 -10 -19 -9 -25 0 -5 6 1 14 15 9 16 10 29 4 37 -7 8 -1 13 20 18
17 4 33 11 36 16 7 10 7 10 -15 2z"/>
<path d="M153 373 c4 -3 10 -3 14 0 3 4 0 7 -7 7 -7 0 -10 -3 -7 -7z"/>
<path d="M473 373 c4 -3 10 -3 14 0 3 4 0 7 -7 7 -7 0 -10 -3 -7 -7z"/>
<path d="M793 373 c4 -3 10 -3 14 0 3 4 0 7 -7 7 -7 0 -10 -3 -7 -7z"/>
<path d="M931 369 c-17 -7 -21 -12 -13 -22 7 -8 7 -18 2 -27 -6 -8 -10 -19 -9
-25 0 -5 6 1 14 15 9 18 10 29 3 37 -8 10 -6 13 5 13 9 0 19 5 22 10 7 12 7
12 -24 -1z"/>
<path d="M175 340 c27 -12 43 -12 25 0 -8 5 -22 9 -30 9 -10 0 -8 -3 5 -9z"/>
<path d="M495 340 c27 -12 43 -12 25 0 -8 5 -22 9 -30 9 -10 0 -8 -3 5 -9z"/>
<path d="M815 340 c27 -12 43 -12 25 0 -8 5 -22 9 -30 9 -10 0 -8 -3 5 -9z"/>
<path d="M56 328 c3 -4 7 -16 9 -25 2 -10 7 -29 11 -42 6 -18 4 -22 -6 -16 -9
6 -11 4 -5 -4 6 -10 11 -9 24 3 15 15 15 19 -2 47 -9 17 -15 34 -12 38 2 4 -2
8 -10 8 -8 0 -12 -4 -9 -9z m24 -33 c0 -3 -2 -5 -5 -5 -3 0 -5 2 -5 5 0 3 2 5
5 5 3 0 5 -2 5 -5z m10 -20 c0 -3 -2 -5 -5 -5 -3 0 -5 2 -5 5 0 3 2 5 5 5 3 0
5 -2 5 -5z"/>
<path d="M376 328 c3 -4 7 -16 9 -25 2 -10 7 -29 11 -42 6 -18 4 -22 -6 -16
-9 6 -11 4 -5 -4 6 -10 11 -9 24 3 15 15 15 19 -2 47 -9 17 -15 34 -12 38 2 4
-2 8 -10 8 -8 0 -12 -4 -9 -9z m24 -33 c0 -3 -2 -5 -5 -5 -3 0 -5 2 -5 5 0 3
2 5 5 5 3 0 5 -2 5 -5z m10 -20 c0 -3 -2 -5 -5 -5 -3 0 -5 2 -5 5 0 3 2 5 5 5
3 0 5 -2 5 -5z"/>
<path d="M696 328 c3 -4 7 -16 9 -25 2 -10 7 -29 11 -42 6 -18 4 -22 -6 -16
-9 6 -11 4 -5 -4 6 -10 11 -9 24 3 15 15 15 19 -2 47 -9 17 -15 34 -12 38 2 4
-2 8 -10 8 -8 0 -12 -4 -9 -9z m24 -33 c0 -3 -2 -5 -5 -5 -3 0 -5 2 -5 5 0 3
2 5 5 5 3 0 5 -2 5 -5z m10 -20 c0 -3 -2 -5 -5 -5 -3 0 -5 2 -5 5 0 3 2 5 5 5
3 0 5 -2 5 -5z"/>
<path d="M220 305 c0 -3 2 -5 5 -5 3 0 5 2 5 5 0 3 -2 5 -5 5 -3 0 -5 -2 -5
-5z"/>
<path d="M540 305 c0 -3 2 -5 5 -5 3 0 5 2 5 5 0 3 -2 5 -5 5 -3 0 -5 -2 -5
-5z"/>
<path d="M860 305 c0 -3 2 -5 5 -5 3 0 5 2 5 5 0 3 -2 5 -5 5 -3 0 -5 -2 -5
-5z"/>
<path d="M121 288 c15 -7 37 -24 49 -38 l22 -25 -22 33 c-12 17 -25 32 -30 32
-5 0 -17 2 -27 5 -10 3 -6 0 8 -7z"/>
<path d="M441 288 c15 -7 37 -24 49 -38 l22 -25 -22 33 c-12 17 -25 32 -30 32
-5 0 -17 2 -27 5 -10 3 -6 0 8 -7z"/>
<path d="M761 288 c15 -7 37 -24 49 -38 l22 -25 -22 33 c-12 17 -25 32 -30 32
-5 0 -17 2 -27 5 -10 3 -6 0 8 -7z"/>
<path d="M216 273 c-6 -14 -5 -15 5 -6 7 7 10 15 7 18 -3 3 -9 -2 -12 -12z"/>
<path d="M536 273 c-6 -14 -5 -15 5 -6 7 7 10 15 7 18 -3 3 -9 -2 -12 -12z"/>
<path d="M856 273 c-6 -14 -5 -15 5 -6 7 7 10 15 7 18 -3 3 -9 -2 -12 -12z"/>
<path d="M289 256 c13 -16 51 -41 51 -33 0 2 -15 14 -32 27 -21 15 -28 17 -19
6z"/>
<path d="M609 256 c13 -16 51 -41 51 -33 0 2 -15 14 -32 27 -21 15 -28 17 -19
6z"/>
<path d="M935 250 c10 -11 20 -20 23 -20 3 0 -3 9 -13 20 -10 11 -20 20 -23
20 -3 0 3 -9 13 -20z"/>
<path d="M224 248 c-4 -7 -3 -8 4 -4 7 4 12 9 12 12 0 8 -9 4 -16 -8z"/>
<path d="M286 216 c27 -48 41 -56 50 -31 5 12 11 10 33 -12 14 -16 32 -39 39
-53 7 -14 10 -17 7 -7 -8 30 6 41 22 18 8 -12 19 -19 24 -16 14 9 11 0 -11
-38 -15 -25 -26 -34 -39 -30 -10 3 -21 1 -24 -4 -7 -11 38 -11 49 -1 4 4 14 2
23 -5 14 -11 14 -10 2 5 -11 15 -11 22 3 43 14 21 14 28 4 46 -11 18 -10 23
12 40 23 20 39 56 18 43 -5 -3 -7 -8 -4 -11 3 -3 -6 -14 -19 -25 -14 -11 -25
-27 -25 -36 0 -15 -2 -15 -10 -2 -5 8 -17 15 -27 15 -12 0 -17 7 -15 20 2 16
1 17 -7 6 -8 -12 -13 -11 -30 10 -17 21 -20 22 -26 7 -10 -26 -21 -22 -35 12
-7 16 -18 35 -26 41 -8 6 -2 -9 12 -35z m174 -91 c0 -3 -2 -5 -5 -5 -3 0 -5 2
-5 5 0 3 2 5 5 5 3 0 5 -2 5 -5z"/>
<path d="M544 248 c-4 -7 -3 -8 4 -4 12 7 16 16 8 16 -3 0 -8 -5 -12 -12z"/>
<path d="M606 216 c27 -48 41 -56 50 -31 5 12 11 10 33 -12 14 -16 32 -39 39
-53 7 -14 10 -17 7 -7 -8 30 6 41 22 18 8 -12 19 -19 24 -16 14 9 11 0 -11
-38 -15 -25 -26 -34 -39 -30 -10 3 -21 1 -24 -4 -7 -11 38 -11 49 -1 4 4 14 2
23 -5 14 -11 14 -10 2 5 -11 15 -11 22 3 43 14 21 14 28 4 46 -11 18 -10 23
12 40 23 20 39 56 18 43 -5 -3 -7 -8 -4 -11 3 -3 -6 -14 -19 -25 -14 -11 -25
-27 -25 -36 0 -15 -2 -15 -10 -2 -5 8 -17 15 -27 15 -12 0 -17 7 -15 20 2 16
1 17 -7 6 -8 -12 -13 -11 -30 10 -17 21 -20 22 -26 7 -10 -26 -21 -22 -35 12
-7 16 -18 35 -26 41 -8 6 -2 -9 12 -35z m174 -91 c0 -3 -2 -5 -5 -5 -3 0 -5 2
-5 5 0 3 2 5 5 5 3 0 5 -2 5 -5z"/>
<path d="M864 248 c-4 -7 -3 -8 4 -4 7 4 12 9 12 12 0 8 -9 4 -16 -8z"/>
<path d="M926 215 c14 -25 28 -45 30 -45 7 0 -35 78 -45 85 -6 3 2 -15 15 -40z"/>
<path d="M5 230 c3 -5 8 -10 11 -10 3 0 2 5 -1 10 -3 6 -8 10 -11 10 -3 0 -2
-4 1 -10z"/>
<path d="M240 226 c0 -16 -3 -17 -12 -8 -7 7 -17 12 -22 12 -13 -1 24 -23 42
-26 14 -3 15 6 2 26 -8 13 -10 12 -10 -4z"/>
<path d="M560 226 c0 -16 -3 -17 -12 -8 -7 7 -17 12 -22 12 -13 -1 24 -23 42
-26 14 -3 15 6 2 26 -8 13 -10 12 -10 -4z"/>
<path d="M880 226 c0 -16 -3 -17 -12 -8 -7 7 -17 12 -22 12 -13 -1 24 -23 42
-26 14 -3 15 6 2 26 -8 13 -10 12 -10 -4z"/>
<path d="M110 215 c0 -3 2 -5 5 -5 3 0 5 2 5 5 0 3 -2 5 -5 5 -3 0 -5 -2 -5
-5z"/>
<path d="M175 210 c-3 -5 -3 -10 1 -10 4 0 -5 -9 -20 -21 -14 -11 -26 -28 -26
-37 0 -14 -2 -14 -13 2 -7 9 -19 16 -27 14 -10 -2 -14 4 -12 17 2 16 1 17 -7
6 -8 -13 -13 -11 -29 9 l-19 24 -12 -25 c-10 -20 -10 -22 1 -8 13 16 16 15 38
-10 14 -14 31 -37 38 -51 7 -14 10 -17 7 -7 -8 30 6 41 22 18 8 -12 19 -19 24
-16 14 9 11 0 -11 -38 -15 -25 -26 -34 -39 -30 -10 3 -21 1 -24 -4 -7 -11 38
-11 49 -1 4 4 14 2 23 -5 14 -11 14 -10 2 5 -11 15 -11 22 3 43 14 21 14 28 4
46 -11 18 -10 23 12 40 13 11 25 27 26 35 3 16 -2 18 -11 4z m-35 -85 c0 -3
-2 -5 -5 -5 -3 0 -5 2 -5 5 0 3 2 5 5 5 3 0 5 -2 5 -5z"/>
<path d="M430 215 c0 -3 2 -5 5 -5 3 0 5 2 5 5 0 3 -2 5 -5 5 -3 0 -5 -2 -5
-5z"/>
<path d="M750 215 c0 -3 2 -5 5 -5 3 0 5 2 5 5 0 3 -2 5 -5 5 -3 0 -5 -2 -5
-5z"/>
<path d="M111 184 c0 -11 3 -14 6 -6 3 7 2 16 -1 19 -3 4 -6 -2 -5 -13z"/>
<path d="M431 184 c0 -11 3 -14 6 -6 3 7 2 16 -1 19 -3 4 -6 -2 -5 -13z"/>
<path d="M751 184 c0 -11 3 -14 6 -6 3 7 2 16 -1 19 -3 4 -6 -2 -5 -13z"/>
<path d="M266 173 c-6 -14 -5 -15 5 -6 7 7 10 15 7 18 -3 3 -9 -2 -12 -12z"/>
<path d="M586 173 c-6 -14 -5 -15 5 -6 7 7 10 15 7 18 -3 3 -9 -2 -12 -12z"/>
<path d="M906 173 c-6 -14 -5 -15 5 -6 7 7 10 15 7 18 -3 3 -9 -2 -12 -12z"/>
<path d="M225 169 c-4 -6 -5 -12 -2 -15 2 -3 7 2 10 11 7 17 1 20 -8 4z"/>
<path d="M545 169 c-4 -6 -5 -12 -2 -15 2 -3 7 2 10 11 7 17 1 20 -8 4z"/>
<path d="M865 169 c-4 -6 -5 -12 -2 -15 2 -3 7 2 10 11 7 17 1 20 -8 4z"/>
<path d="M41 122 c-7 -12 -8 -22 -4 -21 21 3 24 -2 12 -18 -7 -10 -9 -15 -5
-11 5 4 16 2 25 -5 14 -10 14 -10 4 4 -8 10 -9 19 -3 25 7 7 5 17 -4 29 -13
18 -14 18 -25 -3z m23 -8 c3 -8 2 -12 -4 -9 -6 3 -10 10 -10 16 0 14 7 11 14
-7z"/>
<path d="M224 128 c-4 -7 -3 -8 4 -4 12 7 16 16 8 16 -3 0 -8 -5 -12 -12z"/>
<path d="M249 122 c-13 -15 -12 -16 3 -4 14 11 17 10 21 -5 4 -16 5 -16 6 -1
2 25 -15 30 -30 10z"/>
<path d="M361 122 c-7 -12 -8 -22 -4 -21 21 3 24 -2 12 -18 -7 -10 -9 -15 -5
-11 5 4 16 2 25 -5 14 -10 14 -10 4 4 -8 10 -9 19 -3 25 7 7 5 17 -4 29 -13
18 -14 18 -25 -3z m23 -8 c3 -8 2 -12 -4 -9 -6 3 -10 10 -10 16 0 14 7 11 14
-7z"/>
<path d="M544 128 c-4 -7 -3 -8 4 -4 12 7 16 16 8 16 -3 0 -8 -5 -12 -12z"/>
<path d="M569 122 c-13 -15 -12 -16 3 -4 14 11 17 10 21 -5 4 -16 5 -16 6 -1
2 25 -15 30 -30 10z"/>
<path d="M681 122 c-7 -12 -8 -22 -4 -21 21 3 24 -2 12 -18 -7 -10 -9 -15 -5
-11 5 4 16 2 25 -5 14 -10 14 -10 4 4 -8 10 -9 19 -3 25 7 7 5 17 -4 29 -13
18 -14 18 -25 -3z m23 -8 c3 -8 2 -12 -4 -9 -6 3 -10 10 -10 16 0 14 7 11 14
-7z"/>
<path d="M864 128 c-4 -7 -3 -8 4 -4 7 4 12 9 12 12 0 8 -9 4 -16 -8z"/>
<path d="M889 122 c-13 -15 -12 -16 3 -4 14 11 17 10 21 -5 4 -16 5 -16 6 -1
2 25 -15 30 -30 10z"/>
<path d="M212 82 c1 -17 7 -37 15 -43 7 -6 13 -8 13 -3 0 5 5 2 10 -6 8 -13
10 -13 10 1 0 9 7 22 15 29 8 7 15 17 15 23 0 5 -8 1 -18 -11 -21 -23 -37 -18
-51 18 -9 24 -9 24 -9 -8z m23 -32 c3 -5 4 -10 1 -10 -3 0 -8 5 -11 10 -3 6
-4 10 -1 10 3 0 8 -4 11 -10z"/>
<path d="M532 82 c1 -17 7 -37 15 -43 7 -6 13 -8 13 -3 0 5 5 2 10 -6 8 -13
10 -13 10 1 0 9 7 22 15 29 8 7 15 17 15 23 0 5 -8 1 -18 -11 -21 -23 -37 -18
-51 18 -9 24 -9 24 -9 -8z m23 -32 c3 -5 4 -10 1 -10 -3 0 -8 5 -11 10 -3 6
-4 10 -1 10 3 0 8 -4 11 -10z"/>
<path d="M852 82 c1 -17 7 -37 15 -43 7 -6 13 -8 13 -3 0 5 5 2 10 -6 8 -13
10 -13 10 1 0 9 7 22 15 29 8 7 15 17 15 23 0 5 -8 1 -18 -11 -21 -23 -37 -18
-51 18 -9 24 -9 24 -9 -8z m23 -32 c3 -5 4 -10 1 -10 -3 0 -8 5 -11 10 -3 6
-4 10 -1 10 3 0 8 -4 11 -10z"/>
<path d="M105 79 c-4 -6 -5 -12 -2 -15 2 -3 7 2 10 11 7 17 1 20 -8 4z"/>
<path d="M425 79 c-4 -6 -5 -12 -2 -15 2 -3 7 2 10 11 7 17 1 20 -8 4z"/>
<path d="M745 79 c-4 -6 -5 -12 -2 -15 2 -3 7 2 10 11 7 17 1 20 -8 4z"/>
<path d="M10 60 c-9 -6 -10 -10 -3 -10 6 0 15 5 18 10 8 12 4 12 -15 0z"/>
<path d="M330 63 c-8 -3 -26 -10 -39 -15 -18 -6 -21 -11 -12 -22 6 -7 7 -17 3
-21 -4 -5 -1 -5 6 -1 10 6 10 11 2 21 -9 10 -4 15 19 20 17 4 33 11 36 16 7
10 7 10 -15 2z"/>
<path d="M650 63 c-8 -3 -26 -10 -39 -15 -18 -6 -21 -11 -12 -22 6 -7 7 -17 3
-21 -4 -5 -1 -5 6 -1 10 6 10 11 2 21 -9 10 -4 15 19 20 17 4 33 11 36 16 7
10 7 10 -15 2z"/>
<path d="M153 53 c4 -3 10 -3 14 0 3 4 0 7 -7 7 -7 0 -10 -3 -7 -7z"/>
<path d="M473 53 c4 -3 10 -3 14 0 3 4 0 7 -7 7 -7 0 -10 -3 -7 -7z"/>
<path d="M793 53 c4 -3 10 -3 14 0 3 4 0 7 -7 7 -7 0 -10 -3 -7 -7z"/>
<path d="M931 49 c-18 -7 -21 -12 -12 -23 6 -7 7 -17 3 -21 -4 -5 -1 -5 6 -1
10 6 10 11 1 22 -9 11 -8 14 4 14 9 0 19 5 22 10 7 12 7 12 -24 -1z"/>
<path d="M175 20 c27 -12 43 -12 25 0 -8 5 -22 9 -30 9 -10 0 -8 -3 5 -9z"/>
<path d="M495 20 c27 -12 43 -12 25 0 -8 5 -22 9 -30 9 -10 0 -8 -3 5 -9z"/>
<path d="M815 20 c27 -12 43 -12 25 0 -8 5 -22 9 -30 9 -10 0 -8 -3 5 -9z"/>
<path d="M56 8 c3 -5 10 -6 15 -3 13 9 11 12 -6 12 -8 0 -12 -4 -9 -9z"/>
<path d="M376 8 c3 -5 10 -6 15 -3 13 9 11 12 -6 12 -8 0 -12 -4 -9 -9z"/>
<path d="M696 8 c3 -5 10 -6 15 -3 13 9 11 12 -6 12 -8 0 -12 -4 -9 -9z"/>
</g>
<g transform="translate(0.000000,96.000000) scale(0.100000,-0.100000)"
fill="#aaaaaa" stroke="none">
<path d="M220 945 c0 -3 2 -5 5 -5 3 0 5 2 5 5 0 3 -2 5 -5 5 -3 0 -5 -2 -5
-5z"/>
<path d="M540 945 c0 -3 2 -5 5 -5 3 0 5 2 5 5 0 3 -2 5 -5 5 -3 0 -5 -2 -5
-5z"/>
<path d="M860 945 c0 -3 2 -5 5 -5 3 0 5 2 5 5 0 3 -2 5 -5 5 -3 0 -5 -2 -5
-5z"/>
<path d="M74 908 c6 -16 14 -24 19 -19 12 12 0 48 -17 48 -10 0 -11 -6 -2 -29z
m16 7 c0 -3 -2 -5 -5 -5 -3 0 -5 2 -5 5 0 3 2 5 5 5 3 0 5 -2 5 -5z"/>
<path d="M394 908 c6 -16 14 -24 19 -19 12 12 0 48 -17 48 -10 0 -11 -6 -2
-29z m16 7 c0 -3 -2 -5 -5 -5 -3 0 -5 2 -5 5 0 3 2 5 5 5 3 0 5 -2 5 -5z"/>
<path d="M714 908 c6 -16 14 -24 19 -19 12 12 0 48 -17 48 -10 0 -11 -6 -2
-29z m16 7 c0 -3 -2 -5 -5 -5 -3 0 -5 2 -5 5 0 3 2 5 5 5 3 0 5 -2 5 -5z"/>
<path d="M140 926 c0 -2 8 -10 18 -17 15 -13 16 -12 3 4 -13 16 -21 21 -21 13z"/>
<path d="M216 913 c-6 -14 -5 -15 5 -6 7 7 10 15 7 18 -3 3 -9 -2 -12 -12z"/>
<path d="M460 926 c0 -2 8 -10 18 -17 15 -13 16 -12 3 4 -13 16 -21 21 -21 13z"/>
<path d="M536 913 c-6 -14 -5 -15 5 -6 7 7 10 15 7 18 -3 3 -9 -2 -12 -12z"/>
<path d="M780 926 c0 -2 8 -10 18 -17 15 -13 16 -12 3 4 -13 16 -21 21 -21 13z"/>
<path d="M856 913 c-6 -14 -5 -15 5 -6 7 7 10 15 7 18 -3 3 -9 -2 -12 -12z"/>
<path d="M289 896 c13 -16 51 -41 51 -33 0 2 -15 14 -32 27 -21 15 -28 17 -19
6z"/>
<path d="M609 896 c13 -16 51 -41 51 -33 0 2 -15 14 -32 27 -21 15 -28 17 -19
6z"/>
<path d="M935 890 c10 -11 20 -20 23 -20 3 0 -3 9 -13 20 -10 11 -20 20 -23
20 -3 0 3 -9 13 -20z"/>
<path d="M5 870 c3 -5 8 -10 11 -10 3 0 2 5 -1 10 -3 6 -8 10 -11 10 -3 0 -2
-4 1 -10z"/>
<path d="M240 868 c0 -9 5 -20 10 -23 13 -8 13 5 0 25 -8 13 -10 13 -10 -2z"/>
<path d="M560 868 c0 -9 5 -20 10 -23 13 -8 13 5 0 25 -8 13 -10 13 -10 -2z"/>
<path d="M880 868 c0 -9 5 -20 10 -23 13 -8 13 5 0 25 -8 13 -10 13 -10 -2z"/>
<path d="M174 848 c-4 -7 -3 -8 4 -4 12 7 16 16 8 16 -3 0 -8 -5 -12 -12z"/>
<path d="M494 848 c-4 -7 -3 -8 4 -4 12 7 16 16 8 16 -3 0 -8 -5 -12 -12z"/>
<path d="M814 848 c-4 -7 -3 -8 4 -4 12 7 16 16 8 16 -3 0 -8 -5 -12 -12z"/>
<path d="M225 809 c-4 -6 -5 -12 -2 -15 2 -3 7 2 10 11 7 17 1 20 -8 4z"/>
<path d="M545 809 c-4 -6 -5 -12 -2 -15 2 -3 7 2 10 11 7 17 1 20 -8 4z"/>
<path d="M865 809 c-4 -6 -5 -12 -2 -15 2 -3 7 2 10 11 7 17 1 20 -8 4z"/>
<path d="M84 786 c-3 -8 -2 -22 3 -31 8 -13 10 -10 10 14 0 34 -5 39 -13 17z"/>
<path d="M404 786 c-3 -8 -2 -22 3 -31 8 -13 10 -10 10 14 0 34 -5 39 -13 17z"/>
<path d="M724 786 c-3 -8 -2 -22 3 -31 8 -13 10 -10 10 14 0 34 -5 39 -13 17z"/>
<path d="M39 758 c-6 -13 -8 -20 -4 -16 5 4 15 2 24 -5 14 -10 14 -10 3 5 -8
9 -11 22 -7 28 3 5 4 10 1 10 -3 0 -11 -10 -17 -22z"/>
<path d="M359 758 c-6 -13 -8 -20 -4 -16 5 4 15 2 24 -5 14 -10 14 -10 3 5 -8
9 -11 22 -7 28 3 5 4 10 1 10 -3 0 -11 -10 -17 -22z"/>
<path d="M679 758 c-6 -13 -8 -20 -4 -16 5 4 15 2 24 -5 14 -10 14 -10 3 5 -8
9 -11 22 -7 28 3 5 4 10 1 10 -3 0 -11 -10 -17 -22z"/>
<path d="M244 758 c-4 -7 -3 -8 4 -4 12 7 16 16 8 16 -3 0 -8 -5 -12 -12z"/>
<path d="M564 758 c-4 -7 -3 -8 4 -4 12 7 16 16 8 16 -3 0 -8 -5 -12 -12z"/>
<path d="M884 758 c-4 -7 -3 -8 4 -4 7 4 12 9 12 12 0 8 -9 4 -16 -8z"/>
<path d="M260 699 c0 -5 -4 -7 -10 -4 -12 7 -13 -5 -2 -22 5 -8 11 -3 19 13 6
13 7 24 2 24 -5 0 -9 -5 -9 -11z"/>
<path d="M580 699 c0 -5 -4 -7 -10 -4 -12 7 -13 -5 -2 -22 5 -8 11 -3 19 13 6
13 7 24 2 24 -5 0 -9 -5 -9 -11z"/>
<path d="M900 699 c0 -5 -4 -7 -10 -4 -12 7 -13 -5 -2 -22 5 -8 11 -3 19 13 6
13 7 24 2 24 -5 0 -9 -5 -9 -11z"/>
<path d="M153 693 c4 -3 10 -3 14 0 3 4 0 7 -7 7 -7 0 -10 -3 -7 -7z"/>
<path d="M473 693 c4 -3 10 -3 14 0 3 4 0 7 -7 7 -7 0 -10 -3 -7 -7z"/>
<path d="M793 693 c4 -3 10 -3 14 0 3 4 0 7 -7 7 -7 0 -10 -3 -7 -7z"/>
<path d="M66 682 c-2 -4 4 -8 15 -8 10 0 19 4 19 8 0 4 -6 8 -14 8 -8 0 -17
-4 -20 -8z"/>
<path d="M386 682 c-2 -4 4 -8 15 -8 10 0 19 4 19 8 0 4 -6 8 -14 8 -8 0 -17
-4 -20 -8z"/>
<path d="M706 682 c-2 -4 4 -8 15 -8 10 0 19 4 19 8 0 10 -27 10 -34 0z"/>
<path d="M50 655 c0 -3 2 -5 5 -5 3 0 5 2 5 5 0 3 -2 5 -5 5 -3 0 -5 -2 -5 -5z"/>
<path d="M370 655 c0 -3 2 -5 5 -5 3 0 5 2 5 5 0 3 -2 5 -5 5 -3 0 -5 -2 -5
-5z"/>
<path d="M690 655 c0 -3 2 -5 5 -5 3 0 5 2 5 5 0 3 -2 5 -5 5 -3 0 -5 -2 -5
-5z"/>
<path d="M220 625 c0 -3 2 -5 5 -5 3 0 5 2 5 5 0 3 -2 5 -5 5 -3 0 -5 -2 -5
-5z"/>
<path d="M540 625 c0 -3 2 -5 5 -5 3 0 5 2 5 5 0 3 -2 5 -5 5 -3 0 -5 -2 -5
-5z"/>
<path d="M860 625 c0 -3 2 -5 5 -5 3 0 5 2 5 5 0 3 -2 5 -5 5 -3 0 -5 -2 -5
-5z"/>
<path d="M74 588 c6 -16 14 -24 19 -19 12 12 0 48 -17 48 -10 0 -11 -6 -2 -29z
m16 7 c0 -3 -2 -5 -5 -5 -3 0 -5 2 -5 5 0 3 2 5 5 5 3 0 5 -2 5 -5z"/>
<path d="M394 588 c6 -16 14 -24 19 -19 12 12 0 48 -17 48 -10 0 -11 -6 -2
-29z m16 7 c0 -3 -2 -5 -5 -5 -3 0 -5 2 -5 5 0 3 2 5 5 5 3 0 5 -2 5 -5z"/>
<path d="M714 588 c6 -16 14 -24 19 -19 12 12 0 48 -17 48 -10 0 -11 -6 -2
-29z m16 7 c0 -3 -2 -5 -5 -5 -3 0 -5 2 -5 5 0 3 2 5 5 5 3 0 5 -2 5 -5z"/>
<path d="M140 606 c0 -2 8 -10 18 -17 15 -13 16 -12 3 4 -13 16 -21 21 -21 13z"/>
<path d="M216 593 c-6 -14 -5 -15 5 -6 7 7 10 15 7 18 -3 3 -9 -2 -12 -12z"/>
<path d="M460 606 c0 -2 8 -10 18 -17 15 -13 16 -12 3 4 -13 16 -21 21 -21 13z"/>
<path d="M536 593 c-6 -14 -5 -15 5 -6 7 7 10 15 7 18 -3 3 -9 -2 -12 -12z"/>
<path d="M780 606 c0 -2 8 -10 18 -17 15 -13 16 -12 3 4 -13 16 -21 21 -21 13z"/>
<path d="M856 593 c-6 -14 -5 -15 5 -6 7 7 10 15 7 18 -3 3 -9 -2 -12 -12z"/>
<path d="M289 576 c13 -16 51 -41 51 -33 0 2 -15 14 -32 27 -21 15 -28 17 -19
6z"/>
<path d="M609 576 c13 -16 51 -41 51 -33 0 2 -15 14 -32 27 -21 15 -28 17 -19
6z"/>
<path d="M935 570 c10 -11 20 -20 23 -20 3 0 -3 9 -13 20 -10 11 -20 20 -23
20 -3 0 3 -9 13 -20z"/>
<path d="M5 550 c3 -5 8 -10 11 -10 3 0 2 5 -1 10 -3 6 -8 10 -11 10 -3 0 -2
-4 1 -10z"/>
<path d="M240 548 c0 -9 5 -20 10 -23 13 -8 13 5 0 25 -8 13 -10 13 -10 -2z"/>
<path d="M560 548 c0 -9 5 -20 10 -23 13 -8 13 5 0 25 -8 13 -10 13 -10 -2z"/>
<path d="M880 548 c0 -9 5 -20 10 -23 13 -8 13 5 0 25 -8 13 -10 13 -10 -2z"/>
<path d="M174 528 c-4 -7 -3 -8 4 -4 12 7 16 16 8 16 -3 0 -8 -5 -12 -12z"/>
<path d="M494 528 c-4 -7 -3 -8 4 -4 7 4 12 9 12 12 0 8 -9 4 -16 -8z"/>
<path d="M814 528 c-4 -7 -3 -8 4 -4 7 4 12 9 12 12 0 8 -9 4 -16 -8z"/>
<path d="M225 489 c-4 -6 -5 -12 -2 -15 2 -3 7 2 10 11 7 17 1 20 -8 4z"/>
<path d="M545 489 c-4 -6 -5 -12 -2 -15 2 -3 7 2 10 11 7 17 1 20 -8 4z"/>
<path d="M865 489 c-4 -6 -5 -12 -2 -15 2 -3 7 2 10 11 7 17 1 20 -8 4z"/>
<path d="M84 466 c-3 -8 -2 -22 3 -31 8 -13 10 -10 10 14 0 34 -5 39 -13 17z"/>
<path d="M404 466 c-3 -8 -2 -22 3 -31 8 -13 10 -10 10 14 0 34 -5 39 -13 17z"/>
<path d="M724 466 c-3 -8 -2 -22 3 -31 8 -13 10 -10 10 14 0 34 -5 39 -13 17z"/>
<path d="M39 438 c-6 -13 -8 -20 -4 -16 5 4 15 2 24 -5 14 -10 14 -10 3 5 -8
9 -11 22 -7 28 3 5 4 10 1 10 -3 0 -11 -10 -17 -22z"/>
<path d="M359 438 c-6 -13 -8 -20 -4 -16 5 4 15 2 24 -5 14 -10 14 -10 3 5 -8
9 -11 22 -7 28 3 5 4 10 1 10 -3 0 -11 -10 -17 -22z"/>
<path d="M679 438 c-6 -13 -8 -20 -4 -16 5 4 15 2 24 -5 14 -10 14 -10 3 5 -8
9 -11 22 -7 28 3 5 4 10 1 10 -3 0 -11 -10 -17 -22z"/>
<path d="M244 438 c-4 -7 -3 -8 4 -4 7 4 12 9 12 12 0 8 -9 4 -16 -8z"/>
<path d="M564 438 c-4 -7 -3 -8 4 -4 12 7 16 16 8 16 -3 0 -8 -5 -12 -12z"/>
<path d="M884 438 c-4 -7 -3 -8 4 -4 7 4 12 9 12 12 0 8 -9 4 -16 -8z"/>
<path d="M260 379 c0 -5 -4 -7 -10 -4 -12 7 -13 -5 -2 -22 5 -8 11 -3 19 13 6
13 7 24 2 24 -5 0 -9 -5 -9 -11z"/>
<path d="M580 379 c0 -5 -4 -7 -10 -4 -12 7 -13 -5 -2 -22 5 -8 11 -3 19 13 6
13 7 24 2 24 -5 0 -9 -5 -9 -11z"/>
<path d="M900 379 c0 -5 -4 -7 -10 -4 -12 7 -13 -5 -2 -22 5 -8 11 -3 19 13 6
13 7 24 2 24 -5 0 -9 -5 -9 -11z"/>
<path d="M153 373 c4 -3 10 -3 14 0 3 4 0 7 -7 7 -7 0 -10 -3 -7 -7z"/>
<path d="M473 373 c4 -3 10 -3 14 0 3 4 0 7 -7 7 -7 0 -10 -3 -7 -7z"/>
<path d="M793 373 c4 -3 10 -3 14 0 3 4 0 7 -7 7 -7 0 -10 -3 -7 -7z"/>
<path d="M66 362 c-2 -4 4 -8 15 -8 10 0 19 4 19 8 0 4 -6 8 -14 8 -8 0 -17
-4 -20 -8z"/>
<path d="M386 362 c-2 -4 4 -8 15 -8 10 0 19 4 19 8 0 4 -6 8 -14 8 -8 0 -17
-4 -20 -8z"/>
<path d="M706 362 c-2 -4 4 -8 15 -8 10 0 19 4 19 8 0 4 -6 8 -14 8 -8 0 -17
-4 -20 -8z"/>
<path d="M50 335 c0 -3 2 -5 5 -5 3 0 5 2 5 5 0 3 -2 5 -5 5 -3 0 -5 -2 -5 -5z"/>
<path d="M370 335 c0 -3 2 -5 5 -5 3 0 5 2 5 5 0 3 -2 5 -5 5 -3 0 -5 -2 -5
-5z"/>
<path d="M690 335 c0 -3 2 -5 5 -5 3 0 5 2 5 5 0 3 -2 5 -5 5 -3 0 -5 -2 -5
-5z"/>
<path d="M220 305 c0 -3 2 -5 5 -5 3 0 5 2 5 5 0 3 -2 5 -5 5 -3 0 -5 -2 -5
-5z"/>
<path d="M540 305 c0 -3 2 -5 5 -5 3 0 5 2 5 5 0 3 -2 5 -5 5 -3 0 -5 -2 -5
-5z"/>
<path d="M860 305 c0 -3 2 -5 5 -5 3 0 5 2 5 5 0 3 -2 5 -5 5 -3 0 -5 -2 -5
-5z"/>
<path d="M74 268 c6 -16 14 -24 19 -19 12 12 0 48 -17 48 -10 0 -11 -6 -2 -29z
m16 7 c0 -3 -2 -5 -5 -5 -3 0 -5 2 -5 5 0 3 2 5 5 5 3 0 5 -2 5 -5z"/>
<path d="M394 268 c6 -16 14 -24 19 -19 12 12 0 48 -17 48 -10 0 -11 -6 -2
-29z m16 7 c0 -3 -2 -5 -5 -5 -3 0 -5 2 -5 5 0 3 2 5 5 5 3 0 5 -2 5 -5z"/>
<path d="M714 268 c6 -16 14 -24 19 -19 12 12 0 48 -17 48 -10 0 -11 -6 -2
-29z m16 7 c0 -3 -2 -5 -5 -5 -3 0 -5 2 -5 5 0 3 2 5 5 5 3 0 5 -2 5 -5z"/>
<path d="M140 286 c0 -2 8 -10 18 -17 15 -13 16 -12 3 4 -13 16 -21 21 -21 13z"/>
<path d="M216 273 c-6 -14 -5 -15 5 -6 7 7 10 15 7 18 -3 3 -9 -2 -12 -12z"/>
<path d="M460 286 c0 -2 8 -10 18 -17 15 -13 16 -12 3 4 -13 16 -21 21 -21 13z"/>
<path d="M536 273 c-6 -14 -5 -15 5 -6 7 7 10 15 7 18 -3 3 -9 -2 -12 -12z"/>
<path d="M780 286 c0 -2 8 -10 18 -17 15 -13 16 -12 3 4 -13 16 -21 21 -21 13z"/>
<path d="M856 273 c-6 -14 -5 -15 5 -6 7 7 10 15 7 18 -3 3 -9 -2 -12 -12z"/>
<path d="M289 256 c13 -16 51 -41 51 -33 0 2 -15 14 -32 27 -21 15 -28 17 -19
6z"/>
<path d="M609 256 c13 -16 51 -41 51 -33 0 2 -15 14 -32 27 -21 15 -28 17 -19
6z"/>
<path d="M935 250 c10 -11 20 -20 23 -20 3 0 -3 9 -13 20 -10 11 -20 20 -23
20 -3 0 3 -9 13 -20z"/>
<path d="M5 230 c3 -5 8 -10 11 -10 3 0 2 5 -1 10 -3 6 -8 10 -11 10 -3 0 -2
-4 1 -10z"/>
<path d="M240 228 c0 -9 5 -20 10 -23 13 -8 13 5 0 25 -8 13 -10 13 -10 -2z"/>
<path d="M560 228 c0 -9 5 -20 10 -23 13 -8 13 5 0 25 -8 13 -10 13 -10 -2z"/>
<path d="M880 228 c0 -9 5 -20 10 -23 13 -8 13 5 0 25 -8 13 -10 13 -10 -2z"/>
<path d="M174 208 c-4 -7 -3 -8 4 -4 7 4 12 9 12 12 0 8 -9 4 -16 -8z"/>
<path d="M494 208 c-4 -7 -3 -8 4 -4 12 7 16 16 8 16 -3 0 -8 -5 -12 -12z"/>
<path d="M814 208 c-4 -7 -3 -8 4 -4 7 4 12 9 12 12 0 8 -9 4 -16 -8z"/>
<path d="M225 169 c-4 -6 -5 -12 -2 -15 2 -3 7 2 10 11 7 17 1 20 -8 4z"/>
<path d="M545 169 c-4 -6 -5 -12 -2 -15 2 -3 7 2 10 11 7 17 1 20 -8 4z"/>
<path d="M865 169 c-4 -6 -5 -12 -2 -15 2 -3 7 2 10 11 7 17 1 20 -8 4z"/>
<path d="M84 146 c-3 -8 -2 -22 3 -31 8 -13 10 -10 10 14 0 34 -5 39 -13 17z"/>
<path d="M404 146 c-3 -8 -2 -22 3 -31 8 -13 10 -10 10 14 0 34 -5 39 -13 17z"/>
<path d="M724 146 c-3 -8 -2 -22 3 -31 8 -13 10 -10 10 14 0 34 -5 39 -13 17z"/>
<path d="M39 118 c-6 -13 -8 -20 -4 -16 5 4 15 2 24 -5 14 -10 14 -10 3 5 -8
9 -11 22 -7 28 3 5 4 10 1 10 -3 0 -11 -10 -17 -22z"/>
<path d="M359 118 c-6 -13 -8 -20 -4 -16 5 4 15 2 24 -5 14 -10 14 -10 3 5 -8
9 -11 22 -7 28 3 5 4 10 1 10 -3 0 -11 -10 -17 -22z"/>
<path d="M679 118 c-6 -13 -8 -20 -4 -16 5 4 15 2 24 -5 14 -10 14 -10 3 5 -8
9 -11 22 -7 28 3 5 4 10 1 10 -3 0 -11 -10 -17 -22z"/>
<path d="M244 118 c-4 -7 -3 -8 4 -4 12 7 16 16 8 16 -3 0 -8 -5 -12 -12z"/>
<path d="M564 118 c-4 -7 -3 -8 4 -4 7 4 12 9 12 12 0 8 -9 4 -16 -8z"/>
<path d="M884 118 c-4 -7 -3 -8 4 -4 7 4 12 9 12 12 0 8 -9 4 -16 -8z"/>
<path d="M260 59 c0 -5 -4 -7 -10 -4 -12 7 -13 -5 -2 -22 5 -8 11 -3 19 13 6
13 7 24 2 24 -5 0 -9 -5 -9 -11z"/>
<path d="M580 59 c0 -5 -4 -7 -10 -4 -12 7 -13 -5 -2 -22 5 -8 11 -3 19 13 6
13 7 24 2 24 -5 0 -9 -5 -9 -11z"/>
<path d="M900 59 c0 -5 -4 -7 -10 -4 -12 7 -13 -5 -2 -22 5 -8 11 -3 19 13 6
13 7 24 2 24 -5 0 -9 -5 -9 -11z"/>
<path d="M153 53 c4 -3 10 -3 14 0 3 4 0 7 -7 7 -7 0 -10 -3 -7 -7z"/>
<path d="M473 53 c4 -3 10 -3 14 0 3 4 0 7 -7 7 -7 0 -10 -3 -7 -7z"/>
<path d="M793 53 c4 -3 10 -3 14 0 3 4 0 7 -7 7 -7 0 -10 -3 -7 -7z"/>
<path d="M66 42 c-2 -4 4 -8 15 -8 10 0 19 4 19 8 0 4 -6 8 -14 8 -8 0 -17 -4
-20 -8z"/>
<path d="M386 42 c-2 -4 4 -8 15 -8 10 0 19 4 19 8 0 4 -6 8 -14 8 -8 0 -17
-4 -20 -8z"/>
<path d="M706 42 c-2 -4 4 -8 15 -8 10 0 19 4 19 8 0 4 -6 8 -14 8 -8 0 -17
-4 -20 -8z"/>
<path d="M50 15 c0 -3 2 -5 5 -5 3 0 5 2 5 5 0 3 -2 5 -5 5 -3 0 -5 -2 -5 -5z"/>
<path d="M370 15 c0 -3 2 -5 5 -5 3 0 5 2 5 5 0 3 -2 5 -5 5 -3 0 -5 -2 -5 -5z"/>
<path d="M690 15 c0 -3 2 -5 5 -5 3 0 5 2 5 5 0 3 -2 5 -5 5 -3 0 -5 -2 -5 -5z"/>
</g>
  </g>
</svg>
