<?xml version="1.0" encoding="UTF-8" standalone="no"?>
<!-- Created with Inkscape (http://www.inkscape.org/) -->

<svg
   xmlns:dc="http://purl.org/dc/elements/1.1/"
   xmlns:cc="http://creativecommons.org/ns#"
   xmlns:rdf="http://www.w3.org/1999/02/22-rdf-syntax-ns#"
   xmlns:svg="http://www.w3.org/2000/svg"
   xmlns="http://www.w3.org/2000/svg"
   xmlns:sodipodi="http://sodipodi.sourceforge.net/DTD/sodipodi-0.dtd"
   xmlns:inkscape="http://www.inkscape.org/namespaces/inkscape"
   width="16px"
   height="16px"
   viewBox="0 0 16px 16px"
   version="1.1"
   id="svgMain"
   inkscape:version="0.92.2 (5c3e80d, 2017-08-06)"
   sodipodi:docname="reference_SVG.svg">
  <defs
     id="defs4542" />
  <sodipodi:namedview
     id="base"
     pagecolor="#ffffff"
     bordercolor="#666666"
     borderopacity="1.0"
     inkscape:pageopacity="0.0"
     inkscape:pageshadow="2"
     inkscape:zoom="1"
     inkscape:cx="0"
     inkscape:cy="0"
     inkscape:document-units="px"
     inkscape:current-layer="layer1"
     showgrid="false"
     units="px"
     inkscape:window-width="1024"
     inkscape:window-height="768"
     inkscape:window-x="-8"
     inkscape:window-y="-8"
     inkscape:window-maximized="1" />
  <metadata
     id="metadata1">
    <rdf:RDF>
      <cc:Work
         rdf:about="">
        <dc:format>image/svg+xml</dc:format>
        <dc:type
           rdf:resource="http://purl.org/dc/dcmitype/StillImage" />
        <dc:title />
      </cc:Work>
    </rdf:RDF>
  </metadata>
  <g transform="translate(-16,-16) scale(0.5,0.5)"
     inkscape:label="Layer 1"
     inkscape:groupmode="layer"
     id="layer1">
    <!-- INSERT MARKER -->
<g transform="translate(0.000000,96.000000) scale(0.100000,-0.100000)"
fill="#7f7f7f" stroke="none">
<path d="M71 915 c-39 -50 -40 -144 -3 -195 11 -14 36 -31 57 -39 32 -13 43
-13 78 0 60 21 82 57 82 134 0 49 -5 70 -21 92 -30 40 -55 36 -79 -12 l-20
-40 -20 40 c-24 49 -46 55 -74 20z"/>
<path d="M391 915 c-39 -50 -40 -144 -3 -195 11 -14 36 -31 57 -39 32 -13 43
-13 78 0 60 21 82 57 82 134 0 49 -5 70 -21 92 -30 40 -55 36 -79 -12 l-20
-40 -20 40 c-24 49 -46 55 -74 20z"/>
<path d="M711 915 c-39 -50 -40 -144 -3 -195 11 -14 36 -31 57 -39 32 -13 43
-13 78 0 60 21 82 57 82 134 0 49 -5 70 -21 92 -30 40 -55 36 -79 -12 l-20
-40 -20 40 c-24 49 -46 55 -74 20z"/>
<path d="M71 595 c-39 -50 -40 -144 -3 -195 11 -14 36 -31 57 -39 32 -13 43
-13 78 0 60 21 82 57 82 134 0 49 -5 70 -21 92 -30 40 -55 36 -79 -12 l-20
-40 -20 40 c-24 49 -46 55 -74 20z"/>
<path d="M391 595 c-39 -50 -40 -144 -3 -195 11 -14 36 -31 57 -39 32 -13 43
-13 78 0 60 21 82 57 82 134 0 49 -5 70 -21 92 -30 40 -55 36 -79 -12 l-20
-40 -20 40 c-24 49 -46 55 -74 20z"/>
<path d="M711 595 c-39 -50 -40 -144 -3 -195 11 -14 36 -31 57 -39 32 -13 43
-13 78 0 60 21 82 57 82 134 0 49 -5 70 -21 92 -30 40 -55 36 -79 -12 l-20
-40 -20 40 c-24 49 -46 55 -74 20z"/>
<path d="M71 275 c-39 -50 -40 -144 -3 -195 11 -14 36 -31 57 -39 32 -13 43
-13 78 0 60 21 82 57 82 134 0 49 -5 70 -21 92 -30 40 -55 36 -79 -12 l-20
-40 -20 40 c-24 49 -46 55 -74 20z"/>
<path d="M391 275 c-39 -50 -40 -144 -3 -195 11 -14 36 -31 57 -39 32 -13 43
-13 78 0 60 21 82 57 82 134 0 49 -5 70 -21 92 -30 40 -55 36 -79 -12 l-20
-40 -20 40 c-24 49 -46 55 -74 20z"/>
<path d="M711 275 c-39 -50 -40 -144 -3 -195 11 -14 36 -31 57 -39 32 -13 43
-13 78 0 60 21 82 57 82 134 0 49 -5 70 -21 92 -30 40 -55 36 -79 -12 l-20
-40 -20 40 c-24 49 -46 55 -74 20z"/>
</g>
<g transform="translate(0.000000,96.000000) scale(0.100000,-0.100000)"
fill="#565656" stroke="none">
<path d="M71 915 c-39 -50 -40 -144 -3 -195 11 -14 36 -31 57 -39 32 -13 43
-13 78 0 60 21 82 57 82 134 0 49 -5 70 -21 92 -30 40 -55 36 -79 -12 l-20
-40 -20 40 c-24 49 -46 55 -74 20z m70 -54 c7 -34 17 -57 23 -54 6 4 6 -1 1
-13 -5 -10 -10 -38 -13 -61 -4 -41 -5 -41 -30 -32 -49 19 -62 38 -62 94 0 50
1 51 38 65 24 9 31 15 20 18 -9 2 -26 -2 -37 -8 -16 -8 -21 -8 -21 1 0 16 49
61 59 54 5 -2 14 -31 22 -64z m117 27 c17 -28 19 -41 12 -85 -9 -54 -25 -93
-44 -105 -21 -14 -27 -8 -15 15 12 22 12 22 -10 3 l-21 -19 -2 64 c-3 94 -1
105 17 133 23 34 39 33 63 -6z m-91 -155 c-4 -3 -7 0 -7 7 0 7 3 10 7 7 3 -4
3 -10 0 -14z"/>
<path d="M124 828 c-4 -7 -3 -8 4 -4 7 4 12 9 12 12 0 8 -9 4 -16 -8z"/>
<path d="M70 810 c0 -5 10 -15 23 -21 22 -12 22 -12 3 10 -21 23 -26 26 -26
11z"/>
<path d="M115 750 c-10 -11 -13 -20 -7 -20 6 0 16 9 22 20 6 11 9 20 7 20 -2
0 -12 -9 -22 -20z"/>
<path d="M220 895 c0 -3 2 -5 5 -5 3 0 5 2 5 5 0 3 -2 5 -5 5 -3 0 -5 -2 -5
-5z"/>
<path d="M190 872 c0 -5 10 -17 21 -28 22 -19 22 -19 10 3 -12 24 -31 39 -31
25z"/>
<path d="M234 798 c-4 -7 -3 -8 4 -4 12 7 16 16 8 16 -3 0 -8 -5 -12 -12z"/>
<path d="M210 762 c6 -13 14 -21 18 -18 3 4 -2 14 -12 24 -18 16 -18 16 -6 -6z"/>
<path d="M391 915 c-39 -50 -40 -144 -3 -195 11 -14 36 -31 57 -39 32 -13 43
-13 78 0 60 21 82 57 82 134 0 49 -5 70 -21 92 -30 40 -55 36 -79 -12 l-20
-40 -20 40 c-24 49 -46 55 -74 20z m70 -54 c7 -34 17 -57 23 -54 6 4 6 -1 1
-13 -5 -10 -10 -38 -13 -61 -4 -41 -5 -41 -30 -32 -49 19 -62 38 -62 94 0 50
1 51 38 65 24 9 31 15 20 18 -9 2 -26 -2 -37 -8 -16 -8 -21 -8 -21 1 0 16 49
61 59 54 5 -2 14 -31 22 -64z m117 27 c17 -28 19 -41 12 -85 -9 -54 -25 -93
-44 -105 -21 -14 -27 -8 -15 15 12 22 12 22 -10 3 l-21 -19 -2 64 c-3 94 -1
105 17 133 23 34 39 33 63 -6z m-91 -155 c-4 -3 -7 0 -7 7 0 7 3 10 7 7 3 -4
3 -10 0 -14z"/>
<path d="M444 828 c-4 -7 -3 -8 4 -4 12 7 16 16 8 16 -3 0 -8 -5 -12 -12z"/>
<path d="M390 810 c0 -5 10 -15 23 -21 22 -12 22 -12 3 10 -21 23 -26 26 -26
11z"/>
<path d="M435 750 c-10 -11 -13 -20 -7 -20 6 0 16 9 22 20 6 11 9 20 7 20 -2
0 -12 -9 -22 -20z"/>
<path d="M540 895 c0 -3 2 -5 5 -5 3 0 5 2 5 5 0 3 -2 5 -5 5 -3 0 -5 -2 -5
-5z"/>
<path d="M510 872 c0 -5 10 -17 21 -28 22 -19 22 -19 10 3 -12 24 -31 39 -31
25z"/>
<path d="M554 798 c-4 -7 -3 -8 4 -4 12 7 16 16 8 16 -3 0 -8 -5 -12 -12z"/>
<path d="M530 762 c6 -13 14 -21 18 -18 3 4 -2 14 -12 24 -18 16 -18 16 -6 -6z"/>
<path d="M711 915 c-39 -50 -40 -144 -3 -195 11 -14 36 -31 57 -39 32 -13 43
-13 78 0 60 21 82 57 82 134 0 49 -5 70 -21 92 -30 40 -55 36 -79 -12 l-20
-40 -20 40 c-24 49 -46 55 -74 20z m70 -54 c7 -34 17 -57 23 -54 6 4 6 -1 1
-13 -5 -10 -10 -38 -13 -61 -4 -41 -5 -41 -30 -32 -49 19 -62 38 -62 94 0 50
1 51 38 65 24 9 31 15 20 18 -9 2 -26 -2 -37 -8 -16 -8 -21 -8 -21 1 0 16 49
61 59 54 5 -2 14 -31 22 -64z m117 27 c17 -28 19 -41 12 -85 -9 -54 -25 -93
-44 -105 -21 -14 -27 -8 -15 15 12 22 12 22 -10 3 l-21 -19 -2 64 c-3 94 -1
105 17 133 23 34 39 33 63 -6z m-91 -155 c-4 -3 -7 0 -7 7 0 7 3 10 7 7 3 -4
3 -10 0 -14z"/>
<path d="M764 828 c-4 -7 -3 -8 4 -4 12 7 16 16 8 16 -3 0 -8 -5 -12 -12z"/>
<path d="M710 810 c0 -5 10 -15 23 -21 22 -12 22 -12 3 10 -21 23 -26 26 -26
11z"/>
<path d="M755 750 c-10 -11 -13 -20 -7 -20 6 0 16 9 22 20 6 11 9 20 7 20 -2
0 -12 -9 -22 -20z"/>
<path d="M860 895 c0 -3 2 -5 5 -5 3 0 5 2 5 5 0 3 -2 5 -5 5 -3 0 -5 -2 -5
-5z"/>
<path d="M830 872 c0 -5 10 -17 21 -28 22 -19 22 -19 10 3 -12 24 -31 39 -31
25z"/>
<path d="M874 798 c-4 -7 -3 -8 4 -4 12 7 16 16 8 16 -3 0 -8 -5 -12 -12z"/>
<path d="M850 762 c6 -13 14 -21 18 -18 3 4 -2 14 -12 24 -18 16 -18 16 -6 -6z"/>
<path d="M71 595 c-39 -50 -40 -144 -3 -195 11 -14 36 -31 57 -39 32 -13 43
-13 78 0 60 21 82 57 82 134 0 49 -5 70 -21 92 -30 40 -55 36 -79 -12 l-20
-40 -20 40 c-24 49 -46 55 -74 20z m70 -54 c7 -34 17 -57 23 -54 6 4 6 -1 1
-13 -5 -10 -10 -38 -13 -61 -4 -41 -5 -41 -30 -32 -49 19 -62 38 -62 94 0 50
1 51 38 65 24 9 31 15 20 18 -9 2 -26 -2 -37 -8 -16 -8 -21 -8 -21 1 0 16 49
61 59 54 5 -2 14 -31 22 -64z m117 27 c17 -28 19 -41 12 -85 -9 -54 -25 -93
-44 -105 -21 -14 -27 -8 -15 15 12 22 12 22 -10 3 l-21 -19 -2 64 c-3 94 -1
105 17 133 23 34 39 33 63 -6z m-91 -155 c-4 -3 -7 0 -7 7 0 7 3 10 7 7 3 -4
3 -10 0 -14z"/>
<path d="M124 508 c-4 -7 -3 -8 4 -4 7 4 12 9 12 12 0 8 -9 4 -16 -8z"/>
<path d="M70 490 c0 -5 10 -15 23 -21 22 -12 22 -12 3 10 -21 23 -26 26 -26
11z"/>
<path d="M115 430 c-10 -11 -13 -20 -7 -20 6 0 16 9 22 20 6 11 9 20 7 20 -2
0 -12 -9 -22 -20z"/>
<path d="M220 575 c0 -3 2 -5 5 -5 3 0 5 2 5 5 0 3 -2 5 -5 5 -3 0 -5 -2 -5
-5z"/>
<path d="M190 552 c0 -5 10 -17 21 -28 22 -19 22 -19 10 3 -12 24 -31 39 -31
25z"/>
<path d="M234 478 c-4 -7 -3 -8 4 -4 12 7 16 16 8 16 -3 0 -8 -5 -12 -12z"/>
<path d="M210 442 c6 -13 14 -21 18 -18 3 4 -2 14 -12 24 -18 16 -18 16 -6 -6z"/>
<path d="M391 595 c-39 -50 -40 -144 -3 -195 11 -14 36 -31 57 -39 32 -13 43
-13 78 0 60 21 82 57 82 134 0 49 -5 70 -21 92 -30 40 -55 36 -79 -12 l-20
-40 -20 40 c-24 49 -46 55 -74 20z m70 -54 c7 -34 17 -57 23 -54 6 4 6 -1 1
-13 -5 -10 -10 -38 -13 -61 -4 -41 -5 -41 -30 -32 -49 19 -62 38 -62 94 0 50
1 51 38 65 24 9 31 15 20 18 -9 2 -26 -2 -37 -8 -16 -8 -21 -8 -21 1 0 16 49
61 59 54 5 -2 14 -31 22 -64z m117 27 c17 -28 19 -41 12 -85 -9 -54 -25 -93
-44 -105 -21 -14 -27 -8 -15 15 12 22 12 22 -10 3 l-21 -19 -2 64 c-3 94 -1
105 17 133 23 34 39 33 63 -6z m-91 -155 c-4 -3 -7 0 -7 7 0 7 3 10 7 7 3 -4
3 -10 0 -14z"/>
<path d="M444 508 c-4 -7 -3 -8 4 -4 7 4 12 9 12 12 0 8 -9 4 -16 -8z"/>
<path d="M390 490 c0 -5 10 -15 23 -21 22 -12 22 -12 3 10 -21 23 -26 26 -26
11z"/>
<path d="M435 430 c-10 -11 -13 -20 -7 -20 6 0 16 9 22 20 6 11 9 20 7 20 -2
0 -12 -9 -22 -20z"/>
<path d="M540 575 c0 -3 2 -5 5 -5 3 0 5 2 5 5 0 3 -2 5 -5 5 -3 0 -5 -2 -5
-5z"/>
<path d="M510 552 c0 -5 10 -17 21 -28 22 -19 22 -19 10 3 -12 24 -31 39 -31
25z"/>
<path d="M554 478 c-4 -7 -3 -8 4 -4 12 7 16 16 8 16 -3 0 -8 -5 -12 -12z"/>
<path d="M530 442 c6 -13 14 -21 18 -18 3 4 -2 14 -12 24 -18 16 -18 16 -6 -6z"/>
<path d="M711 595 c-39 -50 -40 -144 -3 -195 11 -14 36 -31 57 -39 32 -13 43
-13 78 0 60 21 82 57 82 134 0 49 -5 70 -21 92 -30 40 -55 36 -79 -12 l-20
-40 -20 40 c-24 49 -46 55 -74 20z m70 -54 c7 -34 17 -57 23 -54 6 4 6 -1 1
-13 -5 -10 -10 -38 -13 -61 -4 -41 -5 -41 -30 -32 -49 19 -62 38 -62 94 0 50
1 51 38 65 24 9 31 15 20 18 -9 2 -26 -2 -37 -8 -16 -8 -21 -8 -21 1 0 16 49
61 59 54 5 -2 14 -31 22 -64z m117 27 c17 -28 19 -41 12 -85 -9 -54 -25 -93
-44 -105 -21 -14 -27 -8 -15 15 12 22 12 22 -10 3 l-21 -19 -2 64 c-3 94 -1
105 17 133 23 34 39 33 63 -6z m-91 -155 c-4 -3 -7 0 -7 7 0 7 3 10 7 7 3 -4
3 -10 0 -14z"/>
<path d="M764 508 c-4 -7 -3 -8 4 -4 7 4 12 9 12 12 0 8 -9 4 -16 -8z"/>
<path d="M710 490 c0 -5 10 -15 23 -21 22 -12 22 -12 3 10 -21 23 -26 26 -26
11z"/>
<path d="M755 430 c-10 -11 -13 -20 -7 -20 6 0 16 9 22 20 6 11 9 20 7 20 -2
0 -12 -9 -22 -20z"/>
<path d="M860 575 c0 -3 2 -5 5 -5 3 0 5 2 5 5 0 3 -2 5 -5 5 -3 0 -5 -2 -5
-5z"/>
<path d="M830 552 c0 -5 10 -17 21 -28 22 -19 22 -19 10 3 -12 24 -31 39 -31
25z"/>
<path d="M874 478 c-4 -7 -3 -8 4 -4 7 4 12 9 12 12 0 8 -9 4 -16 -8z"/>
<path d="M850 442 c6 -13 14 -21 18 -18 3 4 -2 14 -12 24 -18 16 -18 16 -6 -6z"/>
<path d="M71 275 c-39 -50 -40 -144 -3 -195 11 -14 36 -31 57 -39 32 -13 43
-13 78 0 60 21 82 57 82 134 0 49 -5 70 -21 92 -30 40 -55 36 -79 -12 l-20
-40 -20 40 c-24 49 -46 55 -74 20z m70 -54 c7 -34 17 -57 23 -54 6 4 6 -1 1
-13 -5 -10 -10 -38 -13 -61 -4 -41 -5 -41 -30 -32 -49 19 -62 38 -62 94 0 50
1 51 38 65 24 9 31 15 20 18 -9 2 -26 -2 -37 -8 -16 -8 -21 -8 -21 1 0 16 49
61 59 54 5 -2 14 -31 22 -64z m117 27 c17 -28 19 -41 12 -85 -9 -54 -25 -93
-44 -105 -21 -14 -27 -8 -15 15 12 22 12 22 -10 3 l-21 -19 -2 64 c-3 94 -1
105 17 133 23 34 39 33 63 -6z m-91 -155 c-4 -3 -7 0 -7 7 0 7 3 10 7 7 3 -4
3 -10 0 -14z"/>
<path d="M124 188 c-4 -7 -3 -8 4 -4 12 7 16 16 8 16 -3 0 -8 -5 -12 -12z"/>
<path d="M70 170 c0 -5 10 -15 23 -21 22 -12 22 -12 3 10 -21 23 -26 26 -26
11z"/>
<path d="M115 110 c-10 -11 -13 -20 -7 -20 6 0 16 9 22 20 6 11 9 20 7 20 -2
0 -12 -9 -22 -20z"/>
<path d="M220 255 c0 -3 2 -5 5 -5 3 0 5 2 5 5 0 3 -2 5 -5 5 -3 0 -5 -2 -5
-5z"/>
<path d="M190 232 c0 -5 10 -17 21 -28 22 -19 22 -19 10 3 -12 24 -31 39 -31
25z"/>
<path d="M234 158 c-4 -7 -3 -8 4 -4 7 4 12 9 12 12 0 8 -9 4 -16 -8z"/>
<path d="M210 122 c6 -13 14 -21 18 -18 3 4 -2 14 -12 24 -18 16 -18 16 -6 -6z"/>
<path d="M391 275 c-39 -50 -40 -144 -3 -195 11 -14 36 -31 57 -39 32 -13 43
-13 78 0 60 21 82 57 82 134 0 49 -5 70 -21 92 -30 40 -55 36 -79 -12 l-20
-40 -20 40 c-24 49 -46 55 -74 20z m70 -54 c7 -34 17 -57 23 -54 6 4 6 -1 1
-13 -5 -10 -10 -38 -13 -61 -4 -41 -5 -41 -30 -32 -49 19 -62 38 -62 94 0 50
1 51 38 65 24 9 31 15 20 18 -9 2 -26 -2 -37 -8 -16 -8 -21 -8 -21 1 0 16 49
61 59 54 5 -2 14 -31 22 -64z m117 27 c17 -28 19 -41 12 -85 -9 -54 -25 -93
-44 -105 -21 -14 -27 -8 -15 15 12 22 12 22 -10 3 l-21 -19 -2 64 c-3 94 -1
105 17 133 23 34 39 33 63 -6z m-91 -155 c-4 -3 -7 0 -7 7 0 7 3 10 7 7 3 -4
3 -10 0 -14z"/>
<path d="M444 188 c-4 -7 -3 -8 4 -4 12 7 16 16 8 16 -3 0 -8 -5 -12 -12z"/>
<path d="M390 170 c0 -5 10 -15 23 -21 22 -12 22 -12 3 10 -21 23 -26 26 -26
11z"/>
<path d="M435 110 c-10 -11 -13 -20 -7 -20 6 0 16 9 22 20 6 11 9 20 7 20 -2
0 -12 -9 -22 -20z"/>
<path d="M540 255 c0 -3 2 -5 5 -5 3 0 5 2 5 5 0 3 -2 5 -5 5 -3 0 -5 -2 -5
-5z"/>
<path d="M510 232 c0 -5 10 -17 21 -28 22 -19 22 -19 10 3 -12 24 -31 39 -31
25z"/>
<path d="M554 158 c-4 -7 -3 -8 4 -4 12 7 16 16 8 16 -3 0 -8 -5 -12 -12z"/>
<path d="M530 122 c6 -13 14 -21 18 -18 3 4 -2 14 -12 24 -18 16 -18 16 -6 -6z"/>
<path d="M711 275 c-39 -50 -40 -144 -3 -195 11 -14 36 -31 57 -39 32 -13 43
-13 78 0 60 21 82 57 82 134 0 49 -5 70 -21 92 -30 40 -55 36 -79 -12 l-20
-40 -20 40 c-24 49 -46 55 -74 20z m70 -54 c7 -34 17 -57 23 -54 6 4 6 -1 1
-13 -5 -10 -10 -38 -13 -61 -4 -41 -5 -41 -30 -32 -49 19 -62 38 -62 94 0 50
1 51 38 65 24 9 31 15 20 18 -9 2 -26 -2 -37 -8 -16 -8 -21 -8 -21 1 0 16 49
61 59 54 5 -2 14 -31 22 -64z m117 27 c17 -28 19 -41 12 -85 -9 -54 -25 -93
-44 -105 -21 -14 -27 -8 -15 15 12 22 12 22 -10 3 l-21 -19 -2 64 c-3 94 -1
105 17 133 23 34 39 33 63 -6z m-91 -155 c-4 -3 -7 0 -7 7 0 7 3 10 7 7 3 -4
3 -10 0 -14z"/>
<path d="M764 188 c-4 -7 -3 -8 4 -4 7 4 12 9 12 12 0 8 -9 4 -16 -8z"/>
<path d="M710 170 c0 -5 10 -15 23 -21 22 -12 22 -12 3 10 -21 23 -26 26 -26
11z"/>
<path d="M755 110 c-10 -11 -13 -20 -7 -20 6 0 16 9 22 20 6 11 9 20 7 20 -2
0 -12 -9 -22 -20z"/>
<path d="M860 255 c0 -3 2 -5 5 -5 3 0 5 2 5 5 0 3 -2 5 -5 5 -3 0 -5 -2 -5
-5z"/>
<path d="M830 232 c0 -5 10 -17 21 -28 22 -19 22 -19 10 3 -12 24 -31 39 -31
25z"/>
<path d="M874 158 c-4 -7 -3 -8 4 -4 7 4 12 9 12 12 0 8 -9 4 -16 -8z"/>
<path d="M850 122 c6 -13 14 -21 18 -18 3 4 -2 14 -12 24 -18 16 -18 16 -6 -6z"/>
</g>
<g transform="translate(0.000000,96.000000) scale(0.100000,-0.100000)"
fill="#969696" stroke="none">
<path d="M80 915 c-19 -22 -8 -25 13 -3 9 10 13 18 8 18 -5 0 -14 -7 -21 -15z"/>
<path d="M205 921 c-4 -7 0 -8 11 -4 11 4 23 -2 37 -18 l19 -24 -14 25 c-17
27 -42 37 -53 21z"/>
<path d="M400 915 c-19 -22 -8 -25 13 -3 9 10 13 18 8 18 -5 0 -14 -7 -21 -15z"/>
<path d="M525 921 c-4 -7 0 -8 11 -4 11 4 23 -2 37 -18 l19 -24 -14 25 c-17
27 -42 37 -53 21z"/>
<path d="M720 915 c-19 -22 -8 -25 13 -3 9 10 13 18 8 18 -5 0 -14 -7 -21 -15z"/>
<path d="M845 921 c-4 -7 0 -8 11 -4 11 4 23 -2 37 -18 l19 -24 -14 25 c-17
27 -42 37 -53 21z"/>
<path d="M130 893 c0 -7 -7 -13 -15 -13 -8 0 -26 -5 -40 -12 -22 -10 -25 -17
-23 -57 l1 -46 4 40 c4 36 8 42 43 57 l40 17 6 -40 c4 -23 11 -36 17 -32 7 4
8 0 2 -13 -4 -10 -11 -38 -14 -62 l-6 -43 -38 20 c-25 13 -34 15 -26 5 15 -18
83 -39 103 -31 8 3 20 16 27 29 12 23 12 23 -10 4 l-21 -19 0 56 c0 40 -7 70
-25 104 -13 26 -25 42 -25 36z m37 -160 c-4 -3 -7 0 -7 7 0 7 3 10 7 7 3 -4 3
-10 0 -14z"/>
<path d="M190 895 c0 -3 2 -5 5 -5 3 0 5 2 5 5 0 3 -2 5 -5 5 -3 0 -5 -2 -5
-5z"/>
<path d="M220 895 c0 -3 2 -5 5 -5 3 0 5 2 5 5 0 3 -2 5 -5 5 -3 0 -5 -2 -5
-5z"/>
<path d="M450 893 c0 -7 -7 -13 -15 -13 -8 0 -26 -5 -40 -12 -22 -10 -25 -17
-23 -57 l1 -46 4 40 c4 36 8 42 43 57 l40 17 6 -40 c4 -23 11 -36 17 -32 7 4
8 0 2 -13 -4 -10 -11 -38 -14 -62 l-6 -43 -38 20 c-25 13 -34 15 -26 5 15 -18
83 -39 103 -31 8 3 20 16 27 29 12 23 12 23 -10 4 l-21 -19 0 56 c0 40 -7 70
-25 104 -13 26 -25 42 -25 36z m37 -160 c-4 -3 -7 0 -7 7 0 7 3 10 7 7 3 -4 3
-10 0 -14z"/>
<path d="M510 895 c0 -3 2 -5 5 -5 3 0 5 2 5 5 0 3 -2 5 -5 5 -3 0 -5 -2 -5
-5z"/>
<path d="M540 895 c0 -3 2 -5 5 -5 3 0 5 2 5 5 0 3 -2 5 -5 5 -3 0 -5 -2 -5
-5z"/>
<path d="M770 893 c0 -7 -7 -13 -15 -13 -8 0 -26 -5 -40 -12 -22 -10 -25 -17
-23 -57 l1 -46 4 40 c4 36 8 42 43 57 l40 17 6 -40 c4 -23 11 -36 17 -32 7 4
8 0 2 -13 -4 -10 -11 -38 -14 -62 l-6 -43 -38 20 c-25 13 -34 15 -26 5 15 -18
83 -39 103 -31 8 3 20 16 27 29 12 23 12 23 -10 4 l-21 -19 0 56 c0 40 -7 70
-25 104 -13 26 -25 42 -25 36z m37 -160 c-4 -3 -7 0 -7 7 0 7 3 10 7 7 3 -4 3
-10 0 -14z"/>
<path d="M830 895 c0 -3 2 -5 5 -5 3 0 5 2 5 5 0 3 -2 5 -5 5 -3 0 -5 -2 -5
-5z"/>
<path d="M860 895 c0 -3 2 -5 5 -5 3 0 5 2 5 5 0 3 -2 5 -5 5 -3 0 -5 -2 -5
-5z"/>
<path d="M190 872 c0 -5 10 -17 21 -28 22 -19 22 -19 10 3 -12 24 -31 39 -31
25z"/>
<path d="M510 872 c0 -5 10 -17 21 -28 22 -19 22 -19 10 3 -12 24 -31 39 -31
25z"/>
<path d="M830 872 c0 -5 10 -17 21 -28 22 -19 22 -19 10 3 -12 24 -31 39 -31
25z"/>
<path d="M124 828 c-4 -7 -3 -8 4 -4 7 4 12 9 12 12 0 8 -9 4 -16 -8z"/>
<path d="M271 812 c0 -18 -8 -49 -16 -70 -13 -32 -13 -35 0 -18 17 23 29 76
22 103 -3 10 -5 4 -6 -15z"/>
<path d="M444 828 c-4 -7 -3 -8 4 -4 12 7 16 16 8 16 -3 0 -8 -5 -12 -12z"/>
<path d="M591 812 c0 -18 -8 -49 -16 -70 -13 -32 -13 -35 0 -18 17 23 29 76
22 103 -3 10 -5 4 -6 -15z"/>
<path d="M764 828 c-4 -7 -3 -8 4 -4 12 7 16 16 8 16 -3 0 -8 -5 -12 -12z"/>
<path d="M911 812 c0 -18 -8 -49 -16 -70 -13 -32 -13 -35 0 -18 17 23 29 76
22 103 -3 10 -5 4 -6 -15z"/>
<path d="M70 810 c0 -5 10 -15 23 -21 22 -12 22 -12 3 10 -21 23 -26 26 -26
11z"/>
<path d="M390 810 c0 -5 10 -15 23 -21 22 -12 22 -12 3 10 -21 23 -26 26 -26
11z"/>
<path d="M710 810 c0 -5 10 -15 23 -21 22 -12 22 -12 3 10 -21 23 -26 26 -26
11z"/>
<path d="M234 798 c-4 -7 -3 -8 4 -4 12 7 16 16 8 16 -3 0 -8 -5 -12 -12z"/>
<path d="M554 798 c-4 -7 -3 -8 4 -4 12 7 16 16 8 16 -3 0 -8 -5 -12 -12z"/>
<path d="M874 798 c-4 -7 -3 -8 4 -4 12 7 16 16 8 16 -3 0 -8 -5 -12 -12z"/>
<path d="M210 762 c6 -13 14 -21 18 -18 3 4 -2 14 -12 24 -18 16 -18 16 -6 -6z"/>
<path d="M530 762 c6 -13 14 -21 18 -18 3 4 -2 14 -12 24 -18 16 -18 16 -6 -6z"/>
<path d="M850 762 c6 -13 14 -21 18 -18 3 4 -2 14 -12 24 -18 16 -18 16 -6 -6z"/>
<path d="M115 750 c-10 -11 -13 -20 -7 -20 6 0 16 9 22 20 6 11 9 20 7 20 -2
0 -12 -9 -22 -20z"/>
<path d="M435 750 c-10 -11 -13 -20 -7 -20 6 0 16 9 22 20 6 11 9 20 7 20 -2
0 -12 -9 -22 -20z"/>
<path d="M755 750 c-10 -11 -13 -20 -7 -20 6 0 16 9 22 20 6 11 9 20 7 20 -2
0 -12 -9 -22 -20z"/>
<path d="M80 595 c-19 -22 -8 -25 13 -3 9 10 13 18 8 18 -5 0 -14 -7 -21 -15z"/>
<path d="M205 601 c-4 -7 0 -8 11 -4 11 4 23 -2 37 -18 l19 -24 -14 25 c-17
27 -42 37 -53 21z"/>
<path d="M400 595 c-19 -22 -8 -25 13 -3 9 10 13 18 8 18 -5 0 -14 -7 -21 -15z"/>
<path d="M525 601 c-4 -7 0 -8 11 -4 11 4 23 -2 37 -18 l19 -24 -14 25 c-17
27 -42 37 -53 21z"/>
<path d="M720 595 c-19 -22 -8 -25 13 -3 9 10 13 18 8 18 -5 0 -14 -7 -21 -15z"/>
<path d="M845 601 c-4 -7 0 -8 11 -4 11 4 23 -2 37 -18 l19 -24 -14 25 c-17
27 -42 37 -53 21z"/>
<path d="M130 573 c0 -7 -7 -13 -15 -13 -8 0 -26 -5 -40 -12 -22 -10 -25 -17
-23 -57 l1 -46 4 40 c4 36 8 42 43 57 l40 17 6 -40 c4 -23 11 -36 17 -32 7 4
8 0 2 -13 -4 -10 -11 -38 -14 -62 l-6 -43 -38 20 c-25 13 -34 15 -26 5 15 -18
83 -39 103 -31 8 3 20 16 27 29 12 23 12 23 -10 4 l-21 -19 0 56 c0 40 -7 70
-25 104 -13 26 -25 42 -25 36z m37 -160 c-4 -3 -7 0 -7 7 0 7 3 10 7 7 3 -4 3
-10 0 -14z"/>
<path d="M190 575 c0 -3 2 -5 5 -5 3 0 5 2 5 5 0 3 -2 5 -5 5 -3 0 -5 -2 -5
-5z"/>
<path d="M220 575 c0 -3 2 -5 5 -5 3 0 5 2 5 5 0 3 -2 5 -5 5 -3 0 -5 -2 -5
-5z"/>
<path d="M450 573 c0 -7 -7 -13 -15 -13 -8 0 -26 -5 -40 -12 -22 -10 -25 -17
-23 -57 l1 -46 4 40 c4 36 8 42 43 57 l40 17 6 -40 c4 -23 11 -36 17 -32 7 4
8 0 2 -13 -4 -10 -11 -38 -14 -62 l-6 -43 -38 20 c-25 13 -34 15 -26 5 15 -18
83 -39 103 -31 8 3 20 16 27 29 12 23 12 23 -10 4 l-21 -19 0 56 c0 40 -7 70
-25 104 -13 26 -25 42 -25 36z m37 -160 c-4 -3 -7 0 -7 7 0 7 3 10 7 7 3 -4 3
-10 0 -14z"/>
<path d="M510 575 c0 -3 2 -5 5 -5 3 0 5 2 5 5 0 3 -2 5 -5 5 -3 0 -5 -2 -5
-5z"/>
<path d="M540 575 c0 -3 2 -5 5 -5 3 0 5 2 5 5 0 3 -2 5 -5 5 -3 0 -5 -2 -5
-5z"/>
<path d="M770 573 c0 -7 -7 -13 -15 -13 -8 0 -26 -5 -40 -12 -22 -10 -25 -17
-23 -57 l1 -46 4 40 c4 36 8 42 43 57 l40 17 6 -40 c4 -23 11 -36 17 -32 7 4
8 0 2 -13 -4 -10 -11 -38 -14 -62 l-6 -43 -38 20 c-25 13 -34 15 -26 5 15 -18
83 -39 103 -31 8 3 20 16 27 29 12 23 12 23 -10 4 l-21 -19 0 56 c0 40 -7 70
-25 104 -13 26 -25 42 -25 36z m37 -160 c-4 -3 -7 0 -7 7 0 7 3 10 7 7 3 -4 3
-10 0 -14z"/>
<path d="M830 575 c0 -3 2 -5 5 -5 3 0 5 2 5 5 0 3 -2 5 -5 5 -3 0 -5 -2 -5
-5z"/>
<path d="M860 575 c0 -3 2 -5 5 -5 3 0 5 2 5 5 0 3 -2 5 -5 5 -3 0 -5 -2 -5
-5z"/>
<path d="M190 552 c0 -5 10 -17 21 -28 22 -19 22 -19 10 3 -12 24 -31 39 -31
25z"/>
<path d="M510 552 c0 -5 10 -17 21 -28 22 -19 22 -19 10 3 -12 24 -31 39 -31
25z"/>
<path d="M830 552 c0 -5 10 -17 21 -28 22 -19 22 -19 10 3 -12 24 -31 39 -31
25z"/>
<path d="M124 508 c-4 -7 -3 -8 4 -4 7 4 12 9 12 12 0 8 -9 4 -16 -8z"/>
<path d="M271 492 c0 -18 -8 -49 -16 -70 -13 -32 -13 -35 0 -18 17 23 29 76
22 103 -3 10 -5 4 -6 -15z"/>
<path d="M444 508 c-4 -7 -3 -8 4 -4 7 4 12 9 12 12 0 8 -9 4 -16 -8z"/>
<path d="M591 492 c0 -18 -8 -49 -16 -70 -13 -32 -13 -35 0 -18 17 23 29 76
22 103 -3 10 -5 4 -6 -15z"/>
<path d="M764 508 c-4 -7 -3 -8 4 -4 7 4 12 9 12 12 0 8 -9 4 -16 -8z"/>
<path d="M911 492 c0 -18 -8 -49 -16 -70 -13 -32 -13 -35 0 -18 17 23 29 76
22 103 -3 10 -5 4 -6 -15z"/>
<path d="M70 490 c0 -5 10 -15 23 -21 22 -12 22 -12 3 10 -21 23 -26 26 -26
11z"/>
<path d="M390 490 c0 -5 10 -15 23 -21 22 -12 22 -12 3 10 -21 23 -26 26 -26
11z"/>
<path d="M710 490 c0 -5 10 -15 23 -21 22 -12 22 -12 3 10 -21 23 -26 26 -26
11z"/>
<path d="M234 478 c-4 -7 -3 -8 4 -4 12 7 16 16 8 16 -3 0 -8 -5 -12 -12z"/>
<path d="M554 478 c-4 -7 -3 -8 4 -4 12 7 16 16 8 16 -3 0 -8 -5 -12 -12z"/>
<path d="M874 478 c-4 -7 -3 -8 4 -4 7 4 12 9 12 12 0 8 -9 4 -16 -8z"/>
<path d="M210 442 c6 -13 14 -21 18 -18 3 4 -2 14 -12 24 -18 16 -18 16 -6 -6z"/>
<path d="M530 442 c6 -13 14 -21 18 -18 3 4 -2 14 -12 24 -18 16 -18 16 -6 -6z"/>
<path d="M850 442 c6 -13 14 -21 18 -18 3 4 -2 14 -12 24 -18 16 -18 16 -6 -6z"/>
<path d="M115 430 c-10 -11 -13 -20 -7 -20 6 0 16 9 22 20 6 11 9 20 7 20 -2
0 -12 -9 -22 -20z"/>
<path d="M435 430 c-10 -11 -13 -20 -7 -20 6 0 16 9 22 20 6 11 9 20 7 20 -2
0 -12 -9 -22 -20z"/>
<path d="M755 430 c-10 -11 -13 -20 -7 -20 6 0 16 9 22 20 6 11 9 20 7 20 -2
0 -12 -9 -22 -20z"/>
<path d="M80 275 c-19 -22 -8 -25 13 -3 9 10 13 18 8 18 -5 0 -14 -7 -21 -15z"/>
<path d="M205 281 c-4 -7 0 -8 11 -4 11 4 23 -2 37 -18 l19 -24 -14 25 c-17
27 -42 37 -53 21z"/>
<path d="M400 275 c-19 -22 -8 -25 13 -3 9 10 13 18 8 18 -5 0 -14 -7 -21 -15z"/>
<path d="M525 281 c-4 -7 0 -8 11 -4 11 4 23 -2 37 -18 l19 -24 -14 25 c-17
27 -42 37 -53 21z"/>
<path d="M720 275 c-19 -22 -8 -25 13 -3 9 10 13 18 8 18 -5 0 -14 -7 -21 -15z"/>
<path d="M845 281 c-4 -7 0 -8 11 -4 11 4 23 -2 37 -18 l19 -24 -14 25 c-17
27 -42 37 -53 21z"/>
<path d="M130 253 c0 -7 -7 -13 -15 -13 -8 0 -26 -5 -40 -12 -22 -10 -25 -17
-23 -57 l1 -46 4 40 c4 36 8 42 43 57 l40 17 6 -40 c4 -23 11 -36 17 -32 7 4
8 0 2 -13 -4 -10 -11 -38 -14 -62 l-6 -43 -38 20 c-25 13 -34 15 -26 5 15 -18
83 -39 103 -31 8 3 20 16 27 29 12 23 12 23 -10 4 l-21 -19 0 56 c0 40 -7 70
-25 104 -13 26 -25 42 -25 36z m37 -160 c-4 -3 -7 0 -7 7 0 7 3 10 7 7 3 -4 3
-10 0 -14z"/>
<path d="M190 255 c0 -3 2 -5 5 -5 3 0 5 2 5 5 0 3 -2 5 -5 5 -3 0 -5 -2 -5
-5z"/>
<path d="M220 255 c0 -3 2 -5 5 -5 3 0 5 2 5 5 0 3 -2 5 -5 5 -3 0 -5 -2 -5
-5z"/>
<path d="M450 253 c0 -7 -7 -13 -15 -13 -8 0 -26 -5 -40 -12 -22 -10 -25 -17
-23 -57 l1 -46 4 40 c4 36 8 42 43 57 l40 17 6 -40 c4 -23 11 -36 17 -32 7 4
8 0 2 -13 -4 -10 -11 -38 -14 -62 l-6 -43 -38 20 c-25 13 -34 15 -26 5 15 -18
83 -39 103 -31 8 3 20 16 27 29 12 23 12 23 -10 4 l-21 -19 0 56 c0 40 -7 70
-25 104 -13 26 -25 42 -25 36z m37 -160 c-4 -3 -7 0 -7 7 0 7 3 10 7 7 3 -4 3
-10 0 -14z"/>
<path d="M510 255 c0 -3 2 -5 5 -5 3 0 5 2 5 5 0 3 -2 5 -5 5 -3 0 -5 -2 -5
-5z"/>
<path d="M540 255 c0 -3 2 -5 5 -5 3 0 5 2 5 5 0 3 -2 5 -5 5 -3 0 -5 -2 -5
-5z"/>
<path d="M770 253 c0 -7 -7 -13 -15 -13 -8 0 -26 -5 -40 -12 -22 -10 -25 -17
-23 -57 l1 -46 4 40 c4 36 8 42 43 57 l40 17 6 -40 c4 -23 11 -36 17 -32 7 4
8 0 2 -13 -4 -10 -11 -38 -14 -62 l-6 -43 -38 20 c-25 13 -34 15 -26 5 15 -18
83 -39 103 -31 8 3 20 16 27 29 12 23 12 23 -10 4 l-21 -19 0 56 c0 40 -7 70
-25 104 -13 26 -25 42 -25 36z m37 -160 c-4 -3 -7 0 -7 7 0 7 3 10 7 7 3 -4 3
-10 0 -14z"/>
<path d="M830 255 c0 -3 2 -5 5 -5 3 0 5 2 5 5 0 3 -2 5 -5 5 -3 0 -5 -2 -5
-5z"/>
<path d="M860 255 c0 -3 2 -5 5 -5 3 0 5 2 5 5 0 3 -2 5 -5 5 -3 0 -5 -2 -5
-5z"/>
<path d="M190 232 c0 -5 10 -17 21 -28 22 -19 22 -19 10 3 -12 24 -31 39 -31
25z"/>
<path d="M510 232 c0 -5 10 -17 21 -28 22 -19 22 -19 10 3 -12 24 -31 39 -31
25z"/>
<path d="M830 232 c0 -5 10 -17 21 -28 22 -19 22 -19 10 3 -12 24 -31 39 -31
25z"/>
<path d="M124 188 c-4 -7 -3 -8 4 -4 12 7 16 16 8 16 -3 0 -8 -5 -12 -12z"/>
<path d="M271 172 c0 -18 -8 -49 -16 -70 -13 -32 -13 -35 0 -18 17 23 29 76
22 103 -3 10 -5 4 -6 -15z"/>
<path d="M444 188 c-4 -7 -3 -8 4 -4 12 7 16 16 8 16 -3 0 -8 -5 -12 -12z"/>
<path d="M591 172 c0 -18 -8 -49 -16 -70 -13 -32 -13 -35 0 -18 17 23 29 76
22 103 -3 10 -5 4 -6 -15z"/>
<path d="M764 188 c-4 -7 -3 -8 4 -4 7 4 12 9 12 12 0 8 -9 4 -16 -8z"/>
<path d="M911 172 c0 -18 -8 -49 -16 -70 -13 -32 -13 -35 0 -18 17 23 29 76
22 103 -3 10 -5 4 -6 -15z"/>
<path d="M70 170 c0 -5 10 -15 23 -21 22 -12 22 -12 3 10 -21 23 -26 26 -26
11z"/>
<path d="M390 170 c0 -5 10 -15 23 -21 22 -12 22 -12 3 10 -21 23 -26 26 -26
11z"/>
<path d="M710 170 c0 -5 10 -15 23 -21 22 -12 22 -12 3 10 -21 23 -26 26 -26
11z"/>
<path d="M234 158 c-4 -7 -3 -8 4 -4 7 4 12 9 12 12 0 8 -9 4 -16 -8z"/>
<path d="M554 158 c-4 -7 -3 -8 4 -4 12 7 16 16 8 16 -3 0 -8 -5 -12 -12z"/>
<path d="M874 158 c-4 -7 -3 -8 4 -4 7 4 12 9 12 12 0 8 -9 4 -16 -8z"/>
<path d="M210 122 c6 -13 14 -21 18 -18 3 4 -2 14 -12 24 -18 16 -18 16 -6 -6z"/>
<path d="M530 122 c6 -13 14 -21 18 -18 3 4 -2 14 -12 24 -18 16 -18 16 -6 -6z"/>
<path d="M850 122 c6 -13 14 -21 18 -18 3 4 -2 14 -12 24 -18 16 -18 16 -6 -6z"/>
<path d="M115 110 c-10 -11 -13 -20 -7 -20 6 0 16 9 22 20 6 11 9 20 7 20 -2
0 -12 -9 -22 -20z"/>
<path d="M435 110 c-10 -11 -13 -20 -7 -20 6 0 16 9 22 20 6 11 9 20 7 20 -2
0 -12 -9 -22 -20z"/>
<path d="M755 110 c-10 -11 -13 -20 -7 -20 6 0 16 9 22 20 6 11 9 20 7 20 -2
0 -12 -9 -22 -20z"/>
</g>
<g transform="translate(0.000000,96.000000) scale(0.100000,-0.100000)"
fill="#686868" stroke="none">
<path d="M220 895 c0 -3 2 -5 5 -5 3 0 5 2 5 5 0 3 -2 5 -5 5 -3 0 -5 -2 -5
-5z"/>
<path d="M540 895 c0 -3 2 -5 5 -5 3 0 5 2 5 5 0 3 -2 5 -5 5 -3 0 -5 -2 -5
-5z"/>
<path d="M860 895 c0 -3 2 -5 5 -5 3 0 5 2 5 5 0 3 -2 5 -5 5 -3 0 -5 -2 -5
-5z"/>
<path d="M74 865 c-26 -19 1 -20 36 0 23 13 23 14 4 15 -11 0 -29 -7 -40 -15z"/>
<path d="M190 872 c0 -5 10 -17 21 -28 22 -19 22 -19 10 3 -12 24 -31 39 -31
25z"/>
<path d="M394 865 c-26 -19 1 -20 36 0 23 13 23 14 4 15 -11 0 -29 -7 -40 -15z"/>
<path d="M510 872 c0 -5 10 -17 21 -28 22 -19 22 -19 10 3 -12 24 -31 39 -31
25z"/>
<path d="M714 865 c-26 -19 1 -20 36 0 23 13 23 14 4 15 -11 0 -29 -7 -40 -15z"/>
<path d="M830 872 c0 -5 10 -17 21 -28 22 -19 22 -19 10 3 -12 24 -31 39 -31
25z"/>
<path d="M124 828 c-4 -7 -3 -8 4 -4 7 4 12 9 12 12 0 8 -9 4 -16 -8z"/>
<path d="M161 824 c0 -11 3 -14 6 -6 3 7 2 16 -1 19 -3 4 -6 -2 -5 -13z"/>
<path d="M444 828 c-4 -7 -3 -8 4 -4 12 7 16 16 8 16 -3 0 -8 -5 -12 -12z"/>
<path d="M481 824 c0 -11 3 -14 6 -6 3 7 2 16 -1 19 -3 4 -6 -2 -5 -13z"/>
<path d="M764 828 c-4 -7 -3 -8 4 -4 12 7 16 16 8 16 -3 0 -8 -5 -12 -12z"/>
<path d="M801 824 c0 -11 3 -14 6 -6 3 7 2 16 -1 19 -3 4 -6 -2 -5 -13z"/>
<path d="M70 810 c0 -5 10 -15 23 -21 22 -12 22 -12 3 10 -21 23 -26 26 -26
11z"/>
<path d="M390 810 c0 -5 10 -15 23 -21 22 -12 22 -12 3 10 -21 23 -26 26 -26
11z"/>
<path d="M710 810 c0 -5 10 -15 23 -21 22 -12 22 -12 3 10 -21 23 -26 26 -26
11z"/>
<path d="M234 798 c-4 -7 -3 -8 4 -4 12 7 16 16 8 16 -3 0 -8 -5 -12 -12z"/>
<path d="M554 798 c-4 -7 -3 -8 4 -4 12 7 16 16 8 16 -3 0 -8 -5 -12 -12z"/>
<path d="M874 798 c-4 -7 -3 -8 4 -4 12 7 16 16 8 16 -3 0 -8 -5 -12 -12z"/>
<path d="M162 770 c0 -14 2 -19 5 -12 2 6 2 18 0 25 -3 6 -5 1 -5 -13z"/>
<path d="M482 770 c0 -14 2 -19 5 -12 2 6 2 18 0 25 -3 6 -5 1 -5 -13z"/>
<path d="M802 770 c0 -14 2 -19 5 -12 2 6 2 18 0 25 -3 6 -5 1 -5 -13z"/>
<path d="M210 762 c6 -13 14 -21 18 -18 3 4 -2 14 -12 24 -18 16 -18 16 -6 -6z"/>
<path d="M530 762 c6 -13 14 -21 18 -18 3 4 -2 14 -12 24 -18 16 -18 16 -6 -6z"/>
<path d="M850 762 c6 -13 14 -21 18 -18 3 4 -2 14 -12 24 -18 16 -18 16 -6 -6z"/>
<path d="M115 750 c-10 -11 -13 -20 -7 -20 6 0 16 9 22 20 6 11 9 20 7 20 -2
0 -12 -9 -22 -20z"/>
<path d="M435 750 c-10 -11 -13 -20 -7 -20 6 0 16 9 22 20 6 11 9 20 7 20 -2
0 -12 -9 -22 -20z"/>
<path d="M755 750 c-10 -11 -13 -20 -7 -20 6 0 16 9 22 20 6 11 9 20 7 20 -2
0 -12 -9 -22 -20z"/>
<path d="M161 707 c-1 -36 24 -34 47 3 l16 25 -26 -23 -26 -24 -5 24 c-4 20
-4 20 -6 -5z"/>
<path d="M481 707 c-1 -36 24 -34 47 3 l16 25 -26 -23 -26 -24 -5 24 c-4 20
-4 20 -6 -5z"/>
<path d="M801 707 c-1 -36 24 -34 47 3 l16 25 -26 -23 -26 -24 -5 24 c-4 20
-4 20 -6 -5z"/>
<path d="M220 575 c0 -3 2 -5 5 -5 3 0 5 2 5 5 0 3 -2 5 -5 5 -3 0 -5 -2 -5
-5z"/>
<path d="M540 575 c0 -3 2 -5 5 -5 3 0 5 2 5 5 0 3 -2 5 -5 5 -3 0 -5 -2 -5
-5z"/>
<path d="M860 575 c0 -3 2 -5 5 -5 3 0 5 2 5 5 0 3 -2 5 -5 5 -3 0 -5 -2 -5
-5z"/>
<path d="M74 545 c-26 -19 1 -20 36 0 23 13 23 14 4 15 -11 0 -29 -7 -40 -15z"/>
<path d="M190 552 c0 -5 10 -17 21 -28 22 -19 22 -19 10 3 -12 24 -31 39 -31
25z"/>
<path d="M394 545 c-26 -19 1 -20 36 0 23 13 23 14 4 15 -11 0 -29 -7 -40 -15z"/>
<path d="M510 552 c0 -5 10 -17 21 -28 22 -19 22 -19 10 3 -12 24 -31 39 -31
25z"/>
<path d="M714 545 c-26 -19 1 -20 36 0 23 13 23 14 4 15 -11 0 -29 -7 -40 -15z"/>
<path d="M830 552 c0 -5 10 -17 21 -28 22 -19 22 -19 10 3 -12 24 -31 39 -31
25z"/>
<path d="M124 508 c-4 -7 -3 -8 4 -4 7 4 12 9 12 12 0 8 -9 4 -16 -8z"/>
<path d="M161 504 c0 -11 3 -14 6 -6 3 7 2 16 -1 19 -3 4 -6 -2 -5 -13z"/>
<path d="M444 508 c-4 -7 -3 -8 4 -4 7 4 12 9 12 12 0 8 -9 4 -16 -8z"/>
<path d="M481 504 c0 -11 3 -14 6 -6 3 7 2 16 -1 19 -3 4 -6 -2 -5 -13z"/>
<path d="M764 508 c-4 -7 -3 -8 4 -4 7 4 12 9 12 12 0 8 -9 4 -16 -8z"/>
<path d="M801 504 c0 -11 3 -14 6 -6 3 7 2 16 -1 19 -3 4 -6 -2 -5 -13z"/>
<path d="M70 490 c0 -5 10 -15 23 -21 22 -12 22 -12 3 10 -21 23 -26 26 -26
11z"/>
<path d="M390 490 c0 -5 10 -15 23 -21 22 -12 22 -12 3 10 -21 23 -26 26 -26
11z"/>
<path d="M710 490 c0 -5 10 -15 23 -21 22 -12 22 -12 3 10 -21 23 -26 26 -26
11z"/>
<path d="M234 478 c-4 -7 -3 -8 4 -4 12 7 16 16 8 16 -3 0 -8 -5 -12 -12z"/>
<path d="M554 478 c-4 -7 -3 -8 4 -4 12 7 16 16 8 16 -3 0 -8 -5 -12 -12z"/>
<path d="M874 478 c-4 -7 -3 -8 4 -4 7 4 12 9 12 12 0 8 -9 4 -16 -8z"/>
<path d="M162 450 c0 -14 2 -19 5 -12 2 6 2 18 0 25 -3 6 -5 1 -5 -13z"/>
<path d="M482 450 c0 -14 2 -19 5 -12 2 6 2 18 0 25 -3 6 -5 1 -5 -13z"/>
<path d="M802 450 c0 -14 2 -19 5 -12 2 6 2 18 0 25 -3 6 -5 1 -5 -13z"/>
<path d="M210 442 c6 -13 14 -21 18 -18 3 4 -2 14 -12 24 -18 16 -18 16 -6 -6z"/>
<path d="M530 442 c6 -13 14 -21 18 -18 3 4 -2 14 -12 24 -18 16 -18 16 -6 -6z"/>
<path d="M850 442 c6 -13 14 -21 18 -18 3 4 -2 14 -12 24 -18 16 -18 16 -6 -6z"/>
<path d="M115 430 c-10 -11 -13 -20 -7 -20 6 0 16 9 22 20 6 11 9 20 7 20 -2
0 -12 -9 -22 -20z"/>
<path d="M435 430 c-10 -11 -13 -20 -7 -20 6 0 16 9 22 20 6 11 9 20 7 20 -2
0 -12 -9 -22 -20z"/>
<path d="M755 430 c-10 -11 -13 -20 -7 -20 6 0 16 9 22 20 6 11 9 20 7 20 -2
0 -12 -9 -22 -20z"/>
<path d="M161 387 c-1 -36 24 -34 47 3 l16 25 -26 -23 -26 -24 -5 24 c-4 20
-4 20 -6 -5z"/>
<path d="M481 387 c-1 -36 24 -34 47 3 l16 25 -26 -23 -26 -24 -5 24 c-4 20
-4 20 -6 -5z"/>
<path d="M801 387 c-1 -36 24 -34 47 3 l16 25 -26 -23 -26 -24 -5 24 c-4 20
-4 20 -6 -5z"/>
<path d="M220 255 c0 -3 2 -5 5 -5 3 0 5 2 5 5 0 3 -2 5 -5 5 -3 0 -5 -2 -5
-5z"/>
<path d="M540 255 c0 -3 2 -5 5 -5 3 0 5 2 5 5 0 3 -2 5 -5 5 -3 0 -5 -2 -5
-5z"/>
<path d="M860 255 c0 -3 2 -5 5 -5 3 0 5 2 5 5 0 3 -2 5 -5 5 -3 0 -5 -2 -5
-5z"/>
<path d="M74 225 c-26 -19 1 -20 36 0 23 13 23 14 4 15 -11 0 -29 -7 -40 -15z"/>
<path d="M190 232 c0 -5 10 -17 21 -28 22 -19 22 -19 10 3 -12 24 -31 39 -31
25z"/>
<path d="M394 225 c-26 -19 1 -20 36 0 23 13 23 14 4 15 -11 0 -29 -7 -40 -15z"/>
<path d="M510 232 c0 -5 10 -17 21 -28 22 -19 22 -19 10 3 -12 24 -31 39 -31
25z"/>
<path d="M714 225 c-26 -19 1 -20 36 0 23 13 23 14 4 15 -11 0 -29 -7 -40 -15z"/>
<path d="M830 232 c0 -5 10 -17 21 -28 22 -19 22 -19 10 3 -12 24 -31 39 -31
25z"/>
<path d="M124 188 c-4 -7 -3 -8 4 -4 12 7 16 16 8 16 -3 0 -8 -5 -12 -12z"/>
<path d="M161 184 c0 -11 3 -14 6 -6 3 7 2 16 -1 19 -3 4 -6 -2 -5 -13z"/>
<path d="M444 188 c-4 -7 -3 -8 4 -4 12 7 16 16 8 16 -3 0 -8 -5 -12 -12z"/>
<path d="M481 184 c0 -11 3 -14 6 -6 3 7 2 16 -1 19 -3 4 -6 -2 -5 -13z"/>
<path d="M764 188 c-4 -7 -3 -8 4 -4 7 4 12 9 12 12 0 8 -9 4 -16 -8z"/>
<path d="M801 184 c0 -11 3 -14 6 -6 3 7 2 16 -1 19 -3 4 -6 -2 -5 -13z"/>
<path d="M70 170 c0 -5 10 -15 23 -21 22 -12 22 -12 3 10 -21 23 -26 26 -26
11z"/>
<path d="M390 170 c0 -5 10 -15 23 -21 22 -12 22 -12 3 10 -21 23 -26 26 -26
11z"/>
<path d="M710 170 c0 -5 10 -15 23 -21 22 -12 22 -12 3 10 -21 23 -26 26 -26
11z"/>
<path d="M234 158 c-4 -7 -3 -8 4 -4 7 4 12 9 12 12 0 8 -9 4 -16 -8z"/>
<path d="M554 158 c-4 -7 -3 -8 4 -4 12 7 16 16 8 16 -3 0 -8 -5 -12 -12z"/>
<path d="M874 158 c-4 -7 -3 -8 4 -4 7 4 12 9 12 12 0 8 -9 4 -16 -8z"/>
<path d="M162 130 c0 -14 2 -19 5 -12 2 6 2 18 0 25 -3 6 -5 1 -5 -13z"/>
<path d="M482 130 c0 -14 2 -19 5 -12 2 6 2 18 0 25 -3 6 -5 1 -5 -13z"/>
<path d="M802 130 c0 -14 2 -19 5 -12 2 6 2 18 0 25 -3 6 -5 1 -5 -13z"/>
<path d="M210 122 c6 -13 14 -21 18 -18 3 4 -2 14 -12 24 -18 16 -18 16 -6 -6z"/>
<path d="M530 122 c6 -13 14 -21 18 -18 3 4 -2 14 -12 24 -18 16 -18 16 -6 -6z"/>
<path d="M850 122 c6 -13 14 -21 18 -18 3 4 -2 14 -12 24 -18 16 -18 16 -6 -6z"/>
<path d="M115 110 c-10 -11 -13 -20 -7 -20 6 0 16 9 22 20 6 11 9 20 7 20 -2
0 -12 -9 -22 -20z"/>
<path d="M435 110 c-10 -11 -13 -20 -7 -20 6 0 16 9 22 20 6 11 9 20 7 20 -2
0 -12 -9 -22 -20z"/>
<path d="M755 110 c-10 -11 -13 -20 -7 -20 6 0 16 9 22 20 6 11 9 20 7 20 -2
0 -12 -9 -22 -20z"/>
<path d="M161 67 c-1 -36 24 -34 47 3 l16 25 -26 -23 -26 -24 -5 24 c-4 20 -4
20 -6 -5z"/>
<path d="M481 67 c-1 -36 24 -34 47 3 l16 25 -26 -23 -26 -24 -5 24 c-4 20 -4
20 -6 -5z"/>
<path d="M801 67 c-1 -36 24 -34 47 3 l16 25 -26 -23 -26 -24 -5 24 c-4 20 -4
20 -6 -5z"/>
</g>
  </g>
</svg>
