<?xml version="1.0" encoding="UTF-8" standalone="no"?>
<!-- Created with Inkscape (http://www.inkscape.org/) -->

<svg
   xmlns:dc="http://purl.org/dc/elements/1.1/"
   xmlns:cc="http://creativecommons.org/ns#"
   xmlns:rdf="http://www.w3.org/1999/02/22-rdf-syntax-ns#"
   xmlns:svg="http://www.w3.org/2000/svg"
   xmlns="http://www.w3.org/2000/svg"
   xmlns:sodipodi="http://sodipodi.sourceforge.net/DTD/sodipodi-0.dtd"
   xmlns:inkscape="http://www.inkscape.org/namespaces/inkscape"
   width="16px"
   height="16px"
   viewBox="0 0 16px 16px"
   version="1.1"
   id="svgMain"
   inkscape:version="0.92.2 (5c3e80d, 2017-08-06)"
   sodipodi:docname="reference_SVG.svg">
  <defs
     id="defs4542" />
  <sodipodi:namedview
     id="base"
     pagecolor="#ffffff"
     bordercolor="#666666"
     borderopacity="1.0"
     inkscape:pageopacity="0.0"
     inkscape:pageshadow="2"
     inkscape:zoom="1"
     inkscape:cx="0"
     inkscape:cy="0"
     inkscape:document-units="px"
     inkscape:current-layer="layer1"
     showgrid="false"
     units="px"
     inkscape:window-width="1024"
     inkscape:window-height="768"
     inkscape:window-x="-8"
     inkscape:window-y="-8"
     inkscape:window-maximized="1" />
  <metadata
     id="metadata1">
    <rdf:RDF>
      <cc:Work
         rdf:about="">
        <dc:format>image/svg+xml</dc:format>
        <dc:type
           rdf:resource="http://purl.org/dc/dcmitype/StillImage" />
        <dc:title />
      </cc:Work>
    </rdf:RDF>
  </metadata>
  <g transform="translate(-16,-16) scale(0.5,0.5)"
     inkscape:label="Layer 1"
     inkscape:groupmode="layer"
     id="layer1">
    <!-- INSERT MARKER -->
<g transform="translate(0.000000,96.000000) scale(0.100000,-0.100000)"
fill="#cecece" stroke="none">
<path d="M28 929 l32 -35 -17 -42 c-10 -23 -25 -43 -33 -46 -13 -3 -13 -4 0
-5 8 -1 24 -22 36 -46 l20 -44 -35 -35 -35 -36 32 -33 32 -33 -17 -42 c-10
-23 -25 -43 -33 -46 -13 -3 -13 -4 0 -5 8 -1 24 -22 36 -46 l20 -44 -35 -35
-35 -36 32 -33 32 -33 -17 -42 c-10 -23 -25 -43 -33 -46 -13 -3 -13 -4 0 -5 8
-1 24 -22 36 -46 l20 -44 -35 -38 -36 -38 41 38 c36 33 42 36 54 22 7 -8 19
-15 26 -15 8 0 15 -10 15 -22 1 -17 2 -19 6 -5 3 10 14 17 29 17 14 0 39 7 56
16 30 15 31 15 64 -17 l34 -33 38 37 c34 33 40 36 52 22 7 -8 19 -15 26 -15 8
0 15 -10 15 -22 1 -17 2 -19 6 -5 3 10 14 17 29 17 14 0 39 7 56 16 30 15 31
15 64 -17 l34 -33 38 37 c34 33 40 36 52 22 7 -8 19 -15 26 -15 8 0 15 -10 15
-22 1 -17 2 -19 6 -5 3 10 14 17 29 17 14 0 39 7 56 16 30 15 31 15 67 -18
l36 -33 -33 36 c-27 30 -30 37 -18 42 24 9 50 71 42 100 -3 15 -17 39 -30 54
l-25 28 32 32 31 33 -33 34 c-26 27 -29 34 -17 39 24 9 50 71 42 100 -3 15
-17 39 -30 54 l-25 28 32 33 31 32 -33 34 c-26 27 -29 34 -17 39 24 9 50 71
42 100 -3 15 -17 39 -30 54 l-25 28 32 35 32 35 -35 -32 -35 -32 -24 20 c-13
10 -29 19 -36 19 -7 0 -16 6 -18 13 -4 10 -6 10 -6 0 -1 -7 -9 -13 -18 -13
-10 0 -33 -9 -52 -21 l-34 -20 -33 32 -34 33 -32 -31 -33 -32 -24 20 c-13 10
-29 19 -36 19 -7 0 -16 6 -18 13 -4 10 -6 10 -6 0 -1 -7 -9 -13 -18 -13 -10 0
-33 -9 -52 -21 l-34 -20 -33 32 -34 33 -32 -31 -33 -32 -24 20 c-13 10 -29 19
-36 19 -7 0 -16 6 -18 13 -4 10 -6 10 -6 0 -1 -7 -9 -13 -18 -13 -10 0 -33 -9
-52 -21 l-34 -20 -36 33 -36 33 33 -36z m325 -7 l27 -28 -17 -42 c-21 -49 -37
-53 -57 -14 -8 16 -22 34 -31 42 -14 12 -13 16 11 42 15 15 31 28 34 28 3 0
18 -13 33 -28z m320 0 l27 -28 -17 -42 c-21 -49 -37 -53 -57 -14 -8 16 -22 34
-31 42 -14 12 -13 16 11 42 15 15 31 28 34 28 3 0 18 -13 33 -28z m-503 1 c-1
-30 -61 -68 -79 -50 -17 17 -13 25 17 41 29 16 62 21 62 9z m75 -24 c31 -28
65 -76 65 -94 0 -3 -13 -5 -30 -5 -19 0 -30 5 -30 14 0 7 -7 19 -15 26 -14 11
-14 15 2 34 18 21 18 21 -2 4 -19 -15 -21 -15 -43 2 -13 11 -20 24 -16 34 9
24 29 19 69 -15z m245 24 c-1 -30 -61 -68 -79 -50 -17 17 -13 25 17 41 29 16
62 21 62 9z m75 -24 c31 -28 65 -76 65 -94 0 -3 -13 -5 -30 -5 -19 0 -30 5
-30 14 0 7 -7 19 -15 26 -14 11 -14 15 2 34 18 21 18 21 -2 4 -19 -15 -21 -15
-43 2 -13 11 -20 24 -16 34 9 24 29 19 69 -15z m245 24 c-1 -30 -61 -68 -79
-50 -17 17 -13 25 17 41 29 16 62 21 62 9z m75 -24 c31 -28 65 -76 65 -94 0
-3 -13 -5 -30 -5 -19 0 -30 5 -30 14 0 7 -7 19 -15 26 -14 11 -14 15 2 34 18
21 18 21 -2 4 -19 -15 -21 -15 -43 2 -13 11 -20 24 -16 34 9 24 29 19 69 -15z
m-798 -30 c5 -5 8 -21 5 -35 -3 -17 -11 -24 -28 -24 -27 0 -29 8 -12 45 12 28
19 30 35 14z m64 -32 c-7 -18 -18 -27 -31 -27 -30 0 -23 41 10 57 29 14 35 6
21 -30z m61 16 c38 -36 36 -53 -6 -53 -41 0 -50 10 -41 50 8 37 12 37 47 3z
m195 16 c5 -5 8 -21 5 -35 -3 -17 -11 -24 -28 -24 -27 0 -29 8 -12 45 12 28
19 30 35 14z m64 -32 c-7 -18 -18 -27 -31 -27 -30 0 -23 41 10 57 29 14 35 6
21 -30z m61 16 c38 -36 36 -53 -6 -53 -41 0 -50 10 -41 50 8 37 12 37 47 3z
m195 16 c5 -5 8 -21 5 -35 -3 -17 -11 -24 -28 -24 -27 0 -29 8 -12 45 12 28
19 30 35 14z m64 -32 c-7 -18 -18 -27 -31 -27 -30 0 -23 41 10 57 29 14 35 6
21 -30z m61 16 c38 -36 36 -53 -6 -53 -41 0 -50 10 -41 50 8 37 12 37 47 3z
m-758 -80 c5 -17 2 -31 -8 -41 -12 -13 -16 -11 -30 16 -22 42 -20 52 8 52 17
0 26 -7 30 -27z m41 7 c-19 -21 -35 -18 -35 6 0 9 10 14 27 14 25 0 26 -1 8
-20z m231 -25 l21 -44 -34 -33 -33 -32 -29 28 -29 27 24 24 c13 13 26 35 30
49 9 38 26 31 50 -19z m48 18 c5 -17 2 -31 -8 -41 -12 -13 -16 -11 -30 16 -22
42 -20 52 8 52 17 0 26 -7 30 -27z m41 7 c-19 -21 -35 -18 -35 6 0 9 10 14 27
14 25 0 26 -1 8 -20z m231 -25 l21 -44 -34 -33 -33 -32 -29 28 -29 27 24 24
c13 13 26 35 30 49 9 38 26 31 50 -19z m48 18 c5 -17 2 -31 -8 -41 -12 -13
-16 -11 -30 16 -22 42 -20 52 8 52 17 0 26 -7 30 -27z m41 7 c-19 -21 -35 -18
-35 6 0 9 10 14 27 14 25 0 26 -1 8 -20z m-565 -41 c0 -8 -50 -22 -56 -16 -2
2 -1 18 2 36 l7 32 23 -22 c13 -12 24 -26 24 -30z m40 37 c0 -7 -6 -19 -13
-25 -11 -8 -19 -5 -37 14 l-23 25 36 0 c25 0 37 -5 37 -14z m60 9 c0 -15 -31
-63 -44 -68 -23 -9 -40 18 -21 33 8 7 15 19 15 26 0 8 10 14 25 14 14 0 25 -2
25 -5z m220 -46 c0 -8 -50 -22 -56 -16 -2 2 -1 18 2 36 l7 32 23 -22 c13 -12
24 -26 24 -30z m40 37 c0 -7 -6 -19 -13 -25 -11 -8 -19 -5 -37 14 l-23 25 36
0 c25 0 37 -5 37 -14z m60 9 c0 -15 -31 -63 -44 -68 -23 -9 -40 18 -21 33 8 7
15 19 15 26 0 8 10 14 25 14 14 0 25 -2 25 -5z m220 -46 c0 -8 -50 -22 -56
-16 -2 2 -1 18 2 36 l7 32 23 -22 c13 -12 24 -26 24 -30z m40 37 c0 -7 -6 -19
-13 -25 -11 -8 -19 -5 -37 14 l-23 25 36 0 c25 0 37 -5 37 -14z m60 9 c0 -15
-31 -63 -44 -68 -23 -9 -40 18 -21 33 8 7 15 19 15 26 0 8 10 14 25 14 14 0
25 -2 25 -5z m-805 -35 c-5 -16 -10 -19 -18 -11 -7 7 -6 15 3 26 17 20 24 13
15 -15z m320 0 c-5 -16 -10 -19 -18 -11 -7 7 -6 15 3 26 17 20 24 13 15 -15z
m320 0 c-5 -16 -10 -19 -18 -11 -7 7 -6 15 3 26 7 8 15 13 17 11 3 -2 2 -14
-2 -26z m-655 -25 c21 -25 -4 -44 -33 -26 -20 13 -21 13 -8 -2 7 -10 20 -17
27 -17 8 0 15 -10 15 -22 1 -17 2 -19 6 -5 3 10 14 17 29 17 14 0 39 7 56 16
30 16 31 15 61 -15 l31 -31 -28 -29 -29 -30 -25 19 c-13 11 -31 20 -38 20 -8
0 -14 6 -15 13 0 10 -2 10 -6 0 -2 -7 -12 -13 -21 -13 -9 0 -32 -9 -51 -21
l-34 -21 -31 31 -30 31 49 50 c27 27 52 50 56 50 4 0 12 -7 19 -15z m320 0
c21 -25 -4 -44 -33 -26 -20 13 -21 13 -8 -2 7 -10 20 -17 27 -17 8 0 15 -10
15 -22 1 -17 2 -19 6 -5 3 10 14 17 29 17 14 0 39 7 56 16 30 16 31 15 61 -15
l31 -31 -28 -29 -29 -30 -25 19 c-13 11 -31 20 -38 20 -8 0 -14 6 -15 13 0 10
-2 10 -6 0 -2 -7 -12 -13 -21 -13 -9 0 -32 -9 -51 -21 l-34 -21 -31 31 -30 31
49 50 c27 27 52 50 56 50 4 0 12 -7 19 -15z m320 0 c21 -25 -4 -44 -33 -26
-20 13 -21 13 -8 -2 7 -10 20 -17 27 -17 8 0 15 -10 15 -22 1 -17 2 -19 6 -5
3 10 14 17 29 17 14 0 39 7 56 16 30 16 31 15 61 -15 l31 -31 -28 -29 -29 -30
-25 19 c-13 11 -31 20 -38 20 -8 0 -14 6 -15 13 0 10 -2 10 -6 0 -2 -7 -12
-13 -21 -13 -9 0 -32 -9 -51 -21 l-34 -21 -31 31 -30 31 49 50 c27 27 52 50
56 50 4 0 12 -7 19 -15z m-533 -11 c4 -13 -40 -34 -73 -34 -35 0 -26 21 17 36
37 14 51 13 56 -2z m320 0 c4 -13 -40 -34 -73 -34 -35 0 -26 21 17 36 37 14
51 13 56 -2z m320 0 c4 -13 -40 -34 -73 -34 -35 0 -26 21 17 36 37 14 51 13
56 -2z m-524 -112 l27 -28 -17 -42 c-21 -49 -37 -53 -57 -14 -8 16 -22 34 -31
42 -14 12 -13 16 11 42 15 15 31 28 34 28 3 0 18 -13 33 -28z m320 0 l27 -28
-17 -42 c-21 -49 -37 -53 -57 -14 -8 16 -22 34 -31 42 -14 12 -13 16 11 42 15
15 31 28 34 28 3 0 18 -13 33 -28z m-503 1 c-1 -30 -61 -68 -79 -50 -17 17
-13 25 17 41 29 16 62 21 62 9z m75 -24 c31 -28 65 -76 65 -94 0 -3 -13 -5
-30 -5 -19 0 -30 5 -30 14 0 7 -7 19 -15 26 -14 11 -14 15 2 34 18 21 18 21
-2 4 -19 -15 -21 -15 -43 2 -13 11 -20 24 -16 34 9 24 29 19 69 -15z m245 24
c-1 -30 -61 -68 -79 -50 -17 17 -13 25 17 41 29 16 62 21 62 9z m75 -24 c31
-28 65 -76 65 -94 0 -3 -13 -5 -30 -5 -19 0 -30 5 -30 14 0 7 -7 19 -15 26
-14 11 -14 15 2 34 18 21 18 21 -2 4 -19 -15 -21 -15 -43 2 -13 11 -20 24 -16
34 9 24 29 19 69 -15z m245 24 c-1 -30 -61 -68 -79 -50 -17 17 -13 25 17 41
29 16 62 21 62 9z m75 -24 c31 -28 65 -76 65 -94 0 -3 -13 -5 -30 -5 -19 0
-30 5 -30 14 0 7 -7 19 -15 26 -14 11 -14 15 2 34 18 21 18 21 -2 4 -19 -15
-21 -15 -43 2 -13 11 -20 24 -16 34 9 24 29 19 69 -15z m-798 -30 c5 -5 8 -21
5 -35 -3 -17 -11 -24 -28 -24 -27 0 -29 8 -12 45 12 28 19 30 35 14z m64 -32
c-7 -18 -18 -27 -31 -27 -30 0 -23 41 10 57 29 14 35 6 21 -30z m61 16 c38
-36 36 -53 -6 -53 -41 0 -50 10 -41 50 8 37 12 37 47 3z m195 16 c5 -5 8 -21
5 -35 -3 -17 -11 -24 -28 -24 -27 0 -29 8 -12 45 12 28 19 30 35 14z m64 -32
c-7 -18 -18 -27 -31 -27 -30 0 -23 41 10 57 29 14 35 6 21 -30z m61 16 c38
-36 36 -53 -6 -53 -41 0 -50 10 -41 50 8 37 12 37 47 3z m195 16 c5 -5 8 -21
5 -35 -3 -17 -11 -24 -28 -24 -27 0 -29 8 -12 45 12 28 19 30 35 14z m64 -32
c-7 -18 -18 -27 -31 -27 -30 0 -23 41 10 57 29 14 35 6 21 -30z m61 16 c38
-36 36 -53 -6 -53 -41 0 -50 10 -41 50 8 37 12 37 47 3z m-758 -80 c5 -17 2
-31 -8 -41 -12 -13 -16 -11 -30 16 -22 42 -20 52 8 52 17 0 26 -7 30 -27z m41
7 c-19 -21 -35 -18 -35 6 0 9 10 14 27 14 25 0 26 -1 8 -20z m231 -25 l21 -44
-34 -33 -33 -32 -29 28 -29 27 24 24 c13 13 26 35 30 49 9 38 26 31 50 -19z
m48 18 c5 -17 2 -31 -8 -41 -12 -13 -16 -11 -30 16 -22 42 -20 52 8 52 17 0
26 -7 30 -27z m41 7 c-19 -21 -35 -18 -35 6 0 9 10 14 27 14 25 0 26 -1 8 -20z
m231 -25 l21 -44 -34 -33 -33 -32 -29 28 -29 27 24 24 c13 13 26 35 30 49 9
38 26 31 50 -19z m48 18 c5 -17 2 -31 -8 -41 -12 -13 -16 -11 -30 16 -22 42
-20 52 8 52 17 0 26 -7 30 -27z m41 7 c-19 -21 -35 -18 -35 6 0 9 10 14 27 14
25 0 26 -1 8 -20z m-565 -41 c0 -8 -50 -22 -56 -16 -2 2 -1 18 2 36 l7 32 23
-22 c13 -12 24 -26 24 -30z m40 37 c0 -7 -6 -19 -13 -25 -11 -8 -19 -5 -37 14
l-23 25 36 0 c25 0 37 -5 37 -14z m60 9 c0 -15 -31 -63 -44 -68 -23 -9 -40 18
-21 33 8 7 15 19 15 26 0 8 10 14 25 14 14 0 25 -2 25 -5z m220 -46 c0 -8 -50
-22 -56 -16 -2 2 -1 18 2 36 l7 32 23 -22 c13 -12 24 -26 24 -30z m40 37 c0
-7 -6 -19 -13 -25 -11 -8 -19 -5 -37 14 l-23 25 36 0 c25 0 37 -5 37 -14z m60
9 c0 -15 -31 -63 -44 -68 -23 -9 -40 18 -21 33 8 7 15 19 15 26 0 8 10 14 25
14 14 0 25 -2 25 -5z m220 -46 c0 -8 -50 -22 -56 -16 -2 2 -1 18 2 36 l7 32
23 -22 c13 -12 24 -26 24 -30z m40 37 c0 -7 -6 -19 -13 -25 -11 -8 -19 -5 -37
14 l-23 25 36 0 c25 0 37 -5 37 -14z m60 9 c0 -15 -31 -63 -44 -68 -23 -9 -40
18 -21 33 8 7 15 19 15 26 0 8 10 14 25 14 14 0 25 -2 25 -5z m-805 -35 c-5
-16 -10 -19 -18 -11 -7 7 -6 15 3 26 17 20 24 13 15 -15z m320 0 c-5 -16 -10
-19 -18 -11 -7 7 -6 15 3 26 7 8 15 13 17 11 3 -2 2 -14 -2 -26z m320 0 c-5
-16 -10 -19 -18 -11 -7 7 -6 15 3 26 17 20 24 13 15 -15z m-655 -25 c21 -25
-4 -44 -33 -26 -20 13 -21 13 -8 -2 7 -10 20 -17 27 -17 8 0 15 -10 15 -22 1
-17 2 -19 6 -5 3 10 14 17 29 17 14 0 39 7 56 16 30 16 31 15 61 -15 l31 -31
-28 -29 -29 -30 -25 19 c-13 11 -31 20 -38 20 -8 0 -14 6 -15 13 0 10 -2 10
-6 0 -2 -7 -12 -13 -21 -13 -9 0 -32 -9 -51 -21 l-34 -21 -31 31 -30 31 49 50
c27 27 52 50 56 50 4 0 12 -7 19 -15z m320 0 c21 -25 -4 -44 -33 -26 -20 13
-21 13 -8 -2 7 -10 20 -17 27 -17 8 0 15 -10 15 -22 1 -17 2 -19 6 -5 3 10 14
17 29 17 14 0 39 7 56 16 30 16 31 15 61 -15 l31 -31 -28 -29 -29 -30 -25 19
c-13 11 -31 20 -38 20 -8 0 -14 6 -15 13 0 10 -2 10 -6 0 -2 -7 -12 -13 -21
-13 -9 0 -32 -9 -51 -21 l-34 -21 -31 31 -30 31 49 50 c27 27 52 50 56 50 4 0
12 -7 19 -15z m320 0 c21 -25 -4 -44 -33 -26 -20 13 -21 13 -8 -2 7 -10 20
-17 27 -17 8 0 15 -10 15 -22 1 -17 2 -19 6 -5 3 10 14 17 29 17 14 0 39 7 56
16 30 16 31 15 61 -15 l31 -31 -28 -29 -29 -30 -25 19 c-13 11 -31 20 -38 20
-8 0 -14 6 -15 13 0 10 -2 10 -6 0 -2 -7 -12 -13 -21 -13 -9 0 -32 -9 -51 -21
l-34 -21 -31 31 -30 31 49 50 c27 27 52 50 56 50 4 0 12 -7 19 -15z m-533 -11
c4 -13 -40 -34 -73 -34 -35 0 -26 21 17 36 37 14 51 13 56 -2z m320 0 c4 -13
-40 -34 -73 -34 -35 0 -26 21 17 36 37 14 51 13 56 -2z m320 0 c4 -13 -40 -34
-73 -34 -35 0 -26 21 17 36 37 14 51 13 56 -2z m-524 -112 l27 -28 -17 -42
c-21 -49 -37 -53 -57 -14 -8 16 -22 34 -31 42 -14 12 -13 16 11 42 15 15 31
28 34 28 3 0 18 -13 33 -28z m320 0 l27 -28 -17 -42 c-21 -49 -37 -53 -57 -14
-8 16 -22 34 -31 42 -14 12 -13 16 11 42 15 15 31 28 34 28 3 0 18 -13 33 -28z
m-503 1 c-1 -30 -61 -68 -79 -50 -17 17 -13 25 17 41 29 16 62 21 62 9z m75
-24 c31 -28 65 -76 65 -94 0 -3 -13 -5 -30 -5 -19 0 -30 5 -30 14 0 7 -7 19
-15 26 -14 11 -14 15 2 34 18 21 18 21 -2 4 -19 -15 -21 -15 -43 2 -13 11 -20
24 -16 34 9 24 29 19 69 -15z m245 24 c-1 -30 -61 -68 -79 -50 -17 17 -13 25
17 41 29 16 62 21 62 9z m75 -24 c31 -28 65 -76 65 -94 0 -3 -13 -5 -30 -5
-19 0 -30 5 -30 14 0 7 -7 19 -15 26 -14 11 -14 15 2 34 18 21 18 21 -2 4 -19
-15 -21 -15 -43 2 -13 11 -20 24 -16 34 9 24 29 19 69 -15z m245 24 c-1 -30
-61 -68 -79 -50 -17 17 -13 25 17 41 29 16 62 21 62 9z m75 -24 c31 -28 65
-76 65 -94 0 -3 -13 -5 -30 -5 -19 0 -30 5 -30 14 0 7 -7 19 -15 26 -14 11
-14 15 2 34 18 21 18 21 -2 4 -19 -15 -21 -15 -43 2 -13 11 -20 24 -16 34 9
24 29 19 69 -15z m-798 -30 c5 -5 8 -21 5 -35 -3 -17 -11 -24 -28 -24 -27 0
-29 8 -12 45 12 28 19 30 35 14z m64 -32 c-7 -18 -18 -27 -31 -27 -30 0 -23
41 10 57 29 14 35 6 21 -30z m61 16 c38 -36 36 -53 -6 -53 -41 0 -50 10 -41
50 8 37 12 37 47 3z m195 16 c5 -5 8 -21 5 -35 -3 -17 -11 -24 -28 -24 -27 0
-29 8 -12 45 12 28 19 30 35 14z m64 -32 c-7 -18 -18 -27 -31 -27 -30 0 -23
41 10 57 29 14 35 6 21 -30z m61 16 c38 -36 36 -53 -6 -53 -41 0 -50 10 -41
50 8 37 12 37 47 3z m195 16 c5 -5 8 -21 5 -35 -3 -17 -11 -24 -28 -24 -27 0
-29 8 -12 45 12 28 19 30 35 14z m64 -32 c-7 -18 -18 -27 -31 -27 -30 0 -23
41 10 57 29 14 35 6 21 -30z m61 16 c38 -36 36 -53 -6 -53 -41 0 -50 10 -41
50 8 37 12 37 47 3z m-758 -79 c4 -15 2 -33 -6 -42 -12 -15 -11 -16 5 -3 16
12 20 12 35 -2 13 -13 14 -19 4 -29 -16 -16 -39 -2 -69 42 -29 42 -29 60 1 60
17 0 26 -7 30 -26z m41 6 c-19 -21 -35 -18 -35 6 0 9 10 14 27 14 25 0 26 -1
8 -20z m231 -25 l21 -44 -34 -33 -33 -32 -29 28 -29 27 24 24 c13 13 26 35 30
49 9 38 26 31 50 -19z m48 19 c4 -15 2 -33 -6 -42 -12 -15 -11 -16 5 -3 16 12
20 12 35 -2 13 -13 14 -19 4 -29 -16 -16 -39 -2 -69 42 -29 42 -29 60 1 60 17
0 26 -7 30 -26z m41 6 c-19 -21 -35 -18 -35 6 0 9 10 14 27 14 25 0 26 -1 8
-20z m231 -25 l21 -44 -34 -33 -33 -32 -29 28 -29 27 24 24 c13 13 26 35 30
49 9 38 26 31 50 -19z m48 19 c4 -15 2 -33 -6 -42 -12 -15 -11 -16 5 -3 16 12
20 12 35 -2 13 -13 14 -19 4 -29 -16 -16 -39 -2 -69 42 -29 42 -29 60 1 60 17
0 26 -7 30 -26z m41 6 c-19 -21 -35 -18 -35 6 0 9 10 14 27 14 25 0 26 -1 8
-20z m-565 -41 c0 -8 -50 -22 -56 -16 -2 2 -1 18 2 36 l7 32 23 -22 c13 -12
24 -26 24 -30z m40 37 c0 -7 -6 -19 -13 -25 -11 -8 -19 -5 -37 14 l-23 25 36
0 c25 0 37 -5 37 -14z m60 9 c0 -15 -31 -63 -44 -68 -23 -9 -40 18 -21 33 8 7
15 19 15 26 0 8 10 14 25 14 14 0 25 -2 25 -5z m220 -46 c0 -8 -50 -22 -56
-16 -2 2 -1 18 2 36 l7 32 23 -22 c13 -12 24 -26 24 -30z m40 37 c0 -7 -6 -19
-13 -25 -11 -8 -19 -5 -37 14 l-23 25 36 0 c25 0 37 -5 37 -14z m60 9 c0 -15
-31 -63 -44 -68 -23 -9 -40 18 -21 33 8 7 15 19 15 26 0 8 10 14 25 14 14 0
25 -2 25 -5z m220 -46 c0 -8 -50 -22 -56 -16 -2 2 -1 18 2 36 l7 32 23 -22
c13 -12 24 -26 24 -30z m40 37 c0 -7 -6 -19 -13 -25 -11 -8 -19 -5 -37 14
l-23 25 36 0 c25 0 37 -5 37 -14z m60 9 c0 -15 -31 -63 -44 -68 -23 -9 -40 18
-21 33 8 7 15 19 15 26 0 8 10 14 25 14 14 0 25 -2 25 -5z m-805 -35 c-5 -16
-10 -19 -18 -11 -7 7 -6 15 3 26 17 20 24 13 15 -15z m320 0 c-5 -16 -10 -19
-18 -11 -7 7 -6 15 3 26 17 20 24 13 15 -15z m320 0 c-5 -16 -10 -19 -18 -11
-7 7 -6 15 3 26 17 20 24 13 15 -15z m-548 -36 c4 -13 -40 -34 -73 -34 -35 0
-26 21 17 36 37 14 51 13 56 -2z m320 0 c4 -13 -40 -34 -73 -34 -35 0 -26 21
17 36 37 14 51 13 56 -2z m320 0 c4 -13 -40 -34 -73 -34 -35 0 -26 21 17 36
37 14 51 13 56 -2z"/>
<path d="M110 846 c0 -2 8 -10 18 -17 15 -13 16 -12 3 4 -13 16 -21 21 -21 13z"/>
<path d="M184 828 l-19 -23 23 19 c12 11 22 21 22 23 0 8 -8 2 -26 -19z"/>
<path d="M430 846 c0 -2 8 -10 18 -17 15 -13 16 -12 3 4 -13 16 -21 21 -21 13z"/>
<path d="M504 828 l-19 -23 23 19 c21 18 27 26 19 26 -2 0 -12 -10 -23 -22z"/>
<path d="M750 846 c0 -2 8 -10 18 -17 15 -13 16 -12 3 4 -13 16 -21 21 -21 13z"/>
<path d="M824 828 l-19 -23 23 19 c21 18 27 26 19 26 -2 0 -12 -10 -23 -22z"/>
<path d="M110 526 c0 -2 8 -10 18 -17 15 -13 16 -12 3 4 -13 16 -21 21 -21 13z"/>
<path d="M184 508 l-19 -23 23 19 c21 18 27 26 19 26 -2 0 -12 -10 -23 -22z"/>
<path d="M430 526 c0 -2 8 -10 18 -17 15 -13 16 -12 3 4 -13 16 -21 21 -21 13z"/>
<path d="M504 508 l-19 -23 23 19 c21 18 27 26 19 26 -2 0 -12 -10 -23 -22z"/>
<path d="M750 526 c0 -2 8 -10 18 -17 15 -13 16 -12 3 4 -13 16 -21 21 -21 13z"/>
<path d="M824 508 l-19 -23 23 19 c21 18 27 26 19 26 -2 0 -12 -10 -23 -22z"/>
<path d="M110 206 c0 -2 8 -10 18 -17 15 -13 16 -12 3 4 -13 16 -21 21 -21 13z"/>
<path d="M184 188 l-19 -23 23 19 c21 18 27 26 19 26 -2 0 -12 -10 -23 -22z"/>
<path d="M430 206 c0 -2 8 -10 18 -17 15 -13 16 -12 3 4 -13 16 -21 21 -21 13z"/>
<path d="M504 188 l-19 -23 23 19 c21 18 27 26 19 26 -2 0 -12 -10 -23 -22z"/>
<path d="M750 206 c0 -2 8 -10 18 -17 15 -13 16 -12 3 4 -13 16 -21 21 -21 13z"/>
<path d="M824 188 l-19 -23 23 19 c21 18 27 26 19 26 -2 0 -12 -10 -23 -22z"/>
</g>
<g transform="translate(0.000000,96.000000) scale(0.100000,-0.100000)"
fill="#dddddd" stroke="none">
<path d="M170 951 c0 -5 -8 -12 -17 -14 -16 -4 -16 -5 1 -6 12 -1 16 -6 12
-16 -7 -20 -4 -19 15 3 13 15 13 20 2 30 -7 7 -13 8 -13 3z"/>
<path d="M490 951 c0 -5 -8 -12 -17 -14 -16 -4 -16 -5 1 -6 12 -1 16 -6 12
-16 -7 -20 -4 -19 15 3 13 15 13 20 2 30 -7 7 -13 8 -13 3z"/>
<path d="M810 951 c0 -5 -8 -12 -17 -14 -16 -4 -16 -5 1 -6 12 -1 16 -6 12
-16 -7 -20 -4 -19 15 3 13 15 13 20 2 30 -7 7 -13 8 -13 3z"/>
<path d="M45 910 c3 -5 8 -10 11 -10 3 0 2 5 -1 10 -3 6 -8 10 -11 10 -3 0 -2
-4 1 -10z"/>
<path d="M84 908 c-4 -7 -3 -8 4 -4 12 7 16 16 8 16 -3 0 -8 -5 -12 -12z"/>
<path d="M230 915 c0 -3 2 -5 5 -5 3 0 5 2 5 5 0 3 -2 5 -5 5 -3 0 -5 -2 -5
-5z"/>
<path d="M245 890 c-28 -29 -29 -29 -49 -12 -21 17 -21 17 -3 -4 9 -11 14 -24
10 -28 -5 -4 -2 -6 5 -4 8 2 19 -5 25 -15 10 -14 9 -20 -3 -27 -13 -8 -13 -10
2 -10 9 0 19 -8 21 -17 4 -17 5 -17 6 0 1 11 9 17 27 17 22 0 24 -3 19 -22 -5
-18 -4 -20 4 -8 6 8 10 26 10 40 0 14 -3 19 -6 13 -7 -18 -63 -17 -63 1 0 7
-7 19 -15 26 -14 12 -12 17 17 47 17 18 30 33 27 33 -3 0 -18 -13 -34 -30z"/>
<path d="M365 910 c3 -5 8 -10 11 -10 3 0 2 5 -1 10 -3 6 -8 10 -11 10 -3 0
-2 -4 1 -10z"/>
<path d="M404 908 c-4 -7 -3 -8 4 -4 12 7 16 16 8 16 -3 0 -8 -5 -12 -12z"/>
<path d="M550 915 c0 -3 2 -5 5 -5 3 0 5 2 5 5 0 3 -2 5 -5 5 -3 0 -5 -2 -5
-5z"/>
<path d="M565 890 c-28 -29 -29 -29 -49 -12 -21 17 -21 17 -3 -4 9 -11 14 -24
10 -28 -5 -4 -2 -6 5 -4 8 2 19 -5 25 -15 10 -14 9 -20 -3 -27 -13 -8 -13 -10
2 -10 9 0 19 -8 21 -17 4 -17 5 -17 6 0 1 11 9 17 27 17 22 0 24 -3 19 -22 -5
-18 -4 -20 4 -8 6 8 10 26 10 40 0 14 -3 19 -6 13 -7 -18 -63 -17 -63 1 0 7
-7 19 -15 26 -14 12 -12 17 17 47 17 18 30 33 27 33 -3 0 -18 -13 -34 -30z"/>
<path d="M685 910 c3 -5 8 -10 11 -10 3 0 2 5 -1 10 -3 6 -8 10 -11 10 -3 0
-2 -4 1 -10z"/>
<path d="M724 908 c-4 -7 -3 -8 4 -4 12 7 16 16 8 16 -3 0 -8 -5 -12 -12z"/>
<path d="M870 915 c0 -3 2 -5 5 -5 3 0 5 2 5 5 0 3 -2 5 -5 5 -3 0 -5 -2 -5
-5z"/>
<path d="M885 890 c-28 -29 -29 -29 -49 -12 -21 17 -21 17 -3 -4 9 -11 14 -24
10 -28 -5 -4 -2 -6 5 -4 8 2 19 -5 25 -15 10 -14 9 -20 -3 -27 -13 -8 -13 -10
2 -10 9 0 19 -8 21 -17 4 -17 5 -17 6 0 1 11 9 17 27 17 22 0 24 -3 19 -22 -5
-18 -4 -20 4 -8 6 8 10 26 10 40 0 14 -3 19 -6 13 -7 -18 -63 -17 -63 1 0 7
-7 19 -15 26 -14 12 -12 17 17 47 17 18 30 33 27 33 -3 0 -18 -13 -34 -30z"/>
<path d="M144 878 c-4 -7 -3 -8 4 -4 12 7 16 16 8 16 -3 0 -8 -5 -12 -12z"/>
<path d="M464 878 c-4 -7 -3 -8 4 -4 12 7 16 16 8 16 -3 0 -8 -5 -12 -12z"/>
<path d="M784 878 c-4 -7 -3 -8 4 -4 7 4 12 9 12 12 0 8 -9 4 -16 -8z"/>
<path d="M85 870 c3 -5 8 -10 11 -10 3 0 2 5 -1 10 -3 6 -8 10 -11 10 -3 0 -2
-4 1 -10z"/>
<path d="M270 875 c0 -3 2 -5 5 -5 3 0 5 2 5 5 0 3 -2 5 -5 5 -3 0 -5 -2 -5
-5z"/>
<path d="M405 870 c3 -5 8 -10 11 -10 3 0 2 5 -1 10 -3 6 -8 10 -11 10 -3 0
-2 -4 1 -10z"/>
<path d="M590 875 c0 -3 2 -5 5 -5 3 0 5 2 5 5 0 3 -2 5 -5 5 -3 0 -5 -2 -5
-5z"/>
<path d="M725 870 c3 -5 8 -10 11 -10 3 0 2 5 -1 10 -3 6 -8 10 -11 10 -3 0
-2 -4 1 -10z"/>
<path d="M910 875 c0 -3 2 -5 5 -5 3 0 5 2 5 5 0 3 -2 5 -5 5 -3 0 -5 -2 -5
-5z"/>
<path d="M28 824 c-8 -30 4 -45 20 -28 7 8 8 14 3 14 -5 0 -11 8 -13 18 -3 14
-5 14 -10 -4z"/>
<path d="M147 826 c-5 -12 -16 -16 -34 -14 -23 2 -27 0 -25 -17 2 -11 8 -24
12 -29 5 -5 6 0 3 13 -4 18 -1 21 21 21 15 0 25 -4 22 -8 -2 -4 -1 -14 5 -22
7 -12 9 -12 9 3 0 10 4 16 8 13 4 -2 14 -1 22 5 12 7 12 9 -3 9 -10 0 -21 10
-26 22 -7 19 -8 19 -14 4z"/>
<path d="M348 824 c-8 -30 4 -45 20 -28 7 8 8 14 3 14 -5 0 -11 8 -13 18 -3
14 -5 14 -10 -4z"/>
<path d="M467 826 c-5 -12 -16 -16 -34 -14 -23 2 -27 0 -25 -17 2 -11 8 -24
12 -29 5 -5 6 0 3 13 -4 18 -1 21 21 21 15 0 25 -4 22 -8 -2 -4 -1 -14 5 -22
7 -12 9 -12 9 3 0 10 4 16 8 13 4 -2 14 -1 22 5 12 7 12 9 -3 9 -10 0 -21 10
-26 22 -7 19 -8 19 -14 4z"/>
<path d="M668 824 c-8 -30 4 -45 20 -28 7 8 8 14 3 14 -5 0 -11 8 -13 18 -3
14 -5 14 -10 -4z"/>
<path d="M787 826 c-5 -12 -16 -16 -34 -14 -23 2 -27 0 -25 -17 2 -11 8 -24
12 -29 5 -5 6 0 3 13 -4 18 -1 21 21 21 15 0 25 -4 22 -8 -2 -4 -1 -14 5 -22
7 -12 9 -12 9 3 0 10 4 16 8 13 4 -2 14 -1 22 5 12 7 12 9 -3 9 -10 0 -21 10
-26 22 -7 19 -8 19 -14 4z"/>
<path d="M170 815 c0 -3 2 -5 5 -5 3 0 5 2 5 5 0 3 -2 5 -5 5 -3 0 -5 -2 -5
-5z"/>
<path d="M490 815 c0 -3 2 -5 5 -5 3 0 5 2 5 5 0 3 -2 5 -5 5 -3 0 -5 -2 -5
-5z"/>
<path d="M810 815 c0 -3 2 -5 5 -5 3 0 5 2 5 5 0 3 -2 5 -5 5 -3 0 -5 -2 -5
-5z"/>
<path d="M204 741 c0 -10 6 -17 12 -14 18 7 29 -18 13 -29 -11 -7 -9 -8 5 -4
10 4 26 1 35 -6 13 -10 14 -10 4 1 -9 11 -7 18 10 33 l22 20 -25 -16 c-23 -15
-26 -14 -50 9 -23 22 -26 23 -26 6z"/>
<path d="M524 741 c0 -10 6 -17 12 -14 18 7 29 -18 13 -29 -11 -7 -9 -8 5 -4
10 4 26 1 35 -6 13 -10 14 -10 4 1 -9 11 -7 18 10 33 l22 20 -25 -16 c-23 -15
-26 -14 -50 9 -23 22 -26 23 -26 6z"/>
<path d="M844 741 c0 -10 6 -17 12 -14 18 7 29 -18 13 -29 -11 -7 -9 -8 5 -4
10 4 26 1 35 -6 13 -10 14 -10 4 1 -9 11 -7 18 10 33 l22 20 -25 -16 c-23 -15
-26 -14 -50 9 -23 22 -26 23 -26 6z"/>
<path d="M59 727 c6 -8 7 -18 3 -23 -4 -5 -3 -6 2 -2 5 4 16 2 25 -4 9 -7 5 0
-8 15 -25 27 -43 39 -22 14z"/>
<path d="M140 723 c0 -12 -4 -24 -10 -28 -15 -9 0 -34 17 -28 11 5 12 8 2 14
-10 6 -10 11 -1 21 7 9 8 19 2 28 -8 12 -10 10 -10 -7z"/>
<path d="M379 727 c6 -8 7 -18 3 -23 -4 -5 -3 -6 2 -2 5 4 16 2 25 -4 9 -7 5
0 -8 15 -25 27 -43 39 -22 14z"/>
<path d="M460 723 c0 -12 -4 -24 -10 -28 -15 -9 0 -34 17 -28 11 5 12 8 2 14
-10 6 -10 11 -1 21 7 9 8 19 2 28 -8 12 -10 10 -10 -7z"/>
<path d="M699 727 c6 -8 7 -18 3 -23 -4 -5 -3 -6 2 -2 5 4 16 2 25 -4 9 -7 5
0 -8 15 -25 27 -43 39 -22 14z"/>
<path d="M780 723 c0 -12 -4 -24 -10 -28 -15 -9 0 -34 17 -28 11 5 12 8 2 14
-10 6 -10 11 -1 21 7 9 8 19 2 28 -8 12 -10 10 -10 -7z"/>
<path d="M170 631 c0 -5 -8 -12 -17 -14 -16 -4 -16 -5 1 -6 12 -1 16 -6 12
-16 -7 -20 -4 -19 15 3 13 15 13 20 2 30 -7 7 -13 8 -13 3z"/>
<path d="M490 631 c0 -5 -8 -12 -17 -14 -16 -4 -16 -5 1 -6 12 -1 16 -6 12
-16 -7 -20 -4 -19 15 3 13 15 13 20 2 30 -7 7 -13 8 -13 3z"/>
<path d="M810 631 c0 -5 -8 -12 -17 -14 -16 -4 -16 -5 1 -6 12 -1 16 -6 12
-16 -7 -20 -4 -19 15 3 13 15 13 20 2 30 -7 7 -13 8 -13 3z"/>
<path d="M45 590 c3 -5 8 -10 11 -10 3 0 2 5 -1 10 -3 6 -8 10 -11 10 -3 0 -2
-4 1 -10z"/>
<path d="M84 588 c-4 -7 -3 -8 4 -4 12 7 16 16 8 16 -3 0 -8 -5 -12 -12z"/>
<path d="M230 595 c0 -3 2 -5 5 -5 3 0 5 2 5 5 0 3 -2 5 -5 5 -3 0 -5 -2 -5
-5z"/>
<path d="M245 570 c-28 -29 -29 -29 -49 -12 -21 17 -21 17 -3 -4 9 -11 14 -24
10 -28 -5 -4 -2 -6 5 -4 8 2 19 -5 25 -15 10 -14 9 -20 -3 -27 -13 -8 -13 -10
2 -10 9 0 19 -8 21 -17 4 -17 5 -17 6 0 1 11 9 17 27 17 22 0 24 -3 19 -22 -5
-18 -4 -20 4 -8 6 8 10 26 10 40 0 14 -3 19 -6 13 -7 -18 -63 -17 -63 1 0 7
-7 19 -15 26 -14 12 -12 17 17 47 17 18 30 33 27 33 -3 0 -18 -13 -34 -30z"/>
<path d="M365 590 c3 -5 8 -10 11 -10 3 0 2 5 -1 10 -3 6 -8 10 -11 10 -3 0
-2 -4 1 -10z"/>
<path d="M404 588 c-4 -7 -3 -8 4 -4 7 4 12 9 12 12 0 8 -9 4 -16 -8z"/>
<path d="M550 595 c0 -3 2 -5 5 -5 3 0 5 2 5 5 0 3 -2 5 -5 5 -3 0 -5 -2 -5
-5z"/>
<path d="M565 570 c-28 -29 -29 -29 -49 -12 -21 17 -21 17 -3 -4 9 -11 14 -24
10 -28 -5 -4 -2 -6 5 -4 8 2 19 -5 25 -15 10 -14 9 -20 -3 -27 -13 -8 -13 -10
2 -10 9 0 19 -8 21 -17 4 -17 5 -17 6 0 1 11 9 17 27 17 22 0 24 -3 19 -22 -5
-18 -4 -20 4 -8 6 8 10 26 10 40 0 14 -3 19 -6 13 -7 -18 -63 -17 -63 1 0 7
-7 19 -15 26 -14 12 -12 17 17 47 17 18 30 33 27 33 -3 0 -18 -13 -34 -30z"/>
<path d="M685 590 c3 -5 8 -10 11 -10 3 0 2 5 -1 10 -3 6 -8 10 -11 10 -3 0
-2 -4 1 -10z"/>
<path d="M724 588 c-4 -7 -3 -8 4 -4 7 4 12 9 12 12 0 8 -9 4 -16 -8z"/>
<path d="M870 595 c0 -3 2 -5 5 -5 3 0 5 2 5 5 0 3 -2 5 -5 5 -3 0 -5 -2 -5
-5z"/>
<path d="M885 570 c-28 -29 -29 -29 -49 -12 -21 17 -21 17 -3 -4 9 -11 14 -24
10 -28 -5 -4 -2 -6 5 -4 8 2 19 -5 25 -15 10 -14 9 -20 -3 -27 -13 -8 -13 -10
2 -10 9 0 19 -8 21 -17 4 -17 5 -17 6 0 1 11 9 17 27 17 22 0 24 -3 19 -22 -5
-18 -4 -20 4 -8 6 8 10 26 10 40 0 14 -3 19 -6 13 -7 -18 -63 -17 -63 1 0 7
-7 19 -15 26 -14 12 -12 17 17 47 17 18 30 33 27 33 -3 0 -18 -13 -34 -30z"/>
<path d="M144 558 c-4 -7 -3 -8 4 -4 7 4 12 9 12 12 0 8 -9 4 -16 -8z"/>
<path d="M464 558 c-4 -7 -3 -8 4 -4 7 4 12 9 12 12 0 8 -9 4 -16 -8z"/>
<path d="M784 558 c-4 -7 -3 -8 4 -4 7 4 12 9 12 12 0 8 -9 4 -16 -8z"/>
<path d="M85 550 c3 -5 8 -10 11 -10 3 0 2 5 -1 10 -3 6 -8 10 -11 10 -3 0 -2
-4 1 -10z"/>
<path d="M270 555 c0 -3 2 -5 5 -5 3 0 5 2 5 5 0 3 -2 5 -5 5 -3 0 -5 -2 -5
-5z"/>
<path d="M405 550 c3 -5 8 -10 11 -10 3 0 2 5 -1 10 -3 6 -8 10 -11 10 -3 0
-2 -4 1 -10z"/>
<path d="M590 555 c0 -3 2 -5 5 -5 3 0 5 2 5 5 0 3 -2 5 -5 5 -3 0 -5 -2 -5
-5z"/>
<path d="M725 550 c3 -5 8 -10 11 -10 3 0 2 5 -1 10 -3 6 -8 10 -11 10 -3 0
-2 -4 1 -10z"/>
<path d="M910 555 c0 -3 2 -5 5 -5 3 0 5 2 5 5 0 3 -2 5 -5 5 -3 0 -5 -2 -5
-5z"/>
<path d="M28 504 c-8 -30 4 -45 20 -28 7 8 8 14 3 14 -5 0 -11 8 -13 18 -3 14
-5 14 -10 -4z"/>
<path d="M147 506 c-5 -12 -16 -16 -34 -14 -23 2 -27 0 -25 -17 2 -11 8 -24
12 -29 5 -5 6 0 3 13 -4 18 -1 21 21 21 15 0 25 -4 22 -8 -2 -4 -1 -14 5 -22
7 -12 9 -12 9 3 0 10 4 16 8 13 4 -2 14 -1 22 5 12 7 12 9 -3 9 -10 0 -21 10
-26 22 -7 19 -8 19 -14 4z"/>
<path d="M348 504 c-8 -30 4 -45 20 -28 7 8 8 14 3 14 -5 0 -11 8 -13 18 -3
14 -5 14 -10 -4z"/>
<path d="M467 506 c-5 -12 -16 -16 -34 -14 -23 2 -27 0 -25 -17 2 -11 8 -24
12 -29 5 -5 6 0 3 13 -4 18 -1 21 21 21 15 0 25 -4 22 -8 -2 -4 -1 -14 5 -22
7 -12 9 -12 9 3 0 10 4 16 8 13 4 -2 14 -1 22 5 12 7 12 9 -3 9 -10 0 -21 10
-26 22 -7 19 -8 19 -14 4z"/>
<path d="M668 504 c-8 -30 4 -45 20 -28 7 8 8 14 3 14 -5 0 -11 8 -13 18 -3
14 -5 14 -10 -4z"/>
<path d="M787 506 c-5 -12 -16 -16 -34 -14 -23 2 -27 0 -25 -17 2 -11 8 -24
12 -29 5 -5 6 0 3 13 -4 18 -1 21 21 21 15 0 25 -4 22 -8 -2 -4 -1 -14 5 -22
7 -12 9 -12 9 3 0 10 4 16 8 13 4 -2 14 -1 22 5 12 7 12 9 -3 9 -10 0 -21 10
-26 22 -7 19 -8 19 -14 4z"/>
<path d="M170 495 c0 -3 2 -5 5 -5 3 0 5 2 5 5 0 3 -2 5 -5 5 -3 0 -5 -2 -5
-5z"/>
<path d="M490 495 c0 -3 2 -5 5 -5 3 0 5 2 5 5 0 3 -2 5 -5 5 -3 0 -5 -2 -5
-5z"/>
<path d="M810 495 c0 -3 2 -5 5 -5 3 0 5 2 5 5 0 3 -2 5 -5 5 -3 0 -5 -2 -5
-5z"/>
<path d="M204 421 c0 -10 6 -17 12 -14 18 7 29 -18 13 -29 -11 -7 -9 -8 5 -4
10 4 26 1 35 -6 13 -10 14 -10 4 1 -9 11 -7 18 10 33 l22 20 -25 -16 c-23 -15
-26 -14 -50 9 -23 22 -26 23 -26 6z"/>
<path d="M524 421 c0 -10 6 -17 12 -14 18 7 29 -18 13 -29 -11 -7 -9 -8 5 -4
10 4 26 1 35 -6 13 -10 14 -10 4 1 -9 11 -7 18 10 33 l22 20 -25 -16 c-23 -15
-26 -14 -50 9 -23 22 -26 23 -26 6z"/>
<path d="M844 421 c0 -10 6 -17 12 -14 18 7 29 -18 13 -29 -11 -7 -9 -8 5 -4
10 4 26 1 35 -6 13 -10 14 -10 4 1 -9 11 -7 18 10 33 l22 20 -25 -16 c-23 -15
-26 -14 -50 9 -23 22 -26 23 -26 6z"/>
<path d="M59 407 c6 -8 7 -18 3 -23 -4 -5 -3 -6 2 -2 5 4 16 2 25 -4 9 -7 5 0
-8 15 -25 27 -43 39 -22 14z"/>
<path d="M140 403 c0 -12 -4 -24 -10 -28 -15 -9 0 -34 17 -28 11 5 12 8 2 14
-10 6 -10 11 -1 21 7 9 8 19 2 28 -8 12 -10 10 -10 -7z"/>
<path d="M379 407 c6 -8 7 -18 3 -23 -4 -5 -3 -6 2 -2 5 4 16 2 25 -4 9 -7 5
0 -8 15 -25 27 -43 39 -22 14z"/>
<path d="M460 403 c0 -12 -4 -24 -10 -28 -15 -9 0 -34 17 -28 11 5 12 8 2 14
-10 6 -10 11 -1 21 7 9 8 19 2 28 -8 12 -10 10 -10 -7z"/>
<path d="M699 407 c6 -8 7 -18 3 -23 -4 -5 -3 -6 2 -2 5 4 16 2 25 -4 9 -7 5
0 -8 15 -25 27 -43 39 -22 14z"/>
<path d="M780 403 c0 -12 -4 -24 -10 -28 -15 -9 0 -34 17 -28 11 5 12 8 2 14
-10 6 -10 11 -1 21 7 9 8 19 2 28 -8 12 -10 10 -10 -7z"/>
<path d="M170 311 c0 -5 -8 -12 -17 -14 -16 -4 -16 -5 1 -6 12 -1 16 -6 12
-16 -7 -20 -4 -19 15 3 13 15 13 20 2 30 -7 7 -13 8 -13 3z"/>
<path d="M490 311 c0 -5 -8 -12 -17 -14 -16 -4 -16 -5 1 -6 12 -1 16 -6 12
-16 -7 -20 -4 -19 15 3 13 15 13 20 2 30 -7 7 -13 8 -13 3z"/>
<path d="M810 311 c0 -5 -8 -12 -17 -14 -16 -4 -16 -5 1 -6 12 -1 16 -6 12
-16 -7 -20 -4 -19 15 3 13 15 13 20 2 30 -7 7 -13 8 -13 3z"/>
<path d="M45 270 c3 -5 8 -10 11 -10 3 0 2 5 -1 10 -3 6 -8 10 -11 10 -3 0 -2
-4 1 -10z"/>
<path d="M84 268 c-4 -7 -3 -8 4 -4 12 7 16 16 8 16 -3 0 -8 -5 -12 -12z"/>
<path d="M230 275 c0 -3 2 -5 5 -5 3 0 5 2 5 5 0 3 -2 5 -5 5 -3 0 -5 -2 -5
-5z"/>
<path d="M245 250 c-28 -29 -29 -29 -49 -12 -21 17 -21 17 -3 -4 9 -11 14 -24
10 -28 -5 -4 -2 -6 5 -4 8 2 19 -5 25 -15 10 -14 9 -20 -3 -27 -13 -8 -13 -10
2 -10 9 0 19 -8 21 -17 4 -17 5 -17 6 0 1 11 9 17 27 17 22 0 24 -3 19 -22 -5
-18 -4 -20 4 -8 6 8 10 26 10 40 0 14 -3 19 -6 13 -7 -18 -63 -17 -63 1 0 7
-7 19 -15 26 -14 12 -12 17 17 47 17 18 30 33 27 33 -3 0 -18 -13 -34 -30z"/>
<path d="M365 270 c3 -5 8 -10 11 -10 3 0 2 5 -1 10 -3 6 -8 10 -11 10 -3 0
-2 -4 1 -10z"/>
<path d="M404 268 c-4 -7 -3 -8 4 -4 12 7 16 16 8 16 -3 0 -8 -5 -12 -12z"/>
<path d="M550 275 c0 -3 2 -5 5 -5 3 0 5 2 5 5 0 3 -2 5 -5 5 -3 0 -5 -2 -5
-5z"/>
<path d="M565 250 c-28 -29 -29 -29 -49 -12 -21 17 -21 17 -3 -4 9 -11 14 -24
10 -28 -5 -4 -2 -6 5 -4 8 2 19 -5 25 -15 10 -14 9 -20 -3 -27 -13 -8 -13 -10
2 -10 9 0 19 -8 21 -17 4 -17 5 -17 6 0 1 11 9 17 27 17 22 0 24 -3 19 -22 -5
-18 -4 -20 4 -8 6 8 10 26 10 40 0 14 -3 19 -6 13 -7 -18 -63 -17 -63 1 0 7
-7 19 -15 26 -14 12 -12 17 17 47 17 18 30 33 27 33 -3 0 -18 -13 -34 -30z"/>
<path d="M685 270 c3 -5 8 -10 11 -10 3 0 2 5 -1 10 -3 6 -8 10 -11 10 -3 0
-2 -4 1 -10z"/>
<path d="M724 268 c-4 -7 -3 -8 4 -4 7 4 12 9 12 12 0 8 -9 4 -16 -8z"/>
<path d="M870 275 c0 -3 2 -5 5 -5 3 0 5 2 5 5 0 3 -2 5 -5 5 -3 0 -5 -2 -5
-5z"/>
<path d="M885 250 c-28 -29 -29 -29 -49 -12 -21 17 -21 17 -3 -4 9 -11 14 -24
10 -28 -5 -4 -2 -6 5 -4 8 2 19 -5 25 -15 10 -14 9 -20 -3 -27 -13 -8 -13 -10
2 -10 9 0 19 -8 21 -17 4 -17 5 -17 6 0 1 11 9 17 27 17 22 0 24 -3 19 -22 -5
-18 -4 -20 4 -8 6 8 10 26 10 40 0 14 -3 19 -6 13 -7 -18 -63 -17 -63 1 0 7
-7 19 -15 26 -14 12 -12 17 17 47 17 18 30 33 27 33 -3 0 -18 -13 -34 -30z"/>
<path d="M144 238 c-4 -7 -3 -8 4 -4 12 7 16 16 8 16 -3 0 -8 -5 -12 -12z"/>
<path d="M464 238 c-4 -7 -3 -8 4 -4 12 7 16 16 8 16 -3 0 -8 -5 -12 -12z"/>
<path d="M784 238 c-4 -7 -3 -8 4 -4 7 4 12 9 12 12 0 8 -9 4 -16 -8z"/>
<path d="M85 230 c3 -5 8 -10 11 -10 3 0 2 5 -1 10 -3 6 -8 10 -11 10 -3 0 -2
-4 1 -10z"/>
<path d="M270 235 c0 -3 2 -5 5 -5 3 0 5 2 5 5 0 3 -2 5 -5 5 -3 0 -5 -2 -5
-5z"/>
<path d="M405 230 c3 -5 8 -10 11 -10 3 0 2 5 -1 10 -3 6 -8 10 -11 10 -3 0
-2 -4 1 -10z"/>
<path d="M590 235 c0 -3 2 -5 5 -5 3 0 5 2 5 5 0 3 -2 5 -5 5 -3 0 -5 -2 -5
-5z"/>
<path d="M725 230 c3 -5 8 -10 11 -10 3 0 2 5 -1 10 -3 6 -8 10 -11 10 -3 0
-2 -4 1 -10z"/>
<path d="M910 235 c0 -3 2 -5 5 -5 3 0 5 2 5 5 0 3 -2 5 -5 5 -3 0 -5 -2 -5
-5z"/>
<path d="M28 184 c-8 -30 4 -45 20 -28 7 8 8 14 3 14 -5 0 -11 8 -13 18 -3 14
-5 14 -10 -4z"/>
<path d="M147 186 c-5 -12 -16 -16 -34 -14 -23 2 -27 0 -25 -17 2 -11 8 -24
12 -29 5 -5 6 0 3 13 -4 18 -1 21 21 21 15 0 25 -4 22 -8 -2 -4 -1 -14 5 -22
7 -12 9 -12 9 3 0 10 4 16 8 13 4 -2 14 -1 22 5 12 7 12 9 -3 9 -10 0 -21 10
-26 22 -7 19 -8 19 -14 4z"/>
<path d="M348 184 c-8 -30 4 -45 20 -28 7 8 8 14 3 14 -5 0 -11 8 -13 18 -3
14 -5 14 -10 -4z"/>
<path d="M467 186 c-5 -12 -16 -16 -34 -14 -23 2 -27 0 -25 -17 2 -11 8 -24
12 -29 5 -5 6 0 3 13 -4 18 -1 21 21 21 15 0 25 -4 22 -8 -2 -4 -1 -14 5 -22
7 -12 9 -12 9 3 0 10 4 16 8 13 4 -2 14 -1 22 5 12 7 12 9 -3 9 -10 0 -21 10
-26 22 -7 19 -8 19 -14 4z"/>
<path d="M668 184 c-8 -30 4 -45 20 -28 7 8 8 14 3 14 -5 0 -11 8 -13 18 -3
14 -5 14 -10 -4z"/>
<path d="M787 186 c-5 -12 -16 -16 -34 -14 -23 2 -27 0 -25 -17 2 -11 8 -24
12 -29 5 -5 6 0 3 13 -4 18 -1 21 21 21 15 0 25 -4 22 -8 -2 -4 -1 -14 5 -22
7 -12 9 -12 9 3 0 10 4 16 8 13 4 -2 14 -1 22 5 12 7 12 9 -3 9 -10 0 -21 10
-26 22 -7 19 -8 19 -14 4z"/>
<path d="M170 175 c0 -3 2 -5 5 -5 3 0 5 2 5 5 0 3 -2 5 -5 5 -3 0 -5 -2 -5
-5z"/>
<path d="M490 175 c0 -3 2 -5 5 -5 3 0 5 2 5 5 0 3 -2 5 -5 5 -3 0 -5 -2 -5
-5z"/>
<path d="M810 175 c0 -3 2 -5 5 -5 3 0 5 2 5 5 0 3 -2 5 -5 5 -3 0 -5 -2 -5
-5z"/>
<path d="M204 101 c0 -10 6 -17 12 -14 18 7 29 -18 13 -29 -11 -7 -9 -8 5 -4
10 4 26 1 35 -6 13 -10 14 -10 4 1 -9 11 -7 18 10 33 l22 20 -25 -16 c-23 -15
-26 -14 -50 9 -23 22 -26 23 -26 6z"/>
<path d="M524 101 c0 -10 6 -17 12 -14 18 7 29 -18 13 -29 -11 -7 -9 -8 5 -4
10 4 26 1 35 -6 13 -10 14 -10 4 1 -9 11 -7 18 10 33 l22 20 -25 -16 c-23 -15
-26 -14 -50 9 -23 22 -26 23 -26 6z"/>
<path d="M844 101 c0 -10 6 -17 12 -14 18 7 29 -18 13 -29 -11 -7 -9 -8 5 -4
10 4 26 1 35 -6 13 -10 14 -10 4 1 -9 11 -7 18 10 33 l22 20 -25 -16 c-23 -15
-26 -14 -50 9 -23 22 -26 23 -26 6z"/>
<path d="M59 87 c6 -8 7 -18 3 -23 -4 -5 -3 -6 2 -2 5 4 16 2 25 -4 9 -7 5 0
-8 15 -25 27 -43 39 -22 14z"/>
<path d="M140 83 c0 -12 -4 -24 -10 -28 -15 -9 0 -34 17 -28 11 5 12 8 2 14
-10 6 -10 11 -1 21 7 9 8 19 2 28 -8 12 -10 10 -10 -7z"/>
<path d="M379 87 c6 -8 7 -18 3 -23 -4 -5 -3 -6 2 -2 5 4 16 2 25 -4 9 -7 5 0
-8 15 -25 27 -43 39 -22 14z"/>
<path d="M460 83 c0 -12 -4 -24 -10 -28 -15 -9 0 -34 17 -28 11 5 12 8 2 14
-10 6 -10 11 -1 21 7 9 8 19 2 28 -8 12 -10 10 -10 -7z"/>
<path d="M699 87 c6 -8 7 -18 3 -23 -4 -5 -3 -6 2 -2 5 4 16 2 25 -4 9 -7 5 0
-8 15 -25 27 -43 39 -22 14z"/>
<path d="M780 83 c0 -12 -4 -24 -10 -28 -15 -9 0 -34 17 -28 11 5 12 8 2 14
-10 6 -10 11 -1 21 7 9 8 19 2 28 -8 12 -10 10 -10 -7z"/>
</g>
<g transform="translate(0.000000,96.000000) scale(0.100000,-0.100000)"
fill="#ededed" stroke="none">
<path d="M164 921 c0 -11 4 -17 8 -15 10 7 10 34 0 34 -4 0 -8 -9 -8 -19z"/>
<path d="M484 921 c0 -11 4 -17 8 -15 4 3 8 12 8 20 0 8 -4 14 -8 14 -4 0 -8
-9 -8 -19z"/>
<path d="M804 921 c0 -11 4 -17 8 -15 4 3 8 12 8 20 0 8 -4 14 -8 14 -4 0 -8
-9 -8 -19z"/>
<path d="M244 888 c-4 -7 -3 -8 4 -4 12 7 16 16 8 16 -3 0 -8 -5 -12 -12z"/>
<path d="M564 888 c-4 -7 -3 -8 4 -4 12 7 16 16 8 16 -3 0 -8 -5 -12 -12z"/>
<path d="M884 888 c-4 -7 -3 -8 4 -4 7 4 12 9 12 12 0 8 -9 4 -16 -8z"/>
<path d="M144 878 c-4 -7 -3 -8 4 -4 12 7 16 16 8 16 -3 0 -8 -5 -12 -12z"/>
<path d="M464 878 c-4 -7 -3 -8 4 -4 12 7 16 16 8 16 -3 0 -8 -5 -12 -12z"/>
<path d="M784 878 c-4 -7 -3 -8 4 -4 7 4 12 9 12 12 0 8 -9 4 -16 -8z"/>
<path d="M28 822 c-5 -18 -2 -22 15 -22 13 0 17 3 11 8 -6 4 -13 14 -16 22 -3
10 -6 8 -10 -8z"/>
<path d="M348 822 c-5 -18 -2 -22 15 -22 13 0 17 3 11 8 -6 4 -13 14 -16 22
-3 10 -6 8 -10 -8z"/>
<path d="M668 822 c-5 -18 -2 -22 15 -22 13 0 17 3 11 8 -6 4 -13 14 -16 22
-3 10 -6 8 -10 -8z"/>
<path d="M85 810 c-3 -5 -1 -10 4 -10 6 0 11 5 11 10 0 6 -2 10 -4 10 -3 0 -8
-4 -11 -10z"/>
<path d="M130 810 c-13 -8 -12 -10 3 -10 10 0 16 -4 13 -8 -2 -4 -1 -14 5 -22
7 -12 9 -12 9 3 0 10 5 15 10 12 15 -9 12 4 -4 21 -17 17 -17 16 -36 4z"/>
<path d="M405 810 c-3 -5 -1 -10 4 -10 6 0 11 5 11 10 0 6 -2 10 -4 10 -3 0
-8 -4 -11 -10z"/>
<path d="M450 810 c-13 -8 -12 -10 3 -10 10 0 16 -4 13 -8 -2 -4 -1 -14 5 -22
7 -12 9 -12 9 3 0 10 5 15 10 12 15 -9 12 4 -4 21 -17 17 -17 16 -36 4z"/>
<path d="M725 810 c-3 -5 -1 -10 4 -10 6 0 11 5 11 10 0 6 -2 10 -4 10 -3 0
-8 -4 -11 -10z"/>
<path d="M770 810 c-13 -8 -12 -10 3 -10 10 0 16 -4 13 -8 -2 -4 -1 -14 5 -22
7 -12 9 -12 9 3 0 10 5 15 10 12 15 -9 12 4 -4 21 -17 17 -17 16 -36 4z"/>
<path d="M245 790 c3 -5 8 -10 11 -10 2 0 4 5 4 10 0 6 -5 10 -11 10 -5 0 -7
-4 -4 -10z"/>
<path d="M305 790 c3 -5 8 -10 11 -10 2 0 4 5 4 10 0 6 -5 10 -11 10 -5 0 -7
-4 -4 -10z"/>
<path d="M565 790 c3 -5 8 -10 11 -10 2 0 4 5 4 10 0 6 -5 10 -11 10 -5 0 -7
-4 -4 -10z"/>
<path d="M625 790 c3 -5 8 -10 11 -10 2 0 4 5 4 10 0 6 -5 10 -11 10 -5 0 -7
-4 -4 -10z"/>
<path d="M885 790 c3 -5 8 -10 11 -10 2 0 4 5 4 10 0 6 -5 10 -11 10 -5 0 -7
-4 -4 -10z"/>
<path d="M945 790 c3 -5 8 -10 11 -10 2 0 4 5 4 10 0 6 -5 10 -11 10 -5 0 -7
-4 -4 -10z"/>
<path d="M100 765 c0 -3 2 -5 5 -5 3 0 5 2 5 5 0 3 -2 5 -5 5 -3 0 -5 -2 -5
-5z"/>
<path d="M420 765 c0 -3 2 -5 5 -5 3 0 5 2 5 5 0 3 -2 5 -5 5 -3 0 -5 -2 -5
-5z"/>
<path d="M740 765 c0 -3 2 -5 5 -5 3 0 5 2 5 5 0 3 -2 5 -5 5 -3 0 -5 -2 -5
-5z"/>
<path d="M140 730 c0 -7 3 -10 7 -7 3 4 3 10 0 14 -4 3 -7 0 -7 -7z"/>
<path d="M204 728 c-4 -7 -3 -8 4 -4 12 7 16 16 8 16 -3 0 -8 -5 -12 -12z"/>
<path d="M460 730 c0 -7 3 -10 7 -7 3 4 3 10 0 14 -4 3 -7 0 -7 -7z"/>
<path d="M524 728 c-4 -7 -3 -8 4 -4 12 7 16 16 8 16 -3 0 -8 -5 -12 -12z"/>
<path d="M780 730 c0 -7 3 -10 7 -7 3 4 3 10 0 14 -4 3 -7 0 -7 -7z"/>
<path d="M844 728 c-4 -7 -3 -8 4 -4 7 4 12 9 12 12 0 8 -9 4 -16 -8z"/>
<path d="M64 708 c-4 -7 -3 -8 4 -4 7 4 12 9 12 12 0 8 -9 4 -16 -8z"/>
<path d="M384 708 c-4 -7 -3 -8 4 -4 12 7 16 16 8 16 -3 0 -8 -5 -12 -12z"/>
<path d="M704 708 c-4 -7 -3 -8 4 -4 12 7 16 16 8 16 -3 0 -8 -5 -12 -12z"/>
<path d="M126 692 c-2 -4 -1 -14 5 -22 7 -12 9 -10 9 8 0 23 -5 28 -14 14z"/>
<path d="M446 692 c-2 -4 -1 -14 5 -22 7 -12 9 -10 9 8 0 23 -5 28 -14 14z"/>
<path d="M766 692 c-2 -4 -1 -14 5 -22 7 -12 9 -10 9 8 0 23 -5 28 -14 14z"/>
<path d="M164 601 c0 -11 4 -17 8 -15 4 3 8 12 8 20 0 8 -4 14 -8 14 -4 0 -8
-9 -8 -19z"/>
<path d="M484 601 c0 -11 4 -17 8 -15 4 3 8 12 8 20 0 8 -4 14 -8 14 -4 0 -8
-9 -8 -19z"/>
<path d="M804 601 c0 -11 4 -17 8 -15 4 3 8 12 8 20 0 8 -4 14 -8 14 -4 0 -8
-9 -8 -19z"/>
<path d="M244 568 c-4 -7 -3 -8 4 -4 7 4 12 9 12 12 0 8 -9 4 -16 -8z"/>
<path d="M564 568 c-4 -7 -3 -8 4 -4 12 7 16 16 8 16 -3 0 -8 -5 -12 -12z"/>
<path d="M884 568 c-4 -7 -3 -8 4 -4 7 4 12 9 12 12 0 8 -9 4 -16 -8z"/>
<path d="M144 558 c-4 -7 -3 -8 4 -4 7 4 12 9 12 12 0 8 -9 4 -16 -8z"/>
<path d="M464 558 c-4 -7 -3 -8 4 -4 7 4 12 9 12 12 0 8 -9 4 -16 -8z"/>
<path d="M784 558 c-4 -7 -3 -8 4 -4 7 4 12 9 12 12 0 8 -9 4 -16 -8z"/>
<path d="M28 502 c-5 -18 -2 -22 15 -22 13 0 17 3 11 8 -6 4 -13 14 -16 22 -3
10 -6 8 -10 -8z"/>
<path d="M348 502 c-5 -18 -2 -22 15 -22 13 0 17 3 11 8 -6 4 -13 14 -16 22
-3 10 -6 8 -10 -8z"/>
<path d="M668 502 c-5 -18 -2 -22 15 -22 13 0 17 3 11 8 -6 4 -13 14 -16 22
-3 10 -6 8 -10 -8z"/>
<path d="M85 490 c-3 -5 -1 -10 4 -10 6 0 11 5 11 10 0 6 -2 10 -4 10 -3 0 -8
-4 -11 -10z"/>
<path d="M130 490 c-13 -8 -12 -10 3 -10 10 0 16 -4 13 -8 -2 -4 -1 -14 5 -22
7 -12 9 -12 9 3 0 10 5 15 10 12 15 -9 12 4 -4 21 -17 17 -17 16 -36 4z"/>
<path d="M405 490 c-3 -5 -1 -10 4 -10 6 0 11 5 11 10 0 6 -2 10 -4 10 -3 0
-8 -4 -11 -10z"/>
<path d="M450 490 c-13 -8 -12 -10 3 -10 10 0 16 -4 13 -8 -2 -4 -1 -14 5 -22
7 -12 9 -12 9 3 0 10 5 15 10 12 15 -9 12 4 -4 21 -17 17 -17 16 -36 4z"/>
<path d="M725 490 c-3 -5 -1 -10 4 -10 6 0 11 5 11 10 0 6 -2 10 -4 10 -3 0
-8 -4 -11 -10z"/>
<path d="M770 490 c-13 -8 -12 -10 3 -10 10 0 16 -4 13 -8 -2 -4 -1 -14 5 -22
7 -12 9 -12 9 3 0 10 5 15 10 12 15 -9 12 4 -4 21 -17 17 -17 16 -36 4z"/>
<path d="M245 470 c3 -5 8 -10 11 -10 2 0 4 5 4 10 0 6 -5 10 -11 10 -5 0 -7
-4 -4 -10z"/>
<path d="M305 470 c3 -5 8 -10 11 -10 2 0 4 5 4 10 0 6 -5 10 -11 10 -5 0 -7
-4 -4 -10z"/>
<path d="M565 470 c3 -5 8 -10 11 -10 2 0 4 5 4 10 0 6 -5 10 -11 10 -5 0 -7
-4 -4 -10z"/>
<path d="M625 470 c3 -5 8 -10 11 -10 2 0 4 5 4 10 0 6 -5 10 -11 10 -5 0 -7
-4 -4 -10z"/>
<path d="M885 470 c3 -5 8 -10 11 -10 2 0 4 5 4 10 0 6 -5 10 -11 10 -5 0 -7
-4 -4 -10z"/>
<path d="M945 470 c3 -5 8 -10 11 -10 2 0 4 5 4 10 0 6 -5 10 -11 10 -5 0 -7
-4 -4 -10z"/>
<path d="M100 445 c0 -3 2 -5 5 -5 3 0 5 2 5 5 0 3 -2 5 -5 5 -3 0 -5 -2 -5
-5z"/>
<path d="M420 445 c0 -3 2 -5 5 -5 3 0 5 2 5 5 0 3 -2 5 -5 5 -3 0 -5 -2 -5
-5z"/>
<path d="M740 445 c0 -3 2 -5 5 -5 3 0 5 2 5 5 0 3 -2 5 -5 5 -3 0 -5 -2 -5
-5z"/>
<path d="M140 410 c0 -7 3 -10 7 -7 3 4 3 10 0 14 -4 3 -7 0 -7 -7z"/>
<path d="M204 408 c-4 -7 -3 -8 4 -4 12 7 16 16 8 16 -3 0 -8 -5 -12 -12z"/>
<path d="M460 410 c0 -7 3 -10 7 -7 3 4 3 10 0 14 -4 3 -7 0 -7 -7z"/>
<path d="M524 408 c-4 -7 -3 -8 4 -4 12 7 16 16 8 16 -3 0 -8 -5 -12 -12z"/>
<path d="M780 410 c0 -7 3 -10 7 -7 3 4 3 10 0 14 -4 3 -7 0 -7 -7z"/>
<path d="M844 408 c-4 -7 -3 -8 4 -4 7 4 12 9 12 12 0 8 -9 4 -16 -8z"/>
<path d="M64 388 c-4 -7 -3 -8 4 -4 7 4 12 9 12 12 0 8 -9 4 -16 -8z"/>
<path d="M384 388 c-4 -7 -3 -8 4 -4 12 7 16 16 8 16 -3 0 -8 -5 -12 -12z"/>
<path d="M704 388 c-4 -7 -3 -8 4 -4 7 4 12 9 12 12 0 8 -9 4 -16 -8z"/>
<path d="M126 372 c-2 -4 -1 -14 5 -22 7 -12 9 -10 9 8 0 23 -5 28 -14 14z"/>
<path d="M446 372 c-2 -4 -1 -14 5 -22 7 -12 9 -10 9 8 0 23 -5 28 -14 14z"/>
<path d="M766 372 c-2 -4 -1 -14 5 -22 7 -12 9 -10 9 8 0 23 -5 28 -14 14z"/>
<path d="M164 281 c0 -11 4 -17 8 -15 4 3 8 12 8 20 0 8 -4 14 -8 14 -4 0 -8
-9 -8 -19z"/>
<path d="M484 281 c0 -11 4 -17 8 -15 4 3 8 12 8 20 0 8 -4 14 -8 14 -4 0 -8
-9 -8 -19z"/>
<path d="M804 281 c0 -11 4 -17 8 -15 4 3 8 12 8 20 0 8 -4 14 -8 14 -4 0 -8
-9 -8 -19z"/>
<path d="M244 248 c-4 -7 -3 -8 4 -4 7 4 12 9 12 12 0 8 -9 4 -16 -8z"/>
<path d="M564 248 c-4 -7 -3 -8 4 -4 12 7 16 16 8 16 -3 0 -8 -5 -12 -12z"/>
<path d="M884 248 c-4 -7 -3 -8 4 -4 7 4 12 9 12 12 0 8 -9 4 -16 -8z"/>
<path d="M144 238 c-4 -7 -3 -8 4 -4 12 7 16 16 8 16 -3 0 -8 -5 -12 -12z"/>
<path d="M464 238 c-4 -7 -3 -8 4 -4 12 7 16 16 8 16 -3 0 -8 -5 -12 -12z"/>
<path d="M784 238 c-4 -7 -3 -8 4 -4 7 4 12 9 12 12 0 8 -9 4 -16 -8z"/>
<path d="M28 182 c-5 -18 -2 -22 15 -22 13 0 17 3 11 8 -6 4 -13 14 -16 22 -3
10 -6 8 -10 -8z"/>
<path d="M348 182 c-5 -18 -2 -22 15 -22 13 0 17 3 11 8 -6 4 -13 14 -16 22
-3 10 -6 8 -10 -8z"/>
<path d="M668 182 c-5 -18 -2 -22 15 -22 13 0 17 3 11 8 -6 4 -13 14 -16 22
-3 10 -6 8 -10 -8z"/>
<path d="M85 170 c-3 -5 -1 -10 4 -10 6 0 11 5 11 10 0 6 -2 10 -4 10 -3 0 -8
-4 -11 -10z"/>
<path d="M130 170 c-13 -8 -12 -10 3 -10 10 0 16 -4 13 -8 -2 -4 -1 -14 5 -22
7 -12 9 -12 9 3 0 10 5 15 10 12 15 -9 12 4 -4 21 -17 17 -17 16 -36 4z"/>
<path d="M405 170 c-3 -5 -1 -10 4 -10 6 0 11 5 11 10 0 6 -2 10 -4 10 -3 0
-8 -4 -11 -10z"/>
<path d="M450 170 c-13 -8 -12 -10 3 -10 10 0 16 -4 13 -8 -2 -4 -1 -14 5 -22
7 -12 9 -12 9 3 0 10 5 15 10 12 15 -9 12 4 -4 21 -17 17 -17 16 -36 4z"/>
<path d="M725 170 c-3 -5 -1 -10 4 -10 6 0 11 5 11 10 0 6 -2 10 -4 10 -3 0
-8 -4 -11 -10z"/>
<path d="M770 170 c-13 -8 -12 -10 3 -10 10 0 16 -4 13 -8 -2 -4 -1 -14 5 -22
7 -12 9 -12 9 3 0 10 5 15 10 12 15 -9 12 4 -4 21 -17 17 -17 16 -36 4z"/>
<path d="M245 150 c3 -5 8 -10 11 -10 2 0 4 5 4 10 0 6 -5 10 -11 10 -5 0 -7
-4 -4 -10z"/>
<path d="M305 150 c3 -5 8 -10 11 -10 2 0 4 5 4 10 0 6 -5 10 -11 10 -5 0 -7
-4 -4 -10z"/>
<path d="M565 150 c3 -5 8 -10 11 -10 2 0 4 5 4 10 0 6 -5 10 -11 10 -5 0 -7
-4 -4 -10z"/>
<path d="M625 150 c3 -5 8 -10 11 -10 2 0 4 5 4 10 0 6 -5 10 -11 10 -5 0 -7
-4 -4 -10z"/>
<path d="M885 150 c3 -5 8 -10 11 -10 2 0 4 5 4 10 0 6 -5 10 -11 10 -5 0 -7
-4 -4 -10z"/>
<path d="M945 150 c3 -5 8 -10 11 -10 2 0 4 5 4 10 0 6 -5 10 -11 10 -5 0 -7
-4 -4 -10z"/>
<path d="M100 125 c0 -3 2 -5 5 -5 3 0 5 2 5 5 0 3 -2 5 -5 5 -3 0 -5 -2 -5
-5z"/>
<path d="M420 125 c0 -3 2 -5 5 -5 3 0 5 2 5 5 0 3 -2 5 -5 5 -3 0 -5 -2 -5
-5z"/>
<path d="M740 125 c0 -3 2 -5 5 -5 3 0 5 2 5 5 0 3 -2 5 -5 5 -3 0 -5 -2 -5
-5z"/>
<path d="M140 90 c0 -7 3 -10 7 -7 3 4 3 10 0 14 -4 3 -7 0 -7 -7z"/>
<path d="M204 88 c-4 -7 -3 -8 4 -4 12 7 16 16 8 16 -3 0 -8 -5 -12 -12z"/>
<path d="M460 90 c0 -7 3 -10 7 -7 3 4 3 10 0 14 -4 3 -7 0 -7 -7z"/>
<path d="M524 88 c-4 -7 -3 -8 4 -4 7 4 12 9 12 12 0 8 -9 4 -16 -8z"/>
<path d="M780 90 c0 -7 3 -10 7 -7 3 4 3 10 0 14 -4 3 -7 0 -7 -7z"/>
<path d="M844 88 c-4 -7 -3 -8 4 -4 7 4 12 9 12 12 0 8 -9 4 -16 -8z"/>
<path d="M64 68 c-4 -7 -3 -8 4 -4 7 4 12 9 12 12 0 8 -9 4 -16 -8z"/>
<path d="M384 68 c-4 -7 -3 -8 4 -4 12 7 16 16 8 16 -3 0 -8 -5 -12 -12z"/>
<path d="M704 68 c-4 -7 -3 -8 4 -4 7 4 12 9 12 12 0 8 -9 4 -16 -8z"/>
<path d="M126 52 c-2 -4 -1 -14 5 -22 7 -12 9 -10 9 8 0 23 -5 28 -14 14z"/>
<path d="M446 52 c-2 -4 -1 -14 5 -22 7 -12 9 -10 9 8 0 23 -5 28 -14 14z"/>
<path d="M766 52 c-2 -4 -1 -14 5 -22 7 -12 9 -10 9 8 0 23 -5 28 -14 14z"/>
</g>
<g transform="translate(0.000000,96.000000) scale(0.100000,-0.100000)"
fill="#ffffff" stroke="none">
<path d="M165 930 c3 -5 8 -10 11 -10 2 0 4 5 4 10 0 6 -5 10 -11 10 -5 0 -7
-4 -4 -10z"/>
<path d="M485 930 c3 -5 8 -10 11 -10 2 0 4 5 4 10 0 6 -5 10 -11 10 -5 0 -7
-4 -4 -10z"/>
<path d="M805 930 c3 -5 8 -10 11 -10 2 0 4 5 4 10 0 6 -5 10 -11 10 -5 0 -7
-4 -4 -10z"/>
<path d="M27 820 c-3 -11 -1 -20 4 -20 5 0 9 9 9 20 0 11 -2 20 -4 20 -2 0 -6
-9 -9 -20z"/>
<path d="M347 820 c-3 -11 -1 -20 4 -20 5 0 9 9 9 20 0 11 -2 20 -4 20 -2 0
-6 -9 -9 -20z"/>
<path d="M667 820 c-3 -11 -1 -20 4 -20 5 0 9 9 9 20 0 11 -2 20 -4 20 -2 0
-6 -9 -9 -20z"/>
<path d="M145 790 c-3 -5 -1 -10 4 -10 6 0 11 5 11 10 0 6 -2 10 -4 10 -3 0
-8 -4 -11 -10z"/>
<path d="M305 790 c3 -5 8 -10 11 -10 2 0 4 5 4 10 0 6 -5 10 -11 10 -5 0 -7
-4 -4 -10z"/>
<path d="M465 790 c-3 -5 -1 -10 4 -10 6 0 11 5 11 10 0 6 -2 10 -4 10 -3 0
-8 -4 -11 -10z"/>
<path d="M625 790 c3 -5 8 -10 11 -10 2 0 4 5 4 10 0 6 -5 10 -11 10 -5 0 -7
-4 -4 -10z"/>
<path d="M785 790 c-3 -5 -1 -10 4 -10 6 0 11 5 11 10 0 6 -2 10 -4 10 -3 0
-8 -4 -11 -10z"/>
<path d="M945 790 c3 -5 8 -10 11 -10 2 0 4 5 4 10 0 6 -5 10 -11 10 -5 0 -7
-4 -4 -10z"/>
<path d="M130 670 c0 -7 3 -10 7 -7 3 4 3 10 0 14 -4 3 -7 0 -7 -7z"/>
<path d="M450 670 c0 -7 3 -10 7 -7 3 4 3 10 0 14 -4 3 -7 0 -7 -7z"/>
<path d="M770 670 c0 -7 3 -10 7 -7 3 4 3 10 0 14 -4 3 -7 0 -7 -7z"/>
<path d="M165 610 c3 -5 8 -10 11 -10 2 0 4 5 4 10 0 6 -5 10 -11 10 -5 0 -7
-4 -4 -10z"/>
<path d="M485 610 c3 -5 8 -10 11 -10 2 0 4 5 4 10 0 6 -5 10 -11 10 -5 0 -7
-4 -4 -10z"/>
<path d="M805 610 c3 -5 8 -10 11 -10 2 0 4 5 4 10 0 6 -5 10 -11 10 -5 0 -7
-4 -4 -10z"/>
<path d="M27 500 c-3 -11 -1 -20 4 -20 5 0 9 9 9 20 0 11 -2 20 -4 20 -2 0 -6
-9 -9 -20z"/>
<path d="M347 500 c-3 -11 -1 -20 4 -20 5 0 9 9 9 20 0 11 -2 20 -4 20 -2 0
-6 -9 -9 -20z"/>
<path d="M667 500 c-3 -11 -1 -20 4 -20 5 0 9 9 9 20 0 11 -2 20 -4 20 -2 0
-6 -9 -9 -20z"/>
<path d="M145 470 c-3 -5 -1 -10 4 -10 6 0 11 5 11 10 0 6 -2 10 -4 10 -3 0
-8 -4 -11 -10z"/>
<path d="M305 470 c3 -5 8 -10 11 -10 2 0 4 5 4 10 0 6 -5 10 -11 10 -5 0 -7
-4 -4 -10z"/>
<path d="M465 470 c-3 -5 -1 -10 4 -10 6 0 11 5 11 10 0 6 -2 10 -4 10 -3 0
-8 -4 -11 -10z"/>
<path d="M625 470 c3 -5 8 -10 11 -10 2 0 4 5 4 10 0 6 -5 10 -11 10 -5 0 -7
-4 -4 -10z"/>
<path d="M785 470 c-3 -5 -1 -10 4 -10 6 0 11 5 11 10 0 6 -2 10 -4 10 -3 0
-8 -4 -11 -10z"/>
<path d="M945 470 c3 -5 8 -10 11 -10 2 0 4 5 4 10 0 6 -5 10 -11 10 -5 0 -7
-4 -4 -10z"/>
<path d="M130 350 c0 -7 3 -10 7 -7 3 4 3 10 0 14 -4 3 -7 0 -7 -7z"/>
<path d="M450 350 c0 -7 3 -10 7 -7 3 4 3 10 0 14 -4 3 -7 0 -7 -7z"/>
<path d="M770 350 c0 -7 3 -10 7 -7 3 4 3 10 0 14 -4 3 -7 0 -7 -7z"/>
<path d="M165 290 c3 -5 8 -10 11 -10 2 0 4 5 4 10 0 6 -5 10 -11 10 -5 0 -7
-4 -4 -10z"/>
<path d="M485 290 c3 -5 8 -10 11 -10 2 0 4 5 4 10 0 6 -5 10 -11 10 -5 0 -7
-4 -4 -10z"/>
<path d="M805 290 c3 -5 8 -10 11 -10 2 0 4 5 4 10 0 6 -5 10 -11 10 -5 0 -7
-4 -4 -10z"/>
<path d="M27 180 c-3 -11 -1 -20 4 -20 5 0 9 9 9 20 0 11 -2 20 -4 20 -2 0 -6
-9 -9 -20z"/>
<path d="M347 180 c-3 -11 -1 -20 4 -20 5 0 9 9 9 20 0 11 -2 20 -4 20 -2 0
-6 -9 -9 -20z"/>
<path d="M667 180 c-3 -11 -1 -20 4 -20 5 0 9 9 9 20 0 11 -2 20 -4 20 -2 0
-6 -9 -9 -20z"/>
<path d="M145 150 c-3 -5 -1 -10 4 -10 6 0 11 5 11 10 0 6 -2 10 -4 10 -3 0
-8 -4 -11 -10z"/>
<path d="M305 150 c3 -5 8 -10 11 -10 2 0 4 5 4 10 0 6 -5 10 -11 10 -5 0 -7
-4 -4 -10z"/>
<path d="M465 150 c-3 -5 -1 -10 4 -10 6 0 11 5 11 10 0 6 -2 10 -4 10 -3 0
-8 -4 -11 -10z"/>
<path d="M625 150 c3 -5 8 -10 11 -10 2 0 4 5 4 10 0 6 -5 10 -11 10 -5 0 -7
-4 -4 -10z"/>
<path d="M785 150 c-3 -5 -1 -10 4 -10 6 0 11 5 11 10 0 6 -2 10 -4 10 -3 0
-8 -4 -11 -10z"/>
<path d="M945 150 c3 -5 8 -10 11 -10 2 0 4 5 4 10 0 6 -5 10 -11 10 -5 0 -7
-4 -4 -10z"/>
<path d="M130 30 c0 -7 3 -10 7 -7 3 4 3 10 0 14 -4 3 -7 0 -7 -7z"/>
<path d="M450 30 c0 -7 3 -10 7 -7 3 4 3 10 0 14 -4 3 -7 0 -7 -7z"/>
<path d="M770 30 c0 -7 3 -10 7 -7 3 4 3 10 0 14 -4 3 -7 0 -7 -7z"/>
</g>
  </g>
</svg>
