<?xml version="1.0" encoding="UTF-8" standalone="no"?>
<!-- Created with Inkscape (http://www.inkscape.org/) -->

<svg
   xmlns:dc="http://purl.org/dc/elements/1.1/"
   xmlns:cc="http://creativecommons.org/ns#"
   xmlns:rdf="http://www.w3.org/1999/02/22-rdf-syntax-ns#"
   xmlns:svg="http://www.w3.org/2000/svg"
   xmlns="http://www.w3.org/2000/svg"
   xmlns:sodipodi="http://sodipodi.sourceforge.net/DTD/sodipodi-0.dtd"
   xmlns:inkscape="http://www.inkscape.org/namespaces/inkscape"
   width="32px"
   height="32px"
   viewBox="0 0 32px 32px"
   version="1.1"
   id="svgMain"
   inkscape:version="0.92.2 (5c3e80d, 2017-08-06)"
   sodipodi:docname="reference_SVG.svg">
  <defs
     id="defs4542" />
  <sodipodi:namedview
     id="base"
     pagecolor="#ffffff"
     bordercolor="#666666"
     borderopacity="1.0"
     inkscape:pageopacity="0.0"
     inkscape:pageshadow="2"
     inkscape:zoom="1"
     inkscape:cx="0"
     inkscape:cy="0"
     inkscape:document-units="px"
     inkscape:current-layer="layer1"
     showgrid="false"
     units="px"
     inkscape:window-width="1024"
     inkscape:window-height="768"
     inkscape:window-x="-8"
     inkscape:window-y="-8"
     inkscape:window-maximized="1" />
  <metadata
     id="metadata1">
    <rdf:RDF>
      <cc:Work
         rdf:about="">
        <dc:format>image/svg+xml</dc:format>
        <dc:type
           rdf:resource="http://purl.org/dc/dcmitype/StillImage" />
        <dc:title />
      </cc:Work>
    </rdf:RDF>
  </metadata>
  <g transform="translate(-32,-32)"
     inkscape:label="Layer 1"
     inkscape:groupmode="layer"
     id="layer1">
    <!-- INSERT MARKER -->
<g transform="translate(0.000000,96.000000) scale(0.100000,-0.100000)"
fill="#734829" stroke="none">
<path d="M0 480 l0 -480 480 0 480 0 0 480 0 480 -480 0 -480 0 0 -480z"/>
</g>
<g transform="translate(0.000000,96.000000) scale(0.100000,-0.100000)"
fill="#623d21" stroke="none">
<path d="M18 953 c32 -6 43 -34 21 -55 -9 -9 -20 -14 -23 -11 -3 3 -4 -4 -1
-16 2 -11 -1 -21 -6 -21 -6 0 -4 -7 5 -15 10 -10 24 -13 41 -9 25 6 36 -10 13
-19 -18 -8 12 -28 31 -22 7 3 20 0 27 -6 8 -6 14 -8 14 -3 0 5 14 9 30 9 17 1
29 -4 26 -10 -2 -5 -9 -9 -15 -7 -7 1 -10 -2 -6 -8 4 -6 17 -1 35 12 31 23 44
44 34 59 -3 5 1 9 8 9 7 0 19 9 26 20 10 17 10 20 -2 20 -8 0 -16 -6 -19 -12
-2 -7 -2 -1 0 15 3 17 0 27 -8 27 -7 0 -10 2 -7 5 8 9 38 -6 32 -16 -9 -15 23
-10 36 6 15 18 5 34 -11 18 -13 -13 -39 -6 -39 11 0 6 17 11 40 11 32 0 40 -3
40 -18 0 -10 5 -15 10 -12 6 3 10 1 10 -4 0 -6 5 -11 12 -11 6 0 8 3 5 6 -3 4
-2 15 4 26 8 15 13 17 25 7 11 -9 14 -9 14 1 0 10 3 10 15 0 8 -7 15 -18 15
-24 0 -6 -4 -4 -10 4 -5 8 -12 11 -15 8 -4 -4 0 -16 8 -28 14 -20 16 -20 31
-4 13 13 14 19 5 30 -7 8 -9 18 -5 22 4 4 14 -2 22 -12 8 -11 14 -16 14 -10 0
5 6 1 13 -8 7 -9 20 -16 29 -15 9 1 16 -2 15 -8 -1 -5 -11 -9 -22 -8 -12 2
-15 0 -6 -4 10 -4 8 -9 -10 -19 -13 -7 -18 -13 -11 -14 10 0 8 -5 -4 -17 -13
-13 -19 -14 -22 -5 -2 7 -8 10 -12 7 -5 -3 -7 -12 -4 -20 4 -8 -1 -17 -9 -21
-12 -4 -14 -11 -6 -30 5 -15 5 -23 0 -19 -5 3 -12 1 -16 -5 -10 -17 22 -11 36
7 11 13 11 17 2 20 -20 7 -15 19 8 20 14 1 19 -3 15 -12 -9 -24 10 -26 30 -3
18 20 18 21 1 15 -11 -4 -16 -3 -12 3 3 6 1 10 -6 10 -7 0 -10 3 -7 6 4 3 20
-2 37 -11 18 -9 35 -13 40 -11 5 3 16 -3 26 -14 10 -11 13 -20 7 -20 -6 0 -12
6 -15 13 -3 9 -7 9 -20 -2 -10 -7 -17 -9 -17 -4 0 5 -7 10 -15 10 -8 0 -11 -5
-8 -10 3 -6 1 -7 -5 -3 -17 10 -14 -5 4 -29 16 -20 16 -19 9 4 -5 16 -3 22 5
19 6 -2 10 -6 8 -9 -5 -9 33 -42 40 -34 4 4 1 10 -5 12 -21 7 -15 25 6 18 10
-3 23 1 30 9 10 12 8 20 -12 40 -14 14 -28 22 -31 18 -4 -3 -4 2 0 12 5 13 4
17 -4 12 -6 -3 -13 -2 -16 3 -4 5 -1 11 6 14 7 2 3 2 -9 1 -31 -6 -37 11 -8
24 14 7 25 18 25 27 0 8 5 15 11 15 5 0 7 -4 4 -10 -10 -17 22 -11 36 7 11 13
11 17 1 20 -19 7 -14 19 9 20 14 1 19 -3 15 -12 -3 -8 -1 -17 4 -20 6 -4 10 4
10 17 1 21 2 21 11 5 10 -18 11 -18 25 0 14 17 14 17 5 -4 -6 -12 -14 -23 -18
-25 -5 -3 -3 -4 3 -2 6 1 17 -2 25 -7 21 -13 -27 -12 -52 1 -15 8 -24 6 -41
-10 -12 -11 -18 -20 -14 -20 5 0 3 -7 -4 -15 -7 -9 -10 -18 -6 -22 8 -8 31 14
31 30 0 6 15 12 34 13 27 1 31 0 18 -8 -10 -5 -21 -7 -26 -4 -20 13 -19 -24 1
-38 12 -9 18 -19 14 -23 -5 -5 -11 -2 -13 5 -3 6 -9 10 -14 6 -5 -3 -9 2 -9
11 0 9 -4 13 -10 10 -5 -3 -8 -15 -7 -25 4 -24 17 -39 17 -20 0 10 3 11 11 3
8 -8 8 -17 1 -30 -7 -12 -7 -25 -1 -34 6 -10 9 -7 9 13 0 33 16 45 25 19 3
-10 13 -18 23 -17 13 1 16 -6 14 -34 l-2 -35 13 35 c10 28 10 36 0 38 -7 2
-13 7 -13 12 0 5 -6 7 -14 4 -10 -4 -14 1 -13 15 1 14 5 17 11 11 6 -6 16 -10
24 -10 12 0 12 3 2 15 -7 8 -20 15 -28 15 -12 0 -13 3 -4 12 9 9 15 8 27 -8 8
-10 15 -14 15 -8 0 20 -34 42 -59 38 -32 -6 -25 0 23 20 37 15 38 15 33 -4 -3
-11 -2 -20 3 -20 4 0 10 9 13 20 3 11 1 20 -4 20 -5 0 -9 7 -9 15 0 8 -4 15
-10 15 -16 0 -12 27 5 33 8 4 22 -4 34 -19 14 -18 22 -21 27 -12 4 6 2 14 -4
16 -19 6 -14 18 7 19 14 1 19 -4 18 -18 -1 -10 -5 -19 -9 -19 -4 0 -8 -7 -8
-15 0 -8 5 -15 11 -15 5 0 7 5 3 12 -4 7 -3 8 5 4 6 -4 8 -12 5 -18 -4 -6 2
-8 17 -4 l24 7 -25 -16 c-17 -11 -19 -14 -5 -9 11 4 28 7 38 8 22 0 34 35 16
48 -11 7 -9 8 4 4 10 -3 21 -6 23 -6 3 0 2 -4 -1 -10 -9 -14 19 -12 33 2 20
20 13 28 -20 21 -28 -5 -31 -4 -26 14 5 19 0 20 -196 20 -132 0 -204 -4 -208
-11 -5 -8 -8 -8 -8 0 0 18 -230 15 -237 -3 -3 -7 -10 -10 -16 -6 -6 4 -7 1 -2
-7 6 -10 4 -12 -9 -7 -11 5 -15 3 -10 -5 4 -7 3 -8 -4 -4 -7 4 -12 2 -12 -4 0
-7 8 -9 20 -5 14 4 20 2 20 -8 0 -21 -38 -10 -51 14 -5 11 -6 18 -2 17 4 -2
18 4 31 13 22 16 21 17 -47 15 -58 -1 -73 -5 -85 -21 -8 -11 -18 -17 -22 -13
-4 4 -2 13 4 21 9 10 2 13 -31 13 -23 1 -32 -1 -19 -3z m122 -46 c0 -6 -9 -2
-20 8 -11 10 -20 13 -20 7 0 -7 -5 -12 -10 -12 -6 0 -5 8 2 20 11 18 14 18 30
3 10 -9 18 -21 18 -26z m28 11 c-12 -35 3 -51 37 -42 11 3 16 2 10 -3 -18 -15
-16 -35 5 -40 11 -3 20 -9 20 -14 0 -15 -19 -10 -40 11 -12 12 -15 20 -7 20
12 0 -11 20 -25 20 -12 0 -2 -29 17 -50 10 -11 14 -20 9 -20 -5 0 -16 9 -24
19 -7 11 -17 18 -22 15 -4 -3 -4 6 2 20 5 14 7 26 5 26 -3 0 -8 0 -12 0 -5 0
-8 -4 -8 -9 0 -5 -3 -13 -8 -17 -4 -4 3 -18 15 -31 20 -21 20 -23 4 -17 -12 5
-17 4 -13 -3 4 -6 -5 -10 -23 -9 -23 1 -28 5 -27 21 1 11 9 23 17 27 8 3 -7 5
-35 3 l-50 -3 43 20 c24 11 42 22 39 25 -3 2 -19 -3 -36 -11 -33 -18 -57 -22
-28 -5 9 6 15 14 12 20 -7 10 -6 10 43 14 35 3 36 2 23 -24 -7 -13 -6 -18 4
-18 8 0 12 4 8 9 -3 5 5 17 17 25 16 11 19 18 11 26 -16 16 -14 23 8 24 17 1
18 -2 9 -29z m189 15 c-4 -3 -7 0 -7 7 0 7 3 10 7 7 3 -4 3 -10 0 -14z m251
-3 c3 -8 1 -12 -3 -8 -5 4 -14 3 -22 -3 -9 -9 -17 -8 -27 0 -11 9 -15 9 -19
-1 -4 -9 -6 -7 -6 4 -2 28 69 35 77 8z m276 13 c4 -4 -3 -15 -16 -25 -15 -12
-17 -16 -5 -12 11 4 17 1 17 -9 0 -21 -38 -10 -51 14 -8 16 -6 21 13 29 29 11
33 12 42 3z m-648 -100 c-10 -10 -19 5 -10 18 6 11 8 11 12 0 2 -7 1 -15 -2
-18z m324 -28 c7 -9 10 -18 6 -22 -3 -3 -6 -1 -6 5 0 7 -7 12 -15 12 -8 0 -15
5 -15 10 0 15 16 12 30 -5z m-340 -20 c0 -3 -2 -5 -5 -5 -3 0 -5 2 -5 5 0 3 2
5 5 5 3 0 5 -2 5 -5z"/>
<path d="M100 825 c0 -3 2 -5 5 -5 3 0 5 2 5 5 0 3 -2 5 -5 5 -3 0 -5 -2 -5
-5z"/>
<path d="M560 925 c0 -3 2 -5 5 -5 3 0 5 2 5 5 0 3 -2 5 -5 5 -3 0 -5 -2 -5
-5z"/>
<path d="M870 935 c0 -3 2 -5 5 -5 3 0 5 2 5 5 0 3 -2 5 -5 5 -3 0 -5 -2 -5
-5z"/>
<path d="M830 925 c0 -3 2 -5 5 -5 3 0 5 2 5 5 0 3 -2 5 -5 5 -3 0 -5 -2 -5
-5z"/>
<path d="M925 950 c-8 -13 5 -13 25 0 13 8 13 10 -2 10 -9 0 -20 -4 -23 -10z"/>
<path d="M385 920 c-3 -6 1 -13 9 -16 9 -3 13 -10 10 -15 -3 -5 -21 -2 -40 6
-32 13 -37 13 -51 -1 -8 -8 -13 -17 -10 -20 3 -3 -3 -14 -14 -25 -10 -10 -19
-25 -19 -33 0 -8 -7 -17 -16 -20 -8 -3 -13 -10 -10 -15 9 -14 -43 -43 -64 -36
-27 8 -26 -16 0 -33 27 -17 26 -35 -2 -26 -21 6 -22 6 -8 -12 14 -17 13 -18
-1 -7 -18 14 -30 8 -23 -12 6 -14 -43 -18 -52 -4 -3 5 -2 8 3 7 15 -4 51 21
56 41 6 25 -2 34 -20 20 -8 -8 -13 -8 -13 -1 0 6 5 12 10 14 7 2 5 11 -4 23
-15 20 -15 20 -16 -2 0 -12 -3 -28 -6 -37 -4 -11 0 -14 15 -11 25 5 26 1 4
-24 -12 -15 -21 -17 -34 -10 -10 5 -22 9 -26 8 -28 -5 -52 3 -55 19 -3 9 -5
-3 -6 -27 0 -25 4 -53 9 -63 5 -10 6 -18 2 -18 -5 0 -10 -12 -11 -27 -1 -16 2
-23 6 -18 4 6 18 11 32 12 23 2 22 1 -7 -14 -18 -9 -33 -21 -33 -26 0 -6 5 -5
12 1 7 5 30 17 51 25 33 14 37 14 37 1 0 -8 -4 -12 -10 -9 -5 3 -10 2 -10 -2
0 -5 -12 -10 -27 -11 -29 -2 -44 -13 -27 -19 8 -3 6 -16 -7 -43 -21 -44 -24
-60 -9 -60 6 0 10 11 10 25 0 17 4 23 15 19 12 -5 12 -9 -3 -31 -11 -18 -12
-25 -3 -22 7 3 12 8 11 13 -3 16 31 29 42 18 8 -8 3 -15 -16 -23 -15 -7 -25
-18 -22 -26 7 -16 -20 -17 -30 -1 -5 7 -3 8 6 3 9 -5 11 -4 6 3 -14 23 -23 11
-24 -32 0 -39 2 -44 19 -41 25 5 24 -11 -1 -27 -21 -13 -27 -38 -10 -38 6 0
10 -7 10 -15 0 -8 -5 -15 -12 -15 -6 0 -3 -6 8 -14 10 -8 29 -12 41 -9 24 5
32 -12 11 -20 -10 -4 -10 -8 1 -15 11 -8 9 -15 -14 -36 -30 -28 -56 -36 -35
-11 9 11 9 15 1 15 -18 0 -26 -31 -10 -41 16 -10 31 -7 29 5 -1 5 9 14 21 20
12 6 20 14 18 18 -2 4 7 15 20 24 19 13 28 15 42 6 10 -7 25 -9 34 -6 10 4 15
0 16 -12 0 -11 3 -14 6 -6 2 6 9 10 14 6 5 -3 9 0 9 5 0 6 -4 11 -8 11 -5 0
-19 9 -31 19 l-22 20 24 16 c14 9 34 17 45 18 12 0 25 11 31 24 9 19 8 23 -7
23 -15 0 -15 2 -2 11 12 8 10 9 -8 4 -24 -7 -27 8 -7 31 12 14 28 7 19 -8 -4
-6 3 -5 16 2 18 10 21 9 15 -1 -15 -24 -14 -59 2 -59 13 0 13 3 3 15 -10 12
-10 18 -1 29 13 15 54 18 45 4 -12 -19 9 -29 27 -12 10 9 16 21 13 25 -3 5 2
6 10 3 9 -3 16 -1 16 5 0 6 -8 11 -17 11 -15 0 -16 2 -3 9 8 6 18 7 24 4 5 -3
6 -1 2 5 -4 7 -2 12 4 12 7 0 10 6 7 14 -4 10 0 12 14 9 11 -3 19 -2 18 3 -3
14 12 44 22 44 5 0 9 -7 9 -15 0 -14 12 -19 33 -16 4 0 7 -3 7 -9 0 -5 -6 -10
-13 -10 -8 0 -26 -14 -40 -30 -15 -17 -33 -30 -40 -30 -6 1 -1 10 12 21 13 11
21 22 17 26 -3 4 -14 -4 -24 -18 -18 -26 -25 -52 -12 -44 4 3 18 -3 31 -13 15
-13 19 -21 11 -26 -7 -4 -15 0 -18 8 -3 9 -10 16 -16 16 -5 0 -6 -4 -3 -10 3
-5 -1 -10 -9 -10 -9 0 -16 5 -16 10 0 6 -11 3 -25 -6 -13 -8 -29 -13 -35 -9
-5 3 -17 -1 -26 -9 -8 -9 -22 -16 -29 -16 -8 0 -17 -5 -21 -11 -4 -8 1 -9 17
-4 22 7 23 6 9 -10 -13 -15 -12 -19 5 -32 18 -12 20 -12 23 1 5 21 10 20 33
-7 16 -19 18 -19 19 -4 0 9 7 17 15 17 18 0 20 -16 3 -23 -10 -4 -10 -7 -1
-14 10 -7 10 -13 -3 -29 -15 -19 -15 -18 -11 3 4 16 -1 24 -14 28 -10 4 -19
11 -19 16 0 5 -11 3 -24 -6 -13 -8 -30 -13 -39 -10 -8 4 -18 0 -23 -7 -4 -7
-4 -10 1 -6 4 4 15 3 22 -4 9 -7 17 -8 21 -2 10 13 42 17 42 4 0 -6 4 -8 10
-5 5 3 10 -3 10 -14 0 -12 4 -21 8 -21 12 0 49 29 38 30 -6 0 -1 7 10 15 14
11 15 14 3 9 -13 -4 -17 1 -15 20 1 18 7 26 19 26 11 0 15 -5 11 -11 -4 -7 1
-7 16 1 13 7 20 8 16 2 -3 -6 -1 -14 5 -18 8 -4 4 -11 -11 -19 -15 -8 -19 -15
-11 -19 6 -4 11 -3 11 1 0 5 11 10 25 11 16 1 25 -3 25 -13 0 -18 -23 -32 -28
-17 -5 17 -22 15 -22 -4 0 -8 4 -12 10 -9 6 3 10 -2 10 -11 0 -10 -3 -14 -7
-11 -3 4 -11 3 -17 -3 -7 -5 -18 -5 -26 0 -12 7 -12 12 -2 22 9 9 12 9 12 0 0
-7 5 -12 10 -12 7 0 7 7 -1 21 -11 21 -11 21 -41 -10 -30 -30 -56 -43 -42 -19
4 7 3 8 -4 4 -11 -6 -16 6 -13 27 2 14 -15 7 -32 -13 -9 -11 -17 -27 -17 -35
0 -8 -4 -15 -10 -15 -5 0 -6 -8 -3 -17 6 -14 9 -11 20 15 7 18 16 32 19 32 15
0 44 -22 44 -34 0 -20 -40 -8 -41 13 0 12 -2 11 -8 -4 -7 -17 -4 -55 4 -55 1
0 19 7 40 16 32 13 37 13 32 1 -7 -18 14 -17 37 2 14 12 19 11 36 -4 20 -18
21 -18 36 1 8 10 13 14 10 7 -4 -6 -1 -15 5 -19 8 -4 9 -3 5 4 -6 11 6 17 27
13 4 -1 15 5 23 14 14 13 13 15 -10 13 -14 -1 -26 -5 -26 -9 0 -4 -9 -5 -20
-2 -11 3 -18 9 -15 13 3 4 -2 11 -11 14 -8 3 -13 2 -10 -3 3 -5 0 -14 -8 -20
-11 -9 -15 -9 -19 1 -3 9 -10 5 -24 -11 -17 -21 -21 -22 -26 -8 -4 10 -2 17 4
17 6 0 7 5 4 10 -5 8 -12 7 -23 -2 -13 -11 -14 -11 -10 2 5 16 78 23 78 8 0
-4 4 -8 10 -8 5 0 9 3 8 8 -3 14 14 42 23 36 5 -3 7 -9 4 -14 -3 -4 5 -6 17
-4 13 2 17 2 11 -2 -7 -3 -13 -10 -13 -16 0 -6 9 -3 20 7 16 14 23 16 32 7 15
-15 28 -15 28 -1 0 5 -4 8 -9 4 -5 -3 -12 -1 -16 5 -3 5 -18 10 -33 11 -16 0
-21 3 -12 6 24 9 40 25 35 34 -3 4 -15 -1 -25 -11 -11 -11 -26 -20 -33 -20 -6
0 -1 9 13 20 21 17 23 21 10 30 -37 23 -50 35 -50 44 0 5 10 1 23 -10 35 -32
77 -55 77 -44 0 8 6 7 20 0 11 -6 20 -18 20 -27 0 -15 -2 -14 -19 1 -16 15
-19 15 -24 2 -4 -9 2 -17 15 -21 19 -7 42 6 44 26 1 5 2 14 3 19 0 6 6 10 12
10 5 0 8 -4 5 -8 -3 -5 -7 -20 -10 -34 -5 -30 16 -44 42 -28 14 8 14 10 2 11
-8 1 -18 1 -22 0 -13 -2 -2 43 11 45 6 1 7 0 2 -2 -12 -6 -3 -34 10 -34 5 0 8
3 8 8 -5 27 2 44 16 38 9 -3 24 0 35 6 14 9 22 9 34 -1 8 -7 21 -9 27 -5 8 4
9 3 5 -4 -9 -15 -36 -16 -36 -2 0 6 -4 10 -9 10 -10 0 -3 -38 9 -45 4 -3 20 7
35 21 15 14 25 19 22 11 -5 -14 25 -71 34 -63 3 3 5 -4 6 -14 1 -11 -3 -20 -9
-20 -7 0 -6 -5 1 -14 9 -11 9 -15 -1 -19 -7 -3 -3 -6 9 -6 17 -1 21 4 18 19
-2 11 2 20 8 20 7 0 6 4 -3 10 -13 8 -13 14 3 42 12 21 15 34 8 36 -6 2 -11 8
-11 14 0 6 7 4 17 -3 13 -11 17 -11 20 -1 3 6 9 10 14 7 5 -4 8 18 6 49 -2 51
-4 55 -22 50 -11 -4 -24 -11 -30 -16 -7 -7 -3 -8 12 -4 l22 7 -25 -46 c-13
-26 -24 -52 -23 -58 3 -26 -2 -37 -16 -37 -16 0 -21 15 -7 23 4 2 1 2 -5 1
-15 -4 -18 12 -4 20 5 3 18 22 29 41 l21 34 -41 -4 c-45 -4 -53 -9 -44 -24 5
-7 13 -7 26 1 26 16 38 2 17 -19 -12 -12 -17 -13 -17 -5 0 7 -5 10 -11 7 -5
-4 -19 3 -30 16 -17 20 -24 19 -20 -4 0 -4 -6 -7 -14 -7 -24 0 -17 13 18 37
17 13 26 23 19 23 -7 0 -10 4 -7 10 3 6 -1 7 -9 4 -9 -3 -13 -10 -10 -15 3 -5
0 -9 -6 -9 -6 0 -17 -14 -24 -32 -13 -30 -14 -31 -25 -10 -7 13 -20 21 -34 21
-12 -1 -31 2 -42 5 -17 7 -17 5 4 -13 13 -12 21 -25 17 -29 -4 -4 -16 3 -26
16 -10 12 -21 18 -24 13 -4 -5 -1 -13 5 -17 8 -4 7 -9 -2 -15 -19 -12 -31 -11
-23 2 4 8 0 8 -15 0 -18 -10 -21 -9 -21 7 0 10 6 24 13 31 10 11 7 12 -15 7
-35 -8 -44 8 -13 22 17 8 25 8 25 1 0 -6 9 -8 21 -4 20 7 20 6 3 -21 -18 -27
-18 -27 4 -15 12 6 22 19 22 27 0 8 5 12 10 9 6 -3 10 -2 10 4 0 6 7 8 15 4
10 -3 15 -1 13 7 -2 7 3 15 10 17 6 3 12 -2 12 -10 0 -9 -10 -19 -21 -22 -17
-6 -19 -9 -8 -16 8 -5 16 -3 21 4 4 7 8 9 8 5 0 -4 9 0 20 9 21 18 27 43 10
43 -7 0 -6 6 1 18 13 20 70 23 77 4 3 -10 7 -10 18 -1 11 9 14 8 14 -2 0 -11
2 -11 10 1 13 20 -18 38 -32 19 -8 -11 -8 -10 -4 4 3 10 -1 25 -9 33 -8 9 -15
12 -15 7 0 -4 -5 -1 -10 7 -9 13 -12 13 -20 -2 -11 -18 -41 -14 -36 5 1 7 1 9
-1 4 -8 -13 -22 3 -16 19 5 12 1 13 -21 3 -24 -11 -24 -13 -8 -25 15 -12 14
-12 -7 -7 -17 4 -22 3 -17 -5 4 -7 2 -12 -4 -12 -6 0 -8 11 -5 27 5 24 4 25
-5 8 l-10 -20 3 20 c1 13 10 20 24 20 28 0 40 13 19 21 -9 3 -14 10 -11 14 3
5 2 11 -3 14 -4 2 -17 -12 -27 -32 -11 -20 -22 -39 -26 -42 -12 -11 -18 -40
-8 -45 5 -4 7 -10 5 -13 -2 -4 1 -18 8 -31 10 -18 15 -20 21 -10 5 7 4 14 -3
17 -7 2 -12 7 -12 12 0 10 49 10 56 -1 3 -5 -2 -6 -10 -3 -16 6 -22 -7 -10
-19 8 -7 64 33 64 46 0 5 -7 4 -14 -3 -11 -9 -19 -9 -33 0 -11 7 -12 10 -3 7
8 -2 21 3 29 10 8 8 17 11 20 6 7 -11 22 -10 39 1 9 5 19 3 28 -6 12 -12 9
-14 -21 -13 -31 1 -40 -5 -36 -27 2 -13 -57 -38 -75 -31 -11 4 -15 2 -11 -4 4
-6 -3 -13 -16 -17 -35 -9 -47 -7 -47 9 0 8 5 15 10 15 6 0 10 -4 10 -10 0 -5
5 -10 11 -10 17 0 0 19 -34 36 -18 9 -29 13 -25 9 4 -5 0 -14 -10 -22 -15 -13
-14 -13 6 -3 29 14 36 9 19 -13 -11 -15 -15 -15 -54 2 -23 11 -47 30 -54 43
-11 21 -11 22 5 9 15 -12 19 -12 32 7 10 15 26 22 49 22 l34 0 -23 26 c-57 64
-56 60 -32 84 18 19 18 22 3 17 -11 -4 -16 -3 -12 3 3 6 1 10 -6 10 -7 0 -10
3 -7 6 4 3 15 1 26 -5 15 -8 23 -7 32 4 6 8 9 19 5 25 -3 5 2 10 12 10 15 0
15 2 4 9 -13 8 -13 14 -2 38 8 16 16 23 18 16 3 -7 11 -13 18 -13 17 0 29 31
15 40 -15 9 -22 70 -9 70 6 0 9 -12 7 -27 -2 -20 1 -27 11 -25 29 6 30 -23 2
-48 -15 -14 -26 -31 -23 -38 2 -7 -1 -12 -8 -12 -6 0 -8 -5 -4 -11 7 -13 29 5
29 24 0 6 15 12 34 13 l33 2 -38 -22 c-29 -16 -39 -28 -39 -46 0 -17 6 -25 18
-25 10 0 22 -7 27 -15 8 -13 11 -13 19 -1 13 20 74 24 67 4 -3 -8 -6 -17 -6
-19 0 -9 -29 -3 -32 6 -2 7 -11 5 -23 -5 -19 -14 -19 -15 5 -12 19 1 24 -2 22
-15 -3 -17 4 -21 41 -21 9 0 17 -4 17 -8 0 -5 5 -9 11 -9 5 0 7 5 3 12 -4 7
-3 8 4 4 7 -4 12 -3 12 3 0 6 7 8 15 5 17 -7 21 -34 4 -34 -5 0 -7 4 -4 10 4
6 -1 7 -11 3 -15 -5 -13 -10 15 -35 32 -29 51 -36 51 -18 0 6 -6 10 -13 10
-19 0 -16 88 3 100 19 12 33 13 25 1 -11 -18 37 -24 54 -7 14 15 14 18 1 27
-11 8 -12 12 -2 16 6 2 12 16 12 29 0 14 -4 23 -10 19 -5 -3 -7 -12 -4 -20 4
-10 0 -12 -16 -8 l-23 6 23 17 c24 18 38 60 20 60 -6 0 -10 -6 -10 -12 -1 -24
-37 -61 -50 -53 -11 7 -9 10 6 17 14 6 13 7 -8 3 -15 -3 -30 -1 -33 5 -3 5 -1
10 5 10 6 0 23 12 37 28 15 15 23 21 19 15 -4 -8 -1 -13 9 -13 24 0 2 35 -24
37 -11 1 -20 -1 -20 -5 5 -29 -3 -40 -23 -35 -18 4 -20 2 -9 -5 12 -9 10 -12
-11 -17 -34 -9 -64 -40 -48 -50 9 -6 9 -10 -1 -16 -19 -12 -32 -11 -24 1 3 6
0 10 -7 10 -7 0 2 12 20 26 18 14 29 30 26 36 -4 6 1 8 13 4 13 -4 20 -2 20 8
0 24 -26 27 -47 6 -11 -11 -16 -20 -10 -20 5 0 -2 -12 -16 -27 -23 -25 -25
-25 -43 -9 -12 11 -21 14 -26 7 -3 -6 1 -11 9 -11 19 0 21 -11 4 -28 -15 -15
-31 -16 -22 0 4 6 3 8 -4 5 -15 -10 -42 3 -42 19 0 17 17 18 23 2 2 -7 8 -9
13 -5 5 4 3 12 -4 16 -9 5 1 13 29 24 40 16 41 16 36 -3 -3 -11 -2 -20 3 -20
12 0 19 39 7 43 -7 2 -2 16 12 35 12 18 26 30 31 27 4 -3 14 3 21 12 11 13 12
17 1 21 -10 3 -9 9 5 24 18 20 17 21 -2 10 -26 -14 -55 -49 -47 -57 4 -3 -1
-3 -10 0 -12 5 -14 1 -11 -19 4 -20 1 -26 -13 -26 -14 0 -15 3 -6 12 15 15 16
28 2 28 -6 0 -9 -5 -8 -11 2 -6 -3 -14 -9 -16 -26 -10 -12 16 25 43 20 15 39
29 41 31 2 2 1 6 -2 10 -4 3 -13 -1 -20 -10 -11 -16 -14 -16 -35 -2 -12 9 -19
21 -16 27 4 6 -1 17 -10 24 -15 10 -21 9 -36 -6 -9 -9 -20 -24 -24 -31 -3 -8
-4 -2 -1 14 3 15 1 27 -5 27 -5 0 -10 -9 -10 -20 0 -11 -5 -20 -11 -20 -6 0
-9 -9 -6 -20 5 -18 3 -19 -24 -5 -16 9 -35 28 -43 44 -13 24 -34 41 -52 41
-11 0 -2 -29 11 -33 11 -5 7 -13 -17 -37 -24 -24 -33 -28 -39 -18 -5 7 -9 11
-10 8 0 -3 -2 -13 -4 -22 -2 -10 2 -21 9 -25 7 -5 15 -16 19 -26 4 -11 3 -16
-3 -12 -6 3 -10 1 -10 -5 0 -8 9 -10 26 -6 15 4 23 3 20 -3 -8 -12 19 -22 42
-15 14 5 15 4 2 -6 -12 -9 -11 -10 8 -5 16 5 22 2 22 -10 0 -11 -6 -15 -19
-10 -11 3 -26 -1 -37 -12 -13 -13 -18 -15 -22 -5 -3 10 -9 9 -23 -4 -12 -11
-19 -13 -19 -5 0 7 -4 10 -9 7 -11 -7 -61 16 -61 28 0 5 3 6 7 3 3 -4 19 7 35
25 29 33 35 48 18 48 -5 0 -10 -4 -10 -10 0 -5 -5 -10 -11 -10 -8 0 -8 5 1 15
16 19 -3 45 -34 45 -17 0 -18 -2 -6 -10 11 -7 11 -10 2 -10 -7 0 -24 11 -37
25 -14 13 -25 19 -25 13 0 -6 -2 -9 -5 -6 -3 3 -3 13 1 22 5 14 9 12 26 -9 15
-20 23 -23 38 -15 13 7 21 7 25 0 4 -6 11 -7 17 -4 7 4 5 10 -6 16 -9 5 -16
16 -16 24 0 12 7 14 30 9 19 -4 30 -3 30 4 0 6 -7 11 -15 11 -8 0 -15 7 -15
15 0 8 5 15 10 15 6 0 10 6 10 13 -1 6 -12 -1 -25 -18 -14 -16 -25 -26 -25
-21 0 5 -7 3 -15 -4 -9 -7 -13 -21 -10 -31 5 -14 2 -17 -9 -13 -9 3 -14 9 -12
13 2 3 -7 14 -20 24 -14 10 -24 13 -24 7 0 -7 -8 -9 -20 -5 -11 4 -20 2 -20
-4 0 -6 9 -11 20 -11 19 0 19 -1 2 -20 -9 -12 -16 -24 -15 -28 1 -4 -4 -13
-10 -21 -10 -12 -9 -13 8 -3 18 9 21 7 22 -10 1 -13 -3 -18 -13 -14 -8 3 -14
1 -14 -4 0 -6 5 -10 12 -10 6 0 9 -3 5 -6 -7 -7 99 -114 113 -114 6 0 10 5 10
10 0 6 -8 10 -17 10 -14 0 -15 2 -4 13 10 10 14 8 22 -6 6 -9 15 -14 21 -11 7
4 8 2 4 -4 -3 -6 3 -16 14 -22 24 -13 27 -32 3 -23 -9 4 -14 2 -10 -3 3 -6 1
-16 -5 -24 -8 -12 -9 -12 -4 3 3 11 0 17 -9 17 -8 0 -15 8 -15 18 0 14 2 15
10 2 8 -13 10 -12 10 3 0 21 -18 23 -26 2 -4 -8 -11 -15 -16 -15 -6 0 -8 6 -5
14 3 8 -5 18 -19 25 -13 6 -29 22 -36 36 -16 35 -24 32 -48 -16 -11 -23 -17
-39 -13 -36 3 4 13 1 21 -6 12 -9 16 -9 19 1 3 6 9 10 14 6 5 -3 9 0 9 7 0 7
11 2 25 -11 13 -12 22 -27 18 -33 -3 -5 3 -6 15 -3 30 10 37 -12 8 -26 -14 -6
-26 -17 -26 -25 0 -7 -5 -13 -10 -13 -7 0 -7 -6 0 -20 14 -26 -5 -27 -22 -1
-11 17 -13 18 -23 4 -10 -13 -16 -13 -34 -3 -20 10 -25 9 -39 -12 -9 -12 -16
-25 -15 -28 0 -3 -3 -13 -9 -23 -8 -16 -7 -18 11 -12 15 5 21 2 21 -9 0 -15
-3 -15 -36 -1 -44 18 -44 18 -44 1 0 -17 24 -27 47 -20 15 5 16 4 3 -5 -8 -6
-23 -8 -34 -5 -11 4 -16 2 -12 -4 3 -5 -1 -15 -9 -22 -11 -9 -12 -16 -4 -26 9
-11 5 -11 -20 -4 -20 6 -30 5 -28 -2 1 -6 -4 -13 -12 -16 -10 -3 -12 0 -7 13
9 25 -11 44 -42 39 -15 -2 -22 -1 -17 3 13 10 14 46 2 54 -5 4 -4 10 2 13 6 4
11 2 11 -3 0 -6 5 -11 11 -11 5 0 7 4 4 10 -3 5 5 21 18 34 17 17 21 28 15 40
-5 9 -6 16 -2 16 3 0 1 6 -5 14 -8 9 -8 16 -2 20 5 4 12 2 15 -3 4 -5 18 -7
33 -5 l27 5 -26 -26 c-14 -14 -25 -32 -24 -39 3 -20 44 -68 50 -58 3 5 -3 18
-14 30 -14 14 -16 22 -7 25 9 4 9 6 0 6 -7 1 -13 5 -13 11 0 5 7 7 15 4 9 -4
14 -14 13 -22 -2 -10 4 -17 16 -17 11 0 21 -6 24 -14 3 -9 0 -11 -8 -6 -9 5
-11 4 -6 -4 10 -16 23 -6 28 23 3 14 0 23 -6 22 -6 -2 -8 -1 -3 1 4 3 4 10 1
15 -5 7 -2 8 5 3 13 -7 60 12 73 30 15 20 7 29 -9 10 -15 -19 -15 -19 -10 12
5 26 3 33 -13 38 -19 6 -29 35 -12 35 4 0 15 14 25 31 l17 31 -24 -6 c-34 -8
-41 8 -11 22 23 11 36 42 17 42 -4 0 -9 11 -10 25 -1 14 2 25 6 25 16 0 9 27
-10 39 -20 13 -24 1 -6 -17 9 -9 8 -12 -5 -12 -16 0 -16 -2 -1 -25 9 -14 12
-25 6 -25 -6 0 -12 8 -14 18 -3 12 -6 8 -10 -11 -4 -23 -3 -27 13 -22 13 4 19
1 19 -9 0 -13 -5 -14 -26 -6 -14 6 -31 7 -37 3 -7 -3 -4 3 6 14 19 22 23 53 6
53 -6 0 -9 -9 -6 -20 7 -26 -9 -35 -30 -18 -10 8 -14 8 -10 1 4 -6 3 -14 -2
-17 -15 -10 -24 14 -11 29 7 8 15 14 18 13 4 -1 21 7 37 18 22 13 30 27 30 45
-1 17 4 25 11 22 7 -2 21 6 33 18 23 25 27 39 11 39 -5 0 -10 -4 -10 -10 0 -5
-5 -10 -10 -10 -6 0 -5 8 2 19 9 16 15 17 26 9 8 -7 16 -8 20 -2 4 5 14 10 24
12 12 2 15 -3 10 -20 -3 -12 -7 -17 -10 -10 -4 13 -22 17 -22 4 0 -14 41 -53
52 -50 5 2 9 7 8 12 -1 5 9 14 21 20 12 6 21 15 20 20 -2 5 9 16 23 26 15 9
23 20 19 24 -4 4 0 12 10 17 21 12 22 29 2 29 -8 0 -15 -6 -15 -14 0 -22 -14
-27 -44 -13 -33 15 -33 21 0 36 24 11 26 10 21 -9 -6 -24 8 -27 18 -3 3 10 1
19 -4 21 -6 2 -11 10 -11 18 0 8 -5 14 -11 14 -5 0 -7 5 -4 10 3 6 2 10 -4 10
-5 0 -13 -5 -16 -10z m-50 -40 c-2 -11 4 -24 13 -30 14 -9 12 -10 -8 -4 l-25
6 24 -26 c22 -24 25 -24 38 -8 12 16 14 16 24 -1 5 -9 16 -14 22 -11 7 4 -8
-12 -32 -34 -44 -41 -77 -58 -50 -25 8 9 13 19 11 22 -2 3 2 7 9 10 7 2 9 -1
4 -10 -6 -11 -5 -12 5 -2 12 11 11 15 -6 28 -10 8 -25 15 -31 15 -7 0 -12 3
-10 8 1 4 -2 8 -8 9 -5 1 -9 -4 -9 -12 1 -8 -4 -16 -11 -18 -19 -8 -14 27 7
41 10 7 18 21 18 31 0 16 8 31 16 31 2 0 1 -9 -1 -20z m30 -12 c-9 -6 -19 -7
-22 -4 -4 3 -1 6 6 6 7 0 9 4 6 10 -4 6 1 7 11 3 15 -6 15 -7 -1 -15z m-125
-128 c0 -5 -7 -10 -16 -10 -8 0 -12 5 -9 10 3 6 10 10 16 10 5 0 9 -4 9 -10z
m453 -27 c-7 -2 -13 -11 -13 -19 0 -8 -5 -14 -10 -14 -7 0 -7 -6 0 -20 13 -24
-2 -27 -20 -5 -11 13 -10 18 6 30 10 8 15 15 9 15 -5 0 -3 5 5 10 8 5 20 9 25
9 6 0 4 -3 -2 -6z m-166 -29 c-3 -3 -12 -4 -19 -1 -8 3 -5 6 6 6 11 1 17 -2
13 -5z m172 -45 c-17 -15 -19 -22 -10 -33 9 -11 9 -15 -1 -19 -7 -3 -4 -5 7
-4 11 1 21 -2 22 -8 0 -5 -4 -8 -10 -6 -7 1 -22 4 -34 5 -19 1 -20 3 -7 17 8
9 11 19 8 22 -4 4 -2 13 4 20 7 8 9 17 5 20 -3 4 -1 7 6 7 7 0 9 5 5 13 -5 8
-2 8 9 -2 16 -13 16 -15 -4 -32z m-619 21 c0 -17 -26 -27 -47 -19 -34 12 -28
24 12 25 19 0 35 -2 35 -6z m466 -1 c18 1 35 -3 40 -10 4 -8 3 -10 -4 -5 -7 4
-13 2 -13 -3 -1 -6 -2 -15 -3 -21 0 -5 -5 -10 -10 -9 -5 0 -13 -5 -17 -13 -7
-10 -9 -9 -9 4 0 9 8 21 17 27 10 5 14 13 10 17 -5 5 -12 2 -16 -5 -5 -8 -14
-10 -21 -6 -7 4 -16 2 -21 -6 -12 -18 -11 -32 0 -24 6 3 14 -2 19 -10 7 -14
13 -14 35 -4 15 7 27 18 27 25 0 17 27 7 34 -12 3 -9 1 -12 -4 -9 -16 10 -50
-5 -50 -21 0 -12 -5 -12 -37 1 -37 16 -93 65 -74 65 5 0 13 -5 16 -10 10 -16
37 10 31 27 -4 9 -2 11 6 6 7 -4 27 -6 44 -4z m-256 -4 c0 -3 -2 -5 -5 -5 -3
0 -5 2 -5 5 0 3 2 5 5 5 3 0 5 -2 5 -5z m190 -10 c0 -3 -2 -5 -5 -5 -3 0 -5 2
-5 5 0 3 2 5 5 5 3 0 5 -2 5 -5z m-406 -30 c-9 -14 -21 -25 -27 -25 -6 0 -8
-2 -5 -5 9 -10 58 18 58 32 0 8 4 12 10 8 5 -3 7 -11 5 -18 -3 -7 -1 -18 4
-26 8 -12 12 -12 25 -2 13 11 16 11 16 -2 0 -18 23 -28 47 -21 10 3 7 -2 -7
-10 -16 -10 -19 -15 -10 -16 13 0 13 -2 1 -9 -12 -8 -12 -12 -2 -25 8 -10 9
-16 3 -16 -6 0 -18 10 -26 22 -17 23 -18 23 -19 -14 -1 -19 3 -22 22 -20 15 2
21 0 16 -7 -3 -7 -3 -10 2 -9 4 1 20 -6 36 -16 26 -17 26 -19 10 -33 -10 -8
-12 -12 -5 -8 14 7 17 -21 2 -30 -9 -6 -11 1 -14 47 -1 9 -5 20 -10 25 -5 4
-7 2 -4 -7 4 -11 0 -16 -12 -16 -10 0 -17 3 -14 7 5 9 -23 21 -61 25 -25 4
-27 3 -12 -8 12 -10 14 -17 6 -28 -9 -13 -10 -12 -5 3 3 11 0 17 -9 17 -8 0
-15 5 -15 10 0 6 -6 9 -12 8 -7 -2 -12 3 -10 10 1 6 -3 12 -8 12 -19 0 8 38
32 46 12 3 28 13 36 20 11 12 11 15 -3 20 -9 4 -14 13 -11 20 3 8 -1 14 -9 14
-8 0 -14 -3 -14 -7 3 -19 -3 -21 -32 -11 -16 6 -28 13 -25 15 3 3 1 13 -4 23
-6 12 -5 17 6 17 8 0 13 -6 10 -14 -8 -19 8 -16 29 7 25 27 29 25 9 -5z m56
20 c0 -3 -2 -5 -5 -5 -3 0 -5 2 -5 5 0 3 2 5 5 5 3 0 5 -2 5 -5z m225 -14 c3
-5 0 -13 -6 -17 -8 -4 -9 -3 -5 4 4 7 2 12 -4 12 -7 0 -10 -7 -6 -15 3 -8 1
-15 -5 -15 -6 0 -7 -4 -4 -10 3 -5 -1 -10 -11 -10 -13 0 -14 3 -5 14 8 10 9
16 1 21 -5 3 -10 10 -10 16 0 12 47 12 55 0z m50 -1 c6 -9 -53 -45 -61 -37 -4
4 43 47 52 47 1 0 5 -4 9 -10z m0 -39 c3 -5 1 -12 -4 -15 -5 -4 -12 0 -14 6
-4 9 -6 8 -6 -3 -1 -21 -51 -45 -51 -24 0 9 6 12 17 8 10 -4 14 -2 9 5 -3 6 2
15 11 21 23 13 30 13 38 2z m-45 -56 c0 -3 -2 -5 -5 -5 -3 0 -5 2 -5 5 0 3 2
5 5 5 3 0 5 -2 5 -5z m480 0 c0 -3 -2 -5 -5 -5 -3 0 -5 2 -5 5 0 3 2 5 5 5 3
0 5 -2 5 -5z m-5 -44 c-2 -2 -11 3 -19 12 -8 8 -12 17 -9 21 3 3 12 -2 19 -12
7 -9 11 -19 9 -21z m-607 12 c-2 -9 -8 -18 -15 -20 -9 -3 -11 11 -4 35 1 1 6
2 12 2 6 0 9 -8 7 -17z m75 3 c3 -8 0 -17 -8 -19 -11 -5 -13 6 -6 31 2 6 9 0
14 -12z m252 4 c3 -5 -1 -10 -9 -10 -9 0 -16 5 -16 10 0 6 4 10 9 10 6 0 13
-4 16 -10z m329 -6 c3 -8 9 -13 14 -10 4 2 14 1 22 -5 13 -7 13 -9 1 -9 -11 0
-10 -4 3 -19 15 -17 15 -19 1 -25 -9 -3 -14 -2 -11 2 2 4 -2 16 -10 26 -13 19
-14 18 -40 -7 -15 -15 -32 -27 -38 -27 -6 0 4 12 22 26 35 28 41 44 16 44 -8
0 -12 5 -9 10 9 15 22 12 29 -6z m-140 -16 c-3 -4 -12 -8 -20 -8 -8 0 -13 4
-10 8 3 5 12 9 20 9 8 0 13 -4 10 -9z m-279 -8 c3 -5 12 -7 19 -4 16 6 29 -23
14 -32 -5 -4 -21 5 -34 20 -14 14 -20 26 -15 26 5 0 12 -4 16 -10z m395 5 c0
-3 -2 -5 -5 -5 -3 0 -5 2 -5 5 0 3 2 5 5 5 3 0 5 -2 5 -5z m-30 -20 c0 -20
-21 -30 -31 -14 -8 11 -14 8 -34 -14 -30 -34 -33 -22 -4 13 24 29 69 39 69 15z
m-657 -56 c7 -1 15 -1 18 -1 4 1 9 -8 12 -18 3 -13 0 -20 -10 -20 -9 0 -11 5
-6 13 4 6 -5 4 -20 -6 -15 -9 -27 -13 -27 -7 0 6 7 13 15 16 12 5 13 9 4 20
-9 11 -15 11 -25 3 -8 -6 -14 -8 -14 -4 0 4 8 14 18 21 14 10 18 10 20 -2 2
-8 9 -15 15 -15z m636 17 c-15 -13 -49 -25 -49 -17 0 5 8 12 18 14 24 6 36 8
31 3z m-419 -51 c-7 -9 -15 -13 -18 -10 -3 2 1 11 8 20 7 9 15 13 18 10 3 -2
-1 -11 -8 -20z m-315 5 c3 -5 1 -10 -4 -10 -6 0 -11 5 -11 10 0 6 2 10 4 10 3
0 8 -4 11 -10z m443 -7 c-10 -2 -18 -9 -18 -14 0 -5 -5 -9 -11 -9 -8 0 -8 5 1
15 7 8 20 14 29 14 13 -1 13 -2 -1 -6z m-338 -13 c0 -5 -4 -10 -10 -10 -5 0
-10 5 -10 10 0 6 5 10 10 10 6 0 10 -4 10 -10z m450 -10 c0 -19 -11 -26 -23
-14 -8 8 3 34 14 34 5 0 9 -9 9 -20z m-564 -15 c-9 -9 -16 -12 -16 -6 0 6 -8
8 -17 6 -10 -3 -5 1 12 9 35 17 44 13 21 -9z m199 5 c3 -5 4 -10 1 -10 -3 0
-8 5 -11 10 -3 6 -4 10 -1 10 3 0 8 -4 11 -10z m215 -5 c0 -3 -2 -5 -5 -5 -3
0 -5 2 -5 5 0 3 2 5 5 5 3 0 5 -2 5 -5z m297 -12 c-4 -3 -10 -3 -14 0 -3 4 0
7 7 7 7 0 10 -3 7 -7z m-107 -28 c0 -3 -2 -5 -5 -5 -3 0 -5 2 -5 5 0 3 2 5 5
5 3 0 5 -2 5 -5z m-266 -36 c-3 -5 -9 -7 -14 -4 -4 3 -10 -1 -13 -7 -4 -10 -7
-10 -17 -1 -11 10 -9 14 11 22 26 10 43 5 33 -10z m60 10 c11 9 16 10 16 2 0
-6 6 -10 13 -8 6 1 11 -4 9 -11 -2 -10 4 -12 20 -7 23 6 22 6 -1 -8 -17 -10
-20 -16 -10 -19 8 -3 2 -5 -13 -4 -16 0 -28 4 -28 8 0 3 -10 4 -22 2 -13 -2
-17 -2 -10 2 6 3 10 10 6 15 -9 15 -24 10 -25 -8 0 -10 -3 -13 -5 -6 -3 7 0
22 6 34 9 16 14 19 20 8 7 -10 11 -10 24 0z m261 2 c3 -5 1 -12 -4 -15 -5 -3
-11 1 -15 9 -6 16 9 21 19 6z m-347 -34 c12 1 22 -5 22 -13 0 -8 -5 -14 -11
-14 -5 0 -7 6 -4 13 4 6 0 5 -7 -5 -10 -12 -18 -14 -31 -6 -13 7 -23 6 -34 -4
-9 -7 -14 -8 -11 -3 2 6 8 18 12 29 4 13 11 16 24 10 9 -4 27 -7 40 -7z m186
-42 c-4 -8 -14 -15 -23 -15 -14 1 -13 3 3 15 25 19 27 19 20 0z m326 10 c0 -3
-2 -5 -5 -5 -3 0 -5 2 -5 5 0 3 2 5 5 5 3 0 5 -2 5 -5z m56 -15 c0 -11 -6 -22
-12 -24 -13 -5 -13 11 -1 32 11 16 13 15 13 -8z m-218 -10 c7 -12 8 -20 2 -20
-5 0 -10 5 -10 12 0 9 -3 9 -12 0 -18 -18 -27 -15 -21 8 3 11 10 20 17 20 6 0
17 -9 24 -20z m-101 -37 c-4 -3 -7 0 -7 7 0 7 3 10 7 7 3 -4 3 -10 0 -14z
m-27 -28 c0 -3 -2 -5 -5 -5 -3 0 -5 2 -5 5 0 3 2 5 5 5 3 0 5 -2 5 -5z m-250
-80 c0 -12 -19 -12 -23 0 -4 9 -1 12 9 8 7 -3 14 -7 14 -8z m150 5 c0 -5 -4
-10 -10 -10 -5 0 -10 5 -10 10 0 6 5 10 10 10 6 0 10 -4 10 -10z"/>
<path d="M380 800 c0 -5 5 -10 10 -10 6 0 10 5 10 10 0 6 -4 10 -10 10 -5 0
-10 -4 -10 -10z"/>
<path d="M30 655 c0 -3 2 -5 5 -5 3 0 5 2 5 5 0 3 -2 5 -5 5 -3 0 -5 -2 -5 -5z"/>
<path d="M520 645 c0 -3 2 -5 5 -5 3 0 5 2 5 5 0 3 -2 5 -5 5 -3 0 -5 -2 -5
-5z"/>
<path d="M500 595 c0 -3 2 -5 5 -5 3 0 5 2 5 5 0 3 -2 5 -5 5 -3 0 -5 -2 -5
-5z"/>
<path d="M137 564 c-5 -5 28 -44 36 -44 2 0 4 6 4 14 0 15 -32 38 -40 30z"/>
<path d="M118 518 c-7 -13 -12 -27 -13 -32 0 -5 -6 -11 -14 -14 -10 -3 -11 2
-6 19 7 22 7 22 -10 5 -15 -15 -16 -19 -4 -27 8 -5 20 -7 28 -4 7 3 20 0 27
-6 10 -8 14 -8 14 0 0 6 -6 11 -12 11 -9 0 -8 4 2 10 12 8 12 10 -5 10 -19 1
-19 2 3 17 23 16 29 33 12 33 -5 0 -15 -10 -22 -22z"/>
<path d="M360 565 c0 -3 2 -5 5 -5 3 0 5 2 5 5 0 3 -2 5 -5 5 -3 0 -5 -2 -5
-5z"/>
<path d="M900 475 c0 -3 2 -5 5 -5 3 0 5 2 5 5 0 3 -2 5 -5 5 -3 0 -5 -2 -5
-5z"/>
<path d="M360 245 c0 -3 2 -5 5 -5 3 0 5 2 5 5 0 3 -2 5 -5 5 -3 0 -5 -2 -5
-5z"/>
<path d="M460 241 c0 -9 30 -24 36 -18 2 1 -6 8 -16 15 -11 7 -20 8 -20 3z"/>
<path d="M490 245 c0 -3 2 -5 5 -5 3 0 5 2 5 5 0 3 -2 5 -5 5 -3 0 -5 -2 -5
-5z"/>
<path d="M320 225 c0 -3 2 -5 5 -5 3 0 5 2 5 5 0 3 -2 5 -5 5 -3 0 -5 -2 -5
-5z"/>
<path d="M343 213 c4 -3 10 -3 14 0 3 4 0 7 -7 7 -7 0 -10 -3 -7 -7z"/>
<path d="M740 921 c0 -6 10 -17 22 -25 12 -9 18 -16 13 -16 -6 0 -3 -5 5 -10
11 -7 11 -10 2 -10 -7 0 -19 -15 -27 -32 -12 -29 -11 -35 2 -50 13 -15 13 -19
-1 -40 -22 -31 -20 -37 10 -32 16 3 23 1 19 -6 -3 -5 -2 -10 3 -10 19 0 21 14
5 32 -19 22 -8 24 14 3 8 -8 19 -13 24 -10 5 4 9 -3 9 -14 0 -10 -6 -21 -12
-24 -10 -3 -10 -7 1 -20 7 -10 9 -17 3 -17 -11 0 -23 -36 -14 -44 3 -3 12 0
20 7 13 10 15 9 9 -5 -7 -20 0 -23 21 -9 11 7 10 9 -3 15 -17 6 -12 26 6 26 6
0 7 -5 3 -11 -4 -7 2 -7 17 1 19 11 24 10 36 -6 7 -10 13 -21 13 -26 0 -4 5
-8 10 -8 14 0 12 27 -2 33 -10 4 -10 8 0 15 11 7 11 10 -3 15 -9 4 -13 3 -10
-3 3 -6 1 -10 -4 -10 -15 0 -14 19 3 36 13 12 15 12 18 -4 3 -9 5 2 5 26 0 51
-9 54 -27 7 -8 -19 -18 -35 -22 -35 -5 0 -7 -4 -3 -9 3 -5 2 -12 -3 -15 -4 -2
-9 6 -10 20 -1 13 3 24 9 24 5 0 4 6 -3 14 -11 12 -14 12 -21 0 -4 -8 -12 -14
-18 -14 -5 0 -4 9 3 20 7 11 18 20 24 20 6 0 17 11 24 25 7 13 17 22 21 19 5
-2 -1 -14 -11 -24 -22 -22 -26 -40 -10 -40 6 0 10 5 10 11 0 6 10 19 23 29
l22 18 -23 20 c-19 17 -20 21 -7 26 9 3 13 2 10 -3 -3 -5 -1 -13 5 -16 7 -4
10 11 7 47 -1 29 -6 52 -10 51 -4 -2 -16 -3 -27 -3 -11 0 -20 -5 -20 -11 0 -6
9 -8 23 -4 18 6 20 5 10 -6 -18 -18 -16 -32 3 -25 14 6 15 4 4 -9 -11 -13 -15
-13 -21 -3 -6 9 -9 8 -10 -7 -1 -11 -1 -24 0 -29 4 -18 -23 -57 -35 -52 -7 3
-15 -3 -17 -12 -3 -9 -4 -3 -3 13 1 17 10 42 20 57 10 15 14 33 10 39 -4 7 -3
9 4 5 6 -3 13 -3 16 2 3 5 -19 8 -49 8 l-54 -1 21 -22 c12 -13 18 -23 13 -23
-4 0 -16 10 -26 22 -11 11 -20 17 -20 12 -1 -5 -2 -15 -3 -23 -2 -21 -23 -25
-23 -4 0 10 11 26 24 36 l23 18 -28 35 c-27 34 -42 43 -42 25z m130 -101 c0
-5 -5 -10 -11 -10 -5 0 -7 5 -4 10 3 6 8 10 11 10 2 0 4 -4 4 -10z m-10 -25
c0 -3 -2 -5 -5 -5 -3 0 -5 2 -5 5 0 3 2 5 5 5 3 0 5 -2 5 -5z m-20 -47 c0 -13
-17 -9 -35 8 -13 14 -14 19 -3 25 12 8 38 -14 38 -33z m-73 -35 c-4 -3 -7 0
-7 7 0 7 3 10 7 7 3 -4 3 -10 0 -14z m86 -83 c-31 -36 -38 -38 -21 -7 7 12 11
25 10 30 -1 4 7 7 18 7 19 0 18 -2 -7 -30z"/>
<path d="M810 771 c0 -6 4 -13 10 -16 6 -3 7 1 4 9 -7 18 -14 21 -14 7z"/>
<path d="M14 908 c-4 -7 -3 -8 4 -4 12 7 16 16 8 16 -3 0 -8 -5 -12 -12z"/>
<path d="M493 913 c-7 -2 -13 -11 -13 -18 0 -7 6 -16 13 -19 6 -3 -1 -2 -17 1
l-29 6 22 -22 c22 -22 37 -28 26 -11 -3 6 0 13 8 16 15 5 19 34 5 34 -5 0 -6
5 -3 10 7 11 6 11 -12 3z"/>
<path d="M580 870 c0 -5 5 -10 10 -10 6 0 10 5 10 10 0 6 -4 10 -10 10 -5 0
-10 -4 -10 -10z"/>
<path d="M0 805 c0 -8 4 -15 8 -15 13 0 52 -36 46 -43 -3 -3 1 -4 10 -3 8 0
15 -2 15 -6 1 -5 -2 -8 -5 -7 -4 0 -10 -3 -13 -9 -3 -5 -15 -14 -26 -20 -14
-8 -15 -11 -5 -12 8 0 21 4 29 9 10 7 18 5 25 -5 9 -11 11 -7 12 18 1 29 -21
67 -35 61 -3 -2 -7 2 -7 7 -1 6 -2 15 -3 21 0 6 -8 9 -16 5 -8 -3 -15 -1 -15
4 0 6 -4 10 -10 10 -5 0 -10 -7 -10 -15z"/>
<path d="M610 805 c0 -3 2 -5 5 -5 3 0 5 2 5 5 0 3 -2 5 -5 5 -3 0 -5 -2 -5
-5z"/>
<path d="M890 805 c0 -3 2 -5 5 -5 3 0 5 2 5 5 0 3 -2 5 -5 5 -3 0 -5 -2 -5
-5z"/>
<path d="M869 768 c-10 -18 -9 -20 6 -15 9 4 19 7 21 7 2 0 4 7 4 15 0 22 -18
18 -31 -7z"/>
<path d="M14 762 c4 -7 3 -12 -2 -12 -14 0 -10 -29 6 -35 17 -6 34 3 26 16 -3
5 -10 6 -16 3 -7 -5 -9 -1 -5 9 3 9 1 19 -5 23 -7 4 -8 3 -4 -4z m26 -37 c0
-3 -2 -5 -5 -5 -3 0 -5 2 -5 5 0 3 2 5 5 5 3 0 5 -2 5 -5z"/>
<path d="M90 765 c0 -3 2 -5 5 -5 3 0 5 2 5 5 0 3 -2 5 -5 5 -3 0 -5 -2 -5 -5z"/>
<path d="M140 754 c0 -8 5 -12 10 -9 6 3 10 10 10 16 0 5 -4 9 -10 9 -5 0 -10
-7 -10 -16z"/>
<path d="M730 765 c0 -3 2 -5 5 -5 3 0 5 2 5 5 0 3 -2 5 -5 5 -3 0 -5 -2 -5
-5z"/>
<path d="M750 760 c0 -7 3 -10 7 -7 3 4 3 10 0 14 -4 3 -7 0 -7 -7z"/>
<path d="M275 740 c-3 -5 1 -10 9 -10 9 0 16 5 16 10 0 6 -4 10 -9 10 -6 0
-13 -4 -16 -10z"/>
<path d="M460 706 c0 -8 -6 -16 -12 -19 -7 -2 -10 -8 -5 -12 4 -5 16 1 27 12
10 12 16 24 13 27 -11 11 -23 6 -23 -8z"/>
<path d="M160 705 c0 -3 2 -5 5 -5 3 0 5 2 5 5 0 3 -2 5 -5 5 -3 0 -5 -2 -5
-5z"/>
<path d="M240 697 c0 -8 7 -17 15 -21 8 -3 15 -3 15 0 0 3 -7 12 -15 20 -13
13 -15 13 -15 1z"/>
<path d="M560 697 c0 -10 8 -17 18 -17 9 0 13 4 7 8 -5 4 -13 11 -17 16 -5 5
-8 2 -8 -7z"/>
<path d="M180 695 c0 -3 2 -5 5 -5 3 0 5 2 5 5 0 3 -2 5 -5 5 -3 0 -5 -2 -5
-5z"/>
<path d="M400 690 c0 -7 3 -10 7 -7 3 4 3 10 0 14 -4 3 -7 0 -7 -7z"/>
<path d="M420 685 c0 -3 2 -5 5 -5 3 0 5 2 5 5 0 3 -2 5 -5 5 -3 0 -5 -2 -5
-5z"/>
<path d="M410 645 c0 -3 2 -5 5 -5 3 0 5 2 5 5 0 3 -2 5 -5 5 -3 0 -5 -2 -5
-5z"/>
<path d="M772 598 c-16 -16 -15 -28 2 -28 16 0 29 27 17 34 -4 3 -13 0 -19 -6z"/>
<path d="M422 550 c-12 -31 -8 -37 12 -18 9 9 11 20 6 29 -7 10 -11 8 -18 -11z"/>
<path d="M260 550 c0 -5 7 -10 16 -10 8 0 12 5 9 10 -3 6 -10 10 -16 10 -5 0
-9 -4 -9 -10z"/>
<path d="M453 553 c4 -3 2 -12 -5 -20 -13 -17 -4 -28 14 -17 7 5 18 9 23 10 6
0 17 2 25 3 10 1 7 6 -10 16 -25 14 -59 21 -47 8z m47 -18 c0 -3 -2 -5 -5 -5
-3 0 -5 2 -5 5 0 3 2 5 5 5 3 0 5 -2 5 -5z"/>
<path d="M580 550 c0 -5 5 -10 10 -10 6 0 10 5 10 10 0 6 -4 10 -10 10 -5 0
-10 -4 -10 -10z"/>
<path d="M900 550 c0 -5 4 -10 9 -10 6 0 13 5 16 10 3 6 -1 10 -9 10 -9 0 -16
-4 -16 -10z"/>
<path d="M640 545 c0 -3 2 -5 5 -5 3 0 5 2 5 5 0 3 -2 5 -5 5 -3 0 -5 -2 -5
-5z"/>
<path d="M589 505 c-1 -3 -2 -8 -3 -13 -2 -12 -46 -57 -46 -46 0 5 -4 2 -9 -6
-6 -8 -7 -18 -4 -23 3 -5 9 -4 13 3 4 7 13 9 19 5 9 -5 7 -11 -6 -21 -17 -13
-17 -14 1 -8 10 4 21 1 26 -7 5 -7 13 -10 17 -5 4 5 2 11 -4 13 -23 8 -13 23
11 17 32 -8 43 22 16 46 -11 9 -17 20 -13 24 3 3 1 6 -6 6 -7 0 -9 5 -6 10 3
6 4 10 1 10 -3 0 -7 -2 -7 -5z m15 -53 c16 -18 15 -19 -13 -20 -28 -1 -29 1
-18 19 14 23 10 23 31 1z"/>
<path d="M580 445 c0 -3 2 -5 5 -5 3 0 5 2 5 5 0 3 -2 5 -5 5 -3 0 -5 -2 -5
-5z"/>
<path d="M0 484 c0 -8 5 -12 10 -9 6 4 8 11 5 16 -9 14 -15 11 -15 -7z"/>
<path d="M264 434 c3 -9 6 -18 6 -20 0 -2 6 -4 14 -4 17 0 41 28 32 37 -4 4
-12 1 -17 -7 -8 -11 -12 -12 -16 -2 -7 18 -26 15 -19 -4z"/>
<path d="M326 432 c-4 -12 -12 -22 -17 -22 -13 0 -11 -12 6 -34 8 -10 19 -15
26 -10 9 5 7 11 -7 22 -18 14 -18 14 3 8 29 -9 35 5 13 33 l-18 24 -6 -21z"/>
<path d="M860 400 c0 -5 7 -7 15 -4 8 4 15 8 15 10 0 2 -7 4 -15 4 -8 0 -15
-4 -15 -10z"/>
<path d="M940 390 c0 -11 -4 -20 -10 -20 -5 0 -10 -5 -10 -11 0 -7 -7 -17 -16
-23 -8 -6 -17 -20 -18 -31 -2 -11 -8 -19 -14 -18 -6 1 -13 -4 -16 -12 -3 -9 0
-12 8 -9 17 7 30 -12 16 -21 -6 -4 -31 5 -55 19 -25 13 -45 20 -45 14 0 -6 -6
-6 -15 2 -18 15 -34 5 -18 -11 8 -8 7 -18 -3 -37 -7 -14 -11 -28 -9 -30 8 -8
32 23 27 36 -2 6 3 12 12 12 9 0 16 4 16 10 0 5 7 7 15 4 8 -4 15 -13 15 -21
0 -10 7 -13 23 -8 13 3 8 -2 -13 -14 -42 -24 -36 -27 13 -6 19 8 37 11 41 8 3
-4 6 1 6 10 0 8 7 23 16 31 8 9 11 16 5 16 -6 0 -11 8 -11 17 0 16 1 16 17 1
13 -14 14 -20 3 -32 -10 -13 -10 -16 3 -16 21 0 46 32 30 37 -7 3 -13 9 -13
14 0 6 4 7 10 4 6 -4 9 15 7 49 -1 31 -5 56 -9 56 -5 0 -8 -9 -8 -20z m10 -49
c0 -10 -6 -21 -14 -24 -9 -4 -13 0 -11 11 2 9 4 20 4 25 2 16 21 6 21 -12z
m-40 -16 c0 -3 -2 -5 -5 -5 -3 0 -5 2 -5 5 0 3 2 5 5 5 3 0 5 -2 5 -5z m-13
-52 c-4 -3 -10 -3 -14 0 -3 4 0 7 7 7 7 0 10 -3 7 -7z"/>
<path d="M456 385 c4 -9 11 -14 16 -13 15 5 11 23 -6 26 -11 2 -14 -2 -10 -13z"/>
<path d="M900 390 c0 -5 5 -10 10 -10 6 0 10 5 10 10 0 6 -4 10 -10 10 -5 0
-10 -4 -10 -10z"/>
<path d="M560 377 c0 -10 8 -17 18 -17 9 0 13 4 7 8 -5 4 -13 11 -17 16 -5 5
-8 2 -8 -7z"/>
<path d="M880 375 c0 -9 -4 -13 -10 -10 -5 3 -10 2 -10 -4 0 -17 20 -23 34 -9
11 11 11 16 -1 26 -10 10 -13 10 -13 -3z"/>
<path d="M293 373 c-7 -3 -13 -12 -13 -21 0 -15 2 -15 17 1 18 18 16 27 -4 20z"/>
<path d="M511 316 c-10 -12 -8 -14 14 -11 31 3 59 25 32 25 -9 0 -17 -4 -17
-10 0 -5 -5 -10 -11 -10 -5 0 -7 5 -4 10 9 15 -1 12 -14 -4z"/>
<path d="M574 308 c-4 -7 -3 -8 4 -4 12 7 16 16 8 16 -3 0 -8 -5 -12 -12z"/>
<path d="M84 301 c3 -5 -2 -12 -12 -16 -16 -6 -16 -7 2 -21 20 -14 16 -18 -19
-15 -15 2 -17 0 -6 -7 11 -8 11 -10 0 -15 -8 -2 -2 -4 13 -3 30 1 62 46 32 46
-8 0 -12 5 -8 11 8 13 52 -30 49 -49 -2 -18 -25 -40 -25 -24 0 7 5 12 11 12 5
0 7 5 4 10 -10 16 -22 12 -28 -10 -3 -13 1 -21 14 -25 48 -15 56 32 14 79 -29
32 -55 50 -41 27z"/>
<path d="M300 274 c0 -8 5 -12 10 -9 6 4 8 11 5 16 -9 14 -15 11 -15 -7z"/>
<path d="M490 285 c0 -3 2 -5 5 -5 3 0 5 2 5 5 0 3 -2 5 -5 5 -3 0 -5 -2 -5
-5z"/>
<path d="M680 245 c0 -3 2 -5 5 -5 3 0 5 2 5 5 0 3 -2 5 -5 5 -3 0 -5 -2 -5
-5z"/>
<path d="M187 197 c-8 -5 -5 -13 12 -27 30 -26 33 -25 53 9 l16 29 -35 -1
c-19 -1 -40 -5 -46 -10z m57 -12 c-4 -8 -14 -15 -23 -15 -14 1 -13 3 3 15 25
19 27 19 20 0z"/>
<path d="M0 164 c0 -13 26 -30 39 -26 9 3 11 0 6 -9 -7 -12 -6 -12 6 0 11 10
11 15 1 18 -6 3 -10 8 -8 12 3 4 -6 8 -20 9 -13 1 -24 -1 -24 -4z"/>
<path d="M440 165 c0 -3 2 -5 5 -5 3 0 5 2 5 5 0 3 -2 5 -5 5 -3 0 -5 -2 -5
-5z"/>
<path d="M127 138 c4 -7 8 -19 9 -26 2 -10 -1 -11 -12 -1 -11 9 -14 8 -14 -5
0 -21 36 -21 44 0 3 8 0 22 -8 30 -18 17 -30 18 -19 2z"/>
<path d="M256 112 c-4 -11 -18 -25 -31 -32 -14 -7 -25 -19 -25 -27 0 -7 -5
-13 -11 -13 -5 0 -7 5 -3 11 4 8 0 8 -15 0 -14 -8 -21 -8 -21 -1 0 5 5 10 11
10 5 0 7 5 3 12 -5 8 -2 9 9 5 10 -3 17 -2 17 4 0 6 3 8 8 6 4 -2 15 4 25 15
9 10 13 18 8 18 -6 0 -13 -5 -17 -11 -3 -6 -17 -8 -30 -5 -17 5 -24 2 -24 -9
0 -8 -5 -15 -10 -15 -6 0 -9 -3 -8 -8 2 -4 -9 -21 -24 -37 -27 -29 -34 -25
-29 14 2 10 -2 10 -19 -2 -22 -15 -55 -13 -45 3 3 4 -2 11 -10 14 -12 4 -13 2
-6 -12 11 -21 45 -62 36 -44 -3 6 -1 12 4 12 18 0 26 -5 24 -12 -4 -12 25 -10
32 2 3 5 15 15 26 20 15 8 19 8 17 -2 -2 -7 -10 -16 -18 -20 -9 -4 -3 -6 15
-5 17 1 36 8 43 17 10 13 12 13 10 0 -2 -8 5 -15 17 -16 13 -1 14 0 3 3 -14 4
-15 9 -6 34 5 16 15 26 21 22 6 -3 7 -1 3 5 -4 7 -3 12 3 12 5 0 13 -4 16 -10
8 -13 25 -13 25 1 0 5 -4 7 -10 4 -5 -3 -10 1 -10 9 0 8 5 18 10 21 13 8 13
25 1 25 -5 0 -12 -8 -15 -18z m-76 -82 c0 -5 -4 -10 -10 -10 -5 0 -10 5 -10
10 0 6 5 10 10 10 6 0 10 -4 10 -10z"/>
<path d="M286 109 c-16 -16 -17 -19 -4 -19 18 0 43 26 31 33 -4 2 -17 -4 -27
-14z"/>
<path d="M707 123 c-4 -3 0 -11 9 -17 13 -10 12 -14 -10 -26 -14 -7 -26 -17
-26 -22 0 -5 9 -4 20 2 16 9 20 8 20 -5 0 -32 16 -13 17 20 1 19 -3 35 -9 35
-5 0 -6 5 -3 10 7 11 -8 14 -18 3z"/>
<path d="M752 114 c2 -10 10 -22 18 -26 11 -5 9 -7 -7 -7 -13 -1 -23 -6 -23
-12 0 -6 9 -8 20 -4 24 8 25 1 3 -25 -16 -18 -19 -18 -40 -5 -13 9 -24 11 -28
5 -3 -5 -12 -7 -21 -3 -8 3 -13 8 -10 10 7 7 -37 42 -46 37 -4 -3 -5 -11 -1
-19 3 -8 0 -15 -6 -15 -6 0 -11 -7 -11 -15 0 -8 -5 -15 -12 -15 -6 0 -9 -2 -6
-5 10 -10 37 7 43 25 5 17 9 16 36 -13 17 -18 28 -26 24 -19 -3 6 -1 12 4 12
18 0 26 -5 24 -12 -5 -14 19 -8 47 12 38 27 42 51 13 85 -19 22 -24 24 -21 9z
m-12 -99 c0 -3 -2 -5 -5 -5 -3 0 -5 2 -5 5 0 3 2 5 5 5 3 0 5 -2 5 -5z"/>
<path d="M929 112 c-23 -25 -31 -52 -15 -52 9 0 12 8 9 23 -4 22 -4 22 12 2
14 -18 14 -21 -2 -32 -9 -7 -13 -13 -7 -13 5 0 1 -5 -9 -11 -9 -6 -15 -14 -12
-20 8 -12 55 -12 55 0 0 5 -10 7 -22 3 l-22 -5 22 30 c25 35 28 53 10 53 -9 0
-9 3 0 12 13 13 16 28 5 27 -5 0 -15 -8 -24 -17z"/>
<path d="M813 113 c-7 -2 -13 -11 -13 -18 0 -17 31 -28 43 -16 7 7 5 12 -6 17
-9 3 -14 10 -11 15 6 10 5 10 -13 2z"/>
<path d="M90 105 c0 -3 2 -5 5 -5 3 0 5 2 5 5 0 3 -2 5 -5 5 -3 0 -5 -2 -5 -5z"/>
<path d="M49 74 c-15 -19 -4 -30 15 -15 8 7 25 9 40 5 16 -4 26 -2 26 5 0 6
-8 11 -17 12 -10 0 -26 2 -35 4 -9 2 -22 -3 -29 -11z"/>
<path d="M796 50 c-5 -14 -9 -30 -11 -36 -4 -16 28 -13 43 5 8 9 11 11 8 4 -4
-6 -3 -14 2 -17 5 -3 9 0 9 7 0 7 3 22 7 35 5 13 3 22 -3 22 -6 0 -11 -7 -11
-15 0 -8 -5 -15 -11 -15 -5 0 -7 5 -3 12 4 6 3 8 -4 4 -5 -3 -12 -1 -14 6 -3
7 -8 1 -12 -12z m24 -20 c0 -5 -4 -10 -10 -10 -5 0 -10 5 -10 10 0 6 5 10 10
10 6 0 10 -4 10 -10z"/>
<path d="M340 55 c0 -3 2 -5 5 -5 3 0 5 2 5 5 0 3 -2 5 -5 5 -3 0 -5 -2 -5 -5z"/>
<path d="M100 45 c0 -3 2 -5 5 -5 3 0 5 2 5 5 0 3 -2 5 -5 5 -3 0 -5 -2 -5 -5z"/>
<path d="M230 40 c-13 -8 -11 -11 7 -16 13 -4 20 -11 16 -17 -4 -6 -1 -7 7 -2
10 6 9 11 -4 21 -16 12 -16 13 1 17 12 3 13 5 3 6 -8 0 -22 -4 -30 -9z"/>
<path d="M630 22 c0 -14 6 -22 16 -22 14 0 15 3 3 18 -7 9 -15 19 -16 21 -2 2
-3 -5 -3 -17z"/>
<path d="M950 35 c0 -3 2 -5 5 -5 3 0 5 2 5 5 0 3 -2 5 -5 5 -3 0 -5 -2 -5 -5z"/>
<path d="M0 10 c0 -5 5 -10 11 -10 5 0 7 5 4 10 -3 6 -8 10 -11 10 -2 0 -4 -4
-4 -10z"/>
<path d="M293 3 c4 -3 10 -3 14 0 3 4 0 7 -7 7 -7 0 -10 -3 -7 -7z"/>
<path d="M440 5 c0 -3 2 -5 5 -5 3 0 5 2 5 5 0 3 -2 5 -5 5 -3 0 -5 -2 -5 -5z"/>
<path d="M543 3 c4 -3 10 -3 14 0 3 4 0 7 -7 7 -7 0 -10 -3 -7 -7z"/>
<path d="M610 5 c0 -3 2 -5 5 -5 3 0 5 2 5 5 0 3 -2 5 -5 5 -3 0 -5 -2 -5 -5z"/>
<path d="M760 5 c0 -3 2 -5 5 -5 3 0 5 2 5 5 0 3 -2 5 -5 5 -3 0 -5 -2 -5 -5z"/>
</g>
<g transform="translate(0.000000,96.000000) scale(0.100000,-0.100000)"
fill="#825432" stroke="none">
<path d="M410 955 c0 -3 2 -5 5 -5 3 0 5 2 5 5 0 3 -2 5 -5 5 -3 0 -5 -2 -5
-5z"/>
<path d="M730 955 c0 -3 2 -5 5 -5 3 0 5 2 5 5 0 3 -2 5 -5 5 -3 0 -5 -2 -5
-5z"/>
<path d="M54 938 c-4 -7 -3 -8 4 -4 12 7 16 16 8 16 -3 0 -8 -5 -12 -12z"/>
<path d="M110 946 c0 -3 9 -10 20 -16 11 -6 20 -8 20 -6 0 3 -9 10 -20 16 -11
6 -20 8 -20 6z"/>
<path d="M175 941 c-4 -7 0 -8 11 -4 11 4 15 3 10 -5 -3 -6 -2 -13 3 -16 5 -4
8 2 7 11 -3 20 -21 28 -31 14z"/>
<path d="M270 945 c0 -3 2 -5 5 -5 3 0 5 2 5 5 0 3 -2 5 -5 5 -3 0 -5 -2 -5
-5z"/>
<path d="M340 945 c0 -3 2 -5 5 -5 3 0 5 2 5 5 0 3 -2 5 -5 5 -3 0 -5 -2 -5
-5z"/>
<path d="M361 936 c-21 -12 -22 -14 -5 -20 10 -4 15 -4 11 0 -4 4 1 13 11 20
22 17 14 17 -17 0z"/>
<path d="M435 939 c6 -9 3 -11 -9 -6 -10 4 -15 3 -11 -4 4 -5 16 -7 27 -3 15
4 18 3 13 -6 -5 -9 -4 -11 3 -6 16 10 15 14 -9 27 -17 9 -20 8 -14 -2z"/>
<path d="M495 941 c-4 -7 0 -8 11 -4 11 4 15 3 10 -5 -3 -6 -2 -13 3 -16 5 -4
8 2 7 11 -3 20 -21 28 -31 14z"/>
<path d="M540 945 c0 -3 2 -5 5 -5 3 0 5 2 5 5 0 3 -2 5 -5 5 -3 0 -5 -2 -5
-5z"/>
<path d="M660 945 c0 -3 2 -5 5 -5 3 0 5 2 5 5 0 3 -2 5 -5 5 -3 0 -5 -2 -5
-5z"/>
<path d="M690 940 c-9 -6 -10 -10 -3 -10 6 0 15 5 18 10 8 12 4 12 -15 0z"/>
<path d="M754 942 c3 -6 1 -12 -6 -14 -7 -3 -5 -7 6 -11 11 -4 15 -3 10 4 -4
8 1 9 17 4 28 -9 24 -3 -10 15 -13 6 -21 7 -17 2z"/>
<path d="M823 943 c4 -3 10 -3 14 0 3 4 0 7 -7 7 -7 0 -10 -3 -7 -7z"/>
<path d="M95 930 c3 -5 8 -10 11 -10 3 0 2 5 -1 10 -3 6 -8 10 -11 10 -3 0 -2
-4 1 -10z"/>
<path d="M250 935 c0 -3 2 -5 5 -5 3 0 5 2 5 5 0 3 -2 5 -5 5 -3 0 -5 -2 -5
-5z"/>
<path d="M616 928 c5 -8 1 -9 -12 -4 -14 5 -16 4 -7 -4 7 -8 17 -9 28 -3 16 9
16 10 1 16 -12 5 -15 3 -10 -5z"/>
<path d="M890 935 c0 -3 2 -5 5 -5 3 0 5 2 5 5 0 3 -2 5 -5 5 -3 0 -5 -2 -5
-5z"/>
<path d="M295 920 c-3 -6 1 -7 9 -4 18 7 21 14 7 14 -6 0 -13 -4 -16 -10z"/>
<path d="M390 925 c0 -3 2 -5 5 -5 3 0 5 2 5 5 0 3 -2 5 -5 5 -3 0 -5 -2 -5
-5z"/>
<path d="M660 925 c0 -3 2 -5 5 -5 3 0 5 2 5 5 0 3 -2 5 -5 5 -3 0 -5 -2 -5
-5z"/>
<path d="M710 925 c0 -3 2 -5 5 -5 3 0 5 2 5 5 0 3 -2 5 -5 5 -3 0 -5 -2 -5
-5z"/>
<path d="M830 925 c0 -3 2 -5 5 -5 3 0 5 2 5 5 0 3 -2 5 -5 5 -3 0 -5 -2 -5
-5z"/>
<path d="M930 920 c-8 -5 -10 -10 -5 -10 6 0 17 5 25 10 8 5 11 10 5 10 -5 0
-17 -5 -25 -10z"/>
<path d="M172 901 c-11 -6 -10 -10 4 -15 9 -3 19 -4 22 -1 3 3 0 5 -7 5 -7 0
-9 5 -6 10 7 12 4 12 -13 1z"/>
<path d="M820 905 c0 -3 2 -5 5 -5 3 0 5 2 5 5 0 3 -2 5 -5 5 -3 0 -5 -2 -5
-5z"/>
<path d="M116 892 c-2 -4 4 -8 14 -8 10 0 16 4 14 8 -3 4 -9 8 -14 8 -5 0 -11
-4 -14 -8z"/>
<path d="M243 893 c4 -3 10 -3 14 0 3 4 0 7 -7 7 -7 0 -10 -3 -7 -7z"/>
<path d="M294 888 c10 -6 22 -6 26 -2 5 5 -3 10 -18 11 -22 1 -24 0 -8 -9z"/>
<path d="M410 895 c0 -3 2 -5 5 -5 3 0 5 2 5 5 0 3 -2 5 -5 5 -3 0 -5 -2 -5
-5z"/>
<path d="M440 890 c0 -5 7 -7 15 -4 8 4 15 8 15 10 0 2 -7 4 -15 4 -8 0 -15
-4 -15 -10z"/>
<path d="M480 896 c0 -2 7 -7 16 -10 8 -3 12 -2 9 4 -6 10 -25 14 -25 6z"/>
<path d="M570 895 c0 -3 2 -5 5 -5 3 0 5 2 5 5 0 3 -2 5 -5 5 -3 0 -5 -2 -5
-5z"/>
<path d="M604 893 c3 -3 22 -7 42 -9 20 -1 33 0 30 3 -3 3 -22 7 -42 9 -20 1
-33 0 -30 -3z"/>
<path d="M730 895 c0 -3 2 -5 5 -5 3 0 5 2 5 5 0 3 -2 5 -5 5 -3 0 -5 -2 -5
-5z"/>
<path d="M760 896 c0 -2 7 -7 16 -10 8 -3 12 -2 9 4 -6 10 -25 14 -25 6z"/>
<path d="M800 895 c0 -3 2 -5 5 -5 3 0 5 2 5 5 0 3 -2 5 -5 5 -3 0 -5 -2 -5
-5z"/>
<path d="M883 893 c4 -3 10 -3 14 0 3 4 0 7 -7 7 -7 0 -10 -3 -7 -7z"/>
<path d="M920 896 c0 -2 7 -7 16 -10 8 -3 12 -2 9 4 -6 10 -25 14 -25 6z"/>
<path d="M30 885 c0 -3 2 -5 5 -5 3 0 5 2 5 5 0 3 -2 5 -5 5 -3 0 -5 -2 -5 -5z"/>
<path d="M220 885 c0 -3 2 -5 5 -5 3 0 5 2 5 5 0 3 -2 5 -5 5 -3 0 -5 -2 -5
-5z"/>
<path d="M340 885 c0 -3 2 -5 5 -5 3 0 5 2 5 5 0 3 -2 5 -5 5 -3 0 -5 -2 -5
-5z"/>
<path d="M380 885 c0 -3 2 -5 5 -5 3 0 5 2 5 5 0 3 -2 5 -5 5 -3 0 -5 -2 -5
-5z"/>
<path d="M540 885 c0 -3 2 -5 5 -5 3 0 5 2 5 5 0 3 -2 5 -5 5 -3 0 -5 -2 -5
-5z"/>
<path d="M703 883 c4 -3 10 -3 14 0 3 4 0 7 -7 7 -7 0 -10 -3 -7 -7z"/>
<path d="M830 885 c0 -3 2 -5 5 -5 3 0 5 2 5 5 0 3 -2 5 -5 5 -3 0 -5 -2 -5
-5z"/>
<path d="M860 885 c0 -3 2 -5 5 -5 3 0 5 2 5 5 0 3 -2 5 -5 5 -3 0 -5 -2 -5
-5z"/>
<path d="M100 865 c0 -3 2 -5 5 -5 3 0 5 2 5 5 0 3 -2 5 -5 5 -3 0 -5 -2 -5
-5z"/>
<path d="M140 865 c0 -3 2 -5 5 -5 3 0 5 2 5 5 0 3 -2 5 -5 5 -3 0 -5 -2 -5
-5z"/>
<path d="M263 863 c4 -3 10 -3 14 0 3 4 0 7 -7 7 -7 0 -10 -3 -7 -7z"/>
<path d="M310 865 c0 -3 2 -5 5 -5 3 0 5 2 5 5 0 3 -2 5 -5 5 -3 0 -5 -2 -5
-5z"/>
<path d="M423 863 c4 -3 10 -3 14 0 3 4 0 7 -7 7 -7 0 -10 -3 -7 -7z"/>
<path d="M475 860 c3 -5 8 -10 11 -10 3 0 2 5 -1 10 -3 6 -8 10 -11 10 -3 0
-2 -4 1 -10z"/>
<path d="M583 863 c4 -3 10 -3 14 0 3 4 0 7 -7 7 -7 0 -10 -3 -7 -7z"/>
<path d="M620 865 c0 -3 2 -5 5 -5 3 0 5 2 5 5 0 3 -2 5 -5 5 -3 0 -5 -2 -5
-5z"/>
<path d="M740 865 c0 -3 2 -5 5 -5 3 0 5 2 5 5 0 3 -2 5 -5 5 -3 0 -5 -2 -5
-5z"/>
<path d="M790 865 c0 -3 2 -5 5 -5 3 0 5 2 5 5 0 3 -2 5 -5 5 -3 0 -5 -2 -5
-5z"/>
<path d="M903 863 c4 -3 10 -3 14 0 3 4 0 7 -7 7 -7 0 -10 -3 -7 -7z"/>
<path d="M943 863 c4 -3 10 -3 14 0 3 4 0 7 -7 7 -7 0 -10 -3 -7 -7z"/>
<path d="M170 855 c0 -3 2 -5 5 -5 3 0 5 2 5 5 0 3 -2 5 -5 5 -3 0 -5 -2 -5
-5z"/>
<path d="M210 855 c0 -3 2 -5 5 -5 3 0 5 2 5 5 0 3 -2 5 -5 5 -3 0 -5 -2 -5
-5z"/>
<path d="M240 855 c0 -3 2 -5 5 -5 3 0 5 2 5 5 0 3 -2 5 -5 5 -3 0 -5 -2 -5
-5z"/>
<path d="M360 855 c0 -3 2 -5 5 -5 3 0 5 2 5 5 0 3 -2 5 -5 5 -3 0 -5 -2 -5
-5z"/>
<path d="M520 855 c0 -3 2 -5 5 -5 3 0 5 2 5 5 0 3 -2 5 -5 5 -3 0 -5 -2 -5
-5z"/>
<path d="M650 855 c0 -3 2 -5 5 -5 3 0 5 2 5 5 0 3 -2 5 -5 5 -3 0 -5 -2 -5
-5z"/>
<path d="M678 834 c-33 -17 -34 -20 -8 -20 10 0 17 2 15 5 -3 2 3 10 13 17 23
18 14 17 -20 -2z"/>
<path d="M20 825 c-14 -8 -21 -14 -15 -14 6 0 21 6 35 14 14 8 21 14 15 14 -5
0 -21 -6 -35 -14z"/>
<path d="M137 830 c14 -15 75 -22 67 -8 -4 5 -13 7 -21 4 -8 -3 -24 -1 -36 5
-18 9 -20 9 -10 -1z"/>
<path d="M210 835 c0 -3 2 -5 5 -5 3 0 5 2 5 5 0 3 -2 5 -5 5 -3 0 -5 -2 -5
-5z"/>
<path d="M277 833 c-3 -5 9 -9 26 -10 26 -1 28 0 12 7 -26 11 -33 12 -38 3z"/>
<path d="M352 831 c-11 -7 -10 -9 3 -14 9 -4 14 -3 10 2 -3 5 1 12 7 14 7 3 9
6 3 6 -5 0 -16 -3 -23 -8z"/>
<path d="M434 829 c-4 -7 -3 -10 4 -6 14 10 43 -3 36 -15 -4 -6 3 -5 15 1 12
7 27 9 33 5 6 -4 8 -3 4 4 -3 5 -3 12 1 15 5 2 1 2 -7 -1 -21 -7 -42 -6 -61 2
-10 4 -20 2 -25 -5z"/>
<path d="M610 830 c8 -5 20 -10 25 -10 6 0 3 5 -5 10 -8 5 -19 10 -25 10 -5 0
-3 -5 5 -10z"/>
<path d="M754 829 c-4 -7 -3 -10 4 -6 14 10 43 -3 36 -15 -4 -6 3 -5 15 1 12
7 27 9 33 5 6 -4 8 -3 4 4 -3 5 -3 12 1 15 5 2 1 2 -7 -1 -21 -7 -42 -6 -61 2
-10 4 -20 2 -25 -5z"/>
<path d="M890 835 c0 -3 2 -5 5 -5 3 0 5 2 5 5 0 3 -2 5 -5 5 -3 0 -5 -2 -5
-5z"/>
<path d="M915 830 c-4 -6 1 -7 11 -3 12 4 15 3 10 -5 -5 -8 -2 -10 9 -5 13 5
14 7 3 14 -17 11 -26 11 -33 -1z"/>
<path d="M100 825 c0 -3 2 -5 5 -5 3 0 5 2 5 5 0 3 -2 5 -5 5 -3 0 -5 -2 -5
-5z"/>
<path d="M560 815 c-14 -8 -20 -14 -14 -15 5 0 19 7 30 15 24 18 16 19 -16 0z"/>
<path d="M70 810 c-9 -6 -10 -10 -3 -10 6 0 15 5 18 10 8 12 4 12 -15 0z"/>
<path d="M230 810 c-9 -6 -10 -10 -3 -10 6 0 15 5 18 10 8 12 4 12 -15 0z"/>
<path d="M390 810 c-8 -5 -10 -10 -5 -10 6 0 17 5 25 10 8 5 11 10 5 10 -5 0
-17 -5 -25 -10z"/>
<path d="M712 811 c-11 -7 -10 -9 3 -14 9 -4 14 -3 10 2 -3 5 1 12 7 14 7 3 9
6 3 6 -5 0 -16 -3 -23 -8z"/>
<path d="M865 810 c-3 -5 -2 -10 4 -10 5 0 13 5 16 10 3 6 2 10 -4 10 -5 0
-13 -4 -16 -10z"/>
<path d="M140 805 c0 -3 2 -5 5 -5 3 0 5 2 5 5 0 3 -2 5 -5 5 -3 0 -5 -2 -5
-5z"/>
<path d="M270 805 c0 -3 2 -5 5 -5 3 0 5 2 5 5 0 3 -2 5 -5 5 -3 0 -5 -2 -5
-5z"/>
<path d="M310 805 c0 -3 2 -5 5 -5 3 0 5 2 5 5 0 3 -2 5 -5 5 -3 0 -5 -2 -5
-5z"/>
<path d="M340 805 c0 -3 2 -5 5 -5 3 0 5 2 5 5 0 3 -2 5 -5 5 -3 0 -5 -2 -5
-5z"/>
<path d="M430 805 c0 -3 2 -5 5 -5 3 0 5 2 5 5 0 3 -2 5 -5 5 -3 0 -5 -2 -5
-5z"/>
<path d="M590 805 c0 -3 2 -5 5 -5 3 0 5 2 5 5 0 3 -2 5 -5 5 -3 0 -5 -2 -5
-5z"/>
<path d="M630 805 c0 -3 2 -5 5 -5 3 0 5 2 5 5 0 3 -2 5 -5 5 -3 0 -5 -2 -5
-5z"/>
<path d="M750 805 c0 -3 2 -5 5 -5 3 0 5 2 5 5 0 3 -2 5 -5 5 -3 0 -5 -2 -5
-5z"/>
<path d="M910 805 c0 -3 2 -5 5 -5 3 0 5 2 5 5 0 3 -2 5 -5 5 -3 0 -5 -2 -5
-5z"/>
<path d="M950 805 c0 -3 2 -5 5 -5 3 0 5 2 5 5 0 3 -2 5 -5 5 -3 0 -5 -2 -5
-5z"/>
<path d="M90 795 c0 -3 2 -5 5 -5 3 0 5 2 5 5 0 3 -2 5 -5 5 -3 0 -5 -2 -5 -5z"/>
<path d="M250 795 c0 -3 2 -5 5 -5 3 0 5 2 5 5 0 3 -2 5 -5 5 -3 0 -5 -2 -5
-5z"/>
<path d="M570 795 c0 -3 2 -5 5 -5 3 0 5 2 5 5 0 3 -2 5 -5 5 -3 0 -5 -2 -5
-5z"/>
<path d="M20 786 c0 -2 7 -7 16 -10 8 -3 12 -2 9 4 -6 10 -25 14 -25 6z"/>
<path d="M180 785 c0 -3 2 -5 5 -5 3 0 5 2 5 5 0 3 -2 5 -5 5 -3 0 -5 -2 -5
-5z"/>
<path d="M220 785 c0 -3 2 -5 5 -5 3 0 5 2 5 5 0 3 -2 5 -5 5 -3 0 -5 -2 -5
-5z"/>
<path d="M275 779 c6 -9 3 -10 -11 -5 -10 4 -15 4 -11 -1 5 -4 22 -8 38 -9 34
-2 34 -2 0 16 -19 10 -22 10 -16 -1z"/>
<path d="M335 780 c-3 -6 1 -7 9 -4 18 7 21 14 7 14 -6 0 -13 -4 -16 -10z"/>
<path d="M500 785 c0 -3 2 -5 5 -5 3 0 5 2 5 5 0 3 -2 5 -5 5 -3 0 -5 -2 -5
-5z"/>
<path d="M592 785 c4 -4 0 -14 -10 -22 -15 -13 -15 -13 5 -4 12 6 30 8 40 4
24 -8 14 1 -17 17 -14 7 -22 9 -18 5z"/>
<path d="M660 786 c0 -2 7 -7 16 -10 8 -3 12 -2 9 4 -6 10 -25 14 -25 6z"/>
<path d="M753 775 c0 -8 7 -11 15 -7 10 3 13 1 8 -6 -5 -8 -2 -10 8 -6 19 7
13 20 -12 26 -11 3 -19 0 -19 -7z"/>
<path d="M814 779 c-3 -5 3 -6 12 -2 11 4 15 3 10 -5 -3 -6 -1 -14 6 -18 7 -4
10 -4 6 1 -4 4 -1 13 7 19 13 9 11 11 -10 12 -14 1 -28 -2 -31 -7z"/>
<path d="M910 778 c0 -7 12 -14 26 -14 28 -2 28 -1 -3 15 -18 9 -23 9 -23 -1z"/>
<path d="M137 769 c7 -7 15 -10 18 -7 3 3 -2 9 -12 12 -14 6 -15 5 -6 -5z"/>
<path d="M194 768 c-4 -7 -3 -8 4 -4 12 7 16 16 8 16 -3 0 -8 -5 -12 -12z"/>
<path d="M370 775 c0 -3 2 -5 5 -5 3 0 5 2 5 5 0 3 -2 5 -5 5 -3 0 -5 -2 -5
-5z"/>
<path d="M453 765 c0 -7 6 -11 14 -8 7 3 13 6 13 8 0 2 -6 5 -13 8 -8 3 -14
-1 -14 -8z"/>
<path d="M512 771 c-11 -7 -11 -9 0 -14 9 -3 15 1 15 9 0 8 -1 14 -1 14 -1 0
-7 -4 -14 -9z"/>
<path d="M875 770 c-3 -6 1 -7 9 -4 18 7 21 14 7 14 -6 0 -13 -4 -16 -10z"/>
<path d="M70 765 c0 -3 2 -5 5 -5 3 0 5 2 5 5 0 3 -2 5 -5 5 -3 0 -5 -2 -5 -5z"/>
<path d="M115 760 c3 -5 8 -10 11 -10 3 0 2 5 -1 10 -3 6 -8 10 -11 10 -3 0
-2 -4 1 -10z"/>
<path d="M390 765 c0 -3 2 -5 5 -5 3 0 5 2 5 5 0 3 -2 5 -5 5 -3 0 -5 -2 -5
-5z"/>
<path d="M430 765 c0 -3 2 -5 5 -5 3 0 5 2 5 5 0 3 -2 5 -5 5 -3 0 -5 -2 -5
-5z"/>
<path d="M550 765 c0 -3 2 -5 5 -5 3 0 5 2 5 5 0 3 -2 5 -5 5 -3 0 -5 -2 -5
-5z"/>
<path d="M710 765 c0 -3 2 -5 5 -5 3 0 5 2 5 5 0 3 -2 5 -5 5 -3 0 -5 -2 -5
-5z"/>
<path d="M690 755 c0 -3 2 -5 5 -5 3 0 5 2 5 5 0 3 -2 5 -5 5 -3 0 -5 -2 -5
-5z"/>
<path d="M380 745 c0 -3 2 -5 5 -5 3 0 5 2 5 5 0 3 -2 5 -5 5 -3 0 -5 -2 -5
-5z"/>
<path d="M15 730 c3 -5 8 -10 11 -10 3 0 2 5 -1 10 -3 6 -8 10 -11 10 -3 0 -2
-4 1 -10z"/>
<path d="M90 735 c0 -3 2 -5 5 -5 3 0 5 2 5 5 0 3 -2 5 -5 5 -3 0 -5 -2 -5 -5z"/>
<path d="M116 732 c-2 -4 4 -8 14 -8 10 0 16 4 14 8 -3 4 -9 8 -14 8 -5 0 -11
-4 -14 -8z"/>
<path d="M178 727 c12 -7 20 -16 16 -19 -3 -4 5 -11 18 -18 22 -11 22 -10 4 4
-11 9 -16 16 -10 16 5 0 0 7 -10 15 -11 8 -25 15 -30 15 -6 -1 -1 -6 12 -13z"/>
<path d="M230 730 c-8 -5 -10 -10 -5 -10 6 0 17 5 25 10 8 5 11 10 5 10 -5 0
-17 -5 -25 -10z"/>
<path d="M280 736 c0 -2 7 -7 16 -10 8 -3 12 -2 9 4 -6 10 -25 14 -25 6z"/>
<path d="M320 735 c0 -3 2 -5 5 -5 3 0 5 2 5 5 0 3 -2 5 -5 5 -3 0 -5 -2 -5
-5z"/>
<path d="M410 735 c0 -3 2 -5 5 -5 3 0 5 2 5 5 0 3 -2 5 -5 5 -3 0 -5 -2 -5
-5z"/>
<path d="M443 733 c4 -3 10 -3 14 0 3 4 0 7 -7 7 -7 0 -10 -3 -7 -7z"/>
<path d="M498 727 c12 -7 20 -16 16 -20 -4 -3 1 -10 11 -13 15 -6 15 -8 -6
-19 -16 -9 -31 -10 -48 -4 -17 7 -28 6 -35 -2 -8 -9 -8 -10 1 -5 7 4 22 2 33
-4 15 -8 27 -7 52 6 30 16 31 17 13 30 -10 8 -15 14 -9 14 5 0 0 7 -10 15 -11
8 -25 15 -30 15 -6 -1 -1 -6 12 -13z"/>
<path d="M570 735 c0 -3 2 -5 5 -5 3 0 5 2 5 5 0 3 -2 5 -5 5 -3 0 -5 -2 -5
-5z"/>
<path d="M610 730 c8 -5 20 -10 25 -10 6 0 3 5 -5 10 -8 5 -19 10 -25 10 -5 0
-3 -5 5 -10z"/>
<path d="M650 735 c0 -3 2 -5 5 -5 3 0 5 2 5 5 0 3 -2 5 -5 5 -3 0 -5 -2 -5
-5z"/>
<path d="M730 735 c0 -3 2 -5 5 -5 3 0 5 2 5 5 0 3 -2 5 -5 5 -3 0 -5 -2 -5
-5z"/>
<path d="M756 732 c-2 -4 4 -9 15 -9 11 -1 17 2 14 8 -7 11 -22 12 -29 1z"/>
<path d="M801 736 c2 -2 15 -9 29 -15 24 -11 24 -11 6 3 -16 13 -49 24 -35 12z"/>
<path d="M890 735 c0 -3 2 -5 5 -5 3 0 5 2 5 5 0 3 -2 5 -5 5 -3 0 -5 -2 -5
-5z"/>
<path d="M917 733 c-3 -5 6 -9 20 -10 19 -1 22 1 12 8 -17 11 -26 11 -32 2z"/>
<path d="M60 725 c0 -3 2 -5 5 -5 3 0 5 2 5 5 0 3 -2 5 -5 5 -3 0 -5 -2 -5 -5z"/>
<path d="M343 723 c4 -3 10 -3 14 0 3 4 0 7 -7 7 -7 0 -10 -3 -7 -7z"/>
<path d="M380 725 c0 -3 2 -5 5 -5 3 0 5 2 5 5 0 3 -2 5 -5 5 -3 0 -5 -2 -5
-5z"/>
<path d="M540 725 c0 -3 2 -5 5 -5 3 0 5 2 5 5 0 3 -2 5 -5 5 -3 0 -5 -2 -5
-5z"/>
<path d="M670 725 c0 -3 2 -5 5 -5 3 0 5 2 5 5 0 3 -2 5 -5 5 -3 0 -5 -2 -5
-5z"/>
<path d="M863 723 c4 -3 10 -3 14 0 3 4 0 7 -7 7 -7 0 -10 -3 -7 -7z"/>
<path d="M100 705 c0 -3 2 -5 5 -5 3 0 5 2 5 5 0 3 -2 5 -5 5 -3 0 -5 -2 -5
-5z"/>
<path d="M140 705 c0 -3 2 -5 5 -5 3 0 5 2 5 5 0 3 -2 5 -5 5 -3 0 -5 -2 -5
-5z"/>
<path d="M263 703 c4 -3 10 -3 14 0 3 4 0 7 -7 7 -7 0 -10 -3 -7 -7z"/>
<path d="M305 700 c27 -12 43 -12 25 0 -8 5 -22 9 -30 9 -10 0 -8 -3 5 -9z"/>
<path d="M423 703 c4 -3 10 -3 14 0 3 4 0 7 -7 7 -7 0 -10 -3 -7 -7z"/>
<path d="M463 703 c4 -3 10 -3 14 0 3 4 0 7 -7 7 -7 0 -10 -3 -7 -7z"/>
<path d="M583 703 c4 -3 10 -3 14 0 3 4 0 7 -7 7 -7 0 -10 -3 -7 -7z"/>
<path d="M620 705 c0 -3 2 -5 5 -5 3 0 5 2 5 5 0 3 -2 5 -5 5 -3 0 -5 -2 -5
-5z"/>
<path d="M740 705 c0 -3 2 -5 5 -5 3 0 5 2 5 5 0 3 -2 5 -5 5 -3 0 -5 -2 -5
-5z"/>
<path d="M790 705 c0 -3 2 -5 5 -5 3 0 5 2 5 5 0 3 -2 5 -5 5 -3 0 -5 -2 -5
-5z"/>
<path d="M903 703 c4 -3 10 -3 14 0 3 4 0 7 -7 7 -7 0 -10 -3 -7 -7z"/>
<path d="M943 703 c4 -3 10 -3 14 0 3 4 0 7 -7 7 -7 0 -10 -3 -7 -7z"/>
<path d="M0 695 c0 -3 2 -5 5 -5 3 0 5 2 5 5 0 3 -2 5 -5 5 -3 0 -5 -2 -5 -5z"/>
<path d="M40 695 c0 -3 2 -5 5 -5 3 0 5 2 5 5 0 3 -2 5 -5 5 -3 0 -5 -2 -5 -5z"/>
<path d="M80 695 c0 -3 2 -5 5 -5 3 0 5 2 5 5 0 3 -2 5 -5 5 -3 0 -5 -2 -5 -5z"/>
<path d="M240 695 c0 -3 2 -5 5 -5 3 0 5 2 5 5 0 3 -2 5 -5 5 -3 0 -5 -2 -5
-5z"/>
<path d="M368 693 c6 -2 9 -10 6 -15 -4 -7 -2 -8 4 -4 18 11 14 26 -5 25 -11
0 -13 -3 -5 -6z"/>
<path d="M400 695 c0 -3 2 -5 5 -5 3 0 5 2 5 5 0 3 -2 5 -5 5 -3 0 -5 -2 -5
-5z"/>
<path d="M490 695 c0 -3 2 -5 5 -5 3 0 5 2 5 5 0 3 -2 5 -5 5 -3 0 -5 -2 -5
-5z"/>
<path d="M560 695 c0 -3 2 -5 5 -5 3 0 5 2 5 5 0 3 -2 5 -5 5 -3 0 -5 -2 -5
-5z"/>
<path d="M643 693 c4 -3 10 -3 14 0 3 4 0 7 -7 7 -7 0 -10 -3 -7 -7z"/>
<path d="M680 696 c0 -2 7 -7 16 -10 8 -3 12 -2 9 4 -6 10 -25 14 -25 6z"/>
<path d="M720 695 c0 -3 2 -5 5 -5 3 0 5 2 5 5 0 3 -2 5 -5 5 -3 0 -5 -2 -5
-5z"/>
<path d="M843 693 c4 -3 10 -3 14 0 3 4 0 7 -7 7 -7 0 -10 -3 -7 -7z"/>
<path d="M874 688 c-4 -7 -3 -8 4 -4 7 4 12 9 12 12 0 8 -9 4 -16 -8z"/>
<path d="M40 675 c0 -3 2 -5 5 -5 3 0 5 2 5 5 0 3 -2 5 -5 5 -3 0 -5 -2 -5 -5z"/>
<path d="M114 668 c-4 -6 -3 -8 4 -5 14 10 43 -3 36 -15 -3 -5 8 -2 25 6 17 9
31 19 31 22 0 2 -8 1 -17 -4 -10 -5 -27 -6 -38 -1 -28 11 -33 11 -41 -3z"/>
<path d="M275 670 c-3 -6 1 -7 9 -4 18 7 21 14 7 14 -6 0 -13 -4 -16 -10z"/>
<path d="M600 675 c0 -3 2 -5 5 -5 3 0 5 2 5 5 0 3 -2 5 -5 5 -3 0 -5 -2 -5
-5z"/>
<path d="M674 668 c-4 -7 -3 -8 4 -4 12 7 16 16 8 16 -3 0 -8 -5 -12 -12z"/>
<path d="M754 669 c-4 -7 -3 -10 4 -6 5 4 18 4 27 1 13 -5 14 -8 3 -15 -27
-18 9 -7 42 12 19 11 26 17 15 13 -25 -9 -46 -9 -66 0 -10 4 -20 2 -25 -5z"/>
<path d="M923 673 c4 -3 10 -3 14 0 3 4 0 7 -7 7 -7 0 -10 -3 -7 -7z"/>
<path d="M0 660 c0 -7 3 -10 7 -7 3 4 3 10 0 14 -4 3 -7 0 -7 -7z"/>
<path d="M20 665 c0 -3 2 -5 5 -5 3 0 5 2 5 5 0 3 -2 5 -5 5 -3 0 -5 -2 -5 -5z"/>
<path d="M315 660 c6 -10 4 -12 -11 -6 -15 6 -17 5 -6 -5 9 -9 15 -10 23 -2 8
8 7 13 -2 18 -8 6 -10 4 -4 -5z"/>
<path d="M343 663 c4 -3 10 -3 14 0 3 4 0 7 -7 7 -7 0 -10 -3 -7 -7z"/>
<path d="M633 655 c0 -8 4 -12 9 -9 5 3 6 10 3 15 -9 13 -12 11 -12 -6z"/>
<path d="M950 665 c0 -3 2 -5 5 -5 3 0 5 2 5 5 0 3 -2 5 -5 5 -3 0 -5 -2 -5
-5z"/>
<path d="M74 648 c-4 -7 -3 -8 4 -4 12 7 16 16 8 16 -3 0 -8 -5 -12 -12z"/>
<path d="M230 650 c-9 -6 -10 -10 -3 -10 6 0 15 5 18 10 8 12 4 12 -15 0z"/>
<path d="M392 651 c-11 -7 -11 -9 0 -14 9 -3 15 1 15 9 0 8 -1 14 -1 14 -1 0
-7 -4 -14 -9z"/>
<path d="M610 655 c0 -3 2 -5 5 -5 3 0 5 2 5 5 0 3 -2 5 -5 5 -3 0 -5 -2 -5
-5z"/>
<path d="M710 650 c-8 -5 -10 -10 -5 -10 6 0 17 5 25 10 8 5 11 10 5 10 -5 0
-17 -5 -25 -10z"/>
<path d="M872 651 c-11 -7 -11 -9 0 -14 9 -3 15 1 15 9 0 8 -1 14 -1 14 -1 0
-7 -4 -14 -9z"/>
<path d="M270 645 c0 -3 2 -5 5 -5 3 0 5 2 5 5 0 3 -2 5 -5 5 -3 0 -5 -2 -5
-5z"/>
<path d="M430 645 c0 -3 2 -5 5 -5 3 0 5 2 5 5 0 3 -2 5 -5 5 -3 0 -5 -2 -5
-5z"/>
<path d="M460 645 c0 -3 2 -5 5 -5 3 0 5 2 5 5 0 3 -2 5 -5 5 -3 0 -5 -2 -5
-5z"/>
<path d="M543 643 c4 -3 10 -3 14 0 3 4 0 7 -7 7 -7 0 -10 -3 -7 -7z"/>
<path d="M590 645 c0 -3 2 -5 5 -5 3 0 5 2 5 5 0 3 -2 5 -5 5 -3 0 -5 -2 -5
-5z"/>
<path d="M910 645 c0 -3 2 -5 5 -5 3 0 5 2 5 5 0 3 -2 5 -5 5 -3 0 -5 -2 -5
-5z"/>
<path d="M90 635 c0 -3 2 -5 5 -5 3 0 5 2 5 5 0 3 -2 5 -5 5 -3 0 -5 -2 -5 -5z"/>
<path d="M570 635 c0 -3 2 -5 5 -5 3 0 5 2 5 5 0 3 -2 5 -5 5 -3 0 -5 -2 -5
-5z"/>
<path d="M14 618 c-4 -7 -3 -8 4 -4 12 7 16 16 8 16 -3 0 -8 -5 -12 -12z"/>
<path d="M44 614 c-18 -14 -18 -15 4 -4 12 6 22 13 22 15 0 8 -5 6 -26 -11z"/>
<path d="M113 615 c0 -8 4 -12 9 -9 5 3 6 10 3 15 -9 13 -12 11 -12 -6z"/>
<path d="M183 623 c4 -3 10 -3 14 0 3 4 0 7 -7 7 -7 0 -10 -3 -7 -7z"/>
<path d="M353 615 c0 -8 4 -12 9 -9 5 3 6 10 3 15 -9 13 -12 11 -12 -6z"/>
<path d="M380 625 c0 -3 2 -5 5 -5 3 0 5 2 5 5 0 3 -2 5 -5 5 -3 0 -5 -2 -5
-5z"/>
<path d="M430 625 c0 -3 2 -5 5 -5 3 0 5 2 5 5 0 3 -2 5 -5 5 -3 0 -5 -2 -5
-5z"/>
<path d="M495 621 c-4 -7 0 -8 11 -4 11 4 15 3 10 -5 -3 -6 -2 -13 3 -16 5 -4
8 2 7 11 -3 20 -21 28 -31 14z"/>
<path d="M590 625 c0 -3 2 -5 5 -5 3 0 5 2 5 5 0 3 -2 5 -5 5 -3 0 -5 -2 -5
-5z"/>
<path d="M660 625 c0 -3 2 -5 5 -5 3 0 5 2 5 5 0 3 -2 5 -5 5 -3 0 -5 -2 -5
-5z"/>
<path d="M684 614 c-18 -14 -18 -15 4 -4 12 6 22 13 22 15 0 8 -5 6 -26 -11z"/>
<path d="M750 614 c0 -8 5 -12 10 -9 6 4 8 11 5 16 -9 14 -15 11 -15 -7z"/>
<path d="M820 625 c0 -3 2 -5 5 -5 3 0 5 2 5 5 0 3 -2 5 -5 5 -3 0 -5 -2 -5
-5z"/>
<path d="M75 610 c-3 -6 1 -7 9 -4 18 7 21 14 7 14 -6 0 -13 -4 -16 -10z"/>
<path d="M210 615 c0 -3 2 -5 5 -5 3 0 5 2 5 5 0 3 -2 5 -5 5 -3 0 -5 -2 -5
-5z"/>
<path d="M294 612 c3 -5 0 -13 -6 -15 -9 -4 -10 -6 -1 -6 17 -1 25 16 12 25
-7 4 -9 3 -5 -4z"/>
<path d="M330 615 c0 -3 2 -5 5 -5 3 0 5 2 5 5 0 3 -2 5 -5 5 -3 0 -5 -2 -5
-5z"/>
<path d="M417 609 c7 -7 15 -10 18 -7 3 3 -2 9 -12 12 -14 6 -15 5 -6 -5z"/>
<path d="M453 605 c0 -8 4 -12 9 -9 5 3 6 10 3 15 -9 13 -12 11 -12 -6z"/>
<path d="M570 615 c0 -3 2 -5 5 -5 3 0 5 2 5 5 0 3 -2 5 -5 5 -3 0 -5 -2 -5
-5z"/>
<path d="M617 609 c7 -7 15 -10 18 -7 3 3 -2 9 -12 12 -14 6 -15 5 -6 -5z"/>
<path d="M730 615 c0 -3 2 -5 5 -5 3 0 5 2 5 5 0 3 -2 5 -5 5 -3 0 -5 -2 -5
-5z"/>
<path d="M834 608 c-4 -7 -3 -8 4 -4 7 4 12 9 12 12 0 8 -9 4 -16 -8z"/>
<path d="M937 609 c7 -7 15 -10 18 -7 3 3 -2 9 -12 12 -14 6 -15 5 -6 -5z"/>
<path d="M140 605 c0 -3 2 -5 5 -5 3 0 5 2 5 5 0 3 -2 5 -5 5 -3 0 -5 -2 -5
-5z"/>
<path d="M190 605 c0 -3 2 -5 5 -5 3 0 5 2 5 5 0 3 -2 5 -5 5 -3 0 -5 -2 -5
-5z"/>
<path d="M260 605 c0 -3 2 -5 5 -5 3 0 5 2 5 5 0 3 -2 5 -5 5 -3 0 -5 -2 -5
-5z"/>
<path d="M774 598 c-4 -7 -3 -8 4 -4 7 4 12 9 12 12 0 8 -9 4 -16 -8z"/>
<path d="M915 600 c3 -5 8 -10 11 -10 3 0 2 5 -1 10 -3 6 -8 10 -11 10 -3 0
-2 -4 1 -10z"/>
<path d="M210 595 c0 -3 2 -5 5 -5 3 0 5 2 5 5 0 3 -2 5 -5 5 -3 0 -5 -2 -5
-5z"/>
<path d="M600 595 c0 -3 2 -5 5 -5 3 0 5 2 5 5 0 3 -2 5 -5 5 -3 0 -5 -2 -5
-5z"/>
<path d="M850 595 c0 -3 2 -5 5 -5 3 0 5 2 5 5 0 3 -2 5 -5 5 -3 0 -5 -2 -5
-5z"/>
<path d="M890 595 c0 -3 2 -5 5 -5 3 0 5 2 5 5 0 3 -2 5 -5 5 -3 0 -5 -2 -5
-5z"/>
<path d="M17 569 c7 -7 15 -10 18 -7 3 3 -2 9 -12 12 -14 6 -15 5 -6 -5z"/>
<path d="M90 575 c0 -3 2 -5 5 -5 3 0 5 2 5 5 0 3 -2 5 -5 5 -3 0 -5 -2 -5 -5z"/>
<path d="M120 576 c0 -2 7 -7 16 -10 8 -3 12 -2 9 4 -6 10 -25 14 -25 6z"/>
<path d="M160 575 c0 -3 2 -5 5 -5 3 0 5 2 5 5 0 3 -2 5 -5 5 -3 0 -5 -2 -5
-5z"/>
<path d="M243 573 c4 -3 10 -3 14 0 3 4 0 7 -7 7 -7 0 -10 -3 -7 -7z"/>
<path d="M298 567 c12 -7 20 -16 17 -19 -4 -3 -2 -9 3 -12 6 -3 9 1 8 10 -3
16 -24 34 -41 33 -5 0 0 -5 13 -12z"/>
<path d="M335 570 c3 -5 8 -10 11 -10 3 0 2 5 -1 10 -3 6 -8 10 -11 10 -3 0
-2 -4 1 -10z"/>
<path d="M410 575 c0 -3 2 -5 5 -5 3 0 5 2 5 5 0 3 -2 5 -5 5 -3 0 -5 -2 -5
-5z"/>
<path d="M436 571 c-4 -5 3 -7 14 -4 23 6 26 13 6 13 -8 0 -17 -4 -20 -9z"/>
<path d="M497 569 c7 -7 15 -10 18 -7 3 3 -2 9 -12 12 -14 6 -15 5 -6 -5z"/>
<path d="M563 573 c4 -3 10 -3 14 0 3 4 0 7 -7 7 -7 0 -10 -3 -7 -7z"/>
<path d="M600 576 c0 -7 40 -14 44 -7 3 4 -6 8 -20 9 -13 1 -24 0 -24 -2z"/>
<path d="M730 575 c0 -3 2 -5 5 -5 3 0 5 2 5 5 0 3 -2 5 -5 5 -3 0 -5 -2 -5
-5z"/>
<path d="M762 574 c8 -7 68 -12 63 -4 -2 4 -18 7 -36 8 -17 0 -29 -1 -27 -4z"/>
<path d="M883 573 c4 -3 10 -3 14 0 3 4 0 7 -7 7 -7 0 -10 -3 -7 -7z"/>
<path d="M930 570 c8 -5 20 -10 25 -10 6 0 3 5 -5 10 -8 5 -19 10 -25 10 -5 0
-3 -5 5 -10z"/>
<path d="M60 565 c0 -3 2 -5 5 -5 3 0 5 2 5 5 0 3 -2 5 -5 5 -3 0 -5 -2 -5 -5z"/>
<path d="M183 563 c4 -3 10 -3 14 0 3 4 0 7 -7 7 -7 0 -10 -3 -7 -7z"/>
<path d="M220 565 c0 -3 2 -5 5 -5 3 0 5 2 5 5 0 3 -2 5 -5 5 -3 0 -5 -2 -5
-5z"/>
<path d="M380 565 c0 -3 2 -5 5 -5 3 0 5 2 5 5 0 3 -2 5 -5 5 -3 0 -5 -2 -5
-5z"/>
<path d="M540 565 c0 -3 2 -5 5 -5 3 0 5 2 5 5 0 3 -2 5 -5 5 -3 0 -5 -2 -5
-5z"/>
<path d="M663 563 c4 -3 10 -3 14 0 3 4 0 7 -7 7 -7 0 -10 -3 -7 -7z"/>
<path d="M700 565 c0 -3 2 -5 5 -5 3 0 5 2 5 5 0 3 -2 5 -5 5 -3 0 -5 -2 -5
-5z"/>
<path d="M860 565 c0 -3 2 -5 5 -5 3 0 5 2 5 5 0 3 -2 5 -5 5 -3 0 -5 -2 -5
-5z"/>
<path d="M0 555 c0 -3 2 -5 5 -5 3 0 5 2 5 5 0 3 -2 5 -5 5 -3 0 -5 -2 -5 -5z"/>
<path d="M103 543 c4 -3 10 -3 14 0 3 4 0 7 -7 7 -7 0 -10 -3 -7 -7z"/>
<path d="M155 540 c3 -5 8 -10 11 -10 3 0 2 5 -1 10 -3 6 -8 10 -11 10 -3 0
-2 -4 1 -10z"/>
<path d="M263 543 c4 -3 10 -3 14 0 3 4 0 7 -7 7 -7 0 -10 -3 -7 -7z"/>
<path d="M423 543 c4 -3 10 -3 14 0 3 4 0 7 -7 7 -7 0 -10 -3 -7 -7z"/>
<path d="M460 546 c0 -2 7 -7 16 -10 8 -3 12 -2 9 4 -6 10 -25 14 -25 6z"/>
<path d="M583 543 c4 -3 10 -3 14 0 3 4 0 7 -7 7 -7 0 -10 -3 -7 -7z"/>
<path d="M620 545 c0 -3 2 -5 5 -5 3 0 5 2 5 5 0 3 -2 5 -5 5 -3 0 -5 -2 -5
-5z"/>
<path d="M740 545 c0 -3 2 -5 5 -5 3 0 5 2 5 5 0 3 -2 5 -5 5 -3 0 -5 -2 -5
-5z"/>
<path d="M790 545 c0 -3 2 -5 5 -5 3 0 5 2 5 5 0 3 -2 5 -5 5 -3 0 -5 -2 -5
-5z"/>
<path d="M903 543 c4 -3 10 -3 14 0 3 4 0 7 -7 7 -7 0 -10 -3 -7 -7z"/>
<path d="M940 545 c0 -3 2 -5 5 -5 3 0 5 2 5 5 0 3 -2 5 -5 5 -3 0 -5 -2 -5
-5z"/>
<path d="M80 535 c0 -3 2 -5 5 -5 3 0 5 2 5 5 0 3 -2 5 -5 5 -3 0 -5 -2 -5 -5z"/>
<path d="M200 535 c0 -3 2 -5 5 -5 3 0 5 2 5 5 0 3 -2 5 -5 5 -3 0 -5 -2 -5
-5z"/>
<path d="M360 535 c0 -3 2 -5 5 -5 3 0 5 2 5 5 0 3 -2 5 -5 5 -3 0 -5 -2 -5
-5z"/>
<path d="M380 535 c0 -3 2 -5 5 -5 3 0 5 2 5 5 0 3 -2 5 -5 5 -3 0 -5 -2 -5
-5z"/>
<path d="M560 535 c0 -3 2 -5 5 -5 3 0 5 2 5 5 0 3 -2 5 -5 5 -3 0 -5 -2 -5
-5z"/>
<path d="M810 535 c0 -3 2 -5 5 -5 3 0 5 2 5 5 0 3 -2 5 -5 5 -3 0 -5 -2 -5
-5z"/>
<path d="M840 535 c0 -3 2 -5 5 -5 3 0 5 2 5 5 0 3 -2 5 -5 5 -3 0 -5 -2 -5
-5z"/>
<path d="M41 516 c-21 -12 -22 -14 -5 -20 10 -4 15 -4 11 0 -4 4 1 13 11 20
22 17 14 17 -17 0z"/>
<path d="M694 518 c-4 -7 -3 -8 4 -4 7 4 12 9 12 12 0 8 -9 4 -16 -8z"/>
<path d="M114 508 c-4 -6 -3 -8 4 -5 15 10 43 -3 35 -16 -4 -6 -1 -7 7 -2 10
6 9 11 -5 22 -23 16 -32 16 -41 1z"/>
<path d="M190 510 c-8 -5 -10 -10 -5 -10 6 0 17 5 25 10 8 5 11 10 5 10 -5 0
-17 -5 -25 -10z"/>
<path d="M250 515 c0 -3 2 -5 5 -5 3 0 5 2 5 5 0 3 -2 5 -5 5 -3 0 -5 -2 -5
-5z"/>
<path d="M274 508 c-4 -6 -3 -8 4 -5 15 10 43 -3 35 -16 -3 -6 -1 -7 6 -3 9 6
9 11 0 22 -14 17 -35 18 -45 2z"/>
<path d="M352 511 c-11 -7 -10 -9 3 -14 9 -4 14 -3 10 2 -3 5 1 12 7 14 7 3 9
6 3 6 -5 0 -16 -3 -23 -8z"/>
<path d="M435 511 c-4 -7 0 -8 10 -5 10 4 15 2 13 -7 -2 -9 4 -13 17 -11 11 2
28 4 37 5 9 1 15 4 12 8 -2 4 -1 9 3 12 5 2 1 2 -7 -1 -21 -7 -42 -6 -61 2
-10 4 -20 3 -24 -3z m42 -18 c-4 -3 -10 -3 -14 0 -3 4 0 7 7 7 7 0 10 -3 7 -7z"/>
<path d="M617 509 c7 -7 15 -10 18 -7 3 3 -2 9 -12 12 -14 6 -15 5 -6 -5z"/>
<path d="M757 513 c-3 -5 2 -10 11 -11 9 -1 31 -3 49 -5 18 -2 30 0 28 4 -3 4
-2 9 2 12 5 2 1 2 -7 -1 -21 -7 -42 -6 -61 2 -10 4 -19 4 -22 -1z"/>
<path d="M917 513 c-3 -5 6 -9 20 -10 19 -1 22 1 12 8 -17 11 -26 11 -32 2z"/>
<path d="M590 505 c0 -3 2 -5 5 -5 3 0 5 2 5 5 0 3 -2 5 -5 5 -3 0 -5 -2 -5
-5z"/>
<path d="M663 503 c4 -3 10 -3 14 0 3 4 0 7 -7 7 -7 0 -10 -3 -7 -7z"/>
<path d="M0 495 c0 -3 2 -5 5 -5 3 0 5 2 5 5 0 3 -2 5 -5 5 -3 0 -5 -2 -5 -5z"/>
<path d="M70 490 c-9 -6 -10 -10 -3 -10 6 0 15 5 18 10 8 12 4 12 -15 0z"/>
<path d="M230 489 c0 -5 5 -7 10 -4 6 3 10 8 10 11 0 2 -4 4 -10 4 -5 0 -10
-5 -10 -11z"/>
<path d="M390 490 c-8 -5 -10 -10 -5 -10 6 0 17 5 25 10 8 5 11 10 5 10 -5 0
-17 -5 -25 -10z"/>
<path d="M550 490 c-9 -6 -10 -10 -3 -10 6 0 15 5 18 10 8 12 4 12 -15 0z"/>
<path d="M715 490 c-3 -6 1 -7 9 -4 18 7 21 14 7 14 -6 0 -13 -4 -16 -10z"/>
<path d="M870 490 c-8 -5 -10 -10 -5 -10 6 0 17 5 25 10 8 5 11 10 5 10 -5 0
-17 -5 -25 -10z"/>
<path d="M110 485 c0 -3 2 -5 5 -5 3 0 5 2 5 5 0 3 -2 5 -5 5 -3 0 -5 -2 -5
-5z"/>
<path d="M270 485 c0 -3 2 -5 5 -5 3 0 5 2 5 5 0 3 -2 5 -5 5 -3 0 -5 -2 -5
-5z"/>
<path d="M430 485 c0 -3 2 -5 5 -5 3 0 5 2 5 5 0 3 -2 5 -5 5 -3 0 -5 -2 -5
-5z"/>
<path d="M590 485 c0 -3 2 -5 5 -5 3 0 5 2 5 5 0 3 -2 5 -5 5 -3 0 -5 -2 -5
-5z"/>
<path d="M630 485 c0 -3 2 -5 5 -5 3 0 5 2 5 5 0 3 -2 5 -5 5 -3 0 -5 -2 -5
-5z"/>
<path d="M750 485 c0 -3 2 -5 5 -5 3 0 5 2 5 5 0 3 -2 5 -5 5 -3 0 -5 -2 -5
-5z"/>
<path d="M910 485 c0 -3 2 -5 5 -5 3 0 5 2 5 5 0 3 -2 5 -5 5 -3 0 -5 -2 -5
-5z"/>
<path d="M950 485 c0 -3 2 -5 5 -5 3 0 5 2 5 5 0 3 -2 5 -5 5 -3 0 -5 -2 -5
-5z"/>
<path d="M28 463 c6 -2 9 -10 6 -15 -4 -7 -2 -8 5 -4 13 9 5 26 -12 25 -9 0
-8 -2 1 -6z"/>
<path d="M197 459 c7 -7 15 -10 18 -7 3 3 -2 9 -12 12 -14 6 -15 5 -6 -5z"/>
<path d="M274 462 c3 -6 0 -12 -6 -14 -7 -3 2 -5 20 -5 17 0 31 1 30 2 -15 12
-49 25 -44 17z"/>
<path d="M340 466 c0 -2 7 -7 16 -10 8 -3 12 -2 9 4 -6 10 -25 14 -25 6z"/>
<path d="M430 465 c0 -3 2 -5 5 -5 3 0 5 2 5 5 0 3 -2 5 -5 5 -3 0 -5 -2 -5
-5z"/>
<path d="M500 465 c0 -3 2 -5 5 -5 3 0 5 2 5 5 0 3 -2 5 -5 5 -3 0 -5 -2 -5
-5z"/>
<path d="M604 456 c11 -9 24 -16 30 -16 12 0 7 5 -24 19 -24 11 -24 11 -6 -3z"/>
<path d="M668 463 c6 -2 9 -10 6 -15 -4 -7 -2 -8 5 -4 13 9 5 26 -12 25 -9 0
-8 -2 1 -6z"/>
<path d="M833 453 c0 -8 6 -9 19 -2 10 5 18 11 18 12 0 2 -8 3 -18 3 -10 0
-19 -6 -19 -13z"/>
<path d="M924 456 c11 -9 24 -16 30 -16 12 0 7 5 -24 19 -24 11 -24 11 -6 -3z"/>
<path d="M135 450 c5 -9 1 -10 -16 -6 -21 6 -22 6 -6 -5 13 -7 22 -8 29 -1 6
6 6 12 -3 17 -8 6 -10 4 -4 -5z"/>
<path d="M410 455 c0 -3 2 -5 5 -5 3 0 5 2 5 5 0 3 -2 5 -5 5 -3 0 -5 -2 -5
-5z"/>
<path d="M455 450 c3 -5 8 -10 11 -10 3 0 2 5 -1 10 -3 6 -8 10 -11 10 -3 0
-2 -4 1 -10z"/>
<path d="M514 448 c-4 -7 -3 -8 4 -4 12 7 16 16 8 16 -3 0 -8 -5 -12 -12z"/>
<path d="M556 452 c-2 -4 4 -8 14 -8 10 0 16 4 14 8 -3 4 -9 8 -14 8 -5 0 -11
-4 -14 -8z"/>
<path d="M755 450 c-4 -6 1 -7 11 -3 12 4 15 3 10 -5 -5 -8 -2 -10 9 -5 13 5
14 7 3 14 -17 11 -26 11 -33 -1z"/>
<path d="M876 452 c-2 -4 4 -8 14 -8 10 0 16 4 14 8 -3 4 -9 8 -14 8 -5 0 -11
-4 -14 -8z"/>
<path d="M70 445 c0 -3 2 -5 5 -5 3 0 5 2 5 5 0 3 -2 5 -5 5 -3 0 -5 -2 -5 -5z"/>
<path d="M390 445 c0 -3 2 -5 5 -5 3 0 5 2 5 5 0 3 -2 5 -5 5 -3 0 -5 -2 -5
-5z"/>
<path d="M710 445 c0 -3 2 -5 5 -5 3 0 5 2 5 5 0 3 -2 5 -5 5 -3 0 -5 -2 -5
-5z"/>
<path d="M50 435 c0 -3 2 -5 5 -5 3 0 5 2 5 5 0 3 -2 5 -5 5 -3 0 -5 -2 -5 -5z"/>
<path d="M200 435 c0 -3 2 -5 5 -5 3 0 5 2 5 5 0 3 -2 5 -5 5 -3 0 -5 -2 -5
-5z"/>
<path d="M370 435 c0 -3 2 -5 5 -5 3 0 5 2 5 5 0 3 -2 5 -5 5 -3 0 -5 -2 -5
-5z"/>
<path d="M440 435 c0 -3 2 -5 5 -5 3 0 5 2 5 5 0 3 -2 5 -5 5 -3 0 -5 -2 -5
-5z"/>
<path d="M530 435 c0 -3 2 -5 5 -5 3 0 5 2 5 5 0 3 -2 5 -5 5 -3 0 -5 -2 -5
-5z"/>
<path d="M690 435 c0 -3 2 -5 5 -5 3 0 5 2 5 5 0 3 -2 5 -5 5 -3 0 -5 -2 -5
-5z"/>
<path d="M850 435 c0 -3 2 -5 5 -5 3 0 5 2 5 5 0 3 -2 5 -5 5 -3 0 -5 -2 -5
-5z"/>
<path d="M330 420 c-8 -5 -24 -7 -35 -4 -11 4 -17 3 -13 -1 4 -4 24 -9 45 -10
21 -2 32 -1 25 2 -6 3 -10 9 -6 14 7 11 3 11 -16 -1z"/>
<path d="M3 413 c4 -3 10 -3 14 0 3 4 0 7 -7 7 -7 0 -10 -3 -7 -7z"/>
<path d="M90 415 c0 -3 2 -5 5 -5 3 0 5 2 5 5 0 3 -2 5 -5 5 -3 0 -5 -2 -5 -5z"/>
<path d="M116 412 c-2 -4 4 -8 14 -8 10 0 16 4 14 8 -3 4 -9 8 -14 8 -5 0 -11
-4 -14 -8z"/>
<path d="M160 415 c0 -3 2 -5 5 -5 3 0 5 2 5 5 0 3 -2 5 -5 5 -3 0 -5 -2 -5
-5z"/>
<path d="M250 415 c0 -3 2 -5 5 -5 3 0 5 2 5 5 0 3 -2 5 -5 5 -3 0 -5 -2 -5
-5z"/>
<path d="M410 415 c0 -3 2 -5 5 -5 3 0 5 2 5 5 0 3 -2 5 -5 5 -3 0 -5 -2 -5
-5z"/>
<path d="M435 410 c-3 -5 -2 -10 4 -10 5 0 13 5 16 10 3 6 2 10 -4 10 -5 0
-13 -4 -16 -10z"/>
<path d="M481 416 c2 -2 15 -9 29 -15 24 -11 24 -11 6 3 -16 13 -49 24 -35 12z"/>
<path d="M570 415 c0 -3 2 -5 5 -5 3 0 5 2 5 5 0 3 -2 5 -5 5 -3 0 -5 -2 -5
-5z"/>
<path d="M601 416 c3 -3 23 -8 44 -11 21 -2 35 -2 32 2 -4 3 -23 8 -44 10 -20
2 -35 2 -32 -1z"/>
<path d="M730 415 c0 -3 2 -5 5 -5 3 0 5 2 5 5 0 3 -2 5 -5 5 -3 0 -5 -2 -5
-5z"/>
<path d="M755 410 c-3 -6 1 -7 10 -4 8 4 23 0 33 -7 15 -13 16 -12 3 4 -15 19
-36 22 -46 7z"/>
<path d="M810 416 c0 -3 9 -10 20 -16 11 -6 20 -8 20 -6 0 3 -9 10 -20 16 -11
6 -20 8 -20 6z"/>
<path d="M930 410 c8 -5 20 -10 25 -10 6 0 3 5 -5 10 -8 5 -19 10 -25 10 -5 0
-3 -5 5 -10z"/>
<path d="M30 405 c0 -3 2 -5 5 -5 3 0 5 2 5 5 0 3 -2 5 -5 5 -3 0 -5 -2 -5 -5z"/>
<path d="M180 406 c0 -2 7 -7 16 -10 8 -3 12 -2 9 4 -6 10 -25 14 -25 6z"/>
<path d="M230 405 c0 -3 2 -5 5 -5 3 0 5 2 5 5 0 3 -2 5 -5 5 -3 0 -5 -2 -5
-5z"/>
<path d="M550 405 c0 -3 2 -5 5 -5 3 0 5 2 5 5 0 3 -2 5 -5 5 -3 0 -5 -2 -5
-5z"/>
<path d="M863 403 c4 -3 10 -3 14 0 3 4 0 7 -7 7 -7 0 -10 -3 -7 -7z"/>
<path d="M100 385 c0 -3 2 -5 5 -5 3 0 5 2 5 5 0 3 -2 5 -5 5 -3 0 -5 -2 -5
-5z"/>
<path d="M150 385 c0 -3 2 -5 5 -5 3 0 5 2 5 5 0 3 -2 5 -5 5 -3 0 -5 -2 -5
-5z"/>
<path d="M263 383 c4 -3 10 -3 14 0 3 4 0 7 -7 7 -7 0 -10 -3 -7 -7z"/>
<path d="M317 379 c7 -7 15 -10 18 -7 3 3 -2 9 -12 12 -14 6 -15 5 -6 -5z"/>
<path d="M404 374 c-18 -14 -18 -14 6 -3 31 14 36 19 24 19 -6 0 -19 -7 -30
-16z"/>
<path d="M463 383 c4 -3 10 -3 14 0 3 4 0 7 -7 7 -7 0 -10 -3 -7 -7z"/>
<path d="M583 383 c4 -3 10 -3 14 0 3 4 0 7 -7 7 -7 0 -10 -3 -7 -7z"/>
<path d="M620 385 c0 -3 2 -5 5 -5 3 0 5 2 5 5 0 3 -2 5 -5 5 -3 0 -5 -2 -5
-5z"/>
<path d="M740 385 c0 -3 2 -5 5 -5 3 0 5 2 5 5 0 3 -2 5 -5 5 -3 0 -5 -2 -5
-5z"/>
<path d="M780 385 c0 -3 2 -5 5 -5 3 0 5 2 5 5 0 3 -2 5 -5 5 -3 0 -5 -2 -5
-5z"/>
<path d="M903 383 c4 -3 10 -3 14 0 3 4 0 7 -7 7 -7 0 -10 -3 -7 -7z"/>
<path d="M940 385 c0 -3 2 -5 5 -5 3 0 5 2 5 5 0 3 -2 5 -5 5 -3 0 -5 -2 -5
-5z"/>
<path d="M0 375 c0 -3 2 -5 5 -5 3 0 5 2 5 5 0 3 -2 5 -5 5 -3 0 -5 -2 -5 -5z"/>
<path d="M43 373 c4 -3 10 -3 14 0 3 4 0 7 -7 7 -7 0 -10 -3 -7 -7z"/>
<path d="M70 375 c0 -3 2 -5 5 -5 3 0 5 2 5 5 0 3 -2 5 -5 5 -3 0 -5 -2 -5 -5z"/>
<path d="M203 373 c4 -3 10 -3 14 0 3 4 0 7 -7 7 -7 0 -10 -3 -7 -7z"/>
<path d="M234 368 c-4 -7 -3 -8 4 -4 12 7 16 16 8 16 -3 0 -8 -5 -12 -12z"/>
<path d="M363 373 c4 -3 10 -3 14 0 3 4 0 7 -7 7 -7 0 -10 -3 -7 -7z"/>
<path d="M490 375 c0 -3 2 -5 5 -5 3 0 5 2 5 5 0 3 -2 5 -5 5 -3 0 -5 -2 -5
-5z"/>
<path d="M528 372 c22 -15 -35 -34 -60 -21 -15 8 -23 8 -32 -2 -8 -9 -8 -10 1
-5 7 4 22 2 33 -4 15 -8 27 -7 50 5 29 15 33 35 7 35 -9 0 -8 -3 1 -8z"/>
<path d="M560 375 c0 -3 2 -5 5 -5 3 0 5 2 5 5 0 3 -2 5 -5 5 -3 0 -5 -2 -5
-5z"/>
<path d="M640 375 c0 -3 2 -5 5 -5 3 0 5 2 5 5 0 3 -2 5 -5 5 -3 0 -5 -2 -5
-5z"/>
<path d="M688 373 c6 -2 9 -10 6 -15 -4 -7 -2 -8 5 -4 13 9 5 26 -12 25 -9 0
-8 -2 1 -6z"/>
<path d="M720 375 c0 -3 2 -5 5 -5 3 0 5 2 5 5 0 3 -2 5 -5 5 -3 0 -5 -2 -5
-5z"/>
<path d="M840 376 c0 -2 7 -7 16 -10 8 -3 12 -2 9 4 -6 10 -25 14 -25 6z"/>
<path d="M880 375 c0 -3 2 -5 5 -5 3 0 5 2 5 5 0 3 -2 5 -5 5 -3 0 -5 -2 -5
-5z"/>
<path d="M21 349 c-13 -5 -21 -12 -18 -15 3 -3 18 1 34 10 31 17 21 20 -16 5z"/>
<path d="M114 349 c-4 -7 -3 -10 4 -6 14 10 43 -3 36 -15 -4 -6 3 -5 15 1 26
14 26 17 4 17 -10 1 -25 4 -34 8 -10 4 -20 2 -25 -5z"/>
<path d="M203 353 c4 -3 10 -3 14 0 3 4 0 7 -7 7 -7 0 -10 -3 -7 -7z"/>
<path d="M283 353 c4 -3 10 -3 14 0 3 4 0 7 -7 7 -7 0 -10 -3 -7 -7z"/>
<path d="M355 351 c-3 -5 -2 -12 3 -15 5 -3 9 1 9 9 0 17 -3 19 -12 6z"/>
<path d="M600 355 c0 -3 2 -5 5 -5 3 0 5 2 5 5 0 3 -2 5 -5 5 -3 0 -5 -2 -5
-5z"/>
<path d="M756 352 c-2 -4 3 -9 12 -10 9 -1 31 -3 48 -5 20 -2 31 1 31 9 0 9
-5 10 -19 3 -12 -6 -25 -6 -37 1 -24 12 -28 12 -35 2z"/>
<path d="M920 355 c0 -3 2 -5 5 -5 3 0 5 2 5 5 0 3 -2 5 -5 5 -3 0 -5 -2 -5
-5z"/>
<path d="M314 342 c3 -5 0 -13 -6 -15 -9 -4 -10 -6 -1 -6 17 -1 25 16 12 25
-7 4 -9 3 -5 -4z"/>
<path d="M633 333 c0 -8 5 -9 19 -2 10 5 24 7 31 3 7 -4 8 -3 4 2 -13 14 -54
12 -54 -3z"/>
<path d="M950 345 c0 -3 2 -5 5 -5 3 0 5 2 5 5 0 3 -2 5 -5 5 -3 0 -5 -2 -5
-5z"/>
<path d="M70 330 c-9 -6 -10 -10 -3 -10 6 0 15 5 18 10 8 12 4 12 -15 0z"/>
<path d="M234 328 c-4 -7 -3 -8 4 -4 7 4 12 9 12 12 0 8 -9 4 -16 -8z"/>
<path d="M714 328 c-4 -7 -3 -8 4 -4 7 4 12 9 12 12 0 8 -9 4 -16 -8z"/>
<path d="M110 325 c0 -3 2 -5 5 -5 3 0 5 2 5 5 0 3 -2 5 -5 5 -3 0 -5 -2 -5
-5z"/>
<path d="M270 325 c0 -3 2 -5 5 -5 3 0 5 2 5 5 0 3 -2 5 -5 5 -3 0 -5 -2 -5
-5z"/>
<path d="M383 323 c4 -3 10 -3 14 0 3 4 0 7 -7 7 -7 0 -10 -3 -7 -7z"/>
<path d="M460 325 c0 -3 2 -5 5 -5 3 0 5 2 5 5 0 3 -2 5 -5 5 -3 0 -5 -2 -5
-5z"/>
<path d="M543 323 c4 -3 10 -3 14 0 3 4 0 7 -7 7 -7 0 -10 -3 -7 -7z"/>
<path d="M780 325 c0 -3 2 -5 5 -5 3 0 5 2 5 5 0 3 -2 5 -5 5 -3 0 -5 -2 -5
-5z"/>
<path d="M863 323 c4 -3 10 -3 14 0 3 4 0 7 -7 7 -7 0 -10 -3 -7 -7z"/>
<path d="M910 325 c0 -3 2 -5 5 -5 3 0 5 2 5 5 0 3 -2 5 -5 5 -3 0 -5 -2 -5
-5z"/>
<path d="M950 325 c0 -3 2 -5 5 -5 3 0 5 2 5 5 0 3 -2 5 -5 5 -3 0 -5 -2 -5
-5z"/>
<path d="M730 315 c0 -3 2 -5 5 -5 3 0 5 2 5 5 0 3 -2 5 -5 5 -3 0 -5 -2 -5
-5z"/>
<path d="M890 315 c0 -3 2 -5 5 -5 3 0 5 2 5 5 0 3 -2 5 -5 5 -3 0 -5 -2 -5
-5z"/>
<path d="M20 305 c0 -3 2 -5 5 -5 3 0 5 2 5 5 0 3 -2 5 -5 5 -3 0 -5 -2 -5 -5z"/>
<path d="M45 297 c-15 -12 -16 -15 -4 -22 8 -5 11 -5 7 0 -4 4 0 14 10 21 23
18 11 18 -13 1z"/>
<path d="M115 299 c6 -9 3 -11 -8 -6 -24 9 -21 0 4 -14 17 -9 20 -8 14 2 -6 9
-3 11 8 6 24 -9 21 0 -4 14 -17 9 -20 8 -14 -2z"/>
<path d="M183 303 c4 -3 10 -3 14 0 3 4 0 7 -7 7 -7 0 -10 -3 -7 -7z"/>
<path d="M335 301 c-7 -12 12 -24 25 -16 11 7 4 25 -10 25 -5 0 -11 -4 -15 -9z
m22 -8 c-4 -3 -10 -3 -14 0 -3 4 0 7 7 7 7 0 10 -3 7 -7z"/>
<path d="M430 305 c0 -3 2 -5 5 -5 3 0 5 2 5 5 0 3 -2 5 -5 5 -3 0 -5 -2 -5
-5z"/>
<path d="M500 305 c0 -3 2 -5 5 -5 3 0 5 2 5 5 0 3 -2 5 -5 5 -3 0 -5 -2 -5
-5z"/>
<path d="M673 295 c0 -8 4 -12 9 -9 5 3 6 10 3 15 -9 13 -12 11 -12 -6z"/>
<path d="M700 305 c0 -3 2 -5 5 -5 3 0 5 2 5 5 0 3 -2 5 -5 5 -3 0 -5 -2 -5
-5z"/>
<path d="M750 305 c0 -3 2 -5 5 -5 3 0 5 2 5 5 0 3 -2 5 -5 5 -3 0 -5 -2 -5
-5z"/>
<path d="M816 302 c-2 -4 4 -8 14 -8 10 0 16 4 14 8 -3 4 -9 8 -14 8 -5 0 -11
-4 -14 -8z"/>
<path d="M922 297 c10 -8 15 -17 11 -21 -4 -4 1 -4 10 0 20 7 20 7 -13 23 -22
11 -23 10 -8 -2z"/>
<path d="M274 288 c-4 -7 -3 -8 4 -4 7 4 12 9 12 12 0 8 -9 4 -16 -8z"/>
<path d="M455 290 c3 -5 8 -10 11 -10 3 0 2 5 -1 10 -3 6 -8 10 -11 10 -3 0
-2 -4 1 -10z"/>
<path d="M617 289 c7 -7 15 -10 18 -7 3 3 -2 9 -12 12 -14 6 -15 5 -6 -5z"/>
<path d="M650 295 c0 -3 2 -5 5 -5 3 0 5 2 5 5 0 3 -2 5 -5 5 -3 0 -5 -2 -5
-5z"/>
<path d="M730 296 c0 -3 9 -10 20 -16 11 -6 20 -8 20 -6 0 3 -9 10 -20 16 -11
6 -20 8 -20 6z"/>
<path d="M890 295 c0 -3 2 -5 5 -5 3 0 5 2 5 5 0 3 -2 5 -5 5 -3 0 -5 -2 -5
-5z"/>
<path d="M70 285 c0 -3 2 -5 5 -5 3 0 5 2 5 5 0 3 -2 5 -5 5 -3 0 -5 -2 -5 -5z"/>
<path d="M190 285 c0 -3 2 -5 5 -5 3 0 5 2 5 5 0 3 -2 5 -5 5 -3 0 -5 -2 -5
-5z"/>
<path d="M300 285 c0 -3 2 -5 5 -5 3 0 5 2 5 5 0 3 -2 5 -5 5 -3 0 -5 -2 -5
-5z"/>
<path d="M390 285 c0 -3 2 -5 5 -5 3 0 5 2 5 5 0 3 -2 5 -5 5 -3 0 -5 -2 -5
-5z"/>
<path d="M423 283 c4 -3 10 -3 14 0 3 4 0 7 -7 7 -7 0 -10 -3 -7 -7z"/>
<path d="M780 285 c0 -3 2 -5 5 -5 3 0 5 2 5 5 0 3 -2 5 -5 5 -3 0 -5 -2 -5
-5z"/>
<path d="M210 275 c0 -3 2 -5 5 -5 3 0 5 2 5 5 0 3 -2 5 -5 5 -3 0 -5 -2 -5
-5z"/>
<path d="M0 256 c0 -2 7 -7 16 -10 8 -3 12 -2 9 4 -6 10 -25 14 -25 6z"/>
<path d="M90 255 c0 -3 2 -5 5 -5 3 0 5 2 5 5 0 3 -2 5 -5 5 -3 0 -5 -2 -5 -5z"/>
<path d="M120 256 c0 -2 7 -7 16 -10 8 -3 12 -2 9 4 -6 10 -25 14 -25 6z"/>
<path d="M170 250 c8 -5 20 -10 25 -10 6 0 3 5 -5 10 -8 5 -19 10 -25 10 -5 0
-3 -5 5 -10z"/>
<path d="M243 253 c4 -3 10 -3 14 0 3 4 0 7 -7 7 -7 0 -10 -3 -7 -7z"/>
<path d="M284 252 c3 -3 19 -6 36 -7 17 -1 28 1 24 4 -3 3 -19 6 -35 7 -17 1
-28 -1 -25 -4z"/>
<path d="M410 255 c0 -3 2 -5 5 -5 3 0 5 2 5 5 0 3 -2 5 -5 5 -3 0 -5 -2 -5
-5z"/>
<path d="M440 256 c0 -2 7 -7 16 -10 8 -3 12 -2 9 4 -6 10 -25 14 -25 6z"/>
<path d="M480 255 c0 -3 2 -5 5 -5 3 0 5 2 5 5 0 3 -2 5 -5 5 -3 0 -5 -2 -5
-5z"/>
<path d="M570 255 c0 -3 2 -5 5 -5 3 0 5 2 5 5 0 3 -2 5 -5 5 -3 0 -5 -2 -5
-5z"/>
<path d="M601 256 c2 -2 15 -9 29 -15 24 -11 24 -11 6 3 -16 13 -49 24 -35 12z"/>
<path d="M655 250 c3 -5 8 -10 11 -10 3 0 2 5 -1 10 -3 6 -8 10 -11 10 -3 0
-2 -4 1 -10z"/>
<path d="M730 255 c0 -3 2 -5 5 -5 3 0 5 2 5 5 0 3 -2 5 -5 5 -3 0 -5 -2 -5
-5z"/>
<path d="M756 251 c-4 -5 3 -7 14 -4 23 6 26 13 6 13 -8 0 -17 -4 -20 -9z"/>
<path d="M890 255 c0 -3 2 -5 5 -5 3 0 5 2 5 5 0 3 -2 5 -5 5 -3 0 -5 -2 -5
-5z"/>
<path d="M930 250 c8 -5 20 -10 25 -10 6 0 3 5 -5 10 -8 5 -19 10 -25 10 -5 0
-3 -5 5 -10z"/>
<path d="M60 245 c0 -3 2 -5 5 -5 3 0 5 2 5 5 0 3 -2 5 -5 5 -3 0 -5 -2 -5 -5z"/>
<path d="M220 245 c0 -3 2 -5 5 -5 3 0 5 2 5 5 0 3 -2 5 -5 5 -3 0 -5 -2 -5
-5z"/>
<path d="M380 245 c0 -3 2 -5 5 -5 3 0 5 2 5 5 0 3 -2 5 -5 5 -3 0 -5 -2 -5
-5z"/>
<path d="M510 245 c0 -3 2 -5 5 -5 3 0 5 2 5 5 0 3 -2 5 -5 5 -3 0 -5 -2 -5
-5z"/>
<path d="M540 245 c0 -3 2 -5 5 -5 3 0 5 2 5 5 0 3 -2 5 -5 5 -3 0 -5 -2 -5
-5z"/>
<path d="M700 245 c0 -3 2 -5 5 -5 3 0 5 2 5 5 0 3 -2 5 -5 5 -3 0 -5 -2 -5
-5z"/>
<path d="M823 243 c4 -3 10 -3 14 0 3 4 0 7 -7 7 -7 0 -10 -3 -7 -7z"/>
<path d="M103 223 c4 -3 10 -3 14 0 3 4 0 7 -7 7 -7 0 -10 -3 -7 -7z"/>
<path d="M140 225 c0 -3 2 -5 5 -5 3 0 5 2 5 5 0 3 -2 5 -5 5 -3 0 -5 -2 -5
-5z"/>
<path d="M263 223 c4 -3 10 -3 14 0 3 4 0 7 -7 7 -7 0 -10 -3 -7 -7z"/>
<path d="M300 225 c0 -3 2 -5 5 -5 3 0 5 2 5 5 0 3 -2 5 -5 5 -3 0 -5 -2 -5
-5z"/>
<path d="M423 223 c4 -3 10 -3 14 0 3 4 0 7 -7 7 -7 0 -10 -3 -7 -7z"/>
<path d="M583 223 c4 -3 10 -3 14 0 3 4 0 7 -7 7 -7 0 -10 -3 -7 -7z"/>
<path d="M620 225 c0 -3 2 -5 5 -5 3 0 5 2 5 5 0 3 -2 5 -5 5 -3 0 -5 -2 -5
-5z"/>
<path d="M743 223 c4 -3 10 -3 14 0 3 4 0 7 -7 7 -7 0 -10 -3 -7 -7z"/>
<path d="M790 225 c0 -3 2 -5 5 -5 3 0 5 2 5 5 0 3 -2 5 -5 5 -3 0 -5 -2 -5
-5z"/>
<path d="M903 223 c4 -3 10 -3 14 0 3 4 0 7 -7 7 -7 0 -10 -3 -7 -7z"/>
<path d="M940 225 c0 -3 2 -5 5 -5 3 0 5 2 5 5 0 3 -2 5 -5 5 -3 0 -5 -2 -5
-5z"/>
<path d="M170 215 c0 -3 2 -5 5 -5 3 0 5 2 5 5 0 3 -2 5 -5 5 -3 0 -5 -2 -5
-5z"/>
<path d="M380 215 c0 -3 2 -5 5 -5 3 0 5 2 5 5 0 3 -2 5 -5 5 -3 0 -5 -2 -5
-5z"/>
<path d="M400 215 c0 -3 2 -5 5 -5 3 0 5 2 5 5 0 3 -2 5 -5 5 -3 0 -5 -2 -5
-5z"/>
<path d="M520 215 c0 -3 2 -5 5 -5 3 0 5 2 5 5 0 3 -2 5 -5 5 -3 0 -5 -2 -5
-5z"/>
<path d="M680 215 c0 -3 2 -5 5 -5 3 0 5 2 5 5 0 3 -2 5 -5 5 -3 0 -5 -2 -5
-5z"/>
<path d="M700 215 c0 -3 2 -5 5 -5 3 0 5 2 5 5 0 3 -2 5 -5 5 -3 0 -5 -2 -5
-5z"/>
<path d="M44 194 c-18 -14 -18 -15 4 -4 12 6 22 13 22 15 0 8 -5 6 -26 -11z"/>
<path d="M130 189 c29 -13 81 -19 75 -8 -3 4 -2 9 2 12 5 2 1 2 -7 -1 -19 -6
-39 -6 -70 2 l-25 7 25 -12z"/>
<path d="M250 195 c0 -3 2 -5 5 -5 3 0 5 2 5 5 0 3 -2 5 -5 5 -3 0 -5 -2 -5
-5z"/>
<path d="M290 190 c8 -5 20 -10 25 -10 6 0 3 5 -5 10 -8 5 -19 10 -25 10 -5 0
-3 -5 5 -10z"/>
<path d="M370 195 c0 -3 2 -5 5 -5 3 0 5 2 5 5 0 3 -2 5 -5 5 -3 0 -5 -2 -5
-5z"/>
<path d="M437 193 c-3 -5 2 -10 11 -11 9 -1 31 -3 49 -5 18 -2 30 0 28 4 -3 4
-2 9 2 12 5 2 1 2 -7 -1 -21 -7 -42 -6 -61 2 -10 4 -19 4 -22 -1z"/>
<path d="M570 195 c0 -3 2 -5 5 -5 3 0 5 2 5 5 0 3 -2 5 -5 5 -3 0 -5 -2 -5
-5z"/>
<path d="M594 188 c-4 -7 -3 -8 4 -4 6 4 22 2 34 -4 22 -11 22 -10 4 4 -24 19
-32 20 -42 4z"/>
<path d="M690 195 c0 -3 2 -5 5 -5 3 0 5 2 5 5 0 3 -2 5 -5 5 -3 0 -5 -2 -5
-5z"/>
<path d="M754 189 c-4 -7 -3 -10 4 -6 5 4 18 4 27 1 13 -5 14 -8 3 -15 -27
-18 9 -7 42 12 19 11 26 17 15 13 -25 -9 -46 -9 -66 0 -10 4 -20 2 -25 -5z"/>
<path d="M890 195 c0 -3 2 -5 5 -5 3 0 5 2 5 5 0 3 -2 5 -5 5 -3 0 -5 -2 -5
-5z"/>
<path d="M917 193 c-3 -5 6 -9 20 -10 19 -1 22 1 12 8 -17 11 -26 11 -32 2z"/>
<path d="M336 182 c-2 -4 4 -8 14 -8 10 0 16 4 14 8 -3 4 -9 8 -14 8 -5 0 -11
-4 -14 -8z"/>
<path d="M660 186 c0 -2 7 -7 16 -10 8 -3 12 -2 9 4 -6 10 -25 14 -25 6z"/>
<path d="M70 170 c-9 -6 -10 -10 -3 -10 6 0 15 5 18 10 8 12 4 12 -15 0z"/>
<path d="M230 170 c-9 -6 -10 -10 -3 -10 6 0 15 5 18 10 8 12 4 12 -15 0z"/>
<path d="M390 170 c-9 -6 -10 -10 -3 -10 6 0 15 5 18 10 8 12 4 12 -15 0z"/>
<path d="M552 171 c-11 -7 -11 -9 0 -14 9 -3 15 1 15 9 0 8 -1 14 -1 14 -1 0
-7 -4 -14 -9z"/>
<path d="M714 168 c-4 -7 -3 -8 4 -4 7 4 12 9 12 12 0 8 -9 4 -16 -8z"/>
<path d="M874 168 c-4 -7 -3 -8 4 -4 7 4 12 9 12 12 0 8 -9 4 -16 -8z"/>
<path d="M20 165 c0 -3 2 -5 5 -5 3 0 5 2 5 5 0 3 -2 5 -5 5 -3 0 -5 -2 -5 -5z"/>
<path d="M110 165 c0 -3 2 -5 5 -5 3 0 5 2 5 5 0 3 -2 5 -5 5 -3 0 -5 -2 -5
-5z"/>
<path d="M140 165 c0 -3 2 -5 5 -5 3 0 5 2 5 5 0 3 -2 5 -5 5 -3 0 -5 -2 -5
-5z"/>
<path d="M750 165 c0 -3 2 -5 5 -5 3 0 5 2 5 5 0 3 -2 5 -5 5 -3 0 -5 -2 -5
-5z"/>
<path d="M910 165 c0 -3 2 -5 5 -5 3 0 5 2 5 5 0 3 -2 5 -5 5 -3 0 -5 -2 -5
-5z"/>
<path d="M950 165 c0 -3 2 -5 5 -5 3 0 5 2 5 5 0 3 -2 5 -5 5 -3 0 -5 -2 -5
-5z"/>
<path d="M23 143 c4 -3 10 -3 14 0 3 4 0 7 -7 7 -7 0 -10 -3 -7 -7z"/>
<path d="M190 145 c0 -3 2 -5 5 -5 3 0 5 2 5 5 0 3 -2 5 -5 5 -3 0 -5 -2 -5
-5z"/>
<path d="M274 142 c3 -6 0 -12 -6 -15 -7 -2 -1 -4 14 -3 34 1 34 2 7 17 -13 6
-19 7 -15 1z"/>
<path d="M340 146 c0 -2 7 -7 16 -10 8 -3 12 -2 9 4 -6 10 -25 14 -25 6z"/>
<path d="M513 135 c0 -7 6 -11 14 -8 7 3 13 6 13 8 0 2 -6 5 -13 8 -8 3 -14
-1 -14 -8z"/>
<path d="M590 145 c0 -3 2 -5 5 -5 3 0 5 2 5 5 0 3 -2 5 -5 5 -3 0 -5 -2 -5
-5z"/>
<path d="M655 140 c-3 -6 1 -7 9 -4 18 7 21 14 7 14 -6 0 -13 -4 -16 -10z"/>
<path d="M814 138 c-4 -7 -3 -8 4 -4 7 4 12 9 12 12 0 8 -9 4 -16 -8z"/>
<path d="M845 137 c-15 -12 -16 -15 -4 -22 8 -5 11 -5 7 0 -4 4 0 14 10 21 23
18 11 18 -13 1z"/>
<path d="M915 139 c6 -9 3 -10 -11 -5 -10 4 -15 4 -11 -1 5 -4 22 -8 38 -9 34
-2 34 -2 0 16 -19 10 -22 10 -16 -1z"/>
<path d="M50 135 c0 -3 2 -5 5 -5 3 0 5 2 5 5 0 3 -2 5 -5 5 -3 0 -5 -2 -5 -5z"/>
<path d="M133 125 c0 -7 6 -11 14 -8 7 3 13 6 13 8 0 2 -6 5 -13 8 -8 3 -14
-1 -14 -8z"/>
<path d="M210 135 c0 -3 2 -5 5 -5 3 0 5 2 5 5 0 3 -2 5 -5 5 -3 0 -5 -2 -5
-5z"/>
<path d="M457 129 c7 -7 15 -10 18 -7 3 3 -2 9 -12 12 -14 6 -15 5 -6 -5z"/>
<path d="M575 130 c3 -5 8 -10 11 -10 3 0 2 5 -1 10 -3 6 -8 10 -11 10 -3 0
-2 -4 1 -10z"/>
<path d="M616 128 c3 -5 10 -6 15 -3 13 9 11 12 -6 12 -8 0 -12 -4 -9 -9z"/>
<path d="M690 135 c0 -3 2 -5 5 -5 3 0 5 2 5 5 0 3 -2 5 -5 5 -3 0 -5 -2 -5
-5z"/>
<path d="M773 125 c0 -7 6 -11 14 -8 7 3 13 6 13 8 0 2 -6 5 -13 8 -8 3 -14
-1 -14 -8z"/>
<path d="M70 125 c0 -3 2 -5 5 -5 3 0 5 2 5 5 0 3 -2 5 -5 5 -3 0 -5 -2 -5 -5z"/>
<path d="M190 125 c0 -3 2 -5 5 -5 3 0 5 2 5 5 0 3 -2 5 -5 5 -3 0 -5 -2 -5
-5z"/>
<path d="M390 125 c0 -3 2 -5 5 -5 3 0 5 2 5 5 0 3 -2 5 -5 5 -3 0 -5 -2 -5
-5z"/>
<path d="M435 120 c3 -5 8 -10 11 -10 3 0 2 5 -1 10 -3 6 -8 10 -11 10 -3 0
-2 -4 1 -10z"/>
<path d="M550 125 c0 -3 2 -5 5 -5 3 0 5 2 5 5 0 3 -2 5 -5 5 -3 0 -5 -2 -5
-5z"/>
<path d="M675 120 c3 -5 8 -10 11 -10 3 0 2 5 -1 10 -3 6 -8 10 -11 10 -3 0
-2 -4 1 -10z"/>
<path d="M710 125 c0 -3 2 -5 5 -5 3 0 5 2 5 5 0 3 -2 5 -5 5 -3 0 -5 -2 -5
-5z"/>
<path d="M750 125 c0 -3 2 -5 5 -5 3 0 5 2 5 5 0 3 -2 5 -5 5 -3 0 -5 -2 -5
-5z"/>
<path d="M360 115 c0 -3 2 -5 5 -5 3 0 5 2 5 5 0 3 -2 5 -5 5 -3 0 -5 -2 -5
-5z"/>
<path d="M60 105 c0 -3 2 -5 5 -5 3 0 5 2 5 5 0 3 -2 5 -5 5 -3 0 -5 -2 -5 -5z"/>
<path d="M540 105 c0 -3 2 -5 5 -5 3 0 5 2 5 5 0 3 -2 5 -5 5 -3 0 -5 -2 -5
-5z"/>
<path d="M0 95 c0 -3 2 -5 5 -5 3 0 5 2 5 5 0 3 -2 5 -5 5 -3 0 -5 -2 -5 -5z"/>
<path d="M128 93 c7 -3 16 -2 19 1 4 3 -2 6 -13 5 -11 0 -14 -3 -6 -6z"/>
<path d="M160 96 c0 -2 7 -7 16 -10 8 -3 12 -2 9 4 -6 10 -25 14 -25 6z"/>
<path d="M250 95 c0 -3 2 -5 5 -5 3 0 5 2 5 5 0 3 -2 5 -5 5 -3 0 -5 -2 -5 -5z"/>
<path d="M284 92 c3 -3 19 -6 36 -7 17 -1 28 1 24 4 -3 3 -19 6 -35 7 -17 1
-28 -1 -25 -4z"/>
<path d="M410 95 c0 -3 2 -5 5 -5 3 0 5 2 5 5 0 3 -2 5 -5 5 -3 0 -5 -2 -5 -5z"/>
<path d="M440 96 c0 -2 7 -7 16 -10 8 -3 12 -2 9 4 -6 10 -25 14 -25 6z"/>
<path d="M480 95 c0 -3 2 -5 5 -5 3 0 5 2 5 5 0 3 -2 5 -5 5 -3 0 -5 -2 -5 -5z"/>
<path d="M600 96 c0 -2 7 -7 16 -10 8 -3 12 -2 9 4 -6 10 -25 14 -25 6z"/>
<path d="M657 89 c7 -7 15 -10 18 -7 3 3 -2 9 -12 12 -14 6 -15 5 -6 -5z"/>
<path d="M730 95 c0 -3 2 -5 5 -5 3 0 5 2 5 5 0 3 -2 5 -5 5 -3 0 -5 -2 -5 -5z"/>
<path d="M760 96 c0 -2 7 -7 16 -10 8 -3 12 -2 9 4 -6 10 -25 14 -25 6z"/>
<path d="M810 90 c8 -5 20 -10 25 -10 6 0 3 5 -5 10 -8 5 -19 10 -25 10 -5 0
-3 -5 5 -10z"/>
<path d="M890 95 c0 -3 2 -5 5 -5 3 0 5 2 5 5 0 3 -2 5 -5 5 -3 0 -5 -2 -5 -5z"/>
<path d="M937 89 c7 -7 15 -10 18 -7 3 3 -2 9 -12 12 -14 6 -15 5 -6 -5z"/>
<path d="M23 83 c4 -3 10 -3 14 0 3 4 0 7 -7 7 -7 0 -10 -3 -7 -7z"/>
<path d="M60 85 c0 -3 2 -5 5 -5 3 0 5 2 5 5 0 3 -2 5 -5 5 -3 0 -5 -2 -5 -5z"/>
<path d="M230 85 c0 -3 2 -5 5 -5 3 0 5 2 5 5 0 3 -2 5 -5 5 -3 0 -5 -2 -5 -5z"/>
<path d="M390 85 c0 -3 2 -5 5 -5 3 0 5 2 5 5 0 3 -2 5 -5 5 -3 0 -5 -2 -5 -5z"/>
<path d="M510 85 c0 -3 2 -5 5 -5 3 0 5 2 5 5 0 3 -2 5 -5 5 -3 0 -5 -2 -5 -5z"/>
<path d="M543 83 c4 -3 10 -3 14 0 3 4 0 7 -7 7 -7 0 -10 -3 -7 -7z"/>
<path d="M710 85 c0 -3 2 -5 5 -5 3 0 5 2 5 5 0 3 -2 5 -5 5 -3 0 -5 -2 -5 -5z"/>
<path d="M863 83 c4 -3 10 -3 14 0 3 4 0 7 -7 7 -7 0 -10 -3 -7 -7z"/>
<path d="M910 85 c0 -3 2 -5 5 -5 3 0 5 2 5 5 0 3 -2 5 -5 5 -3 0 -5 -2 -5 -5z"/>
<path d="M103 63 c4 -3 10 -3 14 0 3 4 0 7 -7 7 -7 0 -10 -3 -7 -7z"/>
<path d="M150 65 c0 -3 2 -5 5 -5 3 0 5 2 5 5 0 3 -2 5 -5 5 -3 0 -5 -2 -5 -5z"/>
<path d="M230 65 c0 -3 2 -5 5 -5 3 0 5 2 5 5 0 3 -2 5 -5 5 -3 0 -5 -2 -5 -5z"/>
<path d="M263 63 c4 -3 10 -3 14 0 3 4 0 7 -7 7 -7 0 -10 -3 -7 -7z"/>
<path d="M300 65 c0 -3 2 -5 5 -5 3 0 5 2 5 5 0 3 -2 5 -5 5 -3 0 -5 -2 -5 -5z"/>
<path d="M420 65 c0 -3 2 -5 5 -5 3 0 5 2 5 5 0 3 -2 5 -5 5 -3 0 -5 -2 -5 -5z"/>
<path d="M460 65 c0 -3 2 -5 5 -5 3 0 5 2 5 5 0 3 -2 5 -5 5 -3 0 -5 -2 -5 -5z"/>
<path d="M583 63 c4 -3 10 -3 14 0 3 4 0 7 -7 7 -7 0 -10 -3 -7 -7z"/>
<path d="M630 60 c8 -5 20 -10 25 -10 6 0 3 5 -5 10 -8 5 -19 10 -25 10 -5 0
-3 -5 5 -10z"/>
<path d="M730 60 c-8 -5 -10 -10 -5 -10 6 0 17 5 25 10 8 5 11 10 5 10 -5 0
-17 -5 -25 -10z"/>
<path d="M780 65 c0 -3 2 -5 5 -5 3 0 5 2 5 5 0 3 -2 5 -5 5 -3 0 -5 -2 -5 -5z"/>
<path d="M875 60 c3 -5 8 -10 11 -10 3 0 2 5 -1 10 -3 6 -8 10 -11 10 -3 0 -2
-4 1 -10z"/>
<path d="M903 63 c4 -3 10 -3 14 0 3 4 0 7 -7 7 -7 0 -10 -3 -7 -7z"/>
<path d="M950 65 c0 -3 2 -5 5 -5 3 0 5 2 5 5 0 3 -2 5 -5 5 -3 0 -5 -2 -5 -5z"/>
<path d="M10 55 c0 -3 2 -5 5 -5 3 0 5 2 5 5 0 3 -2 5 -5 5 -3 0 -5 -2 -5 -5z"/>
<path d="M43 53 c4 -3 10 -3 14 0 3 4 0 7 -7 7 -7 0 -10 -3 -7 -7z"/>
<path d="M74 48 c-4 -7 -3 -8 4 -4 7 4 12 9 12 12 0 8 -9 4 -16 -8z"/>
<path d="M203 53 c4 -3 10 -3 14 0 3 4 0 7 -7 7 -7 0 -10 -3 -7 -7z"/>
<path d="M320 55 c0 -3 2 -5 5 -5 3 0 5 2 5 5 0 3 -2 5 -5 5 -3 0 -5 -2 -5 -5z"/>
<path d="M370 55 c0 -3 2 -5 5 -5 3 0 5 2 5 5 0 3 -2 5 -5 5 -3 0 -5 -2 -5 -5z"/>
<path d="M394 48 c-4 -7 -3 -8 4 -4 7 4 12 9 12 12 0 8 -9 4 -16 -8z"/>
<path d="M490 55 c0 -3 2 -5 5 -5 3 0 5 2 5 5 0 3 -2 5 -5 5 -3 0 -5 -2 -5 -5z"/>
<path d="M520 55 c0 -3 2 -5 5 -5 3 0 5 2 5 5 0 3 -2 5 -5 5 -3 0 -5 -2 -5 -5z"/>
<path d="M680 55 c0 -3 2 -5 5 -5 3 0 5 2 5 5 0 3 -2 5 -5 5 -3 0 -5 -2 -5 -5z"/>
<path d="M800 55 c0 -3 2 -5 5 -5 3 0 5 2 5 5 0 3 -2 5 -5 5 -3 0 -5 -2 -5 -5z"/>
<path d="M843 53 c4 -3 10 -3 14 0 3 4 0 7 -7 7 -7 0 -10 -3 -7 -7z"/>
<path d="M540 45 c0 -3 2 -5 5 -5 3 0 5 2 5 5 0 3 -2 5 -5 5 -3 0 -5 -2 -5 -5z"/>
<path d="M694 38 c-4 -7 -3 -8 4 -4 7 4 12 9 12 12 0 8 -9 4 -16 -8z"/>
<path d="M50 35 c0 -3 2 -5 5 -5 3 0 5 2 5 5 0 3 -2 5 -5 5 -3 0 -5 -2 -5 -5z"/>
<path d="M114 29 c-4 -8 -3 -10 4 -5 6 4 21 2 33 -4 12 -7 25 -8 30 -3 5 5 1
9 -9 9 -9 1 -24 4 -33 8 -10 4 -20 2 -25 -5z"/>
<path d="M200 35 c0 -3 2 -5 5 -5 3 0 5 2 5 5 0 3 -2 5 -5 5 -3 0 -5 -2 -5 -5z"/>
<path d="M290 35 c0 -3 2 -5 5 -5 3 0 5 2 5 5 0 3 -2 5 -5 5 -3 0 -5 -2 -5 -5z"/>
<path d="M370 35 c0 -3 2 -5 5 -5 3 0 5 2 5 5 0 3 -2 5 -5 5 -3 0 -5 -2 -5 -5z"/>
<path d="M434 29 c-4 -8 -3 -10 4 -5 6 4 21 2 33 -4 12 -7 25 -8 30 -3 5 5 1
9 -9 9 -9 1 -24 4 -33 8 -10 4 -20 2 -25 -5z"/>
<path d="M520 35 c0 -3 2 -5 5 -5 3 0 5 2 5 5 0 3 -2 5 -5 5 -3 0 -5 -2 -5 -5z"/>
<path d="M603 33 c4 -3 10 -3 14 0 3 4 0 7 -7 7 -7 0 -10 -3 -7 -7z"/>
<path d="M754 29 c-4 -8 -3 -10 4 -5 6 4 21 2 33 -4 12 -7 25 -8 30 -3 5 5 1
9 -9 9 -9 1 -24 4 -33 8 -10 4 -20 2 -25 -5z"/>
<path d="M840 35 c0 -3 2 -5 5 -5 3 0 5 2 5 5 0 3 -2 5 -5 5 -3 0 -5 -2 -5 -5z"/>
<path d="M930 35 c0 -3 2 -5 5 -5 3 0 5 2 5 5 0 3 -2 5 -5 5 -3 0 -5 -2 -5 -5z"/>
<path d="M30 25 c0 -3 2 -5 5 -5 3 0 5 2 5 5 0 3 -2 5 -5 5 -3 0 -5 -2 -5 -5z"/>
<path d="M320 20 c0 -7 3 -10 7 -7 3 4 3 10 0 14 -4 3 -7 0 -7 -7z"/>
<path d="M350 25 c0 -3 2 -5 5 -5 3 0 5 2 5 5 0 3 -2 5 -5 5 -3 0 -5 -2 -5 -5z"/>
<path d="M633 15 c0 -8 4 -12 9 -9 5 3 6 10 3 15 -9 13 -12 11 -12 -6z"/>
<path d="M663 23 c4 -3 10 -3 14 0 3 4 0 7 -7 7 -7 0 -10 -3 -7 -7z"/>
<path d="M910 25 c0 -3 2 -5 5 -5 3 0 5 2 5 5 0 3 -2 5 -5 5 -3 0 -5 -2 -5 -5z"/>
<path d="M0 15 c0 -3 2 -5 5 -5 3 0 5 2 5 5 0 3 -2 5 -5 5 -3 0 -5 -2 -5 -5z"/>
<path d="M74 8 c-4 -7 -3 -8 4 -4 7 4 12 9 12 12 0 8 -9 4 -16 -8z"/>
<path d="M394 8 c-4 -7 -3 -8 4 -4 7 4 12 9 12 12 0 8 -9 4 -16 -8z"/>
<path d="M714 8 c-4 -7 -3 -8 4 -4 12 7 16 16 8 16 -3 0 -8 -5 -12 -12z"/>
<path d="M870 10 c-9 -6 -10 -10 -3 -10 6 0 15 5 18 10 8 12 4 12 -15 0z"/>
<path d="M140 5 c0 -3 2 -5 5 -5 3 0 5 2 5 5 0 3 -2 5 -5 5 -3 0 -5 -2 -5 -5z"/>
<path d="M223 3 c4 -3 10 -3 14 0 3 4 0 7 -7 7 -7 0 -10 -3 -7 -7z"/>
<path d="M300 5 c0 -3 2 -5 5 -5 3 0 5 2 5 5 0 3 -2 5 -5 5 -3 0 -5 -2 -5 -5z"/>
<path d="M543 3 c4 -3 10 -3 14 0 3 4 0 7 -7 7 -7 0 -10 -3 -7 -7z"/>
<path d="M780 5 c0 -3 2 -5 5 -5 3 0 5 2 5 5 0 3 -2 5 -5 5 -3 0 -5 -2 -5 -5z"/>
<path d="M910 5 c0 -3 2 -5 5 -5 3 0 5 2 5 5 0 3 -2 5 -5 5 -3 0 -5 -2 -5 -5z"/>
<path d="M943 3 c4 -3 10 -3 14 0 3 4 0 7 -7 7 -7 0 -10 -3 -7 -7z"/>
</g>
  </g>
</svg>
