<?xml version="1.0" encoding="UTF-8" standalone="no"?>
<!-- Created with Inkscape (http://www.inkscape.org/) -->

<svg
   xmlns:dc="http://purl.org/dc/elements/1.1/"
   xmlns:cc="http://creativecommons.org/ns#"
   xmlns:rdf="http://www.w3.org/1999/02/22-rdf-syntax-ns#"
   xmlns:svg="http://www.w3.org/2000/svg"
   xmlns="http://www.w3.org/2000/svg"
   xmlns:sodipodi="http://sodipodi.sourceforge.net/DTD/sodipodi-0.dtd"
   xmlns:inkscape="http://www.inkscape.org/namespaces/inkscape"
   width="32px"
   height="32px"
   viewBox="0 0 32px 32px"
   version="1.1"
   id="svgMain"
   inkscape:version="0.92.2 (5c3e80d, 2017-08-06)"
   sodipodi:docname="reference_SVG.svg">
  <defs
     id="defs4542" />
  <sodipodi:namedview
     id="base"
     pagecolor="#ffffff"
     bordercolor="#666666"
     borderopacity="1.0"
     inkscape:pageopacity="0.0"
     inkscape:pageshadow="2"
     inkscape:zoom="1"
     inkscape:cx="0"
     inkscape:cy="0"
     inkscape:document-units="px"
     inkscape:current-layer="layer1"
     showgrid="false"
     units="px"
     inkscape:window-width="1024"
     inkscape:window-height="768"
     inkscape:window-x="-8"
     inkscape:window-y="-8"
     inkscape:window-maximized="1" />
  <metadata
     id="metadata1">
    <rdf:RDF>
      <cc:Work
         rdf:about="">
        <dc:format>image/svg+xml</dc:format>
        <dc:type
           rdf:resource="http://purl.org/dc/dcmitype/StillImage" />
        <dc:title />
      </cc:Work>
    </rdf:RDF>
  </metadata>
  <g transform="translate(-32,-32)"
     inkscape:label="Layer 1"
     inkscape:groupmode="layer"
     id="layer1">
    <!-- INSERT MARKER -->
<g transform="translate(0.000000,96.000000) scale(0.100000,-0.100000)"
fill="#92938c" stroke="none">
<path d="M0 480 l0 -480 480 0 480 0 0 480 0 480 -480 0 -480 0 0 -480z"/>
</g>
<g transform="translate(0.000000,96.000000) scale(0.100000,-0.100000)"
fill="#84847b" stroke="none">
<path d="M23 950 c16 -5 36 -6 45 -4 13 5 13 2 -2 -10 -11 -9 -16 -16 -10 -16
11 0 -17 -20 -29 -20 -5 0 -5 5 -2 10 3 6 2 10 -4 10 -5 0 -13 -4 -16 -10 -3
-5 0 -10 7 -10 9 0 9 -3 -2 -10 -10 -6 -11 -10 -2 -10 6 0 12 -7 12 -15 0 -8
4 -15 8 -15 5 0 9 7 9 15 0 8 -5 15 -11 15 -6 0 -4 5 4 10 8 5 20 10 25 10 6
0 3 -5 -5 -10 -13 -9 -13 -10 0 -10 13 0 13 -1 0 -10 -12 -8 -9 -9 12 -8 15 1
30 8 33 16 3 9 -1 12 -13 8 -12 -4 -19 -1 -19 8 0 10 10 13 33 11 19 -1 31 2
28 7 -3 5 -14 6 -23 3 -12 -3 -18 0 -18 10 0 8 5 15 11 15 32 1 -21 17 -57 18
-38 0 -39 0 -14 -8z m57 -25 c0 -3 -2 -5 -5 -5 -3 0 -5 2 -5 5 0 3 2 5 5 5 3
0 5 -2 5 -5z"/>
<path d="M117 947 c3 -4 11 -6 18 -3 7 2 16 -2 19 -10 3 -8 1 -14 -4 -14 -6 0
-10 -5 -10 -11 0 -5 4 -8 8 -5 4 2 14 1 21 -3 9 -6 4 -11 -17 -19 -17 -6 -34
-7 -39 -4 -4 4 -5 3 0 -2 4 -5 17 -10 30 -11 12 -1 29 -5 38 -9 10 -5 16 -2
16 9 0 11 -7 14 -21 10 -18 -5 -19 -4 -4 5 21 13 56 2 36 -12 -9 -7 -7 -9 8
-5 12 2 21 -1 21 -8 0 -7 -16 -11 -44 -11 -23 1 -43 4 -43 8 0 9 -52 4 -69 -6
-14 -9 -14 -26 0 -26 5 0 8 4 4 9 -7 13 25 19 50 10 11 -3 35 -5 52 -4 18 1
31 0 29 -4 -3 -4 4 -7 14 -7 10 0 17 3 14 7 -5 8 75 17 82 9 3 -3 10 -5 16 -5
6 0 12 -8 14 -17 3 -21 0 -22 -28 -7 -16 9 -19 8 -13 -2 6 -8 4 -11 -6 -7 -8
3 -23 9 -34 13 l-20 8 20 -17 c15 -12 15 -14 4 -10 -10 3 -20 1 -23 -4 -3 -5
19 -7 52 -5 56 3 57 3 29 -12 -15 -9 -33 -13 -39 -9 -6 4 -8 3 -5 -3 4 -5 -6
-10 -23 -10 -16 0 -27 3 -25 7 2 3 -5 6 -15 6 -10 0 -17 -3 -14 -7 2 -4 -3
-10 -12 -13 -23 -9 -23 -8 -19 14 3 16 0 18 -13 12 -15 -8 -48 -9 -87 -3 -5 1
-4 5 4 10 7 5 40 8 72 7 69 -3 90 6 54 22 -16 7 -25 8 -25 1 0 -6 -8 -6 -21 2
-12 6 -19 7 -15 1 3 -5 -1 -13 -10 -16 -22 -8 -26 -8 -19 3 3 5 0 13 -6 17 -8
4 -9 3 -5 -4 4 -7 4 -12 -1 -13 -39 -5 -72 -6 -69 0 2 3 -7 7 -20 7 -13 1 -24
-2 -24 -7 0 -9 27 -13 61 -11 9 1 16 -5 16 -14 0 -10 -7 -12 -21 -8 -16 4 -18
3 -6 -5 12 -9 12 -11 -3 -17 -9 -3 -14 -11 -11 -16 4 -6 -2 -8 -17 -3 -19 5
-21 4 -9 -4 13 -10 13 -11 0 -11 -12 -1 -12 -2 2 -10 10 -6 26 -7 40 -1 13 4
44 8 70 7 25 -1 44 2 41 7 -6 10 9 9 26 -2 11 -7 9 -10 -8 -16 -19 -6 -31 -27
-13 -24 19 3 29 -2 29 -16 0 -9 -5 -14 -11 -11 -6 2 -20 7 -31 11 -16 6 -17 5
-5 -4 30 -21 -8 -10 -56 16 -33 18 -45 22 -35 10 7 -9 21 -17 30 -17 15 -1 14
-1 -1 -10 -18 -11 -51 -3 -43 11 6 9 -34 33 -42 25 -3 -3 3 -9 13 -13 27 -11
31 -36 4 -28 -11 4 -20 2 -20 -4 0 -11 26 -16 62 -13 23 2 19 -20 -7 -35 -29
-18 -34 -16 -30 10 4 21 4 21 -10 3 -11 -14 -12 -22 -4 -27 8 -4 7 -8 -2 -12
-10 -4 -10 -6 -1 -6 6 -1 12 -8 12 -16 0 -8 -6 -15 -12 -15 -7 -1 -4 -6 7 -13
28 -17 32 -40 5 -32 -11 4 -20 2 -20 -4 0 -10 25 -16 61 -13 9 1 16 -5 16 -14
0 -10 -7 -12 -21 -8 -15 4 -17 3 -8 -4 11 -7 10 -10 -3 -16 -9 -3 -13 -11 -9
-17 4 -8 -1 -9 -17 -4 -19 5 -21 4 -9 -4 13 -10 13 -11 0 -11 -9 -1 -6 -6 10
-16 24 -14 24 -15 3 -11 -13 3 -23 1 -23 -4 0 -5 8 -9 18 -9 10 0 19 -7 19
-15 0 -10 -6 -13 -19 -9 -11 3 -18 0 -18 -8 0 -10 22 -13 85 -14 47 0 85 3 85
7 0 5 7 6 15 3 8 -4 13 -10 10 -14 -3 -5 0 -12 6 -16 8 -4 9 -3 5 4 -4 7 -2
12 3 12 17 0 13 -27 -5 -34 -22 -8 -26 -8 -19 3 3 5 1 12 -5 16 -5 3 -10 3
-10 -2 0 -4 -20 -8 -45 -9 -24 0 -42 2 -40 6 2 3 -5 6 -15 6 -10 0 -17 -3 -14
-7 2 -4 -3 -10 -12 -13 -23 -9 -23 -8 -19 14 2 12 0 18 -6 15 -5 -4 -7 -11 -4
-16 4 -5 0 -9 -7 -9 -9 0 -9 -3 2 -10 13 -9 13 -10 0 -10 -9 0 -11 -3 -5 -8
14 -10 17 -32 4 -32 -5 0 -7 -4 -4 -10 3 -5 12 -10 19 -10 15 0 16 41 1 53 -6
5 -3 7 8 3 9 -3 17 -2 17 2 0 8 33 13 80 14 48 0 55 -4 25 -17 -19 -8 -36 -10
-47 -4 -10 5 -27 5 -42 -1 -33 -12 -33 -20 -1 -18 14 1 25 6 25 11 0 4 8 3 18
-2 14 -7 32 -4 68 13 28 13 64 22 84 20 32 -2 34 -1 16 12 -11 8 -25 14 -30
14 -6 0 -4 -5 4 -11 10 -7 11 -9 2 -7 -8 2 -13 7 -12 12 1 5 -3 12 -8 15 -6 3
51 6 126 6 91 0 137 4 139 11 2 6 -3 14 -12 18 -9 3 -13 2 -10 -3 3 -6 -8 -9
-24 -9 -17 1 -28 5 -25 9 2 4 -4 12 -13 18 -17 10 -17 10 0 11 9 0 17 5 17 10
0 6 -13 4 -30 -5 -23 -12 -35 -13 -50 -5 -11 6 -24 8 -29 5 -5 -3 -11 1 -14 7
-4 10 -7 11 -18 1 -11 -11 -10 -13 6 -15 11 0 25 -2 30 -3 6 -2 15 -3 22 -4 7
0 10 -7 8 -13 -6 -16 -55 -20 -52 -5 1 6 -8 12 -21 13 -23 1 -44 14 -24 14 7
0 12 5 12 10 0 6 -13 4 -29 -5 -30 -15 -66 -11 -55 7 4 6 -2 5 -14 -1 -13 -7
-22 -7 -24 -1 -2 6 -8 6 -18 0 -12 -8 -12 -10 5 -11 11 -1 25 -2 30 -4 6 -1
17 -3 25 -4 12 -1 12 -4 -3 -12 -9 -5 -22 -7 -29 -3 -7 4 -8 3 -4 -4 9 -15
-16 -16 -31 -1 -8 8 -19 6 -41 -5 -26 -14 -31 -14 -36 -1 -5 15 5 19 33 16 7
-2 10 3 6 9 -4 6 -15 8 -24 5 -11 -3 -18 0 -18 9 0 18 19 23 79 22 26 -1 44 3
40 8 -3 6 3 6 14 1 27 -11 74 -13 74 -4 0 5 8 6 18 3 14 -5 15 -4 2 5 -8 6
-23 8 -32 5 -12 -3 -18 0 -18 10 0 18 5 18 35 7 11 -5 29 -5 41 -1 23 9 37 2
42 -18 2 -10 -4 -12 -20 -7 -22 5 -21 5 2 -9 14 -8 27 -11 30 -8 3 4 34 8 70
9 61 2 63 1 40 -12 -23 -13 -23 -14 -5 -16 11 -1 25 -3 30 -4 6 -2 15 -3 21
-4 16 -1 12 -43 -6 -62 -8 -8 -21 -14 -27 -11 -7 2 -13 -1 -13 -7 0 -6 3 -10
8 -10 28 5 32 -5 7 -16 -20 -9 -36 -10 -47 -4 -12 7 -27 5 -45 -5 l-28 -15 28
2 c15 1 27 5 27 10 0 4 8 3 18 -2 13 -7 30 -4 61 10 46 20 65 25 41 9 -13 -9
-13 -10 0 -10 13 0 13 -1 0 -10 -11 -8 -9 -9 13 -8 15 1 27 5 27 9 0 3 18 3
40 -1 22 -4 37 -3 34 1 -3 5 0 9 5 9 6 0 11 -6 11 -14 0 -8 3 -16 8 -19 4 -2
0 -2 -8 1 -42 13 -60 14 -60 2 0 -7 8 -10 20 -7 11 3 20 2 20 -3 0 -4 11 -10
24 -12 19 -4 24 -1 21 14 -4 16 10 23 38 19 4 0 7 3 7 9 0 5 7 7 15 4 21 -8
19 -24 -2 -24 -10 0 -24 -4 -31 -9 -11 -7 -10 -9 3 -14 10 -5 14 -3 9 4 -5 8
10 10 52 6 32 -4 59 -6 60 -7 0 0 1 -6 1 -13 0 -8 -12 -14 -28 -14 -18 0 -26
4 -22 11 4 6 -1 5 -10 -3 -9 -7 -24 -11 -32 -7 -9 3 -14 2 -11 -3 3 -5 -5 -8
-19 -7 -14 0 -25 5 -25 9 0 5 -4 5 -10 2 -5 -3 -19 -1 -31 6 -15 8 -19 8 -15
0 9 -14 0 -14 -27 1 -19 10 -20 9 -10 -4 7 -8 10 -17 7 -21 -3 -3 14 -3 38 0
41 5 42 4 23 -11 -11 -8 -26 -16 -32 -16 -7 0 -13 -4 -13 -10 0 -5 3 -9 8 -9
19 3 29 -2 29 -16 0 -11 -7 -14 -21 -10 -17 5 -16 3 4 -9 14 -8 27 -11 30 -8
3 4 34 8 70 9 62 2 64 1 40 -13 -24 -14 -24 -15 -2 -11 12 3 22 1 22 -4 0 -5
3 -8 8 -8 19 3 33 -2 27 -10 -3 -5 0 -13 6 -17 7 -4 9 -3 5 4 -8 13 12 20 37
14 14 -3 15 -7 6 -12 -7 -5 -1 -7 14 -7 15 1 29 8 32 15 3 9 -1 11 -14 7 -11
-3 -23 0 -27 6 -4 8 -3 9 4 5 7 -4 12 -2 12 3 0 14 -16 14 -41 1 -11 -7 -26
-7 -35 -2 -12 7 -10 10 11 20 15 7 30 10 35 7 4 -3 11 2 14 11 4 11 1 14 -12
10 -12 -4 -19 -1 -19 7 0 11 11 13 42 9 24 -2 45 0 49 6 4 7 -8 9 -34 7 -22
-2 -38 0 -36 4 3 3 -4 7 -14 7 -10 0 -17 -3 -14 -7 2 -4 -3 -10 -12 -13 -8 -3
-13 -10 -10 -14 3 -5 -8 -9 -24 -10 -29 -2 -39 -2 -87 -1 -13 1 -23 7 -23 15
0 17 1 17 34 4 35 -13 45 6 11 22 -40 18 -12 26 79 24 44 -1 75 -1 68 2 -7 2
-9 8 -6 14 4 6 -2 6 -14 -1 -28 -15 -28 -15 -28 14 0 29 0 29 28 14 13 -7 18
-7 14 -1 -3 6 2 13 11 15 16 4 16 5 1 6 -11 1 -15 7 -11 21 4 15 1 19 -9 15
-9 -4 -15 0 -15 8 0 11 11 14 43 11 23 -2 45 0 48 5 3 5 -4 9 -17 10 -52 2
-66 6 -57 15 5 5 23 9 39 8 17 0 33 3 36 8 8 13 -25 21 -45 10 -29 -16 -38
-11 -10 5 14 8 21 14 15 14 -5 0 -21 -6 -35 -14 -32 -18 -37 -18 -37 0 0 15
10 19 35 16 6 -1 12 2 12 8 0 5 15 8 34 7 20 -1 32 3 29 9 -2 6 -18 9 -36 7
-18 -2 -40 -4 -49 -5 -9 -1 -14 -5 -12 -9 8 -12 -9 -9 -36 8 -14 8 -17 13 -8
10 10 -3 33 1 51 9 19 8 38 11 43 7 5 -4 4 -1 -2 7 -9 10 -17 10 -33 2 -16 -9
-26 -9 -39 -1 -16 11 -16 11 0 6 10 -3 21 1 26 10 6 12 14 13 35 5 15 -6 29
-6 32 -1 8 12 -10 21 -30 14 -19 -8 -17 16 4 32 11 9 12 12 1 19 -9 5 -11 4
-6 -3 4 -7 4 -12 -1 -12 -15 1 -48 25 -50 38 -4 15 2 15 29 1 13 -7 18 -7 14
-1 -3 6 2 13 11 15 10 3 -1 3 -24 2 -23 -1 -40 2 -37 6 7 12 -7 11 -26 -1 -12
-7 -11 -10 5 -17 11 -4 21 -14 22 -20 4 -17 -1 -16 -40 2 -25 12 -28 13 -14 2
16 -13 16 -15 1 -21 -22 -8 -24 -8 -22 5 2 6 -4 14 -12 16 -12 4 -12 3 -2 -5
26 -18 -17 -23 -50 -6 -16 9 -27 11 -24 5 9 -14 0 -14 -26 0 -12 7 -18 7 -14
1 10 -17 -18 -20 -31 -3 -10 14 -11 14 -9 -4 3 -17 10 -20 47 -18 l44 3 -30
-17 c-30 -16 -99 -27 -91 -14 3 4 -4 7 -14 7 -10 0 -17 -3 -14 -7 2 -4 -3 -10
-12 -13 -8 -3 -13 -10 -10 -14 3 -5 -8 -9 -24 -10 -29 -2 -39 -2 -87 -1 -13 1
-23 7 -23 15 0 17 1 17 34 4 35 -13 45 6 11 22 -39 18 -12 26 77 24 77 -2 79
-2 51 13 -15 9 -29 22 -31 29 -3 15 3 15 30 1 13 -7 18 -7 14 -1 -8 14 23 20
51 11 11 -4 35 -6 52 -4 18 2 30 1 27 -3 -2 -4 4 -8 14 -8 10 0 16 4 14 8 -3
4 11 8 30 8 20 0 36 4 36 10 0 5 -14 7 -32 4 -80 -12 -86 -12 -83 8 2 10 0 18
-6 18 -5 0 -9 -6 -9 -14 0 -8 -7 -16 -15 -20 -8 -3 -15 -1 -15 5 0 6 -7 8 -16
5 -9 -3 -12 -2 -8 5 3 6 15 9 25 6 11 -3 17 -1 14 3 -3 5 1 11 7 14 7 3 2 3
-12 -1 -14 -3 -30 -6 -37 -6 -7 0 -11 -5 -10 -11 1 -5 -6 -11 -15 -13 -12 -3
-15 1 -11 17 4 15 2 19 -9 15 -9 -4 -15 0 -15 8 0 11 10 14 36 11 34 -3 35 -2
16 12 -11 8 -26 12 -35 9 -12 -5 -12 -4 -3 6 15 15 313 21 313 7 0 -5 9 -4 20
2 11 6 25 8 30 5 5 -3 17 -2 25 3 13 7 12 10 -10 20 -21 10 -32 9 -55 -3 -36
-18 -37 -18 -37 0 0 15 10 19 35 16 6 -1 12 3 12 9 0 6 5 8 10 5 6 -3 10 1 10
10 0 13 -4 14 -20 5 -11 -6 -26 -8 -32 -4 -7 5 -8 3 -3 -6 6 -10 4 -12 -8 -7
-10 4 -24 10 -32 13 -8 3 -15 1 -15 -6 0 -6 4 -9 8 -6 15 9 31 -9 22 -24 -7
-12 -11 -12 -26 1 -10 8 -15 9 -11 3 4 -7 0 -15 -9 -18 -8 -3 -12 -2 -9 4 3 6
1 10 -5 10 -6 0 -8 5 -4 12 4 6 3 8 -4 5 -13 -9 -44 2 -37 13 2 4 -12 6 -32 4
-20 -1 -33 0 -28 4 15 10 17 32 3 32 -6 0 -9 2 -6 5 3 3 13 2 22 -1 14 -5 15
-9 4 -15 -7 -5 13 -6 46 -4 32 3 66 0 76 -5 13 -7 29 -5 53 5 19 8 37 12 41
10 3 -3 2 0 -3 6 -6 8 -15 8 -30 0 -16 -9 -26 -9 -39 -1 -16 11 -16 11 0 6 10
-3 21 1 26 10 6 12 14 13 35 5 15 -6 29 -6 32 -1 8 13 -11 21 -31 13 -12 -4
-15 -3 -10 6 6 8 -2 7 -22 -3 -36 -18 -46 -20 -37 -6 4 6 -1 7 -11 3 -12 -4
-15 -3 -10 5 5 8 2 10 -8 6 -16 -6 -23 -25 -8 -23 19 3 29 -2 29 -16 0 -10 -7
-13 -21 -9 -12 3 -39 6 -61 8 -61 6 -61 6 -43 16 11 7 25 7 42 0 31 -11 45 4
17 20 -23 12 -40 10 -59 -7 -18 -17 -29 -16 -29 2 0 9 6 14 14 11 8 -3 11 -1
8 4 -7 12 -12 11 83 14 45 1 67 -1 60 -7 -9 -6 -6 -6 7 -2 11 5 31 8 45 9 26
1 31 9 16 23 -5 5 -6 3 -2 -4 4 -7 4 -13 -1 -13 -15 1 -48 25 -51 38 -3 15 3
15 30 1 13 -7 18 -7 14 -1 -3 6 -1 12 6 15 7 2 4 3 -6 1 -11 -2 -28 1 -38 7
-12 7 -24 6 -36 0 -16 -10 -15 -12 10 -15 10 -1 22 -36 12 -36 -3 0 -19 7 -37
15 -25 12 -28 13 -14 2 16 -13 16 -15 1 -21 -22 -8 -26 -8 -19 3 3 5 0 13 -6
17 -7 4 -9 3 -6 -3 12 -19 -23 -23 -55 -7 -16 9 -27 11 -24 5 9 -14 0 -14 -26
0 -15 8 -19 8 -14 0 9 -14 -17 -14 -31 0 -9 9 -11 7 -9 -7 3 -16 11 -19 47
-17 l44 3 -38 -20 c-30 -17 -41 -18 -58 -9 -15 8 -19 8 -15 0 10 -15 0 -14
-35 5 -17 8 -33 13 -36 11 -2 -3 5 -8 16 -12 17 -5 19 -9 8 -26 -15 -25 -27
-24 -22 1 3 15 -1 19 -15 17 -11 -2 -23 -7 -27 -12 -5 -4 -3 -6 2 -2 6 3 17 2
24 -2 9 -6 4 -11 -17 -19 -17 -6 -33 -8 -36 -5 -9 9 -77 12 -71 3 3 -5 0 -12
-6 -16 -8 -4 -9 -3 -5 4 4 7 1 12 -6 12 -7 1 -1 8 15 16 21 11 32 12 48 3 23
-12 51 3 30 15 -6 4 -11 3 -11 -3 0 -6 -7 -8 -16 -4 -13 5 -13 7 -2 14 10 7
10 9 -2 9 -12 0 -12 2 -2 9 8 4 49 8 93 7 71 -1 76 0 54 12 -14 7 -30 10 -35
7 -5 -3 -19 -1 -31 6 -12 6 -19 7 -16 2 4 -5 -7 -10 -23 -10 -17 0 -27 5 -23
10 3 6 1 7 -6 3 -6 -4 -9 -11 -6 -16 3 -4 -6 -7 -20 -6 -14 0 -26 4 -26 9 -2
12 -6 27 -9 30 -1 1 -3 9 -5 17 -2 12 5 15 26 14 16 -1 29 2 29 7 0 6 7 6 18
0 14 -7 32 -4 68 13 28 13 64 22 84 20 32 -2 34 -1 15 12 -10 8 -28 12 -39 9
-19 -5 -19 -5 -3 5 23 15 66 18 95 8 13 -4 21 -4 18 0 -3 6 153 9 187 3 13 -2
7 -29 -9 -35 -23 -9 -23 -8 -19 14 3 17 1 19 -16 10 -11 -6 -25 -8 -31 -4 -6
4 -8 3 -4 -4 7 -12 -53 -10 -74 3 -9 5 -11 4 -6 -4 6 -8 -2 -11 -27 -8 -18 2
-39 7 -45 11 -8 5 -10 2 -6 -8 6 -14 25 -20 61 -19 7 1 10 -3 7 -8 -3 -5 0 -9
5 -9 6 0 11 6 11 13 0 8 15 12 48 10 74 -2 79 -4 47 -18 -20 -9 -36 -10 -47
-4 -12 7 -27 5 -45 -5 l-28 -15 28 2 c15 1 27 5 27 10 0 4 8 4 18 0 20 -10 69
-9 97 2 16 6 17 5 5 -4 -12 -9 -9 -11 15 -7 17 2 46 5 65 6 l35 2 -40 8 c-22
4 -45 6 -51 3 -6 -2 -11 3 -11 10 0 11 11 14 43 11 23 -2 45 0 49 6 7 11 7 11
-44 15 -24 2 -30 0 -20 -7 11 -7 11 -9 1 -6 -8 2 -13 7 -12 12 1 5 -4 12 -12
17 -7 5 4 7 28 4 22 -2 46 0 52 4 7 4 -109 7 -257 7 -148 -1 -272 -4 -275 -7
-4 -3 19 -5 49 -3 33 2 53 -1 50 -7 -4 -5 1 -12 10 -15 13 -6 14 -8 3 -15 -17
-12 -31 -11 -23 0 3 5 1 12 -5 16 -5 3 -10 1 -10 -5 0 -8 -6 -7 -21 1 -12 6
-19 7 -16 2 4 -5 -7 -10 -23 -10 -16 0 -27 3 -25 7 2 3 -5 6 -15 6 -10 0 -17
-3 -14 -7 2 -4 -3 -10 -12 -13 -23 -9 -23 -8 -19 17 4 19 3 20 -8 6 -7 -9 -18
-14 -24 -12 -7 3 -13 -1 -13 -8 0 -7 3 -10 6 -6 4 3 19 0 35 -9 16 -8 29 -11
29 -6 0 8 32 13 80 14 48 0 55 -4 25 -17 -20 -9 -36 -10 -47 -4 -11 6 -25 6
-36 0 -10 -5 -27 -9 -37 -8 -11 1 -19 -2 -18 -8 1 -5 -21 -11 -47 -12 -39 -2
-48 1 -44 12 4 10 11 12 22 6 16 -8 62 2 62 13 0 3 -11 2 -23 -3 -14 -6 -30
-6 -38 0 -8 5 -21 6 -29 4 -8 -2 -21 -1 -28 4 -22 13 13 22 43 11 25 -10 45 3
24 16 -18 11 -71 15 -65 5 3 -5 -1 -12 -10 -15 -21 -8 -21 -8 -21 8 0 8 11 19
24 25 15 7 23 7 23 0 0 -6 6 -6 19 1 26 13 34 13 25 -2 -5 -7 -3 -8 6 -3 8 5
35 9 62 10 26 1 51 4 54 7 11 12 -182 2 -203 -10 -26 -14 -33 -15 -33 -3 0 5
8 12 18 14 9 3 -2 5 -25 4 -23 0 -39 -5 -36 -10z m433 -7 c-8 -5 -19 -10 -25
-10 -5 0 -3 5 5 10 8 5 20 10 25 10 6 0 3 -5 -5 -10z m-373 -27 c-4 -3 -10 -3
-14 0 -3 4 0 7 7 7 7 0 10 -3 7 -7z m80 0 c-4 -3 -10 -3 -14 0 -3 4 0 7 7 7 7
0 10 -3 7 -7z m320 0 c-4 -3 -10 -3 -14 0 -3 4 0 7 7 7 7 0 10 -3 7 -7z m240
0 c-4 -3 -10 -3 -14 0 -3 4 0 7 7 7 7 0 10 -3 7 -7z m120 0 c-4 -3 -10 -3 -14
0 -3 4 0 7 7 7 7 0 10 -3 7 -7z m-657 -8 c0 -3 -2 -5 -5 -5 -3 0 -5 2 -5 5 0
3 2 5 5 5 3 0 5 -2 5 -5z m110 0 c0 -3 -2 -5 -5 -5 -3 0 -5 2 -5 5 0 3 2 5 5
5 3 0 5 -2 5 -5z m280 0 c0 -3 -2 -5 -5 -5 -3 0 -5 2 -5 5 0 3 2 5 5 5 3 0 5
-2 5 -5z m170 -20 c-14 -8 -29 -14 -35 -14 -5 0 1 6 15 14 14 8 30 14 35 14 6
0 -1 -6 -15 -14z m0 -40 c0 -3 -2 -5 -5 -5 -3 0 -5 2 -5 5 0 3 2 5 5 5 3 0 5
-2 5 -5z m-623 -52 c-4 -3 -10 -3 -14 0 -3 4 0 7 7 7 7 0 10 -3 7 -7z m240 0
c-4 -3 -10 -3 -14 0 -3 4 0 7 7 7 7 0 10 -3 7 -7z m83 2 c0 -3 -2 -5 -5 -5 -3
0 -5 2 -5 5 0 3 2 5 5 5 3 0 5 -2 5 -5z m70 0 c0 -3 -2 -5 -5 -5 -3 0 -5 2 -5
5 0 3 2 5 5 5 3 0 5 -2 5 -5z m87 -2 c-4 -3 -10 -3 -14 0 -3 4 0 7 7 7 7 0 10
-3 7 -7z m163 2 c0 -3 -2 -5 -5 -5 -3 0 -5 2 -5 5 0 3 2 5 5 5 3 0 5 -2 5 -5z
m-463 -19 c0 -8 -16 -21 -34 -30 -19 -9 -32 -20 -29 -25 5 -8 -25 -7 -74 1 -8
2 -15 -1 -15 -6 0 -7 35 -13 110 -16 6 -1 35 2 65 6 30 3 65 7 78 7 13 1 29 9
35 18 9 11 23 14 50 11 23 -2 44 1 54 9 12 10 15 10 9 2 -4 -8 -2 -13 6 -13 7
-1 2 -7 -11 -14 -20 -11 -21 -14 -7 -19 10 -4 15 -3 11 3 -3 6 -1 10 4 10 17
0 13 -27 -4 -34 -8 -3 -15 -1 -15 4 0 5 -8 6 -17 3 -15 -6 -15 -7 3 -13 10 -4
34 -6 54 -4 34 2 34 2 11 -10 -20 -11 -21 -14 -7 -19 10 -4 15 -3 12 2 -10 15
30 19 55 5 13 -7 20 -14 14 -15 -41 -7 -74 -4 -99 8 -15 8 -25 10 -22 4 4 -6
1 -11 -6 -12 -41 -2 -57 -7 -78 -22 -14 -9 -20 -17 -15 -17 6 0 2 -5 -7 -11
-13 -7 -26 -5 -49 6 -17 9 -28 12 -25 7 7 -12 -54 -9 -74 3 -9 5 -11 4 -6 -3
4 -7 5 -12 2 -12 -2 0 -11 -3 -20 -6 -11 -4 -14 0 -11 15 2 12 0 19 -6 16 -5
-4 -6 -11 -3 -17 4 -6 -1 -8 -15 -3 -13 4 -21 2 -21 -5 0 -6 4 -9 8 -6 4 2 14
1 21 -3 9 -6 4 -11 -17 -19 -17 -6 -33 -8 -36 -5 -3 3 -22 7 -43 8 -21 2 -32
0 -24 -2 10 -4 10 -7 1 -13 -6 -4 18 -7 53 -6 36 1 63 4 60 9 -2 4 1 7 6 7 6
0 11 -6 11 -14 0 -8 6 -16 13 -19 6 -2 0 -4 -15 -3 -14 0 -24 4 -21 9 2 4 -3
7 -11 7 -15 0 -34 -20 -19 -20 4 0 25 -4 45 -9 32 -8 36 -7 33 10 -4 17 10 24
38 20 4 0 7 3 7 9 0 5 7 7 15 4 21 -8 19 -24 -2 -24 -10 0 -24 -4 -31 -9 -11
-7 -10 -9 3 -14 10 -5 14 -3 9 4 -6 10 23 10 114 -1 2 0 1 -4 -3 -9 -3 -6 3
-14 12 -20 24 -14 7 -14 -18 -1 -12 7 -25 7 -36 1 -10 -5 -26 -5 -41 0 -13 5
-21 5 -18 0 3 -5 -5 -8 -19 -7 -14 0 -25 3 -25 6 0 3 -8 6 -17 6 -10 1 -27 4
-38 8 -16 6 -17 6 -5 -3 11 -8 12 -11 2 -11 -7 0 -11 -3 -8 -8 2 -4 25 -7 50
-6 25 1 43 -2 41 -7 -3 -4 3 -13 12 -19 16 -10 16 -10 -2 -6 -35 10 -61 -18
-33 -35 7 -5 9 -9 3 -9 -5 0 -17 5 -25 10 -13 9 -13 10 0 10 9 0 11 3 5 8 -21
15 -16 34 7 27 20 -5 21 -5 5 5 -13 9 -22 9 -32 0 -19 -15 -85 -20 -109 -8
-13 7 -16 7 -12 -1 4 -6 2 -11 -3 -11 -13 0 -10 -21 4 -33 6 -5 1 -6 -10 -2
-35 13 -119 11 -150 -3 -28 -12 -28 -12 -11 3 15 11 16 15 5 15 -8 1 -3 7 11
15 28 16 53 20 30 5 -11 -8 -9 -9 13 -8 15 1 27 3 27 5 0 1 -12 9 -27 17 -16
8 -23 16 -18 17 33 5 65 4 65 -3 0 -5 9 -4 19 2 25 13 41 13 18 -1 -9 -6 -15
-15 -11 -21 4 -6 -1 -8 -15 -3 -11 3 -21 2 -21 -3 0 -5 6 -9 13 -9 6 0 21 -4
32 -8 14 -5 16 -4 7 3 -8 5 -14 12 -15 16 -4 14 48 34 80 31 22 -1 33 2 33 11
0 8 -6 11 -17 7 -12 -5 -14 -3 -8 7 5 9 4 11 -4 6 -6 -4 -9 -12 -6 -17 9 -13
-6 -11 -35 6 -28 16 -54 20 -30 5 13 -9 13 -10 0 -10 -9 0 -22 6 -29 13 -11
10 -13 10 -7 0 4 -7 5 -13 2 -13 -2 0 -12 -3 -22 -7 -12 -4 -15 -3 -10 5 5 8
1 10 -10 5 -13 -5 -15 -3 -9 7 5 9 4 11 -4 6 -6 -4 -9 -11 -6 -16 3 -4 -6 -7
-20 -6 -14 0 -27 6 -29 13 -6 14 21 26 36 16 6 -3 8 -1 4 5 -8 14 23 21 51 11
11 -4 35 -6 52 -4 18 2 30 1 27 -3 -2 -4 4 -8 14 -8 10 0 16 4 14 8 -3 4 2 8
10 8 9 0 16 5 16 11 0 5 -5 7 -11 4 -16 -11 -109 -13 -103 -3 3 5 -12 6 -33 3
-21 -3 -46 -7 -55 -8 -9 -1 -14 -5 -12 -9 7 -11 -8 -10 -26 2 -8 5 -10 10 -4
10 6 0 11 7 11 15 0 8 -5 15 -11 15 -6 1 0 7 14 14 15 9 32 11 45 6 12 -5 27
-5 34 0 18 10 -2 22 -24 14 -20 -8 -17 15 5 33 13 11 12 12 -5 7 -16 -5 -17
-4 -5 5 20 15 30 14 30 -3 0 -8 10 -13 25 -13 14 0 25 2 25 6 0 3 12 7 28 8
l27 1 -27 -14 c-16 -8 -28 -19 -28 -25 0 -6 -4 -8 -9 -4 -5 3 -12 1 -16 -5 -3
-5 3 -10 15 -10 13 0 18 -4 14 -11 -3 -6 8 -4 24 5 17 9 37 13 45 10 8 -3 14
2 14 11 0 9 -6 14 -14 11 -9 -4 -11 -1 -7 5 4 7 2 10 -5 8 -7 -3 -12 -8 -11
-13 2 -8 -19 -26 -31 -26 -13 0 -5 30 10 36 29 12 82 13 75 2 -5 -7 -2 -8 7
-2 19 12 240 13 232 2 -3 -6 10 -2 28 7 56 29 52 33 -9 8 -7 -3 -12 0 -10 8 5
24 21 28 55 14 19 -8 31 -10 28 -5 -3 4 -2 10 2 13 5 2 2 2 -5 0 -22 -5 -36 8
-21 19 10 7 6 8 -11 3 -38 -10 -101 -5 -94 7 7 11 -8 10 -26 -2 -13 -8 -13
-10 3 -11 9 -1 22 -3 27 -4 6 -1 16 -3 23 -4 8 0 14 -8 14 -16 0 -18 -2 -18
-29 -4 -15 8 -19 8 -14 0 9 -14 -17 -14 -31 0 -8 8 -17 8 -32 0 -15 -8 -27 -9
-39 -2 -14 8 -14 11 -2 12 8 1 19 1 23 0 4 -1 16 6 25 16 16 16 16 16 -8 9
-36 -11 -90 -8 -100 6 -3 4 -12 3 -20 -2 -12 -8 -11 -10 5 -11 11 -1 25 -3 30
-4 6 -2 17 -3 25 -4 10 -1 6 -7 -10 -16 -30 -17 -44 -19 -34 -4 5 8 1 8 -14 0
-30 -16 -39 -14 -16 4 16 13 16 14 1 9 -13 -5 -16 -2 -11 10 6 17 -4 20 -30
10 -16 -6 -23 -25 -8 -23 4 1 14 1 22 0 12 -1 12 -3 -2 -11 -18 -11 -51 -3
-42 11 3 5 -2 12 -12 16 -14 5 -13 8 7 18 l22 13 -24 8 c-38 12 -112 11 -142
-4 -16 -7 -31 -11 -34 -9 -2 3 5 8 16 12 12 3 19 10 16 15 -11 17 33 31 55 18
16 -10 24 -10 40 0 11 6 23 12 27 12 5 0 2 -4 -5 -8 -9 -6 -6 -12 13 -20 21
-10 27 -9 31 2 4 10 17 12 45 9 25 -4 45 -1 56 8 14 12 16 12 9 0 -6 -9 -5
-12 3 -10 7 3 11 8 9 13 -2 4 8 14 22 21 32 18 37 18 37 1z m-260 -23 c-4 -3
-10 -3 -14 0 -3 4 0 7 7 7 7 0 10 -3 7 -7z m600 0 c-4 -3 -10 -3 -14 0 -3 4 0
7 7 7 7 0 10 -3 7 -7z m23 -8 c0 -3 -2 -5 -5 -5 -3 0 -5 2 -5 5 0 3 2 5 5 5 3
0 5 -2 5 -5z m77 -42 c-4 -3 -10 -3 -14 0 -3 4 0 7 7 7 7 0 10 -3 7 -7z m-580
-30 c-4 -3 -10 -3 -14 0 -3 4 0 7 7 7 7 0 10 -3 7 -7z m113 -33 c8 -5 11 -10
5 -10 -5 0 -17 5 -25 10 -8 5 -10 10 -5 10 6 0 17 -5 25 -10z m73 3 c3 -5 -6
-9 -20 -10 -19 -1 -22 1 -12 8 17 11 26 11 32 2z m467 -3 c-8 -5 -19 -10 -25
-10 -5 0 -3 5 5 10 8 5 20 10 25 10 6 0 3 -5 -5 -10z m-850 -5 c0 -3 -2 -5 -5
-5 -3 0 -5 2 -5 5 0 3 2 5 5 5 3 0 5 -2 5 -5z m197 -2 c-4 -3 -10 -3 -14 0 -3
4 0 7 7 7 7 0 10 -3 7 -7z m683 2 c0 -3 -2 -5 -5 -5 -3 0 -5 2 -5 5 0 3 2 5 5
5 3 0 5 -2 5 -5z m-363 -42 c-4 -3 -10 -3 -14 0 -3 4 0 7 7 7 7 0 10 -3 7 -7z
m-467 -8 c0 -3 -2 -5 -5 -5 -3 0 -5 2 -5 5 0 3 2 5 5 5 3 0 5 -2 5 -5z m409
-7 c18 0 20 -2 10 -9 -12 -7 -12 -9 1 -9 13 0 13 -1 0 -11 -12 -9 -11 -10 6
-6 12 2 21 -1 21 -8 0 -7 -16 -11 -44 -11 -23 1 -43 3 -43 6 0 3 -13 14 -30
23 -27 17 -32 17 -61 2 -17 -9 -28 -12 -25 -6 4 6 1 11 -6 11 -7 1 -3 6 9 13
12 7 47 11 80 9 32 -2 69 -4 82 -4z m-302 -105 c-4 -3 -10 -3 -14 0 -3 4 0 7
7 7 7 0 10 -3 7 -7z m489 -4 c3 -6 17 -8 31 -4 14 3 22 2 19 -4 -4 -5 9 -6 32
0 20 5 45 6 56 3 12 -4 16 -2 12 5 -4 7 -1 9 8 5 20 -8 16 -26 -9 -41 -25 -15
-38 -16 -30 -3 4 6 -1 7 -11 3 -12 -4 -15 -3 -10 5 5 8 2 10 -8 6 -16 -6 -23
-25 -8 -23 19 3 33 -2 27 -10 -3 -6 3 -15 12 -21 16 -10 16 -11 -2 -6 -11 3
-31 -2 -45 -10 -23 -14 -23 -14 -2 -9 13 4 22 2 22 -5 0 -6 4 -9 8 -6 15 9 31
-9 22 -24 -7 -12 -11 -12 -26 1 -11 9 -15 9 -10 2 8 -15 5 -16 -18 -7 -9 3
-13 11 -9 17 3 5 1 7 -5 4 -13 -9 -44 2 -37 13 2 4 -11 6 -30 4 -22 -1 -32 2
-29 9 2 7 26 12 54 12 53 0 108 13 60 14 -22 1 -66 5 -95 10 -5 1 -2 6 7 11
11 7 25 7 42 0 31 -11 45 4 17 20 -21 11 -42 10 -51 -2 -3 -4 -25 -16 -48 -26
-36 -16 -40 -20 -23 -25 12 -3 19 -1 15 4 -3 5 0 9 5 9 6 0 11 -6 11 -14 0
-16 -27 -29 -32 -16 -2 6 -9 5 -18 0 -13 -8 -12 -10 3 -11 9 -1 22 -3 27 -4 6
-1 18 -3 28 -4 16 -2 16 -2 -1 -12 -9 -5 -22 -7 -29 -3 -6 4 -8 3 -5 -3 4 -6
0 -14 -9 -17 -13 -5 -15 -2 -11 14 6 22 5 23 -18 14 -12 -5 -13 -9 -4 -14 7
-5 3 -8 -12 -7 -13 0 -31 -3 -40 -7 -10 -5 -16 -2 -16 9 0 15 9 19 41 15 12
-1 16 2 11 11 -5 8 -4 10 3 5 7 -4 12 -2 12 5 0 7 -8 9 -22 4 -13 -4 -31 -7
-40 -6 -49 3 -57 6 -48 17 6 6 8 13 5 16 -3 2 9 5 26 5 l31 0 -24 -14 c-17
-11 -18 -12 -3 -7 11 4 28 7 37 8 10 0 20 6 23 14 3 10 -1 11 -16 7 -14 -5
-19 -3 -15 4 5 7 1 9 -11 5 -14 -5 -15 -4 -4 4 7 5 31 7 52 5 25 -4 45 -1 56
8 14 12 16 12 9 0 -6 -9 -5 -12 5 -9 8 3 13 10 12 16 -2 6 7 14 19 17 16 6 18
9 7 16 -9 6 -10 9 -2 9 6 0 15 -5 19 -11z m31 -36 c-4 -3 -10 -3 -14 0 -3 4 0
7 7 7 7 0 10 -3 7 -7z m-297 -8 c0 -3 -2 -5 -5 -5 -3 0 -5 2 -5 5 0 3 2 5 5 5
3 0 5 -2 5 -5z m320 0 c0 -3 -2 -5 -5 -5 -3 0 -5 2 -5 5 0 3 2 5 5 5 3 0 5 -2
5 -5z m-70 -25 c8 -5 11 -10 5 -10 -5 0 -17 5 -25 10 -8 5 -10 10 -5 10 6 0
17 -5 25 -10z m40 -60 c22 -11 40 -23 40 -26 0 -2 -9 0 -20 6 -14 7 -26 8 -39
0 -25 -13 -34 -13 -26 0 3 6 -1 7 -12 4 -10 -3 -7 1 6 9 18 11 20 16 10 20 -8
3 -10 6 -6 6 4 1 26 -8 47 -19z m-448 -6 c7 1 10 1 5 -1 -4 -3 -5 -8 -3 -12 2
-3 -17 -6 -42 -5 -67 2 -70 3 -42 18 16 9 32 11 47 5 13 -5 28 -7 35 -5z m129
-2 c-10 -3 -10 -6 -2 -12 7 -3 -2 -7 -18 -7 -16 0 -29 5 -28 11 3 18 18 24 40
18 14 -3 17 -7 8 -10z m-288 -9 c3 -5 -6 -9 -20 -10 -19 -1 -22 1 -12 8 17 11
26 11 32 2z m327 -8 c0 -3 -2 -5 -5 -5 -3 0 -5 2 -5 5 0 3 2 5 5 5 3 0 5 -2 5
-5z m205 -6 c69 1 79 1 162 -1 35 -1 60 -5 56 -10 -3 -6 -15 -7 -27 -4 -20 5
-20 5 -2 -9 11 -8 17 -15 14 -15 -4 0 -13 -3 -22 -6 -11 -4 -16 0 -17 12 0 11
-3 14 -6 7 -3 -10 -10 -10 -25 -2 -13 7 -18 7 -14 1 7 -12 -54 -9 -74 3 -9 5
-11 4 -6 -3 4 -7 5 -12 2 -12 -2 0 -11 -3 -20 -6 -11 -4 -14 0 -11 15 2 12 0
19 -6 16 -5 -4 -6 -11 -3 -17 5 -8 1 -9 -12 -4 -10 5 -35 10 -54 11 -19 2 -29
0 -21 -2 11 -5 11 -7 0 -14 -9 -6 1 -8 28 -6 23 2 52 -2 65 -10 29 -16 39 -16
36 -2 -2 8 16 12 52 11 76 -1 79 -2 46 -16 -28 -13 -28 -13 -5 -19 12 -3 30
-2 38 3 14 8 14 9 1 10 -13 0 -13 1 0 10 8 5 20 10 25 10 6 0 3 -5 -5 -10 -13
-9 -13 -10 0 -10 13 0 13 -1 0 -11 -12 -9 -11 -10 6 -6 12 2 21 -1 21 -8 0 -7
-10 -12 -23 -11 -12 0 -20 4 -17 9 6 10 -5 9 -28 -3 -10 -6 -19 -7 -19 -3 0 5
-13 17 -30 26 -27 17 -32 17 -61 2 -17 -9 -28 -12 -25 -6 8 12 3 13 -76 13
-37 0 -56 4 -55 12 1 6 -8 10 -20 9 -14 -2 -22 2 -20 10 3 18 60 47 77 40 8
-3 42 -5 75 -4z m-38 -36 c-4 -3 -10 -3 -14 0 -3 4 0 7 7 7 7 0 10 -3 7 -7z
m280 0 c-4 -3 -10 -3 -14 0 -3 4 0 7 7 7 7 0 10 -3 7 -7z m-827 -8 c0 -3 -2
-5 -5 -5 -3 0 -5 2 -5 5 0 3 2 5 5 5 3 0 5 -2 5 -5z m747 -32 c-4 -3 -10 -3
-14 0 -3 4 0 7 7 7 7 0 10 -3 7 -7z m-37 -78 c0 -3 -2 -5 -5 -5 -3 0 -5 2 -5
5 0 3 2 5 5 5 3 0 5 -2 5 -5z m-65 -14 c-3 -6 3 -15 12 -21 16 -10 16 -10 -2
-6 -21 6 -47 -5 -47 -19 0 -4 6 -12 14 -16 7 -5 9 -9 3 -9 -5 0 -17 5 -25 10
-13 9 -13 10 0 10 12 0 12 2 2 9 -21 13 -19 21 8 36 29 17 44 19 35 6z m45
-36 c0 -3 -2 -5 -5 -5 -3 0 -5 2 -5 5 0 3 2 5 5 5 3 0 5 -2 5 -5z m97 -12 c-4
-3 -10 -3 -14 0 -3 4 0 7 7 7 7 0 10 -3 7 -7z m-19 -29 c-30 -17 -35 -17 -35
-1 0 8 12 14 30 14 l29 0 -24 -13z"/>
<path d="M360 765 c0 -3 2 -5 5 -5 3 0 5 2 5 5 0 3 -2 5 -5 5 -3 0 -5 -2 -5
-5z"/>
<path d="M83 743 c4 -3 10 -3 14 0 3 4 0 7 -7 7 -7 0 -10 -3 -7 -7z"/>
<path d="M540 715 c-14 -8 -34 -12 -45 -9 -18 4 -18 4 -3 -6 13 -8 24 -8 37 0
11 6 25 9 32 8 6 -2 14 3 16 10 6 16 -6 15 -37 -3z m30 0 c0 -3 -2 -5 -5 -5
-3 0 -5 2 -5 5 0 3 2 5 5 5 3 0 5 -2 5 -5z"/>
<path d="M595 710 c3 -5 8 -10 11 -10 3 0 2 5 -1 10 -3 6 -8 10 -11 10 -3 0
-2 -4 1 -10z"/>
<path d="M200 685 c0 -3 2 -5 5 -5 3 0 5 2 5 5 0 3 -2 5 -5 5 -3 0 -5 -2 -5
-5z"/>
<path d="M723 643 c4 -3 10 -3 14 0 3 4 0 7 -7 7 -7 0 -10 -3 -7 -7z"/>
<path d="M490 605 c0 -3 2 -5 5 -5 3 0 5 2 5 5 0 3 -2 5 -5 5 -3 0 -5 -2 -5
-5z"/>
<path d="M266 585 c-3 -8 -1 -15 4 -15 13 0 22 18 11 24 -5 3 -11 -1 -15 -9z"/>
<path d="M50 560 c10 -6 9 -9 -1 -13 -8 -4 0 -4 16 -2 17 2 34 4 39 4 21 2 -8
16 -36 17 -18 1 -25 -1 -18 -6z"/>
<path d="M126 552 c-2 -4 6 -7 17 -8 12 0 29 -4 38 -8 10 -4 16 -2 16 7 0 13
-63 21 -71 9z"/>
<path d="M430 495 c0 -3 2 -5 5 -5 3 0 5 2 5 5 0 3 -2 5 -5 5 -3 0 -5 -2 -5
-5z"/>
<path d="M454 488 c-4 -7 -3 -8 4 -4 12 7 16 16 8 16 -3 0 -8 -5 -12 -12z"/>
<path d="M363 563 c4 -3 10 -3 14 0 3 4 0 7 -7 7 -7 0 -10 -3 -7 -7z"/>
<path d="M466 561 c-20 -8 -20 -8 0 -13 10 -3 27 -9 37 -13 19 -8 21 14 2 27
-12 9 -14 9 -39 -1z m31 -8 c-4 -3 -10 -3 -14 0 -3 4 0 7 7 7 7 0 10 -3 7 -7z"/>
<path d="M820 455 c0 -3 2 -5 5 -5 3 0 5 2 5 5 0 3 -2 5 -5 5 -3 0 -5 -2 -5
-5z"/>
<path d="M680 445 c0 -3 2 -5 5 -5 3 0 5 2 5 5 0 3 -2 5 -5 5 -3 0 -5 -2 -5
-5z"/>
<path d="M590 395 c0 -3 2 -5 5 -5 3 0 5 2 5 5 0 3 -2 5 -5 5 -3 0 -5 -2 -5
-5z"/>
<path d="M740 370 c0 -7 3 -10 7 -7 3 4 3 10 0 14 -4 3 -7 0 -7 -7z"/>
<path d="M203 323 c4 -3 10 -3 14 0 3 4 0 7 -7 7 -7 0 -10 -3 -7 -7z"/>
<path d="M250 325 c0 -3 2 -5 5 -5 3 0 5 2 5 5 0 3 -2 5 -5 5 -3 0 -5 -2 -5
-5z"/>
<path d="M380 335 c0 -3 2 -5 5 -5 3 0 5 2 5 5 0 3 -2 5 -5 5 -3 0 -5 -2 -5
-5z"/>
<path d="M547 299 c-17 -10 -15 -29 4 -29 6 0 8 4 4 9 -3 6 3 14 12 20 10 6
14 10 8 10 -5 0 -18 -4 -28 -10z"/>
<path d="M723 303 c4 -3 10 -3 14 0 3 4 0 7 -7 7 -7 0 -10 -3 -7 -7z"/>
<path d="M680 125 c0 -3 2 -5 5 -5 3 0 5 2 5 5 0 3 -2 5 -5 5 -3 0 -5 -2 -5
-5z"/>
<path d="M20 935 c0 -3 2 -5 5 -5 3 0 5 2 5 5 0 3 -2 5 -5 5 -3 0 -5 -2 -5 -5z"/>
<path d="M488 870 c-45 -20 -62 -35 -31 -27 13 3 25 2 28 -3 3 -4 14 -10 25
-13 11 -3 18 -1 15 3 -3 5 -2 10 2 13 5 2 3 3 -4 1 -16 -4 -9 29 8 34 11 3 11
1 -1 -8 -13 -10 -11 -11 7 -7 18 4 21 1 17 -19 -2 -13 0 -24 6 -24 6 0 9 4 5
9 -3 5 3 12 12 14 17 4 17 5 0 6 -14 1 -16 5 -8 19 8 16 6 19 -17 19 -15 0
-44 -8 -64 -17z m9 -17 c-4 -3 -10 -3 -14 0 -3 4 0 7 7 7 7 0 10 -3 7 -7z"/>
<path d="M615 881 l-30 -7 32 -5 c18 -3 30 -2 27 3 -3 4 0 8 5 8 6 0 11 -6 11
-14 0 -8 6 -17 13 -20 6 -3 2 -3 -10 0 -47 11 -63 12 -63 5 0 -12 36 -20 71
-16 16 2 28 1 25 -3 -2 -4 7 -8 21 -9 19 -1 22 1 12 8 -10 6 -2 9 24 9 20 0
37 4 37 10 0 10 -50 8 -68 -4 -14 -8 -55 12 -47 23 4 7 -21 25 -28 20 -1 -1
-15 -4 -32 -8z"/>
<path d="M0 865 c0 -3 2 -5 5 -5 3 0 5 2 5 5 0 3 -2 5 -5 5 -3 0 -5 -2 -5 -5z"/>
<path d="M920 850 c0 -5 6 -10 14 -10 8 0 18 5 21 10 3 6 -3 10 -14 10 -12 0
-21 -4 -21 -10z"/>
<path d="M0 840 c0 -4 6 -7 13 -7 6 0 21 -4 32 -8 14 -5 16 -4 6 3 -11 8 -11
10 0 14 8 3 -1 5 -19 5 -17 0 -32 -3 -32 -7z"/>
<path d="M370 843 c0 -1 10 -7 21 -14 13 -6 19 -7 15 -1 -3 6 2 13 11 15 10 2
3 4 -14 3 -18 0 -33 -2 -33 -3z"/>
<path d="M130 825 c0 -3 2 -5 5 -5 3 0 5 2 5 5 0 3 -2 5 -5 5 -3 0 -5 -2 -5
-5z"/>
<path d="M290 825 c0 -3 2 -5 5 -5 3 0 5 2 5 5 0 3 -2 5 -5 5 -3 0 -5 -2 -5
-5z"/>
<path d="M917 803 c6 -26 11 -27 33 -12 13 9 13 10 0 6 -8 -2 -20 3 -27 12
-10 14 -11 13 -6 -6z"/>
<path d="M943 813 c4 -3 10 -3 14 0 3 4 0 7 -7 7 -7 0 -10 -3 -7 -7z"/>
<path d="M15 772 c-15 -10 -18 -35 -4 -30 7 2 13 12 15 21 3 19 3 19 -11 9z"/>
<path d="M450 765 c0 -3 2 -5 5 -5 3 0 5 2 5 5 0 3 -2 5 -5 5 -3 0 -5 -2 -5
-5z"/>
<path d="M940 750 c0 -5 5 -10 10 -10 6 0 10 5 10 10 0 6 -4 10 -10 10 -5 0
-10 -4 -10 -10z"/>
<path d="M938 713 c7 -3 16 -2 19 1 4 3 -2 6 -13 5 -11 0 -14 -3 -6 -6z"/>
<path d="M130 690 c-13 -8 -12 -10 3 -10 9 0 17 5 17 10 0 12 -1 12 -20 0z"/>
<path d="M770 690 c-9 -6 -10 -10 -3 -10 6 0 15 5 18 10 8 12 4 12 -15 0z"/>
<path d="M932 691 c-11 -6 -9 -9 6 -13 15 -4 19 -2 15 8 -6 16 -4 16 -21 5z"/>
<path d="M93 683 c4 -3 10 -3 14 0 3 4 0 7 -7 7 -7 0 -10 -3 -7 -7z"/>
<path d="M740 685 c0 -3 2 -5 5 -5 3 0 5 2 5 5 0 3 -2 5 -5 5 -3 0 -5 -2 -5
-5z"/>
<path d="M930 665 c0 -3 2 -5 5 -5 3 0 5 2 5 5 0 3 -2 5 -5 5 -3 0 -5 -2 -5
-5z"/>
<path d="M950 655 c0 -3 2 -5 5 -5 3 0 5 2 5 5 0 3 -2 5 -5 5 -3 0 -5 -2 -5
-5z"/>
<path d="M659 613 c-1 -5 -1 -12 0 -16 1 -5 -8 -6 -19 -2 -11 4 -20 2 -20 -4
0 -6 3 -10 8 -9 4 2 22 -3 40 -11 24 -10 30 -16 20 -22 -8 -6 -4 -8 15 -7 15
1 27 6 27 11 0 4 5 5 11 1 17 -10 149 -13 149 -2 0 5 7 5 18 0 9 -5 26 -6 37
-1 16 6 14 8 -15 10 -19 1 -42 2 -51 1 -9 -1 -16 5 -16 12 0 10 12 13 43 10
43 -4 67 9 38 20 -10 4 -13 2 -8 -6 5 -8 2 -9 -12 -4 -31 13 -76 17 -69 6 3
-6 4 -10 1 -10 -2 0 -11 -3 -20 -6 -11 -4 -14 0 -11 15 3 18 1 20 -16 11 -11
-6 -25 -8 -31 -4 -6 4 -8 3 -4 -4 7 -12 -53 -10 -74 3 -9 6 -11 4 -5 -4 5 -9
2 -12 -11 -9 -11 2 -18 10 -16 16 1 7 0 12 -3 12 -3 0 -6 -3 -6 -7z m153 -22
c-11 -7 -11 -9 2 -14 9 -4 24 -4 34 -1 13 5 14 4 3 -4 -11 -8 -11 -10 0 -14
12 -4 -49 -2 -129 5 -40 4 -28 22 13 19 22 -1 47 2 55 8 8 5 20 10 25 10 6 0
4 -4 -3 -9z m85 2 c-4 -3 -10 -3 -14 0 -3 4 0 7 7 7 7 0 10 -3 7 -7z m-227 -8
c0 -3 -2 -5 -5 -5 -3 0 -5 2 -5 5 0 3 2 5 5 5 3 0 5 -2 5 -5z"/>
<path d="M803 563 c4 -3 10 -3 14 0 3 4 0 7 -7 7 -7 0 -10 -3 -7 -7z"/>
<path d="M0 545 c0 -3 2 -5 5 -5 3 0 5 2 5 5 0 3 -2 5 -5 5 -3 0 -5 -2 -5 -5z"/>
<path d="M925 530 c-3 -5 1 -10 9 -10 8 0 18 5 21 10 3 6 -1 10 -9 10 -8 0
-18 -4 -21 -10z"/>
<path d="M910 495 c0 -3 2 -5 5 -5 3 0 5 2 5 5 0 3 -2 5 -5 5 -3 0 -5 -2 -5
-5z"/>
<path d="M930 480 c-12 -22 -4 -25 20 -10 13 9 13 10 0 10 -13 0 -13 1 0 10 9
6 10 10 3 10 -7 0 -17 -9 -23 -20z"/>
<path d="M500 455 c0 -3 2 -5 5 -5 3 0 5 2 5 5 0 3 -2 5 -5 5 -3 0 -5 -2 -5
-5z"/>
<path d="M3 435 c0 -9 4 -14 9 -13 12 4 12 22 0 26 -5 1 -9 -4 -9 -13z"/>
<path d="M470 435 c-10 -13 -9 -15 11 -14 13 0 18 3 11 6 -6 2 -10 9 -6 14 9
15 -2 10 -16 -6z"/>
<path d="M940 430 c0 -5 5 -10 10 -10 6 0 10 5 10 10 0 6 -4 10 -10 10 -5 0
-10 -4 -10 -10z"/>
<path d="M938 393 c7 -3 16 -2 19 1 4 3 -2 6 -13 5 -11 0 -14 -3 -6 -6z"/>
<path d="M93 363 c4 -3 10 -3 14 0 3 4 0 7 -7 7 -7 0 -10 -3 -7 -7z"/>
<path d="M930 345 c0 -3 2 -5 5 -5 3 0 5 2 5 5 0 3 -2 5 -5 5 -3 0 -5 -2 -5
-5z"/>
<path d="M950 335 c0 -3 2 -5 5 -5 3 0 5 2 5 5 0 3 -2 5 -5 5 -3 0 -5 -2 -5
-5z"/>
<path d="M339 293 c-1 -5 -1 -11 0 -15 1 -11 -7 -10 -29 2 -16 8 -18 8 -14 -5
6 -14 25 -19 62 -18 19 1 3 -12 -16 -13 -10 -1 -30 -2 -47 -3 -21 -1 -26 -4
-16 -10 7 -5 11 -13 7 -19 -8 -13 27 -21 65 -17 16 2 28 1 25 -3 -2 -4 4 -8
14 -8 10 0 17 3 14 7 -2 4 14 9 37 11 22 2 43 0 46 -5 3 -5 14 -6 26 -3 11 3
29 0 40 -6 13 -6 17 -7 13 0 -3 6 -1 12 6 15 7 2 4 3 -6 1 -24 -4 -58 14 -51
27 8 12 4 12 -40 -7 -20 -8 -40 -13 -42 -10 -3 3 -14 1 -24 -5 -13 -7 -26 -6
-41 2 -20 11 -20 13 -5 24 9 7 17 16 17 22 0 5 16 7 36 5 27 -3 35 -1 29 7 -4
7 -14 10 -22 7 -8 -3 -24 -1 -35 5 -16 8 -19 8 -13 -1 5 -8 1 -11 -11 -8 -11
2 -18 10 -16 16 1 7 0 12 -3 12 -3 0 -6 -3 -6 -7z m11 -28 c0 -3 -2 -5 -5 -5
-3 0 -5 2 -5 5 0 3 2 5 5 5 3 0 5 -2 5 -5z m-10 -39 c0 -8 6 -17 13 -20 6 -2
1 -4 -13 -3 -29 2 -44 18 -27 29 18 12 27 10 27 -6z m157 -13 c-4 -3 -10 -3
-14 0 -3 4 0 7 7 7 7 0 10 -3 7 -7z m23 -8 c0 -3 -2 -5 -5 -5 -3 0 -5 2 -5 5
0 3 2 5 5 5 3 0 5 -2 5 -5z"/>
<path d="M320 225 c0 -3 2 -5 5 -5 3 0 5 2 5 5 0 3 -2 5 -5 5 -3 0 -5 -2 -5
-5z"/>
<path d="M168 230 c-45 -20 -62 -35 -31 -27 13 3 25 2 28 -3 3 -4 14 -10 25
-13 11 -3 18 -1 14 4 -7 12 3 11 28 -2 13 -7 18 -7 14 -1 -3 6 2 13 11 15 17
4 17 5 0 6 -14 1 -16 5 -8 19 8 16 6 19 -17 19 -15 0 -44 -8 -64 -17z m42 -1
c-12 -9 -11 -10 6 -6 12 2 21 -1 21 -8 0 -7 -10 -12 -22 -11 -19 1 -23 9 -16
34 1 1 7 2 14 2 8 0 7 -4 -3 -11z m-33 -16 c-4 -3 -10 -3 -14 0 -3 4 0 7 7 7
7 0 10 -3 7 -7z"/>
<path d="M923 233 c9 -2 23 -2 30 0 6 3 -1 5 -18 5 -16 0 -22 -2 -12 -5z"/>
<path d="M926 211 c-3 -5 3 -11 13 -14 14 -3 18 -1 14 9 -6 16 -19 18 -27 5z"/>
<path d="M50 203 c0 -1 10 -7 21 -14 13 -6 19 -7 15 -1 -3 6 2 13 11 15 10 2
3 4 -14 3 -18 0 -33 -2 -33 -3z"/>
<path d="M290 185 c0 -3 2 -5 5 -5 3 0 5 2 5 5 0 3 -2 5 -5 5 -3 0 -5 -2 -5
-5z"/>
<path d="M36 171 c5 -10 1 -11 -15 -6 -12 4 -21 2 -21 -4 0 -6 10 -11 23 -11
21 -1 22 -1 2 -13 -22 -13 -31 -37 -15 -37 12 0 9 -22 -5 -32 -10 -7 19 -13
40 -8 63 14 163 3 121 -13 -10 -4 -15 -3 -11 3 8 13 -5 13 -25 0 -13 -8 -13
-10 3 -11 9 -1 22 -3 27 -4 6 -1 17 -3 26 -4 8 0 13 -5 9 -10 -3 -5 0 -13 6
-17 7 -4 9 -3 5 4 -8 13 12 20 37 14 14 -3 15 -7 6 -12 -7 -5 -2 -7 14 -7 14
1 23 5 21 9 -2 3 -1 8 3 11 5 2 2 2 -5 0 -21 -5 -36 8 -21 18 21 13 -7 12 -33
-2 -13 -7 -23 -8 -30 -1 -11 11 22 34 43 30 6 -2 14 3 16 11 4 9 0 11 -16 6
-14 -4 -21 -2 -21 7 0 12 37 15 115 8 6 0 -1 -7 -14 -14 -20 -11 -21 -14 -7
-19 10 -4 15 -3 11 3 -3 6 -1 10 4 10 6 0 11 -6 11 -14 0 -16 -27 -29 -32 -16
-2 6 -9 5 -18 0 -12 -8 -12 -10 5 -11 11 -1 25 -2 30 -4 6 -1 17 -3 25 -4 12
-1 12 -4 -3 -12 -9 -5 -23 -7 -30 -3 -7 4 -8 3 -4 -2 5 -5 22 -9 39 -10 17 -1
25 1 18 6 -14 9 18 19 39 12 10 -3 11 -6 1 -12 -8 -5 -4 -8 12 -7 13 1 25 7
25 14 0 7 -4 10 -8 8 -11 -7 -40 6 -34 15 2 4 -12 6 -32 4 -20 -1 -33 0 -28 4
15 10 17 32 3 32 -6 0 -9 2 -6 5 3 3 13 2 22 -1 11 -4 13 -9 7 -13 -5 -4 18
-7 52 -8 34 -1 71 -2 82 -3 34 -2 91 15 78 23 -7 5 -22 3 -33 -3 -15 -8 -25
-8 -38 0 -16 11 -16 11 0 6 10 -3 21 1 26 10 6 12 14 13 35 5 15 -6 29 -6 32
-1 8 12 -10 21 -30 14 -19 -8 -17 16 4 32 11 9 12 12 1 19 -9 5 -11 4 -6 -3
10 -16 1 -15 -36 4 -20 10 -28 11 -22 3 5 -9 2 -10 -12 -5 -29 12 -91 17 -74
5 16 -9 15 -10 -37 -14 -20 -2 -30 1 -26 7 3 6 0 8 -8 6 -8 -3 -22 -1 -33 4
-13 7 -16 7 -11 -2 5 -8 1 -11 -12 -8 -11 2 -19 -1 -19 -7 1 -5 18 -9 39 -7
36 3 37 2 20 -16 -18 -18 -59 -22 -83 -7 -9 5 -11 4 -6 -3 9 -15 -3 -15 -33 2
-19 11 -21 14 -7 19 9 4 22 5 29 3 6 -1 9 -1 4 1 -4 3 -4 9 -1 15 4 6 -2 6
-14 -1 -26 -14 -35 -14 -26 0 4 7 1 10 -7 7 -8 -3 -22 -1 -33 4 -11 6 -16 6
-13 1 4 -5 -7 -10 -23 -10 -17 0 -27 5 -23 10 3 6 1 7 -6 3 -6 -4 -9 -12 -6
-17 10 -15 -39 -5 -53 11 -9 10 -11 10 -6 1z m424 -16 c-24 -13 -23 -14 27
-12 28 1 49 5 47 9 -3 4 2 5 10 2 20 -8 16 -26 -9 -41 -28 -17 -34 -16 -30 7
2 12 0 18 -6 15 -5 -4 -7 -10 -4 -15 3 -5 -11 -6 -30 -4 -81 9 -109 11 -96 7
11 -5 11 -7 0 -15 -11 -8 -10 -9 4 -4 9 3 27 2 40 -3 13 -5 30 -5 39 0 18 10
51 1 43 -11 -3 -5 3 -14 12 -20 16 -10 16 -11 -2 -5 -34 12 -99 23 -107 19
-11 -7 -57 19 -57 31 0 14 40 34 55 28 7 -2 25 2 41 11 35 19 57 20 23 1z
m-316 -4 c3 -4 18 -6 32 -3 19 3 25 1 20 -7 -4 -6 0 -14 9 -18 16 -6 16 -7 0
-16 -10 -5 -20 -6 -24 0 -7 11 -27 11 -38 0 -4 -5 -3 -8 2 -7 6 1 17 2 25 1
12 -1 12 -3 2 -10 -11 -7 -10 -9 3 -14 9 -4 14 -3 11 2 -3 5 1 12 10 15 8 3
12 2 9 -4 -3 -6 0 -10 7 -10 8 0 6 -4 -4 -11 -12 -6 -24 -7 -36 0 -10 6 -27
10 -38 10 -10 0 -36 2 -57 5 -20 2 -35 1 -32 -4 3 -5 0 -12 -6 -16 -8 -4 -9
-3 -5 4 4 7 1 12 -6 12 -7 1 -1 8 15 16 21 11 32 12 48 3 23 -12 51 3 30 15
-6 4 -11 3 -11 -3 0 -6 -7 -8 -16 -4 -11 4 -12 8 -4 13 8 5 7 9 -5 13 -9 4
-14 3 -11 -2 3 -4 -6 -13 -20 -20 -31 -14 -31 -14 -31 3 0 16 44 39 58 31 5
-4 17 -1 26 4 22 13 30 13 37 2z m146 4 c0 -3 -2 -5 -5 -5 -3 0 -5 2 -5 5 0 3
2 5 5 5 3 0 5 -2 5 -5z m127 -42 c-4 -3 -10 -3 -14 0 -3 4 0 7 7 7 7 0 10 -3
7 -7z m23 -8 c0 -3 -2 -5 -5 -5 -3 0 -5 2 -5 5 0 3 2 5 5 5 3 0 5 -2 5 -5z
m-190 -30 c0 -3 -2 -5 -5 -5 -3 0 -5 2 -5 5 0 3 2 5 5 5 3 0 5 -2 5 -5z m127
-42 c-4 -3 -10 -3 -14 0 -3 4 0 7 7 7 7 0 10 -3 7 -7z"/>
<path d="M123 143 c4 -3 10 -3 14 0 3 4 0 7 -7 7 -7 0 -10 -3 -7 -7z"/>
<path d="M40 125 c0 -3 2 -5 5 -5 3 0 5 2 5 5 0 3 -2 5 -5 5 -3 0 -5 -2 -5 -5z"/>
<path d="M130 125 c0 -3 2 -5 5 -5 3 0 5 2 5 5 0 3 -2 5 -5 5 -3 0 -5 -2 -5
-5z"/>
<path d="M260 175 c0 -3 2 -5 5 -5 3 0 5 2 5 5 0 3 -2 5 -5 5 -3 0 -5 -2 -5
-5z"/>
<path d="M750 175 c0 -3 2 -5 5 -5 3 0 5 2 5 5 0 3 -2 5 -5 5 -3 0 -5 -2 -5
-5z"/>
<path d="M914 163 c3 -18 46 -28 46 -11 0 5 -10 6 -21 3 -14 -5 -19 -3 -15 3
3 6 2 13 -3 16 -5 4 -8 -2 -7 -11z"/>
<path d="M950 175 c0 -3 2 -5 5 -5 3 0 5 2 5 5 0 3 -2 5 -5 5 -3 0 -5 -2 -5
-5z"/>
<path d="M820 135 c0 -3 2 -5 5 -5 3 0 5 2 5 5 0 3 -2 5 -5 5 -3 0 -5 -2 -5
-5z"/>
<path d="M790 115 c-10 -13 -9 -15 11 -14 13 0 18 3 11 6 -6 2 -10 9 -6 14 9
15 -2 10 -16 -6z"/>
<path d="M275 70 c3 -5 8 -10 11 -10 3 0 2 5 -1 10 -3 6 -8 10 -11 10 -3 0 -2
-4 1 -10z"/>
<path d="M915 70 c3 -5 8 -10 11 -10 3 0 2 5 -1 10 -3 6 -8 10 -11 10 -3 0 -2
-4 1 -10z"/>
<path d="M943 73 c4 -3 10 -3 14 0 3 4 0 7 -7 7 -7 0 -10 -3 -7 -7z"/>
<path d="M577 54 c-15 -8 -33 -12 -39 -8 -7 5 -8 3 -3 -6 8 -13 7 -13 -42 7
-7 3 -13 0 -13 -6 0 -6 3 -10 8 -10 4 1 14 1 22 0 12 -1 12 -3 2 -10 -11 -7
-10 -9 3 -14 9 -4 13 -3 10 3 -3 6 5 10 19 10 14 0 26 5 26 11 0 5 5 7 10 4 6
-3 10 -2 10 4 0 7 8 7 25 1 14 -5 29 -9 33 -9 21 3 31 -3 26 -16 -4 -8 -1 -15
6 -15 6 0 9 4 6 8 -3 5 9 9 26 10 22 0 28 -2 19 -8 -10 -5 -6 -8 12 -7 15 1
27 3 27 4 0 1 -12 9 -27 17 -20 11 -23 15 -10 16 9 0 17 5 17 10 0 6 -13 4
-30 -5 -23 -12 -35 -13 -50 -5 -11 6 -25 8 -30 5 -6 -3 -10 -2 -10 4 0 6 -7 7
-17 4 -11 -4 -14 -3 -9 5 9 15 7 15 -27 -4z m133 -29 c0 -3 -2 -5 -5 -5 -3 0
-5 2 -5 5 0 3 2 5 5 5 3 0 5 -2 5 -5z"/>
<path d="M450 50 c-9 -6 -10 -10 -3 -10 6 0 15 5 18 10 8 12 4 12 -15 0z"/>
<path d="M932 51 c-11 -6 -9 -9 6 -13 15 -4 19 -2 15 8 -6 16 -4 16 -21 5z"/>
<path d="M0 41 c0 -6 3 -10 8 -10 27 5 35 -3 14 -15 -24 -13 -24 -13 7 -13 21
0 27 3 19 9 -10 6 -10 8 2 9 8 1 19 1 23 0 4 -1 16 6 25 16 16 16 16 16 -8 9
-33 -10 -51 -11 -72 -1 -11 4 -18 3 -18 -4z"/>
<path d="M420 45 c0 -3 2 -5 5 -5 3 0 5 2 5 5 0 3 -2 5 -5 5 -3 0 -5 -2 -5 -5z"/>
<path d="M582 16 c-23 -12 -23 -13 10 -13 18 0 27 2 20 5 -6 2 -10 8 -6 13 7
12 4 11 -24 -5z"/>
<path d="M91 11 c-10 -7 -7 -9 12 -8 14 1 23 5 20 10 -6 9 -15 9 -32 -2z"/>
<path d="M157 9 c7 -7 15 -10 18 -7 3 3 -2 9 -12 12 -14 6 -15 5 -6 -5z"/>
<path d="M460 16 c0 -2 7 -7 16 -10 8 -3 12 -2 9 4 -6 10 -25 14 -25 6z"/>
<path d="M637 9 c7 -7 15 -10 18 -7 3 3 -2 9 -12 12 -14 6 -15 5 -6 -5z"/>
<path d="M797 9 c7 -7 15 -10 18 -7 3 3 -2 9 -12 12 -14 6 -15 5 -6 -5z"/>
<path d="M950 15 c0 -3 2 -5 5 -5 3 0 5 2 5 5 0 3 -2 5 -5 5 -3 0 -5 -2 -5 -5z"/>
</g>
<g transform="translate(0.000000,96.000000) scale(0.100000,-0.100000)"
fill="#7c7d73" stroke="none">
<path d="M7 953 c7 -2 19 -2 26 0 6 3 1 5 -13 5 -14 0 -19 -2 -13 -5z"/>
<path d="M60 955 c0 -3 2 -5 5 -5 3 0 5 2 5 5 0 3 -2 5 -5 5 -3 0 -5 -2 -5 -5z"/>
<path d="M130 950 c-12 -8 -10 -9 7 -7 12 2 26 6 29 10 11 11 -19 8 -36 -3z"/>
<path d="M210 950 c-9 -6 -10 -10 -3 -10 6 0 15 5 18 10 8 12 4 12 -15 0z"/>
<path d="M290 950 c-11 -8 -7 -9 15 -4 37 8 45 14 19 14 -10 0 -26 -5 -34 -10z"/>
<path d="M370 950 c-8 -5 -10 -10 -5 -10 6 0 17 5 25 10 8 5 11 10 5 10 -5 0
-17 -5 -25 -10z"/>
<path d="M420 955 c0 -3 2 -5 5 -5 3 0 5 2 5 5 0 3 -2 5 -5 5 -3 0 -5 -2 -5
-5z"/>
<path d="M450 950 c-18 -12 -2 -12 25 0 13 6 15 9 5 9 -8 0 -22 -4 -30 -9z"/>
<path d="M535 950 c-3 -6 1 -7 9 -4 18 7 21 14 7 14 -6 0 -13 -4 -16 -10z"/>
<path d="M574 948 c-4 -7 -3 -8 4 -4 12 7 16 16 8 16 -3 0 -8 -5 -12 -12z"/>
<path d="M610 950 c-18 -12 -2 -12 25 0 13 6 15 9 5 9 -8 0 -22 -4 -30 -9z"/>
<path d="M660 955 c0 -3 2 -5 5 -5 3 0 5 2 5 5 0 3 -2 5 -5 5 -3 0 -5 -2 -5
-5z"/>
<path d="M690 950 c-8 -5 -10 -10 -5 -10 6 0 17 5 25 10 8 5 11 10 5 10 -5 0
-17 -5 -25 -10z"/>
<path d="M740 955 c0 -3 2 -5 5 -5 3 0 5 2 5 5 0 3 -2 5 -5 5 -3 0 -5 -2 -5
-5z"/>
<path d="M783 953 c4 -3 10 -3 14 0 3 4 0 7 -7 7 -7 0 -10 -3 -7 -7z"/>
<path d="M855 950 c-3 -6 1 -7 9 -4 18 7 21 14 7 14 -6 0 -13 -4 -16 -10z"/>
<path d="M920 946 c4 -4 16 -4 26 2 16 9 14 10 -8 9 -15 -1 -23 -6 -18 -11z"/>
<path d="M250 945 c0 -3 2 -5 5 -5 3 0 5 2 5 5 0 3 -2 5 -5 5 -3 0 -5 -2 -5
-5z"/>
<path d="M760 945 c0 -3 2 -5 5 -5 3 0 5 2 5 5 0 3 -2 5 -5 5 -3 0 -5 -2 -5
-5z"/>
<path d="M890 945 c0 -3 2 -5 5 -5 3 0 5 2 5 5 0 3 -2 5 -5 5 -3 0 -5 -2 -5
-5z"/>
<path d="M340 935 c0 -3 2 -5 5 -5 3 0 5 2 5 5 0 3 -2 5 -5 5 -3 0 -5 -2 -5
-5z"/>
<path d="M554 932 c3 -5 0 -13 -6 -15 -9 -4 -10 -6 -1 -6 17 -1 25 16 12 25
-7 4 -9 3 -5 -4z"/>
<path d="M660 935 c0 -3 2 -5 5 -5 3 0 5 2 5 5 0 3 -2 5 -5 5 -3 0 -5 -2 -5
-5z"/>
<path d="M170 925 c0 -3 2 -5 5 -5 3 0 5 2 5 5 0 3 -2 5 -5 5 -3 0 -5 -2 -5
-5z"/>
<path d="M224 914 c-18 -14 -18 -15 4 -4 12 6 22 13 22 15 0 8 -5 6 -26 -11z"/>
<path d="M864 914 c-18 -14 -18 -14 6 -3 31 14 36 19 24 19 -6 0 -19 -7 -30
-16z"/>
<path d="M52 912 c-8 -6 -2 -9 18 -9 20 0 26 3 18 9 -7 4 -15 8 -18 8 -3 0
-11 -4 -18 -8z"/>
<path d="M110 915 c0 -3 2 -5 5 -5 3 0 5 2 5 5 0 3 -2 5 -5 5 -3 0 -5 -2 -5
-5z"/>
<path d="M140 909 c0 -5 5 -7 10 -4 6 3 10 8 10 11 0 2 -4 4 -10 4 -5 0 -10
-5 -10 -11z"/>
<path d="M375 910 c-3 -6 1 -7 9 -4 18 7 21 14 7 14 -6 0 -13 -4 -16 -10z"/>
<path d="M430 915 c0 -3 2 -5 5 -5 3 0 5 2 5 5 0 3 -2 5 -5 5 -3 0 -5 -2 -5
-5z"/>
<path d="M470 915 c0 -3 2 -5 5 -5 3 0 5 2 5 5 0 3 -2 5 -5 5 -3 0 -5 -2 -5
-5z"/>
<path d="M590 915 c0 -3 2 -5 5 -5 3 0 5 2 5 5 0 3 -2 5 -5 5 -3 0 -5 -2 -5
-5z"/>
<path d="M630 915 c0 -3 2 -5 5 -5 3 0 5 2 5 5 0 3 -2 5 -5 5 -3 0 -5 -2 -5
-5z"/>
<path d="M692 912 c-8 -6 -2 -9 18 -9 20 0 26 3 18 9 -7 4 -15 8 -18 8 -3 0
-11 -4 -18 -8z"/>
<path d="M797 909 c7 -7 15 -10 18 -7 3 3 -2 9 -12 12 -14 6 -15 5 -6 -5z"/>
<path d="M910 915 c0 -3 2 -5 5 -5 3 0 5 2 5 5 0 3 -2 5 -5 5 -3 0 -5 -2 -5
-5z"/>
<path d="M3 903 c4 -3 10 -3 14 0 3 4 0 7 -7 7 -7 0 -10 -3 -7 -7z"/>
<path d="M250 905 c0 -3 2 -5 5 -5 3 0 5 2 5 5 0 3 -2 5 -5 5 -3 0 -5 -2 -5
-5z"/>
<path d="M280 905 c0 -3 2 -5 5 -5 3 0 5 2 5 5 0 3 -2 5 -5 5 -3 0 -5 -2 -5
-5z"/>
<path d="M323 903 c4 -3 10 -3 14 0 3 4 0 7 -7 7 -7 0 -10 -3 -7 -7z"/>
<path d="M410 905 c0 -3 2 -5 5 -5 3 0 5 2 5 5 0 3 -2 5 -5 5 -3 0 -5 -2 -5
-5z"/>
<path d="M490 905 c0 -3 2 -5 5 -5 3 0 5 2 5 5 0 3 -2 5 -5 5 -3 0 -5 -2 -5
-5z"/>
<path d="M570 905 c0 -3 2 -5 5 -5 3 0 5 2 5 5 0 3 -2 5 -5 5 -3 0 -5 -2 -5
-5z"/>
<path d="M194 891 c4 -6 1 -11 -6 -11 -17 0 12 -20 30 -20 19 0 14 18 -9 31
-15 8 -19 8 -15 0z m23 -18 c-4 -3 -10 -3 -14 0 -3 4 0 7 7 7 7 0 10 -3 7 -7z"/>
<path d="M354 892 c4 -7 1 -12 -6 -12 -8 0 -6 -5 5 -11 19 -11 57 -3 57 12 0
6 -7 6 -19 -1 -24 -12 -34 -13 -26 -1 3 5 0 13 -6 17 -8 4 -9 3 -5 -4z"/>
<path d="M834 892 c3 -5 0 -13 -6 -15 -9 -4 -8 -6 2 -7 10 0 6 -6 -10 -16 -25
-15 -25 -15 -1 -8 16 4 21 3 17 -5 -5 -7 -1 -8 9 -4 12 4 13 8 5 13 -8 5 0 12
21 19 18 6 30 14 26 17 -3 3 -14 1 -25 -5 -25 -13 -35 -14 -27 -2 3 5 0 13 -6
17 -7 4 -9 3 -5 -4z"/>
<path d="M30 880 c-13 -9 -13 -10 0 -10 9 -1 6 -6 -9 -14 -21 -12 -21 -14 -6
-20 10 -3 20 -4 23 -1 3 3 -1 5 -9 5 -8 1 -2 8 14 16 15 8 31 12 36 10 5 -3
12 1 15 10 4 12 2 15 -9 10 -8 -3 -22 -9 -32 -13 -11 -4 -14 -3 -9 5 9 14 6
15 -14 2z"/>
<path d="M240 879 c0 -5 5 -7 10 -4 6 3 10 8 10 11 0 2 -4 4 -10 4 -5 0 -10
-5 -10 -11z"/>
<path d="M320 885 c0 -3 2 -5 5 -5 3 0 5 2 5 5 0 3 -2 5 -5 5 -3 0 -5 -2 -5
-5z"/>
<path d="M510 880 c-16 -10 -13 -12 33 -14 26 -2 27 -1 11 11 -21 15 -24 16
-44 3z m27 -7 c-4 -3 -10 -3 -14 0 -3 4 0 7 7 7 7 0 10 -3 7 -7z"/>
<path d="M672 881 c-11 -7 -10 -9 3 -15 15 -5 55 8 55 20 0 2 -9 0 -19 -6 -25
-13 -34 -13 -26 0 7 12 4 12 -13 1z"/>
<path d="M110 875 c0 -3 2 -5 5 -5 3 0 5 2 5 5 0 3 -2 5 -5 5 -3 0 -5 -2 -5
-5z"/>
<path d="M143 873 c4 -3 10 -3 14 0 3 4 0 7 -7 7 -7 0 -10 -3 -7 -7z"/>
<path d="M270 875 c0 -3 2 -5 5 -5 3 0 5 2 5 5 0 3 -2 5 -5 5 -3 0 -5 -2 -5
-5z"/>
<path d="M300 875 c0 -3 2 -5 5 -5 3 0 5 2 5 5 0 3 -2 5 -5 5 -3 0 -5 -2 -5
-5z"/>
<path d="M423 873 c4 -3 10 -3 14 0 3 4 0 7 -7 7 -7 0 -10 -3 -7 -7z"/>
<path d="M450 876 c0 -2 9 -6 20 -9 11 -3 18 -1 14 4 -5 9 -34 13 -34 5z"/>
<path d="M590 875 c0 -3 2 -5 5 -5 3 0 5 2 5 5 0 3 -2 5 -5 5 -3 0 -5 -2 -5
-5z"/>
<path d="M618 873 c7 -3 16 -2 19 1 4 3 -2 6 -13 5 -11 0 -14 -3 -6 -6z"/>
<path d="M780 876 c0 -2 7 -7 16 -10 8 -3 12 -2 9 4 -6 10 -25 14 -25 6z"/>
<path d="M910 875 c0 -3 2 -5 5 -5 3 0 5 2 5 5 0 3 -2 5 -5 5 -3 0 -5 -2 -5
-5z"/>
<path d="M943 873 c4 -3 10 -3 14 0 3 4 0 7 -7 7 -7 0 -10 -3 -7 -7z"/>
<path d="M130 850 c-13 -8 -12 -10 3 -10 9 0 17 5 17 10 0 12 -1 12 -20 0z"/>
<path d="M290 850 c-9 -6 -10 -10 -3 -10 6 0 15 5 18 10 8 12 4 12 -15 0z"/>
<path d="M330 850 c-9 -6 -10 -10 -3 -10 6 0 15 5 18 10 8 12 4 12 -15 0z"/>
<path d="M445 850 c-3 -5 -2 -10 4 -10 5 0 13 5 16 10 3 6 2 10 -4 10 -5 0
-13 -4 -16 -10z"/>
<path d="M492 852 c-9 -6 -5 -12 15 -20 24 -11 26 -10 11 1 -10 8 -15 17 -11
20 9 9 1 8 -15 -1z"/>
<path d="M610 850 c-13 -9 -13 -10 0 -11 8 0 24 -2 36 -3 11 -1 21 3 21 10 0
9 -5 10 -18 4 -11 -6 -19 -6 -21 0 -2 6 -8 6 -18 0z"/>
<path d="M770 850 c-9 -6 -10 -10 -3 -10 6 0 15 5 18 10 8 12 4 12 -15 0z"/>
<path d="M930 850 c-9 -6 -10 -10 -3 -10 6 0 15 5 18 10 8 12 4 12 -15 0z"/>
<path d="M90 845 c0 -3 2 -5 5 -5 3 0 5 2 5 5 0 3 -2 5 -5 5 -3 0 -5 -2 -5 -5z"/>
<path d="M163 843 c4 -3 10 -3 14 0 3 4 0 7 -7 7 -7 0 -10 -3 -7 -7z"/>
<path d="M203 843 c4 -3 10 -3 14 0 3 4 0 7 -7 7 -7 0 -10 -3 -7 -7z"/>
<path d="M240 845 c0 -3 2 -5 5 -5 3 0 5 2 5 5 0 3 -2 5 -5 5 -3 0 -5 -2 -5
-5z"/>
<path d="M260 845 c0 -3 2 -5 5 -5 3 0 5 2 5 5 0 3 -2 5 -5 5 -3 0 -5 -2 -5
-5z"/>
<path d="M392 841 c-11 -7 -10 -9 3 -14 9 -4 13 -3 10 2 -3 5 3 12 12 14 13 3
14 5 3 6 -8 0 -21 -3 -28 -8z"/>
<path d="M530 845 c0 -3 2 -5 5 -5 3 0 5 2 5 5 0 3 -2 5 -5 5 -3 0 -5 -2 -5
-5z"/>
<path d="M555 841 c-3 -5 0 -13 6 -17 7 -4 9 -3 5 4 -3 6 2 13 11 15 16 4 16
5 1 6 -9 0 -19 -3 -23 -8z"/>
<path d="M740 845 c0 -3 2 -5 5 -5 3 0 5 2 5 5 0 3 -2 5 -5 5 -3 0 -5 -2 -5
-5z"/>
<path d="M875 841 c-3 -5 0 -13 6 -17 7 -4 9 -3 5 4 -3 5 0 13 6 15 9 4 10 6
1 6 -6 1 -14 -3 -18 -8z"/>
<path d="M75 830 c3 -5 8 -10 11 -10 3 0 2 5 -1 10 -3 6 -8 10 -11 10 -3 0 -2
-4 1 -10z"/>
<path d="M350 835 c0 -3 2 -5 5 -5 3 0 5 2 5 5 0 3 -2 5 -5 5 -3 0 -5 -2 -5
-5z"/>
<path d="M240 825 c0 -3 2 -5 5 -5 3 0 5 2 5 5 0 3 -2 5 -5 5 -3 0 -5 -2 -5
-5z"/>
<path d="M720 825 c0 -3 2 -5 5 -5 3 0 5 2 5 5 0 3 -2 5 -5 5 -3 0 -5 -2 -5
-5z"/>
<path d="M830 815 c0 -3 2 -5 5 -5 3 0 5 2 5 5 0 3 -2 5 -5 5 -3 0 -5 -2 -5
-5z"/>
<path d="M3 803 c4 -3 10 -3 14 0 3 4 0 7 -7 7 -7 0 -10 -3 -7 -7z"/>
<path d="M35 800 c-7 -12 -7 -12 27 -14 15 -1 24 2 21 6 -2 5 -14 6 -25 2 -14
-4 -18 -2 -14 5 4 6 5 11 2 11 -3 0 -8 -4 -11 -10z"/>
<path d="M140 794 l-25 -15 25 7 c14 3 29 10 35 15 15 14 -7 10 -35 -7z"/>
<path d="M316 802 c-2 -4 4 -8 14 -8 10 0 16 4 14 8 -3 4 -9 8 -14 8 -5 0 -11
-4 -14 -8z"/>
<path d="M471 801 c-8 -5 -32 -8 -53 -6 -21 2 -40 0 -42 -4 -3 -4 19 -6 47 -4
29 2 63 3 77 3 20 0 22 2 10 10 -18 12 -21 12 -39 1z"/>
<path d="M600 805 c0 -3 2 -5 5 -5 3 0 5 2 5 5 0 3 -2 5 -5 5 -3 0 -5 -2 -5
-5z"/>
<path d="M620 794 c-16 -10 -18 -13 -5 -8 11 4 28 6 38 6 9 0 15 3 12 9 -8 12
-15 11 -45 -7z"/>
<path d="M790 800 c-12 -8 -9 -9 12 -8 15 1 24 6 22 10 -7 10 -16 10 -34 -2z"/>
<path d="M100 795 c0 -3 2 -5 5 -5 3 0 5 2 5 5 0 3 -2 5 -5 5 -3 0 -5 -2 -5
-5z"/>
<path d="M200 786 c4 -4 16 -4 26 2 16 9 14 10 -8 9 -15 -1 -23 -6 -18 -11z"/>
<path d="M260 795 c0 -3 2 -5 5 -5 3 0 5 2 5 5 0 3 -2 5 -5 5 -3 0 -5 -2 -5
-5z"/>
<path d="M543 793 c4 -3 10 -3 14 0 3 4 0 7 -7 7 -7 0 -10 -3 -7 -7z"/>
<path d="M730 790 c-9 -6 -10 -10 -3 -10 6 0 15 5 18 10 8 12 4 12 -15 0z"/>
<path d="M855 790 c-3 -6 1 -7 9 -4 18 7 21 14 7 14 -6 0 -13 -4 -16 -10z"/>
<path d="M930 790 c-8 -5 -10 -10 -5 -10 6 0 17 5 25 10 8 5 11 10 5 10 -5 0
-17 -5 -25 -10z"/>
<path d="M280 785 c0 -3 2 -5 5 -5 3 0 5 2 5 5 0 3 -2 5 -5 5 -3 0 -5 -2 -5
-5z"/>
<path d="M570 785 c0 -3 2 -5 5 -5 3 0 5 2 5 5 0 3 -2 5 -5 5 -3 0 -5 -2 -5
-5z"/>
<path d="M690 785 c0 -3 2 -5 5 -5 3 0 5 2 5 5 0 3 -2 5 -5 5 -3 0 -5 -2 -5
-5z"/>
<path d="M760 785 c0 -3 2 -5 5 -5 3 0 5 2 5 5 0 3 -2 5 -5 5 -3 0 -5 -2 -5
-5z"/>
<path d="M890 785 c0 -3 2 -5 5 -5 3 0 5 2 5 5 0 3 -2 5 -5 5 -3 0 -5 -2 -5
-5z"/>
<path d="M14 762 c3 -5 0 -13 -6 -15 -9 -4 -10 -6 -1 -6 17 -1 25 16 12 25 -7
4 -9 3 -5 -4z"/>
<path d="M55 750 c-3 -6 1 -7 9 -4 18 7 21 14 7 14 -6 0 -13 -4 -16 -10z"/>
<path d="M110 755 c0 -3 2 -5 5 -5 3 0 5 2 5 5 0 3 -2 5 -5 5 -3 0 -5 -2 -5
-5z"/>
<path d="M160 746 c7 -7 13 -7 20 0 6 6 3 10 -10 10 -13 0 -16 -4 -10 -10z"/>
<path d="M230 755 c0 -3 2 -5 5 -5 3 0 5 2 5 5 0 3 -2 5 -5 5 -3 0 -5 -2 -5
-5z"/>
<path d="M277 749 c7 -7 15 -10 18 -7 3 3 -2 9 -12 12 -14 6 -15 5 -6 -5z"/>
<path d="M390 755 c0 -3 2 -5 5 -5 3 0 5 2 5 5 0 3 -2 5 -5 5 -3 0 -5 -2 -5
-5z"/>
<path d="M430 755 c0 -3 2 -5 5 -5 3 0 5 2 5 5 0 3 -2 5 -5 5 -3 0 -5 -2 -5
-5z"/>
<path d="M480 746 c7 -7 13 -7 20 0 6 6 3 10 -10 10 -13 0 -16 -4 -10 -10z"/>
<path d="M530 745 c-7 -8 -9 -15 -6 -15 4 0 14 7 22 15 9 8 11 15 6 15 -5 0
-15 -7 -22 -15z"/>
<path d="M624 748 c-4 -7 -3 -8 4 -4 12 7 16 16 8 16 -3 0 -8 -5 -12 -12z"/>
<path d="M695 750 c-3 -6 1 -7 9 -4 18 7 21 14 7 14 -6 0 -13 -4 -16 -10z"/>
<path d="M870 755 c0 -3 2 -5 5 -5 3 0 5 2 5 5 0 3 -2 5 -5 5 -3 0 -5 -2 -5
-5z"/>
<path d="M950 755 c0 -3 2 -5 5 -5 3 0 5 2 5 5 0 3 -2 5 -5 5 -3 0 -5 -2 -5
-5z"/>
<path d="M210 745 c0 -3 2 -5 5 -5 3 0 5 2 5 5 0 3 -2 5 -5 5 -3 0 -5 -2 -5
-5z"/>
<path d="M250 745 c0 -3 2 -5 5 -5 3 0 5 2 5 5 0 3 -2 5 -5 5 -3 0 -5 -2 -5
-5z"/>
<path d="M330 745 c0 -3 2 -5 5 -5 3 0 5 2 5 5 0 3 -2 5 -5 5 -3 0 -5 -2 -5
-5z"/>
<path d="M363 743 c4 -3 10 -3 14 0 3 4 0 7 -7 7 -7 0 -10 -3 -7 -7z"/>
<path d="M410 745 c0 -3 2 -5 5 -5 3 0 5 2 5 5 0 3 -2 5 -5 5 -3 0 -5 -2 -5
-5z"/>
<path d="M570 745 c0 -3 2 -5 5 -5 3 0 5 2 5 5 0 3 -2 5 -5 5 -3 0 -5 -2 -5
-5z"/>
<path d="M600 745 c0 -3 2 -5 5 -5 3 0 5 2 5 5 0 3 -2 5 -5 5 -3 0 -5 -2 -5
-5z"/>
<path d="M730 745 c0 -3 2 -5 5 -5 3 0 5 2 5 5 0 3 -2 5 -5 5 -3 0 -5 -2 -5
-5z"/>
<path d="M760 745 c0 -3 2 -5 5 -5 3 0 5 2 5 5 0 3 -2 5 -5 5 -3 0 -5 -2 -5
-5z"/>
<path d="M810 740 c8 -5 20 -10 25 -10 6 0 3 5 -5 10 -8 5 -19 10 -25 10 -5 0
-3 -5 5 -10z"/>
<path d="M850 745 c0 -3 2 -5 5 -5 3 0 5 2 5 5 0 3 -2 5 -5 5 -3 0 -5 -2 -5
-5z"/>
<path d="M890 745 c0 -3 2 -5 5 -5 3 0 5 2 5 5 0 3 -2 5 -5 5 -3 0 -5 -2 -5
-5z"/>
<path d="M920 745 c0 -3 2 -5 5 -5 3 0 5 2 5 5 0 3 -2 5 -5 5 -3 0 -5 -2 -5
-5z"/>
<path d="M70 720 c-8 -5 -24 -7 -35 -4 -16 4 -17 3 -4 -5 17 -11 59 -4 59 10
0 11 -1 11 -20 -1z"/>
<path d="M243 723 c4 -3 10 -3 14 0 3 4 0 7 -7 7 -7 0 -10 -3 -7 -7z"/>
<path d="M400 725 c0 -3 2 -5 5 -5 3 0 5 2 5 5 0 3 -2 5 -5 5 -3 0 -5 -2 -5
-5z"/>
<path d="M560 725 c0 -3 2 -5 5 -5 3 0 5 2 5 5 0 3 -2 5 -5 5 -3 0 -5 -2 -5
-5z"/>
<path d="M672 721 c-11 -6 -10 -10 4 -15 9 -3 19 -4 22 -1 3 3 0 5 -7 5 -7 0
-9 5 -6 10 7 12 4 12 -13 1z"/>
<path d="M730 720 c8 -5 20 -10 25 -10 6 0 3 5 -5 10 -8 5 -19 10 -25 10 -5 0
-3 -5 5 -10z"/>
<path d="M880 726 c0 -2 7 -7 16 -10 8 -3 12 -2 9 4 -6 10 -25 14 -25 6z"/>
<path d="M110 715 c0 -3 2 -5 5 -5 3 0 5 2 5 5 0 3 -2 5 -5 5 -3 0 -5 -2 -5
-5z"/>
<path d="M143 713 c4 -3 10 -3 14 0 3 4 0 7 -7 7 -7 0 -10 -3 -7 -7z"/>
<path d="M180 715 c0 -3 2 -5 5 -5 3 0 5 2 5 5 0 3 -2 5 -5 5 -3 0 -5 -2 -5
-5z"/>
<path d="M330 710 c-9 -6 -10 -10 -3 -10 6 0 15 5 18 10 8 12 4 12 -15 0z"/>
<path d="M370 710 c-13 -8 -12 -10 3 -10 9 0 17 5 17 10 0 12 -1 12 -20 0z"/>
<path d="M460 716 c0 -2 7 -7 16 -10 8 -3 12 -2 9 4 -6 10 -25 14 -25 6z"/>
<path d="M500 715 c0 -3 2 -5 5 -5 3 0 5 2 5 5 0 3 -2 5 -5 5 -3 0 -5 -2 -5
-5z"/>
<path d="M590 715 c0 -3 2 -5 5 -5 3 0 5 2 5 5 0 3 -2 5 -5 5 -3 0 -5 -2 -5
-5z"/>
<path d="M623 713 c4 -3 10 -3 14 0 3 4 0 7 -7 7 -7 0 -10 -3 -7 -7z"/>
<path d="M783 713 c4 -3 10 -3 14 0 3 4 0 7 -7 7 -7 0 -10 -3 -7 -7z"/>
<path d="M820 715 c0 -3 2 -5 5 -5 3 0 5 2 5 5 0 3 -2 5 -5 5 -3 0 -5 -2 -5
-5z"/>
<path d="M950 715 c0 -3 2 -5 5 -5 3 0 5 2 5 5 0 3 -2 5 -5 5 -3 0 -5 -2 -5
-5z"/>
<path d="M200 705 c0 -3 2 -5 5 -5 3 0 5 2 5 5 0 3 -2 5 -5 5 -3 0 -5 -2 -5
-5z"/>
<path d="M523 703 c4 -3 10 -3 14 0 3 4 0 7 -7 7 -7 0 -10 -3 -7 -7z"/>
<path d="M840 705 c0 -3 2 -5 5 -5 3 0 5 2 5 5 0 3 -2 5 -5 5 -3 0 -5 -2 -5
-5z"/>
<path d="M20 695 c0 -3 2 -5 5 -5 3 0 5 2 5 5 0 3 -2 5 -5 5 -3 0 -5 -2 -5 -5z"/>
<path d="M130 690 c-9 -6 -10 -10 -3 -10 6 0 15 5 18 10 8 12 4 12 -15 0z"/>
<path d="M170 690 c-9 -6 -10 -10 -3 -10 6 0 15 5 18 10 8 12 4 12 -15 0z"/>
<path d="M450 690 c-9 -6 -10 -10 -3 -10 6 0 15 5 18 10 8 12 4 12 -15 0z"/>
<path d="M500 695 c0 -3 2 -5 5 -5 3 0 5 2 5 5 0 3 -2 5 -5 5 -3 0 -5 -2 -5
-5z"/>
<path d="M770 690 c-9 -6 -10 -10 -3 -10 6 0 15 5 18 10 8 12 4 12 -15 0z"/>
<path d="M887 689 c-9 -6 -15 -14 -12 -20 4 -5 13 -2 22 6 19 20 14 27 -10 14z"/>
<path d="M932 691 c-11 -6 -9 -9 6 -13 15 -4 19 -2 15 8 -6 16 -4 16 -21 5z"/>
<path d="M232 681 c-11 -7 -11 -9 0 -14 9 -3 15 1 15 9 0 8 -1 14 -1 14 -1 0
-7 -4 -14 -9z"/>
<path d="M260 685 c0 -3 2 -5 5 -5 3 0 5 2 5 5 0 3 -2 5 -5 5 -3 0 -5 -2 -5
-5z"/>
<path d="M280 686 c0 -2 9 -6 20 -9 11 -3 18 -1 14 4 -5 9 -34 13 -34 5z"/>
<path d="M480 685 c0 -3 2 -5 5 -5 3 0 5 2 5 5 0 3 -2 5 -5 5 -3 0 -5 -2 -5
-5z"/>
<path d="M555 681 c-6 -11 13 -26 22 -17 4 3 1 6 -6 6 -7 0 -9 5 -6 10 3 6 4
10 1 10 -3 0 -7 -4 -11 -9z"/>
<path d="M580 685 c0 -3 2 -5 5 -5 3 0 5 2 5 5 0 3 -2 5 -5 5 -3 0 -5 -2 -5
-5z"/>
<path d="M603 683 c4 -3 10 -3 14 0 3 4 0 7 -7 7 -7 0 -10 -3 -7 -7z"/>
<path d="M800 686 c0 -2 7 -7 16 -10 8 -3 12 -2 9 4 -6 10 -25 14 -25 6z"/>
<path d="M33 665 c0 -8 4 -12 9 -9 5 3 6 10 3 15 -9 13 -12 11 -12 -6z"/>
<path d="M60 676 c0 -2 7 -7 16 -10 8 -3 12 -2 9 4 -6 10 -25 14 -25 6z"/>
<path d="M340 675 c0 -3 2 -5 5 -5 3 0 5 2 5 5 0 3 -2 5 -5 5 -3 0 -5 -2 -5
-5z"/>
<path d="M380 676 c0 -2 7 -7 16 -10 8 -3 12 -2 9 4 -6 10 -25 14 -25 6z"/>
<path d="M510 670 c8 -5 20 -10 25 -10 6 0 3 5 -5 10 -8 5 -19 10 -25 10 -5 0
-3 -5 5 -10z"/>
<path d="M630 675 c0 -3 2 -5 5 -5 3 0 5 2 5 5 0 3 -2 5 -5 5 -3 0 -5 -2 -5
-5z"/>
<path d="M660 675 c0 -3 2 -5 5 -5 3 0 5 2 5 5 0 3 -2 5 -5 5 -3 0 -5 -2 -5
-5z"/>
<path d="M700 676 c0 -2 7 -7 16 -10 8 -3 12 -2 9 4 -6 10 -25 14 -25 6z"/>
<path d="M194 658 c-4 -7 -3 -8 4 -4 12 7 16 16 8 16 -3 0 -8 -5 -12 -12z"/>
<path d="M100 655 c0 -3 2 -5 5 -5 3 0 5 2 5 5 0 3 -2 5 -5 5 -3 0 -5 -2 -5
-5z"/>
<path d="M598 649 c6 -9 9 -19 5 -23 -6 -6 58 3 65 10 2 1 -6 8 -18 14 -15 8
-20 8 -16 1 10 -15 -17 -14 -34 2 -12 10 -12 9 -2 -4z"/>
<path d="M675 650 c3 -5 8 -10 11 -10 3 0 2 5 -1 10 -3 6 -8 10 -11 10 -3 0
-2 -4 1 -10z"/>
<path d="M835 650 c3 -5 8 -10 11 -10 3 0 2 5 -1 10 -3 6 -8 10 -11 10 -3 0
-2 -4 1 -10z"/>
<path d="M950 655 c0 -3 2 -5 5 -5 3 0 5 2 5 5 0 3 -2 5 -5 5 -3 0 -5 -2 -5
-5z"/>
<path d="M0 640 c0 -7 3 -10 7 -7 3 4 3 10 0 14 -4 3 -7 0 -7 -7z"/>
<path d="M120 645 c0 -3 2 -5 5 -5 3 0 5 2 5 5 0 3 -2 5 -5 5 -3 0 -5 -2 -5
-5z"/>
<path d="M140 635 c-14 -8 -20 -14 -15 -14 6 0 21 6 35 14 14 8 21 14 15 14
-5 0 -21 -6 -35 -14z"/>
<path d="M253 635 c0 -8 4 -12 9 -9 5 3 6 10 3 15 -9 13 -12 11 -12 -6z"/>
<path d="M280 645 c0 -3 2 -5 5 -5 3 0 5 2 5 5 0 3 -2 5 -5 5 -3 0 -5 -2 -5
-5z"/>
<path d="M300 634 l-25 -15 25 7 c28 7 35 12 29 18 -2 2 -15 -2 -29 -10z"/>
<path d="M415 640 c3 -5 8 -10 11 -10 3 0 2 5 -1 10 -3 6 -8 10 -11 10 -3 0
-2 -4 1 -10z"/>
<path d="M465 635 c-25 -12 -26 -14 -5 -9 14 4 29 10 35 15 12 12 5 11 -30 -6z"/>
<path d="M733 635 c0 -8 4 -12 9 -9 5 3 6 10 3 15 -9 13 -12 11 -12 -6z"/>
<path d="M760 645 c0 -3 2 -5 5 -5 3 0 5 2 5 5 0 3 -2 5 -5 5 -3 0 -5 -2 -5
-5z"/>
<path d="M790 640 c-9 -6 -10 -10 -3 -10 6 0 15 5 18 10 8 12 4 12 -15 0z"/>
<path d="M905 637 c-16 -13 -15 -14 14 -12 17 1 34 5 39 10 4 4 -4 4 -17 0
-16 -5 -21 -4 -17 4 9 15 4 14 -19 -2z"/>
<path d="M23 633 c4 -3 10 -3 14 0 3 4 0 7 -7 7 -7 0 -10 -3 -7 -7z"/>
<path d="M55 630 c-3 -6 1 -7 9 -4 18 7 21 14 7 14 -6 0 -13 -4 -16 -10z"/>
<path d="M215 630 c-3 -6 1 -7 9 -4 18 7 21 14 7 14 -6 0 -13 -4 -16 -10z"/>
<path d="M360 626 c4 -4 16 -4 26 2 16 9 14 10 -8 9 -15 -1 -23 -6 -18 -11z"/>
<path d="M530 630 c-8 -5 -10 -10 -5 -10 6 0 17 5 25 10 8 5 11 10 5 10 -5 0
-17 -5 -25 -10z"/>
<path d="M574 628 c-4 -7 -3 -8 4 -4 7 4 12 9 12 12 0 8 -9 4 -16 -8z"/>
<path d="M690 630 c-9 -6 -10 -10 -3 -10 6 0 15 5 18 10 8 12 4 12 -15 0z"/>
<path d="M854 628 c-4 -7 -3 -8 4 -4 7 4 12 9 12 12 0 8 -9 4 -16 -8z"/>
<path d="M90 625 c0 -3 2 -5 5 -5 3 0 5 2 5 5 0 3 -2 5 -5 5 -3 0 -5 -2 -5 -5z"/>
<path d="M224 594 c-18 -14 -18 -15 4 -4 12 6 22 13 22 15 0 8 -5 6 -26 -11z"/>
<path d="M547 598 c-15 -12 -14 -13 10 -14 16 -1 22 1 15 3 -6 3 -10 9 -6 14
7 12 1 11 -19 -3z"/>
<path d="M810 605 c0 -3 2 -5 5 -5 3 0 5 2 5 5 0 3 -2 5 -5 5 -3 0 -5 -2 -5
-5z"/>
<path d="M874 598 c-4 -7 -3 -8 4 -4 12 7 16 16 8 16 -3 0 -8 -5 -12 -12z"/>
<path d="M50 590 c-8 -5 -24 -7 -35 -4 -16 4 -15 2 4 -9 18 -11 20 -16 10 -20
-11 -4 -11 -6 -1 -6 7 -1 10 -5 7 -11 -8 -13 23 -1 50 18 20 15 14 14 -30 -4
-10 -4 -15 -2 -13 7 4 21 20 29 43 23 16 -4 17 -3 5 5 -18 13 -21 13 -40 1z"/>
<path d="M270 595 c0 -3 2 -5 5 -5 3 0 5 2 5 5 0 3 -2 5 -5 5 -3 0 -5 -2 -5
-5z"/>
<path d="M326 583 c10 -7 23 -13 28 -13 6 0 4 -5 -4 -10 -13 -9 -13 -10 0 -10
9 -1 6 -6 -10 -16 -25 -16 -20 -14 43 8 15 5 27 14 27 19 0 6 -8 5 -19 -1 -25
-13 -34 -13 -26 0 3 6 -1 13 -9 16 -9 3 -14 9 -12 13 3 4 -4 7 -15 7 -19 0
-19 -1 -3 -13z"/>
<path d="M377 593 c-3 -5 6 -9 20 -10 19 -1 22 1 12 8 -17 11 -26 11 -32 2z"/>
<path d="M430 595 c0 -3 2 -5 5 -5 3 0 5 2 5 5 0 3 -2 5 -5 5 -3 0 -5 -2 -5
-5z"/>
<path d="M477 589 c7 -7 15 -10 18 -7 3 3 -2 9 -12 12 -14 6 -15 5 -6 -5z"/>
<path d="M595 590 c3 -5 8 -10 11 -10 3 0 2 5 -1 10 -3 6 -8 10 -11 10 -3 0
-2 -4 1 -10z"/>
<path d="M620 589 c0 -5 5 -7 10 -4 6 3 10 8 10 11 0 2 -4 4 -10 4 -5 0 -10
-5 -10 -11z"/>
<path d="M687 589 c-9 -6 -15 -14 -12 -20 4 -5 0 -9 -7 -9 -8 0 -5 -5 5 -11
14 -8 22 -8 30 1 9 8 8 10 -6 4 -12 -4 -17 -2 -15 7 4 21 20 29 43 23 16 -4
17 -3 5 5 -18 13 -20 13 -43 0z"/>
<path d="M797 589 c7 -7 15 -10 18 -7 3 3 -2 9 -12 12 -14 6 -15 5 -6 -5z"/>
<path d="M910 595 c0 -3 2 -5 5 -5 3 0 5 2 5 5 0 3 -2 5 -5 5 -3 0 -5 -2 -5
-5z"/>
<path d="M163 583 c4 -3 10 -3 14 0 3 4 0 7 -7 7 -7 0 -10 -3 -7 -7z"/>
<path d="M250 585 c0 -3 2 -5 5 -5 3 0 5 2 5 5 0 3 -2 5 -5 5 -3 0 -5 -2 -5
-5z"/>
<path d="M850 585 c0 -3 2 -5 5 -5 3 0 5 2 5 5 0 3 -2 5 -5 5 -3 0 -5 -2 -5
-5z"/>
<path d="M190 575 c0 -3 2 -5 5 -5 3 0 5 2 5 5 0 3 -2 5 -5 5 -3 0 -5 -2 -5
-5z"/>
<path d="M834 572 c3 -5 0 -13 -6 -15 -9 -4 -8 -6 2 -7 10 0 7 -5 -8 -14 -24
-13 -24 -13 7 -13 19 0 27 3 19 8 -13 8 36 25 62 21 11 -2 10 0 -2 8 -12 8
-24 8 -37 0 -24 -12 -34 -13 -26 -1 3 5 0 13 -6 17 -7 4 -9 3 -5 -4z"/>
<path d="M250 565 c0 -3 2 -5 5 -5 3 0 5 2 5 5 0 3 -2 5 -5 5 -3 0 -5 -2 -5
-5z"/>
<path d="M505 554 c15 -11 14 -13 -6 -19 -20 -7 -20 -8 -6 -17 11 -6 23 -5 35
1 13 8 14 11 2 11 -12 0 -11 3 3 11 9 5 22 7 27 4 6 -3 10 0 10 7 0 9 -13 13
-40 13 -34 0 -38 -2 -25 -11z m32 -1 c-4 -3 -10 -3 -14 0 -3 4 0 7 7 7 7 0 10
-3 7 -7z m-20 -30 c-4 -3 -10 -3 -14 0 -3 4 0 7 7 7 7 0 10 -3 7 -7z"/>
<path d="M720 565 c0 -3 2 -5 5 -5 3 0 5 2 5 5 0 3 -2 5 -5 5 -3 0 -5 -2 -5
-5z"/>
<path d="M140 556 c0 -2 7 -7 16 -10 8 -3 12 -2 9 4 -6 10 -25 14 -25 6z"/>
<path d="M191 549 c8 -4 4 -9 -10 -14 -13 -4 -21 -9 -18 -11 4 -4 77 24 77 29
0 2 -14 4 -30 4 -17 0 -26 -4 -19 -8z"/>
<path d="M310 555 c0 -3 2 -5 5 -5 3 0 5 2 5 5 0 3 -2 5 -5 5 -3 0 -5 -2 -5
-5z"/>
<path d="M430 555 c0 -3 2 -5 5 -5 3 0 5 2 5 5 0 3 -2 5 -5 5 -3 0 -5 -2 -5
-5z"/>
<path d="M460 556 c0 -2 7 -7 16 -10 8 -3 12 -2 9 4 -6 10 -25 14 -25 6z"/>
<path d="M590 555 c0 -3 2 -5 5 -5 3 0 5 2 5 5 0 3 -2 5 -5 5 -3 0 -5 -2 -5
-5z"/>
<path d="M623 553 c4 -3 10 -3 14 0 3 4 0 7 -7 7 -7 0 -10 -3 -7 -7z"/>
<path d="M780 556 c0 -2 7 -7 16 -10 8 -3 12 -2 9 4 -6 10 -25 14 -25 6z"/>
<path d="M943 553 c4 -3 10 -3 14 0 3 4 0 7 -7 7 -7 0 -10 -3 -7 -7z"/>
<path d="M125 530 c-3 -5 1 -10 9 -10 9 0 16 5 16 10 0 6 -4 10 -9 10 -6 0
-13 -4 -16 -10z"/>
<path d="M290 530 c-13 -8 -12 -10 3 -10 9 0 17 5 17 10 0 12 -1 12 -20 0z"/>
<path d="M450 530 c-13 -8 -12 -10 3 -10 9 0 17 5 17 10 0 12 -1 12 -20 0z"/>
<path d="M606 531 c-3 -5 3 -11 14 -14 11 -3 23 0 27 5 3 7 1 8 -5 4 -7 -4
-12 -2 -12 3 0 13 -17 14 -24 2z"/>
<path d="M770 530 c-9 -6 -10 -10 -3 -10 6 0 15 5 18 10 8 12 4 12 -15 0z"/>
<path d="M930 530 c-9 -6 -10 -10 -3 -10 6 0 15 5 18 10 8 12 4 12 -15 0z"/>
<path d="M10 520 c8 -5 20 -10 25 -10 6 0 3 5 -5 10 -8 5 -19 10 -25 10 -6 0
-3 -5 5 -10z"/>
<path d="M90 525 c0 -3 2 -5 5 -5 3 0 5 2 5 5 0 3 -2 5 -5 5 -3 0 -5 -2 -5 -5z"/>
<path d="M210 525 c0 -3 2 -5 5 -5 3 0 5 2 5 5 0 3 -2 5 -5 5 -3 0 -5 -2 -5
-5z"/>
<path d="M243 523 c4 -3 10 -3 14 0 3 4 0 7 -7 7 -7 0 -10 -3 -7 -7z"/>
<path d="M413 523 c4 -3 10 -3 14 0 3 4 0 7 -7 7 -7 0 -10 -3 -7 -7z"/>
<path d="M555 521 c-3 -5 -2 -12 3 -15 5 -3 9 1 9 9 0 17 -3 19 -12 6z"/>
<path d="M580 525 c0 -3 2 -5 5 -5 3 0 5 2 5 5 0 3 -2 5 -5 5 -3 0 -5 -2 -5
-5z"/>
<path d="M740 525 c0 -3 2 -5 5 -5 3 0 5 2 5 5 0 3 -2 5 -5 5 -3 0 -5 -2 -5
-5z"/>
<path d="M875 521 c-3 -5 0 -13 6 -17 7 -4 9 -3 5 4 -3 6 2 13 11 15 16 4 16
5 1 6 -9 0 -19 -3 -23 -8z"/>
<path d="M350 515 c0 -3 2 -5 5 -5 3 0 5 2 5 5 0 3 -2 5 -5 5 -3 0 -5 -2 -5
-5z"/>
<path d="M380 516 c0 -2 7 -7 16 -10 8 -3 12 -2 9 4 -6 10 -25 14 -25 6z"/>
<path d="M660 515 c0 -3 2 -5 5 -5 3 0 5 2 5 5 0 3 -2 5 -5 5 -3 0 -5 -2 -5
-5z"/>
<path d="M80 505 c0 -3 2 -5 5 -5 3 0 5 2 5 5 0 3 -2 5 -5 5 -3 0 -5 -2 -5 -5z"/>
<path d="M720 505 c0 -3 2 -5 5 -5 3 0 5 2 5 5 0 3 -2 5 -5 5 -3 0 -5 -2 -5
-5z"/>
<path d="M6 479 c6 -11 31 -12 37 -1 3 4 -6 8 -19 8 -13 1 -21 -2 -18 -7z"/>
<path d="M140 475 l-25 -15 24 4 c14 1 27 8 29 14 5 15 3 15 -28 -3z"/>
<path d="M200 485 c0 -3 2 -5 5 -5 3 0 5 2 5 5 0 3 -2 5 -5 5 -3 0 -5 -2 -5
-5z"/>
<path d="M311 481 c-7 -5 -9 -11 -5 -14 5 -3 15 1 22 9 14 16 5 18 -17 5z"/>
<path d="M490 478 c0 -4 6 -8 14 -8 8 0 17 4 20 8 2 4 -4 8 -15 8 -10 0 -19
-4 -19 -8z"/>
<path d="M600 485 c0 -3 2 -5 5 -5 3 0 5 2 5 5 0 3 -2 5 -5 5 -3 0 -5 -2 -5
-5z"/>
<path d="M631 481 c-9 -6 -10 -11 -2 -15 6 -4 11 -3 11 3 0 6 7 7 17 4 11 -4
14 -3 9 5 -8 14 -16 15 -35 3z"/>
<path d="M790 480 c-10 -6 -5 -9 18 -8 22 1 29 4 20 9 -16 11 -20 11 -38 -1z"/>
<path d="M56 471 c-5 -8 40 -9 47 -1 3 3 -6 6 -19 6 -13 1 -26 -1 -28 -5z"/>
<path d="M180 475 c0 -3 2 -5 5 -5 3 0 5 2 5 5 0 3 -2 5 -5 5 -3 0 -5 -2 -5
-5z"/>
<path d="M210 470 c-8 -5 -10 -10 -5 -10 6 0 17 5 25 10 8 5 11 10 5 10 -5 0
-17 -5 -25 -10z"/>
<path d="M260 475 c0 -3 2 -5 5 -5 3 0 5 2 5 5 0 3 -2 5 -5 5 -3 0 -5 -2 -5
-5z"/>
<path d="M385 472 c8 -8 72 -10 83 -3 7 4 -11 7 -38 7 -27 0 -47 -2 -45 -4z"/>
<path d="M535 470 c-3 -6 1 -7 9 -4 18 7 21 14 7 14 -6 0 -13 -4 -16 -10z"/>
<path d="M855 470 c-3 -6 1 -7 9 -4 18 7 21 14 7 14 -6 0 -13 -4 -16 -10z"/>
<path d="M894 468 c-4 -7 -3 -8 4 -4 7 4 12 9 12 12 0 8 -9 4 -16 -8z"/>
<path d="M930 470 c-8 -5 -10 -10 -5 -10 6 0 17 5 25 10 8 5 11 10 5 10 -5 0
-17 -5 -25 -10z"/>
<path d="M570 465 c0 -3 2 -5 5 -5 3 0 5 2 5 5 0 3 -2 5 -5 5 -3 0 -5 -2 -5
-5z"/>
<path d="M600 465 c0 -3 2 -5 5 -5 3 0 5 2 5 5 0 3 -2 5 -5 5 -3 0 -5 -2 -5
-5z"/>
<path d="M690 465 c0 -3 2 -5 5 -5 3 0 5 2 5 5 0 3 -2 5 -5 5 -3 0 -5 -2 -5
-5z"/>
<path d="M723 463 c4 -3 10 -3 14 0 3 4 0 7 -7 7 -7 0 -10 -3 -7 -7z"/>
<path d="M760 465 c0 -3 2 -5 5 -5 3 0 5 2 5 5 0 3 -2 5 -5 5 -3 0 -5 -2 -5
-5z"/>
<path d="M10 445 c0 -3 2 -5 5 -5 3 0 5 2 5 5 0 3 -2 5 -5 5 -3 0 -5 -2 -5 -5z"/>
<path d="M475 441 c-6 -11 13 -26 22 -17 4 3 1 6 -6 6 -7 0 -9 5 -6 10 3 6 4
10 1 10 -3 0 -7 -4 -11 -9z"/>
<path d="M55 430 c-3 -6 1 -7 9 -4 18 7 21 14 7 14 -6 0 -13 -4 -16 -10z"/>
<path d="M110 435 c0 -3 2 -5 5 -5 3 0 5 2 5 5 0 3 -2 5 -5 5 -3 0 -5 -2 -5
-5z"/>
<path d="M144 428 c-4 -7 -3 -8 4 -4 7 4 12 9 12 12 0 8 -9 4 -16 -8z"/>
<path d="M223 433 c4 -3 10 -3 14 0 3 4 0 7 -7 7 -7 0 -10 -3 -7 -7z"/>
<path d="M390 435 c0 -3 2 -5 5 -5 3 0 5 2 5 5 0 3 -2 5 -5 5 -3 0 -5 -2 -5
-5z"/>
<path d="M525 427 c-15 -12 -16 -15 -4 -22 8 -5 10 -4 6 0 -4 5 3 15 15 22 13
7 18 12 12 13 -5 0 -18 -6 -29 -13z"/>
<path d="M624 428 c-4 -7 -3 -8 4 -4 12 7 16 16 8 16 -3 0 -8 -5 -12 -12z"/>
<path d="M695 430 c-3 -6 1 -7 9 -4 18 7 21 14 7 14 -6 0 -13 -4 -16 -10z"/>
<path d="M755 430 c3 -5 8 -10 11 -10 3 0 2 5 -1 10 -3 6 -8 10 -11 10 -3 0
-2 -4 1 -10z"/>
<path d="M10 425 c0 -3 2 -5 5 -5 3 0 5 2 5 5 0 3 -2 5 -5 5 -3 0 -5 -2 -5 -5z"/>
<path d="M90 425 c0 -3 2 -5 5 -5 3 0 5 2 5 5 0 3 -2 5 -5 5 -3 0 -5 -2 -5 -5z"/>
<path d="M250 425 c0 -3 2 -5 5 -5 3 0 5 2 5 5 0 3 -2 5 -5 5 -3 0 -5 -2 -5
-5z"/>
<path d="M283 423 c4 -3 10 -3 14 0 3 4 0 7 -7 7 -7 0 -10 -3 -7 -7z"/>
<path d="M330 425 c0 -3 2 -5 5 -5 3 0 5 2 5 5 0 3 -2 5 -5 5 -3 0 -5 -2 -5
-5z"/>
<path d="M370 425 c0 -3 2 -5 5 -5 3 0 5 2 5 5 0 3 -2 5 -5 5 -3 0 -5 -2 -5
-5z"/>
<path d="M410 425 c0 -3 2 -5 5 -5 3 0 5 2 5 5 0 3 -2 5 -5 5 -3 0 -5 -2 -5
-5z"/>
<path d="M570 425 c0 -3 2 -5 5 -5 3 0 5 2 5 5 0 3 -2 5 -5 5 -3 0 -5 -2 -5
-5z"/>
<path d="M600 425 c0 -3 2 -5 5 -5 3 0 5 2 5 5 0 3 -2 5 -5 5 -3 0 -5 -2 -5
-5z"/>
<path d="M810 420 c8 -5 20 -10 25 -10 6 0 3 5 -5 10 -8 5 -19 10 -25 10 -5 0
-3 -5 5 -10z"/>
<path d="M850 425 c0 -3 2 -5 5 -5 3 0 5 2 5 5 0 3 -2 5 -5 5 -3 0 -5 -2 -5
-5z"/>
<path d="M890 425 c0 -3 2 -5 5 -5 3 0 5 2 5 5 0 3 -2 5 -5 5 -3 0 -5 -2 -5
-5z"/>
<path d="M920 425 c0 -3 2 -5 5 -5 3 0 5 2 5 5 0 3 -2 5 -5 5 -3 0 -5 -2 -5
-5z"/>
<path d="M430 415 c0 -3 2 -5 5 -5 3 0 5 2 5 5 0 3 -2 5 -5 5 -3 0 -5 -2 -5
-5z"/>
<path d="M70 400 c-8 -5 -24 -7 -35 -4 -18 4 -18 4 -3 -6 16 -10 58 1 58 15 0
7 -3 6 -20 -5z"/>
<path d="M240 405 c0 -3 2 -5 5 -5 3 0 5 2 5 5 0 3 -2 5 -5 5 -3 0 -5 -2 -5
-5z"/>
<path d="M415 400 c3 -5 8 -10 11 -10 3 0 2 5 -1 10 -3 6 -8 10 -11 10 -3 0
-2 -4 1 -10z"/>
<path d="M495 400 c3 -5 8 -10 11 -10 3 0 2 5 -1 10 -3 6 -8 10 -11 10 -3 0
-2 -4 1 -10z"/>
<path d="M560 405 c0 -3 2 -5 5 -5 3 0 5 2 5 5 0 3 -2 5 -5 5 -3 0 -5 -2 -5
-5z"/>
<path d="M672 401 c-11 -6 -10 -10 4 -15 9 -3 19 -4 22 -1 3 3 0 5 -7 5 -7 0
-9 5 -6 10 7 12 4 12 -13 1z"/>
<path d="M720 405 c0 -3 2 -5 5 -5 3 0 5 2 5 5 0 3 -2 5 -5 5 -3 0 -5 -2 -5
-5z"/>
<path d="M880 406 c0 -2 7 -7 16 -10 8 -3 12 -2 9 4 -6 10 -25 14 -25 6z"/>
<path d="M110 395 c0 -3 2 -5 5 -5 3 0 5 2 5 5 0 3 -2 5 -5 5 -3 0 -5 -2 -5
-5z"/>
<path d="M140 396 c0 -2 7 -7 16 -10 8 -3 12 -2 9 4 -6 10 -25 14 -25 6z"/>
<path d="M190 390 c8 -5 20 -10 25 -10 6 0 3 5 -5 10 -8 5 -19 10 -25 10 -5 0
-3 -5 5 -10z"/>
<path d="M315 390 c3 -5 8 -10 11 -10 3 0 2 5 -1 10 -3 6 -8 10 -11 10 -3 0
-2 -4 1 -10z"/>
<path d="M358 387 c15 -7 26 -7 33 0 6 6 -1 10 -23 10 -30 0 -30 -1 -10 -10z"/>
<path d="M475 390 c3 -5 8 -10 11 -10 3 0 2 5 -1 10 -3 6 -8 10 -11 10 -3 0
-2 -4 1 -10z"/>
<path d="M590 395 c0 -3 2 -5 5 -5 3 0 5 2 5 5 0 3 -2 5 -5 5 -3 0 -5 -2 -5
-5z"/>
<path d="M623 393 c4 -3 10 -3 14 0 3 4 0 7 -7 7 -7 0 -10 -3 -7 -7z"/>
<path d="M750 395 c0 -3 2 -5 5 -5 3 0 5 2 5 5 0 3 -2 5 -5 5 -3 0 -5 -2 -5
-5z"/>
<path d="M783 393 c4 -3 10 -3 14 0 3 4 0 7 -7 7 -7 0 -10 -3 -7 -7z"/>
<path d="M820 395 c0 -3 2 -5 5 -5 3 0 5 2 5 5 0 3 -2 5 -5 5 -3 0 -5 -2 -5
-5z"/>
<path d="M950 395 c0 -3 2 -5 5 -5 3 0 5 2 5 5 0 3 -2 5 -5 5 -3 0 -5 -2 -5
-5z"/>
<path d="M0 385 c0 -3 2 -5 5 -5 3 0 5 2 5 5 0 3 -2 5 -5 5 -3 0 -5 -2 -5 -5z"/>
<path d="M523 383 c4 -3 10 -3 14 0 3 4 0 7 -7 7 -7 0 -10 -3 -7 -7z"/>
<path d="M840 385 c0 -3 2 -5 5 -5 3 0 5 2 5 5 0 3 -2 5 -5 5 -3 0 -5 -2 -5
-5z"/>
<path d="M166 367 c-16 -12 -16 -13 2 -13 10 0 19 6 19 13 0 7 -1 13 -2 13 -1
0 -9 -6 -19 -13z"/>
<path d="M450 370 c-9 -6 -10 -10 -3 -10 6 0 15 5 18 10 8 12 4 12 -15 0z"/>
<path d="M492 372 c-9 -6 -5 -12 15 -20 24 -11 26 -10 11 1 -10 8 -15 17 -11
20 9 9 1 8 -15 -1z"/>
<path d="M930 370 c-13 -8 -12 -10 3 -10 9 0 17 5 17 10 0 12 -1 12 -20 0z"/>
<path d="M123 363 c4 -3 10 -3 14 0 3 4 0 7 -7 7 -7 0 -10 -3 -7 -7z"/>
<path d="M260 365 c0 -3 2 -5 5 -5 3 0 5 2 5 5 0 3 -2 5 -5 5 -3 0 -5 -2 -5
-5z"/>
<path d="M283 363 c4 -3 10 -3 14 0 3 4 0 7 -7 7 -7 0 -10 -3 -7 -7z"/>
<path d="M557 363 c-10 -10 -8 -23 4 -23 5 0 8 4 4 9 -3 5 3 12 12 14 14 4 15
5 2 6 -9 0 -19 -2 -22 -6z"/>
<path d="M603 363 c4 -3 10 -3 14 0 3 4 0 7 -7 7 -7 0 -10 -3 -7 -7z"/>
<path d="M634 358 c-4 -7 -3 -8 4 -4 7 4 12 9 12 12 0 8 -9 4 -16 -8z"/>
<path d="M763 363 c4 -3 10 -3 14 0 3 4 0 7 -7 7 -7 0 -10 -3 -7 -7z"/>
<path d="M810 360 c8 -5 20 -10 25 -10 6 0 3 5 -5 10 -8 5 -19 10 -25 10 -5 0
-3 -5 5 -10z"/>
<path d="M875 361 c-3 -5 0 -13 6 -17 7 -4 9 -3 5 4 -3 6 2 13 11 15 16 4 16
5 1 6 -9 0 -19 -3 -23 -8z"/>
<path d="M37 349 c7 -7 15 -10 18 -7 3 3 -2 9 -12 12 -14 6 -15 5 -6 -5z"/>
<path d="M75 350 c3 -5 8 -10 11 -10 3 0 2 5 -1 10 -3 6 -8 10 -11 10 -3 0 -2
-4 1 -10z"/>
<path d="M216 352 c-2 -4 4 -8 14 -8 10 0 16 4 14 8 -3 4 -9 8 -14 8 -5 0 -11
-4 -14 -8z"/>
<path d="M340 356 c0 -2 7 -7 16 -10 8 -3 12 -2 9 4 -6 10 -25 14 -25 6z"/>
<path d="M380 355 c0 -3 2 -5 5 -5 3 0 5 2 5 5 0 3 -2 5 -5 5 -3 0 -5 -2 -5
-5z"/>
<path d="M660 355 c0 -3 2 -5 5 -5 3 0 5 2 5 5 0 3 -2 5 -5 5 -3 0 -5 -2 -5
-5z"/>
<path d="M691 351 c-17 -11 -23 -39 -10 -47 5 -3 17 0 26 6 16 10 16 10 -3 5
-14 -4 -21 -1 -21 9 0 18 24 29 39 19 7 -3 8 -1 4 5 -9 14 -16 15 -35 3z"/>
<path d="M400 345 c0 -3 2 -5 5 -5 3 0 5 2 5 5 0 3 -2 5 -5 5 -3 0 -5 -2 -5
-5z"/>
<path d="M94 328 c-4 -7 -3 -8 4 -4 7 4 12 9 12 12 0 8 -9 4 -16 -8z"/>
<path d="M190 335 c0 -3 2 -5 5 -5 3 0 5 2 5 5 0 3 -2 5 -5 5 -3 0 -5 -2 -5
-5z"/>
<path d="M260 335 c0 -3 2 -5 5 -5 3 0 5 2 5 5 0 3 -2 5 -5 5 -3 0 -5 -2 -5
-5z"/>
<path d="M415 331 c-3 -5 -2 -12 3 -15 5 -3 9 1 9 9 0 17 -3 19 -12 6z"/>
<path d="M900 335 c0 -3 2 -5 5 -5 3 0 5 2 5 5 0 3 -2 5 -5 5 -3 0 -5 -2 -5
-5z"/>
<path d="M3 323 c4 -3 10 -3 14 0 3 4 0 7 -7 7 -7 0 -10 -3 -7 -7z"/>
<path d="M120 325 c0 -3 2 -5 5 -5 3 0 5 2 5 5 0 3 -2 5 -5 5 -3 0 -5 -2 -5
-5z"/>
<path d="M140 314 l-25 -15 25 7 c28 7 35 12 29 18 -2 2 -15 -2 -29 -10z"/>
<path d="M300 314 l-25 -15 25 7 c28 7 35 12 29 18 -2 2 -15 -2 -29 -10z"/>
<path d="M440 325 c0 -3 2 -5 5 -5 3 0 5 2 5 5 0 3 -2 5 -5 5 -3 0 -5 -2 -5
-5z"/>
<path d="M465 315 c-25 -12 -26 -14 -5 -9 14 4 29 10 35 15 12 12 5 11 -30 -6z"/>
<path d="M620 314 l-25 -15 25 7 c28 7 35 12 29 18 -2 2 -15 -2 -29 -10z"/>
<path d="M735 320 c3 -5 8 -10 11 -10 3 0 2 5 -1 10 -3 6 -8 10 -11 10 -3 0
-2 -4 1 -10z"/>
<path d="M760 325 c0 -3 2 -5 5 -5 3 0 5 2 5 5 0 3 -2 5 -5 5 -3 0 -5 -2 -5
-5z"/>
<path d="M780 314 l-25 -15 25 7 c28 7 35 12 29 18 -2 2 -15 -2 -29 -10z"/>
<path d="M840 325 c0 -3 2 -5 5 -5 3 0 5 2 5 5 0 3 -2 5 -5 5 -3 0 -5 -2 -5
-5z"/>
<path d="M54 308 c-4 -7 -3 -8 4 -4 12 7 16 16 8 16 -3 0 -8 -5 -12 -12z"/>
<path d="M180 315 c0 -3 2 -5 5 -5 3 0 5 2 5 5 0 3 -2 5 -5 5 -3 0 -5 -2 -5
-5z"/>
<path d="M215 310 c-3 -6 1 -7 9 -4 18 7 21 14 7 14 -6 0 -13 -4 -16 -10z"/>
<path d="M254 308 c-4 -7 -3 -8 4 -4 12 7 16 16 8 16 -3 0 -8 -5 -12 -12z"/>
<path d="M340 315 c0 -3 2 -5 5 -5 3 0 5 2 5 5 0 3 -2 5 -5 5 -3 0 -5 -2 -5
-5z"/>
<path d="M370 310 c-8 -5 -10 -10 -5 -10 6 0 17 5 25 10 8 5 11 10 5 10 -5 0
-17 -5 -25 -10z"/>
<path d="M535 310 c-3 -6 1 -7 9 -4 18 7 21 14 7 14 -6 0 -13 -4 -16 -10z"/>
<path d="M574 308 c-4 -7 -3 -8 4 -4 12 7 16 16 8 16 -3 0 -8 -5 -12 -12z"/>
<path d="M863 313 c4 -3 10 -3 14 0 3 4 0 7 -7 7 -7 0 -10 -3 -7 -7z"/>
<path d="M894 308 c-4 -7 -3 -8 4 -4 7 4 12 9 12 12 0 8 -9 4 -16 -8z"/>
<path d="M930 310 c-8 -5 -10 -10 -5 -10 6 0 17 5 25 10 8 5 11 10 5 10 -5 0
-17 -5 -25 -10z"/>
<path d="M20 295 c0 -3 2 -5 5 -5 3 0 5 2 5 5 0 3 -2 5 -5 5 -3 0 -5 -2 -5 -5z"/>
<path d="M234 292 c3 -5 0 -13 -6 -15 -9 -4 -10 -6 -1 -6 17 -1 25 16 12 25
-7 4 -9 3 -5 -4z"/>
<path d="M340 295 c0 -3 2 -5 5 -5 3 0 5 2 5 5 0 3 -2 5 -5 5 -3 0 -5 -2 -5
-5z"/>
<path d="M490 285 c0 -3 2 -5 5 -5 3 0 5 2 5 5 0 3 -2 5 -5 5 -3 0 -5 -2 -5
-5z"/>
<path d="M555 280 c-3 -6 1 -7 9 -4 18 7 21 14 7 14 -6 0 -13 -4 -16 -10z"/>
<path d="M867 278 c-15 -12 -14 -13 10 -14 16 -1 22 1 15 3 -6 3 -10 9 -6 14
7 12 1 11 -19 -3z"/>
<path d="M10 270 c-9 -6 -10 -10 -3 -10 6 0 15 5 18 10 8 12 4 12 -15 0z"/>
<path d="M55 270 c-3 -6 1 -7 9 -4 18 7 21 14 7 14 -6 0 -13 -4 -16 -10z"/>
<path d="M110 275 c0 -3 2 -5 5 -5 3 0 5 2 5 5 0 3 -2 5 -5 5 -3 0 -5 -2 -5
-5z"/>
<path d="M150 275 c0 -3 2 -5 5 -5 3 0 5 2 5 5 0 3 -2 5 -5 5 -3 0 -5 -2 -5
-5z"/>
<path d="M270 275 c0 -3 2 -5 5 -5 3 0 5 2 5 5 0 3 -2 5 -5 5 -3 0 -5 -2 -5
-5z"/>
<path d="M310 275 c0 -3 2 -5 5 -5 3 0 5 2 5 5 0 3 -2 5 -5 5 -3 0 -5 -2 -5
-5z"/>
<path d="M372 272 c-8 -6 -2 -9 18 -9 20 0 26 3 18 9 -7 4 -15 8 -18 8 -3 0
-11 -4 -18 -8z"/>
<path d="M590 275 c0 -3 2 -5 5 -5 3 0 5 2 5 5 0 3 -2 5 -5 5 -3 0 -5 -2 -5
-5z"/>
<path d="M650 270 c-9 -6 -10 -10 -3 -10 6 0 15 5 18 10 8 12 4 12 -15 0z"/>
<path d="M695 270 c-3 -6 1 -7 9 -4 18 7 21 14 7 14 -6 0 -13 -4 -16 -10z"/>
<path d="M750 275 c0 -3 2 -5 5 -5 3 0 5 2 5 5 0 3 -2 5 -5 5 -3 0 -5 -2 -5
-5z"/>
<path d="M783 273 c4 -3 10 -3 14 0 3 4 0 7 -7 7 -7 0 -10 -3 -7 -7z"/>
<path d="M910 275 c0 -3 2 -5 5 -5 3 0 5 2 5 5 0 3 -2 5 -5 5 -3 0 -5 -2 -5
-5z"/>
<path d="M90 265 c0 -3 2 -5 5 -5 3 0 5 2 5 5 0 3 -2 5 -5 5 -3 0 -5 -2 -5 -5z"/>
<path d="M170 265 c0 -3 2 -5 5 -5 3 0 5 2 5 5 0 3 -2 5 -5 5 -3 0 -5 -2 -5
-5z"/>
<path d="M250 265 c0 -3 2 -5 5 -5 3 0 5 2 5 5 0 3 -2 5 -5 5 -3 0 -5 -2 -5
-5z"/>
<path d="M440 265 c0 -3 2 -5 5 -5 3 0 5 2 5 5 0 3 -2 5 -5 5 -3 0 -5 -2 -5
-5z"/>
<path d="M490 265 c0 -3 2 -5 5 -5 3 0 5 2 5 5 0 3 -2 5 -5 5 -3 0 -5 -2 -5
-5z"/>
<path d="M730 265 c0 -3 2 -5 5 -5 3 0 5 2 5 5 0 3 -2 5 -5 5 -3 0 -5 -2 -5
-5z"/>
<path d="M810 265 c0 -3 2 -5 5 -5 3 0 5 2 5 5 0 3 -2 5 -5 5 -3 0 -5 -2 -5
-5z"/>
<path d="M940 265 c0 -3 2 -5 5 -5 3 0 5 2 5 5 0 3 -2 5 -5 5 -3 0 -5 -2 -5
-5z"/>
<path d="M34 252 c4 -7 1 -12 -6 -12 -8 0 -6 -4 4 -11 17 -9 58 3 58 17 0 2
-9 0 -19 -6 -24 -12 -34 -13 -26 -1 3 5 0 13 -6 17 -8 4 -9 3 -5 -4z"/>
<path d="M514 252 c4 -7 1 -12 -6 -12 -9 0 -9 -3 2 -10 21 -14 33 -12 56 6 19
15 19 16 -1 9 -11 -4 -26 -10 -34 -13 -9 -3 -12 -1 -7 6 3 6 1 14 -5 18 -8 4
-9 3 -5 -4z"/>
<path d="M190 240 c-16 -10 -13 -12 33 -14 26 -2 27 -1 11 11 -21 15 -24 16
-44 3z m27 -7 c-4 -3 -10 -3 -14 0 -3 4 0 7 7 7 7 0 10 -3 7 -7z"/>
<path d="M352 241 c-11 -7 -10 -10 3 -15 24 -9 35 -8 35 4 0 5 -7 6 -17 3 -11
-4 -14 -3 -9 5 8 14 6 15 -12 3z"/>
<path d="M403 243 c4 -3 10 -3 14 0 3 4 0 7 -7 7 -7 0 -10 -3 -7 -7z"/>
<path d="M670 240 c-13 -9 -13 -10 0 -10 9 -1 6 -6 -9 -14 -20 -11 -21 -14 -7
-19 10 -4 15 -3 11 2 -3 5 11 15 30 21 19 6 35 16 35 21 0 6 -8 6 -19 -1 -25
-13 -34 -13 -26 0 8 12 4 12 -15 0z"/>
<path d="M829 239 c-8 -5 -23 -6 -34 -3 -15 4 -14 1 5 -10 16 -10 19 -16 10
-16 -12 0 -11 -3 3 -11 12 -7 22 -7 35 1 15 10 15 10 -4 5 -14 -3 -21 -1 -21
9 0 10 10 13 34 11 19 -1 33 2 33 9 0 13 -42 17 -61 5z m28 -6 c-4 -3 -10 -3
-14 0 -3 4 0 7 7 7 7 0 10 -3 7 -7z"/>
<path d="M103 233 c4 -3 10 -3 14 0 3 4 0 7 -7 7 -7 0 -10 -3 -7 -7z"/>
<path d="M130 236 c0 -2 9 -6 20 -9 11 -3 18 -1 14 4 -5 9 -34 13 -34 5z"/>
<path d="M270 235 c0 -3 2 -5 5 -5 3 0 5 2 5 5 0 3 -2 5 -5 5 -3 0 -5 -2 -5
-5z"/>
<path d="M303 233 c4 -3 10 -3 14 0 3 4 0 7 -7 7 -7 0 -10 -3 -7 -7z"/>
<path d="M430 235 c0 -3 2 -5 5 -5 3 0 5 2 5 5 0 3 -2 5 -5 5 -3 0 -5 -2 -5
-5z"/>
<path d="M460 235 c0 -3 2 -5 5 -5 3 0 5 2 5 5 0 3 -2 5 -5 5 -3 0 -5 -2 -5
-5z"/>
<path d="M590 235 c0 -3 2 -5 5 -5 3 0 5 2 5 5 0 3 -2 5 -5 5 -3 0 -5 -2 -5
-5z"/>
<path d="M623 233 c4 -3 10 -3 14 0 3 4 0 7 -7 7 -7 0 -10 -3 -7 -7z"/>
<path d="M750 235 c0 -3 2 -5 5 -5 3 0 5 2 5 5 0 3 -2 5 -5 5 -3 0 -5 -2 -5
-5z"/>
<path d="M910 235 c0 -3 2 -5 5 -5 3 0 5 2 5 5 0 3 -2 5 -5 5 -3 0 -5 -2 -5
-5z"/>
<path d="M938 233 c7 -3 16 -2 19 1 4 3 -2 6 -13 5 -11 0 -14 -3 -6 -6z"/>
<path d="M10 210 c-9 -6 -10 -10 -3 -10 6 0 15 5 18 10 8 12 4 12 -15 0z"/>
<path d="M125 210 c-3 -5 -2 -10 4 -10 5 0 13 5 16 10 3 6 2 10 -4 10 -5 0
-13 -4 -16 -10z"/>
<path d="M172 212 c-9 -6 -5 -12 15 -20 24 -11 26 -10 11 1 -10 8 -15 17 -11
20 9 9 1 8 -15 -1z"/>
<path d="M290 210 c-13 -8 -12 -10 3 -10 9 0 17 5 17 10 0 12 -1 12 -20 0z"/>
<path d="M332 211 c-11 -7 -11 -9 0 -14 9 -3 15 1 15 9 0 8 -1 14 -1 14 -1 0
-7 -4 -14 -9z"/>
<path d="M450 210 c-9 -6 -10 -10 -3 -10 6 0 15 5 18 10 8 12 4 12 -15 0z"/>
<path d="M490 210 c-9 -6 -10 -10 -3 -10 6 0 15 5 18 10 8 12 4 12 -15 0z"/>
<path d="M610 210 c-9 -6 -10 -10 -3 -10 6 0 15 5 18 10 8 12 4 12 -15 0z"/>
<path d="M770 210 c-13 -8 -12 -10 3 -10 9 0 17 5 17 10 0 12 -1 12 -20 0z"/>
<path d="M926 211 c-3 -5 3 -11 13 -14 14 -3 18 -1 14 9 -6 16 -19 18 -27 5z"/>
<path d="M72 201 c-11 -7 -10 -9 3 -14 9 -4 13 -3 10 2 -3 5 3 12 12 14 13 3
14 5 3 6 -8 0 -21 -3 -28 -8z"/>
<path d="M210 205 c0 -3 2 -5 5 -5 3 0 5 2 5 5 0 3 -2 5 -5 5 -3 0 -5 -2 -5
-5z"/>
<path d="M235 201 c-3 -5 0 -13 6 -17 7 -4 9 -3 5 4 -3 6 2 13 11 15 16 4 16
5 1 6 -9 0 -19 -3 -23 -8z"/>
<path d="M413 203 c4 -3 10 -3 14 0 3 4 0 7 -7 7 -7 0 -10 -3 -7 -7z"/>
<path d="M523 203 c4 -3 10 -3 14 0 3 4 0 7 -7 7 -7 0 -10 -3 -7 -7z"/>
<path d="M555 201 c-3 -5 0 -13 6 -17 7 -4 9 -3 5 4 -3 6 2 13 11 15 16 4 16
5 1 6 -9 0 -19 -3 -23 -8z"/>
<path d="M733 203 c4 -3 10 -3 14 0 3 4 0 7 -7 7 -7 0 -10 -3 -7 -7z"/>
<path d="M875 201 c-3 -5 0 -13 6 -17 7 -4 9 -3 5 4 -3 6 2 13 11 15 16 4 16
5 1 6 -9 0 -19 -3 -23 -8z"/>
<path d="M700 196 c0 -2 7 -7 16 -10 8 -3 12 -2 9 4 -6 10 -25 14 -25 6z"/>
<path d="M400 185 c0 -3 2 -5 5 -5 3 0 5 2 5 5 0 3 -2 5 -5 5 -3 0 -5 -2 -5
-5z"/>
<path d="M514 172 c3 -5 0 -13 -6 -15 -9 -4 -10 -6 -1 -6 17 -1 25 16 12 25
-7 4 -9 3 -5 -4z"/>
<path d="M0 166 c0 -2 7 -7 16 -10 8 -3 12 -2 9 4 -6 10 -25 14 -25 6z"/>
<path d="M40 165 c0 -3 2 -5 5 -5 3 0 5 2 5 5 0 3 -2 5 -5 5 -3 0 -5 -2 -5 -5z"/>
<path d="M170 158 c0 -10 27 -10 34 0 2 4 -4 8 -15 8 -10 0 -19 -4 -19 -8z"/>
<path d="M300 154 c-14 -8 -17 -13 -7 -10 10 3 28 6 38 6 11 0 17 5 14 10 -8
13 -15 12 -45 -6z"/>
<path d="M360 165 c0 -3 2 -5 5 -5 3 0 5 2 5 5 0 3 -2 5 -5 5 -3 0 -5 -2 -5
-5z"/>
<path d="M470 160 c-13 -8 -12 -10 3 -10 9 0 17 5 17 10 0 12 -1 12 -20 0z"/>
<path d="M620 154 c-16 -10 -18 -13 -5 -8 11 4 28 7 37 8 9 0 14 4 12 8 -7 11
-15 10 -44 -8z"/>
<path d="M810 158 c0 -4 6 -8 14 -8 8 0 17 4 20 8 2 4 -4 8 -15 8 -10 0 -19
-4 -19 -8z"/>
<path d="M915 160 c-7 -12 -7 -12 23 -15 12 -1 22 2 22 7 0 5 -10 6 -21 3 -15
-5 -19 -4 -15 4 4 6 5 11 2 11 -3 0 -8 -4 -11 -10z"/>
<path d="M55 150 c-4 -7 92 -6 99 1 3 3 -17 5 -45 5 -28 0 -52 -3 -54 -6z"/>
<path d="M223 153 c4 -3 10 -3 14 0 3 4 0 7 -7 7 -7 0 -10 -3 -7 -7z"/>
<path d="M395 150 c3 -5 8 -10 11 -10 3 0 2 5 -1 10 -3 6 -8 10 -11 10 -3 0
-2 -4 1 -10z"/>
<path d="M420 155 c0 -3 2 -5 5 -5 3 0 5 2 5 5 0 3 -2 5 -5 5 -3 0 -5 -2 -5
-5z"/>
<path d="M534 148 c-4 -7 -3 -8 4 -4 12 7 16 16 8 16 -3 0 -8 -5 -12 -12z"/>
<path d="M574 148 c-4 -7 -3 -8 4 -4 7 4 12 9 12 12 0 8 -9 4 -16 -8z"/>
<path d="M695 150 c-4 -7 92 -6 99 1 3 3 -17 5 -45 5 -28 0 -52 -3 -54 -6z"/>
<path d="M855 150 c-3 -6 1 -7 9 -4 18 7 21 14 7 14 -6 0 -13 -4 -16 -10z"/>
<path d="M250 145 c0 -3 2 -5 5 -5 3 0 5 2 5 5 0 3 -2 5 -5 5 -3 0 -5 -2 -5
-5z"/>
<path d="M370 145 c0 -3 2 -5 5 -5 3 0 5 2 5 5 0 3 -2 5 -5 5 -3 0 -5 -2 -5
-5z"/>
<path d="M440 145 c0 -3 2 -5 5 -5 3 0 5 2 5 5 0 3 -2 5 -5 5 -3 0 -5 -2 -5
-5z"/>
<path d="M890 145 c0 -3 2 -5 5 -5 3 0 5 2 5 5 0 3 -2 5 -5 5 -3 0 -5 -2 -5
-5z"/>
<path d="M190 135 c0 -3 2 -5 5 -5 3 0 5 2 5 5 0 3 -2 5 -5 5 -3 0 -5 -2 -5
-5z"/>
<path d="M330 125 c0 -3 2 -5 5 -5 3 0 5 2 5 5 0 3 -2 5 -5 5 -3 0 -5 -2 -5
-5z"/>
<path d="M795 121 c-6 -11 13 -26 22 -17 4 3 1 6 -6 6 -7 0 -9 5 -6 10 3 6 4
10 1 10 -3 0 -7 -4 -11 -9z"/>
<path d="M70 115 c0 -3 2 -5 5 -5 3 0 5 2 5 5 0 3 -2 5 -5 5 -3 0 -5 -2 -5 -5z"/>
<path d="M110 115 c0 -3 2 -5 5 -5 3 0 5 2 5 5 0 3 -2 5 -5 5 -3 0 -5 -2 -5
-5z"/>
<path d="M157 109 c7 -7 15 -10 18 -7 3 3 -2 9 -12 12 -14 6 -15 5 -6 -5z"/>
<path d="M215 110 c-3 -6 1 -7 9 -4 18 7 21 14 7 14 -6 0 -13 -4 -16 -10z"/>
<path d="M304 108 c-4 -7 -3 -8 4 -4 12 7 16 16 8 16 -3 0 -8 -5 -12 -12z"/>
<path d="M375 110 c-3 -6 1 -7 9 -4 18 7 21 14 7 14 -6 0 -13 -4 -16 -10z"/>
<path d="M470 116 c0 -3 14 -12 30 -21 17 -9 30 -13 30 -11 0 3 -13 12 -30 21
-16 9 -30 13 -30 11z"/>
<path d="M550 115 c0 -3 2 -5 5 -5 3 0 5 2 5 5 0 3 -2 5 -5 5 -3 0 -5 -2 -5
-5z"/>
<path d="M630 115 c0 -3 2 -5 5 -5 3 0 5 2 5 5 0 3 -2 5 -5 5 -3 0 -5 -2 -5
-5z"/>
<path d="M710 115 c0 -3 2 -5 5 -5 3 0 5 2 5 5 0 3 -2 5 -5 5 -3 0 -5 -2 -5
-5z"/>
<path d="M845 107 c-15 -12 -16 -15 -4 -22 8 -5 10 -4 6 0 -4 5 3 15 15 22 13
7 18 12 12 13 -5 0 -18 -6 -29 -13z"/>
<path d="M944 108 c-4 -7 -3 -8 4 -4 7 4 12 9 12 12 0 8 -9 4 -16 -8z"/>
<path d="M10 105 c0 -3 2 -5 5 -5 3 0 5 2 5 5 0 3 -2 5 -5 5 -3 0 -5 -2 -5 -5z"/>
<path d="M43 103 c4 -3 10 -3 14 0 3 4 0 7 -7 7 -7 0 -10 -3 -7 -7z"/>
<path d="M90 105 c0 -3 2 -5 5 -5 3 0 5 2 5 5 0 3 -2 5 -5 5 -3 0 -5 -2 -5 -5z"/>
<path d="M250 105 c0 -3 2 -5 5 -5 3 0 5 2 5 5 0 3 -2 5 -5 5 -3 0 -5 -2 -5
-5z"/>
<path d="M280 105 c0 -3 2 -5 5 -5 3 0 5 2 5 5 0 3 -2 5 -5 5 -3 0 -5 -2 -5
-5z"/>
<path d="M410 105 c0 -3 2 -5 5 -5 3 0 5 2 5 5 0 3 -2 5 -5 5 -3 0 -5 -2 -5
-5z"/>
<path d="M570 105 c0 -3 2 -5 5 -5 3 0 5 2 5 5 0 3 -2 5 -5 5 -3 0 -5 -2 -5
-5z"/>
<path d="M594 98 c-4 -7 -3 -8 4 -4 12 7 16 16 8 16 -3 0 -8 -5 -12 -12z"/>
<path d="M650 105 c0 -3 2 -5 5 -5 3 0 5 2 5 5 0 3 -2 5 -5 5 -3 0 -5 -2 -5
-5z"/>
<path d="M690 105 c0 -3 2 -5 5 -5 3 0 5 2 5 5 0 3 -2 5 -5 5 -3 0 -5 -2 -5
-5z"/>
<path d="M730 105 c0 -3 2 -5 5 -5 3 0 5 2 5 5 0 3 -2 5 -5 5 -3 0 -5 -2 -5
-5z"/>
<path d="M890 105 c0 -3 2 -5 5 -5 3 0 5 2 5 5 0 3 -2 5 -5 5 -3 0 -5 -2 -5
-5z"/>
<path d="M920 105 c0 -3 2 -5 5 -5 3 0 5 2 5 5 0 3 -2 5 -5 5 -3 0 -5 -2 -5
-5z"/>
<path d="M750 95 c0 -3 2 -5 5 -5 3 0 5 2 5 5 0 3 -2 5 -5 5 -3 0 -5 -2 -5 -5z"/>
<path d="M80 85 c0 -3 2 -5 5 -5 3 0 5 2 5 5 0 3 -2 5 -5 5 -3 0 -5 -2 -5 -5z"/>
<path d="M200 85 c0 -3 2 -5 5 -5 3 0 5 2 5 5 0 3 -2 5 -5 5 -3 0 -5 -2 -5 -5z"/>
<path d="M240 85 c0 -3 2 -5 5 -5 3 0 5 2 5 5 0 3 -2 5 -5 5 -3 0 -5 -2 -5 -5z"/>
<path d="M390 80 c-8 -5 -24 -7 -35 -4 -18 4 -18 4 -3 -6 13 -8 24 -8 37 0 11
5 28 7 38 4 15 -5 15 -4 3 5 -18 13 -21 13 -40 1z"/>
<path d="M570 85 c0 -3 2 -5 5 -5 3 0 5 2 5 5 0 3 -2 5 -5 5 -3 0 -5 -2 -5 -5z"/>
<path d="M735 80 c3 -5 8 -10 11 -10 3 0 2 5 -1 10 -3 6 -8 10 -11 10 -3 0 -2
-4 1 -10z"/>
<path d="M815 80 c3 -5 8 -10 11 -10 3 0 2 5 -1 10 -3 6 -8 10 -11 10 -3 0 -2
-4 1 -10z"/>
<path d="M880 85 c0 -3 2 -5 5 -5 3 0 5 2 5 5 0 3 -2 5 -5 5 -3 0 -5 -2 -5 -5z"/>
<path d="M10 70 c-9 -6 -10 -10 -3 -10 6 0 15 5 18 10 8 12 4 12 -15 0z"/>
<path d="M50 70 c-13 -8 -12 -10 3 -10 9 0 17 5 17 10 0 12 -1 12 -20 0z"/>
<path d="M140 76 c0 -2 7 -7 16 -10 8 -3 12 -2 9 4 -6 10 -25 14 -25 6z"/>
<path d="M180 75 c0 -3 2 -5 5 -5 3 0 5 2 5 5 0 3 -2 5 -5 5 -3 0 -5 -2 -5 -5z"/>
<path d="M270 75 c0 -3 2 -5 5 -5 3 0 5 2 5 5 0 3 -2 5 -5 5 -3 0 -5 -2 -5 -5z"/>
<path d="M300 76 c0 -2 7 -7 16 -10 8 -3 12 -2 9 4 -6 10 -25 14 -25 6z"/>
<path d="M460 76 c0 -2 7 -7 16 -10 8 -3 12 -2 9 4 -6 10 -25 14 -25 6z"/>
<path d="M500 75 c0 -3 2 -5 5 -5 3 0 5 2 5 5 0 3 -2 5 -5 5 -3 0 -5 -2 -5 -5z"/>
<path d="M635 70 c3 -5 8 -10 11 -10 3 0 2 5 -1 10 -3 6 -8 10 -11 10 -3 0 -2
-4 1 -10z"/>
<path d="M678 67 c15 -7 26 -7 33 0 6 6 -1 10 -23 10 -30 0 -30 -1 -10 -10z"/>
<path d="M795 70 c3 -5 8 -10 11 -10 3 0 2 5 -1 10 -3 6 -8 10 -11 10 -3 0 -2
-4 1 -10z"/>
<path d="M910 75 c0 -3 2 -5 5 -5 3 0 5 2 5 5 0 3 -2 5 -5 5 -3 0 -5 -2 -5 -5z"/>
<path d="M943 73 c4 -3 10 -3 14 0 3 4 0 7 -7 7 -7 0 -10 -3 -7 -7z"/>
<path d="M203 63 c4 -3 10 -3 14 0 3 4 0 7 -7 7 -7 0 -10 -3 -7 -7z"/>
<path d="M520 65 c0 -3 2 -5 5 -5 3 0 5 2 5 5 0 3 -2 5 -5 5 -3 0 -5 -2 -5 -5z"/>
<path d="M843 63 c4 -3 10 -3 14 0 3 4 0 7 -7 7 -7 0 -10 -3 -7 -7z"/>
<path d="M130 50 c-9 -6 -10 -10 -3 -10 6 0 15 5 18 10 8 12 4 12 -15 0z"/>
<path d="M450 50 c-9 -6 -10 -10 -3 -10 6 0 15 5 18 10 8 12 4 12 -15 0z"/>
<path d="M612 51 c-11 -6 -9 -9 6 -13 15 -4 19 -2 15 8 -6 16 -4 16 -21 5z"/>
<path d="M770 50 c-9 -6 -10 -10 -3 -10 6 0 15 5 18 10 8 12 4 12 -15 0z"/>
<path d="M812 52 c-9 -6 -5 -12 15 -20 24 -11 26 -10 11 1 -10 8 -15 17 -11
20 9 9 1 8 -15 -1z"/>
<path d="M180 35 c14 -8 30 -14 35 -14 6 0 -1 6 -15 14 -14 8 -29 14 -35 14
-5 0 1 -6 15 -14z"/>
<path d="M235 41 c-6 -11 13 -26 22 -17 4 3 1 6 -6 6 -7 0 -9 5 -6 10 3 6 4
10 1 10 -3 0 -7 -4 -11 -9z"/>
<path d="M260 45 c0 -3 2 -5 5 -5 3 0 5 2 5 5 0 3 -2 5 -5 5 -3 0 -5 -2 -5 -5z"/>
<path d="M283 43 c4 -3 10 -3 14 0 3 4 0 7 -7 7 -7 0 -10 -3 -7 -7z"/>
<path d="M480 45 c0 -3 2 -5 5 -5 3 0 5 2 5 5 0 3 -2 5 -5 5 -3 0 -5 -2 -5 -5z"/>
<path d="M555 41 c-3 -5 0 -13 6 -17 7 -4 9 -3 5 4 -3 5 0 13 6 15 9 4 10 6 1
6 -6 1 -14 -3 -18 -8z"/>
<path d="M872 41 c-11 -7 -10 -9 3 -14 9 -4 13 -3 10 2 -3 5 3 12 12 14 13 3
14 5 3 6 -8 0 -21 -3 -28 -8z"/>
<path d="M923 43 c4 -3 10 -3 14 0 3 4 0 7 -7 7 -7 0 -10 -3 -7 -7z"/>
<path d="M20 35 c0 -3 2 -5 5 -5 3 0 5 2 5 5 0 3 -2 5 -5 5 -3 0 -5 -2 -5 -5z"/>
<path d="M60 36 c0 -2 7 -7 16 -10 8 -3 12 -2 9 4 -6 10 -25 14 -25 6z"/>
<path d="M310 35 c0 -3 2 -5 5 -5 3 0 5 2 5 5 0 3 -2 5 -5 5 -3 0 -5 -2 -5 -5z"/>
<path d="M340 35 c0 -3 2 -5 5 -5 3 0 5 2 5 5 0 3 -2 5 -5 5 -3 0 -5 -2 -5 -5z"/>
<path d="M390 30 c8 -5 20 -10 25 -10 6 0 3 5 -5 10 -8 5 -19 10 -25 10 -5 0
-3 -5 5 -10z"/>
<path d="M500 35 c0 -3 2 -5 5 -5 3 0 5 2 5 5 0 3 -2 5 -5 5 -3 0 -5 -2 -5 -5z"/>
<path d="M660 36 c0 -2 7 -7 16 -10 8 -3 12 -2 9 4 -6 10 -25 14 -25 6z"/>
<path d="M700 35 c0 -3 2 -5 5 -5 3 0 5 2 5 5 0 3 -2 5 -5 5 -3 0 -5 -2 -5 -5z"/>
<path d="M950 35 c0 -3 2 -5 5 -5 3 0 5 2 5 5 0 3 -2 5 -5 5 -3 0 -5 -2 -5 -5z"/>
<path d="M720 25 c0 -3 2 -5 5 -5 3 0 5 2 5 5 0 3 -2 5 -5 5 -3 0 -5 -2 -5 -5z"/>
<path d="M275 10 c3 -5 8 -10 11 -10 3 0 2 5 -1 10 -3 6 -8 10 -11 10 -3 0 -2
-4 1 -10z"/>
<path d="M317 9 c7 -7 15 -10 18 -7 3 3 -2 9 -12 12 -14 6 -15 5 -6 -5z"/>
<path d="M0 5 c0 -3 2 -5 5 -5 3 0 5 2 5 5 0 3 -2 5 -5 5 -3 0 -5 -2 -5 -5z"/>
<path d="M90 5 c0 -3 2 -5 5 -5 3 0 5 2 5 5 0 3 -2 5 -5 5 -3 0 -5 -2 -5 -5z"/>
<path d="M170 5 c0 -3 2 -5 5 -5 3 0 5 2 5 5 0 3 -2 5 -5 5 -3 0 -5 -2 -5 -5z"/>
<path d="M440 5 c0 -3 2 -5 5 -5 3 0 5 2 5 5 0 3 -2 5 -5 5 -3 0 -5 -2 -5 -5z"/>
<path d="M480 5 c0 -3 2 -5 5 -5 3 0 5 2 5 5 0 3 -2 5 -5 5 -3 0 -5 -2 -5 -5z"/>
<path d="M570 5 c0 -3 2 -5 5 -5 3 0 5 2 5 5 0 3 -2 5 -5 5 -3 0 -5 -2 -5 -5z"/>
<path d="M640 5 c0 -3 2 -5 5 -5 3 0 5 2 5 5 0 3 -2 5 -5 5 -3 0 -5 -2 -5 -5z"/>
<path d="M730 5 c0 -3 2 -5 5 -5 3 0 5 2 5 5 0 3 -2 5 -5 5 -3 0 -5 -2 -5 -5z"/>
<path d="M760 5 c0 -3 2 -5 5 -5 3 0 5 2 5 5 0 3 -2 5 -5 5 -3 0 -5 -2 -5 -5z"/>
<path d="M803 3 c4 -3 10 -3 14 0 3 4 0 7 -7 7 -7 0 -10 -3 -7 -7z"/>
</g>
  </g>
</svg>
