<?xml version="1.0" encoding="UTF-8" standalone="no"?>
<!-- Created with Inkscape (http://www.inkscape.org/) -->

<svg
   xmlns:dc="http://purl.org/dc/elements/1.1/"
   xmlns:cc="http://creativecommons.org/ns#"
   xmlns:rdf="http://www.w3.org/1999/02/22-rdf-syntax-ns#"
   xmlns:svg="http://www.w3.org/2000/svg"
   xmlns="http://www.w3.org/2000/svg"
   xmlns:sodipodi="http://sodipodi.sourceforge.net/DTD/sodipodi-0.dtd"
   xmlns:inkscape="http://www.inkscape.org/namespaces/inkscape"
   width="16px"
   height="16px"
   viewBox="0 0 16px 16px"
   version="1.1"
   id="svgMain"
   inkscape:version="0.92.2 (5c3e80d, 2017-08-06)"
   sodipodi:docname="reference_SVG.svg">
  <defs
     id="defs4542" />
  <sodipodi:namedview
     id="base"
     pagecolor="#ffffff"
     bordercolor="#666666"
     borderopacity="1.0"
     inkscape:pageopacity="0.0"
     inkscape:pageshadow="2"
     inkscape:zoom="1"
     inkscape:cx="0"
     inkscape:cy="0"
     inkscape:document-units="px"
     inkscape:current-layer="layer1"
     showgrid="false"
     units="px"
     inkscape:window-width="1024"
     inkscape:window-height="768"
     inkscape:window-x="-8"
     inkscape:window-y="-8"
     inkscape:window-maximized="1" />
  <metadata
     id="metadata1">
    <rdf:RDF>
      <cc:Work
         rdf:about="">
        <dc:format>image/svg+xml</dc:format>
        <dc:type
           rdf:resource="http://purl.org/dc/dcmitype/StillImage" />
        <dc:title />
      </cc:Work>
    </rdf:RDF>
  </metadata>
  <g transform="translate(-16,-16) scale(0.5,0.5)"
     inkscape:label="Layer 1"
     inkscape:groupmode="layer"
     id="layer1">
    <!-- INSERT MARKER -->
<g transform="translate(0.000000,96.000000) scale(0.100000,-0.100000)"
fill="#f391af" stroke="none">
<path d="M0 480 l0 -480 480 0 480 0 0 480 0 480 -480 0 -480 0 0 -480z"/>
</g>
<g transform="translate(0.000000,96.000000) scale(0.100000,-0.100000)"
fill="#e47096" stroke="none">
<path d="M0 948 c0 -5 5 -6 10 -3 5 3 10 1 10 -5 0 -6 4 -9 9 -6 5 3 14 -1 21
-9 10 -12 10 -15 -1 -15 -11 0 -11 -3 1 -11 12 -9 12 -10 -3 -5 -10 3 -21 6
-23 6 -3 0 -2 4 1 10 3 6 -1 7 -9 4 -18 -7 -22 -34 -6 -34 6 0 10 -5 10 -11 0
-5 -4 -8 -8 -5 -4 2 -8 -4 -9 -14 -1 -16 1 -18 17 -8 10 7 18 16 17 21 -1 5 5
12 13 14 13 4 13 3 0 -7 -12 -10 -11 -11 8 -7 15 4 22 0 22 -10 0 -10 -6 -14
-20 -10 -11 3 -18 1 -14 -4 3 -5 -2 -6 -10 -3 -19 7 -21 -7 -4 -24 9 -9 9 -12
0 -12 -7 0 -12 5 -12 10 0 6 -4 10 -10 10 -5 0 -10 -7 -10 -15 0 -8 5 -15 11
-15 6 0 7 -5 2 -12 -14 -23 -14 -58 -1 -58 9 0 9 -3 -2 -10 -12 -8 -13 -13 -2
-30 7 -12 8 -20 2 -20 -5 0 -10 -9 -10 -21 0 -11 4 -17 10 -14 5 3 10 2 10 -4
0 -8 10 -8 40 -1 3 0 -6 7 -20 15 -29 16 -19 20 11 4 22 -11 44 -1 93 44 18
17 22 27 14 35 -6 6 -18 8 -27 5 -9 -4 -5 3 9 15 l25 22 -22 19 c-12 10 -19
21 -16 25 4 3 1 6 -6 6 -7 0 -9 5 -5 13 4 7 3 9 -2 4 -5 -5 -9 -14 -9 -19 0
-6 -5 -13 -11 -15 -7 -2 -11 6 -10 22 0 14 5 25 9 25 15 0 34 25 29 38 -2 7
-8 10 -13 6 -5 -3 -9 2 -9 10 0 13 3 14 19 4 19 -12 21 -24 8 -45 -13 -20 7
-22 30 -3 18 14 20 19 8 24 -8 3 -15 10 -15 16 0 6 7 4 16 -4 8 -9 20 -16 25
-16 18 0 3 25 -25 43 -23 15 -26 21 -15 28 19 12 29 11 29 -2 0 -5 -4 -7 -10
-4 -5 3 -10 2 -10 -3 0 -6 7 -13 16 -16 8 -3 12 -2 9 3 -3 5 0 13 6 17 6 3 15
0 20 -7 5 -8 3 -17 -4 -21 -7 -4 -7 -8 -2 -8 6 0 15 4 20 8 13 9 18 35 5 27
-5 -3 -10 -2 -10 4 0 5 5 11 11 13 6 2 -44 4 -110 5 -70 0 -121 -3 -121 -9z
m123 -17 c9 -10 8 -11 -5 -6 -11 4 -18 2 -18 -4 0 -13 -10 -14 -29 -2 -7 5
-11 13 -8 18 8 13 45 9 60 -6z m-38 -30 c3 -5 1 -12 -4 -15 -5 -3 -11 1 -15 9
-6 16 9 21 19 6z m12 -48 c-4 -3 -7 0 -7 7 0 7 3 10 7 7 3 -4 3 -10 0 -14z
m-17 -33 c0 -5 -7 -10 -15 -10 -8 0 -15 5 -15 10 0 6 7 10 15 10 8 0 15 -4 15
-10z m-6 -57 c-10 -8 -27 -19 -36 -24 -15 -8 -17 -6 -14 13 3 13 5 25 5 28 1
3 6 -2 11 -10 9 -13 10 -13 11 0 1 8 1 19 0 23 -1 4 9 3 21 -4 21 -11 21 -12
2 -26z m57 5 c11 -21 11 -22 -4 -10 -14 12 -16 11 -15 -5 0 -10 -3 -26 -7 -35
-5 -14 -2 -16 14 -13 26 5 26 1 -1 -30 -20 -23 -77 -37 -63 -15 3 5 13 6 22 3
11 -4 14 -3 9 6 -4 6 -15 11 -24 10 -41 -4 -44 0 -25 32 10 17 28 36 41 42 12
6 22 16 22 24 0 21 18 15 31 -9z"/>
<path d="M70 935 c0 -3 2 -5 5 -5 3 0 5 2 5 5 0 3 -2 5 -5 5 -3 0 -5 -2 -5 -5z"/>
<path d="M85 740 c3 -5 -5 -15 -19 -22 -14 -6 -26 -18 -26 -26 0 -12 2 -12 17
-1 13 11 17 11 20 2 3 -7 12 -13 20 -13 12 0 13 3 4 14 -9 11 -10 20 -1 35 9
17 8 21 -5 21 -9 0 -13 -4 -10 -10z"/>
<path d="M250 941 c-7 -14 -6 -21 3 -24 9 -4 9 -6 0 -6 -7 -1 -13 -7 -13 -15
0 -9 -8 -13 -22 -10 -13 2 -17 1 -9 -2 9 -4 1 -13 -25 -28 -46 -26 -51 -53
-17 -86 13 -13 23 -19 22 -14 -4 21 2 26 18 13 15 -13 16 -12 11 9 -6 22 -6
23 17 8 16 -10 25 -12 27 -4 2 6 11 4 21 -7 10 -9 15 -20 11 -24 -4 -3 -9 0
-11 7 -3 6 -9 12 -14 12 -6 0 -7 -4 -4 -10 3 -5 -1 -10 -9 -10 -9 0 -15 3 -15
8 3 20 -3 20 -22 1 -13 -13 -27 -18 -40 -14 -13 4 -19 2 -19 -9 0 -18 -1 -17
53 -20 26 -2 41 2 48 13 8 13 9 11 4 -6 -4 -14 -2 -23 4 -23 6 0 11 9 11 21 0
11 4 18 9 15 5 -3 15 1 22 10 11 14 10 19 -10 35 -13 11 -18 19 -13 19 6 0 13
-4 17 -10 3 -5 13 -6 22 -3 13 5 15 3 9 -13 -17 -40 -17 -51 -1 -58 19 -7 38
1 30 14 -7 12 27 22 38 11 5 -5 -4 -15 -24 -25 -29 -15 -35 -15 -56 -1 -22 15
-28 12 -24 -9 1 -5 -2 -12 -8 -15 -6 -4 -6 -12 -2 -20 7 -11 10 -9 15 7 6 17
13 20 37 15 17 -3 35 0 44 7 12 10 15 10 15 -4 0 -9 7 -16 16 -16 13 0 14 3 5
14 -10 12 -8 13 10 9 16 -5 20 -3 15 6 -5 7 0 18 10 26 20 14 38 10 29 -6 -6
-8 8 -13 28 -10 4 0 7 -4 7 -10 0 -7 -7 -8 -17 -4 -38 16 -56 18 -49 7 11 -18
-25 -52 -43 -43 -9 5 -28 9 -43 9 -24 0 -26 -3 -17 -19 11 -22 4 -25 -15 -6
-7 7 -11 19 -8 27 3 10 1 12 -6 5 -5 -5 -12 -19 -14 -29 -3 -19 -4 -19 -20 -2
-10 10 -19 15 -19 12 -1 -3 -2 -10 -3 -16 0 -5 -10 -16 -21 -24 -11 -9 -15
-16 -10 -16 6 0 -1 -7 -15 -16 -23 -14 -23 -14 -2 -9 16 5 22 2 22 -9 0 -19
-8 -20 -35 -3 -31 18 -24 36 20 57 22 10 32 19 23 19 -9 1 -20 -4 -23 -9 -4
-6 -15 -8 -25 -5 -24 8 -51 -62 -29 -76 8 -5 21 -7 29 -4 12 4 12 3 -1 -8 -10
-7 -15 -23 -13 -39 2 -22 0 -25 -11 -15 -7 6 -10 17 -7 22 10 15 9 29 -3 37
-12 9 -41 10 -32 2 4 -4 -2 -19 -12 -33 -10 -14 -19 -30 -19 -36 0 -5 -5 -11
-11 -13 -19 -6 -7 43 12 50 9 4 17 14 17 23 0 18 -17 20 -23 3 -2 -7 -2 -1 0
15 3 15 0 27 -6 27 -8 0 -7 6 1 19 14 22 23 19 38 -12 11 -21 11 -21 -4 -3
-18 22 -30 17 -20 -8 8 -20 28 -21 43 -2 8 10 9 16 1 21 -5 3 -10 11 -10 16 0
6 4 8 10 4 5 -3 18 3 30 15 17 17 34 23 60 22 3 0 11 7 19 15 12 13 10 14 -18
8 -26 -5 -30 -4 -25 9 3 9 1 16 -5 16 -6 0 -11 -5 -11 -11 0 -12 -25 -39 -36
-39 -4 0 1 10 12 22 l19 22 -25 -16 c-14 -9 -24 -23 -22 -33 2 -10 -1 -14 -7
-11 -14 9 -73 -22 -66 -34 5 -8 -24 -22 -41 -19 -34 6 -49 -23 -18 -35 20 -8
36 2 28 16 -4 6 -2 8 4 4 5 -3 12 0 15 6 3 9 8 10 16 3 7 -8 -2 -18 -34 -35
-48 -26 -64 -49 -17 -24 32 16 52 18 52 4 0 -5 -7 -10 -15 -10 -8 0 -15 -4
-15 -10 0 -5 7 -7 15 -4 19 8 19 -3 1 -22 -19 -19 -21 -18 -23 7 -2 24 -10 35
-19 26 -4 -4 -1 -13 6 -22 8 -10 9 -15 1 -15 -6 0 -11 5 -11 10 0 6 -4 10 -10
10 -5 0 -10 -7 -10 -15 0 -8 5 -15 10 -15 6 0 10 -5 10 -11 0 -5 -3 -8 -8 -6
-4 3 -7 -8 -7 -24 -1 -16 4 -29 10 -29 5 0 4 -4 -3 -9 -8 -4 -13 -11 -13 -15
1 -13 25 -32 40 -33 9 -1 28 -4 43 -6 28 -6 68 16 55 30 -5 4 -13 0 -18 -9
-12 -21 -38 -13 -32 10 4 17 53 27 53 11 0 -5 5 -9 11 -9 5 0 8 4 4 9 -9 15
13 23 32 12 14 -8 15 -10 3 -11 -13 0 -13 -2 0 -9 18 -12 33 -3 26 16 -4 11
-1 13 14 8 13 -4 22 -1 26 8 7 20 25 16 52 -11 12 -12 31 -22 42 -22 11 0 20
-4 20 -10 0 -5 -7 -7 -16 -3 -14 5 -15 3 -5 -15 13 -24 6 -29 -13 -9 -7 7 -10
19 -8 27 5 13 3 13 -12 1 -14 -12 -16 -12 -10 2 4 12 1 14 -15 10 -17 -4 -20
-2 -15 11 3 9 1 16 -5 16 -6 0 -11 -7 -11 -16 0 -8 -4 -13 -9 -10 -5 4 -11 1
-13 -5 -2 -6 -16 -11 -31 -11 -15 0 -26 -5 -24 -11 2 -6 31 -11 64 -11 34 -1
65 -5 70 -10 4 -5 -1 -7 -13 -4 -12 3 -29 1 -39 -4 -12 -8 -20 -6 -27 3 -7 11
-11 11 -15 2 -7 -18 -16 -16 -41 5 -16 14 -18 22 -10 30 8 8 8 12 1 12 -19 0
-34 -25 -21 -38 8 -8 5 -9 -13 -5 -23 5 -23 5 -4 -10 10 -8 25 -13 32 -10 9 4
11 0 6 -13 -5 -16 -4 -17 8 -8 26 21 56 26 56 9 0 -9 -6 -14 -14 -11 -8 3 -12
2 -9 -3 8 -12 -20 -22 -39 -14 -17 6 -17 -16 0 -30 6 -4 -3 -5 -20 -2 -21 4
-25 3 -15 -3 25 -16 63 -25 56 -14 -3 6 -1 14 5 18 8 4 9 3 5 -4 -5 -8 1 -11
19 -10 17 2 28 10 31 25 4 13 10 23 16 23 5 0 7 -4 3 -9 -3 -5 3 -12 12 -14
14 -4 13 -5 -4 -6 -13 0 -23 -6 -23 -12 0 -6 9 -8 23 -4 12 3 17 3 11 -2 -6
-4 -14 -19 -18 -33 -3 -14 -3 -20 0 -13 6 13 34 6 34 -9 0 -5 -4 -6 -10 -3 -5
3 -10 3 -10 -2 0 -4 -11 -9 -25 -9 -14 -1 -25 2 -25 8 0 5 5 6 10 3 6 -3 10
-2 10 4 0 5 -5 13 -12 17 -8 5 -6 10 8 15 14 5 10 7 -13 6 -18 -1 -33 -5 -33
-9 0 -4 -7 -5 -15 -2 -18 7 -20 -7 -3 -24 8 -8 8 -12 1 -12 -20 0 -34 25 -21
38 7 7 8 12 2 12 -17 0 -33 -22 -27 -38 4 -9 2 -13 -4 -9 -6 4 -13 1 -15 -5
-3 -8 -16 -1 -34 20 -24 26 -32 30 -43 20 -10 -11 -11 -10 -6 5 4 9 11 17 16
17 19 0 25 4 41 31 18 29 38 39 38 18 0 -5 -4 -7 -10 -4 -5 3 -10 1 -10 -4 0
-16 16 -13 30 4 11 13 9 19 -10 35 -14 12 -31 18 -42 14 -10 -3 -18 0 -18 6 0
6 -5 8 -11 5 -6 -5 -4 -12 8 -20 10 -7 20 -9 23 -5 3 5 12 5 20 0 13 -8 12
-10 -2 -10 -10 0 -18 -4 -18 -10 0 -5 -5 -10 -11 -10 -5 0 -7 5 -4 10 3 6 2
10 -4 10 -18 0 -23 -20 -7 -26 9 -3 13 -11 10 -16 -4 -6 -10 -5 -15 3 -7 11
-9 10 -9 -3 0 -9 -9 -20 -20 -23 -11 -4 -18 -11 -15 -16 4 -5 -2 -6 -12 -2
-16 6 -16 5 -4 -11 10 -12 22 -15 43 -11 29 7 36 -3 16 -23 -15 -15 -31 -16
-22 0 4 7 3 8 -5 4 -6 -4 -18 -2 -26 4 -12 10 -15 10 -15 0 0 -6 10 -20 22
-30 21 -16 23 -16 35 -1 10 13 14 14 25 3 7 -7 8 -12 3 -10 -6 2 -22 -8 -35
-21 l-25 -23 32 16 c29 14 31 14 29 -2 -2 -9 -9 -17 -17 -17 -8 0 -18 -10 -24
-22 -10 -24 -27 -32 -22 -12 1 6 -4 14 -10 16 -19 7 -16 -22 4 -38 9 -8 18
-13 20 -11 1 1 13 2 26 2 15 0 18 -3 9 -8 -7 -5 14 -9 48 -9 33 0 63 4 66 8 3
5 21 9 40 9 19 0 33 -4 30 -8 -3 -5 16 -9 40 -11 32 -1 44 1 39 9 -4 7 -18 10
-31 7 -20 -3 -22 -2 -13 10 7 7 14 11 17 8 3 -3 10 -1 16 4 6 4 25 13 43 19
25 8 33 8 37 -4 3 -8 11 -14 18 -13 10 0 10 2 1 6 -21 8 -15 22 7 16 16 -4 19
-2 14 11 -3 9 -1 16 6 16 6 0 8 5 4 12 -5 7 -11 5 -21 -7 -7 -11 -13 -14 -13
-8 0 7 5 15 10 18 15 9 12 25 -6 25 -8 0 -12 -4 -9 -10 3 -5 2 -10 -4 -10 -5
0 -11 5 -13 11 -2 6 -16 -2 -32 -16 -24 -22 -26 -29 -15 -37 10 -7 7 -7 -10
-3 -15 5 -21 3 -17 -3 3 -6 2 -13 -4 -17 -5 -3 -10 1 -10 9 0 8 7 19 15 24 9
4 17 18 18 29 1 14 6 19 16 15 9 -3 12 -1 7 6 -4 7 -4 12 1 13 4 0 22 2 39 3
26 3 34 -1 43 -22 9 -19 15 -22 24 -13 9 9 9 14 -1 20 -10 6 -9 10 6 13 14 4
19 2 16 -7 -3 -7 -1 -16 4 -19 5 -3 12 5 14 19 3 14 1 25 -5 25 -15 0 25 29
41 30 6 0 12 -4 12 -10 0 -5 -10 -10 -22 -10 -22 -1 -22 -1 -4 -11 10 -6 21
-7 25 -3 8 12 34 17 27 6 -3 -5 3 -17 14 -27 11 -10 20 -23 20 -29 0 -6 -8 -2
-16 9 -12 15 -18 16 -21 7 -9 -23 -47 -54 -52 -41 -2 7 6 19 18 28 12 9 19 20
16 23 -4 4 -16 -3 -26 -13 -12 -12 -27 -18 -38 -14 -12 3 -18 0 -18 -10 0 -8
9 -17 19 -21 10 -3 18 -9 18 -14 0 -11 50 14 62 32 6 8 7 4 2 -12 -7 -26 -23
-42 -35 -34 -4 2 -10 0 -14 -5 -3 -6 -12 -8 -20 -5 -8 4 -12 10 -9 15 3 5 -2
6 -11 3 -14 -6 -13 -10 6 -30 23 -25 35 -31 24 -14 -3 6 4 10 17 10 18 0 20
-2 8 -10 -10 -6 -1 -9 29 -8 24 0 39 3 33 7 -6 4 -3 15 9 29 10 13 23 20 29
17 11 -7 41 25 34 36 -2 3 7 11 20 17 17 8 23 7 23 -3 0 -7 -11 -18 -24 -24
-12 -6 -23 -15 -23 -21 0 -12 13 -13 24 -2 10 9 76 9 76 0 0 -5 -4 -8 -9 -8
-14 0 -23 -32 -11 -44 8 -8 14 -7 20 4 7 10 10 11 10 2 0 -7 11 -11 29 -10 21
2 27 6 21 14 -6 6 -7 14 -3 17 3 4 1 7 -5 7 -7 0 -12 -4 -12 -10 0 -5 -5 -10
-12 -10 -6 0 -3 9 7 20 22 24 9 27 -17 3 -18 -16 -18 -16 -12 0 3 9 10 17 16
17 5 0 6 5 3 10 -3 6 -15 10 -27 10 -19 0 -19 1 3 19 l24 19 -23 20 c-17 15
-19 22 -10 26 7 3 3 3 -9 0 -15 -3 -25 1 -33 16 -9 16 -8 20 6 20 10 0 15 3
11 6 -3 4 -20 2 -36 -4 -25 -9 -31 -8 -31 4 0 7 7 14 15 14 8 0 18 0 23 1 4 0
13 12 21 26 10 20 15 23 22 12 7 -12 11 -11 26 5 13 13 15 20 6 23 -7 3 -13 9
-13 14 0 14 43 4 48 -11 3 -8 0 -10 -8 -5 -9 6 -11 4 -5 -4 5 -9 12 -7 26 8
27 28 43 27 24 -2 -8 -13 -12 -27 -8 -32 7 -7 -5 -4 -44 12 -7 3 -13 -2 -13
-10 0 -18 24 -28 48 -21 14 5 15 4 2 -5 -12 -9 -9 -10 13 -9 20 2 29 9 33 25
4 13 10 23 16 23 5 0 6 -4 3 -10 -3 -5 1 -10 10 -10 9 0 13 -4 10 -10 -3 -5 0
-10 8 -10 16 0 21 47 6 56 -5 3 -9 10 -9 15 0 6 4 8 9 5 10 -7 8 90 -2 101 -4
3 -2 12 4 19 7 8 7 14 -1 19 -8 5 -7 11 2 23 11 13 10 15 -7 10 -25 -6 -33 27
-9 36 8 3 12 2 9 -3 -3 -5 -1 -12 4 -15 5 -3 9 10 8 29 -1 28 -5 35 -21 35
-20 0 -19 1 2 16 19 13 21 18 11 31 -10 12 -10 16 2 24 10 8 8 9 -9 4 -21 -6
-22 -5 -10 20 11 24 13 25 19 8 5 -12 7 -6 5 17 -1 19 -5 40 -9 47 -4 6 -3 15
3 18 8 5 8 11 0 20 -7 9 -8 15 -1 20 6 3 10 26 9 50 -2 38 -6 45 -22 45 -19 0
-19 1 2 16 19 13 21 18 11 31 -9 10 -10 16 -2 21 6 4 -38 8 -98 9 -98 1 -110
-1 -120 -18 -5 -10 -14 -19 -19 -19 -15 0 -12 28 3 33 6 2 -39 4 -100 3 -85 0
-114 -4 -118 -14 -3 -8 -3 -18 1 -23 3 -5 0 -9 -5 -9 -13 0 -10 -22 4 -33 6
-4 -3 -5 -20 -2 -20 4 -12 -3 28 -22 61 -30 71 -43 35 -43 -21 -1 -21 -2 5
-16 16 -9 31 -13 34 -10 4 3 12 1 19 -5 9 -7 19 -7 33 0 27 15 30 14 24 -10
-4 -16 -8 -18 -14 -7 -7 11 -11 10 -20 -2 -8 -11 -12 -12 -16 -2 -2 6 -9 12
-14 12 -6 0 -7 -4 -4 -10 3 -5 -1 -10 -9 -10 -9 0 -16 4 -16 10 0 5 -6 9 -12
7 -7 -1 -12 4 -10 12 2 9 -3 11 -13 7 -9 -3 -14 -2 -12 2 5 9 -39 53 -46 45
-3 -3 -3 -11 0 -19 7 -18 -1 -18 -40 3 -22 11 -28 18 -17 21 8 3 18 10 22 16
5 7 8 4 8 -6 0 -20 15 -24 25 -7 4 6 -1 17 -11 24 -24 18 -34 19 -34 1 0 -8
-12 -19 -27 -24 -18 -7 -22 -11 -10 -11 20 -1 24 -21 3 -21 -30 0 -27 45 4 52
18 4 54 57 45 66 -3 4 -10 0 -15 -8 -5 -8 -11 -12 -14 -10 -2 3 2 13 9 23 12
16 14 16 29 2 18 -18 22 -40 6 -30 -5 3 -10 -2 -10 -11 0 -16 2 -16 20 1 14
13 17 22 10 29 -15 15 -12 26 5 20 8 -4 15 -2 15 2 0 5 -52 10 -115 11 -104 3
-115 1 -125 -16z m33 -3 c4 -9 8 -10 14 -3 9 12 33 14 33 3 0 -27 -2 -33 -6
-21 -4 8 -16 10 -35 6 -22 -4 -29 -2 -29 11 0 19 16 21 23 4z m122 2 c3 -5 -8
-16 -24 -25 -37 -19 -47 -19 -32 -2 6 8 7 18 3 22 -4 5 -2 5 5 1 6 -3 14 -2
18 4 8 13 22 13 30 0z m195 4 c0 -15 -15 -34 -27 -34 -8 0 -12 4 -8 9 3 5 0
13 -6 17 -8 5 -9 3 -4 -6 5 -8 4 -11 -2 -7 -6 4 -17 -1 -24 -10 -12 -14 -11
-15 8 -9 12 4 24 2 27 -3 10 -16 -11 -22 -37 -10 -28 13 -29 39 -2 49 18 6 75
9 75 4z m85 -14 c11 -12 13 -20 6 -20 -7 0 -9 -5 -5 -12 5 -7 17 0 37 22 21
23 31 29 37 20 4 -7 10 -8 14 -2 6 9 53 8 63 -2 4 -3 12 -1 19 5 15 12 37 3
29 -12 -4 -5 -1 -9 4 -9 6 0 11 7 11 15 0 21 17 19 30 -4 15 -29 12 -35 -7
-20 -10 7 -15 10 -11 5 4 -4 3 -18 -2 -31 -8 -20 -6 -22 13 -18 13 3 18 1 11
-4 -6 -4 -16 -22 -22 -40 -9 -27 -8 -34 9 -49 10 -9 17 -20 14 -23 -4 -3 -10
1 -16 9 -7 13 -10 13 -18 1 -5 -7 -13 -11 -19 -7 -14 8 -43 -4 -36 -16 3 -5
11 -5 19 2 7 6 16 7 19 2 3 -5 -6 -15 -19 -22 -14 -7 -25 -19 -25 -27 0 -7 -5
-13 -11 -13 -5 0 -7 6 -3 13 5 7 -2 5 -16 -4 -31 -21 -34 -64 -4 -65 12 -1 26
-4 32 -8 6 -3 13 -2 17 4 3 5 2 10 -3 10 -15 0 -52 37 -45 44 4 4 16 -3 26
-16 10 -13 16 -17 12 -10 -7 14 -4 14 75 2 3 0 -4 -6 -15 -13 -22 -13 -31 -37
-15 -37 5 0 10 7 10 15 0 21 17 19 30 -4 14 -27 13 -36 -3 -22 -10 8 -14 7
-14 -2 0 -6 -4 -20 -8 -31 -7 -16 -5 -17 16 -11 13 3 19 3 13 -2 -6 -4 -16
-22 -22 -40 -9 -27 -8 -34 9 -49 10 -9 19 -22 19 -28 0 -6 -7 -2 -15 8 -8 11
-16 18 -17 15 -2 -2 -14 -17 -28 -32 -22 -25 -23 -28 -6 -25 11 1 21 -4 23
-12 4 -13 3 -13 -6 0 -9 13 -11 12 -11 -3 0 -10 -4 -15 -10 -12 -5 3 -10 2
-10 -3 0 -6 -9 -8 -20 -5 -11 3 -17 9 -14 14 3 5 -2 6 -11 3 -28 -11 9 -42 43
-36 37 7 84 62 52 62 -5 0 -10 4 -10 9 0 5 9 7 20 4 20 -5 29 -43 10 -43 -5 0
-10 -7 -10 -16 0 -14 2 -15 17 -3 14 12 16 12 11 -1 -3 -8 -14 -15 -25 -15
-12 0 -25 -4 -30 -9 -5 -6 -2 -6 7 -1 12 7 13 6 2 -6 -11 -12 -14 -12 -23 1
-8 11 -12 12 -16 3 -7 -19 -19 -16 -47 12 -14 14 -27 21 -31 16 -3 -5 0 -13 6
-17 8 -4 7 -9 -2 -15 -27 -17 -35 -2 -15 29 4 7 5 16 1 20 -3 4 -11 -1 -16
-11 -7 -12 -15 -15 -27 -8 -26 13 -87 12 -74 -1 6 -6 29 -11 51 -12 22 -1 44
-6 48 -10 4 -5 0 -6 -9 -3 -11 4 -18 1 -18 -6 0 -8 -4 -7 -10 3 -5 8 -12 11
-16 7 -11 -11 4 -21 34 -22 15 0 25 -4 23 -10 -1 -5 -7 -9 -12 -7 -5 1 -9 -2
-9 -7 0 -5 -10 -9 -22 -8 -13 0 -32 -4 -43 -8 -18 -8 -19 -7 -5 10 14 17 14
18 -7 6 -25 -13 -31 -37 -11 -43 6 -2 12 -11 14 -20 1 -11 -3 -15 -14 -11 -10
3 -2 -9 17 -26 18 -17 28 -31 22 -31 -7 0 -23 11 -36 24 -24 24 -44 24 -25 1
8 -9 5 -14 -9 -18 -11 -3 -20 -2 -19 2 2 19 -3 31 -12 26 -6 -3 -15 -3 -22 1
-8 5 -6 10 8 16 14 6 13 7 -8 3 -15 -3 -30 -1 -33 5 -3 5 3 10 13 10 11 0 23
7 26 16 9 23 7 34 -4 34 -5 0 -10 -6 -10 -14 0 -9 -7 -12 -22 -9 -17 3 -19 2
-10 -5 11 -7 11 -10 -1 -15 -11 -4 -15 0 -12 14 2 10 -1 19 -6 19 -6 0 -8 4
-4 9 3 5 0 13 -7 17 -7 4 -10 4 -6 -1 11 -12 -40 -55 -57 -49 -9 4 -15 0 -15
-10 0 -17 -2 -18 -42 -21 -15 -1 -25 2 -22 6 8 14 -10 10 -34 -6 -21 -15 -21
-15 -13 7 6 16 17 23 41 24 23 1 29 -1 19 -8 -10 -6 -7 -8 11 -6 25 3 67 55
54 67 -4 3 -9 0 -11 -6 -3 -7 -9 -13 -14 -13 -6 0 -7 5 -4 11 4 6 0 9 -11 7
-11 -2 -18 2 -16 10 1 6 -2 12 -8 12 -5 0 -10 -5 -10 -11 0 -5 -4 -8 -8 -5 -5
3 -9 -1 -9 -9 0 -9 4 -11 11 -6 7 6 20 2 35 -10 23 -19 23 -19 2 -19 -14 0
-20 4 -15 12 5 7 0 9 -14 6 -20 -6 -62 15 -62 30 0 4 12 9 26 10 32 2 46 11
39 23 -4 5 4 9 17 9 18 0 20 -2 8 -10 -8 -5 -12 -12 -9 -15 9 -9 40 6 33 16
-3 5 -2 8 3 7 4 -1 18 3 29 10 26 14 39 52 17 52 -8 0 -11 -4 -8 -10 3 -5 -3
-19 -13 -30 -19 -20 -20 -20 -42 -2 -16 13 -20 21 -12 26 7 4 12 1 12 -8 0 -9
7 -16 16 -16 13 0 14 3 5 14 -10 12 -8 13 10 9 16 -5 20 -3 14 6 -4 8 1 18 14
27 23 16 29 39 9 31 -7 -2 -12 -10 -10 -16 1 -7 -2 -10 -7 -7 -5 4 -14 -2 -20
-11 -6 -10 -11 -13 -11 -7 0 5 5 15 12 22 9 9 9 12 0 12 -17 0 -15 27 4 34 8
3 12 2 9 -3 -3 -5 -1 -12 5 -16 5 -3 10 -2 10 3 0 14 33 9 43 -6 11 -17 37
-15 37 4 0 11 -5 14 -17 10 -10 -4 -14 -4 -11 0 13 12 -21 37 -35 26 -8 -7
-18 -7 -27 -2 -20 12 28 51 54 44 11 -4 16 -2 12 4 -3 6 -1 14 5 18 8 5 9 3 4
-6 -6 -10 -3 -12 13 -8 16 4 22 2 22 -9 0 -10 -6 -14 -20 -10 -12 3 -18 1 -14
-5 4 -6 -2 -6 -14 1 -31 17 -37 13 -16 -10 22 -25 73 -53 82 -45 3 3 11 1 18
-5 9 -7 19 -7 33 0 27 15 30 14 24 -10 -4 -16 -8 -18 -14 -7 -7 11 -11 10 -20
-2 -8 -11 -12 -12 -16 -2 -2 6 -9 12 -14 12 -6 0 -7 -4 -4 -10 3 -5 -1 -10 -9
-10 -9 0 -16 5 -16 11 0 5 -5 7 -11 3 -8 -5 -7 -9 3 -15 10 -5 13 -19 10 -39
-4 -30 -22 -43 -22 -15 0 17 -35 55 -50 55 -6 0 -10 -7 -10 -15 0 -14 12 -19
33 -16 4 0 7 -4 7 -10 0 -6 -9 -8 -21 -4 -13 5 -19 3 -15 -3 3 -5 -1 -15 -9
-22 -12 -10 -13 -16 -3 -28 10 -13 10 -14 0 -8 -7 4 -21 4 -33 1 -16 -5 -18
-10 -8 -21 13 -16 33 -8 22 9 -4 7 1 6 10 -2 10 -8 20 -11 24 -8 3 4 14 2 24
-3 12 -7 20 -7 24 0 3 5 2 10 -3 10 -5 0 -19 8 -31 19 -18 16 -19 20 -6 31 8
6 20 10 27 7 8 -4 7 -6 -4 -6 -10 -1 -18 -6 -18 -11 0 -6 3 -9 8 -9 19 3 56
-3 45 -8 -7 -2 -13 -9 -13 -15 0 -6 7 -7 16 -4 9 4 13 2 8 -5 -4 -7 0 -9 14
-5 15 5 24 1 32 -14 11 -20 10 -20 -23 -6 -31 13 -36 12 -51 -5 -18 -21 -14
-24 14 -9 21 11 53 3 44 -11 -9 -16 23 -10 37 7 10 13 10 17 -1 24 -20 13 -5
23 17 13 21 -11 43 -11 43 0 0 4 0 11 0 17 0 5 -7 7 -15 4 -8 -4 -15 -1 -15 5
0 13 -22 10 -32 -4 -5 -6 -11 -6 -18 1 -10 10 2 29 20 33 36 9 49 15 45 21 -3
5 -1 11 5 15 6 4 8 10 5 15 -7 12 27 22 38 11 7 -7 1 -14 -16 -22 -15 -7 -24
-16 -20 -22 3 -5 9 -3 14 4 6 11 11 10 23 -6 8 -11 18 -17 22 -12 4 4 2 7 -4
7 -7 0 -12 4 -12 9 0 5 9 7 20 4 16 -4 19 -2 14 11 -3 9 -1 16 6 16 6 0 8 5 4
12 -5 7 -11 5 -21 -7 -7 -11 -13 -14 -13 -8 0 7 5 15 10 18 12 7 4 25 -11 25
-6 0 -7 -4 -4 -10 3 -5 1 -10 -4 -10 -6 0 -11 5 -11 10 0 6 -4 9 -9 8 -5 -2
-9 1 -9 6 0 5 -5 12 -11 15 -8 5 -7 13 3 27 8 10 18 15 22 11 5 -4 2 -12 -6
-18 -13 -8 -13 -10 0 -19 8 -5 22 -7 31 -5 10 4 20 -4 28 -21 9 -21 15 -24 24
-15 9 9 9 14 -1 20 -10 6 -8 10 9 14 15 4 30 0 41 -10 16 -15 18 -15 18 0 0 9
-9 19 -21 22 -19 7 -20 7 -2 21 21 16 43 18 43 4 0 -5 -10 -10 -22 -10 -22 -1
-22 -1 -4 -12 15 -8 21 -8 24 0 2 7 8 9 14 6 6 -4 6 2 -1 14 -8 16 -8 22 2 25
6 2 2 2 -10 1 -12 -2 -25 0 -28 6 -3 5 2 10 13 10 10 0 24 11 30 24 9 21 8 25
-10 29 -11 3 -17 10 -13 16 10 18 1 13 -18 -9 -16 -19 -16 -20 1 -17 9 1 18
-2 19 -8 1 -5 -8 -9 -20 -7 -16 2 -18 0 -9 -6 11 -8 11 -10 -1 -15 -11 -4 -15
0 -12 14 2 10 -1 19 -6 19 -6 0 -8 4 -4 9 3 5 0 13 -6 17 -8 4 -9 3 -5 -4 4
-7 2 -12 -3 -12 -6 0 -11 -7 -11 -15 0 -8 5 -15 12 -15 6 0 8 -3 5 -6 -4 -4
-13 -1 -21 5 -10 8 -16 9 -21 1 -3 -5 0 -10 7 -10 9 0 9 -3 -2 -10 -8 -5 -19
-10 -25 -10 -5 0 -4 4 4 9 10 6 10 10 1 16 -7 4 -17 -1 -26 -13 -10 -15 -23
-19 -56 -17 l-43 3 23 -18 c13 -11 18 -21 12 -25 -5 -3 -10 -1 -10 5 0 6 -4 9
-9 5 -5 -3 -12 3 -14 12 -3 13 -5 12 -6 -5 0 -13 -5 -20 -11 -17 -5 3 -10 3
-10 -2 0 -4 -11 -9 -25 -9 -19 -2 -23 1 -16 10 7 9 7 16 -1 24 -9 9 -7 12 7
13 11 0 14 3 8 6 -17 6 -16 25 3 49 8 10 13 13 9 7 -9 -18 20 -16 34 1 8 10 9
16 1 21 -5 3 -10 1 -10 -4 0 -6 -4 -11 -10 -11 -19 0 -10 17 15 28 33 15 48
15 39 0 -4 -6 -3 -8 3 -5 6 4 16 0 23 -8 7 -8 10 -15 7 -15 -3 0 -13 -3 -23
-7 -12 -4 -15 -3 -10 5 11 18 2 15 -24 -8 -13 -11 -31 -20 -42 -20 -10 0 -18
-5 -18 -11 0 -6 9 -8 22 -3 20 6 21 5 10 -9 -8 -9 -9 -18 -3 -21 10 -6 26 11
26 28 0 5 6 11 13 14 6 2 12 -3 12 -12 0 -9 4 -16 9 -16 4 0 8 10 7 22 0 13 5
23 12 24 6 1 14 2 17 3 11 3 15 1 13 -6 -2 -5 -5 -7 -8 -6 -3 0 -11 -6 -19
-14 -11 -13 -10 -14 10 -11 30 4 67 57 48 69 -8 4 -10 11 -6 16 5 4 12 1 17
-7 6 -8 10 -13 11 -10 0 3 2 13 4 23 3 14 -1 17 -18 12 -21 -6 -21 -5 2 15 13
11 21 23 17 27 -3 4 -12 -1 -19 -10 -8 -12 -16 -14 -27 -7 -13 8 -12 10 4 10
14 0 16 3 8 13 -8 9 -4 13 19 13 16 1 26 -2 23 -7 -3 -5 -1 -9 4 -9 17 0 22
13 11 27 -9 10 -15 10 -25 2 -10 -8 -14 -8 -14 0 0 6 5 11 11 11 5 0 7 5 3 12
-5 7 -11 5 -21 -7 -7 -11 -13 -14 -13 -8 0 7 5 15 10 18 12 7 4 25 -11 25 -6
0 -7 -4 -4 -10 3 -5 1 -10 -4 -10 -6 0 -11 5 -11 10 0 6 -4 9 -9 8 -5 -2 -9 1
-9 6 0 5 -5 12 -11 15 -8 5 -7 13 3 27 8 10 18 15 22 11 5 -4 2 -12 -6 -18
-13 -8 -13 -10 0 -19 8 -5 22 -7 31 -5 10 4 20 -4 28 -21 10 -22 14 -24 27
-13 14 12 14 14 -3 20 -17 6 -17 7 2 11 11 2 28 -1 38 -6 15 -9 22 -6 36 11
10 12 22 19 26 15 4 -4 3 3 -4 15 -8 16 -8 23 2 26 6 2 2 2 -10 1 -12 -2 -25
0 -28 6 -3 5 2 10 13 10 10 0 24 11 30 24 9 21 8 25 -10 29 -11 3 -17 10 -13
16 10 18 1 13 -18 -9 -16 -19 -16 -20 3 -17 10 1 19 -2 19 -8 0 -5 -10 -9 -22
-7 -16 2 -18 0 -9 -6 11 -8 11 -10 -1 -15 -11 -4 -15 0 -12 14 2 10 -1 19 -6
19 -6 0 -8 4 -4 9 3 5 0 13 -6 17 -8 4 -9 3 -5 -4 4 -7 2 -12 -3 -12 -6 0 -11
-7 -11 -15 0 -8 5 -15 12 -15 6 0 8 -3 5 -6 -4 -4 -13 -1 -21 5 -10 8 -16 9
-21 1 -3 -5 0 -10 7 -10 9 0 9 -3 -2 -10 -8 -5 -19 -10 -25 -10 -5 0 -4 4 4 9
10 6 10 10 1 16 -7 4 -17 -1 -26 -13 -10 -15 -23 -19 -56 -17 l-43 3 23 -18
c13 -11 18 -21 12 -25 -5 -3 -10 -1 -10 5 0 6 -4 8 -10 5 -5 -3 -10 1 -10 10
0 9 -5 13 -11 10 -6 -4 -8 -13 -5 -20 2 -7 -3 -16 -12 -20 -9 -3 -13 -3 -9 1
4 4 -11 18 -34 32 -31 18 -38 27 -28 33 9 6 15 3 17 -6 2 -8 11 -15 20 -15 13
0 14 2 3 9 -24 15 -4 48 30 48 19 0 25 -3 17 -9 -7 -4 -21 -8 -30 -8 -10 0
-18 -5 -18 -11 0 -6 9 -8 22 -3 20 6 21 5 10 -9 -8 -9 -9 -18 -3 -21 10 -6 26
11 26 28 0 5 6 11 13 14 6 2 12 -3 12 -12 0 -9 4 -16 8 -16 4 0 8 11 8 25 0
14 -4 25 -9 25 -4 0 -5 5 -1 12 4 7 3 8 -5 4 -6 -4 -19 -2 -28 6 -12 9 -15 9
-9 1 4 -8 1 -13 -8 -13 -23 0 -19 15 7 28 32 16 42 14 62 -8z m-411 -31 c-5
-9 1 -10 22 -5 21 5 25 4 14 -4 -29 -19 -65 -8 -43 13 10 11 15 8 7 -4z m130
-11 c-4 -6 -10 -5 -15 3 -7 11 -9 10 -9 -3 0 -19 -15 -24 -25 -9 -7 12 25 30
42 24 7 -3 10 -10 7 -15z m-58 -31 c1 -9 -2 -14 -7 -11 -17 10 -41 -17 -29
-31 8 -10 5 -13 -12 -12 -13 0 -30 -3 -39 -7 -14 -6 -17 -2 -15 18 1 18 7 26
20 26 16 0 17 -2 5 -17 -12 -14 -10 -14 14 1 36 24 34 37 -3 30 -17 -4 -30 -2
-30 3 0 5 16 9 35 8 19 0 35 3 35 8 0 16 23 1 26 -16z m184 19 c0 -3 -5 -8
-12 -12 -7 -4 -8 -3 -4 4 7 12 16 16 16 8z m-293 -32 c-2 -2 -12 -1 -22 3 -18
6 -18 7 1 13 17 7 33 -5 21 -16z m587 10 c13 -5 13 -8 1 -20 -18 -19 -31 -18
-15 1 15 18 -1 20 -18 3 -8 -8 -9 -15 -1 -25 7 -7 8 -13 3 -14 -66 -8 -72 -7
-70 18 1 21 5 24 28 19 16 -3 31 0 38 9 14 17 13 17 34 9z m-640 -19 c-7 -16
-24 -21 -24 -6 0 8 7 13 27 20 1 1 0 -6 -3 -14z m56 -16 c0 -14 -27 -10 -33 5
-4 10 0 12 14 9 10 -3 19 -9 19 -14z m128 -16 c15 -15 32 -17 32 -5 0 5 7 9
16 9 15 0 15 -2 1 -12 -11 -8 -12 -16 -6 -28 7 -11 6 -17 -1 -17 -5 0 -10 8
-10 17 0 15 -2 15 -12 2 -7 -8 -21 -21 -31 -28 -15 -12 -17 -11 -14 10 2 12
10 25 17 27 8 3 10 0 5 -8 -5 -9 -4 -11 3 -6 18 11 14 20 -18 38 -17 9 -30 22
-30 29 0 11 16 2 48 -28z m579 17 c1 -11 -3 -23 -9 -26 -6 -4 -8 -2 -4 4 3 5
0 13 -6 15 -10 4 -9 8 2 16 8 6 15 11 15 11 1 0 1 -9 2 -20z m-67 0 c0 -5 -6
-10 -14 -10 -8 0 -23 -3 -33 -6 -16 -6 -16 -5 2 9 23 19 45 22 45 7z m-683
-17 c-4 -3 -10 -3 -14 0 -3 4 0 7 7 7 7 0 10 -3 7 -7z m388 -3 c-3 -5 -10 -10
-16 -10 -5 0 -9 5 -9 10 0 6 7 10 16 10 8 0 12 -4 9 -10z m-136 -7 c-3 -19 2
-27 10 -14 6 9 11 10 15 2 4 -6 2 -11 -3 -11 -6 0 -11 -7 -11 -15 0 -13 -3
-13 -20 -3 -29 18 -26 37 8 47 1 1 1 -2 1 -6z m411 2 c0 -3 -2 -5 -5 -5 -3 0
-5 2 -5 5 0 3 2 5 5 5 3 0 5 -2 5 -5z m-357 -40 c-3 -5 0 -5 7 2 22 21 57 -11
52 -47 -4 -27 -22 -44 -22 -21 0 5 -3 18 -6 28 -5 15 -4 16 6 3 10 -13 11 -12
6 3 -3 10 -6 20 -6 22 0 2 -8 1 -17 -1 -26 -6 -45 10 -37 30 5 14 9 15 15 5 4
-7 5 -18 2 -24z m218 -17 c-1 -5 -3 -8 -6 -8 -3 1 -13 -6 -21 -15 -10 -10 -24
-13 -38 -9 -16 5 -18 4 -9 -6 9 -9 19 -10 42 -2 33 12 41 3 16 -18 -8 -7 -15
-8 -15 -3 0 5 -14 8 -31 7 -23 -2 -29 2 -27 14 2 10 12 17 23 18 36 2 40 5 25
17 -8 7 -16 18 -18 25 -2 10 4 10 29 0 17 -7 30 -16 30 -20z m-476 2 c3 -5 -3
-10 -15 -10 -12 0 -18 5 -15 10 3 6 10 10 15 10 5 0 12 -4 15 -10z m188 -5
c-3 -9 -8 -14 -10 -11 -3 3 -2 9 2 15 9 16 15 13 8 -4z m152 -15 c-4 -11 -2
-20 4 -20 6 0 11 6 11 14 0 14 29 30 38 21 3 -3 0 -5 -6 -5 -7 0 -12 -9 -12
-20 0 -11 -5 -20 -12 -20 -6 0 -8 -3 -5 -7 4 -3 -1 -11 -10 -18 -14 -11 -14
-12 1 -18 9 -4 14 -3 11 2 -6 10 11 24 32 27 7 1 15 -2 19 -7 3 -5 0 -9 -7 -9
-14 0 -59 -46 -59 -61 0 -5 -7 -9 -15 -9 -20 0 -14 22 10 37 11 7 14 12 8 13
-7 0 -27 -14 -45 -31 -27 -25 -29 -29 -11 -24 22 6 41 -9 24 -19 -15 -9 -58
14 -58 31 0 8 17 21 38 30 28 11 37 19 34 34 -2 10 2 19 8 19 8 0 8 3 -2 9
-12 8 -8 51 5 51 3 0 2 -9 -1 -20z m345 10 c13 -8 13 -13 2 -30 -7 -11 -10
-25 -7 -30 4 -6 -1 -10 -9 -10 -20 0 -29 17 -14 24 7 3 -2 3 -20 0 -32 -6 -33
-5 -23 15 7 12 18 21 26 21 8 0 15 5 15 10 0 12 11 13 30 0z m-453 -48 c-13
-14 -14 -21 -5 -30 8 -8 5 -9 -12 -5 -17 5 -21 3 -15 -7 5 -8 4 -11 -3 -7 -5
4 -17 4 -26 1 -13 -5 -14 -9 -5 -20 7 -8 9 -18 5 -21 -4 -4 -11 -1 -15 6 -6 9
-11 10 -15 3 -4 -6 1 -15 10 -20 11 -6 13 -11 5 -16 -6 -4 -11 -3 -11 3 0 6
-8 8 -17 5 -15 -5 -15 -4 -3 4 11 8 7 11 -18 10 -20 -1 -32 -6 -32 -15 0 -7 5
-13 10 -13 6 0 9 -4 8 -9 -2 -5 6 -17 17 -25 19 -16 19 -16 -7 -5 -14 6 -28
19 -31 29 -3 13 -11 16 -31 13 -14 -3 -26 -11 -26 -18 0 -16 -28 -28 -42 -19
-6 4 0 13 16 21 26 14 36 43 14 43 -6 0 -9 2 -6 5 8 9 38 -6 32 -16 -3 -5 1
-9 9 -9 19 0 42 28 32 38 -4 4 -10 2 -12 -4 -5 -15 -43 -5 -43 11 0 7 7 16 16
19 9 3 12 2 8 -5 -4 -7 4 -9 24 -6 25 4 30 2 24 -11 -5 -14 -3 -15 9 -5 12 10
18 10 29 0 10 -10 12 -8 7 11 -3 12 -1 20 3 17 13 -8 40 6 33 18 -3 5 -1 7 4
4 6 -4 21 4 34 17 28 28 50 34 26 8z m41 1 c-17 -4 -26 -24 -10 -22 4 1 17 1
30 0 21 -1 22 -3 8 -16 -8 -8 -22 -12 -30 -9 -15 6 -22 -10 -17 -38 0 -5 -3
-8 -9 -8 -12 0 -9 -22 5 -33 6 -4 -3 -5 -19 -1 -23 6 -27 4 -21 -7 5 -8 4 -11
-1 -6 -4 4 -13 -9 -19 -29 -10 -35 -35 -60 -35 -34 0 6 4 8 10 5 5 -3 7 0 4 8
-3 8 -1 18 5 22 6 3 11 13 11 21 0 14 -2 13 -16 0 -17 -18 -44 -21 -44 -6 0 9
14 14 33 11 4 -1 12 11 18 26 8 21 12 24 19 13 7 -11 11 -12 25 0 11 9 13 16
5 24 -15 15 -12 30 4 17 11 -9 15 -7 20 11 3 13 1 25 -5 26 -15 6 10 32 30 31
13 -1 13 -2 -1 -6z m-121 -29 c-3 -3 -12 -4 -19 -1 -8 3 -5 6 6 6 11 1 17 -2
13 -5z m339 -31 c0 -18 -2 -33 -5 -33 -14 1 -29 16 -35 37 -5 15 -12 20 -24
17 -14 -5 -15 -4 -2 5 8 6 26 10 40 9 21 -2 25 -7 26 -35z m-290 -14 c19 -22
19 -22 -3 -10 -13 6 -23 16 -23 21 0 15 5 12 26 -11z m-196 6 c0 -3 -2 -5 -5
-5 -3 0 -5 2 -5 5 0 3 2 5 5 5 3 0 5 -2 5 -5z m310 -10 c0 -3 -2 -5 -5 -5 -3
0 -5 2 -5 5 0 3 2 5 5 5 3 0 5 -2 5 -5z m-530 -20 c0 -3 -2 -5 -5 -5 -3 0 -5
2 -5 5 0 3 2 5 5 5 3 0 5 -2 5 -5z m350 -29 c0 -2 -7 -7 -16 -10 -8 -3 -12 -2
-9 4 6 10 25 14 25 6z m-98 -33 c-11 -16 -20 -32 -20 -38 0 -5 -6 -11 -12 -13
-8 -3 -10 4 -6 19 3 13 3 18 0 12 -3 -7 -12 -13 -19 -13 -7 0 -15 6 -18 13 -3
8 6 12 26 13 16 1 34 9 39 18 5 9 14 16 19 16 6 0 2 -12 -9 -27z m542 11 c13
-5 13 -8 1 -20 -18 -19 -31 -18 -15 1 15 18 -1 20 -18 3 -8 -8 -9 -15 -1 -25
7 -7 8 -13 3 -14 -66 -8 -72 -7 -70 18 1 21 5 24 28 19 16 -3 31 0 38 9 14 17
13 17 34 9z m-678 -32 c0 -10 -11 -28 -23 -42 -13 -13 -20 -26 -17 -29 3 -3 8
0 12 6 9 14 62 36 61 25 -4 -25 2 -34 15 -23 9 7 17 8 20 3 8 -14 -22 -23 -42
-13 -21 10 -43 4 -59 -17 -12 -14 -13 -14 -13 1 0 9 -6 17 -12 18 -10 0 -10 2
0 6 6 2 12 10 12 17 0 7 10 18 23 24 21 10 21 11 2 12 -20 1 -20 1 -1 15 24
18 24 19 22 -3z m161 11 c-4 -3 -1 -13 6 -21 10 -13 9 -15 -6 -9 -10 4 -24 7
-30 7 -7 0 -3 7 7 15 20 15 35 21 23 8z m73 -5 c30 11 30 11 14 -13 -13 -21
-13 -24 0 -32 12 -6 8 -13 -20 -31 l-34 -22 3 22 c2 12 10 24 17 26 8 3 10 0
5 -9 -7 -12 -6 -12 6 0 11 10 11 15 1 18 -6 3 -9 10 -6 15 4 7 2 8 -5 4 -13
-8 -41 10 -41 26 0 6 6 5 15 -2 11 -9 22 -9 45 -2z m180 -8 c0 -5 -7 -10 -15
-10 -8 0 -15 5 -15 10 0 6 7 10 15 10 8 0 15 -4 15 -10z m-315 -51 c-10 -15
-22 -10 -28 11 -4 17 -2 18 14 9 11 -5 17 -14 14 -20z m45 26 c0 -3 -2 -5 -5
-5 -3 0 -5 2 -5 5 0 3 2 5 5 5 3 0 5 -2 5 -5z m-203 -19 c4 -5 3 -6 -3 -3 -7
4 -15 -1 -18 -10 -6 -15 -8 -15 -16 -3 -8 13 -10 12 -10 -3 0 -14 5 -17 19
-12 29 9 36 -13 7 -26 -14 -7 -22 -17 -19 -25 3 -9 -2 -14 -12 -14 -16 0 -16
2 -1 25 15 23 14 29 -6 26 -5 0 -6 9 -4 22 3 12 5 24 5 27 1 9 49 6 58 -4z
m211 0 c7 9 42 18 42 10 0 -2 -3 -12 -6 -21 -5 -13 -9 -14 -15 -3 -7 11 -11
10 -20 -2 -8 -11 -12 -12 -16 -2 -2 6 -10 12 -15 12 -6 0 -9 -3 -5 -6 9 -9
-19 -34 -39 -34 -13 0 -10 6 12 28 21 20 33 25 42 18 8 -6 16 -6 20 0z m373
-45 c-16 -15 -31 -34 -34 -42 -4 -11 -6 -10 -6 3 -1 9 6 21 14 26 9 4 17 18
18 29 1 14 6 19 18 16 15 -4 14 -9 -10 -32z m-257 14 c-9 -23 -64 -46 -83 -35
-14 8 -13 9 4 7 11 -1 20 2 20 6 0 9 43 36 57 37 4 0 5 -7 2 -15z m-259 -15
c-3 -5 -11 -10 -16 -10 -6 0 -7 5 -4 10 3 6 11 10 16 10 6 0 7 -4 4 -10z m165
5 c0 -3 -2 -5 -5 -5 -3 0 -5 2 -5 5 0 3 2 5 5 5 3 0 5 -2 5 -5z m265 -15 c-4
-11 -2 -20 4 -20 6 0 11 6 11 14 0 14 29 30 38 21 3 -3 0 -5 -6 -5 -7 0 -12
-9 -12 -20 0 -11 -5 -20 -11 -20 -5 0 -8 -4 -5 -9 3 -5 -2 -12 -11 -15 -14 -6
-14 -8 3 -22 19 -15 19 -15 0 -6 -22 11 -31 42 -13 42 8 0 7 3 -2 9 -12 8 -8
51 5 51 3 0 2 -9 -1 -20z m-505 -25 c0 -8 -4 -15 -10 -15 -5 0 -10 7 -10 15 0
8 5 15 10 15 6 0 10 -7 10 -15z m200 -25 c0 -5 -4 -10 -9 -10 -6 0 -13 5 -16
10 -3 6 1 10 9 10 9 0 16 -4 16 -10z m4 -55 c3 -8 2 -14 -2 -13 -14 3 -42 -14
-37 -22 8 -13 -11 -21 -30 -14 -15 6 -14 9 6 20 13 7 22 16 21 20 -4 7 17 24
29 24 4 0 9 -7 13 -15z m644 3 c7 -7 12 -19 12 -27 -1 -14 -2 -14 -13 0 -10
14 -16 15 -30 4 -9 -6 -14 -14 -11 -17 3 -4 1 -9 -4 -12 -6 -3 -12 1 -16 9 -3
8 -1 15 5 15 6 0 8 4 4 9 -3 6 3 14 12 20 23 13 27 13 41 -1z m-368 -13 c0 -3
-2 -5 -5 -5 -3 0 -5 2 -5 5 0 3 2 5 5 5 3 0 5 -2 5 -5z m220 -10 c0 -3 -2 -5
-5 -5 -3 0 -5 2 -5 5 0 3 2 5 5 5 3 0 5 -2 5 -5z m-50 -21 c0 -9 -42 -24 -52
-18 -15 10 19 34 38 27 8 -3 14 -7 14 -9z m-410 1 c0 -3 -2 -5 -5 -5 -3 0 -5
2 -5 5 0 3 2 5 5 5 3 0 5 -2 5 -5z m177 -22 c-4 -3 -10 -3 -14 0 -3 4 0 7 7 7
7 0 10 -3 7 -7z m-9 -14 c27 -9 30 -13 18 -25 -20 -20 -31 -18 -15 3 12 14 12
16 -1 11 -8 -2 -15 -13 -15 -24 0 -18 -12 -34 -27 -34 -15 0 -8 38 7 44 24 9
18 28 -7 21 -18 -5 -20 -4 -8 4 18 13 11 13 48 0z m-143 -33 c8 -7 12 -16 9
-19 -10 -9 -34 4 -34 19 0 18 8 18 25 0z m86 -8 c-11 -31 -35 -38 -26 -7 l7
24 -21 -24 c-12 -13 -24 -22 -27 -18 -10 9 35 47 56 47 16 0 18 -4 11 -22z
m-191 2 c0 -5 -7 -10 -15 -10 -8 0 -15 5 -15 10 0 6 7 10 15 10 8 0 15 -4 15
-10z m487 -9 c7 -11 9 -21 5 -24 -4 -2 -1 -2 7 0 14 3 40 -24 40 -42 0 -5 -5
-3 -12 6 -16 21 -55 30 -65 16 -4 -7 -15 -18 -25 -26 -16 -12 -17 -11 -14 10
2 13 10 24 18 24 32 1 56 35 24 35 -8 0 -15 5 -15 10 0 17 25 11 37 -9z m-599
-40 c6 -8 12 -20 12 -25 0 -6 -5 -3 -11 7 -6 9 -14 15 -20 12 -5 -4 -9 1 -9 9
0 9 -4 16 -10 16 -5 0 -10 5 -10 11 0 12 26 -4 48 -30z m125 15 c21 -3 58 -36
39 -36 -7 0 -12 5 -12 10 0 6 -5 10 -11 10 -5 0 -7 -4 -4 -10 8 -13 -11 -13
-36 1 -11 5 -17 14 -14 20 4 5 1 9 -4 9 -14 0 -14 -13 1 -28 9 -9 9 -12 -1
-12 -7 0 -9 -4 -6 -10 3 -6 -1 -7 -9 -4 -9 3 -13 10 -10 15 3 5 -2 6 -10 3 -9
-3 -16 -12 -16 -19 0 -17 31 -28 43 -16 16 16 45 1 40 -20 -4 -14 0 -19 13
-18 11 0 14 3 7 6 -7 2 -13 9 -13 14 0 4 7 6 15 3 9 -4 15 0 15 10 0 9 5 16
10 16 6 0 10 -9 10 -20 0 -11 -5 -20 -11 -20 -5 0 -8 -4 -4 -9 3 -5 1 -12 -5
-16 -13 -8 -72 24 -65 35 4 6 2 10 -3 10 -6 0 -12 -7 -16 -15 -3 -9 -12 -12
-23 -8 -16 6 -16 5 -4 -10 9 -11 10 -17 2 -17 -6 0 -11 6 -11 13 0 7 -8 3 -16
-8 -12 -14 -18 -16 -21 -7 -4 10 -8 10 -21 0 -10 -8 -13 -9 -9 -1 4 7 -3 15
-19 20 -23 8 -25 10 -10 22 14 11 16 11 16 -3 0 -9 7 -16 16 -16 13 0 14 3 5
14 -8 9 -8 20 -1 37 10 24 10 24 5 -3 -5 -24 -2 -26 29 -25 36 1 40 17 4 17
-19 0 -19 1 3 21 17 14 20 22 12 25 -7 3 -13 11 -13 16 0 6 3 9 6 6 3 -3 17
-2 32 2 15 5 34 6 42 3 8 -3 23 -6 33 -7z m80 -17 c-4 -15 -8 -17 -19 -8 -19
16 -17 24 5 26 14 1 17 -3 14 -18z m322 4 c-16 -39 -17 -53 -4 -53 7 0 9 -3 6
-6 -4 -4 -13 -2 -20 4 -11 9 -16 4 -27 -23 -14 -36 -40 -55 -40 -30 0 8 4 15
9 15 5 0 13 10 17 23 4 12 15 28 26 35 14 10 16 17 9 26 -12 15 -5 26 17 26
10 0 12 -6 7 -17z m-410 -33 c3 -5 -1 -10 -9 -10 -9 0 -16 5 -16 10 0 6 4 10
9 10 6 0 13 -4 16 -10z m158 3 c7 -6 -21 -32 -35 -33 -11 0 -5 23 7 32 12 10
20 10 28 1z m344 -15 c-3 -8 -6 -5 -6 6 -1 11 2 17 5 13 3 -3 4 -12 1 -19z
m-480 -5 c-4 -3 -7 0 -7 7 0 7 3 10 7 7 3 -4 3 -10 0 -14z m53 12 c0 -3 -2 -5
-5 -5 -3 0 -5 2 -5 5 0 3 2 5 5 5 3 0 5 -2 5 -5z m447 -82 c-4 -3 -7 0 -7 7 0
7 3 10 7 7 3 -4 3 -10 0 -14z"/>
<path d="M660 935 c0 -3 2 -5 5 -5 3 0 5 2 5 5 0 3 -2 5 -5 5 -3 0 -5 -2 -5
-5z"/>
<path d="M732 915 c-7 -8 -13 -18 -15 -22 -1 -5 -4 -7 -7 -6 -3 0 -11 -6 -19
-14 -11 -13 -10 -14 10 -11 27 3 76 69 52 68 -5 -1 -14 -7 -21 -15z"/>
<path d="M770 915 c-18 -21 -3 -32 16 -13 10 9 12 18 6 22 -5 3 -15 -1 -22 -9z
m10 -10 c0 -3 -2 -5 -5 -5 -3 0 -5 2 -5 5 0 3 2 5 5 5 3 0 5 -2 5 -5z"/>
<path d="M680 885 c0 -3 2 -5 5 -5 3 0 5 2 5 5 0 3 -2 5 -5 5 -3 0 -5 -2 -5
-5z"/>
<path d="M640 865 c0 -3 2 -5 5 -5 3 0 5 2 5 5 0 3 -2 5 -5 5 -3 0 -5 -2 -5
-5z"/>
<path d="M875 781 c-6 -11 9 -23 19 -14 9 9 7 23 -3 23 -6 0 -12 -4 -16 -9z"/>
<path d="M813 753 c-7 -2 -13 -11 -13 -18 0 -17 31 -28 43 -16 7 7 5 12 -6 17
-9 3 -14 10 -11 15 6 10 5 10 -13 2z"/>
<path d="M860 640 c0 -5 5 -10 10 -10 6 0 10 5 10 10 0 6 -4 10 -10 10 -5 0
-10 -4 -10 -10z"/>
<path d="M890 645 c0 -3 2 -5 5 -5 3 0 5 2 5 5 0 3 -2 5 -5 5 -3 0 -5 -2 -5
-5z"/>
<path d="M770 595 c-18 -21 -3 -32 16 -13 10 9 12 18 6 22 -5 3 -15 -1 -22 -9z
m10 -10 c0 -3 -2 -5 -5 -5 -3 0 -5 2 -5 5 0 3 2 5 5 5 3 0 5 -2 5 -5z"/>
<path d="M680 565 c0 -3 2 -5 5 -5 3 0 5 2 5 5 0 3 -2 5 -5 5 -3 0 -5 -2 -5
-5z"/>
<path d="M640 545 c0 -3 2 -5 5 -5 3 0 5 2 5 5 0 3 -2 5 -5 5 -3 0 -5 -2 -5
-5z"/>
<path d="M465 510 c-3 -5 -1 -10 4 -10 6 0 11 5 11 10 0 6 -2 10 -4 10 -3 0
-8 -4 -11 -10z"/>
<path d="M590 500 c0 -7 3 -10 7 -7 3 4 3 10 0 14 -4 3 -7 0 -7 -7z"/>
<path d="M863 445 c-23 -27 -55 -37 -34 -11 9 11 9 16 0 22 -7 4 -9 3 -6 -3 4
-6 0 -13 -8 -17 -22 -8 -18 -34 5 -41 11 -3 20 -11 20 -16 0 -6 4 -8 9 -5 5 3
7 14 4 24 -3 12 4 25 21 36 14 9 26 21 26 26 0 17 -14 11 -37 -15z m27 10 c0
-3 -2 -5 -5 -5 -3 0 -5 2 -5 5 0 3 2 5 5 5 3 0 5 -2 5 -5z"/>
<path d="M500 435 c0 -3 2 -5 5 -5 3 0 5 2 5 5 0 3 -2 5 -5 5 -3 0 -5 -2 -5
-5z"/>
<path d="M532 410 c7 -10 14 -18 15 -16 6 6 -9 36 -18 36 -5 0 -4 -9 3 -20z"/>
<path d="M775 400 c-3 -5 -1 -10 5 -10 6 0 8 -4 5 -10 -3 -5 -2 -10 4 -10 17
0 21 17 7 29 -10 8 -16 9 -21 1z"/>
<path d="M680 365 c0 -3 2 -5 5 -5 3 0 5 2 5 5 0 3 -2 5 -5 5 -3 0 -5 -2 -5
-5z"/>
<path d="M515 330 c3 -5 8 -10 11 -10 3 0 2 5 -1 10 -3 6 -8 10 -11 10 -3 0
-2 -4 1 -10z"/>
<path d="M840 325 c0 -3 2 -5 5 -5 3 0 5 2 5 5 0 3 -2 5 -5 5 -3 0 -5 -2 -5
-5z"/>
<path d="M405 300 c3 -5 8 -10 11 -10 2 0 4 5 4 10 0 6 -5 10 -11 10 -5 0 -7
-4 -4 -10z"/>
<path d="M450 275 c-18 -21 -3 -32 16 -13 10 9 12 18 6 22 -5 3 -15 -1 -22 -9z
m10 -10 c0 -3 -2 -5 -5 -5 -3 0 -5 2 -5 5 0 3 2 5 5 5 3 0 5 -2 5 -5z"/>
<path d="M603 242 c-13 -2 -23 -8 -23 -13 0 -6 10 -8 23 -5 12 3 16 3 10 0
-15 -7 -17 -34 -3 -34 14 0 33 41 23 49 -4 4 -18 5 -30 3z"/>
<path d="M320 225 c0 -3 2 -5 5 -5 3 0 5 2 5 5 0 3 -2 5 -5 5 -3 0 -5 -2 -5
-5z"/>
<path d="M360 885 c0 -3 2 -5 5 -5 3 0 5 2 5 5 0 3 -2 5 -5 5 -3 0 -5 -2 -5
-5z"/>
<path d="M744 818 c-4 -7 -3 -8 4 -4 12 7 16 16 8 16 -3 0 -8 -5 -12 -12z"/>
<path d="M770 805 c0 -3 2 -5 5 -5 3 0 5 2 5 5 0 3 -2 5 -5 5 -3 0 -5 -2 -5
-5z"/>
<path d="M683 743 c4 -3 10 -3 14 0 3 4 0 7 -7 7 -7 0 -10 -3 -7 -7z"/>
<path d="M900 710 c0 -5 5 -10 10 -10 6 0 10 5 10 10 0 6 -4 10 -10 10 -5 0
-10 -4 -10 -10z"/>
<path d="M880 705 c0 -3 2 -5 5 -5 3 0 5 2 5 5 0 3 -2 5 -5 5 -3 0 -5 -2 -5
-5z"/>
<path d="M344 598 c-4 -7 -3 -8 4 -4 7 4 12 9 12 12 0 8 -9 4 -16 -8z"/>
<path d="M515 650 c3 -5 8 -10 11 -10 3 0 2 5 -1 10 -3 6 -8 10 -11 10 -3 0
-2 -4 1 -10z"/>
<path d="M430 560 c0 -7 3 -10 7 -7 3 4 3 10 0 14 -4 3 -7 0 -7 -7z"/>
<path d="M700 640 c0 -5 5 -10 10 -10 6 0 10 5 10 10 0 6 -4 10 -10 10 -5 0
-10 -4 -10 -10z"/>
<path d="M720 605 c0 -3 2 -5 5 -5 3 0 5 2 5 5 0 3 -2 5 -5 5 -3 0 -5 -2 -5
-5z"/>
<path d="M744 498 c-4 -7 -3 -8 4 -4 7 4 12 9 12 12 0 8 -9 4 -16 -8z"/>
<path d="M770 485 c0 -3 2 -5 5 -5 3 0 5 2 5 5 0 3 -2 5 -5 5 -3 0 -5 -2 -5
-5z"/>
<path d="M140 445 c0 -3 2 -5 5 -5 3 0 5 2 5 5 0 3 -2 5 -5 5 -3 0 -5 -2 -5
-5z"/>
<path d="M160 445 c0 -3 2 -5 5 -5 3 0 5 2 5 5 0 3 -2 5 -5 5 -3 0 -5 -2 -5
-5z"/>
<path d="M880 285 c0 -3 2 -5 5 -5 3 0 5 2 5 5 0 3 -2 5 -5 5 -3 0 -5 -2 -5
-5z"/>
<path d="M680 245 c0 -3 2 -5 5 -5 3 0 5 2 5 5 0 3 -2 5 -5 5 -3 0 -5 -2 -5
-5z"/>
<path d="M450 165 c0 -3 2 -5 5 -5 3 0 5 2 5 5 0 3 -2 5 -5 5 -3 0 -5 -2 -5
-5z"/>
<path d="M680 125 c0 -3 2 -5 5 -5 3 0 5 2 5 5 0 3 -2 5 -5 5 -3 0 -5 -2 -5
-5z"/>
<path d="M180 135 c0 -3 2 -5 5 -5 3 0 5 2 5 5 0 3 -2 5 -5 5 -3 0 -5 -2 -5
-5z"/>
<path d="M130 50 c-8 -5 -11 -12 -7 -16 4 -4 13 -2 19 4 15 15 7 24 -12 12z"/>
<path d="M180 55 c0 -3 2 -5 5 -5 3 0 5 2 5 5 0 3 -2 5 -5 5 -3 0 -5 -2 -5 -5z"/>
<path d="M495 830 c10 -11 22 -17 28 -13 6 4 3 12 -8 20 -28 20 -41 16 -20 -7z"/>
<path d="M190 765 c0 -3 2 -5 5 -5 3 0 5 2 5 5 0 3 -2 5 -5 5 -3 0 -5 -2 -5
-5z"/>
<path d="M200 645 c0 -3 2 -5 5 -5 3 0 5 2 5 5 0 3 -2 5 -5 5 -3 0 -5 -2 -5
-5z"/>
<path d="M0 545 c0 -3 2 -5 5 -5 3 0 5 2 5 5 0 3 -2 5 -5 5 -3 0 -5 -2 -5 -5z"/>
<path d="M160 385 c0 -3 2 -5 5 -5 3 0 5 2 5 5 0 3 -2 5 -5 5 -3 0 -5 -2 -5
-5z"/>
<path d="M100 365 c0 -3 2 -5 5 -5 3 0 5 2 5 5 0 3 -2 5 -5 5 -3 0 -5 -2 -5
-5z"/>
<path d="M0 321 c0 -12 4 -19 10 -16 5 3 10 1 10 -6 0 -7 3 -9 7 -6 3 4 12 2
20 -4 19 -17 17 12 -3 37 -8 10 -13 13 -9 7 8 -16 -7 -17 -23 -1 -9 9 -12 7
-12 -11z"/>
<path d="M90 325 c0 -3 2 -5 5 -5 3 0 5 2 5 5 0 3 -2 5 -5 5 -3 0 -5 -2 -5 -5z"/>
<path d="M200 325 c0 -3 2 -5 5 -5 3 0 5 2 5 5 0 3 -2 5 -5 5 -3 0 -5 -2 -5
-5z"/>
<path d="M250 325 c0 -3 2 -5 5 -5 3 0 5 2 5 5 0 3 -2 5 -5 5 -3 0 -5 -2 -5
-5z"/>
<path d="M17 279 c-19 -11 -24 -39 -6 -39 5 0 7 -5 3 -11 -5 -8 -1 -8 14 0 11
6 22 18 26 26 5 13 1 15 -16 9 -20 -6 -21 -5 -9 10 15 18 13 20 -12 5z"/>
<path d="M106 243 c-11 -11 -6 -24 7 -18 6 4 3 -1 -8 -11 -15 -13 -16 -15 -3
-11 9 3 19 1 21 -6 3 -9 8 -9 17 0 9 8 8 15 -8 31 -11 11 -23 18 -26 15z"/>
<path d="M747 243 c-12 -11 -8 -25 4 -17 8 5 10 -1 7 -19 -4 -23 -3 -25 13
-16 11 5 19 16 19 25 0 13 4 13 30 -1 31 -16 41 -29 15 -19 -18 7 -20 -7 -3
-24 8 -8 8 -12 1 -12 -20 0 -34 25 -21 38 8 8 8 12 1 12 -15 0 -28 -21 -28
-45 0 -15 6 -19 24 -17 13 2 27 -2 31 -8 5 -9 9 -9 14 -1 4 6 3 11 -3 11 -16
0 -5 35 12 38 20 4 23 -14 5 -21 -8 -2 -9 -8 -4 -13 5 -5 11 -4 13 4 3 6 9 10
14 6 5 -3 9 -1 9 5 0 5 -5 13 -12 17 -8 5 -6 10 8 15 15 6 13 8 -11 7 -16 -1
-45 6 -62 15 -37 20 -49 20 -45 4 1 -7 -4 -4 -11 5 -8 10 -17 15 -20 11z"/>
<path d="M900 230 c0 -5 5 -10 11 -10 21 0 -2 -53 -37 -87 -26 -24 -30 -32
-17 -31 10 2 19 -1 20 -5 4 -15 34 -39 41 -33 3 4 0 11 -8 16 -19 11 -8 22 14
14 17 -7 23 -44 6 -44 -5 0 -10 -7 -10 -16 0 -13 3 -14 13 -5 8 6 16 9 18 6 3
-2 5 15 4 40 0 24 -3 47 -7 51 -12 11 -10 26 2 19 6 -4 10 7 10 25 0 18 -4 29
-10 25 -6 -3 -7 1 -4 9 4 11 0 16 -10 16 -9 0 -16 5 -16 10 0 6 -4 10 -10 10
-5 0 -10 -4 -10 -10z m50 -61 c0 -4 -7 -6 -15 -3 -8 4 -15 10 -15 15 0 4 7 6
15 3 8 -4 15 -10 15 -15z m-20 -14 c0 -3 -2 -5 -5 -5 -3 0 -5 2 -5 5 0 3 2 5
5 5 3 0 5 -2 5 -5z m-4 -27 c19 -22 19 -22 0 -8 -15 12 -20 12 -23 3 -6 -18
-20 -16 -20 2 0 8 4 12 9 9 4 -3 8 0 8 5 0 16 5 14 26 -11z"/>
<path d="M520 141 c0 -6 5 -13 10 -16 6 -3 10 1 10 9 0 9 -4 16 -10 16 -5 0
-10 -4 -10 -9z"/>
<path d="M565 140 c3 -5 8 -10 11 -10 2 0 4 5 4 10 0 6 -5 10 -11 10 -5 0 -7
-4 -4 -10z"/>
<path d="M6 114 c-9 -34 23 -61 39 -34 4 6 1 9 -6 8 -8 -2 -14 7 -15 20 -2 34
-11 37 -18 6z"/>
<path d="M820 135 c0 -3 2 -5 5 -5 3 0 5 2 5 5 0 3 -2 5 -5 5 -3 0 -5 -2 -5
-5z"/>
<path d="M813 113 c-34 -13 -1 -48 35 -37 11 4 13 3 5 -3 -15 -10 -13 -53 2
-52 25 3 46 -2 41 -9 -2 -4 11 -9 30 -10 19 -2 34 2 34 8 0 6 -8 10 -17 9 -10
-2 -29 1 -43 6 -24 8 -24 8 -5 17 15 6 13 7 -9 3 -26 -6 -28 -4 -22 18 5 21 1
26 -19 31 -14 4 -23 11 -20 16 7 11 6 11 -12 3z"/>
<path d="M455 80 c-3 -5 -1 -10 5 -10 7 0 2 -11 -11 -24 -21 -22 -27 -23 -44
-13 -11 7 -26 12 -32 11 -7 -1 -18 -2 -23 -3 -7 -1 -7 -7 0 -21 8 -15 19 -19
54 -17 24 1 42 5 40 8 -2 4 8 18 21 32 21 21 23 26 11 36 -10 8 -16 9 -21 1z
m-62 -67 c-7 -2 -19 -2 -25 0 -7 3 -2 5 12 5 14 0 19 -2 13 -5z m27 2 c0 -3
-2 -5 -5 -5 -3 0 -5 2 -5 5 0 3 2 5 5 5 3 0 5 -2 5 -5z"/>
<path d="M880 65 c0 -3 2 -5 5 -5 3 0 5 2 5 5 0 3 -2 5 -5 5 -3 0 -5 -2 -5 -5z"/>
<path d="M720 52 c0 -15 -30 -20 -58 -10 -17 6 -24 4 -29 -8 -7 -18 13 -42 24
-29 5 4 2 10 -4 12 -7 3 -13 9 -13 15 0 7 5 7 13 -1 8 -6 18 -7 22 -3 5 4 5 2
1 -5 -3 -6 -1 -15 5 -19 8 -4 9 -3 5 4 -5 8 1 12 16 12 18 0 20 -2 8 -10 -12
-8 -11 -10 5 -10 16 0 20 6 20 25 -1 24 -15 50 -15 27z"/>
<path d="M466 31 c-7 -10 22 -37 30 -28 4 3 -1 13 -9 22 -9 8 -18 11 -21 6z"/>
<path d="M0 10 c0 -5 5 -10 10 -10 6 0 10 5 10 10 0 6 -4 10 -10 10 -5 0 -10
-4 -10 -10z"/>
<path d="M35 10 c3 -5 8 -10 11 -10 3 0 2 5 -1 10 -3 6 -8 10 -11 10 -3 0 -2
-4 1 -10z"/>
<path d="M200 5 c0 -3 2 -5 5 -5 3 0 5 2 5 5 0 3 -2 5 -5 5 -3 0 -5 -2 -5 -5z"/>
<path d="M230 5 c0 -3 2 -5 5 -5 3 0 5 2 5 5 0 3 -2 5 -5 5 -3 0 -5 -2 -5 -5z"/>
<path d="M863 3 c4 -3 10 -3 14 0 3 4 0 7 -7 7 -7 0 -10 -3 -7 -7z"/>
</g>
<g transform="translate(0.000000,96.000000) scale(0.100000,-0.100000)"
fill="#f4acc4" stroke="none">
<path d="M34 938 c10 -6 22 -6 26 -2 5 5 -3 10 -18 11 -22 1 -24 0 -8 -9z"/>
<path d="M114 941 c4 -6 1 -11 -6 -11 -8 0 -5 -5 5 -11 13 -8 22 -8 29 -1 7 7
3 14 -12 22 -15 8 -20 8 -16 1z m23 -18 c-4 -3 -10 -3 -14 0 -3 4 0 7 7 7 7 0
10 -3 7 -7z"/>
<path d="M183 943 c4 -3 10 -3 14 0 3 4 0 7 -7 7 -7 0 -10 -3 -7 -7z"/>
<path d="M349 942 c9 -7 10 -11 2 -15 -7 -4 -8 -5 0 -3 15 2 13 20 -3 24 -10
3 -10 2 1 -6z"/>
<path d="M430 945 c0 -3 2 -5 5 -5 3 0 5 2 5 5 0 3 -2 5 -5 5 -3 0 -5 -2 -5
-5z"/>
<path d="M495 940 c-3 -6 1 -7 9 -4 18 7 21 14 7 14 -6 0 -13 -4 -16 -10z"/>
<path d="M677 939 c7 -7 15 -10 18 -7 3 3 -2 9 -12 12 -14 6 -15 5 -6 -5z"/>
<path d="M820 946 c0 -2 7 -7 16 -10 8 -3 12 -2 9 4 -6 10 -25 14 -25 6z"/>
<path d="M160 935 c0 -3 2 -5 5 -5 3 0 5 2 5 5 0 3 -2 5 -5 5 -3 0 -5 -2 -5
-5z"/>
<path d="M210 935 c0 -3 2 -5 5 -5 3 0 5 2 5 5 0 3 -2 5 -5 5 -3 0 -5 -2 -5
-5z"/>
<path d="M250 935 c0 -3 2 -5 5 -5 3 0 5 2 5 5 0 3 -2 5 -5 5 -3 0 -5 -2 -5
-5z"/>
<path d="M290 930 c12 -8 12 -10 1 -10 -8 0 -12 -2 -9 -5 3 -3 13 -2 22 1 14
5 15 9 4 15 -7 5 -17 9 -23 9 -5 0 -3 -5 5 -10z"/>
<path d="M417 929 c7 -7 15 -10 18 -7 3 3 -2 9 -12 12 -14 6 -15 5 -6 -5z"/>
<path d="M455 930 c3 -5 8 -10 11 -10 3 0 2 5 -1 10 -3 6 -8 10 -11 10 -3 0
-2 -4 1 -10z"/>
<path d="M596 932 c-2 -4 4 -8 14 -8 10 0 16 4 14 8 -3 4 -9 8 -14 8 -5 0 -11
-4 -14 -8z"/>
<path d="M740 926 c7 -7 13 -7 20 0 6 6 3 10 -10 10 -13 0 -16 -4 -10 -10z"/>
<path d="M890 935 c0 -3 2 -5 5 -5 3 0 5 2 5 5 0 3 -2 5 -5 5 -3 0 -5 -2 -5
-5z"/>
<path d="M935 930 c3 -5 8 -10 11 -10 3 0 2 5 -1 10 -3 6 -8 10 -11 10 -3 0
-2 -4 1 -10z"/>
<path d="M774 918 c-4 -7 -3 -8 4 -4 7 4 12 9 12 12 0 8 -9 4 -16 -8z"/>
<path d="M530 915 c0 -3 2 -5 5 -5 3 0 5 2 5 5 0 3 -2 5 -5 5 -3 0 -5 -2 -5
-5z"/>
<path d="M10 890 c8 -5 20 -10 25 -10 6 0 3 5 -5 10 -8 5 -19 10 -25 10 -6 0
-3 -5 5 -10z"/>
<path d="M90 895 c0 -3 2 -5 5 -5 3 0 5 2 5 5 0 3 -2 5 -5 5 -3 0 -5 -2 -5 -5z"/>
<path d="M116 892 c-2 -4 4 -8 15 -8 10 0 19 4 19 8 0 4 -6 8 -14 8 -8 0 -17
-4 -20 -8z"/>
<path d="M160 896 c0 -2 7 -7 16 -10 8 -3 12 -2 9 4 -6 10 -25 14 -25 6z"/>
<path d="M243 893 c4 -3 10 -3 14 0 3 4 0 7 -7 7 -7 0 -10 -3 -7 -7z"/>
<path d="M284 892 c3 -3 19 -6 36 -7 17 -1 28 1 24 4 -3 3 -19 6 -35 7 -17 1
-28 -1 -25 -4z"/>
<path d="M410 895 c0 -3 2 -5 5 -5 3 0 5 2 5 5 0 3 -2 5 -5 5 -3 0 -5 -2 -5
-5z"/>
<path d="M440 889 c0 -5 5 -7 10 -4 6 3 10 8 10 11 0 2 -4 4 -10 4 -5 0 -10
-5 -10 -11z"/>
<path d="M497 889 c7 -7 15 -10 18 -7 3 3 -2 9 -12 12 -14 6 -15 5 -6 -5z"/>
<path d="M570 895 c0 -3 2 -5 5 -5 3 0 5 2 5 5 0 3 -2 5 -5 5 -3 0 -5 -2 -5
-5z"/>
<path d="M604 892 c3 -3 19 -6 36 -7 17 -1 28 1 24 4 -3 3 -19 6 -35 7 -17 1
-28 -1 -25 -4z"/>
<path d="M730 895 c0 -3 2 -5 5 -5 3 0 5 2 5 5 0 3 -2 5 -5 5 -3 0 -5 -2 -5
-5z"/>
<path d="M760 896 c0 -2 7 -7 16 -10 8 -3 12 -2 9 4 -6 10 -25 14 -25 6z"/>
<path d="M800 896 c0 -2 7 -7 16 -10 8 -3 12 -2 9 4 -6 10 -25 14 -25 6z"/>
<path d="M890 895 c0 -3 2 -5 5 -5 3 0 5 2 5 5 0 3 -2 5 -5 5 -3 0 -5 -2 -5
-5z"/>
<path d="M915 890 c-3 -6 1 -7 9 -4 18 7 21 14 7 14 -6 0 -13 -4 -16 -10z"/>
<path d="M60 885 c0 -3 2 -5 5 -5 3 0 5 2 5 5 0 3 -2 5 -5 5 -3 0 -5 -2 -5 -5z"/>
<path d="M220 885 c0 -3 2 -5 5 -5 3 0 5 2 5 5 0 3 -2 5 -5 5 -3 0 -5 -2 -5
-5z"/>
<path d="M380 885 c0 -3 2 -5 5 -5 3 0 5 2 5 5 0 3 -2 5 -5 5 -3 0 -5 -2 -5
-5z"/>
<path d="M700 885 c0 -3 2 -5 5 -5 3 0 5 2 5 5 0 3 -2 5 -5 5 -3 0 -5 -2 -5
-5z"/>
<path d="M860 885 c0 -3 2 -5 5 -5 3 0 5 2 5 5 0 3 -2 5 -5 5 -3 0 -5 -2 -5
-5z"/>
<path d="M103 863 c4 -3 10 -3 14 0 3 4 0 7 -7 7 -7 0 -10 -3 -7 -7z"/>
<path d="M143 863 c4 -3 10 -3 14 0 3 4 0 7 -7 7 -7 0 -10 -3 -7 -7z"/>
<path d="M263 863 c4 -3 10 -3 14 0 3 4 0 7 -7 7 -7 0 -10 -3 -7 -7z"/>
<path d="M310 865 c0 -3 2 -5 5 -5 3 0 5 2 5 5 0 3 -2 5 -5 5 -3 0 -5 -2 -5
-5z"/>
<path d="M423 863 c4 -3 10 -3 14 0 3 4 0 7 -7 7 -7 0 -10 -3 -7 -7z"/>
<path d="M470 865 c0 -3 2 -5 5 -5 3 0 5 2 5 5 0 3 -2 5 -5 5 -3 0 -5 -2 -5
-5z"/>
<path d="M583 863 c4 -3 10 -3 14 0 3 4 0 7 -7 7 -7 0 -10 -3 -7 -7z"/>
<path d="M620 865 c0 -3 2 -5 5 -5 3 0 5 2 5 5 0 3 -2 5 -5 5 -3 0 -5 -2 -5
-5z"/>
<path d="M735 860 c-3 -6 1 -7 9 -4 18 7 21 14 7 14 -6 0 -13 -4 -16 -10z"/>
<path d="M790 865 c0 -3 2 -5 5 -5 3 0 5 2 5 5 0 3 -2 5 -5 5 -3 0 -5 -2 -5
-5z"/>
<path d="M900 865 c0 -3 2 -5 5 -5 3 0 5 2 5 5 0 3 -2 5 -5 5 -3 0 -5 -2 -5
-5z"/>
<path d="M943 863 c4 -3 10 -3 14 0 3 4 0 7 -7 7 -7 0 -10 -3 -7 -7z"/>
<path d="M10 855 c0 -3 2 -5 5 -5 3 0 5 2 5 5 0 3 -2 5 -5 5 -3 0 -5 -2 -5 -5z"/>
<path d="M80 855 c0 -3 2 -5 5 -5 3 0 5 2 5 5 0 3 -2 5 -5 5 -3 0 -5 -2 -5 -5z"/>
<path d="M240 855 c0 -3 2 -5 5 -5 3 0 5 2 5 5 0 3 -2 5 -5 5 -3 0 -5 -2 -5
-5z"/>
<path d="M360 855 c0 -3 2 -5 5 -5 3 0 5 2 5 5 0 3 -2 5 -5 5 -3 0 -5 -2 -5
-5z"/>
<path d="M520 855 c0 -3 2 -5 5 -5 3 0 5 2 5 5 0 3 -2 5 -5 5 -3 0 -5 -2 -5
-5z"/>
<path d="M560 855 c0 -3 2 -5 5 -5 3 0 5 2 5 5 0 3 -2 5 -5 5 -3 0 -5 -2 -5
-5z"/>
<path d="M840 855 c0 -3 2 -5 5 -5 3 0 5 2 5 5 0 3 -2 5 -5 5 -3 0 -5 -2 -5
-5z"/>
<path d="M678 834 c-33 -17 -34 -20 -8 -20 10 0 17 2 15 5 -3 2 3 10 13 17 23
18 14 17 -20 -2z"/>
<path d="M50 835 c0 -3 2 -5 5 -5 3 0 5 2 5 5 0 3 -2 5 -5 5 -3 0 -5 -2 -5 -5z"/>
<path d="M142 827 c10 -8 14 -18 10 -22 -4 -4 3 -2 16 4 12 7 28 9 34 5 7 -5
8 -3 4 5 -5 7 -15 10 -23 7 -8 -3 -24 -1 -36 5 -20 9 -20 9 -5 -4z"/>
<path d="M210 835 c0 -3 2 -5 5 -5 3 0 5 2 5 5 0 3 -2 5 -5 5 -3 0 -5 -2 -5
-5z"/>
<path d="M274 828 c-4 -7 -3 -8 4 -4 6 4 22 2 34 -4 22 -11 22 -10 4 4 -24 19
-32 20 -42 4z"/>
<path d="M370 835 c0 -3 2 -5 5 -5 3 0 5 2 5 5 0 3 -2 5 -5 5 -3 0 -5 -2 -5
-5z"/>
<path d="M458 828 c12 -8 19 -18 15 -22 -4 -5 3 -3 17 4 34 17 34 18 8 17 -13
0 -32 3 -43 7 -15 6 -15 4 3 -6z"/>
<path d="M530 835 c0 -3 2 -5 5 -5 3 0 5 2 5 5 0 3 -2 5 -5 5 -3 0 -5 -2 -5
-5z"/>
<path d="M617 829 c7 -7 15 -10 18 -7 3 3 -2 9 -12 12 -14 6 -15 5 -6 -5z"/>
<path d="M754 829 c-4 -8 -3 -10 4 -5 6 4 21 2 32 -4 15 -8 26 -7 47 5 16 9
19 13 8 9 -25 -9 -46 -9 -66 0 -10 4 -20 2 -25 -5z"/>
<path d="M917 833 c-3 -5 6 -9 20 -10 19 -1 22 1 12 8 -17 11 -26 11 -32 2z"/>
<path d="M11 821 c-10 -7 -7 -9 12 -8 14 1 23 5 20 10 -6 9 -15 9 -32 -2z"/>
<path d="M110 825 c0 -3 2 -5 5 -5 3 0 5 2 5 5 0 3 -2 5 -5 5 -3 0 -5 -2 -5
-5z"/>
<path d="M340 826 c0 -2 7 -7 16 -10 8 -3 12 -2 9 4 -6 10 -25 14 -25 6z"/>
<path d="M70 810 c-9 -6 -10 -10 -3 -10 6 0 15 5 18 10 8 12 4 12 -15 0z"/>
<path d="M230 810 c-9 -6 -10 -10 -3 -10 6 0 15 5 18 10 8 12 4 12 -15 0z"/>
<path d="M390 810 c-8 -5 -10 -10 -5 -10 6 0 17 5 25 10 8 5 11 10 5 10 -5 0
-17 -5 -25 -10z"/>
<path d="M550 810 c-8 -5 -10 -10 -5 -10 6 0 17 5 25 10 8 5 11 10 5 10 -5 0
-17 -5 -25 -10z"/>
<path d="M710 810 c-9 -6 -10 -10 -3 -10 6 0 15 5 18 10 8 12 4 12 -15 0z"/>
<path d="M870 810 c-9 -6 -10 -10 -3 -10 6 0 15 5 18 10 8 12 4 12 -15 0z"/>
<path d="M110 805 c0 -3 2 -5 5 -5 3 0 5 2 5 5 0 3 -2 5 -5 5 -3 0 -5 -2 -5
-5z"/>
<path d="M430 805 c0 -3 2 -5 5 -5 3 0 5 2 5 5 0 3 -2 5 -5 5 -3 0 -5 -2 -5
-5z"/>
<path d="M590 805 c0 -3 2 -5 5 -5 3 0 5 2 5 5 0 3 -2 5 -5 5 -3 0 -5 -2 -5
-5z"/>
<path d="M630 805 c0 -3 2 -5 5 -5 3 0 5 2 5 5 0 3 -2 5 -5 5 -3 0 -5 -2 -5
-5z"/>
<path d="M910 805 c0 -3 2 -5 5 -5 3 0 5 2 5 5 0 3 -2 5 -5 5 -3 0 -5 -2 -5
-5z"/>
<path d="M950 805 c0 -3 2 -5 5 -5 3 0 5 2 5 5 0 3 -2 5 -5 5 -3 0 -5 -2 -5
-5z"/>
<path d="M16 782 c-2 -4 4 -8 14 -8 10 0 16 4 14 8 -3 4 -9 8 -14 8 -5 0 -11
-4 -14 -8z"/>
<path d="M175 780 c-4 -6 1 -7 11 -3 12 4 15 3 10 -5 -5 -8 -2 -10 9 -5 13 5
14 7 3 14 -17 11 -26 11 -33 -1z"/>
<path d="M270 785 c0 -3 2 -5 5 -5 3 0 5 2 5 5 0 3 -2 5 -5 5 -3 0 -5 -2 -5
-5z"/>
<path d="M343 783 c4 -3 10 -3 14 0 3 4 0 7 -7 7 -7 0 -10 -3 -7 -7z"/>
<path d="M500 785 c0 -3 2 -5 5 -5 3 0 5 2 5 5 0 3 -2 5 -5 5 -3 0 -5 -2 -5
-5z"/>
<path d="M594 782 c3 -6 0 -12 -6 -14 -7 -3 2 -5 20 -5 17 0 31 1 30 2 -15 12
-49 25 -44 17z"/>
<path d="M655 780 c-4 -6 1 -7 11 -3 13 5 15 3 9 -7 -5 -9 -4 -11 4 -6 6 4 9
12 6 17 -8 12 -22 12 -30 -1z"/>
<path d="M834 778 c10 -6 22 -6 26 -2 5 5 -3 10 -18 11 -22 1 -24 0 -8 -9z"/>
<path d="M915 780 c5 -9 1 -10 -16 -5 -13 4 -21 4 -17 0 7 -8 68 -15 68 -9 0
2 -10 8 -21 15 -17 8 -20 8 -14 -1z"/>
<path d="M90 775 c0 -3 2 -5 5 -5 3 0 5 2 5 5 0 3 -2 5 -5 5 -3 0 -5 -2 -5 -5z"/>
<path d="M135 770 c3 -5 11 -10 16 -10 6 0 7 5 4 10 -3 6 -11 10 -16 10 -6 0
-7 -4 -4 -10z"/>
<path d="M257 769 c7 -7 15 -10 18 -7 3 3 -2 9 -12 12 -14 6 -15 5 -6 -5z"/>
<path d="M295 770 c3 -5 11 -10 16 -10 6 0 7 5 4 10 -3 6 -11 10 -16 10 -6 0
-7 -4 -4 -10z"/>
<path d="M370 775 c0 -3 2 -5 5 -5 3 0 5 2 5 5 0 3 -2 5 -5 5 -3 0 -5 -2 -5
-5z"/>
<path d="M410 775 c0 -3 2 -5 5 -5 3 0 5 2 5 5 0 3 -2 5 -5 5 -3 0 -5 -2 -5
-5z"/>
<path d="M460 766 c7 -7 13 -7 20 0 6 6 3 10 -10 10 -13 0 -16 -4 -10 -10z"/>
<path d="M514 768 c-4 -7 -3 -8 4 -4 12 7 16 16 8 16 -3 0 -8 -5 -12 -12z"/>
<path d="M768 773 c6 -2 10 -9 7 -14 -4 -5 1 -6 10 -2 13 5 14 7 3 14 -7 5
-17 8 -23 8 -5 0 -4 -3 3 -6z"/>
<path d="M115 760 c3 -5 8 -10 11 -10 3 0 2 5 -1 10 -3 6 -8 10 -11 10 -3 0
-2 -4 1 -10z"/>
<path d="M230 765 c0 -3 2 -5 5 -5 3 0 5 2 5 5 0 3 -2 5 -5 5 -3 0 -5 -2 -5
-5z"/>
<path d="M390 765 c0 -3 2 -5 5 -5 3 0 5 2 5 5 0 3 -2 5 -5 5 -3 0 -5 -2 -5
-5z"/>
<path d="M550 765 c0 -3 2 -5 5 -5 3 0 5 2 5 5 0 3 -2 5 -5 5 -3 0 -5 -2 -5
-5z"/>
<path d="M710 765 c0 -3 2 -5 5 -5 3 0 5 2 5 5 0 3 -2 5 -5 5 -3 0 -5 -2 -5
-5z"/>
<path d="M740 765 c0 -3 2 -5 5 -5 3 0 5 2 5 5 0 3 -2 5 -5 5 -3 0 -5 -2 -5
-5z"/>
<path d="M860 745 c0 -3 2 -5 5 -5 3 0 5 2 5 5 0 3 -2 5 -5 5 -3 0 -5 -2 -5
-5z"/>
<path d="M10 730 c8 -5 20 -10 25 -10 6 0 3 5 -5 10 -8 5 -19 10 -25 10 -6 0
-3 -5 5 -10z"/>
<path d="M90 735 c0 -3 2 -5 5 -5 3 0 5 2 5 5 0 3 -2 5 -5 5 -3 0 -5 -2 -5 -5z"/>
<path d="M116 732 c-2 -4 4 -8 14 -8 10 0 16 4 14 8 -3 4 -9 8 -14 8 -5 0 -11
-4 -14 -8z"/>
<path d="M170 730 c8 -5 20 -10 25 -10 6 0 3 5 -5 10 -8 5 -19 10 -25 10 -5 0
-3 -5 5 -10z"/>
<path d="M250 735 c0 -3 2 -5 5 -5 3 0 5 2 5 5 0 3 -2 5 -5 5 -3 0 -5 -2 -5
-5z"/>
<path d="M295 730 c3 -5 8 -10 11 -10 3 0 2 5 -1 10 -3 6 -8 10 -11 10 -3 0
-2 -4 1 -10z"/>
<path d="M330 730 c8 -5 20 -10 25 -10 6 0 3 5 -5 10 -8 5 -19 10 -25 10 -5 0
-3 -5 5 -10z"/>
<path d="M410 735 c0 -3 2 -5 5 -5 3 0 5 2 5 5 0 3 -2 5 -5 5 -3 0 -5 -2 -5
-5z"/>
<path d="M435 730 c-3 -6 1 -7 9 -4 18 7 21 14 7 14 -6 0 -13 -4 -16 -10z"/>
<path d="M490 736 c0 -3 9 -10 20 -16 11 -6 20 -8 20 -6 0 3 -9 10 -20 16 -11
6 -20 8 -20 6z"/>
<path d="M570 735 c0 -3 2 -5 5 -5 3 0 5 2 5 5 0 3 -2 5 -5 5 -3 0 -5 -2 -5
-5z"/>
<path d="M596 732 c-2 -4 16 -7 40 -8 24 0 42 1 39 4 -7 8 -75 11 -79 4z"/>
<path d="M730 735 c0 -3 2 -5 5 -5 3 0 5 2 5 5 0 3 -2 5 -5 5 -3 0 -5 -2 -5
-5z"/>
<path d="M756 732 c-2 -4 4 -8 14 -8 10 0 16 4 14 8 -3 4 -9 8 -14 8 -5 0 -11
-4 -14 -8z"/>
<path d="M810 730 c8 -5 20 -10 25 -10 6 0 3 5 -5 10 -8 5 -19 10 -25 10 -5 0
-3 -5 5 -10z"/>
<path d="M890 735 c0 -3 2 -5 5 -5 3 0 5 2 5 5 0 3 -2 5 -5 5 -3 0 -5 -2 -5
-5z"/>
<path d="M920 736 c0 -2 7 -7 16 -10 8 -3 12 -2 9 4 -6 10 -25 14 -25 6z"/>
<path d="M223 723 c4 -3 10 -3 14 0 3 4 0 7 -7 7 -7 0 -10 -3 -7 -7z"/>
<path d="M270 725 c0 -3 2 -5 5 -5 3 0 5 2 5 5 0 3 -2 5 -5 5 -3 0 -5 -2 -5
-5z"/>
<path d="M540 725 c0 -3 2 -5 5 -5 3 0 5 2 5 5 0 3 -2 5 -5 5 -3 0 -5 -2 -5
-5z"/>
<path d="M700 725 c0 -3 2 -5 5 -5 3 0 5 2 5 5 0 3 -2 5 -5 5 -3 0 -5 -2 -5
-5z"/>
<path d="M870 725 c0 -3 2 -5 5 -5 3 0 5 2 5 5 0 3 -2 5 -5 5 -3 0 -5 -2 -5
-5z"/>
<path d="M90 700 c-9 -6 -10 -10 -3 -10 6 0 15 5 18 10 8 12 4 12 -15 0z"/>
<path d="M143 703 c4 -3 10 -3 14 0 3 4 0 7 -7 7 -7 0 -10 -3 -7 -7z"/>
<path d="M263 703 c4 -3 10 -3 14 0 3 4 0 7 -7 7 -7 0 -10 -3 -7 -7z"/>
<path d="M303 703 c4 -3 10 -3 14 0 3 4 0 7 -7 7 -7 0 -10 -3 -7 -7z"/>
<path d="M410 700 c-8 -5 -10 -10 -5 -10 6 0 17 5 25 10 8 5 11 10 5 10 -5 0
-17 -5 -25 -10z"/>
<path d="M463 703 c4 -3 10 -3 14 0 3 4 0 7 -7 7 -7 0 -10 -3 -7 -7z"/>
<path d="M583 703 c4 -3 10 -3 14 0 3 4 0 7 -7 7 -7 0 -10 -3 -7 -7z"/>
<path d="M620 705 c0 -3 2 -5 5 -5 3 0 5 2 5 5 0 3 -2 5 -5 5 -3 0 -5 -2 -5
-5z"/>
<path d="M724 694 c-18 -14 -18 -15 4 -4 12 6 22 13 22 15 0 8 -5 6 -26 -11z"/>
<path d="M790 705 c0 -3 2 -5 5 -5 3 0 5 2 5 5 0 3 -2 5 -5 5 -3 0 -5 -2 -5
-5z"/>
<path d="M903 703 c4 -3 10 -3 14 0 3 4 0 7 -7 7 -7 0 -10 -3 -7 -7z"/>
<path d="M943 703 c4 -3 10 -3 14 0 3 4 0 7 -7 7 -7 0 -10 -3 -7 -7z"/>
<path d="M3 693 c4 -3 10 -3 14 0 3 4 0 7 -7 7 -7 0 -10 -3 -7 -7z"/>
<path d="M43 693 c4 -3 10 -3 14 0 3 4 0 7 -7 7 -7 0 -10 -3 -7 -7z"/>
<path d="M203 693 c4 -3 10 -3 14 0 3 4 0 7 -7 7 -7 0 -10 -3 -7 -7z"/>
<path d="M330 695 c0 -3 2 -5 5 -5 3 0 5 2 5 5 0 3 -2 5 -5 5 -3 0 -5 -2 -5
-5z"/>
<path d="M363 693 c4 -3 10 -3 14 0 3 4 0 7 -7 7 -7 0 -10 -3 -7 -7z"/>
<path d="M490 695 c0 -3 2 -5 5 -5 3 0 5 2 5 5 0 3 -2 5 -5 5 -3 0 -5 -2 -5
-5z"/>
<path d="M523 693 c4 -3 10 -3 14 0 3 4 0 7 -7 7 -7 0 -10 -3 -7 -7z"/>
<path d="M560 695 c0 -3 2 -5 5 -5 3 0 5 2 5 5 0 3 -2 5 -5 5 -3 0 -5 -2 -5
-5z"/>
<path d="M650 695 c0 -3 2 -5 5 -5 3 0 5 2 5 5 0 3 -2 5 -5 5 -3 0 -5 -2 -5
-5z"/>
<path d="M843 693 c4 -3 10 -3 14 0 3 4 0 7 -7 7 -7 0 -10 -3 -7 -7z"/>
<path d="M50 675 c0 -3 2 -5 5 -5 3 0 5 2 5 5 0 3 -2 5 -5 5 -3 0 -5 -2 -5 -5z"/>
<path d="M114 668 c-4 -6 -3 -8 4 -5 14 9 43 -3 36 -14 -3 -5 11 -2 30 8 20 9
34 18 32 21 -2 2 -14 -1 -25 -8 -15 -7 -27 -8 -40 0 -25 13 -28 13 -37 -2z"/>
<path d="M290 675 c0 -3 2 -5 5 -5 3 0 5 2 5 5 0 3 -2 5 -5 5 -3 0 -5 -2 -5
-5z"/>
<path d="M370 675 c0 -3 2 -5 5 -5 3 0 5 2 5 5 0 3 -2 5 -5 5 -3 0 -5 -2 -5
-5z"/>
<path d="M434 669 c-4 -8 -3 -10 4 -5 6 4 21 2 33 -4 12 -7 25 -8 30 -3 5 5 1
9 -9 9 -9 1 -24 4 -33 8 -10 4 -20 2 -25 -5z"/>
<path d="M523 673 c4 -3 10 -3 14 0 3 4 0 7 -7 7 -7 0 -10 -3 -7 -7z"/>
<path d="M610 675 c0 -3 2 -5 5 -5 3 0 5 2 5 5 0 3 -2 5 -5 5 -3 0 -5 -2 -5
-5z"/>
<path d="M658 664 c-38 -20 -36 -28 2 -9 17 9 30 18 30 20 0 7 -1 6 -32 -11z"/>
<path d="M754 668 c-4 -6 -3 -8 4 -5 14 9 43 -3 36 -14 -3 -5 2 -6 12 -2 14 5
13 8 -7 19 -30 17 -36 17 -45 2z"/>
<path d="M835 670 c-3 -6 1 -7 9 -4 18 7 21 14 7 14 -6 0 -13 -4 -16 -10z"/>
<path d="M923 673 c4 -3 10 -3 14 0 3 4 0 7 -7 7 -7 0 -10 -3 -7 -7z"/>
<path d="M11 661 c-10 -7 -7 -9 12 -8 14 1 23 5 20 10 -6 9 -15 9 -32 -2z"/>
<path d="M270 665 c0 -3 2 -5 5 -5 3 0 5 2 5 5 0 3 -2 5 -5 5 -3 0 -5 -2 -5
-5z"/>
<path d="M313 655 c0 -7 6 -11 14 -8 7 3 13 6 13 8 0 2 -6 5 -13 8 -8 3 -14
-1 -14 -8z"/>
<path d="M355 660 c3 -5 8 -10 11 -10 3 0 2 5 -1 10 -3 6 -8 10 -11 10 -3 0
-2 -4 1 -10z"/>
<path d="M590 665 c0 -3 2 -5 5 -5 3 0 5 2 5 5 0 3 -2 5 -5 5 -3 0 -5 -2 -5
-5z"/>
<path d="M950 665 c0 -3 2 -5 5 -5 3 0 5 2 5 5 0 3 -2 5 -5 5 -3 0 -5 -2 -5
-5z"/>
<path d="M390 650 c-9 -6 -10 -10 -3 -10 6 0 15 5 18 10 8 12 4 12 -15 0z"/>
<path d="M550 650 c-9 -6 -10 -10 -3 -10 6 0 15 5 18 10 8 12 4 12 -15 0z"/>
<path d="M710 650 c-9 -6 -10 -10 -3 -10 6 0 15 5 18 10 8 12 4 12 -15 0z"/>
<path d="M870 650 c-9 -6 -10 -10 -3 -10 6 0 15 5 18 10 8 12 4 12 -15 0z"/>
<path d="M63 643 c4 -3 10 -3 14 0 3 4 0 7 -7 7 -7 0 -10 -3 -7 -7z"/>
<path d="M230 645 c0 -3 2 -5 5 -5 3 0 5 2 5 5 0 3 -2 5 -5 5 -3 0 -5 -2 -5
-5z"/>
<path d="M270 645 c0 -3 2 -5 5 -5 3 0 5 2 5 5 0 3 -2 5 -5 5 -3 0 -5 -2 -5
-5z"/>
<path d="M460 645 c0 -3 2 -5 5 -5 3 0 5 2 5 5 0 3 -2 5 -5 5 -3 0 -5 -2 -5
-5z"/>
<path d="M20 626 c0 -2 7 -7 16 -10 8 -3 12 -2 9 4 -6 10 -25 14 -25 6z"/>
<path d="M115 620 c5 -9 1 -10 -16 -5 -18 5 -21 4 -9 -4 8 -6 23 -8 34 -5 13
4 16 3 11 -6 -5 -9 -4 -11 3 -6 16 10 15 14 -9 27 -17 8 -20 8 -14 -1z"/>
<path d="M175 620 c-3 -6 1 -7 9 -4 18 7 21 14 7 14 -6 0 -13 -4 -16 -10z"/>
<path d="M335 620 c-4 -6 1 -7 11 -3 12 4 15 3 10 -5 -5 -8 -2 -10 9 -5 13 5
14 7 3 14 -17 11 -26 11 -33 -1z"/>
<path d="M430 626 c0 -3 9 -10 20 -16 11 -6 20 -8 20 -6 0 3 -9 10 -20 16 -11
6 -20 8 -20 6z"/>
<path d="M503 623 c4 -3 10 -3 14 0 3 4 0 7 -7 7 -7 0 -10 -3 -7 -7z"/>
<path d="M677 619 c7 -7 15 -10 18 -7 3 3 -2 9 -12 12 -14 6 -15 5 -6 -5z"/>
<path d="M820 626 c0 -2 7 -7 16 -10 8 -3 12 -2 9 4 -6 10 -25 14 -25 6z"/>
<path d="M250 615 c0 -3 2 -5 5 -5 3 0 5 2 5 5 0 3 -2 5 -5 5 -3 0 -5 -2 -5
-5z"/>
<path d="M415 610 c3 -5 8 -10 11 -10 3 0 2 5 -1 10 -3 6 -8 10 -11 10 -3 0
-2 -4 1 -10z"/>
<path d="M480 615 c0 -3 2 -5 5 -5 3 0 5 2 5 5 0 3 -2 5 -5 5 -3 0 -5 -2 -5
-5z"/>
<path d="M596 612 c-2 -4 4 -8 14 -8 10 0 16 4 14 8 -3 4 -9 8 -14 8 -5 0 -11
-4 -14 -8z"/>
<path d="M740 606 c7 -7 13 -7 20 0 6 6 3 10 -10 10 -13 0 -16 -4 -10 -10z"/>
<path d="M890 615 c0 -3 2 -5 5 -5 3 0 5 2 5 5 0 3 -2 5 -5 5 -3 0 -5 -2 -5
-5z"/>
<path d="M935 610 c3 -5 8 -10 11 -10 3 0 2 5 -1 10 -3 6 -8 10 -11 10 -3 0
-2 -4 1 -10z"/>
<path d="M303 603 c4 -3 10 -3 14 0 3 4 0 7 -7 7 -7 0 -10 -3 -7 -7z"/>
<path d="M390 605 c0 -3 2 -5 5 -5 3 0 5 2 5 5 0 3 -2 5 -5 5 -3 0 -5 -2 -5
-5z"/>
<path d="M774 598 c-4 -7 -3 -8 4 -4 7 4 12 9 12 12 0 8 -9 4 -16 -8z"/>
<path d="M280 595 c0 -3 2 -5 5 -5 3 0 5 2 5 5 0 3 -2 5 -5 5 -3 0 -5 -2 -5
-5z"/>
<path d="M440 595 c0 -3 2 -5 5 -5 3 0 5 2 5 5 0 3 -2 5 -5 5 -3 0 -5 -2 -5
-5z"/>
<path d="M530 595 c0 -3 2 -5 5 -5 3 0 5 2 5 5 0 3 -2 5 -5 5 -3 0 -5 -2 -5
-5z"/>
<path d="M10 570 c8 -5 20 -10 25 -10 6 0 3 5 -5 10 -8 5 -19 10 -25 10 -6 0
-3 -5 5 -10z"/>
<path d="M90 575 c0 -3 2 -5 5 -5 3 0 5 2 5 5 0 3 -2 5 -5 5 -3 0 -5 -2 -5 -5z"/>
<path d="M123 573 c4 -3 10 -3 14 0 3 4 0 7 -7 7 -7 0 -10 -3 -7 -7z"/>
<path d="M170 570 c8 -5 20 -10 25 -10 6 0 3 5 -5 10 -8 5 -19 10 -25 10 -5 0
-3 -5 5 -10z"/>
<path d="M243 573 c4 -3 10 -3 14 0 3 4 0 7 -7 7 -7 0 -10 -3 -7 -7z"/>
<path d="M280 576 c0 -2 7 -7 16 -10 8 -3 12 -2 9 4 -6 10 -25 14 -25 6z"/>
<path d="M330 570 c8 -5 20 -10 25 -10 6 0 3 5 -5 10 -8 5 -19 10 -25 10 -5 0
-3 -5 5 -10z"/>
<path d="M410 575 c0 -3 2 -5 5 -5 3 0 5 2 5 5 0 3 -2 5 -5 5 -3 0 -5 -2 -5
-5z"/>
<path d="M435 570 c-3 -6 1 -7 9 -4 18 7 21 14 7 14 -6 0 -13 -4 -16 -10z"/>
<path d="M497 569 c7 -7 15 -10 18 -7 3 3 -2 9 -12 12 -14 6 -15 5 -6 -5z"/>
<path d="M570 575 c0 -3 2 -5 5 -5 3 0 5 2 5 5 0 3 -2 5 -5 5 -3 0 -5 -2 -5
-5z"/>
<path d="M604 572 c3 -3 19 -6 36 -7 17 -1 28 1 24 4 -3 3 -19 6 -35 7 -17 1
-28 -1 -25 -4z"/>
<path d="M730 575 c0 -3 2 -5 5 -5 3 0 5 2 5 5 0 3 -2 5 -5 5 -3 0 -5 -2 -5
-5z"/>
<path d="M760 576 c0 -2 7 -7 16 -10 8 -3 12 -2 9 4 -6 10 -25 14 -25 6z"/>
<path d="M800 576 c0 -2 7 -7 16 -10 8 -3 12 -2 9 4 -6 10 -25 14 -25 6z"/>
<path d="M890 575 c0 -3 2 -5 5 -5 3 0 5 2 5 5 0 3 -2 5 -5 5 -3 0 -5 -2 -5
-5z"/>
<path d="M915 570 c-3 -6 1 -7 9 -4 18 7 21 14 7 14 -6 0 -13 -4 -16 -10z"/>
<path d="M70 565 c0 -3 2 -5 5 -5 3 0 5 2 5 5 0 3 -2 5 -5 5 -3 0 -5 -2 -5 -5z"/>
<path d="M380 565 c0 -3 2 -5 5 -5 3 0 5 2 5 5 0 3 -2 5 -5 5 -3 0 -5 -2 -5
-5z"/>
<path d="M700 565 c0 -3 2 -5 5 -5 3 0 5 2 5 5 0 3 -2 5 -5 5 -3 0 -5 -2 -5
-5z"/>
<path d="M860 565 c0 -3 2 -5 5 -5 3 0 5 2 5 5 0 3 -2 5 -5 5 -3 0 -5 -2 -5
-5z"/>
<path d="M103 543 c4 -3 10 -3 14 0 3 4 0 7 -7 7 -7 0 -10 -3 -7 -7z"/>
<path d="M140 546 c0 -2 7 -7 16 -10 8 -3 12 -2 9 4 -6 10 -25 14 -25 6z"/>
<path d="M263 543 c4 -3 10 -3 14 0 3 4 0 7 -7 7 -7 0 -10 -3 -7 -7z"/>
<path d="M303 543 c4 -3 10 -3 14 0 3 4 0 7 -7 7 -7 0 -10 -3 -7 -7z"/>
<path d="M420 545 c0 -3 2 -5 5 -5 3 0 5 2 5 5 0 3 -2 5 -5 5 -3 0 -5 -2 -5
-5z"/>
<path d="M463 543 c4 -3 10 -3 14 0 3 4 0 7 -7 7 -7 0 -10 -3 -7 -7z"/>
<path d="M583 543 c4 -3 10 -3 14 0 3 4 0 7 -7 7 -7 0 -10 -3 -7 -7z"/>
<path d="M620 545 c0 -3 2 -5 5 -5 3 0 5 2 5 5 0 3 -2 5 -5 5 -3 0 -5 -2 -5
-5z"/>
<path d="M735 540 c-3 -6 1 -7 9 -4 18 7 21 14 7 14 -6 0 -13 -4 -16 -10z"/>
<path d="M790 545 c0 -3 2 -5 5 -5 3 0 5 2 5 5 0 3 -2 5 -5 5 -3 0 -5 -2 -5
-5z"/>
<path d="M903 543 c4 -3 10 -3 14 0 3 4 0 7 -7 7 -7 0 -10 -3 -7 -7z"/>
<path d="M943 543 c4 -3 10 -3 14 0 3 4 0 7 -7 7 -7 0 -10 -3 -7 -7z"/>
<path d="M40 535 c0 -3 2 -5 5 -5 3 0 5 2 5 5 0 3 -2 5 -5 5 -3 0 -5 -2 -5 -5z"/>
<path d="M80 535 c0 -3 2 -5 5 -5 3 0 5 2 5 5 0 3 -2 5 -5 5 -3 0 -5 -2 -5 -5z"/>
<path d="M200 535 c0 -3 2 -5 5 -5 3 0 5 2 5 5 0 3 -2 5 -5 5 -3 0 -5 -2 -5
-5z"/>
<path d="M360 535 c0 -3 2 -5 5 -5 3 0 5 2 5 5 0 3 -2 5 -5 5 -3 0 -5 -2 -5
-5z"/>
<path d="M560 535 c0 -3 2 -5 5 -5 3 0 5 2 5 5 0 3 -2 5 -5 5 -3 0 -5 -2 -5
-5z"/>
<path d="M840 535 c0 -3 2 -5 5 -5 3 0 5 2 5 5 0 3 -2 5 -5 5 -3 0 -5 -2 -5
-5z"/>
<path d="M678 514 c-33 -17 -34 -20 -8 -20 10 0 17 2 15 5 -3 2 3 10 13 17 23
18 14 17 -20 -2z"/>
<path d="M50 515 c0 -3 2 -5 5 -5 3 0 5 2 5 5 0 3 -2 5 -5 5 -3 0 -5 -2 -5 -5z"/>
<path d="M114 509 c-4 -7 -3 -10 4 -6 14 10 43 -3 36 -15 -4 -6 3 -5 15 1 12
7 27 9 34 5 7 -4 8 -3 4 2 -5 5 -18 9 -30 10 -12 1 -29 4 -38 8 -10 4 -20 2
-25 -5z"/>
<path d="M210 515 c0 -3 2 -5 5 -5 3 0 5 2 5 5 0 3 -2 5 -5 5 -3 0 -5 -2 -5
-5z"/>
<path d="M274 508 c-4 -7 -3 -8 4 -4 6 4 22 2 34 -4 22 -11 22 -10 4 4 -24 19
-32 20 -42 4z"/>
<path d="M370 515 c0 -3 2 -5 5 -5 3 0 5 2 5 5 0 3 -2 5 -5 5 -3 0 -5 -2 -5
-5z"/>
<path d="M410 515 c0 -3 2 -5 5 -5 3 0 5 2 5 5 0 3 -2 5 -5 5 -3 0 -5 -2 -5
-5z"/>
<path d="M434 509 c-4 -7 -3 -10 4 -6 14 10 43 -3 36 -15 -4 -6 3 -5 15 1 12
7 27 9 34 5 7 -4 8 -3 4 2 -5 5 -18 9 -30 10 -12 1 -29 4 -38 8 -10 4 -20 2
-25 -5z"/>
<path d="M530 515 c0 -3 2 -5 5 -5 3 0 5 2 5 5 0 3 -2 5 -5 5 -3 0 -5 -2 -5
-5z"/>
<path d="M610 515 c0 -3 2 -5 5 -5 3 0 5 2 5 5 0 3 -2 5 -5 5 -3 0 -5 -2 -5
-5z"/>
<path d="M754 509 c-4 -8 -3 -10 4 -5 6 4 21 2 32 -4 15 -8 26 -7 47 5 16 9
19 13 8 9 -25 -9 -46 -9 -66 0 -10 4 -20 2 -25 -5z"/>
<path d="M917 513 c-3 -5 6 -9 20 -10 19 -1 22 1 12 8 -17 11 -26 11 -32 2z"/>
<path d="M10 500 c-8 -5 -11 -10 -5 -10 6 0 17 5 25 10 8 5 11 10 5 10 -5 0
-17 -5 -25 -10z"/>
<path d="M343 503 c4 -3 10 -3 14 0 3 4 0 7 -7 7 -7 0 -10 -3 -7 -7z"/>
<path d="M590 505 c0 -3 2 -5 5 -5 3 0 5 2 5 5 0 3 -2 5 -5 5 -3 0 -5 -2 -5
-5z"/>
<path d="M630 505 c0 -3 2 -5 5 -5 3 0 5 2 5 5 0 3 -2 5 -5 5 -3 0 -5 -2 -5
-5z"/>
<path d="M70 490 c-9 -6 -10 -10 -3 -10 6 0 15 5 18 10 8 12 4 12 -15 0z"/>
<path d="M230 490 c-9 -6 -10 -10 -3 -10 6 0 15 5 18 10 8 12 4 12 -15 0z"/>
<path d="M390 489 c0 -5 5 -7 10 -4 6 3 10 8 10 11 0 2 -4 4 -10 4 -5 0 -10
-5 -10 -11z"/>
<path d="M550 490 c-8 -5 -10 -10 -5 -10 6 0 17 5 25 10 8 5 11 10 5 10 -5 0
-17 -5 -25 -10z"/>
<path d="M710 490 c-9 -6 -10 -10 -3 -10 6 0 15 5 18 10 8 12 4 12 -15 0z"/>
<path d="M870 490 c-9 -6 -10 -10 -3 -10 6 0 15 5 18 10 8 12 4 12 -15 0z"/>
<path d="M110 485 c0 -3 2 -5 5 -5 3 0 5 2 5 5 0 3 -2 5 -5 5 -3 0 -5 -2 -5
-5z"/>
<path d="M270 485 c0 -3 2 -5 5 -5 3 0 5 2 5 5 0 3 -2 5 -5 5 -3 0 -5 -2 -5
-5z"/>
<path d="M430 485 c0 -3 2 -5 5 -5 3 0 5 2 5 5 0 3 -2 5 -5 5 -3 0 -5 -2 -5
-5z"/>
<path d="M630 485 c0 -3 2 -5 5 -5 3 0 5 2 5 5 0 3 -2 5 -5 5 -3 0 -5 -2 -5
-5z"/>
<path d="M910 485 c0 -3 2 -5 5 -5 3 0 5 2 5 5 0 3 -2 5 -5 5 -3 0 -5 -2 -5
-5z"/>
<path d="M20 465 c0 -3 2 -5 5 -5 3 0 5 2 5 5 0 3 -2 5 -5 5 -3 0 -5 -2 -5 -5z"/>
<path d="M175 461 c-8 -14 10 -22 30 -15 13 5 14 8 3 15 -17 11 -26 11 -33 0z
m22 -8 c-4 -3 -10 -3 -14 0 -3 4 0 7 7 7 7 0 10 -3 7 -7z"/>
<path d="M275 459 c6 -9 3 -10 -11 -5 -10 4 -15 4 -11 -1 5 -4 22 -8 38 -9 34
-2 34 -2 0 16 -19 10 -22 10 -16 -1z"/>
<path d="M343 463 c4 -3 10 -3 14 0 3 4 0 7 -7 7 -7 0 -10 -3 -7 -7z"/>
<path d="M500 465 c0 -3 2 -5 5 -5 3 0 5 2 5 5 0 3 -2 5 -5 5 -3 0 -5 -2 -5
-5z"/>
<path d="M594 462 c3 -6 0 -12 -6 -14 -7 -3 2 -5 20 -5 17 0 31 1 30 2 -15 12
-49 25 -44 17z"/>
<path d="M655 460 c-4 -6 1 -7 11 -3 13 5 15 3 9 -7 -5 -9 -4 -11 4 -6 6 4 9
12 6 17 -8 12 -22 12 -30 -1z"/>
<path d="M833 455 c0 -7 6 -11 14 -8 7 3 13 6 13 8 0 2 -6 5 -13 8 -8 3 -14
-1 -14 -8z"/>
<path d="M915 459 c6 -9 3 -10 -11 -5 -10 4 -15 3 -10 -1 7 -7 56 -13 56 -6 0
1 -10 7 -21 14 -17 9 -20 8 -14 -2z"/>
<path d="M0 455 c0 -3 2 -5 5 -5 3 0 5 2 5 5 0 3 -2 5 -5 5 -3 0 -5 -2 -5 -5z"/>
<path d="M90 455 c0 -3 2 -5 5 -5 3 0 5 2 5 5 0 3 -2 5 -5 5 -3 0 -5 -2 -5 -5z"/>
<path d="M116 452 c-2 -4 4 -8 14 -8 10 0 16 4 14 8 -3 4 -9 8 -14 8 -5 0 -11
-4 -14 -8z"/>
<path d="M370 455 c0 -3 2 -5 5 -5 3 0 5 2 5 5 0 3 -2 5 -5 5 -3 0 -5 -2 -5
-5z"/>
<path d="M410 455 c0 -3 2 -5 5 -5 3 0 5 2 5 5 0 3 -2 5 -5 5 -3 0 -5 -2 -5
-5z"/>
<path d="M453 445 c0 -7 6 -11 14 -8 7 3 13 6 13 8 0 2 -6 5 -13 8 -8 3 -14
-1 -14 -8z"/>
<path d="M515 450 c-3 -6 1 -7 9 -4 18 7 21 14 7 14 -6 0 -13 -4 -16 -10z"/>
<path d="M768 453 c6 -2 10 -9 7 -14 -4 -5 1 -6 10 -2 13 5 14 7 3 14 -7 5
-17 8 -23 8 -5 0 -4 -3 3 -6z"/>
<path d="M70 445 c0 -3 2 -5 5 -5 3 0 5 2 5 5 0 3 -2 5 -5 5 -3 0 -5 -2 -5 -5z"/>
<path d="M390 445 c0 -3 2 -5 5 -5 3 0 5 2 5 5 0 3 -2 5 -5 5 -3 0 -5 -2 -5
-5z"/>
<path d="M550 445 c0 -3 2 -5 5 -5 3 0 5 2 5 5 0 3 -2 5 -5 5 -3 0 -5 -2 -5
-5z"/>
<path d="M710 445 c0 -3 2 -5 5 -5 3 0 5 2 5 5 0 3 -2 5 -5 5 -3 0 -5 -2 -5
-5z"/>
<path d="M740 445 c0 -3 2 -5 5 -5 3 0 5 2 5 5 0 3 -2 5 -5 5 -3 0 -5 -2 -5
-5z"/>
<path d="M870 445 c0 -3 2 -5 5 -5 3 0 5 2 5 5 0 3 -2 5 -5 5 -3 0 -5 -2 -5
-5z"/>
<path d="M40 435 c0 -3 2 -5 5 -5 3 0 5 2 5 5 0 3 -2 5 -5 5 -3 0 -5 -2 -5 -5z"/>
<path d="M17 409 c7 -7 15 -10 18 -7 3 3 -2 9 -12 12 -14 6 -15 5 -6 -5z"/>
<path d="M90 415 c0 -3 2 -5 5 -5 3 0 5 2 5 5 0 3 -2 5 -5 5 -3 0 -5 -2 -5 -5z"/>
<path d="M115 410 c-3 -5 -2 -10 4 -10 5 0 13 5 16 10 3 6 2 10 -4 10 -5 0
-13 -4 -16 -10z"/>
<path d="M154 408 c-4 -7 -3 -8 4 -4 6 4 22 2 34 -4 22 -11 22 -10 4 4 -24 19
-32 20 -42 4z"/>
<path d="M250 415 c0 -3 2 -5 5 -5 3 0 5 2 5 5 0 3 -2 5 -5 5 -3 0 -5 -2 -5
-5z"/>
<path d="M294 413 c4 -4 21 -8 37 -9 39 -2 29 7 -12 12 -18 2 -29 1 -25 -3z"/>
<path d="M410 415 c0 -3 2 -5 5 -5 3 0 5 2 5 5 0 3 -2 5 -5 5 -3 0 -5 -2 -5
-5z"/>
<path d="M435 410 c-3 -6 1 -7 9 -4 18 7 21 14 7 14 -6 0 -13 -4 -16 -10z"/>
<path d="M481 416 c2 -2 15 -9 29 -15 24 -11 24 -11 6 3 -16 13 -49 24 -35 12z"/>
<path d="M570 415 c0 -3 2 -5 5 -5 3 0 5 2 5 5 0 3 -2 5 -5 5 -3 0 -5 -2 -5
-5z"/>
<path d="M595 410 c-5 -8 52 -6 60 2 3 2 -9 5 -25 5 -17 0 -33 -3 -35 -7z"/>
<path d="M730 415 c0 -3 2 -5 5 -5 3 0 5 2 5 5 0 3 -2 5 -5 5 -3 0 -5 -2 -5
-5z"/>
<path d="M756 412 c-2 -4 4 -8 14 -8 10 0 16 4 14 8 -3 4 -9 8 -14 8 -5 0 -11
-4 -14 -8z"/>
<path d="M801 416 c2 -2 15 -9 29 -15 24 -11 24 -11 6 3 -16 13 -49 24 -35 12z"/>
<path d="M875 410 c-3 -6 1 -7 9 -4 18 7 21 14 7 14 -6 0 -13 -4 -16 -10z"/>
<path d="M920 416 c0 -2 7 -7 16 -10 8 -3 12 -2 9 4 -6 10 -25 14 -25 6z"/>
<path d="M223 403 c4 -3 10 -3 14 0 3 4 0 7 -7 7 -7 0 -10 -3 -7 -7z"/>
<path d="M540 405 c0 -3 2 -5 5 -5 3 0 5 2 5 5 0 3 -2 5 -5 5 -3 0 -5 -2 -5
-5z"/>
<path d="M670 405 c0 -3 2 -5 5 -5 3 0 5 2 5 5 0 3 -2 5 -5 5 -3 0 -5 -2 -5
-5z"/>
<path d="M103 383 c4 -3 10 -3 14 0 3 4 0 7 -7 7 -7 0 -10 -3 -7 -7z"/>
<path d="M140 385 c0 -3 2 -5 5 -5 3 0 5 2 5 5 0 3 -2 5 -5 5 -3 0 -5 -2 -5
-5z"/>
<path d="M263 383 c4 -3 10 -3 14 0 3 4 0 7 -7 7 -7 0 -10 -3 -7 -7z"/>
<path d="M310 385 c0 -3 2 -5 5 -5 3 0 5 2 5 5 0 3 -2 5 -5 5 -3 0 -5 -2 -5
-5z"/>
<path d="M410 380 c-8 -5 -10 -10 -5 -10 6 0 17 5 25 10 8 5 11 10 5 10 -5 0
-17 -5 -25 -10z"/>
<path d="M460 385 c0 -3 2 -5 5 -5 3 0 5 2 5 5 0 3 -2 5 -5 5 -3 0 -5 -2 -5
-5z"/>
<path d="M583 383 c4 -3 10 -3 14 0 3 4 0 7 -7 7 -7 0 -10 -3 -7 -7z"/>
<path d="M620 385 c0 -3 2 -5 5 -5 3 0 5 2 5 5 0 3 -2 5 -5 5 -3 0 -5 -2 -5
-5z"/>
<path d="M743 383 c4 -3 10 -3 14 0 3 4 0 7 -7 7 -7 0 -10 -3 -7 -7z"/>
<path d="M790 385 c0 -3 2 -5 5 -5 3 0 5 2 5 5 0 3 -2 5 -5 5 -3 0 -5 -2 -5
-5z"/>
<path d="M903 383 c4 -3 10 -3 14 0 3 4 0 7 -7 7 -7 0 -10 -3 -7 -7z"/>
<path d="M940 385 c0 -3 2 -5 5 -5 3 0 5 2 5 5 0 3 -2 5 -5 5 -3 0 -5 -2 -5
-5z"/>
<path d="M10 375 c0 -3 2 -5 5 -5 3 0 5 2 5 5 0 3 -2 5 -5 5 -3 0 -5 -2 -5 -5z"/>
<path d="M50 375 c0 -3 2 -5 5 -5 3 0 5 2 5 5 0 3 -2 5 -5 5 -3 0 -5 -2 -5 -5z"/>
<path d="M80 375 c0 -3 2 -5 5 -5 3 0 5 2 5 5 0 3 -2 5 -5 5 -3 0 -5 -2 -5 -5z"/>
<path d="M203 373 c4 -3 10 -3 14 0 3 4 0 7 -7 7 -7 0 -10 -3 -7 -7z"/>
<path d="M240 375 c0 -3 2 -5 5 -5 3 0 5 2 5 5 0 3 -2 5 -5 5 -3 0 -5 -2 -5
-5z"/>
<path d="M330 375 c0 -3 2 -5 5 -5 3 0 5 2 5 5 0 3 -2 5 -5 5 -3 0 -5 -2 -5
-5z"/>
<path d="M368 373 c6 -2 9 -10 6 -15 -4 -7 -2 -8 5 -4 13 9 5 26 -12 25 -9 0
-8 -2 1 -6z"/>
<path d="M490 375 c0 -3 2 -5 5 -5 3 0 5 2 5 5 0 3 -2 5 -5 5 -3 0 -5 -2 -5
-5z"/>
<path d="M523 373 c4 -3 10 -3 14 0 3 4 0 7 -7 7 -7 0 -10 -3 -7 -7z"/>
<path d="M560 375 c0 -3 2 -5 5 -5 3 0 5 2 5 5 0 3 -2 5 -5 5 -3 0 -5 -2 -5
-5z"/>
<path d="M643 373 c4 -3 10 -3 14 0 3 4 0 7 -7 7 -7 0 -10 -3 -7 -7z"/>
<path d="M690 375 c0 -3 2 -5 5 -5 3 0 5 2 5 5 0 3 -2 5 -5 5 -3 0 -5 -2 -5
-5z"/>
<path d="M720 375 c0 -3 2 -5 5 -5 3 0 5 2 5 5 0 3 -2 5 -5 5 -3 0 -5 -2 -5
-5z"/>
<path d="M840 375 c0 -3 2 -5 5 -5 3 0 5 2 5 5 0 3 -2 5 -5 5 -3 0 -5 -2 -5
-5z"/>
<path d="M880 375 c0 -3 2 -5 5 -5 3 0 5 2 5 5 0 3 -2 5 -5 5 -3 0 -5 -2 -5
-5z"/>
<path d="M860 365 c0 -3 2 -5 5 -5 3 0 5 2 5 5 0 3 -2 5 -5 5 -3 0 -5 -2 -5
-5z"/>
<path d="M43 353 c4 -3 10 -3 14 0 3 4 0 7 -7 7 -7 0 -10 -3 -7 -7z"/>
<path d="M114 349 c-4 -8 -3 -10 4 -5 6 4 21 2 32 -4 13 -7 26 -8 37 -1 14 8
13 9 -7 8 -14 0 -32 3 -41 7 -10 4 -20 2 -25 -5z"/>
<path d="M210 355 c0 -3 2 -5 5 -5 3 0 5 2 5 5 0 3 -2 5 -5 5 -3 0 -5 -2 -5
-5z"/>
<path d="M300 345 c14 -8 30 -14 35 -14 6 0 -1 6 -15 14 -14 8 -29 14 -35 14
-5 0 1 -6 15 -14z"/>
<path d="M434 349 c-4 -8 -3 -10 4 -5 6 4 21 2 33 -4 12 -7 25 -8 30 -3 5 5 1
9 -9 9 -9 1 -24 4 -33 8 -10 4 -20 2 -25 -5z"/>
<path d="M523 353 c4 -3 10 -3 14 0 3 4 0 7 -7 7 -7 0 -10 -3 -7 -7z"/>
<path d="M610 355 c0 -3 2 -5 5 -5 3 0 5 2 5 5 0 3 -2 5 -5 5 -3 0 -5 -2 -5
-5z"/>
<path d="M690 355 c0 -3 2 -5 5 -5 3 0 5 2 5 5 0 3 -2 5 -5 5 -3 0 -5 -2 -5
-5z"/>
<path d="M756 352 c-2 -4 3 -8 12 -8 9 -1 24 -4 32 -8 9 -3 24 1 35 9 19 16
19 16 -2 5 -16 -7 -29 -8 -42 0 -24 12 -28 12 -35 2z"/>
<path d="M923 353 c4 -3 10 -3 14 0 3 4 0 7 -7 7 -7 0 -10 -3 -7 -7z"/>
<path d="M20 345 c0 -3 2 -5 5 -5 3 0 5 2 5 5 0 3 -2 5 -5 5 -3 0 -5 -2 -5 -5z"/>
<path d="M350 345 c0 -3 2 -5 5 -5 3 0 5 2 5 5 0 3 -2 5 -5 5 -3 0 -5 -2 -5
-5z"/>
<path d="M590 345 c0 -3 2 -5 5 -5 3 0 5 2 5 5 0 3 -2 5 -5 5 -3 0 -5 -2 -5
-5z"/>
<path d="M655 340 c-3 -6 1 -7 9 -4 18 7 21 14 7 14 -6 0 -13 -4 -16 -10z"/>
<path d="M950 345 c0 -3 2 -5 5 -5 3 0 5 2 5 5 0 3 -2 5 -5 5 -3 0 -5 -2 -5
-5z"/>
<path d="M0 335 c0 -3 2 -5 5 -5 3 0 5 2 5 5 0 3 -2 5 -5 5 -3 0 -5 -2 -5 -5z"/>
<path d="M74 328 c-4 -7 -3 -8 4 -4 7 4 12 9 12 12 0 8 -9 4 -16 -8z"/>
<path d="M230 330 c-9 -6 -10 -10 -3 -10 6 0 15 5 18 10 8 12 4 12 -15 0z"/>
<path d="M390 330 c-9 -6 -10 -10 -3 -10 6 0 15 5 18 10 8 12 4 12 -15 0z"/>
<path d="M550 330 c-9 -6 -10 -10 -3 -10 6 0 15 5 18 10 8 12 4 12 -15 0z"/>
<path d="M710 330 c-9 -6 -10 -10 -3 -10 6 0 15 5 18 10 8 12 4 12 -15 0z"/>
<path d="M140 325 c0 -3 2 -5 5 -5 3 0 5 2 5 5 0 3 -2 5 -5 5 -3 0 -5 -2 -5
-5z"/>
<path d="M460 325 c0 -3 2 -5 5 -5 3 0 5 2 5 5 0 3 -2 5 -5 5 -3 0 -5 -2 -5
-5z"/>
<path d="M630 325 c0 -3 2 -5 5 -5 3 0 5 2 5 5 0 3 -2 5 -5 5 -3 0 -5 -2 -5
-5z"/>
<path d="M863 323 c4 -3 10 -3 14 0 3 4 0 7 -7 7 -7 0 -10 -3 -7 -7z"/>
<path d="M910 325 c0 -3 2 -5 5 -5 3 0 5 2 5 5 0 3 -2 5 -5 5 -3 0 -5 -2 -5
-5z"/>
<path d="M940 325 c0 -3 2 -5 5 -5 3 0 5 2 5 5 0 3 -2 5 -5 5 -3 0 -5 -2 -5
-5z"/>
<path d="M570 315 c0 -3 2 -5 5 -5 3 0 5 2 5 5 0 3 -2 5 -5 5 -3 0 -5 -2 -5
-5z"/>
<path d="M730 315 c0 -3 2 -5 5 -5 3 0 5 2 5 5 0 3 -2 5 -5 5 -3 0 -5 -2 -5
-5z"/>
<path d="M28 303 c6 -2 10 -9 7 -14 -4 -5 1 -6 10 -2 13 5 14 7 3 14 -7 5 -17
8 -23 8 -5 0 -4 -3 3 -6z"/>
<path d="M110 305 c0 -3 2 -5 5 -5 3 0 5 2 5 5 0 3 -2 5 -5 5 -3 0 -5 -2 -5
-5z"/>
<path d="M175 300 c-3 -6 1 -7 9 -4 18 7 21 14 7 14 -6 0 -13 -4 -16 -10z"/>
<path d="M435 300 c6 -10 4 -12 -11 -6 -15 6 -17 5 -6 -5 9 -9 15 -10 23 -2 8
8 7 13 -2 18 -8 6 -10 4 -4 -5z"/>
<path d="M500 306 c0 -2 7 -7 16 -10 8 -3 12 -2 9 4 -6 10 -25 14 -25 6z"/>
<path d="M668 303 c6 -2 9 -10 6 -15 -4 -7 -2 -8 5 -4 13 9 5 26 -12 25 -9 0
-8 -2 1 -6z"/>
<path d="M823 303 c4 -3 10 -3 14 0 3 4 0 7 -7 7 -7 0 -10 -3 -7 -7z"/>
<path d="M97 289 c7 -7 15 -10 18 -7 3 3 -2 9 -12 12 -14 6 -15 5 -6 -5z"/>
<path d="M137 289 c7 -7 15 -10 18 -7 3 3 -2 9 -12 12 -14 6 -15 5 -6 -5z"/>
<path d="M275 291 c-7 -12 12 -24 25 -16 11 7 4 25 -10 25 -5 0 -11 -4 -15 -9z
m22 -8 c-4 -3 -10 -3 -14 0 -3 4 0 7 7 7 7 0 10 -3 7 -7z"/>
<path d="M354 288 c-4 -7 -3 -8 4 -4 12 7 16 16 8 16 -3 0 -8 -5 -12 -12z"/>
<path d="M617 289 c7 -7 15 -10 18 -7 3 3 -2 9 -12 12 -14 6 -15 5 -6 -5z"/>
<path d="M777 289 c7 -7 15 -10 18 -7 3 3 -2 9 -12 12 -14 6 -15 5 -6 -5z"/>
<path d="M935 290 c3 -5 8 -10 11 -10 3 0 2 5 -1 10 -3 6 -8 10 -11 10 -3 0
-2 -4 1 -10z"/>
<path d="M70 285 c0 -3 2 -5 5 -5 3 0 5 2 5 5 0 3 -2 5 -5 5 -3 0 -5 -2 -5 -5z"/>
<path d="M390 285 c0 -3 2 -5 5 -5 3 0 5 2 5 5 0 3 -2 5 -5 5 -3 0 -5 -2 -5
-5z"/>
<path d="M454 278 c-4 -7 -3 -8 4 -4 12 7 16 16 8 16 -3 0 -8 -5 -12 -12z"/>
<path d="M740 285 c0 -3 2 -5 5 -5 3 0 5 2 5 5 0 3 -2 5 -5 5 -3 0 -5 -2 -5
-5z"/>
<path d="M830 285 c0 -3 2 -5 5 -5 3 0 5 2 5 5 0 3 -2 5 -5 5 -3 0 -5 -2 -5
-5z"/>
<path d="M910 285 c0 -3 2 -5 5 -5 3 0 5 2 5 5 0 3 -2 5 -5 5 -3 0 -5 -2 -5
-5z"/>
<path d="M600 275 c0 -3 2 -5 5 -5 3 0 5 2 5 5 0 3 -2 5 -5 5 -3 0 -5 -2 -5
-5z"/>
<path d="M760 275 c0 -3 2 -5 5 -5 3 0 5 2 5 5 0 3 -2 5 -5 5 -3 0 -5 -2 -5
-5z"/>
<path d="M10 250 c8 -5 20 -10 25 -10 6 0 3 5 -5 10 -8 5 -19 10 -25 10 -6 0
-3 -5 5 -10z"/>
<path d="M90 255 c0 -3 2 -5 5 -5 3 0 5 2 5 5 0 3 -2 5 -5 5 -3 0 -5 -2 -5 -5z"/>
<path d="M115 250 c-3 -6 1 -7 9 -4 18 7 21 14 7 14 -6 0 -13 -4 -16 -10z"/>
<path d="M177 249 c7 -7 15 -10 18 -7 3 3 -2 9 -12 12 -14 6 -15 5 -6 -5z"/>
<path d="M250 255 c0 -3 2 -5 5 -5 3 0 5 2 5 5 0 3 -2 5 -5 5 -3 0 -5 -2 -5
-5z"/>
<path d="M283 254 c3 -4 23 -8 43 -10 47 -3 36 7 -13 13 -20 2 -34 1 -30 -3z"/>
<path d="M410 255 c0 -3 2 -5 5 -5 3 0 5 2 5 5 0 3 -2 5 -5 5 -3 0 -5 -2 -5
-5z"/>
<path d="M443 253 c4 -3 10 -3 14 0 3 4 0 7 -7 7 -7 0 -10 -3 -7 -7z"/>
<path d="M476 252 c-2 -4 4 -8 14 -8 10 0 16 4 14 8 -3 4 -9 8 -14 8 -5 0 -11
-4 -14 -8z"/>
<path d="M563 253 c4 -3 10 -3 14 0 3 4 0 7 -7 7 -7 0 -10 -3 -7 -7z"/>
<path d="M600 256 c0 -2 7 -7 16 -10 8 -3 12 -2 9 4 -6 10 -25 14 -25 6z"/>
<path d="M640 256 c0 -2 7 -7 16 -10 8 -3 12 -2 9 4 -6 10 -25 14 -25 6z"/>
<path d="M730 255 c0 -3 2 -5 5 -5 3 0 5 2 5 5 0 3 -2 5 -5 5 -3 0 -5 -2 -5
-5z"/>
<path d="M756 252 c-2 -4 4 -8 14 -8 10 0 16 4 14 8 -3 4 -9 8 -14 8 -5 0 -11
-4 -14 -8z"/>
<path d="M810 250 c8 -5 20 -10 25 -10 6 0 3 5 -5 10 -8 5 -19 10 -25 10 -5 0
-3 -5 5 -10z"/>
<path d="M890 255 c0 -3 2 -5 5 -5 3 0 5 2 5 5 0 3 -2 5 -5 5 -3 0 -5 -2 -5
-5z"/>
<path d="M930 250 c20 -13 33 -13 25 0 -3 6 -14 10 -23 10 -15 0 -15 -2 -2
-10z"/>
<path d="M60 245 c0 -3 2 -5 5 -5 3 0 5 2 5 5 0 3 -2 5 -5 5 -3 0 -5 -2 -5 -5z"/>
<path d="M383 243 c4 -3 10 -3 14 0 3 4 0 7 -7 7 -7 0 -10 -3 -7 -7z"/>
<path d="M540 245 c0 -3 2 -5 5 -5 3 0 5 2 5 5 0 3 -2 5 -5 5 -3 0 -5 -2 -5
-5z"/>
<path d="M860 245 c0 -3 2 -5 5 -5 3 0 5 2 5 5 0 3 -2 5 -5 5 -3 0 -5 -2 -5
-5z"/>
<path d="M100 225 c0 -3 2 -5 5 -5 3 0 5 2 5 5 0 3 -2 5 -5 5 -3 0 -5 -2 -5
-5z"/>
<path d="M150 225 c0 -3 2 -5 5 -5 3 0 5 2 5 5 0 3 -2 5 -5 5 -3 0 -5 -2 -5
-5z"/>
<path d="M263 223 c4 -3 10 -3 14 0 3 4 0 7 -7 7 -7 0 -10 -3 -7 -7z"/>
<path d="M300 225 c0 -3 2 -5 5 -5 3 0 5 2 5 5 0 3 -2 5 -5 5 -3 0 -5 -2 -5
-5z"/>
<path d="M423 223 c4 -3 10 -3 14 0 3 4 0 7 -7 7 -7 0 -10 -3 -7 -7z"/>
<path d="M470 225 c0 -3 2 -5 5 -5 3 0 5 2 5 5 0 3 -2 5 -5 5 -3 0 -5 -2 -5
-5z"/>
<path d="M583 223 c4 -3 10 -3 14 0 3 4 0 7 -7 7 -7 0 -10 -3 -7 -7z"/>
<path d="M623 223 c4 -3 10 -3 14 0 3 4 0 7 -7 7 -7 0 -10 -3 -7 -7z"/>
<path d="M740 225 c0 -3 2 -5 5 -5 3 0 5 2 5 5 0 3 -2 5 -5 5 -3 0 -5 -2 -5
-5z"/>
<path d="M780 225 c0 -3 2 -5 5 -5 3 0 5 2 5 5 0 3 -2 5 -5 5 -3 0 -5 -2 -5
-5z"/>
<path d="M903 223 c4 -3 10 -3 14 0 3 4 0 7 -7 7 -7 0 -10 -3 -7 -7z"/>
<path d="M40 215 c0 -3 2 -5 5 -5 3 0 5 2 5 5 0 3 -2 5 -5 5 -3 0 -5 -2 -5 -5z"/>
<path d="M520 215 c0 -3 2 -5 5 -5 3 0 5 2 5 5 0 3 -2 5 -5 5 -3 0 -5 -2 -5
-5z"/>
<path d="M54 198 c-4 -7 -3 -8 4 -4 12 7 16 16 8 16 -3 0 -8 -5 -12 -12z"/>
<path d="M138 187 c12 -7 19 -17 15 -22 -4 -4 -2 -5 6 0 12 7 11 10 -4 22 -11
7 -24 13 -29 13 -6 -1 -1 -6 12 -13z"/>
<path d="M210 195 c0 -3 2 -5 5 -5 3 0 5 2 5 5 0 3 -2 5 -5 5 -3 0 -5 -2 -5
-5z"/>
<path d="M277 193 c-3 -5 6 -9 20 -10 19 -1 22 1 12 8 -17 11 -26 11 -32 2z"/>
<path d="M352 191 c-11 -7 -10 -9 3 -14 9 -4 14 -3 10 2 -3 5 1 12 7 14 7 3 9
6 3 6 -5 0 -16 -3 -23 -8z"/>
<path d="M435 190 c-3 -6 1 -7 9 -4 18 7 21 14 7 14 -6 0 -13 -4 -16 -10z"/>
<path d="M507 189 c-9 -5 -23 -7 -30 -3 -9 5 -9 4 -1 -5 9 -10 18 -10 40 3 16
8 25 15 19 15 -5 0 -18 -4 -28 -10z"/>
<path d="M594 188 c-4 -7 -3 -8 4 -4 6 4 22 2 34 -4 22 -11 22 -10 4 4 -24 19
-32 20 -42 4z"/>
<path d="M690 195 c0 -3 2 -5 5 -5 3 0 5 2 5 5 0 3 -2 5 -5 5 -3 0 -5 -2 -5
-5z"/>
<path d="M754 188 c-4 -6 -3 -8 4 -5 15 10 43 -3 35 -16 -4 -6 -1 -7 7 -2 10
6 9 11 -5 22 -23 16 -32 16 -41 1z"/>
<path d="M850 195 c0 -3 2 -5 5 -5 3 0 5 2 5 5 0 3 -2 5 -5 5 -3 0 -5 -2 -5
-5z"/>
<path d="M917 193 c-3 -5 6 -9 20 -10 19 -1 22 1 12 8 -17 11 -26 11 -32 2z"/>
<path d="M23 183 c4 -3 10 -3 14 0 3 4 0 7 -7 7 -7 0 -10 -3 -7 -7z"/>
<path d="M180 186 c0 -2 7 -7 16 -10 8 -3 12 -2 9 4 -6 10 -25 14 -25 6z"/>
<path d="M660 186 c0 -2 7 -7 16 -10 8 -3 12 -2 9 4 -6 10 -25 14 -25 6z"/>
<path d="M823 183 c4 -3 10 -3 14 0 3 4 0 7 -7 7 -7 0 -10 -3 -7 -7z"/>
<path d="M0 175 c0 -3 2 -5 5 -5 3 0 5 2 5 5 0 3 -2 5 -5 5 -3 0 -5 -2 -5 -5z"/>
<path d="M74 168 c-4 -7 -3 -8 4 -4 7 4 12 9 12 12 0 8 -9 4 -16 -8z"/>
<path d="M230 170 c-8 -5 -10 -10 -5 -10 6 0 17 5 25 10 8 5 11 10 5 10 -5 0
-17 -5 -25 -10z"/>
<path d="M390 170 c-9 -6 -10 -10 -3 -10 6 0 15 5 18 10 8 12 4 12 -15 0z"/>
<path d="M550 170 c-8 -5 -10 -10 -5 -10 6 0 17 5 25 10 8 5 11 10 5 10 -5 0
-17 -5 -25 -10z"/>
<path d="M710 170 c-9 -6 -10 -10 -3 -10 6 0 15 5 18 10 8 12 4 12 -15 0z"/>
<path d="M870 170 c-8 -5 -10 -10 -5 -10 6 0 17 5 25 10 8 5 11 10 5 10 -5 0
-17 -5 -25 -10z"/>
<path d="M310 165 c0 -3 2 -5 5 -5 3 0 5 2 5 5 0 3 -2 5 -5 5 -3 0 -5 -2 -5
-5z"/>
<path d="M430 165 c0 -3 2 -5 5 -5 3 0 5 2 5 5 0 3 -2 5 -5 5 -3 0 -5 -2 -5
-5z"/>
<path d="M590 165 c0 -3 2 -5 5 -5 3 0 5 2 5 5 0 3 -2 5 -5 5 -3 0 -5 -2 -5
-5z"/>
<path d="M910 165 c0 -3 2 -5 5 -5 3 0 5 2 5 5 0 3 -2 5 -5 5 -3 0 -5 -2 -5
-5z"/>
<path d="M950 165 c0 -3 2 -5 5 -5 3 0 5 2 5 5 0 3 -2 5 -5 5 -3 0 -5 -2 -5
-5z"/>
<path d="M16 142 c-2 -4 4 -8 14 -8 10 0 16 4 14 8 -3 4 -9 8 -14 8 -5 0 -11
-4 -14 -8z"/>
<path d="M274 142 c3 -6 0 -12 -6 -15 -7 -2 -1 -4 14 -3 34 1 34 2 7 17 -13 6
-19 7 -15 1z"/>
<path d="M335 140 c-3 -6 1 -7 9 -4 18 7 21 14 7 14 -6 0 -13 -4 -16 -10z"/>
<path d="M495 141 c-3 -5 -2 -12 3 -15 5 -3 9 1 9 9 0 17 -3 19 -12 6z"/>
<path d="M595 139 c6 -9 3 -10 -11 -5 -10 4 -15 3 -10 -1 7 -7 56 -13 56 -6 0
1 -10 7 -21 14 -17 9 -20 8 -14 -2z"/>
<path d="M663 143 c4 -3 10 -3 14 0 3 4 0 7 -7 7 -7 0 -10 -3 -7 -7z"/>
<path d="M694 138 c-4 -7 -3 -8 4 -4 7 4 12 9 12 12 0 8 -9 4 -16 -8z"/>
<path d="M915 139 c6 -9 3 -11 -8 -6 -24 9 -21 0 4 -14 17 -9 20 -8 14 2 -6 9
-3 11 8 6 24 -9 21 0 -4 14 -17 9 -20 8 -14 -2z"/>
<path d="M90 135 c0 -3 2 -5 5 -5 3 0 5 2 5 5 0 3 -2 5 -5 5 -3 0 -5 -2 -5 -5z"/>
<path d="M137 129 c7 -7 15 -10 18 -7 3 3 -2 9 -12 12 -14 6 -15 5 -6 -5z"/>
<path d="M200 135 c0 -3 2 -5 5 -5 3 0 5 2 5 5 0 3 -2 5 -5 5 -3 0 -5 -2 -5
-5z"/>
<path d="M430 129 c-12 -8 -10 -9 9 -4 16 5 21 4 17 -4 -5 -7 -1 -8 9 -4 13 5
14 7 3 14 -17 11 -20 11 -38 -2z"/>
<path d="M523 133 c4 -3 10 -3 14 0 3 4 0 7 -7 7 -7 0 -10 -3 -7 -7z"/>
<path d="M777 129 c7 -7 15 -10 18 -7 3 3 -2 9 -12 12 -14 6 -15 5 -6 -5z"/>
<path d="M840 135 c0 -3 2 -5 5 -5 3 0 5 2 5 5 0 3 -2 5 -5 5 -3 0 -5 -2 -5
-5z"/>
<path d="M70 125 c0 -3 2 -5 5 -5 3 0 5 2 5 5 0 3 -2 5 -5 5 -3 0 -5 -2 -5 -5z"/>
<path d="M115 120 c3 -5 8 -10 11 -10 3 0 2 5 -1 10 -3 6 -8 10 -11 10 -3 0
-2 -4 1 -10z"/>
<path d="M350 125 c0 -3 2 -5 5 -5 3 0 5 2 5 5 0 3 -2 5 -5 5 -3 0 -5 -2 -5
-5z"/>
<path d="M390 125 c0 -3 2 -5 5 -5 3 0 5 2 5 5 0 3 -2 5 -5 5 -3 0 -5 -2 -5
-5z"/>
<path d="M550 125 c0 -3 2 -5 5 -5 3 0 5 2 5 5 0 3 -2 5 -5 5 -3 0 -5 -2 -5
-5z"/>
<path d="M710 125 c0 -3 2 -5 5 -5 3 0 5 2 5 5 0 3 -2 5 -5 5 -3 0 -5 -2 -5
-5z"/>
<path d="M735 120 c-3 -6 1 -7 9 -4 18 7 21 14 7 14 -6 0 -13 -4 -16 -10z"/>
<path d="M870 125 c0 -3 2 -5 5 -5 3 0 5 2 5 5 0 3 -2 5 -5 5 -3 0 -5 -2 -5
-5z"/>
<path d="M90 115 c0 -3 2 -5 5 -5 3 0 5 2 5 5 0 3 -2 5 -5 5 -3 0 -5 -2 -5 -5z"/>
<path d="M0 96 c0 -2 7 -7 16 -10 8 -3 12 -2 9 4 -6 10 -25 14 -25 6z"/>
<path d="M90 95 c0 -3 2 -5 5 -5 3 0 5 2 5 5 0 3 -2 5 -5 5 -3 0 -5 -2 -5 -5z"/>
<path d="M115 90 c-3 -6 1 -7 9 -4 18 7 21 14 7 14 -6 0 -13 -4 -16 -10z"/>
<path d="M170 90 c8 -5 20 -10 25 -10 6 0 3 5 -5 10 -8 5 -19 10 -25 10 -5 0
-3 -5 5 -10z"/>
<path d="M250 95 c0 -3 2 -5 5 -5 3 0 5 2 5 5 0 3 -2 5 -5 5 -3 0 -5 -2 -5 -5z"/>
<path d="M276 91 c-6 -8 51 -8 59 1 3 3 -8 5 -25 6 -16 0 -32 -3 -34 -7z"/>
<path d="M410 95 c0 -3 2 -5 5 -5 3 0 5 2 5 5 0 3 -2 5 -5 5 -3 0 -5 -2 -5 -5z"/>
<path d="M436 92 c-2 -4 4 -8 14 -8 10 0 16 4 14 8 -3 4 -9 8 -14 8 -5 0 -11
-4 -14 -8z"/>
<path d="M490 96 c0 -3 9 -10 20 -16 11 -6 20 -8 20 -6 0 3 -9 10 -20 16 -11
6 -20 8 -20 6z"/>
<path d="M570 95 c0 -3 2 -5 5 -5 3 0 5 2 5 5 0 3 -2 5 -5 5 -3 0 -5 -2 -5 -5z"/>
<path d="M596 92 c-2 -4 4 -8 14 -8 10 0 16 4 14 8 -3 4 -9 8 -14 8 -5 0 -11
-4 -14 -8z"/>
<path d="M650 90 c8 -5 20 -10 25 -10 6 0 3 5 -5 10 -8 5 -19 10 -25 10 -5 0
-3 -5 5 -10z"/>
<path d="M730 95 c0 -3 2 -5 5 -5 3 0 5 2 5 5 0 3 -2 5 -5 5 -3 0 -5 -2 -5 -5z"/>
<path d="M755 90 c-3 -6 1 -7 9 -4 18 7 21 14 7 14 -6 0 -13 -4 -16 -10z"/>
<path d="M810 90 c8 -5 20 -10 25 -10 6 0 3 5 -5 10 -8 5 -19 10 -25 10 -5 0
-3 -5 5 -10z"/>
<path d="M890 95 c0 -3 2 -5 5 -5 3 0 5 2 5 5 0 3 -2 5 -5 5 -3 0 -5 -2 -5 -5z"/>
<path d="M930 90 c20 -13 33 -13 25 0 -3 6 -14 10 -23 10 -15 0 -15 -2 -2 -10z"/>
<path d="M60 85 c0 -3 2 -5 5 -5 3 0 5 2 5 5 0 3 -2 5 -5 5 -3 0 -5 -2 -5 -5z"/>
<path d="M223 83 c4 -3 10 -3 14 0 3 4 0 7 -7 7 -7 0 -10 -3 -7 -7z"/>
<path d="M350 85 c0 -3 2 -5 5 -5 3 0 5 2 5 5 0 3 -2 5 -5 5 -3 0 -5 -2 -5 -5z"/>
<path d="M390 85 c0 -3 2 -5 5 -5 3 0 5 2 5 5 0 3 -2 5 -5 5 -3 0 -5 -2 -5 -5z"/>
<path d="M550 85 c0 -3 2 -5 5 -5 3 0 5 2 5 5 0 3 -2 5 -5 5 -3 0 -5 -2 -5 -5z"/>
<path d="M710 85 c0 -3 2 -5 5 -5 3 0 5 2 5 5 0 3 -2 5 -5 5 -3 0 -5 -2 -5 -5z"/>
<path d="M860 85 c0 -3 2 -5 5 -5 3 0 5 2 5 5 0 3 -2 5 -5 5 -3 0 -5 -2 -5 -5z"/>
<path d="M90 60 c-8 -5 -10 -10 -5 -10 6 0 17 5 25 10 8 5 11 10 5 10 -5 0
-17 -5 -25 -10z"/>
<path d="M150 65 c0 -3 2 -5 5 -5 3 0 5 2 5 5 0 3 -2 5 -5 5 -3 0 -5 -2 -5 -5z"/>
<path d="M263 63 c4 -3 10 -3 14 0 3 4 0 7 -7 7 -7 0 -10 -3 -7 -7z"/>
<path d="M300 65 c0 -3 2 -5 5 -5 3 0 5 2 5 5 0 3 -2 5 -5 5 -3 0 -5 -2 -5 -5z"/>
<path d="M423 63 c4 -3 10 -3 14 0 3 4 0 7 -7 7 -7 0 -10 -3 -7 -7z"/>
<path d="M470 65 c0 -3 2 -5 5 -5 3 0 5 2 5 5 0 3 -2 5 -5 5 -3 0 -5 -2 -5 -5z"/>
<path d="M583 63 c4 -3 10 -3 14 0 3 4 0 7 -7 7 -7 0 -10 -3 -7 -7z"/>
<path d="M623 63 c4 -3 10 -3 14 0 3 4 0 7 -7 7 -7 0 -10 -3 -7 -7z"/>
<path d="M743 63 c4 -3 10 -3 14 0 3 4 0 7 -7 7 -7 0 -10 -3 -7 -7z"/>
<path d="M783 63 c4 -3 10 -3 14 0 3 4 0 7 -7 7 -7 0 -10 -3 -7 -7z"/>
<path d="M903 63 c4 -3 10 -3 14 0 3 4 0 7 -7 7 -7 0 -10 -3 -7 -7z"/>
<path d="M940 65 c0 -3 2 -5 5 -5 3 0 5 2 5 5 0 3 -2 5 -5 5 -3 0 -5 -2 -5 -5z"/>
<path d="M3 53 c4 -3 10 -3 14 0 3 4 0 7 -7 7 -7 0 -10 -3 -7 -7z"/>
<path d="M43 53 c4 -3 10 -3 14 0 3 4 0 7 -7 7 -7 0 -10 -3 -7 -7z"/>
<path d="M195 50 c-3 -5 -3 -10 2 -10 4 0 0 -5 -9 -11 -12 -7 -24 -6 -39 2
-16 8 -24 8 -33 -2 -8 -9 -8 -10 1 -5 7 4 22 2 33 -4 15 -8 27 -7 47 4 16 8
22 15 15 16 -7 0 -10 5 -7 10 3 6 4 10 1 10 -3 0 -8 -4 -11 -10z"/>
<path d="M240 55 c0 -3 2 -5 5 -5 3 0 5 2 5 5 0 3 -2 5 -5 5 -3 0 -5 -2 -5 -5z"/>
<path d="M330 55 c0 -3 2 -5 5 -5 3 0 5 2 5 5 0 3 -2 5 -5 5 -3 0 -5 -2 -5 -5z"/>
<path d="M400 55 c0 -3 2 -5 5 -5 3 0 5 2 5 5 0 3 -2 5 -5 5 -3 0 -5 -2 -5 -5z"/>
<path d="M520 55 c0 -3 2 -5 5 -5 3 0 5 2 5 5 0 3 -2 5 -5 5 -3 0 -5 -2 -5 -5z"/>
<path d="M650 55 c0 -3 2 -5 5 -5 3 0 5 2 5 5 0 3 -2 5 -5 5 -3 0 -5 -2 -5 -5z"/>
<path d="M683 53 c4 -3 10 -3 14 0 3 4 0 7 -7 7 -7 0 -10 -3 -7 -7z"/>
<path d="M720 55 c0 -3 2 -5 5 -5 3 0 5 2 5 5 0 3 -2 5 -5 5 -3 0 -5 -2 -5 -5z"/>
<path d="M810 55 c0 -3 2 -5 5 -5 3 0 5 2 5 5 0 3 -2 5 -5 5 -3 0 -5 -2 -5 -5z"/>
<path d="M843 53 c4 -3 10 -3 14 0 3 4 0 7 -7 7 -7 0 -10 -3 -7 -7z"/>
<path d="M364 34 c-18 -14 -18 -15 4 -4 12 6 22 13 22 15 0 8 -5 6 -26 -11z"/>
<path d="M534 38 c-4 -7 -3 -8 4 -4 12 7 16 16 8 16 -3 0 -8 -5 -12 -12z"/>
<path d="M43 33 c4 -3 10 -3 14 0 3 4 0 7 -7 7 -7 0 -10 -3 -7 -7z"/>
<path d="M290 35 c0 -3 2 -5 5 -5 3 0 5 2 5 5 0 3 -2 5 -5 5 -3 0 -5 -2 -5 -5z"/>
<path d="M434 29 c-4 -8 -3 -10 4 -5 6 4 21 2 32 -4 13 -7 26 -8 37 -1 14 8
13 9 -7 8 -14 0 -32 3 -41 7 -10 4 -20 2 -25 -5z"/>
<path d="M603 33 c4 -3 10 -3 14 0 3 4 0 7 -7 7 -7 0 -10 -3 -7 -7z"/>
<path d="M690 35 c0 -3 2 -5 5 -5 3 0 5 2 5 5 0 3 -2 5 -5 5 -3 0 -5 -2 -5 -5z"/>
<path d="M755 31 c-4 -7 0 -8 11 -4 12 4 15 3 10 -5 -5 -8 -1 -10 10 -5 10 4
15 2 11 -3 -3 -5 2 -10 12 -10 22 0 24 21 2 22 -9 1 -23 4 -32 8 -10 4 -20 3
-24 -3z"/>
<path d="M850 35 c0 -3 2 -5 5 -5 3 0 5 2 5 5 0 3 -2 5 -5 5 -3 0 -5 -2 -5 -5z"/>
<path d="M923 33 c4 -3 10 -3 14 0 3 4 0 7 -7 7 -7 0 -10 -3 -7 -7z"/>
<path d="M10 20 c-9 -6 -10 -10 -3 -10 6 0 15 5 18 10 8 12 4 12 -15 0z"/>
<path d="M640 16 c7 -7 13 -7 20 0 6 6 3 10 -10 10 -13 0 -16 -4 -10 -10z"/>
<path d="M70 10 c-9 -6 -10 -10 -3 -10 6 0 15 5 18 10 8 12 4 12 -15 0z"/>
<path d="M300 6 c7 -7 13 -7 20 0 6 6 3 10 -10 10 -13 0 -16 -4 -10 -10z"/>
<path d="M390 10 c-9 -6 -10 -10 -3 -10 6 0 15 5 18 10 8 12 4 12 -15 0z"/>
<path d="M550 10 c-9 -6 -10 -10 -3 -10 6 0 15 5 18 10 8 12 4 12 -15 0z"/>
<path d="M710 10 c-9 -6 -10 -10 -3 -10 6 0 15 5 18 10 8 12 4 12 -15 0z"/>
<path d="M937 9 c7 -7 15 -10 18 -7 3 3 -2 9 -12 12 -14 6 -15 5 -6 -5z"/>
<path d="M110 5 c0 -3 2 -5 5 -5 3 0 5 2 5 5 0 3 -2 5 -5 5 -3 0 -5 -2 -5 -5z"/>
<path d="M140 5 c0 -3 2 -5 5 -5 3 0 5 2 5 5 0 3 -2 5 -5 5 -3 0 -5 -2 -5 -5z"/>
<path d="M230 5 c0 -3 2 -5 5 -5 3 0 5 2 5 5 0 3 -2 5 -5 5 -3 0 -5 -2 -5 -5z"/>
<path d="M270 5 c0 -3 2 -5 5 -5 3 0 5 2 5 5 0 3 -2 5 -5 5 -3 0 -5 -2 -5 -5z"/>
<path d="M590 5 c0 -3 2 -5 5 -5 3 0 5 2 5 5 0 3 -2 5 -5 5 -3 0 -5 -2 -5 -5z"/>
<path d="M863 3 c4 -3 10 -3 14 0 3 4 0 7 -7 7 -7 0 -10 -3 -7 -7z"/>
<path d="M910 5 c0 -3 2 -5 5 -5 3 0 5 2 5 5 0 3 -2 5 -5 5 -3 0 -5 -2 -5 -5z"/>
</g>
  </g>
</svg>
