<?xml version="1.0" encoding="UTF-8" standalone="no"?>
<!-- Created with Inkscape (http://www.inkscape.org/) -->

<svg
   xmlns:dc="http://purl.org/dc/elements/1.1/"
   xmlns:cc="http://creativecommons.org/ns#"
   xmlns:rdf="http://www.w3.org/1999/02/22-rdf-syntax-ns#"
   xmlns:svg="http://www.w3.org/2000/svg"
   xmlns="http://www.w3.org/2000/svg"
   xmlns:sodipodi="http://sodipodi.sourceforge.net/DTD/sodipodi-0.dtd"
   xmlns:inkscape="http://www.inkscape.org/namespaces/inkscape"
   width="16"
   height="16"
   viewBox="0 0 4.2333333 4.2333335"
   version="1.1"
   id="svg8"
   inkscape:version="0.92.4 (5da689c313, 2019-01-14)"
   sodipodi:docname="kebab.svg">
  <defs
     id="defs2" />
  <sodipodi:namedview
     id="base"
     pagecolor="#ffffff"
     bordercolor="#666666"
     borderopacity="1.0"
     inkscape:pageopacity="0.0"
     inkscape:pageshadow="2"
     inkscape:zoom="22.627417"
     inkscape:cx="7.3665964"
     inkscape:cy="7.512689"
     inkscape:document-units="px"
     inkscape:current-layer="layer1"
     showgrid="true"
     units="px"
     inkscape:window-width="838"
     inkscape:window-height="978"
     inkscape:window-x="-7"
     inkscape:window-y="0"
     inkscape:window-maximized="0"
     inkscape:snap-bbox="false"
     inkscape:snap-nodes="true"
     inkscape:snap-bbox-midpoints="true"
     inkscape:snap-global="true"
     inkscape:snap-text-baseline="true"
     showguides="false">
    <inkscape:grid
       type="xygrid"
       id="grid4485"
       empspacing="4"
       color="#8484ba"
       opacity="0.1254902" />
  </sodipodi:namedview>
  <metadata
     id="metadata5">
    <rdf:RDF>
      <cc:Work
         rdf:about="">
        <dc:format>image/svg+xml</dc:format>
        <dc:type
           rdf:resource="http://purl.org/dc/dcmitype/StillImage" />
        <dc:title></dc:title>
        <cc:license
           rdf:resource="http://creativecommons.org/licenses/by-sa/4.0/" />
      </cc:Work>
      <cc:License
         rdf:about="http://creativecommons.org/licenses/by-sa/4.0/">
        <cc:permits
           rdf:resource="http://creativecommons.org/ns#Reproduction" />
        <cc:permits
           rdf:resource="http://creativecommons.org/ns#Distribution" />
        <cc:requires
           rdf:resource="http://creativecommons.org/ns#Notice" />
        <cc:requires
           rdf:resource="http://creativecommons.org/ns#Attribution" />
        <cc:permits
           rdf:resource="http://creativecommons.org/ns#DerivativeWorks" />
        <cc:requires
           rdf:resource="http://creativecommons.org/ns#ShareAlike" />
      </cc:License>
    </rdf:RDF>
  </metadata>
  <g
     inkscape:groupmode="layer"
     id="layer4"
     inkscape:label="Ref"
     style="display:inline" />
  <g
     inkscape:label="BG"
     inkscape:groupmode="layer"
     id="layer1"
     transform="translate(0,-292.76665)"
     style="display:inline">
    <path
       inkscape:connector-curvature="0"
       id="path1537"
       d="m 0,292.76666 v 4.23332 l 4.2333334,-10e-6 v -4.23332 z"
       style="display:inline;opacity:1;fill:#1f1f1f;fill-opacity:1;stroke:none;stroke-width:0.5291667;stroke-linecap:round;stroke-linejoin:bevel;stroke-miterlimit:4;stroke-dasharray:none;stroke-opacity:1"
       sodipodi:nodetypes="ccccc" />
    <circle
       r="1.3229167"
       cy="294.8833"
       cx="2.1166656"
       id="circle1019"
       style="display:inline;opacity:1;fill:#ff0000;fill-opacity:1;stroke:#000000;stroke-width:0.13229167;stroke-linecap:butt;stroke-linejoin:miter;stroke-miterlimit:4;stroke-dasharray:none;stroke-opacity:1" />
  </g>
  <g
     inkscape:groupmode="layer"
     id="layer2"
     inkscape:label="Main"
     style="display:inline" />
  <g
     inkscape:groupmode="layer"
     id="layer3"
     inkscape:label="FG"
     style="display:inline">
    <path
       style="display:inline;opacity:1;fill:#7f7f7f;fill-opacity:1;stroke:none;stroke-width:0.5291667;stroke-linecap:round;stroke-linejoin:bevel;stroke-miterlimit:4;stroke-dasharray:none;stroke-opacity:1"
       d="m 0,4e-7 v 4.233333 h 4.233334 c -6e-7,0 0,-4.233333 0,-4.233333 z m 0.79375,0.264583 h 2.645834 c 0.293157,0 0.529167,0.236009 0.529167,0.529167 v 2.645833 c 0,0.293158 -0.23601,0.529167 -0.529167,0.529167 H 0.79375 c -0.293157,0 -0.529166,-0.236009 -0.529166,-0.529167 v -2.645833 c 0,-0.293158 0.236009,-0.529167 0.529166,-0.529167 z M 0,50.800001 V 67.733334 H 16.933334 33.866667 50.800001 V 50.800001 H 33.866667 16.933334 Z m 0.79375,0.264583 h 15.345834 c 0.293158,0 0.529166,0.236008 0.529166,0.529167 v 15.345833 c 0,0.293159 -0.236008,0.529167 -0.529166,0.529167 H 0.79375 c -0.293157,0 -0.529166,-0.236008 -0.529166,-0.529167 V 51.593751 c 0,-0.293159 0.236009,-0.529167 0.529166,-0.529167 z m 16.933334,0 h 15.345833 c 0.293159,0 0.529167,0.236008 0.529167,0.529167 v 15.345833 c 0,0.293159 -0.236008,0.529167 -0.529167,0.529167 H 17.727084 c -0.293158,0 -0.529167,-0.236008 -0.529167,-0.529167 V 51.593751 c 0,-0.293159 0.236009,-0.529167 0.529167,-0.529167 z m 16.933333,0 h 15.345834 c 0.293155,0 0.529166,0.236008 0.529166,0.529167 v 15.345833 c 0,0.293159 -0.236011,0.529167 -0.529166,0.529167 H 34.660417 c -0.293158,0 -0.529166,-0.236008 -0.529166,-0.529167 V 51.593751 c 0,-0.293159 0.236008,-0.529167 0.529166,-0.529167 z"
       id="path1553-8"
       inkscape:connector-curvature="0"
       sodipodi:nodetypes="cccccssssssssscccccccccsssssssssssssssssssssssssss" />
  </g>
</svg>
