<?xml version="1.0" encoding="UTF-8" standalone="no"?>
<!-- Created with Inkscape (http://www.inkscape.org/) -->

<svg
   width="16"
   height="16"
   viewBox="0 0 4.2333332 4.2333335"
   version="1.1"
   id="svg872"
   inkscape:version="1.1 (c68e22c387, 2021-05-23)"
   sodipodi:docname="lapis_lazuli.svg"
   xmlns:inkscape="http://www.inkscape.org/namespaces/inkscape"
   xmlns:sodipodi="http://sodipodi.sourceforge.net/DTD/sodipodi-0.dtd"
   xmlns:xlink="http://www.w3.org/1999/xlink"
   xmlns="http://www.w3.org/2000/svg"
   xmlns:svg="http://www.w3.org/2000/svg"
   xmlns:rdf="http://www.w3.org/1999/02/22-rdf-syntax-ns#"
   xmlns:cc="http://creativecommons.org/ns#"
   xmlns:dc="http://purl.org/dc/elements/1.1/">
  <defs
     id="defs866">
    <inkscape:perspective
       sodipodi:type="inkscape:persp3d"
       inkscape:vp_x="-8.4902899 : 11.286018 : 1"
       inkscape:vp_y="0 : 1153.4315 : 0"
       inkscape:vp_z="17.968042 : 7.0135159 : 1"
       inkscape:persp3d-origin="-1.3112623 : 2.9241206 : 1"
       id="perspective875" />
    <linearGradient
       inkscape:collect="always"
       id="linearGradient879">
      <stop
         style="stop-color:#a4a4a4;stop-opacity:1;"
         offset="0"
         id="stop875" />
      <stop
         id="stop885"
         offset="0.25"
         style="stop-color:#c8c8c8;stop-opacity:1" />
      <stop
         id="stop883"
         offset="0.5"
         style="stop-color:#a4a4a4;stop-opacity:1" />
      <stop
         style="stop-color:#6f6f6f;stop-opacity:1"
         offset="1"
         id="stop877" />
    </linearGradient>
    <linearGradient
       inkscape:collect="always"
       xlink:href="#linearGradient879"
       id="linearGradient881"
       x1="0.99218756"
       y1="2.5142145"
       x2="3.2411458"
       y2="2.5142145"
       gradientUnits="userSpaceOnUse" />
    <filter
       style="color-interpolation-filters:sRGB"
       inkscape:label="Colorize"
       id="filter1186">
      <feColorMatrix
         values="1.5 0 0 0.485285 -0.3905 0 1.5 0 0.485285 -0.3905 0 0 1.5 0.485285 -0.3905 0 0 0 1 0 "
         id="feColorMatrix1184"
         result="fbSourceGraphic" />
      <feColorMatrix
         result="fbSourceGraphicAlpha"
         in="fbSourceGraphic"
         values="0 0 0 -1 0 0 0 0 -1 0 0 0 0 -1 0 0 0 0 1 0"
         id="feColorMatrix1188" />
      <feComposite
         in2="fbSourceGraphic"
         id="feComposite1190"
         operator="arithmetic"
         k1="0"
         k2="1"
         result="composite1"
         in="fbSourceGraphic"
         k3="0"
         k4="0" />
      <feColorMatrix
         id="feColorMatrix1192"
         in="composite1"
         values="1"
         type="saturate"
         result="colormatrix1" />
      <feFlood
         id="feFlood1194"
         flood-opacity="1"
         flood-color="rgb(249,255,85)"
         result="flood1" />
      <feBlend
         in2="colormatrix1"
         id="feBlend1196"
         in="flood1"
         mode="multiply"
         result="blend1" />
      <feBlend
         in2="blend1"
         id="feBlend1198"
         mode="screen"
         result="blend2" />
      <feColorMatrix
         id="feColorMatrix1200"
         in="blend2"
         values="1"
         type="saturate"
         result="colormatrix2" />
      <feComposite
         in2="fbSourceGraphic"
         id="feComposite1202"
         in="colormatrix2"
         operator="in"
         result="composite2" />
    </filter>
    <filter
       style="color-interpolation-filters:sRGB"
       inkscape:label="Greyscale"
       id="filter1895">
      <feColorMatrix
         values="0.2 0.4 0.3 -0.02 0 0.2 0.4 0.3 -0.02 0 0.2 0.4 0.3 -0.02 0 0 0 0 1 0 "
         id="feColorMatrix1893" />
    </filter>
  </defs>
  <sodipodi:namedview
     id="base"
     pagecolor="#ffffff"
     bordercolor="#666666"
     borderopacity="1.0"
     inkscape:pageopacity="0.0"
     inkscape:pageshadow="2"
     inkscape:zoom="3.959798"
     inkscape:cx="12.753176"
     inkscape:cy="-3.6618029"
     inkscape:document-units="px"
     inkscape:current-layer="layer2"
     showgrid="true"
     units="px"
     inkscape:snap-bbox="false"
     inkscape:snap-nodes="true"
     inkscape:bbox-nodes="true"
     inkscape:window-width="1680"
     inkscape:window-height="987"
     inkscape:window-x="-8"
     inkscape:window-y="-8"
     inkscape:window-maximized="1"
     inkscape:snap-global="true"
     inkscape:snap-smooth-nodes="true"
     inkscape:pagecheckerboard="0">
    <inkscape:grid
       type="xygrid"
       id="grid1417"
       empspacing="4" />
  </sodipodi:namedview>
  <metadata
     id="metadata869">
    <rdf:RDF>
      <cc:Work
         rdf:about="">
        <dc:format>image/svg+xml</dc:format>
        <dc:type
           rdf:resource="http://purl.org/dc/dcmitype/StillImage" />
        <dc:title />
      </cc:Work>
    </rdf:RDF>
  </metadata>
  <g
     inkscape:label="ref"
     inkscape:groupmode="layer"
     id="layer1"
     transform="translate(0,-292.76665)"
     style="display:none">
    <path
       inkscape:connector-curvature="0"
       id="path1318"
       d="m -21.166667,289.03333 v -0.5 h 0.5 0.5 0.5 0.5 0.5 0.5 0.5 0.5 0.5 0.5 0.5 0.5 0.5 0.5 0.5 0.5 0.5 0.5 0.5 0.5 0.5 0.5 0.5 0.5 0.5 0.5 0.5 0.5 0.5 0.5 0.5 0.5 v 0.5 0.5 0.5 0.5 0.5 0.5 0.5 0.5 0.5 0.5 0.5 0.5 0.5 0.5 0.5 0.5 0.5 0.5 0.5 0.5 0.5 0.5 0.5 0.5 0.5 0.5 0.5 0.5 0.5 0.5 0.5 0.5 0.5 0.5 0.5 0.5 0.5 0.5 0.5 0.5 0.5 0.5 0.5 0.5 0.5 0.5 0.5 0.5 0.5 0.5 0.5 0.5 0.5 0.5 0.5 0.5 0.5 0.5 0.5 0.5 0.5 0.5 0.5 0.5 h -0.5 -0.5 -0.5 -0.5 -0.5 -0.5 -0.5 -0.5 -0.5 -0.5 -0.5 -0.5 -0.5 -0.5 -0.5 -0.5 -0.5 -0.5 -0.5 -0.5 -0.5 -0.5 -0.5 -0.5 -0.5 -0.5 -0.5 -0.5 -0.5 -0.5 -0.5 -0.5 v -0.5 -0.5 -0.5 -0.5 -0.5 -0.5 -0.5 -0.5 -0.5 -0.5 -0.5 -0.5 -0.5 -0.5 -0.5 -0.5 -0.5 -0.5 -0.5 -0.5 -0.5 -0.5 -0.5 -0.5 -0.5 -0.5 -0.5 -0.5 -0.5 -0.5 -0.5 -0.5 -0.5 -0.5 -0.5 -0.5 -0.5 -0.5 -0.5 -0.5 -0.5 -0.5 -0.5 -0.5 -0.5 -0.5 -0.5 -0.5 -0.5 -0.5 -0.5 -0.5 -0.5 -0.5 -0.5 -0.5 -0.5 -0.5 -0.5 -0.5 -0.5 -0.5 -0.5 m 7.5,30.5 q 0.5,0 0.875,-0.125 0.375,-0.125 0.625,-0.375 0.25,-0.25 0.625,-0.375 0.375,-0.125 0.875,-0.125 0.5,0 1,0 0.5,0 0.875,-0.125 0.375,-0.125 0.625,-0.375 0.25,-0.25 0.5,-0.5 0.25,-0.25 0.5,-0.5 0.25,-0.25 0.5,-0.5 0.25,-0.25 0.375,-0.625 0.125,-0.375 0.125,-0.875 0,-0.5 -0.125,-0.875 -0.125,-0.375 -0.375,-0.625 -0.25,-0.25 -0.375,-0.625 -0.125,-0.375 -0.25,-0.75 -0.125,-0.375 -0.5,-0.5 l -0.375,-0.125 -0.125,-0.375 q -0.125,-0.375 -0.375,-0.625 -0.25,-0.25 -0.5,-0.5 -0.25,-0.25 -0.5,-0.5 -0.25,-0.25 -0.5,-0.5 -0.25,-0.25 -0.5,-0.5 -0.25,-0.25 -0.5,-0.5 -0.25,-0.25 -0.5,-0.5 -0.25,-0.25 -0.5,-0.5 -0.25,-0.25 -0.625,-0.375 -0.375,-0.125 -0.875,-0.125 -0.5,0 -1,0 -0.5,0 -0.875,0.125 -0.375,0.125 -0.625,0.375 -0.25,0.25 -0.5,0.5 -0.25,0.25 -0.5,0.5 -0.25,0.25 -0.5,0.5 -0.25,0.25 -0.375,0.625 -0.125,0.375 -0.125,0.875 0,0.5 -0.125,0.875 -0.125,0.375 -0.375,0.625 -0.25,0.25 -0.375,0.625 -0.125,0.375 -0.125,0.875 0,0.5 0,1 0,0.5 0,1 0,0.5 0.125,0.875 0.125,0.375 0.5,0.5 l 0.375,0.125 0.125,0.375 q 0.125,0.375 0.375,0.625 0.25,0.25 0.5,0.5 0.25,0.25 0.5,0.5 0.25,0.25 0.5,0.5 0.25,0.25 0.625,0.375 0.375,0.125 0.875,0.125 0.5,0 1,0 m 1,-16 q 0.5,0 0.5,-0.5 v -0.5 h 0.5 q 0.5,0 1,0 0.5,0 1,0 0.5,0 1,0 0.5,0 0.5,-0.5 v -0.5 h 0.5 q 0.5,0 0.5,-0.5 v -0.5 h 0.5 q 0.5,0 0.5,-0.5 0,-0.5 0,-1 0,-0.5 0,-1 0,-0.5 -0.5,-0.5 h -0.5 v -0.5 q 0,-0.5 0,-1 0,-0.5 -0.375,-0.625 -0.375,-0.125 -0.5,-0.5 -0.125,-0.375 -0.625,-0.375 h -0.5 v -0.5 q 0,-0.5 -0.5,-0.5 h -0.5 v -0.5 q 0,-0.5 -0.5,-0.5 h -0.5 v -0.5 q 0,-0.5 -0.5,-0.5 h -0.5 v -0.5 q 0,-0.5 -0.5,-0.5 -0.5,0 -1,0 -0.5,0 -1,0 -0.5,0 -1,0 -0.5,0 -0.5,0.5 v 0.5 h -0.5 q -0.5,0 -0.5,0.5 v 0.5 h -0.5 q -0.5,0 -0.5,0.5 0,0.5 0,1 0,0.5 0,1 v 0.5 h -0.5 q -0.5,0 -0.5,0.5 0,0.5 0,1 0,0.5 0,1 0,0.5 0,1 0,0.5 0,1 0,0.5 0.5,0.5 h 0.5 v 0.5 q 0,0.5 0.5,0.5 h 0.5 v 0.5 q 0,0.5 0.5,0.5 h 0.5 v 0.5 q 0,0.5 0.5,0.5 0.5,0 1,0 0.5,0 1,0 0.5,0 1,0 m -5.40625,13.03125 -0.09375,-0.0312 -0.28125,-0.0937 -0.28125,-0.0937 0.1875,0.0625 q 0.1875,0.0625 0.375,0.125 l 0.1875,0.0625 -0.09375,-0.0312"
       style="fill:#000000;fill-opacity:0" />
  </g>
  <g
     inkscape:groupmode="layer"
     id="layer2"
     inkscape:label="main">
    <path
       style="fill:#0000ff;fill-opacity:1;stroke:#000080;stroke-width:0.264583;stroke-linecap:round;stroke-miterlimit:4;stroke-dasharray:none;stroke-opacity:1"
       d="m 0.39687507,1.4552084 -7e-8,1.5874999 H 0.66145834 V 3.571875 H 2.2489584 V 3.0427084 H 3.571875 v -1.5875 z"
       id="path1057"
       sodipodi:nodetypes="ccccccccc" />
    <g
       id="g3624"
       style="opacity:0.57"
       transform="translate(0.13229167,-0.13229167)">
      <path
         style="fill:none;fill-opacity:1;stroke:#ffffff;stroke-width:0.264583;stroke-linecap:round;stroke-miterlimit:4;stroke-dasharray:none;stroke-opacity:1"
         d="M 3.175,1.8520833 H 1.8520833 L 1.3229167,2.38125 V 3.175"
         id="path3051"
         sodipodi:nodetypes="cccc" />
      <path
         style="fill:none;fill-opacity:1;stroke:#ffffff;stroke-width:0.264583;stroke-linecap:round;stroke-miterlimit:4;stroke-dasharray:none;stroke-opacity:1"
         d="M 2.9104168,2.38125 H 2.38125"
         id="path3463"
         sodipodi:nodetypes="cc" />
      <path
         style="opacity:1;fill:none;fill-opacity:1;stroke:#ffffff;stroke-width:0.264583;stroke-linecap:round;stroke-miterlimit:4;stroke-dasharray:none;stroke-opacity:1"
         d="m 0.79375,3.175 -10e-9,-1.0583334"
         id="path3713"
         sodipodi:nodetypes="cc" />
      <path
         style="opacity:1;fill:none;fill-opacity:1;stroke:#ffffff;stroke-width:0.264583;stroke-linecap:round;stroke-miterlimit:4;stroke-dasharray:none;stroke-opacity:1"
         d="M 1.8520833,3.175 V 2.6458333"
         id="path4116" />
      <path
         style="opacity:1;fill:none;fill-opacity:1;stroke:#ffffff;stroke-width:0.264583;stroke-linecap:round;stroke-miterlimit:4;stroke-dasharray:none;stroke-opacity:1"
         d="m 2.6458333,2.38125 10e-8,0.2645833"
         id="path4118"
         sodipodi:nodetypes="cc" />
    </g>
    <path
       style="fill:#ffde00;fill-opacity:1;stroke:none;stroke-width:0.0739533;stroke-linecap:round;stroke-miterlimit:4;stroke-dasharray:none;stroke-opacity:1"
       d="M 0.66145833,3.0427083 H 2.2489583 V 3.7041667 H 0.66145833 Z"
       id="path2016" />
    <path
       style="fill:none;fill-opacity:1;stroke:#000007;stroke-width:0.13229167;stroke-linecap:butt;stroke-miterlimit:4;stroke-dasharray:none;stroke-opacity:1"
       d="M 0.66145833,3.7041667 V 3.0427083"
       id="path2618" />
    <path
       style="fill:none;fill-opacity:1;stroke:#000007;stroke-width:0.13229167;stroke-linecap:butt;stroke-miterlimit:4;stroke-dasharray:none;stroke-opacity:1"
       d="M 1.190625,3.7041667 V 3.0427083"
       id="path2768" />
    <path
       style="fill:none;fill-opacity:1;stroke:#000007;stroke-width:0.13229167;stroke-linecap:butt;stroke-miterlimit:4;stroke-dasharray:none;stroke-opacity:1"
       d="M 1.7197917,3.7041667 V 3.0427083"
       id="path2772" />
    <path
       style="fill:none;fill-opacity:1;stroke:#000007;stroke-width:0.13229167;stroke-linecap:butt;stroke-miterlimit:4;stroke-dasharray:none;stroke-opacity:1"
       d="M 2.2489584,3.7041667 V 3.0427083"
       id="path2776" />
  </g>
</svg>
