<?xml version="1.0" encoding="UTF-8" standalone="no"?>
<!-- Created with Inkscape (http://www.inkscape.org/) -->

<svg
   xmlns:dc="http://purl.org/dc/elements/1.1/"
   xmlns:cc="http://creativecommons.org/ns#"
   xmlns:rdf="http://www.w3.org/1999/02/22-rdf-syntax-ns#"
   xmlns:svg="http://www.w3.org/2000/svg"
   xmlns="http://www.w3.org/2000/svg"
   xmlns:sodipodi="http://sodipodi.sourceforge.net/DTD/sodipodi-0.dtd"
   xmlns:inkscape="http://www.inkscape.org/namespaces/inkscape"
   width="16"
   height="16"
   viewBox="0 0 4.2333333 4.2333335"
   version="1.1"
   id="svg8"
   inkscape:version="0.92.2 (5c3e80d, 2017-08-06)"
   sodipodi:docname="fireball.svg">
  <defs
     id="defs2" />
  <sodipodi:namedview
     id="base"
     pagecolor="#ffffff"
     bordercolor="#666666"
     borderopacity="1.0"
     inkscape:pageopacity="0.0"
     inkscape:pageshadow="2"
     inkscape:zoom="22.4"
     inkscape:cx="9.5525867"
     inkscape:cy="1.2388264"
     inkscape:document-units="px"
     inkscape:current-layer="layer4"
     showgrid="true"
     units="px"
     inkscape:window-width="1680"
     inkscape:window-height="987"
     inkscape:window-x="-8"
     inkscape:window-y="-8"
     inkscape:window-maximized="1"
     inkscape:snap-nodes="false"
     inkscape:snap-bbox="true"
     inkscape:snap-bbox-midpoints="true">
    <inkscape:grid
       type="xygrid"
       id="grid4485"
       empspacing="4"
       color="#8484ba"
       opacity="0.1254902" />
  </sodipodi:namedview>
  <metadata
     id="metadata5">
    <rdf:RDF>
      <cc:Work
         rdf:about="">
        <dc:format>image/svg+xml</dc:format>
        <dc:type
           rdf:resource="http://purl.org/dc/dcmitype/StillImage" />
        <dc:title></dc:title>
        <cc:license
           rdf:resource="http://creativecommons.org/licenses/by-sa/4.0/" />
      </cc:Work>
      <cc:License
         rdf:about="http://creativecommons.org/licenses/by-sa/4.0/">
        <cc:permits
           rdf:resource="http://creativecommons.org/ns#Reproduction" />
        <cc:permits
           rdf:resource="http://creativecommons.org/ns#Distribution" />
        <cc:requires
           rdf:resource="http://creativecommons.org/ns#Notice" />
        <cc:requires
           rdf:resource="http://creativecommons.org/ns#Attribution" />
        <cc:permits
           rdf:resource="http://creativecommons.org/ns#DerivativeWorks" />
        <cc:requires
           rdf:resource="http://creativecommons.org/ns#ShareAlike" />
      </cc:License>
    </rdf:RDF>
  </metadata>
  <g
     inkscape:groupmode="layer"
     id="layer4"
     inkscape:label="Ref"
     style="display:inline">
    <g
       style="fill:#e30000;stroke:#5f0000;fill-opacity:1;stroke-opacity:1;stroke-width:4.99999882;stroke-miterlimit:4;stroke-dasharray:none"
       transform="matrix(0.01322917,0,0,-0.01322917,-0.00820431,4.2331348)"
       id="g7">
      <path
         inkscape:connector-curvature="0"
         d="M 98,264 C 21,223 23,95 100,55 184,12 280,68 280,160 280,252 181,309 98,264 Z"
         id="path5"
         style="fill:#e30000;fill-opacity:1;stroke:#5f0000;stroke-opacity:1;stroke-width:4.99999882;stroke-miterlimit:4;stroke-dasharray:none" />
    </g>
    <g
       style="fill:#363c41;stroke:none"
       transform="matrix(0.01322916,0,0,-0.01322917,0.04973771,4.2816461)"
       id="g13">
      <path
         inkscape:connector-curvature="0"
         d="M 86,229 C 72,212 60,192 60,184 c 0,-8 0,-17 0,-21 0,-5 3,-8 8,-8 4,0 12,-4 19,-8 15,-9 63,2 63,14 0,5 5,9 11,9 8,0 8,-4 -1,-15 -6,-8 -9,-19 -5,-25 3,-5 1,-10 -4,-10 -6,0 -11,5 -11,11 0,5 -5,7 -10,4 -6,-4 -8,-11 -5,-16 9,-13 -9,-11 -24,4 -10,8 -12,8 -7,0 3,-6 2,-14 -4,-18 -6,-4 -8,-11 -4,-16 3,-5 10,-7 15,-4 5,4 22,-3 38,-14 35,-25 41,-26 41,-6 0,8 9,19 20,25 11,6 20,17 20,25 0,7 5,17 12,21 6,4 8,3 5,-2 -3,-6 3,-11 14,-11 10,-1 19,3 19,8 0,6 -4,8 -9,5 -13,-8 -55,42 -56,67 0,13 -9,26 -22,32 -13,5 -23,13 -23,17 0,21 -51,5 -74,-23 z m 64,-14 c 0,-3 -2,-5 -5,-5 -3,0 -5,2 -5,5 0,3 2,5 5,5 3,0 5,-2 5,-5 z M 90,175 c 0,-3 -2,-5 -5,-5 -3,0 -5,2 -5,5 0,3 2,5 5,5 3,0 5,-2 5,-5 z"
         id="path9" />
      <path
         inkscape:connector-curvature="0"
         d="m 241,207 c -9,-12 -7,-16 9,-20 21,-5 25,0 11,21 -6,10 -10,10 -20,-1 z"
         id="path11" />
    </g>
    <g
       style="fill:#ff7808;stroke:none;fill-opacity:1"
       transform="matrix(0.01322917,0,0,-0.01322917,0.01184864,4.2989931)"
       id="g25">
      <path
         inkscape:connector-curvature="0"
         d="M 92,229 C 61,197 44,160 61,160 c 5,0 15,11 21,25 7,16 17,23 27,20 18,-5 45,30 36,45 -10,16 -21,12 -53,-21 z"
         id="path15"
         style="fill:#ff7808;fill-opacity:1" />
      <path
         inkscape:connector-curvature="0"
         d="m 157,233 c -14,-13 -6,-41 15,-55 l 22,-14 -34,-32 c -23,-23 -36,-29 -45,-22 -9,7 -16,6 -25,-5 -11,-14 -7,-19 13,-16 5,1 21,-8 37,-19 34,-24 40,-25 40,-5 0,8 9,19 20,25 11,6 20,17 20,25 0,7 5,17 12,21 6,4 8,3 5,-2 -3,-6 3,-11 14,-11 10,-1 19,3 19,9 0,6 -3,8 -7,5 -10,-11 -62,44 -56,59 10,26 -31,57 -50,37 z"
         id="path17"
         style="fill:#ff7808;fill-opacity:1" />
      <path
         inkscape:connector-curvature="0"
         d="m 242,207 c -8,-10 -6,-13 11,-14 12,0 16,1 9,4 -6,3 -10,9 -6,14 8,14 -2,11 -14,-4 z"
         id="path19"
         style="fill:#ff7808;fill-opacity:1" />
      <path
         inkscape:connector-curvature="0"
         d="m 91,178 c -17,-27 -2,-41 33,-32 31,8 32,33 0,44 -15,6 -24,3 -33,-12 z"
         id="path21"
         style="fill:#ff7808;fill-opacity:1" />
      <path
         inkscape:connector-curvature="0"
         d="m 170,165 c 0,-3 2,-5 5,-5 3,0 5,2 5,5 0,3 -2,5 -5,5 -3,0 -5,-2 -5,-5 z"
         id="path23"
         style="fill:#ff7808;fill-opacity:1" />
    </g>
    <g
       style="fill:#a82e00;stroke:none"
       transform="matrix(0.01322917,0,0,-0.01322917,0.0068877,4.1987911)"
       id="g41">
      <path
         inkscape:connector-curvature="0"
         d="M 92,229 C 61,197 44,160 61,160 c 5,0 15,11 21,25 7,16 17,23 27,20 18,-5 45,30 36,45 -10,16 -21,12 -53,-21 z"
         id="path27" />
      <path
         inkscape:connector-curvature="0"
         d="m 156,232 c -6,-11 21,-52 35,-52 16,0 10,47 -7,54 -20,8 -22,8 -28,-2 z"
         id="path29" />
      <path
         inkscape:connector-curvature="0"
         d="m 250,215 c 0,-3 2,-5 5,-5 3,0 5,2 5,5 0,3 -2,5 -5,5 -3,0 -5,-2 -5,-5 z"
         id="path31" />
      <path
         inkscape:connector-curvature="0"
         d="m 92,179 c -14,-22 -1,-33 28,-24 25,8 25,17 2,32 -15,9 -21,7 -30,-8 z"
         id="path33" />
      <path
         inkscape:connector-curvature="0"
         d="m 253,193 c 4,-3 10,-3 14,0 3,4 0,7 -7,7 -7,0 -10,-3 -7,-7 z"
         id="path35" />
      <path
         inkscape:connector-curvature="0"
         d="m 177,150 c 4,-18 -53,-54 -63,-39 -4,6 -11,6 -20,-2 -14,-12 -9,-33 6,-24 4,3 21,-2 36,-10 26,-13 30,-13 52,8 35,33 45,56 32,72 -15,19 -48,15 -43,-5 z"
         id="path37" />
      <path
         inkscape:connector-curvature="0"
         d="m 260,130 c 0,-7 3,-10 7,-7 3,4 3,10 0,14 -4,3 -7,0 -7,-7 z"
         id="path39" />
    </g>
    <g
       style="fill:#ffb513;stroke:none;fill-opacity:1"
       transform="matrix(0.01322917,0,0,-0.01322916,0.0068877,4.2389539)"
       id="g59">
      <path
         inkscape:connector-curvature="0"
         d="M 92,229 C 61,197 44,160 61,160 c 5,0 15,11 21,25 7,16 17,23 27,20 18,-5 45,30 36,45 -10,16 -21,12 -53,-21 z"
         id="path43"
         style="fill:#ffb513;fill-opacity:1" />
      <path
         inkscape:connector-curvature="0"
         d="m 156,232 c -7,-11 22,-52 36,-52 7,0 4,6 -7,13 -13,10 -15,16 -6,21 6,4 9,12 6,17 -8,11 -22,12 -29,1 z"
         id="path45"
         style="fill:#ffb513;fill-opacity:1" />
      <path
         inkscape:connector-curvature="0"
         d="m 250,215 c 0,-3 2,-5 5,-5 3,0 5,2 5,5 0,3 -2,5 -5,5 -3,0 -5,-2 -5,-5 z"
         id="path47"
         style="fill:#ffb513;fill-opacity:1" />
      <path
         inkscape:connector-curvature="0"
         d="m 92,180 c -6,-11 -8,-21 -4,-24 4,-3 13,4 20,14 6,11 8,21 4,24 -4,3 -13,-4 -20,-14 z"
         id="path49"
         style="fill:#ffb513;fill-opacity:1" />
      <path
         inkscape:connector-curvature="0"
         d="m 253,193 c 4,-3 10,-3 14,0 3,4 0,7 -7,7 -7,0 -10,-3 -7,-7 z"
         id="path51"
         style="fill:#ffb513;fill-opacity:1" />
      <path
         inkscape:connector-curvature="0"
         d="m 177,151 c 5,-20 -50,-54 -64,-40 -6,6 -15,4 -23,-6 -7,-8 -11,-15 -9,-16 46,-8 82,-7 94,3 8,7 21,19 30,26 22,18 15,47 -11,48 -15,1 -20,-4 -17,-15 z"
         id="path53"
         style="fill:#ffb513;fill-opacity:1" />
      <path
         inkscape:connector-curvature="0"
         d="m 260,130 c 0,-7 3,-10 7,-7 3,4 3,10 0,14 -4,3 -7,0 -7,-7 z"
         id="path55"
         style="fill:#ffb513;fill-opacity:1" />
      <path
         inkscape:connector-curvature="0"
         d="m 160,65 c 0,-3 2,-5 5,-5 3,0 5,2 5,5 0,3 -2,5 -5,5 -3,0 -5,-2 -5,-5 z"
         id="path57"
         style="fill:#ffb513;fill-opacity:1" />
    </g>
    <g
       style="fill:#f1ff0a;stroke:none;fill-opacity:1"
       transform="matrix(0.01322917,0,0,-0.01322917,0.00586183,4.2349741)"
       id="g81">
      <path
         inkscape:connector-curvature="0"
         d="m 114,248 c -5,-7 -3,-8 6,-3 9,5 11,4 6,-4 -4,-6 -12,-9 -17,-5 -11,6 -38,-25 -52,-59 -5,-14 -4,-18 7,-14 7,3 20,0 27,-6 11,-10 11,-9 1,4 -16,21 -5,52 16,44 8,-3 19,0 23,6 4,7 18,14 30,16 18,3 21,1 12,-8 -14,-14 0,-39 21,-39 6,0 3,5 -7,11 -14,8 -15,14 -7,24 12,14 -3,31 -19,21 -5,-3 -11,1 -15,9 -6,18 -22,20 -32,3 z"
         id="path61"
         style="fill:#f1ff0a;fill-opacity:1" />
      <path
         inkscape:connector-curvature="0"
         d="m 250,215 c 0,-3 2,-5 5,-5 3,0 5,2 5,5 0,3 -2,5 -5,5 -3,0 -5,-2 -5,-5 z"
         id="path63"
         style="fill:#f1ff0a;fill-opacity:1" />
      <path
         inkscape:connector-curvature="0"
         d="m 100,184 c 0,-8 5,-12 10,-9 6,4 8,11 5,16 -9,14 -15,11 -15,-7 z"
         id="path65"
         style="fill:#f1ff0a;fill-opacity:1" />
      <path
         inkscape:connector-curvature="0"
         d="m 253,193 c 4,-3 10,-3 14,0 3,4 0,7 -7,7 -7,0 -10,-3 -7,-7 z"
         id="path67"
         style="fill:#f1ff0a;fill-opacity:1" />
      <path
         inkscape:connector-curvature="0"
         d="m 175,160 c 3,-5 8,-10 11,-10 3,0 2,5 -1,10 -3,6 -8,10 -11,10 -3,0 -2,-4 1,-10 z"
         id="path69"
         style="fill:#f1ff0a;fill-opacity:1" />
      <path
         inkscape:connector-curvature="0"
         d="m 205,160 c 3,-5 8,-10 11,-10 3,0 2,5 -1,10 -3,6 -8,10 -11,10 -3,0 -2,-4 1,-10 z"
         id="path71"
         style="fill:#f1ff0a;fill-opacity:1" />
      <path
         inkscape:connector-curvature="0"
         d="m 195,120 c -16,-17 -16,-20 -3,-15 9,4 19,13 22,21 7,19 2,18 -19,-6 z"
         id="path73"
         style="fill:#f1ff0a;fill-opacity:1" />
      <path
         inkscape:connector-curvature="0"
         d="m 260,130 c 0,-7 3,-10 7,-7 3,4 3,10 0,14 -4,3 -7,0 -7,-7 z"
         id="path75"
         style="fill:#f1ff0a;fill-opacity:1" />
      <path
         inkscape:connector-curvature="0"
         d="M 91,107 C 77,90 89,77 106,91 c 8,7 14,7 19,-1 8,-13 45,-13 45,0 0,6 -5,10 -11,10 -5,0 -7,5 -4,10 3,6 2,10 -4,10 -5,0 -13,-5 -16,-10 -5,-8 -11,-8 -20,0 -9,7 -16,6 -24,-3 z"
         id="path77"
         style="fill:#f1ff0a;fill-opacity:1" />
      <path
         inkscape:connector-curvature="0"
         d="m 160,65 c 0,-3 2,-5 5,-5 3,0 5,2 5,5 0,3 -2,5 -5,5 -3,0 -5,-2 -5,-5 z"
         id="path79"
         style="fill:#f1ff0a;fill-opacity:1" />
    </g>
    <g
       style="fill:#574b36;stroke:none"
       transform="matrix(0.01322917,0,0,-0.01322917,-0.02136906,4.3966466)"
       id="g111">
      <path
         inkscape:connector-curvature="0"
         d="m 146,229 c 2,-4 12,-5 22,-2 14,5 15,3 5,-7 -14,-15 0,-40 21,-40 6,0 3,5 -7,11 -14,8 -16,14 -6,25 13,16 13,16 -18,19 -12,1 -20,-1 -17,-6 z"
         id="path83" />
      <path
         inkscape:connector-curvature="0"
         d="m 100,225 c 0,-3 2,-5 5,-5 3,0 5,2 5,5 0,3 -2,5 -5,5 -3,0 -5,-2 -5,-5 z"
         id="path85" />
      <path
         inkscape:connector-curvature="0"
         d="m 250,215 c 0,-3 2,-5 5,-5 3,0 5,2 5,5 0,3 -2,5 -5,5 -3,0 -5,-2 -5,-5 z"
         id="path87" />
      <path
         inkscape:connector-curvature="0"
         d="m 60,195 c 0,-3 2,-5 5,-5 3,0 5,2 5,5 0,3 -2,5 -5,5 -3,0 -5,-2 -5,-5 z"
         id="path89" />
      <path
         inkscape:connector-curvature="0"
         d="m 100,184 c 0,-8 5,-12 10,-9 6,4 8,11 5,16 -9,14 -15,11 -15,-7 z"
         id="path91" />
      <path
         inkscape:connector-curvature="0"
         d="m 253,193 c 4,-3 10,-3 14,0 3,4 0,7 -7,7 -7,0 -10,-3 -7,-7 z"
         id="path93" />
      <path
         inkscape:connector-curvature="0"
         d="m 70,176 c 0,-2 8,-10 18,-17 15,-13 16,-12 3,4 -13,16 -21,21 -21,13 z"
         id="path95" />
      <path
         inkscape:connector-curvature="0"
         d="m 50,165 c 0,-3 2,-5 5,-5 3,0 5,2 5,5 0,3 -2,5 -5,5 -3,0 -5,-2 -5,-5 z"
         id="path97" />
      <path
         inkscape:connector-curvature="0"
         d="m 170,165 c 0,-3 2,-5 5,-5 3,0 5,2 5,5 0,3 -2,5 -5,5 -3,0 -5,-2 -5,-5 z"
         id="path99" />
      <path
         inkscape:connector-curvature="0"
         d="m 205,160 c 3,-5 8,-10 11,-10 3,0 2,5 -1,10 -3,6 -8,10 -11,10 -3,0 -2,-4 1,-10 z"
         id="path101" />
      <path
         inkscape:connector-curvature="0"
         d="m 195,120 c -16,-17 -16,-20 -3,-15 9,4 19,13 22,21 7,19 2,18 -19,-6 z"
         id="path103" />
      <path
         inkscape:connector-curvature="0"
         d="m 260,130 c 0,-7 3,-10 7,-7 3,4 3,10 0,14 -4,3 -7,0 -7,-7 z"
         id="path105" />
      <path
         inkscape:connector-curvature="0"
         d="M 91,107 C 77,90 89,77 106,91 c 8,7 14,7 19,-1 8,-13 45,-13 45,0 0,6 -5,10 -11,10 -5,0 -7,5 -4,10 3,6 2,10 -4,10 -5,0 -13,-5 -16,-10 -5,-8 -11,-8 -20,0 -9,7 -16,6 -24,-3 z"
         id="path107" />
      <path
         inkscape:connector-curvature="0"
         d="m 160,65 c 0,-3 2,-5 5,-5 3,0 5,2 5,5 0,3 -2,5 -5,5 -3,0 -5,-2 -5,-5 z"
         id="path109" />
    </g>
    <g
       style="fill:#f76900;stroke:none;fill-opacity:1"
       transform="matrix(0.01322917,0,0,-0.01322917,-0.14869977,4.2330866)"
       id="g127">
      <path
         inkscape:connector-curvature="0"
         d="m 155,230 c -4,-6 1,-7 12,-3 15,6 16,4 6,-8 -13,-16 -1,-39 21,-39 5,0 2,6 -9,13 -13,10 -15,16 -6,21 6,4 9,12 6,17 -8,12 -22,12 -30,-1 z"
         id="path113"
         style="fill:#f76900;fill-opacity:1" />
      <path
         inkscape:connector-curvature="0"
         d="m 100,225 c 0,-3 2,-5 5,-5 3,0 5,2 5,5 0,3 -2,5 -5,5 -3,0 -5,-2 -5,-5 z"
         id="path115"
         style="fill:#f76900;fill-opacity:1" />
      <path
         inkscape:connector-curvature="0"
         d="m 100,179 c 0,-5 5,-7 10,-4 6,3 10,8 10,11 0,2 -4,4 -10,4 -5,0 -10,-5 -10,-11 z"
         id="path117"
         style="fill:#f76900;fill-opacity:1" />
      <path
         inkscape:connector-curvature="0"
         d="m 85,160 c 3,-5 8,-10 11,-10 3,0 2,5 -1,10 -3,6 -8,10 -11,10 -3,0 -2,-4 1,-10 z"
         id="path119"
         style="fill:#f76900;fill-opacity:1" />
      <path
         inkscape:connector-curvature="0"
         d="m 205,160 c 3,-5 8,-10 11,-10 3,0 2,5 -1,10 -3,6 -8,10 -11,10 -3,0 -2,-4 1,-10 z"
         id="path121"
         style="fill:#f76900;fill-opacity:1" />
      <path
         inkscape:connector-curvature="0"
         d="m 195,120 c -16,-17 -16,-20 -3,-15 9,4 19,13 22,21 7,19 2,18 -19,-6 z"
         id="path123"
         style="fill:#f76900;fill-opacity:1" />
      <path
         inkscape:connector-curvature="0"
         d="m 131,107 c -6,-8 -8,-17 -4,-20 10,-11 43,-8 43,3 0,6 -5,10 -11,10 -5,0 -7,5 -4,10 9,15 -11,12 -24,-3 z"
         id="path125"
         style="fill:#f76900;fill-opacity:1" />
    </g>
    <g
       style="fill:#b7772f;stroke:none"
       transform="matrix(0.01322917,0,0,-0.01322917,-0.41328307,4.6265034)"
       id="g145">
      <path
         inkscape:connector-curvature="0"
         d="m 100,175 c 0,-3 2,-5 5,-5 3,0 5,2 5,5 0,3 -2,5 -5,5 -3,0 -5,-2 -5,-5 z"
         id="path141" />
      <path
         inkscape:connector-curvature="0"
         d="m 126,88 c 7,-10 34,-10 34,0 0,4 -9,8 -19,8 -11,0 -17,-4 -15,-8 z"
         id="path143" />
    </g>
  </g>
  <g
     inkscape:label="BG"
     inkscape:groupmode="layer"
     id="layer1"
     transform="translate(0,-292.76665)" />
  <g
     inkscape:groupmode="layer"
     id="layer2"
     inkscape:label="Main" />
  <g
     inkscape:groupmode="layer"
     id="layer3"
     inkscape:label="FG" />
</svg>
